<svg width="960" height="540" viewBox="0 0 960 540" fill="none" xmlns="http://www.w3.org/2000/svg">
<g clip-path="url(#clip0_287_63033)">
<mask id="mask0_287_63033" style="mask-type:luminance" maskUnits="userSpaceOnUse" x="-4" y="-1" width="964" height="544">
<path d="M960 -0.125H-4V542.125H960V-0.125Z" fill="white"/>
</mask>
<g mask="url(#mask0_287_63033)">
<path d="M960 -0.125H-4V542.125H960V-0.125Z" fill="#37471F"/>
<path d="M345.031 271.743H473.374L631.791 -129.312H518.622L345.031 271.743Z" fill="#4C6B1F"/>
<path d="M795.57 162.611L915.076 379.571L796.735 601.17H659.827L794.415 377.251L655.188 160.291C655.188 160.291 793.833 164.348 795.57 162.611Z" fill="#28311B"/>
<path d="M595.098 376.809C587.095 371.778 581.24 367.771 577.244 365.181C573.257 362.59 571.138 361.415 570.837 361.797C570.556 362.138 572.092 364.036 575.667 367.239C579.242 370.443 584.865 374.961 592.909 380.223C598.612 383.949 604.497 387.463 610.582 390.777C616.687 394.061 622.984 397.113 629.491 399.955C642.525 405.598 656.412 410.258 671.224 413.662C686.025 417.106 701.75 419.235 718.329 419.888C726.624 420.219 735.109 420.159 743.795 419.848C752.541 419.536 761.478 418.632 770.556 417.478C780.849 416.142 790.097 414.756 798.592 413.531C807.108 412.296 814.84 411.051 821.969 409.806C836.228 407.305 848.088 404.825 859.073 402.305C870.059 399.774 880.181 397.163 890.895 394.141C901.61 391.098 912.927 387.654 926.212 383.075C948.645 375.313 974.472 364.719 1000.07 351.002C1012.86 344.163 1025.58 336.552 1037.81 328.308C1050.04 320.074 1061.74 311.187 1072.58 301.948C1094.24 283.462 1112.44 263.619 1125.2 245.494C1131.59 236.457 1136.66 227.901 1140.48 220.44C1144.31 212.979 1146.93 206.643 1148.63 202.044C1150.65 196.591 1152.4 191.028 1153.73 185.324C1154.9 180.253 1156.44 172.933 1157.02 163.584C1157.6 154.265 1157.26 142.938 1154.58 130.396C1151.91 117.915 1146.88 104.107 1137.8 91.234C1135.52 88.0407 1133.01 84.9077 1130.25 81.8952C1127.46 78.9128 1124.41 76.061 1121.12 73.3899C1114.49 68.1381 1106.98 63.5792 1098.77 60.1751C1090.57 56.7408 1081.81 54.2103 1072.76 52.4932C1063.7 50.8162 1054.37 49.8422 1044.92 49.4405C1026.03 48.6874 1006.6 49.5811 987.054 51.9911C967.533 54.4312 947.952 58.468 928.903 64.0813C924.143 65.4771 919.414 66.9833 914.724 68.5699C910.055 70.1665 905.345 71.7732 900.706 73.8819C896.077 75.9706 891.518 78.6116 887.602 82.1864C883.635 85.8014 880.582 90.3804 878.926 95.5619C878.363 97.3995 877.992 99.3075 877.851 101.235C877.721 103.173 877.861 105.142 878.253 107.05C879.096 110.835 880.904 114.35 883.404 117.121C885.884 119.903 888.867 121.961 891.899 123.538C894.942 125.125 898.065 126.259 901.168 127.163C907.364 128.981 913.569 129.714 919.333 130.447C925.157 131.18 930.841 131.802 936.374 132.345C958.516 134.503 978.308 135.287 995.79 135.347C1030.77 135.447 1056.42 132.927 1073.93 130.929C1084.24 129.643 1094.22 128.398 1103.91 127.183C1113.6 125.908 1123.04 124.572 1132.21 122.684C1136.79 121.731 1141.28 120.636 1145.67 119.371C1150.06 118.095 1154.34 116.609 1158.5 115.013C1166.77 111.799 1174.64 108.174 1182.12 104.178C1189.59 100.171 1196.67 95.823 1203.4 91.2038C1210.12 86.5646 1216.47 81.7747 1222.63 76.8141C1234.91 66.8427 1246 56.0379 1256.01 44.4297C1261.5 38.0432 1265.21 32.9119 1267.5 29.3773C1269.79 25.8426 1270.66 23.8845 1270.34 23.6535C1270 23.4025 1268.46 24.8686 1265.67 27.9815C1262.88 31.0944 1258.83 35.8441 1253.28 42.0298C1243.17 53.2764 1232.05 63.6997 1219.83 73.3196C1213.71 78.0894 1207.32 82.7789 1200.69 87.2273C1194.04 91.6657 1187.07 95.8431 1179.73 99.679C1172.39 103.505 1164.67 106.979 1156.59 110.052C1152.55 111.568 1148.42 112.964 1144.18 114.179C1139.93 115.374 1135.57 116.408 1131.1 117.312C1122.17 119.11 1112.84 120.385 1103.19 121.64C1093.52 122.835 1083.55 124.06 1073.27 125.325C1057.34 127.153 1032.62 129.382 1000.09 129.272C983.831 129.212 965.625 128.519 945.672 126.761C935.701 125.888 925.278 124.723 914.483 123.237C909.221 122.474 903.899 121.419 898.959 119.501C896.488 118.547 894.119 117.403 892.01 115.957C889.921 114.5 888.114 112.763 886.818 110.725L886.487 110.243L886.226 109.721L885.694 108.676C885.402 107.953 885.151 107.2 884.91 106.467C884.499 104.981 884.368 103.414 884.459 101.828C884.639 98.6547 885.764 95.4414 887.501 92.5494C890.965 86.7252 896.99 82.6383 903.628 79.6157C907.213 77.9589 911.049 76.553 914.985 75.1572C918.911 73.7715 922.888 72.4359 926.915 71.1707C934.968 68.6302 943.222 66.3708 951.597 64.3926C968.337 60.4362 985.578 57.6847 1002.73 56.2187C1011.3 55.4756 1019.85 55.0639 1028.31 54.9534C1036.76 54.8229 1045.09 55.0337 1053.23 55.6864C1069.47 56.9818 1084.97 60.1751 1098.21 66.1298C1104.82 69.072 1110.85 72.6669 1116.13 76.7137C1118.78 78.722 1121.19 80.9111 1123.47 83.1102C1125.7 85.3696 1127.81 87.629 1129.68 89.9888C1133.47 94.6582 1136.53 99.4581 1139 104.127C1141.49 108.787 1143.39 113.295 1144.89 117.463C1147.89 125.817 1149.21 132.796 1149.96 137.576C1150.16 138.771 1150.29 139.836 1150.4 140.759C1150.52 141.683 1150.62 142.456 1150.67 143.079C1150.79 144.334 1150.86 144.987 1150.86 144.987C1150.86 144.987 1150.88 145.228 1150.93 145.71C1150.96 146.182 1151.01 146.895 1151.08 147.819C1151.22 149.676 1151.35 152.418 1151.34 155.952C1151.35 163.012 1150.6 173.244 1147.49 185.495C1144.44 197.736 1138.94 211.865 1130.61 226.335C1122.32 240.825 1111.25 255.596 1098.23 269.745C1085.19 283.903 1070.37 297.55 1054.41 309.861C1038.49 322.212 1021.52 333.288 1004.52 342.828C970.506 361.967 936.565 374.871 910.948 383.005C891.638 389.15 874.527 393.518 859.475 396.892C844.412 400.266 831.388 402.676 820.091 404.574C808.795 406.482 799.235 407.808 790.971 408.972C782.726 410.137 775.838 411.101 769.893 411.854C760.886 413.009 752.16 413.903 743.624 414.224C735.049 414.546 726.704 414.636 718.58 414.345C702.333 413.772 686.929 411.794 672.419 408.551C657.888 405.347 644.242 400.929 631.388 395.577C624.972 392.876 618.746 389.963 612.691 386.841C606.666 383.687 600.812 380.323 595.138 376.769L595.098 376.809Z" fill="#4C6B1F"/>
<path d="M565.142 166.275C564.088 166.627 564.088 169.991 565.142 170.342C566.629 170.844 568.195 171.105 570.203 171.125C572.483 170.965 573.045 170.272 574.592 170.352C577.202 170.352 581.601 171.286 582.655 171.517C582.816 171.547 582.966 171.557 583.127 171.547C584.252 171.416 589.172 170.914 593.42 171.155C596.412 171.155 598.27 171.135 599.234 171.135C601.523 171.105 603.23 170.764 604.907 170.131C605.831 169.78 605.831 166.858 604.907 166.506C603.23 165.863 601.523 165.522 599.234 165.502C598.34 165.502 596.492 164.699 593.882 164.558C593.46 164.538 593.028 164.588 592.606 164.719C588.961 165.813 584.232 165.502 584.232 165.502C584.232 165.502 577.172 165.492 574.19 165.482C571.951 165.482 570.866 165.492 570.203 165.502C568.195 165.522 566.629 165.793 565.142 166.295V166.275Z" fill="#4C6B1F"/>
<path d="M633.275 213.259C632.231 213.611 632.231 216.975 633.275 217.326C634.762 217.828 636.328 218.09 638.336 218.11C640.616 217.949 641.178 217.256 642.725 217.336C645.335 217.336 649.734 218.27 650.788 218.501C650.949 218.531 651.099 218.541 651.26 218.531C652.385 218.401 657.305 217.899 661.553 218.14C664.545 218.14 666.403 218.12 667.367 218.12C669.656 218.09 671.363 217.748 673.04 217.115C673.964 216.764 673.964 213.842 673.04 213.49C671.363 212.848 669.656 212.506 667.367 212.486C666.483 212.486 664.626 211.683 662.015 211.542C661.593 211.522 661.161 211.572 660.739 211.703C657.094 212.798 652.365 212.486 652.365 212.486C652.365 212.486 645.305 212.476 642.323 212.466C640.084 212.466 638.999 212.476 638.336 212.486C636.328 212.506 634.762 212.777 633.275 213.28V213.259Z" fill="#4C6B1F"/>
<path d="M587.334 177.05C584.191 177.401 584.191 180.765 587.334 181.116C591.792 181.618 596.482 181.88 602.507 181.9C609.335 181.739 611.032 181.046 615.661 181.126C623.474 181.126 636.669 182.06 639.842 182.291C640.314 182.321 640.786 182.331 641.258 182.321C644.622 182.191 659.393 181.689 672.106 181.93C681.083 181.92 686.646 181.91 689.548 181.91C696.406 181.88 701.528 181.538 706.559 180.906C709.32 180.554 709.32 177.632 706.559 177.28C701.528 176.638 696.406 176.296 689.548 176.276C686.887 176.276 681.334 175.473 673.501 175.332C672.226 175.312 670.951 175.363 669.686 175.493C658.76 176.588 644.571 176.276 644.571 176.276C644.571 176.276 623.404 176.266 614.466 176.256C607.739 176.256 604.505 176.266 602.517 176.276C596.492 176.296 591.802 176.568 587.344 177.07L587.334 177.05Z" fill="#4C6B1F"/>
<path d="M607.963 223.623C604.82 223.974 604.82 227.338 607.963 227.69C612.421 228.192 617.111 228.453 623.136 228.473C629.964 228.312 631.661 227.619 636.29 227.7C644.103 227.7 657.298 228.634 660.471 228.865C660.943 228.895 661.415 228.905 661.887 228.895C665.25 228.764 680.022 228.262 692.735 228.503C701.712 228.503 707.275 228.483 710.177 228.483C717.035 228.453 722.157 228.111 727.188 227.479C729.949 227.127 729.949 224.205 727.188 223.854C722.157 223.211 717.035 222.87 710.177 222.85C707.516 222.85 701.963 222.046 694.13 221.906C692.855 221.886 691.58 221.936 690.314 222.066C679.389 223.161 665.2 222.85 665.2 222.85C665.2 222.85 644.032 222.84 635.095 222.829C628.367 222.829 625.134 222.84 623.146 222.85C617.121 222.87 612.431 223.141 607.973 223.643L607.963 223.623Z" fill="#4C6B1F"/>
<path d="M343.947 417.026L242.586 91.8965H381.04L482.401 417.016H343.947V417.026Z" fill="#28311B"/>
<path d="M345.031 271.743H437.123L398.553 148.08L345.031 271.743Z" fill="#28311B"/>
<mask id="mask1_287_63033" style="mask-type:luminance" maskUnits="userSpaceOnUse" x="242" y="91" width="241" height="327">
<path d="M343.947 417.026L242.586 91.8965H381.04L482.401 417.016H343.947V417.026Z" fill="white"/>
</mask>
<g mask="url(#mask1_287_63033)">
<path d="M-43.6791 344.568L-44.4609 346.418L436.072 549.502L436.854 547.652L-43.6791 344.568Z" fill="#28311B"/>
<path d="M-56.9096 375.855L-57.6914 377.705L422.841 580.789L423.623 578.939L-56.9096 375.855Z" fill="#28311B"/>
</g>
<path d="M-380.57 376.246C-388.573 371.215 -394.428 367.208 -398.424 364.618C-402.411 362.027 -404.53 360.852 -404.831 361.234C-405.112 361.575 -403.576 363.473 -400.001 366.676C-396.426 369.88 -390.803 374.398 -382.759 379.66C-377.056 383.386 -371.171 386.9 -365.086 390.214C-358.98 393.498 -352.684 396.55 -346.177 399.392C-333.143 405.035 -319.256 409.695 -304.444 413.099C-289.643 416.543 -273.918 418.672 -257.339 419.325C-249.044 419.656 -240.559 419.596 -231.873 419.285C-223.127 418.973 -214.19 418.069 -205.112 416.915C-194.819 415.579 -185.571 414.193 -177.076 412.968C-168.56 411.733 -160.828 410.488 -153.699 409.233C-139.44 406.732 -127.58 404.252 -116.595 401.732C-105.609 399.201 -95.4872 396.59 -84.7727 393.568C-74.0583 390.525 -62.7413 387.081 -49.4562 382.502C-27.0231 374.73 -1.19595 364.146 24.4003 350.429C37.1933 343.59 49.9161 335.979 62.1469 327.735C74.3676 319.5 86.0762 310.614 96.9111 301.375C118.571 282.889 136.777 263.046 149.529 244.921C155.926 235.884 160.997 227.328 164.813 219.867C168.639 212.406 171.26 206.07 172.967 201.471C174.985 196.018 176.732 190.455 178.058 184.751C179.233 179.68 180.769 172.36 181.352 163.011C181.934 153.693 181.593 142.366 178.911 129.823C176.24 117.342 171.209 103.534 162.132 90.661C159.852 87.4677 157.342 84.3347 154.58 81.3222C151.789 78.3399 148.746 75.488 145.453 72.8169C138.825 67.5651 131.314 63.0062 123.1 59.6021C114.906 56.1679 106.139 53.6374 97.0919 51.9202C88.0343 50.2433 78.7056 49.2692 69.2564 48.8676C50.358 48.1144 30.9274 49.0081 11.3863 51.4081C-8.13473 53.8482 -27.716 57.885 -46.765 63.4983C-51.5248 64.8941 -56.2544 66.3903 -60.9439 67.9869C-65.6132 69.5835 -70.3228 71.1902 -74.962 73.2989C-79.5912 75.3876 -84.1502 78.0286 -88.0664 81.6034C-92.0329 85.2184 -95.0855 89.7974 -96.7424 94.9789C-97.3047 96.8165 -97.6763 98.7244 -97.8168 100.652C-97.9474 102.59 -97.8068 104.559 -97.4152 106.467C-96.5717 110.252 -94.7642 113.767 -92.2638 116.538C-89.7835 119.32 -86.8012 121.378 -83.7686 122.955C-80.7259 124.542 -77.603 125.676 -74.5001 126.58C-68.3044 128.398 -62.0986 129.131 -56.3347 129.864C-50.5106 130.597 -44.827 131.219 -39.294 131.762C-17.1521 133.92 2.63999 134.704 20.1225 134.764C55.0876 134.864 80.7541 132.344 98.2668 130.346C108.57 129.06 118.551 127.815 128.241 126.6C137.931 125.325 147.37 123.989 156.539 122.101C161.118 121.147 165.616 120.053 170.004 118.788C174.393 117.512 178.67 116.026 182.828 114.43C191.102 111.216 198.975 107.591 206.456 103.595C213.927 99.588 221.006 95.24 227.734 90.6208C234.452 85.9816 240.798 81.1917 246.964 76.2311C259.245 66.2597 270.331 55.4549 280.342 43.8467C285.835 37.4602 289.54 32.3289 291.83 28.7943C294.119 25.2596 294.993 23.3015 294.672 23.0705C294.33 22.8195 292.794 24.2856 290.002 27.3985C287.211 30.5114 283.164 35.2611 277.611 41.4468C267.499 52.6934 256.383 63.1167 244.162 72.7366C238.047 77.5064 231.65 82.1959 225.023 86.6443C218.375 91.0827 211.406 95.2601 204.066 99.096C196.725 102.922 189.003 106.396 180.92 109.469C176.883 110.985 172.756 112.381 168.508 113.596C164.261 114.791 159.903 115.825 155.434 116.729C146.507 118.527 137.168 119.802 127.518 121.057C117.848 122.252 107.887 123.477 97.604 124.742C81.6679 126.57 56.9554 128.799 24.4204 128.689C8.1629 128.629 -10.0426 127.936 -29.9954 126.178C-39.9668 125.305 -50.39 124.14 -61.1848 122.654C-66.4467 121.891 -71.7688 120.836 -76.7093 118.918C-79.1795 117.964 -81.5493 116.82 -83.6581 115.374C-85.7468 113.917 -87.5543 112.18 -88.8496 110.142L-89.181 109.66L-89.4421 109.138L-89.9743 108.093C-90.2655 107.37 -90.5166 106.617 -90.7576 105.884C-91.1693 104.398 -91.2998 102.831 -91.2094 101.245C-91.0287 98.0717 -89.904 94.8584 -88.1668 91.9664C-84.7024 86.1422 -78.6775 82.0553 -72.0399 79.0327C-68.455 77.3759 -64.6191 75.97 -60.6828 74.5742C-56.7565 73.1885 -52.78 71.8529 -48.7533 70.5877C-40.6999 68.0471 -32.4456 65.7878 -24.0709 63.8096C-7.33139 59.8531 9.91013 57.1118 27.0613 55.6356C35.6369 54.8926 44.1823 54.4809 52.6374 54.3704C61.0925 54.2399 69.4271 54.4507 77.5608 55.1034C93.7982 56.3988 109.303 59.5921 122.537 65.5468C129.155 68.489 135.18 72.0839 140.462 76.1307C143.113 78.139 145.523 80.3281 147.802 82.5272C150.032 84.7866 152.14 87.046 154.008 89.4058C157.804 94.0751 160.867 98.8751 163.337 103.544C165.817 108.204 167.725 112.712 169.221 116.88C172.224 125.234 173.539 132.213 174.292 136.993C174.493 138.188 174.624 139.253 174.734 140.176C174.855 141.1 174.955 141.873 175.005 142.496C175.126 143.751 175.196 144.404 175.196 144.404C175.196 144.404 175.216 144.645 175.266 145.127C175.296 145.599 175.357 146.312 175.417 147.236C175.547 149.093 175.678 151.835 175.668 155.369C175.678 162.429 174.935 172.661 171.822 184.912C168.769 197.153 163.277 211.281 154.942 225.752C146.648 240.242 135.582 255.013 122.558 269.162C109.523 283.32 94.702 296.967 78.7458 309.278C62.8197 321.629 45.8493 332.705 28.8487 342.245C-5.16241 361.384 -39.1032 374.288 -64.7195 382.422C-84.0296 388.567 -101.141 392.935 -116.193 396.309C-131.256 399.683 -144.28 402.093 -155.577 403.991C-166.873 405.899 -176.433 407.224 -184.697 408.389C-192.942 409.554 -199.83 410.518 -205.775 411.271C-214.782 412.426 -223.508 413.32 -232.044 413.641C-240.619 413.962 -248.964 414.053 -257.088 413.762C-273.335 413.189 -288.739 411.211 -303.249 407.968C-317.78 404.764 -331.426 400.346 -344.279 394.994C-350.696 392.293 -356.922 389.38 -362.977 386.257C-369.002 383.104 -374.856 379.74 -380.53 376.186L-380.57 376.246Z" fill="#4C6B1F"/>
<path d="M-52.7617 196.31L116.059 281.474L83.4334 -73.6699L-52.7617 196.31Z" fill="#28311B"/>
<path d="M200.473 253.979L31.6523 168.815L64.2677 523.959L200.473 253.979Z" fill="#4C6B1F"/>
<path d="M118.974 285.761L-56.1328 197.425L85.1333 -82.6074L118.974 285.761ZM-49.3949 195.195L113.14 277.196L81.7292 -64.7232L-49.3949 195.195Z" fill="#28311B"/>
<path d="M182.676 108.836C179.433 110.614 180.959 114.831 184.655 113.877C189.876 112.542 195.238 110.654 201.766 107.471C203.583 106.507 205.019 105.643 206.244 104.9C207.459 104.127 208.443 103.434 209.367 102.801C211.205 101.516 212.761 100.401 215.171 99.0459C219.218 96.6861 224.711 93.5832 229.521 90.6912C234.341 87.8092 238.508 85.1884 240.115 84.1942C240.587 83.893 241.049 83.5716 241.48 83.2202C242.264 82.5775 243.71 81.3826 245.617 79.806C247.495 78.1994 249.885 76.2513 252.446 73.9718C257.617 69.4731 263.682 63.89 269.215 58.6181C271.153 56.7403 272.82 54.9529 274.357 53.3864C275.853 51.7797 277.209 50.3639 278.363 49.0886C280.693 46.538 282.36 44.62 283.495 43.3046C288.857 37.0586 292.271 31.8972 295.183 26.5751C296.77 23.6329 293.597 21.3736 291.297 23.6932C287.08 27.9107 283.063 32.3591 277.801 38.3841C275.753 40.7339 270.702 44.9012 264.154 51.2174C263.08 52.2416 262.076 53.3261 261.142 54.4809C257.095 59.4315 251.783 64.5126 247.425 68.228C243.067 71.9635 239.703 74.3835 239.703 74.3835C239.703 74.3835 238.478 75.3174 236.5 76.8236C234.491 78.3198 231.74 80.3583 228.677 82.5273C222.582 86.8854 215.171 91.5548 210.642 94.1254C203.854 98.0316 200.45 99.6584 198.392 100.713C192.116 103.846 187.245 106.296 182.636 108.826L182.676 108.836Z" fill="#4C6B1F"/>
<path d="M345.031 271.743H437.123L398.553 148.08L345.031 271.743Z" fill="#37471F"/>
<path d="M-56.4952 124.964C-62.6809 124.512 -63.1528 127.846 -57.0073 129.001C-48.2912 130.597 -39.0629 131.883 -27.1434 132.847C-13.6072 133.69 -10.2031 133.118 -1.04512 133.57C6.69701 133.871 17.1102 134.293 26.3787 134.493C35.6471 134.714 43.7809 134.734 46.944 134.724C47.8779 134.724 48.8118 134.704 49.7456 134.644C53.0795 134.433 62.0768 133.901 73.3536 132.887C78.997 132.385 85.2028 131.792 91.5692 131.089C97.9155 130.356 104.423 129.603 110.678 128.87C128.282 126.721 139.227 125.235 144.941 124.291C158.427 122.132 168.478 119.32 177.777 115.414C182.878 113.195 181.763 110.484 176.582 111.99C167.072 114.611 157.332 116.649 144.047 118.718C138.886 119.571 127.97 120.244 112.586 121.971C110.086 122.263 107.586 122.624 105.115 123.056C94.5013 124.974 82.2505 126.43 72.6005 127.213C62.9705 128.027 55.9916 128.278 55.9916 128.278C55.9916 128.278 45.5884 128.86 32.976 129.061C20.3637 129.292 5.55225 128.991 -3.22416 128.599C-16.449 128.047 -22.8054 127.494 -26.7116 127.213C-38.5307 126.299 -47.7288 125.556 -56.5052 124.954L-56.4952 124.964Z" fill="#4C6B1F"/>
<mask id="mask2_287_63033" style="mask-type:luminance" maskUnits="userSpaceOnUse" x="233" y="-87" width="680" height="158">
<path d="M257.375 -86.6444L233.586 -46.2568L431.457 70.2667L903.255 55.0535L912.965 38.5752L700.272 -86.6846L257.375 -86.6444Z" fill="white"/>
</mask>
<g mask="url(#mask2_287_63033)">
<path d="M483.513 -188.174L482.34 -185.399L962.873 17.6845L964.045 14.9096L483.513 -188.174Z" fill="#4C6B1F"/>
<path d="M469.621 -162.657L468.422 -159.894L949.599 48.929L950.799 46.1655L469.621 -162.657Z" fill="#4C6B1F"/>
<path d="M247.788 -223.919L246.582 -221.158L936.368 80.2019L937.574 77.4413L247.788 -223.919Z" fill="#4C6B1F"/>
<path d="M234.569 -192.649L233.363 -189.889L923.149 111.471L924.355 108.711L234.569 -192.649Z" fill="#4C6B1F"/>
<path d="M221.358 -161.366L220.152 -158.605L909.938 142.755L911.144 139.994L221.358 -161.366Z" fill="#4C6B1F"/>
<path d="M208.14 -130.087L206.934 -127.326L896.72 174.034L897.926 171.273L208.14 -130.087Z" fill="#4C6B1F"/>
<path d="M194.917 -98.8074L193.711 -96.0469L883.497 205.313L884.703 202.553L194.917 -98.8074Z" fill="#4C6B1F"/>
<path d="M193.579 -61.6034L192.375 -58.8418L870.31 236.636L871.513 233.875L193.579 -61.6034Z" fill="#4C6B1F"/>
<path d="M968.61 -92.2412L816.98 255.984L819.742 257.187L971.372 -91.0385L968.61 -92.2412Z" fill="#4C6B1F"/>
<path d="M937.325 -105.454L785.695 242.771L788.457 243.974L940.087 -104.251L937.325 -105.454Z" fill="#4C6B1F"/>
<path d="M906.044 -118.673L754.414 229.553L757.176 230.755L908.806 -117.47L906.044 -118.673Z" fill="#4C6B1F"/>
<path d="M874.751 -131.905L723.121 216.32L725.883 217.523L877.513 -130.703L874.751 -131.905Z" fill="#4C6B1F"/>
<path d="M843.481 -145.124L691.852 203.102L694.614 204.304L846.243 -143.921L843.481 -145.124Z" fill="#4C6B1F"/>
<path d="M812.184 -158.339L660.555 189.887L663.317 191.089L814.946 -157.136L812.184 -158.339Z" fill="#4C6B1F"/>
<path d="M780.915 -171.567L629.285 176.658L632.047 177.861L783.677 -170.365L780.915 -171.567Z" fill="#4C6B1F"/>
<path d="M749.622 -184.79L597.992 163.436L600.754 164.638L752.384 -183.587L749.622 -184.79Z" fill="#4C6B1F"/>
<path d="M718.337 -197.999L566.707 150.227L569.469 151.429L721.099 -196.796L718.337 -197.999Z" fill="#4C6B1F"/>
<path d="M687.059 -211.232L535.43 136.993L538.192 138.196L689.821 -210.03L687.059 -211.232Z" fill="#4C6B1F"/>
<path d="M655.766 -224.456L504.137 123.77L506.899 124.972L658.528 -223.253L655.766 -224.456Z" fill="#4C6B1F"/>
<path d="M624.481 -237.665L472.852 110.561L475.614 111.763L627.243 -236.462L624.481 -237.665Z" fill="#4C6B1F"/>
<path d="M593.2 -250.897L441.57 97.3281L444.332 98.5308L595.962 -249.695L593.2 -250.897Z" fill="#4C6B1F"/>
<path d="M561.919 -264.116L410.289 84.1094L413.051 85.3121L564.681 -262.914L561.919 -264.116Z" fill="#4C6B1F"/>
<path d="M514.589 -252.348L381.57 68.1543L384.353 69.3091L517.371 -251.193L514.589 -252.348Z" fill="#4C6B1F"/>
<path d="M431.044 -140.317L349.43 50.4707L352.199 51.6555L433.814 -139.132L431.044 -140.317Z" fill="#4C6B1F"/>
<path d="M399.766 -153.538L318.152 37.25L320.922 38.4348L402.536 -152.353L399.766 -153.538Z" fill="#4C6B1F"/>
<path d="M368.47 -166.754L286.855 24.0342L289.625 25.219L371.239 -165.569L368.47 -166.754Z" fill="#4C6B1F"/>
<path d="M337.2 -179.975L255.586 10.8125L258.356 11.9973L339.97 -178.79L337.2 -179.975Z" fill="#4C6B1F"/>
</g>
<mask id="mask3_287_63033" style="mask-type:luminance" maskUnits="userSpaceOnUse" x="242" y="91" width="241" height="327">
<path d="M343.943 417.026L242.582 91.8965H381.037L482.397 417.016H343.943V417.026Z" fill="white"/>
</mask>
<g mask="url(#mask3_287_63033)">
<path d="M115.153 -31.3012L113.98 -28.5264L594.513 174.558L595.686 171.783L115.153 -31.3012Z" fill="#37471F"/>
<path d="M101.942 -0.0102182L100.77 2.76465L581.302 205.849L582.475 203.074L101.942 -0.0102182Z" fill="#37471F"/>
<path d="M88.7118 31.2779L87.5391 34.0527L568.072 237.137L569.245 234.362L88.7118 31.2779Z" fill="#37471F"/>
<path d="M75.4969 62.5542L74.3242 65.3291L554.857 268.413L556.03 265.638L75.4969 62.5542Z" fill="#37471F"/>
<path d="M62.2665 93.8413L61.0938 96.6162L541.627 299.7L542.799 296.925L62.2665 93.8413Z" fill="#37471F"/>
<path d="M49.0516 125.124L47.8789 127.898L528.412 330.982L529.585 328.207L49.0516 125.124Z" fill="#37471F"/>
<path d="M35.8329 156.411L34.6602 159.186L515.193 362.269L516.366 359.495L35.8329 156.411Z" fill="#37471F"/>
<path d="M22.6102 187.689L21.4375 190.464L501.97 393.548L503.143 390.773L22.6102 187.689Z" fill="#37471F"/>
<path d="M9.38756 218.98L8.21484 221.755L488.748 424.839L489.92 422.064L9.38756 218.98Z" fill="#37471F"/>
<path d="M-3.82728 250.248L-5 253.022L475.533 456.106L476.706 453.331L-3.82728 250.248Z" fill="#37471F"/>
<path d="M-17.0538 281.536L-18.2266 284.311L462.306 487.394L463.479 484.62L-17.0538 281.536Z" fill="#37471F"/>
<path d="M-30.2648 312.827L-31.4375 315.602L449.095 518.685L450.268 515.911L-30.2648 312.827Z" fill="#37471F"/>
<path d="M572.389 120.059L369.305 600.592L372.08 601.765L575.163 121.232L572.389 120.059Z" fill="#37471F"/>
<path d="M541.115 106.833L338.031 587.366L340.806 588.539L543.89 108.006L541.115 106.833Z" fill="#37471F"/>
<path d="M509.826 93.6146L306.742 574.147L309.517 575.32L512.601 94.7873L509.826 93.6146Z" fill="#37471F"/>
<path d="M478.549 80.39L275.465 560.923L278.24 562.096L481.324 81.5627L478.549 80.39Z" fill="#37471F"/>
<path d="M447.256 67.1801L244.172 547.713L246.947 548.886L450.031 68.3528L447.256 67.1801Z" fill="#37471F"/>
<path d="M415.99 53.9554L212.906 534.488L215.681 535.661L418.765 55.1281L415.99 53.9554Z" fill="#37471F"/>
<path d="M384.701 40.7269L181.617 521.26L184.392 522.432L387.476 41.8997L384.701 40.7269Z" fill="#37471F"/>
<path d="M353.412 27.5159L150.328 508.049L153.103 509.222L356.187 28.6887L353.412 27.5159Z" fill="#37471F"/>
<path d="M322.131 14.2913L119.047 494.824L121.822 495.997L324.906 15.464L322.131 14.2913Z" fill="#37471F"/>
<path d="M290.846 1.06281L87.7617 481.596L90.5366 482.768L293.62 2.23553L290.846 1.06281Z" fill="#37471F"/>
<path d="M259.564 -12.1432L56.4805 468.39L59.2553 469.562L262.339 -10.9705L259.564 -12.1432Z" fill="#37471F"/>
</g>
<mask id="mask4_287_63033" style="mask-type:luminance" maskUnits="userSpaceOnUse" x="233" y="473" width="680" height="158">
<path d="M257.375 473.307L233.586 513.705L431.457 630.229L903.255 615.015L912.965 598.537L700.272 473.277L257.375 473.307Z" fill="white"/>
</mask>
<g mask="url(#mask4_287_63033)">
<path d="M532.919 309.225L531.746 312L1012.28 515.084L1013.45 512.309L532.919 309.225Z" fill="#4C6B1F"/>
<path d="M519.7 340.506L518.527 343.281L999.06 546.365L1000.23 543.59L519.7 340.506Z" fill="#4C6B1F"/>
<path d="M506.481 371.793L505.309 374.568L985.841 577.652L987.014 574.877L506.481 371.793Z" fill="#4C6B1F"/>
<path d="M492.606 397.278L491.406 400.041L972.584 608.864L973.783 606.1L492.606 397.278Z" fill="#4C6B1F"/>
<path d="M270.78 335.997L269.574 338.758L959.36 640.118L960.566 637.357L270.78 335.997Z" fill="#4C6B1F"/>
<path d="M257.562 367.268L256.355 370.028L946.141 671.388L947.347 668.628L257.562 367.268Z" fill="#4C6B1F"/>
<path d="M244.347 398.561L243.141 401.321L932.927 702.681L934.133 699.921L244.347 398.561Z" fill="#4C6B1F"/>
<path d="M231.128 429.83L229.922 432.591L919.708 733.951L920.914 731.19L231.128 429.83Z" fill="#4C6B1F"/>
<path d="M217.905 461.11L216.699 463.87L906.485 765.23L907.691 762.47L217.905 461.11Z" fill="#4C6B1F"/>
<path d="M216.547 498.351L215.344 501.112L893.278 796.59L894.482 793.829L216.547 498.351Z" fill="#4C6B1F"/>
<path d="M991.575 467.75L839.945 815.976L842.707 817.178L994.337 468.953L991.575 467.75Z" fill="#4C6B1F"/>
<path d="M960.282 454.537L808.652 802.763L811.414 803.965L963.044 455.74L960.282 454.537Z" fill="#4C6B1F"/>
<path d="M929.001 441.318L777.371 789.544L780.133 790.747L931.763 442.521L929.001 441.318Z" fill="#4C6B1F"/>
<path d="M897.719 428.085L746.09 776.311L748.852 777.513L900.481 429.288L897.719 428.085Z" fill="#4C6B1F"/>
<path d="M866.434 414.876L714.805 763.102L717.567 764.304L869.196 416.079L866.434 414.876Z" fill="#4C6B1F"/>
<path d="M835.145 401.653L683.516 749.879L686.278 751.082L837.907 402.856L835.145 401.653Z" fill="#4C6B1F"/>
<path d="M803.872 388.424L652.242 736.649L655.004 737.852L806.634 389.627L803.872 388.424Z" fill="#4C6B1F"/>
<path d="M772.583 375.201L620.953 723.427L623.715 724.629L775.345 376.404L772.583 375.201Z" fill="#4C6B1F"/>
<path d="M741.286 361.987L589.656 710.213L592.418 711.416L744.048 363.19L741.286 361.987Z" fill="#4C6B1F"/>
<path d="M710.016 348.759L558.387 696.984L561.149 698.187L712.778 349.961L710.016 348.759Z" fill="#4C6B1F"/>
<path d="M678.723 335.536L527.094 683.762L529.856 684.964L681.485 336.739L678.723 335.536Z" fill="#4C6B1F"/>
<path d="M647.45 322.317L495.82 670.543L498.582 671.746L650.212 323.52L647.45 322.317Z" fill="#4C6B1F"/>
<path d="M616.157 309.094L464.527 657.319L467.289 658.522L618.919 310.296L616.157 309.094Z" fill="#4C6B1F"/>
<path d="M584.876 295.875L433.246 644.101L436.008 645.303L587.638 297.078L584.876 295.875Z" fill="#4C6B1F"/>
<path d="M537.573 307.591L404.555 628.094L407.337 629.249L540.356 308.746L537.573 307.591Z" fill="#4C6B1F"/>
<path d="M454.016 419.65L372.402 610.438L375.172 611.622L456.786 420.835L454.016 419.65Z" fill="#4C6B1F"/>
<path d="M422.731 406.438L341.117 597.226L343.887 598.41L425.501 407.623L422.731 406.438Z" fill="#4C6B1F"/>
<path d="M391.442 393.213L309.828 584.001L312.598 585.186L394.212 394.398L391.442 393.213Z" fill="#4C6B1F"/>
<path d="M360.173 379.992L278.559 570.779L281.328 571.964L362.942 381.176L360.173 379.992Z" fill="#4C6B1F"/>
<path d="M328.88 366.766L247.266 557.554L250.035 558.739L331.649 367.951L328.88 366.766Z" fill="#4C6B1F"/>
<path d="M297.606 353.554L215.992 544.342L218.762 545.527L300.376 354.739L297.606 353.554Z" fill="#4C6B1F"/>
<path d="M266.317 340.32L184.703 531.107L187.473 532.292L269.087 341.504L266.317 340.32Z" fill="#4C6B1F"/>
</g>
<path d="M366.406 832.75H494.749L653.166 431.696H539.997L366.406 832.75Z" fill="#4C6B1F"/>
<path d="M430.553 632.7L229.891 514.529L255.678 470.737L700.694 470.697L916.138 597.574L904.46 617.406L903.074 617.446L430.543 632.679L430.553 632.7ZM236.769 512.742L431.849 627.628L901.538 612.486L909.27 599.351L699.328 475.708L258.55 475.748L236.769 512.732V512.742Z" fill="#4C6B1F"/>
<path d="M430.553 71.6829L229.891 -46.4875L255.678 -90.2792L700.694 -90.3193L916.138 36.5571L904.46 56.3995L903.074 56.4396L430.543 71.6728L430.553 71.6829ZM236.769 -48.2648L431.849 66.6219L901.538 51.479L909.27 38.3446L699.328 -85.2985L258.55 -85.2583L236.769 -48.2749V-48.2648Z" fill="#4C6B1F"/>
<path d="M922.898 196.872L1091.72 282.035L1059.1 -73.1084L922.898 196.872Z" fill="#28311B"/>
<path d="M641.9 470.709H514.863V475.73H641.9V470.709Z" fill="#4C6B1F"/>
<path d="M616.488 -90.3799L501.742 -90.3698L433.84 66.5212L556.067 62.5848L616.488 -90.3799Z" fill="#4C6B1F"/>
<path d="M826.76 544.937L728.452 486.986L725.871 491.294L824.39 549.375L826.76 544.937Z" fill="#4C6B1F"/>
<mask id="mask5_287_63033" style="mask-type:luminance" maskUnits="userSpaceOnUse" x="655" y="160" width="261" height="442">
<path d="M795.57 162.611L915.076 379.571L796.735 601.17H659.827L794.415 377.251L655.188 160.291C655.188 160.291 793.833 164.348 795.57 162.611Z" fill="white"/>
</mask>
<g mask="url(#mask5_287_63033)">
<path d="M922.867 131.079C939.145 132.685 955.473 133.67 971.79 134.011C971.79 134.011 977.092 134.312 985.577 134.553C994.063 134.794 1005.74 134.895 1018.47 134.503C1031.21 134.121 1044.97 133.228 1057.64 131.902C1070.3 130.597 1081.82 128.779 1090.13 127.323C1100.65 126.058 1111.21 124.863 1121.73 123.206C1132.25 121.559 1142.78 119.34 1152.94 115.856C1173.2 108.877 1192.27 98.6643 1209.62 86.1825C1209.62 86.1825 1212.33 84.2244 1216.48 81.001C1220.66 77.7977 1226.23 73.2187 1231.91 68.0473C1237.6 62.8758 1243.4 57.0717 1248.25 51.6693C1253.11 46.2669 1257.09 41.3264 1259.43 38.0629C1265.3 29.9592 1268.35 24.2556 1268.57 22.7292C1268.68 21.946 1268.03 22.2171 1266.54 23.6832C1265.07 25.1593 1262.71 27.8103 1259.28 31.7366C1255.86 35.6428 1251.33 40.7942 1245.31 47.0803C1242.29 50.2233 1238.91 53.6475 1235.06 57.2927C1231.23 60.9478 1226.95 64.8641 1222.13 68.9209C1221.61 69.2623 1219.98 70.4673 1219.69 70.5175C1218.4 71.5819 1217.14 72.6564 1215.84 73.6907L1211.94 76.7735C1209.28 78.822 1206.62 80.8203 1203.94 82.7483C1198.58 86.6244 1193.07 90.2193 1187.4 93.5431C1176.1 100.191 1164.12 105.663 1151.79 109.901C1139.5 114.108 1126.6 116.358 1113.34 118.125C1106.71 119.009 1100 119.802 1093.24 120.615C1086.5 121.449 1079.71 122.282 1072.87 123.126C1073.63 123.487 1071.86 124.04 1070.16 123.999H1070.18L1070.69 123.387C1052.62 125.988 1037.78 126.801 1023.36 127.313C1008.93 127.795 994.906 127.956 978.177 128.398C978.237 128.398 981.983 127.785 982.073 127.775C967.794 127.444 952.882 126.62 937.538 125.144C929.876 124.401 922.064 123.527 914.231 122.453C910.416 121.911 906.64 121.188 903.015 120.143C899.39 119.099 895.925 117.673 892.953 115.775C889.941 113.898 887.671 111.407 886.326 108.515C884.95 105.573 884.719 102.319 885.502 98.9957C886.275 95.692 888.023 92.4385 890.372 89.7072C892.682 87.016 895.775 84.6863 899.139 82.7684C902.523 80.8404 906.258 79.2839 910.144 77.8379C914.051 76.4019 918.087 75.0363 922.104 73.7409C930.158 71.1401 938.351 68.8205 946.626 66.782C963.175 62.7252 980.095 59.8232 997.065 58.1462C1005.55 57.3127 1014.05 56.7705 1022.52 56.5395C1031 56.3186 1039.44 56.3487 1047.77 56.8207C1056.09 57.2927 1064.31 58.1763 1072.31 59.7328C1080.29 61.2993 1088.05 63.4984 1095.36 66.5009L1096.74 67.0532L1098.07 67.6657L1100.75 68.9008C1102.51 69.7343 1104.2 70.7184 1105.93 71.6121C1107.58 72.6263 1109.25 73.6003 1110.87 74.6547L1113.23 76.3015C1114.02 76.8438 1114.8 77.386 1115.55 77.9986C1118.59 80.3082 1121.41 82.8587 1124.04 85.57C1126.66 88.2812 1129.12 91.1331 1131.32 94.1556L1131.03 93.6234L1131.25 93.7941C1129.75 91.4544 1126.53 87.0662 1121.87 82.447C1119.56 80.1274 1116.89 77.7576 1113.93 75.5785C1112.44 74.494 1110.98 73.3493 1109.38 72.3752L1107.02 70.859C1106.24 70.3569 1105.4 69.9351 1104.6 69.4732C1098.15 65.808 1091.51 63.1972 1086.53 61.5403C1085.27 61.1386 1084.13 60.7771 1083.12 60.4658C1082.12 60.1445 1081.21 59.9336 1080.49 59.7328C1079.04 59.3412 1078.2 59.1202 1078.2 59.1202C1083.24 59.9637 1088.29 61.2692 1093.3 62.926C1098.3 64.6432 1103.2 66.8523 1107.92 69.4933C1109.07 70.1962 1110.23 70.8991 1111.39 71.602C1112.55 72.305 1113.63 73.1384 1114.76 73.9116L1116.44 75.0965L1118.05 76.3718C1119.13 77.2053 1120.16 78.1191 1121.19 79.0329C1125.3 82.688 1129.02 86.8152 1132.3 91.3038C1138.86 100.261 1143.68 110.513 1146.8 121.158C1148.37 126.48 1149.55 131.892 1150.33 137.335C1151.14 142.767 1151.58 148.23 1151.67 153.642L1150.94 153.351C1150.79 144.033 1149.37 135.286 1147.51 128.267C1145.68 121.218 1143.41 115.896 1142.03 112.913C1145.09 120.595 1147.64 129.643 1148.94 139.674C1149.58 144.685 1149.92 149.937 1149.91 155.339C1149.86 160.742 1149.49 166.305 1148.63 171.928C1146.94 183.195 1143.6 194.783 1138.83 206.04C1134.07 217.307 1127.93 228.292 1120.87 238.665C1113.82 249.048 1105.91 258.839 1097.63 267.927C1093.49 272.466 1089.28 276.864 1085.03 281.071C1080.77 285.269 1076.49 289.285 1072.24 293.121C1055.18 308.455 1038.37 320.625 1024.82 329.613C1025.69 329.382 1030.2 326.289 1035.05 322.975C1039.9 319.651 1045.08 316.066 1047.67 315.243C1034.25 325.194 1020.33 334.443 1006.59 342.215C1006.04 341.241 1014.08 337.023 1015.49 335.879C1012.49 337.475 1002.49 343.42 986.833 351.202C971.188 358.985 949.799 368.464 924.394 377.16C911.701 381.518 898.014 385.695 883.634 389.491C869.255 393.297 854.162 396.701 838.698 399.663C823.214 402.646 807.408 405.136 791.462 407.315C775.496 409.514 759.66 411.984 744.216 412.637C736.434 412.928 728.681 413.069 721.12 412.868C713.539 412.667 706.098 412.155 698.828 411.342C691.567 410.528 684.488 409.434 677.65 408.078C670.821 406.682 664.234 405.086 657.928 403.278C645.336 399.633 633.888 395.225 623.857 390.626C613.825 386.007 605.169 381.247 597.989 376.919C590.819 372.571 585.096 368.705 580.888 365.763C576.681 362.83 573.959 360.872 572.835 360.25C571.71 359.627 572.202 360.32 574.552 362.529C576.922 364.708 581.149 368.414 587.837 373.364C586.793 372.902 585.769 372.4 584.724 371.918C598.712 381.93 612.449 389.762 626.909 396.44C641.379 403.088 656.612 408.641 674.115 412.979C679.116 413.953 679.688 414.103 679.779 413.531C681.124 413.692 683.363 413.953 682.831 413.591C682.691 412.838 685.352 413.059 688.655 413.561C691.959 414.003 695.936 414.696 698.386 414.927C696.779 415.83 702.884 417.337 713.308 418.18C718.519 418.612 724.805 418.843 731.684 418.763C738.552 418.672 746.054 418.431 753.695 417.698C761.337 416.975 769.069 415.85 776.51 414.706C783.941 413.501 791.111 412.346 797.567 411.302C810.501 409.213 820.573 407.255 824.429 406.632C826.116 407.436 833.687 406.14 841.962 404.363C850.246 402.606 859.203 400.336 863.872 399.714C863.24 399.934 859.263 401.34 858.751 401.531C860.89 401.39 870.942 399.232 884.046 395.627C897.161 392.052 913.277 386.92 927.717 381.578C942.177 376.286 954.94 370.814 961.899 367.841C968.838 364.839 970.103 364.578 961.287 369.147C980.376 361.555 1000.94 351.835 1021.81 339.363C1042.65 326.901 1063.82 311.658 1083.69 293.262C1093.63 284.064 1103.26 274.142 1112.29 263.348C1121.31 252.553 1129.7 240.884 1136.82 228.232C1143.92 215.589 1149.75 201.933 1153.39 187.533C1155.22 180.343 1156.51 172.963 1157.1 165.482C1157.65 158.011 1157.59 150.469 1156.78 143.008C1155.21 128.076 1150.87 113.335 1143.55 100.12C1141.72 96.8167 1139.68 93.6334 1137.5 90.5607C1135.28 87.498 1132.88 84.5859 1130.33 81.7943C1127.74 79.0429 1125 76.4421 1122.1 74.0221C1120.62 72.8673 1119.17 71.6422 1117.62 70.5979C1116.07 69.5335 1114.57 68.3887 1112.95 67.4448C1100.23 59.4215 1085.91 54.7923 1071.7 52.1915C1057.45 49.5907 1043.17 48.9179 1029.25 48.9982C1001.37 49.1288 974.451 52.4727 949.448 58.0257C936.946 60.7972 924.916 64.1411 913.448 67.8866C907.755 69.7644 901.991 71.6723 896.438 74.474C893.676 75.8898 890.965 77.5065 888.465 79.4647C887.199 80.4186 886.024 81.4931 884.849 82.6378C883.725 83.8127 882.64 85.0077 881.696 86.3231C882.078 85.9616 882.429 85.57 882.821 85.2386C882.279 85.8512 881.315 87.2068 880.451 88.5825C879.608 89.9682 878.885 91.3841 878.483 91.8962C877.539 94.2962 876.666 97.3589 876.455 100.934C876.394 102.721 876.455 104.629 876.856 106.587C877.258 108.545 877.921 110.463 878.835 112.321C880.672 116.056 883.675 119.27 886.988 121.579C890.312 123.919 893.917 125.506 897.371 126.671C904.31 128.97 910.817 129.793 915.406 130.316C919.975 130.818 922.837 131.139 922.837 131.139L922.867 131.079ZM1154.67 156.595C1154.7 156.745 1154.78 156.796 1154.81 156.695C1154.78 156.705 1154.76 157.077 1154.73 157.709C1154.7 158.342 1154.66 159.246 1154.61 160.33C1154.53 162.499 1154.31 165.381 1154.02 168.273C1153.41 174.077 1152.24 179.891 1152.11 180.333L1151.45 180.032C1152.29 174.358 1153.41 166.847 1153.84 159.436C1154.07 155.741 1154.17 152.076 1154.17 148.712C1154.13 145.348 1154.05 142.295 1153.9 139.805C1153.61 134.834 1153.38 132.143 1153.87 133.85C1154.1 134.704 1154.47 136.672 1154.84 140.026C1155.2 143.38 1155.53 148.13 1155.35 154.496C1155.54 156.203 1154.93 156.233 1154.69 156.575L1154.67 156.595ZM1046.68 319.872C1043.45 322.132 1039.91 324.562 1035.96 327.162C1046.48 319.35 1057.73 310.654 1069 300.964C1080.28 291.284 1091.56 280.589 1102.17 269.041C1112.77 257.483 1122.63 244.971 1130.73 231.696C1138.85 218.461 1145.14 204.423 1148.82 190.525C1148.55 192.996 1147.97 195.838 1147.18 198.971C1146.34 202.093 1145.27 205.488 1143.92 209.042C1141.21 216.142 1137.44 223.844 1132.97 231.305C1128.51 238.766 1123.38 245.996 1118.31 252.462C1113.24 258.929 1108.22 264.633 1104.05 269.232C1096 278.792 1086.28 288.442 1076.21 297.138C1066.16 305.854 1055.77 313.576 1046.69 319.882L1046.68 319.872ZM728.29 417.417L728.159 417.789H726.322C726.261 417.678 726.553 417.568 726.934 417.527C727.236 417.457 727.858 417.387 728.29 417.417ZM895.494 123.608C895.012 123.467 894.369 123.246 893.636 122.975C892.913 122.664 892.11 122.262 891.286 121.851C890.473 121.389 889.659 120.866 888.886 120.364C888.143 119.792 887.44 119.24 886.848 118.728C885.743 117.593 885 116.769 885.121 116.559C885.201 116.378 886.024 116.96 888.123 118.326C889.077 119.2 891.176 120.575 892.993 121.499C893.877 122.021 894.69 122.413 895.182 122.774C895.674 123.126 895.855 123.427 895.504 123.608H895.494ZM996.011 350.339C996.292 350.861 992.215 353.411 987.927 355.58C983.639 357.759 979.141 359.507 978.779 358.784C984.674 355.932 990.418 353.17 996.021 350.339H996.011ZM1038.23 131.4C1043.2 129.834 1041.84 131.31 1043.59 131.973C1042.29 131.902 1037.66 132.123 1038.62 131.48L1038.23 131.4ZM1127.25 120.184C1128.42 119.36 1133.27 117.995 1135.57 117.432C1138.6 116.94 1137.27 117.713 1134.78 118.517C1132.3 119.36 1128.66 120.204 1127.25 120.184ZM1251.61 45.4234C1251.25 44.8109 1253.41 42.0494 1254.55 41.7582C1254.71 42.3808 1252.15 45.8552 1251.15 45.7447C1251.2 45.7447 1251.36 45.6544 1251.61 45.4234ZM913.478 382.221C915.607 380.454 920.939 378.606 926.783 376.628C932.638 374.67 939.014 372.581 943.272 370.613C942.679 371.948 938.321 373.776 933.26 375.553C928.209 377.331 922.456 379.018 919.132 380.313C916.762 381.116 914.914 381.739 913.478 382.231V382.221ZM982.937 57.8048C983.167 58.6985 978.398 59.4215 972.804 60.2851C967.211 61.1286 960.775 62.1227 957.652 63.0064L957.601 62.2834C962.311 61.1989 966.077 60.3052 969.902 59.5822C973.728 58.8491 977.604 58.2466 982.545 57.865L982.947 57.8048H982.937ZM1068.59 297.489C1069.76 296.033 1071.57 294.386 1073.48 292.82C1075.36 291.213 1077.33 289.697 1078.67 288.402C1079.02 288.803 1076.27 291.725 1073.53 294.216C1070.78 296.696 1068.04 298.714 1068.56 297.499C1068.57 297.489 1068.58 297.489 1068.58 297.489H1068.59ZM1150.64 163.544C1151.22 163.192 1151.28 164.969 1151.06 167.108C1150.87 169.257 1150.44 171.748 1150.31 172.862C1150.32 172.059 1150.25 170.914 1150.18 169.739C1150.13 168.574 1150.08 167.379 1150.17 166.456C1150.31 165.18 1150.47 164.849 1150.63 163.533L1150.64 163.544ZM989.925 56.1981C997.356 55.2843 1005.51 54.6216 1013.28 54.24L1013.06 54.973C1005.18 55.3948 997.437 56.0375 989.815 56.9412L989.936 56.2082L989.925 56.1981ZM1065.78 57.1019L1065.66 57.8048C1060.24 57.3328 1057.23 56.8207 1057.08 56.4592C1057 56.2885 1057.64 56.1981 1059.03 56.2483C1059.73 56.2784 1060.62 56.3387 1061.69 56.4592C1062.77 56.6098 1064.04 56.8006 1065.51 57.0717L1065.78 57.1119V57.1019ZM896.036 82.4972C896.95 81.9249 898.486 81.1115 899.41 80.6094C902.764 78.832 904.28 78.4304 904.501 78.5308C904.732 78.6412 903.738 79.314 902.402 80.1174C901.047 80.9207 899.39 81.8947 898.125 82.5073C896.859 83.1098 895.946 83.3407 896.036 82.4972ZM925.006 124.973C926.563 125.044 928.661 125.084 930.348 125.285C941.404 126.52 928.973 127.002 925.006 124.973Z" fill="#4C6B1F"/>
</g>
<mask id="mask6_287_63033" style="mask-type:luminance" maskUnits="userSpaceOnUse" x="655" y="160" width="261" height="442">
<path d="M795.57 162.611L915.076 379.571L796.735 601.17H659.827L794.415 377.251L655.188 160.291C655.188 160.291 793.833 164.348 795.57 162.611Z" fill="white"/>
</mask>
<g mask="url(#mask6_287_63033)">
<path d="M663.211 218.312L664.557 217.318C664.557 217.318 666.886 218.272 667.82 216.505L671.325 217.157C671.325 217.157 672.791 216.665 673.233 215.561C673.504 214.878 673.685 214.065 673.725 213.311C673.805 211.795 673.303 210.54 671.897 211.082C671.877 210.992 671.827 210.901 671.817 210.771C670.321 211.885 668.885 209.978 667.368 210.219C667.389 210.66 667.338 211.012 667.288 210.781L667.308 210.229C666.294 211.343 665.661 209.556 664.738 211.464C664.738 211.454 664.848 210.721 664.848 210.731C661.675 211.102 657.377 210.379 653.943 211.293L653.963 211.373V211.454C654.274 212.006 655.8 212.799 655.8 212.809C654.656 215.5 653.36 212.719 652.135 212.849V212.137C652.667 212.157 653.139 211.825 653.32 211.524C651.432 210.56 647.637 210.419 645.829 211.544C645.879 212.086 646.432 210.891 646.582 212.649C646.12 212.669 645.658 212.93 645.217 212.91C645.217 211.755 645.468 212.147 645.518 211.936C644.765 210.68 629.391 209.496 633.056 214.356L632.966 214.948C633.91 215.199 634.703 215.41 635.687 216.545C635.828 216.454 635.848 216.565 635.838 215.972C635.878 215.882 635.938 215.711 635.918 215.46C635.908 214.024 636.209 214.587 636.35 214.547C636.189 219.045 639.412 214.968 639.844 215.139C639.925 217.278 640.688 215.209 640.949 216.113C640.929 216.193 640.818 216.665 640.798 216.756C641.029 218.121 644.845 214.295 643.76 216.946C648.269 221.425 656.443 215.922 661.323 219.808L661.283 219.547C661.323 219.628 661.444 219.507 661.474 219.808C661.956 218.935 663.221 218.292 663.221 218.292L663.211 218.312ZM652.035 215.852C652.035 215.852 652.035 215.962 652.035 215.993C652.035 215.772 651.412 215.912 651.382 215.862V215.149C652.015 213.773 653.481 218.613 652.095 216.515C652.045 216.685 652.045 216.093 652.035 215.852ZM646.472 215.822C646.361 215.752 646.241 215.691 646.11 215.641C647.556 213.382 649.504 216.153 651.081 215.099C650.539 218.282 649.253 216.595 648.57 216.424C647.888 217.157 647.074 216.284 646.462 215.812L646.472 215.822ZM637.173 215.36V215.731H637.123C637.123 215.631 637.123 215.511 637.143 215.47C637.143 215.39 637.173 215.33 637.183 215.36H637.173ZM662.448 216.635C662.338 217.218 661.936 216.886 662.207 215.752C662.277 215.942 662.478 215.4 662.448 216.635ZM644.845 214.978C644.845 216.153 644.313 216.394 644.313 214.767C644.494 214.737 644.674 214.858 644.845 214.978ZM666.394 215.39C666.535 214.135 666.495 215.541 666.545 216.314C666.505 216.143 666.384 216.073 666.404 215.5V215.39H666.394ZM668.865 214.627C668.905 214.014 669.035 213.623 669.106 213.603C669.276 214.065 668.945 215.179 668.865 214.627ZM672.942 214.496C672.942 213.803 673.042 213.572 673.072 214.255C673.062 214.767 672.942 215.169 672.932 214.366C672.932 214.396 672.932 214.456 672.942 214.486V214.496ZM642.395 212.468C642.535 210.409 643.017 212.086 643.279 211.524C643.218 213.572 642.756 212.066 642.555 212.418C642.485 212.418 642.435 212.428 642.395 212.468ZM658.441 212.86C658.441 211.042 658.974 212.488 659.154 212.076V212.789C658.883 212.98 658.723 213.442 658.451 212.849H658.441V212.86ZM647.335 211.835C647.436 211.112 647.606 211.795 647.717 211.785C647.717 212.809 647.275 212.98 647.335 211.825V211.835ZM651.844 212.086C651.864 213.211 651.643 212.659 651.583 212.769C651.623 212.538 651.713 211.845 651.764 211.855C651.804 211.875 651.814 211.996 651.844 212.086ZM658.251 213.562C658.04 213.593 657.819 213.562 657.598 213.532V212.819C657.829 212.819 658.04 212.839 658.251 212.849V213.562ZM656.132 212.458V211.745C656.433 211.062 656.473 212.89 656.132 212.458ZM660.972 212.709C660.972 212.709 660.892 212.619 660.861 212.619C660.43 212.709 661.032 210.088 660.972 212.709ZM663.251 211.996C663.292 211.885 663.352 211.685 663.402 211.705C663.713 211.785 663.372 213.522 663.251 211.996Z" fill="#4C6B1F"/>
<path d="M587.338 177.051C584.195 177.403 584.195 180.767 587.338 181.118C591.796 181.62 596.486 181.882 602.511 181.902C609.339 181.741 611.036 181.048 615.665 181.128C623.478 181.128 636.672 182.062 639.846 182.293C640.318 182.323 640.79 182.333 641.262 182.323C644.625 182.193 659.397 181.691 672.109 181.932C681.087 181.922 686.65 181.912 689.552 181.912C696.41 181.882 701.532 181.54 706.562 180.907C709.324 180.556 709.324 177.634 706.562 177.282C701.532 176.64 696.41 176.298 689.552 176.278C686.891 176.278 681.338 175.475 673.505 175.334C672.23 175.314 670.955 175.364 669.689 175.495C658.764 176.59 644.575 176.278 644.575 176.278C644.575 176.278 623.407 176.268 614.47 176.258C607.742 176.258 604.509 176.268 602.521 176.278C596.496 176.298 591.806 176.569 587.348 177.072L587.338 177.051Z" fill="#37471F"/>
<path d="M607.963 223.624C604.82 223.975 604.82 227.339 607.963 227.691C612.421 228.193 617.111 228.454 623.136 228.474C629.964 228.313 631.661 227.62 636.29 227.701C644.103 227.701 657.298 228.635 660.471 228.865C660.943 228.896 661.415 228.906 661.887 228.896C665.25 228.765 680.022 228.263 692.735 228.504C701.712 228.504 707.275 228.484 710.177 228.484C717.035 228.454 722.157 228.112 727.188 227.48C729.949 227.128 729.949 224.206 727.188 223.855C722.157 223.212 717.035 222.871 710.177 222.851C707.516 222.851 701.963 222.047 694.13 221.907C692.855 221.887 691.58 221.937 690.314 222.067C679.389 223.162 665.2 222.851 665.2 222.851C665.2 222.851 644.032 222.84 635.095 222.83C628.367 222.83 625.134 222.84 623.146 222.851C617.121 222.871 612.431 223.142 607.973 223.644L607.963 223.624Z" fill="#37471F"/>
</g>
<mask id="mask7_287_63033" style="mask-type:luminance" maskUnits="userSpaceOnUse" x="-53" y="-74" width="170" height="356">
<path d="M-52.7617 196.31L116.059 281.474L83.4334 -73.6699L-52.7617 196.31Z" fill="white"/>
</mask>
<g mask="url(#mask7_287_63033)">
<path d="M-56.4991 124.964C-62.6848 124.512 -63.1567 127.846 -57.0112 129.001C-48.2951 130.597 -39.0668 131.883 -27.1473 132.847C-13.6112 133.69 -10.207 133.118 -1.04903 133.57C6.6931 133.871 17.1063 134.293 26.3748 134.493C35.6432 134.714 43.777 134.734 46.9401 134.724C47.874 134.724 48.8079 134.704 49.7417 134.644C53.0756 134.433 62.0729 133.901 73.3497 132.887C78.9931 132.385 85.1988 131.792 91.5653 131.089C97.9116 130.356 104.419 129.603 110.675 128.87C128.278 126.721 139.223 125.235 144.937 124.291C158.423 122.132 168.474 119.32 177.773 115.414C182.874 113.195 181.76 110.484 176.578 111.99C167.069 114.611 157.328 116.649 144.043 118.718C138.882 119.571 127.966 120.244 112.582 121.971C110.082 122.263 107.582 122.624 105.111 123.056C94.4974 124.974 82.2466 126.43 72.5966 127.213C62.9666 128.027 55.9876 128.278 55.9876 128.278C55.9876 128.278 45.5845 128.86 32.9721 129.061C20.3598 129.292 5.54835 128.991 -3.22807 128.599C-16.4529 128.047 -22.8093 127.494 -26.7155 127.213C-38.5346 126.299 -47.7327 125.556 -56.5092 124.954L-56.4991 124.964Z" fill="#4C6B1F"/>
</g>
</g>
</g>
<defs>
<clipPath id="clip0_287_63033">
<rect width="960" height="540" fill="white"/>
</clipPath>
</defs>
</svg>
