<svg width="960" height="540" viewBox="0 0 960 540" fill="none" xmlns="http://www.w3.org/2000/svg">
<g clip-path="url(#clip0_287_63189)">
<mask id="mask0_287_63189" style="mask-type:luminance" maskUnits="userSpaceOnUse" x="1" y="0" width="960" height="540">
<path d="M961 0H1V540H961V0Z" fill="white"/>
</mask>
<g mask="url(#mask0_287_63189)">
<path d="M961 0H1V540H961V0Z" fill="#3B3D42"/>
<path d="M348.578 270.74H476.388L634.148 -128.65H521.448L348.578 270.74Z" fill="#292A2E"/>
<path d="M797.249 162.06L916.259 378.12L798.409 598.8H662.069L796.099 375.81L657.449 159.75C657.449 159.75 795.519 163.79 797.249 162.06Z" fill="#292A2E"/>
<path d="M597.61 375.37C589.64 370.36 583.81 366.37 579.83 363.79C575.86 361.21 573.75 360.04 573.45 360.42C573.17 360.76 574.7 362.65 578.26 365.84C581.82 369.03 587.42 373.53 595.43 378.77C601.11 382.48 606.97 385.98 613.03 389.28C619.11 392.55 625.38 395.59 631.86 398.42C644.84 404.04 658.67 408.68 673.42 412.07C688.16 415.5 703.82 417.62 720.33 418.27C728.59 418.6 737.04 418.54 745.69 418.23C754.4 417.92 763.3 417.02 772.34 415.87C782.59 414.54 791.8 413.16 800.26 411.94C808.74 410.71 816.44 409.47 823.54 408.23C837.74 405.74 849.55 403.27 860.49 400.76C871.43 398.24 881.51 395.64 892.18 392.63C902.85 389.6 914.12 386.17 927.35 381.61C949.69 373.88 975.41 363.33 1000.9 349.67C1013.64 342.86 1026.31 335.28 1038.49 327.07C1050.66 318.87 1062.32 310.02 1073.11 300.82C1094.68 282.41 1112.81 262.65 1125.51 244.6C1131.88 235.6 1136.93 227.08 1140.73 219.65C1144.54 212.22 1147.15 205.91 1148.85 201.33C1150.86 195.9 1152.6 190.36 1153.92 184.68C1155.09 179.63 1156.62 172.34 1157.2 163.03C1157.78 153.75 1157.44 142.47 1154.77 129.98C1152.11 117.55 1147.1 103.8 1138.06 90.9798C1135.79 87.7998 1133.29 84.6798 1130.54 81.6798C1127.76 78.7098 1124.73 75.8698 1121.45 73.2098C1114.85 67.9798 1107.37 63.4398 1099.19 60.0498C1091.03 56.6298 1082.3 54.1098 1073.29 52.3998C1064.27 50.7298 1054.98 49.7598 1045.57 49.3598C1026.75 48.6098 1007.4 49.4998 987.94 51.8998C968.5 54.3298 949 58.3498 930.03 63.9398C925.29 65.3298 920.58 66.8298 915.91 68.4098C911.26 69.9998 906.57 71.5998 901.95 73.6998C897.34 75.7798 892.8 78.4098 888.9 81.9698C884.95 85.5698 881.91 90.1298 880.26 95.2898C879.7 97.1198 879.33 99.0198 879.19 100.94C879.06 102.87 879.2 104.83 879.59 106.73C880.43 110.5 882.23 114 884.72 116.76C887.19 119.53 890.16 121.58 893.18 123.15C896.21 124.73 899.32 125.86 902.41 126.76C908.58 128.57 914.76 129.3 920.5 130.03C926.3 130.76 931.96 131.38 937.47 131.92C959.52 134.07 979.23 134.85 996.64 134.91C1031.47 135.01 1057.02 132.5 1074.46 130.51C1084.72 129.23 1094.66 127.99 1104.31 126.78C1113.96 125.51 1123.36 124.18 1132.49 122.3C1137.05 121.35 1141.53 120.26 1145.9 119C1150.27 117.73 1154.53 116.25 1158.67 114.66C1166.91 111.46 1174.75 107.85 1182.2 103.87C1189.64 99.8798 1196.69 95.5498 1203.39 90.9498C1210.08 86.3298 1216.4 81.5598 1222.54 76.6198C1234.77 66.6898 1245.81 55.9298 1255.78 44.3698C1261.25 38.0098 1264.94 32.8998 1267.22 29.3798C1269.5 25.8598 1270.37 23.9098 1270.05 23.6798C1269.71 23.4298 1268.18 24.8898 1265.4 27.9898C1262.62 31.0898 1258.59 35.8198 1253.06 41.9798C1242.99 53.1798 1231.92 63.5598 1219.75 73.1398C1213.66 77.8898 1207.29 82.5598 1200.69 86.9898C1194.07 91.4098 1187.13 95.5698 1179.82 99.3898C1172.51 103.2 1164.82 106.66 1156.77 109.72C1152.75 111.23 1148.64 112.62 1144.41 113.83C1140.18 115.02 1135.84 116.05 1131.39 116.95C1122.5 118.74 1113.2 120.01 1103.59 121.26C1093.96 122.45 1084.04 123.67 1073.8 124.93C1057.93 126.75 1033.32 128.97 1000.92 128.86C984.73 128.8 966.6 128.11 946.73 126.36C936.8 125.49 926.42 124.33 915.67 122.85C910.43 122.09 905.13 121.04 900.21 119.13C897.75 118.18 895.39 117.04 893.29 115.6C891.21 114.15 889.41 112.42 888.12 110.39L887.79 109.91L887.53 109.39L887 108.35C886.71 107.63 886.46 106.88 886.22 106.15C885.81 104.67 885.68 103.11 885.77 101.53C885.95 98.3698 887.07 95.1698 888.8 92.2898C892.25 86.4898 898.25 82.4198 904.86 79.4098C908.43 77.7598 912.25 76.3598 916.17 74.9698C920.08 73.5898 924.04 72.2598 928.05 70.9998C936.07 68.4698 944.29 66.2198 952.63 64.2498C969.3 60.3098 986.47 57.5698 1003.55 56.1098C1012.09 55.3698 1020.6 54.9598 1029.02 54.8498C1037.44 54.7198 1045.74 54.9298 1053.84 55.5798C1070.01 56.8698 1085.45 60.0498 1098.63 65.9798C1105.22 68.9098 1111.22 72.4898 1116.48 76.5198C1119.12 78.5198 1121.52 80.6998 1123.79 82.8898C1126.01 85.1398 1128.11 87.3898 1129.97 89.7398C1133.75 94.3898 1136.8 99.1698 1139.26 103.82C1141.73 108.46 1143.63 112.95 1145.12 117.1C1148.11 125.42 1149.42 132.37 1150.17 137.13C1150.37 138.32 1150.5 139.38 1150.61 140.3C1150.73 141.22 1150.83 141.99 1150.88 142.61C1151 143.86 1151.07 144.51 1151.07 144.51C1151.07 144.51 1151.09 144.75 1151.14 145.23C1151.17 145.7 1151.22 146.41 1151.29 147.33C1151.42 149.18 1151.55 151.91 1151.54 155.43C1151.55 162.46 1150.81 172.65 1147.71 184.85C1144.67 197.04 1139.2 211.11 1130.9 225.52C1122.64 239.95 1111.62 254.66 1098.65 268.75C1085.67 282.85 1070.91 296.44 1055.02 308.7C1039.16 321 1022.26 332.03 1005.33 341.53C971.46 360.59 937.66 373.44 912.15 381.54C892.92 387.66 875.88 392.01 860.89 395.37C845.89 398.73 832.92 401.13 821.67 403.02C810.42 404.92 800.9 406.24 792.67 407.4C784.46 408.56 777.6 409.52 771.68 410.27C762.71 411.42 754.02 412.31 745.52 412.63C736.98 412.95 728.67 413.04 720.58 412.75C704.4 412.18 689.06 410.21 674.61 406.98C660.14 403.79 646.55 399.39 633.75 394.06C627.36 391.37 621.16 388.47 615.13 385.36C609.13 382.22 603.3 378.87 597.65 375.33L597.61 375.37Z" fill="#292A2E"/>
<path d="M567.78 165.709C566.73 166.059 566.73 169.409 567.78 169.759C569.26 170.259 570.82 170.519 572.82 170.539C575.09 170.379 575.65 169.689 577.19 169.769C579.79 169.769 584.17 170.699 585.22 170.929C585.38 170.959 585.53 170.969 585.69 170.959C586.81 170.829 591.71 170.329 595.94 170.569C598.92 170.569 600.77 170.549 601.73 170.549C604.01 170.519 605.71 170.179 607.38 169.549C608.3 169.199 608.3 166.289 607.38 165.939C605.71 165.299 604.01 164.959 601.73 164.939C600.84 164.939 599 164.139 596.4 163.999C595.98 163.979 595.55 164.029 595.13 164.159C591.5 165.249 586.79 164.939 586.79 164.939C586.79 164.939 579.76 164.929 576.79 164.919C574.56 164.919 573.48 164.929 572.82 164.939C570.82 164.959 569.26 165.229 567.78 165.729V165.709Z" fill="#292A2E"/>
<path d="M635.628 212.499C634.588 212.849 634.588 216.199 635.628 216.549C637.108 217.049 638.668 217.309 640.668 217.329C642.938 217.169 643.498 216.479 645.038 216.559C647.638 216.559 652.018 217.489 653.068 217.719C653.228 217.749 653.378 217.759 653.538 217.749C654.658 217.619 659.558 217.119 663.788 217.359C666.768 217.359 668.618 217.339 669.578 217.339C671.858 217.309 673.558 216.969 675.228 216.339C676.148 215.989 676.148 213.079 675.228 212.729C673.558 212.089 671.858 211.749 669.578 211.729C668.698 211.729 666.848 210.929 664.248 210.789C663.828 210.769 663.398 210.819 662.978 210.949C659.348 212.039 654.638 211.729 654.638 211.729C654.638 211.729 647.608 211.719 644.638 211.709C642.408 211.709 641.328 211.719 640.668 211.729C638.668 211.749 637.108 212.019 635.628 212.519V212.499Z" fill="#292A2E"/>
<path d="M589.879 176.44C586.749 176.79 586.749 180.14 589.879 180.49C594.319 180.99 598.989 181.25 604.989 181.27C611.789 181.11 613.479 180.42 618.089 180.5C625.869 180.5 639.009 181.43 642.169 181.66C642.639 181.69 643.109 181.7 643.579 181.69C646.929 181.56 661.639 181.06 674.299 181.3C683.239 181.29 688.779 181.28 691.669 181.28C698.499 181.25 703.599 180.91 708.609 180.28C711.359 179.93 711.359 177.02 708.609 176.67C703.599 176.03 698.499 175.69 691.669 175.67C689.019 175.67 683.489 174.87 675.689 174.73C674.419 174.71 673.149 174.76 671.889 174.89C661.009 175.98 646.879 175.67 646.879 175.67C646.879 175.67 625.799 175.66 616.899 175.65C610.199 175.65 606.979 175.66 604.999 175.67C598.999 175.69 594.329 175.96 589.889 176.46L589.879 176.44Z" fill="#292A2E"/>
<path d="M610.418 222.82C607.288 223.17 607.288 226.52 610.418 226.87C614.858 227.37 619.528 227.63 625.528 227.65C632.328 227.49 634.018 226.8 638.628 226.88C646.408 226.88 659.548 227.81 662.708 228.04C663.178 228.07 663.648 228.08 664.118 228.07C667.468 227.94 682.178 227.44 694.838 227.68C703.778 227.68 709.318 227.66 712.208 227.66C719.038 227.63 724.138 227.29 729.148 226.66C731.898 226.31 731.898 223.4 729.148 223.05C724.138 222.41 719.038 222.07 712.208 222.05C709.558 222.05 704.028 221.25 696.228 221.11C694.958 221.09 693.688 221.14 692.428 221.27C681.548 222.36 667.418 222.05 667.418 222.05C667.418 222.05 646.338 222.04 637.438 222.03C630.738 222.03 627.518 222.04 625.538 222.05C619.538 222.07 614.868 222.34 610.428 222.84L610.418 222.82Z" fill="#292A2E"/>
<path d="M347.499 415.42L246.559 91.6396H384.439L485.379 415.41H347.499V415.42Z" fill="#292A2E"/>
<path d="M348.578 270.74H440.288L401.878 147.59L348.578 270.74Z" fill="#3B3D42"/>
<mask id="mask1_287_63189" style="mask-type:luminance" maskUnits="userSpaceOnUse" x="246" y="91" width="240" height="325">
<path d="M347.499 415.42L246.559 91.6396H384.439L485.379 415.41H347.499V415.42Z" fill="white"/>
</mask>
<g mask="url(#mask1_287_63189)">
<path d="M-38.5183 343.262L-39.2969 345.104L439.242 547.346L440.021 545.503L-38.5183 343.262Z" fill="#3B3D42"/>
<path d="M-51.6941 374.419L-52.4727 376.262L426.066 578.503L426.845 576.661L-51.6941 374.419Z" fill="#3B3D42"/>
</g>
<path d="M-374.011 374.81C-381.981 369.8 -387.811 365.81 -391.791 363.23C-395.761 360.65 -397.871 359.48 -398.171 359.86C-398.451 360.2 -396.921 362.09 -393.361 365.28C-389.801 368.47 -384.201 372.97 -376.191 378.21C-370.511 381.92 -364.651 385.42 -358.591 388.72C-352.511 391.99 -346.241 395.03 -339.761 397.86C-326.781 403.48 -312.951 408.12 -298.201 411.51C-283.461 414.94 -267.801 417.06 -251.291 417.71C-243.031 418.04 -234.581 417.98 -225.931 417.67C-217.221 417.36 -208.321 416.46 -199.281 415.31C-189.031 413.98 -179.821 412.6 -171.361 411.38C-162.881 410.15 -155.181 408.91 -148.081 407.66C-133.881 405.17 -122.071 402.7 -111.131 400.19C-100.191 397.67 -90.1107 395.07 -79.4407 392.06C-68.7707 389.03 -57.5007 385.6 -44.2707 381.04C-21.9307 373.3 3.78927 362.76 29.2793 349.1C42.0193 342.29 54.6893 334.71 66.8693 326.5C79.0393 318.3 90.6993 309.45 101.489 300.25C123.059 281.84 141.189 262.08 153.889 244.03C160.259 235.03 165.309 226.51 169.109 219.08C172.919 211.65 175.529 205.34 177.229 200.76C179.239 195.33 180.979 189.79 182.299 184.11C183.469 179.06 184.999 171.77 185.579 162.46C186.159 153.18 185.819 141.9 183.149 129.41C180.489 116.98 175.479 103.23 166.439 90.4097C164.169 87.2297 161.669 84.1097 158.919 81.1097C156.139 78.1397 153.109 75.2997 149.829 72.6397C143.229 67.4097 135.749 62.8697 127.569 59.4797C119.409 56.0597 110.679 53.5397 101.669 51.8297C92.6493 50.1597 83.3593 49.1897 73.9493 48.7897C55.1293 48.0397 35.7793 48.9297 16.3193 51.3197C-3.12073 53.7497 -22.6207 57.7697 -41.5907 63.3597C-46.3307 64.7497 -51.0407 66.2397 -55.7107 67.8297C-60.3607 69.4197 -65.0507 71.0197 -69.6707 73.1197C-74.2807 75.1997 -78.8207 77.8297 -82.7207 81.3897C-86.6707 84.9897 -89.7107 89.5497 -91.3607 94.7097C-91.9207 96.5397 -92.2907 98.4397 -92.4307 100.36C-92.5607 102.29 -92.4207 104.25 -92.0307 106.15C-91.1907 109.92 -89.3907 113.42 -86.9007 116.18C-84.4307 118.95 -81.4607 121 -78.4407 122.57C-75.4107 124.15 -72.3007 125.28 -69.2107 126.18C-63.0407 127.99 -56.8607 128.72 -51.1207 129.45C-45.3207 130.18 -39.6607 130.8 -34.1507 131.34C-12.1007 133.49 7.60929 134.27 25.0193 134.33C59.8393 134.43 85.3993 131.92 102.839 129.93C113.099 128.65 123.039 127.41 132.689 126.2C142.339 124.93 151.739 123.6 160.869 121.72C165.429 120.77 169.909 119.68 174.279 118.42C178.649 117.15 182.909 115.67 187.049 114.08C195.289 110.88 203.129 107.27 210.579 103.29C218.019 99.2997 225.069 94.9697 231.769 90.3697C238.459 85.7497 244.779 80.9797 250.919 76.0397C263.149 66.1097 274.189 55.3497 284.159 43.7897C289.629 37.4297 293.319 32.3197 295.599 28.7997C297.879 25.2797 298.749 23.3297 298.429 23.0997C298.089 22.8497 296.559 24.3097 293.779 27.4097C290.999 30.5097 286.969 35.2397 281.439 41.3997C271.369 52.5997 260.299 62.9797 248.129 72.5597C242.039 77.3097 235.669 81.9797 229.069 86.4097C222.449 90.8297 215.509 94.9897 208.199 98.8097C200.889 102.62 193.199 106.08 185.149 109.14C181.129 110.65 177.019 112.04 172.789 113.25C168.559 114.44 164.219 115.47 159.769 116.37C150.879 118.16 141.579 119.43 131.969 120.68C122.339 121.87 112.419 123.09 102.179 124.35C86.3093 126.17 61.6993 128.39 29.2993 128.28C13.1093 128.22 -5.02072 127.53 -24.8907 125.78C-34.8207 124.91 -45.2007 123.75 -55.9507 122.27C-61.1907 121.51 -66.4907 120.46 -71.4107 118.55C-73.8707 117.6 -76.2307 116.46 -78.3307 115.02C-80.4107 113.57 -82.2107 111.84 -83.5007 109.81L-83.8307 109.33L-84.0907 108.81L-84.6207 107.77C-84.9107 107.05 -85.1607 106.3 -85.4007 105.57C-85.8107 104.09 -85.9407 102.53 -85.8507 100.95C-85.6707 97.7897 -84.5507 94.5897 -82.8207 91.7097C-79.3707 85.9097 -73.3707 81.8397 -66.7607 78.8297C-63.1907 77.1797 -59.3707 75.7797 -55.4507 74.3897C-51.5407 73.0097 -47.5807 71.6797 -43.5707 70.4197C-35.5507 67.8897 -27.3307 65.6397 -18.9907 63.6697C-2.32072 59.7297 14.8493 56.9997 31.9293 55.5297C40.4693 54.7897 48.9793 54.3797 57.3993 54.2697C65.8193 54.1397 74.1193 54.3497 82.2193 54.9997C98.3893 56.2897 113.829 59.4697 127.009 65.3997C133.599 68.3297 139.599 71.9097 144.859 75.9397C147.499 77.9397 149.899 80.1197 152.169 82.3097C154.389 84.5597 156.489 86.8097 158.349 89.1597C162.129 93.8097 165.179 98.5897 167.639 103.24C170.109 107.88 172.009 112.37 173.499 116.52C176.489 124.84 177.799 131.79 178.549 136.55C178.749 137.74 178.879 138.8 178.989 139.72C179.109 140.64 179.209 141.41 179.259 142.03C179.379 143.28 179.449 143.93 179.449 143.93C179.449 143.93 179.469 144.17 179.519 144.65C179.549 145.12 179.609 145.83 179.669 146.75C179.799 148.6 179.929 151.33 179.919 154.85C179.929 161.88 179.189 172.07 176.089 184.27C173.049 196.46 167.579 210.53 159.279 224.94C151.019 239.37 139.999 254.08 127.029 268.17C114.049 282.27 99.2893 295.86 83.3993 308.12C67.5393 320.42 50.6393 331.45 33.7093 340.95C-0.16074 360.01 -33.9607 372.86 -59.4707 380.96C-78.7007 387.08 -95.7407 391.43 -110.731 394.79C-125.731 398.15 -138.701 400.55 -149.951 402.44C-161.201 404.34 -170.721 405.66 -178.951 406.82C-187.161 407.98 -194.021 408.94 -199.941 409.69C-208.911 410.84 -217.601 411.73 -226.101 412.05C-234.641 412.37 -242.951 412.46 -251.041 412.17C-267.221 411.6 -282.561 409.63 -297.011 406.4C-311.481 403.21 -325.071 398.81 -337.871 393.48C-344.261 390.79 -350.461 387.89 -356.491 384.78C-362.491 381.64 -368.321 378.29 -373.971 374.75L-374.011 374.81Z" fill="#292A2E"/>
<path d="M-47.5625 195.62L120.557 280.43L88.0675 -73.2402L-47.5625 195.62Z" fill="#292A2E"/>
<path d="M204.62 253.049L36.5 168.239L68.98 521.909L204.62 253.049Z" fill="#292A2E"/>
<path d="M123.458 284.699L-50.9219 196.729L89.7581 -82.1406L123.458 284.699ZM-44.2119 194.509L117.648 276.169L86.3681 -64.3306L-44.2119 194.509Z" fill="#292A2E"/>
<path d="M186.899 108.509C183.669 110.279 185.189 114.479 188.869 113.529C194.069 112.199 199.409 110.319 205.909 107.149C207.719 106.189 209.149 105.329 210.369 104.589C211.579 103.819 212.559 103.129 213.479 102.499C215.309 101.219 216.859 100.109 219.259 98.7595C223.289 96.4095 228.759 93.3195 233.549 90.4395C238.349 87.5695 242.499 84.9595 244.099 83.9695C244.569 83.6695 245.029 83.3495 245.459 82.9995C246.239 82.3595 247.679 81.1695 249.579 79.5995C251.449 77.9995 253.829 76.0595 256.379 73.7895C261.529 69.3095 267.569 63.7495 273.079 58.4995C275.009 56.6295 276.669 54.8495 278.199 53.2895C279.689 51.6895 281.039 50.2795 282.189 49.0095C284.509 46.4695 286.169 44.5595 287.299 43.2495C292.639 37.0295 296.039 31.8895 298.939 26.5895C300.519 23.6595 297.359 21.4095 295.069 23.7195C290.869 27.9195 286.869 32.3495 281.629 38.3495C279.589 40.6895 274.559 44.8395 268.039 51.1295C266.969 52.1495 265.969 53.2295 265.039 54.3795C261.009 59.3095 255.719 64.3695 251.379 68.0695C247.039 71.7895 243.689 74.1995 243.689 74.1995C243.689 74.1995 242.469 75.1295 240.499 76.6295C238.499 78.1195 235.759 80.1495 232.709 82.3095C226.639 86.6495 219.259 91.2995 214.749 93.8595C207.989 97.7495 204.599 99.3695 202.549 100.419C196.299 103.539 191.449 105.979 186.859 108.499L186.899 108.509Z" fill="#292A2E"/>
<path d="M348.578 270.179H440.288L401.878 147.029L348.578 270.179Z" fill="#3B3D42"/>
<path d="M-51.2811 124.569C-57.4411 124.119 -57.9111 127.439 -51.7911 128.589C-43.1111 130.179 -33.9211 131.459 -22.0511 132.419C-8.57111 133.259 -5.18111 132.689 3.93889 133.139C11.6489 133.439 22.0189 133.859 31.2489 134.059C40.4789 134.279 48.5789 134.299 51.7289 134.289C52.6589 134.289 53.5889 134.269 54.5189 134.209C57.8389 133.999 66.7989 133.469 78.0289 132.459C83.6489 131.959 89.8289 131.369 96.1689 130.669C102.489 129.939 108.969 129.189 115.199 128.459C132.729 126.319 143.629 124.839 149.319 123.899C162.749 121.749 172.759 118.949 182.019 115.059C187.099 112.849 185.989 110.149 180.829 111.649C171.359 114.259 161.659 116.289 148.429 118.349C143.289 119.199 132.419 119.869 117.099 121.589C114.609 121.879 112.119 122.239 109.659 122.669C99.0889 124.579 86.8889 126.029 77.2789 126.809C67.6889 127.619 60.7389 127.869 60.7389 127.869C60.7389 127.869 50.3789 128.449 37.8189 128.649C25.2589 128.879 10.5089 128.579 1.76889 128.189C-11.4011 127.639 -17.7311 127.089 -21.6211 126.809C-33.3911 125.899 -42.5511 125.159 -51.2911 124.559L-51.2811 124.569Z" fill="#292A2E"/>
<mask id="mask2_287_63189" style="mask-type:luminance" maskUnits="userSpaceOnUse" x="237" y="-87" width="678" height="158">
<path d="M261.288 -86.1602L237.598 -45.9402L434.648 70.0998L904.488 54.9498L914.158 38.5398L702.348 -86.2002L261.288 -86.1602Z" fill="white"/>
</mask>
<g mask="url(#mask2_287_63189)">
<path d="M486.484 -187.269L485.316 -184.506L963.855 17.7354L965.023 14.972L486.484 -187.269Z" fill="#292A2E"/>
<path d="M472.651 -161.857L471.457 -159.105L950.638 48.8506L951.832 46.0986L472.651 -161.857Z" fill="#292A2E"/>
<path d="M251.736 -222.865L250.535 -220.116L937.459 79.9934L938.66 77.2443L251.736 -222.865Z" fill="#292A2E"/>
<path d="M238.572 -191.726L237.371 -188.977L924.295 111.133L925.496 108.384L238.572 -191.726Z" fill="#292A2E"/>
<path d="M225.416 -160.572L224.215 -157.823L911.139 142.286L912.34 139.537L225.416 -160.572Z" fill="#292A2E"/>
<path d="M212.252 -129.422L211.051 -126.673L897.975 173.437L899.176 170.688L212.252 -129.422Z" fill="#292A2E"/>
<path d="M199.084 -98.2725L197.883 -95.5234L884.807 204.586L886.008 201.837L199.084 -98.2725Z" fill="#292A2E"/>
<path d="M197.753 -61.2218L196.555 -58.4717L871.676 235.78L872.875 233.03L197.753 -61.2218Z" fill="#292A2E"/>
<path d="M969.567 -91.7338L818.566 255.047L821.317 256.245L972.317 -90.5361L969.567 -91.7338Z" fill="#292A2E"/>
<path d="M938.411 -104.892L787.41 241.889L790.161 243.086L941.161 -103.694L938.411 -104.892Z" fill="#292A2E"/>
<path d="M907.262 -118.056L756.262 228.725L759.012 229.922L910.013 -116.858L907.262 -118.056Z" fill="#292A2E"/>
<path d="M876.098 -131.234L725.098 215.547L727.848 216.745L878.849 -130.036L876.098 -131.234Z" fill="#292A2E"/>
<path d="M844.957 -144.398L693.957 202.383L696.708 203.581L847.708 -143.2L844.957 -144.398Z" fill="#292A2E"/>
<path d="M813.793 -157.557L662.793 189.224L665.544 190.421L816.544 -156.359L813.793 -157.557Z" fill="#292A2E"/>
<path d="M782.653 -170.731L631.652 176.05L634.403 177.247L785.403 -169.533L782.653 -170.731Z" fill="#292A2E"/>
<path d="M751.489 -183.899L600.488 162.882L603.239 164.08L754.239 -182.701L751.489 -183.899Z" fill="#292A2E"/>
<path d="M720.332 -197.053L569.332 149.728L572.083 150.925L723.083 -195.855L720.332 -197.053Z" fill="#292A2E"/>
<path d="M689.184 -210.231L538.184 136.55L540.934 137.747L691.935 -209.033L689.184 -210.231Z" fill="#292A2E"/>
<path d="M658.024 -223.399L507.023 123.382L509.774 124.58L660.774 -222.201L658.024 -223.399Z" fill="#292A2E"/>
<path d="M626.868 -236.554L475.867 110.227L478.618 111.424L629.618 -235.356L626.868 -236.554Z" fill="#292A2E"/>
<path d="M595.715 -249.732L444.715 97.0488L447.465 98.2465L598.466 -248.534L595.715 -249.732Z" fill="#292A2E"/>
<path d="M564.563 -262.896L413.562 83.8848L416.313 85.0825L567.314 -261.698L564.563 -262.896Z" fill="#292A2E"/>
<path d="M517.432 -251.177L384.965 67.9961L387.736 69.1461L520.202 -250.027L517.432 -251.177Z" fill="#292A2E"/>
<path d="M434.236 -139.61L352.961 50.3857L355.719 51.5656L436.995 -138.43L434.236 -139.61Z" fill="#292A2E"/>
<path d="M403.084 -152.776L321.809 37.2197L324.567 38.3996L405.842 -151.596L403.084 -152.776Z" fill="#292A2E"/>
<path d="M371.92 -165.937L290.645 24.0586L293.403 25.2385L374.678 -164.758L371.92 -165.937Z" fill="#292A2E"/>
<path d="M340.779 -179.104L259.504 10.8926L262.262 12.0725L343.538 -177.924L340.779 -179.104Z" fill="#292A2E"/>
</g>
<mask id="mask3_287_63189" style="mask-type:luminance" maskUnits="userSpaceOnUse" x="246" y="91" width="240" height="325">
<path d="M347.499 415.42L246.559 91.6396H384.439L485.379 415.41H347.499V415.42Z" fill="white"/>
</mask>
<g mask="url(#mask3_287_63189)">
<path d="M119.656 -31.0466L118.488 -28.2832L597.027 173.958L598.195 171.195L119.656 -31.0466Z" fill="#3B3D42"/>
<path d="M106.5 0.114577L105.332 2.87793L583.871 205.119L585.039 202.356L106.5 0.114577Z" fill="#3B3D42"/>
<path d="M93.328 31.2728L92.1602 34.0361L570.699 236.277L571.867 233.514L93.328 31.2728Z" fill="#3B3D42"/>
<path d="M80.1679 62.4202L79 65.1836L557.539 267.425L558.707 264.661L80.1679 62.4202Z" fill="#3B3D42"/>
<path d="M66.9921 93.5775L65.8242 96.3408L544.363 298.582L545.531 295.819L66.9921 93.5775Z" fill="#3B3D42"/>
<path d="M53.8319 124.73L52.6641 127.493L531.203 329.734L532.371 326.971L53.8319 124.73Z" fill="#3B3D42"/>
<path d="M40.6679 155.887L39.5 158.65L518.039 360.892L519.207 358.128L40.6679 155.887Z" fill="#3B3D42"/>
<path d="M27.496 187.035L26.3281 189.799L504.867 392.04L506.035 389.277L27.496 187.035Z" fill="#3B3D42"/>
<path d="M14.3319 218.197L13.1641 220.96L491.703 423.201L492.871 420.438L14.3319 218.197Z" fill="#3B3D42"/>
<path d="M1.17176 249.334L0.00390625 252.098L478.543 454.339L479.711 451.575L1.17176 249.334Z" fill="#3B3D42"/>
<path d="M-12.0001 280.493L-13.168 283.256L465.371 485.497L466.539 482.734L-12.0001 280.493Z" fill="#3B3D42"/>
<path d="M-25.1564 311.654L-26.3242 314.417L452.215 516.658L453.383 513.895L-25.1564 311.654Z" fill="#3B3D42"/>
<path d="M574.999 119.687L372.758 598.226L375.521 599.393L577.762 120.854L574.999 119.687Z" fill="#3B3D42"/>
<path d="M543.851 106.516L341.609 585.055L344.373 586.223L546.614 107.684L543.851 106.516Z" fill="#3B3D42"/>
<path d="M512.694 93.3517L310.453 571.891L313.216 573.058L515.458 94.5196L512.694 93.3517Z" fill="#3B3D42"/>
<path d="M481.546 80.1817L279.305 558.721L282.068 559.889L484.309 81.3496L481.546 80.1817Z" fill="#3B3D42"/>
<path d="M450.382 67.0275L248.141 545.566L250.904 546.734L453.145 68.1953L450.382 67.0275Z" fill="#3B3D42"/>
<path d="M419.245 53.8565L217.004 532.396L219.767 533.563L422.008 55.0244L419.245 53.8565Z" fill="#3B3D42"/>
<path d="M388.089 40.6828L185.848 519.222L188.611 520.39L390.852 41.8506L388.089 40.6828Z" fill="#3B3D42"/>
<path d="M356.925 27.5274L154.684 506.066L157.447 507.234L359.688 28.6953L356.925 27.5274Z" fill="#3B3D42"/>
<path d="M325.78 14.3575L123.539 492.896L126.302 494.064L328.544 15.5254L325.78 14.3575Z" fill="#3B3D42"/>
<path d="M294.62 1.18368L92.3789 479.723L95.1423 480.891L297.383 2.35154L294.62 1.18368Z" fill="#3B3D42"/>
<path d="M263.468 -11.9677L61.2266 466.571L63.9899 467.739L266.231 -10.7998L263.468 -11.9677Z" fill="#3B3D42"/>
</g>
<mask id="mask4_287_63189" style="mask-type:luminance" maskUnits="userSpaceOnUse" x="237" y="471" width="678" height="157">
<path d="M261.288 471.469L237.598 511.699L434.648 627.739L904.488 612.589L914.158 596.179L702.348 471.439L261.288 471.469Z" fill="white"/>
</mask>
<g mask="url(#mask4_287_63189)">
<path d="M535.687 308.068L534.52 310.831L1013.06 513.072L1014.23 510.309L535.687 308.068Z" fill="#292A2E"/>
<path d="M522.527 339.219L521.359 341.982L999.898 544.224L1001.07 541.46L522.527 339.219Z" fill="#292A2E"/>
<path d="M509.363 370.376L508.195 373.14L986.734 575.381L987.902 572.618L509.363 370.376Z" fill="#292A2E"/>
<path d="M495.546 395.755L494.352 398.507L973.532 606.463L974.727 603.711L495.546 395.755Z" fill="#292A2E"/>
<path d="M274.639 334.728L273.438 337.478L960.361 637.587L961.562 634.838L274.639 334.728Z" fill="#292A2E"/>
<path d="M261.474 365.869L260.273 368.618L947.197 668.728L948.398 665.979L261.474 365.869Z" fill="#292A2E"/>
<path d="M248.314 397.032L247.113 399.781L934.037 699.891L935.238 697.142L248.314 397.032Z" fill="#292A2E"/>
<path d="M235.15 428.173L233.949 430.922L920.873 731.032L922.074 728.282L235.15 428.173Z" fill="#292A2E"/>
<path d="M221.982 459.322L220.781 462.071L907.705 762.181L908.906 759.432L221.982 459.322Z" fill="#292A2E"/>
<path d="M220.628 496.408L219.43 499.158L894.551 793.41L895.75 790.66L220.628 496.408Z" fill="#292A2E"/>
<path d="M992.446 465.935L841.445 812.716L844.196 813.914L995.196 467.133L992.446 465.935Z" fill="#292A2E"/>
<path d="M961.278 452.777L810.277 799.558L813.028 800.755L964.028 453.975L961.278 452.777Z" fill="#292A2E"/>
<path d="M930.125 439.613L779.125 786.394L781.876 787.591L932.876 440.811L930.125 439.613Z" fill="#292A2E"/>
<path d="M898.977 426.434L747.977 773.215L750.727 774.413L901.728 427.632L898.977 426.434Z" fill="#292A2E"/>
<path d="M867.821 413.28L716.82 760.061L719.571 761.258L870.571 414.478L867.821 413.28Z" fill="#292A2E"/>
<path d="M836.661 400.112L685.66 746.893L688.411 748.09L839.411 401.31L836.661 400.112Z" fill="#292A2E"/>
<path d="M805.516 386.938L654.516 733.719L657.266 734.916L808.267 388.136L805.516 386.938Z" fill="#292A2E"/>
<path d="M774.356 373.77L623.355 720.551L626.106 721.748L777.106 374.968L774.356 373.77Z" fill="#292A2E"/>
<path d="M743.192 360.611L592.191 707.392L594.942 708.589L745.942 361.809L743.192 360.611Z" fill="#292A2E"/>
<path d="M712.051 347.437L561.051 694.218L563.801 695.415L714.802 348.635L712.051 347.437Z" fill="#292A2E"/>
<path d="M680.891 334.269L529.891 681.05L532.641 682.247L683.642 335.467L680.891 334.269Z" fill="#292A2E"/>
<path d="M649.743 321.105L498.742 667.886L501.493 669.083L652.493 322.303L649.743 321.105Z" fill="#292A2E"/>
<path d="M618.582 307.937L467.582 654.718L470.333 655.915L621.333 309.135L618.582 307.937Z" fill="#292A2E"/>
<path d="M587.43 294.773L436.43 641.554L439.18 642.751L590.181 295.971L587.43 294.773Z" fill="#292A2E"/>
<path d="M540.322 306.441L407.855 625.613L410.626 626.763L543.093 307.591L540.322 306.441Z" fill="#292A2E"/>
<path d="M457.111 418.034L375.836 608.03L378.594 609.21L459.87 419.214L457.111 418.034Z" fill="#292A2E"/>
<path d="M425.959 404.877L344.684 594.873L347.442 596.053L428.717 406.057L425.959 404.877Z" fill="#292A2E"/>
<path d="M394.799 391.707L313.523 581.703L316.282 582.883L397.557 392.887L394.799 391.707Z" fill="#292A2E"/>
<path d="M363.658 378.54L282.383 568.536L285.141 569.716L366.417 379.72L363.658 378.54Z" fill="#292A2E"/>
<path d="M332.498 365.37L251.223 555.366L253.981 556.546L335.256 366.55L332.498 365.37Z" fill="#292A2E"/>
<path d="M301.354 352.213L220.078 542.209L222.836 543.389L304.112 353.393L301.354 352.213Z" fill="#292A2E"/>
<path d="M270.193 339.033L188.918 529.029L191.676 530.209L272.952 340.213L270.193 339.033Z" fill="#292A2E"/>
</g>
<path d="M369.871 829.419H497.681L655.441 430.029H542.741L369.871 829.419Z" fill="#292A2E"/>
<path d="M433.748 630.199L233.918 512.519L259.598 468.909L702.768 468.869L917.318 595.219L905.688 614.969L904.308 615.009L433.738 630.179L433.748 630.199ZM240.768 510.739L435.038 625.149L902.778 610.069L910.478 596.989L701.408 473.859L262.458 473.899L240.768 510.729V510.739Z" fill="#292A2E"/>
<path d="M433.748 71.5097L233.918 -46.1703L259.598 -89.7803L702.768 -89.8203L917.318 36.5297L905.688 56.2897L904.308 56.3297L433.738 71.4997L433.748 71.5097ZM240.768 -47.9403L435.038 66.4697L902.778 51.3897L910.478 38.3097L701.408 -84.8203L262.458 -84.7803L240.768 -47.9503V-47.9403Z" fill="#292A2E"/>
<path d="M924.051 196.179L1092.17 280.989L1059.69 -72.6807L924.051 196.179Z" fill="#292A2E"/>
<path d="M644.221 468.88H517.711V473.88H644.221V468.88Z" fill="#292A2E"/>
<path d="M618.91 -89.8809L504.64 -89.8709L437.02 66.3691L558.74 62.4491L618.91 -89.8809Z" fill="#292A2E"/>
<path d="M828.31 542.8L730.41 485.09L727.84 489.38L825.95 547.22L828.31 542.8Z" fill="#3B3D42"/>
<mask id="mask5_287_63189" style="mask-type:luminance" maskUnits="userSpaceOnUse" x="657" y="159" width="260" height="440">
<path d="M797.249 162.06L916.259 378.12L798.409 598.8H662.069L796.099 375.81L657.449 159.75C657.449 159.75 795.519 163.79 797.249 162.06Z" fill="white"/>
</mask>
<g mask="url(#mask5_287_63189)">
<path d="M597.61 375.37C589.64 370.36 583.81 366.37 579.83 363.79C575.86 361.21 573.75 360.04 573.45 360.42C573.17 360.76 574.7 362.65 578.26 365.84C581.82 369.03 587.42 373.53 595.43 378.77C601.11 382.48 606.97 385.98 613.03 389.28C619.11 392.55 625.38 395.59 631.86 398.42C644.84 404.04 658.67 408.68 673.42 412.07C688.16 415.5 703.82 417.62 720.33 418.27C728.59 418.6 737.04 418.54 745.69 418.23C754.4 417.92 763.3 417.02 772.34 415.87C782.59 414.54 791.8 413.16 800.26 411.94C808.74 410.71 816.44 409.47 823.54 408.23C837.74 405.74 849.55 403.27 860.49 400.76C871.43 398.24 881.51 395.64 892.18 392.63C902.85 389.6 914.12 386.17 927.35 381.61C949.69 373.88 975.41 363.33 1000.9 349.67C1013.64 342.86 1026.31 335.28 1038.49 327.07C1050.66 318.87 1062.32 310.02 1073.11 300.82C1094.68 282.41 1112.81 262.65 1125.51 244.6C1131.88 235.6 1136.93 227.08 1140.73 219.65C1144.54 212.22 1147.15 205.91 1148.85 201.33C1150.86 195.9 1152.6 190.36 1153.92 184.68C1155.09 179.63 1156.62 172.34 1157.2 163.03C1157.78 153.75 1157.44 142.47 1154.77 129.98C1152.11 117.55 1147.1 103.8 1138.06 90.9798C1135.79 87.7998 1133.29 84.6798 1130.54 81.6798C1127.76 78.7098 1124.73 75.8698 1121.45 73.2098C1114.85 67.9798 1107.37 63.4398 1099.19 60.0498C1091.03 56.6298 1082.3 54.1098 1073.29 52.3998C1064.27 50.7298 1054.98 49.7598 1045.57 49.3598C1026.75 48.6098 1007.4 49.4998 987.94 51.8998C968.5 54.3298 949 58.3498 930.03 63.9398C925.29 65.3298 920.58 66.8298 915.91 68.4098C911.26 69.9998 906.57 71.5998 901.95 73.6998C897.34 75.7798 892.8 78.4098 888.9 81.9698C884.95 85.5698 881.91 90.1298 880.26 95.2898C879.7 97.1198 879.33 99.0198 879.19 100.94C879.06 102.87 879.2 104.83 879.59 106.73C880.43 110.5 882.23 114 884.72 116.76C887.19 119.53 890.16 121.58 893.18 123.15C896.21 124.73 899.32 125.86 902.41 126.76C908.58 128.57 914.76 129.3 920.5 130.03C926.3 130.76 931.96 131.38 937.47 131.92C959.52 134.07 979.23 134.85 996.64 134.91C1031.47 135.01 1057.02 132.5 1074.46 130.51C1084.72 129.23 1094.66 127.99 1104.31 126.78C1113.96 125.51 1123.36 124.18 1132.49 122.3C1137.05 121.35 1141.53 120.26 1145.9 119C1150.27 117.73 1154.53 116.25 1158.67 114.66C1166.91 111.46 1174.75 107.85 1182.2 103.87C1189.64 99.8798 1196.69 95.5498 1203.39 90.9498C1210.08 86.3298 1216.4 81.5598 1222.54 76.6198C1234.77 66.6898 1245.81 55.9298 1255.78 44.3698C1261.25 38.0098 1264.94 32.8998 1267.22 29.3798C1269.5 25.8598 1270.37 23.9098 1270.05 23.6798C1269.71 23.4298 1268.18 24.8898 1265.4 27.9898C1262.62 31.0898 1258.59 35.8198 1253.06 41.9798C1242.99 53.1798 1231.92 63.5598 1219.75 73.1398C1213.66 77.8898 1207.29 82.5598 1200.69 86.9898C1194.07 91.4098 1187.13 95.5698 1179.82 99.3898C1172.51 103.2 1164.82 106.66 1156.77 109.72C1152.75 111.23 1148.64 112.62 1144.41 113.83C1140.18 115.02 1135.84 116.05 1131.39 116.95C1122.5 118.74 1113.2 120.01 1103.59 121.26C1093.96 122.45 1084.04 123.67 1073.8 124.93C1057.93 126.75 1033.32 128.97 1000.92 128.86C984.73 128.8 966.6 128.11 946.73 126.36C936.8 125.49 926.42 124.33 915.67 122.85C910.43 122.09 905.13 121.04 900.21 119.13C897.75 118.18 895.39 117.04 893.29 115.6C891.21 114.15 889.41 112.42 888.12 110.39L887.79 109.91L887.53 109.39L887 108.35C886.71 107.63 886.46 106.88 886.22 106.15C885.81 104.67 885.68 103.11 885.77 101.53C885.95 98.3698 887.07 95.1698 888.8 92.2898C892.25 86.4898 898.25 82.4198 904.86 79.4098C908.43 77.7598 912.25 76.3598 916.17 74.9698C920.08 73.5898 924.04 72.2598 928.05 70.9998C936.07 68.4698 944.29 66.2198 952.63 64.2498C969.3 60.3098 986.47 57.5698 1003.55 56.1098C1012.09 55.3698 1020.6 54.9598 1029.02 54.8498C1037.44 54.7198 1045.74 54.9298 1053.84 55.5798C1070.01 56.8698 1085.45 60.0498 1098.63 65.9798C1105.22 68.9098 1111.22 72.4898 1116.48 76.5198C1119.12 78.5198 1121.52 80.6998 1123.79 82.8898C1126.01 85.1398 1128.11 87.3898 1129.97 89.7398C1133.75 94.3898 1136.8 99.1698 1139.26 103.82C1141.73 108.46 1143.63 112.95 1145.12 117.1C1148.11 125.42 1149.42 132.37 1150.17 137.13C1150.37 138.32 1150.5 139.38 1150.61 140.3C1150.73 141.22 1150.83 141.99 1150.88 142.61C1151 143.86 1151.07 144.51 1151.07 144.51C1151.07 144.51 1151.09 144.75 1151.14 145.23C1151.17 145.7 1151.22 146.41 1151.29 147.33C1151.42 149.18 1151.55 151.91 1151.54 155.43C1151.55 162.46 1150.81 172.65 1147.71 184.85C1144.67 197.04 1139.2 211.11 1130.9 225.52C1122.64 239.95 1111.62 254.66 1098.65 268.75C1085.67 282.85 1070.91 296.44 1055.02 308.7C1039.16 321 1022.26 332.03 1005.33 341.53C971.46 360.59 937.66 373.44 912.15 381.54C892.92 387.66 875.88 392.01 860.89 395.37C845.89 398.73 832.92 401.13 821.67 403.02C810.42 404.92 800.9 406.24 792.67 407.4C784.46 408.56 777.6 409.52 771.68 410.27C762.71 411.42 754.02 412.31 745.52 412.63C736.98 412.95 728.67 413.04 720.58 412.75C704.4 412.18 689.06 410.21 674.61 406.98C660.14 403.79 646.55 399.39 633.75 394.06C627.36 391.37 621.16 388.47 615.13 385.36C609.13 382.22 603.3 378.87 597.65 375.33L597.61 375.37Z" fill="#3B3D42"/>
</g>
<mask id="mask6_287_63189" style="mask-type:luminance" maskUnits="userSpaceOnUse" x="657" y="159" width="260" height="440">
<path d="M797.249 162.06L916.259 378.12L798.409 598.8H662.069L796.099 375.81L657.449 159.75C657.449 159.75 795.519 163.79 797.249 162.06Z" fill="white"/>
</mask>
<g mask="url(#mask6_287_63189)">
<path d="M665.439 217.53L666.779 216.54C666.779 216.54 669.099 217.49 670.029 215.73L673.519 216.38C673.519 216.38 674.979 215.89 675.419 214.79C675.689 214.11 675.869 213.3 675.909 212.55C675.989 211.04 675.489 209.79 674.089 210.33C674.069 210.24 674.019 210.15 674.009 210.02C672.519 211.13 671.089 209.23 669.579 209.47C669.599 209.91 669.549 210.26 669.499 210.03L669.519 209.48C668.509 210.59 667.879 208.81 666.959 210.71C666.959 210.7 667.069 209.97 667.069 209.98C663.909 210.35 659.629 209.63 656.209 210.54L656.229 210.62V210.7C656.539 211.25 658.059 212.04 658.059 212.05C656.919 214.73 655.629 211.96 654.409 212.09V211.38C654.939 211.4 655.409 211.07 655.589 210.77C653.709 209.81 649.929 209.67 648.129 210.79C648.179 211.33 648.729 210.14 648.879 211.89C648.419 211.91 647.959 212.17 647.519 212.15C647.519 211 647.769 211.39 647.819 211.18C647.069 209.93 631.759 208.75 635.409 213.59L635.319 214.18C636.259 214.43 637.049 214.64 638.029 215.77C638.169 215.68 638.189 215.79 638.179 215.2C638.219 215.11 638.279 214.94 638.259 214.69C638.249 213.26 638.549 213.82 638.689 213.78C638.529 218.26 641.739 214.2 642.169 214.37C642.249 216.5 643.009 214.44 643.269 215.34C643.249 215.42 643.139 215.89 643.119 215.98C643.349 217.34 647.149 213.53 646.069 216.17C650.559 220.63 658.699 215.15 663.559 219.02L663.519 218.76C663.559 218.84 663.679 218.72 663.709 219.02C664.189 218.15 665.449 217.51 665.449 217.51L665.439 217.53ZM654.309 215.08C654.309 215.08 654.309 215.19 654.309 215.22C654.309 215 653.689 215.14 653.659 215.09V214.38C654.289 213.01 655.749 217.83 654.369 215.74C654.319 215.91 654.319 215.32 654.309 215.08ZM648.769 215.05C648.659 214.98 648.539 214.92 648.409 214.87C649.849 212.62 651.789 215.38 653.359 214.33C652.819 217.5 651.539 215.82 650.859 215.65C650.179 216.38 649.369 215.51 648.759 215.04L648.769 215.05ZM639.509 214.59V214.96H639.459C639.459 214.86 639.459 214.74 639.479 214.7C639.479 214.62 639.509 214.56 639.519 214.59H639.509ZM664.679 215.86C664.569 216.44 664.169 216.11 664.439 214.98C664.509 215.17 664.709 214.63 664.679 215.86ZM647.149 214.21C647.149 215.38 646.619 215.62 646.619 214C646.799 213.97 646.979 214.09 647.149 214.21ZM668.609 214.62C668.749 213.37 668.709 214.77 668.759 215.54C668.719 215.37 668.599 215.3 668.619 214.73V214.62H668.609ZM671.069 213.86C671.109 213.25 671.239 212.86 671.309 212.84C671.479 213.3 671.149 214.41 671.069 213.86ZM675.129 213.73C675.129 213.04 675.229 212.81 675.259 213.49C675.249 214 675.129 214.4 675.119 213.6C675.119 213.63 675.119 213.69 675.129 213.72V213.73ZM644.709 211.71C644.849 209.66 645.329 211.33 645.589 210.77C645.529 212.81 645.069 211.31 644.869 211.66C644.799 211.66 644.749 211.67 644.709 211.71ZM660.689 212.1C660.689 210.29 661.219 211.73 661.399 211.32V212.03C661.129 212.22 660.969 212.68 660.699 212.09H660.689V212.1ZM649.629 211.08C649.729 210.36 649.899 211.04 650.009 211.03C650.009 212.05 649.569 212.22 649.629 211.07V211.08ZM654.119 211.33C654.139 212.45 653.919 211.9 653.859 212.01C653.899 211.78 653.989 211.09 654.039 211.1C654.079 211.12 654.089 211.24 654.119 211.33ZM660.499 212.8C660.289 212.83 660.069 212.8 659.849 212.77V212.06C660.079 212.06 660.289 212.08 660.499 212.09V212.8ZM658.389 211.7V210.99C658.689 210.31 658.729 212.13 658.389 211.7ZM663.209 211.95C663.209 211.95 663.129 211.86 663.099 211.86C662.669 211.95 663.269 209.34 663.209 211.95ZM665.479 211.24C665.519 211.13 665.579 210.93 665.629 210.95C665.939 211.03 665.599 212.76 665.479 211.24Z" fill="#292A2E"/>
<path d="M589.879 176.441C586.749 176.791 586.749 180.141 589.879 180.491C594.319 180.991 598.989 181.251 604.989 181.271C611.789 181.111 613.479 180.421 618.089 180.501C625.869 180.501 639.009 181.431 642.169 181.661C642.639 181.691 643.109 181.701 643.579 181.691C646.929 181.561 661.639 181.061 674.299 181.301C683.239 181.291 688.779 181.281 691.669 181.281C698.499 181.251 703.599 180.911 708.609 180.281C711.359 179.931 711.359 177.021 708.609 176.671C703.599 176.031 698.499 175.691 691.669 175.671C689.019 175.671 683.489 174.871 675.689 174.731C674.419 174.711 673.149 174.761 671.889 174.891C661.009 175.981 646.879 175.671 646.879 175.671C646.879 175.671 625.799 175.661 616.899 175.651C610.199 175.651 606.979 175.661 604.999 175.671C598.999 175.691 594.329 175.961 589.889 176.461L589.879 176.441Z" fill="#3B3D42"/>
<path d="M610.418 222.821C607.288 223.171 607.288 226.521 610.418 226.871C614.858 227.371 619.528 227.631 625.528 227.651C632.328 227.491 634.018 226.801 638.628 226.881C646.408 226.881 659.548 227.811 662.708 228.041C663.178 228.071 663.648 228.081 664.118 228.071C667.468 227.941 682.178 227.441 694.838 227.681C703.778 227.681 709.318 227.661 712.208 227.661C719.038 227.631 724.138 227.291 729.148 226.661C731.898 226.311 731.898 223.401 729.148 223.051C724.138 222.411 719.038 222.071 712.208 222.051C709.558 222.051 704.028 221.251 696.228 221.111C694.958 221.091 693.688 221.141 692.428 221.271C681.548 222.361 667.418 222.051 667.418 222.051C667.418 222.051 646.338 222.041 637.438 222.031C630.738 222.031 627.518 222.041 625.538 222.051C619.538 222.071 614.868 222.341 610.428 222.841L610.418 222.821Z" fill="#3B3D42"/>
</g>
<mask id="mask7_287_63189" style="mask-type:luminance" maskUnits="userSpaceOnUse" x="-48" y="-74" width="169" height="355">
<path d="M-47.5625 195.62L120.557 280.43L88.0675 -73.2402L-47.5625 195.62Z" fill="white"/>
</mask>
<g mask="url(#mask7_287_63189)">
<path d="M-51.2811 124.569C-57.4411 124.119 -57.9111 127.439 -51.7911 128.589C-43.1111 130.179 -33.9211 131.459 -22.0511 132.419C-8.57111 133.259 -5.18111 132.689 3.93889 133.139C11.6489 133.439 22.0189 133.859 31.2489 134.059C40.4789 134.279 48.5789 134.299 51.7289 134.289C52.6589 134.289 53.5889 134.269 54.5189 134.209C57.8389 133.999 66.7989 133.469 78.0289 132.459C83.6489 131.959 89.8289 131.369 96.1689 130.669C102.489 129.939 108.969 129.189 115.199 128.459C132.729 126.319 143.629 124.839 149.319 123.899C162.749 121.749 172.759 118.949 182.019 115.059C187.099 112.849 185.989 110.149 180.829 111.649C171.359 114.259 161.659 116.289 148.429 118.349C143.289 119.199 132.419 119.869 117.099 121.589C114.609 121.879 112.119 122.239 109.659 122.669C99.0889 124.579 86.8889 126.029 77.2789 126.809C67.6889 127.619 60.7389 127.869 60.7389 127.869C60.7389 127.869 50.3789 128.449 37.8189 128.649C25.2589 128.879 10.5089 128.579 1.76889 128.189C-11.4011 127.639 -17.7311 127.089 -21.6211 126.809C-33.3911 125.899 -42.5511 125.159 -51.2911 124.559L-51.2811 124.569Z" fill="#3B3D42"/>
</g>
<path d="M120.56 280.429L43.22 241.419L36.5 168.239L113.84 207.249L120.56 280.429Z" fill="#3B3D42"/>
<mask id="mask8_287_63189" style="mask-type:luminance" maskUnits="userSpaceOnUse" x="36" y="168" width="169" height="354">
<path d="M204.62 253.049L36.5 168.239L68.98 521.909L204.62 253.049Z" fill="white"/>
</mask>
<g mask="url(#mask8_287_63189)">
<path d="M-374.011 374.81C-381.981 369.8 -387.811 365.81 -391.791 363.23C-395.761 360.65 -397.871 359.48 -398.171 359.86C-398.451 360.2 -396.921 362.09 -393.361 365.28C-389.801 368.47 -384.201 372.97 -376.191 378.21C-370.511 381.92 -364.651 385.42 -358.591 388.72C-352.511 391.99 -346.241 395.03 -339.761 397.86C-326.781 403.48 -312.951 408.12 -298.201 411.51C-283.461 414.94 -267.801 417.06 -251.291 417.71C-243.031 418.04 -234.581 417.98 -225.931 417.67C-217.221 417.36 -208.321 416.46 -199.281 415.31C-189.031 413.98 -179.821 412.6 -171.361 411.38C-162.881 410.15 -155.181 408.91 -148.081 407.66C-133.881 405.17 -122.071 402.7 -111.131 400.19C-100.191 397.67 -90.1107 395.07 -79.4407 392.06C-68.7707 389.03 -57.5007 385.6 -44.2707 381.04C-21.9307 373.3 3.78927 362.76 29.2793 349.1C42.0193 342.29 54.6893 334.71 66.8693 326.5C79.0393 318.3 90.6993 309.45 101.489 300.25C123.059 281.84 141.189 262.08 153.889 244.03C160.259 235.03 165.309 226.51 169.109 219.08C172.919 211.65 175.529 205.34 177.229 200.76C179.239 195.33 180.979 189.79 182.299 184.11C183.469 179.06 184.999 171.77 185.579 162.46C186.159 153.18 185.819 141.9 183.149 129.41C180.489 116.98 175.479 103.23 166.439 90.4097C164.169 87.2297 161.669 84.1097 158.919 81.1097C156.139 78.1397 153.109 75.2997 149.829 72.6397C143.229 67.4097 135.749 62.8697 127.569 59.4797C119.409 56.0597 110.679 53.5397 101.669 51.8297C92.6493 50.1597 83.3593 49.1897 73.9493 48.7897C55.1293 48.0397 35.7793 48.9297 16.3193 51.3197C-3.12073 53.7497 -22.6207 57.7697 -41.5907 63.3597C-46.3307 64.7497 -51.0407 66.2397 -55.7107 67.8297C-60.3607 69.4197 -65.0507 71.0197 -69.6707 73.1197C-74.2807 75.1997 -78.8207 77.8297 -82.7207 81.3897C-86.6707 84.9897 -89.7107 89.5497 -91.3607 94.7097C-91.9207 96.5397 -92.2907 98.4397 -92.4307 100.36C-92.5607 102.29 -92.4207 104.25 -92.0307 106.15C-91.1907 109.92 -89.3907 113.42 -86.9007 116.18C-84.4307 118.95 -81.4607 121 -78.4407 122.57C-75.4107 124.15 -72.3007 125.28 -69.2107 126.18C-63.0407 127.99 -56.8607 128.72 -51.1207 129.45C-45.3207 130.18 -39.6607 130.8 -34.1507 131.34C-12.1007 133.49 7.60929 134.27 25.0193 134.33C59.8393 134.43 85.3993 131.92 102.839 129.93C113.099 128.65 123.039 127.41 132.689 126.2C142.339 124.93 151.739 123.6 160.869 121.72C165.429 120.77 169.909 119.68 174.279 118.42C178.649 117.15 182.909 115.67 187.049 114.08C195.289 110.88 203.129 107.27 210.579 103.29C218.019 99.2997 225.069 94.9697 231.769 90.3697C238.459 85.7497 244.779 80.9797 250.919 76.0397C263.149 66.1097 274.189 55.3497 284.159 43.7897C289.629 37.4297 293.319 32.3197 295.599 28.7997C297.879 25.2797 298.749 23.3297 298.429 23.0997C298.089 22.8497 296.559 24.3097 293.779 27.4097C290.999 30.5097 286.969 35.2397 281.439 41.3997C271.369 52.5997 260.299 62.9797 248.129 72.5597C242.039 77.3097 235.669 81.9797 229.069 86.4097C222.449 90.8297 215.509 94.9897 208.199 98.8097C200.889 102.62 193.199 106.08 185.149 109.14C181.129 110.65 177.019 112.04 172.789 113.25C168.559 114.44 164.219 115.47 159.769 116.37C150.879 118.16 141.579 119.43 131.969 120.68C122.339 121.87 112.419 123.09 102.179 124.35C86.3093 126.17 61.6993 128.39 29.2993 128.28C13.1093 128.22 -5.02072 127.53 -24.8907 125.78C-34.8207 124.91 -45.2007 123.75 -55.9507 122.27C-61.1907 121.51 -66.4907 120.46 -71.4107 118.55C-73.8707 117.6 -76.2307 116.46 -78.3307 115.02C-80.4107 113.57 -82.2107 111.84 -83.5007 109.81L-83.8307 109.33L-84.0907 108.81L-84.6207 107.77C-84.9107 107.05 -85.1607 106.3 -85.4007 105.57C-85.8107 104.09 -85.9407 102.53 -85.8507 100.95C-85.6707 97.7897 -84.5507 94.5897 -82.8207 91.7097C-79.3707 85.9097 -73.3707 81.8397 -66.7607 78.8297C-63.1907 77.1797 -59.3707 75.7797 -55.4507 74.3897C-51.5407 73.0097 -47.5807 71.6797 -43.5707 70.4197C-35.5507 67.8897 -27.3307 65.6397 -18.9907 63.6697C-2.32072 59.7297 14.8493 56.9997 31.9293 55.5297C40.4693 54.7897 48.9793 54.3797 57.3993 54.2697C65.8193 54.1397 74.1193 54.3497 82.2193 54.9997C98.3893 56.2897 113.829 59.4697 127.009 65.3997C133.599 68.3297 139.599 71.9097 144.859 75.9397C147.499 77.9397 149.899 80.1197 152.169 82.3097C154.389 84.5597 156.489 86.8097 158.349 89.1597C162.129 93.8097 165.179 98.5897 167.639 103.24C170.109 107.88 172.009 112.37 173.499 116.52C176.489 124.84 177.799 131.79 178.549 136.55C178.749 137.74 178.879 138.8 178.989 139.72C179.109 140.64 179.209 141.41 179.259 142.03C179.379 143.28 179.449 143.93 179.449 143.93C179.449 143.93 179.469 144.17 179.519 144.65C179.549 145.12 179.609 145.83 179.669 146.75C179.799 148.6 179.929 151.33 179.919 154.85C179.929 161.88 179.189 172.07 176.089 184.27C173.049 196.46 167.579 210.53 159.279 224.94C151.019 239.37 139.999 254.08 127.029 268.17C114.049 282.27 99.2893 295.86 83.3993 308.12C67.5393 320.42 50.6393 331.45 33.7093 340.95C-0.16074 360.01 -33.9607 372.86 -59.4707 380.96C-78.7007 387.08 -95.7407 391.43 -110.731 394.79C-125.731 398.15 -138.701 400.55 -149.951 402.44C-161.201 404.34 -170.721 405.66 -178.951 406.82C-187.161 407.98 -194.021 408.94 -199.941 409.69C-208.911 410.84 -217.601 411.73 -226.101 412.05C-234.641 412.37 -242.951 412.46 -251.041 412.17C-267.221 411.6 -282.561 409.63 -297.011 406.4C-311.481 403.21 -325.071 398.81 -337.871 393.48C-344.261 390.79 -350.461 387.89 -356.491 384.78C-362.491 381.64 -368.321 378.29 -373.971 374.75L-374.011 374.81Z" fill="#3B3D42"/>
</g>
<path d="M644.219 468.88H639.109V473.88H644.219V468.88Z" fill="#292A2E"/>
<path d="M524.841 468.88H517.711V473.88H524.841V468.88Z" fill="#292A2E"/>
</g>
</g>
<defs>
<clipPath id="clip0_287_63189">
<rect width="960" height="540" fill="white"/>
</clipPath>
</defs>
</svg>
