<svg width="960" height="540" viewBox="0 0 960 540" fill="none" xmlns="http://www.w3.org/2000/svg">
<g clip-path="url(#clip0_287_63509)">
<path d="M960 0H0V540H960V0Z" fill="#693200"/>
<path d="M347.578 270.74H475.388L633.148 -128.65H520.448L347.578 270.74Z" fill="#9E4C00"/>
<path d="M796.249 162.06L915.259 378.12L797.409 598.8H661.069L795.099 375.81L656.449 159.75C656.449 159.75 794.519 163.79 796.249 162.06Z" fill="#3A2C1F"/>
<path d="M596.61 375.37C588.64 370.36 582.81 366.37 578.83 363.79C574.86 361.21 572.75 360.04 572.45 360.42C572.17 360.76 573.7 362.65 577.26 365.84C580.82 369.03 586.42 373.53 594.43 378.77C600.11 382.48 605.97 385.98 612.03 389.28C618.11 392.55 624.38 395.59 630.86 398.42C643.84 404.04 657.67 408.68 672.42 412.07C687.16 415.5 702.82 417.62 719.33 418.27C727.59 418.6 736.04 418.54 744.69 418.23C753.4 417.92 762.3 417.02 771.34 415.87C781.59 414.54 790.8 413.16 799.26 411.94C807.74 410.71 815.44 409.47 822.54 408.23C836.74 405.74 848.55 403.27 859.49 400.76C870.43 398.24 880.51 395.64 891.18 392.63C901.85 389.6 913.12 386.17 926.35 381.61C948.69 373.88 974.41 363.33 999.9 349.67C1012.64 342.86 1025.31 335.28 1037.49 327.07C1049.66 318.87 1061.32 310.02 1072.11 300.82C1093.68 282.41 1111.81 262.65 1124.51 244.6C1130.88 235.6 1135.93 227.08 1139.73 219.65C1143.54 212.22 1146.15 205.91 1147.85 201.33C1149.86 195.9 1151.6 190.36 1152.92 184.68C1154.09 179.63 1155.62 172.34 1156.2 163.03C1156.78 153.75 1156.44 142.47 1153.77 129.98C1151.11 117.55 1146.1 103.8 1137.06 90.9798C1134.79 87.7998 1132.29 84.6798 1129.54 81.6798C1126.76 78.7098 1123.73 75.8698 1120.45 73.2098C1113.85 67.9798 1106.37 63.4398 1098.19 60.0498C1090.03 56.6298 1081.3 54.1098 1072.29 52.3998C1063.27 50.7298 1053.98 49.7598 1044.57 49.3598C1025.75 48.6098 1006.4 49.4998 986.94 51.8998C967.5 54.3298 948 58.3498 929.03 63.9398C924.29 65.3298 919.58 66.8298 914.91 68.4098C910.26 69.9998 905.57 71.5998 900.95 73.6998C896.34 75.7798 891.8 78.4098 887.9 81.9698C883.95 85.5698 880.91 90.1298 879.26 95.2898C878.7 97.1198 878.33 99.0198 878.19 100.94C878.06 102.87 878.2 104.83 878.59 106.73C879.43 110.5 881.23 114 883.72 116.76C886.19 119.53 889.16 121.58 892.18 123.15C895.21 124.73 898.32 125.86 901.41 126.76C907.58 128.57 913.76 129.3 919.5 130.03C925.3 130.76 930.96 131.38 936.47 131.92C958.52 134.07 978.23 134.85 995.64 134.91C1030.47 135.01 1056.02 132.5 1073.46 130.51C1083.72 129.23 1093.66 127.99 1103.31 126.78C1112.96 125.51 1122.36 124.18 1131.49 122.3C1136.05 121.35 1140.53 120.26 1144.9 119C1149.27 117.73 1153.53 116.25 1157.67 114.66C1165.91 111.46 1173.75 107.85 1181.2 103.87C1188.64 99.8798 1195.69 95.5498 1202.39 90.9498C1209.08 86.3298 1215.4 81.5598 1221.54 76.6198C1233.77 66.6898 1244.81 55.9298 1254.78 44.3698C1260.25 38.0098 1263.94 32.8998 1266.22 29.3798C1268.5 25.8598 1269.37 23.9098 1269.05 23.6798C1268.71 23.4298 1267.18 24.8898 1264.4 27.9898C1261.62 31.0898 1257.59 35.8198 1252.06 41.9798C1241.99 53.1798 1230.92 63.5598 1218.75 73.1398C1212.66 77.8898 1206.29 82.5598 1199.69 86.9898C1193.07 91.4098 1186.13 95.5698 1178.82 99.3898C1171.51 103.2 1163.82 106.66 1155.77 109.72C1151.75 111.23 1147.64 112.62 1143.41 113.83C1139.18 115.02 1134.84 116.05 1130.39 116.95C1121.5 118.74 1112.2 120.01 1102.59 121.26C1092.96 122.45 1083.04 123.67 1072.8 124.93C1056.93 126.75 1032.32 128.97 999.92 128.86C983.73 128.8 965.6 128.11 945.73 126.36C935.8 125.49 925.42 124.33 914.67 122.85C909.43 122.09 904.13 121.04 899.21 119.13C896.75 118.18 894.39 117.04 892.29 115.6C890.21 114.15 888.41 112.42 887.12 110.39L886.79 109.91L886.53 109.39L886 108.35C885.71 107.63 885.46 106.88 885.22 106.15C884.81 104.67 884.68 103.11 884.77 101.53C884.95 98.3698 886.07 95.1698 887.8 92.2898C891.25 86.4898 897.25 82.4198 903.86 79.4098C907.43 77.7598 911.25 76.3598 915.17 74.9698C919.08 73.5898 923.04 72.2598 927.05 70.9998C935.07 68.4698 943.29 66.2198 951.63 64.2498C968.3 60.3098 985.47 57.5698 1002.55 56.1098C1011.09 55.3698 1019.6 54.9598 1028.02 54.8498C1036.44 54.7198 1044.74 54.9298 1052.84 55.5798C1069.01 56.8698 1084.45 60.0498 1097.63 65.9798C1104.22 68.9098 1110.22 72.4898 1115.48 76.5198C1118.12 78.5198 1120.52 80.6998 1122.79 82.8898C1125.01 85.1398 1127.11 87.3898 1128.97 89.7398C1132.75 94.3898 1135.8 99.1698 1138.26 103.82C1140.73 108.46 1142.63 112.95 1144.12 117.1C1147.11 125.42 1148.42 132.37 1149.17 137.13C1149.37 138.32 1149.5 139.38 1149.61 140.3C1149.73 141.22 1149.83 141.99 1149.88 142.61C1150 143.86 1150.07 144.51 1150.07 144.51C1150.07 144.51 1150.09 144.75 1150.14 145.23C1150.17 145.7 1150.22 146.41 1150.29 147.33C1150.42 149.18 1150.55 151.91 1150.54 155.43C1150.55 162.46 1149.81 172.65 1146.71 184.85C1143.67 197.04 1138.2 211.11 1129.9 225.52C1121.64 239.95 1110.62 254.66 1097.65 268.75C1084.67 282.85 1069.91 296.44 1054.02 308.7C1038.16 321 1021.26 332.03 1004.33 341.53C970.46 360.59 936.66 373.44 911.15 381.54C891.92 387.66 874.88 392.01 859.89 395.37C844.89 398.73 831.92 401.13 820.67 403.02C809.42 404.92 799.9 406.24 791.67 407.4C783.46 408.56 776.6 409.52 770.68 410.27C761.71 411.42 753.02 412.31 744.52 412.63C735.98 412.95 727.67 413.04 719.58 412.75C703.4 412.18 688.06 410.21 673.61 406.98C659.14 403.79 645.55 399.39 632.75 394.06C626.36 391.37 620.16 388.47 614.13 385.36C608.13 382.22 602.3 378.87 596.65 375.33L596.61 375.37Z" fill="#9E4C00"/>
<path d="M566.78 165.709C565.73 166.059 565.73 169.409 566.78 169.759C568.26 170.259 569.82 170.519 571.82 170.539C574.09 170.379 574.65 169.689 576.19 169.769C578.79 169.769 583.17 170.699 584.22 170.929C584.38 170.959 584.53 170.969 584.69 170.959C585.81 170.829 590.71 170.329 594.94 170.569C597.92 170.569 599.77 170.549 600.73 170.549C603.01 170.519 604.71 170.179 606.38 169.549C607.3 169.199 607.3 166.289 606.38 165.939C604.71 165.299 603.01 164.959 600.73 164.939C599.84 164.939 598 164.139 595.4 163.999C594.98 163.979 594.55 164.029 594.13 164.159C590.5 165.249 585.79 164.939 585.79 164.939C585.79 164.939 578.76 164.929 575.79 164.919C573.56 164.919 572.48 164.929 571.82 164.939C569.82 164.959 568.26 165.229 566.78 165.729V165.709Z" fill="#9E4C00"/>
<path d="M634.628 212.499C633.588 212.849 633.588 216.199 634.628 216.549C636.108 217.049 637.668 217.309 639.668 217.329C641.938 217.169 642.498 216.479 644.038 216.559C646.638 216.559 651.018 217.489 652.068 217.719C652.228 217.749 652.378 217.759 652.538 217.749C653.658 217.619 658.558 217.119 662.788 217.359C665.768 217.359 667.618 217.339 668.578 217.339C670.858 217.309 672.558 216.969 674.228 216.339C675.148 215.989 675.148 213.079 674.228 212.729C672.558 212.089 670.858 211.749 668.578 211.729C667.698 211.729 665.848 210.929 663.248 210.789C662.828 210.769 662.398 210.819 661.978 210.949C658.348 212.039 653.638 211.729 653.638 211.729C653.638 211.729 646.608 211.719 643.638 211.709C641.408 211.709 640.328 211.719 639.668 211.729C637.668 211.749 636.108 212.019 634.628 212.519V212.499Z" fill="#9E4C00"/>
<path d="M588.879 176.44C585.749 176.79 585.749 180.14 588.879 180.49C593.319 180.99 597.989 181.25 603.989 181.27C610.789 181.11 612.479 180.42 617.089 180.5C624.869 180.5 638.009 181.43 641.169 181.66C641.639 181.69 642.109 181.7 642.579 181.69C645.929 181.56 660.639 181.06 673.299 181.3C682.239 181.29 687.779 181.28 690.669 181.28C697.499 181.25 702.599 180.91 707.609 180.28C710.359 179.93 710.359 177.02 707.609 176.67C702.599 176.03 697.499 175.69 690.669 175.67C688.019 175.67 682.489 174.87 674.689 174.73C673.419 174.71 672.149 174.76 670.889 174.89C660.009 175.98 645.879 175.67 645.879 175.67C645.879 175.67 624.799 175.66 615.899 175.65C609.199 175.65 605.979 175.66 603.999 175.67C597.999 175.69 593.329 175.96 588.889 176.46L588.879 176.44Z" fill="#9E4C00"/>
<path d="M609.418 222.82C606.288 223.17 606.288 226.52 609.418 226.87C613.858 227.37 618.528 227.63 624.528 227.65C631.328 227.49 633.018 226.8 637.628 226.88C645.408 226.88 658.548 227.81 661.708 228.04C662.178 228.07 662.648 228.08 663.118 228.07C666.468 227.94 681.178 227.44 693.838 227.68C702.778 227.68 708.318 227.66 711.208 227.66C718.038 227.63 723.138 227.29 728.148 226.66C730.898 226.31 730.898 223.4 728.148 223.05C723.138 222.41 718.038 222.07 711.208 222.05C708.558 222.05 703.028 221.25 695.228 221.11C693.958 221.09 692.688 221.14 691.428 221.27C680.548 222.36 666.418 222.05 666.418 222.05C666.418 222.05 645.338 222.04 636.438 222.03C629.738 222.03 626.518 222.04 624.538 222.05C618.538 222.07 613.868 222.34 609.428 222.84L609.418 222.82Z" fill="#9E4C00"/>
<path d="M346.499 415.42L245.559 91.6396H383.439L484.379 415.41H346.499V415.42Z" fill="#3A2C1F"/>
<path d="M347.578 270.74H439.288L400.878 147.59L347.578 270.74Z" fill="#693200"/>
<mask id="mask0_287_63509" style="mask-type:luminance" maskUnits="userSpaceOnUse" x="245" y="91" width="240" height="325">
<path d="M346.499 415.42L245.559 91.6396H383.439L484.379 415.41H346.499V415.42Z" fill="white"/>
</mask>
<g mask="url(#mask0_287_63509)">
<path d="M-39.5183 343.262L-40.2969 345.104L438.242 547.346L439.021 545.503L-39.5183 343.262Z" fill="#693200"/>
<path d="M-52.6941 374.42L-53.4727 376.263L425.066 578.504L425.845 576.662L-52.6941 374.42Z" fill="#693200"/>
</g>
<path d="M-375.011 374.81C-382.981 369.8 -388.811 365.81 -392.791 363.23C-396.761 360.65 -398.871 359.48 -399.171 359.86C-399.451 360.2 -397.921 362.09 -394.361 365.28C-390.801 368.47 -385.201 372.97 -377.191 378.21C-371.511 381.92 -365.651 385.42 -359.591 388.72C-353.511 391.99 -347.241 395.03 -340.761 397.86C-327.781 403.48 -313.951 408.12 -299.201 411.51C-284.461 414.94 -268.801 417.06 -252.291 417.71C-244.031 418.04 -235.581 417.98 -226.931 417.67C-218.221 417.36 -209.321 416.46 -200.281 415.31C-190.031 413.98 -180.821 412.6 -172.361 411.38C-163.881 410.15 -156.181 408.91 -149.081 407.66C-134.881 405.17 -123.071 402.7 -112.131 400.19C-101.191 397.67 -91.1107 395.07 -80.4407 392.06C-69.7707 389.03 -58.5007 385.6 -45.2707 381.04C-22.9307 373.3 2.78927 362.76 28.2793 349.1C41.0193 342.29 53.6893 334.71 65.8693 326.5C78.0393 318.3 89.6993 309.45 100.489 300.25C122.059 281.84 140.189 262.08 152.889 244.03C159.259 235.03 164.309 226.51 168.109 219.08C171.919 211.65 174.529 205.34 176.229 200.76C178.239 195.33 179.979 189.79 181.299 184.11C182.469 179.06 183.999 171.77 184.579 162.46C185.159 153.18 184.819 141.9 182.149 129.41C179.489 116.98 174.479 103.23 165.439 90.4097C163.169 87.2297 160.669 84.1097 157.919 81.1097C155.139 78.1397 152.109 75.2997 148.829 72.6397C142.229 67.4097 134.749 62.8697 126.569 59.4797C118.409 56.0597 109.679 53.5397 100.669 51.8297C91.6493 50.1597 82.3593 49.1897 72.9493 48.7897C54.1293 48.0397 34.7793 48.9297 15.3193 51.3197C-4.12073 53.7497 -23.6207 57.7697 -42.5907 63.3597C-47.3307 64.7497 -52.0407 66.2397 -56.7107 67.8297C-61.3607 69.4197 -66.0507 71.0197 -70.6707 73.1197C-75.2807 75.1997 -79.8207 77.8297 -83.7207 81.3897C-87.6707 84.9897 -90.7107 89.5497 -92.3607 94.7097C-92.9207 96.5397 -93.2907 98.4397 -93.4307 100.36C-93.5607 102.29 -93.4207 104.25 -93.0307 106.15C-92.1907 109.92 -90.3907 113.42 -87.9007 116.18C-85.4307 118.95 -82.4607 121 -79.4407 122.57C-76.4107 124.15 -73.3007 125.28 -70.2107 126.18C-64.0407 127.99 -57.8607 128.72 -52.1207 129.45C-46.3207 130.18 -40.6607 130.8 -35.1507 131.34C-13.1007 133.49 6.60929 134.27 24.0193 134.33C58.8393 134.43 84.3993 131.92 101.839 129.93C112.099 128.65 122.039 127.41 131.689 126.2C141.339 124.93 150.739 123.6 159.869 121.72C164.429 120.77 168.909 119.68 173.279 118.42C177.649 117.15 181.909 115.67 186.049 114.08C194.289 110.88 202.129 107.27 209.579 103.29C217.019 99.2997 224.069 94.9697 230.769 90.3697C237.459 85.7497 243.779 80.9797 249.919 76.0397C262.149 66.1097 273.189 55.3497 283.159 43.7897C288.629 37.4297 292.319 32.3197 294.599 28.7997C296.879 25.2797 297.749 23.3297 297.429 23.0997C297.089 22.8497 295.559 24.3097 292.779 27.4097C289.999 30.5097 285.969 35.2397 280.439 41.3997C270.369 52.5997 259.299 62.9797 247.129 72.5597C241.039 77.3097 234.669 81.9797 228.069 86.4097C221.449 90.8297 214.509 94.9897 207.199 98.8097C199.889 102.62 192.199 106.08 184.149 109.14C180.129 110.65 176.019 112.04 171.789 113.25C167.559 114.44 163.219 115.47 158.769 116.37C149.879 118.16 140.579 119.43 130.969 120.68C121.339 121.87 111.419 123.09 101.179 124.35C85.3093 126.17 60.6993 128.39 28.2993 128.28C12.1093 128.22 -6.02072 127.53 -25.8907 125.78C-35.8207 124.91 -46.2007 123.75 -56.9507 122.27C-62.1907 121.51 -67.4907 120.46 -72.4107 118.55C-74.8707 117.6 -77.2307 116.46 -79.3307 115.02C-81.4107 113.57 -83.2107 111.84 -84.5007 109.81L-84.8307 109.33L-85.0907 108.81L-85.6207 107.77C-85.9107 107.05 -86.1607 106.3 -86.4007 105.57C-86.8107 104.09 -86.9407 102.53 -86.8507 100.95C-86.6707 97.7897 -85.5507 94.5897 -83.8207 91.7097C-80.3707 85.9097 -74.3707 81.8397 -67.7607 78.8297C-64.1907 77.1797 -60.3707 75.7797 -56.4507 74.3897C-52.5407 73.0097 -48.5807 71.6797 -44.5707 70.4197C-36.5507 67.8897 -28.3307 65.6397 -19.9907 63.6697C-3.32072 59.7297 13.8493 56.9997 30.9293 55.5297C39.4693 54.7897 47.9793 54.3797 56.3993 54.2697C64.8193 54.1397 73.1193 54.3497 81.2193 54.9997C97.3893 56.2897 112.829 59.4697 126.009 65.3997C132.599 68.3297 138.599 71.9097 143.859 75.9397C146.499 77.9397 148.899 80.1197 151.169 82.3097C153.389 84.5597 155.489 86.8097 157.349 89.1597C161.129 93.8097 164.179 98.5897 166.639 103.24C169.109 107.88 171.009 112.37 172.499 116.52C175.489 124.84 176.799 131.79 177.549 136.55C177.749 137.74 177.879 138.8 177.989 139.72C178.109 140.64 178.209 141.41 178.259 142.03C178.379 143.28 178.449 143.93 178.449 143.93C178.449 143.93 178.469 144.17 178.519 144.65C178.549 145.12 178.609 145.83 178.669 146.75C178.799 148.6 178.929 151.33 178.919 154.85C178.929 161.88 178.189 172.07 175.089 184.27C172.049 196.46 166.579 210.53 158.279 224.94C150.019 239.37 138.999 254.08 126.029 268.17C113.049 282.27 98.2893 295.86 82.3993 308.12C66.5393 320.42 49.6393 331.45 32.7093 340.95C-1.16074 360.01 -34.9607 372.86 -60.4707 380.96C-79.7007 387.08 -96.7407 391.43 -111.731 394.79C-126.731 398.15 -139.701 400.55 -150.951 402.44C-162.201 404.34 -171.721 405.66 -179.951 406.82C-188.161 407.98 -195.021 408.94 -200.941 409.69C-209.911 410.84 -218.601 411.73 -227.101 412.05C-235.641 412.37 -243.951 412.46 -252.041 412.17C-268.221 411.6 -283.561 409.63 -298.011 406.4C-312.481 403.21 -326.071 398.81 -338.871 393.48C-345.261 390.79 -351.461 387.89 -357.491 384.78C-363.491 381.64 -369.321 378.29 -374.971 374.75L-375.011 374.81Z" fill="#9E4C00"/>
<path d="M-48.5625 195.62L119.557 280.43L87.0675 -73.2402L-48.5625 195.62Z" fill="#3A2C1F"/>
<path d="M203.62 253.049L35.5 168.239L67.98 521.909L203.62 253.049Z" fill="#9E4C00"/>
<path d="M122.458 284.699L-51.9219 196.729L88.7581 -82.1406L122.458 284.699ZM-45.2119 194.509L116.648 276.169L85.3681 -64.3306L-45.2119 194.509Z" fill="#3A2C1F"/>
<path d="M185.899 108.509C182.669 110.279 184.189 114.479 187.869 113.529C193.069 112.199 198.409 110.319 204.909 107.149C206.719 106.189 208.149 105.329 209.369 104.589C210.579 103.819 211.559 103.129 212.479 102.499C214.309 101.219 215.859 100.109 218.259 98.7595C222.289 96.4095 227.759 93.3195 232.549 90.4395C237.349 87.5695 241.499 84.9595 243.099 83.9695C243.569 83.6695 244.029 83.3495 244.459 82.9995C245.239 82.3595 246.679 81.1695 248.579 79.5995C250.449 77.9995 252.829 76.0595 255.379 73.7895C260.529 69.3095 266.569 63.7495 272.079 58.4995C274.009 56.6295 275.669 54.8495 277.199 53.2895C278.689 51.6895 280.039 50.2795 281.189 49.0095C283.509 46.4695 285.169 44.5595 286.299 43.2495C291.639 37.0295 295.039 31.8895 297.939 26.5895C299.519 23.6595 296.359 21.4095 294.069 23.7195C289.869 27.9195 285.869 32.3495 280.629 38.3495C278.589 40.6895 273.559 44.8395 267.039 51.1295C265.969 52.1495 264.969 53.2295 264.039 54.3795C260.009 59.3095 254.719 64.3695 250.379 68.0695C246.039 71.7895 242.689 74.1995 242.689 74.1995C242.689 74.1995 241.469 75.1295 239.499 76.6295C237.499 78.1195 234.759 80.1495 231.709 82.3095C225.639 86.6495 218.259 91.2995 213.749 93.8595C206.989 97.7495 203.599 99.3695 201.549 100.419C195.299 103.539 190.449 105.979 185.859 108.499L185.899 108.509Z" fill="#9E4C00"/>
<path d="M347.578 270.74H439.288L400.878 147.59L347.578 270.74Z" fill="#693200"/>
<path d="M-52.2811 124.569C-58.4411 124.119 -58.9111 127.439 -52.7911 128.589C-44.1111 130.179 -34.9211 131.459 -23.0511 132.419C-9.57111 133.259 -6.18111 132.689 2.93889 133.139C10.6489 133.439 21.0189 133.859 30.2489 134.059C39.4789 134.279 47.5789 134.299 50.7289 134.289C51.6589 134.289 52.5889 134.269 53.5189 134.209C56.8389 133.999 65.7989 133.469 77.0289 132.459C82.6489 131.959 88.8289 131.369 95.1689 130.669C101.489 129.939 107.969 129.189 114.199 128.459C131.729 126.319 142.629 124.839 148.319 123.899C161.749 121.749 171.759 118.949 181.019 115.059C186.099 112.849 184.989 110.149 179.829 111.649C170.359 114.259 160.659 116.289 147.429 118.349C142.289 119.199 131.419 119.869 116.099 121.589C113.609 121.879 111.119 122.239 108.659 122.669C98.0889 124.579 85.8889 126.029 76.2789 126.809C66.6889 127.619 59.7389 127.869 59.7389 127.869C59.7389 127.869 49.3789 128.449 36.8189 128.649C24.2589 128.879 9.50889 128.579 0.768887 128.189C-12.4011 127.639 -18.7311 127.089 -22.6211 126.809C-34.3911 125.899 -43.5511 125.159 -52.2911 124.559L-52.2811 124.569Z" fill="#9E4C00"/>
<mask id="mask1_287_63509" style="mask-type:luminance" maskUnits="userSpaceOnUse" x="236" y="-87" width="678" height="158">
<path d="M260.288 -86.1602L236.598 -45.9402L433.648 70.0998L903.488 54.9498L913.158 38.5398L701.348 -86.2002L260.288 -86.1602Z" fill="white"/>
</mask>
<g mask="url(#mask1_287_63509)">
<path d="M485.484 -187.268L484.316 -184.505L962.855 17.7363L964.023 14.973L485.484 -187.268Z" fill="#9E4C00"/>
<path d="M471.651 -161.857L470.457 -159.104L949.638 48.8516L950.832 46.0996L471.651 -161.857Z" fill="#9E4C00"/>
<path d="M250.736 -222.865L249.535 -220.116L936.459 79.9934L937.66 77.2443L250.736 -222.865Z" fill="#9E4C00"/>
<path d="M237.572 -191.725L236.371 -188.976L923.295 111.134L924.496 108.385L237.572 -191.725Z" fill="#9E4C00"/>
<path d="M224.416 -160.571L223.215 -157.822L910.139 142.287L911.34 139.538L224.416 -160.571Z" fill="#9E4C00"/>
<path d="M211.252 -129.421L210.051 -126.672L896.975 173.438L898.176 170.689L211.252 -129.421Z" fill="#9E4C00"/>
<path d="M198.084 -98.2715L196.883 -95.5225L883.807 204.587L885.008 201.838L198.084 -98.2715Z" fill="#9E4C00"/>
<path d="M196.753 -61.2218L195.555 -58.4717L870.676 235.78L871.875 233.03L196.753 -61.2218Z" fill="#9E4C00"/>
<path d="M968.567 -91.7328L817.566 255.048L820.317 256.246L971.317 -90.5351L968.567 -91.7328Z" fill="#9E4C00"/>
<path d="M937.411 -104.892L786.41 241.889L789.161 243.086L940.161 -103.694L937.411 -104.892Z" fill="#9E4C00"/>
<path d="M906.262 -118.055L755.262 228.726L758.012 229.923L909.013 -116.857L906.262 -118.055Z" fill="#9E4C00"/>
<path d="M875.098 -131.234L724.098 215.547L726.848 216.745L877.849 -130.036L875.098 -131.234Z" fill="#9E4C00"/>
<path d="M843.957 -144.397L692.957 202.384L695.708 203.581L846.708 -143.199L843.957 -144.397Z" fill="#9E4C00"/>
<path d="M812.793 -157.556L661.793 189.225L664.544 190.422L815.544 -156.358L812.793 -157.556Z" fill="#9E4C00"/>
<path d="M781.653 -170.73L630.652 176.051L633.403 177.248L784.403 -169.532L781.653 -170.73Z" fill="#9E4C00"/>
<path d="M750.489 -183.898L599.488 162.883L602.239 164.081L753.239 -182.7L750.489 -183.898Z" fill="#9E4C00"/>
<path d="M719.332 -197.053L568.332 149.728L571.083 150.925L722.083 -195.855L719.332 -197.053Z" fill="#9E4C00"/>
<path d="M688.184 -210.231L537.184 136.55L539.934 137.747L690.935 -209.033L688.184 -210.231Z" fill="#9E4C00"/>
<path d="M657.024 -223.399L506.023 123.382L508.774 124.58L659.774 -222.201L657.024 -223.399Z" fill="#9E4C00"/>
<path d="M625.868 -236.553L474.867 110.228L477.618 111.425L628.618 -235.355L625.868 -236.553Z" fill="#9E4C00"/>
<path d="M594.715 -249.732L443.715 97.0488L446.465 98.2465L597.466 -248.534L594.715 -249.732Z" fill="#9E4C00"/>
<path d="M563.563 -262.895L412.562 83.8857L415.313 85.0834L566.314 -261.697L563.563 -262.895Z" fill="#9E4C00"/>
<path d="M516.432 -251.176L383.965 67.9971L386.736 69.1471L519.202 -250.026L516.432 -251.176Z" fill="#9E4C00"/>
<path d="M433.236 -139.609L351.961 50.3867L354.719 51.5666L435.995 -138.429L433.236 -139.609Z" fill="#9E4C00"/>
<path d="M402.084 -152.775L320.809 37.2207L323.567 38.4006L404.842 -151.595L402.084 -152.775Z" fill="#9E4C00"/>
<path d="M370.92 -165.937L289.645 24.0596L292.403 25.2395L373.678 -164.757L370.92 -165.937Z" fill="#9E4C00"/>
<path d="M339.779 -179.103L258.504 10.8936L261.262 12.0735L342.538 -177.923L339.779 -179.103Z" fill="#9E4C00"/>
</g>
<mask id="mask2_287_63509" style="mask-type:luminance" maskUnits="userSpaceOnUse" x="245" y="91" width="240" height="325">
<path d="M346.499 415.42L245.559 91.6396H383.439L484.379 415.41H346.499V415.42Z" fill="white"/>
</mask>
<g mask="url(#mask2_287_63509)">
<path d="M118.656 -31.0456L117.488 -28.2822L596.027 173.959L597.195 171.196L118.656 -31.0456Z" fill="#693200"/>
<path d="M105.5 0.115554L104.332 2.87891L582.871 205.12L584.039 202.357L105.5 0.115554Z" fill="#693200"/>
<path d="M92.328 31.2728L91.1602 34.0361L569.699 236.277L570.867 233.514L92.328 31.2728Z" fill="#693200"/>
<path d="M79.1679 62.4212L78 65.1846L556.539 267.426L557.707 264.662L79.1679 62.4212Z" fill="#693200"/>
<path d="M65.9921 93.5784L64.8242 96.3418L543.363 298.583L544.531 295.82L65.9921 93.5784Z" fill="#693200"/>
<path d="M52.8319 124.73L51.6641 127.493L530.203 329.734L531.371 326.971L52.8319 124.73Z" fill="#693200"/>
<path d="M39.6679 155.887L38.5 158.65L517.039 360.892L518.207 358.128L39.6679 155.887Z" fill="#693200"/>
<path d="M26.496 187.035L25.3281 189.799L503.867 392.04L505.035 389.277L26.496 187.035Z" fill="#693200"/>
<path d="M13.3319 218.197L12.1641 220.96L490.703 423.201L491.871 420.438L13.3319 218.197Z" fill="#693200"/>
<path d="M0.17176 249.335L-0.996094 252.099L477.543 454.34L478.711 451.576L0.17176 249.335Z" fill="#693200"/>
<path d="M-13.0001 280.493L-14.168 283.256L464.371 485.497L465.539 482.734L-13.0001 280.493Z" fill="#693200"/>
<path d="M-26.1564 311.654L-27.3242 314.417L451.215 516.658L452.383 513.895L-26.1564 311.654Z" fill="#693200"/>
<path d="M573.999 119.687L371.758 598.226L374.521 599.393L576.762 120.854L573.999 119.687Z" fill="#693200"/>
<path d="M542.851 106.517L340.609 585.056L343.373 586.224L545.614 107.685L542.851 106.517Z" fill="#693200"/>
<path d="M511.694 93.3527L309.453 571.892L312.216 573.059L514.458 94.5205L511.694 93.3527Z" fill="#693200"/>
<path d="M480.546 80.1817L278.305 558.721L281.068 559.889L483.309 81.3496L480.546 80.1817Z" fill="#693200"/>
<path d="M449.382 67.0275L247.141 545.566L249.904 546.734L452.145 68.1953L449.382 67.0275Z" fill="#693200"/>
<path d="M418.245 53.8575L216.004 532.396L218.767 533.564L421.008 55.0254L418.245 53.8575Z" fill="#693200"/>
<path d="M387.089 40.6828L184.848 519.222L187.611 520.39L389.852 41.8506L387.089 40.6828Z" fill="#693200"/>
<path d="M355.925 27.5284L153.684 506.067L156.447 507.235L358.688 28.6963L355.925 27.5284Z" fill="#693200"/>
<path d="M324.78 14.3575L122.539 492.896L125.302 494.064L327.544 15.5254L324.78 14.3575Z" fill="#693200"/>
<path d="M293.62 1.18368L91.3789 479.723L94.1423 480.891L296.383 2.35154L293.62 1.18368Z" fill="#693200"/>
<path d="M262.468 -11.9667L60.2266 466.572L62.9899 467.74L265.231 -10.7989L262.468 -11.9667Z" fill="#693200"/>
</g>
<mask id="mask3_287_63509" style="mask-type:luminance" maskUnits="userSpaceOnUse" x="236" y="471" width="678" height="157">
<path d="M260.288 471.469L236.598 511.699L433.648 627.739L903.488 612.589L913.158 596.179L701.348 471.439L260.288 471.469Z" fill="white"/>
</mask>
<g mask="url(#mask3_287_63509)">
<path d="M534.687 308.067L533.52 310.83L1012.06 513.071L1013.23 510.308L534.687 308.067Z" fill="#9E4C00"/>
<path d="M521.527 339.219L520.359 341.982L998.898 544.224L1000.07 541.46L521.527 339.219Z" fill="#9E4C00"/>
<path d="M508.363 370.376L507.195 373.14L985.734 575.381L986.902 572.618L508.363 370.376Z" fill="#9E4C00"/>
<path d="M494.546 395.755L493.352 398.507L972.532 606.463L973.727 603.711L494.546 395.755Z" fill="#9E4C00"/>
<path d="M273.639 334.728L272.438 337.478L959.361 637.587L960.562 634.838L273.639 334.728Z" fill="#9E4C00"/>
<path d="M260.474 365.868L259.273 368.617L946.197 668.727L947.398 665.978L260.474 365.868Z" fill="#9E4C00"/>
<path d="M247.314 397.032L246.113 399.781L933.037 699.891L934.238 697.142L247.314 397.032Z" fill="#9E4C00"/>
<path d="M234.15 428.172L232.949 430.921L919.873 731.031L921.074 728.281L234.15 428.172Z" fill="#9E4C00"/>
<path d="M220.982 459.321L219.781 462.07L906.705 762.18L907.906 759.431L220.982 459.321Z" fill="#9E4C00"/>
<path d="M219.628 496.408L218.43 499.158L893.551 793.41L894.75 790.66L219.628 496.408Z" fill="#9E4C00"/>
<path d="M991.446 465.935L840.445 812.716L843.196 813.914L994.196 467.133L991.446 465.935Z" fill="#9E4C00"/>
<path d="M960.278 452.776L809.277 799.557L812.028 800.754L963.028 453.974L960.278 452.776Z" fill="#9E4C00"/>
<path d="M929.125 439.612L778.125 786.393L780.876 787.59L931.876 440.81L929.125 439.612Z" fill="#9E4C00"/>
<path d="M897.977 426.434L746.977 773.215L749.727 774.413L900.728 427.632L897.977 426.434Z" fill="#9E4C00"/>
<path d="M866.821 413.28L715.82 760.061L718.571 761.258L869.571 414.478L866.821 413.28Z" fill="#9E4C00"/>
<path d="M835.661 400.112L684.66 746.893L687.411 748.09L838.411 401.31L835.661 400.112Z" fill="#9E4C00"/>
<path d="M804.516 386.938L653.516 733.719L656.266 734.916L807.267 388.136L804.516 386.938Z" fill="#9E4C00"/>
<path d="M773.356 373.77L622.355 720.551L625.106 721.748L776.106 374.968L773.356 373.77Z" fill="#9E4C00"/>
<path d="M742.192 360.611L591.191 707.392L593.942 708.589L744.942 361.809L742.192 360.611Z" fill="#9E4C00"/>
<path d="M711.051 347.437L560.051 694.218L562.801 695.415L713.802 348.635L711.051 347.437Z" fill="#9E4C00"/>
<path d="M679.891 334.269L528.891 681.05L531.641 682.247L682.642 335.467L679.891 334.269Z" fill="#9E4C00"/>
<path d="M648.743 321.104L497.742 667.885L500.493 669.082L651.493 322.302L648.743 321.104Z" fill="#9E4C00"/>
<path d="M617.582 307.936L466.582 654.717L469.333 655.914L620.333 309.134L617.582 307.936Z" fill="#9E4C00"/>
<path d="M586.43 294.772L435.43 641.553L438.18 642.75L589.181 295.97L586.43 294.772Z" fill="#9E4C00"/>
<path d="M539.322 306.441L406.855 625.613L409.626 626.763L542.093 307.591L539.322 306.441Z" fill="#9E4C00"/>
<path d="M456.111 418.033L374.836 608.029L377.594 609.209L458.87 419.213L456.111 418.033Z" fill="#9E4C00"/>
<path d="M424.959 404.876L343.684 594.872L346.442 596.052L427.717 406.056L424.959 404.876Z" fill="#9E4C00"/>
<path d="M393.799 391.706L312.523 581.702L315.282 582.882L396.557 392.886L393.799 391.706Z" fill="#9E4C00"/>
<path d="M362.658 378.54L281.383 568.536L284.141 569.716L365.417 379.72L362.658 378.54Z" fill="#9E4C00"/>
<path d="M331.498 365.37L250.223 555.366L252.981 556.546L334.256 366.55L331.498 365.37Z" fill="#9E4C00"/>
<path d="M300.354 352.213L219.078 542.209L221.836 543.389L303.112 353.393L300.354 352.213Z" fill="#9E4C00"/>
<path d="M269.193 339.032L187.918 529.028L190.676 530.208L271.952 340.212L269.193 339.032Z" fill="#9E4C00"/>
</g>
<path d="M368.871 829.419H496.681L654.441 430.029H541.741L368.871 829.419Z" fill="#9E4C00"/>
<path d="M432.748 630.199L232.918 512.519L258.598 468.909L701.768 468.869L916.318 595.219L904.688 614.969L903.308 615.009L432.738 630.179L432.748 630.199ZM239.768 510.739L434.038 625.149L901.778 610.069L909.478 596.989L700.408 473.859L261.458 473.899L239.768 510.729V510.739Z" fill="#9E4C00"/>
<path d="M432.748 71.5097L232.918 -46.1703L258.598 -89.7803L701.768 -89.8203L916.318 36.5297L904.688 56.2897L903.308 56.3297L432.738 71.4997L432.748 71.5097ZM239.768 -47.9403L434.038 66.4697L901.778 51.3897L909.478 38.3097L700.408 -84.8203L261.458 -84.7803L239.768 -47.9503V-47.9403Z" fill="#9E4C00"/>
<path d="M923.051 196.179L1091.17 280.989L1058.69 -72.6807L923.051 196.179Z" fill="#3A2C1F"/>
<path d="M643.221 468.88H516.711V473.88H643.221V468.88Z" fill="#9E4C00"/>
<path d="M617.91 -89.8809L503.64 -89.8709L436.02 66.3691L557.74 62.4491L617.91 -89.8809Z" fill="#9E4C00"/>
<path d="M827.31 542.8L729.41 485.09L726.84 489.38L824.95 547.22L827.31 542.8Z" fill="#9E4C00"/>
<mask id="mask4_287_63509" style="mask-type:luminance" maskUnits="userSpaceOnUse" x="656" y="159" width="260" height="440">
<path d="M796.249 162.06L915.259 378.12L797.409 598.8H661.069L795.099 375.81L656.449 159.75C656.449 159.75 794.519 163.79 796.249 162.06Z" fill="white"/>
</mask>
<g mask="url(#mask4_287_63509)">
<path d="M923.018 130.66C939.228 132.26 955.488 133.24 971.738 133.58C971.738 133.58 977.018 133.88 985.468 134.12C993.918 134.36 1005.55 134.46 1018.23 134.07C1030.91 133.69 1044.62 132.8 1057.23 131.48C1069.84 130.18 1081.31 128.37 1089.59 126.92C1100.07 125.66 1110.58 124.47 1121.06 122.82C1131.53 121.18 1142.02 118.97 1152.14 115.5C1172.31 108.55 1191.3 98.3797 1208.58 85.9497C1208.58 85.9497 1211.28 83.9997 1215.41 80.7897C1219.58 77.5997 1225.12 73.0397 1230.78 67.8897C1236.45 62.7397 1242.22 56.9597 1247.05 51.5797C1251.89 46.1997 1255.86 41.2797 1258.19 38.0297C1264.03 29.9597 1267.07 24.2797 1267.29 22.7597C1267.4 21.9797 1266.75 22.2497 1265.27 23.7097C1263.8 25.1797 1261.45 27.8197 1258.04 31.7297C1254.63 35.6197 1250.12 40.7497 1244.12 47.0097C1241.12 50.1397 1237.75 53.5497 1233.92 57.1797C1230.1 60.8197 1225.84 64.7197 1221.04 68.7597C1220.52 69.0997 1218.9 70.2997 1218.61 70.3497C1217.33 71.4097 1216.07 72.4797 1214.78 73.5097L1210.89 76.5797C1208.24 78.6197 1205.6 80.6097 1202.93 82.5297C1197.59 86.3897 1192.1 89.9697 1186.46 93.2797C1175.2 99.8997 1163.27 105.35 1150.99 109.57C1138.75 113.76 1125.91 116 1112.7 117.76C1106.1 118.64 1099.42 119.43 1092.69 120.24C1085.97 121.07 1079.21 121.9 1072.4 122.74C1073.16 123.1 1071.39 123.65 1069.7 123.61H1069.72L1070.23 123C1052.23 125.59 1037.46 126.4 1023.1 126.91C1008.73 127.39 994.758 127.55 978.098 127.99C978.158 127.99 981.888 127.38 981.978 127.37C967.758 127.04 952.908 126.22 937.628 124.75C929.998 124.01 922.218 123.14 914.418 122.07C910.618 121.53 906.858 120.81 903.248 119.77C899.638 118.73 896.188 117.31 893.228 115.42C890.228 113.55 887.968 111.07 886.628 108.19C885.258 105.26 885.028 102.02 885.808 98.7097C886.578 95.4197 888.318 92.1797 890.658 89.4597C892.958 86.7797 896.038 84.4597 899.388 82.5497C902.758 80.6297 906.478 79.0797 910.348 77.6397C914.238 76.2097 918.258 74.8497 922.258 73.5597C930.278 70.9697 938.438 68.6597 946.678 66.6297C963.158 62.5897 980.008 59.6997 996.908 58.0297C1005.36 57.1997 1013.82 56.6597 1022.26 56.4297C1030.7 56.2097 1039.11 56.2397 1047.4 56.7097C1055.69 57.1797 1063.88 58.0597 1071.84 59.6097C1079.79 61.1697 1087.52 63.3597 1094.8 66.3497L1096.17 66.8997L1097.5 67.5097L1100.16 68.7397C1101.92 69.5697 1103.6 70.5497 1105.32 71.4397C1106.97 72.4497 1108.63 73.4197 1110.24 74.4697L1112.59 76.1097C1113.38 76.6497 1114.16 77.1897 1114.9 77.7997C1117.93 80.0997 1120.74 82.6397 1123.36 85.3397C1125.97 88.0397 1128.42 90.8797 1130.61 93.8897L1130.32 93.3597L1130.54 93.5297C1129.04 91.1997 1125.84 86.8297 1121.2 82.2297C1118.9 79.9197 1116.24 77.5597 1113.29 75.3897C1111.81 74.3097 1110.35 73.1697 1108.76 72.1997L1106.41 70.6897C1105.63 70.1897 1104.8 69.7697 1104 69.3097C1097.58 65.6597 1090.96 63.0597 1086 61.4097C1084.75 61.0097 1083.61 60.6497 1082.61 60.3397C1081.61 60.0197 1080.71 59.8097 1079.99 59.6097C1078.54 59.2197 1077.71 58.9997 1077.71 58.9997C1082.73 59.8397 1087.76 61.1397 1092.75 62.7897C1097.72 64.4997 1102.6 66.6997 1107.3 69.3297C1108.45 70.0297 1109.61 70.7297 1110.76 71.4297C1111.92 72.1297 1112.99 72.9597 1114.12 73.7297L1115.79 74.9097L1117.39 76.1797C1118.47 77.0097 1119.49 77.9197 1120.52 78.8297C1124.61 82.4697 1128.32 86.5797 1131.58 91.0497C1138.12 99.9697 1142.92 110.18 1146.02 120.78C1147.59 126.08 1148.76 131.47 1149.54 136.89C1150.35 142.3 1150.78 147.74 1150.87 153.13L1150.15 152.84C1150 143.56 1148.58 134.85 1146.73 127.86C1144.91 120.84 1142.65 115.54 1141.27 112.57C1144.32 120.22 1146.86 129.23 1148.15 139.22C1148.79 144.21 1149.13 149.44 1149.12 154.82C1149.07 160.2 1148.7 165.74 1147.85 171.34C1146.16 182.56 1142.84 194.1 1138.09 205.31C1133.35 216.53 1127.23 227.47 1120.2 237.8C1113.18 248.14 1105.3 257.89 1097.06 266.94C1092.93 271.46 1088.74 275.84 1084.51 280.03C1080.27 284.21 1076.01 288.21 1071.77 292.03C1054.78 307.3 1038.04 319.42 1024.55 328.37C1025.42 328.14 1029.91 325.06 1034.74 321.76C1039.57 318.45 1044.73 314.88 1047.3 314.06C1033.94 323.97 1020.08 333.18 1006.4 340.92C1005.85 339.95 1013.85 335.75 1015.26 334.61C1012.27 336.2 1002.31 342.12 986.718 349.87C971.138 357.62 949.838 367.06 924.538 375.72C911.898 380.06 898.268 384.22 883.948 388C869.628 391.79 854.598 395.18 839.198 398.13C823.778 401.1 808.038 403.58 792.158 405.75C776.258 407.94 760.488 410.4 745.108 411.05C737.358 411.34 729.638 411.48 722.108 411.28C714.558 411.08 707.148 410.57 699.908 409.76C692.678 408.95 685.628 407.86 678.818 406.51C672.018 405.12 665.458 403.53 659.178 401.73C646.638 398.1 635.238 393.71 625.248 389.13C615.258 384.53 606.638 379.79 599.488 375.48C592.348 371.15 586.648 367.3 582.458 364.37C578.268 361.45 575.558 359.5 574.438 358.88C573.318 358.26 573.808 358.95 576.148 361.15C578.508 363.32 582.718 367.01 589.378 371.94C588.338 371.48 587.318 370.98 586.278 370.5C600.208 380.47 613.888 388.27 628.288 394.92C642.698 401.54 657.868 407.07 675.298 411.39C680.278 412.36 680.848 412.51 680.938 411.94C682.278 412.1 684.508 412.36 683.978 412C683.838 411.25 686.488 411.47 689.778 411.97C693.068 412.41 697.028 413.1 699.468 413.33C697.868 414.23 703.948 415.73 714.328 416.57C719.518 417 725.778 417.23 732.628 417.15C739.468 417.06 746.938 416.82 754.548 416.09C762.158 415.37 769.858 414.25 777.268 413.11C784.668 411.91 791.808 410.76 798.238 409.72C811.118 407.64 821.148 405.69 824.988 405.07C826.668 405.87 834.208 404.58 842.448 402.81C850.698 401.06 859.618 398.8 864.268 398.18C863.638 398.4 859.678 399.8 859.168 399.99C861.298 399.85 871.308 397.7 884.358 394.11C897.418 390.55 913.468 385.44 927.848 380.12C942.248 374.85 954.958 369.4 961.888 366.44C968.798 363.45 970.058 363.19 961.278 367.74C980.288 360.18 1000.77 350.5 1021.55 338.08C1042.31 325.67 1063.39 310.49 1083.18 292.17C1093.07 283.01 1102.66 273.13 1111.66 262.38C1120.64 251.63 1128.99 240.01 1136.08 227.41C1143.16 214.82 1148.96 201.22 1152.59 186.88C1154.41 179.72 1155.69 172.37 1156.28 164.92C1156.83 157.48 1156.77 149.97 1155.96 142.54C1154.4 127.67 1150.08 112.99 1142.79 99.8297C1140.96 96.5397 1138.93 93.3697 1136.76 90.3097C1134.55 87.2597 1132.16 84.3597 1129.62 81.5797C1127.04 78.8397 1124.31 76.2497 1121.43 73.8397C1119.95 72.6897 1118.51 71.4697 1116.96 70.4297C1115.42 69.3697 1113.93 68.2297 1112.31 67.2897C1099.65 59.2997 1085.39 54.6897 1071.24 52.0997C1057.04 49.5097 1042.82 48.8397 1028.96 48.9197C1001.2 49.0497 974.388 52.3797 949.488 57.9097C937.038 60.6697 925.058 63.9997 913.638 67.7297C907.968 69.5997 902.228 71.4997 896.698 74.2897C893.948 75.6997 891.248 77.3097 888.758 79.2597C887.498 80.2097 886.328 81.2797 885.158 82.4197C884.038 83.5897 882.958 84.7797 882.018 86.0897C882.398 85.7297 882.748 85.3397 883.138 85.0097C882.598 85.6197 881.638 86.9697 880.778 88.3397C879.938 89.7197 879.218 91.1297 878.818 91.6397C877.878 94.0297 877.008 97.0797 876.798 100.64C876.738 102.42 876.798 104.32 877.198 106.27C877.598 108.22 878.258 110.13 879.168 111.98C880.998 115.7 883.988 118.9 887.288 121.2C890.598 123.53 894.188 125.11 897.628 126.27C904.538 128.56 911.018 129.38 915.588 129.9C920.138 130.4 922.988 130.72 922.988 130.72L923.018 130.66ZM1153.86 156.07C1153.89 156.22 1153.97 156.27 1154 156.17C1153.97 156.18 1153.95 156.55 1153.92 157.18C1153.89 157.81 1153.85 158.71 1153.8 159.79C1153.72 161.95 1153.5 164.82 1153.21 167.7C1152.61 173.48 1151.44 179.27 1151.31 179.71L1150.65 179.41C1151.49 173.76 1152.61 166.28 1153.03 158.9C1153.26 155.22 1153.36 151.57 1153.36 148.22C1153.32 144.87 1153.24 141.83 1153.09 139.35C1152.81 134.4 1152.58 131.72 1153.06 133.42C1153.29 134.27 1153.66 136.23 1154.03 139.57C1154.39 142.91 1154.72 147.64 1154.54 153.98C1154.73 155.68 1154.12 155.71 1153.88 156.05L1153.86 156.07ZM1046.32 318.67C1043.1 320.92 1039.58 323.34 1035.64 325.93C1046.12 318.15 1057.32 309.49 1068.55 299.84C1079.78 290.2 1091.01 279.55 1101.58 268.05C1112.13 256.54 1121.95 244.08 1130.02 230.86C1138.11 217.68 1144.37 203.7 1148.04 189.86C1147.77 192.32 1147.19 195.15 1146.4 198.27C1145.57 201.38 1144.5 204.76 1143.16 208.3C1140.46 215.37 1136.7 223.04 1132.25 230.47C1127.81 237.9 1122.7 245.1 1117.65 251.54C1112.6 257.98 1107.6 263.66 1103.45 268.24C1095.43 277.76 1085.75 287.37 1075.73 296.03C1065.72 304.71 1055.37 312.4 1046.33 318.68L1046.32 318.67ZM729.248 415.81L729.118 416.18H727.288C727.228 416.07 727.518 415.96 727.898 415.92C728.198 415.85 728.818 415.78 729.248 415.81ZM895.758 123.22C895.278 123.08 894.638 122.86 893.908 122.59C893.188 122.28 892.388 121.88 891.568 121.47C890.758 121.01 889.948 120.49 889.178 119.99C888.438 119.42 887.738 118.87 887.148 118.36C886.048 117.23 885.308 116.41 885.428 116.2C885.508 116.02 886.328 116.6 888.418 117.96C889.368 118.83 891.458 120.2 893.268 121.12C894.148 121.64 894.958 122.03 895.448 122.39C895.938 122.74 896.118 123.04 895.768 123.22H895.758ZM995.858 349.01C996.138 349.53 992.078 352.07 987.808 354.23C983.538 356.4 979.058 358.14 978.698 357.42C984.568 354.58 990.288 351.83 995.868 349.01H995.858ZM1037.9 130.98C1042.85 129.42 1041.5 130.89 1043.24 131.55C1041.95 131.48 1037.34 131.7 1038.29 131.06L1037.9 130.98ZM1126.55 119.81C1127.72 118.99 1132.55 117.63 1134.84 117.07C1137.86 116.58 1136.53 117.35 1134.05 118.15C1131.58 118.99 1127.96 119.83 1126.55 119.81ZM1250.4 45.3597C1250.04 44.7497 1252.19 41.9997 1253.33 41.7097C1253.49 42.3297 1250.94 45.7897 1249.94 45.6797C1249.99 45.6797 1250.15 45.5897 1250.4 45.3597ZM913.668 380.76C915.788 379 921.098 377.16 926.918 375.19C932.748 373.24 939.098 371.16 943.338 369.2C942.748 370.53 938.408 372.35 933.368 374.12C928.338 375.89 922.608 377.57 919.298 378.86C916.938 379.66 915.098 380.28 913.668 380.77V380.76ZM982.838 57.6897C983.068 58.5797 978.318 59.2997 972.748 60.1597C967.178 60.9997 960.768 61.9897 957.658 62.8697L957.608 62.1497C962.298 61.0697 966.048 60.1797 969.858 59.4597C973.668 58.7297 977.528 58.1297 982.448 57.7497L982.848 57.6897H982.838ZM1068.14 296.38C1069.3 294.93 1071.11 293.29 1073.01 291.73C1074.88 290.13 1076.84 288.62 1078.18 287.33C1078.52 287.73 1075.79 290.64 1073.06 293.12C1070.32 295.59 1067.59 297.6 1068.11 296.39C1068.12 296.38 1068.13 296.38 1068.13 296.38H1068.14ZM1149.85 162.99C1150.43 162.64 1150.48 164.41 1150.27 166.54C1150.08 168.68 1149.65 171.16 1149.52 172.27C1149.53 171.47 1149.46 170.33 1149.39 169.16C1149.34 168 1149.29 166.81 1149.38 165.89C1149.52 164.62 1149.68 164.29 1149.84 162.98L1149.85 162.99ZM989.798 56.0897C997.198 55.1797 1005.32 54.5197 1013.06 54.1397L1012.84 54.8697C1004.99 55.2897 997.278 55.9297 989.688 56.8297L989.808 56.0997L989.798 56.0897ZM1065.34 56.9897L1065.22 57.6897C1059.82 57.2197 1056.83 56.7097 1056.68 56.3497C1056.6 56.1797 1057.23 56.0897 1058.62 56.1397C1059.31 56.1697 1060.2 56.2297 1061.27 56.3497C1062.34 56.4997 1063.61 56.6897 1065.07 56.9597L1065.34 56.9997V56.9897ZM896.298 82.2797C897.208 81.7097 898.738 80.8997 899.658 80.3997C902.998 78.6297 904.508 78.2297 904.728 78.3297C904.958 78.4397 903.968 79.1097 902.638 79.9097C901.288 80.7097 899.638 81.6797 898.378 82.2897C897.118 82.8897 896.208 83.1197 896.298 82.2797ZM925.148 124.58C926.698 124.65 928.788 124.69 930.468 124.89C941.478 126.12 929.098 126.6 925.148 124.58Z" fill="#9E4C00"/>
</g>
<mask id="mask5_287_63509" style="mask-type:luminance" maskUnits="userSpaceOnUse" x="656" y="159" width="260" height="440">
<path d="M796.249 162.06L915.259 378.12L797.409 598.8H661.069L795.099 375.81L656.449 159.75C656.449 159.75 794.519 163.79 796.249 162.06Z" fill="white"/>
</mask>
<g mask="url(#mask5_287_63509)">
<path d="M664.439 217.53L665.779 216.54C665.779 216.54 668.099 217.49 669.029 215.73L672.519 216.38C672.519 216.38 673.979 215.89 674.419 214.79C674.689 214.11 674.869 213.3 674.909 212.55C674.989 211.04 674.489 209.79 673.089 210.33C673.069 210.24 673.019 210.15 673.009 210.02C671.519 211.13 670.089 209.23 668.579 209.47C668.599 209.91 668.549 210.26 668.499 210.03L668.519 209.48C667.509 210.59 666.879 208.81 665.959 210.71C665.959 210.7 666.069 209.97 666.069 209.98C662.909 210.35 658.629 209.63 655.209 210.54L655.229 210.62V210.7C655.539 211.25 657.059 212.04 657.059 212.05C655.919 214.73 654.629 211.96 653.409 212.09V211.38C653.939 211.4 654.409 211.07 654.589 210.77C652.709 209.81 648.929 209.67 647.129 210.79C647.179 211.33 647.729 210.14 647.879 211.89C647.419 211.91 646.959 212.17 646.519 212.15C646.519 211 646.769 211.39 646.819 211.18C646.069 209.93 630.759 208.75 634.409 213.59L634.319 214.18C635.259 214.43 636.049 214.64 637.029 215.77C637.169 215.68 637.189 215.79 637.179 215.2C637.219 215.11 637.279 214.94 637.259 214.69C637.249 213.26 637.549 213.82 637.689 213.78C637.529 218.26 640.739 214.2 641.169 214.37C641.249 216.5 642.009 214.44 642.269 215.34C642.249 215.42 642.139 215.89 642.119 215.98C642.349 217.34 646.149 213.53 645.069 216.17C649.559 220.63 657.699 215.15 662.559 219.02L662.519 218.76C662.559 218.84 662.679 218.72 662.709 219.02C663.189 218.15 664.449 217.51 664.449 217.51L664.439 217.53ZM653.309 215.08C653.309 215.08 653.309 215.19 653.309 215.22C653.309 215 652.689 215.14 652.659 215.09V214.38C653.289 213.01 654.749 217.83 653.369 215.74C653.319 215.91 653.319 215.32 653.309 215.08ZM647.769 215.05C647.659 214.98 647.539 214.92 647.409 214.87C648.849 212.62 650.789 215.38 652.359 214.33C651.819 217.5 650.539 215.82 649.859 215.65C649.179 216.38 648.369 215.51 647.759 215.04L647.769 215.05ZM638.509 214.59V214.96H638.459C638.459 214.86 638.459 214.74 638.479 214.7C638.479 214.62 638.509 214.56 638.519 214.59H638.509ZM663.679 215.86C663.569 216.44 663.169 216.11 663.439 214.98C663.509 215.17 663.709 214.63 663.679 215.86ZM646.149 214.21C646.149 215.38 645.619 215.62 645.619 214C645.799 213.97 645.979 214.09 646.149 214.21ZM667.609 214.62C667.749 213.37 667.709 214.77 667.759 215.54C667.719 215.37 667.599 215.3 667.619 214.73V214.62H667.609ZM670.069 213.86C670.109 213.25 670.239 212.86 670.309 212.84C670.479 213.3 670.149 214.41 670.069 213.86ZM674.129 213.73C674.129 213.04 674.229 212.81 674.259 213.49C674.249 214 674.129 214.4 674.119 213.6C674.119 213.63 674.119 213.69 674.129 213.72V213.73ZM643.709 211.71C643.849 209.66 644.329 211.33 644.589 210.77C644.529 212.81 644.069 211.31 643.869 211.66C643.799 211.66 643.749 211.67 643.709 211.71ZM659.689 212.1C659.689 210.29 660.219 211.73 660.399 211.32V212.03C660.129 212.22 659.969 212.68 659.699 212.09H659.689V212.1ZM648.629 211.08C648.729 210.36 648.899 211.04 649.009 211.03C649.009 212.05 648.569 212.22 648.629 211.07V211.08ZM653.119 211.33C653.139 212.45 652.919 211.9 652.859 212.01C652.899 211.78 652.989 211.09 653.039 211.1C653.079 211.12 653.089 211.24 653.119 211.33ZM659.499 212.8C659.289 212.83 659.069 212.8 658.849 212.77V212.06C659.079 212.06 659.289 212.08 659.499 212.09V212.8ZM657.389 211.7V210.99C657.689 210.31 657.729 212.13 657.389 211.7ZM662.209 211.95C662.209 211.95 662.129 211.86 662.099 211.86C661.669 211.95 662.269 209.34 662.209 211.95ZM664.479 211.24C664.519 211.13 664.579 210.93 664.629 210.95C664.939 211.03 664.599 212.76 664.479 211.24Z" fill="#9E4C00"/>
<path d="M588.879 176.441C585.749 176.791 585.749 180.141 588.879 180.491C593.319 180.991 597.989 181.251 603.989 181.271C610.789 181.111 612.479 180.421 617.089 180.501C624.869 180.501 638.009 181.431 641.169 181.661C641.639 181.691 642.109 181.701 642.579 181.691C645.929 181.561 660.639 181.061 673.299 181.301C682.239 181.291 687.779 181.281 690.669 181.281C697.499 181.251 702.599 180.911 707.609 180.281C710.359 179.931 710.359 177.021 707.609 176.671C702.599 176.031 697.499 175.691 690.669 175.671C688.019 175.671 682.489 174.871 674.689 174.731C673.419 174.711 672.149 174.761 670.889 174.891C660.009 175.981 645.879 175.671 645.879 175.671C645.879 175.671 624.799 175.661 615.899 175.651C609.199 175.651 605.979 175.661 603.999 175.671C597.999 175.691 593.329 175.961 588.889 176.461L588.879 176.441Z" fill="#9E4C00"/>
<path d="M609.418 222.821C606.288 223.171 606.288 226.521 609.418 226.871C613.858 227.371 618.528 227.631 624.528 227.651C631.328 227.491 633.018 226.801 637.628 226.881C645.408 226.881 658.548 227.811 661.708 228.041C662.178 228.071 662.648 228.081 663.118 228.071C666.468 227.941 681.178 227.441 693.838 227.681C702.778 227.681 708.318 227.661 711.208 227.661C718.038 227.631 723.138 227.291 728.148 226.661C730.898 226.311 730.898 223.401 728.148 223.051C723.138 222.411 718.038 222.071 711.208 222.051C708.558 222.051 703.028 221.251 695.228 221.111C693.958 221.091 692.688 221.141 691.428 221.271C680.548 222.361 666.418 222.051 666.418 222.051C666.418 222.051 645.338 222.041 636.438 222.031C629.738 222.031 626.518 222.041 624.538 222.051C618.538 222.071 613.868 222.341 609.428 222.841L609.418 222.821Z" fill="#9E4C00"/>
</g>
<mask id="mask6_287_63509" style="mask-type:luminance" maskUnits="userSpaceOnUse" x="-49" y="-74" width="169" height="355">
<path d="M-48.5625 195.62L119.557 280.43L87.0675 -73.2402L-48.5625 195.62Z" fill="white"/>
</mask>
<g mask="url(#mask6_287_63509)">
<path d="M-52.2811 124.569C-58.4411 124.119 -58.9111 127.439 -52.7911 128.589C-44.1111 130.179 -34.9211 131.459 -23.0511 132.419C-9.57111 133.259 -6.18111 132.689 2.93889 133.139C10.6489 133.439 21.0189 133.859 30.2489 134.059C39.4789 134.279 47.5789 134.299 50.7289 134.289C51.6589 134.289 52.5889 134.269 53.5189 134.209C56.8389 133.999 65.7989 133.469 77.0289 132.459C82.6489 131.959 88.8289 131.369 95.1689 130.669C101.489 129.939 107.969 129.189 114.199 128.459C131.729 126.319 142.629 124.839 148.319 123.899C161.749 121.749 171.759 118.949 181.019 115.059C186.099 112.849 184.989 110.149 179.829 111.649C170.359 114.259 160.659 116.289 147.429 118.349C142.289 119.199 131.419 119.869 116.099 121.589C113.609 121.879 111.119 122.239 108.659 122.669C98.0889 124.579 85.8889 126.029 76.2789 126.809C66.6889 127.619 59.7389 127.869 59.7389 127.869C59.7389 127.869 49.3789 128.449 36.8189 128.649C24.2589 128.879 9.50889 128.579 0.768887 128.189C-12.4011 127.639 -18.7311 127.089 -22.6211 126.809C-34.3911 125.899 -43.5511 125.159 -52.2911 124.559L-52.2811 124.569Z" fill="#9E4C00"/>
</g>
</g>
<defs>
<clipPath id="clip0_287_63509">
<rect width="960" height="540" fill="white"/>
</clipPath>
</defs>
</svg>
