<svg width="960" height="540" viewBox="0 0 960 540" fill="none" xmlns="http://www.w3.org/2000/svg">
<g clip-path="url(#clip0_287_36778)">
<path d="M609.98 540H673.23L670.01 526.3L609.98 540Z" fill="#123263"/>
<path d="M210.767 54.0404C221.167 57.8804 231.067 53.2604 239.697 37.8304C239.517 37.6504 239.337 37.4604 239.167 37.2804C235.127 33.1904 231.327 30.2704 227.837 28.3904C224.347 26.5204 221.187 25.6904 218.307 25.6904C214.927 25.6904 211.827 26.8004 208.787 29.0804C206.467 30.8304 204.707 32.8504 203.277 35.2304C201.847 37.6104 200.757 40.3604 199.867 43.5004C199.687 44.1204 199.527 44.7704 199.367 45.4204C202.467 49.3504 206.047 52.3004 210.757 54.0304L210.767 54.0404Z" fill="#123263"/>
<path d="M682.07 285.12C682.07 298.05 682.78 310.27 683.91 321.58L683.97 321.19L685.3 330.13C686.95 316.52 688.06 301.38 688.06 285.12C688.06 268.86 686.85 252.43 685.08 238.38L685.03 238.73C683.28 252.68 682.08 268.3 682.08 285.12H682.07Z" fill="#123263"/>
<path d="M195.729 40.01C196.589 37.38 197.639 34.92 199.009 32.66C200.729 29.79 202.949 27.23 205.789 25.1C206.999 24.18 208.269 23.41 209.589 22.77C208.899 22.62 208.389 22.06 208.389 21.37C208.389 20.58 209.089 19.94 209.939 19.94C210.789 19.94 211.489 20.58 211.489 21.37C211.489 21.6 211.429 21.81 211.319 22C213.549 21.15 215.889 20.68 218.319 20.69C222.169 20.69 226.159 21.81 230.219 23.99C234.279 26.17 238.429 29.41 242.739 33.76C245.859 36.92 249.069 40.66 252.359 45.03C253.419 46.44 254.259 47.9 255.059 49.27C255.389 49.84 255.709 50.39 256.039 50.93L288.649 26.34L293.859 22.41C293.659 22.17 293.529 21.87 293.529 21.54C293.529 20.75 294.229 20.11 295.079 20.11C295.549 20.11 295.959 20.31 296.239 20.61L301.459 16.67C298.899 12.44 295.079 7.36 290.179 0.87C289.959 0.58 289.729 0.29 289.509 0H175.699C180.199 6.88 183.699 14.24 186.799 21.85C189.999 28.8 192.719 34.92 195.719 40.01H195.729ZM273.829 0.42C274.689 0.42 275.379 1.06 275.379 1.85C275.379 2.64 274.679 3.28 273.829 3.28C272.969 3.28 272.279 2.64 272.279 1.85C272.279 1.06 272.979 0.42 273.829 0.42ZM273.789 20.07C274.649 20.07 275.339 20.71 275.339 21.5C275.339 22.29 274.639 22.93 273.789 22.93C272.929 22.93 272.239 22.29 272.239 21.5C272.239 20.71 272.939 20.07 273.789 20.07ZM252.539 0.38C253.399 0.38 254.089 1.02 254.089 1.81C254.089 2.6 253.389 3.24 252.539 3.24C251.679 3.24 250.989 2.6 250.989 1.81C250.989 1.02 251.689 0.38 252.539 0.38ZM252.499 20.02C253.359 20.02 254.049 20.66 254.049 21.45C254.049 22.24 253.349 22.88 252.499 22.88C251.639 22.88 250.949 22.24 250.949 21.45C250.949 20.66 251.649 20.02 252.499 20.02ZM252.459 39.67C253.319 39.67 254.009 40.31 254.009 41.1C254.009 41.89 253.309 42.53 252.459 42.53C251.609 42.53 250.909 41.89 250.909 41.1C250.909 40.31 251.609 39.67 252.459 39.67ZM231.259 0.33C232.119 0.33 232.809 0.97 232.809 1.76C232.809 2.55 232.109 3.19 231.259 3.19C230.399 3.19 229.709 2.55 229.709 1.76C229.709 0.97 230.409 0.33 231.259 0.33ZM231.219 19.98C232.079 19.98 232.769 20.62 232.769 21.41C232.769 22.2 232.069 22.84 231.219 22.84C230.369 22.84 229.669 22.2 229.669 21.41C229.669 20.62 230.369 19.98 231.219 19.98ZM209.969 0.29C210.829 0.29 211.519 0.93 211.519 1.72C211.519 2.51 210.819 3.15 209.969 3.15C209.109 3.15 208.419 2.51 208.419 1.72C208.419 0.93 209.119 0.29 209.969 0.29ZM188.689 0.25C189.549 0.25 190.239 0.89 190.239 1.68C190.239 2.47 189.539 3.11 188.689 3.11C187.829 3.11 187.139 2.47 187.139 1.68C187.139 0.89 187.839 0.25 188.689 0.25ZM188.649 19.89C189.509 19.89 190.199 20.53 190.199 21.32C190.199 22.11 189.499 22.75 188.649 22.75C187.799 22.75 187.099 22.11 187.099 21.32C187.099 20.53 187.799 19.89 188.649 19.89Z" fill="#123263"/>
<path d="M171.5 479.83L77.7305 540H276.41L173.73 478.29L171.5 479.83Z" fill="#123263"/>
<path d="M954.89 220.3H908.6H905.75L884.37 273.69H801.26L913.67 17.53H955.24L959.99 6.7V0H847.5V90.04H749.79V51.35H657.83V110.37H598.81V51.35H657.83V0H452.72L471.95 34.92L446.33 82.89L541.02 78.91L543.55 139L413.6 144.47L413.44 144.48L402.56 164.86H322.29L401.2 33.57L379.68 0H295.79C300.63 6.44 304.39 11.52 306.93 16.13L307.97 18.03L292.94 29.37L307.13 34.6C305.72 40.73 303.27 47.36 300.3 55.43C275.14 123.66 232.41 144.55 188.38 128.31C183.02 126.34 178.23 124.1 173.9 121.66C173.78 121.79 173.67 121.92 173.56 122.05C169.59 126.47 164.9 130.79 159.36 134.96C145.29 145.58 129.74 151.35 113.49 151.34C99.44 151.34 84.94 147.03 70.51 138.09C56.07 129.14 41.68 115.58 27.66 96.99C22.49 90.13 18.17 84.42 14.93 78.76L13.84 76.85L29.02 65.4L14.37 60C15.52 54.59 17.96 47.95 21.2 39.17C26.9 23.69 33.59 10.68 41.02 0H0V183.95L126.38 210.91L111.67 279.87L127.44 285.62L101.91 355.6L0 318.43V540H31.2C31.26 537.82 31.31 535.57 31.37 533.26C31.8 515.72 32.24 495.46 32.24 484.72C32.24 481.76 32.21 479.5 32.14 478.34C32.12 477.96 32.09 477.69 32.08 477.68C32.04 477.5 32.02 477.31 32.02 477.12C32.02 476.67 32.13 476.2 32.38 475.77C32.62 475.34 32.99 474.97 33.44 474.73L103.18 436.32L97.96 433.22L165.35 396.1L170.85 399.04L171.57 398.64L237.86 434.04L237.22 434.48L305.39 470.88V539.99H371.02L398.36 534.29C398.36 534.29 398.34 534.26 398.33 534.25H398.35C395.53 530.37 392.92 526.23 390.54 521.8C383.83 509.32 379.87 496.58 378.78 483.93C376.53 457.88 386.48 433.62 407.53 413.77C415.83 405.95 425.75 398.91 437.01 392.85C447.82 387.04 458.82 382.81 469.69 380.27C497.79 373.72 523.49 378.84 544.02 395.07C554.01 402.97 562.47 413.29 569.18 425.77C575.8 438.09 579.71 450.72 580.78 463.3C581.78 475.02 580.32 486.38 576.51 497.13H576.54C576.54 497.13 576.53 497.16 576.52 497.17L659.11 479.97L651.67 448.32L716.2 490.38L688.09 539.99H809.89L849.83 447.71V447.7L807.25 311.14H893.72L900.95 334.31H958.67L926.41 415.98L949.51 490.05H897.15L877.42 540H959.97V207.54L954.86 220.29L954.89 220.3ZM362.27 348.79H288.38V322.03H218.84V364.16H174.21V319.53H216.34V202.86H335.51V274.9H362.27V348.79ZM531.55 310.21L494.72 337.47L469.68 305.06L444.63 337.47L407.43 310.21L431.74 278.9L396.01 267.11L410.74 225.12L446.1 236.91V201.92H492.88V236.91L528.61 225.12L543.34 267.11L507.24 278.9L531.55 310.21ZM761.16 364.77C754.88 399.93 746.7 422.27 746.14 423.76L687.72 403.6L683.97 404.9L683.89 404.87L619.99 426.92L619.14 424.64C618.54 423.04 610.28 400.56 604 365.21C600.05 342.94 596.85 315.67 596.85 285.13C596.85 254.58 600.05 227.27 604 205.04C610.31 169.69 618.54 147.22 619.14 145.61L619.99 143.33L683.89 165.38L683.96 165.35L687.72 166.65L746.14 146.49C746.7 147.98 754.92 170.32 761.16 205.48C765.09 227.63 768.27 254.75 768.27 285.13C768.27 315.51 765.09 342.66 761.16 364.78V364.77Z" fill="#123263"/>
<path d="M429.11 479.64C428.21 469.19 432.49 459.65 442.19 450.48C444.38 448.41 446.82 446.4 449.47 444.47C446.81 446.41 444.36 448.42 442.16 450.5C432.45 459.66 428.17 469.18 429.07 479.62C429.57 485.38 431.56 491.54 435 497.93C436.69 501.07 438.53 503.88 440.5 506.35C438.55 503.89 436.73 501.1 435.05 497.99C431.61 491.58 429.61 485.41 429.11 479.65V479.64Z" fill="#123263"/>
<path d="M134.441 73.4003C131.481 67.0003 128.931 61.2903 126.191 56.4503C125.861 57.3603 125.511 58.2503 125.131 59.1203C125.781 59.2903 126.261 59.8403 126.261 60.5003C126.261 61.2903 125.561 61.9303 124.711 61.9303C124.391 61.9303 124.101 61.8403 123.861 61.6903C123.581 62.2003 123.301 62.7103 122.991 63.2003C121.301 65.8903 119.161 68.2903 116.471 70.3203C114.601 71.7303 112.601 72.8403 110.501 73.5903C108.401 74.3403 106.191 74.7303 103.931 74.7303C99.9706 74.7303 95.8706 73.5503 91.7006 71.2503C87.5206 68.9403 83.2406 65.5203 78.8006 60.9103C75.9106 57.9103 72.9506 54.4103 69.9106 50.3903L65.3206 44.3003L33.3106 68.4403L20.3906 78.1803C23.2806 82.8903 27.0806 87.9503 31.6506 94.0003C45.3806 112.21 59.3706 125.32 73.1406 133.86C75.6906 135.44 78.2406 136.86 80.7706 138.13C81.0506 137.8 81.4906 137.58 81.9806 137.58C82.8406 137.58 83.5306 138.22 83.5306 139.01C83.5306 139.15 83.5006 139.29 83.4606 139.42C93.6806 144.13 103.731 146.35 113.491 146.36C124.171 146.36 134.541 143.67 144.451 138.52C144.701 138.04 145.231 137.71 145.841 137.71C145.881 137.71 145.921 137.71 145.961 137.72C149.481 135.79 152.951 133.54 156.341 130.98C160.761 127.65 164.581 124.24 167.901 120.78C167.681 120.89 167.431 120.96 167.161 120.96C166.301 120.96 165.611 120.32 165.611 119.53C165.611 118.74 166.311 118.1 167.161 118.1C168.021 118.1 168.711 118.74 168.711 119.53C168.711 119.71 168.671 119.88 168.601 120.04C168.921 119.7 169.231 119.36 169.541 119.02C150.781 106.9 141.761 90.3803 134.431 73.4003H134.441ZM39.4806 101.05C38.6206 101.05 37.9306 100.41 37.9306 99.6203C37.9306 98.8303 38.6306 98.1903 39.4806 98.1903C40.3406 98.1903 41.0306 98.8303 41.0306 99.6203C41.0306 100.41 40.3306 101.05 39.4806 101.05ZM39.5206 81.4003C38.6606 81.4003 37.9706 80.7603 37.9706 79.9703C37.9706 79.1803 38.6706 78.5403 39.5206 78.5403C40.3806 78.5403 41.0706 79.1803 41.0706 79.9703C41.0706 80.7603 40.3706 81.4003 39.5206 81.4003ZM60.7306 120.74C59.8706 120.74 59.1806 120.1 59.1806 119.31C59.1806 118.52 59.8806 117.88 60.7306 117.88C61.5806 117.88 62.2806 118.52 62.2806 119.31C62.2806 120.1 61.5806 120.74 60.7306 120.74ZM60.7706 101.09C59.9106 101.09 59.2206 100.45 59.2206 99.6603C59.2206 98.8703 59.9206 98.2303 60.7706 98.2303C61.6306 98.2303 62.3206 98.8703 62.3206 99.6603C62.3206 100.45 61.6206 101.09 60.7706 101.09ZM60.8106 81.4403C59.9506 81.4403 59.2606 80.8003 59.2606 80.0103C59.2606 79.2203 59.9606 78.5803 60.8106 78.5803C61.6706 78.5803 62.3606 79.2203 62.3606 80.0103C62.3606 80.8003 61.6606 81.4403 60.8106 81.4403ZM60.8506 61.8003C59.9906 61.8003 59.3006 61.1603 59.3006 60.3703C59.3006 59.5803 60.0006 58.9403 60.8506 58.9403C61.7106 58.9403 62.4006 59.5803 62.4006 60.3703C62.4006 61.1603 61.7006 61.8003 60.8506 61.8003ZM82.0206 120.78C81.1606 120.78 80.4706 120.14 80.4706 119.35C80.4706 118.56 81.1706 117.92 82.0206 117.92C82.8806 117.92 83.5706 118.56 83.5706 119.35C83.5706 120.14 82.8706 120.78 82.0206 120.78ZM82.0606 101.13C81.2006 101.13 80.5106 100.49 80.5106 99.7003C80.5106 98.9103 81.2106 98.2703 82.0606 98.2703C82.9206 98.2703 83.6106 98.9103 83.6106 99.7003C83.6106 100.49 82.9106 101.13 82.0606 101.13ZM82.0906 81.4903C81.2306 81.4903 80.5406 80.8503 80.5406 80.0603C80.5406 79.2703 81.2406 78.6303 82.0906 78.6303C82.9506 78.6303 83.6406 79.2703 83.6406 80.0603C83.6406 80.8503 82.9406 81.4903 82.0906 81.4903ZM103.261 140.47C102.401 140.47 101.711 139.83 101.711 139.04C101.711 138.25 102.411 137.61 103.261 137.61C104.121 137.61 104.811 138.25 104.811 139.04C104.811 139.83 104.111 140.47 103.261 140.47ZM103.301 120.82C102.441 120.82 101.751 120.18 101.751 119.39C101.751 118.6 102.451 117.96 103.301 117.96C104.151 117.96 104.851 118.6 104.851 119.39C104.851 120.18 104.151 120.82 103.301 120.82ZM103.341 101.18C102.481 101.18 101.791 100.54 101.791 99.7503C101.791 98.9603 102.491 98.3203 103.341 98.3203C104.201 98.3203 104.891 98.9603 104.891 99.7503C104.891 100.54 104.191 101.18 103.341 101.18ZM103.381 81.5303C102.521 81.5303 101.831 80.8903 101.831 80.1003C101.831 79.3103 102.531 78.6703 103.381 78.6703C104.241 78.6703 104.931 79.3103 104.931 80.1003C104.931 80.8903 104.231 81.5303 103.381 81.5303ZM124.551 140.51C123.691 140.51 123.001 139.87 123.001 139.08C123.001 138.29 123.701 137.65 124.551 137.65C125.401 137.65 126.101 138.29 126.101 139.08C126.101 139.87 125.401 140.51 124.551 140.51ZM124.591 120.87C123.731 120.87 123.041 120.23 123.041 119.44C123.041 118.65 123.741 118.01 124.591 118.01C125.451 118.01 126.141 118.65 126.141 119.44C126.141 120.23 125.441 120.87 124.591 120.87ZM124.631 101.22C123.771 101.22 123.081 100.58 123.081 99.7903C123.081 99.0003 123.781 98.3603 124.631 98.3603C125.491 98.3603 126.181 99.0003 126.181 99.7903C126.181 100.58 125.481 101.22 124.631 101.22ZM124.671 81.5703C123.811 81.5703 123.121 80.9303 123.121 80.1403C123.121 79.3503 123.821 78.7103 124.671 78.7103C125.531 78.7103 126.221 79.3503 126.221 80.1403C126.221 80.9303 125.521 81.5703 124.671 81.5703ZM145.871 120.91C145.011 120.91 144.321 120.27 144.321 119.48C144.321 118.69 145.021 118.05 145.871 118.05C146.721 118.05 147.421 118.69 147.421 119.48C147.421 120.27 146.721 120.91 145.871 120.91ZM145.911 101.26C145.051 101.26 144.361 100.62 144.361 99.8303C144.361 99.0403 145.061 98.4003 145.911 98.4003C146.771 98.4003 147.461 99.0403 147.461 99.8303C147.461 100.62 146.761 101.26 145.911 101.26Z" fill="#123263"/>
<path d="M94.1094 66.8702C97.7194 68.8602 100.969 69.7302 103.919 69.7302C105.619 69.7302 107.229 69.4402 108.809 68.8802C110.389 68.3202 111.929 67.4702 113.449 66.3202C115.649 64.6602 117.349 62.7502 118.749 60.5302C120.139 58.3102 121.229 55.7602 122.109 52.8602C122.299 52.2302 122.479 51.5702 122.659 50.9002C119.389 46.4302 115.589 43.1002 110.469 41.2102C100.199 37.4202 90.4094 41.9102 81.8594 56.8602C82.0394 57.0502 82.2094 57.2502 82.3894 57.4302C86.5794 61.7802 90.5094 64.8802 94.1094 66.8702Z" fill="#123263"/>
<path d="M237.22 434.49L173.73 478.29L276.41 540H305.39V470.89L237.22 434.49Z" fill="#1C2B42"/>
<path d="M165.339 396.101L97.9492 433.221L103.159 436.321L170.839 399.041L165.339 396.101Z" fill="#1C2B42"/>
<path d="M749.788 0H657.828V51.35H749.788V0Z" fill="#1C2B42"/>
<path d="M951.512 215.3L960.002 194.1V92.0503L910.602 215.3H951.512ZM924.462 212.5C923.602 212.5 922.912 211.86 922.912 211.07C922.912 210.28 923.612 209.64 924.462 209.64C925.312 209.64 926.012 210.28 926.012 211.07C926.012 211.86 925.312 212.5 924.462 212.5ZM945.912 131.08C946.772 131.08 947.462 131.72 947.462 132.51C947.462 133.3 946.762 133.94 945.912 133.94C945.062 133.94 944.362 133.3 944.362 132.51C944.362 131.72 945.062 131.08 945.912 131.08ZM945.882 150.73C946.742 150.73 947.432 151.37 947.432 152.16C947.432 152.95 946.732 153.59 945.882 153.59C945.032 153.59 944.332 152.95 944.332 152.16C944.332 151.37 945.032 150.73 945.882 150.73ZM945.842 170.38C946.702 170.38 947.392 171.02 947.392 171.81C947.392 172.6 946.692 173.24 945.842 173.24C944.982 173.24 944.292 172.6 944.292 171.81C944.292 171.02 944.992 170.38 945.842 170.38ZM945.802 190.03C946.662 190.03 947.352 190.67 947.352 191.46C947.352 192.25 946.652 192.89 945.802 192.89C944.952 192.89 944.252 192.25 944.252 191.46C944.252 190.67 944.952 190.03 945.802 190.03ZM945.762 209.68C946.622 209.68 947.312 210.32 947.312 211.11C947.312 211.9 946.612 212.54 945.762 212.54C944.912 212.54 944.212 211.9 944.212 211.11C944.212 210.32 944.912 209.68 945.762 209.68ZM924.512 189.98C925.372 189.98 926.062 190.62 926.062 191.41C926.062 192.2 925.362 192.84 924.512 192.84C923.652 192.84 922.962 192.2 922.962 191.41C922.962 190.62 923.662 189.98 924.512 189.98Z" fill="#123263"/>
<path d="M960 17.5302V6.7002L955.25 17.5302H960Z" fill="#1C2B42"/>
<path d="M910.602 215.3L908.602 220.3H954.892L960.002 207.54V194.09L951.512 215.3H910.602Z" fill="#1C2B42"/>
<path d="M924.499 192.85C925.359 192.85 926.049 192.21 926.049 191.42C926.049 190.63 925.359 189.99 924.499 189.99C923.639 189.99 922.949 190.63 922.949 191.42C922.949 192.21 923.639 192.85 924.499 192.85Z" fill="#1C2B42"/>
<path d="M924.472 209.63C923.612 209.63 922.922 210.27 922.922 211.06C922.922 211.85 923.612 212.49 924.472 212.49C925.332 212.49 926.022 211.85 926.022 211.06C926.022 210.27 925.332 209.63 924.472 209.63Z" fill="#1C2B42"/>
<path d="M945.909 133.95C946.769 133.95 947.459 133.31 947.459 132.52C947.459 131.73 946.769 131.09 945.909 131.09C945.049 131.09 944.359 131.73 944.359 132.52C944.359 133.31 945.049 133.95 945.909 133.95Z" fill="#1C2B42"/>
<path d="M945.87 153.6C946.73 153.6 947.42 152.96 947.42 152.17C947.42 151.38 946.73 150.74 945.87 150.74C945.01 150.74 944.32 151.38 944.32 152.17C944.32 152.96 945.01 153.6 945.87 153.6Z" fill="#1C2B42"/>
<path d="M945.831 173.24C946.691 173.24 947.381 172.6 947.381 171.81C947.381 171.02 946.691 170.38 945.831 170.38C944.971 170.38 944.281 171.02 944.281 171.81C944.281 172.6 944.971 173.24 945.831 173.24Z" fill="#1C2B42"/>
<path d="M945.792 192.89C946.652 192.89 947.342 192.25 947.342 191.46C947.342 190.67 946.652 190.03 945.792 190.03C944.932 190.03 944.242 190.67 944.242 191.46C944.242 192.25 944.932 192.89 945.792 192.89Z" fill="#1C2B42"/>
<path d="M945.749 212.54C946.609 212.54 947.299 211.9 947.299 211.11C947.299 210.32 946.609 209.68 945.749 209.68C944.889 209.68 944.199 210.32 944.199 211.11C944.199 211.9 944.889 212.54 945.749 212.54Z" fill="#1C2B42"/>
<path d="M399.03 535.19C398.89 535.01 398.75 534.83 398.62 534.64C398.54 534.53 398.45 534.41 398.36 534.3L371.02 540H402.88C402.25 539.26 401.63 538.51 401.02 537.75C400.35 536.91 399.68 536.06 399.04 535.19H399.03Z" fill="#1C2B42"/>
<path d="M666.852 512.82L659.122 480H659.142V479.98L576.552 497.18C571.882 510.35 563.692 522.61 552.122 533.54C549.762 535.77 547.272 537.91 544.672 539.99H610.002L670.032 526.29L666.862 512.82H666.852Z" fill="#1C2B42"/>
<path d="M651.688 448.33L659.128 479.99V480L678.008 476.04L688.838 522L670.018 526.3L666.847 512.82L670.008 526.3L673.227 540H688.097L716.217 490.39L651.688 448.33Z" fill="#1C2B42"/>
<path d="M897.17 490.05H863.06H863.05L849.85 447.72L809.91 540H877.45L897.18 490.05H897.17Z" fill="#1C2B42"/>
<path d="M958.689 334.32H900.969L926.439 415.98L958.689 334.32Z" fill="#1C2B42"/>
<path d="M746.143 146.48L687.722 166.64L700.403 171.02L699.463 173.42L699.443 173.47L699.372 173.66C699.312 173.83 699.222 174.08 699.112 174.4C698.892 175.05 698.572 176.01 698.182 177.25C697.392 179.74 696.293 183.37 695.033 188.02C692.523 197.31 689.383 210.63 686.833 226.86C686.763 227.33 686.643 228.02 686.523 228.72C686.403 229.41 686.292 230.1 686.232 230.51L685.062 238.38C686.822 252.43 688.042 268.17 688.042 285.12C688.042 302.07 686.923 316.52 685.283 330.13L686.432 337.87C686.482 338.22 686.512 338.56 686.542 339C686.572 339.43 686.603 339.93 686.633 340.43C686.693 341.44 686.752 342.52 686.802 343.09C686.812 343.25 686.833 343.37 686.833 343.38C691.573 373.57 698.353 393.7 699.343 396.51C699.403 396.67 699.433 396.77 699.443 396.79L700.393 399.21L687.703 403.59L746.122 423.75C746.682 422.26 754.863 399.92 761.143 364.76C765.073 342.65 768.253 315.49 768.253 285.11C768.253 254.73 765.073 227.61 761.143 205.46C754.903 170.3 746.682 147.96 746.122 146.47L746.143 146.48Z" fill="#1C2B42"/>
<path d="M127.44 285.63L111.67 279.88L110.91 283.42L0 259.76V318.43L101.91 355.61L127.44 285.63Z" fill="#1C2B42"/>
<path d="M528.598 225.13L492.878 236.92V201.92H446.098V236.92L410.738 225.13L396.008 267.12L431.738 278.9L407.428 310.21L444.628 337.47L469.668 305.05L494.718 337.47L531.548 310.21L507.238 278.9L543.338 267.12L528.598 225.13Z" fill="#1C2B42"/>
<path d="M749.801 90.04H847.511V0H808.971V51.35H808.821H749.951V0H749.801V51.35V90.04Z" fill="#1C2B42"/>
<path d="M657.833 51.3506H598.812V110.371H657.833V51.3506Z" fill="#1C2B42"/>
<path d="M131.1 30.8202V30.8702L131.09 30.9202C129.84 39.8502 128.92 47.6102 126.89 54.3102C126.67 55.0302 126.43 55.7402 126.18 56.4402C128.92 61.2802 131.47 66.9902 134.43 73.3902C141.76 90.3702 150.77 106.89 169.54 119.01C169.63 118.91 169.73 118.8 169.83 118.7C177.46 110.21 182.22 101.4 185.38 92.3402C186.6 88.8202 187.58 85.2702 188.38 81.6802C187.59 81.6102 186.97 81.0002 186.98 80.2602C186.98 79.4702 187.68 78.8302 188.53 78.8302C188.68 78.8302 188.83 78.8602 188.97 78.9002C189.92 74.1502 190.59 69.3602 191.15 64.5302V64.5102V64.4702C192.35 56.0202 193.24 48.6102 195.06 42.1402C195.26 41.4102 195.49 40.7102 195.72 40.0002C192.72 34.9202 189.99 28.8002 186.8 21.8402C183.69 14.2302 180.2 6.86023 175.7 -0.00976562H137.78C137.38 0.990234 137.01 1.99023 136.66 2.99023C133.52 11.9502 132.02 21.2402 131.11 30.8102L131.1 30.8202ZM188.61 39.5402C189.47 39.5402 190.16 40.1802 190.16 40.9702C190.16 41.7602 189.46 42.4002 188.61 42.4002C187.76 42.4002 187.06 41.7602 187.06 40.9702C187.06 40.1802 187.76 39.5402 188.61 39.5402ZM188.57 59.1902C189.43 59.1902 190.12 59.8302 190.12 60.6202C190.12 61.4102 189.42 62.0502 188.57 62.0502C187.71 62.0502 187.02 61.4102 187.02 60.6202C187.02 59.8302 187.72 59.1902 188.57 59.1902ZM167.4 0.200234C168.26 0.200234 168.95 0.840234 168.95 1.63023C168.95 2.42023 168.25 3.06023 167.4 3.06023C166.54 3.06023 165.85 2.42023 165.85 1.63023C165.85 0.840234 166.55 0.200234 167.4 0.200234ZM167.36 19.8502C168.22 19.8502 168.91 20.4902 168.91 21.2802C168.91 22.0702 168.21 22.7102 167.36 22.7102C166.5 22.7102 165.81 22.0702 165.81 21.2802C165.81 20.4902 166.51 19.8502 167.36 19.8502ZM167.32 39.5002C168.18 39.5002 168.87 40.1402 168.87 40.9302C168.87 41.7202 168.17 42.3602 167.32 42.3602C166.46 42.3602 165.77 41.7202 165.77 40.9302C165.77 40.1402 166.47 39.5002 167.32 39.5002ZM167.28 59.1502C168.14 59.1502 168.83 59.7902 168.83 60.5802C168.83 61.3702 168.13 62.0102 167.28 62.0102C166.43 62.0102 165.73 61.3702 165.73 60.5802C165.73 59.7902 166.43 59.1502 167.28 59.1502ZM167.24 78.7902C168.1 78.7902 168.79 79.4302 168.79 80.2202C168.79 81.0102 168.09 81.6502 167.24 81.6502C166.39 81.6502 165.69 81.0102 165.69 80.2202C165.69 79.4302 166.39 78.7902 167.24 78.7902ZM167.2 98.4402C168.06 98.4402 168.75 99.0802 168.75 99.8702C168.75 100.66 168.05 101.3 167.2 101.3C166.35 101.3 165.65 100.66 165.65 99.8702C165.65 99.0802 166.35 98.4402 167.2 98.4402ZM146.12 0.160234C146.98 0.160234 147.67 0.800234 147.67 1.59023C147.67 2.38023 146.97 3.02023 146.12 3.02023C145.26 3.02023 144.57 2.38023 144.57 1.59023C144.57 0.800234 145.27 0.160234 146.12 0.160234ZM146.08 19.8102C146.94 19.8102 147.63 20.4502 147.63 21.2402C147.63 22.0302 146.93 22.6702 146.08 22.6702C145.23 22.6702 144.53 22.0302 144.53 21.2402C144.53 20.4502 145.23 19.8102 146.08 19.8102ZM146.04 39.4602C146.9 39.4602 147.59 40.1002 147.59 40.8902C147.59 41.6802 146.89 42.3202 146.04 42.3202C145.19 42.3202 144.49 41.6802 144.49 40.8902C144.49 40.1002 145.19 39.4602 146.04 39.4602ZM146 59.1002C146.86 59.1002 147.55 59.7402 147.55 60.5302C147.55 61.3202 146.85 61.9602 146 61.9602C145.14 61.9602 144.45 61.3202 144.45 60.5302C144.45 59.7402 145.15 59.1002 146 59.1002ZM145.96 78.7502C146.82 78.7502 147.51 79.3902 147.51 80.1802C147.51 80.9702 146.81 81.6102 145.96 81.6102C145.1 81.6102 144.41 80.9702 144.41 80.1802C144.41 79.3902 145.11 78.7502 145.96 78.7502Z" fill="#1C2B42"/>
<path d="M21.1894 39.1702C17.9494 47.9502 15.5094 54.5802 14.3594 60.0002L29.0094 65.4002L30.2894 64.4302L66.2894 37.2802L73.8894 47.3602C76.6394 51.0002 79.2894 54.1502 81.8494 56.8602C90.3994 41.9102 100.189 37.4202 110.459 41.2102C115.579 43.1002 119.369 46.4302 122.649 50.9002C124.139 45.2002 125.019 38.3002 126.129 30.2802C127.059 20.5302 128.599 10.8402 131.929 1.34023C132.089 0.890234 132.249 0.440234 132.419 -0.00976562H41.0194C33.5794 10.6702 26.8994 23.6802 21.1894 39.1602V39.1702Z" fill="#1C2B42"/>
<path d="M254.917 58.0301L253.407 56.0301C252.347 54.6201 251.507 53.1601 250.707 51.7901C249.907 50.4201 249.157 49.1301 248.337 48.0501C245.347 44.0801 242.457 40.6901 239.687 37.8301C231.057 53.2601 221.157 57.8801 210.757 54.0401C206.047 52.3001 202.467 49.3501 199.367 45.4301C198.007 50.9601 197.167 57.5601 196.097 65.1501C194.997 74.7201 193.417 84.4101 190.077 93.9901C186.787 103.44 181.767 112.77 173.867 121.66C178.197 124.1 182.987 126.33 188.347 128.31C232.377 144.55 275.107 123.66 300.267 55.4301C303.237 47.3601 305.687 40.7301 307.097 34.6001L292.907 29.3701L291.627 30.3401L254.907 58.0301H254.917Z" fill="#1C2B42"/>
<path d="M146.03 42.32C146.89 42.32 147.58 41.68 147.58 40.89C147.58 40.1 146.89 39.46 146.03 39.46C145.17 39.46 144.48 40.1 144.48 40.89C144.48 41.68 145.17 42.32 146.03 42.32Z" fill="#1C2B42"/>
<path d="M167.32 42.36C168.18 42.36 168.87 41.72 168.87 40.93C168.87 40.14 168.18 39.5 167.32 39.5C166.46 39.5 165.77 40.14 165.77 40.93C165.77 41.72 166.46 42.36 167.32 42.36Z" fill="#1C2B42"/>
<path d="M39.5305 78.54C38.6705 78.54 37.9805 79.18 37.9805 79.97C37.9805 80.76 38.6705 81.4 39.5305 81.4C40.3905 81.4 41.0805 80.76 41.0805 79.97C41.0805 79.18 40.3905 78.54 39.5305 78.54Z" fill="#1C2B42"/>
<path d="M39.4875 98.1802C38.6275 98.1802 37.9375 98.8202 37.9375 99.6102C37.9375 100.4 38.6275 101.04 39.4875 101.04C40.3475 101.04 41.0375 100.4 41.0375 99.6102C41.0375 98.8202 40.3475 98.1802 39.4875 98.1802Z" fill="#1C2B42"/>
<path d="M60.8508 58.9302C59.9908 58.9302 59.3008 59.5702 59.3008 60.3602C59.3008 61.1502 59.9908 61.7902 60.8508 61.7902C61.7108 61.7902 62.4008 61.1502 62.4008 60.3602C62.4008 59.5702 61.7108 58.9302 60.8508 58.9302Z" fill="#1C2B42"/>
<path d="M60.8078 78.5801C59.9478 78.5801 59.2578 79.2201 59.2578 80.0101C59.2578 80.8001 59.9478 81.4401 60.8078 81.4401C61.6678 81.4401 62.3578 80.8001 62.3578 80.0101C62.3578 79.2201 61.6678 78.5801 60.8078 78.5801Z" fill="#1C2B42"/>
<path d="M60.7805 98.2305C59.9205 98.2305 59.2305 98.8705 59.2305 99.6605C59.2305 100.45 59.9205 101.09 60.7805 101.09C61.6405 101.09 62.3305 100.45 62.3305 99.6605C62.3305 98.8705 61.6405 98.2305 60.7805 98.2305Z" fill="#1C2B42"/>
<path d="M60.7375 117.88C59.8775 117.88 59.1875 118.52 59.1875 119.31C59.1875 120.1 59.8775 120.74 60.7375 120.74C61.5975 120.74 62.2875 120.1 62.2875 119.31C62.2875 118.52 61.5975 117.88 60.7375 117.88Z" fill="#1C2B42"/>
<path d="M82.1008 78.6201C81.2408 78.6201 80.5508 79.2601 80.5508 80.0501C80.5508 80.8401 81.2408 81.4801 82.1008 81.4801C82.9608 81.4801 83.6508 80.8401 83.6508 80.0501C83.6508 79.2601 82.9608 78.6201 82.1008 78.6201Z" fill="#1C2B42"/>
<path d="M82.0578 98.2705C81.1978 98.2705 80.5078 98.9105 80.5078 99.7005C80.5078 100.491 81.1978 101.131 82.0578 101.131C82.9178 101.131 83.6078 100.491 83.6078 99.7005C83.6078 98.9105 82.9178 98.2705 82.0578 98.2705Z" fill="#1C2B42"/>
<path d="M82.0187 117.92C81.1587 117.92 80.4688 118.56 80.4688 119.35C80.4688 120.14 81.1587 120.78 82.0187 120.78C82.8787 120.78 83.5687 120.14 83.5687 119.35C83.5687 118.56 82.8787 117.92 82.0187 117.92Z" fill="#1C2B42"/>
<path d="M81.9795 137.57C81.4895 137.57 81.0495 137.79 80.7695 138.12C81.6695 138.57 82.5595 139 83.4595 139.41C83.4995 139.28 83.5295 139.15 83.5295 139C83.5295 138.21 82.8395 137.57 81.9795 137.57Z" fill="#1C2B42"/>
<path d="M103.39 78.6699C102.53 78.6699 101.84 79.3099 101.84 80.0999C101.84 80.8899 102.53 81.5299 103.39 81.5299C104.25 81.5299 104.94 80.8899 104.94 80.0999C104.94 79.3099 104.25 78.6699 103.39 78.6699Z" fill="#1C2B42"/>
<path d="M103.351 98.3105C102.491 98.3105 101.801 98.9505 101.801 99.7405C101.801 100.531 102.491 101.171 103.351 101.171C104.211 101.171 104.901 100.531 104.901 99.7405C104.901 98.9505 104.211 98.3105 103.351 98.3105Z" fill="#1C2B42"/>
<path d="M103.308 117.96C102.448 117.96 101.758 118.6 101.758 119.39C101.758 120.18 102.448 120.82 103.308 120.82C104.168 120.82 104.858 120.18 104.858 119.39C104.858 118.6 104.168 117.96 103.308 117.96Z" fill="#1C2B42"/>
<path d="M103.269 137.61C102.409 137.61 101.719 138.25 101.719 139.04C101.719 139.83 102.409 140.47 103.269 140.47C104.129 140.47 104.819 139.83 104.819 139.04C104.819 138.25 104.129 137.61 103.269 137.61Z" fill="#1C2B42"/>
<path d="M126.262 60.5001C126.262 59.8401 125.782 59.2901 125.132 59.1201C124.742 60.0001 124.312 60.8501 123.852 61.6801C124.092 61.8301 124.392 61.9201 124.702 61.9201C125.562 61.9201 126.252 61.2801 126.252 60.4901L126.262 60.5001Z" fill="#1C2B42"/>
<path d="M124.667 78.71C123.807 78.71 123.117 79.35 123.117 80.14C123.117 80.93 123.807 81.57 124.667 81.57C125.527 81.57 126.217 80.93 126.217 80.14C126.217 79.35 125.527 78.71 124.667 78.71Z" fill="#1C2B42"/>
<path d="M124.628 98.3604C123.768 98.3604 123.078 99.0004 123.078 99.7904C123.078 100.58 123.768 101.22 124.628 101.22C125.488 101.22 126.178 100.58 126.178 99.7904C126.178 99.0004 125.488 98.3604 124.628 98.3604Z" fill="#1C2B42"/>
<path d="M124.589 118C123.729 118 123.039 118.64 123.039 119.43C123.039 120.22 123.729 120.86 124.589 120.86C125.449 120.86 126.139 120.22 126.139 119.43C126.139 118.64 125.449 118 124.589 118Z" fill="#1C2B42"/>
<path d="M124.55 137.65C123.69 137.65 123 138.29 123 139.08C123 139.87 123.69 140.51 124.55 140.51C125.41 140.51 126.1 139.87 126.1 139.08C126.1 138.29 125.41 137.65 124.55 137.65Z" fill="#1C2B42"/>
<path d="M146.113 3.02016C146.973 3.02016 147.663 2.38016 147.663 1.59016C147.663 0.800156 146.973 0.160156 146.113 0.160156C145.253 0.160156 144.562 0.800156 144.562 1.59016C144.562 2.38016 145.253 3.02016 146.113 3.02016Z" fill="#1C2B42"/>
<path d="M146.07 22.6705C146.93 22.6705 147.62 22.0305 147.62 21.2405C147.62 20.4505 146.93 19.8105 146.07 19.8105C145.21 19.8105 144.52 20.4505 144.52 21.2405C144.52 22.0305 145.21 22.6705 146.07 22.6705Z" fill="#1C2B42"/>
<path d="M145.988 61.9704C146.848 61.9704 147.537 61.3304 147.537 60.5404C147.537 59.7504 146.848 59.1104 145.988 59.1104C145.128 59.1104 144.438 59.7504 144.438 60.5404C144.438 61.3304 145.128 61.9704 145.988 61.9704Z" fill="#1C2B42"/>
<path d="M145.948 81.61C146.808 81.61 147.498 80.97 147.498 80.18C147.498 79.39 146.808 78.75 145.948 78.75C145.088 78.75 144.398 79.39 144.398 80.18C144.398 80.97 145.088 81.61 145.948 81.61Z" fill="#1C2B42"/>
<path d="M145.917 98.4004C145.057 98.4004 144.367 99.0404 144.367 99.8304C144.367 100.62 145.057 101.26 145.917 101.26C146.777 101.26 147.467 100.62 147.467 99.8304C147.467 99.0404 146.777 98.4004 145.917 98.4004Z" fill="#1C2B42"/>
<path d="M145.878 118.05C145.018 118.05 144.328 118.69 144.328 119.48C144.328 120.27 145.018 120.91 145.878 120.91C146.738 120.91 147.428 120.27 147.428 119.48C147.428 118.69 146.738 118.05 145.878 118.05Z" fill="#1C2B42"/>
<path d="M144.438 138.5C144.938 138.24 145.447 137.98 145.947 137.7C145.907 137.7 145.867 137.69 145.827 137.69C145.217 137.69 144.688 138.02 144.438 138.5Z" fill="#1C2B42"/>
<path d="M167.402 3.06996C168.262 3.06996 168.952 2.42996 168.952 1.63996C168.952 0.849961 168.262 0.209961 167.402 0.209961C166.542 0.209961 165.852 0.849961 165.852 1.63996C165.852 2.42996 166.542 3.06996 167.402 3.06996Z" fill="#1C2B42"/>
<path d="M167.363 22.7106C168.223 22.7106 168.913 22.0706 168.913 21.2806C168.913 20.4906 168.223 19.8506 167.363 19.8506C166.503 19.8506 165.812 20.4906 165.812 21.2806C165.812 22.0706 166.503 22.7106 167.363 22.7106Z" fill="#1C2B42"/>
<path d="M167.28 62.0104C168.14 62.0104 168.83 61.3704 168.83 60.5804C168.83 59.7904 168.14 59.1504 167.28 59.1504C166.42 59.1504 165.73 59.7904 165.73 60.5804C165.73 61.3704 166.42 62.0104 167.28 62.0104Z" fill="#1C2B42"/>
<path d="M167.238 81.6603C168.098 81.6603 168.787 81.0203 168.787 80.2303C168.787 79.4403 168.098 78.8003 167.238 78.8003C166.378 78.8003 165.688 79.4403 165.688 80.2303C165.688 81.0203 166.378 81.6603 167.238 81.6603Z" fill="#1C2B42"/>
<path d="M167.198 101.3C168.058 101.3 168.748 100.66 168.748 99.8704C168.748 99.0804 168.058 98.4404 167.198 98.4404C166.338 98.4404 165.648 99.0804 165.648 99.8704C165.648 100.66 166.338 101.3 167.198 101.3Z" fill="#1C2B42"/>
<path d="M167.159 118.09C166.299 118.09 165.609 118.73 165.609 119.52C165.609 120.31 166.299 120.95 167.159 120.95C167.429 120.95 167.679 120.88 167.899 120.77C168.139 120.52 168.369 120.28 168.599 120.03C168.669 119.87 168.709 119.7 168.709 119.52C168.709 118.73 168.019 118.09 167.159 118.09Z" fill="#1C2B42"/>
<path d="M188.601 42.4C189.461 42.4 190.151 41.76 190.151 40.97C190.151 40.18 189.461 39.54 188.601 39.54C187.741 39.54 187.051 40.18 187.051 40.97C187.051 41.76 187.741 42.4 188.601 42.4Z" fill="#1C2B42"/>
<path d="M252.46 42.5299C253.32 42.5299 254.01 41.8899 254.01 41.0999C254.01 40.3099 253.32 39.6699 252.46 39.6699C251.6 39.6699 250.91 40.3099 250.91 41.0999C250.91 41.8899 251.6 42.5299 252.46 42.5299Z" fill="#1C2B42"/>
<path d="M188.683 3.11C189.543 3.11 190.233 2.47 190.233 1.68C190.233 0.89 189.543 0.25 188.683 0.25C187.823 0.25 187.133 0.89 187.133 1.68C187.133 2.47 187.823 3.11 188.683 3.11Z" fill="#1C2B42"/>
<path d="M188.64 22.7604C189.5 22.7604 190.19 22.1204 190.19 21.3304C190.19 20.5404 189.5 19.9004 188.64 19.9004C187.78 19.9004 187.09 20.5404 187.09 21.3304C187.09 22.1204 187.78 22.7604 188.64 22.7604Z" fill="#1C2B42"/>
<path d="M188.558 62.0504C189.418 62.0504 190.108 61.4104 190.108 60.6204C190.108 59.8304 189.418 59.1904 188.558 59.1904C187.698 59.1904 187.008 59.8304 187.008 60.6204C187.008 61.4104 187.698 62.0504 188.558 62.0504Z" fill="#1C2B42"/>
<path d="M186.98 80.2703C186.98 81.0203 187.6 81.6203 188.38 81.6903C188.59 80.7603 188.78 79.8403 188.97 78.9103C188.83 78.8703 188.68 78.8403 188.53 78.8403C187.67 78.8403 186.98 79.4803 186.98 80.2703Z" fill="#1C2B42"/>
<path d="M209.972 3.15004C210.832 3.15004 211.522 2.51004 211.522 1.72004C211.522 0.930039 210.832 0.290039 209.972 0.290039C209.112 0.290039 208.422 0.930039 208.422 1.72004C208.422 2.51004 209.112 3.15004 209.972 3.15004Z" fill="#1C2B42"/>
<path d="M209.933 19.9404C209.073 19.9404 208.383 20.5804 208.383 21.3704C208.383 22.0504 208.893 22.6204 209.583 22.7704C210.153 22.4904 210.733 22.2404 211.313 22.0104C211.413 21.8204 211.483 21.6104 211.483 21.3804C211.483 20.5904 210.793 19.9504 209.933 19.9504V19.9404Z" fill="#1C2B42"/>
<path d="M231.249 3.20033C232.109 3.20033 232.799 2.56033 232.799 1.77033C232.799 0.980332 232.109 0.340332 231.249 0.340332C230.389 0.340332 229.699 0.980332 229.699 1.77033C229.699 2.56033 230.389 3.20033 231.249 3.20033Z" fill="#1C2B42"/>
<path d="M231.21 22.8405C232.07 22.8405 232.76 22.2005 232.76 21.4105C232.76 20.6205 232.07 19.9805 231.21 19.9805C230.35 19.9805 229.66 20.6205 229.66 21.4105C229.66 22.2005 230.35 22.8405 231.21 22.8405Z" fill="#1C2B42"/>
<path d="M252.542 3.23988C253.402 3.23988 254.092 2.59988 254.092 1.80988C254.092 1.01988 253.402 0.379883 252.542 0.379883C251.682 0.379883 250.992 1.01988 250.992 1.80988C250.992 2.59988 251.682 3.23988 252.542 3.23988Z" fill="#1C2B42"/>
<path d="M252.499 22.8903C253.359 22.8903 254.049 22.2503 254.049 21.4603C254.049 20.6703 253.359 20.0303 252.499 20.0303C251.639 20.0303 250.949 20.6703 250.949 21.4603C250.949 22.2503 251.639 22.8903 252.499 22.8903Z" fill="#1C2B42"/>
<path d="M273.82 3.27992C274.68 3.27992 275.37 2.63992 275.37 1.84992C275.37 1.05992 274.68 0.419922 273.82 0.419922C272.96 0.419922 272.27 1.05992 272.27 1.84992C272.27 2.63992 272.96 3.27992 273.82 3.27992Z" fill="#1C2B42"/>
<path d="M273.78 22.9303C274.64 22.9303 275.33 22.2903 275.33 21.5003C275.33 20.7103 274.64 20.0703 273.78 20.0703C272.92 20.0703 272.23 20.7103 272.23 21.5003C272.23 22.2903 272.92 22.9303 273.78 22.9303Z" fill="#1C2B42"/>
<path d="M295.081 20.1104C294.221 20.1104 293.531 20.7504 293.531 21.5404C293.531 21.8704 293.651 22.1704 293.861 22.4104L296.251 20.6104C295.971 20.3104 295.551 20.1104 295.091 20.1104H295.081Z" fill="#1C2B42"/>
<path d="M955.248 17.5303H913.668L801.258 273.69H884.368L905.748 220.3H866.408L954.888 19.0503L955.538 17.5603H959.998V17.5303H955.248Z" fill="#1C2B42"/>
<path d="M473.191 518.82C462.571 520.35 453.891 518.38 446.831 512.76C444.591 510.98 442.471 508.83 440.491 506.34C438.511 503.87 436.671 501.06 434.991 497.92C431.551 491.53 429.561 485.37 429.061 479.61C428.161 469.17 432.441 459.65 442.151 450.49C444.361 448.41 446.811 446.4 449.461 444.46C452.931 441.93 456.751 439.52 460.931 437.27C467.821 433.56 474.641 430.91 481.181 429.38C494.141 426.36 504.471 428.08 512.761 434.64C517.311 438.24 521.351 443.3 524.771 449.68C528.121 455.91 530.061 461.96 530.551 467.65C531.451 478.17 527.171 487.75 517.461 496.93C512.571 501.55 506.601 505.78 499.701 509.49C493.291 512.94 487.031 515.5 481.041 517.16L576.501 497.12C580.311 486.37 581.771 475.01 580.771 463.29C579.691 450.71 575.791 438.08 569.171 425.76C562.461 413.28 554.001 402.96 544.011 395.06C523.481 378.83 497.771 373.71 469.681 380.26C458.811 382.8 447.811 387.03 437.001 392.84C425.731 398.9 415.811 405.94 407.521 413.76C386.471 433.61 376.531 457.88 378.771 483.92C379.861 496.57 383.821 509.31 390.531 521.79C392.911 526.22 395.521 530.36 398.341 534.23L473.181 518.79L473.191 518.82Z" fill="#1C2B42"/>
<path d="M398.617 534.65C398.757 534.83 398.897 535.01 399.027 535.2C398.887 535.02 398.747 534.84 398.617 534.65Z" fill="#1C2B42"/>
<path d="M402.88 540C402.25 539.26 401.63 538.51 401.02 537.75C401.63 538.52 402.25 539.26 402.88 540Z" fill="#1C2B42"/>
<path d="M148.887 487.141C148.887 486.351 149.587 485.711 150.438 485.711C151.048 485.711 151.558 486.041 151.818 486.501L168.708 475.661L168.977 475.471L107.997 439.351L37.1275 478.381C37.1475 478.741 37.1575 479.131 37.1775 479.591C37.2175 480.911 37.2275 482.641 37.2275 484.711C37.2275 495.561 36.7875 515.811 36.3575 533.371C36.2975 535.631 36.2475 537.841 36.1875 539.981H68.4575L149.298 488.101C149.038 487.841 148.878 487.501 148.878 487.121L148.887 487.141ZM150.488 466.071C151.348 466.071 152.037 466.711 152.037 467.501C152.037 468.291 151.338 468.931 150.488 468.931C149.638 468.931 148.938 468.291 148.938 467.501C148.938 466.711 149.638 466.071 150.488 466.071ZM43.9275 527.661C43.0675 527.661 42.3775 527.021 42.3775 526.231C42.3775 525.441 43.0775 524.801 43.9275 524.801C44.7775 524.801 45.4775 525.441 45.4775 526.231C45.4775 527.021 44.7775 527.661 43.9275 527.661ZM43.9675 508.011C43.1075 508.011 42.4175 507.371 42.4175 506.581C42.4175 505.791 43.1175 505.151 43.9675 505.151C44.8175 505.151 45.5175 505.791 45.5175 506.581C45.5175 507.371 44.8175 508.011 43.9675 508.011ZM44.0075 488.361C43.1475 488.361 42.4575 487.721 42.4575 486.931C42.4575 486.141 43.1575 485.501 44.0075 485.501C44.8675 485.501 45.5575 486.141 45.5575 486.931C45.5575 487.721 44.8575 488.361 44.0075 488.361ZM65.2175 527.701C64.3575 527.701 63.6675 527.061 63.6675 526.271C63.6675 525.481 64.3675 524.841 65.2175 524.841C66.0675 524.841 66.7675 525.481 66.7675 526.271C66.7675 527.061 66.0675 527.701 65.2175 527.701ZM65.2575 508.051C64.3975 508.051 63.7075 507.411 63.7075 506.621C63.7075 505.831 64.4075 505.191 65.2575 505.191C66.1075 505.191 66.8075 505.831 66.8075 506.621C66.8075 507.411 66.1075 508.051 65.2575 508.051ZM65.2975 488.411C64.4375 488.411 63.7475 487.771 63.7475 486.981C63.7475 486.191 64.4475 485.551 65.2975 485.551C66.1475 485.551 66.8475 486.191 66.8475 486.981C66.8475 487.771 66.1475 488.411 65.2975 488.411ZM65.3375 468.761C64.4775 468.761 63.7875 468.121 63.7875 467.331C63.7875 466.541 64.4875 465.901 65.3375 465.901C66.1875 465.901 66.8875 466.541 66.8875 467.331C66.8875 468.121 66.1875 468.761 65.3375 468.761ZM86.5075 527.741C85.6475 527.741 84.9575 527.101 84.9575 526.311C84.9575 525.521 85.6575 524.881 86.5075 524.881C87.3575 524.881 88.0575 525.521 88.0575 526.311C88.0575 527.101 87.3575 527.741 86.5075 527.741ZM86.5375 508.101C85.6775 508.101 84.9875 507.461 84.9875 506.671C84.9875 505.881 85.6875 505.241 86.5375 505.241C87.3875 505.241 88.0875 505.881 88.0875 506.671C88.0875 507.461 87.3875 508.101 86.5375 508.101ZM86.5775 488.451C85.7175 488.451 85.0275 487.811 85.0275 487.021C85.0275 486.231 85.7275 485.591 86.5775 485.591C87.4275 485.591 88.1275 486.231 88.1275 487.021C88.1275 487.811 87.4275 488.451 86.5775 488.451ZM86.6175 468.801C85.7575 468.801 85.0675 468.161 85.0675 467.371C85.0675 466.581 85.7675 465.941 86.6175 465.941C87.4675 465.941 88.1675 466.581 88.1675 467.371C88.1675 468.161 87.4675 468.801 86.6175 468.801ZM107.827 508.141C106.967 508.141 106.277 507.501 106.277 506.711C106.277 505.921 106.977 505.281 107.827 505.281C108.687 505.281 109.378 505.921 109.378 506.711C109.378 507.501 108.677 508.141 107.827 508.141ZM107.868 488.491C107.008 488.491 106.318 487.851 106.318 487.061C106.318 486.271 107.018 485.631 107.868 485.631C108.728 485.631 109.417 486.271 109.417 487.061C109.417 487.851 108.718 488.491 107.868 488.491ZM107.908 468.841C107.048 468.841 106.357 468.201 106.357 467.411C106.357 466.621 107.058 465.981 107.908 465.981C108.758 465.981 109.458 466.621 109.458 467.411C109.458 468.201 108.758 468.841 107.908 468.841ZM107.947 449.201C107.087 449.201 106.398 448.561 106.398 447.771C106.398 446.981 107.097 446.341 107.947 446.341C108.797 446.341 109.497 446.981 109.497 447.771C109.497 448.561 108.797 449.201 107.947 449.201ZM129.158 488.541C128.298 488.541 127.607 487.901 127.607 487.111C127.607 486.321 128.308 485.681 129.158 485.681C130.008 485.681 130.708 486.321 130.708 487.111C130.708 487.901 130.008 488.541 129.158 488.541ZM129.197 468.891C128.337 468.891 127.648 468.251 127.648 467.461C127.648 466.671 128.347 466.031 129.197 466.031C130.057 466.031 130.747 466.671 130.747 467.461C130.747 468.251 130.047 468.891 129.197 468.891Z" fill="#123263"/>
<path d="M173.727 478.29L237.217 434.49L237.857 434.05L171.568 398.65L170.848 399.05L103.167 436.33L33.4275 474.74C32.9875 474.98 32.6075 475.36 32.3675 475.78C32.1275 476.21 32.0075 476.68 32.0075 477.13C32.0075 477.32 32.0275 477.51 32.0675 477.69C32.0675 477.69 32.1075 477.97 32.1275 478.35C32.1975 479.51 32.2375 481.77 32.2275 484.73C32.2275 495.47 31.7975 515.73 31.3575 533.27C31.2975 535.57 31.2475 537.83 31.1875 540.01H36.1875C36.2375 537.87 36.2975 535.65 36.3575 533.4C36.7975 515.83 37.2275 495.59 37.2275 484.74C37.2275 482.67 37.2075 480.94 37.1775 479.62C37.1675 479.16 37.1475 478.77 37.1275 478.41L107.997 439.38L103.957 436.99L171.617 399.7L232.628 432.28L236.327 434.25L171.688 477.1L168.977 475.5L168.708 475.69L151.818 486.53C151.928 486.72 151.988 486.94 151.988 487.17C151.988 487.96 151.288 488.6 150.438 488.6C149.988 488.6 149.597 488.42 149.307 488.14L68.4675 540.02H77.7275L171.497 479.85L173.727 478.31V478.29ZM36.9675 476.65V476.66C36.9675 476.66 36.9675 476.66 36.9675 476.65Z" fill="#1C2B42"/>
<path d="M226.589 434.7L171.659 405.37L114.039 437.12L171.549 471.19L226.589 434.7Z" fill="#123263"/>
<path d="M171.699 477.09L236.339 434.24L232.639 432.27L171.629 399.69L103.969 436.98L108.009 439.37L168.989 475.49L171.699 477.09ZM171.659 405.37L226.579 434.7L171.539 471.19L114.029 437.13L171.649 405.38L171.659 405.37Z" fill="#1C2B42"/>
<path d="M898.93 334.32H900.96L926.43 415.98L897.169 490.05H897.18H949.53L926.44 415.98L900.969 334.32L893.74 311.15H807.27L849.849 447.7L898.93 334.32Z" fill="#1C2B42"/>
<path d="M681.207 229.63C681.197 229.39 681.187 229.14 681.177 228.9C681.157 228.37 681.147 227.83 681.127 227.42C681.117 227.15 681.097 226.92 681.087 226.86C676.347 196.67 669.557 176.54 668.577 173.72C668.517 173.54 668.467 173.42 668.467 173.41L667.547 171.01L676.237 168.01L623.017 149.64C620.717 156.29 614.167 176.61 608.937 205.9C605.027 227.89 601.867 254.91 601.867 285.11C601.867 315.31 605.027 342.29 608.937 364.32C614.137 393.61 620.707 413.93 623.017 420.58L676.237 402.21L667.557 399.21L668.477 396.81L668.497 396.76L668.567 396.57C668.627 396.4 668.717 396.15 668.827 395.83C669.047 395.18 669.367 394.22 669.757 392.98C670.547 390.49 671.647 386.86 672.907 382.21C675.417 372.92 678.557 359.6 681.107 343.37C681.107 343.34 681.147 343.02 681.177 342.64C681.207 342.25 681.237 341.78 681.267 341.28C681.267 341.17 681.277 341.05 681.287 340.93C678.887 324.69 677.097 305.8 677.097 285.11C677.097 264.42 678.867 245.78 681.237 229.62L681.207 229.63ZM621.237 404.54C620.377 404.54 619.687 403.9 619.687 403.11C619.687 402.32 620.387 401.68 621.237 401.68C622.087 401.68 622.787 402.32 622.787 403.11C622.787 403.9 622.087 404.54 621.237 404.54ZM621.277 384.89C620.417 384.89 619.727 384.25 619.727 383.46C619.727 382.67 620.427 382.03 621.277 382.03C622.137 382.03 622.827 382.67 622.827 383.46C622.827 384.25 622.127 384.89 621.277 384.89ZM621.317 365.25C620.457 365.25 619.767 364.61 619.767 363.82C619.767 363.03 620.467 362.39 621.317 362.39C622.177 362.39 622.867 363.03 622.867 363.82C622.867 364.61 622.167 365.25 621.317 365.25ZM621.357 345.6C620.497 345.6 619.807 344.96 619.807 344.17C619.807 343.38 620.507 342.74 621.357 342.74C622.217 342.74 622.907 343.38 622.907 344.17C622.907 344.96 622.207 345.6 621.357 345.6ZM621.397 325.95C620.537 325.95 619.847 325.31 619.847 324.52C619.847 323.73 620.547 323.09 621.397 323.09C622.257 323.09 622.947 323.73 622.947 324.52C622.947 325.31 622.247 325.95 621.397 325.95ZM621.437 306.3C620.577 306.3 619.887 305.66 619.887 304.87C619.887 304.08 620.587 303.44 621.437 303.44C622.297 303.44 622.987 304.08 622.987 304.87C622.987 305.66 622.287 306.3 621.437 306.3ZM621.477 286.66C620.617 286.66 619.927 286.02 619.927 285.23C619.927 284.44 620.627 283.8 621.477 283.8C622.327 283.8 623.027 284.44 623.027 285.23C623.027 286.02 622.327 286.66 621.477 286.66ZM621.507 267.01C620.647 267.01 619.957 266.37 619.957 265.58C619.957 264.79 620.657 264.15 621.507 264.15C622.357 264.15 623.057 264.79 623.057 265.58C623.057 266.37 622.357 267.01 621.507 267.01ZM621.547 247.36C620.687 247.36 619.997 246.72 619.997 245.93C619.997 245.14 620.697 244.5 621.547 244.5C622.397 244.5 623.097 245.14 623.097 245.93C623.097 246.72 622.397 247.36 621.547 247.36ZM621.587 227.71C620.727 227.71 620.037 227.07 620.037 226.28C620.037 225.49 620.737 224.85 621.587 224.85C622.437 224.85 623.137 225.49 623.137 226.28C623.137 227.07 622.437 227.71 621.587 227.71ZM621.627 208.07C620.767 208.07 620.077 207.43 620.077 206.64C620.077 205.85 620.777 205.21 621.627 205.21C622.477 205.21 623.177 205.85 623.177 206.64C623.177 207.43 622.477 208.07 621.627 208.07ZM621.667 188.42C620.807 188.42 620.117 187.78 620.117 186.99C620.117 186.2 620.817 185.56 621.667 185.56C622.527 185.56 623.217 186.2 623.217 186.99C623.217 187.78 622.517 188.42 621.667 188.42ZM621.707 168.77C620.847 168.77 620.157 168.13 620.157 167.34C620.157 166.55 620.857 165.91 621.707 165.91C622.567 165.91 623.257 166.55 623.257 167.34C623.257 168.13 622.557 168.77 621.707 168.77ZM642.517 404.59C641.657 404.59 640.967 403.95 640.967 403.16C640.967 402.37 641.667 401.73 642.517 401.73C643.367 401.73 644.067 402.37 644.067 403.16C644.067 403.95 643.367 404.59 642.517 404.59ZM642.557 384.94C641.697 384.94 641.007 384.3 641.007 383.51C641.007 382.72 641.707 382.08 642.557 382.08C643.407 382.08 644.107 382.72 644.107 383.51C644.107 384.3 643.407 384.94 642.557 384.94ZM642.597 365.29C641.737 365.29 641.047 364.65 641.047 363.86C641.047 363.07 641.747 362.43 642.597 362.43C643.447 362.43 644.147 363.07 644.147 363.86C644.147 364.65 643.447 365.29 642.597 365.29ZM642.637 345.64C641.777 345.64 641.087 345 641.087 344.21C641.087 343.42 641.787 342.78 642.637 342.78C643.487 342.78 644.187 343.42 644.187 344.21C644.187 345 643.487 345.64 642.637 345.64ZM642.677 325.99C641.817 325.99 641.127 325.35 641.127 324.56C641.127 323.77 641.827 323.13 642.677 323.13C643.537 323.13 644.227 323.77 644.227 324.56C644.227 325.35 643.527 325.99 642.677 325.99ZM642.717 306.35C641.857 306.35 641.167 305.71 641.167 304.92C641.167 304.13 641.867 303.49 642.717 303.49C643.577 303.49 644.267 304.13 644.267 304.92C644.267 305.71 643.567 306.35 642.717 306.35ZM642.757 286.7C641.897 286.7 641.207 286.06 641.207 285.27C641.207 284.48 641.907 283.84 642.757 283.84C643.617 283.84 644.307 284.48 644.307 285.27C644.307 286.06 643.607 286.7 642.757 286.7ZM642.797 267.05C641.937 267.05 641.247 266.41 641.247 265.62C641.247 264.83 641.947 264.19 642.797 264.19C643.647 264.19 644.347 264.83 644.347 265.62C644.347 266.41 643.647 267.05 642.797 267.05ZM642.837 247.4C641.977 247.4 641.287 246.76 641.287 245.97C641.287 245.18 641.987 244.54 642.837 244.54C643.687 244.54 644.387 245.18 644.387 245.97C644.387 246.76 643.687 247.4 642.837 247.4ZM642.877 227.76C642.017 227.76 641.327 227.12 641.327 226.33C641.327 225.54 642.027 224.9 642.877 224.9C643.727 224.9 644.427 225.54 644.427 226.33C644.427 227.12 643.727 227.76 642.877 227.76ZM642.917 208.11C642.057 208.11 641.367 207.47 641.367 206.68C641.367 205.89 642.067 205.25 642.917 205.25C643.767 205.25 644.467 205.89 644.467 206.68C644.467 207.47 643.767 208.11 642.917 208.11ZM642.957 188.46C642.097 188.46 641.407 187.82 641.407 187.03C641.407 186.24 642.107 185.6 642.957 185.6C643.807 185.6 644.507 186.24 644.507 187.03C644.507 187.82 643.807 188.46 642.957 188.46ZM642.997 168.81C642.137 168.81 641.447 168.17 641.447 167.38C641.447 166.59 642.147 165.95 642.997 165.95C643.857 165.95 644.547 166.59 644.547 167.38C644.547 168.17 643.847 168.81 642.997 168.81ZM663.807 404.63C662.947 404.63 662.257 403.99 662.257 403.2C662.257 402.41 662.957 401.77 663.807 401.77C664.657 401.77 665.357 402.41 665.357 403.2C665.357 403.99 664.657 404.63 663.807 404.63ZM663.847 384.98C662.987 384.98 662.297 384.34 662.297 383.55C662.297 382.76 662.997 382.12 663.847 382.12C664.697 382.12 665.397 382.76 665.397 383.55C665.397 384.34 664.697 384.98 663.847 384.98ZM663.887 365.33C663.027 365.33 662.337 364.69 662.337 363.9C662.337 363.11 663.037 362.47 663.887 362.47C664.737 362.47 665.437 363.11 665.437 363.9C665.437 364.69 664.737 365.33 663.887 365.33ZM663.927 345.69C663.067 345.69 662.377 345.05 662.377 344.26C662.377 343.47 663.077 342.83 663.927 342.83C664.777 342.83 665.477 343.47 665.477 344.26C665.477 345.05 664.777 345.69 663.927 345.69ZM663.967 326.04C663.107 326.04 662.417 325.4 662.417 324.61C662.417 323.82 663.117 323.18 663.967 323.18C664.827 323.18 665.517 323.82 665.517 324.61C665.517 325.4 664.817 326.04 663.967 326.04ZM664.007 306.39C663.147 306.39 662.457 305.75 662.457 304.96C662.457 304.17 663.157 303.53 664.007 303.53C664.867 303.53 665.557 304.17 665.557 304.96C665.557 305.75 664.857 306.39 664.007 306.39ZM664.047 286.74C663.187 286.74 662.497 286.1 662.497 285.31C662.497 284.52 663.197 283.88 664.047 283.88C664.897 283.88 665.597 284.52 665.597 285.31C665.597 286.1 664.897 286.74 664.047 286.74ZM664.087 267.09C663.227 267.09 662.537 266.45 662.537 265.66C662.537 264.87 663.237 264.23 664.087 264.23C664.947 264.23 665.637 264.87 665.637 265.66C665.637 266.45 664.937 267.09 664.087 267.09ZM664.127 247.45C663.267 247.45 662.577 246.81 662.577 246.02C662.577 245.23 663.277 244.59 664.127 244.59C664.987 244.59 665.677 245.23 665.677 246.02C665.677 246.81 664.977 247.45 664.127 247.45ZM664.167 227.8C663.307 227.8 662.617 227.16 662.617 226.37C662.617 225.58 663.317 224.94 664.167 224.94C665.017 224.94 665.717 225.58 665.717 226.37C665.717 227.16 665.017 227.8 664.167 227.8ZM664.197 208.15C663.337 208.15 662.647 207.51 662.647 206.72C662.647 205.93 663.347 205.29 664.197 205.29C665.047 205.29 665.747 205.93 665.747 206.72C665.747 207.51 665.047 208.15 664.197 208.15ZM664.237 188.5C663.377 188.5 662.687 187.86 662.687 187.07C662.687 186.28 663.387 185.64 664.237 185.64C665.087 185.64 665.787 186.28 665.787 187.07C665.787 187.86 665.087 188.5 664.237 188.5ZM664.277 168.86C663.417 168.86 662.727 168.22 662.727 167.43C662.727 166.64 663.427 166 664.277 166C665.137 166 665.827 166.64 665.827 167.43C665.827 168.22 665.127 168.86 664.277 168.86Z" fill="#123263"/>
<path d="M685.018 238.73L683.768 247.19L681.298 230.51C681.258 230.21 681.228 229.92 681.218 229.64C678.848 245.8 677.078 264.57 677.078 285.13C677.078 305.69 678.868 324.72 681.268 340.95C681.318 340.05 681.368 339.14 681.428 338.48C681.448 338.26 681.468 338.08 681.498 337.87L683.918 321.59C682.798 310.29 682.078 298.07 682.078 285.13C682.078 268.31 683.278 252.69 685.028 238.74L685.018 238.73Z" fill="#1C2B42"/>
<path d="M676.22 402.22L623 420.59C620.7 413.94 614.12 393.62 608.92 364.33C605.01 342.3 601.85 315.32 601.85 285.12C601.85 254.92 605.01 227.9 608.92 205.91C614.15 176.63 620.71 156.3 623 149.65L676.22 168.02L683.88 165.38L619.98 143.33L619.13 145.61C618.53 147.22 610.3 169.69 603.99 205.04C600.03 227.27 596.84 254.58 596.84 285.13C596.84 315.68 600.04 342.95 603.99 365.21C610.26 400.56 618.53 423.04 619.13 424.64L619.98 426.92L683.88 404.87L676.22 402.22Z" fill="#1C2B42"/>
<path d="M111.67 279.88L126.38 210.91L0 183.95V239.02L109.43 278.99L108.67 282.53L0 259.53V259.76L110.91 283.42L111.67 279.88Z" fill="#1C2B42"/>
<path d="M322.301 164.85H402.571L413.451 144.47L382.941 145.76V145.75L382.781 145.76L380.261 85.67L446.341 82.89L471.961 34.92L452.731 0H379.681L401.211 33.56L322.301 164.85Z" fill="#1C2B42"/>
<path d="M382.778 145.76L382.938 145.75L380.408 85.6704L446.488 82.8904L413.608 144.46L543.558 138.99L541.028 78.9004L446.338 82.8904L380.258 85.6704L382.778 145.76Z" fill="#1C2B42"/>
<path d="M380.41 85.6701L382.94 145.75V145.76L413.45 144.47H413.61V144.46L446.49 82.8901L380.41 85.6701Z" fill="#123263"/>
<path d="M216.341 319.54H174.211V364.17H218.841V322.04H216.341V319.54Z" fill="#1C2B42"/>
<path d="M874.078 215.301H905.218L959.998 78.6005V22.5605H958.808L874.078 215.301Z" fill="#123263"/>
<path d="M955.54 17.5605L954.89 19.0505L866.41 220.301H905.75H908.6L910.6 215.301L960 92.0406V78.6005L905.22 215.301H874.08L958.81 22.5605H960V17.5605H955.54Z" fill="#1C2B42"/>
<path d="M576.54 497.191C576.54 497.191 576.55 497.161 576.56 497.141H576.53L481.07 517.181C480.32 517.391 479.57 517.591 478.83 517.771L476.45 518.271C475.34 518.491 474.27 518.671 473.2 518.821L398.36 534.261H398.34C398.34 534.261 398.36 534.291 398.37 534.301C398.45 534.421 398.54 534.531 398.63 534.641C398.77 534.821 398.91 535.001 399.04 535.191C399.69 536.051 400.35 536.901 401.02 537.751C401.63 538.511 402.25 539.261 402.88 540.001H544.65C547.25 537.921 549.75 535.771 552.1 533.551C563.67 522.631 571.86 510.361 576.53 497.191H576.54Z" fill="#123263"/>
<path d="M499.727 509.51C506.617 505.8 512.597 501.58 517.487 496.95C527.197 487.77 531.477 478.19 530.577 467.67C530.087 461.98 528.137 455.93 524.797 449.7C521.377 443.32 517.327 438.26 512.787 434.66C504.497 428.1 494.167 426.37 481.207 429.4C474.667 430.93 467.847 433.58 460.957 437.29C456.777 439.54 452.947 441.95 449.487 444.48C446.847 446.41 444.407 448.41 442.207 450.49C432.497 459.66 428.217 469.2 429.127 479.65C429.627 485.42 431.627 491.59 435.067 497.99C436.737 501.1 438.557 503.9 440.517 506.35C442.497 508.84 444.607 510.98 446.857 512.77C453.927 518.39 462.607 520.35 473.217 518.83C474.287 518.68 475.357 518.5 476.467 518.28L478.847 517.78C479.587 517.6 480.337 517.4 481.087 517.19C487.077 515.53 493.347 512.96 499.747 509.52L499.727 509.51Z" fill="#123263"/>
<path d="M666.847 512.82L670.017 526.3L688.837 522L678.007 476.04L659.127 480H659.117L666.847 512.82Z" fill="#123263"/>
<path d="M863.062 490.05H897.172L926.432 415.98L900.962 334.32H898.932L849.852 447.7V447.71V447.72L863.052 490.05H863.062Z" fill="#123263"/>
<path d="M109.43 278.99L0 239.021V259.531L108.67 282.531L109.43 278.99Z" fill="#123263"/>
<path d="M808.819 51.35H808.969V0H749.949V51.35H808.819Z" fill="#123263"/>
<path d="M335.523 319.54V322.04H288.383V348.79H362.273V274.91H335.523V319.54Z" fill="#1C2B42"/>
<path d="M126.128 30.2803C125.018 38.3003 124.148 45.2003 122.648 50.9003C122.468 51.5703 122.298 52.2303 122.098 52.8603C121.218 55.7703 120.128 58.3103 118.738 60.5303C117.338 62.7503 115.638 64.6603 113.438 66.3203C111.918 67.4703 110.378 68.3102 108.798 68.8802C107.218 69.4402 105.608 69.7303 103.908 69.7303C100.948 69.7303 97.6981 68.8603 94.0981 66.8703C90.4981 64.8803 86.5681 61.7803 82.3781 57.4303C82.2081 57.2503 82.0281 57.0503 81.8481 56.8603C79.2881 54.1503 76.6281 51.0103 73.8881 47.3603L66.2881 37.2803L30.2881 64.4303L29.0081 65.4003L13.8281 76.8503L14.9181 78.7603C18.1581 84.4303 22.4681 90.1302 27.6481 96.9902C41.6681 115.58 56.0581 129.14 70.4981 138.09C84.9281 147.03 99.4281 151.35 113.478 151.34C129.718 151.34 145.278 145.58 159.348 134.96C164.888 130.78 169.568 126.47 173.548 122.05C173.668 121.92 173.778 121.79 173.888 121.66C181.788 112.77 186.808 103.44 190.098 93.9902C193.428 84.4102 195.008 74.7203 196.118 65.1503C197.188 57.5603 198.028 50.9603 199.388 45.4303C199.548 44.7803 199.708 44.1303 199.888 43.5103C200.778 40.3703 201.868 37.6203 203.298 35.2403C204.728 32.8603 206.488 30.8403 208.808 29.0903C211.848 26.8103 214.938 25.7003 218.328 25.7003C221.208 25.7003 224.368 26.5303 227.858 28.4003C231.348 30.2703 235.148 33.2003 239.188 37.2903C239.368 37.4703 239.538 37.6603 239.718 37.8403C242.488 40.7003 245.378 44.0903 248.368 48.0603C249.188 49.1403 249.938 50.4303 250.738 51.8003C251.538 53.1703 252.378 54.6303 253.438 56.0403L254.948 58.0403L291.668 30.3503L292.948 29.3803L307.978 18.0403L306.938 16.1403C304.398 11.5303 300.648 6.44025 295.798 0.0102539H289.528C289.748 0.300254 289.978 0.580254 290.198 0.880254C295.098 7.37025 298.908 12.4503 301.478 16.6803L296.258 20.6203L293.868 22.4203L288.658 26.3503L256.048 50.9403C255.728 50.4103 255.398 49.8603 255.068 49.2803C254.268 47.9103 253.428 46.4503 252.368 45.0403C249.078 40.6703 245.868 36.9303 242.748 33.7703C238.448 29.4203 234.288 26.1803 230.228 24.0003C226.178 21.8203 222.188 20.7003 218.328 20.7003C215.908 20.7003 213.558 21.1603 211.328 22.0103C210.738 22.2303 210.168 22.4903 209.598 22.7703C208.288 23.4103 207.008 24.1903 205.798 25.1003C202.958 27.2403 200.738 29.7903 199.018 32.6603C197.658 34.9303 196.608 37.3903 195.738 40.0103C195.508 40.7103 195.288 41.4203 195.078 42.1503C193.268 48.6103 192.368 56.0303 191.168 64.4803V64.5202V64.5403C190.608 69.3603 189.938 74.1603 188.988 78.9103C188.798 79.8403 188.608 80.7703 188.398 81.6903C187.598 85.2803 186.618 88.8303 185.398 92.3503C182.238 101.41 177.478 110.22 169.848 118.71C169.758 118.81 169.658 118.92 169.558 119.02C169.248 119.36 168.938 119.7 168.618 120.04C168.388 120.29 168.148 120.53 167.918 120.78C164.598 124.24 160.778 127.64 156.358 130.98C152.968 133.54 149.498 135.78 145.978 137.72C145.478 138 144.968 138.25 144.468 138.52C134.558 143.67 124.188 146.36 113.508 146.36C103.758 146.36 93.7081 144.13 83.4781 139.42C82.5781 139.01 81.6881 138.58 80.7881 138.13C78.2581 136.86 75.7081 135.44 73.1581 133.86C59.3781 125.33 45.3981 112.21 31.6681 94.0003C27.1081 87.9503 23.3081 82.9003 20.4081 78.1803L33.3281 68.4403L65.3381 44.3003L69.9281 50.3903C72.9681 54.4203 75.9281 57.9203 78.8181 60.9103C83.2681 65.5203 87.5481 68.9503 91.7181 71.2503C95.8881 73.5503 99.9881 74.7303 103.948 74.7303C106.218 74.7303 108.418 74.3402 110.518 73.5902C112.618 72.8402 114.608 71.7303 116.488 70.3203C119.178 68.2903 121.318 65.8903 123.008 63.2003C123.318 62.7103 123.598 62.2003 123.878 61.6903C124.338 60.8603 124.768 60.0103 125.158 59.1303C125.538 58.2603 125.888 57.3703 126.218 56.4603C126.468 55.7603 126.708 55.0503 126.928 54.3303C128.958 47.6303 129.878 39.8703 131.128 30.9403V30.8903L131.138 30.8403C132.048 21.2703 133.548 11.9803 136.688 3.02025C137.038 2.02025 137.418 1.02025 137.808 0.0202539H132.458C132.288 0.470254 132.128 0.920254 131.968 1.37025C128.638 10.8703 127.098 20.5503 126.168 30.3103L126.128 30.2803Z" fill="#1C2B42"/>
<path d="M221.34 207.87V317.04H288.03V274.76H330.51V207.87H221.34ZM235.65 313.29C234.79 313.29 234.1 312.65 234.1 311.86C234.1 311.07 234.8 310.43 235.65 310.43C236.5 310.43 237.2 311.07 237.2 311.86C237.2 312.65 236.5 313.29 235.65 313.29ZM235.69 293.64C234.83 293.64 234.14 293 234.14 292.21C234.14 291.42 234.84 290.78 235.69 290.78C236.54 290.78 237.24 291.42 237.24 292.21C237.24 293 236.54 293.64 235.69 293.64ZM235.73 273.99C234.87 273.99 234.18 273.35 234.18 272.56C234.18 271.77 234.88 271.13 235.73 271.13C236.59 271.13 237.28 271.77 237.28 272.56C237.28 273.35 236.58 273.99 235.73 273.99ZM235.77 254.34C234.91 254.34 234.22 253.7 234.22 252.91C234.22 252.12 234.92 251.48 235.77 251.48C236.63 251.48 237.32 252.12 237.32 252.91C237.32 253.7 236.62 254.34 235.77 254.34ZM235.81 234.7C234.95 234.7 234.26 234.06 234.26 233.27C234.26 232.48 234.96 231.84 235.81 231.84C236.67 231.84 237.36 232.48 237.36 233.27C237.36 234.06 236.66 234.7 235.81 234.7ZM235.85 215.05C234.99 215.05 234.3 214.41 234.3 213.62C234.3 212.83 235 212.19 235.85 212.19C236.7 212.19 237.4 212.83 237.4 213.62C237.4 214.41 236.7 215.05 235.85 215.05ZM256.93 313.33C256.07 313.33 255.38 312.69 255.38 311.9C255.38 311.11 256.08 310.47 256.93 310.47C257.78 310.47 258.48 311.11 258.48 311.9C258.48 312.69 257.78 313.33 256.93 313.33ZM256.97 293.68C256.11 293.68 255.42 293.04 255.42 292.25C255.42 291.46 256.12 290.82 256.97 290.82C257.82 290.82 258.52 291.46 258.52 292.25C258.52 293.04 257.82 293.68 256.97 293.68ZM257.01 274.03C256.15 274.03 255.46 273.39 255.46 272.6C255.46 271.81 256.16 271.17 257.01 271.17C257.86 271.17 258.56 271.81 258.56 272.6C258.56 273.39 257.86 274.03 257.01 274.03ZM257.05 254.39C256.19 254.39 255.5 253.75 255.5 252.96C255.5 252.17 256.2 251.53 257.05 251.53C257.9 251.53 258.6 252.17 258.6 252.96C258.6 253.75 257.9 254.39 257.05 254.39ZM257.09 234.74C256.23 234.74 255.54 234.1 255.54 233.31C255.54 232.52 256.24 231.88 257.09 231.88C257.94 231.88 258.64 232.52 258.64 233.31C258.64 234.1 257.94 234.74 257.09 234.74ZM257.13 215.09C256.27 215.09 255.58 214.45 255.58 213.66C255.58 212.87 256.28 212.23 257.13 212.23C257.99 212.23 258.68 212.87 258.68 213.66C258.68 214.45 257.98 215.09 257.13 215.09ZM278.22 313.37C277.36 313.37 276.67 312.73 276.67 311.94C276.67 311.15 277.37 310.51 278.22 310.51C279.08 310.51 279.77 311.15 279.77 311.94C279.77 312.73 279.07 313.37 278.22 313.37ZM278.26 293.73C277.4 293.73 276.71 293.09 276.71 292.3C276.71 291.51 277.41 290.87 278.26 290.87C279.11 290.87 279.81 291.51 279.81 292.3C279.81 293.09 279.11 293.73 278.26 293.73ZM278.3 274.08C277.44 274.08 276.75 273.44 276.75 272.65C276.75 271.86 277.45 271.22 278.3 271.22C279.15 271.22 279.85 271.86 279.85 272.65C279.85 273.44 279.15 274.08 278.3 274.08ZM278.34 254.43C277.48 254.43 276.79 253.79 276.79 253C276.79 252.21 277.49 251.57 278.34 251.57C279.19 251.57 279.89 252.21 279.89 253C279.89 253.79 279.19 254.43 278.34 254.43ZM278.38 234.78C277.52 234.78 276.83 234.14 276.83 233.35C276.83 232.56 277.53 231.92 278.38 231.92C279.23 231.92 279.93 232.56 279.93 233.35C279.93 234.14 279.23 234.78 278.38 234.78ZM278.42 215.13C277.56 215.13 276.87 214.49 276.87 213.7C276.87 212.91 277.57 212.27 278.42 212.27C279.28 212.27 279.97 212.91 279.97 213.7C279.97 214.49 279.27 215.13 278.42 215.13ZM320.99 212.36C321.85 212.36 322.54 213 322.54 213.79C322.54 214.58 321.84 215.22 320.99 215.22C320.14 215.22 319.44 214.58 319.44 213.79C319.44 213 320.14 212.36 320.99 212.36ZM299.58 274.12C298.72 274.12 298.03 273.48 298.03 272.69C298.03 271.9 298.73 271.26 299.58 271.26C300.44 271.26 301.13 271.9 301.13 272.69C301.13 273.48 300.43 274.12 299.58 274.12ZM299.62 254.47C298.76 254.47 298.07 253.83 298.07 253.04C298.07 252.25 298.77 251.61 299.62 251.61C300.47 251.61 301.17 252.25 301.17 253.04C301.17 253.83 300.47 254.47 299.62 254.47ZM299.66 234.83C298.8 234.83 298.11 234.19 298.11 233.4C298.11 232.61 298.81 231.97 299.66 231.97C300.51 231.97 301.21 232.61 301.21 233.4C301.21 234.19 300.51 234.83 299.66 234.83ZM299.7 215.18C298.84 215.18 298.15 214.54 298.15 213.75C298.15 212.96 298.85 212.32 299.7 212.32C300.56 212.32 301.25 212.96 301.25 213.75C301.25 214.54 300.55 215.18 299.7 215.18ZM320.87 274.16C320.01 274.16 319.32 273.52 319.32 272.73C319.32 271.94 320.02 271.3 320.87 271.3C321.72 271.3 322.42 271.94 322.42 272.73C322.42 273.52 321.72 274.16 320.87 274.16ZM320.91 254.52C320.05 254.52 319.36 253.88 319.36 253.09C319.36 252.3 320.06 251.66 320.91 251.66C321.77 251.66 322.46 252.3 322.46 253.09C322.46 253.88 321.76 254.52 320.91 254.52ZM320.95 234.87C320.09 234.87 319.4 234.23 319.4 233.44C319.4 232.65 320.1 232.01 320.95 232.01C321.81 232.01 322.5 232.65 322.5 233.44C322.5 234.23 321.8 234.87 320.95 234.87Z" fill="#123263"/>
<path d="M288.03 317.04H221.34V207.87H330.52V274.76H335.52V202.87H216.34V319.54V322.04H218.84H288.03V317.04Z" fill="#1C2B42"/>
<path d="M330.511 279.76H293.031V317.04H330.511V279.76Z" fill="#123263"/>
<path d="M335.519 319.54V274.76H288.039V322.04H335.519V319.54ZM293.029 279.76H330.509V317.04H293.029V279.76Z" fill="#1C2B42"/>
<path d="M235.691 290.78C234.831 290.78 234.141 291.42 234.141 292.21C234.141 293 234.831 293.64 235.691 293.64C236.551 293.64 237.241 293 237.241 292.21C237.241 291.42 236.551 290.78 235.691 290.78Z" fill="#1C2B42"/>
<path d="M256.98 290.82C256.12 290.82 255.43 291.46 255.43 292.25C255.43 293.04 256.12 293.68 256.98 293.68C257.84 293.68 258.53 293.04 258.53 292.25C258.53 291.46 257.84 290.82 256.98 290.82Z" fill="#1C2B42"/>
<path d="M278.261 290.86C277.401 290.86 276.711 291.5 276.711 292.29C276.711 293.08 277.401 293.72 278.261 293.72C279.121 293.72 279.811 293.08 279.811 292.29C279.811 291.5 279.121 290.86 278.261 290.86Z" fill="#1C2B42"/>
<path d="M235.851 212.19C234.991 212.19 234.301 212.83 234.301 213.62C234.301 214.41 234.991 215.05 235.851 215.05C236.711 215.05 237.401 214.41 237.401 213.62C237.401 212.83 236.711 212.19 235.851 212.19Z" fill="#1C2B42"/>
<path d="M235.808 231.83C234.948 231.83 234.258 232.47 234.258 233.26C234.258 234.05 234.948 234.69 235.808 234.69C236.668 234.69 237.358 234.05 237.358 233.26C237.358 232.47 236.668 231.83 235.808 231.83Z" fill="#1C2B42"/>
<path d="M235.769 251.48C234.909 251.48 234.219 252.12 234.219 252.91C234.219 253.7 234.909 254.34 235.769 254.34C236.629 254.34 237.319 253.7 237.319 252.91C237.319 252.12 236.629 251.48 235.769 251.48Z" fill="#1C2B42"/>
<path d="M235.73 271.13C234.87 271.13 234.18 271.77 234.18 272.56C234.18 273.35 234.87 273.99 235.73 273.99C236.59 273.99 237.28 273.35 237.28 272.56C237.28 271.77 236.59 271.13 235.73 271.13Z" fill="#1C2B42"/>
<path d="M235.652 310.42C234.792 310.42 234.102 311.06 234.102 311.85C234.102 312.64 234.792 313.28 235.652 313.28C236.512 313.28 237.202 312.64 237.202 311.85C237.202 311.06 236.512 310.42 235.652 310.42Z" fill="#1C2B42"/>
<path d="M257.14 212.23C256.28 212.23 255.59 212.87 255.59 213.66C255.59 214.45 256.28 215.09 257.14 215.09C258 215.09 258.69 214.45 258.69 213.66C258.69 212.87 258 212.23 257.14 212.23Z" fill="#1C2B42"/>
<path d="M257.101 231.88C256.241 231.88 255.551 232.52 255.551 233.31C255.551 234.1 256.241 234.74 257.101 234.74C257.961 234.74 258.651 234.1 258.651 233.31C258.651 232.52 257.961 231.88 257.101 231.88Z" fill="#1C2B42"/>
<path d="M257.058 251.521C256.198 251.521 255.508 252.161 255.508 252.951C255.508 253.741 256.198 254.381 257.058 254.381C257.918 254.381 258.608 253.741 258.608 252.951C258.608 252.161 257.918 251.521 257.058 251.521Z" fill="#1C2B42"/>
<path d="M257.019 271.17C256.159 271.17 255.469 271.81 255.469 272.6C255.469 273.39 256.159 274.03 257.019 274.03C257.879 274.03 258.569 273.39 258.569 272.6C258.569 271.81 257.879 271.17 257.019 271.17Z" fill="#1C2B42"/>
<path d="M256.941 310.47C256.081 310.47 255.391 311.11 255.391 311.9C255.391 312.69 256.081 313.33 256.941 313.33C257.801 313.33 258.491 312.69 258.491 311.9C258.491 311.11 257.801 310.47 256.941 310.47Z" fill="#1C2B42"/>
<path d="M278.417 212.271C277.557 212.271 276.867 212.911 276.867 213.701C276.867 214.491 277.557 215.131 278.417 215.131C279.277 215.131 279.967 214.491 279.967 213.701C279.967 212.911 279.277 212.271 278.417 212.271Z" fill="#1C2B42"/>
<path d="M278.378 231.92C277.518 231.92 276.828 232.56 276.828 233.35C276.828 234.14 277.518 234.78 278.378 234.78C279.238 234.78 279.928 234.14 279.928 233.35C279.928 232.56 279.238 231.92 278.378 231.92Z" fill="#1C2B42"/>
<path d="M278.339 251.57C277.479 251.57 276.789 252.21 276.789 253C276.789 253.79 277.479 254.43 278.339 254.43C279.199 254.43 279.889 253.79 279.889 253C279.889 252.21 279.199 251.57 278.339 251.57Z" fill="#1C2B42"/>
<path d="M278.3 271.21C277.44 271.21 276.75 271.85 276.75 272.64C276.75 273.43 277.44 274.07 278.3 274.07C279.16 274.07 279.85 273.43 279.85 272.64C279.85 271.85 279.16 271.21 278.3 271.21Z" fill="#1C2B42"/>
<path d="M278.23 310.51C277.37 310.51 276.68 311.15 276.68 311.94C276.68 312.73 277.37 313.37 278.23 313.37C279.09 313.37 279.78 312.73 279.78 311.94C279.78 311.15 279.09 310.51 278.23 310.51Z" fill="#1C2B42"/>
<path d="M299.71 212.311C298.85 212.311 298.16 212.951 298.16 213.741C298.16 214.531 298.85 215.171 299.71 215.171C300.57 215.171 301.26 214.531 301.26 213.741C301.26 212.951 300.57 212.311 299.71 212.311Z" fill="#1C2B42"/>
<path d="M299.667 231.96C298.807 231.96 298.117 232.6 298.117 233.39C298.117 234.18 298.807 234.82 299.667 234.82C300.527 234.82 301.217 234.18 301.217 233.39C301.217 232.6 300.527 231.96 299.667 231.96Z" fill="#1C2B42"/>
<path d="M299.628 251.61C298.768 251.61 298.078 252.25 298.078 253.04C298.078 253.83 298.768 254.47 299.628 254.47C300.488 254.47 301.178 253.83 301.178 253.04C301.178 252.25 300.488 251.61 299.628 251.61Z" fill="#1C2B42"/>
<path d="M299.589 271.26C298.729 271.26 298.039 271.9 298.039 272.69C298.039 273.48 298.729 274.12 299.589 274.12C300.449 274.12 301.139 273.48 301.139 272.69C301.139 271.9 300.449 271.26 299.589 271.26Z" fill="#1C2B42"/>
<path d="M320.987 215.22C321.847 215.22 322.538 214.58 322.538 213.79C322.538 213 321.847 212.36 320.987 212.36C320.127 212.36 319.438 213 319.438 213.79C319.438 214.58 320.127 215.22 320.987 215.22Z" fill="#1C2B42"/>
<path d="M320.948 232.01C320.088 232.01 319.398 232.65 319.398 233.44C319.398 234.23 320.088 234.87 320.948 234.87C321.808 234.87 322.498 234.23 322.498 233.44C322.498 232.65 321.808 232.01 320.948 232.01Z" fill="#1C2B42"/>
<path d="M320.917 251.65C320.057 251.65 319.367 252.29 319.367 253.08C319.367 253.87 320.057 254.51 320.917 254.51C321.777 254.51 322.467 253.87 322.467 253.08C322.467 252.29 321.777 251.65 320.917 251.65Z" fill="#1C2B42"/>
<path d="M320.878 271.3C320.018 271.3 319.328 271.94 319.328 272.73C319.328 273.52 320.018 274.16 320.878 274.16C321.738 274.16 322.428 273.52 322.428 272.73C322.428 271.94 321.738 271.3 320.878 271.3Z" fill="#1C2B42"/>
<path d="M693.949 174.08L683.959 170.63L673.969 174.08C674.129 174.56 674.309 175.11 674.499 175.73C675.309 178.28 676.429 181.99 677.709 186.7C679.609 193.74 681.869 203.04 683.959 214.13C687.799 193.79 692.169 179.49 693.949 174.07V174.08Z" fill="#123263"/>
<path d="M683.961 399.6L693.951 396.15C693.791 395.67 693.611 395.12 693.411 394.49C692.601 391.94 691.481 388.23 690.201 383.51C688.301 376.47 686.041 367.17 683.951 356.08C680.111 376.42 675.741 390.72 673.961 396.14L683.951 399.59L683.961 399.6Z" fill="#123263"/>
<path d="M699.45 396.8C699.45 396.8 699.409 396.68 699.349 396.52C698.359 393.71 691.57 373.58 686.84 343.39C686.84 343.39 686.82 343.25 686.81 343.1C686.76 342.52 686.7 341.44 686.64 340.44C686.61 339.93 686.579 339.44 686.549 339.01C686.519 338.57 686.49 338.23 686.44 337.88L685.289 330.14L683.96 321.2L683.9 321.59L681.479 337.87C681.449 338.07 681.429 338.26 681.409 338.48C681.349 339.14 681.3 340.05 681.25 340.95C681.25 341.07 681.239 341.18 681.229 341.3C681.199 341.8 681.17 342.28 681.14 342.66C681.11 343.04 681.08 343.36 681.07 343.39C678.52 359.62 675.39 372.94 672.87 382.23C671.61 386.87 670.509 390.51 669.719 393C669.319 394.24 669.009 395.2 668.789 395.85C668.679 396.18 668.59 396.42 668.53 396.59L668.46 396.78L668.44 396.83L667.52 399.23L676.2 402.23L683.859 404.88L683.94 404.91L687.69 403.61L700.38 399.23L699.43 396.81L699.45 396.8ZM683.96 356.09C686.05 367.18 688.3 376.48 690.21 383.52C691.49 388.24 692.609 391.94 693.419 394.5C693.619 395.12 693.8 395.67 693.96 396.16L683.969 399.61L673.979 396.16C675.759 390.74 680.129 376.44 683.969 356.1L683.96 356.09Z" fill="#1C2B42"/>
<path d="M676.229 168.02L667.539 171.02L668.459 173.42C668.459 173.42 668.509 173.55 668.569 173.73C669.559 176.54 676.349 196.67 681.079 226.87C681.089 226.93 681.109 227.16 681.119 227.43C681.139 227.84 681.149 228.38 681.169 228.91C681.169 229.16 681.189 229.4 681.199 229.64C681.219 229.93 681.239 230.21 681.279 230.51L683.749 247.19L684.999 238.73L685.049 238.38L686.219 230.51C686.279 230.11 686.399 229.41 686.509 228.72C686.629 228.03 686.739 227.34 686.819 226.86C689.369 210.63 692.499 197.31 695.019 188.02C696.279 183.38 697.379 179.74 698.169 177.25C698.569 176.01 698.879 175.05 699.099 174.4C699.209 174.07 699.299 173.83 699.359 173.66L699.429 173.47L699.449 173.42L700.389 171.02L687.709 166.64L683.949 165.34L683.879 165.37L676.219 168.01L676.229 168.02ZM677.719 186.71C676.439 181.99 675.319 178.29 674.509 175.74C674.309 175.12 674.129 174.57 673.979 174.09L683.969 170.64L693.959 174.09C692.179 179.51 687.809 193.81 683.969 214.15C681.879 203.06 679.629 193.76 677.719 186.72V186.71Z" fill="#1C2B42"/>
<path d="M621.48 283.79C620.62 283.79 619.93 284.43 619.93 285.22C619.93 286.01 620.62 286.65 621.48 286.65C622.34 286.65 623.03 286.01 623.03 285.22C623.03 284.43 622.34 283.79 621.48 283.79Z" fill="#1C2B42"/>
<path d="M642.769 283.84C641.909 283.84 641.219 284.48 641.219 285.27C641.219 286.06 641.909 286.7 642.769 286.7C643.629 286.7 644.319 286.06 644.319 285.27C644.319 284.48 643.629 283.84 642.769 283.84Z" fill="#1C2B42"/>
<path d="M664.05 283.88C663.19 283.88 662.5 284.52 662.5 285.31C662.5 286.1 663.19 286.74 664.05 286.74C664.91 286.74 665.6 286.1 665.6 285.31C665.6 284.52 664.91 283.88 664.05 283.88Z" fill="#1C2B42"/>
<path d="M621.722 165.91C620.862 165.91 620.172 166.55 620.172 167.34C620.172 168.13 620.862 168.77 621.722 168.77C622.582 168.77 623.272 168.13 623.272 167.34C623.272 166.55 622.582 165.91 621.722 165.91Z" fill="#1C2B42"/>
<path d="M621.683 185.55C620.823 185.55 620.133 186.19 620.133 186.98C620.133 187.77 620.823 188.41 621.683 188.41C622.543 188.41 623.233 187.77 623.233 186.98C623.233 186.19 622.543 185.55 621.683 185.55Z" fill="#1C2B42"/>
<path d="M621.64 205.2C620.78 205.2 620.09 205.84 620.09 206.63C620.09 207.42 620.78 208.06 621.64 208.06C622.5 208.06 623.19 207.42 623.19 206.63C623.19 205.84 622.5 205.2 621.64 205.2Z" fill="#1C2B42"/>
<path d="M621.601 224.851C620.741 224.851 620.051 225.491 620.051 226.281C620.051 227.071 620.741 227.711 621.601 227.711C622.461 227.711 623.151 227.071 623.151 226.281C623.151 225.491 622.461 224.851 621.601 224.851Z" fill="#1C2B42"/>
<path d="M621.558 244.5C620.698 244.5 620.008 245.14 620.008 245.93C620.008 246.72 620.698 247.36 621.558 247.36C622.418 247.36 623.108 246.72 623.108 245.93C623.108 245.14 622.418 244.5 621.558 244.5Z" fill="#1C2B42"/>
<path d="M621.519 264.15C620.659 264.15 619.969 264.79 619.969 265.58C619.969 266.37 620.659 267.01 621.519 267.01C622.379 267.01 623.069 266.37 623.069 265.58C623.069 264.79 622.379 264.15 621.519 264.15Z" fill="#1C2B42"/>
<path d="M621.441 303.44C620.581 303.44 619.891 304.08 619.891 304.87C619.891 305.66 620.581 306.3 621.441 306.3C622.301 306.3 622.991 305.66 622.991 304.87C622.991 304.08 622.301 303.44 621.441 303.44Z" fill="#1C2B42"/>
<path d="M621.402 323.09C620.542 323.09 619.852 323.73 619.852 324.52C619.852 325.31 620.542 325.95 621.402 325.95C622.262 325.95 622.952 325.31 622.952 324.52C622.952 323.73 622.262 323.09 621.402 323.09Z" fill="#1C2B42"/>
<path d="M621.362 342.74C620.502 342.74 619.812 343.38 619.812 344.17C619.812 344.96 620.502 345.6 621.362 345.6C622.222 345.6 622.912 344.96 622.912 344.17C622.912 343.38 622.222 342.74 621.362 342.74Z" fill="#1C2B42"/>
<path d="M621.32 362.38C620.46 362.38 619.77 363.02 619.77 363.81C619.77 364.6 620.46 365.24 621.32 365.24C622.18 365.24 622.87 364.6 622.87 363.81C622.87 363.02 622.18 362.38 621.32 362.38Z" fill="#1C2B42"/>
<path d="M621.281 382.03C620.421 382.03 619.73 382.67 619.73 383.46C619.73 384.25 620.421 384.89 621.281 384.89C622.141 384.89 622.831 384.25 622.831 383.46C622.831 382.67 622.141 382.03 621.281 382.03Z" fill="#1C2B42"/>
<path d="M621.237 401.68C620.377 401.68 619.688 402.32 619.688 403.11C619.688 403.9 620.377 404.54 621.237 404.54C622.097 404.54 622.787 403.9 622.787 403.11C622.787 402.32 622.097 401.68 621.237 401.68Z" fill="#1C2B42"/>
<path d="M642.999 165.95C642.139 165.95 641.449 166.59 641.449 167.38C641.449 168.17 642.139 168.81 642.999 168.81C643.859 168.81 644.549 168.17 644.549 167.38C644.549 166.59 643.859 165.95 642.999 165.95Z" fill="#1C2B42"/>
<path d="M642.96 185.601C642.1 185.601 641.41 186.241 641.41 187.031C641.41 187.821 642.1 188.461 642.96 188.461C643.82 188.461 644.51 187.821 644.51 187.031C644.51 186.241 643.82 185.601 642.96 185.601Z" fill="#1C2B42"/>
<path d="M642.917 205.25C642.057 205.25 641.367 205.89 641.367 206.68C641.367 207.47 642.057 208.11 642.917 208.11C643.777 208.11 644.467 207.47 644.467 206.68C644.467 205.89 643.777 205.25 642.917 205.25Z" fill="#1C2B42"/>
<path d="M642.89 224.89C642.03 224.89 641.34 225.53 641.34 226.32C641.34 227.11 642.03 227.75 642.89 227.75C643.75 227.75 644.44 227.11 644.44 226.32C644.44 225.53 643.75 224.89 642.89 224.89Z" fill="#1C2B42"/>
<path d="M642.851 244.54C641.991 244.54 641.301 245.18 641.301 245.97C641.301 246.76 641.991 247.4 642.851 247.4C643.711 247.4 644.401 246.76 644.401 245.97C644.401 245.18 643.711 244.54 642.851 244.54Z" fill="#1C2B42"/>
<path d="M642.808 264.19C641.948 264.19 641.258 264.83 641.258 265.62C641.258 266.41 641.948 267.05 642.808 267.05C643.668 267.05 644.358 266.41 644.358 265.62C644.358 264.83 643.668 264.19 642.808 264.19Z" fill="#1C2B42"/>
<path d="M642.73 303.48C641.87 303.48 641.18 304.12 641.18 304.91C641.18 305.7 641.87 306.34 642.73 306.34C643.59 306.34 644.28 305.7 644.28 304.91C644.28 304.12 643.59 303.48 642.73 303.48Z" fill="#1C2B42"/>
<path d="M642.691 323.13C641.831 323.13 641.141 323.77 641.141 324.56C641.141 325.35 641.831 325.99 642.691 325.99C643.551 325.99 644.241 325.35 644.241 324.56C644.241 323.77 643.551 323.13 642.691 323.13Z" fill="#1C2B42"/>
<path d="M642.652 342.78C641.792 342.78 641.102 343.42 641.102 344.21C641.102 345 641.792 345.64 642.652 345.64C643.512 345.64 644.202 345 644.202 344.21C644.202 343.42 643.512 342.78 642.652 342.78Z" fill="#1C2B42"/>
<path d="M642.612 362.43C641.752 362.43 641.062 363.07 641.062 363.86C641.062 364.65 641.752 365.29 642.612 365.29C643.472 365.29 644.162 364.65 644.162 363.86C644.162 363.07 643.472 362.43 642.612 362.43Z" fill="#1C2B42"/>
<path d="M642.57 382.07C641.71 382.07 641.02 382.71 641.02 383.5C641.02 384.29 641.71 384.93 642.57 384.93C643.43 384.93 644.12 384.29 644.12 383.5C644.12 382.71 643.43 382.07 642.57 382.07Z" fill="#1C2B42"/>
<path d="M642.531 401.72C641.671 401.72 640.98 402.36 640.98 403.15C640.98 403.94 641.671 404.58 642.531 404.58C643.391 404.58 644.081 403.94 644.081 403.15C644.081 402.36 643.391 401.72 642.531 401.72Z" fill="#1C2B42"/>
<path d="M664.292 165.99C663.432 165.99 662.742 166.63 662.742 167.42C662.742 168.21 663.432 168.85 664.292 168.85C665.152 168.85 665.842 168.21 665.842 167.42C665.842 166.63 665.152 165.99 664.292 165.99Z" fill="#1C2B42"/>
<path d="M664.249 185.64C663.389 185.64 662.699 186.28 662.699 187.07C662.699 187.86 663.389 188.5 664.249 188.5C665.109 188.5 665.799 187.86 665.799 187.07C665.799 186.28 665.109 185.64 664.249 185.64Z" fill="#1C2B42"/>
<path d="M664.21 205.29C663.35 205.29 662.66 205.93 662.66 206.72C662.66 207.51 663.35 208.15 664.21 208.15C665.07 208.15 665.76 207.51 665.76 206.72C665.76 205.93 665.07 205.29 664.21 205.29Z" fill="#1C2B42"/>
<path d="M664.167 224.94C663.307 224.94 662.617 225.58 662.617 226.37C662.617 227.16 663.307 227.8 664.167 227.8C665.027 227.8 665.717 227.16 665.717 226.37C665.717 225.58 665.027 224.94 664.167 224.94Z" fill="#1C2B42"/>
<path d="M664.128 244.58C663.268 244.58 662.578 245.22 662.578 246.01C662.578 246.8 663.268 247.44 664.128 247.44C664.988 247.44 665.678 246.8 665.678 246.01C665.678 245.22 664.988 244.58 664.128 244.58Z" fill="#1C2B42"/>
<path d="M664.089 264.23C663.229 264.23 662.539 264.87 662.539 265.66C662.539 266.45 663.229 267.09 664.089 267.09C664.949 267.09 665.639 266.45 665.639 265.66C665.639 264.87 664.949 264.23 664.089 264.23Z" fill="#1C2B42"/>
<path d="M664.011 303.53C663.151 303.53 662.461 304.17 662.461 304.96C662.461 305.75 663.151 306.39 664.011 306.39C664.871 306.39 665.561 305.75 665.561 304.96C665.561 304.17 664.871 303.53 664.011 303.53Z" fill="#1C2B42"/>
<path d="M663.972 323.17C663.112 323.17 662.422 323.81 662.422 324.6C662.422 325.39 663.112 326.03 663.972 326.03C664.832 326.03 665.522 325.39 665.522 324.6C665.522 323.81 664.832 323.17 663.972 323.17Z" fill="#1C2B42"/>
<path d="M663.933 342.82C663.073 342.82 662.383 343.46 662.383 344.25C662.383 345.04 663.073 345.68 663.933 345.68C664.793 345.68 665.483 345.04 665.483 344.25C665.483 343.46 664.793 342.82 663.933 342.82Z" fill="#1C2B42"/>
<path d="M663.89 362.47C663.03 362.47 662.34 363.11 662.34 363.9C662.34 364.69 663.03 365.33 663.89 365.33C664.75 365.33 665.44 364.69 665.44 363.9C665.44 363.11 664.75 362.47 663.89 362.47Z" fill="#1C2B42"/>
<path d="M663.851 382.12C662.991 382.12 662.301 382.76 662.301 383.55C662.301 384.34 662.991 384.98 663.851 384.98C664.711 384.98 665.401 384.34 665.401 383.55C665.401 382.76 664.711 382.12 663.851 382.12Z" fill="#1C2B42"/>
<path d="M663.808 401.771C662.948 401.771 662.258 402.411 662.258 403.201C662.258 403.991 662.948 404.631 663.808 404.631C664.668 404.631 665.358 403.991 665.358 403.201C665.358 402.411 664.668 401.771 663.808 401.771Z" fill="#1C2B42"/>
<path d="M43.9797 505.15C43.1197 505.15 42.4297 505.79 42.4297 506.58C42.4297 507.37 43.1197 508.01 43.9797 508.01C44.8397 508.01 45.5297 507.37 45.5297 506.58C45.5297 505.79 44.8397 505.15 43.9797 505.15Z" fill="#1C2B42"/>
<path d="M65.2609 505.19C64.4009 505.19 63.7109 505.83 63.7109 506.62C63.7109 507.41 64.4009 508.05 65.2609 508.05C66.1209 508.05 66.8109 507.41 66.8109 506.62C66.8109 505.83 66.1209 505.19 65.2609 505.19Z" fill="#1C2B42"/>
<path d="M86.55 505.23C85.69 505.23 85 505.87 85 506.66C85 507.45 85.69 508.09 86.55 508.09C87.41 508.09 88.1 507.45 88.1 506.66C88.1 505.87 87.41 505.23 86.55 505.23Z" fill="#1C2B42"/>
<path d="M107.839 505.28C106.979 505.28 106.289 505.92 106.289 506.71C106.289 507.5 106.979 508.14 107.839 508.14C108.699 508.14 109.389 507.5 109.389 506.71C109.389 505.92 108.699 505.28 107.839 505.28Z" fill="#1C2B42"/>
<path d="M44.0187 485.5C43.1587 485.5 42.4688 486.14 42.4688 486.93C42.4688 487.72 43.1587 488.36 44.0187 488.36C44.8787 488.36 45.5687 487.72 45.5687 486.93C45.5687 486.14 44.8787 485.5 44.0187 485.5Z" fill="#1C2B42"/>
<path d="M43.9406 524.8C43.0806 524.8 42.3906 525.44 42.3906 526.23C42.3906 527.02 43.0806 527.66 43.9406 527.66C44.8006 527.66 45.4906 527.02 45.4906 526.23C45.4906 525.44 44.8006 524.8 43.9406 524.8Z" fill="#1C2B42"/>
<path d="M65.3391 465.9C64.4791 465.9 63.7891 466.54 63.7891 467.33C63.7891 468.12 64.4791 468.76 65.3391 468.76C66.1991 468.76 66.8891 468.12 66.8891 467.33C66.8891 466.54 66.1991 465.9 65.3391 465.9Z" fill="#1C2B42"/>
<path d="M65.3 485.54C64.44 485.54 63.75 486.18 63.75 486.97C63.75 487.76 64.44 488.4 65.3 488.4C66.16 488.4 66.85 487.76 66.85 486.97C66.85 486.18 66.16 485.54 65.3 485.54Z" fill="#1C2B42"/>
<path d="M65.2297 524.84C64.3697 524.84 63.6797 525.48 63.6797 526.27C63.6797 527.06 64.3697 527.7 65.2297 527.7C66.0897 527.7 66.7797 527.06 66.7797 526.27C66.7797 525.48 66.0897 524.84 65.2297 524.84Z" fill="#1C2B42"/>
<path d="M86.6281 465.94C85.7681 465.94 85.0781 466.58 85.0781 467.37C85.0781 468.16 85.7681 468.8 86.6281 468.8C87.4881 468.8 88.1781 468.16 88.1781 467.37C88.1781 466.58 87.4881 465.94 86.6281 465.94Z" fill="#1C2B42"/>
<path d="M86.5891 485.59C85.7291 485.59 85.0391 486.23 85.0391 487.02C85.0391 487.81 85.7291 488.45 86.5891 488.45C87.4491 488.45 88.1391 487.81 88.1391 487.02C88.1391 486.23 87.4491 485.59 86.5891 485.59Z" fill="#1C2B42"/>
<path d="M86.5109 524.88C85.6509 524.88 84.9609 525.52 84.9609 526.31C84.9609 527.1 85.6509 527.74 86.5109 527.74C87.3709 527.74 88.0609 527.1 88.0609 526.31C88.0609 525.52 87.3709 524.88 86.5109 524.88Z" fill="#1C2B42"/>
<path d="M107.948 446.33C107.088 446.33 106.398 446.97 106.398 447.76C106.398 448.55 107.088 449.19 107.948 449.19C108.808 449.19 109.498 448.55 109.498 447.76C109.498 446.97 108.808 446.33 107.948 446.33Z" fill="#1C2B42"/>
<path d="M107.917 465.98C107.057 465.98 106.367 466.62 106.367 467.41C106.367 468.2 107.057 468.84 107.917 468.84C108.777 468.84 109.467 468.2 109.467 467.41C109.467 466.62 108.777 465.98 107.917 465.98Z" fill="#1C2B42"/>
<path d="M107.878 485.63C107.018 485.63 106.328 486.27 106.328 487.06C106.328 487.85 107.018 488.49 107.878 488.49C108.738 488.49 109.428 487.85 109.428 487.06C109.428 486.27 108.738 485.63 107.878 485.63Z" fill="#1C2B42"/>
<path d="M129.198 466.021C128.338 466.021 127.648 466.661 127.648 467.451C127.648 468.241 128.338 468.881 129.198 468.881C130.058 468.881 130.748 468.241 130.748 467.451C130.748 466.661 130.058 466.021 129.198 466.021Z" fill="#1C2B42"/>
<path d="M129.159 485.67C128.299 485.67 127.609 486.31 127.609 487.1C127.609 487.89 128.299 488.53 129.159 488.53C130.019 488.53 130.709 487.89 130.709 487.1C130.709 486.31 130.019 485.67 129.159 485.67Z" fill="#1C2B42"/>
<path d="M150.48 468.93C151.34 468.93 152.03 468.29 152.03 467.5C152.03 466.71 151.34 466.07 150.48 466.07C149.62 466.07 148.93 466.71 148.93 467.5C148.93 468.29 149.62 468.93 150.48 468.93Z" fill="#1C2B42"/>
<path d="M150.448 485.72C149.588 485.72 148.898 486.36 148.898 487.15C148.898 487.53 149.058 487.87 149.318 488.13C149.598 488.41 149.998 488.59 150.448 488.59C151.308 488.59 151.998 487.95 151.998 487.16C151.998 486.93 151.938 486.71 151.828 486.52C151.578 486.05 151.058 485.73 150.448 485.73V485.72Z" fill="#1C2B42"/>
</g>
<defs>
<clipPath id="clip0_287_36778">
<rect width="960" height="540" fill="white"/>
</clipPath>
</defs>
</svg>
