<svg width="961" height="541" viewBox="0 0 961 541" fill="none" xmlns="http://www.w3.org/2000/svg">
<g clip-path="url(#clip0_287_83511)">
<path d="M959.971 0.0195312H-0.0294189V540.02H959.971V0.0195312Z" fill="#EFFFD6"/>
<path d="M1054.9 80.5495C1056.69 70.5195 1057.62 59.8595 1057.62 48.5895C1057.62 37.3195 1056.67 26.3495 1054.85 16.1895C1043.99 -44.2305 1002.02 -81.4805 943.161 -91.0505C933.121 -92.6805 922.591 -93.5205 911.631 -93.5205C900.671 -93.5205 889.241 -92.6105 878.801 -90.8705C819.901 -81.0405 778.001 -43.8905 767.131 16.1895C765.291 26.3395 764.341 37.1495 764.341 48.5895C764.341 60.0295 765.281 70.5295 767.081 80.5495C777.871 140.559 819.811 177.78 878.801 187.62C889.241 189.36 900.201 190.269 911.631 190.269C923.061 190.269 933.121 189.429 943.161 187.799C1002.12 178.209 1044.13 140.899 1054.91 80.5595L1054.9 80.5495Z" fill="#D3F1A7"/>
<path d="M110.911 33.7993C42.4306 22.9993 -38.3594 -1.85068 -100.809 -43.1607L-126.149 117.409C-56.7994 161.019 29.0806 184.249 99.9206 195.429C347.911 234.569 525.401 144.869 592.571 -47.4907L402.731 -77.4507C358.341 13.0893 264.671 58.0693 110.911 33.7993Z" fill="#D3F1A7"/>
<path d="M973.601 408.559C841.891 395.609 796.961 528.559 650.821 491.359C493.491 451.309 533.501 294.109 376.171 254.059C218.831 214.009 178.821 371.219 21.4806 331.169C8.72064 327.919 -2.72937 323.899 -13.0994 319.239V573.469H973.601V408.549V408.559Z" fill="#D3F1A7"/>
<path d="M276.381 444.749C273.561 442.449 272.831 443.299 275.501 445.769C279.281 449.279 283.321 452.889 288.571 457.459C294.561 462.589 296.201 463.709 300.221 467.229C307.041 473.149 318.351 483.379 321.071 485.849C321.471 486.209 321.881 486.569 322.301 486.929C325.271 489.449 338.261 500.509 349.301 510.209C357.141 517.009 361.991 521.219 364.521 523.419C370.511 528.609 375.051 532.409 379.581 536.059C382.071 538.069 382.701 537.329 380.371 535.149C376.121 531.179 371.721 527.209 365.751 522.009C363.431 519.989 358.761 515.579 351.951 509.609C350.841 508.639 349.711 507.679 348.581 506.759C338.811 498.759 326.501 487.929 326.501 487.929C326.501 487.929 308.031 471.889 300.241 465.119C294.371 460.019 291.541 457.569 289.811 456.069C284.551 451.509 280.401 448.029 276.401 444.769L276.381 444.749Z" fill="#EFFFD6"/>
<path d="M267.401 378.869C262.271 389.279 263.271 389.779 268.601 379.479C276.171 364.879 284.041 349.489 294.061 329.669C305.371 307.179 307.991 301.479 315.701 286.269C328.701 260.549 350.901 217.289 356.261 206.869C357.051 205.329 357.841 203.779 358.611 202.229C364.171 191.129 388.571 142.469 409.791 100.659C424.721 71.1093 433.961 52.8193 438.791 43.2593C450.181 20.6993 458.601 3.77933 466.771 -12.8607C471.261 -22.0007 470.391 -22.4407 465.701 -13.4007C457.151 3.04933 448.531 19.8593 437.121 42.4193C432.691 51.1893 423.221 69.3293 410.151 95.0893C408.021 99.2893 405.911 103.499 403.851 107.679C386.011 143.799 362.331 190.429 362.331 190.429C362.331 190.429 327.131 260.079 312.271 289.479C301.091 311.619 295.701 322.269 292.401 328.819C282.391 348.649 274.681 364.109 267.411 378.859L267.401 378.869Z" fill="#EFFFD6"/>
<mask id="mask0_287_83511" style="mask-type:luminance" maskUnits="userSpaceOnUse" x="300" y="183" width="88" height="88">
<path d="M387.32 183.459H300.75V270.029H387.32V183.459Z" fill="white"/>
</mask>
<g mask="url(#mask0_287_83511)">
<path d="M267.401 378.869C262.271 389.279 263.271 389.779 268.601 379.479C276.171 364.879 284.041 349.489 294.061 329.669C305.371 307.179 307.991 301.479 315.701 286.269C328.701 260.549 350.901 217.289 356.261 206.869C357.051 205.329 357.841 203.779 358.611 202.229C364.171 191.129 388.571 142.469 409.791 100.659C424.721 71.1093 433.961 52.8193 438.791 43.2593C450.181 20.6993 458.601 3.77933 466.771 -12.8607C471.261 -22.0007 470.391 -22.4407 465.701 -13.4007C457.151 3.04933 448.531 19.8593 437.121 42.4193C432.691 51.1893 423.221 69.3293 410.151 95.0893C408.021 99.2893 405.911 103.499 403.851 107.679C386.011 143.799 362.331 190.429 362.331 190.429C362.331 190.429 327.131 260.079 312.271 289.479C301.091 311.619 295.701 322.269 292.401 328.819C282.391 348.649 274.681 364.109 267.411 378.859L267.401 378.869Z" fill="#D3F1A7"/>
</g>
<path d="M-44.5394 505.529C-52.4994 508.729 -52.0895 509.769 -44.0495 506.789C-32.6495 502.559 -20.6995 498.039 -5.38945 492.129C11.9506 485.369 16.1805 483.489 27.9505 478.959C47.8205 471.279 81.4605 458.609 89.5605 455.559C90.7605 455.109 91.9505 454.649 93.1505 454.179C101.691 450.829 139.171 436.169 171.521 423.749C194.351 414.919 208.481 409.459 215.851 406.609C233.271 399.869 246.261 394.719 258.971 389.589C265.951 386.769 265.601 385.859 258.541 388.469C245.681 393.209 232.611 398.139 215.181 404.869C208.411 407.489 194.201 412.689 174.271 420.349C171.021 421.599 167.781 422.869 164.581 424.149C136.941 435.219 100.841 449.069 100.841 449.069C100.841 449.069 47.0305 469.869 24.3205 478.639C7.22055 485.249 -1.00945 488.439 -6.06945 490.389C-21.3795 496.319 -33.2594 500.999 -44.5394 505.539V505.529Z" fill="#EFFFD6"/>
<path d="M154.771 38.9893C140.731 37.9193 126.111 36.1993 110.901 33.7993C104.111 32.7293 97.2006 31.5193 90.1906 30.1693L130.581 3.00928L154.771 38.9893Z" fill="#D3F1A7"/>
<path d="M204.371 112.759L94.6206 186.549L20.8206 76.7994L90.1906 30.1694C97.2006 31.5194 104.111 32.7294 110.901 33.7994C126.111 36.1994 140.731 37.9194 154.771 38.9894L204.371 112.759Z" fill="#EFFFD6"/>
<path d="M195.941 330.36L201.821 344.9C201.821 344.9 211.191 370.41 215.591 380.34L229.921 418.62C229.921 418.62 236.141 434.51 238.311 439.18C239.661 442.09 240.651 443.92 241.031 444.24C241.821 444.9 240.161 439.37 234.141 424.06C234.101 423.86 233.891 423.23 233.901 423.14C227.371 407.03 222.001 391.13 215.621 374.59C215.561 374.86 215.251 374.35 215.131 373.81L215.371 373.93C210.831 363.03 208.761 355.92 204.321 346.05C204.321 346.07 205.001 347.16 204.991 347.13C191.731 312.64 174.131 265.69 159.601 228.38L159.651 228.58L159.591 228.51C160.741 232.06 166.801 248.72 166.811 248.74C161.241 236.61 156.711 222.11 151.631 208.87H151.891C154.071 214.61 156.101 219.67 156.981 221.67C149.451 200.98 133.791 159.69 125.941 140.12C125.971 140.71 128.661 146.65 128.701 148.41C126.771 143.37 124.781 138.36 122.971 133.6C123.331 133.46 124.251 136.25 124.521 136.77C121.781 128.4 58.4206 -39.2304 72.1406 1.36956L71.5706 0.419559C75.4206 10.7796 78.6106 19.3596 82.3506 30.2496C82.9606 31.7596 82.9906 31.9496 83.1706 31.8696C83.3506 32.2596 83.6606 32.9196 83.6706 32.7096C84.0506 32.3796 85.1606 35.8096 85.7306 37.2796C83.6606 36.0296 98.3006 70.7196 100.041 75.4396C99.7206 76.6096 103.521 84.6496 104.311 87.5696C104.211 87.3796 103.581 86.1796 103.501 86.0296C104.041 88.7296 121.041 129.82 115.701 118.28C133.021 167.96 168.591 256.32 187.591 309.88L187.521 309.45C187.661 309.88 188.191 311.17 188.221 311.53C190.481 316.66 195.921 330.35 195.921 330.35L195.941 330.36ZM150.381 208.32C150.381 208.32 150.321 208.27 150.331 208.31C150.391 208.25 147.761 201.47 147.671 201.19L147.911 201.15C150.951 207.86 155.511 224.37 150.421 209.02C150.171 208.53 150.351 208.45 150.391 208.32H150.381ZM127.331 147.72C126.901 146.53 126.431 145.24 125.911 143.81C132.591 159.24 139.801 180.78 146.691 197.91C143.471 192.41 138.651 178.18 135.881 170.74C132.811 163.35 129.711 154.4 127.341 147.72H127.331ZM88.9406 46.3996H88.8106L88.6006 45.8596C88.6306 45.8296 88.6906 45.8996 88.7506 46.0096C88.8106 46.0896 88.9006 46.2696 88.9406 46.3996ZM193.281 321.81C192.661 320.72 191.091 316.3 192.551 319.08C192.781 319.86 193.771 321.96 193.281 321.81ZM120.841 129.87C120.481 130.01 118.211 124.29 118.711 124.08C119.471 126.04 120.161 127.97 120.841 129.87ZM210.001 364.58C210.971 365.95 210.371 365.68 210.321 366.28C210.231 365.88 209.721 364.48 210.011 364.71V364.58H210.001ZM220.491 391.44C220.831 391.76 221.531 393.23 221.811 393.94C222.371 395.85 220.641 392.33 220.491 391.44ZM237.431 435.84C237.671 435.82 238.141 436.85 238.041 437.23C237.841 437.18 237.221 435.94 237.401 435.67C237.401 435.68 237.401 435.74 237.421 435.85L237.431 435.84ZM111.481 102.92C112.711 104.23 114.191 109.7 115.451 112.46C114.581 112.07 113.121 106.83 112.181 104.71C111.891 103.95 111.661 103.37 111.481 102.92ZM177.861 277.74C178.401 277.46 180.201 283.54 181.071 285.45L180.841 285.5C179.671 282.6 178.861 280.91 177.911 277.85L177.861 277.73V277.74ZM132.131 156.61C132.781 157.63 133.281 159.59 133.711 160.72C133.391 160.83 131.501 156.02 132.131 156.6V156.61ZM150.731 205.73C150.471 206.1 149.731 203.63 149.431 202.95C149.691 203.41 150.241 204.22 150.451 204.79C150.601 205.19 150.601 205.31 150.721 205.73H150.731ZM176.821 275.67C175.951 273.42 175.021 270.95 174.141 268.6H174.391C175.301 270.98 176.191 273.33 177.061 275.65L176.821 275.67ZM168.411 252.54L168.631 252.46C170.111 255.71 169.691 256.31 168.441 252.62L168.411 252.54ZM188.381 305.28C188.261 304.94 188.071 304.38 187.941 304.05C186.111 299.31 189.451 305.66 188.381 305.28ZM198.061 330.03C198.271 330.49 198.581 331.09 198.761 331.61C200.011 334.97 198.061 331.47 198.061 330.03Z" fill="#EFFFD6"/>
<path d="M341.181 356.65C332.741 361.15 333.251 362.14 341.801 357.85C353.931 351.76 366.631 345.29 382.901 336.88C401.321 327.29 405.811 324.71 418.311 318.27C439.431 307.34 475.191 289.19 483.811 284.82C485.081 284.17 486.361 283.52 487.631 282.85C496.711 278.11 536.521 257.32 570.901 239.62C595.161 227.07 610.171 219.3 618.011 215.24C636.531 205.65 650.321 198.39 663.801 191.17C671.211 187.21 670.761 186.34 663.251 190.1C649.571 196.94 635.671 204 617.151 213.57C609.951 217.29 594.841 224.81 573.651 235.72C570.201 237.5 566.761 239.3 563.361 241.1C534.011 256.69 495.641 276.43 495.641 276.43C495.641 276.43 438.461 306.01 414.321 318.49C396.151 327.9 387.401 332.42 382.031 335.2C365.761 343.63 353.141 350.25 341.171 356.64L341.181 356.65Z" fill="#D3F1A7"/>
<path d="M896.787 36.0994L544.212 65.52L567.265 341.78L919.839 312.359L896.787 36.0994Z" fill="#D3F1A7"/>
<path d="M896.781 36.0796L764.341 47.1296C764.341 47.6196 764.321 48.0996 764.321 48.5796C764.321 59.8596 765.261 70.5196 767.061 80.5496C777.851 140.56 819.791 177.78 878.781 187.62C888.621 189.26 898.921 190.15 909.641 190.25L896.771 36.0796H896.781Z" fill="#EFFFD6"/>
<path d="M384.471 398.679C386.261 388.649 387.191 377.989 387.191 366.719C387.191 355.449 386.241 344.479 384.421 334.319C373.561 273.899 331.591 236.649 272.731 227.079C262.691 225.449 252.161 224.609 241.201 224.609C230.241 224.609 218.811 225.519 208.371 227.259C149.471 237.089 107.571 274.239 96.7006 334.319C94.8606 344.469 93.9106 355.279 93.9106 366.719C93.9106 378.159 94.8506 388.659 96.6506 398.679C107.441 458.689 149.381 495.909 208.371 505.749C218.811 507.489 229.771 508.399 241.201 508.399C252.631 508.399 262.691 507.559 272.731 505.929C331.691 496.339 373.701 459.029 384.481 398.689L384.471 398.679Z" fill="#EFFFD6"/>
<path d="M328.271 247.49C312.291 237.36 293.581 230.48 272.731 227.09C262.691 225.46 252.161 224.62 241.201 224.62C230.241 224.62 218.811 225.53 208.371 227.27C149.471 237.1 107.571 274.25 96.7005 334.33C96.6005 334.86 96.5205 335.4 96.4305 335.93C183.561 323.01 232.831 246.44 328.281 247.49H328.271Z" fill="#D3F1A7"/>
<path d="M420.5 158.199C420.46 157.979 420.42 157.759 420.37 157.549C394.85 170.859 367.17 181.399 337.46 189.089C343.13 200.469 353.75 207.619 367.41 209.889C370.56 210.419 373.86 210.689 377.31 210.689C380.76 210.689 383.79 210.439 386.82 209.949C404.6 207.059 417.27 195.799 420.52 177.609C421.06 174.579 421.34 171.369 421.34 167.969C421.34 164.569 421.05 161.259 420.5 158.199Z" fill="#D3F1A7"/>
<path d="M514.161 43.1393C515.021 38.3093 515.471 33.1693 515.471 27.7393C515.471 22.3093 515.011 17.0193 514.131 12.1293C508.901 -16.9807 488.681 -34.9207 460.321 -39.5307C455.481 -40.3207 450.411 -40.7207 445.131 -40.7207C439.851 -40.7207 434.341 -40.2807 429.311 -39.4407C400.941 -34.7007 380.751 -16.8107 375.511 12.1393C374.631 17.0293 374.161 22.2393 374.161 27.7493C374.161 33.2593 374.611 38.3193 375.481 43.1493C380.681 72.0593 400.881 89.9893 429.301 94.7293C434.331 95.5693 439.611 96.0093 445.121 96.0093C450.631 96.0093 455.471 95.6093 460.311 94.8193C488.711 90.1993 508.951 72.2293 514.141 43.1593L514.161 43.1393Z" fill="#EFFFD6"/>
<path d="M441.951 22.4993C446.341 20.4093 445.89 19.3893 441.4 21.2693C435.04 23.9293 428.391 26.8093 419.881 30.5993C410.271 34.9493 407.961 36.2393 401.421 39.1293C390.391 44.0593 371.651 52.0893 367.141 54.0193C366.471 54.3093 365.811 54.5993 365.141 54.8993C360.411 57.0593 339.641 66.5193 321.661 74.4693C308.991 80.1293 301.15 83.6393 297.05 85.4693C287.38 89.7993 280.2 93.1293 273.18 96.4993C269.33 98.3493 269.721 99.2293 273.671 97.5993C280.851 94.6193 288.13 91.4993 297.81 87.1793C301.57 85.4993 309.51 82.2493 320.59 77.3493C322.39 76.5493 324.19 75.7293 325.96 74.8893C341.23 67.6693 361.291 58.8193 361.291 58.8193C361.291 58.8193 391.16 45.4793 403.77 39.8493C413.26 35.6093 417.831 33.5593 420.641 32.3093C429.141 28.5093 435.721 25.4693 441.941 22.5093L441.951 22.4993Z" fill="#EFFFD6"/>
<path d="M96.9506 517.899C97.9606 512.239 98.4906 506.219 98.4906 499.849C98.4906 493.479 97.9506 487.289 96.9206 481.559C90.7906 447.449 67.0906 426.419 33.8606 421.009C28.1906 420.089 22.2406 419.609 16.0606 419.609C9.88062 419.609 3.42063 420.119 -2.47937 421.109C-35.7294 426.659 -59.3894 447.629 -65.5294 481.559C-66.5694 487.289 -67.1094 493.389 -67.1094 499.849C-67.1094 506.309 -66.5794 512.239 -65.5594 517.899C-59.4694 551.779 -35.7894 572.789 -2.47937 578.349C3.41063 579.329 9.60062 579.849 16.0606 579.849C22.5206 579.849 28.1906 579.379 33.8606 578.449C67.1506 573.039 90.8706 551.969 96.9506 517.899Z" fill="#EFFFD6"/>
<path d="M542.651 424.83C531.281 428.83 531.641 429.89 543.091 426.11C559.321 420.75 576.341 415.04 598.191 407.6C622.941 399.11 629.021 396.79 645.811 391.09C658.071 386.95 673.981 381.58 688.571 376.65C703.091 371.8 716.291 367.38 723.241 365.06C729.841 365.45 732.141 365.59 733.761 365.68C735.561 365.78 737.361 365.88 739.161 365.99C752.041 366.66 808.541 369.59 857.181 372.35L882.091 373.72L918.661 352.07C941.261 338.68 958.091 328.58 974.571 318.59C983.621 313.1 983.131 312.26 973.961 317.55C957.271 327.18 940.321 337.09 917.711 350.46C911.181 354.28 899.351 361.18 881.571 371.57C876.971 371.3 870.081 370.9 862.631 370.46C857.751 370.21 852.861 369.96 848.021 369.71C806.201 367.77 751.941 364.69 751.941 364.69L722.981 363.1L640.961 391.06C616.561 399.38 604.831 403.38 597.611 405.84C575.771 413.29 558.801 419.17 542.681 424.84L542.651 424.83Z" fill="#D3F1A7"/>
<path d="M612.991 398.1L582.951 459.87C540.301 427.85 521.021 381.95 493.801 340.77L494.061 340.25L612.991 398.1Z" fill="#D3F1A7"/>
<path d="M582.951 459.87L555.151 517.03L436.221 459.19L493.801 340.77C521.021 381.95 540.301 427.85 582.951 459.87Z" fill="#EFFFD6"/>
<path d="M776.861 371.349C777.591 367.269 777.971 362.919 777.971 358.329C777.971 353.739 777.581 349.269 776.841 345.139C772.421 320.529 755.321 305.359 731.351 301.459C727.261 300.789 722.97 300.449 718.51 300.449C714.05 300.449 709.391 300.819 705.141 301.529C681.151 305.529 664.081 320.669 659.651 345.139C658.901 349.279 658.51 353.679 658.51 358.329C658.51 362.979 658.89 367.269 659.63 371.349C664.03 395.789 681.111 410.949 705.141 414.959C709.391 415.669 713.86 416.039 718.51 416.039C723.16 416.039 727.261 415.699 731.351 415.029C755.361 411.129 772.481 395.929 776.861 371.349Z" fill="#D3F1A7"/>
<path d="M291.9 99.2897C292.12 98.0797 292.23 96.7897 292.23 95.4197C292.23 94.0497 292.121 92.7297 291.891 91.4997C290.581 84.1897 285.5 79.6797 278.38 78.5197C277.16 78.3197 275.89 78.2197 274.57 78.2197C273.25 78.2197 271.86 78.3297 270.6 78.5397C263.47 79.7297 258.4 84.2197 257.09 91.4897C256.87 92.7197 256.75 94.0297 256.75 95.4097C256.75 96.7897 256.86 98.0597 257.08 99.2797C258.39 106.54 263.46 111.04 270.6 112.23C271.86 112.44 273.19 112.55 274.57 112.55C275.95 112.55 277.17 112.45 278.38 112.25C285.51 111.09 290.6 106.58 291.9 99.2697V99.2897Z" fill="#EFFFD6"/>
<path d="M897.34 377.299C897.56 376.089 897.67 374.8 897.67 373.43C897.67 372.06 897.56 370.74 897.33 369.51C896.02 362.2 890.94 357.69 883.82 356.53C882.6 356.33 881.33 356.229 880.01 356.229C878.69 356.229 877.3 356.339 876.04 356.549C868.91 357.739 863.84 362.23 862.53 369.5C862.31 370.73 862.19 372.039 862.19 373.419C862.19 374.799 862.3 376.07 862.52 377.29C863.83 384.55 868.9 389.05 876.04 390.24C877.3 390.45 878.63 390.56 880.01 390.56C881.39 390.56 882.61 390.46 883.82 390.26C890.95 389.1 896.04 384.59 897.34 377.28V377.299Z" fill="#D3F1A7"/>
<path d="M417.421 542.869C417.871 540.359 418.101 537.699 418.101 534.879C418.101 532.059 417.861 529.319 417.411 526.779C414.701 511.679 404.211 502.369 389.491 499.979C386.981 499.569 384.351 499.359 381.611 499.359C378.871 499.359 376.011 499.589 373.401 500.019C358.681 502.479 348.211 511.759 345.491 526.779C345.031 529.319 344.791 532.019 344.791 534.879C344.791 537.739 345.021 540.359 345.481 542.869C348.181 557.869 358.661 567.169 373.401 569.629C376.011 570.069 378.751 570.289 381.611 570.289C384.471 570.289 386.981 570.079 389.491 569.669C404.231 567.269 414.731 557.949 417.421 542.869Z" fill="#EFFFD6"/>
<path d="M26.7012 209.322L-43.0663 215.144L-35.6363 304.185L34.1312 298.363L26.7012 209.322Z" fill="#D3F1A7"/>
<path d="M769.181 324.919C761.081 312.159 747.841 304.139 731.351 301.449C727.261 300.779 722.971 300.439 718.511 300.439C714.051 300.439 709.391 300.809 705.141 301.519C685.111 304.859 669.911 315.969 662.861 333.789L769.191 324.909L769.181 324.919Z" fill="#EFFFD6"/>
<path d="M1034.76 -10.9203C1039.76 -14.0303 1039.19 -14.9903 1034.07 -12.0803C1026.8 -7.9503 1019.21 -3.5403 1009.51 2.2297C998.541 8.8097 995.931 10.6397 988.471 15.0497C975.891 22.5397 954.501 34.8997 949.341 37.8797C948.581 38.3197 947.821 38.7697 947.061 39.2197C941.661 42.4797 917.981 56.7697 897.471 68.8797C883.011 77.4797 874.071 82.8097 869.401 85.5897C858.371 92.1597 850.181 97.1697 842.191 102.17C837.801 104.92 838.301 105.75 842.811 103.2C851.011 98.5697 859.321 93.7597 870.361 87.1997C874.651 84.6497 883.721 79.5597 896.361 72.0997C898.421 70.8797 900.461 69.6497 902.481 68.3997C919.881 57.6197 942.771 44.1197 942.771 44.1197C942.771 44.1197 976.851 23.8497 991.231 15.2997C1002.06 8.8497 1007.27 5.7497 1010.47 3.8497C1020.16 -1.9303 1027.66 -6.4903 1034.76 -10.9103V-10.9203Z" fill="#EFFFD6"/>
<path d="M807.271 534.309L811.341 541.509C811.341 541.509 817.601 554.399 820.741 559.219L830.391 578.489C830.391 578.489 834.651 586.419 836.211 588.659C837.181 590.059 837.921 590.899 838.251 590.989C838.911 591.179 837.901 588.289 833.771 580.659C833.751 580.549 833.61 580.229 833.63 580.169C829.11 572.189 825.641 564.039 821.291 555.759C821.211 555.939 820.971 555.709 820.911 555.419H821.121C817.951 550.049 816.701 546.319 813.531 541.549C813.531 541.549 814.061 542.039 814.051 542.029C805.041 524.759 793.171 501.139 783.261 482.499L783.281 482.609L783.241 482.579C783.971 484.409 788.01 492.849 788.01 492.849C784.01 487.009 781.171 479.479 777.721 472.849L777.961 472.789C779.431 475.669 780.841 478.169 781.461 479.149C776.441 468.679 765.841 447.949 760.431 438.239C760.401 438.579 762.331 441.459 762.211 442.499C760.901 439.969 759.531 437.489 758.311 435.089C758.651 434.919 759.24 436.349 759.44 436.589C757.69 432.269 714.871 348.059 723.751 368.879L723.311 368.459C725.901 373.679 728.041 378.009 730.481 383.579C730.901 384.329 730.911 384.429 731.091 384.339C731.221 384.529 731.451 384.839 731.471 384.719C731.851 384.419 732.551 386.189 732.951 386.929C731.161 386.719 741.431 403.749 742.591 406.129C742.191 406.919 744.941 410.759 745.401 412.299C745.321 412.209 744.861 411.649 744.791 411.589C745.041 413.069 756.881 433.329 753.041 427.789C764.391 453.129 788.961 496.949 801.491 524.189L801.461 523.949C801.551 524.169 801.921 524.809 801.911 525.019C803.511 527.509 807.26 534.319 807.26 534.319L807.271 534.309ZM776.621 472.849C776.621 472.849 776.57 472.839 776.57 472.849C776.63 472.799 774.831 469.409 774.781 469.269L775.001 469.189C777.181 472.429 779.861 481.159 776.581 473.259C776.401 473.029 776.581 472.939 776.621 472.849ZM761.011 442.439C760.721 441.839 760.411 441.179 760.061 440.459C764.771 447.989 769.421 459.059 774.181 467.549C771.731 465.089 768.611 457.789 766.741 454.039C764.601 450.399 762.571 445.829 761.001 442.429L761.011 442.439ZM735.041 391.569L734.921 391.609L734.781 391.329C734.781 391.329 734.861 391.329 734.901 391.379C734.951 391.409 735.011 391.499 735.041 391.569ZM805.611 529.859C805.141 529.369 804.11 527.119 805.19 528.409C805.33 528.819 806.051 529.819 805.611 529.859ZM756.681 433.409C756.331 433.589 754.781 430.739 755.251 430.489C755.761 431.469 756.221 432.449 756.681 433.409ZM817.051 551.209C817.811 551.779 817.29 551.779 817.19 552.149C817.14 551.929 816.801 551.219 817.051 551.289V551.209ZM824.221 564.609C824.501 564.709 825.011 565.419 825.201 565.769C825.541 566.769 824.271 565.109 824.221 564.609ZM835.701 586.879C835.921 586.809 836.261 587.299 836.141 587.549C835.961 587.569 835.511 586.989 835.701 586.779C835.701 586.789 835.691 586.829 835.701 586.879ZM750.551 419.649C751.561 420.109 752.42 423.019 753.32 424.349C752.55 424.349 751.691 421.569 751.031 420.549C750.841 420.169 750.681 419.879 750.551 419.649ZM795.491 507.399C796.011 507.089 797.111 510.279 797.731 511.199L797.51 511.289C796.7 509.849 796.111 509.049 795.521 507.459L795.491 507.399ZM764.591 446.529C765.091 446.979 765.371 448.019 765.671 448.589C765.361 448.739 764.071 446.339 764.591 446.529ZM777.171 471.199C776.901 471.489 776.441 470.199 776.231 469.869C776.421 470.079 776.861 470.419 777.001 470.709C777.101 470.909 777.091 470.979 777.171 471.199ZM794.721 506.429C794.131 505.299 793.501 504.059 792.911 502.879L793.141 502.809C793.751 504.009 794.351 505.189 794.951 506.349L794.721 506.429ZM789.121 494.719L789.331 494.609C790.391 496.179 789.951 496.649 789.141 494.759L789.121 494.719ZM802.63 521.199C802.55 521.019 802.431 520.739 802.341 520.579C801.091 518.209 803.58 521.159 802.63 521.199ZM809.241 533.559C809.391 533.779 809.621 534.059 809.741 534.329C810.581 536.029 809.111 534.429 809.241 533.559Z" fill="#EFFFD6"/>
<path d="M420.371 157.549C394.851 170.859 367.171 181.399 337.461 189.089C335.741 185.639 334.481 181.809 333.721 177.609C333.171 174.579 332.891 171.369 332.891 167.969C332.891 164.569 333.181 161.259 333.731 158.199C337.011 140.079 349.651 128.869 367.411 125.909C370.561 125.379 373.861 125.109 377.311 125.109C380.761 125.109 383.791 125.359 386.821 125.859C404.361 128.709 416.921 139.709 420.371 157.549Z" fill="#EFFFD6"/>
<path d="M275.95 386.029C269.23 385.059 269.05 386.169 275.74 387.359C285.22 389.059 295.19 390.749 308.02 392.829C322.58 395.129 326.23 395.479 336.09 397.099C352.75 399.789 380.79 404.619 387.55 405.789C388.55 405.959 389.55 406.129 390.56 406.279C397.74 407.399 429.23 412.299 456.31 416.749C475.44 419.829 487.29 421.739 493.47 422.739C508.08 425.089 519.01 426.739 529.76 428.259C535.67 429.089 535.82 428.139 529.95 427.069C519.27 425.129 508.37 423.259 493.76 420.889C488.08 419.969 476.301 417.799 459.611 415.059C456.891 414.609 454.17 414.189 451.47 413.799C428.13 410.399 397.921 405.429 397.921 405.429C397.921 405.429 352.82 398.149 333.79 395.079C319.46 392.769 312.56 391.659 308.32 390.979C295.48 388.919 285.48 387.389 275.95 386.019V386.029Z" fill="#EFFFD6"/>
<mask id="mask1_287_83511" style="mask-type:luminance" maskUnits="userSpaceOnUse" x="93" y="224" width="295" height="285">
<path d="M384.471 398.679C386.261 388.649 387.191 377.989 387.191 366.719C387.191 355.449 386.241 344.479 384.421 334.319C373.561 273.899 331.591 236.649 272.731 227.079C262.691 225.449 252.161 224.609 241.201 224.609C230.241 224.609 218.811 225.519 208.371 227.259C149.471 237.089 107.571 274.239 96.7006 334.319C94.8606 344.469 93.9106 355.279 93.9106 366.719C93.9106 378.159 94.8506 388.659 96.6506 398.679C107.441 458.689 149.381 495.909 208.371 505.749C218.811 507.489 229.771 508.399 241.201 508.399C252.631 508.399 262.691 507.559 272.731 505.929C331.691 496.339 373.701 459.029 384.481 398.689L384.471 398.679Z" fill="white"/>
</mask>
<g mask="url(#mask1_287_83511)">
<path d="M275.951 386.029C269.231 385.059 269.051 386.169 275.741 387.359C285.221 389.059 295.191 390.749 308.021 392.829C322.581 395.129 326.231 395.479 336.091 397.099C352.751 399.789 380.791 404.619 387.551 405.789C388.551 405.959 389.551 406.129 390.561 406.279C397.741 407.399 429.231 412.299 456.311 416.749C475.441 419.829 487.291 421.739 493.471 422.739C508.081 425.089 519.011 426.739 529.761 428.259C535.671 429.089 535.821 428.139 529.951 427.069C519.271 425.129 508.371 423.259 493.761 420.889C488.081 419.969 476.301 417.799 459.611 415.059C456.891 414.609 454.171 414.189 451.471 413.799C428.131 410.399 397.921 405.429 397.921 405.429C397.921 405.429 352.821 398.149 333.791 395.079C319.461 392.769 312.561 391.659 308.321 390.979C295.481 388.919 285.481 387.389 275.951 386.019V386.029Z" fill="#D3F1A7"/>
</g>
<mask id="mask2_287_83511" style="mask-type:luminance" maskUnits="userSpaceOnUse" x="-14" y="247" width="988" height="327">
<path d="M973.601 408.559C841.891 395.609 796.961 528.559 650.821 491.359C493.491 451.309 533.501 294.109 376.171 254.059C218.831 214.009 178.821 371.219 21.4806 331.169C8.72064 327.919 -2.72937 323.899 -13.0994 319.239V573.469H973.601V408.549V408.559Z" fill="white"/>
</mask>
<g mask="url(#mask2_287_83511)">
<path d="M341.181 356.649C332.741 361.149 333.251 362.139 341.801 357.849C353.931 351.759 366.631 345.289 382.901 336.879C401.321 327.289 405.811 324.709 418.311 318.269C439.431 307.339 475.191 289.189 483.811 284.819C485.081 284.169 486.361 283.519 487.631 282.849C496.711 278.109 536.521 257.319 570.901 239.619C595.161 227.069 610.171 219.299 618.011 215.239C636.531 205.649 650.321 198.389 663.801 191.169C671.211 187.209 670.761 186.339 663.251 190.099C649.571 196.939 635.671 203.999 617.151 213.569C609.951 217.289 594.841 224.809 573.651 235.719C570.201 237.499 566.761 239.299 563.361 241.099C534.011 256.689 495.641 276.429 495.641 276.429C495.641 276.429 438.461 306.009 414.321 318.489C396.151 327.899 387.401 332.419 382.031 335.199C365.761 343.629 353.141 350.249 341.171 356.639L341.181 356.649Z" fill="#EFFFD6"/>
</g>
<path d="M724.701 369.92C721.651 364.24 720.661 364.75 723.501 370.54C727.531 378.75 731.841 387.33 737.481 398.32C743.921 410.74 745.721 413.73 750.031 422.18C757.351 436.43 769.431 460.61 772.331 466.44C772.761 467.3 773.201 468.16 773.641 469.02C776.831 475.14 790.811 501.98 802.651 525.19C811.061 541.56 816.271 551.69 818.991 556.98C825.421 569.47 830.321 578.76 835.221 587.83C837.911 592.81 838.771 592.37 836.291 587.28C831.771 578.02 827.071 568.62 820.661 556.12C818.171 551.26 813.211 541.02 805.911 526.72C804.721 524.39 803.511 522.07 802.291 519.78C791.731 500.03 778.541 474.12 778.541 474.12C778.541 474.12 758.721 435.53 750.351 419.25C744.051 406.99 741.011 401.09 739.151 397.46C733.501 386.48 729.031 377.98 724.711 369.92H724.701Z" fill="#EFFFD6"/>
<mask id="mask3_287_83511" style="mask-type:luminance" maskUnits="userSpaceOnUse" x="729" y="404" width="65" height="81">
<path d="M793.591 472.51C784.951 477.04 776.111 481.23 766.941 484.86L729.951 415.24C730.411 415.17 730.881 415.1 731.341 415.03C741.091 413.44 749.701 410 756.781 404.83L793.591 472.51Z" fill="white"/>
</mask>
<g mask="url(#mask3_287_83511)">
<path d="M724.701 369.92C721.651 364.24 720.661 364.75 723.501 370.54C727.531 378.75 731.841 387.33 737.481 398.32C743.921 410.74 745.721 413.73 750.031 422.18C757.351 436.43 769.431 460.61 772.331 466.44C772.761 467.3 773.201 468.16 773.641 469.02C776.831 475.14 790.811 501.98 802.651 525.19C811.061 541.56 816.271 551.69 818.991 556.98C825.421 569.47 830.321 578.76 835.221 587.83C837.911 592.81 838.771 592.37 836.291 587.28C831.771 578.02 827.071 568.62 820.661 556.12C818.171 551.26 813.211 541.02 805.911 526.72C804.721 524.39 803.511 522.07 802.291 519.78C791.731 500.03 778.541 474.12 778.541 474.12C778.541 474.12 758.721 435.53 750.351 419.25C744.051 406.99 741.011 401.09 739.151 397.46C733.501 386.48 729.031 377.98 724.711 369.92H724.701Z" fill="#D3F1A7"/>
</g>
<mask id="mask4_287_83511" style="mask-type:luminance" maskUnits="userSpaceOnUse" x="764" y="36" width="146" height="155">
<path d="M896.781 36.0796L764.341 47.1296C764.341 47.6196 764.321 48.0996 764.321 48.5796C764.321 59.8596 765.261 70.5196 767.061 80.5496C777.851 140.56 819.791 177.78 878.781 187.62C888.621 189.26 898.921 190.15 909.641 190.25L896.771 36.0796H896.781Z" fill="white"/>
</mask>
<g mask="url(#mask4_287_83511)">
<path d="M1034.76 -10.9203C1039.76 -14.0303 1039.19 -14.9903 1034.07 -12.0803C1026.8 -7.9503 1019.21 -3.5403 1009.51 2.2297C998.541 8.8097 995.931 10.6397 988.471 15.0497C975.891 22.5397 954.501 34.8997 949.341 37.8797C948.581 38.3197 947.821 38.7697 947.061 39.2197C941.661 42.4797 917.981 56.7697 897.471 68.8797C883.011 77.4797 874.071 82.8097 869.401 85.5897C858.371 92.1597 850.181 97.1697 842.191 102.17C837.801 104.92 838.301 105.75 842.811 103.2C851.011 98.5697 859.321 93.7597 870.361 87.1997C874.651 84.6497 883.721 79.5597 896.361 72.0997C898.421 70.8797 900.461 69.6497 902.481 68.3997C919.881 57.6197 942.771 44.1197 942.771 44.1197C942.771 44.1197 976.851 23.8497 991.231 15.2997C1002.06 8.8497 1007.27 5.7497 1010.47 3.8497C1020.16 -1.9303 1027.66 -6.4903 1034.76 -10.9103V-10.9203Z" fill="#D3F1A7"/>
</g>
<mask id="mask5_287_83511" style="mask-type:luminance" maskUnits="userSpaceOnUse" x="374" y="-41" width="142" height="138">
<path d="M514.161 43.1393C515.021 38.3093 515.471 33.1693 515.471 27.7393C515.471 22.3093 515.011 17.0193 514.131 12.1293C508.901 -16.9807 488.681 -34.9207 460.321 -39.5307C455.481 -40.3207 450.411 -40.7207 445.131 -40.7207C439.851 -40.7207 434.341 -40.2807 429.311 -39.4407C400.941 -34.7007 380.751 -16.8107 375.511 12.1393C374.631 17.0293 374.161 22.2393 374.161 27.7493C374.161 33.2593 374.611 38.3193 375.481 43.1493C380.681 72.0593 400.881 89.9893 429.301 94.7293C434.331 95.5693 439.611 96.0093 445.121 96.0093C450.631 96.0093 455.471 95.6093 460.311 94.8193C488.711 90.1993 508.951 72.2293 514.141 43.1593L514.161 43.1393Z" fill="white"/>
</mask>
<g mask="url(#mask5_287_83511)">
<path d="M441.951 22.4993C446.341 20.4093 445.891 19.3893 441.401 21.2693C435.041 23.9293 428.391 26.8093 419.881 30.5993C410.271 34.9493 407.961 36.2393 401.421 39.1293C390.391 44.0593 371.651 52.0893 367.141 54.0193C366.471 54.3093 365.811 54.5993 365.141 54.8993C360.411 57.0593 339.641 66.5193 321.661 74.4693C308.991 80.1293 301.151 83.6393 297.051 85.4693C287.381 89.7993 280.201 93.1293 273.181 96.4993C269.331 98.3493 269.721 99.2293 273.671 97.5993C280.851 94.6193 288.131 91.4993 297.811 87.1793C301.571 85.4993 309.511 82.2493 320.591 77.3493C322.391 76.5493 324.191 75.7293 325.961 74.8893C341.231 67.6693 361.291 58.8193 361.291 58.8193C361.291 58.8193 391.161 45.4793 403.771 39.8493C413.261 35.6093 417.831 33.5593 420.641 32.3093C429.141 28.5093 435.721 25.4693 441.941 22.5093L441.951 22.4993Z" fill="#D3F1A7"/>
</g>
<mask id="mask6_287_83511" style="mask-type:luminance" maskUnits="userSpaceOnUse" x="59" y="-14" width="48" height="45">
<path d="M106.731 -13.5806V19.0494L90.1905 30.1694C79.9805 28.1994 69.5605 25.9394 59.0505 23.3594V-13.5806H106.731Z" fill="white"/>
</mask>
<g mask="url(#mask6_287_83511)">
<path d="M195.941 330.36L201.821 344.9C201.821 344.9 211.19 370.41 215.59 380.34L229.921 418.62C229.921 418.62 236.141 434.51 238.311 439.18C239.661 442.09 240.651 443.92 241.031 444.24C241.821 444.9 240.161 439.37 234.141 424.06C234.101 423.86 233.89 423.23 233.9 423.14C227.37 407.03 222 391.13 215.62 374.59C215.56 374.86 215.251 374.35 215.131 373.81L215.37 373.93C210.83 363.03 208.761 355.92 204.321 346.05C204.321 346.07 205.001 347.16 204.991 347.13C191.731 312.64 174.131 265.69 159.601 228.38L159.65 228.58L159.59 228.51C160.74 232.06 166.801 248.72 166.811 248.74C161.241 236.61 156.711 222.11 151.631 208.87H151.891C154.071 214.61 156.1 219.67 156.98 221.67C149.45 200.98 133.791 159.69 125.941 140.12C125.971 140.71 128.661 146.65 128.701 148.41C126.771 143.37 124.781 138.36 122.971 133.6C123.331 133.46 124.251 136.25 124.521 136.77C121.781 128.4 58.4205 -39.2304 72.1405 1.36956L71.5705 0.419559C75.4205 10.7796 78.6105 19.3596 82.3505 30.2496C82.9605 31.7596 82.9905 31.9496 83.1705 31.8696C83.3505 32.2596 83.6605 32.9196 83.6705 32.7096C84.0505 32.3796 85.1605 35.8096 85.7305 37.2796C83.6605 36.0296 98.3005 70.7196 100.041 75.4396C99.7205 76.6096 103.521 84.6496 104.311 87.5696C104.211 87.3796 103.581 86.1796 103.501 86.0296C104.041 88.7296 121.041 129.82 115.701 118.28C133.021 167.96 168.59 256.32 187.59 309.88L187.521 309.45C187.661 309.88 188.191 311.17 188.221 311.53C190.481 316.66 195.921 330.35 195.921 330.35L195.941 330.36ZM150.381 208.32C150.381 208.32 150.321 208.27 150.331 208.31C150.391 208.25 147.761 201.47 147.671 201.19L147.911 201.15C150.951 207.86 155.511 224.37 150.421 209.02C150.171 208.53 150.351 208.45 150.391 208.32H150.381ZM127.331 147.72C126.901 146.53 126.431 145.24 125.911 143.81C132.591 159.24 139.801 180.78 146.691 197.91C143.471 192.41 138.651 178.18 135.881 170.74C132.811 163.35 129.711 154.4 127.341 147.72H127.331ZM88.9405 46.3996H88.8105L88.6005 45.8596C88.6305 45.8296 88.6905 45.8996 88.7505 46.0096C88.8105 46.0896 88.9005 46.2696 88.9405 46.3996ZM193.281 321.81C192.661 320.72 191.091 316.3 192.551 319.08C192.781 319.86 193.771 321.96 193.281 321.81ZM120.841 129.87C120.481 130.01 118.211 124.29 118.711 124.08C119.471 126.04 120.161 127.97 120.841 129.87ZM210.001 364.58C210.971 365.95 210.371 365.68 210.321 366.28C210.231 365.88 209.72 364.48 210.01 364.71V364.58H210.001ZM220.491 391.44C220.831 391.76 221.531 393.23 221.811 393.94C222.371 395.85 220.641 392.33 220.491 391.44ZM237.431 435.84C237.671 435.82 238.141 436.85 238.041 437.23C237.841 437.18 237.22 435.94 237.4 435.67C237.4 435.68 237.401 435.74 237.421 435.85L237.431 435.84ZM111.481 102.92C112.711 104.23 114.191 109.7 115.451 112.46C114.581 112.07 113.121 106.83 112.181 104.71C111.891 103.95 111.661 103.37 111.481 102.92ZM177.861 277.74C178.401 277.46 180.201 283.54 181.071 285.45L180.84 285.5C179.67 282.6 178.861 280.91 177.911 277.85L177.861 277.73V277.74ZM132.131 156.61C132.781 157.63 133.281 159.59 133.711 160.72C133.391 160.83 131.501 156.02 132.131 156.6V156.61ZM150.73 205.73C150.47 206.1 149.731 203.63 149.431 202.95C149.691 203.41 150.241 204.22 150.451 204.79C150.601 205.19 150.601 205.31 150.721 205.73H150.73ZM176.821 275.67C175.951 273.42 175.021 270.95 174.141 268.6H174.391C175.301 270.98 176.191 273.33 177.061 275.65L176.821 275.67ZM168.411 252.54L168.631 252.46C170.111 255.71 169.691 256.31 168.441 252.62L168.411 252.54ZM188.381 305.28C188.261 304.94 188.071 304.38 187.941 304.05C186.111 299.31 189.451 305.66 188.381 305.28ZM198.061 330.03C198.271 330.49 198.58 331.09 198.76 331.61C200.01 334.97 198.061 331.47 198.061 330.03Z" fill="#D3F1A7"/>
</g>
<path d="M140.421 256.759C156.861 243.219 177.091 233.809 200.191 228.819V256.759H140.421Z" fill="#D3F1A7"/>
<mask id="mask7_287_83511" style="mask-type:luminance" maskUnits="userSpaceOnUse" x="132" y="199" width="69" height="58">
<path d="M200.191 204.359V228.819C177.091 233.809 156.861 243.219 140.421 256.759H132.521V199.879C155.761 202.549 178.331 204.039 200.191 204.359Z" fill="white"/>
</mask>
<g mask="url(#mask7_287_83511)">
<path d="M73.4205 3.63939C68.9605 -7.75061 67.9205 -7.35061 72.1605 4.11939C78.1705 20.3894 84.5705 37.4494 92.8905 59.3394C102.381 84.1294 104.941 90.2194 111.321 107.039C122.131 135.439 140.071 183.469 144.391 195.039C145.031 196.749 145.681 198.459 146.331 200.169C151.021 212.389 171.591 265.969 189.101 312.199C201.521 344.829 209.201 365.019 213.221 375.569C222.711 400.479 229.901 419.049 237.051 437.249C240.981 447.249 241.891 446.899 238.171 436.819C231.421 418.469 224.441 399.819 214.971 374.899C211.291 365.219 203.861 344.959 193.081 316.469C191.321 311.829 189.541 307.199 187.751 302.619C172.311 263.049 152.791 211.479 152.791 211.479C152.791 211.479 123.531 134.569 111.181 102.109C101.881 77.6694 97.4005 65.9094 94.6505 58.6794C86.3205 36.7994 79.7505 19.7994 73.4305 3.64939L73.4205 3.63939Z" fill="#D3F1A7"/>
</g>
<mask id="mask8_287_83511" style="mask-type:luminance" maskUnits="userSpaceOnUse" x="-127" y="-78" width="720" height="283">
<path d="M592.571 -47.4907C525.391 144.879 347.901 234.569 99.9206 195.429C29.0806 184.249 -56.7994 161.019 -126.149 117.409L-100.809 -43.1607C-44.5494 -5.95068 26.5806 17.9093 90.1906 30.1693L20.8206 76.7993L94.6206 186.549L204.371 112.759L154.771 38.9893C282.711 48.7293 362.721 4.12932 402.731 -77.4507L592.571 -47.4907Z" fill="white"/>
</mask>
<g mask="url(#mask8_287_83511)">
<path d="M73.4207 3.63939C68.9607 -7.75061 67.9207 -7.35061 72.1607 4.11939C78.1707 20.3894 84.5707 37.4494 92.8907 59.3394C102.381 84.1294 104.941 90.2194 111.321 107.039C122.131 135.439 140.071 183.469 144.391 195.039C145.031 196.749 145.681 198.459 146.331 200.169C151.021 212.389 171.591 265.969 189.101 312.199C201.521 344.829 209.201 365.019 213.221 375.569C222.711 400.479 229.901 419.049 237.051 437.249C240.981 447.249 241.891 446.899 238.171 436.819C231.421 418.469 224.441 399.819 214.971 374.899C211.291 365.219 203.861 344.959 193.081 316.469C191.321 311.829 189.541 307.199 187.751 302.619C172.311 263.049 152.791 211.479 152.791 211.479C152.791 211.479 123.531 134.569 111.181 102.109C101.881 77.6694 97.4007 65.9094 94.6507 58.6794C86.3207 36.7994 79.7507 19.7994 73.4307 3.64939L73.4207 3.63939Z" fill="#EFFFD6"/>
</g>
</g>
<defs>
<clipPath id="clip0_287_83511">
<rect width="960.03" height="540.01" fill="white"/>
</clipPath>
</defs>
</svg>
