<svg width="961" height="541" viewBox="0 0 961 541" fill="none" xmlns="http://www.w3.org/2000/svg">
<g clip-path="url(#clip0_287_83593)">
<mask id="mask0_287_83593" style="mask-type:luminance" maskUnits="userSpaceOnUse" x="-1" y="-1" width="961" height="541">
<path d="M959.94 -0.130371H-0.0595703V539.87H959.94V-0.130371Z" fill="white"/>
</mask>
<g mask="url(#mask0_287_83593)">
<path d="M959.94 0.0195312H-0.0595703V540.02H959.94V0.0195312Z" fill="#F0F1F2"/>
<path d="M1054.87 80.5495C1056.66 70.5195 1057.59 59.8595 1057.59 48.5895C1057.59 37.3195 1056.64 26.3495 1054.82 16.1895C1043.96 -44.2305 1001.99 -81.4805 943.13 -91.0505C933.09 -92.6805 922.56 -93.5205 911.6 -93.5205C900.64 -93.5205 889.21 -92.6105 878.77 -90.8705C819.87 -81.0405 777.97 -43.8905 767.1 16.1895C765.26 26.3395 764.31 37.1495 764.31 48.5895C764.31 60.0295 765.25 70.5295 767.05 80.5495C777.84 140.559 819.78 177.78 878.77 187.62C889.21 189.36 900.17 190.269 911.6 190.269C923.03 190.269 933.09 189.429 943.13 187.799C1002.09 178.209 1044.1 140.899 1054.88 80.5595L1054.87 80.5495Z" fill="#F8F8F8"/>
<path d="M110.88 33.7993C42.4003 22.9993 -38.3897 -1.85068 -100.84 -43.1607L-126.18 117.409C-56.8297 161.019 29.0503 184.249 99.8903 195.429C347.88 234.569 525.37 144.869 592.54 -47.4907L402.7 -77.4507C358.31 13.0893 264.64 58.0693 110.88 33.7993Z" fill="#F8F8F8"/>
<path d="M973.57 408.559C841.86 395.609 796.93 528.559 650.79 491.359C493.46 451.309 533.47 294.109 376.14 254.059C218.8 214.009 178.79 371.219 21.4504 331.169C8.69036 327.919 -2.75964 323.899 -13.1296 319.239V573.469H973.57V408.549V408.559Z" fill="#F8F8F8"/>
<path d="M276.35 444.749C273.53 442.449 272.8 443.299 275.47 445.769C279.25 449.279 283.29 452.889 288.54 457.459C294.53 462.589 296.17 463.709 300.19 467.229C307.01 473.149 318.32 483.379 321.04 485.849C321.44 486.209 321.85 486.569 322.27 486.929C325.24 489.449 338.23 500.509 349.27 510.209C357.11 517.009 361.96 521.219 364.49 523.419C370.48 528.609 375.02 532.409 379.55 536.059C382.04 538.069 382.67 537.329 380.34 535.149C376.09 531.179 371.69 527.209 365.72 522.009C363.4 519.989 358.73 515.579 351.92 509.609C350.81 508.639 349.68 507.679 348.55 506.759C338.78 498.759 326.47 487.929 326.47 487.929C326.47 487.929 308 471.889 300.21 465.119C294.34 460.019 291.51 457.569 289.78 456.069C284.52 451.509 280.37 448.029 276.37 444.769L276.35 444.749Z" fill="#DDDEE1"/>
<path d="M-36.4496 502.399C-55.2196 509.779 -54.8196 510.819 -35.9596 503.659C-9.21965 493.499 18.8403 482.749 54.8803 468.829C95.6703 452.919 105.82 448.959 133.46 438.179C154.24 430.189 181.36 419.759 206.08 410.249C230.99 400.719 253.49 392.109 264.78 387.789C269.2 379.089 270.63 376.269 271.7 374.179C273.06 371.489 274.42 368.799 275.79 366.109C285.51 346.829 328.16 262.299 364.88 189.499C390.85 138.099 406.92 106.289 415.31 89.6794C435.13 50.4394 449.85 21.0594 464.2 -7.81057C472.09 -23.6706 471.22 -24.1106 463.13 -8.35057C448.4 20.3394 433.48 49.6094 413.64 88.8394C405.89 104.059 389.74 135.779 366.94 180.559C363.26 187.869 359.59 195.189 355.94 202.439C324.67 265.129 283.55 346.279 283.55 346.279L263.35 386.239L125.69 439.449C85.4504 455.009 66.0904 462.489 54.1904 467.089C18.1604 481.019 -9.83965 491.939 -36.4596 502.409L-36.4496 502.399Z" fill="#DDDEE1"/>
<path d="M73.3904 3.63939C68.9304 -7.75061 67.8904 -7.35061 72.1304 4.11939C78.1404 20.3894 84.5404 37.4494 92.8604 59.3394C102.35 84.1294 104.91 90.2194 111.29 107.039C122.1 135.439 140.04 183.469 144.36 195.039C145 196.749 145.65 198.459 146.3 200.169C150.99 212.389 171.56 265.969 189.07 312.199C201.49 344.829 209.17 365.019 213.19 375.569C222.68 400.479 229.87 419.049 237.02 437.249C240.95 447.249 241.86 446.899 238.14 436.819C231.39 418.469 224.41 399.819 214.94 374.899C211.26 365.219 203.83 344.959 193.05 316.469C191.29 311.829 189.51 307.199 187.72 302.619C172.28 263.049 152.76 211.479 152.76 211.479C152.76 211.479 123.5 134.569 111.15 102.109C101.85 77.6694 97.3704 65.9094 94.6204 58.6794C86.2904 36.7994 79.7204 19.7994 73.4004 3.64939L73.3904 3.63939Z" fill="#DDDEE1"/>
<path d="M341.15 356.65C332.71 361.15 333.22 362.14 341.77 357.85C353.9 351.76 366.6 345.29 382.87 336.88C401.29 327.29 405.78 324.71 418.28 318.27C439.4 307.34 475.16 289.19 483.78 284.82C485.05 284.17 486.33 283.52 487.6 282.85C496.68 278.11 536.49 257.32 570.87 239.62C595.13 227.07 610.14 219.3 617.98 215.24C636.5 205.65 650.29 198.39 663.77 191.17C671.18 187.21 670.73 186.34 663.22 190.1C649.54 196.94 635.64 204 617.12 213.57C609.92 217.29 594.81 224.81 573.62 235.72C570.17 237.5 566.73 239.3 563.33 241.1C533.98 256.69 495.61 276.43 495.61 276.43C495.61 276.43 438.43 306.01 414.29 318.49C396.12 327.9 387.37 332.42 382 335.2C365.73 343.63 353.11 350.25 341.14 356.64L341.15 356.65Z" fill="#DDDEE1"/>
<path d="M896.757 36.0994L544.182 65.52L567.234 341.78L919.809 312.359L896.757 36.0994Z" fill="#F8F8F8"/>
<path d="M896.75 36.0796L764.31 47.1296C764.31 47.6196 764.29 48.0996 764.29 48.5796C764.29 59.8596 765.23 70.5196 767.03 80.5496C777.82 140.56 819.76 177.78 878.75 187.62C888.59 189.26 898.89 190.15 909.61 190.25L896.74 36.0796H896.75Z" fill="#F0F1F2"/>
<path d="M384.44 398.679C386.23 388.649 387.16 377.989 387.16 366.719C387.16 355.449 386.21 344.479 384.39 334.319C373.53 273.899 331.56 236.649 272.7 227.079C262.66 225.449 252.13 224.609 241.17 224.609C230.21 224.609 218.78 225.519 208.34 227.259C149.44 237.089 107.54 274.239 96.6704 334.319C94.8304 344.469 93.8804 355.279 93.8804 366.719C93.8804 378.159 94.8204 388.659 96.6204 398.679C107.41 458.689 149.35 495.909 208.34 505.749C218.78 507.489 229.74 508.399 241.17 508.399C252.6 508.399 262.66 507.559 272.7 505.929C331.66 496.339 373.67 459.029 384.45 398.689L384.44 398.679Z" fill="#F0F1F2"/>
<path d="M328.24 247.49C312.26 237.36 293.55 230.48 272.7 227.09C262.66 225.46 252.13 224.62 241.17 224.62C230.21 224.62 218.78 225.53 208.34 227.27C149.44 237.1 107.54 274.25 96.6704 334.33C96.5704 334.86 96.4904 335.4 96.4004 335.93C183.53 323.01 232.8 246.44 328.25 247.49H328.24Z" fill="#F8F8F8"/>
<path d="M420.49 177.609C421.03 174.589 421.31 171.369 421.31 167.969C421.31 164.569 421.02 161.259 420.47 158.199C417.2 139.979 404.54 128.749 386.79 125.859C383.76 125.369 380.59 125.109 377.28 125.109C373.97 125.109 370.53 125.379 367.38 125.909C349.62 128.869 336.98 140.079 333.7 158.199C333.15 161.259 332.86 164.519 332.86 167.969C332.86 171.419 333.14 174.589 333.69 177.609C336.95 195.709 349.59 206.929 367.38 209.899C370.53 210.429 373.83 210.699 377.28 210.699C380.73 210.699 383.76 210.449 386.79 209.949C404.57 207.059 417.24 195.809 420.49 177.609Z" fill="white"/>
<path d="M514.13 43.1393C514.99 38.3093 515.44 33.1693 515.44 27.7393C515.44 22.3093 514.98 17.0193 514.1 12.1293C508.87 -16.9807 488.65 -34.9207 460.29 -39.5307C455.45 -40.3207 450.38 -40.7207 445.1 -40.7207C439.82 -40.7207 434.31 -40.2807 429.28 -39.4407C400.91 -34.7007 380.72 -16.8107 375.48 12.1393C374.6 17.0293 374.13 22.2393 374.13 27.7493C374.13 33.2593 374.58 38.3193 375.45 43.1493C380.65 72.0593 400.85 89.9893 429.27 94.7293C434.3 95.5693 439.58 96.0093 445.09 96.0093C450.6 96.0093 455.44 95.6093 460.28 94.8193C488.68 90.1993 508.92 72.2293 514.11 43.1593L514.13 43.1393Z" fill="#F0F1F2"/>
<path d="M441.92 22.4993C446.31 20.4093 445.86 19.3893 441.37 21.2693C435.01 23.9293 428.36 26.8093 419.85 30.5993C410.24 34.9493 407.93 36.2393 401.39 39.1293C390.36 44.0593 371.62 52.0893 367.11 54.0193C366.44 54.3093 365.78 54.5993 365.11 54.8993C360.38 57.0593 339.61 66.5193 321.63 74.4693C308.96 80.1293 301.12 83.6393 297.02 85.4693C287.35 89.7993 280.17 93.1293 273.15 96.4993C269.3 98.3493 269.69 99.2293 273.64 97.5993C280.82 94.6193 288.1 91.4993 297.78 87.1793C301.54 85.4993 309.48 82.2493 320.56 77.3493C322.36 76.5493 324.16 75.7293 325.93 74.8893C341.2 67.6693 361.26 58.8193 361.26 58.8193C361.26 58.8193 391.13 45.4793 403.74 39.8493C413.23 35.6093 417.8 33.5593 420.61 32.3093C429.11 28.5093 435.69 25.4693 441.91 22.5093L441.92 22.4993Z" fill="#DDDEE1"/>
<path d="M96.9203 517.899C97.9303 512.239 98.4604 506.219 98.4604 499.849C98.4604 493.479 97.9204 487.289 96.8904 481.559C90.7604 447.449 67.0604 426.419 33.8304 421.009C28.1604 420.089 22.2103 419.609 16.0303 419.609C9.85035 419.609 3.39036 420.119 -2.50964 421.109C-35.7596 426.659 -59.4196 447.629 -65.5596 481.559C-66.5996 487.289 -67.1396 493.389 -67.1396 499.849C-67.1396 506.309 -66.6096 512.239 -65.5896 517.899C-59.4996 551.779 -35.8196 572.789 -2.50964 578.349C3.38036 579.329 9.57035 579.849 16.0303 579.849C22.4903 579.849 28.1604 579.379 33.8304 578.449C67.1204 573.039 90.8403 551.969 96.9203 517.899Z" fill="#F0F1F2"/>
<path d="M284.85 387.47C266.23 384.58 266.05 385.69 284.64 388.8C310.99 393.22 338.69 397.78 374.31 403.53C414.69 409.99 424.78 411.38 452.13 415.82C475.38 419.62 506.66 424.73 534.34 429.25C560.91 420.3 584.08 412.49 593.1 409.45C595.76 408.54 598.43 407.64 601.1 406.73C614.43 402.17 659.31 386.81 723.19 364.95C731.79 365.43 755.66 366.74 778.43 368L882.04 373.69L883.18 373.02C918.51 352.09 944.86 336.36 970.67 320.84C984.85 312.31 984.36 311.47 970.06 319.8C944.03 334.96 917.57 350.5 882.23 371.41C882.09 371.49 881.94 371.58 881.58 371.79C865.78 370.87 832.96 368.95 786.87 366.27C779.24 365.87 771.6 365.47 764.03 365.07C750.87 364.4 736.92 363.69 722.92 362.98C670.69 380.84 619.21 398.44 619.21 398.44L534.19 427.42L445.3 413.08C405.52 406.67 386.38 403.58 374.61 401.68C338.99 395.94 311.26 391.56 284.86 387.47H284.85Z" fill="#DDDEE1"/>
<path d="M494.065 340.302L436.21 459.237L555.136 517.087L612.991 398.152L494.065 340.302Z" fill="white"/>
<path d="M776.83 371.349C777.56 367.269 777.94 362.919 777.94 358.329C777.94 353.739 777.55 349.269 776.81 345.139C772.39 320.529 755.29 305.359 731.32 301.459C727.23 300.789 722.94 300.449 718.48 300.449C714.02 300.449 709.36 300.819 705.11 301.529C681.12 305.529 664.05 320.669 659.62 345.139C658.87 349.279 658.48 353.679 658.48 358.329C658.48 362.979 658.86 367.269 659.6 371.349C664 395.789 681.08 410.949 705.11 414.959C709.36 415.669 713.83 416.039 718.48 416.039C723.13 416.039 727.23 415.699 731.32 415.029C755.33 411.129 772.45 395.929 776.83 371.349Z" fill="#F8F8F8"/>
<path d="M291.87 99.2897C292.09 98.0797 292.2 96.7897 292.2 95.4197C292.2 94.0497 292.09 92.7297 291.86 91.4997C290.55 84.1897 285.47 79.6797 278.35 78.5197C277.13 78.3197 275.86 78.2197 274.54 78.2197C273.22 78.2197 271.83 78.3297 270.57 78.5397C263.44 79.7297 258.37 84.2197 257.06 91.4897C256.84 92.7197 256.72 94.0297 256.72 95.4097C256.72 96.7897 256.83 98.0597 257.05 99.2797C258.36 106.54 263.43 111.04 270.57 112.23C271.83 112.44 273.16 112.55 274.54 112.55C275.92 112.55 277.14 112.45 278.35 112.25C285.48 111.09 290.57 106.58 291.87 99.2697V99.2897Z" fill="#F0F1F2"/>
<path d="M897.31 377.299C897.53 376.089 897.64 374.8 897.64 373.43C897.64 372.06 897.53 370.74 897.3 369.51C895.99 362.2 890.91 357.69 883.79 356.53C882.57 356.33 881.3 356.229 879.98 356.229C878.66 356.229 877.27 356.339 876.01 356.549C868.88 357.739 863.81 362.23 862.5 369.5C862.28 370.73 862.16 372.039 862.16 373.419C862.16 374.799 862.27 376.07 862.49 377.29C863.8 384.55 868.87 389.05 876.01 390.24C877.27 390.45 878.6 390.56 879.98 390.56C881.36 390.56 882.58 390.46 883.79 390.26C890.92 389.1 896.01 384.59 897.31 377.28V377.299Z" fill="white"/>
<path d="M417.39 542.869C417.84 540.359 418.07 537.699 418.07 534.879C418.07 532.059 417.83 529.319 417.38 526.779C414.67 511.679 404.18 502.369 389.46 499.979C386.95 499.569 384.32 499.359 381.58 499.359C378.84 499.359 375.98 499.589 373.37 500.019C358.65 502.479 348.18 511.759 345.46 526.779C345 529.319 344.76 532.019 344.76 534.879C344.76 537.739 344.99 540.359 345.45 542.869C348.15 557.869 358.63 567.169 373.37 569.629C375.98 570.069 378.72 570.289 381.58 570.289C384.44 570.289 386.95 570.079 389.46 569.669C404.2 567.269 414.7 557.949 417.39 542.869Z" fill="#F0F1F2"/>
<path d="M26.6711 209.322L-43.0964 215.144L-35.6664 304.185L34.1011 298.363L26.6711 209.322Z" fill="white"/>
<path d="M769.15 324.919C761.05 312.159 747.81 304.139 731.32 301.449C727.23 300.779 722.94 300.439 718.48 300.439C714.02 300.439 709.36 300.809 705.11 301.519C685.08 304.859 669.88 315.969 662.83 333.789L769.16 324.909L769.15 324.919Z" fill="#F0F1F2"/>
<path d="M1034.73 -10.9203C1039.73 -14.0303 1039.16 -14.9903 1034.04 -12.0803C1026.77 -7.9503 1019.18 -3.5403 1009.48 2.2297C998.51 8.8097 995.9 10.6397 988.44 15.0497C975.86 22.5397 954.47 34.8997 949.31 37.8797C948.55 38.3197 947.79 38.7697 947.03 39.2197C941.63 42.4797 917.95 56.7697 897.44 68.8797C882.98 77.4797 874.04 82.8097 869.37 85.5897C858.34 92.1597 850.15 97.1697 842.16 102.17C837.77 104.92 838.27 105.75 842.78 103.2C850.98 98.5697 859.29 93.7597 870.33 87.1997C874.62 84.6497 883.69 79.5597 896.33 72.0997C898.39 70.8797 900.43 69.6497 902.45 68.3997C919.85 57.6197 942.74 44.1197 942.74 44.1197C942.74 44.1197 976.82 23.8497 991.2 15.2997C1002.03 8.8497 1007.24 5.7497 1010.44 3.8497C1020.13 -1.9303 1027.63 -6.4903 1034.73 -10.9103V-10.9203Z" fill="#DDDEE1"/>
<path d="M724.67 369.92C721.62 364.24 720.63 364.75 723.47 370.54C727.5 378.75 731.81 387.33 737.45 398.32C743.89 410.74 745.69 413.73 750 422.18C757.32 436.43 769.4 460.61 772.3 466.44C772.73 467.3 773.17 468.16 773.61 469.02C776.8 475.14 790.78 501.98 802.62 525.19C811.03 541.56 816.24 551.69 818.96 556.98C825.39 569.47 830.29 578.76 835.19 587.83C837.88 592.81 838.74 592.37 836.26 587.28C831.74 578.02 827.04 568.62 820.63 556.12C818.14 551.26 813.18 541.02 805.88 526.72C804.69 524.39 803.48 522.07 802.26 519.78C791.7 500.03 778.51 474.12 778.51 474.12C778.51 474.12 758.69 435.53 750.32 419.25C744.02 406.99 740.98 401.09 739.12 397.46C733.47 386.48 729 377.98 724.68 369.92H724.67Z" fill="#DDDEE1"/>
<path d="M130.549 2.98729L20.7971 76.793L94.5972 186.536L204.349 112.731L130.549 2.98729Z" fill="white"/>
</g>
</g>
<defs>
<clipPath id="clip0_287_83593">
<rect width="960.019" height="540.01" fill="white"/>
</clipPath>
</defs>
</svg>
