<svg width="961" height="541" viewBox="0 0 961 541" fill="none" xmlns="http://www.w3.org/2000/svg">
<g clip-path="url(#clip0_287_83627)">
<mask id="mask0_287_83627" style="mask-type:luminance" maskUnits="userSpaceOnUse" x="-1" y="-1" width="961" height="541">
<path d="M959.922 -0.130371H-0.078125V539.87H959.922V-0.130371Z" fill="white"/>
</mask>
<g mask="url(#mask0_287_83627)">
<path d="M959.922 0.0195312H-0.078125V540.02H959.922V0.0195312Z" fill="#EED7FC"/>
<path d="M1054.85 80.5495C1056.64 70.5195 1057.57 59.8595 1057.57 48.5895C1057.57 37.3195 1056.62 26.3495 1054.8 16.1895C1043.94 -44.2305 1001.97 -81.4805 943.112 -91.0505C933.072 -92.6805 922.541 -93.5205 911.581 -93.5205C900.621 -93.5205 889.192 -92.6105 878.752 -90.8705C819.852 -81.0405 777.951 -43.8905 767.081 16.1895C765.241 26.3395 764.292 37.1495 764.292 48.5895C764.292 60.0295 765.231 70.5295 767.031 80.5495C777.821 140.559 819.762 177.78 878.752 187.62C889.192 189.36 900.151 190.269 911.581 190.269C923.011 190.269 933.072 189.429 943.112 187.799C1002.07 178.209 1044.08 140.899 1054.86 80.5595L1054.85 80.5495Z" fill="#F8EEFE"/>
<path d="M110.862 33.7993C42.3818 22.9993 -38.4082 -1.85068 -100.858 -43.1607L-126.198 117.409C-56.8482 161.019 29.0318 184.249 99.8718 195.429C347.862 234.569 525.352 144.869 592.522 -47.4907L402.682 -77.4507C358.292 13.0893 264.622 58.0693 110.862 33.7993Z" fill="#F8EEFE"/>
<path d="M973.552 408.559C841.842 395.609 796.912 528.559 650.772 491.359C493.442 451.309 533.452 294.109 376.122 254.059C218.782 214.009 178.772 371.219 21.4318 331.169C8.67181 327.919 -2.77819 323.899 -13.1482 319.239V573.469H973.552V408.549V408.559Z" fill="#F8EEFE"/>
<path d="M276.332 444.749C273.512 442.449 272.782 443.299 275.452 445.769C279.232 449.279 283.272 452.889 288.522 457.459C294.512 462.589 296.152 463.709 300.172 467.229C306.992 473.149 318.302 483.379 321.022 485.849C321.422 486.209 321.832 486.569 322.252 486.929C325.222 489.449 338.212 500.509 349.252 510.209C357.092 517.009 361.942 521.219 364.472 523.419C370.462 528.609 375.002 532.409 379.532 536.059C382.022 538.069 382.652 537.329 380.322 535.149C376.072 531.179 371.672 527.209 365.702 522.009C363.382 519.989 358.712 515.579 351.902 509.609C350.792 508.639 349.662 507.679 348.532 506.759C338.762 498.759 326.452 487.929 326.452 487.929C326.452 487.929 307.982 471.889 300.192 465.119C294.322 460.019 291.492 457.569 289.762 456.069C284.502 451.509 280.352 448.029 276.352 444.769L276.332 444.749Z" fill="#EED7FC"/>
<path d="M267.352 378.869C262.222 389.279 263.222 389.779 268.552 379.479C276.122 364.879 283.992 349.489 294.012 329.669C305.322 307.179 307.942 301.479 315.652 286.269C328.652 260.549 350.852 217.289 356.212 206.869C357.002 205.329 357.792 203.779 358.562 202.229C364.122 191.129 388.522 142.469 409.742 100.659C424.672 71.1093 433.912 52.8193 438.742 43.2593C450.132 20.6993 458.552 3.77933 466.722 -12.8607C471.212 -22.0007 470.342 -22.4407 465.652 -13.4007C457.102 3.04933 448.482 19.8593 437.072 42.4193C432.642 51.1893 423.172 69.3293 410.102 95.0893C407.972 99.2893 405.862 103.499 403.802 107.679C385.962 143.799 362.282 190.429 362.282 190.429C362.282 190.429 327.082 260.079 312.222 289.479C301.042 311.619 295.652 322.269 292.352 328.819C282.342 348.649 274.632 364.109 267.362 378.859L267.352 378.869Z" fill="#EED7FC"/>
<mask id="mask1_287_83627" style="mask-type:luminance" maskUnits="userSpaceOnUse" x="300" y="183" width="88" height="88">
<path d="M387.272 183.459H300.702V270.029H387.272V183.459Z" fill="white"/>
</mask>
<g mask="url(#mask1_287_83627)">
<path d="M267.351 378.869C262.221 389.279 263.221 389.779 268.551 379.479C276.121 364.879 283.991 349.489 294.011 329.669C305.321 307.179 307.941 301.479 315.651 286.269C328.651 260.549 350.851 217.289 356.211 206.869C357.001 205.329 357.791 203.779 358.561 202.229C364.121 191.129 388.521 142.469 409.741 100.659C424.671 71.1093 433.911 52.8193 438.741 43.2593C450.131 20.6993 458.551 3.77933 466.721 -12.8607C471.211 -22.0007 470.341 -22.4407 465.651 -13.4007C457.101 3.04933 448.481 19.8593 437.071 42.4193C432.641 51.1893 423.171 69.3293 410.101 95.0893C407.971 99.2893 405.861 103.499 403.801 107.679C385.961 143.799 362.281 190.429 362.281 190.429C362.281 190.429 327.081 260.079 312.221 289.479C301.041 311.619 295.651 322.269 292.351 328.819C282.341 348.649 274.631 364.109 267.361 378.859L267.351 378.869Z" fill="#F8EEFE"/>
</g>
<path d="M-44.5882 505.529C-52.5482 508.729 -52.1382 509.769 -44.0982 506.789C-32.6982 502.559 -20.7482 498.039 -5.43816 492.129C11.9018 485.369 16.1318 483.489 27.9018 478.959C47.7718 471.279 81.4118 458.609 89.5118 455.559C90.7118 455.109 91.9018 454.649 93.1018 454.179C101.642 450.829 139.122 436.169 171.472 423.749C194.302 414.919 208.432 409.459 215.802 406.609C233.222 399.869 246.212 394.719 258.922 389.589C265.902 386.769 265.552 385.859 258.492 388.469C245.632 393.209 232.562 398.139 215.132 404.869C208.362 407.489 194.152 412.689 174.222 420.349C170.972 421.599 167.732 422.869 164.532 424.149C136.892 435.219 100.792 449.069 100.792 449.069C100.792 449.069 46.9818 469.869 24.2718 478.639C7.17184 485.249 -1.05816 488.439 -6.11816 490.389C-21.4282 496.319 -33.3082 500.999 -44.5882 505.539V505.529Z" fill="#EED7FC"/>
<path d="M154.722 38.9893C140.682 37.9193 126.062 36.1993 110.852 33.7993C104.062 32.7293 97.1516 31.5193 90.1416 30.1693L130.532 3.00928L154.722 38.9893Z" fill="#F8EEFE"/>
<path d="M204.322 112.759L94.5717 186.549L20.7717 76.7994L90.1417 30.1694C97.1517 31.5194 104.062 32.7294 110.852 33.7994C126.062 36.1994 140.682 37.9194 154.722 38.9894L204.322 112.759Z" fill="#EED7FC"/>
<path d="M195.892 330.36L201.772 344.9C201.772 344.9 211.142 370.41 215.542 380.34L229.872 418.62C229.872 418.62 236.092 434.51 238.262 439.18C239.612 442.09 240.602 443.92 240.982 444.24C241.772 444.9 240.112 439.37 234.092 424.06C234.052 423.86 233.842 423.23 233.852 423.14C227.322 407.03 221.952 391.13 215.572 374.59C215.512 374.86 215.202 374.35 215.082 373.81L215.322 373.93C210.782 363.03 208.712 355.92 204.272 346.05C204.272 346.07 204.952 347.16 204.942 347.13C191.682 312.64 174.082 265.69 159.552 228.38L159.602 228.58L159.542 228.51C160.692 232.06 166.752 248.72 166.762 248.74C161.192 236.61 156.662 222.11 151.582 208.87H151.842C154.022 214.61 156.052 219.67 156.932 221.67C149.402 200.98 133.742 159.69 125.892 140.12C125.922 140.71 128.612 146.65 128.652 148.41C126.722 143.37 124.732 138.36 122.922 133.6C123.282 133.46 124.202 136.25 124.472 136.77C121.732 128.4 58.3719 -39.2304 72.0919 1.36956L71.5219 0.419559C75.3719 10.7796 78.5619 19.3596 82.3019 30.2496C82.9119 31.7596 82.9419 31.9496 83.1219 31.8696C83.3019 32.2596 83.6119 32.9196 83.6219 32.7096C84.0019 32.3796 85.1119 35.8096 85.6819 37.2796C83.6119 36.0296 98.2519 70.7196 99.9919 75.4396C99.6719 76.6096 103.472 84.6496 104.262 87.5696C104.162 87.3796 103.532 86.1796 103.452 86.0296C103.992 88.7296 120.992 129.82 115.652 118.28C132.972 167.96 168.542 256.32 187.542 309.88L187.472 309.45C187.612 309.88 188.142 311.17 188.172 311.53C190.432 316.66 195.872 330.35 195.872 330.35L195.892 330.36ZM150.332 208.32C150.332 208.32 150.272 208.27 150.282 208.31C150.342 208.25 147.712 201.47 147.622 201.19L147.862 201.15C150.902 207.86 155.462 224.37 150.372 209.02C150.122 208.53 150.302 208.45 150.342 208.32H150.332ZM127.282 147.72C126.852 146.53 126.382 145.24 125.862 143.81C132.542 159.24 139.752 180.78 146.642 197.91C143.422 192.41 138.602 178.18 135.832 170.74C132.762 163.35 129.662 154.4 127.292 147.72H127.282ZM88.8919 46.3996H88.7619L88.5519 45.8596C88.5819 45.8296 88.6419 45.8996 88.7019 46.0096C88.7619 46.0896 88.8519 46.2696 88.8919 46.3996ZM193.232 321.81C192.612 320.72 191.042 316.3 192.502 319.08C192.732 319.86 193.722 321.96 193.232 321.81ZM120.792 129.87C120.432 130.01 118.162 124.29 118.662 124.08C119.422 126.04 120.112 127.97 120.792 129.87ZM209.952 364.58C210.922 365.95 210.322 365.68 210.272 366.28C210.182 365.88 209.672 364.48 209.962 364.71V364.58H209.952ZM220.442 391.44C220.782 391.76 221.482 393.23 221.762 393.94C222.322 395.85 220.592 392.33 220.442 391.44ZM237.382 435.84C237.622 435.82 238.092 436.85 237.992 437.23C237.792 437.18 237.172 435.94 237.352 435.67C237.352 435.68 237.352 435.74 237.372 435.85L237.382 435.84ZM111.432 102.92C112.662 104.23 114.142 109.7 115.402 112.46C114.532 112.07 113.072 106.83 112.132 104.71C111.842 103.95 111.612 103.37 111.432 102.92ZM177.812 277.74C178.352 277.46 180.152 283.54 181.022 285.45L180.792 285.5C179.622 282.6 178.812 280.91 177.862 277.85L177.812 277.73V277.74ZM132.082 156.61C132.732 157.63 133.232 159.59 133.662 160.72C133.342 160.83 131.452 156.02 132.082 156.6V156.61ZM150.682 205.73C150.422 206.1 149.682 203.63 149.382 202.95C149.642 203.41 150.192 204.22 150.402 204.79C150.552 205.19 150.552 205.31 150.672 205.73H150.682ZM176.772 275.67C175.902 273.42 174.972 270.95 174.092 268.6H174.342C175.252 270.98 176.142 273.33 177.012 275.65L176.772 275.67ZM168.362 252.54L168.582 252.46C170.062 255.71 169.642 256.31 168.392 252.62L168.362 252.54ZM188.332 305.28C188.212 304.94 188.022 304.38 187.892 304.05C186.062 299.31 189.402 305.66 188.332 305.28ZM198.012 330.03C198.222 330.49 198.532 331.09 198.712 331.61C199.962 334.97 198.012 331.47 198.012 330.03Z" fill="#EED7FC"/>
<path d="M341.132 356.65C332.692 361.15 333.202 362.14 341.752 357.85C353.882 351.76 366.582 345.29 382.852 336.88C401.272 327.29 405.762 324.71 418.262 318.27C439.382 307.34 475.142 289.19 483.762 284.82C485.032 284.17 486.312 283.52 487.582 282.85C496.662 278.11 536.472 257.32 570.852 239.62C595.112 227.07 610.122 219.3 617.962 215.24C636.482 205.65 650.272 198.39 663.752 191.17C671.162 187.21 670.712 186.34 663.202 190.1C649.522 196.94 635.622 204 617.102 213.57C609.902 217.29 594.792 224.81 573.602 235.72C570.152 237.5 566.712 239.3 563.312 241.1C533.962 256.69 495.592 276.43 495.592 276.43C495.592 276.43 438.412 306.01 414.272 318.49C396.102 327.9 387.352 332.42 381.982 335.2C365.712 343.63 353.092 350.25 341.122 356.64L341.132 356.65Z" fill="#F8EEFE"/>
<path d="M896.738 36.0994L544.164 65.52L567.216 341.78L919.791 312.359L896.738 36.0994Z" fill="#F8EEFE"/>
<path d="M896.732 36.0796L764.292 47.1296C764.292 47.6196 764.272 48.0996 764.272 48.5796C764.272 59.8596 765.212 70.5196 767.012 80.5496C777.802 140.56 819.742 177.78 878.732 187.62C888.572 189.26 898.872 190.15 909.592 190.25L896.722 36.0796H896.732Z" fill="#EED7FC"/>
<path d="M384.422 398.679C386.212 388.649 387.142 377.989 387.142 366.719C387.142 355.449 386.192 344.479 384.372 334.319C373.512 273.899 331.542 236.649 272.682 227.079C262.642 225.449 252.112 224.609 241.152 224.609C230.192 224.609 218.762 225.519 208.322 227.259C149.422 237.089 107.522 274.239 96.6518 334.319C94.8118 344.469 93.8618 355.279 93.8618 366.719C93.8618 378.159 94.8018 388.659 96.6018 398.679C107.392 458.689 149.332 495.909 208.322 505.749C218.762 507.489 229.722 508.399 241.152 508.399C252.582 508.399 262.642 507.559 272.682 505.929C331.642 496.339 373.652 459.029 384.432 398.689L384.422 398.679Z" fill="#EED7FC"/>
<path d="M328.222 247.49C312.242 237.36 293.532 230.48 272.682 227.09C262.642 225.46 252.112 224.62 241.152 224.62C230.192 224.62 218.762 225.53 208.322 227.27C149.422 237.1 107.522 274.25 96.6518 334.33C96.5518 334.86 96.4718 335.4 96.3818 335.93C183.512 323.01 232.782 246.44 328.232 247.49H328.222Z" fill="#F8EEFE"/>
<path d="M420.452 158.199C420.412 157.979 420.372 157.759 420.322 157.549C394.802 170.859 367.122 181.399 337.412 189.089C343.082 200.469 353.702 207.619 367.362 209.889C370.512 210.419 373.812 210.689 377.262 210.689C380.712 210.689 383.742 210.439 386.772 209.949C404.552 207.059 417.222 195.799 420.472 177.609C421.012 174.579 421.292 171.369 421.292 167.969C421.292 164.569 421.002 161.259 420.452 158.199Z" fill="#F8EEFE"/>
<path d="M514.112 43.1393C514.972 38.3093 515.422 33.1693 515.422 27.7393C515.422 22.3093 514.962 17.0193 514.082 12.1293C508.852 -16.9807 488.632 -34.9207 460.272 -39.5307C455.432 -40.3207 450.362 -40.7207 445.082 -40.7207C439.802 -40.7207 434.292 -40.2807 429.262 -39.4407C400.892 -34.7007 380.702 -16.8107 375.462 12.1393C374.582 17.0293 374.112 22.2393 374.112 27.7493C374.112 33.2593 374.562 38.3193 375.432 43.1493C380.632 72.0593 400.832 89.9893 429.252 94.7293C434.282 95.5693 439.562 96.0093 445.072 96.0093C450.582 96.0093 455.422 95.6093 460.262 94.8193C488.662 90.1993 508.902 72.2293 514.092 43.1593L514.112 43.1393Z" fill="#EED7FC"/>
<path d="M441.902 22.4993C446.292 20.4093 445.842 19.3893 441.352 21.2693C434.992 23.9293 428.342 26.8093 419.832 30.5993C410.222 34.9493 407.912 36.2393 401.372 39.1293C390.342 44.0593 371.602 52.0893 367.092 54.0193C366.422 54.3093 365.762 54.5993 365.092 54.8993C360.362 57.0593 339.592 66.5193 321.612 74.4693C308.942 80.1293 301.102 83.6393 297.002 85.4693C287.332 89.7993 280.152 93.1293 273.132 96.4993C269.282 98.3493 269.672 99.2293 273.622 97.5993C280.802 94.6193 288.082 91.4993 297.762 87.1793C301.522 85.4993 309.462 82.2493 320.542 77.3493C322.342 76.5493 324.142 75.7293 325.912 74.8893C341.182 67.6693 361.242 58.8193 361.242 58.8193C361.242 58.8193 391.112 45.4793 403.722 39.8493C413.212 35.6093 417.782 33.5593 420.592 32.3093C429.092 28.5093 435.672 25.4693 441.892 22.5093L441.902 22.4993Z" fill="#EED7FC"/>
<path d="M96.9018 517.899C97.9118 512.239 98.4418 506.219 98.4418 499.849C98.4418 493.479 97.9018 487.289 96.8718 481.559C90.7418 447.449 67.0418 426.419 33.8118 421.009C28.1418 420.089 22.1918 419.609 16.0118 419.609C9.8318 419.609 3.3718 420.119 -2.5282 421.109C-35.7782 426.659 -59.4382 447.629 -65.5782 481.559C-66.6182 487.289 -67.1582 493.389 -67.1582 499.849C-67.1582 506.309 -66.6282 512.239 -65.6082 517.899C-59.5182 551.779 -35.8382 572.789 -2.5282 578.349C3.3618 579.329 9.5518 579.849 16.0118 579.849C22.4718 579.849 28.1418 579.379 33.8118 578.449C67.1018 573.039 90.8218 551.969 96.9018 517.899Z" fill="#EED7FC"/>
<path d="M542.602 424.83C531.232 428.83 531.592 429.89 543.042 426.11C559.272 420.75 576.292 415.04 598.142 407.6C622.892 399.11 628.972 396.79 645.762 391.09C658.022 386.95 673.932 381.58 688.522 376.65C703.042 371.8 716.242 367.38 723.192 365.06C729.792 365.45 732.092 365.59 733.712 365.68C735.512 365.78 737.312 365.88 739.112 365.99C751.992 366.66 808.492 369.59 857.132 372.35L882.042 373.72L918.612 352.07C941.212 338.68 958.042 328.58 974.522 318.59C983.572 313.1 983.082 312.26 973.912 317.55C957.222 327.18 940.272 337.09 917.662 350.46C911.132 354.28 899.302 361.18 881.522 371.57C876.922 371.3 870.032 370.9 862.582 370.46C857.702 370.21 852.812 369.96 847.972 369.71C806.152 367.77 751.892 364.69 751.892 364.69L722.932 363.1L640.912 391.06C616.512 399.38 604.782 403.38 597.562 405.84C575.722 413.29 558.752 419.17 542.632 424.84L542.602 424.83Z" fill="#F8EEFE"/>
<path d="M612.942 398.1L582.902 459.87C540.252 427.85 520.972 381.95 493.752 340.77L494.012 340.25L612.942 398.1Z" fill="#F8EEFE"/>
<path d="M582.902 459.87L555.102 517.03L436.172 459.19L493.752 340.77C520.972 381.95 540.252 427.85 582.902 459.87Z" fill="#EED7FC"/>
<path d="M776.812 371.349C777.542 367.269 777.922 362.919 777.922 358.329C777.922 353.739 777.532 349.269 776.792 345.139C772.372 320.529 755.272 305.359 731.302 301.459C727.212 300.789 722.922 300.449 718.462 300.449C714.002 300.449 709.342 300.819 705.092 301.529C681.102 305.529 664.032 320.669 659.602 345.139C658.852 349.279 658.462 353.679 658.462 358.329C658.462 362.979 658.842 367.269 659.582 371.349C663.982 395.789 681.062 410.949 705.092 414.959C709.342 415.669 713.812 416.039 718.462 416.039C723.112 416.039 727.212 415.699 731.302 415.029C755.312 411.129 772.432 395.929 776.812 371.349Z" fill="#F8EEFE"/>
<path d="M291.852 99.2897C292.072 98.0797 292.182 96.7897 292.182 95.4197C292.182 94.0497 292.072 92.7297 291.842 91.4997C290.532 84.1897 285.452 79.6797 278.332 78.5197C277.112 78.3197 275.842 78.2197 274.522 78.2197C273.202 78.2197 271.812 78.3297 270.552 78.5397C263.422 79.7297 258.352 84.2197 257.042 91.4897C256.822 92.7197 256.702 94.0297 256.702 95.4097C256.702 96.7897 256.812 98.0597 257.032 99.2797C258.342 106.54 263.412 111.04 270.552 112.23C271.812 112.44 273.142 112.55 274.522 112.55C275.902 112.55 277.122 112.45 278.332 112.25C285.462 111.09 290.552 106.58 291.852 99.2697V99.2897Z" fill="#EED7FC"/>
<path d="M897.292 377.299C897.512 376.089 897.622 374.8 897.622 373.43C897.622 372.06 897.512 370.74 897.282 369.51C895.972 362.2 890.892 357.69 883.772 356.53C882.552 356.33 881.282 356.229 879.962 356.229C878.642 356.229 877.252 356.339 875.992 356.549C868.862 357.739 863.792 362.23 862.482 369.5C862.262 370.73 862.142 372.039 862.142 373.419C862.142 374.799 862.252 376.07 862.472 377.29C863.782 384.55 868.852 389.05 875.992 390.24C877.252 390.45 878.582 390.56 879.962 390.56C881.342 390.56 882.562 390.46 883.772 390.26C890.902 389.1 895.992 384.59 897.292 377.28V377.299Z" fill="#F8EEFE"/>
<path d="M417.372 542.869C417.822 540.359 418.052 537.699 418.052 534.879C418.052 532.059 417.812 529.319 417.362 526.779C414.652 511.679 404.162 502.369 389.442 499.979C386.932 499.569 384.302 499.359 381.562 499.359C378.822 499.359 375.962 499.589 373.352 500.019C358.632 502.479 348.162 511.759 345.442 526.779C344.982 529.319 344.742 532.019 344.742 534.879C344.742 537.739 344.972 540.359 345.432 542.869C348.132 557.869 358.612 567.169 373.352 569.629C375.962 570.069 378.702 570.289 381.562 570.289C384.422 570.289 386.932 570.079 389.442 569.669C404.182 567.269 414.682 557.949 417.372 542.869Z" fill="#EED7FC"/>
<path d="M26.6525 209.322L-43.115 215.144L-35.685 304.185L34.0825 298.363L26.6525 209.322Z" fill="#F8EEFE"/>
<path d="M769.132 324.919C761.032 312.159 747.792 304.139 731.302 301.449C727.212 300.779 722.922 300.439 718.462 300.439C714.002 300.439 709.342 300.809 705.092 301.519C685.062 304.859 669.862 315.969 662.812 333.789L769.142 324.909L769.132 324.919Z" fill="#EED7FC"/>
<path d="M1034.71 -10.9203C1039.71 -14.0303 1039.14 -14.9903 1034.02 -12.0803C1026.75 -7.9503 1019.16 -3.5403 1009.46 2.2297C998.492 8.8097 995.882 10.6397 988.422 15.0497C975.842 22.5397 954.452 34.8997 949.292 37.8797C948.532 38.3197 947.772 38.7697 947.012 39.2197C941.612 42.4797 917.932 56.7697 897.422 68.8797C882.962 77.4797 874.022 82.8097 869.352 85.5897C858.322 92.1597 850.132 97.1697 842.142 102.17C837.752 104.92 838.252 105.75 842.762 103.2C850.962 98.5697 859.272 93.7597 870.312 87.1997C874.602 84.6497 883.672 79.5597 896.312 72.0997C898.372 70.8797 900.412 69.6497 902.432 68.3997C919.832 57.6197 942.722 44.1197 942.722 44.1197C942.722 44.1197 976.802 23.8497 991.182 15.2997C1002.01 8.8497 1007.22 5.7497 1010.42 3.8497C1020.11 -1.9303 1027.61 -6.4903 1034.71 -10.9103V-10.9203Z" fill="#EED7FC"/>
<path d="M807.222 534.309L811.292 541.509C811.292 541.509 817.552 554.399 820.692 559.219L830.342 578.489C830.342 578.489 834.602 586.419 836.162 588.659C837.132 590.059 837.872 590.899 838.202 590.989C838.862 591.179 837.852 588.289 833.722 580.659C833.702 580.549 833.562 580.229 833.582 580.169C829.062 572.189 825.592 564.039 821.242 555.759C821.162 555.939 820.922 555.709 820.862 555.419H821.072C817.902 550.049 816.652 546.319 813.482 541.549C813.482 541.549 814.012 542.039 814.002 542.029C804.992 524.759 793.122 501.139 783.212 482.499L783.232 482.609L783.192 482.579C783.922 484.409 787.962 492.849 787.962 492.849C783.962 487.009 781.122 479.479 777.672 472.849L777.912 472.789C779.382 475.669 780.792 478.169 781.412 479.149C776.392 468.679 765.792 447.949 760.382 438.239C760.352 438.579 762.282 441.459 762.162 442.499C760.852 439.969 759.482 437.489 758.262 435.089C758.602 434.919 759.192 436.349 759.392 436.589C757.642 432.269 714.822 348.059 723.702 368.879L723.262 368.459C725.852 373.679 727.992 378.009 730.432 383.579C730.852 384.329 730.862 384.429 731.042 384.339C731.172 384.529 731.402 384.839 731.422 384.719C731.802 384.419 732.502 386.189 732.902 386.929C731.112 386.719 741.382 403.749 742.542 406.129C742.142 406.919 744.892 410.759 745.352 412.299C745.272 412.209 744.812 411.649 744.742 411.589C744.992 413.069 756.832 433.329 752.992 427.789C764.342 453.129 788.912 496.949 801.442 524.189L801.412 523.949C801.502 524.169 801.872 524.809 801.862 525.019C803.462 527.509 807.212 534.319 807.212 534.319L807.222 534.309ZM776.572 472.849C776.572 472.849 776.522 472.839 776.522 472.849C776.582 472.799 774.782 469.409 774.732 469.269L774.952 469.189C777.132 472.429 779.812 481.159 776.532 473.259C776.352 473.029 776.532 472.939 776.572 472.849ZM760.962 442.439C760.672 441.839 760.362 441.179 760.012 440.459C764.722 447.989 769.372 459.059 774.132 467.549C771.682 465.089 768.562 457.789 766.692 454.039C764.552 450.399 762.522 445.829 760.952 442.429L760.962 442.439ZM734.992 391.569L734.872 391.609L734.732 391.329C734.732 391.329 734.812 391.329 734.852 391.379C734.902 391.409 734.962 391.499 734.992 391.569ZM805.562 529.859C805.092 529.369 804.062 527.119 805.142 528.409C805.282 528.819 806.002 529.819 805.562 529.859ZM756.632 433.409C756.282 433.589 754.732 430.739 755.202 430.489C755.712 431.469 756.172 432.449 756.632 433.409ZM817.002 551.209C817.762 551.779 817.242 551.779 817.142 552.149C817.092 551.929 816.752 551.219 817.002 551.289V551.209ZM824.172 564.609C824.452 564.709 824.962 565.419 825.152 565.769C825.492 566.769 824.222 565.109 824.172 564.609ZM835.652 586.879C835.872 586.809 836.212 587.299 836.092 587.549C835.912 587.569 835.462 586.989 835.652 586.779C835.652 586.789 835.642 586.829 835.652 586.879ZM750.502 419.649C751.512 420.109 752.372 423.019 753.272 424.349C752.502 424.349 751.642 421.569 750.982 420.549C750.792 420.169 750.632 419.879 750.502 419.649ZM795.442 507.399C795.962 507.089 797.062 510.279 797.682 511.199L797.462 511.289C796.652 509.849 796.062 509.049 795.472 507.459L795.442 507.399ZM764.542 446.529C765.042 446.979 765.322 448.019 765.622 448.589C765.312 448.739 764.022 446.339 764.542 446.529ZM777.122 471.199C776.852 471.489 776.392 470.199 776.182 469.869C776.372 470.079 776.812 470.419 776.952 470.709C777.052 470.909 777.042 470.979 777.122 471.199ZM794.672 506.429C794.082 505.299 793.452 504.059 792.862 502.879L793.092 502.809C793.702 504.009 794.302 505.189 794.902 506.349L794.672 506.429ZM789.072 494.719L789.282 494.609C790.342 496.179 789.902 496.649 789.092 494.759L789.072 494.719ZM802.582 521.199C802.502 521.019 802.382 520.739 802.292 520.579C801.042 518.209 803.532 521.159 802.582 521.199ZM809.192 533.559C809.342 533.779 809.572 534.059 809.692 534.329C810.532 536.029 809.062 534.429 809.192 533.559Z" fill="#EED7FC"/>
<path d="M420.322 157.549C394.802 170.859 367.122 181.399 337.412 189.089C335.692 185.639 334.432 181.809 333.672 177.609C333.122 174.579 332.842 171.369 332.842 167.969C332.842 164.569 333.132 161.259 333.682 158.199C336.962 140.079 349.602 128.869 367.362 125.909C370.512 125.379 373.812 125.109 377.262 125.109C380.712 125.109 383.742 125.359 386.772 125.859C404.312 128.709 416.872 139.709 420.322 157.549Z" fill="#EED7FC"/>
<path d="M275.902 386.029C269.182 385.059 269.002 386.169 275.692 387.359C285.172 389.059 295.142 390.749 307.972 392.829C322.532 395.129 326.182 395.479 336.042 397.099C352.702 399.789 380.742 404.619 387.502 405.789C388.502 405.959 389.502 406.129 390.512 406.279C397.692 407.399 429.182 412.299 456.262 416.749C475.392 419.829 487.242 421.739 493.422 422.739C508.032 425.089 518.962 426.739 529.712 428.259C535.622 429.089 535.772 428.139 529.902 427.069C519.222 425.129 508.322 423.259 493.712 420.889C488.032 419.969 476.252 417.799 459.562 415.059C456.842 414.609 454.122 414.189 451.422 413.799C428.082 410.399 397.872 405.429 397.872 405.429C397.872 405.429 352.772 398.149 333.742 395.079C319.412 392.769 312.512 391.659 308.272 390.979C295.432 388.919 285.432 387.389 275.902 386.019V386.029Z" fill="#EED7FC"/>
<mask id="mask2_287_83627" style="mask-type:luminance" maskUnits="userSpaceOnUse" x="93" y="224" width="295" height="285">
<path d="M384.422 398.679C386.212 388.649 387.142 377.989 387.142 366.719C387.142 355.449 386.192 344.479 384.372 334.319C373.512 273.899 331.542 236.649 272.682 227.079C262.642 225.449 252.112 224.609 241.152 224.609C230.192 224.609 218.762 225.519 208.322 227.259C149.422 237.089 107.522 274.239 96.6518 334.319C94.8118 344.469 93.8618 355.279 93.8618 366.719C93.8618 378.159 94.8018 388.659 96.6018 398.679C107.392 458.689 149.332 495.909 208.322 505.749C218.762 507.489 229.722 508.399 241.152 508.399C252.582 508.399 262.642 507.559 272.682 505.929C331.642 496.339 373.652 459.029 384.432 398.689L384.422 398.679Z" fill="white"/>
</mask>
<g mask="url(#mask2_287_83627)">
<path d="M275.902 386.029C269.182 385.059 269.002 386.169 275.692 387.359C285.172 389.059 295.142 390.749 307.972 392.829C322.532 395.129 326.182 395.479 336.042 397.099C352.702 399.789 380.742 404.619 387.502 405.789C388.502 405.959 389.502 406.129 390.512 406.279C397.692 407.399 429.182 412.299 456.262 416.749C475.392 419.829 487.242 421.739 493.422 422.739C508.032 425.089 518.962 426.739 529.712 428.259C535.622 429.089 535.772 428.139 529.902 427.069C519.222 425.129 508.322 423.259 493.712 420.889C488.032 419.969 476.252 417.799 459.562 415.059C456.842 414.609 454.122 414.189 451.422 413.799C428.082 410.399 397.872 405.429 397.872 405.429C397.872 405.429 352.772 398.149 333.742 395.079C319.412 392.769 312.512 391.659 308.272 390.979C295.432 388.919 285.432 387.389 275.902 386.019V386.029Z" fill="#F8EEFE"/>
</g>
<mask id="mask3_287_83627" style="mask-type:luminance" maskUnits="userSpaceOnUse" x="-14" y="247" width="988" height="327">
<path d="M973.552 408.559C841.842 395.609 796.912 528.559 650.772 491.359C493.442 451.309 533.452 294.109 376.122 254.059C218.782 214.009 178.772 371.219 21.4318 331.169C8.67181 327.919 -2.77819 323.899 -13.1482 319.239V573.469H973.552V408.549V408.559Z" fill="white"/>
</mask>
<g mask="url(#mask3_287_83627)">
<path d="M341.132 356.649C332.692 361.149 333.202 362.139 341.752 357.849C353.882 351.759 366.582 345.289 382.852 336.879C401.272 327.289 405.762 324.709 418.262 318.269C439.382 307.339 475.142 289.189 483.762 284.819C485.032 284.169 486.312 283.519 487.582 282.849C496.662 278.109 536.472 257.319 570.852 239.619C595.112 227.069 610.122 219.299 617.962 215.239C636.482 205.649 650.272 198.389 663.752 191.169C671.162 187.209 670.712 186.339 663.202 190.099C649.522 196.939 635.622 203.999 617.102 213.569C609.902 217.289 594.792 224.809 573.602 235.719C570.152 237.499 566.712 239.299 563.312 241.099C533.962 256.689 495.592 276.429 495.592 276.429C495.592 276.429 438.412 306.009 414.272 318.489C396.102 327.899 387.352 332.419 381.982 335.199C365.712 343.629 353.092 350.249 341.122 356.639L341.132 356.649Z" fill="#EED7FC"/>
</g>
<path d="M724.652 369.92C721.602 364.24 720.612 364.75 723.452 370.54C727.482 378.75 731.792 387.33 737.432 398.32C743.872 410.74 745.672 413.73 749.982 422.18C757.302 436.43 769.382 460.61 772.282 466.44C772.712 467.3 773.152 468.16 773.592 469.02C776.782 475.14 790.762 501.98 802.602 525.19C811.012 541.56 816.222 551.69 818.942 556.98C825.372 569.47 830.272 578.76 835.172 587.83C837.862 592.81 838.722 592.37 836.242 587.28C831.722 578.02 827.022 568.62 820.612 556.12C818.122 551.26 813.162 541.02 805.862 526.72C804.672 524.39 803.462 522.07 802.242 519.78C791.682 500.03 778.492 474.12 778.492 474.12C778.492 474.12 758.672 435.53 750.302 419.25C744.002 406.99 740.962 401.09 739.102 397.46C733.452 386.48 728.982 377.98 724.662 369.92H724.652Z" fill="#EED7FC"/>
<mask id="mask4_287_83627" style="mask-type:luminance" maskUnits="userSpaceOnUse" x="729" y="404" width="65" height="81">
<path d="M793.542 472.51C784.902 477.04 776.062 481.23 766.892 484.86L729.902 415.24C730.362 415.17 730.832 415.1 731.292 415.03C741.042 413.44 749.652 410 756.732 404.83L793.542 472.51Z" fill="white"/>
</mask>
<g mask="url(#mask4_287_83627)">
<path d="M724.652 369.92C721.602 364.24 720.612 364.75 723.452 370.54C727.482 378.75 731.792 387.33 737.432 398.32C743.872 410.74 745.672 413.73 749.982 422.18C757.302 436.43 769.382 460.61 772.282 466.44C772.712 467.3 773.152 468.16 773.592 469.02C776.782 475.14 790.762 501.98 802.602 525.19C811.012 541.56 816.222 551.69 818.942 556.98C825.372 569.47 830.272 578.76 835.172 587.83C837.862 592.81 838.722 592.37 836.242 587.28C831.722 578.02 827.022 568.62 820.612 556.12C818.122 551.26 813.162 541.02 805.862 526.72C804.672 524.39 803.462 522.07 802.242 519.78C791.682 500.03 778.492 474.12 778.492 474.12C778.492 474.12 758.672 435.53 750.302 419.25C744.002 406.99 740.962 401.09 739.102 397.46C733.452 386.48 728.982 377.98 724.662 369.92H724.652Z" fill="#F8EEFE"/>
</g>
<mask id="mask5_287_83627" style="mask-type:luminance" maskUnits="userSpaceOnUse" x="764" y="36" width="146" height="155">
<path d="M896.732 36.0796L764.292 47.1296C764.292 47.6196 764.272 48.0996 764.272 48.5796C764.272 59.8596 765.212 70.5196 767.012 80.5496C777.802 140.56 819.742 177.78 878.732 187.62C888.572 189.26 898.872 190.15 909.592 190.25L896.722 36.0796H896.732Z" fill="white"/>
</mask>
<g mask="url(#mask5_287_83627)">
<path d="M1034.71 -10.9203C1039.71 -14.0303 1039.14 -14.9903 1034.02 -12.0803C1026.75 -7.9503 1019.16 -3.5403 1009.46 2.2297C998.492 8.8097 995.882 10.6397 988.422 15.0497C975.842 22.5397 954.452 34.8997 949.292 37.8797C948.532 38.3197 947.772 38.7697 947.012 39.2197C941.612 42.4797 917.932 56.7697 897.422 68.8797C882.962 77.4797 874.022 82.8097 869.352 85.5897C858.322 92.1597 850.132 97.1697 842.142 102.17C837.752 104.92 838.252 105.75 842.762 103.2C850.962 98.5697 859.272 93.7597 870.312 87.1997C874.602 84.6497 883.672 79.5597 896.312 72.0997C898.372 70.8797 900.412 69.6497 902.432 68.3997C919.832 57.6197 942.722 44.1197 942.722 44.1197C942.722 44.1197 976.802 23.8497 991.182 15.2997C1002.01 8.8497 1007.22 5.7497 1010.42 3.8497C1020.11 -1.9303 1027.61 -6.4903 1034.71 -10.9103V-10.9203Z" fill="#F8EEFE"/>
</g>
<mask id="mask6_287_83627" style="mask-type:luminance" maskUnits="userSpaceOnUse" x="374" y="-41" width="142" height="138">
<path d="M514.112 43.1393C514.972 38.3093 515.422 33.1693 515.422 27.7393C515.422 22.3093 514.962 17.0193 514.082 12.1293C508.852 -16.9807 488.632 -34.9207 460.272 -39.5307C455.432 -40.3207 450.362 -40.7207 445.082 -40.7207C439.802 -40.7207 434.292 -40.2807 429.262 -39.4407C400.892 -34.7007 380.702 -16.8107 375.462 12.1393C374.582 17.0293 374.112 22.2393 374.112 27.7493C374.112 33.2593 374.562 38.3193 375.432 43.1493C380.632 72.0593 400.832 89.9893 429.252 94.7293C434.282 95.5693 439.562 96.0093 445.072 96.0093C450.582 96.0093 455.422 95.6093 460.262 94.8193C488.662 90.1993 508.902 72.2293 514.092 43.1593L514.112 43.1393Z" fill="white"/>
</mask>
<g mask="url(#mask6_287_83627)">
<path d="M441.902 22.4993C446.292 20.4093 445.842 19.3893 441.352 21.2693C434.992 23.9293 428.342 26.8093 419.832 30.5993C410.222 34.9493 407.912 36.2393 401.372 39.1293C390.342 44.0593 371.602 52.0893 367.092 54.0193C366.422 54.3093 365.762 54.5993 365.092 54.8993C360.362 57.0593 339.592 66.5193 321.612 74.4693C308.942 80.1293 301.102 83.6393 297.002 85.4693C287.332 89.7993 280.152 93.1293 273.132 96.4993C269.282 98.3493 269.672 99.2293 273.622 97.5993C280.802 94.6193 288.082 91.4993 297.762 87.1793C301.522 85.4993 309.462 82.2493 320.542 77.3493C322.342 76.5493 324.142 75.7293 325.912 74.8893C341.182 67.6693 361.242 58.8193 361.242 58.8193C361.242 58.8193 391.112 45.4793 403.722 39.8493C413.212 35.6093 417.782 33.5593 420.592 32.3093C429.092 28.5093 435.672 25.4693 441.892 22.5093L441.902 22.4993Z" fill="#F8EEFE"/>
</g>
<mask id="mask7_287_83627" style="mask-type:luminance" maskUnits="userSpaceOnUse" x="59" y="-14" width="48" height="45">
<path d="M106.682 -13.5806V19.0494L90.142 30.1694C79.932 28.1994 69.512 25.9394 59.002 23.3594V-13.5806H106.682Z" fill="white"/>
</mask>
<g mask="url(#mask7_287_83627)">
<path d="M73.3718 3.63939C68.9118 -7.75061 67.8718 -7.35061 72.1118 4.11939C78.1218 20.3894 84.5218 37.4494 92.8418 59.3394C102.332 84.1294 104.892 90.2194 111.272 107.039C122.082 135.439 140.022 183.469 144.342 195.039C144.982 196.749 145.632 198.459 146.282 200.169C150.972 212.389 171.542 265.969 189.052 312.199C201.472 344.829 209.152 365.019 213.172 375.569C222.662 400.479 229.852 419.049 237.002 437.249C240.932 447.249 241.842 446.899 238.122 436.819C231.372 418.469 224.392 399.819 214.922 374.899C211.242 365.219 203.812 344.959 193.032 316.469C191.272 311.829 189.492 307.199 187.702 302.619C172.262 263.049 152.742 211.479 152.742 211.479C152.742 211.479 123.482 134.569 111.132 102.109C101.832 77.6694 97.3518 65.9094 94.6018 58.6794C86.2718 36.7994 79.7018 19.7994 73.3818 3.64939L73.3718 3.63939Z" fill="#F8EEFE"/>
</g>
<path d="M140.372 256.759C156.812 243.219 177.042 233.809 200.142 228.819V256.759H140.372Z" fill="#F8EEFE"/>
<mask id="mask8_287_83627" style="mask-type:luminance" maskUnits="userSpaceOnUse" x="132" y="199" width="69" height="58">
<path d="M200.142 204.359V228.819C177.042 233.809 156.812 243.219 140.372 256.759H132.472V199.879C155.712 202.549 178.282 204.039 200.142 204.359Z" fill="white"/>
</mask>
<g mask="url(#mask8_287_83627)">
<path d="M73.3718 3.63939C68.9118 -7.75061 67.8718 -7.35061 72.1118 4.11939C78.1218 20.3894 84.5218 37.4494 92.8418 59.3394C102.332 84.1294 104.892 90.2194 111.272 107.039C122.082 135.439 140.022 183.469 144.342 195.039C144.982 196.749 145.632 198.459 146.282 200.169C150.972 212.389 171.542 265.969 189.052 312.199C201.472 344.829 209.152 365.019 213.172 375.569C222.662 400.479 229.852 419.049 237.002 437.249C240.932 447.249 241.842 446.899 238.122 436.819C231.372 418.469 224.392 399.819 214.922 374.899C211.242 365.219 203.812 344.959 193.032 316.469C191.272 311.829 189.492 307.199 187.702 302.619C172.262 263.049 152.742 211.479 152.742 211.479C152.742 211.479 123.482 134.569 111.132 102.109C101.832 77.6694 97.3518 65.9094 94.6018 58.6794C86.2718 36.7994 79.7018 19.7994 73.3818 3.64939L73.3718 3.63939Z" fill="#F8EEFE"/>
</g>
<mask id="mask9_287_83627" style="mask-type:luminance" maskUnits="userSpaceOnUse" x="-127" y="-78" width="720" height="283">
<path d="M592.522 -47.4907C525.342 144.879 347.852 234.569 99.8718 195.429C29.0318 184.249 -56.8482 161.019 -126.198 117.409L-100.858 -43.1607C-44.5982 -5.95068 26.5318 17.9093 90.1418 30.1693L20.7718 76.7993L94.5718 186.549L204.322 112.759L154.722 38.9893C282.662 48.7293 362.672 4.12932 402.682 -77.4507L592.522 -47.4907Z" fill="white"/>
</mask>
<g mask="url(#mask9_287_83627)">
<path d="M73.3718 3.63939C68.9118 -7.75061 67.8718 -7.35061 72.1118 4.11939C78.1218 20.3894 84.5218 37.4494 92.8418 59.3394C102.332 84.1294 104.892 90.2194 111.272 107.039C122.082 135.439 140.022 183.469 144.342 195.039C144.982 196.749 145.632 198.459 146.282 200.169C150.972 212.389 171.542 265.969 189.052 312.199C201.472 344.829 209.152 365.019 213.172 375.569C222.662 400.479 229.852 419.049 237.002 437.249C240.932 447.249 241.842 446.899 238.122 436.819C231.372 418.469 224.392 399.819 214.922 374.899C211.242 365.219 203.812 344.959 193.032 316.469C191.272 311.829 189.492 307.199 187.702 302.619C172.262 263.049 152.742 211.479 152.742 211.479C152.742 211.479 123.482 134.569 111.132 102.109C101.832 77.6694 97.3518 65.9094 94.6018 58.6794C86.2718 36.7994 79.7018 19.7994 73.3818 3.64939L73.3718 3.63939Z" fill="#EED7FC"/>
</g>
</g>
</g>
<defs>
<clipPath id="clip0_287_83627">
<rect width="960.03" height="540.01" fill="white"/>
</clipPath>
</defs>
</svg>
