<svg width="112" height="216" viewBox="0 0 112 216" fill="none" xmlns="http://www.w3.org/2000/svg">
<path d="M111.297 121.858V112.882C111.297 76.286 96.1078 50.5078 58.3639 50.5078C20.62 50.5078 0.367188 76.5162 0.367188 112.882C0.367188 149.247 20.62 172.954 66.419 172.954C80.4579 172.954 95.6475 170.422 106.234 166.049V137.969C94.7269 141.652 81.1484 143.954 67.3397 143.954C46.8567 143.954 36.9604 137.049 34.1986 121.858C32.8638 116.679 33.0018 108.762 33.7383 103.215C35.3493 85.9528 42.714 76.0558 57.4433 76.0558C72.1726 76.0558 78.3866 85.0321 79.7674 103.215C80.5039 112.859 80.4578 121.858 80.4578 121.858H111.297Z" fill="#FCA700"/>
<path d="M97.1448 103.146H14.4766V121.858H97.1448V103.146Z" fill="#82B536"/>
<path d="M33.7167 103.215C33.7167 103.215 33.7167 103.169 33.7167 103.146H14.4766V121.858H34.177C32.8422 116.679 32.9802 108.762 33.7167 103.215Z" fill="#164B35"/>
<path d="M79.7461 103.146C79.7461 103.146 79.7461 103.192 79.7461 103.215C80.4826 112.858 80.4366 121.858 80.4366 121.858H97.1451V103.146H79.7461Z" fill="#164B35"/>
</svg>
