<svg width="113" height="217" viewBox="0 0 113 217" fill="none" xmlns="http://www.w3.org/2000/svg">
<path d="M55.4652 139.811C46.9498 139.811 40.8278 136.174 37.2606 128.993C34.8671 124.16 33.6013 117.715 33.6013 109.66C33.6013 103.86 34.3378 98.8651 35.7647 94.6992H1.08176C0.368306 99.4866 0 104.504 0 109.66C0 116.519 0.575342 122.986 1.70306 128.993C6.14487 152.608 19.3783 168.581 42.1397 168.581C58.2499 168.581 71.138 160.986 78.2726 145.335V128.993C78.2726 128.993 68.1461 139.811 55.4881 139.811H55.4652Z" fill="#FCA700"/>
<path d="M44.188 50.7383C18.6648 50.7383 4.85615 69.5654 1.08176 94.6991C0.368306 99.4864 0 104.504 0 109.66C0 116.518 0.575342 122.986 1.70306 128.993H37.2606C34.8671 124.16 33.6013 117.715 33.6013 109.66C33.6013 103.86 34.3378 98.865 35.7647 94.6991C39.0558 85.1244 46.0982 79.9688 56.846 79.9688C68.8136 79.9688 78.2495 94.6991 78.2495 94.6991V73.5242C71.8054 59.4843 60.2982 50.7383 44.188 50.7383Z" fill="#BF63F3"/>
<path d="M78.2482 53.04V157.994C78.2482 174.795 69.963 186.994 45.7977 186.994C31.2985 186.994 17.9501 184.692 4.83179 179.629V210.701C17.2597 214.613 31.5286 216.915 48.7895 216.915C94.8187 216.915 112.31 192.748 112.31 156.613V53.04H78.2482Z" fill="#1868DB"/>
<path d="M1.08176 94.6992C0.368306 99.4866 0 104.504 0 109.66C0 116.519 0.575342 122.986 1.70306 128.993H37.2606C34.8671 124.16 33.6013 117.715 33.6013 109.66C33.6013 103.86 34.3378 98.8651 35.7647 94.6992H1.08176Z" fill="#AE2A19"/>
</svg>
