<svg width="108" height="216" viewBox="0 0 108 216" fill="none" xmlns="http://www.w3.org/2000/svg">
<path d="M0 110.58V129.108V170.652H34.2918V129.108V110.58H0Z" fill="#FCA700"/>
<path d="M34.2918 52.7872V7.44531H0V110.581V129.109H34.2918V110.581V73.5246V52.7872Z" fill="#1868DB"/>
<path d="M55.4625 79.7384C67.8904 79.7384 73.1837 87.5639 73.1837 103.215V129.108H107.475V100.223C107.475 68.2303 95.738 50.5078 70.422 50.5078C53.3912 50.5078 41.1934 58.7936 34.2891 73.524V97.3688C36.5675 85.4925 44.9218 79.7384 55.4625 79.7384Z" fill="#82B536"/>
<path d="M73.1836 110.58V129.108V170.652H107.475V129.108V110.58H73.1836Z" fill="#BF63F3"/>
<path d="M34.2918 110.58H0V129.108H34.2918V110.58Z" fill="#09326C"/>
<path d="M107.475 110.58H73.1836V129.108H107.475V110.58Z" fill="#164B35"/>
</svg>
