<svg width="108" height="216" viewBox="0 0 108 216" fill="none" xmlns="http://www.w3.org/2000/svg">
<path d="M0.0703125 102.902V137.196V170.846H34.362V137.196V102.902H0.0703125Z" fill="#BF63F3"/>
<path d="M73.2578 102.902V137.196V170.846H107.549V137.196V102.902H73.2578Z" fill="#82B536"/>
<path d="M34.362 53.2334H0.0703125V102.902V137.196H34.362V102.902V73.4876V53.2334Z" fill="#FCA700"/>
<path d="M55.5328 79.9327C67.9607 79.9327 73.254 86.1471 73.254 100.417V137.22H107.546V100.417C107.546 68.885 95.3479 50.7021 69.5716 50.7021C53.2313 50.7021 41.2637 58.988 34.3594 73.4882V102.926C34.3594 102.926 37.3283 79.9327 55.5328 79.9327Z" fill="#1868DB"/>
<path d="M34.362 102.902H0.0703125V137.196H34.362V102.902Z" fill="#AE2A19"/>
<path d="M107.548 102.902H73.2566V137.196H107.548V102.902Z" fill="#09326C"/>
</svg>
