<svg width="114" height="216" viewBox="0 0 114 216" fill="none" xmlns="http://www.w3.org/2000/svg">
<path d="M111.691 94.5483C107.64 69.2535 94.1307 50.9326 69.7353 50.9326C52.9347 50.9326 40.737 59.9089 34.293 74.4091V94.5483C34.293 94.5483 44.6494 80.3933 57.0773 80.3933C66.6283 80.3933 73.1644 85.1577 76.4555 94.5483C78.0896 99.1975 78.9411 104.975 78.9411 111.925C78.9411 118.876 78.0435 124.63 76.3174 129.303H111.668C112.565 123.825 113.003 118.002 113.003 111.925C113.003 105.849 112.565 100.049 111.668 94.5483H111.691Z" fill="#BF63F3"/>
<path d="M111.691 94.5479H76.4555C78.0896 99.1971 78.9411 104.974 78.9411 111.925C78.9411 118.876 78.0435 124.63 76.3174 129.302C72.8653 138.624 66.03 143.457 55.9266 143.457C44.4193 143.457 34.293 129.302 34.293 129.302V149.902C41.1973 165.553 53.6251 173.148 69.275 173.148C93.5554 173.148 107.502 155.011 111.668 129.302C112.565 123.824 113.003 118.001 113.003 111.925C113.003 105.849 112.565 100.049 111.668 94.5479H111.691Z" fill="#FCA700"/>
<path d="M34.2918 107.321V74.4083V53.2334H0V215.727H34.2918V149.901V116.758V107.321Z" fill="#82B536"/>
<path d="M111.69 94.5479H76.4545C78.0885 99.1971 78.9401 104.974 78.9401 111.925C78.9401 118.876 78.0425 124.63 76.3164 129.302H111.667C112.564 123.824 113.002 118.001 113.002 111.925C113.002 105.849 112.564 100.049 111.667 94.5479H111.69Z" fill="#AE2A19"/>
</svg>
