<svg width="108" height="216" viewBox="0 0 108 216" fill="none" xmlns="http://www.w3.org/2000/svg">
<path d="M73.207 53.2334V94.5474V115.216V118.599V129.302H107.499V94.5474V53.2334H73.207Z" fill="#BF63F3"/>
<path d="M73.207 94.5479V115.216V118.6V129.302V150.822V170.846H107.499V129.302V94.5479H73.207Z" fill="#1868DB"/>
<path d="M34.2918 123.663V53.2334H0V123.663C0 125.596 0.045883 127.483 0.137941 129.302H34.6368C34.4066 127.576 34.2918 125.711 34.2918 123.663Z" fill="#82B536"/>
<path d="M52.2429 144.148C41.4031 144.148 35.9716 139.567 34.6367 129.302C34.4066 127.576 34.2918 125.712 34.2918 123.663V94.5479H0V123.663C0 125.597 0.045883 127.484 0.137941 129.302C1.56484 157.336 13.9928 173.148 38.2041 173.148C54.3143 173.148 66.2818 165.092 73.1861 150.822V129.302C73.1861 129.302 64.901 144.148 52.2429 144.148Z" fill="#FCA700"/>
<path d="M73.209 115.216V118.6V129.302H107.501V94.5479H73.209V115.216Z" fill="#09326C"/>
<path d="M34.2918 123.663V94.5479H0V123.663C0 125.597 0.045883 127.484 0.137941 129.302H34.6368C34.4066 127.576 34.2918 125.712 34.2918 123.663Z" fill="#164B35"/>
</svg>
