<svg width="960" height="540" viewBox="0 0 960 540" fill="none" xmlns="http://www.w3.org/2000/svg">
<g clip-path="url(#clip0_287_83025)">
<path d="M972 -6.18066H-12V547.819H972V-6.18066Z" fill="#82B536"/>
<path d="M341.19 138.35H125.43V194.21H151.85V179.58H314.75V194.21H341.17V138.35H341.19ZM314.89 172.3C311.34 172.3 308.47 169.42 308.47 165.88C308.47 162.34 311.34 159.46 314.89 159.46C318.44 159.46 321.31 162.34 321.31 165.88C321.31 169.42 318.43 172.3 314.89 172.3Z" fill="#94C748"/>
<path d="M314.759 194.21H151.859V205.22H314.759V194.21Z" fill="#6A9A23"/>
<path d="M341.189 293.359H314.769V307.989H151.869V293.359H125.449V349.219H341.199V293.359H341.189ZM314.889 330.909C311.339 330.909 308.469 328.039 308.469 324.489C308.469 320.939 311.339 318.069 314.889 318.069C318.439 318.069 321.309 320.949 321.309 324.489C321.309 328.029 318.429 330.909 314.889 330.909Z" fill="#94C748"/>
<path d="M314.759 282.35H151.859V293.36H314.759V282.35Z" fill="#6A9A23"/>
<path d="M341.19 215.221H125.43V271.081H341.18V215.221H341.19ZM195.93 248.311H151.33V242.061H195.93V248.311ZM268.69 251.601C265.14 251.601 262.27 248.721 262.27 245.181C262.27 241.641 265.14 238.761 268.69 238.761C272.24 238.761 275.11 241.631 275.11 245.181C275.11 248.731 272.23 251.601 268.69 251.601ZM291.79 251.601C288.24 251.601 285.37 248.721 285.37 245.181C285.37 241.641 288.24 238.761 291.79 238.761C295.34 238.761 298.21 241.631 298.21 245.181C298.21 248.731 295.34 251.601 291.79 251.601ZM314.89 251.601C311.34 251.601 308.47 248.721 308.47 245.181C308.47 241.641 311.34 238.761 314.89 238.761C318.44 238.761 321.31 241.631 321.31 245.181C321.31 248.731 318.43 251.601 314.89 251.601Z" fill="#6A9A23"/>
<path d="M697.519 450.19V464.82H723.939V408.96H508.189V464.82H534.609V450.19H697.509H697.519ZM695.829 428.69C699.379 428.69 702.249 431.57 702.249 435.11C702.249 438.65 699.379 441.53 695.829 441.53C692.279 441.53 689.409 438.65 689.409 435.11C689.409 431.57 692.279 428.69 695.829 428.69Z" fill="#6A9A23"/>
<path d="M697.519 464.83H534.619V475.84H697.519V464.83Z" fill="#6A9A23"/>
<path d="M723.939 485.84H508.189V540.54H723.939V485.84ZM576.869 517.55H532.269V511.3H576.869V517.55ZM649.629 520.84C646.079 520.84 643.209 517.96 643.209 514.42C643.209 510.88 646.079 508 649.629 508C653.179 508 656.049 510.88 656.049 514.42C656.049 517.96 653.169 520.84 649.629 520.84ZM672.729 520.84C669.179 520.84 666.309 517.96 666.309 514.42C666.309 510.88 669.179 508 672.729 508C676.279 508 679.149 510.88 679.149 514.42C679.149 517.96 676.279 520.84 672.729 520.84ZM695.829 520.84C692.279 520.84 689.409 517.96 689.409 514.42C689.409 510.88 692.279 508 695.829 508C699.379 508 702.249 510.88 702.249 514.42C702.249 517.96 699.379 520.84 695.829 520.84Z" fill="#94C748"/>
<path d="M441.851 0H392.211L337.461 74.16H431.521L441.851 0Z" fill="#94C748"/>
<path d="M410.141 227.69L578.221 0H488.181L477.851 74.16H477.411H431.961L442.291 0H441.851L431.521 74.16L410.141 227.69Z" fill="#6A9A23"/>
<path d="M0.199219 39.0898V134.27L70.4592 39.0898H0.199219Z" fill="#94C748"/>
<path d="M961.16 173.829V112.859L914.83 113.879L961.16 173.829Z" fill="#6A9A23"/>
<path d="M852.109 237.14L961.159 234.74V174.76L852.109 237.14Z" fill="#6A9A23"/>
<path d="M441.871 517.86C446.351 507.1 448.961 494.5 448.961 479.77C448.961 465.04 446.341 452.03 441.791 441.12C431.771 417.13 411.971 402.63 387.701 395.86C376.371 392.67 364.041 391.16 351.321 391.16C337.921 391.16 325.191 392.68 313.481 395.94C312.711 396.15 311.971 396.39 311.221 396.62C316.291 398.08 321.131 399.83 325.711 401.88C334.811 405.93 343.001 411.2 349.811 417.8C364.721 432.14 373.501 453.34 373.501 479.74V479.96C373.501 506.35 364.981 526.24 350.471 540.32C350.391 540.4 350.311 540.47 350.231 540.55H427.061C433.151 534.2 438.171 526.67 441.871 517.86Z" fill="#6A9A23"/>
<path d="M259.201 518.089H259.221C254.761 507.319 252.201 494.969 252.201 479.989C252.201 465.009 254.741 452.249 259.281 441.339C268.921 418.249 287.661 403.919 311.171 396.819C316.251 398.279 321.101 400.039 325.691 402.109C334.791 406.159 342.981 411.429 349.791 418.029C364.691 432.349 373.451 453.509 373.471 479.859V479.759C373.471 453.369 364.701 432.159 349.781 417.829C342.971 411.229 334.791 405.959 325.681 401.909C321.101 399.849 316.251 398.109 311.181 396.649C298.511 392.999 284.441 391.189 269.451 391.189C248.471 391.189 228.231 394.799 211.751 402.359C202.901 406.409 194.951 411.509 188.311 417.839C173.141 432.179 163.971 452.689 163.971 479.769C163.971 506.849 172.821 526.049 187.571 540.129C187.731 540.279 187.891 540.419 188.041 540.559H273.771C267.761 534.269 262.821 526.819 259.181 518.099L259.201 518.089Z" fill="#94C748"/>
<path d="M709.93 347.07L811.4 453.42V394.24H774.67V296.44H811.4V237.25L709.93 347.07Z" fill="#94C748"/>
<path d="M961.16 296.439H811.4V394.239H961.16V296.439Z" fill="#6A9A23"/>
<path d="M286.591 99.72V99.69C291.941 67.86 300.871 33.49 313.461 0H121.041C109.761 28.13 100.511 62.05 95.5508 100.54C95.5508 100.55 95.5508 100.57 95.5708 100.57L286.591 99.72Z" fill="#6A9A23"/>
<path d="M961.16 455.58L857.44 456.04C857.44 456.04 857.44 456.04 857.42 456.04C845.56 478.89 834.85 507.42 827.23 540.53H961.141V455.57L961.16 455.58Z" fill="#94C748"/>
<path d="M620.259 0L603.609 51.57L700.109 51.84L716.849 0H620.259Z" fill="#94C748"/>
<path d="M814.841 0H765.421L837.101 52.21L700.111 51.84L691.211 79.39L924.711 80.03L814.841 0Z" fill="#6A9A23"/>
<path d="M85.1592 365.57C85.1792 365.49 85.2092 365.41 85.2292 365.33C88.9392 352.13 90.7192 338.46 90.7192 322.91C90.7192 322.66 90.7192 322.42 90.7092 322.17C90.7092 321.92 90.7192 321.68 90.7192 321.43C90.7192 305.88 88.9492 292.21 85.2292 279.01C85.2092 278.93 85.1792 278.85 85.1592 278.77C77.1592 250 60.2392 227.07 32.4492 215.48C22.9492 211.53 12.3592 208.9 0.199219 207.84V249.1C9.40922 250.58 17.0692 253.81 23.4992 258.45C23.8292 258.68 24.1392 258.92 24.4692 259.16C26.7292 260.87 28.8392 262.76 30.7992 264.82C35.3892 269.68 39.0592 275.4 41.9092 281.87C47.0792 293.45 49.5592 307.24 49.5992 322.18C49.5592 337.12 47.0792 350.92 41.9092 362.49C39.0592 368.95 35.3892 374.68 30.7992 379.54C28.8392 381.6 26.7292 383.48 24.4692 385.2C24.1492 385.44 23.8292 385.68 23.4992 385.91C17.0692 390.55 9.40922 393.78 0.199219 395.26V436.52C12.3592 435.46 22.9392 432.83 32.4492 428.88C60.2492 417.28 77.1692 394.36 85.1592 365.59V365.57Z" fill="#94C748"/>
<path d="M20.7695 336.75C22.0295 332.26 22.6295 327.61 22.6295 322.33C22.6295 317.05 22.0295 312.01 20.7395 307.37C18.0295 297.6 12.2795 289.82 2.84945 285.88C1.98945 285.52 1.09945 285.21 0.189453 284.92V359.14C1.10945 358.85 1.99945 358.53 2.84945 358.18C12.3095 354.22 18.0895 346.38 20.7695 336.75Z" fill="#6A9A23"/>
<path d="M453.48 315.37C455.56 312.62 457.86 310.06 460.36 307.67C466.27 302.08 473.23 297.63 481.09 294.16C495.17 287.88 511.94 284.86 530.11 284.81C548.28 284.86 565.05 287.88 579.13 294.16C586.99 297.63 593.95 302.08 599.86 307.67C602.36 310.06 604.65 312.62 606.74 315.37C607.03 315.76 607.32 316.15 607.6 316.54C613.98 325.37 618.18 336.12 619.58 349.37H669.49C668.5 332.66 665.13 318.37 659.85 305.65C645.75 271.85 617.87 251.28 582.89 241.55C582.79 241.52 582.7 241.49 582.6 241.46C566.54 236.94 549.93 234.79 531.02 234.79C530.72 234.79 530.42 234.8 530.12 234.8C529.82 234.8 529.52 234.79 529.22 234.79C510.31 234.79 493.7 236.94 477.64 241.46C477.54 241.49 477.45 241.52 477.35 241.55C442.36 251.27 414.49 271.84 400.39 305.64C395.1 318.36 391.74 332.65 390.75 349.36H440.66C442.06 336.12 446.25 325.36 452.64 316.52C452.92 316.13 453.22 315.75 453.5 315.35L453.48 315.37Z" fill="#6A9A23"/>
<path d="M573.879 341.63C569.069 330.13 559.529 323.1 547.819 319.84C542.359 318.31 536.709 317.58 530.289 317.58C523.869 317.58 517.749 318.31 512.099 319.88H512.089C500.219 323.18 490.769 330.17 485.969 341.63C484.969 344.04 484.199 346.61 483.619 349.4H576.249C575.679 346.61 574.869 344.02 573.879 341.63Z" fill="#94C748"/>
<path d="M101.239 472.71H0.199219V540.54H101.239V472.71Z" fill="#6A9A23"/>
<path d="M764.92 132.151C758.46 145.961 747.04 147.141 734.12 141.101L676.54 114.161C655.79 104.451 632.36 96.4206 610.69 98.4706C589.56 100.471 570.11 112.071 556.5 141.161C551.93 150.921 548.41 158.441 545.69 164.261L537.35 182.081L593.5 208.351L601.84 190.531C611.43 170.041 625.42 166.811 643.7 175.361L709.65 206.211C755.55 227.681 790.89 215.981 811.12 172.751C818.21 157.601 821.04 148.061 823.28 140.961L770.7 116.361C768.85 121.471 766.82 128.121 764.94 132.131L764.92 132.151Z" fill="#94C748"/>
<path d="M314.891 318.07C311.341 318.07 308.471 320.95 308.471 324.49C308.471 328.03 311.341 330.91 314.891 330.91C318.441 330.91 321.311 328.04 321.311 324.49C321.311 320.94 318.431 318.07 314.891 318.07Z" fill="#82B536"/>
<path d="M314.891 238.76C311.341 238.76 308.471 241.63 308.471 245.18C308.471 248.73 311.341 251.6 314.891 251.6C318.441 251.6 321.311 248.72 321.311 245.18C321.311 241.64 318.431 238.76 314.891 238.76Z" fill="#82B536"/>
<path d="M314.891 159.45C311.341 159.45 308.471 162.33 308.471 165.87C308.471 169.41 311.341 172.29 314.891 172.29C318.441 172.29 321.311 169.41 321.311 165.87C321.311 162.33 318.431 159.45 314.891 159.45Z" fill="#82B536"/>
<path d="M291.789 238.76C288.239 238.76 285.369 241.63 285.369 245.18C285.369 248.73 288.239 251.6 291.789 251.6C295.339 251.6 298.209 248.72 298.209 245.18C298.209 241.64 295.339 238.76 291.789 238.76Z" fill="#82B536"/>
<path d="M268.69 238.76C265.14 238.76 262.27 241.63 262.27 245.18C262.27 248.73 265.14 251.6 268.69 251.6C272.24 251.6 275.11 248.72 275.11 245.18C275.11 241.64 272.23 238.76 268.69 238.76Z" fill="#82B536"/>
<path d="M195.94 242.061H151.34V248.311H195.94V242.061Z" fill="#82B536"/>
<path d="M695.83 508C692.28 508 689.41 510.88 689.41 514.42C689.41 517.96 692.28 520.84 695.83 520.84C699.38 520.84 702.25 517.96 702.25 514.42C702.25 510.88 699.38 508 695.83 508Z" fill="#82B536"/>
<path d="M695.83 441.529C699.376 441.529 702.25 438.655 702.25 435.109C702.25 431.564 699.376 428.689 695.83 428.689C692.285 428.689 689.41 431.564 689.41 435.109C689.41 438.655 692.285 441.529 695.83 441.529Z" fill="#82B536"/>
<path d="M672.731 508C669.181 508 666.311 510.88 666.311 514.42C666.311 517.96 669.181 520.84 672.731 520.84C676.281 520.84 679.151 517.96 679.151 514.42C679.151 510.88 676.281 508 672.731 508Z" fill="#82B536"/>
<path d="M649.631 508C646.081 508 643.211 510.88 643.211 514.42C643.211 517.96 646.081 520.84 649.631 520.84C653.181 520.84 656.051 517.96 656.051 514.42C656.051 510.88 653.171 508 649.631 508Z" fill="#82B536"/>
<path d="M576.879 511.301H532.279V517.551H576.879V511.301Z" fill="#82B536"/>
</g>
<defs>
<clipPath id="clip0_287_83025">
<rect width="960" height="540" fill="white"/>
</clipPath>
</defs>
</svg>
