<svg width="960" height="540" viewBox="0 0 960 540" fill="none" xmlns="http://www.w3.org/2000/svg">
<g clip-path="url(#clip0_287_67024)">
<path d="M196.848 36.9603C197.468 35.4603 198.178 34.0203 198.998 32.6603C200.718 29.7903 202.948 27.2303 205.778 25.1003C209.508 22.2703 213.768 20.6903 218.308 20.7003C222.158 20.7003 226.148 21.8203 230.208 24.0003C233.498 25.7703 236.858 28.2503 240.308 31.4403C241.628 28.6403 242.928 25.5503 244.188 22.1303L248.558 10.2903L289.778 25.4903L301.458 16.6803C298.898 12.4503 295.078 7.37025 290.178 0.880254C289.958 0.590254 289.728 0.300254 289.508 0.0102539H178.648C182.838 6.66025 186.148 13.6803 189.088 20.8603C191.898 26.9903 194.338 32.4203 196.848 36.9703V36.9603Z" fill="#EFFFD6"/>
<path d="M861.213 492.55L849.473 454.89L812.633 540H874.763L893.503 492.55H861.213Z" fill="#EFFFD6"/>
<path d="M699.461 173.43V173.47L699.381 173.66C699.321 173.83 699.231 174.08 699.121 174.4C698.901 175.05 698.581 176.01 698.191 177.25C697.401 179.74 696.301 183.37 695.041 188.02C692.531 197.31 689.391 210.63 686.841 226.86C686.771 227.33 686.651 228.02 686.531 228.71C686.481 228.99 686.441 229.27 686.391 229.54C688.771 245.72 690.551 264.53 690.551 285.12C690.551 305.19 688.861 323.55 686.571 339.45C686.591 339.76 686.611 340.09 686.631 340.43C686.691 341.44 686.751 342.52 686.801 343.09C686.811 343.25 686.831 343.37 686.831 343.38C691.571 373.57 698.361 393.7 699.341 396.51C699.401 396.69 699.441 396.8 699.451 396.81L700.391 399.22L691.541 402.28L744.611 420.59C746.911 413.94 753.461 393.62 758.691 364.33C762.601 342.34 765.761 315.32 765.761 285.12C765.761 254.92 762.601 227.94 758.691 205.91C753.491 176.62 746.911 156.3 744.611 149.65L691.541 167.96L700.391 171.01L699.451 173.42L699.461 173.43Z" fill="#EFFFD6"/>
<path d="M949.531 490.051H899.871L880.141 540.001H960.001V337.811L927.621 419.791L949.531 490.051Z" fill="#EFFFD6"/>
<path d="M540.96 136.6L539.55 103.22L538.64 81.5103L466.68 84.5403L445.13 85.4403L414.98 141.9L540.96 136.6Z" fill="#EFFFD6"/>
<path d="M169.242 478.5L169.082 478.41L73.1016 540H271.562L169.242 478.5Z" fill="#EFFFD6"/>
<path d="M232.509 434.811L173.719 475.361L173.859 475.451L281.269 540.001H302.889V472.391L232.509 434.811Z" fill="#EFFFD6"/>
<path d="M429.112 479.64C428.212 469.19 432.492 459.65 442.192 450.48C444.362 448.43 446.782 446.44 449.392 444.53C446.762 446.45 444.342 448.44 442.152 450.5C432.442 459.66 428.162 469.18 429.062 479.62C429.562 485.38 431.552 491.54 434.992 497.93C436.682 501.07 438.522 503.88 440.492 506.35C438.542 503.89 436.722 501.1 435.042 497.99C431.602 491.58 429.602 485.41 429.102 479.65L429.112 479.64Z" fill="#EFFFD6"/>
<path d="M227.843 28.3904C224.353 26.5204 221.193 25.6904 218.313 25.6904C216.613 25.6904 215.003 25.9704 213.423 26.5404C211.853 27.1004 210.303 27.9504 208.793 29.0904C206.473 30.8404 204.713 32.8604 203.283 35.2404C202.023 37.3304 201.033 39.7304 200.213 42.4204V42.4404L199.873 43.5404C199.703 44.1504 199.543 44.7904 199.383 45.4304C202.483 49.3604 206.063 52.3104 210.773 54.0404C221.173 57.8804 231.073 53.2604 239.703 37.8304C239.523 37.6504 239.343 37.4604 239.173 37.2804C235.133 33.1904 231.333 30.2704 227.843 28.3904Z" fill="#EFFFD6"/>
<path d="M333.173 319.54H333.023H290.883V319.92V346.29H359.773V277.41H333.613H333.173V319.54Z" fill="#EFFFD6"/>
<path d="M146.303 100.37C140.313 92.1402 135.993 83.2902 132.163 74.4302C129.563 68.8002 127.293 63.7602 124.983 59.4302C124.393 60.7302 123.743 62.0002 122.993 63.1902C121.303 65.8802 119.163 68.2802 116.473 70.3102C114.603 71.7202 112.603 72.8302 110.503 73.5802C108.403 74.3302 106.193 74.7202 103.933 74.7202C99.9728 74.7202 95.8728 73.5402 91.7028 71.2402C88.3428 69.3902 84.9228 66.8002 81.4028 63.4602C80.0228 66.3502 78.6728 69.5602 77.3628 73.1202L75.0128 72.2602L77.3628 73.1302C76.8928 74.4002 76.5428 75.8502 76.1728 77.3902C75.8028 78.9302 75.4228 80.5802 74.8128 82.2302L73.9428 84.5802L32.2628 69.2102L20.3828 78.1702C23.2728 82.8802 27.0728 87.9402 31.6428 93.9902C45.3728 112.2 59.3628 125.31 73.1328 133.85C86.9128 142.38 100.463 146.35 113.483 146.35C128.523 146.35 142.963 141.05 156.343 130.98C160.723 127.68 164.513 124.31 167.813 120.88C158.703 114.93 151.793 107.92 146.303 100.38V100.37Z" fill="#EFFFD6"/>
<path d="M685.55 285.12C685.55 269.52 684.51 254.95 682.97 241.78L682.51 238.68C680.77 252.65 679.57 268.29 679.57 285.12C679.57 301.95 680.75 317.36 682.47 331.26L683.25 326.01C684.64 313.49 685.55 299.76 685.55 285.12Z" fill="#EFFFD6"/>
<path d="M609.98 540H673.23L670.01 526.3L609.98 540Z" fill="#EFFFD6"/>
<path d="M83.8097 58.7202L83.7597 58.8202C87.4397 62.4502 90.8997 65.1103 94.1097 66.8703C97.7197 68.8603 100.97 69.7303 103.92 69.7303C105.62 69.7303 107.23 69.4402 108.81 68.8802C110.39 68.3202 111.93 67.4702 113.45 66.3202C115.65 64.6602 117.35 62.7502 118.75 60.5302C119.97 58.5902 120.94 56.3902 121.75 53.9302V53.9102L122.12 52.8302C122.31 52.2002 122.49 51.5502 122.66 50.9002C119.39 46.4302 115.59 43.1002 110.47 41.2102C100.23 37.4302 90.4597 41.8902 81.9297 56.7402C82.1397 56.9602 82.3497 57.2002 82.5597 57.4102L83.8197 58.7102L83.8097 58.7202Z" fill="#EFFFD6"/>
<path d="M170.86 401.88L165.36 398.95L102.98 433.3L108.2 436.4L170.86 401.88Z" fill="#EFFFD6"/>
<path d="M847.51 90.04H749.8V51.35H657.84V110.37H598.82V51.35H657.84V0H452.73L471.96 34.92L447.71 80.33L507.49 77.81L543.43 76.3L546.17 141.38L412.1 147.02L402.58 164.84H322.31L401.22 33.55L379.68 0H295.79C300.63 6.44 304.39 11.52 306.93 16.13L307.97 18.03L295.36 27.54L295.46 27.58L293.04 29.41L307.13 34.61C305.72 40.74 303.27 47.37 300.3 55.44C275.14 123.67 232.41 144.56 188.38 128.32C183.02 126.35 178.23 124.11 173.9 121.67C173.78 121.8 173.67 121.93 173.56 122.06L170.73 125.21L170.69 125.1C167.37 128.46 163.62 131.76 159.36 134.97C145.29 145.59 129.74 151.36 113.49 151.35C99.44 151.35 84.94 147.04 70.51 138.1C56.07 129.15 41.68 115.59 27.66 97C22.49 90.14 18.17 84.43 14.93 78.77L13.84 76.86L29.02 65.41L14.37 60.01C15.52 54.6 17.96 47.96 21.2 39.18C26.9 23.69 33.59 10.68 41.02 0H0V183.95L126.38 210.91L112.21 277.34L112.32 277.38V277.44L130.64 284.13L103.4 358.81L0 321.09V540H33.7C34.37 514.05 35.17 477.72 34.46 477.01L103.12 439.19L96.67 435.36L92.91 433.13L165.32 393.25L307.89 469.39V540H371.02L398.36 534.3C398.36 534.3 398.34 534.27 398.33 534.26H398.35C395.53 530.38 392.92 526.24 390.54 521.81C383.83 509.33 379.87 496.59 378.78 483.94C376.53 457.89 386.48 433.63 407.53 413.78C415.83 405.96 425.75 398.92 437.01 392.86C447.82 387.05 458.82 382.82 469.69 380.28C497.79 373.73 523.49 378.85 544.02 395.08C554.01 402.98 562.47 413.3 569.18 425.78C575.8 438.1 579.71 450.73 580.78 463.31C581.78 475.03 580.32 486.39 576.51 497.14H576.54C576.54 497.14 576.53 497.17 576.52 497.18L659.11 479.98L651.67 448.33L716.19 490.39L688.08 540H807.16L847.16 447.57L848.69 444.04L807.25 311.14H893.72L900.17 331.81H959.98V200.81L953.18 217.79H909.58L908.58 220.29H905.73L884.35 273.68H801.24L913.67 17.53H955.4L955.84 16.53L956.5 15.03H959.08L960.01 12.92V0H847.52V90.04H847.51ZM364.77 351.29H285.88V319.53H218.84V364.16H174.21V319.53H218.84V205.36H333.01V272.4H364.77V351.29ZM531.55 310.21L494.72 337.47L469.68 305.06L444.63 337.47L407.43 310.21L431.74 278.9L396.01 267.11L410.74 225.12L446.1 236.91V201.92H492.88V236.91L528.61 225.12L543.34 267.11L507.24 278.9L531.55 310.21ZM763.62 365.21C757.31 400.56 749.08 423.03 748.48 424.63L747.63 426.92L679.98 403.57L621.48 423.76C620.92 422.27 612.7 399.93 606.46 364.77C602.53 342.62 599.35 315.5 599.35 285.12C599.35 254.74 602.53 227.58 606.46 205.47C612.74 170.31 620.92 147.97 621.48 146.48L679.99 166.67L747.64 143.33L748.49 145.61C749.09 147.21 757.36 169.69 763.63 205.04C767.58 227.31 770.78 254.57 770.78 285.12C770.78 315.67 767.58 342.97 763.63 365.21H763.62Z" fill="#EFFFD6"/>
<path d="M955.019 336.82H904.359L926.709 408.48L955.019 336.82Z" fill="#EFFFD6"/>
<path d="M749.788 0H657.828V51.35H749.788V0Z" fill="#D3F1A7"/>
<path d="M960 15.0299V12.9199L959.07 15.0299H960Z" fill="#D3F1A7"/>
<path d="M953.202 217.8L960.002 200.82V91.9502L909.602 217.8H953.202Z" fill="#D3F1A7"/>
<path d="M666.952 513.24L659.122 480H659.142V479.98L576.552 497.18C571.882 510.35 563.692 522.61 552.122 533.54C549.762 535.77 547.272 537.91 544.672 539.99H610.002L670.032 526.29L666.962 513.24H666.952Z" fill="#D3F1A7"/>
<path d="M399.03 535.19C398.89 535.01 398.75 534.83 398.62 534.64C398.54 534.53 398.45 534.41 398.36 534.3L371.02 540H402.88C402.25 539.26 401.63 538.51 401.02 537.75C400.35 536.91 399.68 536.06 399.04 535.2L399.03 535.19Z" fill="#D3F1A7"/>
<path d="M651.688 448.33L659.128 479.99L668.648 478L678.008 476.04L678.018 476.05H678.028L686.008 510L688.838 522L670.018 526.3V526.29L670.008 526.3L673.227 540H688.097L716.217 490.39L651.688 448.33Z" fill="#D3F1A7"/>
<path d="M670.009 526.3L670.019 526.29L666.949 513.24L670.009 526.3Z" fill="#D3F1A7"/>
<path d="M678.03 476.05H678.02L686.01 510L678.03 476.05Z" fill="#D3F1A7"/>
<path d="M668.653 478L659.133 479.99V480L668.653 478Z" fill="#D3F1A7"/>
<path d="M899.858 490.05L898.868 492.55H893.498L874.758 540H880.138L899.868 490.05H899.858Z" fill="#D3F1A7"/>
<path d="M847.19 447.57L807.18 540H812.63L849.47 454.89L847.19 447.57Z" fill="#D3F1A7"/>
<path d="M904.361 336.82H955.021L926.711 408.48L929.081 416.08L927.621 419.78V419.79L960.001 337.81V331.82H902.801L904.361 336.82Z" fill="#D3F1A7"/>
<path d="M683.769 247.17L682.969 241.79C684.519 254.96 685.549 269.52 685.549 285.13C685.549 299.77 684.639 313.51 683.249 326.02L683.959 321.21L686.429 337.87C686.479 338.22 686.509 338.56 686.539 339C686.549 339.14 686.559 339.3 686.569 339.46C688.859 323.56 690.549 305.2 690.549 285.13C690.549 264.54 688.769 245.73 686.389 229.55C686.329 229.93 686.269 230.27 686.239 230.51L683.769 247.17Z" fill="#D3F1A7"/>
<path d="M746.141 146.48L743.801 147.35C743.881 147.57 744.171 148.36 744.621 149.65L746.961 148.84L746.141 146.48Z" fill="#D3F1A7"/>
<path d="M746.141 423.76L746.961 421.4L744.621 420.59C744.171 421.88 743.891 422.66 743.801 422.89L746.141 423.76Z" fill="#D3F1A7"/>
<path d="M763.619 205.04C757.349 169.69 749.079 147.21 748.479 145.61L747.629 143.33L679.979 166.67L680.049 166.7L683.959 165.35L691.549 167.97L744.619 149.66C744.169 148.37 743.879 147.59 743.799 147.36L746.139 146.49L746.959 148.85L744.619 149.66C746.919 156.3 753.499 176.63 758.699 205.92C762.609 227.95 765.769 254.93 765.769 285.13C765.769 315.33 762.609 342.35 758.699 364.34C753.469 393.62 746.909 413.95 744.619 420.6L746.959 421.41L746.139 423.77L743.799 422.9C743.879 422.68 744.169 421.89 744.619 420.6L691.549 402.29L683.959 404.91L680.049 403.56L679.969 403.59L747.619 426.94L748.469 424.65C749.069 423.04 757.299 400.57 763.609 365.23C767.569 343 770.759 315.69 770.759 285.14C770.759 254.59 767.559 227.32 763.609 205.05L763.619 205.04Z" fill="#D3F1A7"/>
<path d="M124.23 287.12L111.26 282.39L110.6 285.49L0 262.09V315.77L100.42 352.4L124.23 287.12Z" fill="#EFFFD6"/>
<path d="M130.64 284.14L112.31 277.45L111.78 279.92L127.44 285.63L101.91 355.61L0 318.43V321.09L103.4 358.81L130.64 284.14Z" fill="#D3F1A7"/>
<path d="M127.44 285.63L111.78 279.92L111.26 282.39L124.23 287.12L100.42 352.4L0 315.77V318.43L101.91 355.61L127.44 285.63Z" fill="#D3F1A7"/>
<path d="M528.598 225.13L492.878 236.92V201.92H446.098V236.92L410.738 225.13L396.008 267.12L431.738 278.9L407.428 310.21L444.628 337.47L469.668 305.05L494.718 337.47L531.548 310.21L507.238 278.9L543.338 267.12L528.598 225.13Z" fill="#D3F1A7"/>
<path d="M808.821 51.35H749.951H749.801V90.04H847.511V0H808.971V51.35H808.821Z" fill="#D3F1A7"/>
<path d="M803.969 0H754.949V46.35H803.969V0Z" fill="#D3F1A7"/>
<path d="M749.951 0H749.801V51.35H749.951V0Z" fill="#D3F1A7"/>
<path d="M657.833 51.3506H598.812V110.371H657.833V51.3506Z" fill="#D3F1A7"/>
<path d="M333.022 272.41V205.37H218.852V319.54H285.882V272.41H333.022Z" fill="#D3F1A7"/>
<path d="M14.3594 60.0002L29.0094 65.4002L30.2894 64.4302L66.2894 37.2802L66.3394 37.3502L66.4394 37.2802L74.0394 47.3602C76.7594 50.9602 79.3794 54.0502 81.9194 56.7302C90.4494 41.8802 100.219 37.4202 110.459 41.2002C115.579 43.0902 119.369 46.4202 122.649 50.8902C123.309 48.3702 123.849 45.6202 124.339 42.6402C124.959 38.8802 125.499 34.7502 126.119 30.2702C126.299 28.3602 126.509 26.4502 126.749 24.5402C126.829 23.8802 126.929 23.2202 127.019 22.5602C127.059 22.2702 127.099 21.9702 127.139 21.6802C127.179 21.3702 127.239 21.0702 127.279 20.7602C127.459 19.5602 127.659 18.3602 127.869 17.1702C128.029 16.2902 128.199 15.4002 128.369 14.5202C128.649 13.1202 128.949 11.7102 129.289 10.3202C129.519 9.38023 129.759 8.44023 130.019 7.50023C130.299 6.47023 130.599 5.44023 130.909 4.41023C131.219 3.38023 131.559 2.36023 131.919 1.34023C132.079 0.890234 132.239 0.440234 132.409 -0.00976562H41.0194C33.5794 10.6702 26.8994 23.6802 21.1894 39.1602C17.9494 47.9402 15.5094 54.5702 14.3594 59.9902V60.0002Z" fill="#D3F1A7"/>
<path d="M255.017 57.9501L254.917 58.0201L253.407 56.0201C252.347 54.6101 251.507 53.1501 250.707 51.7801C249.907 50.4101 249.157 49.1201 248.337 48.0401C245.347 44.0701 242.457 40.6801 239.687 37.8201C231.057 53.2501 221.157 57.8701 210.757 54.0301C206.047 52.2901 202.467 49.3401 199.367 45.4201C199.337 45.5401 199.307 45.6501 199.277 45.7701C198.907 47.3301 198.567 48.9701 198.257 50.7001C197.947 52.4301 197.657 54.2401 197.377 56.1301C197.237 57.0701 197.097 58.0401 196.957 59.0201C196.677 60.9801 196.397 63.0201 196.097 65.1401C195.277 72.2301 194.187 79.3901 192.327 86.5201C192.057 87.5401 191.777 88.5601 191.477 89.5701C191.287 90.2301 191.077 90.8801 190.867 91.5401C190.607 92.3501 190.357 93.1601 190.077 93.9701C189.337 96.1001 188.497 98.2301 187.567 100.35C187.327 100.89 187.087 101.43 186.837 101.96C185.667 104.46 184.357 106.95 182.877 109.41C180.387 113.55 177.417 117.64 173.867 121.63C178.197 124.07 182.987 126.3 188.347 128.28C232.377 144.52 275.107 123.63 300.267 55.4001C303.237 47.3301 305.687 40.7001 307.097 34.5701L293.007 29.3701L255.047 57.9901L254.987 57.9201L255.017 57.9501Z" fill="#D3F1A7"/>
<path d="M955.398 17.5303H913.668L801.258 273.69H884.368L905.748 220.3H866.418L955.398 17.5303Z" fill="#D3F1A7"/>
<path d="M874.07 215.3H905.21L960 78.5003V20.0303H959.76L874.07 215.3Z" fill="#D3F1A7"/>
<path d="M471.761 519.01C461.791 520.17 453.571 518.13 446.821 512.76C444.581 510.98 442.461 508.83 440.481 506.34C438.501 503.87 436.661 501.06 434.981 497.92C431.541 491.53 429.551 485.37 429.051 479.61C428.151 469.17 432.431 459.65 442.141 450.49C444.321 448.43 446.751 446.44 449.381 444.52C452.871 441.97 456.721 439.54 460.931 437.27C467.821 433.56 474.641 430.91 481.181 429.38C494.141 426.36 504.471 428.08 512.761 434.64C517.311 438.24 521.351 443.3 524.771 449.68C528.121 455.91 530.061 461.96 530.551 467.65C531.451 478.17 527.171 487.75 517.461 496.93C512.571 501.55 506.601 505.78 499.701 509.49C493.731 512.7 487.901 515.14 482.281 516.8L547.211 503.28L576.501 497.13C580.311 486.38 581.771 475.02 580.771 463.3C579.691 450.72 575.791 438.09 569.171 425.77C562.461 413.29 554.001 402.97 544.011 395.07C523.481 378.84 497.771 373.72 469.681 380.27C458.811 382.81 447.811 387.04 437.001 392.85C425.731 398.91 415.811 405.95 407.521 413.77C386.471 433.62 376.531 457.89 378.771 483.93C379.861 496.58 383.821 509.32 390.531 521.8C392.911 526.23 395.521 530.37 398.341 534.24L420.341 529.7L471.751 518.99L471.761 519.01Z" fill="#D3F1A7"/>
<path d="M481.07 517.18L547.24 503.29L482.31 516.81C481.9 516.93 481.48 517.06 481.07 517.17V517.18Z" fill="#D3F1A7"/>
<path d="M402.88 540C402.25 539.26 401.63 538.51 401.02 537.75C401.63 538.52 402.25 539.26 402.88 540Z" fill="#D3F1A7"/>
<path d="M420.352 529.72L473.202 518.82C472.722 518.89 472.242 518.96 471.772 519.01L420.362 529.72H420.352Z" fill="#D3F1A7"/>
<path d="M166.747 477.01L162.587 474.51L103.107 439.2L34.4475 477.02C35.1575 477.73 34.3475 514.06 33.6875 540.01H73.0875L169.068 478.42L166.738 477.02L166.747 477.01Z" fill="#D3F1A7"/>
<path d="M108.269 436.44L170.939 401.93L170.859 401.88L108.199 436.4L108.269 436.44Z" fill="#D3F1A7"/>
<path d="M173.641 475.31L173.721 475.36L232.511 434.81L232.421 434.76L173.641 475.31Z" fill="#D3F1A7"/>
<path d="M168.26 472.08L173.64 475.31L232.42 434.76L170.94 401.93L108.27 436.44L165.15 470.21L168.26 472.08Z" fill="#D3F1A7"/>
<path d="M897.289 331.82H900.19L893.74 311.15H807.27L848.71 444.04L897.289 331.82Z" fill="#D3F1A7"/>
<path d="M949.527 490.05L927.617 419.79L899.867 490.05H949.527Z" fill="#D3F1A7"/>
<path d="M899.869 490.05L927.619 419.79V419.78L899.859 490.05H899.869Z" fill="#D3F1A7"/>
<path d="M668.309 396.82L668.329 396.77L668.399 396.58C668.459 396.41 668.549 396.16 668.659 395.84C668.879 395.19 669.199 394.23 669.589 392.99C670.379 390.5 671.479 386.87 672.739 382.22C675.249 372.93 678.389 359.61 680.939 343.38C681.039 342.73 681.139 342.06 681.239 341.4C681.239 341.36 681.239 341.33 681.239 341.3C681.299 340.3 681.359 339.22 681.419 338.48C681.439 338.26 681.459 338.08 681.489 337.87L682.469 331.27C680.749 317.37 679.569 301.84 679.569 285.13C679.569 268.42 680.769 252.66 682.509 238.69L681.299 230.51C681.219 229.96 681.199 229.44 681.189 228.9C681.189 228.73 681.189 228.57 681.179 228.4C681.099 227.89 681.029 227.37 680.949 226.86C676.209 196.67 669.419 176.54 668.439 173.73C668.379 173.55 668.339 173.44 668.329 173.43L667.399 171.03L679.999 166.68L621.489 146.49C620.929 147.98 612.749 170.32 606.469 205.48C602.539 227.59 599.359 254.75 599.359 285.13C599.359 315.51 602.539 342.63 606.469 364.78C612.709 399.94 620.929 422.28 621.489 423.77L679.989 403.58L667.399 399.24L668.329 396.83L668.309 396.82Z" fill="#D3F1A7"/>
<path d="M668.312 396.821V396.831L668.323 396.811L668.312 396.821Z" fill="#D3F1A7"/>
<path d="M668.323 396.811L668.312 396.831L668.443 396.881L668.453 396.861L668.323 396.811Z" fill="#D3F1A7"/>
<path d="M668.313 173.42L668.453 173.37L667.543 171.02L680.063 166.7L679.993 166.67L667.383 171.02L668.313 173.42Z" fill="#D3F1A7"/>
<path d="M667.541 399.22L668.441 396.88L668.311 396.83V396.82L667.391 399.22L679.981 403.57L680.061 403.54L667.541 399.22Z" fill="#D3F1A7"/>
<path d="M668.45 396.86L668.47 396.82L668.49 396.78L668.56 396.59C668.62 396.42 668.71 396.17 668.82 395.85C669.04 395.2 669.36 394.24 669.75 393C670.54 390.51 671.64 386.88 672.9 382.23C675.41 372.94 678.55 359.62 681.1 343.39C681.1 343.36 681.14 343.04 681.17 342.66C681.2 342.3 681.22 341.86 681.25 341.4C681.15 342.06 681.05 342.73 680.95 343.38C678.4 359.61 675.27 372.93 672.75 382.22C671.49 386.86 670.39 390.5 669.6 392.99C669.2 394.23 668.89 395.19 668.67 395.84C668.56 396.17 668.47 396.41 668.41 396.58L668.34 396.77L668.32 396.82L668.45 396.86Z" fill="#D3F1A7"/>
<path d="M668.312 173.42L668.323 173.44L668.312 173.42Z" fill="#D3F1A7"/>
<path d="M668.443 173.386L668.312 173.437L668.32 173.455L668.45 173.405L668.443 173.386Z" fill="#D3F1A7"/>
<path d="M681.09 226.86C676.35 196.67 669.56 176.54 668.58 173.72C668.52 173.54 668.48 173.43 668.47 173.41V173.38L668.32 173.43V173.41C668.32 173.41 668.36 173.54 668.42 173.71C669.41 176.52 676.2 196.65 680.93 226.85C681.01 227.35 681.09 227.87 681.16 228.38C681.16 228.03 681.14 227.68 681.13 227.4C681.12 227.13 681.1 226.91 681.08 226.84L681.09 226.86Z" fill="#D3F1A7"/>
<path d="M112.21 277.34L126.38 210.91L0 183.95V236.35L110.28 276.64L112.21 277.34Z" fill="#D3F1A7"/>
<path d="M322.301 164.85H402.571L412.091 147.03L380.391 148.36L377.761 85.77L377.651 83.28L447.711 80.33L471.961 34.92L452.731 0H379.681L401.211 33.56L322.301 164.85Z" fill="#D3F1A7"/>
<path d="M333.17 277.41H333.02V319.54H333.17V277.41Z" fill="#D3F1A7"/>
<path d="M333.013 277.41H290.883V319.54H333.013V277.41Z" fill="#D3F1A7"/>
<path d="M218.841 319.54H174.211V364.17H218.841V319.54Z" fill="#D3F1A7"/>
<path d="M167.81 120.87C164.51 124.3 160.72 127.67 156.34 130.97C142.96 141.05 128.53 146.34 113.48 146.34C100.46 146.34 86.9203 142.37 73.1303 133.84C59.3503 125.31 45.3703 112.19 31.6403 93.9801C27.0803 87.9301 23.2803 82.8801 20.3803 78.1601L18.5903 79.5101L17.0803 77.5101L19.2503 76.2701C19.6103 76.8901 19.9803 77.5201 20.3703 78.1601L32.2503 69.2001L26.7803 67.1801L29.1003 65.4301L29.0003 65.3901L13.8203 76.8401L14.9103 78.7501C18.1503 84.4201 22.4603 90.1201 27.6403 96.9801C41.6603 115.57 56.0503 129.13 70.4903 138.08C84.9203 147.02 99.4203 151.34 113.47 151.33C129.71 151.33 145.27 145.57 159.34 134.95C163.6 131.74 167.35 128.44 170.67 125.08L169.6 122C168.99 121.62 168.39 121.24 167.8 120.86L167.81 120.87Z" fill="#D3F1A7"/>
<path d="M17.1016 77.5203L18.6116 79.5203L20.4016 78.1703C20.0116 77.5303 19.6316 76.9103 19.2816 76.2803L17.1116 77.5203H17.1016Z" fill="#D3F1A7"/>
<path d="M200.222 42.4104C201.042 39.7204 202.032 37.3304 203.292 35.2304C204.722 32.8504 206.482 30.8304 208.802 29.0804C210.322 27.9404 211.862 27.0904 213.432 26.5304C215.012 25.9704 216.622 25.6804 218.322 25.6804C221.202 25.6804 224.362 26.5104 227.852 28.3804C231.342 30.2504 235.142 33.1804 239.182 37.2704C239.362 37.4504 239.532 37.6404 239.712 37.8204C239.732 37.7904 239.752 37.7504 239.772 37.7204C239.622 37.5704 239.472 37.4104 239.322 37.2604L238.042 35.9704L238.872 34.3604C239.352 33.4204 239.842 32.4404 240.312 31.4304C236.862 28.2404 233.502 25.7604 230.212 23.9904C226.162 21.8104 222.172 20.6904 218.312 20.6904C213.782 20.6904 209.522 22.2604 205.782 25.0904C202.942 27.2304 200.722 29.7804 199.002 32.6504C198.182 34.0104 197.482 35.4504 196.852 36.9504C197.732 38.5504 198.632 40.0404 199.552 41.4104L200.212 42.4004L200.222 42.4104Z" fill="#D3F1A7"/>
<path d="M304.729 17.3301L303.219 15.3301L301.449 16.6601C301.839 17.3001 302.199 17.9201 302.529 18.5301L304.719 17.3301H304.729Z" fill="#D3F1A7"/>
<path d="M81.3906 63.4702C84.9106 66.8002 88.3406 69.3902 91.6906 71.2502C95.8606 73.5502 99.9606 74.7302 103.921 74.7302C106.191 74.7302 108.391 74.3402 110.491 73.5902C112.591 72.8402 114.581 71.7302 116.461 70.3202C119.151 68.2902 121.291 65.8902 122.981 63.2002C123.731 62.0002 124.381 60.7402 124.971 59.4402C124.121 57.8402 123.261 56.3402 122.381 54.9502L121.751 53.9502C120.931 56.4102 119.961 58.6102 118.751 60.5502C117.351 62.7702 115.651 64.6802 113.451 66.3402C111.931 67.4902 110.391 68.3302 108.811 68.9002C107.231 69.4602 105.621 69.7502 103.921 69.7502C100.961 69.7502 97.7106 68.8802 94.1106 66.8902C90.9006 65.1202 87.4406 62.4602 83.7606 58.8402L82.9706 60.3402C82.4406 61.3402 81.9106 62.4002 81.3906 63.4902V63.4702Z" fill="#D3F1A7"/>
<path d="M301.461 16.67L303.231 15.34L304.741 17.34L302.551 18.54C302.221 17.94 301.861 17.31 301.471 16.67L289.791 25.48L295.371 27.54L307.981 18.03L306.941 16.13C304.401 11.52 300.651 6.43 295.801 0H289.531C289.751 0.29 289.981 0.57 290.201 0.87C295.101 7.36 298.911 12.44 301.481 16.67H301.461Z" fill="#D3F1A7"/>
<path d="M66.3478 37.36L66.2878 37.29L30.2978 64.43L29.0078 65.4L29.1078 65.44L66.3478 37.36Z" fill="#D3F1A7"/>
<path d="M250.867 51.7902C250.067 50.4202 249.317 49.1302 248.497 48.0502C245.477 44.0402 242.557 40.6202 239.747 37.7402C239.727 37.7702 239.707 37.8102 239.688 37.8402C242.457 40.7002 245.347 44.0902 248.337 48.0602C249.157 49.1402 249.908 50.4302 250.708 51.8002C251.508 53.1702 252.348 54.6302 253.408 56.0402L254.917 58.0402L255.018 57.9702L253.568 56.0502C252.508 54.6402 251.667 53.1802 250.867 51.8102V51.7902Z" fill="#D3F1A7"/>
<path d="M130.93 4.42C131.24 3.39 131.58 2.37 131.94 1.35C131.58 2.37 131.25 3.4 130.93 4.42Z" fill="#D3F1A7"/>
<path d="M132.427 20.1803C132.057 22.5203 131.737 24.8803 131.467 27.2503C131.337 28.4403 131.208 29.6303 131.098 30.8303V30.8803L131.087 30.9303C130.257 36.9003 129.557 42.3503 128.587 47.3103C128.447 48.0203 128.307 48.7203 128.147 49.4103C127.857 50.7203 127.537 51.9903 127.188 53.2403C130.487 58.6803 133.337 65.1103 136.697 72.3603V72.3903L136.727 72.4202C140.497 81.1602 144.677 89.6603 150.337 97.4403C155.667 104.75 162.288 111.43 171.208 117.13C172.488 115.63 173.688 114.11 174.798 112.59C175.908 111.07 176.948 109.54 177.908 108C178.168 107.58 178.428 107.15 178.688 106.73C179.697 105.04 180.627 103.33 181.477 101.61C181.767 101.03 182.037 100.46 182.307 99.8802C183.047 98.2902 183.728 96.6902 184.348 95.0902C184.618 94.3802 184.887 93.6803 185.137 92.9703C185.207 92.7703 185.287 92.5603 185.357 92.3603C185.747 91.2303 186.117 90.0902 186.467 88.9502C186.767 87.9502 187.057 86.9502 187.327 85.9502C189.207 78.9302 190.307 71.7703 191.137 64.5503V64.5202V64.4902C191.327 63.1702 191.507 61.8903 191.677 60.6303C191.927 58.8503 192.167 57.1103 192.417 55.4203C192.847 52.5403 193.297 49.8003 193.837 47.1903C194.017 46.3203 194.208 45.4703 194.408 44.6303C194.518 44.1603 194.648 43.7103 194.768 43.2503C191.138 37.5803 188.118 30.7203 184.518 22.9103L184.497 22.8603L184.477 22.8103C181.197 14.7603 177.497 7.08025 172.667 0.0102539H137.768C137.378 1.01025 136.997 2.01025 136.647 3.01025C134.687 8.61025 133.357 14.3403 132.427 20.1903V20.1803Z" fill="#D3F1A7"/>
<path d="M192.438 55.3999C192.868 52.5199 193.317 49.7799 193.857 47.1699C193.317 49.7699 192.868 52.5099 192.438 55.3999Z" fill="#D3F1A7"/>
<path d="M131.102 30.88V30.83C131.222 29.63 131.342 28.44 131.482 27.25C131.352 28.44 131.222 29.63 131.112 30.83V30.88L131.102 30.93V30.88Z" fill="#D3F1A7"/>
<path d="M196.853 36.9606C194.343 32.4106 191.902 26.9806 189.092 20.8506C189.092 20.8706 189.112 20.8906 189.122 20.9106L186.812 21.8606C190.013 28.8106 192.732 34.9306 195.732 40.0206C196.072 38.9806 196.453 37.9606 196.863 36.9706L196.853 36.9606Z" fill="#EFFFD6"/>
<path d="M200.233 42.4302V42.4102C200.103 42.7702 199.993 43.1302 199.883 43.5002C199.883 43.5102 199.883 43.5202 199.883 43.5302L200.243 42.4302H200.233Z" fill="#EFFFD6"/>
<path d="M189.091 20.8505C189.091 20.8505 189.081 20.8205 189.071 20.8105L186.801 21.8505L189.111 20.9005C189.111 20.9005 189.091 20.8605 189.081 20.8405L189.091 20.8505Z" fill="#EFFFD6"/>
<path d="M124.98 59.4302C127.29 63.7502 129.56 68.8002 132.16 74.4302C132.16 74.4202 132.15 74.4002 132.14 74.3902L134.44 73.4002C134.09 72.6402 133.75 71.9102 133.41 71.1702C130.88 65.6702 128.6 60.7202 126.19 56.4502C125.83 57.4702 125.42 58.4702 124.98 59.4302Z" fill="#EFFFD6"/>
<path d="M132.143 74.3904C132.143 74.3904 132.153 74.4204 132.163 74.4304C132.163 74.4304 132.163 74.4404 132.163 74.4504L134.433 73.4004L132.133 74.3904H132.143Z" fill="#EFFFD6"/>
<path d="M122.122 52.8303L121.742 53.9103V53.9303C121.872 53.5703 122.002 53.2203 122.112 52.8503C122.112 52.8503 122.112 52.8303 122.112 52.8203L122.122 52.8303Z" fill="#EFFFD6"/>
<path d="M181.807 10.7303C183.617 14.3603 185.258 18.0803 186.798 21.8603L189.068 20.8203C189.068 20.8203 189.077 20.8503 189.087 20.8603C186.157 13.6803 182.847 6.66025 178.647 0.0102539H175.688C177.207 2.33025 178.617 4.71025 179.938 7.14025C180.577 8.33025 181.207 9.53025 181.807 10.7403V10.7303Z" fill="#EFFFD6"/>
<path d="M173.55 122.05C172.63 123.07 171.68 124.08 170.68 125.09L170.72 125.2L173.55 122.05C173.67 121.92 173.78 121.79 173.89 121.66C173.77 121.79 173.66 121.92 173.55 122.05Z" fill="#EFFFD6"/>
<path d="M160.75 112.45C158.61 110.61 156.63 108.69 154.78 106.72C153.86 105.73 152.97 104.73 152.11 103.72C149.96 101.18 148.01 98.5601 146.22 95.8701C145.2 94.3401 144.23 92.7801 143.3 91.2101C142.99 90.6901 142.69 90.1601 142.38 89.6301C141.78 88.5801 141.2 87.5101 140.63 86.4401C139.92 85.1001 139.23 83.7501 138.57 82.3901C137.11 79.4201 135.75 76.4101 134.45 73.3901L132.18 74.4401C132.18 74.4401 132.18 74.4301 132.18 74.4201C136.01 83.2901 140.34 92.1401 146.32 100.36C151.81 107.9 158.71 114.9 167.83 120.86C168.42 120.24 169 119.63 169.56 119.01C166.36 116.94 163.44 114.75 160.76 112.44L160.75 112.45Z" fill="#EFFFD6"/>
<path d="M127.289 20.7804C127.469 19.5804 127.669 18.3804 127.879 17.1904C127.669 18.3904 127.469 19.5804 127.289 20.7804Z" fill="#EFFFD6"/>
<path d="M128.391 14.5301C128.671 13.1301 128.971 11.7201 129.311 10.3301C128.971 11.7301 128.671 13.1301 128.391 14.5301Z" fill="#EFFFD6"/>
<path d="M126.132 30.2803C125.512 34.7503 124.972 38.8803 124.352 42.6503C124.972 38.8903 125.512 34.7603 126.132 30.2903V30.2803Z" fill="#EFFFD6"/>
<path d="M173.889 121.66C173.139 121.24 172.409 120.81 171.689 120.38L171.679 120.37L170.389 122.5C170.129 122.34 169.869 122.18 169.609 122.02L170.679 125.1C171.669 124.09 172.629 123.08 173.549 122.06C173.669 121.93 173.779 121.8 173.889 121.67V121.66Z" fill="#EFFFD6"/>
<path d="M197.39 42.68C197.39 42.68 197.45 42.78 197.48 42.82L199.88 43.5C199.99 43.12 200.1 42.77 200.22 42.41L199.56 41.42C198.64 40.05 197.75 38.56 196.86 36.96C196.45 37.95 196.08 38.97 195.73 40.01C196.27 40.93 196.83 41.83 197.39 42.68Z" fill="#EFFFD6"/>
<path d="M171.672 120.36V120.37L171.682 120.36H171.672Z" fill="#EFFFD6"/>
<path d="M124.98 59.4303C125.42 58.4603 125.82 57.4703 126.19 56.4503C125.66 55.5103 125.12 54.5903 124.57 53.7203C124.54 53.6803 124.52 53.6403 124.5 53.6003L122.11 52.8703C122.11 52.8703 122.11 52.8503 122.11 52.8403C122.11 52.8403 122.11 52.8603 122.11 52.8703C122 53.2403 121.87 53.5903 121.75 53.9503L122.38 54.9503C123.26 56.3403 124.12 57.8503 124.97 59.4403L124.98 59.4303Z" fill="#EFFFD6"/>
<path d="M169.32 121.18V121.2L169.61 122.01C169.87 122.17 170.12 122.33 170.39 122.49L171.68 120.36L169.33 121.17L169.32 121.18Z" fill="#EFFFD6"/>
<path d="M169.32 121.181L171.67 120.361L171.63 120.321C170.92 119.891 170.23 119.461 169.55 119.021C168.99 119.641 168.41 120.261 167.82 120.871C168.41 121.261 169.01 121.641 169.62 122.011L169.34 121.201V121.181H169.32Z" fill="#EFFFD6"/>
<path d="M171.677 120.36C171.677 120.36 171.637 120.34 171.617 120.33L171.657 120.37H171.667L171.677 120.36Z" fill="#EFFFD6"/>
<path d="M122.137 52.7704L124.497 53.5904C123.897 52.6404 123.287 51.7604 122.657 50.9004C122.487 51.5604 122.307 52.2104 122.117 52.8304L122.137 52.7804V52.7704Z" fill="#EFFFD6"/>
<path d="M124.497 53.5905L122.137 52.7705L122.117 52.8305C122.117 52.8305 122.117 52.8505 122.117 52.8605L124.507 53.5905H124.497Z" fill="#EFFFD6"/>
<path d="M199.85 43.5901L197.48 42.8301C198.09 43.7501 198.73 44.6001 199.38 45.4301C199.54 44.7901 199.7 44.1501 199.87 43.5401L199.85 43.5901Z" fill="#EFFFD6"/>
<path d="M197.479 42.8301L199.849 43.6001L199.869 43.5401C199.869 43.5301 199.869 43.5201 199.869 43.5101L197.469 42.8301H197.479Z" fill="#EFFFD6"/>
<path d="M171.672 120.37L171.692 120.38L171.682 120.36L171.672 120.37Z" fill="#EFFFD6"/>
<path d="M193.641 64.8203L196.121 65.1703C196.121 65.1703 196.121 65.1603 196.121 65.1503V65.1703L193.651 64.8203H193.641Z" fill="#EFFFD6"/>
<path d="M196.111 65.1703V65.1503C196.111 65.1403 196.111 65.1203 196.111 65.1103L193.641 64.8203L196.111 65.1703Z" fill="#EFFFD6"/>
<path d="M126.141 30.2402C126.141 30.2402 126.141 30.2702 126.141 30.2802C126.141 30.3002 126.141 30.3202 126.141 30.3502L128.631 30.5902L126.161 30.2502L126.141 30.2402Z" fill="#EFFFD6"/>
<path d="M196.123 65.1103L193.633 64.8203H193.643L196.123 65.1103Z" fill="#EFFFD6"/>
<path d="M197.481 42.8302C197.451 42.7802 197.421 42.7302 197.391 42.6802C197.421 42.7202 197.451 42.7702 197.481 42.8202V42.8302Z" fill="#EFFFD6"/>
<path d="M126.143 30.2402L128.613 30.5802L126.133 30.2402H126.143Z" fill="#EFFFD6"/>
<path d="M124.498 53.5803C126.438 47.2103 127.368 39.5303 128.608 30.5803L126.118 30.3403C126.118 30.3203 126.118 30.3003 126.118 30.2803C125.498 34.7503 124.958 38.8803 124.338 42.6403C123.848 45.6303 123.308 48.3703 122.648 50.8903C123.278 51.7503 123.898 52.6303 124.488 53.5703L124.498 53.5803Z" fill="#EFFFD6"/>
<path d="M196.107 65.1703L193.628 64.8203C191.518 83.1303 187.697 101.48 173.357 118.45L173.738 118.68L174.037 119.53V119.55L171.688 120.37C172.408 120.8 173.147 121.23 173.887 121.65C177.437 117.66 180.407 113.57 182.897 109.43C184.377 106.97 185.687 104.48 186.857 101.98C187.107 101.44 187.347 100.9 187.587 100.37C188.517 98.2503 189.358 96.1203 190.098 93.9903C190.378 93.1803 190.627 92.3703 190.887 91.5603C191.097 90.9003 191.297 90.2503 191.497 89.5903C191.797 88.5703 192.078 87.5503 192.348 86.5403C194.208 79.4103 195.297 72.2503 196.117 65.1603C196.117 65.1603 196.117 65.1703 196.117 65.1803L196.107 65.1703Z" fill="#EFFFD6"/>
<path d="M124.5 53.6003C124.5 53.6003 124.55 53.6803 124.57 53.7203C124.55 53.6803 124.52 53.6403 124.5 53.6003Z" fill="#EFFFD6"/>
<path d="M174.037 119.54L173.738 118.69L173.357 118.46C172.817 119.1 172.257 119.75 171.688 120.39L174.048 119.57V119.55L174.037 119.54Z" fill="#EFFFD6"/>
<path d="M130.931 4.42023C130.621 5.45023 130.321 6.48023 130.041 7.51023C129.781 8.45023 129.541 9.39023 129.311 10.3302C128.971 11.7302 128.671 13.1302 128.391 14.5302C128.211 15.4102 128.041 16.3002 127.891 17.1802C127.681 18.3802 127.481 19.5702 127.301 20.7702C127.251 21.0802 127.201 21.3802 127.161 21.6902C127.121 21.9802 127.081 22.2802 127.041 22.5702C126.951 23.2302 126.861 23.8902 126.771 24.5502C126.531 26.4602 126.321 28.3702 126.141 30.2802C126.141 30.2702 126.141 30.2502 126.141 30.2402L128.621 30.5802C129.611 20.1502 131.311 9.92023 135.101 -0.00976562H132.431C132.261 0.440234 132.101 0.890234 131.941 1.34023C131.581 2.36023 131.251 3.39023 130.931 4.41023V4.42023Z" fill="#EFFFD6"/>
<path d="M197.481 42.8301C195.741 49.0101 194.841 56.3601 193.641 64.8301L196.121 65.1201C196.121 65.1201 196.121 65.1501 196.121 65.1601C196.421 63.0401 196.701 61.0001 196.981 59.0401C197.121 58.0601 197.261 57.0901 197.401 56.1501C197.681 54.2601 197.971 52.4501 198.281 50.7201C198.591 48.9901 198.921 47.3501 199.301 45.7901C199.331 45.6701 199.361 45.5601 199.391 45.4401C198.741 44.6101 198.101 43.7601 197.491 42.8501L197.481 42.8301Z" fill="#EFFFD6"/>
<path d="M186.803 21.8502C190.003 28.8002 192.723 34.9202 195.723 40.0102C192.723 34.9302 189.993 28.8102 186.803 21.8502Z" fill="#EFFFD6"/>
<path d="M175.699 0C177.219 2.32 178.629 4.7 179.949 7.13C178.639 4.7 177.229 2.32 175.699 0Z" fill="#EFFFD6"/>
<path d="M152.102 103.72C152.962 104.74 153.852 105.74 154.772 106.72C153.852 105.73 152.962 104.73 152.102 103.72Z" fill="#EFFFD6"/>
<path d="M169.542 119.02C166.342 116.95 163.422 114.76 160.742 112.45C163.412 114.75 166.332 116.95 169.542 119.02Z" fill="#EFFFD6"/>
<path d="M184.512 22.85L184.532 22.9C188.132 30.71 191.152 37.57 194.782 43.24C194.872 42.88 194.962 42.51 195.062 42.15V42.1L195.092 42.05C195.292 41.36 195.502 40.69 195.722 40.02C192.722 34.94 189.992 28.82 186.802 21.86C185.262 18.08 183.622 14.36 181.812 10.73C181.212 9.52 180.592 8.32 179.942 7.13C178.632 4.7 177.222 2.32 175.692 0H172.672C177.492 7.07 181.192 14.75 184.482 22.8L184.502 22.85H184.512Z" fill="#EFFFD6"/>
<path d="M128.159 49.4102C127.869 50.7202 127.549 51.9902 127.199 53.2402C127.549 52.0002 127.869 50.7302 128.159 49.4102Z" fill="#EFFFD6"/>
<path d="M132.43 20.18C133.37 14.33 134.69 8.6 136.65 3C137 2 137.38 1 137.77 0C137.37 1 137 2 136.65 3C134.69 8.6 133.36 14.33 132.43 20.18Z" fill="#EFFFD6"/>
<path d="M195.098 42.04L195.078 42.1V42.15C195.078 42.15 195.078 42.08 195.098 42.05V42.04Z" fill="#EFFFD6"/>
<path d="M191.152 64.5004V64.4704C191.342 63.1504 191.522 61.8704 191.702 60.6104C191.522 61.8804 191.342 63.1604 191.162 64.4704V64.5004V64.5303C190.332 71.7503 189.242 78.9004 187.352 85.9304C189.232 78.9104 190.332 71.7503 191.162 64.5303V64.5004H191.152Z" fill="#EFFFD6"/>
<path d="M126.859 54.4202V54.4102L126.879 54.3602V54.3102C126.999 53.9602 127.089 53.5902 127.199 53.2202C127.099 53.5802 127.009 53.9502 126.899 54.3102C126.889 54.3502 126.879 54.3802 126.869 54.4202H126.859Z" fill="#EFFFD6"/>
<path d="M126.877 54.36L126.857 54.41V54.42C126.647 55.11 126.418 55.78 126.188 56.45C128.598 60.72 130.878 65.67 133.408 71.17C133.748 71.91 134.088 72.64 134.438 73.4C135.737 76.42 137.097 79.43 138.557 82.4C139.227 83.76 139.907 85.11 140.617 86.45C141.187 87.52 141.767 88.58 142.367 89.64C142.667 90.17 142.977 90.69 143.287 91.22C144.217 92.79 145.188 94.34 146.208 95.88C148.008 98.57 149.958 101.19 152.098 103.73C152.958 104.75 153.848 105.75 154.768 106.73C156.618 108.7 158.598 110.62 160.738 112.46C163.408 114.76 166.327 116.96 169.537 119.03C169.627 118.93 169.727 118.82 169.827 118.72C170.297 118.19 170.767 117.66 171.217 117.14C162.297 111.44 155.668 104.75 150.348 97.45C144.678 89.67 140.508 81.16 136.738 72.43V72.4L136.708 72.37C133.348 65.13 130.507 58.69 127.197 53.25C127.097 53.61 127.007 53.98 126.897 54.34V54.39L126.877 54.36Z" fill="#EFFFD6"/>
<path d="M171.619 120.321C170.909 119.891 170.219 119.461 169.539 119.021C170.219 119.461 170.909 119.901 171.619 120.321Z" fill="#EFFFD6"/>
<path d="M171.693 120.36C171.693 120.36 171.653 120.34 171.633 120.32C171.633 120.32 171.673 120.34 171.693 120.36Z" fill="#EFFFD6"/>
<path d="M195.73 40.0103C196.27 40.9303 196.83 41.8303 197.39 42.6803C196.82 41.8303 196.27 40.9303 195.73 40.0103Z" fill="#EFFFD6"/>
<path d="M169.541 119.02C170.221 119.46 170.911 119.9 171.621 120.32L169.821 118.71C170.291 118.18 170.761 117.65 171.211 117.13C170.761 117.66 170.301 118.19 169.821 118.71C169.731 118.81 169.631 118.92 169.531 119.02H169.541Z" fill="#EFFFD6"/>
<path d="M172.97 118.22L173.36 118.46C187.7 101.49 191.52 83.1401 193.63 64.8301C194.83 56.3601 195.73 49.0101 197.47 42.8301L195.41 44.2101C195.2 43.9001 195 43.5601 194.79 43.2401C194.67 43.7001 194.55 44.1501 194.43 44.6201C194.23 45.4601 194.04 46.3101 193.86 47.1801C193.32 49.7801 192.87 52.5201 192.44 55.4101C192.19 57.0901 191.95 58.8401 191.7 60.6201C191.52 61.8901 191.34 63.1701 191.16 64.4801V64.5101V64.5401C190.33 71.7601 189.24 78.9101 187.35 85.9401C187.08 86.9401 186.8 87.9401 186.49 88.9401C186.14 90.0801 185.77 91.2201 185.38 92.3501C185.31 92.5501 185.23 92.7601 185.16 92.9601C184.91 93.6701 184.64 94.3801 184.37 95.0801C183.75 96.6901 183.07 98.2801 182.33 99.8701C182.06 100.45 181.78 101.02 181.5 101.6C180.65 103.32 179.72 105.02 178.71 106.72C178.46 107.14 178.2 107.57 177.93 107.99C176.97 109.53 175.93 111.06 174.82 112.58C173.71 114.1 172.51 115.62 171.23 117.12C171.81 117.49 172.39 117.85 172.99 118.21L172.97 118.22Z" fill="#EFFFD6"/>
<path d="M197.481 42.8203H197.461L197.471 42.8303L197.481 42.8203Z" fill="#EFFFD6"/>
<path d="M128.618 30.5902C127.378 39.5402 126.448 47.2202 124.508 53.5902L126.618 52.2602C126.818 52.5702 127.008 52.9102 127.198 53.2302C127.548 51.9902 127.868 50.7202 128.158 49.4002C128.308 48.7102 128.458 48.0102 128.598 47.3002C129.568 42.3402 130.268 36.8902 131.098 30.9202V30.8702L131.108 30.8202C131.218 29.6202 131.348 28.4302 131.478 27.2402C131.748 24.8702 132.058 22.5102 132.438 20.1702C133.378 14.3202 134.698 8.59023 136.658 2.99023C137.008 1.99023 137.388 0.990234 137.778 -0.00976562H135.098C131.308 9.91023 129.608 20.1502 128.618 30.5802V30.5902Z" fill="#EFFFD6"/>
<path d="M197.48 42.8203L195.1 42.0503C195.1 42.0503 195.08 42.1203 195.07 42.1503L197.47 42.8303H197.48V42.8203Z" fill="#EFFFD6"/>
<path d="M197.392 42.6803C196.822 41.8303 196.272 40.9303 195.732 40.0103C195.512 40.6803 195.302 41.3503 195.102 42.0403L197.482 42.8103C197.482 42.8103 197.422 42.7203 197.392 42.6703V42.6803Z" fill="#EFFFD6"/>
<path d="M171.69 120.38C172.27 119.74 172.82 119.1 173.36 118.45L172.97 118.21C172.37 117.85 171.79 117.49 171.21 117.12C170.76 117.65 170.3 118.18 169.82 118.7L171.62 120.31C171.62 120.31 171.66 120.33 171.68 120.35V120.37L171.69 120.38Z" fill="#EFFFD6"/>
<path d="M197.461 42.8201L195.061 42.1401C194.961 42.5001 194.871 42.8701 194.781 43.2301C194.991 43.5501 195.191 43.8901 195.401 44.2001L197.461 42.8101V42.8201Z" fill="#EFFFD6"/>
<path d="M126.89 54.3203C127 53.9703 127.09 53.5903 127.19 53.2303C126.99 52.9103 126.8 52.5803 126.61 52.2603L124.5 53.6003L126.86 54.4203C126.86 54.4203 126.88 54.3503 126.89 54.3103V54.3203Z" fill="#EFFFD6"/>
<path d="M126.19 56.4506C126.43 55.7906 126.65 55.1106 126.86 54.4206L124.5 53.6006C124.5 53.6006 124.55 53.6806 124.57 53.7206C125.12 54.5906 125.66 55.5106 126.19 56.4506Z" fill="#EFFFD6"/>
<path d="M905.75 220.3H908.6L909.6 217.8H906.75L905.75 220.3Z" fill="#EFFFD6"/>
<path d="M959.07 15.0303H956.5L955.84 16.5303L958 17.4803L959.07 15.0303Z" fill="#EFFFD6"/>
<path d="M957.998 17.4803L955.838 16.5303L955.398 17.5303H957.978L957.998 17.4803Z" fill="#EFFFD6"/>
<path d="M909.6 217.8L960 91.9503V84.8403L906.75 217.8H909.6Z" fill="#EFFFD6"/>
<path d="M958.13 17.5305L958 17.4805L957.98 17.5305H958.13Z" fill="#EFFFD6"/>
<path d="M958 17.4803L958.13 17.5303H960V15.0303H959.07L958 17.4803Z" fill="#EFFFD6"/>
<path d="M870.092 217.8L957.982 17.5303H955.402L866.422 220.3H905.752L906.752 217.8H870.092Z" fill="#EFFFD6"/>
<path d="M958.133 17.5303V20.0303H959.763L960.003 19.4903V18.3503L958.133 17.5303Z" fill="#EFFFD6"/>
<path d="M960.003 18.3503V17.5303H958.133L960.003 18.3503Z" fill="#EFFFD6"/>
<path d="M874.07 215.3L959.76 20.0303H958.13V17.5303H957.98L870.09 217.8H906.75L960 84.8403V78.5003L905.21 215.3H874.07Z" fill="#EFFFD6"/>
<path d="M959.998 20.0302V19.4902L959.758 20.0302H959.998Z" fill="#EFFFD6"/>
<path d="M568.228 504L479.968 522.53C479.818 522.58 479.658 522.62 479.508 522.65C478.958 522.78 478.478 522.87 478.048 522.94C477.838 522.98 477.628 523.02 477.408 523.06L407.328 537.52C408.068 538.37 408.828 539.19 409.598 540H536.398C540.808 536.83 544.918 533.47 548.678 529.91C557.088 521.97 563.638 513.28 568.238 504H568.228Z" fill="#D3F1A7"/>
<path d="M576.538 497.19C576.538 497.19 576.548 497.16 576.558 497.14H576.528C576.528 497.14 576.518 497.18 576.508 497.2H576.538V497.19Z" fill="#EFFFD6"/>
<path d="M398.348 534.26H398.328C398.328 534.26 398.348 534.29 398.358 534.3H398.378C398.378 534.3 398.358 534.27 398.348 534.26Z" fill="#EFFFD6"/>
<path d="M576.537 497.19H576.507C571.837 510.36 563.627 522.62 552.067 533.55C549.707 535.78 547.217 537.92 544.617 540H544.657C547.257 537.92 549.757 535.77 552.107 533.55C563.677 522.63 571.867 510.36 576.537 497.19Z" fill="#EFFFD6"/>
<path d="M398.379 534.3H398.359C398.439 534.42 398.529 534.53 398.619 534.65C398.539 534.54 398.459 534.42 398.379 534.3Z" fill="#EFFFD6"/>
<path d="M576.512 497.2C576.512 497.2 576.522 497.17 576.532 497.15L547.242 503.3L576.512 497.2Z" fill="#EFFFD6"/>
<path d="M420.352 529.72L398.352 534.26C398.352 534.26 398.372 534.29 398.382 534.3L420.352 529.72Z" fill="#EFFFD6"/>
<path d="M576.511 497.2L547.241 503.3L481.071 517.19C480.321 517.4 479.571 517.6 478.831 517.78L479.351 520.1H479.331L479.251 520.13C479.171 520.15 479.061 520.19 478.901 520.22C478.101 520.41 477.451 520.5 476.891 520.61L476.411 518.28C475.321 518.5 474.261 518.67 473.211 518.82L420.361 529.72L398.391 534.3C398.471 534.41 398.551 534.53 398.631 534.65C398.771 534.83 398.911 535.01 399.041 535.2C399.691 536.06 400.351 536.91 401.021 537.75C401.631 538.51 402.251 539.26 402.881 540H406.191C405.001 538.67 403.851 537.31 402.731 535.91L476.921 520.6C477.141 520.56 477.371 520.52 477.591 520.47C478.031 520.39 478.461 520.31 478.921 520.2C479.041 520.17 479.161 520.14 479.281 520.1L479.381 520.07L572.571 500.51C567.831 511.8 560.391 522.27 550.401 531.71C547.351 534.59 544.081 537.35 540.621 539.98H544.621C547.221 537.9 549.721 535.75 552.071 533.53C563.641 522.61 571.841 510.35 576.511 497.18V497.2Z" fill="#EFFFD6"/>
<path d="M476.44 518.27C476.44 518.27 476.42 518.27 476.41 518.27L476.89 520.6L478.88 520.18L478.33 517.87L476.44 518.27Z" fill="#EFFFD6"/>
<path d="M478.878 520.19L479.268 520.11L478.778 517.78L478.328 517.87L478.878 520.19Z" fill="#EFFFD6"/>
<path d="M479.27 520.11L478.88 520.19V520.22C479.04 520.18 479.15 520.15 479.23 520.13L479.31 520.11H479.33L478.81 517.79H478.77L479.26 520.12L479.27 520.11Z" fill="#EFFFD6"/>
<path d="M476.891 520.6L476.411 518.271C476.411 518.271 476.401 518.271 476.391 518.271L476.871 520.6C477.431 520.49 478.081 520.391 478.881 520.211V520.18L476.891 520.6Z" fill="#EFFFD6"/>
<path d="M572.559 500.53L479.369 520.09L479.269 520.12C479.149 520.15 479.029 520.19 478.909 520.22C478.459 520.33 478.019 520.41 477.579 520.49C477.349 520.53 477.129 520.57 476.909 520.62L402.719 535.93C403.839 537.33 404.989 538.69 406.179 540.02H409.579C408.809 539.21 408.049 538.38 407.309 537.54L477.389 523.08C477.599 523.04 477.809 523 478.029 522.96C478.459 522.88 478.949 522.79 479.489 522.67C479.639 522.63 479.799 522.59 479.949 522.55L568.209 504.02C563.609 513.31 557.059 521.99 548.649 529.93C544.879 533.49 540.779 536.85 536.369 540.02H540.579C544.039 537.39 547.309 534.63 550.359 531.75C560.349 522.32 567.789 511.84 572.529 500.55L572.559 500.53Z" fill="#EFFFD6"/>
<path d="M446.77 512.67C453.75 518.21 462.29 520.23 472.73 518.81L476.35 518.06L475.87 515.71L478.25 515.21L478.78 517.55L480.97 517.09C486.97 515.42 493.25 512.84 499.67 509.39C506.56 505.68 512.54 501.46 517.43 496.85C527.14 487.68 531.43 478.12 530.53 467.62C530.04 461.94 528.1 455.9 524.76 449.68C521.34 443.31 517.3 438.27 512.75 434.67C504.47 428.12 494.14 426.41 481.17 429.43C474.63 430.96 467.81 433.61 460.92 437.31C456.72 439.57 452.88 441.98 449.4 444.52C446.79 446.43 444.37 448.42 442.2 450.47C432.49 459.64 428.21 469.18 429.12 479.63C429.62 485.4 431.62 491.57 435.06 497.97C436.73 501.08 438.55 503.88 440.51 506.33C442.47 508.78 444.57 510.9 446.78 512.66L446.77 512.67Z" fill="#EFFFD6"/>
<path d="M478.79 517.66C479.51 517.48 480.23 517.3 480.96 517.1L478.77 517.56L478.79 517.66Z" fill="#EFFFD6"/>
<path d="M476.35 518.06L472.73 518.81C473.42 518.72 474.12 518.61 474.82 518.48L476.38 518.16L476.36 518.05L476.35 518.06Z" fill="#EFFFD6"/>
<path d="M481.16 429.43C494.12 426.41 504.45 428.12 512.74 434.67C517.28 438.26 521.32 443.31 524.75 449.68C528.09 455.9 530.04 461.94 530.52 467.62C531.42 478.12 527.14 487.68 517.42 496.85C512.53 501.47 506.55 505.69 499.66 509.39C493.24 512.84 486.97 515.42 480.96 517.09L482.31 516.81C487.93 515.14 493.76 512.71 499.73 509.5C506.62 505.79 512.6 501.57 517.49 496.94C527.2 487.76 531.48 478.18 530.58 467.66C530.09 461.97 528.14 455.92 524.8 449.69C521.38 443.31 517.33 438.25 512.79 434.65C504.5 428.09 494.17 426.36 481.21 429.39C474.67 430.92 467.85 433.57 460.96 437.28C456.75 439.55 452.9 441.97 449.41 444.53C452.89 441.99 456.73 439.57 460.93 437.32C467.82 433.61 474.64 430.96 481.18 429.44L481.16 429.43Z" fill="#EFFFD6"/>
<path d="M446.77 512.67C444.55 510.91 442.46 508.79 440.5 506.34C442.48 508.83 444.59 510.97 446.84 512.76C453.59 518.13 461.8 520.17 471.78 519.01L472.74 518.81C462.3 520.23 453.76 518.21 446.78 512.67H446.77Z" fill="#EFFFD6"/>
<path d="M480.959 517.1C480.229 517.3 479.509 517.48 478.789 517.66L481.059 517.18C481.469 517.07 481.889 516.94 482.299 516.82L480.949 517.1H480.959Z" fill="#EFFFD6"/>
<path d="M472.718 518.81L471.758 519.01C472.228 518.96 472.708 518.89 473.188 518.82L474.808 518.49C474.108 518.61 473.408 518.72 472.718 518.82V518.81Z" fill="#EFFFD6"/>
<path d="M475.879 515.71C476.619 515.56 477.209 515.48 477.729 515.35H477.749L477.829 515.32C477.899 515.3 478.009 515.27 478.169 515.23L478.729 517.57H478.769L478.239 515.22L475.859 515.72L476.339 518.07H476.359L475.879 515.72V515.71Z" fill="#EFFFD6"/>
<path d="M477.741 515.35C477.221 515.47 476.631 515.56 475.891 515.71L476.371 518.06L478.291 517.66L477.751 515.35H477.741Z" fill="#EFFFD6"/>
<path d="M477.83 515.32L477.75 515.34H477.73L478.27 517.65L478.72 517.56L478.16 515.22C478.01 515.26 477.89 515.29 477.82 515.31L477.83 515.32Z" fill="#EFFFD6"/>
<path d="M478.73 517.56L478.75 517.65C478.75 517.65 478.77 517.65 478.79 517.65L478.77 517.55H478.73V517.56Z" fill="#EFFFD6"/>
<path d="M476.395 518.03L476.375 518.034L476.397 518.142L476.417 518.138L476.395 518.03Z" fill="#EFFFD6"/>
<path d="M478.311 517.78C478.461 517.75 478.611 517.7 478.751 517.67L478.731 517.57L478.281 517.66L478.311 517.78Z" fill="#EFFFD6"/>
<path d="M476.362 518.06L476.382 518.17H476.412C476.812 518.08 477.202 518.01 477.602 517.94C477.832 517.89 478.062 517.84 478.302 517.79L478.272 517.67L476.352 518.07L476.362 518.06Z" fill="#EFFFD6"/>
<path d="M478.75 517.67C478.75 517.67 478.77 517.67 478.79 517.66C478.79 517.66 478.77 517.66 478.75 517.66V517.67Z" fill="#EFFFD6"/>
<path d="M478.309 517.79C478.069 517.84 477.839 517.88 477.609 517.93C477.839 517.89 478.069 517.84 478.309 517.79Z" fill="#EFFFD6"/>
<path d="M478.312 517.78C478.312 517.78 478.343 517.78 478.353 517.78C478.483 517.75 478.623 517.7 478.753 517.67C478.603 517.7 478.453 517.75 478.312 517.78Z" fill="#EFFFD6"/>
<path d="M474.812 518.49C475.332 518.4 475.852 518.31 476.372 518.2V518.17L474.812 518.49Z" fill="#EFFFD6"/>
<path d="M474.807 518.49L473.188 518.82C474.237 518.67 475.298 518.5 476.388 518.28L476.367 518.2C475.837 518.31 475.327 518.4 474.807 518.49Z" fill="#EFFFD6"/>
<path d="M478.789 517.66L478.819 517.77C479.559 517.59 480.309 517.39 481.059 517.18L478.789 517.66Z" fill="#EFFFD6"/>
<path d="M476.421 518.16H476.391V518.2C476.791 518.12 477.201 518.03 477.611 517.94C477.211 518.01 476.821 518.08 476.421 518.17V518.16Z" fill="#EFFFD6"/>
<path d="M476.367 518.17V518.2H476.387V518.17H476.367Z" fill="#EFFFD6"/>
<path d="M478.312 517.79L478.332 517.87L478.783 517.78L478.763 517.67C478.633 517.7 478.492 517.75 478.362 517.78C478.352 517.78 478.333 517.78 478.323 517.78L478.312 517.79Z" fill="#EFFFD6"/>
<path d="M476.387 518.19C476.387 518.19 476.377 518.19 476.367 518.19L476.387 518.27C476.387 518.27 476.397 518.27 476.407 518.27L476.387 518.19Z" fill="#EFFFD6"/>
<path d="M478.752 517.67L478.772 517.78H478.812L478.782 517.66C478.772 517.66 478.762 517.66 478.742 517.67H478.752Z" fill="#EFFFD6"/>
<path d="M478.331 517.87L478.311 517.79C478.071 517.85 477.841 517.89 477.611 517.93C477.201 518.02 476.801 518.11 476.391 518.19L476.411 518.27C476.411 518.27 476.431 518.27 476.441 518.27L478.331 517.87Z" fill="#EFFFD6"/>
<path d="M659.117 480L666.947 513.24L659.127 480H659.117Z" fill="#D3F1A7"/>
<path d="M678.008 476.04L668.648 478L678.018 476.05L678.008 476.04Z" fill="#D3F1A7"/>
<path d="M670.02 526.29V526.3L688.84 522L686.01 510L688.83 522L670.02 526.29Z" fill="#D3F1A7"/>
<path d="M666.953 513.24L670.023 526.29L688.833 522L686.013 510L678.023 476.05L668.653 478L659.133 480L666.953 513.24Z" fill="#D3F1A7"/>
<path d="M895.468 487.551L923.778 415.891L899.728 338.771L852.508 447.861L864.888 487.551H895.468Z" fill="#D3F1A7"/>
<path d="M925.25 412.18L926.71 408.48L904.36 336.82H901.75L925.25 412.18Z" fill="#EFFFD6"/>
<path d="M863.059 490.05H863.049L850.989 451.37L849.469 454.89L861.209 492.55H893.499L894.489 490.05H863.059Z" fill="#EFFFD6"/>
<path d="M900.958 331.82H900.188L900.958 334.3V331.82Z" fill="#EFFFD6"/>
<path d="M901.751 336.82H904.361L902.801 331.82H900.961V334.3L901.751 336.82Z" fill="#EFFFD6"/>
<path d="M927.62 419.78L929.08 416.08L926.71 408.48L925.25 412.18L927.62 419.78Z" fill="#EFFFD6"/>
<path d="M894.49 490.05L893.5 492.55H898.87L899.86 490.05H897.17H894.49Z" fill="#EFFFD6"/>
<path d="M850.987 451.37L849.847 447.71V447.7L848.708 444.05L847.188 447.57L849.467 454.89L850.987 451.37Z" fill="#EFFFD6"/>
<path d="M925.252 412.19V412.18L901.752 336.82H901.742L925.252 412.19Z" fill="#EFFFD6"/>
<path d="M848.711 444.05L849.851 447.7L898.591 335.1L898.581 335.06L898.611 335.05L898.931 334.32H900.961V334.3L900.191 331.82H897.291L848.711 444.05Z" fill="#EFFFD6"/>
<path d="M898.578 335.06L898.588 335.1L898.608 335.05L898.578 335.06Z" fill="#EFFFD6"/>
<path d="M925.252 412.19L926.432 415.98L897.172 490.05H899.862L927.622 419.78L925.252 412.18V412.19Z" fill="#EFFFD6"/>
<path d="M901.751 336.82L900.961 334.3V334.32L901.741 336.82H901.751Z" fill="#EFFFD6"/>
<path d="M863.062 490.05L851.002 451.37H850.992L863.052 490.05H863.062Z" fill="#EFFFD6"/>
<path d="M849.852 447.7V447.71L850.992 451.37H851.002L849.852 447.7Z" fill="#EFFFD6"/>
<path d="M900.96 336.82H900.58L899.73 338.77L923.78 415.89L895.47 487.55H864.89L852.51 447.86L851 451.37L863.06 490.05H894.49L925.25 412.19L901.74 336.82H900.96Z" fill="#EFFFD6"/>
<path d="M897.172 490.05L926.432 415.98L925.252 412.19L894.492 490.05H897.172Z" fill="#EFFFD6"/>
<path d="M898.929 334.32L898.609 335.05L900.959 334.32H898.929Z" fill="#EFFFD6"/>
<path d="M901.741 336.82L900.961 334.32V336.82H901.741Z" fill="#EFFFD6"/>
<path d="M900.57 336.82H900.58H900.96V334.32L898.61 335.05L898.59 335.1L899.73 338.76L900.57 336.82Z" fill="#EFFFD6"/>
<path d="M852.512 447.861V447.851L899.732 338.761L898.592 335.101L849.852 447.701L851.002 451.371L852.512 447.861Z" fill="#EFFFD6"/>
<path d="M677.72 186.71C679.62 193.75 681.88 203.05 683.97 214.14C687.81 193.8 692.181 179.5 693.961 174.08L683.97 170.63L673.98 174.08C674.14 174.56 674.32 175.11 674.51 175.73C675.32 178.28 676.44 181.99 677.72 186.7V186.71Z" fill="#D3F1A7"/>
<path d="M683.959 399.6L693.949 396.15C693.789 395.67 693.609 395.12 693.419 394.49C692.609 391.94 691.489 388.23 690.209 383.51C688.309 376.47 686.049 367.17 683.959 356.08C680.119 376.42 675.749 390.72 673.969 396.14L683.959 399.59V399.6Z" fill="#D3F1A7"/>
<path d="M694.76 171.72C694.76 171.72 694.76 171.71 694.76 171.7L694.79 171.62L697.12 172.53L696.56 174.16C694.83 179.33 689.46 196.49 685.23 221.22C685.5 222.81 685.771 224.42 686.031 226.07C686.111 226.63 686.131 227.14 686.151 227.68C686.151 227.76 686.151 227.84 686.151 227.92C686.231 228.45 686.311 228.98 686.391 229.52C686.431 229.26 686.481 228.98 686.531 228.69C686.651 228 686.761 227.31 686.841 226.83C689.391 210.6 692.52 197.28 695.04 187.99C696.3 183.35 697.4 179.71 698.19 177.22C698.59 175.98 698.9 175.02 699.12 174.37C699.23 174.04 699.32 173.8 699.38 173.63L699.451 173.44V173.4V173.42L697.81 172.78L699.461 173.4L700.401 170.99L691.55 167.94L687.72 169.26L694.76 171.69V171.72Z" fill="#EFFFD6"/>
<path d="M685.969 343.52L686.099 343.5C686.139 343.06 686.169 342.51 686.209 341.93C686.129 342.46 686.049 343 685.969 343.52Z" fill="#EFFFD6"/>
<path d="M694.768 398.54L694.798 398.62L697.118 397.7L694.758 398.52L694.768 398.54Z" fill="#EFFFD6"/>
<path d="M696.562 396.07C696.903 397.1 697.102 397.65 697.122 397.7L696.562 396.07Z" fill="#EFFFD6"/>
<path d="M685.868 226.09C685.968 226.7 686.058 227.33 686.148 227.95C686.148 227.87 686.148 227.79 686.148 227.71C686.128 227.17 686.108 226.66 686.028 226.1C685.768 224.45 685.498 222.83 685.228 221.24C685.198 221.39 685.178 221.54 685.148 221.7C685.388 223.14 685.628 224.61 685.868 226.1V226.09Z" fill="#EFFFD6"/>
<path d="M699.459 173.42L699.449 173.45L699.459 173.43V173.42Z" fill="#EFFFD6"/>
<path d="M697.812 172.8L699.453 173.45L699.463 173.42L697.812 172.8Z" fill="#EFFFD6"/>
<path d="M682.548 238.35C682.538 238.46 682.518 238.57 682.508 238.68L682.968 241.78C682.828 240.62 682.688 239.48 682.548 238.34V238.35Z" fill="#EFFFD6"/>
<path d="M697.812 397.44L699.463 396.82L699.453 396.79L697.812 397.44Z" fill="#EFFFD6"/>
<path d="M686.102 343.5L686.842 343.38C686.842 343.37 686.822 343.24 686.812 343.09C686.762 342.51 686.702 341.43 686.642 340.43C686.622 340.09 686.602 339.77 686.582 339.45C686.462 340.28 686.342 341.11 686.222 341.93C686.182 342.51 686.152 343.06 686.112 343.5H686.102Z" fill="#EFFFD6"/>
<path d="M694.799 171.62L694.77 171.7C694.77 171.7 694.77 171.71 694.77 171.72L697.13 172.54L694.799 171.63V171.62Z" fill="#EFFFD6"/>
<path d="M697.122 172.53C697.122 172.53 696.903 173.13 696.562 174.16L697.122 172.53Z" fill="#EFFFD6"/>
<path d="M685.868 344.15C685.638 345.65 685.388 347.11 685.148 348.55C685.178 348.7 685.198 348.85 685.228 349.01C685.498 347.42 685.768 345.81 686.028 344.16C686.058 343.95 686.078 343.76 686.098 343.54C686.098 343.53 686.098 343.51 686.098 343.5L685.968 343.52C685.938 343.73 685.908 343.94 685.868 344.15Z" fill="#EFFFD6"/>
<path d="M699.461 396.81L697.81 397.43L699.451 396.79V396.81C699.451 396.81 699.41 396.69 699.35 396.51C698.36 393.7 691.571 373.57 686.841 343.38L686.1 343.5C686.1 343.5 686.1 343.53 686.1 343.54C686.08 343.76 686.061 343.94 686.031 344.15C685.771 345.8 685.5 347.42 685.23 349.01C689.45 373.74 694.83 390.9 696.56 396.07L697.12 397.7L694.79 398.61L694.76 398.53V398.51L687.711 400.94L691.54 402.26L700.391 399.2L699.451 396.79L699.461 396.81Z" fill="#EFFFD6"/>
<path d="M699.459 396.82V396.81L699.449 396.79L699.459 396.82Z" fill="#EFFFD6"/>
<path d="M683.249 326.01L682.469 331.26C682.499 331.47 682.519 331.68 682.549 331.89C682.789 329.96 683.029 328 683.249 326.01Z" fill="#EFFFD6"/>
<path d="M686.24 229.77L683.77 230.14L686.24 230.51C686.28 230.27 686.33 229.93 686.39 229.55C686.31 229.01 686.23 228.48 686.15 227.95C686.16 228.4 686.17 228.84 686.19 229.2C686.2 229.48 686.22 229.71 686.24 229.78V229.77Z" fill="#EFFFD6"/>
<path d="M685.147 348.55C685.387 347.11 685.627 345.64 685.867 344.15C685.897 343.94 685.927 343.72 685.967 343.51L684.367 343.76C684.627 345.39 684.887 346.98 685.147 348.55Z" fill="#EFFFD6"/>
<path d="M683.672 230.12H683.772C683.752 230.02 683.742 229.88 683.732 229.72C683.712 229.85 683.692 229.98 683.672 230.12Z" fill="#EFFFD6"/>
<path d="M686.443 337.86L683.972 321.2L683.263 326.01C683.043 328 682.802 329.96 682.562 331.89C682.833 334.07 683.122 336.21 683.422 338.31L683.972 338.23L686.443 338.6C686.443 338.6 686.402 338.97 686.372 339.35C686.342 339.74 686.313 340.22 686.283 340.72C686.263 341.12 686.233 341.53 686.213 341.93C686.333 341.11 686.453 340.29 686.573 339.45C686.563 339.3 686.552 339.14 686.542 338.99C686.512 338.55 686.482 338.21 686.432 337.86H686.443Z" fill="#EFFFD6"/>
<path d="M686.241 230.5L683.771 230.13H683.671C683.281 232.79 682.911 235.53 682.551 238.34C682.691 239.47 682.831 240.62 682.971 241.78L683.771 247.16L686.241 230.5Z" fill="#EFFFD6"/>
<path d="M685.969 343.52C686.049 342.99 686.129 342.46 686.209 341.93C686.229 341.53 686.259 341.13 686.279 340.72C686.309 340.22 686.339 339.74 686.369 339.35C686.399 338.97 686.429 338.65 686.439 338.6L683.969 338.23C684.099 339.13 684.239 342.88 684.379 343.76L685.979 343.51L685.969 343.52Z" fill="#EFFFD6"/>
<path d="M683.963 167.991L687.722 169.291L691.552 167.971L683.963 165.351L680.062 166.701L683.893 168.021L683.963 167.991Z" fill="#EFFFD6"/>
<path d="M683.96 338.23L683.41 338.31C683.53 339.15 683.65 339.99 683.77 340.82C683.83 339.72 683.9 338.65 683.96 338.22V338.23Z" fill="#EFFFD6"/>
<path d="M683.963 402.25L683.893 402.22L680.062 403.54L683.963 404.89L691.552 402.27L687.722 400.95L683.963 402.25Z" fill="#EFFFD6"/>
<path d="M685.87 226.09C685.64 224.6 685.39 223.13 685.15 221.69C684.88 223.26 684.62 224.85 684.37 226.48C684.23 227.36 683.9 229.25 683.77 230.14L686.24 229.77C686.23 229.69 686.21 229.46 686.19 229.19C686.17 228.84 686.16 228.39 686.15 227.94C686.06 227.32 685.96 226.7 685.87 226.09Z" fill="#EFFFD6"/>
<path d="M681.522 338.911C681.512 338.751 681.492 338.621 681.492 338.601L681.652 338.581C681.962 336.401 682.262 334.171 682.552 331.901C682.522 331.691 682.502 331.481 682.472 331.271L681.492 337.871C681.462 338.071 681.442 338.261 681.422 338.481C681.362 339.221 681.302 340.301 681.242 341.301C681.242 341.341 681.242 341.371 681.242 341.401C681.352 340.691 681.452 339.981 681.562 339.271C681.562 339.151 681.542 339.021 681.532 338.921L681.522 338.911Z" fill="#EFFFD6"/>
<path d="M681.492 338.6C681.492 338.6 681.512 338.75 681.522 338.91C681.522 339.01 681.542 339.14 681.552 339.26C681.582 339.03 681.622 338.8 681.652 338.57L681.492 338.59V338.6Z" fill="#EFFFD6"/>
<path d="M681.301 229.77H681.381C681.371 229.69 681.351 229.6 681.341 229.51C681.331 229.6 681.311 229.69 681.301 229.77Z" fill="#EFFFD6"/>
<path d="M681.382 229.78H681.302C681.312 229.69 681.332 229.6 681.342 229.51C681.282 229.14 681.232 228.77 681.172 228.39C681.172 228.56 681.172 228.72 681.182 228.89C681.202 229.43 681.222 229.94 681.292 230.5L682.502 238.68C682.512 238.57 682.532 238.46 682.542 238.35C682.172 235.42 681.782 232.56 681.372 229.78H681.382Z" fill="#EFFFD6"/>
<path d="M671.338 396.16C671.418 395.93 671.498 395.67 671.598 395.39L671.468 395.35L670.648 397.71L672.978 398.61L672.998 398.56L670.798 397.71L671.328 396.16H671.338Z" fill="#EFFFD6"/>
<path d="M681.383 229.78C681.793 232.56 682.183 235.42 682.553 238.35C682.903 235.54 683.283 232.8 683.673 230.12L681.383 229.78Z" fill="#EFFFD6"/>
<path d="M682.548 331.891C682.258 334.161 681.958 336.391 681.648 338.571L683.408 338.311C683.108 336.211 682.828 334.071 682.548 331.891Z" fill="#EFFFD6"/>
<path d="M670.801 397.7C670.801 397.7 671.011 397.12 671.331 396.15L670.801 397.7Z" fill="#EFFFD6"/>
<path d="M673 398.55L673.14 398.6L673.17 398.52L673.03 398.47L673 398.55Z" fill="#EFFFD6"/>
<path d="M683.73 229.73C683.65 228.76 683.68 227.24 683.56 226.48C683.28 224.69 682.99 222.95 682.7 221.23C682.43 222.82 682.16 224.44 681.91 226.09C681.85 226.5 681.73 227.19 681.61 227.89C681.51 228.48 681.41 229.05 681.34 229.52C681.35 229.61 681.37 229.7 681.38 229.79L683.67 230.13C683.69 230 683.71 229.87 683.73 229.73Z" fill="#EFFFD6"/>
<path d="M670.801 397.7L673.001 398.55L673.031 398.47L670.801 397.7Z" fill="#EFFFD6"/>
<path d="M681.898 344.151C682.158 345.801 682.428 347.411 682.698 349.001C682.988 347.331 683.268 345.631 683.538 343.891L681.898 344.151Z" fill="#EFFFD6"/>
<path d="M683.562 343.77C683.633 343.31 683.703 342.05 683.783 340.83C683.663 340 683.542 339.16 683.422 338.32L681.662 338.58C681.632 338.81 681.592 339.04 681.562 339.27C681.613 339.88 681.663 340.76 681.703 341.59C681.733 342.1 681.762 342.59 681.792 343.02C681.822 343.46 681.853 343.8 681.903 344.15L683.542 343.9C683.542 343.86 683.553 343.81 683.562 343.77Z" fill="#EFFFD6"/>
<path d="M668.448 396.86L668.438 396.88L669.778 397.37L668.448 396.86Z" fill="#EFFFD6"/>
<path d="M671.343 174.08C671.013 173.11 670.822 172.58 670.812 172.53L671.343 174.08Z" fill="#EFFFD6"/>
<path d="M673.03 171.77L673.17 171.72L673.14 171.64L673 171.69L673.01 171.71L673.03 171.77Z" fill="#EFFFD6"/>
<path d="M668.461 396.831L668.471 396.811V396.821L668.461 396.831Z" fill="#EFFFD6"/>
<path d="M681.597 227.88C681.717 227.19 681.828 226.49 681.898 226.08C682.158 224.43 682.417 222.81 682.688 221.22C678.637 197.49 673.528 180.74 671.588 174.85L671.458 174.89L670.638 172.53L669.847 172.83L668.438 173.38V173.41H668.448L669.917 172.87L668.458 173.43C668.458 173.43 668.508 173.54 668.568 173.72C669.558 176.53 676.348 196.66 681.078 226.86C681.088 226.93 681.108 227.15 681.128 227.42C681.138 227.7 681.147 228.04 681.157 228.4C681.217 228.77 681.268 229.14 681.328 229.52C681.398 229.06 681.497 228.48 681.597 227.89V227.88Z" fill="#EFFFD6"/>
<path d="M673.031 171.77L673.011 171.71L673.001 171.69L670.801 172.53L673.031 171.77Z" fill="#EFFFD6"/>
<path d="M669.931 172.87L668.461 173.41L668.471 173.43L669.931 172.87Z" fill="#EFFFD6"/>
<path d="M671.588 174.85C671.498 174.56 671.408 174.31 671.328 174.08L670.798 172.53L672.998 171.68L672.978 171.62L670.648 172.52L671.468 174.88L671.598 174.84L671.588 174.85Z" fill="#EFFFD6"/>
<path d="M673.169 398.52L673.139 398.6L673.009 398.55L672.989 398.6L670.659 397.7L671.479 395.34L671.609 395.38C673.549 389.49 678.659 372.74 682.709 349C682.439 347.41 682.169 345.8 681.909 344.15C681.859 343.79 681.829 343.45 681.799 343.01C681.769 342.58 681.739 342.09 681.709 341.58C681.659 340.74 681.609 339.87 681.569 339.26C681.469 339.98 681.359 340.69 681.249 341.39C681.219 341.85 681.199 342.29 681.169 342.65C681.139 343.02 681.109 343.34 681.099 343.38C678.549 359.61 675.419 372.93 672.899 382.22C671.639 386.86 670.539 390.5 669.749 392.99C669.349 394.23 669.039 395.19 668.819 395.84C668.709 396.17 668.619 396.41 668.559 396.58L668.489 396.77L668.469 396.81L669.929 397.36L668.459 396.82V396.81L668.439 396.85L669.769 397.36L668.439 396.87L667.539 399.22L680.049 403.54L683.879 402.22L673.159 398.52H673.169Z" fill="#EFFFD6"/>
<path d="M669.859 172.84L668.449 173.37V173.39L669.859 172.84Z" fill="#EFFFD6"/>
<path d="M669.859 172.84L668.449 173.39L669.859 172.84Z" fill="#EFFFD6"/>
<path d="M669.931 397.371L668.471 396.811L668.461 396.831L669.931 397.371Z" fill="#EFFFD6"/>
<path d="M668.461 173.41L668.471 173.42V173.43L668.461 173.41Z" fill="#EFFFD6"/>
<path d="M668.449 173.37L669.859 172.84L670.649 172.54L672.979 171.63L672.999 171.69L673.139 171.64L673.169 171.72L683.889 168.02L680.059 166.7L667.539 171.02L668.449 173.37Z" fill="#EFFFD6"/>
<path d="M687.641 400.92L687.721 400.95L694.761 398.52L694.741 398.47L687.641 400.92Z" fill="#EFFFD6"/>
<path d="M696.178 395.38L696.308 395.34L696.558 396.07C694.828 390.9 689.458 373.74 685.228 349.01C685.198 349.16 685.178 349.31 685.148 349.46C689.188 372.96 694.248 389.54 696.178 395.39V395.38Z" fill="#EFFFD6"/>
<path d="M685.078 349C685.108 349.15 685.128 349.31 685.158 349.46C685.188 349.31 685.208 349.16 685.238 349.01C685.208 348.86 685.188 348.71 685.158 348.55C685.128 348.7 685.108 348.85 685.078 349Z" fill="#EFFFD6"/>
<path d="M696.182 395.38C696.662 396.85 696.952 397.64 696.972 397.7L694.742 398.47L694.762 398.52L697.122 397.7C697.122 397.7 696.902 397.1 696.562 396.07L696.312 395.34L696.182 395.38Z" fill="#EFFFD6"/>
<path d="M696.972 172.53C696.952 172.59 696.662 173.38 696.182 174.85L696.312 174.89L696.562 174.16C696.902 173.13 697.102 172.58 697.122 172.53L694.762 171.71C694.762 171.71 694.752 171.74 694.742 171.75L696.972 172.52V172.53Z" fill="#EFFFD6"/>
<path d="M694.738 171.76C694.738 171.76 694.748 171.73 694.758 171.72L687.718 169.29L687.648 169.32L694.748 171.77L694.738 171.76Z" fill="#EFFFD6"/>
<path d="M696.178 174.85C694.248 180.7 689.188 197.28 685.148 220.78C685.178 220.93 685.198 221.08 685.228 221.23C689.448 196.5 694.828 179.34 696.558 174.17L696.308 174.9L696.178 174.86V174.85Z" fill="#EFFFD6"/>
<path d="M685.078 221.24C685.108 221.39 685.128 221.54 685.158 221.69C685.188 221.54 685.208 221.39 685.238 221.23C685.208 221.08 685.188 220.93 685.158 220.78C685.128 220.93 685.108 221.08 685.078 221.24Z" fill="#EFFFD6"/>
<path d="M684.219 343.76C684.219 343.76 684.219 343.78 684.219 343.79L684.37 343.77C684.23 342.89 684.1 339.13 683.96 338.24C683.9 338.66 683.83 339.73 683.77 340.84C683.92 341.83 684.069 342.81 684.219 343.78V343.76Z" fill="#EFFFD6"/>
<path d="M684.219 343.79C684.499 345.57 684.789 347.3 685.079 349C685.109 348.85 685.129 348.7 685.159 348.55C684.889 346.98 684.629 345.39 684.379 343.76L684.229 343.78L684.219 343.79Z" fill="#EFFFD6"/>
<path d="M687.721 169.29L683.961 167.99L683.891 168.02L687.651 169.31L687.721 169.29Z" fill="#EFFFD6"/>
<path d="M683.891 402.22L683.961 402.25L687.721 400.95L687.641 400.92L683.891 402.22Z" fill="#EFFFD6"/>
<path d="M683.729 229.73C683.739 229.88 683.759 230.02 683.769 230.14C683.899 229.24 684.239 227.36 684.369 226.48C684.629 224.85 684.889 223.26 685.149 221.69C685.119 221.54 685.099 221.39 685.069 221.24C684.779 222.95 684.489 224.69 684.209 226.48C684.039 227.55 683.879 228.64 683.719 229.73H683.729Z" fill="#EFFFD6"/>
<path d="M683.891 214.55C684.291 216.71 684.691 218.94 685.081 221.23C685.111 221.08 685.131 220.92 685.161 220.77C684.771 218.49 684.371 216.28 683.971 214.13C683.941 214.27 683.921 214.4 683.891 214.54V214.55Z" fill="#EFFFD6"/>
<path d="M673.84 396.11C673.84 396.11 673.83 396.14 673.82 396.16L673.96 396.21C673.96 396.21 673.97 396.18 673.98 396.16L673.84 396.11Z" fill="#EFFFD6"/>
<path d="M694.378 397.44C694.498 397.78 694.588 398.05 694.648 398.23C694.678 398.32 694.707 398.4 694.727 398.45L696.958 397.69C696.938 397.63 696.647 396.84 696.167 395.37L693.938 396.14C694.108 396.65 694.247 397.08 694.367 397.43L694.378 397.44Z" fill="#EFFFD6"/>
<path d="M683.958 356.09C683.928 355.95 683.908 355.82 683.878 355.68C680.038 376.18 675.628 390.6 673.828 396.1L673.968 396.15C675.748 390.73 680.118 376.43 683.958 356.09Z" fill="#EFFFD6"/>
<path d="M683.963 356.09C684.363 353.94 684.763 351.73 685.153 349.45C685.123 349.3 685.103 349.15 685.073 348.99C684.683 351.28 684.283 353.52 683.883 355.68C683.913 355.82 683.933 355.95 683.963 356.09Z" fill="#EFFFD6"/>
<path d="M673.972 174.09C673.972 174.09 673.963 174.06 673.953 174.04L673.812 174.09C673.812 174.09 673.823 174.12 673.833 174.14L673.972 174.09Z" fill="#EFFFD6"/>
<path d="M694.661 398.24C694.591 398.05 694.501 397.79 694.391 397.45C694.271 397.1 694.131 396.67 693.961 396.16L683.971 399.61L673.981 396.16C673.981 396.16 673.971 396.19 673.961 396.21L687.641 400.93L694.741 398.48C694.721 398.41 694.691 398.34 694.661 398.24Z" fill="#EFFFD6"/>
<path d="M690.211 383.52C691.491 388.24 692.611 391.94 693.421 394.5C693.621 395.12 693.801 395.67 693.951 396.16L696.181 395.39C694.261 389.54 689.191 372.96 685.151 349.46C684.761 351.74 684.361 353.95 683.961 356.1C686.051 367.19 688.301 376.49 690.211 383.53V383.52Z" fill="#EFFFD6"/>
<path d="M677.72 186.71C676.44 181.99 675.32 178.29 674.51 175.74C674.31 175.12 674.13 174.57 673.98 174.09L673.84 174.14C674 174.61 674.17 175.15 674.36 175.75C675.17 178.3 676.29 182.01 677.57 186.73C679.5 193.86 681.78 203.3 683.89 214.57C683.92 214.43 683.94 214.3 683.97 214.16C681.88 203.07 679.63 193.77 677.72 186.73V186.71Z" fill="#EFFFD6"/>
<path d="M693.949 174.08L696.179 174.85C696.659 173.38 696.949 172.59 696.969 172.53L694.739 171.76C694.669 171.95 694.529 172.35 694.299 173.03C694.199 173.33 694.079 173.69 693.949 174.09V174.08Z" fill="#EFFFD6"/>
<path d="M683.961 214.14C684.361 216.28 684.761 218.5 685.151 220.78C689.191 197.28 694.251 180.71 696.181 174.85L693.951 174.08C692.171 179.5 687.801 193.8 683.961 214.14Z" fill="#EFFFD6"/>
<path d="M683.959 170.641L693.949 174.091C694.079 173.691 694.199 173.341 694.299 173.031C694.529 172.361 694.669 171.951 694.739 171.761L687.639 169.311L673.949 174.031C673.949 174.031 673.959 174.061 673.969 174.081L683.959 170.631V170.641Z" fill="#EFFFD6"/>
<path d="M671.622 395.34L671.602 395.39L673.822 396.15C673.822 396.15 673.832 396.12 673.842 396.1L671.622 395.34Z" fill="#EFFFD6"/>
<path d="M671.343 396.16C671.013 397.13 670.822 397.66 670.812 397.71L673.042 398.48C673.142 398.2 673.413 397.41 673.823 396.16L671.602 395.4L671.333 396.17L671.343 396.16Z" fill="#EFFFD6"/>
<path d="M673.962 396.2C673.562 397.42 673.292 398.19 673.192 398.46L673.172 398.52L683.892 402.22L687.642 400.92L673.962 396.2Z" fill="#EFFFD6"/>
<path d="M673.272 172C673.342 172.19 673.432 172.45 673.542 172.79C673.662 173.13 673.802 173.55 673.962 174.03L687.652 169.31L683.892 168.01L673.172 171.71L673.192 171.77C673.212 171.83 673.242 171.9 673.272 171.99V172Z" fill="#EFFFD6"/>
<path d="M683.771 340.83C683.701 342.05 683.631 343.31 683.551 343.77C683.551 343.81 683.541 343.86 683.531 343.9L684.221 343.79C684.221 343.79 684.221 343.77 684.221 343.76C684.071 342.79 683.921 341.81 683.771 340.82V340.83Z" fill="#EFFFD6"/>
<path d="M673.041 171.78C673.061 171.84 673.091 171.91 673.121 172C673.191 172.19 673.281 172.45 673.391 172.79C673.511 173.14 673.651 173.57 673.821 174.08L673.961 174.03C673.801 173.54 673.661 173.13 673.541 172.79C673.421 172.45 673.331 172.18 673.271 172C673.241 171.91 673.211 171.83 673.191 171.78L673.171 171.72L673.031 171.77L673.041 171.78Z" fill="#EFFFD6"/>
<path d="M673.959 396.2L673.819 396.15C673.409 397.4 673.129 398.19 673.039 398.46L673.179 398.52L673.199 398.46C673.299 398.19 673.569 397.42 673.969 396.2H673.959Z" fill="#EFFFD6"/>
<path d="M671.338 174.08C671.418 174.31 671.498 174.57 671.598 174.85L671.328 174.08H671.338Z" fill="#EFFFD6"/>
<path d="M683.729 229.731C683.889 228.631 684.059 227.551 684.219 226.481C684.499 224.701 684.789 222.951 685.079 221.241C684.689 218.951 684.289 216.721 683.889 214.561C683.489 216.721 683.089 218.941 682.699 221.231C682.989 222.951 683.279 224.691 683.559 226.481C683.679 227.241 683.649 228.761 683.729 229.731Z" fill="#EFFFD6"/>
<path d="M685.078 349C684.788 347.3 684.497 345.56 684.217 343.79L683.528 343.9C683.258 345.64 682.977 347.34 682.688 349.01C683.077 351.3 683.478 353.53 683.878 355.69C684.288 353.53 684.678 351.3 685.068 349H685.078Z" fill="#EFFFD6"/>
<path d="M673.823 174.09C673.653 173.58 673.513 173.15 673.393 172.8C673.273 172.46 673.182 172.19 673.122 172.01C673.092 171.92 673.062 171.84 673.042 171.79L670.812 172.55C670.832 172.6 671.023 173.13 671.343 174.1L671.612 174.87L673.833 174.11L673.823 174.09Z" fill="#EFFFD6"/>
<path d="M677.56 186.72C676.28 182 675.16 178.3 674.35 175.74C674.16 175.14 673.99 174.6 673.83 174.13L671.61 174.89L671.59 174.84C673.53 180.73 678.64 197.48 682.69 221.21C683.08 218.92 683.48 216.7 683.88 214.54C681.77 203.27 679.48 193.83 677.56 186.7V186.72Z" fill="#EFFFD6"/>
<path d="M671.622 174.9L673.842 174.14C673.842 174.14 673.832 174.11 673.822 174.09L671.602 174.85L671.622 174.9Z" fill="#EFFFD6"/>
<path d="M671.6 395.39C671.51 395.67 671.42 395.93 671.34 396.16L671.61 395.39H671.6Z" fill="#EFFFD6"/>
<path d="M671.622 395.34L673.842 396.1C675.642 390.61 680.052 376.19 683.892 355.68C683.492 353.52 683.092 351.29 682.702 349C678.652 372.74 673.532 389.49 671.602 395.38L671.622 395.33V395.34Z" fill="#EFFFD6"/>
<path d="M0 241.8V256.98L99.08 277.95L0 241.8Z" fill="#D3F1A7"/>
<path d="M99.56 278.05L0 241.68V241.8L99.08 277.95L99.56 278.05Z" fill="#D3F1A7"/>
<path d="M112.309 277.45L112.319 277.39L112.209 277.34L112.199 277.41L112.309 277.45Z" fill="#EFFFD6"/>
<path d="M111.26 282.39L111.14 282.34L110.91 283.42L0 259.76V262.09L110.6 285.49L111.26 282.39Z" fill="#EFFFD6"/>
<path d="M111.672 279.88L111.782 279.92L112.312 277.45L112.202 277.41L111.672 279.88Z" fill="#EFFFD6"/>
<path d="M111.141 282.34L111.261 282.39L111.781 279.92L111.671 279.88L111.141 282.34Z" fill="#EFFFD6"/>
<path d="M110.28 276.641L0 236.351V236.481L110.26 276.701L110.28 276.641Z" fill="#EFFFD6"/>
<path d="M110.258 276.701L112.198 277.411L112.208 277.341L110.278 276.641L110.258 276.701Z" fill="#EFFFD6"/>
<path d="M111.14 282.34L108.89 281.52L108.67 282.53L0 259.53V259.76L110.91 283.42L111.14 282.34Z" fill="#EFFFD6"/>
<path d="M111.67 279.88L112.2 277.41L110.26 276.7L109.43 278.99L109.41 279.05L111.67 279.88Z" fill="#EFFFD6"/>
<path d="M110.26 276.7L0 236.48V239.02L109.43 278.99L110.26 276.7Z" fill="#EFFFD6"/>
<path d="M109.411 279.05L108.891 281.52L111.141 282.34L111.671 279.88L109.411 279.05Z" fill="#EFFFD6"/>
<path d="M108.89 281.52L99.08 277.95L0 256.98V259.53L108.67 282.53L108.89 281.52Z" fill="#EFFFD6"/>
<path d="M109.43 278.99L0 239.021V239.141L108.97 278.891L109.43 278.99Z" fill="#EFFFD6"/>
<path d="M109.429 278.991L108.969 278.891L109.399 279.051L109.429 278.991Z" fill="#EFFFD6"/>
<path d="M109.408 279.05L109.428 278.99L109.398 279.05H109.408Z" fill="#EFFFD6"/>
<path d="M109.398 279.05L108.568 281.34L99.5581 278.05L99.0781 277.95L108.888 281.52L109.408 279.05H109.398Z" fill="#EFFFD6"/>
<path d="M106.75 279.57L106.98 278.47L108.97 278.89L0 239.14V241.68L99.56 278.05L106.75 279.57Z" fill="#EFFFD6"/>
<path d="M109.403 279.05L108.973 278.89L106.983 278.47L106.753 279.57L99.5625 278.05L108.573 281.34L109.403 279.05Z" fill="#EFFFD6"/>
<path d="M444.97 85.4504L414.82 141.91L414.98 141.9L445.13 85.4404L444.97 85.4504Z" fill="#D3F1A7"/>
<path d="M414.819 141.91L444.969 85.4502L382.859 88.0602L385.179 143.15L414.819 141.91Z" fill="#D3F1A7"/>
<path d="M808.97 0H808.82V51.35H808.97V0Z" fill="#EFFFD6"/>
<path d="M808.819 51.35V0H803.969V46.35H754.949V0H749.949V51.35H808.819Z" fill="#EFFFD6"/>
<path d="M252.499 45.0304C253.559 46.4404 254.399 47.9004 255.199 49.2704C255.509 49.8104 255.819 50.3404 256.129 50.8504L285.029 29.0504L251.519 16.6904L248.879 23.8404C247.349 27.9904 245.749 31.6804 244.109 35.0204C246.839 37.9004 249.639 41.2204 252.499 45.0204V45.0304Z" fill="#D3F1A7"/>
<path d="M256.181 50.9303L285.141 29.0903L285.041 29.0503L256.141 50.8503C256.141 50.8503 256.171 50.9003 256.191 50.9303H256.181Z" fill="#D3F1A7"/>
<path d="M246.542 22.9899L244.193 22.1299C242.933 25.5499 241.633 28.6299 240.312 31.4399C240.942 32.0199 241.573 32.6299 242.213 33.2599C243.703 30.1799 245.142 26.7899 246.542 22.9999V22.9899Z" fill="#EFFFD6"/>
<path d="M250.037 13.4903L287.397 27.2703L288.638 26.3403L289.777 25.4803L248.557 10.2803L244.188 22.1203L246.537 22.9903L250.037 13.4903Z" fill="#EFFFD6"/>
<path d="M293.03 29.4L295.46 27.57L295.35 27.54L292.93 29.36L293.03 29.4Z" fill="#EFFFD6"/>
<path d="M291.65 30.3304L255.02 57.9504L255.08 58.0303L293.03 29.4004L292.93 29.3604L291.65 30.3304Z" fill="#EFFFD6"/>
<path d="M238.031 35.9799L239.311 37.2699C239.461 37.4199 239.611 37.5799 239.761 37.7299C240.161 37.0099 240.561 36.2799 240.951 35.5199C240.971 35.5399 240.981 35.5499 241.001 35.5699C241.361 35.9399 241.731 36.3099 242.091 36.6999C241.721 36.3199 241.361 35.9399 241.001 35.5699C241.891 36.4799 242.801 37.4399 243.711 38.4499C244.211 38.9999 244.711 39.5799 245.221 40.1599C245.341 40.2999 245.461 40.4199 245.581 40.5599C245.461 40.4199 245.341 40.2899 245.221 40.1599C246.211 41.3099 247.221 42.5199 248.231 43.7999C248.131 43.6799 248.041 43.5499 247.941 43.4299C248.091 43.6199 248.251 43.8199 248.411 44.0199C248.901 44.6399 249.401 45.2799 249.891 45.9299C250.041 46.1299 250.201 46.3299 250.351 46.5299C251.731 48.3599 252.801 50.4599 254.021 52.4399L254.131 52.3599C252.931 50.4099 251.871 48.3399 250.511 46.5299C247.271 42.2299 244.131 38.5699 241.091 35.4999C241.471 34.7699 241.841 34.0099 242.211 33.2399C241.571 32.6099 240.941 31.9999 240.311 31.4199C239.831 32.4299 239.351 33.4099 238.871 34.3499L238.041 35.9599L238.031 35.9799Z" fill="#EFFFD6"/>
<path d="M254.168 52.4501C254.168 52.4501 254.138 52.4001 254.118 52.3701L254.008 52.4501C254.008 52.4501 254.038 52.5001 254.058 52.5301L254.168 52.4501Z" fill="#EFFFD6"/>
<path d="M288.638 26.3405L287.398 27.2705L290.288 28.3405L290.238 28.3705L292.928 29.3605L295.348 27.5405L289.778 25.4805L288.638 26.3405Z" fill="#EFFFD6"/>
<path d="M255.408 54.5205L255.508 54.4505L254.078 52.5605C254.498 53.2405 254.938 53.9005 255.408 54.5305V54.5205Z" fill="#EFFFD6"/>
<path d="M254.173 52.4502L254.062 52.5302C254.062 52.5302 254.073 52.5502 254.083 52.5602L255.512 54.4502C255.032 53.8102 254.593 53.1302 254.173 52.4502Z" fill="#EFFFD6"/>
<path d="M255.57 54.5204L255.51 54.4504L255.41 54.5204L253.9 52.5204L254.01 52.4403C252.79 50.4603 251.72 48.3603 250.34 46.5303C249.94 46.0003 249.54 45.5004 249.15 44.9904C248.84 44.5904 248.53 44.1904 248.22 43.8004C247.2 42.5204 246.2 41.3104 245.21 40.1604C244.71 39.5804 244.2 39.0004 243.7 38.4504C242.79 37.4404 241.88 36.4804 240.99 35.5704C240.97 35.5504 240.96 35.5404 240.94 35.5204C240.55 36.2804 240.15 37.0104 239.75 37.7304C242.55 40.6104 245.47 44.0304 248.5 48.0404C249.32 49.1204 250.07 50.4103 250.87 51.7803C251.67 53.1503 252.51 54.6104 253.57 56.0204L255.02 57.9403L291.65 30.3204L292.93 29.3504L290.24 28.3604L257.56 53.0103L255.56 54.5204H255.57Z" fill="#EFFFD6"/>
<path d="M255.408 54.5204C254.938 53.8904 254.498 53.2304 254.078 52.5504L254.058 52.5204C254.058 52.5204 254.028 52.4604 254.008 52.4404L253.898 52.5204L255.408 54.5204Z" fill="#EFFFD6"/>
<path d="M254.062 52.5303L254.083 52.5603C254.083 52.5603 254.072 52.5403 254.062 52.5303Z" fill="#EFFFD6"/>
<path d="M255.508 54.4504L255.568 54.5204C255.568 54.5204 255.538 54.4704 255.518 54.4404L255.508 54.4504Z" fill="#EFFFD6"/>
<path d="M248.408 44.0304C248.248 43.8304 248.097 43.6304 247.938 43.4404C248.038 43.5604 248.127 43.6904 248.227 43.8104C248.537 44.2004 248.848 44.6004 249.158 45.0004C248.908 44.6804 248.658 44.3504 248.408 44.0304Z" fill="#EFFFD6"/>
<path d="M250.35 46.5403C250.2 46.3403 250.04 46.1403 249.89 45.9403C249.39 45.2903 248.9 44.6503 248.41 44.0303C248.66 44.3403 248.91 44.6803 249.16 45.0003C249.56 45.5103 249.95 46.0103 250.35 46.5403Z" fill="#EFFFD6"/>
<path d="M246.539 22.9902L248.879 23.8502L251.519 16.7002L285.029 29.0602L287.399 27.2702L250.039 13.4902L246.539 22.9902Z" fill="#EFFFD6"/>
<path d="M242.791 33.83L242.871 33.75C243.281 34.17 243.701 34.6 244.121 35.04C245.771 31.7 247.361 28.01 248.891 23.86L246.541 23C245.141 26.79 243.691 30.18 242.211 33.26C242.381 33.43 242.561 33.6 242.731 33.77C242.751 33.79 242.771 33.81 242.791 33.83Z" fill="#EFFFD6"/>
<path d="M242.861 33.75L242.781 33.83C243.201 34.26 243.631 34.7 244.051 35.15C244.071 35.11 244.081 35.08 244.101 35.04C243.681 34.6 243.271 34.17 242.851 33.75H242.861Z" fill="#EFFFD6"/>
<path d="M255.202 49.28C254.402 47.91 253.563 46.45 252.503 45.04C249.643 41.24 246.843 37.92 244.113 35.04C244.093 35.08 244.082 35.11 244.062 35.15C246.763 38 249.523 41.29 252.353 45.04C253.413 46.45 254.253 47.91 255.053 49.28C255.383 49.85 255.703 50.4 256.033 50.94L256.133 50.86C255.823 50.35 255.512 49.83 255.202 49.28Z" fill="#EFFFD6"/>
<path d="M242.718 33.76C242.548 33.58 242.368 33.42 242.198 33.25C241.828 34.02 241.458 34.78 241.078 35.51L242.778 33.83C242.778 33.83 242.738 33.79 242.718 33.77V33.76Z" fill="#EFFFD6"/>
<path d="M257.412 53.0203C256.952 52.4103 256.512 51.7303 256.072 51.0103L254.172 52.4403C254.592 53.1303 255.042 53.8003 255.512 54.4403L257.402 53.0103L257.412 53.0203Z" fill="#EFFFD6"/>
<path d="M257.408 53.0202L257.508 52.9402C257.048 52.3302 256.608 51.6502 256.178 50.9302L256.078 51.0102C256.518 51.7302 256.958 52.4102 257.418 53.0202H257.408Z" fill="#EFFFD6"/>
<path d="M256.02 50.9306C256.02 50.9306 256.05 50.9806 256.07 51.0106L256.17 50.9306C256.17 50.9306 256.14 50.8806 256.12 50.8506L256.02 50.9306Z" fill="#EFFFD6"/>
<path d="M285.132 29.1005L256.172 50.9405C256.612 51.6605 257.052 52.3405 257.502 52.9505L290.132 28.3405L290.232 28.3805L290.282 28.3405L287.392 27.2705L285.022 29.0605L285.122 29.1005H285.132Z" fill="#EFFFD6"/>
<path d="M255.038 49.2804C254.238 47.9104 253.398 46.4504 252.338 45.0404C249.508 41.2904 246.748 38.0004 244.048 35.1504C243.798 35.6604 243.548 36.1804 243.298 36.6604L241.078 35.5104C244.108 38.5804 247.248 42.2404 250.498 46.5404C251.858 48.3404 252.928 50.4204 254.118 52.3704L256.018 50.9404C255.698 50.4104 255.368 49.8604 255.038 49.2804Z" fill="#EFFFD6"/>
<path d="M244.06 35.1403C243.64 34.6903 243.21 34.2503 242.79 33.8203L241.09 35.5003L243.31 36.6503C243.56 36.1603 243.81 35.6403 244.06 35.1403Z" fill="#EFFFD6"/>
<path d="M256.067 51.0102C256.067 51.0102 256.037 50.9602 256.017 50.9302L254.117 52.3602C254.117 52.3602 254.147 52.4102 254.167 52.4402L256.067 51.0102Z" fill="#EFFFD6"/>
<path d="M257.408 53.0204L255.508 54.4504C255.508 54.4504 255.538 54.5004 255.558 54.5304L257.558 53.0204C257.558 53.0204 257.518 52.9704 257.508 52.9404L257.408 53.0204Z" fill="#EFFFD6"/>
<path d="M257.508 52.9401C257.508 52.9401 257.548 52.9901 257.558 53.0201L290.238 28.3701L290.138 28.3301L257.508 52.9401Z" fill="#EFFFD6"/>
<path d="M257.408 53.0205L255.508 54.4505L257.408 53.0205Z" fill="#EFFFD6"/>
<path d="M70.8394 78.1104C70.9994 77.5104 71.1494 76.8803 71.2994 76.2403C71.6694 74.7003 72.0494 73.0504 72.6594 71.4004C74.2594 67.0604 75.9294 63.1704 77.6694 59.7004C75.1394 56.9804 72.5494 53.8904 69.8994 50.3804L65.3594 44.3604L37.1094 65.6703L70.8394 78.1104Z" fill="#D3F1A7"/>
<path d="M77.6672 59.7C77.6672 59.7 77.7072 59.62 77.7272 59.57C75.2272 56.88 72.6772 53.85 70.0572 50.38L65.4672 44.29L65.3672 44.36L69.9072 50.38C72.5572 53.89 75.1372 56.98 77.6772 59.7H77.6672Z" fill="#D3F1A7"/>
<path d="M74.8095 82.2299C75.4195 80.5699 75.7995 78.9299 76.1695 77.3899C76.5295 75.8399 76.8795 74.3999 77.3595 73.1299L75.0095 72.2599C74.2195 74.4099 73.7995 76.7299 73.1995 78.9699L73.3295 79.0199L72.4595 81.3699L34.6395 67.4199L33.3095 68.4299L32.2695 69.2099L73.9495 84.5799L74.8195 82.2299H74.8095Z" fill="#EFFFD6"/>
<path d="M73.3309 79.0202L73.2009 78.9702C72.9909 79.7802 72.7509 80.5802 72.4609 81.3602L73.3309 79.0102V79.0202Z" fill="#EFFFD6"/>
<path d="M75.0078 72.2604L77.3578 73.1204C78.6678 69.5704 80.0178 66.3604 81.3978 63.4604C80.7778 62.8704 80.1478 62.2504 79.5178 61.6104C77.9678 64.7804 76.4678 68.3204 75.0178 72.2504L75.0078 72.2604Z" fill="#EFFFD6"/>
<path d="M82.3916 57.4302C82.8516 57.9102 83.3116 58.3602 83.7616 58.8102L83.8116 58.7102L82.5516 57.4102C82.3416 57.2002 82.1316 56.9602 81.9216 56.7402C81.9016 56.7802 81.8716 56.8202 81.8516 56.8602C82.0316 57.0502 82.2016 57.2502 82.3816 57.4302H82.3916Z" fill="#EFFFD6"/>
<path d="M81.8616 56.86C81.8616 56.86 81.9116 56.78 81.9316 56.74C79.3916 54.05 76.7716 50.97 74.0516 47.37L66.4516 37.29L66.3516 37.36L73.9016 47.37C76.6516 51.01 79.3016 54.16 81.8616 56.87V56.86Z" fill="#EFFFD6"/>
<path d="M34.6391 67.42L31.9491 66.43L65.8591 40.86L65.7991 40.79L31.7991 66.43L29.1091 65.44L26.7891 67.19L32.2691 69.21L33.3091 68.43L34.6391 67.42Z" fill="#EFFFD6"/>
<path d="M79.5078 61.6201C80.1378 62.2601 80.7678 62.8701 81.3878 63.4701C81.9078 62.3701 82.4378 61.3201 82.9678 60.3201L83.7578 58.8201C83.3078 58.3701 82.8478 57.9101 82.3878 57.4401C82.2178 57.2601 82.0378 57.0601 81.8578 56.8701C81.4578 57.5801 81.0478 58.3001 80.6578 59.0501C80.6878 59.0801 80.7278 59.1201 80.7578 59.1601C80.3378 59.9601 79.9178 60.7901 79.5078 61.6301V61.6201Z" fill="#EFFFD6"/>
<path d="M31.8016 66.4306L65.8016 40.7906L65.8516 40.8606L65.9516 40.7906L72.0516 48.8706C75.0116 52.7906 77.8716 56.1506 80.6516 59.0406C81.0516 58.2906 81.4516 57.5606 81.8516 56.8606C79.2916 54.1506 76.6316 51.0106 73.8916 47.3606L66.3416 37.3506L29.1016 65.4306L31.7916 66.4206L31.8016 66.4306Z" fill="#EFFFD6"/>
<path d="M78.7902 60.9002C78.4202 60.5102 78.0402 60.1002 77.6702 59.7002C75.9402 63.1702 74.2702 67.0602 72.6602 71.4002L75.0102 72.2702C76.4602 68.3402 77.9602 64.8002 79.5102 61.6302C79.2702 61.3902 79.0302 61.1602 78.7902 60.9102V60.9002Z" fill="#EFFFD6"/>
<path d="M72.6602 71.4004L75.0102 72.2604L72.6602 71.4004Z" fill="#EFFFD6"/>
<path d="M70.1172 80.5004L72.4672 81.3704C72.7572 80.5904 72.9872 79.7904 73.2072 78.9804L70.8472 78.1104C70.6272 78.9604 70.3972 79.7604 70.1172 80.5104V80.5004Z" fill="#EFFFD6"/>
<path d="M70.8428 78.11L37.1128 65.67L65.3628 44.36L65.3028 44.29L34.6328 67.42L72.4528 81.37L70.1028 80.5C70.3728 79.76 70.6128 78.95 70.8328 78.1L70.8428 78.11Z" fill="#EFFFD6"/>
<path d="M72.6599 71.4004C72.0499 73.0604 71.6699 74.7004 71.2999 76.2404C71.1499 76.8804 70.9998 77.5004 70.8398 78.1104L73.1998 78.9804C73.7898 76.7404 74.2098 74.4104 75.0098 72.2704L72.6599 71.4104V71.4004Z" fill="#EFFFD6"/>
<path d="M80.7606 59.15C80.7606 59.15 80.6906 59.08 80.6606 59.04C80.6606 59.05 80.6406 59.07 80.6406 59.08L80.7606 59.15Z" fill="#EFFFD6"/>
<path d="M78.7919 60.9004C79.0319 61.1504 79.2719 61.3804 79.5119 61.6204C79.9219 60.7704 80.3419 59.9404 80.7619 59.1504L78.9619 60.8904C78.5519 60.4704 78.1419 60.0204 77.7319 59.5804C77.7119 59.6204 77.6919 59.6604 77.6719 59.7104C78.0419 60.1104 78.4219 60.5304 78.7919 60.9104V60.9004Z" fill="#EFFFD6"/>
<path d="M80.7622 59.1502L80.6422 59.0802C80.6422 59.0802 80.6122 59.1302 80.6022 59.1602C80.5422 59.0902 80.4722 59.0202 80.4122 58.9502L78.5622 57.9702C78.2922 58.4902 78.0222 59.0202 77.7422 59.5602C78.1522 60.0002 78.5622 60.4502 78.9722 60.8702L80.7722 59.1302L80.7622 59.1502Z" fill="#EFFFD6"/>
<path d="M34.6392 67.4203L65.3092 44.2904L65.3692 44.3604L65.4692 44.2904L70.0592 50.3804C72.6792 53.8504 75.2292 56.8804 77.7292 59.5704C77.9992 59.0304 78.2692 58.5004 78.5492 57.9804L80.3992 58.9604C77.6492 56.0904 74.8192 52.7403 71.8992 48.8703L65.8592 40.8604L31.9492 66.4304L34.6392 67.4203Z" fill="#EFFFD6"/>
<path d="M80.6284 59.08L80.3984 58.96C80.4584 59.03 80.5284 59.1 80.5884 59.17C80.5984 59.14 80.6184 59.12 80.6284 59.09V59.08Z" fill="#EFFFD6"/>
<path d="M80.4016 58.96L80.6316 59.08C80.6316 59.08 80.6516 59.05 80.6516 59.04C77.8716 56.15 75.0016 52.79 72.0516 48.87L65.9516 40.79L65.8516 40.86L71.8916 48.87C74.8116 52.74 77.6416 56.09 80.3916 58.96H80.4016Z" fill="#EFFFD6"/>
<path d="M538.641 81.5103L539.551 103.22L538.641 81.5103Z" fill="#EFFFD6"/>
<path d="M446.34 82.9006L447.71 80.3306L507.49 77.8105L447.71 80.3306L446.34 82.9006Z" fill="#EFFFD6"/>
<path d="M413.45 144.47L412.09 147.03L546.16 141.38L412.09 147.03L413.45 144.47Z" fill="#EFFFD6"/>
<path d="M382.938 145.76L380.508 88.1599L380.358 88.1699L380.258 85.6699L377.758 85.7699L380.388 148.36L412.088 147.03L413.448 144.47L382.938 145.76Z" fill="#EFFFD6"/>
<path d="M377.758 85.7701L380.258 85.6701L382.748 85.5601V85.5701L446.338 82.9001L447.708 80.3301L377.648 83.2801L377.758 85.7701Z" fill="#EFFFD6"/>
<path d="M380.508 88.1606L380.408 85.6705L382.748 85.5705V85.5605L380.258 85.6705L380.358 88.1705L380.508 88.1606Z" fill="#EFFFD6"/>
<path d="M414.819 141.91L413.449 144.47L414.819 141.91L414.979 141.9L414.819 141.91Z" fill="#EFFFD6"/>
<path d="M382.762 85.5672L380.414 85.666L380.519 88.1538L382.867 88.055L382.762 85.5672Z" fill="#EFFFD6"/>
<path d="M385.178 143.151L382.858 88.0605L380.508 88.1606L382.938 145.761L413.448 144.471L414.818 141.911L385.178 143.151Z" fill="#EFFFD6"/>
<path d="M444.97 85.4504L446.34 82.9004L382.75 85.5704L382.86 88.0604L444.97 85.4504Z" fill="#EFFFD6"/>
<path d="M546.162 141.38L543.432 76.3003L507.492 77.8103L543.432 76.3003L546.162 141.38Z" fill="#D3F1A7"/>
<path d="M540.961 136.6L539.551 103.22L540.961 136.6Z" fill="#D3F1A7"/>
<path d="M538.64 81.5103L466.68 84.5403L538.64 81.5103Z" fill="#D3F1A7"/>
<path d="M446.34 82.9003L446.49 82.8903L445.13 85.4403L466.68 84.5403L538.64 81.5103L539.55 103.22L540.96 136.6L414.98 141.9L413.61 144.47H413.45L412.09 147.03L546.16 141.38L543.43 76.3003L507.49 77.8103L447.71 80.3303L446.34 82.9003Z" fill="#D3F1A7"/>
<path d="M444.969 85.4501L445.129 85.4401L446.489 82.8901L446.339 82.9001L444.969 85.4501Z" fill="#D3F1A7"/>
<path d="M413.449 144.47H413.609L414.979 141.9L414.819 141.91L413.449 144.47Z" fill="#D3F1A7"/>
<path d="M288.383 346.29H290.883V319.92H285.883V351.29H288.383V348.79V346.29Z" fill="#D3F1A7"/>
<path d="M333.613 277.41H359.773V346.29H290.883V348.79H288.383V351.29H364.773V272.41H333.613V277.41Z" fill="#D3F1A7"/>
<path d="M290.883 346.29H288.383V348.79H290.883V346.29Z" fill="#D3F1A7"/>
<path d="M290.883 319.54H288.543H285.883V319.92H290.883V319.54Z" fill="#EFFFD6"/>
<path d="M333.17 274.91V277.41H333.61V272.41H333.02V274.91H333.17Z" fill="#EFFFD6"/>
<path d="M288.543 274.91H333.023V272.41H285.883V319.54H288.543V274.91Z" fill="#EFFFD6"/>
<path d="M333.17 274.91H333.02V277.41H333.17V274.91Z" fill="#EFFFD6"/>
<path d="M333.019 277.41V274.91H288.539V319.54H290.879V277.41H333.019Z" fill="#EFFFD6"/>
<path d="M102.982 433.3L99.1519 435.41L97.9519 433.22L96.6719 435.37L103.122 439.2L108.202 436.4L102.982 433.3Z" fill="#D3F1A7"/>
<path d="M102.979 433.3L99.2192 431.07L97.9492 433.22L99.1492 435.41L102.979 433.3Z" fill="#D3F1A7"/>
<path d="M172.022 476.72L169.242 478.5L271.562 540H281.272L173.862 475.45L172.022 476.72Z" fill="#D3F1A7"/>
<path d="M165.32 393.26L92.9102 433.14L96.6702 435.37L97.9501 433.22L99.2202 431.07L102.98 433.3L165.36 398.95L170.86 401.88L171.58 401.49L171.65 401.53L171.73 401.49L233.21 434.32L232.51 434.81L302.89 472.39V540H307.89V469.39L165.32 393.26Z" fill="#D3F1A7"/>
<path d="M162.577 474.5L162.597 474.51H162.587L166.747 477.01L162.577 474.5L103.137 439.21L108.217 436.41L108.267 436.44L108.197 436.4L103.117 439.2L162.587 474.51L162.577 474.5Z" fill="#D3F1A7"/>
<path d="M162.578 474.5L162.588 474.51H162.598L162.578 474.5Z" fill="#D3F1A7"/>
<path d="M171.649 401.53L171.579 401.49L170.859 401.88L170.939 401.93L171.649 401.53Z" fill="#D3F1A7"/>
<path d="M232.418 434.76L232.508 434.81L233.208 434.32L171.728 401.49L171.648 401.53L233.058 434.32L232.418 434.76Z" fill="#D3F1A7"/>
<path d="M168.26 472.08L165.15 470.21L108.27 436.44L165.15 470.21L168.26 472.08Z" fill="#D3F1A7"/>
<path d="M232.417 434.76L233.057 434.32L171.647 401.53L170.938 401.93L232.417 434.76Z" fill="#D3F1A7"/>
<path d="M166.75 477.01L169.08 478.41L166.75 477.01Z" fill="#EFFFD6"/>
<path d="M173.638 475.31L168.258 472.08L173.638 475.31Z" fill="#EFFFD6"/>
<path d="M170.258 477.75L169.828 478.02L169.748 477.97L169.078 478.41L169.238 478.5L172.018 476.72L173.858 475.45L173.718 475.36L170.258 477.75Z" fill="#EFFFD6"/>
<path d="M169.751 477.97L162.121 473.39L103.921 438.84L108.271 436.44L108.221 436.41L103.141 439.21L162.581 474.5L166.751 477.01L169.081 478.41L169.751 477.97Z" fill="#EFFFD6"/>
<path d="M169.75 477.971L169.83 478.021L170.26 477.751L173.72 475.361L173.64 475.311L170.11 477.751L169.75 477.971Z" fill="#EFFFD6"/>
<path d="M162.122 473.39L169.752 477.97L170.112 477.75L173.642 475.31L168.262 472.08L165.152 470.21L108.272 436.44L103.922 438.84L162.122 473.39Z" fill="#EFFFD6"/>
</g>
<defs>
<clipPath id="clip0_287_67024">
<rect width="960" height="540" fill="white"/>
</clipPath>
</defs>
</svg>
