<svg width="960" height="540" viewBox="0 0 960 540" fill="none" xmlns="http://www.w3.org/2000/svg">
<g clip-path="url(#clip0_287_67508)">
<path d="M960.001 337.81L927.621 419.79L949.531 490.05H899.871L880.141 540H960.001V337.81Z" fill="#DDDEE1"/>
<path d="M847.19 447.57L848.72 444.05L807.28 311.15H893.75L900.2 331.82H960.01V200.82L953.21 217.8H909.61L908.61 220.3H905.76L884.38 273.69H801.27L913.67 17.53H955.4L955.84 16.53L956.5 15.03H959.08L960.01 12.92V0H847.52V90.04H749.81V51.35H657.85V110.37H598.83V51.35H657.85V0H452.74L471.97 34.92L447.72 80.33L507.5 77.81L543.44 76.3L546.18 141.38L412.11 147.02L402.59 164.84H322.32L401.23 33.55L379.68 0H295.79C300.63 6.44 304.39 11.52 306.93 16.13L307.97 18.03L295.36 27.54L295.46 27.58L293.04 29.41L307.13 34.61C305.72 40.74 303.27 47.37 300.3 55.44C275.14 123.67 232.41 144.56 188.38 128.32C183.02 126.35 178.23 124.11 173.9 121.67C173.78 121.8 173.67 121.93 173.56 122.06L170.73 125.21L170.69 125.1C167.37 128.46 163.62 131.76 159.36 134.97C145.29 145.59 129.74 151.36 113.49 151.35C99.44 151.35 84.94 147.04 70.51 138.1C56.07 129.15 41.68 115.59 27.66 97C22.49 90.14 18.17 84.43 14.93 78.77L13.84 76.86L29.02 65.41L14.37 60.01C15.52 54.6 17.96 47.96 21.2 39.18C26.9 23.69 33.59 10.68 41.02 0H0V183.95L126.38 210.91L112.21 277.34L112.32 277.38V277.44L130.64 284.13L103.4 358.81L0 321.09V540H33.7C34.37 514.05 35.17 477.72 34.46 477.01L103.12 439.19L96.67 435.36L92.91 433.13L165.32 393.25L307.89 469.39V540H371.02L398.36 534.3C398.36 534.3 398.34 534.27 398.33 534.26H398.35C395.53 530.38 392.92 526.24 390.54 521.81C383.83 509.33 379.87 496.59 378.78 483.94C376.53 457.89 386.48 433.63 407.53 413.78C415.83 405.96 425.75 398.92 437.01 392.86C447.82 387.05 458.82 382.82 469.69 380.28C497.79 373.73 523.49 378.85 544.02 395.08C554.01 402.98 562.47 413.3 569.18 425.78C575.8 438.1 579.71 450.73 580.78 463.31C581.78 475.03 580.32 486.39 576.51 497.14H576.54C576.54 497.14 576.53 497.17 576.52 497.18L659.11 479.98L651.67 448.33L716.19 490.39L688.08 540H807.16L847.16 447.57H847.19ZM364.77 351.29H285.88V319.53H218.84V364.16H174.21V319.53H218.84V205.36H333.01V272.4H364.77V351.29ZM531.55 310.21L494.72 337.47L469.68 305.06L444.63 337.47L407.43 310.21L431.74 278.9L396.01 267.11L410.74 225.12L446.1 236.91V201.92H492.88V236.91L528.61 225.12L543.34 267.11L507.24 278.9L531.55 310.21ZM763.62 365.21C757.31 400.56 749.08 423.03 748.48 424.63L747.63 426.92L679.98 403.57L621.48 423.76C620.92 422.27 612.7 399.93 606.46 364.77C602.53 342.62 599.35 315.5 599.35 285.12C599.35 254.74 602.53 227.58 606.46 205.47C612.74 170.31 620.92 147.97 621.48 146.48L679.99 166.67L747.64 143.33L748.49 145.61C749.09 147.21 757.36 169.69 763.63 205.04C767.58 227.31 770.78 254.57 770.78 285.12C770.78 315.67 767.58 342.97 763.63 365.21H763.62Z" fill="#DDDEE1"/>
<path d="M169.242 478.5L169.082 478.41L73.1016 540H271.562L169.242 478.5Z" fill="#DDDEE1"/>
<path d="M232.509 434.81L173.719 475.36L173.859 475.45L281.269 540H302.889V472.39L232.509 434.81Z" fill="#DDDEE1"/>
<path d="M83.8097 58.7202L83.7597 58.8202C87.4397 62.4502 90.8997 65.1103 94.1097 66.8703C97.7197 68.8603 100.97 69.7303 103.92 69.7303C105.62 69.7303 107.23 69.4402 108.81 68.8802C110.39 68.3202 111.93 67.4702 113.45 66.3202C115.65 64.6602 117.35 62.7502 118.75 60.5302C119.97 58.5902 120.94 56.3902 121.75 53.9302V53.9102L122.12 52.8302C122.31 52.2002 122.49 51.5502 122.66 50.9002C119.39 46.4302 115.59 43.1002 110.47 41.2102C100.23 37.4302 90.4597 41.8902 81.9297 56.7402C82.1397 56.9602 82.3497 57.2002 82.5597 57.4102L83.8197 58.7102L83.8097 58.7202Z" fill="#DDDEE1"/>
<path d="M955.019 336.82H904.359L926.709 408.48L955.019 336.82Z" fill="#DDDEE1"/>
<path d="M861.213 492.55L849.473 454.89L812.633 540H874.763L893.503 492.55H861.213Z" fill="#DDDEE1"/>
<path d="M699.461 173.43V173.47L699.381 173.66C699.321 173.83 699.231 174.08 699.121 174.4C698.901 175.05 698.581 176.01 698.191 177.25C697.401 179.74 696.301 183.37 695.041 188.02C692.531 197.31 689.391 210.63 686.841 226.86C686.771 227.33 686.651 228.02 686.531 228.71C686.481 228.99 686.441 229.27 686.391 229.54C688.771 245.72 690.551 264.53 690.551 285.12C690.551 305.19 688.861 323.55 686.571 339.45C686.591 339.76 686.611 340.09 686.631 340.43C686.691 341.44 686.751 342.52 686.801 343.09C686.811 343.25 686.831 343.37 686.831 343.38C691.571 373.57 698.361 393.7 699.341 396.51C699.401 396.69 699.441 396.8 699.451 396.81L700.391 399.22L691.541 402.28L744.611 420.59C746.911 413.94 753.461 393.62 758.691 364.33C762.601 342.34 765.761 315.32 765.761 285.12C765.761 254.92 762.601 227.94 758.691 205.91C753.491 176.62 746.911 156.3 744.611 149.65L691.541 167.96L700.391 171.01L699.451 173.42L699.461 173.43Z" fill="#DDDEE1"/>
<path d="M609.98 540H673.23L670.01 526.3L609.98 540Z" fill="#DDDEE1"/>
<path d="M210.773 54.0399C221.173 57.8799 231.073 53.2599 239.703 37.8299C239.523 37.6499 239.343 37.4599 239.173 37.2799C235.133 33.1899 231.333 30.2699 227.843 28.3899C224.353 26.5199 221.193 25.6899 218.313 25.6899C216.613 25.6899 215.003 25.9699 213.423 26.5399C211.853 27.0999 210.303 27.9499 208.793 29.0899C206.473 30.8399 204.713 32.8599 203.283 35.2399C202.023 37.3299 201.033 39.7299 200.213 42.4199V42.4399L199.873 43.5399C199.703 44.1499 199.543 44.7899 199.383 45.4299C202.483 49.3599 206.063 52.3099 210.773 54.0399Z" fill="#DDDEE1"/>
<path d="M116.457 70.3202C114.587 71.7302 112.587 72.8402 110.487 73.5902C108.387 74.3402 106.177 74.7302 103.917 74.7302C99.9572 74.7302 95.8572 73.5502 91.6872 71.2502C88.3272 69.4002 84.9072 66.8102 81.3872 63.4702C80.0072 66.3602 78.6572 69.5702 77.3472 73.1302L74.9972 72.2702L77.3472 73.1402C76.8772 74.4102 76.5272 75.8602 76.1572 77.4002C75.7872 78.9402 75.4072 80.5902 74.7972 82.2402L73.9272 84.5902L32.2472 69.2202L20.3672 78.1802C23.2572 82.8902 27.0572 87.9502 31.6272 94.0002C45.3572 112.21 59.3472 125.32 73.1172 133.86C86.8972 142.39 100.447 146.36 113.467 146.36C128.507 146.36 142.947 141.06 156.327 130.99C160.707 127.69 164.497 124.32 167.797 120.89C158.687 114.94 151.777 107.93 146.287 100.39C140.297 92.1602 135.977 83.3102 132.147 74.4502C129.547 68.8202 127.277 63.7802 124.967 59.4502C124.377 60.7502 123.727 62.0202 122.977 63.2102C121.287 65.9002 119.147 68.3002 116.457 70.3302V70.3202Z" fill="#DDDEE1"/>
<path d="M196.848 36.9598C197.468 35.4598 198.178 34.0198 198.998 32.6598C200.718 29.7898 202.948 27.2298 205.778 25.0998C209.508 22.2698 213.768 20.6898 218.308 20.6998C222.158 20.6998 226.148 21.8198 230.208 23.9998C233.498 25.7698 236.858 28.2498 240.308 31.4398C241.628 28.6398 242.928 25.5498 244.188 22.1298L248.558 10.2898L289.778 25.4898L301.458 16.6798C298.898 12.4498 295.078 7.36977 290.178 0.879766C289.958 0.589766 289.728 0.299766 289.508 0.00976562H178.648C182.838 6.65977 186.148 13.6798 189.088 20.8598C191.898 26.9898 194.338 32.4198 196.848 36.9698V36.9598Z" fill="#DDDEE1"/>
<path d="M165.36 398.95L102.98 433.3L108.2 436.4L170.86 401.88L165.36 398.95Z" fill="#DDDEE1"/>
<path d="M429.112 479.64C428.212 469.19 432.492 459.65 442.192 450.48C444.362 448.43 446.782 446.44 449.392 444.53C446.762 446.45 444.342 448.44 442.152 450.5C432.442 459.66 428.162 469.18 429.062 479.62C429.562 485.38 431.552 491.54 434.992 497.93C436.682 501.07 438.522 503.88 440.492 506.35C438.542 503.89 436.722 501.1 435.042 497.99C431.602 491.58 429.602 485.41 429.102 479.65L429.112 479.64Z" fill="#DDDEE1"/>
<path d="M333.173 319.54H333.023H290.883V319.92V346.29H359.773V277.41H333.613H333.173V319.54Z" fill="#DDDEE1"/>
<path d="M538.64 81.5098L466.68 84.5398L445.13 85.4398L414.98 141.9L540.96 136.6L539.55 103.22L538.64 81.5098Z" fill="#DDDEE1"/>
<path d="M685.55 285.12C685.55 269.52 684.51 254.95 682.97 241.78L682.51 238.68C680.77 252.65 679.57 268.29 679.57 285.12C679.57 301.95 680.75 317.36 682.47 331.26L683.25 326.01C684.64 313.49 685.55 299.76 685.55 285.12Z" fill="#DDDEE1"/>
<path d="M749.788 0H657.828V51.35H749.788V0Z" fill="white"/>
<path d="M960 15.0299V12.9199L959.07 15.0299H960Z" fill="white"/>
<path d="M953.202 217.8L960.002 200.82V91.9502L909.602 217.8H953.202Z" fill="white"/>
<path d="M666.952 513.24L659.122 480H659.142V479.98L576.552 497.18C571.882 510.35 563.692 522.61 552.122 533.54C549.762 535.77 547.272 537.91 544.672 539.99H610.002L670.032 526.29L666.962 513.24H666.952Z" fill="white"/>
<path d="M399.03 535.19C398.89 535.01 398.75 534.83 398.62 534.64C398.54 534.53 398.45 534.41 398.36 534.3L371.02 540H402.88C402.25 539.26 401.63 538.51 401.02 537.75C400.35 536.91 399.68 536.06 399.04 535.2L399.03 535.19Z" fill="white"/>
<path d="M651.688 448.33L659.128 479.99V480L678.008 476.04L688.838 522L670.018 526.3L666.948 513.24L670.008 526.3L673.227 540H688.097L716.217 490.39L651.688 448.33Z" fill="#F8F8F8"/>
<path d="M899.858 490.05L898.868 492.55H893.498L874.758 540H880.138L899.868 490.05H899.858Z" fill="white"/>
<path d="M847.19 447.57L807.18 540H812.63L849.47 454.89L847.19 447.57Z" fill="white"/>
<path d="M904.361 336.82H955.021L926.711 408.48L929.081 416.08L927.621 419.78V419.79L960.001 337.81V331.82H902.801L904.361 336.82Z" fill="white"/>
<path d="M763.619 205.04C757.349 169.69 749.079 147.21 748.479 145.61L747.629 143.33L679.979 166.67L680.049 166.7L683.959 165.35L691.549 167.97L744.619 149.66C746.919 156.3 753.499 176.63 758.699 205.92C762.609 227.95 765.769 254.93 765.769 285.13C765.769 315.33 762.609 342.35 758.699 364.34C753.469 393.62 746.909 413.95 744.619 420.6L691.549 402.29L683.959 404.91L680.049 403.56L679.969 403.59L747.619 426.94L748.469 424.65C749.069 423.04 757.299 400.57 763.609 365.23C767.569 343 770.759 315.69 770.759 285.14C770.759 254.59 767.559 227.32 763.609 205.05L763.619 205.04Z" fill="white"/>
<path d="M683.249 326.01L683.959 321.2L686.429 337.86C686.479 338.21 686.509 338.55 686.539 338.99C686.549 339.13 686.559 339.29 686.569 339.45C688.859 323.55 690.549 305.19 690.549 285.12C690.549 264.53 688.769 245.72 686.389 229.54C686.329 229.92 686.269 230.26 686.239 230.5L683.769 247.16L682.969 241.78C684.519 254.95 685.549 269.51 685.549 285.12C685.549 299.76 684.639 313.5 683.249 326.01Z" fill="white"/>
<path d="M124.23 287.12L111.26 282.39L110.6 285.49L0 262.09V315.77L100.42 352.4L124.23 287.12Z" fill="#DDDEE1"/>
<path d="M130.64 284.14L112.31 277.45L111.26 282.39L124.23 287.12L100.42 352.4L0 315.77V321.09L103.4 358.81L130.64 284.14Z" fill="white"/>
<path d="M528.598 225.13L492.878 236.92V201.92H446.098V236.92L410.738 225.13L396.008 267.12L431.738 278.9L407.428 310.21L444.628 337.47L469.668 305.05L494.718 337.47L531.548 310.21L507.238 278.9L543.338 267.12L528.598 225.13Z" fill="#F8F8F8"/>
<path d="M749.801 90.04H847.511V0H808.971V51.35H808.821H749.951V0H749.801V51.35V90.04Z" fill="#F8F8F8"/>
<path d="M803.969 0H754.949V46.35H803.969V0Z" fill="#F8F8F8"/>
<path d="M657.833 51.3501H598.812V110.37H657.833V51.3501Z" fill="#F8F8F8"/>
<path d="M333.022 272.41V205.37H218.852V319.54H285.882V272.41H333.022Z" fill="white"/>
<path d="M255.017 57.9499L254.917 58.0199L253.407 56.0199C252.347 54.6099 251.507 53.1499 250.707 51.7799C249.907 50.4099 249.157 49.1199 248.337 48.0399C245.347 44.0699 242.457 40.6799 239.687 37.8199C231.057 53.2499 221.157 57.8699 210.757 54.0299C206.047 52.2899 202.467 49.3399 199.367 45.4199C199.337 45.5399 199.307 45.6499 199.277 45.7699C198.907 47.3299 198.567 48.9699 198.257 50.6999C197.947 52.4299 197.657 54.2399 197.377 56.1299C197.237 57.0699 197.097 58.0399 196.957 59.0199C196.677 60.9799 196.397 63.0199 196.097 65.1399C195.157 73.2399 193.877 81.4399 191.477 89.5799C191.287 90.2399 191.077 90.8899 190.867 91.5499C190.607 92.3599 190.357 93.1699 190.077 93.9799C189.337 96.1099 188.497 98.2399 187.567 100.36C187.327 100.9 187.087 101.44 186.837 101.97C185.667 104.47 184.357 106.96 182.877 109.42C180.387 113.56 177.417 117.65 173.867 121.64C178.197 124.08 182.987 126.31 188.347 128.29C232.377 144.53 275.107 123.64 300.267 55.4099C303.237 47.3399 305.687 40.7099 307.097 34.5799L293.007 29.3799L255.047 57.9999L254.987 57.9299L255.017 57.9499Z" fill="white"/>
<path d="M14.3594 60L29.0094 65.4L30.2894 64.43L66.2894 37.28L66.3394 37.35L66.4394 37.28L74.0394 47.36C76.7594 50.96 79.3794 54.05 81.9194 56.73C90.4494 41.88 100.219 37.42 110.459 41.2C115.579 43.09 119.369 46.42 122.649 50.89C123.309 48.37 123.849 45.62 124.339 42.64C124.959 38.88 125.499 34.75 126.119 30.27C126.849 22.62 127.969 15 130.019 7.48998C130.579 5.42998 131.199 3.37998 131.919 1.32998C132.079 0.879981 132.239 0.42998 132.409 -0.0200195H41.0194C33.5794 10.66 26.8994 23.67 21.1894 39.15C17.9494 47.93 15.5094 54.56 14.3594 59.98V60Z" fill="white"/>
<path d="M955.398 17.5303H913.668L801.258 273.69H884.368L905.748 220.3H866.418L955.398 17.5303Z" fill="#F8F8F8"/>
<path d="M874.07 215.3H905.21L960 78.5003V20.0303H959.76L874.07 215.3Z" fill="#F8F8F8"/>
<path d="M473.191 518.82C462.571 520.35 453.891 518.38 446.821 512.76C444.581 510.98 442.461 508.83 440.481 506.34C438.501 503.87 436.661 501.06 434.981 497.92C431.541 491.53 429.551 485.37 429.051 479.61C428.151 469.17 432.431 459.65 442.141 450.49C444.321 448.43 446.751 446.44 449.381 444.52C452.871 441.97 456.721 439.54 460.931 437.27C467.821 433.56 474.641 430.91 481.181 429.38C494.141 426.36 504.471 428.08 512.761 434.64C517.311 438.24 521.351 443.3 524.771 449.68C528.121 455.91 530.061 461.96 530.551 467.65C531.451 478.17 527.171 487.75 517.461 496.93C512.571 501.55 506.601 505.78 499.701 509.49C493.291 512.94 487.031 515.5 481.041 517.16L576.501 497.12C580.311 486.37 581.771 475.01 580.771 463.29C579.691 450.71 575.791 438.08 569.171 425.76C562.461 413.28 554.001 402.96 544.011 395.06C523.481 378.83 497.771 373.71 469.681 380.26C458.811 382.8 447.811 387.03 437.001 392.84C425.731 398.9 415.811 405.94 407.521 413.76C386.471 433.61 376.531 457.88 378.771 483.92C379.861 496.57 383.821 509.31 390.531 521.79C392.911 526.22 395.521 530.36 398.341 534.23L473.181 518.79L473.191 518.82Z" fill="white"/>
<path d="M402.88 540C402.25 539.26 401.63 538.51 401.02 537.75C401.63 538.52 402.25 539.26 402.88 540Z" fill="white"/>
<path d="M398.617 534.65C398.757 534.83 398.897 535.01 399.027 535.2C398.887 535.02 398.747 534.84 398.617 534.65Z" fill="white"/>
<path d="M166.747 477.01L162.587 474.51L103.107 439.2L34.4475 477.02C35.1575 477.73 34.3475 514.06 33.6875 540.01H73.0875L169.068 478.42L166.738 477.02L166.747 477.01Z" fill="white"/>
<path d="M170.859 401.88L108.199 436.4L108.269 436.44L170.939 401.93L170.859 401.88Z" fill="white"/>
<path d="M173.72 475.36L232.51 434.81L170.94 401.93L108.27 436.44L165.15 470.21L168.26 472.08L173.72 475.36Z" fill="#F8F8F8"/>
<path d="M897.289 331.82H900.19L893.74 311.15H807.27L848.71 444.04L897.289 331.82Z" fill="white"/>
<path d="M899.859 490.05H899.869H949.529L927.619 419.79V419.78L899.859 490.05Z" fill="white"/>
<path d="M667.543 399.22L668.473 396.81L668.493 396.77L668.563 396.58C668.623 396.41 668.713 396.16 668.823 395.84C669.043 395.19 669.363 394.23 669.753 392.99C670.543 390.5 671.643 386.87 672.903 382.22C675.413 372.93 678.553 359.61 681.103 343.38C681.103 343.35 681.143 343.03 681.173 342.65C681.203 342.26 681.233 341.79 681.263 341.29C681.323 340.29 681.383 339.21 681.443 338.47C681.463 338.25 681.483 338.07 681.513 337.86L682.493 331.26C680.773 317.36 679.593 301.83 679.593 285.12C679.593 268.41 680.793 252.65 682.533 238.68L681.323 230.5C681.243 229.95 681.223 229.43 681.213 228.89C681.193 228.36 681.183 227.82 681.163 227.41C681.153 227.14 681.133 226.92 681.113 226.85C676.373 196.66 669.583 176.53 668.603 173.71C668.543 173.53 668.503 173.42 668.493 173.4L667.573 171L680.093 166.68L680.023 166.65L621.513 146.46C620.953 147.95 612.773 170.29 606.493 205.45C602.563 227.56 599.383 254.72 599.383 285.1C599.383 315.48 602.563 342.6 606.493 364.75C612.733 399.91 620.953 422.25 621.513 423.74L680.013 403.55L680.093 403.52L667.583 399.2L667.543 399.22Z" fill="white"/>
<path d="M112.21 277.34L126.38 210.91L0 183.95V236.35L110.28 276.64L112.21 277.34Z" fill="white"/>
<path d="M322.301 164.85H402.571L412.091 147.03L380.391 148.36L377.761 85.77L377.651 83.28L447.711 80.33L471.961 34.92L452.731 0H379.681L401.211 33.56L322.301 164.85Z" fill="white"/>
<path d="M333.173 319.54V277.41H290.883V319.54H333.023H333.173Z" fill="#F8F8F8"/>
<path d="M218.841 319.54H174.211V364.17H218.841V319.54Z" fill="#F8F8F8"/>
<path d="M208.79 29.09C210.31 27.95 211.85 27.1 213.42 26.54C215 25.98 216.61 25.69 218.31 25.69C221.19 25.69 224.35 26.52 227.84 28.39C231.33 30.26 235.13 33.19 239.17 37.28C239.35 37.46 239.52 37.65 239.7 37.83C242.47 40.69 245.36 44.08 248.35 48.05C249.17 49.13 249.92 50.42 250.72 51.79C251.52 53.16 252.36 54.62 253.42 56.03L254.93 58.03L255.03 57.96L253.58 56.04C252.52 54.63 251.68 53.17 250.88 51.8C250.08 50.43 249.33 49.14 248.51 48.06C245.32 43.83 242.25 40.25 239.31 37.28L238.03 35.99L238.86 34.38C239.34 33.44 239.83 32.46 240.3 31.45C236.85 28.26 233.49 25.78 230.2 24.01C226.15 21.83 222.16 20.71 218.3 20.71C213.77 20.71 209.51 22.28 205.77 25.11C202.93 27.25 200.71 29.8 198.99 32.67C198.17 34.03 197.47 35.47 196.84 36.97C197.72 38.57 198.62 40.06 199.54 41.43L200.2 42.42C201.02 39.73 202.01 37.34 203.27 35.24C204.7 32.86 206.46 30.84 208.78 29.09H208.79Z" fill="white"/>
<path d="M301.46 16.67L289.78 25.48L295.36 27.54L307.97 18.03L306.93 16.13C304.39 11.52 300.64 6.43 295.79 0H289.52C289.74 0.29 289.97 0.57 290.19 0.87C295.09 7.36 298.9 12.44 301.47 16.67H301.46Z" fill="white"/>
<path d="M199.869 43.5303C199.659 44.2603 199.469 45.0103 199.289 45.7803C199.319 45.6603 199.349 45.5503 199.379 45.4303C199.539 44.7903 199.699 44.1503 199.869 43.5403V43.5303Z" fill="white"/>
<path d="M167.81 120.87C164.51 124.3 160.72 127.67 156.34 130.97C142.96 141.05 128.53 146.34 113.48 146.34C100.46 146.34 86.9198 142.37 73.1298 133.84C59.3498 125.31 45.3698 112.19 31.6398 93.9803C27.0798 87.9303 23.2798 82.8803 20.3798 78.1603L32.2598 69.2003L26.7898 67.1803L66.3498 37.3503L66.2998 37.2803L30.2998 64.4303L29.0198 65.4003L13.8398 76.8503L14.9298 78.7603C18.1698 84.4303 22.4798 90.1303 27.6598 96.9903C41.6798 115.58 56.0698 129.14 70.5098 138.09C84.9398 147.03 99.4398 151.35 113.49 151.34C129.73 151.34 145.29 145.58 159.36 134.96C163.62 131.75 167.37 128.45 170.69 125.09L169.62 122.01C169.01 121.63 168.41 121.25 167.82 120.87H167.81Z" fill="white"/>
<path d="M122.117 52.8299C123.037 49.8099 123.727 46.4099 124.347 42.6499C123.857 45.6299 123.317 48.3799 122.657 50.8999C122.487 51.5599 122.307 52.2099 122.117 52.8299Z" fill="white"/>
<path d="M113.451 66.33C111.931 67.48 110.391 68.32 108.811 68.89C107.231 69.45 105.621 69.74 103.921 69.74C100.961 69.74 97.7106 68.87 94.1106 66.88C90.9006 65.11 87.4406 62.45 83.7606 58.83L82.9706 60.33C82.4406 61.33 81.9106 62.39 81.3906 63.48C84.9106 66.81 88.3406 69.4 91.6906 71.26C95.8606 73.56 99.9606 74.74 103.921 74.74C106.191 74.74 108.391 74.35 110.491 73.6C112.591 72.85 114.581 71.74 116.461 70.33C119.151 68.3 121.291 65.9 122.981 63.21C123.731 62.01 124.381 60.75 124.971 59.45C124.121 57.85 123.261 56.35 122.381 54.96L121.751 53.96C120.931 56.42 119.961 58.62 118.751 60.56C117.351 62.78 115.651 64.69 113.451 66.35V66.33Z" fill="white"/>
<path d="M196.112 65.1503C195.172 73.2503 193.892 81.4503 191.492 89.5903C193.892 81.4503 195.172 73.2603 196.112 65.1503Z" fill="white"/>
<path d="M130.039 7.50023C130.599 5.44023 131.219 3.39023 131.939 1.34023C131.219 3.38023 130.609 5.44023 130.039 7.50023Z" fill="white"/>
<path d="M132.427 20.18C132.057 22.52 131.737 24.88 131.467 27.25C131.337 28.44 131.208 29.63 131.098 30.83V30.88L131.087 30.93C129.907 39.39 129.008 46.78 127.188 53.23C130.487 58.67 133.337 65.1 136.697 72.35V72.38L136.727 72.41C140.497 81.15 144.677 89.65 150.337 97.43C155.667 104.74 162.288 111.42 171.208 117.13C178.038 109.13 182.407 100.85 185.367 92.35C188.527 83.29 190.057 73.97 191.137 64.54V64.51V64.48C192.037 58.15 192.767 52.39 193.837 47.18C194.017 46.31 194.208 45.46 194.408 44.62C194.518 44.15 194.648 43.7 194.768 43.24C191.138 37.57 188.118 30.71 184.518 22.9L184.497 22.85L184.477 22.8C181.197 14.75 177.497 7.07 172.667 0H137.768C137.378 1 136.997 2 136.647 3C134.687 8.6 133.357 14.33 132.427 20.18Z" fill="#F8F8F8"/>
<path d="M130.04 7.49977C127.99 15.0098 126.87 22.6298 126.14 30.2798C125.52 34.7498 124.98 38.8798 124.36 42.6498C123.74 46.4098 123.05 49.8098 122.13 52.8298L121.75 53.9198V53.9398L122.39 54.9398C123.27 56.3298 124.13 57.8398 124.98 59.4298C127.29 63.7498 129.56 68.7998 132.16 74.4298C135.99 83.2998 140.32 92.1498 146.3 100.37C151.79 107.91 158.69 114.91 167.81 120.87C168.4 121.26 169 121.64 169.61 122.01L170.68 125.09L170.72 125.2L173.55 122.05C173.67 121.92 173.78 121.79 173.89 121.66C177.44 117.67 180.41 113.58 182.9 109.44C184.38 106.98 185.69 104.49 186.86 101.99C187.11 101.45 187.35 100.91 187.59 100.38C188.52 98.2598 189.36 96.1298 190.1 93.9998C190.38 93.1898 190.63 92.3798 190.89 91.5698C191.1 90.9098 191.3 90.2598 191.5 89.5998C193.9 81.4598 195.18 73.2698 196.12 65.1598C196.42 63.0398 196.7 60.9998 196.98 59.0398C197.12 58.0598 197.26 57.0898 197.4 56.1498C197.68 54.2598 197.97 52.4498 198.28 50.7198C198.59 48.9898 198.92 47.3498 199.3 45.7898C199.48 45.0198 199.68 44.2698 199.88 43.5398L200.24 42.4398V42.4198L199.56 41.4298C198.64 40.0598 197.75 38.5698 196.86 36.9698C194.35 32.4198 191.91 26.9898 189.1 20.8598C186.17 13.6798 182.86 6.65977 178.66 0.00976562H172.69C177.51 7.07977 181.21 14.7598 184.5 22.8098L184.52 22.8598L184.54 22.9098C188.14 30.7198 191.16 37.5798 194.79 43.2498C194.67 43.7098 194.55 44.1598 194.43 44.6298C194.23 45.4698 194.04 46.3198 193.86 47.1898C192.79 52.3998 192.06 58.1498 191.16 64.4898V64.5198V64.5498C190.08 73.9698 188.54 83.2998 185.39 92.3598C182.43 100.86 178.06 109.14 171.23 117.14C162.31 111.44 155.68 104.75 150.36 97.4398C144.69 89.6598 140.52 81.1498 136.75 72.4198V72.3898L136.72 72.3598C133.36 65.1198 130.52 58.6798 127.21 53.2398C129.02 46.7898 129.93 39.3998 131.11 30.9398V30.8898L131.12 30.8398C131.23 29.6398 131.36 28.4498 131.49 27.2598C131.76 24.8898 132.07 22.5298 132.45 20.1898C133.39 14.3398 134.71 8.60977 136.67 3.00977C137.02 2.00977 137.4 1.00977 137.79 0.00976562H132.44C132.27 0.459766 132.11 0.909766 131.95 1.35977C131.23 3.39977 130.61 5.45977 130.05 7.51977L130.04 7.49977Z" fill="#DDDEE1"/>
<path d="M956.502 15.0303L955.842 16.5303L955.402 17.5303L866.422 220.3H905.752H908.602L909.602 217.8L960.002 91.9503V78.5003L905.212 215.3H874.072L959.762 20.0303H960.002V15.0303H959.072H956.502Z" fill="#DDDEE1"/>
<path d="M568.228 504L479.968 522.53C479.818 522.58 479.658 522.62 479.508 522.65C478.958 522.78 478.478 522.87 478.048 522.94C477.838 522.98 477.628 523.02 477.408 523.06L407.328 537.52C408.068 538.37 408.828 539.19 409.598 540H536.398C540.808 536.83 544.918 533.47 548.678 529.91C557.088 521.97 563.638 513.28 568.238 504H568.228Z" fill="#F8F8F8"/>
<path d="M576.54 497.19C576.54 497.19 576.55 497.16 576.56 497.14H576.53L481.07 517.18C480.32 517.39 479.57 517.59 478.83 517.77L476.45 518.27C475.34 518.49 474.27 518.67 473.2 518.82L398.36 534.26H398.34C398.34 534.26 398.36 534.29 398.37 534.3C398.45 534.42 398.54 534.53 398.63 534.64C398.77 534.82 398.91 535 399.04 535.19C399.69 536.05 400.35 536.9 401.02 537.74C401.63 538.5 402.25 539.25 402.88 539.99H409.59C408.82 539.18 408.06 538.35 407.32 537.51L477.4 523.05C477.61 523.01 477.82 522.97 478.04 522.93C478.47 522.85 478.96 522.76 479.5 522.64C479.65 522.6 479.81 522.56 479.96 522.52L568.22 503.99C563.62 513.28 557.07 521.96 548.66 529.9C544.89 533.46 540.79 536.82 536.38 539.99H544.64C547.24 537.91 549.74 535.76 552.09 533.54C563.66 522.62 571.85 510.35 576.52 497.18L576.54 497.19Z" fill="#DDDEE1"/>
<path d="M499.727 509.51C506.617 505.8 512.597 501.58 517.487 496.95C527.197 487.77 531.477 478.19 530.577 467.67C530.087 461.98 528.137 455.93 524.797 449.7C521.377 443.32 517.327 438.26 512.787 434.66C504.497 428.1 494.167 426.37 481.207 429.4C474.667 430.93 467.847 433.58 460.957 437.29C456.747 439.56 452.897 441.98 449.407 444.54C446.797 446.45 444.377 448.44 442.207 450.49C432.497 459.66 428.217 469.2 429.127 479.65C429.627 485.42 431.627 491.59 435.067 497.99C436.737 501.1 438.557 503.9 440.517 506.35C442.497 508.84 444.607 510.98 446.857 512.77C453.927 518.39 462.607 520.35 473.227 518.83C474.297 518.68 475.367 518.5 476.477 518.28L478.857 517.78C479.597 517.6 480.347 517.4 481.097 517.19C487.087 515.53 493.357 512.96 499.757 509.52L499.727 509.51Z" fill="#DDDEE1"/>
<path d="M666.947 513.24L670.017 526.3L688.837 522L678.007 476.04L659.127 480H659.117L666.947 513.24Z" fill="#F8F8F8"/>
<path d="M895.468 487.55L923.778 415.89L899.728 338.76L852.508 447.85L864.888 487.55H895.468Z" fill="#F8F8F8"/>
<path d="M929.08 416.08L926.71 408.48L904.36 336.81L902.8 331.81H897.29L848.71 444.04L847.18 447.56L849.46 454.88L861.2 492.54H898.86L899.85 490.04L927.61 419.77L929.07 416.07L929.08 416.08ZM852.51 447.85L899.73 338.76L923.78 415.88L895.47 487.55H864.89L852.51 447.85Z" fill="#DDDEE1"/>
<path d="M673.969 174.09C674.129 174.57 674.309 175.12 674.499 175.74C675.309 178.29 676.429 182 677.709 186.71C679.609 193.75 681.869 203.05 683.959 214.14C687.799 193.8 692.169 179.5 693.949 174.08L683.959 170.63L673.969 174.08V174.09Z" fill="#F8F8F8"/>
<path d="M693.949 396.15C693.789 395.67 693.609 395.12 693.419 394.49C692.609 391.94 691.489 388.23 690.209 383.51C688.309 376.47 686.049 367.17 683.959 356.08C680.119 376.42 675.749 390.72 673.969 396.14L683.959 399.59L693.949 396.14V396.15Z" fill="#F8F8F8"/>
<path d="M699.461 396.81C699.461 396.81 699.421 396.69 699.351 396.51C698.361 393.7 691.571 373.57 686.841 343.38C686.841 343.37 686.821 343.24 686.811 343.09C686.761 342.51 686.701 341.43 686.641 340.43C686.621 340.09 686.601 339.77 686.581 339.45C686.571 339.3 686.561 339.14 686.551 338.99C686.521 338.55 686.491 338.21 686.441 337.86L683.971 321.2L683.261 326.01L682.481 331.26L681.501 337.86C681.471 338.06 681.451 338.25 681.431 338.47C681.371 339.21 681.311 340.29 681.251 341.29C681.221 341.79 681.191 342.27 681.161 342.65C681.131 343.02 681.101 343.34 681.091 343.38C678.541 359.61 675.411 372.93 672.891 382.22C671.631 386.86 670.531 390.5 669.741 392.99C669.341 394.23 669.031 395.19 668.811 395.84C668.701 396.17 668.611 396.41 668.551 396.58L668.481 396.77L668.461 396.81L667.531 399.22L680.041 403.54L683.951 404.89L691.541 402.27L700.391 399.21L699.451 396.8L699.461 396.81ZM683.961 356.09C686.051 367.18 688.301 376.48 690.211 383.52C691.491 388.24 692.611 391.94 693.421 394.5C693.621 395.12 693.801 395.67 693.951 396.16L683.961 399.61L673.971 396.16C675.751 390.74 680.121 376.44 683.961 356.1V356.09Z" fill="#DDDEE1"/>
<path d="M668.469 173.42C668.469 173.42 668.519 173.55 668.579 173.73C669.569 176.54 676.359 196.67 681.089 226.87C681.099 226.94 681.119 227.16 681.139 227.43C681.159 227.84 681.169 228.38 681.189 228.91C681.209 229.45 681.229 229.96 681.299 230.52L682.509 238.7L682.969 241.8L683.769 247.18L686.239 230.52C686.279 230.28 686.329 229.94 686.389 229.56C686.429 229.3 686.479 229.02 686.529 228.73C686.649 228.04 686.759 227.35 686.839 226.87C689.389 210.64 692.519 197.32 695.039 188.03C696.299 183.39 697.399 179.75 698.189 177.26C698.589 176.02 698.899 175.06 699.119 174.41C699.229 174.08 699.319 173.84 699.379 173.67L699.449 173.48V173.44L700.409 171.03L691.559 167.98L683.969 165.36L680.059 166.71L667.539 171.03L668.459 173.43L668.469 173.42ZM683.959 214.14C681.869 203.05 679.619 193.75 677.709 186.71C676.429 181.99 675.309 178.29 674.499 175.74C674.299 175.12 674.119 174.57 673.969 174.09L683.959 170.64L693.949 174.09C692.169 179.51 687.799 193.81 683.959 214.15V214.14Z" fill="#DDDEE1"/>
<path d="M99.56 278.05L0 241.68V256.98L99.56 278.05Z" fill="#F8F8F8"/>
<path d="M111.26 282.39L112.31 277.45L112.32 277.39L112.21 277.34L110.28 276.64L0 236.35V241.68L99.56 278.05L0 256.98V262.09L110.6 285.49L111.26 282.39Z" fill="#DDDEE1"/>
<path d="M382.859 88.0599L385.179 143.15L414.979 141.9L445.129 85.4399L382.859 88.0599Z" fill="white"/>
<path d="M808.819 51.35H808.969V0H803.969V46.35H754.949V0H749.949V51.35H808.819Z" fill="#DDDEE1"/>
<path d="M248.879 23.8499C247.349 27.9999 245.749 31.6899 244.109 35.0299C246.839 37.9099 249.639 41.2299 252.499 45.0299C253.559 46.4399 254.399 47.8999 255.199 49.2699C255.529 49.8399 255.849 50.3899 256.179 50.9299L285.139 29.0899L251.529 16.6899L248.889 23.8399L248.879 23.8499Z" fill="#F8F8F8"/>
<path d="M248.559 10.2798L244.189 22.1198C242.929 25.5398 241.629 28.6198 240.309 31.4298C239.829 32.4398 239.349 33.4198 238.869 34.3598L238.039 35.9698L239.319 37.2598C242.259 40.2298 245.329 43.8098 248.519 48.0398C249.339 49.1198 250.089 50.4098 250.889 51.7798C251.689 53.1498 252.529 54.6098 253.589 56.0198L255.039 57.9398L255.099 58.0098L293.059 29.3898L295.479 27.5598L295.379 27.5198L289.799 25.4598L248.579 10.2598L248.559 10.2798ZM285.129 29.0998L256.169 50.9398C255.849 50.4098 255.519 49.8598 255.189 49.2798C254.389 47.9098 253.549 46.4498 252.489 45.0398C249.629 41.2398 246.829 37.9198 244.099 35.0398C245.749 31.6998 247.339 28.0098 248.869 23.8598L251.509 16.7098L285.119 29.1098L285.129 29.0998Z" fill="#DDDEE1"/>
<path d="M77.7272 59.57C75.2272 56.88 72.6772 53.85 70.0572 50.38L65.4672 44.29L37.1172 65.67L70.8472 78.11C71.0072 77.51 71.1572 76.88 71.3072 76.24C71.6772 74.7 72.0572 73.05 72.6672 71.4C74.2872 67 75.9772 63.08 77.7372 59.57H77.7272Z" fill="#F8F8F8"/>
<path d="M26.7891 67.19L32.2591 69.21L73.9391 84.58L74.8091 82.23C75.4191 80.57 75.7991 78.93 76.1691 77.39C76.5291 75.84 76.8791 74.4 77.3591 73.13L75.0091 72.26L77.3591 73.12C78.6691 69.57 80.0191 66.36 81.3991 63.46C81.9191 62.36 82.4491 61.31 82.9791 60.31L83.7691 58.81L83.8191 58.71L82.5591 57.41C82.3491 57.2 82.1391 56.96 81.9291 56.74C79.3891 54.05 76.7691 50.97 74.0491 47.37L66.4491 37.29L66.3491 37.36L26.7891 67.19ZM72.6591 71.4C72.0491 73.06 71.6691 74.7 71.2991 76.24C71.1491 76.88 70.9991 77.5 70.8391 78.11L37.1091 65.67L65.4591 44.29L70.0491 50.38C72.6691 53.85 75.2191 56.88 77.7191 59.57C75.9591 63.07 74.2691 67 72.6491 71.4H72.6591Z" fill="#DDDEE1"/>
<path d="M538.641 81.5098L539.551 103.22L538.641 81.5098Z" fill="#DDDEE1"/>
<path d="M377.758 85.7701L380.388 148.36L412.088 147.03L546.158 141.38L412.088 147.03L414.818 141.91L540.958 136.6L414.978 141.9L385.178 143.15L382.858 88.0601L445.128 85.4401L466.678 84.5401L444.968 85.4501L447.708 80.3301L507.488 77.8101L447.708 80.3301L377.648 83.2801L377.758 85.7701Z" fill="#DDDEE1"/>
<path d="M444.97 85.4498L466.68 84.5398L538.64 81.5098L539.55 103.22L540.96 136.6L414.82 141.91L412.09 147.03L546.16 141.38L543.43 76.2998L507.49 77.8098L447.71 80.3298L444.97 85.4498Z" fill="white"/>
<path d="M333.613 277.41H359.773V346.29H290.883V319.92H285.883V351.29H288.383H364.773V272.41H333.613V277.41Z" fill="white"/>
<path d="M290.883 319.54V277.41H333.173H333.613V272.41H333.023H285.883V319.54V319.92H290.883V319.54Z" fill="#DDDEE1"/>
<path d="M172.022 476.72L169.242 478.5L271.562 540H281.272L173.862 475.45L172.022 476.72Z" fill="white"/>
<path d="M165.32 393.26L92.9102 433.14L96.6702 435.37L103.12 439.2L162.59 474.51L166.75 477.01L162.58 474.5L103.14 439.21L108.22 436.41L165.15 470.21L168.26 472.08L165.15 470.21L108.27 436.44L108.2 436.4L102.98 433.3L165.36 398.95L170.86 401.88L170.94 401.93L232.51 434.81L302.89 472.39V540H307.89V469.39L165.32 393.26Z" fill="white"/>
<path d="M169.241 478.5L172.021 476.72L173.861 475.45L173.721 475.36L168.261 472.08L165.151 470.21L108.221 436.41L103.141 439.21L162.581 474.5L166.751 477.01L169.081 478.41L169.241 478.5Z" fill="#DDDEE1"/>
</g>
<defs>
<clipPath id="clip0_287_67508">
<rect width="960" height="540" fill="white"/>
</clipPath>
</defs>
</svg>
