<svg width="961" height="541" viewBox="0 0 961 541" fill="none" xmlns="http://www.w3.org/2000/svg">
<g clip-path="url(#clip0_287_73792)">
<path d="M41 172.48L41.79 170.65L50.21 151.19L51.01 149.36L59.43 129.9L60.22 128.07L68.64 108.61L69.44 106.77L77.86 87.32L78.65 85.48L87.08 66.03L87.87 64.19L96.29 44.74L97.09 42.9L105.51 23.45L106.3 21.61L114.72 2.15L115.52 0.32L115.65 0H0V175.69H39.61L41 172.48Z" fill="#EFFFD6"/>
<path d="M960 0H931.75V40.14H960V0Z" fill="#EFFFD6"/>
<path d="M886.82 215.89C819.47 186.66 794.37 143.4 794.37 84.26C794.37 51.7 803.06 23.2 820.06 0H758.18C757.95 41.63 757.77 76.43 757.77 76.43C677.7 38.75 543.47 76.43 543.47 76.43V0H260.25L256.49 9.52L255.76 11.38L247.97 31.1L247.24 32.96L239.45 52.68L238.72 54.54L230.93 74.26L230.2 76.12L222.41 95.84L221.68 97.7L213.89 117.42L213.16 119.28L205.37 139L204.64 140.86L196.85 160.58L196.12 162.44L188.33 182.16L187.6 184.02L179.81 203.74L179.08 205.6L172.13 223.2H143.36V257.33C191.39 258.88 226.43 267.92 226.45 267.92C226.45 267.87 226.45 267.87 226.45 267.92C226.42 270.83 225.44 453.49 225.44 453.49C156.48 421.04 40.88 453.49 40.88 453.49V313.69H0V539.84H89.19V486.31C180.44 461.98 274.73 486.31 274.76 486.31C274.76 486.26 274.76 486.26 274.76 486.31C274.75 487.33 274.62 510.34 274.46 539.84H327.72V437.87H370.65V340.63H638.25V478.67H595.31V539.83H725.27V452.06L674.17 507.37V287.67H648.14L646.49 283.31C637.13 258.52 620.97 237.35 599.78 222.1C578.14 206.53 552.73 198.3 526.28 198.3C499.83 198.3 474.42 206.53 452.79 222.1C431.6 237.35 415.45 258.51 406.08 283.31L404.43 287.67H310.98L312.88 279.42C318.76 253.87 329.01 229.57 342.92 207.7C335.64 205.82 328.7 203.46 322.2 200.55C311.67 195.91 302.37 189.96 294.47 182.49C277.55 166.35 267.4 144.35 267.4 113.28C267.4 82.21 277.93 58.7 295.31 42.25C302.92 34.99 312.04 29.14 322.19 24.49C341.08 15.81 364.3 11.68 388.36 11.68C412.42 11.68 434.42 15.71 452.84 23.99C463.27 28.63 472.67 34.69 480.47 42.25C496.21 57.39 505.98 79.2 507.44 106.17C513.68 105.62 519.96 105.35 526.27 105.35C551.63 105.35 576.49 109.79 600.16 118.53C623.02 126.98 644.26 139.25 663.29 155.01C667.02 158.1 670.64 161.31 674.15 164.63V112.67L859.42 306.85L838.69 329.29C842.41 329.22 846.1 329.19 849.74 329.2C850.46 329.2 851.19 329.2 851.91 329.2C859.72 329.24 867.32 329.43 874.69 329.75C875.4 329.78 876.11 329.81 876.82 329.85C881.55 330.07 886.17 330.34 890.69 330.64C892.78 330.78 894.86 330.93 896.9 331.09C897.68 331.15 898.46 331.21 899.23 331.28C899.93 331.34 900.63 331.4 901.33 331.45C909.1 332.11 916.48 332.88 923.39 333.71C924.08 333.79 924.77 333.88 925.45 333.96C933.36 334.93 940.63 335.98 947.17 337.02C947.86 337.13 948.53 337.24 949.2 337.35C953.07 337.98 956.66 338.6 959.96 339.2V307.71H886.78V215.86L886.82 215.89Z" fill="#EFFFD6"/>
<path d="M40.81 267.95C42.8 267.42 44.8 266.92 46.79 266.43C47.23 266.32 47.67 266.22 48.11 266.11C50.07 265.64 52.03 265.19 53.99 264.77C54.24 264.72 54.49 264.67 54.73 264.61C56.52 264.23 58.32 263.86 60.11 263.51C60.52 263.43 60.92 263.35 61.33 263.27C63.27 262.9 65.22 262.54 67.16 262.21C67.53 262.15 67.9 262.09 68.27 262.03C70.02 261.74 71.77 261.46 73.51 261.19C73.83 261.14 74.15 261.09 74.47 261.04C76.41 260.75 78.34 260.48 80.27 260.23C80.69 260.17 81.11 260.12 81.53 260.07C83.37 259.84 85.2 259.62 87.02 259.41C87.16 259.39 87.31 259.38 87.45 259.36C89.39 259.15 91.32 258.96 93.24 258.78C93.67 258.74 94.1 258.7 94.53 258.66C96.45 258.49 98.36 258.33 100.27 258.19C100.38 258.19 100.48 258.18 100.59 258.17C102.42 258.04 104.24 257.92 106.05 257.81C106.45 257.79 106.85 257.76 107.25 257.74C109.11 257.64 110.97 257.55 112.81 257.47C113.09 257.46 113.37 257.45 113.65 257.44C115.32 257.38 116.98 257.32 118.64 257.28C118.98 257.28 119.32 257.26 119.66 257.25C121.47 257.21 123.27 257.18 125.06 257.16C125.41 257.16 125.77 257.16 126.12 257.16C127.76 257.15 129.4 257.14 131.02 257.15C131.24 257.15 131.46 257.15 131.68 257.15C133.45 257.15 135.2 257.18 136.95 257.21C137.33 257.21 137.7 257.22 138.07 257.23C139.82 257.27 141.56 257.31 143.28 257.36V223.23H19.04L22.57 215.07L23.36 213.23L31.78 193.77L32.57 191.93L39.6 175.68H0V313.72H40.81V267.94V267.95Z" fill="#D3F1A7"/>
<path d="M931.75 54.1696V231.58C931.75 231.58 931.73 231.58 931.71 231.57C929.83 231.04 927.98 230.51 926.14 229.96C925.62 229.81 925.1 229.65 924.59 229.5C923.18 229.08 921.79 228.66 920.41 228.23C919.94 228.08 919.47 227.94 919.01 227.79C915.31 226.62 911.7 225.43 908.19 224.21C908 224.15 907.82 224.08 907.64 224.02C905.99 223.44 904.37 222.86 902.76 222.27C902.6 222.21 902.43 222.15 902.27 222.09C896.89 220.1 891.74 218.04 886.82 215.91V307.76H960V40.1396H931.75V54.1696Z" fill="#D3F1A7"/>
<path d="M663.31 155.05C644.28 139.3 623.04 127.02 600.18 118.57C576.51 109.82 551.66 105.39 526.29 105.39C519.98 105.39 513.7 105.67 507.46 106.21C507.46 106.21 507.46 106.22 507.46 106.23C507.52 107.31 507.56 108.39 507.59 109.48C507.59 109.61 507.59 109.75 507.6 109.88C507.63 111 507.65 112.12 507.65 113.26C507.65 113.28 507.65 113.3 507.65 113.32C507.65 142.64 498.48 164.96 482.78 181C482.27 181.52 481.76 182.03 481.24 182.53C473.25 190.3 463.66 196.45 452.85 201.2C440.18 206.75 425.83 210.34 410.28 212.05C403.21 212.82 395.89 213.21 388.37 213.21V213.11C386.54 213.11 384.73 213.08 382.92 213.04C382.42 213.03 381.91 213.01 381.41 212.99C380.02 212.95 378.64 212.89 377.27 212.82C376.81 212.8 376.36 212.77 375.9 212.75C372.21 212.53 368.57 212.22 365 211.8C364.85 211.78 364.69 211.76 364.54 211.74C362.83 211.54 361.14 211.31 359.46 211.06C359.31 211.04 359.17 211.02 359.02 211C353.49 210.17 348.12 209.09 342.93 207.75C329.02 229.63 318.77 253.92 312.89 279.47L310.99 287.72H404.44L406.09 283.36C415.46 258.57 431.61 237.4 452.8 222.15C474.44 206.58 499.85 198.35 526.29 198.35C552.73 198.35 578.15 206.58 599.79 222.15C620.98 237.4 637.13 258.56 646.5 283.36L648.15 287.72H674.18V164.67C670.67 161.35 667.05 158.14 663.32 155.05H663.31Z" fill="#B3DF72"/>
<path d="M389.28 155.05C405.93 141.27 424.28 130.15 443.92 121.92C446.73 120.75 449.56 119.63 452.42 118.57C470.2 112 488.64 107.86 507.47 106.21C506.01 79.2297 496.25 57.4297 480.5 42.2897C472.7 34.7197 463.3 28.6697 452.87 24.0297C434.45 15.7597 412.46 11.7197 388.39 11.7197C364.32 11.7197 341.12 15.8597 322.22 24.5297C312.07 29.1697 302.95 35.0197 295.34 42.2897C277.95 58.7397 267.43 82.2397 267.43 113.32C267.43 144.4 277.58 166.39 294.5 182.53C302.4 189.99 311.7 195.95 322.23 200.59C328.73 203.49 335.66 205.86 342.95 207.74C355.57 187.89 371.19 170.03 389.29 155.05H389.28Z" fill="#B3DF72"/>
<path d="M89.1895 486.34V540H274.459C274.459 540 274.459 539.92 274.459 539.88C274.619 510.38 274.749 487.36 274.759 486.35C274.729 486.35 180.439 462.02 89.1895 486.35V486.34Z" fill="#D3F1A7"/>
<path d="M40.8105 313.73V453.53C40.8105 453.53 156.411 421.08 225.371 453.53C225.371 453.53 226.351 270.86 226.381 267.96C226.361 267.96 191.321 258.91 143.291 257.37V313.74H40.8105V313.73Z" fill="#B3DF72"/>
<path d="M757.759 76.43C757.759 76.43 757.949 41.63 758.169 0H543.449V76.43C543.449 76.43 677.679 38.75 757.749 76.43H757.759Z" fill="#D3F1A7"/>
<path d="M359.029 210.99C359.179 211.01 359.319 211.03 359.469 211.05C361.149 211.3 362.849 211.53 364.549 211.73C364.699 211.75 364.859 211.77 365.009 211.79C368.589 212.21 372.219 212.52 375.909 212.74C376.359 212.77 376.819 212.79 377.279 212.81C378.649 212.88 380.029 212.94 381.419 212.98C381.919 213 382.419 213.01 382.929 213.03C384.739 213.08 386.549 213.1 388.379 213.1V213.2C395.899 213.2 403.219 212.82 410.289 212.04C425.839 210.34 440.199 206.74 452.859 201.19C463.669 196.45 473.259 190.29 481.249 182.52C481.769 182.02 482.279 181.5 482.789 180.99C498.489 164.95 507.659 142.63 507.659 113.31C507.659 113.29 507.659 113.27 507.659 113.25C507.659 112.12 507.639 110.99 507.609 109.87C507.609 109.74 507.609 109.6 507.599 109.47C507.569 108.38 507.519 107.29 507.469 106.22C507.469 106.22 507.469 106.21 507.469 106.2C488.639 107.85 470.189 111.99 452.419 118.56C449.559 119.62 446.729 120.73 443.919 121.91C424.279 130.14 405.939 141.25 389.279 155.04C371.179 170.02 355.559 187.88 342.939 207.73C348.129 209.07 353.499 210.15 359.029 210.98V210.99Z" fill="#EFFFD6"/>
<path d="M725.281 344.33C725.281 344.33 725.291 344.33 725.301 344.33C727.531 343.74 729.751 343.17 731.981 342.62C732.691 342.44 733.401 342.28 734.111 342.11C735.141 341.86 736.161 341.6 737.191 341.36C737.711 341.24 738.231 341.13 738.741 341.01C739.541 340.83 740.341 340.65 741.151 340.47C742.301 340.21 743.461 339.96 744.611 339.71C744.961 339.64 745.311 339.56 745.651 339.49C746.411 339.33 747.171 339.17 747.931 339.01C749.651 338.66 751.361 338.32 753.081 337.98C753.591 337.88 754.111 337.78 754.621 337.68C756.891 337.25 759.161 336.84 761.431 336.44C761.671 336.4 761.921 336.36 762.161 336.32C764.171 335.98 766.171 335.65 768.171 335.33C768.771 335.24 769.371 335.15 769.961 335.05C770.601 334.95 771.231 334.85 771.871 334.76C772.641 334.64 773.411 334.53 774.181 334.42C774.461 334.38 774.741 334.34 775.011 334.3C775.631 334.21 776.241 334.13 776.861 334.04C777.501 333.95 778.151 333.85 778.791 333.77C779.911 333.62 781.041 333.48 782.161 333.34C782.621 333.28 783.091 333.22 783.551 333.16C788.161 332.59 792.751 332.08 797.311 331.65C797.341 331.65 797.361 331.65 797.391 331.65C797.731 331.62 798.071 331.59 798.401 331.56C799.151 331.49 799.911 331.42 800.661 331.35C801.781 331.25 802.911 331.15 804.031 331.06C804.321 331.04 804.611 331.01 804.901 330.99C806.921 330.83 808.931 330.68 810.931 330.54C811.181 330.52 811.431 330.51 811.681 330.49C815.931 330.2 820.151 329.97 824.331 329.79C825.071 329.76 825.801 329.73 826.541 329.7C827.211 329.67 827.881 329.65 828.551 329.63C830.151 329.57 831.741 329.52 833.331 329.48C835.121 329.43 836.901 329.39 838.681 329.36L859.411 306.92L674.141 112.74V507.45L725.241 452.14V344.36L725.281 344.33ZM674.181 164.67C706.521 195.25 729.591 235.5 739.701 279.46L741.601 287.71H674.191V164.66L674.181 164.67Z" fill="#B3DF72"/>
<path d="M743.779 520.43L725.279 512.62V535.63L735.529 539.96L743.779 520.43Z" fill="#B3DF72"/>
<path d="M876.257 450.502L868.004 470.029L887.532 478.282L895.784 458.754L876.257 450.502Z" fill="#B3DF72"/>
<path d="M772.729 457.121L764.477 476.648L784.004 484.901L792.257 465.374L772.729 457.121Z" fill="#B3DF72"/>
<path d="M781.763 435.745L773.51 455.272L793.037 463.525L801.29 443.998L781.763 435.745Z" fill="#B3DF72"/>
<path d="M885.288 429.134L877.035 448.662L896.563 456.915L904.816 437.387L885.288 429.134Z" fill="#B3DF72"/>
<path d="M790.784 414.369L782.531 433.896L802.059 442.149L810.312 422.622L790.784 414.369Z" fill="#B3DF72"/>
<path d="M799.825 393.002L791.572 412.529L811.1 420.782L819.353 401.254L799.825 393.002Z" fill="#B3DF72"/>
<path d="M742.321 469.453L734.068 488.98L753.596 497.233L761.849 477.706L742.321 469.453Z" fill="#B3DF72"/>
<path d="M933.749 374.055L925.496 393.583L945.024 401.836L953.277 382.308L933.749 374.055Z" fill="#B3DF72"/>
<path d="M920.341 341.02L923.411 333.75C916.501 332.92 909.121 332.15 901.351 331.49L900.811 332.77L920.341 341.02Z" fill="#B3DF72"/>
<path d="M900.04 334.608L891.787 354.136L911.315 362.389L919.568 342.861L900.04 334.608Z" fill="#B3DF72"/>
<path d="M760.397 426.714L752.145 446.242L771.672 454.495L779.925 434.967L760.397 426.714Z" fill="#B3DF72"/>
<path d="M751.356 448.077L743.104 467.604L762.631 475.857L770.884 456.33L751.356 448.077Z" fill="#B3DF72"/>
<path d="M806.431 496.55L798.178 516.077L817.705 524.33L825.958 504.802L806.431 496.55Z" fill="#B3DF72"/>
<path d="M889.94 353.36L898.19 333.83L890.71 330.67C886.2 330.36 881.57 330.09 876.84 329.88L870.4 345.11L889.93 353.36H889.94Z" fill="#B3DF72"/>
<path d="M858.206 493.235L849.953 512.763L869.481 521.016L877.734 501.488L858.206 493.235Z" fill="#B3DF72"/>
<path d="M867.237 471.868L858.984 491.396L878.512 499.648L886.765 480.121L867.237 471.868Z" fill="#B3DF72"/>
<path d="M815.462 475.183L807.209 494.711L826.737 502.964L834.99 483.436L815.462 475.183Z" fill="#B3DF72"/>
<path d="M899.26 331.32C898.49 331.26 897.71 331.19 896.93 331.13L898.98 331.99L899.27 331.31L899.26 331.32Z" fill="#B3DF72"/>
<path d="M891.018 355.984L882.766 375.512L902.293 383.765L910.546 364.237L891.018 355.984Z" fill="#B3DF72"/>
<path d="M808.847 371.635L800.594 391.163L820.121 399.416L828.374 379.888L808.847 371.635Z" fill="#B3DF72"/>
<path d="M827.808 505.581L819.555 525.108L839.082 533.361L847.335 513.834L827.808 505.581Z" fill="#B3DF72"/>
<path d="M836.829 484.214L828.576 503.741L848.104 511.994L856.357 492.466L836.829 484.214Z" fill="#B3DF72"/>
<path d="M851.591 389.697L843.338 409.225L862.866 417.477L871.118 397.95L851.591 389.697Z" fill="#B3DF72"/>
<path d="M803.126 444.785L794.873 464.312L814.401 472.565L822.654 453.038L803.126 444.785Z" fill="#B3DF72"/>
<path d="M821.192 402.033L812.939 421.561L832.467 429.813L840.72 410.286L821.192 402.033Z" fill="#B3DF72"/>
<path d="M812.157 423.409L803.904 442.937L823.432 451.189L831.685 431.662L812.157 423.409Z" fill="#B3DF72"/>
<path d="M842.565 411.083L834.312 430.61L853.84 438.863L862.093 419.335L842.565 411.083Z" fill="#B3DF72"/>
<path d="M863.933 420.114L855.68 439.642L875.207 447.894L883.46 428.367L863.933 420.114Z" fill="#B3DF72"/>
<path d="M854.901 441.48L846.648 461.008L866.176 469.261L874.429 449.733L854.901 441.48Z" fill="#B3DF72"/>
<path d="M776.024 508.881L767.771 528.409L787.299 536.662L795.552 517.134L776.024 508.881Z" fill="#B3DF72"/>
<path d="M845.87 462.847L837.617 482.375L857.145 490.628L865.398 471.1L845.87 462.847Z" fill="#B3DF72"/>
<path d="M794.095 466.152L785.842 485.68L805.369 493.933L813.622 474.405L794.095 466.152Z" fill="#B3DF72"/>
<path d="M860.62 368.32L852.367 387.848L871.895 396.1L880.148 376.573L860.62 368.32Z" fill="#B3DF72"/>
<path d="M785.065 487.519L776.812 507.047L796.34 515.3L804.593 495.772L785.065 487.519Z" fill="#B3DF72"/>
<path d="M869.642 346.954L861.389 366.481L880.916 374.734L889.169 355.207L869.642 346.954Z" fill="#B3DF72"/>
<path d="M754.657 499.85L746.404 519.378L765.932 527.631L774.185 508.103L754.657 499.85Z" fill="#B3DF72"/>
<path d="M912.386 365.015L904.133 384.543L923.661 392.796L931.913 373.268L912.386 365.015Z" fill="#B3DF72"/>
<path d="M769.417 405.347L761.164 424.875L780.692 433.128L788.945 413.6L769.417 405.347Z" fill="#B3DF72"/>
<path d="M881.987 377.351L873.734 396.879L893.262 405.132L901.515 385.604L881.987 377.351Z" fill="#B3DF72"/>
<path d="M894.319 407.768L886.066 427.296L905.594 435.549L913.847 416.021L894.319 407.768Z" fill="#B3DF72"/>
<path d="M868.581 344.33L874.731 329.79C867.361 329.48 859.751 329.28 851.951 329.24L849.061 336.08L868.591 344.33H868.581Z" fill="#B3DF72"/>
<path d="M833.534 432.45L825.281 451.978L844.809 460.23L853.062 440.703L833.534 432.45Z" fill="#B3DF72"/>
<path d="M763.688 478.484L755.436 498.012L774.963 506.265L783.216 486.737L763.688 478.484Z" fill="#B3DF72"/>
<path d="M903.35 386.391L895.098 405.919L914.625 414.172L922.878 394.644L903.35 386.391Z" fill="#B3DF72"/>
<path d="M839.245 359.3L830.992 378.827L850.52 387.08L858.773 367.552L839.245 359.3Z" fill="#B3DF72"/>
<path d="M872.952 398.737L864.699 418.265L884.227 426.517L892.48 406.99L872.952 398.737Z" fill="#B3DF72"/>
<path d="M830.214 380.666L821.961 400.193L841.489 408.446L849.741 388.918L830.214 380.666Z" fill="#B3DF72"/>
<path d="M941.71 350.06L947.2 337.06C940.66 336.02 933.38 334.98 925.48 334L922.18 341.8L941.71 350.05V350.06Z" fill="#B3DF72"/>
<path d="M824.503 453.816L816.25 473.344L835.778 481.597L844.031 462.069L824.503 453.816Z" fill="#B3DF72"/>
<path d="M848.274 337.922L840.021 357.45L859.549 365.703L867.802 346.175L848.274 337.922Z" fill="#B3DF72"/>
<path d="M921.425 343.653L913.172 363.181L932.7 371.434L940.952 351.906L921.425 343.653Z" fill="#B3DF72"/>
<path d="M879.573 502.266L871.32 521.794L890.848 530.047L899.101 510.519L879.573 502.266Z" fill="#B3DF72"/>
<path d="M725.279 539.88V540H730.479L725.279 537.8V539.88Z" fill="#B3DF72"/>
<path d="M752.809 499.07L733.289 490.81L725.279 509.76V510.44L744.559 518.59L752.809 499.07Z" fill="#B3DF72"/>
<path d="M725.279 487.43V504.62L731.439 490.03L725.279 487.43Z" fill="#B3DF72"/>
<path d="M745.62 521.21L737.68 540H760.7L765.15 529.47L745.62 521.21Z" fill="#B3DF72"/>
<path d="M909.97 489.93L901.717 509.458L921.244 517.711L929.497 498.183L909.97 489.93Z" fill="#B3DF72"/>
<path d="M888.801 540H909.271L891.901 532.66L888.801 540Z" fill="#B3DF72"/>
<path d="M900.938 511.297L892.686 530.824L912.213 539.077L920.466 519.549L900.938 511.297Z" fill="#B3DF72"/>
<path d="M740.469 468.67L725.279 462.24V485.26L732.219 488.19L740.469 468.67Z" fill="#B3DF72"/>
<path d="M749.509 447.3L735.279 441.28L725.279 452.11V460.07L741.249 466.82L749.509 447.3Z" fill="#B3DF72"/>
<path d="M870.529 523.63L863.609 540H886.629L890.059 531.88L870.529 523.63Z" fill="#B3DF72"/>
<path d="M937.063 425.82L928.811 445.348L948.338 453.6L956.591 434.073L937.063 425.82Z" fill="#B3DF72"/>
<path d="M940.368 477.594L932.115 497.122L951.643 505.375L959.896 485.847L940.368 477.594Z" fill="#B3DF72"/>
<path d="M928.032 447.197L919.779 466.725L939.307 474.977L947.56 455.45L928.032 447.197Z" fill="#B3DF72"/>
<path d="M919.001 468.563L910.748 488.091L930.276 496.344L938.529 476.816L919.001 468.563Z" fill="#B3DF72"/>
<path d="M838.43 540H849.67L840.13 535.97L838.43 540Z" fill="#B3DF72"/>
<path d="M849.16 514.6L840.91 534.12L854.81 540H861.44L868.69 522.85L849.16 514.6Z" fill="#B3DF72"/>
<path d="M797.391 517.91L789.141 537.43L795.221 540H811.071L816.921 526.16L797.391 517.91Z" fill="#B3DF72"/>
<path d="M818.76 526.94L813.24 540H836.26L838.29 535.19L818.76 526.94Z" fill="#B3DF72"/>
<path d="M788.061 540H790.081L788.361 539.27L788.061 540Z" fill="#B3DF72"/>
<path d="M766.989 530.24L762.869 540H785.879L786.519 538.5L766.989 530.24Z" fill="#B3DF72"/>
<path d="M943.561 350.83L960.001 357.78V339.23C956.701 338.63 953.111 338.01 949.241 337.38L943.561 350.83Z" fill="#B3DF72"/>
<path d="M946.859 402.6L959.999 408.15V385.14L955.119 383.08L946.859 402.6Z" fill="#B3DF72"/>
<path d="M960.001 382.97V371.52L955.891 381.23L960.001 382.97Z" fill="#B3DF72"/>
<path d="M915.686 416.789L907.434 436.316L926.961 444.569L935.214 425.042L915.686 416.789Z" fill="#B3DF72"/>
<path d="M931.337 498.961L923.084 518.488L942.612 526.741L950.865 507.213L931.337 498.961Z" fill="#B3DF72"/>
<path d="M924.718 395.422L916.465 414.95L935.993 423.203L944.245 403.675L924.718 395.422Z" fill="#B3DF72"/>
<path d="M888.602 480.899L880.35 500.427L899.877 508.68L908.13 489.152L888.602 480.899Z" fill="#B3DF72"/>
<path d="M897.634 459.533L889.381 479.061L908.909 487.313L917.161 467.786L897.634 459.533Z" fill="#B3DF72"/>
<path d="M906.655 438.156L898.402 457.684L917.93 465.936L926.183 446.409L906.655 438.156Z" fill="#B3DF72"/>
<path d="M934.529 372.2L954.049 380.45L959.999 366.38V359.95L942.779 352.68L934.529 372.2Z" fill="#B3DF72"/>
<path d="M937.83 423.97L957.36 432.22L960 425.98V410.33L946.08 404.44L937.83 423.97Z" fill="#B3DF72"/>
<path d="M939.17 540H960V539.88V536.25L943.67 529.35L939.17 540Z" fill="#B3DF72"/>
<path d="M960 508.9V490.71L953.48 506.14L960 508.9Z" fill="#B3DF72"/>
<path d="M922.301 520.32L914.051 539.85L914.411 540H937.001L941.831 528.57L922.301 520.32Z" fill="#B3DF72"/>
<path d="M944.449 527.51L959.999 534.08V511.07L952.699 507.98L944.449 527.51Z" fill="#B3DF72"/>
<path d="M959.999 433.34V431.11L959.199 433L959.999 433.34Z" fill="#B3DF72"/>
<path d="M941.141 475.74L960.001 483.71V460.7L949.391 456.21L941.141 475.74Z" fill="#B3DF72"/>
<path d="M950.17 454.37L960 458.53V435.51L958.42 434.84L950.17 454.37Z" fill="#B3DF72"/>
<path d="M826.57 329.68C827.25 329.66 827.93 329.64 828.61 329.61H828.59C827.92 329.63 827.25 329.65 826.58 329.68H826.57Z" fill="#B3DF72"/>
<path d="M800.68 331.34C801.8 331.24 802.93 331.13 804.05 331.04C802.93 331.13 801.81 331.23 800.68 331.33V331.34Z" fill="#B3DF72"/>
<path d="M797.41 331.63C797.75 331.6 798.08 331.57 798.42 331.54C798.08 331.57 797.74 331.6 797.41 331.63Z" fill="#B3DF72"/>
<path d="M774.199 334.41C774.479 334.37 774.759 334.33 775.039 334.29C774.759 334.33 774.479 334.37 774.209 334.41H774.199Z" fill="#B3DF72"/>
<path d="M833.379 329.46C835.159 329.41 836.949 329.36 838.719 329.33C836.949 329.36 835.159 329.4 833.369 329.45H833.379V329.46Z" fill="#B3DF72"/>
<path d="M837.131 331.04L847.201 335.3L849.761 329.24C846.121 329.24 842.431 329.27 838.711 329.33L837.131 331.04Z" fill="#B3DF72"/>
<path d="M776.881 334.03C777.541 333.94 778.191 333.86 778.841 333.77H778.811C778.171 333.84 777.521 333.94 776.881 334.03Z" fill="#B3DF72"/>
<path d="M807.78 369.01L812.6 357.6L803.66 367.27L807.78 369.01Z" fill="#B3DF72"/>
<path d="M809.619 369.79L829.139 378.04L837.399 358.51L818.949 350.72L816.599 353.27L809.619 369.79Z" fill="#B3DF72"/>
<path d="M769.981 335.04C770.621 334.94 771.251 334.85 771.881 334.76C771.241 334.84 770.611 334.94 769.971 335.04H769.981Z" fill="#B3DF72"/>
<path d="M798.75 390.38L807 370.85L802.22 368.83L786.93 385.38L798.75 390.38Z" fill="#B3DF72"/>
<path d="M838.18 356.67L846.43 337.14L835.69 332.6L820.4 349.16L838.18 356.67Z" fill="#B3DF72"/>
<path d="M789.709 411.75L797.969 392.22L785.479 386.94L770.189 403.5L789.709 411.75Z" fill="#B3DF72"/>
<path d="M741.151 340.45C742.301 340.19 743.451 339.95 744.601 339.7C743.451 339.94 742.291 340.19 741.141 340.45H741.151Z" fill="#B3DF72"/>
<path d="M734.109 342.1C735.149 341.85 736.179 341.61 737.219 341.36H737.199C736.169 341.59 735.139 341.85 734.119 342.1H734.109Z" fill="#B3DF72"/>
<path d="M750.281 445.45L758.541 425.93L752.011 423.17L736.721 439.72L750.281 445.45Z" fill="#B3DF72"/>
<path d="M759.311 424.09L766.181 407.84L753.461 421.61L759.311 424.09Z" fill="#B3DF72"/>
<path d="M188.192 33.2008L179.939 52.7285L199.467 60.9814L207.72 41.4537L188.192 33.2008Z" fill="#B3DF72"/>
<path d="M213.65 92.1597L222.37 95.8496L230.16 76.1296L221.9 72.6396L213.65 92.1597Z" fill="#B3DF72"/>
<path d="M103.611 173.76L102.801 175.69H108.171L103.611 173.76Z" fill="#B3DF72"/>
<path d="M130.702 109.647L122.449 129.175L141.977 137.428L150.23 117.9L130.702 109.647Z" fill="#B3DF72"/>
<path d="M139.733 88.2799L131.48 107.808L151.008 116.06L159.261 96.5328L139.733 88.2799Z" fill="#B3DF72"/>
<path d="M121.671 131.023L113.418 150.551L132.946 158.804L141.198 139.276L121.671 131.023Z" fill="#B3DF72"/>
<path d="M174.869 0H174.359L174.789 0.18L174.869 0Z" fill="#B3DF72"/>
<path d="M143.29 188.35L145.28 189.2L153.54 169.67L134.01 161.42L127.98 175.69H143.29V188.35Z" fill="#B3DF72"/>
<path d="M132.171 160.64L112.641 152.39L104.391 171.92L113.311 175.69H125.811L132.171 160.64Z" fill="#B3DF72"/>
<path d="M179.163 54.5778L170.91 74.1055L190.438 82.3583L198.691 62.8306L179.163 54.5778Z" fill="#B3DF72"/>
<path d="M175.866 2.80727L167.613 22.335L187.141 30.5878L195.394 11.0601L175.866 2.80727Z" fill="#B3DF72"/>
<path d="M101.769 172.98L82.2394 164.73L77.6094 175.69H100.619L101.769 172.98Z" fill="#B3DF72"/>
<path d="M222.68 70.7895L230.9 74.2695L238.69 54.5395L230.93 51.2695L222.68 70.7895Z" fill="#B3DF72"/>
<path d="M91.2743 143.359L83.0215 162.887L102.549 171.14L110.802 151.612L91.2743 143.359Z" fill="#B3DF72"/>
<path d="M100.306 121.993L92.0527 141.521L111.58 149.773L119.833 130.246L100.306 121.993Z" fill="#B3DF72"/>
<path d="M196.161 9.22L200.061 0H177.041L176.631 0.96L196.161 9.22Z" fill="#B3DF72"/>
<path d="M148.765 66.9137L140.512 86.4414L160.039 94.6942L168.292 75.1666L148.765 66.9137Z" fill="#B3DF72"/>
<path d="M157.796 45.5465L149.543 65.0742L169.071 73.3271L177.323 53.7994L157.796 45.5465Z" fill="#B3DF72"/>
<path d="M231.711 49.4204L239.421 52.6804L247.211 32.9604L239.961 29.9004L231.711 49.4204Z" fill="#B3DF72"/>
<path d="M166.827 24.1803L158.574 43.708L178.102 51.9608L186.355 32.4332L166.827 24.1803Z" fill="#B3DF72"/>
<path d="M197.233 11.8385L188.98 31.3662L208.508 39.619L216.761 20.0913L197.233 11.8385Z" fill="#B3DF72"/>
<path d="M164.415 149.086L156.162 168.613L175.69 176.866L183.943 157.338L164.415 149.086Z" fill="#B3DF72"/>
<path d="M218.6 20.8688L210.348 40.3965L229.875 48.6493L238.128 29.1216L218.6 20.8688Z" fill="#B3DF72"/>
<path d="M209.569 42.236L201.316 61.7637L220.844 70.0165L229.097 50.4888L209.569 42.236Z" fill="#B3DF72"/>
<path d="M155.384 170.452L147.131 189.979L166.659 198.232L174.911 178.705L155.384 170.452Z" fill="#B3DF72"/>
<path d="M200.528 63.609L192.275 83.1367L211.803 91.3896L220.056 71.8619L200.528 63.609Z" fill="#B3DF72"/>
<path d="M173.446 127.709L165.193 147.236L184.721 155.489L192.974 135.961L173.446 127.709Z" fill="#B3DF72"/>
<path d="M191.497 84.9752L183.244 104.503L202.772 112.756L211.025 93.2281L191.497 84.9752Z" fill="#B3DF72"/>
<path d="M240.74 28.0603L247.95 31.1003L255.74 11.3803L248.99 8.53027L240.74 28.0603Z" fill="#B3DF72"/>
<path d="M182.468 106.342L174.215 125.87L193.743 134.123L201.995 114.595L182.468 106.342Z" fill="#B3DF72"/>
<path d="M256.47 9.52L260.23 0H252.6L249.77 6.69L256.47 9.52Z" fill="#B3DF72"/>
<path d="M161.1 97.3112L152.848 116.839L172.375 125.092L180.628 105.564L161.1 97.3112Z" fill="#B3DF72"/>
<path d="M170.132 75.944L161.879 95.4717L181.407 103.725L189.659 84.1968L170.132 75.944Z" fill="#B3DF72"/>
<path d="M157.619 219.6L165.879 200.07L146.349 191.82L143.289 199.06V213.54L157.619 219.6Z" fill="#B3DF72"/>
<path d="M250.429 0H233.949L247.929 5.91L250.429 0Z" fill="#B3DF72"/>
<path d="M144.509 191.04L143.289 190.53V193.93L144.509 191.04Z" fill="#B3DF72"/>
<path d="M238.899 27.28L247.149 7.75L228.809 0H227.409L219.369 19.02L238.899 27.28Z" fill="#B3DF72"/>
<path d="M217.53 18.25L225.24 0H202.23L198 9.99L217.53 18.25Z" fill="#B3DF72"/>
<path d="M143.038 140.054L134.785 159.582L154.313 167.835L162.566 148.307L143.038 140.054Z" fill="#B3DF72"/>
<path d="M152.069 118.677L143.816 138.205L163.344 146.458L171.597 126.93L152.069 118.677Z" fill="#B3DF72"/>
<path d="M80.3991 163.95L60.8691 155.7L52.6191 175.22L53.7091 175.69H75.4391L80.3991 163.95Z" fill="#B3DF72"/>
<path d="M115.052 27.485L106.799 47.0127L126.327 55.2655L134.579 35.7378L115.052 27.485Z" fill="#B3DF72"/>
<path d="M124.087 6.10902L115.834 25.6367L135.362 33.8896L143.615 14.3619L124.087 6.10902Z" fill="#B3DF72"/>
<path d="M195.59 134.9L205.32 139.01L213.11 119.29L203.84 115.37L195.59 134.9Z" fill="#B3DF72"/>
<path d="M68.0598 133.55L59.4298 129.9L51.0098 149.36L59.8098 153.08L68.0598 133.55Z" fill="#B3DF72"/>
<path d="M106.02 48.8512L97.7676 68.3789L117.295 76.6317L125.548 57.104L106.02 48.8512Z" fill="#B3DF72"/>
<path d="M59.0291 154.92L50.2091 151.19L41.7891 170.65L50.7791 174.44L59.0291 154.92Z" fill="#B3DF72"/>
<path d="M109.335 100.626L101.082 120.153L120.61 128.406L128.863 108.878L109.335 100.626Z" fill="#B3DF72"/>
<path d="M97.0009 70.2282L88.748 89.7559L108.276 98.0087L116.529 78.481L97.0009 70.2282Z" fill="#B3DF72"/>
<path d="M158.26 223.22H161.06L158.69 222.22L158.26 223.22Z" fill="#B3DF72"/>
<path d="M204.619 113.53L213.849 117.43L221.639 97.71L212.869 94L204.619 113.53Z" fill="#B3DF72"/>
<path d="M177.529 177.64L188.269 182.18L196.059 162.46L185.779 158.11L177.529 177.64Z" fill="#B3DF72"/>
<path d="M104.179 48.0702L96.2891 44.7402L87.8691 64.1902L95.9291 67.6002L104.179 48.0702Z" fill="#B3DF72"/>
<path d="M159.471 220.38L166.201 223.22H172.061L179.011 205.62L167.721 200.85L159.471 220.38Z" fill="#B3DF72"/>
<path d="M113.21 26.7002L105.51 23.4502L97.0898 42.9002L104.96 46.2302L113.21 26.7002Z" fill="#B3DF72"/>
<path d="M122.251 5.33039L114.721 2.15039L106.301 21.6104L113.991 24.8604L122.251 5.33039Z" fill="#B3DF72"/>
<path d="M95.1504 69.4403L87.0804 66.0303L78.6504 85.4803L86.9004 88.9703L95.1504 69.4403Z" fill="#B3DF72"/>
<path d="M86.1195 90.8103L77.8595 87.3203L69.4395 106.77L77.8695 110.34L86.1195 90.8103Z" fill="#B3DF72"/>
<path d="M78.9384 112.962L70.6855 132.489L90.2132 140.742L98.4661 121.214L78.9384 112.962Z" fill="#B3DF72"/>
<path d="M77.0907 112.18L68.6407 108.61L60.2207 128.07L68.8407 131.71L77.0907 112.18Z" fill="#B3DF72"/>
<path d="M168.5 199.01L179.74 203.76L187.53 184.04L176.75 179.48L168.5 199.01Z" fill="#B3DF72"/>
<path d="M186.561 156.27L196.791 160.6L204.591 140.87L194.811 136.74L186.561 156.27Z" fill="#B3DF72"/>
<path d="M87.9696 91.5954L79.7168 111.123L99.2445 119.376L107.497 99.8482L87.9696 91.5954Z" fill="#B3DF72"/>
<path d="M143.289 215.71V223.22H156.089L156.839 221.44L143.289 215.71Z" fill="#B3DF72"/>
<path d="M69.9071 134.329L61.6543 153.856L81.182 162.109L89.4348 142.582L69.9071 134.329Z" fill="#B3DF72"/>
<path d="M144.389 12.52L149.679 0H126.669L124.869 4.27L144.389 12.52Z" fill="#B3DF72"/>
<path d="M136.429 36.5153L128.176 56.043L147.703 64.2958L155.956 44.7681L136.429 36.5153Z" fill="#B3DF72"/>
<path d="M127.397 57.8825L119.145 77.4102L138.672 85.663L146.925 66.1353L127.397 57.8825Z" fill="#B3DF72"/>
<path d="M165.76 21.55L174.01 2.03L169.22 0H151.86L146.23 13.3L165.76 21.55Z" fill="#B3DF72"/>
<path d="M118.366 79.2487L110.113 98.7764L129.641 107.029L137.894 87.5015L118.366 79.2487Z" fill="#B3DF72"/>
<path d="M145.45 15.1491L137.197 34.6768L156.725 42.9296L164.978 23.4019L145.45 15.1491Z" fill="#B3DF72"/>
<path d="M123.02 3.49L124.5 0H115.65L115.52 0.32L123.02 3.49Z" fill="#B3DF72"/>
<path d="M22.5691 215.06L19.0391 223.22L22.5691 215.06Z" fill="#B3DF72"/>
<path d="M39.6101 175.69H48.5801L41.0001 172.48L39.6101 175.69L32.5801 191.94L39.6101 175.69Z" fill="#B3DF72"/>
<path d="M143.289 213.54V199.06V193.93V190.53V188.35V175.69H127.979H125.809H113.309H108.169H102.799H100.619H77.6091H75.4391H53.7091H52.4191H50.2491H48.5791H39.6091L32.5791 191.94L31.7791 193.77L23.3591 213.23L22.5691 215.06L19.0391 223.22H143.289V215.71V213.54Z" fill="#EFFFD6"/>
<path d="M886.819 215.89V40.14H931.759V231.58V0H820.059C803.059 23.2 794.369 51.7 794.369 84.26C794.369 143.41 819.479 186.66 886.819 215.89Z" fill="#B3DF72"/>
<path d="M902.27 222.07C896.89 220.08 891.74 218.02 886.82 215.89C891.74 218.03 896.89 220.09 902.27 222.07Z" fill="#B3DF72"/>
<path d="M595.32 437.91V478.72H638.26V340.68H370.66V437.91H595.32Z" fill="#D3F1A7"/>
<path d="M595.321 437.91V478.72H370.661V437.91H327.721V539.88V540H595.321V539.88V478.72V437.91Z" fill="#B3DF72"/>
<path d="M741.59 287.71L739.69 279.46C729.58 235.5 706.52 195.25 674.17 164.67V287.72H741.58L741.59 287.71Z" fill="#EFFFD6"/>
<path d="M595.33 437.91H370.66V478.71H595.33V437.91Z" fill="#EFFFD6"/>
<path d="M136.96 257.2C135.22 257.17 133.46 257.15 131.69 257.14C131.47 257.14 131.25 257.14 131.03 257.14C129.41 257.14 127.77 257.14 126.13 257.15C125.78 257.15 125.42 257.15 125.07 257.15C123.28 257.17 121.48 257.2 119.67 257.24C119.33 257.24 118.99 257.26 118.65 257.27C117 257.31 115.34 257.37 113.66 257.43C113.38 257.44 113.1 257.45 112.82 257.46C110.98 257.54 109.12 257.63 107.26 257.73C106.86 257.75 106.46 257.78 106.06 257.8C104.25 257.91 102.43 258.02 100.6 258.16C100.49 258.16 100.39 258.17 100.28 258.18C98.3803 258.32 96.4603 258.48 94.5403 258.65C94.1103 258.69 93.6803 258.73 93.2503 258.77C91.3303 258.95 89.4003 259.14 87.4603 259.35C87.3203 259.37 87.1703 259.38 87.0303 259.4C85.2103 259.6 83.3703 259.82 81.5403 260.06C81.1203 260.11 80.7003 260.17 80.2803 260.22C78.3503 260.47 76.4203 260.74 74.4803 261.03C74.1603 261.08 73.8403 261.13 73.5203 261.18C71.7803 261.44 70.0303 261.72 68.2803 262.02C67.9103 262.08 67.5403 262.14 67.1703 262.2C65.2303 262.53 63.2903 262.89 61.3403 263.26C60.9303 263.34 60.5303 263.42 60.1203 263.5C58.3303 263.85 56.5303 264.22 54.7403 264.6C54.4903 264.65 54.2403 264.7 54.0003 264.76C52.0403 265.19 50.0803 265.64 48.1203 266.1C47.6803 266.2 47.2403 266.31 46.8003 266.42C44.8103 266.91 42.8103 267.41 40.8203 267.94V313.72H143.3V257.35C141.58 257.29 139.84 257.25 138.09 257.22C137.72 257.22 137.34 257.2 136.97 257.2H136.96Z" fill="#EFFFD6"/>
<path d="M115.521 0.32L114.731 2.16L122.251 5.34L114.001 24.87L106.311 21.62L105.521 23.46L113.231 26.72L104.981 46.25L97.1008 42.92L96.3108 44.76L104.201 48.1L95.9508 67.63L87.8908 64.22L87.1008 66.06L95.1808 69.47L86.9308 89L78.6808 85.52L77.8908 87.36L86.1508 90.85L77.9008 110.38L69.4708 106.82L68.6808 108.66L77.1308 112.23L68.8808 131.76L60.2608 128.12L59.4708 129.96L68.1008 133.61L59.8508 153.14L51.0508 149.42L50.2608 151.26L59.0808 154.99L50.8308 174.52L41.8408 170.72L41.0508 172.56L48.6308 175.76H53.7708L52.6808 175.3L60.9308 155.77L80.4608 164.02L75.5008 175.76H77.6708L82.3008 164.8L101.831 173.05L100.691 175.76H102.861L103.671 173.83L108.231 175.76H113.371L104.451 171.99L112.701 152.46L132.231 160.71L125.871 175.75H128.041L134.071 161.48L153.601 169.73L145.351 189.26L143.351 188.42V190.59L144.571 191.11L143.351 194V199.14L146.411 191.9L165.941 200.15L157.691 219.68L143.351 213.62V215.79L156.911 221.52L156.161 223.3H158.331L158.751 222.3L161.121 223.3H166.261L159.531 220.45L167.781 200.92L179.071 205.69L179.801 203.83L168.551 199.08L176.801 179.55L187.591 184.11L188.321 182.25L177.581 177.71L185.831 158.18L196.111 162.52L196.841 160.66L186.601 156.33L194.851 136.8L204.631 140.93L205.361 139.07L195.631 134.96L203.881 115.43L213.151 119.35L213.881 117.49L204.651 113.59L212.901 94.06L221.661 97.76L222.391 95.9L213.671 92.21L221.921 72.68L230.181 76.17L230.911 74.31L222.691 70.84L230.941 51.31L238.691 54.59L239.421 52.73L231.711 49.47L239.961 29.94L247.211 33L247.941 31.14L240.741 28.1L248.991 8.57L255.731 11.42L256.461 9.56L249.761 6.73L252.591 0.04H250.421L247.921 5.95L233.941 0.04H228.801L247.141 7.79L238.891 27.32L219.361 19.07L227.411 0H225.241L217.531 18.25L198.001 10L202.221 0.01H200.051L196.161 9.23L176.631 0.96L177.041 0H174.871L174.791 0.18L174.351 0H169.211L174.011 2.03L165.761 21.56L146.231 13.31L151.851 0.01H149.681L144.391 12.53L124.861 4.28L126.661 0.01H124.491L123.011 3.5L115.501 0.33L115.521 0.32ZM115.061 27.48L134.591 35.73L126.341 55.26L106.811 47.01L115.061 27.48ZM198.691 62.83L190.441 82.36L170.911 74.11L179.161 54.58L198.691 62.83ZM179.941 52.73L188.191 33.2L207.721 41.45L199.471 60.98L179.941 52.73ZM140.511 86.44L148.761 66.91L168.291 75.16L160.041 94.69L140.511 86.44ZM159.261 96.53L151.011 116.06L131.481 107.81L139.731 88.28L159.261 96.53ZM138.671 85.66L119.141 77.41L127.391 57.88L146.921 66.13L138.671 85.66ZM137.891 87.5L129.641 107.03L110.111 98.78L118.361 79.25L137.891 87.5ZM128.861 108.87L120.611 128.4L101.081 120.15L109.331 100.62L128.861 108.87ZM130.701 109.65L150.231 117.9L141.981 137.43L122.451 129.18L130.701 109.65ZM152.071 118.68L171.601 126.93L163.351 146.46L143.821 138.21L152.071 118.68ZM152.851 116.84L161.101 97.31L180.631 105.56L172.381 125.09L152.851 116.84ZM161.881 95.47L170.131 75.94L189.661 84.19L181.411 103.72L161.881 95.47ZM169.071 73.32L149.541 65.07L157.791 45.54L177.321 53.79L169.071 73.32ZM147.701 64.29L128.171 56.04L136.421 36.51L155.951 44.76L147.701 64.29ZM106.031 48.85L125.561 57.1L117.311 76.63L97.7808 68.38L106.031 48.85ZM97.0008 70.22L116.531 78.47L108.281 98L88.7508 89.75L97.0008 70.22ZM87.9608 91.59L107.491 99.84L99.2408 119.37L79.7108 111.12L87.9608 91.59ZM78.9308 112.96L98.4608 121.21L90.2108 140.74L70.6808 132.49L78.9308 112.96ZM81.1808 162.11L61.6508 153.86L69.9008 134.33L89.4308 142.58L81.1808 162.11ZM102.551 171.14L83.0208 162.89L91.2708 143.36L110.801 151.61L102.551 171.14ZM111.581 149.77L92.0508 141.52L100.301 121.99L119.831 130.24L111.581 149.77ZM132.951 158.8L113.421 150.55L121.671 131.02L141.201 139.27L132.951 158.8ZM134.791 159.58L143.041 140.05L162.571 148.3L154.321 167.83L134.791 159.58ZM166.651 198.23L147.121 189.98L155.371 170.45L174.901 178.7L166.651 198.23ZM175.681 176.86L156.151 168.61L164.401 149.08L183.931 157.33L175.681 176.86ZM184.721 155.49L165.191 147.24L173.441 127.71L192.971 135.96L184.721 155.49ZM193.751 134.12L174.221 125.87L182.471 106.34L202.001 114.59L193.751 134.12ZM202.781 112.75L183.251 104.5L191.501 84.97L211.031 93.22L202.781 112.75ZM211.811 91.38L192.281 83.13L200.531 63.6L220.061 71.85L211.811 91.38ZM220.841 70.01L201.311 61.76L209.561 42.23L229.091 50.48L220.841 70.01ZM218.591 20.87L238.121 29.12L229.871 48.65L210.341 40.4L218.591 20.87ZM197.231 11.84L216.761 20.09L208.511 39.62L188.981 31.37L197.231 11.84ZM175.861 2.81L195.391 11.06L187.141 30.59L167.611 22.34L175.861 2.81ZM166.831 24.17L186.361 32.42L178.111 51.95L158.581 43.7L166.831 24.17ZM145.461 15.14L164.991 23.39L156.741 42.92L137.211 34.67L145.461 15.14ZM143.611 14.36L135.361 33.89L115.831 25.64L124.081 6.11L143.611 14.36Z" fill="#EFFFD6"/>
<path d="M949.24 337.38C948.57 337.27 947.89 337.16 947.21 337.05L941.72 350.05L922.19 341.8L925.49 334C924.81 333.92 924.12 333.83 923.43 333.75L920.36 341.02L900.83 332.77L901.37 331.49C900.67 331.43 899.97 331.37 899.27 331.32L898.98 332L896.93 331.14C894.89 330.98 892.81 330.83 890.72 330.69L898.2 333.85L889.95 353.38L870.42 345.13L876.86 329.9C876.15 329.87 875.44 329.84 874.73 329.8L868.58 344.34L849.05 336.09L851.94 329.25C851.22 329.25 850.49 329.25 849.77 329.25L847.21 335.31L837.14 331.05L835.7 332.61L846.44 337.15L838.19 356.68L820.41 349.17L818.97 350.73L837.41 358.52L829.16 378.05L809.63 369.8L816.61 353.28L812.61 357.61L807.79 369.02L803.68 367.28L802.24 368.84L807.02 370.86L798.77 390.39L786.95 385.4L785.51 386.96L797.99 392.24L789.74 411.77L770.22 403.52L766.22 407.86L759.35 424.11L753.49 421.63L752.05 423.19L758.57 425.95L750.32 445.48L736.76 439.75L735.32 441.31L749.55 447.32L741.3 466.85L725.33 460.1V462.27L740.53 468.69L732.28 488.22L725.34 485.29V487.46L731.5 490.07L725.34 504.66V509.8L733.35 490.85L752.88 499.1L744.63 518.63L725.35 510.48V512.65L743.85 520.47L735.6 540L725.35 535.67V537.84L730.55 540.04H737.75L745.69 521.25L765.22 529.5L760.77 540.03H762.94L767.06 530.27L786.59 538.52L785.95 540.02H788.12L788.43 539.29L790.15 540.02H795.29L789.21 537.45L797.46 517.92L816.99 526.17L811.14 540.01H813.31L818.83 526.95L838.36 535.2L836.33 540.01H838.5L840.2 535.98L849.74 540.01H854.88L840.98 534.13L849.23 514.6L868.76 522.85L861.51 540H863.68L870.6 523.63L890.13 531.88L886.7 540H888.87L891.97 532.66L909.34 540H914.48L914.12 539.85L922.37 520.32L941.9 528.57L937.07 540H939.24L943.74 529.35L960.07 536.25V534.08L944.52 527.51L952.77 507.98L960.07 511.06V508.89L953.55 506.13L960.07 490.7V483.7L941.21 475.73L949.46 456.2L960.07 460.68V458.51L950.24 454.36L958.49 434.83L960.07 435.5V433.33L959.27 432.99L960.07 431.1V425.96L957.43 432.21L937.9 423.96L946.15 404.43L960.07 410.31V408.14L946.93 402.59L955.18 383.06L960.06 385.12V382.95L955.95 381.21L960.06 371.49V366.35L954.11 380.42L934.58 372.17L942.83 352.64L960.05 359.92V357.75L943.61 350.8L949.29 337.35L949.24 337.38ZM900.04 334.61L919.57 342.86L911.32 362.39L891.79 354.14L900.04 334.61ZM764.46 476.63L772.71 457.1L792.24 465.35L783.99 484.88L764.46 476.63ZM783.21 486.73L774.96 506.26L755.43 498.01L763.68 478.48L783.21 486.73ZM854.89 441.46L874.42 449.71L866.17 469.24L846.64 460.99L854.89 441.46ZM844.79 460.21L825.26 451.96L833.51 432.43L853.04 440.68L844.79 460.21ZM883.44 428.34L875.19 447.87L855.66 439.62L863.91 420.09L883.44 428.34ZM864.69 418.25L872.94 398.72L892.47 406.97L884.22 426.5L864.69 418.25ZM876.25 450.49L895.78 458.74L887.53 478.27L868 470.02L876.25 450.49ZM877.03 448.65L885.28 429.12L904.81 437.37L896.56 456.9L877.03 448.65ZM886.06 427.28L894.31 407.75L913.84 416L905.59 435.53L886.06 427.28ZM893.25 405.13L873.72 396.88L881.97 377.35L901.5 385.6L893.25 405.13ZM871.88 396.1L852.35 387.85L860.6 368.32L880.13 376.57L871.88 396.1ZM871.1 397.94L862.85 417.47L843.32 409.22L851.57 389.69L871.1 397.94ZM862.07 419.31L853.82 438.84L834.29 430.59L842.54 411.06L862.07 419.31ZM832.45 429.81L812.92 421.56L821.17 402.03L840.7 410.28L832.45 429.81ZM831.67 431.65L823.42 451.18L803.89 442.93L812.14 423.4L831.67 431.65ZM822.64 453.02L814.39 472.55L794.86 464.3L803.11 444.77L822.64 453.02ZM793.02 463.52L773.49 455.27L781.74 435.74L801.27 443.99L793.02 463.52ZM794.09 466.14L813.62 474.39L805.37 493.92L785.84 485.67L794.09 466.14ZM815.45 475.17L834.98 483.42L826.73 502.95L807.2 494.7L815.45 475.17ZM816.23 473.32L824.48 453.79L844.01 462.04L835.76 481.57L816.23 473.32ZM845.85 462.83L865.38 471.08L857.13 490.61L837.6 482.36L845.85 462.83ZM867.22 471.86L886.75 480.11L878.5 499.64L858.97 491.39L867.22 471.86ZM888.59 480.89L908.12 489.14L899.87 508.67L880.34 500.42L888.59 480.89ZM889.37 479.05L897.62 459.52L917.15 467.77L908.9 487.3L889.37 479.05ZM918.99 468.55L938.52 476.8L930.27 496.33L910.74 488.08L918.99 468.55ZM917.93 465.93L898.4 457.68L906.65 438.15L926.18 446.4L917.93 465.93ZM907.43 436.31L915.68 416.78L935.21 425.03L926.96 444.56L907.43 436.31ZM914.62 414.16L895.09 405.91L903.34 386.38L922.87 394.63L914.62 414.16ZM904.13 384.54L912.38 365.01L931.91 373.26L923.66 392.79L904.13 384.54ZM891.01 355.98L910.54 364.23L902.29 383.76L882.76 375.51L891.01 355.98ZM869.64 346.95L889.17 355.2L880.92 374.73L861.39 366.48L869.64 346.95ZM848.27 337.92L867.8 346.17L859.55 365.7L840.02 357.45L848.27 337.92ZM839.24 359.29L858.77 367.54L850.52 387.07L830.99 378.82L839.24 359.29ZM830.21 380.66L849.74 388.91L841.49 408.44L821.96 400.19L830.21 380.66ZM808.84 371.63L828.37 379.88L820.12 399.41L800.59 391.16L808.84 371.63ZM799.81 393L819.34 401.25L811.09 420.78L791.56 412.53L799.81 393ZM790.78 414.37L810.31 422.62L802.06 442.15L782.53 433.9L790.78 414.37ZM769.41 405.34L788.94 413.59L780.69 433.12L761.16 424.87L769.41 405.34ZM760.38 426.71L779.91 434.96L771.66 454.49L752.13 446.24L760.38 426.71ZM751.35 448.07L770.88 456.32L762.63 475.85L743.1 467.6L751.35 448.07ZM734.06 488.97L742.31 469.44L761.84 477.69L753.59 497.22L734.06 488.97ZM765.93 527.62L746.4 519.37L754.65 499.84L774.18 508.09L765.93 527.62ZM787.3 536.65L767.77 528.4L776.02 508.87L795.55 517.12L787.3 536.65ZM796.33 515.28L776.8 507.03L785.05 487.5L804.58 495.75L796.33 515.28ZM817.7 524.32L798.17 516.07L806.42 496.54L825.95 504.79L817.7 524.32ZM839.07 533.35L819.54 525.1L827.79 505.57L847.32 513.82L839.07 533.35ZM848.1 511.98L828.57 503.73L836.82 484.2L856.35 492.45L848.1 511.98ZM869.47 521.01L849.94 512.76L858.19 493.23L877.72 501.48L869.47 521.01ZM890.84 530.04L871.31 521.79L879.56 502.26L899.09 510.51L890.84 530.04ZM912.21 539.07L892.68 530.82L900.93 511.29L920.46 519.54L912.21 539.07ZM921.24 517.7L901.71 509.45L909.96 489.92L929.49 498.17L921.24 517.7ZM942.61 526.73L923.08 518.48L931.33 498.95L950.86 507.2L942.61 526.73ZM959.89 485.83L951.64 505.36L932.11 497.11L940.36 477.58L959.89 485.83ZM939.3 474.96L919.77 466.71L928.02 447.18L947.55 455.43L939.3 474.96ZM956.58 434.07L948.33 453.6L928.8 445.35L937.05 425.82L956.58 434.07ZM935.99 423.19L916.46 414.94L924.71 395.41L944.24 403.66L935.99 423.19ZM953.27 382.3L945.02 401.83L925.49 393.58L933.74 374.05L953.27 382.3ZM932.68 371.42L913.15 363.17L921.4 343.64L940.93 351.89L932.68 371.42Z" fill="#EFFFD6"/>
<path d="M736.72 439.72L752.01 423.17L753.45 421.61L766.17 407.84L770.17 403.51L785.46 386.95L786.9 385.39L802.19 368.84L803.63 367.28L812.57 357.61L816.57 353.28L818.92 350.73L820.36 349.17L835.65 332.62L837.09 331.06L838.67 329.35C836.9 329.38 835.12 329.43 833.33 329.48C831.75 329.52 830.15 329.58 828.56 329.63C827.88 329.65 827.2 329.68 826.52 329.7C825.78 329.73 825.05 329.76 824.31 329.79C820.13 329.97 815.91 330.2 811.66 330.49C811.41 330.51 811.16 330.52 810.91 330.54C808.91 330.68 806.89 330.83 804.88 330.99C804.59 331.01 804.3 331.04 804.01 331.06C802.89 331.15 801.76 331.26 800.64 331.36C799.89 331.43 799.14 331.49 798.38 331.56C798.04 331.59 797.71 331.62 797.37 331.65C797.34 331.65 797.32 331.65 797.29 331.65C792.73 332.09 788.14 332.59 783.53 333.16C783.07 333.22 782.6 333.28 782.14 333.34C781.03 333.48 779.91 333.63 778.8 333.78C778.15 333.87 777.49 333.95 776.84 334.04C776.22 334.13 775.61 334.21 774.99 334.3C774.71 334.34 774.43 334.38 774.15 334.42C773.38 334.53 772.61 334.65 771.83 334.76C771.2 334.85 770.56 334.94 769.93 335.04C769.33 335.13 768.73 335.22 768.14 335.32C766.14 335.64 764.13 335.97 762.13 336.31C761.89 336.35 761.64 336.39 761.4 336.43C759.13 336.82 756.86 337.24 754.59 337.67C754.08 337.77 753.56 337.87 753.05 337.97C751.34 338.3 749.62 338.64 747.9 339C747.14 339.16 746.38 339.32 745.62 339.48C745.27 339.55 744.92 339.63 744.57 339.71C743.42 339.96 742.27 340.2 741.12 340.46C740.32 340.64 739.52 340.82 738.71 341C738.2 341.12 737.69 341.24 737.18 341.36C736.14 341.6 735.11 341.84 734.07 342.1C733.36 342.27 732.65 342.44 731.94 342.61C729.71 343.16 727.48 343.73 725.26 344.32C725.26 344.32 725.25 344.32 725.24 344.32V452.1L735.24 441.28L736.68 439.72H736.72Z" fill="#EFFFD6"/>
<path d="M931.751 116.48V40.1396H886.811V215.89C891.731 218.03 896.881 220.09 902.261 222.07C902.421 222.13 902.591 222.19 902.751 222.25C904.361 222.84 905.981 223.42 907.631 224C907.811 224.06 908.001 224.13 908.181 224.19C911.691 225.41 915.301 226.61 919.001 227.77C919.471 227.92 919.941 228.06 920.401 228.21C921.781 228.64 923.171 229.06 924.581 229.48C925.101 229.63 925.611 229.79 926.131 229.94C927.971 230.48 929.821 231.02 931.701 231.55C931.711 231.55 931.721 231.55 931.741 231.56V116.46L931.751 116.48Z" fill="#EFFFD6"/>
</g>
<defs>
<clipPath id="clip0_287_73792">
<rect width="960.07" height="540.04" fill="white"/>
</clipPath>
</defs>
</svg>
