<svg width="961" height="540" viewBox="0 0 961 540" fill="none" xmlns="http://www.w3.org/2000/svg">
<g clip-path="url(#clip0_287_74015)">
<path d="M960 0H931.75V40.14H960V0Z" fill="#DDDEE1"/>
<path d="M39.61 175.69L41 172.48L41.79 170.65L50.21 151.19L51.01 149.36L59.43 129.9L60.22 128.07L68.64 108.61L69.44 106.77L77.86 87.32L78.65 85.48L87.08 66.03L87.87 64.19L96.29 44.74L97.09 42.9L105.51 23.45L106.3 21.61L114.72 2.15L115.52 0.32L115.65 0H0V175.69H39.61Z" fill="#DDDEE1"/>
<path d="M327.72 437.91H370.65V340.67H638.25V478.71H595.31V539.87H725.27V452.1L674.17 507.41V287.71H648.14L646.49 283.35C637.13 258.56 620.97 237.39 599.78 222.14C578.14 206.57 552.73 198.34 526.28 198.34C499.83 198.34 474.42 206.57 452.79 222.14C431.6 237.39 415.45 258.55 406.08 283.35L404.43 287.71H310.98L312.88 279.46C318.76 253.91 329.01 229.61 342.92 207.74C335.64 205.86 328.7 203.5 322.2 200.59C311.67 195.95 302.37 190 294.47 182.53C277.55 166.39 267.4 144.39 267.4 113.32C267.4 82.25 277.93 58.74 295.31 42.29C302.92 35.03 312.04 29.18 322.19 24.53C341.08 15.85 364.3 11.72 388.36 11.72C412.42 11.72 434.42 15.75 452.84 24.03C463.27 28.67 472.67 34.73 480.47 42.29C496.21 57.43 505.98 79.24 507.44 106.21C513.68 105.66 519.96 105.39 526.27 105.39C551.63 105.39 576.49 109.83 600.16 118.57C623.02 127.02 644.26 139.29 663.29 155.05C667.02 158.14 670.64 161.35 674.15 164.67V112.71L859.42 306.89L838.69 329.33C842.41 329.26 846.1 329.23 849.74 329.24C850.46 329.24 851.19 329.24 851.91 329.24C859.72 329.28 867.32 329.47 874.69 329.79C875.4 329.82 876.11 329.85 876.82 329.89C881.55 330.11 886.17 330.38 890.69 330.68C892.78 330.82 894.86 330.97 896.9 331.13C897.68 331.19 898.46 331.25 899.23 331.32C899.93 331.38 900.63 331.44 901.33 331.49C909.1 332.15 916.48 332.92 923.39 333.75C924.08 333.83 924.77 333.92 925.45 334C933.36 334.97 940.63 336.02 947.17 337.06C947.86 337.17 948.53 337.28 949.2 337.39C953.07 338.02 956.66 338.64 959.96 339.24V307.75H886.78V215.9C819.43 186.67 794.33 143.41 794.33 84.27C794.33 51.71 803.02 23.21 820.02 0.01H758.14C757.91 41.64 757.73 76.44 757.73 76.44C677.66 38.76 543.43 76.44 543.43 76.44V0H260.21L256.45 9.52L255.72 11.38L247.93 31.1L247.2 32.96L239.41 52.68L238.68 54.54L230.89 74.26L230.16 76.12L222.37 95.84L221.64 97.7L213.85 117.42L213.12 119.28L205.33 139L204.6 140.86L196.81 160.58L196.08 162.44L188.29 182.16L187.56 184.02L179.77 203.74L179.04 205.6L172.09 223.2H143.32V257.33C191.35 258.88 226.39 267.92 226.41 267.92C226.41 267.87 226.41 267.87 226.41 267.92C226.38 270.83 225.4 453.49 225.4 453.49C156.44 421.04 40.84 453.49 40.84 453.49V313.69H0V539.84H89.19V486.31C180.44 461.98 274.73 486.31 274.76 486.31C274.76 486.26 274.76 486.26 274.76 486.31C274.75 487.33 274.62 510.34 274.46 539.84H327.72V437.87V437.91Z" fill="#DDDEE1"/>
<path d="M40.81 267.95C42.8 267.42 44.8 266.92 46.79 266.43C47.23 266.32 47.67 266.22 48.11 266.11C50.07 265.64 52.03 265.19 53.99 264.77C54.24 264.72 54.49 264.67 54.73 264.61C56.52 264.23 58.32 263.86 60.11 263.51C60.52 263.43 60.92 263.35 61.33 263.27C63.27 262.9 65.22 262.54 67.16 262.21C67.53 262.15 67.9 262.09 68.27 262.03C70.02 261.74 71.77 261.46 73.51 261.19C73.83 261.14 74.15 261.09 74.47 261.04C76.41 260.75 78.34 260.48 80.27 260.23C80.69 260.17 81.11 260.12 81.53 260.07C83.37 259.84 85.2 259.62 87.02 259.41C87.16 259.39 87.31 259.38 87.45 259.36C89.39 259.15 91.32 258.96 93.24 258.78C93.67 258.74 94.1 258.7 94.53 258.66C96.45 258.49 98.36 258.33 100.27 258.19C100.38 258.19 100.48 258.18 100.59 258.17C102.42 258.04 104.24 257.92 106.05 257.81C106.45 257.79 106.85 257.76 107.25 257.74C109.11 257.64 110.97 257.55 112.81 257.47C113.09 257.46 113.37 257.45 113.65 257.44C115.32 257.38 116.98 257.32 118.64 257.28C118.98 257.28 119.32 257.26 119.66 257.25C121.47 257.21 123.27 257.18 125.06 257.16C125.41 257.16 125.77 257.16 126.12 257.16C127.76 257.15 129.4 257.14 131.02 257.15C131.24 257.15 131.46 257.15 131.68 257.15C133.45 257.15 135.2 257.18 136.95 257.21C137.33 257.21 137.7 257.22 138.07 257.23C139.82 257.27 141.56 257.31 143.28 257.36V223.23H19.04L22.57 215.07L23.36 213.23L31.78 193.77L32.57 191.93L39.6 175.68H0V313.72H40.81V267.94V267.95Z" fill="#F0F1F2"/>
<path d="M931.75 54.1696V231.58C931.75 231.58 931.73 231.58 931.71 231.57C929.83 231.04 927.98 230.51 926.14 229.96C925.62 229.81 925.1 229.65 924.59 229.5C923.18 229.08 921.79 228.66 920.41 228.23C919.94 228.08 919.47 227.94 919.01 227.79C915.31 226.63 911.7 225.43 908.19 224.21C908 224.15 907.82 224.08 907.64 224.02C905.99 223.44 904.37 222.86 902.76 222.27C902.6 222.21 902.43 222.15 902.27 222.09C896.89 220.1 891.74 218.04 886.82 215.91V307.76H960V40.1396H931.75V54.1696Z" fill="#F0F1F2"/>
<path d="M663.31 155.05C644.28 139.3 623.04 127.02 600.18 118.57C576.51 109.82 551.66 105.39 526.29 105.39C519.98 105.39 513.7 105.67 507.46 106.21C507.46 106.21 507.46 106.22 507.46 106.23C507.52 107.31 507.56 108.39 507.59 109.48C507.59 109.61 507.59 109.75 507.6 109.88C507.63 111 507.65 112.12 507.65 113.26C507.65 113.28 507.65 113.3 507.65 113.32C507.65 142.64 498.48 164.96 482.78 181C482.27 181.52 481.76 182.03 481.24 182.53C473.25 190.3 463.66 196.45 452.85 201.2C440.18 206.75 425.83 210.34 410.28 212.05C403.21 212.82 395.89 213.21 388.37 213.21V213.11C386.54 213.11 384.73 213.08 382.92 213.04C382.42 213.03 381.91 213.01 381.41 212.99C380.02 212.95 378.64 212.89 377.27 212.82C376.81 212.8 376.36 212.77 375.9 212.75C372.21 212.53 368.57 212.22 365 211.8C364.85 211.78 364.69 211.76 364.54 211.74C362.83 211.54 361.14 211.31 359.46 211.06C359.31 211.04 359.17 211.02 359.02 211C353.49 210.17 348.12 209.09 342.93 207.75C329.02 229.63 318.77 253.92 312.89 279.47L310.99 287.72H404.44L406.09 283.36C415.46 258.57 431.61 237.4 452.8 222.15C474.44 206.58 499.85 198.35 526.29 198.35C552.73 198.35 578.15 206.58 599.79 222.15C620.98 237.4 637.13 258.56 646.5 283.36L648.15 287.72H674.18V164.67C670.67 161.35 667.05 158.14 663.32 155.05H663.31Z" fill="#F0F1F2"/>
<path d="M364.551 211.73C362.841 211.53 361.151 211.3 359.471 211.05C361.151 211.3 362.851 211.53 364.551 211.73Z" fill="#F0F1F2"/>
<path d="M375.92 212.73C372.23 212.51 368.59 212.2 365.02 211.78C368.6 212.19 372.23 212.51 375.92 212.73Z" fill="#F0F1F2"/>
<path d="M507.609 109.88C507.639 111 507.659 112.12 507.659 113.26C507.659 112.13 507.639 111 507.609 109.88Z" fill="#F0F1F2"/>
<path d="M388.389 213.1C386.559 213.1 384.749 213.07 382.939 213.03C384.749 213.08 386.559 213.1 388.389 213.1Z" fill="#F0F1F2"/>
<path d="M389.28 155.05C405.93 141.27 424.28 130.15 443.92 121.92C446.73 120.75 449.56 119.63 452.42 118.57C470.2 112 488.64 107.86 507.47 106.21C506.01 79.2297 496.25 57.4297 480.5 42.2897C472.7 34.7197 463.3 28.6697 452.87 24.0297C434.45 15.7597 412.46 11.7197 388.39 11.7197C364.32 11.7197 341.12 15.8597 322.22 24.5297C312.07 29.1697 302.95 35.0197 295.34 42.2897C277.95 58.7397 267.43 82.2397 267.43 113.32C267.43 144.4 277.58 166.39 294.5 182.53C302.4 189.99 311.7 195.95 322.23 200.59C328.73 203.49 335.66 205.86 342.95 207.74C355.57 187.89 371.19 170.03 389.29 155.05H389.28Z" fill="#F0F1F2"/>
<path d="M507.461 106.23C507.521 107.31 507.561 108.39 507.591 109.48C507.561 108.39 507.511 107.3 507.461 106.23Z" fill="#F0F1F2"/>
<path d="M89.1895 486.34V540H274.459C274.459 540 274.459 539.92 274.459 539.88C274.619 510.38 274.749 487.36 274.759 486.35C274.729 486.35 180.439 462.02 89.1895 486.35V486.34Z" fill="#F0F1F2"/>
<path d="M118.64 257.28C116.99 257.32 115.33 257.38 113.65 257.44C115.32 257.38 116.98 257.32 118.64 257.28Z" fill="#F0F1F2"/>
<path d="M94.5293 258.66C96.4493 258.49 98.3593 258.33 100.269 258.19C98.3693 258.33 96.4493 258.49 94.5293 258.66Z" fill="#F0F1F2"/>
<path d="M100.59 258.17C102.42 258.04 104.24 257.92 106.05 257.81C104.24 257.92 102.42 258.03 100.59 258.17Z" fill="#F0F1F2"/>
<path d="M138.081 257.22C139.831 257.26 141.571 257.3 143.291 257.35V313.72H40.8105V453.52C40.8105 453.52 156.411 421.07 225.371 453.52C225.371 453.52 226.351 270.85 226.381 267.95C226.361 267.95 191.321 258.9 143.291 257.36C141.571 257.3 139.831 257.26 138.081 257.23V257.22Z" fill="#F0F1F2"/>
<path d="M81.5195 260.07C83.3595 259.84 85.1895 259.62 87.0095 259.41C85.1895 259.61 83.3495 259.83 81.5195 260.07Z" fill="#F0F1F2"/>
<path d="M61.3301 263.27C63.2701 262.9 65.2201 262.54 67.1601 262.21C65.2201 262.54 63.2801 262.9 61.3301 263.27Z" fill="#F0F1F2"/>
<path d="M131.689 257.14C133.459 257.14 135.209 257.17 136.959 257.2C135.219 257.17 133.459 257.15 131.689 257.14Z" fill="#F0F1F2"/>
<path d="M48.1094 266.11C50.0694 265.64 52.0294 265.19 53.9894 264.77C52.0294 265.2 50.0694 265.65 48.1094 266.11Z" fill="#F0F1F2"/>
<path d="M131.031 257.14C129.411 257.14 127.771 257.14 126.131 257.15C127.771 257.14 129.411 257.13 131.031 257.14Z" fill="#F0F1F2"/>
<path d="M68.2598 262.03C70.0098 261.74 71.7598 261.46 73.4998 261.19C71.7598 261.45 70.0098 261.73 68.2598 262.03Z" fill="#F0F1F2"/>
<path d="M757.759 76.43C757.759 76.43 757.949 41.63 758.169 0H543.449V76.43C543.449 76.43 677.679 38.75 757.749 76.43H757.759Z" fill="#F0F1F2"/>
<path d="M359.029 210.99C359.179 211.01 359.319 211.03 359.469 211.05C361.149 211.3 362.849 211.52 364.549 211.73C364.699 211.75 364.859 211.77 365.009 211.79C368.589 212.21 372.219 212.52 375.909 212.74C376.359 212.77 376.819 212.79 377.279 212.81C378.649 212.88 380.029 212.94 381.419 212.98C381.919 213 382.419 213.01 382.929 213.03C384.739 213.08 386.549 213.1 388.379 213.1V213.2C395.899 213.2 403.219 212.82 410.289 212.04C425.839 210.34 440.199 206.74 452.859 201.19C463.669 196.45 473.259 190.29 481.249 182.52C481.769 182.02 482.279 181.5 482.789 180.99C498.489 164.95 507.659 142.63 507.659 113.31C507.659 113.29 507.659 113.27 507.659 113.25C507.659 112.12 507.639 110.99 507.609 109.87C507.609 109.74 507.609 109.6 507.599 109.47C507.569 108.38 507.519 107.29 507.469 106.22C507.469 106.22 507.469 106.21 507.469 106.2C488.639 107.85 470.189 111.99 452.419 118.56C449.559 119.62 446.729 120.73 443.919 121.91C424.279 130.14 405.939 141.25 389.279 155.04C371.179 170.02 355.559 187.88 342.939 207.73C348.129 209.07 353.499 210.15 359.029 210.98V210.99Z" fill="#DDDEE1"/>
<path d="M725.281 452.11V344.33C725.281 344.33 725.291 344.33 725.301 344.33C727.531 343.74 729.751 343.17 731.981 342.62C732.691 342.44 733.401 342.28 734.111 342.11C735.141 341.86 736.161 341.6 737.191 341.36C737.711 341.24 738.231 341.13 738.741 341.01C739.541 340.83 740.341 340.65 741.151 340.47C742.301 340.21 743.461 339.96 744.611 339.71C744.961 339.64 745.311 339.56 745.651 339.49C746.411 339.33 747.171 339.17 747.931 339.01C749.651 338.66 751.361 338.32 753.081 337.98C753.591 337.88 754.111 337.78 754.621 337.68C756.891 337.25 759.161 336.84 761.431 336.44C761.671 336.4 761.921 336.36 762.161 336.32C764.171 335.98 766.171 335.65 768.171 335.33C768.771 335.24 769.371 335.15 769.961 335.05C770.601 334.95 771.231 334.85 771.871 334.76C772.641 334.64 773.411 334.53 774.181 334.42C774.461 334.38 774.741 334.34 775.011 334.3C775.631 334.21 776.241 334.13 776.861 334.04C777.501 333.95 778.151 333.85 778.791 333.77C779.911 333.62 781.041 333.48 782.161 333.34C782.621 333.28 783.091 333.22 783.551 333.16C788.161 332.59 792.751 332.09 797.311 331.65C797.341 331.65 797.361 331.65 797.391 331.65C797.731 331.62 798.071 331.59 798.401 331.56C799.151 331.49 799.911 331.42 800.661 331.35C801.781 331.25 802.911 331.15 804.031 331.06C804.321 331.04 804.611 331.01 804.901 330.99C806.921 330.83 808.931 330.68 810.931 330.54C811.181 330.52 811.431 330.51 811.681 330.49C815.931 330.2 820.151 329.97 824.331 329.79C825.071 329.76 825.801 329.73 826.541 329.7C827.211 329.67 827.881 329.65 828.551 329.63C830.151 329.57 831.741 329.52 833.331 329.48C835.121 329.43 836.911 329.39 838.681 329.36L859.411 306.92L674.141 112.74V507.45L725.241 452.14L725.281 452.11ZM674.181 164.67C706.521 195.25 729.591 235.5 739.701 279.46L741.601 287.71H674.191V164.66L674.181 164.67Z" fill="#F0F1F2"/>
<path d="M735.529 539.96L743.779 520.43L725.279 512.62V535.63L735.529 539.96Z" fill="#F0F1F2"/>
<path d="M838.29 535.19L818.76 526.94L813.24 540H836.26L838.29 535.19Z" fill="#F0F1F2"/>
<path d="M765.15 529.47L745.62 521.21L737.68 540H760.7L765.15 529.47Z" fill="#F0F1F2"/>
<path d="M840.13 535.97L838.43 540H849.67L840.13 535.97Z" fill="#F0F1F2"/>
<path d="M816.921 526.16L797.391 517.91L789.141 537.43L795.221 540H811.071L816.921 526.16Z" fill="#F0F1F2"/>
<path d="M790.784 414.369L782.531 433.896L802.059 442.149L810.312 422.622L790.784 414.369Z" fill="#F0F1F2"/>
<path d="M799.815 393.002L791.562 412.529L811.09 420.782L819.343 401.254L799.815 393.002Z" fill="#F0F1F2"/>
<path d="M786.519 538.5L766.989 530.24L762.869 540H785.879L786.519 538.5Z" fill="#F0F1F2"/>
<path d="M788.361 539.27L788.061 540H790.081L788.361 539.27Z" fill="#F0F1F2"/>
<path d="M742.321 469.453L734.068 488.98L753.596 497.233L761.849 477.706L742.321 469.453Z" fill="#F0F1F2"/>
<path d="M740.469 468.67L725.279 462.24V485.26L732.219 488.19L740.469 468.67Z" fill="#F0F1F2"/>
<path d="M752.809 499.07L733.289 490.81L725.279 509.76V510.44L744.559 518.59L752.809 499.07Z" fill="#F0F1F2"/>
<path d="M808.847 371.635L800.594 391.163L820.121 399.416L828.374 379.888L808.847 371.635Z" fill="#F0F1F2"/>
<path d="M725.279 487.43V504.62L731.439 490.03L725.279 487.43Z" fill="#F0F1F2"/>
<path d="M749.509 447.3L735.279 441.28L725.279 452.11V460.07L741.249 466.82L749.509 447.3Z" fill="#F0F1F2"/>
<path d="M751.356 448.077L743.104 467.604L762.631 475.857L770.884 456.33L751.356 448.077Z" fill="#F0F1F2"/>
<path d="M868.69 522.85L849.16 514.6L840.91 534.12L854.81 540H861.44L868.69 522.85Z" fill="#F0F1F2"/>
<path d="M769.417 405.347L761.164 424.875L780.692 433.128L788.945 413.6L769.417 405.347Z" fill="#F0F1F2"/>
<path d="M725.279 537.8V539.88V540H730.479L725.279 537.8Z" fill="#F0F1F2"/>
<path d="M760.388 426.714L752.135 446.242L771.662 454.495L779.915 434.967L760.388 426.714Z" fill="#F0F1F2"/>
<path d="M897.634 459.533L889.381 479.061L908.909 487.313L917.161 467.786L897.634 459.533Z" fill="#F0F1F2"/>
<path d="M933.749 374.055L925.496 393.583L945.024 401.836L953.277 382.308L933.749 374.055Z" fill="#F0F1F2"/>
<path d="M867.237 471.868L858.984 491.396L878.512 499.648L886.765 480.121L867.237 471.868Z" fill="#F0F1F2"/>
<path d="M812.157 423.409L803.904 442.937L823.432 451.189L831.685 431.662L812.157 423.409Z" fill="#F0F1F2"/>
<path d="M858.206 493.235L849.953 512.763L869.481 521.016L877.734 501.488L858.206 493.235Z" fill="#F0F1F2"/>
<path d="M890.059 531.88L870.529 523.63L863.609 540H886.629L890.059 531.88Z" fill="#F0F1F2"/>
<path d="M821.192 402.033L812.939 421.561L832.467 429.813L840.72 410.286L821.192 402.033Z" fill="#F0F1F2"/>
<path d="M785.065 487.519L776.812 507.047L796.34 515.3L804.593 495.772L785.065 487.519Z" fill="#F0F1F2"/>
<path d="M830.214 380.666L821.961 400.193L841.489 408.446L849.741 388.918L830.214 380.666Z" fill="#F0F1F2"/>
<path d="M876.257 450.502L868.004 470.029L887.532 478.282L895.784 458.754L876.257 450.502Z" fill="#F0F1F2"/>
<path d="M885.288 429.134L877.035 448.662L896.563 456.915L904.816 437.387L885.288 429.134Z" fill="#F0F1F2"/>
<path d="M803.126 444.785L794.873 464.312L814.401 472.565L822.654 453.038L803.126 444.785Z" fill="#F0F1F2"/>
<path d="M794.095 466.152L785.842 485.68L805.369 493.933L813.622 474.405L794.095 466.152Z" fill="#F0F1F2"/>
<path d="M915.686 416.789L907.434 436.316L926.961 444.569L935.214 425.042L915.686 416.789Z" fill="#F0F1F2"/>
<path d="M781.763 435.745L773.51 455.272L793.037 463.525L801.29 443.998L781.763 435.745Z" fill="#F0F1F2"/>
<path d="M772.729 457.121L764.477 476.648L784.004 484.901L792.257 465.374L772.729 457.121Z" fill="#F0F1F2"/>
<path d="M894.319 407.768L886.066 427.296L905.594 435.549L913.847 416.021L894.319 407.768Z" fill="#F0F1F2"/>
<path d="M960.001 382.97V371.52L955.891 381.23L960.001 382.97Z" fill="#F0F1F2"/>
<path d="M934.529 372.2L954.049 380.45L959.999 366.38V359.95L942.779 352.68L934.529 372.2Z" fill="#F0F1F2"/>
<path d="M763.688 478.484L755.436 498.012L774.963 506.265L783.216 486.737L763.688 478.484Z" fill="#F0F1F2"/>
<path d="M943.561 350.83L960.001 357.78V339.23C956.701 338.63 953.111 338.01 949.241 337.38L943.561 350.83Z" fill="#F0F1F2"/>
<path d="M754.657 499.85L746.404 519.378L765.932 527.631L774.185 508.103L754.657 499.85Z" fill="#F0F1F2"/>
<path d="M848.274 337.922L840.021 357.45L859.549 365.703L867.802 346.175L848.274 337.922Z" fill="#F0F1F2"/>
<path d="M839.245 359.3L830.992 378.827L850.52 387.08L858.773 367.552L839.245 359.3Z" fill="#F0F1F2"/>
<path d="M906.665 438.166L898.412 457.693L917.94 465.946L926.193 446.418L906.665 438.166Z" fill="#F0F1F2"/>
<path d="M868.581 344.33L874.731 329.79C867.361 329.48 859.751 329.28 851.951 329.24L849.061 336.08L868.591 344.33H868.581Z" fill="#F0F1F2"/>
<path d="M912.386 365.015L904.133 384.543L923.661 392.796L931.913 373.268L912.386 365.015Z" fill="#F0F1F2"/>
<path d="M899.26 331.32C898.49 331.26 897.71 331.19 896.93 331.13L898.98 331.99L899.27 331.31L899.26 331.32Z" fill="#F0F1F2"/>
<path d="M854.901 441.48L846.648 461.008L866.176 469.261L874.429 449.733L854.901 441.48Z" fill="#F0F1F2"/>
<path d="M845.86 462.838L837.607 482.365L857.135 490.618L865.388 471.09L845.86 462.838Z" fill="#F0F1F2"/>
<path d="M920.341 341.02L923.411 333.75C916.501 332.92 909.121 332.15 901.351 331.49L900.811 332.77L920.341 341.02Z" fill="#F0F1F2"/>
<path d="M836.829 484.214L828.576 503.741L848.104 511.994L856.357 492.466L836.829 484.214Z" fill="#F0F1F2"/>
<path d="M827.808 505.581L819.555 525.108L839.082 533.361L847.335 513.834L827.808 505.581Z" fill="#F0F1F2"/>
<path d="M863.933 420.114L855.68 439.642L875.207 447.894L883.46 428.367L863.933 420.114Z" fill="#F0F1F2"/>
<path d="M891.018 355.984L882.766 375.512L902.293 383.765L910.546 364.237L891.018 355.984Z" fill="#F0F1F2"/>
<path d="M881.987 377.351L873.734 396.879L893.262 405.132L901.515 385.604L881.987 377.351Z" fill="#F0F1F2"/>
<path d="M941.71 350.06L947.2 337.06C940.66 336.02 933.38 334.98 925.48 334L922.18 341.8L941.71 350.05V350.06Z" fill="#F0F1F2"/>
<path d="M776.024 508.881L767.771 528.409L787.299 536.662L795.552 517.134L776.024 508.881Z" fill="#F0F1F2"/>
<path d="M872.952 398.737L864.699 418.265L884.227 426.517L892.48 406.99L872.952 398.737Z" fill="#F0F1F2"/>
<path d="M900.05 334.618L891.797 354.146L911.325 362.398L919.577 342.871L900.05 334.618Z" fill="#F0F1F2"/>
<path d="M851.591 389.697L843.338 409.225L862.866 417.477L871.118 397.95L851.591 389.697Z" fill="#F0F1F2"/>
<path d="M860.62 368.32L852.367 387.848L871.895 396.1L880.148 376.573L860.62 368.32Z" fill="#F0F1F2"/>
<path d="M903.35 386.391L895.098 405.919L914.625 414.172L922.878 394.644L903.35 386.391Z" fill="#F0F1F2"/>
<path d="M869.642 346.954L861.389 366.481L880.916 374.734L889.169 355.207L869.642 346.954Z" fill="#F0F1F2"/>
<path d="M889.94 353.36L898.19 333.83L890.71 330.67C886.2 330.36 881.57 330.09 876.84 329.88L870.4 345.11L889.93 353.36H889.94Z" fill="#F0F1F2"/>
<path d="M842.565 411.083L834.312 430.61L853.84 438.863L862.093 419.335L842.565 411.083Z" fill="#F0F1F2"/>
<path d="M833.534 432.45L825.281 451.978L844.809 460.23L853.062 440.703L833.534 432.45Z" fill="#F0F1F2"/>
<path d="M806.44 496.55L798.188 516.077L817.715 524.33L825.968 504.802L806.44 496.55Z" fill="#F0F1F2"/>
<path d="M815.462 475.183L807.209 494.711L826.737 502.964L834.99 483.436L815.462 475.183Z" fill="#F0F1F2"/>
<path d="M921.425 343.653L913.172 363.181L932.7 371.434L940.952 351.906L921.425 343.653Z" fill="#F0F1F2"/>
<path d="M946.859 402.6L959.999 408.15V385.14L955.119 383.08L946.859 402.6Z" fill="#F0F1F2"/>
<path d="M824.493 453.816L816.24 473.344L835.768 481.597L844.021 462.069L824.493 453.816Z" fill="#F0F1F2"/>
<path d="M924.718 395.422L916.465 414.95L935.993 423.203L944.245 403.675L924.718 395.422Z" fill="#F0F1F2"/>
<path d="M944.449 527.51L959.999 534.08V511.07L952.699 507.98L944.449 527.51Z" fill="#F0F1F2"/>
<path d="M960 508.9V490.71L953.48 506.14L960 508.9Z" fill="#F0F1F2"/>
<path d="M941.141 475.74L960.001 483.71V460.7L949.391 456.21L941.141 475.74Z" fill="#F0F1F2"/>
<path d="M939.17 540H960V539.88V536.25L943.67 529.35L939.17 540Z" fill="#F0F1F2"/>
<path d="M937.83 423.97L957.36 432.22L960 425.98V410.33L946.08 404.44L937.83 423.97Z" fill="#F0F1F2"/>
<path d="M941.831 528.57L922.301 520.32L914.051 539.85L914.411 540H937.001L941.831 528.57Z" fill="#F0F1F2"/>
<path d="M950.17 454.37L960 458.53V435.51L958.42 434.84L950.17 454.37Z" fill="#F0F1F2"/>
<path d="M959.999 433.34V431.11L959.199 433L959.999 433.34Z" fill="#F0F1F2"/>
<path d="M909.97 489.93L901.717 509.458L921.244 517.711L929.497 498.183L909.97 489.93Z" fill="#F0F1F2"/>
<path d="M919.001 468.563L910.748 488.091L930.276 496.344L938.529 476.816L919.001 468.563Z" fill="#F0F1F2"/>
<path d="M937.063 425.82L928.811 445.348L948.338 453.6L956.591 434.073L937.063 425.82Z" fill="#F0F1F2"/>
<path d="M879.573 502.266L871.32 521.794L890.848 530.047L899.101 510.519L879.573 502.266Z" fill="#F0F1F2"/>
<path d="M931.337 498.961L923.084 518.488L942.612 526.741L950.865 507.213L931.337 498.961Z" fill="#F0F1F2"/>
<path d="M940.368 477.594L932.115 497.122L951.643 505.375L959.896 485.847L940.368 477.594Z" fill="#F0F1F2"/>
<path d="M900.938 511.297L892.686 530.824L912.213 539.077L920.466 519.549L900.938 511.297Z" fill="#F0F1F2"/>
<path d="M891.901 532.66L888.801 540H909.271L891.901 532.66Z" fill="#F0F1F2"/>
<path d="M928.032 447.197L919.779 466.725L939.307 474.977L947.56 455.45L928.032 447.197Z" fill="#F0F1F2"/>
<path d="M888.602 480.899L880.35 500.427L899.877 508.68L908.13 489.152L888.602 480.899Z" fill="#F0F1F2"/>
<path d="M798.43 331.54C798.09 331.57 797.75 331.6 797.42 331.63C797.76 331.6 798.09 331.57 798.43 331.54Z" fill="#F0F1F2"/>
<path d="M752.011 423.17L736.721 439.72L750.281 445.45L758.541 425.93L752.011 423.17Z" fill="#F0F1F2"/>
<path d="M747.93 338.99C749.65 338.64 751.36 338.3 753.08 337.96C751.37 338.29 749.65 338.63 747.93 338.99Z" fill="#F0F1F2"/>
<path d="M759.311 424.09L766.181 407.84L753.461 421.61L759.311 424.09Z" fill="#F0F1F2"/>
<path d="M818.949 350.72L816.599 353.27L809.619 369.79L829.139 378.04L837.399 358.51L818.949 350.72Z" fill="#F0F1F2"/>
<path d="M778.821 333.76C778.181 333.85 777.531 333.94 776.891 334.03C777.551 333.94 778.201 333.86 778.851 333.77H778.821V333.76Z" fill="#F0F1F2"/>
<path d="M771.891 334.74C771.251 334.83 770.62 334.94 769.98 335.03C770.62 334.93 771.25 334.84 771.88 334.75L771.891 334.74Z" fill="#F0F1F2"/>
<path d="M737.189 341.35C736.159 341.59 735.129 341.85 734.109 342.1C735.149 341.85 736.179 341.61 737.219 341.36H737.199L737.189 341.35Z" fill="#F0F1F2"/>
<path d="M783.57 333.15C788.18 332.58 792.77 332.07 797.33 331.64C792.77 332.08 788.18 332.58 783.57 333.15Z" fill="#F0F1F2"/>
<path d="M762.17 336.3C764.18 335.96 766.18 335.63 768.18 335.31C766.18 335.63 764.17 335.96 762.17 336.3Z" fill="#F0F1F2"/>
<path d="M804.93 330.97C806.95 330.81 808.96 330.66 810.96 330.52C808.96 330.66 806.94 330.81 804.93 330.97Z" fill="#F0F1F2"/>
<path d="M804.05 331.04C802.93 331.13 801.81 331.23 800.68 331.33C801.8 331.24 802.93 331.13 804.05 331.04Z" fill="#F0F1F2"/>
<path d="M833.379 329.46C835.169 329.41 836.949 329.36 838.719 329.33L837.139 331.04L847.209 335.3L849.769 329.24C846.129 329.24 842.439 329.27 838.719 329.33C836.939 329.36 835.159 329.4 833.369 329.45H833.379V329.46Z" fill="#F0F1F2"/>
<path d="M835.69 332.6L820.4 349.16L838.18 356.67L846.43 337.14L835.69 332.6Z" fill="#F0F1F2"/>
<path d="M725.301 344.32C727.531 343.73 729.751 343.16 731.981 342.61C729.751 343.16 727.521 343.73 725.301 344.32Z" fill="#F0F1F2"/>
<path d="M824.361 329.77C820.181 329.95 815.961 330.19 811.711 330.47C815.961 330.18 820.181 329.95 824.361 329.77Z" fill="#F0F1F2"/>
<path d="M754.631 337.66C756.901 337.23 759.171 336.82 761.441 336.42C759.171 336.81 756.901 337.23 754.631 337.66Z" fill="#F0F1F2"/>
<path d="M807.78 369.01L812.6 357.6L803.66 367.27L807.78 369.01Z" fill="#F0F1F2"/>
<path d="M775.029 334.29C774.749 334.33 774.469 334.37 774.199 334.41C774.479 334.38 774.759 334.33 775.039 334.29H775.029Z" fill="#F0F1F2"/>
<path d="M785.479 386.94L770.189 403.5L789.709 411.75L797.969 392.22L785.479 386.94Z" fill="#F0F1F2"/>
<path d="M828.61 329.61H828.59C827.92 329.63 827.25 329.65 826.58 329.68C827.26 329.66 827.94 329.64 828.62 329.61H828.61Z" fill="#F0F1F2"/>
<path d="M744.61 339.69C743.46 339.94 742.3 340.19 741.15 340.45C742.3 340.19 743.45 339.95 744.6 339.7L744.61 339.69Z" fill="#F0F1F2"/>
<path d="M802.22 368.83L786.93 385.38L798.75 390.38L807 370.85L802.22 368.83Z" fill="#F0F1F2"/>
<path d="M124.087 6.10902L115.834 25.6367L135.362 33.8896L143.615 14.3619L124.087 6.10902Z" fill="#F0F1F2"/>
<path d="M144.389 12.52L149.679 0H126.669L124.869 4.27L144.389 12.52Z" fill="#F0F1F2"/>
<path d="M161.1 97.3112L152.848 116.839L172.375 125.092L180.628 105.564L161.1 97.3112Z" fill="#F0F1F2"/>
<path d="M168.5 199.01L179.74 203.76L187.53 184.04L176.75 179.48L168.5 199.01Z" fill="#F0F1F2"/>
<path d="M59.0291 154.92L50.2091 151.19L41.7891 170.65L50.7791 174.44L59.0291 154.92Z" fill="#F0F1F2"/>
<path d="M165.76 21.55L174.01 2.03L169.22 0H151.86L146.23 13.3L165.76 21.55Z" fill="#F0F1F2"/>
<path d="M204.619 113.53L213.849 117.43L221.639 97.71L212.869 94L204.619 113.53Z" fill="#F0F1F2"/>
<path d="M118.366 79.2487L110.113 98.7764L129.641 107.029L137.894 87.5015L118.366 79.2487Z" fill="#F0F1F2"/>
<path d="M109.335 100.626L101.082 120.153L120.61 128.406L128.863 108.878L109.335 100.626Z" fill="#F0F1F2"/>
<path d="M123.02 3.49L124.5 0H115.65L115.52 0.32L123.02 3.49Z" fill="#F0F1F2"/>
<path d="M195.59 134.9L205.32 139.01L213.11 119.29L203.84 115.37L195.59 134.9Z" fill="#F0F1F2"/>
<path d="M69.9071 134.329L61.6543 153.856L81.182 162.109L89.4348 142.582L69.9071 134.329Z" fill="#F0F1F2"/>
<path d="M197.233 11.8385L188.98 31.3662L208.508 39.619L216.761 20.0913L197.233 11.8385Z" fill="#F0F1F2"/>
<path d="M78.9384 112.962L70.6855 132.489L90.2132 140.742L98.4661 121.214L78.9384 112.962Z" fill="#F0F1F2"/>
<path d="M186.561 156.27L196.791 160.6L204.591 140.87L194.811 136.74L186.561 156.27Z" fill="#F0F1F2"/>
<path d="M177.529 177.64L188.269 182.18L196.059 162.46L185.779 158.11L177.529 177.64Z" fill="#F0F1F2"/>
<path d="M115.052 27.485L106.799 47.0127L126.327 55.2655L134.579 35.7378L115.052 27.485Z" fill="#F0F1F2"/>
<path d="M127.397 57.8825L119.145 77.4102L138.672 85.663L146.925 66.1353L127.397 57.8825Z" fill="#F0F1F2"/>
<path d="M106.02 48.8512L97.7676 68.3789L117.295 76.6317L125.548 57.104L106.02 48.8512Z" fill="#F0F1F2"/>
<path d="M97.0009 70.2282L88.748 89.7559L108.276 98.0087L116.529 78.481L97.0009 70.2282Z" fill="#F0F1F2"/>
<path d="M130.702 109.647L122.449 129.175L141.977 137.428L150.23 117.9L130.702 109.647Z" fill="#F0F1F2"/>
<path d="M87.9696 91.5954L79.7168 111.123L99.2445 119.376L107.497 99.8482L87.9696 91.5954Z" fill="#F0F1F2"/>
<path d="M145.45 15.1491L137.197 34.6768L156.725 42.9296L164.978 23.4019L145.45 15.1491Z" fill="#F0F1F2"/>
<path d="M238.899 27.28L247.149 7.75L228.809 0H227.409L219.369 19.02L238.899 27.28Z" fill="#F0F1F2"/>
<path d="M136.429 36.5153L128.176 56.043L147.703 64.2958L155.956 44.7681L136.429 36.5153Z" fill="#F0F1F2"/>
<path d="M143.29 188.35L145.28 189.2L153.54 169.67L134.01 161.42L127.98 175.69H143.29V188.35Z" fill="#F0F1F2"/>
<path d="M166.827 24.1803L158.574 43.708L178.102 51.9608L186.355 32.4332L166.827 24.1803Z" fill="#F0F1F2"/>
<path d="M164.415 149.086L156.162 168.613L175.69 176.866L183.943 157.338L164.415 149.086Z" fill="#F0F1F2"/>
<path d="M170.132 75.944L161.879 95.4717L181.407 103.725L189.659 84.1968L170.132 75.944Z" fill="#F0F1F2"/>
<path d="M157.796 45.5465L149.543 65.0742L169.071 73.3271L177.323 53.7994L157.796 45.5465Z" fill="#F0F1F2"/>
<path d="M173.446 127.709L165.193 147.236L184.721 155.489L192.974 135.961L173.446 127.709Z" fill="#F0F1F2"/>
<path d="M222.68 70.7895L230.9 74.2695L238.69 54.5395L230.93 51.2695L222.68 70.7895Z" fill="#F0F1F2"/>
<path d="M213.65 92.1597L222.37 95.8496L230.16 76.1296L221.9 72.6396L213.65 92.1597Z" fill="#F0F1F2"/>
<path d="M209.569 42.236L201.316 61.7637L220.844 70.0165L229.097 50.4888L209.569 42.236Z" fill="#F0F1F2"/>
<path d="M86.1195 90.8103L77.8595 87.3203L69.4395 106.77L77.8695 110.34L86.1195 90.8103Z" fill="#F0F1F2"/>
<path d="M157.619 219.6L165.879 200.07L146.349 191.82L143.289 199.06V213.54L157.619 219.6Z" fill="#F0F1F2"/>
<path d="M155.384 170.452L147.131 189.979L166.659 198.232L174.911 178.705L155.384 170.452Z" fill="#F0F1F2"/>
<path d="M95.1504 69.4403L87.0804 66.0303L78.6504 85.4803L86.9004 88.9703L95.1504 69.4403Z" fill="#F0F1F2"/>
<path d="M175.866 2.80727L167.613 22.335L187.141 30.5878L195.394 11.0601L175.866 2.80727Z" fill="#F0F1F2"/>
<path d="M174.869 0H174.359L174.789 0.18L174.869 0Z" fill="#F0F1F2"/>
<path d="M240.74 28.0603L247.95 31.1003L255.74 11.3803L248.99 8.53027L240.74 28.0603Z" fill="#F0F1F2"/>
<path d="M256.47 9.52L260.23 0H252.6L249.77 6.69L256.47 9.52Z" fill="#F0F1F2"/>
<path d="M191.497 84.9752L183.244 104.503L202.772 112.756L211.025 93.2281L191.497 84.9752Z" fill="#F0F1F2"/>
<path d="M148.765 66.9137L140.512 86.4414L160.039 94.6942L168.292 75.1666L148.765 66.9137Z" fill="#F0F1F2"/>
<path d="M250.429 0H233.949L247.929 5.91L250.429 0Z" fill="#F0F1F2"/>
<path d="M200.528 63.609L192.275 83.1367L211.803 91.3896L220.056 71.8619L200.528 63.609Z" fill="#F0F1F2"/>
<path d="M139.733 88.2799L131.48 107.808L151.008 116.06L159.261 96.5328L139.733 88.2799Z" fill="#F0F1F2"/>
<path d="M113.21 26.7002L105.51 23.4502L97.0898 42.9002L104.96 46.2302L113.21 26.7002Z" fill="#F0F1F2"/>
<path d="M104.179 48.0702L96.2891 44.7402L87.8691 64.1902L95.9291 67.6002L104.179 48.0702Z" fill="#F0F1F2"/>
<path d="M121.671 131.023L113.418 150.551L132.946 158.804L141.198 139.276L121.671 131.023Z" fill="#F0F1F2"/>
<path d="M122.251 5.33039L114.721 2.15039L106.301 21.6104L113.991 24.8604L122.251 5.33039Z" fill="#F0F1F2"/>
<path d="M182.468 106.342L174.215 125.87L193.743 134.123L201.995 114.595L182.468 106.342Z" fill="#F0F1F2"/>
<path d="M231.711 49.4204L239.421 52.6804L247.211 32.9604L239.961 29.9004L231.711 49.4204Z" fill="#F0F1F2"/>
<path d="M143.289 193.93L144.509 191.04L143.289 190.53V193.93Z" fill="#F0F1F2"/>
<path d="M143.038 140.054L134.785 159.582L154.313 167.835L162.566 148.307L143.038 140.054Z" fill="#F0F1F2"/>
<path d="M100.306 121.993L92.0527 141.521L111.58 149.773L119.833 130.246L100.306 121.993Z" fill="#F0F1F2"/>
<path d="M152.069 118.677L143.816 138.205L163.344 146.458L171.597 126.93L152.069 118.677Z" fill="#F0F1F2"/>
<path d="M77.0907 112.18L68.6407 108.61L60.2207 128.07L68.8407 131.71L77.0907 112.18Z" fill="#F0F1F2"/>
<path d="M159.471 220.38L166.201 223.22H172.061L179.011 205.62L167.721 200.85L159.471 220.38Z" fill="#F0F1F2"/>
<path d="M101.769 172.98L82.2394 164.73L77.6094 175.69H100.619L101.769 172.98Z" fill="#F0F1F2"/>
<path d="M217.53 18.25L225.24 0H202.23L198 9.99L217.53 18.25Z" fill="#F0F1F2"/>
<path d="M143.289 215.71V223.22H156.089L156.839 221.44L143.289 215.71Z" fill="#F0F1F2"/>
<path d="M188.192 33.2008L179.939 52.7285L199.467 60.9814L207.72 41.4537L188.192 33.2008Z" fill="#F0F1F2"/>
<path d="M158.26 223.22H161.06L158.69 222.22L158.26 223.22Z" fill="#F0F1F2"/>
<path d="M196.161 9.22L200.061 0H177.041L176.631 0.96L196.161 9.22Z" fill="#F0F1F2"/>
<path d="M75.4391 175.69L80.3991 163.95L60.8691 155.7L52.6191 175.22L53.7091 175.69H75.4391Z" fill="#F0F1F2"/>
<path d="M91.2743 143.359L83.0215 162.887L102.549 171.14L110.802 151.612L91.2743 143.359Z" fill="#F0F1F2"/>
<path d="M218.6 20.8688L210.348 40.3965L229.875 48.6493L238.128 29.1216L218.6 20.8688Z" fill="#F0F1F2"/>
<path d="M68.0598 133.55L59.4298 129.9L51.0098 149.36L59.8098 153.08L68.0598 133.55Z" fill="#F0F1F2"/>
<path d="M103.611 173.76L102.801 175.69H108.171L103.611 173.76Z" fill="#F0F1F2"/>
<path d="M125.811 175.69L132.171 160.64L112.641 152.39L104.391 171.92L113.311 175.69H125.811Z" fill="#F0F1F2"/>
<path d="M179.163 54.5778L170.91 74.1055L190.438 82.3583L198.691 62.8306L179.163 54.5778Z" fill="#F0F1F2"/>
<path d="M22.5691 215.06L19.0391 223.22L22.5691 215.06Z" fill="#F0F1F2"/>
<path d="M39.6101 175.69H48.5801L41.0001 172.48L39.6101 175.69L32.5801 191.94L39.6101 175.69Z" fill="#F0F1F2"/>
<path d="M886.819 215.89V40.14H931.759V231.58V0H820.059C803.059 23.2 794.369 51.7 794.369 84.26C794.369 143.41 819.479 186.66 886.819 215.89Z" fill="#F0F1F2"/>
<path d="M931.72 231.57C929.84 231.04 927.99 230.51 926.15 229.96C927.99 230.5 929.84 231.04 931.72 231.57Z" fill="#F0F1F2"/>
<path d="M902.27 222.07C896.89 220.08 891.74 218.02 886.82 215.89C891.74 218.03 896.89 220.09 902.27 222.07Z" fill="#F0F1F2"/>
<path d="M919.019 227.79C915.319 226.62 911.709 225.43 908.199 224.21C911.709 225.43 915.319 226.63 919.019 227.79Z" fill="#F0F1F2"/>
<path d="M907.64 224.01C905.99 223.43 904.36 222.85 902.76 222.26C904.37 222.85 905.99 223.43 907.64 224.01Z" fill="#F0F1F2"/>
<path d="M595.32 437.91V478.72H638.26V340.68H370.66V437.91H595.32Z" fill="#F0F1F2"/>
<path d="M595.321 437.91V478.72H370.661V437.91H327.721V539.88V540H595.321V539.88V478.72V437.91Z" fill="#F0F1F2"/>
<path d="M741.59 287.71L739.69 279.46C729.58 235.5 706.52 195.25 674.17 164.67V287.72H741.58L741.59 287.71Z" fill="#DDDEE1"/>
<path d="M595.33 437.91H370.66V478.71H595.33V437.91Z" fill="#DDDEE1"/>
<path d="M143.29 257.35C141.57 257.29 139.83 257.25 138.08 257.22C137.71 257.22 137.33 257.2 136.96 257.2C135.22 257.17 133.46 257.15 131.69 257.14C131.47 257.14 131.25 257.14 131.03 257.14C129.41 257.14 127.77 257.14 126.13 257.15C125.78 257.15 125.42 257.15 125.07 257.15C123.28 257.17 121.48 257.2 119.67 257.24C119.33 257.24 118.99 257.26 118.65 257.27C117 257.31 115.34 257.37 113.66 257.43C113.38 257.44 113.1 257.45 112.82 257.46C110.98 257.54 109.12 257.63 107.26 257.73C106.86 257.75 106.46 257.78 106.06 257.8C104.25 257.91 102.43 258.02 100.6 258.16C100.49 258.16 100.39 258.17 100.28 258.18C98.3803 258.32 96.4603 258.48 94.5403 258.65C94.1103 258.69 93.6803 258.73 93.2503 258.77C91.3303 258.95 89.4003 259.14 87.4603 259.35C87.3203 259.37 87.1703 259.38 87.0303 259.4C85.2103 259.6 83.3703 259.82 81.5403 260.06C81.1203 260.11 80.7003 260.17 80.2803 260.22C78.3503 260.47 76.4203 260.74 74.4803 261.03C74.1603 261.08 73.8403 261.13 73.5203 261.18C71.7803 261.44 70.0303 261.72 68.2803 262.02C67.9103 262.08 67.5403 262.14 67.1703 262.2C65.2303 262.53 63.2903 262.89 61.3403 263.26C60.9303 263.34 60.5303 263.42 60.1203 263.5C58.3303 263.85 56.5303 264.22 54.7403 264.6C54.4903 264.65 54.2403 264.7 54.0003 264.76C52.0403 265.19 50.0803 265.64 48.1203 266.1C47.6803 266.2 47.2403 266.31 46.8003 266.42C44.8103 266.91 42.8103 267.41 40.8203 267.94V313.72H143.3V257.35H143.29Z" fill="#DDDEE1"/>
<path d="M252.6 0H250.43L247.93 5.91L233.95 0H228.81L247.15 7.75L238.9 27.28L219.37 19.03L227.41 0H225.24L217.53 18.25L198 10L202.22 0.01H200.05L196.16 9.23L176.63 0.96L177.04 0H174.87L174.79 0.18L174.35 0H169.21L174.01 2.03L165.76 21.56L146.23 13.31L151.85 0.01H149.68L144.39 12.53L124.86 4.28L126.66 0.01H124.49L123.01 3.5L115.5 0.33L114.71 2.17L122.23 5.35L113.98 24.88L106.29 21.63L105.5 23.47L113.21 26.73L104.96 46.26L97.0798 42.93L96.2898 44.77L104.18 48.11L95.9298 67.64L87.8698 64.23L87.0798 66.07L95.1599 69.48L86.9099 89.01L78.6598 85.53L77.8698 87.37L86.1298 90.86L77.8798 110.39L69.4498 106.83L68.6598 108.67L77.1098 112.24L68.8598 131.77L60.2398 128.13L59.4498 129.97L68.0798 133.62L59.8298 153.15L51.0298 149.43L50.2398 151.27L59.0598 155L50.8098 174.53L41.8198 170.73L41.0298 172.57L48.6098 175.77H39.6498L32.6198 192.02L31.8298 193.86L23.4098 213.32L22.6198 215.16L19.0898 223.32H143.34V215.81L156.9 221.54L156.15 223.32H158.32L158.74 222.32L161.11 223.32H166.25L159.52 220.47L167.77 200.94L179.06 205.71L179.79 203.85L168.54 199.1L176.79 179.57L187.58 184.13L188.31 182.27L177.57 177.73L185.82 158.2L196.1 162.54L196.83 160.68L186.59 156.35L194.84 136.82L204.62 140.95L205.35 139.09L195.62 134.98L203.87 115.45L213.14 119.37L213.87 117.51L204.64 113.61L212.89 94.08L221.65 97.78L222.38 95.92L213.66 92.23L221.91 72.7L230.17 76.19L230.9 74.33L222.68 70.86L230.93 51.33L238.68 54.61L239.41 52.75L231.7 49.49L239.95 29.96L247.2 33.02L247.93 31.16L240.73 28.12L248.98 8.59L255.72 11.44L256.45 9.58L249.75 6.75L252.58 0.06L252.6 0ZM197.23 11.84L216.76 20.09L208.51 39.62L188.98 31.37L197.23 11.84ZM92.0499 141.52L100.3 121.99L119.83 130.24L111.58 149.77L92.0499 141.52ZM110.8 151.61L102.55 171.14L83.0198 162.89L91.2698 143.36L110.8 151.61ZM131.48 107.81L139.73 88.28L159.26 96.53L151.01 116.06L131.48 107.81ZM150.23 117.9L141.98 137.43L122.45 129.18L130.7 109.65L150.23 117.9ZM140.51 86.44L148.76 66.91L168.29 75.16L160.04 94.69L140.51 86.44ZM149.54 65.07L157.79 45.54L177.32 53.79L169.07 73.32L149.54 65.07ZM147.7 64.29L128.17 56.04L136.42 36.51L155.95 44.76L147.7 64.29ZM146.92 66.13L138.67 85.66L119.14 77.41L127.39 57.88L146.92 66.13ZM137.89 87.5L129.64 107.03L110.11 98.78L118.36 79.25L137.89 87.5ZM128.86 108.87L120.61 128.4L101.08 120.15L109.33 100.62L128.86 108.87ZM121.67 131.02L141.2 139.27L132.95 158.8L113.42 150.55L121.67 131.02ZM143.04 140.05L162.57 148.3L154.32 167.83L134.79 159.58L143.04 140.05ZM143.82 138.21L152.07 118.68L171.6 126.93L163.35 146.46L143.82 138.21ZM152.85 116.84L161.1 97.31L180.63 105.56L172.38 125.09L152.85 116.84ZM161.88 95.47L170.13 75.94L189.66 84.19L181.41 103.72L161.88 95.47ZM170.91 74.1L179.16 54.57L198.69 62.82L190.44 82.35L170.91 74.1ZM179.94 52.73L188.19 33.2L207.72 41.45L199.47 60.98L179.94 52.73ZM175.86 2.81L195.39 11.06L187.14 30.59L167.61 22.34L175.86 2.81ZM166.83 24.17L186.36 32.42L178.11 51.95L158.58 43.7L166.83 24.17ZM145.46 15.14L164.99 23.39L156.74 42.92L137.21 34.67L145.46 15.14ZM124.09 6.11L143.62 14.36L135.37 33.89L115.84 25.64L124.09 6.11ZM115.06 27.48L134.59 35.73L126.34 55.26L106.81 47.01L115.06 27.48ZM106.03 48.85L125.56 57.1L117.31 76.63L97.7798 68.38L106.03 48.85ZM96.9998 70.22L116.53 78.47L108.28 98L88.7498 89.75L96.9998 70.22ZM87.9598 91.59L107.49 99.84L99.2398 119.37L79.7098 111.12L87.9598 91.59ZM78.9298 112.96L98.4598 121.21L90.2098 140.74L70.6798 132.49L78.9298 112.96ZM69.8998 134.33L89.4298 142.58L81.1798 162.11L61.6498 153.86L69.8998 134.33ZM53.7098 175.69L52.6198 175.23L60.8698 155.7L80.3998 163.95L75.4398 175.69H53.7098ZM77.6098 175.69L82.2398 164.73L101.77 172.98L100.63 175.69H77.6198H77.6098ZM102.8 175.69L103.61 173.76L108.17 175.69H102.79H102.8ZM113.31 175.69L104.39 171.92L112.64 152.39L132.17 160.64L125.81 175.68H113.31V175.69ZM127.98 175.69L134.01 161.42L153.54 169.67L145.29 189.2L143.29 188.36V175.69H127.98ZM144.51 191.04L143.29 193.93V190.53L144.51 191.05V191.04ZM157.62 219.6L143.28 213.54V199.06L146.34 191.82L165.87 200.07L157.62 219.6ZM166.65 198.23L147.12 189.98L155.37 170.45L174.9 178.7L166.65 198.23ZM175.68 176.86L156.15 168.61L164.4 149.08L183.93 157.33L175.68 176.86ZM184.72 155.49L165.19 147.24L173.44 127.71L192.97 135.96L184.72 155.49ZM193.75 134.12L174.22 125.87L182.47 106.34L202 114.59L193.75 134.12ZM202.78 112.75L183.25 104.5L191.5 84.97L211.03 93.22L202.78 112.75ZM211.81 91.38L192.28 83.13L200.53 63.6L220.06 71.85L211.81 91.38ZM220.84 70.01L201.31 61.76L209.56 42.23L229.09 50.48L220.84 70.01ZM229.87 48.65L210.34 40.4L218.59 20.87L238.12 29.12L229.87 48.65Z" fill="#DDDEE1"/>
<path d="M960.001 359.95V357.78L943.561 350.83L949.241 337.38C948.571 337.27 947.891 337.16 947.211 337.05L941.721 350.05L922.191 341.8L925.491 334C924.811 333.92 924.121 333.83 923.431 333.75L920.361 341.02L900.831 332.77L901.371 331.49C900.671 331.43 899.971 331.37 899.271 331.32L898.981 332L896.931 331.14C894.891 330.98 892.811 330.83 890.721 330.69L898.201 333.85L889.951 353.38L870.421 345.13L876.861 329.9C876.151 329.87 875.441 329.84 874.731 329.8L868.581 344.34L849.051 336.09L851.941 329.25C851.221 329.25 850.491 329.25 849.771 329.25L847.211 335.31L837.141 331.05L838.721 329.34C836.951 329.37 835.171 329.42 833.381 329.47H833.371C831.781 329.51 830.191 329.56 828.591 329.62H828.611C827.931 329.65 827.251 329.68 826.571 329.7C825.831 329.72 825.101 329.75 824.361 329.78C820.181 329.97 815.961 330.2 811.711 330.48C811.461 330.5 811.211 330.51 810.961 330.53C808.961 330.67 806.941 330.82 804.931 330.98C804.641 331 804.351 331.03 804.061 331.05C802.941 331.14 801.811 331.25 800.691 331.35C799.941 331.41 799.191 331.48 798.431 331.55C798.091 331.58 797.761 331.61 797.421 331.64C797.391 331.64 797.371 331.64 797.341 331.64C792.781 332.08 788.191 332.58 783.581 333.15C783.121 333.21 782.651 333.27 782.191 333.33C781.071 333.47 779.951 333.61 778.821 333.76H778.851C778.201 333.86 777.541 333.94 776.891 334.03C776.271 334.12 775.661 334.2 775.041 334.29C774.761 334.33 774.481 334.37 774.201 334.41C773.431 334.51 772.661 334.63 771.891 334.74C771.261 334.85 770.621 334.94 769.991 335.03C769.391 335.12 768.791 335.21 768.201 335.31C766.201 335.63 764.191 335.96 762.191 336.3C761.951 336.34 761.701 336.38 761.461 336.42C759.191 336.81 756.921 337.23 754.651 337.66C754.141 337.76 753.621 337.86 753.111 337.96C751.401 338.29 749.681 338.63 747.961 338.99C747.201 339.15 746.441 339.31 745.681 339.47C745.331 339.54 744.981 339.62 744.641 339.69C743.491 339.95 742.341 340.19 741.191 340.45C740.391 340.63 739.591 340.81 738.781 340.99C738.261 341.11 737.741 341.22 737.231 341.34H737.251C736.211 341.59 735.181 341.83 734.141 342.09C733.431 342.26 732.721 342.43 732.011 342.6C729.781 343.15 727.551 343.72 725.331 344.31C725.331 344.31 725.321 344.31 725.311 344.31V452.09L735.311 441.27L749.541 447.28L741.291 466.81L725.321 460.06V462.23L740.521 468.65L732.271 488.18L725.331 485.25V487.42L731.491 490.03L725.331 504.62V509.76L733.341 490.81L752.871 499.06L744.621 518.59L725.341 510.44V512.61L743.841 520.43L735.591 539.96L725.341 535.63V537.8L730.541 540H737.741L745.681 521.21L765.211 529.46L760.761 539.99H762.931L767.051 530.23L786.581 538.48L785.941 539.98H788.111L788.421 539.25L790.141 539.98H795.281L789.201 537.41L797.451 517.88L816.981 526.13L811.131 539.97H813.301L818.821 526.91L838.351 535.16L836.321 539.97H838.491L840.191 535.94L849.731 539.97H854.871L840.971 534.09L849.221 514.56L868.751 522.81L861.501 539.96H863.671L870.591 523.59L890.121 531.84L886.691 539.96H888.861L891.961 532.62L909.331 539.96H914.471L914.111 539.81L922.361 520.28L941.891 528.53L937.061 539.96H939.231L943.731 529.31L960.061 536.21V534.04L944.511 527.47L952.761 507.94L960.061 511.02V508.85L953.541 506.09L960.061 490.66V483.66L941.201 475.69L949.451 456.16L960.061 460.64V458.47L950.231 454.32L958.481 434.79L960.061 435.46V433.29L959.261 432.95L960.061 431.06V425.92L957.421 432.17L937.891 423.92L946.141 404.39L960.061 410.27V408.1L946.921 402.55L955.171 383.02L960.051 385.08V382.91L955.941 381.17L960.051 371.45V366.31L954.101 380.38L934.571 372.13L942.821 352.6L960.041 359.88L960.001 359.95ZM900.041 334.61L919.571 342.86L911.321 362.39L891.791 354.14L900.041 334.61ZM764.461 476.63L772.711 457.1L792.241 465.35L783.991 484.88L764.461 476.63ZM783.211 486.73L774.961 506.26L755.431 498.01L763.681 478.48L783.211 486.73ZM803.121 444.77L822.651 453.02L814.401 472.55L794.871 464.3L803.121 444.77ZM793.021 463.52L773.491 455.27L781.741 435.74L801.271 443.99L793.021 463.52ZM803.891 442.93L812.141 423.4L831.671 431.65L823.421 451.18L803.891 442.93ZM864.691 418.25L872.941 398.72L892.471 406.97L884.221 426.5L864.691 418.25ZM883.441 428.34L875.191 447.87L855.661 439.62L863.911 420.09L883.441 428.34ZM862.851 417.47L843.321 409.22L851.571 389.69L871.101 397.94L862.851 417.47ZM862.071 419.31L853.821 438.84L834.291 430.59L842.541 411.06L862.071 419.31ZM832.451 429.81L812.921 421.56L821.171 402.03L840.701 410.28L832.451 429.81ZM833.521 432.43L853.051 440.68L844.801 460.21L825.271 451.96L833.521 432.43ZM854.891 441.46L874.421 449.71L866.171 469.24L846.641 460.99L854.891 441.46ZM876.251 450.49L895.781 458.74L887.531 478.27L868.001 470.02L876.251 450.49ZM877.031 448.65L885.281 429.12L904.811 437.37L896.561 456.9L877.031 448.65ZM886.061 427.28L894.311 407.75L913.841 416L905.591 435.53L886.061 427.28ZM893.251 405.13L873.721 396.88L881.971 377.35L901.501 385.6L893.251 405.13ZM871.881 396.1L852.351 387.85L860.601 368.32L880.131 376.57L871.881 396.1ZM850.511 387.07L830.981 378.82L839.231 359.29L858.761 367.54L850.511 387.07ZM849.741 388.91L841.491 408.44L821.961 400.19L830.211 380.66L849.741 388.91ZM820.111 399.41L800.581 391.16L808.831 371.63L828.361 379.88L820.111 399.41ZM819.341 401.25L811.091 420.78L791.561 412.53L799.811 393L819.341 401.25ZM810.301 422.62L802.051 442.15L782.521 433.9L790.771 414.37L810.301 422.62ZM780.681 433.12L761.151 424.87L769.401 405.34L788.931 413.59L780.681 433.12ZM779.911 434.96L771.661 454.49L752.131 446.24L760.381 426.71L779.911 434.96ZM794.091 466.14L813.621 474.39L805.371 493.92L785.841 485.67L794.091 466.14ZM815.451 475.17L834.981 483.42L826.731 502.95L807.201 494.7L815.451 475.17ZM816.231 473.32L824.481 453.79L844.011 462.04L835.761 481.57L816.231 473.32ZM845.851 462.83L865.381 471.08L857.131 490.61L837.601 482.36L845.851 462.83ZM867.221 471.86L886.751 480.11L878.501 499.64L858.971 491.39L867.221 471.86ZM888.591 480.89L908.121 489.14L899.871 508.67L880.341 500.42L888.591 480.89ZM889.371 479.05L897.621 459.52L917.151 467.77L908.901 487.3L889.371 479.05ZM918.991 468.55L938.521 476.8L930.271 496.33L910.741 488.08L918.991 468.55ZM917.931 465.93L898.401 457.68L906.651 438.15L926.181 446.4L917.931 465.93ZM907.431 436.31L915.681 416.78L935.211 425.03L926.961 444.56L907.431 436.31ZM914.621 414.16L895.091 405.91L903.341 386.38L922.871 394.63L914.621 414.16ZM904.131 384.54L912.381 365.01L931.911 373.26L923.661 392.79L904.131 384.54ZM891.011 355.98L910.541 364.23L902.291 383.76L882.761 375.51L891.011 355.98ZM869.641 346.95L889.171 355.2L880.921 374.73L861.391 366.48L869.641 346.95ZM848.271 337.92L867.801 346.17L859.551 365.7L840.021 357.45L848.271 337.92ZM835.691 332.6L846.431 337.14L838.181 356.67L820.401 349.16L835.691 332.61V332.6ZM818.951 350.72L837.391 358.51L829.141 378.04L809.611 369.79L816.591 353.27L818.941 350.72H818.951ZM812.601 357.6L807.781 369.01L803.671 367.27L812.611 357.6H812.601ZM802.221 368.83L807.001 370.85L798.751 390.38L786.931 385.39L802.221 368.84V368.83ZM785.481 386.94L797.961 392.22L789.711 411.75L770.191 403.5L785.481 386.95V386.94ZM766.181 407.84L759.311 424.09L753.451 421.61L766.171 407.84H766.181ZM736.721 439.72L752.011 423.17L758.531 425.93L750.281 445.46L736.721 439.73V439.72ZM751.351 448.07L770.881 456.32L762.631 475.85L743.101 467.6L751.351 448.07ZM734.061 488.97L742.311 469.44L761.841 477.69L753.591 497.22L734.061 488.97ZM765.931 527.62L746.401 519.37L754.651 499.84L774.181 508.09L765.931 527.62ZM787.301 536.65L767.771 528.4L776.021 508.87L795.551 517.12L787.301 536.65ZM796.331 515.28L776.801 507.03L785.051 487.5L804.581 495.75L796.331 515.28ZM817.701 524.32L798.171 516.07L806.421 496.54L825.951 504.79L817.701 524.32ZM839.071 533.35L819.541 525.1L827.791 505.57L847.321 513.82L839.071 533.35ZM848.101 511.98L828.571 503.73L836.821 484.2L856.351 492.45L848.101 511.98ZM869.471 521.01L849.941 512.76L858.191 493.23L877.721 501.48L869.471 521.01ZM890.841 530.04L871.311 521.79L879.561 502.26L899.091 510.51L890.841 530.04ZM912.211 539.07L892.681 530.82L900.931 511.29L920.461 519.54L912.211 539.07ZM921.241 517.7L901.711 509.45L909.961 489.92L929.491 498.17L921.241 517.7ZM942.611 526.73L923.081 518.48L931.331 498.95L950.861 507.2L942.611 526.73ZM959.891 485.83L951.641 505.36L932.111 497.11L940.361 477.58L959.891 485.83ZM939.301 474.96L919.771 466.71L928.021 447.18L947.551 455.43L939.301 474.96ZM956.581 434.07L948.331 453.6L928.801 445.35L937.051 425.82L956.581 434.07ZM935.991 423.19L916.461 414.94L924.711 395.41L944.241 403.66L935.991 423.19ZM953.271 382.3L945.021 401.83L925.491 393.58L933.741 374.05L953.271 382.3ZM932.681 371.42L913.151 363.17L921.401 343.64L940.931 351.89L932.681 371.42Z" fill="#DDDEE1"/>
<path d="M902.271 222.07C902.431 222.13 902.601 222.19 902.761 222.25C904.371 222.84 905.991 223.42 907.641 224C907.821 224.06 908.011 224.13 908.191 224.19C911.701 225.41 915.311 226.61 919.011 227.77C919.481 227.92 919.951 228.06 920.411 228.21C921.791 228.64 923.181 229.06 924.591 229.48C925.111 229.63 925.621 229.79 926.141 229.94C927.981 230.48 929.831 231.02 931.711 231.55C931.721 231.55 931.731 231.55 931.751 231.56V40.1396H886.811V215.89C891.731 218.03 896.881 220.09 902.261 222.07H902.271Z" fill="#DDDEE1"/>
</g>
<defs>
<clipPath id="clip0_287_74015">
<rect width="960.061" height="540" fill="white"/>
</clipPath>
</defs>
</svg>
