<svg width="960" height="540" viewBox="0 0 960 540" fill="none" xmlns="http://www.w3.org/2000/svg">
<g clip-path="url(#clip0_287_69697)">
<path d="M129.379 372.21C141.039 372.79 152.539 373.08 163.849 373.08C246.749 373.08 320.059 357.65 382.219 327.97L136.309 215.76L129.379 372.2V372.21Z" fill="#1868DB"/>
<path d="M388.14 330.68C324.41 361.91 249.03 378.08 163.85 378.08C152.46 378.08 140.89 377.78 129.16 377.2L124.42 484.17L172.31 507.94L173.99 508.77H374.84V540H764.39V502.35L388.14 330.67V330.68Z" fill="#1868DB"/>
<path d="M184.051 513.77L236.911 540H369.831V513.77H184.051Z" fill="#1868DB"/>
<path d="M0.00976562 513.77V540H225.66L172.81 513.77H0.00976562Z" fill="#1868DB"/>
<path d="M769.391 540H846.891L769.391 504.63V540Z" fill="#1868DB"/>
<path d="M645.99 96.5498V96.5998V380.79H811.09V130.08C795.85 128.53 780.35 126.52 764.6 124.03C727.56 118.18 686.8 109.35 645.99 96.5498Z" fill="#1868DB"/>
<path d="M816.09 125.54C839.93 127.83 863.12 128.98 885.59 128.98C911.1 128.98 935.7 127.52 959.34 124.63V0.370117H816.09V125.54Z" fill="#1868DB"/>
<path d="M112.71 105.37H112.78C126.32 105.37 139.31 104.34 151.7 102.32C184.29 97.0301 212.57 84.9101 235.08 66.5301C255.73 49.6601 271.52 27.5101 281.32 0.370117H0.00976562V74.4201C20.4098 88.1601 44.7198 97.5001 72.0998 102.08C84.9998 104.24 98.5598 105.36 112.71 105.37Z" fill="#1868DB"/>
<path d="M640.99 89.7101V0.370117H524.37L518.99 34.4601C556.62 57.9301 598.69 76.0001 640.99 89.7101Z" fill="#1868DB"/>
<path d="M645.99 91.3001C687.02 104.27 728.09 113.21 765.38 119.09C780.87 121.54 796.11 123.52 811.09 125.05V125.04V0.370117H645.99V91.3001Z" fill="#1868DB"/>
<path d="M141.89 192.65C197.22 192.65 242.8 182.23 280.01 162.59L280.95 161.98L281.05 161.93C322.65 139.95 353.32 106.81 374.15 64.3301L374.96 62.6701L588.609 96.3901L587.62 99.2201C556.22 189.16 502.91 258.97 431.09 306.19C419.19 314.02 406.77 321.21 393.87 327.79L764.38 496.85V448.82H959.34V129.67C935.67 132.53 911.07 133.98 885.59 133.98C863.1 133.98 839.92 132.84 816.09 130.57V385.79H640.99V95.0201V94.9601C597.35 80.9201 553.83 62.2901 514.93 37.8301L513.53 36.9501L519.299 0.370117H286.65C276.62 29.0801 260.03 52.6201 238.24 70.4001C214.97 89.4001 185.82 101.85 152.5 107.25C139.83 109.31 126.57 110.36 112.78 110.36H112.71C98.2995 110.36 84.4595 109.21 71.2795 107C44.5195 102.53 20.4895 93.5801 0.0195312 80.4001V174.18C19.0495 178.81 37.7795 182.53 55.7295 185.36C86.7695 190.26 115.45 192.64 141.9 192.64L141.89 192.65Z" fill="#1868DB"/>
<path d="M769.391 453.83V499.14L858.941 540H959.341V453.83H769.391Z" fill="#1868DB"/>
<path d="M124.38 371.94L131.63 208.14L388.04 325.14C402.06 318.17 415.51 310.46 428.34 302.02C498.45 255.9 550.66 188.07 581.89 100.4L377.81 68.1904C356.62 110.66 325.45 144.11 283.5 166.29L282.54 166.91L282.44 166.96C244.35 187.08 197.88 197.64 141.89 197.64C115.13 197.64 86.1998 195.23 54.9398 190.3C37.2298 187.5 18.7798 183.86 0.00976562 179.33V355.17C14.9498 358.31 29.5598 360.97 43.6298 363.19C71.3798 367.57 98.3098 370.47 124.38 371.94Z" fill="#1868DB"/>
<path d="M119.28 487.2L124.16 376.94C97.8898 375.46 70.7698 372.54 42.8498 368.14C29.0298 365.96 14.6798 363.35 0.00976562 360.29V508.77H162.73L119.28 487.2Z" fill="#1868DB"/>
<path d="M174.398 508.77V508.98L184.048 513.77H369.828V540H374.828V508.77H174.398Z" fill="#4D8CED"/>
<path d="M764.391 502.35V540H769.391V504.63L764.391 502.35Z" fill="#4D8CED"/>
<path d="M645.99 0H640.99V0.37H645.99V0Z" fill="#1558BC"/>
<path d="M645.43 91.1301H645.98V0.370117H640.98V89.7101C642.46 90.1901 643.95 90.6501 645.43 91.1201V91.1301Z" fill="#1558BC"/>
<path d="M816.09 0H811.09V0.37H816.09V0Z" fill="#1558BC"/>
<path d="M816.09 125.54V0.370117H811.09V125.04C812.76 125.21 814.43 125.38 816.09 125.54Z" fill="#1558BC"/>
<path d="M170.08 512.42L162.73 508.77H0.00976562V513.77H172.81L170.08 512.42Z" fill="#1558BC"/>
<path d="M174.4 508.77H173.98L174.4 508.98V508.77Z" fill="#1558BC"/>
<path d="M960.01 448.83H959.34V453.83H960.01V448.83Z" fill="#1558BC"/>
<path d="M764.391 496.86L769.391 499.14V453.83H959.341V448.83H764.391V496.86Z" fill="#1558BC"/>
<path d="M136.299 215.77L382.209 327.98C384.159 327.05 386.109 326.11 388.039 325.14L131.629 208.14L124.379 371.94C126.049 372.03 127.709 372.12 129.369 372.21L136.299 215.77Z" fill="#1558BC"/>
<path d="M174.399 513.77H172.809L225.659 540H236.909L184.049 513.77H174.399Z" fill="#357DE8"/>
<path d="M173.981 508.77L172.301 507.94L171.891 508.77H173.981Z" fill="#357DE8"/>
<path d="M184.048 513.77L174.398 508.98V513.77H184.048Z" fill="#357DE8"/>
<path d="M170.08 512.42L172.81 513.77H174.4V508.98L173.98 508.77H171.89L170.08 512.42Z" fill="#357DE8"/>
<path d="M119.279 487.2L162.729 508.77H171.889L172.299 507.94L124.409 484.17L129.149 377.2C127.489 377.12 125.819 377.03 124.159 376.93L119.279 487.19V487.2Z" fill="#357DE8"/>
<path d="M162.73 508.77L170.08 512.42L171.89 508.77H162.73Z" fill="#357DE8"/>
<path d="M764.388 496.86L393.878 327.8C391.978 328.77 390.068 329.74 388.148 330.68L764.398 502.36V496.86H764.388Z" fill="#357DE8"/>
<path d="M769.391 500.51V504.63L846.891 540H858.941L769.391 499.14V500.51Z" fill="#357DE8"/>
<path d="M764.391 502.35L769.391 504.63V500.51H764.391V502.35Z" fill="#357DE8"/>
<path d="M764.391 500.51H769.391V499.14L764.391 496.86V500.51Z" fill="#357DE8"/>
<path d="M382.208 327.97C320.048 357.65 246.738 373.07 163.838 373.08C152.528 373.08 141.028 372.79 129.368 372.21L129.278 374.24L129.148 377.2C140.878 377.78 152.448 378.08 163.838 378.08C249.018 378.08 324.398 361.91 388.128 330.68L386.948 330.14L382.208 327.98V327.97Z" fill="#357DE8"/>
<path d="M282.219 164.14L283.389 166.35C283.389 166.35 283.469 166.31 283.499 166.29L283.589 166.23L282.219 164.14Z" fill="#357DE8"/>
<path d="M376.4 65.4404L376.01 67.9104L377.82 68.2004C378.1 67.6504 378.38 67.1004 378.65 66.5504L376.41 65.4504L376.4 65.4404Z" fill="#357DE8"/>
<path d="M585.268 98.4001L582.908 97.5801C582.578 98.5301 582.228 99.4601 581.898 100.4L584.878 100.87L585.268 98.4001Z" fill="#357DE8"/>
<path d="M281.268 164.76L280.098 162.55C280.098 162.55 280.038 162.58 280.008 162.6L279.898 162.67L281.268 164.76Z" fill="#357DE8"/>
<path d="M124.16 376.94L124.29 374.02L124.38 371.94C98.2998 370.47 71.3698 367.57 43.6298 363.19C29.5598 360.97 14.9498 358.31 0.00976562 355.17V360.28C14.6798 363.34 29.0298 365.95 42.8498 368.13C70.7698 372.54 97.8898 375.45 124.16 376.93V376.94Z" fill="#357DE8"/>
<path d="M141.89 197.65C197.88 197.65 244.35 187.09 282.44 166.97L282.54 166.92L283.5 166.3C283.5 166.3 283.42 166.34 283.39 166.36L282.22 164.15L283.59 166.24L283.5 166.3C325.45 144.12 356.63 110.67 377.81 68.1997L376 67.9097L376.39 65.4397L378.63 66.5397C378.36 67.0997 378.08 67.6397 377.8 68.1897L581.88 100.4C582.22 99.4597 582.56 98.5197 582.89 97.5797L585.25 98.3997L584.86 100.87L581.88 100.4C550.65 188.07 498.44 255.9 428.33 302.02C415.5 310.46 402.05 318.17 388.03 325.14L389.02 325.59L393.86 327.8C406.76 321.22 419.18 314.03 431.08 306.2C502.9 258.97 556.21 189.17 587.61 99.2297L588.6 96.3997L374.95 62.6797L374.14 64.3397C353.3 106.81 322.63 139.95 281.04 161.94L280.94 161.99L280 162.6C280 162.6 280.06 162.57 280.09 162.55L281.26 164.76L279.89 162.67L280 162.6C242.78 182.23 197.21 192.65 141.88 192.66C115.42 192.66 86.74 190.28 55.71 185.38C37.76 182.55 19.04 178.83 0 174.2V179.35C18.76 183.88 37.21 187.53 54.93 190.32C86.19 195.25 115.13 197.66 141.88 197.66L141.89 197.65Z" fill="#357DE8"/>
<path d="M129.381 372.21C127.721 372.13 126.051 372.04 124.391 371.94L124.301 374.02L129.301 374.24L129.391 372.21H129.381Z" fill="#357DE8"/>
<path d="M386.959 330.14L389.039 325.59L388.049 325.14C386.119 326.1 384.169 327.04 382.219 327.98L386.959 330.14Z" fill="#357DE8"/>
<path d="M124.29 374.02L124.16 376.94C125.83 377.03 127.49 377.12 129.15 377.21L129.28 374.25L124.28 374.03L124.29 374.02Z" fill="#357DE8"/>
<path d="M389.029 325.59L386.949 330.14L388.129 330.68C390.049 329.74 391.959 328.77 393.859 327.8L389.019 325.59H389.029Z" fill="#357DE8"/>
<path d="M811.09 380.79H645.99V96.5998C644.33 96.0798 642.66 95.5498 640.99 95.0098V385.79H816.09V130.57C814.42 130.41 812.76 130.25 811.09 130.08V380.79Z" fill="#4D8CED"/>
<path d="M645.989 91.1299H645.439C645.619 91.1899 645.809 91.2499 645.989 91.3099V91.1299Z" fill="#4D8CED"/>
<path d="M286.65 0.37C286.69 0.25 286.73 0.12 286.78 0H281.46C281.42 0.13 281.37 0.25 281.32 0.37H286.65Z" fill="#4D8CED"/>
<path d="M112.71 110.37H112.78C126.57 110.37 139.84 109.32 152.5 107.26C185.82 101.85 214.98 89.4099 238.24 70.4099C260.03 52.6199 276.62 29.0899 286.65 0.379883H281.32C271.52 27.5199 255.73 49.6699 235.08 66.5399C212.57 84.9199 184.29 97.0399 151.7 102.33C139.31 104.34 126.31 105.38 112.78 105.38H112.71C98.5598 105.38 84.9998 104.25 72.0998 102.09C44.7298 97.5199 20.4198 88.1699 0.00976562 74.4299V80.4199C20.4798 93.5999 44.5198 102.55 71.2698 107.02C84.4498 109.22 98.2898 110.37 112.7 110.38L112.71 110.37Z" fill="#4D8CED"/>
<path d="M959.34 129.67C959.56 129.64 959.78 129.61 960.01 129.59V124.55C959.79 124.58 959.57 124.61 959.34 124.64V129.68V129.67Z" fill="#357DE8"/>
<path d="M524.361 0.37L524.421 0H519.361L519.301 0.37H524.361Z" fill="#357DE8"/>
<path d="M516.25 35.7196L518.72 36.1096L518.98 34.4596C518.52 34.1696 518.04 33.8896 517.58 33.5996L516.25 35.7196Z" fill="#357DE8"/>
<path d="M645.99 91.3596V96.5496C686.8 109.35 727.56 118.18 764.6 124.03C780.36 126.52 795.86 128.53 811.09 130.08V125.06C796.11 123.53 780.87 121.54 765.38 119.1C728.1 113.22 687.02 104.28 645.99 91.3096V91.3696V91.3596Z" fill="#357DE8"/>
<path d="M514.919 37.8301C553.819 62.2901 597.339 80.9201 640.979 94.9601V89.7601V89.7101C598.679 75.9901 556.609 57.9301 518.979 34.4601L518.719 36.1101L516.249 35.7201L517.579 33.6001C518.039 33.8901 518.509 34.1701 518.979 34.4601L524.359 0.370117H519.299L513.529 36.9501L514.929 37.8301H514.919Z" fill="#357DE8"/>
<path d="M816.09 125.55V130.57C839.92 132.85 863.1 133.98 885.59 133.98C911.07 133.98 935.67 132.53 959.34 129.67V124.63C935.69 127.52 911.09 128.98 885.59 128.98C863.12 128.98 839.94 127.84 816.09 125.55Z" fill="#357DE8"/>
<path d="M645.43 91.1297C643.95 90.6597 642.46 90.1997 640.98 89.7197V89.7697C642.41 90.2297 643.83 90.6897 645.26 91.1397H645.43V91.1297Z" fill="#357DE8"/>
<path d="M645.99 91.3601V91.3001C645.81 91.2401 645.62 91.1801 645.44 91.1201H645.27C645.51 91.2001 645.75 91.2801 645.99 91.3501V91.3601Z" fill="#357DE8"/>
<path d="M816.09 125.55C814.43 125.39 812.76 125.22 811.09 125.05C812.76 125.23 814.43 125.39 816.09 125.55Z" fill="#1868DB"/>
<path d="M816.09 125.55C814.43 125.39 812.76 125.23 811.09 125.06V126.35H816.09V125.55Z" fill="#1868DB"/>
<path d="M811.09 126.34V130.08C812.76 130.25 814.42 130.4 816.09 130.56V126.34H811.09Z" fill="#1868DB"/>
<path d="M640.98 94.96V95.02H640.99V94.96H640.98Z" fill="#1868DB"/>
<path d="M645.99 96.55C644.32 96.03 642.66 95.5 640.99 94.96V95.02C642.66 95.56 644.33 96.08 645.99 96.61V96.56V96.55Z" fill="#1868DB"/>
<path d="M640.99 91.1298V89.7598H640.98V94.9598H640.99V91.1298Z" fill="#1868DB"/>
<path d="M645.26 91.1298C643.84 90.6798 642.41 90.2198 640.98 89.7598V91.1298H645.26Z" fill="#1868DB"/>
<path d="M645.26 91.1299H640.98V94.9599C642.65 95.4999 644.31 96.0299 645.98 96.5499V91.3599C645.74 91.2799 645.5 91.2099 645.26 91.1299Z" fill="#1868DB"/>
</g>
<defs>
<clipPath id="clip0_287_69697">
<rect width="960" height="540" fill="white"/>
</clipPath>
</defs>
</svg>
