<svg width="960" height="540" viewBox="0 0 960 540" fill="none" xmlns="http://www.w3.org/2000/svg">
<g clip-path="url(#clip0_287_69811)">
<path d="M130.039 371.83C141.699 372.41 153.199 372.7 164.509 372.7C247.409 372.7 320.719 357.27 382.879 327.59L136.969 215.38L130.039 371.82V371.83Z" fill="#8C8F97"/>
<path d="M142.56 192.28C197.89 192.28 243.47 181.86 280.68 162.22L281.61 161.61L281.71 161.56C323.31 139.58 353.98 106.44 374.81 63.96L375.62 62.3L589.27 96.02L588.28 98.85C556.88 188.79 503.57 258.6 431.75 305.82C419.85 313.65 407.43 320.84 394.53 327.42L765.04 496.48V448.45H960V129.29C936.33 132.15 911.73 133.6 886.25 133.6C863.76 133.6 840.58 132.46 816.75 130.19V385.41H641.65V94.59C598.01 80.55 554.49 61.92 515.59 37.46L514.19 36.58L519.96 0H287.31C277.28 28.71 260.69 52.25 238.9 70.03C215.63 89.03 186.48 101.48 153.16 106.88C140.49 108.94 127.23 109.99 113.44 109.99H113.36C98.94 109.99 85.11 108.84 71.93 106.63C44.88 102.11 20.61 93.02 0 79.6V173.64C19.26 178.35 38.22 182.12 56.37 184.98C87.41 189.88 116.09 192.26 142.54 192.26L142.56 192.28Z" fill="#8C8F97"/>
<path d="M770.049 540H848.379L770.049 504.26V540Z" fill="#8C8F97"/>
<path d="M646.65 90.93C687.68 103.9 728.75 112.84 766.04 118.72C781.54 121.17 796.78 123.15 811.76 124.68V0H646.66V90.93H646.65Z" fill="#8C8F97"/>
<path d="M113.37 105H113.45C126.98 105 139.98 103.97 152.37 101.96C184.96 96.6698 213.24 84.5498 235.75 66.1698C256.4 49.2998 272.19 27.1498 281.99 0.00976562H0.00976562V73.6098C20.5498 87.5998 45.0898 97.0998 72.7598 101.72C85.6598 103.88 99.2198 105 113.37 105.01V105Z" fill="#8C8F97"/>
<path d="M886.26 128.6C911.77 128.6 936.37 127.14 960.01 124.25V0H816.76V125.17C840.61 127.46 863.79 128.6 886.26 128.6Z" fill="#8C8F97"/>
<path d="M641.65 89.34V0H525.03L519.65 34.09C557.28 57.56 599.35 75.62 641.65 89.34Z" fill="#8C8F97"/>
<path d="M0.00976562 513.39V540H227.08L173.47 513.39H0.00976562Z" fill="#8C8F97"/>
<path d="M388.81 330.3C325.08 361.53 249.7 377.7 164.52 377.7C153.13 377.7 141.56 377.4 129.83 376.82L125.09 483.79L172.98 507.56L174.66 508.39H375.51V540H765.06V501.98L388.81 330.3Z" fill="#8C8F97"/>
<path d="M770.049 498.76L860.419 540H960.009V453.46H770.049V498.76Z" fill="#8C8F97"/>
<path d="M811.76 380.42V129.71C796.52 128.16 781.02 126.15 765.26 123.66C728.22 117.81 687.46 108.98 646.65 96.1797V380.42H811.75H811.76Z" fill="#8C8F97"/>
<path d="M184.721 513.39L238.331 540H370.501V513.39H184.721Z" fill="#8C8F97"/>
<path d="M163.4 508.39L119.95 486.82L124.83 376.56C98.5598 375.08 71.4398 372.16 43.5198 367.76C29.4898 365.55 14.9198 362.9 0.00976562 359.77V508.39H163.4Z" fill="#8C8F97"/>
<path d="M125.05 371.57L132.3 207.77L388.71 324.77C402.73 317.8 416.18 310.09 429.01 301.65C499.12 255.53 551.33 187.7 582.56 100.03L378.48 67.8203C357.29 110.29 326.12 143.74 284.16 165.92L283.2 166.54L283.1 166.59C245.01 186.71 198.54 197.27 142.55 197.27C115.79 197.27 86.8598 194.86 55.5998 189.93C37.6798 187.1 18.9998 183.4 0.00976562 178.8V354.67C15.1798 357.87 30.0198 360.57 44.2898 362.83C72.0398 367.21 98.9698 370.11 125.04 371.58L125.05 371.57Z" fill="#8C8F97"/>
<path d="M175.061 508.39V508.6L184.721 513.39H370.501V540H375.501V508.39H175.061Z" fill="#B7B9BE"/>
<path d="M765.049 501.98V540H770.049V504.26L765.049 501.98Z" fill="#B7B9BE"/>
<path d="M646.1 90.75H646.65V0H641.65V89.34C643.13 89.82 644.62 90.28 646.1 90.75Z" fill="#7D818A"/>
<path d="M816.76 125.17V0H811.76V124.68C813.43 124.85 815.1 125.01 816.76 125.17Z" fill="#7D818A"/>
<path d="M170.75 512.04L163.4 508.39H0.00976562V513.39H173.47L170.75 512.04Z" fill="#7D818A"/>
<path d="M175.06 508.39H174.65L175.06 508.6V508.39Z" fill="#7D818A"/>
<path d="M765.049 496.48L770.049 498.76V453.46H960.009V448.46H765.049V496.48Z" fill="#7D818A"/>
<path d="M125.049 371.57C126.719 371.66 128.379 371.75 130.039 371.84L136.969 215.4L382.879 327.61C384.829 326.68 386.779 325.74 388.709 324.78L132.299 207.78L125.049 371.58V371.57Z" fill="#7D818A"/>
<path d="M175.06 508.6L174.65 508.39L172.97 507.56L170.75 512.04L173.47 513.39L227.08 540H238.33L184.72 513.39L175.06 508.6Z" fill="#B7B9BE"/>
<path d="M172.969 507.56L125.079 483.79L129.819 376.82C128.159 376.74 126.489 376.65 124.829 376.55L119.949 486.81L163.399 508.38L170.749 512.03L172.969 507.55V507.56Z" fill="#B7B9BE"/>
<path d="M765.051 496.48L394.541 327.42C392.641 328.39 390.731 329.36 388.811 330.3L765.061 501.98L770.061 504.26L848.391 540H860.431L770.061 498.76L765.061 496.48H765.051Z" fill="#B7B9BE"/>
<path d="M124.83 376.56C126.5 376.65 128.16 376.74 129.82 376.83C141.55 377.41 153.12 377.71 164.51 377.71C249.69 377.71 325.07 361.54 388.8 330.31C390.72 329.37 392.63 328.4 394.53 327.43C407.43 320.85 419.85 313.66 431.75 305.83C503.57 258.6 556.88 188.8 588.28 98.8596L589.27 96.0296L375.62 62.3096L374.81 63.9696C353.97 106.44 323.3 139.58 281.71 161.57L281.61 161.62L280.68 162.23C243.47 181.86 197.89 192.28 142.56 192.29C116.1 192.29 87.4195 189.91 56.3895 185.01C38.2295 182.14 19.2795 178.37 0.0195312 173.67V178.82C19.0095 183.42 37.6895 187.12 55.6095 189.95C86.8695 194.88 115.81 197.29 142.56 197.29C198.55 197.29 245.02 186.73 283.11 166.61L283.21 166.56L284.17 165.94C326.12 143.76 357.3 110.31 378.49 67.8396L582.57 100.05C551.34 187.72 499.13 255.55 429.02 301.67C416.19 310.11 402.74 317.82 388.72 324.79C386.79 325.75 384.84 326.69 382.89 327.62C320.73 357.3 247.42 372.72 164.52 372.73C153.21 372.73 141.71 372.44 130.05 371.86C128.39 371.78 126.72 371.69 125.06 371.59C98.9795 370.12 72.0495 367.22 44.3095 362.84C30.0295 360.59 15.1995 357.89 0.0295312 354.68V359.79C14.9295 362.92 29.4995 365.56 43.5395 367.78C71.4595 372.19 98.5795 375.11 124.85 376.58L124.83 376.56Z" fill="#B7B9BE"/>
<path d="M811.76 380.42H646.66V96.1798C644.99 95.6598 643.33 95.1298 641.66 94.5898V385.42H816.76V130.2C815.09 130.04 813.43 129.88 811.76 129.71V380.42Z" fill="#B7B9BE"/>
<path d="M646.1 90.75C646.28 90.81 646.47 90.87 646.65 90.93V90.75H646.1Z" fill="#B7B9BE"/>
<path d="M113.37 110H113.45C127.24 110 140.51 108.95 153.17 106.89C186.49 101.48 215.65 89.0398 238.91 70.0398C260.7 52.2498 277.29 28.7198 287.32 0.00976562H281.99C272.19 27.1498 256.4 49.2998 235.75 66.1698C213.24 84.5498 184.96 96.6698 152.37 101.96C139.98 103.97 126.99 105 113.45 105H113.37C99.2198 105 85.6598 103.87 72.7598 101.71C45.0898 97.0898 20.5498 87.5898 0.00976562 73.5998V79.6198C20.6198 93.0298 44.8898 102.13 71.9398 106.65C85.1198 108.85 98.9598 110 113.37 110.01V110Z" fill="#B7B9BE"/>
<path d="M515.589 37.4598C554.489 61.9198 598.009 80.5498 641.649 94.5898C643.319 95.1298 644.979 95.6598 646.649 96.1798C687.459 108.98 728.219 117.81 765.259 123.66C781.019 126.15 796.519 128.16 811.759 129.71C813.429 129.88 815.089 130.04 816.759 130.2C840.589 132.47 863.769 133.61 886.259 133.61C911.739 133.61 936.339 132.16 960.009 129.3V124.26C936.359 127.15 911.759 128.61 886.259 128.61C863.789 128.61 840.609 127.47 816.759 125.18C815.099 125.02 813.429 124.86 811.759 124.69C796.779 123.16 781.539 121.17 766.039 118.73C728.759 112.85 687.679 103.91 646.649 90.9398C646.469 90.8798 646.279 90.8198 646.099 90.7598C644.619 90.2898 643.129 89.8298 641.649 89.3498C599.349 75.6298 557.279 57.5698 519.649 34.0998L525.029 0.00976562H519.969L514.199 36.5898L515.599 37.4698L515.589 37.4598Z" fill="#B7B9BE"/>
</g>
<defs>
<clipPath id="clip0_287_69811">
<rect width="960" height="540" fill="white"/>
</clipPath>
</defs>
</svg>
