<svg width="960" height="540" viewBox="0 0 960 540" fill="none" xmlns="http://www.w3.org/2000/svg">
<g clip-path="url(#clip0_287_69875)">
<path d="M769.391 499.15L858.941 540.01H960.011V453.84H769.391V499.15Z" fill="#FCA700"/>
<path d="M811.09 380.8V130.09C795.85 128.54 780.35 126.53 764.6 124.04C727.56 118.19 686.8 109.36 645.99 96.5596V380.8H811.09Z" fill="#FCA700"/>
<path d="M124.38 371.95L131.63 208.15L388.04 325.15C402.06 318.18 415.51 310.47 428.34 302.03C498.45 255.91 550.66 188.08 581.89 100.41L377.81 68.2002C356.62 110.67 325.45 144.12 283.5 166.3L282.54 166.92L282.44 166.97C244.35 187.09 197.88 197.65 141.89 197.65C115.13 197.65 86.1998 195.24 54.9398 190.31C37.2298 187.51 18.7798 183.87 0.00976562 179.34V355.18C14.9498 358.32 29.5598 360.98 43.6298 363.2C71.3798 367.58 98.3098 370.48 124.38 371.95Z" fill="#FCA700"/>
<path d="M885.59 128.99C911.34 128.99 936.16 127.49 960.01 124.55V0.00976562H816.09V125.56C839.94 127.85 863.12 128.99 885.59 128.99Z" fill="#FCA700"/>
<path d="M162.73 508.78L119.28 487.21L124.16 376.95C97.8898 375.47 70.7698 372.55 42.8498 368.15C29.0298 365.97 14.6798 363.36 0.00976562 360.3V508.78H162.73Z" fill="#FCA700"/>
<path d="M129.379 372.22C141.039 372.8 152.539 373.09 163.849 373.09C246.749 373.09 320.059 357.66 382.219 327.98L136.309 215.77L129.379 372.21V372.22Z" fill="#FCA700"/>
<path d="M640.99 89.7198V0.00976562H524.43L518.99 34.4698C556.62 57.9398 598.69 76.0098 640.99 89.7198Z" fill="#FCA700"/>
<path d="M645.99 91.3098C687.02 104.28 728.09 113.22 765.38 119.1C780.88 121.55 796.12 123.53 811.1 125.06V0.00976562H646V91.3098H645.99Z" fill="#FCA700"/>
<path d="M112.71 105.38H112.78C126.32 105.38 139.31 104.35 151.7 102.33C184.29 97.04 212.57 84.92 235.08 66.54C255.82 49.59 271.67 27.31 281.46 0H0.00976562V74.42C20.4098 88.16 44.7198 97.5 72.0998 102.08C84.9998 104.24 98.5598 105.36 112.71 105.37V105.38Z" fill="#FCA700"/>
<path d="M141.89 192.66C197.22 192.66 242.8 182.24 280.01 162.6L280.95 161.99L281.05 161.94C322.65 139.96 353.32 106.82 374.15 64.3398L374.96 62.6798L588.61 96.3998L587.62 99.2298C556.22 189.17 502.91 258.98 431.09 306.2C419.19 314.03 406.77 321.22 393.87 327.8L764.38 496.86V448.83H960V129.6C936.12 132.52 911.3 133.99 885.58 133.99C863.09 133.99 839.91 132.85 816.08 130.58V385.8H640.98V94.9698C597.34 80.9298 553.82 62.2998 514.92 37.8398L513.52 36.9598L519.35 0.00976562H286.77C276.75 28.8898 260.11 52.5598 238.23 70.4198C214.96 89.4198 185.81 101.87 152.49 107.27C139.82 109.33 126.56 110.38 112.77 110.38H112.7C98.2898 110.38 84.4498 109.23 71.2698 107.02C44.5098 102.55 20.4798 93.5998 0.00976562 80.4198V174.2C19.0398 178.83 37.7698 182.55 55.7198 185.38C86.7598 190.28 115.44 192.66 141.89 192.66Z" fill="#FCA700"/>
<path d="M184.049 513.779L236.909 540.009H369.829V513.779H184.049Z" fill="#FCA700"/>
<path d="M388.14 330.69C324.41 361.92 249.03 378.09 163.85 378.09C152.46 378.09 140.89 377.79 129.16 377.21L124.42 484.18L172.31 507.95L173.99 508.78H374.84V540.01H764.39V502.36L388.14 330.68V330.69Z" fill="#FCA700"/>
<path d="M0.00976562 513.779V540.009H225.66L172.81 513.779H0.00976562Z" fill="#FCA700"/>
<path d="M769.391 540.01H846.891L769.391 504.64V540.01Z" fill="#FCA700"/>
<path d="M645.43 91.1398H645.98V0.00976562H640.98V89.7198C642.46 90.1998 643.95 90.6598 645.43 91.1298V91.1398Z" fill="#FA8700"/>
<path d="M816.09 125.56V0.00976562H811.09V125.07C812.76 125.24 814.43 125.4 816.09 125.56Z" fill="#FA8700"/>
<path d="M170.08 512.429L162.73 508.779H0.00976562V513.779H172.81L170.08 512.429Z" fill="#FA8700"/>
<path d="M174.4 508.779H173.98L174.4 508.989V508.779Z" fill="#FA8700"/>
<path d="M764.391 496.87L769.391 499.15V453.84H960.011V448.84H764.391V496.87Z" fill="#FA8700"/>
<path d="M124.379 371.949C126.049 372.039 127.709 372.129 129.369 372.219L136.299 215.779L382.209 327.989C384.159 327.059 386.109 326.119 388.039 325.149L131.629 208.149L124.379 371.949Z" fill="#FFC716"/>
<path d="M174.4 508.779V508.989L184.05 513.779H369.83V540.009H374.83V508.779H174.4Z" fill="#FA8700"/>
<path d="M764.391 502.359V540.009H769.391V504.639L764.391 502.359Z" fill="#FA8700"/>
<path d="M174.4 508.99L173.98 508.78L172.3 507.95L170.08 512.43L172.81 513.78L225.66 540.01H236.91L184.05 513.78L174.4 508.99Z" fill="#FFC716"/>
<path d="M172.299 507.949L124.409 484.179L129.149 377.209C127.489 377.129 125.819 377.039 124.159 376.939L119.279 487.199L162.729 508.769L170.079 512.419L172.299 507.939V507.949Z" fill="#FFC716"/>
<path d="M764.39 496.87L393.88 327.81C391.98 328.78 390.07 329.75 388.15 330.69L764.4 502.37L769.4 504.65L846.91 540.02H858.95L769.4 499.16L764.4 496.88L764.39 496.87Z" fill="#FFC716"/>
<path d="M124.16 376.95C125.83 377.04 127.49 377.13 129.15 377.22C140.88 377.8 152.45 378.1 163.84 378.1C249.02 378.1 324.4 361.93 388.13 330.7C390.05 329.76 391.96 328.79 393.86 327.82C406.76 321.24 419.18 314.05 431.08 306.22C502.9 258.99 556.21 189.19 587.61 99.2502L588.6 96.4202L374.95 62.7002L374.14 64.3602C353.3 106.83 322.63 139.97 281.04 161.96L280.94 162.01L280 162.62C242.78 182.25 197.21 192.67 141.88 192.68C115.42 192.68 86.74 190.3 55.71 185.4C37.76 182.57 19.04 178.85 0 174.22V179.37C18.76 183.9 37.21 187.55 54.93 190.34C86.19 195.27 115.13 197.68 141.88 197.68C197.87 197.68 244.34 187.12 282.43 167L282.53 166.95L283.49 166.33C325.44 144.15 356.62 110.7 377.8 68.2302L581.88 100.44C550.65 188.11 498.44 255.94 428.33 302.06C415.5 310.5 402.05 318.21 388.03 325.18C386.1 326.14 384.15 327.08 382.2 328.02C320.04 357.7 246.73 373.12 163.83 373.13C152.52 373.13 141.02 372.84 129.36 372.26C127.7 372.18 126.03 372.09 124.37 371.99C98.29 370.52 71.36 367.62 43.62 363.24C29.55 361.02 14.94 358.36 0 355.22V360.33C14.67 363.39 29.02 366 42.84 368.18C70.76 372.59 97.88 375.5 124.15 376.98L124.16 376.95Z" fill="#FA8700"/>
<path d="M645.43 91.1396C645.61 91.1996 645.8 91.2596 645.98 91.3196V91.1396H645.43Z" fill="#FA8700"/>
<path d="M811.09 380.8H645.99V96.5597C644.32 96.0397 642.66 95.5097 640.99 94.9697V385.8H816.09V130.58C814.42 130.42 812.76 130.26 811.09 130.09V380.8Z" fill="#FA8700"/>
<path d="M112.71 110.38H112.78C126.57 110.38 139.84 109.33 152.5 107.27C185.82 101.86 214.98 89.4198 238.24 70.4198C260.12 52.5598 276.76 28.8898 286.78 0.00976562H281.46C271.67 27.3198 255.82 49.5998 235.08 66.5498C212.57 84.9298 184.29 97.0498 151.7 102.34C139.31 104.35 126.31 105.39 112.78 105.39H112.71C98.5598 105.39 84.9998 104.26 72.0998 102.1C44.7298 97.5298 20.4198 88.1798 0.00976562 74.4398V80.4298C20.4798 93.6098 44.5198 102.56 71.2698 107.03C84.4498 109.23 98.2898 110.38 112.7 110.39L112.71 110.38Z" fill="#FFC716"/>
<path d="M514.919 37.8393C553.819 62.2993 597.339 80.9293 640.979 94.9693C642.649 95.5093 644.309 96.0393 645.979 96.5593C686.789 109.359 727.55 118.189 764.59 124.039C780.35 126.529 795.85 128.539 811.08 130.089C812.75 130.259 814.41 130.419 816.08 130.579C839.91 132.849 863.09 133.989 885.58 133.989C911.3 133.989 936.12 132.509 960 129.599V124.559C936.15 127.499 911.33 128.999 885.58 128.999C863.11 128.999 839.93 127.859 816.08 125.569C814.42 125.409 812.75 125.249 811.08 125.079C796.1 123.549 780.859 121.559 765.359 119.119C728.079 113.239 687 104.299 645.97 91.3293C645.79 91.2693 645.599 91.2093 645.419 91.1493C643.939 90.6793 642.45 90.2193 640.97 89.7393C598.67 76.0193 556.6 57.9593 518.97 34.4893L524.41 0.0292969H519.35L513.52 36.9793L514.919 37.8593V37.8393Z" fill="#FFC716"/>
</g>
<defs>
<clipPath id="clip0_287_69875">
<rect width="960" height="540" fill="white"/>
</clipPath>
</defs>
</svg>
