<svg width="80" height="80" viewBox="0 0 80 80" fill="none" xmlns="http://www.w3.org/2000/svg">
<style>
:root {
	color-scheme: light dark;
	--chat-illustration-purple: #AF59E1;
	--chat-illustration-orange: #FCA700;
	--chat-illustration-blue: #1868DB;
	--chat-illustration-green: #6A9A23;
	--chat-illustration-secondary-bubble: #DDDEE1;
	--chat-illustration-shadow: #101214;
}
@media (prefers-color-scheme: dark) {
	:root {
		--chat-illustration-orange: #E56E00;
		--chat-illustration-blue: #1558BC;
		--chat-illustration-secondary-bubble: #4B4D51;
	}
}
.chat-illustration-purple { fill: var(--chat-illustration-purple); }
.chat-illustration-orange { fill: var(--chat-illustration-orange); }
.chat-illustration-blue { fill: var(--chat-illustration-blue); }
.chat-illustration-green { fill: var(--chat-illustration-green); }
.chat-illustration-secondary-bubble { fill: var(--chat-illustration-secondary-bubble); }
.chat-illustration-shadow { fill: var(--chat-illustration-shadow); }
</style>
<mask id="mask0_213_29656" style="mask-type:luminance" maskUnits="userSpaceOnUse" x="3" y="9" width="48" height="50">
<path d="M50.99 27.93C50.99 33.57 49.04 37.81 45.72 40.8C44.13 42.24 42.2 43.38 40.04 44.27C36.56 45.7 32.43 46.41 27.93 46.48L15.74 58.36V44.83C15.12 44.63 14.53 44.42 13.95 44.18C11.86 43.3 9.99 42.19 8.42 40.8C5.02 37.8 3 33.57 3 27.93C3 22.29 5.09 17.76 8.57 14.7C10.11 13.35 11.92 12.26 13.94 11.4C17.72 9.79 22.26 9 27.17 9C32.08 9 36.37 9.76 40.04 11.29C42.13 12.15 44 13.28 45.57 14.69C48.98 17.76 50.99 22.12 50.99 27.92V27.93Z" fill="white"/>
</mask>
<g mask="url(#mask0_213_29656)">
<path class="chat-illustration-purple" d="M103.89 -57.97H-54.6699V85.08H103.89V-57.97Z"/>
<path class="chat-illustration-orange" d="M55.9501 -57.97H-54.6699V-11.37C-40.3399 5.02003 -20.0699 15.55 4.24008 19.61C9.10008 20.42 14.1201 20.98 19.2901 21.27C22.0901 21.43 24.9301 21.51 27.8101 21.51C35.6701 21.51 43.2301 20.91 50.4401 19.74C71.8001 16.27 90.0501 7.72003 103.89 -5.44997V-57.97H55.9501Z"/>
<path class="chat-illustration-blue" d="M55.95 -57.97C38.09 -44.64 25.85 -25.01 21.27 0.280029C20.07 6.89003 19.4 13.9 19.29 21.27C19.28 22.02 19.27 22.77 19.27 23.53C19.27 31.62 19.94 39.28 21.24 46.47C23.91 61.33 29.25 74.24 36.82 85.07H103.89V-57.97H55.95Z"/>
<path class="chat-illustration-green" d="M50.4401 19.74C92.7601 12.86 122.91 -13.92 130.65 -57.24C131.83 -63.87 132.49 -70.89 132.59 -78.28C130.09 -78.41 127.56 -78.47 125 -78.47C116.8 -78.47 108.93 -77.82 101.44 -76.57C59.1601 -69.51 29.0901 -42.85 21.2901 0.280029C20.0901 6.89003 19.4201 13.9 19.3101 21.27C22.1101 21.43 24.9501 21.51 27.8301 21.51C35.6901 21.51 43.2501 20.91 50.4601 19.74H50.4401Z"/>
</g>
<path class="chat-illustration-secondary-bubble" d="M28.6099 45.53C28.6099 51.17 30.5599 55.41 33.8799 58.4C35.4699 59.84 37.3999 60.98 39.5599 61.87C43.0399 63.3 47.1699 64.01 51.6699 64.08L63.8599 75.96V62.43C64.4799 62.23 65.0699 62.02 65.6499 61.78C67.7399 60.9 69.6099 59.79 71.1799 58.4C74.5799 55.4 76.5999 51.17 76.5999 45.53C76.5999 39.89 74.5099 35.36 71.0299 32.3C69.4899 30.95 67.6799 29.86 65.6599 29C61.8799 27.39 57.3399 26.6 52.4299 26.6C47.5199 26.6 43.2299 27.36 39.5599 28.89C37.4699 29.75 35.5999 30.88 34.0299 32.29C30.6199 35.36 28.6099 39.72 28.6099 45.52V45.53Z"/>
<path class="chat-illustration-shadow" d="M51.0099 27.93C51.0099 33.57 49.0499 37.81 45.7399 40.8C44.1399 42.24 42.2099 43.38 40.0599 44.27C36.7599 45.62 32.8799 46.33 28.6499 46.46C28.6399 46.15 28.6299 45.84 28.6299 45.53C28.6299 39.74 30.6399 35.38 34.0499 32.3C35.6199 30.91 37.4799 29.78 39.5699 28.91C42.8699 27.53 46.7499 26.78 50.9799 26.64C50.9999 27.07 51.0099 27.49 51.0099 27.93Z"/>
</svg>
