<svg width="961" height="540" viewBox="0 0 961 540" fill="none" xmlns="http://www.w3.org/2000/svg">
<path d="M840.46 482.47C839.59 490.86 839.17 508.94 848.46 525.67C846.77 525.82 845.07 525.93 843.34 525.93C816.45 525.93 793.88 507.43 787.65 482.47H744.99V539.99H960V482.47H840.46Z" fill="#CFE1FD"/>
<path d="M456.74 482.47H420.8V343.39H871.47V202.62H960.01V133.73H914.71L894.7 167.6L875.59 133.73H812.63C814.27 134.95 815.85 136.24 817.35 137.59C830.91 149.8 838.94 167.16 838.94 190.24C838.94 213.32 831.15 229.55 817.95 241.49C811.6 247.23 803.96 251.77 795.36 255.28C792.19 256.57 788.89 257.71 785.47 258.72C785.35 264.04 786.06 271.95 790.19 279.39C789.24 279.47 788.29 279.54 787.32 279.54C775.42 279.54 765.02 273.09 759.43 263.49C754.46 263.93 749.36 264.15 744.12 264.15C724.57 264.15 706.55 261.15 691.47 254.9C683.14 251.44 675.69 247.01 669.44 241.48C655.94 229.55 647.89 212.66 647.89 190.23C647.89 167.8 656.19 149.8 670.06 137.58C676.18 132.19 683.41 127.83 691.47 124.41C704.71 118.79 720.23 115.72 737.05 115.06V64.36H715.64C709.74 79.04 695.38 89.41 678.59 89.41C677.39 89.41 676.21 89.33 675.03 89.23C679.96 80.35 680.96 70.92 680.88 64.36H617.81V25.7H490.62V0H441.55V112.56H632.36V280.74H563.91L543.16 315.87L523.34 280.74H399.37C400.93 285.51 401.75 290.69 401.75 296.32C401.75 313.73 393.69 326.84 380.17 336.11C373.91 340.4 366.46 343.84 358.11 346.52C343.01 351.37 324.96 353.7 305.38 353.7C296.24 353.7 287.48 353.18 279.22 352.14C273.26 362.73 261.92 369.89 248.9 369.89C247.85 369.89 246.82 369.82 245.8 369.73C250.72 360.86 251.14 351.37 250.82 345.73C243.52 343.17 236.98 339.99 231.43 336.1C218.21 326.83 210.41 313.73 210.41 296.31C210.41 278.89 218.45 264.92 232.04 255.44C238.28 251.09 245.72 247.62 254.06 244.92C268.73 240.17 286.23 237.85 305.39 237.85C308.83 237.85 312.22 237.93 315.57 238.08V171.47H234.76C234.08 180.55 234.4 197.09 242.95 212.5C241.26 212.65 239.56 212.76 237.83 212.76C211.72 212.76 189.7 195.33 182.73 171.47H153.52V251.33H102.86C102.41 255.87 102.25 265.35 107.13 274.14C106.23 274.22 105.33 274.28 104.41 274.28C90.16 274.28 78.2 264.53 74.82 251.33H27.43V171.47H0V248.03C2.96 250.19 5.8 252.46 8.48 254.88C30.02 274.27 42.77 301.83 42.77 338.47C42.77 375.11 30.4 400.89 9.44 419.84C6.47 422.52 3.32 425.03 0 427.39V539.98H18.97V487.67H72.18V395.46H345.47V519.81H277.36L265.44 539.98H456.74V482.46V482.47Z" fill="#CFE1FD"/>
<path d="M178.73 519.81V539.99H238.35L226.97 519.81H178.73Z" fill="#CFE1FD"/>
<path d="M737.04 133.73V115.07C720.22 115.73 704.7 118.8 691.46 124.42C683.4 127.84 676.17 132.2 670.05 137.59C656.18 149.8 647.88 167.16 647.88 190.24C647.88 213.32 655.93 229.55 669.43 241.49C675.68 247.02 683.12 251.45 691.46 254.91C706.54 261.16 724.56 264.16 744.11 264.16C749.35 264.16 754.46 263.93 759.42 263.5C756.64 258.74 755.05 253.2 755.05 247.29L786.07 252.44C786.07 252.44 785.55 254.92 785.46 258.74C788.88 257.73 792.19 256.59 795.35 255.3C803.95 251.79 811.59 247.25 817.94 241.51C831.14 229.58 838.93 212.69 838.93 190.26C838.93 167.83 830.9 149.83 817.34 137.61C815.84 136.26 814.26 134.97 812.62 133.75H737.04V133.73Z" fill="#E9F2FE"/>
<path d="M755.04 247.27C755.04 253.18 756.64 258.72 759.41 263.48C765 273.07 775.39 279.53 787.3 279.53C788.27 279.53 789.23 279.47 790.17 279.38C786.04 271.94 785.33 264.03 785.45 258.71C785.54 254.89 786.06 252.41 786.06 252.41L755.04 247.26V247.27Z" fill="#E9F2FE"/>
<path d="M315.55 280.74V238.09C312.21 237.94 308.82 237.86 305.37 237.86C286.22 237.86 268.71 240.18 254.04 244.93C245.7 247.63 238.26 251.1 232.02 255.45C218.44 264.93 210.39 278.4 210.39 296.32C210.39 314.24 218.19 326.84 231.41 336.11C236.96 340 243.5 343.18 250.8 345.74C250.62 342.61 250.21 340.66 250.21 340.66L283.66 335.11C283.66 341.3 282.04 347.11 279.2 352.14C287.46 353.18 296.22 353.7 305.36 353.7C324.94 353.7 342.99 351.37 358.09 346.52C366.44 343.84 373.89 340.4 380.15 336.11C393.67 326.84 401.73 313.74 401.73 296.32C401.73 290.69 400.91 285.5 399.35 280.74H315.53H315.55Z" fill="#E9F2FE"/>
<path d="M250.23 340.66C250.23 340.66 250.64 342.61 250.82 345.74C251.14 351.38 250.72 360.87 245.8 369.74C246.82 369.83 247.85 369.9 248.9 369.9C261.92 369.9 273.26 362.74 279.22 352.15C282.05 347.11 283.68 341.31 283.68 335.12L250.23 340.67V340.66Z" fill="#E9F2FE"/>
<path d="M27.43 149.46H153.51V171.48H182.72C181.22 166.36 180.41 160.96 180.41 155.36L235.62 164.52C235.62 164.52 235.07 167.16 234.74 171.49H315.55V112.57H441.54V0H343.3C339.06 23.2 328.4 41.61 312.92 55.6C303.11 64.47 291.3 71.49 278.01 76.91C255.38 86.15 228.36 90.62 198.81 90.62C169.26 90.62 140.75 85.99 117.45 76.33C104.57 70.99 93.07 64.14 83.41 55.6C67.58 41.61 56.61 23.2 52.23 0H0V171.48H27.43V149.46Z" fill="#E9F2FE"/>
<path d="M83.4105 55.6C93.0705 64.14 104.57 70.99 117.45 76.33C140.75 85.99 168.61 90.62 198.81 90.62C229.01 90.62 255.37 86.15 278.01 76.91C291.29 71.49 303.11 64.47 312.92 55.6C328.4 41.61 339.06 23.2 343.3 0H52.2305C56.6105 23.2 67.5805 41.61 83.4105 55.6Z" fill="#CFE1FD"/>
<path d="M960 202.61H871.46V343.38H960V202.61Z" fill="#E9F2FE"/>
<path d="M456.74 482.47V539.99V540H744.99V539.99V482.47H456.74Z" fill="#E9F2FE"/>
<path d="M871.46 343.39H420.79V482.47H456.73V422.42H744.98V482.47H787.64C786.53 478 785.92 473.33 785.92 468.52L841.13 477.68C841.13 477.68 840.76 479.46 840.45 482.47H959.99V447.43H871.45V343.39H871.46Z" fill="#E9F2FE"/>
<path d="M456.74 422.42V482.47H744.99V422.42H456.74Z" fill="#CFE1FD"/>
<path d="M960 348.39H876.46V442.43H960V348.39Z" fill="#E9F2FE"/>
<path d="M871.46 343.39V447.43H960V442.43H876.46V348.39H960V343.39H871.46Z" fill="#CFE1FD"/>
<path d="M785.93 468.52C785.93 473.33 786.53 478 787.65 482.47C793.88 507.43 816.45 525.93 843.34 525.93C845.07 525.93 846.77 525.82 848.46 525.67C839.17 508.93 839.59 490.86 840.46 482.47C840.77 479.45 841.14 477.68 841.14 477.68L785.93 468.52Z" fill="#E9F2FE"/>
<path d="M180.42 155.35C180.42 160.95 181.24 166.36 182.73 171.47C189.7 195.32 211.72 212.76 237.83 212.76C239.56 212.76 241.26 212.65 242.95 212.5C234.4 197.09 234.08 180.55 234.76 171.47C235.09 167.14 235.64 164.5 235.64 164.5L180.43 155.34L180.42 155.35Z" fill="#E9F2FE"/>
<path d="M178.73 519.81H226.97L226.07 518.21L278 518.72L277.35 519.81H345.47V395.47H72.1797V487.67H178.73V519.81Z" fill="#E9F2FE"/>
<path d="M178.73 487.67H18.9697V539.98L178.73 539.99V487.66V487.67ZM72.1797 487.67H178.73V519.81H72.1797V487.67Z" fill="#E9F2FE"/>
<path d="M617.81 0H490.62V25.7H617.81V0Z" fill="#E9F2FE"/>
<path d="M441.55 171.48H315.56V112.56V280.74V238.09C331.22 238.79 345.67 241.14 358.11 245.23C359.12 245.56 360.12 245.91 361.1 246.26C362.08 246.61 363.05 246.98 364.01 247.36C369.74 249.63 374.96 252.32 379.56 255.45C389.09 261.95 395.99 270.33 399.38 280.74H523.35L517.65 270.64L569.58 271.16L563.92 280.75H632.37V112.56H441.56V171.48H441.55Z" fill="#E9F2FE"/>
<path d="M737.04 64.36V115.06C739.37 114.97 741.73 114.92 744.11 114.92C763.23 114.92 780.71 117.9 795.36 124.03C801.68 126.67 807.47 129.88 812.62 133.73H875.58L869.17 122.37L921.1 122.89L914.7 133.73H960V0H777.57V64.36H737.04Z" fill="#E9F2FE"/>
<path d="M27.4297 251.33H74.8097C74.1897 248.9 73.8597 246.36 73.8597 243.74L103.23 248.61C103.23 248.61 103.02 249.62 102.85 251.33H153.51V171.47H27.4297V251.33Z" fill="#E9F2FE"/>
<path d="M27.4297 149.46V171.48H153.51V149.46H27.4297Z" fill="#CFE1FD"/>
<path d="M73.8604 243.74C73.8604 246.36 74.1903 248.91 74.8103 251.33C78.1903 264.52 90.1504 274.28 104.4 274.28C105.32 274.28 106.22 274.22 107.12 274.14C102.24 265.35 102.4 255.87 102.85 251.33C103.02 249.62 103.23 248.61 103.23 248.61L73.8604 243.74Z" fill="#E9F2FE"/>
<path d="M436.54 117.56H320.55V166.48H436.54V117.56Z" fill="#E9F2FE"/>
<path d="M315.55 171.48H441.54V112.56H315.55V171.48ZM320.55 117.56H436.54V166.48H320.55V117.56Z" fill="#CFE1FD"/>
<path d="M650.38 25.7H617.81V64.36H680.88C680.82 59.23 680.11 55.86 680.11 55.86L718.5 49.49C718.5 54.75 717.47 59.76 715.63 64.36H737.04V0H650.38V25.7Z" fill="#E9F2FE"/>
<path d="M617.81 25.7H650.38V0H617.81V25.7Z" fill="#CFE1FD"/>
<path d="M680.099 55.86C680.099 55.86 680.81 59.24 680.87 64.36C680.94 70.92 679.95 80.35 675.02 89.23C676.19 89.33 677.38 89.41 678.58 89.41C695.37 89.41 709.73 79.04 715.63 64.36C717.48 59.76 718.5 54.75 718.5 49.49L680.109 55.86H680.099Z" fill="#E9F2FE"/>
<path d="M772.57 0H742.04V59.36H772.57V0Z" fill="#E9F2FE"/>
<path d="M737.04 64.36H777.57V0H772.57V59.36H742.04V0H737.04V64.36Z" fill="#CFE1FD"/>
<path d="M173.73 492.67H77.1797V514.81H173.73V492.67Z" fill="#E9F2FE"/>
<path d="M178.73 519.81V487.67H72.1797V519.81H178.73ZM77.1797 492.67H173.73V514.81H77.1797V492.67Z" fill="#CFE1FD"/>
<path d="M379.55 255.45C374.95 252.31 369.73 249.62 364 247.36C363.05 246.98 362.08 246.62 361.09 246.26C360.11 245.9 359.11 245.56 358.1 245.23C345.66 241.13 331.2 238.79 315.55 238.09V280.74H399.37C395.97 270.34 389.07 261.95 379.55 255.45Z" fill="#CFE1FD"/>
<path d="M517.65 270.64L523.35 280.74L543.16 315.87L563.91 280.74L569.58 271.16L517.65 270.64Z" fill="#E9F2FE"/>
<path d="M869.17 122.37L875.58 133.73L894.69 167.6L914.7 133.73L921.1 122.88L869.17 122.37Z" fill="#E9F2FE"/>
<path d="M278 518.72L226.07 518.21L226.97 519.81L238.35 539.99L238.36 540H265.43L265.44 539.99L277.35 519.81L278 518.72Z" fill="#E9F2FE"/>
<path d="M42.77 338.48C42.77 301.84 30.02 274.28 8.48 254.89C5.79 252.47 2.96 250.2 0 248.04V427.4C3.31 425.04 6.47 422.53 9.44 419.85C30.4 400.9 42.77 374.09 42.77 338.48Z" fill="#E9F2FE"/>
<path d="M812.62 133.73C807.47 129.89 801.67 126.67 795.36 124.03C780.71 117.91 763.24 114.92 744.11 114.92C741.73 114.92 739.37 114.97 737.04 115.06V133.72H812.62V133.73Z" fill="#CFE1FD"/>
</svg>
