<svg width="960" height="540" viewBox="0 0 960 540" fill="none" xmlns="http://www.w3.org/2000/svg">
<g clip-path="url(#clip0_287_34691)">
<path d="M575.578 187.577V247.225L799.374 377.033L575.578 510.451V540H959.99V313.824C879.482 258.705 786.464 227.296 711.785 209.606C641.727 193.006 587.838 188.457 575.588 187.587L575.578 187.577Z" fill="#3A2C1F"/>
<path d="M192.366 419.792C193.586 413.672 194.606 407.443 195.406 401.073C196.926 388.983 197.706 376.473 197.706 363.573C197.706 359.243 197.616 354.864 197.436 350.444C196.756 333.594 194.816 317.454 191.686 302.135C182.496 257.155 162.967 219.256 134.157 190.987C105.348 162.727 67.2387 144.037 20.5996 137.638C13.9097 136.718 7.03986 136.068 0 135.658V375.393C53.2689 406.293 108.558 421.142 163.697 421.142C173.257 421.142 182.816 420.682 192.356 419.792H192.366Z" fill="#3A2C1F"/>
<path d="M234.246 0.0703125H149.468L198.887 28.7303C210.857 19.9103 222.656 10.3503 234.246 0.0703125Z" fill="#3A2C1F"/>
<path d="M192.866 33.1097C193.396 32.7297 193.926 32.3397 194.456 31.9597L139.497 0.0703125H0.00976562V104.398C66.0484 101.188 131.627 76.8089 192.866 33.1097Z" fill="#3A2C1F"/>
<path d="M191.296 424.912C182.116 425.722 172.916 426.132 163.706 426.132C108.538 426.132 53.1987 411.493 0.00976562 381.153V539.98H122.267C157.417 512.091 180.766 472.601 191.296 424.902V424.912Z" fill="#3A2C1F"/>
<path d="M526.019 539.991H570.579V513.431L526.019 539.991Z" fill="#3A2C1F"/>
<path d="M506.36 207.076C542.619 148.737 561.549 86.8685 561.549 24.7096C561.549 16.4998 561.199 8.28992 560.539 0.0800781H241.735C229.255 11.3899 216.526 21.8497 203.586 31.4695L506.36 207.076Z" fill="#3A2C1F"/>
<path d="M137.667 187.407C167.276 216.456 187.236 255.325 196.586 301.125C199.776 316.724 201.746 333.124 202.436 350.234C202.616 354.724 202.706 359.164 202.706 363.563C202.706 368.473 202.596 373.343 202.376 378.143C202.006 386.153 201.336 394.003 200.366 401.693C199.616 407.653 198.676 413.513 197.566 419.272C257.195 412.723 316.133 389.003 371.522 349.474C393.782 333.584 415.481 315.214 436.391 294.325C456.431 274.295 474.15 253.526 489.52 232.196C494.49 225.296 499.21 218.326 503.69 211.316L199.196 34.6996C198.056 35.5296 196.916 36.3596 195.776 37.1795C133.807 81.3987 67.2084 106.188 0.00976562 109.398V130.638C7.26962 131.048 14.3695 131.718 21.2893 132.668C68.8584 139.188 108.068 158.357 137.667 187.407Z" fill="#3A2C1F"/>
<path d="M570.578 250.105L508.02 213.826C503.46 220.986 498.65 228.086 493.58 235.116C478.04 256.675 460.151 277.655 439.931 297.864C418.831 318.944 396.922 337.494 374.432 353.553C317.963 393.853 257.635 418.022 196.526 424.422C186.446 471.581 164.007 511.301 130.157 540H516.25L570.568 507.611V250.105H570.578Z" fill="#3A2C1F"/>
<path d="M510.689 209.586L570.588 244.326V182.267L573.228 182.417C573.328 182.417 628.997 185.487 705.696 203.047C781.064 220.306 876.752 251.566 960 307.785V267.575C918.601 206.216 822.913 64.1191 779.724 0.0703125H565.558C566.208 8.28016 566.558 16.49 566.558 24.6999C566.558 87.8387 547.329 150.597 510.689 209.576V209.586Z" fill="#3A2C1F"/>
<path d="M959.99 0.0703125H785.754C828.363 63.2391 917.311 195.337 959.99 258.625V0.0703125Z" fill="#3A2C1F"/>
<path d="M789.514 377.083L575.578 253.005V504.62L789.514 377.083Z" fill="#3A2C1F"/>
<path d="M200.357 29.59L203.587 31.46C216.527 21.83 229.257 11.37 241.737 0.07C241.767 0.05 241.787 0.02 241.817 0H234.327C234.327 0 234.277 0.05 234.247 0.07C222.657 10.35 210.857 19.91 198.887 28.73L200.367 29.59H200.357Z" fill="#693200"/>
<path d="M506.359 207.076L510.689 209.586C547.329 150.607 566.558 87.8381 566.558 24.7093C566.558 16.4995 566.208 8.28961 565.558 0.0797643C565.558 0.0597647 565.558 0.0297653 565.558 0.00976562H560.538C560.538 0.00976562 560.538 0.0597647 560.538 0.0797643C561.198 8.28961 561.548 16.4995 561.548 24.7093C561.548 86.8681 542.619 148.737 506.359 207.076Z" fill="#693200"/>
<path d="M573.218 182.406L570.578 182.256V244.315L575.578 247.215V187.566C587.838 188.436 641.727 192.986 711.775 209.586C786.454 227.276 879.482 258.695 959.98 313.804V307.764C876.732 251.545 781.044 220.286 705.675 203.026C628.977 185.466 573.308 182.396 573.208 182.396L573.218 182.406Z" fill="#693200"/>
<path d="M570.578 513.431V539.991H575.578V510.441L570.578 513.431Z" fill="#693200"/>
<path d="M134.167 190.976C162.976 219.246 182.506 257.145 191.696 302.124C194.826 317.444 196.766 333.584 197.446 350.433C197.626 354.853 197.716 359.233 197.716 363.563C197.716 376.463 196.936 388.983 195.416 401.062C194.616 407.432 193.596 413.662 192.376 419.782C194.116 419.622 195.846 419.452 197.576 419.262C198.686 413.502 199.626 407.642 200.376 401.682C201.345 393.993 202.015 386.143 202.385 378.133C202.605 373.333 202.715 368.463 202.715 363.553C202.715 359.153 202.625 354.713 202.445 350.223C201.755 333.114 199.786 316.714 196.596 301.114C187.246 255.325 167.276 216.446 137.677 187.396C108.077 158.347 68.8682 139.177 21.2991 132.657C14.3892 131.707 7.28939 131.037 0.0195312 130.627V135.637C7.05939 136.037 13.9293 136.697 20.6191 137.617C67.2482 144.027 105.367 162.707 134.177 190.966L134.167 190.976Z" fill="#693200"/>
<path d="M200.356 29.59L198.886 28.74L149.457 0.07L149.337 0L200.356 29.59Z" fill="#82B536"/>
<path d="M199.196 34.6995L194.466 31.9496C193.936 32.3296 193.406 32.7196 192.876 33.0996C131.627 76.8087 66.0484 101.188 0.00976562 104.398V109.398C67.2084 106.188 133.807 81.3987 195.766 37.1695C196.906 36.3495 198.046 35.5195 199.186 34.6895L199.196 34.6995Z" fill="#693200"/>
<path d="M959.99 258.635C917.301 195.336 828.353 63.2488 785.754 0.0699987C785.734 0.0499991 785.724 0.0199996 785.704 0H779.674C779.674 0 779.704 0.0499991 779.724 0.0699987C822.923 64.1088 918.601 206.216 959.99 267.565V258.625V258.635Z" fill="#9E4C00"/>
<path d="M191.296 424.912C191.456 424.192 191.626 423.472 191.776 422.742L196.666 423.772C196.626 423.982 196.576 424.192 196.526 424.402C257.645 418.002 317.963 393.842 374.432 353.533C396.932 337.484 418.831 318.934 439.931 297.844C460.151 277.635 478.05 256.655 493.58 235.095C498.65 228.056 503.46 220.956 508.02 213.806L503.69 211.296C499.22 218.306 494.5 225.276 489.52 232.175C474.15 253.505 456.431 274.275 436.391 294.304C415.481 315.204 393.782 333.574 371.522 349.453C316.123 388.983 257.185 412.702 197.566 419.252C195.836 419.442 194.096 419.612 192.366 419.772C182.826 420.662 173.266 421.122 163.706 421.122C108.568 421.122 53.2687 406.272 0.00976562 375.373V381.143C53.2087 411.472 108.538 426.122 163.706 426.122C172.906 426.122 182.106 425.712 191.296 424.902V424.912Z" fill="#693200"/>
<path d="M575.578 504.621V253.006L570.578 250.106V507.601L575.578 504.621Z" fill="#693200"/>
<path d="M199.195 34.6994L503.699 211.306L508.029 213.816L570.578 250.105L575.577 253.005L789.513 377.083L575.577 504.621L570.578 507.601L516.259 539.99H526.018L570.578 513.43L575.577 510.44L799.383 377.023L575.577 247.225L570.578 244.325L510.689 209.586L506.359 207.076L203.585 31.4694L200.355 29.5894L149.336 0H139.366L139.496 0.0699987L194.455 31.9494L199.195 34.6994Z" fill="#9E4C00"/>
<path d="M196.525 424.412C196.575 424.202 196.615 423.992 196.665 423.782L191.775 422.752C191.625 423.482 191.455 424.202 191.295 424.922C180.765 472.611 157.416 512.11 122.267 540H130.156C164.006 511.29 186.445 471.571 196.525 424.422V424.412Z" fill="#693200"/>
</g>
<defs>
<clipPath id="clip0_287_34691">
<rect width="960" height="540" fill="white"/>
</clipPath>
</defs>
</svg>
