<svg width="16" height="16" viewBox="0 0 16 16" fill="none" xmlns="http://www.w3.org/2000/svg">
<path d="M10.0749 5.03751H10.1249L10.0999 5.01251L11.8499 3.26251V3.22501C10.3749 1.92501 8.3374 1.47501 6.4499 2.03751C4.5624 2.60001 3.1124 4.10001 2.5874 6.00001C2.6124 5.98751 2.6499 5.97501 2.6874 5.97501C3.3374 5.55001 4.1124 5.30001 4.9249 5.30001C5.1999 5.30001 5.4624 5.32501 5.7249 5.37501C5.7374 5.36251 5.7499 5.36251 5.7624 5.36251C6.8874 4.12501 8.7874 3.97501 10.0874 5.03751H10.0749Z" fill="#EA4535"/>
<path d="M13.5126 5.97499C13.2251 4.91249 12.6251 3.94999 11.7876 3.21249L10.0001 4.98749C10.7501 5.59999 11.1876 6.52499 11.1626 7.48749V7.79999C13.2751 7.79999 13.2751 10.95 11.1626 10.95H7.9876V13.45H7.9751L7.9876 13.475H11.1626C12.9876 13.4875 14.6001 12.3125 15.1376 10.5875C15.6751 8.86249 15.0126 6.98749 13.5126 5.97499Z" fill="#557EBF"/>
<path d="M4.87505 13.4875H8.16255V10.9625H4.87505C4.63755 10.9625 4.41255 10.9125 4.20005 10.825L2.30005 12.65V12.675C3.05005 13.2125 3.95005 13.5 4.88755 13.5L4.87505 13.4875Z" fill="#36A852"/>
<path d="M5.02498 5.23749C3.16248 5.24999 1.51248 6.39999 0.912484 8.08749C0.312484 9.78749 0.912484 11.65 2.38748 12.75L4.33748 10.8875C3.26248 10.425 3.01248 9.07499 3.83748 8.28749C4.66248 7.48749 6.06248 7.73749 6.54998 8.76249L8.49998 6.89999C7.67498 5.86249 6.38748 5.24999 5.02498 5.26249V5.23749Z" fill="#F9BC15"/>
</svg>
