<svg width="961" height="541" viewBox="0 0 961 541" fill="none" xmlns="http://www.w3.org/2000/svg">
<g clip-path="url(#clip0_287_72125)">
<mask id="mask0_287_72125" style="mask-type:luminance" maskUnits="userSpaceOnUse" x="0" y="-1" width="960" height="541">
<path d="M960 -0.132812H0V539.867H960V-0.132812Z" fill="white"/>
</mask>
<g mask="url(#mask0_287_72125)">
<path d="M960 -0.623047H0V539.377H960V-0.623047Z" fill="#E9F2FE"/>
<path d="M253.201 404.847H212.431H158.741H69.2708H-21.1992V631.197H486.821V404.847H398.341H305.391H253.201Z" fill="#CFE1FD"/>
<path d="M225.351 404.847H212.431H158.741H69.2708H-21.1992V631.197H210.661L225.351 404.847Z" fill="#E9F2FE"/>
<path d="M600.6 152.077V134.707V111.837V73.727V35.187H485.6V646.047H600.6V213.907V174.307V152.077Z" fill="#CFE1FD"/>
<path d="M254.57 40.327C239.63 -11.183 199.81 -43.043 145.89 -51.833C135.78 -53.483 125.19 -54.323 114.16 -54.333C102.66 -54.333 91.6302 -53.423 81.1202 -51.673C21.8602 -41.803 -20.3098 -4.43301 -31.2698 56.027C-33.1198 66.247 -34.0898 77.117 -34.0898 88.627C-34.0898 94.677 -33.8198 100.547 -33.2898 106.237H225.42L254.57 40.327Z" fill="#E9F2FE"/>
<path d="M990.081 241.427H856.261L738.051 -51.2729H860.611L990.081 241.427Z" fill="#E9F2FE"/>
<path d="M1020.47 699.387H562.461L532.73 241.367H1050.19L1020.47 699.387Z" fill="#CFE1FD"/>
<path d="M600.6 241.367H532.73L558.99 646.047H600.6V241.367Z" fill="#E9F2FE"/>
<path d="M1087.57 539.727C1090.5 523.327 1092.03 505.897 1092.04 487.457C1092.04 468.757 1090.5 451.087 1087.52 434.487C1069.79 335.677 1001.18 274.757 904.931 259.077C888.511 256.397 871.291 255.027 853.381 255.017C834.691 255.017 816.771 256.487 799.691 259.337C703.371 275.387 634.851 336.107 617.041 434.357C614.031 450.957 612.461 468.627 612.461 487.327C612.461 505.767 613.981 523.197 616.931 539.597C634.551 637.727 703.111 698.607 799.571 714.717C816.641 717.567 834.561 719.057 853.251 719.067C871.171 719.067 888.381 717.707 904.811 715.037C1001.22 699.387 1069.94 638.397 1087.58 539.727H1087.57Z" fill="#E9F2FE"/>
<path d="M804.109 163.507C805.369 156.487 806.019 149.027 806.019 141.127C806.019 133.117 805.359 125.557 804.079 118.447C796.489 76.1372 767.099 50.0572 725.869 43.3372C718.839 42.1872 711.459 41.5972 703.789 41.5972C696.119 41.5972 688.109 42.2272 680.799 43.4472C639.549 50.3172 610.199 76.3172 602.569 118.387C601.279 125.497 600.609 133.057 600.609 141.067C600.609 148.967 601.259 156.427 602.519 163.447C610.069 205.467 639.429 231.527 680.749 238.427C688.059 239.647 695.739 240.287 703.739 240.287C711.409 240.287 718.789 239.707 725.819 238.567C767.109 231.867 796.539 205.757 804.099 163.507H804.109Z" fill="#CFE1FD"/>
<path d="M279.93 -17.0029L93.3398 404.847H334.14L504.5 -17.0029H279.93Z" fill="#CFE1FD"/>
<path d="M260.25 106.237C260.77 100.567 261.04 94.7269 261.04 88.7069C261.04 77.1969 260.09 66.3269 258.26 56.1069C257.28 50.6569 256.05 45.3969 254.58 40.3169L225.43 106.227H260.25V106.237Z" fill="#E9F2FE"/>
<mask id="mask1_287_72125" style="mask-type:luminance" maskUnits="userSpaceOnUse" x="-11" y="-17" width="267" height="125">
<path d="M-10.2695 4.87699V107.237H225.88L255.03 41.327C250.73 26.497 240.29 2.57699 224.27 -13.183L6.46047 -16.333C5.73047 -15.323 -9.57953 3.84699 -10.2695 4.87699Z" fill="white"/>
</mask>
<g mask="url(#mask1_287_72125)">
<path d="M30.2103 -2.12271C28.8003 -5.90271 27.7503 -5.52271 28.9303 -1.69271C30.5803 3.75729 32.3303 9.46729 34.3103 16.8773C35.4503 21.0673 36.1203 23.6973 36.6903 25.9973C37.2503 28.2973 37.7203 30.2573 38.2203 33.1573C39.1203 38.0473 39.9303 44.6973 40.2003 50.6173C40.4803 56.5473 40.2503 61.7273 40.1303 63.7373L40.0303 65.5173C39.9503 67.6473 39.6403 73.3973 38.2903 80.4873C36.9403 87.5573 34.4303 95.9773 30.7203 103.087C28.1503 108.137 25.5003 111.887 23.1903 114.657C20.8803 117.427 18.9503 119.257 17.5703 120.427C14.3303 123.237 11.1503 125.257 8.04035 126.727C4.92035 128.197 1.88034 129.177 -1.21966 129.757C-2.91966 130.077 -3.76966 130.387 -3.74966 130.667C-3.72966 130.927 -2.81966 131.157 -1.02966 130.947C2.21034 130.567 5.44035 129.707 8.75035 128.267C12.0603 126.827 15.4303 124.757 18.8003 121.837C20.1303 120.727 22.1103 118.917 24.4403 116.287C26.7603 113.647 29.3903 110.147 31.8303 105.677L32.9703 103.467C33.3103 102.717 33.6503 101.967 33.9903 101.217C36.7703 94.6873 39.0303 86.8873 40.1703 80.6573C40.4703 79.0973 40.7303 77.6573 40.9103 76.3473C41.1203 75.0473 41.2703 73.8873 41.3803 72.9273C41.6303 71.0073 41.7203 69.8673 41.7203 69.8673C41.7203 69.8673 41.7603 69.4473 41.8303 68.6773C41.9103 67.9173 41.9703 66.8073 42.0503 65.4373C42.2103 62.7073 42.3103 58.9373 42.1703 54.8173C42.0503 50.6973 41.7003 46.2273 41.2003 42.0873C40.7003 37.9473 40.0703 34.1473 39.5403 31.3273C37.8903 22.8473 36.7503 18.8473 36.1203 16.3773C34.1103 8.91729 32.1803 3.21729 30.2103 -2.14271V-2.12271Z" fill="#CFE1FD"/>
<path d="M170.26 113.617C176.96 118.687 177.59 117.767 171.1 112.567C166.54 108.827 162.06 104.747 157.41 100.117C152.76 95.4873 147.95 90.2773 142.88 84.1373C137.13 77.1773 133.83 72.5873 130.99 68.5873C128.15 64.5773 125.82 61.0873 122.67 55.8373C120 51.4073 116.94 46.1473 114.6 40.3473C113.43 37.4473 112.47 34.3973 111.88 31.3073C111.28 28.2173 111.08 25.0773 111.3 22.0773C111.7 16.0473 113.99 10.6473 117.03 7.23732C118.52 5.50732 120.13 4.21732 121.55 3.24732C123.01 2.31732 124.25 1.64732 125.18 1.25732C125.72 1.00732 126.27 0.767324 126.84 0.567324C127.4 0.347324 127.96 0.137324 128.54 -0.032676C129.56 -0.382676 131.05 -0.752676 132.94 -1.10268C134.84 -1.40268 137.16 -1.60268 139.8 -1.47268C145.08 -1.23268 151.63 0.527324 158.23 3.98732C164.86 7.40732 171.61 12.3273 178.04 17.8673C178.86 18.5473 179.64 19.2673 180.43 19.9973C181.21 20.7273 182.01 21.4373 182.78 22.1773C184.3 23.6973 185.86 25.1773 187.3 26.7573C190.27 29.8573 193.01 33.1473 195.6 36.4373C199.26 41.0973 202.25 45.5473 204.76 49.6673C205.4 50.6873 206 51.6973 206.56 52.6873C207.12 53.6773 207.67 54.6373 208.2 55.5773C209.19 57.4873 210.18 59.2473 210.99 60.9673C214.33 67.7773 216.32 72.9973 217.56 76.6173C220.52 85.1473 222.14 92.9073 222.91 100.137C223.59 107.367 223.44 114.097 222.26 120.607C221.99 122.407 221.68 123.737 221.58 124.647C221.46 125.557 221.48 126.037 221.61 126.077C221.74 126.117 221.98 125.707 222.31 124.837C222.63 123.967 223.1 122.657 223.44 120.837C224.85 114.247 225.17 107.377 224.59 99.9873C223.93 92.6073 222.33 84.6773 219.33 76.0073C218.18 72.6373 216.3 67.4673 213.21 60.9373C211.7 57.6573 209.78 54.0873 207.59 50.2173C205.32 46.3873 202.69 42.2873 199.6 38.0473C198.56 36.6873 197.54 35.3173 196.47 33.9873C195.37 32.6773 194.32 31.3473 193.18 30.0873C188.34 24.5973 182.71 19.0973 176.77 14.2273C170.8 9.41732 164.65 5.09732 158.74 2.10732C152.87 -0.942676 147.29 -2.52268 143.26 -3.09268C141.25 -3.41268 139.61 -3.46268 138.5 -3.49268C137.39 -3.48268 136.78 -3.47268 136.78 -3.47268C136.78 -3.47268 135.88 -3.44268 134.26 -3.29268C132.65 -3.11268 130.32 -2.74268 127.55 -1.85268C124.8 -0.972676 121.62 0.537324 118.62 2.95732C115.63 5.37732 112.98 8.85733 111.42 12.9673C109.82 17.0673 109.21 21.6873 109.46 26.2373C109.7 30.8073 110.86 35.2573 112.39 39.3473C113.92 43.4373 115.83 47.1773 117.68 50.5273C119.54 53.8773 121.36 56.8473 122.91 59.3873C132.45 74.5873 138.11 81.1773 141.41 85.3173C146.53 91.5073 151.42 96.7273 156.17 101.347C160.93 105.947 165.53 109.967 170.23 113.607L170.26 113.617Z" fill="#CFE1FD"/>
<path d="M110.16 127.167C112.14 128.847 113.7 130.007 114.78 130.717C115.86 131.437 116.46 131.727 116.55 131.607C116.65 131.487 116.24 130.957 115.32 130.047C114.39 129.147 112.96 127.847 111.03 126.137C105.55 121.317 100.23 116.047 94.9002 109.937C93.5402 108.437 92.2702 106.807 90.9102 105.187C89.6202 103.517 88.2502 101.847 86.9702 100.037C84.3402 96.4871 81.7702 92.6171 79.2902 88.3771C76.4802 83.5771 74.4402 79.5371 72.8802 75.9871C71.2602 72.4571 70.1302 69.4071 69.1802 66.5471C68.7002 65.1171 68.2602 63.7271 67.8902 62.3271C67.4702 60.9371 67.1602 59.5271 66.8202 58.0771C66.1902 55.1671 65.6202 52.0371 65.3302 48.2871C65.1502 46.7071 65.1502 45.0471 65.0802 43.3371C65.1202 41.6271 65.0902 39.8571 65.2702 38.0571C65.5402 34.4571 66.1302 30.6871 67.2402 26.9971C68.3202 23.2971 69.8702 19.6671 71.8202 16.2771C72.3002 15.4271 72.8802 14.6371 73.4002 13.8171L74.2002 12.5971L75.0902 11.4571C75.6902 10.7071 76.2702 9.92714 76.8802 9.19714C77.5302 8.49714 78.1702 7.79714 78.8102 7.10714C79.4302 6.39714 80.1302 5.77714 80.8102 5.14714C81.5002 4.52714 82.1402 3.86714 82.8502 3.30714C84.2802 2.19714 85.6202 1.02714 87.0802 0.0971384C87.7902 -0.392862 88.4902 -0.862862 89.1802 -1.33286C89.9002 -1.75286 90.6002 -2.17286 91.2902 -2.58286C92.6502 -3.43286 94.0502 -4.08286 95.3402 -4.75286C100.59 -7.31286 105.02 -8.63286 107.48 -9.33286C108.94 -9.76286 110.43 -10.0529 111.91 -10.4429C114.57 -10.9829 119.52 -12.0229 126.19 -12.1829C127.02 -12.2029 127.88 -12.2129 128.77 -12.2329C129.65 -12.2129 130.56 -12.1929 131.49 -12.1629C133.35 -12.1529 135.3 -11.9529 137.33 -11.8129C141.38 -11.4129 145.74 -10.7629 150.29 -9.81286C168.52 -6.02286 189.32 3.10714 207.91 12.4271C221.03 19.0771 231.21 25.2871 239.01 30.5271C246.85 35.7371 252.25 40.0771 255.95 43.0371C264.63 50.1271 271.63 56.9971 277.67 63.7271C283.76 70.4071 288.61 77.1771 293.09 84.0571C297.8 91.7571 298.67 91.3271 294.11 83.4271C289.77 76.3771 285.01 69.4371 278.94 62.6071C272.93 55.7371 265.89 48.7471 257.14 41.5871C255.41 40.2371 253.28 38.4271 250.61 36.3971C247.9 34.4171 244.82 31.9871 241.12 29.5171C233.81 24.4371 224.44 18.5571 212.99 12.5571C211.12 11.5971 209.24 10.6471 207.37 9.68714C205.5 8.72714 203.59 7.87714 201.71 6.97714C193.55 3.18714 184.71 -0.732862 175.86 -4.06286C171.44 -5.72286 167.02 -7.26286 162.71 -8.56286C158.39 -9.85286 154.19 -10.9329 150.21 -11.7729C142.25 -13.4229 135.25 -14.0429 130.28 -14.1329C129.04 -14.1929 127.92 -14.1529 126.95 -14.1329C125.97 -14.1129 125.14 -14.1229 124.46 -14.0829C123.1 -13.9929 122.37 -13.9429 122.37 -13.9429C122.37 -13.9429 122.1 -13.9229 121.57 -13.8929C121.05 -13.8629 120.28 -13.8129 119.3 -13.6729C118.32 -13.5429 117.11 -13.4229 115.73 -13.2029C114.35 -12.9329 112.77 -12.7129 111.05 -12.2929C107.6 -11.5329 103.58 -10.3229 99.2602 -8.61286C94.9602 -6.86286 90.4102 -4.48286 86.0502 -1.41286C81.6902 1.65714 77.5302 5.45714 74.1002 9.89714C70.6702 14.3171 67.9902 19.3571 66.2802 24.4871C64.5502 29.6271 63.7402 34.8171 63.5202 39.5771C63.3002 44.3471 63.6502 48.7071 64.1502 52.3771C64.9102 57.9171 66.1302 62.6371 67.4102 66.6771C68.7102 70.7171 70.0202 74.1171 71.3302 76.9771C73.9002 82.7171 75.9902 86.5071 77.6702 89.3371C80.1802 93.6371 82.8002 97.5571 85.4902 101.137C86.8002 102.957 88.1902 104.647 89.5102 106.327C90.9002 107.947 92.2002 109.587 93.5902 111.097C99.0502 117.217 104.52 122.437 110.14 127.177L110.16 127.167Z" fill="#CFE1FD"/>
<path d="M270.03 76.5272C274.15 73.7972 273.47 72.9072 269.31 75.3872C267.83 76.2572 266.37 77.2172 264.74 77.9472C263.13 78.7072 261.52 79.5972 259.77 80.3472C257.99 81.0272 256.16 81.7872 254.21 82.5172C253.21 82.8072 252.19 83.1072 251.14 83.4172C250.62 83.5772 250.09 83.7272 249.55 83.8872C249.01 84.0472 248.47 84.2172 247.9 84.3072C246.62 84.5672 245.46 84.8072 244.4 85.0272C243.87 85.1372 243.36 85.2472 242.88 85.3472C242.39 85.4072 241.92 85.4672 241.46 85.5172C239.65 85.7172 238.13 85.9572 236.71 86.0672C235.28 86.1072 233.97 86.1472 232.56 86.1972C232.21 86.1972 231.85 86.2172 231.48 86.2272C231.11 86.1972 230.74 86.1772 230.36 86.1472C229.59 86.0872 228.77 86.0272 227.89 85.9572C227.14 85.8872 226.36 85.8672 225.56 85.7472C224.76 85.6172 223.93 85.4772 223.09 85.3372C222.24 85.1972 221.38 85.0572 220.5 84.9072C219.63 84.6872 218.75 84.4772 217.86 84.2472C216.97 84.0272 216.07 83.7972 215.17 83.5772L212.51 82.7072C211.63 82.4172 210.75 82.1172 209.87 81.8272C209.02 81.4772 208.17 81.1372 207.34 80.7972C206.51 80.4572 205.69 80.1172 204.89 79.7972C204.11 79.4172 203.35 79.0572 202.61 78.6972C201.14 77.9772 199.74 77.3372 198.54 76.6272C197.33 75.9472 196.24 75.3472 195.33 74.8372C194.43 74.3072 193.72 73.8372 193.2 73.5172L191.35 72.3872C190.79 72.0672 190.01 71.5672 189.05 70.9272C188.09 70.2772 186.92 69.5372 185.61 68.6272C184.33 67.6872 182.89 66.6372 181.33 65.4972C179.83 64.2772 178.15 63.0372 176.48 61.5972C173.1 58.7772 169.54 55.4572 166.02 51.9272C162.53 48.3572 159.13 44.5372 156.04 40.7172C151.67 35.3272 148.43 30.7172 146.24 26.9172C145.67 25.9772 145.22 25.0672 144.83 24.2372C144.67 23.8172 144.48 23.4572 144.36 23.0272C144.23 22.6072 144.1 22.1972 143.98 21.8072C143.51 20.2472 143.19 18.9172 142.96 17.8372C142.41 15.2772 142.08 12.8472 141.91 10.5372C141.76 8.21719 141.77 6.02719 141.9 3.91719C142.22 -0.282812 143.01 -4.10281 144.36 -7.70281C145.09 -9.67281 145.38 -10.7228 145.12 -10.8628C145 -10.9228 144.76 -10.7428 144.43 -10.3028C144.11 -9.86281 143.65 -9.16281 143.24 -8.15281C141.64 -4.52281 140.66 -0.572813 140.21 3.77719C140.02 5.95719 139.97 8.23719 140.09 10.6472C140.24 13.0572 140.57 15.5772 141.13 18.2272C141.34 19.2572 141.65 20.5572 142.07 22.1172C142.32 22.8972 142.48 23.7072 142.88 24.6472C143.05 25.1272 143.27 25.5672 143.49 26.0272C143.72 26.4872 143.94 26.9672 144.21 27.4272C146.27 31.1772 149.17 35.5772 152.97 40.4072C154.22 41.9672 155.48 43.5272 156.82 44.9872C162.46 51.4272 169.55 58.2572 175.44 63.1972C178.39 65.6572 181 67.6972 182.91 69.0672C184.78 70.4872 185.95 71.2472 185.95 71.2472C185.95 71.2472 186.38 71.5372 187.15 72.0572C187.94 72.5572 189.02 73.3772 190.46 74.2072C191.17 74.6372 191.95 75.1072 192.79 75.6172C193.21 75.8672 193.64 76.1372 194.08 76.3972C194.54 76.6472 195.01 76.8972 195.49 77.1572C196.46 77.6772 197.47 78.2172 198.51 78.7872C199.56 79.3472 200.69 79.8272 201.83 80.3772C204.08 81.5072 206.56 82.3872 209 83.3772C210.24 83.8172 211.51 84.1972 212.75 84.5972C213.37 84.7972 213.99 84.9972 214.61 85.1872C215.24 85.3372 215.86 85.4972 216.48 85.6472C217.72 85.9472 218.94 86.2372 220.12 86.5272C221.32 86.7172 222.48 86.9072 223.6 87.0872C225.82 87.5172 227.89 87.5672 229.64 87.7272C230.3 87.7772 230.94 87.8372 231.56 87.8572C232.18 87.8572 232.78 87.8472 233.36 87.8372C234.52 87.8272 235.6 87.8072 236.61 87.7972C238.62 87.6972 240.34 87.4472 241.83 87.3172C243.33 87.2172 244.55 86.8672 245.62 86.6872C246.68 86.4772 247.57 86.2972 248.34 86.1472C248.93 86.0472 249.49 85.8772 250.04 85.7072C250.59 85.5372 251.14 85.3772 251.68 85.2172C252.76 84.8872 253.8 84.5672 254.82 84.2572C256.81 83.4872 258.68 82.6872 260.48 81.9372C262.26 81.1272 263.87 80.1772 265.49 79.3372C267.13 78.5372 268.57 77.4872 270.03 76.5372V76.5272Z" fill="#CFE1FD"/>
</g>
<mask id="mask2_287_72125" style="mask-type:luminance" maskUnits="userSpaceOnUse" x="486" y="36" width="116" height="592">
<path d="M486.061 627.107H558.151L533.191 242.367H601.051V214.907V175.317V153.077V135.717V112.847V74.7368V36.1968H486.061V627.107Z" fill="white"/>
</mask>
<g mask="url(#mask2_287_72125)">
<path d="M487.74 105.817C483.15 106.177 480.9 106.807 480.94 107.097C480.98 107.417 483.28 107.397 487.83 107.157C494.28 106.847 500.93 106.937 508.06 107.677C515.17 108.487 522.79 110.037 530.92 113.097C535.53 114.807 539.14 116.557 542.17 118.177C543.7 118.957 545.04 119.797 546.33 120.527C547.57 121.327 548.78 122.017 549.87 122.797C550.98 123.547 552.05 124.277 553.06 125.057C553.57 125.447 554.1 125.817 554.6 126.217C555.09 126.637 555.58 127.057 556.08 127.477C556.57 127.907 557.1 128.327 557.59 128.797C558.06 129.287 558.55 129.787 559.05 130.307C560.09 131.297 560.99 132.537 562.02 133.827C565.45 138.257 568.1 144.407 569.52 151.097C570.84 157.827 570.97 165.037 570.38 171.747C569.15 185.217 565.78 196.677 564.58 201.107C564.21 202.417 563.84 203.727 563.46 205.047C562.78 207.397 561.54 211.737 559.67 217.417C557.82 223.107 555.39 230.137 552.56 237.937C546.94 253.557 539.62 272.217 534.12 289.977C530.28 302.527 527.97 312.977 527.14 321.417C526.2 329.837 526.84 336.177 527.66 340.407C528.64 345.417 530.47 349.987 533.07 353.767C535.66 357.557 538.96 360.507 542.43 362.717C542.86 362.997 543.3 363.277 543.73 363.547C544.16 363.817 544.63 364.027 545.07 364.267C545.97 364.717 546.84 365.217 547.75 365.607C549.58 366.347 551.37 367.127 553.21 367.637C556.85 368.837 560.52 369.507 564.17 370.077C568.2 370.587 570.24 370.497 570.26 370.247C570.29 369.957 568.31 369.507 564.36 368.897C560.78 368.227 557.19 367.477 553.68 366.227C551.89 365.687 550.18 364.897 548.42 364.147C547.55 363.757 546.72 363.257 545.86 362.817C545.44 362.577 544.99 362.377 544.58 362.107C544.17 361.837 543.76 361.567 543.35 361.287C540.06 359.127 536.98 356.317 534.57 352.727C532.15 349.147 530.42 344.837 529.49 340.027C528.74 336.307 528.22 330.377 529.03 322.627C529.82 314.877 531.82 305.367 535.05 294.467C536.09 290.907 537.19 287.367 538.28 283.857C543.07 268.717 549.6 251.617 554.47 238.147C559.4 224.697 562.55 214.827 562.55 214.827C562.55 214.827 562.84 213.907 563.36 212.247C563.89 210.587 564.62 208.177 565.48 205.197C567.2 199.237 569.42 190.957 570.92 181.677C571.66 177.037 572.23 172.157 572.4 167.227C572.54 162.297 572.28 157.327 571.46 152.607C570.65 147.887 569.24 143.437 567.4 139.587C565.57 135.727 563.21 132.587 561.06 130.057C560.19 129.157 559.36 128.277 558.55 127.437C557.67 126.667 556.81 125.927 555.99 125.207C554.31 123.827 552.69 122.627 551.13 121.557C548.03 119.407 545.26 117.737 542.8 116.427C537.88 113.777 534.29 112.357 531.57 111.297C523.27 108.177 515.47 106.637 508.23 105.907C500.97 105.237 494.25 105.277 487.74 105.757V105.817Z" fill="#E9F2FE"/>
<path d="M485.7 70.1571C479.23 73.8971 479.81 74.8471 486.34 71.3471C491 68.9071 495.86 66.5671 501.22 64.2271C506.58 61.8971 512.451 59.5971 519.211 57.4571C523.031 56.2371 526.18 55.3671 528.89 54.6771C530.25 54.3471 531.5 54.0371 532.67 53.7471C533.85 53.4971 534.961 53.2571 536.031 53.0271C538.161 52.5671 540.16 52.2571 542.29 51.8871C544.43 51.6171 546.69 51.2471 549.41 51.0671C553.98 50.6771 559.39 50.357 564.95 50.827C570.49 51.277 576.22 52.587 580.88 55.237C583.21 56.547 585.23 58.197 586.85 59.987C588.47 61.777 589.71 63.7071 590.63 65.5471C591.56 67.3771 592.181 69.1271 592.591 70.6171C593.021 72.1071 593.25 73.357 593.39 74.257C593.56 75.317 593.691 76.387 593.771 77.467C593.861 78.427 593.9 79.7971 593.86 81.5171C593.78 83.2271 593.57 85.307 593.11 87.637C592.21 92.297 590.19 97.9471 587 103.797C580.67 115.567 570.28 128.237 558.82 137.817C550.78 144.657 543.55 149.287 537.72 152.687C531.86 156.057 527.37 158.197 524.26 159.617C516.92 162.947 510.28 165.357 504.08 167.327C497.87 169.297 492.08 170.797 486.28 172.077C479.91 173.417 480.05 174.377 486.52 173.257C492.39 172.177 498.27 170.817 504.57 168.937C510.87 167.067 517.601 164.677 525.031 161.317C527.911 159.997 532.36 157.967 537.99 154.857C543.6 151.727 550.38 147.457 557.68 141.607L561.18 138.667C562.3 137.637 563.42 136.617 564.54 135.597C569.27 131.107 574.01 125.927 578.19 120.527C580.28 117.827 582.261 115.087 584.031 112.357C585.821 109.647 587.45 106.967 588.83 104.367C591.62 99.1971 593.42 94.4171 594.33 90.9171C594.81 89.1771 595.08 87.757 595.26 86.787C595.41 85.807 595.5 85.287 595.5 85.287C595.5 85.287 595.61 84.4971 595.74 83.0571C595.86 81.6171 595.94 79.527 595.74 76.957C595.53 74.397 595.011 71.3471 593.841 68.1571C593.261 66.5571 592.531 64.927 591.591 63.327C590.651 61.737 589.55 60.1471 588.2 58.7271C586.86 57.2971 585.34 55.977 583.66 54.847C581.97 53.737 580.151 52.787 578.271 52.007C574.481 50.497 570.47 49.6771 566.6 49.2771C562.73 48.8971 558.98 48.8571 555.57 49.0271C552.15 49.1471 549.051 49.4371 546.401 49.6971C538.441 50.6171 532.62 51.8471 528.24 52.9471C526.04 53.4671 524.21 54.017 522.63 54.437C521.06 54.917 519.75 55.3071 518.62 55.6571C511.79 57.8171 505.87 60.197 500.49 62.627C495.12 65.067 490.28 67.547 485.67 70.147L485.7 70.1571Z" fill="#E9F2FE"/>
<path d="M622.821 130.987C626.061 126.857 625.181 126.177 621.791 130.117C616.911 135.657 611.611 141.317 604.411 148.217C600.351 152.147 597.761 154.547 595.501 156.637C593.231 158.717 591.281 160.467 588.341 162.927C583.381 167.087 576.521 172.467 570.291 177.077C564.081 181.717 558.521 185.597 556.351 187.077L554.441 188.417C552.161 190.017 546.041 194.377 537.991 199.297C529.951 204.227 519.901 209.597 510.161 213.507C503.301 216.307 497.581 218.147 493.011 219.407C488.441 220.657 485.031 221.417 482.681 221.857C471.581 224.007 463.111 224.497 454.811 224.367C450.261 224.207 450.151 225.177 454.751 225.567C463.121 226.127 471.781 225.867 483.031 223.697C487.381 222.837 496.591 221.167 508.831 216.407C510.811 215.607 512.791 214.807 514.701 213.897C518.851 211.987 523.241 209.797 527.451 207.537C531.661 205.257 535.691 202.907 539.181 200.787C542.681 198.667 545.641 196.747 547.731 195.377C549.811 193.997 551.041 193.177 551.041 193.177C551.041 193.177 551.501 192.867 552.321 192.317C553.141 191.757 554.321 190.937 555.771 189.937C558.661 187.907 562.621 185.067 566.891 181.877C575.441 175.507 585.241 167.717 590.901 162.887C599.431 155.627 603.311 151.867 605.701 149.577C612.931 142.617 618.161 136.777 622.811 130.987H622.821Z" fill="#E9F2FE"/>
<path d="M513.94 27.1469C512.04 25.7069 510.88 25.2969 510.72 25.5369C510.53 25.8069 511.32 26.7069 513.1 28.1969C515.6 30.3269 517.99 32.7069 520.31 35.5269C522.63 38.3469 524.9 41.5769 527 45.4769C529.39 49.8869 530.54 52.8269 531.5 55.3869C532.42 57.9669 533.09 60.2069 533.76 63.5569C534.33 66.3869 534.72 69.7569 534.86 73.2769C535 76.7969 534.85 80.4669 534.47 83.8969C533.73 90.7669 532.03 96.5969 531.33 98.8269L530.7 100.807C530.35 101.997 529.61 104.167 528.5 106.997C527.89 108.387 527.2 109.947 526.45 111.637C525.68 113.317 524.69 115.057 523.73 116.937C519.7 124.347 513.4 132.447 506.6 138.947C505.45 140.147 504.22 141.147 503.11 142.167C501.99 143.177 500.92 144.127 499.84 144.947C498.78 145.787 497.78 146.587 496.83 147.337C495.86 148.057 494.93 148.697 494.06 149.327C493.19 149.937 492.39 150.537 491.62 151.047C490.84 151.547 490.11 152.007 489.45 152.427C488.11 153.267 487.02 154.017 486.06 154.517C477.27 159.597 470.23 162.567 463.2 165.077C459.33 166.427 459.57 167.367 463.57 166.227C470.81 164.097 478.06 161.297 487.01 156.137C490.42 154.067 497.82 149.977 506.6 141.997C508.02 140.687 509.34 139.287 510.68 137.917C512.09 136.407 513.44 134.747 514.88 133.127C516.22 131.427 517.57 129.707 518.88 127.987C520.09 126.197 521.37 124.477 522.46 122.737C523.51 120.967 524.6 119.307 525.48 117.677C526.34 116.037 527.15 114.517 527.87 113.147C528.5 111.737 529.06 110.497 529.53 109.467C530 108.437 530.37 107.617 530.59 107.037C530.82 106.467 530.94 106.147 530.94 106.147C530.94 106.147 531.69 104.297 532.67 101.237C533.65 98.1869 534.8 93.9069 535.58 89.1369C536.39 84.3669 536.71 79.0869 536.57 74.1869C536.4 69.2869 535.71 64.7869 534.97 61.4869C533.86 56.5169 532.52 52.9669 531.4 50.3169C530.29 47.6669 529.35 45.9169 528.64 44.5869C526.46 40.5769 524.08 37.2569 521.62 34.4169C519.16 31.5669 516.61 29.2069 513.93 27.1469H513.94Z" fill="#E9F2FE"/>
<path d="M583.65 408.517C586.53 405.937 585.79 405.107 582.79 407.477C578.51 410.807 573.94 414.227 567.78 418.157C566.05 419.297 564.59 420.127 563.37 420.917C562.12 421.647 561.08 422.257 560.11 422.827C559.15 423.417 558.21 423.877 557.23 424.397C556.24 424.907 555.2 425.457 553.9 426.007C549.6 428.007 543.58 430.177 538.08 431.457C536.7 431.747 535.37 432.067 534.1 432.307C532.83 432.507 531.64 432.697 530.56 432.877C528.4 433.147 526.69 433.287 525.74 433.387C525.17 433.407 524.61 433.447 524.04 433.487C523.53 433.527 522.82 433.577 521.91 433.637C521.01 433.717 519.92 433.667 518.68 433.697C518.06 433.697 517.4 433.697 516.71 433.707C516.02 433.707 515.3 433.627 514.54 433.597C513.03 433.507 511.4 433.437 509.7 433.177C502.87 432.397 494.75 430.327 487.66 427.337C477.64 423.107 472.01 419.297 469.07 417.397C462.16 412.777 457.32 408.847 452.69 404.857C450.16 402.657 449.47 403.337 451.87 405.737C456.25 410.077 461.02 414.257 468.03 418.957C470.76 420.747 476.35 424.797 485.25 428.687C485.97 428.997 486.69 429.327 487.43 429.607C488.17 429.867 488.91 430.127 489.65 430.397C496.03 432.637 503.61 434.427 509.65 435.087C511.15 435.317 512.56 435.397 513.82 435.467C515.08 435.527 516.19 435.677 517.12 435.647C518.98 435.647 520.07 435.657 520.07 435.657C520.07 435.657 520.48 435.657 521.22 435.657C521.96 435.637 523.02 435.557 524.33 435.477C526.95 435.337 530.54 434.857 534.43 434.117C538.29 433.277 542.48 432.227 546.23 430.837C546.7 430.677 547.17 430.517 547.63 430.357C548.08 430.177 548.53 429.997 548.98 429.827C549.87 429.477 550.72 429.137 551.55 428.817C553.17 428.127 554.64 427.447 555.9 426.887C563.36 423.267 566.68 421.027 568.77 419.757C575.01 415.757 579.53 412.157 583.64 408.537L583.65 408.517Z" fill="#E9F2FE"/>
<path d="M550.229 527.397C551.999 527.557 553.339 527.517 554.219 527.367C555.099 527.237 555.529 527.077 555.519 526.917C555.519 526.767 555.069 526.617 554.209 526.507C553.349 526.417 552.069 526.267 550.379 526.057C545.569 525.437 540.819 523.697 536.169 520.977C531.539 518.207 527.029 514.377 523.029 509.177C518.529 503.237 516.559 498.917 514.849 495.237C513.229 491.497 511.989 488.217 510.629 483.297C508.319 474.977 506.349 463.487 505.709 453.187C505.089 442.877 505.559 433.837 505.849 430.347C505.919 429.317 505.969 428.277 506.069 427.237C506.229 425.387 506.469 421.957 507.059 417.457C507.299 415.197 507.759 412.687 508.159 409.947C508.409 408.587 508.679 407.167 508.949 405.707C509.089 404.977 509.229 404.237 509.369 403.477C509.539 402.727 509.709 401.967 509.879 401.197C512.459 388.857 517.289 374.377 523.099 361.577C531.359 343.497 538.289 333.237 541.749 327.847C545.909 321.507 549.809 316.137 553.519 311.257C557.209 306.367 560.749 301.997 564.329 297.717C568.289 293.047 567.579 292.387 563.419 296.927C559.669 301.077 555.979 305.367 552.179 310.227C548.359 315.067 544.389 320.437 540.189 326.817C536.959 331.777 529.889 342.017 522.409 357.857C521.809 359.147 521.189 360.437 520.639 361.747C520.089 363.057 519.549 364.367 518.999 365.677C516.749 371.347 514.449 377.487 512.589 383.607C510.729 389.727 509.079 395.757 507.969 401.117C507.329 403.787 506.939 406.307 506.479 408.547C506.069 410.797 505.789 412.787 505.519 414.447C505.229 416.097 505.119 417.427 504.989 418.327C504.879 419.237 504.809 419.727 504.809 419.727C504.809 419.727 504.719 420.457 504.559 421.777C504.439 423.107 504.269 425.017 504.049 427.377C503.729 432.107 503.339 438.637 503.589 445.787C503.779 452.937 504.489 460.697 505.659 467.847C506.799 474.997 508.359 481.527 509.819 486.307C511.989 493.527 514.369 498.627 516.399 502.387C518.469 506.127 520.189 508.527 521.549 510.317C525.699 515.707 530.449 519.667 535.309 522.467C540.189 525.227 545.209 526.917 550.239 527.387L550.229 527.397Z" fill="#E9F2FE"/>
<path d="M477.68 314.067C476.15 318.277 477.2 318.657 478.93 314.567C481.43 308.767 484.14 302.727 488.05 295.177C489.13 293.017 490.07 291.307 490.86 289.817C491.64 288.327 492.33 287.097 492.98 285.957C494.24 283.657 495.4 281.747 497.17 278.997C500.19 274.367 504.6 268.387 508.91 263.407C513.19 258.397 517.32 254.367 518.96 252.837L520.4 251.467C520.83 251.057 521.43 250.467 522.19 249.727C522.98 249.017 523.92 248.167 525 247.207C527.15 245.267 529.94 242.997 533.16 240.607C536.39 238.237 540.11 235.837 544.06 233.627C548.01 231.407 552.27 229.517 556.45 227.997C562.36 225.837 567.37 224.807 571.34 224.227C573.34 224.017 575.06 223.767 576.56 223.747C578.05 223.687 579.29 223.597 580.31 223.667C585.09 223.697 589.25 224.267 593.02 225.117C596.79 225.967 600.17 227.107 603.43 228.457C605.22 229.207 606.2 229.427 606.33 229.177C606.45 228.947 605.71 228.237 603.93 227.357C600.69 225.787 597.28 224.457 593.42 223.467C589.57 222.477 585.27 221.827 580.33 221.787C579.37 221.727 578.15 221.777 576.69 221.817C575.22 221.817 573.52 221.977 571.58 222.167C567.72 222.617 562.94 223.467 557.59 225.257C555.86 225.877 554.12 226.467 552.47 227.247C548.85 228.787 545.13 230.757 541.58 232.817C538.02 234.867 534.73 237.157 531.88 239.197C530.47 240.247 529.18 241.247 528.02 242.137C526.89 243.067 525.89 243.887 525.06 244.567C523.45 245.977 522.5 246.817 522.5 246.817C522.5 246.817 522.15 247.127 521.51 247.697C520.86 248.247 519.98 249.107 518.89 250.157C517.79 251.197 516.49 252.447 515.12 253.897C514.43 254.617 513.7 255.367 512.95 256.147C512.23 256.947 511.48 257.787 510.72 258.637C509.16 260.317 507.68 262.177 506.13 264.007C504.64 265.877 503.15 267.757 501.78 269.617C500.43 271.487 499.09 273.267 497.97 274.977C496.82 276.667 495.77 278.207 494.93 279.567C494.29 280.577 493.69 281.527 493.13 282.417C492.59 283.317 492.1 284.157 491.63 284.947C491.16 285.737 490.73 286.457 490.33 287.137C489.95 287.827 489.59 288.467 489.26 289.057C488.6 290.237 488.05 291.237 487.58 292.097C487.13 292.967 486.75 293.697 486.43 294.327C482.49 301.957 479.92 308.137 477.71 314.087L477.68 314.067Z" fill="#E9F2FE"/>
<path d="M583.45 348.397C584.25 346.537 585.1 344.697 585.96 342.867C585.96 342.867 587.28 340.587 588.87 337.857C590.46 335.127 592.34 331.967 593.23 330.037C596.16 325.637 599.25 321.347 602.59 317.267C602.59 317.267 603.58 315.947 604.75 314.447C605.91 312.947 607.28 311.297 607.88 310.487C608.6 309.457 609.09 308.757 609.09 308.447C609.11 308.137 608.51 308.237 607.38 309.067C606.27 309.897 604.67 311.457 602.66 313.997C602.59 314.037 602.4 314.217 602.34 314.217C598.27 319.727 594.01 324.747 590.36 330.677C590.53 330.677 590.51 330.937 590.33 331.077L590.21 330.917C588.08 335.037 586.11 337.237 584.62 341.257C584.62 341.257 584.64 340.727 584.64 340.707C581.2 347.077 577.44 354.747 574.29 362.847C571.12 370.937 568.61 379.467 567.24 387.217L567.28 387.147L567.3 387.187C567.52 386.487 568.07 384.447 568.6 382.607C569.15 380.767 569.64 379.097 569.64 379.097C569.17 384.337 567.07 389.917 566.39 395.457L566.16 395.387C566.33 394.197 566.47 393.067 566.57 392.127C566.69 391.187 566.77 390.447 566.79 390.017C565.88 394.237 564.91 400.717 564.85 407.207C564.68 413.697 565.51 420.137 566.43 424.187C566.57 423.947 565.74 421.467 566.26 420.737C566.38 421.787 566.59 422.827 566.79 423.857C566.97 424.887 567.2 425.887 567.41 426.867C567.04 426.947 566.92 425.787 566.8 425.577C566.9 426.427 567.67 431.477 570 437.957C571.18 441.187 572.72 444.757 574.65 448.307C576.6 451.837 578.91 455.327 581.37 458.497C583.8 461.697 586.47 464.477 588.86 466.857C591.3 469.197 593.54 471.067 595.23 472.387C598.69 474.947 599.8 475.487 596.81 472.557L597.26 472.667C593.97 469.907 591.37 467.437 588.56 463.967C588.1 463.537 588.08 463.457 587.94 463.587C587.8 463.487 587.57 463.327 587.56 463.437C587.26 463.817 586.42 462.677 586.02 462.197C586.82 461.967 584.54 459.397 582.13 456.467C579.75 453.527 577.28 450.167 576.85 449.287C577.07 448.937 576.57 448.127 576.03 447.227C575.5 446.317 574.88 445.337 574.75 444.757C574.81 444.817 575.2 445.207 575.25 445.257C575.16 444.717 573.02 440.707 571.56 437.167C571.21 436.277 570.86 435.437 570.59 434.697C570.34 433.947 570.13 433.317 570 432.867C569.74 431.967 569.77 431.797 570.34 432.907C569.75 430.437 569.25 427.687 568.75 424.757C568.31 421.817 567.93 418.667 567.71 415.377C567.51 412.077 567.45 408.647 567.56 405.127C567.68 401.617 567.99 398.037 568.46 394.457C570.32 380.127 575.17 366.037 580.24 356.327L580.1 356.447C580.2 356.297 580.37 355.787 580.52 355.707C580.84 354.667 581.53 352.827 582.19 351.267C582.83 349.697 583.44 348.407 583.44 348.407L583.45 348.397ZM567.34 395.967C567.34 395.967 567.37 395.997 567.38 395.987C567.31 395.987 567.03 398.797 567 398.907L566.77 398.867C566.58 395.947 569.17 389.637 567.58 395.737C567.61 395.957 567.42 395.937 567.33 395.967H567.34ZM567.36 421.047C567.4 421.537 567.45 422.067 567.54 422.647C566.66 419.487 566.29 415.627 566.25 411.707C566.21 407.777 566.51 403.797 566.64 400.207C567.05 401.467 567.05 403.527 566.95 405.657C566.93 406.727 566.86 407.817 566.81 408.827C566.78 409.837 566.75 410.777 566.75 411.547C567.1 414.627 567.09 418.287 567.35 421.037L567.36 421.047ZM583.81 459.157L583.92 459.087L584.06 459.267C584.06 459.267 583.99 459.287 583.95 459.267C583.91 459.257 583.84 459.207 583.82 459.157H583.81ZM581.43 351.257C581.4 351.777 580.51 353.367 580.69 352.117C580.88 351.857 581.11 350.977 581.43 351.257ZM568.43 428.347C568.8 428.267 569.48 430.537 568.96 430.687C568.75 429.897 568.58 429.117 568.43 428.347ZM589.5 335.357C589.47 334.597 589.77 334.997 590.1 334.947C589.97 335.057 589.65 335.537 589.55 335.337L589.49 335.357H589.5ZM595.31 325.757C595.23 325.507 595.49 324.917 595.65 324.667C596.21 324.117 595.65 325.577 595.31 325.757ZM606.68 311.177C606.53 310.997 606.79 310.627 607.04 310.697C607.13 310.847 606.85 311.327 606.6 311.197C606.61 311.197 606.64 311.197 606.68 311.177ZM570.97 439.227C570.05 438.887 569.86 436.567 569.27 435.517C570 435.547 570.24 437.717 570.67 438.537C570.79 438.827 570.89 439.057 570.97 439.237V439.227ZM573.27 367.537C572.68 367.357 573.99 365.197 574.15 364.387L574.37 364.487C574.01 365.657 573.87 366.387 573.29 367.497L573.27 367.547V367.537ZM565.59 417.307C565.31 416.867 565.46 416.057 565.42 415.587C565.76 415.567 566 417.577 565.59 417.317V417.307ZM566 396.707C566.38 396.647 566.08 397.637 566.09 397.927C566.04 397.717 565.85 397.317 565.88 397.087C565.9 396.917 565.95 396.887 566 396.717V396.707ZM573.19 368.457C572.88 369.347 572.55 370.317 572.23 371.247L572.01 371.147C572.32 370.197 572.63 369.267 572.97 368.357L573.19 368.457ZM569.96 377.517L569.73 377.447C569.89 376.037 570.52 376.057 569.97 377.477V377.507L569.96 377.517ZM577.46 356.807C577.39 356.937 577.28 357.137 577.23 357.267C576.47 359.097 576.78 356.197 577.46 356.807ZM581.65 347.297C581.71 347.107 581.76 346.837 581.86 346.647C582.52 345.407 582.33 347.047 581.65 347.297Z" fill="#E9F2FE"/>
</g>
<mask id="mask3_287_72125" style="mask-type:luminance" maskUnits="userSpaceOnUse" x="738" y="-52" width="253" height="294">
<path d="M856.26 241.357H856.38L990.95 240.697L860.82 -50.9032L738.67 -51.2632L856.26 241.357Z" fill="white"/>
</mask>
<g mask="url(#mask3_287_72125)">
<path d="M777.941 49.2166C772.521 50.6866 769.971 51.9166 770.061 52.1766C770.161 52.4966 772.891 51.8566 778.281 50.5166C785.941 48.6366 793.921 47.2566 802.661 46.5066C811.391 45.7566 820.881 45.6366 831.371 47.2466C843.251 49.1166 850.381 51.7266 856.451 54.1166C857.971 54.7266 859.401 55.3866 860.831 56.0266C862.231 56.7266 863.661 57.3666 865.081 58.1466C866.501 58.9166 867.971 59.6966 869.481 60.6266C871.031 61.4966 872.541 62.5866 874.201 63.7466C879.801 67.6766 885.191 73.8766 888.941 81.3466C890.741 85.1166 892.201 89.1366 893.261 93.2466C894.251 97.3766 895.011 101.547 895.351 105.647C896.141 113.837 895.911 121.597 895.431 127.947C894.931 134.307 894.291 139.287 893.891 142.067C893.641 143.707 893.441 145.357 893.181 147.007C892.721 149.947 891.901 155.397 890.491 162.547C889.101 169.697 887.161 178.567 884.811 188.417C882.461 198.257 879.721 209.087 876.961 220.207C874.211 231.337 871.461 242.777 869.221 253.877C866.071 269.557 864.551 282.497 864.371 292.797C864.261 303.107 865.431 310.717 866.871 315.767C868.521 321.737 871.131 327.107 874.601 331.447C878.051 335.807 882.311 339.087 886.741 341.427C887.871 341.967 888.951 342.597 890.101 343.037C891.251 343.477 892.381 343.917 893.501 344.347C894.641 344.737 895.801 345.017 896.931 345.357C897.501 345.517 898.061 345.687 898.631 345.827C899.201 345.937 899.781 346.057 900.351 346.167C901.491 346.387 902.621 346.637 903.761 346.827C904.901 346.967 906.031 347.107 907.171 347.247L908.861 347.457C909.421 347.517 909.991 347.527 910.551 347.567C911.681 347.627 912.801 347.697 913.931 347.757C918.871 347.867 921.331 347.527 921.321 347.287C921.321 346.987 918.861 346.777 913.981 346.557C912.871 346.467 911.761 346.377 910.651 346.297C910.101 346.247 909.541 346.227 908.981 346.157L907.321 345.917C906.211 345.757 905.101 345.597 903.981 345.437C902.871 345.227 901.771 344.967 900.661 344.727C900.101 344.607 899.551 344.487 898.991 344.367C898.441 344.227 897.891 344.037 897.341 343.877C896.241 343.527 895.121 343.237 894.021 342.847C892.941 342.417 891.851 341.977 890.741 341.537C889.641 341.097 888.611 340.477 887.531 339.947C883.301 337.647 879.281 334.497 876.021 330.327C872.741 326.177 870.261 321.047 868.671 315.277C868.381 314.147 868.101 312.847 867.771 311.417C867.491 309.967 867.261 308.347 866.991 306.577C866.621 303.027 866.281 298.857 866.381 294.087C866.461 289.327 866.771 283.997 867.471 278.157C868.161 272.317 869.151 265.967 870.431 259.147C871.261 254.707 872.151 250.267 873.071 245.877C877.011 226.907 882.731 205.337 886.761 188.337C888.791 179.847 890.431 172.497 891.501 167.267C892.061 164.657 892.461 162.567 892.741 161.137C893.021 159.707 893.171 158.937 893.171 158.937C893.171 158.937 893.391 157.777 893.761 155.687C893.941 154.637 894.171 153.367 894.431 151.877C894.671 150.387 894.941 148.697 895.231 146.827C896.361 139.347 897.651 128.967 897.701 117.507C897.731 111.777 897.331 105.787 896.371 99.8466C895.401 93.9166 893.781 88.0366 891.391 82.7066C889.021 77.3666 885.841 72.6266 882.331 68.8066C878.861 64.9266 874.931 62.2066 871.581 59.9966C861.301 53.6566 852.791 50.6566 846.311 48.6566C839.781 46.7666 835.161 45.9166 831.641 45.3866C820.971 43.7466 811.291 43.9266 802.491 44.7666C793.671 45.6166 785.611 47.1366 777.931 49.1966L777.941 49.2166Z" fill="#CFE1FD"/>
<path d="M764.791 18.5768C757.821 24.5268 758.571 25.3668 765.641 19.6168C770.731 15.6368 775.971 11.5668 781.881 7.48684C787.791 3.39684 794.241 -0.903165 801.821 -5.19316C806.121 -7.62316 809.641 -9.54317 812.731 -11.0632C815.781 -12.6732 818.421 -13.8232 820.851 -14.9732C822.061 -15.5632 823.251 -16.0532 824.441 -16.5432C825.631 -17.0332 826.821 -17.5332 828.041 -18.0432C829.251 -18.5732 830.561 -18.9932 831.921 -19.5032C833.291 -19.9832 834.731 -20.5432 836.321 -21.0632C837.671 -21.4832 839.081 -21.9132 840.531 -22.3732C841.261 -22.5932 842.001 -22.8232 842.751 -23.0632C843.511 -23.2632 844.281 -23.4632 845.061 -23.6632C846.621 -24.0632 848.221 -24.4832 849.841 -24.9032C851.481 -25.2432 853.151 -25.5932 854.841 -25.9532C855.691 -26.1232 856.531 -26.3232 857.391 -26.4632C858.251 -26.6032 859.111 -26.7332 859.971 -26.8732C861.701 -27.1332 863.421 -27.4532 865.151 -27.6632C868.611 -28.0932 872.071 -28.3432 875.421 -28.3532C882.111 -28.3932 888.351 -27.2232 893.001 -25.1832C895.331 -24.1632 897.251 -22.9632 898.801 -21.8732C900.301 -20.7132 901.451 -19.6732 902.211 -18.8632C903.131 -17.9232 903.981 -16.9232 904.781 -15.8732C906.201 -14.0132 908.671 -10.3132 910.341 -4.72317C911.171 -1.94317 911.821 1.28684 911.981 4.82684C912.171 8.37684 911.911 12.2368 911.211 16.2468C909.791 24.2768 906.471 32.7768 902.181 41.0268C897.971 49.3268 892.661 57.3068 886.991 64.5068C878.941 74.6668 871.301 81.9468 865.001 87.3368C858.681 92.7168 853.721 96.3068 850.261 98.6768C842.121 104.317 834.551 108.567 827.431 112.197C820.291 115.807 813.551 118.757 806.771 121.397C803.041 122.837 801.221 123.717 801.311 123.977C801.391 124.227 803.391 123.857 807.191 122.527C814.091 120.067 820.941 117.257 828.191 113.717C835.421 110.157 843.091 105.917 851.331 100.227C854.541 98.0368 859.451 94.5768 865.531 89.5468C871.571 84.4868 878.831 77.8568 886.161 69.0268L887.951 66.8668L889.661 64.6468L891.351 62.4268L892.951 60.1468C897.541 53.6068 901.941 46.2068 905.561 38.6368C909.201 31.0968 911.971 23.2768 913.171 16.1368C913.771 12.5668 914.021 9.18684 913.971 6.16684C913.931 3.13684 913.561 0.466835 913.111 -1.70317C912.681 -3.88317 912.161 -5.58317 911.781 -6.73317C911.371 -7.87317 911.151 -8.49317 911.151 -8.49317C911.151 -8.49317 911.061 -8.72317 910.871 -9.15317C910.681 -9.58317 910.451 -10.2332 910.051 -11.0232C909.311 -12.6332 908.081 -14.8932 906.161 -17.4232C904.251 -19.9332 901.501 -22.6232 897.941 -24.8232C896.141 -25.8732 894.181 -26.8632 892.051 -27.6232C889.921 -28.3632 887.671 -28.9932 885.331 -29.3832C882.991 -29.7732 880.581 -30.0232 878.151 -30.1132C875.711 -30.1832 873.251 -30.1332 870.801 -29.9732C868.351 -29.8032 865.901 -29.5332 863.491 -29.1832C861.091 -28.7832 858.711 -28.3932 856.381 -28.0032C847.071 -26.2632 838.681 -23.6532 832.541 -21.4832C823.291 -18.1732 816.681 -15.1232 811.731 -12.6232C810.491 -12.0032 809.351 -11.4332 808.291 -10.9132C807.251 -10.3532 806.301 -9.83317 805.411 -9.35317C803.651 -8.38317 802.151 -7.62317 800.911 -6.87317C793.271 -2.54317 786.791 1.83683 780.901 6.01683C775.001 10.1968 769.811 14.3768 764.801 18.5068L764.791 18.5768Z" fill="#CFE1FD"/>
<path d="M830.39 172.697C828.34 174.177 826.76 175.197 825.76 175.987C824.76 176.767 824.3 177.237 824.38 177.367C824.46 177.497 825.07 177.297 826.21 176.727C827.34 176.137 829.05 175.257 831.14 173.817C843.13 165.827 855.06 156.557 870.16 144.387C878.67 137.427 883.9 132.977 888.44 129.097C892.98 125.207 896.84 121.897 902.49 117.047C907.25 112.937 912.85 108.137 918.6 103.047C921.49 100.517 924.4 97.8868 927.28 95.2568L929.42 93.2668L930.35 92.4068C930.41 92.3568 930.39 92.3968 930.64 92.3668L931.34 92.3268L932.73 92.2368L934.12 92.2868L935.5 92.3368C935.96 92.3968 936.41 92.4568 936.86 92.5168C940.48 92.9968 943.89 94.0868 946.92 95.4768C949.97 96.8568 952.61 98.5768 954.81 100.347C959.29 103.847 961.74 107.627 962.94 109.737L963.9 111.677C964.23 112.327 964.42 113.017 964.69 113.687C964.95 114.277 965.13 115.047 965.36 115.927C965.63 116.807 965.77 117.837 965.95 118.987C966.22 121.287 966.34 124.107 965.86 127.267C965.36 130.417 964.35 133.917 962.52 137.367C960.7 140.807 958.08 144.217 954.66 147.017C954.25 147.387 953.77 147.677 953.32 148.007C952.85 148.317 952.43 148.697 951.92 148.957C950.94 149.517 949.97 150.117 948.9 150.597C946.79 151.587 944.51 152.407 942.17 153.187C937.51 154.777 932.42 156.147 927.85 159.127C925.59 160.607 923.56 162.587 922.07 164.917C920.58 167.247 919.68 169.977 919.38 172.697C919.06 175.427 919.28 178.157 919.7 180.777C920.12 183.407 920.78 185.937 921.46 188.417C923.44 195.397 925.44 201.597 925.81 207.317C925.92 208.737 925.89 210.127 925.81 211.457C925.59 212.777 925.54 214.077 925.16 215.287C924.63 217.757 923.58 219.907 922.56 221.887C920.32 225.757 917.58 228.627 915.07 230.847C912.56 233.087 910.18 234.627 908.26 235.867C899.01 241.627 889.59 243.967 881.14 246.727C872.66 249.417 864.8 252.197 857.9 256.687C856.02 257.927 854.7 258.987 853.9 259.797C853.09 260.587 852.74 261.037 852.83 261.137C852.92 261.237 853.44 260.997 854.37 260.397C855.29 259.777 856.67 258.877 858.54 257.707C865.39 253.507 873.15 250.917 881.64 248.347C885.89 247.057 890.35 245.757 895.01 244.137C899.68 242.537 904.48 240.377 909.25 237.457C910.18 236.887 911.2 236.187 912.34 235.427C913.44 234.597 914.7 233.727 915.95 232.627C918.48 230.467 921.3 227.687 923.7 223.887C924.94 222.017 925.91 219.817 926.76 217.437C926.92 216.827 927.08 216.207 927.25 215.577C927.33 215.267 927.41 214.947 927.5 214.627C927.55 214.307 927.6 213.977 927.64 213.647C927.73 212.987 927.83 212.317 927.92 211.647C927.95 210.967 928.02 210.277 928.01 209.587C928.1 203.997 926.55 198.167 924.81 192.117C923.68 188.167 922.48 184.267 921.8 180.357C921.44 178.247 921.23 176.087 921.34 173.927C921.46 171.777 921.95 169.637 922.85 167.667C923.76 165.697 925.1 163.917 926.72 162.437C928.35 160.957 930.29 159.807 932.32 158.847C936.39 156.927 940.8 155.737 944.97 154.237C947.06 153.487 949.09 152.667 951.01 151.677C951.94 151.117 952.9 150.647 953.75 150.037C954.59 149.407 955.48 148.877 956.23 148.177C959.35 145.577 961.71 142.567 963.43 139.667C965.15 136.767 966.25 133.967 966.89 131.577C967.58 129.197 967.85 127.237 967.99 125.897C968.07 125.227 968.13 124.707 968.12 124.357C968.13 124.007 968.14 123.817 968.14 123.817C968.14 123.817 968.14 123.547 968.16 123.027C968.16 122.767 968.17 122.447 968.18 122.067C968.16 121.687 968.13 121.247 968.1 120.757C968.03 118.787 967.62 115.927 966.43 112.607C965.23 109.287 963.01 105.637 959.82 102.317C956.66 98.9668 952.48 96.0168 947.7 93.8068C947.11 93.5068 946.5 93.2668 945.87 93.0368C945.25 92.8068 944.63 92.5468 943.99 92.3268C942.7 91.9568 941.42 91.4968 940.07 91.2668C937.41 90.6368 934.63 90.4168 931.85 90.5368L930.81 90.6068L930.27 90.6468L929.86 90.6768L929.64 90.6968C929.58 90.7268 929.53 90.7868 929.48 90.8368L927.85 92.3668C926.87 93.2868 925.89 94.1968 924.91 95.1068C922.93 96.8968 920.98 98.7068 919.03 100.427C911.27 107.377 903.96 113.667 898.5 118.327C882.04 132.367 873.92 138.887 868.97 142.937C853.9 155.097 842.1 164.487 830.37 172.697H830.39Z" fill="#CFE1FD"/>
<path d="M750.33 -22.6035C746.76 -20.1435 745.18 -18.6235 745.35 -18.3835C745.54 -18.1235 747.47 -19.1335 751.07 -21.4735C756.2 -24.7735 761.66 -27.8435 767.73 -30.8535C773.81 -33.8435 780.54 -36.7435 788.33 -39.3735C797.16 -42.3635 802.86 -43.6335 807.81 -44.7135C809.05 -44.9635 810.25 -45.2035 811.44 -45.4435C812.64 -45.6335 813.84 -45.8335 815.08 -46.0335C815.7 -46.1335 816.33 -46.2235 816.97 -46.3335C817.62 -46.4135 818.28 -46.4835 818.96 -46.5635C820.33 -46.7035 821.77 -46.9235 823.34 -47.0235C828.65 -47.4535 834.96 -47.9335 841.3 -46.8535C844.45 -46.3035 847.61 -45.3435 850.39 -43.7335C853.19 -42.1635 855.66 -40.0635 857.66 -37.6735C861.7 -32.8935 864.03 -27.3335 865.41 -22.6935C866.09 -20.3635 866.61 -18.2435 866.87 -16.4235C867.02 -15.5235 867.15 -14.7035 867.27 -13.9735C867.38 -13.2435 867.41 -12.6035 867.47 -12.0735C867.58 -10.8135 867.75 -9.55354 867.76 -8.28354C867.79 -7.15354 867.92 -5.53354 867.8 -3.51354C867.76 -2.50354 867.77 -1.38354 867.62 -0.183544C867.56 0.416456 867.5 1.04646 867.44 1.68646C867.41 2.00646 867.38 2.33646 867.34 2.67646C867.28 3.00646 867.23 3.34646 867.17 3.68646C866.91 5.04646 866.76 6.51646 866.35 8.00646C866.17 8.75646 865.98 9.52646 865.79 10.3165C865.6 11.1065 865.31 11.8765 865.06 12.6865C864.09 15.9165 862.59 19.2565 860.71 22.5965C860.21 23.4165 859.7 24.2365 859.19 25.0765C858.64 25.8865 858.02 26.6665 857.44 27.4765C857.13 27.8665 856.86 28.2965 856.52 28.6665C856.18 29.0365 855.84 29.4165 855.5 29.7965C854.81 30.5365 854.17 31.3565 853.37 32.0165C850.45 34.9565 846.79 37.2665 842.94 39.1265C839.01 40.8265 834.66 41.7665 830.35 41.6565C826.06 41.5265 821.82 40.2365 818.57 37.6965C817.42 36.8165 816.42 35.7765 815.55 34.7065C814.7 33.6065 813.98 32.4365 813.37 31.2565C812.2 28.8565 811.43 26.3865 810.98 23.9865C810.51 21.5865 810.3 19.2665 810.21 17.0765C810.2 16.5265 810.18 15.9865 810.17 15.4565C810.18 14.9165 810.19 14.3965 810.2 13.8765C810.22 12.8365 810.24 11.8365 810.27 10.8565C810.76 3.07646 812.08 -2.55354 813.15 -6.33354C813.41 -7.46354 813.83 -8.54354 814.15 -9.61354C814.49 -10.6835 814.82 -11.7535 815.23 -12.7635C815.62 -13.7835 816 -14.7935 816.37 -15.7935C816.79 -16.7735 817.21 -17.7335 817.63 -18.6835C817.84 -19.1535 818.04 -19.6335 818.25 -20.0935C818.48 -20.5535 818.7 -21.0035 818.93 -21.4535C819.38 -22.3535 819.82 -23.2535 820.26 -24.1335C821.22 -25.8435 822.11 -27.5535 823.1 -29.1535C827 -35.5935 831.23 -41.1135 835.87 -46.1635C838.45 -48.9135 839.65 -50.3835 839.45 -50.6035C839.28 -50.7835 837.69 -49.6935 834.99 -46.9935C830.14 -42.0235 825.72 -36.5335 821.65 -30.0335C820.62 -28.4235 819.7 -26.6935 818.69 -24.9635C818.24 -24.0735 817.78 -23.1635 817.31 -22.2535C817.08 -21.7935 816.84 -21.3335 816.61 -20.8735C816.4 -20.3935 816.19 -19.9235 815.97 -19.4335C815.54 -18.4735 815.11 -17.4935 814.67 -16.4935C814.28 -15.4835 813.89 -14.4535 813.49 -13.4135C813.07 -12.3735 812.73 -11.2935 812.38 -10.1935C812.05 -9.09354 811.62 -7.99354 811.35 -6.83354C810.35 -3.28354 808.95 2.27646 808.34 9.77646C808.23 10.7065 808.22 11.6765 808.19 12.6765C808.16 13.6765 808.12 14.6965 808.11 15.7465C808.12 17.8565 808.24 20.0865 808.56 22.4065C808.89 24.7265 809.39 27.1565 810.29 29.5865C811.2 32.0065 812.44 34.4865 814.31 36.6565C815.51 38.0765 816.91 39.3465 818.48 40.3365C819.24 40.8865 820.09 41.2565 820.9 41.6965C821.76 42.0365 822.59 42.4365 823.48 42.6665C825.36 43.2665 827.35 43.5965 829.36 43.6965C831.37 43.8165 833.41 43.7065 835.41 43.3865C837.42 43.0665 839.41 42.5965 841.33 41.8965C843.24 41.1965 845.14 40.3965 846.84 39.3065C850.4 37.3865 853.44 34.7465 856.1 32.0065C856.74 31.2965 857.37 30.5865 858 29.8965C858.6 29.1765 859.12 28.4065 859.67 27.6865C860.82 26.2565 861.64 24.6765 862.57 23.2365C865.97 17.2565 867.59 11.5065 868.49 7.43646C868.87 5.38646 869.17 3.74646 869.32 2.61646C869.44 1.48646 869.5 0.866459 869.5 0.866459C869.5 0.866459 869.52 0.636459 869.57 0.206459C869.6 -0.233541 869.71 -0.873545 869.73 -1.70354C869.76 -2.53354 869.79 -3.54354 869.83 -4.72354C869.89 -5.90354 869.78 -7.24354 869.75 -8.71354C869.47 -14.5935 868.18 -22.8135 864.19 -30.8835C862.2 -34.8935 859.46 -38.8235 855.87 -41.9435C854.07 -43.4935 852.07 -44.8135 849.95 -45.8635C847.82 -46.8835 845.59 -47.6235 843.36 -48.1135C838.89 -49.0735 834.51 -49.1735 830.54 -49.0535C828.55 -49.0035 826.67 -48.8535 824.89 -48.7135C824 -48.6435 823.14 -48.5835 822.31 -48.5235C821.48 -48.4335 820.68 -48.3435 819.91 -48.2535C810.67 -47.2135 803.94 -45.6835 798.86 -44.4035C797.59 -44.0635 796.42 -43.7535 795.34 -43.4635C794.26 -43.1735 793.28 -42.8435 792.37 -42.5735C790.55 -42.0235 789.03 -41.5635 787.74 -41.0935C779.86 -38.4235 773.07 -35.4535 766.96 -32.3435C760.86 -29.2235 755.41 -26.0135 750.33 -22.5435V-22.6035Z" fill="#CFE1FD"/>
<path d="M744.65 -55.2733C741.18 -54.0233 739.6 -53.0133 739.71 -52.7533C739.84 -52.4433 741.63 -52.8733 745.08 -53.9933C749.99 -55.5533 755.14 -56.7833 760.81 -57.5633C766.48 -58.3233 772.67 -58.6333 779.57 -58.0133C787.39 -57.2933 792.15 -55.9633 796.21 -54.6633C800.27 -53.3433 803.64 -51.8933 808.22 -49.1933C812.07 -46.8833 816.32 -43.7033 820.19 -39.7933C824.08 -35.9133 827.65 -31.4133 830.43 -26.8133C833.25 -22.2333 835.37 -17.6433 836.8 -13.7533C838.22 -9.8533 839.09 -6.7033 839.48 -4.9233C839.74 -3.8733 839.99 -2.8233 840.2 -1.7633C840.64 0.116698 841.28 3.6367 841.71 8.3467C842.14 13.0567 842.25 18.9667 841.58 25.5067C840.39 38.6067 835.49 54.0167 828.05 66.6767C822.89 75.6767 817.54 82.2267 813.11 87.1567C810.93 89.6667 808.84 91.6567 807.09 93.3967C806.65 93.8367 806.23 94.2467 805.83 94.6467C805.41 95.0267 805 95.3867 804.62 95.7267C803.85 96.4167 803.15 97.0367 802.52 97.5967C801.77 98.2467 801.07 98.9267 800.32 99.5267C799.57 100.127 798.83 100.717 798.11 101.307C796.65 102.467 795.28 103.647 793.83 104.647C792.41 105.687 791.02 106.687 789.67 107.677C788.27 108.597 786.9 109.487 785.57 110.367C784.9 110.797 784.25 111.257 783.58 111.657C782.9 112.057 782.23 112.447 781.57 112.837C780.24 113.617 778.93 114.387 777.64 115.137C776.31 115.837 775 116.527 773.7 117.207C773.05 117.547 772.4 117.897 771.75 118.237L769.77 119.157C763.97 121.857 764.31 122.767 770.27 120.257L772.3 119.397C772.96 119.077 773.63 118.747 774.3 118.427C775.64 117.777 776.98 117.117 778.34 116.457C779.68 115.747 781.01 114.977 782.37 114.227C783.05 113.847 783.74 113.457 784.43 113.077C785.12 112.677 785.78 112.237 786.47 111.807C787.84 110.937 789.24 110.057 790.67 109.147C792.05 108.167 793.47 107.157 794.92 106.127C796.4 105.127 797.8 103.937 799.29 102.767C800.03 102.177 800.78 101.577 801.54 100.967C802.3 100.357 803.02 99.6767 803.77 99.0167C806.12 96.9667 809.74 93.7767 814.06 89.1367C818.43 84.5567 823.45 78.4367 828.29 70.5867C828.68 69.9467 829.11 69.3267 829.47 68.6667L830.55 66.6867C831.26 65.3667 831.98 64.0567 832.67 62.7367C835.43 56.9267 838.05 50.5267 839.91 44.0467C841.8 37.5767 842.98 31.0867 843.52 25.3367C844.09 19.5867 844.06 14.6067 843.87 11.0867C843.69 7.5667 843.42 5.4967 843.42 5.4967C843.42 5.4967 843.32 4.7267 843.15 3.3367C842.93 1.9467 842.65 -0.0632997 842.12 -2.5033C841.11 -7.3933 839.17 -14.0633 835.83 -20.8333C832.56 -27.6433 827.79 -34.4333 822.46 -39.9133C817.15 -45.4233 811.26 -49.5033 806.63 -52.0033C799.6 -55.7333 793.88 -57.3533 789.54 -58.3633C788.45 -58.5933 787.44 -58.8133 786.5 -59.0033C785.56 -59.1433 784.69 -59.2833 783.89 -59.4033C782.29 -59.6833 780.94 -59.7633 779.77 -59.8833C772.7 -60.5133 766.36 -60.1433 760.6 -59.2833C754.83 -58.4033 749.61 -57.0233 744.69 -55.2833L744.65 -55.2733Z" fill="#CFE1FD"/>
</g>
<mask id="mask4_287_72125" style="mask-type:luminance" maskUnits="userSpaceOnUse" x="-11" y="405" width="237" height="223">
<path d="M159.2 405.857H69.7305H-10.2695V627.107H211.44L225.8 405.857H212.88H159.2Z" fill="white"/>
</mask>
<g mask="url(#mask4_287_72125)">
<path d="M-27.4689 530.347C-23.7389 533.427 -20.2789 535.877 -17.2489 537.847C-14.1789 539.787 -11.5489 541.267 -9.39889 542.357C-8.31889 542.887 -7.36889 543.347 -6.54889 543.737C-5.71889 544.087 -5.01889 544.377 -4.45889 544.607C-3.33889 545.057 -2.76889 545.247 -2.72889 545.167C-2.69889 545.097 -3.20889 544.767 -4.25889 544.187C-4.78889 543.907 -5.44889 543.557 -6.23889 543.127C-7.01889 542.687 -7.92889 542.167 -8.97889 541.577C-11.0589 540.387 -13.6089 538.827 -16.5989 536.847C-19.5589 534.817 -22.9389 532.347 -26.6089 529.287C-31.7889 524.917 -36.6889 520.137 -41.1989 514.927C-45.7089 509.727 -50.0089 504.197 -53.7989 498.267C-55.6789 495.297 -57.4689 492.227 -59.0089 489.017C-60.5589 485.817 -61.9789 482.507 -63.0189 479.057C-64.0689 475.617 -64.9389 472.067 -65.2289 468.427C-65.5489 464.797 -65.4389 461.107 -64.7689 457.467C-64.5589 456.567 -64.3489 455.667 -64.1389 454.767C-63.8889 453.877 -63.5489 453.007 -63.2589 452.117C-62.6389 450.357 -61.8189 448.667 -60.8889 447.027C-59.0189 443.757 -56.5989 440.747 -53.7789 438.097C-48.1189 432.777 -41.0689 428.757 -33.4589 425.727C-18.1489 419.727 -0.738894 417.057 17.5411 417.557C27.9111 417.827 37.2711 419.067 45.7511 420.667C54.2311 422.267 61.8411 424.267 68.8011 426.317C82.7211 430.497 94.0611 434.947 104.531 439.287C114.991 443.667 124.591 447.917 134.611 452.897C144.601 457.907 155.081 463.587 166.631 471.667C176.381 478.477 186.361 486.827 195.321 497.027C199.811 502.107 204.011 507.667 207.721 513.657C211.451 519.637 214.701 526.077 217.171 532.867C219.591 539.667 221.251 546.847 221.591 554.137C221.911 561.407 220.981 568.817 218.171 575.527C218.001 575.947 217.851 576.377 217.651 576.787L217.051 578.007C216.631 578.807 216.281 579.647 215.811 580.417L214.391 582.737C213.941 583.527 213.341 584.207 212.831 584.957C211.811 586.457 210.541 587.757 209.381 589.127C208.081 590.377 206.861 591.707 205.451 592.827C200.011 597.557 193.611 600.977 187.021 603.447C173.721 608.317 159.601 608.387 146.911 606.217C140.531 605.177 134.451 603.597 128.701 601.807C122.941 600.017 117.511 598.017 112.391 595.997C102.171 591.907 93.2011 587.857 85.7711 584.187C82.0911 582.287 78.7211 580.617 75.8311 578.977C74.3711 578.177 73.0111 577.427 71.7511 576.727C70.5111 575.997 69.3711 575.317 68.3311 574.697L64.6411 572.507L61.0211 570.197C59.8211 569.417 58.5911 568.677 57.4111 567.867L53.8711 565.427C49.6411 562.547 43.7811 558.187 36.9111 552.197C30.0611 546.187 22.2611 538.387 14.8911 528.307C13.9811 527.047 13.0511 525.757 12.1111 524.457C11.2511 523.107 10.3711 521.727 9.4911 520.337C7.6811 517.567 5.9811 514.637 4.4911 511.527C2.9911 508.417 1.71111 505.117 0.861107 501.647C0.0411069 498.177 -0.338892 494.517 0.151108 490.867C0.581108 487.217 1.97111 483.657 4.07111 480.447C6.18111 477.247 9.01111 474.437 12.2611 472.127C15.5311 469.837 19.2511 468.097 23.2211 466.897C27.1911 465.707 31.3911 465.037 35.6711 464.757C39.9611 464.487 44.3411 464.567 48.7511 464.937C50.9611 465.057 53.1711 465.377 55.3911 465.607C57.6011 465.957 59.8411 466.227 62.0511 466.687C70.9511 468.327 79.8411 471.017 88.5211 474.577C92.8611 476.357 97.1311 478.407 101.341 480.607C105.541 482.847 109.651 485.307 113.691 487.937C117.701 490.597 121.611 493.467 125.431 496.477C129.231 499.517 132.901 502.747 136.481 506.097C150.711 519.587 162.951 535.547 172.891 552.637C175.301 556.927 177.351 561.407 178.561 566.097C179.751 570.767 180.011 575.687 178.981 580.337C177.991 584.977 175.561 589.257 171.911 592.207C168.281 595.177 163.731 596.937 159.091 597.597C152.491 598.557 145.901 597.077 140.001 594.627C134.071 592.147 128.721 588.717 123.731 585.097C113.771 577.817 105.501 569.357 98.7511 560.557C92.0011 551.747 86.7411 542.567 82.8011 533.517C78.8911 524.457 76.6411 515.357 75.7111 506.717C74.7811 498.067 75.1611 489.887 76.4211 482.447C76.8311 480.627 77.1211 478.807 77.7311 477.107C78.0211 476.257 78.2111 475.377 78.5811 474.577C78.9211 473.767 79.2611 472.957 79.5911 472.157C81.0811 469.047 82.7711 466.157 84.8111 463.687C88.7711 458.657 93.4411 454.927 97.9611 452.007C102.491 449.067 106.921 446.937 110.951 445.197C120.491 441.077 130.261 438.327 139.811 436.047C149.371 433.797 158.771 432.067 167.941 430.537C186.291 427.487 203.771 425.167 220.451 422.167C228.791 420.647 236.931 418.967 244.851 416.897C248.801 415.807 252.711 414.707 256.511 413.357C258.431 412.737 260.291 411.957 262.171 411.257C264.011 410.457 265.881 409.727 267.661 408.817C269.481 407.987 271.211 406.997 272.961 406.037C274.651 404.977 276.361 403.967 277.951 402.757C281.151 400.407 284.131 397.727 286.551 394.567C291.411 388.267 293.761 380.217 293.331 372.417C293.321 371.877 293.301 371.357 293.291 370.837C293.231 370.317 293.171 369.817 293.121 369.317C293.001 368.317 292.911 367.357 292.761 366.427C292.581 365.507 292.401 364.627 292.231 363.777C292.061 362.927 291.901 362.107 291.661 361.347C291.211 359.817 290.861 358.387 290.421 357.137C289.971 355.887 289.561 354.767 289.191 353.767C288.441 351.777 287.711 350.357 287.281 349.397C286.821 348.437 286.561 347.977 286.501 348.007C286.351 348.067 287.091 350.057 288.481 354.027C288.801 355.027 289.151 356.157 289.551 357.417C289.941 358.667 290.241 360.087 290.651 361.607C290.871 362.367 291.011 363.167 291.161 364.007C291.311 364.847 291.471 365.717 291.641 366.617C291.771 367.527 291.841 368.467 291.951 369.437C292.001 369.927 292.051 370.417 292.111 370.927C292.111 371.437 292.131 371.947 292.141 372.467C292.501 380.067 290.191 387.727 285.501 393.757C283.161 396.777 280.261 399.357 277.141 401.627C275.601 402.797 273.921 403.777 272.261 404.797C270.541 405.717 268.841 406.687 267.051 407.497C265.291 408.377 263.451 409.087 261.631 409.877C259.771 410.557 257.931 411.317 256.031 411.927C252.261 413.247 248.381 414.317 244.461 415.387C236.591 417.417 228.491 419.057 220.171 420.547C203.531 423.487 186.061 425.767 167.661 428.787C158.461 430.307 149.031 432.027 139.401 434.287C129.791 436.577 119.931 439.337 110.231 443.527C106.461 445.137 102.251 447.177 97.8211 449.947C93.4111 452.717 88.7411 456.247 84.5511 461.017C82.5411 463.467 80.5211 466.107 78.9611 469.187C78.0911 470.677 77.4611 472.317 76.7611 473.967C76.3911 474.787 76.1911 475.667 75.9011 476.527C75.6411 477.397 75.3111 478.257 75.1511 479.177C74.2611 482.797 73.8111 486.547 73.4811 490.457C73.1711 494.367 73.1111 498.427 73.3711 502.587C73.8611 510.917 75.5111 519.687 78.6211 528.497C80.1611 532.907 82.1211 537.287 84.3311 541.637C86.5411 546.007 89.0711 550.337 91.9011 554.617C97.5611 563.167 104.471 571.487 112.771 579.017C116.921 582.767 121.421 586.317 126.261 589.567C131.091 592.817 136.331 595.797 142.131 597.827C145.911 599.137 149.881 599.977 153.921 600.127C157.961 600.237 162.031 599.607 165.841 598.207C169.631 596.777 173.181 594.537 175.881 591.437C178.601 588.347 180.341 584.507 181.141 580.567C182.021 576.297 181.901 571.857 181.041 567.577C180.171 563.287 178.561 559.177 176.611 555.277C174.651 551.367 172.371 547.637 170.001 543.977C167.661 540.287 165.161 536.677 162.591 533.097C152.271 518.827 140.041 505.637 126.231 494.677C112.411 483.747 96.9611 475.167 81.0411 469.777C73.1011 467.027 65.0411 465.147 57.0911 463.987C49.1411 462.857 41.2811 462.397 33.7011 463.057C26.1411 463.727 18.8311 465.737 12.7911 469.537C6.79111 473.297 2.08111 478.667 -0.248894 484.717C-1.39889 487.747 -1.93889 490.887 -1.97889 493.907C-2.00889 496.937 -1.56889 499.837 -0.888893 502.547C0.491107 507.967 2.74111 512.627 4.98111 516.677C9.67111 524.647 13.9411 530.637 17.1611 534.507C18.7611 536.447 19.9311 537.997 20.8411 538.957C21.7211 539.927 22.1811 540.437 22.1811 540.437C22.1811 540.437 22.8611 541.187 24.1611 542.617C25.4211 544.087 27.4811 546.057 30.0811 548.647C35.3611 553.717 43.3611 560.727 54.1311 568.087C64.8611 575.507 78.4011 583.147 93.9711 590.277C95.9311 591.147 97.9011 592.037 99.9011 592.927C101.921 593.777 103.961 594.637 106.021 595.507C110.151 597.237 114.411 598.897 118.781 600.497C127.521 603.657 136.791 606.447 146.541 608.067C156.261 609.657 166.511 610.087 176.621 608.187C186.671 606.287 196.521 602.197 204.731 595.757C208.821 592.547 212.481 588.737 215.401 584.407C218.331 580.087 220.481 575.247 221.741 570.227C223.021 565.207 223.491 560.027 223.321 554.927C223.131 549.827 222.311 544.797 221.071 539.947C219.821 535.097 218.141 530.417 216.141 525.947C214.121 521.497 211.831 517.237 209.331 513.187C206.851 509.137 204.141 505.297 201.291 501.697C198.441 498.097 195.491 494.677 192.431 491.507C180.201 478.747 166.911 469.447 155.211 462.347C146.361 457.027 137.791 452.577 129.651 448.677C121.511 444.777 113.821 441.397 106.601 438.327C92.1611 432.187 79.4811 427.627 68.3111 424.317C45.9411 417.707 29.7811 416.077 17.5911 415.707C-0.90889 415.207 -18.5589 417.917 -34.1389 424.047C-41.8989 427.157 -49.1389 431.277 -55.0089 436.817C-57.9289 439.587 -60.4589 442.737 -62.4189 446.177C-63.3889 447.897 -64.2489 449.687 -64.8989 451.537C-65.1989 452.467 -65.5489 453.387 -65.8189 454.317C-66.0389 455.267 -66.2589 456.217 -66.4789 457.157C-67.1789 460.977 -67.2789 464.837 -66.9289 468.607C-66.6089 472.387 -65.6989 476.037 -64.6089 479.577C-63.5189 483.117 -62.0589 486.497 -60.4689 489.757C-58.8889 493.027 -57.0489 496.127 -55.1289 499.147C-51.2489 505.157 -46.8989 510.687 -42.3089 515.927C-37.7189 521.167 -32.7389 525.967 -27.4789 530.357L-27.4689 530.347Z" fill="#CFE1FD"/>
<path d="M108.49 641.687C108.05 639.457 107.21 637.667 106.4 636.217C105.58 634.767 104.75 633.667 104.06 632.807C102.66 631.107 101.81 630.407 101.7 630.497C101.57 630.607 102.19 631.507 103.36 633.307C103.93 634.217 104.65 635.347 105.36 636.767C106.06 638.187 106.79 639.897 107.16 641.917C107.7 644.787 107.1 647.807 105.33 650.137C103.57 652.467 100.89 654.137 97.9705 654.987C95.0605 655.847 91.8405 655.827 88.6805 655.337C85.5005 654.847 82.3004 653.897 79.0604 652.837C72.5604 650.757 65.9205 648.237 59.1805 645.067C52.4705 641.857 45.6505 637.997 39.0905 633.007C35.3705 630.187 32.1905 627.387 29.4405 624.657C26.7305 621.897 24.4204 619.227 22.4604 616.637C18.5304 611.447 15.8704 606.647 13.7904 602.037C11.7304 597.407 10.2804 592.917 9.32045 588.007C8.39045 583.107 7.94045 577.747 8.58045 571.477C8.90045 568.837 9.40045 566.097 10.1405 563.317C10.9105 560.547 11.9005 557.747 13.1305 554.967C15.6405 549.427 19.0604 543.957 23.4004 539.097C31.9904 529.257 44.1104 522.157 56.3204 518.477C62.4204 516.597 68.5404 515.457 74.3504 515.037C80.1504 514.467 85.6305 514.697 90.5505 515.087C100.39 516.037 107.91 518.197 112.04 519.497C113.27 519.857 114.47 520.337 115.68 520.757C116.89 521.207 118.12 521.577 119.3 522.097C120.36 522.537 121.65 523.067 123.15 523.687C124.64 524.317 126.29 525.167 128.15 526.027C130.01 526.907 131.96 528.057 134.12 529.207C135.18 529.817 136.26 530.507 137.38 531.187C138.51 531.877 139.68 532.577 140.82 533.397C141.98 534.197 143.18 535.017 144.41 535.857C145.59 536.767 146.81 537.697 148.06 538.647C149.33 539.567 150.52 540.667 151.78 541.717C152.41 542.247 153.04 542.787 153.68 543.337C154.29 543.917 154.91 544.497 155.53 545.087C160.57 549.737 165.6 555.247 169.88 561.727C174.13 568.197 177.53 575.817 178.53 584.137C178.8 586.207 178.89 588.317 178.84 590.427C178.79 592.537 178.59 594.657 178.17 596.747C177.76 598.837 177.19 600.907 176.39 602.907C175.59 604.897 174.6 606.817 173.42 608.637C168.7 615.937 161.22 621.397 153.03 624.587C144.79 627.827 135.87 628.957 127.18 629.097C124.1 629.197 121.1 628.957 118.17 628.837C117.44 628.807 116.71 628.767 115.99 628.737C115.27 628.707 114.55 628.677 113.84 628.567C112.42 628.397 111.02 628.227 109.63 628.057C108.25 627.887 106.88 627.727 105.53 627.567C104.2 627.307 102.88 627.057 101.58 626.807C98.9905 626.277 96.4304 625.897 94.0204 625.167C91.6004 624.507 89.2304 623.907 86.9604 623.247C84.7204 622.477 82.5404 621.727 80.4204 621.007C78.2804 620.347 76.3205 619.397 74.3705 618.607C73.4005 618.197 72.4505 617.797 71.5105 617.407C70.5705 617.017 69.6404 616.627 68.7704 616.167C67.0104 615.287 65.3004 614.427 63.6604 613.597C62.8404 613.177 62.0205 612.797 61.2405 612.357C60.4705 611.907 59.7204 611.467 58.9804 611.027C56.0304 609.277 53.2405 607.747 50.8605 606.017C49.6505 605.187 48.4804 604.397 47.3704 603.647C46.8104 603.267 46.2705 602.897 45.7405 602.537C45.2305 602.137 44.7405 601.757 44.2505 601.377C42.3205 599.867 40.5705 598.497 39.0005 597.277C37.1805 595.787 35.5005 594.187 33.7905 592.687C32.9405 591.927 32.0905 591.187 31.2705 590.417C30.4905 589.617 29.7105 588.817 28.9305 588.027C27.4005 586.427 25.8204 584.927 24.4004 583.317C23.0104 581.687 21.6305 580.067 20.2805 578.477C18.8705 576.927 17.7004 575.227 16.4804 573.597C15.2904 571.947 14.0404 570.377 12.9404 568.727C11.8804 567.047 10.8305 565.397 9.79045 563.757C9.27045 562.937 8.76045 562.117 8.25045 561.307C7.80045 560.467 7.35045 559.617 6.90045 558.787C3.23045 552.177 -0.16955 545.547 -0.87955 538.607C-1.23955 535.157 -0.69955 531.717 0.50045 528.537C1.73045 525.357 3.58045 522.447 5.80045 519.857C8.24045 517.007 10.4104 515.157 11.8204 513.907C13.2504 512.657 13.9804 512.037 13.8904 511.917C13.8204 511.817 12.9405 512.217 11.3505 513.307C9.78045 514.407 7.45045 516.167 4.89045 519.067C2.56045 521.707 0.58045 524.707 -0.75955 528.047C-1.42955 529.717 -1.88955 531.477 -2.18955 533.267C-2.44955 535.067 -2.52955 536.907 -2.35955 538.737C-2.04955 542.407 -0.96955 545.977 0.42045 549.427C1.13045 551.147 1.88045 552.867 2.75045 554.537C3.63045 556.207 4.52045 557.887 5.41045 559.587C5.86045 560.437 6.31045 561.297 6.76045 562.157C7.26045 562.987 7.79045 563.807 8.31045 564.647C9.35045 566.317 10.4104 567.997 11.4804 569.707C12.5904 571.387 13.8504 572.987 15.0504 574.667C16.2804 576.327 17.4604 578.047 18.8804 579.627C20.2504 581.247 21.6405 582.877 23.0405 584.547C24.4805 586.177 26.0805 587.707 27.6205 589.327C28.4005 590.127 29.1904 590.937 29.9804 591.757C30.8104 592.537 31.6704 593.287 32.5304 594.067C34.2704 595.587 35.9605 597.217 37.8105 598.727C43.5605 603.367 52.6705 610.397 66.1505 617.107C66.9905 617.537 67.8404 617.967 68.7004 618.397C69.5704 618.827 70.4905 619.177 71.4005 619.577C73.2305 620.357 75.1105 621.157 77.0505 621.987C79.0005 622.777 81.0604 623.417 83.1404 624.157C84.1804 624.517 85.2404 624.887 86.3104 625.257C87.3904 625.607 88.5005 625.867 89.6205 626.187C98.5005 628.857 108.56 630.567 119.47 631.097C121.25 631.167 123.03 631.297 124.81 631.307C126.59 631.317 128.37 631.267 130.15 631.197C133.71 631.027 137.25 630.687 140.75 630.087C148.28 628.807 156.04 626.297 162.82 621.817C166.2 619.597 169.32 616.917 171.99 613.827C174.64 610.717 176.82 607.187 178.28 603.377C181.23 595.747 181.35 587.427 179.75 579.947C178.17 572.407 174.82 565.687 171 559.997C167.16 554.297 162.88 549.537 158.8 545.557C156.73 543.597 154.81 541.717 152.88 540.147C151.93 539.347 151.03 538.547 150.14 537.827C149.23 537.127 148.36 536.457 147.53 535.817C146.7 535.187 145.93 534.557 145.16 534.027C144.39 533.497 143.67 532.997 142.99 532.527C141.64 531.607 140.5 530.777 139.52 530.207C137.58 529.007 136.53 528.367 136.53 528.367C136.53 528.367 136.14 528.127 135.39 527.667C134.62 527.247 133.49 526.627 132.03 525.827C131.3 525.437 130.5 524.967 129.59 524.527C128.68 524.087 127.69 523.617 126.63 523.107C124.53 522.027 122.02 521.087 119.3 519.927C113.77 517.837 107.04 515.707 99.3605 514.347C91.7005 512.977 83.1005 512.397 74.1905 513.197C65.2805 513.907 56.0905 516.117 47.4905 519.847C38.8805 523.537 30.9404 528.877 24.5704 535.357C18.2204 541.847 13.4705 549.377 10.5505 556.867C9.08045 560.607 8.06045 564.337 7.44045 567.907C7.14045 569.697 6.90045 571.437 6.80045 573.137C6.75045 573.987 6.64045 574.817 6.65045 575.627C6.65045 576.447 6.64045 577.247 6.63045 578.027C6.69045 582.747 7.33045 587.137 8.27045 591.147C9.19045 595.167 10.5004 598.797 11.9004 602.097C13.2704 605.417 14.9005 608.317 16.4305 611.007C18.0505 613.637 19.6505 616.017 21.2705 618.117C24.4905 622.337 27.6004 625.587 30.4004 628.217C33.2304 630.807 35.6904 632.887 37.9204 634.527C44.6104 639.607 51.5505 643.517 58.3605 646.747C65.1905 649.947 71.9205 652.457 78.5005 654.517C81.7805 655.557 85.0505 656.517 88.4005 657.007C91.7405 657.487 95.1704 657.497 98.3904 656.517C101.58 655.557 104.5 653.707 106.48 651.037C107.45 649.697 108.15 648.157 108.47 646.547C108.8 644.937 108.77 643.277 108.47 641.707L108.49 641.687Z" fill="#CFE1FD"/>
</g>
<path d="M169.901 106.217H141.511H104.121H41.8108H-21.1992V294.227H332.611V106.217H270.991H206.251H169.901Z" fill="#CFE1FD"/>
<path d="M332.61 294.227V106.217H270.99H225.43L142.27 294.227H332.61Z" fill="#E9F2FE"/>
<path d="M281.641 -20.6579L94.9785 401.167L99.5508 403.19L286.214 -18.6346L281.641 -20.6579Z" fill="#CFE1FD"/>
<path d="M332.611 103.717H-21.1992V108.717H332.611V103.717Z" fill="#CFE1FD"/>
<path d="M488.1 35.187H483.1V646.047H488.1V35.187Z" fill="#E9F2FE"/>
<path d="M860.611 -51.2729L990.081 241.437H856.271L738.061 -51.2729H860.621M863.861 -56.2729H730.641L733.421 -49.403L851.631 243.307L852.891 246.437H997.761L994.651 239.417L865.181 -53.2929L863.861 -56.2729Z" fill="#CFE1FD"/>
</g>
</g>
<defs>
<clipPath id="clip0_287_72125">
<rect width="960.019" height="540.083" fill="white"/>
</clipPath>
</defs>
</svg>
