<svg width="960" height="541" viewBox="0 0 960 541" fill="none" xmlns="http://www.w3.org/2000/svg">
<g clip-path="url(#clip0_287_72191)">
<mask id="mask0_287_72191" style="mask-type:luminance" maskUnits="userSpaceOnUse" x="-1" y="-1" width="961" height="541">
<path d="M959.98 -0.132812H-0.0195312V539.867H959.98V-0.132812Z" fill="white"/>
</mask>
<g mask="url(#mask0_287_72191)">
<path d="M959.98 -0.622559H-0.0195312V539.377H959.98V-0.622559Z" fill="#EFFFD6"/>
<path d="M169.881 106.217H141.491H104.101H41.7912H-21.2188V294.227H332.591V106.217H270.971H206.231H169.881Z" fill="#B3DF72"/>
<path d="M253.181 404.847H212.411H158.721H69.2513H-21.2188V631.197H486.801V404.847H398.321H305.371H253.181Z" fill="#B3DF72"/>
<path d="M225.331 404.847H212.411H158.721H69.2513H-21.2188V631.197H210.641L225.331 404.847Z" fill="#D3F1A7"/>
<path d="M600.58 152.077V134.707V111.837V73.727V35.187H485.58V646.047H600.58V213.907V174.307V152.077Z" fill="#D3F1A7"/>
<path d="M254.551 40.3172C239.611 -11.1928 199.791 -43.0528 145.871 -51.8428C135.761 -53.4928 125.171 -54.3328 114.141 -54.3428C102.641 -54.3428 91.6106 -53.4328 81.1006 -51.6828C21.8406 -41.8028 -20.3294 -4.43278 -31.2894 56.0272C-33.1394 66.2472 -34.1094 77.1172 -34.1094 88.6272C-34.1094 94.6772 -33.8394 100.547 -33.3094 106.237H225.401L254.551 40.3272V40.3172Z" fill="#D3F1A7"/>
<path d="M990.061 241.427H856.241L738.031 -51.2729H860.591L990.061 241.427Z" fill="#D3F1A7"/>
<path d="M1020.45 699.377H562.441L532.711 241.367H1050.17L1020.45 699.377Z" fill="#B3DF72"/>
<path d="M600.581 241.367H532.711L558.971 646.047H600.581V241.367Z" fill="#EFFFD6"/>
<path d="M1087.55 539.717C1090.48 523.317 1092.01 505.887 1092.02 487.447C1092.02 468.747 1090.48 451.077 1087.5 434.477C1069.77 335.667 1001.16 274.747 904.911 259.067C888.491 256.387 871.271 255.017 853.361 255.007C834.671 255.007 816.751 256.477 799.671 259.327C703.351 275.377 634.831 336.097 617.021 434.347C614.011 450.947 612.441 468.617 612.441 487.317C612.441 505.757 613.961 523.187 616.911 539.587C634.531 637.717 703.091 698.597 799.551 714.707C816.621 717.557 834.541 719.047 853.231 719.057C871.151 719.057 888.361 717.697 904.791 715.027C1001.2 699.377 1069.92 638.387 1087.56 539.717H1087.55Z" fill="#D3F1A7"/>
<path d="M804.09 163.507C805.35 156.487 806 149.027 806 141.127C806 133.117 805.34 125.557 804.06 118.447C796.47 76.1372 767.08 50.0572 725.85 43.3372C718.82 42.1872 711.44 41.5972 703.77 41.5972C696.1 41.5972 688.09 42.2272 680.78 43.4472C639.53 50.3172 610.18 76.3172 602.55 118.387C601.26 125.497 600.59 133.057 600.59 141.067C600.59 148.967 601.24 156.427 602.5 163.447C610.05 205.467 639.41 231.527 680.73 238.427C688.04 239.647 695.72 240.287 703.72 240.287C711.39 240.287 718.77 239.707 725.8 238.567C767.09 231.867 796.52 205.757 804.08 163.507H804.09Z" fill="#B3DF72"/>
<path d="M279.91 -17.0029L93.3203 404.847H334.12L504.48 -17.0029H279.91Z" fill="#B3DF72"/>
<path d="M332.59 294.227V106.217H270.97H225.41L142.25 294.227H332.59Z" fill="#D3F1A7"/>
<path d="M260.23 106.237C260.75 100.567 261.02 94.7274 261.02 88.7074C261.02 77.1974 260.07 66.3274 258.24 56.1074C257.26 50.6574 256.03 45.3974 254.56 40.3174L225.41 106.227H260.23V106.237Z" fill="#D3F1A7"/>
<mask id="mask1_287_72191" style="mask-type:luminance" maskUnits="userSpaceOnUse" x="-11" y="-17" width="267" height="125">
<path d="M-10.2891 4.87723V107.237H225.861L255.011 41.3272C250.711 26.4972 240.271 2.57723 224.251 -13.1828L6.44094 -16.3428C5.71094 -15.3328 -9.59906 3.83723 -10.2891 4.87723Z" fill="white"/>
</mask>
<g mask="url(#mask1_287_72191)">
<path d="M30.1908 -2.13297C28.7808 -5.91297 27.7308 -5.53297 28.9108 -1.70297C30.5608 3.74703 32.3108 9.45704 34.2908 16.867C35.4308 21.057 36.1008 23.687 36.6708 25.987C37.2308 28.287 37.7008 30.247 38.2008 33.147C39.1008 38.037 39.9108 44.687 40.1808 50.607C40.4608 56.537 40.2308 61.717 40.1108 63.727L40.0108 65.507C39.9308 67.637 39.6208 73.387 38.2708 80.477C36.9208 87.547 34.4108 95.967 30.7008 103.077C28.1308 108.127 25.4808 111.877 23.1708 114.647C20.8608 117.417 18.9308 119.247 17.5508 120.417C14.3108 123.227 11.1308 125.247 8.02081 126.717C4.90081 128.187 1.86081 129.167 -1.23919 129.747C-2.93919 130.067 -3.78919 130.377 -3.76919 130.657C-3.74919 130.917 -2.83919 131.147 -1.04919 130.937C2.19081 130.557 5.42081 129.697 8.73081 128.257C12.0408 126.817 15.4108 124.747 18.7808 121.827C20.1108 120.717 22.0908 118.907 24.4208 116.277C26.7408 113.637 29.3708 110.137 31.8108 105.667L32.9508 103.457C33.2908 102.707 33.6308 101.957 33.9708 101.207C36.7508 94.677 39.0108 86.877 40.1508 80.647C40.4508 79.087 40.7108 77.647 40.8908 76.337C41.1008 75.037 41.2508 73.877 41.3608 72.917C41.6108 70.997 41.7008 69.857 41.7008 69.857C41.7008 69.857 41.7408 69.437 41.8108 68.667C41.8908 67.907 41.9508 66.797 42.0308 65.427C42.1908 62.697 42.2908 58.927 42.1508 54.807C42.0308 50.687 41.6808 46.217 41.1808 42.077C40.6808 37.937 40.0508 34.137 39.5208 31.317C37.8708 22.837 36.7308 18.837 36.1008 16.367C34.0908 8.90703 32.1608 3.20703 30.1908 -2.15297V-2.13297Z" fill="#B3DF72"/>
<path d="M170.241 113.617C176.941 118.687 177.571 117.767 171.081 112.567C166.521 108.827 162.041 104.747 157.391 100.117C152.741 95.4873 147.931 90.2773 142.861 84.1373C137.111 77.1773 133.811 72.5873 130.971 68.5873C128.131 64.5773 125.801 61.0873 122.651 55.8373C119.981 51.4073 116.921 46.1473 114.581 40.3473C113.411 37.4473 112.451 34.3973 111.861 31.3073C111.261 28.2173 111.061 25.0773 111.281 22.0773C111.681 16.0473 113.971 10.6473 117.011 7.23732C118.501 5.50732 120.111 4.21732 121.531 3.24732C122.991 2.31732 124.231 1.64732 125.161 1.25732C125.701 1.00732 126.251 0.767324 126.821 0.567324C127.381 0.347324 127.941 0.137324 128.521 -0.032676C129.541 -0.382676 131.031 -0.752676 132.921 -1.10268C134.821 -1.40268 137.141 -1.60268 139.781 -1.47268C145.061 -1.23268 151.611 0.527324 158.211 3.98732C164.841 7.40732 171.591 12.3273 178.021 17.8673C178.841 18.5473 179.621 19.2673 180.411 19.9973C181.191 20.7273 181.991 21.4373 182.761 22.1773C184.281 23.6973 185.841 25.1773 187.281 26.7573C190.251 29.8573 192.991 33.1473 195.581 36.4373C199.241 41.0973 202.231 45.5473 204.741 49.6673C205.381 50.6873 205.981 51.6973 206.541 52.6873C207.101 53.6773 207.651 54.6373 208.181 55.5773C209.171 57.4873 210.161 59.2473 210.971 60.9673C214.311 67.7773 216.301 72.9973 217.541 76.6173C220.501 85.1473 222.121 92.9073 222.891 100.137C223.571 107.367 223.421 114.097 222.241 120.607C221.971 122.407 221.661 123.737 221.561 124.647C221.441 125.557 221.461 126.037 221.591 126.077C221.721 126.117 221.961 125.707 222.291 124.837C222.611 123.967 223.081 122.657 223.421 120.837C224.831 114.247 225.151 107.377 224.571 99.9873C223.911 92.6073 222.311 84.6773 219.311 76.0073C218.161 72.6373 216.281 67.4673 213.191 60.9373C211.681 57.6573 209.761 54.0873 207.571 50.2173C205.301 46.3873 202.671 42.2873 199.581 38.0473C198.541 36.6873 197.521 35.3173 196.451 33.9873C195.351 32.6773 194.301 31.3473 193.161 30.0873C188.321 24.5973 182.691 19.0973 176.751 14.2273C170.781 9.41732 164.631 5.09732 158.721 2.10732C152.851 -0.942676 147.271 -2.52268 143.241 -3.09268C141.231 -3.41268 139.591 -3.46268 138.481 -3.49268C137.371 -3.48268 136.761 -3.47268 136.761 -3.47268C136.761 -3.47268 135.861 -3.44268 134.241 -3.29268C132.631 -3.11268 130.301 -2.74268 127.531 -1.85268C124.781 -0.972676 121.601 0.537324 118.601 2.95732C115.611 5.37732 112.961 8.85733 111.401 12.9673C109.801 17.0673 109.191 21.6873 109.441 26.2373C109.681 30.8073 110.841 35.2573 112.371 39.3473C113.901 43.4373 115.811 47.1773 117.661 50.5273C119.521 53.8773 121.341 56.8473 122.891 59.3873C132.431 74.5873 138.091 81.1773 141.391 85.3173C146.511 91.5073 151.401 96.7273 156.151 101.347C160.911 105.947 165.511 109.967 170.211 113.607L170.241 113.617Z" fill="#B3DF72"/>
<path d="M110.141 127.167C112.121 128.847 113.681 130.007 114.761 130.717C115.841 131.437 116.441 131.727 116.531 131.607C116.621 131.487 116.221 130.957 115.301 130.047C114.371 129.147 112.941 127.847 111.011 126.137C105.531 121.317 100.211 116.047 94.8807 109.937C93.5207 108.437 92.2507 106.807 90.8907 105.187C89.6007 103.517 88.2307 101.847 86.9507 100.037C84.3207 96.4871 81.7507 92.6171 79.2707 88.3771C76.4607 83.5771 74.4207 79.5371 72.8607 75.9871C71.2407 72.4571 70.1107 69.4071 69.1607 66.5471C68.6807 65.1171 68.2407 63.7271 67.8707 62.3271C67.4507 60.9371 67.1407 59.5271 66.8007 58.0771C66.1707 55.1671 65.6007 52.0371 65.3107 48.2871C65.1307 46.7071 65.1307 45.0471 65.0607 43.3371C65.1007 41.6271 65.0707 39.8571 65.2507 38.0571C65.5207 34.4571 66.1107 30.6871 67.2207 26.9971C68.3007 23.2971 69.8507 19.6671 71.8007 16.2771C72.2807 15.4271 72.8607 14.6371 73.3807 13.8171L74.1807 12.5971L75.0707 11.4571C75.6707 10.7071 76.2507 9.92714 76.8607 9.19714C77.5107 8.49714 78.1507 7.79714 78.7907 7.10714C79.4107 6.39714 80.1107 5.77714 80.7907 5.14714C81.4807 4.52714 82.1207 3.86714 82.8307 3.30714C84.2607 2.19714 85.6007 1.02714 87.0607 0.0971384C87.7707 -0.392862 88.4707 -0.862862 89.1607 -1.33286C89.8807 -1.75286 90.5807 -2.17286 91.2707 -2.58286C92.6307 -3.43286 94.0307 -4.08286 95.3207 -4.75286C100.571 -7.31286 105.001 -8.63286 107.461 -9.33286C108.921 -9.76286 110.411 -10.0529 111.891 -10.4429C114.551 -10.9829 119.501 -12.0229 126.171 -12.1829C127.001 -12.2029 127.861 -12.2129 128.751 -12.2329C129.631 -12.2129 130.541 -12.1929 131.471 -12.1629C133.331 -12.1529 135.281 -11.9529 137.311 -11.8129C141.361 -11.4129 145.721 -10.7629 150.271 -9.81286C168.501 -6.02286 189.301 3.10714 207.891 12.4271C221.011 19.0771 231.191 25.2871 238.991 30.5271C246.831 35.7371 252.231 40.0771 255.931 43.0371C264.611 50.1271 271.611 56.9971 277.651 63.7271C283.741 70.4071 288.591 77.1771 293.071 84.0571C297.781 91.7571 298.651 91.3271 294.091 83.4271C289.751 76.3771 284.991 69.4371 278.921 62.6071C272.911 55.7371 265.871 48.7471 257.121 41.5871C255.391 40.2371 253.261 38.4271 250.591 36.3971C247.881 34.4171 244.801 31.9871 241.101 29.5171C233.791 24.4371 224.421 18.5571 212.971 12.5571C211.101 11.5971 209.221 10.6471 207.351 9.68714C205.481 8.72714 203.571 7.87714 201.691 6.97714C193.531 3.18714 184.691 -0.732862 175.841 -4.06286C171.421 -5.72286 167.001 -7.26286 162.691 -8.56286C158.371 -9.85286 154.171 -10.9329 150.191 -11.7729C142.231 -13.4229 135.231 -14.0429 130.261 -14.1329C129.021 -14.1929 127.901 -14.1529 126.931 -14.1329C125.951 -14.1129 125.121 -14.1229 124.441 -14.0829C123.081 -13.9929 122.351 -13.9429 122.351 -13.9429C122.351 -13.9429 122.081 -13.9229 121.551 -13.8929C121.031 -13.8629 120.261 -13.8129 119.281 -13.6729C118.301 -13.5429 117.091 -13.4229 115.711 -13.2029C114.331 -12.9329 112.751 -12.7129 111.031 -12.2929C107.581 -11.5329 103.561 -10.3229 99.2407 -8.61286C94.9407 -6.86286 90.3907 -4.48286 86.0307 -1.41286C81.6707 1.65714 77.5107 5.45714 74.0807 9.89714C70.6507 14.3171 67.9707 19.3571 66.2607 24.4871C64.5307 29.6271 63.7207 34.8171 63.5007 39.5771C63.2807 44.3471 63.6307 48.7071 64.1307 52.3771C64.8907 57.9171 66.1107 62.6371 67.3907 66.6771C68.6907 70.7171 70.0007 74.1171 71.3107 76.9771C73.8807 82.7171 75.9707 86.5071 77.6507 89.3371C80.1607 93.6371 82.7807 97.5571 85.4707 101.137C86.7807 102.957 88.1707 104.647 89.4907 106.327C90.8807 107.947 92.1807 109.587 93.5707 111.097C99.0307 117.217 104.501 122.437 110.121 127.177L110.141 127.167Z" fill="#B3DF72"/>
<path d="M270.011 76.5169C274.131 73.7869 273.451 72.8969 269.291 75.3769C267.811 76.2469 266.351 77.2069 264.721 77.9369C263.111 78.6969 261.501 79.5869 259.751 80.3369C257.971 81.0169 256.141 81.7769 254.191 82.5069C253.191 82.7969 252.171 83.0969 251.121 83.4069C250.601 83.5669 250.071 83.7169 249.531 83.8769C248.991 84.0369 248.451 84.2069 247.881 84.2969C246.601 84.5569 245.441 84.7969 244.381 85.0169C243.851 85.1269 243.341 85.2369 242.861 85.3369C242.371 85.3969 241.901 85.4569 241.441 85.5069C239.631 85.7069 238.111 85.9469 236.691 86.0569C235.261 86.0969 233.951 86.1369 232.541 86.1869C232.191 86.1869 231.831 86.2069 231.461 86.2169C231.091 86.1869 230.721 86.1669 230.341 86.1369C229.571 86.0769 228.751 86.0169 227.871 85.9469C227.121 85.8769 226.341 85.8569 225.541 85.7369C224.741 85.6069 223.911 85.4669 223.071 85.3269C222.221 85.1869 221.361 85.0469 220.481 84.8969C219.611 84.6769 218.731 84.4669 217.841 84.2369C216.951 84.0169 216.051 83.7869 215.151 83.5669L212.491 82.6969C211.611 82.4069 210.731 82.1069 209.851 81.8169C209.001 81.4669 208.151 81.1269 207.321 80.7869C206.491 80.4469 205.671 80.1069 204.871 79.7869C204.091 79.4069 203.331 79.0469 202.591 78.6869C201.121 77.9669 199.721 77.3269 198.521 76.6169C197.311 75.9369 196.221 75.3369 195.311 74.8269C194.411 74.2969 193.701 73.8269 193.181 73.5069L191.331 72.3769C190.771 72.0569 189.991 71.5569 189.031 70.9169C188.071 70.2669 186.901 69.5269 185.591 68.6169C184.311 67.6769 182.871 66.6269 181.311 65.4869C179.811 64.2669 178.131 63.0269 176.461 61.5869C173.081 58.7669 169.521 55.4469 166.001 51.9169C162.511 48.3469 159.111 44.5269 156.021 40.7069C151.651 35.3169 148.411 30.7069 146.221 26.9069C145.651 25.9669 145.201 25.0569 144.811 24.2269C144.651 23.8069 144.461 23.4469 144.341 23.0169C144.211 22.5969 144.081 22.1869 143.961 21.7969C143.491 20.2369 143.171 18.9069 142.941 17.8269C142.391 15.2669 142.061 12.8369 141.891 10.5269C141.741 8.20693 141.751 6.01693 141.881 3.90693C142.201 -0.293066 142.991 -4.12307 144.341 -7.71307C145.071 -9.68307 145.361 -10.7331 145.101 -10.8731C144.981 -10.9331 144.741 -10.7531 144.411 -10.3131C144.091 -9.87307 143.631 -9.17307 143.221 -8.16307C141.621 -4.53307 140.641 -0.583066 140.191 3.76693C140.001 5.94693 139.951 8.22693 140.071 10.6369C140.221 13.0469 140.551 15.5669 141.111 18.2169C141.321 19.2469 141.631 20.5469 142.051 22.1069C142.301 22.8869 142.461 23.6969 142.861 24.6369C143.031 25.1169 143.251 25.5569 143.471 26.0169C143.701 26.4769 143.921 26.9569 144.191 27.4169C146.251 31.1669 149.151 35.5669 152.951 40.3969C154.201 41.9569 155.461 43.5169 156.801 44.9769C162.441 51.4169 169.531 58.2469 175.421 63.1869C178.371 65.6469 180.981 67.6869 182.891 69.0569C184.761 70.4769 185.931 71.2369 185.931 71.2369C185.931 71.2369 186.361 71.5269 187.131 72.0469C187.921 72.5469 189.001 73.3669 190.441 74.1969C191.151 74.6269 191.931 75.0969 192.771 75.6069C193.191 75.8569 193.621 76.1269 194.061 76.3869C194.521 76.6369 194.991 76.8869 195.471 77.1469C196.441 77.6669 197.451 78.2069 198.491 78.7769C199.541 79.3369 200.671 79.8169 201.811 80.3669C204.061 81.4969 206.541 82.3769 208.981 83.3669C210.221 83.8069 211.491 84.1869 212.731 84.5869C213.351 84.7869 213.971 84.9869 214.591 85.1769C215.221 85.3269 215.841 85.4869 216.461 85.6369C217.701 85.9369 218.921 86.2269 220.101 86.5169C221.301 86.7069 222.461 86.8969 223.581 87.0769C225.801 87.5069 227.871 87.5569 229.621 87.7169C230.281 87.7669 230.921 87.8269 231.541 87.8469C232.161 87.8469 232.761 87.8369 233.341 87.8269C234.501 87.8169 235.581 87.7969 236.591 87.7869C238.601 87.6869 240.321 87.4369 241.811 87.3069C243.311 87.2069 244.531 86.8569 245.601 86.6769C246.661 86.4669 247.551 86.2869 248.321 86.1369C248.911 86.0369 249.471 85.8669 250.021 85.6969C250.571 85.5269 251.121 85.3669 251.661 85.2069C252.741 84.8769 253.781 84.5569 254.801 84.2469C256.791 83.4769 258.661 82.6769 260.461 81.9269C262.241 81.1169 263.851 80.1669 265.471 79.3269C267.111 78.5269 268.551 77.4769 270.011 76.5269V76.5169Z" fill="#B3DF72"/>
</g>
<mask id="mask2_287_72191" style="mask-type:luminance" maskUnits="userSpaceOnUse" x="485" y="35" width="116" height="592">
<path d="M485.59 626.137H557.69L532.72 241.397H600.59V213.937V174.347V152.107V134.747V111.877V73.757V35.2271H485.59V626.137Z" fill="white"/>
</mask>
<g mask="url(#mask2_287_72191)">
<path d="M487.269 104.847C482.679 105.207 480.429 105.837 480.469 106.127C480.509 106.447 482.809 106.427 487.359 106.187C493.809 105.877 500.459 105.967 507.589 106.707C514.699 107.517 522.319 109.067 530.449 112.127C535.059 113.837 538.669 115.587 541.699 117.207C543.229 117.987 544.569 118.827 545.859 119.557C547.099 120.357 548.309 121.047 549.399 121.827C550.509 122.577 551.579 123.307 552.589 124.087C553.099 124.477 553.629 124.847 554.129 125.247C554.619 125.667 555.109 126.087 555.609 126.507C556.099 126.937 556.629 127.357 557.119 127.827C557.589 128.317 558.079 128.817 558.579 129.337C559.619 130.327 560.519 131.567 561.549 132.857C564.979 137.287 567.629 143.437 569.049 150.127C570.369 156.857 570.499 164.067 569.909 170.777C568.679 184.237 565.309 195.707 564.109 200.137C563.739 201.447 563.369 202.757 562.989 204.077C562.309 206.427 561.069 210.767 559.199 216.447C557.349 222.137 554.919 229.167 552.089 236.967C546.469 252.587 539.149 271.247 533.649 289.007C529.809 301.557 527.499 312.007 526.669 320.447C525.729 328.867 526.369 335.207 527.189 339.437C528.169 344.447 529.999 349.017 532.599 352.797C535.189 356.587 538.489 359.537 541.959 361.747C542.389 362.027 542.829 362.307 543.259 362.577C543.689 362.847 544.159 363.057 544.599 363.297C545.499 363.747 546.369 364.247 547.279 364.637C549.109 365.377 550.899 366.157 552.739 366.667C556.379 367.867 560.049 368.537 563.699 369.107C567.729 369.617 569.769 369.527 569.789 369.267C569.819 368.977 567.839 368.527 563.889 367.917C560.309 367.247 556.719 366.497 553.209 365.247C551.419 364.707 549.709 363.917 547.949 363.167C547.079 362.777 546.249 362.277 545.389 361.837C544.969 361.597 544.519 361.397 544.109 361.127C543.699 360.857 543.289 360.587 542.879 360.307C539.589 358.137 536.509 355.337 534.099 351.747C531.679 348.167 529.949 343.857 529.019 339.047C528.269 335.327 527.749 329.397 528.559 321.647C529.349 313.897 531.349 304.387 534.579 293.487C535.619 289.927 536.719 286.387 537.809 282.877C542.599 267.737 549.129 250.637 553.999 237.167C558.929 223.717 562.079 213.847 562.079 213.847C562.079 213.847 562.369 212.927 562.889 211.267C563.419 209.607 564.149 207.197 565.009 204.217C566.729 198.257 568.949 189.977 570.449 180.697C571.189 176.057 571.759 171.177 571.929 166.247C572.069 161.317 571.809 156.347 570.989 151.627C570.179 146.907 568.769 142.457 566.929 138.607C565.099 134.747 562.739 131.607 560.589 129.077C559.719 128.177 558.889 127.297 558.079 126.457C557.199 125.687 556.339 124.947 555.519 124.227C553.839 122.847 552.219 121.647 550.659 120.577C547.559 118.427 544.789 116.757 542.329 115.447C537.409 112.797 533.819 111.377 531.099 110.317C522.799 107.197 514.999 105.657 507.759 104.927C500.499 104.257 493.779 104.297 487.269 104.777V104.847Z" fill="#B3DF72"/>
<path d="M485.24 69.1873C478.77 72.9273 479.35 73.8773 485.88 70.3773C490.54 67.9373 495.4 65.5973 500.76 63.2573C506.12 60.9273 511.99 58.6273 518.75 56.4873C522.57 55.2673 525.72 54.3973 528.43 53.7073C529.79 53.3773 531.04 53.0673 532.21 52.7773C533.39 52.5273 534.5 52.2873 535.57 52.0573C537.7 51.5973 539.7 51.2873 541.83 50.9173C543.97 50.6473 546.23 50.2773 548.95 50.0973C553.52 49.7073 558.93 49.3873 564.49 49.8573C570.03 50.3073 575.76 51.6173 580.42 54.2673C582.75 55.5773 584.77 57.2273 586.39 59.0173C588.01 60.8073 589.25 62.7373 590.17 64.5773C591.1 66.4073 591.72 68.1573 592.13 69.6473C592.56 71.1373 592.79 72.3873 592.93 73.2873C593.1 74.3473 593.23 75.4173 593.31 76.4973C593.4 77.4573 593.44 78.8273 593.4 80.5473C593.32 82.2573 593.11 84.3373 592.65 86.6673C591.75 91.3273 589.73 96.9773 586.54 102.827C580.21 114.597 569.82 127.267 558.36 136.847C550.32 143.687 543.09 148.317 537.26 151.717C531.4 155.087 526.91 157.227 523.8 158.647C516.46 161.977 509.82 164.387 503.62 166.357C497.41 168.327 491.62 169.827 485.82 171.107C479.45 172.447 479.59 173.407 486.06 172.287C491.93 171.207 497.81 169.847 504.11 167.967C510.41 166.097 517.14 163.707 524.57 160.347C527.45 159.027 531.9 156.997 537.53 153.887C543.14 150.757 549.92 146.487 557.22 140.637L560.72 137.697C561.84 136.667 562.96 135.647 564.08 134.627C568.81 130.137 573.55 124.957 577.73 119.557C579.82 116.857 581.8 114.117 583.57 111.387C585.36 108.677 586.99 105.997 588.37 103.397C591.16 98.2273 592.96 93.4473 593.87 89.9473C594.35 88.2073 594.62 86.7873 594.8 85.8173C594.95 84.8373 595.04 84.3173 595.04 84.3173C595.04 84.3173 595.15 83.5273 595.28 82.0873C595.4 80.6473 595.48 78.5573 595.28 75.9873C595.07 73.4273 594.55 70.3773 593.38 67.1873C592.8 65.5873 592.07 63.9573 591.13 62.3573C590.19 60.7673 589.09 59.1773 587.74 57.7573C586.4 56.3273 584.88 55.0073 583.2 53.8773C581.51 52.7673 579.69 51.8173 577.81 51.0373C574.02 49.5273 570.01 48.7073 566.14 48.3073C562.27 47.9273 558.52 47.8873 555.11 48.0573C551.7 48.1773 548.59 48.4673 545.94 48.7273C537.98 49.6473 532.16 50.8773 527.78 51.9773C525.58 52.4973 523.75 53.0473 522.17 53.4673C520.6 53.9473 519.29 54.3373 518.16 54.6873C511.33 56.8473 505.41 59.2273 500.03 61.6573C494.66 64.0973 489.82 66.5773 485.21 69.1773L485.24 69.1873Z" fill="#B3DF72"/>
<path d="M622.36 130.017C625.6 125.887 624.72 125.207 621.33 129.147C616.45 134.687 611.15 140.347 603.95 147.247C599.89 151.177 597.3 153.577 595.04 155.667C592.77 157.747 590.82 159.497 587.88 161.957C582.92 166.117 576.06 171.497 569.83 176.107C563.62 180.747 558.06 184.627 555.89 186.107L553.98 187.447C551.7 189.047 545.58 193.407 537.53 198.327C529.49 203.247 519.44 208.627 509.7 212.537C502.84 215.337 497.12 217.177 492.55 218.437C487.98 219.687 484.57 220.447 482.22 220.887C471.12 223.037 462.65 223.527 454.35 223.397C449.8 223.237 449.69 224.207 454.29 224.597C462.66 225.157 471.32 224.897 482.57 222.727C486.92 221.867 496.13 220.197 508.37 215.437C510.35 214.637 512.33 213.837 514.24 212.927C518.39 211.017 522.78 208.827 526.99 206.567C531.2 204.287 535.23 201.937 538.72 199.817C542.22 197.697 545.18 195.777 547.27 194.407C549.35 193.027 550.58 192.207 550.58 192.207C550.58 192.207 551.04 191.897 551.86 191.347C552.68 190.787 553.86 189.967 555.31 188.967C558.2 186.937 562.16 184.097 566.43 180.907C574.98 174.537 584.78 166.747 590.44 161.917C598.97 154.657 602.85 150.897 605.24 148.607C612.47 141.647 617.7 135.807 622.35 130.017H622.36Z" fill="#B3DF72"/>
<path d="M513.479 26.1772C511.579 24.7372 510.419 24.3272 510.259 24.5672C510.069 24.8372 510.859 25.7372 512.639 27.2272C515.139 29.3572 517.529 31.7372 519.849 34.5572C522.169 37.3772 524.439 40.6072 526.539 44.5072C528.929 48.9172 530.079 51.8572 531.039 54.4172C531.959 56.9972 532.629 59.2372 533.299 62.5872C533.869 65.4172 534.259 68.7872 534.399 72.3072C534.539 75.8272 534.389 79.4972 534.009 82.9272C533.269 89.7972 531.569 95.6272 530.869 97.8572L530.239 99.8372C529.889 101.027 529.149 103.197 528.039 106.027C527.429 107.417 526.739 108.977 525.989 110.667C525.219 112.347 524.229 114.087 523.269 115.967C519.239 123.377 512.939 131.477 506.139 137.977C504.989 139.177 503.759 140.177 502.649 141.197C501.529 142.207 500.459 143.157 499.379 143.977C498.319 144.817 497.319 145.617 496.369 146.367C495.399 147.087 494.469 147.727 493.599 148.357C492.729 148.967 491.929 149.567 491.159 150.077C490.379 150.577 489.649 151.037 488.989 151.457C487.649 152.297 486.559 153.047 485.599 153.547C476.809 158.627 469.769 161.597 462.739 164.107C458.869 165.457 459.109 166.397 463.109 165.257C470.349 163.127 477.599 160.327 486.549 155.167C489.959 153.097 497.359 149.007 506.139 141.027C507.559 139.717 508.879 138.317 510.219 136.947C511.629 135.437 512.979 133.777 514.419 132.157C515.759 130.457 517.109 128.737 518.419 127.017C519.629 125.227 520.909 123.507 521.999 121.767C523.049 119.997 524.139 118.337 525.019 116.707C525.879 115.067 526.689 113.547 527.409 112.177C528.039 110.767 528.599 109.527 529.069 108.497C529.539 107.467 529.909 106.647 530.129 106.067C530.359 105.497 530.479 105.177 530.479 105.177C530.479 105.177 531.229 103.327 532.209 100.267C533.189 97.2172 534.339 92.9372 535.119 88.1672C535.929 83.3972 536.249 78.1172 536.109 73.2172C535.939 68.3172 535.249 63.8172 534.509 60.5172C533.399 55.5472 532.059 51.9972 530.939 49.3472C529.829 46.6972 528.889 44.9472 528.179 43.6172C525.999 39.6072 523.619 36.2872 521.159 33.4472C518.699 30.5972 516.149 28.2372 513.469 26.1772H513.479Z" fill="#B3DF72"/>
<path d="M583.189 407.547C586.069 404.967 585.329 404.137 582.329 406.507C578.049 409.837 573.479 413.257 567.319 417.187C565.589 418.327 564.129 419.157 562.909 419.947C561.659 420.677 560.619 421.287 559.649 421.857C558.689 422.447 557.749 422.907 556.769 423.427C555.779 423.937 554.739 424.487 553.439 425.037C549.139 427.037 543.119 429.207 537.619 430.487C536.239 430.777 534.909 431.097 533.639 431.337C532.369 431.537 531.179 431.727 530.099 431.907C527.939 432.177 526.229 432.317 525.279 432.417C524.709 432.437 524.149 432.477 523.579 432.517C523.069 432.557 522.359 432.607 521.449 432.667C520.549 432.747 519.459 432.697 518.219 432.727C517.599 432.727 516.939 432.727 516.249 432.737C515.559 432.737 514.839 432.657 514.079 432.627C512.569 432.537 510.939 432.467 509.239 432.207C502.409 431.427 494.289 429.357 487.199 426.367C477.179 422.137 471.549 418.327 468.609 416.427C461.699 411.807 456.859 407.877 452.229 403.887C449.699 401.687 449.009 402.367 451.409 404.767C455.789 409.107 460.559 413.287 467.569 417.987C470.299 419.777 475.889 423.827 484.789 427.717C485.509 428.027 486.229 428.357 486.969 428.637C487.709 428.897 488.449 429.157 489.189 429.427C495.569 431.667 503.149 433.457 509.189 434.117C510.689 434.347 512.099 434.427 513.359 434.497C514.619 434.557 515.729 434.707 516.659 434.677C518.519 434.677 519.609 434.687 519.609 434.687C519.609 434.687 520.019 434.687 520.759 434.687C521.499 434.667 522.559 434.587 523.869 434.507C526.489 434.367 530.079 433.887 533.969 433.147C537.829 432.307 542.019 431.257 545.769 429.867C546.239 429.707 546.709 429.547 547.169 429.387C547.619 429.207 548.069 429.027 548.519 428.857C549.409 428.507 550.259 428.167 551.089 427.847C552.709 427.157 554.179 426.477 555.439 425.917C562.899 422.297 566.219 420.057 568.309 418.787C574.549 414.787 579.069 411.187 583.179 407.567L583.189 407.547Z" fill="#B3DF72"/>
<path d="M549.768 526.427C551.538 526.587 552.878 526.547 553.758 526.397C554.638 526.267 555.068 526.107 555.058 525.947C555.058 525.797 554.608 525.647 553.748 525.537C552.888 525.447 551.608 525.297 549.918 525.087C545.108 524.467 540.358 522.727 535.708 520.007C531.078 517.237 526.568 513.407 522.568 508.207C518.068 502.267 516.098 497.947 514.388 494.267C512.768 490.527 511.528 487.247 510.168 482.327C507.858 474.007 505.888 462.517 505.248 452.217C504.628 441.907 505.098 432.867 505.388 429.377C505.458 428.347 505.508 427.307 505.608 426.267C505.768 424.417 506.008 420.987 506.598 416.487C506.838 414.227 507.298 411.717 507.698 408.977C507.948 407.617 508.218 406.197 508.488 404.737C508.628 404.007 508.768 403.267 508.908 402.507C509.078 401.757 509.248 400.997 509.418 400.227C511.998 387.887 516.828 373.407 522.638 360.607C530.898 342.527 537.828 332.267 541.288 326.877C545.448 320.537 549.348 315.167 553.058 310.287C556.748 305.397 560.288 301.027 563.868 296.747C567.828 292.077 567.118 291.417 562.958 295.957C559.208 300.107 555.518 304.397 551.718 309.257C547.898 314.097 543.928 319.467 539.728 325.847C536.498 330.807 529.428 341.047 521.948 356.887C521.348 358.177 520.728 359.467 520.178 360.777C519.628 362.087 519.088 363.397 518.538 364.707C516.288 370.377 513.988 376.517 512.128 382.637C510.268 388.757 508.618 394.787 507.508 400.147C506.868 402.817 506.478 405.337 506.018 407.577C505.608 409.827 505.328 411.817 505.058 413.477C504.768 415.127 504.658 416.457 504.528 417.357C504.418 418.267 504.348 418.757 504.348 418.757C504.348 418.757 504.258 419.487 504.098 420.807C503.978 422.137 503.808 424.047 503.588 426.407C503.268 431.137 502.878 437.667 503.128 444.817C503.318 451.967 504.028 459.727 505.198 466.877C506.338 474.027 507.898 480.557 509.358 485.337C511.528 492.557 513.908 497.657 515.938 501.417C518.008 505.157 519.728 507.557 521.088 509.347C525.238 514.737 529.988 518.697 534.848 521.497C539.728 524.257 544.748 525.947 549.778 526.417L549.768 526.427Z" fill="#B3DF72"/>
<path d="M477.209 313.097C475.679 317.307 476.729 317.687 478.459 313.597C480.959 307.797 483.669 301.757 487.579 294.207C488.659 292.047 489.599 290.337 490.389 288.847C491.169 287.357 491.859 286.127 492.509 284.987C493.769 282.687 494.929 280.777 496.699 278.027C499.719 273.397 504.129 267.417 508.439 262.437C512.719 257.427 516.849 253.397 518.489 251.867L519.929 250.497C520.359 250.087 520.959 249.497 521.719 248.757C522.509 248.047 523.449 247.197 524.529 246.237C526.679 244.297 529.469 242.027 532.689 239.637C535.919 237.267 539.639 234.867 543.589 232.657C547.539 230.437 551.799 228.547 555.979 227.027C561.889 224.867 566.899 223.837 570.869 223.257C572.869 223.047 574.589 222.797 576.089 222.777C577.579 222.717 578.819 222.627 579.839 222.697C584.619 222.727 588.779 223.297 592.549 224.147C596.319 224.997 599.699 226.137 602.959 227.487C604.749 228.237 605.729 228.457 605.859 228.207C605.979 227.977 605.239 227.267 603.459 226.387C600.219 224.817 596.809 223.487 592.949 222.497C589.099 221.507 584.799 220.857 579.859 220.817C578.899 220.757 577.679 220.807 576.219 220.847C574.749 220.847 573.049 221.007 571.109 221.197C567.249 221.647 562.469 222.497 557.119 224.287C555.389 224.907 553.649 225.497 551.999 226.277C548.379 227.817 544.659 229.787 541.109 231.847C537.549 233.897 534.259 236.187 531.409 238.227C529.999 239.277 528.709 240.277 527.549 241.167C526.419 242.097 525.419 242.917 524.589 243.597C522.979 245.007 522.029 245.847 522.029 245.847C522.029 245.847 521.679 246.157 521.039 246.727C520.389 247.277 519.509 248.137 518.419 249.187C517.319 250.227 516.019 251.477 514.649 252.927C513.959 253.647 513.229 254.397 512.479 255.177C511.759 255.977 511.009 256.817 510.249 257.667C508.689 259.347 507.209 261.207 505.659 263.037C504.169 264.907 502.679 266.787 501.309 268.647C499.959 270.517 498.619 272.297 497.499 274.007C496.349 275.697 495.299 277.237 494.459 278.597C493.819 279.607 493.219 280.557 492.659 281.447C492.119 282.347 491.629 283.187 491.159 283.977C490.689 284.767 490.259 285.487 489.859 286.167C489.479 286.857 489.119 287.497 488.789 288.087C488.129 289.267 487.579 290.267 487.109 291.127C486.659 291.997 486.279 292.727 485.959 293.357C482.019 300.987 479.449 307.167 477.239 313.117L477.209 313.097Z" fill="#B3DF72"/>
<path d="M582.989 347.427C583.789 345.567 584.639 343.727 585.499 341.897C585.499 341.897 586.819 339.617 588.409 336.887C589.999 334.157 591.879 330.997 592.769 329.067C595.699 324.667 598.789 320.377 602.129 316.297C602.129 316.297 603.119 314.977 604.289 313.477C605.449 311.977 606.819 310.327 607.419 309.517C608.139 308.487 608.629 307.787 608.629 307.477C608.649 307.167 608.049 307.267 606.919 308.097C605.809 308.927 604.209 310.487 602.199 313.027C602.129 313.067 601.939 313.247 601.879 313.247C597.809 318.757 593.549 323.777 589.899 329.707C590.069 329.707 590.049 329.967 589.869 330.107L589.749 329.947C587.619 334.067 585.649 336.267 584.159 340.287C584.159 340.287 584.179 339.757 584.179 339.737C580.739 346.107 576.979 353.777 573.829 361.877C570.659 369.967 568.149 378.497 566.779 386.247L566.819 386.177L566.839 386.217C567.059 385.517 567.609 383.477 568.139 381.637C568.689 379.797 569.179 378.127 569.179 378.127C568.709 383.367 566.609 388.947 565.929 394.487L565.699 394.417C565.869 393.227 566.009 392.097 566.109 391.157C566.229 390.217 566.309 389.477 566.329 389.047C565.419 393.267 564.449 399.747 564.389 406.237C564.219 412.727 565.049 419.167 565.969 423.217C566.109 422.977 565.279 420.497 565.799 419.767C565.919 420.817 566.129 421.857 566.329 422.887C566.509 423.917 566.739 424.917 566.949 425.897C566.579 425.977 566.459 424.817 566.339 424.607C566.439 425.457 567.209 430.507 569.539 436.987C570.719 440.217 572.259 443.787 574.189 447.337C576.139 450.867 578.449 454.357 580.909 457.527C583.339 460.727 586.009 463.507 588.399 465.887C590.839 468.227 593.079 470.097 594.769 471.417C598.229 473.977 599.339 474.517 596.349 471.587L596.799 471.697C593.509 468.937 590.909 466.467 588.099 462.997C587.639 462.567 587.619 462.487 587.479 462.617C587.339 462.517 587.109 462.357 587.099 462.467C586.799 462.847 585.959 461.707 585.559 461.227C586.359 460.997 584.079 458.427 581.669 455.497C579.289 452.557 576.819 449.197 576.389 448.317C576.609 447.967 576.109 447.157 575.569 446.257C575.039 445.347 574.419 444.367 574.289 443.787C574.349 443.847 574.739 444.237 574.789 444.287C574.699 443.747 572.559 439.737 571.099 436.197C570.749 435.307 570.399 434.467 570.129 433.727C569.879 432.977 569.669 432.347 569.539 431.897C569.279 430.997 569.309 430.827 569.879 431.937C569.289 429.467 568.789 426.717 568.289 423.787C567.849 420.847 567.469 417.697 567.249 414.407C567.049 411.107 566.989 407.677 567.099 404.157C567.219 400.647 567.529 397.067 567.999 393.487C569.859 379.157 574.709 365.067 579.779 355.357L579.639 355.477C579.739 355.327 579.909 354.817 580.059 354.737C580.379 353.697 581.069 351.857 581.729 350.297C582.369 348.727 582.979 347.437 582.979 347.437L582.989 347.427ZM566.869 394.997C566.869 394.997 566.899 395.027 566.909 395.017C566.839 395.017 566.559 397.827 566.529 397.937L566.299 397.897C566.109 394.977 568.699 388.667 567.109 394.767C567.139 394.987 566.949 394.967 566.859 394.997H566.869ZM566.899 420.067C566.939 420.557 566.989 421.087 567.079 421.667C566.199 418.507 565.829 414.647 565.789 410.727C565.749 406.797 566.049 402.817 566.179 399.227C566.589 400.487 566.589 402.547 566.489 404.677C566.469 405.747 566.399 406.837 566.349 407.847C566.319 408.857 566.289 409.797 566.289 410.567C566.639 413.647 566.629 417.307 566.889 420.057L566.899 420.067ZM583.339 458.187L583.449 458.117L583.589 458.297C583.589 458.297 583.519 458.317 583.479 458.297C583.439 458.287 583.369 458.237 583.349 458.187H583.339ZM580.959 350.287C580.929 350.807 580.039 352.397 580.219 351.147C580.409 350.887 580.639 350.007 580.959 350.287ZM567.969 427.377C568.339 427.297 569.019 429.567 568.499 429.717C568.289 428.927 568.119 428.147 567.969 427.377ZM589.029 334.387C588.999 333.627 589.299 334.027 589.629 333.977C589.499 334.087 589.179 334.567 589.079 334.367L589.019 334.387H589.029ZM594.849 324.787C594.769 324.537 595.029 323.947 595.189 323.697C595.749 323.147 595.189 324.607 594.849 324.787ZM606.219 310.197C606.069 310.017 606.329 309.647 606.579 309.717C606.669 309.867 606.389 310.347 606.139 310.217C606.149 310.217 606.179 310.217 606.219 310.197ZM570.509 438.257C569.589 437.917 569.399 435.597 568.809 434.547C569.539 434.577 569.779 436.747 570.209 437.567C570.329 437.857 570.429 438.087 570.509 438.267V438.257ZM572.809 366.557C572.219 366.377 573.529 364.217 573.689 363.407L573.909 363.507C573.549 364.677 573.409 365.407 572.829 366.517L572.809 366.567V366.557ZM565.129 416.337C564.849 415.897 564.999 415.087 564.959 414.617C565.299 414.597 565.539 416.607 565.129 416.347V416.337ZM565.529 395.737C565.909 395.677 565.609 396.667 565.619 396.957C565.569 396.747 565.379 396.347 565.409 396.117C565.429 395.947 565.479 395.917 565.529 395.747V395.737ZM572.729 367.487C572.419 368.377 572.089 369.347 571.769 370.277L571.549 370.177C571.859 369.227 572.169 368.297 572.509 367.387L572.729 367.487ZM569.499 376.547L569.269 376.477C569.429 375.067 570.059 375.087 569.509 376.507V376.537L569.499 376.547ZM576.999 355.837C576.929 355.967 576.819 356.167 576.769 356.297C576.009 358.127 576.319 355.227 576.999 355.837ZM581.189 346.327C581.249 346.137 581.299 345.867 581.399 345.677C582.059 344.437 581.869 346.077 581.189 346.327Z" fill="#B3DF72"/>
</g>
<mask id="mask3_287_72191" style="mask-type:luminance" maskUnits="userSpaceOnUse" x="738" y="-52" width="253" height="294">
<path d="M856.24 241.357H856.36L990.93 240.697L860.8 -50.9027L738.65 -51.2627L856.24 241.357Z" fill="white"/>
</mask>
<g mask="url(#mask3_287_72191)">
<path d="M777.921 49.2176C772.501 50.6876 769.951 51.9176 770.041 52.1776C770.141 52.4976 772.871 51.8576 778.261 50.5176C785.921 48.6376 793.901 47.2576 802.641 46.5076C811.371 45.7576 820.861 45.6376 831.351 47.2476C843.231 49.1176 850.361 51.7276 856.431 54.1176C857.951 54.7276 859.381 55.3876 860.811 56.0276C862.211 56.7276 863.641 57.3676 865.061 58.1476C866.481 58.9176 867.951 59.6976 869.461 60.6276C871.011 61.4976 872.521 62.5876 874.181 63.7476C879.781 67.6776 885.171 73.8776 888.921 81.3476C890.721 85.1176 892.181 89.1376 893.241 93.2476C894.231 97.3776 894.991 101.548 895.331 105.648C896.121 113.838 895.891 121.598 895.411 127.948C894.911 134.308 894.271 139.288 893.871 142.068C893.621 143.708 893.421 145.358 893.161 147.008C892.701 149.948 891.881 155.398 890.471 162.548C889.081 169.698 887.141 178.568 884.791 188.418C882.441 198.258 879.701 209.088 876.941 220.208C874.191 231.338 871.441 242.778 869.201 253.878C866.051 269.558 864.531 282.498 864.351 292.798C864.241 303.108 865.411 310.718 866.851 315.768C868.501 321.738 871.111 327.108 874.581 331.448C878.031 335.808 882.291 339.088 886.721 341.428C887.851 341.968 888.931 342.598 890.081 343.038C891.231 343.478 892.361 343.918 893.481 344.348C894.621 344.738 895.781 345.018 896.911 345.358C897.481 345.518 898.041 345.688 898.611 345.828C899.181 345.938 899.761 346.058 900.331 346.168C901.471 346.388 902.601 346.638 903.741 346.828C904.881 346.968 906.011 347.108 907.151 347.248L908.841 347.458C909.401 347.518 909.971 347.528 910.531 347.568C911.661 347.628 912.781 347.698 913.911 347.758C918.851 347.868 921.311 347.528 921.301 347.288C921.301 346.988 918.841 346.778 913.961 346.558C912.851 346.468 911.741 346.378 910.631 346.298C910.081 346.248 909.521 346.228 908.961 346.158L907.301 345.918C906.191 345.758 905.081 345.598 903.961 345.438C902.851 345.228 901.751 344.968 900.641 344.728C900.081 344.608 899.531 344.488 898.971 344.368C898.421 344.228 897.871 344.038 897.321 343.878C896.221 343.528 895.101 343.238 894.001 342.848C892.921 342.418 891.831 341.978 890.721 341.538C889.621 341.098 888.591 340.478 887.511 339.948C883.281 337.648 879.261 334.498 876.001 330.328C872.721 326.178 870.241 321.048 868.651 315.278C868.361 314.148 868.081 312.848 867.751 311.418C867.471 309.968 867.241 308.348 866.971 306.578C866.601 303.028 866.261 298.858 866.361 294.088C866.441 289.328 866.751 283.998 867.451 278.158C868.141 272.318 869.131 265.968 870.411 259.148C871.241 254.708 872.131 250.268 873.051 245.878C876.991 226.908 882.711 205.338 886.741 188.338C888.771 179.848 890.411 172.498 891.481 167.268C892.041 164.658 892.441 162.568 892.721 161.138C893.001 159.708 893.151 158.938 893.151 158.938C893.151 158.938 893.371 157.778 893.741 155.688C893.921 154.638 894.151 153.368 894.411 151.878C894.651 150.388 894.921 148.698 895.211 146.828C896.341 139.348 897.631 128.968 897.681 117.508C897.711 111.778 897.311 105.788 896.351 99.8476C895.381 93.9176 893.761 88.0376 891.371 82.7076C889.001 77.3676 885.821 72.6276 882.311 68.8076C878.841 64.9276 874.911 62.2076 871.561 59.9976C861.281 53.6576 852.771 50.6576 846.291 48.6576C839.761 46.7676 835.141 45.9176 831.621 45.3876C820.951 43.7476 811.271 43.9276 802.471 44.7676C793.651 45.6176 785.591 47.1376 777.911 49.1976L777.921 49.2176Z" fill="#B3DF72"/>
<path d="M764.771 18.5773C757.801 24.5273 758.551 25.3673 765.621 19.6173C770.711 15.6373 775.951 11.5673 781.861 7.48732C787.771 3.39732 794.221 -0.902677 801.801 -5.19268C806.101 -7.62268 809.621 -9.54268 812.711 -11.0627C815.761 -12.6727 818.401 -13.8227 820.831 -14.9727C822.041 -15.5627 823.231 -16.0527 824.421 -16.5427C825.611 -17.0327 826.801 -17.5327 828.021 -18.0427C829.231 -18.5727 830.541 -18.9927 831.901 -19.5027C833.271 -19.9827 834.711 -20.5427 836.301 -21.0627C837.651 -21.4827 839.061 -21.9127 840.511 -22.3727C841.241 -22.5927 841.981 -22.8227 842.731 -23.0627C843.491 -23.2627 844.261 -23.4627 845.041 -23.6627C846.601 -24.0627 848.201 -24.4827 849.821 -24.9027C851.461 -25.2427 853.131 -25.5927 854.821 -25.9527C855.671 -26.1227 856.511 -26.3227 857.371 -26.4627C858.231 -26.6027 859.091 -26.7327 859.951 -26.8727C861.681 -27.1327 863.401 -27.4527 865.131 -27.6627C868.591 -28.0927 872.051 -28.3427 875.401 -28.3527C882.091 -28.3927 888.331 -27.2227 892.981 -25.1827C895.311 -24.1627 897.231 -22.9627 898.781 -21.8727C900.281 -20.7127 901.431 -19.6727 902.191 -18.8627C903.111 -17.9227 903.961 -16.9227 904.761 -15.8727C906.181 -14.0127 908.651 -10.3127 910.321 -4.72268C911.151 -1.94268 911.801 1.28732 911.961 4.82732C912.151 8.37732 911.891 12.2373 911.191 16.2473C909.771 24.2773 906.451 32.7773 902.161 41.0273C897.951 49.3273 892.641 57.3073 886.971 64.5073C878.921 74.6673 871.281 81.9473 864.981 87.3373C858.661 92.7173 853.701 96.3073 850.241 98.6773C842.101 104.317 834.531 108.567 827.411 112.197C820.271 115.807 813.531 118.757 806.751 121.397C803.021 122.837 801.201 123.717 801.291 123.977C801.371 124.227 803.371 123.857 807.171 122.527C814.071 120.067 820.921 117.257 828.171 113.717C835.401 110.157 843.071 105.917 851.311 100.227C854.521 98.0373 859.431 94.5773 865.511 89.5473C871.551 84.4873 878.811 77.8573 886.141 69.0273L887.931 66.8673L889.641 64.6473L891.331 62.4273L892.931 60.1473C897.521 53.6073 901.921 46.2073 905.541 38.6373C909.181 31.0973 911.951 23.2773 913.151 16.1373C913.751 12.5673 914.001 9.18732 913.951 6.16732C913.911 3.13732 913.541 0.467323 913.091 -1.70268C912.661 -3.88268 912.141 -5.58268 911.761 -6.73268C911.351 -7.87268 911.131 -8.49268 911.131 -8.49268C911.131 -8.49268 911.041 -8.72268 910.851 -9.15268C910.661 -9.58268 910.431 -10.2327 910.031 -11.0227C909.291 -12.6327 908.061 -14.8927 906.141 -17.4227C904.231 -19.9327 901.481 -22.6227 897.921 -24.8227C896.121 -25.8727 894.161 -26.8627 892.031 -27.6227C889.901 -28.3627 887.651 -28.9927 885.311 -29.3827C882.971 -29.7727 880.561 -30.0227 878.131 -30.1127C875.691 -30.1827 873.231 -30.1327 870.781 -29.9727C868.331 -29.8027 865.881 -29.5327 863.471 -29.1827C861.071 -28.7827 858.691 -28.3927 856.361 -28.0027C847.051 -26.2627 838.661 -23.6527 832.521 -21.4827C823.271 -18.1727 816.661 -15.1227 811.711 -12.6227C810.471 -12.0027 809.331 -11.4327 808.271 -10.9127C807.231 -10.3527 806.281 -9.83268 805.391 -9.35268C803.631 -8.38268 802.131 -7.62268 800.891 -6.87268C793.251 -2.54268 786.771 1.83732 780.881 6.01732C774.981 10.1973 769.791 14.3773 764.781 18.5073L764.771 18.5773Z" fill="#B3DF72"/>
<path d="M830.37 172.687C828.32 174.167 826.74 175.187 825.74 175.977C824.74 176.757 824.28 177.227 824.36 177.357C824.44 177.487 825.05 177.287 826.19 176.717C827.32 176.127 829.03 175.247 831.12 173.807C843.11 165.817 855.04 156.547 870.14 144.377C878.65 137.417 883.88 132.967 888.42 129.087C892.96 125.197 896.82 121.887 902.47 117.037C907.23 112.927 912.83 108.127 918.58 103.037C921.47 100.507 924.38 97.8775 927.26 95.2475L929.4 93.2575L930.33 92.3975C930.39 92.3475 930.37 92.3875 930.62 92.3575L931.32 92.3175L932.71 92.2275L934.1 92.2775L935.48 92.3275C935.94 92.3875 936.39 92.4475 936.84 92.5075C940.46 92.9875 943.87 94.0775 946.9 95.4675C949.95 96.8475 952.59 98.5675 954.79 100.337C959.27 103.837 961.72 107.617 962.92 109.727L963.88 111.667C964.21 112.317 964.4 113.007 964.67 113.677C964.93 114.267 965.11 115.037 965.34 115.917C965.61 116.797 965.75 117.827 965.93 118.977C966.2 121.277 966.32 124.097 965.84 127.257C965.34 130.407 964.33 133.907 962.5 137.357C960.68 140.797 958.06 144.207 954.64 147.007C954.23 147.377 953.75 147.667 953.3 147.997C952.83 148.307 952.41 148.687 951.9 148.947C950.92 149.507 949.95 150.107 948.88 150.587C946.77 151.577 944.49 152.397 942.15 153.177C937.49 154.767 932.4 156.137 927.83 159.117C925.57 160.597 923.54 162.577 922.05 164.907C920.56 167.237 919.66 169.967 919.36 172.687C919.04 175.427 919.26 178.147 919.68 180.767C920.1 183.397 920.76 185.927 921.44 188.407C923.42 195.387 925.42 201.587 925.79 207.307C925.9 208.727 925.87 210.117 925.79 211.447C925.57 212.767 925.52 214.067 925.14 215.277C924.61 217.747 923.56 219.897 922.54 221.877C920.3 225.747 917.56 228.617 915.05 230.837C912.54 233.077 910.16 234.617 908.24 235.857C898.99 241.617 889.57 243.957 881.12 246.717C872.64 249.407 864.78 252.187 857.88 256.677C856 257.917 854.68 258.977 853.88 259.777C853.07 260.567 852.72 261.017 852.81 261.117C852.9 261.217 853.42 260.977 854.35 260.377C855.27 259.757 856.65 258.857 858.52 257.687C865.37 253.487 873.13 250.897 881.62 248.327C885.87 247.037 890.33 245.737 894.99 244.117C899.66 242.517 904.46 240.357 909.23 237.437C910.16 236.867 911.18 236.167 912.32 235.407C913.42 234.577 914.68 233.707 915.93 232.607C918.46 230.447 921.28 227.667 923.68 223.867C924.92 221.997 925.89 219.797 926.74 217.427C926.9 216.817 927.06 216.197 927.23 215.567C927.31 215.257 927.39 214.937 927.48 214.617C927.53 214.297 927.58 213.967 927.62 213.637C927.71 212.977 927.81 212.307 927.9 211.637C927.93 210.957 928 210.267 927.99 209.577C928.08 203.987 926.53 198.157 924.79 192.107C923.66 188.157 922.46 184.257 921.78 180.347C921.42 178.237 921.21 176.077 921.32 173.917C921.44 171.767 921.93 169.627 922.83 167.657C923.74 165.687 925.08 163.907 926.7 162.427C928.33 160.947 930.27 159.797 932.3 158.837C936.37 156.917 940.78 155.727 944.95 154.227C947.04 153.477 949.07 152.657 950.99 151.667C951.92 151.107 952.88 150.637 953.73 150.027C954.57 149.397 955.46 148.867 956.21 148.167C959.33 145.567 961.69 142.557 963.41 139.657C965.13 136.757 966.23 133.957 966.87 131.567C967.56 129.187 967.83 127.227 967.97 125.887C968.05 125.217 968.11 124.697 968.1 124.347C968.11 123.997 968.12 123.807 968.12 123.807C968.12 123.807 968.12 123.537 968.14 123.017C968.14 122.757 968.15 122.437 968.16 122.057C968.14 121.677 968.11 121.237 968.08 120.747C968.01 118.777 967.6 115.917 966.41 112.597C965.21 109.277 962.99 105.627 959.8 102.307C956.64 98.9575 952.46 96.0075 947.68 93.7975C947.09 93.4975 946.48 93.2575 945.85 93.0275C945.23 92.7975 944.61 92.5375 943.97 92.3175C942.68 91.9475 941.4 91.4875 940.05 91.2575C937.39 90.6275 934.61 90.4075 931.83 90.5275L930.79 90.5975L930.25 90.6375L929.84 90.6675L929.62 90.6875C929.56 90.7175 929.51 90.7775 929.46 90.8275L927.83 92.3575C926.85 93.2775 925.87 94.1875 924.89 95.0975C922.91 96.8875 920.96 98.6975 919.01 100.417C911.25 107.367 903.94 113.657 898.48 118.317C882.02 132.357 873.9 138.877 868.95 142.927C853.88 155.087 842.08 164.477 830.35 172.687H830.37Z" fill="#B3DF72"/>
<path d="M750.311 -22.6026C746.741 -20.1426 745.161 -18.6226 745.331 -18.3826C745.521 -18.1226 747.451 -19.1326 751.051 -21.4726C756.181 -24.7726 761.641 -27.8426 767.711 -30.8526C773.791 -33.8426 780.521 -36.7426 788.311 -39.3726C797.141 -42.3626 802.841 -43.6326 807.791 -44.7126C809.031 -44.9626 810.231 -45.2026 811.421 -45.4426C812.621 -45.6326 813.821 -45.8326 815.061 -46.0326C815.681 -46.1326 816.311 -46.2226 816.951 -46.3326C817.601 -46.4126 818.261 -46.4826 818.941 -46.5626C820.311 -46.7026 821.751 -46.9226 823.321 -47.0226C828.631 -47.4526 834.941 -47.9326 841.281 -46.8526C844.431 -46.3026 847.591 -45.3426 850.371 -43.7326C853.171 -42.1626 855.641 -40.0626 857.641 -37.6726C861.681 -32.8926 864.011 -27.3326 865.391 -22.6926C866.071 -20.3626 866.591 -18.2426 866.851 -16.4226C867.001 -15.5226 867.131 -14.7026 867.251 -13.9726C867.361 -13.2426 867.391 -12.6026 867.451 -12.0726C867.561 -10.8126 867.731 -9.55257 867.741 -8.28257C867.771 -7.15257 867.901 -5.53257 867.781 -3.51257C867.741 -2.50257 867.751 -1.38257 867.601 -0.182568C867.541 0.417432 867.481 1.04744 867.421 1.68744C867.391 2.00744 867.361 2.33743 867.321 2.67743C867.261 3.00743 867.211 3.34744 867.151 3.68744C866.891 5.04744 866.741 6.51743 866.331 8.00743C866.151 8.75743 865.961 9.52743 865.771 10.3174C865.581 11.1074 865.291 11.8774 865.041 12.6874C864.071 15.9174 862.571 19.2574 860.691 22.5974C860.191 23.4174 859.681 24.2374 859.171 25.0774C858.621 25.8874 858.001 26.6674 857.421 27.4774C857.111 27.8674 856.841 28.2974 856.501 28.6674C856.161 29.0374 855.821 29.4174 855.481 29.7974C854.791 30.5374 854.151 31.3574 853.351 32.0174C850.431 34.9574 846.771 37.2674 842.921 39.1274C838.991 40.8274 834.641 41.7674 830.331 41.6574C826.041 41.5274 821.801 40.2374 818.551 37.6974C817.401 36.8174 816.401 35.7774 815.531 34.7074C814.681 33.6074 813.961 32.4374 813.351 31.2574C812.181 28.8574 811.411 26.3874 810.961 23.9874C810.491 21.5874 810.281 19.2674 810.191 17.0774C810.181 16.5274 810.161 15.9874 810.151 15.4574C810.161 14.9174 810.171 14.3974 810.181 13.8774C810.201 12.8374 810.221 11.8374 810.251 10.8574C810.741 3.07743 812.061 -2.55257 813.131 -6.33257C813.391 -7.46257 813.811 -8.54256 814.131 -9.61256C814.471 -10.6826 814.801 -11.7526 815.211 -12.7626C815.601 -13.7826 815.981 -14.7926 816.351 -15.7926C816.771 -16.7726 817.191 -17.7326 817.611 -18.6826C817.821 -19.1526 818.021 -19.6326 818.231 -20.0926C818.461 -20.5526 818.681 -21.0026 818.911 -21.4526C819.361 -22.3526 819.801 -23.2526 820.241 -24.1326C821.201 -25.8426 822.091 -27.5526 823.081 -29.1526C826.981 -35.5926 831.211 -41.1126 835.851 -46.1626C838.431 -48.9126 839.631 -50.3826 839.431 -50.6026C839.261 -50.7826 837.671 -49.6926 834.971 -46.9926C830.121 -42.0226 825.701 -36.5326 821.631 -30.0326C820.601 -28.4226 819.681 -26.6926 818.671 -24.9626C818.221 -24.0726 817.761 -23.1626 817.291 -22.2526C817.061 -21.7926 816.821 -21.3326 816.591 -20.8726C816.381 -20.3926 816.171 -19.9226 815.951 -19.4326C815.521 -18.4726 815.091 -17.4926 814.651 -16.4926C814.261 -15.4826 813.871 -14.4526 813.471 -13.4126C813.051 -12.3726 812.711 -11.2926 812.361 -10.1926C812.031 -9.09257 811.601 -7.99257 811.331 -6.83257C810.331 -3.28257 808.931 2.27744 808.321 9.77744C808.211 10.7074 808.201 11.6774 808.171 12.6774C808.141 13.6774 808.101 14.6974 808.091 15.7474C808.101 17.8574 808.221 20.0874 808.541 22.4074C808.871 24.7274 809.371 27.1574 810.271 29.5874C811.181 32.0074 812.421 34.4874 814.291 36.6574C815.491 38.0774 816.891 39.3474 818.461 40.3374C819.221 40.8874 820.071 41.2574 820.881 41.6974C821.741 42.0374 822.571 42.4374 823.461 42.6674C825.341 43.2674 827.331 43.5974 829.341 43.6974C831.351 43.8174 833.391 43.7074 835.391 43.3874C837.401 43.0674 839.391 42.5974 841.311 41.8974C843.221 41.1974 845.121 40.3974 846.821 39.3074C850.381 37.3874 853.421 34.7474 856.081 32.0074C856.721 31.2974 857.351 30.5874 857.981 29.8974C858.581 29.1774 859.101 28.4074 859.651 27.6874C860.801 26.2574 861.621 24.6774 862.551 23.2374C865.951 17.2574 867.571 11.5074 868.471 7.43744C868.851 5.38744 869.151 3.74744 869.301 2.61744C869.421 1.48744 869.481 0.867435 869.481 0.867435C869.481 0.867435 869.501 0.637436 869.551 0.207436C869.581 -0.232564 869.691 -0.872568 869.711 -1.70257C869.741 -2.53257 869.771 -3.54256 869.811 -4.72256C869.871 -5.90256 869.761 -7.24257 869.731 -8.71257C869.451 -14.5926 868.161 -22.8126 864.171 -30.8826C862.181 -34.8926 859.441 -38.8226 855.851 -41.9426C854.051 -43.4926 852.051 -44.8126 849.931 -45.8626C847.801 -46.8826 845.571 -47.6226 843.341 -48.1126C838.871 -49.0726 834.491 -49.1726 830.521 -49.0526C828.531 -49.0026 826.651 -48.8526 824.871 -48.7126C823.981 -48.6426 823.121 -48.5826 822.291 -48.5226C821.461 -48.4326 820.661 -48.3426 819.891 -48.2526C810.651 -47.2126 803.921 -45.6826 798.841 -44.4026C797.571 -44.0626 796.401 -43.7526 795.321 -43.4626C794.241 -43.1726 793.261 -42.8426 792.351 -42.5726C790.531 -42.0226 789.011 -41.5626 787.721 -41.0926C779.841 -38.4226 773.051 -35.4526 766.941 -32.3426C760.841 -29.2226 755.391 -26.0126 750.311 -22.5426V-22.6026Z" fill="#B3DF72"/>
<path d="M744.631 -55.2826C741.161 -54.0326 739.581 -53.0226 739.691 -52.7626C739.821 -52.4526 741.611 -52.8826 745.061 -54.0026C749.971 -55.5626 755.121 -56.7926 760.791 -57.5726C766.461 -58.3326 772.651 -58.6426 779.551 -58.0226C787.371 -57.3026 792.131 -55.9726 796.191 -54.6726C800.251 -53.3526 803.621 -51.9026 808.201 -49.2026C812.051 -46.8926 816.301 -43.7126 820.171 -39.8026C824.061 -35.9226 827.631 -31.4226 830.411 -26.8226C833.231 -22.2426 835.351 -17.6526 836.781 -13.7626C838.201 -9.86258 839.071 -6.71258 839.461 -4.93258C839.721 -3.88258 839.971 -2.83258 840.181 -1.77258C840.621 0.107421 841.261 3.62742 841.691 8.33742C842.121 13.0474 842.231 18.9574 841.561 25.4974C840.371 38.5974 835.471 54.0074 828.031 66.6674C822.871 75.6674 817.521 82.2174 813.091 87.1474C810.911 89.6574 808.821 91.6474 807.071 93.3874C806.631 93.8274 806.211 94.2374 805.811 94.6374C805.391 95.0174 804.981 95.3774 804.601 95.7174C803.831 96.4074 803.131 97.0274 802.501 97.5874C801.751 98.2374 801.051 98.9174 800.301 99.5174C799.551 100.117 798.811 100.707 798.091 101.297C796.631 102.457 795.261 103.637 793.811 104.637C792.391 105.677 791.001 106.677 789.651 107.667C788.251 108.587 786.881 109.477 785.551 110.357C784.881 110.787 784.231 111.247 783.561 111.647C782.881 112.047 782.211 112.437 781.551 112.827C780.221 113.607 778.911 114.377 777.621 115.127C776.291 115.827 774.981 116.517 773.681 117.197C773.031 117.537 772.381 117.887 771.731 118.227L769.751 119.147C763.951 121.847 764.291 122.757 770.251 120.247L772.281 119.387C772.941 119.067 773.611 118.737 774.281 118.417C775.621 117.767 776.961 117.107 778.321 116.447C779.661 115.737 780.991 114.967 782.351 114.217C783.031 113.837 783.721 113.447 784.411 113.067C785.101 112.667 785.761 112.227 786.451 111.797C787.821 110.927 789.221 110.047 790.651 109.137C792.031 108.157 793.451 107.147 794.901 106.117C796.381 105.117 797.781 103.927 799.271 102.757C800.011 102.167 800.761 101.567 801.521 100.957C802.281 100.347 803.001 99.6674 803.751 99.0074C806.101 96.9574 809.721 93.7674 814.041 89.1274C818.411 84.5474 823.431 78.4274 828.271 70.5774C828.661 69.9374 829.091 69.3174 829.451 68.6574L830.531 66.6774C831.241 65.3574 831.961 64.0474 832.651 62.7274C835.411 56.9174 838.031 50.5174 839.891 44.0374C841.781 37.5674 842.961 31.0774 843.501 25.3274C844.071 19.5774 844.041 14.5974 843.851 11.0774C843.671 7.55742 843.401 5.48742 843.401 5.48742C843.401 5.48742 843.301 4.71742 843.131 3.32742C842.911 1.93742 842.631 -0.0725808 842.101 -2.51258C841.091 -7.40258 839.151 -14.0726 835.811 -20.8426C832.541 -27.6526 827.771 -34.4426 822.441 -39.9226C817.131 -45.4326 811.241 -49.5126 806.611 -52.0126C799.581 -55.7426 793.861 -57.3626 789.521 -58.3726C788.431 -58.6026 787.421 -58.8226 786.481 -59.0126C785.541 -59.1526 784.671 -59.2926 783.871 -59.4126C782.271 -59.6926 780.921 -59.7726 779.751 -59.8926C772.681 -60.5226 766.341 -60.1526 760.581 -59.2926C754.811 -58.4126 749.591 -57.0326 744.671 -55.2926L744.631 -55.2826Z" fill="#B3DF72"/>
</g>
<mask id="mask4_287_72191" style="mask-type:luminance" maskUnits="userSpaceOnUse" x="-11" y="405" width="237" height="223">
<path d="M159.181 405.847H69.7109H-10.2891V627.107H211.421L225.781 405.847H212.861H159.181Z" fill="white"/>
</mask>
<g mask="url(#mask4_287_72191)">
<path d="M-27.4884 530.347C-23.7584 533.427 -20.2984 535.877 -17.2684 537.847C-14.1984 539.787 -11.5684 541.267 -9.41842 542.357C-8.33842 542.887 -7.38842 543.347 -6.56842 543.737C-5.73842 544.087 -5.03842 544.377 -4.47842 544.607C-3.35842 545.057 -2.78843 545.247 -2.74843 545.177C-2.70843 545.107 -3.22842 544.777 -4.27842 544.197C-4.80842 543.917 -5.46842 543.567 -6.25842 543.137C-7.03842 542.697 -7.94842 542.177 -8.99842 541.587C-11.0784 540.397 -13.6284 538.837 -16.6184 536.857C-19.5784 534.827 -22.9584 532.357 -26.6284 529.297C-31.8084 524.927 -36.7084 520.147 -41.2184 514.937C-45.7284 509.737 -50.0284 504.207 -53.8184 498.277C-55.6984 495.307 -57.4884 492.237 -59.0284 489.027C-60.5784 485.827 -61.9984 482.517 -63.0384 479.067C-64.0884 475.627 -64.9584 472.077 -65.2484 468.437C-65.5684 464.807 -65.4584 461.117 -64.7884 457.477C-64.5784 456.577 -64.3684 455.677 -64.1584 454.777C-63.9084 453.887 -63.5684 453.017 -63.2784 452.127C-62.6584 450.367 -61.8384 448.677 -60.9084 447.037C-59.0384 443.767 -56.6184 440.757 -53.7984 438.107C-48.1384 432.787 -41.0884 428.767 -33.4784 425.737C-18.1684 419.737 -0.758425 417.067 17.5216 417.567C27.8916 417.837 37.2516 419.077 45.7316 420.677C54.2116 422.277 61.8216 424.277 68.7816 426.327C82.7016 430.507 94.0416 434.957 104.512 439.297C114.972 443.677 124.572 447.927 134.592 452.907C144.582 457.917 155.062 463.597 166.612 471.677C176.362 478.487 186.342 486.837 195.302 497.037C199.792 502.117 203.992 507.677 207.702 513.677C211.432 519.657 214.682 526.097 217.152 532.887C219.572 539.687 221.232 546.867 221.572 554.157C221.892 561.427 220.962 568.837 218.152 575.547C217.982 575.967 217.832 576.397 217.632 576.807L217.032 578.027C216.612 578.827 216.262 579.667 215.792 580.437L214.372 582.757C213.922 583.547 213.322 584.227 212.812 584.967C211.792 586.467 210.522 587.767 209.362 589.137C208.062 590.387 206.842 591.717 205.432 592.837C199.992 597.567 193.592 600.987 187.002 603.457C173.702 608.327 159.582 608.397 146.892 606.227C140.512 605.187 134.432 603.607 128.682 601.817C122.922 600.027 117.492 598.027 112.372 596.007C102.152 591.917 93.1816 587.867 85.7516 584.197C82.0716 582.297 78.7016 580.627 75.8116 578.987C74.3516 578.187 72.9916 577.437 71.7316 576.737C70.4916 576.007 69.3516 575.327 68.3116 574.707L64.6216 572.517L61.0016 570.207C59.8016 569.427 58.5716 568.687 57.3916 567.877L53.8516 565.437C49.6216 562.557 43.7616 558.197 36.8916 552.207C30.0416 546.197 22.2416 538.397 14.8716 528.317C13.9616 527.057 13.0316 525.767 12.0916 524.467C11.2316 523.117 10.3516 521.737 9.47157 520.347C7.66157 517.577 5.96157 514.647 4.47157 511.537C2.97157 508.427 1.69158 505.127 0.841576 501.657C0.0215756 498.187 -0.358423 494.527 0.131577 490.877C0.561577 487.227 1.95157 483.667 4.05157 480.457C6.16157 477.257 8.99158 474.447 12.2416 472.137C15.5116 469.847 19.2316 468.107 23.2016 466.907C27.1716 465.717 31.3716 465.057 35.6516 464.777C39.9416 464.507 44.3216 464.587 48.7316 464.957C50.9416 465.077 53.1516 465.397 55.3716 465.627C57.5816 465.977 59.8216 466.247 62.0316 466.707C70.9316 468.347 79.8216 471.037 88.5016 474.597C92.8416 476.377 97.1116 478.427 101.322 480.627C105.522 482.867 109.632 485.327 113.672 487.957C117.682 490.617 121.592 493.487 125.412 496.497C129.212 499.537 132.882 502.767 136.462 506.117C150.692 519.607 162.932 535.577 172.872 552.657C175.282 556.947 177.332 561.427 178.542 566.117C179.732 570.787 179.992 575.707 178.962 580.357C177.972 584.997 175.542 589.277 171.892 592.227C168.262 595.197 163.712 596.957 159.072 597.617C152.472 598.577 145.882 597.097 139.982 594.647C134.052 592.167 128.702 588.737 123.712 585.117C113.752 577.837 105.482 569.387 98.7316 560.577C91.9816 551.767 86.7216 542.587 82.7816 533.537C78.8716 524.477 76.6216 515.377 75.6916 506.737C74.7616 498.087 75.1416 489.907 76.4016 482.467C76.8116 480.647 77.1016 478.827 77.7116 477.127C78.0016 476.277 78.1916 475.397 78.5616 474.597C78.9016 473.787 79.2416 472.977 79.5716 472.177C81.0616 469.067 82.7516 466.177 84.7916 463.707C88.7516 458.677 93.4216 454.947 97.9416 452.027C102.472 449.087 106.902 446.957 110.932 445.217C120.472 441.097 130.242 438.347 139.792 436.067C149.352 433.817 158.752 432.087 167.922 430.557C186.272 427.507 203.752 425.187 220.432 422.187C228.772 420.667 236.912 418.987 244.832 416.917C248.782 415.827 252.692 414.727 256.492 413.377C258.412 412.757 260.272 411.977 262.152 411.277C263.992 410.477 265.862 409.747 267.642 408.837C269.462 408.007 271.192 407.017 272.942 406.057C274.632 404.997 276.342 403.987 277.932 402.777C281.132 400.427 284.112 397.747 286.532 394.587C291.392 388.287 293.742 380.237 293.312 372.437C293.302 371.897 293.282 371.377 293.272 370.857C293.212 370.337 293.152 369.837 293.102 369.337C292.982 368.337 292.892 367.377 292.742 366.447C292.562 365.527 292.382 364.647 292.212 363.797C292.042 362.947 291.882 362.127 291.642 361.367C291.192 359.837 290.842 358.407 290.402 357.157C289.952 355.907 289.542 354.787 289.172 353.787C288.422 351.797 287.692 350.377 287.262 349.417C286.802 348.457 286.542 347.997 286.482 348.027C286.332 348.087 287.072 350.077 288.462 354.047C288.782 355.047 289.132 356.177 289.532 357.437C289.922 358.687 290.222 360.107 290.632 361.627C290.852 362.387 290.992 363.187 291.142 364.027C291.292 364.867 291.452 365.737 291.622 366.637C291.752 367.547 291.822 368.487 291.932 369.457C291.982 369.947 292.032 370.437 292.092 370.947C292.092 371.457 292.112 371.967 292.122 372.487C292.482 380.087 290.172 387.747 285.482 393.777C283.142 396.797 280.242 399.377 277.122 401.647C275.582 402.817 273.902 403.797 272.242 404.817C270.522 405.737 268.822 406.707 267.032 407.517C265.272 408.397 263.432 409.107 261.612 409.897C259.752 410.577 257.912 411.337 256.012 411.947C252.242 413.267 248.362 414.337 244.442 415.407C236.572 417.437 228.472 419.077 220.152 420.567C203.512 423.507 186.042 425.787 167.642 428.807C158.442 430.327 149.012 432.047 139.382 434.307C129.772 436.597 119.912 439.357 110.212 443.547C106.442 445.157 102.232 447.197 97.8016 449.967C93.3916 452.737 88.7216 456.267 84.5316 461.037C82.5216 463.487 80.5016 466.127 78.9416 469.207C78.0716 470.697 77.4416 472.337 76.7416 473.987C76.3716 474.807 76.1716 475.687 75.8816 476.547C75.6216 477.417 75.2916 478.277 75.1316 479.197C74.2416 482.817 73.7916 486.567 73.4616 490.477C73.1516 494.387 73.0916 498.447 73.3516 502.607C73.8416 510.937 75.4916 519.707 78.6016 528.517C80.1416 532.927 82.1016 537.307 84.3116 541.657C86.5216 546.027 89.0516 550.357 91.8816 554.637C97.5416 563.187 104.452 571.507 112.752 579.037C116.902 582.787 121.402 586.337 126.242 589.587C131.072 592.837 136.312 595.817 142.112 597.847C145.892 599.157 149.862 599.997 153.902 600.147C157.942 600.257 162.012 599.627 165.822 598.227C169.612 596.797 173.162 594.557 175.862 591.457C178.582 588.367 180.322 584.527 181.122 580.587C182.002 576.317 181.882 571.877 181.022 567.597C180.152 563.307 178.542 559.197 176.592 555.297C174.632 551.387 172.352 547.657 169.982 543.997C167.642 540.307 165.142 536.697 162.572 533.117C152.252 518.847 140.022 505.657 126.212 494.697C112.392 483.767 96.9416 475.177 81.0216 469.797C73.0816 467.047 65.0216 465.167 57.0716 464.007C49.1216 462.877 41.2616 462.417 33.6816 463.077C26.1216 463.747 18.8116 465.757 12.7716 469.557C6.77158 473.317 2.06157 478.687 -0.268425 484.737C-1.41842 487.767 -1.95843 490.907 -1.99843 493.927C-2.02843 496.957 -1.58842 499.857 -0.908424 502.567C0.471576 507.987 2.72158 512.647 4.96158 516.697C9.65158 524.667 13.9216 530.657 17.1416 534.527C18.7416 536.467 19.9116 538.017 20.8216 538.977C21.7016 539.947 22.1616 540.457 22.1616 540.457C22.1616 540.457 22.8416 541.207 24.1416 542.637C25.4016 544.107 27.4616 546.077 30.0616 548.667C35.3416 553.737 43.3416 560.747 54.1116 568.107C64.8416 575.527 78.3816 583.167 93.9516 590.297C95.9116 591.167 97.8816 592.057 99.8816 592.947C101.902 593.797 103.942 594.657 106.002 595.527C110.132 597.257 114.392 598.917 118.762 600.517C127.502 603.677 136.772 606.467 146.522 608.087C156.242 609.677 166.492 610.107 176.602 608.207C186.652 606.307 196.502 602.217 204.712 595.777C208.802 592.567 212.462 588.757 215.382 584.427C218.312 580.107 220.462 575.267 221.722 570.247C223.002 565.227 223.472 560.047 223.302 554.947C223.112 549.847 222.292 544.817 221.052 539.967C219.802 535.117 218.122 530.437 216.122 525.967C214.102 521.517 211.812 517.257 209.312 513.207C206.832 509.157 204.122 505.317 201.272 501.717C198.422 498.117 195.472 494.697 192.412 491.527C180.182 478.767 166.892 469.467 155.192 462.367C146.342 457.047 137.772 452.597 129.632 448.697C121.492 444.797 113.802 441.417 106.582 438.347C92.1416 432.207 79.4616 427.647 68.2916 424.337C45.9216 417.727 29.7616 416.097 17.5716 415.727C-0.928421 415.227 -18.5784 417.937 -34.1584 424.067C-41.9184 427.177 -49.1584 431.297 -55.0284 436.837C-57.9484 439.607 -60.4784 442.757 -62.4384 446.197C-63.4084 447.917 -64.2684 449.707 -64.9184 451.557C-65.2184 452.487 -65.5684 453.407 -65.8384 454.337C-66.0584 455.287 -66.2784 456.237 -66.4984 457.177C-67.1984 460.997 -67.2984 464.857 -66.9484 468.627C-66.6284 472.407 -65.7184 476.057 -64.6284 479.587C-63.5384 483.127 -62.0784 486.507 -60.4884 489.767C-58.9084 493.037 -57.0684 496.137 -55.1484 499.157C-51.2684 505.167 -46.9184 510.697 -42.3284 515.937C-37.7384 521.177 -32.7584 525.977 -27.4984 530.367L-27.4884 530.347Z" fill="#B3DF72"/>
<path d="M108.471 641.687C108.031 639.457 107.191 637.667 106.381 636.217C105.561 634.767 104.731 633.667 104.041 632.807C102.641 631.107 101.791 630.407 101.681 630.497C101.551 630.607 102.171 631.507 103.341 633.307C103.911 634.217 104.631 635.347 105.341 636.767C106.041 638.187 106.771 639.897 107.141 641.917C107.681 644.787 107.081 647.807 105.311 650.137C103.551 652.467 100.871 654.137 97.9509 654.987C95.0409 655.847 91.8209 655.827 88.6609 655.337C85.4809 654.847 82.2809 653.897 79.0409 652.837C72.5409 650.757 65.9009 648.237 59.1609 645.067C52.4509 641.857 45.6309 637.997 39.0709 633.007C35.3509 630.187 32.1709 627.387 29.4209 624.647C26.7109 621.887 24.4009 619.217 22.4409 616.627C18.5109 611.437 15.8509 606.637 13.7709 602.027C11.7109 597.397 10.2609 592.907 9.30092 587.997C8.37092 583.097 7.92092 577.737 8.56092 571.467C8.88092 568.827 9.38092 566.087 10.1209 563.307C10.8909 560.537 11.8809 557.737 13.1109 554.957C15.6209 549.417 19.0409 543.947 23.3809 539.087C31.9709 529.247 44.0909 522.147 56.3009 518.467C62.4009 516.587 68.5209 515.447 74.3309 515.027C80.1309 514.457 85.6109 514.687 90.5309 515.077C100.371 516.027 107.891 518.187 112.021 519.487C113.251 519.847 114.451 520.327 115.661 520.747C116.871 521.197 118.101 521.567 119.281 522.087C120.341 522.527 121.631 523.057 123.131 523.677C124.621 524.307 126.271 525.157 128.131 526.017C129.991 526.897 131.941 528.047 134.101 529.197C135.161 529.807 136.241 530.497 137.361 531.177C138.491 531.867 139.661 532.567 140.801 533.387C141.961 534.187 143.161 535.007 144.391 535.847C145.571 536.757 146.791 537.687 148.041 538.637C149.311 539.557 150.501 540.657 151.761 541.707C152.391 542.237 153.021 542.777 153.661 543.327C154.271 543.907 154.891 544.487 155.511 545.077C160.551 549.727 165.581 555.237 169.861 561.717C174.111 568.187 177.511 575.807 178.511 584.127C178.781 586.197 178.871 588.307 178.821 590.417C178.771 592.527 178.571 594.647 178.151 596.737C177.741 598.827 177.171 600.897 176.371 602.897C175.571 604.887 174.581 606.807 173.401 608.627C168.681 615.927 161.201 621.387 153.011 624.577C144.771 627.817 135.851 628.947 127.161 629.087C124.081 629.187 121.081 628.947 118.151 628.827C117.421 628.797 116.691 628.757 115.971 628.727C115.251 628.697 114.531 628.667 113.821 628.557C112.401 628.387 111.001 628.217 109.611 628.047C108.231 627.877 106.861 627.717 105.511 627.557C104.181 627.297 102.861 627.047 101.561 626.797C98.9709 626.267 96.4109 625.887 94.0009 625.157C91.5809 624.497 89.2109 623.897 86.9409 623.237C84.7009 622.467 82.5209 621.717 80.4009 620.997C78.2609 620.337 76.3009 619.387 74.3509 618.597C73.3809 618.187 72.4309 617.787 71.4909 617.397C70.5509 617.007 69.6209 616.617 68.7509 616.157C66.9909 615.277 65.2809 614.417 63.6409 613.587C62.8209 613.167 62.0009 612.787 61.2209 612.347C60.4509 611.897 59.7009 611.457 58.9609 611.017C56.0109 609.267 53.2209 607.737 50.8409 606.007C49.6309 605.177 48.4609 604.387 47.3509 603.637C46.7909 603.257 46.2509 602.887 45.7209 602.527C45.2109 602.127 44.7209 601.747 44.2309 601.367C42.3009 599.857 40.5509 598.487 38.9809 597.267C37.1609 595.777 35.4809 594.177 33.7709 592.677C32.9209 591.917 32.0709 591.177 31.2509 590.407C30.4709 589.607 29.6909 588.807 28.9109 588.017C27.3809 586.417 25.8009 584.917 24.3809 583.307C22.9909 581.677 21.6109 580.057 20.2609 578.467C18.8509 576.917 17.6809 575.217 16.4609 573.587C15.2709 571.937 14.0209 570.367 12.9209 568.717C11.8609 567.037 10.8109 565.387 9.77092 563.747C9.25092 562.927 8.74092 562.107 8.23092 561.297C7.78092 560.447 7.33092 559.607 6.88092 558.777C3.21092 552.167 -0.189081 545.537 -0.899081 538.597C-1.25908 535.147 -0.719081 531.707 0.480919 528.527C1.71092 525.347 3.56092 522.437 5.78092 519.847C8.22092 516.997 10.3909 515.147 11.8009 513.897C13.2309 512.647 13.9609 512.027 13.8709 511.907C13.8009 511.807 12.9209 512.207 11.3309 513.297C9.76092 514.397 7.43092 516.157 4.87092 519.057C2.54092 521.697 0.560919 524.697 -0.779081 528.037C-1.44908 529.707 -1.90908 531.467 -2.20908 533.257C-2.46908 535.057 -2.54908 536.897 -2.37908 538.727C-2.06908 542.387 -0.989081 545.967 0.400919 549.417C1.11092 551.137 1.86092 552.857 2.73092 554.527C3.61092 556.197 4.50092 557.877 5.39092 559.577C5.84092 560.427 6.29092 561.287 6.74092 562.147C7.24092 562.977 7.77092 563.807 8.29092 564.637C9.33092 566.307 10.3909 567.987 11.4609 569.697C12.5709 571.377 13.8309 572.977 15.0309 574.657C16.2609 576.317 17.4409 578.037 18.8609 579.617C20.2309 581.237 21.6209 582.867 23.0209 584.537C24.4609 586.167 26.0609 587.697 27.6009 589.317C28.3809 590.117 29.1709 590.927 29.9609 591.747C30.7909 592.527 31.6509 593.277 32.5109 594.057C34.2509 595.577 35.9409 597.207 37.7909 598.717C43.5409 603.357 52.6509 610.387 66.1309 617.097C66.9709 617.527 67.8209 617.957 68.6809 618.387C69.5509 618.817 70.4709 619.167 71.3809 619.567C73.2109 620.347 75.0909 621.147 77.0309 621.977C78.9809 622.767 81.0409 623.407 83.1209 624.157C84.1609 624.517 85.2209 624.887 86.2909 625.257C87.3709 625.607 88.4809 625.867 89.6009 626.187C98.4809 628.857 108.541 630.567 119.451 631.097C121.231 631.167 123.011 631.297 124.791 631.307C126.571 631.317 128.351 631.267 130.131 631.197C133.691 631.027 137.231 630.687 140.731 630.087C148.261 628.807 156.021 626.297 162.801 621.817C166.181 619.597 169.301 616.917 171.971 613.827C174.621 610.717 176.801 607.187 178.261 603.377C181.211 595.747 181.331 587.427 179.731 579.947C178.151 572.407 174.801 565.687 170.981 559.997C167.141 554.297 162.861 549.537 158.781 545.557C156.711 543.597 154.791 541.717 152.861 540.147C151.911 539.347 151.011 538.547 150.121 537.827C149.211 537.127 148.341 536.457 147.511 535.817C146.681 535.187 145.911 534.557 145.141 534.027C144.371 533.497 143.651 532.997 142.971 532.527C141.621 531.607 140.481 530.777 139.501 530.207C137.561 529.007 136.511 528.367 136.511 528.367C136.511 528.367 136.121 528.127 135.371 527.667C134.601 527.247 133.471 526.627 132.011 525.827C131.281 525.437 130.481 524.967 129.571 524.527C128.661 524.087 127.671 523.617 126.611 523.107C124.511 522.027 122.001 521.087 119.281 519.927C113.751 517.837 107.021 515.707 99.3409 514.347C91.6809 512.977 83.0809 512.397 74.1709 513.197C65.2609 513.907 56.0709 516.117 47.4709 519.847C38.8609 523.537 30.9209 528.877 24.5509 535.357C18.2009 541.847 13.4509 549.377 10.5309 556.867C9.06092 560.607 8.04092 564.337 7.42092 567.907C7.12092 569.697 6.88092 571.437 6.78092 573.137C6.73092 573.987 6.62092 574.817 6.63092 575.627C6.63092 576.447 6.62092 577.247 6.61092 578.027C6.67092 582.747 7.31092 587.137 8.25092 591.147C9.17092 595.167 10.4809 598.797 11.8809 602.097C13.2509 605.417 14.8809 608.317 16.4109 611.007C18.0309 613.637 19.6309 616.017 21.2509 618.117C24.4709 622.337 27.5809 625.587 30.3809 628.217C33.2109 630.807 35.6709 632.887 37.9009 634.527C44.5909 639.607 51.5309 643.517 58.3409 646.747C65.1709 649.947 71.9009 652.457 78.4809 654.517C81.7609 655.557 85.0309 656.517 88.3809 657.007C91.7209 657.487 95.1509 657.497 98.3709 656.517C101.561 655.557 104.481 653.707 106.461 651.037C107.431 649.697 108.131 648.157 108.451 646.547C108.781 644.937 108.751 643.277 108.451 641.707L108.471 641.687Z" fill="#B3DF72"/>
</g>
</g>
</g>
<defs>
<clipPath id="clip0_287_72191">
<rect width="960" height="540.05" fill="white"/>
</clipPath>
</defs>
</svg>
