<svg width="960" height="540" viewBox="0 0 960 540" fill="none" xmlns="http://www.w3.org/2000/svg">
<g clip-path="url(#clip0_287_59240)">
<path d="M28.49 85.3097L40.37 -0.000273438H0V137.52H100.78V82.5197L195.06 181.33L100.78 283.37V228.37H0V334.44H103.99V539.98H166.65L195.73 472.8L174.07 403.33H225.8L254.08 338H325.25L286.93 435.01L319.66 539.98H412.08C406.69 537.04 401.79 533.56 397.47 529.47C384.75 517.33 377.12 500.79 377.12 477.42C377.12 454.05 385.04 436.37 398.11 424.01C403.83 418.55 410.69 414.15 418.32 410.66C432.53 404.14 449.98 401.03 468.08 401.03C481.01 401.03 493.14 402.59 504.07 405.74C504.72 405.54 505.36 405.33 506.02 405.15C516.12 402.33 527.09 401.03 538.65 401.03C549.62 401.03 560.25 402.34 570.02 405.08C590.95 410.92 608.03 423.43 616.67 444.11C620.59 453.52 622.85 464.73 622.85 477.44C622.85 490.15 620.59 501.01 616.74 510.29C611.3 523.27 602.52 533.05 591.52 539.98H709.89L723.29 517.68L635.14 380.32C635.14 380.32 722.92 382.89 724.02 381.79L732.77 397.68L787.18 298.89C788.28 299.99 876.06 297.42 876.06 297.42L787.91 434.78L851.14 539.98H911.72V433.95H856.72L955.53 339.67L959.99 343.79V251.22H929.05C930.19 254.89 931.14 258.8 931.88 262.94H819.06C828.27 230.11 842.82 215.11 863.44 211.17C873.48 155.3 906.81 131.61 959.99 130.14V80.8097C953.55 84.0297 946.67 86.6297 939.45 88.6397C926.26 92.3497 912.61 94.1197 897.07 94.1197C881.53 94.1197 866.62 92.3497 852.97 88.5497C824.24 80.5597 801.33 63.6597 789.74 35.8897C785.4 25.4397 782.62 13.6997 781.82 -0.0302734H720.65L776.23 178.22H673.24L639.7 70.6497L635.99 80.0297H555.28L589.95 -0.000273438H515.89L499.62 116.84H499.98H518.15H577.22L434.91 309.62L452.55 182.96H374.95L510.01 -0.000273438H411.58L330.25 107.62L330.02 107.71L312.79 82.6697L254.62 159.65L254.39 159.74L172.83 41.1597L172.96 40.9197L265.66 14.1497L255.94 0.00972656H91.47L28.49 85.3097ZM544.25 221.87H544.27C544.27 221.87 544.27 221.85 544.27 221.84L544.3 221.82L735.63 220.97C716.83 262.88 704.12 307.83 697.27 348.6H697.25C697.25 348.6 697.25 348.62 697.25 348.63L506.42 349.48L506.4 349.45C513.07 297.64 527.52 254.1 544.26 221.86L544.25 221.87ZM236.08 236.23C250.95 230.73 266.56 227.95 282.5 227.95C298.44 227.95 314.05 230.74 328.92 236.23C343.28 241.54 356.63 249.25 368.58 259.14C392.48 278.92 409.52 306.68 416.56 337.3L417.75 342.49H359.05L358.01 339.75C352.13 324.17 341.98 310.88 328.67 301.3C315.08 291.52 299.11 286.35 282.5 286.35C265.89 286.35 249.92 291.52 236.33 301.3C223.02 310.88 212.87 324.18 206.99 339.75L205.96 342.49H147.26L148.45 337.3C155.49 306.68 172.53 278.92 196.43 259.14C208.39 249.24 221.73 241.53 236.09 236.23H236.08Z" fill="#1558BC"/>
<path d="M452.549 182.96L461.759 116.84H462.119H499.609L515.889 0H510.009L374.949 182.96H452.549Z" fill="#1868DB"/>
<path d="M490.41 182.96H452.91L462.12 116.84H461.76L452.55 182.96L434.91 309.62L577.22 116.84H518.14H499.98L490.77 182.96H490.41Z" fill="#1868DB"/>
<path d="M462.12 116.84L452.91 182.96H490.41H490.77L499.98 116.84H499.61H462.12Z" fill="#1868DB"/>
<path d="M635.999 80.07L639.709 70.68L639.699 70.66L617.489 0H589.949L555.289 80.07H635.999Z" fill="#357DE8"/>
<path d="M639.709 70.68L639.699 70.66L639.709 70.68L673.249 178.25H776.239L720.659 0H667.399L639.709 70.68Z" fill="#1868DB"/>
<path d="M639.708 70.68L667.398 0H617.488L639.698 70.66L639.708 70.68Z" fill="#1558BC"/>
<path d="M195.738 472.88L195.718 472.82L166.648 540H216.618L195.738 472.88Z" fill="#1868DB"/>
<path d="M286.919 435.03L325.239 338.02H254.069L225.789 403.35H277.049L286.919 435.03Z" fill="#1868DB"/>
<path d="M277.05 403.35L286.71 434.35L245.32 540H319.66L286.92 435.03L277.05 403.35Z" fill="#357DE8"/>
<path d="M225.809 403.47L277.049 403.35H225.789H174.059L195.719 472.82L195.739 472.88L225.809 403.47Z" fill="#357DE8"/>
<path d="M277.048 403.35L225.808 403.47L195.738 472.88L216.618 540H245.318L286.708 434.35L277.048 403.35Z" fill="#1558BC"/>
<path d="M735.599 221.01C716.799 262.91 704.09 307.85 697.25 348.61H697.27C704.11 307.85 716.82 262.9 735.63 220.98L544.299 221.83L544.27 221.85C544.27 221.85 544.27 221.86 544.27 221.87L735.599 221.02V221.01Z" fill="#1868DB"/>
<path d="M312.78 82.6497L265.66 14.1396L172.95 40.9096L172.82 41.1396L254.39 159.73L254.62 159.64L312.79 82.6696L312.78 82.6497Z" fill="#1868DB"/>
<path d="M314.59 0H255.93L265.65 14.13L314.59 0Z" fill="#357DE8"/>
<path d="M312.791 82.67L330.021 107.71L330.251 107.62L411.581 0H375.241L312.781 82.65L312.791 82.67Z" fill="#357DE8"/>
<path d="M265.648 14.13L265.658 14.14L312.778 82.65L375.238 0H314.588L265.648 14.13Z" fill="#1558BC"/>
<path d="M148.44 337.3L147.25 342.49H205.95L206.98 339.75C212.86 324.17 223.01 310.88 236.32 301.3C249.91 291.52 265.88 286.35 282.49 286.35C299.1 286.35 315.07 291.52 328.66 301.3C341.97 310.88 352.12 324.18 358 339.75L359.04 342.49H417.74L416.55 337.3C409.51 306.68 392.47 278.92 368.57 259.14C356.61 249.24 343.27 241.53 328.91 236.23C314.04 230.73 298.43 227.95 282.49 227.95C266.55 227.95 250.94 230.74 236.07 236.23C221.71 241.54 208.36 249.25 196.41 259.14C172.51 278.92 155.47 306.68 148.43 337.3H148.44Z" fill="#1868DB"/>
<path d="M134.911 228.39H100.781V283.38L195.061 181.34L100.781 82.5303V137.52H134.911V228.39Z" fill="#1868DB"/>
<path d="M100.78 137.52H0V228.39H100.78V137.52Z" fill="#1868DB"/>
<path d="M134.901 137.52H100.781V228.39H134.901V137.52Z" fill="#1558BC"/>
<path d="M91.4683 0H40.3683L28.4883 85.31L91.4683 0Z" fill="#357DE8"/>
<path d="M0 334.46V430.94H26.29V540H103.99V334.46H0Z" fill="#357DE8"/>
<path d="M26.29 430.94H0V540H26.29V430.94Z" fill="#1558BC"/>
<path d="M852.978 88.5698C866.628 92.3798 881.538 94.1398 897.078 94.1398C912.618 94.1398 926.268 92.3698 939.458 88.6598C946.688 86.6498 953.558 84.0498 959.998 80.8298V26.9798C958.158 29.6098 956.088 32.0498 953.808 34.2698C948.898 39.0398 942.998 42.8298 936.358 45.7398C925.038 50.6998 911.518 53.1198 896.738 53.1198V53.0598C881.658 53.0598 867.738 50.5798 856.068 45.3698C849.608 42.5198 843.888 38.8598 839.038 34.2698C830.208 25.8498 824.398 14.8198 822.838 0.00976562H781.828C782.638 13.7398 785.408 25.4798 789.748 35.9298C801.338 63.6998 824.238 80.5998 852.978 88.5898V88.5698Z" fill="#1868DB"/>
<path d="M856.072 45.36C867.742 50.57 881.662 53.05 896.742 53.05V53.11C911.522 53.11 925.042 50.69 936.362 45.73C943.002 42.82 948.902 39.03 953.812 34.26C956.102 32.04 958.162 29.61 960.002 26.97V0H934.262C933.782 2.29 933.132 4.41 932.322 6.38C928.352 15.83 920.532 21.6 910.912 24.28C906.422 25.54 901.802 26.14 896.512 26.14C891.222 26.14 886.192 25.54 881.562 24.25C871.812 21.54 864.042 15.81 860.102 6.38C859.282 4.41 858.642 2.29 858.172 0H822.852C824.412 14.82 830.222 25.84 839.052 34.26C843.912 38.85 849.622 42.51 856.082 45.36H856.072Z" fill="#1558BC"/>
<path d="M881.548 24.2402C886.188 25.5302 891.228 26.1302 896.498 26.1302C901.768 26.1302 906.408 25.5302 910.898 24.2702C920.518 21.5902 928.348 15.8302 932.308 6.37023C933.118 4.41023 933.778 2.28023 934.248 -0.00976562H858.148C858.618 2.28023 859.258 4.39023 860.078 6.37023C864.018 15.7902 871.788 21.5302 881.538 24.2402H881.548Z" fill="#357DE8"/>
<path d="M616.729 510.31C620.589 501.03 622.839 490.17 622.839 477.46C622.839 464.75 620.579 453.54 616.659 444.13C608.019 423.44 590.939 410.94 570.009 405.1C560.239 402.35 549.609 401.05 538.639 401.05C527.079 401.05 516.109 402.36 506.009 405.17C505.349 405.35 504.709 405.56 504.059 405.76C508.429 407.02 512.609 408.53 516.559 410.3C524.409 413.79 531.469 418.34 537.339 424.03C550.199 436.4 557.769 454.68 557.769 477.44C557.769 477.47 557.769 477.5 557.769 477.54C557.769 477.58 557.769 477.6 557.769 477.63C557.769 500.39 550.419 517.54 537.909 529.68C533.799 533.67 529.119 537.09 523.979 540H591.509C602.509 533.07 611.289 523.28 616.729 510.31Z" fill="#1868DB"/>
<path d="M459.22 510.5C455.37 501.22 453.17 490.57 453.17 477.65C453.17 464.73 455.36 453.73 459.28 444.32C467.59 424.41 483.75 412.05 504.03 405.93C508.41 407.19 512.59 408.71 516.55 410.49C524.4 413.98 531.46 418.53 537.33 424.22C550.18 436.57 557.73 454.82 557.75 477.54C557.75 477.51 557.75 477.48 557.75 477.44C557.75 454.68 550.19 436.39 537.32 424.03C531.45 418.34 524.39 413.79 516.54 410.3C512.59 408.52 508.41 407.02 504.04 405.76C493.11 402.61 480.98 401.05 468.05 401.05C449.96 401.05 432.5 404.16 418.29 410.68C410.66 414.17 403.8 418.57 398.08 424.03C385 436.4 377.09 454.08 377.09 477.44C377.09 500.8 384.72 517.35 397.44 529.49C401.76 533.58 406.66 537.06 412.05 540H484.21C473.25 533.08 464.57 523.38 459.2 510.5H459.22Z" fill="#357DE8"/>
<path d="M557.771 477.64C557.771 477.64 557.771 477.58 557.771 477.55C557.751 454.83 550.191 436.58 537.351 424.23C531.481 418.54 524.421 413.99 516.571 410.5C512.611 408.72 508.431 407.2 504.051 405.94C483.771 412.07 467.611 424.43 459.301 444.33C455.381 453.74 453.191 464.74 453.191 477.66C453.191 490.58 455.381 501.23 459.241 510.51C464.621 523.39 473.301 533.09 484.251 540.01H523.991C529.131 537.1 533.811 533.69 537.921 529.69C550.431 517.55 557.781 500.4 557.781 477.64H557.771Z" fill="#1558BC"/>
<path d="M697.251 348.63C697.251 348.63 697.251 348.61 697.251 348.6C704.101 307.84 716.801 262.91 735.601 221L544.271 221.85L544.251 221.87C527.511 254.11 513.071 297.65 506.391 349.46L506.411 349.49L697.241 348.64L697.251 348.63Z" fill="#357DE8"/>
<path d="M863.451 211.19C863.451 211.19 863.471 211.19 863.481 211.19C864.401 211.02 865.331 210.87 866.281 210.73C866.471 210.7 866.661 210.68 866.851 210.66C867.581 210.57 868.321 210.48 869.071 210.41C869.351 210.38 869.631 210.36 869.921 210.34C870.611 210.28 871.311 210.24 872.011 210.2C872.291 210.19 872.561 210.17 872.841 210.16C873.801 210.12 874.771 210.1 875.761 210.1C876.621 210.1 877.481 210.12 878.321 210.15C878.601 210.16 878.881 210.18 879.161 210.19C879.721 210.22 880.291 210.25 880.841 210.29C881.171 210.32 881.491 210.35 881.821 210.38C882.321 210.43 882.821 210.47 883.321 210.53C883.661 210.57 884.001 210.61 884.341 210.66C884.821 210.72 885.291 210.79 885.761 210.87C886.101 210.92 886.441 210.98 886.781 211.04C887.241 211.12 887.701 211.21 888.161 211.3C888.491 211.37 888.831 211.43 889.161 211.51C889.631 211.61 890.091 211.73 890.551 211.84C890.861 211.92 891.171 211.99 891.481 212.07C891.991 212.21 892.501 212.36 893.011 212.51C893.251 212.58 893.501 212.65 893.751 212.73C894.471 212.96 895.181 213.2 895.891 213.45C896.191 213.56 896.491 213.68 896.791 213.8C897.211 213.96 897.621 214.12 898.041 214.29C898.381 214.43 898.711 214.58 899.041 214.73C899.401 214.89 899.771 215.05 900.121 215.22C900.471 215.38 900.811 215.55 901.151 215.72C901.481 215.89 901.821 216.06 902.151 216.23C902.501 216.41 902.841 216.6 903.191 216.79C903.501 216.97 903.811 217.14 904.121 217.33C904.471 217.54 904.821 217.74 905.161 217.96C905.451 218.14 905.741 218.33 906.021 218.52C906.371 218.75 906.721 218.98 907.071 219.22C907.321 219.39 907.571 219.58 907.821 219.76C908.191 220.02 908.561 220.29 908.921 220.56C908.941 220.57 908.951 220.59 908.971 220.6C909.941 221.34 910.871 222.12 911.791 222.94C911.951 223.08 912.111 223.21 912.261 223.36C912.631 223.7 912.991 224.04 913.341 224.39C913.531 224.57 913.721 224.76 913.911 224.94C914.261 225.29 914.601 225.65 914.941 226.01C915.131 226.21 915.321 226.41 915.501 226.61C915.841 226.98 916.171 227.35 916.491 227.73C916.671 227.93 916.841 228.14 917.011 228.35C917.341 228.74 917.671 229.14 917.991 229.55C918.141 229.75 918.301 229.95 918.451 230.15C918.781 230.58 919.111 231.02 919.431 231.46C919.541 231.62 919.651 231.78 919.761 231.93C921.361 234.19 922.831 236.63 924.171 239.23C924.241 239.36 924.311 239.49 924.381 239.63C924.661 240.19 924.941 240.77 925.211 241.34C925.301 241.54 925.401 241.74 925.491 241.94C925.751 242.5 926.001 243.07 926.251 243.65C926.351 243.87 926.441 244.1 926.541 244.33C926.781 244.91 927.021 245.49 927.251 246.09C927.341 246.31 927.421 246.54 927.511 246.77C927.741 247.38 927.971 248 928.191 248.63C928.261 248.82 928.321 249.01 928.381 249.2C928.611 249.88 928.841 250.56 929.051 251.25C929.051 251.25 929.051 251.25 929.051 251.26H959.991V130.19C906.811 131.66 873.481 155.35 863.441 211.22L863.451 211.19Z" fill="#357DE8"/>
<path d="M873.609 251.24H860.219C860.219 236.36 861.329 223.07 863.469 211.19C863.459 211.19 863.449 211.19 863.439 211.19C842.819 215.12 828.269 230.13 819.059 262.96H931.879C931.149 258.81 930.189 254.91 929.049 251.24H873.599H873.609Z" fill="#1868DB"/>
<path d="M902.141 216.23C902.491 216.41 902.831 216.6 903.181 216.79C902.841 216.6 902.491 216.41 902.141 216.23Z" fill="#1868DB"/>
<path d="M904.109 217.33C904.459 217.54 904.809 217.74 905.149 217.96C904.809 217.75 904.459 217.54 904.109 217.33Z" fill="#1868DB"/>
<path d="M898.02 214.29C898.36 214.43 898.69 214.58 899.02 214.73C898.69 214.58 898.35 214.43 898.02 214.29Z" fill="#1868DB"/>
<path d="M907.809 219.74C908.179 220.01 908.549 220.27 908.909 220.54C908.549 220.26 908.179 220 907.809 219.74Z" fill="#1868DB"/>
<path d="M888.16 211.31C888.49 211.38 888.83 211.44 889.16 211.52C888.83 211.45 888.5 211.38 888.16 211.31Z" fill="#1868DB"/>
<path d="M895.879 213.45C896.179 213.56 896.479 213.68 896.779 213.8C896.479 213.69 896.189 213.56 895.879 213.45Z" fill="#1868DB"/>
<path d="M893 212.51C893.24 212.58 893.49 212.65 893.74 212.73C893.5 212.65 893.25 212.59 893 212.51Z" fill="#1868DB"/>
<path d="M926.551 244.31C926.791 244.89 927.031 245.47 927.261 246.07C927.031 245.48 926.791 244.89 926.551 244.31Z" fill="#1868DB"/>
<path d="M924.391 239.61C924.671 240.17 924.951 240.75 925.221 241.32C924.951 240.74 924.671 240.17 924.391 239.61Z" fill="#1868DB"/>
<path d="M928.379 249.17C928.609 249.85 928.839 250.53 929.049 251.22C928.829 250.53 928.609 249.84 928.379 249.17Z" fill="#1868DB"/>
<path d="M915.5 226.59C915.84 226.96 916.17 227.33 916.49 227.71C916.16 227.33 915.83 226.96 915.5 226.59Z" fill="#1868DB"/>
<path d="M912.25 223.34C912.62 223.68 912.98 224.02 913.33 224.37C912.97 224.02 912.61 223.67 912.25 223.34Z" fill="#1868DB"/>
<path d="M918.449 230.13C918.779 230.56 919.109 231 919.429 231.44C919.109 230.99 918.779 230.56 918.449 230.13Z" fill="#1868DB"/>
<path d="M863.48 211.19C864.4 211.02 865.331 210.87 866.281 210.73C865.341 210.86 864.4 211.01 863.48 211.19Z" fill="#1868DB"/>
<path d="M866.852 210.66C867.582 210.57 868.322 210.48 869.072 210.41C868.322 210.48 867.592 210.56 866.852 210.66Z" fill="#1868DB"/>
<path d="M869.91 210.34C870.6 210.28 871.3 210.24 872 210.2C871.3 210.23 870.6 210.28 869.91 210.34Z" fill="#1868DB"/>
<path d="M872.828 210.16C873.788 210.12 874.758 210.1 875.748 210.1C874.768 210.1 873.798 210.12 872.828 210.16Z" fill="#1868DB"/>
<path d="M928.38 249.17C928.32 248.98 928.25 248.79 928.19 248.6C927.97 247.97 927.74 247.35 927.51 246.74C927.42 246.51 927.34 246.29 927.25 246.06C927.02 245.47 926.78 244.88 926.54 244.3C926.45 244.07 926.35 243.85 926.25 243.62C926 243.04 925.75 242.47 925.49 241.91C925.4 241.71 925.301 241.51 925.211 241.31C924.941 240.73 924.66 240.16 924.38 239.6C924.31 239.47 924.24 239.34 924.17 239.2C922.83 236.6 921.36 234.16 919.76 231.9C919.65 231.74 919.54 231.58 919.43 231.43C919.11 230.98 918.781 230.55 918.451 230.12C918.301 229.92 918.15 229.72 917.99 229.52C917.67 229.11 917.34 228.71 917.01 228.32C916.84 228.11 916.66 227.91 916.49 227.7C916.16 227.32 915.83 226.95 915.5 226.58C915.31 226.38 915.13 226.18 914.94 225.98C914.6 225.62 914.26 225.26 913.91 224.91C913.72 224.72 913.531 224.54 913.341 224.36C912.981 224.01 912.62 223.66 912.26 223.33C912.1 223.19 911.94 223.05 911.79 222.91C910.87 222.09 909.94 221.31 908.97 220.57C908.95 220.56 908.94 220.54 908.92 220.53C908.56 220.25 908.19 219.99 907.82 219.73C907.57 219.55 907.32 219.37 907.07 219.19C906.72 218.95 906.371 218.72 906.021 218.49C905.731 218.3 905.45 218.12 905.16 217.93C904.82 217.72 904.47 217.51 904.12 217.3C903.81 217.12 903.5 216.94 903.19 216.76C902.85 216.57 902.501 216.38 902.151 216.2C901.821 216.03 901.491 215.86 901.151 215.69C900.811 215.52 900.47 215.35 900.12 215.19C899.76 215.02 899.4 214.86 899.04 214.7C898.71 214.55 898.37 214.4 898.04 214.26C897.63 214.09 897.21 213.93 896.79 213.77C896.49 213.66 896.201 213.53 895.891 213.42C895.181 213.16 894.47 212.92 893.75 212.7C893.51 212.62 893.26 212.56 893.01 212.48C892.5 212.33 892 212.18 891.48 212.04C891.17 211.96 890.86 211.89 890.55 211.81C890.09 211.7 889.63 211.58 889.16 211.48C888.83 211.41 888.5 211.34 888.16 211.27C887.7 211.18 887.241 211.09 886.781 211.01C886.441 210.95 886.1 210.89 885.76 210.84C885.29 210.77 884.821 210.7 884.341 210.63C884.001 210.58 883.66 210.54 883.32 210.5C882.82 210.44 882.32 210.39 881.82 210.35C881.49 210.32 881.171 210.29 880.841 210.26C880.281 210.22 879.72 210.19 879.16 210.16C878.88 210.15 878.6 210.13 878.32 210.12C877.47 210.09 876.62 210.07 875.76 210.07C874.78 210.07 873.811 210.09 872.841 210.13C872.561 210.14 872.29 210.16 872.01 210.17C871.31 210.21 870.61 210.25 869.92 210.31C869.64 210.33 869.35 210.36 869.07 210.38C868.32 210.45 867.59 210.53 866.85 210.63C866.66 210.65 866.471 210.67 866.281 210.7C865.341 210.83 864.4 210.98 863.48 211.16C861.34 223.04 860.23 236.33 860.23 251.21H929.06C929.06 251.21 929.06 251.21 929.06 251.2C928.84 250.51 928.621 249.82 928.391 249.15L928.38 249.17Z" fill="#1558BC"/>
<path d="M856.73 433.97H911.73V399.85H960V343.81L955.54 339.69L856.73 433.97Z" fill="#357DE8"/>
<path d="M911.73 433.97V540H960V433.97H911.73Z" fill="#1868DB"/>
<path d="M960 399.85H911.73V433.97H960V399.85Z" fill="#1558BC"/>
<path d="M876.06 297.44C876.06 297.44 788.28 300.01 787.18 298.91L732.77 397.7L743.07 416.4L799.68 519.17L788.56 540H851.15L787.919 434.8L876.07 297.44H876.06Z" fill="#1868DB"/>
<path d="M711.521 436.27L732.771 397.69L724.021 381.8C722.921 382.9 635.141 380.33 635.141 380.33L723.291 517.69L709.891 539.99H766.931L711.531 436.26L711.521 436.27Z" fill="#357DE8"/>
<path d="M743.07 416.4L732.77 397.69L711.52 436.27L766.919 540H788.549L799.68 519.17L743.07 416.4Z" fill="#1558BC"/>
</g>
<defs>
<clipPath id="clip0_287_59240">
<rect width="960" height="540" fill="white"/>
</clipPath>
</defs>
</svg>
