<svg width="960" height="540" viewBox="0 0 960 540" fill="none" xmlns="http://www.w3.org/2000/svg">
<g clip-path="url(#clip0_287_59534)">
<path d="M929.06 251.1C930.2 254.77 931.15 258.68 931.89 262.82H819.07C828.28 229.99 842.83 214.98 863.45 211.05C873.49 155.18 906.82 131.49 960 130.02V80.6902C953.56 83.9102 946.68 86.5102 939.46 88.5202C926.27 92.2302 912.62 94.0002 897.08 94.0002C881.54 94.0002 866.63 92.2302 852.98 88.4302C824.25 80.4402 801.34 63.5402 789.75 35.7702C785.43 25.3602 782.65 13.6602 781.83 -0.00976562H720.69L776.23 178.1H673.24L639.7 70.5302L635.99 79.9102H555.28L589.89 0.000234375H515.87L499.61 116.7H499.97H518.14H577.21L434.9 309.48L452.54 182.82H374.94L509.91 0.000234375H411.48L330.25 107.49L330.02 107.58L312.79 82.5402L254.62 159.52L254.39 159.61L172.83 41.0302L172.96 40.7902L265.66 14.0202L256.04 0.0202344H91.37L28.49 85.1802L40.36 0.000234375H0V137.39H100.78V82.3902L195.06 181.2L100.78 283.24V228.24H0V334.31H103.99V539.99H166.59L195.73 472.68L174.07 403.21H225.8L254.08 337.88H325.25L286.93 434.89L319.71 540H412.33C406.84 537.03 401.87 533.51 397.48 529.36C384.76 517.22 377.13 500.68 377.13 477.31C377.13 453.94 385.05 436.26 398.12 423.9C403.84 418.44 410.7 414.04 418.33 410.55C432.54 404.03 449.99 400.91 468.09 400.91C481.02 400.91 493.15 402.47 504.08 405.62C504.73 405.42 505.37 405.21 506.03 405.03C516.13 402.21 527.1 400.91 538.66 400.91C549.63 400.91 560.26 402.22 570.03 404.96C590.96 410.8 608.04 423.31 616.68 443.99C620.6 453.4 622.86 464.61 622.86 477.32C622.86 490.03 620.6 500.89 616.75 510.17C611.28 523.23 602.4 533.06 591.3 540H709.82L723.31 517.56L635.16 380.2C635.16 380.2 722.94 382.77 724.04 381.67L732.79 397.56L787.2 298.77C788.3 299.87 876.08 297.3 876.08 297.3L787.93 434.66L851.24 540H911.74V433.83H856.74L955.55 339.55L960.01 343.67V251.1H929.07H929.06ZM359.05 342.35L358.01 339.61C352.13 324.03 341.98 310.74 328.67 301.16C315.08 291.38 299.11 286.21 282.5 286.21C265.89 286.21 249.92 291.38 236.33 301.16C223.02 310.74 212.87 324.04 206.99 339.61L205.96 342.35H147.26L148.45 337.16C155.49 306.54 172.53 278.78 196.43 259C208.39 249.1 221.73 241.39 236.09 236.09C250.96 230.59 266.57 227.81 282.51 227.81C298.45 227.81 314.06 230.6 328.93 236.09C343.29 241.4 356.64 249.11 368.59 259C392.49 278.78 409.53 306.54 416.57 337.16L417.76 342.35H359.06H359.05ZM697.25 348.5L506.42 349.35L506.4 349.32C513.07 297.51 527.52 253.97 544.26 221.73L544.29 221.71L735.62 220.86C716.82 262.77 704.11 307.72 697.26 348.49L697.25 348.5Z" fill="#FCA700"/>
<path d="M452.549 182.82L461.759 116.7H462.119H499.609L515.869 0H509.909L374.949 182.82H452.549Z" fill="#FFC716"/>
<path d="M490.41 182.82H452.91L462.12 116.7H461.76L452.55 182.82L434.91 309.48L577.22 116.7H518.14H499.98L490.77 182.82H490.41Z" fill="#FFC716"/>
<path d="M462.12 116.7L452.91 182.82H490.41H490.77L499.98 116.7H499.61H462.12Z" fill="#FFC716"/>
<path d="M635.999 79.93L639.709 70.55L639.699 70.53L617.529 0H589.889L555.289 79.93H635.999Z" fill="#FFC716"/>
<path d="M639.709 70.55L639.699 70.53L639.709 70.55L673.249 178.11H776.239L720.699 0H667.349L639.709 70.55Z" fill="#FFC716"/>
<path d="M195.74 472.74L195.72 472.69L166.59 540H216.66L195.74 472.74Z" fill="#FFC716"/>
<path d="M286.919 434.89L325.239 337.88H254.069L225.789 403.21H277.049L286.919 434.89Z" fill="#FFC716"/>
<path d="M277.05 403.21L286.71 434.21L245.27 540H319.7L286.92 434.89L277.05 403.21Z" fill="#FFC716"/>
<path d="M225.809 403.33L277.049 403.21H225.789H174.059L195.719 472.69L195.739 472.74L225.809 403.33Z" fill="#FFC716"/>
<path d="M312.78 82.52L265.66 14L172.95 40.77L172.82 41.01L254.39 159.59L254.62 159.51L312.79 82.53L312.78 82.52Z" fill="#FFC716"/>
<path d="M314.12 0H256.02L265.65 13.99L314.12 0Z" fill="#FFC716"/>
<path d="M312.791 82.53L330.021 107.57L330.251 107.49L411.481 0H375.141L312.781 82.52L312.791 82.53Z" fill="#FFC716"/>
<path d="M368.58 259C356.62 249.1 343.28 241.39 328.92 236.09C314.05 230.59 298.44 227.81 282.5 227.81C266.56 227.81 250.95 230.6 236.08 236.09C221.72 241.4 208.37 249.11 196.42 259C172.52 278.78 155.48 306.54 148.44 337.16L147.25 342.35H205.95L206.98 339.61C212.86 324.03 223.01 310.74 236.32 301.16C249.91 291.38 265.88 286.21 282.49 286.21C299.1 286.21 315.07 291.38 328.66 301.16C341.97 310.74 352.12 324.04 358 339.61L359.04 342.35H417.74L416.55 337.16C409.51 306.54 392.47 278.78 368.57 259H368.58Z" fill="#FFC716"/>
<path d="M134.911 228.25H100.781V283.25L195.061 181.2L100.781 82.3896V137.39H134.911V228.25Z" fill="#FFC716"/>
<path d="M100.78 137.39H0V228.26H100.78V137.39Z" fill="#FFC716"/>
<path d="M91.3683 0H40.3583L28.4883 85.18L91.3683 0Z" fill="#FFC716"/>
<path d="M0 334.32V430.8H26.29V540H103.99V334.32H0Z" fill="#FFC716"/>
<path d="M852.98 88.44C866.63 92.25 881.54 94.01 897.08 94.01C912.62 94.01 926.27 92.24 939.46 88.53C946.69 86.52 953.56 83.92 960 80.7V26.84C958.16 29.47 956.09 31.91 953.81 34.13C948.9 38.9 943 42.69 936.36 45.6C925.04 50.56 911.52 52.98 896.74 52.98V52.92C881.66 52.92 867.74 50.44 856.07 45.23C849.61 42.38 843.89 38.72 839.04 34.13C830.24 25.74 824.44 14.75 822.86 0H781.84C782.66 13.67 785.43 25.37 789.76 35.78C801.35 63.55 824.25 80.45 852.99 88.44H852.98Z" fill="#FFC716"/>
<path d="M879.48 23.4696C878.86 23.2596 878.26 23.0496 877.66 22.8096C878.26 23.0396 878.86 23.2596 879.48 23.4696Z" fill="#FFC716"/>
<path d="M879.75 23.5596C880.34 23.7496 880.95 23.9296 881.55 24.0996C882.46 24.3496 883.39 24.5696 884.32 24.7696C883.38 24.5696 882.45 24.3496 881.55 24.0996C880.94 23.9296 880.34 23.7496 879.75 23.5596Z" fill="#FFC716"/>
<path d="M910.901 24.14C920.521 21.46 928.351 15.7 932.311 6.24C933.111 4.31 933.751 2.23 934.221 0C933.751 2.23 933.101 4.32 932.311 6.24C928.341 15.69 920.521 21.46 910.901 24.14Z" fill="#FFC716"/>
<path d="M877.662 22.82C878.262 23.05 878.862 23.27 879.482 23.48C879.572 23.51 879.652 23.54 879.742 23.57C880.332 23.76 880.932 23.94 881.542 24.11C882.452 24.36 883.382 24.58 884.312 24.78C885.322 25 886.342 25.18 887.382 25.34C890.312 25.78 893.362 26 896.492 26C901.782 26 906.402 25.4 910.892 24.14C920.512 21.46 928.342 15.7 932.302 6.24C933.102 4.31 933.742 2.23 934.212 0H858.172C858.632 2.23 859.272 4.31 860.072 6.24C863.472 14.37 869.732 19.75 877.652 22.81L877.662 22.82Z" fill="#FFC716"/>
<path d="M616.729 510.17C620.589 500.89 622.839 490.03 622.839 477.32C622.839 464.61 620.579 453.4 616.659 443.99C608.019 423.3 590.939 410.8 570.009 404.96C560.239 402.21 549.609 400.91 538.639 400.91C527.079 400.91 516.109 402.22 506.009 405.03C505.349 405.21 504.709 405.42 504.059 405.62C508.429 406.88 512.609 408.39 516.559 410.16C524.409 413.65 531.469 418.2 537.339 423.89C550.199 436.26 557.769 454.54 557.769 477.3C557.769 477.33 557.769 477.36 557.769 477.4C557.769 477.44 557.769 477.46 557.769 477.49C557.769 500.25 550.419 517.4 537.909 529.54C533.739 533.6 528.969 537.06 523.739 539.99H591.289C602.389 533.05 611.259 523.23 616.739 510.16L616.729 510.17Z" fill="#FFC716"/>
<path d="M459.22 510.36C455.37 501.08 453.17 490.43 453.17 477.51C453.17 464.59 455.36 453.59 459.28 444.18C467.59 424.27 483.75 411.91 504.03 405.79C508.41 407.05 512.59 408.57 516.55 410.35C524.4 413.84 531.46 418.39 537.33 424.08C550.18 436.43 557.73 454.68 557.75 477.4C557.75 477.37 557.75 477.34 557.75 477.3C557.75 454.54 550.19 436.25 537.32 423.89C531.45 418.2 524.39 413.65 516.54 410.16C512.59 408.38 508.41 406.88 504.04 405.62C493.11 402.47 480.98 400.91 468.05 400.91C449.96 400.91 432.5 404.02 418.29 410.55C410.66 414.04 403.8 418.44 398.08 423.9C385 436.27 377.09 453.95 377.09 477.31C377.09 500.67 384.72 517.22 397.44 529.36C401.83 533.51 406.8 537.04 412.29 540H484.42C473.36 533.07 464.6 523.33 459.19 510.36H459.22Z" fill="#FFC716"/>
<path d="M863.449 211.06C863.449 211.06 863.469 211.06 863.479 211.06C864.399 210.89 865.329 210.74 866.279 210.6C866.459 210.57 866.649 210.55 866.839 210.53C867.579 210.43 868.319 210.35 869.069 210.28C869.349 210.25 869.629 210.23 869.909 210.21C870.609 210.15 871.309 210.11 872.019 210.07C872.289 210.06 872.559 210.04 872.839 210.03C873.799 209.99 874.769 209.97 875.759 209.97C875.779 209.97 875.799 209.97 875.819 209.97C876.659 209.97 877.499 209.99 878.329 210.02C878.619 210.03 878.899 210.05 879.189 210.07C879.749 210.1 880.299 210.13 880.849 210.17C881.179 210.2 881.509 210.23 881.839 210.26C882.339 210.31 882.829 210.35 883.329 210.41C883.679 210.45 884.019 210.5 884.359 210.54C884.829 210.6 885.299 210.67 885.759 210.74C886.109 210.79 886.449 210.85 886.799 210.91C887.259 210.99 887.709 211.08 888.159 211.17C888.499 211.24 888.839 211.31 889.169 211.38C889.629 211.48 890.079 211.59 890.539 211.7C890.859 211.78 891.179 211.85 891.489 211.94C891.989 212.07 892.489 212.22 892.979 212.37C893.239 212.45 893.499 212.52 893.749 212.59C894.469 212.82 895.179 213.06 895.879 213.31C896.189 213.42 896.489 213.55 896.799 213.66C897.209 213.82 897.619 213.97 898.019 214.14C898.359 214.28 898.699 214.43 899.029 214.58C899.389 214.74 899.749 214.9 900.099 215.06C900.449 215.22 900.789 215.39 901.139 215.57C901.469 215.74 901.799 215.9 902.129 216.08C902.479 216.26 902.829 216.45 903.169 216.65C903.479 216.82 903.789 217 904.099 217.18C904.449 217.39 904.799 217.59 905.149 217.81C905.439 217.99 905.719 218.18 906.009 218.36C906.359 218.59 906.719 218.82 907.059 219.06C907.309 219.23 907.559 219.42 907.799 219.59C908.169 219.86 908.539 220.12 908.909 220.4C908.909 220.4 908.929 220.41 908.939 220.42C909.919 221.16 910.859 221.96 911.779 222.78C911.939 222.92 912.099 223.05 912.249 223.19C912.619 223.53 912.979 223.87 913.329 224.22C913.519 224.4 913.709 224.59 913.899 224.77C914.249 225.12 914.589 225.48 914.929 225.84C915.119 226.04 915.309 226.24 915.489 226.44C915.829 226.81 916.159 227.18 916.489 227.56C916.669 227.76 916.839 227.97 917.009 228.18C917.339 228.57 917.669 228.97 917.989 229.38C918.139 229.58 918.299 229.78 918.449 229.97C918.779 230.4 919.109 230.84 919.429 231.28C919.539 231.44 919.649 231.6 919.759 231.76C921.359 234.02 922.829 236.45 924.169 239.06C924.239 239.19 924.309 239.32 924.379 239.46C924.659 240.02 924.939 240.59 925.209 241.17C925.299 241.37 925.399 241.57 925.489 241.77C925.749 242.33 925.999 242.9 926.249 243.48C926.349 243.71 926.439 243.93 926.539 244.16C926.779 244.74 927.019 245.32 927.249 245.92C927.339 246.14 927.419 246.37 927.509 246.6C927.739 247.21 927.969 247.83 928.189 248.46C928.259 248.65 928.319 248.85 928.389 249.04C928.619 249.72 928.849 250.4 929.059 251.09C929.059 251.09 929.059 251.09 929.059 251.1H959.999V130.03C906.819 131.5 873.489 155.19 863.449 211.06Z" fill="#FFC716"/>
<path d="M819.07 262.83H931.89C931.16 258.68 930.2 254.78 929.06 251.11H860.23C860.23 236.23 861.34 222.94 863.48 211.06C863.47 211.06 863.46 211.06 863.45 211.06C842.83 214.99 828.28 230 819.07 262.83Z" fill="#FFC716"/>
<path d="M895.871 213.31C896.181 213.42 896.481 213.55 896.791 213.66C896.481 213.54 896.181 213.42 895.871 213.31Z" fill="#FFC716"/>
<path d="M898.02 214.15C898.36 214.29 898.7 214.44 899.03 214.59C898.69 214.44 898.36 214.29 898.02 214.15Z" fill="#FFC716"/>
<path d="M892.969 212.37C893.229 212.45 893.489 212.52 893.739 212.59C893.489 212.51 893.229 212.44 892.969 212.37Z" fill="#FFC716"/>
<path d="M902.129 216.09C902.479 216.27 902.829 216.46 903.169 216.66C902.819 216.47 902.479 216.28 902.129 216.09Z" fill="#FFC716"/>
<path d="M904.102 217.19C904.452 217.4 904.802 217.6 905.152 217.82C904.812 217.61 904.462 217.4 904.102 217.19Z" fill="#FFC716"/>
<path d="M900.102 215.07C900.452 215.23 900.792 215.4 901.142 215.58C900.802 215.41 900.452 215.24 900.102 215.07Z" fill="#FFC716"/>
<path d="M890.531 211.7C890.851 211.78 891.171 211.85 891.481 211.94C891.171 211.86 890.851 211.78 890.531 211.7Z" fill="#FFC716"/>
<path d="M885.75 210.74C886.1 210.79 886.44 210.85 886.79 210.91C886.45 210.85 886.1 210.79 885.75 210.74Z" fill="#FFC716"/>
<path d="M878.309 210.02C878.599 210.03 878.879 210.05 879.169 210.07C878.879 210.06 878.599 210.04 878.309 210.02Z" fill="#FFC716"/>
<path d="M883.309 210.4C883.659 210.44 883.999 210.49 884.339 210.53C883.999 210.48 883.649 210.44 883.309 210.4Z" fill="#FFC716"/>
<path d="M906 218.37C906.35 218.6 906.71 218.83 907.05 219.07C906.7 218.83 906.35 218.6 906 218.37Z" fill="#FFC716"/>
<path d="M863.48 211.05C864.4 210.88 865.331 210.73 866.281 210.59C865.341 210.72 864.4 210.87 863.48 211.05Z" fill="#FFC716"/>
<path d="M888.148 211.17C888.488 211.24 888.828 211.3 889.158 211.38C888.828 211.31 888.488 211.24 888.148 211.17Z" fill="#FFC716"/>
<path d="M919.77 231.78C921.37 234.04 922.84 236.47 924.18 239.08C922.84 236.48 921.37 234.05 919.77 231.78Z" fill="#FFC716"/>
<path d="M926.551 244.17C926.791 244.75 927.031 245.33 927.261 245.93C927.031 245.34 926.791 244.75 926.551 244.17Z" fill="#FFC716"/>
<path d="M927.512 246.61C927.742 247.22 927.972 247.84 928.192 248.47C927.972 247.84 927.742 247.23 927.512 246.61Z" fill="#FFC716"/>
<path d="M928.379 249.04C928.609 249.72 928.839 250.4 929.049 251.09C928.829 250.4 928.609 249.72 928.379 249.04Z" fill="#FFC716"/>
<path d="M912.25 223.2C912.62 223.54 912.98 223.88 913.33 224.23C912.97 223.88 912.61 223.53 912.25 223.2Z" fill="#FFC716"/>
<path d="M918.449 229.99C918.779 230.42 919.109 230.86 919.429 231.3C919.109 230.85 918.779 230.42 918.449 229.99Z" fill="#FFC716"/>
<path d="M908.941 220.43C909.921 221.17 910.861 221.97 911.781 222.79C910.861 221.97 909.911 221.18 908.941 220.43Z" fill="#FFC716"/>
<path d="M907.801 219.6C908.171 219.87 908.541 220.13 908.911 220.41C908.551 220.13 908.171 219.87 907.801 219.6Z" fill="#FFC716"/>
<path d="M856.73 433.83H911.73V399.71H960V343.67L955.54 339.55L856.73 433.83Z" fill="#FFC716"/>
<path d="M911.73 433.83V540H960V433.83H911.73Z" fill="#FFC716"/>
<path d="M876.06 297.3C876.06 297.3 788.28 299.87 787.18 298.77L732.77 397.56L736.219 403.82L799.68 519.03L788.479 540H851.229L787.919 434.66L876.07 297.3H876.06Z" fill="#FFC716"/>
<path d="M711.521 436.13L732.771 397.55L736.221 403.82L732.771 397.56L724.021 381.67C722.921 382.77 635.141 380.2 635.141 380.2L723.291 517.56L709.801 540H766.991L711.521 436.13Z" fill="#FFC716"/>
<path d="M544.251 221.73C527.511 253.97 513.071 297.51 506.391 349.32L506.411 349.35L697.241 348.5C704.081 307.74 716.791 262.79 735.601 220.87L544.271 221.72L544.241 221.74L544.251 221.73Z" fill="#FFC716"/>
<path d="M639.711 70.55L667.351 0H617.531L639.701 70.53L639.711 70.55Z" fill="#FCA700"/>
<path d="M277.048 403.21L225.808 403.33L195.738 472.74L216.658 540H245.268L286.708 434.21L277.048 403.21Z" fill="#FCA700"/>
<path d="M265.648 13.99L265.658 14L312.778 82.52L375.138 0H314.118L265.648 13.99Z" fill="#FCA700"/>
<path d="M134.901 137.39H100.781V228.26H134.901V137.39Z" fill="#FCA700"/>
<path d="M26.29 430.8H0V540H26.29V430.8Z" fill="#FCA700"/>
<path d="M557.771 477.5C557.771 477.5 557.771 477.44 557.771 477.41C557.751 454.69 550.191 436.44 537.351 424.09C531.481 418.4 524.421 413.85 516.571 410.36C512.611 408.58 508.431 407.06 504.051 405.8C483.771 411.93 467.611 424.29 459.301 444.19C455.381 453.6 453.191 464.6 453.191 477.52C453.191 490.44 455.381 501.09 459.241 510.37C464.651 523.34 473.411 533.08 484.471 540.01H523.751C528.991 537.07 533.751 533.61 537.921 529.56C550.431 517.42 557.781 500.27 557.781 477.51L557.771 477.5Z" fill="#FCA700"/>
<path d="M860.23 251.1H929.06C929.06 251.1 929.06 251.1 929.06 251.09C928.84 250.4 928.621 249.72 928.391 249.04C928.321 248.85 928.26 248.65 928.19 248.46C927.97 247.83 927.74 247.22 927.51 246.6C927.42 246.37 927.34 246.15 927.25 245.92C927.02 245.33 926.78 244.74 926.54 244.16C926.45 243.93 926.35 243.71 926.25 243.48C926 242.9 925.75 242.33 925.49 241.77C925.4 241.57 925.301 241.37 925.211 241.17C924.941 240.59 924.66 240.02 924.38 239.46C924.31 239.33 924.24 239.19 924.17 239.06C922.83 236.46 921.36 234.03 919.76 231.76C919.65 231.6 919.54 231.44 919.43 231.28C919.11 230.83 918.781 230.4 918.451 229.97C918.301 229.77 918.15 229.57 917.99 229.38C917.67 228.97 917.34 228.57 917.01 228.18C916.84 227.97 916.66 227.77 916.49 227.56C916.16 227.18 915.83 226.81 915.49 226.44C915.3 226.24 915.12 226.04 914.93 225.84C914.59 225.48 914.251 225.12 913.901 224.77C913.711 224.58 913.521 224.4 913.331 224.22C912.971 223.87 912.61 223.52 912.25 223.19C912.1 223.05 911.941 222.92 911.781 222.78C910.861 221.96 909.91 221.17 908.94 220.42C908.94 220.42 908.92 220.41 908.91 220.4C908.55 220.12 908.17 219.86 907.8 219.59C907.55 219.41 907.31 219.23 907.06 219.06C906.71 218.82 906.36 218.59 906.01 218.36C905.73 218.17 905.441 217.99 905.151 217.81C904.811 217.6 904.46 217.39 904.1 217.18C903.79 217 903.49 216.82 903.17 216.65C902.82 216.46 902.48 216.27 902.13 216.08C901.8 215.91 901.471 215.74 901.141 215.57C900.801 215.4 900.45 215.23 900.1 215.06C899.74 214.89 899.381 214.73 899.031 214.58C898.691 214.43 898.361 214.28 898.021 214.14C897.621 213.97 897.21 213.82 896.8 213.66C896.49 213.54 896.19 213.42 895.88 213.31C895.18 213.05 894.47 212.81 893.75 212.59C893.5 212.51 893.24 212.44 892.98 212.37C892.48 212.22 891.99 212.08 891.49 211.94C891.18 211.86 890.86 211.78 890.54 211.7C890.09 211.59 889.63 211.48 889.17 211.38C888.84 211.31 888.5 211.24 888.16 211.17C887.71 211.08 887.25 210.99 886.8 210.91C886.46 210.85 886.11 210.79 885.76 210.74C885.3 210.67 884.83 210.6 884.36 210.54C884.02 210.49 883.671 210.45 883.331 210.41C882.841 210.35 882.341 210.3 881.841 210.26C881.511 210.23 881.18 210.2 880.85 210.17C880.3 210.13 879.75 210.1 879.19 210.07C878.9 210.06 878.621 210.04 878.331 210.02C877.501 209.99 876.67 209.97 875.82 209.97C875.8 209.97 875.78 209.97 875.76 209.97C874.77 209.97 873.801 209.99 872.841 210.03C872.571 210.04 872.291 210.06 872.021 210.07C871.311 210.11 870.61 210.15 869.91 210.21C869.63 210.23 869.35 210.26 869.07 210.28C868.32 210.35 867.581 210.43 866.841 210.53C866.661 210.55 866.471 210.57 866.281 210.6C865.341 210.73 864.4 210.88 863.48 211.06C861.34 222.94 860.23 236.23 860.23 251.11V251.1Z" fill="#FCA700"/>
<path d="M960 399.71H911.73V433.83H960V399.71Z" fill="#FCA700"/>
<path d="M736.219 403.82L732.77 397.56L711.52 436.13L766.99 540H788.479L799.68 519.03L736.219 403.82Z" fill="#FCA700"/>
<path d="M856.071 45.23C867.741 50.44 881.661 52.92 896.741 52.92V52.98C911.521 52.98 925.041 50.56 936.361 45.6C943.001 42.69 948.901 38.9 953.811 34.13C956.101 31.91 958.161 29.48 960.001 26.84V0H934.231C933.761 2.23 933.111 4.32 932.321 6.24C928.351 15.69 920.531 21.46 910.911 24.14C906.421 25.4 901.801 26 896.511 26C893.381 26 890.331 25.78 887.401 25.34C886.361 25.18 885.341 25 884.331 24.78C883.391 24.58 882.461 24.36 881.561 24.11C880.951 23.94 880.351 23.76 879.761 23.57C879.671 23.54 879.591 23.51 879.501 23.48C878.881 23.27 878.281 23.06 877.681 22.82C869.761 19.76 863.501 14.38 860.101 6.25C859.301 4.32 858.661 2.24 858.201 0.01H822.871C824.451 14.76 830.261 25.74 839.051 34.14C843.911 38.73 849.621 42.39 856.081 45.24L856.071 45.23Z" fill="#FCA700"/>
</g>
<defs>
<clipPath id="clip0_287_59534">
<rect width="960" height="540" fill="white"/>
</clipPath>
</defs>
</svg>
