<svg width="960" height="540" viewBox="0 0 960 540" fill="none" xmlns="http://www.w3.org/2000/svg">
<g clip-path="url(#clip0_287_59168)">
<path d="M929.06 251.24C930.2 254.91 931.15 258.82 931.89 262.96H819.07C828.28 230.13 842.83 215.13 863.45 211.19C873.49 155.32 906.82 131.63 960 130.16V80.8302C953.56 84.0502 946.68 86.6502 939.46 88.6602C926.27 92.3702 912.62 94.1402 897.08 94.1402C881.54 94.1402 866.63 92.3702 852.98 88.5702C824.25 80.5802 801.34 63.6802 789.75 35.9102C785.41 25.4602 782.63 13.7202 781.83 -0.00976562H720.66L776.25 178.24H673.26L639.72 70.6702L636.01 80.0502H555.3L589.95 0.000234375H515.89L499.62 116.84H499.98H518.15H577.22L434.91 309.62L452.55 182.96H374.95L510.01 0.000234375H411.58L330.25 107.62L330.02 107.71L312.79 82.6702L254.62 159.65L254.39 159.74L172.83 41.1602L172.96 40.9202L265.66 14.1502L255.94 0.0102344H91.47L28.49 85.3102L40.37 0.000234375H0V137.52H100.78V82.5202L195.06 181.33L100.78 283.37V228.37H0V334.44H103.99V539.98H166.65L195.73 472.8L174.07 403.33H225.8L254.08 338H325.25L286.93 435.01L319.66 539.98H412.08C406.69 537.04 401.79 533.56 397.47 529.47C384.75 517.33 377.11 500.79 377.11 477.42C377.11 454.05 385.03 436.37 398.1 424.01C403.82 418.55 410.68 414.15 418.31 410.66C432.52 404.14 449.97 401.03 468.07 401.03C481 401.03 493.13 402.59 504.06 405.74C504.71 405.54 505.35 405.33 506.01 405.15C516.11 402.33 527.08 401.03 538.64 401.03C549.61 401.03 560.24 402.34 570.01 405.08C590.94 410.92 608.02 423.43 616.66 444.11C620.58 453.52 622.84 464.73 622.84 477.44C622.84 490.15 620.58 501.01 616.73 510.29C611.29 523.27 602.51 533.05 591.51 539.98H709.88L723.28 517.68L635.13 380.32C635.13 380.32 722.91 382.89 724.01 381.79L732.76 397.68L787.17 298.89C788.27 299.99 876.05 297.42 876.05 297.42L787.9 434.78L851.13 539.98H911.71V433.95H856.71L955.52 339.67L959.98 343.79V251.22H929.04L929.06 251.24ZM359.05 342.49L358.01 339.75C352.13 324.17 341.98 310.88 328.67 301.3C315.08 291.52 299.11 286.35 282.5 286.35C265.89 286.35 249.92 291.52 236.33 301.3C223.02 310.88 212.87 324.18 206.99 339.75L205.96 342.49H147.26L148.45 337.3C155.49 306.68 172.53 278.92 196.43 259.14C208.39 249.24 221.73 241.53 236.09 236.23C250.96 230.73 266.57 227.95 282.51 227.95C298.45 227.95 314.06 230.74 328.93 236.23C343.29 241.54 356.64 249.25 368.59 259.14C392.49 278.92 409.53 306.68 416.57 337.3L417.76 342.49H359.06H359.05ZM697.25 348.63L506.42 349.48L506.4 349.45C513.07 297.64 527.52 254.1 544.26 221.86L544.29 221.84L735.62 220.99C716.82 262.9 704.11 307.85 697.26 348.62L697.25 348.63Z" fill="#FFF5D4"/>
<path d="M452.549 182.96L461.759 116.84H462.119H499.609L515.889 0H510.009L374.949 182.96H452.549Z" fill="#FFE48F"/>
<path d="M490.41 182.96H452.91L462.12 116.84H461.76L452.55 182.96L434.91 309.62L577.22 116.84H518.14H499.98L490.77 182.96H490.41Z" fill="#FFE48F"/>
<path d="M462.12 116.84L452.91 182.96H490.41H490.77L499.98 116.84H499.61H462.12Z" fill="#FFE48F"/>
<path d="M635.999 80.07L639.709 70.68L617.489 0H589.949L555.289 80.07H635.999Z" fill="#FFE48F"/>
<path d="M639.711 70.68L673.251 178.25H776.241L720.661 0H667.401L639.711 70.68Z" fill="#FFE48F"/>
<path d="M639.708 70.68L667.398 0H617.488L639.708 70.68Z" fill="#FFF5D4"/>
<path d="M195.738 472.88L195.718 472.82L166.648 540H216.618L195.738 472.88Z" fill="#FFE48F"/>
<path d="M286.709 434.35L286.919 435.03L325.239 338.02H254.069L225.789 403.35H277.049L286.709 434.35Z" fill="#FFE48F"/>
<path d="M225.809 403.47L277.049 403.35H225.789H174.059L195.719 472.82L195.739 472.88L225.809 403.47Z" fill="#FFE48F"/>
<path d="M286.71 434.35L245.32 540H319.66L286.92 435.03L286.71 434.35Z" fill="#FFE48F"/>
<path d="M286.708 434.35L277.048 403.35L225.808 403.47L195.738 472.88L216.618 540H245.318L286.708 434.35Z" fill="#FFF5D4"/>
<path d="M312.78 82.6497L265.66 14.1396L172.95 40.9096L172.82 41.1396L254.39 159.73L254.62 159.64L312.79 82.6696L312.78 82.6497Z" fill="#FFE48F"/>
<path d="M314.59 0H255.93L265.65 14.13L314.59 0Z" fill="#FFE48F"/>
<path d="M312.791 82.67L330.021 107.71L330.251 107.62L411.581 0H375.241L312.781 82.65L312.791 82.67Z" fill="#FFE48F"/>
<path d="M265.648 14.13L265.658 14.14L312.778 82.65L375.238 0H314.588L265.648 14.13Z" fill="#FFF5D4"/>
<path d="M368.58 259.14C356.62 249.24 343.28 241.53 328.92 236.23C314.05 230.73 298.44 227.95 282.5 227.95C266.56 227.95 250.95 230.74 236.08 236.23C221.72 241.54 208.37 249.25 196.42 259.14C172.52 278.92 155.48 306.68 148.44 337.3L147.25 342.49H205.95L206.98 339.75C212.86 324.17 223.01 310.88 236.32 301.3C249.91 291.52 265.88 286.35 282.49 286.35C299.1 286.35 315.07 291.52 328.66 301.3C341.97 310.88 352.12 324.18 358 339.75L359.04 342.49H417.74L416.55 337.3C409.51 306.68 392.47 278.92 368.57 259.14H368.58Z" fill="#FFE48F"/>
<path d="M134.911 228.39H100.781V283.38L195.061 181.34L100.781 82.5303V137.52H134.911V228.39Z" fill="#FFE48F"/>
<path d="M100.78 137.52H0V228.39H100.78V137.52Z" fill="#FFE48F"/>
<path d="M134.901 137.52H100.781V228.39H134.901V137.52Z" fill="#FFF5D4"/>
<path d="M91.4683 0H40.3683L28.4883 85.31L91.4683 0Z" fill="#FFE48F"/>
<path d="M0 334.46V430.94H26.29V540H103.99V334.46H0Z" fill="#FFE48F"/>
<path d="M26.29 430.94H0V540H26.29V430.94Z" fill="#FFF5D4"/>
<path d="M852.978 88.5698C866.628 92.3798 881.538 94.1398 897.078 94.1398C912.618 94.1398 926.268 92.3698 939.458 88.6598C946.688 86.6498 953.558 84.0498 959.998 80.8298V26.9798C958.158 29.6098 956.088 32.0498 953.808 34.2698C948.898 39.0398 942.998 42.8298 936.358 45.7398C925.038 50.6998 911.518 53.1198 896.738 53.1198V53.0598C881.658 53.0598 867.738 50.5798 856.068 45.3698C849.608 42.5198 843.888 38.8598 839.038 34.2698C830.208 25.8498 824.398 14.8198 822.838 0.00976562H781.828C782.638 13.7398 785.408 25.4798 789.748 35.9298C801.338 63.6998 824.238 80.5998 852.978 88.5898V88.5698Z" fill="#FFE48F"/>
<path d="M856.072 45.36C867.742 50.57 881.662 53.05 896.742 53.05V53.11C911.522 53.11 925.042 50.69 936.362 45.73C943.002 42.82 948.902 39.03 953.812 34.26C956.102 32.04 958.162 29.61 960.002 26.97V0H934.262C933.782 2.29 933.132 4.41 932.322 6.38C928.352 15.83 920.532 21.6 910.912 24.28C906.422 25.54 901.802 26.14 896.512 26.14C891.222 26.14 886.192 25.54 881.562 24.25C871.812 21.54 864.042 15.81 860.102 6.38C859.282 4.41 858.642 2.29 858.172 0H822.852C824.412 14.82 830.222 25.84 839.052 34.26C843.912 38.85 849.622 42.51 856.082 45.36H856.072Z" fill="#FFF5D4"/>
<path d="M881.548 24.2402C886.188 25.5302 891.228 26.1302 896.498 26.1302C901.768 26.1302 906.408 25.5302 910.898 24.2702C920.518 21.5902 928.348 15.8302 932.308 6.37023C933.118 4.41023 933.778 2.28023 934.248 -0.00976562H858.148C858.618 2.28023 859.258 4.39023 860.078 6.37023C864.018 15.7902 871.788 21.5302 881.538 24.2402H881.548Z" fill="#FFE48F"/>
<path d="M616.729 510.31C620.589 501.03 622.839 490.17 622.839 477.46C622.839 464.75 620.579 453.54 616.659 444.13C608.019 423.44 590.939 410.94 570.009 405.1C560.239 402.35 549.609 401.05 538.639 401.05C527.079 401.05 516.109 402.36 506.009 405.17C505.349 405.35 504.709 405.56 504.059 405.76C508.429 407.02 512.609 408.53 516.559 410.3C524.409 413.79 531.469 418.34 537.339 424.03C550.199 436.4 557.769 454.68 557.769 477.44C557.769 477.47 557.769 477.5 557.769 477.54C557.769 477.58 557.769 477.6 557.769 477.63C557.769 500.39 550.419 517.54 537.909 529.68C533.799 533.67 529.119 537.09 523.979 540H591.509C602.509 533.07 611.289 523.28 616.729 510.31Z" fill="#FFE48F"/>
<path d="M459.22 510.5C455.37 501.22 453.17 490.57 453.17 477.65C453.17 464.73 455.36 453.73 459.28 444.32C467.59 424.41 483.75 412.05 504.03 405.93C508.41 407.19 512.59 408.71 516.55 410.49C524.4 413.98 531.46 418.53 537.33 424.22C550.18 436.57 557.73 454.82 557.75 477.54C557.75 477.51 557.75 477.48 557.75 477.44C557.75 454.68 550.19 436.39 537.32 424.03C531.45 418.34 524.39 413.79 516.54 410.3C512.59 408.52 508.41 407.02 504.04 405.76C493.11 402.61 480.98 401.05 468.05 401.05C449.96 401.05 432.5 404.16 418.29 410.68C410.66 414.17 403.8 418.57 398.08 424.03C385 436.4 377.09 454.08 377.09 477.44C377.09 500.8 384.72 517.35 397.45 529.49C401.77 533.58 406.67 537.06 412.06 540H484.22C473.26 533.08 464.58 523.38 459.21 510.5H459.22Z" fill="#FFE48F"/>
<path d="M557.771 477.64C557.771 477.64 557.771 477.58 557.771 477.55C557.751 454.83 550.191 436.58 537.351 424.23C531.481 418.54 524.421 413.99 516.571 410.5C512.611 408.72 508.431 407.2 504.051 405.94C483.771 412.07 467.611 424.43 459.301 444.33C455.381 453.74 453.191 464.74 453.191 477.66C453.191 490.58 455.381 501.23 459.241 510.51C464.621 523.39 473.301 533.09 484.251 540.01H523.991C529.131 537.1 533.811 533.69 537.921 529.69C550.431 517.55 557.781 500.4 557.781 477.64H557.771Z" fill="#FFF5D4"/>
<path d="M544.251 221.87C527.511 254.11 513.071 297.65 506.391 349.46L506.411 349.49L697.241 348.64C704.081 307.88 716.791 262.93 735.601 221.01L544.271 221.86L544.241 221.88L544.251 221.87Z" fill="#FFE48F"/>
<path d="M863.449 211.19C863.449 211.19 863.469 211.19 863.479 211.19C864.399 211.02 865.329 210.87 866.279 210.73C866.469 210.7 866.659 210.68 866.849 210.66C867.579 210.57 868.319 210.48 869.069 210.41C869.349 210.38 869.629 210.36 869.919 210.34C870.609 210.28 871.309 210.24 872.009 210.2C872.289 210.19 872.559 210.17 872.839 210.16C873.799 210.12 874.769 210.1 875.759 210.1C876.619 210.1 877.479 210.12 878.319 210.15C878.599 210.16 878.879 210.18 879.159 210.19C879.719 210.22 880.289 210.25 880.849 210.29C881.179 210.32 881.499 210.35 881.829 210.38C882.329 210.43 882.839 210.47 883.329 210.53C883.669 210.57 884.009 210.61 884.349 210.66C884.829 210.72 885.299 210.79 885.769 210.87C886.109 210.92 886.449 210.98 886.789 211.04C887.249 211.12 887.709 211.21 888.169 211.3C888.499 211.37 888.839 211.43 889.169 211.51C889.639 211.61 890.099 211.73 890.559 211.84C890.869 211.92 891.179 211.99 891.489 212.07C891.999 212.21 892.509 212.36 893.019 212.51C893.269 212.58 893.509 212.65 893.759 212.73C894.479 212.96 895.189 213.2 895.899 213.45C896.199 213.56 896.499 213.68 896.799 213.8C897.219 213.96 897.629 214.12 898.049 214.29C898.389 214.43 898.719 214.58 899.059 214.73C899.419 214.89 899.779 215.05 900.139 215.22C900.489 215.38 900.829 215.55 901.169 215.72C901.509 215.89 901.839 216.06 902.169 216.23C902.519 216.41 902.859 216.6 903.209 216.79C903.519 216.97 903.829 217.15 904.139 217.33C904.489 217.53 904.839 217.74 905.179 217.95C905.469 218.13 905.759 218.32 906.039 218.51C906.389 218.74 906.739 218.97 907.089 219.21C907.339 219.39 907.589 219.57 907.839 219.75C908.209 220.01 908.579 220.28 908.939 220.55C908.959 220.56 908.969 220.58 908.989 220.59C909.959 221.33 910.889 222.11 911.809 222.93C911.969 223.07 912.129 223.2 912.279 223.35C912.649 223.69 913.009 224.03 913.369 224.38C913.559 224.56 913.749 224.75 913.939 224.93C914.289 225.28 914.629 225.64 914.969 226C915.159 226.2 915.349 226.4 915.529 226.6C915.869 226.97 916.199 227.34 916.529 227.72C916.709 227.92 916.879 228.13 917.049 228.34C917.379 228.73 917.709 229.13 918.029 229.54C918.179 229.74 918.339 229.93 918.489 230.13C918.819 230.56 919.149 231 919.479 231.45C919.589 231.61 919.699 231.77 919.809 231.92C921.409 234.18 922.879 236.62 924.219 239.22C924.289 239.35 924.359 239.48 924.429 239.62C924.709 240.18 924.989 240.76 925.259 241.33C925.349 241.53 925.449 241.73 925.539 241.93C925.799 242.49 926.049 243.06 926.299 243.64C926.399 243.86 926.489 244.09 926.589 244.32C926.829 244.9 927.069 245.48 927.299 246.08C927.389 246.3 927.469 246.53 927.559 246.76C927.789 247.37 928.019 247.99 928.239 248.62C928.309 248.81 928.369 249 928.429 249.19C928.659 249.87 928.889 250.55 929.099 251.24C929.099 251.24 929.099 251.24 929.099 251.25H960.039V130.18C906.859 131.65 873.529 155.34 863.489 211.21L863.449 211.19Z" fill="#FFE48F"/>
<path d="M819.07 262.96H931.89C931.16 258.81 930.2 254.91 929.06 251.24H860.23C860.23 236.36 861.34 223.07 863.48 211.19C863.47 211.19 863.46 211.19 863.45 211.19C842.83 215.12 828.28 230.13 819.07 262.96Z" fill="#FFE48F"/>
<path d="M888.16 211.31C888.49 211.38 888.83 211.44 889.16 211.52C888.83 211.45 888.5 211.38 888.16 211.31Z" fill="#FFE48F"/>
<path d="M912.25 223.34C912.62 223.68 912.98 224.02 913.34 224.37C912.98 224.02 912.62 223.67 912.25 223.34Z" fill="#FFE48F"/>
<path d="M924.391 239.61C924.671 240.17 924.951 240.75 925.221 241.32C924.951 240.74 924.671 240.17 924.391 239.61Z" fill="#FFE48F"/>
<path d="M880.84 210.3C881.17 210.32 881.49 210.36 881.82 210.39C881.49 210.36 881.17 210.33 880.84 210.3Z" fill="#FFE48F"/>
<path d="M863.48 211.19C864.4 211.02 865.331 210.87 866.281 210.73C865.341 210.86 864.4 211.01 863.48 211.19Z" fill="#FFE48F"/>
<path d="M866.852 210.66C867.582 210.57 868.322 210.48 869.072 210.41C868.322 210.48 867.592 210.56 866.852 210.66Z" fill="#FFE48F"/>
<path d="M869.91 210.34C870.6 210.28 871.3 210.24 872 210.2C871.3 210.23 870.6 210.28 869.91 210.34Z" fill="#FFE48F"/>
<path d="M872.828 210.16C873.788 210.12 874.758 210.1 875.748 210.1C874.768 210.1 873.798 210.12 872.828 210.16Z" fill="#FFE48F"/>
<path d="M902.141 216.23C902.491 216.41 902.831 216.6 903.181 216.79C902.841 216.6 902.491 216.41 902.141 216.23Z" fill="#FFE48F"/>
<path d="M926.551 244.31C926.791 244.89 927.031 245.47 927.261 246.07C927.031 245.48 926.791 244.89 926.551 244.31Z" fill="#FFE48F"/>
<path d="M907.809 219.74C908.179 220 908.549 220.27 908.909 220.54C908.549 220.26 908.179 220 907.809 219.74Z" fill="#FFE48F"/>
<path d="M898.02 214.29C898.36 214.43 898.69 214.58 899.03 214.73C898.7 214.58 898.36 214.43 898.02 214.29Z" fill="#FFE48F"/>
<path d="M893 212.51C893.25 212.58 893.49 212.65 893.74 212.73C893.5 212.65 893.25 212.59 893 212.51Z" fill="#FFE48F"/>
<path d="M895.879 213.45C896.179 213.56 896.479 213.68 896.779 213.8C896.479 213.69 896.189 213.56 895.879 213.45Z" fill="#FFE48F"/>
<path d="M928.379 249.17C928.609 249.85 928.839 250.53 929.049 251.22C928.829 250.53 928.609 249.84 928.379 249.17Z" fill="#FFE48F"/>
<path d="M918.449 230.12C918.779 230.55 919.109 230.99 919.439 231.44C919.119 230.99 918.789 230.56 918.449 230.12Z" fill="#FFE48F"/>
<path d="M860.231 251.24H929.061C929.061 251.24 929.061 251.24 929.061 251.23C928.841 250.54 928.621 249.85 928.391 249.18C928.331 248.99 928.261 248.8 928.201 248.61C927.981 247.98 927.751 247.36 927.521 246.75C927.431 246.52 927.351 246.3 927.261 246.07C927.031 245.48 926.791 244.89 926.551 244.31C926.461 244.08 926.361 243.86 926.261 243.63C926.011 243.05 925.761 242.48 925.501 241.92C925.411 241.72 925.311 241.52 925.221 241.32C924.951 240.74 924.671 240.17 924.391 239.61C924.321 239.48 924.251 239.35 924.181 239.21C922.841 236.61 921.371 234.17 919.771 231.91C919.661 231.75 919.551 231.59 919.441 231.44C919.121 230.99 918.791 230.56 918.451 230.12C918.301 229.92 918.151 229.72 917.991 229.53C917.671 229.12 917.341 228.72 917.011 228.33C916.841 228.12 916.661 227.92 916.491 227.71C916.161 227.33 915.831 226.96 915.491 226.59C915.301 226.39 915.121 226.19 914.931 225.99C914.591 225.63 914.251 225.27 913.901 224.92C913.711 224.73 913.521 224.55 913.331 224.37C912.971 224.02 912.611 223.67 912.241 223.34C912.081 223.2 911.921 223.06 911.771 222.92C910.851 222.1 909.921 221.32 908.951 220.58C908.931 220.57 908.921 220.55 908.901 220.54C908.541 220.26 908.171 220 907.801 219.74C907.551 219.56 907.301 219.38 907.051 219.2C906.701 218.96 906.351 218.73 906.001 218.5C905.711 218.31 905.431 218.12 905.141 217.94C904.801 217.73 904.451 217.52 904.101 217.32C903.791 217.14 903.481 216.96 903.171 216.78C902.831 216.59 902.481 216.4 902.131 216.22C901.801 216.05 901.471 215.88 901.131 215.71C900.791 215.54 900.451 215.37 900.101 215.21C899.741 215.04 899.381 214.88 899.021 214.72C898.691 214.57 898.351 214.42 898.011 214.28C897.601 214.11 897.181 213.95 896.761 213.79C896.461 213.68 896.171 213.55 895.861 213.44C895.161 213.18 894.441 212.94 893.721 212.72C893.481 212.64 893.231 212.58 892.981 212.5C892.471 212.35 891.971 212.2 891.451 212.06C891.141 211.98 890.831 211.91 890.521 211.83C890.061 211.72 889.601 211.6 889.131 211.5C888.801 211.43 888.471 211.36 888.131 211.29C887.671 211.2 887.211 211.11 886.751 211.03C886.411 210.97 886.071 210.91 885.731 210.86C885.261 210.79 884.791 210.72 884.311 210.65C883.971 210.6 883.631 210.56 883.291 210.52C882.791 210.46 882.291 210.41 881.791 210.37C881.461 210.34 881.141 210.31 880.811 210.28C880.251 210.24 879.691 210.21 879.121 210.18C878.841 210.17 878.561 210.15 878.281 210.14C877.431 210.11 876.581 210.09 875.721 210.09C874.741 210.09 873.771 210.11 872.801 210.15C872.521 210.16 872.251 210.18 871.971 210.19C871.271 210.23 870.571 210.27 869.881 210.33C869.601 210.35 869.311 210.38 869.031 210.4C868.281 210.47 867.551 210.55 866.811 210.65C866.621 210.67 866.431 210.69 866.241 210.72C865.301 210.85 864.361 211 863.441 211.18C861.301 223.06 860.191 236.35 860.191 251.23L860.231 251.24Z" fill="#FFF5D4"/>
<path d="M856.73 433.97H911.73V399.85H960V343.81L955.54 339.69L856.73 433.97Z" fill="#FFE48F"/>
<path d="M911.73 433.97V540H960V433.97H911.73Z" fill="#FFE48F"/>
<path d="M960 399.85H911.73V433.97H960V399.85Z" fill="#FFF5D4"/>
<path d="M876.06 297.44C876.06 297.44 788.28 300.01 787.18 298.91L732.77 397.7L799.68 519.18L788.56 540.01H851.15L787.919 434.81L876.07 297.45L876.06 297.44Z" fill="#FFE48F"/>
<path d="M711.521 436.27L732.771 397.69L724.021 381.8C722.921 382.9 635.141 380.33 635.141 380.33L723.291 517.69L709.891 539.99H766.931L711.531 436.26L711.521 436.27Z" fill="#FFE48F"/>
<path d="M732.77 397.69L711.52 436.27L766.919 540H788.549L799.68 519.17L732.77 397.69Z" fill="#FFF5D4"/>
</g>
<defs>
<clipPath id="clip0_287_59168">
<rect width="960" height="540" fill="white"/>
</clipPath>
</defs>
</svg>
