<svg width="278" height="90" viewBox="0 0 278 90" fill="none" xmlns="http://www.w3.org/2000/svg">
<g clip-path="url(#clip0_448_5935)">
<path d="M19.7902 74.52C19.7202 78.43 20.8402 80.38 21.7502 80.28C22.6802 80.21 23.4302 78.39 23.8302 74.77C24.4202 69.63 25.5502 64.41 27.4102 58.99C28.3302 56.28 29.4902 53.54 30.8302 50.73C32.2602 47.96 33.8002 45.08 35.8102 42.27C36.0802 41.86 36.3402 41.46 36.6002 41.07C36.8802 40.7 37.1502 40.33 37.4202 39.97C37.9502 39.25 38.4602 38.57 38.9402 37.92C39.9902 36.67 40.9302 35.53 41.8202 34.49C42.7602 33.49 43.6202 32.57 44.4302 31.7C45.2702 30.86 46.1002 30.11 46.8702 29.37C47.2602 29 47.6302 28.63 48.0302 28.29C48.4302 27.96 48.8402 27.63 49.2302 27.3C50.0302 26.65 50.8302 25.98 51.6702 25.33C52.5502 24.73 53.4602 24.11 54.4302 23.45C54.9202 23.13 55.4102 22.77 55.9502 22.46C56.5002 22.15 57.0602 21.84 57.6502 21.51C61.5702 19.17 66.5402 17.05 71.8102 15.2C73.1502 14.78 74.4902 14.35 75.8502 13.92C77.2002 13.48 78.6102 13.2 79.9802 12.83C82.7202 12.07 85.5302 11.59 88.2302 11.08C88.9102 10.96 89.5702 10.81 90.2402 10.72C90.9102 10.63 91.5802 10.54 92.2302 10.46C93.5402 10.29 94.8302 10.12 96.0702 9.94996C97.3102 9.75996 98.5302 9.68996 99.7002 9.58996C100.87 9.49996 101.99 9.40996 103.05 9.31996C105.16 9.11996 107.1 9.06996 108.73 8.99996C110.36 8.92996 111.68 8.87996 112.63 8.83996C113.75 8.78996 114.88 8.71996 116 8.61996C118.01 8.44996 121.71 8.07996 126.63 7.81996C131.55 7.53996 137.66 7.07996 144.49 6.87996C158.14 6.25996 174.62 6.17996 189.85 6.57996C195.23 6.67996 200.1 6.78996 204.48 6.96996C208.86 7.11996 212.76 7.24996 216.21 7.42996C219.65 7.59996 222.64 7.73996 225.2 7.86996C227.76 8.01996 229.89 8.14996 231.63 8.25996C248.04 9.22996 260.31 9.94996 272.35 10.66C278.95 11.07 279.34 8.17996 272.75 7.06996C260.76 5.11996 248.47 3.70996 231.97 2.64996C225.56 2.23996 212.24 0.669956 193.33 0.0699561C190.25 -0.0200439 187.17 -0.0300439 184.11 0.0399561C177.51 0.299956 170.43 0.339956 163.52 0.599956C160.06 0.689956 156.65 0.779956 153.36 0.859956C150.07 0.979956 146.9 1.09996 143.94 1.20996C138.02 1.36996 132.92 1.65996 129.3 1.81996C125.68 1.97996 123.54 2.06996 123.54 2.06996C123.54 2.06996 122.74 2.10996 121.31 2.17996C119.87 2.27996 117.8 2.42996 115.24 2.60996C112.68 2.78996 109.64 3.00996 106.28 3.24996C104.6 3.33996 102.81 3.57996 100.98 3.76996C100.06 3.86996 99.1202 3.96996 98.1802 4.06996C97.2302 4.15996 96.2702 4.27996 95.3002 4.44996C87.5402 5.47996 79.1702 7.40996 71.6102 9.97996C64.0402 12.53 57.3702 15.88 52.6502 18.78C45.5602 23.22 40.9602 27.5 37.6902 30.91C36.1402 32.7 34.7502 34.15 33.7402 35.55C32.6802 36.91 31.8002 38.04 31.1302 39.09C28.9502 42.16 27.3002 45.33 25.8202 48.37C24.4302 51.45 23.2702 54.46 22.4102 57.42C20.6702 63.34 19.8602 69 19.7402 74.51L19.7902 74.52Z" fill="#101214"/>
<path d="M3.40034 57.95C2.04034 56.74 -0.619664 58.77 0.180336 60.4C1.31034 62.71 2.71034 64.98 4.75034 67.71C7.21034 70.69 8.35034 71.04 9.87034 73.17C11.2103 74.93 12.8203 77.44 14.2203 79.7C14.9103 80.84 15.5503 81.91 16.0803 82.79C16.1503 82.94 16.4703 83.39 16.7003 83.75C16.9503 84.12 17.1803 84.47 17.3903 84.78C17.8203 85.43 18.1803 85.96 18.4303 86.34C18.7303 86.8 19.0603 87.23 19.3803 87.64C19.5403 87.85 19.7503 88.11 20.8803 89.56C21.5103 88.87 22.6403 87.64 24.1203 86.03C24.8103 85.29 25.5903 84.45 26.4203 83.55C26.8603 83.06 27.3403 82.54 27.8403 81.98C29.8603 79.78 32.3403 77.18 34.7603 74.87C38.3103 71.23 40.5103 68.98 41.6603 67.81C44.3603 65.02 46.1403 62.71 47.6803 60.23C48.5203 58.87 46.4503 56.83 45.1003 57.7C42.6503 59.29 40.3803 61.12 37.6403 63.87C36.5803 64.94 33.8103 66.63 30.6103 69.7C30.0903 70.2 29.6203 70.75 29.2103 71.35C27.4303 73.94 25.0903 76.61 23.1803 78.64C22.8003 79.04 22.4403 79.41 22.1203 79.75C22.0003 79.86 21.9003 79.96 21.8203 80.05C21.6503 80.21 21.5503 80.28 21.5503 80.28L21.4303 80.4L13.3003 69.67C10.9903 66.64 9.88034 65.19 9.19034 64.29C7.11034 61.59 5.29034 59.64 3.37034 57.93L3.40034 57.95Z" fill="#101214"/>
</g>
<defs>
<clipPath id="clip0_448_5935">
<rect width="277.77" height="89.57" fill="white"/>
</clipPath>
</defs>
</svg>
