<svg width="65" height="72" viewBox="0 0 65 72" fill="none" xmlns="http://www.w3.org/2000/svg">
<g clip-path="url(#clip0_448_5739)">
<path d="M5.93006 4.16999C6.32006 1.15999 3.18006 -0.0700057 1.97006 3.35999C1.26006 5.77999 0.820064 8.41999 0.910064 11.32C1.01006 14.21 1.66006 17.37 3.14006 20.58C4.93006 24.17 6.69006 25.97 8.19006 27.46C9.73006 28.93 11.1201 30.05 13.1801 31.65C14.9601 32.96 17.1501 34.37 19.7401 35.44C21.0601 35.93 22.4201 36.43 23.9701 36.63C25.5001 36.84 27.1701 36.89 28.9601 36.28C29.4101 36.09 29.8501 35.93 30.2701 35.67C30.6901 35.38 31.1101 35.11 31.4801 34.76C31.8301 34.39 32.1701 34.01 32.4601 33.61C32.7001 33.2 32.9301 32.77 33.1401 32.34C33.4301 31.52 33.7001 30.65 33.7301 29.94C33.7701 29.57 33.8001 29.21 33.8201 28.84C33.8001 28.43 33.7801 28.03 33.7301 27.63C33.5001 26.03 32.7301 24.66 31.9101 23.75C31.0901 22.82 30.2401 22.26 29.6101 21.93C28.8601 21.54 28.0501 21.26 27.2001 21.17C26.4501 21.06 25.3401 21.05 24.0001 21.41C23.3301 21.59 22.6201 21.9 21.9301 22.33C21.6001 22.56 21.2201 22.79 20.9201 23.09C20.7701 23.24 20.6101 23.39 20.4501 23.54L20.2201 23.77L20.0701 23.96C19.6701 24.47 19.2501 25.01 18.8001 25.58C18.3901 26.2 18.0001 26.9 17.5901 27.61C17.2601 28.39 16.8901 29.19 16.6401 30.08C16.4301 30.99 16.1801 31.92 16.1801 32.91C16.0701 33.9 16.2201 34.89 16.3301 35.9C16.4201 36.39 16.5601 36.87 16.6801 37.35C16.7501 37.59 16.8001 37.84 16.8801 38.08L17.1501 38.77C17.8301 40.65 18.8701 42.27 19.9701 43.82C22.2301 46.85 24.9301 49.38 27.5901 51.63C31.4301 54.7 34.7201 56.8 37.3301 58.42C39.9501 60.03 41.9101 61.14 43.2601 61.89C49.6401 65.4 54.6701 67.43 59.6701 69.16C62.4101 70.1 63.7001 67.49 61.2501 65.91C56.8001 63.04 52.1601 60.44 46.0001 56.99C44.8001 56.32 43.0601 55.1 40.8201 53.48C38.5901 51.85 35.8501 49.81 32.8201 47.38C31.8201 46.59 30.8301 45.83 29.8201 45.11C27.6501 43.55 25.5301 41.61 24.0101 39.48C23.2201 38.43 22.6901 37.32 22.2701 36.25C22.1601 35.71 21.9101 35.19 21.9101 34.68C21.8801 34.43 21.8501 34.17 21.8201 33.93C21.8301 33.69 21.8501 33.45 21.8601 33.21C21.9601 31.32 22.9301 29.78 23.7201 28.75C23.9301 28.5 24.1201 28.27 24.2901 28.07C24.3701 27.97 24.4501 27.88 24.5201 27.79C24.5801 27.73 24.6201 27.71 24.6601 27.67C24.8001 27.52 24.9001 27.49 24.9001 27.49C24.9001 27.5 25.0101 27.38 25.2601 27.29C25.5001 27.19 25.8901 27.08 26.4101 27.17C26.6701 27.21 26.9501 27.3 27.2001 27.47C27.4601 27.62 27.6901 27.83 27.8401 28.1C27.9901 28.36 28.1201 28.65 28.1301 29.03C28.1301 29.24 28.1001 29.53 28.1001 29.78C28.0601 30.01 28.0001 30.21 27.9501 30.4C27.7801 30.71 27.6601 30.96 27.3701 31.13C27.0601 31.3 26.6401 31.5 26.0301 31.54C24.8601 31.67 23.3801 31.41 22.0001 30.95C19.2201 30.03 16.7801 28.41 15.1501 27.08C12.6801 25.04 11.1901 23.16 10.1801 21.69C9.15006 20.21 8.62006 19.1 8.22006 18.26C5.83006 13.1 5.62006 8.55999 5.91006 4.19999L5.93006 4.16999Z" fill="#101214"/>
<path d="M58.57 47.5999C57.9 46.7999 54.76 47.9699 54.78 49.0099C54.8 50.4899 55.06 51.9499 55.68 53.6999C56.55 55.6299 57.38 55.8799 57.77 57.2399C58.16 58.3599 58.44 59.9599 58.5 61.2799C58.52 61.6199 58.52 61.9199 58.5 62.1999C58.5 62.4899 58.46 62.7299 58.43 62.9299C58.41 63.0199 58.4 63.1499 58.38 63.1999C58.35 63.2299 58.33 63.2699 58.31 63.2999C58.26 63.3599 58.23 63.3999 58.2 63.3799C58.17 63.3799 58.16 63.3799 58.17 63.3799C58.2 63.3799 58.26 63.4199 58.29 63.4699C58.33 63.5399 58.36 63.6199 58.23 63.7099C58.23 63.7499 57.8 63.8499 57.47 63.9099C57.28 63.9399 57.08 63.9699 56.88 63.9899C56.66 64.0099 56.45 64.0199 56.23 64.0399C55.34 64.0899 54.36 64.0699 53.4 63.9899C50.68 63.9299 48.93 63.8399 48.03 63.8099C45.89 63.7499 44.26 64.0199 42.67 64.6099C41.79 64.9299 41.72 67.8399 42.56 68.2199C44.1 68.8999 45.67 69.2999 47.79 69.4199C48.63 69.4499 50.29 70.3399 52.8 70.5599C53.21 70.5899 53.62 70.5599 54.04 70.4299C54.94 70.1599 55.9 69.9899 56.9 69.7999C57.38 69.7199 57.91 69.6099 58.4 69.5199C58.66 69.4599 58.91 69.3999 59.16 69.3499C59.4 69.2999 59.77 69.1799 60.05 69.0999C61.26 68.7099 62.23 68.0699 62.77 67.4999C63.04 67.2199 63.22 66.9499 63.35 66.7799C63.47 66.5999 63.52 66.4999 63.52 66.4999C63.52 66.4999 63.6 66.3399 63.73 66.0599C63.86 65.7699 63.99 65.3299 64.1 64.7799C64.14 64.4999 64.18 64.1899 64.2 63.8599C64.2 63.5499 64.2 63.2299 64.18 62.8899C64.17 62.5299 64.12 62.3199 64.09 62.0099C64.06 61.7099 64 61.4399 63.95 61.1599C63.51 58.8999 62.7 56.6699 62.25 55.3099C61.52 53.3199 61.17 52.3599 60.96 51.7699C60.29 50.0099 59.53 48.7299 58.58 47.5999H58.57Z" fill="#101214"/>
</g>
<defs>
<clipPath id="clip0_448_5739">
<rect width="63.31" height="69.57" fill="white" transform="translate(0.900391 1)"/>
</clipPath>
</defs>
</svg>
