<svg width="46" height="68" viewBox="0 0 46 68" fill="none" xmlns="http://www.w3.org/2000/svg">
<g clip-path="url(#clip0_448_5917)">
<path d="M5.97957 63.2901C4.87957 63.6801 4.27957 64.5901 4.31957 65.5401C4.33957 66.0001 4.53957 66.4501 4.94957 66.7801C5.35957 67.1001 5.96957 67.3601 6.76957 67.2601C9.00957 67.0601 11.5496 66.2601 13.6296 64.4001C15.7296 62.5801 17.2496 59.8901 17.9096 56.8701C18.2496 55.1401 18.2796 53.7401 18.1996 52.5701C18.1396 51.3901 17.9596 50.4301 17.7696 49.5501C17.3596 47.7901 16.9196 46.3501 16.2296 44.2401C15.5896 42.4701 14.6696 40.4101 13.0696 38.4401C12.2496 37.4701 11.2196 36.5201 9.89957 35.8301C9.56957 35.6601 9.23957 35.4901 8.85957 35.3701C8.47957 35.2501 8.14957 35.1101 7.68957 35.0501C6.84957 34.8901 5.89957 34.8901 5.01957 35.1101C3.24957 35.5101 1.74957 36.8301 0.979569 38.2201C0.189569 39.6001 -0.0904305 41.0901 0.0295695 42.4901C0.139569 43.8801 0.689569 45.1901 1.41957 46.0901C1.75957 46.5701 2.13957 46.9101 2.48957 47.2001C2.83957 47.5101 3.15957 47.7101 3.42957 47.8701L3.91957 48.1401C4.08957 48.2301 4.25957 48.3101 4.35957 48.3401C4.59957 48.4301 4.83957 48.5101 5.08957 48.5801C5.52957 48.7001 6.13957 48.9301 6.95957 49.0301C7.36957 49.0901 7.81957 49.1601 8.29957 49.2401C8.78957 49.2601 9.32957 49.2801 9.88957 49.3001C12.1496 49.3001 14.9596 48.7101 17.5596 47.3701C20.1796 46.0501 22.5796 44.0801 24.6896 41.9001C26.8096 39.7101 28.6596 37.2701 30.2896 34.8601C32.4996 31.4001 33.9096 28.4201 34.9696 26.0501C36.0196 23.6801 36.6496 21.8701 37.0996 20.6401C39.0696 14.7801 39.6796 10.0601 39.2996 5.39014C38.9996 2.77014 36.0796 3.03014 35.6896 5.23014C34.8296 9.32014 33.6496 13.4001 31.7896 18.7901C31.0396 20.8701 28.7396 24.9801 25.3496 30.3401C24.7996 31.2201 24.2796 32.1001 23.7996 33.0001C22.7696 34.9501 21.4096 36.9101 19.8696 38.5501C18.3296 40.2001 16.5996 41.5101 14.9896 42.3001C13.3796 43.1201 11.8996 43.4001 10.8796 43.4201C10.6196 43.4201 10.3896 43.4601 10.1896 43.4501C9.98957 43.4301 9.81957 43.4201 9.67957 43.4001C9.39957 43.3801 9.24957 43.3601 9.24957 43.3601C9.24957 43.3601 9.01957 43.3601 8.61957 43.2701C8.41957 43.2301 8.16957 43.1801 7.88957 43.1301C7.59957 43.0701 7.28957 42.9301 6.92957 42.8301C6.76957 42.7701 6.51957 42.7101 6.41957 42.6501C6.33957 42.5901 6.23957 42.5601 6.15957 42.5101C6.03957 42.3901 5.89957 42.3101 5.83957 42.1501C5.65957 41.9001 5.62957 41.2501 5.88957 40.7801C6.01957 40.5301 6.11957 40.4201 6.29957 40.3301C6.46957 40.2401 6.62957 40.1601 6.87957 40.2301C6.97957 40.2101 7.17957 40.2901 7.35957 40.3401C7.54957 40.3901 7.72957 40.5101 7.91957 40.5901C8.29957 40.8301 8.68957 41.1001 9.04957 41.4801C10.5296 42.9601 11.4596 45.1501 11.9396 46.7401C12.6796 49.1901 12.7796 51.1301 12.7696 52.5501C12.7296 53.9801 12.5996 54.9401 12.4196 55.6401C11.4596 59.9501 9.14957 62.1601 5.96957 63.2901H5.97957Z" fill="#101214"/>
<path d="M21.9591 11.3201C21.5691 12.2001 23.9291 14.5801 24.8091 14.2001C26.0591 13.6601 27.1891 12.9101 28.4191 11.7401C29.6791 10.2801 29.5391 9.46007 30.5191 8.63007C31.2991 7.89007 32.5391 7.07007 33.6091 6.55007C33.8791 6.41007 34.1391 6.30007 34.3691 6.22007C34.4791 6.18007 34.6091 6.13007 34.6991 6.10007C34.7791 6.09007 34.8591 6.08007 34.9291 6.06007C34.9991 6.06007 35.0891 6.03007 35.1191 6.05007C35.1391 6.07007 35.1491 6.09007 35.1691 6.11007C35.1991 6.15007 35.2091 6.19007 35.2191 6.22007C35.2191 6.25007 35.2191 6.26007 35.2191 6.24007C35.1891 6.19007 35.2591 5.96007 35.4591 6.00007C35.4791 6.00007 35.4891 6.00007 35.5691 6.09007C35.6391 6.18007 35.6691 6.18007 35.7791 6.35007C35.9691 6.63007 36.1591 6.95007 36.3491 7.31007C36.7191 8.02007 37.0691 8.84007 37.3591 9.66007C38.3191 11.9301 38.9091 13.4201 39.2191 14.1801C39.9691 15.9801 40.8391 17.2201 41.9791 18.3001C42.6091 18.9001 45.2891 17.7701 45.3091 16.9101C45.3491 15.3601 45.1291 13.8901 44.4291 12.0901C44.1391 11.3801 44.3191 9.64007 43.5691 7.47007C43.4391 7.11007 43.2491 6.79007 42.9791 6.49007C42.3991 5.85007 41.8791 5.12007 41.3291 4.36007C41.0491 3.97007 40.7791 3.58007 40.5091 3.20007C40.3391 2.97007 40.1691 2.75007 39.9991 2.54007C39.8391 2.33007 39.5891 2.09007 39.3991 1.87007C38.5891 1.00007 37.7091 0.490067 37.0391 0.250067C36.7091 0.130067 36.4191 0.0900672 36.2391 0.0400672C36.0491 6.72452e-05 35.9391 6.72461e-05 35.9391 6.72461e-05C35.9391 6.72461e-05 35.3091 -0.0799327 34.3091 0.130067C34.0591 0.200067 33.7891 0.280067 33.5091 0.370067C33.2291 0.500067 32.9391 0.630067 32.6291 0.770067C32.2991 0.910067 32.1191 1.06007 31.8491 1.21007C31.5791 1.37007 31.3691 1.52007 31.1591 1.67007C29.4291 2.90007 27.8791 4.41007 26.9191 5.30007C25.5391 6.65007 24.8691 7.30007 24.4591 7.70007C23.2491 8.92007 22.4991 10.0501 21.9491 11.2901L21.9591 11.3201Z" fill="#101214"/>
</g>
<defs>
<clipPath id="clip0_448_5917">
<rect width="45.5" height="67.28" fill="white"/>
</clipPath>
</defs>
</svg>
