<svg width="190" height="72" viewBox="0 0 190 72" fill="none" xmlns="http://www.w3.org/2000/svg">
<g clip-path="url(#clip0_448_5857)">
<path d="M1.1003 59.5799C0.900299 60.5099 0.770299 61.3399 0.710299 62.0599C0.670299 62.7799 0.700299 63.3999 0.770299 63.8999C0.920299 64.8999 1.2703 65.4499 1.7203 65.5399C2.1703 65.6299 2.7303 65.2799 3.2903 64.4699C3.5703 64.0699 3.8503 63.5399 4.1303 62.9099C4.4303 62.2799 4.7203 61.5399 4.9903 60.6799C6.6203 55.8199 8.6603 50.9799 11.6303 46.2999C13.1203 43.9699 14.8503 41.6899 16.9203 39.5699C17.9403 38.4899 19.0803 37.5099 20.2803 36.5299C21.5103 35.5999 22.7903 34.6699 24.2103 33.8799C27.3903 32.0199 30.2303 30.9899 32.7403 30.3299C35.2503 29.6699 37.4303 29.3499 39.4903 29.1999C41.5403 29.0499 43.4703 29.0699 45.5203 29.2599C47.5703 29.4599 49.7403 29.8399 52.2403 30.5699C56.4803 31.7699 61.2903 33.8999 65.6803 36.9799C70.0603 40.0399 74.0703 44.0799 76.3403 48.4799C77.4703 50.6699 78.1503 52.8999 78.2803 54.9399C78.4203 57.0399 78.0303 58.6899 77.2603 59.7799C76.5103 60.8799 75.4703 61.5299 74.4703 61.8699C73.4603 62.2099 72.5503 62.2599 71.9103 62.2299C71.1503 62.1999 70.4003 62.0799 69.6803 61.8699C68.4403 61.4999 66.0103 60.4599 65.4503 57.1399C65.3903 56.9399 65.4003 56.7099 65.3803 56.4899L65.3503 56.1499V55.7199C65.3503 55.1399 65.3203 54.5399 65.3503 53.9299C65.4003 52.7099 65.5203 51.4299 65.7503 50.1199C66.2103 47.4999 67.0703 44.7399 68.4903 42.0299C71.2803 36.5899 76.3003 31.5299 82.4003 27.5699C88.5003 23.5899 95.5503 20.5899 102.55 18.4299C112.43 15.2999 120.82 13.9099 127.44 13.0399C134.07 12.1899 139 11.9199 142.37 11.7899C150.34 11.4699 157.32 11.6099 163.73 12.0499C170.14 12.4999 176 13.2199 181.69 14.4199C184.8 15.0899 186.56 14.8899 186.84 14.1099C187.11 13.3599 185.82 11.9899 182.64 10.9399C176.86 9.05993 170.83 7.80993 164.22 7.00993C157.61 6.21993 150.39 5.87993 142.16 6.18993C138.96 6.31993 134.02 6.37993 127.53 6.94993C121.05 7.53993 113 8.62993 103.8 11.1899C100.81 12.0299 97.8603 13.0699 95.0103 14.2799C88.8603 16.8999 82.4103 20.2099 76.7103 24.4999C70.9903 28.7199 66.1603 34.1099 63.3003 39.7099C61.8703 42.5099 60.9203 45.2999 60.3503 47.8599C59.7603 50.4199 59.6003 52.7299 59.5303 54.6399C59.5303 55.5999 59.4903 56.4199 59.5803 57.3099C59.5903 57.7299 59.6803 58.1299 59.7403 58.4899C59.7903 58.8499 59.8703 59.1799 59.9603 59.4799C60.1103 60.0699 60.2703 60.5199 60.4003 60.8199C60.5203 61.1199 60.5803 61.2799 60.5803 61.2799C60.5803 61.2799 60.6803 61.5099 60.9103 61.9299C61.1203 62.3599 61.4903 62.9699 62.0503 63.6899C63.1603 65.1099 65.2403 66.9299 68.2703 67.7699C69.7703 68.1899 71.4803 68.3799 73.3003 68.1899C75.1103 68.0199 77.0503 67.3999 78.8403 66.2499C79.7203 65.6499 80.5603 64.9199 81.2803 64.0499C81.9803 63.1699 82.6003 62.1799 83.0103 61.0999C83.8903 58.9399 84.0003 56.6099 83.8103 54.4499C83.3903 50.0199 81.3503 45.9399 78.8103 42.4999C76.2403 39.0499 73.0903 36.1699 69.8103 33.7899C63.2403 29.0199 56.1203 26.3799 50.6803 25.1799C42.4503 23.3799 35.9903 24.0199 31.3203 25.1099C26.6203 26.2499 23.6003 27.7799 21.4103 29.0299C19.7403 29.9799 18.2303 31.0799 16.8003 32.1899C15.4103 33.3499 14.1003 34.5299 12.9503 35.7999C10.6203 38.2999 8.7403 40.9599 7.2003 43.6299C4.1303 48.9899 2.3203 54.3499 1.0903 59.6099L1.1003 59.5799Z" fill="#101214"/>
<path d="M174.781 20.1001C174.301 20.7401 175.831 23.7201 176.631 23.7001C177.761 23.6701 178.841 23.4201 180.081 22.8001C181.411 21.9301 181.431 21.1301 182.421 20.6901C183.231 20.2401 184.421 19.8501 185.591 19.3901C185.741 19.3301 185.881 19.2801 186.021 19.2201C186.221 19.1101 186.411 19.0101 186.601 18.9001C186.991 18.7101 187.341 18.4701 187.671 18.2301C188.011 18.0101 188.281 17.7801 188.501 17.5701C188.731 17.3701 188.921 17.2001 189.021 17.0601C189.151 16.9001 189.261 16.7301 189.351 16.5501C189.471 16.2201 189.701 15.5901 189.741 14.7301C189.781 13.8701 189.581 12.8001 189.001 11.7601C188.721 11.2301 188.311 10.7301 187.901 10.2201C187.681 9.98005 187.451 9.73005 187.221 9.48005L186.741 9.02005C186.121 8.43005 185.531 7.89005 185.001 7.34005C183.381 5.95005 182.411 5.17005 181.901 4.74005C180.691 3.76005 179.591 3.27005 178.311 3.01005C177.611 2.87005 175.701 5.07005 175.961 5.75005C176.421 6.99005 177.111 8.01005 178.301 9.04005C178.761 9.43005 179.241 10.8701 180.461 12.0901C180.651 12.2901 180.911 12.4301 181.191 12.5101C181.791 12.6901 182.411 12.9901 182.841 13.2601L183.011 13.3701C183.011 13.3701 183.061 13.3801 183.081 13.3901C183.121 13.4001 183.171 13.4201 183.211 13.4401C183.291 13.4801 183.361 13.5401 183.421 13.6001C183.671 13.8601 183.511 14.1201 183.511 14.1001C183.521 14.1101 183.411 14.4001 183.021 14.6501C182.991 14.6801 182.631 14.9101 182.371 15.0901C182.071 15.2701 181.781 15.4501 181.481 15.6301C180.881 15.9801 180.301 16.2901 179.871 16.5301C178.541 17.2401 177.901 17.5901 177.501 17.8001C176.301 18.4501 175.461 19.1701 174.791 20.0801L174.781 20.1001Z" fill="#101214"/>
</g>
<defs>
<clipPath id="clip0_448_5857">
<rect width="189.74" height="65.23" fill="white" transform="translate(0 3)"/>
</clipPath>
</defs>
</svg>
