<svg width="87" height="27" viewBox="0 0 87 27" fill="none" xmlns="http://www.w3.org/2000/svg">
<g clip-path="url(#clip0_448_5843)">
<path d="M1.59979 3.20007C-0.540209 3.67007 -0.290209 7.01007 1.83979 7.24007C4.86979 7.55007 8.02979 7.68007 12.0698 7.65007C16.6498 7.44007 17.8098 6.81007 20.9298 6.93007C23.5598 7.02007 27.0898 7.39007 30.2098 7.88007C33.3298 8.36007 36.0298 8.92007 37.0798 9.14007C37.3898 9.21007 37.6998 9.25007 38.0198 9.27007C40.2698 9.35007 50.2098 10.0201 58.5398 12.0401C60.0198 12.3501 61.3498 12.6301 62.5598 12.8801C63.7598 13.1601 64.8198 13.4101 65.7598 13.6201C67.6498 14.0401 69.0098 14.4301 69.9598 14.6601C74.4298 15.7901 77.8098 16.4601 81.2398 16.8701C83.1198 17.0901 84.0398 14.3301 82.3298 13.4301C79.2298 11.7901 75.9398 10.4301 71.3698 9.23007C69.5998 8.77007 66.0798 7.02007 60.7898 5.79007C59.9298 5.59007 59.0498 5.46007 58.1698 5.41007C56.2598 5.34007 54.2398 5.13007 52.2698 4.93007C50.2998 4.75007 48.3898 4.48007 46.6998 4.29007C45.0198 4.09007 43.5798 3.89007 42.5498 3.74007C41.5198 3.60007 40.9198 3.52007 40.9198 3.52007C40.9198 3.52007 37.2998 3.07007 32.8998 2.72007C30.6998 2.53007 28.2998 2.40007 26.0698 2.27007C23.8398 2.19007 21.7698 2.07007 20.2298 2.06007C15.5898 1.97007 13.3598 2.03007 11.9898 2.04007C7.84979 2.11007 4.62979 2.51007 1.59979 3.20007Z" fill="#101214"/>
<path d="M79.3501 2.31006C78.6601 1.94006 75.9201 3.87006 76.0401 4.64006C76.2101 5.74006 76.5901 6.74006 77.3401 7.84006C78.3301 8.98006 79.1101 8.89006 79.6101 9.77006C80.0801 10.4601 80.5101 11.5601 80.6901 12.4401C80.7101 12.5501 80.7301 12.6501 80.7501 12.7601C80.7301 12.7901 80.7101 12.8301 80.6801 12.8501C80.6301 12.9001 80.5801 12.9401 80.5301 12.9701C80.4201 13.0301 80.3101 13.0301 80.2501 13.0301C80.2101 13.0301 80.2001 13.0301 80.2201 13.0301C80.2801 13.0301 80.5001 13.1301 80.4701 13.2901C80.4701 13.3301 80.4501 13.3601 80.4201 13.4001C80.4101 13.4201 80.3901 13.4301 80.3701 13.4501L80.0401 13.5701C79.5201 13.7501 78.8101 13.9201 78.1601 14.0101C76.2401 14.4501 75.0601 14.7201 74.4401 14.8701C72.9501 15.2201 71.8901 15.8101 70.9401 16.6801C70.4101 17.1601 71.0801 19.9901 71.7601 20.2001C72.9901 20.5701 74.1601 20.6601 75.6501 20.3501C76.2301 20.2201 77.5901 20.7601 79.3901 20.4801C79.6901 20.4301 79.9601 20.3201 80.2201 20.1201C80.5101 19.9101 80.8001 19.7201 81.1201 19.5301L81.6001 19.2601L82.1701 18.9701C82.6301 18.7401 83.0901 18.5101 83.5301 18.2801C83.9701 18.0101 84.4001 17.7701 84.7401 17.4801C85.4301 16.9201 85.9001 16.3201 86.1501 15.8401C86.4001 15.3601 86.4801 15.0501 86.4801 15.0501C86.4801 15.0501 86.6301 14.5901 86.6401 13.8201C86.6701 13.0501 86.3801 11.9801 85.8701 10.8601C85.5901 10.2201 85.4101 9.93006 85.1901 9.53006C84.9801 9.18006 84.7701 8.82006 84.5701 8.50006C84.1601 7.85006 83.7801 7.27006 83.5001 6.85006C82.6301 5.60006 82.2101 5.00006 81.9501 4.63006C81.1601 3.54006 80.3401 2.84006 79.3601 2.32006L79.3501 2.31006Z" fill="#101214"/>
</g>
<defs>
<clipPath id="clip0_448_5843">
<rect width="86.64" height="18.55" fill="white" transform="translate(0 2)"/>
</clipPath>
</defs>
</svg>
