<svg width="235" height="45" viewBox="0 0 235 45" fill="none" xmlns="http://www.w3.org/2000/svg">
<g clip-path="url(#clip0_448_5481)">
<path d="M196.51 20.5399C195.64 20.8899 195.64 24.2399 196.51 24.5899C197.74 25.0899 199.03 25.3499 200.69 25.3699C202.57 25.2099 203.04 24.5199 204.31 24.5999C206.46 24.5999 210.09 25.5299 210.97 25.7599C211.1 25.7899 211.23 25.7999 211.36 25.7899C212.29 25.6599 216.35 25.1599 219.85 25.3999C222.32 25.3999 223.85 25.3799 224.65 25.3799C226.54 25.3499 227.95 25.0099 229.33 24.3799C230.09 24.0299 230.09 21.1199 229.33 20.7699C227.95 20.1299 226.53 19.7899 224.65 19.7699C223.92 19.7699 222.39 18.9699 220.23 18.8299C219.88 18.8099 219.53 18.8599 219.18 18.9899C216.17 20.0799 212.27 19.7699 212.27 19.7699C212.27 19.7699 206.44 19.7599 203.98 19.7499C202.13 19.7499 201.24 19.7599 200.69 19.7699C199.03 19.7899 197.74 20.0599 196.51 20.5599V20.5399Z" fill="#101214"/>
<path d="M158.43 20.5399C157.75 20.8899 157.75 24.2399 158.43 24.5899C159.4 25.0899 160.41 25.3499 161.72 25.3699C163.2 25.2099 163.57 24.5199 164.57 24.5999C166.26 24.5999 169.12 25.5299 169.81 25.7599C169.91 25.7899 170.01 25.7999 170.12 25.7899C170.85 25.6599 174.05 25.1599 176.81 25.3999C178.76 25.3999 179.96 25.3799 180.59 25.3799C182.08 25.3499 183.19 25.0099 184.28 24.3799C184.88 24.0299 184.88 21.1199 184.28 20.7699C183.19 20.1299 182.08 19.7899 180.59 19.7699C180.01 19.7699 178.81 18.9699 177.11 18.8299C176.83 18.8099 176.56 18.8599 176.28 18.9899C173.91 20.0799 170.84 19.7699 170.84 19.7699C170.84 19.7699 166.25 19.7599 164.32 19.7499C162.86 19.7499 162.16 19.7599 161.73 19.7699C160.42 19.7899 159.41 20.0599 158.44 20.5599L158.43 20.5399Z" fill="#101214"/>
<path d="M119.99 20.5399C119.29 20.8899 119.29 24.2399 119.99 24.5899C120.99 25.0899 122.03 25.3499 123.38 25.3699C124.9 25.2099 125.28 24.5199 126.32 24.5999C128.07 24.5999 131.01 25.5299 131.72 25.7599C131.82 25.7899 131.93 25.7999 132.04 25.7899C132.79 25.6599 136.09 25.1599 138.93 25.3999C140.94 25.3999 142.18 25.3799 142.82 25.3799C144.35 25.3499 145.5 25.0099 146.62 24.3799C147.24 24.0299 147.24 21.1199 146.62 20.7699C145.5 20.1299 144.35 19.7899 142.82 19.7699C142.23 19.7699 140.99 18.9699 139.24 18.8299C138.95 18.8099 138.67 18.8599 138.39 18.9899C135.95 20.0799 132.78 19.7699 132.78 19.7699C132.78 19.7699 128.05 19.7599 126.06 19.7499C124.56 19.7499 123.83 19.7599 123.39 19.7699C122.04 19.7899 121 20.0599 120 20.5599L119.99 20.5399Z" fill="#101214"/>
<path d="M81.3996 20.5399C80.6396 20.8899 80.6396 24.2399 81.3996 24.5899C82.4796 25.0899 83.6096 25.3499 85.0596 25.3699C86.7096 25.2099 87.1196 24.5199 88.2296 24.5999C90.1096 24.5999 93.2896 25.5299 94.0596 25.7599C94.1696 25.7899 94.2896 25.7999 94.3996 25.7899C95.2096 25.6599 98.7696 25.1599 101.84 25.3999C104.01 25.3999 105.35 25.3799 106.05 25.3799C107.7 25.3499 108.94 25.0099 110.15 24.3799C110.82 24.0299 110.82 21.1199 110.15 20.7699C108.94 20.1299 107.7 19.7899 106.05 19.7699C105.41 19.7699 104.07 18.9699 102.18 18.8299C101.87 18.8099 101.56 18.8599 101.26 18.9899C98.6296 20.0799 95.2096 19.7699 95.2096 19.7699C95.2096 19.7699 90.1096 19.7599 87.9496 19.7499C86.3296 19.7499 85.5496 19.7599 85.0696 19.7699C83.6196 19.7899 82.4896 20.0599 81.4096 20.5599L81.3996 20.5399Z" fill="#101214"/>
<path d="M41.3299 20.5399C40.5899 20.8899 40.5899 24.2399 41.3299 24.5899C42.3799 25.0899 43.4899 25.3499 44.9099 25.3699C46.5199 25.2099 46.9199 24.5199 48.0199 24.5999C49.8699 24.5999 52.9799 25.5299 53.7299 25.7599C53.8399 25.7899 53.9499 25.7999 54.0599 25.7899C54.8599 25.6599 58.3399 25.1599 61.3499 25.3999C63.4699 25.3999 64.7799 25.3799 65.4699 25.3799C67.0899 25.3499 68.2999 25.0099 69.4899 24.3799C70.1399 24.0299 70.1399 21.1199 69.4899 20.7699C68.2999 20.1299 67.0899 19.7899 65.4699 19.7699C64.8399 19.7699 63.5299 18.9699 61.6799 18.8299C61.3799 18.8099 61.0799 18.8599 60.7799 18.9899C58.1999 20.0799 54.8499 19.7699 54.8499 19.7699C54.8499 19.7699 49.8499 19.7599 47.7399 19.7499C46.1499 19.7499 45.3899 19.7599 44.9199 19.7699C43.4999 19.7899 42.3899 20.0599 41.3399 20.5599L41.3299 20.5399Z" fill="#101214"/>
<path d="M0.629688 20.5399C-0.220312 20.8899 -0.220312 24.2399 0.629688 24.5899C1.82969 25.0899 3.08969 25.3499 4.70969 25.3699C6.54969 25.2099 6.99969 24.5199 8.24969 24.5999C10.3497 24.5999 13.8997 25.5299 14.7497 25.7599C14.8797 25.7899 14.9997 25.7999 15.1297 25.7899C16.0397 25.6599 20.0097 25.1599 23.4197 25.3999C25.8297 25.3999 27.3297 25.3799 28.1097 25.3799C29.9497 25.3499 31.3297 25.0099 32.6797 24.3799C33.4197 24.0299 33.4197 21.1199 32.6797 20.7699C31.3297 20.1299 29.9497 19.7899 28.1097 19.7699C27.3897 19.7699 25.8997 18.9699 23.7897 18.8299C23.4497 18.8099 23.0997 18.8599 22.7597 18.9899C19.8197 20.0799 16.0097 19.7699 16.0097 19.7699C16.0097 19.7699 10.3197 19.7599 7.91969 19.7499C6.10969 19.7499 5.23969 19.7599 4.70969 19.7699C3.08969 19.7899 1.82969 20.0599 0.629688 20.5599V20.5399Z" fill="#101214"/>
<path d="M215.85 0.569948C214.57 -0.190052 212.22 2.18995 213.02 3.45995C214.14 5.25995 215.51 6.95995 217.48 8.90995C219.83 10.9899 220.87 11.0399 222.3 12.5899C223.55 13.8499 225.05 15.7199 226.11 17.4299C227.2 19.1399 227.71 20.5899 227.74 21.0499C227.78 21.1999 227.83 21.3299 227.87 21.4399C227.98 21.6499 228.17 22.0099 228.25 22.4199C228.34 22.8399 228.37 23.3499 228.04 24.1799C227.37 25.8499 225.33 28.1799 223.22 30.0199C220.32 32.7899 218.37 34.4899 217.4 35.3799C215.07 37.4999 213.52 39.3299 212.22 41.3499C211.5 42.4599 213.45 44.6199 214.63 44.0399C216.77 42.9699 218.76 41.6599 221.14 39.5699C222.06 38.7399 224.51 37.6699 227.31 35.2099C227.77 34.8099 228.17 34.3499 228.51 33.8199C229.26 32.7099 230.11 31.5199 230.95 30.3299C231.78 29.1099 232.6 27.8499 233.19 26.5399C233.79 25.2199 234.05 23.8399 234.1 22.8599C234.1 22.3699 234.08 21.9799 234.07 21.7099C234.07 21.4399 234.03 21.2999 234.03 21.2999C234.03 21.2999 233.99 21.0899 233.92 20.7199C233.86 20.3299 233.7 19.8399 233.48 19.2399C233.03 18.0599 232.23 16.6499 231.25 15.3399C229.29 12.7499 226.81 10.2499 225.34 8.75995C223.11 6.56995 222.04 5.51995 221.38 4.87995C219.37 2.95995 217.64 1.64995 215.83 0.559948L215.85 0.569948Z" fill="#101214"/>
</g>
<defs>
<clipPath id="clip0_448_5481">
<rect width="234.12" height="44.65" fill="white"/>
</clipPath>
</defs>
</svg>
