<svg width="130" height="119" viewBox="0 0 130 119" fill="none" xmlns="http://www.w3.org/2000/svg">
<g clip-path="url(#clip0_448_5795)">
<path d="M26.3999 22.64C25.0899 25.2 27.9899 26.89 29.7499 24.91C32.2499 22.06 34.8599 19.15 38.5099 15.82C40.5399 13.9 41.8099 12.68 42.9799 11.69C44.1099 10.63 45.1999 9.89999 46.8799 8.97999C49.7399 7.47999 53.9299 6.20999 57.7299 5.87999C61.5299 5.50999 64.8299 5.87999 66.0899 6.08999C66.4599 6.14999 66.8399 6.15999 67.2199 6.16999C68.5599 6.26999 72.2499 6.42999 76.7199 7.80999C77.2799 7.97999 77.8499 8.15999 78.4299 8.34999C79.0099 8.54999 79.5799 8.78999 80.1799 9.01999C81.3799 9.44999 82.5399 10.05 83.7499 10.62C86.1099 11.85 88.4599 13.26 90.5299 14.89C93.5399 17.07 95.7599 19.13 97.4099 20.84C99.0999 22.52 100.18 23.91 100.97 24.81C104.51 29.26 106.88 32.79 109.21 36.38C110.46 38.35 113.2 37.35 112.51 34.91C111.24 30.54 109.21 26.21 105.35 21.28C103.8 19.45 101.16 14.91 95.4499 10.33C94.4999 9.61999 93.5399 8.92999 92.4799 8.39999C87.9899 5.99999 82.6999 3.66999 78.3599 2.36999C77.2899 1.98999 76.2599 1.77999 75.3499 1.51999C74.4399 1.25999 73.6299 1.08999 72.9399 0.95999C72.2599 0.81999 71.7199 0.70999 71.3499 0.62999C70.9799 0.54999 70.7799 0.51999 70.7799 0.51999C70.7799 0.51999 69.5599 0.36999 67.6099 0.13999C66.6299 0.0999902 65.4499 0.0499902 64.1599 -0.0100098C63.5099 0.00999023 62.8299 0.0299902 62.1299 0.0499902C61.4199 0.0599902 60.6999 0.0899902 59.9599 0.19999C56.9799 0.39999 53.7999 1.18999 50.9099 2.04999C48.0599 3.03999 45.4999 4.17999 43.6899 5.20999C42.3299 5.97999 41.1499 6.64999 40.1899 7.35999C39.2199 8.03999 38.3499 8.57999 37.6999 9.15999C36.3499 10.28 35.3799 11 34.7399 11.66C30.6699 15.44 28.2199 19.03 26.4099 22.63L26.3999 22.64Z" fill="#101214"/>
<path d="M113.579 16.8599C113.109 15.8899 109.779 16.2599 109.559 17.3399C109.239 18.8599 109.169 20.4399 109.419 22.4099C109.879 24.6199 110.639 25.0699 110.769 26.5699C110.939 27.8299 110.939 29.5499 110.799 30.9999C110.679 32.4399 110.329 33.5999 110.209 33.6999C110.169 33.7099 110.159 33.72 110.179 33.74C110.229 33.74 110.429 33.92 110.259 34.08C110.239 34.1 110.219 34.1099 110.189 34.1199C110.169 34.1199 110.189 34.1399 110.129 34.1399H109.869C109.539 34.1399 109.079 34.0699 108.649 34.0099C107.749 33.8599 106.769 33.5999 105.829 33.2799C103.119 32.5399 101.379 31.9499 100.479 31.6899C98.3494 31.0399 96.6494 30.8399 94.8894 30.9399C93.9194 30.9899 93.0194 33.7599 93.7694 34.3699C95.1394 35.4799 96.6294 36.3299 98.7694 37.0399C99.6094 37.3099 101.089 38.6399 103.629 39.5099C104.049 39.6499 104.489 39.7099 104.949 39.6999C105.939 39.6699 106.989 39.7299 108.079 39.7799C108.349 39.7899 108.629 39.7999 108.889 39.8199C109.179 39.8199 109.469 39.8199 109.749 39.8199C109.979 39.8299 110.459 39.7999 110.799 39.7699C111.169 39.7499 111.519 39.6799 111.849 39.6099C113.179 39.3099 114.169 38.6499 114.709 38.0299C115.239 37.3999 115.449 36.9599 115.449 36.9599C115.449 36.9599 115.529 36.7899 115.669 36.4999C115.769 36.1899 115.939 35.72 116.049 35.15C116.099 34.87 116.149 34.5499 116.179 34.2199C116.189 33.9699 116.209 33.6999 116.219 33.4199C116.239 32.8699 116.219 32.2999 116.189 31.7299C116.059 29.4399 115.709 26.9899 115.519 25.5299C115.209 23.3499 115.069 22.2999 114.969 21.6599C114.689 19.7199 114.229 18.2499 113.569 16.8699L113.579 16.8599Z" fill="#101214"/>
<path d="M123.6 54.52C121.53 52.48 119.22 54.95 120.37 56.96C121.2 58.44 121.88 60.01 122.51 61.73C122.85 62.58 123.04 63.53 123.36 64.47C123.46 64.96 123.57 65.47 123.68 65.99C123.8 66.51 123.93 67.03 123.98 67.6C124.09 68.23 124.19 68.8 124.3 69.32C124.37 69.85 124.43 70.34 124.49 70.78C124.56 71.23 124.62 71.64 124.68 72.03C124.71 72.43 124.74 72.79 124.77 73.15C124.94 74.58 124.92 75.83 124.62 77.61C124.15 80.63 122.67 84.53 120.77 87.62C118.91 90.75 116.69 92.99 115.87 93.86C115.64 94.13 115.37 94.37 115.15 94.64C114.36 95.62 112.14 98.3 108.56 100.7C106.8 101.95 104.64 102.95 102.38 103.82C100.06 104.52 97.6197 105.13 95.2097 105.18C93.5297 105.39 91.9697 105.22 90.5897 105.23C89.1997 105.05 87.9597 104.95 86.8797 104.75C85.7997 104.51 84.8597 104.31 84.0597 104.13C83.2597 103.94 82.6097 103.68 82.0697 103.53C81.4297 103.34 80.8197 103.15 80.2197 102.97C79.6297 102.75 79.0597 102.53 78.4997 102.32C77.3797 101.9 76.2997 101.57 75.2997 101.1C74.2897 100.67 73.2997 100.29 72.3197 99.92C71.3697 99.49 70.4397 99.07 69.4897 98.68C67.4197 97.82 65.7397 100.21 67.5697 101.74C68.3997 102.43 69.2497 103.12 70.1297 103.8C71.0597 104.42 72.0297 105.03 73.0597 105.65C74.0697 106.31 75.2197 106.81 76.4297 107.37C77.0397 107.64 77.6597 107.93 78.3097 108.2C78.9797 108.42 79.6697 108.65 80.3897 108.89C80.9497 109.06 81.6397 109.36 82.4797 109.67C83.3497 109.95 84.3597 110.27 85.5097 110.63C86.0797 110.83 86.7197 110.96 87.3797 111.09C88.0497 111.22 88.7597 111.36 89.4997 111.5C90.2397 111.67 91.0397 111.66 91.8597 111.74C92.6897 111.77 93.5497 111.89 94.4497 111.82C95.6197 111.74 96.7997 111.64 97.9297 111.36C99.1397 110.98 100.41 110.72 101.64 110.28C102.86 109.8 104.14 109.47 105.3 108.88C105.89 108.62 106.48 108.35 107.06 108.09C107.64 107.84 108.17 107.5 108.72 107.22C109.26 106.93 109.79 106.64 110.3 106.36C110.79 106.04 111.27 105.73 111.73 105.43C112.19 105.13 112.63 104.84 113.06 104.56C113.46 104.25 113.84 103.96 114.21 103.68C114.92 103.11 115.6 102.66 116.08 102.19C117.08 101.3 117.67 100.77 117.67 100.77C117.67 100.77 117.9 100.58 118.26 100.2C118.62 99.81 119.14 99.25 119.78 98.55C120.45 97.88 121.08 96.95 121.86 95.98C122.62 95 123.33 93.84 124.11 92.65C125.54 90.2 126.9 87.41 127.82 84.69C128.09 84.02 128.24 83.33 128.45 82.68C128.63 82.02 128.85 81.39 128.97 80.76C129.21 79.51 129.51 78.38 129.61 77.39C129.7 76.64 129.78 75.95 129.86 75.3C129.93 74.65 129.92 74.03 129.95 73.46C129.97 72.89 129.99 72.36 130 71.86C129.98 71.36 129.95 70.9 129.93 70.48C129.89 68.77 129.66 67.61 129.54 66.72C129.46 66.04 129.3 65.4 129.14 64.77C128.97 64.15 128.81 63.54 128.65 62.94C128.19 61.79 127.83 60.67 127.29 59.68C126.25 57.67 125.04 55.96 123.62 54.53L123.6 54.52Z" fill="#101214"/>
<path d="M76.0995 117.77C77.0095 118.35 79.6395 116.28 79.2695 115.25C78.7395 113.79 77.9695 112.41 76.7295 110.86C75.1795 109.22 74.2895 109.24 73.3895 108.03C72.5795 107.05 71.6795 105.58 71.0395 104.28C70.3795 102.99 70.0695 101.82 70.1195 101.67C70.1395 101.64 70.1495 101.63 70.1195 101.62C70.0695 101.64 69.8095 101.6 69.8695 101.37C69.8695 101.34 69.8895 101.32 69.8995 101.3C69.9195 101.28 69.8995 101.28 69.9495 101.25L70.1795 101.12C70.4495 100.94 70.8795 100.76 71.2795 100.58C72.1295 100.24 73.0995 99.94 74.0695 99.72C76.7695 98.92 78.5595 98.51 79.4595 98.27C81.6095 97.71 83.1695 96.98 84.6095 95.97C85.4095 95.42 84.7195 92.59 83.7495 92.46C81.9995 92.23 80.2895 92.29 78.0895 92.81C77.2295 93.03 75.2695 92.67 72.6595 93.27C72.2295 93.37 71.8195 93.55 71.4395 93.8C70.6095 94.35 69.6895 94.84 68.7295 95.38C68.4895 95.51 68.2495 95.65 68.0195 95.78C67.7695 95.93 67.5195 96.08 67.2795 96.23C67.0795 96.34 66.6795 96.62 66.4095 96.82C66.1095 97.03 65.8495 97.27 65.5995 97.51C64.6295 98.47 64.1295 99.55 63.9895 100.36C63.8695 101.17 63.9195 101.66 63.9195 101.66C63.9195 101.66 63.9395 101.84 63.9695 102.17C64.0395 102.49 64.1495 102.98 64.3595 103.51C64.4695 103.78 64.5895 104.07 64.7395 104.37C64.8595 104.59 64.9895 104.83 65.1295 105.07C65.3995 105.54 65.7095 106.02 66.0395 106.49C67.3495 108.37 68.9395 110.27 69.8695 111.41C71.2795 113.1 71.9495 113.92 72.3695 114.42C73.6295 115.92 74.7895 116.94 76.0795 117.76L76.0995 117.77Z" fill="#101214"/>
<path d="M49.5892 97.76C52.0592 96.26 49.9192 93.55 48.1692 93.97C47.4292 94.03 46.7692 94.2099 45.9892 94.2099C45.6092 94.2299 45.2292 94.2599 44.8392 94.2799C44.4392 94.2799 44.0392 94.2799 43.6192 94.2799C42.8092 94.3099 41.9092 94.1899 41.0092 94.1699C40.0792 94.0399 39.1192 94.02 38.0892 93.83C36.9092 93.73 35.9492 93.6 35.1192 93.51C34.2792 93.45 33.5792 93.33 32.9192 93.25C32.2592 93.18 31.6492 93.0899 31.0092 92.9199C30.3792 92.7499 29.6892 92.6 28.9392 92.26C26.3092 91.3 23.0192 89.41 20.4892 87.32C17.9192 85.25 16.1992 83.0299 15.5492 82.1999C15.3392 81.9599 15.1592 81.71 14.9492 81.48C14.1892 80.68 12.0692 78.43 10.5892 75C9.79922 73.3 9.34922 71.28 9.09922 69.19C9.07922 68.66 9.06922 68.1199 9.04922 67.5899L9.02922 66.79L9.10922 65.98C9.16922 65.44 9.21922 64.9 9.27922 64.37C9.33922 63.84 9.50922 63.31 9.61922 62.79C10.1792 59.82 11.2292 57.5 12.0392 55.68C12.2192 55.22 12.4492 54.7999 12.6692 54.4199C12.8792 54.0399 13.0792 53.6799 13.2592 53.3499C13.6292 52.6899 13.9192 52.14 14.1792 51.7C14.8492 50.68 15.4592 49.72 16.0292 48.79C16.5792 47.85 17.2292 47.03 17.7592 46.18C18.8092 44.47 19.8992 42.9599 20.8892 41.3699C21.9692 39.6299 19.8992 37.58 18.2192 38.93C16.6992 40.16 15.1792 41.4199 13.7592 43.0499C13.0492 43.8599 12.2492 44.6599 11.5592 45.6399C10.8592 46.6099 10.1392 47.6499 9.37922 48.7699C8.86922 49.6899 7.86922 50.99 6.68922 52.83C6.14922 53.78 5.54922 54.86 4.92922 56.08C4.66922 56.72 4.40922 57.39 4.13922 58.09C3.88922 58.8 3.56922 59.52 3.40922 60.33C3.17922 61.38 2.95922 62.4399 2.94922 63.5099C2.98922 64.6799 2.92922 65.87 3.01922 67.08C3.07922 67.68 3.13922 68.29 3.19922 68.9L3.27922 69.8C3.31922 70.1 3.38922 70.4 3.44922 70.69C3.68922 71.87 3.86922 73.0499 4.24922 74.1299C4.41922 74.6799 4.57922 75.21 4.73922 75.73C4.91922 76.24 5.14922 76.7199 5.33922 77.1999C5.53922 77.6699 5.72922 78.1299 5.90922 78.5599C6.11922 78.9799 6.33922 79.37 6.53922 79.75C6.95922 80.48 7.25922 81.18 7.61922 81.68C8.29922 82.71 8.68922 83.32 8.68922 83.32C8.68922 83.32 8.72922 83.38 8.79922 83.48C8.86922 83.59 8.97922 83.75 9.13922 83.93C9.44922 84.31 9.89922 84.8499 10.4492 85.5199C10.9792 86.2099 11.7492 86.8899 12.5292 87.7099C13.3392 88.4999 14.2892 89.29 15.2792 90.12C17.3192 91.69 19.6492 93.24 21.9392 94.43C23.0692 95.05 24.2092 95.5399 25.2492 96.0199C26.3092 96.4399 27.2592 96.8499 28.0992 97.1399C29.3692 97.5599 30.4692 97.95 31.4592 98.19C32.4392 98.46 33.2892 98.69 34.0392 98.82C35.5192 99.15 36.5592 99.2899 37.3492 99.3899C38.5392 99.5899 39.7092 99.58 40.7992 99.65C41.9092 99.6 42.9592 99.62 43.9792 99.44C44.4892 99.36 44.9792 99.2799 45.4692 99.1999C45.9592 99.0899 46.4392 98.95 46.9092 98.82C47.8492 98.6 48.7392 98.13 49.5892 97.76Z" fill="#101214"/>
<path d="M0.579679 43.71C-0.190321 44.47 1.23968 47.49 2.32968 47.36C3.86968 47.17 5.38968 46.73 7.16968 45.86C9.10968 44.71 9.28968 43.84 10.6697 43.24C11.8097 42.67 13.4397 42.12 14.8497 41.78C16.2497 41.43 17.4597 41.38 17.5997 41.47C17.6197 41.5 17.6397 41.51 17.6497 41.49C17.6397 41.44 17.7397 41.2 17.9497 41.3C17.9697 41.31 17.9897 41.33 18.0097 41.35C18.0197 41.37 18.0297 41.35 18.0497 41.4L18.1297 41.65C18.2397 41.96 18.3297 42.41 18.4097 42.84C18.5597 43.74 18.6297 44.75 18.6297 45.75C18.8097 48.56 18.8197 50.39 18.8497 51.32C18.9197 53.55 19.2797 55.22 19.9397 56.86C20.2997 57.76 23.2097 57.71 23.5497 56.81C24.1597 55.15 24.4797 53.47 24.4597 51.21C24.4397 50.33 25.2197 48.5 25.2197 45.82C25.2197 45.38 25.1297 44.94 24.9697 44.51C24.6197 43.58 24.3397 42.57 24.0297 41.52C23.9497 41.26 23.8797 41 23.7997 40.74C23.7097 40.46 23.6197 40.19 23.5297 39.92C23.4697 39.7 23.2797 39.25 23.1497 38.94C23.0097 38.6 22.8397 38.29 22.6497 38C21.9297 36.84 20.9897 36.12 20.2297 35.8C19.4597 35.5 18.9697 35.45 18.9697 35.45C18.9697 35.45 18.7897 35.43 18.4597 35.39C18.1297 35.39 17.6297 35.39 17.0597 35.47C16.7797 35.52 16.4597 35.57 16.1297 35.65C15.8897 35.72 15.6297 35.79 15.3597 35.87C14.8397 36.03 14.2997 36.23 13.7697 36.44C11.6397 37.3 9.43968 38.43 8.11968 39.08C6.15968 40.08 5.20968 40.56 4.62968 40.85C2.88968 41.75 1.63968 42.65 0.549679 43.73L0.579679 43.71Z" fill="#101214"/>
</g>
<defs>
<clipPath id="clip0_448_5795">
<rect width="129.98" height="118.21" fill="white"/>
</clipPath>
</defs>
</svg>
