<svg width="33" height="101" viewBox="0 0 33 101" fill="none" xmlns="http://www.w3.org/2000/svg">
<g clip-path="url(#clip0_448_5256)">
<path d="M18.532 98.9799C19.512 101.43 22.712 100.45 22.442 97.9499C22.002 94.3899 21.482 90.7199 20.782 85.9899C19.842 80.6499 19.132 79.3399 18.852 75.6399C18.752 74.0699 18.722 72.2299 18.712 70.3099C18.692 68.3899 18.832 66.3899 18.902 64.5099C19.112 60.7499 19.452 57.4499 19.592 56.1799C19.632 55.7999 19.652 55.4199 19.642 55.0399C19.602 53.6799 19.522 50.0199 19.582 45.3799C19.632 40.7499 19.802 35.1499 20.052 29.9499C20.252 22.5999 20.192 18.0099 20.142 15.6099C20.032 9.95991 19.412 5.71991 18.412 1.64991C17.872 -0.600086 14.982 -0.260086 14.822 1.97991C14.552 6.07991 14.472 10.1899 14.532 15.7099C14.572 17.8599 13.822 22.3199 13.512 28.6499C13.462 29.6799 13.492 30.7099 13.592 31.7399C13.992 36.1799 13.992 41.2999 13.902 45.2999C13.862 47.3099 13.802 49.0299 13.752 50.2599C13.702 51.4899 13.672 52.2099 13.672 52.2099C13.672 52.2099 13.532 56.5399 13.542 61.8099C13.542 64.4399 13.612 67.3099 13.682 69.9799C13.842 72.6499 13.902 75.1299 14.092 76.9699C14.542 82.5199 15.012 85.1799 15.222 86.8199C16.002 91.7599 17.092 95.5399 18.522 98.9799H18.532Z" fill="#101214"/>
<path d="M0.772117 16.33C0.402117 17.34 3.00212 19.45 3.91212 18.88C5.21212 18.07 6.37212 17.04 7.62212 15.55C8.89212 13.75 8.70212 12.89 9.71212 11.82C10.5121 10.88 11.7821 9.78001 12.9421 9.04001C14.1021 8.28001 15.0421 8.02001 15.3021 8.04001C15.3921 8.02001 15.4521 8.01001 15.5121 7.97001C15.6121 7.89001 15.7721 7.76001 15.9321 7.68001C16.1021 7.60001 16.2921 7.50001 16.7921 7.61001C17.7921 7.83001 19.5421 9.01001 20.9121 10.38C23.0021 12.2 24.3021 13.47 24.9821 14.1C26.6021 15.61 28.0321 16.52 29.6621 17.19C30.5521 17.56 32.5621 15.45 32.1521 14.58C31.4121 12.99 30.4521 11.6 28.8521 10.03C28.2121 9.43001 27.4821 7.59001 25.5721 5.71001C25.2621 5.40001 24.8921 5.16001 24.4621 4.97001C22.6521 4.17001 20.7321 2.92001 18.6221 2.24001C17.5721 1.89001 16.4821 1.80001 15.7321 1.82001C15.3521 1.84001 15.0521 1.89001 14.8521 1.91001C14.6421 1.93001 14.5421 1.96001 14.5421 1.96001C14.5421 1.96001 14.3821 2.00001 14.1021 2.08001C13.8121 2.15001 13.4321 2.29001 12.9821 2.50001C12.1021 2.90001 11.0621 3.58001 10.1721 4.36001C8.36212 5.93001 6.74212 7.85001 5.77212 8.98001C4.37212 10.69 3.69212 11.52 3.28212 12.02C2.06212 13.56 1.31212 14.91 0.792117 16.35L0.772117 16.33Z" fill="#101214"/>
</g>
<defs>
<clipPath id="clip0_448_5256">
<rect width="32.11" height="100.8" fill="white" transform="translate(0.492188)"/>
</clipPath>
</defs>
</svg>
