<svg width="102" height="39" viewBox="0 0 102 39" fill="none" xmlns="http://www.w3.org/2000/svg">
<g clip-path="url(#clip0_448_5746)">
<path d="M2.5299 34.78C0.869897 35.58 0.239897 36.7 0.499897 37.6C0.739897 38.48 1.9899 39.1 3.9299 38.57C6.6599 37.82 9.3599 36.85 12.1999 35.58C15.0299 34.31 18.0199 32.8 21.2299 30.79C23.0199 29.6 24.4299 28.59 25.5999 27.63C26.7799 26.71 27.7099 25.84 28.5699 25.04C30.2899 23.43 31.6799 21.98 33.7899 19.89C35.4799 17.99 37.4399 15.78 38.9599 12.69C39.7699 10.98 40.0699 8.69997 39.4299 6.62997C38.7999 4.54997 37.3999 2.88997 35.7899 1.77997C34.1599 0.659966 32.2799 0.0499662 30.3799 -3.37642e-05C28.4799 -0.0600338 26.5599 0.539966 25.1599 1.52997C23.7399 2.50997 22.8199 3.73997 22.2399 4.75997C21.9199 5.28997 21.7799 5.66997 21.5799 6.05997C21.3899 6.42997 21.2699 6.79997 21.1599 7.08997C21.0199 7.42997 20.9099 7.79997 20.8299 8.18997C20.7399 8.56997 20.6599 8.94997 20.6299 9.36997C20.5599 10.09 20.4899 11.16 20.7499 12.53C21.0099 13.88 21.6499 15.49 22.7499 16.89C23.8299 18.3 25.2699 19.46 26.8399 20.39C28.4199 21.32 30.1399 22.05 31.9499 22.65C39.1899 25 47.7799 25.56 55.6899 25.73C61.2799 25.73 65.7699 25.43 69.3199 25.1C72.8699 24.78 75.4699 24.41 77.2599 24.15C81.4699 23.52 85.1299 22.69 88.4599 21.67C91.7899 20.63 94.7999 19.43 97.6399 17.7C99.2099 16.72 99.5299 15.46 99.0599 14.82C98.5799 14.15 97.5099 13.93 96.0399 14.47C93.3199 15.44 90.3999 16.11 87.1999 16.77C83.9999 17.42 80.4899 18.03 76.4499 18.61C73.3099 19.05 66.6299 19.18 57.3599 19.15C55.8499 19.15 54.3399 19.18 52.8399 19.27C46.3999 19.66 38.8699 19.04 33.6599 17.23C31.0599 16.36 29.1199 15.18 28.1699 14.21C27.6599 13.74 27.3999 13.32 27.2099 13.04C27.0599 12.76 26.9799 12.6 26.9799 12.6C27.0299 12.57 26.3799 11.77 26.6199 9.99997C26.6799 9.54997 26.8199 9.03997 27.0199 8.48997C27.1399 8.20997 27.2599 7.91997 27.3899 7.61997C27.5199 7.37997 27.6399 7.13997 27.7999 6.92997C28.4099 6.07997 29.2499 5.54997 30.4399 5.53997C31.5999 5.49997 33.0099 6.10997 33.8299 7.05997C34.6599 8.01997 34.8899 9.08997 34.5299 10.27C34.3999 10.81 33.8999 11.59 33.5199 12.29C33.3499 12.65 33.1099 12.99 32.8599 13.32C32.6199 13.65 32.3899 13.98 32.1599 14.29C31.1799 15.53 30.2099 16.64 29.2699 17.52C28.9299 17.86 28.5999 18.19 28.2799 18.5C27.9399 18.8 27.6099 19.09 27.2899 19.37C26.6499 19.93 26.0599 20.46 25.4599 20.91C24.8699 21.37 24.3299 21.8 23.8199 22.2C23.2899 22.58 22.8099 22.93 22.3499 23.26C21.4499 23.92 20.6699 24.44 19.9799 24.89C19.2999 25.33 18.7499 25.72 18.2399 26.02C15.2399 27.93 12.4599 29.49 9.8899 30.93C7.3099 32.37 4.8999 33.63 2.5299 34.77V34.78Z" fill="#101214"/>
<path d="M84.53 5.5799C83.59 5.6999 82.77 8.9499 83.54 9.4999C84.63 10.2899 85.84 10.8599 87.46 11.2999C89.33 11.6199 89.96 11.0699 91.17 11.4799C92.2 11.7599 93.51 12.3899 94.5 13.0399C94.75 13.1999 94.98 13.3599 95.16 13.5199C95.25 13.5999 95.36 13.6799 95.42 13.7399C95.47 13.7999 95.51 13.8599 95.55 13.9099C95.58 13.9599 95.64 14.0199 95.64 14.0499C95.64 14.0799 95.62 14.0999 95.61 14.1199C95.59 14.1599 95.56 14.1899 95.54 14.2199C95.52 14.2499 95.51 14.2499 95.52 14.2399C95.55 14.1899 95.78 14.1299 95.85 14.3199C95.85 14.3399 95.87 14.3499 95.84 14.4499C95.8 14.5499 95.83 14.5599 95.73 14.7299C95.59 15.0299 95.42 15.3599 95.21 15.6999C94.8 16.3799 94.29 17.0899 93.74 17.7499C92.31 19.7199 91.35 20.9799 90.87 21.6299C89.73 23.1899 89.14 24.5499 88.81 26.0699C88.63 26.9099 90.98 28.6199 91.72 28.2099C93.06 27.4599 94.18 26.5199 95.36 25.0099C95.81 24.4099 97.38 23.6799 98.84 21.9299C99.08 21.6399 99.25 21.3199 99.36 20.9299C99.6 20.1099 99.95 19.2899 100.32 18.4399C100.51 17.9999 100.7 17.5699 100.88 17.1499C100.99 16.8799 101.09 16.6199 101.19 16.3599C101.29 16.1099 101.36 15.7799 101.45 15.5099C101.77 14.3799 101.75 13.3799 101.6 12.6899C101.44 12.0099 101.25 11.6299 101.25 11.6299C101.25 11.6299 100.99 11.0599 100.31 10.3199C100.13 10.1499 99.92 9.9599 99.7 9.7699C99.45 9.5999 99.19 9.4199 98.91 9.2299C98.62 9.0299 98.4 8.9399 98.12 8.7799C97.84 8.6299 97.6 8.5299 97.36 8.4299C95.43 7.5899 93.37 7.0599 92.12 6.6999C90.27 6.2199 89.38 5.9899 88.83 5.8499C87.18 5.4499 85.84 5.3899 84.51 5.5699L84.53 5.5799Z" fill="#101214"/>
</g>
<defs>
<clipPath id="clip0_448_5746">
<rect width="101.7" height="38.79" fill="white"/>
</clipPath>
</defs>
</svg>
