<svg width="89" height="27" viewBox="0 0 89 27" fill="none" xmlns="http://www.w3.org/2000/svg">
<g clip-path="url(#clip0_448_5725)">
<path d="M0.650209 11.9601C-0.239791 15.1601 2.98021 16.1001 4.37021 13.5501C4.89021 12.6501 5.43021 11.7701 6.02021 10.9601C6.60021 10.1601 7.24021 9.41008 7.86021 8.92008C8.17021 8.66008 8.46021 8.52008 8.69021 8.44008C8.93021 8.35008 9.08021 8.35008 9.27021 8.37008C9.63021 8.41008 10.3802 8.70008 11.2702 9.44008C12.2902 10.2301 13.1702 11.1101 13.9102 11.8901C14.6502 12.6701 15.2802 13.3701 15.8502 14.0401C16.1402 14.3801 16.4002 14.6901 16.6902 15.0501C17.1102 15.6001 17.6202 16.0901 18.1902 16.5101C19.3402 17.3301 20.8002 17.8901 22.5802 17.8301C23.3302 17.7901 24.1102 17.6301 24.8502 17.3101C25.2202 17.1501 25.5902 16.9501 25.9302 16.7201C26.2202 16.5201 26.4602 16.3401 26.7302 16.1401C27.7602 15.3401 28.7202 14.4001 29.5902 13.4001C31.3202 11.4001 32.6902 9.13008 33.9302 7.29008C34.1302 6.99008 34.1402 7.00008 34.2002 6.94008C34.2602 6.88008 34.2902 6.87008 34.3302 6.84008C34.4102 6.79008 34.4802 6.75008 34.5502 6.74008C34.6902 6.70008 34.8302 6.85008 34.8502 6.98008C34.8702 7.04008 34.8702 7.10008 34.8702 7.14008C34.8702 7.18008 34.8502 7.20008 34.8902 7.32008C34.9002 7.36008 34.9102 7.41008 34.9202 7.44008V7.50008C34.9602 7.56008 34.9802 7.61008 35.0002 7.66008C35.0902 7.88008 35.1802 8.07008 35.2502 8.23008C35.4202 8.60008 35.5902 9.01008 35.7902 9.38008C36.1602 10.0501 36.8002 11.3701 37.6002 13.1701C37.8002 13.6401 38.0202 14.1501 38.2502 14.6701C38.3702 14.9301 38.4502 15.2101 38.5802 15.4401C38.7102 15.6601 38.8402 15.8801 38.9702 16.1001C39.2302 16.5501 39.4902 17.0001 39.7602 17.4601C40.0302 17.9201 40.3002 18.3901 40.5802 18.8701C40.6202 19.0301 40.8002 19.0001 40.9302 19.0401L41.3502 19.1101C41.6302 19.1601 41.9202 19.2101 42.2002 19.2501C42.7702 19.3301 43.3602 19.3301 43.9502 19.3801C44.5402 19.3201 45.1602 19.2601 45.7502 19.0601C46.9602 18.7101 48.0802 17.9301 49.0202 16.9301C50.1002 15.7401 50.4302 15.0101 50.8802 14.1501C51.6902 12.4801 52.2002 10.8501 52.7002 9.37008L53.0702 8.31008L53.1902 7.98008L53.2202 7.91008C53.2202 7.91008 53.2602 7.87008 53.2802 7.86008L53.5302 7.64008C53.8102 7.38008 54.0202 7.25008 54.2502 7.07008L54.4202 6.94008C54.4802 6.89008 54.5402 6.85008 54.5302 6.86008L54.6002 6.82008C54.6002 6.82008 54.7002 6.78008 54.7402 6.77008C54.8402 6.75008 54.9402 6.79008 54.9902 6.87008C55.0402 6.92008 55.0602 6.95008 55.1002 7.04008L55.1402 7.11008L55.2202 7.29008C55.3102 7.50008 55.4002 7.71008 55.4902 7.92008C55.8602 8.81008 56.2302 9.75008 56.6402 10.6501C57.4602 12.4701 58.4902 14.1801 59.6802 15.5201C60.8502 16.8901 62.2202 17.8301 63.4002 18.4901C64.6002 19.1501 65.6602 19.4801 66.5202 19.7501C70.6002 20.7501 73.9802 20.2901 76.8402 19.6401C79.7102 18.9501 82.1902 18.0001 84.5102 16.8501C87.0802 15.5901 85.9702 12.8901 83.3502 13.4301C80.9502 13.9301 78.5402 14.3401 75.9802 14.6401C73.4402 14.9201 70.6802 15.0201 68.0202 14.3401C67.0202 14.0101 65.5502 13.3201 64.4002 11.7101C63.8002 10.9201 63.2502 9.90008 62.7202 8.59008C62.4502 7.95008 62.1902 7.19008 61.8902 6.37008C61.7302 5.94008 61.5902 5.52008 61.3802 5.03008L61.2302 4.66008L61.1602 4.48008L61.0202 4.20008C60.8102 3.80008 60.6302 3.39008 60.3902 2.99008C59.7202 1.95008 58.9102 1.02008 57.8602 0.500084C56.8202 -0.0799158 55.6002 -0.0999158 54.4702 0.0800842C53.8702 0.260084 53.2502 0.420084 52.6802 0.760084L51.8302 1.27008C51.5702 1.43008 51.2102 1.62008 51.0802 1.75008C50.7302 2.04008 50.3802 2.34008 50.0302 2.64008L49.0402 3.60008L48.3202 4.28008C48.1302 4.54008 48.0602 4.88008 47.9302 5.18008C47.8202 5.47008 47.6702 5.84008 47.6202 6.01008L47.4402 6.57008C47.2302 7.27008 47.0302 7.97008 46.8202 8.66008C46.4302 9.97008 46.0202 11.1801 45.5302 12.0901C45.4302 12.3001 45.2502 12.5901 45.2002 12.6501C45.1802 12.7001 45.1102 12.7901 45.0602 12.8501C44.9502 12.9901 44.8002 13.0901 44.6502 13.1601C44.4902 13.2201 44.3302 13.2401 44.1702 13.2401C44.0202 13.2101 43.8302 13.2401 43.8202 13.0501C43.6902 12.7001 43.5702 12.3901 43.4702 12.1301C42.9202 10.7101 42.5902 9.88008 42.5902 9.88008C42.5902 9.88008 42.1002 8.64008 41.1502 6.64008C40.9202 6.14008 40.6402 5.59008 40.3202 5.00008C40.2402 4.85008 40.1502 4.69008 40.0702 4.54008C39.9402 4.33008 39.8002 4.12008 39.6702 3.90008C39.4002 3.47008 39.1302 3.02008 38.7402 2.56008C38.5602 2.33008 38.3802 2.10008 38.1902 1.87008C37.9802 1.68008 37.7702 1.49008 37.5502 1.30008C37.4402 1.21008 37.3402 1.10008 37.2202 1.02008L36.8602 0.800084C36.6202 0.650084 36.3802 0.490084 36.1102 0.410084C35.8502 0.310084 35.5802 0.210084 35.2902 0.180084C35.0102 0.110084 34.7102 0.120084 34.4102 0.120084C33.8202 0.190084 33.2402 0.330084 32.7302 0.650084C31.6902 1.22008 30.7802 2.27008 30.0202 3.43008L29.4702 4.29008L29.1402 4.85008L28.5102 5.94008C27.6902 7.36008 26.8802 8.69008 26.0202 9.82008C25.1602 10.9601 24.2502 11.8901 23.3502 12.5601L23.1802 12.6901L23.0902 12.7401C23.0402 12.7801 22.9702 12.8001 22.9202 12.8401C22.8002 12.9001 22.6802 12.9301 22.5602 12.9601C22.3202 13.0001 22.0802 12.9901 21.8602 12.9401C21.5302 12.8701 21.2702 12.7001 21.0602 12.5001C21.0202 12.4401 20.9602 12.4001 20.9202 12.3401C20.8802 12.2901 20.8502 12.2501 20.7202 12.0701C20.5202 11.7801 20.3302 11.4901 20.1402 11.2201C19.3902 10.1301 18.6902 9.20008 18.0502 8.42008C16.7602 6.85008 15.6902 5.81008 14.7602 5.07008C13.3902 3.97008 11.6102 2.96008 9.43021 2.90008C8.36021 2.87008 7.29021 3.14008 6.43021 3.58008C5.57021 4.01008 4.86021 4.56008 4.31021 5.12008C3.19021 6.26008 2.49021 7.44008 1.92021 8.58008C1.35021 9.73008 0.940209 10.8501 0.600209 11.9701L0.650209 11.9601Z" fill="#101214"/>
<path d="M70.5101 3.10018C69.5601 2.99018 67.9401 5.92018 68.5901 6.66018C69.5101 7.72018 70.6201 8.60018 72.2001 9.41018C74.0701 10.1502 74.8201 9.74019 76.0001 10.3802C77.0201 10.8602 78.3101 11.7102 79.3401 12.5202C79.8601 12.9202 80.3101 13.3102 80.6401 13.6402L80.7601 13.7602C80.7601 13.7602 80.7601 13.7902 80.7601 13.8102C80.7601 13.8402 80.7501 13.8702 80.7401 13.8902C80.7301 13.9402 80.7101 13.9702 80.6801 13.9902C80.6601 14.0202 80.6501 14.0202 80.6601 14.0102C80.6801 13.9702 80.9601 13.8802 81.0501 14.0702C81.0701 14.1102 81.0701 14.1602 81.0501 14.2102C81.0101 14.2802 81.0701 14.2602 80.8601 14.4402L80.7501 14.5502L80.6901 14.6102L80.5701 14.7102L80.0801 15.0902C79.7501 15.3402 79.3701 15.5902 79.0201 15.8202C77.0301 17.2502 75.6801 18.1102 75.0001 18.5602C73.3801 19.6402 72.3201 20.7102 71.4401 22.0202C70.9601 22.7402 72.5001 25.2102 73.3601 25.0802C74.9301 24.8402 76.3701 24.3502 78.0601 23.2802C78.7101 22.8602 80.5101 22.6602 82.5401 21.4002C82.8701 21.2002 83.1601 20.9102 83.4001 20.5702C83.9301 19.8402 84.4701 19.1702 85.3801 18.1502C86.3001 17.0502 87.0401 15.9202 87.2901 14.8402C87.5701 13.7602 87.3701 12.7602 87.1001 12.1502C86.8601 11.5202 86.5701 11.2102 86.5901 11.2002C86.5901 11.2002 86.5201 11.0702 86.3301 10.8602C86.1201 10.6702 85.8901 10.3402 85.4701 10.0302C85.2601 9.87018 85.0401 9.70019 84.8001 9.51019C84.5501 9.34019 84.2701 9.17018 83.9801 8.99018C83.8401 8.91018 83.7001 8.82018 83.5601 8.73018C83.4601 8.67018 83.3601 8.62019 83.2501 8.56019C83.0401 8.45019 82.8201 8.33019 82.6001 8.21019C80.8501 7.31019 78.8901 6.41019 77.7401 5.86019C76.0101 5.04019 75.1801 4.64019 74.6701 4.40019C73.1301 3.66019 71.8401 3.29019 70.4901 3.13019L70.5101 3.10018Z" fill="#101214"/>
</g>
<defs>
<clipPath id="clip0_448_5725">
<rect width="87.43" height="25.34" fill="white"/>
</clipPath>
</defs>
</svg>
