<svg width="54" height="76" viewBox="0 0 54 76" fill="none" xmlns="http://www.w3.org/2000/svg">
<g clip-path="url(#clip0_448_5651)">
<path d="M53.1398 73.08C54.1698 72.74 54.2298 69.39 53.1798 69.03C51.6998 68.52 50.1298 68.25 48.1298 68.25C45.8698 68.43 45.3198 69.14 43.8098 69.08C42.5398 69.1 40.8198 68.88 39.4098 68.56C37.9898 68.24 36.9898 67.78 36.7498 67.58C36.6498 67.53 36.5698 67.5 36.4998 67.48C36.4298 67.48 36.3298 67.46 36.1998 67.45C36.1398 67.42 35.9598 67.42 35.9098 67.39C35.7298 67.34 35.6498 67.41 35.4498 67.11C35.2498 66.82 35.0498 66.12 34.9998 65.25C34.9398 64.39 34.9798 63.41 35.1098 62.44C35.3098 59.69 35.5998 57.87 35.7098 56.95C35.9998 54.75 35.9198 53.04 35.5398 51.31C35.3298 50.36 32.4598 49.91 31.9698 50.75C31.0898 52.29 30.4898 53.91 30.1398 56.17C30.0298 57.06 28.9398 58.75 28.5698 61.49C28.5198 61.94 28.5298 62.39 28.6398 62.86C29.1098 64.85 29.2298 67.21 30.2598 69.46C30.7898 70.59 31.6198 71.47 32.2398 71.98C32.5598 72.2 32.8198 72.38 32.9898 72.5C33.1698 72.62 33.2598 72.66 33.2598 72.66C33.2598 72.66 33.4098 72.73 33.6698 72.85C33.9398 72.99 34.2998 73.11 34.7498 73.26C35.6398 73.53 36.7998 73.74 37.9498 73.82C40.2698 74 42.7599 73.94 44.2399 73.93C46.4499 73.89 47.5098 73.87 48.1698 73.86C50.1398 73.82 51.6598 73.55 53.1198 73.07L53.1398 73.08Z" fill="#101214"/>
<path d="M1.90961 4.77002C-0.680392 6.25002 0.939608 9.19002 3.47961 8.50002C7.11961 7.53002 10.8896 6.62002 15.7296 6.61002C16.4096 6.61002 17.0296 6.61002 17.5996 6.61002C17.8896 6.61002 18.1596 6.59002 18.4196 6.58002C18.6796 6.58002 18.9296 6.61002 19.1696 6.62002C20.1396 6.66002 20.9496 6.70002 21.7096 6.74002C23.1996 6.97002 24.5396 7.06002 26.2896 7.85002C26.6596 8.00002 27.0596 8.15002 27.4596 8.31002C27.8396 8.52002 28.2396 8.73002 28.6496 8.95002C29.0496 9.17002 29.4696 9.40002 29.8896 9.63002C30.3096 9.86002 30.6896 10.18 31.0996 10.45C31.9096 11.02 32.7396 11.58 33.4696 12.28C34.2196 12.94 34.9796 13.58 35.6196 14.31C36.9796 15.68 38.0396 17.15 38.9196 18.34C39.6996 19.61 40.3696 20.55 40.6496 21.15C40.8296 21.49 41.0296 21.82 41.2496 22.14C41.4496 22.42 41.7296 22.82 42.0796 23.32C42.3896 23.85 42.7596 24.49 43.1796 25.22C43.6396 25.93 43.9996 26.81 44.4496 27.74C44.9296 28.66 45.2796 29.71 45.6896 30.81C45.7896 31.09 45.8896 31.36 45.9996 31.65C46.0796 31.94 46.1596 32.23 46.2396 32.53C46.3996 33.12 46.5596 33.73 46.7296 34.34C46.8896 34.96 46.9596 35.59 47.0896 36.23C47.1896 36.87 47.3496 37.52 47.3796 38.18C47.4296 38.84 47.4896 39.5 47.5396 40.16C47.6096 40.82 47.5396 41.49 47.5396 42.15C47.5696 43.48 47.3596 44.78 47.1996 46.06C47.1096 46.97 46.8596 47.79 46.7196 48.6C46.5896 49.41 46.3196 50.14 46.0996 50.84C45.7196 52.26 45.1196 53.43 44.6696 54.48C43.6296 56.53 42.7196 57.96 41.9896 58.87C38.6996 63.27 35.3996 65.96 31.9796 68.53C30.1196 69.94 31.2396 72.63 33.6796 71.71C34.7696 71.29 35.9096 70.91 36.9496 70.28C37.4796 69.98 38.0296 69.68 38.5696 69.38C39.1196 69.08 39.6796 68.75 40.1896 68.33C42.3096 66.79 44.5296 64.89 46.4796 62.22C46.8396 61.69 47.4396 61.11 47.9896 60.3C48.5396 59.48 49.2596 58.56 49.9496 57.43C50.2696 56.85 50.5996 56.23 50.9496 55.58C51.1196 55.25 51.2996 54.91 51.4796 54.56C51.6396 54.2 51.7796 53.83 51.9296 53.45C52.2196 52.69 52.5296 51.88 52.8196 51.03C53.0396 50.17 53.2596 49.26 53.4696 48.32C53.6296 47.71 53.6896 47.08 53.7296 46.46C53.7696 45.84 53.7896 45.21 53.7996 44.59C53.7696 39.22 52.5696 33.32 51.0496 28.94C50.3396 26.73 49.4796 24.92 48.9396 23.61C48.2996 22.34 47.9196 21.6 47.9196 21.6C47.9196 21.6 47.7696 21.32 47.5096 20.83C47.2696 20.32 46.7996 19.65 46.2696 18.8C45.9996 18.38 45.6996 17.91 45.3896 17.42C45.0396 16.95 44.6596 16.44 44.2596 15.92C43.8496 15.4 43.4596 14.82 42.9796 14.29C42.4996 13.75 41.9996 13.2 41.4996 12.64C41.0096 12.06 40.4396 11.53 39.8596 10.99C39.2796 10.46 38.7196 9.89002 38.1096 9.38002C36.8396 8.41002 35.6296 7.35002 34.2796 6.57002C33.6196 6.16002 32.9996 5.72002 32.3496 5.37002C31.6896 5.03002 31.0496 4.71002 30.4396 4.39002C29.8296 4.07002 29.2396 3.78002 28.6496 3.58002C28.0696 3.36002 27.5196 3.15002 27.0196 2.95002C26.2696 2.63002 25.5396 2.44002 24.8496 2.27002C24.1596 2.09002 23.5196 1.92002 22.9196 1.76002C21.7096 1.51002 20.6496 1.40002 19.7496 1.25002C18.8496 1.08002 18.0696 1.13002 17.3996 1.08002C16.7396 1.06002 16.1796 1.04002 15.6996 1.02002C9.84961 1.06002 5.50961 2.74002 1.90961 4.77002Z" fill="#101214"/>
</g>
<defs>
<clipPath id="clip0_448_5651">
<rect width="53.95" height="72.95" fill="white" transform="translate(0 1)"/>
</clipPath>
</defs>
</svg>
