<svg width="210" height="72" viewBox="0 0 210 72" fill="none" xmlns="http://www.w3.org/2000/svg">
<g clip-path="url(#clip0_448_5774)">
<path d="M1.91995 25.25C1.54995 26.11 1.25995 26.87 1.09995 27.55C0.96995 28.24 0.91995 28.83 0.92995 29.32C0.94995 30.29 1.22995 30.85 1.66995 31C2.10995 31.15 2.69995 30.89 3.34995 30.23C3.66995 29.9 4.00995 29.48 4.33995 28.94C4.69995 28.42 5.11995 27.83 5.50995 27.12C5.76995 26.6 6.09995 26.13 6.42995 25.67C6.76995 25.21 7.05995 24.71 7.41995 24.27C8.15995 23.4 8.87995 22.51 9.74995 21.76C11.4199 20.2 13.3599 18.9 15.5799 17.99C19.9999 16.18 25.5899 15.98 31.3899 17.79C34.6899 18.78 37.2199 20.06 39.2299 21.36C41.2299 22.66 42.7299 23.98 43.8899 25.33C45.0399 26.68 45.9 28.07 46.31 29.61C46.5 30.38 46.6 31.17 46.5 31.99C46.43 32.4 46.4199 32.83 46.2299 33.24C46.1599 33.45 46.0899 33.67 46.0099 33.89C45.9099 34.04 45.82 34.18 45.75 34.35C45.42 34.8 45.0599 35.04 44.5299 35.12C43.9999 35.21 43.28 35.03 42.74 34.62C42.19 34.21 41.87 33.67 41.82 33.12C41.79 32.84 41.84 32.52 41.95 32.17L41.9799 32.04L42.07 31.82L42.25 31.37L42.61 30.47C44.52 25.67 46.98 20.89 50 17.08C51.51 15.18 53.14 13.52 54.79 12.17C56.48 10.88 58.1299 9.78004 59.7599 9.11004C62.9699 7.64004 65.7699 7.33004 67.3199 7.21004C67.7799 7.18004 68.2399 7.12004 68.6999 7.11004C69.1699 7.11004 69.6399 7.09004 70.0999 7.06004C71.7699 7.01004 74.9299 7.07004 79.1499 8.00004C80.1999 8.19004 81.3199 8.54004 82.4899 8.83004C83.6499 9.20004 84.8899 9.54004 86.1499 10C88.6899 10.86 91.4 11.98 94.2299 13.26C105.57 18.38 118.52 26.53 130.52 34.13C139.05 39.43 146.08 43.62 151.79 46.74C157.49 49.87 161.86 51.92 164.88 53.28C172.05 56.43 178.72 58.55 185.14 59.49C188.35 59.94 191.49 60.1 194.56 59.94C197.63 59.75 200.61 59.19 203.45 58.3C204.23 58.03 204.89 57.77 205.44 57.48C205.98 57.16 206.4 56.85 206.72 56.56C207.36 55.97 207.57 55.46 207.41 55.09C207.25 54.71 206.73 54.47 205.91 54.43C205.5 54.41 205.02 54.43 204.46 54.52C203.89 54.57 203.25 54.66 202.53 54.82C199.9 55.33 197.21 55.56 194.46 55.5C191.71 55.41 188.89 55.07 185.98 54.5C180.17 53.33 174 51.2 167.14 48.16C164.48 46.97 160.48 44.86 155.36 41.83C150.23 38.8 143.98 34.84 136.6 30.19C134.19 28.68 131.75 27.22 129.28 25.83C118.63 19.84 106.5 12.58 96.2799 7.98004C91.1999 5.63004 86.5999 4.00004 83.2499 3.04004C81.5799 2.55004 80.2099 2.24004 79.2799 2.03004C78.8199 1.92004 78.4499 1.84004 78.1999 1.81004C77.9499 1.77004 77.8199 1.74004 77.8199 1.74004C77.8199 1.74004 77.06 1.59004 75.66 1.39004C74.96 1.32004 74.0999 1.20004 73.0999 1.12004C72.0899 1.10004 70.95 0.970043 69.66 1.04004C67.11 1.08004 64.01 1.41004 60.75 2.50004C57.48 3.55004 54.1 5.41004 51.16 7.96004C48.2 10.49 45.66 13.63 43.56 16.97C41.47 20.32 39.8199 23.86 38.4199 27.32C38.0899 28.19 37.76 29.05 37.43 29.91L37.31 30.23L37.25 30.39L37.18 30.62C37.09 30.94 37.0099 31.25 36.9399 31.57C36.8499 31.88 36.85 32.23 36.83 32.57C36.83 32.91 36.7799 33.24 36.8499 33.59C36.9699 34.98 37.5899 36.26 38.3899 37.27C39.2099 38.28 40.25 38.96 41.34 39.45C42.45 39.9 43.65 40.09 44.86 39.99C46.06 39.83 47.28 39.44 48.2 38.68C49.16 37.97 49.8 37.04 50.25 36.16C50.51 35.71 50.5699 35.34 50.7299 34.94C50.8499 34.54 51.02 34.17 51.09 33.77C51.67 31.38 51.3099 29.06 50.6699 27.19C50.3899 26.21 49.9099 25.41 49.5299 24.58C49.0399 23.84 48.63 23.06 48.11 22.44C46.12 19.85 44 18.15 42.11 16.82C38.27 14.25 35.27 13.16 32.99 12.45C26.07 10.3 19.0599 10.64 13.4499 13.26C10.6499 14.56 8.25995 16.39 6.34995 18.47C5.34995 19.49 4.56995 20.63 3.77995 21.75C3.39995 22.32 3.09995 22.92 2.75995 23.5C2.41995 24.08 2.09995 24.66 1.85995 25.28L1.91995 25.25Z" fill="#101214"/>
<path d="M190.19 44.28C189.11 44.36 188.25 47.59 189.16 48.19C190.45 49.04 191.87 49.69 193.76 50.2C195.95 50.61 196.66 50.08 198.08 50.55C199.29 50.88 200.86 51.57 202.08 52.27C202.69 52.62 203.22 52.98 203.55 53.28C203.63 53.35 203.71 53.42 203.79 53.49C203.88 53.56 203.82 53.56 203.83 53.6C203.83 53.65 203.82 53.69 203.8 53.72C203.78 53.75 203.77 53.75 203.78 53.74C203.8 53.72 203.86 53.68 203.92 53.69C204.01 53.69 204.07 53.75 204.09 53.85C204.09 53.86 204.09 53.87 204.09 53.89L203.99 54.12C203.93 54.27 203.87 54.43 203.76 54.62C203.58 54.98 203.34 55.38 203.09 55.78C202.56 56.59 201.95 57.43 201.3 58.21C199.56 60.56 198.48 62.01 197.92 62.77C196.59 64.6 195.87 66.17 195.42 67.89C195.17 68.83 197.55 70.51 198.36 69.99C199.83 69.03 201.08 67.9 202.42 66.13C202.94 65.43 204.66 64.49 206.32 62.49C206.59 62.16 206.8 61.79 206.95 61.37C207.27 60.46 207.7 59.55 208.15 58.61C208.38 58.13 208.61 57.66 208.83 57.21C209.06 56.68 209.26 56.3 209.51 55.56C209.95 54.26 210.01 53.08 209.84 52.28C209.76 51.88 209.63 51.58 209.57 51.36C209.48 51.16 209.42 51.05 209.42 51.05C209.42 51.05 209.33 50.89 209.16 50.61C208.95 50.36 208.69 49.96 208.25 49.57C207.81 49.16 207.24 48.77 206.57 48.4C206.06 48.15 205.52 47.88 204.97 47.67C202.78 46.79 200.39 46.18 198.96 45.77C196.82 45.21 195.79 44.94 195.16 44.78C193.25 44.3 191.7 44.18 190.17 44.29L190.19 44.28Z" fill="#101214"/>
</g>
<defs>
<clipPath id="clip0_448_5774">
<rect width="209.95" height="69.52" fill="white" transform="translate(0 1)"/>
</clipPath>
</defs>
</svg>
