<svg width="85" height="75" viewBox="0 0 85 75" fill="none" xmlns="http://www.w3.org/2000/svg">
<g clip-path="url(#clip0_448_5836)">
<path d="M23.6498 4.05C24.2398 3.93 24.7698 3.89 25.2198 3.76C25.6798 3.64 26.0598 3.49 26.3798 3.31C27.0098 2.95 27.3598 2.5 27.3998 2.04C27.4298 1.58 27.1398 1.11 26.4898 0.729995C26.1598 0.539995 25.7398 0.369995 25.2398 0.229995C24.7298 0.0999953 24.1298 -0.0400047 23.4398 -4.66174e-06C19.5398 -0.0600047 15.2998 0.739995 11.3098 3.06C10.8198 3.36 10.3198 3.66 9.8198 3.96C9.3598 4.32 8.8898 4.69 8.4098 5.06L7.6998 5.63L7.0498 6.28C6.6198 6.72 6.1698 7.16 5.7398 7.62C4.1098 9.55 2.6998 11.8 1.6298 14.36C0.4798 17.3 0.1598 19.85 0.0198002 22C0.00980025 23.09 -0.0401998 24.08 0.0798002 25.01C0.1198 25.47 0.1698 25.92 0.2098 26.36C0.2698 26.8 0.3698 27.22 0.4398 27.63C0.5198 28.04 0.5998 28.45 0.6798 28.85C0.7998 29.25 0.9098 29.64 1.0298 30.03C1.1498 30.42 1.2498 30.81 1.3898 31.19C1.5398 31.57 1.6998 31.96 1.8498 32.35C2.4598 33.91 3.3498 35.5 4.6198 37.25C4.9198 37.6 5.2398 37.95 5.5498 38.31C5.7098 38.49 5.8698 38.68 6.0398 38.85L6.6098 39.34C6.9898 39.67 7.3798 40.01 7.7898 40.33C8.2298 40.61 8.6798 40.89 9.1398 41.18C9.5898 41.49 10.0798 41.7 10.5898 41.91C11.0998 42.11 11.5998 42.37 12.1398 42.52C13.2198 42.78 14.3098 43.13 15.4398 43.16C19.9598 43.61 24.4098 42.34 28.0998 40.67C29.0698 40.31 29.8998 39.78 30.7798 39.34C31.2498 39.09 31.7198 38.84 32.1798 38.6C32.5498 38.45 32.8098 38.1 33.1098 37.84L33.5898 37.4C34.8498 36.24 36.0298 35.16 37.1098 34.21C39.2698 32.3 40.9998 30.85 41.9898 30.06C42.5698 29.59 43.1298 29.1 43.6798 28.6C44.6598 27.7 46.4898 26.06 49.0098 24.05C51.5298 22.05 54.7598 19.68 58.5598 17.7C60.4598 16.73 62.5098 15.89 64.5698 15.45C66.6398 14.98 68.6698 15.02 70.3298 15.75C71.9998 16.44 73.4398 17.85 74.4998 19.79C75.0098 20.78 75.4998 21.79 75.8498 22.92L76.1398 23.74L76.3598 24.6L76.4998 25.17C76.4998 25.17 76.5298 25.25 76.4998 25.28L76.3498 25.65C76.2098 26.02 76.0298 26.38 75.8498 26.73C75.5198 27.44 75.1498 28.12 74.7798 28.77C74.0298 30.08 73.2198 31.29 72.3998 32.41C70.7498 34.66 69.0598 36.58 67.5298 38.35C65.9998 40.12 64.6198 41.74 63.5098 43.31C62.3898 44.87 61.5598 46.41 61.0198 47.78C60.3898 49.42 60.0998 51.27 60.2198 53.02C60.2998 54.8 60.8898 56.35 61.4898 57.75C62.8298 60.45 64.5398 62.45 66.2598 64.13C69.6998 67.51 73.2198 69.87 76.7398 72.08C80.6698 74.43 82.2598 71.99 78.8598 69.16C75.8198 66.52 72.7298 63.85 69.9498 60.67C68.5498 59.1 67.2898 57.34 66.4498 55.49C65.6698 53.61 65.4998 51.82 66.2598 49.8C66.5898 49.01 67.1398 48.01 68.0498 46.84C68.9598 45.66 70.2098 44.32 71.7098 42.76C73.2098 41.19 74.9598 39.4 76.7698 37.19C78.5698 34.99 80.4398 32.36 81.9698 29.18C82.0998 28.93 82.2198 28.67 82.3298 28.4L82.7598 27.34L83.3398 25.9L83.4098 25.72C83.3998 25.66 83.3798 25.6 83.3598 25.53L83.2598 25.16L83.0498 24.42C82.7198 23.24 82.6198 22.96 82.4398 22.36C82.2898 21.82 82.0498 21.28 81.8298 20.75C80.9198 18.47 79.6098 16.07 77.6898 13.96C77.4498 13.7 77.2198 13.43 76.9598 13.18L76.1098 12.47C75.8198 12.24 75.5598 11.99 75.2398 11.79L74.2798 11.21C73.6598 10.79 72.9498 10.53 72.2498 10.26C71.5698 9.94 70.8298 9.85 70.1198 9.67C67.2398 9.13 64.5098 9.54 62.1398 10.2C59.7598 10.87 57.6598 11.81 55.7698 12.75C52.0298 14.7 49.1198 16.72 47.0798 18.18C45.0498 19.65 43.8998 20.56 43.8998 20.56C43.8998 20.56 42.1598 21.91 39.5098 24.21C36.8498 26.5 33.3298 29.79 29.6298 33.5L29.0998 34.03C29.0998 34.03 28.9098 34.14 28.5998 34.33C28.0598 34.64 27.5098 34.95 26.9698 35.26C26.4298 35.6 25.8598 35.83 25.2898 36.09C24.7198 36.34 24.1498 36.62 23.5798 36.86C21.2598 37.71 18.8898 38.27 16.6698 38.27C14.4498 38.27 12.4898 37.62 10.9598 36.61C9.4198 35.59 8.2898 34.25 7.5098 32.95C6.3398 30.98 5.8098 28.92 5.5398 27.13C5.2298 25.32 5.3198 23.72 5.3998 22.36C5.6598 19.62 6.3198 17.82 6.7998 16.47C7.6298 14.46 8.6898 12.71 9.8798 11.19C10.2098 10.83 10.5298 10.48 10.8498 10.13L11.3198 9.60999L11.8498 9.16C12.1998 8.86 12.5398 8.55 12.8798 8.26C13.2498 8 13.6198 7.75 13.9898 7.5C16.9498 5.51 20.2498 4.48 23.6198 4.07L23.6498 4.05Z" fill="#101214"/>
<path d="M82.9097 46.83C82.5097 45.55 79.1597 45.67 78.8697 46.99C78.4497 48.87 78.2697 50.84 78.3897 53.34C78.6997 56.17 79.4397 56.83 79.4597 58.74C79.5497 60.35 79.4297 62.52 79.1897 64.37C79.0697 65.29 78.9197 66.13 78.7497 66.75C78.5997 67.4 78.4097 67.76 78.3297 68C78.2797 68.07 78.2697 68.07 78.2797 68.11C78.2797 68.23 78.3597 68.1799 78.3697 68.2799C78.3897 68.3599 78.3597 68.46 78.2197 68.5C78.2097 68.5 78.2197 68.5 78.1897 68.5L78.0297 68.48L77.7097 68.44C77.4997 68.43 77.2297 68.34 76.9697 68.29C76.4597 68.18 75.8697 67.99 75.2997 67.8C74.1297 67.4 72.8997 66.88 71.7397 66.32C68.3697 64.9 66.2497 63.94 65.1497 63.47C62.5297 62.35 60.4397 61.81 58.2597 61.57C57.0597 61.44 55.9297 64.1199 56.8397 64.8899C58.4997 66.2899 60.2997 67.45 62.8897 68.61C63.8997 69.05 65.6597 70.72 68.6397 72.15C69.1297 72.38 69.6497 72.5399 70.1997 72.6299C71.3797 72.8199 72.6297 73.1199 73.8797 73.4199C74.5097 73.5699 75.1397 73.7199 75.7897 73.8499C76.0997 73.9199 76.4297 73.9799 76.7697 74.0299C77.1097 74.0799 77.3697 74.14 77.8597 74.16C79.5997 74.31 81.0697 73.84 81.9097 73.23C82.3097 72.9 82.6297 72.63 82.7997 72.4C82.9697 72.17 83.0597 72.05 83.0597 72.05C83.0597 72.05 83.0897 72 83.1597 71.91C83.2197 71.82 83.3297 71.7 83.4197 71.51C83.5897 71.14 83.8997 70.5599 84.0497 69.8899C84.2697 69.1299 84.3197 68.57 84.4097 67.87C84.4597 67.22 84.5197 66.5 84.5197 65.8C84.5797 62.95 84.3697 59.8499 84.2797 57.9799C84.1197 55.1999 84.0397 53.86 83.9897 53.04C83.8297 50.56 83.4797 48.6399 82.9097 46.8199V46.83Z" fill="#101214"/>
</g>
<defs>
<clipPath id="clip0_448_5836">
<rect width="84.53" height="74.2" fill="white"/>
</clipPath>
</defs>
</svg>
