<svg width="170" height="60" viewBox="0 0 170 60" fill="none" xmlns="http://www.w3.org/2000/svg">
<g clip-path="url(#clip0_448_5753)">
<path d="M2.57984 29.99C-0.870165 33.35 1.40983 35.79 5.19983 33.08C6.54983 32.11 7.89984 31.12 9.26984 30.09C10.6898 29.13 12.1498 28.14 13.6598 27.11C14.4098 26.59 15.1698 26.05 15.9598 25.51C16.7398 24.97 17.5898 24.48 18.4298 23.94C20.1298 22.9 21.8498 21.7 23.7598 20.59C25.9198 19.32 27.6498 18.25 29.1298 17.31C30.6398 16.42 31.9298 15.73 33.1098 15.04C34.3098 14.39 35.3798 13.68 36.6198 13.14C37.8498 12.58 39.1698 12.02 40.7498 11.39C46.1198 9.36001 53.5898 7.22001 60.3998 6.53001C67.1898 5.74001 73.1498 5.82001 75.4398 6.01001C76.1198 6.06001 76.7998 6.08001 77.4798 6.07001C78.0898 6.07001 78.9598 6.03001 80.0498 6.07001C81.1398 6.13001 82.4398 6.21001 83.9298 6.30001C85.4298 6.34001 87.0798 6.61001 88.8898 6.82001C89.7898 6.95001 90.7398 7.02001 91.6998 7.21001C92.6598 7.39001 93.6498 7.59001 94.6698 7.78001C96.7198 8.11001 98.8198 8.74001 101 9.28001C102.1 9.53001 103.18 9.93001 104.28 10.27C105.38 10.64 106.5 10.97 107.6 11.37C109.78 12.25 112.04 13.02 114.18 14.07C115.26 14.57 116.34 15.05 117.4 15.58C118.44 16.14 119.47 16.69 120.5 17.23C132.04 23.51 138.1 29.08 141.2 31.9C144.84 35.31 147.8 38.49 150.41 41.53C152.95 44.62 155.12 47.58 157.02 50.67C158.92 54.08 161.73 53.23 160.27 49.09C158.81 45.45 156.89 41.97 154.43 38.44C151.91 34.96 148.88 31.43 145.03 27.79C144.26 27.1 143.32 26.2 142.2 25.09C141.07 24 139.68 22.8 138.12 21.39C134.9 18.73 130.81 15.48 125.51 12.46C123.79 11.46 121.98 10.64 120.19 9.83001C112.36 6.53001 103.08 3.64001 95.6398 2.17001C91.9398 1.35001 88.6898 1.00001 86.3998 0.630014C84.0898 0.410014 82.7298 0.280014 82.7298 0.280014C82.7298 0.280014 82.2198 0.240014 81.2998 0.160014C80.8398 0.130014 80.2798 0.0600139 79.6298 0.0400139C78.9798 0.0300139 78.2298 0.0200139 77.4098 1.39065e-05C75.7698 1.39065e-05 73.8198 -0.129986 71.6598 0.0300139C69.4998 0.140014 67.1298 0.190014 64.6798 0.540014C63.4498 0.680014 62.1998 0.830014 60.9198 0.970014C59.6598 1.17001 58.3898 1.43001 57.1198 1.65001C55.8498 1.91001 54.5598 2.07001 53.3198 2.41001C52.0798 2.73001 50.8398 3.04001 49.6298 3.35001C47.1898 3.90001 44.9398 4.76001 42.8298 5.42001C40.7098 6.06001 38.8598 6.87001 37.2698 7.51001C36.0698 8.00001 34.9498 8.45001 33.8998 8.88001C32.8798 9.37001 31.9298 9.83001 31.0398 10.26C29.2798 11.13 27.7298 11.83 26.4498 12.53C23.9098 13.97 22.1698 14.96 20.8398 15.72C18.8498 16.89 17.0798 18.17 15.3398 19.32C14.4898 19.91 13.6298 20.46 12.8398 21.06C12.0598 21.67 11.2998 22.28 10.5598 22.87C9.07984 24.06 7.65983 25.2 6.30983 26.35C5.00984 27.56 3.76984 28.75 2.54984 29.94L2.57984 29.99Z" fill="#101214"/>
<path d="M145.55 49.4799C144.5 49.2899 142.82 52.1899 143.56 53.0099C144.6 54.1699 145.86 55.1599 147.68 56.0999C149.86 56.9699 150.67 56.5799 152.13 57.2399C153.4 57.7299 155.07 58.5599 156.89 59.0899C157.34 59.2299 157.79 59.3499 158.26 59.4199C158.71 59.5199 159.17 59.5599 159.6 59.5899C160.02 59.6399 160.43 59.6099 160.78 59.5899C161.13 59.5699 161.41 59.5499 161.63 59.4999C161.88 59.4499 162.13 59.3799 162.36 59.2699C162.77 59.0699 163.56 58.6599 164.4 57.9099C165.22 57.1699 166.05 56.1099 166.6 54.9699C167.72 52.6799 168.17 50.1999 168.64 48.0299C169.09 44.9199 169.17 43.0799 169.24 42.1099C169.37 39.8199 169.1 38.1199 168.53 36.4399C168.22 35.5199 165.31 35.4199 164.92 36.2899C164.22 37.8999 163.8 39.5299 163.63 41.7099C163.57 42.5599 162.65 44.2699 162.2 46.5899C162.12 46.9599 162.11 47.3399 162.18 47.7299C162.45 49.3999 162.14 51.2199 161.62 52.2199C161.37 52.7199 161.1 53.0299 160.9 53.1899C160.71 53.3699 160.57 53.3999 160.58 53.4099C160.58 53.4199 160.41 53.5299 160.1 53.6599C159.8 53.7999 159.24 53.8899 158.49 53.8599C156.98 53.8299 154.79 53.0599 153.56 52.5499C151.66 51.7899 150.75 51.3099 150.19 51.0499C148.49 50.2199 147.05 49.7399 145.56 49.4699L145.55 49.4799Z" fill="#101214"/>
</g>
<defs>
<clipPath id="clip0_448_5753">
<rect width="169.27" height="59.6" fill="white"/>
</clipPath>
</defs>
</svg>
