<svg width="132" height="168" viewBox="0 0 132 168" fill="none" xmlns="http://www.w3.org/2000/svg">
<g clip-path="url(#clip0_448_5463)">
<path d="M1.03756 163.55C1.85756 169.25 5.17756 168.78 5.06756 163.24C4.98756 155.34 5.12756 147.08 6.34756 136.56C6.49756 135.07 6.63756 133.71 6.76756 132.47C6.93756 131.23 7.09756 130.11 7.23756 129.07C7.50756 126.99 7.69756 125.23 8.00756 123.63C8.27756 122.01 8.52756 120.51 8.82756 118.92C9.19756 117.34 9.63756 115.68 10.2076 113.72C10.6276 112.04 11.3076 110.29 11.9376 108.42C12.2676 107.49 12.5776 106.53 12.9476 105.58C13.3376 104.63 13.7376 103.67 14.1376 102.69C14.5376 101.72 14.9476 100.74 15.3576 99.75L16.7376 96.86C17.1976 95.9 17.6676 94.94 18.1176 93.99C18.5776 93.04 19.1176 92.14 19.5976 91.24C21.5176 87.6 23.6176 84.36 25.3176 81.69C27.1476 79.1 28.5276 77.03 29.3976 75.94C29.9076 75.29 30.3876 74.63 30.8576 73.95C31.2776 73.34 31.8676 72.48 32.6076 71.39C33.4076 70.34 34.3676 69.09 35.4576 67.66C36.5176 66.2 37.8576 64.69 39.2876 63.02C40.0176 62.2 40.7176 61.29 41.5476 60.45C42.3676 59.6 43.2076 58.72 44.0676 57.81C45.7476 55.96 47.7476 54.24 49.7076 52.37C50.6776 51.43 51.7876 50.6 52.8376 49.69C53.9176 48.81 54.9576 47.86 56.0976 47.03C58.3776 45.36 60.6276 43.57 63.0476 42.06C64.2476 41.29 65.4176 40.48 66.6276 39.74C67.8576 39.04 69.0776 38.34 70.2876 37.64C71.9576 36.6 73.6576 35.8 75.2376 34.97C76.0276 34.56 76.7976 34.16 77.5576 33.78C78.3076 33.4 79.0776 33.09 79.8076 32.75C81.2676 32.1 82.6576 31.48 83.9576 30.9C85.2876 30.39 86.5476 29.91 87.7276 29.46C90.0676 28.51 92.1576 27.89 93.9476 27.33C94.8376 27.05 95.6576 26.79 96.4076 26.55C97.1576 26.31 97.8476 26.17 98.4676 26C110.088 22.93 119.038 21.7 127.898 20.83C132.758 20.38 132.868 17.46 127.818 17.22C126.668 17.17 125.518 17.12 124.368 17.07C123.208 17.05 122.048 17.1 120.858 17.13C119.678 17.17 118.478 17.2 117.258 17.24C116.038 17.28 114.808 17.45 113.548 17.57C112.288 17.7 110.998 17.84 109.688 17.98C108.378 18.16 107.038 18.42 105.668 18.66C104.298 18.92 102.868 19.12 101.438 19.47C100.008 19.83 98.5276 20.2 96.9976 20.57C96.4076 20.72 95.7276 20.88 94.9776 21.06C94.2276 21.27 93.4076 21.49 92.5076 21.74C90.7076 22.25 88.5676 22.72 86.2176 23.56C85.0376 23.95 83.7876 24.37 82.4676 24.81C81.1376 25.24 79.8076 25.85 78.3776 26.41C76.9676 27.02 75.4476 27.55 73.9576 28.32C72.4576 29.06 70.8876 29.84 69.2676 30.64C67.1976 31.76 65.1976 33.04 63.2476 34.32C54.9076 40.02 46.1276 47.53 39.8576 53.99C36.6676 57.17 34.1876 60.15 32.3476 62.18C30.6176 64.32 29.5976 65.58 29.5976 65.58C29.5976 65.58 29.2176 66.05 28.5376 66.91C27.8276 67.74 26.9576 69.06 25.8076 70.63C25.2376 71.42 24.6176 72.29 23.9576 73.21C23.3376 74.17 22.6776 75.19 21.9876 76.27C21.3076 77.35 20.5376 78.46 19.8476 79.66C19.1576 80.86 18.4376 82.11 17.7076 83.38C11.7876 93.54 7.04756 106.57 4.93756 114.46C4.05756 117.41 3.51756 120.04 2.99756 122.32C2.43756 124.6 2.15756 126.59 1.84756 128.3C1.19756 131.72 0.987561 134.1 0.757561 135.91C-0.482439 146.87 -0.0724394 155.51 1.01756 163.56L1.03756 163.55Z" fill="#101214"/>
<path d="M108.098 0.370085C106.688 -0.109915 104.878 2.70008 105.918 3.78008C107.388 5.31008 109.078 6.70008 111.398 8.20008C114.118 9.75008 115.158 9.59009 116.868 10.8101C118.348 11.7901 120.198 13.3201 121.588 14.7701C123.008 16.2201 123.798 17.5401 123.918 17.9801C123.988 18.1201 124.058 18.2301 124.128 18.3301C124.278 18.5101 124.538 18.8301 124.698 19.2201C124.868 19.6101 124.998 20.1101 124.848 20.9901C124.538 22.7601 123.008 25.4601 121.328 27.7001C119.058 31.0101 117.498 33.0701 116.728 34.1401C114.878 36.6901 113.738 38.8001 112.878 41.0501C112.408 42.2901 114.758 44.0001 115.788 43.1901C117.668 41.7001 119.348 40.0101 121.248 37.4801C121.978 36.4801 124.158 34.9301 126.398 31.9501C126.758 31.4701 127.058 30.9301 127.288 30.3401C127.798 29.1001 128.388 27.7601 128.968 26.4301C129.538 25.0701 130.068 23.6701 130.388 22.2601C130.708 20.8401 130.678 19.4401 130.528 18.4701C130.438 17.9901 130.328 17.6101 130.268 17.3501C130.208 17.0901 130.148 16.9601 130.148 16.9601C130.148 16.9601 130.068 16.7701 129.918 16.4201C129.778 16.0501 129.518 15.6001 129.188 15.0601C128.508 14.0001 127.428 12.7801 126.208 11.7001C123.768 9.56008 120.818 7.62008 119.078 6.47008C116.448 4.79008 115.188 3.98008 114.408 3.48008C112.048 2.01008 110.088 1.08008 108.098 0.390085V0.370085Z" fill="#101214"/>
</g>
<defs>
<clipPath id="clip0_448_5463">
<rect width="131.57" height="167.8" fill="white" transform="translate(0.0175781)"/>
</clipPath>
</defs>
</svg>
