<svg width="230" height="91" viewBox="0 0 230 91" fill="none" xmlns="http://www.w3.org/2000/svg">
<g clip-path="url(#clip0_448_5806)">
<path d="M69.2905 47.56C70.0905 49.92 71.4505 50.69 72.2905 50.36C73.1705 50.02 73.5805 48.66 73.2205 46.57C72.7205 43.58 72.6805 40.53 73.4705 37.51C74.2805 34.5 75.9305 31.48 78.7205 28.63C81.8605 25.36 84.3605 23.65 86.4905 22.16C88.6605 20.7 90.6305 19.55 93.7005 18.29C98.8705 16.08 106.25 14.08 112.93 12.84C119.61 11.58 125.55 10.94 127.85 10.7C128.53 10.63 129.21 10.53 129.89 10.42C132.31 10 138.84 8.93 147.15 8.1C155.45 7.25 165.53 6.66 174.86 6.61C188.04 6.37 196.19 6.68 200.44 6.82C205.45 7.01 209.83 7.18 213.88 7.33C217.9 7.5 221.65 7.62 225.15 7.98C226.1 8.08 226.8 8.03 227.2 7.85C227.32 7.81 227.35 7.74 227.45 7.68C227.43 7.68 227.55 7.49 227.66 7.37C227.71 7.31 227.78 7.25 227.83 7.21C227.85 7.18 227.88 7.15 227.9 7.12C227.95 7.07 228.02 7.04 228.07 7.03C228.07 7.03 228.08 7.02 228.09 7.01C228.11 7.01 228.12 7.01 228.12 7.01H228.19C228.24 7.01 228.29 7.01 228.34 6.99C228.44 6.94 228.52 6.81 228.52 6.67C228.52 6.35 228.35 6.03 228.13 5.75C227.67 5.19 226.91 4.73 225.87 4.43C222.13 3.38 218.39 2.79 214.29 2.27C210.19 1.77 205.74 1.41 200.65 1.2C196.69 1.06 188.46 -0.0300026 176.79 -2.60572e-06C174.89 -2.60572e-06 172.99 0.0999974 171.11 0.279997C163 1.03 153.7 1.75 146.42 2.47C139.15 3.17 133.9 3.79 133.9 3.79C133.9 3.79 131.94 4.03 128.81 4.48C125.68 4.94 121.36 5.63 116.66 6.57C111.96 7.51 106.87 8.73 102.19 10.13C97.5105 11.52 93.2505 13.13 90.1305 14.53C85.4405 16.63 82.1205 18.66 79.7105 20.39C77.3005 22.13 75.7705 23.58 74.6605 24.73C71.2805 28.2 69.1305 32.34 68.3905 36.39C67.6405 40.45 68.1905 44.25 69.2805 47.56H69.2905Z" fill="#101214"/>
<path d="M61.55 36.4799C60.69 35.8299 57.9 37.6799 58.19 38.7299C58.59 40.2199 59.22 41.6399 60.35 43.2999C61.78 45.0699 62.68 45.1199 63.54 46.4099C64.34 47.4599 65.25 48.9999 66.3 50.4299C66.81 51.1499 67.41 51.8399 68.01 52.4099C68.62 52.9799 69.24 53.4299 69.67 53.6499C69.92 53.7799 70.13 53.8999 70.45 53.9499C70.98 54.0599 71.99 54.2599 73.29 53.9999C74.6 53.7699 75.88 53.0699 76.84 52.3199C78.76 50.7999 80.22 49.0299 81.76 47.5699C83.72 45.4099 84.93 44.0799 85.57 43.3799C87.05 41.7599 87.93 40.3499 88.63 38.7599C89.01 37.8899 86.97 35.8099 86.08 36.2099C84.45 36.9299 83.03 37.9199 81.46 39.5599C80.86 40.1899 79.02 41.0199 77.22 42.7899C76.92 43.0799 76.69 43.4099 76.51 43.7899C75.74 45.4299 74.51 46.9599 73.57 47.6799C72.6 48.3699 72.41 48.1499 72.39 48.1899C72.39 48.1699 72.27 48.1899 72.09 48.1399C71.87 48.0699 71.37 47.8199 70.74 47.2699C69.48 46.1999 68.02 44.2699 67.19 43.1699C65.92 41.4699 65.33 40.6099 64.96 40.0899C63.84 38.5199 62.77 37.3999 61.55 36.4799Z" fill="#101214"/>
<path d="M160.51 42.8099C159.71 40.4499 158.35 39.6899 157.51 40.0099C156.63 40.3499 156.22 41.7099 156.58 43.7999C157.08 46.7899 157.12 49.8399 156.33 52.8599C155.52 55.8699 153.87 58.8899 151.08 61.7399C147.94 65.0099 145.44 66.7199 143.31 68.2099C141.14 69.6699 139.17 70.8199 136.1 72.0799C130.93 74.2899 123.55 76.2899 116.87 77.5299C110.19 78.7899 104.25 79.4299 101.95 79.6699C101.27 79.7399 100.59 79.8399 99.9103 79.9499C97.4903 80.3699 90.9603 81.4399 82.6503 82.2699C74.3503 83.1199 64.2703 83.7099 54.9403 83.7599C41.7603 83.9999 33.6103 83.6899 29.3603 83.5499C24.3503 83.3599 19.9703 83.1899 15.9203 83.0399C11.9003 82.8699 8.15027 82.7499 4.65027 82.3899C3.70027 82.2899 3.00027 82.3399 2.60027 82.5199C2.48027 82.5599 2.45027 82.6299 2.35027 82.6899C2.37027 82.6899 2.25027 82.8799 2.14027 82.9999C2.09027 83.0599 2.02027 83.1199 1.97027 83.1599C1.95027 83.1899 1.92027 83.2199 1.90027 83.2499C1.85027 83.2999 1.78027 83.3299 1.73027 83.3399C1.73027 83.3399 1.72027 83.3499 1.71027 83.3599C1.69027 83.3599 1.68027 83.3599 1.68027 83.3599H1.61027C1.56027 83.3599 1.51027 83.3599 1.46027 83.3799C1.36027 83.4299 1.28027 83.5599 1.28027 83.6999C1.28027 84.0199 1.45027 84.3399 1.67027 84.6199C2.13027 85.1799 2.89027 85.6399 3.93027 85.9399C7.67027 86.9899 11.4103 87.5799 15.5103 88.0999C19.6103 88.5999 24.0603 88.9599 29.1503 89.1699C33.1003 89.3199 41.3303 90.4099 53.0003 90.3799C54.9003 90.3799 56.8003 90.2799 58.6803 90.0999C66.7903 89.3499 76.0903 88.6299 83.3703 87.9099C90.6403 87.2099 95.8903 86.5899 95.8903 86.5899C95.8903 86.5899 97.8503 86.3499 100.98 85.8999C104.11 85.4399 108.43 84.7499 113.13 83.8099C117.83 82.8699 122.92 81.6499 127.6 80.2499C132.28 78.8599 136.54 77.2499 139.66 75.8499C144.35 73.7499 147.67 71.7199 150.08 69.9899C152.49 68.2399 154.02 66.7999 155.13 65.6499C158.51 62.1799 160.66 58.0399 161.4 53.9899C162.15 49.9299 161.6 46.1299 160.51 42.8199V42.8099Z" fill="#101214"/>
<path d="M168.251 53.9001C169.111 54.5501 171.901 52.7001 171.611 51.6501C171.211 50.1601 170.581 48.7401 169.451 47.0801C168.021 45.3101 167.121 45.2601 166.261 43.9701C165.461 42.9201 164.551 41.3801 163.501 39.9501C162.991 39.2301 162.391 38.5401 161.791 37.9701C161.181 37.4001 160.561 36.9501 160.131 36.7301C159.881 36.6001 159.671 36.4801 159.351 36.4301C158.821 36.3201 157.811 36.1201 156.511 36.3801C155.201 36.6101 153.921 37.3101 152.961 38.0601C151.041 39.5801 149.581 41.3501 148.041 42.8101C146.081 44.9701 144.871 46.3001 144.231 47.0001C142.751 48.6201 141.871 50.0301 141.171 51.6201C140.791 52.4901 142.831 54.5701 143.721 54.1701C145.351 53.4501 146.771 52.4601 148.341 50.8201C148.941 50.1901 150.781 49.3601 152.581 47.5901C152.881 47.3001 153.111 46.9701 153.291 46.5901C154.061 44.9501 155.291 43.4201 156.231 42.7001C157.201 42.0101 157.391 42.2301 157.411 42.1901C157.411 42.2101 157.531 42.1901 157.711 42.2401C157.931 42.3101 158.431 42.5601 159.061 43.1101C160.321 44.1801 161.781 46.1101 162.611 47.2101C163.881 48.9101 164.471 49.7701 164.841 50.2901C165.961 51.8601 167.031 52.9801 168.251 53.9001Z" fill="#101214"/>
</g>
<defs>
<clipPath id="clip0_448_5806">
<rect width="229.8" height="90.37" fill="white"/>
</clipPath>
</defs>
</svg>
