<svg width="300" height="96" viewBox="0 0 300 96" fill="none" xmlns="http://www.w3.org/2000/svg">
<g clip-path="url(#clip0_448_5929)">
<path d="M277.97 15.8C278.06 11.6 276.93 9.49997 276.02 9.59997C275.09 9.66997 274.35 11.63 273.93 15.55C273.31 21.11 272.1 26.75 270.11 32.61C269.12 35.55 267.87 38.51 266.42 41.55C264.88 44.54 263.21 47.67 261.04 50.71C260.75 51.15 260.46 51.58 260.18 52C259.88 52.4 259.58 52.8 259.29 53.19C258.71 53.96 258.16 54.7 257.64 55.41C256.5 56.76 255.49 58 254.52 59.12C253.5 60.2 252.57 61.2 251.69 62.13C250.78 63.03 249.88 63.84 249.04 64.64C248.61 65.03 248.21 65.44 247.78 65.81C247.34 66.17 246.91 66.52 246.47 66.88C245.6 67.58 244.74 68.3 243.83 69C242.88 69.65 241.89 70.32 240.84 71.03C240.31 71.37 239.78 71.76 239.19 72.1C238.6 72.43 237.99 72.77 237.35 73.13C233.11 75.66 227.75 77.95 222.05 79.96C220.61 80.42 219.15 80.88 217.69 81.35C216.24 81.83 214.71 82.13 213.23 82.53C212.48 82.72 211.74 82.91 211 83.09L209.89 83.37L208.77 83.59C207.28 83.88 205.79 84.16 204.33 84.44C203.6 84.57 202.88 84.73 202.16 84.84C201.44 84.94 200.72 85.03 200.01 85.13C198.59 85.32 197.21 85.51 195.86 85.69C194.52 85.9 193.2 85.98 191.94 86.08C190.68 86.18 189.47 86.28 188.33 86.37C186.05 86.59 183.96 86.65 182.21 86.73C180.46 86.81 179.03 86.87 178 86.91C176.79 86.96 175.58 87.04 174.36 87.14C172.19 87.32 168.2 87.71 162.9 87.99C157.6 88.29 151 88.78 143.64 88.98C128.92 89.63 111.15 89.72 94.7199 89.29C91.8199 89.23 89.0499 89.17 86.4299 89.12C83.7999 89.06 81.3099 88.95 78.9399 88.87C74.2099 88.71 70.0099 88.57 66.2999 88.37C62.5899 88.19 59.3699 88.03 56.5999 87.9C53.8399 87.73 51.5399 87.6 49.6599 87.48C31.9599 86.4 18.7399 85.6 5.74988 84.81C2.17988 84.59 0.319884 85.18 0.219884 85.99C0.109884 86.8 1.79988 87.84 5.34988 88.4C18.2799 90.45 31.5299 91.95 49.3099 93.09C56.2199 93.53 70.5799 95.16 90.9699 95.79C94.2899 95.88 97.6099 95.91 100.9 95.84C108.01 95.58 115.64 95.55 123.1 95.28C126.83 95.19 130.51 95.1 134.05 95.01C137.6 94.88 141.01 94.76 144.2 94.64C150.58 94.47 156.08 94.15 159.98 93.98C163.88 93.81 166.18 93.71 166.18 93.71C166.18 93.71 167.04 93.67 168.59 93.59C170.14 93.48 172.37 93.32 175.13 93.12C177.89 92.92 181.16 92.69 184.79 92.43C186.6 92.33 188.52 92.07 190.5 91.87C191.49 91.76 192.5 91.66 193.52 91.55C194.54 91.45 195.58 91.33 196.62 91.14C204.98 90.03 213.99 87.95 222.12 85.19C230.27 82.44 237.45 78.85 242.52 75.72C250.14 70.94 255.09 66.34 258.61 62.67C260.28 60.74 261.77 59.19 262.86 57.69C263.42 56.96 263.94 56.29 264.42 55.66C264.9 55.04 265.28 54.42 265.66 53.88C268 50.57 269.78 47.17 271.37 43.91C272.87 40.6 274.11 37.36 275.05 34.18C276.93 27.81 277.82 21.73 277.97 15.8Z" fill="#101214"/>
<path d="M295.89 33.6C297.33 34.92 300 32.89 299.11 31.15C297.86 28.68 296.34 26.24 294.13 23.3C291.48 20.08 290.3 19.67 288.66 17.38C287.22 15.48 285.46 12.79 283.94 10.36C283.19 9.13998 282.49 7.98998 281.91 7.04998C281.84 6.92998 281.77 6.81998 281.7 6.69998L281.6 6.52998L281.41 6.23998C281.14 5.83998 280.89 5.46998 280.67 5.12998C280.2 4.42998 279.82 3.86998 279.55 3.45998C279.22 2.96998 278.87 2.49998 278.52 2.05998C278.34 1.82998 278.12 1.54998 276.9 -0.0200195C275.83 1.13998 273.06 4.14998 269.58 7.90998C267.39 10.28 264.72 13.08 262.12 15.58C258.29 19.5 255.92 21.93 254.68 23.19C251.77 26.2 249.83 28.67 248.13 31.3C247.2 32.75 249.28 34.79 250.71 33.83C253.31 32.08 255.75 30.09 258.69 27.12C259.83 25.96 262.77 24.1 266.22 20.79C266.78 20.25 267.29 19.65 267.74 19.01C269.68 16.25 272.23 13.37 274.28 11.19C274.75 10.7 275.19 10.24 275.58 9.82998C275.7 9.70998 275.81 9.59998 275.91 9.50998C276.09 9.33998 276.2 9.25998 276.2 9.25998L276.33 9.12998L285.24 20.88C287.73 24.14 288.93 25.71 289.67 26.68C291.91 29.59 293.85 31.71 295.9 33.58L295.89 33.6Z" fill="#101214"/>
</g>
<defs>
<clipPath id="clip0_448_5929">
<rect width="299.36" height="95.89" fill="white"/>
</clipPath>
</defs>
</svg>
