<svg width="44" height="243" viewBox="0 0 44 243" fill="none" xmlns="http://www.w3.org/2000/svg">
<g clip-path="url(#clip0_448_5959)">
<path d="M37.2401 4.80999C45.2501 4.45999 45.2501 1.10999 37.2401 0.75999C32.2301 0.53999 27.1001 0.36999 21.5701 0.23999C18.8101 0.18999 15.9401 0.13999 12.9401 0.0799902C11.4401 0.0599902 9.90008 0.0499902 8.33008 0.0299902C5.76008 0.0199902 3.13008 0.00999023 0.430078 -0.0100098C0.430078 2.14999 0.420078 4.99999 0.410078 7.91999C0.570078 25.3 1.26008 29.63 1.18008 41.41C1.18008 61.31 0.250078 94.88 0.0200781 102.97C-0.00992188 104.17 -0.0199219 105.36 -0.00992188 106.56C0.120078 115.13 0.620078 152.72 0.380078 185.09C0.380078 207.95 0.400078 222.1 0.400078 229.49C0.420078 234.21 0.440078 238.68 0.460078 242.14C3.14008 242.12 5.75008 242.1 8.29008 242.08C9.85008 242.05 11.3801 242.03 12.8701 242.01C15.8501 241.94 18.6901 241.87 21.4401 241.81C26.9401 241.65 32.0601 241.45 37.1401 241.19C44.1701 240.84 44.1701 237.93 37.1401 237.58C32.0601 237.33 26.9301 237.12 21.4401 236.96C18.6901 236.9 15.8501 236.83 12.8701 236.76C11.3801 236.74 9.86008 236.71 8.29008 236.69C7.90008 236.69 7.51008 236.68 7.11008 236.67H6.66008C6.43008 236.65 6.20008 236.64 5.97008 236.63C5.97008 236.44 5.98008 236.23 5.99008 236.01C5.99008 235.58 6.00008 235.13 6.01008 234.66C6.01008 233.03 6.02008 231.28 6.03008 229.48C6.03008 222.7 6.83008 208.57 6.97008 188.62C6.99008 185.37 6.94008 182.12 6.81008 178.9C5.72008 151.08 6.03008 114.97 6.03008 114.97C6.03008 114.97 6.04008 61.08 6.05008 38.34C6.05008 21.21 6.04008 12.97 6.03008 7.90999C6.03008 7.03999 6.02008 6.19999 6.01008 5.55999C8.44008 5.52999 10.7401 5.49999 12.9401 5.46999C15.9401 5.41999 18.8101 5.35999 21.5701 5.30999C27.1001 5.17999 32.2201 5.00999 37.2401 4.78999V4.80999Z" fill="#101214"/>
</g>
<defs>
<clipPath id="clip0_448_5959">
<rect width="43.25" height="242.16" fill="white"/>
</clipPath>
</defs>
</svg>
