<svg width="44" height="242" viewBox="0 0 44 242" fill="none" xmlns="http://www.w3.org/2000/svg">
<g clip-path="url(#clip0_448_5964)">
<path d="M6.01043 0.77001C-1.99957 1.12001 -1.99957 4.47001 6.01043 4.82001C11.0204 5.04001 16.1504 5.21001 21.6804 5.34001C24.4404 5.39001 27.3104 5.44001 30.3104 5.50001C31.8104 5.52001 33.3504 5.53001 34.9204 5.55001C35.3104 5.55001 35.7104 5.55001 36.1104 5.56001H36.3304H36.4104L36.7104 5.58001C36.7104 5.66001 36.7104 5.76001 36.7004 5.87001C36.7004 6.36001 36.7004 6.88001 36.7004 7.40001C36.8604 24.78 37.5504 29.11 37.4704 40.89C37.4704 60.79 36.5404 94.36 36.3104 102.45C36.2804 103.65 36.2704 104.84 36.2904 106.04C36.4204 114.61 36.9204 152.2 36.6804 184.57C36.6804 207.43 36.7004 221.58 36.7004 228.97C36.7004 230.77 36.7104 232.52 36.7204 234.15C36.7204 234.49 36.7204 234.82 36.7204 235.14V235.29C36.7404 235.39 36.7404 235.49 36.7504 235.59L36.4204 235.62H36.3304L36.2904 235.63H36.1304C35.7304 235.63 35.3404 235.64 34.9504 235.65C33.3904 235.68 31.8604 235.7 30.3704 235.72C27.3904 235.79 24.5504 235.86 21.8004 235.92C16.3004 236.08 11.1804 236.28 6.10043 236.54C-0.929571 236.89 -0.929571 239.8 6.10043 240.15C11.1804 240.4 16.3104 240.61 21.8004 240.77C24.5504 240.83 27.3904 240.9 30.3704 240.97C31.8604 240.99 33.3804 241.02 34.9504 241.04C37.3204 241.06 39.7504 241.08 42.2504 241.1C42.2704 237.79 42.2904 233.5 42.3104 228.98C42.3104 222.2 43.1104 208.07 43.2504 188.12C43.2704 184.87 43.2204 181.62 43.0904 178.4C42.0004 150.58 42.3004 114.47 42.3004 114.47C42.3004 114.47 42.3104 60.58 42.3204 37.84C42.3204 20.71 42.3104 12.47 42.3004 7.41001C42.3004 4.68001 42.2904 2.02001 42.2804 0.0100098C39.7604 0.0200098 37.3104 0.0300098 34.9104 0.0500098C33.3404 0.0700098 31.8004 0.0900098 30.3004 0.10001C27.3004 0.15001 24.4304 0.21001 21.6704 0.26001C16.1404 0.39001 11.0204 0.56001 6.00043 0.78001L6.01043 0.77001Z" fill="#101214"/>
</g>
<defs>
<clipPath id="clip0_448_5964">
<rect width="43.25" height="241.11" fill="white"/>
</clipPath>
</defs>
</svg>
