<svg width="116" height="112" viewBox="0 0 116 112" fill="none" xmlns="http://www.w3.org/2000/svg">
<g clip-path="url(#clip0_448_5577)">
<path d="M72.3498 30.4301C72.5298 31.2901 75.8098 31.9501 76.3198 31.2301C77.0298 30.2101 77.5298 29.0801 77.8598 27.5701C78.0498 25.8201 77.4598 25.2601 77.7698 24.1101C78.1598 22.1401 79.7398 19.0101 80.1298 18.2601C80.1898 18.1501 80.2198 18.0301 80.2298 17.9101C80.2798 17.0401 80.5298 13.2301 81.4098 10.0801C81.8598 7.82006 82.1298 6.42006 82.2798 5.69006C82.5998 3.96006 82.5298 2.61006 82.1598 1.22006C81.9598 0.460062 79.0998 -0.119938 78.6198 0.510062C77.7398 1.65006 77.1498 2.87006 76.7698 4.59006C76.6298 5.26006 75.5698 6.50006 75.0298 8.44006C74.9398 8.76006 74.9298 9.09006 74.9898 9.43006C75.4998 12.3901 74.4898 15.9001 74.4898 15.9001C74.4898 15.9001 73.4098 21.2201 72.9498 23.4601C72.6198 25.1501 72.4598 25.9701 72.3598 26.4701C72.0798 27.9901 72.0998 29.2201 72.3598 30.4401L72.3498 30.4301Z" fill="#101214"/>
<path d="M41.46 32.4901C42.12 33.0801 45.15 31.6701 45.13 30.7901C45.1 29.5401 44.84 28.3401 44.21 26.9301C43.33 25.4101 42.52 25.3001 42.09 24.1901C41.24 22.3701 40.67 18.9101 40.54 18.0801C40.52 17.9601 40.48 17.8401 40.41 17.7401C39.93 17.0101 37.88 13.7901 36.73 10.7301C35.75 8.64006 35.15 7.35006 34.84 6.68006C34.08 5.10006 33.22 4.05006 32.1 3.14006C31.49 2.64006 28.84 3.87006 28.82 4.66006C28.78 6.10006 29.03 7.43006 29.74 9.04006C30.02 9.66006 29.89 11.2901 30.61 13.1701C30.73 13.4801 30.91 13.7501 31.16 13.9901C33.32 16.0801 34.58 19.5001 34.58 19.5001C34.58 19.5001 36.85 24.4301 37.81 26.5101C38.54 28.0701 38.89 28.8201 39.11 29.2901C39.78 30.6801 40.53 31.6601 41.46 32.4901Z" fill="#101214"/>
<path d="M30.4298 48.6401C31.2898 48.4601 31.9498 45.1801 31.2298 44.6701C30.2098 43.9601 29.0798 43.4601 27.5698 43.1301C25.8198 42.9401 25.2598 43.5301 24.1098 43.2201C22.1398 42.8301 19.0098 41.2501 18.2598 40.8601C18.1498 40.8001 18.0298 40.7701 17.9098 40.7601C17.0398 40.7101 13.2298 40.4601 10.0798 39.5801C7.81982 39.1301 6.41982 38.8601 5.68982 38.7101C3.95982 38.3901 2.60982 38.4601 1.21982 38.8301C0.459818 39.0301 -0.120182 41.8901 0.509818 42.3701C1.64982 43.2501 2.86982 43.8401 4.58982 44.2201C5.25982 44.3601 6.49982 45.4201 8.43982 45.9601C8.75982 46.0501 9.08982 46.0601 9.42982 46.0001C12.3898 45.4901 15.8998 46.5001 15.8998 46.5001C15.8998 46.5001 21.2198 47.5801 23.4598 48.0401C25.1498 48.3701 25.9698 48.5301 26.4698 48.6301C27.9898 48.9101 29.2198 48.8901 30.4398 48.6301L30.4298 48.6401Z" fill="#101214"/>
<path d="M33.12 72.2801C33.66 71.5901 32.05 68.6501 31.18 68.7301C29.94 68.8401 28.76 69.1901 27.39 69.9101C25.93 70.8901 25.88 71.7101 24.8 72.2101C23.04 73.1801 19.63 73.9801 18.8 74.1701C18.68 74.2001 18.57 74.2501 18.47 74.3201C17.77 74.8401 14.7 77.1101 11.72 78.4701C9.71 79.5801 8.46 80.2701 7.81 80.6401C6.28 81.5101 5.29 82.4401 4.47 83.6101C4.02 84.2601 5.42 86.8101 6.2 86.7801C7.64 86.7201 8.95 86.3901 10.51 85.5701C11.11 85.2401 12.74 85.2601 14.57 84.4201C14.87 84.2801 15.13 84.0801 15.35 83.8101C17.28 81.5101 20.62 80.0301 20.62 80.0301C20.62 80.0301 25.38 77.43 27.4 76.34C28.91 75.5 29.63 75.1001 30.08 74.8501C31.42 74.0901 32.35 73.2801 33.11 72.2901L33.12 72.2801Z" fill="#101214"/>
<path d="M48.64 80.4501C48.46 79.5901 45.18 78.9301 44.67 79.6501C43.96 80.6701 43.46 81.8001 43.13 83.3101C42.94 85.0601 43.53 85.6201 43.22 86.7701C42.83 88.7401 41.25 91.8701 40.86 92.6201C40.8 92.7301 40.77 92.8501 40.76 92.9701C40.71 93.8401 40.46 97.6501 39.58 100.8C39.13 103.06 38.86 104.46 38.71 105.19C38.39 106.92 38.46 108.27 38.83 109.66C39.03 110.42 41.89 111 42.37 110.37C43.25 109.23 43.84 108.01 44.22 106.29C44.36 105.62 45.42 104.38 45.96 102.44C46.05 102.12 46.06 101.79 46 101.45C45.49 98.4901 46.5 94.9801 46.5 94.9801C46.5 94.9801 47.58 89.6601 48.04 87.4201C48.37 85.7301 48.53 84.9101 48.63 84.4101C48.91 82.8901 48.89 81.6601 48.63 80.4401L48.64 80.4501Z" fill="#101214"/>
<path d="M68.79 81.3301C68.2 80.6801 65.03 81.7401 64.95 82.6201C64.84 83.8601 64.98 85.09 65.45 86.56C66.16 88.17 66.95 88.3601 67.26 89.5101C67.9 91.4101 68.1 94.9101 68.14 95.7601C68.14 95.8901 68.18 96.0001 68.23 96.1101C68.62 96.8901 70.31 100.31 71.13 103.48C71.87 105.66 72.33 107.01 72.57 107.71C73.15 109.37 73.9 110.5 74.91 111.52C75.47 112.08 78.23 111.15 78.33 110.37C78.52 108.94 78.43 107.59 77.89 105.92C77.67 105.27 77.98 103.67 77.47 101.72C77.39 101.4 77.23 101.11 77.01 100.84C75.08 98.53 74.21 94.99 74.21 94.99C74.21 94.99 72.49 89.84 71.76 87.67C71.2 86.04 70.93 85.25 70.77 84.77C70.26 83.31 69.62 82.2601 68.79 81.3301Z" fill="#101214"/>
<path d="M83.4597 66.9801C82.6097 66.7701 80.5697 69.4201 80.9997 70.1901C81.6097 71.2801 82.3997 72.2201 83.6097 73.1801C85.0897 74.1201 85.8597 73.8301 86.7597 74.6201C88.3497 75.8401 90.4697 78.6301 90.9697 79.3101C91.0397 79.4101 91.1397 79.4901 91.2397 79.5501C91.9997 79.9801 95.3097 81.8801 97.7597 84.0501C99.5897 85.4401 100.73 86.3101 101.32 86.7601C102.73 87.8101 103.98 88.3401 105.39 88.6201C106.16 88.7701 107.94 86.4601 107.59 85.7501C106.95 84.4601 106.12 83.3901 104.74 82.3001C104.2 81.8801 103.56 80.3801 102.05 79.0501C101.8 78.8301 101.51 78.6801 101.18 78.5801C98.2897 77.7401 95.5897 75.2901 95.5897 75.2901C95.5897 75.2901 91.2897 71.9801 89.4697 70.5801C88.0997 69.5401 87.4297 69.0401 87.0297 68.7301C85.7897 67.8101 84.6697 67.2901 83.4697 66.9901L83.4597 66.9801Z" fill="#101214"/>
<path d="M84.3599 44.8501C83.6099 45.3101 84.0599 48.6201 84.9099 48.8601C86.1099 49.2001 87.3399 49.3001 88.8699 49.1101C90.5799 48.7201 90.9199 47.9701 92.1099 47.8801C94.0899 47.6001 97.5699 48.0701 98.4099 48.1901C98.5299 48.2101 98.6499 48.1901 98.7699 48.1701C99.6099 47.9301 103.29 46.9101 106.55 46.7001C108.83 46.3801 110.24 46.1801 110.98 46.0701C112.72 45.8101 113.97 45.2901 115.16 44.4801C115.81 44.0401 115.42 41.1501 114.67 40.9001C113.31 40.4401 111.96 40.2901 110.21 40.5001C109.53 40.5901 108.01 39.9901 106.01 40.1301C105.68 40.1501 105.37 40.2501 105.06 40.4201C102.43 41.8801 98.7899 42.0701 98.7899 42.0701C98.7899 42.0701 93.4099 42.8001 91.1399 43.1001C89.4299 43.3401 88.6099 43.4601 88.1099 43.5301C86.5799 43.7601 85.4299 44.1901 84.3599 44.8401V44.8501Z" fill="#101214"/>
</g>
<defs>
<clipPath id="clip0_448_5577">
<rect width="115.61" height="111.84" fill="white"/>
</clipPath>
</defs>
</svg>
