<svg width="152" height="166" viewBox="0 0 152 166" fill="none" xmlns="http://www.w3.org/2000/svg">
<g clip-path="url(#clip0_448_5631)">
<path d="M78.2002 1.1901C77.9302 -0.159901 74.5902 -0.369901 74.1602 0.950099C73.5502 2.8201 73.1802 4.8101 73.0402 7.3801C73.0802 10.3101 73.7502 11.0601 73.6202 13.0401C73.5102 16.3801 72.6002 22.0501 72.4102 23.4301C72.3802 23.6301 72.3802 23.8401 72.4102 24.0401C72.5502 25.5001 73.2702 31.8401 73.5302 37.3001C73.8702 41.1501 74.1502 43.5101 74.2802 44.7501C74.6302 47.6701 75.2402 49.8001 76.1402 51.8401C76.6302 52.9601 79.5202 52.5801 79.7202 51.3801C80.0802 49.1901 80.1502 47.0001 79.8602 44.1301C79.7402 43.0101 80.2702 40.6001 80.1302 37.3301C80.1102 36.8001 80.0102 36.2701 79.8402 35.7501C79.1102 33.5101 78.7502 30.9001 78.5902 28.8401C78.4402 26.7901 78.4702 25.3001 78.4702 25.3001C78.4702 25.3001 78.4002 23.0801 78.3902 20.4001C78.3902 17.7101 78.4302 14.5501 78.5002 12.6701C78.5602 9.8401 78.6402 8.4801 78.6602 7.6401C78.7602 5.1001 78.5902 3.1101 78.2102 1.2001L78.2002 1.1901Z" fill="#101214"/>
<path d="M90.9699 62.0501C90.0799 62.9501 91.6999 65.8701 92.9299 65.5901C94.6799 65.1901 96.3899 64.5401 98.4399 63.4401C100.67 62.0301 100.91 61.1001 102.51 60.3001C105.15 58.8301 110.06 57.1801 111.25 56.7901C111.43 56.7301 111.59 56.6501 111.74 56.5501C112.82 55.8101 117.56 52.6001 121.98 50.4301C125.01 48.7401 126.89 47.6901 127.87 47.1501C130.17 45.8401 131.74 44.5901 133.13 43.0901C133.89 42.2701 132.48 39.7201 131.38 39.9301C129.37 40.3101 127.47 40.9701 125.15 42.2401C124.25 42.7401 121.98 43.0701 119.27 44.4201C118.83 44.6401 118.42 44.9301 118.06 45.2701C114.89 48.2701 109.95 50.6601 109.95 50.6601C109.95 50.6601 102.79 54.6101 99.7699 56.2801C97.4999 57.5501 96.4099 58.1601 95.7399 58.5301C93.7099 59.6801 92.2599 60.7901 90.9899 62.0601L90.9699 62.0501Z" fill="#101214"/>
<path d="M103.6 82.9601C102.38 83.3701 102.56 86.7201 103.81 87.0001C105.59 87.4001 107.44 87.5701 109.8 87.4801C112.46 87.2101 113.1 86.4801 114.91 86.4901C117.98 86.3601 123.11 87.2401 124.32 87.4901C124.5 87.5201 124.68 87.5401 124.86 87.5201C125.51 87.4701 127.26 87.3301 129.46 87.3001C131.66 87.2801 134.33 87.3601 136.79 87.6801C140.28 87.9401 142.44 88.1501 143.57 88.2501C146.25 88.4801 148.28 88.3401 150.31 87.9101C151.43 87.6701 151.73 84.7801 150.68 84.3201C148.77 83.4801 146.8 82.9401 144.1 82.6601C143.05 82.5601 140.94 81.5501 137.84 81.1601C137.33 81.1001 136.82 81.1201 136.31 81.2101C134.1 81.5901 131.59 81.6501 129.62 81.6201C127.66 81.6101 126.24 81.5101 126.24 81.5101C126.24 81.5101 124.12 81.4601 121.57 81.4801C119.01 81.4901 116.02 81.5801 114.26 81.6401C111.6 81.7601 110.32 81.8201 109.53 81.8501C107.15 81.9901 105.32 82.3501 103.59 82.9401L103.6 82.9601Z" fill="#101214"/>
<path d="M104.3 102.71C103.57 101.58 100.39 102.63 100.45 103.95C100.54 105.83 100.84 107.72 101.56 110.1C102.57 112.76 103.46 113.23 104.04 115.08C105.13 118.17 106.42 123.56 106.73 124.86C106.78 125.05 106.84 125.23 106.94 125.41C107.6 126.65 110.52 132.01 112.47 136.85C114.01 140.2 114.96 142.27 115.46 143.36C116.65 145.91 117.84 147.67 119.28 149.28C120.07 150.16 122.71 148.94 122.56 147.77C122.28 145.63 121.71 143.58 120.56 141.02C120.11 140.03 119.89 137.63 118.69 134.65C118.5 134.17 118.23 133.71 117.9 133.29C115.05 129.67 113.01 124.24 113.01 124.24C113.01 124.24 109.56 116.33 108.45 112.97C107.55 110.44 107.17 109.19 106.92 108.42C106.17 106.09 105.34 104.31 104.3 102.71Z" fill="#101214"/>
<path d="M77.2902 114.8C76.9202 113.49 73.5702 113.55 73.2402 114.87C72.7702 116.74 72.5402 118.7 72.5602 121.22C72.7602 124.07 73.4602 124.77 73.4102 126.7C73.4602 129.97 72.5802 135.47 72.3502 136.8C72.3202 137 72.3102 137.19 72.3302 137.39C72.4702 138.79 72.9902 144.94 72.6902 150.23C72.6502 153.97 72.6202 156.29 72.6002 157.5C72.5702 160.36 72.8702 162.5 73.4502 164.62C73.7702 165.78 76.6802 165.85 77.0602 164.7C77.7502 162.61 78.1302 160.47 78.2102 157.6C78.2302 156.48 79.0802 154.17 79.2502 150.89C79.2802 150.35 79.2302 149.82 79.1102 149.29C78.0702 144.7 78.3602 138.75 78.3602 138.75C78.3602 138.75 78.2902 129.88 78.2602 126.14C78.2102 123.33 78.1902 121.97 78.1702 121.14C78.1102 118.62 77.8102 116.67 77.2802 114.81L77.2902 114.8Z" fill="#101214"/>
<path d="M52.5801 105.64C53.1601 104.48 50.6701 102.24 49.5801 102.92C48.0301 103.89 46.5901 105.08 44.9801 106.81C43.2801 108.89 43.3401 109.86 42.0401 111.13C39.9501 113.39 35.7001 116.46 34.6601 117.17C34.5101 117.28 34.3701 117.4 34.2501 117.54C33.4301 118.57 29.7001 122.99 25.8701 126.2C23.2801 128.59 21.6801 130.07 20.8401 130.85C18.8601 132.68 17.5901 134.28 16.5401 136.08C15.9601 137.07 17.9001 139.24 18.9501 138.77C20.8501 137.92 22.5901 136.82 24.6201 135.01C25.4001 134.3 27.5701 133.42 29.9501 131.4C30.3401 131.07 30.6701 130.68 30.9501 130.25C32.1701 128.37 33.8301 126.5 35.1901 125.09C36.5501 123.68 37.6001 122.73 37.6001 122.73C37.6001 122.73 39.0801 121.23 40.8701 119.41C42.6401 117.58 44.7001 115.4 45.9001 114.11C47.7001 112.14 48.5701 111.2 49.1001 110.62C50.6901 108.85 51.7401 107.29 52.5601 105.65L52.5801 105.64Z" fill="#101214"/>
<path d="M48.2801 86.5801C49.5301 86.2301 49.5301 82.8801 48.2801 82.5301C46.5001 82.0301 44.6401 81.7701 42.2401 81.7501C39.5201 81.9101 38.8501 82.6001 37.0001 82.5201C33.8901 82.5201 28.6401 81.5901 27.3701 81.3601C27.1801 81.3301 27.0001 81.3201 26.8101 81.3301C25.4701 81.4601 19.5901 81.9601 14.5301 81.7201C10.9601 81.7201 8.74012 81.7401 7.59012 81.7401C4.86012 81.7701 2.82012 82.1101 0.820117 82.7401C-0.279883 83.0901 -0.279883 86.0001 0.820117 86.3501C2.82012 86.9901 4.86012 87.3301 7.59012 87.3501C8.65012 87.3501 10.8601 88.1501 13.9801 88.2901C14.4901 88.3101 15.0001 88.2601 15.5001 88.1301C19.8501 87.0401 25.5001 87.3501 25.5001 87.3501C25.5001 87.3501 33.9301 87.3601 37.4801 87.3701C40.1601 87.3701 41.4501 87.3601 42.2401 87.3501C44.6401 87.3301 46.5001 87.0601 48.2801 86.5601V86.5801Z" fill="#101214"/>
<path d="M61.5702 65.1201C62.9802 65.4501 64.4802 62.4501 63.4102 61.5101C61.8902 60.1801 60.1902 58.9901 57.8802 57.7201C55.1802 56.4301 54.1902 56.6501 52.4602 55.5901C49.4602 53.9001 45.0102 50.0701 43.9702 49.1301C43.8102 48.9901 43.6502 48.8701 43.4602 48.7801C42.1502 48.1101 36.4202 45.0301 32.0202 41.5701C28.8102 39.3001 26.8602 37.8201 25.8502 37.0601C23.4402 35.2701 21.4702 34.1401 19.3402 33.2501C18.1702 32.7601 16.3302 35.0201 17.0802 36.0601C18.4302 37.9601 20.0202 39.6601 22.4602 41.5301C23.4102 42.2501 24.9102 44.4001 27.7002 46.5601C28.1502 46.9101 28.6502 47.2001 29.1902 47.4301C31.5102 48.3901 33.9402 49.8201 35.8102 50.9801C37.6802 52.1401 38.9802 53.0601 38.9802 53.0601C38.9802 53.0601 40.9702 54.3501 43.4202 55.8501C45.8702 57.3601 48.7702 59.0701 50.5102 60.0601C53.1402 61.5401 54.4202 62.2201 55.2002 62.6501C57.5802 63.9201 59.5702 64.6501 61.5702 65.1101V65.1201Z" fill="#101214"/>
</g>
<defs>
<clipPath id="clip0_448_5631">
<rect width="151.5" height="165.56" fill="white"/>
</clipPath>
</defs>
</svg>
