<svg width="103" height="105" viewBox="0 0 103 105" fill="none" xmlns="http://www.w3.org/2000/svg">
<g clip-path="url(#clip0_448_5296)">
<path d="M63.9701 71.32C66.5001 69.66 64.6001 66.88 62.2501 67.66C61.4101 68 60.5201 68.1 59.6501 68.35C59.2201 68.49 58.7601 68.52 58.3101 68.58C57.8601 68.65 57.4101 68.71 56.9401 68.78C55.0901 68.9 53.1301 68.86 51.0501 68.34C48.6801 67.8 47.2301 67.14 46.0301 66.47C45.7301 66.3 45.4201 66.15 45.1501 65.96C44.8801 65.76 44.62 65.55 44.35 65.34C44.22 65.23 44.0701 65.12 43.9401 65C43.8201 64.87 43.6901 64.73 43.5701 64.59C43.3301 64.3 43.0301 64.02 42.8001 63.65C41.9301 62.47 41.1801 60.88 40.8701 59.22C40.6901 58.43 40.6501 57.44 40.6401 56.52C40.6601 55.59 40.7301 54.66 40.8901 53.79C41.1901 52.03 41.7601 50.49 42.3501 49.33C42.9401 48.17 43.5701 47.4 43.9101 46.98C44.1301 46.75 44.3101 46.48 44.5001 46.23C44.6701 46.01 44.9001 45.68 45.2401 45.31C45.5601 44.94 46.0901 44.44 46.6601 43.94C47.8301 42.93 49.4401 41.79 51.3701 40.96C53.2901 40.13 55.5401 39.65 57.6301 39.99C58.1301 40.04 58.7501 40.25 59.3101 40.38C59.8601 40.59 60.4401 40.73 60.9501 41.01C62.0201 41.47 62.9501 42.11 63.7801 42.84C66.1501 44.85 67.2401 47.35 67.8101 49.37C68.3801 51.42 68.4401 53.05 68.4701 54.14C68.4901 56.74 68.1401 59.05 67.5801 61.05C67.0301 63.06 66.2601 64.8 65.2101 66.19C64.9101 66.54 64.7901 66.96 64.7401 67.35C64.7101 67.76 64.7801 68.19 64.9701 68.55C65.1601 68.91 65.4801 69.19 65.9401 69.29C66.4101 69.41 66.98 69.29 67.59 68.89C69.71 67.39 71.2601 65.25 72.3301 62.78C73.4201 60.3 74.0601 57.42 74.0701 54.08C74.0501 52.79 74.1701 50.77 73.7201 48.08C73.4601 46.74 73.0701 45.23 72.3701 43.63C71.6601 42.04 70.6101 40.36 69.1301 38.83C68.6701 38.31 68.1001 37.9 67.5701 37.46C67.0001 37.07 66.4201 36.69 65.8101 36.39C65.1401 36.08 64.4801 35.75 63.7801 35.51C63.0901 35.23 62.38 35.02 61.67 34.83C60.96 34.6 60.2401 34.52 59.5301 34.36C58.7901 34.24 57.9901 34.14 57.2301 34.12C54.1501 34.02 51.3601 34.8 49.1401 35.74C46.9001 36.68 45.1701 37.79 43.9801 38.64C43.3901 39.06 42.9301 39.42 42.6201 39.67C42.3101 39.91 42.1401 40.05 42.1401 40.05C42.1401 40.05 41.9001 40.26 41.4701 40.65C41.0401 41.06 40.3901 41.7 39.7101 42.55C38.3401 44.25 36.8701 46.9 36.1301 50C35.3701 53.1 35.2401 56.52 35.8501 59.72C36.5201 63.1 38.1901 65.75 39.6301 67.46C41.8401 70.07 44.0301 71.4 45.7101 72.31C46.5801 72.71 47.3301 73.02 47.9801 73.28C48.6501 73.47 49.2101 73.63 49.6901 73.77C52.6601 74.49 55.4001 74.36 57.7901 73.88C58.3801 73.74 58.9501 73.55 59.5001 73.38C60.0601 73.21 60.61 73.05 61.1 72.8C62.1 72.31 63.1101 71.92 63.9701 71.3V71.32Z" fill="#101214"/>
<path d="M53.9293 27.74C54.2993 28.45 57.6493 28.28 57.9693 27.59C58.4293 26.61 58.6793 25.6 58.7093 24.31C58.5693 22.85 57.8993 22.45 58.0093 21.45C58.0693 19.74 59.2793 17 59.5993 16.36C59.6493 16.26 59.6693 16.17 59.6593 16.06C59.6093 15.34 59.5393 12.11 60.3793 9.48999C60.7793 7.60999 61.0993 6.45999 61.2493 5.84999C61.6093 4.41999 61.6093 3.27999 61.3493 2.03999C61.1993 1.35999 58.4493 0.419988 57.9193 0.909988C56.9593 1.79999 56.2693 2.83999 55.8293 4.35999C55.6693 4.94999 54.5493 5.98999 54.0193 7.75999C53.9293 8.04999 53.9193 8.34999 53.9793 8.66999C54.2493 10.03 54.1793 11.49 54.0593 12.62C53.9393 13.75 53.7593 14.55 53.7593 14.55C53.7593 14.55 53.5893 15.76 53.4393 17.24C53.2893 18.71 53.1693 20.45 53.1293 21.48C53.0693 23.03 53.0793 23.78 53.0693 24.24C53.0793 25.63 53.3693 26.72 53.8993 27.72L53.9293 27.74Z" fill="#101214"/>
<path d="M72.6894 31.2C72.5294 31.85 74.8994 34.22 75.5394 34.07C76.4494 33.87 77.2294 33.48 77.9994 32.75C78.7494 31.81 78.4894 31.09 79.1294 30.59C80.1294 29.63 82.4494 28.79 83.0094 28.62C83.0894 28.59 83.1594 28.55 83.2094 28.48C83.5494 28 85.1594 25.98 87.0494 24.91C88.2794 24.02 89.0594 23.49 89.4694 23.22C90.4294 22.56 90.9994 21.82 91.4294 20.83C91.6594 20.28 90.1994 17.77 89.5894 17.72C88.4794 17.64 87.4894 17.84 86.4094 18.51C85.9994 18.77 84.6894 18.68 83.3994 19.43C83.1894 19.55 83.0294 19.74 82.9094 19.99C82.3994 21.03 81.6094 21.91 80.9394 22.53C80.2794 23.15 79.7294 23.52 79.7294 23.52C79.7294 23.52 78.9794 24.15 78.1094 24.93C77.2294 25.71 76.2294 26.64 75.6394 27.2C74.7694 28.05 74.3494 28.46 74.0894 28.71C73.3294 29.48 72.9094 30.27 72.6894 31.18V31.2Z" fill="#101214"/>
<path d="M32.2301 36.9C32.9101 37.18 35.4901 35.05 35.3701 34.34C35.1901 33.33 34.8101 32.44 34.0701 31.48C33.1001 30.51 32.3401 30.67 31.8301 29.9C30.8501 28.67 29.9801 26 29.7901 25.36C29.7601 25.26 29.7101 25.18 29.6401 25.12C29.1301 24.66 26.9401 22.61 25.6401 20.4C24.5801 18.95 23.9301 18.05 23.5901 17.58C22.7701 16.48 21.9101 15.83 20.8101 15.37C20.2101 15.11 17.8101 16.77 17.8401 17.43C17.9001 18.63 18.2201 19.69 19.0101 20.84C19.3201 21.28 19.3301 22.67 20.1601 24.05C20.3001 24.27 20.4901 24.45 20.7501 24.59C22.9401 25.75 24.4401 28.23 24.4401 28.23C24.4401 28.23 27.0401 31.67 28.1701 33.1C29.0301 34.17 29.4401 34.68 29.7001 35C30.4801 35.94 31.2901 36.52 32.2501 36.91L32.2301 36.9Z" fill="#101214"/>
<path d="M3.14978 52.08C2.50978 52.4 2.31978 55.74 2.93978 56.12C3.80978 56.66 4.74978 56.97 5.96978 57.04C7.35978 56.93 7.71978 56.24 8.64978 56.34C10.2198 56.38 12.8898 57.31 13.5398 57.54C13.6398 57.57 13.7298 57.58 13.8298 57.56C14.5198 57.43 17.4998 56.89 20.0798 57.02C21.8998 56.92 23.0198 56.85 23.6098 56.82C24.9998 56.71 26.0098 56.29 26.9698 55.58C27.4998 55.19 27.2598 52.29 26.6798 51.98C25.6398 51.42 24.6098 51.16 23.2698 51.21C22.7498 51.24 21.6098 50.5 20.0798 50.43C19.8298 50.42 19.5798 50.48 19.3398 50.62C17.2398 51.79 14.4398 51.52 14.4398 51.52C14.4398 51.52 13.3998 51.52 12.1398 51.52C10.8798 51.52 9.39978 51.49 8.51978 51.46C7.19978 51.43 6.55978 51.42 6.16978 51.41C4.98978 51.39 4.05978 51.61 3.14978 52.06V52.08Z" fill="#101214"/>
<path d="M16.8398 84.93C16.6398 85.57 18.8698 88.07 19.5298 87.95C20.4698 87.78 21.2898 87.4 22.1198 86.69C22.9498 85.74 22.7198 85.02 23.3998 84.51C24.4598 83.55 26.8898 82.64 27.4798 82.43C27.5698 82.4 27.6398 82.35 27.6898 82.28C28.0698 81.78 29.7398 79.6 31.6398 78.23C32.8598 77.13 33.6198 76.45 34.0098 76.09C34.9298 75.24 35.3998 74.36 35.6698 73.27C35.8098 72.67 33.8798 70.5 33.2698 70.58C32.1598 70.72 31.2298 71.09 30.2798 71.9C29.9098 72.22 28.6198 72.3 27.4598 73.15C27.2698 73.29 27.1298 73.49 27.0398 73.73C26.2698 75.87 24.1298 77.38 24.1298 77.38C24.1298 77.38 21.2298 79.95 20.0098 81.04C19.0998 81.87 18.6598 82.26 18.3898 82.51C17.5798 83.26 17.1198 84.03 16.8398 84.95V84.93Z" fill="#101214"/>
<path d="M55.7696 80.56C55.4396 79.93 52.0896 79.83 51.7196 80.45C51.1996 81.33 50.9096 82.27 50.8696 83.48C50.9996 84.86 51.6996 85.21 51.6096 86.13C51.5996 87.7 50.6696 90.34 50.4396 90.99C50.4096 91.08 50.3996 91.18 50.4196 91.27C50.5496 91.95 51.0796 94.91 50.9096 97.47C50.9796 99.28 51.0196 100.39 51.0396 100.98C51.1096 102.36 51.4996 103.37 52.1796 104.35C52.5496 104.89 55.4596 104.74 55.7896 104.18C56.3796 103.15 56.6796 102.13 56.6496 100.77C56.6296 100.24 57.3896 99.12 57.4896 97.57C57.5096 97.32 57.4396 97.07 57.3096 96.82C56.1696 94.69 56.4496 91.88 56.4496 91.88C56.4496 91.88 56.4396 87.7 56.4696 85.93C56.4696 84.6 56.4796 83.96 56.4896 83.57C56.4896 82.38 56.2396 81.45 55.7696 80.55V80.56Z" fill="#101214"/>
<path d="M74.4301 73.5C73.8301 73.4 71.4601 75.76 71.5701 76.36C71.7201 77.21 72.0501 77.92 72.7101 78.61C73.5801 79.26 74.2701 78.96 74.7301 79.53C75.6101 80.4 76.4201 82.53 76.6101 83.05C76.6401 83.13 76.6801 83.19 76.7501 83.23C77.2201 83.52 79.2201 84.81 80.4801 86.4C81.4901 87.4 82.1201 88.01 82.4401 88.34C83.2201 89.09 84.0401 89.42 85.0501 89.53C85.6101 89.59 87.6601 87.53 87.6001 86.98C87.4901 85.97 87.1601 85.15 86.4101 84.37C86.1101 84.07 86.0601 82.88 85.2801 81.91C85.1501 81.75 84.9701 81.65 84.7401 81.6C82.7501 81.15 81.3801 79.35 81.3801 79.35C81.3801 79.35 79.0201 76.98 78.0301 75.97C77.2701 75.22 76.9101 74.87 76.6801 74.64C75.9901 73.98 75.2801 73.65 74.4301 73.5Z" fill="#101214"/>
<path d="M80.5902 54C80.0902 54.39 80.3202 57.73 80.8802 58.04C81.6802 58.48 82.5002 58.69 83.5302 58.62C84.6802 58.37 84.9102 57.65 85.7002 57.65C87.0302 57.53 89.3702 58.21 89.9402 58.38C90.0202 58.41 90.1102 58.4 90.1802 58.38C90.7402 58.19 93.1902 57.4 95.3802 57.33C96.9002 57.1 97.8402 56.96 98.3402 56.89C99.5002 56.69 100.31 56.21 101.06 55.45C101.47 55.03 100.99 52.16 100.48 51.89C99.5402 51.4 98.6502 51.2 97.5102 51.34C97.0702 51.4 96.0402 50.75 94.7302 50.79C94.5202 50.79 94.3102 50.88 94.1202 51.03C92.4602 52.36 90.0602 52.33 90.0602 52.33C90.0602 52.33 86.5402 52.71 85.0502 52.83C83.9302 52.94 83.3902 52.99 83.0602 53.02C82.0602 53.13 81.3002 53.45 80.5902 54Z" fill="#101214"/>
</g>
<defs>
<clipPath id="clip0_448_5296">
<rect width="98.82" height="104.25" fill="white" transform="translate(2.5 0.5)"/>
</clipPath>
</defs>
</svg>
