<svg width="74" height="47" viewBox="0 0 74 47" fill="none" xmlns="http://www.w3.org/2000/svg">
<g clip-path="url(#clip0_448_5415)">
<path d="M23.8898 34.12C23.6598 34.97 26.2698 37.06 27.0498 36.65C28.1498 36.07 29.1098 35.3 30.0998 34.11C31.0698 32.65 30.7998 31.87 31.6098 31C32.8598 29.43 35.6998 27.38 36.3998 26.89C36.4998 26.82 36.5798 26.73 36.6498 26.62C37.0898 25.87 39.0698 22.6 41.2898 20.21C42.7198 18.41 43.6098 17.29 44.0698 16.71C45.1498 15.32 45.7098 14.09 46.0198 12.68C46.1898 11.91 43.9198 10.09 43.1998 10.42C41.8998 11.03 40.8098 11.84 39.6898 13.19C39.2598 13.72 37.7398 14.33 36.3798 15.81C36.1598 16.05 35.9998 16.34 35.8898 16.67C34.9898 19.54 32.4698 22.18 32.4698 22.18C32.4698 22.18 29.0598 26.41 27.6298 28.19C26.5598 29.54 26.0398 30.19 25.7198 30.59C24.7698 31.81 24.2298 32.91 23.8998 34.11L23.8898 34.12Z" fill="#101214"/>
<path d="M0.199894 30.43C0.379894 31.29 3.65989 31.95 4.16989 31.23C4.87989 30.21 5.37989 29.08 5.70989 27.57C5.89989 25.82 5.30989 25.26 5.61989 24.11C6.00989 22.14 7.58989 19.01 7.97989 18.26C8.03989 18.15 8.06989 18.03 8.07989 17.91C8.12989 17.04 8.37989 13.23 9.25989 10.08C9.70989 7.82 9.97989 6.42 10.1299 5.69C10.4499 3.96 10.3799 2.61 10.0099 1.22C9.80989 0.460001 6.94989 -0.119999 6.46989 0.510001C5.58989 1.65 4.99989 2.87 4.61989 4.59C4.47989 5.26 3.41989 6.5 2.87989 8.44C2.78989 8.76 2.77989 9.09 2.83989 9.43C3.34989 12.39 2.33989 15.9 2.33989 15.9C2.33989 15.9 1.25989 21.22 0.799894 23.46C0.469894 25.15 0.309894 25.97 0.209894 26.47C-0.0701064 27.99 -0.0501064 29.22 0.209894 30.44L0.199894 30.43Z" fill="#101214"/>
<path d="M43.1199 43.24C42.5099 43.88 43.8199 46.96 44.6999 46.97C45.9499 46.98 47.1599 46.76 48.5899 46.18C50.1399 45.35 50.2699 44.54 51.3899 44.15C53.2299 43.37 56.7099 42.91 57.5499 42.8C57.6699 42.78 57.7899 42.75 57.8899 42.68C58.6399 42.23 61.9199 40.29 65.0199 39.24C67.1399 38.33 68.4499 37.77 69.1299 37.48C70.7399 36.77 71.8199 35.95 72.7599 34.86C73.2799 34.26 72.1399 31.58 71.3499 31.54C69.9099 31.46 68.5699 31.65 66.9399 32.31C66.3099 32.57 64.6899 32.39 62.7799 33.04C62.4699 33.15 62.1899 33.32 61.9399 33.57C59.7799 35.66 56.3199 36.8 56.3199 36.8C56.3199 36.8 51.3199 38.9 49.2099 39.79C47.6199 40.47 46.8599 40.8 46.3899 41C44.9799 41.62 43.9699 42.34 43.1099 43.24H43.1199Z" fill="#101214"/>
</g>
<defs>
<clipPath id="clip0_448_5415">
<rect width="73.03" height="46.97" fill="white"/>
</clipPath>
</defs>
</svg>
