<svg width="85" height="104" viewBox="0 0 85 104" fill="none" xmlns="http://www.w3.org/2000/svg">
<g clip-path="url(#clip0_448_5446)">
<path d="M2.28995 80.71C1.19995 80.49 -0.450046 83.41 0.299954 84.23C1.35995 85.4 2.60995 86.41 4.35995 87.42C6.43995 88.41 7.27995 88.09 8.58995 88.92C10.88 90.21 14.29 93.2 15.11 93.93C15.23 94.04 15.36 94.12 15.51 94.19C16.56 94.64 21.13 96.64 24.74 98.95C27.38 100.43 29.01 101.34 29.86 101.82C31.88 102.93 33.55 103.48 35.34 103.76C36.32 103.91 37.75 101.38 37.11 100.62C35.95 99.23 34.62 98.09 32.62 96.93C31.84 96.49 30.61 94.87 28.38 93.46C28.02 93.23 27.62 93.07 27.18 92.97C23.44 92.11 19.44 89.5 19.44 89.5C19.44 89.5 13.24 85.99 10.63 84.51C8.64995 83.41 7.69995 82.87 7.11995 82.55C5.33995 81.57 3.83995 81.03 2.28995 80.73V80.71Z" fill="#101214"/>
<path d="M37.6001 36.45C36.8201 36.11 34.4601 38.49 34.6401 39.21C34.9301 40.24 35.3401 41.15 36.1001 42.17C37.0701 43.24 37.8601 43.16 38.3501 44.06C39.3001 45.5 39.9501 48.54 40.1001 49.3C40.1201 49.41 40.1701 49.51 40.2401 49.59C40.7501 50.2 42.7901 52.97 44.4001 55.72C44.7301 56.18 45.0301 56.59 45.3001 56.96C45.6001 57.32 45.8601 57.65 46.0901 57.93C46.5401 58.51 46.9401 58.9 47.1901 59.18C48.4201 60.48 49.7301 61.11 51.1201 61.36C51.9001 61.51 53.5001 59.08 53.2601 58.45C52.7801 57.3 52.2301 56.41 51.3001 55.35C51.1201 55.15 50.9601 54.72 50.7901 54.14C50.6001 53.58 50.3701 52.91 49.9601 52.2C49.8201 51.98 49.6201 51.8 49.3801 51.64C48.2901 50.98 47.3901 49.9 46.7901 48.97C46.1901 48.05 45.8501 47.3 45.8501 47.3C45.8501 47.3 45.2501 46.23 44.5201 44.94C43.7701 43.63 42.8601 42.09 42.2501 41.19C41.3701 39.83 40.8401 39.2 40.5701 38.81C39.6501 37.64 38.6901 36.92 37.5801 36.46L37.6001 36.45Z" fill="#101214"/>
<path d="M73.09 0.699985C72.45 -0.240015 69.24 0.699985 69.21 1.83998C69.17 3.44998 69.37 5.06998 69.93 7.05998C70.74 9.26998 71.58 9.62999 71.95 11.18C72.71 13.76 73.1 18.37 73.19 19.48C73.2 19.64 73.24 19.8 73.3 19.95C73.75 21.02 75.67 25.75 76.68 30.01C77.56 32.97 78.11 34.8 78.39 35.75C79.08 38 79.91 39.6 81.01 41.07C81.61 41.88 84.41 41.06 84.47 40.05C84.59 38.21 84.42 36.43 83.78 34.16C83.52 33.28 83.75 31.22 83.12 28.6C83.02 28.17 82.84 27.77 82.6 27.39C80.49 24.1 79.41 19.33 79.41 19.33C79.41 19.33 77.36 12.35 76.5 9.39998C75.84 7.17998 75.52 6.11998 75.32 5.45998C74.71 3.47998 74 2.00998 73.09 0.679985V0.699985Z" fill="#101214"/>
</g>
<defs>
<clipPath id="clip0_448_5446">
<rect width="84.63" height="103.76" fill="white"/>
</clipPath>
</defs>
</svg>
