<svg width="140" height="160" viewBox="0 0 140 160" fill="none" xmlns="http://www.w3.org/2000/svg">
<g clip-path="url(#clip0_448_5553)">
<path d="M35.8399 64.47C34.9999 65.99 37.5399 68.17 38.9199 67.1C40.8699 65.58 42.7199 63.82 44.8599 61.36C47.1399 58.44 47.2099 57.29 48.8999 55.44C51.6499 52.21 56.9999 47.38 58.2899 46.23C58.4799 46.06 58.6499 45.87 58.8099 45.66C59.8999 44.19 64.7099 37.77 69.3699 32.69C72.5199 28.98 74.4699 26.69 75.4899 25.49C77.8799 22.65 79.4299 20.31 80.7099 17.83C81.4199 16.46 79.1999 14.57 77.9599 15.49C75.7099 17.15 73.6399 19.04 71.2099 21.85C70.2699 22.95 67.7099 24.71 64.8399 27.85C64.3699 28.36 63.9699 28.92 63.6199 29.53C60.5999 34.74 55.3799 40.39 55.3799 40.39C55.3799 40.39 47.9199 49.11 44.7699 52.79C42.4099 55.57 41.2699 56.91 40.5699 57.73C38.4699 60.23 37.0199 62.33 35.8299 64.49L35.8399 64.47Z" fill="#101214"/>
<path d="M80.0899 65.88C79.4599 66.71 81.2899 69.51 82.2999 69.27C83.7399 68.93 85.1099 68.35 86.6899 67.34C88.3899 66.05 88.4499 65.17 89.6999 64.45C91.7399 63.12 95.6899 61.65 96.6499 61.3C96.7899 61.25 96.9199 61.18 97.0299 61.08C97.8399 60.4 101.42 57.46 104.87 55.5C107.21 53.96 108.66 53.01 109.41 52.51C111.19 51.32 112.34 50.16 113.3 48.77C113.83 48.01 112.24 45.57 111.33 45.75C109.67 46.07 108.14 46.66 106.34 47.81C105.64 48.26 103.76 48.54 101.63 49.75C101.28 49.95 100.98 50.21 100.72 50.53C98.4599 53.3 94.5899 55.46 94.5899 55.46C94.5899 55.46 89.0599 59.06 86.7199 60.57C84.9699 61.72 84.1199 62.28 83.6099 62.62C82.0499 63.66 80.9699 64.69 80.0799 65.86L80.0899 65.88Z" fill="#101214"/>
<path d="M58.6702 79.55C58.8602 79.86 59.6002 83.21 60.5902 83.11C61.4402 83.21 62.0702 83.13 62.7402 82.74C63.4002 82.15 63.2102 81.45 63.7402 81.2C64.5702 80.68 66.4602 80.58 66.9302 80.56C67.0002 80.56 67.0502 80.53 67.0902 80.49C67.3802 80.16 68.6602 78.74 70.1302 78.08C71.0702 77.47 71.6502 77.08 71.9502 76.89C72.6602 76.41 73.0102 75.77 73.1902 74.9C73.2902 74.42 71.7102 71.97 71.2302 71.87C70.3602 71.67 69.6402 71.73 68.9002 72.17C68.6202 72.35 67.6002 72.05 66.7102 72.46C66.5602 72.53 66.4602 72.66 66.4002 72.85C65.8402 74.5 64.1902 75.19 64.1902 75.19C64.1902 75.19 61.9602 76.59 61.0202 77.17C60.3202 77.62 59.9802 77.83 59.7802 77.96C59.1702 78.36 58.8002 78.9 58.6602 79.55H58.6702Z" fill="#101214"/>
<path d="M0.0499661 58.87C-0.0200339 60.21 3.15997 61.25 3.89997 60.13C4.93997 58.54 5.78997 56.8 6.57997 54.45C7.29997 51.74 6.85997 50.86 7.52997 49.08C8.52997 46.03 11.1 41.17 11.72 40.01C11.81 39.84 11.88 39.66 11.92 39.47C12.23 38.12 13.64 32.2 15.49 27.31C16.63 23.8 17.33 21.63 17.7 20.5C18.55 17.82 18.88 15.71 18.92 13.55C18.94 12.36 16.17 11.46 15.49 12.43C14.24 14.19 13.26 16.09 12.36 18.75C12.02 19.79 10.55 21.7 9.40997 24.72C9.22997 25.21 9.10997 25.73 9.06997 26.26C8.70997 30.86 6.60997 36.3 6.60997 36.3C6.60997 36.3 3.88997 44.56 2.74997 48.04C1.89997 50.67 1.48997 51.93 1.23997 52.71C0.489966 55.07 0.149966 56.98 0.0499661 58.87Z" fill="#101214"/>
<path d="M35.7598 22.69C35.7998 23.43 38.8198 24.86 39.4198 24.42C40.2698 23.79 40.9198 23.03 41.4798 21.9C41.9498 20.55 41.4698 19.93 41.9498 19.1C42.6398 17.63 44.6598 15.55 45.1498 15.05C45.2198 14.98 45.2698 14.89 45.2998 14.8C45.4898 14.11 46.3398 11.12 47.6898 8.83002C48.4798 7.14002 48.9698 6.09002 49.2298 5.54002C49.8198 4.24002 49.9698 3.13002 49.8398 1.91002C49.7698 1.24002 47.1398 -0.00998269 46.5798 0.360017C45.5598 1.03002 44.7898 1.85002 44.1598 3.13002C43.9198 3.63002 42.6998 4.33002 41.8798 5.74002C41.7498 5.97002 41.6798 6.23002 41.6798 6.53002C41.6898 9.05002 40.1498 11.59 40.1498 11.59C40.1498 11.59 38.2598 15.56 37.4598 17.24C36.8698 18.51 36.5798 19.12 36.4098 19.49C35.8898 20.63 35.7198 21.63 35.7698 22.68L35.7598 22.69Z" fill="#101214"/>
<path d="M25.7398 43.83C25.9098 44.29 28.9298 45.73 29.3998 45.56C30.0598 45.33 30.5198 44.97 30.8298 44.38C31.0098 43.63 30.4598 43.16 30.7498 42.73C31.1198 41.95 32.5798 41.03 32.9498 40.81C32.9998 40.78 33.0298 40.73 33.0398 40.68C33.0898 40.29 33.3298 38.59 34.1498 37.43C34.5698 36.53 34.8198 35.97 34.9598 35.68C35.2598 34.98 35.1998 34.32 34.8598 33.55C34.6698 33.12 32.0398 31.88 31.5998 32C30.7898 32.23 30.2398 32.6 29.8898 33.27C29.7598 33.54 28.7698 33.75 28.2798 34.47C28.1998 34.59 28.1898 34.74 28.2398 34.92C28.7098 36.48 27.7598 37.77 27.7598 37.77C27.7598 37.77 26.7498 39.88 26.3198 40.77C26.0098 41.45 25.8598 41.77 25.7698 41.97C25.4998 42.58 25.5198 43.17 25.7698 43.82L25.7398 43.83Z" fill="#101214"/>
<path d="M104.47 91.48C103.72 92.09 104.76 95.28 105.73 95.33C107.11 95.4 108.47 95.23 110.13 94.71C111.95 93.95 112.2 93.14 113.49 92.79C115.63 92.08 119.53 91.79 120.47 91.72C120.61 91.72 120.74 91.68 120.86 91.62C121.74 91.2 125.62 89.39 129.18 88.48C131.63 87.66 133.15 87.16 133.95 86.9C135.82 86.26 137.11 85.48 138.29 84.42C138.94 83.84 138.03 81.07 137.16 80.99C135.59 80.84 134.08 80.97 132.19 81.56C131.46 81.8 129.69 81.53 127.5 82.1C127.14 82.19 126.81 82.36 126.5 82.59C123.85 84.61 119.87 85.59 119.87 85.59C119.87 85.59 114.07 87.48 111.63 88.28C109.79 88.89 108.91 89.19 108.36 89.37C106.72 89.93 105.52 90.61 104.45 91.48H104.47Z" fill="#101214"/>
<path d="M70.8401 102.51C70.3501 103.04 71.3901 106.22 72.1001 106.36C73.1101 106.55 74.0801 106.51 75.2401 106.16C76.5001 105.58 76.6001 104.82 77.5101 104.6C79.0001 104.11 81.8101 104.17 82.4901 104.19C82.5901 104.19 82.6801 104.17 82.7701 104.13C83.3701 103.8 86.0301 102.39 88.5401 101.82C90.2501 101.25 91.3101 100.89 91.8601 100.71C93.1601 100.26 94.0301 99.61 94.7901 98.69C95.2101 98.18 94.3001 95.42 93.6601 95.26C92.5001 94.97 91.4201 94.97 90.1001 95.37C89.5901 95.53 88.2801 95.12 86.7401 95.48C86.4901 95.54 86.2601 95.67 86.0601 95.87C84.3101 97.59 81.5101 98.19 81.5101 98.19C81.5101 98.19 77.4701 99.5 75.7601 100.06C74.4801 100.49 73.8601 100.7 73.4801 100.82C72.3401 101.22 71.5301 101.77 70.8301 102.52L70.8401 102.51Z" fill="#101214"/>
<path d="M78.5398 127.95C76.9898 128.42 77.2498 131.76 78.8498 131.98C81.1198 132.3 83.4898 132.38 86.4998 132.17C89.8998 131.75 90.6998 130.99 93.0198 130.89C96.9298 130.58 103.6 131 105.21 131.11C105.45 131.13 105.68 131.11 105.92 131.08C107.6 130.82 114.94 129.74 121.33 129.49C125.82 129.13 128.6 128.91 130.06 128.79C133.49 128.5 136.03 127.96 138.49 127.13C139.85 126.67 139.62 123.77 138.21 123.53C135.64 123.09 133.05 122.95 129.62 123.19C128.29 123.29 125.45 122.71 121.52 122.87C120.88 122.9 120.24 123 119.62 123.18C114.24 124.69 107.12 124.94 107.12 124.94C107.12 124.94 96.5298 125.75 92.0598 126.1C88.6898 126.37 87.0698 126.5 86.0798 126.58C83.0698 126.84 80.7398 127.28 78.5498 127.95H78.5398Z" fill="#101214"/>
<path d="M96.48 151.29C95.78 151.52 95.2 154.82 95.77 155.27C96.58 155.92 97.48 156.35 98.69 156.59C100.09 156.68 100.56 156.06 101.48 156.3C103.06 156.58 105.55 157.97 106.15 158.31C106.24 158.36 106.33 158.39 106.43 158.39C107.13 158.39 110.19 158.42 112.71 159.11C114.52 159.42 115.64 159.62 116.23 159.72C117.62 159.94 118.71 159.79 119.83 159.35C120.45 159.11 120.96 156.24 120.47 155.8C119.57 154.99 118.6 154.47 117.22 154.2C116.68 154.1 115.71 153.11 114.15 152.69C113.9 152.62 113.63 152.63 113.35 152.71C110.96 153.39 108.15 152.58 108.15 152.58C108.15 152.58 103.89 151.81 102.09 151.48C100.73 151.25 100.08 151.13 99.68 151.06C98.46 150.87 97.47 150.96 96.49 151.29H96.48Z" fill="#101214"/>
<path d="M67.58 146.12C67.09 146.39 66.5 149.68 66.87 150.1C67.38 150.7 67.97 151.07 68.78 151.24C69.73 151.25 70.08 150.61 70.69 150.8C71.74 150.98 73.36 152.22 73.75 152.53C73.81 152.58 73.87 152.59 73.94 152.59C74.42 152.55 76.5 152.4 78.17 152.95C79.38 153.16 80.13 153.28 80.53 153.35C81.46 153.49 82.21 153.28 83 152.77C83.43 152.49 83.95 149.63 83.64 149.22C83.07 148.47 82.44 148.01 81.52 147.82C81.16 147.75 80.55 146.83 79.52 146.5C79.35 146.45 79.17 146.47 78.98 146.56C77.31 147.37 75.46 146.73 75.46 146.73C75.46 146.73 72.61 146.21 71.4 145.99C70.49 145.84 70.05 145.76 69.79 145.72C68.97 145.6 68.29 145.75 67.61 146.13L67.58 146.12Z" fill="#101214"/>
</g>
<defs>
<clipPath id="clip0_448_5553">
<rect width="139.48" height="159.83" fill="white"/>
</clipPath>
</defs>
</svg>
