<svg width="270" height="270" viewBox="0 0 270 270" fill="none" xmlns="http://www.w3.org/2000/svg">
<g clip-path="url(#clip0_448_5974)">
<path d="M88.4406 5.16C89.7606 -0.600005 86.5506 -1.54 84.5606 4.02C81.7406 11.9 79.0106 20.26 75.8206 31.08C72.3706 43.4 72.1506 46.65 69.6406 54.95C65.5306 69.01 57.6906 92.46 55.7906 98.11C55.5106 98.95 55.2506 99.79 55.0206 100.64C53.3706 106.73 46.0806 133.42 39.1606 156.22C34.4406 172.37 31.5206 182.37 29.9906 187.59C26.4006 199.93 24.0306 209.24 22.0006 218.46C20.8806 223.53 23.6706 224.34 25.4606 219.47C28.7206 210.61 31.7406 201.49 35.3806 189.17C36.7906 184.38 40.4806 174.62 44.7406 160.57C45.4306 158.28 46.0506 155.97 46.6006 153.66C51.3106 133.71 59.0706 108.28 59.0706 108.28C59.0706 108.28 70.2306 70.22 74.9306 54.15C78.4606 42.05 80.1606 36.23 81.2106 32.65C84.3606 21.81 86.5706 13.31 88.4406 5.15V5.16Z" fill="#101214"/>
<path d="M120.2 14.46C121.52 8.70004 118.31 7.76004 116.32 13.32C113.5 21.2 110.77 29.56 107.58 40.38C104.13 52.7 103.91 55.95 101.4 64.25C97.2904 78.31 89.4504 101.76 87.5504 107.41C87.2704 108.25 87.0104 109.09 86.7804 109.94C85.1304 116.03 77.8404 142.72 70.9204 165.52C66.2004 181.67 63.2804 191.67 61.7504 196.89C58.1604 209.23 55.7904 218.54 53.7604 227.76C52.6404 232.83 55.4304 233.64 57.2204 228.77C60.4804 219.91 63.5004 210.79 67.1404 198.47C68.5504 193.68 72.2404 183.92 76.5004 169.87C77.1904 167.58 77.8104 165.27 78.3604 162.96C83.0704 143.01 90.8304 117.58 90.8304 117.58C90.8304 117.58 101.99 79.52 106.69 63.45C110.22 51.35 111.92 45.53 112.97 41.95C116.12 31.11 118.33 22.61 120.2 14.45V14.46Z" fill="#101214"/>
<path d="M151.97 23.76C153.29 18 150.08 17.06 148.09 22.62C145.27 30.5 142.54 38.86 139.35 49.68C135.9 62 135.68 65.25 133.17 73.55C129.06 87.61 121.22 111.06 119.32 116.71C119.04 117.55 118.78 118.39 118.55 119.24C116.9 125.33 109.61 152.02 102.69 174.82C97.9699 190.97 95.0499 200.97 93.5199 206.19C89.9299 218.53 87.5599 227.84 85.5299 237.06C84.4099 242.13 87.1999 242.94 88.9899 238.07C92.2499 229.21 95.2699 220.09 98.9099 207.77C100.32 202.98 104.01 193.22 108.27 179.17C108.96 176.88 109.58 174.57 110.13 172.26C114.84 152.31 122.6 126.88 122.6 126.88C122.6 126.88 133.76 88.82 138.46 72.75C141.99 60.65 143.69 54.83 144.74 51.25C147.89 40.41 150.1 31.91 151.97 23.75V23.76Z" fill="#101214"/>
<path d="M183.73 33.06C185.05 27.3 181.84 26.36 179.85 31.92C177.03 39.8 174.3 48.16 171.11 58.98C167.66 71.3 167.44 74.55 164.93 82.85C160.82 96.91 152.98 120.36 151.08 126.01C150.8 126.85 150.54 127.69 150.31 128.54C148.66 134.63 141.37 161.32 134.45 184.12C129.73 200.27 126.81 210.27 125.28 215.49C121.69 227.83 119.32 237.14 117.29 246.36C116.17 251.43 118.96 252.24 120.75 247.37C124.01 238.51 127.03 229.39 130.67 217.07C132.08 212.28 135.77 202.52 140.03 188.47C140.72 186.18 141.34 183.87 141.89 181.56C146.6 161.61 154.36 136.18 154.36 136.18C154.36 136.18 165.52 98.12 170.22 82.05C173.75 69.95 175.45 64.13 176.5 60.55C179.65 49.71 181.86 41.21 183.73 33.05V33.06Z" fill="#101214"/>
<path d="M215.5 42.3599C216.82 36.5999 213.61 35.6599 211.62 41.2199C208.8 49.0999 206.07 57.4599 202.88 68.2799C199.43 80.5999 199.21 83.8499 196.7 92.1499C192.59 106.21 184.75 129.66 182.85 135.31C182.57 136.14 182.31 136.99 182.08 137.84C180.43 143.93 173.14 170.62 166.22 193.42C161.5 209.57 158.58 219.57 157.05 224.79C153.46 237.13 151.09 246.44 149.06 255.66C147.94 260.73 150.73 261.54 152.52 256.67C155.78 247.81 158.8 238.69 162.44 226.37C163.85 221.58 167.54 211.82 171.8 197.77C172.49 195.48 173.11 193.17 173.66 190.86C178.37 170.91 186.13 145.48 186.13 145.48C186.13 145.48 197.29 107.42 201.99 91.3499C205.52 79.2499 207.22 73.4299 208.27 69.8499C211.42 59.0099 213.63 50.5099 215.51 42.3499L215.5 42.3599Z" fill="#101214"/>
<path d="M247.26 51.66C248.58 45.9 245.37 44.96 243.38 50.52C240.55 58.4 237.83 66.76 234.64 77.58C231.19 89.9 230.97 93.15 228.46 101.45C224.35 115.51 216.51 138.96 214.61 144.61C214.33 145.44 214.07 146.29 213.84 147.14C212.19 153.23 204.9 179.92 197.98 202.72C193.26 218.87 190.34 228.87 188.81 234.09C185.22 246.43 182.85 255.74 180.82 264.96C179.7 270.03 182.49 270.84 184.28 265.97C187.54 257.11 190.56 247.99 194.2 235.67C195.61 230.88 199.3 221.12 203.56 207.07C204.25 204.78 204.87 202.47 205.42 200.16C210.13 180.21 217.89 154.78 217.89 154.78C217.89 154.78 229.05 116.72 233.75 100.65C237.28 88.55 238.98 82.73 240.03 79.15C243.18 68.31 245.39 59.81 247.27 51.65L247.26 51.66Z" fill="#101214"/>
<path d="M218.04 247.26C223.8 248.58 224.74 245.37 219.18 243.38C211.3 240.55 202.94 237.83 192.12 234.64C179.8 231.19 176.55 230.97 168.25 228.46C154.19 224.35 130.74 216.51 125.09 214.61C124.26 214.33 123.41 214.07 122.56 213.84C116.47 212.19 89.7802 204.9 66.9802 197.98C50.8302 193.26 40.8302 190.34 35.6102 188.81C23.2702 185.22 13.9602 182.85 4.74017 180.82C-0.329832 179.7 -1.13983 182.49 3.73017 184.28C12.5902 187.54 21.7102 190.56 34.0302 194.2C38.8202 195.61 48.5802 199.3 62.6302 203.56C64.9202 204.25 67.2302 204.87 69.5402 205.42C89.4902 210.13 114.92 217.89 114.92 217.89C114.92 217.89 152.98 229.05 169.05 233.75C181.15 237.28 186.97 238.98 190.55 240.03C201.39 243.18 209.89 245.39 218.05 247.26H218.04Z" fill="#101214"/>
<path d="M227.34 215.5C233.1 216.82 234.04 213.61 228.48 211.62C220.6 208.8 212.24 206.07 201.42 202.88C189.1 199.43 185.85 199.21 177.55 196.7C163.49 192.59 140.04 184.75 134.39 182.85C133.56 182.57 132.71 182.31 131.86 182.08C125.77 180.43 99.08 173.14 76.28 166.22C60.13 161.5 50.13 158.58 44.91 157.05C32.57 153.46 23.26 151.09 14.04 149.06C8.96997 147.94 8.15997 150.73 13.03 152.52C21.89 155.78 31.01 158.8 43.33 162.44C48.12 163.85 57.88 167.54 71.93 171.8C74.22 172.49 76.53 173.11 78.84 173.66C98.79 178.37 124.22 186.13 124.22 186.13C124.22 186.13 162.28 197.29 178.35 201.99C190.45 205.52 196.27 207.22 199.85 208.27C210.69 211.42 219.19 213.63 227.35 215.5H227.34Z" fill="#101214"/>
<path d="M236.641 183.73C242.401 185.05 243.341 181.84 237.781 179.85C229.901 177.02 221.541 174.3 210.721 171.11C198.401 167.66 195.151 167.44 186.851 164.93C172.791 160.82 149.341 152.98 143.691 151.08C142.861 150.8 142.011 150.54 141.161 150.31C135.071 148.66 108.381 141.37 85.5808 134.45C69.4308 129.73 59.4308 126.81 54.2108 125.28C41.8708 121.69 32.5608 119.32 23.3408 117.29C18.2708 116.17 17.4608 118.96 22.3308 120.75C31.1908 124.01 40.3108 127.03 52.6308 130.67C57.4208 132.08 67.1808 135.77 81.2308 140.03C83.5208 140.72 85.8308 141.34 88.1408 141.89C108.091 146.6 133.521 154.36 133.521 154.36C133.521 154.36 171.581 165.52 187.651 170.22C199.751 173.75 205.571 175.45 209.151 176.5C219.991 179.65 228.491 181.86 236.651 183.73H236.641Z" fill="#101214"/>
<path d="M245.94 151.97C251.7 153.29 252.64 150.08 247.08 148.09C239.2 145.26 230.84 142.54 220.02 139.35C207.7 135.9 204.45 135.68 196.15 133.17C182.09 129.06 158.64 121.22 152.99 119.32C152.16 119.04 151.31 118.78 150.46 118.55C144.37 116.9 117.68 109.61 94.8796 102.69C78.7296 97.97 68.7296 95.05 63.5096 93.52C51.1696 89.93 41.8596 87.56 32.6396 85.53C27.5696 84.41 26.7596 87.2 31.6296 88.99C40.4896 92.25 49.6096 95.27 61.9296 98.91C66.7196 100.32 76.4796 104.01 90.5296 108.27C92.8196 108.96 95.1296 109.58 97.4396 110.13C117.39 114.84 142.82 122.6 142.82 122.6C142.82 122.6 180.88 133.76 196.95 138.46C209.05 141.99 214.87 143.69 218.45 144.74C229.29 147.89 237.79 150.1 245.95 151.97H245.94Z" fill="#101214"/>
<path d="M255.24 120.2C261 121.52 261.94 118.31 256.38 116.32C248.5 113.5 240.14 110.77 229.32 107.58C217 104.13 213.75 103.91 205.45 101.4C191.39 97.29 167.94 89.45 162.29 87.55C161.46 87.27 160.61 87.01 159.76 86.78C153.67 85.13 126.98 77.84 104.18 70.92C88.0304 66.2 78.0304 63.28 72.8104 61.75C60.4704 58.16 51.1604 55.79 41.9404 53.76C36.8704 52.64 36.0604 55.43 40.9304 57.22C49.7904 60.48 58.9104 63.5 71.2304 67.14C76.0204 68.55 85.7804 72.24 99.8304 76.5C102.12 77.19 104.43 77.81 106.74 78.36C126.69 83.07 152.12 90.83 152.12 90.83C152.12 90.83 190.18 101.99 206.25 106.69C218.35 110.22 224.17 111.92 227.75 112.97C238.59 116.12 247.09 118.33 255.25 120.2H255.24Z" fill="#101214"/>
<path d="M264.54 88.44C270.3 89.76 271.24 86.55 265.68 84.56C257.8 81.73 249.44 79.01 238.62 75.82C226.3 72.37 223.05 72.15 214.75 69.64C200.69 65.53 177.24 57.69 171.59 55.79C170.76 55.51 169.91 55.25 169.06 55.02C162.97 53.37 136.28 46.08 113.48 39.16C97.3302 34.44 87.3302 31.52 82.1102 29.99C69.7702 26.4 60.4602 24.03 51.2402 22C46.1702 20.88 45.3602 23.67 50.2302 25.46C59.0902 28.72 68.2102 31.74 80.5302 35.38C85.3202 36.79 95.0802 40.48 109.13 44.74C111.42 45.43 113.73 46.05 116.04 46.6C135.99 51.31 161.42 59.07 161.42 59.07C161.42 59.07 199.48 70.23 215.55 74.93C227.65 78.46 233.47 80.16 237.05 81.21C247.89 84.36 256.39 86.57 264.55 88.44H264.54Z" fill="#101214"/>
</g>
<defs>
<clipPath id="clip0_448_5974">
<rect width="269.7" height="269.7" fill="white"/>
</clipPath>
</defs>
</svg>
