<svg width="202" height="221" viewBox="0 0 202 221" fill="none" xmlns="http://www.w3.org/2000/svg">
<g clip-path="url(#clip0_448_5423)">
<path d="M2.75959 213.33C-0.920411 219.07 1.79959 221.02 6.04959 215.69C12.0796 208.13 18.1996 200.03 25.8096 189.44C34.2896 177.33 35.8696 173.94 41.7596 165.84C51.6096 152.08 68.9896 129.41 73.1896 123.95C73.8096 123.14 74.4096 122.32 74.9896 121.48C79.1296 115.48 97.3296 89.2 113.56 66.96C124.87 51.15 131.87 41.36 135.53 36.25C144.15 24.17 150.33 14.95 156.16 5.73003C159.36 0.660031 156.99 -1.02997 153.22 3.63003C146.36 12.11 139.63 20.93 130.96 32.98C127.6 37.67 119.95 46.97 109.96 60.68C108.33 62.91 106.77 65.19 105.28 67.49C92.3896 87.35 74.2596 112.15 74.2596 112.15C74.2596 112.15 47.5696 149.4 36.2996 165.12C27.8296 176.97 23.7496 182.67 21.2396 186.17C13.6596 196.79 7.96959 205.19 2.74959 213.33H2.75959Z" fill="#101214"/>
<path d="M3.40954 213.91C-0.900459 218.61 1.42954 221 6.23954 216.81C13.0495 210.86 20.0295 204.42 28.7695 195.92C38.5595 186.15 40.5295 183.25 47.2895 176.77C58.6095 165.71 78.3695 147.74 83.1395 143.41C83.8395 142.77 84.5295 142.11 85.1995 141.43C89.9895 136.58 111.03 115.34 129.62 97.53C142.63 84.83 150.68 76.96 154.88 72.86C164.8 63.15 171.98 55.66 178.83 48.09C182.59 43.93 180.56 41.85 176.31 45.51C168.58 52.16 160.91 59.16 150.96 68.84C147.1 72.6 138.5 79.88 127.04 90.86C125.17 92.65 123.36 94.49 121.62 96.37C106.55 112.6 85.7795 132.44 85.7795 132.44C85.7795 132.44 55.0995 162.36 42.1495 174.99C32.4095 184.51 27.7195 189.09 24.8395 191.9C16.1295 200.43 9.51954 207.25 3.39954 213.91H3.40954Z" fill="#101214"/>
<path d="M3.97949 214.61C-0.790511 218.12 1.03949 220.93 6.17949 218C13.4795 213.85 21.0095 209.27 30.5195 203.12C41.1995 196 43.4995 193.68 50.8295 189C63.1495 180.99 84.4395 168.27 89.5795 165.22C90.3395 164.77 91.0895 164.29 91.8195 163.8C97.0595 160.25 120.049 144.7 140.229 131.89C154.379 122.69 163.139 116.99 167.709 114.02C178.499 106.98 186.389 101.45 193.969 95.77C198.129 92.65 196.549 90.21 191.999 92.74C183.729 97.35 175.459 102.31 164.649 109.31C160.449 112.04 151.269 117.05 138.839 124.95C136.819 126.24 134.829 127.59 132.909 128.99C116.279 141.09 93.7595 155.36 93.7595 155.36C93.7595 155.36 60.3895 177.02 46.3095 186.16C35.7095 193.06 30.6095 196.37 27.4795 198.41C17.9995 204.6 10.7595 209.62 3.99949 214.6L3.97949 214.61Z" fill="#101214"/>
<path d="M4.47939 215.54C-0.500607 217.6 0.569393 220.77 5.77939 219.37C13.1694 217.38 20.8394 215.06 30.6094 211.76C41.6194 207.85 44.1494 206.26 51.6694 203.79C64.3294 199.48 85.9994 193.11 91.2194 191.58C91.9894 191.35 92.7594 191.1 93.5094 190.83C98.9194 188.86 122.679 180.25 143.359 173.48C157.899 168.53 166.909 165.46 171.609 163.86C182.709 160.06 190.899 156.92 198.839 153.55C203.199 151.7 202.269 148.94 197.679 150.13C189.329 152.3 180.919 154.79 169.799 158.54C165.479 160 156.229 162.3 143.499 166.48C141.429 167.16 139.369 167.92 137.369 168.73C120.019 175.78 96.9394 183.3 96.9394 183.3C96.9394 183.3 62.6494 194.94 48.1694 199.86C37.2694 203.57 32.0294 205.36 28.8094 206.46C19.0594 209.8 11.5494 212.63 4.47939 215.56V215.54Z" fill="#101214"/>
<path d="M4.81945 216.32C-0.210552 217.26 0.179449 220.58 5.28945 220.34C12.5294 220 20.1194 219.39 29.8194 218.29C40.7994 216.86 43.4594 215.85 50.9194 215.07C63.5094 213.61 84.8694 212.07 90.0194 211.71C90.7794 211.66 91.5395 211.58 92.2995 211.47C97.7095 210.72 121.439 207.45 141.959 205.32C156.429 203.63 165.379 202.59 170.059 202.04C181.099 200.73 189.319 199.44 197.349 197.87C201.759 197.01 201.429 194.12 196.929 194.28C188.749 194.59 180.459 195.2 169.409 196.46C165.119 196.95 156.079 197.2 143.439 198.52C141.379 198.74 139.329 199.03 137.309 199.39C119.829 202.51 96.9395 204.86 96.9395 204.86C96.9395 204.86 62.8394 208.8 48.4394 210.47C37.5994 211.74 32.3894 212.34 29.1794 212.72C19.4794 213.87 11.9594 215.01 4.82945 216.33L4.81945 216.32Z" fill="#101214"/>
</g>
<defs>
<clipPath id="clip0_448_5423">
<rect width="202.01" height="220.35" fill="white"/>
</clipPath>
</defs>
</svg>
