<svg width="211" height="165" viewBox="0 0 211 165" fill="none" xmlns="http://www.w3.org/2000/svg">
<g clip-path="url(#clip0_448_5703)">
<path d="M81.4995 126.4C85.1495 125.84 87.8095 125.01 89.5595 124.35C91.3095 123.67 92.1195 123.06 92.0295 122.61C91.9395 122.16 90.9595 121.86 89.0995 121.81C87.2395 121.74 84.5195 122.02 80.9195 122.4C79.6395 122.55 78.3596 122.7 77.0796 122.85C75.7896 122.99 74.4995 123.07 73.1995 123.19C71.8995 123.29 70.5996 123.43 69.2896 123.51C67.9796 123.57 66.6596 123.64 65.3296 123.7C62.6696 123.89 59.9795 123.81 57.2495 123.88C55.8895 123.86 54.5095 123.8 53.1295 123.76C52.4395 123.74 51.7395 123.71 51.0395 123.69C50.3495 123.64 49.6495 123.58 48.9495 123.53C43.3395 123.12 37.5395 122.34 31.7495 120.66C30.3295 120.18 28.8595 119.77 27.4295 119.22C26.0295 118.62 24.5495 118.13 23.1895 117.38C22.4995 117.03 21.7995 116.68 21.0995 116.33C20.4395 115.92 19.7695 115.51 19.0995 115.1C18.4095 114.71 17.7895 114.23 17.1595 113.75C16.5395 113.26 15.8395 112.84 15.2895 112.28C12.4995 109.97 10.4795 107.38 9.02955 104.81C7.55955 102.24 6.59955 99.68 6.08955 97.21C4.97955 92.28 5.15955 87.86 5.78955 83.84C6.44955 79.81 7.57955 76.12 9.14955 72.32C10.7395 68.53 12.7695 64.61 15.7395 60.28C20.7395 52.97 27.8095 45.14 36.3395 38.36C40.5895 34.95 45.1195 31.72 49.8395 28.85C54.5695 25.99 59.4295 23.39 64.2695 21.15C73.9795 16.71 83.5396 13.63 91.5396 11.7C99.5496 9.75002 105.99 8.96002 109.57 8.47002C111.7 8.24002 113.83 8.02002 115.96 7.76002C119.78 7.44002 126.85 6.73002 136.24 6.95002C145.62 7.15002 157.31 8.30002 170.08 11.06C171.68 11.37 173.28 11.82 174.9 12.2C175.71 12.4 176.53 12.6 177.35 12.8C177.73 12.89 178.32 13.03 178.24 13.02L179.31 13.5C182.42 14.82 185.43 16.42 188.39 18.16C194.22 21.7 199.71 26.33 202.73 32.3C204.21 35.27 204.96 38.54 205.02 41.88C205 45.23 204.29 48.63 203.07 51.91C200.55 58.48 196.29 64.48 191.56 69.83C187.29 74.67 182.53 79.13 177.49 83.28C172.45 87.43 167.13 91.27 161.63 94.81C156.13 98.35 150.43 101.61 144.57 104.41C141.64 105.8 138.66 107.07 135.68 108.1C134.19 108.6 132.69 109.05 131.25 109.35L130.2 109.53L129.21 109.64H128.78C128.45 109.68 128.01 109.58 127.62 109.52L125.33 109.13C124.93 109.65 124.51 110.35 124.11 110.99C123.87 111.4 123.59 111.77 123.37 112.22L122.77 113.39C122.53 113.86 122.3 114.33 122.06 114.8C121.6 115.74 121.15 116.67 120.69 117.6C119.79 119.45 118.94 121.28 118.11 123.1C116.45 126.72 114.94 130.27 113.53 133.76C112.12 137.25 110.89 140.71 109.78 144.13C109.53 144.98 109.29 145.83 109.04 146.67C109.02 146.78 108.98 146.97 108.95 147.13C108.88 147.46 108.84 147.83 108.8 148.22C108.8 148.39 108.8 148.62 108.78 148.76C108.7 148.66 108.62 148.54 108.54 148.43C108.38 148.19 108.22 147.93 108.05 147.64L107.79 147.18L107.66 146.94L107.63 146.88L107.55 146.72L107.32 146.23C106.7 144.93 106.09 143.64 105.48 142.35C103 137.2 100.57 132.08 97.2596 127.31C95.3296 124.54 93.2796 122.75 91.6596 121.93C90.0296 121.1 89.0096 121.18 88.8696 121.53C88.6996 121.93 89.2796 122.57 90.2596 123.74C91.2496 124.91 92.6196 126.69 94.2596 129.32C97.0696 133.87 99.2196 138.96 101.47 144.17C102.03 145.48 102.6 146.8 103.17 148.13C103.58 149.06 104 149.99 104.42 150.92C104.91 151.96 105.4 153.04 105.92 154.04C106.95 156.09 108.01 157.87 109.1 159.76C109.68 160.73 110.26 161.71 110.84 162.69L110.9 162.78L110.93 162.81L111 162.87L111.13 162.98L111.4 163.21L111.94 163.68C112.09 161.76 112.24 159.83 112.39 157.89L112.51 156.39C112.56 155.93 112.63 155.59 112.7 155.18C112.83 154.39 112.96 153.6 113.09 152.8C113.22 152 113.35 151.2 113.48 150.39C113.62 149.6 113.83 148.96 114.05 148.24C114.31 147.42 114.57 146.6 114.83 145.77C115.95 142.53 117.2 139.21 118.62 135.83C120.03 132.45 121.55 128.98 123.21 125.44C124.03 123.67 124.88 121.87 125.77 120.06C126.22 119.16 126.67 118.24 127.12 117.32C127.43 116.7 127.75 116.08 128.07 115.45C128.11 115.41 128.12 115.26 128.26 115.2C128.36 115.24 128.47 115.26 128.58 115.27C128.62 115.28 128.72 115.27 128.72 115.29C128.99 115.29 129.26 115.29 129.53 115.29C130.57 115.22 131.61 115.08 132.66 114.87C134.75 114.45 136.91 113.81 139.21 113C143.79 111.38 148.88 109.1 154.47 106.18C160.05 103.25 166.1 99.64 172.46 95.22C178.8 90.79 185.48 85.56 191.99 79.08C196.3 74.74 200.32 70.02 203.6 64.76C205.37 61.93 207 58.89 208.3 55.62C209.6 52.35 210.56 48.84 210.9 45.16C211.25 41.5 210.94 37.66 209.79 34.09C208.67 30.51 206.81 27.22 204.55 24.4C202.29 21.57 199.68 19.15 196.94 17.05C194.17 15 191.32 13.18 188.43 11.63C186.99 10.83 185.52 10.15 184.09 9.43002C183.36 9.10002 182.64 8.78002 181.92 8.46002L180.84 7.98002L180.13 7.67002L179.4 7.49002C177.91 7.12002 176.43 6.76002 174.98 6.40002C173.53 6.04002 172.1 5.68002 170.68 5.41002C159.35 2.95002 149.4 1.88002 142.33 1.42002C138.79 1.26002 135.98 1.07002 134.04 1.10002C132.11 1.08002 131.06 1.07002 131.06 1.07002C131.06 1.07002 129.5 1.02002 126.68 1.14002C125.27 1.20002 123.55 1.21002 121.56 1.34002C119.57 1.50002 117.3 1.61002 114.8 1.87002C112.31 2.17002 109.57 2.39002 106.66 2.89002C105.21 3.12002 103.69 3.32002 102.15 3.61002C100.61 3.91002 99.0296 4.21002 97.4096 4.53002C90.9496 5.90002 83.9295 7.77002 76.7795 10.3C69.6295 12.82 62.3495 16 55.3595 19.77C48.3695 23.54 41.6595 27.9 35.5995 32.63C23.3995 42.04 14.0795 53.19 8.71955 62.48C4.60955 69.45 2.13955 76.21 0.909547 82.37C-0.310453 88.54 -0.090453 94.13 0.929547 98.79C1.95955 103.47 3.83955 107.16 5.77955 110.03C6.28955 110.73 6.77955 111.41 7.24955 112.06C7.77955 112.66 8.28955 113.23 8.77955 113.78C9.02955 114.05 9.26955 114.32 9.49955 114.58C9.74955 114.83 10.0095 115.05 10.2495 115.28C10.7495 115.73 11.2295 116.17 11.6895 116.59C12.3595 117.26 13.1595 117.74 13.8895 118.32C14.6295 118.88 15.3595 119.43 16.1495 119.88C16.9195 120.35 17.6895 120.82 18.4595 121.28C19.2495 121.69 20.0395 122.07 20.8295 122.46C22.3795 123.29 24.0095 123.82 25.5795 124.47C27.1595 125.06 28.7695 125.49 30.3295 126C36.6595 127.75 42.8195 128.46 48.6995 128.76C49.4395 128.8 50.1695 128.84 50.8995 128.88C51.6295 128.88 52.3495 128.89 53.0795 128.9C54.5195 128.9 55.9495 128.93 57.3695 128.9C60.1895 128.76 62.9795 128.74 65.6995 128.45C67.0595 128.33 68.4196 128.22 69.7596 128.1C71.0996 127.96 72.4295 127.77 73.7495 127.61C75.0695 127.43 76.3896 127.29 77.6896 127.09C78.9896 126.88 80.2896 126.66 81.5796 126.45L81.4995 126.4Z" fill="#101214"/>
</g>
<defs>
<clipPath id="clip0_448_5703">
<rect width="210.96" height="162.65" fill="white" transform="translate(0 1)"/>
</clipPath>
</defs>
</svg>
