<svg width="70" height="89" viewBox="0 0 70 89" fill="none" xmlns="http://www.w3.org/2000/svg">
<g clip-path="url(#clip0_448_6054)">
<path d="M46.1283 9.11793C48.7783 8.24793 49.7983 6.81793 49.4383 5.97793C49.0683 5.11793 47.6483 4.72794 45.1083 5.20794C43.2983 5.55794 41.4183 5.85794 39.4783 6.16794C38.4983 6.32794 37.4983 6.49793 36.4783 6.65793L35.6783 6.80794L34.8283 6.98794C34.3383 7.09794 33.8483 7.19794 33.3483 7.30794C31.2983 7.76794 28.8683 8.18793 26.2483 9.62793C24.9483 10.3479 23.6283 11.4579 22.6983 12.6779C21.7283 13.8979 20.9983 15.1979 20.3983 16.5179C19.1083 19.5279 18.5583 21.8079 17.9183 23.5879C17.2683 25.5179 16.7283 27.1379 16.2183 28.6479C15.7183 30.1579 15.2583 31.5579 14.7383 33.0379C14.4683 33.7779 14.1883 34.5279 13.8983 35.3379C13.4783 36.4179 13.0283 37.5579 12.5383 38.7979C12.4883 38.9379 12.4283 39.0779 12.3483 39.2879C11.9783 40.2579 11.9583 41.1379 12.0383 41.8579C12.0983 42.2479 12.2983 42.7279 12.6083 43.0879C12.9283 43.4779 13.2583 43.6579 13.6683 43.8179C14.0683 43.9879 14.4183 44.2079 15.0283 44.2379C15.5683 44.3179 16.1183 44.4079 16.7283 44.4279C17.6983 44.4779 18.6783 44.5279 19.6783 44.5879C21.1783 44.6579 22.7183 44.7179 24.2883 44.7579C25.0183 44.7779 25.7583 44.7879 26.5083 44.8079L27.1083 44.8579L27.5183 44.8979C27.5183 44.8979 27.6783 44.8879 27.6683 44.9479L27.5483 45.1679C27.3983 45.4179 27.2583 45.6579 27.1183 45.8979L27.0783 45.9679V45.9879L27.0283 46.0879L26.9383 46.2979C26.8183 46.5779 26.6983 46.8479 26.5783 47.1179C26.3383 47.6679 26.1083 48.2079 25.8783 48.7379C25.4283 49.7979 24.9983 50.8279 24.5783 51.8079C22.9483 55.7279 21.7183 58.9079 21.0983 60.5079C20.8083 61.2679 20.5383 62.0379 20.3083 62.8179C20.1783 63.2579 20.0083 63.8279 19.6483 65.0079C19.5283 65.4379 18.1683 69.7779 16.6783 75.2279C16.7083 75.6279 16.7483 76.1079 16.7883 76.6479C16.8083 76.9179 16.8283 77.2079 16.8483 77.5079C16.8583 77.6579 16.8583 77.8279 16.8783 77.9679C16.9283 78.0479 16.9683 78.1179 17.0183 78.1979C17.2083 78.5179 17.4083 78.8679 17.6383 79.2479C17.7483 79.3779 17.9883 79.6579 18.3583 79.9279C18.7183 80.1979 19.1883 80.4179 19.5583 80.5179C19.7583 80.5679 19.8583 80.6079 20.0083 80.5879C20.1683 80.5579 20.3283 80.5279 20.4883 80.4979C20.8183 80.4379 21.1483 80.3779 21.4883 80.3179C21.8283 80.2579 22.1783 80.1879 22.5383 80.1179L22.8083 80.0679C22.8983 80.0479 22.9683 80.0679 23.1383 79.8979C23.4383 79.6379 23.7383 79.3679 24.0383 79.0979C25.2383 78.0279 26.4883 76.9179 27.7783 75.7679C28.4283 75.1579 29.0883 74.5179 29.7483 73.8479C30.2183 73.3679 30.6983 72.8879 31.1783 72.4079C36.9783 66.4879 43.4483 58.9179 48.9283 51.3879C50.7983 48.7379 52.6283 46.0579 54.3583 43.3179C55.2383 41.9579 56.0583 40.5579 56.9083 39.1679L58.2483 36.8479C58.9983 35.5579 59.6883 34.2479 60.4183 32.9379L60.5283 31.2879L60.5883 30.4679L60.6183 30.0579C60.6283 29.9079 60.6583 29.7979 60.5483 29.6479C60.3083 29.3079 60.0283 28.9979 59.5783 28.6779C59.1383 28.3679 58.5383 28.0579 57.6883 27.9679L50.1483 27.1979C48.9883 27.0879 47.8483 26.9679 46.7883 26.8679C46.5283 26.8479 46.2683 26.8179 46.0083 26.7979H45.8983C45.8283 26.7979 45.7683 26.7979 45.7083 26.7979H45.4583C45.3683 26.8279 45.2683 26.7479 45.3183 26.6779C45.3583 26.5279 45.3983 26.3779 45.4383 26.2379L45.4683 26.1079L45.7383 25.4579C45.9283 24.9979 46.1083 24.5479 46.2983 24.0979C46.6583 23.1979 47.0183 22.3179 47.3683 21.4579C48.7483 17.9979 49.9783 14.7479 51.1583 11.5079C52.7783 7.05793 50.1183 5.86794 47.8683 10.0279C46.2283 13.0579 44.6183 16.1379 42.9383 19.4679C42.5283 20.2979 42.0983 21.1479 41.6683 22.0179C41.4583 22.4479 41.2383 22.8879 41.0283 23.3379C40.7383 23.9479 40.4483 24.5579 40.1483 25.1879C39.7983 25.9579 39.3983 26.7479 39.0683 27.5379C38.7983 28.3179 38.7683 29.0179 38.8083 29.5779C38.8183 29.7279 38.8283 29.8479 38.8583 29.9879C38.8883 30.1379 38.9683 30.3279 39.0783 30.4879C39.3083 30.8379 39.4883 30.9179 39.7483 31.1179C40.2283 31.4579 40.8983 31.8279 41.8483 31.9479C43.9583 32.1779 46.6983 32.4779 49.5783 32.7979C50.1583 32.8579 50.8083 32.9379 51.5383 33.0379C51.7183 33.0679 51.9083 33.0879 52.0983 33.1179L52.3783 33.1579L52.4483 33.1779C52.5383 33.2079 52.6383 33.2279 52.7383 33.2579C52.9283 33.3179 53.0883 33.3779 53.2183 33.4479C53.2483 33.4679 53.2983 33.4579 53.2983 33.5179L53.1683 33.6779C53.0883 33.7679 53.0083 33.8579 52.9183 33.9579C52.8483 34.0379 52.7783 34.1079 52.7083 34.1579L52.6183 34.2379C52.4583 34.4879 52.2983 34.7479 52.1283 34.9979C51.4683 36.0579 50.7283 37.1379 49.9883 38.2879C48.4783 40.5779 46.7783 43.0379 44.9183 45.6679C43.6883 47.4079 42.4683 49.1679 41.2983 50.9479C39.1783 54.1279 36.7483 57.3879 34.1983 60.4979C32.9283 62.0579 31.6083 63.5679 30.3083 65.0279C29.6383 65.7479 28.9883 66.4579 28.3383 67.1579C28.0083 67.5079 27.6983 67.8579 27.3683 68.1879C27.0683 68.4979 26.7683 68.7979 26.4783 69.0979C26.1483 69.4679 25.7883 69.8179 25.4483 70.1579C25.2783 70.3279 25.1083 70.4779 24.9383 70.6379C24.7683 70.7679 24.6483 70.9979 24.4283 70.9879C24.2183 70.9779 24.1083 70.7379 24.1883 70.5779C24.2383 70.4079 24.2883 70.2479 24.3283 70.0979C24.4183 69.8079 24.4983 69.5679 24.5483 69.3879C24.7283 68.8379 24.7783 68.6579 24.7783 68.6579L25.5183 66.2979L26.7383 62.5779C27.5683 60.0979 28.4283 57.6379 29.3283 55.1879L30.7083 51.5179L32.1783 47.7779L33.4283 44.6179C33.6183 44.1079 33.8883 43.5379 34.0083 43.0679L33.9283 41.9979L33.8483 40.9279C33.8383 40.8379 33.8483 40.7479 33.8183 40.6579L33.6383 40.5279L33.2683 40.2779C33.0783 40.0979 32.6183 39.9779 32.2683 39.8279C31.9583 39.6479 31.3883 39.6279 30.8783 39.5779C29.6083 39.6279 28.3383 39.6579 27.0783 39.6779L24.6383 39.6979C23.2083 39.6979 21.7683 39.6779 20.3383 39.6379L18.0483 39.5479C17.9483 39.5379 17.8483 39.5479 17.7583 39.5179C17.6683 39.4879 17.5983 39.3879 17.5983 39.2979C17.6283 39.1079 17.7283 38.9279 17.7883 38.7479L18.1783 37.7579C20.2883 32.4079 21.8483 28.4479 23.0383 25.4279C24.2483 22.1979 24.8683 20.2379 25.5283 18.8379C26.0083 17.7879 26.5283 16.8679 27.1083 16.1179C27.6883 15.3479 28.2883 14.8379 29.0383 14.3679C30.5683 13.4379 32.5583 12.9079 34.6083 12.3379C35.1383 12.1879 35.6583 12.0379 36.1783 11.8879C36.6483 11.7479 37.0483 11.6279 37.5583 11.5079C38.5483 11.2579 39.5183 11.0079 40.4783 10.7579C42.4183 10.2479 44.3083 9.71794 46.1683 9.10794L46.1283 9.11793Z" fill="#101214"/>
</g>
<rect x="0.5" y="0.5" width="69" height="88" rx="4.5" stroke="#9747FF" stroke-dasharray="10 5"/>
<defs>
<clipPath id="clip0_448_6054">
<rect width="70" height="89" rx="5" fill="white"/>
</clipPath>
</defs>
</svg>
