<svg width="195" height="231" viewBox="0 0 195 231" fill="none" xmlns="http://www.w3.org/2000/svg">
<g clip-path="url(#clip0_448_5717)">
<path d="M32.0202 193.15C33.0202 194.21 33.9302 195.11 34.7402 195.84C35.5702 196.56 36.3202 197.1 36.9402 197.51C38.2002 198.31 39.0302 198.51 39.3602 198.19C39.6902 197.87 39.5302 197.02 38.8202 195.73C38.4702 195.08 37.9702 194.33 37.3502 193.47C36.7402 192.59 35.9902 191.6 35.0902 190.51C30.0702 184.25 25.3802 177.48 21.1302 169.69C19.0102 165.79 16.9902 161.65 15.1502 157.18C14.2302 154.94 13.3702 152.64 12.5202 150.21C11.6602 147.75 10.8102 145.26 9.99019 142.68C6.22019 131.04 5.07019 123.55 5.23019 117.21C5.34019 114.05 5.83019 111.17 6.95019 108.37C7.53019 106.98 8.27019 105.63 9.24019 104.32C9.49019 104.01 9.76019 103.65 10.0002 103.37C10.2602 103.09 10.5702 102.77 10.8902 102.47C11.5402 101.86 12.2502 101.26 13.0302 100.69C15.6302 98.7501 18.9002 97.2001 22.3602 97.0801C24.0902 97.0001 25.8102 97.3401 27.4902 98.0101C29.1702 98.6801 30.7402 99.7601 32.1402 101.05C33.5402 102.36 34.7302 103.94 35.6802 105.63C36.1402 106.51 36.5302 107.34 36.8902 108.32C37.2502 109.28 37.5602 110.26 37.8302 111.26C38.9102 115.26 39.3302 119.46 39.4102 123.59C39.4102 124.12 39.4302 124.64 39.4402 125.16L39.4602 125.99C39.4702 126.3 39.4602 126.54 39.5402 127.08C39.5902 127.28 39.5402 127.33 39.7802 127.96C39.8102 128.02 39.8302 128.08 39.9402 128.28C40.0302 128.44 40.1402 128.6 40.2602 128.74C40.3902 128.92 40.9202 129.38 41.3402 129.53C41.7102 129.71 42.4802 129.84 43.0802 129.68C43.8202 129.47 43.7402 129.43 44.0702 129.25C44.3002 129.1 44.5402 128.86 44.5602 128.84C44.6302 128.77 44.7002 128.69 44.7602 128.61C44.8302 128.53 44.8902 128.44 44.9002 128.42L45.0502 128.18L45.0902 128.1L45.1502 127.98L45.2602 127.75L45.6902 126.81C45.9102 126.24 46.0802 125.72 46.2802 125.17C46.9402 123.09 47.4802 121.15 48.0102 119.27C49.0602 115.53 50.0902 112.1 51.1302 109.04C53.2002 102.93 55.3202 98.4001 56.6402 95.9701C57.3702 94.5001 58.2102 93.11 58.9902 91.67C59.3402 91.03 59.8402 90.31 60.3802 89.45C60.9002 88.57 61.5902 87.6501 62.3602 86.6201C63.0702 85.6101 64.0702 84.4 65.0702 83.17C66.0902 81.94 67.1902 80.6301 68.4102 79.3201C70.8302 76.6701 73.7402 73.9401 77.2402 71.6401C79.0102 70.5401 80.9002 69.5301 82.9502 68.7901C85.0002 68.0901 87.1802 67.64 89.4502 67.52C91.8402 67.42 94.1502 67.6101 96.4002 68.2601C98.6202 68.9201 100.7 69.9801 102.37 71.5701C104.06 73.1401 105.38 75.1801 106.26 77.5401C106.7 78.7201 107.06 79.9501 107.31 81.2601C107.43 81.8901 107.59 82.6501 107.63 83.2601L107.83 85.1801C107.98 90.5201 106.89 96.27 105.41 101.84C103.91 107.43 101.96 112.94 99.8502 118.27C96.8902 125.81 93.8202 132.49 90.9002 138.44C87.9902 144.4 85.1902 149.59 82.6602 154.15C77.5702 163.26 73.4902 169.76 70.6702 174.2C63.9302 184.65 57.6802 193.54 51.5402 201.45C45.4002 209.36 39.4802 216.4 33.0502 222.79C31.3102 224.57 30.0402 225.95 29.3002 227.01C28.5602 228.07 28.3402 228.8 28.6002 229.11C28.8602 229.43 29.6002 229.33 30.7702 228.75C31.9502 228.17 33.5902 227.13 35.5002 225.43C42.5402 219.33 48.9702 212.46 55.4902 204.61C62.0102 196.76 68.5202 187.82 75.3802 177.22C78.0102 173.08 82.2202 166.79 87.2802 158.22C92.3302 149.64 98.3302 138.82 104.02 125.43C104.97 123.26 105.79 121.03 106.65 118.83C107.43 116.59 108.25 114.37 108.92 112.1C110.44 107.23 111.81 102.1 112.75 96.7301C113.03 95.4101 113.14 94.0101 113.35 92.6601C113.54 91.3001 113.57 89.88 113.69 88.49C113.72 87.79 113.69 87.06 113.69 86.35C113.67 85.63 113.71 84.9301 113.59 84.1901L113.34 82.0001C113.24 81.3001 113.11 80.6501 112.96 79.9401C112.37 77.1601 111.38 74.37 109.88 71.85C108.37 69.34 106.31 67.1101 103.91 65.5301C101.52 63.9201 98.8602 62.9001 96.2602 62.3701C93.6602 61.8301 91.0702 61.7001 88.6702 61.8801C83.7002 62.1801 79.2802 63.8 75.8102 65.81C72.3102 67.8 69.6002 70.0401 67.4902 71.9701C65.3802 73.9201 63.8402 75.5701 62.8202 76.7201C61.7802 77.8601 61.2502 78.5001 61.2502 78.5001C61.2502 78.5001 60.4402 79.4401 59.0502 81.1501C58.3502 81.9601 57.5102 83.1501 56.5402 84.4301C56.0302 85.0701 55.6002 85.8201 55.0902 86.5701C54.6002 87.3401 54.0402 88.13 53.5602 89.02C51.4802 92.49 49.4402 96.8201 47.6002 101.72C45.7602 106.62 44.1602 112.12 42.6702 117.81C42.2902 119.21 41.9102 120.63 41.5302 122.05C41.3302 122.73 41.1402 123.46 40.9102 124.07C40.8002 124.37 40.7002 124.76 40.5802 124.97L40.4202 125.34L40.3402 125.53V125.55L42.0102 126.46L42.2302 126.61C42.2802 126.64 42.3302 126.68 42.3802 126.72C42.4702 126.79 42.4802 126.85 42.4802 126.84C42.4802 126.81 42.5602 126.76 42.6802 126.71C42.8102 126.65 42.9402 126.62 43.1602 126.56C43.2602 126.53 43.3602 126.51 43.4602 126.5L43.8502 126.42L44.7202 126.28C44.9702 126.24 44.9102 126.25 44.9102 126.25L44.9002 126.09L44.8802 125.6L44.8402 124.48L44.7502 122.14C44.6702 120.56 44.5402 118.97 44.3502 117.38C43.9602 114.2 43.3002 111.01 42.2602 107.92C42.0002 107.15 41.7202 106.39 41.3902 105.63L40.8702 104.47L40.2802 103.35C39.4602 101.88 38.5002 100.5 37.4102 99.2401C35.2502 96.7201 32.5302 94.7001 29.5002 93.4401C26.4702 92.1801 23.0902 91.8801 20.1002 92.3701C17.1002 92.8801 14.4402 94.0101 12.2202 95.3801C9.97019 96.7501 8.14019 98.2901 6.53019 99.9701C5.34019 101.35 4.37019 102.66 3.60019 104.1C2.80019 105.5 2.20019 106.94 1.72019 108.35C0.78019 111.17 0.35019 113.87 0.16019 116.37C-0.18981 121.37 0.33019 125.55 0.87019 129.1C2.09019 136.18 3.59019 140.83 4.68019 144.36C5.53019 147.02 6.43019 149.58 7.31019 152.04C8.20019 154.52 9.14019 156.96 10.1302 159.29C12.1302 163.94 14.3302 168.23 16.6602 172.23C21.3302 180.22 26.5102 187.02 32.0702 193.13L32.0202 193.15Z" fill="#101214"/>
<path d="M164.97 184.05C170.02 186.97 171.7 184.07 167.26 180.71C164.13 178.27 161.02 175.67 157.82 172.69C154.63 169.7 151.33 166.35 147.97 162.28C146.04 160 144.56 158.08 143.32 156.41C142.07 154.72 141.12 153.34 140.32 152C138.77 149.32 137.64 146.9 137.46 143.15C137.41 142.37 137.44 141.51 137.51 140.67C137.58 139.89 137.74 139.07 137.99 138.26C138.5 136.65 139.38 135.04 140.59 133.79C141.79 132.51 143.3 131.67 144.83 131.42C145.64 131.32 146.25 131.33 146.96 131.53C147.66 131.72 148.37 132.08 149.06 132.54C150.44 133.47 151.69 134.8 152.75 136.14C153.8 137.5 154.68 138.91 155.37 140.22C156.07 141.53 156.59 142.75 156.93 143.73C157.28 144.68 157.38 145.52 157.31 145.33V145.46V145.51V145.53C157.31 145.48 157.31 145.67 157.34 145.94C157.36 146.09 157.39 146.29 157.52 146.67C157.59 146.86 157.69 147.11 157.92 147.44C158.14 147.76 158.51 148.2 159.16 148.55C159.8 148.91 160.72 149.04 161.41 148.89C162.11 148.76 162.56 148.48 162.85 148.26C163.43 147.81 163.57 147.53 163.7 147.34C163.92 146.98 163.96 146.84 164 146.75C164.04 146.64 164.08 146.53 164.11 146.42C164.17 146.2 164.22 145.94 164.23 145.74L164.25 145.52L164.28 145.2L164.33 144.58L164.41 143.34C164.49 141.86 164.67 139.11 165.1 135.51C165.55 131.92 166.22 127.43 167.62 122.77C168.32 120.46 169.22 118.08 170.46 116.08C171.07 115.08 171.79 114.21 172.53 113.62C172.91 113.32 173.19 113.15 173.85 112.82C174.4 112.55 174.92 112.32 175.44 112.15C176.48 111.81 177.42 111.73 178.13 111.92C178.53 112.03 178.73 112.1 179.06 112.35C179.38 112.58 179.72 112.92 180.04 113.32C181.34 114.98 182.16 117.54 182.66 120.13C183.41 123.8 183.61 127.31 183.55 130.45C183.47 133.59 183.23 136.4 182.81 138.86C182.64 140.09 182.41 141.23 182.18 142.29C182.07 142.82 181.96 143.33 181.86 143.83C181.73 144.32 181.61 144.79 181.49 145.24C181.25 146.14 181.06 146.97 180.83 147.71C180.59 148.45 180.38 149.12 180.19 149.73C178.36 155.42 176.14 160.18 173.97 164.54C171.73 168.86 169.42 172.71 166.92 176.41C165.55 178.44 165.35 179.89 165.98 180.43C166.59 180.95 168.05 180.53 169.77 178.64C172.88 175.19 175.73 171.42 178.4 167.02C181 162.59 183.55 157.58 185.54 151.47C185.92 150.28 186.47 148.79 187 146.95C187.28 146.04 187.6 145.05 187.86 143.96C188.12 142.87 188.47 141.72 188.69 140.46C189.71 135.47 190.58 129.07 189.59 121.48C189.25 119 188.68 116.55 187.63 114.09C187.05 112.76 186.34 111.41 185.36 110.11C184.35 108.82 183.11 107.53 181.23 106.67C179.36 105.85 177.4 105.79 175.7 106.08C174 106.39 172.51 107.01 171.2 107.7C170.64 107.99 169.79 108.48 169.14 109C168.47 109.52 167.9 110.09 167.39 110.68C166.37 111.86 165.6 113.09 164.95 114.3C163.66 116.73 162.83 119.12 162.14 121.36C160.81 125.83 160.13 129.7 159.67 132.45C159.23 135.2 159.03 136.82 159.03 136.82C158.85 138.27 158.7 139.72 158.57 141.17L158.39 143.35L158.31 144.44L158.28 144.98L158.26 145.24V145.27C158.28 145.27 158.21 145.27 158.31 145.27L158.65 145.3L158.99 145.33C159.13 145.35 159.19 145.34 159.21 145.33L159.45 145.3C159.77 145.27 160.08 145.3 160.39 145.37L160.61 145.44L160.72 145.48C160.72 145.48 160.82 145.52 160.77 145.5C160.72 145.47 160.66 145.45 160.63 145.39C160.61 145.36 160.53 145.19 160.86 145.12C161.21 145.16 161.27 145.35 161.34 145.37C161.41 145.42 161.47 145.45 161.53 145.47C161.53 145.49 161.64 145.47 161.73 145.47H161.99L162.51 145.46H163.34V145.45V145.36C163.34 144.95 163.3 144.52 163.23 144.17C163.16 143.84 163.09 143.52 163.01 143.25C162.85 142.67 162.66 142.16 162.46 141.65C162.06 140.65 161.62 139.71 161.14 138.79C160.17 136.96 159.08 135.23 157.8 133.58C156.53 131.94 155.09 130.37 153.33 129.01C151.59 127.67 149.43 126.48 146.83 126.21C146.2 126.14 145.5 126.15 144.89 126.21C144.28 126.28 143.67 126.37 143.07 126.55C142.46 126.68 141.91 126.94 141.34 127.15C140.81 127.43 140.24 127.67 139.75 128.01C137.72 129.29 136.16 131.06 135 132.99C133.84 134.93 133.09 137.09 132.77 139.34C132.62 140.51 132.59 141.52 132.6 142.59C132.62 143.66 132.7 144.73 132.86 145.79C133.38 149.19 134.52 151.94 135.66 154.15C136.79 156.37 137.96 158.12 138.94 159.58C140.95 162.51 142.49 164.41 143.66 165.85C147.26 170.17 150.88 173.64 154.42 176.58C157.97 179.52 161.46 181.93 164.99 184.05H164.97Z" fill="#101214"/>
<path d="M155.17 53.5301C158.97 57.2301 161.36 54.8801 158.21 50.8601C156.01 47.9801 153.84 44.9901 151.76 41.6601C150.73 39.9901 149.73 38.2401 148.79 36.3301C147.84 34.4201 146.97 32.3701 145.97 30.0501C145.67 29.3901 145.38 28.7701 145.1 28.1701C144.93 27.8301 144.89 27.6901 144.79 27.4701C144.7 27.2901 144.62 27.0501 144.55 26.8301C144.24 25.9501 144.05 25.0201 143.87 24.1701C143.56 22.4501 143.46 20.9501 143.46 19.5801C143.46 18.2101 143.58 16.9401 143.91 15.7001C144.23 14.4701 144.74 13.1801 145.7 12.1601C145.92 11.9701 146.13 11.7701 146.34 11.5601C146.59 11.4001 146.84 11.2501 147.08 11.0801C147.59 10.7901 148.31 10.5601 149.02 10.4001C150.47 10.0901 152.01 10.1401 153.32 10.6801C153.98 10.9301 154.6 11.3201 155.15 11.8001C155.43 12.0401 155.69 12.3101 155.93 12.5901C156.05 12.7301 156.16 12.8801 156.27 13.0301L156.43 13.2601C156.48 13.3401 156.46 13.3101 156.51 13.4001C156.94 14.1801 157.33 15.0001 157.68 15.8301C158.26 17.2101 158.9 19.0001 159.41 20.8001C159.95 22.5901 160.49 24.4901 161.09 25.6901C161.7 26.7301 162.25 27.2301 162.71 27.5601C163.18 27.9301 163.53 28.1001 164.03 28.2001C164.3 28.2201 164.44 28.1701 164.54 28.1501L164.84 28.0701C165.03 28.0101 165.21 27.9501 165.39 27.8601C165.75 27.6401 166.17 27.4501 166.58 26.9901C167 26.5701 167.41 25.8601 167.7 24.9001C167.99 23.9401 168.22 22.9201 168.43 22.0301C168.64 21.1401 168.82 20.3701 168.98 19.7201L169.55 17.4301L170.12 15.2801C170.47 14.0601 171.08 11.6401 172.42 9.23007C172.76 8.64007 173.14 8.07007 173.56 7.62007C173.98 7.15007 174.34 6.87007 175.03 6.50007C175.35 6.33007 175.71 6.17007 176.08 6.03007C176.26 5.96007 176.46 5.90007 176.63 5.85007C176.75 5.82007 176.68 5.83007 176.78 5.81007C176.87 5.80007 176.95 5.77007 177.04 5.76007C177.74 5.65007 178.52 5.67007 179.39 5.84007C180.26 6.00007 181.21 6.33007 182.2 6.75007L182.57 6.91007L182.86 7.06007C183.06 7.16007 183.26 7.25007 183.43 7.38007C183.8 7.61007 184.15 7.87007 184.47 8.17007C185.77 9.36007 186.66 11.2201 187.25 13.5701C187.4 14.1501 187.59 14.8801 187.68 15.4001C187.8 15.9701 187.93 16.5301 187.97 17.1101L188.07 17.9701L188.1 18.8401C188.14 19.4201 188.1 20.0001 188.07 20.5801C187.94 22.9101 187.33 25.2301 186.46 27.4401C185.86 29.0101 185.15 30.4801 184.4 31.8901C184 32.6101 183.61 33.3201 183.24 34.0001C182.82 34.8001 182.46 35.3401 182.1 35.9401C181.74 36.5201 181.41 37.1001 181.05 37.6501C180.65 38.1801 180.26 38.7001 179.88 39.2001C179.49 39.7001 179.16 40.2001 178.76 40.6601C178.36 41.1101 177.98 41.5501 177.61 41.9801C177.24 42.4101 176.88 42.8201 176.54 43.2201C176.17 43.6001 175.81 43.9701 175.46 44.3301C174.76 45.0401 174.13 45.7101 173.52 46.3001C172.26 47.4601 171.23 48.4501 170.36 49.2301C166.24 52.9001 162.42 55.9201 158.86 58.6901C155.3 61.4601 151.98 63.9601 148.67 66.4201C147.76 67.0901 147.17 67.7401 146.85 68.3101C146.77 68.4501 146.71 68.5901 146.67 68.7201C146.66 68.8301 146.49 69.0401 146.47 69.1801C146.39 69.4801 146.47 69.6601 146.64 69.7901C146.8 69.9201 147.03 70.0001 147.25 70.1101C147.43 70.2401 147.7 70.2901 148.04 70.2701C148.7 70.2601 149.57 70.0101 150.6 69.4801C154.32 67.5201 157.98 65.3701 161.84 62.8101C165.69 60.2401 169.76 57.2701 174.11 53.4301C174.96 52.6901 176.03 51.7301 177.35 50.6101C178.01 50.0501 178.68 49.3901 179.44 48.7001C180.19 48.0101 181 47.2801 181.79 46.4201C183.43 44.7601 185.19 42.7801 186.91 40.3201C187.32 39.6801 187.74 39.0301 188.18 38.3701L188.5 37.8701L188.76 37.4201C188.94 37.1101 189.13 36.8001 189.31 36.4801C190.08 35.1701 190.91 33.7101 191.65 32.1101C192.63 30.0301 193.39 27.7801 193.79 25.4501C194.24 22.9401 194.39 20.2501 194.09 17.5701L193.79 15.5701L193.33 13.6001C193.02 12.4601 192.69 11.1901 192.2 9.91007C191.27 7.37007 189.63 4.77007 187.27 3.09007C186.69 2.68007 186.09 2.30007 185.47 2.00007C184.83 1.66007 184.34 1.48007 183.76 1.24007C182.64 0.800069 181.47 0.430069 180.26 0.210069C179.05 -0.00993133 177.81 -0.0799313 176.61 0.0500687C176.31 0.0800687 176.02 0.120069 175.73 0.180069C175.6 0.200069 175.34 0.260069 175.22 0.290069L174.81 0.410069C174.28 0.570069 173.8 0.750069 173.33 0.940069C172.38 1.34007 171.54 1.80007 170.73 2.39007C169.93 2.99007 169.32 3.62007 168.82 4.20007C167.84 5.37007 167.29 6.36007 166.92 7.03007C166.55 7.70007 166.38 8.07007 166.38 8.07007C166.38 8.07007 166.11 8.62007 165.7 9.61007C165.5 10.1101 165.27 10.7101 165.02 11.4201C164.9 11.7701 164.78 12.1501 164.65 12.5501C164.54 12.9101 164.42 13.2901 164.3 13.7001C164.15 14.2201 164.03 14.7201 163.9 15.3501C163.83 15.6501 163.77 15.9801 163.69 16.3001C163.67 16.3801 163.65 16.4601 163.61 16.5401C163.55 16.6701 163.48 16.5001 163.46 16.4401C163.39 16.2801 163.33 16.1101 163.28 15.9401C163.17 15.6001 163.06 15.2501 162.95 14.9001L162.77 14.3801C162.7 14.2101 162.64 14.0501 162.53 13.8001L162.12 12.9401C161.96 12.6001 161.78 12.2701 161.6 11.9301C161.43 11.5901 161.23 11.2701 161.04 10.9401C160.96 10.8101 160.83 10.5601 160.65 10.3101C160.52 10.1301 160.39 9.96007 160.26 9.79007C159.19 8.44007 157.84 7.31007 156.29 6.53007C154.74 5.74007 153.05 5.35007 151.45 5.29007C149.85 5.24007 148.34 5.47007 146.96 5.90007C146.26 6.12007 145.6 6.37007 144.92 6.72007C144.28 7.13007 143.62 7.49007 143.09 7.97007C142.58 8.45007 142.04 8.90007 141.68 9.43007C141.28 9.93007 140.9 10.4201 140.65 10.9301C138.93 13.9401 138.56 16.6901 138.34 19.0101C138.16 21.3501 138.29 23.3301 138.52 25.0501C138.76 26.7701 139.12 28.2201 139.63 29.5401C139.91 30.2601 140.1 30.6601 140.3 31.1001C140.49 31.5301 140.67 31.9301 140.83 32.3001C141.81 34.5601 142.81 36.8001 143.92 38.8601C145.03 40.9301 146.22 42.8101 147.45 44.5501C149.94 48.0101 152.52 50.8901 155.18 53.5401L155.17 53.5301Z" fill="#101214"/>
</g>
<defs>
<clipPath id="clip0_448_5717">
<rect width="194.24" height="230.51" fill="white"/>
</clipPath>
</defs>
</svg>
