<svg width="47" height="95" viewBox="0 0 47 95" fill="none" xmlns="http://www.w3.org/2000/svg">
<g clip-path="url(#clip0_448_5371)">
<path d="M11.26 0.79001C4.65996 1.14001 4.65996 4.49001 11.26 4.84001C15.94 5.09001 20.74 5.28001 25.94 5.41001C28.54 5.46001 31.25 5.51001 34.1 5.56001C36.16 5.58001 38.32 5.60001 40.61 5.62001C40.65 5.62001 40.69 5.62001 40.7 5.61001C40.71 5.71001 40.73 5.81001 40.74 5.90001V5.98001L40.76 6.02001V6.04001V6.18001C40.76 6.56001 40.78 6.92001 40.79 7.28001C40.83 8.72001 40.87 10.03 40.91 11.24C41.01 13.67 41.1 15.71 41.18 17.62C41.36 21.44 41.51 24.71 41.47 29.46C41.47 37.66 41.24 48.68 40.98 58.48C40.84 63.31 40.7 67.84 40.59 71.57C40.47 71.91 40.37 71.76 40.31 71.64C40.28 71.56 40.27 71.53 40.28 71.58C40.31 71.67 40.33 71.8 40.19 71.71L40.13 71.67H40.11L39.89 71.34C39.73 71.11 39.57 70.87 39.4 70.64C38.74 69.69 38.06 68.69 37.34 67.65C35.8 65.42 34.13 63.02 32.37 60.47C31.58 59.35 30.79 58.22 29.98 57.08C29.58 56.51 29.17 55.94 28.77 55.36L28.46 54.93L28.38 54.82C28.38 54.82 28.33 54.73 28.3 54.79L28.12 54.98L27.38 55.76C25.63 57.61 23.85 59.5 22.03 61.43C19.88 63.72 17.65 66.09 15.39 68.49C13.12 70.89 10.81 73.32 8.48996 75.76L7.77996 76.5L7.54996 76.73C7.39996 76.87 7.25996 77.01 7.13996 77.12C7.13996 77.07 7.15996 76.97 7.16996 76.86C7.22996 74.54 7.28996 72.44 7.33996 70.54C7.41996 66.7 7.48996 63.28 7.54996 60.25C7.63996 54.22 7.70996 49.77 7.75996 46.73C7.94996 32.35 7.78996 21.62 7.52996 11.08C7.40996 5.30001 4.49996 5.15001 3.91996 10.95C2.90996 21.49 2.37996 32.26 2.13996 46.64C2.08996 49.43 1.82996 53.74 1.50996 59.39C1.35996 62.21 1.18996 65.38 0.999961 68.86C0.909961 70.6 0.829961 72.42 0.729961 74.31C0.589961 77.64 0.439961 81.11 0.289961 84.71C0.149961 87.9 0.0399609 91.1 -0.0400391 94.13C1.47996 92.47 2.97996 90.84 4.47996 89.21C6.37996 87.12 8.31996 84.99 10.28 82.83L11.71 81.27L12.76 80.1C13.26 79.54 13.75 78.98 14.25 78.42C16.26 76.19 18.3 73.93 20.32 71.69C22.36 69.48 24.37 67.29 26.3 65.18L26.91 64.52L27.09 64.31C27.22 64.17 27.34 64.03 27.46 63.89C27.52 63.84 27.59 63.71 27.65 63.72L27.81 63.93C27.92 64.08 28.02 64.22 28.12 64.36C28.67 65.16 29.21 65.93 29.72 66.67C30.38 67.65 31.02 68.59 31.62 69.47C32.81 71.25 33.86 72.83 34.74 74.14C37.53 78.3 39.18 80.75 39.18 80.75C39.18 80.75 41.87 84.61 46.18 90.8C46.23 89.03 46.23 86.91 46.25 84.74C46.26 83.64 46.27 82.51 46.28 81.34C46.28 80.14 46.28 78.9 46.28 77.63C46.28 73.91 46.28 69.83 46.28 65.56C46.28 52.12 46.28 36.33 46.28 26.96L46.26 0.0100098H45.08C42.8 0.0100098 40.58 0.0200098 38.42 0.0300098C36.92 0.0400098 35.47 0.0600098 34.04 0.0700098C31.19 0.12001 28.49 0.17001 25.88 0.22001C20.67 0.35001 15.87 0.54001 11.2 0.79001H11.26Z" fill="#101214"/>
</g>
<defs>
<clipPath id="clip0_448_5371">
<rect width="46.33" height="94.12" fill="white"/>
</clipPath>
</defs>
</svg>
