<svg width="166" height="124" viewBox="0 0 166 124" fill="none" xmlns="http://www.w3.org/2000/svg">
<g clip-path="url(#clip0_448_5344)">
<path d="M17.0901 91.8101C19.1801 93.9401 21.0501 95.2001 22.3701 95.9401C23.7001 96.6701 24.5401 96.8201 24.8401 96.4701C25.1501 96.1201 24.9201 95.2801 24.1101 94.0301C23.3101 92.7701 21.8801 91.1601 20.0101 89.0101C17.2501 86.0601 14.8301 82.7901 12.5001 79.3701C10.3301 75.8701 8.3801 72.1301 7.0601 68.0501C5.7401 63.9801 5.11011 59.5601 5.59011 55.0101C6.05011 50.4701 7.63011 45.8301 10.3001 41.3901C10.6301 40.7401 11.0701 40.1601 11.4601 39.5701C11.8601 38.9901 12.2201 38.4101 12.6201 37.8601C13.4801 36.8101 14.2201 35.7501 15.0601 34.8401C15.9101 33.9301 16.6501 33.0001 17.4901 32.2201C18.3201 31.4301 19.0801 30.6401 19.8601 29.9301C22.9901 27.0801 25.9001 24.9801 28.6401 23.0701C30.0501 22.1701 31.4001 21.2801 32.7901 20.4701C34.2001 19.6901 35.5701 18.8401 37.0701 18.1201C38.5501 17.3701 40.0901 16.6001 41.7701 15.8901C43.4301 15.1201 45.2401 14.4401 47.2101 13.6901C53.8701 11.2001 61.9801 9.03009 70.5701 7.68009C74.8701 7.01009 79.2801 6.59009 83.6701 6.34009C88.0701 6.17009 92.4501 6.16009 96.6701 6.44009C105.12 6.97009 112.9 8.52009 119.05 10.4601C125.19 12.4201 129.7 14.6801 132.09 16.1001C133.55 16.8701 134.92 17.7801 136.33 18.6401C138.76 20.2501 143.32 23.3301 147.86 28.8301C150.05 31.6201 152.33 34.9301 154.07 38.9301C155.82 42.9201 157.17 47.4801 157.93 52.4401C158.73 57.4001 158.74 62.7801 158.35 68.2901C158.21 69.6701 158.12 71.0601 157.95 72.4601C157.74 73.8501 157.52 75.2601 157.3 76.6701L157.14 77.6801C157.14 77.6801 157.01 78.0701 156.92 78.3601C156.74 78.9701 156.48 79.5501 156.23 80.1301C156 80.7201 155.64 81.2601 155.35 81.8401C154.99 82.3801 154.67 82.9401 154.27 83.4601C152.72 85.5601 150.74 87.4301 148.5 89.0401C146.25 90.6501 143.75 92.0101 141.14 93.1801C135.9 95.5101 130.26 97.1101 124.63 98.2701C116.67 99.9501 109.27 100.76 102.6 101.28C95.9201 101.79 89.9401 101.96 84.6501 102.02C74.0801 102.11 66.2801 101.74 60.9501 101.46C57.0301 101.25 53.2601 100.99 49.7301 100.72C47.9701 100.57 46.2701 100.43 44.6301 100.29C43.8201 100.21 43.0201 100.14 42.2401 100.07C40.9201 99.9301 39.6301 99.7901 38.3801 99.6501C38.0101 100.11 37.6401 100.57 37.2701 101.03C37.0901 101.26 36.9001 101.49 36.7101 101.7L36.2301 102.25C35.8401 102.68 35.4501 103.12 35.0401 103.54C34.2401 104.39 33.4101 105.19 32.5701 105.97C30.9001 107.52 29.1701 108.94 27.4401 110.25C27.0001 110.57 26.5701 110.89 26.1301 111.21C25.9201 111.37 25.6901 111.51 25.4701 111.67L24.8901 112.07C24.6901 112.23 24.4701 112.38 24.2401 112.55C23.9801 112.72 23.7301 112.88 23.4701 113.05L23.0401 113.31L22.8101 113.44C22.8101 113.44 22.8201 113.35 22.8201 113.31C22.9701 112.75 23.1101 112.08 23.2701 111.28C23.5201 110.23 23.7701 109.19 24.0201 108.15C24.2901 106.98 24.5501 105.82 24.8201 104.66C25.9301 99.6101 25.6901 96.9101 24.9001 96.7301C24.1001 96.5501 22.7601 98.8601 21.3301 103.76C20.9901 104.89 20.6601 106.01 20.3201 107.14C19.9401 108.36 19.5501 109.6 19.1701 110.84C18.6301 112.58 18.0101 114.37 17.2901 116.31C16.5201 118.29 15.7401 120.29 14.9501 122.33L15.2001 122.35H15.3301L15.3901 122.36C15.4201 122.36 15.4701 122.32 15.5101 122.31L16.5501 121.83C17.2501 121.51 17.9501 121.18 18.6601 120.86C20.0701 120.19 21.4401 119.56 22.9001 118.82C24.3601 118 25.8801 117.26 27.4001 116.28L28.1901 115.78C28.4301 115.62 28.6801 115.48 28.9201 115.31C29.4001 114.98 29.8801 114.66 30.3701 114.33C32.2901 112.98 34.2001 111.5 36.0701 109.86C37.0001 109.04 37.9301 108.18 38.8301 107.27C39.2901 106.82 39.7301 106.35 40.1801 105.87L40.6401 105.36C40.9701 105.4 41.3101 105.44 41.6501 105.49C42.4401 105.58 43.2501 105.67 44.0801 105.76C45.7401 105.92 47.4601 106.09 49.2501 106.26C52.8201 106.58 56.6401 106.86 60.6201 107.08C65.5901 107.35 73.2401 107.92 83.3601 108.09C88.4201 108.17 94.0901 108.15 100.34 107.84C106.59 107.52 113.43 106.95 120.78 105.73C125.56 104.92 130.33 103.81 134.96 102.27C139.94 100.58 145.08 98.4901 149.87 95.3601C152.26 93.8001 154.56 91.9801 156.59 89.8301C158.62 87.6801 160.34 85.1601 161.54 82.4001C161.84 81.7101 162.13 81.0201 162.34 80.3001L162.72 79.1201L162.89 77.9701C163.09 76.6301 163.28 75.3001 163.48 73.9701C163.71 72.6501 163.76 71.3101 163.89 69.9901C163.98 68.6701 164.17 67.3701 164.17 66.0501C164.2 64.7401 164.23 63.4501 164.26 62.1701C164.32 60.8901 164.18 59.6201 164.14 58.3701C164.1 55.8601 163.7 53.4301 163.44 51.0801C161.93 41.6901 158.5 33.9801 155.24 29.1201C154.4 27.9201 153.64 26.8501 152.97 25.9101C152.26 25.0101 151.61 24.2701 151.1 23.6601C150.1 22.4101 149.46 21.8201 149.46 21.8201C149.46 21.8201 148.56 20.8901 146.9 19.2701C146.02 18.5201 144.95 17.5801 143.68 16.5301C143.02 16.0401 142.31 15.5301 141.56 14.9801C141.18 14.7101 140.8 14.4201 140.4 14.1301C139.99 13.8701 139.56 13.6001 139.13 13.3301C132.27 8.77009 121.66 4.45009 109.61 2.49009C97.5701 0.44009 84.2301 0.60009 72.1101 2.40009C66.0401 3.29009 60.2701 4.56009 55.0401 6.02009C49.8201 7.51009 45.1501 9.21009 41.2301 10.8101C35.3401 13.2701 30.3901 15.8701 26.2401 18.4701C22.1001 21.0801 18.7501 23.6701 15.9801 26.0601C10.5201 30.9701 7.4701 35.1601 5.4301 38.4901C2.4501 43.5901 0.600105 49.1101 0.140105 54.5201C-0.349895 59.9301 0.530105 65.1201 2.1601 69.7001C3.7901 74.3001 6.1001 78.3401 8.6201 82.0201C11.2801 85.5901 14.0301 88.9101 17.1001 91.8201L17.0901 91.8101Z" fill="#101214"/>
</g>
<defs>
<clipPath id="clip0_448_5344">
<rect width="164.33" height="121.36" fill="white" transform="translate(0 1)"/>
</clipPath>
</defs>
</svg>
