<svg width="120" height="146" viewBox="0 0 120 146" fill="none" xmlns="http://www.w3.org/2000/svg">
<g clip-path="url(#clip0_448_6004)">
<path d="M54.22 8.95004C62.69 0.570037 60.41 -1.87996 51.46 5.99004C38.77 17.15 25.62 29.07 8.93 44.61C4.81 48.52 1.17 51.98 0 53.08C3.12 55.18 5.99 57.12 8.66 58.92C10.4 60.07 12.01 61.13 13.52 62.12C16.55 64.1 19.19 65.82 21.7 67.47C26.73 70.76 31.26 73.75 37.35 77.98C38.48 78.76 39.67 79.58 41.36 80.76C39.53 84.6 37.55 88.78 35.51 93.08C33.16 97.98 30.74 103.02 28.38 107.94C22.55 120.03 16.99 131.56 12.89 140.06C12.78 140.36 12.63 140.68 12.62 140.89C12.57 141.12 12.51 141.37 12.52 141.53L12.5 142.06L12.54 142.48C12.6 143.01 12.72 143.39 12.83 143.69C12.94 144.04 13.05 144.2 13.16 144.45L13.31 144.72C13.31 144.72 13.43 144.83 13.45 144.84L13.51 144.87L13.65 144.92C14.04 145.05 14.43 145.23 15.05 145.3C15.32 145.36 15.71 145.34 16.09 145.3C16.53 145.21 16.96 145.15 17.63 144.7C23.22 140.2 27.21 136.98 29.9 134.82C31.29 133.72 32.67 132.59 34.04 131.44C37.68 128.39 45.92 121.49 57.47 111.82C63.26 107 69.88 101.49 77.17 95.42C85.44 88.58 94.46 81.11 104.06 73.16C99.63 70.14 87.64 61.96 76.13 54.11L63.32 45.41L97.31 21.3C105.69 15.32 113.46 9.76004 119.77 5.26004C115.8 4.84004 111.93 4.43004 108.14 4.03004C105.29 3.74004 102.5 3.46004 99.76 3.18004C95.85 2.82004 92.11 2.47004 88.47 2.13004C81.19 1.48004 74.35 0.910037 67.56 0.380037C57.12 -0.429963 56.8 2.47004 67.16 3.97004C73.91 4.95004 80.71 5.89004 87.95 6.85004C91.57 7.32004 95.31 7.80004 99.2 8.30004C100.17 8.42004 101.16 8.54004 102.15 8.67004C102.5 8.72004 102.85 8.77004 103.2 8.82004C103.79 8.91004 104.4 8.99004 105.01 9.08004C104.32 9.55004 103.54 10.07 102.71 10.63C99.99 12.55 97.08 14.6 94.06 16.72C90.74 19.07 85.91 22.34 79.56 26.64C76.39 28.79 72.84 31.2 68.9 33.88C66.94 35.22 64.88 36.63 62.72 38.1C59.32 40.47 55.76 42.94 52.05 45.53C55.83 48.14 61.77 52.25 68.07 56.6C72.05 59.34 76.08 62.01 80.12 64.6C82.88 66.39 85.72 68.22 88.6 70.08C90.04 71.02 91.49 71.96 92.95 72.92L93.47 73.26L93.56 73.31L93.75 73.41L94.16 73.64L93.76 74.03L93.65 74.14L93.56 74.22L93.23 74.5L91.92 75.61C90.17 77.08 88.43 78.56 86.7 80.02C83.23 82.94 79.79 85.82 76.46 88.61C69.77 94.17 63.48 99.39 58.07 103.89C47.2 112.82 39.87 118.84 39.87 118.84L25 131.08L22.83 132.86L22.29 133.3C22.21 133.33 22.29 133.22 22.29 133.18L22.36 133.02L22.51 132.7L23.1 131.43L47.48 79.1L36.33 71.42L8.74 52.45L12.72 48.73C29.38 33.15 42.17 20.85 54.18 8.96004L54.22 8.95004Z" fill="#101214"/>
</g>
<defs>
<clipPath id="clip0_448_6004">
<rect width="119.79" height="145.32" fill="white"/>
</clipPath>
</defs>
</svg>
