<svg width="238" height="171" viewBox="0 0 238 171" fill="none" xmlns="http://www.w3.org/2000/svg">
<g clip-path="url(#clip0_448_5709)">
<path d="M228.699 90.81C231.659 89.8 233.839 88.52 234.979 87.09C235.549 86.39 235.809 85.62 235.739 85.11C235.679 84.6 235.389 84.41 235.189 84.42C234.939 84.42 234.729 84.57 234.449 84.67C234.199 84.77 233.819 84.92 233.319 85.11C232.239 85.54 230.269 86.18 227.489 86.95C223.539 88.04 219.309 88.77 214.959 89.42C210.599 90.06 206.089 90.6 201.379 91.09C191.959 92.05 181.739 92.83 170.219 93.48C157.169 94.29 148.999 94.71 141.889 95.07C134.779 95.41 128.709 95.65 119.829 95.63C104.829 95.66 84.6795 95.03 66.8295 93.71C57.9095 93.06 49.5595 92.26 42.7095 91.44C35.8595 90.63 30.5295 89.8 27.5595 89.3C25.8095 89.01 24.0495 88.72 22.2995 88.42C20.7395 88.16 18.5095 87.78 15.7795 87.18C14.4195 86.88 12.9295 86.53 11.3795 86.08C10.6095 85.85 9.80945 85.61 9.02945 85.33C8.63945 85.19 8.23945 85.04 7.86945 84.88C7.52945 84.75 6.96945 84.47 7.08945 84.54C7.00945 84.54 6.84945 84.42 6.95945 84.31C6.97945 84.29 6.99945 84.27 7.02945 84.24C7.04945 84.23 7.04945 84.22 7.07945 84.21L7.33945 84.08C7.43945 84.03 7.55945 83.98 7.66945 83.93C8.56945 83.53 9.58945 83.16 10.6495 82.81C14.9595 81.45 19.9995 80.44 25.3095 79.56C35.9795 77.82 47.9595 76.64 60.2695 75.77C72.5795 74.92 85.2495 74.42 97.4395 74.21C114.649 73.84 128.589 73.96 139.599 74.18C150.619 74.41 158.719 74.76 164.269 75.03C177.379 75.67 188.819 76.45 199.339 77.45C204.599 77.95 209.619 78.51 214.489 79.21C219.339 79.92 224.099 80.71 228.519 82C230.929 82.72 232.629 83.33 233.539 83.74C233.969 83.93 234.289 84.08 234.499 84.17C234.739 84.28 234.929 84.4 235.149 84.41C235.339 84.41 235.579 84.26 235.649 83.82C235.739 83.39 235.559 82.7 235.089 82.06C234.149 80.74 232.259 79.55 229.679 78.58C224.969 76.86 220.159 75.79 215.229 74.81C210.289 73.86 205.209 73.08 199.899 72.4C189.279 71.06 177.749 70.08 164.539 69.42C154.279 68.93 132.899 67.21 102.649 67.54C97.7195 67.6 92.7994 67.77 87.9194 68.05C66.8594 69.27 42.6895 70.97 23.8295 74.04C19.1095 74.82 14.7295 75.69 10.7895 76.77C8.81945 77.32 6.95945 77.92 5.19945 78.69C4.97945 78.79 4.75945 78.9 4.53945 79C4.23945 79.13 3.90945 79.33 3.60945 79.5C3.28945 79.66 2.99945 79.85 2.72945 80.05C2.43945 80.24 2.16945 80.43 1.93945 80.65C0.959453 81.49 0.279453 82.46 0.0494531 83.53C-0.000546876 83.8 -0.0305469 84.07 -0.0605469 84.34C-0.0605469 84.61 -0.0205469 84.88 0.0194531 85.13C0.0794531 85.65 0.309453 86.1 0.529453 86.53C1.00945 87.38 1.73945 88.06 2.48945 88.62C2.87945 88.9 3.25945 89.15 3.65945 89.36C4.01945 89.58 4.49945 89.82 4.69945 89.91C5.19945 90.16 5.63945 90.33 6.03945 90.5C7.63945 91.14 8.48945 91.39 8.48945 91.39C8.48945 91.39 9.76945 91.82 12.0595 92.42C14.3495 93.01 17.6595 93.74 21.7395 94.44C29.8995 95.86 41.1495 97.18 53.4895 98.14C78.1695 100.13 107.189 100.59 124.409 100.46C137.379 100.38 146.979 100.1 154.299 99.83C161.619 99.56 166.649 99.29 170.489 99.07C182.089 98.39 192.399 97.47 201.929 96.23C206.689 95.61 211.259 94.9 215.699 94.05C220.129 93.18 224.429 92.22 228.639 90.8L228.699 90.81Z" fill="#101214"/>
<path d="M201.09 11.3601C202.47 8.56005 203.1 6.11005 202.9 4.29005C202.81 3.39005 202.45 2.66005 202.04 2.35005C201.64 2.03005 201.3 2.10005 201.16 2.25005C200.99 2.43005 200.94 2.68005 200.81 2.94005C200.7 3.19005 200.54 3.56005 200.32 4.05005C199.86 5.12005 198.92 6.97005 197.5 9.47005C195.47 13.0301 193 16.5401 190.39 20.0801C187.77 23.6201 184.96 27.1901 181.97 30.8601C175.99 38.2101 169.31 45.9801 161.63 54.5801C152.97 64.3801 147.5 70.4501 142.72 75.7401C137.93 81.0101 133.81 85.4701 127.52 91.7301C116.94 102.36 102.25 116.16 88.6898 127.85C81.9198 133.7 75.4498 139.03 70.0298 143.3C64.6198 147.57 60.2598 150.76 57.7998 152.5C56.3498 153.53 54.9098 154.57 53.4598 155.6C52.1698 156.52 50.3298 157.83 47.9798 159.33C46.8098 160.08 45.4998 160.88 44.0898 161.67C43.3798 162.06 42.6498 162.45 41.8998 162.8C41.5298 162.97 41.1398 163.15 40.7698 163.3C40.4398 163.45 39.8498 163.65 39.9798 163.61C39.9198 163.66 39.7198 163.69 39.7198 163.54C39.7198 163.51 39.7198 163.48 39.7198 163.44C39.7198 163.42 39.7198 163.42 39.7298 163.38L39.8298 163.1C39.8698 162.99 39.9098 162.88 39.9598 162.76C40.3098 161.84 40.7698 160.86 41.2798 159.86C43.3698 155.85 46.2098 151.57 49.3498 147.19C55.6698 138.42 63.2998 129.11 71.3898 119.79C79.4898 110.48 88.0998 101.17 96.5698 92.4101C108.48 79.9801 118.42 70.2101 126.36 62.5701C134.31 54.9401 140.28 49.4601 144.4 45.7201C154.13 36.9001 162.77 29.3601 170.91 22.6301C174.98 19.2701 178.93 16.1101 182.87 13.1601C186.8 10.2301 190.72 7.43005 194.77 5.21005C196.99 4.01005 198.62 3.24005 199.55 2.89005C199.99 2.72005 200.31 2.60005 200.54 2.52005C200.78 2.43005 201.01 2.38005 201.17 2.23005C201.31 2.10005 201.37 1.82005 201.11 1.46005C200.86 1.09005 200.25 0.730054 199.46 0.610054C197.86 0.350054 195.68 0.840054 193.18 1.97005C188.63 4.08005 184.48 6.72005 180.3 9.53005C176.13 12.3501 171.99 15.3901 167.76 18.6701C159.3 25.2301 150.46 32.6901 140.65 41.5601C133.05 48.4601 116.72 62.3701 95.5598 83.9901C92.1198 87.5101 88.7498 91.12 85.5098 94.7701C71.4798 110.52 55.5898 128.81 44.4298 144.33C41.6398 148.22 39.1598 151.93 37.1398 155.48C36.1398 157.26 35.2398 159 34.5498 160.79C34.4698 161.02 34.3798 161.25 34.2998 161.48C34.1798 161.78 34.0898 162.16 33.9998 162.49C33.8898 162.83 33.8198 163.17 33.7698 163.5C33.6998 163.84 33.6498 164.17 33.6398 164.48C33.5398 165.77 33.7398 166.93 34.3398 167.85C34.4898 168.08 34.6598 168.29 34.8298 168.5C35.0198 168.68 35.2398 168.85 35.4498 169C35.8598 169.33 36.3398 169.48 36.8098 169.63C37.7498 169.9 38.7398 169.86 39.6698 169.72C40.1398 169.64 40.5898 169.56 41.0198 169.42C41.4298 169.32 41.9398 169.16 42.1498 169.07C42.6798 168.89 43.1098 168.7 43.5198 168.54C45.0998 167.86 45.8798 167.44 45.8798 167.44C45.8798 167.44 47.0898 166.84 49.1298 165.64C51.1698 164.43 54.0298 162.61 57.4098 160.22C64.1798 155.45 73.0698 148.43 82.4798 140.39C101.34 124.35 122.18 104.15 134.27 91.8801C143.38 82.6501 149.98 75.6601 154.96 70.3001C159.94 64.9301 163.31 61.1801 165.87 58.3201C173.6 49.6401 180.23 41.6901 186.09 34.0801C189.02 30.2701 191.75 26.5401 194.28 22.8001C196.8 19.0501 199.16 15.3301 201.13 11.3501L201.09 11.3601Z" fill="#101214"/>
<path d="M39.9996 9.72004C38.5596 7.18004 37.5896 5.30004 37.1196 4.10004C36.8796 3.49004 36.7496 3.07004 36.6796 2.71004C36.5996 2.35004 36.6096 2.05004 36.4396 1.87004C36.2996 1.71004 35.9096 1.69004 35.4596 2.11004C34.9996 2.52004 34.6296 3.36004 34.5496 4.33004C34.3696 6.29004 35.0296 8.76004 36.4196 11.6C38.4096 15.62 40.7796 19.35 43.3096 23.11C45.8496 26.86 48.5796 30.6 51.5196 34.41C57.3896 42.04 64.0296 49.98 71.7596 58.67C80.6096 68.45 86.4296 74.26 91.4896 79.33C96.5696 84.38 100.93 88.64 107.19 94.98C117.82 105.65 132.25 119.85 145.57 132.02C152.22 138.11 158.57 143.71 163.92 148.22C169.26 152.74 173.59 156.16 176.05 158.05C177.5 159.17 178.99 160.25 180.51 161.3C181.87 162.23 183.82 163.56 186.35 165.12C187.62 165.9 189.04 166.75 190.66 167.61C191.47 168.04 192.32 168.47 193.26 168.89C193.73 169.1 194.2 169.31 194.72 169.51C194.98 169.61 195.23 169.71 195.51 169.81C195.71 169.88 196.22 170.06 196.68 170.17C198.53 170.7 200.5 170.87 202.1 170.17C202.3 170.09 202.49 169.97 202.69 169.88C202.88 169.77 203.05 169.62 203.23 169.49C203.4 169.34 203.59 169.22 203.75 169.05C203.89 168.87 204.04 168.7 204.17 168.51C204.73 167.79 205.01 166.91 205.15 165.98C205.28 165.03 205.15 163.99 204.94 162.94C204.79 162.42 204.66 161.88 204.49 161.37L204.3 160.84C204.24 160.68 204.18 160.52 204.12 160.37C203.63 159.14 203.06 157.99 202.46 156.85C200.03 152.34 197.03 147.98 193.74 143.48C187.15 134.52 179.37 125.18 171.17 115.8C162.97 106.42 154.32 97.03 145.88 88.13C133.89 75.63 123.89 65.8 115.88 58.12C107.87 50.45 101.85 44.93 97.6996 41.17C87.8796 32.3 79.0296 24.82 70.5596 18.26C66.3196 14.98 62.1696 11.93 57.9996 9.10004C53.8096 6.29004 49.6396 3.64004 45.0396 1.50004C42.4996 0.350044 40.2796 -0.169956 38.5396 0.0800439C37.6796 0.200044 36.9596 0.570044 36.6196 0.990044C36.2796 1.40004 36.2996 1.73004 36.4396 1.85004C36.5896 2.00004 36.8596 2.00004 37.1896 2.05004C37.5196 2.09004 37.9096 2.17004 38.4496 2.36004C39.5196 2.72004 41.1896 3.52004 43.4396 4.73004C47.5396 6.97004 51.4596 9.78004 55.4096 12.72C59.3496 15.68 63.3096 18.84 67.3896 22.21C75.5396 28.95 84.1896 36.49 93.9196 45.32C101.47 52.19 116.61 67.17 137.42 88.83C140.81 92.36 144.22 95.86 147.63 99.31C162.33 114.19 178.46 132.16 189.47 147.27C192.21 151.04 194.62 154.64 196.5 157.93C197.43 159.57 198.22 161.15 198.77 162.57C198.83 162.74 198.9 162.92 198.96 163.09L199.02 163.28C199.05 163.39 199.08 163.5 199.1 163.61C199.13 163.83 199.15 164.05 199.06 164.23C198.84 164.62 198.36 164.51 198.09 164.46C198.01 164.44 197.94 164.42 197.87 164.4C197.76 164.36 197.66 164.33 197.56 164.29C197.17 164.16 196.81 164 196.48 163.86C195.17 163.28 194.45 162.89 194.45 162.89C194.45 162.89 193.38 162.36 191.47 161.24C189.56 160.11 186.83 158.37 183.54 156.04C176.95 151.4 168.17 144.47 158.85 136.49C140.16 120.58 119.41 100.47 107.39 88.26C98.3196 79.09 91.7496 72.14 86.7896 66.81C81.8296 61.48 78.4796 57.75 75.9396 54.91C68.2496 46.3 61.5696 38.52 55.5796 31.17C52.5896 27.49 49.7696 23.91 47.1396 20.37C44.5196 16.82 42.0396 13.3 39.9996 9.70004V9.72004Z" fill="#101214"/>
</g>
<defs>
<clipPath id="clip0_448_5709">
<rect width="236.96" height="170.64" fill="white"/>
</clipPath>
</defs>
</svg>
