<svg width="274" height="114" viewBox="0 0 274 114" fill="none" xmlns="http://www.w3.org/2000/svg">
<g clip-path="url(#clip0_448_5686)">
<path d="M65.9797 91.95C54.6197 92.21 58.1997 109.9 69.3097 109.94C85.0897 109.99 75.9797 87.98 64.9897 91.1" fill="#101214"/>
<path d="M65.0904 93.79C66.2004 93.35 66.5405 89.96 64.5305 89.78C63.1605 89.71 61.5805 89.99 60.0405 90.92C58.5205 91.85 57.1505 93.49 56.5205 95.47C55.9205 97.75 56.2405 99.12 56.5005 100.22C56.8005 101.32 57.1205 102.19 57.5205 103.47C58.2505 105.6 59.7105 108.37 61.9305 110.3C63.0205 111.26 64.2305 112.01 65.3105 112.49C65.8505 112.72 66.3504 112.9 66.7704 113.04C67.2004 113.16 67.5605 113.25 67.8105 113.32C68.1105 113.4 68.4205 113.41 68.7305 113.41C69.3205 113.42 70.1805 113.35 71.4305 113.16C72.6605 112.96 74.2904 112.57 76.0204 111.57C77.7404 110.59 79.5005 108.73 80.1905 106.53C80.6005 105.45 80.7304 104.35 80.8104 103.29C80.8304 102.24 80.7805 101.21 80.6005 100.25C80.0505 97.54 78.9805 95.66 78.0705 94.25C77.1205 92.85 76.2404 91.93 75.5904 91.33C72.5904 88.48 68.6305 87.73 65.6705 88.85C63.9905 89.56 65.1805 92.29 66.2105 92.42C67.2305 92.6 68.1105 92.93 69.0005 93.4C69.8805 93.88 70.8005 94.5 71.7605 95.43C72.5005 96.13 73.4905 98.35 74.0505 101.05C74.1305 101.49 74.2705 101.89 74.4305 102.3C74.7905 103.17 74.8704 104.14 74.6304 104.88C74.4104 105.64 73.9005 106.23 73.2305 106.62C72.5605 107.01 71.8005 107.21 71.2305 107.28C70.9405 107.31 70.7205 107.34 70.5605 107.36C70.4005 107.37 70.3105 107.36 70.3105 107.36C70.3305 107.34 69.7305 107.42 68.9605 107.38C68.1905 107.35 67.1505 107.15 66.1305 106.63C65.1005 106.14 64.1305 105.25 63.3905 104.28C62.6705 103.29 62.2005 102.22 61.9605 101.41C61.5805 100.18 61.5705 99.25 61.6005 98.59C61.6405 97.92 61.7705 97.52 61.8505 97.21C62.1405 96.29 62.5505 95.69 63.0505 95.14C63.5705 94.61 64.2504 94.15 65.0904 93.79Z" fill="#101214"/>
<path d="M21.1905 53.47C24.0405 42.06 5.39049 38.57 3.48049 49.76C0.610488 61.13 19.3105 64.69 21.1905 53.47Z" fill="#101214"/>
<path d="M21.1905 53.47C24.0405 42.06 5.39049 38.57 3.48049 49.76C0.610488 61.13 19.3105 64.69 21.1905 53.47Z" fill="#101214"/>
<path d="M19.66 52.17C19.79 53.31 22.97 54.49 23.67 52.73C24.07 51.51 24.27 50.09 24.01 48.53C23.76 46.98 23 45.31 21.71 43.91C20.95 43.15 20.22 42.69 19.59 42.35C18.95 42.02 18.39 41.83 17.87 41.68C16.82 41.4 15.97 41.22 14.73 40.92C12.64 40.46 9.66 40.23 6.93 41.17C4.16 42.02 2.16 44.17 1.59 45.01C1.38 45.25 1.25 45.53 1.13 45.82C1.03 46.08 0.85 46.44 0.73 46.9C0.59 47.36 0.43 47.93 0.35 48.48C0.25 49.06 0.16 49.67 0.06 50.36C0.04 50.75 0.02 51.15 0 51.57C0 51.99 0.04 52.44 0.06 52.89C0.21 54.7 0.98 56.73 2.22 58.36C3.45 60.02 5.12 61.23 6.79 62.09C9.22 63.18 11.36 63.4 13.05 63.37C14.74 63.33 16 62.99 16.84 62.71C18.83 62.03 20.45 60.81 21.45 59.37C22.47 57.93 22.91 56.37 22.98 54.93C22.99 53.28 20.05 53.1001 19.5 53.9901C18.93 54.8301 18.32 55.49 17.63 56.04C16.94 56.6 16.13 57.03 15.06 57.39C14.23 57.68 12.15 57.3 9.96 56.29C9.6 56.12 9.24 56.01 8.85 55.92C8.01 55.73 7.21 55.25 6.65 54.62C6.09 53.99 5.81 53.19 5.73 52.43C5.72 52.24 5.71 52.05 5.7 51.87C5.72 51.68 5.73 51.51 5.74 51.34C5.76 51 5.88 50.62 5.93 50.35C6.07 49.8 6.16 49.47 6.16 49.47C6.16 49.47 6.2 49.37 6.26 49.19C6.32 49 6.41 48.74 6.56 48.45C6.85 47.86 7.37 47.14 8.17 46.58C8.99 46.04 10.08 45.62 11.2 45.54C12.31 45.43 13.39 45.58 14.14 45.79C15.29 46.08 16.04 46.52 16.56 46.86C17.07 47.23 17.38 47.51 17.59 47.74C18.86 49.12 19.34 50.45 19.65 52.18L19.66 52.17Z" fill="#101214"/>
<path d="M233.64 2.91002C206.15 0.510018 234.52 34.76 238.36 10.53C237.91 5.98002 235.1 2.45002 230.12 2.91002" fill="#101214"/>
<path d="M232.5 4.62001C233.82 4.33001 234.23 1.01001 232.71 0.580014C232.18 0.430014 231.65 0.280014 231.07 0.190014C230.49 0.110014 229.89 0.0500142 229.26 0.0100142C227.98 -0.0199858 226.55 0.100014 224.88 0.620014C224.41 0.810014 223.98 1.05001 223.61 1.25001C223.42 1.36001 223.24 1.45001 223.08 1.57001C222.91 1.71001 222.76 1.84001 222.6 1.96001C222.3 2.22001 222.04 2.46001 221.81 2.69001C221.59 2.96001 221.39 3.24001 221.21 3.49001C220.83 3.98001 220.59 4.53001 220.34 5.09001C220.28 5.23001 220.21 5.37001 220.14 5.51001C220.09 5.66001 220.05 5.81001 220 5.97001C219.9 6.28001 219.79 6.61001 219.68 6.97001C219.45 8.19001 219.37 9.62001 219.62 10.96C219.86 12.3 220.27 13.63 220.82 14.78C221.86 17.11 223.35 18.86 223.96 19.53C224.15 19.72 224.35 19.9 224.57 20.05C224.76 20.19 225.05 20.38 225.44 20.59C225.82 20.8 226.26 21.08 226.84 21.31C227.93 21.83 229.5 22.35 231.47 22.36C231.97 22.36 232.47 22.36 233 22.22C233.53 22.11 234.07 22.02 234.57 21.77C235.62 21.37 236.57 20.7 237.34 19.97C238.94 18.46 239.7 16.71 240.38 15.12C240.56 14.55 240.73 14.01 240.89 13.49C241.01 12.98 241.1 12.51 241.19 12.05C241.25 11.77 241.3 11.5 241.35 11.24C241.38 11.07 241.42 10.9 241.45 10.73C241.5 10.56 241.42 10.38 241.42 10.21C241.31 9.38001 241.28 9.09001 241.18 8.67001C240.85 7.07001 240.33 5.90001 239.92 5.13001C239.42 4.21001 238.78 3.41001 238.07 2.74001C237.33 2.09001 236.55 1.55001 235.72 1.23001C234.07 0.530014 232.43 0.490014 231.05 0.800014C229.48 1.21001 230.06 4.10001 231.02 4.41001C231.95 4.73001 232.69 5.17001 233.31 5.69001C233.93 6.21001 234.46 6.85001 234.97 7.79001C235.16 8.17001 235.26 8.85001 235.23 9.77001C235.23 9.88001 235.23 10 235.22 10.12C235.22 10.18 235.22 10.24 235.21 10.31V10.4H235.18C235.13 10.4 235.08 10.42 235 10.53C234.77 11.13 234.59 11.82 234.33 12.44C234.25 12.65 234.19 12.87 234.16 13.09C234.12 13.31 234.06 13.49 234.03 13.7C234 13.92 233.97 14.17 233.92 14.39C233.85 14.59 233.78 14.79 233.71 14.98C233.65 15.21 233.55 15.36 233.45 15.51C233.35 15.65 233.27 15.87 233.14 15.95C232.71 16.48 232.18 16.68 231.55 16.68H231.32C231.24 16.68 231.16 16.66 231.08 16.65C230.92 16.62 230.78 16.61 230.63 16.57C230.33 16.45 230.07 16.39 229.85 16.28C229.41 16.04 229.16 15.9 229.16 15.9C229.16 15.9 229.06 15.84 228.89 15.72C228.72 15.6 228.46 15.47 228.17 15.22C227.56 14.78 226.79 14.01 226.08 13.09C225.38 12.16 224.77 11.03 224.51 10.03C224.23 9.01001 224.32 8.23001 224.49 7.80001C224.96 6.51001 226.19 6.19001 226.71 5.92001C228.65 5.31001 230.59 4.98001 232.48 4.61001L232.5 4.62001Z" fill="#101214"/>
<path d="M269.1 45.4301C266.63 44.1201 264.79 42.32 261.82 43.14C244.47 53.4101 279.19 59.6701 267.96 44.4501" fill="#101214"/>
<path d="M267.57 46.59C268.71 46.83 270.17 43.81 269.59 43.09C269.15 42.55 268.66 42.01 267.93 41.45C267.2 40.91 266.18 40.27 264.67 39.99C263.82 39.87 263.09 39.97 262.52 40.1C261.82 40.25 261.3 40.52 260.84 40.7C260.65 40.87 260.46 41.04 260.27 41.2L260 41.44L259.81 41.62C259.57 41.84 259.3 42.04 258.95 42.26C258.39 42.72 257.69 43.1 256.96 43.73L256.4 44.17C256.21 44.33 256.03 44.53 255.85 44.72L255.3 45.29C255.11 45.54 254.93 45.82 254.76 46.09C254.39 46.61 254.17 47.24 253.97 47.84C253.8 48.44 253.74 49.04 253.72 49.58C253.76 50.11 253.79 50.62 253.91 51.02C254.03 51.42 254.14 51.75 254.22 51.98C254.31 52.26 254.5 52.5 254.68 52.73C255.01 53.17 255.69 53.84 256.55 54.4C257.39 54.95 258.41 55.41 259.52 55.78C261.76 56.47 264.35 56.81 267.08 56.44C267.57 56.33 268.02 56.25 268.49 56.07C268.72 55.99 268.94 55.9 269.16 55.82C269.38 55.73 269.61 55.59 269.83 55.48C270.05 55.36 270.25 55.25 270.45 55.12C270.65 54.97 270.85 54.81 271.04 54.65C271.43 54.35 271.72 54.01 271.98 53.67C273.02 52.31 273.21 50.98 273.27 50.16C273.27 49.68 273.27 49.18 273.2 48.75C273.12 48.37 273.02 48.01 272.91 47.67C272.7 46.98 272.38 46.5 272.1 45.98C271.47 45.07 270.78 44.37 270.01 43.84C269.16 43.22 266.89 45.04 267.03 45.88C267.21 46.66 267.32 47.39 267.49 48.08C267.51 48.41 267.63 48.77 267.63 49.06C267.63 49.21 267.65 49.35 267.68 49.49C267.68 49.6 267.67 49.67 267.68 49.76C267.68 49.83 267.61 49.89 267.52 49.94C267.41 49.98 267.28 50.01 267.17 50.01C267.03 50.01 266.95 49.94 266.81 49.89C266.68 49.85 266.45 49.89 266.12 49.93C266.01 49.94 265.91 49.97 265.8 50.03C265.68 50.07 265.56 50.12 265.44 50.2C264.36 50.89 262.59 50.82 261.49 50.45C260.36 50.07 259.88 49.54 259.93 49.58C259.93 49.58 259.9 49.55 259.84 49.5C259.81 49.47 259.77 49.44 259.73 49.4C259.71 49.37 259.68 49.34 259.66 49.3C259.55 49.16 259.44 48.91 259.5 48.64C259.52 48.52 259.6 48.36 259.69 48.2L259.99 47.82C260.07 47.69 260.21 47.55 260.36 47.42C260.63 47.15 260.9 46.89 261.22 46.66C261.53 46.43 261.77 46.21 262.05 46.05C262.33 45.87 262.57 45.71 262.78 45.57C262.83 45.55 262.88 45.54 262.93 45.53C263.01 45.52 262.93 45.53 263.05 45.51C263.35 45.49 263.55 45.5 263.71 45.53C264.64 45.65 266.03 46.28 267.57 46.6V46.59Z" fill="#101214"/>
<path d="M222.57 14.23C226.12 11.66 224.37 8.80002 220.46 10.77C214.91 13.57 209.22 16.74 202.06 21.07C194.04 26.14 192.39 27.96 186.87 31.24C177.6 36.9 161.48 45.64 157.59 47.73C157.02 48.04 156.45 48.37 155.9 48.73C151.97 51.27 134.73 62.38 119.52 71.36C108.87 77.86 102.28 81.88 98.84 83.98C90.72 88.95 84.82 92.94 79.18 97.11C78.41 97.68 77.92 98.26 77.68 98.79C77.56 99.05 77.5 99.3 77.5 99.53C77.5 99.64 77.51 99.75 77.54 99.85C77.55 99.9 77.57 99.95 77.6 99.99C77.71 100.22 77.85 100.46 77.78 100.37C77.86 100.48 77.65 100.11 77.74 100.26C77.77 100.3 77.8 100.34 77.84 100.38C77.92 100.45 78.01 100.51 78.11 100.57C78.31 100.67 78.56 100.74 78.85 100.76C79.43 100.79 80.18 100.63 81.04 100.21C87.35 97.13 93.6 93.72 101.75 88.79C104.91 86.87 111.91 83.54 121.28 78C122.81 77.1 124.29 76.13 125.73 75.1C138.12 66.27 155.1 56.28 155.1 56.28C155.1 56.28 180.21 40.98 190.8 34.53C198.77 29.66 202.61 27.31 204.97 25.87C212.1 21.49 217.52 17.88 222.55 14.23H222.57Z" fill="#101214"/>
<path d="M19.5404 55.19C18.8604 54.79 18.0304 55.28 17.3304 55.86C16.9504 56.14 16.7504 56.61 16.6304 57.01C16.5204 57.42 16.5504 57.82 16.7704 58.15C18.0104 59.99 19.4904 61.69 21.6004 63.65C24.1204 65.74 25.1904 65.77 26.7704 67.31C29.5404 69.82 33.5704 74.75 34.5404 75.94C34.6804 76.12 34.8404 76.27 35.0204 76.41C36.2904 77.4 41.8604 81.77 46.1804 86.04C49.3504 88.93 51.3104 90.71 52.3304 91.65C54.7504 93.84 56.7904 95.26 58.9104 96.42C59.2004 96.58 59.5304 96.56 59.8504 96.42C59.9304 96.39 60.0104 96.34 60.0904 96.3C60.1704 96.23 60.1704 96.26 60.5004 95.98C60.6204 95.89 60.7304 95.81 60.8304 95.75C60.8904 95.7 60.9204 95.67 60.9704 95.66C61.0604 95.64 61.0104 95.64 61.0304 95.64C61.0304 95.64 61.0104 95.66 61.0804 95.64C61.1704 95.59 61.2204 95.48 61.2904 95.41C61.4004 95.23 61.4904 95.06 61.5404 94.87C61.6504 94.51 61.6304 94.14 61.4504 93.84C60.1204 91.67 58.5504 89.77 56.1504 87.52C55.2104 86.65 53.8004 84.27 51.1204 81.64C50.6804 81.21 50.2004 80.84 49.6604 80.53C45.0704 77.81 40.2604 73.03 40.2604 73.03C40.2604 73.03 32.7804 66.22 29.6304 63.34C27.2504 61.18 26.1004 60.14 25.4004 59.51C23.2604 57.59 21.4304 56.27 19.5504 55.2L19.5404 55.19Z" fill="#101214"/>
<path d="M240.22 13.52C239.43 12.98 236.57 14.74 236.89 15.82C237.28 17.25 237.89 18.59 238.95 20.13C240.29 21.77 241.17 21.8 241.93 23.02C243.33 25 244.92 28.87 245.3 29.81C245.36 29.95 245.43 30.07 245.53 30.18C246.23 30.96 249.29 34.4 251.38 37.74C253 40 254.01 41.4 254.54 42.13C255.8 43.85 257 44.93 258.47 45.85C259.39 46.47 261.5 44.45 261.36 43.68C260.97 42.08 260.32 40.59 259.11 38.86C258.63 38.19 258.29 36.33 257 34.28C256.79 33.95 256.52 33.66 256.19 33.41C253.34 31.29 251.06 27.53 251.06 27.53C251.06 27.53 247.29 22.18 245.7 19.92C244.49 18.22 243.92 17.41 243.56 16.91C242.47 15.4 241.42 14.37 240.23 13.53L240.22 13.52Z" fill="#101214"/>
</g>
<defs>
<clipPath id="clip0_448_5686">
<rect width="273.28" height="113.4" fill="white"/>
</clipPath>
</defs>
</svg>
