<svg width="277" height="261" viewBox="0 0 277 261" fill="none" xmlns="http://www.w3.org/2000/svg">
<g clip-path="url(#clip0_448_5905)">
<path d="M39.7501 24.07C41.4601 21.4 42.8801 19.01 44.1301 16.97C45.3801 14.94 46.3801 13.21 47.1301 11.8C48.6401 8.97002 49.1601 7.40002 48.7901 7.13002C48.4101 6.86002 47.1301 7.91002 45.0101 10.33C43.9501 11.54 42.6801 13.09 41.2101 15C39.7501 16.91 38.1601 19.22 36.3601 21.87C33.7701 25.6 31.3901 29.51 28.8901 33.4C27.6701 35.36 26.5001 37.37 25.2901 39.38C24.6901 40.38 24.0901 41.39 23.4901 42.4C22.9201 43.43 22.3401 44.46 21.7601 45.5C17.0801 53.75 12.7001 62.5 8.88013 71.98C5.10013 81.45 1.75012 91.69 0.470125 103.05C-0.139875 108.71 -0.269875 114.67 0.810125 120.75C1.87012 126.81 4.30013 133.01 8.46012 138.26C9.56012 139.81 10.9501 141.04 12.2101 142.34C12.8601 142.96 13.5901 143.48 14.2601 144.04C14.9501 144.58 15.6001 145.16 16.3401 145.59C17.7801 146.51 19.1601 147.46 20.6301 148.13C21.3501 148.49 22.0701 148.85 22.7701 149.21C23.5001 149.5 24.2201 149.78 24.9301 150.07C30.6501 152.28 36.1101 153.2 41.1001 153.65C51.1301 154.46 59.4201 153.4 66.9601 152.04C74.5001 150.62 81.3401 148.73 88.4701 146.32C95.6001 143.89 103.03 140.93 111.57 136.83C125.99 129.9 142.08 120.05 157.19 107.66C172.33 95.32 186.43 80.42 197.43 64.66C202.94 56.8 207.69 48.76 211.61 40.9C212.55 38.92 213.51 36.98 214.4 35.05C215.24 33.1 216.06 31.18 216.86 29.3L217.16 28.59L217.46 27.79C217.67 27.26 217.82 26.72 217.98 26.18C218.29 25.1 218.52 24.01 218.68 22.92C218.99 20.74 219 18.56 218.75 16.47C218.23 12.27 216.62 8.45002 214.24 5.41002L213.81 4.83002L213.3 4.28002C212.95 3.92002 212.61 3.57002 212.26 3.22002C211.89 2.89002 211.46 2.59002 211.06 2.28002C210.66 1.97002 210.25 1.68002 209.77 1.46002C209.31 1.22002 208.85 0.990018 208.39 0.780018C207.9 0.620018 207.4 0.480018 206.91 0.350018C206.42 0.190018 205.93 0.130018 205.44 0.100018C204.95 0.0600179 204.46 1.78522e-05 203.99 0.0100179C202.12 0.100018 200.41 0.480018 199.01 1.06002C198.3 1.34002 197.6 1.62002 197.02 1.97002C196.42 2.30002 195.79 2.60002 195.29 2.96002C194.77 3.31002 194.26 3.65002 193.77 3.97002C193.32 4.32002 192.88 4.66002 192.46 4.99002C191.6 5.63002 190.93 6.29002 190.27 6.87002C187.24 9.65002 184.67 12.72 182.31 15.89C180.2 18.72 177.38 22.85 174.24 28.2C171.11 33.55 167.63 40.12 164.09 47.77C160.55 55.42 156.9 64.14 153.43 73.78C149.95 83.42 146.6 93.97 143.75 105.29C140.92 116.61 138.48 128.69 137.4 141.42C137.16 144.61 136.95 147.82 136.95 151.09C136.9 152.72 136.98 154.36 137 156.01C137.11 157.66 137.15 159.31 137.34 160.98C137.64 164.31 138.17 167.67 139.08 171.01C139.99 174.35 141.25 177.7 143.21 180.81C143.72 181.58 144.19 182.37 144.82 183.07C145.41 183.8 146 184.53 146.71 185.17L147.74 186.16C148.11 186.46 148.5 186.74 148.89 187.03C149.27 187.31 149.68 187.62 150.03 187.86L151.01 188.51C152.31 189.39 153.57 190.32 154.79 191.29L155.7 192.03L156.76 192.85L157.84 193.68C158.21 193.94 158.6 194.18 158.98 194.43C162.03 196.41 165.41 197.85 168.88 198.75C172.35 199.66 175.91 200.05 179.41 200.07C186.43 200.1 193.25 198.77 199.71 196.77C206.18 194.79 212.33 192.13 218.2 189.15C226.47 184.89 233.89 180.06 240.61 175.03C247.32 169.98 253.33 164.71 258.62 159.27C263.89 153.81 268.5 148.21 272 142.13C273.71 139.06 275.17 135.88 275.91 132.33C276.27 130.56 276.4 128.66 276.13 126.72C275.89 124.79 275.08 122.78 273.82 121.22C272.57 119.67 271.01 118.45 269.44 117.73C269.05 117.51 268.66 117.34 268.27 117.2C267.88 117.05 267.49 116.9 267.1 116.75C266.33 116.52 265.56 116.31 264.8 116.13C261.75 115.49 258.68 115.42 255.83 115.9C250.09 116.81 245.28 119.64 241.81 123.07C241.37 123.49 240.97 123.96 240.56 124.39C240.17 124.82 239.85 125.23 239.5 125.64C238.8 126.45 238.16 127.28 237.52 128.08C236.25 129.68 235.09 131.25 234.01 132.76C231.86 135.78 230.05 138.6 228.48 141.15C221.11 153.24 215.72 165.38 211.65 177.24C207.63 189.12 204.95 200.8 204.14 212.31C203.77 218.06 203.84 223.77 204.73 229.36C205.58 234.93 207.28 240.42 210.19 245.28C213.07 250.14 217.3 254.24 222.26 256.76C224.72 258.03 227.31 258.99 229.94 259.64C232.57 260.25 235.23 260.66 237.88 260.81C240.79 260.97 243.33 260.86 245.47 260.63C246.54 260.49 247.52 260.39 248.41 260.23C249.29 260.06 250.08 259.9 250.78 259.74C253.56 259.03 254.87 258.38 254.8 257.99C254.73 257.58 253.28 257.43 250.49 257.47C249.11 257.48 247.38 257.5 245.31 257.51C243.25 257.51 240.86 257.45 238.16 257.21C235.7 257 233.28 256.54 230.92 255.93C228.57 255.27 226.31 254.36 224.19 253.19C219.94 250.88 216.45 247.32 214.03 243.04C211.59 238.76 210.15 233.82 209.47 228.67C208.75 223.52 208.76 218.15 209.2 212.7C210.13 201.78 212.83 190.52 216.81 179.03C220.84 167.56 226.14 155.76 233.27 144.1C234.66 141.84 236.29 139.3 238.24 136.58C240.18 133.88 242.46 130.88 245.08 127.98C247.54 125.32 250.98 123.04 255.07 122.07C257.11 121.59 259.29 121.38 261.49 121.66C262.59 121.76 263.7 122.03 264.77 122.35C265.33 122.48 265.78 122.74 266.3 122.92C266.55 123.02 266.75 123.17 266.98 123.28C267.2 123.4 267.45 123.51 267.62 123.67C268.47 124.2 269.02 124.9 269.46 125.66C269.54 125.87 269.69 126.04 269.74 126.26C269.8 126.48 269.87 126.7 269.95 126.92C270.02 127.41 270.14 127.88 270.12 128.43C270.18 128.95 270.07 129.54 270.04 130.11C269.92 130.7 269.86 131.29 269.66 131.91C269.37 133.14 268.85 134.4 268.31 135.66C265.97 140.74 262.22 145.78 257.9 150.65C253.56 155.54 248.53 160.27 242.98 164.85C237.43 169.43 231.34 173.82 224.73 177.88C220.43 180.53 216 182.97 211.47 185.14C206.95 187.31 202.33 189.23 197.62 190.72C195.09 191.55 192.5 192.23 189.87 192.77C187.24 193.33 184.58 193.69 181.9 193.84C176.56 194.18 171.14 193.56 166.29 191.55C163.87 190.55 161.59 189.21 159.55 187.54C158.37 186.57 157.16 185.64 155.91 184.76C155.29 184.32 154.66 183.89 154.03 183.47L153.07 182.85L152.33 182.3C148.36 179.41 145.85 174.44 144.51 169.18C144.12 167.88 143.9 166.51 143.61 165.17C143.42 163.8 143.16 162.45 143.05 161.06C142.72 158.31 142.64 155.52 142.58 152.74C142.53 147.18 142.94 141.65 143.56 136.24C144.84 125.42 147 115.07 149.47 105.52C154.42 86.41 160.49 70.44 165.23 59.37C167.61 53.83 169.64 49.49 171.1 46.55C171.81 45.07 172.4 43.95 172.78 43.19C173.17 42.43 173.37 42.03 173.37 42.03C173.37 42.03 173.68 41.44 174.26 40.33C174.84 39.21 175.71 37.57 176.87 35.49C179.2 31.34 182.64 25.33 187.72 18.66C190.27 15.37 193.26 11.86 196.94 9.03002C198.77 7.66002 200.82 6.48002 202.84 6.06002C204.86 5.68002 206.66 6.15002 208.32 7.61002C209.94 9.12002 211.38 11.39 212.21 13.81C213.04 16.25 213.35 18.94 213.06 21.63C212.92 22.97 212.63 24.32 212.19 25.63L211.84 26.61L211.39 27.68C211.09 28.39 210.79 29.11 210.49 29.83C209.87 31.26 209.32 32.73 208.63 34.15C207.96 35.58 207.28 37.02 206.6 38.46C203.76 44.19 200.65 49.94 197.06 55.5C195.34 58.33 193.4 61.03 191.52 63.79C190.55 65.15 189.53 66.48 188.54 67.83L187.04 69.85L185.47 71.81C177.17 82.35 167.7 91.99 157.91 100.52C138.24 117.52 117.12 129.57 100.67 136.46C94.4901 139.12 88.5601 141.21 82.9501 142.93C80.1501 143.82 77.4001 144.5 74.7501 145.2C73.4201 145.52 72.1101 145.79 70.8201 146.08C69.5301 146.38 68.2601 146.62 67.0101 146.83C57.0101 148.69 48.2701 148.95 40.9001 148.23C33.5201 147.48 27.5601 145.55 22.9501 143.13C18.3301 140.69 15.1101 137.71 12.8201 134.81C9.33012 130.4 7.22012 125.15 6.25012 119.79C5.27012 114.41 5.35012 108.95 5.89012 103.67C7.01012 93.07 10.1001 83.16 13.6601 73.92C17.2501 64.67 21.4001 56.01 25.8401 47.8C26.3901 46.77 26.9301 45.74 27.4801 44.72C28.0501 43.71 28.6201 42.7 29.1901 41.7C30.3401 39.7 31.4401 37.69 32.6001 35.72C34.9901 31.82 37.2301 27.89 39.7001 24.13L39.7501 24.07Z" fill="#101214"/>
</g>
<defs>
<clipPath id="clip0_448_5905">
<rect width="276.27" height="260.9" fill="white"/>
</clipPath>
</defs>
</svg>
