<svg width="131" height="26" viewBox="0 0 131 26" fill="none" xmlns="http://www.w3.org/2000/svg">
<g clip-path="url(#clip0_448_5864)">
<path d="M128.68 14.91C130.9 11.57 128.08 9.73997 125.6 12.28C123.75 14 121.8 15.64 119.56 16.86C118.45 17.51 117.25 17.93 116 18.29C114.73 18.57 113.38 18.7 111.91 18.62C108.56 18.36 106.28 17.54 104.33 16.84C102.37 16.09 100.7 15.31 98.4101 13.84C94.4901 11.42 89.4901 7.50997 84.4001 4.51997C81.8601 3.01997 79.2701 1.78997 76.9901 0.999968C76.4201 0.799968 75.8801 0.599968 75.3501 0.479968C75.0901 0.409968 74.8301 0.339968 74.5901 0.279968C74.2601 0.199968 73.9401 0.119968 73.6401 0.0399683C73.2201 -0.0300317 72.9401 0.0399683 72.6501 0.0199683C72.4401 0.0199683 72.2401 0.0199683 72.0501 0.0199683C71.6801 0.0199683 71.3501 0.0199683 71.0801 0.0299683C70.4301 0.0599683 69.7901 0.0299683 69.1401 0.189968C68.5601 0.319968 67.7501 0.509968 66.7201 0.749968C66.2001 0.839968 65.6601 1.08997 65.0701 1.29997C64.4801 1.52997 63.8401 1.75997 63.1701 2.04997C60.5401 3.28997 57.6401 5.41997 55.0801 7.95997C52.4801 10.46 50.0801 13.3 47.3001 15.26C44.5501 17.27 41.3801 18.36 38.0201 18.47C37.4301 18.49 36.8601 18.59 36.3001 18.55C35.7401 18.51 35.1901 18.48 34.6601 18.44C34.3901 18.43 34.1301 18.41 33.8701 18.4C33.6101 18.37 33.3801 18.3 33.1301 18.26C32.6501 18.16 32.1801 18.07 31.7201 17.98C31.2501 17.93 30.8501 17.7 30.4301 17.57C30.0201 17.43 29.6201 17.29 29.2301 17.15C28.5001 16.75 27.8001 16.43 27.1601 16.05C24.6401 14.5 22.9501 12.73 21.7201 11.58C18.8701 8.77997 16.0701 5.98997 12.7801 4.14997C9.52013 2.24997 5.98013 1.48997 2.70013 1.45997C-0.989867 1.57997 -0.669867 4.50997 2.33013 5.04997C5.10013 5.67997 7.66013 6.68997 10.0801 8.42997C12.5301 10.15 14.8201 12.62 17.8001 15.59C18.9901 16.71 20.6101 18.74 23.6001 20.93C25.0801 22.02 26.9401 23.06 29.1501 23.86C29.6901 24.11 30.2701 24.2 30.8601 24.36C31.4501 24.5 32.0601 24.64 32.6801 24.78C33.9201 24.97 35.2001 25.03 36.5501 25.14C37.4201 25.12 38.3001 25.04 39.1701 24.96C39.6101 24.91 40.0401 24.89 40.4701 24.79L41.7601 24.45C42.6801 24.19 43.6201 23.98 44.5201 23.54C45.4201 23.14 46.3701 22.83 47.2101 22.28C48.0601 21.77 48.9601 21.32 49.7201 20.71C50.5001 20.13 51.3101 19.57 51.9801 18.94C54.8301 16.48 57.0401 13.89 59.0901 11.96C60.1001 10.96 61.0801 10.19 61.9601 9.48997C62.8801 8.88997 63.6601 8.28997 64.3801 7.97997C65.0901 7.63997 65.6301 7.29997 66.0501 7.20997C66.4501 7.06997 66.6701 6.99997 66.6701 6.99997C66.6701 6.99997 66.9901 6.87997 67.5801 6.66997C68.1701 6.46997 69.0801 6.35997 70.1701 6.10997C70.7301 6.02997 71.3601 6.02997 72.0301 5.96997C72.3301 5.94997 72.6401 5.92997 72.9601 5.90997C73.0201 5.89997 73.0701 5.91997 73.1801 5.93997C73.3601 5.97997 73.5301 6.01997 73.7101 6.04997C75.1801 6.34997 76.7901 6.88997 78.4401 7.57997C81.7601 8.94997 85.2301 11.06 88.4601 13.15C91.6901 15.25 94.7001 17.29 97.0801 18.72C100.65 20.87 103.55 22.26 105.95 23.04C108.33 23.85 110.15 24.05 111.51 24.2C113.6 24.32 115.62 24.08 117.45 23.57C119.25 22.98 120.89 22.23 122.26 21.27C125.04 19.4 127.01 17.15 128.67 14.89L128.68 14.91Z" fill="#101214"/>
</g>
<defs>
<clipPath id="clip0_448_5864">
<rect width="130.31" height="25.14" fill="white"/>
</clipPath>
</defs>
</svg>
