<svg width="291" height="90" viewBox="0 0 291 90" fill="none" xmlns="http://www.w3.org/2000/svg">
<g clip-path="url(#clip0_448_5665)">
<path d="M285.29 44.39C286.26 44.12 287.04 43.67 287.7 43.32C288.37 42.97 288.86 42.54 289.23 42.17C289.97 41.42 290.19 40.82 289.98 40.4C289.77 39.98 289.13 39.77 288.17 39.81C287.21 39.87 285.89 40.08 284.19 40.49C281.77 41.07 279.24 41.31 276.61 41.31C273.98 41.32 271.25 41.1 268.38 40.73C262.65 39.98 256.43 38.51 249.15 37.25C240.87 35.9 235.28 36 230.54 36.77C229.95 36.87 229.37 37.01 228.79 37.13C228.21 37.24 227.65 37.38 227.09 37.55C226.53 37.71 225.97 37.87 225.41 38.04C224.86 38.25 224.31 38.45 223.74 38.67C221.52 39.57 219.18 40.68 216.74 42.47C216.49 42.64 216.25 42.82 216 43C215.77 43.2 215.53 43.4 215.29 43.6C214.81 44 214.33 44.41 213.83 44.83C213.37 45.29 212.91 45.75 212.44 46.23C212.19 46.49 211.93 46.74 211.67 47L211.28 47.53C211.23 47.61 211.17 47.68 211.11 47.74C210.67 48.31 209.86 48.51 209.79 48.43C209.79 48.39 209.75 48.54 209.74 48.56C209.74 48.58 209.7 48.63 209.69 48.64L209.7 48.63C209.67 48.67 209.76 48.56 209.82 48.53C209.9 48.49 209.89 48.47 209.88 48.46C209.85 48.38 209.81 48.01 209.88 47.54V47.46L209.9 47.37C210.07 45.21 210.18 42.97 210.06 40.63C209.88 38.29 209.72 35.82 208.16 33.13C207.4 31.8 205.85 30.47 204.12 30.01C202.41 29.55 200.86 29.73 199.58 30.02C197.01 30.65 195.06 31.71 193.22 32.71C189.61 34.77 186.68 36.86 184.22 38.51C181.78 40.17 179.87 41.43 178.67 42.18C177.76 42.75 176.85 43.33 175.93 43.9C175.13 44.39 173.98 45.1 172.56 45.76C171.86 46.1 171.09 46.4 170.32 46.61C169.57 46.83 168.77 46.91 168.33 46.83C168.33 46.85 168.18 46.83 168.18 46.76V46.7C168.16 46.55 168.16 46.15 168.17 45.87C168.18 45.25 168.23 44.57 168.29 43.87C168.42 42.45 168.63 40.92 168.81 39.23C168.97 37.53 169.16 35.71 168.92 33.5C168.77 32.39 168.5 31.13 167.75 29.83C167.03 28.53 165.69 27.35 164.33 26.81C162.98 26.24 161.68 26.08 160.51 26.04C159.34 26.03 158.25 26.13 157.2 26.3C156.69 26.4 156.15 26.47 155.65 26.59L154.9 26.77L154.55 26.85L153.16 26.97C152.6 27.02 152.05 27.07 151.5 27.22C150.41 27.46 149.3 27.7 148.28 28.13C147.76 28.33 147.22 28.5 146.73 28.74L145.25 29.48C141.33 31.52 138.22 34.42 135.32 37.2C132.43 40.01 129.8 42.85 127.07 45.08C126.12 45.86 125.18 46.57 124.25 47.1L123.91 47.31L123.74 47.42L123.68 47.45C123.61 47.49 123.54 47.5 123.48 47.52C123.35 47.55 123.21 47.55 123.07 47.51C122.79 47.43 122.56 47.23 122.44 46.96C122.2 46.42 121.97 45.9 121.74 45.37C121.61 45.08 121.49 44.8 121.36 44.51C121.21 44.23 121.05 43.95 120.9 43.67C119.75 41.46 118.18 39.38 116.07 37.85C113.98 36.3 111.34 35.56 109.06 35.61C106.73 35.6 104.87 36.29 103.2 36.9C102.42 37.27 101.63 37.6 100.95 37.99C100.28 38.38 99.6199 38.75 99.0199 39.13C97.8499 39.92 96.7899 40.65 95.9099 41.38C94.9799 42.08 94.2299 42.77 93.5299 43.38L93.2499 43.63C93.2199 43.66 93.2099 43.65 93.1199 43.69L92.5699 43.93L91.9999 44.11C91.2399 44.37 90.4499 44.51 89.6599 44.62C88.0599 44.82 86.4099 44.77 84.7599 44.57C81.4499 44.16 78.1799 43.26 74.9499 42.43C71.7099 41.6 68.4899 40.77 65.1399 40.43C63.4699 40.26 61.7599 40.21 60.0599 40.36C58.3499 40.51 56.6399 40.91 55.0299 41.55C54.1399 41.88 53.4299 42.35 52.8499 42.75C52.2999 43.21 51.8599 43.6 51.5799 44C51.0199 44.8 50.9299 45.37 51.1799 45.69C51.4299 46.01 52.0299 46.09 52.8499 45.9C53.2599 45.8 53.7699 45.71 54.2999 45.52C54.8699 45.38 55.4799 45.14 56.2099 44.97C58.8199 44.21 61.6399 44.32 64.5199 44.85C67.4099 45.37 70.3799 46.33 73.5499 47.32C76.7299 48.3 80.1199 49.41 84.0399 50C85.9899 50.28 88.0999 50.41 90.3099 50.17C91.4099 50.04 92.5399 49.84 93.6599 49.48L94.4999 49.22L95.3199 48.88L95.8899 48.64C96.0899 48.56 96.3099 48.49 96.4599 48.32L97.2799 47.6C97.8599 47.1 98.5099 46.51 99.2899 45.96C99.6699 45.68 100.08 45.38 100.5 45.06C100.94 44.78 101.39 44.49 101.87 44.18C102.34 43.85 102.86 43.62 103.38 43.33C103.9 43.02 104.46 42.81 105.02 42.57C106.15 42.09 107.37 41.79 108.54 41.71C109.73 41.6 110.77 41.9 111.77 42.48C112.75 43.09 113.75 44.05 114.59 45.47C114.83 45.78 114.99 46.21 115.2 46.58C115.4 46.97 115.62 47.33 115.78 47.78C115.96 48.21 116.13 48.64 116.32 49.07C116.37 49.18 116.6 49.76 116.82 50.17C117.05 50.61 117.33 51.02 117.65 51.41C118.93 52.97 120.89 54 123.03 54.1C124.09 54.15 125.19 53.96 126.19 53.55C126.43 53.44 126.7 53.32 126.9 53.21L127.34 52.95L128.23 52.41C131.28 50.48 133.58 48.12 135.7 45.85C137.98 43.38 140.19 40.87 142.6 38.68C144.99 36.48 147.58 34.61 150.36 33.56C151.04 33.25 151.76 33.1 152.46 32.92C153.16 32.69 153.89 32.7 154.6 32.6L155.51 32.51C155.6 32.51 155.69 32.47 155.78 32.45L156.01 32.4L156.29 32.33C156.66 32.25 157.04 32.13 157.41 32.07C158.15 31.92 158.86 31.82 159.54 31.76C160.88 31.66 162.05 31.87 162.45 32.22C162.67 32.39 162.84 32.6 163 32.98C163.16 33.35 163.27 33.88 163.32 34.46C163.43 35.62 163.32 36.95 163.2 38.24C163.06 39.54 162.88 40.83 162.73 42.09C162.58 43.35 162.45 44.57 162.41 45.77C162.41 46.07 162.39 46.36 162.39 46.66C162.39 46.86 162.39 47.06 162.39 47.26C162.39 47.48 162.42 47.69 162.44 47.9C162.49 48.32 162.5 48.74 162.58 49.12C162.66 49.5 162.75 49.87 162.83 50.24C163.41 50.73 163.97 51.17 164.53 51.55C165.12 51.89 165.69 52.19 166.27 52.37C167.54 52.77 168.3 52.76 168.97 52.77C169.64 52.77 170.11 52.7 170.44 52.66C170.76 52.62 170.92 52.58 170.92 52.58C173.65 52.03 175.84 50.91 177.93 49.75C180 48.57 181.93 47.28 183.8 45.98C187.55 43.37 191.11 40.62 194.76 38.29C196.57 37.14 198.44 36.08 200.19 35.48C201.06 35.18 201.88 35.05 202.43 35.11C202.71 35.14 202.91 35.19 203.07 35.3C203.24 35.38 203.4 35.53 203.58 35.75C203.93 36.19 204.27 36.96 204.49 37.84C204.72 38.72 204.87 39.71 204.94 40.73C205.11 42.77 205.06 44.93 204.92 47.09L204.94 46.9C204.83 47.97 204.77 49.21 205.4 50.62C205.56 50.97 205.75 51.31 206.03 51.63C206.27 51.96 206.6 52.24 206.94 52.5C207.27 52.78 207.66 52.92 208.04 53.1C208.42 53.23 208.81 53.33 209.19 53.38C210.71 53.55 212 53.1 213.04 52.48C213.57 52.17 214.02 51.79 214.44 51.38L215.02 50.74C215.18 50.53 215.4 50.19 215.37 50.24L216.74 48.84C217.22 48.3 217.8 47.9 218.32 47.43C218.84 46.95 219.42 46.55 220 46.16L220.86 45.55L221.77 45.03C224.95 43.21 228.09 42.36 230.91 41.96C233.74 41.57 236.26 41.6 238.44 41.69C242.81 41.93 245.87 42.47 248.2 42.84C255.25 44.03 261.65 45.4 267.79 45.93C270.86 46.2 273.86 46.27 276.78 46.06C279.7 45.86 282.57 45.35 285.27 44.43L285.29 44.39Z" fill="#101214"/>
<path d="M4.00986 13.33C3.78986 13.12 3.58986 12.95 3.37986 12.66C3.14986 12.39 2.94986 12.1 2.70986 11.88C2.27986 11.41 1.78986 11.14 1.32986 11.17C0.869855 11.2 0.429855 11.54 0.159855 12.29C0.0498551 12.68 -0.0401449 13.15 0.0398551 13.78C0.0898551 14.38 0.399855 15.27 0.999855 16.04C1.85986 17.15 3.22985 17.89 4.65985 18.07C6.03985 18.25 7.12985 18.1 8.18985 17.88C10.2699 17.42 12.0799 16.66 13.8799 15.85C14.7499 15.44 15.6299 15.02 16.5299 14.6C16.9599 14.4 17.3899 14.2 17.8199 13.99L18.4399 13.72L18.7399 13.6C18.8199 13.57 18.7599 13.6 18.7999 13.58H18.8999L19.1999 13.53L19.8499 13.43C20.2399 13.43 20.6999 13.34 21.0299 13.39C21.7999 13.39 22.3099 13.56 22.4599 13.71C22.5699 13.78 22.6799 13.89 22.8299 14.1C22.9699 14.35 23.1299 14.66 23.2799 15.09C23.4299 15.49 23.5699 15.97 23.7999 16.64C23.9299 16.99 24.1099 17.45 24.2799 17.83C24.4999 18.19 24.6499 18.59 24.9199 18.88L25.2799 19.34C25.4099 19.48 25.5599 19.6 25.6999 19.73C25.9599 20 26.2899 20.18 26.5999 20.37C26.9199 20.53 27.2599 20.64 27.5899 20.74C27.9299 20.79 28.2699 20.85 28.5999 20.9C29.2799 20.9 29.9299 20.87 30.5599 20.67C30.8599 20.59 31.2099 20.53 31.4599 20.44C31.6799 20.35 31.9099 20.26 32.1299 20.17C33.8099 19.45 34.9099 18.73 36.1799 17.93C36.7999 17.54 37.4399 17.13 38.0899 16.69C38.7599 16.26 39.4499 15.8 40.1999 15.3C41.4699 14.45 42.8099 13.51 44.2199 12.52C45.5999 11.53 47.0499 10.5 48.5199 9.43997C48.6199 9.36997 48.7499 9.28997 48.8699 9.30997H48.9499L49.2299 9.27997C49.4299 9.24997 49.6099 9.25997 49.7999 9.25997C50.1799 9.24997 50.5499 9.23997 50.8799 9.28997C51.2399 9.29997 51.5499 9.38997 51.8499 9.44997C53.0499 9.77997 53.7399 10.38 54.5199 11.56C54.9099 12.15 55.2799 12.85 55.7399 13.66C56.1999 14.46 56.7499 15.38 57.6299 16.28C58.4899 17.19 59.7999 17.97 61.0899 18.27C61.6899 18.38 62.3499 18.5 62.8699 18.47C63.1399 18.47 63.4199 18.47 63.6799 18.46C63.9199 18.43 64.1599 18.4 64.3999 18.37C66.2599 18.09 67.6199 17.59 68.7099 17.15C69.8199 16.72 70.6199 16.3 71.2299 16.02C71.9299 15.67 72.5799 15.28 73.2399 14.88C74.3699 14.13 76.4499 12.76 78.9999 10.81C79.1599 10.69 79.3199 10.57 79.4899 10.44C79.4899 10.44 79.4899 10.44 79.4899 10.42C79.7299 10.33 79.9899 10.23 80.2399 10.13C80.8599 9.90997 81.4999 9.76997 81.9299 9.73997C82.0699 9.69997 82.1099 9.75997 82.1999 9.74997C82.2699 9.75997 82.3699 9.72997 82.3999 9.76997C82.4399 9.79997 82.4999 9.77997 82.5599 9.80997C82.6099 9.85997 82.6699 9.88997 82.7399 9.90997C83.0499 10.12 83.5699 10.76 84.2599 11.68C84.9599 12.58 85.8999 13.77 87.3099 14.75C87.6799 14.97 88.0599 15.19 88.4399 15.4C88.8299 15.6 89.2399 15.72 89.6499 15.87C90.0599 16.03 90.4699 16.11 90.8799 16.17L91.6999 16.3L92.1199 16.37C92.1899 16.37 92.2599 16.4 92.3199 16.4L92.5199 16.36C93.7999 16.08 95.0899 15.79 96.3999 15.5C96.9499 15.36 97.5199 15.27 98.0999 15.2C98.6799 15.12 99.2499 15.04 99.8299 14.96C104.49 14.37 109.39 14.22 114.15 14.44C120.87 14.62 126.41 15.04 130.8 15.27C135.2 15.52 138.48 15.63 140.73 15.68C146.05 15.79 150.76 15.49 155.08 14.93C156.16 14.78 157.22 14.56 158.25 14.37C159.28 14.16 160.3 14.02 161.29 13.71C163.27 13.13 165.21 12.69 167.06 11.89C171.18 10.28 170.04 7.57997 166.06 8.41997C164.25 8.87997 162.36 9.01997 160.47 9.32997C159.53 9.49997 158.55 9.52997 157.56 9.62997C156.57 9.70997 155.58 9.82997 154.56 9.88997C150.45 10.09 146 10.2 140.85 10.07C138.84 10.02 135.77 9.71997 131.69 9.26997C127.61 8.83997 122.55 8.21997 116.47 7.92997C114.5 7.81997 112.49 7.87997 110.52 7.96997C109.45 8.04997 108.36 8.13997 107.25 8.22997C106.7 8.26997 106.14 8.30997 105.59 8.34997C105.03 8.40997 104.47 8.47997 103.9 8.54997C102.77 8.68997 101.64 8.77997 100.51 8.94997C99.3799 9.13997 98.2499 9.32997 97.1199 9.51997C95.9899 9.66997 94.8899 9.99997 93.7899 10.25C93.2599 10.38 92.7299 10.5 92.2099 10.63C92.2099 10.63 92.2199 10.63 92.2299 10.63H92.1799C92.1799 10.63 92.1199 10.66 92.0799 10.65L91.8099 10.61C91.1699 10.47 90.6699 10.29 90.1899 9.85997C89.6899 9.45997 89.2199 8.88997 88.6499 8.12997C88.0599 7.38997 87.4899 6.51997 86.4899 5.67997C86.2799 5.46997 85.9799 5.28997 85.7099 5.10997C85.4199 4.93997 85.1699 4.73997 84.8499 4.62997C84.5399 4.50997 84.2299 4.38997 83.9199 4.28997C83.6099 4.17997 83.3199 4.16997 83.0199 4.11997C82.7299 4.07997 82.4199 4.02997 82.1499 4.02997C81.8899 4.03997 81.6299 4.05997 81.3799 4.06997C81.1299 4.08997 80.8799 4.10997 80.6399 4.11997C80.4099 4.14997 80.2099 4.20997 79.9999 4.24997C79.5899 4.34997 79.1899 4.43997 78.8099 4.52997C78.4699 4.64997 78.1399 4.75997 77.8299 4.86997C77.4399 5.00997 77.0699 5.13997 76.7199 5.26997C76.4099 5.48997 76.1099 5.69997 75.8399 5.88997C75.4799 6.13997 75.1699 6.35997 74.9199 6.53997C74.4199 6.88997 74.1499 7.07997 74.1499 7.07997C74.1499 7.07997 73.7399 7.35997 73.0099 7.85997C72.2799 8.36997 71.2199 9.05997 69.8999 9.87997C68.5799 10.67 66.9799 11.58 65.2699 12.24C64.4199 12.59 63.5399 12.79 62.8599 12.83L62.6099 12.85C62.5399 12.84 62.4799 12.82 62.4099 12.82C62.2599 12.82 62.1699 12.77 62.0599 12.75C61.8599 12.67 61.6899 12.59 61.4499 12.35C60.9699 11.93 60.3899 10.94 59.6999 9.80997C59.0199 8.68997 58.0799 7.30997 56.6899 6.21997C55.3099 5.09997 53.5099 4.45997 51.9099 4.28997C51.1199 4.21997 50.3199 4.16997 49.5799 4.23997C49.2099 4.25997 48.8299 4.26997 48.4799 4.32997C47.9699 4.39997 47.4599 4.46997 46.9599 4.53997C46.6699 4.51997 46.4799 4.72997 46.2699 4.88997L45.6299 5.36997L44.8199 5.97997C44.3399 6.33997 43.8699 6.69997 43.4099 7.04997C42.4699 7.73997 41.5699 8.40997 40.6999 9.04997C38.9499 10.3 37.3399 11.42 35.9599 12.31C33.9099 13.65 31.9799 14.75 30.5699 15.3C30.4199 15.36 30.2599 15.41 30.1199 15.47C30.0099 15.51 29.9799 15.51 29.9199 15.53C29.7999 15.56 29.6799 15.57 29.5699 15.56C29.3399 15.55 29.1599 15.38 29.0799 15.21C29.0399 15.12 28.9999 15.03 28.9799 14.95C28.9099 14.73 28.8499 14.51 28.7899 14.31C28.6199 13.72 28.4099 13.05 28.1599 12.43C27.6699 11.17 26.7699 9.90997 25.7199 9.19997C25.3399 8.91997 24.9199 8.71997 24.5199 8.50997C24.1199 8.35997 23.7099 8.21997 23.3099 8.09997C22.9299 8.02997 22.5399 7.95997 22.1599 7.90997C21.7899 7.86997 21.4499 7.87997 21.0999 7.85997C20.3799 7.81997 19.7899 7.93997 19.1399 7.97997C18.8399 8.02997 18.5499 8.08997 18.2499 8.13997L17.7899 8.21997C17.5999 8.25997 17.3899 8.27997 17.1699 8.34997L16.5699 8.59997L16.1699 8.77997L15.4199 9.13997C14.9599 9.37997 14.4999 9.62997 14.0499 9.86997C13.1899 10.34 12.3499 10.8 11.5299 11.25C9.91985 12.12 8.38985 12.9 6.96985 13.37C6.27985 13.6 5.56985 13.74 5.11985 13.74C4.69985 13.78 4.30986 13.64 3.97986 13.37L4.00986 13.33Z" fill="#101214"/>
<path d="M181.21 6.74996C180.94 6.66996 180.68 6.65996 180.43 6.67996C180.18 6.67996 179.94 6.71996 179.71 6.78996C179.25 6.93996 178.83 7.21996 178.56 7.58996C178.29 7.95996 178.18 8.43996 178.34 8.97996C178.42 9.23996 178.57 9.53996 178.8 9.79996C179.05 10.05 179.37 10.3 179.78 10.52C180.96 11.07 182.28 11.45 183.6 11.53C184.92 11.61 186.25 11.51 187.52 11.24C190.08 10.72 192.5 9.68996 194.99 8.52996C197.75 7.11996 199.27 6.22996 200.61 5.60996C201.27 5.31996 201.88 5.06996 202.49 4.94996C203.12 4.79996 203.72 4.80996 204.32 4.98996C204.86 5.12996 205.37 5.41996 205.87 6.00996C206 6.12996 206.12 6.29996 206.24 6.47996C206.36 6.65996 206.5 6.79996 206.6 7.02996C206.71 7.23996 206.82 7.44996 206.94 7.66996C207.08 7.99996 207.23 8.33996 207.38 8.67996C207.85 9.90996 208.68 10.93 209.85 11.53C210.99 12.13 212.37 12.28 213.63 11.95C214.26 11.78 214.86 11.51 215.43 11.13L215.88 10.85L216.1 10.71L216.21 10.65L216.65 10.39C217.21 10.03 217.81 9.76996 218.37 9.49996C220.61 8.46996 222.55 7.99996 223.46 7.84996C223.83 7.78996 224.19 7.69996 224.54 7.57996C225.19 7.41996 226.38 7.07996 228.03 6.84996C229.69 6.63996 231.79 6.47996 234.21 6.61996C239.04 6.83996 244.98 8.12996 250.53 9.60996C258.42 11.57 263.63 12.48 266.37 12.74C269.61 13.09 272.55 13.07 275.23 12.69C277.92 12.3 280.34 11.55 282.57 10.51C285.04 9.25996 283.75 6.62996 281.46 7.07996C277.17 7.75996 272.89 7.84996 267 7.15996C264.68 6.92996 260.1 5.34996 253.3 3.50996C252.18 3.21996 251.05 2.99996 249.9 2.84996C247.41 2.53996 244.74 2.10996 242.09 1.73996C239.44 1.36996 236.82 1.07996 234.49 0.93996C232.16 0.79996 230.11 0.83996 228.66 0.91996C227.93 0.93996 227.35 1.01996 226.96 1.05996C226.56 1.09996 226.35 1.11996 226.35 1.11996C222.87 1.55996 219.39 2.60996 216.26 4.29996C215.5 4.74996 214.7 5.14996 213.97 5.65996L212.99 6.33996C212.93 6.37996 212.82 6.45996 212.73 6.50996C212.33 6.73996 211.8 6.46996 211.7 6.02996L211.6 5.80996C211.51 5.63996 211.45 5.46996 211.35 5.29996L210.74 4.27996C210.28 3.60996 209.79 2.92996 209.12 2.31996C207.86 1.06996 205.96 0.17996 204.16 0.0399595C202.04 -0.15004 200.49 0.30996 199.22 0.66996C197.97 1.06996 196.97 1.46996 196.15 1.83996C194.49 2.56996 193.44 3.08996 192.62 3.46996C187.78 5.81996 184.33 7.39996 181.24 6.74996H181.21Z" fill="#101214"/>
<path d="M4.41997 79.6299C0.73997 83.1999 3.03997 85.6399 6.98997 82.7599C9.82997 80.7499 12.78 78.7799 16.05 76.9699C17.69 76.0699 19.41 75.2199 21.23 74.5199C23.04 73.8299 24.98 73.2799 26.86 73.1999C29 73.0499 30.4 73.5299 31.44 74.1899C32.48 74.8599 33.19 75.7899 33.7 76.7799C34.21 77.7799 34.5 78.8699 34.58 80.0399C34.66 81.1899 34.49 82.5299 33.92 83.5799C33.78 83.7999 33.7 83.9399 33.61 84.0299C33.52 84.1299 33.41 84.2199 33.28 84.2799C33.03 84.4099 32.71 84.4099 32.44 84.2899C32.23 84.2299 31.56 83.7899 31.17 83.3599C30.75 82.9199 30.39 82.3999 30.17 81.8099C29.73 80.6299 29.73 79.2099 30.23 77.9999C30.48 77.3999 30.83 76.8499 31.26 76.3799L31.6 76.0399L32.09 75.6099C32.42 75.3299 32.74 75.0499 33.06 74.7699C35.66 72.5499 38.38 71.4599 40.42 71.3199C42.49 71.2299 44.14 71.8999 45.09 72.3099C45.37 72.4399 45.65 72.5599 45.94 72.6899C46.23 72.8399 46.53 72.9799 46.83 73.1099C47.91 73.5899 49.89 74.6799 52.73 76.3999C54.16 77.2499 55.82 78.2299 57.76 79.1899C59.7 80.1499 61.98 81.0699 64.57 81.5999C67.15 82.1299 70.05 82.1899 72.84 81.6399C75.64 81.0999 78.34 80.0499 80.81 78.6999C81.43 78.3699 82.01 77.9899 82.62 77.6299C83.22 77.2699 83.82 76.8999 84.37 76.4899L85.91 75.3999C85.91 75.3999 85.94 75.3799 85.96 75.3699L86.16 75.2999C86.4 75.1999 86.63 75.1299 86.85 75.0799C87.76 74.8299 88.47 74.8399 88.83 74.9899C89.02 75.0599 89.19 75.1899 89.39 75.3599C89.59 75.5899 89.82 75.8399 90.03 76.2299C90.35 76.7499 90.65 77.3999 90.92 78.0799L91.12 78.6099C91.2 78.8199 91.34 79.1899 91.47 79.4599C91.74 80.0399 92.08 80.5799 92.46 81.0699C93.22 82.0599 94.17 82.8399 95.2 83.4099C95.72 83.6899 96.25 83.9299 96.79 84.0899C97.06 84.1799 97.34 84.2499 97.61 84.3099C97.88 84.3599 98.2 84.4199 98.34 84.4399C101.28 84.8799 103.91 85.1999 106.23 85.4299C110.88 85.8999 114.32 86.0199 116.69 86.1099C122.28 86.2399 127.21 85.9399 131.73 85.2099C136.25 84.4699 140.4 83.3099 144.23 81.3899C144.76 81.1499 145.19 80.8499 145.54 80.5399C145.89 80.2399 146.15 79.9499 146.33 79.6699C146.69 79.1199 146.74 78.6399 146.54 78.2799C146.34 77.9299 145.89 77.6999 145.26 77.6499C144.95 77.6199 144.59 77.6499 144.19 77.7199C143.8 77.7999 143.36 77.9299 142.84 78.0599C139.2 79.2099 135.34 79.8099 131.1 80.1799C126.85 80.5399 122.19 80.6399 116.85 80.4999C114.77 80.4199 111.57 80.1099 107.39 79.4799C105.3 79.1499 102.97 78.7899 100.42 78.3099C98.82 78.0499 98.6 77.9699 98.06 77.5499C97.83 77.3599 97.63 77.1199 97.49 76.8699C97.42 76.7399 97.36 76.5999 97.31 76.4599C97.18 76.1199 97.03 75.6699 96.86 75.2599C96.41 74.1599 95.86 72.9899 94.93 71.8199C94.03 70.6599 92.61 69.4799 90.9 68.9599C89.06 68.3899 87.29 68.5899 85.85 68.9599C85.15 69.1699 84.45 69.3899 83.83 69.6699L83.11 69.9599C82.86 70.0999 82.72 70.2499 82.43 70.4499L81.73 70.9999L80.47 71.9899C80.04 72.2999 79.59 72.5699 79.15 72.8699C78.28 73.4899 77.35 73.9399 76.44 74.4399C74.59 75.3099 72.71 75.9899 70.86 76.2399C69.01 76.4799 67.22 76.3799 65.55 76.0199C62.21 75.2999 59.44 73.6399 57.46 72.4699C55.48 71.2599 54.28 70.4699 54.28 70.4699C54.28 70.4699 53.82 70.1899 53 69.6799C52.16 69.1799 50.95 68.4299 49.28 67.6199C47.63 66.8299 45.48 65.9099 42.79 65.6399C40.11 65.3399 37.01 65.9699 34.41 67.3499C33.72 67.6499 33.14 68.0799 32.51 68.4699C31.87 68.8499 31.32 69.3099 30.75 69.7599L29.89 70.4399L29.1 71.1699L28.31 71.8999C28.05 72.1499 27.79 72.3699 27.49 72.7299C26.31 74.0299 25.45 75.6399 25.05 77.3399C24.65 79.0399 24.67 80.8199 25.11 82.4999C25.54 84.1699 26.47 85.7099 27.65 86.8799C27.95 87.1799 28.25 87.4599 28.58 87.6899C28.9 87.9399 29.23 88.1799 29.6 88.3799C30.35 88.8199 31.37 89.2199 32.34 89.3099C34.31 89.5499 36.17 88.5899 37.29 87.2199C37.88 86.5099 38.19 85.9199 38.48 85.3199C38.74 84.7199 38.95 84.1399 39.08 83.5999C39.88 80.2999 39.43 77.4699 38.55 75.1099C37.65 72.7499 36.14 70.9199 34.53 69.7799C32.92 68.6199 31.3 68.0999 29.97 67.8399C28.62 67.5799 27.51 67.5899 26.58 67.6299C23.74 67.7899 21.33 68.5699 19.18 69.4699C17.03 70.3799 15.13 71.4399 13.39 72.5499C9.91997 74.7899 7.03997 77.1899 4.40997 79.6699L4.41997 79.6299Z" fill="#101214"/>
</g>
<defs>
<clipPath id="clip0_448_5665">
<rect width="290.79" height="89.31" fill="white"/>
</clipPath>
</defs>
</svg>
