<svg width="125" height="103" viewBox="0 0 125 103" fill="none" xmlns="http://www.w3.org/2000/svg">
<g clip-path="url(#clip0_448_5876)">
<path d="M7.69 70.4901C10.21 74.2101 12.43 75.2501 13.1 74.6801C13.85 74.0701 13.14 71.9301 11.15 68.3901C9.75 65.8601 8.59 63.1701 7.76 60.3301C6.92 57.4901 6.38 54.5001 6.28 51.3801C6.16 48.2601 6.49 45.0101 7.33 41.7301C8.19 38.4601 9.59 35.1501 11.68 32.1101C14.02 28.6501 16.63 26.4601 18.98 25.2601C21.36 24.0801 23.44 23.9401 25.18 24.4501C26.94 24.9701 28.44 26.2201 29.69 27.9501C30.96 29.6801 31.92 31.9701 32.67 34.8201C33.95 39.6701 34.29 45.8001 33.98 52.1501L33.92 53.3501L33.9 53.7001C33.85 54.3701 34.18 55.3501 34.84 55.9001C35.49 56.4601 36.25 56.6801 37.04 56.5901C37.83 56.5301 38.74 55.9701 39.15 55.2201C39.26 55.0301 39.33 54.8601 39.39 54.6901L39.47 54.4301L39.51 54.2801L39.59 53.9901L39.75 53.4001L40.08 52.2301C40.53 50.6701 41 49.1001 41.5 47.5501C42.49 44.4401 43.57 41.3901 44.7 38.4701C46.96 32.6201 49.47 27.3301 51.83 23.2001C54.2 19.0701 56.4 16.1501 57.69 14.6301L58.85 13.2901L60.03 12.0001C60.53 11.5001 61.15 10.8101 62.58 9.62006C62.95 9.35006 63.36 9.04006 63.83 8.70006C64.32 8.41006 64.85 8.03006 65.48 7.73006C66.72 7.06006 68.3 6.49006 70.28 6.35006H70.46L70.68 6.31006C72.54 6.05006 75.92 5.38006 79.75 6.15006C81.64 6.54006 83.6 7.29006 85.24 8.75006C86.9 10.1801 88.26 12.3201 89.16 14.9701C90.98 20.2901 91.02 27.1701 90.16 34.0501C89.73 37.5101 89.06 41.0101 88.24 44.4801C87.82 46.2101 87.37 47.9301 86.87 49.6401C86.62 50.4901 86.37 51.3401 86.1 52.1701L85.76 53.2601C85.62 53.6701 85.5 54.0701 85.34 54.4801L84.45 56.9301C84.23 57.5701 83.96 58.2401 83.69 58.9101L83.49 60.0401L83.39 60.6101C83.36 60.7201 83.37 60.7801 83.39 60.8301L83.42 61.0001C83.52 61.4401 83.6 61.9701 83.71 62.3201C83.84 62.6001 83.93 62.8701 84.1 63.1501C84.33 63.5301 85.12 64.0901 85.35 64.0801L86.43 64.2301L86.97 64.3001L87.1 64.3201C87.1 64.3201 87.17 64.3501 87.28 64.2901L87.82 64.0501L89.98 63.0901L90.52 62.8501C90.69 62.7801 90.88 62.6901 91.09 62.5601L92.3 61.8501L94.72 60.4401L95.02 60.2701L95.33 60.1101L95.64 59.9601L96.25 59.6501C97.07 59.2301 97.9 58.8801 98.73 58.5001C100.4 57.8001 102.09 57.2101 103.77 56.7901C107.12 55.9401 110.53 55.8901 113.06 57.1501C115.61 58.3401 117.26 61.0001 117.95 64.2001C118.78 68.0701 118.31 72.1701 117.34 75.8201C116.35 79.5001 114.81 82.8501 112.93 85.7901C109.16 91.6701 104.03 95.9701 98.04 98.2001C94.77 99.4101 93.02 100.23 93.11 101.1C93.16 101.5 93.67 101.84 94.68 102.03C95.69 102.19 97.21 102.16 99.13 101.64C106.15 99.7701 112.52 95.1801 117.13 88.6201C119.44 85.3401 121.34 81.5601 122.59 77.2901C123.21 75.1501 123.68 72.8901 123.86 70.5001C124.05 68.1101 123.98 65.6001 123.43 63.0001C123.2 61.9901 122.91 60.8501 122.4 59.5901C121.9 58.3401 121.21 56.9701 120.16 55.6201C119.12 54.2801 117.69 52.9701 115.91 51.9901C114.14 51.0101 112.04 50.3701 109.86 50.1601C105.48 49.7501 100.88 50.7701 96.37 52.5701C95.25 53.0301 94.1 53.5101 92.97 54.0701L92.54 54.2801L92.33 54.3801C92.33 54.3801 92.37 54.3601 92.36 54.3601H92.33C92.33 54.3601 92.3 54.3601 92.29 54.3601C92.25 54.3501 92.27 54.3001 92.31 54.2601C92.31 54.2601 92.3 54.2601 92.29 54.2601C92.29 54.2601 92.29 54.2601 92.28 54.2601V54.2501L92.35 54.0201C92.72 52.7501 93.05 51.4701 93.35 50.1901C94.74 44.3101 95.88 38.0001 96.32 31.5801C96.73 25.1901 96.57 18.5801 94.35 12.5301C93.24 9.54006 91.51 6.72006 89.19 4.65006C86.89 2.55006 84.14 1.34006 81.64 0.68006C76.54 -0.49994 72.45 0.14006 69.7 0.49006L70 0.46006C68.89 0.58006 67.92 0.64006 67.14 0.87006C66.74 0.96006 66.38 1.05006 66.05 1.12006C65.74 1.23006 65.45 1.33006 65.21 1.41006C64.71 1.59006 64.34 1.71006 64.11 1.81006C63.88 1.92006 63.77 1.97006 63.77 1.97006C63.77 1.97006 63.54 2.08006 63.09 2.29006C62.87 2.40006 62.59 2.52006 62.28 2.69006C61.98 2.87006 61.63 3.08006 61.23 3.32006C59.67 4.28006 57.57 5.86006 55.44 8.13006C53.3 10.3901 51.1 13.2901 49.03 16.6701C46.97 20.0501 44.99 23.8701 43.19 27.9701C41.38 32.0601 39.73 36.4101 38.26 40.8201C37.52 43.0201 36.83 45.2501 36.18 47.4601C35.87 48.5701 35.56 49.6801 35.25 50.7801C35.1 51.3301 34.96 51.8801 34.81 52.4301L34.6 53.2501V53.2801L36.66 53.8001C36.68 53.8001 36.69 53.8101 36.71 53.8201C36.73 53.8201 36.75 53.8401 36.75 53.8401C36.76 53.8501 36.75 53.8401 36.75 53.8101C36.75 53.7501 36.75 53.8101 36.72 53.8301C36.72 53.8301 36.73 53.8201 36.81 53.8101H36.83C41.05 54.0101 38 53.8501 38.94 53.8901V53.8401V53.7301V53.3101L38.98 52.4701C39 51.9101 39.02 51.3501 39.03 50.8001C39.03 49.6901 39.06 48.5901 39.03 47.5001C38.98 45.3301 38.9 43.2201 38.67 41.1801C38.28 37.1201 37.46 33.3901 36.31 30.2601C35.44 27.9101 34.28 25.7501 32.78 23.9101C31.29 22.0801 29.39 20.5901 27.31 19.7901C25.24 18.9501 23.1 18.8001 21.27 19.0401C19.42 19.2701 17.83 19.8401 16.47 20.4801C13.75 21.8001 11.89 23.4401 10.41 24.8901C8.94 26.3701 7.9 27.7401 7.06 28.9501C2.03 36.3701 0.580002 44.5101 1.1 51.6801C1.36 55.2801 2.15 58.6801 3.3 61.8201C4.43 64.9701 5.94 67.8501 7.69 70.4901Z" fill="#101214"/>
</g>
<defs>
<clipPath id="clip0_448_5876">
<rect width="122.97" height="102.86" fill="white" transform="translate(1)"/>
</clipPath>
</defs>
</svg>
