<svg width="252" height="290" viewBox="0 0 252 290" fill="none" xmlns="http://www.w3.org/2000/svg">
<g clip-path="url(#clip0_448_6015)">
<path d="M13.5998 109.13C15.4298 107.81 16.6198 106.24 17.5998 104.79C18.5598 103.36 19.3598 101.96 20.0198 100.64C21.3398 97.9999 22.1098 95.6599 22.5798 93.7699C23.4898 89.9699 23.2798 87.9799 22.8598 87.8999C22.3698 87.7999 21.6698 89.5899 20.1398 92.9199C19.3598 94.5799 18.3498 96.6299 16.9298 98.9299C16.2198 100.08 15.3998 101.3 14.4598 102.56C13.5498 103.78 12.4898 104.99 11.2898 105.8C10.4398 106.37 9.61976 106.66 8.85976 106.62C8.11976 106.6 7.36976 106.28 6.66976 105.68C5.97976 105.08 5.39976 104.23 5.05976 103.32C4.68976 102.35 4.50976 101.25 4.44976 100.06C4.34976 97.6899 4.63976 94.8899 4.91976 92.2599C5.22976 89.5999 5.66976 86.9499 6.27976 84.3299C7.49976 79.0999 9.40976 73.9999 12.2798 69.4199C15.1398 64.8999 19.0398 60.8599 23.7598 58.0899C28.4598 55.2799 33.9498 53.9099 39.5398 54.5499C45.1298 55.1399 50.6798 57.5799 55.1998 61.4499C59.7398 65.3399 63.3398 70.6299 65.6198 76.6199C67.8598 82.6199 68.7998 89.3099 68.2998 96.1499C67.7398 103.9 65.5398 110.79 62.6398 116.57C59.7398 122.39 56.1998 127.21 52.1198 130.35C48.0898 133.5 43.3698 134.97 39.2198 134.64C35.0798 134.33 31.4098 132.1 28.6598 129.23C25.8998 126.35 24.0098 122.75 22.6598 118.93C21.9998 117.01 21.3998 115.04 21.0098 112.99C20.7998 111.97 20.5898 110.95 20.3698 109.93C20.2298 108.89 20.0898 107.84 19.9498 106.79C19.4798 102.57 19.3198 98.1399 19.8198 93.4799C20.2798 88.82 21.1998 83.9099 22.8998 78.7799C24.3698 74.4699 26.2898 70.0999 28.7498 65.8399C31.2098 61.5899 34.2998 57.5299 37.8698 53.7899C38.7698 52.8499 39.6598 51.8999 40.6598 51.0599C41.6498 50.2099 42.5898 49.2699 43.6198 48.4699C45.6398 46.8599 47.7598 45.5399 49.9198 45.1199C52.0598 44.6799 54.4098 45.1399 56.6298 46.2199C58.8498 47.2899 60.9398 48.9199 62.6898 50.8399C66.2198 54.6499 68.5898 59.7699 68.7398 64.8599C68.7798 67.3799 68.2898 69.8999 67.1298 72.0499C66.0298 74.1299 64.1598 75.9099 62.1898 76.6299C60.2198 77.3799 58.2998 76.9499 56.4098 75.5499C54.5398 74.1799 52.9298 71.9899 51.5598 69.7199C48.8198 65.1699 47.3298 59.9299 46.9098 54.6899C46.4798 49.4299 47.1298 44.2199 48.5898 39.3299C50.0398 34.4299 52.2598 29.8499 54.8698 25.6999C60.1598 17.4699 66.6598 10.2599 73.7198 7.24994C77.2098 5.73994 80.6898 5.43994 83.7198 6.18994C86.7598 6.93994 89.3998 8.66994 91.5498 10.6099C95.8498 14.5799 98.3398 19.1099 99.9998 22.2899C101.95 26.0899 103.5 30.1299 104.69 34.2899C105.78 37.9999 106.98 43.4299 107.53 50.3899C108.07 57.3599 107.88 65.8499 106.67 75.5299C106.08 80.3599 105.27 85.5199 104.29 90.8999C103.3 96.2699 102.1 101.84 100.43 107.49C98.7598 113.13 96.6398 118.85 93.7398 124.36C90.8498 129.88 87.1898 135.2 82.6198 139.82C80.3198 142.11 77.8098 144.26 75.0898 146.04C72.3698 147.84 69.3998 149.28 66.2998 150.22C63.2098 151.11 59.9698 151.5 56.8498 151.02C55.2998 150.77 53.7598 150.39 52.2898 149.75C50.8098 149.14 49.3798 148.35 48.0498 147.38C42.6798 143.52 38.7398 137.34 36.9998 130.55C35.1798 123.67 35.2398 116.17 36.0598 108.65C37.8298 93.5199 41.2298 78.1499 48.1898 64.6699C51.6498 57.9399 56.0998 51.7799 61.4098 46.6299C64.0198 44.1299 66.9098 42.0299 69.8598 41.2099C71.3398 40.7999 72.7898 40.6999 74.2198 40.9699C75.6598 41.2199 77.0898 41.8199 78.3998 42.6699C82.1698 45.0599 84.4898 49.2499 85.8198 53.7799C86.4998 56.0499 86.9398 58.4399 87.2798 60.7999C87.6198 63.1599 87.7798 65.5199 87.8298 67.8599C87.9998 77.2099 86.0798 86.1099 83.0398 93.9999C79.9498 101.91 75.7798 108.89 71.1898 114.97C68.8898 118.01 66.4898 120.85 64.0398 123.48C61.5598 126.13 59.1598 128.55 56.6498 130.23C55.3898 131.07 54.1198 131.73 52.8298 132.16C51.5398 132.6 50.2298 132.8 48.9998 132.79C46.5298 132.76 44.5598 131.74 43.0398 130C41.5398 128.26 40.6198 125.98 40.3498 123.74C40.0498 121.44 40.2998 119.08 40.8098 116.81C41.3198 114.54 42.1098 112.33 42.9498 110.25C43.7898 108.17 44.7398 106.25 45.7198 104.45C47.6798 100.85 49.8498 97.8199 51.9598 95.2399C54.4598 92.1999 57.1998 89.4299 60.1298 86.9799C63.0198 84.5099 66.1098 82.5099 69.3698 80.8799C72.6298 79.2799 76.0398 78.0999 79.4798 77.3899C81.1998 77.0399 82.9398 76.79 84.6498 76.66C86.2598 76.56 87.8498 76.63 89.3998 76.91C92.4798 77.51 95.3598 78.9099 97.8998 80.8899C100.47 82.8299 102.7 85.3099 104.71 87.9199C108.73 93.1999 111.88 99.1199 114.73 105.03C120.41 116.91 124.89 128.92 130.32 140.33C133.06 146.02 135.98 151.63 139.82 156.76C141.75 159.31 143.93 161.74 146.55 163.78C149.19 165.76 152.33 167.4 155.77 167.85C159.54 168.42 162.81 167.58 165.29 166.61C167.81 165.63 169.63 164.39 171.04 163.39C171.72 162.85 172.31 162.38 172.8 161.95C173.27 161.51 173.64 161.11 173.93 160.79C174.5 160.13 174.72 159.73 174.59 159.57C174.47 159.41 174 159.49 173.22 159.82C172.83 159.98 172.36 160.22 171.8 160.49C171.23 160.75 170.58 161.06 169.85 161.43C168.36 162.1 166.54 163 164.26 163.65C162 164.3 159.29 164.81 156.33 164.28C153.62 163.87 151.14 162.5 148.92 160.76C146.73 158.96 144.81 156.74 143.08 154.35C139.64 149.54 136.91 144.07 134.35 138.45C129.24 127.18 124.97 115.11 119.31 102.86C116.45 96.7599 113.27 90.5499 108.92 84.7199C106.73 81.8299 104.25 78.9999 101.18 76.6299C98.1598 74.2299 94.4598 72.3499 90.4098 71.5499C88.3898 71.1599 86.3098 71.0599 84.2498 71.1799C82.2698 71.3199 80.3098 71.5899 78.3598 71.9899C74.4498 72.7799 70.5998 74.0999 66.9098 75.8899C63.2398 77.6899 59.6998 79.9799 56.5198 82.6899C53.3298 85.3499 50.3298 88.3599 47.5998 91.6799C43.3998 96.8399 38.5698 104 35.5898 113.97C34.8898 116.5 34.3598 119.29 34.4098 122.32C34.4398 123.83 34.6198 125.4 35.0298 126.98C35.4498 128.55 36.0698 130.1 36.9298 131.58C37.8098 133.05 38.9198 134.45 40.3498 135.64C41.7698 136.82 43.5098 137.78 45.3898 138.29C49.1698 139.32 53.1198 138.71 56.5898 137.19C60.0798 135.64 62.9898 133.24 65.5698 130.73C68.1298 128.22 70.5798 125.58 73.0098 122.71C77.8398 116.99 82.3598 110.44 86.0798 102.98C89.7698 95.5199 92.6098 87.0999 93.7798 77.9999C94.3898 73.4599 94.5398 68.7399 94.2098 63.9499C93.7998 59.1599 93.0998 54.3399 91.2898 49.3899C90.0898 46.1899 88.3798 43.0299 85.8298 40.3499C83.2998 37.7199 80.0698 35.6199 76.2798 34.7399C74.3998 34.2899 72.3698 34.2099 70.4498 34.4899C68.5198 34.7499 66.7098 35.3599 65.0798 36.1499C61.7998 37.7299 59.1698 39.9399 56.8398 42.2199C51.9098 47.1199 47.7298 52.8299 44.2698 58.9799C40.8598 65.1599 38.1898 71.7599 36.0998 78.5299C34.0498 85.3099 32.5198 92.2499 31.4398 99.2299C30.3498 106.18 29.5198 113.28 29.7798 120.5C29.9498 124.1 30.3598 127.73 31.2498 131.26C31.6598 133.03 32.2398 134.77 32.8898 136.5C33.5898 138.2 34.3498 139.87 35.2798 141.45C37.0798 144.63 39.4098 147.5 42.0998 149.96C44.8198 152.39 47.9998 154.37 51.4598 155.59C52.3398 155.85 53.1998 156.17 54.1098 156.34L55.4498 156.62L56.7998 156.8C58.6098 156.98 60.4198 157.02 62.1798 156.84C65.7198 156.5 69.0798 155.51 72.1598 154.14C78.3498 151.4 83.4398 147.25 87.6798 142.79C96.1898 133.76 101.2 123.25 104.47 113.74C107.72 104.17 109.38 95.4599 110.65 88.2899C111.91 81.1099 112.65 75.3199 113.04 71.3399C113.43 67.3499 113.53 65.1699 113.53 65.1699C113.53 65.1699 113.57 64.3599 113.64 62.8199C113.71 61.2799 113.77 58.9899 113.73 56.0499C113.61 50.1899 113.15 41.5599 110.1 31.3799C108.55 26.3199 106.33 20.8799 103.03 15.5399C101.39 12.8699 99.4298 10.1799 96.9998 7.73994C94.5898 5.29994 91.6798 3.02994 88.1298 1.57994C84.6098 0.109944 80.4498 -0.360056 76.5398 0.439944C74.5698 0.799944 72.6898 1.45994 70.8998 2.28994C69.0998 3.10994 67.4098 4.11994 65.8098 5.25994C62.5998 7.51994 59.7798 10.2599 57.1998 13.2399C54.6698 16.1999 52.2898 19.3599 50.1898 22.7799C45.9698 29.5699 42.7498 37.3899 41.7398 45.7999C40.7498 54.1599 41.9898 63.0199 46.0698 70.7299C47.0698 72.67 48.2798 74.4599 49.6498 76.2099C51.0598 77.9399 52.7298 79.6099 54.9498 80.8199C56.0498 81.4199 57.2898 81.8799 58.6098 82.0899C59.9298 82.2899 61.2998 82.2399 62.5798 81.9399C65.1498 81.3399 67.2998 79.9099 68.9598 78.1999C69.7998 77.3399 70.5198 76.3899 71.1498 75.3799C71.7998 74.3599 72.2198 73.2799 72.6598 72.2199C73.4398 70.0399 73.7998 67.7499 73.8098 65.4999C73.8398 60.9699 72.4498 56.6899 70.3698 52.9699C69.3298 51.0899 68.0498 49.3799 66.6298 47.7999C65.2098 46.2199 63.6198 44.7999 61.8698 43.5999C60.1198 42.3999 58.1898 41.3799 56.0598 40.7499C53.9498 40.0999 51.6098 39.8899 49.3398 40.2699C47.0598 40.6699 45.0398 41.6199 43.3198 42.7099C41.5898 43.8199 40.0698 45.0099 38.7098 46.2799C37.3198 47.5299 35.9098 48.7399 34.6698 50.1099C34.0298 50.7699 33.3998 51.4299 32.7698 52.0899C32.1898 52.7899 31.6098 53.4799 31.0298 54.1699C26.4498 59.7099 22.9698 65.6899 20.4398 71.6299C17.9098 77.5699 16.3398 83.4699 15.4898 88.9799C14.7798 93.13 14.6298 97.2099 14.6098 101.15C14.7598 105.09 15.0698 108.9 15.8198 112.53C16.4598 116.17 17.4198 119.62 18.7398 122.9C20.0598 126.17 21.7898 129.22 23.9998 131.84C26.2098 134.43 28.8298 136.56 31.7598 138C34.6698 139.46 37.9298 140.15 40.9698 140.06C47.0798 139.89 52.2498 137.32 56.0998 134.19C59.9798 131.03 62.7098 127.39 64.8798 123.95C67.0198 120.47 68.6798 117.1 69.9398 113.87C72.4698 107.41 73.4898 101.63 73.8998 96.6299C74.4498 89.0399 73.3998 81.5199 70.8298 74.7099C68.2298 67.9299 64.1098 61.8699 58.7598 57.3399C53.3998 52.8099 46.8298 49.9499 40.0998 49.2899C33.3498 48.5599 26.5398 50.3499 21.1098 53.7099C15.6098 57.0299 11.2598 61.6899 8.06976 66.8799C4.90976 72.0799 2.91976 77.7299 1.70976 83.3699C1.10976 86.1999 0.689762 89.0299 0.409762 91.8399C0.269762 93.2499 0.169762 94.6499 0.0997624 96.0499C0.0297624 97.4499 -0.0202376 98.8999 0.0797624 100.4C0.189762 101.9 0.459762 103.46 1.06976 104.96C1.69976 106.5 2.66976 107.88 3.96976 108.97C5.25976 110.05 6.99976 110.83 8.83976 110.82C10.6598 110.85 12.3498 110.11 13.6298 109.19L13.5998 109.13Z" fill="#101214"/>
<path d="M203.569 122.98C203.809 125.25 204.269 127.2 204.739 129.06C205.219 130.9 205.779 132.59 206.359 134.11C207.529 137.16 208.799 139.56 209.939 141.4C212.239 145.07 213.909 146.51 214.269 146.27C214.679 146 213.799 144.05 212.249 140.23C211.489 138.31 210.569 135.92 209.709 132.98C209.279 131.51 208.859 129.91 208.489 128.17C208.139 126.45 207.769 124.51 207.609 122.62C207.379 119.93 207.719 117.24 209.019 115.67C209.659 114.85 210.499 114.35 211.539 114.05C212.569 113.75 213.769 113.75 214.939 113.97C219.619 114.85 223.499 120.04 227.379 124.68C231.179 129.44 234.639 134.56 237.399 140.11C240.149 145.64 242.219 151.64 243.059 157.88C243.889 164.12 243.539 170.67 241.649 176.87C240.699 179.96 239.359 182.95 237.599 185.7C235.859 188.44 233.609 190.98 231.089 193.22C226.039 197.68 219.579 200.9 212.689 201.56C211.809 201.63 210.889 201.65 209.989 201.7L208.629 201.77C208.179 201.78 207.719 201.74 207.269 201.73C206.359 201.69 205.449 201.65 204.539 201.61C203.639 201.49 202.739 201.37 201.829 201.25C198.229 200.66 194.689 199.59 191.349 197.94C183.739 194.17 178.389 188.1 174.499 182.02C170.579 175.9 168.079 169.6 166.189 163.69C164.369 157.75 163.179 152.1 162.569 146.8C162.409 145.48 162.309 144.18 162.249 142.93C162.249 142.33 162.199 141.68 162.239 141.14C162.239 140.85 162.249 140.57 162.279 140.4C162.299 140.29 162.279 140.22 162.319 140.07L162.409 139.63C162.879 137.28 163.639 135.06 164.619 133C165.609 130.95 166.819 129.07 168.259 127.44C168.969 126.62 169.749 125.86 170.569 125.18C170.979 124.83 171.399 124.51 171.839 124.21L172.179 123.96L172.719 123.55C173.059 123.25 173.409 122.94 173.699 122.56C174.299 121.82 174.749 120.91 174.959 120.04C175.179 119.16 175.229 118.32 175.199 117.55C175.169 116.78 175.069 116.07 174.939 115.41C174.819 114.78 174.629 113.99 174.599 113.88C174.529 113.53 174.359 113.12 174.519 112.76C174.779 112.43 175.249 112.58 175.609 112.63L176.069 112.72L176.319 112.77L176.729 112.87C177.299 113 177.869 113.15 178.439 113.31C179.579 113.64 180.719 114.01 181.859 114.44C184.139 115.3 186.419 116.38 188.719 117.63C193.309 120.16 197.889 123.4 202.489 127.32C203.439 128.18 204.399 129.04 205.369 129.92C206.349 130.78 207.209 131.79 208.149 132.73C210.059 134.59 211.739 136.73 213.519 138.84C214.409 139.9 215.169 141.07 216.009 142.19C216.419 142.76 216.839 143.33 217.249 143.9C217.669 144.47 218.019 145.09 218.409 145.69C219.169 146.89 219.929 148.11 220.699 149.33C221.389 150.6 222.079 151.88 222.769 153.16C228.189 163.51 231.819 175.48 232.669 187.93L232.769 189.09C232.789 189.48 232.789 189.87 232.799 190.26L232.839 192.6L232.879 194.95C232.879 195.73 232.799 196.51 232.759 197.3C232.649 198.86 232.619 200.44 232.449 202C232.279 203.55 232.059 205.05 231.709 206.49C231.359 207.92 230.899 209.28 230.269 210.5C230.119 210.81 229.939 211.1 229.769 211.39C229.689 211.54 229.579 211.67 229.489 211.81L229.349 212.02C229.349 212.02 229.309 212.05 229.299 212.07L229.279 212.1C229.279 212.1 229.379 212.22 229.429 212.26C229.489 212.3 229.549 212.35 229.599 212.4C229.819 212.6 230.009 212.84 230.149 213.12C230.269 213.26 230.349 213.39 230.369 213.58C230.369 213.65 230.379 213.61 230.389 213.64C230.389 213.64 230.389 213.71 230.389 213.67C230.399 213.61 230.419 213.56 230.449 213.52C230.479 213.47 230.499 213.48 230.579 213.35C230.729 213.14 230.869 213.07 231.119 212.89C231.249 212.79 231.379 212.69 231.519 212.61L231.729 212.49C231.809 212.45 231.879 212.42 231.849 212.44C231.849 212.44 231.839 212.39 231.829 212.38C231.709 212.12 231.589 211.42 231.559 210.8C231.539 210.47 231.539 210.15 231.549 209.84C231.549 209.69 231.559 209.61 231.579 209.5C231.609 209.29 231.659 209.08 231.749 208.9C231.829 208.72 231.989 208.53 232.209 208.53C232.419 208.54 232.599 208.68 232.749 208.82C232.819 208.89 232.899 208.97 232.959 209.05L233.059 209.17L233.209 209.37L233.369 209.59L233.689 210.08L234.329 211.05C234.769 211.69 235.149 212.37 235.559 213.03C237.149 215.7 238.529 218.49 239.719 221.35C242.119 227.07 243.719 233.07 244.739 239.09C245.249 242.1 245.609 245.11 245.839 248.1C246.059 251.06 246.109 254 245.929 256.87C245.579 262.59 244.339 268.1 241.839 272.58C239.369 277.07 235.589 280.33 231.199 281.98C226.809 283.68 222.009 284.01 217.509 283.67C212.989 283.33 208.689 282.34 204.739 281.16C200.799 279.97 197.219 278.55 194.019 277.07C187.639 274.08 182.779 270.93 179.389 268.57C175.369 265.77 171.549 262.68 167.859 259.4C164.559 256.47 160.029 252.09 154.789 246.14C149.549 240.18 143.649 232.62 137.319 223.65C131.009 214.69 124.199 204.46 118.639 192.52C115.879 186.55 113.479 180.16 111.769 173.36C110.069 166.57 109.059 159.38 109.189 152.04C109.269 148.37 109.589 144.66 110.299 141.02C111.029 137.38 112.109 133.78 113.679 130.4C114.459 128.71 115.349 127.07 116.379 125.53C117.389 123.97 118.549 122.53 119.829 121.2C122.369 118.52 125.459 116.43 128.919 115.02C132.369 113.57 136.189 112.9 140.059 112.82C143.939 112.72 147.889 113.3 151.709 114.39C153.629 114.91 155.489 115.64 157.329 116.42C159.129 117.26 160.949 118.17 162.679 119.26C166.169 121.36 169.439 123.91 172.519 126.72C178.689 132.36 184.069 139.06 189.169 146.04C194.269 153.01 199.039 160.24 203.139 167.79C207.239 175.33 210.819 183.14 213.319 191.21C215.829 199.27 217.509 207.54 217.789 215.78C217.819 217.23 217.849 218.68 217.879 220.12C217.869 221.54 217.799 222.94 217.669 224.3C217.419 227.03 216.879 229.64 215.969 231.96C215.069 234.28 213.739 236.27 212.059 237.79C210.359 239.3 208.259 240.36 206.019 241C203.769 241.63 201.389 241.81 199.069 241.65C196.759 241.45 194.429 240.9 192.209 240.09C187.749 238.47 183.639 235.88 179.809 233.09C172.199 227.46 166.029 220.79 161.129 213.87C156.219 206.94 152.569 199.77 149.849 192.77C147.119 185.77 145.309 178.94 144.089 172.49C142.859 166.04 142.219 159.96 141.909 154.34C141.649 148.7 141.499 143.49 142.199 139.18C142.539 137.02 143.099 135.04 143.839 133.33C144.599 131.62 145.539 130.1 146.619 128.9C147.879 127.46 149.359 126.33 150.969 125.64C151.779 125.31 152.619 125.06 153.499 124.91C154.379 124.78 155.279 124.74 156.189 124.78C158.009 124.89 159.849 125.36 161.559 126.11C163.279 126.87 164.819 127.88 166.269 129.14C169.149 131.65 171.409 134.94 173.269 138.44C175.129 141.97 176.679 145.7 177.909 149.43C180.389 156.91 181.649 164.58 181.909 172.09C182.139 179.6 181.469 187.01 179.719 193.91C178.859 197.37 177.679 200.68 176.209 203.8C174.739 206.92 172.959 209.83 170.819 212.41C166.599 217.59 160.959 221.37 154.799 223.78C148.629 226.19 142.009 227.32 135.419 227.47C128.819 227.61 122.199 226.79 115.669 225.5C108.489 224.05 103.109 222.7 99.4493 222C95.7993 221.28 93.8993 221.13 93.7893 221.52C93.6793 221.91 95.3393 222.83 98.8093 224.19C102.299 225.52 107.589 227.37 114.919 229.03C121.589 230.51 128.449 231.53 135.459 231.52C142.459 231.5 149.579 230.45 156.379 227.93C163.149 225.43 169.609 221.28 174.489 215.47C176.939 212.59 178.979 209.36 180.649 205.94C182.319 202.52 183.639 198.91 184.619 195.19C186.589 187.74 187.369 179.92 187.189 171.93C186.979 163.94 185.699 155.76 183.089 147.72C181.779 143.7 180.169 139.74 178.139 135.85C176.089 131.97 173.519 128.11 169.919 124.94C166.339 121.76 161.639 119.5 156.499 119.18C155.209 119.11 153.909 119.16 152.599 119.36C151.289 119.58 149.999 119.95 148.749 120.46C146.259 121.52 144.099 123.2 142.369 125.18C141.019 126.72 139.829 128.54 138.879 130.59C137.909 132.65 137.219 134.94 136.759 137.34C135.829 142.18 135.889 147.38 136.069 152.91C136.269 158.47 136.779 164.51 137.809 170.94C138.849 177.37 140.419 184.2 142.829 191.26C145.209 198.32 148.499 205.59 152.889 212.72C157.289 219.84 162.829 226.84 169.729 233.08C173.189 236.2 176.949 239.11 181.109 241.73C185.289 244.32 190.019 246.64 195.409 247.68C200.799 248.72 206.779 248.31 212.169 245.55C214.859 244.21 217.339 242.11 219.179 239.62C221.029 237.12 222.259 234.28 223.049 231.43C224.069 227.7 224.389 223.98 224.439 220.37C224.429 218.58 224.369 216.8 224.329 215.01C224.229 213.23 224.039 211.46 223.899 209.69C223.119 202.62 221.519 195.69 219.319 189.04C214.589 174.65 206.959 160.93 198.019 148.14C193.519 141.76 188.839 135.48 183.519 129.55C178.219 123.65 172.209 118.16 165.239 114.05C158.299 109.86 150.279 107.38 142.229 107.11C138.199 106.98 134.139 107.4 130.249 108.5C126.369 109.61 122.689 111.44 119.499 113.87C117.889 115.06 116.469 116.45 115.119 117.87C113.829 119.34 112.589 120.86 111.569 122.48C109.439 125.69 107.869 129.14 106.669 132.63C104.249 139.63 103.489 146.79 103.469 153.59C103.549 167.28 107.009 179.65 111.269 190.02C115.559 200.41 120.609 208.93 124.979 215.81C129.379 222.68 133.129 227.93 135.719 231.53C138.309 235.12 139.769 237.04 139.769 237.04C139.769 237.04 140.309 237.75 141.349 239.11C142.389 240.46 143.929 242.46 145.989 244.96C150.119 249.95 156.199 257.17 164.949 264.88C169.319 268.73 174.389 272.65 180.209 276.3C186.039 279.92 192.619 283.29 199.979 285.76C203.659 286.99 207.489 288 211.529 288.72C215.569 289.39 219.809 289.73 224.149 289.32C228.479 288.93 232.969 287.79 236.999 285.4C238.999 284.21 240.889 282.75 242.499 281.02C243.359 280.2 244.029 279.23 244.779 278.31C245.419 277.33 246.119 276.36 246.649 275.31C248.949 271.19 250.179 266.63 250.869 262.07C251.509 257.49 251.589 252.87 251.249 248.28C250.569 239.18 248.749 230.03 245.379 221.32C243.689 216.98 241.579 212.77 239.079 208.81L238.109 207.35L237.619 206.62L236.829 205.58L236.429 205.06L235.939 204.55C235.599 204.23 235.309 203.82 234.939 203.59C234.239 203.03 233.509 202.58 232.749 202.35C231.999 202.08 231.169 202.05 230.359 202.27C229.549 202.51 228.889 202.99 228.369 203.6C227.289 204.78 226.739 206.63 226.529 208.53C226.439 209.6 226.429 210.21 226.469 210.88C226.499 211.55 226.569 212.22 226.729 212.95C226.799 213.3 226.909 213.7 227.049 214.1C227.139 214.33 227.229 214.54 227.339 214.77L227.579 215.17C227.679 215.31 227.719 215.41 227.889 215.59C228.039 215.76 228.199 215.92 228.359 216.07C228.429 216.14 228.549 216.23 228.699 216.31C228.839 216.39 228.989 216.47 229.139 216.54C229.649 216.83 230.609 216.87 231.169 216.72C231.699 216.58 232.269 216.27 232.459 216.08C232.749 215.86 233.019 215.6 233.139 215.44C233.289 215.26 233.479 215.03 233.579 214.88L233.849 214.47C234.039 214.2 234.199 213.92 234.359 213.64C234.689 213.08 234.979 212.5 235.239 211.92C235.759 210.76 236.159 209.57 236.479 208.39C237.099 206.03 237.399 203.69 237.599 201.43C237.709 199.17 237.879 196.91 237.919 194.67C237.989 185.69 236.669 176.9 234.299 168.7C231.929 160.5 228.529 152.89 224.469 146.09C220.429 139.27 215.669 133.29 210.619 128.24C205.559 123.2 200.289 118.97 195.029 115.69C191.119 113.17 187.039 111.08 182.839 109.54C181.789 109.16 180.729 108.81 179.669 108.51C179.139 108.36 178.609 108.21 178.069 108.09L177.669 107.99L177.469 107.94L177.189 107.88L176.069 107.66C175.719 107.58 175.289 107.53 174.859 107.49L173.589 107.35C172.799 107.38 172.049 107.48 171.389 107.79C170.729 108.07 170.119 108.64 169.769 109.28C169.419 109.92 169.279 110.61 169.239 111.37C169.209 112.13 169.339 112.97 169.499 113.79C169.639 114.44 169.789 115.09 169.929 115.73C170.109 116.59 170.229 117.38 170.199 118C170.189 118.64 170.039 118.99 169.859 119.27C169.739 119.4 169.639 119.55 169.429 119.68C169.389 119.72 169.129 119.9 168.919 120.05L168.289 120.5C164.969 122.96 162.459 126.11 160.659 129.39C159.759 131.03 159.019 132.72 158.429 134.42C158.139 135.27 157.869 136.12 157.649 136.97C157.539 137.4 157.429 137.82 157.339 138.25C157.249 138.69 157.149 139.05 157.079 139.64C156.989 140.21 156.999 140.63 156.969 141.09C156.939 141.56 156.969 141.96 156.969 142.39C156.969 143.25 157.029 144.05 157.069 144.87C157.189 146.48 157.349 148.04 157.559 149.55C158.389 155.62 159.689 161.12 161.269 166.12C164.419 176.12 168.699 184.12 173.519 190.2C174.139 190.95 174.699 191.71 175.339 192.39C175.979 193.08 176.599 193.75 177.209 194.4C177.839 195.04 178.509 195.62 179.129 196.22C179.449 196.51 179.749 196.81 180.079 197.09C180.409 197.36 180.739 197.62 181.069 197.88C183.619 200.03 186.299 201.58 188.809 202.92C192.689 204.84 196.809 206.07 200.929 206.74C201.969 206.87 202.999 207.01 204.029 207.14C205.059 207.18 206.089 207.23 207.109 207.27C207.619 207.28 208.139 207.32 208.639 207.31L210.159 207.24C211.169 207.18 212.179 207.16 213.189 207.07C221.499 206.24 228.939 202.42 234.699 197.29C237.579 194.7 240.109 191.81 242.149 188.58C244.179 185.36 245.699 181.91 246.749 178.38C248.849 171.31 249.149 164.02 248.169 157.12C247.169 150.19 244.829 143.73 241.809 137.83C238.779 131.93 235.049 126.58 231.009 121.68C229.999 120.45 228.969 119.25 227.909 118.08C226.869 116.9 225.789 115.73 224.599 114.6C222.239 112.37 219.319 110.25 215.709 109.61C213.949 109.32 212.109 109.33 210.319 109.87C208.549 110.39 206.809 111.5 205.679 113.03C204.509 114.53 203.909 116.32 203.639 118C203.369 119.7 203.399 121.36 203.559 122.95L203.569 122.98Z" fill="#101214"/>
</g>
<defs>
<clipPath id="clip0_448_6015">
<rect width="251.42" height="289.46" fill="white"/>
</clipPath>
</defs>
</svg>
