<svg width="157" height="27" viewBox="0 0 157 27" fill="none" xmlns="http://www.w3.org/2000/svg">
<g clip-path="url(#clip0_448_5870)">
<path d="M2.39006 19.9699C-0.809943 23.6599 1.60006 25.98 5.23006 22.85C7.82006 20.65 10.4701 18.4 13.3501 16.02C16.2301 13.66 19.3701 11.1199 23.0001 8.75995C27.0301 6.02995 29.8201 5.03995 31.2701 5.22995C31.9801 5.29995 32.5501 5.60995 33.1601 6.39995C33.7501 7.19995 34.2601 8.38995 34.6301 9.96995C34.9701 11.2999 35.2201 12.8499 35.4601 14.5199C35.7101 16.1999 35.9201 18.0099 36.3301 19.9799C36.5501 20.9699 36.8101 22 37.3101 23.11C37.4301 23.38 37.5701 23.67 37.7701 23.99C37.9301 24.29 38.1801 24.62 38.4301 24.93C38.9501 25.53 39.5701 26.08 40.3001 26.42C41.0101 26.79 41.8201 26.9599 42.6201 26.9799C43.0201 26.9799 43.4401 26.98 43.8201 26.91C44.2101 26.85 44.6101 26.77 44.8801 26.68C46.1201 26.32 47.1101 25.8199 48.0101 25.2999C48.4701 25.0399 48.8901 24.77 49.3001 24.5L49.7701 24.18C49.9201 24.05 50.0501 23.91 50.2101 23.76L50.6901 23.2999C51.2901 22.7199 51.8901 22.1699 52.4801 21.6399C53.6501 20.5799 54.7901 19.6399 55.8201 18.8099C57.9001 17.1599 59.6101 16.0199 60.5701 15.4199C61.1401 15.0599 61.7001 14.6999 62.2401 14.3199C63.2101 13.6799 65.0801 12.4299 67.5301 11.5199C68.7301 11.0899 70.1101 10.7599 71.2401 10.8999C72.3801 11.0099 73.2201 11.4499 74.0801 12.6499C74.5101 13.2199 74.8501 14.0399 75.1701 14.8899C75.3501 15.4599 75.5201 16.03 75.7001 16.61C76.0201 17.49 76.4801 18.35 77.1101 19.08C78.3401 20.57 80.1201 21.5699 82.0501 21.8799C83.0201 22.0299 84.0201 21.9999 84.9901 21.8099C85.9501 21.5999 86.9001 21.19 87.6901 20.69C91.4301 18.3 95.8801 16.96 100.38 16.61C103.56 16.31 106.52 16.42 109.21 16.61C111.9 16.81 114.32 17.12 116.48 17.42C120.84 18.07 124.04 18.54 126.24 18.87C131.51 19.62 136.28 20.0099 140.74 19.8099C145.19 19.5999 149.34 18.83 153.16 17.29C154.22 16.9 154.91 16.3299 155.31 15.8299C155.71 15.3299 155.8 14.8599 155.64 14.4799C155.48 14.0999 155.07 13.8199 154.47 13.6999C153.86 13.5699 153.09 13.6499 152.08 13.8299C144.84 15.4199 137.3 14.8199 127.03 13.2999C125.02 13.0199 121.97 12.3199 117.85 11.4999C115.79 11.0899 113.45 10.6799 110.83 10.3399C108.2 10.0099 105.28 9.76995 102.04 9.87995C99.9301 9.96995 97.8101 10.2399 95.7401 10.7799C93.5201 11.3799 91.2301 12.1299 89.0401 13.1799C88.4801 13.4199 87.9601 13.7399 87.4201 14.0099C86.8801 14.2799 86.3501 14.5899 85.8401 14.9199L84.4201 15.8099C84.2101 15.9699 83.9801 16.04 83.7501 16.12C82.7901 16.39 81.6401 15.8699 81.1801 14.9999C81.1301 14.8799 81.0601 14.7799 81.0301 14.6499L80.9601 14.4499L80.8301 14.0299C80.6601 13.4699 80.5101 12.9199 80.2701 12.3699C79.8801 11.2699 79.2901 10.2099 78.6301 9.21995C77.9001 8.24995 77.0701 7.33995 76.0501 6.67995C75.0501 6.02995 73.9701 5.54995 72.9401 5.33995C70.8601 4.86995 69.1201 5.08995 67.8001 5.34995C66.4701 5.62995 65.4801 5.95995 64.8301 6.20995C64.1701 6.45995 63.8201 6.59995 63.8201 6.59995C63.8201 6.59995 63.3001 6.81995 62.4001 7.25995C61.5001 7.69995 60.2601 8.38995 58.8001 9.31995C55.8801 11.1799 52.2201 14.0899 48.6001 17.6299C48.1501 18.0799 47.7001 18.5299 47.2401 18.9799C46.8201 19.3999 46.2101 20.08 46.2001 20.04C45.3501 20.66 44.3201 21.2899 43.5301 21.5599C43.0701 21.7199 42.9801 21.7199 42.7901 21.7199C42.6201 21.7199 42.4501 21.65 42.3201 21.53C42.2601 21.47 42.2001 21.41 42.1501 21.34C42.1001 21.23 42.0101 21.14 41.9201 20.93C41.7301 20.57 41.5701 20.09 41.4201 19.59C40.8301 17.54 40.5401 15.1499 40.1801 12.9499C39.8201 10.7299 39.4101 8.61995 38.7701 6.74995C38.2701 5.34995 37.6401 3.96995 36.6201 2.75995C35.6101 1.54995 34.1601 0.59995 32.7401 0.22995C31.3101 -0.16005 30.0401 -0.0900504 28.9801 0.0599496C27.9001 0.20995 27.0201 0.48995 26.2101 0.75995C23.0801 1.93995 21.3401 3.12995 19.9701 3.97995C15.9001 6.64995 12.7501 9.41995 9.93006 12.0699C7.12006 14.7299 4.68006 17.31 2.40006 19.91L2.39006 19.9699Z" fill="#101214"/>
</g>
<defs>
<clipPath id="clip0_448_5870">
<rect width="156.13" height="27" fill="white"/>
</clipPath>
</defs>
</svg>
