<svg width="269" height="81" viewBox="0 0 269 81" fill="none" xmlns="http://www.w3.org/2000/svg">
<g clip-path="url(#clip0_448_6021)">
<path d="M3.69979 30.76C3.04979 31.71 2.52979 32.56 2.12979 33.32C1.74979 34.1 1.49979 34.78 1.33979 35.36C1.01979 36.51 1.09979 37.22 1.48979 37.46C1.87979 37.71 2.57979 37.49 3.48979 36.78C3.94979 36.43 4.44979 35.95 5.00979 35.35C5.59979 34.77 6.23979 34.06 6.90979 33.21C7.87979 32.02 8.92979 30.88 9.96979 29.72C11.0598 28.61 12.1198 27.44 13.2998 26.36C15.5798 24.13 18.1098 22.04 20.7998 19.98C26.2398 15.92 32.5698 12.11 40.2498 9.17004C41.3298 8.74004 42.3598 8.33004 43.3698 8.01004C44.3798 7.68004 45.3198 7.31004 46.2498 7.06004C47.1798 6.79004 48.0598 6.52004 48.9098 6.27004C49.7098 6.06004 50.4898 5.88004 51.2398 5.74004C54.2498 5.21004 56.8298 5.17004 58.9698 5.61004C61.1298 6.04004 62.7798 6.96004 63.8398 8.47004C64.8998 10.04 65.2098 12.18 64.5198 15.07C63.9698 17.52 62.8198 20.24 61.7798 23.4C61.2798 24.99 60.7898 26.72 60.6398 28.69C60.5698 29.67 60.5998 30.71 60.7798 31.78C60.9698 32.84 61.3498 33.91 61.8798 34.88C62.9298 36.81 64.7298 38.49 66.8198 39.35C68.8998 40.24 71.0598 40.39 73.0598 40.25C77.0798 39.92 80.6998 38.48 83.8398 36.42C86.7898 34.46 89.3698 32.27 91.6598 30.18C93.9598 28.09 95.9898 26.09 97.8398 24.37C101.51 20.88 104.47 18.6 106.23 17.46C107.25 16.78 108.29 16.12 109.33 15.52C110.45 14.87 112.16 13.92 114.55 13.14C115.74 12.76 117.1 12.43 118.62 12.28C119 12.26 119.39 12.24 119.78 12.21C120.18 12.21 120.58 12.22 121 12.23C121.39 12.27 121.78 12.31 122.18 12.35C122.58 12.43 122.99 12.52 123.41 12.61C125.08 13.06 126.85 13.93 128.46 15.24C128.88 15.54 129.22 15.94 129.62 16.29C129.94 16.7 130.35 17.07 130.63 17.52C131.29 18.37 131.75 19.35 132.09 20.36C132.44 21.37 132.51 22.44 132.38 23.51C132.32 24.55 131.81 25.81 131.21 27.44C130.91 28.26 130.59 29.17 130.35 30.22C130.23 30.73 130.13 31.3 130.08 31.95C130.03 32.58 130.05 33.2 130.11 33.82C130.26 35.07 130.6 36.35 131.39 37.63C131.79 38.26 132.29 38.88 132.97 39.43C133.64 39.96 134.42 40.36 135.25 40.61C136.41 40.96 138.09 40.95 139.56 40.38C141.01 39.81 142.2 38.89 143.23 37.91C144.26 36.93 145.18 35.79 146.02 34.9C146.9 33.94 147.91 32.98 149 32.02C151.21 30.12 153.88 28.31 156.82 26.77C159.78 25.26 163 23.99 166.29 23.14C169.18 22.34 172.01 21.89 174.75 21.61C177.48 21.3 180.11 21.29 182.6 21.3C187.59 21.42 192.07 21.96 196.02 22.56C203.93 23.81 209.79 25.15 213.84 25.95C223.4 27.94 232.09 29.25 240.2 29.28C248.3 29.32 255.91 28.15 262.84 25.3C263.78 24.88 264.58 24.47 265.25 24.08C265.91 23.67 266.41 23.24 266.8 22.88C267.57 22.14 267.82 21.57 267.63 21.21C267.44 20.85 266.8 20.7 265.8 20.83C265.29 20.89 264.71 21.04 264 21.21C263.29 21.37 262.49 21.6 261.6 21.91C255 23.96 247.97 24.57 240.34 24.21C232.68 23.86 224.46 22.45 214.97 20.45C211.27 19.72 205.62 18.23 197.96 16.75C194.13 16.03 189.77 15.33 184.87 15.02C179.98 14.73 174.52 14.76 168.69 15.85C164.89 16.54 161.18 17.75 157.69 19.34C153.3 21.38 148.98 24.08 145.18 27.47L143.78 28.77L142.44 30.13C141.58 31.05 140.7 32.08 140.03 32.85C139.33 33.65 138.62 34.32 138.01 34.72C137.71 34.91 137.46 35.02 137.28 35.06C137.1 35.1 137 35.1 136.86 35.08C136.69 35.03 136.58 34.97 136.41 34.8C136.24 34.61 136.07 34.28 135.95 33.89C135.83 33.5 135.77 33.04 135.78 32.61C135.78 32.38 135.8 32.21 135.85 31.95C135.89 31.7 135.95 31.43 136.02 31.16C136.3 30.07 136.81 28.85 137.28 27.47C137.51 26.78 137.74 26.04 137.9 25.25C137.96 24.85 138.01 24.44 138.07 24.04L138.14 23.44V22.84C138.14 22.44 138.14 22.04 138.13 21.65C138.08 21.26 138.02 20.88 137.97 20.49C137.89 19.71 137.61 19.01 137.43 18.28C136.92 16.9 136.29 15.61 135.5 14.51C133.96 12.28 132.06 10.61 130.16 9.38004C128.25 8.15004 126.3 7.38004 124.52 6.92004C124.07 6.82004 123.63 6.72004 123.21 6.63004C122.78 6.58004 122.36 6.52004 121.97 6.47004C121.17 6.36004 120.49 6.39004 119.84 6.36004C119.21 6.38004 118.64 6.41004 118.15 6.43004C117.67 6.48004 117.25 6.53004 116.92 6.57004C116.59 6.60004 116.33 6.64004 116.17 6.68004C116 6.71004 115.92 6.73004 115.92 6.73004C115.92 6.73004 114.88 6.88004 113.08 7.40004C111.29 7.92004 108.78 8.90004 105.99 10.51C103.21 12.13 100.13 14.39 97.1198 17.18C94.0998 19.93 91.0798 23.12 87.8598 26.19C86.2498 27.72 84.5798 29.22 82.8098 30.59C81.9398 31.25 80.9998 31.96 80.1298 32.5C79.2598 33.06 78.3198 33.54 77.3498 33.94C75.4198 34.75 73.3498 35.22 71.4498 35.2C70.5098 35.16 69.6198 35.03 68.8598 34.74C68.1098 34.43 67.4898 34.01 66.9598 33.48C65.9198 32.3 65.4498 30.85 65.5698 29.12C65.6698 27.39 66.2498 25.49 66.8798 23.64C68.1498 19.92 69.7198 16.18 69.7598 12.27C69.8098 9.34004 68.7198 6.37004 66.8498 4.38004C64.9698 2.36004 62.6598 1.30004 60.6198 0.750035C56.4698 -0.359965 53.0398 3.54648e-05 50.1598 0.420035C48.7198 0.650035 47.3898 0.990035 46.2698 1.31004C45.1298 1.64004 44.0598 1.88004 43.1098 2.22004C42.1498 2.54004 41.2698 2.83004 40.4498 3.09004C39.6398 3.38004 38.9098 3.67004 38.2298 3.93004C29.9798 7.12004 23.2498 11.35 17.6098 15.9C14.8198 18.21 12.2298 20.56 9.94979 23.07C8.76979 24.28 7.72979 25.59 6.64979 26.85C5.62979 28.15 4.61979 29.44 3.69979 30.77V30.76Z" fill="#101214"/>
<path d="M18.33 72.3201C14 72.4801 13.76 75.8101 18.14 76.3601C24.34 77.1301 30.82 77.5501 39.17 77.7901C48.63 77.8501 51 77.2101 57.41 77.4201C68.24 77.6501 86.48 78.9301 90.87 79.2501C91.52 79.3001 92.17 79.3201 92.82 79.3101C97.48 79.2801 117.94 79.1501 135.53 79.7801C147.95 80.0701 155.64 80.2601 159.66 80.3501C169.12 80.6101 176.25 80.4701 183.11 80.2701C186.58 80.2701 187.47 77.4401 183.4 76.6701C176.4 75.5801 169.32 75.0501 159.81 74.7301C156.12 74.6301 148.45 73.6201 137.6 73.2401C135.83 73.1801 134.06 73.1901 132.31 73.2801C117.15 74.0401 97.52 73.3601 97.52 73.3601C97.52 73.3601 68.22 72.7701 55.85 72.5201C46.54 72.3201 42.06 72.2301 39.31 72.1701C30.98 71.9801 24.49 72.0801 18.33 72.3101V72.3201Z" fill="#101214"/>
</g>
<defs>
<clipPath id="clip0_448_6021">
<rect width="268.22" height="80.5" fill="white"/>
</clipPath>
</defs>
</svg>
