<svg width="111" height="39" viewBox="0 0 111 39" fill="none" xmlns="http://www.w3.org/2000/svg">
<g clip-path="url(#clip0_448_5893)">
<path d="M108.31 8.33003C108.7 7.88003 109 7.45003 109.21 7.05003C109.41 6.63003 109.52 6.23003 109.56 5.89003C109.65 5.21003 109.45 4.72003 109.08 4.44003C108.71 4.16003 108.16 4.10003 107.56 4.25003C107.25 4.33003 106.94 4.47003 106.61 4.66003C106.25 4.84003 105.87 5.09003 105.49 5.42003C103.27 7.23003 100.67 8.84003 97.7402 10.41C94.8102 11.97 91.5202 13.5 87.7302 14.97C83.4602 16.7 80.7202 17.65 78.3402 18.45C75.9402 19.18 73.8602 19.78 70.7702 20.09C68.1702 20.34 65.0902 20.39 62.1102 19.84C59.1102 19.34 56.3802 17.96 54.8002 16.12C53.2602 14.24 52.8702 11.83 52.9102 9.74003C52.9402 9.21003 52.9602 8.71003 52.9802 8.25003C53.0202 8.01003 53.0602 7.78003 53.1002 7.55003C53.1202 7.44003 53.1402 7.33003 53.1602 7.22003C53.1802 7.06003 53.1802 7.16003 53.1902 7.13003C53.2302 7.12003 53.2902 7.13003 53.3102 7.15003C53.3102 7.17003 53.3402 7.17003 53.5902 7.01003C53.7902 6.87003 53.9802 6.75003 54.1702 6.66003C54.8602 6.27003 56.0702 5.67003 57.5702 6.07003C58.3302 6.25003 59.2302 6.80003 60.0702 7.71003C60.9002 8.62003 61.6602 9.90003 62.0902 11.39C62.5402 12.87 62.6502 14.54 62.3402 16.12C62.0302 17.7 61.2502 19.17 60.0602 20.34L59.5902 20.77C59.4502 20.91 59.1802 21.08 58.9902 21.24L57.7102 22.19C57.2802 22.5 56.8602 22.84 56.4202 23.13L55.0502 23.97C54.1402 24.53 53.2402 25.1 52.2702 25.55C51.3002 26 50.4002 26.55 49.4002 26.91C43.9502 29.3 39.1502 30.4 35.3602 31.12C31.5302 31.76 28.6702 32.06 26.7002 32.19C22.0502 32.56 17.9402 32.64 14.1302 32.67C10.3202 32.72 6.80023 32.67 3.30023 32.63C-0.539774 32.56 -0.939774 35.44 2.92023 36.22C6.43023 36.9 10.0102 37.45 13.9502 37.74C17.8902 38.05 22.1902 38.16 27.1202 37.8C28.0802 37.74 29.3002 37.67 30.7702 37.59C32.2402 37.54 33.9602 37.37 35.9202 37.16C39.8202 36.68 44.7102 35.85 50.1802 33.73C51.0602 33.37 51.9402 32.99 52.8102 32.6C53.6502 32.15 54.4802 31.67 55.3002 31.19C55.7402 30.92 56.1902 30.67 56.6202 30.39C57.0502 30.09 57.4802 29.79 57.9102 29.49C58.7602 28.86 59.6802 28.33 60.5102 27.63C61.3402 26.95 62.1802 26.27 63.0202 25.59C63.4402 25.26 63.9202 24.75 64.3602 24.33C64.7602 23.84 65.2002 23.4 65.5402 22.87C66.3002 21.87 66.8302 20.73 67.2902 19.6C67.6802 18.45 68.0002 17.28 68.1102 16.13C68.4002 13.82 68.0802 11.61 67.5202 9.66003C66.3602 5.74003 63.8502 2.84003 61.4702 1.47003C60.8902 1.10003 60.3002 0.870029 59.8002 0.650029C59.2802 0.480029 58.8202 0.330029 58.4402 0.250029C58.0602 0.180029 57.7602 0.130029 57.5602 0.100029C57.3602 0.0600293 57.2502 0.0600293 57.2502 0.0600293C57.2502 0.0600293 57.0902 0.0600293 56.7902 0.0400293C56.4902 0.0400293 56.0502 2.92957e-05 55.4902 0.0800293C54.3702 0.160029 52.7702 0.550029 51.1602 1.46003C50.7302 1.66003 50.3802 1.95003 49.9402 2.22003C49.4102 2.55003 48.8302 3.09003 48.2502 3.54003C47.4502 3.90003 47.5902 4.79003 47.4502 5.58003C47.3802 6.20003 47.3102 6.85003 47.2302 7.50003C47.1402 8.03003 47.1902 8.61003 47.1802 9.19003C47.1902 9.77003 47.1602 10.36 47.2202 10.97C47.3902 12.2 47.5202 13.47 48.0002 14.77C48.8102 17.35 50.5802 19.9 52.9202 21.56C55.2402 23.25 57.8702 24.17 60.3402 24.63C62.8202 25.1 65.1902 25.26 67.3302 25.19C68.4102 25.19 69.4202 25.11 70.3702 25.03C71.3302 24.98 72.2102 24.83 73.0202 24.74C77.9202 24.06 81.4002 23.06 84.0402 22.25C86.6702 21.44 88.4402 20.76 89.7902 20.24C93.8502 18.64 97.3202 16.86 100.38 14.92C103.43 12.97 106.09 10.87 108.32 8.36003L108.31 8.33003Z" fill="#101214"/>
</g>
<defs>
<clipPath id="clip0_448_5893">
<rect width="110.5" height="38.01" fill="white"/>
</clipPath>
</defs>
</svg>
