<svg width="222" height="55" viewBox="0 0 222 55" fill="none" xmlns="http://www.w3.org/2000/svg">
<path d="M220.39 39.7829C205.1 43.0529 187.49 40.2428 174.1 31.5928C195.81 -6.7172 134.3 -0.717104 166.91 31.4429C150.97 42.7929 124.06 46.5928 108.13 33.5028C144.42 -8.49717 84.86 -8.22713 101.3 32.6729C99.37 35.2029 79.51 46.0029 69.33 44.6529C71.49 45.1829 75.02 44.0629 77.18 44.9129C72.38 45.6929 67.39 45.7428 62.83 44.8528C63.05 44.1128 65.64 44.8029 66.07 44.6929C62.17 44.3229 50.68 40.7729 46.76 35.9529C52.16 31.3129 66.14 21.1528 59.71 13.1228C55.11 9.46283 49.68 10.2628 45.02 13.4628C45.13 13.2928 46.07 12.2628 46.22 12.1328C38.34 15.7628 36.53 28.2129 41.71 34.9529C29.8 42.9829 15.09 51.8829 2 50.4329C2.02 51.5329 4.72 51.9529 7.38 52.1929L6.37 52.6028C19.1 51.8528 31.28 46.9129 40.3 38.8329C40.33 39.6129 41.8 39.1329 44.04 37.7729C44.86 39.0929 52.75 44.0429 47.24 41.3129C61.37 55.2829 94.49 47.3128 104.59 36.8928C119.29 50.2828 143.16 48.1129 160.23 42.1829H159.77C163.68 40.8129 167.15 38.3028 171.31 34.6128C181.72 41.8628 213.15 51.4528 220.39 39.7628V39.7829ZM44.41 32.9429C37.98 24.2729 48.2 8.72284 58.2 15.7628C58.46 22.8728 49.16 28.5029 44.41 32.9429ZM103.88 30.2128C103.88 30.2128 103.92 30.1628 103.94 30.1428C96.96 22.5728 103.57 1.31282 114.94 6.49282C113.06 4.97282 108.74 7.37291 107.76 8.45291C123.64 0.0429068 108.89 26.2528 103.88 30.2128ZM173.69 21.8628C173.09 24.2528 171.72 26.6729 169.97 28.5829C167.1 26.2829 164.28 23.2728 162.89 19.8928C162.69 20.1628 162.27 19.8328 162.32 19.3828L162.7 19.4029C159.02 12.4529 167.62 4.99281 172.87 11.6028C172.87 11.5628 172.07 11.1429 172.03 11.1629C173.94 14.2729 174.58 18.2928 173.69 21.8628Z" fill="#101214"/>
</svg>
