<svg width="48" height="48" viewBox="0 0 48 48" fill="none" xmlns="http://www.w3.org/2000/svg">
<g clip-path="url(#clip0_448_5546)">
<path d="M42.9202 38.46C43.2702 39.75 46.6102 39.98 46.9702 38.54C47.2002 37.53 47.4502 36.48 47.5002 35.33C47.5202 34.18 47.5502 32.93 47.3402 31.55C46.9802 30 46.6402 29.06 46.2602 28.27C45.8602 27.48 45.5302 26.83 45.3002 25.79C44.7702 24.09 44.1902 21.74 43.4402 19.68C43.1302 18.62 42.7102 17.68 42.3902 16.89C42.0602 16.1 41.8202 15.46 41.6602 15.11C41.5602 14.91 41.4402 14.72 41.2902 14.55C41.0302 14.24 40.5602 13.67 39.9402 12.92C39.3402 12.15 38.4302 11.33 37.5202 10.35C37.0802 9.84999 36.5202 9.39999 35.9802 8.90999C35.4302 8.42999 34.8902 7.90999 34.3102 7.41999C33.7102 6.95999 33.1002 6.47999 32.5002 6.01999C32.2002 5.78999 31.9102 5.53999 31.6002 5.30999C31.2802 5.09999 30.9702 4.88999 30.6602 4.67999C27.1002 2.37999 24.5802 1.53999 23.3102 1.05999C20.2502 -0.0300087 17.7802 -0.160009 15.4302 0.129991C14.1202 0.269991 13.8602 3.16999 14.9202 3.69999C16.8802 4.63999 18.8102 5.36999 21.3702 6.32999C22.3802 6.69999 24.1502 8.18999 26.6102 9.90999C27.0102 10.19 27.4602 10.4 27.9502 10.56C28.9402 10.99 29.9902 11.52 30.9302 12.16C31.3802 12.5 31.8202 12.85 32.2402 13.2C32.6602 13.54 33.0702 13.88 33.3802 14.25C34.0402 14.97 34.6002 15.6 34.9802 16.06C35.3102 16.56 35.5102 16.85 35.5102 16.85C35.5102 16.85 35.8202 17.28 36.3102 17.97C36.8302 18.64 37.3502 19.7 38.0202 20.79C38.3402 21.34 38.5902 21.97 38.8802 22.57C39.1602 23.18 39.4802 23.77 39.6702 24.4C40.1002 25.63 40.5602 26.74 40.7402 27.62C41.5102 30.21 41.5802 31.54 41.7602 32.32C41.9602 33.52 42.0602 34.6 42.3002 35.59C42.5102 36.59 42.6402 37.52 42.9102 38.45L42.9202 38.46Z" fill="#101214"/>
<path d="M22.4503 47.04C22.8003 48.04 26.1403 48.28 26.5003 47.12C26.7303 46.31 26.9703 45.46 27.0403 44.54C27.0803 43.62 27.1203 42.61 26.9603 41.49C26.6603 40.24 26.3403 39.49 26.0003 38.87C25.6503 38.25 25.3503 37.73 25.1703 36.9C24.7503 35.53 24.3203 33.63 23.7603 31.95C23.5303 31.09 23.2203 30.32 22.9803 29.66C22.7303 29 22.5403 28.48 22.4303 28.19C22.3503 28.02 22.2603 27.87 22.1403 27.73C21.9303 27.48 21.5403 27.03 21.0203 26.43C20.5303 25.82 19.7803 25.16 19.0403 24.37C18.2703 23.6 17.3403 22.84 16.4303 22.02C15.4403 21.3 14.5103 20.44 13.4803 19.79C10.6003 17.93 8.56026 17.26 7.54026 16.87C5.08026 16 3.07026 15.96 1.17026 16.32C0.110256 16.5 -0.149744 19.4 0.660256 19.89C2.17026 20.76 3.64026 21.4 5.62026 22.15C6.40026 22.44 7.70026 23.76 9.55026 25.1C9.86026 25.32 10.2103 25.47 10.6003 25.56C11.3903 25.84 12.2303 26.21 12.9703 26.69C13.6703 27.21 14.4003 27.71 14.9003 28.27C15.4203 28.82 15.8503 29.31 16.1403 29.67C16.3903 30.06 16.5403 30.29 16.5403 30.29C16.5403 30.29 16.7803 30.62 17.1603 31.15C17.5703 31.67 17.9603 32.49 18.4803 33.33C19.4003 35.09 20.2603 37.27 20.5903 38.62C21.1903 40.63 21.2403 41.66 21.3803 42.26C21.5403 43.19 21.6303 44.02 21.8503 44.79C22.0403 45.56 22.1803 46.29 22.4503 47.01V47.04Z" fill="#101214"/>
</g>
<defs>
<clipPath id="clip0_448_5546">
<rect width="47.51" height="47.94" fill="white"/>
</clipPath>
</defs>
</svg>
