<svg width="239" height="91" viewBox="0 0 239 91" fill="none" xmlns="http://www.w3.org/2000/svg">
<g clip-path="url(#clip0_448_5527)">
<path d="M5.42976 60.3801C4.63976 57.9301 4.20976 55.5401 3.80976 53.5301C3.43976 51.5001 3.10976 49.7901 2.81976 48.4301C2.22976 45.6901 1.70976 44.3201 1.23976 44.3501C0.789761 44.3801 0.379761 45.8001 0.239761 48.6401C0.159761 50.0601 0.179761 51.8401 0.309761 53.9901C0.489761 56.1401 0.719761 58.6401 1.56976 61.6001C1.64976 61.9201 1.76976 62.2601 1.88976 62.5901L2.06976 63.0901L2.37976 63.7501L2.69976 64.4301C2.81976 64.6501 2.96976 64.8501 3.09976 65.0601C3.35976 65.5001 3.67976 65.8701 4.02976 66.2101C4.73976 66.8501 5.58976 67.3601 6.55976 67.4901C7.52976 67.6001 8.48976 67.3901 9.35976 66.9301C9.80976 66.7401 10.1998 66.3801 10.6198 66.1001C10.9898 65.7701 11.4298 65.3701 11.7298 65.0601C12.3098 64.4301 12.7398 63.8801 13.1498 63.3301C13.9698 62.2201 14.6798 61.0901 15.3398 59.9601C17.9698 55.4101 20.0798 50.7001 22.2198 45.8701C24.2898 41.0501 26.4198 36.1201 28.6098 31.0301C29.7198 28.5101 30.8498 25.9701 32.0898 23.4801C32.7098 22.2401 33.3498 21.0101 34.0298 19.8501L34.2898 19.4201L34.4198 19.2101C34.4798 19.1201 34.5198 19.0601 34.5498 19.0201C34.6198 18.9301 34.6898 18.8401 34.7798 18.7601C34.8598 18.6601 35.0198 18.6701 35.1198 18.7601C35.2198 18.8501 35.2798 18.9701 35.3198 19.0901C35.3398 19.1501 35.3598 19.2101 35.3798 19.2701L35.4998 19.7901C35.6498 20.5301 35.7898 21.3001 35.8998 22.1101C36.3298 25.3401 36.4898 28.8801 36.5998 32.5101C36.7998 39.8101 36.6898 47.6101 36.8998 55.8301C36.9998 58.9001 37.1398 61.8401 37.3898 64.6801C37.6498 67.5201 37.9898 70.2501 38.7098 73.0001C38.8998 73.6901 39.1098 74.3801 39.3898 75.0901L39.6098 75.6201C39.6398 75.7101 39.6898 75.8001 39.7298 75.8901L39.9198 76.2801C40.1798 76.8301 40.5098 77.2401 40.8098 77.7101C42.1098 79.4201 44.1598 80.4401 46.1598 80.0401C47.1398 79.8601 48.0498 79.4301 48.8698 78.8301C49.2698 78.5101 49.6398 78.1701 50.0098 77.8201C50.1698 77.6501 50.3898 77.4001 50.4898 77.2701C50.6098 77.1301 50.7298 76.9901 50.8198 76.8601C51.6498 75.7701 52.2698 74.7101 52.7998 73.6801C54.8798 69.5601 56.0698 65.7901 57.1998 62.2301C58.2898 58.6801 59.1998 55.3501 60.0498 52.1301C61.7298 45.7101 63.1498 39.7601 64.7698 33.4701C65.5798 30.3201 66.4298 27.0901 67.4198 23.6901C68.4198 20.3101 69.5098 16.7001 71.0298 13.0901C71.4598 12.0801 71.9198 11.0601 72.4998 10.0601L72.6298 9.85006L72.7298 9.70006C72.7898 9.60006 72.8698 9.50006 72.9498 9.40006C73.1198 9.21006 73.3298 9.00006 73.6298 8.97006C73.9298 8.91006 74.2098 9.12006 74.3598 9.37006C74.5298 9.65006 74.6098 9.85006 74.7298 10.2501C74.7498 10.3001 74.8098 10.5401 74.8598 10.7301C74.9098 10.9201 74.9698 11.1101 75.0098 11.3201C75.0998 11.7201 75.1898 12.1201 75.2598 12.5401C75.4198 13.3701 75.5398 14.2301 75.6598 15.1101C76.1098 18.6201 76.3098 22.3401 76.4498 26.1401C76.7198 33.7601 76.6798 41.7501 76.7398 49.8801C76.7698 53.9501 76.8098 58.0501 76.9398 62.1801C77.0698 66.3101 77.2598 70.4601 77.7498 74.6601C78.0198 76.7701 78.3198 78.8701 78.9698 81.1001C79.0398 81.3801 79.1398 81.6601 79.2398 81.9501C79.3698 82.3801 79.5598 82.7801 79.7498 83.1801C79.9298 83.5901 80.1298 83.9801 80.3698 84.3301L80.7198 84.8701L81.1298 85.3401C81.3898 85.6701 81.7298 85.8901 82.0398 86.1601C82.3898 86.3601 82.7198 86.6001 83.1098 86.7101C83.8598 86.9901 84.6898 87.1101 85.4898 87.0001C87.0898 86.8201 88.4598 85.7201 89.5398 84.3301C89.8198 83.9901 90.0898 83.6401 90.3198 83.2501C90.5098 82.9401 90.6498 82.7301 90.7898 82.4701C91.0798 81.9701 91.3298 81.4801 91.5698 80.9901C92.5298 79.0301 93.2498 77.1101 93.9298 75.2001C96.5498 67.5701 98.3398 60.1801 100.07 53.2401C101.75 46.3201 103.32 39.8401 104.74 33.9801C106.18 28.1501 107.55 22.9901 108.84 18.7101C110.13 14.4401 111.37 11.0501 112.42 8.89006C112.58 8.55006 112.75 8.24006 112.91 7.91006L113.16 7.46006C113.19 7.40006 113.18 7.43006 113.18 7.42006C113.18 7.42006 113.18 7.40006 113.19 7.44006C113.26 7.66006 113.35 7.98006 113.42 8.28006C113.5 8.59006 113.58 8.91006 113.65 9.26006C113.94 10.6401 114.2 12.2801 114.41 14.1301C114.84 17.8301 115.12 22.3501 115.31 27.5401C115.5 32.7401 115.6 38.6101 115.71 45.1001C115.83 51.5801 115.92 58.6701 116.3 66.3401C116.51 70.1801 116.77 74.1501 117.41 78.3601C117.57 79.4101 117.78 80.4901 118.03 81.5901C118.17 82.1501 118.3 82.7001 118.49 83.2801C118.59 83.6901 118.81 84.1801 118.98 84.6301L119.25 85.3101L119.59 85.9401C120.5 87.6001 121.76 88.9001 123.48 89.2301C124.33 89.4401 125.21 89.3401 126.03 89.1201C126.43 88.9601 126.83 88.8201 127.2 88.5601C127.39 88.4401 127.58 88.3501 127.76 88.2001L128.29 87.7501C128.99 87.1301 129.61 86.3301 130.16 85.4801C130.3 85.2701 130.45 85.0601 130.57 84.8501L130.83 84.3801C130.99 84.1001 131.13 83.8301 131.26 83.5601C131.81 82.4701 132.26 81.3901 132.69 80.3101C133.53 78.1501 134.25 75.9701 134.91 73.7701C136.23 69.3701 137.36 64.8801 138.46 60.3001C140.66 51.1401 142.68 41.6001 145 31.8701C146.17 27.0201 147.4 22.1001 148.89 17.2801C149.64 14.8901 150.47 12.5001 151.46 10.3401L151.69 9.88006L151.75 9.76006C151.79 9.69006 151.84 9.61006 151.9 9.54006C151.95 9.47006 152.02 9.41006 152.1 9.38006C152.14 9.36006 152.19 9.36006 152.23 9.36006C152.26 9.39006 152.28 9.43006 152.3 9.47006C152.36 9.58006 152.42 9.71006 152.48 9.88006L152.52 10.0201C152.61 10.3201 152.7 10.6301 152.79 10.9501C152.97 11.6001 153.13 12.2901 153.3 13.0301C153.95 15.9801 154.49 19.6001 154.92 23.6201C155.79 31.6601 156.26 41.2801 156.7 50.7701C157.11 58.7501 157.41 66.3401 158.21 73.7201C158.32 74.6501 158.43 75.5701 158.57 76.5001L158.69 77.2501L158.86 78.2201C159.01 79.0401 159.18 79.8501 159.39 80.6201C159.81 82.1601 160.38 83.5601 161.14 84.4501C161.9 85.3601 162.7 85.9501 163.98 86.1501C164.61 86.2301 165.18 86.1301 165.68 85.9701C166.18 85.8101 166.65 85.5601 167.12 85.2101C168.05 84.5501 168.92 83.4201 169.68 82.1101C170.06 81.4701 170.42 80.7701 170.75 80.0701L171.22 79.0501L171.49 78.4201C171.84 77.6001 172.15 76.8201 172.45 76.0301C174.81 69.7501 176.52 63.8201 178.13 58.2001C179.73 52.6001 181.06 47.2501 182.41 42.4101C183.78 37.5201 185.11 32.9701 186.46 28.8001C187.81 24.6401 189.15 20.8001 190.62 17.5501C190.75 17.2701 190.88 17.0001 191.01 16.7301L191.1 16.5701C191.16 16.4801 191.21 16.3801 191.29 16.3101C191.36 16.2301 191.49 16.1901 191.56 16.2801C191.63 16.3501 191.67 16.4501 191.7 16.5401C191.73 16.6301 191.76 16.7201 191.78 16.8101C191.82 17.0201 191.87 17.2301 191.91 17.4401C191.97 17.7801 192.04 18.1201 192.1 18.4501C192.34 19.7901 192.51 21.1001 192.67 22.3501C193.27 27.2101 193.64 32.0701 194.02 36.7901C194.4 41.5201 194.75 46.1401 195.19 50.6501C195.63 55.1501 196.14 59.5401 196.92 63.8201C197.12 64.8901 197.33 65.9601 197.58 67.0201C197.7 67.5501 197.83 68.0801 197.98 68.6201L198.2 69.4201L198.51 70.4401C199.08 72.2201 199.82 73.9101 200.73 75.1801C201.18 75.8301 201.68 76.3001 202.18 76.7901C202.68 77.2601 203.2 77.7801 203.77 78.2701C204.79 77.5001 205.59 76.9001 206.46 76.1401C206.89 75.8101 207.29 75.2801 207.7 74.8201C208.1 74.3201 208.47 73.7401 208.85 73.2001L209.89 71.4301L210.52 70.2201C210.88 69.5101 211.21 68.8001 211.54 68.1001C212.83 65.2801 213.95 62.5101 215.02 59.7801C217.14 54.3201 219.06 49.0101 221.02 43.8801C222.99 38.7801 224.94 33.7401 227.37 29.3001C227.68 28.7601 227.99 28.2201 228.32 27.7201C228.64 27.2201 229.03 26.7001 229.22 26.4601C229.41 26.2301 229.54 26.0801 229.75 25.9301C229.94 25.7901 230.19 25.7001 230.43 25.7601C230.67 25.8201 230.86 25.9901 231.01 26.1801C231.09 26.2701 231.15 26.3801 231.22 26.4901L231.45 26.9401C231.91 27.9701 232.26 29.1601 232.59 30.3601C233.73 34.9101 234.31 38.5601 234.92 40.9201C235.5 43.3101 236 44.5001 236.41 44.4601C236.81 44.4301 237.12 43.1701 237.2 40.6801C237.24 39.4401 237.2 37.8801 237.06 36.0201C236.92 34.1601 236.65 31.9901 236.11 29.5001C235.8 28.1701 235.46 26.8301 234.91 25.4701C234.27 23.8801 233.1 21.9901 231.32 21.5001C229.48 21.0101 227.67 22.1701 226.4 23.5901C225.77 24.2901 225.37 24.8301 224.96 25.4201C224.55 26.0101 224.17 26.6001 223.81 27.2001C221 32.0101 218.92 37.0401 216.78 42.1701C214.72 47.2901 212.61 52.5301 210.45 57.9201C209.35 60.5901 208.21 63.2701 206.95 65.9101C206.63 66.5701 206.31 67.2201 205.97 67.8601L205.52 68.6901L205.33 69.0201C205.06 69.4401 204.79 69.8801 204.37 70.1601C203.88 69.7701 203.68 69.0601 203.49 68.4701L203.35 67.9701L203.17 67.2701C203.05 66.8001 202.94 66.3201 202.83 65.8401C202.62 64.8701 202.43 63.8801 202.25 62.8801C201.56 58.8401 201.1 54.5601 200.7 50.1301C200.3 45.7001 199.97 41.1001 199.61 36.3601C199.25 31.6101 198.89 26.7301 198.27 21.6501C198.12 20.4501 197.95 19.1701 197.72 17.7901C197.66 17.4401 197.6 17.0901 197.54 16.7401L197.44 16.2001L197.3 15.5401L197.22 15.1601L197.11 14.7101C197.04 14.4101 196.96 14.1001 196.87 13.8001C196.7 13.2001 196.51 12.6001 196.27 12.0401C195.81 10.9001 195.19 9.96006 194.41 9.29006C194.02 8.96006 193.58 8.68006 193.05 8.50006C192.51 8.33006 191.89 8.30006 191.36 8.42006C190.3 8.65006 189.36 9.24006 188.44 10.2301C187.54 11.2001 186.7 12.6201 186.03 13.9301L185.78 14.4101L185.62 14.7401L185.31 15.4001C185.11 15.8401 184.91 16.2901 184.71 16.7401C184.32 17.6401 183.94 18.5601 183.58 19.5001C182.85 21.3701 182.14 23.3201 181.44 25.3401C180.05 29.3801 178.69 33.7201 177.32 38.3501C176.65 40.6501 175.92 43.0701 175.26 45.5301C174.58 47.9701 173.88 50.4701 173.16 53.0501C171.69 58.1701 170.1 63.5601 168.23 69.0501C167.76 70.4201 167.27 71.8001 166.75 73.1601C166.49 73.8401 166.22 74.5201 165.94 75.1901C165.68 75.8301 165.29 76.7001 165.38 76.4801C165.34 76.5301 165.31 76.5701 165.28 76.5901C165.23 76.6201 165.2 76.5301 165.2 76.4901V76.4301V76.4201L165.17 76.2301L165.02 75.2001C164.81 73.6501 164.64 72.0501 164.5 70.4201C164.21 67.1501 164.01 63.7701 163.83 60.3201C163.35 51.3101 162.96 42.2101 162.2 33.1801C161.8 28.5401 161.35 23.8001 160.63 18.9301C160.27 16.4901 159.85 14.0301 159.25 11.5001C159.1 10.8701 158.94 10.2401 158.76 9.60006L158.48 8.64006L158.31 8.08006C158.22 7.79006 158.13 7.52006 158.03 7.25006C157.65 6.16006 157.21 5.11006 156.7 4.16006C156.18 3.23006 155.61 2.43006 155.05 1.58006L154.05 1.45006C153.71 1.41006 153.22 1.41006 152.84 1.40006H152.54L152.25 1.46006C152.06 1.51006 151.85 1.53006 151.67 1.60006L151.11 1.80006C150.93 1.89006 150.75 1.99006 150.58 2.08006C149.17 2.84006 147.91 4.43006 146.94 6.24006C146.81 6.46006 146.68 6.68006 146.57 6.91006L146.28 7.51006C146.14 7.79006 146.02 8.07006 145.9 8.35006C145.65 8.91006 145.43 9.46006 145.21 10.0201C144.78 11.1301 144.39 12.2301 144.03 13.3401C142.58 17.7501 141.45 22.1601 140.37 26.5501C138.24 35.3301 136.4 44.0601 134.48 52.5101C133.52 56.7301 132.55 60.8901 131.52 64.9301C130.48 68.9601 129.39 72.9101 128.09 76.5801C127.43 78.4001 126.73 80.1901 125.9 81.6901C125.77 81.9201 125.75 81.9701 125.71 82.0201L125.6 82.1901C125.52 82.3001 125.44 82.4101 125.35 82.5001C125.17 82.6801 124.9 82.8501 124.64 82.7301C124.4 82.6101 124.27 82.3601 124.16 82.1301C124.1 82.0101 124.06 81.8901 124.02 81.7701L123.88 81.2801C123.82 81.0901 123.78 80.8801 123.72 80.6801C123.32 79.0601 123.05 77.3301 122.84 75.6201C122.04 68.7501 121.91 62.1801 121.75 56.3801C121.62 50.5601 121.58 45.4501 121.53 41.2201C121.44 32.7601 121.29 27.8301 121.29 27.8301C121.16 23.7001 120.98 19.5501 120.6 15.3701C120.41 13.2801 120.16 11.1701 119.77 9.03006C119.57 7.96006 119.35 6.88006 119.01 5.75006C118.49 4.09006 117.75 2.42006 116.63 1.36006C116.37 1.06006 116.03 0.880059 115.73 0.640059C115.39 0.480059 115.05 0.290059 114.67 0.210059C114.31 0.100059 113.9 0.0600586 113.52 0.0600586C113.13 0.0800586 112.76 0.160059 112.39 0.250059C110.94 0.690059 109.7 1.87006 108.71 3.32006C108.47 3.68006 108.2 4.05006 108 4.42006L107.56 5.21006C107.31 5.71006 107.05 6.22006 106.83 6.72006C106.37 7.73006 105.97 8.73006 105.59 9.73006C104.11 13.7301 102.97 17.7401 101.89 21.7501C99.7698 29.7701 97.9598 37.8001 96.1098 45.8001C94.2498 53.7901 92.4198 61.7901 90.1198 69.5401C89.5398 71.4701 88.9198 73.3801 88.2398 75.2401C87.5598 77.0801 86.7898 78.9101 85.8898 80.3701C85.7298 80.6301 85.5698 80.8401 85.3398 81.0001C85.1098 81.1601 84.7698 81.1101 84.5798 80.9001C84.3798 80.6701 84.2898 80.4901 84.1698 80.1201C83.8898 79.3101 83.6598 78.4101 83.4698 77.4701C82.7298 73.7001 82.4398 69.6301 82.2198 65.6001C82.0098 61.5501 81.9098 57.4601 81.8398 53.3701C81.6998 45.1801 81.7198 36.9601 81.4698 28.6801C81.3398 24.5401 81.1598 20.3901 80.7198 16.1801C80.4898 14.0701 80.1998 11.9501 79.6498 9.74006C79.5698 9.44006 79.5198 9.22006 79.4098 8.87006L79.0098 7.69006L78.4798 6.49006C78.2598 6.14006 78.0498 5.76006 77.8098 5.43006C77.3098 4.79006 76.7498 4.22006 76.0598 3.86006C75.7098 3.69006 75.3498 3.53006 74.9598 3.45006C74.5798 3.31006 74.1698 3.41006 73.7798 3.35006C71.6198 3.45006 69.8398 5.10006 68.5798 7.18006L68.2098 7.80006L67.9298 8.31006C67.7398 8.65006 67.5798 8.99006 67.4098 9.33006C67.0798 10.0101 66.7798 10.6901 66.4998 11.3701C65.3698 14.0801 64.4798 16.7801 63.6298 19.4801C61.8398 25.2801 60.4298 30.7001 59.0898 35.7701C57.7598 40.8401 56.5398 45.5501 55.3398 49.9101C54.1398 54.2701 52.9698 58.3001 51.7498 61.9601C50.5298 65.6001 49.2598 68.9501 47.7798 71.6301C47.4098 72.2801 47.0298 72.9101 46.6298 73.4101C46.5298 73.5401 46.4398 73.6701 46.3398 73.7701C46.2798 73.8401 46.2698 73.8601 46.2198 73.9001C46.1498 73.9801 46.0598 74.0501 45.9798 74.1101C45.8098 74.2301 45.5898 74.2901 45.3898 74.2401C45.1898 74.1901 45.0398 74.0401 44.9298 73.8801C44.8498 73.8801 44.2598 72.4501 44.0198 71.3701C43.7298 70.2201 43.5298 69.0301 43.3698 67.8801C42.7498 63.2401 42.6398 59.1701 42.5298 55.6801C42.3098 47.6101 42.3898 39.8001 42.1498 32.3501C42.0198 28.6101 41.8398 24.9701 41.3198 21.3501C41.1898 20.4401 41.0198 19.5301 40.8198 18.6101L40.6298 17.8301C40.5298 17.4801 40.4198 17.1401 40.3198 16.8001C40.2198 16.4501 40.0898 16.1301 39.9498 15.8101C39.8198 15.4801 39.6798 15.1701 39.5098 14.8901C38.8698 13.7101 38.0398 12.8201 36.9898 12.2901C36.4598 12.0401 35.8598 11.9101 35.2598 11.8901C34.6298 11.9001 34.1498 12.0501 33.6398 12.1901C33.1998 12.5301 32.7698 12.8701 32.3598 13.2301C31.9698 13.6601 31.5498 14.0501 31.1998 14.5601C30.8198 15.0401 30.4798 15.5301 30.1798 16.0301C29.8098 16.5901 29.6698 16.8501 29.4698 17.2001C28.6998 18.5401 28.0298 19.8801 27.3898 21.2001C26.1198 23.8501 24.9998 26.4601 23.9198 29.0301C21.8198 34.1601 19.7798 39.1401 17.7998 43.9901C15.7898 48.8001 13.8098 53.4901 11.4798 57.7601C10.8998 58.8201 10.2798 59.8501 9.62976 60.7901C9.29976 61.2601 8.95976 61.7101 8.66976 62.0401C8.43976 62.3101 8.26976 62.4801 8.01976 62.6601C7.78976 62.8301 7.50976 62.9701 7.20976 62.9501C6.90976 62.9301 6.65976 62.7501 6.45976 62.5401C6.25976 62.3201 6.10976 62.0701 5.97976 61.7901C5.93976 61.7101 5.90976 61.6701 5.86976 61.5701L5.71976 61.1901C5.61976 60.9401 5.51976 60.6901 5.43976 60.4101L5.42976 60.3801Z" fill="#101214"/>
</g>
<defs>
<clipPath id="clip0_448_5527">
<rect width="238.16" height="89.34" fill="white"/>
</clipPath>
</defs>
</svg>
