<svg width="225" height="37" viewBox="0 0 225 37" fill="none" xmlns="http://www.w3.org/2000/svg">
<g clip-path="url(#clip0_448_5521)">
<path d="M6.0598 10.28C5.8598 8.67003 5.5298 7.22003 4.9998 5.99003C4.4698 4.77003 3.7298 3.74003 2.8298 3.20003C1.9098 2.67003 1.1398 2.66003 0.679799 2.82003C0.199799 2.98003 -0.000201007 3.19003 -0.000201007 3.42003C-0.050201 3.90003 0.749799 4.30003 1.0898 5.12003C1.4598 5.89003 1.8598 7.75003 2.0198 10.67C2.2698 14.81 1.9398 19.25 2.0598 23.99C2.1798 26.39 2.2098 28.83 3.2698 31.76C3.5798 32.5 3.9598 33.28 4.6298 34.06C4.9698 34.45 5.3298 34.82 5.8298 35.13C6.2898 35.48 6.8198 35.69 7.3798 35.88C9.5898 36.55 11.6298 35.9 13.0898 35.08C14.5598 34.24 15.6298 33.22 16.6198 32.19C17.6098 31.15 18.4398 30.07 19.2498 28.98C20.8398 26.78 22.2498 24.51 23.6398 22.19C25.0298 19.87 26.3898 17.5 27.8298 15.17C29.2698 12.85 30.7898 10.48 32.4998 8.56003C33.4398 7.47003 34.4398 6.66003 35.1198 6.35003C35.2698 6.31003 35.4198 6.23003 35.5298 6.22003C35.5998 6.22003 35.5798 6.21003 35.5998 6.20003C35.6198 6.20003 35.6498 6.20003 35.6698 6.20003C35.7698 6.20003 35.8698 6.24003 35.9398 6.31003C35.9898 6.34003 35.9798 6.37003 36.0798 6.50003C36.1698 6.60003 36.2398 6.84003 36.3398 6.99003C36.4198 7.21003 36.4998 7.43003 36.5798 7.64003C36.6498 7.89003 36.7098 8.14003 36.7798 8.38003C37.0198 9.41003 37.1698 10.53 37.2798 11.61C37.6698 16.04 37.6398 20.03 37.9398 23.8C38.0898 25.7 38.2898 27.56 38.7998 29.54C39.0398 30.52 39.4198 31.56 40.0198 32.63C40.5998 33.68 41.7698 34.92 43.3398 35.39C44.8698 35.86 46.3698 35.65 47.6198 35.16C48.8298 34.64 49.8398 33.93 50.7098 33.16C52.4398 31.6 53.7798 29.8 55.1498 27.85C57.3998 24.53 59.4498 20.84 61.6598 17.08C62.7698 15.2 63.9098 13.31 65.1398 11.49C66.3698 9.71003 67.7298 7.91003 69.1798 6.71003C69.8898 6.11003 70.6298 5.72003 71.1298 5.66003C71.4798 5.59003 71.8298 5.73003 72.0298 6.00003C72.0798 6.05003 72.1298 6.19003 72.2298 6.31003C72.3098 6.46003 72.3798 6.66003 72.4698 6.83003C72.6198 7.23003 72.7598 7.67003 72.8598 8.17003C73.0698 9.15003 73.2198 10.23 73.3098 11.35C73.6598 15.86 73.3998 20.62 73.7598 25.46C73.8598 26.68 74.0098 27.92 74.2598 29.21C74.5598 30.5 74.9098 31.86 75.8398 33.32C75.9598 33.5 76.0698 33.68 76.2098 33.86L76.6998 34.4C77.0098 34.76 77.4398 35.07 77.8898 35.36C78.3098 35.67 78.8398 35.83 79.3398 36.01C79.8498 36.19 80.3198 36.2 80.8198 36.26C82.7598 36.34 84.3598 35.63 85.5498 34.88C86.7798 34.11 87.6698 33.25 88.4898 32.4C89.2898 31.55 89.9998 30.69 90.6298 29.84C91.8998 28.15 92.9598 26.51 93.9298 24.96C95.8598 21.85 97.4198 19.09 98.7898 16.83C100.15 14.57 101.28 12.82 102.13 11.63C103.12 10.23 104.15 8.90003 105.17 7.90003C105.4 7.64003 105.64 7.49003 105.9 7.24003C106.15 7.08003 106.42 6.87003 106.63 6.78003C107.17 6.55003 107 6.64003 107.07 6.61003C107.08 6.62003 107.07 6.59003 107.1 6.64003C107.15 6.74003 107.23 6.79003 107.33 7.03003C107.53 7.39003 107.72 8.03003 107.89 8.70003C108.21 10.11 108.41 11.87 108.54 13.81C108.67 15.75 108.74 17.87 108.83 20.17C108.94 22.47 109.03 24.91 109.47 27.63C109.71 29 109.99 30.44 110.72 32.08C110.93 32.5 111.09 32.9 111.41 33.35L111.86 34C112.03 34.22 112.25 34.44 112.46 34.65C112.84 35.08 113.43 35.46 113.98 35.79C114.56 36.07 115.24 36.34 115.86 36.43C118.42 36.84 120.59 35.82 122.04 34.76C123.53 33.67 124.6 32.45 125.59 31.23C127.54 28.77 129.04 26.19 130.54 23.59C131.97 21.02 133.44 18.41 134.92 15.75C136.4 13.18 137.96 10.59 139.71 8.54003C140.57 7.53003 141.54 6.69003 142.23 6.39003C142.32 6.32003 142.38 6.35003 142.46 6.31003C142.52 6.30003 142.62 6.24003 142.64 6.25003C142.71 6.24003 142.78 6.23003 142.83 6.25003C142.86 6.25003 142.88 6.27003 142.9 6.28003C142.92 6.30003 142.96 6.28003 142.98 6.29003C143.03 6.32003 143.07 6.35003 143.1 6.39003C143.2 6.57003 143.48 6.93003 143.65 7.50003C143.85 8.02003 144 8.68003 144.14 9.35003C144.4 10.71 144.55 12.22 144.65 13.75C144.86 16.83 144.9 20.05 145.13 23.37C145.25 25.04 145.41 26.73 145.76 28.52C145.85 28.97 145.94 29.41 146.08 29.89L146.27 30.59L146.53 31.32C146.68 31.79 146.96 32.32 147.21 32.82C147.35 33.07 147.54 33.35 147.71 33.6L147.98 33.99L148.34 34.38C148.6 34.63 148.81 34.89 149.13 35.11C149.44 35.34 149.77 35.55 150.1 35.74C150.81 36.06 151.59 36.34 152.31 36.38C153.07 36.5 153.72 36.38 154.41 36.3C154.73 36.23 155.04 36.13 155.35 36.04C155.67 35.95 155.96 35.84 156.21 35.71C158.38 34.67 159.71 33.26 160.89 31.92C162.53 29.99 163.73 28.07 164.87 26.19C166 24.32 167.01 22.49 167.98 20.72C169.92 17.2 171.69 13.89 173.58 11.09C174.51 9.70003 175.49 8.44003 176.45 7.52003C177.39 6.55003 178.37 6.25003 178.5 6.27003C178.55 6.26003 178.59 6.30003 178.63 6.31003C178.68 6.31003 178.72 6.35003 178.75 6.37003C178.77 6.39003 178.78 6.39003 178.8 6.43003C178.84 6.50003 178.88 6.57003 178.93 6.63003C179.03 6.76003 179.12 7.01003 179.23 7.20003C179.62 8.15003 179.89 9.43003 180.07 10.69C180.42 13.26 180.53 15.87 180.66 18.32C180.78 20.78 180.9 23.12 181.15 25.35C181.42 27.59 181.75 29.72 182.68 31.9C183.17 32.98 183.9 34.15 185.07 35.09C185.38 35.31 185.71 35.52 186.03 35.71C186.37 35.88 186.73 36 187.09 36.13C187.45 36.27 187.79 36.31 188.13 36.35C188.47 36.38 188.82 36.43 189.13 36.42C190.64 36.38 191.93 35.86 192.99 35.28C193.99 34.66 194.84 33.98 195.53 33.28C196.93 31.88 197.97 30.44 198.93 29.03C200.81 26.2 202.28 23.42 203.71 20.76C205.13 18.1 206.46 15.54 207.84 13.16C209.21 10.82 210.68 8.56003 212.22 7.09003C212.97 6.36003 213.75 5.97003 214.11 5.94003C214.3 5.85003 214.41 5.95003 214.57 5.97003C214.64 6.01003 214.71 6.04003 214.76 6.10003C214.79 6.13003 214.82 6.14003 214.86 6.20003C214.91 6.27003 214.95 6.34003 215 6.40003C215.42 6.97003 215.8 8.04003 216.06 9.13003C216.32 10.24 216.53 11.42 216.68 12.64C216.99 15.07 217.17 17.57 217.39 20.08C217.62 22.6 217.86 25.14 218.43 27.75C218.75 29.19 219.21 30.47 219.84 31.55C220.44 32.63 221.35 33.5 222.23 33.9C222.46 34 222.67 34.08 222.86 34.15C223.07 34.19 223.27 34.22 223.45 34.23C223.63 34.24 223.79 34.25 223.93 34.25C224.08 34.22 224.2 34.19 224.32 34.15C224.77 34.01 224.95 33.82 224.95 33.61C224.97 33.16 224.18 32.85 223.54 32.02C222.89 31.24 222.37 29.59 221.97 27.05C221.29 22.39 221.51 17.39 221.1 12.17C221 10.86 220.84 9.51003 220.58 8.13003C220.29 6.74003 219.95 5.29003 219 3.76003L218.61 3.19003C218.47 3.00003 218.26 2.80003 218.09 2.61003C217.74 2.21003 217.28 1.93003 216.83 1.64003C215.89 1.15003 214.77 0.900029 213.72 1.01003C211.58 1.19003 210.04 2.27003 208.83 3.31003C206.44 5.47003 204.85 7.94003 203.29 10.43C201.75 12.94 200.34 15.53 198.9 18.15C197.45 20.76 195.98 23.43 194.31 25.91C193.47 27.14 192.57 28.33 191.6 29.28C191.12 29.77 190.63 30.13 190.17 30.43C189.72 30.66 189.32 30.8 189.02 30.81C188.79 30.77 188.67 30.81 188.55 30.67C188.42 30.57 188.17 30.32 187.94 29.79C187.45 28.8 187.13 27.13 186.93 25.29C186.73 23.43 186.65 21.31 186.58 18.99C186.51 16.66 186.47 14.14 186.23 11.33C186.1 9.92003 185.93 8.44003 185.53 6.82003C185.32 6.00003 185.08 5.16003 184.63 4.23003C184.24 3.35003 183.53 2.26003 182.39 1.35003C181.29 0.460029 179.84 0.0500293 178.41 0.0300293C177.71 0.0600293 176.97 0.130029 176.39 0.340029C175.74 0.500029 175.22 0.770029 174.69 1.03003C174.16 1.30003 173.75 1.61003 173.28 1.92003C172.89 2.24003 172.47 2.57003 172.11 2.90003C171.39 3.58003 170.74 4.28003 170.15 4.99003C167.8 7.85003 166.04 10.92 164.22 14.07C162.43 17.21 160.68 20.48 158.74 23.59C157.48 25.6 156.13 27.53 154.77 28.84C154.11 29.48 153.46 29.84 153.18 29.92C153.11 29.92 153.06 29.93 153.01 29.96C153.01 29.95 153 29.95 152.99 29.96L152.96 30.07C152.93 30.17 152.96 30.11 152.95 30.14C152.95 30.16 152.95 30.2 152.92 30.24C152.9 30.29 152.92 30.24 152.95 30.18C152.97 30.14 153 30.1 153.02 30.06C153.09 29.95 153.04 30.08 153.04 30.02C153.03 30 153.01 29.98 152.99 29.97C152.74 29.83 152.28 28.83 152.02 27.77C151.73 26.69 151.54 25.42 151.39 24.13C151.09 21.53 150.98 18.74 150.79 15.88C150.59 13.01 150.43 10.08 149.61 6.86003C149.38 6.05003 149.13 5.22003 148.68 4.34003C148.3 3.49003 147.6 2.49003 146.59 1.66003C145.58 0.880029 144.33 0.450029 143.06 0.410029C142.45 0.410029 141.79 0.470029 141.24 0.610029C140.72 0.770029 140.15 0.920029 139.72 1.16003C137.87 2.07003 136.67 3.30003 135.6 4.48003C134.54 5.68003 133.67 6.90003 132.87 8.12003C131.25 10.56 129.91 13 128.59 15.37C125.98 20.07 123.59 24.68 120.82 28.08C120.13 28.9 119.41 29.62 118.73 30.12C118.04 30.63 117.44 30.84 117.05 30.83C116.97 30.8 116.88 30.81 116.81 30.8C116.77 30.75 116.71 30.78 116.67 30.74C116.59 30.68 116.45 30.59 116.3 30.37C115.99 29.95 115.68 29.19 115.48 28.37C115.05 26.73 114.9 24.89 114.78 23.21C114.67 21.51 114.62 19.9 114.58 18.43C114.5 15.48 114.4 13.06 114.24 11.37C114.09 9.68003 113.92 8.72003 113.92 8.72003C113.92 8.72003 113.86 8.37003 113.72 7.68003C113.57 6.99003 113.36 5.97003 112.72 4.55003C112.56 4.20003 112.38 3.82003 112.07 3.39003C111.92 3.18003 111.81 2.98003 111.61 2.76003C111.41 2.54003 111.2 2.33003 110.98 2.11003C110.07 1.30003 108.8 0.670029 107.35 0.640029C105.88 0.600029 104.52 1.04003 103.41 1.67003C102.33 2.32003 101.36 3.11003 100.54 3.97003C97.2398 7.44003 94.8198 11.9 92.0698 16.7C90.7098 19.1 89.3098 21.59 87.7698 24.02C86.9998 25.24 86.1798 26.42 85.3098 27.52C84.4398 28.61 83.4798 29.62 82.5598 30.22C82.0998 30.55 81.6798 30.68 81.3498 30.76C80.9898 30.83 80.8298 30.74 80.7198 30.7C80.6098 30.69 80.3798 30.4 80.1498 29.96L79.9798 29.61L79.8298 29.18C79.7198 28.91 79.6498 28.56 79.5598 28.24C78.9398 25.51 78.8798 22.21 78.7898 18.95C78.6898 15.65 78.6998 12.3 78.1698 8.75003C78.0998 8.30003 77.9998 7.85003 77.9198 7.40003C77.7998 6.93003 77.6998 6.48003 77.5498 6.00003C77.3798 5.51003 77.2498 5.05003 76.9898 4.54003C76.7798 4.04003 76.4798 3.56003 76.0898 3.00003C75.2398 1.90003 74.0298 1.06003 72.6698 0.770029C71.9898 0.660029 71.2898 0.580029 70.5798 0.690029C69.9098 0.730029 69.3698 0.960029 68.7798 1.14003C66.6498 2.06003 65.3098 3.42003 64.1198 4.70003C62.9498 6.01003 61.9798 7.34003 61.0898 8.66003C59.3198 11.3 57.8298 13.9 56.4198 16.35C55.0098 18.81 53.6798 21.12 52.3698 23.21C51.0598 25.3 49.7498 27.16 48.4498 28.58C47.4898 29.63 46.4298 30.48 45.6898 30.68C45.3098 30.85 45.0398 30.76 44.8798 30.77C44.7698 30.75 44.6898 30.67 44.4898 30.46C44.0898 29.92 43.7098 28.78 43.5198 27.63C43.3098 26.46 43.1798 25.25 43.1198 24.04C42.8498 19.19 43.0198 14.81 42.6598 10.87C42.4698 8.89003 42.2198 7.00003 41.5098 5.09003C41.2798 4.59003 41.1198 4.13003 40.7898 3.64003C40.6398 3.41003 40.4698 3.13003 40.2798 2.88003C40.0698 2.64003 39.8398 2.41003 39.6198 2.18003C38.6898 1.33003 37.5398 0.770029 36.3598 0.710029C36.0598 0.690029 35.7898 0.630029 35.4898 0.660029C35.1898 0.680029 34.8898 0.720029 34.6398 0.750029C34.1198 0.810029 33.6898 0.990029 33.2298 1.13003C32.7998 1.29003 32.4398 1.49003 32.0598 1.68003C31.6998 1.88003 31.4098 2.10003 31.0898 2.30003C29.9298 3.16003 29.0398 4.02003 28.3298 4.84003C26.1498 7.32003 24.5798 9.85003 23.0798 12.3C21.5898 14.75 20.2498 17.15 18.9198 19.44C17.5898 21.73 16.2798 23.92 14.8998 25.91C13.5398 27.87 11.9998 29.71 10.5198 30.63C9.8098 31.08 9.1598 31.15 8.8498 31.06C8.7898 31.03 8.6998 31.04 8.6498 30.97C8.5798 30.96 8.4998 30.87 8.4198 30.78C8.2398 30.61 8.0498 30.28 7.8798 29.9C7.1898 28.27 6.9398 25.98 6.7798 23.81C6.4798 19.37 6.5998 14.89 6.0698 10.33L6.0598 10.28Z" fill="#101214"/>
</g>
<defs>
<clipPath id="clip0_448_5521">
<rect width="224.97" height="36.5" fill="white"/>
</clipPath>
</defs>
</svg>
