<svg width="49" height="52" viewBox="0 0 49 52" fill="none" xmlns="http://www.w3.org/2000/svg">
<g clip-path="url(#clip0_448_5377)">
<path d="M14.3196 47.34C14.3196 47.34 14.2896 47.44 14.2896 47.49L15.9696 48.65C15.9696 48.65 16.0196 48.63 16.1996 48.62H16.3696L16.6096 48.6C16.5796 48.6 16.5496 48.6 16.5196 48.58C16.3896 48.53 16.2396 48.39 16.0696 48.32C15.7296 48.17 15.2996 48.14 14.8996 48.16C14.4996 48.19 14.1096 48.26 13.7596 48.34C13.5896 48.39 13.4296 48.37 13.2996 48.52C13.1696 48.66 13.0496 49.01 13.1096 49.48L13.3096 51.12L16.4196 50.69C16.5096 50.68 16.6196 50.64 16.7196 50.58C17.9996 49.93 18.8596 49.02 19.5896 48.07C20.3096 47.1 20.8696 46.04 21.3596 44.86C21.8296 43.49 21.9096 42.63 21.9896 41.89C22.0696 41.16 22.1396 40.52 22.4996 39.83C23.7796 37.02 26.8196 32.66 27.5496 31.61C27.6596 31.45 27.7396 31.29 27.8096 31.11C28.2596 29.87 30.2196 24.26 32.5696 19.88C34.0696 16.71 34.9896 14.74 35.4796 13.72C35.7596 13.11 36.0097 12.53 36.2197 11.98C36.4097 11.47 36.5896 10.98 36.7696 10.51C37.1496 9.48997 37.4896 8.49997 37.7096 7.20997C37.8596 6.48997 37.1296 5.57997 36.2996 5.62997C35.4596 5.68997 34.6996 5.49997 34.3896 5.79997C33.7896 6.38997 33.0696 7.10997 32.3696 7.98997C32.1896 8.20997 32.0096 8.44997 31.8296 8.71997C31.6296 9.01997 31.4896 9.26997 31.3396 9.52997C31.0396 10.06 30.7396 10.63 30.4396 11.24C29.9796 12.2 28.3096 13.85 26.8296 16.64C26.5896 17.09 26.4196 17.58 26.3196 18.09C25.8596 20.3 25.0396 22.61 24.2796 24.4C23.5296 26.19 22.8696 27.43 22.8696 27.43C22.8696 27.43 19.3596 35.07 17.8696 38.29C17.2996 39.66 16.9996 40.56 16.7296 41.26C16.4696 41.93 16.2896 42.4 16.1496 42.75C15.3296 44.82 14.7996 46.34 14.3196 47.32V47.34Z" fill="#101214"/>
<path d="M22.6297 0.93994C21.9797 -0.34006 18.7497 0.55994 18.6697 1.79994C18.5497 3.59994 18.5397 5.44994 18.8797 7.95994C19.4597 10.7999 20.2997 11.4399 20.6297 13.3699C21.3197 16.6299 21.8897 22.1699 21.9897 23.4799C22.0097 23.6699 22.0497 23.8599 22.1097 24.0399C22.3497 24.6899 22.9697 26.4399 23.5897 28.6399C23.8897 29.7399 24.1897 30.9599 24.4097 32.1999C24.6397 33.4599 24.8597 34.8999 25.0297 36.1899C25.6897 39.8599 26.0397 42.0499 26.1897 43.1999C26.5697 45.9099 27.0497 47.8399 27.6897 49.8099C28.0297 50.8799 30.9397 51.0199 31.2997 49.8099C31.9397 47.6399 32.1197 45.3499 31.7597 42.4499C31.6197 41.3299 32.0497 38.8499 31.6097 35.6199C31.5397 35.0899 31.3997 34.5899 31.1797 34.0999C30.2797 32.0599 29.6497 29.3299 29.1097 27.3299C28.5897 25.2999 28.2897 23.8499 28.2897 23.8499C28.2897 23.8499 27.7297 21.7199 27.0597 19.1399C26.3797 16.5799 25.6397 13.6199 25.2897 11.8699C24.7397 9.23994 24.5797 7.96994 24.4497 7.14994C24.0797 4.70994 23.5397 2.72994 22.6397 0.93994H22.6297Z" fill="#101214"/>
<path d="M11.4398 11.1C10.6098 10.96 9.98977 11.8 9.80977 12.69C9.61977 13.6 9.60977 14.53 9.92977 14.85C10.4798 15.37 11.0398 15.91 11.6498 16.48C12.3398 17.1 13.1098 17.8 14.2798 18.59C16.6298 19.96 17.5598 19.78 19.0098 20.93C20.2698 21.84 21.7798 23.3 23.0398 24.67C24.2998 26.04 25.3198 27.32 25.6998 27.83C25.8098 27.98 25.9498 28.11 26.0998 28.22C26.6298 28.62 28.0498 29.69 29.7398 31.2C31.4298 32.7 33.3698 34.64 34.9998 36.6C37.4298 39.25 38.9098 40.94 39.6898 41.82C41.5398 43.89 43.1598 45.2399 44.9898 46.3699C45.9998 46.9899 48.1798 45.06 47.7098 43.99C46.8398 42.04 45.7398 40.24 43.9198 38.12C43.1998 37.3 42.3198 35.06 40.2398 32.58C39.8998 32.17 39.4998 31.82 39.0598 31.53C37.1298 30.24 35.1898 28.51 33.6898 27.12C32.1998 25.73 31.1598 24.67 31.1598 24.67C31.1598 24.67 29.5498 23.16 27.5098 21.44C25.4698 19.71 22.9798 17.8 21.4698 16.72C19.1898 15.1 18.0398 14.36 17.3698 13.92C15.5598 12.72 13.6798 11.48 11.4398 11.11V11.1Z" fill="#101214"/>
<path d="M0.809824 29.3299C-0.280176 30.1099 1.01982 33.1999 2.26982 33.1099C4.04982 32.9499 5.81982 32.6299 8.05982 31.9899C10.5398 31.0999 11.0398 30.2999 12.8098 29.9199C15.7898 29.1899 21.1198 29.0399 22.4098 29.0099C22.5998 29.0099 22.7898 28.9699 22.9698 28.9199C24.2598 28.4999 29.9798 26.8899 35.0898 25.6999C38.6598 24.7099 40.8398 23.8899 41.9798 23.4599C44.6598 22.4399 46.4998 21.1999 48.0698 19.6799C48.9398 18.8499 47.5098 16.3099 46.3998 16.4799C44.3698 16.7999 42.4798 17.3199 39.9998 18.2099C39.0398 18.5699 36.7798 18.5499 33.8498 19.2199C33.3698 19.3299 32.9198 19.5199 32.4698 19.7699C28.6498 21.9199 23.0198 22.7499 23.0198 22.7499C23.0198 22.7499 20.9498 23.1799 18.4398 23.6999C15.9198 24.2199 12.9498 24.8799 11.1798 25.3199C8.51982 25.9899 7.23982 26.3799 6.45982 26.6099C4.08982 27.3299 2.32982 28.2199 0.799824 29.3499L0.809824 29.3299Z" fill="#101214"/>
</g>
<defs>
<clipPath id="clip0_448_5377">
<rect width="48.57" height="51.26" fill="white"/>
</clipPath>
</defs>
</svg>
