<svg width="126" height="139" viewBox="0 0 126 139" fill="none" xmlns="http://www.w3.org/2000/svg">
<g clip-path="url(#clip0_448_6027)">
<path d="M81.5806 66.65C80.4406 67 80.4406 70.35 81.5806 70.7C83.2006 71.2 84.8906 71.46 87.0806 71.48C89.5506 71.32 90.1706 70.63 91.8406 70.71C94.6706 70.71 99.4506 71.64 100.601 71.87C100.771 71.9 100.941 71.91 101.111 71.9C102.331 71.77 107.681 71.27 112.281 71.51C115.531 71.51 117.551 71.49 118.601 71.49C121.081 71.46 122.941 71.12 124.761 70.49C125.761 70.14 125.761 67.23 124.761 66.88C122.941 66.24 121.081 65.9 118.601 65.88C117.641 65.88 115.621 65.08 112.791 64.94C112.331 64.92 111.871 64.97 111.411 65.1C107.451 66.19 102.311 65.88 102.311 65.88C102.311 65.88 94.6406 65.87 91.4106 65.86C88.9706 65.86 87.8006 65.87 87.0806 65.88C84.9006 65.9 83.2006 66.17 81.5806 66.67V66.65Z" fill="#101214"/>
<path d="M104.88 46.88C104.53 45.74 101.18 45.74 100.83 46.88C100.33 48.5 100.07 50.19 100.05 52.38C100.21 54.85 100.9 55.47 100.82 57.14C100.82 59.97 99.8897 64.75 99.6597 65.9C99.6297 66.07 99.6197 66.24 99.6297 66.41C99.7597 67.63 100.26 72.98 100.02 77.58C100.02 80.83 100.04 82.85 100.04 83.9C100.07 86.38 100.41 88.24 101.04 90.06C101.39 91.06 104.3 91.06 104.65 90.06C105.29 88.24 105.63 86.38 105.65 83.9C105.65 82.94 106.45 80.92 106.59 78.09C106.61 77.63 106.56 77.17 106.43 76.71C105.34 72.75 105.65 67.61 105.65 67.61C105.65 67.61 105.66 59.94 105.67 56.71C105.67 54.27 105.66 53.1 105.65 52.38C105.63 50.2 105.36 48.5 104.86 46.88H104.88Z" fill="#101214"/>
<path d="M19.5005 20.63C18.3605 20.98 18.3605 24.33 19.5005 24.68C21.1205 25.18 22.8105 25.44 25.0005 25.46C27.4705 25.3 28.0905 24.61 29.7605 24.69C32.5905 24.69 37.3705 25.62 38.5205 25.85C38.6905 25.88 38.8605 25.89 39.0305 25.88C40.2505 25.75 45.6005 25.25 50.2005 25.49C53.4505 25.49 55.4705 25.47 56.5205 25.47C59.0005 25.44 60.8605 25.1 62.6805 24.47C63.6805 24.12 63.6805 21.21 62.6805 20.86C60.8605 20.22 59.0005 19.88 56.5205 19.86C55.5605 19.86 53.5405 19.06 50.7105 18.92C50.2505 18.9 49.7905 18.95 49.3305 19.08C45.3705 20.17 40.2305 19.86 40.2305 19.86C40.2305 19.86 32.5605 19.85 29.3305 19.84C26.8905 19.84 25.7205 19.85 25.0005 19.86C22.8205 19.88 21.1205 20.15 19.5005 20.65V20.63Z" fill="#101214"/>
<path d="M42.7899 0.849995C42.4399 -0.290005 39.0899 -0.290005 38.7399 0.849995C38.2399 2.47 37.9799 4.16 37.9599 6.35C38.1199 8.82 38.8099 9.43999 38.7299 11.11C38.7299 13.94 37.7999 18.72 37.5699 19.87C37.5399 20.04 37.5299 20.21 37.5399 20.38C37.6699 21.6 38.1699 26.95 37.9299 31.55C37.9299 34.8 37.9499 36.82 37.9499 37.87C37.9799 40.35 38.3199 42.21 38.9499 44.03C39.2999 45.03 42.2099 45.03 42.5599 44.03C43.1999 42.21 43.5399 40.35 43.5599 37.87C43.5599 36.91 44.3599 34.89 44.4999 32.06C44.5199 31.6 44.4699 31.14 44.3399 30.68C43.2499 26.72 43.5599 21.58 43.5599 21.58C43.5599 21.58 43.5699 13.91 43.5799 10.68C43.5799 8.24 43.5699 7.07 43.5599 6.35C43.5399 4.17 43.2699 2.47 42.7699 0.849995H42.7899Z" fill="#101214"/>
<path d="M0.850117 114.04C-0.289883 114.39 -0.289883 117.74 0.850117 118.09C2.47012 118.59 4.16012 118.85 6.35012 118.87C8.82012 118.71 9.44012 118.02 11.1101 118.1C13.9401 118.1 18.7201 119.03 19.8701 119.26C20.0401 119.29 20.2101 119.3 20.3801 119.29C21.6001 119.16 26.9501 118.66 31.5501 118.9C34.8001 118.9 36.8201 118.88 37.8701 118.88C40.3501 118.85 42.2101 118.51 44.0301 117.88C45.0301 117.53 45.0301 114.62 44.0301 114.27C42.2101 113.63 40.3501 113.29 37.8701 113.27C36.9101 113.27 34.8901 112.47 32.0601 112.33C31.6001 112.31 31.1401 112.36 30.6801 112.49C26.7201 113.58 21.5801 113.27 21.5801 113.27C21.5801 113.27 13.9101 113.26 10.6801 113.25C8.24012 113.25 7.07012 113.26 6.35012 113.27C4.17012 113.29 2.47012 113.56 0.850117 114.06V114.04Z" fill="#101214"/>
<path d="M24.1502 94.26C23.8002 93.12 20.4502 93.12 20.1002 94.26C19.6002 95.88 19.3402 97.57 19.3202 99.76C19.4802 102.23 20.1702 102.85 20.0902 104.52C20.0902 107.35 19.1602 112.13 18.9302 113.28C18.9002 113.45 18.8902 113.62 18.9002 113.79C19.0302 115.01 19.5302 120.36 19.2902 124.96C19.2902 128.21 19.3102 130.23 19.3102 131.28C19.3402 133.76 19.6802 135.62 20.3102 137.44C20.6602 138.44 23.5702 138.44 23.9202 137.44C24.5602 135.62 24.9002 133.76 24.9202 131.28C24.9202 130.32 25.7202 128.3 25.8602 125.47C25.8802 125.01 25.8302 124.55 25.7002 124.09C24.6102 120.13 24.9202 114.99 24.9202 114.99C24.9202 114.99 24.9302 107.32 24.9402 104.09C24.9402 101.65 24.9302 100.48 24.9202 99.76C24.9002 97.58 24.6302 95.88 24.1302 94.26H24.1502Z" fill="#101214"/>
</g>
<defs>
<clipPath id="clip0_448_6027">
<rect width="125.51" height="138.19" fill="white"/>
</clipPath>
</defs>
</svg>
