<svg width="200" height="138" viewBox="0 0 200 138" fill="none" xmlns="http://www.w3.org/2000/svg">
<g clip-path="url(#clip0_448_5402)">
<path d="M101.75 27.8181C101.326 26.7273 97.9527 26.9394 97.6699 28.0807C97.2659 29.6967 97.1043 31.3834 97.2154 33.5246C97.5285 35.9385 98.2658 36.5041 98.2961 38.1504C98.4779 40.9279 97.8315 45.6749 97.6699 46.8162C97.6497 46.9879 97.6497 47.1495 97.6699 47.3212C97.8719 48.513 98.7203 53.7245 98.7607 58.2493C98.9728 61.4409 99.104 63.4104 99.1747 64.4406C99.3565 66.8747 99.8111 68.6725 100.569 70.4198C100.983 71.3793 103.922 71.1975 104.205 70.1875C104.73 68.3594 104.962 66.5212 104.831 64.077C104.77 63.1276 105.457 61.1076 105.417 58.32C105.417 57.8655 105.326 57.411 105.174 56.9767C103.831 53.169 103.821 48.109 103.821 48.109C103.821 48.109 103.356 40.5845 103.164 37.4131C103.003 35.0194 102.922 33.8781 102.881 33.1711C102.72 31.0299 102.346 29.3836 101.75 27.8282V27.8181Z" fill="#101214"/>
<path d="M82.2977 46.6142C81.2776 47.0586 81.5705 50.4219 82.6411 50.6845C84.1662 51.0582 85.7519 51.1895 87.7517 51.0481C90.0141 50.6946 90.5191 49.9472 92.0644 49.8967C94.6702 49.6745 99.1344 50.2401 100.215 50.3815C100.377 50.4017 100.528 50.4017 100.69 50.3714C101.801 50.1492 106.669 49.22 110.921 49.1089C113.911 48.8463 115.759 48.6847 116.718 48.5938C119.001 48.3716 120.678 47.8868 122.294 47.1091C123.182 46.6748 122.93 43.7458 121.981 43.4731C120.253 42.9782 118.516 42.7762 116.234 42.9479C115.345 43.0186 113.436 42.3722 110.81 42.453C110.386 42.4631 109.962 42.554 109.558 42.7156C106.012 44.1195 101.265 44.2104 101.265 44.2104C101.265 44.2104 94.2258 44.7962 91.2463 45.0487C89.0041 45.2507 87.9335 45.3416 87.2669 45.4022C85.2671 45.5941 83.7319 45.9981 82.2876 46.6243L82.2977 46.6142Z" fill="#101214"/>
<path d="M158.431 59.0877C158.048 58.2898 154.664 58.4211 154.351 59.2493C153.897 60.4209 153.674 61.6329 153.715 63.1883C153.937 64.9457 154.664 65.3497 154.624 66.5516C154.705 68.5615 153.897 72.0055 153.695 72.8337C153.664 72.9549 153.664 73.0761 153.684 73.1973C153.846 74.0558 154.503 77.8433 154.391 81.1359C154.492 83.4488 154.553 84.883 154.583 85.6304C154.674 87.3979 155.078 88.7008 155.765 89.9734C156.149 90.6703 159.088 90.5592 159.411 89.832C160.007 88.5089 160.3 87.1757 160.249 85.4082C160.229 84.7214 160.977 83.2569 161.037 81.2369C161.037 80.9036 160.977 80.5804 160.835 80.2572C159.623 77.4797 159.795 73.8134 159.795 73.8134C159.795 73.8134 159.593 68.3595 159.512 66.0567C159.431 64.3195 159.401 63.4913 159.381 62.9762C159.3 61.4208 158.977 60.229 158.431 59.0978V59.0877Z" fill="#101214"/>
<path d="M143.483 73.8335C142.887 74.3284 143.716 77.6109 144.412 77.8129C145.402 78.0957 146.372 78.1664 147.584 77.9745C148.917 77.5705 149.17 76.8433 150.119 76.7827C151.725 76.5302 154.523 77.217 155.179 77.3988C155.28 77.4291 155.371 77.4291 155.472 77.3988C156.139 77.2069 159.148 76.4797 161.754 76.7019C163.592 76.6817 164.724 76.7019 165.309 76.7221C166.703 76.7423 167.743 76.4696 168.814 75.9242C169.4 75.6212 169.733 72.7023 169.157 72.2983C168.127 71.561 167.006 71.1267 165.501 71.056C164.915 71.0257 163.714 70.1875 161.976 70.0562C161.694 70.036 161.411 70.0864 161.138 70.2278C159.946 70.8035 158.593 71.0459 157.532 71.1671C156.472 71.2883 155.694 71.2681 155.694 71.2681C155.694 71.2681 154.543 71.3388 153.159 71.4802C151.765 71.6115 150.139 71.8135 149.17 71.9448C147.715 72.167 147.018 72.2983 146.584 72.3791C145.281 72.6316 144.322 73.1063 143.473 73.8234L143.483 73.8335Z" fill="#101214"/>
<path d="M98.872 88.1049C98.468 87.5797 95.1048 87.8827 94.8018 88.4584C94.3675 89.2866 94.1756 90.1249 94.2463 91.1854C94.5089 92.3671 95.2361 92.6095 95.226 93.4175C95.3472 94.7911 94.6099 97.1847 94.4281 97.7604C94.3978 97.8412 94.3978 97.9321 94.4281 98.0129C94.6099 98.5886 95.3472 101.134 95.2967 103.386C95.4482 104.962 95.5391 105.931 95.5795 106.436C95.7108 107.638 96.135 108.507 96.8521 109.325C97.246 109.779 100.175 109.527 100.488 109.012C101.054 108.073 101.316 107.143 101.235 105.941C101.195 105.477 101.922 104.426 101.942 103.043C101.942 102.821 101.872 102.598 101.72 102.386C100.458 100.568 100.549 98.0533 100.549 98.0533C100.549 98.0533 100.236 94.3466 100.104 92.7812C99.9931 91.5995 99.9426 91.0339 99.9022 90.6905C99.7911 89.6401 99.4477 88.8422 98.8821 88.1049H98.872Z" fill="#101214"/>
<path d="M86.6812 94.4881C86.0752 94.8012 85.8328 98.1746 86.3883 98.5685C87.1761 99.124 88.0245 99.4573 89.1456 99.5583C90.4182 99.4876 90.7919 98.8109 91.6403 98.9523C93.0846 99.0533 95.4681 100.164 96.0337 100.447C96.1145 100.487 96.2054 100.508 96.2963 100.487C96.9326 100.407 99.7 100.094 102.043 100.498C103.71 100.609 104.74 100.679 105.275 100.71C106.548 100.78 107.517 100.498 108.497 99.9219C109.032 99.6088 109.245 96.6697 108.76 96.2859C107.871 95.5789 106.952 95.1648 105.679 95.0436C105.184 95.0032 104.215 94.1245 102.77 93.8821C102.538 93.8417 102.296 93.8821 102.053 93.9932C99.9525 94.9426 97.3467 94.4477 97.3467 94.4477C97.3467 94.4477 93.428 94.1548 91.7716 94.0336C90.5192 93.9528 89.9233 93.9124 89.5597 93.8922C88.4386 93.8316 87.5498 94.0437 86.6913 94.478L86.6812 94.4881Z" fill="#101214"/>
<path d="M43.918 33.4439C43.5039 32.747 40.1305 33.05 39.8477 33.8075C39.4437 34.8882 39.272 35.9992 39.373 37.393C39.6659 38.9585 40.4032 39.2918 40.4234 40.3725C40.585 42.1804 39.9184 45.3316 39.7568 46.0891C39.7366 46.2002 39.7366 46.3113 39.7568 46.4224C39.9487 47.19 40.7668 50.5735 40.787 53.5428C40.9789 55.6234 41.1001 56.9162 41.1708 57.5828C41.3425 59.1685 41.7869 60.33 42.5343 61.441C42.9383 62.047 45.8673 61.7945 46.1703 61.1178C46.7056 59.8957 46.948 58.6736 46.8268 57.0879C46.7763 56.4718 47.4631 55.1083 47.4429 53.2802C47.4429 52.9772 47.3621 52.6944 47.2005 52.4116C45.8774 49.9776 45.8976 46.6547 45.8976 46.6547C45.8976 46.6547 45.4734 41.7461 45.2916 39.6756C45.1401 38.1202 45.0694 37.3627 45.029 36.9082C44.8775 35.5144 44.5139 34.4539 43.9281 33.4641L43.918 33.4439Z" fill="#101214"/>
<path d="M30.4344 46.6748C29.8587 47.0485 29.9597 50.4219 30.5455 50.7653C31.3838 51.24 32.2625 51.4824 33.3836 51.4824C34.6461 51.2905 34.939 50.5835 35.7975 50.634C37.2519 50.5936 39.7163 51.4622 40.3122 51.6844C40.4031 51.7147 40.4839 51.7248 40.5748 51.7046C41.201 51.5632 43.9179 50.9673 46.2914 51.1491C47.9579 51.0885 48.9881 51.0582 49.5234 51.038C50.7959 50.9774 51.7352 50.6037 52.6543 49.9371C53.1593 49.5735 53.0785 46.6344 52.5533 46.291C51.6039 45.6749 50.6444 45.3517 49.3719 45.3618C48.877 45.3719 47.8266 44.5942 46.3722 44.4932C46.1298 44.473 45.8975 44.5437 45.6652 44.675C43.6654 45.8264 41.0293 45.5941 41.0293 45.5941C41.0293 45.5941 37.1004 45.6951 35.444 45.7355C34.1916 45.7759 33.5957 45.7961 33.222 45.8163C32.1009 45.8668 31.2424 46.1597 30.4243 46.6849L30.4344 46.6748Z" fill="#101214"/>
</g>
<defs>
<clipPath id="clip0_448_5402">
<rect width="139.602" height="82.6481" fill="white" transform="translate(30 27)"/>
</clipPath>
</defs>
</svg>
