<svg width="94" height="94" viewBox="0 0 94 94" fill="none" xmlns="http://www.w3.org/2000/svg">
<g clip-path="url(#clip0_448_5454)">
<path d="M31.5301 1.70002C30.5001 -0.569985 27.2901 0.380015 27.6501 2.84002C28.1601 6.33002 28.9501 9.93002 30.2601 14.47C31.9201 19.56 32.9701 20.64 33.9201 24.14C35.6601 30.01 37.6901 40.19 38.1701 42.65C38.2401 43.01 38.3401 43.37 38.4601 43.72C39.3301 46.22 43.0901 57.17 45.6701 66.8C47.6701 73.55 48.9101 77.72 49.5501 79.9C51.0901 85.05 52.5601 88.8 54.2801 92.4C55.2301 94.38 58.0201 93.55 57.7401 91.38C57.2401 87.42 56.4301 83.47 54.9301 78.31C54.3401 76.31 53.8801 71.91 52.2801 65.98C52.0201 65.01 51.6801 64.07 51.2801 63.15C47.8101 55.25 44.9601 44.5 44.9601 44.5C44.9601 44.5 40.2801 28.59 38.3001 21.87C36.8001 16.82 36.0801 14.38 35.6401 12.89C34.2801 8.37002 32.9901 4.92002 31.5201 1.71002L31.5301 1.70002Z" fill="#101214"/>
<path d="M92.0902 39.62C94.3602 38.59 93.4102 35.38 90.9502 35.74C87.4602 36.25 83.8602 37.04 79.3202 38.35C74.2302 40.01 73.1502 41.06 69.6502 42.01C63.7802 43.75 53.6002 45.78 51.1402 46.26C50.7802 46.33 50.4202 46.43 50.0702 46.55C47.5702 47.42 36.6202 51.18 26.9902 53.76C20.2402 55.76 16.0702 57 13.8902 57.64C8.7402 59.18 4.9902 60.65 1.3902 62.37C-0.589803 63.32 0.240197 66.11 2.4102 65.83C6.3702 65.33 10.3202 64.52 15.4802 63.02C17.4802 62.43 21.8802 61.97 27.8102 60.37C28.7802 60.11 29.7202 59.77 30.6402 59.37C38.5502 55.9 49.2902 53.05 49.2902 53.05C49.2902 53.05 65.2002 48.37 71.9202 46.39C76.9702 44.89 79.4102 44.17 80.9002 43.73C85.4202 42.37 88.8702 41.08 92.0802 39.61L92.0902 39.62Z" fill="#101214"/>
<path d="M70.6403 6.76003C71.5103 4.43003 68.5603 2.83003 67.0803 4.83003C64.9803 7.67003 62.9903 10.77 60.7303 14.91C58.3203 19.69 58.2903 21.19 56.5003 24.34C53.5903 29.73 47.8403 38.37 46.4503 40.45C46.2403 40.76 46.0603 41.08 45.9003 41.41C44.7503 43.79 39.6903 54.21 34.7303 62.85C31.3903 69.04 29.3203 72.87 28.2403 74.88C25.7003 79.62 24.0903 83.31 22.7703 87.08C22.0503 89.15 24.6103 90.54 25.9403 88.8C28.3803 85.64 30.5903 82.27 33.1703 77.56C34.1703 75.73 36.9403 72.28 39.9903 66.95C40.4903 66.08 40.9103 65.18 41.2803 64.24C44.4003 56.19 49.9703 46.56 49.9703 46.56C49.9703 46.56 57.8803 31.98 61.2203 25.83C63.7203 21.19 64.9303 18.96 65.6703 17.59C67.9003 13.43 69.4103 10.07 70.6403 6.76003Z" fill="#101214"/>
<path d="M82.1503 77.42C84.2903 78.69 86.3903 76.08 84.6803 74.26C82.2603 71.69 79.5603 69.18 75.9003 66.21C71.6303 62.98 70.1503 62.69 67.3703 60.36C62.5903 56.53 55.1103 49.34 53.3103 47.6C53.0403 47.34 52.7603 47.11 52.4603 46.89C50.3203 45.34 40.9803 38.49 33.3503 32.07C27.8503 27.67 24.4503 24.95 22.6803 23.53C18.4703 20.19 15.1303 17.94 11.6503 15.97C9.74031 14.89 7.92031 17.16 9.39031 18.79C12.0703 21.75 14.9903 24.53 19.1603 27.91C20.7903 29.22 23.6803 32.56 28.3803 36.52C29.1503 37.16 29.9603 37.75 30.8103 38.27C38.1703 42.78 46.6503 49.97 46.6503 49.97C46.6503 49.97 59.5803 60.36 65.0403 64.74C69.1603 68.03 71.1403 69.62 72.3603 70.59C76.0603 73.53 79.0903 75.62 82.1303 77.42H82.1503Z" fill="#101214"/>
</g>
<defs>
<clipPath id="clip0_448_5454">
<rect width="93.79" height="93.79" fill="white"/>
</clipPath>
</defs>
</svg>
