<svg width="115" height="113" viewBox="0 0 115 113" fill="none" xmlns="http://www.w3.org/2000/svg">
<g clip-path="url(#clip0_448_5386)">
<path d="M113.87 63.5101C113.94 61.2501 113.75 59.5601 113.37 58.4401C113.01 57.3201 112.56 56.7801 112.09 56.7901C111.63 56.7901 111.16 57.3501 110.78 58.4101C110.43 59.4801 110.07 61.0501 109.84 63.1501C109.02 69.0701 107.46 75.0201 104.43 80.7801C101.43 86.5301 96.9999 92.1501 90.6099 96.8001C87.0299 99.4901 83.7899 101.22 80.9399 102.57C78.0799 103.91 75.5899 104.83 73.2199 105.55C70.8499 106.29 68.6099 106.83 66.1799 107.23C63.7599 107.64 61.1399 107.91 58.0299 107.92C52.7899 107.97 46.5899 107.3 40.4899 105.4C34.3899 103.55 28.4099 100.51 23.5999 96.6801C18.7699 92.8701 15.0799 88.3801 12.7599 84.3101C10.3699 80.2701 9.16986 76.7501 8.59986 74.7701C8.19986 73.6201 7.94986 72.4201 7.57986 71.2501C7.03986 69.1301 6.10986 65.1601 5.86986 59.7201C5.80986 56.9701 5.72986 53.8201 5.96986 50.5501C6.23986 47.2601 6.80986 43.7401 7.84986 40.1501C9.86986 32.9801 14.0699 25.6401 20.3099 19.9501C26.4799 14.1801 34.5499 10.2301 42.7099 8.23011C48.4799 6.82011 53.8999 6.32011 58.7499 6.45011C63.6099 6.53011 67.8999 7.23011 71.5999 8.09011C79.0199 9.87011 84.0099 12.5501 87.2499 14.5001C91.0899 16.8401 94.3499 19.5401 97.0999 22.4101C99.8299 25.3001 102.05 28.3701 103.84 31.5201C107.42 37.8401 109.26 44.4601 110.11 51.1701C110.21 52.1001 110.34 52.9001 110.5 53.6001C110.62 54.3001 110.77 54.8801 110.94 55.3501C111.28 56.2901 111.69 56.7701 112.1 56.7801C112.51 56.7901 112.91 56.3101 113.23 55.3301C113.39 54.8401 113.53 54.2301 113.63 53.4901C113.7 52.7501 113.73 51.8901 113.72 50.9001C113.48 43.7401 112 36.3501 108.32 29.1201C106.49 25.5201 104.1 21.9901 101.11 18.6801C98.0899 15.4001 94.4599 12.3201 90.1999 9.70011C88.5399 8.68011 86.4099 7.44011 83.7299 6.14011C81.0499 4.87011 77.8199 3.55011 74.0299 2.46011C66.4799 0.290106 56.4999 -1.02989 45.1199 0.990106C41.4199 1.65011 37.7899 2.71011 34.3499 4.14011C26.8999 7.17011 19.5099 12.0201 13.7899 18.2701C8.04986 24.5001 4.23986 32.0401 2.30986 38.9501C1.31986 42.4001 0.729862 45.6901 0.419862 48.6501C0.0698618 51.6101 0.0298618 54.2301 0.0198618 56.3601C0.0198618 58.5101 0.00986183 60.2101 0.0998618 61.4001C0.169862 62.5901 0.199862 63.2301 0.199862 63.2301C0.199862 63.2301 0.199862 63.4701 0.259862 63.9201C0.309862 64.3701 0.389862 65.0401 0.479862 65.9001C0.689862 67.6201 1.09986 70.1001 1.84986 73.1101C2.61986 76.1101 3.82986 79.6301 5.65986 83.3101C7.46986 86.9901 9.97986 90.7801 13.1299 94.2801C16.2499 97.8101 20.0699 100.95 24.1999 103.58C28.3699 106.15 32.8399 108.23 37.3299 109.65C46.3099 112.6 55.1299 113.05 61.5699 112.65C66.4399 112.36 70.6299 111.57 74.2199 110.62C77.8099 109.67 80.8199 108.56 83.3499 107.44C88.3999 105.17 91.5999 103.03 93.9499 101.32C101.08 96.1001 105.99 89.6201 109.09 83.0801C112.23 76.5101 113.52 69.8701 113.88 63.5001L113.87 63.5101Z" fill="#101214"/>
<path d="M91.3499 15.8801C92.8399 13.4101 90.1999 11.3501 88.1599 13.3901C85.2699 16.2801 82.4299 19.4801 79.0399 23.7801C75.3399 28.7701 74.9299 30.4201 72.2799 33.6901C67.8999 39.3001 59.7799 48.1801 57.8199 50.3101C57.5299 50.6301 57.2599 50.9601 57.0099 51.3101C55.2199 53.8001 47.3499 64.7001 40.0399 73.6701C35.0199 80.1101 31.9099 84.1001 30.2799 86.1901C26.4599 91.1201 23.8599 95.0001 21.5399 99.0001C20.2699 101.2 22.5599 102.99 24.3799 101.22C27.6999 98.0101 30.8399 94.5401 34.6999 89.6401C36.1899 87.7301 39.9399 84.2501 44.4399 78.7101C45.1699 77.8101 45.8499 76.8601 46.4499 75.8701C51.7099 67.3701 59.8999 57.3801 59.8999 57.3801C59.8999 57.3801 71.7699 42.2101 76.7799 35.8101C80.5399 30.9801 82.3499 28.6601 83.4699 27.2301C86.8299 22.9001 89.2399 19.3701 91.3499 15.8701V15.8801Z" fill="#101214"/>
</g>
<defs>
<clipPath id="clip0_448_5386">
<rect width="113.89" height="112.78" fill="white"/>
</clipPath>
</defs>
</svg>
