<svg width="63" height="87" viewBox="0 0 63 87" fill="none" xmlns="http://www.w3.org/2000/svg">
<g clip-path="url(#clip0_448_5514)">
<path d="M50.09 3.17995C50.96 0.84995 48.01 -0.75005 46.53 1.24995C44.43 4.08995 42.44 7.18995 40.18 11.3299C37.77 16.1099 37.74 17.61 35.95 20.76C33.04 26.15 27.29 34.7899 25.9 36.8699C25.69 37.1799 25.51 37.5 25.35 37.83C24.2 40.21 19.14 50.63 14.18 59.27C10.84 65.46 8.77003 69.2899 7.69003 71.2999C5.15003 76.0399 3.54003 79.7299 2.22003 83.4999C1.50003 85.5699 4.06003 86.9599 5.39003 85.2199C7.83003 82.0599 10.04 78.6899 12.62 73.9799C13.62 72.1499 16.39 68.6999 19.44 63.3699C19.94 62.4999 20.36 61.6 20.73 60.66C23.85 52.61 29.42 42.9799 29.42 42.9799C29.42 42.9799 37.33 28.4 40.67 22.25C43.17 17.61 44.38 15.3799 45.12 14.0099C47.35 9.84995 48.86 6.48995 50.09 3.17995Z" fill="#101214"/>
<path d="M59.6204 68.17C61.3904 69.13 63.4904 66.52 62.1504 65.01C60.2504 62.86 58.0904 60.81 55.1004 58.44C51.5904 55.91 50.3104 55.8 48.0404 53.96C44.1104 50.95 38.0404 45.19 36.5904 43.79C36.3804 43.58 36.1504 43.4 35.9004 43.23C34.1304 42.05 26.4504 36.81 20.4504 31.56C16.0904 27.99 13.4504 25.72 12.0604 24.54C8.79044 21.75 6.15044 19.87 3.37044 18.24C1.84044 17.35 -0.10956 19.51 0.96044 20.93C2.91044 23.53 5.12044 25.93 8.39044 28.8C9.67044 29.9 11.8204 32.81 15.5804 36.09C16.1904 36.62 16.8604 37.09 17.5604 37.5C23.6204 41.06 30.5604 46.75 30.5604 46.75C30.5604 46.75 41.1804 54.86 45.6704 58.28C49.0304 60.86 50.6404 62.11 51.6304 62.87C54.6304 65.19 57.1104 66.81 59.6104 68.18L59.6204 68.17Z" fill="#101214"/>
</g>
<defs>
<clipPath id="clip0_448_5514">
<rect width="62.82" height="86.63" fill="white"/>
</clipPath>
</defs>
</svg>
