<svg width="52" height="49" viewBox="0 0 52 49" fill="none" xmlns="http://www.w3.org/2000/svg">
<g clip-path="url(#clip0_448_5969)">
<path d="M32.4402 4.60015C32.8802 4.63015 33.2702 4.60015 33.6202 4.53015C33.9602 4.48015 34.2702 4.39015 34.5302 4.26015C35.0502 4.01015 35.4102 3.62015 35.5402 3.17015C35.6702 2.73015 35.5602 2.22015 35.1502 1.75015C34.9502 1.51015 34.6702 1.28015 34.3102 1.07015C33.9502 0.880154 33.5202 0.720154 33.0102 0.600154C30.1202 -0.079846 27.0502 -0.149846 23.8202 0.260154C22.2102 0.490154 20.5402 0.820154 18.8502 1.36015C17.1502 1.87015 15.4102 2.57015 13.6402 3.47015C11.6602 4.53015 10.1602 5.60015 8.95022 6.63015C7.73022 7.64015 6.82022 8.61015 6.01022 9.55015C4.43022 11.4602 3.19022 13.1902 1.78022 16.0102C0.660219 18.4002 -0.209781 21.5902 0.0402187 24.9402C0.260219 28.2802 1.45022 31.5902 3.04022 34.2802C6.14022 39.7202 10.6602 43.1702 12.3902 44.3502C12.9202 44.7002 13.4602 45.0202 14.0202 45.3302C14.5302 45.5702 15.2702 45.9002 16.1802 46.3302C17.1202 46.6902 18.2402 47.1502 19.5702 47.5302C22.2102 48.3102 25.6102 48.9902 29.4802 48.8402C31.4102 48.8002 33.4402 48.5202 35.5002 47.9702C37.5502 47.4302 39.6402 46.6102 41.5702 45.3902C43.5002 44.1902 45.2802 42.6302 46.7202 40.8102C48.2002 39.0002 49.2202 36.9002 49.9702 34.8202C50.9502 31.8302 51.2502 29.0402 51.2202 26.6102C51.2202 25.3902 51.1202 24.2602 51.0402 23.1802C50.8902 22.1202 50.8102 21.1202 50.5902 20.1902C49.8702 16.4502 48.7102 13.8002 47.8202 12.0402C46.7002 9.98015 45.3802 8.17015 43.8702 6.66015C42.3202 5.20015 40.6902 3.95015 38.9302 3.14015C35.4502 1.42015 31.8602 0.970154 28.5802 1.27015C24.9202 1.77015 25.5102 4.66015 28.5502 4.88015C31.3702 5.22015 34.0502 6.05015 36.4902 7.59015C37.7402 8.31015 38.8502 9.33015 39.9502 10.4602C41.0202 11.6302 41.9702 13.0402 42.8402 14.6402C43.4702 15.9202 44.2002 18.0302 44.5802 20.9502C44.9302 23.8502 45.1002 27.6202 44.1202 31.4102C43.9802 32.0402 43.7502 32.6102 43.6002 33.2202C43.3702 33.7902 43.2002 34.3902 42.9602 34.9502C42.4802 36.1902 41.7102 37.3502 40.8102 38.4202C39.8702 39.4702 38.7002 40.3502 37.4402 41.0902C36.1602 41.8102 34.7502 42.2902 33.3602 42.6602C31.9502 42.9602 30.5502 43.1702 29.2202 43.1702C26.5602 43.2402 24.2602 42.7802 22.6802 42.3402C21.8802 42.1502 21.2702 41.9102 20.8402 41.7602C20.4202 41.6102 20.1902 41.5302 20.1902 41.5302C20.1902 41.5302 19.8502 41.3902 19.2502 41.1402C18.6402 40.9102 17.7902 40.4902 16.7602 39.9502C14.7202 38.8402 12.0702 36.9702 9.75022 34.3502C8.63022 33.0202 7.54022 31.5202 6.71022 29.9602C5.91022 28.3902 5.34022 26.7402 5.11022 25.1302C4.58022 21.9002 5.62022 18.9502 6.75022 16.9602C8.51022 13.9502 10.6602 12.1502 12.2902 10.9002C13.9702 9.68015 15.2202 8.95015 16.2102 8.46015C17.6902 7.69015 19.1502 7.07015 20.5702 6.57015C21.9902 6.05015 23.3802 5.68015 24.7202 5.36015C27.4102 4.78015 29.9702 4.48015 32.4502 4.60015H32.4402Z" fill="#101214"/>
</g>
<defs>
<clipPath id="clip0_448_5969">
<rect width="51.23" height="48.85" fill="white"/>
</clipPath>
</defs>
</svg>
