<svg width="87" height="108" viewBox="0 0 87 108" fill="none" xmlns="http://www.w3.org/2000/svg">
<g clip-path="url(#clip0_448_5335)">
<path d="M1.41994 56.0699C1.90994 57.5399 3.02994 57.9799 3.89994 57.7199C4.79994 57.4499 5.47994 56.5499 5.38994 55.2699C5.18994 51.6199 5.49994 47.9499 8.00994 44.4699C9.42994 42.4799 10.6899 41.3899 11.8199 40.4599C12.9799 39.5599 14.0899 38.8599 15.9099 38.2999C17.4399 37.8099 19.3199 37.4699 21.2899 37.3699C23.2699 37.2599 25.3299 37.4299 27.2099 37.7799C31.0099 38.4699 33.8699 40.0499 34.8399 40.7199C35.1399 40.9099 35.4399 41.0899 35.7499 41.2599C36.2999 41.5499 37.3099 42.1299 38.3999 43.0999C39.4799 44.0799 40.5999 45.4699 41.2299 47.3199C41.8599 49.1599 41.9599 51.4799 41.3699 53.8999C40.8199 56.3199 39.6399 58.7999 38.2399 61.0299C37.7399 61.8199 37.2799 62.5899 36.7699 63.2899C36.5199 63.6399 36.2799 63.9899 36.0499 64.3199C35.8199 64.6299 35.5899 64.9199 35.3599 65.2099C34.4499 66.3399 33.5499 67.2299 32.6899 67.9399C30.9799 69.3699 29.4599 70.1799 28.3099 70.8499C27.6299 71.2399 26.9299 71.6499 26.1799 72.1799C25.4399 72.6999 24.6399 73.3899 23.9699 74.2999C23.2999 75.1999 22.8699 76.2799 22.6799 77.2599C22.4799 78.2499 22.4999 79.1099 22.5599 79.9099C22.6999 81.4899 23.0799 82.7699 23.4899 83.9699C23.8999 85.1799 24.3899 86.2699 24.9099 87.3399C26.0799 89.6699 28.7899 88.6099 28.3399 86.2099C28.1499 85.1099 27.9599 84.0099 27.8199 82.9299C27.6799 81.8499 27.5699 80.7399 27.6299 79.7599C27.6599 79.2799 27.7199 78.8199 27.8399 78.4699C27.9599 78.1199 28.0999 77.8699 28.3199 77.6199C28.7099 77.1199 29.7599 76.4899 31.0999 75.7399C32.1199 75.1399 33.9999 74.3999 36.2899 72.8199C37.4299 72.0299 38.6399 71.0299 39.8199 69.7999C40.1199 69.4899 40.4099 69.1699 40.6999 68.8299C40.9899 68.4899 41.2799 68.1399 41.5399 67.7999C42.0699 67.0999 42.6299 66.3899 43.1499 65.5799C43.8499 64.5599 44.4299 63.4299 44.8999 62.2699C45.9099 59.7499 46.8399 56.9399 47.2599 53.9999C47.4599 52.5299 47.5099 51.0399 47.4199 49.5899C47.2999 48.1399 47.0099 46.7499 46.6099 45.4899C45.7499 42.9699 44.4299 41.0699 43.3899 39.8799C42.8599 39.2999 42.4299 38.8299 42.1099 38.5499C41.7999 38.2599 41.6299 38.0999 41.6299 38.0999C41.6299 38.0999 41.3699 37.8699 40.8799 37.4899C40.6399 37.2899 40.3399 37.0699 39.9799 36.8299C39.6299 36.5799 39.2099 36.3099 38.7499 36.0399C36.8999 34.9099 34.1799 33.7299 31.0999 33.0499C28.0199 32.3499 24.5999 32.0999 21.4399 32.3499C18.2699 32.5799 15.3799 33.3099 13.2899 34.0799C10.1399 35.2599 7.98994 36.6999 6.47994 37.9699C4.96994 39.2399 4.10994 40.3399 3.46994 41.1699C1.59994 43.7699 0.719942 46.6099 0.539942 49.1599C0.359942 51.7299 0.749942 54.0199 1.41994 56.0899V56.0699Z" fill="#101214"/>
<path d="M37.7095 101.26C37.4395 100.11 34.0595 100.53 33.6895 100.78C33.1195 101.24 32.7195 101.41 32.3395 101.71C32.0295 102.13 31.9695 102.86 31.3895 102.83C30.9095 102.85 30.3495 102.41 30.1895 101.92C30.0095 101.42 30.1895 101.02 30.2695 100.9C30.2995 100.86 30.2795 100.84 30.2695 100.82C30.1895 100.77 29.9395 100.48 29.9695 100.03C29.9795 99.8199 30.0695 99.5599 30.2495 99.3599C30.4295 99.1699 30.6795 99.0299 30.9395 99.0199C31.6395 98.8299 32.0695 99.0999 32.2495 99.2099C32.6895 99.5199 33.1995 99.6499 33.9195 100.22C34.2795 100.48 37.2195 100.81 37.5095 99.8399C37.9895 98.2299 37.4795 96.0499 35.4295 94.5699C35.0295 94.3099 34.4995 93.7199 33.5595 93.2099C32.6295 92.6999 31.2595 92.2799 29.6495 92.5499C29.1295 92.6399 28.6295 92.8599 28.2095 93.1799C26.3695 94.5399 25.0395 96.5199 24.5695 98.2599C24.3195 99.1199 24.2495 99.8899 24.2295 100.43C24.2295 100.97 24.2495 101.29 24.2495 101.29C24.2495 101.29 24.2695 101.41 24.2995 101.62C24.3295 101.84 24.3995 102.14 24.4995 102.52C24.7195 103.26 25.1595 104.26 25.9295 105.15C26.6895 106.04 27.7395 106.8 28.8595 107.21C29.9795 107.63 31.0895 107.72 31.8995 107.65C33.1295 107.56 33.9995 107.2 34.6095 106.89C35.2295 106.58 35.6095 106.28 35.8895 106.06C37.5795 104.64 38.0495 102.72 37.7195 101.24L37.7095 101.26Z" fill="#101214"/>
<path d="M86.4197 1.63995C86.2297 -0.230052 82.8897 -0.490052 82.3897 1.29995C81.6697 3.84995 81.1897 6.53995 80.7997 10.0199C80.5697 13.9799 81.0997 15.0299 80.7197 17.6899C80.4297 19.9399 79.7897 22.9199 79.1097 25.5499C78.4197 28.1699 77.7197 30.4499 77.4297 31.3299C77.3497 31.5899 77.2897 31.8599 77.2597 32.1299C77.0497 34.0499 75.7797 42.6699 74.5497 50.1199C74.1897 52.7599 73.9297 54.8899 73.7497 56.5799C73.5497 58.2699 73.4196 59.5099 73.3396 60.3599C72.9396 64.3799 73.0297 67.42 73.4097 70.41C73.6197 72.06 76.5197 72.2899 77.0097 70.7099C77.8997 67.8399 78.4797 64.8999 78.9297 60.9399C78.9997 60.1699 79.3297 58.9999 79.7297 57.4699C80.1197 55.9399 80.5797 54.0399 80.9597 51.8199C81.0797 51.0899 81.1097 50.3499 81.0997 49.6199C81.0197 46.4299 81.4197 42.8099 81.8897 39.9999C82.3597 37.1799 82.8197 35.1499 82.8197 35.1499C82.8197 35.1499 83.4197 32.1099 84.0497 28.3599C84.6997 24.6199 85.2997 20.2099 85.6197 17.5999C86.0797 13.6599 86.2697 11.7599 86.3797 10.5999C86.7297 7.06995 86.6797 4.29995 86.4197 1.64995V1.63995Z" fill="#101214"/>
<path d="M75.6401 86.65C76.0701 86.65 79.2501 85.45 78.9901 84.38C78.9501 84.2 78.9101 84.03 78.8301 83.85C78.7401 83.67 78.6401 83.49 78.5201 83.3C78.4001 83.12 78.2901 82.93 78.1301 82.76C77.9601 82.59 77.7701 82.42 77.5701 82.26C77.1801 81.92 76.6601 81.7199 76.1101 81.5199C75.5801 81.3999 74.9501 81.29 74.4001 81.36C73.1001 81.57 72.5901 82.1 72.1601 82.48C71.7601 82.9 71.4701 83.2399 70.9601 83.5899C70.6401 83.8199 70.3001 84.11 69.9301 84.42C69.7501 84.58 69.5601 84.75 69.3801 84.92C69.1801 85.14 68.9901 85.3699 68.8001 85.5899C68.4401 86.0599 68.1101 86.56 67.8901 87.05C67.6601 87.54 67.5701 88.02 67.4301 88.4C67.3701 89.45 67.4101 89.9899 67.4301 90.2699C67.4301 90.4299 67.4701 90.58 67.5301 90.72C67.7601 91.22 68.3801 92.52 69.6501 93.75C70.2801 94.36 71.0801 94.96 72.0501 95.42C73.0801 95.91 74.2601 96.16 75.4001 96.14C77.0101 96.03 78.2001 95.3399 78.9901 94.6999C79.7901 94.0199 80.2101 93.44 80.4701 93.04C81.0801 92.07 81.3401 91.01 81.2601 89.99C81.1901 88.97 80.7401 88.01 80.0701 87.37C79.2201 86.61 77.1001 88.74 76.8401 88.99C76.6301 89.3 76.3801 89.42 76.2101 89.55C76.0301 89.67 75.9001 89.8 75.7501 90C75.7001 90.08 75.4201 90.09 75.2401 89.96C75.0301 89.85 74.9101 89.6299 74.9001 89.5599C74.9001 89.5399 74.9001 89.59 74.9001 89.72C74.8801 89.86 74.8301 89.97 74.7701 90.04C74.7301 90.08 74.7201 90.11 74.6801 90.14C74.6301 90.17 74.5701 90.17 74.5201 90.18C74.2901 90.2 74.0401 90.08 73.8601 89.93C73.6901 89.77 73.5601 89.5899 73.5001 89.4499C73.4301 89.3199 73.4301 89.22 73.4201 89.22C73.3501 89.08 73.3001 88.92 73.2701 88.78C73.2401 88.69 73.2401 88.61 73.2301 88.53C73.2301 88.35 73.2901 88.19 73.3901 88.04C73.5001 87.9 73.8001 87.54 74.0801 87.37C74.3601 87.17 74.5601 87.08 74.6801 87.04C74.7401 87.03 74.7801 87.01 74.8201 86.99C74.8501 86.99 74.8601 86.99 74.8801 86.99C74.9501 86.95 74.9201 87 74.9501 86.9C74.9401 86.9 74.9601 86.81 75.0001 86.79C75.0401 86.74 75.1201 86.67 75.2301 86.67L75.4201 86.63C75.4901 86.63 75.5601 86.66 75.6501 86.67L75.6401 86.65Z" fill="#101214"/>
</g>
<defs>
<clipPath id="clip0_448_5335">
<rect width="86.13" height="107.68" fill="white" transform="translate(0.5)"/>
</clipPath>
</defs>
</svg>
