<svg width="960" height="540" viewBox="0 0 960 540" fill="none" xmlns="http://www.w3.org/2000/svg">
<path d="M178.77 519.81V539.99H238.39L227.01 519.81H178.77Z" fill="#1868DB"/>
<path d="M456.77 482.47H420.83V343.39H871.5V202.62H960V133.73H914.73L894.72 167.6L875.61 133.73H812.65C814.29 134.95 815.87 136.24 817.37 137.59C830.93 149.8 838.96 167.16 838.96 190.24C838.96 213.32 831.17 229.55 817.97 241.49C811.62 247.23 803.98 251.77 795.38 255.28C792.21 256.57 788.91 257.71 785.49 258.72C785.37 264.04 786.08 271.95 790.21 279.39C789.26 279.47 788.31 279.54 787.34 279.54C775.44 279.54 765.04 273.09 759.45 263.49C754.48 263.93 749.38 264.15 744.14 264.15C724.59 264.15 706.57 261.15 691.49 254.9C683.16 251.44 675.71 247.01 669.46 241.48C655.96 229.55 647.91 212.66 647.91 190.23C647.91 167.8 656.21 149.8 670.08 137.58C676.2 132.19 683.43 127.83 691.49 124.41C704.73 118.79 720.25 115.72 737.07 115.06V64.36H715.66C709.76 79.04 695.4 89.41 678.61 89.41C677.41 89.41 676.23 89.33 675.05 89.23C679.98 80.35 680.98 70.92 680.9 64.36H617.83V25.7H490.64V0H441.57V112.56H632.38V280.74H563.93L543.18 315.87L523.36 280.74H399.39C400.95 285.51 401.77 290.69 401.77 296.32C401.77 313.73 393.71 326.84 380.19 336.11C373.93 340.4 366.48 343.84 358.13 346.52C343.03 351.37 324.98 353.7 305.4 353.7C296.26 353.7 287.5 353.18 279.24 352.14C273.28 362.73 261.94 369.89 248.92 369.89C247.87 369.89 246.84 369.82 245.82 369.73C250.74 360.86 251.16 351.37 250.84 345.73C243.54 343.17 237 339.99 231.45 336.1C218.23 326.83 210.43 313.73 210.43 296.31C210.43 278.89 218.47 264.92 232.06 255.44C238.3 251.09 245.74 247.62 254.08 244.92C268.75 240.17 286.25 237.85 305.41 237.85C308.85 237.85 312.24 237.93 315.59 238.08V171.47H234.78C234.1 180.55 234.42 197.09 242.97 212.5C241.28 212.65 239.58 212.76 237.85 212.76C211.74 212.76 189.72 195.33 182.75 171.47H153.54V251.33H102.88C102.43 255.87 102.28 265.35 107.15 274.14C106.25 274.22 105.35 274.28 104.43 274.28C90.18 274.28 78.22 264.53 74.84 251.33H27.47V171.47H0.0400391V248.03C3.00004 250.19 5.84004 252.46 8.52004 254.88C30.06 274.27 42.81 301.83 42.81 338.47C42.81 375.11 30.44 400.89 9.48004 419.84C6.51004 422.52 3.36004 425.03 0.0400391 427.39V539.98H19.01V487.67H72.22V395.46H345.51V519.81H277.4L265.48 539.98H456.78V482.46L456.77 482.47Z" fill="#1868DB"/>
<path d="M848.49 525.67C846.8 525.82 845.1 525.93 843.37 525.93C816.48 525.93 793.91 507.43 787.68 482.47H745.02V539.99H959.99V482.47H840.479C839.609 490.86 839.189 508.94 848.479 525.67H848.49Z" fill="#1868DB"/>
<path d="M737.07 133.73V115.07C720.25 115.73 704.73 118.8 691.49 124.42C683.43 127.84 676.2 132.2 670.08 137.59C656.21 149.8 647.91 167.16 647.91 190.24C647.91 213.32 655.96 229.55 669.46 241.49C675.71 247.02 683.15 251.45 691.49 254.91C706.57 261.16 724.59 264.16 744.14 264.16C749.38 264.16 754.49 263.93 759.45 263.5C756.67 258.74 755.08 253.2 755.08 247.29L786.1 252.44C786.1 252.44 785.58 254.92 785.49 258.74C788.91 257.73 792.22 256.59 795.38 255.3C803.98 251.79 811.62 247.25 817.97 241.51C831.17 229.58 838.96 212.69 838.96 190.26C838.96 167.83 830.93 149.83 817.37 137.61C815.87 136.26 814.29 134.97 812.65 133.75H737.07V133.73Z" fill="#4D8CED"/>
<path d="M755.08 247.27C755.08 253.18 756.68 258.72 759.45 263.48C765.04 273.07 775.43 279.53 787.34 279.53C788.31 279.53 789.27 279.47 790.21 279.38C786.08 271.94 785.37 264.03 785.49 258.71C785.58 254.89 786.1 252.41 786.1 252.41L755.08 247.26V247.27Z" fill="#4D8CED"/>
<path d="M315.59 238.09C312.25 237.94 308.86 237.86 305.41 237.86C286.26 237.86 268.75 240.18 254.08 244.93C245.74 247.63 238.3 251.1 232.06 255.45C218.48 264.93 210.43 278.4 210.43 296.32C210.43 314.24 218.23 326.84 231.45 336.11C237 340 243.54 343.18 250.84 345.74C250.66 342.61 250.25 340.66 250.25 340.66L283.7 335.11C283.7 341.3 282.08 347.11 279.24 352.14C287.5 353.18 296.26 353.7 305.4 353.7C324.98 353.7 343.03 351.37 358.13 346.52C366.48 343.84 373.93 340.4 380.19 336.11C393.71 326.84 401.77 313.74 401.77 296.32C401.77 290.69 400.95 285.5 399.39 280.74H315.57V238.09H315.59Z" fill="#357DE8"/>
<path d="M250.26 340.66C250.26 340.66 250.67 342.61 250.85 345.74C251.17 351.38 250.75 360.87 245.83 369.74C246.85 369.83 247.88 369.9 248.93 369.9C261.95 369.9 273.29 362.74 279.25 352.15C282.08 347.11 283.71 341.31 283.71 335.12L250.26 340.67V340.66Z" fill="#357DE8"/>
<path d="M27.47 149.46H153.55V171.48H182.76C181.26 166.36 180.45 160.96 180.45 155.36L235.66 164.52C235.66 164.52 235.11 167.16 234.78 171.49H315.59V112.57H441.58V0H343.34C339.1 23.2 328.44 41.61 312.96 55.6C303.15 64.47 291.34 71.49 278.05 76.91C255.42 86.15 228.4 90.62 198.85 90.62C169.3 90.62 140.79 85.99 117.49 76.33C104.61 70.99 93.11 64.14 83.45 55.6C67.62 41.61 56.65 23.2 52.27 0H0V171.48H27.47V149.46Z" fill="#4D8CED"/>
<path d="M83.4495 55.6C93.1095 64.14 104.61 70.99 117.49 76.33C140.79 85.99 168.65 90.62 198.85 90.62C229.05 90.62 255.41 86.15 278.05 76.91C291.33 71.49 303.15 64.47 312.96 55.6C328.44 41.61 339.1 23.2 343.34 0H52.2695C56.6495 23.2 67.6195 41.61 83.4495 55.6Z" fill="#357DE8"/>
<path d="M960 202.61H871.5V343.38H960V202.61Z" fill="#4D8CED"/>
<path d="M456.77 482.47V539.99V540H745.03V539.99V482.47H456.77Z" fill="#4D8CED"/>
<path d="M871.5 343.39H420.83V482.47H456.77V422.42H745.02V482.47H787.68C786.57 478 785.96 473.33 785.96 468.52L841.17 477.68C841.17 477.68 840.8 479.46 840.49 482.47H960V447.43H871.5V343.39Z" fill="#357DE8"/>
<path d="M745.02 422.42H456.77V482.47H745.02V422.42Z" fill="#1868DB"/>
<path d="M960 348.39H876.5V442.43H960V348.39Z" fill="#357DE8"/>
<path d="M871.5 343.39V447.43H960V442.43H876.5V348.39H960V343.39H871.5Z" fill="#1868DB"/>
<path d="M843.38 525.93C845.11 525.93 846.81 525.82 848.5 525.67C839.21 508.93 839.63 490.86 840.5 482.47C840.81 479.45 841.18 477.68 841.18 477.68L785.97 468.52C785.97 473.33 786.57 478 787.69 482.47C793.92 507.43 816.49 525.93 843.38 525.93Z" fill="#357DE8"/>
<path d="M180.45 155.35C180.45 160.95 181.27 166.36 182.76 171.47C189.73 195.32 211.75 212.76 237.86 212.76C239.59 212.76 241.29 212.65 242.98 212.5C234.43 197.09 234.11 180.55 234.79 171.47C235.11 167.14 235.67 164.5 235.67 164.5L180.46 155.34L180.45 155.35Z" fill="#4D8CED"/>
<path d="M178.77 519.81H227.01L226.11 518.21L278.04 518.72L277.39 519.81H345.51V395.47H72.21V487.67H178.77V519.81Z" fill="#357DE8"/>
<path d="M178.77 487.67H19.0098V539.98L178.77 539.99V487.66V487.67ZM72.2098 487.67H178.76V519.81H72.2098V487.67Z" fill="#4D8CED"/>
<path d="M617.85 0H490.66V25.7H617.85V0Z" fill="#4D8CED"/>
<path d="M441.58 171.48H315.59V238.09C331.25 238.79 345.7 241.14 358.14 245.23C359.15 245.56 360.15 245.91 361.13 246.26C368.01 248.75 374.22 251.79 379.59 255.45C389.12 261.95 396.02 270.33 399.41 280.74H523.38L517.68 270.64L569.61 271.16L563.95 280.75H632.4V112.56H441.59V171.48H441.58Z" fill="#357DE8"/>
<path d="M737.07 64.36V115.06C739.4 114.97 741.76 114.92 744.14 114.92C763.26 114.92 780.74 117.9 795.39 124.03C801.71 126.67 807.5 129.88 812.65 133.73H875.61L869.2 122.37L921.13 122.89L914.73 133.73H960V0H777.6V64.36H737.07Z" fill="#357DE8"/>
<path d="M27.4697 251.33H74.8497C74.2297 248.9 73.8997 246.36 73.8997 243.74L103.27 248.61C103.27 248.61 103.06 249.62 102.89 251.33H153.55V171.47H27.4697V251.33Z" fill="#357DE8"/>
<path d="M27.4697 149.46V171.48H153.55V149.46H27.4697Z" fill="#1868DB"/>
<path d="M73.9004 243.74C73.9004 246.36 74.2304 248.91 74.8504 251.33C78.2304 264.52 90.1904 274.28 104.44 274.28C105.36 274.28 106.26 274.22 107.16 274.14C102.28 265.35 102.44 255.87 102.89 251.33C103.06 249.62 103.27 248.61 103.27 248.61L73.9004 243.74Z" fill="#357DE8"/>
<path d="M436.58 117.56H320.59V166.48H436.58V117.56Z" fill="#357DE8"/>
<path d="M315.59 171.48H441.58V112.56H315.59V171.48ZM320.59 117.56H436.58V166.48H320.59V117.56Z" fill="#1868DB"/>
<path d="M650.42 25.7H617.85V64.36H680.92C680.86 59.23 680.15 55.86 680.15 55.86L718.54 49.49C718.54 54.75 717.51 59.76 715.67 64.36H737.08V0H650.42V25.7Z" fill="#357DE8"/>
<path d="M617.84 25.7H650.42V0H617.84V25.7Z" fill="#1868DB"/>
<path d="M680.14 55.86C680.14 55.86 680.85 59.24 680.91 64.36C680.98 70.92 679.99 80.35 675.06 89.23C676.23 89.33 677.42 89.41 678.62 89.41C695.41 89.41 709.77 79.04 715.67 64.36C717.52 59.76 718.54 54.75 718.54 49.49L680.15 55.86H680.14Z" fill="#357DE8"/>
<path d="M772.6 0H742.07V59.36H772.6V0Z" fill="#357DE8"/>
<path d="M737.07 64.36H777.6V0H772.6V59.36H742.07V0H737.07V64.36Z" fill="#1868DB"/>
<path d="M173.76 492.67H77.21V514.81H173.76V492.67Z" fill="#357DE8"/>
<path d="M178.77 519.81V487.67H72.2197V519.81H178.77ZM77.2097 492.67H173.76V514.81H77.2097V492.67Z" fill="#1868DB"/>
<path d="M379.59 255.45C374.23 251.79 368.01 248.74 361.13 246.26C360.15 245.9 359.15 245.56 358.14 245.23C345.7 241.13 331.24 238.79 315.59 238.09V280.74H399.41C396.01 270.34 389.11 261.95 379.59 255.45Z" fill="#1868DB"/>
<path d="M517.69 270.64L523.39 280.74L543.2 315.87L563.95 280.74L569.62 271.16L517.69 270.64Z" fill="#357DE8"/>
<path d="M869.21 122.37L875.62 133.73L894.73 167.6L914.73 133.73L921.14 122.88L869.21 122.37Z" fill="#357DE8"/>
<path d="M278.04 518.72L226.11 518.21L227.01 519.81L238.39 539.99L238.4 540H265.47L265.48 539.99L277.39 519.81L278.04 518.72Z" fill="#357DE8"/>
<path d="M42.81 338.48C42.81 301.84 30.06 274.28 8.52 254.89C5.83 252.47 3 250.2 0.04 248.04C0.03 248.04 0.01 248.02 0 248.01V427.42C0 427.42 0.03 427.4 0.04 427.39C3.35 425.03 6.51 422.52 9.48 419.84C30.44 400.89 42.81 374.08 42.81 338.47V338.48Z" fill="#4D8CED"/>
<path d="M812.65 133.73C807.5 129.89 801.7 126.67 795.39 124.03C780.74 117.91 763.27 114.92 744.14 114.92C741.76 114.92 739.4 114.97 737.07 115.06V133.72H812.65V133.73Z" fill="#1868DB"/>
</svg>
