<svg width="961" height="541" viewBox="0 0 961 541" fill="none" xmlns="http://www.w3.org/2000/svg">
<path d="M456.74 482.5H420.8V343.42H871.47V202.65H960.01V133.76H914.71L894.7 167.63L875.59 133.76H812.63C814.27 134.98 815.85 136.27 817.35 137.62C830.91 149.83 838.94 167.19 838.94 190.27C838.94 213.35 831.15 229.59 817.95 241.52C811.6 247.26 803.96 251.8 795.36 255.31C792.19 256.6 788.89 257.74 785.47 258.75C785.35 264.07 786.06 271.98 790.19 279.42C789.24 279.5 788.29 279.57 787.32 279.57C775.42 279.57 765.02 273.12 759.43 263.52C754.46 263.96 749.36 264.18 744.12 264.18C724.57 264.18 706.55 261.18 691.47 254.93C683.14 251.47 675.69 247.04 669.44 241.51C655.94 229.58 647.89 212.69 647.89 190.26C647.89 167.83 656.19 149.83 670.06 137.61C676.18 132.22 683.41 127.86 691.47 124.44C704.71 118.82 720.23 115.75 737.05 115.09V64.39H715.64C709.74 79.07 695.38 89.44 678.59 89.44C677.39 89.44 676.21 89.36 675.03 89.26C679.96 80.38 680.96 70.95 680.88 64.39H617.81V25.73H490.62V0.0100098H441.55V112.59H632.36V280.77H563.91L543.16 315.9L523.34 280.77H399.37C400.93 285.54 401.75 290.72 401.75 296.35C401.75 313.76 393.69 326.87 380.17 336.14C373.91 340.43 366.46 343.87 358.11 346.56C343.01 351.41 324.96 353.74 305.38 353.74C296.24 353.74 287.48 353.22 279.22 352.18C273.26 362.77 261.92 369.93 248.9 369.93C247.85 369.93 246.82 369.86 245.8 369.77C250.72 360.9 251.14 351.41 250.82 345.77C243.52 343.21 236.98 340.03 231.43 336.14C218.21 326.87 210.41 313.77 210.41 296.35C210.41 278.93 218.45 264.96 232.04 255.48C238.28 251.13 245.72 247.66 254.06 244.96C268.73 240.21 286.23 237.89 305.39 237.89C308.83 237.89 312.22 237.97 315.57 238.12V171.51H234.76C234.08 180.59 234.4 197.13 242.95 212.54C241.26 212.69 239.56 212.8 237.83 212.8C211.72 212.8 189.7 195.37 182.73 171.51H153.52V251.37H102.86C102.41 255.91 102.26 265.39 107.13 274.18C106.23 274.26 105.33 274.32 104.41 274.32C90.16 274.32 78.2 264.57 74.82 251.37H27.43V171.51H0V248.07C2.96 250.23 5.8 252.5 8.48 254.92C30.02 274.31 42.77 301.87 42.77 338.51C42.77 375.15 30.4 400.93 9.44 419.88C6.47 422.56 3.32 425.07 0 427.43V540.01H18.97V487.7H72.18V395.49H345.47V519.84H277.36L265.45 540.01H456.74V482.5Z" fill="#82B536"/>
<path d="M178.73 519.84V540.01H238.35L226.97 519.84H178.73Z" fill="#82B536"/>
<path d="M848.45 525.7C846.76 525.85 845.06 525.96 843.34 525.96C816.45 525.96 793.88 507.46 787.65 482.5H744.99V540.01H960V482.5H840.46C839.59 490.89 839.17 508.97 848.46 525.7H848.45Z" fill="#82B536"/>
<path d="M737.041 133.75V115.09C720.221 115.75 704.701 118.82 691.461 124.44C683.401 127.86 676.171 132.22 670.051 137.61C656.181 149.82 647.881 167.18 647.881 190.26C647.881 213.34 655.931 229.58 669.431 241.51C675.681 247.04 683.121 251.47 691.461 254.93C706.531 261.18 724.561 264.18 744.111 264.18C749.351 264.18 754.461 263.95 759.421 263.52C756.641 258.76 755.051 253.22 755.051 247.31L786.071 252.46C786.071 252.46 785.551 254.94 785.461 258.76C788.881 257.75 792.191 256.61 795.351 255.32C803.951 251.81 811.591 247.27 817.941 241.53C831.141 229.6 838.931 212.71 838.931 190.28C838.931 167.85 830.901 149.85 817.341 137.63C815.841 136.28 814.261 134.99 812.621 133.77H737.041V133.75Z" fill="#B3DF72"/>
<path d="M755.039 247.3C755.039 253.21 756.639 258.75 759.409 263.51C764.999 273.1 775.389 279.56 787.299 279.56C788.269 279.56 789.229 279.5 790.169 279.41C786.039 271.97 785.329 264.06 785.449 258.74C785.539 254.92 786.059 252.44 786.059 252.44L755.039 247.29V247.3Z" fill="#B3DF72"/>
<path d="M315.55 238.12C312.21 237.97 308.82 237.89 305.37 237.89C286.22 237.89 268.71 240.21 254.04 244.96C245.7 247.66 238.26 251.13 232.02 255.48C218.44 264.96 210.39 278.43 210.39 296.35C210.39 314.27 218.19 326.87 231.41 336.14C236.96 340.03 243.5 343.21 250.8 345.77C250.62 342.64 250.21 340.69 250.21 340.69L283.66 335.14C283.66 341.33 282.04 347.14 279.2 352.17C287.46 353.21 296.22 353.73 305.36 353.73C324.94 353.73 342.99 351.4 358.09 346.55C366.44 343.87 373.89 340.43 380.15 336.13C393.67 326.86 401.73 313.76 401.73 296.34C401.73 290.71 400.91 285.52 399.35 280.76H315.53V238.11L315.55 238.12Z" fill="#94C748"/>
<path d="M250.23 340.69C250.23 340.69 250.64 342.64 250.82 345.77C251.14 351.41 250.72 360.9 245.8 369.77C246.82 369.86 247.85 369.93 248.9 369.93C261.92 369.93 273.26 362.77 279.22 352.18C282.05 347.14 283.68 341.34 283.68 335.15L250.23 340.7V340.69Z" fill="#94C748"/>
<path d="M27.43 149.49H153.51V171.51H182.72C181.22 166.39 180.41 160.99 180.41 155.39L235.62 164.55C235.62 164.55 235.07 167.19 234.74 171.52H315.55V112.6H441.54V0.0100098H343.3C339.06 23.22 328.4 41.63 312.91 55.63C303.1 64.5 291.29 71.52 278 76.95C255.37 86.19 228.35 90.66 198.8 90.66C169.25 90.66 140.74 86.03 117.44 76.37C104.56 71.03 93.06 64.18 83.4 55.64C67.57 41.64 56.59 23.23 52.22 0.0200098H0V171.52H27.43V149.5V149.49Z" fill="#B3DF72"/>
<path d="M83.4105 55.63C93.0705 64.17 104.57 71.02 117.45 76.36C140.75 86.02 168.61 90.65 198.81 90.65C229.01 90.65 255.37 86.18 278.01 76.94C291.29 71.52 303.11 64.5 312.92 55.62C328.41 41.62 339.07 23.21 343.31 0H52.2305C56.6105 23.21 67.5805 41.62 83.4105 55.62V55.63Z" fill="#94C748"/>
<path d="M871.461 202.64V343.42H960.001V202.64H871.461Z" fill="#B3DF72"/>
<path d="M744.99 482.5H456.74V540.01H744.99V482.5Z" fill="#B3DF72"/>
<path d="M871.459 447.46V343.42H420.789V482.5H456.729V422.45H744.979V482.5H787.639C786.529 478.03 785.919 473.36 785.919 468.55L841.129 477.71C841.129 477.71 840.759 479.49 840.449 482.5H959.989V447.46H871.449H871.459Z" fill="#94C748"/>
<path d="M744.99 482.5V422.45H456.74V482.5H744.99Z" fill="#82B536"/>
<path d="M960.001 348.42H876.461V442.46H960.001V348.42Z" fill="#94C748"/>
<path d="M871.461 343.42V447.46H960.001V442.46H876.461V348.42H960.001V343.42H871.461Z" fill="#82B536"/>
<path d="M843.34 525.96C845.07 525.96 846.77 525.85 848.45 525.7C839.16 508.96 839.58 490.89 840.45 482.5C840.76 479.48 841.13 477.71 841.13 477.71L785.92 468.55C785.92 473.36 786.52 478.03 787.64 482.5C793.87 507.46 816.44 525.96 843.33 525.96H843.34Z" fill="#94C748"/>
<path d="M180.41 155.38C180.41 160.98 181.23 166.39 182.72 171.5C189.69 195.35 211.71 212.79 237.82 212.79C239.55 212.79 241.25 212.68 242.94 212.53C234.39 197.12 234.07 180.58 234.75 171.5C235.07 167.17 235.63 164.53 235.63 164.53L180.42 155.37L180.41 155.38Z" fill="#B3DF72"/>
<path d="M178.73 487.7V519.84H226.97L226.07 518.24L278 518.75L277.35 519.84H345.47V395.5H72.1797V487.7H178.73Z" fill="#94C748"/>
<path d="M178.73 519.84H72.1797V487.7H178.73H72.1797H18.9697V540.01H178.73V519.84Z" fill="#B3DF72"/>
<path d="M617.809 25.73V0.0100098H490.619V25.73H617.809Z" fill="#B3DF72"/>
<path d="M441.55 171.51H315.56V112.59V280.77H523.35L517.65 270.67L569.58 271.19L563.92 280.78H632.37V112.59H441.56V171.51H441.55ZM315.55 280.77V238.12C331.21 238.82 345.66 241.17 358.1 245.26C366.17 247.92 373.41 251.3 379.54 255.48C389.07 261.98 395.97 270.36 399.36 280.77H315.54H315.55Z" fill="#94C748"/>
<path d="M777.569 64.39H737.039V115.09C739.369 115 741.729 114.95 744.109 114.95C763.229 114.95 780.709 117.93 795.359 124.06C801.679 126.7 807.469 129.91 812.619 133.76H875.579L869.169 122.4L921.099 122.92L914.699 133.76H959.999V0.0100098H777.569V64.39Z" fill="#94C748"/>
<path d="M27.4297 251.36H74.8097C74.1897 248.93 73.8597 246.39 73.8597 243.77L103.23 248.64C103.23 248.64 103.02 249.65 102.85 251.36H153.51V171.5H27.4297V251.36Z" fill="#94C748"/>
<path d="M153.51 149.49H27.4297V171.51H153.51V149.49Z" fill="#82B536"/>
<path d="M73.8604 243.77C73.8604 246.39 74.1903 248.94 74.8103 251.36C78.1903 264.55 90.1504 274.31 104.4 274.31C105.32 274.31 106.22 274.25 107.12 274.17C102.24 265.38 102.4 255.9 102.85 251.36C103.02 249.65 103.23 248.64 103.23 248.64L73.8604 243.77Z" fill="#94C748"/>
<path d="M436.541 117.59H320.551V166.51H436.541V117.59Z" fill="#94C748"/>
<path d="M315.55 171.51H441.54V112.59H315.55V171.51ZM320.55 117.59H436.54V166.51H320.55V117.59Z" fill="#82B536"/>
<path d="M650.381 25.73H617.811V64.39H680.881C680.821 59.26 680.111 55.89 680.111 55.89L718.511 49.52C718.511 54.78 717.481 59.79 715.641 64.39H737.051V0.0100098H650.391V25.73H650.381Z" fill="#94C748"/>
<path d="M617.811 25.73H650.381V0.0100098H617.811V25.73Z" fill="#82B536"/>
<path d="M680.099 55.89C680.099 55.89 680.81 59.27 680.87 64.39C680.94 70.95 679.95 80.38 675.02 89.26C676.19 89.36 677.38 89.44 678.58 89.44C695.37 89.44 709.73 79.07 715.63 64.39C717.48 59.79 718.5 54.78 718.5 49.52L680.099 55.89Z" fill="#94C748"/>
<path d="M772.569 0.0100098H742.039V59.39H772.569V0.0100098Z" fill="#94C748"/>
<path d="M737.039 64.39H777.569V0.0100098H772.569V59.39H742.039V0.0100098H737.039V64.39Z" fill="#82B536"/>
<path d="M173.73 492.7H77.1797V514.84H173.73V492.7Z" fill="#94C748"/>
<path d="M72.1797 487.7V519.84H178.73V487.7H72.1797ZM173.73 514.84H77.1797V492.7H173.73V514.84Z" fill="#82B536"/>
<path d="M379.55 255.48C373.42 251.3 366.18 247.91 358.11 245.26C345.67 241.16 331.21 238.82 315.56 238.12V280.77H399.38C395.98 270.37 389.08 261.98 379.56 255.48H379.55Z" fill="#82B536"/>
<path d="M517.65 270.67L523.35 280.77L543.16 315.9L563.91 280.77L569.58 271.18L517.65 270.67Z" fill="#94C748"/>
<path d="M869.17 122.39L875.58 133.75L894.69 167.63L914.7 133.75L921.1 122.91L869.17 122.39Z" fill="#94C748"/>
<path d="M278 518.75L226.07 518.24L226.97 519.84L238.35 540.01H265.44L277.35 519.84L278 518.75Z" fill="#94C748"/>
<path d="M42.77 338.5C42.77 301.86 30.02 274.3 8.48 254.91C5.79 252.49 2.96 250.22 0 248.06V427.42C3.31 425.06 6.47 422.55 9.44 419.87C30.4 400.92 42.77 374.11 42.77 338.5Z" fill="#B3DF72"/>
<path d="M812.619 133.75C807.469 129.91 801.669 126.69 795.359 124.05C780.709 117.93 763.239 114.94 744.109 114.94C741.729 114.94 739.369 114.99 737.039 115.08V133.74H812.619V133.75Z" fill="#82B536"/>
</svg>
