<svg width="960" height="541" viewBox="0 0 960 541" fill="none" xmlns="http://www.w3.org/2000/svg">
<path d="M848.49 525.68C846.8 525.83 845.1 525.94 843.37 525.94C816.48 525.94 793.91 507.44 787.68 482.48H745.02V540H959.99V482.48H840.479C839.609 490.87 839.189 508.95 848.479 525.68H848.49Z" fill="#6C6F77"/>
<path d="M178.77 519.82V540H238.39L227.01 519.82H178.77Z" fill="#6C6F77"/>
<path d="M456.769 482.48H420.829V343.4H871.499V202.63H959.999V133.74H914.729L894.719 167.61L875.609 133.74H812.649C814.289 134.96 815.869 136.25 817.369 137.6C830.929 149.81 838.959 167.17 838.959 190.25C838.959 213.33 831.169 229.57 817.969 241.5C811.619 247.24 803.979 251.78 795.379 255.29C792.209 256.58 788.909 257.72 785.489 258.73C785.369 264.05 786.079 271.96 790.209 279.4C789.259 279.48 788.309 279.55 787.339 279.55C775.439 279.55 765.039 273.1 759.449 263.5C754.479 263.94 749.379 264.16 744.139 264.16C724.589 264.16 706.569 261.16 691.489 254.91C683.159 251.45 675.709 247.02 669.459 241.49C655.959 229.56 647.909 212.67 647.909 190.24C647.909 167.81 656.209 149.81 670.079 137.59C676.199 132.2 683.429 127.84 691.489 124.42C704.729 118.8 720.249 115.73 737.069 115.07V64.37H715.659C709.759 79.05 695.399 89.42 678.609 89.42C677.409 89.42 676.229 89.34 675.049 89.24C679.979 80.36 680.979 70.93 680.899 64.37H617.829V25.71H490.639V0.0100098H441.569V112.57H632.379V280.75H563.929L543.179 315.88L523.359 280.75H399.389C400.949 285.52 401.769 290.7 401.769 296.33C401.769 313.74 393.709 326.85 380.189 336.12C373.929 340.41 366.479 343.85 358.129 346.54C343.029 351.39 324.979 353.72 305.399 353.72C296.259 353.72 287.499 353.2 279.239 352.16C273.279 362.75 261.939 369.91 248.919 369.91C247.869 369.91 246.839 369.84 245.819 369.75C250.739 360.88 251.159 351.39 250.839 345.75C243.539 343.19 236.999 340.01 231.449 336.12C218.229 326.85 210.429 313.75 210.429 296.33C210.429 278.91 218.469 264.94 232.059 255.46C238.299 251.11 245.739 247.64 254.079 244.94C268.749 240.19 286.249 237.87 305.409 237.87C308.849 237.87 312.239 237.95 315.589 238.1V171.49H234.779C234.099 180.57 234.419 197.11 242.969 212.52C241.279 212.67 239.579 212.78 237.849 212.78C211.739 212.78 189.719 195.35 182.749 171.49H153.539V251.35H102.879C102.429 255.89 102.279 265.37 107.149 274.16C106.249 274.24 105.349 274.3 104.429 274.3C90.1791 274.3 78.2191 264.55 74.8391 251.35H27.4691V171.49H0.0390625V248.05C2.99906 250.21 5.83906 252.48 8.51906 254.9C30.0591 274.29 42.8091 301.85 42.8091 338.49C42.8091 375.13 30.4391 400.91 9.47906 419.86C6.50906 422.54 3.35906 425.05 0.0390625 427.41V540H19.0091V487.69H72.2191V395.48H345.509V519.83H277.399L265.479 540H456.779V482.48H456.769Z" fill="#6C6F77"/>
<path d="M737.07 133.74V115.08C720.25 115.74 704.73 118.81 691.49 124.43C683.43 127.85 676.2 132.21 670.08 137.6C656.21 149.81 647.91 167.17 647.91 190.25C647.91 213.33 655.96 229.57 669.46 241.5C675.71 247.03 683.15 251.46 691.49 254.92C706.56 261.17 724.59 264.17 744.14 264.17C749.38 264.17 754.49 263.94 759.45 263.51C756.67 258.75 755.08 253.21 755.08 247.3L786.1 252.45C786.1 252.45 785.58 254.93 785.49 258.75C788.91 257.74 792.22 256.6 795.38 255.31C803.98 251.8 811.62 247.26 817.97 241.52C831.17 229.59 838.96 212.7 838.96 190.27C838.96 167.84 830.93 149.84 817.37 137.62C815.87 136.27 814.29 134.98 812.65 133.76H737.07V133.74Z" fill="#7D818A"/>
<path d="M755.08 247.28C755.08 253.19 756.68 258.73 759.45 263.49C765.04 273.08 775.43 279.54 787.34 279.54C788.31 279.54 789.27 279.48 790.21 279.39C786.08 271.95 785.37 264.04 785.49 258.72C785.58 254.9 786.1 252.42 786.1 252.42L755.08 247.27V247.28Z" fill="#7D818A"/>
<path d="M315.59 238.1C312.25 237.95 308.86 237.87 305.41 237.87C286.26 237.87 268.75 240.19 254.08 244.94C245.74 247.64 238.3 251.11 232.06 255.46C218.48 264.94 210.43 278.42 210.43 296.33C210.43 314.24 218.23 326.85 231.45 336.12C237 340.01 243.54 343.19 250.84 345.75C250.66 342.62 250.25 340.67 250.25 340.67L283.7 335.12C283.7 341.31 282.08 347.12 279.24 352.15C287.5 353.19 296.26 353.71 305.4 353.71C324.98 353.71 343.03 351.38 358.13 346.53C366.48 343.85 373.93 340.41 380.19 336.11C393.71 326.84 401.77 313.74 401.77 296.32C401.77 290.69 400.95 285.5 399.39 280.74H315.57V238.09L315.59 238.1Z" fill="#7D818A"/>
<path d="M250.26 340.67C250.26 340.67 250.67 342.62 250.85 345.75C251.17 351.39 250.75 360.88 245.83 369.75C246.85 369.84 247.88 369.91 248.93 369.91C261.95 369.91 273.29 362.75 279.25 352.16C282.08 347.12 283.71 341.32 283.71 335.13L250.26 340.68V340.67Z" fill="#7D818A"/>
<path d="M27.47 149.47H153.55V171.49H182.76C181.26 166.37 180.45 160.97 180.45 155.37L235.66 164.53C235.66 164.53 235.11 167.17 234.78 171.5H315.59V112.58H441.58V0.0100098H343.34C339.09 23.21 328.44 41.62 312.96 55.61C303.15 64.48 291.34 71.5 278.05 76.93C255.42 86.17 228.4 90.64 198.85 90.64C169.3 90.64 140.79 86.01 117.49 76.35C104.61 71.01 93.11 64.16 83.45 55.62C67.62 41.63 56.65 23.22 52.27 0.0200098H0V171.5H27.47V149.48V149.47Z" fill="#7D818A"/>
<path d="M83.4495 55.61C93.1095 64.15 104.61 71 117.49 76.34C140.79 86 168.65 90.63 198.85 90.63C229.05 90.63 255.41 86.16 278.05 76.92C291.33 71.5 303.15 64.48 312.96 55.6C328.44 41.61 339.1 23.2 343.34 0H52.2695C56.6495 23.2 67.6195 41.61 83.4495 55.6V55.61Z" fill="#7D818A"/>
<path d="M960 202.62H871.5V343.39H960V202.62Z" fill="#7D818A"/>
<path d="M745.03 482.48H456.77V540V540.01H745.03V540V482.48Z" fill="#7D818A"/>
<path d="M871.5 343.4H420.83V482.48H456.77V422.43H745.02V482.48H787.68C786.57 478.01 785.96 473.34 785.96 468.53L841.17 477.69C841.17 477.69 840.8 479.47 840.49 482.48H960V447.44H871.5V343.4Z" fill="#7D818A"/>
<path d="M745.03 422.43H456.77V482.48H745.03V422.43Z" fill="#8C8F97"/>
<path d="M871.5 343.4V447.44H960V343.4H871.5Z" fill="#7D818A"/>
<path d="M843.381 525.94C845.111 525.94 846.811 525.83 848.501 525.68C839.211 508.94 839.631 490.87 840.501 482.48C840.811 479.46 841.181 477.69 841.181 477.69L785.971 468.53C785.971 473.34 786.571 478.01 787.691 482.48C793.921 507.44 816.491 525.94 843.381 525.94Z" fill="#7D818A"/>
<path d="M180.449 155.36C180.449 160.96 181.269 166.37 182.759 171.48C189.729 195.33 211.749 212.77 237.859 212.77C239.589 212.77 241.289 212.66 242.979 212.51C234.429 197.1 234.109 180.56 234.789 171.48C235.119 167.15 235.669 164.51 235.669 164.51L180.459 155.35L180.449 155.36Z" fill="#7D818A"/>
<path d="M178.771 519.82H227.011L226.111 518.22L278.041 518.73L277.391 519.82H345.511V395.48H72.2109V487.68H178.771V519.82Z" fill="#7D818A"/>
<path d="M178.77 487.68H19.0098V539.99L178.77 540V487.67V487.68ZM72.2098 487.68H178.76V519.82H72.2098V487.68Z" fill="#7D818A"/>
<path d="M617.85 0.0100098H490.66V25.71H617.85V0.0100098Z" fill="#7D818A"/>
<path d="M441.58 171.49H315.59V112.57V280.75H523.38L517.68 270.65L569.61 271.17L563.95 280.76H632.4V112.57H441.59V171.49H441.58ZM315.59 280.75V238.1C331.25 238.8 345.7 241.15 358.14 245.24C360.16 245.9 362.12 246.61 364.03 247.37C364.99 247.75 365.93 248.14 366.85 248.54C368.7 249.34 370.5 250.19 372.23 251.09C373.1 251.54 373.95 252 374.78 252.47C376.45 253.42 378.05 254.41 379.58 255.46C389.11 261.96 396.01 270.34 399.4 280.75H315.58H315.59Z" fill="#7D818A"/>
<path d="M777.6 64.37H737.07V115.07C739.4 114.98 741.76 114.93 744.14 114.93C763.26 114.93 780.74 117.91 795.39 124.04C801.71 126.68 807.5 129.89 812.65 133.74H875.61L869.2 122.38L921.13 122.9L914.73 133.74H960V0.0100098H777.6V64.37Z" fill="#7D818A"/>
<path d="M27.4707 251.34H74.8507C74.2307 248.91 73.9007 246.37 73.9007 243.75L103.271 248.62C103.271 248.62 103.061 249.63 102.891 251.34H153.551V171.48H27.4707V251.34Z" fill="#7D818A"/>
<path d="M27.4707 149.47V171.49H153.551V149.47H27.4707Z" fill="#8C8F97"/>
<path d="M73.9004 243.75C73.9004 246.37 74.2304 248.92 74.8504 251.34C78.2304 264.53 90.1904 274.29 104.44 274.29C105.36 274.29 106.26 274.23 107.16 274.15C102.28 265.36 102.44 255.88 102.89 251.34C103.06 249.63 103.27 248.62 103.27 248.62L73.9004 243.75Z" fill="#7D818A"/>
<path d="M441.58 112.57H315.59V171.49H441.58V112.57Z" fill="#8C8F97"/>
<path d="M650.42 25.71H617.85V64.37H680.92C680.86 59.24 680.15 55.87 680.15 55.87L718.54 49.5C718.54 54.76 717.51 59.77 715.67 64.37H737.08V0.0100098H650.42V25.71Z" fill="#7D818A"/>
<path d="M617.84 25.71H650.42V0.0100098H617.84V25.71Z" fill="#8C8F97"/>
<path d="M680.141 55.87C680.141 55.87 680.851 59.25 680.911 64.37C680.981 70.93 679.991 80.36 675.061 89.24C676.231 89.34 677.421 89.42 678.621 89.42C695.411 89.42 709.771 79.05 715.671 64.37C717.521 59.77 718.541 54.76 718.541 49.5L680.151 55.87H680.141Z" fill="#7D818A"/>
<path d="M737.07 64.37H777.6V0.0100098H737.07V64.37Z" fill="#8C8F97"/>
<path d="M178.761 487.68H72.2109V519.82H178.761V487.68Z" fill="#6C6F77"/>
<path d="M379.59 255.46C378.06 254.41 376.46 253.42 374.79 252.47C373.96 252 373.11 251.54 372.24 251.09C370.51 250.19 368.72 249.34 366.86 248.54C365.93 248.14 364.99 247.75 364.04 247.37C362.13 246.61 360.16 245.9 358.15 245.24C345.71 241.14 331.25 238.8 315.6 238.1V280.75H399.42C396.02 270.35 389.12 261.96 379.6 255.46H379.59Z" fill="#8C8F97"/>
<path d="M517.689 270.65L523.389 280.75L543.199 315.88L563.949 280.75L569.619 271.17L517.689 270.65Z" fill="#7D818A"/>
<path d="M869.211 122.38L875.621 133.74L894.731 167.61L914.731 133.74L921.141 122.89L869.211 122.38Z" fill="#7D818A"/>
<path d="M278.039 518.73L226.109 518.22L227.009 519.82L238.389 540L238.399 540.01H265.469L265.479 540L277.389 519.82L278.039 518.73Z" fill="#7D818A"/>
<path d="M42.81 338.49C42.81 301.85 30.06 274.29 8.52 254.9C5.83 252.48 3 250.21 0.04 248.05C0.03 248.05 0.01 248.03 0 248.02V427.43C0 427.43 0.03 427.41 0.04 427.4C3.35 425.04 6.51 422.53 9.48 419.85C30.44 400.9 42.81 374.09 42.81 338.48V338.49Z" fill="#7D818A"/>
<path d="M812.65 133.74C807.5 129.9 801.7 126.68 795.39 124.04C780.74 117.92 763.27 114.93 744.14 114.93C741.76 114.93 739.4 114.98 737.07 115.07V133.73H812.65V133.74Z" fill="#8C8F97"/>
</svg>
