<svg width="961" height="541" viewBox="0 0 961 541" fill="none" xmlns="http://www.w3.org/2000/svg">
<path d="M178.66 519.77V539.94H238.29L226.91 519.77H178.66Z" fill="#FCA700"/>
<path d="M848.39 525.63C846.7 525.78 845 525.89 843.27 525.89C816.38 525.89 793.81 507.39 787.58 482.43H744.92V539.95H959.93V482.43H840.39C839.52 490.82 839.1 508.9 848.39 525.63Z" fill="#FCA700"/>
<path d="M456.67 482.42H420.73V343.34H871.4V202.57H959.94V133.68H914.64L894.63 167.55L875.52 133.68H812.56C814.2 134.9 815.78 136.19 817.28 137.54C830.84 149.75 838.87 167.11 838.87 190.19C838.87 213.27 831.08 229.51 817.88 241.44C811.53 247.18 803.89 251.72 795.29 255.23C792.12 256.52 788.82 257.66 785.4 258.67C785.28 263.99 785.99 271.9 790.12 279.34C789.17 279.42 788.22 279.49 787.25 279.49C775.35 279.49 764.95 273.04 759.36 263.44C754.39 263.88 749.29 264.1 744.05 264.1C724.5 264.1 706.48 261.1 691.4 254.85C683.07 251.39 675.62 246.96 669.37 241.43C655.87 229.5 647.82 212.61 647.82 190.18C647.82 167.75 656.12 149.75 669.99 137.53C676.11 132.14 683.34 127.78 691.4 124.36C704.64 118.74 720.16 115.67 736.98 115.01V64.31H715.57C709.67 78.99 695.31 89.36 678.52 89.36C677.32 89.36 676.14 89.28 674.96 89.18C679.89 80.3 680.89 70.87 680.81 64.31H617.74V25.66H490.55V0.0100098H441.48V112.52H632.29V280.7H563.84L543.09 315.83L523.27 280.7H399.3C400.86 285.47 401.68 290.65 401.68 296.28C401.68 313.69 393.62 326.8 380.1 336.07C373.84 340.36 366.39 343.8 358.04 346.48C342.94 351.33 324.89 353.66 305.31 353.66C296.17 353.66 287.41 353.14 279.15 352.1C273.19 362.69 261.85 369.85 248.83 369.85C247.78 369.85 246.75 369.78 245.73 369.69C250.65 360.82 251.07 351.33 250.75 345.69C243.45 343.13 236.91 339.95 231.36 336.06C218.14 326.79 210.34 313.69 210.34 296.27C210.34 278.85 218.38 264.88 231.97 255.4C238.21 251.05 245.65 247.58 253.99 244.88C268.66 240.13 286.16 237.81 305.32 237.81C308.76 237.81 312.15 237.89 315.5 238.04V171.43H234.69C234.01 180.51 234.33 197.05 242.88 212.46C241.19 212.61 239.49 212.72 237.76 212.72C211.65 212.72 189.63 195.29 182.66 171.43H153.45V251.29H102.79C102.34 255.83 102.19 265.31 107.06 274.1C106.16 274.18 105.26 274.24 104.34 274.24C90.0898 274.24 78.1298 264.49 74.7498 251.29H27.3698V171.43H0.00976562V248.05C2.93977 250.19 5.74977 252.45 8.41977 254.84C29.9598 274.23 42.7098 301.79 42.7098 338.43C42.7098 375.07 30.3398 400.85 9.37977 419.8C6.43977 422.46 3.29977 424.95 0.0197656 427.3V539.94H18.9098V487.63H72.1198V395.42H345.41V519.77H277.3L265.38 539.94H456.68V482.42H456.67Z" fill="#FCA700"/>
<path d="M736.971 133.68V115.02C720.151 115.68 704.631 118.75 691.391 124.37C683.331 127.79 676.101 132.15 669.981 137.54C656.111 149.75 647.811 167.11 647.811 190.19C647.811 213.27 655.861 229.51 669.361 241.44C675.611 246.97 683.051 251.4 691.391 254.86C706.471 261.11 724.491 264.11 744.041 264.11C749.281 264.11 754.391 263.88 759.351 263.45C756.571 258.69 754.981 253.15 754.981 247.24L786.001 252.39C786.001 252.39 785.481 254.87 785.391 258.69C788.811 257.68 792.121 256.54 795.281 255.25C803.881 251.74 811.521 247.2 817.871 241.46C831.071 229.53 838.861 212.64 838.861 190.21C838.861 167.78 830.831 149.78 817.271 137.56C815.771 136.21 814.191 134.92 812.551 133.7H736.971V133.68Z" fill="#FA8700"/>
<path d="M754.98 247.22C754.98 253.13 756.581 258.67 759.351 263.43C764.941 273.02 775.33 279.48 787.24 279.48C788.21 279.48 789.17 279.42 790.11 279.33C785.98 271.89 785.271 263.98 785.391 258.66C785.481 254.84 786 252.36 786 252.36L754.98 247.21V247.22Z" fill="#FA8700"/>
<path d="M315.49 280.7V238.05C312.15 237.9 308.76 237.82 305.31 237.82C286.16 237.82 268.65 240.14 253.98 244.89C245.64 247.59 238.2 251.06 231.96 255.41C218.38 264.89 210.33 278.37 210.33 296.28C210.33 314.19 218.13 326.8 231.35 336.07C236.9 339.96 243.44 343.14 250.74 345.7C250.56 342.57 250.15 340.62 250.15 340.62L283.6 335.07C283.6 341.26 281.98 347.07 279.14 352.1C287.4 353.14 296.16 353.66 305.3 353.66C324.88 353.66 342.93 351.33 358.03 346.48C366.38 343.8 373.83 340.36 380.09 336.07C393.61 326.8 401.67 313.7 401.67 296.28C401.67 290.65 400.85 285.46 399.29 280.7H315.47H315.49Z" fill="#FFC716"/>
<path d="M250.16 340.62C250.16 340.62 250.57 342.57 250.75 345.7C251.07 351.34 250.65 360.83 245.73 369.7C246.75 369.79 247.78 369.86 248.83 369.86C261.85 369.86 273.19 362.7 279.15 352.11C281.98 347.07 283.61 341.27 283.61 335.08L250.16 340.63V340.62Z" fill="#FFC716"/>
<path d="M27.3698 149.42H153.45V171.44H182.66C181.16 166.32 180.35 160.92 180.35 155.32L235.56 164.48C235.56 164.48 235.01 167.12 234.68 171.45H315.49V112.53H441.48V0.0100098H343.23C338.98 23.19 328.32 41.58 312.85 55.56C303.04 64.43 291.23 71.45 277.94 76.88C255.31 86.12 228.29 90.59 198.74 90.59C169.19 90.59 140.68 85.96 117.38 76.3C104.5 70.96 92.9998 64.11 83.3398 55.57C67.5198 41.59 56.5498 23.2 52.1698 0.0200098H0.00976562V171.44H27.3698V149.42Z" fill="#FA8700"/>
<path d="M83.3499 55.56C93.0099 64.1 104.51 70.95 117.39 76.29C140.69 85.95 168.55 90.58 198.75 90.58C228.95 90.58 255.31 86.11 277.95 76.87C291.23 71.45 303.05 64.43 312.86 55.55C328.33 41.57 338.98 23.18 343.24 0H52.1699C56.5499 23.18 67.5299 41.57 83.3399 55.55L83.3499 55.56Z" fill="#FFC716"/>
<path d="M871.4 202.57V343.34H960.01V202.57H959.93H871.4Z" fill="#FA8700"/>
<path d="M456.67 482.42V539.94V540.01H744.92V539.94V482.42H456.67Z" fill="#FA8700"/>
<path d="M871.4 447.39V343.35H420.73V482.43H456.67V422.38H744.92V482.43H787.58C786.47 477.96 785.86 473.29 785.86 468.48L841.07 477.64C841.07 477.64 840.7 479.42 840.39 482.43H960.01V447.39H871.4Z" fill="#FFC716"/>
<path d="M744.92 482.42V422.38H456.67V482.42H744.92Z" fill="#FCA700"/>
<path d="M960.01 348.34H876.4V442.38H960.01V348.34Z" fill="#FFC716"/>
<path d="M871.4 343.34V447.39H960.01V442.39H876.4V348.34H960.01V343.34H871.4Z" fill="#FCA700"/>
<path d="M843.269 525.89C844.999 525.89 846.699 525.78 848.389 525.63C839.099 508.89 839.519 490.82 840.389 482.43C840.699 479.41 841.069 477.64 841.069 477.64L785.859 468.48C785.859 473.29 786.459 477.96 787.579 482.43C793.809 507.39 816.379 525.89 843.269 525.89Z" fill="#FFC716"/>
<path d="M180.35 155.31C180.35 160.91 181.17 166.32 182.66 171.43C189.63 195.28 211.65 212.72 237.76 212.72C239.49 212.72 241.19 212.61 242.88 212.46C234.33 197.05 234.01 180.51 234.69 171.43C235.01 167.1 235.57 164.46 235.57 164.46L180.36 155.3L180.35 155.31Z" fill="#FA8700"/>
<path d="M178.659 519.77H226.909L225.999 518.17L277.929 518.68L277.289 519.77H345.399V395.43H72.1094V487.63H178.659V519.77Z" fill="#FFC716"/>
<path d="M178.66 487.63H18.9004V540.01H178.66V487.63ZM72.1104 487.63H178.66V519.77H72.1104V487.63Z" fill="#FA8700"/>
<path d="M617.739 0.0100098H490.549V25.66H617.739V0.0100098Z" fill="#FA8700"/>
<path d="M441.48 171.43H315.49V238.04C331.15 238.74 345.6 241.09 358.04 245.18C361.07 246.18 363.98 247.28 366.76 248.48C369.54 249.68 372.19 251 374.69 252.42C376.36 253.37 377.96 254.36 379.49 255.41C389.02 261.91 395.92 270.29 399.31 280.7H523.28L517.58 270.6L569.51 271.12L563.85 280.71H632.3V112.52H441.49V171.44L441.48 171.43Z" fill="#FFC716"/>
<path d="M736.971 64.32V115.02C739.301 114.93 741.661 114.88 744.041 114.88C763.161 114.88 780.641 117.86 795.291 123.99C801.611 126.63 807.401 129.84 812.551 133.69H875.511L869.101 122.33L921.031 122.85L914.631 133.69H960.011V0.0100098H777.501V64.32H736.971Z" fill="#FFC716"/>
<path d="M27.3691 251.29H74.7491C74.1291 248.86 73.7991 246.32 73.7991 243.7L103.169 248.57C103.169 248.57 102.959 249.58 102.789 251.29H153.449V171.43H27.3691V251.29Z" fill="#FFC716"/>
<path d="M153.449 149.42H27.3691V171.43H153.449V149.42Z" fill="#FCA700"/>
<path d="M73.7988 243.7C73.7988 246.32 74.1288 248.87 74.7488 251.29C78.1288 264.48 90.0888 274.24 104.339 274.24C105.259 274.24 106.159 274.18 107.059 274.1C102.179 265.31 102.339 255.83 102.789 251.29C102.959 249.58 103.169 248.57 103.169 248.57L73.7988 243.7Z" fill="#FFC716"/>
<path d="M436.48 117.52H320.49V166.44H436.48V117.52Z" fill="#FFC716"/>
<path d="M441.48 112.52H315.49V171.44H441.48V112.52ZM320.49 166.43V117.51H436.48V166.43H320.49Z" fill="#FCA700"/>
<path d="M650.31 25.66H617.74V64.32H680.81C680.75 59.19 680.04 55.82 680.04 55.82L718.43 49.45C718.43 54.71 717.4 59.72 715.56 64.32H736.97V0.0100098H650.31V25.66Z" fill="#FFC716"/>
<path d="M617.74 25.66H650.31V0.0100098H617.74V25.66Z" fill="#FCA700"/>
<path d="M680.039 55.8099C680.039 55.8099 680.749 59.1899 680.809 64.3099C680.879 70.8699 679.889 80.2999 674.959 89.1799C676.129 89.2799 677.319 89.3599 678.519 89.3599C695.309 89.3599 709.669 78.9899 715.569 64.3099C717.419 59.7099 718.439 54.6999 718.439 49.4399L680.049 55.8099H680.039Z" fill="#FFC716"/>
<path d="M772.501 0.0100098H741.971V59.32H772.501V0.0100098Z" fill="#FFC716"/>
<path d="M736.971 64.32H777.501V0.0100098H772.501V59.32H741.971V0.0100098H736.971V64.32Z" fill="#FCA700"/>
<path d="M173.659 492.63H77.1094V514.77H173.659V492.63Z" fill="#FFC716"/>
<path d="M178.659 519.77V487.63H72.1094V519.77H178.659ZM77.1094 492.63H173.659V514.77H77.1094V492.63Z" fill="#FCA700"/>
<path d="M399.31 280.7C395.91 270.3 389.01 261.91 379.49 255.41C377.96 254.36 376.36 253.37 374.69 252.42C372.19 251 369.54 249.69 366.76 248.48C363.98 247.28 361.07 246.18 358.04 245.18C345.6 241.08 331.14 238.74 315.49 238.04V280.69H399.31V280.7Z" fill="#FCA700"/>
<path d="M517.58 270.6L523.28 280.7L543.1 315.83L563.85 280.7L569.51 271.11L517.58 270.6Z" fill="#FFC716"/>
<path d="M869.109 122.32L875.509 133.68L894.619 167.55L914.629 133.68L921.039 122.84L869.109 122.32Z" fill="#FFC716"/>
<path d="M277.93 518.68L226 518.17L226.91 519.77L238.29 539.94L238.33 540.01H265.33L265.37 539.94L277.29 519.77L277.93 518.68Z" fill="#FFC716"/>
<path d="M42.7 338.43C42.7 301.79 29.95 274.23 8.41 254.84C5.75 252.44 2.94 250.19 0 248.05V427.3C3.29 424.96 6.42 422.47 9.36 419.8C30.32 400.85 42.69 374.04 42.69 338.43H42.7Z" fill="#FA8700"/>
<path d="M812.551 133.68C807.401 129.84 801.601 126.62 795.291 123.98C780.641 117.86 763.171 114.87 744.041 114.87C741.661 114.87 739.301 114.92 736.971 115.01V133.67H812.551V133.68Z" fill="#FCA700"/>
</svg>
