<svg width="960" height="540" viewBox="0 0 960 540" fill="none" xmlns="http://www.w3.org/2000/svg">
<g clip-path="url(#clip0_287_82757)">
<path d="M960.49 0.269531H0.490234V540.27H960.49V0.269531Z" fill="#CFE1FD"/>
<path d="M341 138.34H125.25V194.2H151.67V179.57H314.57V194.2H340.99V138.34H341ZM314.9 171.68C311.35 171.68 308.48 168.81 308.48 165.26C308.48 161.71 311.35 158.84 314.9 158.84C318.45 158.84 321.32 161.72 321.32 165.26C321.32 168.8 318.45 171.68 314.9 171.68Z" fill="#E9F2FE"/>
<path d="M314.57 194.2H151.67V205.21H314.57V194.2Z" fill="#E9F2FE"/>
<path d="M151.67 307.989V293.359H125.25V349.219H341V293.359H314.58V307.989H151.68H151.67ZM314.9 317.449C318.45 317.449 321.32 320.329 321.32 323.869C321.32 327.409 318.45 330.289 314.9 330.289C311.35 330.289 308.48 327.419 308.48 323.869C308.48 320.319 311.35 317.449 314.9 317.449Z" fill="#E9F2FE"/>
<path d="M314.57 282.35H151.67V293.36H314.57V282.35Z" fill="#E9F2FE"/>
<path d="M341 215.21H125.25V271.07H341V215.21ZM195.94 247.69H151.34V241.44H195.94V247.69ZM268.7 250.99C265.15 250.99 262.28 248.11 262.28 244.57C262.28 241.03 265.15 238.15 268.7 238.15C272.25 238.15 275.12 241.02 275.12 244.57C275.12 248.12 272.25 250.99 268.7 250.99ZM291.8 250.99C288.25 250.99 285.38 248.11 285.38 244.57C285.38 241.03 288.25 238.15 291.8 238.15C295.35 238.15 298.22 241.02 298.22 244.57C298.22 248.12 295.35 250.99 291.8 250.99ZM314.9 250.99C311.35 250.99 308.48 248.11 308.48 244.57C308.48 241.03 311.35 238.15 314.9 238.15C318.45 238.15 321.32 241.02 321.32 244.57C321.32 248.12 318.45 250.99 314.9 250.99Z" fill="#E9F2FE"/>
<path d="M697.33 450.19V464.82H723.75V408.96H508V464.82H534.42V450.19H697.32H697.33ZM695.84 428.08C699.39 428.08 702.26 430.95 702.26 434.5C702.26 438.05 699.38 440.92 695.84 440.92C692.3 440.92 689.42 438.05 689.42 434.5C689.42 430.95 692.29 428.08 695.84 428.08Z" fill="#E9F2FE"/>
<path d="M697.33 464.82H534.43V475.83H697.33V464.82Z" fill="#E9F2FE"/>
<path d="M723.75 485.84H508V540.54H723.75V485.84ZM576.88 516.93H532.28V510.68H576.88V516.93ZM649.64 520.23C646.09 520.23 643.22 517.35 643.22 513.81C643.22 510.27 646.09 507.39 649.64 507.39C653.19 507.39 656.06 510.27 656.06 513.81C656.06 517.35 653.19 520.23 649.64 520.23ZM672.74 520.23C669.19 520.23 666.32 517.35 666.32 513.81C666.32 510.27 669.19 507.39 672.74 507.39C676.29 507.39 679.16 510.27 679.16 513.81C679.16 517.35 676.29 520.23 672.74 520.23ZM695.84 520.23C692.29 520.23 689.42 517.35 689.42 513.81C689.42 510.27 692.29 507.39 695.84 507.39C699.39 507.39 702.26 510.27 702.26 513.81C702.26 517.35 699.38 520.23 695.84 520.23Z" fill="#E9F2FE"/>
<path d="M431.339 74.16L441.659 0H392.019L337.279 74.16H431.339Z" fill="#E9F2FE"/>
<path d="M409.951 227.68L578.031 0H487.991L477.661 74.16H477.231H431.771L442.101 0H441.661L431.341 74.16L409.951 227.68Z" fill="#E9F2FE"/>
<path d="M0.00976562 39.0898V134.27L70.2698 39.0898H0.00976562Z" fill="#E9F2FE"/>
<path d="M960.971 173.829V112.859L914.641 113.879L960.971 173.829Z" fill="#E9F2FE"/>
<path d="M851.92 237.13L960.97 234.73V174.76L851.92 237.13Z" fill="#E9F2FE"/>
<path d="M441.679 517.85C446.159 507.09 448.769 494.5 448.769 479.76C448.769 465.02 446.149 452.02 441.599 441.11C431.579 417.12 411.779 402.62 387.509 395.85C376.179 392.66 363.849 391.15 351.129 391.15C337.729 391.15 324.999 392.67 313.289 395.93C312.519 396.14 311.779 396.38 311.029 396.61C316.099 398.07 320.939 399.82 325.519 401.87C334.619 405.92 342.809 411.19 349.619 417.79C364.529 432.13 373.309 453.33 373.309 479.73V479.95C373.309 506.34 364.789 526.23 350.279 540.31C350.199 540.39 350.119 540.46 350.039 540.54H426.869C432.959 534.19 437.979 526.66 441.679 517.85Z" fill="#E9F2FE"/>
<path d="M259.011 518.09H259.031C254.571 507.32 252.011 494.97 252.011 479.99C252.011 465.01 254.551 452.25 259.101 441.34C268.741 418.25 287.481 403.92 310.991 396.82C316.071 398.28 320.921 400.04 325.511 402.11C334.611 406.16 342.801 411.43 349.611 418.03C364.511 432.35 373.271 453.51 373.291 479.86V479.76C373.291 453.37 364.521 432.16 349.601 417.82C342.791 411.22 334.611 405.95 325.501 401.9C320.921 399.84 316.071 398.1 311.001 396.64C298.331 392.99 284.261 391.18 269.271 391.18C248.291 391.18 228.051 394.79 211.571 402.35C202.721 406.4 194.771 411.5 188.131 417.83C172.961 432.17 163.791 452.68 163.791 479.77C163.791 506.86 172.641 526.05 187.391 540.13C187.551 540.28 187.711 540.42 187.861 540.56H273.591C267.581 534.27 262.641 526.82 259.001 518.1L259.011 518.09Z" fill="#E9F2FE"/>
<path d="M709.74 347.07L811.21 453.42V394.23H774.48V296.43H811.21V237.25L709.74 347.07Z" fill="#E9F2FE"/>
<path d="M960.971 296.43H811.211V394.23H960.971V296.43Z" fill="#E9F2FE"/>
<path d="M95.3594 100.54C95.3594 100.54 95.3594 100.57 95.3794 100.57L286.399 99.72V99.69C291.749 67.86 300.679 33.49 313.269 0H120.849C109.569 28.13 100.319 62.05 95.3594 100.54Z" fill="#E9F2FE"/>
<path d="M960.971 455.58L857.251 456.04H857.261C857.261 456.04 857.251 456.04 857.241 456.04C845.381 478.89 834.671 507.42 827.051 540.53H960.961V455.57L960.971 455.58Z" fill="#E9F2FE"/>
<path d="M620.07 0L603.42 51.56L699.92 51.83L716.67 0H620.07Z" fill="#E9F2FE"/>
<path d="M691.029 79.38L924.519 80.03L814.649 0H765.229L836.919 52.21L699.919 51.83L691.029 79.38Z" fill="#E9F2FE"/>
<path d="M84.9698 365.57C84.9898 365.49 85.0198 365.41 85.0398 365.33C88.7498 352.13 90.5298 338.46 90.5298 322.91C90.5298 322.66 90.5298 322.42 90.5198 322.17C90.5198 321.92 90.5298 321.68 90.5298 321.43C90.5298 305.88 88.7598 292.21 85.0398 279.01C85.0198 278.93 84.9898 278.85 84.9698 278.77C76.9698 250 60.0498 227.07 32.2598 215.48C22.7598 211.53 12.1698 208.9 0.00976562 207.84V249.1C9.21977 250.58 16.8798 253.81 23.3098 258.45C23.6398 258.68 23.9498 258.92 24.2798 259.16C26.5398 260.87 28.6498 262.76 30.6098 264.82C35.1998 269.68 38.8698 275.4 41.7198 281.87C46.8898 293.45 49.3698 307.24 49.4098 322.18C49.3698 337.12 46.8898 350.92 41.7198 362.49C38.8698 368.95 35.1998 374.68 30.6098 379.54C28.6498 381.6 26.5398 383.48 24.2798 385.2C23.9598 385.44 23.6398 385.68 23.3098 385.91C16.8798 390.55 9.21977 393.78 0.00976562 395.26V436.52C12.1698 435.46 22.7498 432.83 32.2598 428.88C60.0598 417.28 76.9798 394.36 84.9698 365.59V365.57Z" fill="#E9F2FE"/>
<path d="M20.58 336.75C21.84 332.26 22.44 327.61 22.44 322.33C22.44 317.05 21.84 312.01 20.55 307.37C17.84 297.6 12.09 289.82 2.66 285.88C1.8 285.52 0.91 285.21 0 284.92V359.14C0.92 358.85 1.81 358.53 2.66 358.18C12.12 354.22 17.9 346.38 20.58 336.75Z" fill="#E9F2FE"/>
<path d="M453.291 315.359C455.371 312.609 457.671 310.049 460.171 307.659C466.081 302.069 473.041 297.619 480.901 294.149C494.981 287.869 511.751 284.849 529.921 284.799C548.091 284.849 564.861 287.869 578.941 294.149C586.801 297.619 593.761 302.069 599.671 307.659C602.171 310.049 604.461 312.609 606.551 315.359C606.841 315.749 607.131 316.139 607.411 316.529C613.791 325.359 617.991 336.109 619.391 349.359H669.301C668.311 332.649 664.941 318.359 659.661 305.639C645.561 271.839 617.681 251.269 582.701 241.539C582.601 241.509 582.511 241.479 582.411 241.449C566.351 236.929 549.741 234.779 530.831 234.779C530.531 234.779 530.231 234.789 529.931 234.789C529.631 234.789 529.331 234.779 529.031 234.779C510.121 234.779 493.511 236.929 477.451 241.449C477.351 241.479 477.261 241.509 477.161 241.539C442.171 251.259 414.301 271.829 400.201 305.629C394.911 318.349 391.551 332.639 390.561 349.349H440.471C441.871 336.109 446.061 325.349 452.451 316.509C452.731 316.119 453.031 315.739 453.311 315.339L453.291 315.359Z" fill="#E9F2FE"/>
<path d="M573.69 341.62C568.88 330.12 559.34 323.09 547.63 319.83C542.17 318.3 536.52 317.57 530.1 317.57C523.68 317.57 517.56 318.3 511.91 319.87H511.9C500.03 323.17 490.58 330.16 485.78 341.62C484.78 344.03 484.01 346.6 483.43 349.39H576.06C575.49 346.6 574.68 344.01 573.69 341.62Z" fill="#E9F2FE"/>
<path d="M101.05 472.71H0.00976562V540.54H101.05V472.71Z" fill="#E9F2FE"/>
<path d="M764.73 132.151C758.27 145.961 746.85 147.141 733.93 141.101L676.35 114.161C655.6 104.451 632.17 96.4206 610.5 98.4706C589.37 100.471 569.92 112.071 556.31 141.161C551.74 150.921 548.22 158.441 545.5 164.261L537.16 182.081L593.31 208.351L601.65 190.531C611.24 170.041 625.23 166.811 643.51 175.361L709.46 206.211C755.36 227.681 790.7 215.981 810.93 172.751C818.02 157.601 820.85 148.061 823.09 140.961L770.51 116.361C768.66 121.471 766.63 128.121 764.75 132.131L764.73 132.151Z" fill="#E9F2FE"/>
<path d="M308.48 323.88C308.48 327.43 311.35 330.3 314.9 330.3C318.45 330.3 321.32 327.43 321.32 323.88C321.32 320.33 318.45 317.46 314.9 317.46C311.35 317.46 308.48 320.34 308.48 323.88Z" fill="#CFE1FD"/>
<path d="M314.9 238.15C311.35 238.15 308.48 241.02 308.48 244.57C308.48 248.12 311.35 250.99 314.9 250.99C318.45 250.99 321.32 248.11 321.32 244.57C321.32 241.03 318.45 238.15 314.9 238.15Z" fill="#CFE1FD"/>
<path d="M314.9 158.84C311.35 158.84 308.48 161.72 308.48 165.26C308.48 168.8 311.35 171.68 314.9 171.68C318.45 171.68 321.32 168.81 321.32 165.26C321.32 161.71 318.45 158.84 314.9 158.84Z" fill="#CFE1FD"/>
<path d="M291.801 238.15C288.251 238.15 285.381 241.02 285.381 244.57C285.381 248.12 288.251 250.99 291.801 250.99C295.351 250.99 298.221 248.11 298.221 244.57C298.221 241.03 295.351 238.15 291.801 238.15Z" fill="#CFE1FD"/>
<path d="M268.699 238.15C265.149 238.15 262.279 241.02 262.279 244.57C262.279 248.12 265.149 250.99 268.699 250.99C272.249 250.99 275.119 248.11 275.119 244.57C275.119 241.03 272.249 238.15 268.699 238.15Z" fill="#CFE1FD"/>
<path d="M195.94 241.439H151.34V247.689H195.94V241.439Z" fill="#CFE1FD"/>
<path d="M695.84 507.38C692.29 507.38 689.42 510.26 689.42 513.8C689.42 517.34 692.29 520.22 695.84 520.22C699.39 520.22 702.26 517.34 702.26 513.8C702.26 510.26 699.38 507.38 695.84 507.38Z" fill="#CFE1FD"/>
<path d="M695.84 440.92C699.386 440.92 702.26 438.046 702.26 434.5C702.26 430.954 699.386 428.08 695.84 428.08C692.294 428.08 689.42 430.954 689.42 434.5C689.42 438.046 692.294 440.92 695.84 440.92Z" fill="#CFE1FD"/>
<path d="M672.74 507.38C669.19 507.38 666.32 510.26 666.32 513.8C666.32 517.34 669.19 520.22 672.74 520.22C676.29 520.22 679.16 517.34 679.16 513.8C679.16 510.26 676.29 507.38 672.74 507.38Z" fill="#CFE1FD"/>
<path d="M649.641 507.38C646.091 507.38 643.221 510.26 643.221 513.8C643.221 517.34 646.091 520.22 649.641 520.22C653.191 520.22 656.061 517.34 656.061 513.8C656.061 510.26 653.191 507.38 649.641 507.38Z" fill="#CFE1FD"/>
<path d="M576.879 510.68H532.279V516.93H576.879V510.68Z" fill="#CFE1FD"/>
</g>
<defs>
<clipPath id="clip0_287_82757">
<rect width="960" height="540" fill="white"/>
</clipPath>
</defs>
</svg>
