<svg width="960" height="540" viewBox="0 0 960 540" fill="none" xmlns="http://www.w3.org/2000/svg">
<g clip-path="url(#clip0_287_82801)">
<path d="M967 -3.18066H-7V543.819H967V-3.18066Z" fill="#D3F1A7"/>
<path d="M340.99 138.34H125.24V194.2H151.66V179.57H314.56V194.2H340.98V138.34H340.99ZM314.89 171.68C311.34 171.68 308.47 168.8 308.47 165.26C308.47 161.72 311.34 158.84 314.89 158.84C318.44 158.84 321.31 161.72 321.31 165.26C321.31 168.8 318.44 171.68 314.89 171.68Z" fill="#EFFFD6"/>
<path d="M314.56 194.2H151.66V205.21H314.56V194.2Z" fill="#EFFFD6"/>
<path d="M340.99 293.359H314.57V307.989H151.67V293.359H125.25V349.219H341V293.359H340.99ZM314.89 330.299C311.34 330.299 308.47 327.429 308.47 323.879C308.47 320.329 311.34 317.459 314.89 317.459C318.44 317.459 321.31 320.339 321.31 323.879C321.31 327.419 318.44 330.299 314.89 330.299Z" fill="#EFFFD6"/>
<path d="M314.56 282.35H151.66V293.36H314.56V282.35Z" fill="#EFFFD6"/>
<path d="M340.99 215.21H125.24V271.07H340.99V215.21ZM195.93 247.69H151.33V241.44H195.93V247.69ZM268.69 250.99C265.14 250.99 262.27 248.11 262.27 244.57C262.27 241.03 265.14 238.15 268.69 238.15C272.24 238.15 275.11 241.02 275.11 244.57C275.11 248.12 272.24 250.99 268.69 250.99ZM291.79 250.99C288.24 250.99 285.37 248.11 285.37 244.57C285.37 241.03 288.24 238.15 291.79 238.15C295.34 238.15 298.21 241.02 298.21 244.57C298.21 248.12 295.34 250.99 291.79 250.99ZM314.89 250.99C311.34 250.99 308.47 248.11 308.47 244.57C308.47 241.03 311.34 238.15 314.89 238.15C318.44 238.15 321.31 241.02 321.31 244.57C321.31 248.12 318.44 250.99 314.89 250.99Z" fill="#EFFFD6"/>
<path d="M697.32 450.19V464.82H723.74V408.96H507.99V464.82H534.41V450.19H697.31H697.32ZM695.83 428.07C699.38 428.07 702.25 430.95 702.25 434.49C702.25 438.03 699.38 440.91 695.83 440.91C692.28 440.91 689.41 438.03 689.41 434.49C689.41 430.95 692.28 428.07 695.83 428.07Z" fill="#EFFFD6"/>
<path d="M697.32 464.82H534.42V475.83H697.32V464.82Z" fill="#EFFFD6"/>
<path d="M723.75 485.83H508V540.53H723.75V485.83ZM576.87 516.93H532.27V510.68H576.87V516.93ZM649.63 520.23C646.08 520.23 643.21 517.35 643.21 513.81C643.21 510.27 646.08 507.39 649.63 507.39C653.18 507.39 656.05 510.27 656.05 513.81C656.05 517.35 653.18 520.23 649.63 520.23ZM672.73 520.23C669.18 520.23 666.31 517.35 666.31 513.81C666.31 510.27 669.18 507.39 672.73 507.39C676.28 507.39 679.15 510.27 679.15 513.81C679.15 517.35 676.28 520.23 672.73 520.23ZM695.83 520.23C692.28 520.23 689.41 517.35 689.41 513.81C689.41 510.27 692.28 507.39 695.83 507.39C699.38 507.39 702.25 510.27 702.25 513.81C702.25 517.35 699.38 520.23 695.83 520.23Z" fill="#EFFFD6"/>
<path d="M441.66 0H392.01L337.27 74.16H431.33L441.66 0Z" fill="#EFFFD6"/>
<path d="M409.949 227.68L578.019 0H487.979L477.649 74.16H477.219H431.759L442.089 0H441.659L431.329 74.16L409.949 227.68Z" fill="#EFFFD6"/>
<path d="M0 39.0898V134.27L70.26 39.0898H0Z" fill="#EFFFD6"/>
<path d="M960.961 173.829V112.859L914.631 113.879L960.961 173.829Z" fill="#EFFFD6"/>
<path d="M851.91 237.13L960.96 234.73V174.76L851.91 237.13Z" fill="#EFFFD6"/>
<path d="M441.67 517.85C446.15 507.09 448.76 494.49 448.76 479.76C448.76 465.03 446.14 452.02 441.59 441.11C431.57 417.12 411.77 402.62 387.5 395.85C376.17 392.66 363.84 391.15 351.12 391.15C337.72 391.15 324.99 392.67 313.28 395.93C312.51 396.14 311.77 396.38 311.02 396.61C316.09 398.07 320.93 399.82 325.51 401.87C334.61 405.92 342.8 411.19 349.61 417.79C364.52 432.13 373.3 453.33 373.3 479.73V479.95C373.3 506.34 364.78 526.23 350.27 540.31C350.19 540.39 350.11 540.46 350.03 540.54H426.86C432.95 534.19 437.97 526.66 441.67 517.85Z" fill="#EFFFD6"/>
<path d="M259 518.08H259.02C254.56 507.31 252 494.96 252 479.98C252 465 254.54 452.24 259.08 441.33C268.72 418.24 287.46 403.91 310.97 396.81C316.05 398.27 320.9 400.03 325.49 402.1C334.59 406.15 342.78 411.42 349.59 418.02C364.49 432.34 373.25 453.5 373.27 479.85V479.75C373.27 453.36 364.5 432.15 349.58 417.82C342.77 411.22 334.59 405.95 325.48 401.9C320.9 399.84 316.05 398.1 310.98 396.64C298.31 392.99 284.24 391.18 269.25 391.18C248.27 391.18 228.03 394.79 211.55 402.35C202.7 406.4 194.75 411.5 188.11 417.83C172.94 432.17 163.77 452.68 163.77 479.76C163.77 506.84 172.62 526.04 187.37 540.12C187.53 540.27 187.69 540.41 187.84 540.55H273.57C267.56 534.26 262.62 526.81 258.98 518.09L259 518.08Z" fill="#EFFFD6"/>
<path d="M709.73 347.07L811.201 453.42V394.23H774.47V296.43H811.201V237.25L709.73 347.07Z" fill="#EFFFD6"/>
<path d="M960.959 296.43H811.199V394.23H960.959V296.43Z" fill="#EFFFD6"/>
<path d="M286.4 99.72V99.69C291.75 67.86 300.68 33.49 313.27 0H120.84C109.56 28.13 100.31 62.05 95.3496 100.54C95.3496 100.55 95.3496 100.57 95.3696 100.57L286.39 99.72H286.4Z" fill="#EFFFD6"/>
<path d="M960.959 455.58L857.239 456.04H857.249C857.249 456.04 857.239 456.04 857.229 456.04C845.369 478.89 834.659 507.42 827.039 540.53H960.949V455.57L960.959 455.58Z" fill="#EFFFD6"/>
<path d="M620.06 0L603.41 51.56L699.92 51.83L716.66 0H620.06Z" fill="#EFFFD6"/>
<path d="M814.64 0H765.219L836.909 52.21L699.919 51.83L691.02 79.38L924.52 80.03L814.64 0Z" fill="#EFFFD6"/>
<path d="M84.96 365.57C84.98 365.49 85.01 365.41 85.03 365.33C88.74 352.13 90.52 338.46 90.52 322.91C90.52 322.66 90.52 322.42 90.51 322.17C90.51 321.92 90.52 321.68 90.52 321.43C90.52 305.88 88.75 292.21 85.03 279.01C85.01 278.93 84.98 278.85 84.96 278.77C76.96 250 60.04 227.07 32.25 215.48C22.75 211.53 12.16 208.9 0 207.84V249.1C9.21 250.58 16.87 253.81 23.3 258.45C23.63 258.68 23.94 258.92 24.27 259.16C26.53 260.87 28.64 262.76 30.6 264.82C35.19 269.68 38.86 275.4 41.71 281.87C46.88 293.45 49.36 307.24 49.4 322.18C49.36 337.12 46.88 350.92 41.71 362.49C38.86 368.95 35.19 374.68 30.6 379.54C28.64 381.6 26.53 383.48 24.27 385.2C23.95 385.44 23.63 385.68 23.3 385.91C16.87 390.55 9.21 393.78 0 395.26V436.52C12.16 435.46 22.74 432.83 32.25 428.88C60.05 417.28 76.97 394.36 84.96 365.59V365.57Z" fill="#EFFFD6"/>
<path d="M20.58 336.75C21.84 332.26 22.44 327.61 22.44 322.33C22.44 317.05 21.84 312.01 20.55 307.37C17.84 297.6 12.09 289.82 2.66 285.88C1.8 285.52 0.91 285.21 0 284.92V359.14C0.92 358.85 1.81 358.53 2.66 358.18C12.12 354.22 17.9 346.38 20.58 336.75Z" fill="#EFFFD6"/>
<path d="M453.281 315.36C455.361 312.61 457.661 310.05 460.161 307.66C466.071 302.07 473.031 297.62 480.891 294.15C494.971 287.87 511.741 284.85 529.911 284.8C548.081 284.85 564.851 287.87 578.931 294.15C586.791 297.62 593.751 302.07 599.661 307.66C602.161 310.05 604.451 312.61 606.541 315.36C606.831 315.75 607.121 316.14 607.401 316.53C613.781 325.36 617.981 336.11 619.381 349.36H669.291C668.301 332.65 664.931 318.36 659.651 305.64C645.551 271.84 617.671 251.27 582.691 241.54C582.591 241.51 582.501 241.48 582.401 241.45C566.341 236.93 549.731 234.78 530.821 234.78C530.521 234.78 530.221 234.79 529.921 234.79C529.621 234.79 529.321 234.78 529.021 234.78C510.111 234.78 493.501 236.93 477.441 241.45C477.341 241.48 477.251 241.51 477.151 241.54C442.161 251.26 414.291 271.83 400.191 305.63C394.901 318.35 391.541 332.64 390.551 349.35H440.461C441.861 336.11 446.051 325.35 452.441 316.51C452.721 316.12 453.021 315.74 453.301 315.34L453.281 315.36Z" fill="#EFFFD6"/>
<path d="M573.69 341.62C568.88 330.12 559.34 323.09 547.63 319.83C542.17 318.3 536.52 317.57 530.1 317.57C523.68 317.57 517.56 318.3 511.91 319.87H511.9C500.03 323.17 490.58 330.16 485.78 341.62C484.78 344.03 484.01 346.6 483.43 349.39H576.06C575.49 346.6 574.68 344.01 573.69 341.62Z" fill="#EFFFD6"/>
<path d="M101.04 472.7H0V540.53H101.04V472.7Z" fill="#EFFFD6"/>
<path d="M764.72 132.151C758.26 145.961 746.84 147.141 733.92 141.101L676.34 114.161C655.59 104.451 632.16 96.4206 610.49 98.4706C589.36 100.471 569.91 112.071 556.3 141.161C551.73 150.921 548.21 158.441 545.49 164.261L537.15 182.081L593.3 208.351L601.64 190.531C611.23 170.041 625.22 166.811 643.5 175.361L709.45 206.211C755.35 227.681 790.69 215.981 810.92 172.751C818.01 157.601 820.84 148.061 823.08 140.961L770.5 116.361C768.65 121.471 766.62 128.121 764.74 132.131L764.72 132.151Z" fill="#EFFFD6"/>
<path d="M314.891 317.45C311.341 317.45 308.471 320.33 308.471 323.87C308.471 327.41 311.341 330.29 314.891 330.29C318.441 330.29 321.311 327.42 321.311 323.87C321.311 320.32 318.441 317.45 314.891 317.45Z" fill="#D3F1A7"/>
<path d="M314.891 238.141C311.341 238.141 308.471 241.011 308.471 244.561C308.471 248.111 311.341 250.981 314.891 250.981C318.441 250.981 321.311 248.101 321.311 244.561C321.311 241.021 318.441 238.141 314.891 238.141Z" fill="#D3F1A7"/>
<path d="M314.891 158.83C311.341 158.83 308.471 161.71 308.471 165.25C308.471 168.79 311.341 171.67 314.891 171.67C318.441 171.67 321.311 168.79 321.311 165.25C321.311 161.71 318.441 158.83 314.891 158.83Z" fill="#D3F1A7"/>
<path d="M291.789 238.141C288.239 238.141 285.369 241.011 285.369 244.561C285.369 248.111 288.239 250.981 291.789 250.981C295.339 250.981 298.209 248.101 298.209 244.561C298.209 241.021 295.339 238.141 291.789 238.141Z" fill="#D3F1A7"/>
<path d="M268.69 238.141C265.14 238.141 262.27 241.011 262.27 244.561C262.27 248.111 265.14 250.981 268.69 250.981C272.24 250.981 275.11 248.101 275.11 244.561C275.11 241.021 272.24 238.141 268.69 238.141Z" fill="#D3F1A7"/>
<path d="M195.94 241.439H151.34V247.689H195.94V241.439Z" fill="#D3F1A7"/>
<path d="M695.83 507.38C692.28 507.38 689.41 510.26 689.41 513.8C689.41 517.34 692.28 520.22 695.83 520.22C699.38 520.22 702.25 517.34 702.25 513.8C702.25 510.26 699.38 507.38 695.83 507.38Z" fill="#D3F1A7"/>
<path d="M695.83 440.91C699.376 440.91 702.25 438.036 702.25 434.49C702.25 430.945 699.376 428.07 695.83 428.07C692.285 428.07 689.41 430.945 689.41 434.49C689.41 438.036 692.285 440.91 695.83 440.91Z" fill="#D3F1A7"/>
<path d="M672.731 507.38C669.181 507.38 666.311 510.26 666.311 513.8C666.311 517.34 669.181 520.22 672.731 520.22C676.281 520.22 679.151 517.34 679.151 513.8C679.151 510.26 676.281 507.38 672.731 507.38Z" fill="#D3F1A7"/>
<path d="M649.631 507.38C646.081 507.38 643.211 510.26 643.211 513.8C643.211 517.34 646.081 520.22 649.631 520.22C653.181 520.22 656.051 517.34 656.051 513.8C656.051 510.26 653.181 507.38 649.631 507.38Z" fill="#D3F1A7"/>
<path d="M576.879 510.68H532.279V516.93H576.879V510.68Z" fill="#D3F1A7"/>
</g>
<defs>
<clipPath id="clip0_287_82801">
<rect width="960" height="540" fill="white"/>
</clipPath>
</defs>
</svg>
