<svg width="960" height="540" viewBox="0 0 960 540" fill="none" xmlns="http://www.w3.org/2000/svg">
<g clip-path="url(#clip0_287_82893)">
<path d="M960 0H0V540H960V0Z" fill="#EED7FC"/>
<path d="M340.99 138.38H125.24V194.24H151.66V179.61H314.56V194.24H340.98V138.38H340.99ZM314.89 171.72C311.34 171.72 308.47 168.84 308.47 165.3C308.47 161.76 311.34 158.88 314.89 158.88C318.44 158.88 321.31 161.76 321.31 165.3C321.31 168.84 318.44 171.72 314.89 171.72Z" fill="#F8EEFE"/>
<path d="M314.56 194.24H151.66V205.25H314.56V194.24Z" fill="#F8EEFE"/>
<path d="M340.99 293.4H314.57V308.03H151.67V293.4H125.25V349.26H341V293.4H340.99ZM314.89 330.33C311.34 330.33 308.47 327.46 308.47 323.91C308.47 320.36 311.34 317.49 314.89 317.49C318.44 317.49 321.31 320.37 321.31 323.91C321.31 327.45 318.44 330.33 314.89 330.33Z" fill="#F8EEFE"/>
<path d="M314.56 282.391H151.66V293.401H314.56V282.391Z" fill="#F8EEFE"/>
<path d="M340.99 215.25H125.24V271.11H340.99V215.25ZM195.93 247.73H151.33V241.48H195.93V247.73ZM268.69 251.02C265.14 251.02 262.27 248.14 262.27 244.6C262.27 241.06 265.14 238.18 268.69 238.18C272.24 238.18 275.11 241.05 275.11 244.6C275.11 248.15 272.24 251.02 268.69 251.02ZM291.79 251.02C288.24 251.02 285.37 248.14 285.37 244.6C285.37 241.06 288.24 238.18 291.79 238.18C295.34 238.18 298.21 241.05 298.21 244.6C298.21 248.15 295.34 251.02 291.79 251.02ZM314.89 251.02C311.34 251.02 308.47 248.14 308.47 244.6C308.47 241.06 311.34 238.18 314.89 238.18C318.44 238.18 321.31 241.05 321.31 244.6C321.31 248.15 318.44 251.02 314.89 251.02Z" fill="#F8EEFE"/>
<path d="M697.32 450.23V464.86H723.74V409H507.99V464.86H534.41V450.23H697.31H697.32ZM695.83 428.11C699.38 428.11 702.25 430.99 702.25 434.53C702.25 438.07 699.38 440.95 695.83 440.95C692.28 440.95 689.41 438.07 689.41 434.53C689.41 430.99 692.28 428.11 695.83 428.11Z" fill="#F8EEFE"/>
<path d="M697.32 464.859H534.42V475.869H697.32V464.859Z" fill="#F8EEFE"/>
<path d="M723.75 485.87H508V540.57H723.75V485.87ZM576.87 516.97H532.27V510.72H576.87V516.97ZM649.63 520.26C646.08 520.26 643.21 517.38 643.21 513.84C643.21 510.3 646.08 507.42 649.63 507.42C653.18 507.42 656.05 510.3 656.05 513.84C656.05 517.38 653.18 520.26 649.63 520.26ZM672.73 520.26C669.18 520.26 666.31 517.38 666.31 513.84C666.31 510.3 669.18 507.42 672.73 507.42C676.28 507.42 679.15 510.3 679.15 513.84C679.15 517.38 676.28 520.26 672.73 520.26ZM695.83 520.26C692.28 520.26 689.41 517.38 689.41 513.84C689.41 510.3 692.28 507.42 695.83 507.42C699.38 507.42 702.25 510.3 702.25 513.84C702.25 517.38 699.38 520.26 695.83 520.26Z" fill="#F8EEFE"/>
<path d="M441.66 0.0400391H392.01L337.27 74.2H431.33L441.66 0.0400391Z" fill="#F8EEFE"/>
<path d="M409.949 227.72L578.019 0.0400391H487.979L477.649 74.2H477.219H431.759L442.089 0.0400391H441.659L431.329 74.2L409.949 227.72Z" fill="#F8EEFE"/>
<path d="M0 39.1299V134.3L70.26 39.1299H0Z" fill="#F8EEFE"/>
<path d="M960.961 173.871V112.891L914.631 113.911L960.961 173.871Z" fill="#F8EEFE"/>
<path d="M851.91 237.17L960.96 234.77V174.8L851.91 237.17Z" fill="#F8EEFE"/>
<path d="M441.67 517.889C446.15 507.129 448.76 494.529 448.76 479.799C448.76 465.069 446.14 452.059 441.59 441.149C431.57 417.159 411.77 402.659 387.5 395.889C376.17 392.699 363.84 391.189 351.12 391.189C337.72 391.189 324.99 392.709 313.28 395.969C312.51 396.179 311.77 396.419 311.02 396.649C316.09 398.109 320.93 399.859 325.51 401.909C334.61 405.959 342.8 411.229 349.61 417.829C364.52 432.169 373.3 453.369 373.3 479.769V479.989C373.3 506.379 364.78 526.269 350.27 540.349C350.19 540.429 350.11 540.499 350.03 540.579H426.86C432.95 534.229 437.97 526.699 441.67 517.889Z" fill="#F8EEFE"/>
<path d="M259 518.121H259.02C254.56 507.351 252 495.001 252 480.021C252 465.041 254.54 452.281 259.08 441.371C268.72 418.281 287.46 403.951 310.97 396.851C316.05 398.311 320.9 400.071 325.49 402.141C334.59 406.191 342.78 411.461 349.59 418.061C364.49 432.381 373.25 453.541 373.27 479.891V479.791C373.27 453.401 364.5 432.191 349.58 417.861C342.77 411.261 334.59 405.991 325.48 401.941C320.9 399.881 316.05 398.141 310.98 396.681C298.31 393.031 284.24 391.221 269.25 391.221C248.27 391.221 228.03 394.831 211.55 402.391C202.7 406.441 194.75 411.541 188.11 417.871C172.94 432.211 163.77 452.721 163.77 479.801C163.77 506.881 172.62 526.081 187.37 540.161C187.53 540.311 187.69 540.451 187.84 540.591H273.57C267.56 534.301 262.62 526.851 258.98 518.131L259 518.121Z" fill="#F8EEFE"/>
<path d="M709.73 347.11L811.201 453.46V394.27H774.47V296.47H811.201V237.29L709.73 347.11Z" fill="#F8EEFE"/>
<path d="M960.959 296.471H811.199V394.271H960.959V296.471Z" fill="#F8EEFE"/>
<path d="M286.4 99.76V99.73C291.75 67.9 300.68 33.53 313.27 0.0400391H120.84C109.56 28.17 100.31 62.09 95.3496 100.58C95.3496 100.59 95.3496 100.61 95.3696 100.61L286.39 99.76H286.4Z" fill="#F8EEFE"/>
<path d="M960.959 455.619L857.239 456.079H857.249C857.249 456.079 857.239 456.079 857.229 456.079C845.369 478.929 834.659 507.459 827.039 540.569H960.949V455.609L960.959 455.619Z" fill="#F8EEFE"/>
<path d="M620.06 0.0400391L603.41 51.6L699.92 51.87L716.66 0.0400391H620.06Z" fill="#F8EEFE"/>
<path d="M814.64 0.0400391H765.219L836.909 52.25L699.919 51.87L691.02 79.42L924.52 80.07L814.64 0.0400391Z" fill="#F8EEFE"/>
<path d="M84.96 365.61C84.98 365.53 85.01 365.45 85.03 365.37C88.74 352.17 90.52 338.5 90.52 322.95C90.52 322.7 90.52 322.46 90.51 322.21C90.51 321.96 90.52 321.72 90.52 321.47C90.52 305.92 88.75 292.25 85.03 279.05C85.01 278.97 84.98 278.89 84.96 278.81C76.96 250.04 60.04 227.11 32.25 215.52C22.75 211.57 12.16 208.94 0 207.88V249.14C9.21 250.62 16.87 253.85 23.3 258.49C23.63 258.72 23.94 258.96 24.27 259.2C26.53 260.91 28.64 262.8 30.6 264.86C35.19 269.72 38.86 275.44 41.71 281.91C46.88 293.49 49.36 307.28 49.4 322.22C49.36 337.16 46.88 350.96 41.71 362.53C38.86 368.99 35.19 374.72 30.6 379.58C28.64 381.64 26.53 383.52 24.27 385.24C23.95 385.48 23.63 385.72 23.3 385.95C16.87 390.59 9.21 393.82 0 395.3V436.56C12.16 435.5 22.74 432.87 32.25 428.92C60.05 417.32 76.97 394.4 84.96 365.63V365.61Z" fill="#F8EEFE"/>
<path d="M20.58 336.78C21.84 332.29 22.44 327.64 22.44 322.36C22.44 317.08 21.84 312.04 20.55 307.4C17.84 297.63 12.09 289.85 2.66 285.91C1.8 285.55 0.91 285.24 0 284.95V359.17C0.92 358.88 1.81 358.56 2.66 358.21C12.12 354.25 17.9 346.41 20.58 336.78Z" fill="#F8EEFE"/>
<path d="M453.281 315.4C455.361 312.65 457.661 310.09 460.161 307.7C466.071 302.11 473.031 297.66 480.891 294.19C494.971 287.91 511.741 284.89 529.911 284.84C548.081 284.89 564.851 287.91 578.931 294.19C586.791 297.66 593.751 302.11 599.661 307.7C602.161 310.09 604.451 312.65 606.541 315.4C606.831 315.79 607.121 316.18 607.401 316.57C613.781 325.4 617.981 336.15 619.381 349.4H669.291C668.301 332.69 664.931 318.4 659.651 305.68C645.551 271.88 617.671 251.31 582.691 241.58C582.591 241.55 582.501 241.52 582.401 241.49C566.341 236.97 549.731 234.82 530.821 234.82C530.521 234.82 530.221 234.83 529.921 234.83C529.621 234.83 529.321 234.82 529.021 234.82C510.111 234.82 493.501 236.97 477.441 241.49C477.341 241.52 477.251 241.55 477.151 241.58C442.161 251.3 414.291 271.87 400.191 305.67C394.901 318.39 391.541 332.68 390.551 349.39H440.461C441.861 336.15 446.051 325.39 452.441 316.55C452.721 316.16 453.021 315.78 453.301 315.38L453.281 315.4Z" fill="#F8EEFE"/>
<path d="M573.69 341.659C568.88 330.159 559.34 323.129 547.63 319.869C542.17 318.339 536.52 317.609 530.1 317.609C523.68 317.609 517.56 318.339 511.91 319.909H511.9C500.03 323.209 490.58 330.199 485.78 341.659C484.78 344.069 484.01 346.639 483.43 349.429H576.06C575.49 346.639 574.68 344.049 573.69 341.659Z" fill="#F8EEFE"/>
<path d="M101.04 472.74H0V540.57H101.04V472.74Z" fill="#F8EEFE"/>
<path d="M764.72 132.19C758.26 146 746.84 147.18 733.92 141.14L676.34 114.2C655.59 104.49 632.16 96.4596 610.49 98.5096C589.36 100.51 569.91 112.11 556.3 141.2C551.73 150.96 548.21 158.48 545.49 164.3L537.15 182.12L593.3 208.39L601.64 190.57C611.23 170.08 625.22 166.85 643.5 175.4L709.45 206.25C755.35 227.72 790.69 216.02 810.92 172.79C818.01 157.64 820.84 148.1 823.08 141L770.5 116.4C768.65 121.51 766.62 128.16 764.74 132.17L764.72 132.19Z" fill="#F8EEFE"/>
<path d="M314.891 317.49C311.341 317.49 308.471 320.37 308.471 323.91C308.471 327.45 311.341 330.33 314.891 330.33C318.441 330.33 321.311 327.46 321.311 323.91C321.311 320.36 318.441 317.49 314.891 317.49Z" fill="#EED7FC"/>
<path d="M314.891 238.18C311.341 238.18 308.471 241.05 308.471 244.6C308.471 248.15 311.341 251.02 314.891 251.02C318.441 251.02 321.311 248.14 321.311 244.6C321.311 241.06 318.441 238.18 314.891 238.18Z" fill="#EED7FC"/>
<path d="M314.891 158.87C311.341 158.87 308.471 161.75 308.471 165.29C308.471 168.83 311.341 171.71 314.891 171.71C318.441 171.71 321.311 168.83 321.311 165.29C321.311 161.75 318.441 158.87 314.891 158.87Z" fill="#EED7FC"/>
<path d="M291.789 238.18C288.239 238.18 285.369 241.05 285.369 244.6C285.369 248.15 288.239 251.02 291.789 251.02C295.339 251.02 298.209 248.14 298.209 244.6C298.209 241.06 295.339 238.18 291.789 238.18Z" fill="#EED7FC"/>
<path d="M268.69 238.18C265.14 238.18 262.27 241.05 262.27 244.6C262.27 248.15 265.14 251.02 268.69 251.02C272.24 251.02 275.11 248.14 275.11 244.6C275.11 241.06 272.24 238.18 268.69 238.18Z" fill="#EED7FC"/>
<path d="M195.94 241.48H151.34V247.73H195.94V241.48Z" fill="#EED7FC"/>
<path d="M695.83 507.42C692.28 507.42 689.41 510.3 689.41 513.84C689.41 517.38 692.28 520.26 695.83 520.26C699.38 520.26 702.25 517.38 702.25 513.84C702.25 510.3 699.38 507.42 695.83 507.42Z" fill="#EED7FC"/>
<path d="M695.83 440.949C699.376 440.949 702.25 438.075 702.25 434.529C702.25 430.984 699.376 428.109 695.83 428.109C692.285 428.109 689.41 430.984 689.41 434.529C689.41 438.075 692.285 440.949 695.83 440.949Z" fill="#EED7FC"/>
<path d="M672.731 507.42C669.181 507.42 666.311 510.3 666.311 513.84C666.311 517.38 669.181 520.26 672.731 520.26C676.281 520.26 679.151 517.38 679.151 513.84C679.151 510.3 676.281 507.42 672.731 507.42Z" fill="#EED7FC"/>
<path d="M649.631 507.42C646.081 507.42 643.211 510.3 643.211 513.84C643.211 517.38 646.081 520.26 649.631 520.26C653.181 520.26 656.051 517.38 656.051 513.84C656.051 510.3 653.181 507.42 649.631 507.42Z" fill="#EED7FC"/>
<path d="M576.879 510.721H532.279V516.971H576.879V510.721Z" fill="#EED7FC"/>
</g>
<defs>
<clipPath id="clip0_287_82893">
<rect width="960" height="540" fill="white"/>
</clipPath>
</defs>
</svg>
