<svg width="961" height="541" viewBox="0 0 961 541" fill="none" xmlns="http://www.w3.org/2000/svg">
<g clip-path="url(#clip0_287_77616)">
<path d="M39.61 175.69L41 172.48L41.79 170.65L50.21 151.19L51.01 149.36L59.43 129.9L60.22 128.07L68.64 108.61L69.44 106.77L77.86 87.32L78.65 85.48L87.08 66.03L87.87 64.19L96.29 44.74L97.09 42.9L105.51 23.45L106.3 21.61L114.72 2.15L115.52 0.32L115.65 0H0V175.69H39.61Z" fill="#3A2C1F"/>
<path d="M327.72 437.91H370.66V340.67H638.26V478.71H595.32V539.87H725.28V452.1L674.18 507.41V287.71H648.15L646.5 283.35C637.14 258.56 620.98 237.39 599.79 222.14C578.15 206.57 552.74 198.34 526.29 198.34C499.84 198.34 474.43 206.57 452.8 222.14C431.61 237.39 415.46 258.55 406.09 283.35L404.44 287.71H310.99L312.89 279.46C318.77 253.91 329.02 229.61 342.93 207.74C335.65 205.86 328.71 203.5 322.21 200.59C311.68 195.95 302.38 190 294.48 182.53C277.56 166.39 267.41 144.39 267.41 113.32C267.41 82.25 277.94 58.74 295.33 42.29C302.94 35.03 312.06 29.18 322.21 24.53C341.1 15.85 364.32 11.72 388.38 11.72C412.44 11.72 434.43 15.75 452.86 24.03C463.29 28.67 472.69 34.73 480.49 42.29C496.23 57.43 506 79.24 507.46 106.21C513.7 105.66 519.98 105.39 526.29 105.39C551.65 105.39 576.51 109.83 600.18 118.57C623.04 127.02 644.28 139.29 663.31 155.05C667.04 158.14 670.66 161.35 674.17 164.67V112.71L859.44 306.89L838.71 329.33C842.43 329.26 846.12 329.23 849.76 329.24C850.48 329.24 851.21 329.24 851.93 329.24C859.74 329.28 867.34 329.47 874.71 329.79C875.42 329.82 876.13 329.85 876.84 329.89C881.57 330.11 886.19 330.38 890.71 330.68C892.8 330.82 894.88 330.97 896.92 331.13C897.7 331.19 898.48 331.25 899.25 331.32C899.95 331.38 900.65 331.44 901.35 331.49C909.12 332.15 916.5 332.92 923.41 333.75C924.1 333.83 924.79 333.92 925.47 334C933.38 334.97 940.65 336.02 947.19 337.06C947.88 337.17 948.55 337.28 949.22 337.39C953.09 338.02 956.68 338.64 959.98 339.24V307.75H886.79V215.9C819.44 186.67 794.34 143.41 794.34 84.27C794.34 51.71 803.03 23.21 820.03 0.01H758.15C757.92 41.64 757.74 76.44 757.74 76.44C677.67 38.76 543.44 76.44 543.44 76.44V0H260.22L256.46 9.52L255.73 11.38L247.94 31.1L247.2 32.96L239.41 52.68L238.68 54.54L230.89 74.26L230.16 76.12L222.37 95.84L221.63 97.7L213.84 117.42L213.11 119.28L205.32 139L204.59 140.86L196.8 160.58L196.06 162.44L188.27 182.16L187.54 184.02L179.75 203.74L179.02 205.6L172.07 223.2H143.3V257.33C191.33 258.88 226.37 267.92 226.39 267.92C226.39 267.87 226.39 267.87 226.39 267.92C226.36 270.83 225.38 453.49 225.38 453.49C156.42 421.04 40.82 453.49 40.82 453.49V313.69H0V539.84H89.19V486.31C180.44 461.98 274.73 486.31 274.76 486.31C274.76 486.26 274.76 486.26 274.76 486.31C274.75 487.33 274.62 510.34 274.46 539.84H327.72V437.87V437.91Z" fill="#3A2C1F"/>
<path d="M960 0H931.75V40.14H960V0Z" fill="#3A2C1F"/>
<path d="M40.81 267.95C42.8 267.42 44.8 266.92 46.79 266.43C47.23 266.32 47.67 266.22 48.11 266.11C50.07 265.64 52.03 265.19 53.99 264.77C54.24 264.72 54.48 264.67 54.73 264.62C56.53 264.23 58.32 263.87 60.12 263.52C60.52 263.44 60.93 263.36 61.33 263.28C63.28 262.91 65.22 262.55 67.16 262.22C67.53 262.16 67.89 262.1 68.26 262.04C70.01 261.75 71.76 261.46 73.51 261.2C73.83 261.15 74.15 261.1 74.47 261.05C76.41 260.76 78.34 260.49 80.27 260.24C80.69 260.19 81.11 260.13 81.53 260.08C83.37 259.85 85.2 259.63 87.03 259.42C87.17 259.4 87.32 259.39 87.46 259.37C89.4 259.16 91.33 258.97 93.25 258.79C93.68 258.75 94.11 258.71 94.54 258.67C96.46 258.5 98.37 258.34 100.28 258.2C100.39 258.2 100.49 258.19 100.6 258.18C102.43 258.05 104.25 257.93 106.06 257.82C106.46 257.8 106.86 257.77 107.26 257.75C109.12 257.65 110.98 257.56 112.83 257.48C113.11 257.47 113.39 257.46 113.67 257.45C115.34 257.39 117 257.33 118.66 257.29C119 257.29 119.34 257.27 119.68 257.26C121.49 257.22 123.29 257.19 125.08 257.17C125.43 257.17 125.79 257.17 126.14 257.17C127.78 257.16 129.42 257.15 131.04 257.16C131.26 257.16 131.48 257.16 131.7 257.16C133.47 257.16 135.22 257.19 136.97 257.22C137.35 257.22 137.72 257.23 138.09 257.24C139.84 257.28 141.58 257.32 143.29 257.37V223.24H19.04L22.57 215.08L23.36 213.24L31.78 193.78L32.57 191.94L39.6 175.69H0V313.73H40.81V267.95Z" fill="#9E4C00"/>
<path d="M931.75 54.1696V231.58C931.75 231.58 931.7 231.57 931.68 231.56C929.81 231.04 927.98 230.5 926.15 229.97C925.62 229.81 925.1 229.66 924.58 229.5C923.18 229.08 921.79 228.66 920.42 228.23C919.95 228.08 919.47 227.94 919 227.79C915.3 226.63 911.7 225.43 908.19 224.21C908 224.14 907.81 224.08 907.62 224.01C905.98 223.44 904.36 222.85 902.76 222.27C902.59 222.21 902.42 222.15 902.25 222.08C896.88 220.09 891.73 218.04 886.82 215.9V307.75H960.01V40.1396H931.76V54.1696H931.75Z" fill="#9E4C00"/>
<path d="M663.31 155.05C644.28 139.3 623.04 127.02 600.18 118.57C576.51 109.82 551.66 105.39 526.29 105.39C519.98 105.39 513.7 105.67 507.46 106.21V106.23C507.52 107.31 507.56 108.39 507.6 109.48C507.6 109.61 507.6 109.75 507.61 109.88C507.64 111 507.66 112.12 507.66 113.26C507.66 113.28 507.66 113.3 507.66 113.32C507.66 140.75 499.63 162.05 485.75 177.82C484.31 179.45 482.81 181.02 481.25 182.54C473.26 190.31 463.67 196.46 452.86 201.21C439.04 207.26 423.22 210.99 406.02 212.48C400.29 212.98 394.4 213.22 388.38 213.22V213.12C386.55 213.12 384.74 213.09 382.93 213.05C382.43 213.04 381.92 213.02 381.42 213C380.03 212.96 378.65 212.9 377.28 212.83C376.82 212.81 376.37 212.78 375.91 212.76C372.22 212.54 368.58 212.23 365.01 211.81C364.86 211.79 364.7 211.77 364.55 211.75C362.84 211.55 361.15 211.32 359.46 211.07C359.31 211.05 359.17 211.03 359.02 211.01C353.49 210.18 348.12 209.1 342.93 207.76C329.02 229.64 318.77 253.93 312.89 279.48L310.99 287.73H404.44L406.09 283.37C415.46 258.58 431.61 237.41 452.8 222.16C474.44 206.59 499.85 198.36 526.29 198.36C552.73 198.36 578.15 206.59 599.79 222.16C620.98 237.41 637.13 258.57 646.5 283.37L648.15 287.73H674.18V164.68C670.67 161.36 667.05 158.14 663.32 155.06L663.31 155.05Z" fill="#693200"/>
<path d="M375.92 212.73C372.23 212.51 368.59 212.2 365.02 211.78C368.6 212.19 372.23 212.51 375.92 212.73Z" fill="#693200"/>
<path d="M364.551 211.73C362.841 211.53 361.151 211.3 359.461 211.05C361.141 211.3 362.841 211.53 364.551 211.73Z" fill="#693200"/>
<path d="M388.389 213.1C386.559 213.1 384.749 213.07 382.939 213.03C384.749 213.08 386.559 213.1 388.389 213.1Z" fill="#693200"/>
<path d="M389.28 155.05C407.12 140.28 426.9 128.57 448.14 120.2C449.56 119.64 450.98 119.1 452.41 118.57C470.19 112 488.63 107.86 507.46 106.21C506 79.2297 496.24 57.4297 480.49 42.2897C472.69 34.7197 463.29 28.6697 452.86 24.0297C434.44 15.7597 412.45 11.7197 388.38 11.7197C364.31 11.7197 341.11 15.8597 322.21 24.5297C312.06 29.1697 302.94 35.0197 295.33 42.2897C277.94 58.7397 267.41 82.2397 267.41 113.32C267.41 144.4 277.56 166.39 294.48 182.53C302.38 189.99 311.68 195.95 322.21 200.59C328.71 203.49 335.64 205.86 342.93 207.74C355.55 187.89 371.17 170.03 389.27 155.05H389.28Z" fill="#693200"/>
<path d="M507.461 106.23C507.521 107.31 507.561 108.39 507.591 109.48C507.561 108.39 507.511 107.3 507.461 106.23Z" fill="#693200"/>
<path d="M507.609 109.88C507.639 111 507.659 112.12 507.659 113.26C507.659 112.13 507.639 111 507.609 109.88Z" fill="#693200"/>
<path d="M89.1895 486.34V540H274.459C274.459 540 274.459 539.92 274.459 539.88C274.619 510.38 274.749 487.36 274.759 486.35C274.729 486.35 180.439 462.02 89.1895 486.35V486.34Z" fill="#9E4C00"/>
<path d="M138.081 257.22C139.831 257.26 141.571 257.3 143.281 257.35V313.72H40.8105V453.52C40.8105 453.52 156.411 421.07 225.371 453.52C225.371 453.52 226.351 270.85 226.381 267.95C226.361 267.95 191.321 258.9 143.291 257.36C141.571 257.3 139.831 257.26 138.091 257.23L138.081 257.22Z" fill="#693200"/>
<path d="M48.1094 266.11C50.0694 265.64 52.0294 265.19 53.9894 264.77C52.0294 265.2 50.0694 265.65 48.1094 266.11Z" fill="#693200"/>
<path d="M40.8105 267.95C42.8005 267.42 44.8005 266.92 46.7905 266.43C44.7905 266.92 42.8005 267.42 40.8105 267.95Z" fill="#693200"/>
<path d="M81.5195 260.07C83.3595 259.84 85.1895 259.62 87.0195 259.41C85.1895 259.61 83.3595 259.83 81.5195 260.07Z" fill="#693200"/>
<path d="M131.031 257.14C129.411 257.14 127.771 257.14 126.131 257.15C127.771 257.14 129.411 257.13 131.031 257.14Z" fill="#693200"/>
<path d="M94.5293 258.66C96.4493 258.49 98.3593 258.33 100.269 258.19C98.3693 258.33 96.4493 258.49 94.5293 258.66Z" fill="#693200"/>
<path d="M131.689 257.14C133.459 257.14 135.209 257.17 136.959 257.2C135.219 257.17 133.459 257.15 131.689 257.14Z" fill="#693200"/>
<path d="M100.59 258.17C102.42 258.04 104.24 257.92 106.05 257.81C104.24 257.92 102.42 258.03 100.59 258.17Z" fill="#693200"/>
<path d="M54.7305 264.61C56.5305 264.22 58.3205 263.86 60.1205 263.51C58.3205 263.86 56.5305 264.23 54.7305 264.61Z" fill="#693200"/>
<path d="M107.26 257.74C109.12 257.64 110.98 257.55 112.83 257.47C110.99 257.55 109.13 257.64 107.26 257.74Z" fill="#693200"/>
<path d="M68.2598 262.03C70.0098 261.74 71.7598 261.45 73.5098 261.19C71.7598 261.45 70.0198 261.74 68.2598 262.03Z" fill="#693200"/>
<path d="M118.65 257.28C117 257.32 115.33 257.38 113.66 257.44C115.33 257.38 116.99 257.32 118.65 257.28Z" fill="#693200"/>
<path d="M93.2392 258.78C91.3092 258.96 89.3792 259.15 87.4492 259.36C89.3892 259.15 91.3192 258.96 93.2392 258.78Z" fill="#693200"/>
<path d="M757.759 76.43C757.759 76.43 757.949 41.63 758.169 0H543.449V76.43C543.449 76.43 677.679 38.75 757.749 76.43H757.759Z" fill="#9E4C00"/>
<path d="M359.031 210.99C359.181 211.01 359.321 211.03 359.471 211.05C361.151 211.3 362.851 211.52 364.561 211.73C364.711 211.75 364.871 211.77 365.021 211.79C368.601 212.21 372.231 212.52 375.921 212.74C376.371 212.77 376.831 212.79 377.291 212.81C378.661 212.88 380.041 212.94 381.431 212.98C381.931 213 382.431 213.01 382.941 213.03C384.751 213.08 386.561 213.1 388.391 213.1V213.2C394.411 213.2 400.291 212.95 406.031 212.46C423.231 210.97 439.061 207.25 452.871 201.19C463.681 196.45 473.271 190.29 481.261 182.52C482.821 181.01 484.321 179.43 485.761 177.8C499.651 162.03 507.671 140.73 507.671 113.3C507.671 113.28 507.671 113.26 507.671 113.24C507.671 112.11 507.651 110.98 507.621 109.86C507.621 109.73 507.621 109.59 507.611 109.46C507.581 108.37 507.531 107.28 507.481 106.21V106.19C488.651 107.84 470.201 111.98 452.431 118.55C451.001 119.08 449.581 119.62 448.161 120.18C426.921 128.55 407.141 140.26 389.301 155.03C371.201 170.01 355.581 187.87 342.961 207.72C348.151 209.06 353.531 210.14 359.051 210.97L359.031 210.99Z" fill="#3A2C1F"/>
<path d="M725.28 452.11V344.33C725.28 344.33 725.33 344.32 725.35 344.31C727.56 343.72 729.77 343.16 731.97 342.61C732.69 342.43 733.4 342.26 734.12 342.09C735.14 341.84 736.16 341.59 737.19 341.35C737.71 341.23 738.22 341.12 738.74 341C739.55 340.81 740.35 340.63 741.16 340.45C742.31 340.19 743.46 339.94 744.61 339.69C744.95 339.62 745.3 339.55 745.64 339.47C746.41 339.31 747.17 339.14 747.94 338.99C749.65 338.64 751.36 338.3 753.06 337.97C753.58 337.87 754.1 337.76 754.63 337.66C756.9 337.23 759.17 336.82 761.44 336.42C761.69 336.38 761.94 336.34 762.19 336.29C764.19 335.95 766.18 335.62 768.18 335.3C768.78 335.2 769.38 335.11 769.99 335.02C770.62 334.92 771.26 334.82 771.89 334.73C772.66 334.61 773.43 334.5 774.2 334.39C774.48 334.35 774.75 334.31 775.03 334.27C775.65 334.18 776.27 334.09 776.89 334.01C777.53 333.92 778.18 333.83 778.82 333.74C779.94 333.59 781.06 333.45 782.18 333.31C782.65 333.25 783.12 333.19 783.58 333.13C788.19 332.56 792.78 332.06 797.33 331.62C797.36 331.62 797.39 331.62 797.42 331.62C797.76 331.59 798.09 331.56 798.42 331.53C799.17 331.46 799.93 331.39 800.68 331.32C801.8 331.22 802.93 331.12 804.05 331.03C804.34 331.01 804.64 330.98 804.93 330.96C806.95 330.8 808.95 330.65 810.96 330.51C811.21 330.49 811.46 330.48 811.71 330.46C815.96 330.17 820.18 329.94 824.36 329.76C825.1 329.73 825.83 329.7 826.57 329.67C827.24 329.64 827.91 329.62 828.59 329.6C830.19 329.54 831.78 329.49 833.37 329.45C835.16 329.4 836.95 329.36 838.72 329.33L859.45 306.89L674.18 112.71V507.42L725.28 452.11ZM674.18 164.67C706.52 195.25 729.59 235.5 739.7 279.46L741.6 287.71H674.19V164.66L674.18 164.67Z" fill="#693200"/>
<path d="M735.529 539.96L743.779 520.43L725.279 512.62V535.63L735.529 539.96Z" fill="#693200"/>
<path d="M879.573 502.276L871.32 521.804L890.848 530.057L899.101 510.529L879.573 502.276Z" fill="#693200"/>
<path d="M921.417 343.649L913.164 363.177L932.692 371.43L940.945 351.902L921.417 343.649Z" fill="#693200"/>
<path d="M912.386 365.015L904.133 384.543L923.661 392.796L931.913 373.268L912.386 365.015Z" fill="#693200"/>
<path d="M851.591 389.697L843.338 409.225L862.866 417.477L871.118 397.95L851.591 389.697Z" fill="#693200"/>
<path d="M869.642 346.954L861.389 366.481L880.916 374.734L889.169 355.207L869.642 346.954Z" fill="#693200"/>
<path d="M889.94 353.36L898.19 333.83L890.71 330.67C886.2 330.36 881.57 330.09 876.84 329.88L870.4 345.11L889.93 353.36H889.94Z" fill="#693200"/>
<path d="M860.62 368.32L852.367 387.848L871.895 396.1L880.148 376.573L860.62 368.32Z" fill="#693200"/>
<path d="M888.602 480.909L880.35 500.437L899.877 508.689L908.13 489.162L888.602 480.909Z" fill="#693200"/>
<path d="M845.86 462.838L837.607 482.365L857.135 490.618L865.388 471.09L845.86 462.838Z" fill="#693200"/>
<path d="M867.225 471.868L858.973 491.396L878.5 499.648L886.753 480.121L867.225 471.868Z" fill="#693200"/>
<path d="M842.556 411.073L834.303 430.601L853.83 438.853L862.083 419.326L842.556 411.073Z" fill="#693200"/>
<path d="M836.829 484.204L828.576 503.731L848.104 511.984L856.357 492.457L836.829 484.204Z" fill="#693200"/>
<path d="M924.727 395.432L916.475 414.96L936.002 423.213L944.255 403.685L924.727 395.432Z" fill="#693200"/>
<path d="M897.634 459.533L889.381 479.061L908.909 487.313L917.161 467.786L897.634 459.533Z" fill="#693200"/>
<path d="M763.688 478.484L755.436 498.012L774.963 506.265L783.216 486.737L763.688 478.484Z" fill="#693200"/>
<path d="M827.798 505.581L819.545 525.108L839.073 533.361L847.325 513.834L827.798 505.581Z" fill="#693200"/>
<path d="M933.759 374.066L925.506 393.594L945.034 401.847L953.286 382.319L933.759 374.066Z" fill="#693200"/>
<path d="M941.71 350.06L947.2 337.06C940.66 336.02 933.38 334.98 925.48 334L922.18 341.8L941.71 350.05V350.06Z" fill="#693200"/>
<path d="M906.655 438.156L898.402 457.684L917.93 465.936L926.183 446.409L906.655 438.156Z" fill="#693200"/>
<path d="M903.35 386.391L895.098 405.919L914.625 414.172L922.878 394.644L903.35 386.391Z" fill="#693200"/>
<path d="M848.274 337.922L840.021 357.45L859.549 365.703L867.802 346.175L848.274 337.922Z" fill="#693200"/>
<path d="M830.214 380.666L821.961 400.193L841.489 408.446L849.741 388.918L830.214 380.666Z" fill="#693200"/>
<path d="M821.192 402.033L812.939 421.561L832.467 429.813L840.72 410.286L821.192 402.033Z" fill="#693200"/>
<path d="M894.319 407.758L886.066 427.286L905.594 435.539L913.847 416.011L894.319 407.758Z" fill="#693200"/>
<path d="M858.206 493.235L849.953 512.763L869.481 521.016L877.734 501.488L858.206 493.235Z" fill="#693200"/>
<path d="M876.257 450.502L868.004 470.029L887.532 478.282L895.784 458.754L876.257 450.502Z" fill="#693200"/>
<path d="M838.29 535.19L818.76 526.94L813.24 540H836.26L838.29 535.19Z" fill="#693200"/>
<path d="M885.288 429.134L877.035 448.662L896.563 456.915L904.816 437.387L885.288 429.134Z" fill="#693200"/>
<path d="M812.157 423.409L803.904 442.937L823.432 451.189L831.685 431.662L812.157 423.409Z" fill="#693200"/>
<path d="M868.581 344.33L874.731 329.79C867.361 329.48 859.751 329.28 851.951 329.24L849.061 336.08L868.591 344.33H868.581Z" fill="#693200"/>
<path d="M915.696 416.799L907.443 436.327L926.971 444.58L935.224 425.052L915.696 416.799Z" fill="#693200"/>
<path d="M854.892 441.47L846.639 460.998L866.166 469.251L874.419 449.723L854.892 441.47Z" fill="#693200"/>
<path d="M803.126 444.775L794.873 464.303L814.401 472.556L822.654 453.028L803.126 444.775Z" fill="#693200"/>
<path d="M754.657 499.85L746.404 519.378L765.932 527.631L774.185 508.103L754.657 499.85Z" fill="#693200"/>
<path d="M776.024 508.881L767.771 528.409L787.299 536.662L795.552 517.134L776.024 508.881Z" fill="#693200"/>
<path d="M794.095 466.152L785.842 485.68L805.369 493.933L813.622 474.405L794.095 466.152Z" fill="#693200"/>
<path d="M785.065 487.519L776.812 507.047L796.34 515.3L804.593 495.772L785.065 487.519Z" fill="#693200"/>
<path d="M839.245 359.3L830.992 378.827L850.52 387.08L858.773 367.552L839.245 359.3Z" fill="#693200"/>
<path d="M833.524 432.439L825.271 451.967L844.799 460.22L853.052 440.692L833.524 432.439Z" fill="#693200"/>
<path d="M928.032 447.187L919.779 466.715L939.307 474.968L947.56 455.44L928.032 447.187Z" fill="#693200"/>
<path d="M937.063 425.82L928.811 445.348L948.338 453.6L956.591 434.073L937.063 425.82Z" fill="#693200"/>
<path d="M890.059 531.88L870.529 523.63L863.609 540H886.629L890.059 531.88Z" fill="#693200"/>
<path d="M872.952 398.737L864.699 418.265L884.227 426.517L892.48 406.99L872.952 398.737Z" fill="#693200"/>
<path d="M891.901 532.66L888.801 540H909.271L891.901 532.66Z" fill="#693200"/>
<path d="M749.509 447.3L735.279 441.28L725.279 452.11V460.07L741.249 466.82L749.509 447.3Z" fill="#693200"/>
<path d="M940.368 477.585L932.115 497.112L951.643 505.365L959.896 485.838L940.368 477.585Z" fill="#693200"/>
<path d="M900.938 511.297L892.686 530.824L912.213 539.077L920.466 519.549L900.938 511.297Z" fill="#693200"/>
<path d="M909.97 489.93L901.717 509.458L921.244 517.711L929.497 498.183L909.97 489.93Z" fill="#693200"/>
<path d="M786.519 538.5L766.989 530.24L762.869 540H785.879L786.519 538.5Z" fill="#693200"/>
<path d="M931.337 498.961L923.084 518.488L942.612 526.741L950.865 507.213L931.337 498.961Z" fill="#693200"/>
<path d="M788.361 539.27L788.061 540H790.081L788.361 539.27Z" fill="#693200"/>
<path d="M765.15 529.47L745.62 521.21L737.68 540H760.7L765.15 529.47Z" fill="#693200"/>
<path d="M840.13 535.97L838.43 540H849.67L840.13 535.97Z" fill="#693200"/>
<path d="M816.921 526.16L797.391 517.91L789.141 537.43L795.221 540H811.071L816.921 526.16Z" fill="#693200"/>
<path d="M752.809 499.07L733.289 490.81L725.279 509.76V510.44L744.559 518.59L752.809 499.07Z" fill="#693200"/>
<path d="M725.279 487.43V504.62L731.439 490.03L725.279 487.43Z" fill="#693200"/>
<path d="M868.69 522.85L849.16 514.6L840.91 534.12L854.81 540H861.44L868.69 522.85Z" fill="#693200"/>
<path d="M740.469 468.67L725.279 462.24V485.26L732.219 488.19L740.469 468.67Z" fill="#693200"/>
<path d="M725.279 537.8V539.88V540H730.479L725.279 537.8Z" fill="#693200"/>
<path d="M919.001 468.563L910.748 488.091L930.276 496.344L938.529 476.816L919.001 468.563Z" fill="#693200"/>
<path d="M946.859 402.6L959.999 408.15V385.14L955.119 383.08L946.859 402.6Z" fill="#693200"/>
<path d="M937.83 423.97L957.36 432.22L960 425.98V410.33L946.08 404.44L937.83 423.97Z" fill="#693200"/>
<path d="M941.831 528.57L922.301 520.32L914.051 539.85L914.411 540H937.001L941.831 528.57Z" fill="#693200"/>
<path d="M950.17 454.37L960 458.53V435.51L958.42 434.84L950.17 454.37Z" fill="#693200"/>
<path d="M941.141 475.74L960.001 483.71V460.7L949.391 456.21L941.141 475.74Z" fill="#693200"/>
<path d="M934.52 372.2L954.049 380.45L960 366.38V359.95L942.78 352.68L934.52 372.2Z" fill="#693200"/>
<path d="M960.001 382.97V371.52L955.891 381.23L960.001 382.97Z" fill="#693200"/>
<path d="M960 508.9V490.71L953.48 506.14L960 508.9Z" fill="#693200"/>
<path d="M943.561 350.83L960.001 357.78V339.23C956.701 338.63 953.111 338.01 949.241 337.38L943.561 350.83Z" fill="#693200"/>
<path d="M824.493 453.806L816.24 473.334L835.768 481.587L844.021 462.059L824.493 453.806Z" fill="#693200"/>
<path d="M959.999 433.34V431.11L959.199 433L959.999 433.34Z" fill="#693200"/>
<path d="M939.17 540H960V539.88V536.25L943.67 529.35L939.17 540Z" fill="#693200"/>
<path d="M944.449 527.51L959.999 534.08V511.07L952.699 507.98L944.449 527.51Z" fill="#693200"/>
<path d="M891.018 355.984L882.766 375.512L902.293 383.765L910.546 364.237L891.018 355.984Z" fill="#693200"/>
<path d="M881.987 377.351L873.734 396.879L893.262 405.132L901.515 385.604L881.987 377.351Z" fill="#693200"/>
<path d="M899.26 331.32C898.49 331.26 897.71 331.19 896.93 331.13L898.98 331.99L899.27 331.31L899.26 331.32Z" fill="#693200"/>
<path d="M806.431 496.55L798.178 516.077L817.705 524.33L825.958 504.802L806.431 496.55Z" fill="#693200"/>
<path d="M815.462 475.173L807.209 494.701L826.737 502.954L834.99 483.426L815.462 475.173Z" fill="#693200"/>
<path d="M920.341 341.02L923.411 333.75C916.501 332.92 909.121 332.15 901.351 331.49L900.811 332.77L920.341 341.02Z" fill="#693200"/>
<path d="M900.04 334.618L891.787 354.146L911.315 362.398L919.568 342.871L900.04 334.618Z" fill="#693200"/>
<path d="M863.921 420.104L855.668 439.632L875.196 447.885L883.448 428.357L863.921 420.104Z" fill="#693200"/>
<path d="M808.847 371.635L800.594 391.163L820.121 399.416L828.374 379.888L808.847 371.635Z" fill="#693200"/>
<path d="M790.794 414.379L782.541 433.906L802.069 442.159L810.322 422.631L790.794 414.379Z" fill="#693200"/>
<path d="M781.759 435.755L773.506 455.282L793.034 463.535L801.286 444.007L781.759 435.755Z" fill="#693200"/>
<path d="M742.311 469.443L734.059 488.971L753.586 497.224L761.839 477.696L742.311 469.443Z" fill="#693200"/>
<path d="M769.429 405.347L761.176 424.875L780.703 433.128L788.956 413.6L769.429 405.347Z" fill="#693200"/>
<path d="M760.388 426.704L752.135 446.231L771.662 454.484L779.915 434.957L760.388 426.704Z" fill="#693200"/>
<path d="M772.729 457.121L764.477 476.648L784.004 484.901L792.257 465.374L772.729 457.121Z" fill="#693200"/>
<path d="M799.815 393.002L791.562 412.529L811.09 420.782L819.343 401.254L799.815 393.002Z" fill="#693200"/>
<path d="M751.343 448.087L743.09 467.614L762.618 475.867L770.87 456.339L751.343 448.087Z" fill="#693200"/>
<path d="M762.189 336.3C764.189 335.96 766.179 335.63 768.179 335.31C766.189 335.62 764.189 335.95 762.189 336.3Z" fill="#693200"/>
<path d="M783.58 333.15C788.19 332.58 792.78 332.08 797.33 331.64C792.77 332.08 788.19 332.58 783.58 333.15Z" fill="#693200"/>
<path d="M752.011 423.17L736.721 439.72L750.281 445.45L758.541 425.93L752.011 423.17Z" fill="#693200"/>
<path d="M759.311 424.09L766.181 407.84L753.461 421.61L759.311 424.09Z" fill="#693200"/>
<path d="M725.35 344.31C727.56 343.72 729.77 343.16 731.97 342.61C729.76 343.16 727.55 343.72 725.35 344.31Z" fill="#693200"/>
<path d="M754.631 337.66C756.901 337.23 759.171 336.82 761.441 336.42C759.171 336.81 756.911 337.23 754.631 337.66Z" fill="#693200"/>
<path d="M747.939 338.99C749.649 338.64 751.359 338.3 753.059 337.97C751.349 338.3 749.649 338.64 747.939 338.99Z" fill="#693200"/>
<path d="M833.379 329.46C835.169 329.41 836.949 329.36 838.719 329.33L837.139 331.04L847.209 335.3L849.769 329.24C846.119 329.24 842.439 329.27 838.719 329.33C836.939 329.36 835.159 329.4 833.369 329.45H833.379V329.46Z" fill="#693200"/>
<path d="M835.69 332.6L820.4 349.16L838.18 356.67L846.43 337.14L835.69 332.6Z" fill="#693200"/>
<path d="M804.05 331.04C802.93 331.13 801.81 331.23 800.68 331.33C801.8 331.24 802.93 331.13 804.05 331.04Z" fill="#693200"/>
<path d="M737.189 341.35C736.169 341.59 735.149 341.84 734.119 342.09C735.149 341.84 736.179 341.6 737.209 341.36H737.189V341.35Z" fill="#693200"/>
<path d="M824.361 329.77C820.181 329.95 815.961 330.19 811.711 330.47C815.961 330.18 820.181 329.96 824.361 329.77Z" fill="#693200"/>
<path d="M828.61 329.61H828.59C827.92 329.63 827.25 329.65 826.57 329.68C827.25 329.66 827.93 329.64 828.61 329.61Z" fill="#693200"/>
<path d="M744.61 339.69C743.46 339.94 742.31 340.19 741.16 340.45C742.31 340.19 743.46 339.95 744.61 339.7V339.69Z" fill="#693200"/>
<path d="M775.029 334.29C774.749 334.33 774.479 334.37 774.199 334.41C774.479 334.38 774.759 334.33 775.029 334.29Z" fill="#693200"/>
<path d="M771.88 334.74C771.25 334.83 770.61 334.93 769.98 335.03C770.61 334.93 771.24 334.84 771.88 334.75V334.74Z" fill="#693200"/>
<path d="M778.821 333.76C778.181 333.85 777.531 333.94 776.891 334.03C777.541 333.94 778.191 333.86 778.851 333.77H778.821V333.76Z" fill="#693200"/>
<path d="M807.78 369.01L812.6 357.6L803.66 367.27L807.78 369.01Z" fill="#693200"/>
<path d="M802.22 368.83L786.93 385.38L798.75 390.38L807 370.85L802.22 368.83Z" fill="#693200"/>
<path d="M785.479 386.94L770.189 403.5L789.709 411.75L797.969 392.22L785.479 386.94Z" fill="#693200"/>
<path d="M798.43 331.54C798.1 331.57 797.76 331.6 797.43 331.63C797.77 331.6 798.1 331.57 798.43 331.54Z" fill="#693200"/>
<path d="M818.949 350.72L816.599 353.27L809.619 369.79L829.149 378.04L837.399 358.51L818.949 350.72Z" fill="#693200"/>
<path d="M100.306 121.993L92.0527 141.521L111.58 149.773L119.833 130.246L100.306 121.993Z" fill="#693200"/>
<path d="M91.2743 143.359L83.0215 162.887L102.549 171.14L110.802 151.612L91.2743 143.359Z" fill="#693200"/>
<path d="M68.0598 133.55L59.4298 129.9L51.0098 149.36L59.8098 153.08L68.0598 133.55Z" fill="#693200"/>
<path d="M109.335 100.626L101.082 120.153L120.61 128.406L128.863 108.878L109.335 100.626Z" fill="#693200"/>
<path d="M145.45 15.1491L137.197 34.6768L156.725 42.9296L164.978 23.4019L145.45 15.1491Z" fill="#693200"/>
<path d="M136.429 36.5153L128.176 56.043L147.703 64.2958L155.956 44.7681L136.429 36.5153Z" fill="#693200"/>
<path d="M179.163 54.5778L170.91 74.1055L190.438 82.3583L198.691 62.8306L179.163 54.5778Z" fill="#693200"/>
<path d="M175.866 2.80727L167.613 22.335L187.141 30.5878L195.394 11.0601L175.866 2.80727Z" fill="#693200"/>
<path d="M197.233 11.8385L188.98 31.3662L208.508 39.619L216.761 20.0913L197.233 11.8385Z" fill="#693200"/>
<path d="M130.702 109.647L122.449 129.175L141.977 137.428L150.23 117.9L130.702 109.647Z" fill="#693200"/>
<path d="M166.827 24.1803L158.574 43.708L178.102 51.9608L186.355 32.4332L166.827 24.1803Z" fill="#693200"/>
<path d="M188.192 33.2106L179.939 52.7383L199.467 60.9911L207.72 41.4634L188.192 33.2106Z" fill="#693200"/>
<path d="M121.671 131.023L113.418 150.551L132.946 158.804L141.198 139.276L121.671 131.023Z" fill="#693200"/>
<path d="M139.733 88.2799L131.48 107.808L151.008 116.06L159.261 96.5328L139.733 88.2799Z" fill="#693200"/>
<path d="M157.796 45.5465L149.543 65.0742L169.071 73.3271L177.323 53.7994L157.796 45.5465Z" fill="#693200"/>
<path d="M148.765 66.9137L140.512 86.4414L160.039 94.6942L168.292 75.1666L148.765 66.9137Z" fill="#693200"/>
<path d="M101.769 172.98L82.2394 164.73L77.6094 175.69H100.619L101.769 172.98Z" fill="#693200"/>
<path d="M118.366 79.2487L110.113 98.7764L129.641 107.029L137.894 87.5015L118.366 79.2487Z" fill="#693200"/>
<path d="M95.1504 69.4403L87.0804 66.0303L78.6504 85.4803L86.9004 88.9703L95.1504 69.4403Z" fill="#693200"/>
<path d="M86.1195 90.8103L77.8595 87.3203L69.4395 106.77L77.8695 110.34L86.1195 90.8103Z" fill="#693200"/>
<path d="M104.179 48.0702L96.2891 44.7402L87.8691 64.1902L95.9291 67.6002L104.179 48.0702Z" fill="#693200"/>
<path d="M106.02 48.8512L97.7676 68.3789L117.295 76.6317L125.548 57.104L106.02 48.8512Z" fill="#693200"/>
<path d="M115.052 27.485L106.799 47.0127L126.327 55.2655L134.579 35.7378L115.052 27.485Z" fill="#693200"/>
<path d="M59.0291 154.92L50.2091 151.19L41.7891 170.65L50.7791 174.44L59.0291 154.92Z" fill="#693200"/>
<path d="M69.9071 134.329L61.6543 153.856L81.182 162.109L89.4348 142.582L69.9071 134.329Z" fill="#693200"/>
<path d="M124.087 6.10902L115.834 25.6367L135.362 33.8896L143.615 14.3619L124.087 6.10902Z" fill="#693200"/>
<path d="M77.0907 112.18L68.6407 108.61L60.2207 128.07L68.8407 131.71L77.0907 112.18Z" fill="#693200"/>
<path d="M78.9384 112.962L70.6855 132.489L90.2132 140.742L98.4661 121.214L78.9384 112.962Z" fill="#693200"/>
<path d="M103.611 173.76L102.801 175.69H108.171L103.611 173.76Z" fill="#693200"/>
<path d="M127.397 57.8825L119.145 77.4102L138.672 85.663L146.925 66.1353L127.397 57.8825Z" fill="#693200"/>
<path d="M97.0009 70.2184L88.748 89.7461L108.276 97.9989L116.529 78.4712L97.0009 70.2184Z" fill="#693200"/>
<path d="M75.4391 175.69L80.3991 163.95L60.8691 155.7L52.6191 175.22L53.7091 175.69H75.4391Z" fill="#693200"/>
<path d="M87.9696 91.5954L79.7168 111.123L99.2445 119.376L107.497 99.8482L87.9696 91.5954Z" fill="#693200"/>
<path d="M113.21 26.7002L105.51 23.4502L97.0898 42.9002L104.96 46.2302L113.21 26.7002Z" fill="#693200"/>
<path d="M122.251 5.33039L114.721 2.15039L106.301 21.6104L113.991 24.8604L122.251 5.33039Z" fill="#693200"/>
<path d="M182.468 106.342L174.215 125.87L193.743 134.123L201.995 114.595L182.468 106.342Z" fill="#693200"/>
<path d="M222.68 70.7895L230.9 74.2695L238.69 54.5395L230.93 51.2695L222.68 70.7895Z" fill="#693200"/>
<path d="M231.711 49.4204L239.421 52.6804L247.211 32.9604L239.961 29.9004L231.711 49.4204Z" fill="#693200"/>
<path d="M240.74 28.0603L247.95 31.1003L255.74 11.3803L248.99 8.53027L240.74 28.0603Z" fill="#693200"/>
<path d="M256.47 9.52L260.23 0H252.6L249.77 6.69L256.47 9.52Z" fill="#693200"/>
<path d="M213.65 92.1597L222.37 95.8496L230.16 76.1296L221.9 72.6396L213.65 92.1597Z" fill="#693200"/>
<path d="M204.619 113.53L213.849 117.43L221.639 97.71L212.869 94L204.619 113.53Z" fill="#693200"/>
<path d="M186.561 156.27L196.791 160.6L204.591 140.87L194.811 136.74L186.561 156.27Z" fill="#693200"/>
<path d="M195.59 134.9L205.32 139.01L213.11 119.29L203.84 115.37L195.59 134.9Z" fill="#693200"/>
<path d="M144.389 12.52L149.679 0H126.669L124.869 4.27L144.389 12.52Z" fill="#693200"/>
<path d="M165.76 21.55L174.01 2.03L169.22 0H151.86L146.23 13.3L165.76 21.55Z" fill="#693200"/>
<path d="M174.869 0H174.359L174.789 0.18L174.869 0Z" fill="#693200"/>
<path d="M177.529 177.64L188.269 182.18L196.059 162.46L185.779 158.11L177.529 177.64Z" fill="#693200"/>
<path d="M123.02 3.49L124.5 0H115.65L115.52 0.32L123.02 3.49Z" fill="#693200"/>
<path d="M196.161 9.22L200.061 0H177.041L176.631 0.96L196.161 9.22Z" fill="#693200"/>
<path d="M250.429 0H233.949L247.929 5.91L250.429 0Z" fill="#693200"/>
<path d="M238.899 27.28L247.149 7.75L228.809 0H227.409L219.369 19.02L238.899 27.28Z" fill="#693200"/>
<path d="M217.53 18.25L225.24 0H202.23L198 9.99L217.53 18.25Z" fill="#693200"/>
<path d="M157.619 219.6L165.879 200.07L146.349 191.82L143.289 199.06V213.54L157.619 219.6Z" fill="#693200"/>
<path d="M218.6 20.8688L210.348 40.3965L229.875 48.6493L238.128 29.1216L218.6 20.8688Z" fill="#693200"/>
<path d="M191.497 84.9752L183.244 104.503L202.772 112.756L211.025 93.2281L191.497 84.9752Z" fill="#693200"/>
<path d="M209.569 42.2457L201.316 61.7734L220.844 70.0263L229.097 50.4986L209.569 42.2457Z" fill="#693200"/>
<path d="M125.811 175.69L132.171 160.64L112.641 152.39L104.391 171.92L113.311 175.69H125.811Z" fill="#693200"/>
<path d="M152.069 118.677L143.816 138.205L163.344 146.458L171.597 126.93L152.069 118.677Z" fill="#693200"/>
<path d="M161.1 97.3112L152.848 116.839L172.375 125.092L180.628 105.564L161.1 97.3112Z" fill="#693200"/>
<path d="M173.436 127.709L165.184 147.236L184.711 155.489L192.964 135.961L173.436 127.709Z" fill="#693200"/>
<path d="M168.5 199.01L179.74 203.76L187.53 184.04L176.75 179.48L168.5 199.01Z" fill="#693200"/>
<path d="M143.038 140.045L134.785 159.572L154.313 167.825L162.566 148.297L143.038 140.045Z" fill="#693200"/>
<path d="M164.415 149.076L156.162 168.604L175.69 176.856L183.943 157.329L164.415 149.076Z" fill="#693200"/>
<path d="M159.471 220.38L166.201 223.22H172.061L179.011 205.62L167.721 200.85L159.471 220.38Z" fill="#693200"/>
<path d="M143.289 215.71V223.22H156.089L156.839 221.44L143.289 215.71Z" fill="#693200"/>
<path d="M158.26 223.22H161.06L158.69 222.22L158.26 223.22Z" fill="#693200"/>
<path d="M155.384 170.442L147.131 189.97L166.659 198.223L174.911 178.695L155.384 170.442Z" fill="#693200"/>
<path d="M170.132 75.944L161.879 95.4717L181.407 103.725L189.659 84.1968L170.132 75.944Z" fill="#693200"/>
<path d="M143.289 193.93L144.509 191.04L143.289 190.53V193.93Z" fill="#693200"/>
<path d="M200.528 63.609L192.275 83.1367L211.803 91.3896L220.056 71.8619L200.528 63.609Z" fill="#693200"/>
<path d="M143.29 188.35L145.28 189.2L153.54 169.67L134.01 161.42L127.98 175.69H143.29V188.35Z" fill="#693200"/>
<path d="M22.5691 215.06L19.0391 223.22L22.5691 215.06Z" fill="#693200"/>
<path d="M39.6101 175.69H48.5801L41.0001 172.48L39.6101 175.69L32.5801 191.94L39.6101 175.69Z" fill="#693200"/>
<path d="M143.289 213.54V199.06V193.93V190.53V188.35V175.69H127.979H125.809H113.309H108.169H102.799H100.619H77.6091H75.4391H53.7091H52.4191H50.2491H48.5791H39.6091L32.5791 191.94L31.7791 193.77L23.3591 213.23L22.5691 215.06L19.0391 223.22H143.289V215.71V213.54Z" fill="#3A2C1F"/>
<path d="M886.809 215.89V40.14H931.749V231.58V0H820.049C803.049 23.2 794.359 51.7 794.359 84.26C794.359 143.41 819.469 186.66 886.809 215.89Z" fill="#693200"/>
<path d="M931.68 231.56C929.81 231.04 927.98 230.5 926.15 229.97C927.97 230.51 929.81 231.04 931.68 231.56Z" fill="#693200"/>
<path d="M902.26 222.07C896.89 220.08 891.74 218.03 886.83 215.89C891.75 218.02 896.89 220.08 902.26 222.07Z" fill="#693200"/>
<path d="M907.63 224C905.99 223.43 904.37 222.84 902.77 222.26C904.37 222.85 905.99 223.43 907.63 224Z" fill="#693200"/>
<path d="M595.32 437.91V478.72H638.26V340.68H370.66V437.91H595.32Z" fill="#9E4C00"/>
<path d="M370.661 478.72V437.91H327.721V539.88V540H595.321V539.88V478.72H370.661Z" fill="#693200"/>
<path d="M739.69 279.46C729.58 235.5 706.52 195.25 674.17 164.67V287.72H741.58L739.68 279.47L739.69 279.46Z" fill="#3A2C1F"/>
<path d="M370.66 437.91V478.72H595.32V437.91H370.66Z" fill="#3A2C1F"/>
<path d="M143.291 257.35C141.571 257.29 139.831 257.25 138.091 257.22C137.721 257.22 137.341 257.2 136.971 257.2C135.231 257.17 133.471 257.15 131.701 257.14C131.481 257.14 131.261 257.14 131.041 257.14C129.421 257.14 127.781 257.14 126.141 257.15C125.791 257.15 125.431 257.15 125.081 257.15C123.291 257.17 121.491 257.2 119.681 257.24C119.341 257.24 119.001 257.26 118.661 257.27C117.011 257.31 115.341 257.37 113.671 257.43C113.391 257.44 113.111 257.45 112.831 257.46C110.991 257.54 109.131 257.63 107.261 257.73C106.861 257.75 106.461 257.78 106.061 257.8C104.251 257.91 102.431 258.02 100.601 258.16C100.491 258.16 100.391 258.17 100.281 258.18C98.3805 258.32 96.4605 258.48 94.5405 258.65C94.1105 258.69 93.6805 258.73 93.2505 258.77C91.3305 258.95 89.3905 259.14 87.4605 259.35C87.3205 259.37 87.1705 259.38 87.0305 259.4C85.2005 259.6 83.3705 259.82 81.5305 260.06C81.1105 260.11 80.6905 260.17 80.2705 260.22C78.3405 260.47 76.4105 260.74 74.4705 261.03C74.1505 261.08 73.8305 261.13 73.5105 261.18C71.7605 261.44 70.0205 261.73 68.2605 262.02C67.8905 262.08 67.5305 262.14 67.1605 262.2C65.2205 262.53 63.2805 262.89 61.3305 263.26C60.9305 263.34 60.5205 263.42 60.1205 263.5C58.3205 263.85 56.5305 264.22 54.7305 264.6C54.4805 264.65 54.2405 264.7 53.9905 264.75C52.0305 265.18 50.0705 265.63 48.1105 266.09C47.6705 266.19 47.2305 266.3 46.7905 266.41C44.7905 266.9 42.8005 267.4 40.8105 267.93V313.71H143.291V257.34V257.35Z" fill="#3A2C1F"/>
<path d="M252.599 0H250.429L247.929 5.91L233.949 0H228.809L247.149 7.75L238.899 27.28L219.369 19.03L227.409 0H225.239L217.529 18.25L197.999 10L202.219 0.01H200.049L196.159 9.23L176.629 0.96L177.039 0H174.869L174.789 0.18L174.349 0H169.209L174.009 2.03L165.759 21.56L146.229 13.31L151.849 0.01H149.679L144.389 12.53L124.859 4.28L126.659 0.01H124.489L123.009 3.5L115.499 0.33L114.709 2.17L122.229 5.35L113.979 24.88L106.289 21.63L105.499 23.47L113.209 26.73L104.959 46.26L97.0793 42.93L96.2893 44.77L104.179 48.11L95.9293 67.64L87.8693 64.23L87.0793 66.07L95.1593 69.48L86.9093 89.01L78.6593 85.53L77.8693 87.37L86.1293 90.86L77.8793 110.39L69.4493 106.83L68.6593 108.67L77.1093 112.24L68.8593 131.77L60.2393 128.13L59.4493 129.97L68.0793 133.62L59.8293 153.15L51.0293 149.43L50.2393 151.27L59.0593 155L50.8093 174.53L41.8193 170.73L41.0293 172.57L48.6093 175.77H53.7493L52.6593 175.31L60.9093 155.78L80.4393 164.03L75.4793 175.77H77.6493L82.2793 164.81L101.809 173.06L100.669 175.77H102.839L103.649 173.84L108.209 175.77H113.349L104.429 172L112.679 152.47L132.209 160.72L125.849 175.76H128.019L134.049 161.49L153.579 169.74L145.329 189.27L143.329 188.43V190.6L144.549 191.12L143.329 194.01V199.15L146.389 191.91L165.919 200.16L157.669 219.69L143.329 213.63V215.8L156.889 221.53L156.139 223.31H158.309L158.729 222.31L161.099 223.31H166.239L159.509 220.46L167.759 200.93L179.049 205.7L179.779 203.84L168.529 199.09L176.779 179.56L187.569 184.12L188.299 182.26L177.559 177.72L185.809 158.19L196.089 162.53L196.829 160.67L186.589 156.34L194.839 136.81L204.619 140.94L205.349 139.08L195.619 134.97L203.869 115.44L213.139 119.36L213.869 117.5L204.639 113.6L212.889 94.07L221.649 97.77L222.389 95.91L213.669 92.22L221.919 72.69L230.179 76.18L230.909 74.32L222.689 70.85L230.939 51.32L238.689 54.6L239.419 52.74L231.709 49.48L239.959 29.95L247.209 33.01L247.949 31.15L240.749 28.11L248.999 8.58L255.739 11.43L256.469 9.57L249.769 6.74L252.599 0.05V0ZM197.229 11.84L216.759 20.09L208.509 39.62L188.979 31.37L197.229 11.84ZM140.509 86.44L148.759 66.91L168.289 75.16L160.039 94.69L140.509 86.44ZM159.259 96.53L151.009 116.06L131.479 107.81L139.729 88.28L159.259 96.53ZM149.539 65.07L157.789 45.54L177.319 53.79L169.069 73.32L149.539 65.07ZM147.699 64.29L128.169 56.04L136.419 36.51L155.949 44.76L147.699 64.29ZM146.919 66.13L138.669 85.66L119.139 77.41L127.389 57.88L146.919 66.13ZM137.889 87.5L129.639 107.03L110.109 98.78L118.359 79.25L137.889 87.5ZM128.859 108.87L120.609 128.4L101.079 120.15L109.329 100.62L128.859 108.87ZM130.699 109.65L150.229 117.9L141.979 137.43L122.449 129.18L130.699 109.65ZM152.069 118.68L171.599 126.93L163.349 146.46L143.819 138.21L152.069 118.68ZM152.849 116.84L161.099 97.31L180.629 105.56L172.379 125.09L152.849 116.84ZM161.879 95.47L170.129 75.94L189.659 84.19L181.409 103.72L161.879 95.47ZM170.909 74.1L179.159 54.57L198.689 62.82L190.439 82.35L170.909 74.1ZM179.939 52.73L188.189 33.2L207.719 41.45L199.469 60.98L179.939 52.73ZM175.859 2.81L195.389 11.06L187.139 30.59L167.609 22.34L175.859 2.81ZM166.829 24.17L186.359 32.42L178.109 51.95L158.579 43.7L166.829 24.17ZM145.459 15.14L164.989 23.39L156.739 42.92L137.209 34.67L145.459 15.14ZM124.089 6.11L143.619 14.36L135.369 33.89L115.839 25.64L124.089 6.11ZM115.059 27.48L134.589 35.73L126.339 55.26L106.809 47.01L115.059 27.48ZM106.029 48.85L125.559 57.1L117.309 76.63L97.7793 68.38L106.029 48.85ZM96.9993 70.22L116.529 78.47L108.279 98L88.7493 89.75L96.9993 70.22ZM87.9593 91.59L107.489 99.84L99.2393 119.37L79.7093 111.12L87.9593 91.59ZM78.9293 112.96L98.4593 121.21L90.2093 140.74L70.6793 132.49L78.9293 112.96ZM81.1793 162.11L61.6493 153.86L69.8993 134.33L89.4293 142.58L81.1793 162.11ZM102.549 171.14L83.0193 162.89L91.2693 143.36L110.799 151.61L102.549 171.14ZM111.579 149.77L92.0493 141.52L100.299 121.99L119.829 130.24L111.579 149.77ZM132.949 158.8L113.419 150.55L121.669 131.02L141.199 139.27L132.949 158.8ZM134.789 159.58L143.039 140.05L162.569 148.3L154.319 167.83L134.789 159.58ZM166.649 198.23L147.119 189.98L155.369 170.45L174.899 178.7L166.649 198.23ZM175.679 176.86L156.149 168.61L164.399 149.08L183.929 157.33L175.679 176.86ZM184.719 155.49L165.189 147.24L173.439 127.71L192.969 135.96L184.719 155.49ZM193.749 134.12L174.219 125.87L182.469 106.34L201.999 114.59L193.749 134.12ZM202.779 112.75L183.249 104.5L191.499 84.97L211.029 93.22L202.779 112.75ZM211.809 91.38L192.279 83.13L200.529 63.6L220.059 71.85L211.809 91.38ZM220.839 70.01L201.309 61.76L209.559 42.23L229.089 50.48L220.839 70.01ZM229.869 48.65L210.339 40.4L218.589 20.87L238.119 29.12L229.869 48.65Z" fill="#3A2C1F"/>
<path d="M960 359.95V357.78L943.56 350.83L949.24 337.38C948.57 337.27 947.89 337.16 947.21 337.05L941.72 350.05L922.19 341.8L925.49 334C924.81 333.92 924.12 333.83 923.43 333.75L920.36 341.02L900.83 332.77L901.37 331.49C900.67 331.43 899.97 331.37 899.27 331.32L898.98 332L896.93 331.14C894.89 330.98 892.81 330.83 890.72 330.69L898.2 333.85L889.95 353.38L870.42 345.13L876.86 329.9C876.15 329.87 875.44 329.84 874.73 329.8L868.58 344.34L849.05 336.09L851.94 329.25C851.22 329.25 850.49 329.25 849.77 329.25L847.21 335.31L837.14 331.05L835.7 332.61L846.44 337.15L838.19 356.68L820.41 349.17L818.97 350.73L837.41 358.52L829.16 378.05L809.63 369.8L816.61 353.28L812.61 357.61L807.79 369.02L803.68 367.28L802.24 368.84L807.02 370.86L798.77 390.39L786.95 385.4L785.51 386.96L797.99 392.24L789.74 411.77L770.22 403.52L766.22 407.86L759.35 424.11L753.49 421.63L752.05 423.19L758.57 425.95L750.32 445.48L736.76 439.75L735.32 441.31L749.55 447.32L741.3 466.85L725.33 460.1V462.27L740.53 468.69L732.28 488.22L725.34 485.29V487.46L731.5 490.06L725.34 504.65V509.79L733.35 490.84L752.88 499.09L744.63 518.62L725.35 510.47V512.64L743.85 520.46L735.6 539.99L725.35 535.66V537.83L730.55 540.03H737.75L745.69 521.24L765.22 529.49L760.77 540.02H762.94L767.06 530.26L786.59 538.51L785.95 540.01H788.12L788.43 539.28L790.15 540.01H795.29L789.21 537.44L797.46 517.91L816.99 526.16L811.14 540H813.31L818.83 526.94L838.36 535.19L836.33 540H838.5L840.2 535.97L849.74 540H854.88L840.98 534.12L849.23 514.59L868.76 522.84L861.51 539.99H863.68L870.6 523.62L890.13 531.87L886.7 539.99H888.87L891.97 532.65L909.34 539.99H914.48L914.12 539.84L922.37 520.31L941.9 528.56L937.07 539.99H939.24L943.74 529.34L960.07 536.24V534.07L944.52 527.5L952.77 507.97L960.07 511.06V508.89L953.55 506.13L960.07 490.7V483.7L941.21 475.73L949.46 456.2L960.07 460.68V458.51L950.24 454.36L958.49 434.83L960.07 435.5V433.33L959.27 432.99L960.07 431.1V425.96L957.43 432.21L937.9 423.96L946.15 404.43L960.07 410.31V408.14L946.93 402.59L955.18 383.06L960.06 385.12V382.95L955.95 381.21L960.06 371.49V366.35L954.11 380.42L934.58 372.17L942.83 352.64L960.05 359.92L960 359.95ZM900.04 334.61L919.57 342.86L911.32 362.39L891.79 354.14L900.04 334.61ZM764.46 476.63L772.71 457.1L792.24 465.35L783.99 484.88L764.46 476.63ZM783.21 486.73L774.96 506.26L755.43 498.01L763.68 478.48L783.21 486.73ZM854.89 441.46L874.42 449.71L866.17 469.24L846.64 460.99L854.89 441.46ZM844.79 460.21L825.26 451.96L833.51 432.43L853.04 440.68L844.79 460.21ZM883.44 428.34L875.19 447.87L855.66 439.62L863.91 420.09L883.44 428.34ZM864.69 418.25L872.94 398.72L892.47 406.97L884.22 426.5L864.69 418.25ZM876.25 450.49L895.78 458.74L887.53 478.27L868 470.02L876.25 450.49ZM877.03 448.65L885.28 429.12L904.81 437.37L896.56 456.9L877.03 448.65ZM886.06 427.28L894.31 407.75L913.84 416L905.59 435.53L886.06 427.28ZM893.25 405.13L873.72 396.88L881.97 377.35L901.5 385.6L893.25 405.13ZM871.88 396.1L852.35 387.85L860.6 368.32L880.13 376.57L871.88 396.1ZM871.1 397.94L862.85 417.47L843.32 409.22L851.57 389.69L871.1 397.94ZM862.07 419.31L853.82 438.84L834.29 430.59L842.54 411.06L862.07 419.31ZM832.45 429.81L812.92 421.56L821.17 402.03L840.7 410.28L832.45 429.81ZM831.67 431.65L823.42 451.18L803.89 442.93L812.14 423.4L831.67 431.65ZM822.64 453.02L814.39 472.55L794.86 464.3L803.11 444.77L822.64 453.02ZM793.02 463.52L773.49 455.27L781.74 435.74L801.27 443.99L793.02 463.52ZM794.09 466.14L813.62 474.39L805.37 493.92L785.84 485.67L794.09 466.14ZM815.45 475.17L834.98 483.42L826.73 502.95L807.2 494.7L815.45 475.17ZM816.23 473.32L824.48 453.79L844.01 462.04L835.76 481.57L816.23 473.32ZM845.85 462.83L865.38 471.08L857.13 490.61L837.6 482.36L845.85 462.83ZM867.22 471.86L886.75 480.11L878.5 499.64L858.97 491.39L867.22 471.86ZM888.59 480.89L908.12 489.14L899.87 508.67L880.34 500.42L888.59 480.89ZM889.37 479.05L897.62 459.52L917.15 467.77L908.9 487.3L889.37 479.05ZM918.99 468.55L938.52 476.8L930.27 496.33L910.74 488.08L918.99 468.55ZM917.93 465.93L898.4 457.68L906.65 438.15L926.18 446.4L917.93 465.93ZM907.43 436.31L915.68 416.78L935.21 425.03L926.96 444.56L907.43 436.31ZM914.62 414.16L895.09 405.91L903.34 386.38L922.87 394.63L914.62 414.16ZM904.12 384.54L912.37 365.01L931.9 373.26L923.65 392.79L904.12 384.54ZM891.01 355.98L910.54 364.23L902.29 383.76L882.76 375.51L891.01 355.98ZM869.64 346.95L889.17 355.2L880.92 374.73L861.39 366.48L869.64 346.95ZM848.27 337.92L867.8 346.17L859.55 365.7L840.02 357.45L848.27 337.92ZM839.24 359.29L858.77 367.54L850.52 387.07L830.99 378.82L839.24 359.29ZM830.21 380.66L849.74 388.91L841.49 408.44L821.96 400.19L830.21 380.66ZM808.84 371.63L828.37 379.88L820.12 399.41L800.59 391.16L808.84 371.63ZM799.81 393L819.34 401.25L811.09 420.78L791.56 412.53L799.81 393ZM790.78 414.37L810.31 422.62L802.06 442.15L782.53 433.9L790.78 414.37ZM769.41 405.34L788.94 413.59L780.69 433.12L761.16 424.87L769.41 405.34ZM760.38 426.71L779.91 434.96L771.66 454.49L752.13 446.24L760.38 426.71ZM751.35 448.07L770.88 456.32L762.63 475.85L743.1 467.6L751.35 448.07ZM734.06 488.97L742.31 469.44L761.84 477.69L753.59 497.22L734.06 488.97ZM765.93 527.62L746.4 519.37L754.65 499.84L774.18 508.09L765.93 527.62ZM787.3 536.65L767.77 528.4L776.02 508.87L795.55 517.12L787.3 536.65ZM796.33 515.28L776.8 507.03L785.05 487.5L804.58 495.75L796.33 515.28ZM817.7 524.32L798.17 516.07L806.42 496.54L825.95 504.79L817.7 524.32ZM839.07 533.35L819.54 525.1L827.79 505.57L847.32 513.82L839.07 533.35ZM848.1 511.98L828.57 503.73L836.82 484.2L856.35 492.45L848.1 511.98ZM869.47 521.01L849.94 512.76L858.19 493.23L877.72 501.48L869.47 521.01ZM890.84 530.04L871.31 521.79L879.56 502.26L899.09 510.51L890.84 530.04ZM912.21 539.07L892.68 530.82L900.93 511.29L920.46 519.54L912.21 539.07ZM921.24 517.7L901.71 509.45L909.96 489.92L929.49 498.17L921.24 517.7ZM942.61 526.73L923.08 518.48L931.33 498.95L950.86 507.2L942.61 526.73ZM959.89 485.83L951.64 505.36L932.11 497.11L940.36 477.58L959.89 485.83ZM939.3 474.96L919.77 466.71L928.02 447.18L947.55 455.43L939.3 474.96ZM956.58 434.07L948.33 453.6L928.8 445.35L937.05 425.82L956.58 434.07ZM935.99 423.19L916.46 414.94L924.71 395.41L944.24 403.66L935.99 423.19ZM953.27 382.3L945.02 401.83L925.49 393.58L933.74 374.05L953.27 382.3ZM932.68 371.42L913.15 363.17L921.4 343.64L940.93 351.89L932.68 371.42Z" fill="#3A2C1F"/>
<path d="M820.4 349.16L835.69 332.61L837.13 331.05L838.71 329.34C836.94 329.37 835.16 329.42 833.37 329.47C831.79 329.51 830.189 329.57 828.599 329.62C827.919 329.64 827.24 329.67 826.56 329.69C825.82 329.72 825.089 329.75 824.349 329.78C820.169 329.96 815.95 330.19 811.7 330.48C811.45 330.5 811.2 330.51 810.95 330.53C808.95 330.67 806.939 330.82 804.919 330.98C804.629 331 804.329 331.03 804.039 331.05C802.919 331.14 801.789 331.25 800.669 331.35C799.919 331.42 799.169 331.48 798.419 331.55C798.079 331.58 797.749 331.61 797.419 331.64C797.389 331.64 797.36 331.64 797.33 331.64C792.77 332.07 788.18 332.58 783.58 333.15C783.11 333.21 782.65 333.27 782.18 333.33C781.07 333.47 779.959 333.62 778.849 333.77C778.199 333.86 777.55 333.94 776.89 334.03C776.27 334.12 775.65 334.2 775.03 334.29C774.75 334.33 774.47 334.37 774.2 334.41C773.43 334.52 772.66 334.64 771.88 334.75C771.25 334.84 770.619 334.93 769.979 335.03C769.379 335.12 768.779 335.21 768.169 335.31C766.179 335.62 764.18 335.95 762.18 336.3C761.93 336.34 761.68 336.38 761.43 336.43C759.16 336.82 756.9 337.24 754.62 337.67C754.1 337.77 753.579 337.88 753.049 337.98C751.339 338.31 749.64 338.65 747.93 339C747.16 339.16 746.4 339.32 745.63 339.48C745.28 339.55 744.94 339.63 744.59 339.71C743.44 339.96 742.29 340.2 741.14 340.46C740.33 340.64 739.529 340.82 738.719 341.01C738.209 341.13 737.7 341.25 737.2 341.37C736.17 341.61 735.139 341.85 734.109 342.1C733.389 342.27 732.68 342.44 731.96 342.62C729.75 343.17 727.54 343.73 725.34 344.32C725.32 344.32 725.29 344.33 725.27 344.34V452.12L735.27 441.3L736.71 439.74L752 423.19L753.44 421.63L766.169 407.86L770.169 403.53L785.46 386.97L786.9 385.41L802.19 368.86L803.63 367.3L812.57 357.63L816.57 353.3L818.919 350.75L820.359 349.19L820.4 349.16Z" fill="#3A2C1F"/>
<path d="M902.26 222.07C902.43 222.13 902.6 222.19 902.77 222.26C904.37 222.85 905.99 223.43 907.63 224C907.82 224.07 908.01 224.13 908.2 224.2C911.71 225.42 915.31 226.61 919.01 227.78C919.48 227.93 919.96 228.07 920.43 228.22C921.8 228.65 923.19 229.07 924.59 229.49C925.11 229.65 925.63 229.8 926.16 229.96C927.98 230.5 929.82 231.03 931.69 231.55C931.71 231.55 931.74 231.56 931.76 231.57V40.1396H886.82V215.89C891.74 218.02 896.88 220.08 902.25 222.07H902.26Z" fill="#3A2C1F"/>
</g>
<defs>
<clipPath id="clip0_287_77616">
<rect width="960.07" height="540.03" fill="white"/>
</clipPath>
</defs>
</svg>
