<svg width="48" height="48" viewBox="0 0 48 48" fill="none" xmlns="http://www.w3.org/2000/svg">
<g clip-path="url(#clip0_448_7040)">
<path fill-rule="evenodd" clip-rule="evenodd" d="M20.0238 11.5355C23.5382 8.02184 29.2355 8.02213 32.7495 11.5362C36.2638 15.0505 36.2638 20.7482 32.7495 24.2625L26.7416 30.2704C24.5937 32.4183 21.1113 32.4183 18.9635 30.2704C16.8156 28.1226 16.8156 24.6402 18.9635 22.4923L24.9704 16.4853L27.7988 19.3138L21.7919 25.3207C21.2061 25.9065 21.2061 26.8562 21.7919 27.442C22.3777 28.0278 23.3274 28.0278 23.9132 27.442L29.9211 21.4341C31.8733 19.4819 31.8733 16.3168 29.9211 14.3646C27.9691 12.4125 24.8042 12.4124 22.852 14.3642L16.84 20.375C13.5202 23.6941 13.5199 29.0761 16.8393 32.3955C20.1585 35.7147 25.54 35.7147 28.8592 32.3955L34.8699 26.3848L37.6983 29.2133L31.6876 35.2239C26.8063 40.1052 18.8922 40.1052 14.0109 35.2239C9.12925 30.3423 9.12966 22.4274 14.0118 17.5463L20.0238 11.5355Z" fill="#101214"/>
</g>
<defs>
<clipPath id="clip0_448_7040">
<rect width="48" height="48" fill="white"/>
</clipPath>
</defs>
</svg>
