<svg width="48" height="48" viewBox="0 0 48 48" fill="none" xmlns="http://www.w3.org/2000/svg">
<g clip-path="url(#clip0_448_7356)">
<path d="M24 8C21.2386 8 19 10.2386 19 13V22C19 24.7614 21.2386 27 24 27C26.7614 27 29 24.7614 29 22V13C29 10.2386 26.7614 8 24 8Z" fill="#101214"/>
<path d="M16 22C16 23.0506 16.2069 24.0909 16.609 25.0615C17.011 26.0321 17.6003 26.914 18.3431 27.6569C19.086 28.3997 19.9679 28.989 20.9385 29.391C21.9091 29.7931 22.9494 30 24 30C25.0506 30 26.0909 29.7931 27.0615 29.391C28.0321 28.989 28.914 28.3997 29.6569 27.6569C30.3997 26.914 30.989 26.0321 31.391 25.0615C31.7931 24.0909 32 23.0506 32 22H36C36 23.5759 35.6896 25.1363 35.0866 26.5922C34.4835 28.0481 33.5996 29.371 32.4853 30.4853C31.371 31.5996 30.0481 32.4835 28.5922 33.0866C27.7569 33.4325 26.8873 33.6822 26 33.8322L26 36H32V40H16V36H22L22 33.8322C21.1127 33.6822 20.2431 33.4325 19.4078 33.0866C17.9519 32.4835 16.629 31.5996 15.5147 30.4853C14.4004 29.371 13.5165 28.0481 12.9134 26.5922C12.3104 25.1363 12 23.5759 12 22H16Z" fill="#101214"/>
</g>
<defs>
<clipPath id="clip0_448_7356">
<rect width="48" height="48" fill="white"/>
</clipPath>
</defs>
</svg>
