<svg width="48" height="48" viewBox="0 0 48 48" fill="none" xmlns="http://www.w3.org/2000/svg">
<g clip-path="url(#clip0_448_6722)">
<path fill-rule="evenodd" clip-rule="evenodd" d="M32.8461 37.3342C37.1581 34.4679 40 29.5658 40 24C40 15.1634 32.8366 8 24 8C15.1634 8 8 15.1634 8 24C8 29.5658 10.8419 34.4679 15.1539 37.3342C15.9351 33.1595 19.5986 30 24 30C28.4014 30 32.0649 33.1595 32.8461 37.3342ZM24 27C27.3137 27 30 24.3137 30 21C30 17.6863 27.3137 15 24 15C20.6863 15 18 17.6863 18 21C18 24.3137 20.6863 27 24 27Z" fill="#101214"/>
</g>
<defs>
<clipPath id="clip0_448_6722">
<rect width="48" height="48" fill="white"/>
</clipPath>
</defs>
</svg>
