<svg width="48" height="48" viewBox="0 0 48 48" fill="none" xmlns="http://www.w3.org/2000/svg">
<path fill-rule="evenodd" clip-rule="evenodd" d="M18 9C20.2091 9 21.9999 10.7908 22 12.9998V15H26V12.9998C26.0001 10.7908 27.7909 9 30 9C31.5923 9 32.9673 9.93041 33.611 11.2772L40.927 24.9953C41.6094 26.1731 42 27.5409 42 29C42 33.4183 38.4183 37 34 37C29.5817 37 26 33.4183 26 29L26 26H22V28.9998C22 33.4181 18.4183 37 14 37C9.58172 37 6 33.4183 6 29C6 27.5409 6.39061 26.1731 7.07297 24.9953L14.389 11.2772C15.0327 9.93041 16.4077 9 18 9ZM19 29C19 31.7614 16.7614 34 14 34C11.2386 34 9 31.7614 9 29C9 26.2386 11.2386 24 14 24C16.7614 24 19 26.2386 19 29ZM29 29C29 31.7614 31.2386 34 34 34C36.7614 34 39 31.7614 39 29C39 26.2386 36.7614 24 34 24C31.2386 24 29 26.2386 29 29Z" fill="#101214"/>
</svg>
