<svg width="48" height="48" viewBox="0 0 48 48" fill="none" xmlns="http://www.w3.org/2000/svg">
<g clip-path="url(#clip0_448_7025)">
<path d="M12 12C12 9.23858 14.2386 7 17 7C19.7614 7 22 9.23858 22 12C22 14.0503 20.7659 15.8124 19 16.584L19 30.416C20.1534 30.92 21.08 31.8466 21.584 33H27C29.2091 33 31 31.2091 31 29V28.584C29.2341 27.8124 28 26.0503 28 24C28 21.2386 30.2386 19 33 19C35.7614 19 38 21.2386 38 24C38 26.0503 36.7659 27.8124 35 28.584V29C35 33.4183 31.4183 37 27 37H21.584C20.8124 38.7659 19.0503 40 17 40C14.2386 40 12 37.7614 12 35C12 32.9497 13.2341 31.1876 15 30.416L15 16.584C13.2341 15.8124 12 14.0503 12 12Z" fill="#101214"/>
</g>
<defs>
<clipPath id="clip0_448_7025">
<rect width="48" height="48" fill="white"/>
</clipPath>
</defs>
</svg>
