<svg width="48" height="48" viewBox="0 0 48 48" fill="none" xmlns="http://www.w3.org/2000/svg">
<g clip-path="url(#clip0_448_7496)">
<path fill-rule="evenodd" clip-rule="evenodd" d="M38 10H10V38H38V10ZM17.0037 15.5C15.8991 15.5 15.0037 16.3954 15.0037 17.5C15.0037 18.6046 15.8991 19.5 17.0037 19.5C18.1082 19.5 19.0037 18.6046 19.0037 17.5C19.0037 16.3954 18.1082 15.5 17.0037 15.5ZM17.0037 28.5C15.8991 28.5 15.0037 29.3954 15.0037 30.5C15.0037 31.6046 15.8991 32.5 17.0037 32.5C18.1082 32.5 19.0037 31.6046 19.0037 30.5C19.0037 29.3954 18.1082 28.5 17.0037 28.5ZM15.0037 24C15.0037 22.8954 15.8991 22 17.0037 22C18.1082 22 19.0037 22.8954 19.0037 24C19.0037 25.1046 18.1082 26 17.0037 26C15.8991 26 15.0037 25.1046 15.0037 24ZM32 19.0139L22 19.0139V16.0139L32 16.0139V19.0139ZM32 25.5L22 25.5V22.5L32 22.5V25.5ZM22 32H32V29H22V32Z" fill="#101214"/>
</g>
<defs>
<clipPath id="clip0_448_7496">
<rect width="48" height="48" fill="white"/>
</clipPath>
</defs>
</svg>
