<svg width="48" height="48" viewBox="0 0 48 48" fill="none" xmlns="http://www.w3.org/2000/svg">
<g clip-path="url(#clip0_448_7145)">
<path d="M15 15C15 16.3807 13.8807 17.5 12.5 17.5C11.1193 17.5 10 16.3807 10 15C10 13.6193 11.1193 12.5 12.5 12.5C13.8807 12.5 15 13.6193 15 15Z" fill="#101214"/>
<path d="M12.5 26.5C13.8807 26.5 15 25.3807 15 24C15 22.6193 13.8807 21.5 12.5 21.5C11.1193 21.5 10 22.6193 10 24C10 25.3807 11.1193 26.5 12.5 26.5Z" fill="#101214"/>
<path d="M12.5 35.5C13.8807 35.5 15 34.3807 15 33C15 31.6193 13.8807 30.5 12.5 30.5C11.1193 30.5 10 31.6193 10 33C10 34.3807 11.1193 35.5 12.5 35.5Z" fill="#101214"/>
<path d="M18 17L38 17V13L18 13V17Z" fill="#101214"/>
<path d="M18 35L38 35V31L18 31V35Z" fill="#101214"/>
<path d="M38 26L18 26V22L38 22V26Z" fill="#101214"/>
</g>
<defs>
<clipPath id="clip0_448_7145">
<rect width="48" height="48" fill="white"/>
</clipPath>
</defs>
</svg>
