<svg width="48" height="48" viewBox="0 0 48 48" fill="none" xmlns="http://www.w3.org/2000/svg">
<g clip-path="url(#clip0_448_7611)">
<path d="M10 21.0001L10 10L21.0001 10V14L14 14L14 21.0001H10Z" fill="#101214"/>
<path d="M30.0001 24.0001C30.0001 27.3138 27.3138 30.0001 24.0001 30.0001C20.6864 30.0001 18.0001 27.3138 18.0001 24.0001C18.0001 20.6864 20.6864 18.0001 24.0001 18.0001C27.3138 18.0001 30.0001 20.6864 30.0001 24.0001Z" fill="#101214"/>
<path d="M38.0001 38.0001V27.0001H34.0001V34.0001H27.0001V38.0001H38.0001Z" fill="#101214"/>
<path d="M27.0001 10L38.0001 10V21.0001H34.0001V14H27.0001V10Z" fill="#101214"/>
<path d="M10.0001 38.0001H21.0001L21.0001 34.0001H14.0001V27.0001H10.0001V38.0001Z" fill="#101214"/>
</g>
<defs>
<clipPath id="clip0_448_7611">
<rect width="48" height="48" fill="white"/>
</clipPath>
</defs>
</svg>
