<svg width="48" height="48" viewBox="0 0 48 48" fill="none" xmlns="http://www.w3.org/2000/svg">
<path d="M27.5 16.5L32 15L27.5 13.5L26 9L24.5 13.5L20 15L24.5 16.5L26 21L27.5 16.5Z" fill="#101214"/>
<path d="M10 39.0002L33.54 32.1802L16.56 15.2002L10 39.0002Z" fill="#101214"/>
<path d="M33.5 27C35.7091 27 37.5 25.2091 37.5 23C37.5 20.7909 35.7091 19 33.5 19C31.2909 19 29.5 20.7909 29.5 23C29.5 25.2091 31.2909 27 33.5 27Z" fill="#101214"/>
<path d="M38 14C38 15.1046 37.1046 16 36 16C34.8954 16 34 15.1046 34 14C34 12.8954 34.8954 12 36 12C37.1046 12 38 12.8954 38 14Z" fill="#101214"/>
</svg>
