<svg width="48" height="48" viewBox="0 0 48 48" fill="none" xmlns="http://www.w3.org/2000/svg">
<path fill-rule="evenodd" clip-rule="evenodd" d="M38.001 33.9994L20.001 33.9998L10.001 39.9994V9.99978L38.001 9.99939V33.9994ZM17.0001 23.9994C18.1047 23.9994 19.0001 23.1039 19.0001 21.9994C19.0001 20.8948 18.1047 19.9994 17.0001 19.9994C15.8956 19.9994 15.0001 20.8948 15.0001 21.9994C15.0001 23.1039 15.8956 23.9994 17.0001 23.9994ZM24.001 23.9994C25.1055 23.9994 26.001 23.1039 26.001 21.9994C26.001 20.8948 25.1055 19.9994 24.001 19.9994C22.8964 19.9994 22.001 20.8948 22.001 21.9994C22.001 23.1039 22.8964 23.9994 24.001 23.9994ZM33.0005 21.9994C33.0005 23.1039 32.1051 23.9994 31.0005 23.9994C29.896 23.9994 29.0005 23.1039 29.0005 21.9994C29.0005 20.8948 29.896 19.9994 31.0005 19.9994C32.1051 19.9994 33.0005 20.8948 33.0005 21.9994Z" fill="#101214"/>
</svg>
