<svg width="48" height="48" viewBox="0 0 48 48" fill="none" xmlns="http://www.w3.org/2000/svg">
<g clip-path="url(#clip0_448_7200)">
<path d="M25.4653 25C25.4653 26.4497 24.2901 27.625 22.8403 27.625C21.3906 27.625 20.2153 26.4497 20.2153 25C20.2153 23.5503 21.3906 22.375 22.8403 22.375C24.2901 22.375 25.4653 23.5503 25.4653 25Z" fill="#101214"/>
<path fill-rule="evenodd" clip-rule="evenodd" d="M29.97 17.52C28.19 14.88 25.2 13.23 21.91 13.23V13.21C16.85 13.21 12.69 17.08 12.23 22.02C9.73 22.98 8 25.4 8 28.17C8 31.8 10.95 34.75 14.58 34.75H31.47C36.19 34.68 40 30.87 40 26.08C40 21.29 36.12 17.41 31.33 17.41C30.87 17.41 30.42 17.45 29.97 17.52ZM24.3957 18H21.2846L20.3057 20.6104L17.5556 20.153L16 22.8473L17.7712 25.0002L16.0004 27.1527L17.5559 29.847L20.3057 29.3896L21.2846 32H24.3957L25.3745 29.3899L28.1244 29.8473L29.6799 27.153L27.9088 25.0002L29.6803 22.847L28.1247 20.1527L25.3745 20.6102L24.3957 18Z" fill="#101214"/>
</g>
<defs>
<clipPath id="clip0_448_7200">
<rect width="48" height="48" fill="white"/>
</clipPath>
</defs>
</svg>
