<svg width="48" height="48" viewBox="0 0 48 48" fill="none" xmlns="http://www.w3.org/2000/svg">
<path d="M24 12C17.3726 12 12 17.3726 12 24C12 27.9879 13.947 31.5191 16.9404 33.7012C17.9494 30.7718 20.728 28.667 24 28.667C27.2719 28.667 30.0495 30.772 31.0586 33.7012C34.0524 31.5191 36 27.9882 36 24H40C40 32.8366 32.8366 40 24 40C15.1634 40 8 32.8366 8 24C8 15.1634 15.1634 8 24 8V12Z" fill="#101214"/>
<path d="M24 17.4668C26.5773 17.4668 28.667 19.5565 28.667 22.1338C28.6667 24.7109 26.5772 26.7998 24 26.7998C21.4228 26.7998 19.3333 24.7109 19.333 22.1338C19.333 19.5565 21.4227 17.4668 24 17.4668Z" fill="#101214"/>
<path d="M30.6221 9.43066C34.1371 11.0305 36.9695 13.8629 38.5693 17.3779L34.9287 19.0352C33.7289 16.399 31.601 14.2711 28.9648 13.0713L30.6221 9.43066Z" fill="#101214"/>
</svg>
