<svg width="48" height="48" viewBox="0 0 48 48" fill="none" xmlns="http://www.w3.org/2000/svg">
<path d="M38 18.8625V24C38 26.7614 31.732 29 24 29C16.268 29 10 26.7614 10 24V18.8625C10.923 19.4757 11.9886 19.9669 13.0915 20.3608C16.0262 21.4089 19.8832 22 24 22C28.1168 22 31.9738 21.4089 34.9085 20.3608C36.0114 19.9669 37.077 19.4757 38 18.8625Z" fill="#101214"/>
<path d="M38 14C38 11.2386 31.732 9 24 9C16.268 9 10 11.2386 10 14C10 16.7614 16.268 19 24 19C31.732 19 38 16.7614 38 14Z" fill="#101214"/>
<path d="M10 28.8625V33C10 35.7614 16.268 38 24 38C31.732 38 38 35.7614 38 33V28.8625C37.077 29.4757 36.0114 29.9669 34.9085 30.3608C31.9738 31.4089 28.1168 32 24 32C19.8832 32 16.0262 31.4089 13.0915 30.3608C11.9886 29.9669 10.923 29.4757 10 28.8625Z" fill="#101214"/>
</svg>
