<svg width="48" height="48" viewBox="0 0 48 48" fill="none" xmlns="http://www.w3.org/2000/svg">
<g clip-path="url(#clip0_448_7890)">
<path d="M20 22C26.6274 22 32 19.3137 32 16C32 12.6863 26.6274 10 20 10C13.3726 10 8 12.6863 8 16C8 19.3137 13.3726 22 20 22Z" fill="#101214"/>
<path d="M20 25C20.6814 25 21.3496 24.9716 22 24.917V29.917C21.3496 29.9716 20.6814 30 20 30C13.3726 30 8 27.3137 8 24V20H8.16592C9.11807 22.8377 14.054 25 20 25Z" fill="#101214"/>
<path d="M22 32.917C21.3496 32.9716 20.6814 33 20 33C14.054 33 9.11807 30.8377 8.16592 28H8V32C8 35.3137 13.3726 38 20 38C20.6814 38 21.3496 37.9716 22 37.917V32.917Z" fill="#101214"/>
<path d="M29.5567 25.4142L33.1423 29H25V33H33.1423L29.5567 36.5858L32.3852 39.4142L40.7989 31L32.3852 22.5858L29.5567 25.4142Z" fill="#101214"/>
</g>
<defs>
<clipPath id="clip0_448_7890">
<rect width="48" height="48" fill="white"/>
</clipPath>
</defs>
</svg>
