<svg width="48" height="48" viewBox="0 0 48 48" fill="none" xmlns="http://www.w3.org/2000/svg">
<g clip-path="url(#clip0_448_7080)">
<path fill-rule="evenodd" clip-rule="evenodd" d="M16.7439 22.2046C13.7465 20.3981 9.93343 22.6009 10.0009 26.0999C10.0756 29.9691 14.7139 31.9038 17.5159 29.2346L27.186 20.0226C32.5882 14.8764 41.5121 18.8746 41.2676 26.3316C41.0259 33.7048 32.0312 37.1533 26.9223 31.8315L25.3333 30.1763L28.2189 27.4062L29.8078 29.0614C32.4653 31.8296 37.144 30.0358 37.2698 26.2005C37.397 22.3216 32.755 20.2419 29.945 22.9188L20.2749 32.1308C14.953 37.2005 6.14346 33.5258 6.00168 26.1771C5.87346 19.5314 13.1156 15.3476 18.8086 18.7787L19.983 19.4865L17.9183 22.9124L16.7439 22.2046Z" fill="#101214"/>
<path fill-rule="evenodd" clip-rule="evenodd" d="M18.8735 21.1547L16.3547 15.1625L19.1204 14L22.8016 22.7578L14.0438 26.439L12.8813 23.6734L18.8735 21.1547Z" fill="#101214"/>
</g>
<defs>
<clipPath id="clip0_448_7080">
<rect width="48" height="48" fill="white"/>
</clipPath>
</defs>
</svg>
