<svg width="48" height="48" viewBox="0 0 48 48" fill="none" xmlns="http://www.w3.org/2000/svg">
<path fill-rule="evenodd" clip-rule="evenodd" d="M35.4996 18.8978C35.4447 12.5936 30.3172 7.5 24 7.5C17.6828 7.5 12.5553 12.5936 12.5004 18.8978C8.92544 20.8481 6.5 24.6408 6.5 29C6.5 35.3513 11.6487 40.5 18 40.5C20.1987 40.5 22.2533 39.883 24 38.8126C25.7467 39.883 27.8013 40.5 30 40.5C36.3513 40.5 41.5 35.3513 41.5 29C41.5 24.6408 39.0746 20.8481 35.4996 18.8978ZM24 10.5C19.7293 10.5 16.1942 13.6496 15.5909 17.7528C16.3678 17.5871 17.1737 17.5 18 17.5C20.1987 17.5 22.2533 18.117 24 19.1874C25.7467 18.117 27.8013 17.5 30 17.5C30.8263 17.5 31.6322 17.5871 32.4091 17.7528C31.8058 13.6496 28.2707 10.5 24 10.5ZM32.3055 20.8164C31.5723 20.6103 30.799 20.5 30 20.5C28.7517 20.5 27.5663 20.7691 26.4986 21.2524C27.6766 22.5438 28.5642 24.1048 29.0581 25.8319C30.6814 24.6281 31.8608 22.8593 32.3055 20.8164ZM21.5014 21.2524C20.4337 20.7691 19.2483 20.5 18 20.5C17.201 20.5 16.4277 20.6103 15.6945 20.8164C16.1392 22.8593 17.3186 24.6281 18.9419 25.8319C19.4358 24.1048 20.3234 22.5438 21.5014 21.2524ZM21.6945 27.1836C22.0479 25.5604 22.8649 24.1104 24 22.9792C25.1351 24.1104 25.9521 25.5604 26.3055 27.1836C25.5723 27.3897 24.799 27.5 24 27.5C23.201 27.5 22.4277 27.3897 21.6945 27.1836ZM18.5004 29.1022C15.8266 27.6435 13.7958 25.1542 12.9419 22.1681C10.8535 23.7168 9.5 26.2003 9.5 29C9.5 33.6944 13.3056 37.5 18 37.5C19.2483 37.5 20.4337 37.2309 21.5014 36.7476C19.6583 34.727 18.5261 32.0467 18.5004 29.1022ZM24 35.0208C22.7338 33.759 21.8634 32.1004 21.5909 30.2472C22.3678 30.4129 23.1737 30.5 24 30.5C24.8263 30.5 25.6322 30.4129 26.4091 30.2472C26.1367 32.1004 25.2662 33.759 24 35.0208ZM26.4986 36.7476C28.3417 34.727 29.4739 32.0467 29.4996 29.1022C32.1734 27.6435 34.2042 25.1542 35.0581 22.1681C37.1465 23.7168 38.5 26.2003 38.5 29C38.5 33.6944 34.6944 37.5 30 37.5C28.7517 37.5 27.5663 37.2309 26.4986 36.7476Z" fill="#101214"/>
</svg>
