<svg width="48" height="48" viewBox="0 0 48 48" fill="none" xmlns="http://www.w3.org/2000/svg">
<g clip-path="url(#clip0_448_7030)">
<path d="M36 18V14H32V10H36V6H40V10H44V14H40V18H36Z" fill="#101214"/>
<path fill-rule="evenodd" clip-rule="evenodd" d="M22 10C24.5504 10 26.9415 10.682 29.0009 11.8735C29.0003 11.9156 29 11.9578 29 12C29 16.1407 31.7962 19.6282 35.6034 20.6774C35.8626 21.7424 36 22.8552 36 24C36 31.732 29.732 38 22 38C14.268 38 8 31.732 8 24C8 16.268 14.268 10 22 10ZM18 19C19.1046 19 20 19.8954 20 21C20 22.1046 19.1046 23 18 23C16.8954 23 16 22.1046 16 21C16 19.8954 16.8954 19 18 19ZM26 19C27.1046 19 28 19.8954 28 21C28 22.1046 27.1046 23 26 23C24.8954 23 24 22.1046 24 21C24 19.8954 24.8954 19 26 19ZM16.9997 26.8787L18.0604 27.9393C20.2362 30.1151 23.7638 30.1151 25.9396 27.9393L27.0002 26.8787L29.1215 29L28.0609 30.0607C24.7135 33.408 19.2864 33.408 15.9391 30.0607L14.8784 29L16.9997 26.8787Z" fill="#101214"/>
</g>
<defs>
<clipPath id="clip0_448_7030">
<rect width="48" height="48" fill="white"/>
</clipPath>
</defs>
</svg>
