<svg width="48" height="48" viewBox="0 0 48 48" fill="none" xmlns="http://www.w3.org/2000/svg">
<path d="M34.5 27.75C34.5 28.2785 34.4712 28.8003 34.4152 29.3139C37.1959 27.2657 39 23.9685 39 20.25C39 14.0368 33.9632 9 27.75 9C24.0315 9 20.7343 10.8041 18.6861 13.5848C19.1997 13.5288 19.7215 13.5 20.25 13.5C28.1201 13.5 34.5 19.8799 34.5 27.75Z" fill="#101214"/>
<path fill-rule="evenodd" clip-rule="evenodd" d="M31.5 27.75C31.5 33.9632 26.4632 39 20.25 39C14.0368 39 9 33.9632 9 27.75C9 21.5368 14.0368 16.5 20.25 16.5C26.4632 16.5 31.5 21.5368 31.5 27.75ZM15.8892 29.1066L18.7827 26.2131L18.7827 34.9563H21.9131L21.9131 26.2135L24.8061 29.1066L27.0197 26.893L20.3477 20.221L13.6757 26.893L15.8892 29.1066Z" fill="#101214"/>
</svg>
