<svg width="48" height="48" viewBox="0 0 48 48" fill="none" xmlns="http://www.w3.org/2000/svg">
<g clip-path="url(#clip0_448_7075)">
<path d="M12 35C12 37.7615 14.2386 40 17 40C19.7614 40 22 37.7615 22 35C22 32.9497 20.7659 31.1877 19 30.4161V28.9971C19.0016 27.3416 20.3441 26 22 26H29C33.4183 26 37 22.4183 37 18V17.584C38.7659 16.8125 40 15.0504 40 13.0001C40 10.2386 37.7614 8.00005 35 8.00005C32.2386 8.00005 30 10.2386 30 13.0001C30 15.0504 31.2341 16.8124 33 17.584V18C33 20.2092 31.2091 22.0001 29 22.0001H22C20.9264 22.0001 19.9093 22.2417 19 22.6737V17.584C20.7659 16.8124 22 15.0503 22 13C22 10.2386 19.7614 8 17 8C14.2386 8 12 10.2386 12 13C12 15.0503 13.2341 16.8124 15 17.584L15 30.4161C13.2341 31.1877 12 32.9497 12 35Z" fill="#101214"/>
</g>
<defs>
<clipPath id="clip0_448_7075">
<rect width="48" height="48" fill="white"/>
</clipPath>
</defs>
</svg>
