<svg width="48" height="48" viewBox="0 0 48 48" fill="none" xmlns="http://www.w3.org/2000/svg">
<g clip-path="url(#clip0_448_7884)">
<path d="M29.375 24C29.375 26.9685 26.9685 29.375 24 29.375C21.0315 29.375 18.625 26.9685 18.625 24C18.625 21.0315 21.0315 18.625 24 18.625C26.9685 18.625 29.375 21.0315 29.375 24Z" fill="#101214"/>
<path fill-rule="evenodd" clip-rule="evenodd" d="M24 39C32.2843 39 39 32.2843 39 24C39 15.7157 32.2843 9 24 9C15.7157 9 9 15.7157 9 24C9 32.2843 15.7157 39 24 39ZM33.375 24C33.375 29.1777 29.1777 33.375 24 33.375C18.8223 33.375 14.625 29.1777 14.625 24C14.625 18.8223 18.8223 14.625 24 14.625C29.1777 14.625 33.375 18.8223 33.375 24Z" fill="#101214"/>
</g>
<defs>
<clipPath id="clip0_448_7884">
<rect width="48" height="48" fill="white"/>
</clipPath>
</defs>
</svg>
