<svg width="48" height="48" viewBox="0 0 48 48" fill="none" xmlns="http://www.w3.org/2000/svg">
<g clip-path="url(#clip0_448_7879)">
<path d="M35.9539 17.433L45.0696 14.3137L37.5271 10.5423L33.7559 3L27.8296 20.213L30.4546 19.3147L35.9539 17.433Z" fill="#101214"/>
<path d="M26.0605 16.1365C25.1013 15.8054 24.0717 15.6255 23 15.6255C17.8223 15.6255 13.625 19.8229 13.625 25.0005C13.625 30.1782 17.8223 34.3755 23 34.3755C28.1777 34.3755 32.375 30.1782 32.375 25.0005C32.375 23.95 32.2022 22.9398 31.8835 21.9969L37.207 20.1752C37.7211 21.6895 38 23.3125 38 25.0005C38 33.2848 31.2843 40.0005 23 40.0005C14.7157 40.0005 8 33.2848 8 25.0005C8 16.7163 14.7157 10.0005 23 10.0005C24.7129 10.0005 26.3588 10.2877 27.8921 10.8164L26.0605 16.1365Z" fill="#101214"/>
<path d="M24.758 19.9196L22.9957 25.0381L28.0978 23.2922C28.2776 23.8289 28.375 24.4034 28.375 25.0005C28.375 27.9691 25.9685 30.3755 23 30.3755C20.0315 30.3755 17.625 27.9691 17.625 25.0005C17.625 22.032 20.0315 19.6255 23 19.6255C23.6156 19.6255 24.2071 19.729 24.758 19.9196Z" fill="#101214"/>
</g>
<defs>
<clipPath id="clip0_448_7879">
<rect width="48" height="48" fill="white"/>
</clipPath>
</defs>
</svg>
