<svg width="48" height="48" viewBox="0 0 48 48" fill="none" xmlns="http://www.w3.org/2000/svg">
<g clip-path="url(#clip0_448_6872)">
<path d="M14 9.99976H10V37.9998H38V33.9998H14V9.99976Z" fill="#101214"/>
<path d="M21 22C23.7614 22 26 19.7614 26 17C26 14.2386 23.7614 12 21 12C18.2386 12 16 14.2386 16 17C16 19.7614 18.2386 22 21 22Z" fill="#101214"/>
<path d="M38 24C38 26.2091 36.2091 28 34 28C31.7909 28 30 26.2091 30 24C30 21.7909 31.7909 20 34 20C36.2091 20 38 21.7909 38 24Z" fill="#101214"/>
<path d="M23 32C24.6569 32 26 30.6569 26 29C26 27.3431 24.6569 26 23 26C21.3431 26 20 27.3431 20 29C20 30.6569 21.3431 32 23 32Z" fill="#101214"/>
</g>
<defs>
<clipPath id="clip0_448_6872">
<rect width="48" height="48" fill="white"/>
</clipPath>
</defs>
</svg>
