<svg width="48" height="48" viewBox="0 0 48 48" fill="none" xmlns="http://www.w3.org/2000/svg">
<g clip-path="url(#clip0_448_7155)">
<path d="M38.3263 22.8153L39.1416 20.989L35.489 19.3584L34.6737 21.1847C34.2592 22.1131 32.9046 23.8645 30.8549 25.3989C28.8337 26.9121 26.4199 28 24 28C21.5801 28 19.1662 26.9121 17.145 25.3989C15.0954 23.8645 13.7407 22.1131 13.3263 21.1847L12.511 19.3584L8.8584 20.989L9.6737 22.8153C10.0538 23.6667 10.7024 24.6405 11.5476 25.624L9.05029 28.1213L11.8787 30.9497L14.4526 28.3758C14.5501 28.4516 14.6485 28.5267 14.7478 28.601C15.5994 29.2386 16.5503 29.8465 17.5804 30.3674L15.9752 33.5777L19.553 35.3665L21.3749 31.7226C22.2236 31.9004 23.1011 32 24 32C24.899 32 25.7766 31.9004 26.6254 31.7225L28.4474 35.3665L32.0251 33.5777L30.4199 30.3672C31.4498 29.8464 32.4007 29.2385 33.2522 28.601C33.3515 28.5267 33.4499 28.4515 33.5474 28.3757L36.1214 30.9497L38.9498 28.1213L36.4524 25.6239C37.2976 24.6404 37.9462 23.6666 38.3263 22.8153Z" fill="#101214"/>
</g>
<defs>
<clipPath id="clip0_448_7155">
<rect width="48" height="48" fill="white"/>
</clipPath>
</defs>
</svg>
