<svg width="48" height="48" viewBox="0 0 48 48" fill="none" xmlns="http://www.w3.org/2000/svg">
<g clip-path="url(#clip0_448_7853)">
<path d="M20 13C20 10.7909 21.7909 9 24 9C26.2091 9 28 10.7909 28 13C28 15.2091 26.2091 17 24 17C21.7909 17 20 15.2091 20 13Z" fill="#101214"/>
<path d="M20 24C20 21.7909 21.7909 20 24 20C26.2091 20 28 21.7909 28 24C28 26.2091 26.2091 28 24 28C21.7909 28 20 26.2091 20 24Z" fill="#101214"/>
<path d="M20 35C20 32.7909 21.7909 31 24 31C26.2091 31 28 32.7909 28 35C28 37.2091 26.2091 39 24 39C21.7909 39 20 37.2091 20 35Z" fill="#101214"/>
</g>
<defs>
<clipPath id="clip0_448_7853">
<rect width="48" height="48" fill="white"/>
</clipPath>
</defs>
</svg>
