<svg width="48" height="48" viewBox="0 0 48 48" fill="none" xmlns="http://www.w3.org/2000/svg">
<g clip-path="url(#clip0_448_7351)">
<path d="M9 18L12 10H36L39 18C39 18.6566 38.8707 19.3068 38.6194 19.9134C38.3681 20.52 37.9998 21.0712 37.5355 21.5355C37.0712 21.9998 36.52 22.3681 35.9134 22.6194C35.3068 22.8707 34.6566 23 34 23C33.3434 23 32.6932 22.8707 32.0866 22.6194C31.48 22.3681 30.9288 21.9998 30.4645 21.5355C30.0002 21.0712 29.6319 20.52 29.3806 19.9134C29.1293 19.3068 29 18.6566 29 18C29 18.6566 28.8707 19.3068 28.6194 19.9134C28.3681 20.52 27.9998 21.0712 27.5355 21.5355C27.0712 21.9998 26.52 22.3681 25.9134 22.6194C25.3068 22.8707 24.6566 23 24 23C23.3434 23 22.6932 22.8707 22.0866 22.6194C21.48 22.3681 20.9288 21.9998 20.4645 21.5355C20.0002 21.0712 19.6319 20.52 19.3806 19.9134C19.1293 19.3068 19 18.6566 19 18C19 18.6566 18.8707 19.3068 18.6194 19.9134C18.3681 20.52 17.9998 21.0712 17.5355 21.5355C17.0712 21.9998 16.52 22.3681 15.9134 22.6194C15.3068 22.8707 14.6566 23 14 23C13.3434 23 12.6932 22.8707 12.0866 22.6194C11.48 22.3681 10.9288 21.9998 10.4645 21.5355C10.0002 21.0712 9.63188 20.52 9.3806 19.9134C9.12933 19.3068 9 18.6566 9 18Z" fill="#101214"/>
<path d="M17.0615 25.3912C17.7598 25.1019 18.4122 24.7157 19 24.2451C19.5878 24.7157 20.2402 25.1019 20.9385 25.3912C21.9091 25.7932 22.9494 26.0001 24 26.0001C25.0506 26.0001 26.0909 25.7932 27.0615 25.3912C27.7598 25.1019 28.4122 24.7157 29 24.2451C29.5878 24.7157 30.2402 25.1019 30.9385 25.3912C31.9091 25.7932 32.9494 26.0001 34 26.0001C34.6762 26.0001 35.3482 25.9144 36 25.7461V38.0001H28V29.0001H20V38.0001H12V25.7461C12.6518 25.9144 13.3238 26.0001 14 26.0001C15.0506 26.0001 16.0909 25.7932 17.0615 25.3912Z" fill="#101214"/>
</g>
<defs>
<clipPath id="clip0_448_7351">
<rect width="48" height="48" fill="white"/>
</clipPath>
</defs>
</svg>
