<svg width="48" height="48" viewBox="0 0 48 48" fill="none" xmlns="http://www.w3.org/2000/svg">
<g clip-path="url(#clip0_448_7456)">
<path d="M17 24C17 21.7909 15.2091 20 13 20C10.7909 20 9 21.7909 9 24C9 26.2091 10.7909 28 13 28C15.2091 28 17 26.2091 17 24Z" fill="#101214"/>
<path d="M24 20C26.2091 20 28 21.7909 28 24C28 26.2091 26.2091 28 24 28C21.7909 28 20 26.2091 20 24C20 21.7909 21.7909 20 24 20Z" fill="#101214"/>
<path d="M35 20C37.2091 20 39 21.7909 39 24C39 26.2091 37.2091 28 35 28C32.7909 28 31 26.2091 31 24C31 21.7909 32.7909 20 35 20Z" fill="#101214"/>
</g>
<defs>
<clipPath id="clip0_448_7456">
<rect width="48" height="48" fill="white"/>
</clipPath>
</defs>
</svg>
