<svg width="48" height="48" viewBox="0 0 48 48" fill="none" xmlns="http://www.w3.org/2000/svg">
<g clip-path="url(#clip0_448_7195)">
<path d="M15.9995 10.5V25.7361L14.6994 23.3198C14.0394 22.0998 12.5194 21.6498 11.3094 22.2998C10.0894 22.9598 9.63939 24.4698 10.2894 25.6898L17.9994 39.9998H31.0344L31.0294 40.0098L31.0394 39.9998H31.0344L33.4513 35.1708C35.1204 31.836 35.9894 28.1582 35.9894 24.429V21.5098C35.9894 20.1298 34.8694 19.0098 33.4894 19.0098C32.1857 19.0098 31.114 20.0094 30.9995 21.2834V19.5C30.9995 18.12 29.8795 17 28.4995 17C27.1195 17 25.9995 18.12 25.9995 19.5V17.5C25.9995 16.12 24.8795 15 23.4995 15C22.1195 15 20.9995 16.12 20.9995 17.5V10.5C20.9995 9.12 19.8795 8 18.4995 8C17.1195 8 15.9995 9.12 15.9995 10.5Z" fill="#101214"/>
</g>
<defs>
<clipPath id="clip0_448_7195">
<rect width="48" height="48" fill="white"/>
</clipPath>
</defs>
</svg>
