<svg width="48" height="48" viewBox="0 0 48 48" fill="none" xmlns="http://www.w3.org/2000/svg">
<g clip-path="url(#clip0_448_7868)">
<path fill-rule="evenodd" clip-rule="evenodd" d="M8.24219 29.5772L12.4848 25.3345L8.24219 21.0919L11.7777 17.5563H20.263L26.627 11.1924H36.5265V21.0919L30.1625 27.4558V35.9411L26.627 39.4767L22.3843 35.234L18.1417 39.4767L14.256 35.591L20.6199 29.2271L18.4986 27.1058L12.1347 33.4696L8.24219 29.5772ZM31.5767 19.6778C30.6004 20.6541 29.0175 20.6541 28.0412 19.6778C27.0648 18.7015 27.0648 17.1186 28.0412 16.1423C29.0175 15.166 30.6004 15.166 31.5767 16.1423C32.553 17.1186 32.553 18.7015 31.5767 19.6778Z" fill="#101214"/>
</g>
<defs>
<clipPath id="clip0_448_7868">
<rect width="48" height="48" fill="white"/>
</clipPath>
</defs>
</svg>
