<svg width="48" height="48" viewBox="0 0 48 48" fill="none" xmlns="http://www.w3.org/2000/svg">
<g clip-path="url(#clip0_448_7792)">
<path fill-rule="evenodd" clip-rule="evenodd" d="M22 42V38.8678C15.3156 37.9772 10.0228 32.6844 9.13217 26H6V22H9.13217C9.35372 20.3372 9.84768 18.7605 10.5677 17.3162C10.2051 16.6238 10 15.8358 10 15C10 12.2386 12.2386 10 15 10C15.8358 10 16.6238 10.2051 17.3162 10.5677C18.7605 9.84768 20.3372 9.35372 22 9.13217V6H26V9.13217C32.6844 10.0228 37.9772 15.3156 38.8678 22H42V26H38.8678C37.9772 32.6844 32.6844 37.9772 26 38.8678V42H22ZM22 26L22 34.8186C17.5283 33.9972 14.0028 30.4717 13.1814 26L22 26ZM13.807 19.8568C14.1893 19.9504 14.5888 20 15 20C17.7614 20 20 17.7614 20 15C20 14.5888 19.9504 14.1893 19.8568 13.807C20.5397 13.5291 21.2568 13.3179 22 13.1814L22 22L13.1814 22C13.3179 21.2568 13.5291 20.5397 13.807 19.8568ZM26 22V13.1814C30.4717 14.0028 33.9972 17.5283 34.8186 22L26 22ZM26 26L34.8186 26C33.9972 30.4717 30.4717 33.9972 26 34.8186V26Z" fill="#101214"/>
</g>
<defs>
<clipPath id="clip0_448_7792">
<rect width="48" height="48" fill="white"/>
</clipPath>
</defs>
</svg>
