<svg width="48" height="48" viewBox="0 0 48 48" fill="none" xmlns="http://www.w3.org/2000/svg">
<path d="M26.8785 7.82989L23.9286 10.7798H24.0503C31.2548 10.7798 37.1003 16.6252 37.1003 23.8298C37.1003 26.9767 35.9742 29.8483 34.1393 32.0949L31.0413 29.5646C32.3263 27.9913 33.1003 26.0029 33.1003 23.8298C33.1003 18.8344 29.0457 14.7798 24.0503 14.7798H23.8284L26.8785 17.8299L24.0501 20.6583L16.2217 12.8299L24.0501 5.00146L26.8785 7.82989Z" fill="#101214"/>
<path d="M11 23.8301C11 31.0346 16.8454 36.8801 24.05 36.8801H24.1715L21.2217 39.8299L24.0501 42.6583L31.8785 34.8299L24.0501 27.0015L21.2217 29.8299L24.2719 32.8801H24.05C19.0546 32.8801 15 28.8255 15 23.8301C15 21.657 15.7739 19.6686 17.059 18.0952L13.961 15.5649C12.1261 17.8116 11 20.6832 11 23.8301Z" fill="#101214"/>
</svg>
