<svg width="48" height="48" viewBox="0 0 48 48" fill="none" xmlns="http://www.w3.org/2000/svg">
<g clip-path="url(#clip0_448_7927)">
<path fill-rule="evenodd" clip-rule="evenodd" d="M21.3541 33.7081C14.5311 33.7081 9 28.177 9 21.3541C9 14.5311 14.5311 9 21.3541 9C28.177 9 33.7081 14.5311 33.7081 21.3541C33.7081 23.57 33.1247 25.6497 32.1031 27.4478L39.3614 34.7062L34.6576 39.41L27.3858 32.1381C25.6019 33.138 23.5445 33.7081 21.3541 33.7081ZM20.7713 13.7187L20.2546 15.0316C19.5205 16.897 19.1534 17.8299 18.476 18.532C17.7987 19.2341 16.8797 19.6345 15.0417 20.4351L14.2547 20.778V21.8642L15.0414 22.2069C16.8795 23.0075 17.7986 23.4079 18.476 24.1101C19.1534 24.8123 19.5205 25.7451 20.2547 27.6108L20.7713 28.9237H21.8572L22.374 27.6104C23.1082 25.7449 23.4752 24.8122 24.1526 24.11C24.83 23.4079 25.749 23.0076 27.5869 22.2069L28.3736 21.8642V20.778L27.5866 20.4351C25.7488 19.6344 24.8299 19.2341 24.1526 18.532C23.4752 17.8299 23.1082 16.8973 22.374 15.0319L21.8572 13.7187H20.7713Z" fill="#101214"/>
</g>
<defs>
<clipPath id="clip0_448_7927">
<rect width="48" height="48" fill="white"/>
</clipPath>
</defs>
</svg>
