<svg width="48" height="48" viewBox="0 0 48 48" fill="none" xmlns="http://www.w3.org/2000/svg">
<g clip-path="url(#clip0_448_7928)">
<path fill-rule="evenodd" clip-rule="evenodd" d="M21.001 38V21H38.001V38H21.001ZM29.1256 24.16L28.777 25.0741C28.2765 26.3863 28.0262 27.0423 27.5571 27.5395C27.088 28.0366 26.4476 28.3244 25.1666 28.9002L24.6947 29.1123V29.8743L25.1664 30.0862C26.4474 30.662 27.088 30.9498 27.5571 31.447C28.0262 31.9441 28.2765 32.6003 28.777 33.9126L29.1256 34.8267H29.864L30.2127 33.9123C30.7132 32.6002 30.9635 31.9441 31.4325 31.447C31.9016 30.9498 32.5421 30.662 33.8231 30.0863L34.2947 29.8743V29.1123L33.8228 28.9001C32.542 28.3244 31.9016 28.0366 31.4325 27.5395C30.9635 27.0424 30.7132 26.3864 30.2127 25.0743L29.864 24.16H29.1256Z" fill="#101214"/>
<path d="M30.001 13.75L20.001 8L10.001 13.75V25.25L18.001 29.85V18H30.001V13.75Z" fill="#101214"/>
</g>
<defs>
<clipPath id="clip0_448_7928">
<rect width="48" height="48" fill="white"/>
</clipPath>
</defs>
</svg>
