<svg width="48" height="48" viewBox="0 0 48 48" fill="none" xmlns="http://www.w3.org/2000/svg">
<path d="M24 26C25.1046 26 26 25.1046 26 24C26 22.8954 25.1046 22 24 22C22.8954 22 22 22.8954 22 24C22 25.1046 22.8954 26 24 26Z" fill="#101214"/>
<path fill-rule="evenodd" clip-rule="evenodd" d="M10 10H38V37H34V40H30V37H18V40H14V37H10V10ZM19.6007 26.3782L16.9395 29.0395L19.0608 31.1608L21.7535 28.4681C22.4289 28.8084 23.1921 29 24 29C24.8345 29 25.6212 28.7956 26.3128 28.4341L29.0395 31.1608L31.1608 29.0395L28.4341 26.3128C28.7956 25.6212 29 24.8345 29 24C29 23.1921 28.8084 22.4289 28.4681 21.7535L31.1608 19.0608L29.0395 16.9395L26.3782 19.6007C25.6709 19.2176 24.8609 19 24 19C23.1655 19 22.3788 19.2044 21.6872 19.5659L19.0608 16.9395L16.9395 19.0608L19.5659 21.6872C19.2044 22.3788 19 23.1655 19 24C19 24.8609 19.2176 25.6709 19.6007 26.3782Z" fill="#101214"/>
</svg>
