<svg width="48" height="48" viewBox="0 0 48 48" fill="none" xmlns="http://www.w3.org/2000/svg">
<path d="M24 12C17.3726 12 12 17.3726 12 24C12 24.8481 12.0889 25.6755 12.2563 26.474L17.5938 21.0583L21.4927 24.9573L25.6813 20.7677L22.5135 17.6H31.5135V26.6L28.5104 23.5969L21.4927 30.6146L17.6146 26.7354L13.9104 30.4938C16.0464 33.8057 19.766 36 24 36C30.6274 36 36 30.6274 36 24H40C40 32.8366 32.8366 40 24 40C15.1634 40 8 32.8366 8 24C8 15.1634 15.1634 8 24 8V12Z" fill="#101214"/>
<path d="M30.6219 9.43021C34.1371 11.0301 36.9699 13.8629 38.5698 17.3781L34.9281 19.0354C33.7283 16.3993 31.6007 14.2717 28.9646 13.0719L30.6219 9.43021Z" fill="#101214"/>
</svg>
