<svg width="48" height="48" viewBox="0 0 48 48" fill="none" xmlns="http://www.w3.org/2000/svg">
<g clip-path="url(#clip0_448_6867)">
<path d="M12 24C12 17.3726 17.3726 12 24 12C30.6274 12 36 17.3726 36 24H40C40 15.1634 32.8366 8 24 8C15.1634 8 8 15.1634 8 24C8 32.8366 15.1634 40 24 40V36C17.3726 36 12 30.6274 12 24Z" fill="#101214"/>
<path d="M34.9286 28.9646C33.7288 31.6009 31.6009 33.7288 28.9646 34.9286L30.6216 38.5693C34.1369 36.9694 36.9694 34.1369 38.5693 30.6216L34.9286 28.9646Z" fill="#101214"/>
<path d="M22.9999 29.8283L32.4141 20.4141L29.5857 17.5857L22.9999 24.1715L20.4141 21.5857L17.5857 24.4141L22.9999 29.8283Z" fill="#101214"/>
</g>
<defs>
<clipPath id="clip0_448_6867">
<rect width="48" height="48" fill="white"/>
</clipPath>
</defs>
</svg>
