<svg width="48" height="48" viewBox="0 0 48 48" fill="none" xmlns="http://www.w3.org/2000/svg">
<path d="M18 23C20.0503 23 21.8124 21.7659 22.584 20H38V16H22.584C21.8124 14.2341 20.0503 13 18 13C15.9497 13 14.1876 14.2341 13.416 16H10V20H13.416C14.1876 21.7659 15.9497 23 18 23Z" fill="#101214"/>
<path d="M30 35C32.0503 35 33.8124 33.7659 34.584 32H38V28H34.584C33.8124 26.2341 32.0503 25 30 25C27.9497 25 26.1876 26.2341 25.416 28H10V32H25.416C26.1876 33.7659 27.9497 35 30 35Z" fill="#101214"/>
</svg>
