<svg width="48" height="48" viewBox="0 0 48 48" fill="none" xmlns="http://www.w3.org/2000/svg">
<g clip-path="url(#clip0_448_7301)">
<path d="M26.22 24.09C26.22 25.35 25.2 26.37 23.94 26.37C22.68 26.37 21.66 25.35 21.66 24.09C21.66 22.83 22.68 21.81 23.94 21.81C25.2 21.81 26.22 22.83 26.22 24.09Z" fill="#101214"/>
<path fill-rule="evenodd" clip-rule="evenodd" d="M24 10.4146C20.8155 13.2648 16.6101 14.9979 12 14.9979C11.6644 14.9979 11.331 14.9887 11 14.9706V20.1518C11 26.3612 13.8841 32.2184 18.8058 36.0043L24 39.9999L29.1942 36.0043C34.1159 32.2184 37 26.3612 37 20.1518V14.9706C36.669 14.9887 36.3356 14.9979 36 14.9979C31.3899 14.9979 27.1845 13.2648 24 10.4146ZM25.3 18H22.59L21.74 20.27L19.35 19.87L18 22.21L19.54 24.08L18 25.95L19.35 28.29L21.74 27.89L22.59 30.16H25.3L26.15 27.89L28.54 28.29L29.89 25.95L28.35 24.08L29.89 22.21L28.54 19.87L26.15 20.27L25.3 18Z" fill="#101214"/>
</g>
<defs>
<clipPath id="clip0_448_7301">
<rect width="48" height="48" fill="white"/>
</clipPath>
</defs>
</svg>
