<svg width="48" height="48" viewBox="0 0 48 48" fill="none" xmlns="http://www.w3.org/2000/svg">
<g clip-path="url(#clip0_448_7311)">
<path fill-rule="evenodd" clip-rule="evenodd" d="M24 10.4146C20.8155 13.2648 16.6101 14.9979 12 14.9979C11.6644 14.9979 11.331 14.9887 11 14.9706V20.1518C11 26.3612 13.8841 32.2184 18.8058 36.0043L24 39.9999L29.1942 36.0043C34.1159 32.2184 37 26.3612 37 20.1518V14.9706C36.669 14.9887 36.3356 14.9979 36 14.9979C31.3899 14.9979 27.1845 13.2648 24 10.4146ZM18.0348 26.6063C18.0174 26.474 18 26.3416 18 26.2093L18.0087 26.2005C17.9305 24.6039 18.5648 23.0513 19.6249 21.8693L23.9957 17V23.0954L26.924 20.5902C27.0282 20.652 27.1325 20.7137 27.2281 20.7755C28.8965 21.8517 30 23.757 30 25.9094C30 29.5261 26.8892 32.4106 23.2397 31.9519C20.5199 31.6167 18.3302 29.3673 18.0348 26.6063Z" fill="#101214"/>
</g>
<defs>
<clipPath id="clip0_448_7311">
<rect width="48" height="48" fill="white"/>
</clipPath>
</defs>
</svg>
