<svg width="48" height="48" viewBox="0 0 48 48" fill="none" xmlns="http://www.w3.org/2000/svg">
<g clip-path="url(#clip0_448_7346)">
<path d="M10 19L15 19L24 12L24 35.8125L15 29L10 29L10 19Z" fill="#101214"/>
<path d="M27.1716 20.8284C27.5881 21.2449 27.9185 21.7394 28.1439 22.2836C28.3693 22.8277 28.4853 23.411 28.4853 24C28.4853 24.589 28.3693 25.1723 28.1439 25.7164C27.9185 26.2606 27.5881 26.7551 27.1716 27.1716L30 30C30.7879 29.2121 31.413 28.2767 31.8394 27.2472C32.2658 26.2177 32.4853 25.1143 32.4853 24C32.4853 22.8857 32.2658 21.7823 31.8394 20.7528C31.413 19.7233 30.7879 18.7879 30 18L27.1716 20.8284Z" fill="#101214"/>
</g>
<defs>
<clipPath id="clip0_448_7346">
<rect width="48" height="48" fill="white"/>
</clipPath>
</defs>
</svg>
