<svg width="48" height="48" viewBox="0 0 48 48" fill="none" xmlns="http://www.w3.org/2000/svg">
<path d="M26 17V7H22V17H26Z" fill="#101214"/>
<path d="M30.4144 20.4144L35.4144 15.4144L32.5859 12.5859L27.5859 17.5859L30.4144 20.4144Z" fill="#101214"/>
<path d="M10.04 26H17V22H10.04V26Z" fill="#101214"/>
<path d="M31 26H37.96V22H31V26Z" fill="#101214"/>
<path d="M20.4144 30.4144L15.4144 35.4144L12.5859 32.5859L17.5859 27.5859L20.4144 30.4144Z" fill="#101214"/>
<path d="M26 31V37.95H22V31H26Z" fill="#101214"/>
<path d="M30.4144 27.5859L35.4144 32.5859L32.5859 35.4144L27.5859 30.4144L30.4144 27.5859Z" fill="#101214"/>
<path d="M20.4144 17.5859L15.4144 12.5859L12.5859 15.4144L17.5859 20.4144L20.4144 17.5859Z" fill="#101214"/>
</svg>
