<svg width="48" height="48" viewBox="0 0 48 48" fill="none" xmlns="http://www.w3.org/2000/svg">
<g clip-path="url(#clip0_448_7606)">
<path d="M16 23C16 18.5778 19.5763 15 23.9792 15C28.3821 15 31.9584 18.5778 31.9584 23H35.9584C35.9584 16.3765 30.5991 11 23.9792 11C17.3594 11 12 16.3765 12 23C12 26.0723 13.1531 28.8764 15.0503 31H9V35H23.9511C23.9604 35 23.9698 35 23.9792 35H31.1825L28.5888 37.5828L31.4113 40.4171L38.852 33.0077L31.4128 25.5842L28.5874 28.4156L31.1772 31L23.9563 31C19.5639 30.9876 16 27.4145 16 23Z" fill="#101214"/>
</g>
<defs>
<clipPath id="clip0_448_7606">
<rect width="48" height="48" fill="white"/>
</clipPath>
</defs>
</svg>
