<svg width="48" height="48" viewBox="0 0 48 48" fill="none" xmlns="http://www.w3.org/2000/svg">
<g clip-path="url(#clip0_448_6980)">
<path fill-rule="evenodd" clip-rule="evenodd" d="M26 12H30V8H18V12H22V14.1528C19.9027 14.4767 17.9708 15.3019 16.3308 16.5021L13.4144 13.5857L10.5859 16.4141L13.5024 19.3305C11.929 21.4804 11.0002 24.1317 11.0002 26.9999C11.0002 34.1796 16.8204 39.9999 24.0002 39.9999C31.1799 39.9999 37.0002 34.1796 37.0002 26.9999C37.0002 24.1317 36.0713 21.4804 34.498 19.3305L37.4144 16.4141L34.5859 13.5857L31.6695 16.5021C30.0294 15.3018 28.0974 14.4766 26 14.1528V12ZM25.4139 28.4138L31.4141 22.4142L28.5858 19.5857L22.5856 25.5853L25.4139 28.4138Z" fill="#101214"/>
</g>
<defs>
<clipPath id="clip0_448_6980">
<rect width="48" height="48" fill="white"/>
</clipPath>
</defs>
</svg>
