<svg width="48" height="48" viewBox="0 0 48 48" fill="none" xmlns="http://www.w3.org/2000/svg">
<g clip-path="url(#clip0_448_6822)">
<path d="M24.0002 36.096C24.0002 36.096 16 29 14 26C12 23 12 21.9235 12 20.2074C12 19.1359 12.1692 18.157 12.5076 17.2708C12.854 16.3765 13.3334 15.6031 13.9457 14.9505C14.558 14.298 15.271 13.7944 16.0847 13.4399C16.8984 13.0854 17.7806 12.9082 18.7313 12.9082C19.9156 12.9082 20.9549 13.2103 21.8491 13.8146C22.7434 14.4188 23.4604 15.2164 24.0002 16.2074C24.5481 15.2083 25.2691 14.4108 26.1634 13.8146C27.0577 13.2103 28.093 12.9082 29.2692 12.9082C30.2199 12.9082 31.1021 13.0854 31.9158 13.4399C32.7376 13.7944 33.4506 14.298 34.0548 14.9505C34.6671 15.6031 35.1425 16.3765 35.4808 17.2708C35.8273 18.157 36.0005 19.1359 36.0005 20.2074C36.0005 21.9235 35.9452 23 34 26C31.9452 29 24.0002 36.096 24.0002 36.096Z" fill="#101214"/>
</g>
<defs>
<clipPath id="clip0_448_6822">
<rect width="48" height="48" fill="white"/>
</clipPath>
</defs>
</svg>
