<svg width="48" height="48" viewBox="0 0 48 48" fill="none" xmlns="http://www.w3.org/2000/svg">
<g clip-path="url(#clip0_448_7782)">
<path fill-rule="evenodd" clip-rule="evenodd" d="M12 24C12 17.3726 17.3726 12 24 12C30.6274 12 36 17.3726 36 24C36 24.9293 35.6732 26.0129 35.0835 26.8223C34.5189 27.5972 33.8204 28 33 28C31.999 28 31.5669 27.6483 31.3199 27.3133C31.0039 26.8847 30.82 26.221 30.82 25.5V23.5H30.8131C30.962 20.8225 29.8072 18.2962 27.5622 17C24.2141 15.067 19.7091 16.6019 17.5 20.4282C15.2909 24.2545 16.2141 28.9234 19.5622 30.8564C22.2126 32.3866 25.588 31.7436 27.9755 29.511C28.0158 29.5701 28.0573 29.6286 28.1001 29.6867C29.1431 31.1017 30.801 32 33 32C35.3796 32 37.1811 30.7361 38.3165 29.1777C39.4268 27.6538 40 25.7374 40 24C40 15.1634 32.8366 8 24 8C15.1634 8 8 15.1634 8 24C8 32.8366 15.1634 40 24 40C26.911 40 29.646 39.2208 32.0015 37.8583L33.7327 36.8568L31.7298 33.3944L29.9985 34.3958C28.2355 35.4157 26.189 36 24 36C17.3726 36 12 30.6274 12 24ZM26.1603 25.4282C24.7965 27.7903 22.577 27.9782 21.5622 27.3923C20.5473 26.8064 19.6003 24.7903 20.9641 22.4282C22.3279 20.0661 24.5473 19.8782 25.5622 20.4641C26.577 21.05 27.524 23.0661 26.1603 25.4282Z" fill="#101214"/>
</g>
<defs>
<clipPath id="clip0_448_7782">
<rect width="48" height="48" fill="white"/>
</clipPath>
</defs>
</svg>
