<svg width="48" height="48" viewBox="0 0 48 48" fill="none" xmlns="http://www.w3.org/2000/svg">
<g clip-path="url(#clip0_448_7175)">
<path fill-rule="evenodd" clip-rule="evenodd" d="M7 33.7653L13.5802 13.9998C15.1968 13.9977 16.5935 13.9986 18.2102 13.9998L24.8102 33.7653C24.8102 33.7653 24.1525 33.7644 23.5533 33.7653H20.5945L19.1505 28.9711H12.5082L11.0604 33.7653C10.6084 33.7653 10.1604 33.765 9.71377 33.7648C8.81095 33.7644 7.91368 33.764 7 33.7653ZM18.2991 25.8769L15.8747 17.7813H15.784L13.3596 25.8769H18.2991Z" fill="#101214"/>
<path fill-rule="evenodd" clip-rule="evenodd" d="M36.5369 19.0798V21.4954H36.3805C35.6837 19.9338 34.1658 18.8521 32.0826 18.8521C28.5863 18.8521 26.3574 21.7681 26.3574 26.3968C26.3574 31.0673 28.5721 33.9998 32.0826 33.9998C34.1907 33.9998 35.6837 32.9726 36.3805 31.3836H36.5369V33.7698H40.3602V19.0798H36.5369ZM36.4569 26.4259C36.4569 23.7534 35.2394 22.0554 33.3393 22.0554C31.4409 22.0554 30.2732 23.728 30.2732 26.4259C30.2732 29.1366 31.4409 30.7801 33.3393 30.7801C35.2518 30.7801 36.4569 29.1238 36.4569 26.4259Z" fill="#101214"/>
</g>
<defs>
<clipPath id="clip0_448_7175">
<rect width="48" height="48" fill="white"/>
</clipPath>
</defs>
</svg>
