<svg width="48" height="48" viewBox="0 0 48 48" fill="none" xmlns="http://www.w3.org/2000/svg">
<path fill-rule="evenodd" clip-rule="evenodd" d="M31 9H17V12H13L17 18V21H13L17 27V30H13L17 36V39H31V36L35 30H31V27L35 21H31V18L35 12H31V9ZM27 15C27 16.6569 25.6569 18 24 18C22.3431 18 21 16.6569 21 15C21 13.3431 22.3431 12 24 12C25.6569 12 27 13.3431 27 15ZM27 24C27 25.6569 25.6569 27 24 27C22.3431 27 21 25.6569 21 24C21 22.3431 22.3431 21 24 21C25.6569 21 27 22.3431 27 24ZM24 36C25.6569 36 27 34.6569 27 33C27 31.3431 25.6569 30 24 30C22.3431 30 21 31.3431 21 33C21 34.6569 22.3431 36 24 36Z" fill="#101214"/>
</svg>
