<svg width="48" height="48" viewBox="0 0 48 48" fill="none" xmlns="http://www.w3.org/2000/svg">
<g clip-path="url(#clip0_448_7641)">
<path d="M30.416 16H28C26.8954 16 26 16.8954 26 18V30C26 33.3137 23.3137 36 20 36H17.584C16.8124 37.7659 15.0503 39 13 39C10.2386 39 8 36.7614 8 34C8 31.2386 10.2386 29 13 29C15.0503 29 16.8124 30.2341 17.584 32H20C21.1046 32 22 31.1046 22 30V18C22 14.6863 24.6863 12 28 12H30.416C31.1876 10.2341 32.9497 9 35 9C37.7614 9 40 11.2386 40 14C40 16.7614 37.7614 19 35 19C32.9497 19 31.1876 17.7659 30.416 16Z" fill="#101214"/>
</g>
<defs>
<clipPath id="clip0_448_7641">
<rect width="48" height="48" fill="white"/>
</clipPath>
</defs>
</svg>
