<svg width="48" height="48" viewBox="0 0 48 48" fill="none" xmlns="http://www.w3.org/2000/svg">
<g clip-path="url(#clip0_448_7391)">
<path fill-rule="evenodd" clip-rule="evenodd" d="M23.9139 35.9145C20.6476 39.1808 15.3518 39.1808 12.0855 35.9145C8.81917 32.6481 8.81916 27.3524 12.0855 24.0861L15.5855 20.586L18.4139 23.4145L14.9139 26.9145C13.2097 28.6187 13.2097 31.3818 14.9139 33.086C16.6182 34.7903 19.3813 34.7903 21.0855 33.0861L24.5855 29.5861L27.4139 32.4145L23.9139 35.9145Z" fill="#101214"/>
<path fill-rule="evenodd" clip-rule="evenodd" d="M35.9141 23.9144C39.1804 20.6481 39.1804 15.3523 35.9141 12.086C32.6478 8.81965 27.352 8.81965 24.0857 12.086L20.5857 15.586L23.4141 18.4144L26.9141 14.9144C28.6184 13.2102 31.3815 13.2102 33.0857 14.9144C34.7899 16.6186 34.7899 19.3818 33.0857 21.086L29.5857 24.586L32.4141 27.4144L35.9141 23.9144Z" fill="#101214"/>
<path fill-rule="evenodd" clip-rule="evenodd" d="M28.9997 38.0002V29.0002H37.9997V33.0002H32.9997V38.0002H28.9997Z" fill="#101214"/>
<path fill-rule="evenodd" clip-rule="evenodd" d="M28.9997 38.0002V29.0002H37.9997V33.0002H32.9997V38.0002H28.9997Z" fill="#101214"/>
<path fill-rule="evenodd" clip-rule="evenodd" d="M18.9997 10.0001V19.0001H9.99971V15.0001H14.9997V10.0001H18.9997Z" fill="#101214"/>
</g>
<defs>
<clipPath id="clip0_448_7391">
<rect width="48" height="48" fill="white"/>
</clipPath>
</defs>
</svg>
