<svg width="48" height="48" viewBox="0 0 48 48" fill="none" xmlns="http://www.w3.org/2000/svg">
<g clip-path="url(#clip0_448_6742)">
<path d="M24 17L14.5739 26.4261C12.4631 25.4437 10.9999 23.3038 11 20.8221C11.0001 18.1255 12.7493 15.7406 15.3212 14.9302L16.7858 14.4687L17.1784 13.3555C18.0988 10.7456 20.5654 9 23.3329 9C26.2944 9 28.8846 10.9942 29.6419 13.8573L30.2858 16.2917H32.6458C35.6028 16.2917 38 18.6888 38 21.6458C38 24.1847 36.2328 26.3109 33.8614 26.8614L24 17Z" fill="#101214"/>
<path d="M31.4144 28.5856L28.5859 31.414L26.0001 28.8281V38H22.0001V28.8283L19.4144 31.414L16.5859 28.5856L24.0002 21.1714L31.4144 28.5856Z" fill="#101214"/>
</g>
<defs>
<clipPath id="clip0_448_6742">
<rect width="48" height="48" fill="white"/>
</clipPath>
</defs>
</svg>
