<svg width="48" height="48" viewBox="0 0 48 48" fill="none" xmlns="http://www.w3.org/2000/svg">
<path d="M26.0005 12C27.1051 12 28.0005 11.1046 28.0005 10C28.0005 8.89543 27.1051 8 26.0005 8C24.8959 8 24.0005 8.89543 24.0005 10C24.0005 11.1046 24.8959 12 26.0005 12Z" fill="#101214"/>
<path d="M20.2449 17.2444L24.0005 16L20.2449 14.7556L19.0005 11L17.756 14.7556L14.0005 16L17.756 17.2444L19.0005 21L20.2449 17.2444Z" fill="#101214"/>
<path d="M35.4967 29.4962L40.0005 28.0051L35.4967 26.5038L33.9954 22L32.5043 26.5038L28.0005 28.0051L32.5043 29.4962L33.9954 34L35.4967 29.4962Z" fill="#101214"/>
<path d="M9.87891 33.8784L25.4646 18.2927L29.7072 22.5354L14.1215 38.1211L9.87891 33.8784Z" fill="#101214"/>
<path d="M32.5356 19.707L28.293 15.4643L33.8789 9.87842L38.1215 14.1211L32.5356 19.707Z" fill="#101214"/>
</svg>
