<svg width="48" height="48" viewBox="0 0 48 48" fill="none" xmlns="http://www.w3.org/2000/svg">
<g clip-path="url(#clip0_448_7055)">
<path fill-rule="evenodd" clip-rule="evenodd" d="M20.442 11.9291L10.0467 32.1726C8.67973 34.8345 10.6126 37.9999 13.6049 37.9999H34.3956C37.3879 37.9999 39.3208 34.8345 37.9538 32.1726L27.5585 11.9291C26.0708 9.03209 21.9296 9.03209 20.442 11.9291ZM22.5007 26.9999V17.9999H25.5007V26.9999H22.5007ZM26.0007 30.9999C26.0007 29.8953 25.1053 28.9999 24.0007 28.9999C22.8962 28.9999 22.0007 29.8953 22.0007 30.9999C22.0007 32.1044 22.8962 32.9999 24.0007 32.9999C25.1053 32.9999 26.0007 32.1044 26.0007 30.9999Z" fill="#101214"/>
</g>
<defs>
<clipPath id="clip0_448_7055">
<rect width="48" height="48" fill="white"/>
</clipPath>
</defs>
</svg>
