<svg width="48" height="48" viewBox="0 0 48 48" fill="none" xmlns="http://www.w3.org/2000/svg">
<g clip-path="url(#clip0_448_7160)">
<path d="M24 28C26.2091 28 28 26.2091 28 24C28 21.7909 26.2091 20 24 20C23.8619 20 23.7255 20.007 23.591 20.0207C21.574 20.2255 20 21.9289 20 24C20 24.2761 20.028 24.5457 20.0813 24.8061C20.4543 26.6289 22.067 28 24 28Z" fill="#101214"/>
<path fill-rule="evenodd" clip-rule="evenodd" d="M24 15C17.28 15 12 21 10 24C11.3333 27 17.28 33 24 33C30.72 33 36.6667 27 38 24C36 21 30.72 15 24 15ZM24 17C27.866 17 31 20.134 31 24C31 27.866 27.866 31 24 31C20.134 31 17 27.866 17 24C17 20.134 20.134 17 24 17Z" fill="#101214"/>
</g>
<defs>
<clipPath id="clip0_448_7160">
<rect width="48" height="48" fill="white"/>
</clipPath>
</defs>
</svg>
