<svg width="48" height="48" viewBox="0 0 48 48" fill="none" xmlns="http://www.w3.org/2000/svg">
<g clip-path="url(#clip0_448_6777)">
<path d="M23.4142 15.4138C24.7342 14.0939 26.2951 13.1145 27.6393 12.6807C29.0649 12.2206 29.679 12.5125 29.8858 12.7193C30.339 13.1725 30.338 13.4591 30.3022 13.68C30.2433 14.044 29.986 14.5597 29.4564 15.179C28.9495 15.7717 28.3263 16.3049 27.8029 16.7026C27.5467 16.8973 27.3265 17.0505 27.1738 17.1527C27.0977 17.2037 27.0392 17.2415 27.0022 17.265L26.9636 17.2894L26.9576 17.293C26.141 17.7917 25.7918 18.7993 26.1252 19.6966C26.4591 20.595 27.3834 21.1303 28.3288 20.9727C30.9974 20.528 32.6463 21.0339 33.4487 21.6174C34.1686 22.141 34.308 22.7515 34.1026 23.3675C33.7533 24.4154 34.3197 25.548 35.3675 25.8973C36.4154 26.2466 37.5481 25.6803 37.8974 24.6324C38.692 22.2484 37.8314 19.8589 35.8013 18.3825C35.0113 17.8079 34.0727 17.3851 33.0137 17.1226C33.5717 16.3497 34.0759 15.4 34.2508 14.3191C34.5022 12.7657 34.0295 11.2062 32.7143 9.89093C30.9211 8.09766 28.3851 8.23683 26.4108 8.87402C24.3549 9.5375 22.2658 10.9054 20.5858 12.5852C19.8048 13.3663 19.8047 14.6326 20.5857 15.4137C21.3668 16.1948 22.6331 16.1948 23.4142 15.4138Z" fill="#101214"/>
<path d="M21 24C21 27.3137 18.3137 30 15 30C11.6863 30 9 27.3137 9 24C9 20.6863 11.6863 18 15 18C18.3137 18 21 20.6863 21 24Z" fill="#101214"/>
<path d="M21 38L28 26L35 38H21Z" fill="#101214"/>
</g>
<defs>
<clipPath id="clip0_448_6777">
<rect width="48" height="48" fill="white"/>
</clipPath>
</defs>
</svg>
