<svg width="48" height="48" viewBox="0 0 48 48" fill="none" xmlns="http://www.w3.org/2000/svg">
<g clip-path="url(#clip0_448_7842)">
<path fill-rule="evenodd" clip-rule="evenodd" d="M40 24C40 15.1635 32.8366 8.00001 24 8C15.1635 8 8 15.1634 8 24C8 32.8366 15.1634 40 24 40C32.8366 40 40 32.8366 40 24ZM18.581 34.5722C18.6011 34.6284 18.6214 34.6845 18.642 34.7403C15.2748 33.0573 12.8097 29.8374 12.1659 26H17.0482C17.2064 29.2598 17.7483 32.2406 18.581 34.5722ZM21.0534 26C21.2081 28.8691 21.6881 31.3791 22.348 33.2268C22.7557 34.3685 23.1946 35.1508 23.5819 35.6095C23.7927 35.8591 23.9336 35.9535 24 35.9873C24.0664 35.9535 24.2073 35.8591 24.4181 35.6095C24.8054 35.1508 25.2443 34.3685 25.652 33.2268C26.3119 31.3791 26.7919 28.8691 26.9466 26L21.0534 26ZM26.9466 22L21.0534 22C21.2081 19.1309 21.6881 16.6209 22.348 14.7732C22.7557 13.6315 23.1946 12.8492 23.5819 12.3905C23.7927 12.1409 23.9336 12.0465 24 12.0127C24.0664 12.0465 24.2073 12.1409 24.4181 12.3905C24.8054 12.8492 25.2443 13.6315 25.652 14.7732C26.3119 16.6209 26.7919 19.1309 26.9466 22ZM30.9518 26C30.7936 29.2598 30.2517 32.2406 29.419 34.5722C29.3989 34.6284 29.3786 34.6845 29.358 34.7403C32.7252 33.0573 35.1903 29.8374 35.8341 26H30.9518ZM35.8341 22L30.9518 22C30.7936 18.7402 30.2517 15.7594 29.419 13.4278C29.3989 13.3716 29.3786 13.3155 29.358 13.2597C32.7252 14.9427 35.1903 18.1626 35.8341 22ZM17.0482 22L12.1659 22C12.8097 18.1626 15.2748 14.9427 18.642 13.2597C18.6214 13.3155 18.6011 13.3716 18.581 13.4278C17.7483 15.7594 17.2064 18.7402 17.0482 22Z" fill="#101214"/>
</g>
<defs>
<clipPath id="clip0_448_7842">
<rect width="48" height="48" fill="white"/>
</clipPath>
</defs>
</svg>
