<svg width="113" height="216" viewBox="0 0 113 216" fill="none" xmlns="http://www.w3.org/2000/svg">
<path d="M44.4181 50.7383C19.2402 50.7383 5.45446 69.5885 1.33485 94.6991C0.437281 100.131 0 105.839 0 111.731C0 117.623 0.414259 123.561 1.21977 128.993H36.2479C34.6599 124.367 33.8314 118.636 33.8314 111.731C33.8314 104.826 34.706 99.3483 36.409 94.6991C39.8612 85.2855 46.7656 80.1989 57.0761 80.1989C69.0437 80.1989 78.4797 95.0444 78.4797 95.0444V73.5242C72.0356 59.4843 60.5283 50.7383 44.4181 50.7383Z" fill="#1868DB"/>
<path d="M55.6952 143.263C46.0752 143.263 39.516 138.545 36.2479 128.993C34.6599 124.367 33.8314 118.636 33.8314 111.731C33.8314 104.826 34.706 99.3485 36.409 94.6992H1.33485C0.437281 100.131 0 105.839 0 111.731C0 117.623 0.414259 123.562 1.21977 128.993C5.13225 155.117 18.5267 172.954 42.3468 172.954C58.457 172.954 71.3451 165.359 78.4797 149.708V128.993C78.4797 128.993 67.6628 143.263 55.6952 143.263Z" fill="#1868DB"/>
<path d="M78.4805 53.04V73.5243V107.128V116.565V149.708V170.653H112.772V53.04H78.4805Z" fill="#1868DB"/>
<path d="M1.33485 94.6992C0.437281 100.131 0 105.839 0 111.731C0 117.623 0.414259 123.562 1.21977 128.993H36.2479C34.6599 124.367 33.8314 118.636 33.8314 111.731C33.8314 104.826 34.706 99.3485 36.409 94.6992H1.33485Z" fill="#09326C"/>
</svg>
