<svg width="114" height="216" viewBox="0 0 114 216" fill="none" xmlns="http://www.w3.org/2000/svg">
<path d="M112.229 94.6991C108.248 69.2202 94.7151 50.7383 70.2276 50.7383C53.4269 50.7383 41.2292 59.7146 34.7852 74.2148V94.6991H35.0383C36.6033 92.5586 46.2234 80.1989 57.5696 80.1989C67.2357 80.1989 73.8178 85.0783 77.0859 94.6991C78.6509 99.3023 79.4564 104.964 79.4564 111.731C79.4564 118.498 78.5819 124.344 76.8788 128.993H112.206C113.081 123.538 113.518 117.761 113.518 111.731C113.518 105.701 113.104 100.108 112.252 94.6991H112.229Z" fill="#1868DB"/>
<path d="M112.23 94.6992H77.0863C78.6513 99.3025 79.4568 104.964 79.4568 111.731C79.4568 118.498 78.5823 124.344 76.8792 128.993C73.45 138.407 66.5917 143.263 56.4423 143.263C44.935 143.263 34.8086 128.993 34.8086 128.993V149.708C41.713 165.359 54.1408 172.954 69.7907 172.954C94.1171 172.954 108.064 154.748 112.207 128.993C113.081 123.539 113.518 117.761 113.518 111.731C113.518 105.701 113.104 100.108 112.253 94.6992H112.23Z" fill="#1868DB"/>
<path d="M34.7839 107.128V74.2152V55.7792V7.44531H0.492188V170.653H34.7839V149.708V116.565V107.128Z" fill="#1868DB"/>
<path d="M112.229 94.6992H77.086C78.651 99.3025 79.4565 104.964 79.4565 111.731C79.4565 118.498 78.582 124.344 76.8789 128.993H112.206C113.081 123.539 113.518 117.761 113.518 111.731C113.518 105.701 113.104 100.108 112.252 94.6992H112.229Z" fill="#09326C"/>
<path d="M35.0383 94.6992H34.7852V95.0445C34.7852 95.0445 34.8772 94.9064 35.0383 94.6992Z" fill="#1868DB"/>
</svg>
