<svg width="114" height="216" viewBox="0 0 114 216" fill="none" xmlns="http://www.w3.org/2000/svg">
<path d="M1.5349 94.6991C5.51642 69.2202 19.049 50.7383 43.5365 50.7383C60.3371 50.7383 72.5348 59.7146 78.9789 74.2148V94.6991H78.7258C77.1608 92.5586 67.5407 80.1989 56.1945 80.1989C46.5284 80.1989 39.9463 85.0783 36.6782 94.6991C35.1132 99.3023 34.3077 104.964 34.3077 111.731C34.3077 118.498 35.1822 124.344 36.8853 128.993H1.55794C0.683387 123.538 0.246094 117.761 0.246094 111.731C0.246094 105.701 0.660398 100.108 1.51194 94.6991H1.5349Z" fill="#1868DB"/>
<path d="M1.5349 94.6992H36.6782C35.1132 99.3025 34.3077 104.964 34.3077 111.731C34.3077 118.498 35.1822 124.344 36.8853 128.993C40.3145 138.407 47.1728 143.263 57.3223 143.263C68.8295 143.263 78.9559 128.993 78.9559 128.993V149.708C72.0516 165.359 59.6237 172.954 43.9738 172.954C19.6474 172.954 5.70056 154.748 1.55794 128.993C0.683387 123.539 0.246094 117.761 0.246094 111.731C0.246094 105.701 0.660398 100.108 1.51194 94.6992H1.5349Z" fill="#1868DB"/>
<path d="M78.9766 107.128V74.2152V55.7792V7.44531H113.268V170.653H78.9766V149.708V116.565V107.128Z" fill="#1868DB"/>
<path d="M1.5353 94.6992C0.683765 100.108 0.269531 105.816 0.269531 111.731C0.269531 117.646 0.706825 123.539 1.58138 128.993H36.9087C35.2056 124.344 34.3311 118.59 34.3311 111.731C34.3311 104.872 35.1366 99.3025 36.7016 94.6992H1.55834H1.5353Z" fill="#09326C"/>
<path d="M78.7266 94.6992H78.9797V95.0445C78.9797 95.0445 78.8877 94.9064 78.7266 94.6992Z" fill="#1868DB"/>
</svg>
