<svg width="114" height="216" viewBox="0 0 114 216" fill="none" xmlns="http://www.w3.org/2000/svg">
<path d="M1.51107 94.5483C5.56163 69.2535 19.0711 50.9326 43.4666 50.9326C60.2672 50.9326 72.465 59.9089 78.9091 74.4091V94.5483C78.9091 94.5483 68.5524 80.3933 56.1246 80.3933C46.5735 80.3933 40.0374 85.1577 36.7464 94.5483C35.1123 99.1975 34.2607 104.975 34.2607 111.925C34.2607 118.876 35.1583 124.63 36.8844 129.303H1.5341C0.636535 123.825 0.199219 118.002 0.199219 111.925C0.199219 105.849 0.636535 100.049 1.5341 94.5483H1.51107Z" fill="#1868DB"/>
<path d="M1.51107 94.5479H36.7464C35.1123 99.1971 34.2607 104.974 34.2607 111.925C34.2607 118.876 35.1583 124.63 36.8844 129.302C40.3366 138.624 47.1719 143.457 57.2753 143.457C68.7826 143.457 78.9091 129.302 78.9091 129.302V149.902C72.0047 165.553 59.5768 173.148 43.9269 173.148C19.6465 173.148 5.69974 155.011 1.5341 129.302C0.636535 123.824 0.199219 118.001 0.199219 111.925C0.199219 105.849 0.636535 100.049 1.5341 94.5479H1.51107Z" fill="#1868DB"/>
<path d="M78.9102 107.321V74.4083V53.2334H113.202V215.727H78.9102V149.901V116.758V107.321Z" fill="#1868DB"/>
<path d="M1.51067 94.5479C0.636112 100.049 0.175781 105.872 0.175781 111.925C0.175781 117.978 0.636112 123.824 1.51067 129.302H36.861C35.1349 124.63 34.2373 118.83 34.2373 111.925C34.2373 105.02 35.0889 99.1971 36.7229 94.5479H1.48763H1.51067Z" fill="#09326C"/>
</svg>
