<svg width="961" height="540" viewBox="0 0 961 540" fill="none" xmlns="http://www.w3.org/2000/svg">
<path d="M848.451 525.67C846.761 525.82 845.061 525.93 843.331 525.93C816.441 525.93 793.871 507.43 787.641 482.47H744.98V539.99H959.99V482.47H840.451C839.581 490.86 839.161 508.94 848.451 525.67Z" fill="#37471F"/>
<path d="M178.73 519.81V539.99H238.35L226.97 519.81H178.73Z" fill="#37471F"/>
<path d="M914.7 133.73L894.69 167.6L875.58 133.73H812.62C814.26 134.95 815.84 136.24 817.34 137.59C830.9 149.8 838.93 167.16 838.93 190.24C838.93 213.32 831.14 229.55 817.94 241.49C811.59 247.23 803.95 251.77 795.35 255.28C792.18 256.57 788.88 257.71 785.45 258.72C785.33 264.04 786.04 271.95 790.17 279.39C789.22 279.47 788.27 279.54 787.3 279.54C775.4 279.54 765 273.09 759.41 263.49C754.44 263.93 749.34 264.15 744.1 264.15C724.55 264.15 706.53 261.15 691.45 254.9C683.12 251.44 675.67 247.01 669.42 241.48C655.92 229.55 647.87 212.66 647.87 190.23C647.87 167.8 656.17 149.8 670.04 137.58C676.16 132.19 683.39 127.83 691.45 124.41C704.69 118.79 720.21 115.72 737.03 115.06V64.36H715.62C709.72 79.04 695.36 89.41 678.57 89.41C677.37 89.41 676.19 89.33 675.01 89.23C679.94 80.35 680.94 70.92 680.86 64.36H617.79V25.7H490.6V0H441.53V112.56H632.34V280.74H563.89L543.14 315.87L523.32 280.74H399.35C400.91 285.51 401.73 290.69 401.73 296.32C401.73 313.73 393.67 326.84 380.15 336.11C373.89 340.4 366.44 343.84 358.09 346.52C342.99 351.37 324.94 353.7 305.36 353.7C296.22 353.7 287.46 353.18 279.2 352.14C273.24 362.73 261.9 369.89 248.88 369.89C247.83 369.89 246.8 369.82 245.78 369.73C250.7 360.86 251.12 351.37 250.8 345.73C243.5 343.17 236.96 339.99 231.41 336.1C218.19 326.83 210.39 313.73 210.39 296.31C210.39 278.89 218.43 264.92 232.02 255.44C238.26 251.09 245.7 247.62 254.04 244.92C268.71 240.17 286.21 237.85 305.37 237.85C308.81 237.85 312.2 237.93 315.55 238.08V171.47H234.74C234.06 180.55 234.38 197.09 242.93 212.5C241.24 212.65 239.54 212.76 237.82 212.76C211.71 212.76 189.69 195.33 182.72 171.47H153.51V251.33H102.85C102.4 255.87 102.24 265.35 107.12 274.14C106.22 274.22 105.32 274.28 104.4 274.28C90.15 274.28 78.19 264.53 74.81 251.33H27.43V171.47H0V248.03C2.96 250.19 5.8 252.46 8.48 254.88C30.02 274.27 42.77 301.83 42.77 338.47C42.77 375.11 30.4 400.89 9.44 419.84C6.47 422.52 3.32 425.03 0 427.39V539.98H18.97V487.67H72.18V395.46H345.47V519.81H277.36L265.44 539.98H456.74V482.46H420.8V343.38H871.47V202.61H960.01V133.72H914.71L914.7 133.73Z" fill="#37471F"/>
<path d="M737.041 133.73V115.07C720.221 115.73 704.701 118.8 691.461 124.42C683.401 127.84 676.171 132.2 670.051 137.59C656.181 149.8 647.881 167.16 647.881 190.24C647.881 213.32 655.931 229.55 669.431 241.49C675.681 247.02 683.121 251.45 691.461 254.91C706.541 261.16 724.561 264.16 744.111 264.16C749.351 264.16 754.461 263.93 759.421 263.5C756.641 258.74 755.051 253.2 755.051 247.29L786.071 252.44C786.071 252.44 785.551 254.92 785.461 258.74C788.881 257.73 792.191 256.59 795.361 255.3C803.961 251.79 811.601 247.25 817.951 241.51C831.151 229.58 838.941 212.69 838.941 190.26C838.941 167.83 830.911 149.83 817.351 137.61C815.851 136.26 814.271 134.97 812.631 133.75H737.051L737.041 133.73Z" fill="#4C6B1F"/>
<path d="M755.039 247.27C755.039 253.18 756.639 258.72 759.409 263.48C764.999 273.07 775.389 279.53 787.299 279.53C788.269 279.53 789.229 279.47 790.169 279.38C786.039 271.94 785.329 264.03 785.449 258.71C785.539 254.89 786.059 252.41 786.059 252.41L755.039 247.26V247.27Z" fill="#4C6B1F"/>
<path d="M315.55 238.09C312.21 237.94 308.82 237.86 305.37 237.86C286.22 237.86 268.71 240.18 254.04 244.93C245.7 247.63 238.26 251.1 232.02 255.45C218.44 264.93 210.39 278.4 210.39 296.32C210.39 314.24 218.19 326.84 231.41 336.11C236.96 340 243.5 343.18 250.8 345.74C250.62 342.61 250.21 340.66 250.21 340.66L283.66 335.11C283.66 341.3 282.04 347.11 279.2 352.14C287.46 353.18 296.22 353.7 305.36 353.7C324.94 353.7 342.99 351.37 358.09 346.52C366.44 343.84 373.89 340.4 380.15 336.11C393.67 326.84 401.73 313.74 401.73 296.32C401.73 290.69 400.91 285.5 399.35 280.74H315.53V238.09H315.55Z" fill="#28311B"/>
<path d="M250.23 340.66C250.23 340.66 250.64 342.61 250.82 345.74C251.14 351.38 250.72 360.87 245.8 369.74C246.82 369.83 247.85 369.9 248.9 369.9C261.92 369.9 273.26 362.74 279.22 352.15C282.05 347.11 283.68 341.31 283.68 335.12L250.23 340.67V340.66Z" fill="#28311B"/>
<path d="M27.43 149.46H153.51V171.48H182.72C181.22 166.36 180.41 160.96 180.41 155.36L235.62 164.52C235.62 164.52 235.07 167.16 234.74 171.49H315.55V112.57H441.54V0H343.3C339.06 23.2 328.4 41.61 312.92 55.6C303.11 64.47 291.3 71.49 278.01 76.91C255.38 86.15 228.36 90.62 198.81 90.62C169.26 90.62 140.75 85.99 117.45 76.33C104.57 70.99 93.07 64.14 83.41 55.6C67.58 41.61 56.61 23.2 52.23 0H0V171.48H27.43V149.46Z" fill="#4C6B1F"/>
<path d="M83.4105 55.6C93.0705 64.14 104.57 70.99 117.45 76.33C140.75 85.99 168.61 90.62 198.81 90.62C229.01 90.62 255.37 86.15 278.01 76.91C291.29 71.49 303.11 64.47 312.92 55.6C328.4 41.61 339.06 23.2 343.3 0H52.2305C56.6105 23.2 67.5805 41.61 83.4105 55.6Z" fill="#28311B"/>
<path d="M960.001 202.61H871.461V343.38H960.001V202.61Z" fill="#4C6B1F"/>
<path d="M456.74 482.47V539.99V540H744.99V539.99V482.47H456.74Z" fill="#4C6B1F"/>
<path d="M871.459 343.39H420.789V482.47H456.729V422.42H744.979V482.47H787.639C786.519 478 785.919 473.33 785.919 468.52L841.129 477.68C841.129 477.68 840.759 479.46 840.449 482.47H959.989V447.43H871.449V343.39H871.459Z" fill="#28311B"/>
<path d="M744.99 422.42H456.74V482.47H744.99V422.42Z" fill="#37471F"/>
<path d="M960.001 348.39H876.461V442.43H960.001V348.39Z" fill="#28311B"/>
<path d="M871.461 343.39V447.43H960.001V442.43H876.461V348.39H960.001V343.39H871.461Z" fill="#4C6B1F"/>
<path d="M843.34 525.93C845.07 525.93 846.77 525.82 848.46 525.67C839.17 508.93 839.59 490.86 840.46 482.47C840.77 479.45 841.14 477.68 841.14 477.68L785.93 468.52C785.93 473.33 786.53 478 787.65 482.47C793.88 507.43 816.45 525.93 843.34 525.93Z" fill="#28311B"/>
<path d="M180.42 155.35C180.42 160.95 181.24 166.36 182.73 171.47C189.7 195.32 211.72 212.76 237.83 212.76C239.56 212.76 241.26 212.65 242.94 212.5C234.39 197.09 234.07 180.55 234.75 171.47C235.07 167.14 235.63 164.5 235.63 164.5L180.42 155.34V155.35Z" fill="#4C6B1F"/>
<path d="M178.73 487.67V519.81H226.97L226.07 518.21L278 518.72L277.35 519.81H345.47V395.47H72.1797V487.67H178.73Z" fill="#28311B"/>
<path d="M72.1797 519.81V487.67H178.73H72.1797H18.9697V539.99V540H178.73V539.99V519.81H72.1797Z" fill="#4C6B1F"/>
<path d="M617.809 0H490.619V25.7H617.809V0Z" fill="#4C6B1F"/>
<path d="M441.55 171.48H315.56V238.09C331.22 238.79 345.67 241.14 358.11 245.23C366.18 247.89 373.42 251.27 379.55 255.45C389.08 261.95 395.98 270.33 399.37 280.74H523.34L517.64 270.64L569.57 271.16L563.91 280.75H632.36V112.56H441.55V171.48Z" fill="#28311B"/>
<path d="M737.039 64.36V115.06C739.369 114.97 741.729 114.92 744.109 114.92C763.229 114.92 780.709 117.9 795.359 124.03C801.679 126.67 807.469 129.88 812.619 133.73H875.579L869.169 122.37L921.099 122.89L914.699 133.73H959.999V0H777.569V64.36H737.039Z" fill="#28311B"/>
<path d="M27.4297 251.33H74.8097C74.1897 248.9 73.8597 246.36 73.8597 243.74L103.23 248.61C103.23 248.61 103.02 249.62 102.85 251.33H153.51V171.47H27.4297V251.33Z" fill="#28311B"/>
<path d="M153.51 149.46H27.4297V171.48H153.51V149.46Z" fill="#37471F"/>
<path d="M73.8604 243.74C73.8604 246.36 74.1903 248.91 74.8103 251.33C78.1903 264.52 90.1504 274.28 104.4 274.28C105.32 274.28 106.22 274.22 107.12 274.14C102.24 265.35 102.4 255.87 102.85 251.33C103.02 249.62 103.23 248.61 103.23 248.61L73.8604 243.74Z" fill="#28311B"/>
<path d="M436.541 117.56H320.551V166.48H436.541V117.56Z" fill="#28311B"/>
<path d="M441.55 112.56H315.56V171.48H441.55V112.56ZM320.55 117.56H436.54V166.48H320.55V117.56Z" fill="#4C6B1F"/>
<path d="M617.811 25.7V64.36H680.881C680.821 59.23 680.111 55.86 680.111 55.86L718.501 49.49C718.501 54.75 717.471 59.76 715.631 64.36H737.041V0H650.381V25.7H617.811Z" fill="#28311B"/>
<path d="M617.811 25.7H650.381V0H617.811V25.7Z" fill="#37471F"/>
<path d="M680.099 55.86C680.099 55.86 680.81 59.24 680.87 64.36C680.94 70.92 679.95 80.35 675.02 89.23C676.19 89.33 677.38 89.41 678.58 89.41C695.37 89.41 709.73 79.04 715.63 64.36C717.48 59.76 718.5 54.75 718.5 49.49L680.109 55.86H680.099Z" fill="#28311B"/>
<path d="M772.569 0H742.039V59.36H772.569V0Z" fill="#28311B"/>
<path d="M777.569 64.36V0H772.569V59.36H742.039V0H737.039V64.36H777.569Z" fill="#4C6B1F"/>
<path d="M173.73 492.67H77.1797V514.81H173.73V492.67Z" fill="#28311B"/>
<path d="M72.1797 487.67V519.81H178.73V487.67H72.1797ZM173.73 514.81H77.1797V492.67H173.73V514.81Z" fill="#4C6B1F"/>
<path d="M379.55 255.45C373.42 251.27 366.18 247.88 358.11 245.23C345.67 241.13 331.21 238.79 315.56 238.09V280.74H399.38C395.98 270.34 389.08 261.95 379.56 255.45H379.55Z" fill="#37471F"/>
<path d="M517.65 270.64L523.35 280.74L543.17 315.87L563.91 280.74L569.58 271.16L517.65 270.64Z" fill="#28311B"/>
<path d="M869.17 122.37L875.58 133.73L894.69 167.6L914.7 133.73L921.1 122.88L869.17 122.37Z" fill="#28311B"/>
<path d="M278 518.72L226.07 518.21L226.97 519.81L238.35 539.99L238.36 540H265.43L265.44 539.99L277.35 519.81L278 518.72Z" fill="#28311B"/>
<path d="M42.77 338.48C42.77 301.84 30.02 274.28 8.48 254.89C5.79 252.47 2.96 250.2 0 248.04V427.4C3.31 425.04 6.47 422.53 9.44 419.85C30.4 400.9 42.77 374.09 42.77 338.48Z" fill="#4C6B1F"/>
<path d="M812.619 133.73C807.469 129.89 801.669 126.67 795.359 124.03C780.709 117.91 763.239 114.92 744.109 114.92C741.729 114.92 739.369 114.97 737.039 115.06V133.72H812.619V133.73Z" fill="#37471F"/>
</svg>
