<svg width="960" height="540" viewBox="0 0 960 540" fill="none" xmlns="http://www.w3.org/2000/svg">
<g clip-path="url(#clip0_287_60413)">
<path d="M871.612 308.75C865.862 308.91 855.472 309.2 843.912 309.49C826.342 309.93 806.082 310.36 795.232 310.36C792.452 310.36 790.302 310.33 788.892 310.26L734.602 408.82L799.992 527.53L793.332 540H843.462L785.302 443.24L871.612 308.75Z" fill="#1558BC"/>
<path d="M500.35 125.77H500.71H518.85H577.84L435.73 318.28L453.35 191.79H375.86L517.44 -1.95317e-05H419.31L331.22 116.57L330.99 116.66L315.28 93.82L257.25 170.61L254.51 171.63L171.09 50.34L171.83 48.99L171.96 48.75L172.46 47.83L265.24 21.04L250.75 -1.95317e-05H102.6L26.05 103.69L40.5 -1.95317e-05H0V146.42H102.08V91.5L196.23 190.18L102.08 292.08V237.16H0V340.58H107.78V540H168.73L195.74 477.6L175.25 411.88H224.19L253.51 344.14H329.9L289.15 447.32L318.05 540.01H400.75C399.93 539.31 399.13 538.59 398.35 537.85C385.65 525.73 378.02 509.21 378.02 485.87C378.02 462.53 385.93 444.88 398.98 432.53C404.7 427.08 411.54 422.68 419.17 419.2C433.36 412.68 450.79 409.58 468.86 409.58C480.16 409.58 490.85 410.76 500.66 413.17C501.78 412.78 502.91 412.41 504.06 412.06L504.77 411.85L505.48 412.05C506.65 412.39 507.81 412.75 508.96 413.12C518.43 410.71 528.62 409.57 539.34 409.57C550.06 409.57 560.91 410.87 570.66 413.62C591.56 419.45 608.62 431.94 617.25 452.6C621.17 462 623.42 473.19 623.42 485.88C623.42 498.57 621.16 509.42 617.31 518.68C613.78 527.11 608.81 534.17 602.77 539.99H715.34L723.71 526.06L635.69 388.89C635.69 388.89 723.35 391.46 724.45 390.36L731.76 403.63L786.94 303.45L788.72 305.23C789 305.25 789.36 305.27 789.8 305.28C791.07 305.32 792.94 305.34 795.24 305.34C804.64 305.34 821.33 305.01 837.11 304.63C852.89 304.26 867.78 303.84 873.61 303.67C875.28 303.62 876.2 303.6 876.2 303.6L880.94 303.46L791.2 443.31L849.3 539.98H911.89V442.44H856.97L955.65 348.29L960.02 352.32V259.96H929.21C930.35 263.63 931.3 267.53 932.03 271.67H819.37C828.57 238.88 843.1 223.9 863.68 219.97C873.7 164.21 906.95 140.55 960.01 139.06V89.84C953.61 93.03 946.76 95.62 939.58 97.62C926.41 101.33 912.77 103.09 897.26 103.09C881.75 103.09 866.86 101.33 853.22 97.53C824.53 89.55 801.65 72.68 790.08 44.95C784.88 32.43 781.92 18.06 781.92 0.61998C781.92 0.40998 781.92 0.19998 781.92 -0.0200195H718.24L776.58 187.07H673.74L641.43 83.47L639.98 87.17L638.78 83.35L636.54 89.03H555.94L594.49 -1.95317e-05H517.86L500.34 125.77H500.35ZM359.98 351.1L358.95 348.36C353.08 332.81 342.94 319.53 329.65 309.96C316.08 300.19 300.13 295.03 283.54 295.03C266.95 295.03 251.01 300.19 237.43 309.96C224.14 319.53 214 332.8 208.13 348.36L207.1 351.1H148.48L149.67 345.92C156.7 315.35 173.72 287.63 197.59 267.87C209.53 257.99 222.85 250.29 237.19 244.99C252.04 239.5 267.63 236.72 283.54 236.72C299.45 236.72 315.05 239.5 329.89 244.99C344.23 250.29 357.56 257.99 369.5 267.87C393.37 287.63 410.38 315.34 417.42 345.92L418.61 351.1H359.99H359.98ZM739.87 227.27L738.28 230.81C719.6 272.44 706.96 317.14 700.16 357.65L699.81 359.73L505.99 360.59L504.48 358.85L504.62 357.74C511.32 305.73 525.82 261.99 542.69 229.5L543.01 228.88L543.61 228.52L543.64 228.5L544.23 228.14L739.86 227.27H739.87Z" fill="#1558BC"/>
<path d="M255.642 164.44L312.292 89.4701L283.922 48.2301L268.212 25.3901L177.922 51.4501L255.642 164.44Z" fill="#1558BC"/>
<path d="M256.789 349.14L229.629 411.88H278.089L286.769 439.71L322.539 349.14H256.789Z" fill="#1558BC"/>
<path d="M174.18 540H215.15L198.02 484.92L174.18 540Z" fill="#1558BC"/>
<path d="M96.3787 0H45.5387L33.7188 84.88L96.3787 0Z" fill="#1558BC"/>
<path d="M453.349 191.79L462.539 125.77H462.909H500.349L517.859 0H517.439L375.859 191.79H453.349Z" fill="#1868DB"/>
<path d="M491.15 191.79H453.71L462.91 125.77H462.54L453.35 191.79L435.73 318.28L577.84 125.77H518.85H500.71L491.51 191.79H491.15Z" fill="#1868DB"/>
<path d="M462.911 125.77L453.711 191.79H491.151H491.511L500.711 125.77H500.351H462.911Z" fill="#1868DB"/>
<path d="M636.539 89.05L638.789 83.37L612.569 0H594.489L555.949 89.05H636.539Z" fill="#1868DB"/>
<path d="M673.741 187.09H776.581L718.241 0H674.141L641.441 83.5L673.741 187.09Z" fill="#1868DB"/>
<path d="M668.769 0H617.809L640.499 72.17L668.769 0Z" fill="#1558BC"/>
<path d="M639.99 87.19L641.44 83.5L674.14 0H668.77L640.5 72.17L617.81 0H612.57L638.79 83.37L639.99 87.19Z" fill="#1868DB"/>
<path d="M196.95 481.48L195.74 477.6L168.73 540H174.18L198.02 484.92L196.95 481.48Z" fill="#1868DB"/>
<path d="M256.791 349.14H322.541L286.771 439.71L287.741 442.83L289.141 447.31L329.901 344.14H253.511L224.191 411.88H229.631L256.791 349.14Z" fill="#1868DB"/>
<path d="M287.74 442.83L249.68 540H318.04L289.14 447.31L287.74 442.83Z" fill="#357DE8"/>
<path d="M196.9 481.31L226.93 412L278.09 411.88H229.63H224.19H175.25L195.74 477.6L196.95 481.48L196.9 481.31Z" fill="#357DE8"/>
<path d="M274.419 416.89L230.219 416.99L202.219 481.59L220.389 540H244.309L282.449 442.64L274.419 416.89Z" fill="#1558BC"/>
<path d="M287.738 442.83L286.768 439.71L278.088 411.88L226.928 412L196.898 481.31L196.948 481.48L198.018 484.92L215.148 540H220.388L202.218 481.59L230.218 416.99L274.418 416.89L282.448 442.64L244.308 540H249.678L287.738 442.83Z" fill="#357DE8"/>
<path d="M313.778 91.63L312.288 89.47L255.638 164.44L177.918 51.45L268.208 25.39L265.218 21.04L172.448 47.83L171.948 48.75L171.818 48.98L171.078 50.33L254.508 171.62L257.248 170.6L315.278 93.82L313.778 91.63Z" fill="#1868DB"/>
<path d="M315.281 93.82L330.991 116.65L331.221 116.57L419.311 0H383.021L313.781 91.63L315.281 93.82Z" fill="#357DE8"/>
<path d="M268.21 25.39L283.92 48.23L266.71 23.21L347.08 0H250.75L265.22 21.04L268.21 25.39Z" fill="#357DE8"/>
<path d="M313.972 83.09L376.762 0H365.112L274.762 26.09L313.972 83.09Z" fill="#1558BC"/>
<path d="M283.921 48.23L312.291 89.47L313.781 91.63L383.021 0H376.761L313.971 83.09L274.761 26.09L365.111 0H347.081L266.711 23.21L283.921 48.23Z" fill="#357DE8"/>
<path d="M369.5 267.87C357.56 257.99 344.24 250.29 329.89 244.99C315.04 239.5 299.45 236.72 283.54 236.72C267.63 236.72 252.03 239.5 237.19 244.99C222.85 250.29 209.52 257.99 197.59 267.87C173.72 287.63 156.71 315.34 149.67 345.92L148.48 351.1H207.1L208.13 348.36C214.01 332.81 224.14 319.53 237.43 309.96C251 300.19 266.95 295.03 283.54 295.03C300.13 295.03 316.07 300.19 329.65 309.96C342.94 319.53 353.08 332.8 358.95 348.36L359.98 351.1H418.6L417.41 345.92C410.38 315.35 393.36 287.63 369.49 267.87H369.5Z" fill="#1868DB"/>
<path d="M136.148 237.16H102.078V292.08L196.218 190.18L102.078 91.5098V146.42H136.148V237.16Z" fill="#1868DB"/>
<path d="M102.08 146.42H0V237.16H102.08V146.42Z" fill="#1868DB"/>
<path d="M136.148 146.42H102.078V237.16H136.148V146.42Z" fill="#1558BC"/>
<path d="M102.601 0H96.3808L33.7208 84.88L45.5408 0H40.5008L26.0508 103.69L102.601 0Z" fill="#1868DB"/>
<path d="M0 345.58V439.43H27.69V540H102.78V345.58H0Z" fill="#1558BC"/>
<path d="M0 340.58V345.58H102.78V540H107.78V340.58H0Z" fill="#1868DB"/>
<path d="M27.69 439.43H0V540H27.69V439.43Z" fill="#357DE8"/>
<path d="M790.072 44.9602C801.642 72.6902 824.522 89.5602 853.212 97.5402C866.842 101.34 881.732 103.1 897.252 103.1C912.772 103.1 926.402 101.34 939.572 97.6302C946.752 95.6302 953.602 93.0502 960.002 89.8502V36.1402C958.182 38.7202 956.152 41.1202 953.902 43.3002C949.002 48.0702 943.112 51.8402 936.482 54.7502C925.182 59.7002 911.672 62.1202 896.912 62.1202V62.0602C881.852 62.0602 867.952 59.5802 856.302 54.3802C849.852 51.5302 844.142 47.8802 839.292 43.3002C828.912 33.3902 822.682 19.9002 822.682 0.830234C822.682 0.550234 822.702 0.270234 822.702 -0.00976562H781.922C781.922 0.200234 781.922 0.410234 781.922 0.630234C781.922 18.0702 784.882 32.4402 790.082 44.9602H790.072Z" fill="#1868DB"/>
<path d="M839.29 43.3102C844.14 47.8902 849.85 51.5402 856.3 54.3902C867.95 59.5902 881.85 62.0702 896.91 62.0702V62.1302C911.67 62.1302 925.17 59.7102 936.48 54.7602C943.11 51.8502 949 48.0702 953.9 43.3102C956.15 41.1302 958.18 38.7402 960 36.1502V0.000234375H937.73C937.73 0.140234 937.73 0.280234 937.73 0.420234C937.73 6.54023 936.63 11.8602 934.73 16.4202C932.59 21.5302 929.38 25.6802 925.42 28.8802C921.47 32.0802 916.79 34.3302 911.71 35.7402C906.99 37.0702 902.12 37.6902 896.66 37.6902C891.21 37.6902 885.95 37.0702 881.06 35.7102C875.92 34.2802 871.23 32.0302 867.27 28.8402C863.31 25.6502 860.11 21.5002 857.99 16.4202C856.1 11.8502 855.04 6.61023 855.04 0.410234C855.04 0.270234 855.04 0.130234 855.04 -0.00976562H822.68C822.68 0.270234 822.66 0.540234 822.66 0.830234C822.66 19.9002 828.89 33.4002 839.27 43.3002L839.29 43.3102Z" fill="#1558BC"/>
<path d="M862.62 14.51C864.43 18.84 867.08 22.26 870.42 24.96C873.76 27.66 877.82 29.63 882.41 30.9C886.78 32.12 891.6 32.7 896.67 32.7C901.76 32.7 906.12 32.13 910.37 30.94H910.35H910.38C914.91 29.68 918.94 27.71 922.29 25.01C925.63 22.3 928.3 18.86 930.13 14.52C931.76 10.59 932.74 5.96002 932.74 0.44002C932.74 0.30002 932.74 0.16002 932.74 0.0200195H860.07C860.07 0.16002 860.07 0.30002 860.07 0.44002C860.07 6.08002 861.01 10.59 862.64 14.52L862.62 14.51Z" fill="#1558BC"/>
<path d="M858.001 16.4202C860.121 21.5102 863.321 25.6502 867.281 28.8402C871.241 32.0302 875.931 34.2802 881.071 35.7102C885.961 37.0702 891.221 37.6902 896.671 37.6902C902.141 37.6902 907.001 37.0702 911.721 35.7402C916.801 34.3302 921.471 32.0802 925.431 28.8802C929.391 25.6802 932.601 21.5302 934.741 16.4302C936.631 11.8602 937.741 6.54023 937.741 0.420234C937.741 0.280234 937.741 0.140234 937.741 0.000234375H932.741C932.741 0.140234 932.741 0.280234 932.741 0.420234C932.741 5.94023 931.751 10.5702 930.131 14.5002C928.301 18.8402 925.631 22.2802 922.291 24.9902C918.951 27.7002 914.911 29.6602 910.381 30.9202H910.351H910.371C906.121 32.1102 901.761 32.6802 896.671 32.6802C891.601 32.6802 886.781 32.1002 882.411 30.8802C877.811 29.6002 873.761 27.6302 870.421 24.9402C867.081 22.2402 864.431 18.8202 862.621 14.4902C861.001 10.5602 860.061 6.04023 860.051 0.410234C860.051 0.270234 860.051 0.130234 860.051 -0.00976562H855.051C855.051 0.130234 855.051 0.270234 855.051 0.410234C855.051 6.60023 856.101 11.8402 858.001 16.4102V16.4202Z" fill="#1868DB"/>
<path d="M617.299 518.69C621.149 509.43 623.409 498.58 623.409 485.89C623.409 473.2 621.149 462.01 617.239 452.61C608.609 431.95 591.559 419.46 570.649 413.63C560.889 410.89 550.279 409.58 539.329 409.58C528.379 409.58 518.419 410.72 508.949 413.13C512.179 414.19 515.299 415.38 518.299 416.73C526.359 420.32 533.669 425.01 539.769 430.93C546.459 437.36 551.759 445.33 555.379 454.6C558.999 463.87 560.929 474.43 560.929 486.07C560.929 497.7 559.049 507.99 555.519 516.95C551.999 525.91 546.829 533.54 540.329 539.84C540.269 539.9 540.199 539.95 540.139 540.01H602.749C608.799 534.18 613.759 527.12 617.289 518.7L617.299 518.69Z" fill="#1868DB"/>
<path d="M457.702 519.83C453.722 510.25 451.472 499.25 451.472 486.07C451.472 472.89 453.712 461.56 457.772 451.83C462.072 441.53 468.442 433.12 476.342 426.54C483.372 420.68 491.602 416.28 500.652 413.16C490.842 410.75 480.152 409.57 468.852 409.57C450.782 409.57 433.352 412.68 419.162 419.19C411.542 422.68 404.692 427.07 398.972 432.52C385.912 444.87 378.012 462.52 378.012 485.86C378.012 509.2 385.632 525.71 398.342 537.84C399.122 538.58 399.932 539.3 400.742 540H470.812C465.412 534.34 460.962 527.64 457.702 519.84V519.83Z" fill="#357DE8"/>
<path d="M536.839 536.24C542.839 530.42 547.579 523.42 550.849 515.11C554.119 506.8 555.909 497.16 555.909 486.06C555.909 474.97 554.069 465.04 550.699 456.41C547.329 447.78 542.439 440.45 536.279 434.53H536.269C530.659 429.07 523.849 424.68 516.239 421.3C512.619 419.67 508.789 418.27 504.779 417.08C495.209 420.06 486.659 424.45 479.529 430.39C472.219 436.48 466.379 444.19 462.379 453.76C458.609 462.83 456.469 473.46 456.469 486.08C456.469 498.7 458.599 508.98 462.319 517.92C466.049 526.84 471.389 534.12 478.019 540H532.579C534.059 538.81 535.489 537.56 536.839 536.24Z" fill="#1558BC"/>
<path d="M518.281 416.72H518.291V416.73L518.281 416.72Z" fill="#1868DB"/>
<path d="M555.511 516.94C559.031 507.98 560.921 497.69 560.921 486.06C560.921 474.42 558.991 463.86 555.371 454.59C551.751 445.32 546.451 437.35 539.761 430.92C533.661 425.01 526.351 420.31 518.291 416.72C515.291 415.37 512.171 414.17 508.941 413.12C507.791 412.74 506.631 412.39 505.461 412.05L504.751 411.85L504.041 412.06C502.891 412.41 501.771 412.78 500.641 413.17C491.591 416.28 483.361 420.69 476.331 426.55C468.431 433.13 462.061 441.53 457.761 451.84C453.711 461.58 451.461 472.9 451.461 486.08C451.461 499.26 453.711 510.26 457.691 519.84C460.941 527.65 465.401 534.35 470.801 540.01H478.011C471.381 534.13 466.031 526.85 462.311 517.93C458.601 508.98 456.461 498.71 456.461 486.09C456.461 473.47 458.601 462.84 462.371 453.77C466.371 444.2 472.221 436.49 479.521 430.4C486.651 424.46 495.201 420.07 504.771 417.09C508.771 418.28 512.601 419.68 516.231 421.3C523.841 424.69 530.641 429.08 536.261 434.53H536.271C542.421 440.46 547.321 447.79 550.691 456.42C554.061 465.05 555.901 474.98 555.901 486.07C555.901 497.17 554.111 506.81 550.841 515.12C547.571 523.43 542.821 530.43 536.831 536.25C535.481 537.57 534.051 538.82 532.571 540.01H540.131C540.191 539.95 540.261 539.9 540.321 539.84C546.811 533.54 551.981 525.91 555.511 516.95V516.94Z" fill="#1868DB"/>
<path d="M863.67 219.99C863.67 219.99 863.69 219.99 863.7 219.99C864.62 219.82 865.55 219.67 866.49 219.54C866.68 219.51 866.87 219.49 867.06 219.47C867.79 219.38 868.53 219.29 869.27 219.22C869.55 219.19 869.83 219.17 870.11 219.15C870.8 219.09 871.51 219.05 872.21 219.01C872.48 219 872.75 218.98 873.03 218.97C873.99 218.93 874.96 218.91 875.95 218.91C875.95 218.91 875.97 218.91 875.98 218.91C876.83 218.91 877.68 218.93 878.51 218.96C878.79 218.97 879.07 218.99 879.36 219C879.92 219.03 880.48 219.06 881.03 219.1C881.36 219.13 881.69 219.16 882.01 219.19C882.51 219.24 883.01 219.28 883.5 219.34C883.84 219.38 884.19 219.42 884.53 219.47C885 219.53 885.47 219.6 885.94 219.67C886.28 219.72 886.63 219.78 886.97 219.84C887.43 219.92 887.89 220.01 888.34 220.1C888.67 220.17 889.01 220.23 889.34 220.31C889.8 220.41 890.26 220.52 890.72 220.64C891.03 220.72 891.35 220.79 891.66 220.87C892.17 221.01 892.67 221.16 893.18 221.31C893.43 221.38 893.68 221.45 893.93 221.53C894.65 221.76 895.36 222 896.06 222.25C896.36 222.36 896.66 222.48 896.96 222.6C897.38 222.76 897.79 222.92 898.2 223.09C898.54 223.23 898.87 223.38 899.21 223.53C899.57 223.69 899.93 223.85 900.28 224.01C900.63 224.17 900.97 224.34 901.31 224.51C901.64 224.68 901.97 224.84 902.3 225.02C902.65 225.2 903 225.39 903.34 225.58C903.65 225.75 903.96 225.93 904.27 226.11C904.62 226.32 904.97 226.52 905.31 226.73C905.6 226.91 905.89 227.1 906.17 227.28C906.52 227.51 906.87 227.74 907.22 227.97C907.47 228.15 907.72 228.33 907.97 228.51C908.34 228.77 908.71 229.03 909.07 229.31C909.09 229.33 909.11 229.34 909.13 229.36C910.09 230.1 911.03 230.88 911.94 231.69C912.09 231.83 912.25 231.96 912.4 232.1C912.77 232.44 913.13 232.78 913.48 233.13C913.67 233.31 913.86 233.5 914.05 233.68C914.4 234.03 914.74 234.38 915.07 234.74C915.26 234.94 915.45 235.14 915.63 235.34C915.97 235.71 916.3 236.08 916.62 236.46C916.8 236.66 916.97 236.87 917.14 237.08C917.47 237.47 917.8 237.87 918.12 238.28C918.27 238.47 918.42 238.67 918.58 238.87C918.91 239.3 919.24 239.74 919.56 240.18C919.67 240.34 919.78 240.5 919.89 240.66C921.49 242.92 922.96 245.35 924.3 247.95C924.37 248.08 924.44 248.21 924.51 248.34C924.79 248.9 925.07 249.47 925.34 250.05C925.43 250.25 925.53 250.45 925.62 250.65C925.88 251.21 926.13 251.78 926.38 252.36C926.48 252.58 926.57 252.81 926.66 253.03C926.9 253.61 927.14 254.2 927.37 254.79C927.46 255.01 927.54 255.24 927.63 255.46C927.86 256.07 928.09 256.69 928.31 257.32C928.38 257.51 928.44 257.7 928.5 257.89C928.73 258.57 928.96 259.25 929.18 259.95H959.99V139.05C906.93 140.54 873.68 164.2 863.66 219.96L863.67 219.99Z" fill="#357DE8"/>
<path d="M873.822 259.98H860.452C860.452 245.12 861.562 231.85 863.692 219.99C863.682 219.99 863.672 219.99 863.662 219.99C843.072 223.92 828.542 238.9 819.352 271.69H932.012C931.282 267.55 930.332 263.65 929.192 259.98H873.822Z" fill="#1868DB"/>
<path d="M904.27 226.12C904.62 226.33 904.97 226.53 905.31 226.74C904.97 226.53 904.62 226.32 904.27 226.12Z" fill="#1868DB"/>
<path d="M867.059 219.46C867.789 219.37 868.529 219.28 869.269 219.21C868.529 219.28 867.789 219.36 867.059 219.46Z" fill="#1868DB"/>
<path d="M896.051 222.25C896.351 222.36 896.651 222.48 896.951 222.6C896.651 222.49 896.361 222.36 896.051 222.25Z" fill="#1868DB"/>
<path d="M906.172 227.3C906.522 227.53 906.872 227.76 907.222 227.99C906.882 227.75 906.522 227.52 906.172 227.3Z" fill="#1868DB"/>
<path d="M900.27 224C900.62 224.16 900.959 224.33 901.299 224.5C900.959 224.33 900.61 224.16 900.27 224Z" fill="#1868DB"/>
<path d="M912.398 232.12C912.768 232.46 913.128 232.8 913.478 233.15C913.118 232.8 912.758 232.45 912.398 232.12Z" fill="#1868DB"/>
<path d="M914.059 233.7C914.409 234.05 914.749 234.4 915.079 234.76C914.739 234.4 914.399 234.04 914.059 233.7Z" fill="#1868DB"/>
<path d="M907.969 228.53C908.339 228.79 908.709 229.05 909.069 229.33C908.709 229.06 908.339 228.8 907.969 228.53Z" fill="#1868DB"/>
<path d="M909.129 229.38C910.089 230.12 911.029 230.9 911.939 231.71C911.029 230.9 910.089 230.11 909.129 229.38Z" fill="#1868DB"/>
<path d="M870.109 219.14C870.799 219.08 871.509 219.04 872.209 219C871.499 219.04 870.799 219.08 870.109 219.14Z" fill="#1868DB"/>
<path d="M915.641 235.37C915.981 235.74 916.311 236.11 916.631 236.49C916.301 236.11 915.971 235.74 915.641 235.37Z" fill="#1868DB"/>
<path d="M878.512 218.95C878.792 218.96 879.072 218.98 879.362 218.99C879.082 218.98 878.802 218.96 878.512 218.95Z" fill="#1868DB"/>
<path d="M881.031 219.1C881.361 219.13 881.691 219.16 882.011 219.19C881.681 219.16 881.361 219.13 881.031 219.1Z" fill="#1868DB"/>
<path d="M893.172 221.31C893.422 221.38 893.672 221.45 893.922 221.53C893.672 221.45 893.422 221.39 893.172 221.31Z" fill="#1868DB"/>
<path d="M883.512 219.34C883.852 219.38 884.202 219.42 884.542 219.47C884.202 219.42 883.862 219.38 883.512 219.34Z" fill="#1868DB"/>
<path d="M890.719 220.64C891.029 220.72 891.349 220.79 891.659 220.87C891.349 220.79 891.039 220.71 890.719 220.64Z" fill="#1868DB"/>
<path d="M888.34 220.1C888.67 220.17 889.01 220.23 889.34 220.31C889.01 220.24 888.67 220.17 888.34 220.1Z" fill="#1868DB"/>
<path d="M885.941 219.67C886.281 219.72 886.631 219.78 886.971 219.84C886.631 219.78 886.291 219.72 885.941 219.67Z" fill="#1868DB"/>
<path d="M919.91 240.68C921.5 242.94 922.98 245.37 924.32 247.97C922.98 245.37 921.51 242.94 919.91 240.68Z" fill="#1868DB"/>
<path d="M928.512 257.91C928.742 258.59 928.972 259.27 929.192 259.97C928.972 259.27 928.752 258.59 928.512 257.91Z" fill="#1868DB"/>
<path d="M875.981 218.9C875.981 218.9 875.961 218.9 875.951 218.9C874.971 218.9 874.001 218.92 873.031 218.96C873.991 218.92 874.961 218.9 875.951 218.9C875.951 218.9 875.971 218.9 875.981 218.9Z" fill="#1868DB"/>
<path d="M918.59 238.89C918.92 239.32 919.25 239.76 919.57 240.2C919.25 239.75 918.92 239.32 918.59 238.89Z" fill="#1868DB"/>
<path d="M928.509 257.91C928.449 257.72 928.379 257.53 928.319 257.34C928.099 256.71 927.869 256.09 927.639 255.48C927.559 255.26 927.469 255.03 927.379 254.81C927.149 254.22 926.909 253.63 926.669 253.05C926.579 252.83 926.479 252.6 926.389 252.38C926.139 251.8 925.889 251.23 925.629 250.67C925.539 250.47 925.439 250.27 925.349 250.07C925.079 249.49 924.799 248.92 924.519 248.36C924.449 248.23 924.379 248.1 924.309 247.97C922.969 245.37 921.499 242.94 919.899 240.68C919.789 240.52 919.679 240.36 919.569 240.2C919.249 239.75 918.919 239.32 918.589 238.89C918.439 238.69 918.289 238.49 918.129 238.3C917.809 237.89 917.479 237.49 917.149 237.1C916.979 236.89 916.799 236.69 916.629 236.48C916.299 236.1 915.969 235.73 915.639 235.36C915.449 235.16 915.269 234.96 915.079 234.76C914.739 234.4 914.399 234.04 914.059 233.7C913.869 233.51 913.679 233.33 913.489 233.15C913.129 232.8 912.769 232.45 912.409 232.12C912.259 231.98 912.099 231.85 911.949 231.71C911.039 230.9 910.099 230.12 909.139 229.38C909.119 229.36 909.099 229.35 909.079 229.33C908.719 229.06 908.349 228.8 907.979 228.53C907.729 228.35 907.479 228.17 907.229 227.99C906.889 227.75 906.529 227.52 906.179 227.3C905.889 227.11 905.609 226.93 905.319 226.75C904.979 226.54 904.629 226.33 904.279 226.13C903.969 225.95 903.659 225.77 903.349 225.6C903.009 225.41 902.659 225.22 902.309 225.04C901.979 224.87 901.649 224.7 901.319 224.53C900.979 224.36 900.629 224.19 900.289 224.03C899.929 223.86 899.579 223.7 899.219 223.55C898.879 223.4 898.549 223.25 898.209 223.11C897.799 222.94 897.379 222.78 896.969 222.62C896.669 222.5 896.379 222.38 896.069 222.27C895.369 222.01 894.659 221.77 893.939 221.55C893.689 221.47 893.439 221.41 893.189 221.33C892.689 221.18 892.179 221.03 891.669 220.89C891.359 220.81 891.049 220.73 890.729 220.66C890.269 220.55 889.819 220.43 889.349 220.33C889.019 220.26 888.679 220.19 888.349 220.12C887.899 220.03 887.439 219.94 886.979 219.86C886.639 219.8 886.299 219.74 885.949 219.69C885.479 219.62 885.009 219.55 884.539 219.49C884.199 219.44 883.859 219.4 883.509 219.36C883.019 219.3 882.519 219.25 882.019 219.21C881.689 219.18 881.369 219.15 881.039 219.12C880.489 219.08 879.929 219.05 879.369 219.02C879.089 219.01 878.809 218.99 878.519 218.98C877.679 218.95 876.839 218.93 875.989 218.93C875.989 218.93 875.969 218.93 875.959 218.93C874.979 218.93 874.009 218.95 873.039 218.99C872.769 219 872.489 219.02 872.219 219.03C871.509 219.07 870.809 219.11 870.119 219.17C869.839 219.19 869.559 219.22 869.279 219.24C868.539 219.31 867.799 219.39 867.069 219.49C866.879 219.51 866.689 219.53 866.499 219.56C865.559 219.69 864.629 219.84 863.709 220.01C861.579 231.87 860.469 245.14 860.469 260H929.199C928.979 259.3 928.759 258.62 928.519 257.94L928.509 257.91Z" fill="#1558BC"/>
<path d="M856.961 442.46H911.881V408.38H960.001V352.34L955.631 348.31L856.961 442.46Z" fill="#357DE8"/>
<path d="M911.879 442.46V540H959.999V442.46H911.879Z" fill="#1868DB"/>
<path d="M959.999 408.38H911.879V442.45H959.999V408.38Z" fill="#1558BC"/>
<path d="M880.93 303.48L876.19 303.62C876.19 303.62 875.26 303.65 873.6 303.69C867.77 303.86 852.88 304.27 837.1 304.65C821.32 305.02 804.63 305.36 795.23 305.36C792.93 305.36 791.07 305.34 789.79 305.3C789.35 305.29 788.99 305.27 788.71 305.25L786.93 303.47L731.75 403.65L733.18 406.24L734.61 408.83L788.9 310.27C790.31 310.34 792.46 310.36 795.24 310.37C806.1 310.37 826.35 309.93 843.92 309.5C855.48 309.21 865.86 308.93 871.62 308.76L785.31 443.25L843.47 540.01H849.3L791.2 443.34L880.94 303.49L880.93 303.48Z" fill="#1868DB"/>
<path d="M733.172 406.23L731.742 403.64L724.432 390.37C723.332 391.47 635.672 388.9 635.672 388.9L723.692 526.07L715.322 540H762.822L711.952 444.75L733.172 406.23Z" fill="#357DE8"/>
<path d="M733.171 416.59L717.641 444.79L768.491 540H787.661L794.301 527.57L733.171 416.59Z" fill="#1558BC"/>
<path d="M734.601 408.82L733.171 406.23L711.961 444.75L762.821 540H768.491L717.641 444.79L733.171 416.59L794.301 527.57L787.661 540H793.331L799.991 527.53L734.601 408.82Z" fill="#357DE8"/>
<path d="M546.459 233.13C530.479 264.31 516.659 306.06 509.969 355.57L695.599 354.74C702.349 315.53 714.469 272.65 732.169 232.3L546.459 233.12V233.13Z" fill="#1558BC"/>
<path d="M543.648 228.5L543.618 228.52L543.018 228.88L542.698 229.5C525.838 261.99 511.338 305.73 504.628 357.74L504.488 358.85L505.998 360.59L699.818 359.73L700.168 357.65C706.968 317.14 719.608 272.44 738.288 230.81L739.878 227.27L544.248 228.14L543.658 228.5H543.648ZM695.598 354.75L509.968 355.58C516.658 306.06 530.478 264.32 546.458 233.14L732.168 232.32C714.468 272.67 702.348 315.55 695.598 354.76V354.75Z" fill="#1868DB"/>
</g>
<defs>
<clipPath id="clip0_287_60413">
<rect width="960" height="540" fill="white"/>
</clipPath>
</defs>
</svg>
