<svg width="960" height="540" viewBox="0 0 960 540" fill="none" xmlns="http://www.w3.org/2000/svg">
<g clip-path="url(#clip0_287_60589)">
<path d="M871.789 321.18C866.049 321.35 855.629 321.64 844.029 321.93C826.459 322.38 806.199 322.82 795.339 322.82C792.569 322.82 790.429 322.79 789.019 322.72L734.699 423.63L797.329 539.99H833.069L785.419 458.87L871.769 321.17L871.789 321.18Z" fill="#8C8F97"/>
<path d="M100.228 0H46.2783L33.7383 92.18L100.228 0Z" fill="#8C8F97"/>
<path d="M255.692 173.59L312.362 96.8499L268.232 31.1899L177.922 57.8799L255.692 173.59Z" fill="#8C8F97"/>
<path d="M724.54 404.76L731.86 418.36L787.03 315.86L788.83 317.71C789.11 317.73 789.47 317.75 789.9 317.76C791.17 317.8 793.04 317.82 795.34 317.82C804.74 317.82 821.44 317.48 837.22 317.1C853.01 316.72 867.89 316.29 873.73 316.12C875.4 316.07 876.32 316.04 876.32 316.04L881 315.9L791.28 458.96L838.88 540H912.01V458.07H857.08L955.77 361.72L960 365.72V271.33H929.32C930.46 275.08 931.41 279.07 932.14 283.31H819.47C828.67 249.76 843.2 234.42 863.79 230.4C873.81 173.38 907.01 149.16 960 147.6V97.29C953.64 100.53 946.84 103.15 939.71 105.18C926.54 108.98 912.9 110.78 897.38 110.78C881.86 110.78 866.97 108.98 853.34 105.09C824.64 96.93 801.77 79.65 790.2 51.28C785 38.47 782.04 23.76 782.04 5.91C782.04 3.9 782.08 1.94 782.16 0H716.76L776.71 196.74H673.86L641.55 90.7L640.1 94.47L638.9 90.57L636.65 96.39H556.04L596.81 0H423.27L331.29 124.56L331.06 124.65L315.34 101.26L257.34 179.8L254.56 180.85L171.16 56.77L171.87 55.45L172 55.21L172.49 54.29L265.33 26.86L249.61 3.47L249.74 3.23L260.61 0.02H106.4L26.08 111.33L41.24 0H0V155.11H102.11V98.91L196.27 199.9L102.11 304.19V247.99H0V353.89H107.81V540.02H176.35L195.79 494.07L175.29 426.8H224.24L253.54 357.53H329.92L289.19 463.05L312.64 540.02H386.55C381.12 529.88 378.07 517.6 378.07 502.52C378.07 478.64 385.98 460.57 399.03 447.93C404.75 442.35 411.6 437.85 419.22 434.28C433.41 427.61 450.84 424.43 468.91 424.43C480.25 424.43 490.97 425.65 500.8 428.13C501.89 427.75 502.98 427.38 504.09 427.03L504.81 426.81L505.53 427.02C506.67 427.36 507.79 427.71 508.91 428.08C518.41 425.6 528.63 424.42 539.38 424.42C550.13 424.42 560.95 425.75 570.71 428.56C591.62 434.53 608.67 447.31 617.3 468.45C621.22 478.07 623.47 489.52 623.47 502.51C623.47 515.5 621.21 526.6 617.36 536.08C616.81 537.42 616.23 538.72 615.62 539.99H721.5L635.75 403.25C635.75 403.25 723.42 405.88 724.52 404.75L724.54 404.76ZM360.04 364.58L359.01 361.78C353.13 345.86 343 332.27 329.7 322.48C316.12 312.48 300.18 307.2 283.59 307.2C267 307.2 251.05 312.48 237.48 322.48C224.18 332.27 214.05 345.86 208.17 361.78L207.14 364.58H148.51L149.7 359.28C156.73 327.99 173.75 299.62 197.62 279.4C209.56 269.29 222.89 261.41 237.23 255.98C252.08 250.36 267.68 247.52 283.59 247.52C299.5 247.52 315.1 250.37 329.95 255.98C344.29 261.41 357.62 269.28 369.56 279.4C393.43 299.62 410.45 327.99 417.48 359.28L418.67 364.58H360.04ZM435.81 330.99L453.43 201.54H375.93L518.05 4.53L500.43 133.98H500.79H518.93H577.93L435.81 330.99ZM506.08 374.23L504.58 372.49L504.72 371.39C511.42 318.17 525.92 273.42 542.78 240.18L543.09 239.56L543.68 239.19L543.7 239.17L544.3 238.79L739.94 237.9L738.4 241.42C719.72 284.03 707.07 329.79 700.27 371.25L699.93 373.34L506.07 374.22L506.08 374.23Z" fill="#8C8F97"/>
<path d="M181.781 540H209.761L198.061 501.52L181.781 540Z" fill="#8C8F97"/>
<path d="M256.862 362.51L229.672 426.78H278.152L286.832 455.27L322.642 362.51H256.862Z" fill="#8C8F97"/>
<path d="M462.982 133.98H500.432L518.052 4.53027L375.922 201.54H453.422L462.622 133.98H462.982Z" fill="#7D818A"/>
<path d="M518.929 133.98H500.789L491.589 201.54H491.229H453.789L462.979 133.98H462.619L453.419 201.54L435.809 330.99L577.929 133.98H518.929Z" fill="#7D818A"/>
<path d="M462.979 133.98L453.789 201.54H491.229H491.589L500.789 133.98H500.429H462.979Z" fill="#7D818A"/>
<path d="M636.641 96.4L638.891 90.58L611.061 0H596.811L556.031 96.4H636.641Z" fill="#7D818A"/>
<path d="M673.841 196.74H776.701L716.741 0H676.251L641.531 90.7L673.841 196.74Z" fill="#7D818A"/>
<path d="M670.899 0H616.289L640.599 79.14L670.899 0Z" fill="#8C8F97"/>
<path d="M640.089 94.47L641.529 90.7L676.249 0H670.899L640.599 79.14L616.289 0H611.059L638.889 90.58L640.089 94.47Z" fill="#7D818A"/>
<path d="M196.942 497.83L195.792 494.05L176.352 540H181.782L198.062 501.52L196.942 497.83Z" fill="#7D818A"/>
<path d="M256.858 362.51H322.638L286.828 455.27L289.188 463.03L329.918 357.51H253.538L224.238 426.78H229.668L256.858 362.51Z" fill="#7D818A"/>
<path d="M226.979 426.9L278.149 426.78H229.669H224.239H175.289L195.789 494.05L196.939 497.83L226.979 426.9Z" fill="#7D818A"/>
<path d="M286.828 455.27L278.148 426.78L287.798 458.46L256.578 540H312.648L289.188 463.03L286.828 455.27Z" fill="#7D818A"/>
<path d="M274.44 431.79L230.29 431.9L202.25 498.11L214.99 540H251.23L282.52 458.28L274.44 431.79Z" fill="#8C8F97"/>
<path d="M278.151 426.78L226.981 426.9L196.941 497.83L198.061 501.52L209.761 540H214.991L202.251 498.11L230.291 431.9L274.441 431.79L282.521 458.28L251.231 540H256.581L287.801 458.46L278.151 426.78Z" fill="#7D818A"/>
<path d="M255.691 173.59L177.921 57.8798L268.231 31.1898L265.311 26.8398L172.471 54.2698L171.981 55.1998L171.851 55.4398L171.141 56.7698L254.551 180.85L257.321 179.79L315.321 101.25L312.361 96.8498L255.691 173.59Z" fill="#7D818A"/>
<path d="M249.59 3.46L265.31 26.84L268.23 31.19L312.36 96.85L315.32 101.25L331.05 124.65L331.28 124.56L423.26 0H386.98L313.84 99.04L266.76 29.01L364.95 0H260.59L249.72 3.21L249.59 3.46Z" fill="#7D818A"/>
<path d="M314.031 90.3599L380.251 0.689941L274.711 31.8699L314.031 90.3599Z" fill="#8C8F97"/>
<path d="M313.842 99.04L386.982 0H364.952L266.762 29.01L313.832 99.04H313.842ZM314.032 90.36L274.722 31.87L380.252 0.69L314.032 90.36Z" fill="#7D818A"/>
<path d="M369.562 279.4C357.622 269.29 344.292 261.41 329.952 255.98C315.102 250.36 299.512 247.52 283.592 247.52C267.672 247.52 252.082 250.37 237.232 255.98C222.892 261.41 209.562 269.28 197.622 279.4C173.752 299.62 156.732 327.99 149.702 359.28L148.512 364.58H207.142L208.172 361.78C214.052 345.86 224.182 332.27 237.482 322.48C251.062 312.48 267.002 307.2 283.592 307.2C300.182 307.2 316.132 312.48 329.702 322.48C343.002 332.27 353.132 345.86 359.012 361.78L360.042 364.58H418.672L417.482 359.28C410.452 327.99 393.432 299.62 369.562 279.4Z" fill="#7D818A"/>
<path d="M136.189 247.98H102.109V304.18L196.269 199.89L102.109 98.9102V155.11H136.189V247.98Z" fill="#7D818A"/>
<path d="M102.11 155.11H0V247.97H102.11V155.11Z" fill="#7D818A"/>
<path d="M136.189 155.11H102.109V247.97H136.189V155.11Z" fill="#8C8F97"/>
<path d="M106.398 0H100.228L33.7381 92.18L46.2781 0H41.2381L26.0781 111.33L106.398 0Z" fill="#7D818A"/>
<path d="M0 358.87V454.98H27.71V540H102.81V358.87H0Z" fill="#8C8F97"/>
<path d="M0 353.87V358.87H102.81V540H107.81V353.87H0Z" fill="#7D818A"/>
<path d="M27.71 454.98H0V540H27.71V454.98Z" fill="#7D818A"/>
<path d="M790.191 51.2802C801.761 79.6602 824.641 96.9302 853.331 105.09C866.961 108.98 881.851 110.78 897.371 110.78C912.891 110.78 926.521 108.98 939.701 105.18C946.831 103.15 953.631 100.53 959.991 97.2902V42.4502C958.201 45.0202 956.221 47.4002 954.031 49.5802C949.131 54.4602 943.231 58.3202 936.611 61.3002C925.311 66.3702 911.801 68.8402 897.041 68.8402V68.7802C881.981 68.7802 868.081 66.2402 856.421 60.9202C849.971 58.0102 844.261 54.2702 839.411 49.5802C829.031 39.4402 822.801 25.6302 822.801 6.11023C822.801 4.01023 822.891 1.98023 823.041 -0.00976562H782.151C782.081 1.93023 782.031 3.90023 782.031 5.90023C782.031 23.7402 784.991 38.4502 790.191 51.2702V51.2802Z" fill="#7D818A"/>
<path d="M839.419 49.59C844.269 54.28 849.979 58.02 856.429 60.93C868.079 66.25 881.989 68.79 897.049 68.79V68.85C911.809 68.85 925.319 66.38 936.619 61.31C943.249 58.33 949.139 54.47 954.039 49.59C956.229 47.41 958.219 45.03 959.999 42.46V0H937.549C937.759 1.83 937.879 3.72 937.879 5.69C937.879 11.94 936.779 17.36 934.889 22.02C932.759 27.23 929.549 31.48 925.589 34.75C921.639 38.02 916.959 40.33 911.869 41.78C907.149 43.14 902.269 43.78 896.799 43.78C891.339 43.78 886.079 43.15 881.179 41.75C876.039 40.29 871.339 37.98 867.379 34.72C863.419 31.46 860.229 27.22 858.119 22.04C856.229 17.37 855.179 12.03 855.179 5.7C855.179 3.72 855.289 1.83 855.489 0.01H823.029C822.879 2 822.789 4.03 822.789 6.13C822.789 25.65 829.019 39.46 839.399 49.6L839.419 49.59Z" fill="#8C8F97"/>
<path d="M862.749 20.1398C864.569 24.5798 867.219 28.0898 870.569 30.8598C873.909 33.6198 877.959 35.6298 882.559 36.9398L881.879 39.3398L882.569 36.9398C886.929 38.1898 891.749 38.7798 896.819 38.7798C901.909 38.7798 906.259 38.1998 910.509 36.9798C915.029 35.6898 919.059 33.6798 922.409 30.9098C925.759 28.1398 928.429 24.6098 930.269 20.1498C931.899 16.1098 932.889 11.3598 932.889 5.69977C932.889 3.70977 932.759 1.80977 932.529 0.00976562H860.539C860.319 1.79977 860.199 3.68977 860.199 5.69977C860.199 11.4798 861.149 16.1198 862.769 20.1498L862.749 20.1398Z" fill="#8C8F97"/>
<path d="M858.122 22.02C860.232 27.21 863.432 31.45 867.382 34.71C871.342 37.98 876.042 40.28 881.182 41.74C886.072 43.14 891.342 43.77 896.802 43.77C902.272 43.77 907.142 43.13 911.872 41.77C916.952 40.32 921.632 38.02 925.592 34.74C929.542 31.47 932.752 27.22 934.892 22.02C936.782 17.35 937.882 11.93 937.882 5.67998C937.882 3.70998 937.762 1.81998 937.552 -0.0100195H932.522C932.752 1.79998 932.882 3.68998 932.882 5.67998C932.882 11.34 931.892 16.09 930.262 20.13C928.432 24.59 925.752 28.12 922.402 30.89C919.052 33.66 915.022 35.67 910.502 36.96C906.252 38.18 901.902 38.76 896.812 38.76C891.742 38.76 886.932 38.17 882.562 36.92L881.872 39.32L882.552 36.92C877.962 35.61 873.912 33.6 870.562 30.84C867.222 28.07 864.562 24.57 862.742 20.12C861.112 16.09 860.172 11.45 860.172 5.66998C860.172 3.65998 860.292 1.76998 860.512 -0.0200195H855.482C855.282 1.79998 855.172 3.68998 855.172 5.66998C855.172 12 856.222 17.34 858.112 22L858.122 22.02Z" fill="#7D818A"/>
<path d="M623.501 502.52C623.501 489.53 621.241 478.08 617.331 468.46C608.701 447.32 591.641 434.54 570.741 428.57C560.981 425.76 550.361 424.43 539.411 424.43C528.461 424.43 518.441 425.6 508.941 428.09C512.201 429.18 515.361 430.42 518.401 431.81C526.461 435.48 533.771 440.29 539.871 446.34C546.561 452.92 551.861 461.07 555.471 470.54C559.081 480.01 561.021 490.81 561.021 502.71C561.021 514.6 559.141 525.11 555.621 534.27C554.861 536.25 554.011 538.15 553.101 540.01H615.661C616.271 538.74 616.861 537.44 617.401 536.1C621.251 526.62 623.511 515.52 623.511 502.53L623.501 502.52Z" fill="#7D818A"/>
<path d="M457.77 537.22C453.79 527.43 451.54 516.19 451.55 502.71C451.55 489.23 453.79 477.66 457.84 467.71C462.13 457.17 468.5 448.58 476.4 441.85C483.46 435.83 491.73 431.31 500.82 428.12C490.99 425.64 480.26 424.42 468.93 424.42C450.86 424.42 433.43 427.6 419.24 434.27C411.62 437.84 404.77 442.33 399.05 447.92C385.99 460.56 378.09 478.63 378.09 502.51C378.09 517.58 381.13 529.87 386.57 540.01H459.01C458.59 539.1 458.17 538.18 457.79 537.24L457.77 537.22Z" fill="#7D818A"/>
<path d="M556.001 502.7C556.001 491.34 554.161 481.16 550.781 472.31C547.401 463.46 542.501 455.95 536.341 449.89C530.721 444.31 523.921 439.81 516.311 436.35C512.691 434.68 508.871 433.25 504.871 432.04C495.311 435.09 486.771 439.57 479.641 445.65C472.331 451.89 466.481 459.78 462.471 469.59C458.691 478.88 456.551 489.78 456.551 502.71C456.551 515.64 458.691 526.17 462.411 535.34C463.071 536.95 463.791 538.49 464.551 540H547.461C548.751 537.61 549.931 535.11 550.951 532.47C554.221 523.95 556.021 514.07 556.021 502.7H556.001Z" fill="#8C8F97"/>
<path d="M560.999 502.7C560.999 490.8 559.069 480.01 555.449 470.53C551.839 461.06 546.539 452.91 539.849 446.33C533.749 440.28 526.439 435.47 518.379 431.8C515.339 430.4 512.189 429.17 508.919 428.08C507.809 427.71 506.679 427.35 505.539 427.02L504.819 426.81L504.099 427.03C502.989 427.37 501.899 427.74 500.809 428.13C491.709 431.32 483.439 435.84 476.389 441.86C468.489 448.59 462.129 457.19 457.829 467.72C453.779 477.67 451.539 489.25 451.539 502.72C451.539 516.2 453.789 527.44 457.759 537.23C458.149 538.18 458.569 539.09 458.979 540.01H464.529C463.769 538.5 463.049 536.96 462.389 535.35C458.669 526.18 456.539 515.65 456.529 502.72C456.529 489.79 458.669 478.89 462.449 469.6C466.449 459.79 472.309 451.9 479.619 445.66C486.749 439.58 495.289 435.09 504.849 432.05C508.839 433.26 512.669 434.69 516.289 436.36C523.899 439.83 530.699 444.32 536.319 449.9C542.479 455.97 547.379 463.48 550.759 472.33C554.129 481.18 555.979 491.36 555.979 502.72C555.979 514.09 554.189 523.97 550.909 532.49C549.889 535.13 548.719 537.63 547.419 540.02H553.049C553.959 538.17 554.809 536.26 555.569 534.28C559.089 525.12 560.969 514.61 560.969 502.72L560.999 502.7Z" fill="#7D818A"/>
<path d="M539.859 446.33L539.869 446.34L539.859 446.33Z" fill="#7D818A"/>
<path d="M457.719 468L457.839 467.71L457.719 468Z" fill="#7D818A"/>
<path d="M863.789 230.4C863.789 230.4 863.809 230.4 863.819 230.4C864.739 230.22 865.669 230.07 866.609 229.93C866.799 229.9 866.989 229.88 867.179 229.86C867.909 229.76 868.649 229.68 869.389 229.61C869.669 229.58 869.949 229.56 870.229 229.54C870.919 229.48 871.619 229.44 872.329 229.4C872.599 229.39 872.879 229.37 873.149 229.36C874.109 229.32 875.079 229.3 876.069 229.3C876.069 229.3 876.089 229.3 876.099 229.3C876.949 229.3 877.799 229.32 878.629 229.35C878.909 229.36 879.189 229.38 879.469 229.4C880.029 229.43 880.589 229.46 881.149 229.5C881.479 229.53 881.809 229.56 882.129 229.59C882.629 229.64 883.129 229.69 883.619 229.75C883.959 229.79 884.299 229.84 884.639 229.88C885.109 229.94 885.579 230.01 886.049 230.09C886.389 230.15 886.739 230.2 887.079 230.26C887.539 230.34 887.999 230.43 888.449 230.53C888.779 230.6 889.119 230.67 889.449 230.74C889.909 230.84 890.369 230.96 890.829 231.08C891.139 231.16 891.459 231.23 891.769 231.32C892.279 231.46 892.789 231.61 893.289 231.77C893.539 231.85 893.789 231.91 894.029 231.99C894.749 232.22 895.459 232.47 896.169 232.73C896.469 232.84 896.769 232.97 897.069 233.09C897.479 233.25 897.899 233.41 898.309 233.59C898.649 233.73 898.979 233.89 899.319 234.04C899.679 234.2 900.039 234.37 900.399 234.54C900.749 234.71 901.089 234.88 901.429 235.06C901.759 235.23 902.099 235.4 902.429 235.58C902.779 235.77 903.119 235.96 903.469 236.16C903.779 236.34 904.089 236.52 904.399 236.71C904.749 236.92 905.099 237.13 905.439 237.35C905.729 237.53 906.019 237.73 906.299 237.92C906.649 238.15 906.999 238.39 907.349 238.63C907.599 238.81 907.849 239 908.109 239.18C908.479 239.45 908.839 239.71 909.199 239.99C909.229 240.01 909.259 240.04 909.289 240.06C910.239 240.81 911.159 241.6 912.069 242.42C912.229 242.56 912.389 242.7 912.539 242.85C912.909 243.19 913.259 243.55 913.619 243.9C913.809 244.09 913.999 244.27 914.189 244.47C914.539 244.82 914.879 245.19 915.219 245.56C915.409 245.76 915.599 245.97 915.779 246.17C916.119 246.55 916.449 246.93 916.769 247.32C916.949 247.53 917.119 247.74 917.289 247.95C917.619 248.35 917.949 248.76 918.269 249.18C918.419 249.38 918.569 249.58 918.719 249.78C919.049 250.23 919.389 250.67 919.709 251.13C919.819 251.29 919.929 251.45 920.029 251.6C921.629 253.92 923.109 256.41 924.449 259.08C924.509 259.21 924.579 259.33 924.649 259.46C924.939 260.04 925.209 260.63 925.489 261.23C925.579 261.43 925.669 261.63 925.769 261.83C926.029 262.41 926.279 263 926.529 263.59C926.619 263.81 926.719 264.04 926.809 264.26C927.049 264.86 927.289 265.46 927.519 266.07C927.599 266.29 927.689 266.52 927.769 266.75C927.999 267.38 928.229 268.02 928.449 268.66C928.509 268.85 928.569 269.04 928.639 269.23C928.869 269.93 929.099 270.63 929.319 271.35H959.999V147.62C907.009 149.18 873.809 173.4 863.789 230.42V230.4Z" fill="#7D818A"/>
<path d="M873.951 271.33H860.581C860.581 256.12 861.691 242.54 863.831 230.4C863.821 230.4 863.81 230.4 863.8 230.4C843.21 234.42 828.68 249.75 819.48 283.31H932.151C931.421 279.07 930.471 275.08 929.331 271.33H873.961H873.951Z" fill="#7D818A"/>
<path d="M902.43 235.55C902.78 235.74 903.12 235.93 903.47 236.13C903.13 235.93 902.78 235.74 902.43 235.55Z" fill="#7D818A"/>
<path d="M912.539 242.82C912.909 243.16 913.259 243.52 913.619 243.87C913.259 243.52 912.899 243.16 912.539 242.82Z" fill="#7D818A"/>
<path d="M908.102 239.14C908.472 239.41 908.832 239.67 909.192 239.95C908.832 239.67 908.462 239.4 908.102 239.14Z" fill="#7D818A"/>
<path d="M900.398 234.51C900.748 234.68 901.088 234.85 901.428 235.03C901.088 234.86 900.738 234.68 900.398 234.51Z" fill="#7D818A"/>
<path d="M909.289 240.03C910.239 240.78 911.159 241.57 912.069 242.39C911.169 241.57 910.239 240.78 909.289 240.03Z" fill="#7D818A"/>
<path d="M867.191 229.86C867.921 229.76 868.661 229.68 869.401 229.61C868.651 229.68 867.921 229.77 867.191 229.86Z" fill="#7D818A"/>
<path d="M878.641 229.34C878.921 229.35 879.201 229.37 879.481 229.39C879.201 229.38 878.921 229.36 878.641 229.34Z" fill="#7D818A"/>
<path d="M883.641 229.73C883.981 229.77 884.321 229.82 884.661 229.86C884.321 229.81 883.981 229.77 883.641 229.73Z" fill="#7D818A"/>
<path d="M881.16 229.49C881.49 229.52 881.82 229.55 882.14 229.58C881.81 229.55 881.49 229.52 881.16 229.49Z" fill="#7D818A"/>
<path d="M870.238 229.53C870.928 229.47 871.628 229.43 872.338 229.39C871.638 229.43 870.938 229.47 870.238 229.53Z" fill="#7D818A"/>
<path d="M914.191 244.44C914.541 244.79 914.881 245.16 915.221 245.53C914.881 245.16 914.541 244.8 914.191 244.44Z" fill="#7D818A"/>
<path d="M898.32 233.56C898.66 233.7 898.99 233.86 899.33 234.01C899 233.86 898.66 233.71 898.32 233.56Z" fill="#7D818A"/>
<path d="M893.309 231.75C893.559 231.83 893.809 231.89 894.049 231.97C893.809 231.89 893.559 231.82 893.309 231.75Z" fill="#7D818A"/>
<path d="M886.07 230.07C886.41 230.13 886.76 230.18 887.1 230.24C886.76 230.18 886.42 230.12 886.07 230.07Z" fill="#7D818A"/>
<path d="M890.852 231.06C891.162 231.14 891.482 231.21 891.792 231.3C891.482 231.22 891.172 231.14 890.852 231.06Z" fill="#7D818A"/>
<path d="M863.828 230.4C864.748 230.22 865.678 230.07 866.618 229.93C865.678 230.06 864.748 230.22 863.828 230.4Z" fill="#7D818A"/>
<path d="M896.18 232.71C896.48 232.82 896.78 232.95 897.08 233.07C896.78 232.95 896.48 232.83 896.18 232.71Z" fill="#7D818A"/>
<path d="M920.039 251.57C921.639 253.89 923.119 256.38 924.459 259.05C923.119 256.38 921.639 253.88 920.039 251.57Z" fill="#7D818A"/>
<path d="M926.809 264.23C927.049 264.83 927.289 265.43 927.519 266.04C927.289 265.43 927.049 264.82 926.809 264.23Z" fill="#7D818A"/>
<path d="M876.098 229.29C876.098 229.29 876.078 229.29 876.068 229.29C875.088 229.29 874.118 229.31 873.148 229.35C874.108 229.31 875.078 229.29 876.058 229.29C876.058 229.29 876.078 229.29 876.088 229.29H876.098Z" fill="#7D818A"/>
<path d="M927.77 266.72C928 267.35 928.23 267.99 928.45 268.63C928.23 267.98 928 267.35 927.77 266.72Z" fill="#7D818A"/>
<path d="M915.781 246.14C916.121 246.52 916.451 246.9 916.771 247.29C916.441 246.9 916.111 246.52 915.781 246.14Z" fill="#7D818A"/>
<path d="M918.719 249.74C919.049 250.19 919.389 250.63 919.709 251.09C919.389 250.63 919.049 250.18 918.719 249.74Z" fill="#7D818A"/>
<path d="M924.648 259.44C924.938 260.02 925.208 260.61 925.488 261.21C925.218 260.61 924.938 260.02 924.648 259.44Z" fill="#7D818A"/>
<path d="M928.638 269.2C928.578 269.01 928.518 268.82 928.448 268.63C928.228 267.98 927.998 267.35 927.768 266.72C927.688 266.49 927.598 266.27 927.518 266.04C927.288 265.43 927.048 264.82 926.808 264.23C926.718 264 926.628 263.78 926.528 263.56C926.278 262.97 926.028 262.38 925.768 261.8C925.678 261.6 925.588 261.4 925.488 261.2C925.218 260.6 924.938 260.01 924.648 259.43C924.588 259.3 924.518 259.18 924.448 259.05C923.108 256.38 921.628 253.88 920.028 251.57C919.918 251.41 919.818 251.25 919.708 251.1C919.388 250.64 919.048 250.19 918.718 249.75C918.568 249.55 918.418 249.35 918.268 249.15C917.948 248.73 917.618 248.32 917.288 247.92C917.118 247.71 916.938 247.5 916.768 247.29C916.438 246.9 916.108 246.52 915.778 246.14C915.588 245.93 915.408 245.73 915.218 245.53C914.878 245.16 914.538 244.8 914.188 244.44C913.998 244.25 913.808 244.06 913.618 243.87C913.258 243.51 912.898 243.16 912.538 242.82C912.378 242.67 912.218 242.54 912.068 242.39C911.168 241.57 910.238 240.78 909.288 240.03C909.258 240.01 909.228 239.98 909.198 239.96C908.838 239.68 908.468 239.41 908.108 239.15C907.858 238.96 907.608 238.78 907.348 238.6C907.008 238.36 906.648 238.12 906.298 237.89C906.008 237.7 905.728 237.51 905.438 237.32C905.098 237.1 904.748 236.89 904.398 236.68C904.088 236.49 903.778 236.31 903.468 236.13C903.128 235.93 902.778 235.74 902.428 235.55C902.098 235.37 901.768 235.2 901.428 235.03C901.088 234.86 900.738 234.68 900.398 234.51C900.038 234.34 899.678 234.18 899.318 234.01C898.988 233.86 898.648 233.71 898.308 233.56C897.898 233.39 897.488 233.22 897.068 233.06C896.768 232.94 896.468 232.82 896.168 232.7C895.468 232.44 894.748 232.19 894.028 231.96C893.788 231.88 893.538 231.81 893.288 231.74C892.788 231.59 892.278 231.43 891.768 231.29C891.458 231.21 891.148 231.13 890.828 231.05C890.368 230.93 889.908 230.82 889.448 230.71C889.118 230.64 888.778 230.57 888.448 230.5C887.998 230.41 887.538 230.32 887.078 230.23C886.738 230.17 886.398 230.11 886.048 230.06C885.578 229.98 885.108 229.92 884.638 229.85C884.298 229.8 883.958 229.76 883.618 229.72C883.128 229.66 882.628 229.61 882.128 229.56C881.798 229.53 881.478 229.5 881.148 229.47C880.598 229.43 880.028 229.4 879.468 229.37C879.188 229.36 878.908 229.34 878.628 229.32C877.788 229.29 876.948 229.27 876.098 229.27C876.098 229.27 876.078 229.27 876.068 229.27C875.088 229.27 874.118 229.29 873.158 229.33C872.878 229.34 872.608 229.36 872.338 229.37C871.638 229.41 870.938 229.45 870.238 229.51C869.958 229.53 869.678 229.56 869.398 229.58C868.648 229.65 867.918 229.74 867.188 229.83C866.998 229.86 866.808 229.88 866.618 229.9C865.678 230.03 864.748 230.19 863.828 230.37C861.688 242.51 860.578 256.09 860.578 271.3H929.318C929.098 270.58 928.868 269.88 928.638 269.18V269.2Z" fill="#8C8F97"/>
<path d="M857.078 458.07H912.008V423.2H959.998V365.72L955.768 361.72L857.078 458.07Z" fill="#7D818A"/>
<path d="M912.012 458.07V423.2V458.07V540H960.002V458.07H912.012Z" fill="#7D818A"/>
<path d="M960.002 423.2H912.012V458.07H960.002V423.2Z" fill="#8C8F97"/>
<path d="M791.279 458.96L880.999 315.9L876.319 316.04C876.319 316.04 875.389 316.07 873.729 316.12C867.899 316.29 853.009 316.72 837.219 317.1C821.439 317.48 804.739 317.82 795.339 317.82C793.039 317.82 791.179 317.8 789.899 317.76C789.469 317.75 789.109 317.73 788.829 317.71L787.029 315.86L731.859 418.36L733.279 421L734.699 423.64L789.019 322.73C790.429 322.8 792.579 322.83 795.339 322.83C806.199 322.83 826.459 322.38 844.029 321.94C855.629 321.65 866.039 321.35 871.789 321.19L785.439 458.89L833.089 540.01H838.889L791.289 458.97L791.279 458.96Z" fill="#7D818A"/>
<path d="M733.28 421L731.859 418.36L724.539 404.76C723.439 405.89 635.77 403.26 635.77 403.26L721.52 540H753.59L712.06 460.42L733.28 421Z" fill="#7D818A"/>
<path d="M717.719 460.46L759.229 540H791.659L733.279 431.55L717.719 460.46Z" fill="#8C8F97"/>
<path d="M733.279 421L712.059 460.42L753.589 540H759.229L717.719 460.46L733.279 431.55L791.659 540H797.339L734.699 423.64L733.279 421Z" fill="#7D818A"/>
<path d="M546.559 243.79C530.569 275.73 516.729 318.49 510.039 369.21L695.699 368.37C702.449 328.21 714.589 284.28 732.319 242.95L546.559 243.79Z" fill="#8C8F97"/>
<path d="M700.268 371.27C707.068 329.81 719.718 284.05 738.398 241.44L739.938 237.92L544.298 238.81L543.698 239.19L543.678 239.21L543.088 239.58L542.778 240.2C525.918 273.44 511.418 318.19 504.718 371.41L504.578 372.51L506.078 374.25L699.938 373.37L700.278 371.28L700.268 371.27ZM695.698 368.37L510.038 369.21C516.728 318.48 530.568 275.72 546.558 243.79L732.318 242.95C714.588 284.28 702.448 328.21 695.698 368.37Z" fill="#7D818A"/>
</g>
<defs>
<clipPath id="clip0_287_60589">
<rect width="960" height="540" fill="white"/>
</clipPath>
</defs>
</svg>
