<svg width="960" height="540" viewBox="0 0 960 540" fill="none" xmlns="http://www.w3.org/2000/svg">
<g clip-path="url(#clip0_287_60676)">
<path d="M872.361 306.97C866.611 307.13 856.221 307.42 844.661 307.71C827.091 308.15 806.831 308.58 795.981 308.58C793.201 308.58 791.051 308.55 789.641 308.48L736.781 404.45L803.581 525.74L795.971 540H845.281L786.061 441.47L872.371 306.98L872.361 306.97Z" fill="#C97CF4"/>
<path d="M257.55 347.36L231.43 407.71L280.69 407.6L288.99 434.23L323.3 347.36H257.55Z" fill="#C97CF4"/>
<path d="M95.8305 0H46.0505L34.4805 83.11L95.8305 0Z" fill="#C97CF4"/>
<path d="M174.172 540H213.842L197.262 486.66L174.172 540Z" fill="#C97CF4"/>
<path d="M256.4 162.67L311.46 89.8003L266.44 24.3403L178.68 49.6803L256.4 162.67Z" fill="#C97CF4"/>
<path d="M929.94 258.21C931.08 261.88 932.03 265.78 932.76 269.92H820.1C829.3 237.14 843.83 222.15 864.41 218.22C874.39 162.72 907.36 139.02 959.99 137.33V88.46C953.8 91.48 947.22 93.95 940.32 95.87C927.15 99.58 913.52 101.34 898 101.34C882.48 101.34 867.6 99.58 853.96 95.78C825.27 87.8 802.39 70.93 790.82 43.2C785.74 30.96 782.8 16.93 782.67 0.01H719.54L777.33 185.33H674.49L640.99 77.92L637.29 87.29H556.69L594.48 0H518.38L501.11 124H501.47H519.61H578.6L436.49 316.51L454.11 190.02H376.62L516.88 0H418.72L331.97 114.79L331.74 114.88L316.03 92.04L258 168.83L255.26 169.85L171.84 48.56L172.58 47.21L172.71 46.97L173.21 46.05L263.45 19.99L265.98 19.25L252.73 0H102.04L26.81 101.92L41.01 0H0V144.65H102.83V89.73L196.98 188.41L102.83 290.31V235.39H0V338.81H108.54V540H168.73L196.51 475.82L176.02 410.1H224.96L254.28 342.36H330.67L289.92 445.53L319.38 539.99H403.69C402.11 538.75 400.58 537.44 399.12 536.06C386.42 523.94 378.79 507.42 378.79 484.08C378.79 460.74 386.7 443.09 399.75 430.74C405.47 425.29 412.31 420.89 419.94 417.41C434.13 410.89 451.56 407.79 469.63 407.79C480.93 407.79 491.62 408.97 501.43 411.38C502.55 410.99 503.68 410.62 504.83 410.27L505.54 410.06L506.25 410.26C507.42 410.6 508.58 410.96 509.73 411.33C519.2 408.92 529.39 407.78 540.11 407.78C550.83 407.78 561.68 409.08 571.43 411.83C592.33 417.66 609.39 430.15 618.02 450.81C621.94 460.21 624.19 471.4 624.19 484.09C624.19 496.78 621.93 507.63 618.08 516.89C614.18 526.19 608.55 533.84 601.63 539.98H715.04L724.48 524.27L636.46 387.1C636.46 387.1 724.12 389.67 725.22 388.57L732.53 401.84L733.96 399.25L787.71 301.66L789.49 303.44C789.77 303.46 790.13 303.48 790.57 303.49C791.84 303.53 793.71 303.55 796.01 303.55C805.41 303.55 822.1 303.22 837.88 302.84C853.66 302.47 868.55 302.05 874.38 301.88C876.05 301.83 876.97 301.81 876.97 301.81L881.71 301.67L791.97 441.52L851.14 539.97H912.66V440.65H857.74L956.42 346.5L960.03 349.83V258.17H929.97L929.94 258.21ZM360.74 349.33L359.71 346.59C353.84 331.04 343.7 317.76 330.41 308.19C316.84 298.42 300.89 293.26 284.3 293.26C267.71 293.26 251.77 298.42 238.19 308.19C224.9 317.76 214.76 331.03 208.89 346.59L207.86 349.33H149.24L150.43 344.15C157.46 313.58 174.48 285.86 198.35 266.1C210.29 256.22 223.61 248.52 237.95 243.22C252.8 237.73 268.39 234.95 284.3 234.95C300.21 234.95 315.81 237.73 330.65 243.22C344.99 248.52 358.32 256.22 370.26 266.1C394.13 285.86 411.14 313.58 418.18 344.15L419.37 349.33H360.75H360.74ZM739.04 229.04C720.36 270.67 707.72 315.37 700.92 355.88L700.57 357.96L506.75 358.82L505.24 357.08L505.38 355.97C512.08 303.96 526.58 260.22 543.45 227.73L543.77 227.11L544.36 226.75L544.38 226.73L544.97 226.37L740.61 225.5L739.02 229.04H739.04Z" fill="#C97CF4"/>
<path d="M454.109 190.02L463.299 124H463.659H501.099L518.369 0H516.879L376.609 190.02H454.109Z" fill="#BF63F3"/>
<path d="M491.908 190.02H454.468L463.658 124H463.298L454.108 190.02L436.488 316.5L578.598 124H519.608H501.468L492.268 190.02H491.908Z" fill="#BF63F3"/>
<path d="M463.659 124L454.469 190.02H491.909H492.269L501.469 124H501.099H463.659Z" fill="#BF63F3"/>
<path d="M637.299 87.28L640.999 77.91L616.509 0H594.479L556.699 87.28H637.299Z" fill="#BF63F3"/>
<path d="M641 77.91L674.5 185.32H777.34L719.55 0H671.52L641 77.91Z" fill="#BF63F3"/>
<path d="M641.002 77.91L671.522 0H616.512L641.002 77.91Z" fill="#C97CF4"/>
<path d="M194.989 479.39L196.519 475.87L196.499 475.82L168.719 540H174.169L197.259 486.66L194.989 479.39Z" fill="#BF63F3"/>
<path d="M226.041 407.73L231.431 407.71L257.551 347.36H323.301L288.991 434.23L290.891 440.31L291.151 441.15L289.691 444.87L289.901 445.54L330.651 342.36H254.261L224.941 410.1H225.011L226.041 407.73Z" fill="#BF63F3"/>
<path d="M289.69 444.87L252.43 540H319.35L289.9 445.54L289.69 444.87Z" fill="#BF63F3"/>
<path d="M225.012 410.1H224.942H176.012L196.502 475.82L196.522 475.87L225.012 410.1Z" fill="#BF63F3"/>
<path d="M285.85 440.96L277.01 412.61L229.33 412.72L200.32 479.67L219.08 540H247.06L285.85 440.96Z" fill="#C97CF4"/>
<path d="M289.688 444.87L291.148 441.15L290.888 440.31L288.988 434.23L280.688 407.6L231.428 407.71L226.038 407.73L225.008 410.1L196.518 475.87L194.988 479.39L197.258 486.66L213.838 540H219.078L200.318 479.67L229.328 412.72L277.008 412.61L285.848 440.96L247.058 540H252.428L289.688 444.87Z" fill="#BF63F3"/>
<path d="M314.44 94.13L311.46 89.8L256.4 162.67L178.68 49.68L266.44 24.34L265.41 22.85L263.45 20L173.21 46.06L172.71 46.97L172.58 47.21L171.84 48.56L255.26 169.85L258.01 168.83L316.04 92.04L316.03 92.03L314.44 94.13Z" fill="#BF63F3"/>
<path d="M332.68 0H252.73L265.97 19.26L332.68 0Z" fill="#BF63F3"/>
<path d="M316.041 92.04L331.741 114.88L331.981 114.79L418.721 0H385.571L316.031 92.03L316.041 92.04Z" fill="#BF63F3"/>
<path d="M314.628 85.59L379.308 0H350.698L271.488 22.87L314.628 85.59Z" fill="#C97CF4"/>
<path d="M263.441 19.99L263.451 20L265.411 22.85L266.441 24.34L311.461 89.8L314.441 94.13L316.031 92.03L385.571 0H379.311L314.631 85.59L271.491 22.87L350.701 0H332.681L265.971 19.26L263.441 19.99Z" fill="#BF63F3"/>
<path d="M370.25 266.1C358.31 256.22 344.99 248.52 330.64 243.22C315.79 237.73 300.2 234.95 284.29 234.95C268.38 234.95 252.78 237.73 237.94 243.22C223.6 248.52 210.27 256.22 198.34 266.1C174.47 285.86 157.46 313.58 150.42 344.15L149.23 349.33H207.85L208.88 346.59C214.76 331.04 224.89 317.76 238.18 308.19C251.75 298.42 267.7 293.26 284.29 293.26C300.88 293.26 316.82 298.42 330.4 308.19C343.69 317.76 353.83 331.03 359.7 346.59L360.73 349.33H419.35L418.16 344.15C411.13 313.58 394.11 285.86 370.24 266.1H370.25Z" fill="#BF63F3"/>
<path d="M136.908 235.39H102.828V290.31L196.978 188.41L102.828 89.7305V144.65H136.908V235.39Z" fill="#BF63F3"/>
<path d="M102.83 144.65H0V235.39H102.83V144.65Z" fill="#BF63F3"/>
<path d="M136.898 144.65H102.828V235.39H136.898V144.65Z" fill="#C97CF4"/>
<path d="M102.039 0H95.8286L34.4786 83.11L46.0486 0H41.0086L26.8086 101.92L102.039 0Z" fill="#BF63F3"/>
<path d="M103.54 343.81H0V437.65H28.45V540H103.54V343.81Z" fill="#C97CF4"/>
<path d="M0 338.81V343.81H103.54V540H108.54V338.81H0Z" fill="#BF63F3"/>
<path d="M28.45 437.65H0V540H28.45V437.65Z" fill="#BF63F3"/>
<path d="M853.97 95.77C867.6 99.57 882.49 101.33 898.01 101.33C913.53 101.33 927.16 99.57 940.33 95.86C947.23 93.94 953.82 91.48 960 88.45V35.44C958.38 37.62 956.59 39.65 954.66 41.53C949.76 46.3 943.87 50.07 937.24 52.98C925.94 57.93 912.43 60.35 897.67 60.35V60.29C882.61 60.29 868.71 57.81 857.06 52.61C850.61 49.76 844.9 46.11 840.05 41.53C829.84 31.8 823.66 18.57 823.46 0H782.68C782.81 16.92 785.75 30.94 790.83 43.19C802.4 70.92 825.28 87.79 853.97 95.77Z" fill="#BF63F3"/>
<path d="M857.061 52.62C868.711 57.82 882.611 60.3 897.671 60.3V60.36C912.431 60.36 925.931 57.94 937.241 52.99C943.871 50.08 949.761 46.3 954.661 41.54C956.601 39.66 958.381 37.63 960.001 35.45V0H938.471C938.321 5.55 937.251 10.43 935.501 14.65C933.361 19.76 930.151 23.91 926.191 27.11C922.241 30.31 917.561 32.56 912.481 33.97C907.761 35.3 902.891 35.92 897.431 35.92C891.981 35.92 886.721 35.3 881.831 33.94C876.691 32.51 872.001 30.26 868.041 27.07C864.081 23.88 860.881 19.73 858.761 14.65C857.011 10.42 855.981 5.6 855.841 0H823.461C823.661 18.57 829.841 31.8 840.051 41.54C844.901 46.12 850.611 49.77 857.061 52.62Z" fill="#C97CF4"/>
<path d="M871.178 23.18C874.518 25.88 878.578 27.85 883.168 29.12C887.538 30.34 892.358 30.92 897.428 30.92C902.518 30.92 906.878 30.35 911.128 29.16C915.658 27.9 919.688 25.93 923.038 23.22C926.378 20.51 929.048 17.07 930.878 12.73C932.368 9.12 933.308 4.93 933.458 0H860.828C860.968 5.01 861.878 9.12 863.368 12.73C865.178 17.06 867.828 20.48 871.168 23.18H871.178Z" fill="#C97CF4"/>
<path d="M858.762 14.6502C860.882 19.7302 864.082 23.8702 868.042 27.0702C872.002 30.2602 876.692 32.5102 881.832 33.9402C886.722 35.3002 891.982 35.9202 897.432 35.9202C902.902 35.9202 907.762 35.3002 912.482 33.9702C917.562 32.5602 922.232 30.3102 926.192 27.1102C930.152 23.9102 933.362 19.7602 935.502 14.6602C937.252 10.4302 938.312 5.55023 938.472 0.000234375H933.472C933.322 4.92023 932.382 9.12023 930.892 12.7302C929.062 17.0702 926.392 20.5102 923.052 23.2202C919.712 25.9302 915.672 27.8902 911.142 29.1502C906.892 30.3402 902.532 30.9102 897.442 30.9102C892.372 30.9102 887.552 30.3302 883.182 29.1102C878.582 27.8302 874.532 25.8602 871.192 23.1702C867.852 20.4702 865.202 17.0502 863.392 12.7202C861.902 9.11023 860.992 5.00023 860.852 -0.00976562H855.852C855.992 5.59023 857.022 10.4102 858.772 14.6402L858.762 14.6502Z" fill="#BF63F3"/>
<path d="M618.049 516.91C621.899 507.65 624.159 496.8 624.159 484.11C624.159 471.42 621.899 460.23 617.989 450.83C609.359 430.17 592.309 417.68 571.399 411.85C561.639 409.11 551.029 407.8 540.079 407.8C529.129 407.8 519.169 408.94 509.699 411.35C512.929 412.4 516.049 413.6 519.049 414.95C527.109 418.54 534.419 423.23 540.519 429.15C547.209 435.58 552.509 443.55 556.129 452.82C559.749 462.09 561.679 472.65 561.679 484.29C561.679 495.92 559.799 506.21 556.279 515.17C552.759 524.13 547.589 531.76 541.089 538.06C540.399 538.73 539.699 539.37 538.979 540.01H601.609C608.529 533.87 614.159 526.22 618.059 516.92L618.049 516.91Z" fill="#BF63F3"/>
<path d="M458.46 518.06C454.48 508.47 452.23 497.48 452.23 484.29C452.23 471.11 454.47 459.78 458.53 450.05C462.83 439.75 469.2 431.34 477.1 424.76C484.13 418.9 492.36 414.5 501.41 411.38C491.6 408.97 480.91 407.79 469.61 407.79C451.54 407.79 434.11 410.9 419.92 417.41C412.3 420.9 405.45 425.29 399.73 430.74C386.67 443.09 378.77 460.74 378.77 484.08C378.77 507.42 386.39 523.93 399.1 536.06C400.56 537.44 402.08 538.75 403.67 539.99H473.33C467.13 533.98 462.06 526.69 458.46 518.05V518.06Z" fill="#BF63F3"/>
<path d="M537.598 534.47C543.598 528.64 548.338 521.65 551.608 513.34C554.878 505.03 556.668 495.39 556.668 484.29C556.668 473.2 554.828 463.27 551.458 454.64C548.088 446.01 543.188 438.67 537.038 432.76C531.428 427.31 524.618 422.91 517.008 419.53C513.388 417.9 509.558 416.5 505.548 415.31C495.978 418.29 487.428 422.68 480.298 428.62C472.988 434.71 467.148 442.42 463.148 451.99C459.378 461.06 457.238 471.69 457.238 484.31C457.238 496.93 459.368 507.21 463.088 516.15C467.008 525.53 472.698 533.11 479.798 539.14C480.148 539.44 480.518 539.71 480.878 540H531.028C533.358 538.29 535.558 536.45 537.608 534.47H537.598Z" fill="#C97CF4"/>
<path d="M541.081 538.05C547.571 531.75 552.741 524.12 556.271 515.16C559.791 506.2 561.681 495.91 561.671 484.28C561.671 472.64 559.741 462.08 556.121 452.81C552.501 443.54 547.201 435.57 540.511 429.14C534.411 423.23 527.101 418.53 519.041 414.94C516.041 413.59 512.921 412.39 509.691 411.34C508.541 410.96 507.381 410.61 506.211 410.27L505.501 410.07L504.791 410.28C503.641 410.63 502.521 411 501.391 411.39C492.341 414.5 484.111 418.91 477.081 424.77C469.181 431.35 462.811 439.75 458.511 450.06C454.461 459.8 452.211 471.12 452.211 484.3C452.211 497.48 454.461 508.48 458.441 518.06C462.041 526.7 467.111 533.99 473.311 540H480.851C480.491 539.71 480.121 539.43 479.771 539.14C472.661 533.11 466.971 525.53 463.061 516.15C459.351 507.2 457.211 496.93 457.211 484.31C457.211 471.69 459.351 461.06 463.121 451.99C467.121 442.42 472.971 434.71 480.271 428.62C487.401 422.68 495.951 418.29 505.521 415.31C509.521 416.5 513.351 417.9 516.981 419.52C524.591 422.91 531.391 427.3 537.011 432.75C543.161 438.68 548.061 446.01 551.431 454.64C554.801 463.27 556.641 473.2 556.641 484.29C556.641 495.39 554.851 505.03 551.581 513.34C548.311 521.65 543.561 528.65 537.571 534.47C535.531 536.46 533.331 538.3 530.991 540.01H538.941C539.651 539.37 540.361 538.73 541.051 538.06L541.081 538.05Z" fill="#BF63F3"/>
<path d="M540.512 429.14V429.15H540.522L540.512 429.14Z" fill="#BF63F3"/>
<path d="M864.422 218.22C864.422 218.22 864.442 218.22 864.452 218.22C865.372 218.05 866.302 217.9 867.242 217.77C867.432 217.74 867.622 217.72 867.812 217.7C868.542 217.61 869.272 217.52 870.022 217.45C870.302 217.42 870.582 217.4 870.872 217.38C871.562 217.32 872.262 217.28 872.962 217.24C873.232 217.23 873.512 217.21 873.782 217.2C874.742 217.16 875.712 217.14 876.692 217.14C877.552 217.14 878.402 217.16 879.252 217.19C879.532 217.2 879.812 217.22 880.092 217.23C880.652 217.26 881.222 217.29 881.772 217.33C882.102 217.35 882.422 217.39 882.752 217.42C883.252 217.47 883.752 217.51 884.252 217.57C884.592 217.61 884.932 217.65 885.272 217.7C885.742 217.76 886.222 217.83 886.682 217.91C887.022 217.96 887.362 218.02 887.702 218.08C888.162 218.16 888.622 218.25 889.082 218.34C889.412 218.41 889.752 218.47 890.082 218.55C890.542 218.65 891.002 218.76 891.462 218.88C891.772 218.96 892.092 219.03 892.402 219.11C892.912 219.25 893.422 219.4 893.922 219.55C894.162 219.62 894.412 219.69 894.662 219.77C895.382 220 896.092 220.24 896.802 220.49C897.102 220.6 897.402 220.72 897.702 220.84C898.122 221 898.532 221.16 898.942 221.33C899.282 221.47 899.612 221.62 899.952 221.77C900.312 221.93 900.672 222.09 901.032 222.26C901.382 222.42 901.722 222.59 902.062 222.76C902.392 222.93 902.732 223.09 903.052 223.27C903.402 223.45 903.752 223.64 904.092 223.84C904.402 224.01 904.712 224.19 905.022 224.37C905.372 224.58 905.722 224.78 906.062 225C906.352 225.18 906.632 225.37 906.922 225.55C907.272 225.78 907.622 226.01 907.972 226.25C908.222 226.42 908.472 226.61 908.722 226.79C909.092 227.05 909.462 227.32 909.822 227.59C909.842 227.6 909.852 227.62 909.872 227.63C910.842 228.37 911.782 229.16 912.692 229.97C912.842 230.11 913.002 230.24 913.152 230.38C913.522 230.72 913.882 231.06 914.242 231.41C914.432 231.59 914.622 231.77 914.812 231.96C915.162 232.31 915.502 232.67 915.842 233.03C916.032 233.23 916.212 233.43 916.402 233.63C916.742 234 917.072 234.37 917.392 234.75C917.572 234.95 917.742 235.16 917.912 235.37C918.242 235.76 918.572 236.16 918.892 236.57C919.042 236.76 919.192 236.96 919.352 237.16C919.682 237.59 920.012 238.03 920.342 238.48C920.452 238.63 920.562 238.79 920.672 238.95C922.272 241.21 923.742 243.65 925.092 246.26C925.152 246.39 925.222 246.51 925.292 246.64C925.582 247.2 925.852 247.78 926.132 248.36C926.222 248.56 926.322 248.75 926.412 248.95C926.672 249.52 926.922 250.09 927.172 250.67C927.262 250.89 927.362 251.11 927.452 251.33C927.692 251.91 927.932 252.5 928.162 253.1C928.242 253.32 928.332 253.54 928.412 253.76C928.642 254.38 928.872 255 929.092 255.63C929.152 255.81 929.222 256 929.282 256.19C929.512 256.87 929.742 257.56 929.962 258.26H960.022V137.38C907.402 139.07 874.422 162.78 864.442 218.27L864.422 218.22Z" fill="#BF63F3"/>
<path d="M874.579 258.21H861.209C861.209 243.35 862.319 230.08 864.449 218.22C864.439 218.22 864.429 218.22 864.419 218.22C843.829 222.15 829.299 237.13 820.109 269.92H932.769C932.039 265.78 931.089 261.88 929.949 258.21H874.579Z" fill="#BF63F3"/>
<path d="M867.82 217.68C868.55 217.59 869.28 217.5 870.03 217.43C869.29 217.5 868.55 217.58 867.82 217.68Z" fill="#BF63F3"/>
<path d="M901.031 222.23C901.381 222.39 901.721 222.56 902.061 222.73C901.721 222.56 901.371 222.39 901.031 222.23Z" fill="#BF63F3"/>
<path d="M903.059 223.24C903.409 223.42 903.759 223.61 904.099 223.81C903.759 223.62 903.409 223.43 903.059 223.24Z" fill="#BF63F3"/>
<path d="M898.949 221.311C899.289 221.451 899.619 221.601 899.959 221.751C899.629 221.601 899.289 221.451 898.949 221.311Z" fill="#BF63F3"/>
<path d="M889.102 218.33C889.432 218.4 889.772 218.46 890.102 218.54C889.772 218.47 889.442 218.4 889.102 218.33Z" fill="#BF63F3"/>
<path d="M891.48 218.86C891.79 218.94 892.11 219.01 892.42 219.09C892.11 219.01 891.8 218.93 891.48 218.86Z" fill="#BF63F3"/>
<path d="M879.27 217.18C879.55 217.19 879.829 217.21 880.109 217.22C879.829 217.21 879.56 217.19 879.27 217.18Z" fill="#BF63F3"/>
<path d="M881.789 217.32C882.119 217.34 882.439 217.38 882.769 217.41C882.439 217.38 882.119 217.35 881.789 217.32Z" fill="#BF63F3"/>
<path d="M908.719 226.75C909.089 227.01 909.459 227.28 909.819 227.55C909.459 227.27 909.089 227.01 908.719 226.75Z" fill="#BF63F3"/>
<path d="M905.02 224.34C905.37 224.55 905.72 224.75 906.06 224.97C905.72 224.76 905.37 224.55 905.02 224.34Z" fill="#BF63F3"/>
<path d="M925.281 246.59C925.571 247.16 925.841 247.73 926.121 248.31C925.851 247.73 925.571 247.15 925.281 246.59Z" fill="#BF63F3"/>
<path d="M920.66 238.9C922.26 241.16 923.73 243.6 925.08 246.21C923.74 243.6 922.26 241.17 920.66 238.9Z" fill="#BF63F3"/>
<path d="M929.262 256.13C929.492 256.81 929.722 257.5 929.942 258.2C929.722 257.5 929.492 256.82 929.262 256.13Z" fill="#BF63F3"/>
<path d="M919.352 237.12C919.682 237.55 920.012 237.99 920.342 238.44C920.022 237.99 919.692 237.56 919.352 237.12Z" fill="#BF63F3"/>
<path d="M893.941 219.53C894.181 219.6 894.431 219.67 894.681 219.75C894.441 219.67 894.191 219.61 893.941 219.53Z" fill="#BF63F3"/>
<path d="M909.871 227.59C910.841 228.33 911.781 229.11 912.691 229.93C911.771 229.11 910.831 228.33 909.871 227.59Z" fill="#BF63F3"/>
<path d="M916.398 233.59C916.738 233.96 917.068 234.33 917.388 234.71C917.058 234.33 916.728 233.96 916.398 233.59Z" fill="#BF63F3"/>
<path d="M913.16 230.35C913.53 230.69 913.89 231.03 914.25 231.38C913.89 231.03 913.53 230.68 913.16 230.35Z" fill="#BF63F3"/>
<path d="M929.261 256.13C929.201 255.94 929.141 255.76 929.071 255.57C928.851 254.94 928.621 254.32 928.391 253.7C928.311 253.48 928.221 253.26 928.141 253.04C927.911 252.44 927.671 251.85 927.431 251.27C927.341 251.05 927.241 250.83 927.151 250.61C926.901 250.03 926.651 249.46 926.391 248.89C926.301 248.69 926.211 248.5 926.111 248.3C925.841 247.72 925.561 247.14 925.271 246.58C925.211 246.45 925.141 246.33 925.071 246.2C923.731 243.59 922.251 241.16 920.651 238.89C920.541 238.73 920.431 238.57 920.321 238.42C920.001 237.97 919.671 237.54 919.331 237.1C919.181 236.9 919.031 236.7 918.871 236.51C918.551 236.1 918.221 235.7 917.891 235.31C917.721 235.1 917.541 234.9 917.371 234.69C917.041 234.31 916.711 233.94 916.381 233.57C916.201 233.37 916.011 233.17 915.821 232.97C915.481 232.61 915.141 232.25 914.791 231.9C914.601 231.71 914.411 231.53 914.221 231.35C913.861 231 913.501 230.65 913.131 230.32C912.981 230.18 912.821 230.05 912.671 229.91C911.751 229.09 910.811 228.31 909.851 227.57C909.831 227.56 909.821 227.54 909.801 227.53C909.441 227.25 909.071 226.99 908.701 226.73C908.451 226.55 908.201 226.37 907.951 226.19C907.601 225.95 907.251 225.72 906.901 225.49C906.611 225.3 906.331 225.12 906.041 224.94C905.701 224.73 905.351 224.52 905.001 224.31C904.691 224.13 904.381 223.95 904.071 223.78C903.731 223.59 903.381 223.4 903.031 223.21C902.701 223.04 902.371 222.87 902.041 222.7C901.701 222.53 901.351 222.36 901.011 222.2C900.651 222.03 900.291 221.87 899.931 221.71C899.601 221.56 899.261 221.41 898.921 221.27C898.511 221.1 898.091 220.94 897.681 220.78C897.381 220.66 897.081 220.54 896.781 220.43C896.081 220.17 895.361 219.93 894.641 219.71C894.401 219.63 894.151 219.57 893.901 219.49C893.391 219.34 892.891 219.19 892.381 219.05C892.071 218.97 891.761 218.89 891.441 218.82C890.981 218.71 890.521 218.59 890.061 218.49C889.731 218.42 889.401 218.35 889.061 218.28C888.601 218.19 888.151 218.1 887.681 218.02C887.341 217.96 887.001 217.9 886.661 217.85C886.191 217.78 885.721 217.71 885.251 217.64C884.911 217.59 884.571 217.55 884.231 217.51C883.731 217.45 883.231 217.4 882.731 217.36C882.401 217.33 882.081 217.3 881.751 217.27C881.191 217.23 880.631 217.2 880.071 217.17C879.791 217.16 879.521 217.14 879.231 217.13C878.381 217.1 877.531 217.08 876.671 217.08C875.691 217.08 874.721 217.1 873.761 217.14C873.481 217.15 873.211 217.17 872.941 217.18C872.241 217.22 871.541 217.26 870.851 217.32C870.571 217.34 870.291 217.37 870.001 217.39C869.261 217.46 868.521 217.54 867.791 217.64C867.601 217.66 867.411 217.69 867.221 217.71C866.281 217.84 865.351 217.99 864.431 218.16C862.291 230.02 861.191 243.29 861.191 258.15H929.921C929.701 257.45 929.471 256.77 929.241 256.08L929.261 256.13Z" fill="#C97CF4"/>
<path d="M857.719 440.68H912.629V406.61H959.999V349.87L956.389 346.53L857.719 440.68Z" fill="#BF63F3"/>
<path d="M912.629 440.68V540H959.999V440.68H912.629Z" fill="#BF63F3"/>
<path d="M959.999 406.61H912.629V440.68H959.999V406.61Z" fill="#C97CF4"/>
<path d="M881.691 301.7L876.951 301.84C876.951 301.84 876.021 301.87 874.361 301.91C868.531 302.08 853.641 302.49 837.861 302.87C822.081 303.24 805.391 303.58 795.991 303.58C793.691 303.58 791.831 303.56 790.551 303.52C790.111 303.51 789.751 303.49 789.471 303.47L787.691 301.69L733.941 399.28L736.791 404.46L789.651 308.49C791.061 308.56 793.211 308.58 795.991 308.59C806.851 308.59 827.101 308.15 844.671 307.72C856.231 307.43 866.611 307.15 872.371 306.98L786.061 441.47L845.281 540H851.111L791.941 441.55L881.681 301.7H881.691Z" fill="#BF63F3"/>
<path d="M709.87 442.96L731.74 403.25L732.5 401.87L725.19 388.6C724.09 389.7 636.43 387.13 636.43 387.13L724.45 524.3L715.01 540.01H761.69L709.87 442.97V442.96Z" fill="#BF63F3"/>
<path d="M797.899 525.78L733.929 409.64L715.559 442.99L767.359 540H790.309L797.899 525.78Z" fill="#C97CF4"/>
<path d="M736.791 404.451L733.931 399.271L732.501 401.861L731.741 403.251L709.871 442.961L761.691 540.001H767.361L715.561 442.991L733.931 409.641L797.901 525.781L790.311 540.001H795.971H795.981L803.591 525.741L736.791 404.451Z" fill="#BF63F3"/>
<path d="M547.22 231.36C531.24 262.54 517.42 304.29 510.73 353.8L696.36 352.97C703.11 313.76 715.23 270.88 732.93 230.53L547.22 231.35V231.36Z" fill="#C97CF4"/>
<path d="M544.402 226.73L544.382 226.75L543.792 227.11L543.472 227.73C526.612 260.22 512.112 303.96 505.402 355.97L505.262 357.08L506.772 358.82L700.592 357.96L700.942 355.88C707.742 315.37 720.382 270.67 739.062 229.04L740.652 225.5L545.012 226.37L544.422 226.73H544.402ZM696.362 352.97L510.732 353.8C517.422 304.28 531.242 262.54 547.222 231.36L732.932 230.54C715.232 270.89 703.112 313.77 696.362 352.98V352.97Z" fill="#BF63F3"/>
</g>
<defs>
<clipPath id="clip0_287_60676">
<rect width="960" height="540" fill="white"/>
</clipPath>
</defs>
</svg>
