<svg width="96" height="96" viewBox="0 0 96 96" fill="none" xmlns="http://www.w3.org/2000/svg">
<path d="M79.85 47.0571H31.14V70.8571H79.85V47.0571Z" fill="#BF63F3"/>
<path d="M64.71 32.2773H16V56.0773H64.71V32.2773Z" fill="#FCA700"/>
<path d="M64.71 47.0571H31.14V56.0771H64.71V47.0571Z" fill="#AE2A19"/>
<path fill-rule="evenodd" clip-rule="evenodd" d="M76.82 55.6574L66.33 66.1474L60.91 60.5774L63.25 58.3074L66.37 61.5074L74.52 53.3574L76.83 55.6674L76.82 55.6574Z" fill="white"/>
<path d="M20.01 36.4571C19.54 36.1271 19.11 36.2771 18.99 36.5471C18.85 36.8371 18.87 37.1671 19.12 37.4671C19.88 38.3771 20.51 39.6271 21.51 41.2471C22.16 42.1971 22.57 42.6171 22.96 43.0871C23.35 43.5371 23.68 43.9171 24.16 44.5171C24.39 44.7771 24.56 44.9971 24.93 45.3371C25.33 45.7271 25.83 46.0571 26.34 46.3871L26.44 46.4471C26.44 46.4471 26.49 46.4071 26.52 46.3971L26.68 46.2471L27 45.9371C27.22 45.7271 27.43 45.4671 27.65 45.2271C27.92 44.9471 28.19 44.6671 28.45 44.3871C29.47 43.3471 30.36 42.4371 30.7 42.0871C30.8 41.9871 30.9 41.8771 30.99 41.7571C31.64 40.9371 34.48 37.3371 37.1 34.3771C38.9 32.2571 40.02 30.9371 40.6 30.2471C41.97 28.6171 42.92 27.3371 43.77 26.0071C44.24 25.2771 43.5 24.6471 42.85 25.2271C41.68 26.2771 40.56 27.4171 39.17 29.0271C38.63 29.6571 37.31 30.7971 35.7 32.6171C35.44 32.9171 35.19 33.2271 34.97 33.5571C33.05 36.3771 30.12 39.6671 30.12 39.6671C30.12 39.6671 29.05 40.9171 27.76 42.4271C27.26 43.0071 26.73 43.6371 26.23 44.2271C26.19 44.2771 26.12 44.1771 26.07 44.1571C26.02 44.1171 25.98 44.0871 25.9 43.9971C25.62 43.7271 25.38 43.4371 25.18 43.1771C24.57 42.4071 24.15 41.7571 23.81 41.2671C23.44 40.7571 23.27 40.4971 23.1 40.2171C22.11 38.6671 21.29 37.3571 20.02 36.4271L20.01 36.4571Z" fill="#101214"/>
</svg>
