<svg width="961" height="541" viewBox="0 0 961 541" fill="none" xmlns="http://www.w3.org/2000/svg">
<g clip-path="url(#clip0_287_75083)">
<path d="M886.82 215.89C819.47 186.66 794.37 143.4 794.37 84.26C794.37 51.7 803.06 23.2 820.06 0H758.18C757.95 41.63 757.77 76.43 757.77 76.43C677.7 38.75 543.47 76.43 543.47 76.43V0H260.25L256.49 9.52L255.76 11.38L247.97 31.1L247.23 32.96L239.44 52.68L238.71 54.54L230.92 74.26L230.19 76.12L222.4 95.84L221.66 97.7L213.87 117.42L213.14 119.28L205.35 139L204.62 140.86L196.83 160.58L196.09 162.44L188.3 182.16L187.57 184.02L179.78 203.74L179.05 205.6L172.1 223.2H143.33V257.33C191.36 258.88 226.4 267.92 226.42 267.92C226.42 267.87 226.42 267.87 226.42 267.92C226.39 270.83 225.41 453.49 225.41 453.49C156.45 421.04 40.85 453.49 40.85 453.49V313.69H0V539.84H89.19V486.31C180.44 461.98 274.73 486.31 274.76 486.31C274.76 486.26 274.76 486.26 274.76 486.31C274.75 487.33 274.62 510.34 274.46 539.84H327.72V437.87H370.66V340.63H638.26V478.67H595.32V539.83H725.28V452.06L674.18 507.37V287.67H648.15L646.5 283.31C637.14 258.52 620.98 237.35 599.79 222.1C578.15 206.53 552.74 198.3 526.29 198.3C499.84 198.3 474.43 206.53 452.8 222.1C431.61 237.35 415.46 258.51 406.09 283.31L404.44 287.67H310.99L312.89 279.42C318.77 253.87 329.02 229.57 342.93 207.7C335.65 205.82 328.71 203.46 322.21 200.55C311.68 195.91 302.38 189.96 294.48 182.49C277.56 166.35 267.41 144.35 267.41 113.28C267.41 82.21 277.94 58.7 295.33 42.25C302.94 34.99 312.06 29.14 322.21 24.49C341.1 15.81 364.32 11.68 388.38 11.68C412.44 11.68 434.43 15.71 452.86 23.99C463.29 28.63 472.69 34.69 480.49 42.25C496.23 57.39 506 79.2 507.46 106.17C513.7 105.62 519.98 105.35 526.29 105.35C551.65 105.35 576.51 109.79 600.18 118.53C623.04 126.98 644.28 139.25 663.31 155.01C667.04 158.1 670.66 161.31 674.17 164.63V112.67L859.44 306.85L838.71 329.29C842.43 329.22 846.12 329.19 849.76 329.2C850.48 329.2 851.21 329.2 851.93 329.2C859.74 329.24 867.34 329.43 874.71 329.75C875.42 329.78 876.13 329.81 876.84 329.85C881.57 330.07 886.19 330.34 890.71 330.64C892.8 330.78 894.88 330.93 896.92 331.09C897.7 331.15 898.48 331.21 899.25 331.28C899.95 331.34 900.65 331.4 901.35 331.45C909.12 332.11 916.5 332.88 923.41 333.71C924.1 333.79 924.79 333.88 925.47 333.96C933.38 334.93 940.65 335.98 947.19 337.02C947.88 337.13 948.55 337.24 949.22 337.35C953.09 337.98 956.68 338.6 959.98 339.2V307.71H886.8V215.86L886.82 215.89Z" fill="#82B536"/>
<path d="M960 0H931.75V40.14H960V0Z" fill="#82B536"/>
<path d="M41 172.48L41.79 170.65L50.21 151.19L51.01 149.36L59.43 129.9L60.22 128.07L68.64 108.61L69.44 106.77L77.86 87.32L78.65 85.48L87.08 66.03L87.87 64.19L96.29 44.74L97.09 42.9L105.51 23.45L106.3 21.61L114.72 2.15L115.52 0.32L115.65 0H0V175.69H39.61L41 172.48Z" fill="#82B536"/>
<path d="M40.81 267.95C42.8 267.42 44.8 266.92 46.79 266.43C47.23 266.32 47.67 266.21 48.11 266.11C50.07 265.64 52.03 265.19 53.99 264.77C54.24 264.72 54.49 264.67 54.74 264.61C56.53 264.23 58.33 263.86 60.12 263.51C60.53 263.43 60.93 263.35 61.34 263.27C63.28 262.9 65.23 262.54 67.16 262.21C67.53 262.15 67.9 262.09 68.27 262.02C70.02 261.73 71.76 261.45 73.51 261.18C73.83 261.13 74.15 261.08 74.47 261.03C76.41 260.74 78.34 260.47 80.27 260.22C80.69 260.16 81.11 260.11 81.53 260.06C83.37 259.83 85.2 259.61 87.02 259.4C87.16 259.38 87.31 259.37 87.45 259.35C89.39 259.14 91.32 258.95 93.24 258.77C93.67 258.73 94.1 258.69 94.53 258.65C96.45 258.48 98.36 258.32 100.27 258.18C100.38 258.18 100.49 258.17 100.59 258.16C102.42 258.03 104.24 257.91 106.05 257.8C106.45 257.78 106.85 257.75 107.25 257.73C109.11 257.63 110.97 257.54 112.81 257.46C113.09 257.45 113.37 257.44 113.65 257.43C115.32 257.37 116.98 257.31 118.64 257.27C118.98 257.27 119.32 257.25 119.66 257.24C121.47 257.2 123.27 257.17 125.06 257.15C125.41 257.15 125.77 257.15 126.12 257.15C127.76 257.14 129.4 257.13 131.02 257.14C131.24 257.14 131.46 257.14 131.68 257.14C133.45 257.14 135.2 257.17 136.95 257.2C137.33 257.2 137.7 257.21 138.07 257.22C139.82 257.26 141.56 257.3 143.28 257.35V223.22H19.04L29.36 199.39L31.79 193.78L32.58 191.94L39.61 175.69H0V313.73H40.81V267.95Z" fill="#94C748"/>
<path d="M931.75 54.1696V231.58C931.75 231.58 931.73 231.58 931.71 231.57C929.83 231.04 927.98 230.51 926.14 229.96C925.62 229.81 925.11 229.65 924.59 229.5C923.18 229.08 921.79 228.65 920.41 228.23C919.94 228.08 919.47 227.94 919.01 227.79C915.31 226.62 911.7 225.43 908.19 224.21C908 224.15 907.82 224.08 907.64 224.02C905.99 223.44 904.36 222.86 902.76 222.27C902.6 222.21 902.43 222.15 902.27 222.09C896.89 220.1 891.74 218.04 886.82 215.9V307.75H960V40.1396H931.75V54.1696Z" fill="#94C748"/>
<path d="M663.31 155.05C644.28 139.3 623.04 127.02 600.18 118.57C576.51 109.82 551.66 105.39 526.29 105.39C519.98 105.39 513.7 105.67 507.46 106.21V106.23C507.52 107.31 507.56 108.39 507.6 109.48C507.6 109.61 507.6 109.75 507.61 109.88C507.64 111 507.66 112.12 507.66 113.26C507.66 113.28 507.66 113.3 507.66 113.32C507.66 140.75 499.63 162.05 485.75 177.82C484.31 179.45 482.81 181.02 481.25 182.54C473.26 190.31 463.67 196.46 452.86 201.21C439.04 207.26 423.22 210.99 406.02 212.48C400.29 212.98 394.4 213.22 388.38 213.22V213.12C386.55 213.12 384.74 213.09 382.93 213.05C382.43 213.04 381.92 213.02 381.42 213C380.03 212.96 378.65 212.9 377.28 212.83C376.82 212.81 376.37 212.78 375.91 212.76C372.22 212.54 368.58 212.23 365.01 211.81C364.86 211.79 364.7 211.77 364.55 211.75C362.84 211.55 361.15 211.32 359.46 211.07C359.31 211.05 359.17 211.03 359.02 211.01C353.49 210.18 348.12 209.1 342.93 207.76C329.02 229.64 318.77 253.93 312.89 279.48L310.99 287.73H404.44L406.09 283.37C415.46 258.58 431.61 237.41 452.8 222.16C474.44 206.59 499.85 198.36 526.29 198.36C552.73 198.36 578.15 206.59 599.79 222.16C620.98 237.41 637.13 258.57 646.5 283.37L648.15 287.73H674.18V164.68C670.67 161.36 667.05 158.14 663.32 155.06L663.31 155.05Z" fill="#6A9A23"/>
<path d="M389.28 155.05C407.12 140.28 426.9 128.57 448.14 120.2C449.56 119.64 450.98 119.1 452.41 118.57C470.19 112 488.63 107.86 507.46 106.21C506 79.2297 496.24 57.4297 480.49 42.2897C472.69 34.7197 463.29 28.6697 452.86 24.0297C434.44 15.7597 412.45 11.7197 388.38 11.7197C364.31 11.7197 341.11 15.8597 322.21 24.5297C312.06 29.1697 302.94 35.0197 295.33 42.2897C277.94 58.7397 267.41 82.2397 267.41 113.32C267.41 144.4 277.56 166.39 294.48 182.53C302.38 189.99 311.68 195.95 322.21 200.59C328.71 203.49 335.64 205.86 342.93 207.74C355.55 187.89 371.17 170.03 389.27 155.05H389.28Z" fill="#6A9A23"/>
<path d="M89.1895 486.34V540H274.459C274.459 540 274.459 539.92 274.459 539.88C274.619 510.38 274.749 487.36 274.759 486.35C274.729 486.35 180.439 462.02 89.1895 486.35V486.34Z" fill="#94C748"/>
<path d="M40.8105 313.73V453.53C40.8105 453.53 156.411 421.08 225.371 453.53C225.371 453.53 226.351 270.86 226.381 267.96C226.361 267.96 191.321 258.91 143.291 257.37V313.74H40.8105V313.73Z" fill="#6A9A23"/>
<path d="M757.759 76.43C757.759 76.43 757.949 41.63 758.169 0H543.449V76.43C543.449 76.43 677.679 38.75 757.749 76.43H757.759Z" fill="#94C748"/>
<path d="M359.031 210.99C359.181 211.01 359.321 211.03 359.471 211.05C361.151 211.3 362.851 211.53 364.561 211.73C364.711 211.75 364.871 211.77 365.021 211.79C368.601 212.21 372.231 212.52 375.921 212.74C376.371 212.77 376.831 212.79 377.291 212.81C378.661 212.88 380.041 212.94 381.431 212.98C381.931 213 382.431 213.01 382.941 213.03C384.751 213.08 386.561 213.1 388.391 213.1V213.2C394.411 213.2 400.291 212.95 406.031 212.46C423.231 210.97 439.061 207.25 452.871 201.19C463.681 196.45 473.271 190.29 481.261 182.52C482.821 181.01 484.321 179.43 485.761 177.8C499.651 162.03 507.671 140.73 507.671 113.3C507.671 113.28 507.671 113.26 507.671 113.24C507.671 112.11 507.651 110.98 507.621 109.86C507.621 109.73 507.621 109.59 507.611 109.46C507.581 108.37 507.531 107.28 507.481 106.21V106.19C488.651 107.84 470.201 111.98 452.431 118.55C451.001 119.08 449.581 119.62 448.161 120.18C426.921 128.55 407.141 140.26 389.301 155.03C371.201 170.01 355.581 187.87 342.961 207.72C348.151 209.06 353.531 210.14 359.051 210.97L359.031 210.99Z" fill="#82B536"/>
<path d="M731.98 342.61C732.69 342.43 733.39 342.27 734.1 342.1C735.13 341.85 736.16 341.59 737.19 341.35C737.71 341.23 738.23 341.12 738.75 341C739.55 340.82 740.35 340.64 741.15 340.46C742.3 340.2 743.46 339.95 744.61 339.7C744.96 339.63 745.31 339.55 745.66 339.48C746.42 339.32 747.18 339.16 747.94 339C749.66 338.65 751.38 338.3 753.1 337.97C753.61 337.87 754.12 337.77 754.64 337.67C756.91 337.24 759.19 336.83 761.46 336.43C761.7 336.39 761.94 336.35 762.18 336.31C764.19 335.96 766.2 335.63 768.2 335.32C768.8 335.23 769.39 335.14 769.99 335.04C770.63 334.94 771.26 334.84 771.9 334.75C772.67 334.63 773.44 334.52 774.21 334.41C774.49 334.37 774.77 334.33 775.05 334.29C775.66 334.2 776.28 334.12 776.89 334.03C777.53 333.94 778.18 333.84 778.83 333.76C779.96 333.61 781.08 333.47 782.2 333.33C782.66 333.27 783.13 333.21 783.59 333.15C788.2 332.58 792.79 332.07 797.35 331.64C797.38 331.64 797.4 331.64 797.43 331.64C797.77 331.61 798.11 331.58 798.45 331.55C799.2 331.48 799.96 331.41 800.71 331.34C801.83 331.24 802.96 331.14 804.08 331.05C804.37 331.03 804.66 331 804.95 330.98C806.97 330.82 808.98 330.67 810.99 330.53C811.24 330.51 811.49 330.5 811.74 330.48C815.99 330.19 820.21 329.96 824.39 329.78C825.13 329.75 825.86 329.72 826.6 329.69C827.27 329.66 827.94 329.64 828.61 329.62C830.21 329.56 831.8 329.51 833.39 329.47C835.18 329.42 836.97 329.38 838.74 329.35L859.47 306.91L674.2 112.73V507.44L725.3 452.13V344.35C727.53 343.75 729.77 343.18 732 342.63L731.98 342.61ZM674.18 287.71V164.66C706.52 195.24 729.59 235.49 739.7 279.45L741.6 287.7H674.19L674.18 287.71Z" fill="#6A9A23"/>
<path d="M743.779 520.43L725.279 512.61V535.63L735.529 539.96L743.779 520.43Z" fill="#6A9A23"/>
<path d="M906.665 438.166L898.412 457.693L917.94 465.946L926.193 446.418L906.665 438.166Z" fill="#6A9A23"/>
<path d="M897.634 459.533L889.381 479.061L908.909 487.313L917.161 467.786L897.634 459.533Z" fill="#6A9A23"/>
<path d="M933.749 374.055L925.496 393.583L945.024 401.836L953.277 382.308L933.749 374.055Z" fill="#6A9A23"/>
<path d="M808.847 371.635L800.594 391.163L820.121 399.416L828.374 379.888L808.847 371.635Z" fill="#6A9A23"/>
<path d="M790.794 414.379L782.541 433.906L802.069 442.159L810.322 422.631L790.794 414.379Z" fill="#6A9A23"/>
<path d="M915.686 416.789L907.434 436.316L926.961 444.569L935.214 425.042L915.686 416.789Z" fill="#6A9A23"/>
<path d="M781.763 435.745L773.51 455.272L793.037 463.525L801.29 443.998L781.763 435.745Z" fill="#6A9A23"/>
<path d="M799.815 393.002L791.562 412.529L811.09 420.782L819.343 401.254L799.815 393.002Z" fill="#6A9A23"/>
<path d="M742.321 469.453L734.068 488.98L753.596 497.233L761.849 477.706L742.321 469.453Z" fill="#6A9A23"/>
<path d="M858.206 493.235L849.953 512.763L869.481 521.016L877.734 501.488L858.206 493.235Z" fill="#6A9A23"/>
<path d="M851.591 389.697L843.338 409.225L862.866 417.477L871.118 397.95L851.591 389.697Z" fill="#6A9A23"/>
<path d="M833.534 432.45L825.281 451.978L844.809 460.23L853.062 440.703L833.534 432.45Z" fill="#6A9A23"/>
<path d="M941.71 350.06L947.2 337.06C940.66 336.02 933.38 334.98 925.48 334L922.18 341.8L941.71 350.05V350.06Z" fill="#6A9A23"/>
<path d="M842.556 411.073L834.303 430.601L853.83 438.853L862.083 419.326L842.556 411.073Z" fill="#6A9A23"/>
<path d="M824.493 453.806L816.24 473.334L835.768 481.587L844.021 462.059L824.493 453.806Z" fill="#6A9A23"/>
<path d="M827.808 505.581L819.555 525.108L839.082 533.361L847.335 513.834L827.808 505.581Z" fill="#6A9A23"/>
<path d="M924.727 395.422L916.475 414.95L936.002 423.203L944.255 403.675L924.727 395.422Z" fill="#6A9A23"/>
<path d="M943.561 350.83L960.001 357.78V339.23C956.701 338.63 953.111 338.01 949.241 337.38L943.561 350.83Z" fill="#6A9A23"/>
<path d="M751.356 448.077L743.104 467.604L762.631 475.857L770.884 456.33L751.356 448.077Z" fill="#6A9A23"/>
<path d="M934.52 372.2L954.049 380.46L960 366.38V359.95L942.78 352.68L934.52 372.2Z" fill="#6A9A23"/>
<path d="M769.417 405.347L761.164 424.875L780.692 433.128L788.945 413.6L769.417 405.347Z" fill="#6A9A23"/>
<path d="M760.388 426.714L752.135 446.242L771.662 454.495L779.915 434.967L760.388 426.714Z" fill="#6A9A23"/>
<path d="M888.602 480.899L880.35 500.427L899.877 508.68L908.13 489.152L888.602 480.899Z" fill="#6A9A23"/>
<path d="M869.642 346.954L861.389 366.481L880.916 374.734L889.169 355.207L869.642 346.954Z" fill="#6A9A23"/>
<path d="M812.157 423.419L803.904 442.946L823.432 451.199L831.685 431.671L812.157 423.419Z" fill="#6A9A23"/>
<path d="M803.126 444.785L794.873 464.312L814.401 472.565L822.654 453.038L803.126 444.785Z" fill="#6A9A23"/>
<path d="M894.319 407.758L886.066 427.286L905.594 435.539L913.847 416.011L894.319 407.758Z" fill="#6A9A23"/>
<path d="M821.192 402.033L812.939 421.561L832.467 429.813L840.72 410.286L821.192 402.033Z" fill="#6A9A23"/>
<path d="M885.288 429.134L877.035 448.662L896.563 456.915L904.816 437.387L885.288 429.134Z" fill="#6A9A23"/>
<path d="M903.341 386.391L895.088 405.919L914.616 414.172L922.868 394.644L903.341 386.391Z" fill="#6A9A23"/>
<path d="M785.065 487.519L776.812 507.047L796.34 515.3L804.593 495.772L785.065 487.519Z" fill="#6A9A23"/>
<path d="M889.94 353.36L898.19 333.83L890.71 330.67C886.2 330.36 881.57 330.09 876.84 329.88L870.4 345.11L889.93 353.36H889.94Z" fill="#6A9A23"/>
<path d="M912.386 365.015L904.133 384.543L923.661 392.796L931.913 373.268L912.386 365.015Z" fill="#6A9A23"/>
<path d="M830.214 380.666L821.961 400.193L841.489 408.446L849.741 388.918L830.214 380.666Z" fill="#6A9A23"/>
<path d="M772.729 457.121L764.477 476.648L784.004 484.901L792.257 465.374L772.729 457.121Z" fill="#6A9A23"/>
<path d="M794.095 466.152L785.842 485.68L805.369 493.933L813.622 474.405L794.095 466.152Z" fill="#6A9A23"/>
<path d="M867.237 471.868L858.984 491.396L878.512 499.648L886.765 480.121L867.237 471.868Z" fill="#6A9A23"/>
<path d="M754.657 499.85L746.404 519.378L765.932 527.631L774.185 508.103L754.657 499.85Z" fill="#6A9A23"/>
<path d="M879.573 502.266L871.32 521.794L890.848 530.047L899.101 510.519L879.573 502.266Z" fill="#6A9A23"/>
<path d="M860.62 368.32L852.367 387.848L871.895 396.1L880.148 376.573L860.62 368.32Z" fill="#6A9A23"/>
<path d="M763.688 478.484L755.436 498.012L774.963 506.265L783.216 486.737L763.688 478.484Z" fill="#6A9A23"/>
<path d="M921.415 343.642L913.162 363.17L932.69 371.423L940.943 351.895L921.415 343.642Z" fill="#6A9A23"/>
<path d="M868.581 344.33L874.731 329.79C867.361 329.48 859.751 329.28 851.951 329.24L849.061 336.08L868.591 344.33H868.581Z" fill="#6A9A23"/>
<path d="M839.245 359.3L830.992 378.827L850.52 387.08L858.773 367.552L839.245 359.3Z" fill="#6A9A23"/>
<path d="M838.43 540H849.67L840.13 535.97L838.43 540Z" fill="#6A9A23"/>
<path d="M876.257 450.502L868.004 470.029L887.532 478.282L895.784 458.754L876.257 450.502Z" fill="#6A9A23"/>
<path d="M848.274 337.922L840.021 357.45L859.549 365.703L867.802 346.175L848.274 337.922Z" fill="#6A9A23"/>
<path d="M920.341 341.02L923.411 333.75C916.501 332.92 909.121 332.15 901.351 331.49L900.811 332.77L920.341 341.02Z" fill="#6A9A23"/>
<path d="M740.469 468.67L725.279 462.24V485.26L732.219 488.19L740.469 468.67Z" fill="#6A9A23"/>
<path d="M809.619 369.79L829.139 378.04L837.399 358.51L818.949 350.72L816.599 353.27L809.619 369.79Z" fill="#6A9A23"/>
<path d="M888.801 540H909.271L891.901 532.66L888.801 540Z" fill="#6A9A23"/>
<path d="M725.279 487.43V504.62L731.439 490.03L725.279 487.43Z" fill="#6A9A23"/>
<path d="M909.97 489.93L901.717 509.458L921.244 517.711L929.497 498.183L909.97 489.93Z" fill="#6A9A23"/>
<path d="M838.18 356.67L846.43 337.14L835.69 332.6L820.4 349.16L838.18 356.67Z" fill="#6A9A23"/>
<path d="M752.809 499.07L733.289 490.81L725.279 509.76V510.44L744.559 518.59L752.809 499.07Z" fill="#6A9A23"/>
<path d="M931.337 498.961L923.084 518.488L942.612 526.741L950.865 507.213L931.337 498.961Z" fill="#6A9A23"/>
<path d="M749.509 447.3L735.279 441.28L725.279 452.11V460.07L741.249 466.82L749.509 447.3Z" fill="#6A9A23"/>
<path d="M940.368 477.594L932.115 497.122L951.643 505.375L959.896 485.847L940.368 477.594Z" fill="#6A9A23"/>
<path d="M872.952 398.737L864.699 418.265L884.227 426.517L892.48 406.99L872.952 398.737Z" fill="#6A9A23"/>
<path d="M900.938 511.297L892.686 530.824L912.213 539.077L920.466 519.549L900.938 511.297Z" fill="#6A9A23"/>
<path d="M919.001 468.563L910.748 488.091L930.276 496.344L938.529 476.816L919.001 468.563Z" fill="#6A9A23"/>
<path d="M788.061 540H790.081L788.361 539.27L788.061 540Z" fill="#6A9A23"/>
<path d="M870.529 523.63L863.609 540H886.629L890.059 531.88L870.529 523.63Z" fill="#6A9A23"/>
<path d="M818.76 526.94L813.24 540H836.26L838.29 535.19L818.76 526.94Z" fill="#6A9A23"/>
<path d="M849.16 514.6L840.91 534.12L854.81 540H861.44L868.69 522.85L849.16 514.6Z" fill="#6A9A23"/>
<path d="M797.391 517.91L789.141 537.43L795.221 540H811.071L816.921 526.16L797.391 517.91Z" fill="#6A9A23"/>
<path d="M725.279 539.88V540H730.479L725.279 537.8V539.88Z" fill="#6A9A23"/>
<path d="M928.032 447.197L919.779 466.725L939.307 474.977L947.56 455.45L928.032 447.197Z" fill="#6A9A23"/>
<path d="M766.989 530.24L762.869 540H785.879L786.519 538.5L766.989 530.24Z" fill="#6A9A23"/>
<path d="M937.063 425.82L928.811 445.348L948.338 453.6L956.591 434.073L937.063 425.82Z" fill="#6A9A23"/>
<path d="M745.62 521.21L737.68 540H760.7L765.15 529.47L745.62 521.21Z" fill="#6A9A23"/>
<path d="M900.04 334.608L891.787 354.136L911.315 362.389L919.568 342.861L900.04 334.608Z" fill="#6A9A23"/>
<path d="M937.83 423.97L957.36 432.22L960 425.98V410.33L946.08 404.44L937.83 423.97Z" fill="#6A9A23"/>
<path d="M899.26 331.32C898.49 331.26 897.71 331.19 896.93 331.13L898.98 331.99L899.27 331.31L899.26 331.32Z" fill="#6A9A23"/>
<path d="M854.892 441.47L846.639 460.998L866.166 469.251L874.419 449.723L854.892 441.47Z" fill="#6A9A23"/>
<path d="M807.78 369.01L812.6 357.6L803.66 367.27L807.78 369.01Z" fill="#6A9A23"/>
<path d="M815.462 475.173L807.209 494.701L826.737 502.954L834.99 483.426L815.462 475.173Z" fill="#6A9A23"/>
<path d="M776.024 508.881L767.771 528.409L787.299 536.662L795.552 517.134L776.024 508.881Z" fill="#6A9A23"/>
<path d="M960.001 382.97V371.52L955.891 381.23L960.001 382.97Z" fill="#6A9A23"/>
<path d="M946.859 402.6L959.999 408.15V385.14L955.119 383.08L946.859 402.6Z" fill="#6A9A23"/>
<path d="M836.839 484.214L828.586 503.741L848.114 511.994L856.366 492.466L836.839 484.214Z" fill="#6A9A23"/>
<path d="M806.431 496.55L798.178 516.077L817.705 524.33L825.958 504.802L806.431 496.55Z" fill="#6A9A23"/>
<path d="M845.86 462.838L837.607 482.365L857.135 490.618L865.388 471.09L845.86 462.838Z" fill="#6A9A23"/>
<path d="M959.999 433.34V431.11L959.199 433L959.999 433.34Z" fill="#6A9A23"/>
<path d="M789.709 411.75L797.969 392.22L785.479 386.94L770.189 403.5L789.709 411.75Z" fill="#6A9A23"/>
<path d="M944.449 527.51L959.999 534.08V511.07L952.699 507.98L944.449 527.51Z" fill="#6A9A23"/>
<path d="M939.17 540H960V539.88V536.25L943.67 529.35L939.17 540Z" fill="#6A9A23"/>
<path d="M922.301 520.32L914.051 539.85L914.411 540H937.001L941.831 528.57L922.301 520.32Z" fill="#6A9A23"/>
<path d="M798.75 390.38L807 370.85L802.22 368.83L786.93 385.38L798.75 390.38Z" fill="#6A9A23"/>
<path d="M881.977 377.351L873.725 396.879L893.252 405.132L901.505 385.604L881.977 377.351Z" fill="#6A9A23"/>
<path d="M891.018 355.984L882.766 375.512L902.293 383.765L910.546 364.237L891.018 355.984Z" fill="#6A9A23"/>
<path d="M941.141 475.74L960.001 483.71V460.7L949.391 456.21L941.141 475.74Z" fill="#6A9A23"/>
<path d="M863.921 420.104L855.668 439.632L875.196 447.885L883.448 428.357L863.921 420.104Z" fill="#6A9A23"/>
<path d="M950.17 454.37L960 458.53V435.51L958.42 434.84L950.17 454.37Z" fill="#6A9A23"/>
<path d="M960 508.9V490.71L953.48 506.14L960 508.9Z" fill="#6A9A23"/>
<path d="M797.41 331.63C797.75 331.6 798.09 331.57 798.42 331.54C798.08 331.57 797.74 331.6 797.4 331.63H797.41Z" fill="#6A9A23"/>
<path d="M800.68 331.34C801.8 331.24 802.93 331.13 804.05 331.04C802.93 331.13 801.81 331.23 800.68 331.33V331.34Z" fill="#6A9A23"/>
<path d="M776.879 334.03C777.539 333.94 778.189 333.86 778.839 333.77H778.809C778.169 333.84 777.519 333.94 776.869 334.03H776.879Z" fill="#6A9A23"/>
<path d="M826.57 329.68C827.25 329.66 827.93 329.64 828.61 329.61H828.59C827.92 329.63 827.25 329.65 826.58 329.68H826.57Z" fill="#6A9A23"/>
<path d="M847.211 335.3L849.771 329.24C846.131 329.24 842.441 329.27 838.721 329.33L837.141 331.04L847.211 335.3Z" fill="#6A9A23"/>
<path d="M833.379 329.46C835.169 329.41 836.949 329.36 838.719 329.33C836.939 329.36 835.159 329.4 833.369 329.45H833.379V329.46Z" fill="#6A9A23"/>
<path d="M750.281 445.45L758.541 425.93L752.011 423.17L736.721 439.72L750.281 445.45Z" fill="#6A9A23"/>
<path d="M734.1 342.1C735.14 341.85 736.17 341.61 737.21 341.36H737.19C736.16 341.59 735.13 341.85 734.1 342.1Z" fill="#6A9A23"/>
<path d="M769.971 335.04C770.611 334.94 771.241 334.85 771.881 334.76C771.241 334.84 770.611 334.94 769.971 335.04Z" fill="#6A9A23"/>
<path d="M759.311 424.09L766.181 407.84L753.461 421.61L759.311 424.09Z" fill="#6A9A23"/>
<path d="M100.306 121.993L92.0527 141.521L111.58 149.773L119.833 130.246L100.306 121.993Z" fill="#6A9A23"/>
<path d="M109.335 100.626L101.082 120.153L120.61 128.406L128.863 108.878L109.335 100.626Z" fill="#6A9A23"/>
<path d="M222.68 70.7895L230.9 74.2695L238.69 54.5395L230.93 51.2695L222.68 70.7895Z" fill="#6A9A23"/>
<path d="M91.2743 143.359L83.0215 162.887L102.549 171.14L110.802 151.612L91.2743 143.359Z" fill="#6A9A23"/>
<path d="M213.65 92.1597L222.37 95.8496L230.16 76.1296L221.9 72.6396L213.65 92.1597Z" fill="#6A9A23"/>
<path d="M240.74 28.0603L247.95 31.1003L255.74 11.3803L248.99 8.53027L240.74 28.0603Z" fill="#6A9A23"/>
<path d="M101.769 172.98L82.2394 164.73L77.6094 175.69H100.619L101.769 172.98Z" fill="#6A9A23"/>
<path d="M132.171 160.64L112.641 152.39L104.391 171.92L113.311 175.69H125.811L132.171 160.64Z" fill="#6A9A23"/>
<path d="M127.397 57.8825L119.145 77.4102L138.672 85.663L146.925 66.1353L127.397 57.8825Z" fill="#6A9A23"/>
<path d="M118.366 79.2487L110.113 98.7764L129.641 107.029L137.894 87.5015L118.366 79.2487Z" fill="#6A9A23"/>
<path d="M231.711 49.4204L239.421 52.6804L247.211 32.9604L239.961 29.9004L231.711 49.4204Z" fill="#6A9A23"/>
<path d="M145.45 15.1491L137.197 34.6768L156.725 42.9296L164.978 23.4019L145.45 15.1491Z" fill="#6A9A23"/>
<path d="M143.289 215.71V223.22H156.089L156.839 221.44L143.289 215.71Z" fill="#6A9A23"/>
<path d="M159.471 220.38L166.201 223.22H172.061L179.011 205.62L167.721 200.85L159.471 220.38Z" fill="#6A9A23"/>
<path d="M158.26 223.22H161.06L158.69 222.22L158.26 223.22Z" fill="#6A9A23"/>
<path d="M80.3991 163.95L60.8691 155.7L52.6191 175.22L53.7091 175.69H75.4391L80.3991 163.95Z" fill="#6A9A23"/>
<path d="M103.611 173.76L102.801 175.69H108.171L103.611 173.76Z" fill="#6A9A23"/>
<path d="M177.529 177.64L188.269 182.18L196.059 162.46L185.779 158.11L177.529 177.64Z" fill="#6A9A23"/>
<path d="M186.561 156.27L196.791 160.6L204.591 140.87L194.811 136.74L186.561 156.27Z" fill="#6A9A23"/>
<path d="M195.59 134.9L205.32 139.01L213.11 119.29L203.84 115.37L195.59 134.9Z" fill="#6A9A23"/>
<path d="M175.866 2.80727L167.613 22.335L187.141 30.5878L195.394 11.0601L175.866 2.80727Z" fill="#6A9A23"/>
<path d="M204.619 113.53L213.849 117.43L221.639 97.71L212.869 94L204.619 113.53Z" fill="#6A9A23"/>
<path d="M168.5 199.01L179.74 203.76L187.53 184.04L176.75 179.48L168.5 199.01Z" fill="#6A9A23"/>
<path d="M136.429 36.5153L128.176 56.043L147.703 64.2958L155.956 44.7681L136.429 36.5153Z" fill="#6A9A23"/>
<path d="M174.869 0H174.359L174.789 0.18L174.869 0Z" fill="#6A9A23"/>
<path d="M165.76 21.55L174.01 2.03L169.22 0H151.86L146.23 13.3L165.76 21.55Z" fill="#6A9A23"/>
<path d="M217.53 18.25L225.24 0H202.23L198 9.99L217.53 18.25Z" fill="#6A9A23"/>
<path d="M238.899 27.28L247.149 7.75L228.809 0H227.409L219.369 19.02L238.899 27.28Z" fill="#6A9A23"/>
<path d="M196.161 9.22L200.061 0H177.041L176.631 0.96L196.161 9.22Z" fill="#6A9A23"/>
<path d="M95.1504 69.4403L87.0804 66.0303L78.6504 85.4803L86.9004 88.9703L95.1504 69.4403Z" fill="#6A9A23"/>
<path d="M122.251 5.33039L114.721 2.15039L106.301 21.6104L113.991 24.8604L122.251 5.33039Z" fill="#6A9A23"/>
<path d="M113.21 26.7002L105.51 23.4502L97.0898 42.9002L104.96 46.2302L113.21 26.7002Z" fill="#6A9A23"/>
<path d="M123.02 3.49L124.5 0H115.65L115.52 0.32L123.02 3.49Z" fill="#6A9A23"/>
<path d="M144.389 12.52L149.679 0H126.669L124.869 4.27L144.389 12.52Z" fill="#6A9A23"/>
<path d="M104.179 48.0702L96.2891 44.7402L87.8691 64.1902L95.9291 67.6002L104.179 48.0702Z" fill="#6A9A23"/>
<path d="M106.02 48.8512L97.7676 68.3789L117.295 76.6317L125.548 57.104L106.02 48.8512Z" fill="#6A9A23"/>
<path d="M87.9696 91.5954L79.7168 111.123L99.2445 119.376L107.497 99.8482L87.9696 91.5954Z" fill="#6A9A23"/>
<path d="M97.0009 70.2184L88.748 89.7461L108.276 97.9989L116.529 78.4712L97.0009 70.2184Z" fill="#6A9A23"/>
<path d="M78.9384 112.962L70.6855 132.489L90.2132 140.742L98.4661 121.214L78.9384 112.962Z" fill="#6A9A23"/>
<path d="M69.9071 134.329L61.6543 153.856L81.182 162.109L89.4348 142.582L69.9071 134.329Z" fill="#6A9A23"/>
<path d="M256.47 9.52L260.23 0H252.6L249.77 6.69L256.47 9.52Z" fill="#6A9A23"/>
<path d="M115.052 27.485L106.799 47.0127L126.327 55.2655L134.579 35.7378L115.052 27.485Z" fill="#6A9A23"/>
<path d="M250.429 0H233.949L247.929 5.91L250.429 0Z" fill="#6A9A23"/>
<path d="M77.0907 112.18L68.6407 108.61L60.2207 128.07L68.8407 131.71L77.0907 112.18Z" fill="#6A9A23"/>
<path d="M86.1195 90.8103L77.8595 87.3203L69.4395 106.77L77.8695 110.34L86.1195 90.8103Z" fill="#6A9A23"/>
<path d="M68.0598 133.55L59.4298 129.9L51.0098 149.36L59.8098 153.08L68.0598 133.55Z" fill="#6A9A23"/>
<path d="M124.087 6.10902L115.834 25.6367L135.362 33.8896L143.615 14.3619L124.087 6.10902Z" fill="#6A9A23"/>
<path d="M59.0291 154.92L50.2091 151.19L41.7891 170.65L50.7791 174.44L59.0291 154.92Z" fill="#6A9A23"/>
<path d="M121.671 131.023L113.418 150.551L132.946 158.804L141.198 139.276L121.671 131.023Z" fill="#6A9A23"/>
<path d="M161.1 97.3112L152.848 116.839L172.375 125.092L180.628 105.564L161.1 97.3112Z" fill="#6A9A23"/>
<path d="M130.702 109.657L122.449 129.185L141.977 137.437L150.23 117.91L130.702 109.657Z" fill="#6A9A23"/>
<path d="M209.569 42.236L201.316 61.7637L220.844 70.0165L229.097 50.4888L209.569 42.236Z" fill="#6A9A23"/>
<path d="M191.497 84.9752L183.244 104.503L202.772 112.756L211.025 93.2281L191.497 84.9752Z" fill="#6A9A23"/>
<path d="M200.528 63.609L192.275 83.1367L211.803 91.3896L220.056 71.8619L200.528 63.609Z" fill="#6A9A23"/>
<path d="M188.192 33.2008L179.939 52.7285L199.467 60.9814L207.72 41.4537L188.192 33.2008Z" fill="#6A9A23"/>
<path d="M166.827 24.1803L158.574 43.708L178.102 51.9608L186.355 32.4332L166.827 24.1803Z" fill="#6A9A23"/>
<path d="M197.233 11.8385L188.98 31.3662L208.508 39.619L216.761 20.0913L197.233 11.8385Z" fill="#6A9A23"/>
<path d="M179.163 54.5778L170.91 74.1055L190.438 82.3583L198.691 62.8306L179.163 54.5778Z" fill="#6A9A23"/>
<path d="M218.6 20.8688L210.348 40.3965L229.875 48.6493L238.128 29.1216L218.6 20.8688Z" fill="#6A9A23"/>
<path d="M170.132 75.944L161.879 95.4717L181.407 103.725L189.659 84.1968L170.132 75.944Z" fill="#6A9A23"/>
<path d="M139.733 88.2799L131.48 107.808L151.008 116.06L159.261 96.5328L139.733 88.2799Z" fill="#6A9A23"/>
<path d="M173.446 127.709L165.193 147.236L184.721 155.489L192.974 135.961L173.446 127.709Z" fill="#6A9A23"/>
<path d="M152.069 118.677L143.816 138.205L163.344 146.458L171.597 126.93L152.069 118.677Z" fill="#6A9A23"/>
<path d="M155.384 170.452L147.131 189.979L166.659 198.232L174.911 178.705L155.384 170.452Z" fill="#6A9A23"/>
<path d="M148.765 66.9137L140.512 86.4414L160.039 94.6942L168.292 75.1666L148.765 66.9137Z" fill="#6A9A23"/>
<path d="M164.415 149.076L156.162 168.604L175.69 176.856L183.943 157.329L164.415 149.076Z" fill="#6A9A23"/>
<path d="M157.796 45.5465L149.543 65.0742L169.071 73.3271L177.323 53.7994L157.796 45.5465Z" fill="#6A9A23"/>
<path d="M143.29 188.35L145.28 189.2L153.54 169.67L134.01 161.42L127.98 175.69H143.29V188.35Z" fill="#6A9A23"/>
<path d="M144.509 191.04L143.289 190.53V193.93L144.509 191.04Z" fill="#6A9A23"/>
<path d="M157.619 219.6L165.879 200.07L146.349 191.82L143.289 199.06V213.54L157.619 219.6Z" fill="#6A9A23"/>
<path d="M182.468 106.342L174.215 125.87L193.743 134.123L201.995 114.595L182.468 106.342Z" fill="#6A9A23"/>
<path d="M143.038 140.054L134.785 159.582L154.313 167.835L162.566 148.307L143.038 140.054Z" fill="#6A9A23"/>
<path d="M48.5801 175.69L41.0001 172.48L39.6101 175.69L32.5801 191.94L39.6101 175.69H48.5801Z" fill="#6A9A23"/>
<path d="M143.289 213.54V199.06V193.93V190.53V188.35V175.69H127.979H125.809H113.309H108.169H102.799H100.619H77.6091H75.4391H53.7091H52.4191H50.2491H48.5791H39.6091L32.5791 191.94L31.7791 193.77L29.3491 199.39L19.0391 223.22H143.289V215.71V213.54Z" fill="#82B536"/>
<path d="M886.819 215.89V40.14H931.759V231.58V0H820.059C803.059 23.2 794.369 51.7 794.369 84.26C794.369 143.41 819.479 186.66 886.819 215.89Z" fill="#6A9A23"/>
<path d="M595.32 437.91V478.72H638.26V340.68H370.66V437.91H595.32Z" fill="#94C748"/>
<path d="M370.661 478.72V437.91H327.721V539.88V540H595.321V539.88V478.72H370.661Z" fill="#6A9A23"/>
<path d="M741.59 287.71L739.69 279.46C729.58 235.5 706.52 195.25 674.17 164.67V287.72H741.58L741.59 287.71Z" fill="#82B536"/>
<path d="M370.66 437.91V478.72H595.32V437.91H370.66Z" fill="#82B536"/>
<path d="M136.96 257.2C135.22 257.17 133.46 257.15 131.69 257.14C131.47 257.14 131.25 257.14 131.03 257.14C129.41 257.14 127.77 257.14 126.13 257.15C125.78 257.15 125.42 257.15 125.07 257.15C123.28 257.17 121.48 257.2 119.67 257.24C119.33 257.24 118.99 257.26 118.65 257.27C117 257.31 115.34 257.37 113.66 257.43C113.38 257.44 113.1 257.45 112.82 257.46C110.98 257.54 109.12 257.63 107.26 257.73C106.86 257.75 106.46 257.78 106.06 257.8C104.25 257.91 102.43 258.02 100.6 258.16C100.49 258.16 100.38 258.17 100.28 258.18C98.3803 258.32 96.4603 258.48 94.5403 258.65C94.1103 258.69 93.6803 258.73 93.2503 258.77C91.3303 258.95 89.4003 259.14 87.4603 259.35C87.3203 259.37 87.1703 259.38 87.0303 259.4C85.2103 259.6 83.3703 259.82 81.5403 260.06C81.1203 260.11 80.7003 260.17 80.2803 260.22C78.3503 260.47 76.4203 260.74 74.4803 261.03C74.1603 261.08 73.8403 261.13 73.5203 261.18C71.7803 261.44 70.0303 261.72 68.2803 262.02C67.9103 262.08 67.5403 262.14 67.1703 262.21C65.2303 262.54 63.2903 262.9 61.3503 263.27C60.9403 263.35 60.5403 263.43 60.1303 263.51C58.3403 263.86 56.5503 264.23 54.7503 264.61C54.5003 264.66 54.2503 264.71 54.0003 264.77C52.0403 265.2 50.0803 265.65 48.1203 266.11C47.6803 266.22 47.2403 266.32 46.8003 266.43C44.8103 266.92 42.8103 267.42 40.8203 267.95V313.73H143.3V257.36C141.58 257.3 139.84 257.26 138.09 257.23C137.72 257.23 137.34 257.21 136.97 257.21L136.96 257.2Z" fill="#82B536"/>
<path d="M115.521 0.32L114.731 2.16L122.251 5.34L114.001 24.87L106.311 21.62L105.521 23.46L113.231 26.72L104.981 46.25L97.1008 42.92L96.3108 44.76L104.201 48.1L95.9508 67.63L87.8908 64.22L87.1008 66.06L95.1808 69.47L86.9308 89L78.6808 85.52L77.8908 87.36L86.1508 90.85L77.9008 110.38L69.4708 106.82L68.6808 108.66L77.1308 112.23L68.8808 131.76L60.2608 128.12L59.4708 129.96L68.1008 133.61L59.8508 153.14L51.0508 149.42L50.2608 151.26L59.0808 154.99L50.8308 174.52L41.8408 170.72L41.0508 172.56L48.6308 175.76H53.7708L52.6808 175.3L60.9308 155.77L80.4608 164.02L75.5008 175.76H77.6708L82.3008 164.8L101.831 173.05L100.691 175.76H102.861L103.671 173.83L108.231 175.76H113.371L104.451 171.99L112.701 152.46L132.231 160.71L125.871 175.75H128.041L134.071 161.48L153.601 169.73L145.351 189.26L143.351 188.42V190.59L144.571 191.11L143.351 194V199.14L146.411 191.9L165.941 200.15L157.691 219.68L143.351 213.62V215.79L156.911 221.52L156.161 223.3H158.331L158.751 222.3L161.121 223.3H166.261L159.531 220.45L167.781 200.92L179.071 205.69L179.801 203.83L168.551 199.08L176.801 179.55L187.591 184.11L188.321 182.25L177.581 177.71L185.831 158.18L196.111 162.52L196.851 160.66L186.611 156.33L194.861 136.8L204.641 140.93L205.371 139.07L195.641 134.96L203.891 115.43L213.161 119.35L213.891 117.49L204.661 113.59L212.911 94.06L221.671 97.76L222.411 95.9L213.691 92.21L221.941 72.68L230.201 76.17L230.931 74.31L222.711 70.84L230.961 51.31L238.711 54.59L239.441 52.73L231.731 49.47L239.981 29.94L247.231 33L247.971 31.14L240.771 28.1L249.021 8.57L255.761 11.42L256.491 9.56L249.791 6.73L252.621 0.04H250.451L247.951 5.95L233.971 0.04H228.831L247.171 7.79L238.921 27.32L219.391 19.07L227.411 0H225.241L217.531 18.25L198.001 10L202.221 0.01H200.051L196.161 9.23L176.631 0.96L177.041 0H174.871L174.791 0.18L174.351 0H169.211L174.011 2.03L165.761 21.56L146.231 13.31L151.851 0.01H149.681L144.391 12.53L124.861 4.28L126.661 0.01H124.491L123.011 3.5L115.501 0.33L115.521 0.32ZM115.061 27.48L134.591 35.73L126.341 55.26L106.811 47.01L115.061 27.48ZM198.691 62.83L190.441 82.36L170.911 74.11L179.161 54.58L198.691 62.83ZM179.941 52.73L188.191 33.2L207.721 41.45L199.471 60.98L179.941 52.73ZM140.511 86.44L148.761 66.91L168.291 75.16L160.041 94.69L140.511 86.44ZM159.261 96.53L151.011 116.06L131.481 107.81L139.731 88.28L159.261 96.53ZM138.671 85.66L119.141 77.41L127.391 57.88L146.921 66.13L138.671 85.66ZM137.891 87.5L129.641 107.03L110.111 98.78L118.361 79.25L137.891 87.5ZM128.861 108.87L120.611 128.4L101.081 120.15L109.331 100.62L128.861 108.87ZM130.701 109.65L150.231 117.9L141.981 137.43L122.451 129.18L130.701 109.65ZM152.071 118.68L171.601 126.93L163.351 146.46L143.821 138.21L152.071 118.68ZM152.851 116.84L161.101 97.31L180.631 105.56L172.381 125.09L152.851 116.84ZM161.881 95.47L170.131 75.94L189.661 84.19L181.411 103.72L161.881 95.47ZM169.071 73.32L149.541 65.07L157.791 45.54L177.321 53.79L169.071 73.32ZM147.701 64.29L128.171 56.04L136.421 36.51L155.951 44.76L147.701 64.29ZM106.031 48.85L125.561 57.1L117.311 76.63L97.7808 68.38L106.031 48.85ZM97.0008 70.22L116.531 78.47L108.281 98L88.7508 89.75L97.0008 70.22ZM87.9608 91.59L107.491 99.84L99.2408 119.37L79.7108 111.12L87.9608 91.59ZM78.9308 112.96L98.4608 121.21L90.2108 140.74L70.6808 132.49L78.9308 112.96ZM81.1808 162.11L61.6508 153.86L69.9008 134.33L89.4308 142.58L81.1808 162.11ZM102.551 171.14L83.0208 162.89L91.2708 143.36L110.801 151.61L102.551 171.14ZM111.581 149.77L92.0508 141.52L100.301 121.99L119.831 130.24L111.581 149.77ZM132.951 158.8L113.421 150.55L121.671 131.02L141.201 139.27L132.951 158.8ZM134.791 159.58L143.041 140.05L162.571 148.3L154.321 167.83L134.791 159.58ZM166.651 198.23L147.121 189.98L155.371 170.45L174.901 178.7L166.651 198.23ZM175.681 176.86L156.151 168.61L164.401 149.08L183.931 157.33L175.681 176.86ZM184.721 155.49L165.191 147.24L173.441 127.71L192.971 135.96L184.721 155.49ZM193.751 134.12L174.221 125.87L182.471 106.34L202.001 114.59L193.751 134.12ZM202.781 112.75L183.251 104.5L191.501 84.97L211.031 93.22L202.781 112.75ZM211.811 91.38L192.281 83.13L200.531 63.6L220.061 71.85L211.811 91.38ZM220.841 70.01L201.311 61.76L209.561 42.23L229.091 50.48L220.841 70.01ZM218.591 20.87L238.121 29.12L229.871 48.65L210.341 40.4L218.591 20.87ZM197.231 11.84L216.761 20.09L208.511 39.62L188.981 31.37L197.231 11.84ZM175.861 2.81L195.391 11.06L187.141 30.59L167.611 22.34L175.861 2.81ZM166.831 24.17L186.361 32.42L178.111 51.95L158.581 43.7L166.831 24.17ZM145.461 15.14L164.991 23.39L156.741 42.92L137.211 34.67L145.461 15.14ZM143.611 14.36L135.361 33.89L115.831 25.64L124.081 6.11L143.611 14.36Z" fill="#82B536"/>
<path d="M949.24 337.38C948.57 337.27 947.89 337.16 947.21 337.05L941.72 350.05L922.19 341.8L925.49 334C924.81 333.92 924.12 333.83 923.43 333.75L920.36 341.02L900.83 332.77L901.37 331.49C900.67 331.43 899.97 331.37 899.27 331.32L898.98 332L896.93 331.14C894.89 330.98 892.81 330.83 890.72 330.69L898.2 333.85L889.95 353.38L870.42 345.13L876.86 329.9C876.15 329.87 875.44 329.84 874.73 329.8L868.58 344.34L849.05 336.09L851.94 329.25C851.22 329.25 850.49 329.25 849.77 329.25L847.21 335.31L837.14 331.05L835.7 332.61L846.44 337.15L838.19 356.68L820.41 349.17L818.97 350.73L837.41 358.52L829.16 378.05L809.63 369.8L816.61 353.28L812.61 357.61L807.79 369.02L803.68 367.28L802.24 368.84L807.02 370.86L798.77 390.39L786.95 385.4L785.51 386.96L797.99 392.24L789.74 411.77L770.22 403.52L766.22 407.86L759.35 424.11L753.49 421.63L752.05 423.19L758.57 425.95L750.32 445.48L736.76 439.75L735.32 441.31L749.55 447.32L741.3 466.85L725.33 460.1V462.27L740.53 468.69L732.28 488.22L725.34 485.29V487.46L731.5 490.07L725.34 504.66V509.8L733.35 490.85L752.88 499.1L744.63 518.63L725.35 510.48V512.65L743.85 520.47L735.6 540L725.35 535.67V537.84L730.55 540.04H737.75L745.69 521.25L765.22 529.5L760.77 540.03H762.94L767.06 530.27L786.59 538.52L785.95 540.02H788.12L788.43 539.29L790.15 540.02H795.29L789.21 537.45L797.46 517.92L816.99 526.17L811.14 540.01H813.31L818.83 526.95L838.36 535.2L836.33 540.01H838.5L840.2 535.98L849.74 540.01H854.88L840.98 534.13L849.23 514.6L868.76 522.85L861.51 540H863.68L870.6 523.63L890.13 531.88L886.7 540H888.87L891.97 532.66L909.34 540H914.48L914.12 539.85L922.37 520.32L941.9 528.57L937.07 540H939.24L943.74 529.35L960.07 536.25V534.08L944.52 527.51L952.77 507.98L960.07 511.06V508.89L953.55 506.13L960.07 490.7V483.7L941.21 475.73L949.46 456.2L960.07 460.68V458.51L950.24 454.36L958.49 434.83L960.07 435.5V433.33L959.27 432.99L960.07 431.1V425.96L957.43 432.21L937.9 423.96L946.15 404.43L960.07 410.31V408.14L946.93 402.59L955.18 383.06L960.06 385.12V382.95L955.95 381.21L960.06 371.49V366.35L954.11 380.42L934.58 372.17L942.83 352.64L960.05 359.92V357.75L943.61 350.8L949.29 337.35L949.24 337.38ZM900.04 334.61L919.57 342.86L911.32 362.39L891.79 354.14L900.04 334.61ZM764.46 476.63L772.71 457.1L792.24 465.35L783.99 484.88L764.46 476.63ZM783.21 486.73L774.96 506.26L755.43 498.01L763.68 478.48L783.21 486.73ZM854.89 441.46L874.42 449.71L866.17 469.24L846.64 460.99L854.89 441.46ZM844.79 460.21L825.26 451.96L833.51 432.43L853.04 440.68L844.79 460.21ZM883.44 428.34L875.19 447.87L855.66 439.62L863.91 420.09L883.44 428.34ZM864.69 418.25L872.94 398.72L892.47 406.97L884.22 426.5L864.69 418.25ZM876.25 450.49L895.78 458.74L887.53 478.27L868 470.02L876.25 450.49ZM877.03 448.65L885.28 429.12L904.81 437.37L896.56 456.9L877.03 448.65ZM886.06 427.28L894.31 407.75L913.84 416L905.59 435.53L886.06 427.28ZM893.25 405.13L873.72 396.88L881.97 377.35L901.5 385.6L893.25 405.13ZM871.88 396.1L852.35 387.85L860.6 368.32L880.13 376.57L871.88 396.1ZM871.1 397.94L862.85 417.47L843.32 409.22L851.57 389.69L871.1 397.94ZM862.07 419.31L853.82 438.84L834.29 430.59L842.54 411.06L862.07 419.31ZM832.45 429.81L812.92 421.56L821.17 402.03L840.7 410.28L832.45 429.81ZM831.67 431.65L823.42 451.18L803.89 442.93L812.14 423.4L831.67 431.65ZM822.64 453.02L814.39 472.55L794.86 464.3L803.11 444.77L822.64 453.02ZM793.02 463.52L773.49 455.27L781.74 435.74L801.27 443.99L793.02 463.52ZM794.09 466.14L813.62 474.39L805.37 493.92L785.84 485.67L794.09 466.14ZM815.45 475.17L834.98 483.42L826.73 502.95L807.2 494.7L815.45 475.17ZM816.23 473.32L824.48 453.79L844.01 462.04L835.76 481.57L816.23 473.32ZM845.85 462.83L865.38 471.08L857.13 490.61L837.6 482.36L845.85 462.83ZM867.22 471.86L886.75 480.11L878.5 499.64L858.97 491.39L867.22 471.86ZM888.59 480.89L908.12 489.14L899.87 508.67L880.34 500.42L888.59 480.89ZM889.37 479.05L897.62 459.52L917.15 467.77L908.9 487.3L889.37 479.05ZM918.99 468.55L938.52 476.8L930.27 496.33L910.74 488.08L918.99 468.55ZM917.93 465.93L898.4 457.68L906.65 438.15L926.18 446.4L917.93 465.93ZM907.43 436.31L915.68 416.78L935.21 425.03L926.96 444.56L907.43 436.31ZM914.62 414.16L895.09 405.91L903.34 386.38L922.87 394.63L914.62 414.16ZM904.12 384.54L912.37 365.01L931.9 373.26L923.65 392.79L904.12 384.54ZM891.01 355.98L910.54 364.23L902.29 383.76L882.76 375.51L891.01 355.98ZM869.64 346.95L889.17 355.2L880.92 374.73L861.39 366.48L869.64 346.95ZM848.27 337.92L867.8 346.17L859.55 365.7L840.02 357.45L848.27 337.92ZM839.24 359.29L858.77 367.54L850.52 387.07L830.99 378.82L839.24 359.29ZM830.21 380.66L849.74 388.91L841.49 408.44L821.96 400.19L830.21 380.66ZM808.84 371.63L828.37 379.88L820.12 399.41L800.59 391.16L808.84 371.63ZM799.81 393L819.34 401.25L811.09 420.78L791.56 412.53L799.81 393ZM790.78 414.37L810.31 422.62L802.06 442.15L782.53 433.9L790.78 414.37ZM769.41 405.34L788.94 413.59L780.69 433.12L761.16 424.87L769.41 405.34ZM760.38 426.71L779.91 434.96L771.66 454.49L752.13 446.24L760.38 426.71ZM751.35 448.07L770.88 456.32L762.63 475.85L743.1 467.6L751.35 448.07ZM734.06 488.97L742.31 469.44L761.84 477.69L753.59 497.22L734.06 488.97ZM765.93 527.62L746.4 519.37L754.65 499.84L774.18 508.09L765.93 527.62ZM787.3 536.65L767.77 528.4L776.02 508.87L795.55 517.12L787.3 536.65ZM796.33 515.28L776.8 507.03L785.05 487.5L804.58 495.75L796.33 515.28ZM817.7 524.32L798.17 516.07L806.42 496.54L825.95 504.79L817.7 524.32ZM839.07 533.35L819.54 525.1L827.79 505.57L847.32 513.82L839.07 533.35ZM848.1 511.98L828.57 503.73L836.82 484.2L856.35 492.45L848.1 511.98ZM869.47 521.01L849.94 512.76L858.19 493.23L877.72 501.48L869.47 521.01ZM890.84 530.04L871.31 521.79L879.56 502.26L899.09 510.51L890.84 530.04ZM912.21 539.07L892.68 530.82L900.93 511.29L920.46 519.54L912.21 539.07ZM921.24 517.7L901.71 509.45L909.96 489.92L929.49 498.17L921.24 517.7ZM942.61 526.73L923.08 518.48L931.33 498.95L950.86 507.2L942.61 526.73ZM959.89 485.83L951.64 505.36L932.11 497.11L940.36 477.58L959.89 485.83ZM939.3 474.96L919.77 466.71L928.02 447.18L947.55 455.43L939.3 474.96ZM956.58 434.07L948.33 453.6L928.8 445.35L937.05 425.82L956.58 434.07ZM935.99 423.19L916.46 414.94L924.71 395.41L944.24 403.66L935.99 423.19ZM953.27 382.3L945.02 401.83L925.49 393.58L933.74 374.05L953.27 382.3ZM932.68 371.42L913.15 363.17L921.4 343.64L940.93 351.89L932.68 371.42Z" fill="#82B536"/>
<path d="M736.721 439.72L752.011 423.17L753.451 421.61L766.171 407.84L770.171 403.51L785.461 386.95L786.901 385.39L802.191 368.84L803.631 367.28L812.571 357.61L816.571 353.28L818.921 350.73L820.361 349.17L835.651 332.62L837.091 331.06L838.671 329.35C836.901 329.38 835.121 329.43 833.331 329.48C831.751 329.52 830.151 329.58 828.561 329.63C827.881 329.65 827.201 329.68 826.521 329.7C825.781 329.73 825.051 329.76 824.311 329.79C820.131 329.97 815.911 330.2 811.661 330.49C811.411 330.51 811.161 330.52 810.911 330.54C808.901 330.68 806.891 330.83 804.871 330.99C804.581 331.01 804.291 331.04 804.001 331.06C802.881 331.15 801.751 331.26 800.631 331.36C799.881 331.43 799.131 331.49 798.371 331.56C798.031 331.59 797.691 331.62 797.361 331.65C797.331 331.65 797.311 331.65 797.281 331.65C792.721 332.09 788.131 332.59 783.521 333.16C783.061 333.22 782.591 333.28 782.131 333.34C781.021 333.48 779.901 333.63 778.791 333.78C778.141 333.87 777.481 333.95 776.831 334.04C776.221 334.12 775.601 334.21 774.991 334.3C774.711 334.34 774.431 334.38 774.151 334.42C773.381 334.53 772.611 334.65 771.831 334.76C771.191 334.85 770.561 334.95 769.921 335.04C769.321 335.13 768.731 335.22 768.131 335.32C766.131 335.64 764.121 335.97 762.111 336.31C761.871 336.35 761.631 336.39 761.391 336.43C759.121 336.82 756.851 337.24 754.571 337.67C754.061 337.77 753.551 337.87 753.031 337.97C751.311 338.3 749.591 338.64 747.871 339C747.111 339.16 746.351 339.32 745.591 339.48C745.241 339.55 744.891 339.63 744.541 339.71C743.391 339.96 742.241 340.2 741.081 340.46C740.281 340.64 739.481 340.82 738.681 341C738.171 341.12 737.661 341.24 737.151 341.36C736.111 341.6 735.081 341.85 734.041 342.1C733.331 342.27 732.631 342.44 731.921 342.61C729.681 343.16 727.451 343.73 725.221 344.33V452.11L735.221 441.29L736.661 439.73L736.721 439.72Z" fill="#82B536"/>
<path d="M931.751 116.48V40.1396H886.811V215.89C891.731 218.03 896.881 220.09 902.261 222.08C902.421 222.14 902.591 222.2 902.751 222.26C904.361 222.85 905.981 223.44 907.631 224.01C907.811 224.07 908.001 224.14 908.181 224.2C911.691 225.42 915.301 226.62 919.001 227.78C919.461 227.93 919.931 228.07 920.401 228.22C921.781 228.65 923.171 229.07 924.581 229.49C925.101 229.64 925.611 229.8 926.131 229.95C927.971 230.49 929.821 231.03 931.701 231.56C931.711 231.56 931.721 231.56 931.741 231.57V116.47L931.751 116.48Z" fill="#82B536"/>
</g>
<defs>
<clipPath id="clip0_287_75083">
<rect width="960.07" height="540.04" fill="white"/>
</clipPath>
</defs>
</svg>
