<svg width="96" height="96" viewBox="0 0 96 96" fill="none" xmlns="http://www.w3.org/2000/svg">
<path d="M68.6 41.0825H13V48.8725H68.6V41.0825Z" fill="#1868DB"/>
<path d="M68.6 72.2622H13V80.0522H68.6V72.2622Z" fill="#1868DB"/>
<path d="M26.22 80.0526V48.8726H17.12V80.0526H26.22Z" fill="#1868DB"/>
<path d="M45.35 80.0526V48.8726H36.25V80.0526H45.35Z" fill="#1868DB"/>
<path d="M64.39 80.0526V48.8726H55.29V80.0526H64.39Z" fill="#1868DB"/>
<path fill-rule="evenodd" clip-rule="evenodd" d="M40.8 28.4023L13 48.8723H68.6L40.8 28.4023Z" fill="#82B536"/>
<path fill-rule="evenodd" clip-rule="evenodd" d="M68.6 48.8725H13L23.58 41.0825H58.02L68.6 48.8725Z" fill="#09326C"/>
<path d="M26.21 72.2725H17.11V80.0525H26.21V72.2725Z" fill="#1868DB"/>
<path d="M45.35 72.2725H36.26V80.0525H45.35V72.2725Z" fill="#1868DB"/>
<path d="M64.38 72.2725H55.28V80.0525H64.38V72.2725Z" fill="#1868DB"/>
<path d="M26.21 72.2725H17.11V80.0525H26.21V72.2725Z" fill="#09326C"/>
<path d="M45.35 72.2725H36.26V80.0525H45.35V72.2725Z" fill="#09326C"/>
<path d="M64.38 72.2725H55.28V80.0525H64.38V72.2725Z" fill="#09326C"/>
<path d="M49.9 28.3625C50.03 28.5725 51.14 28.5425 51.25 28.3025C51.4 27.9725 51.47 27.6225 51.45 27.1925C51.37 26.7025 51.13 26.6025 51.13 26.2625C51.09 25.7025 51.33 24.7325 51.39 24.5025C51.39 24.4725 51.39 24.4325 51.39 24.4025C51.33 24.1625 51.08 23.1225 51.07 22.1925C50.99 21.5425 50.95 21.1325 50.92 20.9225C50.85 20.4125 50.68 20.0625 50.37 19.6625C50.18 19.4225 49.29 19.8325 49.21 19.9925C49.07 20.3225 49.01 20.6825 49.06 21.1525C49.08 21.3325 48.86 21.7525 48.87 22.3025C48.87 22.3925 48.9 22.4825 48.95 22.5625C49.39 23.2925 49.36 24.3125 49.36 24.3125C49.36 24.3125 49.46 25.8125 49.51 26.4425C49.54 26.9225 49.56 27.1525 49.57 27.2925C49.6 27.7225 49.71 28.0425 49.89 28.3525L49.9 28.3625Z" fill="#101214"/>
<path d="M57.7099 27.2025C57.7899 27.6125 58.9099 27.5525 59.0499 27.3425C59.2599 26.9325 59.4099 26.4825 59.4999 25.8825C59.5399 25.1925 59.3399 24.9925 59.4199 24.5325C59.5299 23.7525 60.0099 22.4725 60.1299 22.1725C60.1499 22.1225 60.1599 22.0825 60.1599 22.0325C60.1599 21.6925 60.1899 20.1925 60.4199 18.9225C60.5099 18.0125 60.5699 17.4425 60.5999 17.1525C60.6499 16.4325 60.5999 15.9325 60.3499 15.2725C60.0599 14.5625 59.3099 15.4725 59.1499 15.4025C58.9499 15.7925 58.7999 16.3125 58.7299 16.9725C58.6999 17.2325 58.3899 17.7525 58.2499 18.5225C58.2299 18.6525 58.2299 18.7725 58.2499 18.9025C58.4799 20.0325 58.1899 21.4325 58.1899 21.4325C58.1899 21.4325 57.8999 23.5425 57.7799 24.4325C57.6899 25.1025 57.6499 25.4325 57.6199 25.6225C57.5499 26.2225 57.5699 26.7025 57.6799 27.1925L57.7099 27.2025Z" fill="#101214"/>
<path d="M67.31 29.8824C67.33 30.1624 68.39 30.4924 68.57 30.3724C68.83 30.1724 69.04 29.9024 69.22 29.5124C69.36 29.0524 69.2 28.8524 69.35 28.5624C69.57 28.0524 70.22 27.3324 70.38 27.1524C70.4 27.1224 70.42 27.0924 70.43 27.0624C70.49 26.8224 70.74 25.8024 71.17 24.9924C71.41 24.3924 71.56 24.0224 71.63 23.8324C71.8 23.3624 71.83 22.9824 71.74 22.4724C71.69 22.1124 70.7 22.1724 70.56 22.2224C70.29 22.4224 70.06 22.7224 69.88 23.1524C69.81 23.3224 69.42 23.5824 69.17 24.0624C69.13 24.1424 69.11 24.2324 69.12 24.3324C69.16 25.1724 68.67 26.0524 68.67 26.0524C68.67 26.0524 68.07 27.4124 67.82 27.9924C67.63 28.4324 67.54 28.6424 67.49 28.7724C67.33 29.1724 67.28 29.5024 67.31 29.8824Z" fill="#101214"/>
<path d="M71.16 37.3025C70.85 37.5825 71.46 38.5225 71.73 38.5225C72.2 38.4925 72.69 38.3725 73.27 38.1325C73.91 37.8025 73.98 37.5225 74.44 37.3525C75.19 37.0325 76.59 36.7625 76.93 36.7025C76.98 36.7025 77.03 36.6725 77.07 36.6525C77.38 36.4725 78.74 35.7025 80 35.2225C80.87 34.8225 81.4 34.5725 81.68 34.4425C82.35 34.1025 82.77 33.7925 83.23 33.2425C83.63 32.7325 82.61 32.3725 82.51 32.2725C82.05 32.3125 81.51 32.4625 80.87 32.7525C80.62 32.8725 79.99 32.8725 79.23 33.1625C79.11 33.2125 78.99 33.2825 78.89 33.3725C78 34.1725 76.59 34.6725 76.59 34.6725C76.59 34.6725 74.55 35.5525 73.68 35.9125C73.03 36.1925 72.72 36.3325 72.53 36.4125C71.95 36.6725 71.53 36.9525 71.16 37.3025Z" fill="#101214"/>
<path d="M72.34 45.5825C72.13 45.7025 72.14 46.8225 72.4 46.9325C72.75 47.0825 73.1 47.1525 73.54 47.1325C74.04 47.0525 74.15 46.8125 74.49 46.8125C75.06 46.7725 76.06 47.0225 76.3 47.0725C76.34 47.0725 76.37 47.0725 76.4 47.0725C76.65 47.0125 77.72 46.7625 78.67 46.7625C79.34 46.7025 79.75 46.6625 79.96 46.6425C80.48 46.5825 80.83 46.4325 81.24 46.1425C81.52 45.9625 81.13 45.0525 80.99 44.9625C80.65 44.8025 80.26 44.7325 79.77 44.7725C79.58 44.7925 79.15 44.5625 78.58 44.5625C78.49 44.5625 78.4 44.5925 78.31 44.6425C77.54 45.0725 76.5 45.0425 76.5 45.0425C76.5 45.0425 74.95 45.1425 74.3 45.1925C73.81 45.2225 73.57 45.2425 73.43 45.2525C72.99 45.2825 72.65 45.3925 72.34 45.5725V45.5825Z" fill="#101214"/>
</svg>
