<svg width="96" height="96" viewBox="0 0 96 96" fill="none" xmlns="http://www.w3.org/2000/svg">
<path d="M68.6 41.0825H13V48.8725H68.6V41.0825Z" fill="#1868DB"/>
<path d="M68.6 72.2622H13V80.0522H68.6V72.2622Z" fill="#1868DB"/>
<path d="M26.22 80.0526V48.8726H17.12V80.0526H26.22Z" fill="#1868DB"/>
<path d="M45.35 80.0526V48.8726H36.25V80.0526H45.35Z" fill="#1868DB"/>
<path d="M64.39 80.0526V48.8726H55.29V80.0526H64.39Z" fill="#1868DB"/>
<path fill-rule="evenodd" clip-rule="evenodd" d="M40.8 28.4023L13 48.8723H68.6L40.8 28.4023Z" fill="#82B536"/>
<path fill-rule="evenodd" clip-rule="evenodd" d="M68.6 48.8725H13L23.58 41.0825H58.02L68.6 48.8725Z" fill="#09326C"/>
<path d="M26.21 72.2725H17.11V80.0525H26.21V72.2725Z" fill="#1868DB"/>
<path d="M45.35 72.2725H36.26V80.0525H45.35V72.2725Z" fill="#1868DB"/>
<path d="M64.38 72.2725H55.28V80.0525H64.38V72.2725Z" fill="#1868DB"/>
<path d="M26.21 72.2725H17.11V80.0525H26.21V72.2725Z" fill="#09326C"/>
<path d="M45.35 72.2725H36.26V80.0525H45.35V72.2725Z" fill="#09326C"/>
<path d="M64.38 72.2725H55.28V80.0525H64.38V72.2725Z" fill="#09326C"/>
</svg>
