<svg width="960" height="540" viewBox="0 0 960 540" fill="none" xmlns="http://www.w3.org/2000/svg">
<g clip-path="url(#clip0_287_80442)">
<path d="M960 0H0V540H960V0Z" fill="#D3F1A7"/>
<path d="M336.52 473.91C337.66 467.5 338.26 460.7 338.26 453.49C338.26 446.28 337.65 439.28 336.49 432.8C333.06 413.7 324.75 398.23 312.68 386.73V398.69H176.5V386.93C164.44 398.41 156.14 413.81 152.7 432.8C151.53 439.28 150.92 446.19 150.92 453.49C150.92 460.79 151.52 467.5 152.67 473.91C158.9 508.56 181.39 531.3 213.48 540H276.24C308.03 531.3 330.34 508.55 336.52 473.91ZM260.99 458.58V493.89H228.19V458.53C223.59 455.26 220.44 450.36 219.29 443.99C218.97 442.23 218.81 440.35 218.81 438.37C218.81 436.39 218.98 434.46 219.3 432.67C221.21 422.11 228.58 415.58 238.93 413.85C240.77 413.54 242.69 413.38 244.7 413.38C246.71 413.38 248.48 413.53 250.24 413.81C260.59 415.49 267.97 422.04 269.88 432.66C270.2 434.45 270.37 436.34 270.37 438.36C270.37 440.38 270.21 442.22 269.89 443.98C268.75 450.39 265.59 455.31 260.99 458.58Z" fill="#EFFFD6"/>
<path d="M269.879 432.67C267.969 422.05 260.589 415.5 250.239 413.82C248.469 413.53 246.619 413.39 244.699 413.39C242.779 413.39 240.759 413.55 238.929 413.86C228.569 415.59 221.209 422.12 219.299 432.68C218.979 434.47 218.809 436.36 218.809 438.38C218.809 440.4 218.979 442.24 219.289 444C220.439 450.37 223.589 455.27 228.189 458.54V450.44H260.989V458.59C265.589 455.32 268.749 450.4 269.889 443.99C270.199 442.23 270.369 440.35 270.369 438.37C270.369 436.39 270.199 434.46 269.879 432.67Z" fill="#D3F1A7"/>
<path d="M197.318 339.5C197.318 343.06 197.618 346.52 198.198 349.77C201.608 368.75 214.418 381.03 234.258 384.34C240.888 385.45 248.338 385.47 254.908 384.4C274.758 381.17 287.568 368.87 290.978 349.77C291.558 346.52 291.858 343.06 291.858 339.5C291.858 339.48 291.858 339.46 291.858 339.43H197.328C197.328 339.43 197.328 339.47 197.328 339.5H197.318Z" fill="#EFFFD6"/>
<path d="M312.68 398.69V339.44H303.98C303.98 339.44 303.98 339.48 303.98 339.51C303.98 343.78 303.62 347.95 302.92 351.91C298.6 376.11 281.81 392.32 256.87 396.37C253 397 248.94 397.32 244.8 397.32C240.66 397.32 236.3 396.98 232.27 396.3C207.37 392.15 190.61 375.97 186.28 351.92C185.57 347.96 185.21 343.78 185.21 339.5C185.21 339.48 185.21 339.46 185.21 339.43H176.5V398.68H312.68V398.69Z" fill="#EFFFD6"/>
<path d="M228.189 450.43V458.53V493.89H260.989V458.58V450.43H228.189Z" fill="#D3F1A7"/>
<path d="M186.269 351.92C190.599 375.97 207.359 392.15 232.259 396.3C236.289 396.97 240.509 397.32 244.789 397.32C249.069 397.32 252.989 397 256.859 396.37C281.809 392.31 298.589 376.11 302.909 351.91C303.619 347.95 303.969 343.78 303.969 339.51C303.969 339.49 303.969 339.47 303.969 339.44C303.969 335.14 303.599 330.94 302.889 326.95C298.539 302.76 281.769 286.56 256.849 282.5C248.929 281.22 240.189 281.24 232.259 282.57C207.399 286.72 190.639 302.89 186.289 326.93C185.569 330.91 185.199 335.11 185.199 339.43C185.199 339.45 185.199 339.47 185.199 339.5C185.199 343.78 185.559 347.96 186.269 351.92ZM234.259 294.52C237.609 293.96 241.199 293.68 244.789 293.68C248.379 293.68 251.699 293.94 254.909 294.46C274.729 297.68 287.529 309.98 290.959 329.09C291.549 332.36 291.849 335.84 291.849 339.43C291.849 339.45 291.849 339.47 291.849 339.5C291.849 343.06 291.559 346.52 290.969 349.77C287.559 368.87 274.749 381.17 254.899 384.4C248.319 385.47 240.879 385.45 234.249 384.34C214.409 381.03 201.609 368.75 198.189 349.77C197.609 346.52 197.309 343.06 197.309 339.5C197.309 339.48 197.309 339.46 197.309 339.43C197.309 335.83 197.609 332.36 198.209 329.09C201.649 310.1 214.449 297.82 234.249 294.52H234.259Z" fill="#EFFFD6"/>
<path d="M373.35 383.59H391.45C393.3 404.18 387.06 426.43 387.06 426.43H403.54C403.54 426.22 403.52 426.03 403.52 425.82C403.52 424.55 403.63 423.34 403.84 422.21C405.07 415.52 409.75 411.39 416.32 410.32C417.48 410.13 418.7 410.03 419.98 410.03C421.2 410.03 422.37 410.13 423.49 410.31C430.05 411.39 434.71 415.56 435.9 422.29C436.1 423.42 436.2 424.63 436.2 425.9C436.2 426.08 436.18 426.25 436.18 426.42H447.99C452.12 410.94 451.98 395.19 450.88 383.58H558.05C558.18 384.65 558.33 385.71 558.51 386.74C562.39 408.66 577.64 423.44 600.34 427.29C604.06 427.92 607.95 428.25 611.9 428.26H612.09C615.83 428.26 619.51 427.98 623.02 427.41C645.45 423.83 661.19 408.73 665.12 387.02C665.78 383.39 666.12 379.55 666.13 375.61C666.13 371.62 665.82 367.73 665.17 364.06C664.29 359.1 662.79 354.49 660.75 350.27C657.23 357.79 652.09 364.06 645.62 368.76C645.93 370.92 646.1 373.2 646.09 375.56C646.09 378.32 645.85 380.98 645.4 383.45C642.3 400.56 629.79 406.04 619.85 407.63C617.34 408.03 614.71 408.21 611.94 408.22C609.09 408.22 606.31 407.98 603.68 407.53C593.73 405.84 581.24 400.26 578.23 383.25C577.79 380.78 577.57 378.13 577.58 375.37C577.58 372.57 577.82 369.88 578.28 367.37C578.31 367.18 578.36 367 578.39 366.81C572.28 361.71 567.53 355.08 564.46 347.25C561.68 352.14 559.69 357.67 558.57 363.75C558.48 364.26 558.4 364.78 558.32 365.3V364.41H373.33V383.57L373.35 383.59Z" fill="#EFFFD6"/>
<path d="M611.99 342.59H612.14C614.88 342.59 617.54 342.81 620.05 343.23C625.41 344.12 631.51 346.15 636.46 350.53C642.04 345.32 644.48 338.38 645.47 332.37C645.47 332.34 645.47 332.31 645.48 332.28C639.23 327.88 631.75 324.86 623.32 323.46C619.75 322.87 616 322.56 612.19 322.55C608.25 322.58 604.35 322.84 600.63 323.46C593.19 324.68 586.55 327.09 580.83 330.53C580.9 331.09 580.97 331.65 581.06 332.2C581.96 337.8 584.09 344.22 588.85 349.31C593.54 345.76 599.02 344.03 603.88 343.23C606.47 342.8 609.2 342.59 612 342.59H611.99Z" fill="#EFFFD6"/>
<path d="M636.448 350.54C632.828 353.93 627.878 356.59 621.128 357.78C618.618 358.22 615.928 358.45 613.118 358.44C610.358 358.44 607.698 358.2 605.228 357.75C597.768 356.4 592.518 353.25 588.838 349.31C584.048 352.93 580.078 358.46 578.408 366.83C584.788 372.16 592.648 375.83 601.658 377.46C605.288 378.12 609.128 378.46 613.068 378.47C617.058 378.47 620.948 378.16 624.618 377.51C632.578 376.1 639.658 373.1 645.618 368.77C645.558 368.37 645.508 367.96 645.438 367.56C644.048 359.68 640.658 354.26 636.448 350.53V350.54Z" fill="#EFFFD6"/>
<path d="M580.83 330.53C580.59 328.53 580.48 326.45 580.46 324.28C580.46 321.43 580.7 318.65 581.15 316.02C582.84 306.07 588.42 293.58 605.43 290.57C607.9 290.13 610.55 289.91 613.31 289.92C616.11 289.92 618.8 290.16 621.3 290.62C638.31 293.75 643.83 306.25 645.46 316.19C645.89 318.78 646.1 321.51 646.1 324.31V324.46C646.1 327.16 645.88 329.79 645.47 332.28C652.01 336.88 657.21 342.99 660.75 350.28C662.84 345.82 664.36 340.92 665.23 335.64C665.82 332.07 666.13 328.32 666.14 324.51C666.11 320.57 665.85 316.67 665.24 312.95C661.52 290.26 646.82 274.94 624.93 270.91C624.42 270.82 623.9 270.74 623.38 270.66H624.26V85.6797H605.1V103.78C584.51 105.63 562.26 99.3897 562.26 99.3897V115.87C562.47 115.87 562.66 115.85 562.87 115.85C564.14 115.85 565.35 115.96 566.48 116.17C573.17 117.4 577.3 122.08 578.37 128.65C578.56 129.81 578.66 131.03 578.66 132.31C578.66 133.53 578.56 134.7 578.37 135.82C577.29 142.38 573.12 147.04 566.39 148.23C565.26 148.43 564.05 148.53 562.78 148.53C562.6 148.53 562.43 148.51 562.26 148.51V160.32C577.74 164.45 593.49 164.31 605.1 163.21V270.38C604.03 270.51 602.97 270.66 601.94 270.84C580.02 274.72 565.24 289.97 561.39 312.67C560.76 316.39 560.43 320.28 560.42 324.23V324.42C560.42 328.16 560.7 331.84 561.27 335.35C561.94 339.57 563.03 343.55 564.48 347.26C568.42 340.32 573.95 334.67 580.83 330.53Z" fill="#EFFFD6"/>
<path d="M927.499 287.12C931.299 287.12 934.909 287.43 938.329 288.08C929.189 237.24 898.159 216.65 848.569 216.65C806.859 216.65 778.879 230.94 765.559 265.1C764.699 265.07 763.829 265.06 762.939 265.06C730.669 265.06 707.799 285.17 701.029 323.35H880.539C887.939 299.57 904.809 287.12 927.489 287.12H927.499Z" fill="#EFFFD6"/>
<path d="M938.329 288.08C940.209 298.53 941.159 310.26 941.159 323.35H880.539C879.529 326.59 878.699 330.02 878.049 333.68H960.609V300.23C954.339 293.57 946.929 289.73 938.319 288.09L938.329 288.08Z" fill="#EFFFD6"/>
<path d="M49.6191 482.93C49.7791 500.64 48.0591 520.65 43.7191 540H109.639C114.379 518.15 115.889 495.8 115.719 476.45C114.839 380.58 72.8991 317.01 0.619141 297.3V378.8C30.8991 394.61 49.1191 428.04 49.6191 482.92V482.93Z" fill="#EFFFD6"/>
<path d="M913.6 131.04L960.62 130.92V53.1201C937.9 72.8101 921.66 99.0101 913.6 131.04Z" fill="#EFFFD6"/>
<path d="M378.94 304.58C381 316.04 389.01 323.15 400.28 325.03C402.27 325.36 404.37 325.54 406.55 325.54C408.73 325.54 410.65 325.38 412.57 325.07C423.83 323.24 431.85 316.11 433.91 304.59C434.25 302.67 434.43 300.64 434.43 298.49C434.43 296.34 434.25 294.24 433.9 292.3C431.83 280.76 423.81 273.65 412.57 271.82C410.65 271.51 408.64 271.35 406.55 271.35C404.46 271.35 402.27 271.52 400.28 271.86C389.03 273.74 381.03 280.83 378.95 292.31C378.6 294.25 378.42 296.31 378.42 298.5C378.42 300.69 378.6 302.69 378.94 304.6V304.58Z" fill="#EFFFD6"/>
<path d="M378.94 238.78C381 250.24 389.01 257.35 400.28 259.23C402.27 259.56 404.37 259.74 406.55 259.74C408.73 259.74 410.65 259.58 412.57 259.27C423.83 257.44 431.85 250.31 433.91 238.79C434.25 236.87 434.43 234.84 434.43 232.69C434.43 230.54 434.25 228.44 433.9 226.5C431.83 214.96 423.81 207.85 412.57 206.02C410.65 205.71 408.64 205.55 406.55 205.55C404.46 205.55 402.27 205.72 400.28 206.06C389.03 207.94 381.03 215.03 378.95 226.51C378.6 228.45 378.42 230.51 378.42 232.7C378.42 234.89 378.6 236.89 378.94 238.8V238.78Z" fill="#EFFFD6"/>
<path d="M378.94 172.98C381 184.44 389.01 191.55 400.28 193.43C402.27 193.76 404.37 193.94 406.55 193.94C408.73 193.94 410.65 193.78 412.57 193.47C423.83 191.64 431.85 184.51 433.91 172.99C434.25 171.07 434.43 169.04 434.43 166.89C434.43 164.74 434.25 162.64 433.9 160.7C431.83 149.16 423.81 142.05 412.57 140.22C410.65 139.91 408.64 139.75 406.55 139.75C404.46 139.75 402.27 139.92 400.28 140.26C389.03 142.14 381.03 149.23 378.95 160.71C378.6 162.65 378.42 164.71 378.42 166.9C378.42 169.09 378.6 171.09 378.94 173V172.98Z" fill="#EFFFD6"/>
<path d="M400.28 127.63C402.27 127.96 404.37 128.14 406.55 128.14C408.73 128.14 410.65 127.98 412.57 127.67C423.83 125.84 431.85 118.71 433.91 107.19C434.25 105.27 434.43 103.24 434.43 101.09C434.43 98.9402 434.25 96.8402 433.9 94.9002C431.83 83.3602 423.81 76.2502 412.57 74.4202C410.65 74.1102 408.64 73.9502 406.55 73.9502C404.46 73.9502 402.27 74.1202 400.28 74.4602C389.03 76.3402 381.03 83.4302 378.95 94.9102C378.6 96.8502 378.42 98.9102 378.42 101.1C378.42 103.29 378.6 105.29 378.94 107.2C381 118.66 389.01 125.77 400.28 127.65V127.63Z" fill="#EFFFD6"/>
<path d="M310.399 238.78C312.459 250.24 320.469 257.35 331.739 259.23C333.729 259.56 335.829 259.74 338.009 259.74C340.189 259.74 342.109 259.58 344.029 259.27C355.289 257.44 363.309 250.31 365.369 238.79C365.709 236.87 365.889 234.84 365.889 232.69C365.889 230.54 365.709 228.44 365.359 226.5C363.289 214.96 355.269 207.85 344.029 206.02C342.109 205.71 340.099 205.55 338.009 205.55C335.919 205.55 333.729 205.72 331.739 206.06C320.489 207.94 312.489 215.03 310.409 226.51C310.059 228.45 309.879 230.51 309.879 232.7C309.879 234.89 310.059 236.89 310.399 238.8V238.78Z" fill="#EFFFD6"/>
<path d="M310.399 172.98C312.459 184.44 320.469 191.55 331.739 193.43C333.729 193.76 335.829 193.94 338.009 193.94C340.189 193.94 342.109 193.78 344.029 193.47C355.289 191.64 363.309 184.51 365.369 172.99C365.709 171.07 365.889 169.04 365.889 166.89C365.889 164.74 365.709 162.64 365.359 160.7C363.289 149.16 355.269 142.05 344.029 140.22C342.109 139.91 340.099 139.75 338.009 139.75C335.919 139.75 333.729 139.92 331.739 140.26C320.489 142.14 312.489 149.23 310.409 160.71C310.059 162.65 309.879 164.71 309.879 166.9C309.879 169.09 310.059 171.09 310.399 173V172.98Z" fill="#EFFFD6"/>
<path d="M331.739 127.63C333.729 127.96 335.829 128.14 338.009 128.14C340.189 128.14 342.109 127.98 344.029 127.67C355.289 125.84 363.309 118.71 365.369 107.19C365.709 105.27 365.889 103.24 365.889 101.09C365.889 98.9402 365.709 96.8402 365.359 94.9002C363.289 83.3602 355.269 76.2502 344.029 74.4202C342.109 74.1102 340.099 73.9502 338.009 73.9502C335.919 73.9502 333.729 74.1202 331.739 74.4602C320.489 76.3402 312.489 83.4302 310.409 94.9102C310.059 96.8502 309.879 98.9102 309.879 101.1C309.879 103.29 310.059 105.29 310.399 107.2C312.459 118.66 320.469 125.77 331.739 127.65V127.63Z" fill="#EFFFD6"/>
<path d="M449.668 238.78C451.728 250.24 459.738 257.35 471.008 259.23C472.998 259.56 475.098 259.74 477.278 259.74C479.458 259.74 481.378 259.58 483.298 259.27C494.558 257.44 502.578 250.31 504.638 238.79C504.978 236.87 505.158 234.84 505.158 232.69C505.158 230.54 504.978 228.44 504.628 226.5C502.558 214.96 494.538 207.85 483.298 206.02C481.378 205.71 479.368 205.55 477.278 205.55C475.188 205.55 472.998 205.72 471.008 206.06C459.758 207.94 451.758 215.03 449.678 226.51C449.328 228.45 449.148 230.51 449.148 232.7C449.148 234.89 449.328 236.89 449.668 238.8V238.78Z" fill="#EFFFD6"/>
<path d="M449.668 172.98C451.728 184.44 459.738 191.55 471.008 193.43C472.998 193.76 475.098 193.94 477.278 193.94C479.458 193.94 481.378 193.78 483.298 193.47C494.558 191.64 502.578 184.51 504.638 172.99C504.978 171.07 505.158 169.04 505.158 166.89C505.158 164.74 504.978 162.64 504.628 160.7C502.558 149.16 494.538 142.05 483.298 140.22C481.378 139.91 479.368 139.75 477.278 139.75C475.188 139.75 472.998 139.92 471.008 140.26C459.758 142.14 451.758 149.23 449.678 160.71C449.328 162.65 449.148 164.71 449.148 166.9C449.148 169.09 449.328 171.09 449.668 173V172.98Z" fill="#EFFFD6"/>
<path d="M471.008 127.63C472.998 127.96 475.098 128.14 477.278 128.14C479.458 128.14 481.378 127.98 483.298 127.67C494.558 125.84 502.578 118.71 504.638 107.19C504.978 105.27 505.158 103.24 505.158 101.09C505.158 98.9402 504.978 96.8402 504.628 94.9002C502.558 83.3602 494.538 76.2502 483.298 74.4202C481.378 74.1102 479.368 73.9502 477.278 73.9502C475.188 73.9502 472.998 74.1202 471.008 74.4602C459.758 76.3402 451.758 83.4302 449.678 94.9102C449.328 96.8502 449.148 98.9102 449.148 101.1C449.148 103.29 449.328 105.29 449.668 107.2C451.728 118.66 459.738 125.77 471.008 127.65V127.63Z" fill="#EFFFD6"/>
<path d="M445.42 527.4C445.42 495.36 455.58 476.22 472.52 466.73C463.02 461.62 451.32 459.31 437.96 459.31C402.16 459.31 378.1 478.09 378.1 527.39V539.99H445.42V527.39V527.4Z" fill="#EFFFD6"/>
<path d="M499.01 527.4V540H566.33V527.4C568.09 478.1 543.44 459.32 505.28 459.32C492.74 459.32 481.65 461.63 472.52 466.74C490.14 476.22 500.15 495.37 499.01 527.41V527.4Z" fill="#EFFFD6"/>
<path d="M610.379 540H738.419L732.509 510.82L626.359 489.32L610.379 540Z" fill="#EFFFD6"/>
<path d="M943.35 446.16L826 357.92L711.67 446.16H784.99V414.22H870.04V446.16H943.35Z" fill="#EFFFD6"/>
<path d="M870.038 446.16H784.988V539.99H870.038V446.16Z" fill="#EFFFD6"/>
<path d="M0.619141 138.9C10.7091 146.39 18.3691 157.67 23.0091 172.58H54.0191C69.0391 150.05 93.8891 140.34 128.069 140.34C162.249 140.34 187.039 150.04 202.329 172.58H244.049C235.719 125.56 207.549 100.8 167.819 100.8C166.739 100.8 165.659 100.82 164.599 100.85C148.199 58.7899 113.739 41.1899 62.3791 41.1899C38.0791 41.1899 17.4191 45.2199 0.619141 53.9999V138.9Z" fill="#EFFFD6"/>
<path d="M45.9291 188.27C45.0691 188.24 44.2091 188.23 43.3391 188.23C25.9991 188.23 11.4091 194.11 0.619141 205.53V245.91H219.699C219.699 213.42 213.759 189.42 202.329 172.58H54.0191C50.8991 177.26 48.1991 182.47 45.9291 188.28V188.27Z" fill="#EFFFD6"/>
<path d="M686.879 0C683.989 17.13 680.109 46.36 680.109 79.91C680.109 133.38 689.959 183.63 689.959 183.63H891.669C891.669 183.63 876.019 164.3 876.019 86.99C876.019 42.67 881.159 15.3 885.549 0H686.869H686.879ZM801.149 70.04C800.149 75.64 797.389 79.94 793.369 82.8V113.67H764.699V82.76C760.679 79.9 757.919 75.62 756.919 70.05C756.639 68.51 756.499 66.87 756.499 65.14C756.499 63.41 756.649 61.72 756.929 60.16C758.599 50.93 765.039 45.22 774.089 43.71C775.689 43.44 777.379 43.3 779.139 43.3C780.899 43.3 782.439 43.43 783.989 43.68C793.039 45.15 799.489 50.88 801.159 60.16C801.439 61.72 801.589 63.38 801.589 65.14C801.589 66.9 801.449 68.51 801.169 70.05L801.149 70.04Z" fill="#EFFFD6"/>
<path d="M500.289 25.35L560.689 59.64L628.129 27.62L634.339 0H493.879L500.289 25.35Z" fill="#EFFFD6"/>
<path d="M195.96 31.52C195.61 42.28 195.34 50.57 195.14 56.99L194.5 76.64L256.39 78.64L257.03 58.99C257.77 36.4 269.34 27.93 289.48 28.58L362.18 30.93C395.96 32.02 419.58 21.37 432.01 0H202.33C198.62 8.65 196.36 19.04 195.95 31.52H195.96Z" fill="#EFFFD6"/>
<path d="M783.969 43.6603C782.429 43.4103 780.809 43.2803 779.119 43.2803C777.429 43.2803 775.679 43.4203 774.069 43.6903C765.019 45.2003 758.579 50.9103 756.909 60.1403C756.629 61.7003 756.479 63.3603 756.479 65.1203C756.479 66.8803 756.619 68.4903 756.899 70.0303C757.899 75.6003 760.659 79.8803 764.679 82.7403V75.6603H793.349V82.7903C797.369 79.9303 800.129 75.6303 801.129 70.0303C801.409 68.4903 801.549 66.8503 801.549 65.1203C801.549 63.3903 801.399 61.7003 801.119 60.1403C799.449 50.8503 792.999 45.1303 783.949 43.6603H783.969Z" fill="#D3F1A7"/>
<path d="M764.689 75.6699V82.7499V113.66H793.369V82.7999V75.6699H764.689Z" fill="#D3F1A7"/>
</g>
<defs>
<clipPath id="clip0_287_80442">
<rect width="960" height="540" fill="white"/>
</clipPath>
</defs>
</svg>
