<svg width="960" height="540" viewBox="0 0 960 540" fill="none" xmlns="http://www.w3.org/2000/svg">
<g clip-path="url(#clip0_287_80489)">
<path d="M960 0H0V540H960V0Z" fill="#F0F1F2"/>
<path d="M335.901 473.91C337.041 467.5 337.641 460.7 337.641 453.49C337.641 446.28 337.031 439.28 335.871 432.8C332.441 413.7 324.131 398.23 312.061 386.73V398.69H175.881V386.93C163.821 398.41 155.521 413.81 152.081 432.8C150.911 439.28 150.301 446.19 150.301 453.49C150.301 460.79 150.901 467.5 152.051 473.91C158.281 508.56 180.771 531.3 212.861 540H275.621C307.411 531.3 329.721 508.55 335.901 473.91ZM269.271 443.98C268.131 450.39 264.971 455.31 260.371 458.58V493.89H227.571V458.53C222.971 455.26 219.821 450.36 218.671 443.99C218.351 442.23 218.191 440.35 218.191 438.37C218.191 436.39 218.361 434.46 218.681 432.67C220.591 422.11 227.961 415.58 238.311 413.85C240.151 413.54 242.071 413.38 244.081 413.38C246.091 413.38 247.861 413.53 249.621 413.81C259.971 415.49 267.351 422.04 269.261 432.66C269.581 434.45 269.751 436.34 269.751 438.36C269.751 440.38 269.591 442.22 269.271 443.98Z" fill="#F8F8F8"/>
<path d="M249.619 413.82C247.849 413.53 245.999 413.39 244.079 413.39C242.159 413.39 240.139 413.55 238.309 413.86C227.949 415.59 220.589 422.12 218.679 432.68C218.359 434.47 218.189 436.36 218.189 438.38C218.189 440.4 218.359 442.24 218.669 444C219.819 450.37 222.969 455.27 227.569 458.54V450.44H260.369V458.59C264.969 455.32 268.129 450.4 269.269 443.99C269.579 442.23 269.749 440.35 269.749 438.37C269.749 436.39 269.579 434.46 269.259 432.67C267.349 422.05 259.969 415.5 249.619 413.82Z" fill="#F0F1F2"/>
<path d="M302.289 351.9C300.819 360.15 297.889 367.47 293.689 373.7C300.499 377.22 306.649 381.58 312.059 386.73V339.44H303.359C303.359 339.44 303.359 339.48 303.359 339.51C303.359 343.78 302.999 347.95 302.299 351.91L302.289 351.9Z" fill="#F8F8F8"/>
<path d="M244.379 362.72C251.379 362.72 258.099 363.26 264.519 364.3C270.749 365.31 276.669 366.82 282.259 368.79C286.279 363.56 289.029 357.19 290.349 349.77C290.929 346.52 291.229 343.06 291.229 339.5C291.229 339.48 291.229 339.46 291.229 339.43H196.699C196.699 339.43 196.699 339.47 196.699 339.5C196.699 343.06 196.999 346.52 197.579 349.77C198.919 357.23 201.739 363.64 205.839 368.9C211.379 366.95 217.249 365.44 223.409 364.41C230.079 363.3 237.079 362.72 244.379 362.72Z" fill="#F8F8F8"/>
<path d="M185.649 351.92C184.939 347.96 184.579 343.78 184.579 339.5C184.579 339.48 184.579 339.46 184.579 339.43H175.869V386.92C181.309 381.74 187.509 377.36 194.379 373.81C190.109 367.56 187.139 360.2 185.639 351.91L185.649 351.92Z" fill="#F8F8F8"/>
<path d="M312.061 398.69V386.73C306.661 381.58 300.511 377.23 293.691 373.7C285.571 385.74 272.681 393.69 256.241 396.36C252.371 396.99 248.311 397.31 244.171 397.31C240.031 397.31 235.671 396.97 231.641 396.29C215.331 393.57 202.511 385.69 194.391 373.81C187.521 377.36 181.321 381.74 175.881 386.92V398.68H312.061V398.69Z" fill="#F8F8F8"/>
<path d="M233.64 384.34C240.27 385.45 247.72 385.47 254.29 384.4C266.44 382.43 275.93 377.04 282.26 368.79C276.67 366.82 270.74 365.31 264.52 364.3C258.11 363.26 251.38 362.72 244.38 362.72C237.38 362.72 230.08 363.3 223.41 364.41C217.25 365.44 211.38 366.94 205.84 368.9C212.17 377.01 221.6 382.34 233.64 384.34Z" fill="#F8F8F8"/>
<path d="M244.08 463.27C242.07 463.27 240.14 463.11 238.31 462.8C234.2 462.12 230.58 460.66 227.57 458.52V493.88H260.37V458.57C257.36 460.71 253.73 462.16 249.63 462.82C247.86 463.11 246.01 463.25 244.09 463.25L244.08 463.27Z" fill="#F0F1F2"/>
<path d="M227.571 450.43V458.53C230.581 460.67 234.211 462.12 238.311 462.81C240.151 463.12 242.071 463.28 244.081 463.28C246.091 463.28 247.861 463.13 249.621 462.85C253.721 462.18 257.351 460.74 260.361 458.6V450.45H227.561L227.571 450.43Z" fill="#F0F1F2"/>
<path d="M197.6 329.09C201.04 310.1 213.84 297.82 233.64 294.52C236.99 293.96 240.58 293.68 244.17 293.68C247.76 293.68 251.08 293.94 254.29 294.46C274.11 297.68 286.91 309.98 290.34 329.09C290.93 332.36 291.23 335.84 291.23 339.43H303.35C303.35 335.13 302.98 330.93 302.27 326.94C297.92 302.75 281.15 286.55 256.23 282.49C248.31 281.21 239.57 281.23 231.64 282.56C206.78 286.71 190.02 302.88 185.67 326.92C184.95 330.9 184.58 335.1 184.58 339.42H196.7C196.7 335.82 197 332.35 197.6 329.08V329.09Z" fill="#F8F8F8"/>
<path d="M291.23 339.5C291.23 343.06 290.94 346.52 290.35 349.77C289.03 357.18 286.27 363.56 282.26 368.79C286.24 370.19 290.06 371.83 293.69 373.7C297.89 367.47 300.82 360.15 302.29 351.9C303 347.94 303.35 343.77 303.35 339.5C303.35 339.48 303.35 339.46 303.35 339.43H291.23C291.23 339.43 291.23 339.47 291.23 339.5Z" fill="#F8F8F8"/>
<path d="M185.65 351.92C187.14 360.21 190.11 367.57 194.39 373.82C198.02 371.94 201.85 370.31 205.84 368.9C201.74 363.65 198.92 357.24 197.58 349.77C197 346.52 196.7 343.06 196.7 339.5C196.7 339.48 196.7 339.46 196.7 339.43H184.58C184.58 339.43 184.58 339.47 184.58 339.5C184.58 343.78 184.94 347.96 185.65 351.92Z" fill="#F8F8F8"/>
<path d="M254.291 384.4C247.711 385.47 240.271 385.45 233.641 384.34C221.601 382.33 212.181 377 205.841 368.9C201.851 370.31 198.021 371.94 194.391 373.82C202.511 385.7 215.331 393.58 231.641 396.3C235.671 396.97 239.891 397.32 244.171 397.32C248.451 397.32 252.371 397 256.241 396.37C272.681 393.7 285.571 385.75 293.691 373.71C290.061 371.83 286.251 370.2 282.261 368.8C275.931 377.05 266.431 382.44 254.291 384.41V384.4Z" fill="#F8F8F8"/>
<path d="M645.01 368.77C645.32 370.93 645.49 373.21 645.48 375.57C645.48 378.33 645.24 380.99 644.79 383.46C641.69 400.57 629.18 406.05 619.24 407.64C616.73 408.04 614.1 408.22 611.33 408.23C608.48 408.23 605.7 407.99 603.07 407.54C593.12 405.85 580.63 400.27 577.62 383.26C577.18 380.79 576.96 378.14 576.97 375.38C576.97 372.58 577.21 369.89 577.67 367.38C577.71 367.19 577.75 367.01 577.79 366.82C571.68 361.72 566.93 355.09 563.86 347.26C561.08 352.15 559.09 357.68 557.97 363.76C557.88 364.27 557.8 364.79 557.72 365.31V364.42H372.73V383.58H390.83C392.68 404.17 386.44 426.42 386.44 426.42H402.92C402.92 426.21 402.9 426.02 402.9 425.81C402.9 424.54 403.01 423.33 403.22 422.2C404.45 415.51 409.13 411.38 415.7 410.31C416.86 410.12 418.08 410.02 419.36 410.02C420.58 410.02 421.75 410.12 422.87 410.3C429.43 411.38 434.09 415.55 435.28 422.28C435.48 423.41 435.58 424.62 435.58 425.89C435.58 426.07 435.56 426.24 435.56 426.41H447.37C451.5 410.93 451.36 395.18 450.26 383.57H557.43C557.56 384.64 557.71 385.7 557.89 386.73C561.77 408.65 577.02 423.43 599.72 427.28C603.44 427.91 607.33 428.24 611.28 428.25H611.47C615.21 428.25 618.89 427.97 622.4 427.4C644.83 423.82 660.57 408.72 664.5 387.01C665.16 383.38 665.5 379.54 665.51 375.6C665.51 371.61 665.2 367.72 664.55 364.05C663.67 359.09 662.17 354.48 660.13 350.26C656.61 357.78 651.47 364.05 645 368.75L645.01 368.77Z" fill="#F8F8F8"/>
<path d="M588.221 349.31C592.911 345.76 598.391 344.03 603.251 343.23C605.841 342.8 608.571 342.59 611.371 342.59H611.521C614.261 342.59 616.921 342.81 619.431 343.23C624.791 344.12 630.891 346.15 635.841 350.53C641.421 345.32 643.861 338.38 644.851 332.37C644.851 332.34 644.851 332.31 644.861 332.28C638.611 327.88 631.131 324.86 622.701 323.46C619.131 322.87 615.381 322.56 611.571 322.55C607.631 322.58 603.731 322.84 600.011 323.46C592.571 324.68 585.931 327.09 580.211 330.53C580.281 331.09 580.351 331.65 580.441 332.2C581.341 337.8 583.471 344.22 588.231 349.31H588.221Z" fill="#F8F8F8"/>
<path d="M612.499 358.43C609.739 358.43 607.079 358.19 604.609 357.74C597.149 356.39 591.899 353.24 588.219 349.3C583.429 352.92 579.459 358.45 577.789 366.82C584.169 372.15 592.029 375.82 601.039 377.45C604.669 378.11 608.509 378.45 612.449 378.46C616.439 378.46 620.329 378.15 623.999 377.5C631.959 376.09 639.039 373.09 644.999 368.76C644.939 368.36 644.889 367.95 644.819 367.55C643.429 359.67 640.039 354.25 635.829 350.52C632.209 353.91 627.259 356.57 620.509 357.76C617.999 358.2 615.309 358.43 612.499 358.42V358.43Z" fill="white"/>
<path d="M665.521 324.52C665.491 320.58 665.231 316.68 664.621 312.96C660.901 290.27 646.201 274.95 624.311 270.92C623.801 270.83 623.281 270.75 622.761 270.67H623.641V85.6797H604.481V103.78C583.891 105.63 561.641 99.3897 561.641 99.3897V115.87C561.851 115.87 562.041 115.85 562.251 115.85C563.521 115.85 564.731 115.96 565.861 116.17C572.551 117.4 576.681 122.08 577.751 128.65C577.941 129.81 578.041 131.03 578.041 132.31C578.041 133.53 577.941 134.7 577.751 135.82C576.671 142.38 572.501 147.04 565.771 148.23C564.641 148.43 563.431 148.53 562.161 148.53C561.981 148.53 561.811 148.51 561.641 148.51V160.32C577.121 164.45 592.871 164.31 604.481 163.21V270.38C603.411 270.51 602.351 270.66 601.321 270.84C579.401 274.72 564.621 289.97 560.771 312.67C560.141 316.39 559.811 320.28 559.801 324.23V324.42C559.801 328.16 560.081 331.84 560.651 335.35C561.321 339.57 562.411 343.55 563.861 347.26C567.801 340.32 573.331 334.67 580.211 330.53C579.971 328.53 579.861 326.45 579.841 324.28C579.841 321.43 580.081 318.65 580.531 316.02C582.221 306.07 587.801 293.58 604.811 290.57C607.281 290.13 609.931 289.91 612.691 289.92C615.491 289.92 618.181 290.16 620.681 290.62C637.691 293.75 643.211 306.25 644.841 316.19C645.271 318.78 645.481 321.51 645.481 324.31V324.46C645.481 327.16 645.261 329.79 644.851 332.28C651.391 336.88 656.591 342.99 660.131 350.28C662.221 345.82 663.741 340.92 664.611 335.64C665.201 332.07 665.511 328.32 665.521 324.51V324.52Z" fill="white"/>
<path d="M926.88 287.12C930.68 287.12 934.29 287.43 937.71 288.08C928.57 237.24 897.54 216.65 847.95 216.65C806.24 216.65 778.26 230.94 764.94 265.1C764.08 265.07 763.21 265.06 762.32 265.06C730.05 265.06 707.18 285.17 700.41 323.35H879.92C887.32 299.57 904.19 287.12 926.87 287.12H926.88Z" fill="#F8F8F8"/>
<path d="M937.71 288.08C939.59 298.53 940.54 310.26 940.54 323.35H879.92C878.91 326.59 878.08 330.02 877.43 333.68H959.99V300.23C953.72 293.57 946.31 289.73 937.7 288.09L937.71 288.08Z" fill="white"/>
<path d="M115.1 476.45C114.22 380.58 72.28 317.01 0 297.3V378.8C30.28 394.61 48.5 428.04 49 482.92C49.16 500.63 47.44 520.64 43.1 539.99H109.02C113.76 518.14 115.27 495.79 115.1 476.44V476.45Z" fill="white"/>
<path d="M912.98 131.04L960 130.92V53.1201C937.28 72.8101 921.04 99.0101 912.98 131.04Z" fill="#F8F8F8"/>
<path d="M399.661 325.02C401.651 325.35 403.751 325.53 405.931 325.53C408.111 325.53 410.031 325.37 411.951 325.06C423.211 323.23 431.231 316.1 433.291 304.58C433.631 302.66 433.811 300.63 433.811 298.48C433.811 296.33 433.631 294.23 433.281 292.29C431.211 280.75 423.191 273.64 411.951 271.81C410.031 271.5 408.021 271.34 405.931 271.34C403.841 271.34 401.651 271.51 399.661 271.85C388.411 273.73 380.411 280.82 378.331 292.3C377.981 294.24 377.801 296.3 377.801 298.49C377.801 300.68 377.981 302.68 378.321 304.59C380.381 316.05 388.391 323.16 399.661 325.04V325.02Z" fill="white"/>
<path d="M399.661 259.23C401.651 259.56 403.751 259.74 405.931 259.74C408.111 259.74 410.031 259.58 411.951 259.27C423.211 257.44 431.231 250.31 433.291 238.79C433.631 236.87 433.811 234.84 433.811 232.69C433.811 230.54 433.631 228.44 433.281 226.5C431.211 214.96 423.191 207.85 411.951 206.02C410.031 205.71 408.021 205.55 405.931 205.55C403.841 205.55 401.651 205.72 399.661 206.06C388.411 207.94 380.411 215.03 378.331 226.51C377.981 228.45 377.801 230.51 377.801 232.7C377.801 234.89 377.981 236.89 378.321 238.8C380.381 250.26 388.391 257.37 399.661 259.25V259.23Z" fill="#F8F8F8"/>
<path d="M399.661 193.43C401.651 193.76 403.751 193.94 405.931 193.94C408.111 193.94 410.031 193.78 411.951 193.47C423.211 191.64 431.231 184.51 433.291 172.99C433.631 171.07 433.811 169.04 433.811 166.89C433.811 164.74 433.631 162.64 433.281 160.7C431.211 149.16 423.191 142.05 411.951 140.22C410.031 139.91 408.021 139.75 405.931 139.75C403.841 139.75 401.651 139.92 399.661 140.26C388.411 142.14 380.411 149.23 378.331 160.71C377.981 162.65 377.801 164.71 377.801 166.9C377.801 169.09 377.981 171.09 378.321 173C380.381 184.46 388.391 191.57 399.661 193.45V193.43Z" fill="#F8F8F8"/>
<path d="M399.661 127.63C401.651 127.96 403.751 128.14 405.931 128.14C408.111 128.14 410.031 127.98 411.951 127.67C423.211 125.84 431.231 118.71 433.291 107.19C433.631 105.27 433.811 103.24 433.811 101.09C433.811 98.9402 433.631 96.8402 433.281 94.9002C431.211 83.3602 423.191 76.2502 411.951 74.4202C410.031 74.1102 408.021 73.9502 405.931 73.9502C403.841 73.9502 401.651 74.1202 399.661 74.4602C388.411 76.3402 380.411 83.4302 378.331 94.9102C377.981 96.8502 377.801 98.9102 377.801 101.1C377.801 103.29 377.981 105.29 378.321 107.2C380.381 118.66 388.391 125.77 399.661 127.65V127.63Z" fill="white"/>
<path d="M343.41 206C341.49 205.69 339.48 205.53 337.39 205.53C335.3 205.53 333.11 205.7 331.12 206.04C319.87 207.92 311.87 215.01 309.79 226.49C309.44 228.43 309.26 230.49 309.26 232.68C309.26 234.87 309.44 236.87 309.78 238.78C311.84 250.24 319.85 257.35 331.12 259.23C333.11 259.56 335.21 259.74 337.39 259.74C339.57 259.74 341.49 259.58 343.41 259.27C354.67 257.44 362.69 250.31 364.75 238.79C365.09 236.87 365.27 234.84 365.27 232.69C365.27 230.54 365.09 228.44 364.74 226.5C362.67 214.96 354.65 207.85 343.41 206.02V206Z" fill="white"/>
<path d="M343.41 140.21C341.49 139.9 339.48 139.74 337.39 139.74C335.3 139.74 333.11 139.91 331.12 140.25C319.87 142.13 311.87 149.22 309.79 160.7C309.44 162.64 309.26 164.7 309.26 166.89C309.26 169.08 309.44 171.08 309.78 172.99C311.84 184.45 319.85 191.56 331.12 193.44C333.11 193.77 335.21 193.95 337.39 193.95C339.57 193.95 341.49 193.79 343.41 193.48C354.67 191.65 362.69 184.52 364.75 173C365.09 171.08 365.27 169.05 365.27 166.9C365.27 164.75 365.09 162.65 364.74 160.71C362.67 149.17 354.65 142.06 343.41 140.23V140.21Z" fill="white"/>
<path d="M343.41 74.4099C341.49 74.0999 339.48 73.9399 337.39 73.9399C335.3 73.9399 333.11 74.1099 331.12 74.4499C319.87 76.3299 311.87 83.4199 309.79 94.8999C309.44 96.8399 309.26 98.8999 309.26 101.09C309.26 103.28 309.44 105.28 309.78 107.19C311.84 118.65 319.85 125.76 331.12 127.64C333.11 127.97 335.21 128.15 337.39 128.15C339.57 128.15 341.49 127.99 343.41 127.68C354.67 125.85 362.69 118.72 364.75 107.2C365.09 105.28 365.27 103.25 365.27 101.1C365.27 98.9499 365.09 96.8499 364.74 94.9099C362.67 83.3699 354.65 76.2599 343.41 74.4299V74.4099Z" fill="#F8F8F8"/>
<path d="M470.389 259.23C472.379 259.56 474.479 259.74 476.659 259.74C478.839 259.74 480.759 259.58 482.679 259.27C493.939 257.44 501.959 250.31 504.019 238.79C504.359 236.87 504.539 234.84 504.539 232.69C504.539 230.54 504.359 228.44 504.009 226.5C501.939 214.96 493.919 207.85 482.679 206.02C480.759 205.71 478.749 205.55 476.659 205.55C474.569 205.55 472.379 205.72 470.389 206.06C459.139 207.94 451.139 215.03 449.059 226.51C448.709 228.45 448.529 230.51 448.529 232.7C448.529 234.89 448.709 236.89 449.049 238.8C451.109 250.26 459.119 257.37 470.389 259.25V259.23Z" fill="#F8F8F8"/>
<path d="M470.389 193.43C472.379 193.76 474.479 193.94 476.659 193.94C478.839 193.94 480.759 193.78 482.679 193.47C493.939 191.64 501.959 184.51 504.019 172.99C504.359 171.07 504.539 169.04 504.539 166.89C504.539 164.74 504.359 162.64 504.009 160.7C501.939 149.16 493.919 142.05 482.679 140.22C480.759 139.91 478.749 139.75 476.659 139.75C474.569 139.75 472.379 139.92 470.389 140.26C459.139 142.14 451.139 149.23 449.059 160.71C448.709 162.65 448.529 164.71 448.529 166.9C448.529 169.09 448.709 171.09 449.049 173C451.109 184.46 459.119 191.57 470.389 193.45V193.43Z" fill="white"/>
<path d="M470.389 127.63C472.379 127.96 474.479 128.14 476.659 128.14C478.839 128.14 480.759 127.98 482.679 127.67C493.939 125.84 501.959 118.71 504.019 107.19C504.359 105.27 504.539 103.24 504.539 101.09C504.539 98.9402 504.359 96.8402 504.009 94.9002C501.939 83.3602 493.919 76.2502 482.679 74.4202C480.759 74.1102 478.749 73.9502 476.659 73.9502C474.569 73.9502 472.379 74.1202 470.389 74.4602C459.139 76.3402 451.139 83.4302 449.059 94.9102C448.709 96.8502 448.529 98.9102 448.529 101.1C448.529 103.29 448.709 105.29 449.049 107.2C451.109 118.66 459.119 125.77 470.389 127.65V127.63Z" fill="#F8F8F8"/>
<path d="M471.9 466.73C462.4 461.62 450.7 459.31 437.34 459.31C401.54 459.31 377.48 478.09 377.48 527.39V539.99H444.8V527.39C444.8 495.35 454.96 476.21 471.9 466.72V466.73Z" fill="white"/>
<path d="M504.67 459.32C492.13 459.32 481.04 461.63 471.91 466.74C489.53 476.22 499.54 495.37 498.4 527.41V540.01H565.72V527.41C567.48 478.11 542.83 459.33 504.67 459.33V459.32Z" fill="#F8F8F8"/>
<path d="M625.74 489.32L609.76 540H737.8L731.89 510.82L625.74 489.32Z" fill="white"/>
<path d="M825.381 357.92L711.051 446.16H784.371V414.22H869.421V446.16H942.731L825.381 357.92Z" fill="white"/>
<path d="M869.419 446.16H784.369V539.99H869.419V446.16Z" fill="#F8F8F8"/>
<path d="M22.39 172.57H53.4C68.42 150.04 93.27 140.33 127.45 140.33C161.63 140.33 186.42 150.03 201.71 172.57H243.43C235.1 125.55 206.93 100.79 167.2 100.79C166.12 100.79 165.04 100.81 163.98 100.84C147.58 58.7797 113.12 41.1797 61.76 41.1797C37.46 41.1897 16.8 45.2197 0 53.9997V138.9C10.09 146.39 17.75 157.67 22.39 172.58V172.57Z" fill="#F8F8F8"/>
<path d="M201.71 172.57H53.4C50.28 177.25 47.58 182.46 45.31 188.27C44.45 188.24 43.59 188.23 42.72 188.23C25.38 188.23 10.79 194.11 0 205.53V245.91H219.08C219.08 213.42 213.14 189.42 201.71 172.58V172.57Z" fill="white"/>
<path d="M689.341 183.64H891.05C891.05 183.64 875.401 164.31 875.401 87C875.401 42.67 880.54 15.3 884.93 0H686.25C683.36 17.13 679.48 46.36 679.48 79.91C679.48 133.38 689.331 183.63 689.331 183.63L689.341 183.64ZM756.3 60.14C757.97 50.91 764.411 45.2 773.461 43.69C775.061 43.42 776.75 43.28 778.51 43.28C780.27 43.28 781.81 43.41 783.36 43.66C792.41 45.13 798.861 50.86 800.531 60.14C800.811 61.7 800.961 63.36 800.961 65.12C800.961 66.88 800.82 68.49 800.54 70.03C799.54 75.63 796.78 79.93 792.76 82.79V113.66H764.091V82.75C760.071 79.89 757.31 75.61 756.31 70.04C756.03 68.5 755.891 66.86 755.891 65.13C755.891 63.4 756.04 61.71 756.32 60.15L756.3 60.14Z" fill="white"/>
<path d="M560.07 59.64L627.51 27.62L633.72 0H493.26L499.67 25.35L560.07 59.64Z" fill="#F8F8F8"/>
<path d="M194.509 56.99L193.869 76.64L255.759 78.64L256.399 58.99C257.139 36.4 268.709 27.93 288.849 28.58L361.549 30.93C395.339 32.02 418.959 21.37 431.389 0H201.709C197.999 8.65 195.739 19.04 195.329 31.52C194.979 42.28 194.709 50.57 194.509 56.99Z" fill="white"/>
<path d="M764.07 82.75V75.67H792.74V82.8C796.76 79.94 799.52 75.64 800.52 70.04C800.8 68.5 800.94 66.86 800.94 65.13C800.94 63.4 800.79 61.71 800.51 60.15C798.84 50.86 792.39 45.14 783.34 43.67C781.8 43.42 780.18 43.29 778.49 43.29C776.8 43.29 775.05 43.43 773.44 43.7C764.39 45.21 757.95 50.92 756.28 60.15C756 61.71 755.85 63.37 755.85 65.13C755.85 66.89 755.99 68.5 756.27 70.04C757.27 75.61 760.03 79.89 764.05 82.75H764.07Z" fill="#F0F1F2"/>
<path d="M778.51 86.9C776.75 86.9 775.07 86.76 773.46 86.49C769.87 85.89 766.7 84.62 764.07 82.75V113.66H792.74V82.79C790.11 84.66 786.94 85.93 783.35 86.51C781.81 86.76 780.19 86.89 778.5 86.89L778.51 86.9Z" fill="#F0F1F2"/>
<path d="M764.07 75.6699V82.7499C766.7 84.6199 769.87 85.8899 773.46 86.4899C775.06 86.7599 776.75 86.8999 778.51 86.8999C780.27 86.8999 781.81 86.7699 783.36 86.5199C786.95 85.9399 790.12 84.6799 792.75 82.7999V75.6699H764.08H764.07Z" fill="#F0F1F2"/>
</g>
<defs>
<clipPath id="clip0_287_80489">
<rect width="960" height="540" fill="white"/>
</clipPath>
</defs>
</svg>
