<svg width="96" height="96" viewBox="0 0 96 96" fill="none" xmlns="http://www.w3.org/2000/svg">
<path d="M44.959 31.3301C32.4389 31.3301 22.299 41.4801 22.299 53.9901C22.299 63.4201 28.0589 71.5101 36.2589 74.9201V69.4501C36.2589 64.6401 40.159 60.7501 44.959 60.7501C49.7589 60.7501 53.6489 64.6501 53.6489 69.4501V74.9201C61.8489 71.5201 67.6189 63.4301 67.6189 53.9901C67.6189 41.4701 57.4689 31.3301 44.959 31.3301ZM44.959 58.3001C40.839 58.3001 37.499 54.9601 37.499 50.8401C37.499 46.7201 40.8289 43.3801 44.959 43.3801C49.089 43.3801 52.409 46.7101 52.409 50.8401C52.409 54.9701 49.0789 58.3001 44.959 58.3001Z" fill="#BF63F3"/>
<path d="M73.4989 26.52L68.9789 28.78L73.4989 31.04L75.7589 35.56L78.0189 31.04L82.5389 28.78L78.0189 26.52L75.7589 22L73.4989 26.52Z" fill="#FCA700"/>
<path d="M58.9689 35.5601L50.9689 39.5601L58.9689 43.5601L62.9689 51.5601L66.9689 43.5601L74.9689 39.5601L66.9689 35.5601L62.9689 27.5601L58.9689 35.5601Z" fill="#FCA700"/>
<path d="M65.9789 45.5398L62.9689 51.5598L58.9689 43.5598L50.9689 39.5598L58.4789 35.7998C61.7989 38.2798 64.4189 41.6398 65.9789 45.5398Z" fill="#AE2A19"/>
<path d="M58.4789 35.7998L50.9689 39.5598L58.9689 43.5598L62.9689 51.5598L65.9789 45.5398C64.4189 41.6398 61.7989 38.2798 58.4789 35.7998Z" fill="#AE2A19"/>
<path d="M18.669 49.2299C18.669 49.2299 18.659 49.2599 18.659 49.2799L19.219 49.6699H19.299L19.439 49.6499C19.439 49.6499 19.419 49.6499 19.409 49.6499C19.369 49.6299 19.319 49.5899 19.259 49.5599C19.149 49.5099 18.999 49.4999 18.869 49.5099C18.739 49.5099 18.609 49.5399 18.489 49.5699C18.389 49.5699 18.249 49.6099 18.269 49.9499L18.309 50.4999L19.369 50.3499C19.369 50.3499 19.439 50.3299 19.469 50.3099C20.309 49.8499 20.679 49.1699 21.019 48.3999C21.319 47.4999 21.159 47.1999 21.399 46.7199C21.829 45.7799 22.839 44.3199 23.089 43.9599C23.129 43.9099 23.159 43.8499 23.179 43.7899C23.329 43.3699 23.989 41.4999 24.779 40.0299C25.279 38.9699 25.589 38.3099 25.749 37.9699C25.949 37.5499 26.059 37.1999 26.179 36.8899C26.309 36.5499 26.419 36.2199 26.499 35.7799C26.549 35.5399 26.309 35.2299 26.029 35.2499C25.749 35.2699 25.499 35.2099 25.389 35.3099C25.189 35.5099 24.949 35.7499 24.709 36.0399C24.449 36.3599 24.259 36.7299 24.059 37.1299C23.909 37.4499 23.349 38.0099 22.849 38.9399C22.769 39.0899 22.709 39.2499 22.679 39.4199C22.389 40.8899 21.519 42.5499 21.519 42.5499C21.519 42.5499 20.339 45.1099 19.849 46.1899C19.529 47.0299 19.369 47.4299 19.279 47.6799C19.009 48.3699 18.829 48.8799 18.669 49.2099V49.2299Z" fill="#101214"/>
<path d="M21.449 33.6801C21.229 33.2501 20.159 33.5501 20.129 33.9701C20.089 34.5701 20.089 35.1901 20.199 36.0301C20.389 36.9801 20.679 37.2001 20.779 37.8401C21.009 38.9301 21.199 40.7901 21.239 41.2301C21.239 41.3001 21.259 41.3601 21.279 41.4201C21.359 41.6401 21.569 42.2201 21.769 42.9601C21.979 43.6901 22.129 44.5901 22.249 45.4901C22.469 46.7201 22.589 47.4501 22.639 47.8401C22.769 48.7501 22.929 49.3901 23.139 50.0501C23.249 50.4101 24.219 50.4601 24.339 50.0501C24.549 49.3201 24.609 48.5601 24.489 47.5801C24.439 47.2001 24.589 46.3701 24.439 45.2901C24.419 45.1101 24.369 44.9401 24.299 44.7801C23.999 44.0901 23.789 43.1801 23.609 42.5101C23.439 41.8301 23.329 41.3401 23.329 41.3401C23.329 41.3401 23.139 40.6301 22.919 39.7601C22.689 38.9001 22.439 37.9101 22.329 37.3201C22.139 36.4401 22.089 36.0101 22.049 35.7401C21.929 34.9201 21.739 34.2601 21.439 33.6601L21.449 33.6801Z" fill="#101214"/>
<path d="M17.6989 37.0901C17.1089 37.0101 17.0089 38.1601 17.1989 38.3401C17.5489 38.6601 17.8989 39.0601 18.6589 39.5901C19.4489 40.0501 19.7589 39.9901 20.2389 40.3701C21.0989 40.9701 22.2389 42.3401 22.4889 42.6801C22.5289 42.7301 22.5689 42.7701 22.6189 42.8101C22.9789 43.0601 24.5089 44.2901 25.5989 45.6201C26.4089 46.5201 26.9089 47.0801 27.1689 47.3701C27.7889 48.0601 28.3289 48.5201 28.9389 48.8901C29.2789 49.1001 29.9989 48.4601 29.8489 48.1001C29.5589 47.4501 29.1889 46.8501 28.5789 46.1301C28.3389 45.8601 28.0389 45.1101 27.3489 44.2701C27.2389 44.1301 27.0989 44.0201 26.9489 43.9201C26.2989 43.4901 25.6489 42.9101 25.1489 42.4401C24.6589 41.9601 24.2989 41.6201 24.2989 41.6201C24.2989 41.6201 23.7589 41.1101 23.0789 40.5401C22.3989 39.9601 21.5589 39.3201 21.0589 38.9601C20.2989 38.4201 19.9089 38.1701 19.6889 38.0201C19.0789 37.6201 18.4489 37.2001 17.6989 37.0801V37.0901Z" fill="#101214"/>
<path d="M14.139 43.2001C13.769 43.4601 14.209 44.4901 14.629 44.4601C15.229 44.4101 15.819 44.3001 16.569 44.0801C17.399 43.7801 17.569 43.5101 18.159 43.3901C19.159 43.1401 20.939 43.0901 21.379 43.0801C21.439 43.0801 21.509 43.0701 21.569 43.0501C21.999 42.9101 23.919 42.3701 25.629 41.9701C26.819 41.6401 27.559 41.3601 27.939 41.2201C28.839 40.8801 29.459 40.4601 29.979 39.9501C30.269 39.6701 29.799 38.8301 29.419 38.8801C28.739 38.9901 28.109 39.1601 27.279 39.4601C26.959 39.5801 26.1989 39.5701 25.219 39.8001C25.059 39.8401 24.909 39.9001 24.759 39.9801C23.479 40.7001 21.599 40.9801 21.599 40.9801C21.599 40.9801 18.819 41.5401 17.629 41.8401C16.739 42.0601 16.309 42.2001 16.049 42.2701C15.259 42.5101 14.669 42.8101 14.149 43.1901L14.139 43.2001Z" fill="#101214"/>
</svg>
