<svg width="960" height="540" viewBox="0 0 960 540" fill="none" xmlns="http://www.w3.org/2000/svg">
<g clip-path="url(#clip0_287_65825)">
<path d="M861.513 493.44H861.503L849.763 455.78L813.312 540H875.403L893.792 493.44H861.513Z" fill="#693200"/>
<path d="M578.592 464.42C577.542 452.21 573.752 439.92 567.272 427.86C560.712 415.65 552.462 405.6 542.762 397.94C528.452 386.64 511.672 380.92 493.162 380.91C485.872 380.91 478.312 381.8 470.542 383.62C459.902 386.1 449.112 390.25 438.472 395.97C427.372 401.93 417.632 408.85 409.522 416.51C400.172 425.33 393.112 434.98 388.382 445.24C383.652 455.5 381.252 466.37 381.242 477.67C381.242 479.97 381.342 482.3 381.542 484.64C382.602 496.91 386.442 509.32 393.012 521.54C395.082 525.38 397.332 528.98 399.722 532.39L420.082 528.19L455.122 520.89C451.662 519.71 448.452 517.95 445.542 515.63C443.142 513.72 440.892 511.43 438.812 508.81C436.732 506.21 434.812 503.27 433.062 500.01C429.502 493.38 427.382 486.91 426.842 480.73C426.762 479.76 426.712 478.79 426.712 477.82C426.712 472.74 427.902 467.81 430.252 463.1C432.602 458.39 436.102 453.91 440.702 449.57C442.982 447.42 445.502 445.35 448.232 443.37C451.812 440.75 455.742 438.28 460.022 435.98C467.082 432.18 474.092 429.44 480.882 427.86C485.152 426.86 489.192 426.35 493.022 426.35C497.132 426.35 501.002 426.94 504.602 428.15C508.202 429.36 511.542 431.18 514.582 433.59C519.462 437.45 523.692 442.79 527.242 449.41C530.712 455.88 532.782 462.25 533.312 468.35C533.392 469.33 533.442 470.31 533.442 471.29C533.442 476.4 532.262 481.36 529.902 486.09C527.552 490.82 524.052 495.32 519.452 499.67C515.282 503.62 510.362 507.25 504.832 510.53L547.072 501.73L574.882 495.89C577.512 488.01 578.852 479.82 578.852 471.38C578.852 469.08 578.752 466.76 578.552 464.43L578.592 464.42Z" fill="#693200"/>
<path d="M541.252 137.49L538.932 82.3999L448.322 86.2099L418.172 142.67L541.252 137.49Z" fill="#693200"/>
<path d="M442.361 86.4702L383.301 88.9502L385.621 144.04L412.211 142.92L442.361 86.4702Z" fill="#693200"/>
<path d="M75.2997 73.1501L77.6497 74.0201C77.1797 75.2901 76.8297 76.7401 76.4597 78.2801C76.0897 79.8201 75.7097 81.4701 75.0997 83.1201L74.2397 85.4701L32.5597 70.1001L20.6797 79.0601C23.5697 83.7701 27.3697 88.8301 31.9397 94.8801C45.6697 113.09 59.6597 126.2 73.4297 134.74C87.2097 143.27 100.76 147.24 113.78 147.24C128.82 147.24 143.26 141.94 156.64 131.87C161.02 128.57 164.81 125.2 168.11 121.77C159 115.82 152.09 108.81 146.6 101.27C140.61 93.0401 136.29 84.1901 132.46 75.3301C129.86 69.7001 127.59 64.6501 125.28 60.3301C124.69 61.6301 124.04 62.9001 123.29 64.0901C121.6 66.7801 119.46 69.1801 116.77 71.2101C114.9 72.6201 112.9 73.7301 110.8 74.4801C108.7 75.2301 106.49 75.6201 104.23 75.6201C100.27 75.6201 96.1697 74.4401 91.9997 72.1401C88.6397 70.2901 85.2197 67.7001 81.6997 64.3601C80.3197 67.2501 78.9697 70.4601 77.6597 74.0201L75.3097 73.1601L75.2997 73.1501Z" fill="#693200"/>
<path d="M806.612 0H752.742V49.74H806.612V0Z" fill="#693200"/>
<path d="M946.421 488.44L926.441 424.38L901.141 488.44H946.421Z" fill="#693200"/>
<path d="M116.991 48.7901C114.921 46.9001 112.641 45.4601 109.891 44.4501C107.851 43.7001 105.881 43.3301 103.981 43.3301C102.211 43.3301 100.481 43.6501 98.7513 44.3101C97.0213 44.9701 95.2712 45.9901 93.5212 47.4201C90.3312 50.0101 87.1212 54.0101 84.0312 59.5301L84.1113 59.6101L84.0612 59.7101C87.7412 63.3401 91.2013 66.0001 94.4113 67.7601C98.0213 69.7501 101.271 70.6201 104.221 70.6201C105.921 70.6201 107.531 70.3301 109.111 69.7701C110.691 69.2101 112.231 68.3601 113.751 67.2101C115.951 65.5501 117.651 63.6401 119.051 61.4201C120.261 59.4901 121.231 57.2901 122.041 54.8401C120.471 52.4801 118.821 50.4401 117.001 48.7801L116.991 48.7901Z" fill="#693200"/>
<path d="M123.7 213.73L0 187.34V237.11L110.14 277.29L123.7 213.73Z" fill="#693200"/>
<path d="M810.961 314.54L850.521 441.42L897.581 332.71H897.861L892.191 314.54H810.961Z" fill="#693200"/>
<path d="M0 242.59V257.92L101.22 279.51L0 242.59Z" fill="#693200"/>
<path d="M811.61 54.74H752.59V88.44H845.3V0H811.76V54.74H811.61Z" fill="#693200"/>
<path d="M655.622 54.7402H601.602V108.76H655.622V54.7402Z" fill="#693200"/>
<path d="M747.577 0H660.617V49.74H747.577V0Z" fill="#693200"/>
<path d="M197.141 37.85C197.761 36.35 198.471 34.91 199.291 33.55C201.011 30.68 203.231 28.12 206.071 25.99C209.801 23.16 214.061 21.58 218.601 21.59C222.451 21.59 226.441 22.71 230.501 24.89C233.781 26.65 237.121 29.12 240.561 32.3L240.601 32.22L240.641 32.26C241.951 29.48 243.241 26.42 244.491 23.03L248.861 11.19L290.081 26.39L301.761 17.58C299.201 13.35 295.381 8.27002 290.481 1.78002C290.031 1.18002 289.581 0.61002 289.131 0.0200195H178.391C182.851 6.93002 186.331 14.26 189.391 21.76C192.201 27.89 194.641 33.32 197.151 37.87L197.141 37.85Z" fill="#693200"/>
<path d="M327.008 163.24H401.358L409.468 148.05L383.328 149.15L380.828 149.25V149.24L380.678 149.25L378.048 86.67L377.938 84.17L445.098 81.34L469.398 35.83L449.668 0H382.358L404.438 34.41L327.008 163.24Z" fill="#693200"/>
<path d="M131.39 31.72V31.77L131.38 31.82C130.2 40.26 129.3 47.64 127.5 54.08V54.1V54.14C130.8 59.57 133.65 66 137 73.24V73.27L137.03 73.3C140.8 82.04 144.98 90.54 150.64 98.32C155.97 105.63 162.59 112.31 171.51 118.02C178.34 110.02 182.71 101.74 185.67 93.24C188.83 84.18 190.36 74.86 191.44 65.43V65.4V65.37C192.57 57.41 193.44 50.38 195.05 44.18L195.06 44.12C191.43 38.45 188.41 31.6 184.82 23.79L184.8 23.74L184.78 23.69C181.36 15.3 177.48 7.32 172.35 0H138.43C137.9 1.29 137.4 2.59 136.95 3.89C133.81 12.85 132.31 22.14 131.4 31.71L131.39 31.72Z" fill="#693200"/>
<path d="M205.238 48.6198C207.198 50.3198 209.358 51.6398 211.928 52.5898C213.978 53.3498 215.948 53.7198 217.858 53.7198C219.648 53.7198 221.398 53.3998 223.158 52.7098C224.918 52.0298 226.678 50.9798 228.458 49.5098C231.718 46.8198 234.998 42.6498 238.148 36.8798C234.598 33.4598 231.238 30.9498 228.128 29.2898C224.638 27.4198 221.478 26.5898 218.598 26.5898C215.218 26.5898 212.118 27.6998 209.078 29.9798C206.758 31.7298 204.998 33.7498 203.568 36.1298C202.318 38.2198 201.328 40.6098 200.508 43.2798C201.978 45.3498 203.528 47.1498 205.228 48.6198H205.238Z" fill="#693200"/>
<path d="M955.308 337.71H904.648L926.998 409.37L955.308 337.71Z" fill="#693200"/>
<path d="M253.71 56.9198C252.65 55.5098 251.81 54.0498 251.01 52.6798C250.81 52.3398 250.61 51.9998 250.42 51.6698C249.83 50.6798 249.26 49.7498 248.64 48.9398C246.29 45.8198 244 43.0598 241.78 40.6298C239.56 44.5098 237.23 47.7598 234.78 50.3898C231.71 53.6798 228.43 56.0298 224.96 57.3798C222.65 58.2798 220.25 58.7198 217.85 58.7198C215.29 58.7198 212.72 58.2198 210.19 57.2798C207.05 56.1298 204.33 54.4598 201.96 52.3998C200.9 51.4798 199.92 50.4698 198.98 49.4098C198 54.2598 197.28 59.8198 196.4 66.0398C195.3 75.6098 193.72 85.2998 190.38 94.8798C187.33 103.65 182.78 112.31 175.84 120.62C179.93 122.9 184.46 124.99 189.52 126.86C198.63 130.22 207.63 131.93 216.39 131.93C224.5 131.93 232.41 130.46 240.04 127.46C247.67 124.45 255.03 119.89 262.01 113.66C275.97 101.21 288.43 82.0498 298.23 55.4598C300.85 48.3498 303.03 42.4098 304.44 37.0698L290.94 32.0898L255.36 58.9198L255.3 58.8498L255.2 58.9198L253.69 56.9198H253.71Z" fill="#693200"/>
<path d="M252.788 45.9201C253.848 47.3301 254.688 48.7901 255.488 50.1601C255.798 50.7001 256.108 51.2301 256.418 51.7401L285.318 29.9401L251.808 17.5801L249.168 24.7301C247.638 28.8801 246.038 32.5701 244.398 35.9101C247.128 38.7901 249.928 42.1101 252.788 45.9101V45.9201Z" fill="#693200"/>
<path d="M124.52 288.01L114.04 284.19L113.4 287.22L113.15 287.17L113.12 287.27L0 263.15V316.56L100.71 353.29L124.52 288.01Z" fill="#693200"/>
<path d="M79.3984 540H266.748L170.008 481.86L79.3984 540Z" fill="#693200"/>
<path d="M387.84 540H399.17C398.64 539.33 398.12 538.65 397.6 537.97L387.84 540Z" fill="#693200"/>
<path d="M360.062 347.18V278.3H335.962V322.93H335.802H291.172V347.18H360.062Z" fill="#693200"/>
<path d="M160.97 476.42L104.02 442.61L37.4295 479.29C37.4395 479.52 37.4495 479.75 37.4595 480.02C37.5095 481.4 37.5295 483.29 37.5295 485.62C37.5295 496.47 37.0895 516.72 36.6595 534.28C36.6095 536.23 36.5595 538.14 36.5195 540H70.1595L165.25 478.98L160.98 476.42H160.97Z" fill="#693200"/>
<path d="M411.27 310.61L444.43 334.9L469.96 301.86L495.49 334.89L528.29 310.61L503.37 278.52L540.42 266.43L527.34 229.16L490.67 241.27V205.32H448.89V241.28L412.58 229.17L399.5 266.43L436.17 278.53L411.27 310.61Z" fill="#693200"/>
<path d="M905.349 216.19L959.999 79.73V21.04L874.359 216.19H905.349Z" fill="#693200"/>
<path d="M330.8 278.3H291.32V317.93H330.8V278.3Z" fill="#693200"/>
<path d="M129.63 209.88L114.88 279.02L115.12 279.11L115.09 279.25L130.92 285.03L103.68 359.71L0 321.88V540H31.51C31.56 538.1 31.61 536.15 31.66 534.15C32.09 516.61 32.53 496.35 32.53 485.61C32.53 482.68 32.5 480.44 32.43 479.26C32.43 479.2 32.43 479.15 32.42 479.1L30.64 477.32L99.04 439.65L95.07 437.29L91.31 435.06L163.72 395.18L171.95 399.58L172.01 399.54L234.69 433.01L238.31 434.94L238.25 434.98L306.28 471.31V540H363.33L394.35 533.54L394.32 533.5L394.42 533.48C392.37 530.44 390.44 527.24 388.64 523.9C381.79 511.15 377.72 498.08 376.6 485.06C376.39 482.58 376.28 480.11 376.28 477.67C376.28 465.66 378.85 454.04 383.87 443.14C388.89 432.24 396.36 422.07 406.12 412.86C414.6 404.87 424.7 397.71 436.14 391.56C447.13 385.65 458.33 381.34 469.44 378.75C477.55 376.86 485.49 375.91 493.19 375.91C512.73 375.91 530.73 382.03 545.89 394.02C556.17 402.15 564.85 412.76 571.7 425.5C578.46 438.08 582.48 451.04 583.59 464C583.8 466.47 583.91 468.93 583.91 471.38C583.91 479.37 582.77 487.18 580.55 494.71L580.71 494.68L580.69 494.74L656.42 478.97L649.57 449.81L648.14 443.74L719.86 490.48L691.79 540.01H807.88L847.5 448.48V448.47L804.18 309.56H895.89L903.12 332.73H960.02V209.17L955.2 221.21H908.91H908.76L886.38 277.1H797.75L912.33 15.92H956.63L960 8.24V0H850.3V93.44H747.59V54.75H660.63V113.77H596.61V49.74H655.63V0H455.38L475.09 35.79L450.89 81.1L543.71 77.19L546.45 142.27L415.43 147.78L415.27 147.79L404.36 168.23H318.17L398.56 34.48L376.42 0H295.4C300.57 6.86 304.56 12.2 307.21 17.02L308.25 18.92L295.64 28.43L295.74 28.47L295.69 28.51L310.34 33.91L309.85 36.05C308.38 42.41 305.9 49.12 302.93 57.18C295.42 77.54 286.34 93.81 276.04 106.24C265.74 118.66 254.21 127.24 241.88 132.1C233.67 135.34 225.11 136.92 216.39 136.92C206.98 136.92 197.39 135.08 187.79 131.54C182.11 129.45 177.03 127.06 172.45 124.44C168.78 128.34 164.55 132.15 159.64 135.85C145.57 146.47 130.02 152.24 113.77 152.23C99.72 152.23 85.22 147.92 70.79 138.98C56.35 130.03 41.96 116.47 27.94 97.88C22.77 91.02 18.45 85.31 15.21 79.65L14.12 77.74L26.93 68.08L11.75 62.48L12.2 60.36C13.42 54.65 15.9 47.97 19.13 39.19C24.81 23.8 31.46 10.78 38.89 0H0V182.23L129.63 209.88ZM604.29 205.92C610.6 170.57 618.83 148.1 619.43 146.49L620.28 144.21L684.11 166.24L747.92 144.22L748.77 146.5C749.37 148.1 757.64 170.58 763.91 205.93C767.87 228.2 771.06 255.47 771.06 286.02C771.06 316.57 767.86 343.87 763.91 366.11C757.6 401.46 749.37 423.93 748.77 425.53L747.92 427.82L684.1 405.8L620.28 427.82L619.43 425.54C618.83 423.94 610.57 401.46 604.29 366.11C600.34 343.84 597.14 316.57 597.14 286.03C597.14 255.48 600.34 228.17 604.29 205.94V205.92ZM409.49 222.87L443.89 234.34V200.32H495.67V234.36L530.44 222.89L546.83 269.6L511.68 281.08L535.38 311.6L494.52 341.84L469.96 310.05L445.4 341.83L406.24 313.13L404.17 311.61L427.88 281.07L393.1 269.6L409.49 222.89V222.87ZM172 317.93H216.63V203.76H335.8V273.3H365.06V352.19H286.17V322.93H221.63V367.56H172V317.93Z" fill="#693200"/>
<path d="M286.173 273.3H286.323H330.803V208.76H221.633V317.93H286.173V273.3Z" fill="#693200"/>
<path d="M216.63 322.93H177V362.56H216.63V322.93Z" fill="#693200"/>
<path d="M233.61 438.17L174.68 478.83L276.46 540H301.27V474.31L233.61 438.17Z" fill="#693200"/>
<path d="M664.528 513.54L657.528 483.82L578.688 500.24C573.798 513.31 565.547 525.46 554.117 536.25C552.767 537.53 551.367 538.77 549.938 540H602.948L667.297 525.31L664.528 513.54Z" fill="#693200"/>
<path d="M684.099 321.5C685.169 310.47 685.839 298.57 685.839 286.01C685.839 273.45 685.169 261.55 684.099 250.52C683.029 261.55 682.359 273.45 682.359 286.01C682.359 298.57 683.029 310.47 684.099 321.5Z" fill="#693200"/>
<path d="M951.801 216.19L960.001 195.7V93.5601L910.891 216.19H951.801Z" fill="#693200"/>
<path d="M683.818 511.27L676.427 479.89L669.338 481.36L662.438 482.81L669.597 513.28L672.167 524.2L686.107 521.01L683.818 511.27Z" fill="#693200"/>
<path d="M954.443 20.9199H915.593L805.383 272.08H882.973L903.353 221.19H866.713H866.553L954.443 20.9199Z" fill="#693200"/>
<path d="M171.96 405.27L109.25 439.81L163.68 472.13H163.69L169.96 475.9L228.55 435.48L171.96 405.27Z" fill="#693200"/>
<path d="M865.193 488.44H895.763L924.073 416.78L900.023 339.66L852.812 448.74L865.193 488.44Z" fill="#693200"/>
<path d="M571.76 503.86C572.12 503.07 572.45 502.27 572.78 501.48L547.97 506.65L481.92 520.51C481.18 520.71 480.44 520.91 479.7 521.09H479.66L477.26 521.6H477.23C476.11 521.83 475.01 522.01 473.92 522.17L421.16 533.05L403.07 536.82C403.13 536.9 403.19 536.98 403.25 537.06C404.05 538.06 404.87 539.04 405.71 540H542C545.04 537.63 547.93 535.18 550.64 532.62C559.98 523.8 567.04 514.14 571.76 503.86Z" fill="#693200"/>
<path d="M101.359 435.22L104.109 436.85L166.629 402.41L163.739 400.86L101.359 435.22Z" fill="#693200"/>
<path d="M668.598 397.71L668.618 397.66L668.688 397.47C668.748 397.3 668.838 397.05 668.948 396.73C669.168 396.08 669.488 395.12 669.878 393.88C670.668 391.39 671.768 387.76 673.028 383.11C675.538 373.82 678.678 360.5 681.228 344.27C681.328 343.61 681.428 342.95 681.528 342.28C681.528 342.25 681.528 342.21 681.528 342.18C681.528 342.07 681.538 341.95 681.548 341.83C679.148 325.59 677.358 306.7 677.358 286.01C677.358 265.32 679.128 246.68 681.498 230.52C681.488 230.28 681.478 230.03 681.468 229.79C681.468 229.62 681.468 229.46 681.458 229.29C681.378 228.78 681.308 228.26 681.228 227.75C676.488 197.56 669.698 177.43 668.718 174.62C668.658 174.45 668.618 174.34 668.608 174.32L667.678 171.91L676.448 168.88L623.298 150.54C620.998 157.19 614.448 177.51 609.218 206.8C605.308 228.79 602.148 255.81 602.148 286.01C602.148 316.21 605.308 343.19 609.218 365.22C614.418 394.51 620.988 414.83 623.298 421.48L676.438 403.14L667.678 400.12L668.608 397.72L668.598 397.71Z" fill="#693200"/>
<path d="M694.088 397.04C693.928 396.56 693.748 396.01 693.548 395.39C692.738 392.84 691.618 389.13 690.338 384.41C688.458 377.46 686.238 368.29 684.168 357.38C680.348 377.51 676.028 391.66 674.258 397.04L684.168 400.46L694.088 397.04Z" fill="#693200"/>
<path d="M699.752 174.32L699.732 174.36L699.662 174.55C699.602 174.72 699.512 174.97 699.402 175.29C699.182 175.94 698.862 176.9 698.472 178.14C697.682 180.63 696.582 184.26 695.322 188.91C692.812 198.2 689.672 211.52 687.122 227.75C687.052 228.22 686.932 228.91 686.812 229.6C686.762 229.88 686.722 230.16 686.672 230.43C689.052 246.61 690.832 265.42 690.832 286.01C690.832 306.6 689.142 324.44 686.852 340.33C686.872 340.64 686.892 340.97 686.912 341.31C686.972 342.32 687.032 343.4 687.082 343.97C687.092 344.13 687.112 344.25 687.112 344.26C691.852 374.45 698.632 394.58 699.622 397.39C699.682 397.55 699.712 397.65 699.722 397.67L700.672 400.09L691.822 403.15L744.892 421.46C747.192 414.81 753.742 394.49 758.972 365.2C762.882 343.21 766.042 316.19 766.042 285.99C766.042 255.79 762.882 228.81 758.972 206.78C753.772 177.49 747.192 157.17 744.892 150.52L691.822 168.83L700.672 171.88L699.732 174.29L699.752 174.32Z" fill="#693200"/>
<path d="M72.4602 54.1898C71.7102 53.2498 70.9602 52.2698 70.2002 51.2698L65.6602 45.2598L37.4102 66.5698L71.1402 79.0098C71.3002 78.4098 71.4502 77.7798 71.6002 77.1398C71.9702 75.5998 72.3502 73.9498 72.9602 72.2998C74.5602 67.9598 76.2302 64.0698 77.9702 60.5998C76.1602 58.6598 74.3302 56.5398 72.4702 54.1998L72.4602 54.1898Z" fill="#693200"/>
<path d="M684.178 171.55L674.258 174.97C674.418 175.45 674.598 176 674.788 176.63C675.598 179.18 676.718 182.89 677.998 187.6C679.878 194.55 682.098 203.71 684.168 214.63C687.988 194.5 692.318 180.35 694.088 174.97L684.178 171.55Z" fill="#693200"/>
<path d="M952.21 490.2L953.219 493.44H899.169L880.77 540H960V339.43L929.37 416.97L952.21 490.2Z" fill="#693200"/>
<path d="M448.611 511.61C451.171 513.64 453.921 515.14 456.921 516.14C459.931 517.14 463.201 517.65 466.811 517.66C468.641 517.66 470.551 517.52 472.551 517.25L480.641 515.56C486.421 513.95 492.501 511.45 498.761 508.09C505.491 504.47 511.281 500.37 515.991 495.93C520.261 491.9 523.371 487.85 525.401 483.77C527.431 479.68 528.411 475.56 528.421 471.22C528.421 470.4 528.381 469.57 528.311 468.73C527.861 463.46 526.041 457.74 522.821 451.76C519.531 445.63 515.681 440.86 511.471 437.53C508.861 435.47 506.061 433.94 503.021 432.92C499.971 431.9 496.671 431.38 493.041 431.38C489.651 431.38 485.991 431.83 482.021 432.76C475.731 434.23 469.111 436.79 462.391 440.41C458.331 442.59 454.631 444.92 451.291 447.35C448.711 449.23 446.331 451.18 444.211 453.19C439.941 457.22 436.841 461.26 434.811 465.33C432.781 469.41 431.801 473.51 431.801 477.83C431.801 478.65 431.841 479.48 431.911 480.32C432.371 485.67 434.241 491.52 437.561 497.7C439.171 500.7 440.911 503.36 442.761 505.69C444.611 508.01 446.581 509.99 448.631 511.62L448.611 511.61Z" fill="#693200"/>
<path d="M17.5881 59.31L31.6781 64.5L38.0881 59.66L66.5781 38.17L66.6281 38.24L66.7281 38.17L74.3281 48.25C76.4181 51.02 78.4481 53.48 80.4381 55.7C82.5981 52.03 84.8681 48.94 87.2481 46.43C90.2881 43.23 93.5281 40.94 96.9581 39.63C99.2381 38.75 101.608 38.32 103.978 38.32C106.528 38.32 109.088 38.82 111.618 39.75C114.978 40.99 117.858 42.81 120.358 45.09C121.548 46.18 122.648 47.37 123.688 48.64C124.758 43.6 125.508 37.76 126.418 31.16C127.348 21.41 128.888 11.72 132.218 2.21998C132.478 1.46998 132.758 0.72998 133.038 -0.0200195H45.0081C37.0581 10.86 29.8881 24.44 23.8181 40.9C20.9981 48.53 18.8181 54.49 17.5781 59.28L17.5881 59.31Z" fill="#693200"/>
<path d="M625.41 540H670.74L668.44 530.18L625.41 540Z" fill="#693200"/>
<path d="M655.84 454.73L661.29 477.93L668.4 476.45L677.79 474.48L680.18 473.98V474H680.19L688.33 508.62L692.13 524.77L673.31 529.07L675.88 540H686.02L713.17 492.09L655.84 454.73Z" fill="#693200"/>
<path d="M910.891 216.19L908.891 221.19H955.181L960.001 209.15V195.7L951.801 216.19H910.891Z" fill="#3A2C1F"/>
<path d="M956.783 15.92H960.003V8.25L956.633 15.92H956.783Z" fill="#3A2C1F"/>
<path d="M866.551 221.19H866.711L954.591 20.9199H954.441L866.551 221.19Z" fill="#3A2C1F"/>
<path d="M661.289 477.93L661.299 477.94L668.399 476.45L661.289 477.93Z" fill="#3A2C1F"/>
<path d="M478.533 516.1C479.233 515.94 479.942 515.76 480.652 515.56L472.562 517.25C473.233 517.16 473.902 517.05 474.592 516.94L476.163 516.62L478.543 516.11L478.533 516.1Z" fill="#3A2C1F"/>
<path d="M396.84 536.95C396.76 536.84 396.68 536.74 396.6 536.63L394.34 533.54L363.32 540H387.84L397.6 537.97C397.35 537.63 397.09 537.3 396.84 536.96V536.95Z" fill="#3A2C1F"/>
<path d="M572.799 501.43L547.969 506.64L572.779 501.47C572.779 501.47 572.789 501.44 572.799 501.43Z" fill="#3A2C1F"/>
<path d="M686.112 521.01L672.172 524.2L686.112 521.02L683.822 511.27L686.112 521.01Z" fill="#3A2C1F"/>
<path d="M680.19 474H680.18L688.33 508.62L680.19 474Z" fill="#3A2C1F"/>
<path d="M667.287 525.31L602.938 540H625.407L668.438 530.18L667.287 525.31Z" fill="#3A2C1F"/>
<path d="M403.061 536.83L421.151 533.06L403.031 536.8C403.031 536.8 403.051 536.82 403.051 536.83H403.061Z" fill="#3A2C1F"/>
<path d="M420.102 528.17L455.262 520.92C455.262 520.92 455.182 520.89 455.142 520.88L420.102 528.18V528.17Z" fill="#3A2C1F"/>
<path d="M504.688 510.62L547.097 501.72L504.857 510.52C504.797 510.55 504.738 510.59 504.688 510.62Z" fill="#3A2C1F"/>
<path d="M578.68 500.25L657.52 483.83L656.38 478.98H656.4V478.96L580.67 494.73L579.2 498.87C579.04 499.33 578.86 499.79 578.69 500.25H578.68Z" fill="#3A2C1F"/>
<path d="M676.43 479.88L669.34 481.36L676.43 479.89V479.88Z" fill="#3A2C1F"/>
<path d="M648.117 443.72L649.547 449.8L656.397 478.95V478.97L661.297 477.94L661.287 477.93L655.837 454.73L713.167 492.09L686.017 540H691.767L719.837 490.47L648.117 443.72Z" fill="#3A2C1F"/>
<path d="M662.422 482.82L669.602 513.28L662.442 482.81L662.422 482.82Z" fill="#3A2C1F"/>
<path d="M668.451 530.18L664.531 513.54L667.291 525.31L668.441 530.18L670.741 540H675.881L673.311 529.07L668.451 530.18Z" fill="#3A2C1F"/>
<path d="M101.359 435.22L163.739 400.86L166.629 402.41L171.849 399.54L171.919 399.58L171.939 399.57L163.699 395.17L91.2891 435.06L95.0491 437.29L99.0191 439.65L104.109 436.85L101.359 435.22Z" fill="#3A2C1F"/>
<path d="M161.128 476.43L104.088 442.56L104.008 442.61L160.968 476.42L165.228 478.98L165.308 478.94L161.118 476.42L161.128 476.43Z" fill="#3A2C1F"/>
<path d="M171.938 480.72L170.168 481.86L170.088 481.81L170.008 481.86L266.748 540H276.458L174.678 478.83L171.938 480.72Z" fill="#3A2C1F"/>
<path d="M238.239 434.98L233.609 438.17L301.269 474.31V540H306.269V471.31L238.239 434.98Z" fill="#3A2C1F"/>
<path d="M926.443 424.38V424.37L901.133 488.44H901.143L926.443 424.38Z" fill="#3A2C1F"/>
<path d="M904.652 337.71H955.312L927.002 409.37L929.372 416.97L960.002 339.43V332.71H903.102L904.652 337.71Z" fill="#3A2C1F"/>
<path d="M899.158 493.44H893.788L875.398 540H880.768L899.168 493.44H899.158Z" fill="#3A2C1F"/>
<path d="M847.479 448.47L807.859 540H813.309L849.759 455.78L847.479 448.47Z" fill="#3A2C1F"/>
<path d="M686.68 230.43C686.62 230.81 686.56 231.15 686.53 231.39L685.32 239.5C684.87 243.06 684.46 246.74 684.09 250.51C685.16 261.54 685.83 273.44 685.83 286C685.83 298.56 685.16 310.46 684.09 321.49C684.12 321.81 684.15 322.13 684.19 322.45L684.25 322.06L686.72 338.74C686.77 339.09 686.8 339.43 686.83 339.87C686.84 340.01 686.85 340.17 686.86 340.32C689.15 324.42 690.84 306.06 690.84 286C690.84 265.94 689.06 246.6 686.68 230.42V230.43Z" fill="#3A2C1F"/>
<path d="M684.25 166.24L691.84 168.86L744.91 150.55C747.21 157.19 753.79 177.52 758.99 206.81C762.9 228.84 766.06 255.82 766.06 286.02C766.06 316.22 762.9 343.24 758.99 365.23C753.76 394.51 747.2 414.84 744.91 421.49L691.84 403.18L684.25 405.8L684.17 405.77L684.09 405.8L747.91 427.82L748.76 425.53C749.36 423.92 757.59 401.45 763.9 366.11C767.86 343.88 771.05 316.57 771.05 286.02C771.05 255.47 767.85 228.2 763.9 205.93C757.63 170.58 749.36 148.1 748.76 146.5L747.91 144.22L684.1 166.24L684.17 166.27L684.24 166.24H684.25Z" fill="#3A2C1F"/>
<path d="M668.602 174.32C668.602 174.32 668.652 174.44 668.712 174.62C669.702 177.43 676.492 197.56 681.222 227.76C681.302 228.26 681.382 228.78 681.452 229.29C681.452 228.93 681.432 228.59 681.422 228.31C681.412 228.04 681.392 227.81 681.372 227.75C676.952 199.57 670.742 180.16 669.132 175.41C668.902 174.74 668.762 174.34 668.752 174.31L667.832 171.91L676.512 168.91L676.442 168.88L667.672 171.91L668.602 174.32Z" fill="#3A2C1F"/>
<path d="M668.752 397.71L668.772 397.66L668.842 397.47C668.902 397.3 668.992 397.05 669.102 396.73C669.322 396.08 669.642 395.12 670.032 393.88C670.822 391.39 671.922 387.76 673.182 383.11C675.692 373.82 678.832 360.5 681.382 344.27C681.382 344.24 681.422 343.92 681.452 343.54C681.482 343.18 681.502 342.74 681.532 342.28C681.432 342.94 681.332 343.61 681.232 344.27C678.682 360.5 675.552 373.82 673.032 383.11C671.772 387.75 670.672 391.39 669.882 393.88C669.482 395.12 669.172 396.08 668.952 396.73C668.842 397.06 668.752 397.3 668.692 397.47L668.622 397.66L668.602 397.71L667.672 400.11L676.432 403.13L676.512 403.1L667.832 400.1L668.752 397.7V397.71Z" fill="#3A2C1F"/>
<path d="M102.23 279.73L0 242.43V242.59L101.22 279.51L102.23 279.73Z" fill="#3A2C1F"/>
<path d="M130.93 285.03L115.1 279.25L114.04 284.19L124.52 288.01L100.71 353.29L0 316.56V321.88L103.69 359.7L130.93 285.03Z" fill="#3A2C1F"/>
<path d="M378.087 84.1698L445.087 81.3498L445.098 81.3398L377.938 84.1698L378.047 86.6698L380.677 149.25L380.827 149.24L378.087 84.1698Z" fill="#3A2C1F"/>
<path d="M451.05 81.0999L448.32 86.2099L538.93 82.3999L541.25 137.49L418.17 142.67L415.43 147.79L546.45 142.28L543.71 77.1899L450.9 81.0999L450.89 81.1099L451.05 81.0999Z" fill="#3A2C1F"/>
<path d="M404.172 311.6L406.242 313.12L445.402 341.82L469.962 310.04L494.522 341.83L535.382 311.59L511.682 281.07L546.832 269.59L530.442 222.88L495.672 234.35V200.31H443.892V234.33L409.492 222.86L393.102 269.57L427.882 281.04L404.172 311.58V311.6ZM399.502 266.43L412.572 229.17L448.882 241.27V205.31H490.662V241.26L527.342 229.16L540.412 266.42L503.372 278.52L528.292 310.61L495.482 334.89L469.952 301.85L444.422 334.9L411.262 310.6L436.162 278.53L399.492 266.43H399.502Z" fill="#3A2C1F"/>
<path d="M752.59 88.44V54.74H750.24H747.74H747.59V93.44H750.09H850.3V0H845.3V88.44H752.59Z" fill="#3A2C1F"/>
<path d="M747.74 0H747.59V49.74H747.74V0Z" fill="#3A2C1F"/>
<path d="M655.622 54.7402V108.77H601.602V54.7402H655.622V49.7402H596.602V113.77H599.102H660.622V54.7402H658.122H655.622Z" fill="#3A2C1F"/>
<path d="M330.951 278.3H330.801V317.93H330.951V278.3Z" fill="#3A2C1F"/>
<path d="M221.633 317.93V320.43V322.93H286.173V317.93H221.633Z" fill="#3A2C1F"/>
<path d="M221.633 317.93V208.76H330.803V273.3H335.803V203.76H216.633V317.93H219.133H221.633Z" fill="#3A2C1F"/>
<path d="M304.449 37.0598C303.039 42.4098 300.859 48.3398 298.239 55.4498C288.439 82.0398 275.979 101.2 262.019 113.65C255.039 119.88 247.679 124.44 240.049 127.45C232.419 130.46 224.509 131.92 216.399 131.92C207.649 131.92 198.639 130.21 189.529 126.85C184.469 124.98 179.939 122.89 175.849 120.61C175.199 121.39 174.539 122.16 173.839 122.94C173.389 123.44 172.919 123.94 172.449 124.44C177.029 127.06 182.119 129.45 187.789 131.54C197.389 135.08 206.979 136.92 216.389 136.92C225.109 136.92 233.659 135.34 241.879 132.1C254.209 127.24 265.739 118.66 276.039 106.24C286.339 93.8098 295.419 77.5398 302.929 57.1798C305.899 49.1098 308.379 42.4098 309.849 36.0498L310.339 33.9098L295.689 28.5098L290.939 32.0898L304.439 37.0698L304.449 37.0598Z" fill="#3A2C1F"/>
<path d="M184.799 23.74L184.819 23.79C188.409 31.6 191.429 38.45 195.059 44.12V44.17V44.18C195.159 43.8 195.249 43.41 195.359 43.04C195.869 41.23 196.459 39.51 197.149 37.85C194.639 33.3 192.199 27.87 189.389 21.74C186.319 14.24 182.849 6.91 178.389 0H172.359C177.489 7.32 181.359 15.3 184.789 23.69L184.809 23.74H184.799Z" fill="#3A2C1F"/>
<path d="M12.2 60.37L11.75 62.49L26.93 68.09L30.59 65.33L31.68 64.51L17.59 59.32C18.82 54.53 21.01 48.56 23.83 40.94C29.9 24.46 37.06 10.88 45.01 0H38.89C31.46 10.78 24.81 23.8 19.13 39.19C15.89 47.98 13.41 54.66 12.2 60.36V60.37Z" fill="#3A2C1F"/>
<path d="M66.6398 38.2502L66.5798 38.1802L38.0898 59.6702L66.5798 38.1802L66.6398 38.2502Z" fill="#3A2C1F"/>
<path d="M201.96 52.4001C204.34 54.4601 207.06 56.1301 210.19 57.2801C212.72 58.2101 215.29 58.7201 217.85 58.7201C220.26 58.7201 222.65 58.2801 224.96 57.3801C228.43 56.0301 231.71 53.6801 234.78 50.3901C237.23 47.7601 239.56 44.5101 241.78 40.6301C241 39.7701 240.22 38.9501 239.45 38.1801C239.01 37.7301 238.57 37.3101 238.14 36.8901C234.99 42.6601 231.71 46.8201 228.45 49.5201C226.67 50.9901 224.9 52.0401 223.15 52.7201C221.39 53.4001 219.64 53.7201 217.85 53.7301C215.94 53.7301 213.97 53.3601 211.92 52.6001C209.36 51.6501 207.2 50.3401 205.23 48.6301C203.53 47.1501 201.98 45.3601 200.51 43.2901C200.4 43.6601 200.27 44.0201 200.17 44.4101C199.73 45.9801 199.34 47.6601 198.98 49.4201C199.92 50.4901 200.9 51.4901 201.96 52.4101V52.4001Z" fill="#3A2C1F"/>
<path d="M240.631 32.25L240.591 32.21L240.551 32.29C240.551 32.29 240.581 32.32 240.591 32.33C240.601 32.3 240.611 32.28 240.631 32.25Z" fill="#3A2C1F"/>
<path d="M146.59 101.26C152.08 108.8 158.98 115.8 168.1 121.76C168.79 121.04 169.47 120.32 170.12 119.6C170.59 119.07 171.06 118.54 171.51 118.02C162.59 112.32 155.96 105.63 150.64 98.3201C144.97 90.5401 140.8 82.0301 137.03 73.3001V73.2701L137 73.2401C133.65 66.0001 130.8 59.5701 127.5 54.1401V54.1001V54.0801C127.39 54.4501 127.3 54.8401 127.19 55.2101C126.65 56.9901 126.01 58.7001 125.27 60.3301C127.58 64.6501 129.85 69.7001 132.45 75.3301C136.28 84.2001 140.61 93.0401 146.59 101.27V101.26Z" fill="#3A2C1F"/>
<path d="M84.0197 59.5301C87.1097 54.0101 90.3197 50.0201 93.5097 47.4201C95.2697 45.9901 97.0097 44.9701 98.7397 44.3101C100.48 43.6501 102.2 43.3301 103.97 43.3301C105.87 43.3301 107.83 43.7001 109.88 44.4501C112.62 45.4601 114.91 46.9101 116.98 48.7901C118.8 50.4501 120.45 52.4901 122.02 54.8501C122.14 54.4801 122.27 54.1301 122.39 53.7501C122.88 52.1601 123.3 50.4501 123.68 48.6501C122.64 47.3701 121.54 46.1801 120.35 45.1001C117.86 42.8201 114.97 41.0001 111.61 39.7601C109.09 38.8301 106.53 38.3301 103.97 38.3301C101.6 38.3301 99.2297 38.7601 96.9497 39.6401C93.5197 40.9501 90.2797 43.2401 87.2397 46.4401C84.8597 48.9501 82.5997 52.0401 80.4297 55.7101C81.2397 56.6101 82.0397 57.4801 82.8297 58.3001L84.0097 59.5201L84.0197 59.5301Z" fill="#3A2C1F"/>
<path d="M882.969 272.08H805.379L915.589 20.9199H954.439H954.589L956.129 17.4199L956.779 15.9199H956.629H912.329L797.719 277.08H801.549H886.349L908.729 221.19H903.349L882.969 272.08Z" fill="#3A2C1F"/>
<path d="M905.352 216.19H905.502L960.002 80.11V79.73L905.352 216.19Z" fill="#3A2C1F"/>
<path d="M482.021 432.76C485.991 431.83 489.651 431.38 493.041 431.38C496.671 431.38 499.981 431.9 503.021 432.92C506.071 433.94 508.861 435.46 511.471 437.53C515.691 440.86 519.531 445.63 522.821 451.76C526.041 457.74 527.861 463.46 528.311 468.73C528.381 469.57 528.421 470.4 528.421 471.22C528.421 475.56 527.441 479.68 525.401 483.77C523.371 487.85 520.261 491.9 515.991 495.93C511.291 500.37 505.491 504.47 498.761 508.09C492.511 511.45 486.421 513.95 480.641 515.56C479.931 515.76 479.221 515.94 478.521 516.11L480.771 515.64C486.531 514.03 492.591 511.55 498.821 508.2C505.551 504.58 511.341 500.47 516.041 496.03C520.311 491.99 523.411 487.95 525.451 483.86C527.481 479.77 528.461 475.64 528.471 471.29C528.471 470.46 528.431 469.63 528.361 468.78C527.911 463.5 526.091 457.77 522.861 451.77C519.561 445.63 515.721 440.85 511.501 437.51C508.881 435.44 506.091 433.91 503.041 432.89C499.991 431.87 496.681 431.35 493.051 431.35C489.671 431.35 486.011 431.8 482.051 432.73C475.761 434.2 469.141 436.77 462.421 440.39C458.351 442.58 454.631 444.92 451.281 447.36C454.621 444.93 458.331 442.6 462.381 440.42C469.111 436.8 475.721 434.24 482.011 432.77L482.021 432.76Z" fill="#3A2C1F"/>
<path d="M572.84 501.43H572.8C572.8 501.43 572.79 501.47 572.78 501.48C572.44 502.28 572.12 503.07 571.76 503.86C567.03 514.13 559.98 523.8 550.64 532.62C547.93 535.18 545.04 537.64 542 540H542.04C545.08 537.63 547.97 535.18 550.68 532.62C560.75 523.11 568.14 512.61 572.84 501.43Z" fill="#3A2C1F"/>
<path d="M393.031 521.52C386.461 509.3 382.621 496.89 381.561 484.62C381.361 482.28 381.261 479.96 381.261 477.65C381.261 466.35 383.671 455.48 388.401 445.22C393.131 434.96 400.191 425.3 409.541 416.49C417.661 408.84 427.401 401.92 438.491 395.95C449.121 390.23 459.921 386.08 470.561 383.6C478.331 381.79 485.891 380.89 493.181 380.89C511.691 380.89 528.471 386.62 542.781 397.92C552.471 405.58 560.721 415.63 567.291 427.84C573.771 439.89 577.561 452.19 578.611 464.4C578.811 466.73 578.911 469.05 578.911 471.35C578.911 479.79 577.571 487.98 574.941 495.86L580.551 494.68C582.781 487.14 583.921 479.33 583.911 471.35C583.911 468.91 583.801 466.45 583.591 463.97C582.481 451.02 578.461 438.06 571.701 425.47C564.851 412.73 556.171 402.12 545.891 393.99C530.741 382 512.741 375.87 493.191 375.88C485.491 375.88 477.551 376.82 469.441 378.72C458.331 381.31 447.131 385.63 436.141 391.53C424.701 397.68 414.601 404.84 406.121 412.83C396.361 422.03 388.891 432.21 383.871 443.11C378.851 454.01 376.271 465.62 376.281 477.64C376.281 480.09 376.391 482.55 376.601 485.03C377.721 498.05 381.791 511.12 388.641 523.87C390.441 527.22 392.371 530.41 394.421 533.45L399.761 532.35C397.371 528.95 395.111 525.34 393.051 521.5L393.031 521.52Z" fill="#3A2C1F"/>
<path d="M426.911 480.75C426.831 479.77 426.781 478.8 426.781 477.83C426.781 472.74 427.971 467.81 430.321 463.1C432.671 458.39 436.171 453.9 440.761 449.56C443.031 447.42 445.541 445.35 448.251 443.37C445.531 445.36 443.001 447.42 440.721 449.57C436.121 453.91 432.621 458.39 430.271 463.1C427.911 467.8 426.721 472.73 426.731 477.82C426.731 478.78 426.771 479.75 426.861 480.73C427.391 486.91 429.521 493.38 433.081 500.01C434.831 503.26 436.751 506.2 438.831 508.81C436.771 506.22 434.871 503.3 433.141 500.07C429.581 493.43 427.451 486.95 426.921 480.76L426.911 480.75Z" fill="#3A2C1F"/>
<path d="M403.031 536.8C403.101 536.89 403.171 536.98 403.241 537.07C403.181 536.99 403.121 536.91 403.061 536.83C403.061 536.82 403.041 536.81 403.041 536.8H403.031Z" fill="#3A2C1F"/>
<path d="M396.84 536.95C397.09 537.29 397.35 537.63 397.6 537.96C398.12 538.65 398.64 539.32 399.17 539.99H399.19C398.39 538.99 397.61 537.98 396.84 536.94V536.95Z" fill="#3A2C1F"/>
<path d="M472.552 517.25C470.552 517.52 468.632 517.66 466.812 517.66C463.202 517.66 459.932 517.15 456.922 516.14C453.912 515.13 451.162 513.64 448.612 511.61C446.562 509.98 444.592 508 442.742 505.68C444.612 508.04 446.602 510.05 448.682 511.7C451.232 513.73 453.972 515.22 456.972 516.22C459.972 517.22 463.242 517.72 466.842 517.73C468.812 517.73 470.892 517.56 473.072 517.25L474.592 516.94C473.902 517.06 473.232 517.17 472.562 517.25H472.552Z" fill="#3A2C1F"/>
<path d="M37.5228 485.61C37.5228 483.28 37.5028 481.39 37.4528 480.01C37.4528 479.74 37.4328 479.51 37.4228 479.28L104.013 442.6L104.093 442.56L99.1828 439.64L171.933 399.57L171.853 399.53L166.643 402.4L104.113 436.84L99.0328 439.64L30.6328 477.31L32.4128 479.09C32.4128 479.14 32.4128 479.2 32.4228 479.25C32.4928 480.42 32.5228 482.66 32.5228 485.6C32.5228 496.34 32.0928 516.6 31.6528 534.14C31.6028 536.13 31.5528 538.08 31.5028 539.99H36.5028C36.5528 538.13 36.6028 536.21 36.6428 534.27C37.0828 516.7 37.5128 496.46 37.5128 485.61H37.5228Z" fill="#3A2C1F"/>
<path d="M228.551 435.48L169.961 475.9L170.041 475.95L228.701 435.48L172.041 405.22L171.961 405.27L228.551 435.48Z" fill="#3A2C1F"/>
<path d="M170.088 481.81L165.308 478.94L165.228 478.98L70.1484 540H79.3984L170.008 481.86L170.088 481.81Z" fill="#3A2C1F"/>
<path d="M810.96 314.54H892.19L897.86 332.71H901.25H903.09L929.37 416.97L926.44 424.37V424.38L946.42 488.44H901.14H901.13L899.16 493.44H899.17H953.22L952.21 490.2L929.37 416.97L927 409.37L904.65 337.71L903.1 332.71L895.87 309.54H804.16L847.48 448.45L850.52 441.42L810.96 314.54Z" fill="#3A2C1F"/>
<path d="M852.801 448.73V448.74L865.181 488.44H865.191L852.811 448.74L852.801 448.73Z" fill="#3A2C1F"/>
<path d="M619.431 425.52L620.281 427.8L684.101 405.78L684.181 405.75L676.521 403.1L676.441 403.13L623.301 421.47C621.001 414.82 614.421 394.5 609.221 365.21C605.311 343.18 602.151 316.2 602.151 286C602.151 255.8 605.311 228.78 609.221 206.79C614.451 177.51 621.011 157.18 623.301 150.53L676.451 168.87L676.521 168.9L684.181 166.26L684.111 166.23L620.281 144.2L619.431 146.48C618.831 148.09 610.601 170.56 604.291 205.91C600.331 228.14 597.141 255.45 597.141 286C597.141 316.55 600.341 343.82 604.291 366.08C610.561 401.43 618.831 423.91 619.431 425.51V425.52Z" fill="#3A2C1F"/>
<path d="M684.182 171.55L694.092 174.97C692.322 180.35 687.992 194.5 684.172 214.63C684.202 214.77 684.222 214.9 684.252 215.03C688.092 194.69 692.462 180.39 694.242 174.97L684.252 171.52L684.182 171.55Z" fill="#3A2C1F"/>
<path d="M682.357 286.01C682.357 273.44 683.027 261.55 684.097 250.52C684.467 246.74 684.877 243.07 685.327 239.51L684.057 248.05L681.587 231.39C681.547 231.09 681.517 230.8 681.507 230.52C679.137 246.68 677.367 265.45 677.367 286.01C677.367 306.57 679.157 325.6 681.557 341.83C681.607 340.93 681.657 340.02 681.717 339.36C681.737 339.14 681.757 338.96 681.787 338.75L684.207 322.45C684.177 322.13 684.147 321.81 684.107 321.49C683.037 310.46 682.367 298.56 682.367 286L682.357 286.01Z" fill="#3A2C1F"/>
<path d="M693.562 395.39C693.762 396.01 693.942 396.56 694.102 397.04L684.182 400.46L684.262 400.49L694.252 397.04C694.092 396.56 693.912 396.01 693.712 395.38C692.902 392.83 691.782 389.12 690.502 384.41C688.602 377.37 686.342 368.07 684.252 356.98C684.222 357.11 684.202 357.25 684.172 357.38C686.242 368.29 688.462 377.46 690.342 384.41C691.622 389.13 692.742 392.83 693.552 395.39H693.562Z" fill="#3A2C1F"/>
<path d="M110.14 277.29L113.09 278.36L114.89 279.02L129.63 209.88L0 182.23V187.34L123.7 213.73L110.14 277.29Z" fill="#3A2C1F"/>
<path d="M113.15 287.17L0 263.03V263.15L113.12 287.27L113.15 287.17Z" fill="#3A2C1F"/>
<path d="M318.172 168.24H404.362L415.272 147.8L409.472 148.05L401.362 163.24H327.012L404.442 34.41L382.362 0H376.422L398.562 34.49L318.172 168.24Z" fill="#3A2C1F"/>
<path d="M445.1 81.34L445.09 81.35L450.89 81.11L450.9 81.1L475.09 35.79L455.38 0H449.67L469.4 35.83L445.1 81.34Z" fill="#3A2C1F"/>
<path d="M412.211 142.93L412.361 142.92L442.511 86.46L442.361 86.47L412.211 142.92V142.93Z" fill="#3A2C1F"/>
<path d="M752.742 49.74H806.762V0H806.612V49.74H752.742Z" fill="#3A2C1F"/>
<path d="M655.617 54.74H658.117H660.617H747.587H747.737V49.74H747.587H660.617V0H655.617V49.74V54.74Z" fill="#3A2C1F"/>
<path d="M360.062 278.3V347.18H291.172V322.93H288.822H286.322V273.3H286.172V317.93V322.93V352.18H288.672H365.062V273.3H335.962V278.3H360.062Z" fill="#3A2C1F"/>
<path d="M221.63 367.56V317.93H172V367.56H221.63ZM216.63 322.93V362.56H177V322.93H216.63Z" fill="#3A2C1F"/>
<path d="M301.747 17.56L290.067 26.37L295.647 28.43L308.257 18.92L307.217 17.02C304.567 12.2 300.577 6.86 295.407 0H289.117C289.567 0.59 290.017 1.16 290.467 1.76C295.367 8.25 299.177 13.33 301.747 17.56Z" fill="#3A2C1F"/>
<path d="M126.42 31.17C125.51 37.77 124.75 43.61 123.69 48.65C123.31 50.45 122.89 52.16 122.4 53.75C122.29 54.13 122.16 54.48 122.03 54.85C121.21 57.3 120.25 59.49 119.04 61.43C117.64 63.65 115.94 65.56 113.74 67.22C112.22 68.37 110.68 69.21 109.1 69.78C107.52 70.34 105.91 70.63 104.21 70.63C101.25 70.63 97.9997 69.76 94.3997 67.77C91.1897 66 87.7297 63.34 84.0497 59.72L83.2597 61.22C82.7297 62.22 82.1997 63.28 81.6797 64.37C85.1997 67.7 88.6297 70.29 91.9797 72.15C96.1497 74.45 100.25 75.63 104.21 75.63C106.48 75.63 108.68 75.24 110.78 74.49C112.88 73.74 114.87 72.63 116.75 71.22C119.44 69.19 121.58 66.79 123.27 64.1C124.02 62.9 124.67 61.64 125.26 60.34C126 58.71 126.63 57.01 127.18 55.22C127.29 54.85 127.39 54.47 127.49 54.09C129.3 47.65 130.2 40.27 131.37 31.83V31.78L131.38 31.73C132.29 22.16 133.79 12.87 136.93 3.91002C137.39 2.61002 137.88 1.31002 138.41 0.0200195H133.03C132.75 0.76002 132.47 1.51002 132.21 2.26002C128.88 11.76 127.34 21.45 126.41 31.2L126.42 31.17Z" fill="#3A2C1F"/>
<path d="M72.4602 54.1902C74.3202 56.5302 76.1502 58.6402 77.9602 60.5902C77.9802 60.5502 78.0001 60.5102 78.0201 60.4602C75.5201 57.7702 72.9702 54.7402 70.3502 51.2702L65.7602 45.1802L65.6602 45.2502L70.2001 51.2602C70.9601 52.2702 71.7102 53.2402 72.4602 54.1802V54.1902Z" fill="#3A2C1F"/>
<path d="M256.462 51.8199L285.422 29.9799L285.322 29.9399L256.422 51.7399C256.422 51.7399 256.452 51.7899 256.472 51.8199H256.462Z" fill="#3A2C1F"/>
<path d="M175.837 120.62C182.777 112.32 187.327 103.65 190.377 94.8801C193.707 85.3001 195.287 75.6101 196.397 66.0401C197.277 59.8201 197.997 54.2601 198.977 49.4101C199.337 47.6501 199.717 45.9701 200.167 44.4001C200.277 44.0201 200.397 43.6501 200.507 43.2801C201.327 40.6001 202.317 38.2101 203.567 36.1301C204.997 33.7501 206.757 31.7301 209.077 29.9801C212.117 27.7001 215.207 26.5901 218.597 26.5901C221.477 26.5901 224.637 27.4201 228.127 29.2901C231.237 30.9601 234.587 33.4701 238.147 36.8801C238.587 37.3001 239.017 37.7201 239.457 38.1701C240.227 38.9401 240.997 39.7601 241.787 40.6201C244.007 43.0501 246.297 45.8201 248.647 48.9301C249.257 49.7401 249.837 50.6701 250.427 51.6601C250.627 51.9901 250.817 52.3301 251.017 52.6701C251.817 54.0401 252.657 55.5001 253.717 56.9101L255.227 58.9101L255.327 58.8401L253.877 56.9201C252.817 55.5101 251.977 54.0501 251.177 52.6801C250.377 51.3101 249.627 50.0201 248.807 48.9401C245.617 44.7101 242.547 41.1301 239.607 38.1601L238.327 36.8701L239.157 35.2601C239.637 34.3201 240.127 33.3401 240.597 32.3301C240.587 32.3201 240.567 32.3001 240.557 32.2901C237.127 29.1201 233.777 26.6501 230.497 24.8801C226.447 22.7001 222.457 21.5801 218.597 21.5801C214.067 21.5801 209.807 23.1501 206.067 25.9801C203.227 28.1201 201.007 30.6701 199.287 33.5401C198.467 34.9101 197.767 36.3401 197.137 37.8401C196.447 39.4901 195.857 41.2201 195.347 43.0301C195.247 43.4001 195.147 43.7901 195.047 44.1701C193.437 50.3601 192.567 57.4001 191.437 65.3601V65.3901V65.4201C190.357 74.8401 188.817 84.1701 185.667 93.2301C182.707 101.73 178.337 110.01 171.507 118.01C171.057 118.54 170.597 119.07 170.117 119.59C169.467 120.31 168.787 121.03 168.097 121.75C164.797 125.18 161.007 128.55 156.627 131.85C143.247 141.93 128.817 147.22 113.767 147.22C100.747 147.22 87.2072 143.25 73.4172 134.72C59.6372 126.19 45.6572 113.07 31.9272 94.8601C27.3672 88.8101 23.5672 83.7601 20.6672 79.0401L32.5472 70.0801L27.0672 68.0601L66.6272 38.2301L66.5772 38.1601L38.0872 59.6501L31.6772 64.4901L30.5872 65.3101L26.9272 68.0701L14.1172 77.7301L15.2072 79.6401C18.4472 85.3101 22.7572 91.0101 27.9372 97.8701C41.9572 116.46 56.3472 130.02 70.7872 138.97C85.2172 147.91 99.7172 152.23 113.767 152.22C130.007 152.22 145.567 146.46 159.637 135.84C164.547 132.14 168.777 128.33 172.447 124.43C172.917 123.93 173.387 123.43 173.837 122.93C174.527 122.16 175.197 121.38 175.847 120.6L175.837 120.62Z" fill="#3A2C1F"/>
<path d="M956.131 17.4199L954.591 20.9199L866.711 221.19H903.351H908.731H908.891L910.891 216.19L960.001 93.5599V80.1099L905.501 216.19H905.351H874.361L960.001 21.0399V15.9199H956.781L956.131 17.4199Z" fill="#3A2C1F"/>
<path d="M578.682 500.25C578.852 499.79 579.032 499.33 579.192 498.87L580.662 494.73L580.682 494.67L580.522 494.7L574.912 495.88L547.102 501.72L504.692 510.62C503.552 511.29 502.392 511.96 501.202 512.6C494.612 516.14 488.152 518.79 481.922 520.51L547.972 506.65L572.802 501.44H572.842C568.142 512.62 560.752 523.11 550.682 532.62C547.972 535.18 545.082 537.64 542.042 540H549.932C551.362 538.77 552.762 537.53 554.112 536.25C565.542 525.46 573.792 513.31 578.682 500.24V500.25Z" fill="#3A2C1F"/>
<path d="M403.031 536.8L421.151 533.06L473.911 522.18C471.471 522.53 469.111 522.73 466.831 522.73C462.761 522.73 458.941 522.15 455.381 520.97C455.341 520.96 455.301 520.94 455.261 520.93L420.101 528.18L399.741 532.38L394.401 533.48L394.301 533.5L394.331 533.54L396.591 536.63C396.671 536.74 396.751 536.84 396.831 536.95C397.591 537.98 398.381 539 399.181 540H405.691C404.851 539.04 404.041 538.06 403.231 537.06C403.161 536.97 403.091 536.88 403.021 536.79L403.031 536.8Z" fill="#3A2C1F"/>
<path d="M478.53 516.11H478.5C478.34 516.15 478.23 516.18 478.16 516.2L478.08 516.22H478.07C477.55 516.35 476.96 516.43 476.22 516.58H476.21L476.16 516.59L474.59 516.91L473.07 517.22C474.11 517.07 475.16 516.9 476.24 516.68L478.55 516.2C479.29 516.02 480.04 515.82 480.79 515.61L478.54 516.08L478.53 516.11Z" fill="#3A2C1F"/>
<path d="M519.491 499.66C524.091 495.31 527.581 490.81 529.941 486.08C532.291 481.35 533.481 476.4 533.481 471.28C533.481 470.31 533.441 469.33 533.351 468.34C532.821 462.23 530.751 455.87 527.281 449.4C523.731 442.79 519.491 437.45 514.621 433.58C511.581 431.17 508.251 429.35 504.641 428.14C501.041 426.93 497.171 426.34 493.061 426.34C489.231 426.34 485.191 426.85 480.921 427.85C474.131 429.44 467.111 432.17 460.061 435.97C455.781 438.28 451.841 440.75 448.271 443.36C445.561 445.34 443.051 447.4 440.781 449.55C436.191 453.89 432.691 458.38 430.341 463.09C427.991 467.8 426.801 472.73 426.801 477.82C426.801 478.79 426.841 479.76 426.931 480.74C427.471 486.93 429.591 493.41 433.151 500.05C434.881 503.28 436.781 506.2 438.841 508.79C440.921 511.41 443.171 513.69 445.571 515.61C448.481 517.93 451.691 519.69 455.151 520.87C455.191 520.88 455.231 520.9 455.271 520.91C455.311 520.92 455.351 520.94 455.391 520.95C458.951 522.13 462.771 522.71 466.841 522.71C469.121 522.71 471.481 522.52 473.921 522.16C475.011 522 476.111 521.82 477.231 521.59H477.261L479.661 521.08H479.701C480.441 520.89 481.181 520.69 481.921 520.49C488.151 518.77 494.621 516.12 501.201 512.58C502.391 511.94 503.551 511.27 504.691 510.6C504.751 510.57 504.811 510.53 504.861 510.5C510.401 507.22 515.311 503.59 519.481 499.64L519.491 499.66ZM478.541 516.23L476.231 516.71C475.151 516.93 474.091 517.1 473.061 517.25C470.891 517.56 468.811 517.73 466.831 517.73C463.231 517.73 459.961 517.22 456.961 516.22C453.961 515.22 451.221 513.73 448.671 511.7C446.591 510.05 444.611 508.04 442.731 505.68C440.881 503.35 439.141 500.69 437.531 497.69C434.211 491.52 432.341 485.66 431.881 480.31C431.811 479.47 431.771 478.64 431.771 477.82C431.771 473.5 432.751 469.4 434.781 465.32C436.811 461.25 439.921 457.21 444.181 453.18C446.301 451.17 448.681 449.23 451.261 447.34C454.611 444.89 458.331 442.56 462.401 440.37C469.131 436.75 475.741 434.18 482.031 432.71C485.991 431.79 489.651 431.33 493.031 431.33C496.661 431.33 499.971 431.85 503.021 432.87C506.071 433.89 508.871 435.42 511.481 437.49C515.701 440.83 519.551 445.61 522.841 451.75C526.061 457.75 527.881 463.48 528.341 468.76C528.411 469.6 528.451 470.44 528.451 471.27C528.451 475.62 527.471 479.75 525.431 483.84C523.401 487.93 520.291 491.98 516.021 496.01C511.321 500.46 505.521 504.56 498.801 508.18C492.571 511.53 486.511 514.01 480.751 515.62C480.001 515.83 479.251 516.03 478.511 516.21L478.541 516.23Z" fill="#3A2C1F"/>
<path d="M657.531 483.83L664.531 513.55L668.451 530.19L673.321 529.08L692.141 524.78L688.341 508.63L680.191 474.01V473.99L677.801 474.49L668.411 476.46L661.301 477.95L656.411 478.98H656.391L657.531 483.83ZM672.171 524.2L669.601 513.29L662.421 482.82H662.441L669.341 481.37L676.431 479.88L683.821 511.28L686.111 521.02L672.171 524.2Z" fill="#3A2C1F"/>
<path d="M99.1797 439.65L104.09 442.57L161.13 476.43H161.12L165.31 478.94L170.09 481.81L170.17 481.86L171.94 480.72L174.68 478.83L233.61 438.18L238.24 434.99L238.3 434.95L234.68 433.02L172 399.55L171.94 399.59H171.93L99.1797 439.66V439.65ZM172.04 405.22L228.7 435.48L170.04 475.95L169.96 475.9L163.69 472.13H163.68L109.24 439.81L171.96 405.27L172.03 405.23L172.04 405.22Z" fill="#3A2C1F"/>
<path d="M861.5 493.44H899.16L901.141 488.44L926.451 424.37L929.37 416.97L903.091 332.71H897.57L850.521 441.42L847.48 448.45V448.46L849.76 455.78L861.5 493.44ZM900.021 339.65L924.07 416.77L895.76 488.44H865.18L852.8 448.74L900.01 339.65H900.021Z" fill="#3A2C1F"/>
<path d="M668.75 174.3C668.75 174.3 668.9 174.73 669.13 175.4C670.74 180.15 676.95 199.56 681.37 227.75C681.38 227.81 681.4 228.04 681.42 228.31C681.43 228.59 681.44 228.93 681.45 229.29C681.45 229.46 681.45 229.62 681.46 229.79C681.46 230.04 681.48 230.28 681.49 230.52C681.51 230.81 681.53 231.09 681.57 231.39L684.04 248.05L685.31 239.51L686.52 231.4C686.56 231.16 686.61 230.82 686.67 230.44C686.71 230.18 686.76 229.9 686.81 229.61C686.93 228.92 687.04 228.23 687.12 227.75C689.67 211.52 692.8 198.2 695.32 188.91C696.58 184.27 697.68 180.63 698.47 178.14C698.87 176.9 699.18 175.94 699.4 175.29C699.51 174.96 699.6 174.72 699.66 174.55L699.73 174.36L699.75 174.32L700.69 171.91L691.84 168.86L684.25 166.24L684.18 166.27L676.52 168.91L667.84 171.91L668.76 174.31L668.75 174.3ZM694.24 174.98C692.46 180.4 688.09 194.7 684.25 215.04C684.22 214.9 684.2 214.77 684.17 214.64C682.1 203.73 679.88 194.57 678 187.61C676.72 182.89 675.6 179.19 674.79 176.64C674.59 176.02 674.41 175.47 674.26 174.98L684.18 171.56L684.25 171.53L694.24 174.98Z" fill="#3A2C1F"/>
<path d="M691.838 403.16L700.688 400.1L699.738 397.68C699.738 397.68 699.698 397.56 699.638 397.4C698.648 394.59 691.858 374.46 687.128 344.27C687.128 344.27 687.108 344.13 687.098 343.98C687.048 343.4 686.988 342.32 686.928 341.32C686.908 340.98 686.888 340.66 686.868 340.34C686.858 340.19 686.848 340.03 686.838 339.89C686.808 339.45 686.778 339.11 686.728 338.76L684.258 322.08L684.198 322.47L681.778 338.77C681.748 338.97 681.728 339.16 681.708 339.38C681.648 340.04 681.598 340.95 681.548 341.85C681.548 341.97 681.538 342.08 681.528 342.2C681.528 342.23 681.528 342.27 681.528 342.3C681.498 342.76 681.478 343.2 681.448 343.56C681.418 343.94 681.388 344.26 681.378 344.29C678.828 360.52 675.698 373.84 673.178 383.13C671.918 387.77 670.818 391.41 670.028 393.9C669.628 395.14 669.318 396.1 669.098 396.75C668.988 397.08 668.898 397.32 668.838 397.49L668.768 397.68L668.748 397.73L667.828 400.13L676.508 403.13L684.168 405.78L684.248 405.81L691.838 403.19V403.16ZM684.168 357.38C684.198 357.25 684.218 357.12 684.248 356.98C686.338 368.07 688.588 377.37 690.498 384.41C691.778 389.13 692.898 392.83 693.708 395.38C693.908 396 694.088 396.55 694.248 397.04L684.258 400.49L684.178 400.46L674.268 397.04C676.038 391.66 680.368 377.51 684.178 357.38H684.168Z" fill="#3A2C1F"/>
<path d="M113.4 287.22L114.04 284.19L115.1 279.25L115.13 279.11L114.89 279.02L113.09 278.36L110.14 277.29L0 237.11V242.43L102.23 279.73L101.22 279.51L0 257.92V263.03L113.15 287.17L113.4 287.22Z" fill="#3A2C1F"/>
<path d="M448.32 86.2101L451.05 81.1001H450.89L445.09 81.3501L378.09 84.1701L380.83 149.25L383.33 149.15L409.48 148.05L415.28 147.81H415.44V147.8L418.17 142.68L448.32 86.2201V86.2101ZM385.62 144.04L383.3 88.9501L442.36 86.4701H442.52L412.37 142.92H412.21L385.62 144.05V144.04Z" fill="#3A2C1F"/>
<path d="M747.742 54.74H750.242H752.592H811.612H811.762V0H806.762V49.74H752.742V0H747.742V49.74V54.74Z" fill="#3A2C1F"/>
<path d="M286.32 273.3V322.93H335.95V273.3H286.32ZM330.96 317.93H291.33V278.3H330.96V317.93Z" fill="#3A2C1F"/>
<path d="M248.85 11.1699L244.48 23.0099C243.23 26.3999 241.95 29.4599 240.63 32.2399C240.62 32.2699 240.61 32.2899 240.59 32.3199C240.11 33.3299 239.63 34.3099 239.15 35.2499L238.32 36.8599L239.6 38.1499C242.54 41.1199 245.61 44.6999 248.8 48.9299C249.62 50.0099 250.37 51.2999 251.17 52.6699C251.97 54.0399 252.81 55.4999 253.87 56.9099L255.32 58.8299L255.38 58.8999L290.96 32.0699L295.71 28.4899L295.76 28.4499L295.66 28.4099L290.08 26.3499L248.86 11.1499L248.85 11.1699ZM249.17 24.7499L251.81 17.5999L285.32 29.9599L285.42 29.9999L256.46 51.8399C256.46 51.8399 256.43 51.7899 256.41 51.7599C256.1 51.2499 255.79 50.7299 255.48 50.1799C254.68 48.8099 253.84 47.3499 252.78 45.9399C249.92 42.1399 247.12 38.8199 244.39 35.9399C246.04 32.5999 247.63 28.9099 249.16 24.7599L249.17 24.7499Z" fill="#3A2C1F"/>
<path d="M27.0781 68.0802L32.5581 70.1002L74.2381 85.4702L75.0981 83.1202C75.7081 81.4602 76.0881 79.8202 76.4581 78.2802C76.8181 76.7402 77.1681 75.2902 77.6481 74.0202L75.2981 73.1502L77.6481 74.0102C78.9581 70.4602 80.3081 67.2502 81.6881 64.3502C82.2081 63.2502 82.7381 62.2002 83.2681 61.2002L84.0581 59.7002L84.1081 59.6002L84.0281 59.5202L82.8481 58.3002C82.0581 57.4802 81.2581 56.6102 80.4481 55.7102C78.4581 53.4902 76.4281 51.0302 74.3381 48.2602L66.7381 38.1802L66.6381 38.2502L27.0781 68.0802ZM72.9481 72.2902C72.3381 73.9502 71.9581 75.5902 71.5881 77.1302C71.4381 77.7702 71.2881 78.3902 71.1281 79.0002L37.3981 66.5602L65.6481 45.2502L65.7481 45.1802L70.3381 51.2702C72.9581 54.7402 75.5081 57.7702 78.0081 60.4602C77.9881 60.5002 77.9681 60.5402 77.9481 60.5902C76.2181 64.0602 74.5481 67.9502 72.9381 72.2902H72.9481Z" fill="#3A2C1F"/>
</g>
<defs>
<clipPath id="clip0_287_65825">
<rect width="960" height="540" fill="white"/>
</clipPath>
</defs>
</svg>
