<svg width="960" height="540" viewBox="0 0 960 540" fill="none" xmlns="http://www.w3.org/2000/svg">
<g clip-path="url(#clip0_287_66738)">
<path d="M0 184.17L126.53 211.16L111.85 279.98L112.09 280.07L112.06 280.21L127.59 285.87L102.06 355.85L0 318.62V540H33.85C34.52 514.07 35.31 477.96 34.61 477.26L103.92 439.08L96.19 434.49L163.58 397.37L171.81 401.77L171.87 401.73L233.35 434.56L233.29 434.6L303.62 472.16V540H372.32L398.5 534.55C398.5 534.55 398.48 534.52 398.47 534.51H398.49C395.67 530.63 393.06 526.49 390.68 522.06C383.97 509.58 380.01 496.84 378.92 484.19C376.67 458.14 386.62 433.88 407.67 414.03C415.97 406.21 425.89 399.17 437.15 393.11C447.96 387.3 458.96 383.07 469.83 380.53C497.93 373.98 523.63 379.1 544.16 395.33C554.15 403.23 562.61 413.55 569.32 426.03C575.94 438.35 579.85 450.98 580.92 463.56C581.92 475.28 580.46 486.64 576.65 497.39H576.68C576.68 497.39 576.67 497.42 576.66 497.43L659.25 480.23L651.81 448.58L716.33 490.64L688.36 540.01H810.13L849.97 447.97V447.96L807.39 311.4H893.86L901.09 334.57H958.81L926.55 416.24L949.65 490.31H897.29L877.66 540.01H959.97V201.44L953.32 218.04H907.03H906.88L884.5 273.93H801.39L913.82 17.78H958.12L959.99 13.51V0H847.65V90.29H749.94V51.6H657.98V110.62H598.96V51.6H657.98V0H452.74L472.11 35.16L446.49 83.13L541.18 79.15L543.71 139.24L413.76 144.71L413.6 144.72L402.72 165.1H322.45L401.36 33.81L379.67 0H292.62C298.11 7.27 302.26 12.81 304.88 17.58L290.34 28.54L290.44 28.58L290.39 28.62L307.27 34.84C305.86 40.97 303.41 47.6 300.44 55.67C275.28 123.9 232.55 144.79 188.52 128.55C182.24 126.23 176.73 123.57 171.84 120.62C167.98 124.92 163.42 129.12 158 133.21C120.53 161.47 73.59 153.8 29.8 95.73C24.62 88.87 20.37 83.22 17.25 77.76L31.96 66.67L14.52 60.24C15.67 54.83 18.11 48.19 21.35 39.41C27.09 23.81 33.84 10.72 41.34 0H0V184.17ZM606.61 205.71C612.89 170.55 621.07 148.21 621.63 146.72L683.97 168.23L746.3 146.72C746.86 148.21 755.08 170.55 761.32 205.71C765.25 227.86 768.43 254.98 768.43 285.36C768.43 315.74 765.25 342.89 761.32 365.01C755.04 400.17 746.86 422.51 746.3 424L683.97 402.49L621.64 424C621.08 422.51 612.86 400.17 606.62 365.01C602.69 342.86 599.51 315.74 599.51 285.36C599.51 254.98 602.69 227.82 606.62 205.71H606.61ZM410.89 225.37L446.25 237.16V202.17H493.03V237.16L528.76 225.37L543.49 267.36L507.39 279.15L531.7 310.46L494.87 337.72L469.83 305.31L444.78 337.72L407.58 310.46L431.89 279.15L396.16 267.36L410.89 225.37ZM174.36 319.78H218.99V205.61H333.16V275.15H362.42V349.04H288.53V319.78H218.99V364.41H174.36V319.78Z" fill="#292A2E"/>
<path d="M66.0092 41.1003L65.9492 41.0303L31.9492 66.6703L65.9492 41.0303L66.0092 41.1003Z" fill="#292A2E"/>
<path d="M611.199 540H673.329L670.159 526.54L611.199 540Z" fill="#292A2E"/>
<path d="M429.259 479.88C428.359 469.43 432.639 459.89 442.339 450.72C444.529 448.65 446.959 446.66 449.589 444.73C446.939 446.66 444.499 448.66 442.309 450.73C432.599 459.89 428.319 469.41 429.219 479.85C429.719 485.61 431.709 491.77 435.149 498.16C436.839 501.3 438.679 504.11 440.649 506.58C438.699 504.12 436.879 501.33 435.199 498.22C431.759 491.81 429.759 485.64 429.259 479.88Z" fill="#292A2E"/>
<path d="M684.211 339.59C686.501 323.73 688.201 305.4 688.201 285.36C688.201 265.32 686.411 245.93 684.011 229.76C683.971 229.99 683.941 230.21 683.911 230.38C683.891 230.26 683.881 230.12 683.871 229.97C681.491 246.09 679.711 264.84 679.711 285.36C679.711 305.88 681.511 324.87 683.911 341.07C683.971 339.97 684.041 338.9 684.101 338.47C684.131 338.69 684.171 339.1 684.201 339.59H684.211Z" fill="#292A2E"/>
<path d="M73.6328 540H272.543L169.833 478.27L73.6328 540Z" fill="#292A2E"/>
<path d="M197.633 43.0802C201.163 48.3302 205.223 52.1802 210.923 54.2902C221.833 58.3102 232.183 53.0502 241.103 35.7702C227.843 22.3702 216.593 20.4402 207.443 27.3402C202.293 31.2202 199.483 36.4902 197.633 43.0702V43.0802Z" fill="#292A2E"/>
<path d="M80.8425 59.5202C94.3825 73.5102 105.823 75.5702 115.113 68.5702C120.003 64.8802 122.793 59.9602 124.653 53.8502C120.953 48.0002 116.723 43.7202 110.623 41.4702C99.8625 37.5002 89.6425 42.6102 80.8125 59.3002C80.8425 59.3302 80.8825 59.3702 80.9125 59.4102C80.8925 59.4502 80.8725 59.4902 80.8525 59.5302L80.8425 59.5202Z" fill="#292A2E"/>
<path d="M953.352 218.04L960.003 201.44V85.8398L907.062 218.04H953.352Z" fill="#505258"/>
<path d="M958.283 17.7798H960.003V13.5098L958.133 17.7798H958.283Z" fill="#505258"/>
<path d="M667.047 513.28L659.267 480.24H659.287V480.22L576.697 497.42C572.027 510.59 563.837 522.85 552.267 533.78C550.007 535.92 547.607 537.99 545.117 539.99H611.207L670.177 526.53L667.057 513.28H667.047Z" fill="#505258"/>
<path d="M399.178 535.44C399.038 535.26 398.898 535.08 398.768 534.89C398.688 534.78 398.598 534.66 398.508 534.55L372.328 540H402.808C402.248 539.34 401.698 538.67 401.158 537.99C400.488 537.15 399.828 536.3 399.178 535.44Z" fill="#505258"/>
<path d="M651.84 448.58L659.28 480.23V480.24L678.16 476.28L688.99 522.24L670.17 526.54L667.05 513.28L670.16 526.54L673.33 540H688.39L716.37 490.63L651.84 448.58Z" fill="#3B3D42"/>
<path d="M233.298 434.6L170.408 477.99L169.978 478.27L169.908 478.22L169.828 478.27L272.538 540H303.628V472.16L233.298 434.6Z" fill="#3B3D42"/>
<path d="M171.798 401.77H171.818L163.577 397.37L96.1875 434.49L103.917 439.08L171.727 401.73L171.798 401.77Z" fill="#3B3D42"/>
<path d="M897.32 490.3H863.21H863.2L850 447.96L810.16 540H877.69L897.33 490.3H897.32Z" fill="#505258"/>
<path d="M958.837 334.56H901.117L926.587 416.23L958.837 334.56Z" fill="#505258"/>
<path d="M684.109 168.24L697.269 172.78C697.149 173.09 689.639 194.05 684.519 226.72C684.409 227.43 684.169 228.79 684.009 229.77C686.409 245.94 688.199 264.76 688.199 285.37C688.199 305.98 686.509 323.74 684.209 339.6C684.309 341.08 684.409 343.36 684.519 344.02C689.639 376.69 697.149 397.65 697.269 397.96L684.109 402.5L684.029 402.47L683.949 402.5L746.279 424.01C746.839 422.52 755.019 400.18 761.299 365.02C765.229 342.91 768.409 315.75 768.409 285.37C768.409 254.99 765.229 227.87 761.299 205.72C755.059 170.56 746.839 148.22 746.279 146.73L683.949 168.24L684.019 168.27L684.089 168.24H684.109Z" fill="#3B3D42"/>
<path d="M127.59 285.87L112.06 280.21L111.34 283.61L111.09 283.55L111.06 283.66L0 259.97V318.62L102.06 355.85L127.59 285.87Z" fill="#3B3D42"/>
<path d="M446.638 83.1304L413.758 144.7L543.708 139.24L541.178 79.1504L446.488 83.1304V83.1404L446.638 83.1304Z" fill="#3B3D42"/>
<path d="M407.58 310.45L444.78 337.71L469.82 305.3L494.87 337.71L531.7 310.45L507.39 279.15L543.49 267.36L528.75 225.37L493.03 237.16V202.17H446.25V237.16L410.89 225.37L396.16 267.36L431.89 279.15L407.58 310.45Z" fill="#3B3D42"/>
<path d="M808.969 51.6H750.099H749.949V90.29H847.659V0H809.119V51.6H808.969Z" fill="#3B3D42"/>
<path d="M657.981 51.5996H598.961V110.62H657.981V51.5996Z" fill="#3B3D42"/>
<path d="M288.53 275.15H288.69H333.17V205.61H219V319.78H288.53V275.15Z" fill="#505258"/>
<path d="M14.5078 60.24L31.9478 66.67L65.9478 41.03L65.9978 41.1L66.0978 41.03L72.1978 49.11C75.1578 53.03 78.0178 56.39 80.7978 59.28C89.6278 42.59 99.8578 37.48 110.608 41.45C116.708 43.7 120.938 47.98 124.638 53.82V53.84C124.638 53.84 124.638 53.84 124.638 53.83C126.578 47.46 127.508 39.78 128.748 30.83C129.748 20.31 131.468 10 135.318 0H41.3378C33.8378 10.72 27.0878 23.81 21.3378 39.41C18.0978 48.19 15.6578 54.82 14.5078 60.24Z" fill="#3B3D42"/>
<path d="M255.66 54.6903L255.56 54.7704C254.15 52.9004 253.06 50.7504 251.82 48.7304C251.4 48.0604 250.97 47.4003 250.5 46.7803C248.48 44.1003 246.49 41.6604 244.55 39.4604C243.38 38.1403 242.23 36.9103 241.1 35.7603C232.18 53.0403 221.83 58.3003 210.92 54.2803C205.22 52.1803 201.15 48.3204 197.63 43.0704V43.0504C195.89 49.2304 194.99 56.5804 193.79 65.0504C191.6 84.0504 187.57 103.11 171.84 120.61C176.73 123.56 182.24 126.23 188.52 128.54C232.55 144.78 275.28 123.89 300.44 55.6604C303.41 47.5904 305.86 40.9604 307.27 34.8304L290.39 28.6104L255.71 54.7603C255.71 54.7603 255.68 54.7104 255.66 54.6804V54.6903Z" fill="#3B3D42"/>
<path d="M958.28 17.7803H958.13H913.82L801.41 273.93H884.52L906.9 218.04H870.4L958.28 17.7803Z" fill="#3B3D42"/>
<path d="M398.77 534.89C398.91 535.07 399.05 535.25 399.18 535.44C399.04 535.26 398.9 535.08 398.77 534.89Z" fill="#505258"/>
<path d="M402.82 540C402.26 539.34 401.71 538.67 401.16 537.99C401.7 538.67 402.25 539.34 402.81 540H402.82Z" fill="#505258"/>
<path d="M473.341 519.07C462.721 520.6 454.041 518.63 446.971 513.01C444.731 511.23 442.611 509.079 440.631 506.589C438.651 504.119 436.811 501.31 435.131 498.17C431.691 491.78 429.701 485.619 429.201 479.859C428.301 469.419 432.581 459.899 442.291 450.739C444.491 448.669 446.931 446.669 449.571 444.739C453.041 442.199 456.881 439.78 461.071 437.53C467.961 433.82 474.781 431.17 481.321 429.64C494.281 426.62 504.611 428.339 512.901 434.899C517.451 438.499 521.491 443.56 524.911 449.94C528.261 456.17 530.201 462.22 530.691 467.91C531.591 478.43 527.311 488.01 517.601 497.19C512.711 501.81 506.741 506.039 499.841 509.749C493.431 513.199 487.171 515.759 481.181 517.429L576.641 497.39C580.451 486.64 581.911 475.28 580.911 463.56C579.831 450.98 575.931 438.35 569.311 426.03C562.601 413.55 554.141 403.229 544.151 395.329C523.621 379.099 497.911 373.98 469.821 380.53C458.951 383.07 447.951 387.299 437.141 393.109C425.871 399.169 415.951 406.21 407.661 414.03C386.611 433.88 376.671 458.15 378.911 484.19C380.001 496.84 383.961 509.579 390.671 522.059C393.051 526.489 395.661 530.629 398.481 534.499L473.321 519.059L473.341 519.07Z" fill="#505258"/>
<path d="M169.912 478.22L162.272 473.63L104.082 439.08L171.812 401.77L171.732 401.73L103.922 439.08L34.6116 477.26C35.3116 477.96 34.5216 514.07 33.8516 540H73.6316L169.832 478.27L169.902 478.22H169.912Z" fill="#505258"/>
<path d="M899.082 334.56H901.112L926.582 416.23L897.322 490.3H897.332H949.682L926.592 416.23L901.122 334.56L893.892 311.39H807.422L850.002 447.95L899.082 334.56Z" fill="#3B3D42"/>
<path d="M621.63 424L683.96 402.49L684.039 402.46L670.96 397.94C671.08 397.63 678.59 376.67 683.71 344C683.78 343.54 683.85 342.28 683.93 341.06C681.53 324.87 679.729 306.01 679.729 285.35C679.729 264.69 681.51 246.08 683.89 229.96C683.81 228.99 683.839 227.47 683.719 226.71C678.599 194.04 671.079 173.08 670.969 172.77L684.06 168.25L683.99 168.22L621.65 146.71C621.09 148.2 612.91 170.54 606.63 205.7C602.7 227.81 599.52 254.97 599.52 285.35C599.52 315.73 602.7 342.85 606.63 365C612.87 400.16 621.09 422.5 621.65 423.99L621.63 424Z" fill="#505258"/>
<path d="M126.53 211.15L0 184.17V239.17L111.85 279.98L126.53 211.15Z" fill="#505258"/>
<path d="M111.09 283.55L0 259.86V259.97L111.06 283.66L111.09 283.55Z" fill="#505258"/>
<path d="M322.449 165.09H402.719L413.599 144.72L383.089 146L380.559 85.91L446.489 83.14V83.13L472.109 35.16L452.739 0H379.669L401.359 33.8L322.449 165.09Z" fill="#505258"/>
<path d="M749.951 51.6H750.1V0H657.98V51.6H749.951Z" fill="#505258"/>
<path d="M333.171 319.78H288.691V275.15H288.531V319.78V349.04H362.421V275.15H333.321V319.78H333.171Z" fill="#3B3D42"/>
<path d="M218.989 319.78H174.359V364.41H218.989V319.78Z" fill="#3B3D42"/>
<path d="M124.65 53.83C124.65 53.83 124.65 53.83 124.65 53.84C122.79 59.95 120 64.87 115.11 68.56C105.82 75.56 94.38 73.5 80.84 59.51C78.87 63.26 76.97 67.57 75.15 72.5C74.07 75.43 73.69 78.68 72.61 81.61L32.1 66.67L66.01 41.1L65.96 41.03L31.96 66.67L17.25 77.76C20.37 83.22 24.63 88.87 29.8 95.73C73.58 153.79 120.52 161.46 158 133.21C163.42 129.12 167.98 124.92 171.84 120.62C187.56 103.12 191.6 84.07 193.79 65.06C194.99 56.59 195.89 49.24 197.63 43.06C199.48 36.48 202.29 31.22 207.44 27.33C216.59 20.43 227.84 22.36 241.1 35.76C242.24 36.91 243.39 38.14 244.55 39.46C246.49 41.66 248.48 44.09 250.5 46.78C250.97 47.4 251.4 48.06 251.82 48.73C253.07 50.74 254.16 52.9 255.56 54.77L255.66 54.69C253.81 52.21 252.51 49.25 250.65 46.78C247.41 42.48 244.27 38.82 241.23 35.75C243.11 32.11 244.93 27.97 246.68 23.23L250.18 13.73L290.33 28.54L304.87 17.58C302.26 12.82 298.1 7.28 292.61 0H135.33C131.47 10 129.76 20.31 128.76 30.83C127.52 39.78 126.59 47.46 124.65 53.83Z" fill="#505258"/>
<path d="M958.278 17.7803L870.398 218.04H906.898H907.058L959.998 85.8403V17.7803H958.278Z" fill="#292A2E"/>
<path d="M576.692 497.43C576.692 497.43 576.702 497.4 576.712 497.38H576.682L481.222 517.42C480.472 517.63 479.722 517.83 478.982 518.01L476.602 518.51C475.492 518.73 474.422 518.91 473.352 519.06L398.512 534.5H398.492C398.492 534.5 398.512 534.53 398.522 534.54C398.602 534.66 398.692 534.77 398.782 534.88C398.922 535.06 399.062 535.24 399.192 535.43C399.842 536.29 400.502 537.14 401.172 537.98C401.712 538.66 402.262 539.33 402.832 539.99H545.122C547.612 537.98 550.002 535.92 552.272 533.78C563.842 522.86 572.032 510.59 576.702 497.42L576.692 497.43Z" fill="#3B3D42"/>
<path d="M499.88 509.75C506.77 506.04 512.75 501.82 517.64 497.19C527.35 488.01 531.63 478.43 530.73 467.91C530.24 462.22 528.29 456.17 524.95 449.94C521.53 443.56 517.48 438.5 512.94 434.9C504.65 428.34 494.32 426.61 481.36 429.64C474.82 431.17 468 433.82 461.11 437.53C456.92 439.79 453.08 442.2 449.61 444.74C446.98 446.66 444.55 448.66 442.36 450.73C432.65 459.9 428.37 469.44 429.28 479.89C429.78 485.66 431.78 491.83 435.22 498.23C436.89 501.34 438.71 504.13 440.67 506.59C442.65 509.08 444.77 511.23 447.01 513.01C454.08 518.63 462.76 520.59 473.38 519.07C474.45 518.92 475.52 518.74 476.63 518.52L479.01 518.02C479.75 517.84 480.5 517.64 481.25 517.43C487.25 515.77 493.51 513.2 499.91 509.75H499.88Z" fill="#292A2E"/>
<path d="M667.049 513.28L670.169 526.54L688.99 522.24L678.159 476.28L659.28 480.24L659.27 480.25L667.049 513.28Z" fill="#3B3D42"/>
<path d="M104.07 439.08L162.27 473.63L169.91 478.22L169.98 478.27L170.41 477.99L233.3 434.6L233.36 434.56L171.88 401.73L171.82 401.77H171.8L104.07 439.08Z" fill="#292A2E"/>
<path d="M863.21 490.3H897.32L926.58 416.23L901.11 334.56H899.08L850 447.95V447.96L863.2 490.3H863.21Z" fill="#292A2E"/>
<path d="M684.021 229.76C684.181 228.79 684.411 227.43 684.531 226.71C689.651 194.04 697.161 173.08 697.281 172.77L684.121 168.23L684.051 168.26L670.961 172.78C671.081 173.09 678.591 194.05 683.711 226.72C683.831 227.48 683.801 229 683.881 229.97C683.891 230.12 683.911 230.26 683.921 230.38C683.951 230.21 683.981 229.99 684.021 229.76Z" fill="#292A2E"/>
<path d="M697.269 397.95C697.149 397.64 689.639 376.68 684.519 344.01C684.419 343.35 684.309 341.07 684.209 339.59C684.179 339.1 684.139 338.7 684.109 338.47C684.049 338.89 683.979 339.96 683.919 341.07C683.849 342.29 683.779 343.55 683.699 344.01C678.579 376.68 671.059 397.64 670.949 397.95L684.029 402.47L684.109 402.5L697.269 397.96V397.95Z" fill="#292A2E"/>
<path d="M111.34 283.61L112.06 280.21L112.09 280.06L111.85 279.98L0 239.17V259.86L111.09 283.55L111.34 283.61Z" fill="#292A2E"/>
<path d="M446.492 83.1399L380.562 85.9099L383.092 146L413.603 144.72L413.763 144.71V144.7L446.643 83.1299L446.492 83.1399Z" fill="#292A2E"/>
<path d="M808.972 51.6H809.122V0H750.102V51.6H808.972Z" fill="#292A2E"/>
<path d="M288.688 319.78H333.168H333.318V275.15H333.168H288.688V319.78Z" fill="#292A2E"/>
<path d="M246.692 23.2305C244.942 27.9705 243.122 32.1105 241.242 35.7505C244.272 38.8205 247.412 42.4805 250.662 46.7805C252.522 49.2505 253.822 52.2105 255.672 54.6905C255.692 54.7105 255.702 54.7405 255.722 54.7705L290.402 28.6205L290.452 28.5805L290.352 28.5405L250.202 13.7305L246.702 23.2305H246.692Z" fill="#3B3D42"/>
<path d="M32.0998 66.6703L72.6098 81.6103C73.6898 78.6803 74.0798 75.4303 75.1498 72.5003C76.9698 67.5703 78.8698 63.2603 80.8398 59.5103C80.8598 59.4703 80.8798 59.4303 80.8998 59.3903C80.8698 59.3603 80.8298 59.3203 80.7998 59.2803C78.0198 56.3903 75.1498 53.0303 72.1998 49.1103L66.0998 41.0303L65.9998 41.1003L32.0898 66.6703H32.0998Z" fill="#3B3D42"/>
</g>
<defs>
<clipPath id="clip0_287_66738">
<rect width="960" height="540" fill="white"/>
</clipPath>
</defs>
</svg>
