<svg width="115" height="216" viewBox="0 0 115 216" fill="none" xmlns="http://www.w3.org/2000/svg">
<path d="M79.4805 52.3213V72.8057V106.409V115.846V148.989V169.934H113.772V52.3213H79.4805Z" stroke="#1868DB" stroke-width="2" stroke-miterlimit="10"/>
<path d="M45.4181 50.0195C20.2402 50.0195 6.45446 68.8698 2.33485 93.9804C1.43728 99.4122 1 105.12 1 111.012C1 116.904 1.41426 122.843 2.21977 128.274H37.2479C35.6599 123.648 34.8314 117.917 34.8314 111.012C34.8314 104.107 35.706 98.6297 37.409 93.9804C40.8612 84.5668 47.7656 79.4802 58.0761 79.4802C70.0437 79.4802 79.4797 94.3256 79.4797 94.3256V72.8055C73.0356 58.7657 61.5283 50.0195 45.4181 50.0195Z" stroke="#1868DB" stroke-width="2" stroke-miterlimit="10"/>
<path d="M56.6952 142.545C47.0752 142.545 40.516 137.826 37.2479 128.275C35.6599 123.648 34.8314 117.917 34.8314 111.012C34.8314 104.108 35.706 98.6297 37.409 93.9805H2.33485C1.43728 99.4123 1 105.12 1 111.012C1 116.905 1.41426 122.843 2.21977 128.275C6.13225 154.398 19.5267 172.235 43.3468 172.235C59.457 172.235 72.3451 164.64 79.4797 148.989V128.275C79.4797 128.275 68.6628 142.545 56.6952 142.545Z" stroke="#1868DB" stroke-width="2" stroke-miterlimit="10"/>
</svg>
