<svg width="95" height="216" viewBox="0 0 95 216" fill="none" xmlns="http://www.w3.org/2000/svg">
<path d="M67.3054 140.703C53.4966 140.703 44.4519 135.778 39.4348 128.275C36.1897 123.395 34.6247 117.457 34.6247 111.012C34.6247 104.568 35.9825 98.8599 38.9514 93.9805H2.72649C1.59878 99.3202 1.02344 105.028 1.02344 111.012C1.02344 116.997 1.5988 122.866 2.74953 128.275C8.3881 154.835 28.0195 172.466 63.3929 172.466C75.1303 172.466 85.717 170.164 93.3119 165.791V136.33C86.4075 138.862 79.5031 140.703 67.3054 140.703Z" stroke="#1868DB" stroke-width="2" stroke-miterlimit="10"/>
<path d="M61.7815 49.79C27.6969 49.79 8.27258 67.4895 2.70306 93.9811C1.57534 99.3208 1 105.029 1 111.013C1 116.997 1.57536 122.866 2.72609 128.275H39.4113C36.1663 123.396 34.6013 117.458 34.6013 111.013C34.6013 104.568 35.9591 98.8605 38.928 93.9811C43.669 86.1326 52.5526 80.8619 66.5915 80.8619C77.4084 80.8619 85.2333 82.9333 92.598 86.3857V56.4647C82.9319 51.8615 74.4164 49.79 61.7584 49.79H61.7815Z" stroke="#1868DB" stroke-width="2" stroke-miterlimit="10"/>
</svg>
