<svg width="113" height="216" viewBox="0 0 113 216" fill="none" xmlns="http://www.w3.org/2000/svg">
<path d="M111.93 121.14V112.164C111.93 75.5681 96.7406 49.79 58.9967 49.79C21.2528 49.79 1 75.7983 1 112.164C1 148.529 21.2528 172.236 67.0518 172.236C81.0907 172.236 96.2803 169.704 106.867 165.331V137.251C95.3597 140.934 81.7812 143.236 67.9725 143.236C47.4895 143.236 37.5932 136.331 34.8314 121.14C33.4966 115.961 33.6347 108.044 34.3711 102.497C35.9821 85.2349 43.3468 75.338 58.0761 75.338C72.8054 75.338 79.0194 84.3143 80.4002 102.497C81.1367 112.141 81.0907 121.14 81.0907 121.14H111.93Z" stroke="#1868DB" stroke-width="2"/>
<path d="M97.7776 102.428H15.1094V121.14H97.7776V102.428Z" stroke="#1868DB" stroke-width="2"/>
</svg>
