<svg width="115" height="218" viewBox="0 0 115 218" fill="none" xmlns="http://www.w3.org/2000/svg">
<path d="M79.2484 52.3213V157.275C79.2484 174.077 70.9632 186.275 46.7979 186.275C32.2987 186.275 18.9503 183.974 5.83203 178.91V209.982C18.2599 213.895 32.5289 216.196 49.7898 216.196C95.8189 216.196 113.31 192.029 113.31 155.894V52.3213H79.2484Z" stroke="#1868DB" stroke-width="2"/>
<path d="M56.4652 139.092C47.9498 139.092 41.8278 135.456 38.2606 128.275C35.8671 123.441 34.6013 116.997 34.6013 108.941C34.6013 103.141 35.3378 98.1464 36.7647 93.9805H2.08176C1.36831 98.7678 1 103.785 1 108.941C1 115.8 1.57534 122.267 2.70306 128.275C7.14487 151.889 20.3783 167.862 43.1397 167.862C59.2499 167.862 72.138 160.267 79.2726 144.616V128.275C79.2726 128.275 69.1461 139.092 56.4881 139.092H56.4652Z" stroke="#1868DB" stroke-width="2"/>
<path d="M45.188 50.0195C19.6648 50.0195 5.85615 68.8467 2.08176 93.9804C1.36831 98.7678 1 103.785 1 108.941C1 115.8 1.57534 122.267 2.70306 128.274H38.2606C35.8671 123.441 34.6013 116.997 34.6013 108.941C34.6013 103.141 35.3378 98.1463 36.7647 93.9804C40.0558 84.4057 47.0982 79.25 57.846 79.25C69.8136 79.25 79.2495 93.9804 79.2495 93.9804V72.8055C72.8054 58.7657 61.2982 50.0195 45.188 50.0195Z" stroke="#1868DB" stroke-width="2"/>
</svg>
