<svg width="183" height="216" viewBox="0 0 183 216" fill="none" xmlns="http://www.w3.org/2000/svg">
<path d="M1 102.207V136.501V170.128H35.2917V136.501V102.207H1Z" stroke="#1868DB" stroke-width="2"/>
<path d="M147.371 102.207V136.501V170.128H181.686V136.501V102.207H147.371Z" stroke="#1868DB" stroke-width="2"/>
<path d="M74.1836 102.207V136.501V170.128H108.475V136.501V102.207H74.1836Z" stroke="#1868DB" stroke-width="2"/>
<path d="M35.2917 62.0903V52.5156H1V102.207V136.502H35.2917V102.207V72.7698V62.0903Z" stroke="#1868DB" stroke-width="2"/>
<path d="M56.4625 79.2139C68.8903 79.2139 74.1837 85.4283 74.1837 99.6983V136.501H108.475V102.207C108.475 87.914 116.991 79.2139 129.649 79.2139C142.307 79.2139 147.37 86.5561 147.37 102.207V136.501H181.662V99.6983C181.662 67.7059 169.924 49.9834 144.608 49.9834C125.736 49.9834 112.388 59.6502 105.714 76.6822C100.65 59.42 89.1431 49.9834 70.5013 49.9834C54.161 49.9834 42.1934 58.2692 35.2891 72.7694V102.207C35.2891 87.937 43.8044 79.2139 56.4625 79.2139Z" stroke="#1868DB" stroke-width="2"/>
</svg>
