<svg width="115" height="217" viewBox="0 0 115 217" fill="none" xmlns="http://www.w3.org/2000/svg">
<path d="M35.2918 106.604V73.6905V52.5156H1V215.033H35.2918V149.183V116.04V106.604Z" stroke="#1868DB" stroke-width="2" stroke-miterlimit="10"/>
<path d="M112.691 93.8295C108.64 68.5347 95.1307 50.2139 70.7353 50.2139C53.9347 50.2139 41.737 59.1902 35.293 73.6903V93.8295C35.293 93.8295 45.6494 79.6745 58.0773 79.6745C67.6283 79.6745 74.1644 84.4389 77.4555 93.8295C79.0896 98.4787 79.9411 104.256 79.9411 111.207C79.9411 118.158 79.0435 123.912 77.3174 128.584H112.668C113.565 123.106 114.003 117.283 114.003 111.207C114.003 105.13 113.565 99.3303 112.668 93.8295H112.691Z" stroke="#1868DB" stroke-width="2" stroke-miterlimit="10"/>
<path d="M112.691 93.8291H77.4555C79.0896 98.4784 79.9411 104.255 79.9411 111.206C79.9411 118.157 79.0435 123.911 77.3174 128.583C73.8653 137.905 67.03 142.738 56.9266 142.738C45.4193 142.738 35.293 128.583 35.293 128.583V149.183C42.1973 164.834 54.6251 172.429 70.275 172.429C94.5554 172.429 108.502 154.293 112.668 128.583C113.565 123.106 114.003 117.283 114.003 111.206C114.003 105.13 113.565 99.33 112.668 93.8291H112.691Z" stroke="#1868DB" stroke-width="2" stroke-miterlimit="10"/>
</svg>
