<svg width="95" height="216" viewBox="0 0 95 216" fill="none" xmlns="http://www.w3.org/2000/svg">
<path d="M56.5796 50.3747C53.5417 50.1215 50.4117 49.9834 47.2587 49.9834C44.1058 49.9834 41.0678 50.1675 38.168 50.4668V78.3393C40.4464 77.5568 43.3002 77.1194 46.7984 77.1194C49.9975 77.1194 53.2655 77.3726 56.5796 77.856C66.637 79.329 77.2697 82.8505 88.685 87.7069V58.7065C81.0441 54.6096 69.4908 51.4104 56.5796 50.3517V50.3747Z" stroke="#1868DB" stroke-width="2" stroke-miterlimit="10"/>
<path d="M56.5796 99.5609C55.0607 99.2156 53.4957 98.8704 51.8617 98.5482C45.6477 97.1442 41.2519 95.8093 38.168 94.4053V122.048C39.5488 122.347 40.9527 122.669 42.4256 122.945C48.8927 124.441 53.4727 125.891 56.5796 127.526C60.6532 129.666 62.2182 132.106 62.2182 135.374C62.2182 138.942 60.285 141.75 56.5796 143.453C54.071 144.604 50.757 145.271 46.5683 145.271C43.8296 145.271 41.0218 145.064 38.168 144.742V172.384C40.8146 172.568 43.5303 172.683 46.3381 172.683C49.9974 172.683 53.3806 172.476 56.5796 172.131C82.9083 169.369 93.7482 155.49 93.7482 135.374C93.7482 117.467 84.6114 106.005 56.5796 99.5609Z" stroke="#1868DB" stroke-width="2" stroke-miterlimit="10"/>
<path d="M46.5673 145.271C43.8285 145.271 41.0207 145.064 38.1669 144.742C25.0026 143.177 11.3089 138.343 2.60938 133.993V163.224C10.6184 167.528 23.1384 171.325 38.1669 172.361C40.8136 172.545 43.5293 172.66 46.337 172.66C49.9964 172.66 53.3795 172.453 56.5786 172.108V143.43C54.07 144.581 50.7559 145.248 46.5673 145.248V145.271Z" stroke="#1868DB" stroke-width="2" stroke-miterlimit="10"/>
<path d="M38.1686 78.3623C40.447 77.5798 43.3008 77.1425 46.799 77.1425C49.9981 77.1425 53.2661 77.3956 56.5802 77.879V50.3747C53.5423 50.1215 50.4124 49.9834 47.2594 49.9834C44.1064 49.9834 41.0684 50.1675 38.1686 50.4668C14.5556 52.9755 1 65.5884 1 85.8886C1 103.427 10.436 115.925 38.1686 122.07C39.5495 122.369 40.9533 122.691 42.4262 122.968C48.8933 124.464 53.4733 125.914 56.5802 127.548V99.5832C55.0613 99.238 53.4963 98.8927 51.8623 98.5705C45.6483 97.1665 41.2525 95.8316 38.1686 94.4276C33.1284 92.126 31.6095 89.6402 31.6095 86.3719C31.6095 82.5973 33.8188 79.8584 38.1686 78.3853V78.3623Z" stroke="#1868DB" stroke-width="2" stroke-miterlimit="10"/>
</svg>
