<svg width="110" height="216" viewBox="0 0 110 216" fill="none" xmlns="http://www.w3.org/2000/svg">
<path d="M74.207 52.5156V93.8296V114.521V117.881V128.584H108.499V93.8296V52.5156H74.207Z" stroke="#1868DB" stroke-width="2" stroke-miterlimit="10"/>
<path d="M74.207 93.8291V114.521V117.881V128.583V150.104V170.128H108.499V128.583V93.8291H74.207Z" stroke="#1868DB" stroke-width="2" stroke-miterlimit="10"/>
<path d="M35.2918 122.945V52.5156H1V122.945C1 124.878 1.04588 126.766 1.13794 128.584H35.6368C35.4066 126.858 35.2918 124.993 35.2918 122.945Z" stroke="#1868DB" stroke-width="2" stroke-miterlimit="10"/>
<path d="M53.2429 143.429C42.4031 143.429 36.9716 138.849 35.6367 128.583C35.4066 126.857 35.2918 124.993 35.2918 122.945V93.8291H1V122.945C1 124.878 1.04588 126.765 1.13794 128.583C2.56484 156.617 14.9928 172.429 39.2041 172.429C55.3143 172.429 67.2818 164.374 74.1861 150.104V128.583C74.1861 128.583 65.901 143.429 53.2429 143.429Z" stroke="#1868DB" stroke-width="2" stroke-miterlimit="10"/>
</svg>
