<svg width="961" height="541" viewBox="0 0 961 541" fill="none" xmlns="http://www.w3.org/2000/svg">
<g clip-path="url(#clip0_287_72768)">
<mask id="mask0_287_72768" style="mask-type:luminance" maskUnits="userSpaceOnUse" x="0" y="-1" width="960" height="541">
<path d="M960 -0.300781H0V539.699H960V-0.300781Z" fill="white"/>
</mask>
<g mask="url(#mask0_287_72768)">
<path d="M960 -0.791016H0V539.209H960V-0.791016Z" fill="#123263"/>
<path d="M253.201 404.679H212.431H158.741H69.2708H-21.1992V631.029H486.821V404.679H398.341H305.391H253.201Z" fill="#1C2B42"/>
<path d="M225.351 404.679H212.431H158.741H69.2708H-21.1992V631.029H210.661L225.351 404.679Z" fill="#123263"/>
<path d="M600.6 151.909V134.539V111.669V73.559V35.019H485.6V645.879H600.6V213.739V174.139V151.909Z" fill="#1C2B42"/>
<path d="M254.57 40.159C239.63 -11.351 199.81 -43.211 145.89 -52.001C135.78 -53.651 125.19 -54.491 114.16 -54.501C102.66 -54.501 91.6302 -53.591 81.1202 -51.841C21.8602 -41.971 -20.3098 -4.60098 -31.2698 55.859C-33.1198 66.079 -34.0898 76.949 -34.0898 88.459C-34.0898 94.509 -33.8198 100.379 -33.2898 106.069H225.42L254.57 40.159Z" fill="#123263"/>
<path d="M990.081 241.259H856.261L738.051 -51.4409H860.611L990.081 241.259Z" fill="#123263"/>
<path d="M1020.47 699.219H562.461L532.73 241.199H1050.19L1020.47 699.219Z" fill="#1C2B42"/>
<path d="M600.6 241.199H532.73L558.99 645.879H600.6V241.199Z" fill="#123263"/>
<path d="M1087.57 539.559C1090.5 523.159 1092.03 505.729 1092.04 487.289C1092.04 468.589 1090.5 450.919 1087.52 434.319C1069.79 335.509 1001.18 274.589 904.931 258.909C888.511 256.229 871.291 254.859 853.381 254.849C834.691 254.849 816.771 256.319 799.691 259.169C703.371 275.219 634.851 335.939 617.041 434.189C614.031 450.789 612.461 468.459 612.461 487.159C612.461 505.599 613.981 523.029 616.931 539.429C634.551 637.559 703.111 698.439 799.571 714.549C816.641 717.399 834.561 718.889 853.251 718.899C871.171 718.899 888.381 717.539 904.811 714.869C1001.22 699.219 1069.94 638.229 1087.58 539.559H1087.57Z" fill="#123263"/>
<path d="M804.109 163.339C805.369 156.319 806.019 148.859 806.019 140.959C806.019 132.949 805.359 125.389 804.079 118.279C796.489 75.9692 767.099 49.8892 725.869 43.1692C718.839 42.0192 711.459 41.4292 703.789 41.4292C696.119 41.4292 688.109 42.0592 680.799 43.2792C639.549 50.1492 610.199 76.1492 602.569 118.219C601.279 125.329 600.609 132.889 600.609 140.899C600.609 148.799 601.259 156.259 602.519 163.279C610.069 205.299 639.429 231.359 680.749 238.259C688.059 239.479 695.739 240.119 703.739 240.119C711.409 240.119 718.789 239.539 725.819 238.399C767.109 231.699 796.539 205.589 804.099 163.339H804.109Z" fill="#1C2B42"/>
<path d="M279.93 -17.1709L93.3398 404.679H334.14L504.5 -17.1709H279.93Z" fill="#1C2B42"/>
<path d="M260.25 106.069C260.77 100.399 261.04 94.5589 261.04 88.5389C261.04 77.0289 260.09 66.1589 258.26 55.9389C257.28 50.4889 256.05 45.2289 254.58 40.1489L225.43 106.059H260.25V106.069Z" fill="#123263"/>
<mask id="mask1_287_72768" style="mask-type:luminance" maskUnits="userSpaceOnUse" x="-11" y="-17" width="267" height="125">
<path d="M-10.2695 4.70902V107.069H225.88L255.03 41.159C250.73 26.329 240.29 2.40902 224.27 -13.351L6.46047 -16.501C5.73047 -15.491 -9.57953 3.67902 -10.2695 4.70902Z" fill="white"/>
</mask>
<g mask="url(#mask1_287_72768)">
<path d="M30.2103 -2.29068C28.8003 -6.07068 27.7503 -5.69068 28.9303 -1.86068C30.5803 3.58932 32.3303 9.29932 34.3103 16.7093C35.4503 20.8993 36.1203 23.5293 36.6903 25.8293C37.2503 28.1293 37.7203 30.0893 38.2203 32.9893C39.1203 37.8793 39.9303 44.5293 40.2003 50.4493C40.4803 56.3793 40.2503 61.5593 40.1303 63.5693L40.0303 65.3493C39.9503 67.4793 39.6403 73.2293 38.2903 80.3193C36.9403 87.3893 34.4303 95.8093 30.7203 102.919C28.1503 107.969 25.5003 111.719 23.1903 114.489C20.8803 117.259 18.9503 119.089 17.5703 120.259C14.3303 123.069 11.1503 125.089 8.04035 126.559C4.92035 128.029 1.88034 129.009 -1.21966 129.589C-2.91966 129.909 -3.76966 130.219 -3.74966 130.499C-3.72966 130.759 -2.81966 130.989 -1.02966 130.779C2.21034 130.399 5.44035 129.539 8.75035 128.099C12.0603 126.659 15.4303 124.589 18.8003 121.669C20.1303 120.559 22.1103 118.749 24.4403 116.119C26.7603 113.479 29.3903 109.979 31.8303 105.509L32.9703 103.299C33.3103 102.549 33.6503 101.799 33.9903 101.049C36.7703 94.5193 39.0303 86.7193 40.1703 80.4893C40.4703 78.9293 40.7303 77.4893 40.9103 76.1793C41.1203 74.8793 41.2703 73.7193 41.3803 72.7593C41.6303 70.8393 41.7203 69.6993 41.7203 69.6993C41.7203 69.6993 41.7603 69.2793 41.8303 68.5093C41.9103 67.7493 41.9703 66.6393 42.0503 65.2693C42.2103 62.5393 42.3103 58.7693 42.1703 54.6493C42.0503 50.5293 41.7003 46.0593 41.2003 41.9193C40.7003 37.7793 40.0703 33.9793 39.5403 31.1593C37.8903 22.6793 36.7503 18.6793 36.1203 16.2093C34.1103 8.74932 32.1803 3.04932 30.2103 -2.31068V-2.29068Z" fill="#1C2B42"/>
<path d="M170.26 113.449C176.96 118.519 177.59 117.599 171.1 112.399C166.54 108.659 162.06 104.579 157.41 99.9494C152.76 95.3194 147.95 90.1094 142.88 83.9694C137.13 77.0094 133.83 72.4194 130.99 68.4194C128.15 64.4094 125.82 60.9194 122.67 55.6694C120 51.2394 116.94 45.9794 114.6 40.1794C113.43 37.2794 112.47 34.2294 111.88 31.1394C111.28 28.0494 111.08 24.9094 111.3 21.9094C111.7 15.8794 113.99 10.4794 117.03 7.06936C118.52 5.33935 120.13 4.04936 121.55 3.07936C123.01 2.14936 124.25 1.47936 125.18 1.08936C125.72 0.839355 126.27 0.599355 126.84 0.399355C127.4 0.179355 127.96 -0.0306447 128.54 -0.200645C129.56 -0.550645 131.05 -0.920645 132.94 -1.27064C134.84 -1.57064 137.16 -1.77064 139.8 -1.64064C145.08 -1.40064 151.63 0.359355 158.23 3.81936C164.86 7.23936 171.61 12.1594 178.04 17.6994C178.86 18.3794 179.64 19.0994 180.43 19.8294C181.21 20.5594 182.01 21.2694 182.78 22.0094C184.3 23.5294 185.86 25.0094 187.3 26.5894C190.27 29.6894 193.01 32.9794 195.6 36.2694C199.26 40.9294 202.25 45.3794 204.76 49.4994C205.4 50.5194 206 51.5294 206.56 52.5194C207.12 53.5094 207.67 54.4694 208.2 55.4094C209.19 57.3194 210.18 59.0794 210.99 60.7994C214.33 67.6094 216.32 72.8294 217.56 76.4494C220.52 84.9794 222.14 92.7394 222.91 99.9694C223.59 107.199 223.44 113.929 222.26 120.439C221.98 122.239 221.68 123.569 221.58 124.479C221.46 125.389 221.48 125.869 221.61 125.909C221.74 125.949 221.98 125.539 222.31 124.669C222.63 123.799 223.1 122.489 223.44 120.669C224.85 114.079 225.17 107.209 224.59 99.8194C223.93 92.4394 222.33 84.5094 219.33 75.8394C218.18 72.4694 216.3 67.2994 213.21 60.7694C211.7 57.4894 209.78 53.9194 207.59 50.0494C205.32 46.2194 202.69 42.1194 199.6 37.8794C198.56 36.5194 197.54 35.1494 196.47 33.8194C195.37 32.5094 194.32 31.1794 193.18 29.9194C188.34 24.4294 182.71 18.9294 176.77 14.0594C170.8 9.24935 164.65 4.92936 158.74 1.93936C152.87 -1.11064 147.28 -2.69064 143.26 -3.26064C141.25 -3.58064 139.61 -3.63064 138.5 -3.66064C137.39 -3.65064 136.78 -3.64064 136.78 -3.64064C136.78 -3.64064 135.88 -3.61064 134.26 -3.46064C132.65 -3.28064 130.32 -2.91064 127.55 -2.02064C124.8 -1.14064 121.62 0.369355 118.62 2.78936C115.63 5.20936 112.98 8.68936 111.42 12.7994C109.82 16.8994 109.21 21.5194 109.46 26.0694C109.7 30.6394 110.86 35.0894 112.39 39.1794C113.92 43.2694 115.83 47.0094 117.68 50.3594C119.54 53.7094 121.36 56.6794 122.91 59.2194C132.45 74.4194 138.11 81.0094 141.41 85.1494C146.53 91.3394 151.42 96.5594 156.17 101.179C160.93 105.779 165.53 109.799 170.23 113.439L170.26 113.449Z" fill="#1C2B42"/>
<path d="M110.16 126.999C112.14 128.679 113.7 129.839 114.78 130.549C115.86 131.269 116.46 131.559 116.55 131.439C116.65 131.319 116.24 130.789 115.32 129.879C114.39 128.979 112.96 127.679 111.03 125.969C105.55 121.149 100.23 115.879 94.9 109.769C93.54 108.269 92.27 106.639 90.91 105.019C89.62 103.349 88.25 101.679 86.97 99.8692C84.34 96.3192 81.77 92.4492 79.29 88.2092C76.48 83.4092 74.44 79.3692 72.88 75.8192C71.26 72.2892 70.13 69.2392 69.18 66.3792C68.7 64.9492 68.26 63.5592 67.89 62.1592C67.47 60.7692 67.16 59.3592 66.82 57.9092C66.19 54.9992 65.62 51.8692 65.33 48.1192C65.15 46.5392 65.15 44.8792 65.08 43.1692C65.12 41.4592 65.09 39.6892 65.27 37.8892C65.54 34.2892 66.13 30.5192 67.24 26.8292C68.32 23.1292 69.87 19.4992 71.82 16.1092C72.3 15.2592 72.88 14.4692 73.4 13.6492L74.2 12.4292L75.09 11.2892C75.69 10.5392 76.27 9.75917 76.88 9.02917C77.53 8.32917 78.17 7.62917 78.81 6.93917C79.43 6.22917 80.13 5.60917 80.81 4.97917C81.5 4.35917 82.14 3.69917 82.85 3.13917C84.28 2.02917 85.62 0.85917 87.08 -0.0708303C87.79 -0.56083 88.49 -1.03083 89.18 -1.50083C89.9 -1.92083 90.6 -2.34083 91.29 -2.75083C92.65 -3.60083 94.05 -4.25083 95.34 -4.92083C100.59 -7.48083 105.02 -8.80083 107.48 -9.50083C108.94 -9.93083 110.43 -10.2208 111.91 -10.6108C114.57 -11.1508 119.52 -12.1908 126.19 -12.3508C127.02 -12.3708 127.88 -12.3808 128.77 -12.4008C129.65 -12.3808 130.56 -12.3608 131.49 -12.3308C133.35 -12.3208 135.3 -12.1208 137.33 -11.9808C141.38 -11.5808 145.74 -10.9308 150.29 -9.98083C168.52 -6.19083 189.32 2.93917 207.91 12.2592C221.03 18.9092 231.21 25.1192 239.01 30.3592C246.85 35.5692 252.25 39.9092 255.95 42.8692C264.63 49.9592 271.63 56.8292 277.67 63.5592C283.76 70.2392 288.61 77.0092 293.09 83.8892C297.8 91.5892 298.67 91.1592 294.11 83.2592C289.77 76.2092 285.01 69.2692 278.94 62.4392C272.93 55.5692 265.89 48.5792 257.14 41.4192C255.41 40.0692 253.28 38.2592 250.61 36.2292C247.9 34.2492 244.82 31.8192 241.12 29.3492C233.81 24.2692 224.44 18.3892 213 12.3892C211.13 11.4292 209.25 10.4792 207.38 9.51917C205.51 8.55917 203.6 7.70917 201.72 6.80917C193.56 3.01917 184.72 -0.90083 175.87 -4.23083C171.45 -5.89083 167.03 -7.43083 162.72 -8.73083C158.4 -10.0208 154.2 -11.1008 150.22 -11.9408C142.26 -13.5908 135.26 -14.2108 130.29 -14.3008C129.05 -14.3608 127.93 -14.3208 126.96 -14.3008C125.98 -14.2808 125.15 -14.2908 124.47 -14.2508C123.11 -14.1608 122.38 -14.1108 122.38 -14.1108C122.38 -14.1108 122.11 -14.0908 121.58 -14.0608C121.06 -14.0308 120.29 -13.9808 119.31 -13.8408C118.33 -13.7108 117.12 -13.5908 115.74 -13.3708C114.36 -13.1008 112.78 -12.8808 111.06 -12.4608C107.61 -11.7008 103.59 -10.4908 99.27 -8.78083C94.97 -7.03083 90.42 -4.65083 86.06 -1.58083C81.7 1.48917 77.54 5.28917 74.11 9.72917C70.68 14.1492 68 19.1892 66.29 24.3192C64.56 29.4592 63.75 34.6492 63.53 39.4092C63.31 44.1792 63.66 48.5392 64.16 52.2092C64.92 57.7492 66.14 62.4692 67.42 66.5092C68.72 70.5492 70.03 73.9492 71.34 76.8092C73.91 82.5492 76 86.3392 77.68 89.1692C80.19 93.4692 82.81 97.3892 85.5 100.969C86.81 102.789 88.2 104.479 89.52 106.159C90.91 107.779 92.21 109.419 93.6 110.929C99.06 117.049 104.53 122.269 110.15 127.009L110.16 126.999Z" fill="#1C2B42"/>
<path d="M270.03 76.3592C274.15 73.6292 273.47 72.7392 269.31 75.2192C267.83 76.0892 266.37 77.0492 264.74 77.7792C263.13 78.5392 261.52 79.4292 259.77 80.1792C257.99 80.8592 256.16 81.6192 254.21 82.3492C253.21 82.6392 252.19 82.9392 251.14 83.2492C250.62 83.4092 250.09 83.5592 249.55 83.7192C249.01 83.8792 248.47 84.0492 247.9 84.1392C246.62 84.3992 245.46 84.6392 244.4 84.8592C243.87 84.9692 243.36 85.0792 242.88 85.1792C242.39 85.2392 241.92 85.2992 241.46 85.3492C239.65 85.5492 238.13 85.7892 236.71 85.8992C235.28 85.9392 233.97 85.9792 232.56 86.0292C232.21 86.0292 231.85 86.0492 231.48 86.0592C231.11 86.0292 230.74 86.0092 230.36 85.9792C229.59 85.9192 228.77 85.8592 227.89 85.7892C227.14 85.7192 226.36 85.6992 225.56 85.5792C224.76 85.4492 223.93 85.3092 223.09 85.1692C222.24 85.0292 221.38 84.8892 220.5 84.7392C219.63 84.5192 218.75 84.3092 217.86 84.0792C216.97 83.8592 216.07 83.6292 215.17 83.4092L212.51 82.5392C211.63 82.2492 210.75 81.9492 209.87 81.6592C209.02 81.3092 208.17 80.9692 207.34 80.6292C206.51 80.2892 205.69 79.9492 204.89 79.6292C204.11 79.2492 203.35 78.8892 202.61 78.5292C201.14 77.8092 199.74 77.1692 198.54 76.4592C197.33 75.7792 196.24 75.1792 195.33 74.6692C194.43 74.1392 193.72 73.6692 193.2 73.3492L191.35 72.2192C190.79 71.8992 190.01 71.3992 189.05 70.7592C188.09 70.1092 186.92 69.3692 185.61 68.4592C184.33 67.5192 182.89 66.4692 181.33 65.3292C179.83 64.1092 178.15 62.8692 176.48 61.4292C173.1 58.6092 169.54 55.2892 166.02 51.7592C162.53 48.1892 159.13 44.3692 156.04 40.5492C151.67 35.1592 148.43 30.5492 146.24 26.7492C145.67 25.8092 145.22 24.8992 144.83 24.0692C144.67 23.6492 144.48 23.2892 144.36 22.8592C144.23 22.4392 144.1 22.0292 143.98 21.6392C143.51 20.0792 143.19 18.7492 142.96 17.6692C142.41 15.1092 142.08 12.6792 141.91 10.3692C141.76 8.04922 141.77 5.85922 141.9 3.74922C142.22 -0.450781 143.01 -4.27078 144.36 -7.87078C145.09 -9.84078 145.38 -10.8908 145.12 -11.0308C145 -11.0908 144.76 -10.9108 144.43 -10.4708C144.11 -10.0308 143.65 -9.33078 143.24 -8.32078C141.64 -4.69078 140.66 -0.740781 140.21 3.60922C140.02 5.78922 139.97 8.06922 140.09 10.4792C140.24 12.8892 140.57 15.4092 141.13 18.0592C141.34 19.0892 141.65 20.3892 142.07 21.9492C142.32 22.7292 142.48 23.5392 142.88 24.4792C143.05 24.9592 143.27 25.3992 143.49 25.8592C143.72 26.3192 143.94 26.7992 144.21 27.2592C146.27 31.0092 149.17 35.4092 152.97 40.2392C154.22 41.7992 155.48 43.3592 156.82 44.8192C162.46 51.2592 169.55 58.0892 175.44 63.0292C178.39 65.4892 181 67.5292 182.91 68.8992C184.78 70.3192 185.95 71.0792 185.95 71.0792C185.95 71.0792 186.38 71.3692 187.15 71.8892C187.94 72.3892 189.02 73.2092 190.46 74.0392C191.17 74.4692 191.95 74.9392 192.79 75.4492C193.21 75.6992 193.64 75.9692 194.08 76.2292C194.54 76.4792 195.01 76.7292 195.49 76.9892C196.46 77.5092 197.47 78.0492 198.51 78.6192C199.56 79.1792 200.69 79.6592 201.83 80.2092C204.08 81.3392 206.56 82.2192 209 83.2092C210.24 83.6492 211.51 84.0292 212.75 84.4292C213.37 84.6292 213.99 84.8292 214.61 85.0192C215.24 85.1692 215.86 85.3292 216.48 85.4792C217.72 85.7792 218.94 86.0692 220.12 86.3592C221.32 86.5492 222.48 86.7392 223.6 86.9192C225.82 87.3492 227.89 87.3992 229.64 87.5592C230.3 87.6092 230.94 87.6692 231.56 87.6892C232.18 87.6892 232.78 87.6792 233.36 87.6692C234.52 87.6592 235.6 87.6392 236.61 87.6292C238.63 87.5292 240.34 87.2792 241.83 87.1492C243.33 87.0492 244.55 86.6992 245.62 86.5192C246.68 86.3092 247.57 86.1292 248.34 85.9792C248.93 85.8792 249.49 85.7092 250.04 85.5392C250.59 85.3692 251.14 85.2092 251.68 85.0492C252.76 84.7192 253.8 84.3992 254.82 84.0892C256.81 83.3192 258.68 82.5192 260.48 81.7692C262.26 80.9592 263.87 80.0092 265.49 79.1692C267.13 78.3692 268.57 77.3192 270.03 76.3692V76.3592Z" fill="#1C2B42"/>
</g>
<mask id="mask2_287_72768" style="mask-type:luminance" maskUnits="userSpaceOnUse" x="486" y="36" width="116" height="591">
<path d="M486.061 626.939H558.151L533.191 242.199H601.051V214.739V175.149V152.909V135.549V112.679V74.5688V36.0288H486.061V626.939Z" fill="white"/>
</mask>
<g mask="url(#mask2_287_72768)">
<path d="M487.74 105.649C483.15 106.009 480.9 106.639 480.94 106.929C480.98 107.249 483.28 107.229 487.83 106.989C494.28 106.679 500.93 106.769 508.06 107.509C515.17 108.319 522.79 109.869 530.92 112.929C535.53 114.639 539.14 116.389 542.17 118.009C543.7 118.789 545.04 119.629 546.33 120.359C547.57 121.159 548.78 121.849 549.87 122.629C550.98 123.379 552.05 124.109 553.06 124.889C553.57 125.279 554.1 125.649 554.6 126.049C555.09 126.469 555.58 126.889 556.08 127.309C556.57 127.739 557.1 128.159 557.59 128.629C558.06 129.119 558.55 129.619 559.05 130.139C560.09 131.129 560.99 132.369 562.02 133.659C565.45 138.089 568.1 144.239 569.52 150.929C570.84 157.659 570.97 164.869 570.38 171.579C569.15 185.049 565.78 196.509 564.58 200.939C564.21 202.249 563.84 203.559 563.46 204.879C562.78 207.229 561.54 211.569 559.67 217.249C557.82 222.939 555.39 229.969 552.56 237.769C546.94 253.389 539.62 272.049 534.12 289.809C530.28 302.359 527.97 312.809 527.14 321.249C526.2 329.669 526.84 336.009 527.66 340.239C528.64 345.249 530.47 349.819 533.07 353.599C535.66 357.389 538.96 360.339 542.43 362.549C542.86 362.829 543.3 363.109 543.73 363.379C544.16 363.649 544.63 363.859 545.07 364.099C545.97 364.549 546.84 365.049 547.75 365.439C549.58 366.179 551.37 366.959 553.21 367.469C556.85 368.669 560.52 369.339 564.17 369.909C568.2 370.419 570.24 370.329 570.26 370.079C570.29 369.789 568.31 369.339 564.36 368.729C560.78 368.059 557.19 367.309 553.68 366.059C551.89 365.519 550.18 364.729 548.42 363.979C547.55 363.589 546.72 363.089 545.86 362.649C545.44 362.409 544.99 362.209 544.58 361.939C544.17 361.669 543.76 361.399 543.35 361.119C540.06 358.959 536.98 356.149 534.57 352.559C532.15 348.979 530.42 344.669 529.49 339.859C528.74 336.139 528.22 330.209 529.03 322.459C529.82 314.709 531.82 305.199 535.05 294.299C536.09 290.739 537.19 287.199 538.28 283.689C543.07 268.549 549.6 251.449 554.47 237.979C559.4 224.529 562.55 214.659 562.55 214.659C562.55 214.659 562.84 213.739 563.36 212.079C563.89 210.419 564.62 208.009 565.48 205.029C567.2 199.069 569.42 190.789 570.92 181.509C571.66 176.869 572.23 171.989 572.4 167.059C572.54 162.129 572.28 157.159 571.46 152.439C570.65 147.719 569.24 143.269 567.4 139.419C565.57 135.559 563.21 132.419 561.06 129.889C560.19 128.989 559.36 128.109 558.55 127.269C557.67 126.499 556.81 125.759 555.99 125.039C554.31 123.659 552.69 122.459 551.13 121.389C548.03 119.239 545.26 117.569 542.8 116.259C537.88 113.609 534.29 112.189 531.57 111.129C523.27 108.009 515.47 106.469 508.23 105.739C500.97 105.069 494.25 105.109 487.74 105.589V105.649Z" fill="#123263"/>
<path d="M485.7 69.9891C479.23 73.7291 479.81 74.6791 486.34 71.1791C491 68.7391 495.86 66.3991 501.22 64.0591C506.58 61.7291 512.451 59.4291 519.211 57.2891C523.031 56.0691 526.18 55.1991 528.89 54.5091C530.25 54.1791 531.5 53.8691 532.67 53.5791C533.85 53.3291 534.961 53.0891 536.031 52.8591C538.161 52.3991 540.16 52.0891 542.29 51.7191C544.43 51.4491 546.69 51.0791 549.41 50.8991C553.98 50.5091 559.39 50.1891 564.95 50.6591C570.49 51.1091 576.22 52.4191 580.88 55.0691C583.21 56.3791 585.23 58.0291 586.85 59.8191C588.47 61.6091 589.71 63.5391 590.63 65.3791C591.56 67.2091 592.181 68.9591 592.591 70.4491C593.021 71.9391 593.25 73.1891 593.39 74.0891C593.56 75.1491 593.691 76.2191 593.771 77.2991C593.861 78.2591 593.9 79.6291 593.86 81.3491C593.78 83.0591 593.57 85.1391 593.11 87.4691C592.21 92.1291 590.19 97.7791 587 103.629C580.67 115.399 570.28 128.069 558.82 137.649C550.78 144.489 543.55 149.119 537.73 152.519C531.87 155.889 527.381 158.029 524.271 159.449C516.931 162.779 510.29 165.189 504.09 167.159C497.88 169.129 492.09 170.629 486.29 171.909C479.92 173.249 480.06 174.209 486.53 173.089C492.4 172.009 498.28 170.649 504.58 168.769C510.88 166.899 517.61 164.509 525.04 161.149C527.92 159.829 532.37 157.799 538 154.689C543.61 151.559 550.39 147.289 557.69 141.439L561.19 138.499C562.31 137.469 563.43 136.449 564.55 135.429C569.28 130.939 574.02 125.759 578.2 120.359C580.29 117.659 582.27 114.919 584.04 112.189C585.83 109.479 587.461 106.799 588.841 104.199C591.631 99.0291 593.431 94.2491 594.341 90.7491C594.821 89.0091 595.091 87.5891 595.271 86.6191C595.421 85.6391 595.51 85.1191 595.51 85.1191C595.51 85.1191 595.62 84.3291 595.75 82.8891C595.87 81.4491 595.95 79.3591 595.75 76.7891C595.54 74.2291 595.02 71.1791 593.85 67.9891C593.27 66.3891 592.54 64.7591 591.6 63.1591C590.66 61.5691 589.561 59.9791 588.211 58.5591C586.871 57.1291 585.35 55.8091 583.67 54.6791C581.98 53.5691 580.161 52.6191 578.281 51.8391C574.491 50.3291 570.48 49.5091 566.61 49.1091C562.74 48.7291 558.99 48.6891 555.58 48.8591C552.16 48.9791 549.06 49.2691 546.41 49.5291C538.45 50.4491 532.63 51.6791 528.25 52.7791C526.05 53.2991 524.22 53.8491 522.64 54.2691C521.07 54.7491 519.76 55.1391 518.63 55.4891C511.8 57.6491 505.88 60.0291 500.5 62.4591C495.13 64.8991 490.29 67.3791 485.68 69.9791L485.7 69.9891Z" fill="#123263"/>
<path d="M622.821 130.819C626.061 126.689 625.181 126.009 621.791 129.949C616.911 135.489 611.611 141.149 604.411 148.049C600.351 151.979 597.761 154.379 595.501 156.469C593.231 158.549 591.281 160.299 588.341 162.759C583.381 166.919 576.521 172.299 570.291 176.909C564.081 181.549 558.521 185.429 556.351 186.909L554.441 188.249C552.161 189.849 546.041 194.209 537.991 199.129C529.951 204.059 519.901 209.429 510.161 213.339C503.301 216.139 497.581 217.979 493.011 219.239C488.441 220.489 485.031 221.249 482.681 221.689C471.581 223.839 463.111 224.329 454.811 224.199C450.261 224.039 450.151 225.009 454.751 225.399C463.121 225.959 471.781 225.699 483.031 223.529C487.381 222.669 496.591 220.999 508.831 216.239C510.811 215.439 512.791 214.639 514.701 213.729C518.851 211.819 523.241 209.629 527.451 207.369C531.661 205.089 535.681 202.739 539.181 200.619C542.681 198.499 545.641 196.579 547.731 195.209C549.811 193.829 551.041 193.009 551.041 193.009C551.041 193.009 551.501 192.699 552.321 192.149C553.141 191.589 554.321 190.769 555.771 189.769C558.661 187.739 562.621 184.899 566.891 181.709C575.441 175.339 585.241 167.549 590.901 162.719C599.431 155.459 603.311 151.699 605.701 149.409C612.931 142.449 618.161 136.609 622.811 130.819H622.821Z" fill="#123263"/>
<path d="M513.94 26.9789C512.04 25.5389 510.88 25.1289 510.72 25.3689C510.53 25.6389 511.32 26.5389 513.1 28.0289C515.6 30.1589 517.99 32.5389 520.31 35.3589C522.63 38.1789 524.9 41.4089 527 45.3089C529.39 49.7189 530.54 52.6589 531.5 55.2189C532.42 57.7989 533.09 60.0389 533.76 63.3889C534.33 66.2189 534.72 69.5889 534.86 73.1089C535 76.6289 534.85 80.2989 534.47 83.7289C533.73 90.5989 532.03 96.4289 531.33 98.6589L530.7 100.639C530.35 101.829 529.61 103.999 528.5 106.829C527.89 108.219 527.2 109.779 526.45 111.469C525.68 113.149 524.69 114.889 523.73 116.769C519.7 124.179 513.4 132.279 506.6 138.779C505.45 139.979 504.22 140.979 503.11 141.999C501.99 143.009 500.92 143.959 499.84 144.779C498.78 145.619 497.78 146.419 496.83 147.169C495.86 147.889 494.93 148.529 494.06 149.159C493.19 149.769 492.39 150.369 491.62 150.879C490.84 151.379 490.11 151.839 489.45 152.259C488.11 153.099 487.02 153.849 486.06 154.349C477.27 159.429 470.23 162.399 463.2 164.909C459.33 166.259 459.57 167.199 463.57 166.059C470.81 163.929 478.06 161.129 487.01 155.969C490.42 153.899 497.82 149.809 506.6 141.829C508.02 140.519 509.34 139.119 510.68 137.749C512.09 136.239 513.44 134.579 514.88 132.959C516.22 131.259 517.57 129.539 518.88 127.819C520.09 126.029 521.37 124.309 522.46 122.569C523.51 120.799 524.6 119.139 525.48 117.509C526.34 115.869 527.15 114.349 527.87 112.979C528.5 111.569 529.06 110.329 529.53 109.299C530 108.269 530.37 107.449 530.58 106.869C530.81 106.299 530.93 105.979 530.93 105.979C530.93 105.979 531.68 104.129 532.66 101.069C533.64 98.0189 534.79 93.7389 535.57 88.9689C536.38 84.1989 536.7 78.9189 536.56 74.0189C536.39 69.1189 535.7 64.6189 534.96 61.3189C533.85 56.3489 532.51 52.7989 531.39 50.1489C530.28 47.4989 529.34 45.7489 528.63 44.4189C526.45 40.4089 524.07 37.0889 521.61 34.2489C519.15 31.3989 516.6 29.0389 513.92 26.9789H513.94Z" fill="#123263"/>
<path d="M583.65 408.349C586.53 405.769 585.79 404.939 582.79 407.309C578.51 410.639 573.94 414.059 567.78 417.989C566.05 419.129 564.59 419.959 563.37 420.749C562.12 421.479 561.08 422.089 560.11 422.659C559.15 423.249 558.21 423.709 557.23 424.229C556.24 424.739 555.2 425.289 553.9 425.839C549.6 427.839 543.58 430.009 538.08 431.289C536.7 431.579 535.37 431.899 534.1 432.139C532.83 432.339 531.64 432.529 530.56 432.709C528.4 432.979 526.69 433.119 525.74 433.219C525.17 433.239 524.61 433.279 524.04 433.319C523.53 433.359 522.82 433.409 521.91 433.469C521.01 433.549 519.92 433.499 518.68 433.529C518.06 433.529 517.4 433.529 516.71 433.539C516.02 433.539 515.3 433.459 514.54 433.429C513.03 433.339 511.4 433.269 509.7 433.009C502.87 432.229 494.75 430.159 487.66 427.169C477.64 422.939 472.01 419.129 469.07 417.229C462.16 412.609 457.32 408.679 452.69 404.689C450.16 402.489 449.47 403.169 451.87 405.569C456.25 409.909 461.02 414.089 468.03 418.789C470.76 420.579 476.35 424.629 485.25 428.519C485.97 428.829 486.69 429.159 487.43 429.439C488.17 429.699 488.91 429.959 489.65 430.229C496.03 432.469 503.61 434.259 509.65 434.919C511.15 435.149 512.56 435.229 513.82 435.299C515.08 435.359 516.19 435.509 517.12 435.479C518.98 435.479 520.07 435.489 520.07 435.489C520.07 435.489 520.48 435.489 521.22 435.489C521.96 435.469 523.02 435.389 524.33 435.309C526.95 435.169 530.54 434.689 534.43 433.949C538.29 433.109 542.48 432.059 546.23 430.669C546.7 430.509 547.17 430.349 547.63 430.189C548.09 430.009 548.53 429.829 548.98 429.659C549.87 429.309 550.72 428.969 551.55 428.649C553.17 427.959 554.64 427.279 555.9 426.719C563.36 423.099 566.68 420.859 568.77 419.589C575.01 415.589 579.53 411.989 583.64 408.369L583.65 408.349Z" fill="#123263"/>
<path d="M550.229 527.229C551.999 527.389 553.339 527.349 554.219 527.199C555.099 527.069 555.529 526.909 555.519 526.749C555.509 526.589 555.069 526.449 554.209 526.339C553.349 526.249 552.069 526.099 550.379 525.889C545.569 525.269 540.819 523.529 536.169 520.809C531.539 518.039 527.029 514.209 523.029 509.009C518.529 503.069 516.559 498.749 514.849 495.069C513.229 491.329 511.989 488.049 510.629 483.129C508.319 474.809 506.349 463.319 505.709 453.019C505.089 442.709 505.559 433.669 505.849 430.179C505.919 429.149 505.969 428.109 506.069 427.069C506.229 425.219 506.469 421.789 507.059 417.289C507.299 415.029 507.759 412.519 508.159 409.779C508.409 408.419 508.679 406.999 508.949 405.539C509.089 404.809 509.229 404.069 509.369 403.309C509.539 402.559 509.709 401.799 509.879 401.029C512.459 388.689 517.289 374.209 523.099 361.409C531.359 343.329 538.289 333.069 541.749 327.679C545.909 321.339 549.809 315.969 553.519 311.089C557.209 306.199 560.749 301.829 564.329 297.549C568.289 292.879 567.579 292.219 563.419 296.759C559.669 300.909 555.979 305.199 552.179 310.059C548.359 314.899 544.389 320.269 540.189 326.649C536.959 331.609 529.889 341.849 522.409 357.689C521.809 358.979 521.189 360.269 520.639 361.579C520.089 362.889 519.549 364.199 518.999 365.509C516.749 371.179 514.449 377.319 512.589 383.439C510.729 389.559 509.079 395.589 507.969 400.949C507.329 403.619 506.939 406.139 506.479 408.379C506.069 410.629 505.789 412.619 505.519 414.279C505.229 415.929 505.119 417.259 504.989 418.159C504.879 419.069 504.809 419.559 504.809 419.559C504.809 419.559 504.719 420.289 504.559 421.609C504.439 422.939 504.269 424.849 504.049 427.209C503.729 431.939 503.339 438.469 503.589 445.619C503.779 452.769 504.489 460.529 505.659 467.679C506.799 474.829 508.359 481.359 509.819 486.139C511.989 493.359 514.369 498.459 516.399 502.219C518.469 505.959 520.189 508.359 521.549 510.149C525.699 515.539 530.449 519.499 535.309 522.299C540.189 525.059 545.209 526.749 550.239 527.219L550.229 527.229Z" fill="#123263"/>
<path d="M477.68 313.899C476.15 318.109 477.2 318.489 478.93 314.399C481.43 308.599 484.14 302.559 488.05 295.009C489.13 292.849 490.07 291.139 490.86 289.649C491.64 288.159 492.33 286.929 492.98 285.789C494.24 283.489 495.4 281.579 497.17 278.829C500.19 274.199 504.6 268.219 508.91 263.239C513.19 258.229 517.32 254.199 518.96 252.669L520.4 251.299C520.83 250.889 521.43 250.299 522.19 249.559C522.98 248.849 523.92 247.999 525 247.039C527.15 245.099 529.94 242.829 533.16 240.439C536.39 238.069 540.11 235.669 544.06 233.459C548.01 231.239 552.27 229.349 556.45 227.829C562.36 225.669 567.37 224.639 571.34 224.059C573.34 223.849 575.06 223.599 576.56 223.579C578.05 223.519 579.29 223.429 580.31 223.499C585.09 223.529 589.25 224.099 593.02 224.949C596.79 225.799 600.17 226.939 603.43 228.289C605.22 229.039 606.2 229.259 606.33 229.009C606.45 228.779 605.71 228.069 603.93 227.189C600.69 225.619 597.28 224.289 593.42 223.299C589.57 222.309 585.27 221.659 580.33 221.619C579.37 221.559 578.15 221.609 576.69 221.649C575.22 221.649 573.52 221.809 571.58 221.999C567.72 222.449 562.94 223.299 557.59 225.089C555.86 225.709 554.12 226.299 552.47 227.079C548.85 228.619 545.13 230.589 541.58 232.649C538.02 234.699 534.73 236.989 531.88 239.029C530.47 240.079 529.18 241.079 528.02 241.969C526.89 242.899 525.89 243.719 525.06 244.399C523.45 245.809 522.5 246.649 522.5 246.649C522.5 246.649 522.15 246.959 521.51 247.529C520.86 248.079 519.98 248.939 518.89 249.989C517.79 251.029 516.49 252.279 515.12 253.729C514.43 254.449 513.7 255.199 512.95 255.979C512.23 256.779 511.48 257.619 510.72 258.469C509.16 260.149 507.68 262.009 506.13 263.839C504.64 265.709 503.15 267.589 501.78 269.449C500.43 271.319 499.09 273.099 497.97 274.809C496.82 276.499 495.77 278.039 494.93 279.399C494.29 280.409 493.69 281.359 493.13 282.249C492.59 283.149 492.1 283.989 491.63 284.779C491.16 285.569 490.73 286.289 490.33 286.969C489.95 287.659 489.59 288.299 489.26 288.889C488.6 290.069 488.05 291.069 487.58 291.929C487.13 292.799 486.75 293.529 486.43 294.159C482.49 301.789 479.92 307.969 477.71 313.919L477.68 313.899Z" fill="#123263"/>
<path d="M583.451 348.229C584.251 346.369 585.101 344.529 585.961 342.699C585.961 342.699 587.281 340.419 588.871 337.689C590.451 334.959 592.341 331.799 593.231 329.869C596.161 325.469 599.251 321.179 602.591 317.099C602.591 317.099 603.581 315.779 604.751 314.279C605.911 312.779 607.281 311.129 607.881 310.319C608.601 309.289 609.091 308.589 609.091 308.279C609.111 307.969 608.511 308.069 607.381 308.899C606.271 309.729 604.671 311.289 602.661 313.829C602.591 313.869 602.401 314.049 602.341 314.049C598.271 319.559 594.011 324.579 590.361 330.509C590.531 330.509 590.511 330.769 590.331 330.909L590.211 330.749C588.081 334.869 586.111 337.069 584.621 341.089C584.621 341.089 584.641 340.559 584.641 340.539C581.201 346.909 577.441 354.579 574.281 362.679C571.111 370.769 568.601 379.299 567.231 387.049L567.271 386.979L567.291 387.019C567.511 386.319 568.061 384.279 568.591 382.439C569.141 380.599 569.631 378.929 569.631 378.929C569.161 384.169 567.061 389.749 566.381 395.289L566.151 395.219C566.321 394.029 566.461 392.899 566.561 391.959C566.681 391.019 566.761 390.279 566.781 389.849C565.871 394.069 564.901 400.549 564.841 407.039C564.671 413.529 565.501 419.969 566.421 424.019C566.561 423.779 565.731 421.299 566.251 420.569C566.371 421.619 566.581 422.659 566.781 423.689C566.961 424.719 567.191 425.719 567.401 426.699C567.031 426.779 566.911 425.619 566.791 425.409C566.891 426.259 567.661 431.309 569.991 437.789C571.171 441.019 572.711 444.589 574.641 448.139C576.591 451.669 578.901 455.159 581.361 458.329C583.791 461.529 586.461 464.309 588.851 466.689C591.291 469.029 593.531 470.899 595.221 472.219C598.681 474.779 599.791 475.319 596.801 472.389L597.251 472.499C593.961 469.739 591.361 467.269 588.551 463.799C588.091 463.369 588.071 463.289 587.931 463.419C587.791 463.319 587.561 463.159 587.551 463.269C587.251 463.649 586.411 462.509 586.011 462.029C586.811 461.799 584.531 459.229 582.121 456.299C579.741 453.359 577.271 449.999 576.841 449.119C577.061 448.769 576.561 447.959 576.021 447.059C575.491 446.149 574.871 445.169 574.741 444.589C574.801 444.649 575.191 445.039 575.241 445.089C575.151 444.549 573.011 440.539 571.561 436.999C571.211 436.109 570.861 435.269 570.591 434.529C570.341 433.779 570.131 433.149 570.001 432.699C569.741 431.799 569.771 431.629 570.341 432.739C569.751 430.269 569.251 427.519 568.751 424.589C568.311 421.649 567.931 418.499 567.711 415.209C567.511 411.909 567.451 408.479 567.561 404.959C567.681 401.449 567.991 397.869 568.461 394.289C570.321 379.959 575.171 365.869 580.241 356.159L580.101 356.279C580.201 356.129 580.371 355.619 580.521 355.539C580.841 354.499 581.531 352.659 582.191 351.099C582.831 349.529 583.441 348.239 583.441 348.239L583.451 348.229ZM567.341 395.799C567.341 395.799 567.371 395.829 567.381 395.819C567.311 395.819 567.031 398.629 567.001 398.739L566.771 398.699C566.581 395.779 569.171 389.469 567.581 395.569C567.611 395.789 567.421 395.769 567.331 395.799H567.341ZM567.361 420.879C567.401 421.369 567.451 421.899 567.541 422.479C566.661 419.319 566.291 415.459 566.251 411.539C566.211 407.609 566.511 403.629 566.641 400.039C567.051 401.299 567.051 403.359 566.951 405.489C566.931 406.559 566.861 407.649 566.811 408.659C566.781 409.669 566.751 410.609 566.751 411.379C567.101 414.459 567.091 418.119 567.351 420.869L567.361 420.879ZM583.811 458.989L583.921 458.919L584.061 459.099C584.061 459.099 583.991 459.119 583.951 459.099C583.911 459.089 583.841 459.039 583.821 458.989H583.811ZM581.431 351.089C581.401 351.609 580.511 353.199 580.691 351.949C580.881 351.689 581.111 350.809 581.431 351.089ZM568.431 428.179C568.801 428.099 569.481 430.369 568.961 430.519C568.751 429.729 568.581 428.949 568.431 428.179ZM589.501 335.189C589.471 334.429 589.771 334.829 590.101 334.779C589.971 334.889 589.651 335.369 589.551 335.169L589.491 335.189H589.501ZM595.311 325.589C595.231 325.339 595.491 324.749 595.651 324.499C596.211 323.949 595.651 325.409 595.311 325.589ZM606.681 311.009C606.531 310.829 606.791 310.459 607.041 310.529C607.131 310.679 606.851 311.159 606.601 311.029C606.611 311.029 606.641 311.029 606.681 311.009ZM570.971 439.059C570.051 438.719 569.861 436.399 569.271 435.349C570.001 435.379 570.241 437.549 570.671 438.369C570.791 438.659 570.891 438.889 570.971 439.069V439.059ZM573.271 367.369C572.681 367.189 573.991 365.029 574.151 364.219L574.371 364.319C574.011 365.489 573.871 366.219 573.291 367.329L573.271 367.379V367.369ZM565.591 417.139C565.311 416.699 565.461 415.889 565.421 415.419C565.761 415.399 566.001 417.409 565.591 417.149V417.139ZM566.001 396.539C566.381 396.479 566.081 397.469 566.091 397.759C566.041 397.549 565.851 397.149 565.881 396.919C565.901 396.749 565.951 396.719 566.001 396.549V396.539ZM573.191 368.289C572.891 369.179 572.551 370.149 572.231 371.079L572.011 370.979C572.321 370.029 572.631 369.099 572.971 368.189L573.191 368.289ZM569.961 377.349L569.731 377.279C569.891 375.869 570.521 375.889 569.971 377.309V377.339L569.961 377.349ZM577.461 356.639C577.391 356.769 577.281 356.969 577.231 357.099C576.471 358.929 576.781 356.029 577.461 356.639ZM581.651 347.129C581.711 346.939 581.761 346.669 581.861 346.479C582.521 345.239 582.331 346.879 581.651 347.129Z" fill="#123263"/>
</g>
<mask id="mask3_287_72768" style="mask-type:luminance" maskUnits="userSpaceOnUse" x="738" y="-52" width="253" height="294">
<path d="M856.26 241.189H856.38L990.95 240.529L860.82 -51.0712L738.67 -51.4312L856.26 241.189Z" fill="white"/>
</mask>
<g mask="url(#mask3_287_72768)">
<path d="M777.941 49.0486C772.521 50.5186 769.971 51.7486 770.061 52.0086C770.161 52.3286 772.891 51.6886 778.281 50.3486C785.941 48.4686 793.921 47.0886 802.661 46.3386C811.391 45.5886 820.881 45.4686 831.371 47.0786C843.251 48.9486 850.381 51.5586 856.451 53.9486C857.971 54.5586 859.401 55.2186 860.831 55.8586C862.231 56.5586 863.661 57.1986 865.081 57.9786C866.501 58.7486 867.971 59.5286 869.481 60.4586C871.031 61.3286 872.541 62.4186 874.201 63.5786C879.801 67.5086 885.191 73.7086 888.941 81.1786C890.741 84.9486 892.201 88.9686 893.261 93.0786C894.251 97.2086 895.011 101.379 895.351 105.479C896.141 113.669 895.911 121.429 895.431 127.779C894.931 134.139 894.291 139.119 893.891 141.899C893.641 143.539 893.441 145.189 893.181 146.839C892.721 149.779 891.901 155.229 890.491 162.379C889.101 169.529 887.161 178.399 884.811 188.249C882.461 198.089 879.721 208.919 876.961 220.039C874.211 231.169 871.461 242.609 869.221 253.709C866.071 269.389 864.551 282.329 864.371 292.629C864.261 302.939 865.431 310.549 866.871 315.599C868.521 321.569 871.131 326.939 874.601 331.279C878.051 335.639 882.311 338.919 886.741 341.259C887.871 341.799 888.951 342.429 890.101 342.869C891.251 343.309 892.381 343.749 893.501 344.179C894.641 344.569 895.801 344.849 896.931 345.189C897.501 345.349 898.061 345.519 898.631 345.659C899.201 345.769 899.781 345.889 900.351 345.999C901.491 346.219 902.621 346.469 903.761 346.659C904.901 346.799 906.031 346.939 907.171 347.079L908.861 347.289C909.421 347.349 909.991 347.359 910.551 347.399C911.681 347.459 912.801 347.529 913.931 347.589C918.871 347.699 921.331 347.359 921.331 347.119C921.331 346.819 918.871 346.609 913.991 346.389C912.881 346.299 911.771 346.209 910.661 346.129C910.111 346.079 909.551 346.059 908.991 345.989L907.331 345.749C906.221 345.589 905.111 345.429 903.991 345.269C902.881 345.059 901.781 344.799 900.671 344.559C900.111 344.439 899.561 344.319 899.001 344.199C898.451 344.059 897.901 343.869 897.351 343.709C896.251 343.359 895.131 343.069 894.031 342.679C892.951 342.249 891.861 341.809 890.751 341.369C889.651 340.929 888.621 340.309 887.541 339.779C883.311 337.479 879.291 334.329 876.031 330.159C872.751 326.009 870.271 320.879 868.681 315.109C868.391 313.979 868.111 312.679 867.781 311.249C867.501 309.799 867.271 308.179 867.001 306.409C866.631 302.859 866.291 298.689 866.401 293.919C866.481 289.159 866.791 283.829 867.481 277.989C868.171 272.149 869.161 265.799 870.441 258.979C871.271 254.539 872.161 250.099 873.081 245.709C877.021 226.739 882.741 205.169 886.771 188.169C888.801 179.679 890.441 172.329 891.511 167.099C892.071 164.489 892.471 162.399 892.751 160.969C893.031 159.539 893.181 158.769 893.181 158.769C893.181 158.769 893.401 157.609 893.771 155.519C893.951 154.469 894.181 153.199 894.441 151.709C894.681 150.219 894.951 148.529 895.241 146.659C896.371 139.179 897.661 128.799 897.711 117.339C897.741 111.609 897.341 105.619 896.381 99.6786C895.411 93.7486 893.791 87.8686 891.401 82.5386C889.031 77.1986 885.851 72.4586 882.341 68.6386C878.871 64.7586 874.941 62.0386 871.591 59.8286C861.311 53.4886 852.801 50.4886 846.321 48.4886C839.791 46.5986 835.171 45.7486 831.651 45.2186C820.981 43.5786 811.301 43.7586 802.501 44.5986C793.681 45.4486 785.621 46.9686 777.941 49.0286V49.0486Z" fill="#1C2B42"/>
<path d="M764.791 18.4089C757.831 24.3589 758.571 25.1989 765.641 19.4489C770.731 15.4689 775.971 11.3989 781.881 7.31887C787.791 3.22887 794.241 -1.07113 801.821 -5.36113C806.121 -7.79113 809.641 -9.71113 812.731 -11.2311C815.781 -12.8411 818.421 -13.9911 820.851 -15.1411C822.061 -15.7311 823.251 -16.2211 824.441 -16.7111C825.631 -17.2011 826.821 -17.7011 828.041 -18.2111C829.261 -18.7411 830.561 -19.1611 831.921 -19.6711C833.291 -20.1511 834.731 -20.7111 836.321 -21.2311C837.671 -21.6511 839.081 -22.0811 840.531 -22.5411C841.261 -22.7611 842.001 -22.9911 842.751 -23.2311C843.511 -23.4311 844.281 -23.6311 845.061 -23.8311C846.621 -24.2311 848.221 -24.6511 849.841 -25.0711C851.481 -25.4111 853.151 -25.7611 854.841 -26.1211C855.691 -26.2911 856.531 -26.4911 857.391 -26.6311C858.251 -26.7711 859.111 -26.9011 859.971 -27.0411C861.701 -27.3011 863.421 -27.6211 865.151 -27.8311C868.611 -28.2611 872.071 -28.5111 875.421 -28.5211C882.111 -28.5611 888.351 -27.3911 893.001 -25.3511C895.331 -24.3311 897.251 -23.1311 898.801 -22.0411C900.301 -20.8811 901.451 -19.8411 902.211 -19.0311C903.131 -18.0911 903.981 -17.0911 904.781 -16.0411C906.201 -14.1811 908.671 -10.4811 910.341 -4.89113C911.171 -2.11113 911.821 1.11887 911.981 4.65887C912.181 8.20887 911.911 12.0689 911.211 16.0789C909.791 24.1089 906.471 32.6089 902.181 40.8589C897.971 49.1589 892.661 57.1389 886.991 64.3389C878.941 74.4989 871.301 81.7789 865.001 87.1689C858.681 92.5489 853.721 96.1389 850.261 98.5089C842.121 104.149 834.551 108.399 827.431 112.029C820.291 115.639 813.551 118.589 806.771 121.229C803.041 122.669 801.221 123.549 801.311 123.809C801.391 124.059 803.391 123.689 807.191 122.359C814.091 119.899 820.941 117.089 828.191 113.549C835.421 109.989 843.091 105.749 851.331 100.059C854.541 97.8689 859.451 94.4089 865.531 89.3789C871.571 84.3189 878.831 77.6889 886.161 68.8589L887.951 66.6989L889.661 64.4789L891.351 62.2589L892.951 59.9789C897.541 53.4389 901.941 46.0389 905.561 38.4689C909.201 30.9289 911.971 23.1089 913.171 15.9689C913.771 12.3989 914.021 9.01887 913.971 5.99887C913.931 2.96887 913.561 0.298866 913.111 -1.87113C912.681 -4.05113 912.161 -5.75113 911.781 -6.90113C911.371 -8.04113 911.151 -8.66113 911.151 -8.66113C911.151 -8.66113 911.061 -8.89113 910.871 -9.32113C910.681 -9.75113 910.451 -10.4011 910.051 -11.1911C909.311 -12.8011 908.081 -15.0611 906.161 -17.5911C904.251 -20.1011 901.501 -22.7911 897.941 -24.9911C896.141 -26.0411 894.181 -27.0311 892.051 -27.7911C889.921 -28.5311 887.671 -29.1611 885.331 -29.5511C882.991 -29.9411 880.581 -30.1911 878.151 -30.2811C875.711 -30.3511 873.251 -30.3011 870.801 -30.1411C868.351 -29.9711 865.901 -29.7011 863.491 -29.3511C861.091 -28.9511 858.711 -28.5611 856.381 -28.1711C847.071 -26.4311 838.681 -23.8211 832.541 -21.6511C823.291 -18.3411 816.681 -15.2911 811.731 -12.7911C810.491 -12.1711 809.351 -11.6011 808.291 -11.0811C807.251 -10.5211 806.301 -10.0011 805.411 -9.52114C803.651 -8.55114 802.151 -7.79113 800.911 -7.04113C793.261 -2.71113 786.791 1.66887 780.901 5.84887C775.001 10.0289 769.811 14.2089 764.801 18.3389L764.791 18.4089Z" fill="#1C2B42"/>
<path d="M830.39 172.529C828.34 174.009 826.76 175.029 825.76 175.819C824.76 176.599 824.3 177.069 824.38 177.199C824.46 177.329 825.07 177.129 826.21 176.559C827.34 175.969 829.05 175.089 831.14 173.649C843.13 165.659 855.06 156.389 870.16 144.219C878.67 137.259 883.9 132.809 888.44 128.929C892.98 125.039 896.84 121.729 902.49 116.879C907.25 112.769 912.85 107.969 918.6 102.879C921.49 100.349 924.4 97.7188 927.28 95.0888L929.42 93.0988L930.35 92.2388C930.41 92.1888 930.39 92.2288 930.64 92.1988L931.34 92.1588L932.73 92.0688L934.12 92.1188L935.5 92.1688C935.96 92.2288 936.41 92.2888 936.86 92.3488C940.48 92.8288 943.89 93.9188 946.92 95.3088C949.97 96.6888 952.61 98.4088 954.81 100.179C959.29 103.679 961.74 107.459 962.94 109.569L963.9 111.509C964.23 112.159 964.42 112.849 964.69 113.519C964.95 114.109 965.13 114.879 965.36 115.759C965.63 116.639 965.77 117.669 965.95 118.819C966.22 121.119 966.34 123.939 965.86 127.099C965.36 130.249 964.35 133.749 962.52 137.199C960.7 140.639 958.09 144.049 954.66 146.849C954.25 147.219 953.77 147.509 953.32 147.839C952.85 148.149 952.43 148.529 951.92 148.789C950.94 149.349 949.97 149.949 948.9 150.429C946.79 151.419 944.51 152.239 942.17 153.019C937.51 154.609 932.42 155.979 927.86 158.959C925.59 160.439 923.57 162.419 922.08 164.749C920.59 167.079 919.69 169.809 919.39 172.529C919.07 175.259 919.29 177.989 919.71 180.609C920.13 183.239 920.79 185.769 921.47 188.249C923.45 195.229 925.45 201.429 925.82 207.149C925.93 208.569 925.9 209.959 925.82 211.289C925.6 212.609 925.55 213.909 925.17 215.119C924.64 217.589 923.59 219.739 922.57 221.719C920.33 225.589 917.59 228.459 915.08 230.679C912.57 232.919 910.19 234.459 908.27 235.699C899.02 241.459 889.6 243.799 881.15 246.559C872.67 249.249 864.81 252.029 857.91 256.519C856.03 257.759 854.71 258.819 853.91 259.629C853.1 260.419 852.75 260.869 852.84 260.969C852.93 261.069 853.45 260.829 854.38 260.229C855.3 259.609 856.68 258.709 858.55 257.539C865.4 253.339 873.16 250.749 881.65 248.179C885.9 246.889 890.36 245.589 895.02 243.969C899.7 242.369 904.49 240.209 909.26 237.289C910.19 236.719 911.21 236.019 912.35 235.259C913.45 234.429 914.71 233.559 915.96 232.459C918.49 230.299 921.31 227.519 923.71 223.719C924.95 221.849 925.92 219.649 926.77 217.269C926.93 216.659 927.09 216.039 927.26 215.409C927.34 215.099 927.42 214.779 927.51 214.459C927.56 214.139 927.61 213.809 927.66 213.479C927.75 212.819 927.85 212.149 927.94 211.479C927.97 210.799 928.04 210.109 928.03 209.419C928.12 203.829 926.57 197.999 924.83 191.949C923.7 187.999 922.5 184.099 921.82 180.189C921.46 178.079 921.25 175.919 921.36 173.759C921.48 171.609 921.97 169.469 922.87 167.499C923.78 165.529 925.12 163.749 926.74 162.269C928.37 160.789 930.31 159.639 932.34 158.679C936.41 156.759 940.82 155.569 944.99 154.069C947.08 153.319 949.11 152.499 951.03 151.509C951.96 150.949 952.92 150.479 953.77 149.869C954.61 149.239 955.5 148.709 956.25 148.009C959.37 145.409 961.73 142.399 963.45 139.499C965.17 136.599 966.27 133.799 966.91 131.409C967.6 129.029 967.87 127.069 968.01 125.729C968.09 125.059 968.15 124.539 968.14 124.189C968.15 123.839 968.16 123.649 968.16 123.649C968.16 123.649 968.16 123.379 968.18 122.859C968.18 122.599 968.19 122.279 968.2 121.899C968.18 121.519 968.15 121.079 968.12 120.589C968.05 118.619 967.64 115.759 966.45 112.439C965.25 109.119 963.03 105.469 959.84 102.149C956.68 98.7988 952.5 95.8488 947.72 93.6388C947.13 93.3388 946.51 93.0988 945.89 92.8688C945.27 92.6388 944.65 92.3788 944.01 92.1588C942.72 91.7888 941.44 91.3288 940.09 91.0988C937.43 90.4688 934.65 90.2488 931.87 90.3688L930.83 90.4388L930.29 90.4788L929.88 90.5088L929.66 90.5288C929.6 90.5588 929.55 90.6188 929.5 90.6688L927.87 92.1988C926.89 93.1188 925.91 94.0288 924.93 94.9388C922.95 96.7288 921 98.5388 919.05 100.259C911.29 107.209 903.98 113.499 898.52 118.159C882.06 132.199 873.94 138.719 868.99 142.769C853.92 154.929 842.12 164.319 830.39 172.529Z" fill="#1C2B42"/>
<path d="M750.33 -22.7715C746.76 -20.3115 745.18 -18.7915 745.35 -18.5515C745.54 -18.2915 747.47 -19.3015 751.07 -21.6415C756.2 -24.9415 761.66 -28.0115 767.73 -31.0215C773.81 -34.0115 780.54 -36.9115 788.33 -39.5415C797.16 -42.5315 802.86 -43.8015 807.81 -44.8815C809.05 -45.1315 810.25 -45.3715 811.44 -45.6115C812.64 -45.8015 813.84 -46.0015 815.08 -46.2015C815.7 -46.3015 816.33 -46.3915 816.97 -46.5015C817.62 -46.5815 818.28 -46.6515 818.96 -46.7315C820.33 -46.8715 821.77 -47.0915 823.34 -47.1915C828.65 -47.6215 834.96 -48.1015 841.3 -47.0215C844.45 -46.4715 847.61 -45.5115 850.39 -43.9015C853.19 -42.3315 855.66 -40.2315 857.66 -37.8415C861.7 -33.0615 864.03 -27.5015 865.41 -22.8615C866.09 -20.5315 866.61 -18.4115 866.87 -16.5915C867.02 -15.6915 867.15 -14.8715 867.27 -14.1415C867.38 -13.4115 867.41 -12.7715 867.47 -12.2415C867.58 -10.9815 867.75 -9.72151 867.76 -8.45151C867.79 -7.32151 867.92 -5.70151 867.8 -3.68151C867.76 -2.67151 867.77 -1.55151 867.62 -0.351513C867.56 0.248487 867.5 0.87849 867.44 1.51849C867.41 1.83849 867.38 2.16849 867.34 2.50849C867.28 2.83849 867.23 3.17849 867.17 3.51849C866.91 4.87849 866.76 6.34849 866.35 7.83849C866.17 8.58849 865.98 9.35849 865.79 10.1485C865.6 10.9385 865.31 11.7085 865.06 12.5185C864.09 15.7485 862.58 19.0885 860.71 22.4285C860.21 23.2485 859.7 24.0685 859.19 24.9085C858.64 25.7185 858.02 26.4985 857.44 27.3085C857.13 27.6985 856.86 28.1285 856.52 28.4985C856.18 28.8685 855.84 29.2485 855.5 29.6285C854.81 30.3685 854.17 31.1885 853.37 31.8485C850.45 34.7885 846.79 37.0985 842.93 38.9585C839 40.6585 834.65 41.5985 830.35 41.4885C826.06 41.3585 821.82 40.0685 818.57 37.5285C817.42 36.6485 816.42 35.6085 815.55 34.5385C814.7 33.4385 813.98 32.2685 813.37 31.0885C812.2 28.6885 811.43 26.2185 810.98 23.8185C810.51 21.4185 810.3 19.0985 810.21 16.9085C810.2 16.3585 810.18 15.8185 810.17 15.2885C810.18 14.7485 810.19 14.2285 810.2 13.7085C810.22 12.6685 810.24 11.6685 810.27 10.6885C810.76 2.90849 812.08 -2.72151 813.15 -6.50151C813.41 -7.63151 813.83 -8.71151 814.15 -9.78151C814.49 -10.8515 814.82 -11.9215 815.23 -12.9315C815.62 -13.9515 816 -14.9615 816.37 -15.9615C816.79 -16.9415 817.21 -17.9015 817.63 -18.8515C817.84 -19.3215 818.04 -19.8015 818.25 -20.2615C818.48 -20.7215 818.7 -21.1715 818.93 -21.6215C819.38 -22.5215 819.82 -23.4215 820.26 -24.3015C821.22 -26.0115 822.11 -27.7215 823.1 -29.3215C827 -35.7615 831.23 -41.2815 835.87 -46.3315C838.45 -49.0815 839.65 -50.5515 839.45 -50.7715C839.28 -50.9515 837.69 -49.8615 834.99 -47.1615C830.14 -42.1915 825.72 -36.7015 821.65 -30.2015C820.62 -28.5915 819.69 -26.8615 818.69 -25.1315C818.24 -24.2415 817.78 -23.3315 817.31 -22.4215C817.08 -21.9615 816.84 -21.5015 816.61 -21.0415C816.4 -20.5615 816.19 -20.0915 815.97 -19.6015C815.54 -18.6415 815.11 -17.6615 814.67 -16.6615C814.28 -15.6515 813.89 -14.6215 813.49 -13.5815C813.07 -12.5415 812.73 -11.4615 812.38 -10.3615C812.05 -9.26151 811.62 -8.16151 811.35 -7.00151C810.35 -3.45151 808.95 2.10849 808.34 9.60849C808.23 10.5385 808.22 11.5085 808.19 12.5085C808.16 13.5085 808.12 14.5285 808.11 15.5785C808.12 17.6885 808.24 19.9185 808.56 22.2385C808.89 24.5585 809.39 26.9885 810.29 29.4185C811.2 31.8385 812.44 34.3185 814.31 36.4885C815.51 37.9085 816.91 39.1785 818.48 40.1685C819.24 40.7185 820.09 41.0885 820.9 41.5285C821.76 41.8685 822.59 42.2685 823.48 42.4985C825.36 43.0985 827.35 43.4285 829.36 43.5285C831.37 43.6485 833.41 43.5385 835.41 43.2185C837.42 42.8985 839.41 42.4285 841.33 41.7285C843.24 41.0285 845.14 40.2285 846.84 39.1385C850.4 37.2185 853.44 34.5785 856.1 31.8385C856.74 31.1285 857.37 30.4185 858 29.7285C858.6 29.0085 859.12 28.2385 859.67 27.5185C860.82 26.0885 861.64 24.5085 862.57 23.0685C865.97 17.0885 867.59 11.3385 868.49 7.26849C868.87 5.21849 869.17 3.57849 869.32 2.44849C869.44 1.31849 869.5 0.69849 869.5 0.69849C869.5 0.69849 869.52 0.46849 869.57 0.0384903C869.6 -0.40151 869.71 -1.04151 869.73 -1.87151C869.76 -2.70151 869.79 -3.71151 869.83 -4.89151C869.89 -6.07151 869.78 -7.41151 869.75 -8.88151C869.47 -14.7615 868.18 -22.9815 864.19 -31.0515C862.2 -35.0615 859.46 -38.9915 855.87 -42.1115C854.07 -43.6615 852.07 -44.9815 849.95 -46.0315C847.82 -47.0515 845.59 -47.7915 843.36 -48.2815C838.89 -49.2415 834.51 -49.3415 830.54 -49.2215C828.55 -49.1715 826.67 -49.0215 824.89 -48.8815C824 -48.8115 823.14 -48.7515 822.31 -48.6915C821.48 -48.6015 820.68 -48.5115 819.91 -48.4215C810.67 -47.3815 803.94 -45.8515 798.86 -44.5715C797.59 -44.2315 796.42 -43.9215 795.34 -43.6315C794.26 -43.3415 793.28 -43.0115 792.37 -42.7415C790.55 -42.1915 789.03 -41.7315 787.74 -41.2615C779.86 -38.5915 773.07 -35.6215 766.96 -32.5115C760.86 -29.3915 755.41 -26.1815 750.34 -22.7115L750.33 -22.7715Z" fill="#1C2B42"/>
<path d="M744.65 -55.4413C741.18 -54.1913 739.6 -53.1813 739.71 -52.9213C739.84 -52.6113 741.63 -53.0413 745.08 -54.1613C749.99 -55.7213 755.14 -56.9513 760.81 -57.7313C766.48 -58.4913 772.67 -58.8013 779.57 -58.1813C787.39 -57.4613 792.15 -56.1313 796.21 -54.8313C800.27 -53.5113 803.64 -52.0613 808.22 -49.3613C812.07 -47.0513 816.32 -43.8713 820.19 -39.9613C824.08 -36.0813 827.65 -31.5813 830.43 -26.9813C833.25 -22.4013 835.37 -17.8113 836.8 -13.9213C838.22 -10.0213 839.09 -6.87127 839.48 -5.09127C839.74 -4.04127 839.99 -2.99127 840.2 -1.93127C840.64 -0.0512706 841.28 3.46873 841.71 8.17873C842.14 12.8887 842.25 18.7987 841.58 25.3387C840.39 38.4387 835.49 53.8487 828.05 66.5087C822.89 75.5087 817.54 82.0587 813.11 86.9887C810.93 89.4987 808.84 91.4887 807.09 93.2287C806.65 93.6687 806.23 94.0787 805.83 94.4787C805.41 94.8587 805 95.2187 804.62 95.5587C803.85 96.2487 803.15 96.8687 802.52 97.4287C801.77 98.0787 801.07 98.7587 800.32 99.3587C799.57 99.9587 798.83 100.549 798.11 101.139C796.65 102.299 795.28 103.479 793.83 104.479C792.41 105.519 791.02 106.519 789.67 107.509C788.27 108.429 786.9 109.319 785.57 110.199C784.9 110.629 784.25 111.089 783.57 111.489C782.89 111.889 782.22 112.279 781.56 112.669C780.23 113.449 778.92 114.219 777.63 114.969C776.3 115.669 774.99 116.359 773.69 117.039C773.04 117.379 772.39 117.729 771.74 118.069L769.76 118.989C763.96 121.689 764.3 122.599 770.26 120.089L772.29 119.229C772.95 118.909 773.62 118.579 774.29 118.259C775.63 117.609 776.97 116.949 778.33 116.289C779.67 115.579 781 114.809 782.36 114.059C783.04 113.679 783.73 113.289 784.42 112.909C785.11 112.509 785.77 112.069 786.46 111.639C787.83 110.769 789.23 109.889 790.66 108.979C792.04 107.999 793.46 106.989 794.91 105.959C796.39 104.959 797.79 103.769 799.28 102.599C800.02 102.009 800.77 101.409 801.53 100.799C802.29 100.189 803.01 99.5087 803.76 98.8487C806.11 96.7987 809.73 93.6087 814.05 88.9687C818.42 84.3887 823.44 78.2687 828.28 70.4187C828.67 69.7787 829.1 69.1587 829.46 68.4987L830.54 66.5187C831.25 65.1987 831.97 63.8887 832.66 62.5687C835.42 56.7587 838.04 50.3587 839.9 43.8787C841.79 37.4087 842.97 30.9187 843.51 25.1687C844.08 19.4187 844.05 14.4387 843.86 10.9187C843.68 7.39873 843.41 5.32873 843.41 5.32873C843.41 5.32873 843.31 4.55873 843.14 3.16873C842.92 1.77873 842.64 -0.231268 842.11 -2.67127C841.1 -7.56127 839.16 -14.2313 835.82 -21.0013C832.55 -27.8113 827.78 -34.6013 822.45 -40.0813C817.14 -45.5913 811.25 -49.6713 806.62 -52.1713C799.59 -55.9013 793.87 -57.5213 789.53 -58.5313C788.44 -58.7613 787.43 -58.9813 786.49 -59.1713C785.55 -59.3113 784.68 -59.4513 783.88 -59.5713C782.28 -59.8513 780.93 -59.9313 779.76 -60.0513C772.69 -60.6813 766.35 -60.3113 760.59 -59.4513C754.82 -58.5713 749.61 -57.1913 744.68 -55.4513L744.65 -55.4413Z" fill="#1C2B42"/>
</g>
<mask id="mask4_287_72768" style="mask-type:luminance" maskUnits="userSpaceOnUse" x="-11" y="405" width="237" height="222">
<path d="M159.2 405.689H69.7305H-10.2695V626.939H211.44L225.8 405.689H212.88H159.2Z" fill="white"/>
</mask>
<g mask="url(#mask4_287_72768)">
<path d="M-27.4689 530.179C-23.7389 533.259 -20.2789 535.709 -17.2489 537.679C-14.1789 539.619 -11.5489 541.099 -9.39889 542.189C-8.31889 542.719 -7.36889 543.179 -6.54889 543.569C-5.71889 543.919 -5.01889 544.209 -4.45889 544.439C-3.33889 544.889 -2.76889 545.079 -2.72889 544.999C-2.69889 544.929 -3.20889 544.599 -4.25889 544.019C-4.78889 543.739 -5.44889 543.389 -6.23889 542.959C-7.01889 542.519 -7.92889 541.999 -8.97889 541.409C-11.0589 540.219 -13.6089 538.659 -16.5889 536.679C-19.5489 534.649 -22.9289 532.179 -26.5989 529.119C-31.7789 524.749 -36.6789 519.969 -41.1889 514.759C-45.6989 509.559 -49.9989 504.029 -53.7889 498.099C-55.6689 495.129 -57.4589 492.059 -58.9989 488.849C-60.5489 485.649 -61.9689 482.339 -63.0089 478.889C-64.0589 475.449 -64.9289 471.899 -65.2189 468.259C-65.5389 464.629 -65.4289 460.939 -64.7589 457.299C-64.5489 456.399 -64.3389 455.499 -64.1289 454.599C-63.8789 453.709 -63.5389 452.839 -63.2489 451.949C-62.6289 450.189 -61.8089 448.499 -60.8789 446.859C-59.0089 443.589 -56.5889 440.579 -53.7689 437.929C-48.1089 432.609 -41.0589 428.589 -33.4489 425.559C-18.1389 419.559 -0.728891 416.889 17.5511 417.389C27.9211 417.659 37.2811 418.899 45.7611 420.499C54.2411 422.099 61.8511 424.099 68.8111 426.149C82.7311 430.329 94.0711 434.779 104.541 439.119C115.001 443.499 124.601 447.749 134.621 452.729C144.611 457.739 155.091 463.419 166.641 471.499C176.391 478.309 186.371 486.659 195.331 496.859C199.821 501.939 204.021 507.499 207.731 513.489C211.461 519.469 214.711 525.909 217.181 532.699C219.601 539.499 221.261 546.679 221.601 553.969C221.921 561.239 220.991 568.649 218.171 575.359C218.001 575.779 217.851 576.209 217.651 576.619L217.051 577.839C216.631 578.639 216.281 579.479 215.811 580.249L214.391 582.569C213.941 583.359 213.341 584.039 212.831 584.789C211.811 586.289 210.541 587.589 209.381 588.959C208.081 590.209 206.861 591.539 205.451 592.659C200.011 597.389 193.611 600.809 187.021 603.279C173.721 608.149 159.601 608.219 146.911 606.049C140.531 605.009 134.451 603.429 128.701 601.639C122.941 599.849 117.501 597.849 112.391 595.829C102.171 591.739 93.2011 587.689 85.7711 584.019C82.0911 582.119 78.7211 580.449 75.8311 578.809C74.3711 578.009 73.0111 577.259 71.7511 576.559C70.5111 575.829 69.3711 575.149 68.3311 574.529L64.6411 572.339L61.0211 570.029C59.8211 569.249 58.5911 568.509 57.4111 567.699L53.8711 565.259C49.6411 562.379 43.7811 558.019 36.9111 552.029C30.0611 546.019 22.2611 538.219 14.8911 528.139C13.9811 526.879 13.0511 525.589 12.1111 524.289C11.2511 522.939 10.3711 521.559 9.4911 520.169C7.6811 517.399 5.9811 514.469 4.4911 511.359C2.9911 508.249 1.71111 504.949 0.861107 501.479C0.0411069 498.009 -0.338892 494.349 0.151108 490.699C0.581108 487.049 1.97111 483.489 4.07111 480.279C6.18111 477.079 9.01111 474.269 12.2611 471.959C15.5311 469.669 19.2511 467.929 23.2211 466.729C27.1911 465.539 31.3911 464.869 35.6711 464.589C39.9611 464.319 44.3411 464.399 48.7511 464.769C50.9611 464.889 53.1711 465.209 55.3911 465.439C57.6011 465.789 59.8411 466.059 62.0511 466.519C70.9511 468.159 79.8411 470.849 88.5211 474.409C92.8611 476.189 97.1311 478.239 101.341 480.439C105.541 482.679 109.651 485.139 113.691 487.769C117.701 490.429 121.611 493.299 125.431 496.309C129.231 499.349 132.901 502.579 136.481 505.929C150.711 519.419 162.951 535.379 172.891 552.469C175.301 556.759 177.351 561.239 178.551 565.929C179.741 570.599 180.001 575.519 178.971 580.169C177.981 584.809 175.551 589.089 171.901 592.039C168.271 595.009 163.721 596.769 159.081 597.429C152.481 598.389 145.891 596.909 139.991 594.459C134.061 591.979 128.711 588.549 123.721 584.929C113.761 577.649 105.491 569.189 98.7411 560.389C91.9911 551.579 86.7311 542.399 82.7911 533.349C78.8811 524.289 76.6311 515.189 75.7011 506.549C74.7711 497.899 75.1511 489.719 76.4111 482.279C76.8211 480.459 77.1111 478.639 77.7211 476.939C78.0111 476.089 78.2011 475.209 78.5711 474.409C78.9111 473.599 79.2511 472.789 79.5811 471.989C81.0711 468.879 82.7611 465.989 84.8011 463.519C88.7611 458.489 93.4311 454.759 97.9511 451.839C102.481 448.899 106.911 446.769 110.941 445.029C120.481 440.909 130.251 438.159 139.801 435.879C149.361 433.629 158.761 431.899 167.931 430.369C186.281 427.319 203.761 424.999 220.441 421.999C228.781 420.479 236.921 418.799 244.841 416.729C248.791 415.639 252.701 414.539 256.501 413.189C258.421 412.569 260.281 411.789 262.161 411.089C264.001 410.289 265.871 409.559 267.651 408.649C269.471 407.819 271.201 406.829 272.951 405.869C274.641 404.809 276.351 403.799 277.941 402.589C281.141 400.239 284.121 397.559 286.541 394.399C291.401 388.099 293.751 380.049 293.321 372.249C293.311 371.709 293.291 371.189 293.281 370.669C293.221 370.149 293.161 369.649 293.111 369.149C292.991 368.149 292.901 367.189 292.751 366.259C292.571 365.339 292.391 364.459 292.221 363.609C292.051 362.759 291.891 361.939 291.651 361.179C291.201 359.649 290.851 358.219 290.411 356.969C289.961 355.719 289.551 354.599 289.181 353.599C288.431 351.609 287.701 350.189 287.271 349.229C286.811 348.269 286.551 347.809 286.491 347.839C286.341 347.899 287.081 349.889 288.471 353.859C288.791 354.859 289.141 355.989 289.541 357.249C289.931 358.499 290.231 359.919 290.641 361.439C290.861 362.199 291.001 362.999 291.151 363.839C291.301 364.679 291.461 365.549 291.631 366.449C291.761 367.359 291.831 368.299 291.941 369.269C291.991 369.759 292.041 370.249 292.101 370.759C292.101 371.269 292.121 371.779 292.131 372.299C292.491 379.899 290.181 387.559 285.491 393.589C283.151 396.609 280.251 399.189 277.131 401.459C275.591 402.629 273.911 403.609 272.251 404.629C270.531 405.549 268.831 406.519 267.041 407.329C265.281 408.209 263.441 408.919 261.621 409.709C259.761 410.389 257.921 411.149 256.021 411.759C252.251 413.079 248.371 414.149 244.451 415.219C236.581 417.249 228.481 418.889 220.161 420.379C203.521 423.319 186.051 425.599 167.651 428.619C158.451 430.139 149.021 431.859 139.391 434.119C129.781 436.409 119.921 439.169 110.221 443.359C106.451 444.969 102.241 447.009 97.8111 449.779C93.4011 452.549 88.7311 456.079 84.5411 460.849C82.5311 463.299 80.5111 465.939 78.9511 469.019C78.0811 470.509 77.4511 472.149 76.7511 473.799C76.3811 474.619 76.1811 475.499 75.8911 476.359C75.6311 477.229 75.3011 478.089 75.1411 479.009C74.2511 482.629 73.8011 486.379 73.4711 490.289C73.1611 494.199 73.1011 498.259 73.3611 502.419C73.8511 510.749 75.5111 519.519 78.6111 528.329C80.1511 532.739 82.1111 537.119 84.3211 541.469C86.5311 545.839 89.0611 550.169 91.8911 554.449C97.5511 562.999 104.461 571.319 112.761 578.849C116.911 582.599 121.411 586.149 126.251 589.399C131.081 592.649 136.321 595.629 142.121 597.659C145.901 598.969 149.871 599.809 153.911 599.959C157.951 600.069 162.021 599.439 165.831 598.039C169.621 596.609 173.171 594.369 175.871 591.269C178.591 588.179 180.331 584.339 181.131 580.399C182.011 576.129 181.891 571.689 181.031 567.409C180.161 563.119 178.551 559.009 176.601 555.109C174.641 551.199 172.361 547.469 169.991 543.809C167.651 540.119 165.151 536.509 162.581 532.929C152.261 518.659 140.031 505.469 126.221 494.509C112.401 483.579 96.9511 474.999 81.0311 469.609C73.0911 466.859 65.0311 464.979 57.0811 463.819C49.1311 462.689 41.2711 462.229 33.6911 462.889C26.1311 463.559 18.8211 465.569 12.7811 469.369C6.78111 473.129 2.0711 478.499 -0.258896 484.549C-1.4089 487.579 -1.94889 490.719 -1.98889 493.739C-2.01889 496.769 -1.5789 499.669 -0.898895 502.379C0.481105 507.799 2.73111 512.459 4.97111 516.509C9.66111 524.479 13.9311 530.469 17.1511 534.339C18.7511 536.279 19.9211 537.829 20.8311 538.789C21.7111 539.759 22.1711 540.269 22.1711 540.269C22.1711 540.269 22.8511 541.019 24.1511 542.449C25.4111 543.919 27.4711 545.889 30.0711 548.479C35.3511 553.549 43.3511 560.559 54.1211 567.919C64.8511 575.339 78.3911 582.979 93.9611 590.109C95.9211 590.979 97.8911 591.869 99.8911 592.759C101.911 593.609 103.951 594.469 106.011 595.339C110.141 597.069 114.401 598.729 118.771 600.329C127.511 603.489 136.781 606.279 146.531 607.899C156.251 609.489 166.501 609.919 176.611 608.019C186.661 606.119 196.511 602.029 204.721 595.589C208.811 592.379 212.471 588.569 215.391 584.239C218.321 579.919 220.471 575.079 221.731 570.059C223.011 565.039 223.481 559.859 223.311 554.759C223.121 549.659 222.301 544.629 221.061 539.779C219.811 534.929 218.131 530.249 216.131 525.779C214.111 521.329 211.821 517.069 209.321 513.019C206.841 508.969 204.131 505.129 201.281 501.529C198.431 497.929 195.481 494.509 192.421 491.339C180.191 478.579 166.901 469.279 155.201 462.179C146.351 456.859 137.781 452.409 129.641 448.509C121.501 444.609 113.811 441.229 106.591 438.159C92.1511 432.019 79.4711 427.459 68.3011 424.149C45.9311 417.539 29.7711 415.909 17.5811 415.539C-0.918892 415.039 -18.5689 417.749 -34.1489 423.879C-41.9089 426.989 -49.1489 431.109 -55.0189 436.649C-57.9389 439.419 -60.4689 442.569 -62.4289 446.009C-63.3989 447.729 -64.2589 449.519 -64.8989 451.369C-65.1989 452.299 -65.5489 453.219 -65.8189 454.149C-66.0389 455.099 -66.2589 456.049 -66.4789 456.989C-67.1789 460.809 -67.2789 464.669 -66.9289 468.439C-66.6089 472.219 -65.6989 475.869 -64.6089 479.409C-63.5189 482.949 -62.0589 486.329 -60.4689 489.589C-58.8889 492.859 -57.0489 495.959 -55.1289 498.979C-51.2489 504.989 -46.8989 510.519 -42.3089 515.759C-37.7189 520.999 -32.7389 525.799 -27.4789 530.189L-27.4689 530.179Z" fill="#1C2B42"/>
<path d="M108.49 641.519C108.05 639.289 107.21 637.499 106.4 636.049C105.58 634.599 104.75 633.499 104.06 632.639C102.66 630.939 101.81 630.239 101.7 630.329C101.57 630.439 102.19 631.339 103.36 633.139C103.93 634.049 104.65 635.179 105.36 636.599C106.06 638.019 106.79 639.729 107.16 641.749C107.7 644.619 107.1 647.639 105.33 649.969C103.57 652.299 100.89 653.969 97.9705 654.819C95.0605 655.679 91.8405 655.659 88.6805 655.169C85.5005 654.679 82.3004 653.729 79.0604 652.669C72.5604 650.589 65.9205 648.069 59.1805 644.899C52.4705 641.689 45.6505 637.829 39.0905 632.839C35.3705 630.019 32.1905 627.219 29.4405 624.489C26.7305 621.729 24.4204 619.059 22.4604 616.469C18.5304 611.279 15.8704 606.479 13.7904 601.869C11.7304 597.239 10.2804 592.749 9.32045 587.839C8.39045 582.939 7.94045 577.579 8.58045 571.309C8.90045 568.669 9.40045 565.929 10.1405 563.149C10.9105 560.379 11.9005 557.579 13.1305 554.799C15.6405 549.259 19.0604 543.789 23.4004 538.929C31.9904 529.089 44.1104 521.989 56.3204 518.309C62.4204 516.429 68.5404 515.289 74.3504 514.869C80.1504 514.299 85.6305 514.529 90.5505 514.919C100.39 515.869 107.91 518.029 112.04 519.329C113.27 519.689 114.47 520.169 115.68 520.589C116.89 521.039 118.12 521.409 119.3 521.929C120.36 522.369 121.65 522.899 123.15 523.519C124.64 524.149 126.29 524.999 128.15 525.859C130.01 526.739 131.96 527.889 134.12 529.039C135.18 529.649 136.26 530.339 137.38 531.019C138.51 531.709 139.68 532.409 140.82 533.229C141.98 534.029 143.18 534.849 144.41 535.689C145.59 536.599 146.81 537.529 148.06 538.479C149.33 539.399 150.52 540.499 151.78 541.549C152.41 542.079 153.04 542.619 153.68 543.169C154.29 543.749 154.91 544.329 155.53 544.919C160.57 549.569 165.6 555.079 169.88 561.559C174.13 568.029 177.53 575.649 178.53 583.969C178.8 586.039 178.89 588.149 178.84 590.259C178.79 592.369 178.59 594.489 178.17 596.579C177.76 598.669 177.19 600.739 176.39 602.739C175.59 604.729 174.6 606.649 173.42 608.469C168.7 615.769 161.22 621.229 153.03 624.419C144.79 627.659 135.87 628.789 127.18 628.929C124.1 629.029 121.1 628.789 118.17 628.669C117.44 628.639 116.71 628.599 115.99 628.569C115.27 628.539 114.55 628.509 113.84 628.399C112.42 628.229 111.02 628.059 109.63 627.889C108.25 627.719 106.88 627.559 105.53 627.399C104.2 627.139 102.88 626.889 101.58 626.639C98.9905 626.109 96.4304 625.729 94.0204 624.999C91.6004 624.339 89.2304 623.739 86.9604 623.079C84.7204 622.309 82.5404 621.559 80.4204 620.839C78.2804 620.179 76.3205 619.229 74.3705 618.439C73.4005 618.029 72.4505 617.629 71.5105 617.239C70.5705 616.849 69.6404 616.459 68.7704 615.999C67.0104 615.119 65.3004 614.259 63.6604 613.429C62.8404 613.009 62.0205 612.629 61.2405 612.189C60.4705 611.739 59.7204 611.299 58.9804 610.859C56.0304 609.109 53.2405 607.579 50.8605 605.849C49.6505 605.019 48.4804 604.229 47.3704 603.479C46.8104 603.099 46.2705 602.729 45.7405 602.369C45.2305 601.969 44.7405 601.589 44.2505 601.209C42.3205 599.699 40.5705 598.329 39.0005 597.109C37.1805 595.619 35.5005 594.019 33.7905 592.519C32.9405 591.759 32.0905 591.019 31.2705 590.249C30.4905 589.449 29.7105 588.649 28.9305 587.859C27.4005 586.259 25.8204 584.759 24.4004 583.149C23.0104 581.519 21.6305 579.899 20.2805 578.309C18.8705 576.759 17.7004 575.059 16.4804 573.429C15.2904 571.779 14.0404 570.209 12.9404 568.559C11.8804 566.879 10.8305 565.229 9.79045 563.589C9.27045 562.769 8.76045 561.949 8.25045 561.139C7.80045 560.299 7.35045 559.449 6.90045 558.619C3.23045 552.009 -0.16955 545.379 -0.87955 538.439C-1.23955 534.989 -0.69955 531.549 0.50045 528.369C1.73045 525.189 3.58045 522.279 5.80045 519.689C8.24045 516.839 10.4104 514.989 11.8204 513.739C13.2504 512.489 13.9804 511.869 13.8904 511.749C13.8204 511.649 12.9405 512.049 11.3505 513.139C9.78045 514.239 7.46045 515.999 4.89045 518.899C2.56045 521.539 0.58045 524.539 -0.75955 527.879C-1.42955 529.549 -1.88955 531.309 -2.18955 533.099C-2.44955 534.899 -2.52955 536.739 -2.35955 538.569C-2.04955 542.239 -0.96955 545.809 0.42045 549.259C1.13045 550.979 1.88045 552.699 2.75045 554.369C3.63045 556.039 4.52045 557.719 5.41045 559.419C5.86045 560.269 6.31045 561.129 6.76045 561.989C7.26045 562.819 7.79045 563.639 8.31045 564.479C9.35045 566.149 10.4104 567.829 11.4804 569.539C12.5904 571.219 13.8504 572.819 15.0504 574.499C16.2804 576.159 17.4604 577.879 18.8804 579.459C20.2504 581.079 21.6405 582.709 23.0405 584.379C24.4805 586.009 26.0805 587.539 27.6205 589.159C28.4005 589.959 29.1904 590.769 29.9804 591.589C30.8104 592.369 31.6704 593.119 32.5304 593.899C34.2704 595.419 35.9605 597.049 37.8105 598.559C43.5605 603.199 52.6705 610.229 66.1505 616.939C66.9905 617.369 67.8404 617.799 68.7004 618.229C69.5704 618.659 70.4905 619.009 71.4005 619.409C73.2305 620.189 75.1105 620.989 77.0505 621.819C79.0005 622.609 81.0604 623.249 83.1404 623.989C84.1804 624.349 85.2404 624.719 86.3104 625.089C87.3904 625.439 88.5005 625.699 89.6205 626.019C98.5005 628.689 108.56 630.399 119.47 630.929C121.25 630.999 123.03 631.129 124.81 631.139C126.59 631.149 128.37 631.099 130.15 631.029C133.71 630.859 137.25 630.519 140.75 629.919C148.28 628.639 156.04 626.129 162.82 621.649C166.2 619.429 169.32 616.749 171.99 613.659C174.64 610.549 176.82 607.019 178.28 603.209C181.23 595.579 181.35 587.259 179.75 579.779C178.17 572.239 174.82 565.519 171 559.829C167.16 554.129 162.88 549.369 158.8 545.389C156.73 543.429 154.81 541.549 152.88 539.979C151.93 539.179 151.03 538.379 150.14 537.659C149.23 536.959 148.36 536.289 147.53 535.649C146.7 535.019 145.93 534.389 145.16 533.859C144.39 533.329 143.67 532.829 142.99 532.359C141.64 531.439 140.5 530.609 139.52 530.039C137.58 528.839 136.53 528.199 136.53 528.199C136.53 528.199 136.14 527.959 135.39 527.499C134.62 527.079 133.49 526.459 132.03 525.659C131.3 525.269 130.5 524.799 129.59 524.359C128.68 523.919 127.69 523.449 126.63 522.939C124.53 521.859 122.02 520.919 119.3 519.759C113.77 517.669 107.04 515.539 99.3605 514.179C91.7005 512.809 83.1005 512.229 74.1905 513.029C65.2805 513.739 56.0905 515.949 47.4905 519.679C38.8805 523.369 30.9404 528.709 24.5704 535.189C18.2204 541.679 13.4705 549.209 10.5505 556.699C9.08045 560.439 8.06045 564.169 7.44045 567.739C7.14045 569.529 6.90045 571.269 6.80045 572.969C6.75045 573.819 6.64045 574.649 6.65045 575.459C6.65045 576.279 6.64045 577.079 6.63045 577.859C6.69045 582.579 7.33045 586.969 8.27045 590.979C9.19045 594.999 10.5004 598.629 11.9004 601.929C13.2704 605.249 14.9005 608.149 16.4305 610.839C18.0505 613.469 19.6505 615.849 21.2705 617.949C24.4905 622.169 27.6004 625.419 30.4004 628.049C33.2304 630.639 35.6904 632.719 37.9204 634.359C44.6104 639.439 51.5505 643.349 58.3605 646.579C65.1905 649.779 71.9205 652.289 78.5005 654.349C81.7805 655.389 85.0505 656.349 88.4005 656.839C91.7405 657.319 95.1704 657.329 98.3904 656.349C101.58 655.389 104.5 653.539 106.48 650.869C107.45 649.529 108.15 647.989 108.47 646.379C108.8 644.769 108.77 643.109 108.47 641.539L108.49 641.519Z" fill="#1C2B42"/>
</g>
<path d="M169.901 106.049H141.511H104.121H41.8108H-21.1992V294.059H332.611V106.049H270.991H206.251H169.901Z" fill="#1C2B42"/>
<path d="M332.61 294.059V106.049H270.99H225.43L142.27 294.059H332.61Z" fill="#123263"/>
<path d="M277.682 -18.1818L91.0195 403.643L95.5919 405.666L282.255 -16.1585L277.682 -18.1818Z" fill="#1C2B42"/>
<path d="M332.611 103.549H-21.1992V108.549H332.611V103.549Z" fill="#1C2B42"/>
<path d="M488.1 35.019H483.1V645.879H488.1V35.019Z" fill="#123263"/>
<path d="M860.611 -51.4409L990.081 241.269H856.271L738.061 -51.4409H860.621M863.861 -56.4409H730.641L733.421 -49.5709L851.631 243.139L852.891 246.269H997.761L994.651 239.249L865.181 -53.4609L863.861 -56.4409Z" fill="#1C2B42"/>
</g>
</g>
<defs>
<clipPath id="clip0_287_72768">
<rect width="960.091" height="540.03" fill="white"/>
</clipPath>
</defs>
</svg>
