<svg width="961" height="541" viewBox="0 0 961 541" fill="none" xmlns="http://www.w3.org/2000/svg">
<g clip-path="url(#clip0_287_72898)">
<mask id="mask0_287_72898" style="mask-type:luminance" maskUnits="userSpaceOnUse" x="-1" y="-1" width="961" height="541">
<path d="M959.908 -0.300781H-0.0917969V539.699H959.908V-0.300781Z" fill="white"/>
</mask>
<g mask="url(#mask0_287_72898)">
<path d="M959.908 -0.791016H-0.0917969V539.209H959.908V-0.791016Z" fill="#292A2E"/>
<path d="M253.109 404.679H212.339H158.649H69.179H-21.291V631.029H486.729V404.679H398.249H305.299H253.109Z" fill="#1E1F21"/>
<path d="M225.259 404.679H212.339H158.649H69.179H-21.291V631.029H210.569L225.259 404.679Z" fill="#292A2E"/>
<path d="M600.508 151.909V134.539V111.669V73.559V35.019H485.508V645.879H600.508V213.739V174.139V151.909Z" fill="#1E1F21"/>
<path d="M254.478 40.159C239.538 -11.351 199.718 -43.211 145.798 -52.001C135.688 -53.651 125.098 -54.491 114.068 -54.501C102.568 -54.501 91.5384 -53.591 81.0284 -51.841C21.7684 -41.971 -20.4016 -4.60098 -31.3616 55.859C-33.2116 66.079 -34.1816 76.949 -34.1816 88.459C-34.1816 94.509 -33.9116 100.379 -33.3816 106.069H225.328L254.478 40.159Z" fill="#292A2E"/>
<path d="M989.989 241.259H856.169L737.959 -51.4409H860.519L989.989 241.259Z" fill="#292A2E"/>
<path d="M1020.38 699.219H562.369L532.639 241.199H1050.1L1020.38 699.219Z" fill="#1E1F21"/>
<path d="M600.509 241.199H532.639L558.899 645.879H600.509V241.199Z" fill="#292A2E"/>
<path d="M1087.48 539.559C1090.41 523.159 1091.94 505.729 1091.95 487.289C1091.95 468.589 1090.41 450.919 1087.43 434.319C1069.7 335.509 1001.09 274.589 904.839 258.909C888.419 256.229 871.199 254.859 853.289 254.849C834.599 254.849 816.679 256.319 799.599 259.169C703.279 275.219 634.759 335.939 616.949 434.189C613.939 450.789 612.369 468.459 612.369 487.159C612.369 505.599 613.889 523.029 616.839 539.429C634.459 637.559 703.019 698.439 799.479 714.549C816.549 717.399 834.469 718.889 853.159 718.899C871.079 718.899 888.289 717.539 904.719 714.869C1001.13 699.219 1069.85 638.229 1087.49 539.559H1087.48Z" fill="#292A2E"/>
<path d="M804.018 163.339C805.278 156.319 805.928 148.859 805.928 140.959C805.928 132.949 805.268 125.389 803.988 118.279C796.398 75.9692 767.008 49.8892 725.778 43.1692C718.748 42.0192 711.368 41.4292 703.698 41.4292C696.028 41.4292 688.018 42.0592 680.708 43.2792C639.458 50.1492 610.108 76.1492 602.478 118.219C601.188 125.329 600.518 132.889 600.518 140.899C600.518 148.799 601.168 156.259 602.428 163.279C609.978 205.299 639.338 231.359 680.658 238.259C687.968 239.479 695.648 240.119 703.648 240.119C711.318 240.119 718.698 239.539 725.728 238.399C767.018 231.699 796.448 205.589 804.008 163.339H804.018Z" fill="#1E1F21"/>
<path d="M279.838 -17.1709L93.248 404.679H334.048L504.408 -17.1709H279.838Z" fill="#1E1F21"/>
<path d="M260.158 106.069C260.678 100.399 260.948 94.5589 260.948 88.5389C260.948 77.0289 259.998 66.1589 258.168 55.9389C257.188 50.4889 255.958 45.2289 254.488 40.1489L225.338 106.059H260.158V106.069Z" fill="#292A2E"/>
<mask id="mask1_287_72898" style="mask-type:luminance" maskUnits="userSpaceOnUse" x="-11" y="-17" width="266" height="125">
<path d="M-10.3613 4.70902V107.069H225.789L254.939 41.159C250.639 26.329 240.199 2.40902 224.179 -13.351L6.36867 -16.501C5.63867 -15.491 -9.67133 3.67902 -10.3613 4.70902Z" fill="white"/>
</mask>
<g mask="url(#mask1_287_72898)">
<path d="M30.1185 -2.29068C28.7085 -6.07068 27.6585 -5.69068 28.8385 -1.86068C30.4885 3.58932 32.2385 9.29932 34.2185 16.7093C35.3585 20.8993 36.0285 23.5293 36.5985 25.8293C37.1585 28.1293 37.6285 30.0893 38.1285 32.9893C39.0285 37.8793 39.8385 44.5293 40.1085 50.4493C40.3885 56.3793 40.1585 61.5593 40.0385 63.5693L39.9385 65.3493C39.8585 67.4793 39.5485 73.2293 38.1985 80.3193C36.8485 87.3893 34.3385 95.8093 30.6285 102.919C28.0585 107.969 25.4085 111.719 23.0985 114.489C20.7885 117.259 18.8585 119.089 17.4785 120.259C14.2385 123.069 11.0585 125.089 7.94855 126.559C4.82855 128.029 1.78855 129.009 -1.31145 129.589C-3.01145 129.909 -3.86145 130.219 -3.84145 130.499C-3.82145 130.759 -2.91145 130.989 -1.12145 130.779C2.11855 130.399 5.34855 129.539 8.65855 128.099C11.9685 126.659 15.3385 124.589 18.7085 121.669C20.0385 120.559 22.0185 118.749 24.3485 116.119C26.6685 113.479 29.2985 109.979 31.7385 105.509L32.8785 103.299C33.2185 102.549 33.5585 101.799 33.8985 101.049C36.6785 94.5193 38.9385 86.7193 40.0785 80.4893C40.3785 78.9293 40.6385 77.4893 40.8185 76.1793C41.0285 74.8793 41.1785 73.7193 41.2885 72.7593C41.5385 70.8393 41.6285 69.6993 41.6285 69.6993C41.6285 69.6993 41.6685 69.2793 41.7385 68.5093C41.8185 67.7493 41.8785 66.6393 41.9585 65.2693C42.1185 62.5393 42.2185 58.7693 42.0785 54.6493C41.9585 50.5293 41.6085 46.0593 41.1085 41.9193C40.6085 37.7793 39.9785 33.9793 39.4485 31.1593C37.7985 22.6793 36.6585 18.6793 36.0285 16.2093C34.0185 8.74932 32.0885 3.04932 30.1185 -2.31068V-2.29068Z" fill="#1E1F21"/>
<path d="M170.169 113.449C176.869 118.519 177.499 117.599 171.009 112.399C166.449 108.659 161.969 104.579 157.319 99.9494C152.669 95.3194 147.859 90.1094 142.789 83.9694C137.039 77.0094 133.739 72.4194 130.899 68.4194C128.059 64.4094 125.729 60.9194 122.579 55.6694C119.909 51.2394 116.849 45.9794 114.509 40.1794C113.339 37.2794 112.379 34.2294 111.789 31.1394C111.189 28.0494 110.989 24.9094 111.209 21.9094C111.609 15.8794 113.899 10.4794 116.939 7.06936C118.429 5.33935 120.039 4.04936 121.459 3.07936C122.919 2.14936 124.159 1.47936 125.089 1.08936C125.629 0.839355 126.179 0.599355 126.749 0.399355C127.309 0.179355 127.869 -0.0306447 128.449 -0.200645C129.469 -0.550645 130.959 -0.920645 132.849 -1.27064C134.749 -1.57064 137.069 -1.77064 139.709 -1.64064C144.989 -1.40064 151.539 0.359355 158.139 3.81936C164.769 7.23936 171.519 12.1594 177.949 17.6994C178.769 18.3794 179.549 19.0994 180.339 19.8294C181.119 20.5594 181.919 21.2694 182.689 22.0094C184.209 23.5294 185.769 25.0094 187.209 26.5894C190.179 29.6894 192.919 32.9794 195.509 36.2694C199.169 40.9294 202.159 45.3794 204.669 49.4994C205.309 50.5194 205.909 51.5294 206.469 52.5194C207.029 53.5094 207.579 54.4694 208.109 55.4094C209.099 57.3194 210.089 59.0794 210.899 60.7994C214.239 67.6094 216.229 72.8294 217.469 76.4494C220.429 84.9794 222.049 92.7394 222.819 99.9694C223.499 107.199 223.349 113.929 222.169 120.439C221.889 122.239 221.589 123.569 221.489 124.479C221.369 125.389 221.389 125.869 221.519 125.909C221.649 125.949 221.889 125.539 222.219 124.669C222.539 123.799 223.009 122.489 223.349 120.669C224.759 114.079 225.079 107.209 224.499 99.8194C223.839 92.4394 222.239 84.5094 219.239 75.8394C218.089 72.4694 216.209 67.2994 213.119 60.7694C211.609 57.4894 209.689 53.9194 207.499 50.0494C205.229 46.2194 202.599 42.1194 199.509 37.8794C198.469 36.5194 197.449 35.1494 196.379 33.8194C195.279 32.5094 194.229 31.1794 193.089 29.9194C188.249 24.4294 182.619 18.9294 176.679 14.0594C170.709 9.24935 164.559 4.92936 158.649 1.93936C152.779 -1.11064 147.189 -2.69064 143.169 -3.26064C141.159 -3.58064 139.519 -3.63064 138.409 -3.66064C137.299 -3.65064 136.689 -3.64064 136.689 -3.64064C136.689 -3.64064 135.789 -3.61064 134.169 -3.46064C132.559 -3.28064 130.229 -2.91064 127.459 -2.02064C124.709 -1.14064 121.529 0.369355 118.529 2.78936C115.539 5.20936 112.889 8.68936 111.329 12.7994C109.729 16.8994 109.119 21.5194 109.369 26.0694C109.609 30.6394 110.769 35.0894 112.299 39.1794C113.829 43.2694 115.739 47.0094 117.589 50.3594C119.449 53.7094 121.269 56.6794 122.819 59.2194C132.359 74.4194 138.019 81.0094 141.319 85.1494C146.439 91.3394 151.329 96.5594 156.079 101.179C160.839 105.779 165.439 109.799 170.139 113.439L170.169 113.449Z" fill="#1E1F21"/>
<path d="M110.068 126.999C112.048 128.679 113.608 129.839 114.688 130.549C115.768 131.269 116.368 131.559 116.458 131.439C116.558 131.319 116.148 130.789 115.228 129.879C114.298 128.979 112.868 127.679 110.938 125.969C105.458 121.149 100.138 115.879 94.8082 109.769C93.4482 108.269 92.1782 106.639 90.8182 105.019C89.5282 103.349 88.1582 101.679 86.8782 99.8692C84.2482 96.3192 81.6782 92.4492 79.1982 88.2092C76.3882 83.4092 74.3482 79.3692 72.7882 75.8192C71.1682 72.2892 70.0382 69.2392 69.0882 66.3792C68.6082 64.9492 68.1682 63.5592 67.7982 62.1592C67.3782 60.7692 67.0682 59.3592 66.7282 57.9092C66.0982 54.9992 65.5282 51.8692 65.2382 48.1192C65.0582 46.5392 65.0582 44.8792 64.9882 43.1692C65.0282 41.4592 64.9982 39.6892 65.1782 37.8892C65.4482 34.2892 66.0382 30.5192 67.1482 26.8292C68.2282 23.1292 69.7782 19.4992 71.7282 16.1092C72.2082 15.2592 72.7882 14.4692 73.3082 13.6492L74.1082 12.4292L74.9982 11.2892C75.5982 10.5392 76.1782 9.75917 76.7882 9.02917C77.4382 8.32917 78.0782 7.62917 78.7182 6.93917C79.3382 6.22917 80.0382 5.60917 80.7182 4.97917C81.4082 4.35917 82.0482 3.69917 82.7582 3.13917C84.1882 2.02917 85.5282 0.85917 86.9882 -0.0708303C87.6982 -0.56083 88.3982 -1.03083 89.0882 -1.50083C89.8082 -1.92083 90.5082 -2.34083 91.1982 -2.75083C92.5582 -3.60083 93.9582 -4.25083 95.2482 -4.92083C100.498 -7.48083 104.928 -8.80083 107.388 -9.50083C108.848 -9.93083 110.338 -10.2208 111.818 -10.6108C114.478 -11.1508 119.428 -12.1908 126.098 -12.3508C126.928 -12.3708 127.788 -12.3808 128.678 -12.4008C129.558 -12.3808 130.468 -12.3608 131.398 -12.3308C133.258 -12.3208 135.208 -12.1208 137.238 -11.9808C141.288 -11.5808 145.648 -10.9308 150.198 -9.98083C168.428 -6.19083 189.228 2.93917 207.818 12.2592C220.938 18.9092 231.118 25.1192 238.918 30.3592C246.758 35.5692 252.158 39.9092 255.858 42.8692C264.538 49.9592 271.538 56.8292 277.578 63.5592C283.668 70.2392 288.518 77.0092 292.998 83.8892C297.708 91.5892 298.578 91.1592 294.018 83.2592C289.678 76.2092 284.918 69.2692 278.848 62.4392C272.838 55.5692 265.798 48.5792 257.048 41.4192C255.318 40.0692 253.188 38.2592 250.518 36.2292C247.808 34.2492 244.728 31.8192 241.028 29.3492C233.718 24.2692 224.348 18.3892 212.908 12.3892C211.038 11.4292 209.158 10.4792 207.288 9.51917C205.418 8.55917 203.508 7.70917 201.628 6.80917C193.468 3.01917 184.628 -0.90083 175.778 -4.23083C171.358 -5.89083 166.938 -7.43083 162.628 -8.73083C158.308 -10.0208 154.108 -11.1008 150.128 -11.9408C142.168 -13.5908 135.168 -14.2108 130.198 -14.3008C128.958 -14.3608 127.838 -14.3208 126.868 -14.3008C125.888 -14.2808 125.058 -14.2908 124.378 -14.2508C123.018 -14.1608 122.288 -14.1108 122.288 -14.1108C122.288 -14.1108 122.018 -14.0908 121.488 -14.0608C120.968 -14.0308 120.198 -13.9808 119.218 -13.8408C118.238 -13.7108 117.028 -13.5908 115.648 -13.3708C114.268 -13.1008 112.688 -12.8808 110.968 -12.4608C107.518 -11.7008 103.498 -10.4908 99.1782 -8.78083C94.8782 -7.03083 90.3282 -4.65083 85.9682 -1.58083C81.6082 1.48917 77.4482 5.28917 74.0182 9.72917C70.5882 14.1492 67.9082 19.1892 66.1982 24.3192C64.4682 29.4592 63.6582 34.6492 63.4382 39.4092C63.2182 44.1792 63.5682 48.5392 64.0682 52.2092C64.8282 57.7492 66.0482 62.4692 67.3282 66.5092C68.6282 70.5492 69.9382 73.9492 71.2482 76.8092C73.8182 82.5492 75.9082 86.3392 77.5882 89.1692C80.0982 93.4692 82.7182 97.3892 85.4082 100.969C86.7182 102.789 88.1082 104.479 89.4282 106.159C90.8182 107.779 92.1182 109.419 93.5082 110.929C98.9682 117.049 104.438 122.269 110.058 127.009L110.068 126.999Z" fill="#1E1F21"/>
<path d="M269.939 76.3592C274.059 73.6292 273.379 72.7392 269.219 75.2192C267.739 76.0892 266.278 77.0492 264.648 77.7792C263.038 78.5392 261.428 79.4292 259.678 80.1792C257.898 80.8592 256.069 81.6192 254.119 82.3492C253.119 82.6392 252.099 82.9392 251.049 83.2492C250.529 83.4092 249.999 83.5592 249.459 83.7192C248.919 83.8792 248.379 84.0492 247.809 84.1392C246.529 84.3992 245.369 84.6392 244.309 84.8592C243.779 84.9692 243.269 85.0792 242.789 85.1792C242.299 85.2392 241.829 85.2992 241.369 85.3492C239.559 85.5492 238.039 85.7892 236.619 85.8992C235.189 85.9392 233.879 85.9792 232.469 86.0292C232.119 86.0292 231.759 86.0492 231.389 86.0592C231.019 86.0292 230.649 86.0092 230.269 85.9792C229.499 85.9192 228.679 85.8592 227.799 85.7892C227.049 85.7192 226.269 85.6992 225.469 85.5792C224.669 85.4492 223.839 85.3092 222.999 85.1692C222.149 85.0292 221.289 84.8892 220.409 84.7392C219.539 84.5192 218.659 84.3092 217.769 84.0792C216.879 83.8592 215.979 83.6292 215.079 83.4092L212.419 82.5392C211.539 82.2492 210.659 81.9492 209.779 81.6592C208.929 81.3092 208.079 80.9692 207.249 80.6292C206.419 80.2892 205.599 79.9492 204.799 79.6292C204.019 79.2492 203.259 78.8892 202.519 78.5292C201.049 77.8092 199.649 77.1692 198.449 76.4592C197.239 75.7792 196.149 75.1792 195.239 74.6692C194.339 74.1392 193.629 73.6692 193.109 73.3492L191.259 72.2192C190.699 71.8992 189.919 71.3992 188.959 70.7592C187.999 70.1092 186.829 69.3692 185.519 68.4592C184.239 67.5192 182.799 66.4692 181.239 65.3292C179.739 64.1092 178.059 62.8692 176.389 61.4292C173.009 58.6092 169.449 55.2892 165.929 51.7592C162.439 48.1892 159.039 44.3692 155.949 40.5492C151.579 35.1592 148.339 30.5492 146.149 26.7492C145.579 25.8092 145.129 24.8992 144.739 24.0692C144.579 23.6492 144.389 23.2892 144.269 22.8592C144.139 22.4392 144.009 22.0292 143.889 21.6392C143.419 20.0792 143.099 18.7492 142.869 17.6692C142.319 15.1092 141.989 12.6792 141.819 10.3692C141.669 8.04922 141.679 5.85922 141.809 3.74922C142.129 -0.450781 142.919 -4.27078 144.269 -7.87078C144.999 -9.84078 145.289 -10.8908 145.029 -11.0308C144.909 -11.0908 144.669 -10.9108 144.339 -10.4708C144.019 -10.0308 143.559 -9.33078 143.149 -8.32078C141.549 -4.69078 140.569 -0.740781 140.119 3.60922C139.929 5.78922 139.879 8.06922 139.999 10.4792C140.149 12.8892 140.479 15.4092 141.039 18.0592C141.249 19.0892 141.559 20.3892 141.979 21.9492C142.229 22.7292 142.389 23.5392 142.789 24.4792C142.959 24.9592 143.179 25.3992 143.399 25.8592C143.629 26.3192 143.849 26.7992 144.119 27.2592C146.179 31.0092 149.079 35.4092 152.879 40.2392C154.129 41.7992 155.389 43.3592 156.729 44.8192C162.369 51.2592 169.459 58.0892 175.349 63.0292C178.299 65.4892 180.909 67.5292 182.819 68.8992C184.689 70.3192 185.859 71.0792 185.859 71.0792C185.859 71.0792 186.289 71.3692 187.059 71.8892C187.849 72.3892 188.929 73.2092 190.369 74.0392C191.079 74.4692 191.859 74.9392 192.699 75.4492C193.119 75.6992 193.549 75.9692 193.989 76.2292C194.449 76.4792 194.919 76.7292 195.399 76.9892C196.369 77.5092 197.379 78.0492 198.419 78.6192C199.469 79.1792 200.599 79.6592 201.739 80.2092C203.989 81.3392 206.469 82.2192 208.909 83.2092C210.149 83.6492 211.419 84.0292 212.659 84.4292C213.279 84.6292 213.899 84.8292 214.519 85.0192C215.149 85.1692 215.769 85.3292 216.389 85.4792C217.629 85.7792 218.849 86.0692 220.029 86.3592C221.229 86.5492 222.389 86.7392 223.509 86.9192C225.729 87.3492 227.799 87.3992 229.549 87.5592C230.209 87.6092 230.849 87.6692 231.469 87.6892C232.089 87.6892 232.689 87.6792 233.269 87.6692C234.429 87.6592 235.509 87.6392 236.519 87.6292C238.539 87.5292 240.249 87.2792 241.739 87.1492C243.239 87.0492 244.459 86.6992 245.529 86.5192C246.589 86.3092 247.479 86.1292 248.249 85.9792C248.839 85.8792 249.399 85.7092 249.949 85.5392C250.499 85.3692 251.049 85.2092 251.589 85.0492C252.669 84.7192 253.709 84.3992 254.729 84.0892C256.719 83.3192 258.589 82.5192 260.389 81.7692C262.169 80.9592 263.778 80.0092 265.398 79.1692C267.038 78.3692 268.479 77.3192 269.939 76.3692V76.3592Z" fill="#1E1F21"/>
</g>
<mask id="mask2_287_72898" style="mask-type:luminance" maskUnits="userSpaceOnUse" x="485" y="36" width="116" height="591">
<path d="M485.969 626.939H558.059L533.099 242.199H600.959V214.739V175.149V152.909V135.549V112.679V74.5688V36.0288H485.969V626.939Z" fill="white"/>
</mask>
<g mask="url(#mask2_287_72898)">
<path d="M487.648 105.649C483.058 106.009 480.808 106.639 480.848 106.929C480.888 107.249 483.188 107.229 487.738 106.989C494.188 106.679 500.838 106.769 507.968 107.509C515.078 108.319 522.698 109.869 530.828 112.929C535.438 114.639 539.048 116.389 542.078 118.009C543.608 118.789 544.948 119.629 546.238 120.359C547.478 121.159 548.688 121.849 549.778 122.629C550.888 123.379 551.958 124.109 552.968 124.889C553.478 125.279 554.008 125.649 554.508 126.049C554.998 126.469 555.488 126.889 555.988 127.309C556.478 127.739 557.008 128.159 557.498 128.629C557.968 129.119 558.458 129.619 558.958 130.139C559.998 131.129 560.898 132.369 561.928 133.659C565.358 138.089 568.008 144.239 569.428 150.929C570.748 157.659 570.878 164.869 570.288 171.579C569.058 185.049 565.688 196.509 564.488 200.939C564.118 202.249 563.748 203.559 563.368 204.879C562.688 207.229 561.448 211.569 559.578 217.249C557.728 222.939 555.298 229.969 552.468 237.769C546.848 253.389 539.528 272.049 534.028 289.809C530.188 302.359 527.878 312.809 527.048 321.249C526.108 329.669 526.748 336.009 527.568 340.239C528.548 345.249 530.378 349.819 532.978 353.599C535.568 357.389 538.868 360.339 542.338 362.549C542.768 362.829 543.208 363.109 543.638 363.379C544.068 363.649 544.538 363.859 544.978 364.099C545.878 364.549 546.748 365.049 547.658 365.439C549.488 366.179 551.278 366.959 553.118 367.469C556.758 368.669 560.428 369.339 564.078 369.909C568.108 370.419 570.148 370.329 570.168 370.079C570.198 369.789 568.218 369.339 564.268 368.729C560.688 368.059 557.098 367.309 553.588 366.059C551.798 365.519 550.088 364.729 548.328 363.979C547.458 363.589 546.628 363.089 545.768 362.649C545.348 362.409 544.898 362.209 544.488 361.939C544.078 361.669 543.668 361.399 543.258 361.119C539.968 358.959 536.888 356.149 534.478 352.559C532.058 348.979 530.328 344.669 529.398 339.859C528.648 336.139 528.128 330.209 528.938 322.459C529.728 314.709 531.728 305.199 534.958 294.299C535.998 290.739 537.098 287.199 538.188 283.689C542.978 268.549 549.508 251.449 554.378 237.979C559.308 224.529 562.458 214.659 562.458 214.659C562.458 214.659 562.748 213.739 563.268 212.079C563.798 210.419 564.528 208.009 565.388 205.029C567.108 199.069 569.328 190.789 570.828 181.509C571.568 176.869 572.138 171.989 572.308 167.059C572.448 162.129 572.188 157.159 571.368 152.439C570.558 147.719 569.148 143.269 567.308 139.419C565.478 135.559 563.118 132.419 560.968 129.889C560.098 128.989 559.268 128.109 558.458 127.269C557.578 126.499 556.718 125.759 555.898 125.039C554.218 123.659 552.598 122.459 551.038 121.389C547.938 119.239 545.168 117.569 542.708 116.259C537.788 113.609 534.198 112.189 531.478 111.129C523.178 108.009 515.378 106.469 508.138 105.739C500.878 105.069 494.158 105.109 487.648 105.589V105.649Z" fill="#292A2E"/>
<path d="M485.609 69.9891C479.139 73.7291 479.719 74.6791 486.249 71.1791C490.909 68.7391 495.769 66.3991 501.129 64.0591C506.489 61.7291 512.359 59.4291 519.119 57.2891C522.939 56.0691 526.089 55.1991 528.799 54.5091C530.159 54.1791 531.409 53.8691 532.579 53.5791C533.759 53.3291 534.869 53.0891 535.939 52.8591C538.069 52.3991 540.069 52.0891 542.199 51.7191C544.339 51.4491 546.599 51.0791 549.319 50.8991C553.889 50.5091 559.299 50.1891 564.859 50.6591C570.399 51.1091 576.129 52.4191 580.789 55.0691C583.119 56.3791 585.139 58.0291 586.759 59.8191C588.379 61.6091 589.619 63.5391 590.539 65.3791C591.469 67.2091 592.089 68.9591 592.499 70.4491C592.929 71.9391 593.159 73.1891 593.299 74.0891C593.469 75.1491 593.599 76.2191 593.679 77.2991C593.769 78.2591 593.809 79.6291 593.769 81.3491C593.689 83.0591 593.479 85.1391 593.019 87.4691C592.119 92.1291 590.099 97.7791 586.909 103.629C580.579 115.399 570.189 128.069 558.729 137.649C550.689 144.489 543.459 149.119 537.639 152.519C531.779 155.889 527.289 158.029 524.179 159.449C516.839 162.779 510.199 165.189 503.999 167.159C497.789 169.129 491.999 170.629 486.199 171.909C479.829 173.249 479.969 174.209 486.439 173.089C492.309 172.009 498.189 170.649 504.489 168.769C510.789 166.899 517.519 164.509 524.949 161.149C527.829 159.829 532.279 157.799 537.909 154.689C543.519 151.559 550.299 147.289 557.599 141.439L561.099 138.499C562.219 137.469 563.339 136.449 564.459 135.429C569.189 130.939 573.929 125.759 578.109 120.359C580.199 117.659 582.179 114.919 583.949 112.189C585.739 109.479 587.369 106.799 588.749 104.199C591.539 99.0291 593.339 94.2491 594.249 90.7491C594.729 89.0091 594.999 87.5891 595.179 86.6191C595.329 85.6391 595.419 85.1191 595.419 85.1191C595.419 85.1191 595.529 84.3291 595.659 82.8891C595.779 81.4491 595.859 79.3591 595.659 76.7891C595.449 74.2291 594.929 71.1791 593.759 67.9891C593.179 66.3891 592.449 64.7591 591.509 63.1591C590.569 61.5691 589.469 59.9791 588.119 58.5591C586.779 57.1291 585.259 55.8091 583.579 54.6791C581.889 53.5691 580.069 52.6191 578.189 51.8391C574.399 50.3291 570.389 49.5091 566.519 49.1091C562.649 48.7291 558.899 48.6891 555.489 48.8591C552.069 48.9791 548.969 49.2691 546.319 49.5291C538.359 50.4491 532.539 51.6791 528.159 52.7791C525.959 53.2991 524.129 53.8491 522.549 54.2691C520.979 54.7491 519.669 55.1391 518.539 55.4891C511.709 57.6491 505.789 60.0291 500.409 62.4591C495.039 64.8991 490.199 67.3791 485.589 69.9791L485.609 69.9891Z" fill="#292A2E"/>
<path d="M622.729 130.819C625.969 126.689 625.089 126.009 621.699 129.949C616.819 135.489 611.519 141.149 604.319 148.049C600.259 151.979 597.669 154.379 595.409 156.469C593.139 158.549 591.189 160.299 588.249 162.759C583.289 166.919 576.429 172.299 570.199 176.909C563.989 181.549 558.429 185.429 556.259 186.909L554.349 188.249C552.069 189.849 545.949 194.209 537.899 199.129C529.859 204.059 519.809 209.429 510.069 213.339C503.209 216.139 497.489 217.979 492.919 219.239C488.349 220.489 484.939 221.249 482.589 221.689C471.489 223.839 463.019 224.329 454.719 224.199C450.169 224.039 450.059 225.009 454.659 225.399C463.029 225.959 471.689 225.699 482.939 223.529C487.289 222.669 496.499 220.999 508.739 216.239C510.719 215.439 512.699 214.639 514.609 213.729C518.759 211.819 523.149 209.629 527.359 207.369C531.569 205.089 535.589 202.739 539.089 200.619C542.589 198.499 545.549 196.579 547.639 195.209C549.719 193.829 550.949 193.009 550.949 193.009C550.949 193.009 551.409 192.699 552.229 192.149C553.049 191.589 554.229 190.769 555.679 189.769C558.569 187.739 562.529 184.899 566.799 181.709C575.349 175.339 585.149 167.549 590.809 162.719C599.339 155.459 603.219 151.699 605.609 149.409C612.839 142.449 618.069 136.609 622.719 130.819H622.729Z" fill="#292A2E"/>
<path d="M513.849 26.9789C511.949 25.5389 510.789 25.1289 510.629 25.3689C510.439 25.6389 511.229 26.5389 513.009 28.0289C515.509 30.1589 517.899 32.5389 520.219 35.3589C522.539 38.1789 524.809 41.4089 526.909 45.3089C529.299 49.7189 530.449 52.6589 531.409 55.2189C532.329 57.7989 532.999 60.0389 533.669 63.3889C534.239 66.2189 534.629 69.5889 534.769 73.1089C534.909 76.6289 534.759 80.2989 534.379 83.7289C533.639 90.5989 531.939 96.4289 531.239 98.6589L530.609 100.639C530.259 101.829 529.519 103.999 528.409 106.829C527.799 108.219 527.109 109.779 526.359 111.469C525.589 113.149 524.599 114.889 523.639 116.769C519.609 124.179 513.309 132.279 506.509 138.779C505.359 139.979 504.129 140.979 503.019 141.999C501.899 143.009 500.829 143.959 499.749 144.779C498.689 145.619 497.689 146.419 496.739 147.169C495.769 147.889 494.839 148.529 493.969 149.159C493.099 149.769 492.299 150.369 491.529 150.879C490.749 151.379 490.019 151.839 489.359 152.259C488.019 153.099 486.929 153.849 485.969 154.349C477.179 159.429 470.139 162.399 463.109 164.909C459.239 166.259 459.479 167.199 463.479 166.059C470.719 163.929 477.969 161.129 486.919 155.969C490.329 153.899 497.729 149.809 506.509 141.829C507.929 140.519 509.249 139.119 510.589 137.749C511.999 136.239 513.349 134.579 514.789 132.959C516.129 131.259 517.479 129.539 518.789 127.819C519.999 126.029 521.279 124.309 522.369 122.569C523.419 120.799 524.509 119.139 525.389 117.509C526.249 115.869 527.059 114.349 527.779 112.979C528.409 111.569 528.969 110.329 529.439 109.299C529.909 108.269 530.279 107.449 530.489 106.869C530.719 106.299 530.839 105.979 530.839 105.979C530.839 105.979 531.589 104.129 532.569 101.069C533.549 98.0189 534.699 93.7389 535.479 88.9689C536.289 84.1989 536.609 78.9189 536.469 74.0189C536.299 69.1189 535.609 64.6189 534.869 61.3189C533.759 56.3489 532.419 52.7989 531.299 50.1489C530.189 47.4989 529.249 45.7489 528.539 44.4189C526.359 40.4089 523.979 37.0889 521.519 34.2489C519.059 31.3989 516.509 29.0389 513.829 26.9789H513.849Z" fill="#292A2E"/>
<path d="M583.558 408.349C586.438 405.769 585.698 404.939 582.698 407.309C578.418 410.639 573.848 414.059 567.688 417.989C565.958 419.129 564.498 419.959 563.278 420.749C562.028 421.479 560.988 422.089 560.018 422.659C559.058 423.249 558.118 423.709 557.138 424.229C556.148 424.739 555.108 425.289 553.808 425.839C549.508 427.839 543.488 430.009 537.988 431.289C536.608 431.579 535.278 431.899 534.008 432.139C532.738 432.339 531.548 432.529 530.468 432.709C528.308 432.979 526.598 433.119 525.648 433.219C525.078 433.239 524.518 433.279 523.948 433.319C523.438 433.359 522.728 433.409 521.818 433.469C520.918 433.549 519.828 433.499 518.588 433.529C517.968 433.529 517.308 433.529 516.618 433.539C515.928 433.539 515.208 433.459 514.448 433.429C512.938 433.339 511.308 433.269 509.608 433.009C502.778 432.229 494.658 430.159 487.568 427.169C477.548 422.939 471.918 419.129 468.978 417.229C462.068 412.609 457.228 408.679 452.598 404.689C450.068 402.489 449.378 403.169 451.778 405.569C456.158 409.909 460.928 414.089 467.938 418.789C470.668 420.579 476.258 424.629 485.158 428.519C485.878 428.829 486.598 429.159 487.338 429.439C488.078 429.699 488.818 429.959 489.558 430.229C495.938 432.469 503.518 434.259 509.558 434.919C511.058 435.149 512.468 435.229 513.728 435.299C514.988 435.359 516.098 435.509 517.028 435.479C518.888 435.479 519.978 435.489 519.978 435.489C519.978 435.489 520.388 435.489 521.128 435.489C521.868 435.469 522.928 435.389 524.238 435.309C526.858 435.169 530.448 434.689 534.338 433.949C538.198 433.109 542.388 432.059 546.138 430.669C546.608 430.509 547.078 430.349 547.538 430.189C547.998 430.009 548.438 429.829 548.888 429.659C549.778 429.309 550.628 428.969 551.458 428.649C553.078 427.959 554.548 427.279 555.808 426.719C563.268 423.099 566.588 420.859 568.678 419.589C574.918 415.589 579.438 411.989 583.548 408.369L583.558 408.349Z" fill="#292A2E"/>
<path d="M550.138 527.229C551.908 527.389 553.248 527.349 554.128 527.199C555.008 527.069 555.438 526.909 555.428 526.749C555.418 526.589 554.978 526.449 554.118 526.339C553.258 526.249 551.978 526.099 550.288 525.889C545.478 525.269 540.728 523.529 536.078 520.809C531.448 518.039 526.938 514.209 522.938 509.009C518.438 503.069 516.468 498.749 514.758 495.069C513.138 491.329 511.898 488.049 510.538 483.129C508.228 474.809 506.258 463.319 505.618 453.019C504.998 442.709 505.468 433.669 505.758 430.179C505.828 429.149 505.878 428.109 505.978 427.069C506.138 425.219 506.378 421.789 506.968 417.289C507.208 415.029 507.668 412.519 508.068 409.779C508.318 408.419 508.588 406.999 508.858 405.539C508.998 404.809 509.138 404.069 509.278 403.309C509.448 402.559 509.618 401.799 509.788 401.029C512.368 388.689 517.198 374.209 523.008 361.409C531.268 343.329 538.198 333.069 541.658 327.679C545.818 321.339 549.718 315.969 553.428 311.089C557.118 306.199 560.658 301.829 564.238 297.549C568.198 292.879 567.488 292.219 563.328 296.759C559.578 300.909 555.888 305.199 552.088 310.059C548.268 314.899 544.298 320.269 540.098 326.649C536.868 331.609 529.798 341.849 522.318 357.689C521.718 358.979 521.098 360.269 520.548 361.579C519.998 362.889 519.458 364.199 518.908 365.509C516.658 371.179 514.358 377.319 512.498 383.439C510.638 389.559 508.988 395.589 507.878 400.949C507.238 403.619 506.848 406.139 506.388 408.379C505.978 410.629 505.698 412.619 505.428 414.279C505.138 415.929 505.028 417.259 504.898 418.159C504.788 419.069 504.718 419.559 504.718 419.559C504.718 419.559 504.628 420.289 504.468 421.609C504.348 422.939 504.178 424.849 503.958 427.209C503.638 431.939 503.248 438.469 503.498 445.619C503.688 452.769 504.398 460.529 505.568 467.679C506.708 474.829 508.268 481.359 509.728 486.139C511.898 493.359 514.278 498.459 516.308 502.219C518.378 505.959 520.098 508.359 521.458 510.149C525.608 515.539 530.358 519.499 535.218 522.299C540.098 525.059 545.118 526.749 550.148 527.219L550.138 527.229Z" fill="#292A2E"/>
<path d="M477.588 313.899C476.058 318.109 477.108 318.489 478.838 314.399C481.338 308.599 484.048 302.559 487.958 295.009C489.038 292.849 489.978 291.139 490.768 289.649C491.548 288.159 492.238 286.929 492.888 285.789C494.148 283.489 495.308 281.579 497.078 278.829C500.098 274.199 504.508 268.219 508.818 263.239C513.098 258.229 517.228 254.199 518.868 252.669L520.308 251.299C520.738 250.889 521.338 250.299 522.098 249.559C522.888 248.849 523.828 247.999 524.908 247.039C527.058 245.099 529.848 242.829 533.068 240.439C536.298 238.069 540.018 235.669 543.968 233.459C547.918 231.239 552.178 229.349 556.358 227.829C562.268 225.669 567.278 224.639 571.248 224.059C573.248 223.849 574.968 223.599 576.468 223.579C577.958 223.519 579.198 223.429 580.218 223.499C584.998 223.529 589.158 224.099 592.928 224.949C596.698 225.799 600.078 226.939 603.338 228.289C605.128 229.039 606.108 229.259 606.238 229.009C606.358 228.779 605.618 228.069 603.838 227.189C600.598 225.619 597.188 224.289 593.328 223.299C589.478 222.309 585.178 221.659 580.238 221.619C579.278 221.559 578.058 221.609 576.598 221.649C575.128 221.649 573.428 221.809 571.488 221.999C567.628 222.449 562.848 223.299 557.498 225.089C555.768 225.709 554.028 226.299 552.378 227.079C548.758 228.619 545.038 230.589 541.488 232.649C537.928 234.699 534.638 236.989 531.788 239.029C530.378 240.079 529.088 241.079 527.928 241.969C526.798 242.899 525.798 243.719 524.968 244.399C523.358 245.809 522.408 246.649 522.408 246.649C522.408 246.649 522.058 246.959 521.418 247.529C520.768 248.079 519.888 248.939 518.798 249.989C517.698 251.029 516.398 252.279 515.028 253.729C514.338 254.449 513.608 255.199 512.858 255.979C512.138 256.779 511.388 257.619 510.628 258.469C509.068 260.149 507.588 262.009 506.038 263.839C504.548 265.709 503.058 267.589 501.688 269.449C500.338 271.319 498.998 273.099 497.878 274.809C496.728 276.499 495.678 278.039 494.838 279.399C494.198 280.409 493.598 281.359 493.038 282.249C492.498 283.149 492.008 283.989 491.538 284.779C491.068 285.569 490.638 286.289 490.238 286.969C489.858 287.659 489.498 288.299 489.168 288.889C488.508 290.069 487.958 291.069 487.488 291.929C487.038 292.799 486.658 293.529 486.338 294.159C482.398 301.789 479.828 307.969 477.618 313.919L477.588 313.899Z" fill="#292A2E"/>
<path d="M583.359 348.229C584.159 346.369 585.009 344.529 585.869 342.699C585.869 342.699 587.189 340.419 588.779 337.689C590.359 334.959 592.249 331.799 593.139 329.869C596.069 325.469 599.159 321.179 602.499 317.099C602.499 317.099 603.489 315.779 604.659 314.279C605.819 312.779 607.189 311.129 607.789 310.319C608.509 309.289 608.999 308.589 608.999 308.279C609.019 307.969 608.419 308.069 607.289 308.899C606.179 309.729 604.579 311.289 602.569 313.829C602.499 313.869 602.309 314.049 602.249 314.049C598.179 319.559 593.919 324.579 590.269 330.509C590.439 330.509 590.419 330.769 590.239 330.909L590.119 330.749C587.989 334.869 586.019 337.069 584.529 341.089C584.529 341.089 584.549 340.559 584.549 340.539C581.109 346.909 577.349 354.579 574.189 362.679C571.019 370.769 568.509 379.299 567.139 387.049L567.179 386.979L567.199 387.019C567.419 386.319 567.969 384.279 568.499 382.439C569.049 380.599 569.539 378.929 569.539 378.929C569.069 384.169 566.969 389.749 566.289 395.289L566.059 395.219C566.229 394.029 566.369 392.899 566.469 391.959C566.589 391.019 566.669 390.279 566.689 389.849C565.779 394.069 564.809 400.549 564.749 407.039C564.579 413.529 565.409 419.969 566.329 424.019C566.469 423.779 565.639 421.299 566.159 420.569C566.279 421.619 566.489 422.659 566.689 423.689C566.869 424.719 567.099 425.719 567.309 426.699C566.939 426.779 566.819 425.619 566.699 425.409C566.799 426.259 567.569 431.309 569.899 437.789C571.079 441.019 572.619 444.589 574.549 448.139C576.499 451.669 578.809 455.159 581.269 458.329C583.699 461.529 586.369 464.309 588.759 466.689C591.199 469.029 593.439 470.899 595.129 472.219C598.589 474.779 599.699 475.319 596.709 472.389L597.159 472.499C593.869 469.739 591.269 467.269 588.459 463.799C587.999 463.369 587.979 463.289 587.839 463.419C587.699 463.319 587.469 463.159 587.459 463.269C587.159 463.649 586.319 462.509 585.919 462.029C586.719 461.799 584.439 459.229 582.029 456.299C579.649 453.359 577.179 449.999 576.749 449.119C576.969 448.769 576.469 447.959 575.929 447.059C575.399 446.149 574.779 445.169 574.649 444.589C574.709 444.649 575.099 445.039 575.149 445.089C575.059 444.549 572.919 440.539 571.469 436.999C571.119 436.109 570.769 435.269 570.499 434.529C570.249 433.779 570.039 433.149 569.909 432.699C569.649 431.799 569.679 431.629 570.249 432.739C569.659 430.269 569.159 427.519 568.659 424.589C568.219 421.649 567.839 418.499 567.619 415.209C567.419 411.909 567.359 408.479 567.469 404.959C567.589 401.449 567.899 397.869 568.369 394.289C570.229 379.959 575.079 365.869 580.149 356.159L580.009 356.279C580.109 356.129 580.279 355.619 580.429 355.539C580.749 354.499 581.439 352.659 582.099 351.099C582.739 349.529 583.349 348.239 583.349 348.239L583.359 348.229ZM567.249 395.799C567.249 395.799 567.279 395.829 567.289 395.819C567.219 395.819 566.939 398.629 566.909 398.739L566.679 398.699C566.489 395.779 569.079 389.469 567.489 395.569C567.519 395.789 567.329 395.769 567.239 395.799H567.249ZM567.269 420.879C567.309 421.369 567.359 421.899 567.449 422.479C566.569 419.319 566.199 415.459 566.159 411.539C566.119 407.609 566.419 403.629 566.549 400.039C566.959 401.299 566.959 403.359 566.859 405.489C566.839 406.559 566.769 407.649 566.719 408.659C566.689 409.669 566.659 410.609 566.659 411.379C567.009 414.459 566.999 418.119 567.259 420.869L567.269 420.879ZM583.719 458.989L583.829 458.919L583.969 459.099C583.969 459.099 583.899 459.119 583.859 459.099C583.819 459.089 583.749 459.039 583.729 458.989H583.719ZM581.339 351.089C581.309 351.609 580.419 353.199 580.599 351.949C580.789 351.689 581.019 350.809 581.339 351.089ZM568.339 428.179C568.709 428.099 569.389 430.369 568.869 430.519C568.659 429.729 568.489 428.949 568.339 428.179ZM589.409 335.189C589.379 334.429 589.679 334.829 590.009 334.779C589.879 334.889 589.559 335.369 589.459 335.169L589.399 335.189H589.409ZM595.219 325.589C595.139 325.339 595.399 324.749 595.559 324.499C596.119 323.949 595.559 325.409 595.219 325.589ZM606.589 311.009C606.439 310.829 606.699 310.459 606.949 310.529C607.039 310.679 606.759 311.159 606.509 311.029C606.519 311.029 606.549 311.029 606.589 311.009ZM570.879 439.059C569.959 438.719 569.769 436.399 569.179 435.349C569.909 435.379 570.149 437.549 570.579 438.369C570.699 438.659 570.799 438.889 570.879 439.069V439.059ZM573.179 367.369C572.589 367.189 573.899 365.029 574.059 364.219L574.279 364.319C573.919 365.489 573.779 366.219 573.199 367.329L573.179 367.379V367.369ZM565.499 417.139C565.219 416.699 565.369 415.889 565.329 415.419C565.669 415.399 565.909 417.409 565.499 417.149V417.139ZM565.909 396.539C566.289 396.479 565.989 397.469 565.999 397.759C565.949 397.549 565.759 397.149 565.789 396.919C565.809 396.749 565.859 396.719 565.909 396.549V396.539ZM573.099 368.289C572.799 369.179 572.459 370.149 572.139 371.079L571.919 370.979C572.229 370.029 572.539 369.099 572.879 368.189L573.099 368.289ZM569.869 377.349L569.639 377.279C569.799 375.869 570.429 375.889 569.879 377.309V377.339L569.869 377.349ZM577.369 356.639C577.299 356.769 577.189 356.969 577.139 357.099C576.379 358.929 576.689 356.029 577.369 356.639ZM581.559 347.129C581.619 346.939 581.669 346.669 581.769 346.479C582.429 345.239 582.239 346.879 581.559 347.129Z" fill="#292A2E"/>
</g>
<mask id="mask3_287_72898" style="mask-type:luminance" maskUnits="userSpaceOnUse" x="738" y="-52" width="253" height="294">
<path d="M856.168 241.189H856.288L990.858 240.529L860.728 -51.0712L738.578 -51.4312L856.168 241.189Z" fill="white"/>
</mask>
<g mask="url(#mask3_287_72898)">
<path d="M777.849 49.0486C772.429 50.5186 769.879 51.7486 769.969 52.0086C770.069 52.3286 772.799 51.6886 778.189 50.3486C785.849 48.4686 793.829 47.0886 802.569 46.3386C811.299 45.5886 820.789 45.4686 831.279 47.0786C843.159 48.9486 850.289 51.5586 856.359 53.9486C857.879 54.5586 859.309 55.2186 860.739 55.8586C862.139 56.5586 863.569 57.1986 864.989 57.9786C866.409 58.7486 867.879 59.5286 869.389 60.4586C870.939 61.3286 872.449 62.4186 874.109 63.5786C879.709 67.5086 885.099 73.7086 888.849 81.1786C890.649 84.9486 892.109 88.9686 893.169 93.0786C894.159 97.2086 894.919 101.379 895.259 105.479C896.049 113.669 895.819 121.429 895.339 127.779C894.839 134.139 894.199 139.119 893.799 141.899C893.549 143.539 893.349 145.189 893.089 146.839C892.629 149.779 891.809 155.229 890.399 162.379C889.009 169.529 887.069 178.399 884.719 188.249C882.369 198.089 879.629 208.919 876.869 220.039C874.119 231.169 871.369 242.609 869.129 253.709C865.979 269.389 864.459 282.329 864.279 292.629C864.169 302.939 865.339 310.549 866.779 315.599C868.429 321.569 871.039 326.939 874.509 331.279C877.959 335.639 882.219 338.919 886.649 341.259C887.779 341.799 888.859 342.429 890.009 342.869C891.159 343.309 892.289 343.749 893.409 344.179C894.549 344.569 895.709 344.849 896.839 345.189C897.409 345.349 897.969 345.519 898.539 345.659C899.109 345.769 899.689 345.889 900.259 345.999C901.399 346.219 902.529 346.469 903.669 346.659C904.809 346.799 905.939 346.939 907.079 347.079L908.769 347.289C909.329 347.349 909.899 347.359 910.459 347.399C911.589 347.459 912.709 347.529 913.839 347.589C918.779 347.699 921.239 347.359 921.239 347.119C921.239 346.819 918.779 346.609 913.899 346.389C912.789 346.299 911.679 346.209 910.569 346.129C910.019 346.079 909.459 346.059 908.899 345.989L907.239 345.749C906.129 345.589 905.019 345.429 903.899 345.269C902.789 345.059 901.689 344.799 900.579 344.559C900.019 344.439 899.469 344.319 898.909 344.199C898.359 344.059 897.809 343.869 897.259 343.709C896.159 343.359 895.039 343.069 893.939 342.679C892.859 342.249 891.769 341.809 890.659 341.369C889.559 340.929 888.529 340.309 887.449 339.779C883.219 337.479 879.199 334.329 875.939 330.159C872.659 326.009 870.179 320.879 868.589 315.109C868.299 313.979 868.019 312.679 867.689 311.249C867.409 309.799 867.179 308.179 866.909 306.409C866.539 302.859 866.199 298.689 866.309 293.919C866.389 289.159 866.699 283.829 867.389 277.989C868.079 272.149 869.069 265.799 870.349 258.979C871.179 254.539 872.069 250.099 872.989 245.709C876.929 226.739 882.649 205.169 886.679 188.169C888.709 179.679 890.349 172.329 891.419 167.099C891.979 164.489 892.379 162.399 892.659 160.969C892.939 159.539 893.089 158.769 893.089 158.769C893.089 158.769 893.309 157.609 893.679 155.519C893.859 154.469 894.089 153.199 894.349 151.709C894.589 150.219 894.859 148.529 895.149 146.659C896.279 139.179 897.569 128.799 897.619 117.339C897.649 111.609 897.249 105.619 896.289 99.6786C895.319 93.7486 893.699 87.8686 891.309 82.5386C888.939 77.1986 885.759 72.4586 882.249 68.6386C878.779 64.7586 874.849 62.0386 871.499 59.8286C861.219 53.4886 852.709 50.4886 846.229 48.4886C839.699 46.5986 835.079 45.7486 831.559 45.2186C820.889 43.5786 811.209 43.7586 802.409 44.5986C793.589 45.4486 785.529 46.9686 777.849 49.0286V49.0486Z" fill="#1E1F21"/>
<path d="M764.699 18.4089C757.739 24.3589 758.479 25.1989 765.549 19.4489C770.639 15.4689 775.879 11.3989 781.789 7.31887C787.699 3.22887 794.149 -1.07113 801.729 -5.36113C806.029 -7.79113 809.549 -9.71113 812.639 -11.2311C815.689 -12.8411 818.329 -13.9911 820.759 -15.1411C821.969 -15.7311 823.159 -16.2211 824.349 -16.7111C825.539 -17.2011 826.729 -17.7011 827.949 -18.2111C829.169 -18.7411 830.469 -19.1611 831.829 -19.6711C833.199 -20.1511 834.639 -20.7111 836.229 -21.2311C837.579 -21.6511 838.989 -22.0811 840.439 -22.5411C841.169 -22.7611 841.909 -22.9911 842.659 -23.2311C843.419 -23.4311 844.189 -23.6311 844.969 -23.8311C846.529 -24.2311 848.129 -24.6511 849.749 -25.0711C851.389 -25.4111 853.059 -25.7611 854.749 -26.1211C855.599 -26.2911 856.439 -26.4911 857.299 -26.6311C858.159 -26.7711 859.019 -26.9011 859.879 -27.0411C861.609 -27.3011 863.329 -27.6211 865.059 -27.8311C868.519 -28.2611 871.979 -28.5111 875.329 -28.5211C882.019 -28.5611 888.259 -27.3911 892.909 -25.3511C895.239 -24.3311 897.159 -23.1311 898.709 -22.0411C900.209 -20.8811 901.359 -19.8411 902.119 -19.0311C903.039 -18.0911 903.889 -17.0911 904.689 -16.0411C906.109 -14.1811 908.579 -10.4811 910.249 -4.89113C911.079 -2.11113 911.729 1.11887 911.889 4.65887C912.089 8.20887 911.819 12.0689 911.119 16.0789C909.699 24.1089 906.379 32.6089 902.089 40.8589C897.879 49.1589 892.569 57.1389 886.899 64.3389C878.849 74.4989 871.209 81.7789 864.909 87.1689C858.589 92.5489 853.629 96.1389 850.169 98.5089C842.029 104.149 834.459 108.399 827.339 112.029C820.199 115.639 813.459 118.589 806.679 121.229C802.949 122.669 801.129 123.549 801.219 123.809C801.299 124.059 803.299 123.689 807.099 122.359C813.999 119.899 820.849 117.089 828.099 113.549C835.329 109.989 842.999 105.749 851.239 100.059C854.449 97.8689 859.359 94.4089 865.439 89.3789C871.479 84.3189 878.739 77.6889 886.069 68.8589L887.859 66.6989L889.569 64.4789L891.259 62.2589L892.859 59.9789C897.449 53.4389 901.849 46.0389 905.469 38.4689C909.109 30.9289 911.879 23.1089 913.079 15.9689C913.679 12.3989 913.929 9.01887 913.879 5.99887C913.839 2.96887 913.469 0.298866 913.019 -1.87113C912.589 -4.05113 912.069 -5.75113 911.689 -6.90113C911.279 -8.04113 911.059 -8.66113 911.059 -8.66113C911.059 -8.66113 910.969 -8.89113 910.779 -9.32113C910.589 -9.75113 910.359 -10.4011 909.959 -11.1911C909.219 -12.8011 907.989 -15.0611 906.069 -17.5911C904.159 -20.1011 901.409 -22.7911 897.849 -24.9911C896.049 -26.0411 894.089 -27.0311 891.959 -27.7911C889.829 -28.5311 887.579 -29.1611 885.239 -29.5511C882.899 -29.9411 880.489 -30.1911 878.059 -30.2811C875.619 -30.3511 873.159 -30.3011 870.709 -30.1411C868.259 -29.9711 865.809 -29.7011 863.399 -29.3511C860.999 -28.9511 858.619 -28.5611 856.289 -28.1711C846.979 -26.4311 838.589 -23.8211 832.449 -21.6511C823.199 -18.3411 816.589 -15.2911 811.639 -12.7911C810.399 -12.1711 809.259 -11.6011 808.199 -11.0811C807.159 -10.5211 806.209 -10.0011 805.319 -9.52114C803.559 -8.55114 802.059 -7.79113 800.819 -7.04113C793.169 -2.71113 786.699 1.66887 780.809 5.84887C774.909 10.0289 769.719 14.2089 764.709 18.3389L764.699 18.4089Z" fill="#1E1F21"/>
<path d="M830.298 172.529C828.248 174.009 826.668 175.029 825.668 175.819C824.668 176.599 824.208 177.069 824.288 177.199C824.368 177.329 824.978 177.129 826.118 176.559C827.248 175.969 828.958 175.089 831.048 173.649C843.038 165.659 854.968 156.389 870.068 144.219C878.578 137.259 883.808 132.809 888.348 128.929C892.888 125.039 896.748 121.729 902.398 116.879C907.158 112.769 912.758 107.969 918.508 102.879C921.398 100.349 924.308 97.7188 927.188 95.0888L929.328 93.0988L930.258 92.2388C930.318 92.1888 930.298 92.2288 930.548 92.1988L931.248 92.1588L932.638 92.0688L934.028 92.1188L935.408 92.1688C935.868 92.2288 936.318 92.2888 936.768 92.3488C940.388 92.8288 943.798 93.9188 946.828 95.3088C949.878 96.6888 952.518 98.4088 954.718 100.179C959.198 103.679 961.648 107.459 962.848 109.569L963.808 111.509C964.138 112.159 964.328 112.849 964.598 113.519C964.858 114.109 965.038 114.879 965.268 115.759C965.538 116.639 965.678 117.669 965.858 118.819C966.128 121.119 966.248 123.939 965.768 127.099C965.268 130.249 964.258 133.749 962.428 137.199C960.608 140.639 957.998 144.049 954.568 146.849C954.158 147.219 953.678 147.509 953.228 147.839C952.758 148.149 952.338 148.529 951.828 148.789C950.848 149.349 949.878 149.949 948.808 150.429C946.698 151.419 944.418 152.239 942.078 153.019C937.418 154.609 932.328 155.979 927.768 158.959C925.498 160.439 923.478 162.419 921.988 164.749C920.498 167.079 919.598 169.809 919.298 172.529C918.978 175.259 919.198 177.989 919.618 180.609C920.038 183.239 920.698 185.769 921.378 188.249C923.358 195.229 925.358 201.429 925.728 207.149C925.838 208.569 925.808 209.959 925.728 211.289C925.508 212.609 925.458 213.909 925.078 215.119C924.548 217.589 923.498 219.739 922.478 221.719C920.238 225.589 917.498 228.459 914.988 230.679C912.478 232.919 910.098 234.459 908.178 235.699C898.928 241.459 889.508 243.799 881.058 246.559C872.578 249.249 864.718 252.029 857.818 256.519C855.938 257.759 854.618 258.819 853.818 259.629C853.008 260.419 852.658 260.869 852.748 260.969C852.838 261.069 853.358 260.829 854.288 260.229C855.208 259.609 856.588 258.709 858.458 257.539C865.308 253.339 873.068 250.749 881.558 248.179C885.808 246.889 890.268 245.589 894.928 243.969C899.608 242.369 904.398 240.209 909.168 237.289C910.098 236.719 911.118 236.019 912.258 235.259C913.358 234.429 914.618 233.559 915.868 232.459C918.398 230.299 921.218 227.519 923.618 223.719C924.858 221.849 925.828 219.649 926.678 217.269C926.838 216.659 926.998 216.039 927.168 215.409C927.248 215.099 927.328 214.779 927.418 214.459C927.468 214.139 927.518 213.809 927.568 213.479C927.658 212.819 927.758 212.149 927.848 211.479C927.878 210.799 927.948 210.109 927.938 209.419C928.028 203.829 926.478 197.999 924.738 191.949C923.608 187.999 922.408 184.099 921.728 180.189C921.368 178.079 921.158 175.919 921.268 173.759C921.388 171.609 921.878 169.469 922.778 167.499C923.688 165.529 925.028 163.749 926.648 162.269C928.278 160.789 930.218 159.639 932.248 158.679C936.318 156.759 940.728 155.569 944.898 154.069C946.988 153.319 949.018 152.499 950.938 151.509C951.868 150.949 952.828 150.479 953.678 149.869C954.518 149.239 955.408 148.709 956.158 148.009C959.278 145.409 961.638 142.399 963.358 139.499C965.078 136.599 966.178 133.799 966.818 131.409C967.508 129.029 967.778 127.069 967.918 125.729C967.998 125.059 968.058 124.539 968.048 124.189C968.058 123.839 968.068 123.649 968.068 123.649C968.068 123.649 968.068 123.379 968.088 122.859C968.088 122.599 968.098 122.279 968.108 121.899C968.088 121.519 968.058 121.079 968.028 120.589C967.958 118.619 967.548 115.759 966.358 112.439C965.158 109.119 962.938 105.469 959.748 102.149C956.588 98.7988 952.408 95.8488 947.628 93.6388C947.038 93.3388 946.418 93.0988 945.798 92.8688C945.178 92.6388 944.558 92.3788 943.918 92.1588C942.628 91.7888 941.348 91.3288 939.998 91.0988C937.338 90.4688 934.558 90.2488 931.778 90.3688L930.738 90.4388L930.198 90.4788L929.788 90.5088L929.568 90.5288C929.508 90.5588 929.458 90.6188 929.408 90.6688L927.778 92.1988C926.798 93.1188 925.818 94.0288 924.838 94.9388C922.858 96.7288 920.908 98.5388 918.958 100.259C911.198 107.209 903.888 113.499 898.428 118.159C881.968 132.199 873.848 138.719 868.898 142.769C853.828 154.929 842.028 164.319 830.298 172.529Z" fill="#1E1F21"/>
<path d="M750.238 -22.7715C746.668 -20.3115 745.088 -18.7915 745.258 -18.5515C745.448 -18.2915 747.378 -19.3015 750.978 -21.6415C756.108 -24.9415 761.568 -28.0115 767.638 -31.0215C773.718 -34.0115 780.448 -36.9115 788.238 -39.5415C797.068 -42.5315 802.768 -43.8015 807.718 -44.8815C808.958 -45.1315 810.158 -45.3715 811.348 -45.6115C812.548 -45.8015 813.748 -46.0015 814.988 -46.2015C815.608 -46.3015 816.238 -46.3915 816.878 -46.5015C817.528 -46.5815 818.188 -46.6515 818.868 -46.7315C820.238 -46.8715 821.679 -47.0915 823.249 -47.1915C828.559 -47.6215 834.868 -48.1015 841.208 -47.0215C844.358 -46.4715 847.518 -45.5115 850.298 -43.9015C853.098 -42.3315 855.568 -40.2315 857.568 -37.8415C861.608 -33.0615 863.938 -27.5015 865.318 -22.8615C865.998 -20.5315 866.518 -18.4115 866.778 -16.5915C866.928 -15.6915 867.058 -14.8715 867.178 -14.1415C867.288 -13.4115 867.318 -12.7715 867.378 -12.2415C867.488 -10.9815 867.658 -9.72151 867.668 -8.45151C867.698 -7.32151 867.828 -5.70151 867.708 -3.68151C867.668 -2.67151 867.678 -1.55151 867.528 -0.351513C867.468 0.248487 867.408 0.87849 867.348 1.51849C867.318 1.83849 867.289 2.16849 867.249 2.50849C867.189 2.83849 867.138 3.17849 867.078 3.51849C866.818 4.87849 866.668 6.34849 866.258 7.83849C866.078 8.58849 865.888 9.35849 865.698 10.1485C865.508 10.9385 865.218 11.7085 864.968 12.5185C863.998 15.7485 862.488 19.0885 860.618 22.4285C860.118 23.2485 859.608 24.0685 859.098 24.9085C858.548 25.7185 857.928 26.4985 857.348 27.3085C857.038 27.6985 856.768 28.1285 856.428 28.4985C856.088 28.8685 855.748 29.2485 855.408 29.6285C854.718 30.3685 854.078 31.1885 853.278 31.8485C850.358 34.7885 846.698 37.0985 842.838 38.9585C838.908 40.6585 834.558 41.5985 830.258 41.4885C825.968 41.3585 821.728 40.0685 818.478 37.5285C817.328 36.6485 816.328 35.6085 815.458 34.5385C814.608 33.4385 813.888 32.2685 813.278 31.0885C812.108 28.6885 811.338 26.2185 810.888 23.8185C810.418 21.4185 810.208 19.0985 810.118 16.9085C810.108 16.3585 810.088 15.8185 810.078 15.2885C810.088 14.7485 810.098 14.2285 810.108 13.7085C810.128 12.6685 810.148 11.6685 810.178 10.6885C810.668 2.90849 811.989 -2.72151 813.059 -6.50151C813.319 -7.63151 813.739 -8.71151 814.059 -9.78151C814.399 -10.8515 814.728 -11.9215 815.138 -12.9315C815.528 -13.9515 815.908 -14.9615 816.278 -15.9615C816.698 -16.9415 817.118 -17.9015 817.538 -18.8515C817.748 -19.3215 817.948 -19.8015 818.158 -20.2615C818.388 -20.7215 818.608 -21.1715 818.838 -21.6215C819.288 -22.5215 819.728 -23.4215 820.168 -24.3015C821.128 -26.0115 822.018 -27.7215 823.008 -29.3215C826.908 -35.7615 831.138 -41.2815 835.778 -46.3315C838.358 -49.0815 839.558 -50.5515 839.358 -50.7715C839.188 -50.9515 837.598 -49.8615 834.898 -47.1615C830.048 -42.1915 825.629 -36.7015 821.559 -30.2015C820.529 -28.5915 819.598 -26.8615 818.598 -25.1315C818.148 -24.2415 817.688 -23.3315 817.218 -22.4215C816.988 -21.9615 816.748 -21.5015 816.518 -21.0415C816.308 -20.5615 816.098 -20.0915 815.878 -19.6015C815.448 -18.6415 815.018 -17.6615 814.578 -16.6615C814.188 -15.6515 813.798 -14.6215 813.398 -13.5815C812.978 -12.5415 812.638 -11.4615 812.288 -10.3615C811.958 -9.26151 811.528 -8.16151 811.258 -7.00151C810.258 -3.45151 808.859 2.10849 808.249 9.60849C808.139 10.5385 808.128 11.5085 808.098 12.5085C808.068 13.5085 808.028 14.5285 808.018 15.5785C808.028 17.6885 808.148 19.9185 808.468 22.2385C808.798 24.5585 809.298 26.9885 810.198 29.4185C811.108 31.8385 812.348 34.3185 814.218 36.4885C815.418 37.9085 816.818 39.1785 818.388 40.1685C819.148 40.7185 819.999 41.0885 820.809 41.5285C821.669 41.8685 822.498 42.2685 823.388 42.4985C825.268 43.0985 827.258 43.4285 829.268 43.5285C831.278 43.6485 833.318 43.5385 835.318 43.2185C837.328 42.8985 839.318 42.4285 841.238 41.7285C843.148 41.0285 845.049 40.2285 846.749 39.1385C850.309 37.2185 853.348 34.5785 856.008 31.8385C856.648 31.1285 857.278 30.4185 857.908 29.7285C858.508 29.0085 859.028 28.2385 859.578 27.5185C860.728 26.0885 861.548 24.5085 862.478 23.0685C865.878 17.0885 867.498 11.3385 868.398 7.26849C868.778 5.21849 869.078 3.57849 869.228 2.44849C869.348 1.31849 869.408 0.69849 869.408 0.69849C869.408 0.69849 869.428 0.46849 869.478 0.0384903C869.508 -0.40151 869.618 -1.04151 869.638 -1.87151C869.668 -2.70151 869.698 -3.71151 869.738 -4.89151C869.798 -6.07151 869.688 -7.41151 869.658 -8.88151C869.378 -14.7615 868.088 -22.9815 864.098 -31.0515C862.108 -35.0615 859.368 -38.9915 855.778 -42.1115C853.978 -43.6615 851.978 -44.9815 849.858 -46.0315C847.728 -47.0515 845.498 -47.7915 843.268 -48.2815C838.798 -49.2415 834.418 -49.3415 830.448 -49.2215C828.458 -49.1715 826.578 -49.0215 824.798 -48.8815C823.908 -48.8115 823.048 -48.7515 822.218 -48.6915C821.388 -48.6015 820.588 -48.5115 819.818 -48.4215C810.578 -47.3815 803.848 -45.8515 798.768 -44.5715C797.498 -44.2315 796.329 -43.9215 795.249 -43.6315C794.169 -43.3415 793.188 -43.0115 792.278 -42.7415C790.458 -42.1915 788.938 -41.7315 787.648 -41.2615C779.768 -38.5915 772.978 -35.6215 766.868 -32.5115C760.768 -29.3915 755.319 -26.1815 750.249 -22.7115L750.238 -22.7715Z" fill="#1E1F21"/>
<path d="M744.559 -55.4413C741.089 -54.1913 739.509 -53.1813 739.619 -52.9213C739.749 -52.6113 741.539 -53.0413 744.989 -54.1613C749.899 -55.7213 755.049 -56.9513 760.719 -57.7313C766.389 -58.4913 772.579 -58.8013 779.479 -58.1813C787.299 -57.4613 792.059 -56.1313 796.119 -54.8313C800.179 -53.5113 803.549 -52.0613 808.129 -49.3613C811.979 -47.0513 816.229 -43.8713 820.099 -39.9613C823.989 -36.0813 827.559 -31.5813 830.339 -26.9813C833.159 -22.4013 835.279 -17.8113 836.709 -13.9213C838.129 -10.0213 838.999 -6.87127 839.389 -5.09127C839.649 -4.04127 839.899 -2.99127 840.109 -1.93127C840.549 -0.0512706 841.189 3.46873 841.619 8.17873C842.049 12.8887 842.159 18.7987 841.489 25.3387C840.299 38.4387 835.399 53.8487 827.959 66.5087C822.799 75.5087 817.449 82.0587 813.019 86.9887C810.839 89.4987 808.749 91.4887 806.999 93.2287C806.559 93.6687 806.139 94.0787 805.739 94.4787C805.319 94.8587 804.909 95.2187 804.529 95.5587C803.759 96.2487 803.059 96.8687 802.429 97.4287C801.679 98.0787 800.979 98.7587 800.229 99.3587C799.479 99.9587 798.739 100.549 798.019 101.139C796.559 102.299 795.189 103.479 793.739 104.479C792.319 105.519 790.929 106.519 789.579 107.509C788.179 108.429 786.809 109.319 785.479 110.199C784.809 110.629 784.159 111.089 783.479 111.489C782.799 111.889 782.129 112.279 781.469 112.669C780.139 113.449 778.829 114.219 777.539 114.969C776.209 115.669 774.899 116.359 773.599 117.039C772.949 117.379 772.299 117.729 771.649 118.069L769.669 118.989C763.869 121.689 764.209 122.599 770.169 120.089L772.199 119.229C772.859 118.909 773.529 118.579 774.199 118.259C775.539 117.609 776.879 116.949 778.239 116.289C779.579 115.579 780.909 114.809 782.269 114.059C782.949 113.679 783.639 113.289 784.329 112.909C785.019 112.509 785.679 112.069 786.369 111.639C787.739 110.769 789.139 109.889 790.569 108.979C791.949 107.999 793.369 106.989 794.819 105.959C796.299 104.959 797.699 103.769 799.189 102.599C799.929 102.009 800.679 101.409 801.439 100.799C802.199 100.189 802.919 99.5087 803.669 98.8487C806.019 96.7987 809.639 93.6087 813.959 88.9687C818.329 84.3887 823.349 78.2687 828.189 70.4187C828.579 69.7787 829.009 69.1587 829.369 68.4987L830.449 66.5187C831.159 65.1987 831.879 63.8887 832.569 62.5687C835.329 56.7587 837.949 50.3587 839.809 43.8787C841.699 37.4087 842.879 30.9187 843.419 25.1687C843.989 19.4187 843.959 14.4387 843.769 10.9187C843.589 7.39873 843.319 5.32873 843.319 5.32873C843.319 5.32873 843.219 4.55873 843.049 3.16873C842.829 1.77873 842.549 -0.231268 842.019 -2.67127C841.009 -7.56127 839.069 -14.2313 835.729 -21.0013C832.459 -27.8113 827.689 -34.6013 822.359 -40.0813C817.049 -45.5913 811.159 -49.6713 806.529 -52.1713C799.499 -55.9013 793.779 -57.5213 789.439 -58.5313C788.349 -58.7613 787.339 -58.9813 786.399 -59.1713C785.459 -59.3113 784.589 -59.4513 783.789 -59.5713C782.189 -59.8513 780.839 -59.9313 779.669 -60.0513C772.599 -60.6813 766.259 -60.3113 760.499 -59.4513C754.729 -58.5713 749.519 -57.1913 744.589 -55.4513L744.559 -55.4413Z" fill="#1E1F21"/>
</g>
<mask id="mask4_287_72898" style="mask-type:luminance" maskUnits="userSpaceOnUse" x="-11" y="405" width="237" height="222">
<path d="M159.109 405.689H69.6387H-10.3613V626.939H211.349L225.709 405.689H212.789H159.109Z" fill="white"/>
</mask>
<g mask="url(#mask4_287_72898)">
<path d="M-27.5607 530.179C-23.8307 533.259 -20.3707 535.709 -17.3407 537.679C-14.2707 539.619 -11.6407 541.099 -9.49069 542.189C-8.41069 542.719 -7.46069 543.179 -6.64069 543.569C-5.81069 543.919 -5.11069 544.209 -4.55069 544.439C-3.43069 544.889 -2.86069 545.079 -2.82069 544.999C-2.79069 544.929 -3.30069 544.599 -4.35069 544.019C-4.88069 543.739 -5.54069 543.389 -6.33069 542.959C-7.11069 542.519 -8.02069 541.999 -9.07069 541.409C-11.1507 540.219 -13.7007 538.659 -16.6807 536.679C-19.6407 534.649 -23.0207 532.179 -26.6907 529.119C-31.8707 524.749 -36.7707 519.969 -41.2807 514.759C-45.7907 509.559 -50.0907 504.029 -53.8807 498.099C-55.7607 495.129 -57.5507 492.059 -59.0907 488.849C-60.6407 485.649 -62.0607 482.339 -63.1007 478.889C-64.1507 475.449 -65.0207 471.899 -65.3107 468.259C-65.6307 464.629 -65.5207 460.939 -64.8507 457.299C-64.6407 456.399 -64.4307 455.499 -64.2207 454.599C-63.9707 453.709 -63.6307 452.839 -63.3407 451.949C-62.7207 450.189 -61.9007 448.499 -60.9707 446.859C-59.1007 443.589 -56.6807 440.579 -53.8607 437.929C-48.2007 432.609 -41.1507 428.589 -33.5407 425.559C-18.2307 419.559 -0.820688 416.889 17.4593 417.389C27.8293 417.659 37.1893 418.899 45.6693 420.499C54.1493 422.099 61.7593 424.099 68.7193 426.149C82.6393 430.329 93.9793 434.779 104.449 439.119C114.909 443.499 124.509 447.749 134.529 452.729C144.519 457.739 154.999 463.419 166.549 471.499C176.299 478.309 186.279 486.659 195.239 496.859C199.729 501.939 203.929 507.499 207.639 513.489C211.369 519.469 214.619 525.909 217.089 532.699C219.509 539.499 221.169 546.679 221.509 553.969C221.829 561.239 220.899 568.649 218.079 575.359C217.909 575.779 217.759 576.209 217.559 576.619L216.959 577.839C216.539 578.639 216.189 579.479 215.719 580.249L214.299 582.569C213.849 583.359 213.249 584.039 212.739 584.789C211.719 586.289 210.449 587.589 209.289 588.959C207.989 590.209 206.769 591.539 205.359 592.659C199.919 597.389 193.519 600.809 186.929 603.279C173.629 608.149 159.509 608.219 146.819 606.049C140.439 605.009 134.359 603.429 128.609 601.639C122.849 599.849 117.409 597.849 112.299 595.829C102.079 591.739 93.1093 587.689 85.6793 584.019C81.9993 582.119 78.6293 580.449 75.7393 578.809C74.2793 578.009 72.9193 577.259 71.6593 576.559C70.4193 575.829 69.2793 575.149 68.2393 574.529L64.5493 572.339L60.9293 570.029C59.7293 569.249 58.4993 568.509 57.3193 567.699L53.7793 565.259C49.5493 562.379 43.6893 558.019 36.8193 552.029C29.9693 546.019 22.1693 538.219 14.7993 528.139C13.8893 526.879 12.9593 525.589 12.0193 524.289C11.1593 522.939 10.2793 521.559 9.39931 520.169C7.58931 517.399 5.88931 514.469 4.39931 511.359C2.89931 508.249 1.61931 504.949 0.76931 501.479C-0.05069 498.009 -0.430689 494.349 0.0593109 490.699C0.489311 487.049 1.87931 483.489 3.97931 480.279C6.08931 477.079 8.91931 474.269 12.1693 471.959C15.4393 469.669 19.1593 467.929 23.1293 466.729C27.0993 465.539 31.2993 464.869 35.5793 464.589C39.8693 464.319 44.2493 464.399 48.6593 464.769C50.8693 464.889 53.0793 465.209 55.2993 465.439C57.5093 465.789 59.7493 466.059 61.9593 466.519C70.8593 468.159 79.7493 470.849 88.4293 474.409C92.7693 476.189 97.0393 478.239 101.249 480.439C105.449 482.679 109.559 485.139 113.599 487.769C117.609 490.429 121.519 493.299 125.339 496.309C129.139 499.349 132.809 502.579 136.389 505.929C150.619 519.419 162.859 535.379 172.799 552.469C175.209 556.759 177.259 561.239 178.459 565.929C179.649 570.599 179.909 575.519 178.879 580.169C177.889 584.809 175.459 589.089 171.809 592.039C168.179 595.009 163.629 596.769 158.989 597.429C152.389 598.389 145.799 596.909 139.899 594.459C133.969 591.979 128.619 588.549 123.629 584.929C113.669 577.649 105.399 569.189 98.6493 560.389C91.8993 551.579 86.6393 542.399 82.6993 533.349C78.7893 524.289 76.5393 515.189 75.6093 506.549C74.6793 497.899 75.0593 489.719 76.3193 482.279C76.7293 480.459 77.0193 478.639 77.6293 476.939C77.9193 476.089 78.1093 475.209 78.4793 474.409C78.8193 473.599 79.1593 472.789 79.4893 471.989C80.9793 468.879 82.6693 465.989 84.7093 463.519C88.6693 458.489 93.3393 454.759 97.8593 451.839C102.389 448.899 106.819 446.769 110.849 445.029C120.389 440.909 130.159 438.159 139.709 435.879C149.269 433.629 158.669 431.899 167.839 430.369C186.189 427.319 203.669 424.999 220.349 421.999C228.689 420.479 236.829 418.799 244.749 416.729C248.699 415.639 252.609 414.539 256.409 413.189C258.329 412.569 260.189 411.789 262.069 411.089C263.909 410.289 265.779 409.559 267.559 408.649C269.379 407.819 271.109 406.829 272.859 405.869C274.549 404.809 276.259 403.799 277.849 402.589C281.049 400.239 284.029 397.559 286.449 394.399C291.309 388.099 293.659 380.049 293.229 372.249C293.219 371.709 293.199 371.189 293.189 370.669C293.129 370.149 293.069 369.649 293.019 369.149C292.899 368.149 292.809 367.189 292.659 366.259C292.479 365.339 292.299 364.459 292.129 363.609C291.959 362.759 291.799 361.939 291.559 361.179C291.109 359.649 290.759 358.219 290.319 356.969C289.869 355.719 289.459 354.599 289.089 353.599C288.339 351.609 287.609 350.189 287.179 349.229C286.719 348.269 286.459 347.809 286.399 347.839C286.249 347.899 286.989 349.889 288.379 353.859C288.699 354.859 289.049 355.989 289.449 357.249C289.839 358.499 290.139 359.919 290.549 361.439C290.769 362.199 290.909 362.999 291.059 363.839C291.209 364.679 291.369 365.549 291.539 366.449C291.669 367.359 291.739 368.299 291.849 369.269C291.899 369.759 291.949 370.249 292.009 370.759C292.009 371.269 292.029 371.779 292.039 372.299C292.399 379.899 290.089 387.559 285.399 393.589C283.059 396.609 280.159 399.189 277.039 401.459C275.499 402.629 273.819 403.609 272.159 404.629C270.439 405.549 268.739 406.519 266.949 407.329C265.189 408.209 263.349 408.919 261.529 409.709C259.669 410.389 257.829 411.149 255.929 411.759C252.159 413.079 248.279 414.149 244.359 415.219C236.489 417.249 228.389 418.889 220.069 420.379C203.429 423.319 185.959 425.599 167.559 428.619C158.359 430.139 148.929 431.859 139.299 434.119C129.689 436.409 119.829 439.169 110.129 443.359C106.359 444.969 102.149 447.009 97.7193 449.779C93.3093 452.549 88.6393 456.079 84.4493 460.849C82.4393 463.299 80.4193 465.939 78.8593 469.019C77.9893 470.509 77.3593 472.149 76.6593 473.799C76.2893 474.619 76.0893 475.499 75.7993 476.359C75.5393 477.229 75.2093 478.089 75.0493 479.009C74.1593 482.629 73.7093 486.379 73.3793 490.289C73.0693 494.199 73.0093 498.259 73.2693 502.419C73.7593 510.749 75.4193 519.519 78.5193 528.329C80.0593 532.739 82.0193 537.119 84.2293 541.469C86.4393 545.839 88.9693 550.169 91.7993 554.449C97.4593 562.999 104.369 571.319 112.669 578.849C116.819 582.599 121.319 586.149 126.159 589.399C130.989 592.649 136.229 595.629 142.029 597.659C145.809 598.969 149.779 599.809 153.819 599.959C157.859 600.069 161.929 599.439 165.739 598.039C169.529 596.609 173.079 594.369 175.779 591.269C178.499 588.179 180.239 584.339 181.039 580.399C181.919 576.129 181.799 571.689 180.939 567.409C180.069 563.119 178.459 559.009 176.509 555.109C174.549 551.199 172.269 547.469 169.899 543.809C167.559 540.119 165.059 536.509 162.489 532.929C152.169 518.659 139.939 505.469 126.129 494.509C112.309 483.579 96.8593 474.999 80.9393 469.609C72.9993 466.859 64.9393 464.979 56.9893 463.819C49.0393 462.689 41.1793 462.229 33.5993 462.889C26.0393 463.559 18.7293 465.569 12.6893 469.369C6.68931 473.129 1.97931 478.499 -0.350693 484.549C-1.50069 487.579 -2.04069 490.719 -2.08069 493.739C-2.11069 496.769 -1.67069 499.669 -0.990692 502.379C0.389308 507.799 2.63931 512.459 4.87931 516.509C9.56931 524.479 13.8393 530.469 17.0593 534.339C18.6593 536.279 19.8293 537.829 20.7393 538.789C21.6193 539.759 22.0793 540.269 22.0793 540.269C22.0793 540.269 22.7593 541.019 24.0593 542.449C25.3193 543.919 27.3793 545.889 29.9793 548.479C35.2593 553.549 43.2593 560.559 54.0293 567.919C64.7593 575.339 78.2993 582.979 93.8693 590.109C95.8293 590.979 97.7993 591.869 99.7993 592.759C101.819 593.609 103.859 594.469 105.919 595.339C110.049 597.069 114.309 598.729 118.679 600.329C127.419 603.489 136.689 606.279 146.439 607.899C156.159 609.489 166.409 609.919 176.519 608.019C186.569 606.119 196.419 602.029 204.629 595.589C208.719 592.379 212.379 588.569 215.299 584.239C218.229 579.919 220.379 575.079 221.639 570.059C222.919 565.039 223.389 559.859 223.219 554.759C223.029 549.659 222.209 544.629 220.969 539.779C219.719 534.929 218.039 530.249 216.039 525.779C214.019 521.329 211.729 517.069 209.229 513.019C206.749 508.969 204.039 505.129 201.189 501.529C198.339 497.929 195.389 494.509 192.329 491.339C180.099 478.579 166.809 469.279 155.109 462.179C146.259 456.859 137.689 452.409 129.549 448.509C121.409 444.609 113.719 441.229 106.499 438.159C92.0593 432.019 79.3793 427.459 68.2093 424.149C45.8393 417.539 29.6793 415.909 17.4893 415.539C-1.01069 415.039 -18.6607 417.749 -34.2407 423.879C-42.0007 426.989 -49.2407 431.109 -55.1107 436.649C-58.0307 439.419 -60.5607 442.569 -62.5207 446.009C-63.4907 447.729 -64.3507 449.519 -64.9907 451.369C-65.2907 452.299 -65.6407 453.219 -65.9107 454.149C-66.1307 455.099 -66.3507 456.049 -66.5707 456.989C-67.2707 460.809 -67.3707 464.669 -67.0207 468.439C-66.7007 472.219 -65.7907 475.869 -64.7007 479.409C-63.6107 482.949 -62.1507 486.329 -60.5607 489.589C-58.9807 492.859 -57.1407 495.959 -55.2207 498.979C-51.3407 504.989 -46.9907 510.519 -42.4007 515.759C-37.8107 520.999 -32.8307 525.799 -27.5707 530.189L-27.5607 530.179Z" fill="#1E1F21"/>
<path d="M108.399 641.519C107.959 639.289 107.119 637.499 106.309 636.049C105.489 634.599 104.659 633.499 103.969 632.639C102.569 630.939 101.719 630.239 101.609 630.329C101.479 630.439 102.099 631.339 103.269 633.139C103.839 634.049 104.559 635.179 105.269 636.599C105.969 638.019 106.699 639.729 107.069 641.749C107.609 644.619 107.009 647.639 105.239 649.969C103.479 652.299 100.799 653.969 97.8787 654.819C94.9687 655.679 91.7487 655.659 88.5887 655.169C85.4087 654.679 82.2087 653.729 78.9687 652.669C72.4687 650.589 65.8287 648.069 59.0887 644.899C52.3787 641.689 45.5587 637.829 38.9987 632.839C35.2787 630.019 32.0987 627.219 29.3487 624.489C26.6387 621.729 24.3287 619.059 22.3687 616.469C18.4387 611.279 15.7787 606.479 13.6987 601.869C11.6387 597.239 10.1887 592.749 9.22865 587.839C8.29865 582.939 7.84865 577.579 8.48865 571.309C8.80865 568.669 9.30865 565.929 10.0487 563.149C10.8187 560.379 11.8087 557.579 13.0387 554.799C15.5487 549.259 18.9687 543.789 23.3087 538.929C31.8987 529.089 44.0187 521.989 56.2287 518.309C62.3287 516.429 68.4487 515.289 74.2587 514.869C80.0587 514.299 85.5387 514.529 90.4587 514.919C100.299 515.869 107.819 518.029 111.949 519.329C113.179 519.689 114.379 520.169 115.589 520.589C116.799 521.039 118.029 521.409 119.209 521.929C120.269 522.369 121.559 522.899 123.059 523.519C124.549 524.149 126.199 524.999 128.059 525.859C129.919 526.739 131.869 527.889 134.029 529.039C135.089 529.649 136.169 530.339 137.289 531.019C138.419 531.709 139.589 532.409 140.729 533.229C141.889 534.029 143.089 534.849 144.319 535.689C145.499 536.599 146.719 537.529 147.969 538.479C149.239 539.399 150.429 540.499 151.689 541.549C152.319 542.079 152.949 542.619 153.589 543.169C154.199 543.749 154.819 544.329 155.439 544.919C160.479 549.569 165.509 555.079 169.789 561.559C174.039 568.029 177.439 575.649 178.439 583.969C178.709 586.039 178.799 588.149 178.749 590.259C178.699 592.369 178.499 594.489 178.079 596.579C177.669 598.669 177.099 600.739 176.299 602.739C175.499 604.729 174.509 606.649 173.329 608.469C168.609 615.769 161.129 621.229 152.939 624.419C144.699 627.659 135.779 628.789 127.089 628.929C124.009 629.029 121.009 628.789 118.079 628.669C117.349 628.639 116.619 628.599 115.899 628.569C115.179 628.539 114.459 628.509 113.749 628.399C112.329 628.229 110.929 628.059 109.539 627.889C108.159 627.719 106.789 627.559 105.439 627.399C104.109 627.139 102.789 626.889 101.489 626.639C98.8987 626.109 96.3386 625.729 93.9286 624.999C91.5086 624.339 89.1387 623.739 86.8687 623.079C84.6287 622.309 82.4487 621.559 80.3287 620.839C78.1887 620.179 76.2287 619.229 74.2787 618.439C73.3087 618.029 72.3587 617.629 71.4187 617.239C70.4787 616.849 69.5486 616.459 68.6786 615.999C66.9186 615.119 65.2086 614.259 63.5686 613.429C62.7486 613.009 61.9287 612.629 61.1487 612.189C60.3787 611.739 59.6287 611.299 58.8887 610.859C55.9387 609.109 53.1487 607.579 50.7687 605.849C49.5587 605.019 48.3887 604.229 47.2787 603.479C46.7187 603.099 46.1787 602.729 45.6487 602.369C45.1387 601.969 44.6487 601.589 44.1587 601.209C42.2287 599.699 40.4787 598.329 38.9087 597.109C37.0887 595.619 35.4087 594.019 33.6987 592.519C32.8487 591.759 31.9987 591.019 31.1787 590.249C30.3987 589.449 29.6187 588.649 28.8387 587.859C27.3087 586.259 25.7287 584.759 24.3087 583.149C22.9187 581.519 21.5387 579.899 20.1887 578.309C18.7787 576.759 17.6087 575.059 16.3887 573.429C15.1987 571.779 13.9487 570.209 12.8487 568.559C11.7887 566.879 10.7387 565.229 9.69865 563.589C9.17865 562.769 8.66865 561.949 8.15865 561.139C7.70865 560.299 7.25865 559.449 6.80865 558.619C3.13865 552.009 -0.261347 545.379 -0.971347 538.439C-1.33135 534.989 -0.791347 531.549 0.408653 528.369C1.63865 525.189 3.48865 522.279 5.70865 519.689C8.14865 516.839 10.3187 514.989 11.7287 513.739C13.1587 512.489 13.8887 511.869 13.7987 511.749C13.7287 511.649 12.8487 512.049 11.2587 513.139C9.68865 514.239 7.36865 515.999 4.79865 518.899C2.46865 521.539 0.488653 524.539 -0.851347 527.879C-1.52135 529.549 -1.98135 531.309 -2.28135 533.099C-2.54135 534.899 -2.62135 536.739 -2.45135 538.569C-2.14135 542.239 -1.06135 545.809 0.328653 549.259C1.03865 550.979 1.78865 552.699 2.65865 554.369C3.53865 556.039 4.42865 557.719 5.31865 559.419C5.76865 560.269 6.21865 561.129 6.66865 561.989C7.16865 562.819 7.69865 563.639 8.21865 564.479C9.25865 566.149 10.3187 567.829 11.3887 569.539C12.4987 571.219 13.7587 572.819 14.9587 574.499C16.1887 576.159 17.3687 577.879 18.7887 579.459C20.1587 581.079 21.5487 582.709 22.9487 584.379C24.3887 586.009 25.9887 587.539 27.5287 589.159C28.3087 589.959 29.0987 590.769 29.8887 591.589C30.7187 592.369 31.5787 593.119 32.4387 593.899C34.1787 595.419 35.8687 597.049 37.7187 598.559C43.4687 603.199 52.5787 610.229 66.0587 616.939C66.8987 617.369 67.7487 617.799 68.6087 618.229C69.4787 618.659 70.3987 619.009 71.3087 619.409C73.1387 620.189 75.0187 620.989 76.9587 621.819C78.9087 622.609 80.9687 623.249 83.0487 623.989C84.0887 624.349 85.1487 624.719 86.2187 625.089C87.2987 625.439 88.4087 625.699 89.5287 626.019C98.4087 628.689 108.469 630.399 119.379 630.929C121.159 630.999 122.939 631.129 124.719 631.139C126.499 631.149 128.279 631.099 130.059 631.029C133.619 630.859 137.159 630.519 140.659 629.919C148.189 628.639 155.949 626.129 162.729 621.649C166.109 619.429 169.229 616.749 171.899 613.659C174.549 610.549 176.729 607.019 178.189 603.209C181.139 595.579 181.259 587.259 179.659 579.779C178.079 572.239 174.729 565.519 170.909 559.829C167.069 554.129 162.789 549.369 158.709 545.389C156.639 543.429 154.719 541.549 152.789 539.979C151.839 539.179 150.939 538.379 150.049 537.659C149.139 536.959 148.269 536.289 147.439 535.649C146.609 535.019 145.839 534.389 145.069 533.859C144.299 533.329 143.579 532.829 142.899 532.359C141.549 531.439 140.409 530.609 139.429 530.039C137.489 528.839 136.439 528.199 136.439 528.199C136.439 528.199 136.049 527.959 135.299 527.499C134.529 527.079 133.399 526.459 131.939 525.659C131.209 525.269 130.409 524.799 129.499 524.359C128.589 523.919 127.599 523.449 126.539 522.939C124.439 521.859 121.929 520.919 119.209 519.759C113.679 517.669 106.949 515.539 99.2687 514.179C91.6087 512.809 83.0087 512.229 74.0987 513.029C65.1887 513.739 55.9987 515.949 47.3987 519.679C38.7887 523.369 30.8487 528.709 24.4787 535.189C18.1287 541.679 13.3787 549.209 10.4587 556.699C8.98865 560.439 7.96865 564.169 7.34865 567.739C7.04865 569.529 6.80865 571.269 6.70865 572.969C6.65865 573.819 6.54865 574.649 6.55865 575.459C6.55865 576.279 6.54865 577.079 6.53865 577.859C6.59865 582.579 7.23865 586.969 8.17865 590.979C9.09865 594.999 10.4087 598.629 11.8087 601.929C13.1787 605.249 14.8087 608.149 16.3387 610.839C17.9587 613.469 19.5587 615.849 21.1787 617.949C24.3987 622.169 27.5087 625.419 30.3087 628.049C33.1387 630.639 35.5987 632.719 37.8287 634.359C44.5187 639.439 51.4587 643.349 58.2687 646.579C65.0987 649.779 71.8287 652.289 78.4087 654.349C81.6887 655.389 84.9587 656.349 88.3087 656.839C91.6487 657.319 95.0787 657.329 98.2987 656.349C101.489 655.389 104.409 653.539 106.389 650.869C107.359 649.529 108.059 647.989 108.379 646.379C108.709 644.769 108.679 643.109 108.379 641.539L108.399 641.519Z" fill="#1E1F21"/>
</g>
<path d="M169.809 106.049H141.419H104.029H41.719H-21.291V294.059H332.519V106.049H270.899H206.159H169.809Z" fill="#1E1F21"/>
<path d="M332.518 294.059V106.049H270.898H225.338L142.178 294.059H332.518Z" fill="#292A2E"/>
<path d="M277.591 -18.1818L90.9277 403.643L95.5001 405.666L282.163 -16.1585L277.591 -18.1818Z" fill="#1E1F21"/>
<path d="M332.519 103.549H-21.291V108.549H332.519V103.549Z" fill="#1E1F21"/>
<path d="M488.008 35.019H483.008V645.879H488.008V35.019Z" fill="#292A2E"/>
<path d="M860.519 -51.4409L989.989 241.269H856.179L737.969 -51.4409H860.529M863.769 -56.4409H730.549L733.329 -49.5709L851.539 243.139L852.799 246.269H997.669L994.559 239.249L865.089 -53.4609L863.769 -56.4409Z" fill="#1E1F21"/>
</g>
</g>
<defs>
<clipPath id="clip0_287_72898">
<rect width="960.071" height="540.04" fill="white"/>
</clipPath>
</defs>
</svg>
