<svg width="961" height="541" viewBox="0 0 961 541" fill="none" xmlns="http://www.w3.org/2000/svg">
<g clip-path="url(#clip0_287_73031)">
<mask id="mask0_287_73031" style="mask-type:luminance" maskUnits="userSpaceOnUse" x="0" y="0" width="960" height="540">
<path d="M960 0H0V540H960V0Z" fill="white"/>
</mask>
<g mask="url(#mask0_287_73031)">
<path d="M960 -0.490234H0V539.51H960V-0.490234Z" fill="#3A2C1F"/>
<path d="M169.901 106.35H141.511H104.121H41.8108H-21.1992V294.36H332.611V106.35H270.991H206.251H169.901Z" fill="#693200"/>
<path d="M253.201 404.979H212.431H158.741H69.2708H-21.1992V631.329H486.821V404.979H398.341H305.391H253.201Z" fill="#693200"/>
<path d="M225.351 404.979H212.431H158.741H69.2708H-21.1992V631.329H210.661L225.351 404.979Z" fill="#9E4C00"/>
<path d="M600.6 152.209V134.839V111.969V73.8593V35.3193H485.6V646.179H600.6V214.039V174.439V152.209Z" fill="#9E4C00"/>
<path d="M254.57 40.4598C239.63 -11.0502 199.81 -42.9102 145.89 -51.7002C135.78 -53.3502 125.19 -54.1902 114.16 -54.2002C102.66 -54.2002 91.6302 -53.2902 81.1202 -51.5402C21.8602 -41.6702 -20.3098 -4.30019 -31.2698 56.1598C-33.1198 66.3798 -34.0898 77.2498 -34.0898 88.7598C-34.0898 94.8098 -33.8198 100.68 -33.2898 106.37H225.42L254.57 40.4598Z" fill="#9E4C00"/>
<path d="M990.081 241.559H856.261L738.051 -51.1406H860.611L990.081 241.559Z" fill="#9E4C00"/>
<path d="M1020.47 699.52H562.461L532.73 241.5H1050.19L1020.47 699.52Z" fill="#693200"/>
<path d="M600.6 241.5H532.73L558.99 646.18H600.6V241.5Z" fill="#3A2C1F"/>
<path d="M1087.57 539.859C1090.5 523.459 1092.03 506.029 1092.04 487.589C1092.04 468.889 1090.5 451.219 1087.52 434.619C1069.79 335.809 1001.18 274.889 904.931 259.209C888.511 256.529 871.291 255.159 853.381 255.149C834.691 255.149 816.771 256.619 799.691 259.469C703.371 275.519 634.851 336.239 617.041 434.489C614.031 451.089 612.461 468.759 612.461 487.459C612.461 505.899 613.981 523.329 616.931 539.729C634.551 637.859 703.111 698.739 799.571 714.849C816.641 717.699 834.561 719.189 853.251 719.199C871.171 719.199 888.381 717.839 904.811 715.169C1001.22 699.519 1069.94 638.529 1087.58 539.859H1087.57Z" fill="#9E4C00"/>
<path d="M804.109 163.639C805.369 156.619 806.019 149.159 806.019 141.259C806.019 133.249 805.359 125.689 804.079 118.579C796.489 76.2695 767.099 50.1895 725.869 43.4695C718.839 42.3195 711.459 41.7295 703.789 41.7295C696.119 41.7295 688.109 42.3595 680.799 43.5795C639.549 50.4495 610.199 76.4495 602.569 118.519C601.279 125.629 600.609 133.189 600.609 141.199C600.609 149.099 601.259 156.559 602.519 163.579C610.069 205.599 639.429 231.659 680.749 238.559C688.059 239.779 695.739 240.419 703.739 240.419C711.409 240.419 718.789 239.839 725.819 238.699C767.109 231.999 796.539 205.889 804.099 163.639H804.109Z" fill="#693200"/>
<path d="M279.93 -16.8701L93.3398 404.98H334.14L504.5 -16.8701H279.93Z" fill="#693200"/>
<path d="M332.61 294.36V106.35H270.99H225.43L142.27 294.36H332.61Z" fill="#9E4C00"/>
<path d="M260.25 106.37C260.77 100.7 261.04 94.8602 261.04 88.8402C261.04 77.3302 260.09 66.4602 258.26 56.2402C257.28 50.7902 256.05 45.5302 254.58 40.4502L225.43 106.36H260.25V106.37Z" fill="#9E4C00"/>
<mask id="mask1_287_73031" style="mask-type:luminance" maskUnits="userSpaceOnUse" x="-11" y="-18" width="266" height="125">
<path d="M-10.7402 4.01981V106.38H225.41L254.56 40.4698C250.26 25.6398 239.82 1.71981 223.8 -14.0402L5.99977 -17.2002C5.26977 -16.1902 -10.0402 2.97981 -10.7302 4.01981H-10.7402Z" fill="white"/>
</mask>
<g mask="url(#mask1_287_73031)">
<path d="M29.7396 -2.99088C28.3296 -6.77088 27.2796 -6.39088 28.4596 -2.56088C30.1096 2.88912 31.8596 8.59912 33.8396 16.0091C34.9796 20.1991 35.6496 22.8291 36.2196 25.1291C36.7796 27.4291 37.2496 29.3891 37.7496 32.2891C38.6496 37.1791 39.4596 43.8291 39.7296 49.7491C40.0096 55.6791 39.7796 60.8591 39.6596 62.8691L39.5596 64.6491C39.4796 66.7791 39.1696 72.5291 37.8196 79.6191C36.4696 86.6891 33.9596 95.1091 30.2496 102.219C27.6796 107.269 25.0296 111.019 22.7196 113.789C20.4096 116.559 18.4796 118.389 17.0996 119.559C13.8596 122.369 10.6796 124.389 7.56964 125.859C4.44964 127.329 1.40964 128.309 -1.69036 128.889C-3.39036 129.209 -4.24036 129.519 -4.22036 129.799C-4.20036 130.059 -3.29036 130.289 -1.50036 130.079C1.73964 129.699 4.96964 128.839 8.27964 127.399C11.5896 125.959 14.9596 123.889 18.3296 120.969C19.6596 119.859 21.6396 118.049 23.9696 115.419C26.2896 112.779 28.9196 109.279 31.3596 104.809L32.4996 102.599C32.8396 101.849 33.1796 101.099 33.5196 100.349C36.2996 93.8191 38.5596 86.0191 39.6996 79.7891C39.9996 78.2291 40.2596 76.7891 40.4396 75.4791C40.6496 74.1791 40.7996 73.0191 40.9096 72.0591C41.1596 70.1391 41.2496 68.9991 41.2496 68.9991C41.2496 68.9991 41.2896 68.5791 41.3596 67.8091C41.4396 67.0491 41.4996 65.9391 41.5796 64.5691C41.7396 61.8391 41.8396 58.0691 41.6996 53.9491C41.5796 49.8291 41.2296 45.3591 40.7296 41.2191C40.2296 37.0791 39.5996 33.2791 39.0696 30.4591C37.4196 21.9791 36.2796 17.9791 35.6496 15.5091C33.6396 8.04912 31.7096 2.34912 29.7396 -3.01088V-2.99088Z" fill="#BD5B00"/>
<path d="M169.799 112.75C176.499 117.82 177.129 116.9 170.639 111.7C166.079 107.96 161.599 103.88 156.949 99.2496C152.299 94.6196 147.489 89.4096 142.419 83.2696C136.669 76.3096 133.369 71.7197 130.529 67.7197C127.689 63.7097 125.359 60.2197 122.209 54.9697C119.539 50.5397 116.479 45.2796 114.139 39.4796C112.969 36.5796 112.009 33.5296 111.419 30.4396C110.819 27.3496 110.619 24.2096 110.839 21.2096C111.239 15.1796 113.529 9.77965 116.569 6.36965C118.059 4.63965 119.669 3.34965 121.089 2.37965C122.549 1.44965 123.789 0.779648 124.719 0.389648C125.259 0.139648 125.809 -0.100352 126.379 -0.300352C126.939 -0.520352 127.499 -0.730352 128.079 -0.900352C129.099 -1.25035 130.589 -1.62035 132.479 -1.97035C134.379 -2.27035 136.699 -2.47035 139.339 -2.34035C144.619 -2.10035 151.169 -0.340352 157.769 3.11965C164.399 6.53965 171.149 11.4596 177.579 16.9996C178.399 17.6796 179.179 18.3996 179.969 19.1296C180.749 19.8596 181.549 20.5696 182.319 21.3096C183.839 22.8296 185.399 24.3096 186.839 25.8896C189.809 28.9896 192.549 32.2796 195.139 35.5696C198.799 40.2296 201.789 44.6796 204.299 48.7996C204.939 49.8196 205.539 50.8296 206.099 51.8196C206.659 52.8096 207.209 53.7696 207.739 54.7096C208.729 56.6196 209.719 58.3796 210.529 60.0996C213.869 66.9096 215.859 72.1296 217.099 75.7496C220.059 84.2796 221.679 92.0396 222.449 99.2696C223.129 106.5 222.979 113.23 221.799 119.74C221.519 121.54 221.219 122.87 221.119 123.78C220.999 124.69 221.019 125.17 221.149 125.21C221.279 125.25 221.519 124.84 221.849 123.97C222.169 123.1 222.639 121.79 222.979 119.97C224.389 113.38 224.709 106.51 224.129 99.1197C223.469 91.7397 221.869 83.8096 218.869 75.1396C217.719 71.7696 215.839 66.5996 212.749 60.0696C211.239 56.7896 209.319 53.2196 207.129 49.3496C204.859 45.5196 202.229 41.4196 199.139 37.1796C198.099 35.8196 197.079 34.4496 196.009 33.1196C194.909 31.8096 193.859 30.4796 192.719 29.2196C187.879 23.7296 182.249 18.2296 176.309 13.3596C170.339 8.54965 164.189 4.22965 158.279 1.23965C152.409 -1.81035 146.819 -3.39035 142.799 -3.96035C140.789 -4.28035 139.149 -4.33035 138.039 -4.36035C136.929 -4.35035 136.319 -4.34035 136.319 -4.34035C136.319 -4.34035 135.419 -4.31035 133.799 -4.16035C132.189 -3.98035 129.859 -3.61035 127.089 -2.72035C124.339 -1.84035 121.159 -0.330352 118.159 2.08965C115.169 4.50965 112.519 7.98965 110.959 12.0996C109.359 16.1996 108.749 20.8196 108.999 25.3696C109.239 29.9397 110.399 34.3896 111.929 38.4796C113.459 42.5696 115.369 46.3096 117.219 49.6596C119.079 53.0096 120.899 55.9796 122.449 58.5196C131.989 73.7196 137.649 80.3096 140.949 84.4496C146.069 90.6396 150.959 95.8597 155.709 100.48C160.469 105.08 165.069 109.1 169.769 112.74L169.799 112.75Z" fill="#BD5B00"/>
<path d="M109.699 126.299C111.679 127.979 113.239 129.139 114.319 129.849C115.399 130.569 115.999 130.859 116.089 130.739C116.189 130.619 115.779 130.089 114.859 129.179C113.929 128.279 112.499 126.979 110.569 125.269C105.089 120.449 99.769 115.179 94.439 109.069C93.079 107.569 91.809 105.939 90.449 104.319C89.159 102.649 87.789 100.979 86.509 99.1695C83.879 95.6195 81.309 91.7495 78.829 87.5095C76.019 82.7095 73.979 78.6695 72.419 75.1195C70.799 71.5895 69.669 68.5395 68.719 65.6795C68.239 64.2495 67.799 62.8595 67.429 61.4595C67.009 60.0695 66.699 58.6595 66.359 57.2095C65.729 54.2995 65.159 51.1695 64.869 47.4195C64.689 45.8395 64.689 44.1795 64.619 42.4695C64.659 40.7595 64.629 38.9895 64.809 37.1895C65.079 33.5895 65.669 29.8195 66.779 26.1295C67.859 22.4295 69.409 18.7995 71.359 15.4095C71.839 14.5595 72.419 13.7695 72.939 12.9495L73.739 11.7295L74.629 10.5895C75.229 9.83946 75.809 9.05946 76.419 8.32946C77.069 7.62946 77.709 6.92946 78.349 6.23946C78.969 5.52946 79.669 4.90946 80.349 4.27946C81.039 3.65946 81.679 2.99946 82.389 2.43946C83.819 1.32946 85.159 0.159463 86.619 -0.770537C87.329 -1.26054 88.029 -1.73054 88.719 -2.20054C89.439 -2.62054 90.139 -3.04054 90.829 -3.45054C92.189 -4.30054 93.589 -4.95054 94.879 -5.62054C100.129 -8.18054 104.559 -9.50054 107.019 -10.2005C108.479 -10.6305 109.969 -10.9205 111.449 -11.3105C114.109 -11.8505 119.059 -12.8905 125.729 -13.0505C126.559 -13.0705 127.419 -13.0805 128.309 -13.1005C129.189 -13.0805 130.099 -13.0605 131.029 -13.0305C132.889 -13.0205 134.839 -12.8205 136.869 -12.6805C140.919 -12.2805 145.279 -11.6305 149.829 -10.6805C168.059 -6.89054 188.859 2.23946 207.449 11.5595C220.569 18.2095 230.749 24.4195 238.549 29.6595C246.389 34.8695 251.789 39.2095 255.489 42.1695C264.169 49.2595 271.169 56.1295 277.209 62.8595C283.299 69.5395 288.149 76.3095 292.629 83.1895C297.339 90.8895 298.209 90.4595 293.649 82.5595C289.309 75.5095 284.549 68.5695 278.479 61.7395C272.469 54.8695 265.429 47.8795 256.679 40.7195C254.949 39.3695 252.819 37.5595 250.149 35.5295C247.439 33.5495 244.359 31.1195 240.659 28.6495C233.349 23.5695 223.979 17.6895 212.539 11.6895C210.669 10.7295 208.789 9.77946 206.919 8.81946C205.049 7.85946 203.139 7.00946 201.259 6.10946C193.099 2.31946 184.259 -1.60054 175.409 -4.93054C170.989 -6.59054 166.569 -8.13054 162.259 -9.43054C157.939 -10.7205 153.739 -11.8005 149.759 -12.6405C141.799 -14.2905 134.799 -14.9105 129.829 -15.0005C128.589 -15.0605 127.469 -15.0205 126.499 -15.0005C125.519 -14.9805 124.689 -14.9905 124.009 -14.9505C122.649 -14.8605 121.919 -14.8105 121.919 -14.8105C121.919 -14.8105 121.649 -14.7905 121.119 -14.7605C120.599 -14.7305 119.829 -14.6805 118.849 -14.5405C117.869 -14.4105 116.659 -14.2905 115.279 -14.0705C113.899 -13.8005 112.319 -13.5805 110.599 -13.1605C107.149 -12.4005 103.129 -11.1905 98.809 -9.48054C94.509 -7.73054 89.959 -5.35054 85.599 -2.28054C81.239 0.789462 77.079 4.58946 73.649 9.02946C70.219 13.4495 67.539 18.4895 65.829 23.6195C64.099 28.7595 63.289 33.9495 63.069 38.7095C62.849 43.4795 63.199 47.8395 63.699 51.5095C64.459 57.0495 65.679 61.7695 66.959 65.8095C68.259 69.8495 69.569 73.2495 70.879 76.1095C73.449 81.8495 75.539 85.6395 77.219 88.4695C79.729 92.7695 82.349 96.6895 85.039 100.269C86.349 102.089 87.739 103.779 89.059 105.459C90.449 107.079 91.749 108.719 93.139 110.229C98.599 116.349 104.069 121.569 109.689 126.309L109.699 126.299Z" fill="#BD5B00"/>
<path d="M269.569 75.659C273.689 72.929 273.009 72.039 268.849 74.519C267.369 75.389 265.909 76.349 264.279 77.079C262.669 77.839 261.059 78.729 259.309 79.479C257.529 80.159 255.699 80.919 253.749 81.649C252.749 81.939 251.729 82.239 250.679 82.549C250.159 82.709 249.629 82.859 249.089 83.019C248.549 83.179 248.009 83.349 247.439 83.439C246.159 83.699 244.999 83.939 243.939 84.159C243.409 84.269 242.899 84.379 242.419 84.479C241.929 84.539 241.459 84.599 240.999 84.649C239.189 84.849 237.669 85.089 236.249 85.199C234.819 85.239 233.509 85.279 232.099 85.329C231.749 85.329 231.389 85.349 231.019 85.359C230.649 85.329 230.279 85.309 229.899 85.279C229.129 85.219 228.309 85.159 227.429 85.089C226.679 85.019 225.899 84.999 225.099 84.879C224.299 84.749 223.469 84.609 222.629 84.469C221.779 84.329 220.919 84.189 220.039 84.039C219.169 83.819 218.289 83.609 217.399 83.379C216.509 83.159 215.609 82.929 214.709 82.709L212.049 81.839C211.169 81.549 210.289 81.249 209.409 80.959C208.559 80.609 207.709 80.269 206.879 79.929C206.049 79.589 205.229 79.249 204.429 78.929C203.649 78.549 202.889 78.189 202.149 77.829C200.679 77.109 199.279 76.469 198.079 75.759C196.869 75.079 195.779 74.479 194.869 73.969C193.969 73.439 193.259 72.969 192.739 72.649L190.889 71.519C190.329 71.199 189.549 70.699 188.589 70.059C187.629 69.409 186.459 68.669 185.149 67.759C183.869 66.819 182.429 65.769 180.869 64.629C179.369 63.409 177.689 62.169 176.019 60.729C172.639 57.909 169.079 54.589 165.559 51.059C162.069 47.489 158.669 43.669 155.579 39.849C151.209 34.459 147.969 29.849 145.779 26.049C145.209 25.109 144.759 24.199 144.369 23.369C144.209 22.949 144.019 22.589 143.899 22.159C143.769 21.739 143.639 21.329 143.519 20.939C143.049 19.379 142.729 18.049 142.499 16.969C141.949 14.409 141.619 11.979 141.449 9.66902C141.299 7.34902 141.309 5.15902 141.439 3.04902C141.759 -1.15098 142.549 -4.97098 143.899 -8.57098C144.629 -10.541 144.919 -11.591 144.659 -11.731C144.539 -11.791 144.299 -11.611 143.969 -11.171C143.649 -10.731 143.189 -10.031 142.779 -9.02098C141.179 -5.39098 140.199 -1.44098 139.749 2.90902C139.559 5.08902 139.509 7.36902 139.629 9.77902C139.779 12.189 140.109 14.709 140.669 17.359C140.879 18.389 141.189 19.689 141.609 21.249C141.859 22.029 142.019 22.839 142.419 23.779C142.589 24.259 142.809 24.699 143.029 25.159C143.259 25.619 143.479 26.099 143.749 26.559C145.809 30.309 148.709 34.709 152.509 39.539C153.759 41.099 155.019 42.659 156.359 44.119C161.999 50.559 169.089 57.389 174.979 62.329C177.929 64.789 180.539 66.829 182.449 68.199C184.319 69.619 185.489 70.379 185.489 70.379C185.489 70.379 185.919 70.669 186.689 71.189C187.479 71.689 188.559 72.509 189.999 73.339C190.709 73.769 191.489 74.239 192.329 74.749C192.749 74.999 193.179 75.269 193.619 75.529C194.079 75.779 194.549 76.029 195.029 76.289C195.999 76.809 197.009 77.349 198.049 77.919C199.099 78.479 200.229 78.959 201.369 79.509C203.619 80.639 206.099 81.519 208.539 82.509C209.779 82.949 211.049 83.329 212.289 83.729C212.909 83.929 213.529 84.129 214.149 84.319C214.779 84.469 215.399 84.629 216.019 84.779C217.259 85.079 218.479 85.369 219.659 85.659C220.859 85.849 222.019 86.039 223.139 86.219C225.359 86.649 227.429 86.699 229.179 86.859C229.839 86.909 230.479 86.969 231.099 86.989C231.719 86.989 232.319 86.979 232.899 86.969C234.059 86.959 235.139 86.939 236.149 86.929C238.169 86.829 239.879 86.579 241.369 86.449C242.869 86.349 244.089 85.999 245.159 85.819C246.219 85.609 247.109 85.429 247.879 85.279C248.469 85.179 249.029 85.009 249.579 84.839C250.129 84.669 250.679 84.509 251.219 84.349C252.299 84.019 253.339 83.699 254.359 83.389C256.349 82.619 258.219 81.819 260.019 81.069C261.799 80.259 263.409 79.309 265.029 78.469C266.669 77.669 268.109 76.619 269.569 75.669V75.659Z" fill="#BD5B00"/>
</g>
<mask id="mask2_287_73031" style="mask-type:luminance" maskUnits="userSpaceOnUse" x="485" y="35" width="116" height="592">
<path d="M485.609 626.19H557.699L532.739 241.45H600.599V213.99V174.4V152.16V134.8V111.93V73.8203V35.2803H485.609V626.19Z" fill="white"/>
</mask>
<g mask="url(#mask2_287_73031)">
<path d="M487.291 104.9C482.701 105.26 480.451 105.89 480.491 106.18C480.531 106.5 482.831 106.48 487.381 106.24C493.831 105.93 500.481 106.02 507.611 106.76C514.721 107.57 522.341 109.12 530.471 112.18C535.081 113.89 538.691 115.64 541.721 117.26C543.251 118.04 544.591 118.88 545.881 119.61C547.121 120.41 548.331 121.1 549.421 121.88C550.531 122.63 551.601 123.36 552.611 124.14C553.121 124.53 553.651 124.9 554.151 125.3C554.641 125.72 555.131 126.14 555.631 126.56C556.121 126.99 556.651 127.41 557.141 127.88C557.611 128.37 558.101 128.87 558.601 129.39C559.641 130.38 560.541 131.62 561.571 132.91C565.001 137.34 567.651 143.49 569.071 150.18C570.391 156.91 570.521 164.12 569.931 170.83C568.701 184.3 565.331 195.76 564.131 200.19C563.761 201.5 563.391 202.81 563.011 204.13C562.331 206.48 561.091 210.82 559.221 216.5C557.371 222.19 554.941 229.22 552.111 237.02C546.491 252.64 539.171 271.3 533.671 289.06C529.831 301.61 527.521 312.06 526.691 320.5C525.751 328.92 526.391 335.26 527.211 339.49C528.191 344.5 530.021 349.07 532.621 352.85C535.211 356.64 538.511 359.59 541.981 361.8C542.411 362.08 542.851 362.36 543.281 362.63C543.711 362.9 544.181 363.11 544.621 363.35C545.521 363.8 546.391 364.3 547.301 364.69C549.131 365.43 550.921 366.21 552.761 366.72C556.401 367.92 560.071 368.59 563.721 369.16C567.751 369.67 569.791 369.58 569.811 369.33C569.841 369.04 567.861 368.59 563.911 367.98C560.331 367.31 556.741 366.56 553.231 365.31C551.441 364.77 549.731 363.98 547.971 363.23C547.101 362.84 546.271 362.34 545.411 361.9C544.991 361.66 544.541 361.46 544.131 361.19C543.721 360.92 543.311 360.65 542.901 360.37C539.611 358.21 536.531 355.4 534.121 351.81C531.701 348.23 529.971 343.92 529.041 339.11C528.291 335.39 527.771 329.46 528.581 321.71C529.371 313.96 531.371 304.45 534.601 293.55C535.641 289.99 536.741 286.45 537.831 282.94C542.621 267.8 549.151 250.7 554.021 237.23C558.951 223.78 562.101 213.91 562.101 213.91C562.101 213.91 562.391 212.99 562.911 211.33C563.441 209.67 564.171 207.26 565.031 204.28C566.751 198.32 568.971 190.04 570.471 180.76C571.211 176.12 571.781 171.24 571.951 166.31C572.091 161.38 571.831 156.41 571.011 151.69C570.201 146.97 568.791 142.52 566.951 138.67C565.121 134.81 562.761 131.67 560.611 129.14C559.741 128.24 558.911 127.36 558.101 126.52C557.221 125.75 556.361 125.01 555.541 124.29C553.861 122.91 552.241 121.71 550.681 120.64C547.581 118.49 544.811 116.82 542.351 115.51C537.431 112.86 533.841 111.44 531.121 110.38C522.821 107.26 515.021 105.72 507.781 104.99C500.521 104.32 493.801 104.36 487.291 104.84V104.9Z" fill="#BD5B00"/>
<path d="M485.249 69.2396C478.779 72.9796 479.359 73.9296 485.889 70.4296C490.549 67.9896 495.409 65.6496 500.769 63.3096C506.129 60.9796 511.999 58.6796 518.759 56.5396C522.579 55.3196 525.729 54.4496 528.439 53.7596C529.799 53.4296 531.049 53.1196 532.219 52.8296C533.399 52.5796 534.509 52.3396 535.579 52.1096C537.709 51.6496 539.709 51.3396 541.839 50.9696C543.979 50.6996 546.239 50.3296 548.959 50.1496C553.529 49.7596 558.939 49.4396 564.499 49.9096C570.039 50.3596 575.769 51.6696 580.429 54.3196C582.759 55.6296 584.779 57.2796 586.399 59.0696C588.019 60.8596 589.259 62.7896 590.179 64.6296C591.109 66.4596 591.729 68.2096 592.139 69.6996C592.569 71.1896 592.799 72.4396 592.939 73.3396C593.109 74.3996 593.239 75.4696 593.319 76.5496C593.409 77.5096 593.449 78.8796 593.409 80.5996C593.329 82.3096 593.119 84.3896 592.659 86.7196C591.759 91.3796 589.739 97.0296 586.549 102.88C580.219 114.65 569.829 127.32 558.369 136.9C550.329 143.74 543.099 148.37 537.279 151.77C531.419 155.14 526.929 157.28 523.819 158.7C516.479 162.03 509.839 164.44 503.639 166.41C497.429 168.38 491.639 169.88 485.839 171.16C479.469 172.5 479.609 173.46 486.079 172.34C491.949 171.26 497.829 169.9 504.129 168.02C510.429 166.15 517.159 163.76 524.589 160.4C527.469 159.08 531.919 157.05 537.549 153.94C543.159 150.81 549.939 146.54 557.239 140.69L560.739 137.75C561.859 136.72 562.979 135.7 564.099 134.68C568.829 130.19 573.569 125.01 577.749 119.61C579.839 116.91 581.819 114.17 583.589 111.44C585.379 108.73 587.009 106.05 588.389 103.45C591.179 98.2796 592.979 93.4996 593.889 89.9996C594.369 88.2596 594.639 86.8396 594.819 85.8696C594.969 84.8896 595.059 84.3696 595.059 84.3696C595.059 84.3696 595.169 83.5796 595.299 82.1396C595.419 80.6996 595.499 78.6096 595.299 76.0396C595.089 73.4796 594.569 70.4296 593.399 67.2396C592.819 65.6396 592.089 64.0096 591.149 62.4096C590.209 60.8196 589.109 59.2296 587.759 57.8096C586.419 56.3796 584.899 55.0596 583.219 53.9296C581.529 52.8196 579.709 51.8696 577.829 51.0896C574.039 49.5796 570.029 48.7596 566.159 48.3596C562.289 47.9796 558.539 47.9396 555.129 48.1096C551.709 48.2296 548.609 48.5196 545.959 48.7796C537.999 49.6996 532.179 50.9296 527.799 52.0296C525.599 52.5496 523.769 53.0996 522.189 53.5196C520.619 53.9996 519.309 54.3896 518.179 54.7396C511.349 56.8996 505.429 59.2796 500.049 61.7096C494.679 64.1496 489.839 66.6296 485.229 69.2296L485.249 69.2396Z" fill="#BD5B00"/>
<path d="M622.38 130.07C625.62 125.94 624.74 125.26 621.35 129.2C616.47 134.74 611.17 140.4 603.97 147.3C599.91 151.23 597.32 153.63 595.06 155.72C592.79 157.8 590.84 159.55 587.9 162.01C582.94 166.17 576.08 171.55 569.85 176.16C563.64 180.8 558.08 184.68 555.91 186.16L554 187.5C551.72 189.1 545.6 193.46 537.55 198.38C529.51 203.31 519.46 208.68 509.72 212.59C502.86 215.39 497.14 217.23 492.57 218.49C488 219.74 484.59 220.5 482.24 220.94C471.14 223.09 462.67 223.58 454.37 223.45C449.82 223.29 449.71 224.26 454.31 224.65C462.68 225.21 471.34 224.95 482.59 222.78C486.94 221.92 496.15 220.25 508.39 215.49C510.37 214.69 512.35 213.89 514.26 212.98C518.41 211.07 522.8 208.88 527.01 206.62C531.22 204.34 535.24 201.99 538.74 199.87C542.24 197.75 545.2 195.83 547.29 194.46C549.37 193.08 550.6 192.26 550.6 192.26C550.6 192.26 551.06 191.95 551.88 191.4C552.7 190.84 553.88 190.02 555.33 189.02C558.22 186.99 562.18 184.15 566.45 180.96C575 174.59 584.8 166.8 590.46 161.97C598.99 154.71 602.87 150.95 605.26 148.66C612.49 141.7 617.72 135.86 622.37 130.07H622.38Z" fill="#BD5B00"/>
<path d="M513.489 26.2299C511.589 24.7899 510.429 24.3799 510.269 24.6199C510.079 24.8899 510.869 25.7899 512.649 27.2799C515.149 29.4099 517.539 31.7899 519.859 34.6099C522.179 37.4299 524.449 40.6599 526.549 44.5599C528.939 48.9699 530.089 51.9099 531.049 54.4699C531.969 57.0499 532.639 59.2899 533.309 62.6399C533.879 65.4699 534.269 68.8399 534.409 72.3599C534.549 75.8799 534.399 79.5499 534.019 82.9799C533.279 89.8499 531.579 95.6799 530.879 97.9099L530.249 99.8899C529.899 101.08 529.159 103.25 528.049 106.08C527.439 107.47 526.749 109.03 525.999 110.72C525.229 112.4 524.239 114.14 523.279 116.02C519.249 123.43 512.949 131.53 506.149 138.03C504.999 139.23 503.769 140.23 502.659 141.25C501.539 142.26 500.469 143.21 499.389 144.03C498.329 144.87 497.329 145.67 496.379 146.42C495.409 147.14 494.479 147.78 493.609 148.41C492.739 149.02 491.939 149.62 491.169 150.13C490.389 150.63 489.659 151.09 488.999 151.51C487.659 152.35 486.569 153.1 485.609 153.6C476.819 158.68 469.779 161.65 462.749 164.16C458.879 165.51 459.119 166.45 463.119 165.31C470.359 163.18 477.609 160.38 486.559 155.22C489.969 153.15 497.369 149.06 506.149 141.08C507.569 139.77 508.889 138.37 510.229 137C511.639 135.49 512.989 133.83 514.429 132.21C515.769 130.51 517.119 128.79 518.429 127.07C519.639 125.28 520.919 123.56 522.009 121.82C523.059 120.05 524.149 118.39 525.029 116.76C525.889 115.12 526.699 113.6 527.419 112.23C528.049 110.82 528.609 109.58 529.079 108.55C529.549 107.52 529.919 106.7 530.129 106.12C530.359 105.55 530.479 105.23 530.479 105.23C530.479 105.23 531.229 103.38 532.209 100.32C533.189 97.2699 534.339 92.9899 535.119 88.2199C535.929 83.4499 536.249 78.1699 536.109 73.2699C535.939 68.3699 535.249 63.8699 534.509 60.5699C533.399 55.5999 532.059 52.0499 530.939 49.3999C529.829 46.7499 528.889 44.9999 528.179 43.6699C525.999 39.6599 523.619 36.3399 521.159 33.4999C518.699 30.6499 516.149 28.2899 513.469 26.2299H513.489Z" fill="#BD5B00"/>
<path d="M481.75 423.89C480.25 423.25 478.71 422.69 477.25 421.96C477.25 421.96 476.79 421.69 476.06 421.26C475.33 420.82 474.3 420.27 473.23 419.59C472.15 418.92 470.96 418.22 469.85 417.59C468.77 416.92 467.75 416.35 466.96 415.99L465.65 415.07L464.38 414.1L461.84 412.16C460.2 410.8 458.52 409.48 456.94 408.06C456.94 408.06 455.89 407.23 454.68 406.28C453.45 405.35 452.12 404.22 451.4 403.82C450.51 403.3 449.85 403.05 449.57 403.13C449.29 403.21 449.41 403.64 450.1 404.48C450.44 404.9 450.93 405.42 451.57 406.05C452.21 406.69 453.02 407.42 454.05 408.23C454.08 408.29 454.22 408.45 454.21 408.5C458.6 411.85 462.43 415.61 467.21 418.66C467.23 418.5 467.45 418.5 467.55 418.66L467.4 418.78C469.04 419.7 470.35 420.49 471.6 421.3C472.84 422.12 474.13 422.8 475.78 423.35C475.78 423.35 475.32 423.37 475.31 423.37C480.48 426.17 486.8 429.11 493.55 431.25C500.28 433.42 513.77 434.92 513.77 434.92L513.8 434.9C513.51 434.83 516.84 434.92 516.14 435.02C517.02 435.05 518.01 435.09 519.08 435.13C520.15 435.17 521.31 435.2 522.52 435.12C523.73 435.05 525 435.05 526.28 434.89C527.56 434.74 528.87 434.6 530.18 434.43C535.39 433.66 540.41 432.16 543.55 430.98C543.34 430.9 549.24 429.2 554.29 426.95C559.36 424.74 565.5 421.41 570.85 417.81C576.22 414.24 580.8 410.47 583.34 408.12C585.87 405.75 586.44 404.91 583.6 406.77L583.73 406.4C582.38 407.49 581.13 408.48 579.82 409.41C579.17 409.88 578.51 410.35 577.82 410.81C577.12 411.26 576.38 411.71 575.6 412.17C575.21 412.5 575.14 412.5 575.26 412.66C575.17 412.77 575.02 412.95 575.12 412.98C575.44 413.33 574.43 413.86 574.02 414.15C573.81 413.35 571.55 414.99 569.04 416.76C566.57 418.59 563.81 420.52 563.13 420.92C562.51 420.45 560.41 422.38 559.44 422.58C559.49 422.52 559.78 422.18 559.82 422.13C559.58 422.13 558.68 422.63 557.47 423.26C556.27 423.9 554.8 424.76 553.41 425.43C550.67 426.87 548.36 427.8 550.05 426.68C546.12 427.92 541.41 429.35 536.21 430.53C531.01 431.7 525.29 432.55 519.49 432.67C513.7 432.81 507.82 432.26 502.45 431.03C497.08 429.83 492.19 428.1 488.23 426.18L488.32 426.31C488.2 426.23 487.78 426.13 487.72 425.99C486.87 425.78 485.38 425.27 484.09 424.81C483.44 424.59 482.86 424.36 482.44 424.17C482.02 423.99 481.76 423.88 481.76 423.88L481.75 423.89ZM571.36 415.69L571.3 415.58L571.45 415.47C571.45 415.47 571.47 415.54 571.45 415.58C571.44 415.62 571.4 415.67 571.36 415.69ZM484.04 425.57C484.47 425.55 485.77 426.23 484.73 426.19C484.52 426.03 483.78 425.91 484.04 425.57ZM546.58 428.76C546.46 428.42 548.21 427.62 548.42 428.13C547.8 428.37 547.2 428.6 546.58 428.76ZM471.15 419.16C470.49 419.25 470.87 418.93 470.86 418.62C470.94 418.74 471.32 419 471.14 419.11V419.16H471.15ZM463.5 414.3C463.27 414.39 462.78 414.19 462.58 414.05C462.17 413.56 463.38 413.99 463.5 414.3ZM451.94 404.81C451.77 404.96 451.45 404.78 451.54 404.54C451.68 404.44 452.09 404.64 451.95 404.88C451.95 404.87 451.95 404.84 451.94 404.81ZM555.21 426.07C555.02 426.91 553.14 427.13 552.35 427.69C552.28 426.98 554.04 426.74 554.66 426.33C554.89 426.23 555.07 426.14 555.21 426.07ZM480.71 425.71C480.55 425.67 480.33 425.64 480.18 425.55C479.17 425.02 480.55 425.06 480.71 425.71Z" fill="#BD5B00"/>
<path d="M549.78 526.48C551.55 526.64 552.89 526.6 553.77 526.45C554.65 526.32 555.08 526.16 555.07 526C555.06 525.84 554.62 525.7 553.76 525.59C552.9 525.5 551.62 525.35 549.93 525.14C545.12 524.52 540.37 522.78 535.72 520.06C531.09 517.29 526.58 513.46 522.58 508.26C518.08 502.32 516.11 498 514.4 494.32C512.78 490.58 511.54 487.3 510.18 482.38C507.87 474.06 505.9 462.57 505.26 452.27C504.64 441.96 505.11 432.92 505.4 429.43C505.47 428.4 505.52 427.36 505.62 426.32C505.78 424.47 506.02 421.04 506.61 416.54C506.85 414.28 507.31 411.77 507.71 409.03C507.96 407.67 508.23 406.25 508.5 404.79C508.64 404.06 508.78 403.32 508.92 402.56C509.09 401.81 509.26 401.05 509.43 400.28C512.01 387.94 516.84 373.46 522.65 360.66C530.91 342.58 537.84 332.32 541.3 326.93C545.46 320.59 549.36 315.22 553.07 310.34C556.76 305.45 560.3 301.08 563.88 296.8C567.84 292.13 567.13 291.47 562.97 296.01C559.22 300.16 555.53 304.45 551.73 309.31C547.91 314.15 543.94 319.52 539.74 325.9C536.51 330.86 529.44 341.1 521.96 356.94C521.36 358.23 520.74 359.52 520.19 360.83C519.64 362.14 519.1 363.45 518.55 364.76C516.3 370.43 514 376.57 512.14 382.69C510.28 388.81 508.63 394.84 507.52 400.2C506.88 402.87 506.49 405.39 506.03 407.63C505.62 409.88 505.34 411.87 505.07 413.53C504.78 415.18 504.67 416.51 504.54 417.41C504.43 418.32 504.36 418.81 504.36 418.81C504.36 418.81 504.27 419.54 504.11 420.86C503.99 422.19 503.82 424.1 503.6 426.46C503.28 431.19 502.89 437.72 503.14 444.87C503.33 452.02 504.04 459.78 505.21 466.93C506.35 474.08 507.91 480.61 509.37 485.39C511.54 492.61 513.92 497.71 515.95 501.47C518.02 505.21 519.74 507.61 521.1 509.4C525.25 514.79 530 518.75 534.86 521.55C539.74 524.31 544.76 526 549.79 526.47L549.78 526.48Z" fill="#BD5B00"/>
<path d="M477.231 313.15C475.701 317.36 476.751 317.74 478.481 313.65C480.981 307.85 483.691 301.81 487.601 294.26C488.681 292.1 489.621 290.39 490.411 288.9C491.191 287.41 491.881 286.18 492.531 285.04C493.791 282.74 494.951 280.83 496.721 278.08C499.741 273.45 504.151 267.47 508.461 262.49C512.741 257.48 516.871 253.45 518.511 251.92L519.951 250.55C520.381 250.14 520.981 249.55 521.741 248.81C522.531 248.1 523.471 247.25 524.551 246.29C526.701 244.35 529.491 242.08 532.711 239.69C535.941 237.32 539.661 234.92 543.611 232.71C547.561 230.49 551.821 228.6 556.001 227.08C561.911 224.92 566.921 223.89 570.891 223.31C572.891 223.1 574.611 222.85 576.111 222.83C577.601 222.77 578.841 222.68 579.861 222.75C584.641 222.78 588.801 223.35 592.571 224.2C596.341 225.05 599.721 226.19 602.981 227.54C604.771 228.29 605.751 228.51 605.881 228.26C606.001 228.03 605.261 227.32 603.481 226.44C600.241 224.87 596.831 223.54 592.971 222.55C589.121 221.56 584.821 220.91 579.881 220.87C578.921 220.81 577.701 220.86 576.241 220.9C574.771 220.9 573.071 221.06 571.131 221.25C567.271 221.7 562.491 222.55 557.141 224.34C555.411 224.96 553.671 225.55 552.021 226.33C548.401 227.87 544.681 229.84 541.131 231.9C537.571 233.95 534.281 236.24 531.431 238.28C530.021 239.33 528.731 240.33 527.571 241.22C526.441 242.15 525.441 242.97 524.611 243.65C523.001 245.06 522.051 245.9 522.051 245.9C522.051 245.9 521.701 246.21 521.061 246.78C520.411 247.33 519.531 248.19 518.441 249.24C517.341 250.28 516.041 251.53 514.671 252.98C513.981 253.7 513.251 254.45 512.501 255.23C511.781 256.03 511.031 256.87 510.271 257.72C508.711 259.4 507.231 261.26 505.681 263.09C504.191 264.96 502.701 266.84 501.331 268.7C499.981 270.57 498.641 272.35 497.521 274.06C496.371 275.75 495.321 277.29 494.481 278.65C493.841 279.66 493.241 280.61 492.681 281.5C492.141 282.4 491.651 283.24 491.181 284.03C490.711 284.82 490.281 285.54 489.881 286.22C489.501 286.91 489.141 287.55 488.811 288.14C488.151 289.32 487.601 290.32 487.131 291.18C486.681 292.05 486.301 292.78 485.981 293.41C482.041 301.04 479.471 307.22 477.261 313.17L477.231 313.15Z" fill="#BD5B00"/>
<path d="M582.999 347.48C583.799 345.62 584.649 343.78 585.509 341.95C585.509 341.95 586.829 339.67 588.419 336.94C589.999 334.21 591.889 331.05 592.779 329.12C595.709 324.72 598.799 320.43 602.139 316.35C602.139 316.35 603.129 315.03 604.299 313.53C605.459 312.03 606.829 310.38 607.429 309.57C608.149 308.54 608.639 307.84 608.639 307.53C608.659 307.22 608.059 307.32 606.929 308.15C605.819 308.98 604.219 310.54 602.209 313.08C602.139 313.12 601.949 313.3 601.889 313.3C597.819 318.81 593.559 323.83 589.909 329.76C590.079 329.76 590.059 330.02 589.879 330.16L589.759 330C587.629 334.12 585.659 336.32 584.169 340.34C584.169 340.34 584.189 339.81 584.189 339.79C580.749 346.16 576.989 353.83 573.829 361.93C570.659 370.02 568.149 378.55 566.779 386.3L566.819 386.23L566.839 386.27C567.059 385.57 567.609 383.53 568.139 381.69C568.689 379.85 569.179 378.18 569.179 378.18C568.709 383.42 566.609 389 565.929 394.54L565.699 394.47C565.869 393.28 566.009 392.15 566.109 391.21C566.229 390.27 566.309 389.53 566.329 389.1C565.419 393.32 564.449 399.8 564.389 406.29C564.219 412.78 565.049 419.22 565.969 423.27C566.109 423.03 565.279 420.55 565.799 419.82C565.919 420.87 566.129 421.91 566.329 422.94C566.509 423.97 566.739 424.97 566.949 425.95C566.579 426.03 566.459 424.87 566.339 424.66C566.439 425.51 567.209 430.56 569.539 437.04C570.719 440.27 572.259 443.84 574.189 447.39C576.139 450.92 578.449 454.41 580.909 457.58C583.339 460.78 586.009 463.56 588.399 465.94C590.839 468.28 593.079 470.15 594.769 471.47C598.229 474.03 599.339 474.57 596.349 471.64L596.799 471.75C593.509 468.99 590.909 466.52 588.099 463.05C587.639 462.62 587.619 462.54 587.479 462.67C587.339 462.57 587.109 462.41 587.099 462.52C586.799 462.9 585.959 461.76 585.559 461.28C586.359 461.05 584.079 458.48 581.669 455.55C579.289 452.61 576.819 449.25 576.389 448.37C576.609 448.02 576.109 447.21 575.569 446.31C575.039 445.4 574.419 444.42 574.289 443.84C574.349 443.9 574.739 444.29 574.789 444.34C574.699 443.8 572.559 439.79 571.109 436.25C570.759 435.36 570.409 434.52 570.139 433.78C569.889 433.03 569.679 432.4 569.549 431.95C569.289 431.05 569.319 430.88 569.889 431.99C569.299 429.52 568.799 426.77 568.299 423.84C567.859 420.9 567.479 417.75 567.259 414.46C567.059 411.16 566.999 407.73 567.109 404.21C567.229 400.7 567.539 397.12 568.009 393.54C569.869 379.21 574.719 365.12 579.789 355.41L579.649 355.53C579.749 355.38 579.919 354.87 580.069 354.79C580.389 353.75 581.079 351.91 581.739 350.35C582.379 348.78 582.989 347.49 582.989 347.49L582.999 347.48ZM566.889 395.05C566.889 395.05 566.919 395.08 566.929 395.07C566.859 395.07 566.579 397.88 566.549 397.99L566.319 397.95C566.129 395.03 568.719 388.72 567.129 394.82C567.159 395.04 566.969 395.02 566.879 395.05H566.889ZM566.909 420.13C566.949 420.62 566.999 421.15 567.089 421.73C566.209 418.57 565.839 414.71 565.799 410.79C565.759 406.86 566.059 402.88 566.189 399.29C566.599 400.55 566.599 402.61 566.499 404.74C566.479 405.81 566.409 406.9 566.359 407.91C566.329 408.92 566.299 409.86 566.299 410.63C566.649 413.71 566.639 417.37 566.899 420.12L566.909 420.13ZM583.359 458.24L583.469 458.17L583.609 458.35C583.609 458.35 583.539 458.37 583.499 458.35C583.459 458.34 583.389 458.29 583.369 458.24H583.359ZM580.979 350.34C580.949 350.86 580.059 352.45 580.239 351.2C580.429 350.94 580.659 350.06 580.979 350.34ZM567.979 427.43C568.349 427.35 569.029 429.62 568.509 429.77C568.299 428.98 568.129 428.2 567.979 427.43ZM589.049 334.44C589.019 333.68 589.319 334.08 589.649 334.03C589.519 334.14 589.199 334.62 589.099 334.42L589.039 334.44H589.049ZM594.859 324.84C594.779 324.59 595.039 324 595.199 323.75C595.759 323.2 595.199 324.66 594.859 324.84ZM606.229 310.26C606.079 310.08 606.339 309.71 606.589 309.78C606.679 309.93 606.399 310.41 606.149 310.28C606.159 310.28 606.189 310.28 606.229 310.26ZM570.529 438.31C569.609 437.97 569.419 435.65 568.829 434.6C569.559 434.63 569.799 436.8 570.229 437.62C570.349 437.91 570.449 438.14 570.529 438.32V438.31ZM572.819 366.62C572.229 366.44 573.539 364.28 573.699 363.47L573.919 363.57C573.559 364.74 573.419 365.47 572.839 366.58L572.819 366.63V366.62ZM565.149 416.39C564.869 415.95 565.019 415.14 564.979 414.67C565.319 414.65 565.559 416.66 565.149 416.4V416.39ZM565.549 395.79C565.929 395.73 565.629 396.72 565.639 397.01C565.589 396.8 565.399 396.4 565.429 396.17C565.449 396 565.499 395.97 565.549 395.8V395.79ZM572.749 367.54C572.449 368.43 572.109 369.4 571.789 370.33L571.569 370.23C571.879 369.28 572.189 368.35 572.529 367.44L572.749 367.54ZM569.509 376.6L569.279 376.53C569.439 375.12 570.069 375.14 569.519 376.56V376.59L569.509 376.6ZM577.009 355.89C576.939 356.02 576.829 356.22 576.779 356.35C576.019 358.18 576.329 355.28 577.009 355.89ZM581.209 346.38C581.269 346.19 581.319 345.92 581.419 345.73C582.079 344.49 581.889 346.13 581.209 346.38Z" fill="#BD5B00"/>
</g>
<mask id="mask3_287_73031" style="mask-type:luminance" maskUnits="userSpaceOnUse" x="738" y="-52" width="253" height="294">
<path d="M856.25 241.58H856.38L874.06 241.5H902.37L990.94 240.92L960.11 173.74L860.82 -50.68L738.66 -51.04L758.72 -0.0200386L856.25 241.58Z" fill="white"/>
</mask>
<g mask="url(#mask3_287_73031)">
<path d="M777.941 49.3499C772.521 50.8199 769.971 52.0499 770.061 52.3099C770.161 52.6299 772.891 51.9899 778.281 50.6499C785.941 48.7699 793.921 47.3899 802.661 46.6399C811.391 45.8899 820.881 45.7699 831.371 47.3799C843.251 49.2499 850.381 51.8599 856.451 54.2499C857.971 54.8599 859.401 55.5199 860.831 56.1599C862.231 56.8599 863.661 57.4999 865.081 58.2799C866.501 59.0499 867.971 59.8299 869.481 60.7599C871.031 61.6299 872.541 62.7199 874.201 63.8799C879.801 67.8099 885.191 74.0099 888.941 81.4799C890.741 85.2499 892.201 89.2699 893.261 93.3799C894.251 97.5099 895.011 101.68 895.351 105.78C896.141 113.97 895.911 121.73 895.431 128.08C894.931 134.44 894.291 139.42 893.891 142.2C893.641 143.84 893.441 145.49 893.181 147.14C892.721 150.08 891.901 155.53 890.491 162.68C889.101 169.83 887.161 178.7 884.811 188.55C882.461 198.39 879.721 209.22 876.961 220.34C874.211 231.47 871.461 242.91 869.221 254.01C866.071 269.69 864.551 282.63 864.371 292.93C864.261 303.24 865.431 310.85 866.871 315.9C868.521 321.87 871.131 327.24 874.601 331.58C878.051 335.94 882.311 339.22 886.741 341.56C887.871 342.1 888.951 342.73 890.101 343.17C891.251 343.61 892.381 344.05 893.501 344.48C894.641 344.87 895.801 345.15 896.931 345.49C897.501 345.65 898.061 345.82 898.631 345.96C899.201 346.07 899.781 346.19 900.351 346.3C901.491 346.52 902.621 346.77 903.761 346.96C904.901 347.1 906.031 347.24 907.171 347.38L908.861 347.59C909.421 347.65 909.991 347.66 910.551 347.7C911.681 347.76 912.801 347.83 913.931 347.89C918.871 348 921.331 347.66 921.331 347.42C921.331 347.12 918.871 346.91 913.991 346.69C912.881 346.6 911.771 346.51 910.661 346.43C910.111 346.38 909.551 346.36 908.991 346.29L907.331 346.05C906.221 345.89 905.111 345.73 903.991 345.57C902.881 345.36 901.781 345.1 900.671 344.86C900.111 344.74 899.561 344.62 899.001 344.5C898.451 344.36 897.901 344.17 897.351 344.01C896.251 343.66 895.131 343.37 894.031 342.98C892.951 342.55 891.861 342.11 890.751 341.67C889.651 341.23 888.621 340.61 887.541 340.08C883.311 337.78 879.291 334.63 876.031 330.46C872.751 326.31 870.271 321.18 868.681 315.41C868.391 314.28 868.111 312.98 867.781 311.55C867.501 310.1 867.271 308.48 867.001 306.71C866.631 303.16 866.291 298.99 866.401 294.22C866.481 289.46 866.791 284.13 867.481 278.29C868.171 272.45 869.161 266.1 870.441 259.28C871.271 254.84 872.161 250.4 873.081 246.01C877.021 227.04 882.741 205.47 886.771 188.47C888.801 179.98 890.441 172.63 891.511 167.4C892.071 164.79 892.471 162.7 892.751 161.27C893.031 159.84 893.181 159.07 893.181 159.07C893.181 159.07 893.401 157.91 893.771 155.82C893.951 154.77 894.181 153.5 894.441 152.01C894.681 150.52 894.951 148.83 895.241 146.96C896.371 139.48 897.661 129.1 897.711 117.64C897.741 111.91 897.341 105.92 896.381 99.9799C895.411 94.0499 893.791 88.1699 891.401 82.8399C889.031 77.4999 885.851 72.7599 882.341 68.9399C878.871 65.0599 874.941 62.3399 871.591 60.1299C861.311 53.7899 852.801 50.7899 846.321 48.7899C839.791 46.8999 835.171 46.0499 831.651 45.5199C820.981 43.8799 811.301 44.0599 802.501 44.8999C793.681 45.7499 785.621 47.2699 777.941 49.3299V49.3499Z" fill="#BD5B00"/>
<path d="M764.791 18.7092C757.831 24.6592 758.571 25.4992 765.641 19.7492C770.731 15.7692 775.971 11.6992 781.881 7.61916C787.791 3.52916 794.241 -0.770841 801.821 -5.06084C806.121 -7.49084 809.641 -9.41084 812.731 -10.9308C815.781 -12.5408 818.421 -13.6908 820.851 -14.8408C822.061 -15.4308 823.251 -15.9208 824.441 -16.4108C825.631 -16.9008 826.821 -17.4008 828.041 -17.9108C829.261 -18.4408 830.561 -18.8608 831.921 -19.3708C833.291 -19.8508 834.731 -20.4108 836.321 -20.9308C837.671 -21.3508 839.081 -21.7808 840.531 -22.2408C841.261 -22.4608 842.001 -22.6908 842.751 -22.9308C843.511 -23.1308 844.281 -23.3308 845.061 -23.5308C846.621 -23.9308 848.221 -24.3508 849.841 -24.7708C851.481 -25.1108 853.151 -25.4608 854.841 -25.8208C855.691 -25.9908 856.531 -26.1908 857.391 -26.3308C858.251 -26.4708 859.111 -26.6008 859.971 -26.7408C861.701 -27.0008 863.421 -27.3208 865.151 -27.5308C868.611 -27.9608 872.071 -28.2108 875.421 -28.2208C882.111 -28.2608 888.351 -27.0908 893.001 -25.0508C895.331 -24.0308 897.251 -22.8308 898.801 -21.7408C900.301 -20.5808 901.451 -19.5408 902.211 -18.7308C903.131 -17.7908 903.981 -16.7908 904.781 -15.7408C906.201 -13.8808 908.671 -10.1808 910.341 -4.59084C911.171 -1.81084 911.821 1.41916 911.981 4.95916C912.181 8.50916 911.911 12.3692 911.211 16.3792C909.791 24.4092 906.471 32.9092 902.181 41.1592C897.971 49.4592 892.661 57.4392 886.991 64.6392C878.941 74.7992 871.301 82.0792 865.001 87.4692C858.681 92.8492 853.721 96.4392 850.261 98.8092C842.121 104.449 834.551 108.699 827.431 112.329C820.291 115.939 813.551 118.889 806.771 121.529C803.041 122.969 801.221 123.849 801.311 124.109C801.391 124.359 803.391 123.989 807.191 122.659C814.091 120.199 820.941 117.389 828.191 113.849C835.421 110.289 843.091 106.049 851.331 100.359C854.541 98.1692 859.451 94.7092 865.531 89.6792C871.571 84.6192 878.831 77.9892 886.161 69.1592L887.951 66.9992L889.661 64.7792L891.351 62.5592L892.951 60.2792C897.541 53.7392 901.941 46.3392 905.561 38.7692C909.201 31.2292 911.971 23.4092 913.171 16.2692C913.771 12.6992 914.021 9.31916 913.971 6.29916C913.931 3.26916 913.561 0.599159 913.111 -1.57084C912.681 -3.75084 912.161 -5.45084 911.781 -6.60084C911.371 -7.74084 911.151 -8.36084 911.151 -8.36084C911.151 -8.36084 911.061 -8.59084 910.871 -9.02084C910.681 -9.45084 910.451 -10.1008 910.051 -10.8908C909.311 -12.5008 908.081 -14.7608 906.161 -17.2908C904.251 -19.8008 901.501 -22.4908 897.941 -24.6908C896.141 -25.7408 894.181 -26.7308 892.051 -27.4908C889.921 -28.2308 887.671 -28.8608 885.331 -29.2508C882.991 -29.6408 880.581 -29.8908 878.151 -29.9808C875.711 -30.0508 873.251 -30.0008 870.801 -29.8408C868.351 -29.6708 865.901 -29.4008 863.491 -29.0508C861.091 -28.6508 858.711 -28.2608 856.381 -27.8708C847.071 -26.1308 838.681 -23.5208 832.541 -21.3508C823.291 -18.0408 816.681 -14.9908 811.731 -12.4908C810.491 -11.8708 809.351 -11.3008 808.291 -10.7808C807.251 -10.2208 806.301 -9.70084 805.411 -9.22084C803.651 -8.25084 802.151 -7.49084 800.911 -6.74084C793.261 -2.41084 786.791 1.96916 780.901 6.14916C775.001 10.3292 769.811 14.5092 764.801 18.6392L764.791 18.7092Z" fill="#BD5B00"/>
<path d="M830.39 172.829C828.34 174.309 826.76 175.329 825.76 176.119C824.76 176.899 824.3 177.369 824.38 177.499C824.46 177.629 825.07 177.429 826.21 176.859C827.34 176.269 829.05 175.389 831.14 173.949C843.13 165.959 855.06 156.689 870.16 144.519C878.67 137.559 883.9 133.109 888.44 129.229C892.98 125.339 896.84 122.029 902.49 117.179C907.25 113.069 912.85 108.269 918.6 103.179C921.49 100.649 924.4 98.0191 927.28 95.3891L929.42 93.3991L930.35 92.5391C930.41 92.4891 930.39 92.5291 930.64 92.4991L931.34 92.4591L932.73 92.3691L934.12 92.4191L935.5 92.4691C935.96 92.5291 936.41 92.5891 936.86 92.6491C940.48 93.1291 943.89 94.2191 946.92 95.6091C949.97 96.9891 952.61 98.7091 954.81 100.479C959.29 103.979 961.74 107.759 962.94 109.869L963.9 111.809C964.23 112.459 964.42 113.149 964.69 113.819C964.95 114.409 965.13 115.179 965.36 116.059C965.63 116.939 965.77 117.969 965.95 119.119C966.22 121.419 966.34 124.239 965.86 127.399C965.36 130.549 964.35 134.049 962.52 137.499C960.7 140.939 958.09 144.349 954.66 147.149C954.25 147.519 953.77 147.809 953.32 148.139C952.85 148.449 952.43 148.829 951.92 149.089C950.94 149.649 949.97 150.249 948.9 150.729C946.79 151.719 944.51 152.539 942.17 153.319C937.51 154.909 932.42 156.279 927.86 159.259C925.59 160.739 923.57 162.719 922.08 165.049C920.59 167.379 919.69 170.109 919.39 172.829C919.07 175.559 919.29 178.289 919.71 180.909C920.13 183.539 920.79 186.069 921.47 188.549C923.45 195.529 925.45 201.729 925.82 207.449C925.93 208.869 925.9 210.259 925.82 211.589C925.6 212.909 925.55 214.209 925.17 215.419C924.64 217.889 923.59 220.039 922.57 222.019C920.33 225.889 917.59 228.759 915.08 230.979C912.57 233.219 910.19 234.759 908.27 235.999C899.02 241.759 889.6 244.099 881.15 246.859C872.67 249.549 864.81 252.329 857.91 256.819C856.03 258.059 854.71 259.119 853.91 259.929C853.1 260.719 852.75 261.169 852.84 261.269C852.93 261.369 853.45 261.129 854.38 260.529C855.3 259.909 856.68 259.009 858.55 257.839C865.4 253.639 873.16 251.049 881.65 248.479C885.9 247.189 890.36 245.889 895.02 244.269C899.7 242.669 904.49 240.509 909.26 237.589C910.19 237.019 911.21 236.319 912.35 235.559C913.45 234.729 914.71 233.859 915.96 232.759C918.49 230.599 921.31 227.819 923.71 224.019C924.95 222.149 925.92 219.949 926.77 217.569C926.93 216.959 927.09 216.339 927.26 215.709C927.34 215.399 927.42 215.079 927.51 214.759C927.56 214.439 927.61 214.109 927.66 213.779C927.75 213.119 927.85 212.449 927.94 211.779C927.97 211.099 928.04 210.409 928.03 209.719C928.12 204.129 926.57 198.299 924.83 192.249C923.7 188.299 922.5 184.399 921.82 180.489C921.46 178.379 921.25 176.219 921.36 174.059C921.48 171.909 921.97 169.769 922.87 167.799C923.78 165.829 925.12 164.049 926.74 162.569C928.37 161.089 930.31 159.939 932.34 158.979C936.41 157.059 940.82 155.869 944.99 154.369C947.08 153.619 949.11 152.799 951.03 151.809C951.96 151.249 952.92 150.779 953.77 150.169C954.61 149.539 955.5 149.009 956.25 148.309C959.37 145.709 961.73 142.699 963.45 139.799C965.17 136.899 966.27 134.099 966.91 131.709C967.6 129.329 967.87 127.369 968.01 126.029C968.09 125.359 968.15 124.839 968.14 124.489C968.15 124.139 968.16 123.949 968.16 123.949C968.16 123.949 968.16 123.679 968.18 123.159C968.18 122.899 968.19 122.579 968.2 122.199C968.18 121.819 968.15 121.379 968.12 120.889C968.05 118.919 967.64 116.059 966.45 112.739C965.25 109.419 963.03 105.769 959.84 102.449C956.68 99.0991 952.5 96.1491 947.72 93.9391C947.13 93.6391 946.51 93.3991 945.89 93.1691C945.27 92.9391 944.65 92.6791 944.01 92.4591C942.72 92.0891 941.44 91.6291 940.09 91.3991C937.43 90.7691 934.65 90.5491 931.87 90.6691L930.83 90.7391L930.29 90.7791L929.88 90.8091L929.66 90.8291C929.6 90.8591 929.55 90.9191 929.5 90.9691L927.87 92.4991C926.89 93.4191 925.91 94.3291 924.93 95.2391C922.95 97.0291 921 98.8391 919.05 100.559C911.29 107.509 903.98 113.799 898.52 118.459C882.06 132.499 873.94 139.019 868.99 143.069C853.92 155.229 842.12 164.619 830.39 172.829Z" fill="#BD5B00"/>
<path d="M750.33 -22.4702C746.76 -20.0102 745.18 -18.4902 745.35 -18.2502C745.54 -17.9902 747.47 -19.0002 751.07 -21.3402C756.2 -24.6402 761.66 -27.7102 767.73 -30.7202C773.81 -33.7102 780.54 -36.6102 788.33 -39.2402C797.16 -42.2302 802.86 -43.5002 807.81 -44.5802C809.05 -44.8302 810.25 -45.0702 811.44 -45.3102C812.64 -45.5002 813.84 -45.7002 815.08 -45.9002C815.7 -46.0002 816.33 -46.0902 816.97 -46.2002C817.62 -46.2802 818.28 -46.3502 818.96 -46.4302C820.33 -46.5702 821.77 -46.7902 823.34 -46.8902C828.65 -47.3202 834.96 -47.8002 841.3 -46.7202C844.45 -46.1702 847.61 -45.2102 850.39 -43.6002C853.19 -42.0302 855.66 -39.9302 857.66 -37.5402C861.7 -32.7602 864.03 -27.2002 865.41 -22.5602C866.09 -20.2302 866.61 -18.1102 866.87 -16.2902C867.02 -15.3902 867.15 -14.5702 867.27 -13.8402C867.38 -13.1102 867.41 -12.4702 867.47 -11.9402C867.58 -10.6802 867.75 -9.42024 867.76 -8.15024C867.79 -7.02024 867.92 -5.40024 867.8 -3.38024C867.76 -2.37024 867.77 -1.25024 867.62 -0.0502434C867.56 0.549757 867.5 1.17976 867.44 1.81976C867.41 2.13976 867.38 2.46976 867.34 2.80976C867.28 3.13976 867.23 3.47976 867.17 3.81976C866.91 5.17976 866.76 6.64976 866.35 8.13976C866.17 8.88976 865.98 9.65976 865.79 10.4498C865.6 11.2398 865.31 12.0098 865.06 12.8198C864.09 16.0498 862.58 19.3898 860.71 22.7298C860.21 23.5498 859.7 24.3698 859.19 25.2098C858.64 26.0198 858.02 26.7998 857.44 27.6098C857.13 27.9998 856.86 28.4298 856.52 28.7998C856.18 29.1698 855.84 29.5498 855.5 29.9298C854.81 30.6698 854.17 31.4898 853.37 32.1498C850.45 35.0898 846.79 37.3998 842.93 39.2598C839 40.9598 834.65 41.8998 830.35 41.7898C826.06 41.6598 821.82 40.3698 818.57 37.8298C817.42 36.9498 816.42 35.9098 815.55 34.8398C814.7 33.7398 813.98 32.5698 813.37 31.3898C812.2 28.9898 811.43 26.5198 810.98 24.1198C810.51 21.7198 810.3 19.3998 810.21 17.2098C810.2 16.6598 810.18 16.1198 810.17 15.5898C810.18 15.0498 810.19 14.5298 810.2 14.0098C810.22 12.9698 810.24 11.9698 810.27 10.9898C810.76 3.20976 812.08 -2.42024 813.15 -6.20024C813.41 -7.33024 813.83 -8.41024 814.15 -9.48024C814.49 -10.5502 814.82 -11.6202 815.23 -12.6302C815.62 -13.6502 816 -14.6602 816.37 -15.6602C816.79 -16.6402 817.21 -17.6002 817.63 -18.5502C817.84 -19.0202 818.04 -19.5002 818.25 -19.9602C818.48 -20.4202 818.7 -20.8702 818.93 -21.3202C819.38 -22.2202 819.82 -23.1202 820.26 -24.0002C821.22 -25.7102 822.11 -27.4202 823.1 -29.0202C827 -35.4602 831.23 -40.9802 835.87 -46.0302C838.45 -48.7802 839.65 -50.2502 839.45 -50.4702C839.28 -50.6502 837.69 -49.5602 834.99 -46.8602C830.14 -41.8902 825.72 -36.4002 821.65 -29.9002C820.62 -28.2902 819.69 -26.5602 818.69 -24.8302C818.24 -23.9402 817.78 -23.0302 817.31 -22.1202C817.08 -21.6602 816.84 -21.2002 816.61 -20.7402C816.4 -20.2602 816.19 -19.7902 815.97 -19.3002C815.54 -18.3402 815.11 -17.3602 814.67 -16.3602C814.28 -15.3502 813.89 -14.3202 813.49 -13.2802C813.07 -12.2402 812.73 -11.1602 812.38 -10.0602C812.05 -8.96024 811.62 -7.86024 811.35 -6.70024C810.35 -3.15024 808.95 2.40976 808.34 9.90976C808.23 10.8398 808.22 11.8098 808.19 12.8098C808.16 13.8098 808.12 14.8298 808.11 15.8798C808.12 17.9898 808.24 20.2198 808.56 22.5398C808.89 24.8598 809.39 27.2898 810.29 29.7198C811.2 32.1398 812.44 34.6198 814.31 36.7898C815.51 38.2098 816.91 39.4798 818.48 40.4698C819.24 41.0198 820.09 41.3898 820.9 41.8298C821.76 42.1698 822.59 42.5698 823.48 42.7998C825.36 43.3998 827.35 43.7298 829.36 43.8298C831.37 43.9498 833.41 43.8398 835.41 43.5198C837.42 43.1998 839.41 42.7298 841.33 42.0298C843.24 41.3298 845.14 40.5298 846.84 39.4398C850.4 37.5198 853.44 34.8798 856.1 32.1398C856.74 31.4298 857.37 30.7198 858 30.0298C858.6 29.3098 859.12 28.5398 859.67 27.8198C860.82 26.3898 861.64 24.8098 862.57 23.3698C865.97 17.3898 867.59 11.6398 868.49 7.56976C868.87 5.51976 869.17 3.87976 869.32 2.74976C869.44 1.61976 869.5 0.99976 869.5 0.99976C869.5 0.99976 869.52 0.76976 869.57 0.33976C869.6 -0.10024 869.71 -0.740244 869.73 -1.57024C869.76 -2.40024 869.79 -3.41024 869.83 -4.59024C869.89 -5.77024 869.78 -7.11024 869.75 -8.58024C869.47 -14.4602 868.18 -22.6802 864.19 -30.7502C862.2 -34.7602 859.46 -38.6902 855.87 -41.8102C854.07 -43.3602 852.07 -44.6802 849.95 -45.7302C847.82 -46.7502 845.59 -47.4902 843.36 -47.9802C838.89 -48.9402 834.51 -49.0402 830.54 -48.9202C828.55 -48.8702 826.67 -48.7202 824.89 -48.5802C824 -48.5102 823.14 -48.4502 822.31 -48.3902C821.48 -48.3002 820.68 -48.2102 819.91 -48.1202C810.67 -47.0802 803.94 -45.5502 798.86 -44.2702C797.59 -43.9302 796.42 -43.6202 795.34 -43.3302C794.26 -43.0402 793.28 -42.7102 792.37 -42.4402C790.55 -41.8902 789.03 -41.4302 787.74 -40.9602C779.86 -38.2902 773.07 -35.3202 766.96 -32.2102C760.86 -29.0902 755.41 -25.8802 750.34 -22.4102L750.33 -22.4702Z" fill="#BD5B00"/>
<path d="M744.65 -55.1405C741.18 -53.8905 739.6 -52.8805 739.71 -52.6205C739.84 -52.3105 741.63 -52.7405 745.08 -53.8605C749.99 -55.4205 755.14 -56.6505 760.81 -57.4305C766.48 -58.1905 772.67 -58.5005 779.57 -57.8805C787.39 -57.1605 792.15 -55.8305 796.21 -54.5305C800.27 -53.2105 803.64 -51.7605 808.22 -49.0605C812.07 -46.7505 816.32 -43.5705 820.19 -39.6605C824.08 -35.7805 827.65 -31.2805 830.43 -26.6805C833.25 -22.1005 835.37 -17.5105 836.8 -13.6205C838.22 -9.72049 839.09 -6.57049 839.48 -4.79049C839.74 -3.74049 839.99 -2.69049 840.2 -1.63049C840.64 0.249511 841.28 3.76952 841.71 8.47952C842.14 13.1895 842.25 19.0995 841.58 25.6395C840.39 38.7395 835.49 54.1495 828.05 66.8095C822.89 75.8095 817.54 82.3595 813.11 87.2895C810.93 89.7995 808.84 91.7895 807.09 93.5295C806.65 93.9695 806.23 94.3795 805.83 94.7795C805.41 95.1595 805 95.5195 804.62 95.8595C803.85 96.5495 803.15 97.1695 802.52 97.7295C801.77 98.3795 801.07 99.0595 800.32 99.6595C799.57 100.26 798.83 100.85 798.11 101.44C796.65 102.6 795.28 103.78 793.83 104.78C792.41 105.82 791.02 106.82 789.67 107.81C788.27 108.73 786.9 109.62 785.57 110.5C784.9 110.93 784.25 111.39 783.57 111.79C782.89 112.19 782.22 112.58 781.56 112.97C780.23 113.75 778.92 114.52 777.63 115.27C776.3 115.97 774.99 116.66 773.69 117.34C773.04 117.68 772.39 118.03 771.74 118.37L769.76 119.29C763.96 121.99 764.3 122.9 770.26 120.39L772.29 119.53C772.95 119.21 773.62 118.88 774.29 118.56C775.63 117.91 776.97 117.25 778.33 116.59C779.67 115.88 781 115.11 782.36 114.36C783.04 113.98 783.73 113.59 784.42 113.21C785.11 112.81 785.77 112.37 786.46 111.94C787.83 111.07 789.23 110.19 790.66 109.28C792.04 108.3 793.46 107.29 794.91 106.26C796.39 105.26 797.79 104.07 799.28 102.9C800.02 102.31 800.77 101.71 801.53 101.1C802.29 100.49 803.01 99.8095 803.76 99.1495C806.11 97.0995 809.73 93.9095 814.05 89.2695C818.42 84.6895 823.44 78.5695 828.28 70.7195C828.67 70.0795 829.1 69.4595 829.46 68.7995L830.54 66.8195C831.25 65.4995 831.97 64.1895 832.66 62.8695C835.42 57.0595 838.04 50.6595 839.9 44.1795C841.79 37.7095 842.97 31.2195 843.51 25.4695C844.08 19.7195 844.05 14.7395 843.86 11.2195C843.68 7.69951 843.41 5.62951 843.41 5.62951C843.41 5.62951 843.31 4.85951 843.14 3.46951C842.92 2.07951 842.64 0.0695128 842.11 -2.37049C841.1 -7.26049 839.16 -13.9305 835.82 -20.7005C832.55 -27.5105 827.78 -34.3005 822.45 -39.7805C817.14 -45.2905 811.25 -49.3705 806.62 -51.8705C799.59 -55.6005 793.87 -57.2205 789.53 -58.2305C788.44 -58.4605 787.43 -58.6805 786.49 -58.8705C785.55 -59.0105 784.68 -59.1505 783.88 -59.2705C782.28 -59.5505 780.93 -59.6305 779.76 -59.7505C772.69 -60.3805 766.35 -60.0105 760.59 -59.1505C754.82 -58.2705 749.61 -56.8905 744.68 -55.1505L744.65 -55.1405Z" fill="#BD5B00"/>
</g>
<mask id="mask4_287_73031" style="mask-type:luminance" maskUnits="userSpaceOnUse" x="-11" y="405" width="237" height="223">
<path d="M158.71 405.99H69.2402H-10.7598V627.24H210.96L225.31 405.99H212.39H158.71Z" fill="white"/>
</mask>
<g mask="url(#mask4_287_73031)">
<path d="M-27.9591 530.48C-24.2291 533.56 -20.7691 536.01 -17.7391 537.98C-14.6691 539.92 -12.0391 541.4 -9.88913 542.49C-8.80913 543.02 -7.85913 543.48 -7.03913 543.87C-6.20913 544.22 -5.50913 544.51 -4.94913 544.74C-3.82913 545.19 -3.25913 545.38 -3.21913 545.3C-3.18913 545.23 -3.69913 544.9 -4.74913 544.32C-5.27913 544.04 -5.93913 543.69 -6.72913 543.26C-7.50913 542.82 -8.41913 542.3 -9.46913 541.71C-11.5491 540.52 -14.0991 538.96 -17.0791 536.98C-20.0391 534.95 -23.4191 532.48 -27.0891 529.42C-32.2691 525.05 -37.1691 520.27 -41.6791 515.06C-46.1891 509.86 -50.4891 504.33 -54.2791 498.4C-56.1591 495.43 -57.9491 492.36 -59.4891 489.15C-61.0391 485.95 -62.4591 482.64 -63.4991 479.19C-64.5491 475.75 -65.4191 472.2 -65.7091 468.56C-66.0291 464.93 -65.9191 461.24 -65.2491 457.6C-65.0391 456.7 -64.8291 455.8 -64.6191 454.9C-64.3691 454.01 -64.0291 453.14 -63.7391 452.25C-63.1191 450.49 -62.2991 448.8 -61.3691 447.16C-59.4991 443.89 -57.0791 440.88 -54.2591 438.23C-48.5991 432.91 -41.5491 428.89 -33.9391 425.86C-18.6291 419.86 -1.21913 417.19 17.0609 417.69C27.4309 417.96 36.7909 419.2 45.2709 420.8C53.7509 422.4 61.3609 424.4 68.3209 426.45C82.2409 430.63 93.5809 435.08 104.051 439.42C114.511 443.8 124.111 448.05 134.131 453.03C144.121 458.04 154.601 463.72 166.151 471.8C175.901 478.61 185.881 486.96 194.841 497.16C199.331 502.24 203.531 507.8 207.241 513.79C210.971 519.77 214.221 526.21 216.691 533C219.111 539.8 220.771 546.98 221.111 554.27C221.431 561.54 220.501 568.95 217.681 575.66C217.511 576.08 217.361 576.51 217.161 576.92L216.561 578.14C216.141 578.94 215.791 579.78 215.321 580.55L213.901 582.87C213.451 583.66 212.851 584.34 212.341 585.09C211.321 586.59 210.051 587.89 208.891 589.26C207.591 590.51 206.371 591.84 204.961 592.96C199.521 597.69 193.121 601.11 186.531 603.58C173.231 608.45 159.111 608.52 146.421 606.35C140.041 605.31 133.961 603.73 128.211 601.94C122.451 600.15 117.011 598.15 111.901 596.13C101.681 592.04 92.7109 587.99 85.2809 584.32C81.6009 582.42 78.2309 580.75 75.3409 579.11C73.8809 578.31 72.5209 577.56 71.2609 576.86C70.0209 576.13 68.8809 575.45 67.8409 574.83L64.1509 572.64L60.5309 570.33C59.3309 569.55 58.1009 568.81 56.9209 568L53.3809 565.56C49.1509 562.68 43.2909 558.32 36.4209 552.33C29.5709 546.32 21.7709 538.52 14.4009 528.44C13.4909 527.18 12.5609 525.89 11.6209 524.59C10.7609 523.24 9.88087 521.86 9.00087 520.47C7.19087 517.7 5.49087 514.77 4.00087 511.66C2.50087 508.55 1.22087 505.25 0.370872 501.78C-0.449127 498.31 -0.829127 494.65 -0.339127 491C0.0908734 487.35 1.48087 483.79 3.58087 480.58C5.69087 477.38 8.52087 474.57 11.7709 472.26C15.0409 469.97 18.7609 468.23 22.7309 467.03C26.7009 465.84 30.9009 465.17 35.1809 464.89C39.4709 464.62 43.8509 464.7 48.2609 465.07C50.4709 465.19 52.6809 465.51 54.9009 465.74C57.1109 466.09 59.3509 466.36 61.5609 466.82C70.4609 468.46 79.3509 471.15 88.0309 474.71C92.3709 476.49 96.6409 478.54 100.851 480.74C105.051 482.98 109.161 485.44 113.201 488.07C117.211 490.73 121.121 493.6 124.941 496.61C128.741 499.65 132.411 502.88 135.991 506.23C150.221 519.72 162.461 535.68 172.401 552.77C174.811 557.06 176.861 561.54 178.061 566.23C179.251 570.9 179.511 575.82 178.481 580.47C177.491 585.11 175.061 589.39 171.411 592.34C167.781 595.31 163.231 597.07 158.591 597.73C151.991 598.69 145.401 597.21 139.501 594.76C133.571 592.28 128.221 588.85 123.231 585.23C113.271 577.95 105.001 569.49 98.2509 560.69C91.5009 551.88 86.2409 542.7 82.3009 533.65C78.3909 524.59 76.1409 515.49 75.2109 506.85C74.2809 498.2 74.6609 490.02 75.9209 482.58C76.3309 480.76 76.6209 478.94 77.2309 477.24C77.5209 476.39 77.7109 475.51 78.0809 474.71C78.4209 473.9 78.7609 473.09 79.0909 472.29C80.5809 469.18 82.2709 466.29 84.3109 463.82C88.2709 458.79 92.9409 455.06 97.4609 452.14C101.991 449.2 106.421 447.07 110.451 445.33C119.991 441.21 129.761 438.46 139.311 436.18C148.871 433.93 158.271 432.2 167.441 430.67C185.791 427.62 203.271 425.3 219.951 422.3C228.291 420.78 236.431 419.1 244.351 417.03C248.301 415.94 252.211 414.84 256.011 413.49C257.931 412.87 259.791 412.09 261.671 411.39C263.511 410.59 265.381 409.86 267.161 408.95C268.981 408.12 270.711 407.13 272.461 406.17C274.151 405.11 275.861 404.1 277.451 402.89C280.651 400.54 283.631 397.86 286.051 394.7C290.911 388.4 293.261 380.35 292.831 372.55C292.821 372.01 292.801 371.49 292.791 370.97C292.731 370.45 292.671 369.95 292.621 369.45C292.501 368.45 292.411 367.49 292.261 366.56C292.081 365.64 291.901 364.76 291.731 363.91C291.561 363.06 291.401 362.24 291.161 361.48C290.711 359.95 290.361 358.52 289.921 357.27C289.471 356.02 289.061 354.9 288.691 353.9C287.941 351.91 287.211 350.49 286.781 349.53C286.321 348.57 286.061 348.11 286.001 348.14C285.851 348.2 286.591 350.19 287.981 354.16C288.301 355.16 288.651 356.29 289.051 357.55C289.441 358.8 289.741 360.22 290.151 361.74C290.371 362.5 290.511 363.3 290.661 364.14C290.811 364.98 290.971 365.85 291.141 366.75C291.271 367.66 291.341 368.6 291.451 369.57C291.501 370.06 291.551 370.55 291.611 371.06C291.611 371.57 291.631 372.08 291.641 372.6C292.001 380.2 289.691 387.86 285.001 393.89C282.661 396.91 279.761 399.49 276.641 401.76C275.101 402.93 273.421 403.91 271.761 404.93C270.041 405.85 268.341 406.82 266.551 407.63C264.791 408.51 262.951 409.22 261.131 410.01C259.271 410.69 257.431 411.45 255.531 412.06C251.761 413.38 247.881 414.45 243.961 415.52C236.091 417.55 227.991 419.19 219.671 420.68C203.031 423.62 185.561 425.9 167.161 428.92C157.961 430.44 148.531 432.16 138.901 434.42C129.291 436.71 119.431 439.47 109.731 443.66C105.961 445.27 101.751 447.31 97.3209 450.08C92.9109 452.85 88.2409 456.38 84.0509 461.15C82.0409 463.6 80.0209 466.24 78.4609 469.32C77.5909 470.81 76.9609 472.45 76.2609 474.1C75.8909 474.92 75.6909 475.8 75.4009 476.66C75.1409 477.53 74.8109 478.39 74.6509 479.31C73.7609 482.93 73.3109 486.68 72.9809 490.59C72.6709 494.5 72.6109 498.56 72.8709 502.72C73.3609 511.05 75.0209 519.82 78.1209 528.63C79.6609 533.04 81.6209 537.42 83.8309 541.77C86.0409 546.14 88.5709 550.47 91.4009 554.75C97.0609 563.3 103.971 571.62 112.271 579.15C116.421 582.9 120.921 586.45 125.761 589.7C130.591 592.95 135.831 595.93 141.631 597.96C145.411 599.27 149.381 600.11 153.421 600.26C157.461 600.37 161.531 599.74 165.341 598.34C169.131 596.91 172.681 594.67 175.381 591.57C178.101 588.48 179.841 584.64 180.641 580.7C181.521 576.43 181.401 571.99 180.541 567.71C179.671 563.42 178.061 559.31 176.111 555.41C174.151 551.5 171.871 547.77 169.501 544.11C167.161 540.42 164.661 536.81 162.091 533.23C151.771 518.96 139.541 505.77 125.731 494.81C111.911 483.88 96.4609 475.3 80.5409 469.91C72.6009 467.16 64.5409 465.28 56.5909 464.12C48.6409 462.99 40.7809 462.53 33.2009 463.19C25.6409 463.86 18.3309 465.87 12.2909 469.67C6.29087 473.43 1.58087 478.8 -0.74913 484.85C-1.89913 487.88 -2.43913 491.02 -2.47913 494.04C-2.50913 497.07 -2.06913 499.97 -1.38913 502.68C-0.00912964 508.1 2.24087 512.76 4.48087 516.81C9.17087 524.78 13.4409 530.77 16.6609 534.64C18.2609 536.58 19.4309 538.13 20.3409 539.09C21.2209 540.06 21.6809 540.57 21.6809 540.57C21.6809 540.57 22.3609 541.32 23.6609 542.75C24.9209 544.22 26.9809 546.19 29.5809 548.78C34.8609 553.85 42.8609 560.86 53.6309 568.22C64.3609 575.64 77.9009 583.28 93.4709 590.41C95.4309 591.28 97.4009 592.17 99.4009 593.06C101.421 593.91 103.461 594.77 105.521 595.64C109.651 597.37 113.911 599.03 118.281 600.63C127.021 603.79 136.291 606.58 146.041 608.2C155.761 609.79 166.011 610.22 176.121 608.32C186.171 606.42 196.021 602.33 204.231 595.89C208.321 592.68 211.981 588.87 214.901 584.54C217.831 580.22 219.981 575.38 221.241 570.36C222.521 565.34 222.991 560.16 222.821 555.06C222.631 549.96 221.811 544.93 220.571 540.08C219.321 535.23 217.641 530.55 215.641 526.08C213.621 521.63 211.331 517.37 208.831 513.32C206.351 509.27 203.641 505.43 200.791 501.83C197.941 498.23 194.991 494.81 191.931 491.64C179.701 478.88 166.411 469.58 154.711 462.48C145.861 457.16 137.291 452.71 129.151 448.81C121.011 444.91 113.321 441.53 106.101 438.46C91.6609 432.32 78.9809 427.76 67.8109 424.45C45.4409 417.84 29.2809 416.21 17.0909 415.84C-1.40913 415.34 -19.0591 418.05 -34.6391 424.18C-42.3991 427.29 -49.6391 431.41 -55.5091 436.95C-58.4291 439.72 -60.9591 442.87 -62.9191 446.31C-63.8891 448.03 -64.7491 449.82 -65.3891 451.67C-65.6891 452.6 -66.0391 453.52 -66.3091 454.45C-66.5291 455.4 -66.7491 456.35 -66.9691 457.29C-67.6691 461.11 -67.7691 464.97 -67.4191 468.74C-67.0991 472.52 -66.1891 476.17 -65.0991 479.71C-64.0091 483.25 -62.5491 486.63 -60.9591 489.89C-59.3791 493.16 -57.5391 496.26 -55.6191 499.28C-51.7391 505.29 -47.3891 510.82 -42.7991 516.06C-38.2091 521.3 -33.2291 526.1 -27.9691 530.49L-27.9591 530.48Z" fill="#BD5B00"/>
<path d="M108 641.82C107.56 639.59 106.72 637.8 105.91 636.35C105.09 634.9 104.26 633.8 103.57 632.94C102.17 631.24 101.32 630.54 101.21 630.63C101.08 630.74 101.7 631.64 102.87 633.44C103.44 634.35 104.16 635.48 104.87 636.9C105.57 638.32 106.3 640.03 106.67 642.05C107.21 644.92 106.61 647.94 104.84 650.27C103.08 652.6 100.4 654.27 97.4802 655.12C94.5702 655.98 91.3502 655.96 88.1902 655.47C85.0102 654.98 81.8102 654.03 78.5702 652.97C72.0702 650.89 65.4302 648.37 58.6902 645.2C51.9802 641.99 45.1602 638.13 38.6002 633.14C34.8802 630.32 31.7002 627.52 28.9502 624.79C26.2402 622.03 23.9302 619.36 21.9702 616.77C18.0402 611.58 15.3802 606.78 13.3002 602.17C11.2402 597.54 9.79022 593.05 8.83022 588.14C7.90022 583.24 7.45022 577.88 8.09022 571.61C8.41022 568.97 8.91022 566.23 9.65022 563.45C10.4202 560.68 11.4102 557.88 12.6402 555.1C15.1502 549.56 18.5702 544.09 22.9102 539.23C31.5002 529.39 43.6202 522.29 55.8302 518.61C61.9302 516.73 68.0502 515.59 73.8602 515.17C79.6602 514.6 85.1402 514.83 90.0602 515.22C99.9002 516.17 107.42 518.33 111.55 519.63C112.78 519.99 113.98 520.47 115.19 520.89C116.4 521.34 117.63 521.71 118.81 522.23C119.87 522.67 121.16 523.2 122.66 523.82C124.15 524.45 125.8 525.3 127.66 526.16C129.52 527.04 131.47 528.19 133.63 529.34C134.69 529.95 135.77 530.64 136.89 531.32C138.02 532.01 139.19 532.71 140.33 533.53C141.49 534.33 142.69 535.15 143.92 535.99C145.1 536.9 146.32 537.83 147.57 538.78C148.84 539.7 150.03 540.8 151.29 541.85C151.92 542.38 152.55 542.92 153.19 543.47C153.8 544.05 154.42 544.63 155.04 545.22C160.08 549.87 165.11 555.38 169.39 561.86C173.64 568.33 177.04 575.95 178.04 584.27C178.31 586.34 178.4 588.45 178.35 590.56C178.3 592.67 178.1 594.79 177.68 596.88C177.27 598.97 176.7 601.04 175.9 603.04C175.1 605.03 174.11 606.95 172.93 608.77C168.21 616.07 160.73 621.53 152.54 624.72C144.3 627.96 135.38 629.09 126.69 629.23C123.61 629.33 120.61 629.09 117.68 628.97C116.95 628.94 116.22 628.9 115.5 628.87C114.78 628.84 114.06 628.81 113.35 628.7C111.93 628.53 110.53 628.36 109.14 628.19C107.76 628.02 106.39 627.86 105.04 627.7C103.71 627.44 102.39 627.19 101.09 626.94C98.5002 626.41 95.9402 626.03 93.5302 625.3C91.1102 624.64 88.7402 624.04 86.4702 623.38C84.2302 622.61 82.0502 621.86 79.9302 621.14C77.7902 620.48 75.8302 619.53 73.8802 618.74C72.9102 618.33 71.9602 617.93 71.0202 617.54C70.0802 617.15 69.1502 616.76 68.2802 616.3C66.5202 615.42 64.8102 614.56 63.1702 613.73C62.3502 613.31 61.5302 612.93 60.7502 612.49C59.9802 612.04 59.2302 611.6 58.4902 611.16C55.5402 609.41 52.7502 607.88 50.3702 606.15C49.1602 605.32 47.9902 604.53 46.8802 603.78C46.3202 603.4 45.7802 603.03 45.2502 602.67C44.7402 602.27 44.2502 601.89 43.7602 601.51C41.8302 600 40.0802 598.63 38.5102 597.41C36.6902 595.92 35.0102 594.32 33.3002 592.82C32.4502 592.06 31.6002 591.32 30.7802 590.55C30.0002 589.75 29.2202 588.95 28.4402 588.16C26.9102 586.56 25.3302 585.06 23.9102 583.45C22.5202 581.82 21.1402 580.2 19.7902 578.61C18.3802 577.06 17.2102 575.36 15.9902 573.73C14.8002 572.08 13.5502 570.51 12.4502 568.86C11.3902 567.18 10.3402 565.53 9.30022 563.89C8.78022 563.07 8.27022 562.25 7.76022 561.44C7.31022 560.6 6.86022 559.75 6.41022 558.92C2.74022 552.31 -0.659784 545.68 -1.36978 538.74C-1.72978 535.29 -1.18978 531.85 0.0102155 528.67C1.24022 525.49 3.09022 522.58 5.31022 519.99C7.75022 517.14 9.92022 515.29 11.3302 514.04C12.7602 512.79 13.4902 512.17 13.4002 512.05C13.3302 511.95 12.4502 512.35 10.8602 513.44C9.29022 514.54 6.97022 516.3 4.40022 519.2C2.07022 521.84 0.0902157 524.84 -1.24978 528.18C-1.91978 529.85 -2.37978 531.61 -2.67978 533.4C-2.93978 535.2 -3.01978 537.04 -2.84978 538.87C-2.53978 542.54 -1.45978 546.11 -0.0697844 549.56C0.640216 551.28 1.39022 553 2.26022 554.67C3.14022 556.34 4.03022 558.02 4.92022 559.72C5.37022 560.57 5.82022 561.43 6.27022 562.29C6.77022 563.12 7.30022 563.94 7.82022 564.78C8.86022 566.45 9.92022 568.13 10.9902 569.84C12.1002 571.52 13.3602 573.12 14.5602 574.8C15.7902 576.46 16.9702 578.18 18.3902 579.76C19.7602 581.38 21.1502 583.01 22.5502 584.68C23.9902 586.31 25.5902 587.84 27.1302 589.46C27.9102 590.26 28.7002 591.07 29.4902 591.89C30.3202 592.67 31.1802 593.42 32.0402 594.2C33.7802 595.72 35.4702 597.35 37.3202 598.86C43.0702 603.5 52.1802 610.53 65.6602 617.24C66.5002 617.67 67.3502 618.1 68.2102 618.53C69.0802 618.96 70.0002 619.31 70.9102 619.71C72.7402 620.49 74.6202 621.29 76.5602 622.12C78.5102 622.91 80.5702 623.55 82.6502 624.29C83.6902 624.65 84.7502 625.02 85.8202 625.39C86.9002 625.74 88.0102 626 89.1302 626.32C98.0102 628.99 108.07 630.7 118.98 631.23C120.76 631.3 122.54 631.43 124.32 631.44C126.1 631.45 127.88 631.4 129.66 631.33C133.22 631.16 136.76 630.82 140.26 630.22C147.79 628.94 155.55 626.43 162.33 621.95C165.71 619.73 168.83 617.05 171.5 613.96C174.15 610.85 176.33 607.32 177.79 603.51C180.74 595.88 180.86 587.56 179.26 580.08C177.68 572.54 174.33 565.82 170.51 560.13C166.67 554.43 162.39 549.67 158.31 545.69C156.24 543.73 154.32 541.85 152.39 540.28C151.44 539.48 150.54 538.68 149.65 537.96C148.74 537.26 147.87 536.59 147.04 535.95C146.21 535.32 145.44 534.69 144.67 534.16C143.9 533.63 143.18 533.13 142.5 532.66C141.15 531.74 140.01 530.91 139.03 530.34C137.09 529.14 136.04 528.5 136.04 528.5C136.04 528.5 135.65 528.26 134.9 527.8C134.13 527.38 133 526.76 131.54 525.96C130.81 525.57 130.01 525.1 129.1 524.66C128.19 524.22 127.2 523.75 126.14 523.24C124.04 522.16 121.53 521.22 118.81 520.06C113.28 517.97 106.55 515.84 98.8702 514.48C91.2102 513.11 82.6102 512.53 73.7002 513.33C64.7902 514.04 55.6002 516.25 47.0002 519.98C38.3902 523.67 30.4502 529.01 24.0802 535.49C17.7302 541.98 12.9802 549.51 10.0602 557C8.59022 560.74 7.57022 564.47 6.95022 568.04C6.65022 569.83 6.41022 571.57 6.31022 573.27C6.26022 574.12 6.15022 574.95 6.16022 575.76C6.16022 576.58 6.15022 577.38 6.14022 578.16C6.20022 582.88 6.84022 587.27 7.78022 591.28C8.70022 595.3 10.0102 598.93 11.4102 602.23C12.7802 605.55 14.4102 608.45 15.9402 611.14C17.5602 613.77 19.1602 616.15 20.7802 618.25C24.0002 622.47 27.1102 625.72 29.9102 628.35C32.7402 630.94 35.2002 633.02 37.4302 634.66C44.1202 639.74 51.0602 643.65 57.8702 646.88C64.7002 650.08 71.4302 652.59 78.0102 654.65C81.2902 655.69 84.5602 656.65 87.9102 657.14C91.2502 657.62 94.6802 657.63 97.9002 656.65C101.09 655.69 104.01 653.84 105.99 651.17C106.96 649.83 107.66 648.29 107.98 646.68C108.31 645.07 108.28 643.41 107.98 641.84L108 641.82Z" fill="#BD5B00"/>
</g>
</g>
</g>
<defs>
<clipPath id="clip0_287_73031">
<rect width="960.07" height="540.03" fill="white"/>
</clipPath>
</defs>
</svg>
