<svg width="96" height="96" viewBox="0 0 96 96" fill="none" xmlns="http://www.w3.org/2000/svg">
<path d="M48 34.7393V66.4893H20V55.7293C21.21 56.8193 22.81 57.4693 24.56 57.4693C28.35 57.4693 31.41 54.3993 31.41 50.6193C31.41 46.8393 28.34 43.7693 24.56 43.7693C22.81 43.7693 21.21 44.4193 20 45.5093V34.7493H48V34.7393Z" fill="#BF63F3"/>
<path d="M75.79 34.7393H48V66.4993H75.79V34.7393Z" fill="#1868DB"/>
<path d="M52.55 57.469C56.33 57.469 59.4 54.399 59.4 50.619C59.4 46.839 56.33 43.769 52.55 43.769C48.77 43.769 45.7 46.839 45.7 50.619C45.7 54.399 48.77 57.469 52.55 57.469Z" fill="#BF63F3"/>
<path d="M34 36.7391C37.78 36.7391 40.85 33.6691 40.85 29.8891C40.85 26.1091 37.78 23.0391 34 23.0391C30.22 23.0391 27.15 26.1091 27.15 29.8891C27.15 33.6691 30.22 36.7391 34 36.7391Z" fill="#BF63F3"/>
<path d="M61.89 78.199C65.67 78.199 68.74 75.129 68.74 71.349C68.74 67.569 65.67 64.499 61.89 64.499C58.11 64.499 55.04 67.569 55.04 71.349C55.04 75.129 58.11 78.199 61.89 78.199Z" fill="#1868DB"/>
<path d="M69.0501 24.8789C70.5401 24.7689 70.6201 23.6489 69.0801 23.5289C66.9001 23.3089 64.5901 23.3189 61.6501 23.7189C58.3301 24.2489 57.6101 24.7889 55.4001 25.2789C54.4901 25.5589 53.4201 25.8889 52.3101 26.2289C51.1901 26.5489 50.0801 27.0489 49.0001 27.4189C47.9101 27.7789 46.9601 28.2889 46.1501 28.6389C45.3501 29.0089 44.6901 29.2689 44.3601 29.4689C44.1601 29.5789 43.9601 29.6989 43.7601 29.8189C42.3201 30.6189 36.2401 34.6689 32.0501 39.3389C31.3201 40.1689 30.6401 40.8889 30.0701 41.5889C29.5301 42.2989 29.0401 42.9389 28.6101 43.4989C27.7201 44.5989 27.2301 45.5189 26.8201 46.1089C25.8701 47.4989 25.2401 48.8389 24.6401 50.0589C24.4901 50.3689 24.3501 50.6589 24.2101 50.9589C24.1001 51.2689 23.9801 51.5689 23.8701 51.8689C23.6601 52.4689 23.4601 53.0489 23.2501 53.6389C22.8201 54.9189 23.7301 55.2489 24.3601 54.0989C24.6401 53.5689 24.9201 53.0389 25.2101 52.4989C25.3501 52.2289 25.4901 51.9489 25.6301 51.6689C25.7901 51.3989 25.9601 51.1189 26.1301 50.8389C26.8101 49.7189 27.4501 48.4589 28.3801 47.1289C28.5501 46.8689 28.7801 46.5389 29.0601 46.1489C29.2001 45.9589 29.3501 45.7489 29.5201 45.5189C29.7001 45.3089 29.9001 45.0789 30.1101 44.8389C30.9401 43.8789 31.9201 42.6489 33.2101 41.3289C33.6201 40.8889 33.9901 40.4189 34.3701 39.9689C35.2401 39.0289 36.1601 37.9889 37.1601 37.0789C38.1901 36.2089 39.1501 35.2889 40.1001 34.6289C41.0501 33.9589 41.8601 33.3789 42.4401 32.9689C43.0501 32.6089 43.4101 32.3889 43.4101 32.3889C43.4101 32.3889 43.9501 32.0689 44.8101 31.5489C45.6501 30.9889 46.9101 30.4289 48.2601 29.7289C48.9201 29.3589 49.6701 29.0989 50.4001 28.7889C51.1401 28.4989 51.8601 28.1589 52.5801 27.9189C54.0401 27.4689 55.3601 26.9489 56.4001 26.7289C59.4701 25.9089 61.0001 25.7589 61.9201 25.5989C64.7301 25.2089 66.9401 25.0289 69.0601 24.9089L69.0501 24.8789Z" fill="#101214"/>
<path d="M64.78 18.0191C64.37 17.8591 63.7 18.7491 63.97 19.0991C64.35 19.5891 64.8 20.0391 65.43 20.5291C66.18 21.0391 66.49 20.9991 66.96 21.3891C67.35 21.7191 67.83 22.2091 68.18 22.6791C68.52 23.1491 68.77 23.5691 68.8 23.7191C68.82 23.7691 68.84 23.8091 68.88 23.8391C68.94 23.8991 69.06 24.0291 69.13 24.1791C69.16 24.2491 69.24 24.3391 69.27 24.4291C69.28 24.5091 69.31 24.5991 69.34 24.6891C69.33 24.7791 69.31 24.8691 69.32 24.9791C69.28 25.0891 69.21 25.2091 69.17 25.3291C68.99 25.5791 68.8 25.8491 68.49 26.0691C67.72 26.7591 67.08 27.1191 66.77 27.3091C66.04 27.7691 65.48 28.1591 64.99 28.6591C64.72 28.9291 65.14 29.8091 65.53 29.7391C66.23 29.6091 66.92 29.4091 67.74 28.9191C68.06 28.7291 68.87 28.5791 69.82 27.8291C69.97 27.6991 70.11 27.5591 70.22 27.3991C70.34 27.2191 70.46 26.9891 70.58 26.7891C70.71 26.5891 70.83 26.3891 70.92 26.1291C71.15 25.6691 71.21 25.1191 71.23 24.6591C71.15 23.7091 70.81 23.2191 70.84 23.2091C70.84 23.2091 70.82 23.1591 70.77 23.0691C70.72 22.9891 70.64 22.8791 70.55 22.7391C70.37 22.4491 70.09 22.1091 69.77 21.7691C69.13 21.0891 68.33 20.4291 67.85 20.0391C67.13 19.4791 66.78 19.2091 66.56 19.0491C65.91 18.5591 65.35 18.2591 64.77 18.0291L64.78 18.0191Z" fill="#101214"/>
</svg>
