<svg width="961" height="540" viewBox="0 0 961 540" fill="none" xmlns="http://www.w3.org/2000/svg">
<g clip-path="url(#clip0_287_70547)">
<path d="M549.279 256.9V182.87C677.789 199.42 873.519 277.78 960.019 321.41V267.67L721.779 0H593.969C577.699 83.87 539.669 160.29 486.329 224.47L549.279 256.9Z" fill="#357DE8"/>
<path d="M549.28 461.449L394.72 539.999H549.28V461.449Z" fill="#357DE8"/>
<path d="M310.449 0H50.6094L226.619 90.67C260.749 65.59 289.779 34.77 310.449 0Z" fill="#357DE8"/>
<path d="M549.279 256.899L749.159 359.869L715.929 376.759L549.279 461.449V539.999H960.019V321.409C873.519 277.779 677.789 199.419 549.279 182.869V256.899Z" fill="#1558BC"/>
<path d="M226.619 90.67L486.329 224.47C539.669 160.29 577.699 83.87 593.969 0H310.439C289.769 34.78 260.749 65.59 226.609 90.67H226.619Z" fill="#1558BC"/>
<path d="M549.279 461.451V256.901L486.329 224.471C483.179 228.261 479.979 232.001 476.729 235.701C476.629 235.811 476.529 235.931 476.429 236.041C474.919 237.761 473.389 239.471 471.859 241.161C471.739 241.301 471.609 241.431 471.489 241.571C466.589 246.981 461.579 252.291 456.469 257.501C456.309 257.661 456.149 257.831 455.989 257.991C454.339 259.671 452.679 261.341 450.999 263.001C450.979 263.021 450.949 263.051 450.929 263.071C447.429 266.531 443.889 269.951 440.289 273.321C440.159 273.441 440.039 273.561 439.909 273.681C438.259 275.221 436.599 276.761 434.929 278.281C434.769 278.431 434.599 278.581 434.439 278.731C429.059 283.631 423.569 288.431 417.989 293.131C417.779 293.311 417.569 293.491 417.349 293.671C415.599 295.141 413.839 296.601 412.069 298.051C411.989 298.121 411.909 298.191 411.819 298.251C408.029 301.341 404.199 304.391 400.329 307.391C400.139 307.541 399.949 307.691 399.749 307.831C398.019 309.161 396.279 310.491 394.539 311.801C394.309 311.981 394.069 312.151 393.839 312.331C389.929 315.261 385.989 318.151 381.999 320.981C381.949 321.011 381.909 321.051 381.859 321.081C379.979 322.411 378.099 323.731 376.209 325.041C375.909 325.241 375.619 325.451 375.319 325.651C373.529 326.891 371.729 328.111 369.919 329.331C369.739 329.451 369.569 329.571 369.389 329.691C365.359 332.391 361.299 335.041 357.199 337.641C356.919 337.821 356.639 338.001 356.349 338.171C354.589 339.281 352.829 340.381 351.049 341.471C350.719 341.671 350.389 341.881 350.059 342.081C345.929 344.611 341.769 347.091 337.579 349.521C337.439 349.601 337.299 349.681 337.159 349.761C335.259 350.861 333.359 351.941 331.439 353.011C331.049 353.231 330.649 353.451 330.259 353.671C328.459 354.671 326.659 355.671 324.849 356.651C324.559 356.811 324.269 356.971 323.979 357.131C319.759 359.421 315.509 361.651 311.219 363.841C310.839 364.041 310.449 364.231 310.069 364.421C308.309 365.311 306.549 366.191 304.789 367.061C304.349 367.281 303.899 367.501 303.459 367.721C301.449 368.701 299.439 369.681 297.419 370.641C297.319 370.691 297.219 370.741 297.119 370.781C294.909 371.831 292.699 372.861 290.479 373.881C290.219 374.001 289.959 374.121 289.699 374.231C287.819 375.091 285.939 375.941 284.049 376.781C283.549 377.001 283.049 377.221 282.539 377.451C280.769 378.231 278.999 379.001 277.219 379.761C276.799 379.941 276.389 380.121 275.969 380.301C271.599 382.161 267.199 383.971 262.769 385.721C262.279 385.921 261.779 386.111 261.289 386.301C259.559 386.981 257.819 387.661 256.069 388.321C255.519 388.531 254.969 388.741 254.419 388.951C252.469 389.691 250.509 390.421 248.549 391.131C248.299 391.221 248.059 391.311 247.809 391.401C245.549 392.221 243.289 393.031 241.009 393.821C240.649 393.951 240.279 394.071 239.919 394.201C238.069 394.841 236.209 395.481 234.349 396.101C233.739 396.301 233.129 396.511 232.519 396.711C230.789 397.281 229.049 397.851 227.319 398.411C226.779 398.581 226.249 398.761 225.709 398.931C223.309 399.691 220.909 400.441 218.499 401.171C218.519 402.681 218.549 404.181 218.549 405.701C218.549 422.471 217.149 438.321 214.489 453.241C208.419 487.191 195.699 516.221 177.489 539.991H394.719L549.279 461.441V461.451Z" fill="#1868DB"/>
<path d="M50.5095 158.71H50.5395C52.3995 158.53 54.2595 158.34 56.1195 158.13C56.7095 158.06 57.2995 157.99 57.8895 157.92C59.1595 157.77 60.4295 157.62 61.6995 157.45C62.4095 157.36 63.1195 157.26 63.8295 157.16C64.9795 157 66.1395 156.84 67.2895 156.67C68.0395 156.56 68.7795 156.45 69.5295 156.33C70.6495 156.16 71.7695 155.98 72.8995 155.79C73.6495 155.67 74.3995 155.54 75.1495 155.41C76.2795 155.22 77.4095 155.01 78.5395 154.81C79.2695 154.68 79.9895 154.55 80.7195 154.41C81.9095 154.19 83.0995 153.95 84.2795 153.71C84.9395 153.58 85.5995 153.45 86.2595 153.31C87.6295 153.03 88.9995 152.73 90.3595 152.43C90.8295 152.33 91.3095 152.23 91.7795 152.12C93.6395 151.7 95.4995 151.27 97.3495 150.83C97.5095 150.79 97.6595 150.75 97.8195 150.71C99.4995 150.3 101.18 149.88 102.85 149.45C103.4 149.31 103.95 149.16 104.5 149.01C105.78 148.67 107.07 148.33 108.35 147.98C108.99 147.8 109.63 147.62 110.27 147.44C111.46 147.1 112.66 146.76 113.85 146.41C114.51 146.22 115.17 146.02 115.84 145.82C117.02 145.47 118.19 145.11 119.37 144.74C120.02 144.54 120.67 144.33 121.32 144.13C122.53 143.75 123.73 143.36 124.94 142.96C125.54 142.76 126.15 142.57 126.75 142.36C128.07 141.92 129.38 141.47 130.69 141.01C131.17 140.84 131.65 140.68 132.13 140.51C133.82 139.92 135.5 139.31 137.18 138.69C137.28 138.65 137.38 138.62 137.48 138.58C139.33 137.89 141.18 137.19 143.03 136.48C143.09 136.45 143.16 136.43 143.22 136.4C144.93 135.73 146.64 135.05 148.34 134.36C148.75 134.2 149.15 134.03 149.55 133.86C150.92 133.3 152.28 132.73 153.64 132.15C154.14 131.94 154.63 131.72 155.12 131.51C156.39 130.96 157.67 130.41 158.93 129.84C159.44 129.61 159.96 129.38 160.47 129.15C161.73 128.58 162.99 128.01 164.24 127.43C164.73 127.2 165.22 126.97 165.72 126.74C167.03 126.13 168.34 125.5 169.64 124.87C170.06 124.67 170.47 124.47 170.89 124.27C172.38 123.55 173.85 122.81 175.33 122.07C175.55 121.96 175.78 121.85 176 121.73C181.23 119.08 186.38 116.31 191.47 113.42C191.74 113.27 192.01 113.11 192.28 112.95C193.67 112.15 195.06 111.35 196.44 110.53C196.8 110.32 197.16 110.1 197.52 109.89C198.82 109.12 200.11 108.34 201.39 107.56C201.77 107.33 202.16 107.09 202.54 106.86C203.82 106.07 205.1 105.27 206.37 104.46C206.72 104.24 207.08 104.01 207.43 103.79C208.78 102.93 210.13 102.05 211.47 101.17C211.72 101 211.98 100.84 212.23 100.67C217.12 97.43 221.93 94.09 226.64 90.63L50.6095 0H0.0195312V158.74C12.2095 158.74 25.4095 158.73 35.2595 158.72H50.5095V158.71Z" fill="#1868DB"/>
<path d="M549.279 461.45L715.929 376.76L549.279 461.45Z" fill="#1868DB"/>
<path d="M297.129 370.789C294.919 371.839 292.709 372.869 290.489 373.889C292.709 372.869 294.929 371.839 297.129 370.789Z" fill="#1868DB"/>
<path d="M337.169 349.76C335.269 350.86 333.369 351.94 331.449 353.01C333.359 351.94 335.269 350.85 337.169 349.76Z" fill="#1868DB"/>
<path d="M356.36 338.17C354.6 339.28 352.84 340.38 351.06 341.47C352.83 340.38 354.6 339.28 356.36 338.17Z" fill="#1868DB"/>
<path d="M323.99 357.131C319.77 359.421 315.519 361.651 311.229 363.841C315.509 361.661 319.76 359.421 323.99 357.131Z" fill="#1868DB"/>
<path d="M310.09 364.42C308.33 365.31 306.57 366.19 304.81 367.06C306.58 366.19 308.34 365.31 310.09 364.42Z" fill="#1868DB"/>
<path d="M232.54 396.73C230.81 397.3 229.07 397.87 227.34 398.43C229.08 397.87 230.81 397.31 232.54 396.73Z" fill="#1868DB"/>
<path d="M218.51 401.179C220.92 400.449 223.33 399.699 225.72 398.939C223.32 399.699 220.92 400.449 218.51 401.179Z" fill="#1868DB"/>
<path d="M212.209 100.721C211.959 100.891 211.709 101.051 211.449 101.221C211.699 101.051 211.959 100.891 212.209 100.721Z" fill="#1868DB"/>
<path d="M202.53 106.9C202.15 107.14 201.77 107.37 201.38 107.6C201.76 107.37 202.15 107.13 202.53 106.9Z" fill="#1868DB"/>
<path d="M261.299 386.311C259.569 386.991 257.829 387.671 256.079 388.331C257.819 387.661 259.559 386.991 261.299 386.311Z" fill="#1868DB"/>
<path d="M254.43 388.961C252.48 389.701 250.52 390.431 248.56 391.141C250.52 390.421 252.48 389.691 254.43 388.961Z" fill="#1868DB"/>
<path d="M247.829 391.42C245.569 392.24 243.309 393.05 241.029 393.84C243.299 393.05 245.569 392.24 247.829 391.42Z" fill="#1868DB"/>
<path d="M381.87 321.08C379.99 322.41 378.11 323.73 376.22 325.04C378.11 323.73 380 322.41 381.87 321.08Z" fill="#1868DB"/>
<path d="M91.7794 152.141C91.3094 152.251 90.8294 152.341 90.3594 152.451C90.8294 152.351 91.3094 152.251 91.7794 152.141Z" fill="#1868DB"/>
<path d="M75.1396 155.42C74.3896 155.55 73.6396 155.67 72.8896 155.8C73.6396 155.68 74.3896 155.55 75.1396 155.42Z" fill="#1868DB"/>
<path d="M192.27 113C192 113.15 191.73 113.31 191.46 113.47C191.73 113.32 192 113.16 192.27 113Z" fill="#1868DB"/>
<path d="M226.619 90.6699L486.329 224.47L226.619 90.6699Z" fill="#1868DB"/>
<path d="M104.49 149.029C103.94 149.169 103.39 149.319 102.84 149.469C103.39 149.329 103.94 149.179 104.49 149.029Z" fill="#1868DB"/>
<path d="M57.8891 157.92C57.2991 157.99 56.7091 158.07 56.1191 158.13C56.7091 158.06 57.2991 157.99 57.8891 157.92Z" fill="#1868DB"/>
<path d="M69.5193 156.34C68.7693 156.45 68.0293 156.57 67.2793 156.68C68.0293 156.57 68.7693 156.46 69.5193 156.34Z" fill="#1868DB"/>
<path d="M80.7093 154.42C79.9893 154.56 79.2593 154.69 78.5293 154.82C79.2593 154.69 79.9793 154.56 80.7093 154.42Z" fill="#1868DB"/>
<path d="M486.329 224.471C483.179 228.261 479.979 232.001 476.729 235.701C479.979 232.001 483.189 228.251 486.329 224.471Z" fill="#1868DB"/>
<path d="M434.439 278.74C429.059 283.64 423.569 288.44 417.989 293.14C423.569 288.45 429.049 283.65 434.439 278.74Z" fill="#1868DB"/>
<path d="M411.83 298.25C408.04 301.34 404.21 304.39 400.34 307.39C404.21 304.39 408.05 301.35 411.83 298.25Z" fill="#1868DB"/>
<path d="M450.929 263.08C447.429 266.54 443.889 269.96 440.289 273.33C443.879 269.96 447.429 266.54 450.929 263.08Z" fill="#1868DB"/>
<path d="M471.49 241.58C466.59 246.99 461.58 252.3 456.47 257.51C461.59 252.3 466.6 246.99 471.49 241.58Z" fill="#1868DB"/>
<path d="M476.429 236.051C474.919 237.771 473.389 239.481 471.859 241.171C473.389 239.471 474.919 237.761 476.429 236.051Z" fill="#1868DB"/>
<path d="M455.979 258.01C454.329 259.69 452.669 261.36 450.989 263.02C452.659 261.36 454.329 259.69 455.979 258.01Z" fill="#1868DB"/>
<path d="M149.529 133.891C149.129 134.061 148.719 134.231 148.319 134.391C148.729 134.231 149.129 134.061 149.529 133.891Z" fill="#1868DB"/>
<path d="M126.73 142.391C126.13 142.591 125.52 142.791 124.92 142.991C125.52 142.791 126.13 142.601 126.73 142.391Z" fill="#1868DB"/>
<path d="M115.83 145.84C115.17 146.04 114.51 146.24 113.84 146.43C114.5 146.24 115.16 146.04 115.83 145.84Z" fill="#1868DB"/>
<path d="M155.099 131.551C154.609 131.761 154.109 131.981 153.619 132.191C154.119 131.981 154.609 131.761 155.099 131.551Z" fill="#1868DB"/>
<path d="M175.989 121.779C175.769 121.889 175.539 121.999 175.319 122.119C175.539 122.009 175.769 121.899 175.989 121.779Z" fill="#1868DB"/>
<path d="M121.309 144.15C120.659 144.36 120.009 144.56 119.359 144.76C120.009 144.56 120.659 144.35 121.309 144.15Z" fill="#1868DB"/>
<path d="M165.709 126.789C165.219 127.019 164.729 127.249 164.229 127.479C164.719 127.249 165.209 127.019 165.709 126.789Z" fill="#1868DB"/>
<path d="M218.56 405.719C218.56 404.199 218.54 402.689 218.51 401.189C216.4 401.829 214.29 402.449 212.17 403.069C211.58 403.239 210.99 403.409 210.4 403.579C210.05 403.679 209.71 403.779 209.36 403.879C209.11 403.949 208.86 404.019 208.61 404.089C207.5 404.409 206.38 404.709 205.26 405.019C204.61 405.199 203.96 405.379 203.31 405.559C202.11 405.889 200.92 406.209 199.72 406.519C199.32 406.629 198.92 406.729 198.52 406.839C198.22 406.919 197.92 406.999 197.62 407.079C197.24 407.179 196.86 407.279 196.48 407.379C194.18 407.969 191.88 408.549 189.58 409.119C189.11 409.229 188.65 409.339 188.18 409.459C186.36 409.899 184.53 410.339 182.7 410.759C182.01 410.919 181.31 411.079 180.62 411.239C180.43 411.279 180.24 411.329 180.06 411.369C179.82 411.419 179.58 411.479 179.35 411.529C178.07 411.819 176.79 412.099 175.5 412.379C174.87 412.519 174.25 412.659 173.62 412.789C172.54 413.019 171.45 413.249 170.36 413.469C169.91 413.559 169.46 413.659 169.01 413.749C166.02 414.369 163.02 414.959 160.01 415.529C159.85 415.559 159.7 415.589 159.54 415.619C158.94 415.729 158.34 415.839 157.75 415.949C156.06 416.259 154.37 416.569 152.67 416.859C151.95 416.989 151.22 417.109 150.5 417.239C150.42 417.249 150.33 417.269 150.25 417.279C150.03 417.319 149.81 417.359 149.6 417.389C148.05 417.649 146.49 417.899 144.94 418.149C144.46 418.229 143.98 418.309 143.49 418.379C142.51 418.529 141.53 418.679 140.54 418.829C140.04 418.909 139.53 418.979 139.03 419.059C138.18 419.189 137.33 419.319 136.48 419.439C135.95 419.519 135.43 419.589 134.9 419.659C133.29 419.889 131.68 420.109 130.06 420.319C129.77 420.359 129.48 420.399 129.19 420.429C128.52 420.519 127.85 420.599 127.17 420.689C125.47 420.909 123.77 421.109 122.07 421.309C121.38 421.389 120.69 421.469 120 421.549C119.99 421.549 119.98 421.549 119.97 421.549C119.78 421.569 119.59 421.589 119.41 421.619C116.38 421.959 113.34 422.269 110.3 422.559C109.75 422.609 109.21 422.669 108.66 422.719C107.73 422.809 106.8 422.889 105.87 422.969C105.16 423.029 104.45 423.089 103.74 423.149C102.4 423.259 101.06 423.369 99.7198 423.469C99.2998 423.499 98.8698 423.529 98.4498 423.559C97.7398 423.609 97.0398 423.659 96.3298 423.709C94.4898 423.839 92.6398 423.959 90.7898 424.069C90.2498 424.099 89.7198 424.139 89.1898 424.169C89.0798 424.169 88.9798 424.179 88.8698 424.189C86.5998 424.319 84.3298 424.429 82.0498 424.529C81.4998 424.549 80.9498 424.569 80.3898 424.589C80.1498 424.589 79.8998 424.609 79.6598 424.619C79.0998 424.639 78.5298 424.669 77.9698 424.689C76.9298 424.729 75.8998 424.759 74.8598 424.789C74.0798 424.809 73.2998 424.829 72.5198 424.859C71.3498 424.889 70.1898 424.919 69.0198 424.939C68.4698 424.949 67.9298 424.959 67.3798 424.969C66.6598 424.979 65.9398 424.999 65.2198 425.009C62.8298 425.039 60.4398 425.059 58.0498 425.059C57.2798 425.059 49.1398 425.059 38.0098 425.059C34.4898 425.059 30.6798 425.059 26.6998 425.059C22.6098 425.059 18.3598 425.059 14.0798 425.059C13.8498 425.059 13.6198 425.059 13.3898 425.059C13.0398 425.059 12.6898 425.059 12.3498 425.059C12.1398 425.059 11.9298 425.059 11.7198 425.059C10.5198 425.059 9.31981 425.059 8.11981 425.059C7.33981 425.059 6.5698 425.059 5.7998 425.059C3.8598 425.059 1.9398 425.059 0.0498047 425.059V540.009H177.52C195.73 516.249 208.45 487.209 214.52 453.259C217.19 438.349 218.58 422.499 218.58 405.719H218.56Z" fill="#1868DB"/>
<path d="M170.35 413.459C171.44 413.229 172.52 413.009 173.61 412.779C172.79 412.959 171.97 413.119 171.15 413.289C170.88 413.349 170.62 413.409 170.35 413.459Z" fill="#1868DB"/>
<path d="M105.85 422.98C106.78 422.9 107.71 422.81 108.64 422.73C108.37 422.75 108.1 422.77 107.83 422.8C107.17 422.86 106.51 422.93 105.85 422.99V422.98Z" fill="#1868DB"/>
<path d="M160.68 415.38C160.45 415.42 160.23 415.47 160 415.51C163.01 414.94 166.01 414.35 169 413.73C168.87 413.76 168.73 413.78 168.6 413.81C165.97 414.35 163.33 414.87 160.68 415.37V415.38Z" fill="#1868DB"/>
<path d="M144.92 418.141C146.48 417.891 148.03 417.641 149.58 417.381C149.12 417.461 148.66 417.521 148.21 417.601C147.11 417.781 146.02 417.971 144.92 418.141Z" fill="#1868DB"/>
<path d="M130.05 420.32C131.67 420.11 133.28 419.88 134.89 419.66C133.65 419.84 132.4 420 131.15 420.17C130.78 420.22 130.42 420.28 130.05 420.33V420.32Z" fill="#1868DB"/>
<path d="M150.229 417.27C150.309 417.26 150.399 417.24 150.479 417.23C150.449 417.23 150.409 417.24 150.379 417.25C150.329 417.25 150.279 417.27 150.229 417.28V417.27Z" fill="#1868DB"/>
<path d="M57.3693 425.07C57.2293 425.07 57.0593 425.07 56.8893 425.07C56.5093 425.07 56.0493 425.07 55.4993 425.07C55.2593 425.07 55.0293 425.07 54.7593 425.07C53.6993 425.07 52.4193 425.07 50.9393 425.07C50.8293 425.07 50.7193 425.07 50.6093 425.07C49.3193 425.07 47.8993 425.07 46.3493 425.07C45.9393 425.07 45.5293 425.07 45.0993 425.07C43.4993 425.07 41.7893 425.07 39.9793 425.07C39.7093 425.07 39.4393 425.07 39.1693 425.07C38.7793 425.07 38.3893 425.07 37.9893 425.07C49.1293 425.07 57.2693 425.07 58.0293 425.07C60.4193 425.07 62.8193 425.05 65.1993 425.02C62.8093 425.05 60.4193 425.07 58.0293 425.07C57.9293 425.07 57.6993 425.07 57.3693 425.07Z" fill="#1868DB"/>
<path d="M110.719 422.519C110.579 422.529 110.429 422.549 110.289 422.559C113.329 422.269 116.369 421.959 119.399 421.619C118.959 421.669 118.509 421.709 118.059 421.759C115.619 422.029 113.169 422.279 110.719 422.519Z" fill="#1868DB"/>
<path d="M136.459 419.431C137.309 419.311 138.159 419.181 139.009 419.051C138.809 419.081 138.609 419.101 138.409 419.131C137.759 419.231 137.109 419.331 136.449 419.421L136.459 419.431Z" fill="#1868DB"/>
<path d="M99.71 423.48C101.05 423.38 102.39 423.27 103.73 423.16C102.8 423.24 101.87 423.31 100.94 423.38C100.53 423.41 100.13 423.45 99.72 423.48H99.71Z" fill="#1868DB"/>
<path d="M140.529 418.831C141.509 418.681 142.499 418.531 143.479 418.381C142.709 418.501 141.939 418.611 141.169 418.731C140.959 418.761 140.749 418.801 140.539 418.831H140.529Z" fill="#1868DB"/>
<path d="M69.0098 424.961C70.1798 424.941 71.3398 424.911 72.5098 424.881C71.7298 424.901 70.9598 424.911 70.1798 424.931C69.7898 424.931 69.3998 424.961 69.0098 424.961Z" fill="#1868DB"/>
<path d="M175.489 412.37C176.769 412.09 178.059 411.81 179.339 411.52C178.909 411.62 178.469 411.71 178.029 411.8C177.179 411.99 176.339 412.18 175.489 412.37Z" fill="#1868DB"/>
<path d="M157.739 415.939C156.049 416.249 154.359 416.559 152.659 416.849C154.349 416.549 156.049 416.249 157.739 415.939Z" fill="#1868DB"/>
<path d="M209.359 403.87C209.709 403.77 210.049 403.67 210.399 403.57C210.209 403.63 210.009 403.68 209.819 403.73C209.669 403.77 209.519 403.82 209.369 403.86L209.359 403.87Z" fill="#1868DB"/>
<path d="M205.26 405.02C206.38 404.71 207.49 404.4 208.61 404.09C208.21 404.2 207.81 404.31 207.42 404.42C206.7 404.62 205.99 404.83 205.27 405.03L205.26 405.02Z" fill="#1868DB"/>
<path d="M212.17 403.06C214.29 402.45 216.4 401.82 218.51 401.18C218.37 401.22 218.23 401.26 218.09 401.3C216.12 401.89 214.15 402.48 212.17 403.05V403.06Z" fill="#1868DB"/>
<path d="M196.479 407.369C194.179 407.959 191.879 408.539 189.579 409.109C191.889 408.539 194.189 407.959 196.479 407.369Z" fill="#1868DB"/>
<path d="M82.0391 424.539C84.3091 424.439 86.5891 424.329 88.8591 424.199C88.5191 424.219 88.1791 424.229 87.8291 424.249C85.8991 424.359 83.9691 424.459 82.0391 424.539Z" fill="#1868DB"/>
<path d="M199.72 406.521C200.92 406.201 202.12 405.881 203.31 405.561C202.42 405.801 201.52 406.041 200.63 406.271C200.32 406.351 200.02 406.441 199.72 406.521Z" fill="#1868DB"/>
<path d="M180.049 411.36C180.239 411.32 180.429 411.27 180.609 411.23C180.519 411.25 180.429 411.27 180.339 411.29C180.239 411.31 180.139 411.34 180.039 411.36H180.049Z" fill="#1868DB"/>
<path d="M79.6494 424.639C79.8894 424.639 80.1394 424.619 80.3794 424.609C80.2094 424.609 80.0294 424.619 79.8594 424.629C79.7894 424.629 79.7194 424.629 79.6494 424.639Z" fill="#1868DB"/>
<path d="M74.8496 424.811C75.8896 424.781 76.9196 424.741 77.9596 424.711C77.6196 424.721 77.2896 424.731 76.9496 424.741C76.2496 424.761 75.5496 424.791 74.8496 424.821V424.811Z" fill="#1868DB"/>
<path d="M197.619 407.07C197.919 406.99 198.219 406.91 198.519 406.83C198.439 406.85 198.369 406.87 198.289 406.89C198.069 406.95 197.839 407.01 197.619 407.07Z" fill="#1868DB"/>
<path d="M127.16 420.689C125.46 420.909 123.76 421.109 122.06 421.309C123.76 421.109 125.46 420.899 127.16 420.689Z" fill="#1868DB"/>
<path d="M96.3095 423.73C94.4695 423.86 92.6195 423.98 90.7695 424.09C92.6195 423.98 94.4595 423.86 96.3095 423.73Z" fill="#1868DB"/>
<path d="M124.93 142.98C123.73 143.38 122.52 143.77 121.31 144.15C122.52 143.77 123.72 143.38 124.93 142.98Z" fill="#1868DB"/>
<path d="M357.209 337.641C356.929 337.821 356.649 338.001 356.359 338.171C356.639 337.991 356.919 337.821 357.209 337.641Z" fill="#1868DB"/>
<path d="M382.009 320.98C382.009 320.98 381.919 321.05 381.869 321.08C381.919 321.05 381.959 321.01 382.009 320.98Z" fill="#1868DB"/>
<path d="M311.24 363.84C310.86 364.04 310.47 364.23 310.09 364.42C310.47 364.23 310.86 364.03 311.24 363.84Z" fill="#1868DB"/>
<path d="M262.78 385.73C262.29 385.93 261.79 386.12 261.3 386.31C261.79 386.12 262.29 385.92 262.78 385.73Z" fill="#1868DB"/>
<path d="M234.359 396.119C233.749 396.319 233.139 396.529 232.529 396.729C233.139 396.529 233.749 396.329 234.359 396.119Z" fill="#1868DB"/>
<path d="M227.33 398.43C226.79 398.6 226.26 398.78 225.72 398.95C226.26 398.78 226.79 398.61 227.33 398.43Z" fill="#1868DB"/>
<path d="M297.43 370.641C297.33 370.691 297.23 370.741 297.13 370.781C297.23 370.731 297.33 370.681 297.43 370.641Z" fill="#1868DB"/>
<path d="M284.06 376.789C283.56 377.009 283.06 377.229 282.55 377.459C283.05 377.239 283.56 377.019 284.06 376.789Z" fill="#1868DB"/>
<path d="M119.359 144.77C118.189 145.13 117.009 145.49 115.829 145.85C117.009 145.5 118.179 145.14 119.359 144.77Z" fill="#1868DB"/>
<path d="M206.359 104.5C205.089 105.31 203.809 106.1 202.529 106.9C203.809 106.11 205.089 105.31 206.359 104.5Z" fill="#1868DB"/>
<path d="M196.43 110.58C195.05 111.39 193.66 112.2 192.27 113C193.66 112.2 195.05 111.4 196.43 110.58Z" fill="#1868DB"/>
<path d="M211.46 101.211C210.12 102.091 208.78 102.961 207.42 103.831C208.77 102.971 210.12 102.091 211.46 101.211Z" fill="#1868DB"/>
<path d="M61.6996 157.461C60.4296 157.621 59.1596 157.781 57.8896 157.931C59.1596 157.781 60.4296 157.631 61.6996 157.461Z" fill="#1868DB"/>
<path d="M0.0195312 158.741L35.2595 158.721C25.4095 158.721 12.2095 158.731 0.0195312 158.741Z" fill="#1868DB"/>
<path d="M212.21 100.72C217.1 97.4797 221.91 94.1397 226.62 90.6797C221.91 94.1397 217.11 97.4897 212.21 100.72Z" fill="#1868DB"/>
<path d="M201.38 107.6C200.09 108.39 198.8 109.16 197.51 109.93C198.81 109.16 200.1 108.38 201.38 107.6Z" fill="#1868DB"/>
<path d="M400.34 307.391C400.15 307.541 399.96 307.691 399.76 307.831C399.95 307.681 400.15 307.531 400.34 307.391Z" fill="#1868DB"/>
<path d="M169.63 124.92C168.33 125.55 167.02 126.17 165.71 126.79C167.02 126.18 168.33 125.55 169.63 124.92Z" fill="#1868DB"/>
<path d="M164.23 127.471C162.97 128.051 161.72 128.631 160.46 129.191C161.72 128.621 162.98 128.051 164.23 127.471Z" fill="#1868DB"/>
<path d="M191.449 113.461C186.369 116.351 181.209 119.121 175.979 121.771C181.209 119.121 186.359 116.351 191.449 113.461Z" fill="#1868DB"/>
<path d="M175.32 122.109C173.85 122.849 172.37 123.589 170.88 124.309C172.37 123.589 173.84 122.849 175.32 122.109Z" fill="#1868DB"/>
<path d="M158.91 129.881C157.64 130.441 156.37 131.001 155.1 131.551C156.37 131.001 157.65 130.451 158.91 129.881Z" fill="#1868DB"/>
<path d="M153.619 132.189C152.259 132.769 150.899 133.329 149.529 133.899C150.899 133.339 152.259 132.769 153.619 132.189Z" fill="#1868DB"/>
<path d="M143.01 136.51C141.17 137.23 139.32 137.93 137.46 138.61C139.31 137.92 141.16 137.22 143.01 136.51Z" fill="#1868DB"/>
<path d="M72.8895 155.801C71.7695 155.981 70.6495 156.161 69.5195 156.341C70.6395 156.171 71.7595 155.991 72.8895 155.801Z" fill="#1868DB"/>
<path d="M417.999 293.131C417.789 293.311 417.579 293.491 417.359 293.671C417.569 293.491 417.789 293.311 417.999 293.131Z" fill="#1868DB"/>
<path d="M412.079 298.051C411.999 298.121 411.919 298.191 411.829 298.251C411.909 298.181 411.989 298.111 412.079 298.051Z" fill="#1868DB"/>
<path d="M451 263.01C451 263.01 450.95 263.06 450.93 263.08C450.95 263.06 450.98 263.03 451 263.01Z" fill="#1868DB"/>
<path d="M90.3598 152.449C88.9898 152.749 87.6298 153.049 86.2598 153.329C87.6298 153.049 88.9998 152.749 90.3598 152.449Z" fill="#1868DB"/>
<path d="M84.27 153.721C83.08 153.961 81.9 154.191 80.71 154.421C81.9 154.201 83.09 153.961 84.27 153.721Z" fill="#1868DB"/>
<path d="M97.3493 150.85C95.4993 151.3 93.6393 151.73 91.7793 152.14C93.6393 151.72 95.4993 151.29 97.3493 150.85Z" fill="#1868DB"/>
<path d="M78.5394 154.82C77.4094 155.03 76.2794 155.23 75.1494 155.42C76.2794 155.23 77.4094 155.02 78.5394 154.82Z" fill="#1868DB"/>
<path d="M108.339 148C107.059 148.35 105.779 148.7 104.489 149.03C105.769 148.69 107.059 148.35 108.339 148Z" fill="#1868DB"/>
<path d="M290.49 373.891C290.23 374.011 289.97 374.131 289.71 374.241C289.97 374.121 290.23 374.001 290.49 373.891Z" fill="#1868DB"/>
<path d="M48.38 198.01C135.91 212.28 198.32 267.68 214.44 357.55C214.76 359.34 215.06 361.15 215.35 362.98C215.47 363.76 215.58 364.55 215.7 365.34C215.85 366.37 216 367.39 216.14 368.43C216.28 369.46 216.4 370.5 216.53 371.54C216.63 372.33 216.72 373.11 216.81 373.9C216.95 375.1 217.07 376.31 217.19 377.53C217.25 378.15 217.31 378.77 217.37 379.39C217.49 380.74 217.6 382.1 217.71 383.46C217.75 383.94 217.78 384.41 217.82 384.89C217.93 386.38 218.02 387.87 218.1 389.38C218.12 389.72 218.14 390.05 218.15 390.39C218.23 392.02 218.31 393.65 218.36 395.3C218.36 395.48 218.37 395.67 218.38 395.86C218.44 397.64 218.48 399.42 218.51 401.22C220.92 400.49 223.33 399.74 225.72 398.98C226.26 398.81 226.79 398.64 227.33 398.46C229.07 397.9 230.8 397.34 232.53 396.76C233.14 396.56 233.75 396.36 234.36 396.15C236.22 395.53 238.08 394.89 239.93 394.25C240.29 394.12 240.66 394 241.02 393.87C243.29 393.08 245.56 392.27 247.82 391.45C248.07 391.36 248.31 391.27 248.56 391.18C250.52 390.46 252.48 389.73 254.43 389C254.98 388.79 255.53 388.58 256.08 388.37C257.82 387.7 259.56 387.03 261.3 386.35C261.79 386.16 262.29 385.96 262.78 385.77C267.21 384.02 271.61 382.21 275.98 380.35C276.4 380.17 276.81 379.99 277.23 379.81C279.01 379.05 280.78 378.28 282.55 377.5C283.05 377.28 283.56 377.06 284.06 376.83C285.95 375.99 287.83 375.14 289.71 374.28C289.97 374.16 290.23 374.04 290.49 373.93C292.71 372.91 294.93 371.88 297.13 370.83C297.23 370.78 297.33 370.73 297.43 370.69C299.45 369.73 301.46 368.75 303.47 367.77C303.91 367.55 304.36 367.33 304.8 367.11C306.57 366.24 308.33 365.36 310.08 364.47C310.46 364.28 310.85 364.08 311.23 363.89C315.51 361.71 319.77 359.47 323.99 357.18C324.28 357.02 324.57 356.86 324.86 356.7C326.67 355.72 328.47 354.72 330.27 353.72C330.66 353.5 331.06 353.28 331.45 353.06C333.36 351.99 335.27 350.9 337.17 349.81C337.31 349.73 337.45 349.65 337.59 349.57C341.78 347.14 345.94 344.66 350.07 342.13C350.4 341.93 350.73 341.72 351.06 341.52C352.83 340.43 354.6 339.33 356.36 338.22C356.64 338.04 356.92 337.87 357.21 337.69C361.31 335.09 365.37 332.44 369.4 329.74C369.58 329.62 369.75 329.5 369.93 329.38C371.74 328.16 373.54 326.94 375.33 325.7C375.63 325.5 375.92 325.29 376.22 325.09C378.11 323.78 380 322.46 381.87 321.13C381.92 321.1 381.96 321.06 382.01 321.03C386 318.2 389.94 315.31 393.85 312.38C394.08 312.2 394.32 312.03 394.55 311.85C396.29 310.54 398.03 309.21 399.76 307.88C399.95 307.73 400.15 307.58 400.34 307.44C404.21 304.44 408.05 301.4 411.83 298.3C411.91 298.23 411.99 298.16 412.08 298.1C413.85 296.65 415.61 295.19 417.36 293.72C417.57 293.54 417.79 293.36 418 293.18C423.58 288.49 429.06 283.69 434.45 278.78C434.61 278.63 434.78 278.48 434.94 278.33C436.61 276.81 438.27 275.27 439.92 273.73C440.05 273.61 440.17 273.49 440.3 273.37C443.89 270 447.44 266.58 450.94 263.12C450.96 263.1 450.99 263.07 451.01 263.05C452.68 261.39 454.35 259.72 456 258.04C456.16 257.88 456.32 257.71 456.48 257.55C461.6 252.34 466.61 247.03 471.5 241.62C471.62 241.48 471.75 241.35 471.87 241.21C473.4 239.51 474.93 237.8 476.44 236.09C476.54 235.98 476.64 235.86 476.74 235.75C479.99 232.05 483.2 228.3 486.34 224.52L226.62 90.6699C221.91 94.1299 217.11 97.4799 212.21 100.71C211.96 100.88 211.71 101.04 211.45 101.21C210.11 102.09 208.77 102.96 207.41 103.83C207.06 104.05 206.7 104.28 206.35 104.5C205.08 105.31 203.8 106.1 202.52 106.9C202.14 107.14 201.76 107.37 201.37 107.6C200.08 108.39 198.79 109.16 197.5 109.93C197.14 110.14 196.78 110.36 196.42 110.57C195.04 111.38 193.65 112.19 192.26 112.99C191.99 113.14 191.72 113.3 191.45 113.46C186.37 116.35 181.21 119.12 175.98 121.77C175.76 121.88 175.53 121.99 175.31 122.11C173.84 122.85 172.36 123.59 170.87 124.31C170.45 124.51 170.04 124.71 169.62 124.91C168.32 125.54 167.01 126.16 165.7 126.78C165.21 127.01 164.72 127.24 164.22 127.47C162.96 128.05 161.71 128.63 160.45 129.19C159.94 129.42 159.42 129.65 158.91 129.88C157.64 130.44 156.37 131 155.1 131.55C154.61 131.76 154.11 131.98 153.62 132.19C152.26 132.77 150.9 133.33 149.53 133.9C149.13 134.07 148.72 134.24 148.32 134.4C146.62 135.09 144.91 135.77 143.2 136.44C143.14 136.47 143.07 136.49 143.01 136.52C141.17 137.24 139.32 137.94 137.46 138.62C137.36 138.66 137.26 138.69 137.16 138.73C135.48 139.35 133.8 139.96 132.11 140.55C131.63 140.72 131.15 140.88 130.67 141.05C129.36 141.51 128.05 141.96 126.73 142.4C126.13 142.6 125.52 142.8 124.92 143C123.72 143.4 122.51 143.79 121.3 144.17C120.65 144.38 120 144.58 119.35 144.78C118.18 145.14 117 145.5 115.82 145.86C115.16 146.06 114.5 146.26 113.83 146.45C112.64 146.8 111.44 147.14 110.25 147.48C109.61 147.66 108.97 147.84 108.33 148.02C107.05 148.37 105.77 148.72 104.48 149.05C103.93 149.19 103.38 149.34 102.83 149.49C101.16 149.92 99.48 150.34 97.8 150.75C97.64 150.79 97.49 150.83 97.33 150.87C95.48 151.32 93.62 151.75 91.76 152.16C91.29 152.27 90.81 152.36 90.34 152.47C88.97 152.77 87.61 153.07 86.24 153.35C85.58 153.49 84.92 153.62 84.26 153.75C83.07 153.99 81.89 154.22 80.7 154.45C79.98 154.59 79.25 154.72 78.52 154.85C77.39 155.06 76.26 155.26 75.13 155.45C74.38 155.58 73.63 155.7 72.88 155.83C71.76 156.01 70.64 156.19 69.51 156.37C68.76 156.48 68.02 156.6 67.27 156.71C66.12 156.88 64.96 157.04 63.81 157.2C63.1 157.3 62.39 157.4 61.68 157.49C60.41 157.65 59.14 157.81 57.87 157.96C57.28 158.03 56.69 158.11 56.1 158.17C54.24 158.38 52.38 158.57 50.52 158.75H50.49C50.22 158.75 44.09 158.75 35.24 158.76L0 158.78V194.35C0.49 194.35 0.98 194.34 1.47 194.34C17.76 194.34 33.42 195.6 48.36 198.03L48.38 198.01Z" fill="#357DE8"/>
<path d="M189.09 409.229C188.79 409.299 188.48 409.379 188.18 409.449C188.65 409.339 189.12 409.229 189.58 409.109C189.55 409.109 189.53 409.119 189.5 409.129C189.36 409.159 189.23 409.199 189.09 409.229Z" fill="#1868DB"/>
<path d="M74.8498 424.811C74.0698 424.831 73.2898 424.851 72.5098 424.881C73.2898 424.861 74.0698 424.841 74.8498 424.811Z" fill="#1868DB"/>
<path d="M89.1692 424.18C89.7092 424.15 90.2392 424.11 90.7692 424.08C90.2492 424.11 89.7292 424.15 89.2092 424.18C89.1892 424.18 89.1792 424.18 89.1592 424.18H89.1692Z" fill="#1868DB"/>
<path d="M96.3096 423.73C97.0196 423.68 97.7196 423.63 98.4296 423.58C98.3696 423.58 98.3096 423.58 98.2496 423.59C97.5996 423.64 96.9596 423.69 96.3096 423.73Z" fill="#1868DB"/>
<path d="M127.159 420.69C127.829 420.6 128.509 420.52 129.179 420.43C129.079 420.44 128.989 420.45 128.889 420.47C128.309 420.54 127.739 420.62 127.159 420.69Z" fill="#1868DB"/>
<path d="M157.739 415.939C158.339 415.829 158.939 415.719 159.529 415.609C159.409 415.629 159.299 415.649 159.179 415.669C158.699 415.759 158.219 415.849 157.729 415.939H157.739Z" fill="#1868DB"/>
<path d="M65.21 425.02C65.93 425.02 66.65 425 67.37 424.98C66.65 424.99 65.93 425.01 65.21 425.02Z" fill="#1868DB"/>
<path d="M82.0399 424.539C81.4899 424.559 80.9399 424.579 80.3799 424.599C80.9299 424.579 81.4799 424.559 82.0399 424.539Z" fill="#1868DB"/>
<path d="M152.659 416.85C151.939 416.98 151.209 417.1 150.489 417.23C151.209 417.11 151.939 416.98 152.659 416.85Z" fill="#1868DB"/>
<path d="M144.92 418.141C144.44 418.221 143.96 418.301 143.47 418.371C143.95 418.291 144.43 418.211 144.92 418.141Z" fill="#1868DB"/>
<path d="M141.159 418.729C141.929 418.609 142.699 418.499 143.469 418.379C143.949 418.299 144.429 418.219 144.919 418.149C146.019 417.969 147.109 417.789 148.209 417.609C145.859 417.999 143.519 418.379 141.159 418.739V418.729Z" fill="#1868DB"/>
<path d="M150.39 417.24C150.39 417.24 150.46 417.23 150.49 417.22C151.21 417.1 151.94 416.97 152.66 416.84C154.35 416.54 156.05 416.24 157.74 415.93C158.22 415.84 158.71 415.75 159.19 415.66C156.26 416.21 153.33 416.73 150.39 417.23V417.24Z" fill="#1868DB"/>
<path d="M189.5 409.131C189.5 409.131 189.55 409.121 189.58 409.111C191.89 408.541 194.19 407.971 196.48 407.371C196.86 407.271 197.24 407.171 197.62 407.071C197.84 407.011 198.07 406.951 198.29 406.891C195.37 407.661 192.44 408.411 189.5 409.131Z" fill="#1868DB"/>
<path d="M58.0391 425.07C60.4291 425.07 62.8291 425.05 65.2091 425.02C65.9291 425.02 66.6491 425 67.3691 424.98C64.2591 425.03 61.1491 425.07 58.0391 425.07Z" fill="#1868DB"/>
<path d="M100.93 423.379C101.86 423.309 102.79 423.239 103.72 423.159C104.43 423.099 105.14 423.039 105.85 422.979C106.51 422.919 107.17 422.859 107.83 422.789C105.53 422.999 103.23 423.189 100.92 423.369L100.93 423.379Z" fill="#1868DB"/>
<path d="M70.1797 424.921C70.9597 424.901 71.7297 424.891 72.5097 424.871C73.2897 424.851 74.0697 424.831 74.8497 424.801C75.5497 424.781 76.2497 424.751 76.9497 424.721C74.6997 424.801 72.4397 424.861 70.1797 424.911V424.921Z" fill="#1868DB"/>
<path d="M209.81 403.74C210 403.68 210.2 403.63 210.39 403.58C210.98 403.41 211.57 403.24 212.16 403.07C214.14 402.5 216.11 401.91 218.08 401.32C215.33 402.15 212.57 402.96 209.81 403.75V403.74Z" fill="#1868DB"/>
<path d="M119.979 421.56C119.979 421.56 119.979 421.56 119.989 421.56C120.679 421.48 121.369 421.4 122.059 421.32C123.759 421.12 125.459 420.91 127.159 420.7C127.739 420.63 128.309 420.55 128.889 420.48C125.919 420.87 122.949 421.23 119.979 421.57V421.56Z" fill="#1868DB"/>
<path d="M217.709 383.439C217.609 382.079 217.489 380.719 217.369 379.369C217.489 380.719 217.599 382.079 217.709 383.439Z" fill="#1868DB"/>
<path d="M89.2197 424.18C89.7397 424.15 90.2597 424.12 90.7797 424.08C92.6297 423.97 94.4697 423.85 96.3197 423.72C96.9697 423.67 97.6097 423.63 98.2597 423.58C95.2497 423.8 92.2397 424 89.2197 424.18Z" fill="#1868DB"/>
<path d="M131.149 420.161C132.399 419.991 133.639 419.831 134.889 419.651C135.419 419.581 135.939 419.511 136.469 419.431C137.119 419.341 137.769 419.231 138.429 419.141C136.009 419.501 133.589 419.841 131.159 420.161H131.149Z" fill="#1868DB"/>
<path d="M79.8691 424.63C80.0391 424.63 80.2191 424.62 80.3891 424.61C80.9391 424.59 81.4891 424.57 82.0491 424.55C83.9791 424.47 85.9091 424.36 87.8391 424.26C85.1891 424.4 82.5291 424.53 79.8691 424.64V424.63Z" fill="#1868DB"/>
<path d="M217.19 377.511C217.07 376.301 216.95 375.081 216.81 373.881C216.95 375.081 217.07 376.291 217.19 377.511Z" fill="#1868DB"/>
<path d="M200.629 406.27C201.519 406.03 202.419 405.8 203.309 405.56C203.959 405.38 204.609 405.2 205.259 405.02C205.979 404.82 206.699 404.62 207.409 404.41C205.149 405.04 202.889 405.66 200.619 406.27H200.629Z" fill="#1868DB"/>
<path d="M160.68 415.38C163.32 414.88 165.96 414.36 168.6 413.82C165.97 414.36 163.33 414.88 160.68 415.38Z" fill="#1868DB"/>
<path d="M218.099 389.349C218.019 387.849 217.919 386.349 217.819 384.859C217.929 386.349 218.019 387.839 218.099 389.349Z" fill="#1868DB"/>
<path d="M171.149 413.291C171.969 413.121 172.789 412.951 173.609 412.781C174.239 412.651 174.859 412.511 175.489 412.371C176.339 412.191 177.179 411.991 178.029 411.801C175.739 412.311 173.449 412.811 171.149 413.291Z" fill="#1868DB"/>
<path d="M218.359 395.269C218.299 393.619 218.229 391.989 218.149 390.359C218.229 391.989 218.309 393.619 218.359 395.269Z" fill="#1868DB"/>
<path d="M215.7 365.331C215.58 364.541 215.48 363.751 215.35 362.971C215.47 363.751 215.58 364.541 215.7 365.331Z" fill="#1868DB"/>
<path d="M180.35 411.29C180.44 411.27 180.53 411.25 180.62 411.23C181.31 411.07 182.01 410.91 182.7 410.75C184.53 410.33 186.36 409.89 188.18 409.45C188.48 409.38 188.79 409.3 189.09 409.23C186.18 409.94 183.27 410.62 180.35 411.29Z" fill="#1868DB"/>
<path d="M129.18 420.43C129.47 420.39 129.76 420.35 130.05 420.32C129.84 420.35 129.62 420.37 129.41 420.4C129.33 420.41 129.26 420.42 129.18 420.43Z" fill="#1558BC"/>
<path d="M159.529 415.61C159.689 415.58 159.839 415.55 159.999 415.52C159.919 415.54 159.829 415.55 159.749 415.57C159.679 415.58 159.609 415.6 159.539 415.61H159.529Z" fill="#1558BC"/>
<path d="M88.8594 424.2C88.9694 424.2 89.0694 424.19 89.1794 424.18C89.1794 424.18 89.1694 424.18 89.1594 424.18C89.0594 424.18 88.9594 424.19 88.8594 424.2Z" fill="#1558BC"/>
<path d="M199.72 406.52C199.32 406.63 198.92 406.73 198.52 406.84C198.92 406.74 199.32 406.63 199.72 406.52Z" fill="#1558BC"/>
<path d="M67.3691 424.979C67.9191 424.979 68.4591 424.959 69.0091 424.949C68.4691 424.959 67.9191 424.969 67.3791 424.979H67.3691Z" fill="#1558BC"/>
<path d="M180.05 411.359C179.81 411.409 179.57 411.469 179.34 411.519C179.58 411.469 179.82 411.409 180.05 411.359Z" fill="#1558BC"/>
<path d="M98.4297 423.57C98.8497 423.54 99.2797 423.51 99.6997 423.48C99.3397 423.51 98.9797 423.53 98.6197 423.56C98.5597 423.56 98.4897 423.57 98.4297 423.58V423.57Z" fill="#1558BC"/>
<path d="M119.959 421.561C119.769 421.581 119.579 421.601 119.399 421.631C119.589 421.611 119.779 421.591 119.959 421.561Z" fill="#1558BC"/>
<path d="M150.229 417.27C150.009 417.31 149.789 417.35 149.579 417.38C149.799 417.34 150.019 417.3 150.229 417.27Z" fill="#1558BC"/>
<path d="M140.53 418.83C140.03 418.91 139.52 418.98 139.02 419.06C139.52 418.99 140.03 418.91 140.53 418.83Z" fill="#1558BC"/>
<path d="M79.65 424.641C79.09 424.661 78.52 424.691 77.96 424.711C78.53 424.691 79.09 424.671 79.65 424.641Z" fill="#1558BC"/>
<path d="M110.28 422.57C109.73 422.62 109.19 422.68 108.64 422.73C109.19 422.68 109.73 422.63 110.28 422.57Z" fill="#1558BC"/>
<path d="M218.51 401.18C218.37 401.22 218.23 401.26 218.09 401.31C218.23 401.27 218.37 401.23 218.51 401.19V401.18Z" fill="#1558BC"/>
<path d="M168.6 413.819C168.73 413.789 168.87 413.769 169 413.739C169.45 413.649 169.9 413.549 170.35 413.459C170.62 413.399 170.88 413.339 171.15 413.289C170.3 413.469 169.45 413.649 168.6 413.819Z" fill="#1558BC"/>
<path d="M159.749 415.571C159.829 415.551 159.919 415.541 159.999 415.521C160.229 415.481 160.449 415.431 160.679 415.391C160.369 415.451 160.059 415.511 159.739 415.571H159.749Z" fill="#1558BC"/>
<path d="M207.419 404.41C207.819 404.3 208.219 404.2 208.609 404.08C208.859 404.01 209.109 403.94 209.359 403.87C209.509 403.83 209.659 403.78 209.809 403.74C209.009 403.97 208.209 404.19 207.409 404.41H207.419Z" fill="#1558BC"/>
<path d="M14.0596 425.049C18.3396 425.049 22.5896 425.049 26.6796 425.049C30.6596 425.049 34.4696 425.049 37.9896 425.049C38.3896 425.049 38.7796 425.049 39.1696 425.049C31.7896 425.049 22.9696 425.049 14.0596 425.039V425.049Z" fill="#1558BC"/>
<path d="M178.029 411.799C178.459 411.699 178.899 411.619 179.339 411.519C179.579 411.469 179.819 411.409 180.049 411.359C180.149 411.339 180.249 411.309 180.349 411.289C179.579 411.469 178.809 411.629 178.029 411.809V411.799Z" fill="#1558BC"/>
<path d="M198.289 406.89C198.369 406.87 198.439 406.85 198.519 406.83C198.919 406.73 199.319 406.62 199.719 406.51C200.029 406.43 200.329 406.34 200.629 406.26C199.849 406.47 199.069 406.68 198.289 406.88V406.89Z" fill="#1558BC"/>
<path d="M107.829 422.79C108.099 422.77 108.369 422.75 108.639 422.72C109.189 422.67 109.729 422.62 110.279 422.56C110.419 422.55 110.569 422.53 110.709 422.52C109.749 422.61 108.789 422.7 107.829 422.79Z" fill="#1558BC"/>
<path d="M138.42 419.14C138.62 419.11 138.82 419.09 139.02 419.06C139.52 418.99 140.03 418.91 140.53 418.83C140.74 418.8 140.95 418.76 141.16 418.73C140.25 418.87 139.34 419.01 138.42 419.14Z" fill="#1558BC"/>
<path d="M87.8291 424.25C88.1691 424.23 88.5091 424.22 88.8591 424.2C88.9591 424.2 89.0591 424.19 89.1591 424.18C88.7191 424.21 88.2791 424.22 87.8391 424.25H87.8291Z" fill="#1558BC"/>
<path d="M76.9495 424.729C77.2895 424.719 77.6295 424.709 77.9595 424.699C78.5295 424.679 79.0895 424.659 79.6495 424.629C79.7195 424.629 79.7895 424.629 79.8595 424.619C78.8895 424.659 77.9095 424.689 76.9395 424.729H76.9495Z" fill="#1558BC"/>
<path d="M148.209 417.6C148.669 417.52 149.129 417.46 149.579 417.38C149.799 417.34 150.019 417.3 150.229 417.27C150.279 417.27 150.329 417.25 150.379 417.24C149.649 417.36 148.929 417.48 148.199 417.6H148.209Z" fill="#1558BC"/>
<path d="M129.409 420.4C129.619 420.37 129.839 420.35 130.049 420.32C130.419 420.27 130.779 420.21 131.149 420.16C130.569 420.24 129.989 420.32 129.409 420.4Z" fill="#1558BC"/>
<path d="M98.6194 423.561C98.9794 423.531 99.3394 423.511 99.6994 423.481C100.109 423.451 100.519 423.411 100.919 423.381C100.149 423.441 99.3794 423.511 98.6094 423.561H98.6194Z" fill="#1558BC"/>
<path d="M67.3799 424.98C67.9199 424.98 68.4699 424.96 69.0099 424.95C69.3999 424.95 69.7899 424.93 70.1799 424.92C69.2499 424.94 68.3099 424.96 67.3799 424.98Z" fill="#1558BC"/>
<path d="M118.06 421.761C118.5 421.711 118.95 421.671 119.4 421.621C119.59 421.601 119.78 421.581 119.96 421.551C119.96 421.551 119.97 421.551 119.98 421.551C119.34 421.621 118.7 421.691 118.06 421.761Z" fill="#1558BC"/>
<path d="M217.809 384.869C217.779 384.389 217.739 383.919 217.699 383.439C217.739 383.919 217.769 384.389 217.809 384.869Z" fill="#1558BC"/>
<path d="M0.0195312 194.33C0.509531 194.33 0.999531 194.32 1.48953 194.32C0.999531 194.32 0.509531 194.32 0.0195312 194.33Z" fill="#1558BC"/>
<path d="M218.379 395.82C218.379 395.63 218.369 395.45 218.359 395.26C218.359 395.44 218.369 395.63 218.379 395.82Z" fill="#1558BC"/>
<path d="M218.15 390.36C218.13 390.02 218.12 389.69 218.1 389.35C218.12 389.69 218.14 390.02 218.15 390.36Z" fill="#1558BC"/>
<path d="M215.349 362.969C215.069 361.149 214.759 359.339 214.439 357.539C214.759 359.329 215.059 361.139 215.349 362.969Z" fill="#1558BC"/>
<path d="M216.809 373.88C216.719 373.09 216.619 372.31 216.529 371.52C216.629 372.31 216.719 373.09 216.809 373.88Z" fill="#1558BC"/>
<path d="M159.189 415.67C159.309 415.65 159.419 415.63 159.539 415.61C159.609 415.6 159.679 415.58 159.749 415.57C159.559 415.61 159.379 415.64 159.189 415.67Z" fill="#1558BC"/>
<path d="M98.25 423.581C98.31 423.581 98.37 423.581 98.43 423.571C98.49 423.571 98.56 423.561 98.62 423.551C98.5 423.551 98.37 423.571 98.25 423.581Z" fill="#1558BC"/>
<path d="M128.89 420.47C128.99 420.46 129.08 420.45 129.18 420.43C129.26 420.42 129.33 420.41 129.41 420.4C129.24 420.42 129.06 420.44 128.89 420.47Z" fill="#1558BC"/>
<path d="M11.6993 425.05C12.2593 425.05 12.8193 425.05 13.3793 425.05C13.6093 425.05 13.8393 425.05 14.0693 425.05C22.9793 425.05 31.7993 425.05 39.1793 425.06C39.4493 425.06 39.7293 425.06 39.9893 425.06C41.7893 425.06 43.5093 425.06 45.1093 425.06C45.5293 425.06 45.9493 425.06 46.3593 425.06C47.8993 425.06 49.3293 425.06 50.6193 425.06C50.7293 425.06 50.8393 425.06 50.9493 425.06C52.4293 425.06 53.7093 425.06 54.7693 425.06C55.0293 425.06 55.2793 425.06 55.5093 425.06C56.0593 425.06 56.5193 425.06 56.8993 425.06C57.0793 425.06 57.2393 425.06 57.3793 425.06C57.7093 425.06 57.9393 425.06 58.0393 425.06C61.1593 425.06 64.2693 425.02 67.3693 424.97C68.3093 424.95 69.2393 424.93 70.1693 424.91C72.4293 424.86 74.6793 424.8 76.9393 424.72C77.9093 424.69 78.8893 424.65 79.8593 424.61C82.5193 424.5 85.1693 424.38 87.8293 424.23C88.2693 424.21 88.7093 424.19 89.1493 424.16C89.1693 424.16 89.1893 424.16 89.2093 424.16C92.2293 423.99 95.2393 423.79 98.2493 423.56C98.3693 423.56 98.4993 423.54 98.6193 423.53C99.3893 423.47 100.159 423.41 100.929 423.35C103.229 423.17 105.539 422.98 107.839 422.77C108.799 422.68 109.759 422.59 110.719 422.5C113.169 422.26 115.619 422.01 118.059 421.74C118.699 421.67 119.339 421.61 119.979 421.53C122.959 421.19 125.929 420.83 128.889 420.44C129.059 420.42 129.239 420.4 129.409 420.37C129.989 420.29 130.569 420.21 131.149 420.13C133.579 419.8 135.999 419.46 138.419 419.11C139.329 418.97 140.249 418.84 141.159 418.7C143.509 418.34 145.859 417.96 148.209 417.57C148.939 417.45 149.659 417.33 150.389 417.21C153.329 416.71 156.259 416.19 159.189 415.64C159.379 415.61 159.559 415.57 159.749 415.54C160.059 415.48 160.369 415.42 160.689 415.36C163.329 414.86 165.969 414.34 168.609 413.8C169.459 413.63 170.309 413.45 171.159 413.27C173.459 412.79 175.749 412.29 178.039 411.78C178.809 411.61 179.579 411.44 180.359 411.26C183.279 410.6 186.199 409.91 189.099 409.2C189.239 409.17 189.369 409.13 189.509 409.1C192.449 408.38 195.379 407.63 198.299 406.86C199.079 406.66 199.859 406.44 200.639 406.24C202.909 405.63 205.169 405.02 207.429 404.38C208.229 404.16 209.029 403.93 209.829 403.71C212.599 402.92 215.349 402.11 218.099 401.28C218.239 401.24 218.379 401.2 218.519 401.15C218.489 399.35 218.449 397.57 218.389 395.79C218.389 395.6 218.379 395.42 218.369 395.23C218.309 393.58 218.239 391.95 218.159 390.32C218.139 389.98 218.129 389.65 218.109 389.31C218.029 387.81 217.929 386.31 217.829 384.82C217.799 384.34 217.759 383.87 217.719 383.39C217.619 382.03 217.499 380.67 217.379 379.32C217.319 378.7 217.259 378.08 217.199 377.46C217.079 376.25 216.959 375.04 216.819 373.83C216.729 373.04 216.629 372.26 216.539 371.47C216.409 370.43 216.289 369.39 216.149 368.36C216.009 367.33 215.859 366.3 215.709 365.27C215.589 364.48 215.489 363.69 215.359 362.91C215.079 361.09 214.769 359.28 214.449 357.48C198.329 267.61 135.919 212.21 48.3893 197.94C33.4593 195.51 17.7993 194.25 1.4993 194.25C1.0093 194.25 0.519297 194.25 0.0292969 194.26V424.98C0.689297 424.98 1.3493 424.98 2.0093 424.98C5.1893 424.98 8.4493 424.98 11.7093 424.98L11.6993 425.05Z" fill="#1558BC"/>
<path d="M960.019 0H721.779L960.019 267.66V0Z" fill="#1868DB"/>
<path d="M749.16 359.869L715.93 376.759L749.16 359.869Z" fill="#1868DB"/>
<path d="M749.159 359.87L549.279 256.9V461.45L715.929 376.76L749.159 359.87Z" fill="#357DE8"/>
</g>
<defs>
<clipPath id="clip0_287_70547">
<rect width="960.019" height="540.009" fill="white"/>
</clipPath>
</defs>
</svg>
