<svg width="961" height="541" viewBox="0 0 961 541" fill="none" xmlns="http://www.w3.org/2000/svg">
<g clip-path="url(#clip0_287_70890)">
<path d="M547.069 462.23L394.039 540H547.069V462.23Z" fill="#BF63F3"/>
<path d="M547.069 257.68V183.65C676.699 200.34 874.719 279.93 960.039 323.32V270.95L718.879 0H591.909C575.729 84.18 537.629 160.87 484.119 225.25L547.069 257.68Z" fill="#BF63F3"/>
<path d="M308.698 0H46.8984L224.418 91.45C258.808 66.18 288.008 35.09 308.698 0Z" fill="#BF63F3"/>
<path d="M547.068 257.68L746.948 360.65L652.578 408.61L547.068 462.23V540H960.038V323.32C874.718 279.92 676.698 200.34 547.068 183.65V257.68Z" fill="#C97CF4"/>
<path d="M224.408 91.45L484.118 225.25C537.618 160.87 575.718 84.18 591.908 0H308.688C287.998 35.09 258.788 66.19 224.408 91.45Z" fill="#C97CF4"/>
<path d="M652.579 408.61L547.069 462.23V257.68L484.119 225.25L224.409 91.45L46.8991 0H0.0390625V159.52C22.8791 159.51 48.2891 159.5 48.3291 159.49C111.149 153.54 173.459 128.89 224.409 91.45L484.119 225.25C415.559 307.75 321.709 370.03 216.299 401.96C216.319 403.47 216.349 404.97 216.349 406.5C216.349 423.27 214.949 439.12 212.289 454.04C206.289 487.61 193.779 516.39 175.879 540.01H394.039L547.069 462.24L652.579 408.62V408.61Z" fill="#C97CF4"/>
<path d="M216.35 406.501C216.35 404.981 216.33 403.471 216.3 401.971C216.16 402.011 216.02 402.051 215.88 402.091C213.13 402.921 210.37 403.731 207.61 404.521C206.81 404.751 206.01 404.971 205.21 405.191C202.95 405.821 200.69 406.441 198.42 407.051C197.64 407.261 196.86 407.471 196.08 407.671C190.13 409.231 184.15 410.701 178.13 412.061C177.36 412.241 176.59 412.401 175.81 412.581C173.52 413.091 171.23 413.591 168.93 414.071C168.08 414.251 167.23 414.431 166.38 414.601C163.75 415.141 161.11 415.661 158.46 416.161C158.08 416.231 157.69 416.311 157.31 416.381C154.27 416.951 151.22 417.491 148.16 418.011C147.43 418.131 146.71 418.251 145.98 418.371C143.63 418.761 141.29 419.141 138.93 419.501C138.02 419.641 137.11 419.781 136.19 419.911C133.77 420.271 131.35 420.611 128.92 420.931C128.26 421.021 127.61 421.111 126.95 421.201C123.89 421.601 120.82 421.971 117.75 422.321C117.11 422.391 116.47 422.461 115.83 422.531C113.39 422.801 110.94 423.051 108.49 423.291C107.53 423.381 106.57 423.471 105.61 423.561C103.31 423.771 101.01 423.961 98.7 424.141C97.87 424.211 97.04 424.281 96.2 424.341C93.12 424.571 90.03 424.771 86.94 424.951C86.49 424.981 86.05 424.991 85.6 425.021C82.95 425.161 80.29 425.291 77.63 425.401C76.66 425.441 75.68 425.471 74.71 425.511C72.46 425.591 70.2 425.651 67.94 425.701C67 425.721 66.07 425.741 65.13 425.761C62.02 425.811 58.91 425.851 55.79 425.851C55.69 425.851 55.46 425.851 55.13 425.851C54.99 425.851 54.82 425.851 54.65 425.851C54.27 425.851 53.81 425.851 53.26 425.851C53.02 425.851 52.79 425.851 52.52 425.851C51.46 425.851 50.18 425.851 48.7 425.851C48.59 425.851 48.48 425.851 48.37 425.851C47.08 425.851 45.66 425.851 44.11 425.851C43.7 425.851 43.29 425.851 42.86 425.851C41.26 425.851 39.55 425.851 37.74 425.851C37.47 425.851 37.2 425.851 36.93 425.851C29.55 425.851 20.73 425.851 11.82 425.841C11.59 425.841 11.36 425.841 11.13 425.841C10.57 425.841 10.01 425.841 9.45 425.841C8.25 425.841 7.05 425.841 5.85 425.841C5.07 425.841 4.3 425.841 3.53 425.841C2.35 425.841 1.17 425.841 0 425.841V540.021H175.84C193.73 516.401 206.24 487.631 212.25 454.051C214.92 439.141 216.31 423.291 216.31 406.511L216.35 406.501Z" fill="#BF63F3"/>
<path d="M212.239 358.319C214.709 372.069 216.079 386.629 216.299 401.959C321.709 370.029 415.559 307.739 484.119 225.249L224.409 91.4492C173.459 128.889 111.149 153.539 48.3291 159.489C48.2891 159.489 22.8791 159.509 0.0390625 159.519V195.099C16.0591 195.139 31.4691 196.389 46.1691 198.779C133.699 213.049 196.109 268.449 212.229 358.319H212.239Z" fill="#BF63F3"/>
<path d="M178.139 412.06C184.149 410.69 190.139 409.23 196.089 407.67C190.139 409.23 184.159 410.7 178.139 412.06Z" fill="#BF63F3"/>
<path d="M74.7387 425.51C72.4887 425.59 70.2287 425.65 67.9688 425.7C70.2287 425.65 72.4787 425.59 74.7387 425.51Z" fill="#BF63F3"/>
<path d="M215.879 402.09C213.129 402.92 210.369 403.73 207.609 404.52C210.379 403.73 213.129 402.92 215.879 402.09Z" fill="#BF63F3"/>
<path d="M205.21 405.189C202.95 405.819 200.69 406.439 198.42 407.049C200.69 406.439 202.95 405.829 205.21 405.189Z" fill="#BF63F3"/>
<path d="M136.209 419.92C133.789 420.28 131.369 420.62 128.939 420.94C131.369 420.61 133.789 420.27 136.209 419.92Z" fill="#BF63F3"/>
<path d="M166.389 414.6C163.759 415.14 161.119 415.66 158.469 416.16C161.109 415.66 163.749 415.14 166.389 414.6Z" fill="#BF63F3"/>
<path d="M145.999 418.381C143.649 418.771 141.309 419.151 138.949 419.511C141.299 419.151 143.649 418.771 145.999 418.381Z" fill="#BF63F3"/>
<path d="M105.629 423.57C103.329 423.78 101.029 423.97 98.7188 424.15C101.019 423.97 103.329 423.78 105.629 423.57Z" fill="#BF63F3"/>
<path d="M85.6184 425.029C82.9684 425.169 80.3084 425.299 77.6484 425.409C80.3084 425.299 82.9584 425.179 85.6184 425.029Z" fill="#BF63F3"/>
<path d="M3.56961 425.83C4.33961 425.83 5.11961 425.83 5.88961 425.83C5.91961 425.83 5.93961 425.83 5.96961 425.83C7.13961 425.83 8.31961 425.83 9.49961 425.83C10.0596 425.83 10.6196 425.83 11.1796 425.83C11.4096 425.83 11.6396 425.83 11.8696 425.83C20.7796 425.83 29.5996 425.83 36.9796 425.84C37.2496 425.84 37.5296 425.84 37.7896 425.84C39.5996 425.84 41.3096 425.84 42.9096 425.84C43.3296 425.84 43.7496 425.84 44.1596 425.84C45.7096 425.84 47.1296 425.84 48.4196 425.84C48.5296 425.84 48.6396 425.84 48.7496 425.84C50.2296 425.84 51.5096 425.84 52.5696 425.84C52.8296 425.84 53.0796 425.84 53.3096 425.84C53.8596 425.84 54.3196 425.84 54.6996 425.84C54.8796 425.84 55.0396 425.84 55.1796 425.84C55.5096 425.84 55.7396 425.84 55.8396 425.84C58.9596 425.84 62.0696 425.8 65.1796 425.75C66.1196 425.73 67.0496 425.71 67.9896 425.69C70.2496 425.64 72.4996 425.58 74.7596 425.5C75.7296 425.47 76.7096 425.43 77.6796 425.39C80.3396 425.28 82.9896 425.16 85.6496 425.01C86.0996 424.99 86.5396 424.97 86.9896 424.94C90.0796 424.76 93.1696 424.56 96.2496 424.33C97.0796 424.27 97.9196 424.2 98.7496 424.13C101.05 423.95 103.36 423.76 105.66 423.55C106.62 423.46 107.58 423.37 108.54 423.28C110.99 423.04 113.44 422.79 115.88 422.52C116.52 422.45 117.16 422.39 117.8 422.31C120.87 421.96 123.94 421.59 127 421.19C127.66 421.1 128.31 421.01 128.97 420.92C131.4 420.59 133.82 420.25 136.24 419.9C137.15 419.76 138.07 419.63 138.98 419.49C141.33 419.13 143.68 418.75 146.03 418.36C146.76 418.24 147.48 418.12 148.21 418C151.27 417.48 154.32 416.94 157.36 416.37C157.74 416.3 158.13 416.22 158.51 416.15C161.15 415.65 163.79 415.13 166.43 414.59C167.28 414.42 168.13 414.24 168.98 414.06C171.28 413.58 173.57 413.08 175.86 412.57C176.63 412.4 177.4 412.23 178.18 412.05C184.19 410.68 190.18 409.22 196.13 407.66C196.91 407.46 197.69 407.24 198.47 407.04C200.74 406.43 203 405.82 205.26 405.18C206.06 404.96 206.86 404.73 207.66 404.51C210.43 403.72 213.18 402.91 215.93 402.08C216.07 402.04 216.21 402 216.35 401.96C216.13 386.62 214.75 372.06 212.29 358.32C196.17 268.45 133.76 213.05 46.2296 198.78C31.5296 196.38 16.1196 195.14 0.0996094 195.1V425.82C0.699609 425.82 1.28961 425.82 1.89961 425.82C2.46961 425.82 3.04961 425.82 3.62961 425.82L3.56961 425.83Z" fill="#C97CF4"/>
<path d="M960.039 0H718.879L960.039 270.94V0Z" fill="#C97CF4"/>
<path d="M746.948 360.65L547.068 257.68V462.23L652.578 408.61L746.948 360.65Z" fill="#BF63F3"/>
</g>
<defs>
<clipPath id="clip0_287_70890">
<rect width="960.039" height="540.021" fill="white"/>
</clipPath>
</defs>
</svg>
