<svg width="960" height="540" viewBox="0 0 960 540" fill="none" xmlns="http://www.w3.org/2000/svg">
<g clip-path="url(#clip0_287_81364)">
<mask id="mask0_287_81364" style="mask-type:luminance" maskUnits="userSpaceOnUse" x="0" y="-1" width="960" height="541">
<path d="M959.99 -0.180664H0V539.809H959.99V-0.180664Z" fill="white"/>
</mask>
<g mask="url(#mask0_287_81364)">
<path d="M959.99 -0.180664H0V539.809H959.99V-0.180664Z" fill="#F0F1F2"/>
<path d="M842.35 -41.7104V-13.4705C842.35 19.0095 826.12 31.7095 797.17 31.7095H692.69C619.97 31.7095 581.15 68.4195 581.15 136.9C581.15 160.9 583.27 175.02 584.68 185.61H667.99C667.29 177.84 665.88 167.96 665.88 161.61C665.88 139.72 680 131.25 700.47 131.25H791.7C824.57 131.25 859.92 127.44 886.84 111.6C913.09 96.1495 931.32 69.2395 931.32 23.1395V-13.4604V-41.7104H842.36H842.35Z" fill="white"/>
<mask id="mask1_287_81364" style="mask-type:luminance" maskUnits="userSpaceOnUse" x="581" y="-1" width="321" height="187">
<path d="M901.23 -0.140684V15.1693C901.23 47.6493 885 60.3493 856.05 60.3493H751.56C678.84 60.3493 640.02 97.0593 640.02 165.539C640.02 173.159 640.24 179.779 640.57 185.619H667.97H584.66C583.25 175.029 581.13 160.909 581.13 136.909C581.13 68.4293 619.96 31.7193 692.67 31.7193H797.15C822.05 31.7193 837.53 22.3193 841.39 -0.950684L901.22 -0.130684L901.23 -0.140684Z" fill="white"/>
</mask>
<g mask="url(#mask1_287_81364)">
<path d="M762.68 135.98C760.55 132.19 758.44 129.01 756.52 126.38C754.56 123.77 752.82 121.69 751.34 120.1C750.59 119.32 749.93 118.64 749.36 118.05C748.77 117.49 748.26 117.04 747.85 116.68C747.03 115.97 746.58 115.66 746.49 115.74C746.4 115.82 746.7 116.29 747.35 117.15C747.68 117.58 748.1 118.1 748.61 118.72C749.11 119.35 749.68 120.09 750.34 120.94C751.66 122.63 753.25 124.77 755.07 127.41C756.85 130.07 758.85 133.23 760.9 136.97C763.78 142.29 766.3 147.86 768.35 153.67C770.41 159.47 772.18 165.48 773.4 171.63C773.99 174.71 774.49 177.84 774.72 181C774.97 184.16 775.07 187.36 774.81 190.55C774.56 193.73 774.13 196.94 773.21 200.03C772.31 203.12 771.03 206.12 769.31 208.88C768.85 209.55 768.39 210.22 767.92 210.89C767.43 211.54 766.87 212.14 766.35 212.78C765.28 214.02 764.07 215.14 762.78 216.19C760.2 218.27 757.25 219.96 754.07 221.24C747.7 223.8 740.57 224.85 733.29 224.9C718.65 224.92 703.3 221.5 688.26 215.15C679.72 211.56 672.33 207.5 665.78 203.42C659.23 199.34 653.54 195.21 648.4 191.24C638.15 183.25 630.12 175.85 622.77 168.84C615.46 161.79 608.81 155.13 602.06 147.72C595.35 140.29 588.45 132.16 581.45 121.67C575.54 112.82 569.94 102.63 565.8 91.2296C563.71 85.5396 562.03 79.5596 560.89 73.3596C559.73 67.1796 559.12 60.7696 559.28 54.3296C559.47 47.8996 560.43 41.4096 562.5 35.2596C564.59 29.1396 567.75 23.3196 572.23 18.6996C572.51 18.4096 572.77 18.0996 573.06 17.8296L573.95 17.0196C574.55 16.4896 575.11 15.9196 575.75 15.4296L577.66 13.9796C578.28 13.4796 579 13.0996 579.66 12.6596C580.98 11.7496 582.45 11.0896 583.85 10.3296C585.33 9.71956 586.76 9.00956 588.29 8.53956C594.31 6.38956 600.71 5.62956 606.95 5.71956C619.53 5.98956 631.24 10.4996 641.07 16.4296C646.02 19.3596 650.57 22.6496 654.77 26.0196C658.98 29.3796 662.85 32.8196 666.46 36.1696C673.65 42.9096 679.8 49.2096 684.79 54.6996C687.24 57.4796 689.5 59.9696 691.37 62.2796C692.32 63.4196 693.21 64.4896 694.04 65.4796C694.83 66.4996 695.56 67.4296 696.23 68.2796L698.59 71.2996L700.85 74.3996C701.6 75.4396 702.38 76.4496 703.1 77.5096L705.26 80.6896C707.85 84.4596 711.31 89.9796 715.09 97.1996C718.84 104.42 722.81 113.43 725.67 124.19C726.02 125.54 726.38 126.9 726.74 128.29C727.02 129.69 727.3 131.12 727.58 132.56C728.19 135.45 728.65 138.42 728.88 141.48C729.12 144.53 729.11 147.66 728.7 150.78C728.26 153.89 727.41 156.99 725.86 159.8C724.36 162.63 722.12 165.07 719.39 167.01C716.66 168.95 713.46 170.34 710.06 171.2C706.65 172.03 703.05 172.27 699.4 171.99C695.75 171.69 692.07 170.9 688.44 169.75C684.81 168.6 681.2 167.11 677.65 165.38C675.85 164.57 674.12 163.59 672.35 162.68C670.63 161.67 668.85 160.73 667.16 159.62C660.29 155.37 653.78 150.26 647.71 144.49C635.57 132.94 625.48 118.56 618.03 102.71C610.56 86.8596 605.54 69.5796 602.82 52.1296C602.21 47.7896 601.96 43.4296 602.48 39.1996C603 34.9896 604.36 30.8796 606.67 27.4296C608.95 23.9696 612.25 21.2896 616.13 20.0596C620 18.7996 624.27 18.8096 628.26 19.7596C633.94 21.0796 638.88 24.3896 642.95 28.3096C647.04 32.2596 650.38 36.8296 653.34 41.4596C659.26 50.7296 663.39 60.4396 666.14 69.9396C668.9 79.4496 670.29 88.7896 670.63 97.5796C670.94 106.36 669.86 114.64 667.84 122.1C665.82 129.57 662.85 136.23 659.41 141.99C658.49 143.35 657.67 144.76 656.62 145.96C656.11 146.56 655.67 147.23 655.11 147.77C654.57 148.33 654.04 148.88 653.51 149.43C651.29 151.51 648.98 153.34 646.51 154.71C641.64 157.58 636.59 159.16 631.9 160.11C627.21 161.08 622.84 161.42 618.93 161.56C609.67 161.89 600.64 161.01 591.95 159.81C583.25 158.58 574.84 156.97 566.69 155.27C550.37 151.85 535.01 148.1 520.07 145.19C512.6 143.75 505.23 142.51 497.92 141.67C494.26 141.3 490.62 140.95 486.98 140.84C485.17 140.74 483.35 140.78 481.54 140.76C479.73 140.83 477.92 140.84 476.12 141.02C474.32 141.12 472.53 141.39 470.75 141.63C468.98 141.97 467.2 142.26 465.47 142.77C462 143.71 458.59 145 455.5 146.88C449.3 150.63 444.65 156.71 442.47 163.44C442.31 163.9 442.15 164.35 441.99 164.79C441.87 165.24 441.75 165.69 441.64 166.13C441.42 167.01 441.18 167.86 441 168.68C440.86 169.51 440.72 170.32 440.59 171.09C440.46 171.86 440.33 172.61 440.29 173.33C440.18 174.77 440.01 176.08 439.99 177.28C439.98 178.48 439.97 179.55 439.96 180.51C440.08 184.33 440.38 186.22 440.56 186.21C440.78 186.21 440.89 184.3 441.1 180.53C441.18 179.59 441.26 178.54 441.35 177.36C441.44 176.19 441.67 174.92 441.83 173.52C441.9 172.82 442.05 172.1 442.2 171.36C442.35 170.62 442.5 169.84 442.66 169.04C442.85 168.25 443.1 167.44 443.33 166.6C443.45 166.18 443.57 165.75 443.69 165.32C443.85 164.9 444.01 164.47 444.17 164.04C446.34 157.63 450.73 152.07 456.55 148.62C459.46 146.88 462.69 145.69 466.01 144.83C467.67 144.36 469.38 144.1 471.08 143.79C472.81 143.58 474.53 143.33 476.28 143.25C478.02 143.09 479.79 143.1 481.55 143.04C483.32 143.08 485.09 143.04 486.88 143.16C490.44 143.29 494.03 143.66 497.64 144.05C504.86 144.93 512.15 146.2 519.58 147.68C534.42 150.66 549.76 154.46 566.13 157.94C574.32 159.67 582.77 161.31 591.57 162.57C600.36 163.79 609.53 164.7 619.05 164.37C622.74 164.26 626.95 163.92 631.59 163.04C636.22 162.16 641.31 160.73 646.44 158.08C648.95 156.67 651.54 155.11 653.88 153.01C655.11 152.04 656.19 150.85 657.33 149.69C657.91 149.12 658.38 148.44 658.91 147.8C659.42 147.15 659.98 146.53 660.42 145.81C662.37 143.03 663.98 140.04 665.55 136.86C667.1 133.67 668.48 130.28 669.64 126.69C671.97 119.52 673.47 111.6 673.75 103.17C673.91 98.9596 673.7 94.6196 673.27 90.2396C672.85 85.8496 672.15 81.3796 671.18 76.8496C669.23 67.8096 666.16 58.5496 661.66 49.4996C659.4 44.9796 656.78 40.5196 653.78 36.1996C650.78 31.8796 647.35 27.6296 643.1 23.9896C640.33 21.6196 637.23 19.5896 633.81 18.1196C630.39 16.6796 626.7 15.8596 622.96 15.7996C619.23 15.7696 615.42 16.4996 612.04 18.2696C608.65 20.0296 605.86 22.7596 603.86 25.8796C601.68 29.2496 600.31 33.0796 599.63 37.0196C598.95 40.9596 598.97 44.9696 599.34 48.9096C599.71 52.8496 600.41 56.7296 601.21 60.5696C601.97 64.4296 602.89 68.2696 603.88 72.0996C607.88 87.4196 613.84 102.48 621.85 116.18C629.88 129.86 640.04 142.11 651.63 151.83C657.39 156.73 663.55 160.94 669.84 164.52C676.14 168.07 682.58 171.02 689.19 172.96C695.78 174.87 702.62 175.59 709 174.37C715.33 173.16 721.11 170.17 725.12 165.78C727.11 163.58 728.61 161.07 729.66 158.51C730.69 155.94 731.28 153.33 731.6 150.81C732.22 145.76 731.86 141.1 731.3 136.96C729.98 128.73 728.35 122.31 726.91 118.01C726.2 115.86 725.73 114.17 725.28 113.08C724.86 111.98 724.64 111.4 724.64 111.4C724.64 111.4 724.31 110.55 723.69 108.92C723.12 107.27 722.03 104.95 720.7 101.93C717.93 95.9496 713.52 87.4596 706.89 77.7796C700.33 68.0596 691.48 57.2396 680.77 46.1896C679.42 44.8196 678.05 43.4296 676.67 42.0296C675.26 40.6596 673.83 39.2696 672.39 37.8696C669.5 35.0796 666.48 32.2896 663.34 29.5296C657.05 24.0296 650.19 18.6596 642.54 14.1096C634.89 9.58956 626.42 5.86956 617.28 4.14956C608.19 2.44956 598.55 2.65956 589.5 5.38956C584.99 6.74956 580.64 8.76956 576.74 11.4596C572.84 14.1496 569.42 17.5296 566.69 21.3696C563.95 25.1996 561.85 29.4196 560.31 33.7696C558.79 38.1396 557.83 42.6396 557.28 47.1296C556.74 51.6196 556.62 56.1096 556.83 60.5196C557.07 64.9196 557.6 69.2496 558.37 73.4596C559.13 77.6796 560.14 81.7796 561.36 85.7296C562.57 89.6896 563.93 93.5196 565.46 97.1796C571.54 111.88 579.65 124.03 587.13 133.79C592.8 141.14 598.53 147.65 604.06 153.57C609.6 159.49 614.93 164.83 619.97 169.74C630.05 179.58 639.17 187.54 647.45 193.96C664.02 206.8 677.04 213.45 687.14 217.75C702.49 224.22 718.18 227.71 733.28 227.66C740.82 227.58 748.27 226.49 755.06 223.74C758.44 222.36 761.62 220.53 764.42 218.26C765.81 217.12 767.13 215.89 768.29 214.53C768.86 213.84 769.45 213.18 769.99 212.47C770.49 211.74 770.99 211.01 771.48 210.28C773.33 207.27 774.69 204.04 775.63 200.74C776.6 197.44 777.03 194.06 777.27 190.73C777.51 187.39 777.39 184.07 777.11 180.81C776.85 177.54 776.32 174.34 775.69 171.18C774.39 164.87 772.54 158.82 770.4 152.93C768.26 147.04 765.64 141.4 762.65 136L762.68 135.98Z" fill="#F8F8F8"/>
<path d="M697.18 -10.5703C693.31 -10.5703 690.56 -9.13031 689.16 -7.86031C687.74 -6.55031 687.46 -5.58031 687.62 -5.48031C687.83 -5.32031 688.48 -5.96031 689.92 -6.82031C691.36 -7.65031 693.77 -8.63031 697.15 -8.56031C699.53 -8.51031 701.88 -7.79031 704.11 -6.69031C706.34 -5.59031 708.45 -4.12031 710.53 -2.50031C714.67 0.789688 718.84 4.34969 722.88 8.31969C726.94 12.2797 730.91 16.6297 734.61 21.5597C736.45 24.0297 738.26 26.6197 739.92 29.3997C741.59 32.1697 743.18 35.0897 744.55 38.2097C747.72 45.2397 749.23 51.3897 750.02 56.6997C750.8 62.0197 750.88 66.5597 750.55 70.7297C750.21 74.8997 749.47 78.7397 748.2 82.6697C747.92 83.6697 747.52 84.6397 747.13 85.6397C746.77 86.6497 746.29 87.6397 745.8 88.6597C744.85 90.7097 743.62 92.7797 742.13 94.9297C740.9 96.7597 739.42 98.5197 737.83 100.29C736.21 102.04 734.42 103.72 732.49 105.33C730.53 106.91 728.43 108.41 726.2 109.8C723.95 111.16 721.58 112.39 719.11 113.47C709.21 117.79 697.73 119.17 687.21 118.15C681.95 117.63 676.89 116.64 672.29 115.18C667.64 113.87 663.5 112.01 659.79 110.3C652.46 106.66 647.23 102.83 644.42 100.6C643.59 99.9397 642.73 99.3097 641.91 98.6197L639.48 96.5297C636.62 94.0197 631.37 89.2397 625.72 81.7897C622.85 78.0997 619.97 73.7097 617.24 68.7197C614.52 63.7297 611.91 58.1197 609.97 51.9697C608.03 45.8397 606.76 39.1097 607.12 32.2197C607.49 25.3697 609.54 18.2997 613.68 12.5097C615.73 9.61969 618.33 7.11969 621.3 5.13969C624.29 3.17969 627.62 1.68969 631.11 0.739688C638.09 -1.24031 645.52 -1.09031 652.53 0.289688C657.5 1.23969 662.13 2.72969 666.45 4.39969C668.61 5.22969 670.64 6.22969 672.66 7.08969C673.66 7.54969 674.67 7.94969 675.62 8.42969C676.56 8.93969 677.49 9.42969 678.41 9.92969C679.33 10.4197 680.23 10.9097 681.13 11.3797C681.58 11.6197 682.02 11.8597 682.46 12.0897C682.9 12.3297 683.3 12.6197 683.72 12.8697C685.38 13.9197 687 14.9397 688.57 15.9297C688.96 16.1797 689.36 16.4197 689.73 16.6697C690.1 16.9397 690.46 17.2097 690.83 17.4797C691.56 18.0097 692.27 18.5397 692.97 19.0597C693.67 19.5797 694.37 20.0897 695.05 20.5897C695.73 21.0897 696.41 21.5697 697.02 22.1197C698.27 23.1797 699.48 24.1997 700.65 25.1897C701.23 25.6797 701.81 26.1697 702.37 26.6497C702.94 27.1197 703.43 27.6597 703.95 28.1397C704.97 29.1297 705.96 30.0897 706.91 31.0097C707.86 31.9297 708.79 32.7897 709.58 33.7197C711.21 35.5297 712.71 37.1897 714.08 38.6997C715.37 40.2797 716.49 41.7397 717.52 43.0297C718.13 43.7997 718.73 44.5597 719.32 45.3097C719.88 46.0897 720.41 46.8797 720.95 47.6597C722.02 49.2197 723.08 50.7497 724.12 52.2697C725.06 53.8497 725.99 55.3997 726.91 56.9297C727.37 57.6997 727.82 58.4597 728.27 59.2097C728.71 59.9697 729.08 60.7697 729.48 61.5297C730.27 63.0797 731.05 64.5997 731.82 66.1097C732.23 66.8497 732.54 67.6297 732.87 68.3997C733.2 69.1697 733.53 69.9297 733.85 70.6897C734.48 72.2097 735.19 73.6897 735.74 75.1997C736.28 76.7197 736.8 78.2197 737.33 79.7097C739.42 85.6697 740.82 91.5697 741.92 97.3697C742.79 103.19 743.76 108.97 743.5 114.62C743.36 117.72 742.91 119.98 742.57 121.49C742.22 123 742.03 123.78 742.23 123.88C742.4 123.96 742.97 123.35 743.65 121.86C744.33 120.38 745.06 117.99 745.3 114.74C745.73 108.81 744.88 102.98 744.12 97.0197C743.13 91.0797 741.79 85.0297 739.74 78.9197C739.22 77.3897 738.7 75.8497 738.17 74.2897C737.62 72.7397 736.92 71.2297 736.29 69.6597C735.96 68.8797 735.64 68.0997 735.31 67.3097C734.98 66.5197 734.67 65.7197 734.26 64.9597C733.48 63.4197 732.7 61.8497 731.9 60.2697C731.49 59.4797 731.12 58.6697 730.68 57.8897C730.22 57.1197 729.76 56.3397 729.3 55.5497C728.37 53.9797 727.43 52.3897 726.47 50.7697C725.41 49.2197 724.33 47.6497 723.24 46.0497C722.69 45.2597 722.15 44.4397 721.58 43.6397C720.97 42.8697 720.36 42.0897 719.74 41.3097C718.78 40.0897 717.7 38.6997 716.48 37.1497C715.17 35.6797 713.73 34.0497 712.16 32.2797C711.77 31.8397 711.36 31.3797 710.95 30.9197C710.54 30.4597 710.07 30.0397 709.62 29.5797C708.71 28.6797 707.76 27.7397 706.77 26.7697C704.86 24.7597 702.56 22.8897 700.18 20.8297C690.6 12.6897 677.17 4.05969 659.54 -1.41031C653.77 -3.08031 647.71 -4.07031 641.67 -3.94031C635.15 -3.77031 628.35 -2.28031 622.28 1.04969C619.25 2.70969 616.45 4.84969 614.07 7.39969C611.72 9.96969 609.75 12.8697 608.28 15.9697C605.29 22.1697 604.11 28.9797 604.23 35.4397C604.36 41.9097 605.71 48.0197 607.48 53.4897C611.09 64.4397 616.13 73.0197 620.02 78.8297C621.93 81.7697 623.71 83.9197 624.83 85.4697C626.05 86.9397 626.71 87.7397 626.71 87.7397C626.71 87.7397 626.96 88.0397 627.43 88.5997C627.9 89.1597 628.59 89.9997 629.56 90.9997C631.44 93.0497 634.22 95.9797 637.99 99.2097C641.71 102.5 646.44 106.07 652.08 109.37C657.71 112.68 664.28 115.71 671.49 117.82C678.67 120.01 686.52 121.15 694.39 121.09C702.26 121.03 710.16 119.6 717.31 116.9C724.46 114.2 730.79 110.22 735.82 105.7C740.86 101.17 744.61 96.1397 747.11 91.4797C748.98 87.9597 750.31 84.4697 751.28 81.1197C752.22 77.7697 752.74 74.5597 753.08 71.5597C753.65 65.5397 753.3 60.3497 752.66 55.9397C751.31 47.0997 749.01 41.3197 747.12 37.0697C745.69 33.8397 744.04 30.8197 742.31 27.9697C740.59 25.1097 738.72 22.4497 736.81 19.9197C732.97 14.8797 728.87 10.4597 724.69 6.46969C720.52 2.46969 716.25 -1.06031 711.96 -4.35031C709.79 -5.97031 707.53 -7.50031 705.06 -8.65031C702.61 -9.79031 699.91 -10.5703 697.18 -10.5603V-10.5703Z" fill="#F8F8F8"/>
<path d="M928.72 165.369C931.23 166.289 932.66 166.139 932.77 165.709C932.9 165.239 931.78 164.519 929.49 163.499C922.99 160.529 917.04 155.679 910.33 148.529C906.51 144.499 904.31 141.799 902.42 139.429C901.48 138.239 900.61 137.139 899.77 135.899C898.89 134.689 898.02 133.359 897.03 131.749C893.63 126.339 889.84 118.599 887.34 111.389C884.72 104.219 883.49 97.6893 882.65 95.0393C882.43 94.2893 882.19 93.5493 881.95 92.7993C881.12 90.1293 878.49 83.1493 876.49 74.0793C875.92 71.8293 875.62 69.3993 875.18 66.9293C874.93 65.6893 874.88 64.4193 874.73 63.1393C874.6 61.8593 874.47 60.5593 874.34 59.2593C874.3 57.9493 874.26 56.6293 874.22 55.3093L874.16 53.3293C874.13 52.6693 874.11 52.0093 874.16 51.3493C874.22 50.0293 874.28 48.7093 874.34 47.3993C874.43 46.0893 874.39 44.7793 874.6 43.4993C874.81 41.6893 875.02 39.9593 875.21 38.3093C875.32 37.4893 875.37 36.6793 875.53 35.9093C875.68 35.1393 875.83 34.3893 875.97 33.6593C876.26 32.1993 876.53 30.8193 876.79 29.5093C876.92 28.8593 877.04 28.2293 877.16 27.6093C877.33 27.0093 877.49 26.4193 877.65 25.8593C878.92 21.3493 879.75 17.9893 880.65 15.7893C881.59 13.1493 882.47 10.6793 883.31 8.3393C884.29 6.0493 885.21 3.8793 886.1 1.7993C886.54 0.749298 886.96 -0.270703 887.38 -1.2807C887.8 -2.2907 888.32 -3.2307 888.77 -4.1907C889.7 -6.1007 890.6 -7.9707 891.5 -9.8307C893.46 -13.9207 892.21 -14.6707 889.92 -10.6907C888.89 -8.8807 887.85 -7.0607 886.78 -5.1907C886.27 -4.2507 885.69 -3.3207 885.22 -2.3207C884.75 -1.3207 884.27 -0.300702 883.79 0.739298C882.83 2.8293 881.83 5.0093 880.77 7.3093C879.85 9.6693 878.96 12.1993 877.99 14.8793C877.64 15.9293 877.04 17.2193 876.6 18.8593C876.11 20.4793 875.53 22.3793 874.87 24.5393C874.14 26.6793 873.66 29.1593 873.07 31.8893C872.79 33.2493 872.45 34.6693 872.19 36.1693C872 37.6793 871.8 39.2493 871.59 40.8793L871.23 44.0693C871.17 45.1393 871.17 46.2093 871.15 47.2693C871.15 49.5593 870.98 51.9293 871.18 54.3293C871.24 55.5293 871.3 56.7293 871.35 57.9393C871.39 58.5393 871.39 59.1493 871.45 59.7493L871.65 61.5393C871.94 63.9193 872.1 66.2893 872.55 68.5293C872.93 70.7793 873.26 72.9493 873.76 74.9393C874.2 76.9393 874.6 78.8093 875.07 80.4393C875.52 82.0793 875.87 83.5493 876.25 84.7393C876.97 87.1293 877.39 88.5393 877.39 88.5393C877.39 88.5393 878.06 90.6193 879.14 93.9593C879.4 94.7893 879.69 95.6993 880 96.6693C880.28 97.6393 880.57 98.6793 880.88 99.7693C881.18 100.899 881.5 102.079 881.83 103.299C882.2 104.509 882.58 105.759 882.97 107.039C884.59 112.129 886.76 117.539 889.12 122.409C891.48 127.279 893.98 131.619 896.03 134.739C899.07 139.459 901.66 142.729 903.65 145.199C904.68 146.399 905.55 147.419 906.3 148.299C907.08 149.149 907.73 149.859 908.29 150.469C915.16 157.759 921.63 162.709 928.72 165.389V165.369Z" fill="#F8F8F8"/>
<path d="M877.73 132.63C883.48 136.22 884.37 134.8 878.85 130.95C874.95 128.21 870.99 125.33 866.77 122.13C864.63 120.56 862.51 118.8 860.22 117.04C857.97 115.22 855.63 113.3 853.18 111.22C850.43 108.84 848.16 106.94 846.3 105.21C844.42 103.51 842.82 102.1 841.41 100.71C840 99.3295 838.64 98.0895 837.29 96.6795C835.95 95.2595 834.53 93.7395 832.88 91.9095C831.55 90.3095 830.1 88.5795 828.57 86.7495C827.11 84.8795 825.63 82.8695 824.1 80.8495C822.68 78.7495 821.21 76.6195 819.81 74.4595C818.51 72.2395 817.12 70.0895 815.95 67.9095C814.82 65.6995 813.63 63.6195 812.69 61.5595C811.77 59.4995 810.9 57.5695 810.12 55.8295C808.79 52.2495 807.64 49.4595 807.17 47.8595C806.88 46.9195 806.58 45.9795 806.29 45.0395C805.8 43.3595 804.84 40.2295 804.37 36.0195C804.16 33.9195 804.07 31.5495 804.4 29.0395C804.73 26.5395 805.47 23.8895 806.81 21.3895C809.48 16.3495 814.76 12.0795 820.97 9.84954C827.18 7.56954 834.25 7.39954 840.82 8.30954C843.15 8.60954 845.37 9.02954 847.46 9.48954C849.56 9.93954 851.52 10.5195 853.39 10.9995C857.1 12.1095 860.37 13.1895 863.19 14.3295C864.61 14.8795 865.93 15.4095 867.13 15.9595C868.34 16.4895 869.47 16.9695 870.49 17.4795C871.51 17.9695 872.45 18.4195 873.3 18.8395C874.14 19.2795 874.9 19.6795 875.58 20.0395C882 23.4395 887.33 26.9295 892.08 30.3895C896.83 33.8495 901 37.2895 904.97 40.8895C909.26 44.9095 910.34 43.9295 906.22 39.5895C902.42 35.7095 898.33 32.0295 893.6 28.3695C888.86 24.7095 883.46 21.0595 876.9 17.5695C874.37 16.1895 870.42 14.1195 865.01 11.8195C863.66 11.2495 862.22 10.6495 860.67 10.1095C859.9 9.82954 859.11 9.53954 858.3 9.23954C857.48 8.96954 856.64 8.69954 855.77 8.42954C852.31 7.33954 848.5 6.28954 844.26 5.52954C841.5 5.02954 838.69 4.72954 835.89 4.67954C829.87 4.53954 823.2 5.42954 817.38 8.20954C811.55 10.8995 806.72 15.3895 804.13 20.3395C801.55 25.3395 801.18 30.2595 801.27 33.5495C801.3 35.2195 801.44 36.5395 801.55 37.4295C801.59 37.8795 801.65 38.2295 801.69 38.4595C801.73 38.6895 801.74 38.8095 801.74 38.8095C801.74 38.8095 801.83 39.5395 802.1 40.8195C802.35 42.1095 802.78 43.9495 803.45 46.1795C803.78 47.2895 804.17 48.4995 804.63 49.7795C805.08 51.0595 805.65 52.3795 806.2 53.7995C806.48 54.4995 806.77 55.2295 807.06 55.9595C807.34 56.6995 807.65 57.4495 808.02 58.1795C808.72 59.6695 809.44 61.2095 810.18 62.7795C813.32 68.9695 817.14 75.5095 821.27 81.1795C821.76 81.9095 822.27 82.6095 822.8 83.2895C823.32 83.9695 823.84 84.6395 824.34 85.3095C825.36 86.6295 826.31 87.9495 827.33 89.1095C829.33 91.4795 831.11 93.6795 832.78 95.4295C834.01 96.7695 835.16 98.0195 836.24 99.1895C837.36 100.32 838.4 101.37 839.38 102.35C841.3 104.34 843.07 105.92 844.56 107.33C845.31 108.03 846 108.67 846.64 109.27C847.3 109.85 847.9 110.37 848.46 110.86C849.58 111.84 850.51 112.65 851.32 113.36C853.8 115.46 856.19 117.39 858.48 119.2C860.82 120.96 862.99 122.69 865.19 124.22C869.53 127.35 873.63 130.09 877.69 132.64L877.73 132.63Z" fill="#F8F8F8"/>
<path d="M800.27 90.4295C801.7 91.5395 802.9 92.1995 803.73 92.5795C804.57 92.9595 805.06 93.0295 805.19 92.8395C805.32 92.6495 805.09 92.1995 804.48 91.5295C803.87 90.8595 802.86 89.9895 801.52 88.8395C793.84 82.4195 786.62 74.6095 779.26 63.2395C775.13 56.7695 772.88 52.5195 770.98 48.7895C769.11 45.0495 767.63 41.8095 766.03 36.8695C764.7 32.6995 763.47 27.6795 763.13 22.3895C762.89 19.7495 763.03 17.0495 763.26 14.3995L763.57 12.4295L763.72 11.4495L763.96 10.4895C764.12 9.84947 764.27 9.21947 764.42 8.58947C764.63 7.97947 764.84 7.36947 765.05 6.76947L765.36 5.86947C765.48 5.57947 765.62 5.29947 765.74 5.00947C766 4.43947 766.25 3.87947 766.51 3.32947C767.09 2.25947 767.69 1.22947 768.31 0.259472C769.6 -1.66053 771.04 -3.28053 772.43 -4.65053C775.25 -7.37053 777.92 -9.01053 779.43 -9.86053C780.3 -10.4005 781.23 -10.8505 782.13 -11.3605C783.77 -12.2005 786.86 -13.6905 791.22 -15.0405C793.4 -15.7005 795.89 -16.3505 798.63 -16.8805C800 -17.1305 801.43 -17.3805 802.93 -17.5705C803.68 -17.6705 804.44 -17.7805 805.21 -17.8805C805.98 -17.9605 806.77 -18.0305 807.56 -18.1105C810.74 -18.4405 814.1 -18.5505 817.57 -18.5905C821.04 -18.5405 824.62 -18.4505 828.22 -18.0805C835.44 -17.4605 842.78 -16.0405 849.71 -14.2505C859.5 -11.6905 867.16 -8.72053 873.14 -6.20053C879.11 -3.64053 883.39 -1.52053 886.31 -0.0205288C893.22 3.48947 899.11 6.84947 904.51 10.0295C909.91 13.2195 914.81 16.2395 919.65 19.2795C924.95 22.6395 925.78 21.4395 920.65 17.7795C915.97 14.4695 911.18 11.2195 905.83 7.85947C900.47 4.51947 894.57 1.02947 887.59 -2.53053C884.88 -3.92053 880.71 -6.10053 875.07 -8.66053C869.44 -11.2105 862.29 -14.1105 853.62 -16.5905C850.8 -17.3905 847.94 -18.0905 845.08 -18.6405C838.91 -19.8505 832.21 -20.8005 825.63 -21.2005C819.05 -21.5905 812.59 -21.4405 806.96 -20.9005C801.34 -20.3605 796.52 -19.4905 793.15 -18.6105C791.47 -18.1605 790.14 -17.7805 789.24 -17.4805C788.33 -17.2005 787.85 -17.0305 787.85 -17.0305C787.85 -17.0305 787.13 -16.7705 785.82 -16.3005C785.18 -16.0405 784.39 -15.7105 783.48 -15.3405C782.59 -14.9205 781.56 -14.4805 780.46 -13.8905C778.25 -12.7705 775.72 -11.2105 773.16 -9.14053C770.61 -7.07053 768.06 -4.44053 765.99 -1.25053C763.94 1.93947 762.38 5.63947 761.5 9.48947C760.61 13.3395 760.36 17.3095 760.54 21.0895C760.7 24.8695 761.34 28.4595 762.08 31.6895C762.81 34.9295 763.76 37.8095 764.6 40.2395C767.25 47.5495 769.96 52.6095 772 56.4495C774.07 60.2895 775.69 62.8195 776.9 64.7595C784.44 76.3795 792.1 84.2595 800.27 90.4295Z" fill="#F8F8F8"/>
</g>
<path d="M901.23 -13.0703V15.1697C901.23 47.6497 885 60.3497 856.05 60.3497H751.57C678.85 60.3497 640.03 97.0597 640.03 165.54C640.03 189.54 642.15 203.66 643.56 214.25H726.87C726.17 206.48 724.76 196.6 724.76 190.25C724.76 168.36 738.88 159.89 759.35 159.89H850.58C883.45 159.89 918.8 156.08 945.72 140.24C971.97 124.79 990.2 97.8797 990.2 51.7797V15.1797V-13.0703H901.24H901.23Z" fill="#F8F8F8"/>
<path d="M665.86 161.62C665.86 139.73 679.98 131.26 700.45 131.26H791.68C824.55 131.26 859.9 127.45 886.82 111.61C913.07 96.1597 931.3 69.2497 931.3 23.1497V-13.0703H901.22V15.1697C901.22 47.6497 884.99 60.3497 856.04 60.3497H751.56C678.84 60.3497 640.02 97.0597 640.02 165.54C640.02 173.16 640.24 179.78 640.57 185.62H667.97C667.27 177.85 665.86 167.97 665.86 161.62Z" fill="#F0F1F2"/>
<path d="M509.07 -17.9005C493.66 83.8495 435.16 129.549 305.73 109.959L319.19 21.0395C384.57 29.9495 415.38 13.3895 422.11 -31.0605L509.06 -17.9005H509.07Z" fill="#F8F8F8"/>
<path d="M299.93 202.149C315.34 100.399 373.84 54.6993 503.27 74.2893L489.81 163.209C424.43 154.299 393.62 170.859 386.89 215.309L299.94 202.149H299.93Z" fill="white"/>
<path d="M335.54 113.41C401 118.49 445.4 103.77 473.46 70.8295C408 65.7495 363.6 80.4695 335.54 113.41Z" fill="#F0F1F2"/>
<path d="M775.53 279.95C775.53 279.95 839 288.65 871.67 279.55V188.97C871.67 188.97 819.87 203.6 775.53 188.18C775.53 188.18 776.23 280.54 775.53 279.94V279.95Z" fill="white"/>
<path d="M820.7 324.1C820.7 324.1 884.17 332.8 916.84 323.7V233.12C916.84 233.12 865.04 247.75 820.7 232.33C820.7 232.33 821.4 324.69 820.7 324.09V324.1Z" fill="#F8F8F8"/>
<path d="M707.82 389.94C707.82 389.94 771.29 398.64 803.96 389.54V298.96C803.96 298.96 752.16 313.59 707.82 298.17C707.82 298.17 708.52 390.53 707.82 389.93V389.94Z" fill="#F8F8F8"/>
<path d="M871.66 279.55V239.34C855.8 239.75 837.7 238.25 820.7 232.34C820.7 232.34 820.9 258.98 820.98 283.55C838.64 284.06 857.89 283.39 871.66 279.55Z" fill="#F0F1F2"/>
<path d="M564.48 361.5C553.01 363.97 540.57 364.8 527.63 364.15C515.32 363.53 503.51 361.51 492.68 358C469.45 350.46 450.94 335.91 442.39 313.02C438.55 302.73 436.64 290.82 437.34 277.02C438.04 263.02 441.16 251.19 446.08 241.23C456.91 219.3 476.74 206.69 500.54 201.51C511.66 199.09 523.62 198.26 535.93 198.88C548.87 199.53 561.16 201.6 572.32 205.21C595.76 212.8 614.08 227.31 622.57 250.08C626.45 260.48 628.34 272.56 627.64 286.56C626.95 300.36 623.89 312.02 619.05 321.87C608.35 343.66 588.63 356.28 564.47 361.48L564.48 361.5Z" fill="white"/>
<mask id="mask2_287_81364" style="mask-type:luminance" maskUnits="userSpaceOnUse" x="437" y="198" width="191" height="167">
<path d="M564.48 361.5C553.01 363.97 540.57 364.8 527.63 364.15C515.32 363.53 503.51 361.51 492.68 358C469.45 350.46 450.94 335.91 442.39 313.02C438.55 302.73 436.64 290.82 437.34 277.02C438.04 263.02 441.16 251.19 446.08 241.23C456.91 219.3 476.74 206.69 500.54 201.51C511.66 199.09 523.62 198.26 535.93 198.88C548.87 199.53 561.16 201.6 572.32 205.21C595.76 212.8 614.08 227.31 622.57 250.08C626.45 260.48 628.34 272.56 627.64 286.56C626.95 300.36 623.89 312.02 619.05 321.87C608.35 343.66 588.63 356.28 564.47 361.48L564.48 361.5Z" fill="white"/>
</mask>
<g mask="url(#mask2_287_81364)">
<path d="M597.35 386.909C598.85 382.829 599.89 379.159 600.65 375.989C601.36 372.809 601.81 370.129 602.06 367.969C602.16 366.889 602.26 365.949 602.34 365.139C602.38 364.329 602.4 363.649 602.4 363.099C602.4 362.009 602.35 361.469 602.23 361.459C602.11 361.449 601.94 361.979 601.72 363.029C601.61 363.559 601.48 364.219 601.35 365.009C601.19 365.799 601 366.719 600.79 367.769C600.36 369.869 599.76 372.469 598.94 375.559C598.07 378.639 596.97 382.209 595.45 386.199C593.27 391.839 590.67 397.379 587.59 402.709C584.52 408.039 581.1 413.289 577.22 418.219C575.26 420.669 573.21 423.079 570.95 425.309C568.71 427.549 566.34 429.699 563.75 431.579C561.17 433.459 558.45 435.219 555.5 436.519C552.56 437.839 549.45 438.809 546.23 439.299C545.42 439.379 544.61 439.469 543.8 439.549C542.99 439.599 542.17 439.569 541.35 439.579C539.71 439.579 538.07 439.379 536.44 439.079C533.18 438.469 529.98 437.329 526.94 435.739C520.86 432.559 515.43 427.809 510.66 422.309C501.14 411.189 493.77 397.289 488.84 381.729C486.02 372.899 484.31 364.639 483.16 357.019C482.01 349.389 481.46 342.379 481.14 335.889C480.56 322.899 480.97 311.989 481.53 301.859C482.14 291.719 482.89 282.329 484.14 272.399C485.43 262.469 487.14 251.939 490.57 239.809C493.46 229.569 497.57 218.689 503.56 208.139C506.53 202.859 509.99 197.689 513.96 192.799C517.91 187.899 522.39 183.279 527.38 179.209C532.39 175.179 537.95 171.689 543.97 169.279C549.98 166.889 556.46 165.519 562.88 165.929C563.28 165.949 563.68 165.949 564.08 165.999L565.27 166.149C566.06 166.269 566.87 166.319 567.65 166.489L570 166.999C570.79 167.149 571.54 167.449 572.31 167.659C573.86 168.069 575.31 168.759 576.8 169.329C578.22 170.059 579.69 170.689 581.04 171.549C586.58 174.729 591.32 179.109 595.3 183.909C603.26 193.649 607.44 205.489 609.31 216.809C610.3 222.479 610.74 228.069 610.92 233.449C611.1 238.829 611 244.009 610.79 248.929C610.33 258.769 609.53 267.539 608.6 274.899C608.07 278.569 607.65 281.899 607.11 284.829C606.86 286.299 606.62 287.669 606.41 288.939C606.15 290.199 605.92 291.369 605.7 292.419L604.93 296.179L604.04 299.909C603.74 301.149 603.47 302.409 603.14 303.639L602.12 307.339C600.93 311.759 598.98 317.979 595.95 325.539C592.9 333.079 588.62 341.949 582.29 351.109C581.49 352.249 580.69 353.409 579.87 354.579C578.98 355.699 578.08 356.839 577.17 357.999C575.37 360.339 573.41 362.619 571.23 364.779C569.07 366.949 566.68 368.969 564.04 370.679C561.39 372.369 558.48 373.729 555.34 374.379C552.21 375.069 548.9 374.949 545.66 374.139C542.41 373.319 539.27 371.789 536.42 369.759C533.57 367.709 531.05 365.129 528.9 362.159C526.75 359.189 524.97 355.879 523.49 352.369C522.01 348.859 520.79 345.149 519.81 341.319C519.26 339.419 518.88 337.469 518.42 335.529C518.07 333.559 517.63 331.599 517.38 329.599C516.15 321.619 515.81 313.339 516.26 304.979C517.16 288.239 521.54 271.239 528.76 255.279C535.96 239.309 545.85 224.269 557.34 210.869C560.24 207.589 563.4 204.569 566.95 202.209C570.49 199.869 574.5 198.239 578.62 197.749C582.73 197.239 586.91 198.009 590.37 200.159C593.84 202.279 596.6 205.539 598.48 209.189C601.17 214.369 601.86 220.269 601.52 225.909C601.17 231.579 599.86 237.089 598.27 242.349C595.06 252.869 590.37 262.319 584.93 270.579C579.49 278.849 573.29 285.979 566.83 291.949C560.35 297.889 553.36 302.439 546.37 305.749C539.38 309.059 532.38 311.139 525.77 312.259C524.13 312.439 522.53 312.739 520.94 312.719C520.15 312.719 519.36 312.819 518.59 312.749C517.81 312.699 517.05 312.659 516.29 312.609C513.27 312.269 510.37 311.709 507.72 310.719C502.38 308.879 497.89 306.059 494.13 303.119C490.34 300.179 487.25 297.079 484.6 294.199C478.33 287.369 473.14 279.939 468.4 272.549C463.68 265.129 459.45 257.699 455.45 250.389C447.45 235.759 440.32 221.639 432.84 208.389C429.09 201.769 425.24 195.359 421.13 189.259C419.03 186.229 416.94 183.239 414.65 180.399C413.55 178.949 412.34 177.599 411.18 176.209C409.95 174.879 408.77 173.509 407.46 172.259C406.21 170.959 404.84 169.769 403.51 168.569C402.1 167.439 400.73 166.279 399.22 165.289C396.25 163.259 393.06 161.509 389.62 160.379C382.74 158.099 375.1 158.509 368.56 161.219C368.11 161.389 367.66 161.559 367.22 161.729C366.8 161.929 366.38 162.139 365.97 162.329C365.16 162.729 364.36 163.099 363.61 163.499C362.89 163.929 362.19 164.349 361.51 164.749C360.84 165.149 360.19 165.539 359.61 165.969C358.44 166.819 357.34 167.549 356.41 168.309C355.49 169.079 354.67 169.769 353.93 170.389C351.1 172.969 349.86 174.419 349.98 174.549C350.13 174.719 351.65 173.559 354.65 171.269C355.41 170.719 356.27 170.099 357.22 169.409C358.17 168.719 359.28 168.059 360.45 167.279C361.03 166.879 361.67 166.529 362.33 166.159C362.99 165.789 363.68 165.399 364.39 164.999C365.12 164.629 365.89 164.299 366.68 163.919C367.08 163.739 367.48 163.549 367.89 163.359C368.31 163.209 368.74 163.049 369.18 162.889C375.46 160.379 382.54 160.099 388.95 162.289C392.16 163.369 395.16 165.059 397.98 167.019C399.41 167.979 400.73 169.109 402.07 170.199C403.35 171.379 404.66 172.529 405.86 173.809C407.11 175.029 408.25 176.379 409.44 177.679C410.56 179.049 411.74 180.379 412.8 181.809C415.02 184.599 417.06 187.569 419.11 190.569C423.13 196.629 426.9 202.999 430.6 209.609C437.98 222.829 445.04 236.959 453.03 251.669C457.03 259.019 461.27 266.509 466.03 274.019C470.81 281.499 476.07 289.059 482.51 296.079C485 298.809 487.98 301.799 491.66 304.759C495.33 307.709 499.73 310.649 505.07 312.829C507.77 313.819 510.64 314.779 513.76 315.199C515.3 315.509 516.9 315.559 518.53 315.659C519.34 315.729 520.16 315.639 520.99 315.639C521.82 315.599 522.66 315.629 523.49 315.499C526.87 315.179 530.19 314.459 533.63 313.589C537.06 312.699 540.54 311.549 544.02 310.099C550.98 307.219 557.98 303.209 564.58 297.949C567.89 295.329 571.05 292.359 574.1 289.189C577.17 286.019 580.11 282.579 582.92 278.899C588.53 271.549 593.58 263.199 597.53 253.899C599.5 249.249 601.19 244.359 602.53 239.269C603.87 234.189 604.87 228.819 604.88 223.219C604.88 219.579 604.41 215.899 603.31 212.339C602.18 208.799 600.41 205.469 598.03 202.579C595.63 199.719 592.6 197.299 589.06 195.879C585.52 194.439 581.63 194.099 577.96 194.599C573.98 195.129 570.18 196.579 566.74 198.619C563.3 200.669 560.26 203.279 557.51 206.119C554.75 208.959 552.26 212.009 549.85 215.109C547.41 218.189 545.08 221.389 542.81 224.629C533.76 237.619 526.18 251.929 520.96 266.919C515.77 281.909 513.05 297.589 513.19 312.719C513.2 320.279 514 327.699 515.36 334.809C516.75 341.909 518.69 348.729 521.51 355.009C524.33 361.259 528.23 366.939 533.31 370.989C538.34 375.019 544.37 377.469 550.31 377.669C553.28 377.749 556.16 377.269 558.78 376.399C561.41 375.519 563.77 374.259 565.89 372.869C570.13 370.059 573.45 366.759 576.23 363.649C581.63 357.299 585.46 351.889 587.8 348.009C588.98 346.069 589.95 344.619 590.49 343.569C591.05 342.529 591.35 341.999 591.35 341.999C591.35 341.999 591.79 341.199 592.62 339.669C593.5 338.159 594.56 335.829 595.99 332.859C598.74 326.869 602.33 317.999 605.39 306.679C608.52 295.379 611.01 281.629 612.45 266.299C612.61 264.379 612.78 262.439 612.95 260.479C613.08 258.519 613.2 256.529 613.33 254.519C613.57 250.509 613.73 246.399 613.79 242.219C613.89 233.859 613.52 225.159 612.01 216.389C610.48 207.639 607.81 198.779 603.18 190.709C598.57 182.689 592.15 175.499 584.2 170.389C580.23 167.839 575.88 165.849 571.29 164.629C566.71 163.409 561.91 162.999 557.23 163.419C552.54 163.819 547.97 164.959 543.66 166.619C539.35 168.299 535.31 170.489 531.54 172.989C527.77 175.489 524.28 178.319 521.07 181.339C517.88 184.379 514.93 187.589 512.22 190.909C509.5 194.219 507.05 197.659 504.83 201.149C502.61 204.639 500.57 208.159 498.79 211.709C491.56 225.879 487.59 239.929 485.02 251.959C483.12 261.039 481.88 269.629 480.97 277.689C480.07 285.749 479.47 293.259 479 300.289C478.06 314.339 477.93 326.449 478.43 336.909C479.43 357.849 482.82 372.069 486.12 382.539C491.17 398.409 498.7 412.619 508.55 424.059C513.5 429.749 519.18 434.699 525.67 438.069C528.91 439.749 532.37 440.969 535.92 441.619C537.69 441.939 539.48 442.139 541.27 442.139C542.16 442.119 543.05 442.139 543.94 442.089C544.82 441.989 545.7 441.899 546.58 441.799C550.07 441.259 553.41 440.189 556.53 438.759C559.67 437.349 562.52 435.479 565.21 433.499C567.91 431.509 570.35 429.259 572.65 426.939C574.96 424.619 577.06 422.129 579.05 419.599C583 414.509 586.41 409.179 589.49 403.719C592.57 398.269 595.17 392.609 597.33 386.839L597.35 386.909Z" fill="#F8F8F8"/>
<path d="M666.27 241.939C663.76 238.999 660.87 237.839 659 237.599C657.08 237.369 656.17 237.779 656.19 237.979C656.2 238.239 657.11 238.319 658.7 238.859C660.27 239.409 662.58 240.609 664.72 243.229C666.23 245.069 667.2 247.329 667.82 249.739C668.44 252.149 668.68 254.709 668.8 257.339C668.99 262.629 668.99 268.109 668.6 273.759C668.23 279.409 667.49 285.259 666.15 291.279C665.47 294.289 664.68 297.339 663.64 300.409C662.62 303.479 661.43 306.579 659.95 309.649C656.66 316.629 652.97 321.769 649.44 325.819C645.9 329.869 642.5 332.869 639.12 335.329C635.72 337.779 632.33 339.709 628.52 341.299C627.58 341.729 626.58 342.059 625.57 342.409C624.56 342.789 623.5 343.069 622.41 343.359C620.23 343.969 617.86 344.379 615.26 344.639C613.07 344.889 610.77 344.909 608.39 344.859C606.01 344.759 603.57 344.489 601.08 344.069C598.6 343.609 596.1 342.979 593.6 342.179C591.11 341.349 588.63 340.349 586.21 339.169C576.5 334.439 567.99 326.609 561.94 317.949C558.92 313.609 556.38 309.119 554.51 304.669C552.49 300.279 551.21 295.919 550.1 291.989C548.11 284.049 547.62 277.589 547.5 273.999C547.46 272.939 547.38 271.869 547.37 270.809V267.609C547.43 263.809 547.66 256.709 549.65 247.579C550.59 243.009 552.06 237.959 554.09 232.639C556.12 227.329 558.69 221.699 562.11 216.229C565.51 210.769 569.8 205.439 575.28 201.239C580.73 197.069 587.44 194.039 594.53 193.429C598.06 193.109 601.64 193.459 605.09 194.439C608.52 195.449 611.82 197.009 614.8 199.039C620.83 203.059 625.54 208.809 629.05 215.029C631.55 219.429 633.43 223.919 634.96 228.279C635.73 230.459 636.29 232.649 636.94 234.749C637.24 235.809 637.59 236.829 637.84 237.869C638.07 238.919 638.29 239.949 638.52 240.959C638.74 241.979 638.96 242.979 639.18 243.969C639.29 244.459 639.4 244.959 639.5 245.439C639.6 245.929 639.65 246.419 639.72 246.909C640 248.859 640.27 250.749 640.54 252.589C640.6 253.049 640.68 253.499 640.73 253.959C640.76 254.419 640.8 254.869 640.83 255.319C640.9 256.219 640.96 257.099 641.02 257.969C641.08 258.839 641.15 259.699 641.21 260.539C641.27 261.379 641.35 262.209 641.33 263.029C641.33 264.669 641.34 266.249 641.35 267.779C641.35 268.549 641.35 269.299 641.36 270.039C641.37 270.779 641.28 271.499 641.25 272.209C641.16 273.629 641.07 274.999 640.99 276.319C640.9 277.639 640.86 278.909 640.66 280.109C640.34 282.529 640.05 284.739 639.79 286.769C639.43 288.779 639.04 290.579 638.73 292.199C638.54 293.159 638.35 294.109 638.17 295.049C637.95 295.979 637.68 296.899 637.44 297.819C636.95 299.649 636.47 301.449 636 303.229C635.41 304.969 634.83 306.689 634.26 308.379C633.97 309.229 633.69 310.069 633.41 310.899C633.11 311.729 632.75 312.519 632.43 313.329C631.77 314.929 631.11 316.519 630.47 318.079C630.17 318.869 629.78 319.609 629.41 320.359C629.04 321.109 628.67 321.849 628.31 322.589C627.56 324.059 626.9 325.549 626.11 326.959C625.3 328.349 624.5 329.729 623.71 331.099C620.54 336.549 616.96 341.449 613.26 346.059C609.4 350.499 605.63 354.999 601.17 358.459C598.72 360.359 596.71 361.489 595.34 362.209C593.97 362.929 593.25 363.289 593.3 363.499C593.35 363.679 594.18 363.709 595.76 363.269C597.33 362.819 599.62 361.829 602.25 359.899C607.04 356.379 610.92 351.949 614.96 347.489C618.83 342.879 622.56 337.929 625.88 332.409C626.7 331.029 627.54 329.629 628.38 328.209C629.21 326.789 629.9 325.269 630.67 323.769C631.05 323.019 631.43 322.259 631.82 321.499C632.2 320.739 632.61 319.979 632.92 319.169C633.59 317.579 634.27 315.969 634.96 314.329C635.29 313.509 635.67 312.699 635.98 311.849C636.27 310.999 636.57 310.139 636.86 309.279C637.45 307.549 638.05 305.799 638.66 304.029C639.15 302.219 639.65 300.379 640.15 298.509C640.4 297.569 640.67 296.639 640.9 295.679C641.09 294.719 641.29 293.739 641.48 292.769C641.79 291.249 642.14 289.519 642.53 287.589C642.8 285.639 643.1 283.489 643.43 281.139C643.51 280.549 643.6 279.949 643.68 279.339C643.76 278.729 643.78 278.099 643.84 277.459C643.93 276.179 644.03 274.849 644.13 273.469C644.41 270.709 644.34 267.749 644.37 264.599C644.34 252.029 642.18 236.209 634.89 219.249C632.41 213.769 629.23 208.519 625.2 204.019C620.84 199.169 615.29 194.969 608.81 192.519C605.58 191.299 602.13 190.559 598.65 190.389C595.17 190.269 591.68 190.659 588.37 191.559C581.72 193.309 575.77 196.839 570.93 201.119C566.09 205.429 562.32 210.409 559.32 215.309C553.34 225.159 550.09 234.579 548.19 241.299C547.19 244.659 546.71 247.409 546.27 249.269C545.94 251.149 545.77 252.169 545.77 252.169C545.77 252.169 545.71 252.549 545.59 253.279C545.47 253.999 545.28 255.069 545.14 256.459C544.81 259.219 544.38 263.239 544.37 268.199C544.28 273.159 544.64 279.079 545.79 285.519C546.93 291.949 548.89 298.909 551.97 305.759C554.96 312.639 559.2 319.349 564.35 325.299C569.51 331.239 575.72 336.329 582.42 340.009C589.12 343.699 596.25 345.919 602.96 346.809C609.68 347.709 615.94 347.289 621.1 346.159C624.99 345.289 628.51 344.039 631.68 342.599C634.84 341.139 637.61 339.449 640.12 337.759C645.06 334.279 648.79 330.649 651.73 327.299C657.58 320.539 660.48 315.029 662.49 310.829C664.02 307.649 665.24 304.429 666.29 301.259C667.35 298.089 668.16 294.939 668.84 291.849C670.18 285.659 670.88 279.669 671.2 273.899C671.53 268.129 671.45 262.589 671.16 257.199C670.99 254.489 670.68 251.789 669.95 249.159C669.23 246.559 668.06 243.999 666.28 241.929L666.27 241.939Z" fill="#F8F8F8"/>
</g>
<path d="M363.4 407.52C374.56 411.13 386.86 413.2 399.79 413.84C412.1 414.46 424.06 413.63 435.18 411.22C459.05 406.05 478.92 393.42 489.72 371.5C494.57 361.65 497.66 349.99 498.35 336.19C499.05 322.19 497.13 310.11 493.24 299.71C484.66 276.8 466.19 262.27 443.03 254.74C432.2 251.22 420.39 249.2 408.08 248.58C395.14 247.93 382.7 248.76 371.23 251.24C347.15 256.44 327.47 269.05 316.74 290.85C311.84 300.81 308.74 312.63 308.04 326.64C307.35 340.44 309.22 352.35 313.05 362.64C321.52 385.39 339.87 399.92 363.39 407.52H363.4Z" fill="#F8F8F8"/>
<path d="M442.39 313.02C438.55 302.73 436.64 290.82 437.34 277.02C437.76 268.59 439.06 260.95 441.1 254.04C441.75 254.24 442.4 254.44 443.04 254.65C466.48 262.24 484.8 276.75 493.29 299.52C497.17 309.92 499.06 322 498.36 336C497.94 344.29 496.67 351.81 494.68 358.63C494.01 358.43 493.34 358.22 492.68 358C469.45 350.46 450.94 335.91 442.39 313.02Z" fill="#F0F1F2"/>
<path d="M545.72 342.83C545.72 342.83 545.16 374.9 552.78 390.27L605.56 382.68C605.56 382.68 593.35 358.32 599.19 335.14C599.19 335.14 545.42 343.23 545.72 342.83Z" fill="#F8F8F8"/>
<path d="M599.19 335.14C598.16 339.22 597.7 343.33 597.62 347.33C588.16 354.18 576.91 358.82 564.47 361.5C558.76 362.73 552.81 363.55 546.68 363.99C545.55 352.63 545.72 342.83 545.72 342.83C545.42 343.23 599.19 335.14 599.19 335.14Z" fill="#F0F1F2"/>
<path d="M383.93 390.82C383.93 390.82 381.28 422.79 372.16 437.32L320.41 424.48C320.41 424.48 334.99 401.47 331.51 377.81C331.51 377.81 384.2 391.24 383.94 390.82H383.93Z" fill="white"/>
<path d="M331.5 377.82C332.11 381.98 332.17 386.11 331.84 390.11C340.56 397.87 351.3 403.62 363.4 407.53C368.96 409.32 374.8 410.74 380.85 411.79C383.12 400.6 383.93 390.83 383.93 390.83C384.18 391.25 331.5 377.82 331.5 377.82Z" fill="#F0F1F2"/>
<path d="M533.23 447.789C533.63 445.529 533.83 443.129 533.82 440.589C533.82 438.009 533.59 435.579 533.18 433.299C530.7 419.699 521.23 411.349 507.97 409.229C505.71 408.869 503.34 408.689 500.87 408.689C498.3 408.689 495.83 408.909 493.48 409.309C480.23 411.559 470.82 419.949 468.41 433.479C468 435.769 467.79 438.199 467.8 440.769C467.8 443.309 468.02 445.709 468.44 447.959C470.91 461.459 480.37 469.819 493.66 471.989C496.01 472.379 498.48 472.569 501.05 472.569C503.52 472.569 505.89 472.369 508.15 471.989C521.42 469.799 530.85 461.369 533.24 447.779L533.23 447.789Z" fill="white"/>
<path d="M678.71 447.39C679.11 445.13 679.31 442.73 679.3 440.19C679.3 437.61 679.07 435.18 678.66 432.9C676.18 419.3 666.71 410.95 653.45 408.83C651.19 408.47 648.82 408.29 646.35 408.29C643.78 408.29 641.31 408.51 638.96 408.91C625.71 411.16 616.3 419.55 613.89 433.08C613.48 435.37 613.27 437.8 613.28 440.37C613.28 442.91 613.5 445.31 613.92 447.56C616.39 461.06 625.85 469.42 639.14 471.59C641.49 471.98 643.96 472.17 646.53 472.17C649 472.17 651.37 471.97 653.63 471.59C666.9 469.4 676.33 460.97 678.72 447.38L678.71 447.39Z" fill="#F8F8F8"/>
<path d="M433.09 552.77C461.45 552.69 475.24 535.01 475.75 493.43L532.44 493.27C532.67 575.78 497.5 608.03 433.25 608.2L433.1 552.77H433.09Z" fill="white"/>
<path d="M618.43 493.03L675.12 492.87C675.85 534.46 689.13 552.06 717.46 551.98L717.61 607.41C652.74 607.59 618.66 575.53 618.43 493.02V493.03Z" fill="white"/>
<path d="M476.06 493.429L532.75 493.269C533.48 534.859 546.76 552.459 575.09 552.379C603.45 552.299 617.24 534.619 617.75 493.039L674.44 492.879C674.67 575.389 639.5 607.639 575.25 607.809C510.38 607.989 476.3 575.929 476.07 493.419L476.06 493.429Z" fill="#F8F8F8"/>
<path d="M532.43 493.28L476.05 493.43C476.17 536.92 485.7 566.39 504.19 584.52C522.82 566.3 532.55 536.78 532.43 493.28Z" fill="white"/>
<path d="M674.43 492.89L618.43 493.04C618.55 536.39 628.02 565.8 646.39 583.94C664.89 565.7 674.55 536.23 674.43 492.89Z" fill="white"/>
<path d="M178.92 427.989C167.49 424.799 155 423.319 141.99 423.319C128.98 423.319 117.55 424.799 106.49 427.909C82.7199 434.519 63.3999 448.749 53.6199 472.079C49.2599 482.579 46.7 494.869 46.7 509.249C46.7 523.629 49.2599 536.309 53.6899 546.969C63.4699 570.379 82.79 584.529 106.48 591.139C117.54 594.249 129.57 595.729 141.98 595.729C155.07 595.729 167.47 594.249 178.91 591.059C202.9 584.369 222.08 570.219 231.78 546.959C236.22 536.309 238.7 523.859 238.7 509.239C238.7 494.619 236.22 482.569 231.86 472.069C222.16 448.819 202.98 434.659 178.91 427.979L178.92 427.989Z" fill="white"/>
<mask id="mask3_287_81364" style="mask-type:luminance" maskUnits="userSpaceOnUse" x="46" y="423" width="137" height="173">
<path d="M143.46 569.5C128.9 555.5 120.34 534.81 120.34 509.05C120.34 483.29 128.66 463.89 142.81 450.15C149.61 443.54 157.77 438.3 166.97 434.27C171.76 432.17 176.84 430.4 182.17 428.95C181.09 428.61 180.01 428.29 178.91 427.98C167.48 424.79 154.99 423.31 141.98 423.31C128.97 423.31 117.54 424.79 106.48 427.9C82.7099 434.51 63.3899 448.74 53.6099 472.07C49.2499 482.57 46.6899 494.86 46.6899 509.24C46.6899 523.62 49.2499 536.3 53.6799 546.96C63.4599 570.37 82.7799 584.52 106.47 591.13C117.53 594.24 129.56 595.72 141.97 595.72C155.06 595.72 167.46 594.24 178.9 591.05L181.13 590.19C176.18 588.76 171.45 587.04 166.96 585.03C158.08 581.08 150.08 575.93 143.44 569.49L143.46 569.5Z" fill="white"/>
</mask>
<g mask="url(#mask3_287_81364)">
<path d="M195.83 520.119C193.7 516.329 191.59 513.149 189.67 510.519C187.71 507.909 185.97 505.829 184.49 504.239C183.74 503.459 183.08 502.779 182.51 502.189C181.92 501.629 181.41 501.179 181 500.819C180.18 500.109 179.73 499.799 179.64 499.879C179.56 499.959 179.85 500.429 180.5 501.289C180.83 501.719 181.25 502.239 181.76 502.859C182.26 503.489 182.83 504.229 183.49 505.079C184.81 506.769 186.4 508.909 188.22 511.549C190 514.209 192 517.369 194.05 521.109C196.93 526.429 199.45 531.999 201.5 537.809C203.56 543.609 205.33 549.619 206.55 555.769C207.14 558.849 207.64 561.979 207.87 565.139C208.12 568.299 208.22 571.499 207.96 574.689C207.71 577.869 207.28 581.079 206.36 584.169C205.46 587.259 204.18 590.259 202.46 593.019C202 593.689 201.54 594.359 201.07 595.029C200.58 595.679 200.02 596.279 199.5 596.919C198.43 598.159 197.22 599.279 195.93 600.329C193.35 602.409 190.4 604.099 187.22 605.379C180.85 607.939 173.72 608.989 166.44 609.039C151.8 609.059 136.45 605.639 121.41 599.289C112.87 595.699 105.48 591.639 98.9299 587.559C92.3799 583.479 86.6899 579.349 81.5499 575.379C71.2999 567.389 63.2699 559.989 55.9199 552.979C48.6099 545.929 41.9599 539.269 35.2099 531.859C28.4999 524.429 21.5999 516.299 14.5999 505.809C8.68987 496.959 3.08987 486.769 -1.05013 475.369C-3.14013 469.679 -4.82013 463.699 -5.96013 457.499C-7.12013 451.309 -7.73013 444.909 -7.57013 438.469C-7.38013 432.039 -6.42013 425.549 -4.35013 419.399C-2.26013 413.279 0.899868 407.459 5.37987 402.839C5.65987 402.549 5.91987 402.239 6.20987 401.969L7.09987 401.159C7.69987 400.629 8.25987 400.059 8.89987 399.569L10.8099 398.119C11.4299 397.619 12.1499 397.239 12.8099 396.799C14.1299 395.889 15.5999 395.229 16.9999 394.469C18.4799 393.859 19.9099 393.149 21.4399 392.679C27.4599 390.529 33.8599 389.769 40.0999 389.859C52.6799 390.129 64.3899 394.639 74.2199 400.569C79.1699 403.499 83.7199 406.789 87.9199 410.159C92.1299 413.519 95.9999 416.959 99.6099 420.309C106.8 427.049 112.95 433.349 117.94 438.839C120.39 441.619 122.65 444.109 124.52 446.419C125.47 447.559 126.36 448.629 127.19 449.619C127.98 450.639 128.71 451.569 129.38 452.419L131.74 455.439L134 458.539C134.75 459.579 135.53 460.589 136.25 461.649L138.41 464.829C141 468.599 144.46 474.119 148.24 481.339C151.99 488.559 155.96 497.569 158.82 508.329C159.17 509.679 159.53 511.039 159.89 512.429C160.17 513.829 160.45 515.259 160.74 516.699C161.35 519.589 161.81 522.559 162.04 525.619C162.28 528.669 162.27 531.799 161.86 534.919C161.42 538.029 160.57 541.129 159.02 543.939C157.52 546.769 155.28 549.209 152.55 551.149C149.82 553.089 146.62 554.479 143.22 555.339C139.81 556.169 136.21 556.409 132.56 556.129C128.91 555.829 125.23 555.039 121.6 553.889C117.97 552.739 114.36 551.249 110.81 549.519C109.01 548.709 107.28 547.729 105.51 546.819C103.79 545.809 102.01 544.869 100.32 543.759C93.4499 539.509 86.9399 534.399 80.8699 528.629C68.7299 517.079 58.6399 502.699 51.1899 486.849C43.7199 470.999 38.6999 453.719 35.9799 436.269C35.3699 431.929 35.1199 427.569 35.6399 423.329C36.1599 419.119 37.5199 415.009 39.8299 411.559C42.1099 408.099 45.4099 405.419 49.2899 404.189C53.1599 402.929 57.4299 402.939 61.4199 403.889C67.0999 405.209 72.0399 408.519 76.1099 412.439C80.1999 416.389 83.5399 420.959 86.4999 425.589C92.4199 434.859 96.5499 444.569 99.2999 454.069C102.06 463.579 103.45 472.919 103.79 481.709C104.1 490.489 103.02 498.769 101 506.229C98.9799 513.699 96.0099 520.359 92.5699 526.119C91.6499 527.479 90.8299 528.889 89.7799 530.089C89.2699 530.689 88.8299 531.359 88.2699 531.899C87.7299 532.459 87.1999 533.009 86.6699 533.559C84.4499 535.639 82.1399 537.469 79.6699 538.839C74.7999 541.709 69.7499 543.289 65.0599 544.239C60.3699 545.209 55.9999 545.549 52.0899 545.689C42.8299 546.019 33.7999 545.139 25.1099 543.939C16.4099 542.709 7.99987 541.099 -0.150131 539.399C-16.4701 535.979 -31.8301 532.229 -46.7701 529.319C-54.2401 527.879 -61.6101 526.639 -68.9201 525.799C-72.5801 525.429 -76.2201 525.079 -79.8601 524.969C-81.6701 524.869 -83.4901 524.909 -85.3001 524.889C-87.1101 524.959 -88.9201 524.969 -90.7201 525.149C-92.5201 525.249 -94.3101 525.529 -96.0901 525.759C-97.8601 526.099 -99.6401 526.389 -101.37 526.899C-104.84 527.839 -108.25 529.129 -111.34 531.009C-117.54 534.759 -122.19 540.839 -124.37 547.569C-124.53 548.029 -124.69 548.479 -124.85 548.919C-124.97 549.369 -125.09 549.819 -125.2 550.259C-125.42 551.139 -125.66 551.989 -125.84 552.809C-125.98 553.639 -126.12 554.449 -126.25 555.219C-126.38 555.989 -126.51 556.729 -126.55 557.459C-126.66 558.899 -126.83 560.209 -126.85 561.409C-126.86 562.609 -126.87 563.679 -126.88 564.639C-126.76 568.459 -126.46 570.349 -126.28 570.339C-126.06 570.339 -125.95 568.429 -125.74 564.659C-125.66 563.719 -125.58 562.669 -125.49 561.489C-125.4 560.319 -125.17 559.049 -125.01 557.649C-124.94 556.949 -124.79 556.229 -124.64 555.489C-124.49 554.749 -124.34 553.969 -124.18 553.169C-123.99 552.379 -123.74 551.569 -123.51 550.729C-123.39 550.309 -123.27 549.879 -123.15 549.449C-122.99 549.029 -122.83 548.599 -122.67 548.169C-120.5 541.759 -116.11 536.199 -110.29 532.749C-107.38 531.009 -104.15 529.819 -100.83 528.959C-99.1701 528.489 -97.4601 528.229 -95.7601 527.919C-94.0301 527.709 -92.3101 527.459 -90.5601 527.379C-88.8201 527.219 -87.0501 527.229 -85.2901 527.169C-83.5201 527.209 -81.7501 527.169 -79.9601 527.289C-76.4001 527.419 -72.8101 527.789 -69.2001 528.179C-61.9801 529.059 -54.6901 530.329 -47.2601 531.809C-32.4201 534.789 -17.0801 538.589 -0.710129 542.069C7.47987 543.799 15.9299 545.439 24.7299 546.699C33.5199 547.919 42.6899 548.829 52.2099 548.499C55.8999 548.389 60.1099 548.049 64.7499 547.169C69.3799 546.289 74.4699 544.859 79.5999 542.209C82.1099 540.799 84.6999 539.239 87.0399 537.139C88.2699 536.169 89.3499 534.979 90.4899 533.819C91.0699 533.249 91.5399 532.569 92.0699 531.929C92.5799 531.279 93.1399 530.659 93.5799 529.939C95.5299 527.159 97.1399 524.169 98.7099 520.989C100.25 517.799 101.64 514.409 102.8 510.819C105.13 503.649 106.63 495.729 106.91 487.299C107.07 483.089 106.86 478.749 106.43 474.369C106.01 469.979 105.31 465.509 104.34 460.979C102.39 451.939 99.3199 442.679 94.8199 433.629C92.5599 429.109 89.9399 424.649 86.9399 420.329C83.9399 416.009 80.5099 411.759 76.2599 408.119C73.4899 405.749 70.3899 403.719 66.9699 402.249C63.5499 400.809 59.8599 399.989 56.1199 399.929C52.3899 399.899 48.5799 400.629 45.1999 402.399C41.8099 404.159 39.0199 406.899 37.0199 410.009C34.8399 413.379 33.4699 417.209 32.7899 421.149C32.1099 425.089 32.1299 429.099 32.4999 433.039C32.8699 436.979 33.5699 440.859 34.3699 444.699C35.1299 448.559 36.0499 452.399 37.0399 456.229C41.0399 471.549 46.9999 486.609 55.0099 500.309C63.0399 513.989 73.1999 526.239 84.7899 535.959C90.5499 540.859 96.7099 545.069 103 548.649C109.3 552.199 115.74 555.149 122.35 557.089C128.94 558.999 135.78 559.719 142.16 558.499C148.49 557.289 154.27 554.299 158.28 549.909C160.27 547.709 161.77 545.199 162.82 542.639C163.85 540.069 164.44 537.459 164.76 534.939C165.38 529.889 165.02 525.229 164.46 521.089C163.14 512.859 161.51 506.439 160.07 502.139C159.36 499.989 158.89 498.299 158.44 497.209C158.02 496.109 157.8 495.529 157.8 495.529C157.8 495.529 157.47 494.679 156.85 493.049C156.28 491.399 155.19 489.079 153.86 486.059C151.09 480.079 146.68 471.589 140.05 461.909C133.49 452.189 124.64 441.369 113.93 430.319C112.58 428.949 111.21 427.559 109.83 426.159C108.42 424.789 106.99 423.399 105.55 421.999C102.66 419.209 99.6399 416.419 96.4999 413.659C90.2099 408.159 83.3499 402.789 75.6999 398.239C68.0499 393.719 59.5799 389.999 50.4399 388.279C41.3499 386.579 31.7099 386.789 22.6599 389.519C18.1499 390.879 13.7999 392.899 9.89987 395.589C5.99987 398.279 2.57987 401.659 -0.150131 405.499C-2.89013 409.329 -4.99013 413.549 -6.53013 417.899C-8.05013 422.269 -9.01013 426.769 -9.56013 431.259C-10.1001 435.749 -10.2201 440.239 -10.0101 444.649C-9.77013 449.049 -9.24013 453.379 -8.47013 457.589C-7.71013 461.809 -6.70013 465.909 -5.48013 469.859C-4.27013 473.809 -2.91013 477.649 -1.38013 481.309C4.69987 496.009 12.8099 508.159 20.2899 517.919C25.9599 525.269 31.6899 531.779 37.2199 537.699C42.7599 543.619 48.0899 548.959 53.1299 553.869C63.2099 563.709 72.3299 571.669 80.6099 578.089C97.1799 590.929 110.2 597.579 120.3 601.879C135.65 608.349 151.34 611.839 166.44 611.789C173.98 611.719 181.43 610.619 188.22 607.869C191.6 606.489 194.78 604.659 197.58 602.389C198.97 601.249 200.29 600.019 201.45 598.659C202.02 597.969 202.61 597.309 203.15 596.599C203.65 595.869 204.15 595.139 204.64 594.409C206.49 591.399 207.85 588.169 208.79 584.869C209.76 581.569 210.19 578.189 210.43 574.859C210.67 571.519 210.55 568.199 210.27 564.939C210.01 561.669 209.48 558.469 208.85 555.309C207.55 548.999 205.7 542.949 203.56 537.059C201.42 531.169 198.8 525.529 195.81 520.129L195.83 520.119Z" fill="#F8F8F8"/>
<path d="M130.34 373.56C126.47 373.56 123.72 375 122.32 376.27C120.9 377.58 120.62 378.55 120.78 378.65C120.99 378.81 121.64 378.17 123.08 377.31C124.52 376.48 126.93 375.5 130.31 375.57C132.69 375.62 135.04 376.34 137.27 377.44C139.5 378.54 141.61 380.01 143.69 381.63C147.83 384.92 152 388.48 156.04 392.45C160.1 396.41 164.07 400.76 167.77 405.69C169.61 408.16 171.42 410.75 173.08 413.53C174.75 416.3 176.34 419.22 177.71 422.34C180.88 429.37 182.39 435.52 183.18 440.83C183.96 446.15 184.04 450.69 183.71 454.86C183.37 459.03 182.63 462.87 181.36 466.8C181.08 467.8 180.68 468.77 180.29 469.77C179.93 470.78 179.45 471.77 178.96 472.79C178.01 474.84 176.78 476.91 175.29 479.06C174.06 480.89 172.58 482.65 170.99 484.42C169.37 486.17 167.58 487.85 165.65 489.46C163.69 491.04 161.59 492.54 159.36 493.93C157.11 495.29 154.74 496.52 152.27 497.6C142.37 501.92 130.89 503.3 120.37 502.28C115.11 501.76 110.05 500.77 105.45 499.31C100.8 498 96.6598 496.14 92.9498 494.43C85.6198 490.79 80.3899 486.96 77.5799 484.73C76.7499 484.07 75.8899 483.44 75.0699 482.75L72.6399 480.66C69.7799 478.15 64.5299 473.37 58.8799 465.92C56.0099 462.23 53.1299 457.84 50.3999 452.85C47.6799 447.86 45.0699 442.25 43.1299 436.1C41.1899 429.97 39.9198 423.24 40.2798 416.35C40.6498 409.5 42.6999 402.43 46.8399 396.64C48.8899 393.75 51.4899 391.25 54.4599 389.27C57.4499 387.31 60.7798 385.82 64.2698 384.87C71.2498 382.89 78.6799 383.04 85.6899 384.42C90.6599 385.37 95.2899 386.86 99.6099 388.53C101.77 389.36 103.8 390.36 105.82 391.22C106.82 391.68 107.83 392.08 108.78 392.56C109.72 393.07 110.65 393.56 111.57 394.06C112.49 394.55 113.39 395.04 114.29 395.51C114.74 395.75 115.18 395.99 115.62 396.22C116.06 396.46 116.46 396.75 116.88 397C118.54 398.05 120.16 399.07 121.73 400.06C122.12 400.31 122.52 400.55 122.89 400.8C123.26 401.07 123.62 401.34 123.99 401.61C124.72 402.14 125.43 402.67 126.13 403.19C126.83 403.71 127.53 404.22 128.21 404.72C128.89 405.22 129.57 405.7 130.18 406.25C131.43 407.31 132.64 408.33 133.81 409.32C134.39 409.81 134.97 410.3 135.53 410.78C136.1 411.25 136.59 411.79 137.11 412.27C138.13 413.26 139.12 414.22 140.07 415.14C141.02 416.06 141.95 416.92 142.74 417.85C144.37 419.66 145.87 421.32 147.24 422.83C148.53 424.41 149.65 425.87 150.68 427.16C151.29 427.93 151.89 428.69 152.48 429.44C153.04 430.22 153.57 431.01 154.11 431.79C155.18 433.35 156.24 434.88 157.28 436.4C158.22 437.98 159.15 439.53 160.07 441.06C160.53 441.83 160.98 442.59 161.43 443.34C161.87 444.1 162.24 444.9 162.64 445.66C163.43 447.21 164.21 448.73 164.98 450.24C165.39 450.98 165.7 451.76 166.03 452.53C166.36 453.3 166.69 454.06 167.01 454.82C167.64 456.34 168.35 457.82 168.9 459.33C169.44 460.85 169.96 462.35 170.49 463.84C172.58 469.8 173.98 475.7 175.08 481.5C175.95 487.32 176.92 493.1 176.66 498.75C176.52 501.85 176.07 504.11 175.73 505.62C175.38 507.13 175.19 507.91 175.39 508.01C175.56 508.09 176.13 507.48 176.81 505.99C177.49 504.51 178.22 502.12 178.46 498.87C178.89 492.94 178.04 487.11 177.28 481.15C176.29 475.21 174.95 469.16 172.9 463.05C172.38 461.52 171.86 459.98 171.33 458.42C170.78 456.87 170.08 455.36 169.45 453.79C169.12 453.01 168.8 452.23 168.47 451.44C168.14 450.65 167.83 449.85 167.42 449.09C166.64 447.55 165.86 445.98 165.06 444.4C164.65 443.61 164.28 442.8 163.84 442.02C163.38 441.25 162.92 440.47 162.46 439.68C161.53 438.11 160.59 436.52 159.63 434.9C158.57 433.35 157.49 431.78 156.4 430.18C155.85 429.39 155.31 428.57 154.74 427.77C154.13 427 153.52 426.22 152.9 425.44C151.94 424.22 150.86 422.83 149.64 421.28C148.33 419.81 146.89 418.18 145.32 416.41C144.93 415.97 144.52 415.51 144.11 415.05C143.7 414.59 143.23 414.17 142.78 413.71C141.87 412.81 140.92 411.87 139.93 410.9C138.02 408.89 135.72 407.02 133.34 404.96C123.76 396.82 110.33 388.19 92.6998 382.72C86.9298 381.05 80.8699 380.06 74.8299 380.19C68.3099 380.36 61.5099 381.85 55.4398 385.18C52.4098 386.84 49.6098 388.98 47.2298 391.53C44.8798 394.1 42.9098 397 41.4398 400.1C38.4498 406.3 37.2699 413.11 37.3899 419.57C37.5199 426.04 38.8699 432.15 40.6399 437.62C44.2499 448.57 49.2899 457.15 53.1799 462.96C55.0899 465.9 56.8699 468.05 57.9899 469.6C59.2099 471.07 59.8699 471.87 59.8699 471.87C59.8699 471.87 60.1199 472.17 60.5899 472.73C61.0599 473.29 61.7499 474.13 62.7199 475.13C64.5999 477.18 67.3799 480.11 71.1499 483.34C74.8699 486.63 79.5998 490.2 85.2398 493.5C90.8698 496.81 97.4398 499.84 104.64 501.95C111.82 504.14 119.67 505.28 127.54 505.22C135.41 505.16 143.31 503.73 150.46 501.03C157.61 498.33 163.94 494.35 168.97 489.83C174.01 485.3 177.76 480.27 180.26 475.61C182.13 472.09 183.46 468.6 184.43 465.25C185.37 461.9 185.89 458.69 186.23 455.69C186.8 449.67 186.45 444.48 185.81 440.07C184.46 431.23 182.16 425.45 180.27 421.2C178.84 417.97 177.19 414.95 175.46 412.1C173.74 409.24 171.87 406.58 169.96 404.05C166.12 399.01 162.02 394.59 157.84 390.6C153.67 386.6 149.4 383.07 145.11 379.78C142.94 378.16 140.68 376.63 138.21 375.48C135.76 374.34 133.06 373.56 130.33 373.57L130.34 373.56Z" fill="#F8F8F8"/>
</g>
<path d="M221.85 424.27C201.37 424.27 182.66 427.62 166.98 434.49C157.78 438.53 149.62 443.76 142.82 450.37C128.66 464.11 120.35 483.51 120.35 509.27C120.35 535.03 128.91 555.72 143.47 569.72C150.11 576.16 158.11 581.31 166.99 585.26C182.67 592.3 201.38 595.73 221.86 595.73C242.34 595.73 262.09 592.21 278.17 584.83C286.81 580.88 294.57 575.9 301.05 569.72C315.85 555.72 324.81 535.72 324.81 509.27C324.81 482.83 316.17 464.11 301.77 450.37C295.05 444.02 287.13 438.95 278.17 435C262.01 427.79 242.74 424.35 221.86 424.35V424.26L221.85 424.27Z" fill="#F8F8F8"/>
<path fill-rule="evenodd" clip-rule="evenodd" d="M181.15 590.199C204.1 583.269 222.39 569.279 231.79 546.749C236.23 536.099 238.71 523.649 238.71 509.029C238.71 494.409 236.23 482.359 231.87 471.859C222.66 449.789 204.92 435.919 182.56 428.839C177.1 430.309 171.89 432.109 166.99 434.259C157.79 438.299 149.63 443.529 142.83 450.139C128.67 463.879 120.36 483.279 120.36 509.039C120.36 534.799 128.92 555.489 143.48 569.489C150.12 575.929 158.12 581.079 167 585.029C171.48 587.039 176.22 588.759 181.17 590.189L181.15 590.199Z" fill="#F0F1F2"/>
<path d="M139.26 75.7797C140.1 70.6897 140.49 65.2897 140.42 59.5897C140.34 53.7997 139.78 48.3397 138.79 43.2197C132.88 12.7197 111.37 -5.84034 81.5201 -10.2703C76.43 -11.0303 71.0901 -11.3803 65.5501 -11.3003C59.7701 -11.2203 54.2301 -10.6803 48.9501 -9.73034C19.2101 -4.36034 -1.72995 14.7397 -6.80995 45.2197C-7.66995 50.3697 -8.07995 55.8397 -7.99995 61.6297C-7.91995 67.3397 -7.36995 72.7297 -6.38995 77.7897C-0.509948 108.08 20.9701 126.62 50.8901 131.19C56.1901 132 61.74 132.38 67.5201 132.3C73.0601 132.22 78.3901 131.73 83.4601 130.83C113.23 125.57 134.23 106.4 139.26 75.7797Z" fill="#F8F8F8"/>
<path d="M109.32 116.09C109.94 82.1997 92.7801 69.5997 66.5701 70.0497C41.9801 70.4797 25.6701 83.6697 26.2601 117.53L26.3601 123.29C33.6501 127.14 41.8701 129.81 50.8901 131.18C56.1801 131.99 61.7401 132.37 67.5201 132.29C73.0601 132.21 78.3901 131.72 83.4601 130.82C93.1201 129.11 101.84 125.92 109.41 121.36L109.32 116.07V116.09Z" fill="white"/>
<path d="M91.51 46.0498C91.8 44.2798 91.94 42.3898 91.91 40.3998C91.88 38.3798 91.69 36.4798 91.34 34.6898C89.28 24.0498 81.78 17.5798 71.36 16.0298C69.58 15.7698 67.72 15.6398 65.79 15.6698C63.77 15.6998 61.84 15.8798 60 16.2198C49.63 18.0998 42.32 24.7598 40.54 35.3898C40.24 37.1898 40.1 39.0998 40.13 41.1198C40.16 43.1098 40.35 44.9898 40.69 46.7598C42.74 57.3298 50.24 63.7998 60.67 65.3898C62.52 65.6698 64.45 65.8098 66.47 65.7798C68.4 65.7498 70.26 65.5798 72.03 65.2698C82.42 63.4298 89.74 56.7498 91.5 46.0698L91.51 46.0498Z" fill="white"/>
<path d="M268.05 75.7797C268.89 70.6897 269.28 65.2897 269.21 59.5897C269.13 53.7997 268.57 48.3397 267.58 43.2197C261.67 12.7197 240.16 -5.84034 210.31 -10.2703C205.22 -11.0303 199.88 -11.3803 194.34 -11.3003C188.56 -11.2203 183.02 -10.6803 177.74 -9.73034C148 -4.35034 127.06 14.7497 121.97 45.2297C121.11 50.3797 120.7 55.8497 120.78 61.6397C120.86 67.3497 121.41 72.7397 122.39 77.7997C128.27 108.09 149.75 126.63 179.67 131.2C184.97 132.01 190.52 132.39 196.3 132.31C201.84 132.23 207.17 131.74 212.24 130.84C242.01 125.58 263.01 106.41 268.04 75.7897L268.05 75.7797Z" fill="#F8F8F8"/>
<path d="M238.1 116.09C238.72 82.1997 221.56 69.5997 195.35 70.0497C170.76 70.4797 154.45 83.6697 155.04 117.53L155.14 123.29C162.43 127.14 170.65 129.81 179.67 131.18C184.96 131.99 190.52 132.37 196.3 132.29C201.84 132.21 207.17 131.72 212.24 130.82C221.9 129.11 230.62 125.92 238.19 121.36L238.1 116.07V116.09Z" fill="white"/>
<path d="M220.29 46.0498C220.58 44.2798 220.72 42.3898 220.69 40.3998C220.66 38.3798 220.47 36.4798 220.12 34.6898C218.06 24.0498 210.56 17.5798 200.14 16.0298C198.36 15.7698 196.5 15.6398 194.57 15.6698C192.55 15.6998 190.62 15.8798 188.78 16.2198C178.41 18.0998 171.1 24.7598 169.32 35.3898C169.02 37.1898 168.88 39.0998 168.91 41.1198C168.94 43.1098 169.13 44.9898 169.47 46.7598C171.52 57.3298 179.02 63.7998 189.45 65.3898C191.3 65.6698 193.23 65.8098 195.25 65.7798C197.18 65.7498 199.04 65.5798 200.81 65.2698C211.2 63.4298 218.52 56.7498 220.28 46.0698L220.29 46.0498Z" fill="white"/>
<path d="M140.42 59.5895C140.34 53.7995 139.79 48.3395 138.79 43.2195C137.18 34.9095 134.37 27.5195 130.59 21.0195C126.43 28.0295 123.48 36.1095 121.96 45.2195C121.1 50.3695 120.69 55.8395 120.77 61.6295C120.85 67.3395 121.4 72.7295 122.38 77.7895C124 86.1295 126.84 93.5395 130.67 100.05C134.82 93.0195 137.75 84.9195 139.25 75.7795C140.09 70.6895 140.48 65.2895 140.41 59.5895H140.42Z" fill="#F0F1F2"/>
<path d="M229.38 248.419C233.98 244.709 232.97 243.379 228.16 246.809C221.34 251.669 214.25 256.879 205.24 263.699C195.08 271.499 192.75 273.709 185.81 278.919C174.13 287.789 154.13 302.369 149.31 305.879C148.6 306.399 147.89 306.929 147.19 307.469C146.97 307.639 146.71 307.839 145.19 308.999C142.21 308.799 134.43 308.289 124.68 307.639C114.62 306.939 102.51 306.069 91.2799 305.179C74.4799 303.939 64.0799 303.169 58.6499 302.769C45.8199 301.829 36.2199 301.289 26.7899 300.909C21.6099 300.699 21.4999 302.149 26.6599 302.709C36.0499 303.729 45.6199 304.609 58.4499 305.569C63.4299 305.939 73.7899 307.109 88.4499 308.269C90.8399 308.459 93.2299 308.609 95.5999 308.719C116.08 309.699 142.62 311.819 142.62 311.819L146.13 312.079L189.1 279.499C199.15 271.869 203.99 268.199 206.97 265.939C215.97 259.099 222.89 253.679 229.41 248.419H229.38Z" fill="#F8F8F8"/>
<path d="M139.13 192.939C139.22 189.459 137.55 189.329 137.11 192.789C136.49 197.689 135.97 202.849 135.45 209.499C134.96 217.039 135.16 218.939 134.74 224.039C134.09 232.659 132.52 247.179 132.14 250.679C132.08 251.199 132.04 251.719 132.01 252.239C131.79 255.959 130.81 272.269 129.63 286.289C128.89 296.199 128.42 302.329 128.18 305.529C127.62 313.089 127.36 318.759 127.26 324.329C127.2 327.389 128.65 327.499 129.06 324.469C129.8 318.949 130.4 313.309 130.98 305.739C131.2 302.799 132.07 296.709 132.79 288.069C132.91 286.659 132.99 285.249 133.03 283.849C133.4 271.749 134.73 256.109 134.73 256.109C134.73 256.109 136.5 232.759 137.25 222.899C137.81 215.479 138.08 211.909 138.24 209.709C138.73 203.059 138.99 197.879 139.12 192.939H139.13Z" fill="#F8F8F8"/>
<path d="M148.15 319.899C145.88 318.779 145.04 320.219 147.13 321.649C150.09 323.669 153.27 325.679 157.44 328.129C162.21 330.819 163.56 331.209 166.75 333.119C172.17 336.279 181.07 342.019 183.21 343.399C183.53 343.599 183.85 343.799 184.18 343.979C186.54 345.289 196.9 351.039 205.65 356.289C211.87 359.919 215.72 362.159 217.74 363.339C222.5 366.099 226.13 368.029 229.77 369.789C231.77 370.759 232.51 369.499 230.68 368.229C227.36 365.919 223.89 363.699 219.15 360.919C217.31 359.839 213.66 357.249 208.27 354.019C207.39 353.489 206.49 352.999 205.58 352.539C197.74 348.589 187.99 342.719 187.99 342.719C187.99 342.719 173.33 334.149 167.14 330.539C162.48 327.819 160.23 326.509 158.86 325.709C154.68 323.279 151.37 321.499 148.15 319.909V319.899Z" fill="#F8F8F8"/>
<path d="M159.933 159.522L110.017 166.707L117.201 216.622L167.117 209.438L159.933 159.522Z" fill="#F8F8F8"/>
<path d="M176.02 336.63C177.99 333.91 179.79 330.87 181.4 327.52C183.01 324.17 184.3 320.78 185.21 317.5C190.63 297.99 183.49 280.92 167.37 269.65C164.62 267.73 161.61 265.97 158.36 264.4C154.96 262.76 151.58 261.47 148.23 260.49C129.32 254.98 111.56 260.02 99.73 276.32C97.73 279.07 95.9 282.15 94.26 285.55C92.65 288.9 91.4 292.2 90.5 295.44C85.12 314.81 92.25 331.87 108.37 343.24C111.22 345.25 114.35 347.09 117.75 348.73C121.01 350.3 124.25 351.56 127.47 352.51C146.36 358.1 164.18 353.03 176.02 336.64V336.63Z" fill="white"/>
<path d="M241.46 270.77C242.48 269.35 243.42 267.77 244.26 266.03C245.1 264.29 245.77 262.52 246.24 260.81C249.06 250.66 245.35 241.77 236.96 235.91C235.53 234.91 233.96 234 232.27 233.18C230.58 232.36 228.74 231.65 227 231.14C217.16 228.27 207.91 230.9 201.76 239.38C200.72 240.81 199.77 242.41 198.92 244.18C198.08 245.92 197.43 247.64 196.96 249.33C194.16 259.41 197.87 268.29 206.26 274.21C207.74 275.26 209.37 276.21 211.14 277.07C212.91 277.93 214.53 278.54 216.2 279.04C226.03 281.95 235.31 279.31 241.47 270.78L241.46 270.77Z" fill="white"/>
<path d="M64.29 318.559C65.31 317.139 66.25 315.559 67.09 313.819C67.94 312.049 68.6 310.309 69.07 308.599C71.89 298.449 68.18 289.559 59.79 283.699C58.36 282.699 56.79 281.789 55.1 280.969C53.33 280.119 51.57 279.439 49.83 278.929C39.99 276.059 30.74 278.689 24.59 287.169C23.55 288.599 22.6 290.199 21.75 291.969C20.91 293.709 20.26 295.429 19.79 297.119C16.99 307.199 20.7 316.079 29.09 321.999C30.57 323.049 32.2 323.999 33.97 324.859C35.66 325.679 37.36 326.329 39.03 326.829C48.86 329.739 58.14 327.099 64.3 318.569L64.29 318.559Z" fill="white"/>
<path d="M235.558 334.921L196.004 366.204L227.287 405.758L266.841 374.475L235.558 334.921Z" fill="#F8F8F8"/>
<path d="M908.35 479.46C905.14 435.23 870.12 413 834.86 412.66V412.6C834.74 412.6 834.63 412.63 834.51 412.63C834.39 412.63 834.28 412.6 834.16 412.6V412.66C798.9 413 763.89 435.23 760.68 479.46C760.45 482.68 760.33 485.94 760.33 489.22C760.33 539.49 827.3 603.95 834.17 608.24V608.65C834.17 608.65 834.43 608.48 834.52 608.44C834.6 608.48 834.83 608.65 834.87 608.65V608.24C841.73 603.95 908.71 539.49 908.71 489.22C908.71 485.93 908.59 482.68 908.36 479.46H908.35ZM834.52 530.89C811.52 530.89 792.88 512.24 792.88 489.24C792.88 466.24 811.52 447.6 834.52 447.6C857.52 447.6 876.16 466.24 876.16 489.24C876.16 512.24 857.52 530.89 834.52 530.89Z" fill="white"/>
<mask id="mask4_287_81364" style="mask-type:luminance" maskUnits="userSpaceOnUse" x="760" y="412" width="149" height="197">
<path d="M908.35 479.46C905.14 435.23 870.12 413 834.86 412.66V412.6C834.74 412.6 834.63 412.63 834.51 412.63C834.39 412.63 834.28 412.6 834.16 412.6V412.66C798.9 413 763.89 435.23 760.68 479.46C760.45 482.68 760.33 485.94 760.33 489.22C760.33 539.49 827.3 603.95 834.17 608.24V608.65C834.17 608.65 834.43 608.48 834.52 608.44C834.6 608.48 834.83 608.65 834.87 608.65V608.24C841.73 603.95 908.71 539.49 908.71 489.22C908.71 485.93 908.59 482.68 908.36 479.46H908.35ZM834.52 530.89C811.52 530.89 792.88 512.24 792.88 489.24C792.88 466.24 811.52 447.6 834.52 447.6C857.52 447.6 876.16 466.24 876.16 489.24C876.16 512.24 857.52 530.89 834.52 530.89Z" fill="white"/>
</mask>
<g mask="url(#mask4_287_81364)">
<path d="M972.64 522.069C970.51 518.279 968.4 515.099 966.48 512.469C964.52 509.859 962.78 507.779 961.3 506.189C960.55 505.409 959.89 504.729 959.32 504.139C958.73 503.579 958.22 503.129 957.81 502.769C956.99 502.059 956.54 501.749 956.45 501.829C956.37 501.909 956.66 502.379 957.31 503.239C957.64 503.669 958.06 504.189 958.57 504.809C959.07 505.439 959.64 506.179 960.3 507.029C961.62 508.719 963.21 510.859 965.03 513.499C966.81 516.159 968.81 519.319 970.86 523.059C973.74 528.379 976.26 533.949 978.31 539.759C980.37 545.559 982.14 551.569 983.36 557.719C983.95 560.799 984.45 563.929 984.68 567.089C984.93 570.249 985.03 573.449 984.77 576.639C984.52 579.819 984.09 583.029 983.17 586.119C982.27 589.209 980.99 592.209 979.27 594.969C978.81 595.639 978.35 596.309 977.88 596.979C977.39 597.629 976.83 598.229 976.31 598.869C975.24 600.109 974.03 601.229 972.74 602.279C970.16 604.359 967.21 606.049 964.03 607.329C957.66 609.889 950.53 610.939 943.25 610.989C928.61 611.009 913.26 607.589 898.22 601.239C889.68 597.649 882.29 593.589 875.74 589.509C869.19 585.429 863.5 581.299 858.36 577.329C848.11 569.339 840.08 561.939 832.73 554.929C825.42 547.879 818.77 541.219 812.02 533.809C805.31 526.379 798.41 518.249 791.41 507.759C785.5 498.909 779.9 488.719 775.76 477.319C773.67 471.629 771.99 465.649 770.85 459.449C769.69 453.259 769.08 446.859 769.24 440.419C769.43 433.989 770.39 427.499 772.46 421.349C774.55 415.229 777.71 409.409 782.19 404.789C782.47 404.499 782.73 404.189 783.02 403.919L783.91 403.109C784.51 402.579 785.07 401.999 785.71 401.519L787.62 400.069C788.24 399.569 788.96 399.189 789.62 398.749C790.94 397.839 792.41 397.179 793.81 396.419C795.29 395.809 796.72 395.099 798.25 394.629C804.27 392.479 810.67 391.719 816.91 391.809C829.49 392.079 841.2 396.589 851.03 402.519C855.98 405.449 860.53 408.739 864.73 412.099C868.94 415.459 872.81 418.899 876.42 422.249C883.61 428.989 889.76 435.289 894.75 440.779C897.2 443.559 899.46 446.049 901.33 448.359C902.28 449.499 903.17 450.569 904 451.559C904.79 452.579 905.52 453.509 906.19 454.359L908.55 457.379L910.81 460.479C911.56 461.519 912.34 462.529 913.06 463.589L915.22 466.769C917.81 470.539 921.27 476.059 925.05 483.279C928.8 490.499 932.77 499.509 935.63 510.269C935.98 511.619 936.34 512.979 936.7 514.369C936.98 515.769 937.26 517.199 937.55 518.639C938.16 521.529 938.62 524.499 938.85 527.559C939.09 530.609 939.08 533.739 938.67 536.859C938.23 539.969 937.38 543.069 935.83 545.879C934.33 548.709 932.09 551.149 929.36 553.089C926.63 555.029 923.43 556.419 920.03 557.279C916.62 558.109 913.02 558.349 909.37 558.069C905.72 557.769 902.04 556.979 898.41 555.829C894.78 554.679 891.17 553.189 887.62 551.459C885.82 550.649 884.09 549.669 882.32 548.759C880.6 547.749 878.82 546.809 877.13 545.699C870.26 541.449 863.75 536.339 857.68 530.569C845.54 519.019 835.45 504.639 828 488.789C820.53 472.939 815.51 455.659 812.79 438.209C812.18 433.869 811.93 429.509 812.45 425.269C812.97 421.059 814.33 416.949 816.64 413.499C818.92 410.039 822.22 407.359 826.1 406.129C829.97 404.869 834.24 404.879 838.23 405.829C843.91 407.149 848.85 410.459 852.92 414.379C857.01 418.329 860.35 422.899 863.31 427.529C869.23 436.799 873.36 446.509 876.11 456.009C878.87 465.519 880.26 474.859 880.6 483.649C880.91 492.429 879.83 500.709 877.81 508.169C875.79 515.639 872.82 522.299 869.38 528.059C868.46 529.419 867.64 530.829 866.59 532.029C866.08 532.629 865.64 533.299 865.08 533.839C864.54 534.399 864.01 534.949 863.48 535.499C861.26 537.579 858.95 539.409 856.48 540.779C851.61 543.649 846.56 545.229 841.87 546.179C837.18 547.149 832.81 547.489 828.9 547.629C819.64 547.959 810.61 547.079 801.92 545.879C793.22 544.649 784.81 543.039 776.66 541.339C760.34 537.919 744.98 534.169 730.04 531.259C722.57 529.819 715.2 528.579 707.89 527.739C704.23 527.369 700.59 527.019 696.95 526.909C695.14 526.809 693.32 526.849 691.51 526.829C689.7 526.899 687.89 526.909 686.09 527.089C684.29 527.189 682.5 527.469 680.72 527.699C678.95 528.039 677.17 528.329 675.44 528.839C671.97 529.779 668.56 531.069 665.47 532.949C659.27 536.699 654.62 542.779 652.44 549.509C652.28 549.969 652.12 550.419 651.96 550.859C651.84 551.309 651.72 551.759 651.61 552.199C651.39 553.079 651.15 553.929 650.97 554.749C650.83 555.579 650.69 556.389 650.56 557.159C650.43 557.929 650.3 558.669 650.26 559.399C650.15 560.839 649.98 562.149 649.96 563.349C649.95 564.549 649.94 565.619 649.93 566.579C650.05 570.399 650.35 572.289 650.53 572.279C650.75 572.279 650.86 570.369 651.07 566.599C651.15 565.659 651.23 564.609 651.32 563.429C651.41 562.259 651.64 560.989 651.8 559.589C651.87 558.889 652.02 558.169 652.17 557.429C652.32 556.689 652.47 555.909 652.63 555.109C652.82 554.319 653.07 553.509 653.3 552.669C653.42 552.249 653.54 551.819 653.66 551.389C653.82 550.969 653.98 550.539 654.14 550.109C656.31 543.699 660.7 538.139 666.52 534.689C669.43 532.949 672.66 531.759 675.98 530.899C677.64 530.429 679.35 530.169 681.05 529.859C682.78 529.649 684.5 529.399 686.25 529.319C687.99 529.159 689.76 529.169 691.52 529.109C693.29 529.149 695.06 529.109 696.85 529.229C700.41 529.359 704 529.729 707.61 530.119C714.83 530.999 722.12 532.269 729.55 533.749C744.39 536.729 759.73 540.529 776.1 544.009C784.29 545.739 792.74 547.379 801.54 548.639C810.33 549.859 819.5 550.769 829.02 550.439C832.71 550.329 836.92 549.989 841.56 549.109C846.19 548.229 851.28 546.799 856.41 544.149C858.92 542.739 861.51 541.179 863.85 539.079C865.08 538.109 866.16 536.919 867.3 535.759C867.88 535.189 868.35 534.509 868.88 533.869C869.39 533.219 869.95 532.599 870.39 531.879C872.34 529.099 873.95 526.109 875.52 522.929C877.07 519.739 878.45 516.349 879.61 512.759C881.94 505.589 883.44 497.669 883.72 489.239C883.88 485.029 883.67 480.689 883.24 476.309C882.82 471.919 882.12 467.449 881.15 462.919C879.2 453.879 876.13 444.619 871.63 435.569C869.37 431.049 866.75 426.589 863.75 422.269C860.75 417.949 857.32 413.699 853.07 410.059C850.3 407.689 847.2 405.659 843.78 404.189C840.36 402.749 836.67 401.929 832.93 401.869C829.2 401.839 825.39 402.569 822.01 404.339C818.62 406.099 815.83 408.829 813.83 411.949C811.65 415.319 810.28 419.149 809.6 423.089C808.92 427.029 808.94 431.039 809.31 434.979C809.68 438.919 810.38 442.799 811.18 446.639C811.94 450.499 812.86 454.339 813.85 458.169C817.85 473.489 823.81 488.549 831.82 502.249C839.85 515.929 850.01 528.179 861.6 537.899C867.36 542.799 873.52 547.009 879.81 550.589C886.11 554.139 892.55 557.089 899.16 559.029C905.75 560.939 912.59 561.659 918.97 560.439C925.3 559.229 931.08 556.239 935.09 551.849C937.08 549.649 938.58 547.139 939.63 544.579C940.66 542.009 941.25 539.399 941.57 536.879C942.19 531.829 941.83 527.169 941.27 523.029C939.95 514.799 938.32 508.379 936.88 504.079C936.17 501.929 935.7 500.239 935.25 499.149C934.83 498.049 934.61 497.469 934.61 497.469C934.61 497.469 934.28 496.619 933.66 494.989C933.09 493.339 932 491.019 930.67 487.999C927.9 482.019 923.49 473.529 916.86 463.849C910.3 454.129 901.45 443.309 890.74 432.259C889.39 430.889 888.02 429.499 886.64 428.099C885.23 426.729 883.8 425.339 882.36 423.939C879.47 421.149 876.45 418.359 873.31 415.599C867.02 410.099 860.16 404.729 852.51 400.179C844.86 395.659 836.39 391.939 827.25 390.219C818.16 388.519 808.52 388.729 799.47 391.459C794.96 392.819 790.61 394.839 786.71 397.529C782.81 400.219 779.39 403.599 776.66 407.439C773.92 411.269 771.82 415.489 770.28 419.839C768.76 424.209 767.8 428.709 767.25 433.199C766.71 437.689 766.59 442.179 766.8 446.589C767.04 450.989 767.57 455.319 768.34 459.529C769.1 463.749 770.11 467.849 771.33 471.799C772.54 475.749 773.9 479.589 775.43 483.249C781.51 497.949 789.62 510.099 797.1 519.859C802.77 527.209 808.5 533.719 814.03 539.639C819.57 545.559 824.9 550.899 829.94 555.809C840.02 565.649 849.14 573.609 857.42 580.029C873.99 592.869 887.01 599.519 897.11 603.819C912.46 610.289 928.15 613.779 943.25 613.729C950.79 613.659 958.24 612.559 965.03 609.809C968.41 608.429 971.59 606.599 974.39 604.329C975.78 603.189 977.1 601.959 978.26 600.599C978.83 599.909 979.42 599.249 979.96 598.539C980.46 597.809 980.96 597.079 981.45 596.349C983.3 593.339 984.66 590.109 985.6 586.809C986.57 583.509 987 580.129 987.24 576.799C987.48 573.459 987.36 570.139 987.08 566.879C986.82 563.609 986.29 560.409 985.66 557.249C984.36 550.939 982.51 544.889 980.37 538.999C978.23 533.109 975.61 527.469 972.62 522.069H972.64Z" fill="#F8F8F8"/>
<path d="M925.88 371.549C922.01 371.549 919.26 372.989 917.86 374.259C916.44 375.569 916.16 376.539 916.32 376.639C916.53 376.799 917.18 376.159 918.62 375.299C920.06 374.469 922.47 373.489 925.85 373.559C928.23 373.609 930.58 374.329 932.81 375.429C935.04 376.529 937.15 377.999 939.23 379.619C943.37 382.909 947.54 386.469 951.58 390.439C955.64 394.399 959.61 398.749 963.31 403.679C965.15 406.149 966.96 408.739 968.62 411.519C970.29 414.289 971.88 417.209 973.25 420.319C976.42 427.349 977.93 433.499 978.72 438.809C979.5 444.129 979.58 448.669 979.25 452.839C978.91 457.009 978.17 460.849 976.9 464.779C976.62 465.779 976.22 466.749 975.83 467.749C975.47 468.759 974.99 469.749 974.5 470.769C973.55 472.819 972.32 474.889 970.83 477.039C969.6 478.869 968.12 480.629 966.53 482.399C964.91 484.149 963.12 485.829 961.19 487.439C959.23 489.019 957.13 490.519 954.9 491.909C952.65 493.269 950.28 494.499 947.81 495.579C937.91 499.899 926.43 501.279 915.91 500.259C910.65 499.739 905.59 498.749 900.99 497.289C896.34 495.979 892.2 494.119 888.49 492.409C881.16 488.769 875.93 484.939 873.12 482.709C872.29 482.049 871.43 481.419 870.61 480.729L868.18 478.639C865.32 476.129 860.07 471.349 854.42 463.899C851.55 460.209 848.67 455.819 845.94 450.829C843.22 445.839 840.61 440.229 838.67 434.079C836.73 427.949 835.46 421.219 835.82 414.329C836.19 407.479 838.24 400.409 842.38 394.619C844.43 391.729 847.03 389.229 850 387.249C852.99 385.289 856.32 383.799 859.81 382.849C866.79 380.869 874.22 381.019 881.23 382.399C886.2 383.349 890.83 384.839 895.15 386.509C897.31 387.339 899.34 388.339 901.36 389.199C902.36 389.659 903.37 390.059 904.32 390.539C905.26 391.049 906.19 391.539 907.11 392.039C908.03 392.529 908.93 393.019 909.83 393.489C910.28 393.729 910.72 393.969 911.16 394.199C911.6 394.439 912 394.729 912.42 394.979C914.08 396.029 915.7 397.049 917.27 398.039C917.66 398.289 918.06 398.529 918.43 398.779C918.8 399.049 919.16 399.319 919.53 399.589C920.26 400.119 920.97 400.649 921.67 401.169C922.37 401.689 923.07 402.199 923.75 402.699C924.43 403.199 925.11 403.679 925.72 404.229C926.97 405.289 928.18 406.309 929.35 407.299C929.93 407.789 930.51 408.279 931.07 408.759C931.64 409.229 932.13 409.769 932.65 410.249C933.67 411.239 934.66 412.199 935.61 413.119C936.56 414.039 937.49 414.899 938.28 415.829C939.91 417.639 941.41 419.299 942.78 420.809C944.07 422.389 945.19 423.849 946.22 425.139C946.83 425.909 947.43 426.669 948.02 427.419C948.58 428.199 949.11 428.989 949.65 429.769C950.72 431.329 951.78 432.859 952.82 434.379C953.76 435.959 954.69 437.509 955.61 439.039C956.07 439.809 956.52 440.569 956.97 441.319C957.41 442.079 957.78 442.879 958.18 443.639C958.97 445.189 959.75 446.709 960.52 448.219C960.93 448.959 961.24 449.739 961.57 450.509C961.9 451.279 962.23 452.039 962.55 452.799C963.18 454.319 963.89 455.799 964.44 457.309C964.98 458.829 965.5 460.329 966.03 461.819C968.12 467.779 969.52 473.679 970.62 479.479C971.49 485.299 972.46 491.079 972.2 496.729C972.06 499.829 971.61 502.089 971.27 503.599C970.92 505.109 970.73 505.889 970.93 505.989C971.1 506.069 971.67 505.459 972.35 503.969C973.03 502.489 973.76 500.099 974 496.849C974.43 490.919 973.58 485.089 972.82 479.129C971.83 473.189 970.49 467.139 968.44 461.029C967.92 459.499 967.4 457.959 966.87 456.399C966.32 454.849 965.62 453.339 964.99 451.769C964.66 450.989 964.34 450.209 964.01 449.419C963.68 448.629 963.37 447.829 962.96 447.069C962.18 445.529 961.4 443.959 960.6 442.379C960.19 441.589 959.82 440.779 959.38 439.999C958.92 439.229 958.46 438.449 958 437.659C957.07 436.089 956.13 434.499 955.17 432.879C954.11 431.329 953.03 429.759 951.94 428.159C951.39 427.369 950.85 426.549 950.27 425.749C949.66 424.979 949.05 424.199 948.43 423.419C947.47 422.199 946.39 420.809 945.17 419.259C943.86 417.789 942.42 416.159 940.85 414.389C940.46 413.949 940.05 413.489 939.64 413.029C939.23 412.569 938.76 412.149 938.31 411.689C937.4 410.789 936.45 409.849 935.46 408.879C933.55 406.869 931.25 404.999 928.87 402.939C919.29 394.799 905.86 386.169 888.23 380.699C882.46 379.029 876.4 378.039 870.36 378.169C863.84 378.339 857.04 379.829 850.97 383.159C847.94 384.819 845.14 386.959 842.76 389.509C840.41 392.079 838.44 394.979 836.97 398.079C833.98 404.279 832.8 411.089 832.92 417.549C833.05 424.019 834.4 430.129 836.17 435.599C839.78 446.549 844.82 455.129 848.71 460.939C850.62 463.879 852.4 466.029 853.52 467.579C854.74 469.049 855.4 469.849 855.4 469.849C855.4 469.849 855.65 470.149 856.12 470.709C856.59 471.269 857.28 472.109 858.25 473.109C860.13 475.159 862.91 478.089 866.68 481.319C870.4 484.609 875.13 488.179 880.77 491.479C886.4 494.789 892.97 497.819 900.17 499.929C907.35 502.119 915.2 503.259 923.07 503.199C930.94 503.139 938.84 501.709 945.99 499.009C953.14 496.309 959.47 492.329 964.5 487.809C969.54 483.279 973.29 478.249 975.79 473.589C977.66 470.069 978.99 466.579 979.96 463.229C980.9 459.879 981.42 456.669 981.76 453.669C982.33 447.649 981.98 442.459 981.34 438.049C979.99 429.209 977.69 423.429 975.8 419.179C974.37 415.949 972.72 412.929 970.99 410.079C969.27 407.219 967.4 404.559 965.49 402.029C961.65 396.989 957.55 392.569 953.37 388.579C949.2 384.579 944.93 381.049 940.64 377.759C938.47 376.139 936.21 374.609 933.74 373.459C931.29 372.319 928.59 371.539 925.86 371.549H925.88Z" fill="#F8F8F8"/>
</g>
</g>
</g>
<defs>
<clipPath id="clip0_287_81364">
<rect width="960" height="540" fill="white"/>
</clipPath>
</defs>
</svg>
