<svg width="961" height="540" viewBox="0 0 961 540" fill="none" xmlns="http://www.w3.org/2000/svg">
<g clip-path="url(#clip0_287_72042)">
<path d="M419.66 228.58L960.01 475.14V438.6C920.79 425.92 881.74 409.14 846.87 387.21L872.21 226.64C898.92 244.31 928.99 258.96 960.01 270.79V0H806.39V278.92H651.78V0H472.29L598.86 19.98C565.18 116.42 503.77 187.05 419.65 228.58H419.66Z" fill="#48245D"/>
<path d="M308.331 436.83L177.661 371.98L182.131 270.98C157.631 269.68 132.321 267.01 106.211 262.89C73.0706 257.66 36.6306 249.79 0.140625 238.43V539.92H79.0606V436.82H308.331V436.83Z" fill="#48245D"/>
<path d="M484.57 524.3L435.75 500.07V539.93H484.57V524.3Z" fill="#48245D"/>
<path d="M403.81 0H321.96C307.79 46.24 271.39 74.93 222.34 82.89C213.03 84.4 203.27 85.18 193.11 85.17C182.51 85.17 172.36 84.32 162.68 82.71C113.65 74.52 77.3604 45.92 63.1804 0H0.150391V71.02C39.5404 85.46 80.1704 95.42 117.21 101.27C265.19 124.62 357.51 83.82 403.81 0Z" fill="#48245D"/>
<path d="M413.04 231.76C412.15 232.18 411.25 232.58 410.35 232.99C408.82 233.69 407.28 234.39 405.74 235.08C404.71 235.54 403.68 235.99 402.64 236.43C401.16 237.07 399.67 237.7 398.18 238.32C397.17 238.74 396.16 239.17 395.14 239.58C393.31 240.33 391.47 241.05 389.62 241.77C388.69 242.13 387.76 242.5 386.82 242.85C384.68 243.66 382.52 244.46 380.36 245.25C379.33 245.62 378.28 245.98 377.24 246.35C375.69 246.89 374.14 247.43 372.57 247.96C371.46 248.34 370.34 248.71 369.22 249.08C367.64 249.6 366.05 250.1 364.46 250.6C363.41 250.93 362.36 251.27 361.3 251.59C358.8 252.35 356.28 253.1 353.75 253.82C352.88 254.07 351.99 254.3 351.11 254.55C349.31 255.05 347.5 255.55 345.68 256.03C344.51 256.34 343.34 256.64 342.17 256.93C340.59 257.33 339.01 257.73 337.42 258.11C336.22 258.4 335.01 258.69 333.8 258.98C332.11 259.38 330.4 259.76 328.69 260.14C327.61 260.38 326.54 260.63 325.46 260.86C322.84 261.42 320.21 261.96 317.56 262.48C316.43 262.7 315.29 262.91 314.15 263.12C312.45 263.44 310.75 263.75 309.05 264.06C307.76 264.29 306.47 264.51 305.18 264.72C303.57 264.99 301.94 265.25 300.32 265.51C299.03 265.71 297.74 265.92 296.45 266.11C294.59 266.39 292.73 266.65 290.86 266.91C289.4 267.11 287.95 267.31 286.48 267.5C284.15 267.8 281.82 268.09 279.48 268.36C278.17 268.51 276.84 268.65 275.52 268.79C273.86 268.97 272.2 269.14 270.53 269.3C269.13 269.44 267.73 269.57 266.32 269.69C264.66 269.84 262.99 269.98 261.32 270.11C259.95 270.22 258.59 270.33 257.22 270.43C254.98 270.59 252.73 270.73 250.47 270.87C248.72 270.97 246.96 271.07 245.2 271.16C243.31 271.25 241.42 271.35 239.52 271.42C238.07 271.48 236.61 271.52 235.16 271.57C233.49 271.62 231.82 271.67 230.14 271.71C228.65 271.75 227.16 271.78 225.66 271.8C223.91 271.83 222.16 271.84 220.4 271.86C218.99 271.87 217.59 271.89 216.18 271.89C213.26 271.89 210.33 271.87 207.38 271.83C205.97 271.81 204.55 271.77 203.14 271.74C201.35 271.7 199.55 271.67 197.75 271.61C196.2 271.57 194.65 271.51 193.09 271.45C191.37 271.39 189.65 271.32 187.92 271.24C186.37 271.17 184.82 271.1 183.26 271.02C182.88 271 182.5 270.99 182.12 270.97L177.65 371.96L308.32 436.81H435.74V500.05L484.56 524.28V436.81H664.07V539.98H960V475.11L419.66 228.58C417.47 229.66 415.26 230.72 413.04 231.76Z" fill="#35243F"/>
<path d="M162.68 82.71C172.36 84.33 182.52 85.17 193.11 85.17C203.27 85.17 213.03 84.4 222.34 82.89C271.4 74.93 307.79 46.24 321.96 0H63.1797C77.3597 45.92 113.66 74.52 162.68 82.71Z" fill="#35243F"/>
<path d="M182.14 270.98L188.68 123.18L419.66 228.57C503.78 187.04 565.19 116.41 598.87 19.97L472.3 0H403.81C357.51 83.82 265.19 124.62 117.2 101.27C80.16 95.43 39.53 85.46 0.14 71.02C0.09 71 0.05 70.99 0 70.97V238.4C0 238.4 0.09 238.43 0.14 238.44C36.63 249.8 73.07 257.67 106.21 262.9C132.32 267.02 157.63 269.69 182.13 270.99L182.14 270.98Z" fill="#35243F"/>
<path d="M197.76 271.631C196.21 271.591 194.66 271.531 193.1 271.471C194.66 271.531 196.21 271.581 197.76 271.631Z" fill="#35243F"/>
<path d="M239.53 271.42C238.08 271.48 236.62 271.52 235.17 271.57C236.63 271.52 238.08 271.48 239.53 271.42Z" fill="#35243F"/>
<path d="M230.15 271.721C228.66 271.761 227.17 271.791 225.67 271.811C227.17 271.791 228.66 271.751 230.15 271.721Z" fill="#35243F"/>
<path d="M413.04 231.76C412.15 232.18 411.25 232.58 410.35 232.99C411.25 232.58 412.15 232.17 413.04 231.76Z" fill="#35243F"/>
<path d="M405.741 235.08C404.711 235.54 403.681 235.99 402.641 236.43C403.671 235.98 404.711 235.53 405.741 235.08Z" fill="#35243F"/>
<path d="M380.37 245.26C379.34 245.63 378.29 245.99 377.25 246.36C378.29 245.99 379.33 245.63 380.37 245.26Z" fill="#35243F"/>
<path d="M353.749 253.84C352.879 254.09 351.989 254.32 351.109 254.57C351.989 254.33 352.869 254.09 353.749 253.84Z" fill="#35243F"/>
<path d="M328.701 260.15C327.621 260.39 326.551 260.64 325.471 260.87C326.551 260.64 327.631 260.39 328.701 260.15Z" fill="#35243F"/>
<path d="M337.419 258.131C336.219 258.421 335.009 258.711 333.799 259.001C335.009 258.721 336.209 258.431 337.419 258.131Z" fill="#35243F"/>
<path d="M345.69 256.039C344.52 256.349 343.35 256.649 342.18 256.939C343.35 256.639 344.53 256.339 345.69 256.039Z" fill="#35243F"/>
<path d="M389.62 241.779C388.69 242.139 387.76 242.509 386.82 242.859C387.76 242.499 388.69 242.139 389.62 241.779Z" fill="#35243F"/>
<path d="M250.479 270.869C248.729 270.969 246.969 271.069 245.209 271.159C246.969 271.069 248.729 270.979 250.479 270.869Z" fill="#35243F"/>
<path d="M290.86 266.92C289.4 267.12 287.95 267.32 286.48 267.51C287.94 267.32 289.4 267.12 290.86 266.92Z" fill="#35243F"/>
<path d="M270.53 269.311C269.13 269.451 267.73 269.581 266.32 269.701C267.73 269.571 269.13 269.441 270.53 269.311Z" fill="#35243F"/>
<path d="M279.48 268.359C278.17 268.509 276.84 268.649 275.52 268.789C276.84 268.649 278.16 268.509 279.48 268.359Z" fill="#35243F"/>
<path d="M300.319 265.52C299.029 265.72 297.739 265.93 296.449 266.12C297.749 265.93 299.029 265.72 300.319 265.52Z" fill="#35243F"/>
<path d="M309.05 264.07C307.76 264.3 306.47 264.52 305.18 264.73C306.47 264.51 307.76 264.29 309.05 264.07Z" fill="#35243F"/>
<path d="M435.75 500.07L308.33 436.83H79.0703V539.93V540H435.75V539.93V500.07Z" fill="#35243F"/>
<path d="M484.57 524.301V539.931V540.001H516.2L484.57 524.301Z" fill="#35243F"/>
<path d="M183.27 271.051C184.83 271.131 186.38 271.201 187.93 271.271C189.66 271.351 191.38 271.421 193.1 271.481C194.66 271.541 196.21 271.591 197.76 271.641C199.56 271.691 201.36 271.731 203.15 271.771C204.56 271.801 205.98 271.841 207.39 271.861C210.34 271.901 213.27 271.921 216.19 271.921C217.6 271.921 219 271.901 220.41 271.891C222.17 271.881 223.92 271.861 225.67 271.831C227.17 271.811 228.66 271.771 230.15 271.741C231.83 271.701 233.5 271.651 235.17 271.601C236.63 271.551 238.08 271.511 239.53 271.451C241.43 271.371 243.32 271.281 245.21 271.191C246.97 271.101 248.73 271.011 250.48 270.901C252.74 270.771 254.99 270.621 257.23 270.461C258.6 270.361 259.96 270.251 261.33 270.141C263 270.011 264.67 269.871 266.33 269.721C267.74 269.591 269.14 269.461 270.54 269.331C272.21 269.171 273.87 268.991 275.53 268.821C276.85 268.681 278.17 268.541 279.49 268.391C281.84 268.121 284.17 267.831 286.49 267.531C287.95 267.341 289.41 267.141 290.87 266.941C292.74 266.681 294.61 266.421 296.46 266.141C297.76 265.951 299.04 265.741 300.33 265.541C301.96 265.281 303.58 265.021 305.19 264.751C306.48 264.531 307.77 264.311 309.06 264.091C310.77 263.791 312.47 263.471 314.16 263.151C315.3 262.941 316.44 262.731 317.57 262.511C320.22 261.991 322.85 261.451 325.47 260.891C326.55 260.661 327.63 260.411 328.7 260.171C330.41 259.791 332.11 259.411 333.81 259.011C335.02 258.731 336.22 258.441 337.43 258.141C339.02 257.751 340.6 257.361 342.18 256.961C343.35 256.661 344.53 256.361 345.69 256.061C347.51 255.581 349.32 255.081 351.12 254.581C352 254.341 352.88 254.101 353.76 253.851C356.29 253.131 358.81 252.381 361.31 251.621C362.37 251.301 363.42 250.961 364.47 250.631C366.06 250.131 367.65 249.621 369.23 249.111C370.35 248.741 371.47 248.371 372.58 247.991C374.14 247.461 375.7 246.921 377.25 246.381C378.29 246.011 379.33 245.651 380.37 245.281C382.54 244.501 384.69 243.701 386.83 242.881C387.77 242.521 388.7 242.161 389.63 241.801C391.48 241.081 393.32 240.351 395.15 239.611C396.17 239.201 397.18 238.771 398.19 238.351C399.68 237.731 401.17 237.101 402.65 236.461C403.68 236.011 404.72 235.561 405.75 235.111C407.3 234.431 408.83 233.731 410.36 233.021C411.26 232.611 412.16 232.201 413.05 231.791C415.27 230.751 417.48 229.691 419.67 228.611L188.69 123.221L182.15 271.021C182.53 271.051 182.91 271.071 183.29 271.081L183.27 271.051Z" fill="#48245D"/>
<path d="M664.08 436.83H484.57V524.3L516.2 540H664.08V436.83Z" fill="#48245D"/>
<path d="M308.33 436.83L435.75 500.07V436.83H308.33Z" fill="#48245D"/>
<path d="M806.389 0H651.779V278.92H806.389V0Z" fill="#35243F"/>
<path d="M846.869 387.211C881.739 409.141 920.789 425.921 960.009 438.601V270.791C928.989 258.951 898.919 244.311 872.209 226.641L846.869 387.211Z" fill="#35243F"/>
</g>
<defs>
<clipPath id="clip0_287_72042">
<rect width="960.01" height="540.001" fill="white"/>
</clipPath>
</defs>
</svg>
