<svg width="961" height="540" viewBox="0 0 961 540" fill="none" xmlns="http://www.w3.org/2000/svg">
<g clip-path="url(#clip0_287_72083)">
<path d="M484.43 526.791L435.6 502.561V540.001H484.43V526.791Z" fill="#3A2C1F"/>
<path d="M419.51 231.07L960 477.69V441.13C920.74 428.44 881.64 411.66 846.73 389.7L872.07 229.13C898.82 246.82 928.93 261.49 960 273.33V0H806.25V281.41H651.64V0H456.37L598.73 22.47C565.05 118.91 503.64 189.54 419.52 231.07H419.51Z" fill="#3A2C1F"/>
<path d="M405.03 0H322.56C308.94 47.71 272.13 77.28 222.2 85.38C212.89 86.89 203.13 87.67 192.97 87.66C182.37 87.66 172.22 86.81 162.54 85.2C112.63 76.86 75.91 47.38 62.28 0H0V73.51C39.39 87.95 80.02 97.91 117.06 103.76C266.51 127.34 359.18 85.5 405.03 0Z" fill="#3A2C1F"/>
<path d="M78.92 439.33H308.19L177.52 374.48L181.99 273.49C157.49 272.18 132.18 269.51 106.07 265.39C72.93 260.16 36.49 252.29 0 240.93V540H78.92V439.33Z" fill="#3A2C1F"/>
<path d="M419.511 231.07C417.321 232.15 415.111 233.21 412.891 234.25C412.001 234.67 411.101 235.07 410.201 235.48C408.671 236.18 407.131 236.88 405.591 237.57C404.561 238.03 403.521 238.48 402.491 238.92C401.011 239.56 399.531 240.19 398.041 240.81C397.031 241.23 396.021 241.66 395.001 242.07C393.171 242.82 391.331 243.54 389.481 244.26C388.551 244.62 387.621 244.99 386.691 245.34C384.551 246.16 382.391 246.96 380.221 247.74C379.191 248.11 378.151 248.47 377.111 248.84C375.561 249.39 374.001 249.92 372.441 250.45C371.331 250.83 370.211 251.2 369.091 251.57C367.511 252.09 365.921 252.59 364.331 253.09C363.281 253.42 362.231 253.76 361.171 254.08C358.671 254.84 356.161 255.59 353.631 256.31C352.751 256.56 351.861 256.8 350.981 257.04C349.181 257.54 347.381 258.04 345.561 258.51C344.391 258.82 343.221 259.12 342.051 259.41C340.471 259.81 338.891 260.21 337.301 260.59C336.091 260.88 334.891 261.17 333.681 261.46C331.991 261.86 330.301 262.24 328.601 262.61C327.511 262.85 326.431 263.1 325.341 263.33C322.731 263.89 320.091 264.43 317.451 264.95C316.311 265.17 315.161 265.38 314.021 265.6C312.331 265.92 310.641 266.23 308.941 266.53C307.651 266.76 306.351 266.98 305.051 267.2C303.441 267.47 301.831 267.73 300.211 267.99C298.921 268.19 297.621 268.4 296.321 268.59C294.471 268.87 292.611 269.13 290.751 269.38C289.281 269.58 287.821 269.78 286.351 269.97C284.031 270.27 281.711 270.56 279.371 270.82C278.051 270.97 276.721 271.11 275.401 271.25C273.751 271.43 272.091 271.6 270.431 271.76C269.031 271.9 267.621 272.03 266.211 272.15C264.561 272.3 262.891 272.43 261.231 272.57C259.861 272.68 258.491 272.79 257.111 272.89C254.891 273.05 252.651 273.19 250.411 273.32C248.631 273.43 246.851 273.52 245.071 273.61C243.191 273.7 241.311 273.8 239.421 273.87C237.971 273.93 236.511 273.97 235.051 274.02C233.381 274.07 231.711 274.12 230.041 274.16C228.551 274.2 227.061 274.23 225.561 274.25C223.821 274.28 222.071 274.29 220.321 274.31C218.911 274.32 217.511 274.34 216.091 274.34C213.171 274.34 210.241 274.32 207.301 274.28C205.891 274.26 204.461 274.22 203.051 274.19C201.261 274.15 199.461 274.12 197.661 274.06C196.111 274.02 194.561 273.96 193.001 273.9C191.281 273.84 189.551 273.77 187.821 273.69C186.271 273.62 184.721 273.55 183.171 273.47C182.791 273.45 182.411 273.44 182.031 273.42L177.561 374.41L308.231 439.26H435.651V502.5L484.471 526.73V439.26H663.981V539.93H960.041V477.62L419.511 231.07Z" fill="#693200"/>
<path d="M162.529 85.2C172.209 86.82 182.369 87.66 192.959 87.66C203.119 87.66 212.879 86.89 222.189 85.38C272.119 77.28 308.939 47.7 322.549 0H62.2793C75.9093 47.38 112.619 76.86 162.529 85.2Z" fill="#693200"/>
<path d="M181.99 273.48L188.53 125.68L419.51 231.07C503.63 189.54 565.04 118.91 598.72 22.47L456.37 0H405.03C359.19 85.5 266.51 127.34 117.06 103.76C80.02 97.92 39.39 87.95 0 73.51V240.93C36.49 252.29 72.93 260.16 106.07 265.39C132.18 269.51 157.49 272.18 181.99 273.48Z" fill="#9E4C00"/>
<path d="M412.901 234.25C412.011 234.67 411.111 235.07 410.211 235.48C411.111 235.07 412.011 234.66 412.901 234.25Z" fill="#9E4C00"/>
<path d="M337.28 260.619C336.07 260.909 334.87 261.199 333.66 261.489C334.87 261.209 336.08 260.909 337.28 260.619Z" fill="#9E4C00"/>
<path d="M308.919 266.561C307.629 266.791 306.329 267.011 305.029 267.231C306.329 267.011 307.619 266.791 308.919 266.561Z" fill="#9E4C00"/>
<path d="M317.43 264.98C316.29 265.2 315.14 265.41 314 265.63C315.14 265.41 316.29 265.21 317.43 264.98Z" fill="#9E4C00"/>
<path d="M300.191 268.01C298.901 268.21 297.601 268.42 296.301 268.61C297.601 268.42 298.891 268.21 300.191 268.01Z" fill="#9E4C00"/>
<path d="M270.39 271.801C268.99 271.941 267.58 272.071 266.17 272.191C267.58 272.061 268.99 271.931 270.39 271.801Z" fill="#9E4C00"/>
<path d="M279.339 270.859C278.019 271.009 276.689 271.149 275.369 271.289C276.699 271.149 278.019 271.009 279.339 270.859Z" fill="#9E4C00"/>
<path d="M380.219 247.76C379.189 248.13 378.149 248.49 377.109 248.86C378.149 248.5 379.189 248.14 380.219 247.76Z" fill="#9E4C00"/>
<path d="M250.379 273.359C248.599 273.469 246.819 273.559 245.039 273.649C246.829 273.559 248.609 273.469 250.379 273.359Z" fill="#9E4C00"/>
<path d="M389.479 244.279C388.549 244.639 387.619 245.009 386.689 245.359C387.619 244.999 388.549 244.639 389.479 244.279Z" fill="#9E4C00"/>
<path d="M405.6 237.57C404.57 238.03 403.53 238.48 402.5 238.92C403.54 238.47 404.57 238.02 405.6 237.57Z" fill="#9E4C00"/>
<path d="M345.539 258.529C344.369 258.839 343.199 259.139 342.029 259.429C343.199 259.129 344.379 258.829 345.539 258.529Z" fill="#9E4C00"/>
<path d="M353.611 256.33C352.731 256.58 351.841 256.82 350.961 257.06C351.841 256.81 352.731 256.58 353.611 256.33Z" fill="#9E4C00"/>
<path d="M207.26 274.33C205.85 274.31 204.42 274.27 203.01 274.24C204.43 274.27 205.85 274.31 207.26 274.33Z" fill="#9E4C00"/>
<path d="M230 274.211C228.51 274.251 227.02 274.281 225.52 274.301C227.02 274.281 228.51 274.241 230 274.211Z" fill="#9E4C00"/>
<path d="M197.621 274.121C196.071 274.081 194.521 274.021 192.961 273.961C194.511 274.021 196.071 274.071 197.621 274.121Z" fill="#9E4C00"/>
<path d="M187.781 273.759C186.231 273.689 184.681 273.619 183.131 273.539C184.691 273.619 186.231 273.689 187.781 273.759Z" fill="#9E4C00"/>
<path d="M308.19 439.33H78.9199V540H435.6V502.56L308.19 439.33Z" fill="#9E4C00"/>
<path d="M484.43 539.999H511.04L484.43 526.789V539.999Z" fill="#9E4C00"/>
<path d="M187.779 273.76C189.509 273.84 191.229 273.91 192.959 273.97C194.509 274.03 196.069 274.08 197.619 274.13C199.419 274.18 201.219 274.22 203.009 274.26C204.429 274.29 205.849 274.33 207.259 274.35C210.199 274.39 213.129 274.41 216.049 274.41C217.469 274.41 218.869 274.39 220.279 274.38C222.029 274.37 223.779 274.35 225.519 274.32C227.019 274.3 228.509 274.26 229.999 274.23C231.679 274.19 233.349 274.14 235.009 274.09C236.469 274.04 237.929 274 239.379 273.94C241.269 273.86 243.149 273.77 245.029 273.68C246.819 273.59 248.599 273.5 250.369 273.39C252.609 273.26 254.839 273.12 257.069 272.96C258.449 272.86 259.819 272.75 261.189 272.64C262.849 272.51 264.509 272.37 266.169 272.22C267.579 272.09 268.989 271.96 270.389 271.83C272.049 271.67 273.709 271.5 275.359 271.32C276.689 271.18 278.009 271.04 279.329 270.89C281.669 270.62 283.989 270.33 286.309 270.04C287.779 269.85 289.249 269.65 290.709 269.45C292.569 269.19 294.429 268.93 296.279 268.66C297.579 268.47 298.869 268.26 300.169 268.06C301.789 267.8 303.399 267.54 305.009 267.27C306.309 267.05 307.599 266.83 308.899 266.6C310.599 266.3 312.289 265.99 313.979 265.67C315.119 265.46 316.269 265.25 317.409 265.02C320.049 264.5 322.679 263.96 325.299 263.4C326.389 263.17 327.469 262.92 328.559 262.68C330.259 262.3 331.959 261.92 333.639 261.53C334.849 261.25 336.059 260.95 337.259 260.66C338.849 260.27 340.429 259.88 342.009 259.48C343.179 259.18 344.359 258.88 345.519 258.58C347.339 258.1 349.139 257.61 350.939 257.11C351.819 256.86 352.709 256.63 353.589 256.38C356.119 255.66 358.629 254.91 361.129 254.15C362.189 253.83 363.239 253.49 364.289 253.16C365.879 252.66 367.469 252.15 369.049 251.64C370.169 251.27 371.289 250.9 372.399 250.52C373.969 249.99 375.519 249.45 377.069 248.91C378.109 248.55 379.149 248.19 380.179 247.81C382.349 247.03 384.499 246.23 386.649 245.41C387.579 245.05 388.509 244.69 389.439 244.33C391.289 243.61 393.129 242.88 394.959 242.14C395.979 241.73 396.989 241.3 397.999 240.88C399.489 240.26 400.979 239.63 402.449 238.99C403.489 238.54 404.519 238.09 405.549 237.64C407.089 236.96 408.629 236.26 410.159 235.55C411.059 235.14 411.959 234.73 412.849 234.32C415.069 233.28 417.279 232.22 419.469 231.14L188.489 125.75L181.949 273.55C182.329 273.58 182.709 273.6 183.089 273.61C184.649 273.69 186.189 273.76 187.739 273.83L187.779 273.76Z" fill="#3A2C1F"/>
<path d="M484.43 439.33V526.79L511.04 540H663.94V439.33H484.43Z" fill="#3A2C1F"/>
<path d="M435.599 502.56V439.33H308.189L435.599 502.56Z" fill="#3A2C1F"/>
<path d="M806.251 0H651.641V281.41H806.251V0Z" fill="#693200"/>
<path d="M846.73 389.701C881.64 411.661 920.74 428.441 960 441.131V273.331C928.93 261.491 898.82 246.821 872.07 229.131L846.73 389.701Z" fill="#9E4C00"/>
</g>
<defs>
<clipPath id="clip0_287_72083">
<rect width="960.041" height="540.001" fill="white"/>
</clipPath>
</defs>
</svg>
