<svg width="960" height="540" viewBox="0 0 960 540" fill="none" xmlns="http://www.w3.org/2000/svg">
<g clip-path="url(#clip0_287_83205)">
<path d="M963 -2.18066H0V543.819H963V-2.18066Z" fill="#1C2B42"/>
<path d="M341 138.34H125.25V194.2H151.67V179.57H314.57V194.2H340.99V138.34H341ZM314.7 172.29C311.15 172.29 308.28 169.42 308.28 165.87C308.28 162.32 311.16 159.45 314.7 159.45C318.24 159.45 321.12 162.33 321.12 165.87C321.12 169.41 318.25 172.29 314.7 172.29Z" fill="#123263"/>
<path d="M314.57 194.2H151.67V205.21H314.57V194.2Z" fill="#123263"/>
<path d="M151.67 307.989V293.359H125.25V349.219H341V293.359H314.58V307.989H151.68H151.67ZM314.7 318.069C318.25 318.069 321.12 320.949 321.12 324.489C321.12 328.029 318.25 330.909 314.7 330.909C311.15 330.909 308.28 328.039 308.28 324.489C308.28 320.939 311.16 318.069 314.7 318.069Z" fill="#123263"/>
<path d="M314.57 282.35H151.67V293.36H314.57V282.35Z" fill="#123263"/>
<path d="M341 215.21H125.25V271.07H341V215.21ZM195.74 248.31H151.14V242.06H195.74V248.31ZM268.5 251.6C264.95 251.6 262.08 248.72 262.08 245.18C262.08 241.64 264.95 238.76 268.5 238.76C272.05 238.76 274.92 241.63 274.92 245.18C274.92 248.73 272.05 251.6 268.5 251.6ZM291.6 251.6C288.05 251.6 285.18 248.72 285.18 245.18C285.18 241.64 288.06 238.76 291.6 238.76C295.14 238.76 298.02 241.63 298.02 245.18C298.02 248.73 295.15 251.6 291.6 251.6ZM314.7 251.6C311.15 251.6 308.28 248.72 308.28 245.18C308.28 241.64 311.16 238.76 314.7 238.76C318.24 238.76 321.12 241.63 321.12 245.18C321.12 248.73 318.25 251.6 314.7 251.6Z" fill="#123263"/>
<path d="M697.33 450.19V464.82H723.75V408.96H508V464.82H534.42V450.19H697.32H697.33ZM695.64 428.69C699.19 428.69 702.06 431.56 702.06 435.11C702.06 438.66 699.18 441.53 695.64 441.53C692.1 441.53 689.22 438.66 689.22 435.11C689.22 431.56 692.1 428.69 695.64 428.69Z" fill="#123263"/>
<path d="M697.33 464.82H534.43V475.83H697.33V464.82Z" fill="#123263"/>
<path d="M723.75 485.84H508V540.54H723.75V485.84ZM576.68 517.55H532.08V511.3H576.68V517.55ZM649.44 520.84C645.89 520.84 643.02 517.96 643.02 514.42C643.02 510.88 645.89 508 649.44 508C652.99 508 655.86 510.88 655.86 514.42C655.86 517.96 652.99 520.84 649.44 520.84ZM672.54 520.84C668.99 520.84 666.12 517.96 666.12 514.42C666.12 510.88 668.99 508 672.54 508C676.09 508 678.96 510.88 678.96 514.42C678.96 517.96 676.09 520.84 672.54 520.84ZM695.64 520.84C692.09 520.84 689.22 517.96 689.22 514.42C689.22 510.88 692.1 508 695.64 508C699.18 508 702.06 510.88 702.06 514.42C702.06 517.96 699.18 520.84 695.64 520.84Z" fill="#123263"/>
<path d="M431.339 74.16L441.659 0H392.019L337.279 74.16H431.339Z" fill="#123263"/>
<path d="M409.951 227.68L578.031 0H487.991L477.661 74.16H477.231H431.771L442.101 0H441.661L431.341 74.16L409.951 227.68Z" fill="#123263"/>
<path d="M0.00976562 39.0898V134.27L70.2698 39.0898H0.00976562Z" fill="#123263"/>
<path d="M960.971 173.829V112.859L914.641 113.879L960.971 173.829Z" fill="#123263"/>
<path d="M851.92 237.13L960.97 234.73V174.76L851.92 237.13Z" fill="#123263"/>
<path d="M441.679 517.85C446.159 507.09 448.769 494.5 448.769 479.76C448.769 465.02 446.149 452.02 441.599 441.11C431.579 417.12 411.779 402.62 387.509 395.85C376.179 392.66 363.849 391.15 351.129 391.15C337.729 391.15 324.999 392.67 313.289 395.93C312.519 396.14 311.779 396.38 311.029 396.61C316.099 398.07 320.939 399.82 325.529 401.87C334.629 405.92 342.819 411.19 349.629 417.79C364.539 432.13 373.319 453.33 373.319 479.73V479.95C373.319 506.34 364.799 526.23 350.289 540.31C350.209 540.39 350.129 540.46 350.049 540.54H426.879C432.969 534.19 437.989 526.66 441.689 517.85H441.679Z" fill="#123263"/>
<path d="M259.011 518.09H259.031C254.571 507.32 252.011 494.97 252.011 479.99C252.011 465.01 254.551 452.25 259.101 441.34C268.741 418.25 287.481 403.92 310.991 396.82C316.071 398.28 320.921 400.04 325.511 402.11C334.611 406.16 342.801 411.43 349.611 418.03C364.511 432.35 373.271 453.51 373.291 479.86V479.76C373.291 453.37 364.521 432.16 349.601 417.82C342.791 411.22 334.611 405.95 325.501 401.9C320.921 399.84 316.071 398.1 311.001 396.64C298.331 392.99 284.261 391.18 269.271 391.18C248.291 391.18 228.051 394.79 211.571 402.35C202.721 406.4 194.771 411.5 188.131 417.83C172.961 432.17 163.791 452.68 163.791 479.77C163.791 506.86 172.641 526.05 187.391 540.13C187.551 540.28 187.711 540.42 187.861 540.56H273.591C267.581 534.27 262.641 526.82 259.001 518.1L259.011 518.09Z" fill="#123263"/>
<path d="M709.74 347.07L811.21 453.42V394.23H774.48V296.43H811.21V237.25L709.74 347.07Z" fill="#123263"/>
<path d="M960.971 296.43H811.211V394.23H960.971V296.43Z" fill="#123263"/>
<path d="M95.3594 100.54C95.3594 100.54 95.3594 100.57 95.3794 100.57L286.399 99.72V99.69C291.749 67.86 300.679 33.49 313.269 0H120.849C109.569 28.13 100.319 62.05 95.3594 100.54Z" fill="#123263"/>
<path d="M960.971 455.58L857.251 456.04C857.251 456.04 857.251 456.04 857.231 456.04C845.371 478.89 834.661 507.42 827.041 540.53H960.951V455.57L960.971 455.58Z" fill="#123263"/>
<path d="M619.031 0L602.791 50.27L698.391 50.54L714.711 0H619.031Z" fill="#123263"/>
<path d="M689.57 77.83L920.87 78.47L813.14 0H764.19L834.09 50.91L698.39 50.54L689.57 77.83Z" fill="#123263"/>
<path d="M84.9698 365.57C84.9898 365.49 85.0198 365.41 85.0398 365.33C88.7498 352.13 90.5298 338.46 90.5298 322.91C90.5298 322.66 90.5298 322.42 90.5198 322.17C90.5198 321.92 90.5298 321.68 90.5298 321.43C90.5298 305.88 88.7598 292.21 85.0398 279.01C85.0198 278.93 84.9898 278.85 84.9698 278.77C76.9698 250 60.0498 227.07 32.2598 215.48C22.7598 211.53 12.1698 208.9 0.00976562 207.84V249.1C9.21977 250.58 16.8798 253.81 23.3098 258.45C23.6398 258.68 23.9498 258.92 24.2798 259.16C26.5398 260.87 28.6498 262.76 30.6098 264.82C35.1998 269.68 38.8698 275.4 41.7198 281.87C46.8898 293.45 49.3698 307.24 49.4098 322.18C49.3698 337.12 46.8898 350.92 41.7198 362.49C38.8698 368.95 35.1998 374.68 30.6098 379.54C28.6498 381.6 26.5398 383.48 24.2798 385.2C23.9598 385.44 23.6398 385.68 23.3098 385.91C16.8798 390.55 9.21977 393.78 0.00976562 395.26V436.52C12.1698 435.46 22.7498 432.83 32.2598 428.88C60.0598 417.28 76.9798 394.36 84.9698 365.59V365.57Z" fill="#123263"/>
<path d="M20.58 336.75C21.84 332.26 22.44 327.61 22.44 322.33C22.44 317.05 21.84 312.01 20.55 307.37C17.84 297.6 12.09 289.82 2.66 285.88C1.8 285.52 0.91 285.21 0 284.92V359.14C0.92 358.85 1.81 358.53 2.66 358.18C12.12 354.22 17.9 346.38 20.58 336.75Z" fill="#123263"/>
<path d="M453.291 315.359C455.371 312.609 457.671 310.049 460.171 307.659C466.081 302.069 473.041 297.619 480.901 294.149C494.981 287.869 511.751 284.849 529.921 284.799C548.091 284.849 564.861 287.869 578.941 294.149C586.801 297.619 593.761 302.069 599.671 307.659C602.171 310.049 604.461 312.609 606.551 315.359C606.841 315.749 607.131 316.139 607.411 316.529C613.791 325.359 617.991 336.109 619.391 349.359H669.301C668.311 332.649 664.941 318.359 659.661 305.639C645.561 271.839 617.681 251.269 582.701 241.539C582.601 241.509 582.511 241.479 582.411 241.449C566.351 236.929 549.741 234.779 530.831 234.779C530.531 234.779 530.231 234.789 529.931 234.789C529.631 234.789 529.331 234.779 529.031 234.779C510.121 234.779 493.511 236.929 477.451 241.449C477.351 241.479 477.261 241.509 477.161 241.539C442.171 251.259 414.301 271.829 400.201 305.629C394.911 318.349 391.551 332.639 390.561 349.349H440.471C441.871 336.109 446.061 325.349 452.451 316.509C452.731 316.119 453.031 315.739 453.311 315.339L453.291 315.359Z" fill="#123263"/>
<path d="M573.699 341.62C568.889 330.12 559.349 323.09 547.639 319.83C542.179 318.3 536.529 317.57 530.109 317.57C523.689 317.57 517.569 318.3 511.919 319.87H511.909C500.039 323.17 490.589 330.16 485.789 341.62C484.789 344.03 484.019 346.6 483.439 349.39H576.069C575.499 346.6 574.689 344.01 573.699 341.62Z" fill="#123263"/>
<path d="M101.05 472.71H0.00976562V540.54H101.05V472.71Z" fill="#123263"/>
<path d="M762.58 130.09C756.18 143.77 744.87 144.94 732.07 138.95L675.03 112.26C654.48 102.64 631.26 94.68 609.8 96.72C588.87 98.7 569.6 110.19 556.12 139.01C551.6 148.68 548.11 156.13 545.41 161.9L537.15 179.55L592.77 205.57L601.03 187.92C610.53 167.63 624.39 164.43 642.49 172.9L707.81 203.46C753.27 224.73 788.29 213.14 808.32 170.32C815.34 155.32 818.14 145.86 820.36 138.83L768.28 114.46C766.45 119.52 764.44 126.11 762.58 130.08V130.09Z" fill="#123263"/>
<path d="M308.279 324.49C308.279 328.04 311.159 330.91 314.699 330.91C318.239 330.91 321.119 328.04 321.119 324.49C321.119 320.94 318.249 318.07 314.699 318.07C311.149 318.07 308.279 320.95 308.279 324.49Z" fill="#123263"/>
<path d="M314.699 238.76C311.149 238.76 308.279 241.63 308.279 245.18C308.279 248.73 311.159 251.6 314.699 251.6C318.239 251.6 321.119 248.72 321.119 245.18C321.119 241.64 318.249 238.76 314.699 238.76Z" fill="#123263"/>
<path d="M314.699 159.45C311.149 159.45 308.279 162.33 308.279 165.87C308.279 169.41 311.159 172.29 314.699 172.29C318.239 172.29 321.119 169.42 321.119 165.87C321.119 162.32 318.249 159.45 314.699 159.45Z" fill="#123263"/>
<path d="M291.6 238.76C288.05 238.76 285.18 241.63 285.18 245.18C285.18 248.73 288.06 251.6 291.6 251.6C295.14 251.6 298.02 248.72 298.02 245.18C298.02 241.64 295.15 238.76 291.6 238.76Z" fill="#123263"/>
<path d="M268.5 238.76C264.95 238.76 262.08 241.63 262.08 245.18C262.08 248.73 264.95 251.6 268.5 251.6C272.05 251.6 274.92 248.72 274.92 245.18C274.92 241.64 272.05 238.76 268.5 238.76Z" fill="#123263"/>
<path d="M195.75 242.05H151.15V248.3H195.75V242.05Z" fill="#123263"/>
<path d="M695.641 508C692.091 508 689.221 510.88 689.221 514.42C689.221 517.96 692.101 520.84 695.641 520.84C699.181 520.84 702.061 517.96 702.061 514.42C702.061 510.88 699.181 508 695.641 508Z" fill="#123263"/>
<path d="M695.641 441.529C699.191 441.529 702.061 438.659 702.061 435.109C702.061 431.559 699.181 428.689 695.641 428.689C692.101 428.689 689.221 431.559 689.221 435.109C689.221 438.659 692.101 441.529 695.641 441.529Z" fill="#123263"/>
<path d="M672.541 508C668.991 508 666.121 510.88 666.121 514.42C666.121 517.96 668.991 520.84 672.541 520.84C676.091 520.84 678.961 517.96 678.961 514.42C678.961 510.88 676.091 508 672.541 508Z" fill="#123263"/>
<path d="M649.44 508C645.89 508 643.02 510.88 643.02 514.42C643.02 517.96 645.89 520.84 649.44 520.84C652.99 520.84 655.859 517.96 655.859 514.42C655.859 510.88 652.99 508 649.44 508Z" fill="#123263"/>
<path d="M576.69 511.29H532.09V517.54H576.69V511.29Z" fill="#123263"/>
</g>
<defs>
<clipPath id="clip0_287_83205">
<rect width="960" height="540" fill="white"/>
</clipPath>
</defs>
</svg>
