<svg width="960" height="540" viewBox="0 0 960 540" fill="none" xmlns="http://www.w3.org/2000/svg">
<g clip-path="url(#clip0_287_83293)">
<path d="M969 -4.18066H-8V544.819H969V-4.18066Z" fill="#1E1F21"/>
<path d="M340.99 138.34H125.24V194.2H151.66V179.57H314.56V194.2H340.98V138.34H340.99ZM314.69 172.29C311.14 172.29 308.27 169.41 308.27 165.87C308.27 162.33 311.15 159.45 314.69 159.45C318.23 159.45 321.11 162.33 321.11 165.87C321.11 169.41 318.24 172.29 314.69 172.29Z" fill="#3B3D42"/>
<path d="M314.56 194.2H151.66V205.21H314.56V194.2Z" fill="#292A2E"/>
<path d="M151.66 307.989V293.359H125.24V349.219H340.99V293.359H314.57V307.989H151.67H151.66ZM314.69 318.069C318.24 318.069 321.11 320.949 321.11 324.489C321.11 328.029 318.24 330.909 314.69 330.909C311.14 330.909 308.27 328.029 308.27 324.489C308.27 320.949 311.15 318.069 314.69 318.069Z" fill="#3B3D42"/>
<path d="M314.56 282.35H151.66V293.36H314.56V282.35Z" fill="#292A2E"/>
<path d="M340.99 215.21H125.24V271.07H340.99V215.21ZM195.74 248.31H151.14V242.06H195.74V248.31ZM268.5 251.6C264.95 251.6 262.08 248.73 262.08 245.18C262.08 241.63 264.96 238.76 268.5 238.76C272.04 238.76 274.92 241.63 274.92 245.18C274.92 248.73 272.05 251.6 268.5 251.6ZM291.59 251.6C288.04 251.6 285.17 248.73 285.17 245.18C285.17 241.63 288.04 238.76 291.59 238.76C295.14 238.76 298.01 241.63 298.01 245.18C298.01 248.73 295.13 251.6 291.59 251.6ZM314.69 251.6C311.14 251.6 308.27 248.73 308.27 245.18C308.27 241.63 311.15 238.76 314.69 238.76C318.23 238.76 321.11 241.63 321.11 245.18C321.11 248.73 318.24 251.6 314.69 251.6Z" fill="#292A2E"/>
<path d="M697.32 450.19V464.82H723.74V408.96H507.99V464.82H534.41V450.19H697.31H697.32ZM695.63 428.69C699.18 428.69 702.05 431.57 702.05 435.11C702.05 438.65 699.17 441.53 695.63 441.53C692.09 441.53 689.21 438.66 689.21 435.11C689.21 431.56 692.08 428.69 695.63 428.69Z" fill="#292A2E"/>
<path d="M697.32 464.82H534.42V475.83H697.32V464.82Z" fill="#292A2E"/>
<path d="M723.75 485.84H508V540.54H723.75V485.84ZM576.68 517.54H532.08V511.29H576.68V517.54ZM649.44 520.84C645.89 520.84 643.02 517.96 643.02 514.42C643.02 510.88 645.9 508 649.44 508C652.98 508 655.86 510.87 655.86 514.42C655.86 517.97 652.99 520.84 649.44 520.84ZM672.54 520.84C668.99 520.84 666.12 517.96 666.12 514.42C666.12 510.88 668.99 508 672.54 508C676.09 508 678.96 510.87 678.96 514.42C678.96 517.97 676.08 520.84 672.54 520.84ZM695.63 520.84C692.08 520.84 689.21 517.96 689.21 514.42C689.21 510.88 692.08 508 695.63 508C699.18 508 702.05 510.87 702.05 514.42C702.05 517.97 699.17 520.84 695.63 520.84Z" fill="#3B3D42"/>
<path d="M431.33 74.16L441.66 0H392.01L337.27 74.16H431.33Z" fill="#3B3D42"/>
<path d="M409.951 227.68L578.021 0H487.981L477.661 74.16H477.221H431.761L442.091 0H441.661L431.331 74.16L409.951 227.68Z" fill="#292A2E"/>
<path d="M0 39.0898V134.27L70.26 39.0898H0Z" fill="#3B3D42"/>
<path d="M960.961 173.829V112.859L914.631 113.879L960.961 173.829Z" fill="#3B3D42"/>
<path d="M851.91 237.13L960.96 234.73V174.76L851.91 237.13Z" fill="#292A2E"/>
<path d="M441.67 517.85C446.15 507.09 448.76 494.5 448.76 479.76C448.76 465.02 446.14 452.02 441.59 441.11C431.57 417.12 411.77 402.62 387.5 395.85C376.17 392.66 363.84 391.15 351.12 391.15C337.72 391.15 324.99 392.67 313.28 395.93C312.51 396.14 311.77 396.38 311.02 396.61C316.09 398.07 320.93 399.82 325.52 401.87C334.62 405.92 342.81 411.19 349.62 417.79C364.53 432.13 373.31 453.33 373.31 479.73V479.95C373.31 506.34 364.79 526.23 350.28 540.31C350.2 540.39 350.12 540.46 350.04 540.54H426.87C432.96 534.19 437.98 526.66 441.68 517.85H441.67Z" fill="#292A2E"/>
<path d="M259 518.08H259.02C254.56 507.31 252 494.96 252 479.98C252 465 254.54 452.24 259.08 441.33C268.72 418.24 287.46 403.91 310.97 396.81C316.05 398.27 320.9 400.03 325.49 402.1C334.59 406.15 342.78 411.42 349.59 418.02C364.49 432.34 373.25 453.5 373.27 479.85V479.75C373.27 453.36 364.5 432.15 349.58 417.81C342.77 411.21 334.59 405.94 325.48 401.89C320.9 399.83 316.05 398.09 310.98 396.63C298.31 392.98 284.24 391.17 269.25 391.17C248.27 391.17 228.03 394.78 211.55 402.34C202.7 406.39 194.75 411.49 188.11 417.82C172.94 432.16 163.77 452.67 163.77 479.76C163.77 506.85 172.62 526.04 187.37 540.12C187.53 540.27 187.69 540.41 187.84 540.55H273.57C267.56 534.26 262.62 526.81 258.98 518.09L259 518.08Z" fill="#3B3D42"/>
<path d="M709.73 347.07L811.201 453.42V394.23H774.47V296.43H811.201V237.25L709.73 347.07Z" fill="#3B3D42"/>
<path d="M960.961 296.43H811.201V394.23H960.961V296.43Z" fill="#292A2E"/>
<path d="M95.3496 100.54C95.3496 100.54 95.3496 100.57 95.3696 100.57L286.39 99.72V99.69C291.74 67.86 300.67 33.49 313.26 0H120.84C109.56 28.13 100.31 62.05 95.3496 100.54Z" fill="#292A2E"/>
<path d="M960.961 455.58L857.241 456.04H857.251C857.251 456.04 857.241 456.04 857.231 456.04C845.371 478.89 834.661 507.42 827.041 540.53H960.951V455.57L960.961 455.58Z" fill="#3B3D42"/>
<path d="M619.021 0L602.791 50.27L698.381 50.54L714.701 0H619.021Z" fill="#3B3D42"/>
<path d="M689.57 77.83L920.86 78.47L813.13 0H764.18L834.08 50.91L698.38 50.54L689.57 77.83Z" fill="#292A2E"/>
<path d="M84.96 365.57C84.98 365.49 85.01 365.41 85.03 365.33C88.74 352.13 90.52 338.46 90.52 322.91C90.52 322.66 90.52 322.42 90.51 322.17C90.51 321.92 90.52 321.68 90.52 321.43C90.52 305.88 88.75 292.21 85.03 279.01C85.01 278.93 84.98 278.85 84.96 278.77C76.96 250 60.04 227.07 32.25 215.48C22.75 211.53 12.16 208.9 0 207.84V249.1C9.21 250.58 16.87 253.81 23.3 258.45C23.63 258.68 23.94 258.92 24.27 259.16C26.53 260.87 28.64 262.76 30.6 264.82C35.19 269.68 38.86 275.4 41.71 281.87C46.88 293.45 49.36 307.24 49.4 322.18C49.36 337.12 46.88 350.92 41.71 362.49C38.86 368.95 35.19 374.68 30.6 379.54C28.64 381.6 26.53 383.48 24.27 385.2C23.95 385.44 23.63 385.68 23.3 385.91C16.87 390.55 9.21 393.78 0 395.26V436.52C12.16 435.46 22.75 432.83 32.25 428.88C60.05 417.28 76.97 394.36 84.96 365.59V365.57Z" fill="#3B3D42"/>
<path d="M20.58 336.75C21.84 332.26 22.44 327.61 22.44 322.33C22.44 317.05 21.84 312.01 20.55 307.37C17.84 297.6 12.09 289.82 2.66 285.88C1.8 285.52 0.91 285.21 0 284.92V359.14C0.92 358.85 1.81 358.53 2.66 358.18C12.12 354.22 17.9 346.38 20.58 336.75Z" fill="#292A2E"/>
<path d="M453.281 315.36C455.361 312.61 457.661 310.05 460.161 307.66C466.071 302.07 473.031 297.62 480.891 294.15C494.971 287.87 511.741 284.85 529.911 284.8C548.081 284.85 564.851 287.87 578.931 294.15C586.791 297.62 593.751 302.07 599.661 307.66C602.161 310.05 604.451 312.61 606.541 315.36C606.831 315.75 607.121 316.14 607.401 316.53C613.781 325.36 617.981 336.11 619.381 349.36H669.291C668.301 332.65 664.931 318.36 659.651 305.64C645.551 271.84 617.671 251.27 582.691 241.54C582.591 241.51 582.501 241.48 582.401 241.45C566.341 236.93 549.731 234.78 530.821 234.78C530.521 234.78 530.221 234.79 529.921 234.79C529.621 234.79 529.321 234.78 529.021 234.78C510.111 234.78 493.501 236.93 477.441 241.45C477.341 241.48 477.251 241.51 477.151 241.54C442.161 251.26 414.291 271.83 400.191 305.63C394.901 318.35 391.541 332.64 390.551 349.35H440.461C441.861 336.11 446.051 325.35 452.441 316.51C452.721 316.12 453.021 315.74 453.301 315.34L453.281 315.36Z" fill="#292A2E"/>
<path d="M573.69 341.62C568.88 330.12 559.34 323.09 547.63 319.83C542.17 318.3 536.52 317.57 530.1 317.57C523.68 317.57 517.56 318.3 511.91 319.87H511.9C500.03 323.17 490.58 330.16 485.78 341.62C484.78 344.03 484.01 346.6 483.43 349.39H576.06C575.49 346.6 574.68 344.01 573.69 341.62Z" fill="#3B3D42"/>
<path d="M101.04 472.71H0V540.54H101.04V472.71Z" fill="#292A2E"/>
<path d="M762.571 130.09C756.171 143.77 744.861 144.94 732.061 138.95L675.021 112.26C654.471 102.64 631.251 94.68 609.791 96.72C588.861 98.7 569.591 110.19 556.111 139.01C551.591 148.68 548.101 156.13 545.401 161.9L537.141 179.55L592.761 205.57L601.021 187.92C610.521 167.63 624.381 164.43 642.481 172.9L707.801 203.46C753.261 224.73 788.281 213.14 808.311 170.32C815.331 155.32 818.131 145.86 820.351 138.83L768.271 114.46C766.441 119.52 764.431 126.11 762.571 130.08V130.09Z" fill="#3B3D42"/>
<path d="M308.27 324.49C308.27 328.04 311.15 330.91 314.69 330.91C318.23 330.91 321.11 328.03 321.11 324.49C321.11 320.95 318.24 318.07 314.69 318.07C311.14 318.07 308.27 320.95 308.27 324.49Z" fill="#1E1F21"/>
<path d="M314.69 251.6C318.235 251.6 321.11 248.725 321.11 245.18C321.11 241.634 318.235 238.76 314.69 238.76C311.144 238.76 308.27 241.634 308.27 245.18C308.27 248.725 311.144 251.6 314.69 251.6Z" fill="#1E1F21"/>
<path d="M314.69 159.45C311.14 159.45 308.27 162.33 308.27 165.87C308.27 169.41 311.15 172.29 314.69 172.29C318.23 172.29 321.11 169.41 321.11 165.87C321.11 162.33 318.24 159.45 314.69 159.45Z" fill="#1E1F21"/>
<path d="M291.59 251.6C295.136 251.6 298.01 248.725 298.01 245.18C298.01 241.634 295.136 238.76 291.59 238.76C288.044 238.76 285.17 241.634 285.17 245.18C285.17 248.725 288.044 251.6 291.59 251.6Z" fill="#1E1F21"/>
<path d="M268.5 251.6C272.046 251.6 274.92 248.725 274.92 245.18C274.92 241.634 272.046 238.76 268.5 238.76C264.954 238.76 262.08 241.634 262.08 245.18C262.08 248.725 264.954 251.6 268.5 251.6Z" fill="#1E1F21"/>
<path d="M195.741 242.05H151.141V248.3H195.741V242.05Z" fill="#1E1F21"/>
<path d="M695.631 508C692.081 508 689.211 510.87 689.211 514.42C689.211 517.97 692.081 520.84 695.631 520.84C699.181 520.84 702.051 517.96 702.051 514.42C702.051 510.88 699.171 508 695.631 508Z" fill="#1E1F21"/>
<path d="M695.631 441.529C699.181 441.529 702.051 438.659 702.051 435.109C702.051 431.559 699.171 428.689 695.631 428.689C692.091 428.689 689.211 431.569 689.211 435.109C689.211 438.649 692.081 441.529 695.631 441.529Z" fill="#1E1F21"/>
<path d="M672.541 508C668.991 508 666.121 510.87 666.121 514.42C666.121 517.97 668.991 520.84 672.541 520.84C676.091 520.84 678.961 517.96 678.961 514.42C678.961 510.88 676.081 508 672.541 508Z" fill="#1E1F21"/>
<path d="M649.44 508C645.89 508 643.02 510.87 643.02 514.42C643.02 517.97 645.9 520.84 649.44 520.84C652.98 520.84 655.859 517.96 655.859 514.42C655.859 510.88 652.99 508 649.44 508Z" fill="#1E1F21"/>
<path d="M576.68 511.29H532.08V517.54H576.68V511.29Z" fill="#1E1F21"/>
</g>
<defs>
<clipPath id="clip0_287_83293">
<rect width="960" height="540" fill="white"/>
</clipPath>
</defs>
</svg>
