<svg width="960" height="540" viewBox="0 0 960 540" fill="none" xmlns="http://www.w3.org/2000/svg">
<g clip-path="url(#clip0_287_83381)">
<path d="M965 -3.18066H-3V545.819H965V-3.18066Z" fill="#693200"/>
<path d="M341.148 138.479H125.626V194.28H152.018V179.666H314.746V194.28H341.138V138.479H341.148ZM314.876 172.393C311.329 172.393 308.462 169.527 308.462 165.98C308.462 162.434 311.339 159.567 314.876 159.567C318.412 159.567 321.289 162.444 321.289 165.98C321.289 169.517 318.422 172.393 314.876 172.393Z" fill="#3A2C1F"/>
<path d="M314.746 194.281H152.019V205.28H314.746V194.281Z" fill="#3A2C1F"/>
<path d="M152.018 307.95V293.336H125.626V349.137H341.148V293.336H314.756V307.95H152.028H152.018ZM314.876 318.02C318.422 318.02 321.289 320.897 321.289 324.433C321.289 327.969 318.422 330.846 314.876 330.846C311.329 330.846 308.462 327.979 308.462 324.433C308.462 320.887 311.339 318.02 314.876 318.02Z" fill="#3A2C1F"/>
<path d="M314.746 282.338H152.019V293.336H314.746V282.338Z" fill="#3A2C1F"/>
<path d="M341.148 215.269H125.626V271.069H341.148V215.269ZM196.042 248.333H151.489V242.09H196.042V248.333ZM268.725 251.62C265.178 251.62 262.311 248.743 262.311 245.207C262.311 241.671 265.178 238.794 268.725 238.794C272.271 238.794 275.138 241.661 275.138 245.207C275.138 248.753 272.271 251.62 268.725 251.62ZM291.8 251.62C288.254 251.62 285.387 248.743 285.387 245.207C285.387 241.671 288.264 238.794 291.8 238.794C295.336 238.794 298.213 241.661 298.213 245.207C298.213 248.753 295.346 251.62 291.8 251.62ZM314.876 251.62C311.329 251.62 308.462 248.743 308.462 245.207C308.462 241.671 311.339 238.794 314.876 238.794C318.412 238.794 321.289 241.661 321.289 245.207C321.289 248.753 318.422 251.62 314.876 251.62Z" fill="#3A2C1F"/>
<path d="M697.1 449.999V464.613H723.492V408.812H507.971V464.613H534.363V449.999H697.09H697.1ZM695.412 428.522C698.958 428.522 701.825 431.389 701.825 434.935C701.825 438.481 698.948 441.348 695.412 441.348C691.876 441.348 688.999 438.481 688.999 434.935C688.999 431.389 691.876 428.522 695.412 428.522Z" fill="#3A2C1F"/>
<path d="M697.099 464.613H534.372V475.612H697.099V464.613Z" fill="#3A2C1F"/>
<path d="M723.492 485.611H507.971V540.253H723.492V485.611ZM576.578 517.288H532.025V511.044H576.578V517.288ZM649.261 520.574C645.714 520.574 642.848 517.697 642.848 514.161C642.848 510.625 645.714 507.748 649.261 507.748C652.807 507.748 655.674 510.625 655.674 514.161C655.674 517.697 652.807 520.574 649.261 520.574ZM672.336 520.574C668.79 520.574 665.923 517.697 665.923 514.161C665.923 510.625 668.79 507.748 672.336 507.748C675.882 507.748 678.749 510.625 678.749 514.161C678.749 517.697 675.882 520.574 672.336 520.574ZM695.412 520.574C691.866 520.574 688.999 517.697 688.999 514.161C688.999 510.625 691.876 507.748 695.412 507.748C698.948 507.748 701.825 510.625 701.825 514.161C701.825 517.697 698.948 520.574 695.412 520.574Z" fill="#3A2C1F"/>
<path d="M431.391 74.3675L441.7 0.286133H392.113L337.431 74.3675H431.391Z" fill="#3A2C1F"/>
<path d="M410.026 227.725L577.928 0.286133H487.983L477.664 74.3675H477.235H431.823L442.142 0.286133H441.702L431.393 74.3675L410.026 227.725Z" fill="#3A2C1F"/>
<path d="M0.519043 39.335V134.414L70.7045 39.335H0.519043Z" fill="#3A2C1F"/>
<path d="M960.461 173.933V113.027L914.18 114.046L960.461 173.933Z" fill="#3A2C1F"/>
<path d="M851.526 237.166L960.46 234.769V174.862L851.526 237.166Z" fill="#3A2C1F"/>
<path d="M441.72 517.587C446.195 506.839 448.802 494.262 448.802 479.538C448.802 464.813 446.185 451.827 441.64 440.928C431.631 416.964 411.852 402.479 387.607 395.716C376.289 392.53 363.972 391.021 351.266 391.021C337.88 391.021 325.164 392.54 313.466 395.796C312.697 396.006 311.958 396.246 311.208 396.476C316.273 397.934 321.108 399.682 325.693 401.73C334.783 405.776 342.965 411.04 349.768 417.633C364.662 431.958 373.432 453.136 373.432 479.508V479.727C373.432 506.089 364.921 525.958 350.427 540.023C350.347 540.103 350.267 540.173 350.187 540.253H426.936C433.019 533.91 438.034 526.388 441.73 517.587H441.72Z" fill="#3A2C1F"/>
<path d="M259.245 517.828H259.265C254.81 507.07 252.253 494.733 252.253 479.769C252.253 464.804 254.79 452.058 259.335 441.16C268.965 418.094 287.685 403.779 311.17 396.687C316.245 398.145 321.09 399.903 325.675 401.971C334.765 406.017 342.947 411.281 349.749 417.874C364.634 432.179 373.384 453.317 373.404 479.639V479.539C373.404 453.177 364.644 431.989 349.739 417.664C342.937 411.071 334.765 405.807 325.665 401.761C321.09 399.704 316.245 397.965 311.18 396.507C298.524 392.861 284.469 391.053 269.495 391.053C248.537 391.053 228.318 394.659 211.856 402.211C203.015 406.257 195.074 411.351 188.441 417.674C173.287 431.999 164.126 452.488 164.126 479.549C164.126 506.61 172.967 525.78 187.701 539.845C187.861 539.995 188.021 540.134 188.171 540.274H273.81C267.806 533.991 262.872 526.549 259.236 517.838L259.245 517.828Z" fill="#3A2C1F"/>
<path d="M709.497 346.989L810.859 453.226V394.099H774.168V296.402H810.859V237.285L709.497 346.989Z" fill="#3A2C1F"/>
<path d="M960.461 296.403H810.86V394.1H960.461V296.403Z" fill="#3A2C1F"/>
<path d="M95.7676 100.72C95.7676 100.72 95.7676 100.749 95.7876 100.749L286.605 99.9004V99.8704C291.949 68.0742 300.87 33.7406 313.447 0.286133H121.231C109.963 28.3863 100.722 62.2703 95.7676 100.72Z" fill="#3A2C1F"/>
<path d="M960.461 455.383L856.851 455.843C856.851 455.843 856.851 455.843 856.831 455.843C844.984 478.668 834.285 507.168 826.673 540.243H960.441V455.373L960.461 455.383Z" fill="#3A2C1F"/>
<path d="M618.884 0.286133L602.661 50.5028L698.16 50.7725L714.462 0.286133H618.884Z" fill="#3A2C1F"/>
<path d="M689.348 78.0336L920.403 78.6729L812.787 0.286133H763.889L833.715 51.1421L698.159 50.7725L689.348 78.0336Z" fill="#3A2C1F"/>
<path d="M85.389 365.469C85.4089 365.389 85.4389 365.309 85.4589 365.229C89.165 352.043 90.9431 338.388 90.9431 322.854C90.9431 322.604 90.9431 322.365 90.9331 322.115C90.9331 321.865 90.9431 321.626 90.9431 321.376C90.9431 305.842 89.1749 292.187 85.4589 279.001C85.4389 278.921 85.4089 278.841 85.389 278.761C77.3974 250.022 60.4954 227.116 32.7348 215.538C23.2449 211.592 12.6661 208.965 0.519043 207.906V249.122C9.71928 250.601 17.3712 253.827 23.7943 258.463C24.124 258.692 24.4337 258.932 24.7633 259.172C27.0209 260.88 29.1287 262.768 31.0866 264.826C35.6717 269.681 39.3378 275.395 42.1848 281.858C47.3493 293.425 49.8267 307.201 49.8667 322.125C49.8267 337.049 47.3493 350.835 42.1848 362.392C39.3378 368.845 35.6717 374.569 31.0866 379.424C29.1287 381.482 27.0209 383.36 24.7633 385.078C24.4436 385.318 24.124 385.558 23.7943 385.787C17.3712 390.423 9.71928 393.649 0.519043 395.127V436.344C12.6661 435.285 23.2349 432.658 32.7348 428.712C60.5054 417.124 77.4074 394.228 85.389 365.489V365.469Z" fill="#3A2C1F"/>
<path d="M21.0675 336.679C22.3261 332.194 22.9255 327.549 22.9255 322.275C22.9255 317 22.3261 311.966 21.0375 307.331C18.3304 297.571 12.5865 289.799 3.16646 285.863C2.30737 285.504 1.41831 285.194 0.509277 284.904V359.046C1.4283 358.756 2.31736 358.436 3.16646 358.087C12.6164 354.131 18.3903 346.299 21.0675 336.679Z" fill="#3A2C1F"/>
<path d="M453.319 315.313C455.397 312.566 457.695 310.009 460.192 307.621C466.096 302.037 473.048 297.592 480.9 294.125C494.965 287.852 511.717 284.835 529.868 284.785C548.019 284.835 564.771 287.852 578.836 294.125C586.688 297.592 593.64 302.037 599.544 307.621C602.041 310.009 604.329 312.566 606.417 315.313C606.706 315.703 606.996 316.092 607.276 316.482C613.649 325.302 617.845 336.041 619.243 349.277H669.1C668.111 332.585 664.745 318.31 659.47 305.603C645.385 271.839 617.535 251.291 582.592 241.571C582.492 241.541 582.402 241.511 582.302 241.481C566.259 236.966 549.667 234.818 530.777 234.818C530.477 234.818 530.178 234.828 529.878 234.828C529.578 234.828 529.279 234.818 528.979 234.818C510.089 234.818 493.497 236.966 477.454 241.481C477.354 241.511 477.264 241.541 477.164 241.571C442.211 251.281 414.371 271.829 400.286 305.593C395.001 318.3 391.645 332.575 390.656 349.267H440.513C441.911 336.041 446.097 325.292 452.48 316.462C452.76 316.072 453.06 315.693 453.339 315.293L453.319 315.313Z" fill="#3A2C1F"/>
<path d="M573.6 341.544C568.795 330.056 559.266 323.034 547.568 319.777C542.114 318.249 536.47 317.52 530.057 317.52C523.643 317.52 517.53 318.249 511.886 319.817H511.876C500.018 323.114 490.578 330.096 485.784 341.544C484.785 343.951 484.015 346.519 483.436 349.306H575.968C575.398 346.519 574.589 343.932 573.6 341.544Z" fill="#3A2C1F"/>
<path d="M101.452 472.495H0.519043V540.253H101.452V472.495Z" fill="#3A2C1F"/>
<path d="M762.281 130.239C755.888 143.904 744.59 145.073 731.803 139.089L674.824 112.428C654.295 102.818 631.1 94.8664 609.663 96.9043C588.755 98.8822 569.505 110.36 556.04 139.149C551.525 148.809 548.038 156.251 545.341 162.015L537.09 179.646L592.651 205.639L600.902 188.008C610.392 167.739 624.237 164.542 642.318 173.003L707.569 203.531C752.981 224.779 787.964 213.201 807.972 170.426C814.985 155.442 817.782 145.992 820 138.97L767.975 114.625C766.147 119.68 764.139 126.263 762.281 130.229V130.239Z" fill="#3A2C1F"/>
<path d="M308.461 324.432C308.461 327.978 311.338 330.845 314.875 330.845C318.411 330.845 321.288 327.978 321.288 324.432C321.288 320.886 318.421 318.019 314.875 318.019C311.328 318.019 308.461 320.896 308.461 324.432Z" fill="#693200"/>
<path d="M314.875 238.794C311.328 238.794 308.461 241.661 308.461 245.207C308.461 248.753 311.338 251.62 314.875 251.62C318.411 251.62 321.288 248.743 321.288 245.207C321.288 241.671 318.421 238.794 314.875 238.794Z" fill="#693200"/>
<path d="M314.875 159.567C311.328 159.567 308.461 162.444 308.461 165.981C308.461 169.517 311.338 172.394 314.875 172.394C318.411 172.394 321.288 169.527 321.288 165.981C321.288 162.434 318.421 159.567 314.875 159.567Z" fill="#693200"/>
<path d="M291.8 238.794C288.254 238.794 285.387 241.661 285.387 245.207C285.387 248.753 288.264 251.62 291.8 251.62C295.336 251.62 298.213 248.743 298.213 245.207C298.213 241.671 295.346 238.794 291.8 238.794Z" fill="#693200"/>
<path d="M268.725 238.794C265.178 238.794 262.312 241.661 262.312 245.207C262.312 248.753 265.178 251.62 268.725 251.62C272.271 251.62 275.138 248.743 275.138 245.207C275.138 241.671 272.271 238.794 268.725 238.794Z" fill="#693200"/>
<path d="M196.052 242.08H151.5V248.323H196.052V242.08Z" fill="#693200"/>
<path d="M695.412 507.748C691.866 507.748 688.999 510.625 688.999 514.161C688.999 517.697 691.876 520.574 695.412 520.574C698.949 520.574 701.825 517.697 701.825 514.161C701.825 510.625 698.949 507.748 695.412 507.748Z" fill="#693200"/>
<path d="M695.412 441.349C698.958 441.349 701.825 438.482 701.825 434.936C701.825 431.389 698.949 428.522 695.412 428.522C691.876 428.522 688.999 431.389 688.999 434.936C688.999 438.482 691.876 441.349 695.412 441.349Z" fill="#693200"/>
<path d="M672.337 507.748C668.791 507.748 665.924 510.625 665.924 514.161C665.924 517.697 668.791 520.574 672.337 520.574C675.883 520.574 678.75 517.697 678.75 514.161C678.75 510.625 675.883 507.748 672.337 507.748Z" fill="#693200"/>
<path d="M649.26 507.748C645.714 507.748 642.847 510.625 642.847 514.161C642.847 517.697 645.714 520.574 649.26 520.574C652.806 520.574 655.673 517.697 655.673 514.161C655.673 510.625 652.806 507.748 649.26 507.748Z" fill="#693200"/>
<path d="M576.587 511.034H532.035V517.278H576.587V511.034Z" fill="#693200"/>
</g>
<defs>
<clipPath id="clip0_287_83381">
<rect width="960" height="540" fill="white"/>
</clipPath>
</defs>
</svg>
