<svg width="960" height="540" viewBox="0 0 960 540" fill="none" xmlns="http://www.w3.org/2000/svg">
<g clip-path="url(#clip0_287_70126)">
<path d="M549.179 461.449L394.609 539.999H549.179V461.449Z" fill="#E9F2FE"/>
<path d="M549.179 256.9V182.87C677.739 199.42 873.559 277.84 960.009 321.46V267.77L721.679 0H593.869C577.599 83.87 539.569 160.29 486.229 224.47L549.179 256.9Z" fill="#E9F2FE"/>
<path d="M310.34 0H50.5098L226.52 90.67C260.65 65.59 289.68 34.77 310.35 0H310.34Z" fill="#E9F2FE"/>
<path d="M549.18 256.899L749.06 359.869L682.44 393.719L549.18 461.439V539.989H960.01V321.449C873.56 277.819 677.74 199.409 549.18 182.859V256.889V256.899Z" fill="#CFE1FD"/>
<path d="M226.52 90.67L486.23 224.47C539.57 160.29 577.6 83.87 593.87 0H310.34C289.67 34.78 260.65 65.59 226.51 90.67H226.52Z" fill="#CFE1FD"/>
<path d="M50.3998 158.71H50.4298C52.2898 158.53 54.1498 158.34 56.0098 158.13C56.5998 158.06 57.1898 157.99 57.7798 157.92C59.0498 157.77 60.3198 157.62 61.5898 157.45C62.2998 157.36 63.0098 157.26 63.7198 157.16C64.8698 157 66.0298 156.84 67.1798 156.67C67.9298 156.56 68.6698 156.45 69.4198 156.33C70.5398 156.16 71.6598 155.98 72.7798 155.79C73.5298 155.67 74.2798 155.54 75.0298 155.41C76.1598 155.22 77.2898 155.01 78.4198 154.81C79.1498 154.68 79.8698 154.55 80.5998 154.41C81.7898 154.19 82.9698 153.95 84.1598 153.71C84.8198 153.58 85.4798 153.45 86.1398 153.31C87.5098 153.03 88.8798 152.73 90.2398 152.43C90.7098 152.33 91.1898 152.23 91.6598 152.12C93.5198 151.7 95.3798 151.27 97.2298 150.83C97.3898 150.79 97.5398 150.75 97.6998 150.71C99.3798 150.3 101.06 149.88 102.73 149.45C103.28 149.31 103.83 149.16 104.38 149.01C105.66 148.67 106.95 148.33 108.23 147.98C108.87 147.8 109.51 147.62 110.15 147.44C111.34 147.1 112.54 146.76 113.73 146.41C114.39 146.22 115.05 146.02 115.72 145.82C116.9 145.47 118.07 145.11 119.25 144.74C119.9 144.54 120.55 144.33 121.2 144.13C122.41 143.75 123.61 143.36 124.82 142.96C125.42 142.76 126.03 142.56 126.63 142.36C127.94 141.92 129.25 141.47 130.56 141.02C131.04 140.85 131.52 140.69 132.01 140.52C133.7 139.93 135.38 139.32 137.05 138.7C137.15 138.66 137.25 138.63 137.35 138.59C139.2 137.9 141.05 137.2 142.9 136.49C142.96 136.46 143.03 136.44 143.09 136.41C144.8 135.74 146.51 135.06 148.21 134.37C148.62 134.21 149.02 134.04 149.42 133.87C150.79 133.31 152.15 132.74 153.51 132.16C154.01 131.95 154.5 131.73 154.99 131.52C156.26 130.97 157.54 130.42 158.8 129.85C159.32 129.62 159.83 129.39 160.34 129.16C161.6 128.59 162.86 128.02 164.11 127.44C164.6 127.21 165.1 126.98 165.59 126.75C166.9 126.14 168.21 125.51 169.51 124.88C169.93 124.68 170.34 124.48 170.76 124.28C172.25 123.56 173.72 122.82 175.2 122.08C175.42 121.97 175.65 121.86 175.87 121.74C181.1 119.09 186.25 116.32 191.34 113.43C191.61 113.28 191.88 113.12 192.15 112.96C193.54 112.16 194.93 111.36 196.31 110.54C196.67 110.33 197.03 110.11 197.39 109.9C198.69 109.13 199.98 108.35 201.26 107.57C201.64 107.34 202.03 107.1 202.41 106.87C203.69 106.08 204.97 105.28 206.24 104.47C206.59 104.25 206.95 104.02 207.3 103.8C208.65 102.94 210 102.06 211.34 101.18C211.59 101.01 211.84 100.85 212.1 100.68C216.99 97.44 221.8 94.1 226.51 90.64L50.5098 0H0.00976562V158.74C12.1798 158.74 25.3298 158.73 35.1598 158.72H50.4098L50.3998 158.71Z" fill="#CFE1FD"/>
<path d="M549.179 461.451V256.901L486.229 224.471C483.079 228.261 479.879 232.001 476.629 235.701C476.529 235.821 476.419 235.931 476.319 236.051C474.809 237.761 473.289 239.471 471.759 241.161C471.629 241.301 471.509 241.441 471.379 241.581C466.489 246.991 461.479 252.301 456.359 257.511C456.199 257.681 456.029 257.841 455.869 258.011C454.219 259.691 452.559 261.351 450.889 263.011C450.859 263.041 450.839 263.061 450.809 263.091C447.309 266.551 443.769 269.961 440.179 273.331C440.049 273.451 439.919 273.571 439.789 273.691C438.139 275.231 436.489 276.761 434.819 278.281C434.649 278.431 434.489 278.581 434.319 278.741C428.939 283.641 423.459 288.441 417.879 293.131C417.659 293.311 417.449 293.491 417.229 293.671C415.479 295.141 413.729 296.591 411.959 298.041C411.869 298.111 411.789 298.181 411.699 298.251C407.909 301.341 404.079 304.391 400.209 307.381C400.019 307.531 399.819 307.681 399.629 307.831C397.899 309.161 396.169 310.481 394.429 311.801C394.189 311.981 393.959 312.151 393.719 312.331C389.809 315.261 385.869 318.151 381.879 320.981C381.829 321.011 381.789 321.051 381.739 321.081C379.859 322.411 377.979 323.731 376.089 325.041C375.789 325.251 375.499 325.451 375.199 325.661C373.409 326.891 371.609 328.121 369.809 329.331C369.629 329.451 369.449 329.571 369.269 329.701C365.239 332.401 361.179 335.051 357.079 337.641C356.799 337.821 356.519 338.001 356.229 338.171C354.469 339.281 352.709 340.381 350.939 341.471C350.609 341.681 350.269 341.881 349.939 342.091C345.809 344.621 341.659 347.101 337.459 349.521C337.319 349.601 337.179 349.681 337.039 349.761C335.139 350.861 333.239 351.941 331.329 353.011C330.939 353.231 330.539 353.451 330.149 353.671C328.349 354.671 326.549 355.671 324.749 356.651C324.459 356.811 324.169 356.971 323.879 357.131C319.659 359.421 315.409 361.651 311.129 363.831C310.749 364.031 310.359 364.221 309.969 364.421C308.219 365.311 306.459 366.191 304.689 367.061C304.239 367.281 303.799 367.501 303.349 367.721C301.339 368.701 299.329 369.681 297.309 370.641C297.209 370.691 297.109 370.741 297.009 370.781C294.799 371.831 292.589 372.861 290.369 373.881C290.109 374.001 289.849 374.121 289.589 374.241C287.709 375.101 285.829 375.951 283.939 376.791C283.439 377.011 282.929 377.241 282.429 377.461C280.659 378.241 278.889 379.011 277.109 379.771C276.689 379.951 276.279 380.131 275.859 380.311C271.489 382.171 267.089 383.981 262.659 385.731C262.169 385.931 261.669 386.121 261.179 386.311C259.449 386.991 257.709 387.661 255.969 388.331C255.419 388.541 254.869 388.751 254.319 388.961C252.369 389.701 250.409 390.431 248.449 391.141C248.199 391.231 247.959 391.321 247.709 391.411C245.449 392.231 243.189 393.041 240.919 393.831C240.559 393.961 240.189 394.081 239.829 394.211C237.979 394.851 236.119 395.491 234.259 396.111C233.649 396.311 233.039 396.521 232.429 396.721C230.699 397.291 228.959 397.861 227.229 398.421C226.689 398.591 226.159 398.771 225.619 398.941C223.219 399.701 220.819 400.451 218.409 401.181C218.429 402.691 218.459 404.191 218.459 405.711C218.459 422.481 217.059 438.331 214.399 453.251C208.329 487.201 195.609 516.231 177.399 540.001H394.629L549.189 461.451H549.179Z" fill="#CFE1FD"/>
<path d="M549.18 461.45L682.44 393.73L549.18 461.45Z" fill="#CFE1FD"/>
<path d="M155 131.551C154.51 131.761 154.01 131.981 153.52 132.191C154.02 131.981 154.51 131.761 155 131.551Z" fill="#CFE1FD"/>
<path d="M417.249 293.67C415.499 295.14 413.749 296.59 411.979 298.04C413.749 296.6 415.499 295.14 417.249 293.67Z" fill="#CFE1FD"/>
<path d="M369.29 329.689C365.26 332.389 361.2 335.039 357.1 337.629C361.2 335.029 365.26 332.379 369.29 329.689Z" fill="#CFE1FD"/>
<path d="M381.77 321.08C379.89 322.41 378.01 323.73 376.12 325.04C378.01 323.73 379.9 322.41 381.77 321.08Z" fill="#CFE1FD"/>
<path d="M399.65 307.83C397.92 309.16 396.19 310.48 394.45 311.8C396.19 310.49 397.93 309.16 399.65 307.83Z" fill="#CFE1FD"/>
<path d="M160.35 129.189C159.84 129.419 159.32 129.649 158.81 129.879C159.33 129.649 159.84 129.419 160.35 129.189Z" fill="#CFE1FD"/>
<path d="M411.719 298.25C407.929 301.34 404.099 304.39 400.229 307.38C404.099 304.38 407.929 301.34 411.719 298.25Z" fill="#CFE1FD"/>
<path d="M297.03 370.789C294.82 371.839 292.61 372.869 290.39 373.889C292.61 372.869 294.83 371.839 297.03 370.789Z" fill="#CFE1FD"/>
<path d="M356.26 338.17C354.5 339.28 352.74 340.38 350.97 341.47C352.74 340.38 354.51 339.28 356.26 338.17Z" fill="#CFE1FD"/>
<path d="M202.429 106.9C202.049 107.14 201.669 107.37 201.279 107.6C201.659 107.37 202.049 107.13 202.429 106.9Z" fill="#CFE1FD"/>
<path d="M261.189 386.311C259.459 386.991 257.719 387.661 255.979 388.331C257.719 387.671 259.459 386.991 261.189 386.311Z" fill="#CFE1FD"/>
<path d="M212.11 100.721C211.86 100.891 211.61 101.051 211.35 101.221C211.6 101.051 211.86 100.891 212.11 100.721Z" fill="#CFE1FD"/>
<path d="M330.16 353.68C328.36 354.68 326.56 355.68 324.76 356.66C326.57 355.68 328.37 354.68 330.16 353.68Z" fill="#CFE1FD"/>
<path d="M337.06 349.76C335.16 350.86 333.26 351.94 331.35 353.01C333.26 351.94 335.17 350.85 337.06 349.76Z" fill="#CFE1FD"/>
<path d="M349.96 342.09C345.83 344.62 341.679 347.1 337.479 349.52C341.669 347.09 345.83 344.62 349.96 342.09Z" fill="#CFE1FD"/>
<path d="M175.88 121.779C175.66 121.889 175.43 121.999 175.21 122.119C175.43 122.009 175.66 121.899 175.88 121.779Z" fill="#CFE1FD"/>
<path d="M309.98 364.42C308.23 365.31 306.47 366.19 304.7 367.06C306.46 366.19 308.22 365.31 309.98 364.42Z" fill="#CFE1FD"/>
<path d="M192.16 113C191.89 113.15 191.62 113.31 191.35 113.47C191.62 113.32 191.89 113.16 192.16 113Z" fill="#CFE1FD"/>
<path d="M323.89 357.131C319.67 359.421 315.42 361.651 311.14 363.831C315.42 361.651 319.67 359.411 323.89 357.131Z" fill="#CFE1FD"/>
<path d="M132.01 140.539C131.53 140.709 131.05 140.869 130.56 141.039C131.04 140.869 131.52 140.709 132.01 140.539Z" fill="#CFE1FD"/>
<path d="M75.04 155.42C74.29 155.55 73.54 155.67 72.79 155.8C73.54 155.68 74.29 155.55 75.04 155.42Z" fill="#CFE1FD"/>
<path d="M226.52 90.6699L486.23 224.47L226.52 90.6699Z" fill="#CFE1FD"/>
<path d="M57.7895 157.92C57.1995 157.99 56.6095 158.07 56.0195 158.13C56.6095 158.06 57.1995 157.99 57.7895 157.92Z" fill="#CFE1FD"/>
<path d="M115.73 145.84C115.07 146.04 114.41 146.24 113.74 146.43C114.4 146.24 115.06 146.04 115.73 145.84Z" fill="#CFE1FD"/>
<path d="M121.21 144.15C120.56 144.36 119.91 144.56 119.26 144.76C119.91 144.56 120.56 144.35 121.21 144.15Z" fill="#CFE1FD"/>
<path d="M218.41 401.179C220.82 400.449 223.23 399.699 225.62 398.939C223.22 399.699 220.82 400.449 218.41 401.179Z" fill="#CFE1FD"/>
<path d="M91.67 152.141C91.2 152.251 90.72 152.341 90.25 152.451C90.72 152.351 91.2 152.251 91.67 152.141Z" fill="#CFE1FD"/>
<path d="M104.39 149.029C103.84 149.169 103.29 149.319 102.74 149.469C103.29 149.329 103.84 149.179 104.39 149.029Z" fill="#CFE1FD"/>
<path d="M254.33 388.961C252.38 389.701 250.42 390.431 248.46 391.141C250.42 390.421 252.38 389.701 254.33 388.961Z" fill="#CFE1FD"/>
<path d="M471.379 241.59C466.489 247 461.479 252.31 456.359 257.52C461.469 252.31 466.479 247 471.379 241.59Z" fill="#CFE1FD"/>
<path d="M149.43 133.891C149.03 134.061 148.62 134.231 148.22 134.391C148.63 134.231 149.03 134.061 149.43 133.891Z" fill="#CFE1FD"/>
<path d="M232.429 396.73C230.699 397.3 228.959 397.87 227.229 398.43C228.969 397.87 230.699 397.31 232.429 396.73Z" fill="#CFE1FD"/>
<path d="M455.879 258.01C454.229 259.69 452.569 261.35 450.899 263.01C452.569 261.36 454.229 259.69 455.879 258.01Z" fill="#CFE1FD"/>
<path d="M450.819 263.09C447.319 266.55 443.779 269.96 440.189 273.33C443.779 269.96 447.329 266.55 450.819 263.09Z" fill="#CFE1FD"/>
<path d="M247.72 391.42C245.46 392.24 243.2 393.05 240.93 393.84C243.2 393.05 245.47 392.24 247.72 391.42Z" fill="#CFE1FD"/>
<path d="M275.87 380.311C271.5 382.171 267.1 383.981 262.67 385.731C267.09 383.981 271.49 382.171 275.87 380.311Z" fill="#CFE1FD"/>
<path d="M218.45 405.719C218.45 404.199 218.43 402.689 218.4 401.189C216.29 401.829 214.18 402.449 212.06 403.069C211.47 403.239 210.88 403.409 210.29 403.579C209.94 403.679 209.6 403.779 209.25 403.879C209 403.949 208.75 404.019 208.5 404.089C207.39 404.409 206.27 404.709 205.15 405.019C204.5 405.199 203.85 405.379 203.2 405.559C202 405.889 200.81 406.209 199.61 406.519C199.21 406.629 198.81 406.729 198.41 406.839C198.11 406.919 197.82 406.999 197.52 407.069C197.14 407.169 196.75 407.269 196.37 407.369C194.08 407.959 191.78 408.539 189.47 409.109C189 409.219 188.53 409.329 188.06 409.449C186.24 409.889 184.41 410.329 182.58 410.749C181.89 410.909 181.19 411.069 180.5 411.229C180.31 411.269 180.12 411.319 179.94 411.359C179.7 411.409 179.47 411.469 179.23 411.519C177.95 411.809 176.67 412.089 175.39 412.369C174.76 412.509 174.13 412.649 173.51 412.779C172.43 413.009 171.34 413.239 170.25 413.459C169.8 413.549 169.35 413.649 168.9 413.739C165.91 414.359 162.91 414.949 159.9 415.519C159.74 415.549 159.59 415.579 159.43 415.609C158.83 415.719 158.23 415.829 157.63 415.939C155.94 416.249 154.25 416.549 152.56 416.849C151.83 416.979 151.11 417.099 150.38 417.229C150.3 417.239 150.21 417.259 150.13 417.269C149.91 417.309 149.69 417.349 149.47 417.379C147.92 417.639 146.36 417.889 144.81 418.139C144.33 418.219 143.85 418.299 143.36 418.369C142.38 418.519 141.4 418.669 140.41 418.819C139.91 418.899 139.41 418.969 138.9 419.049C138.05 419.179 137.2 419.309 136.35 419.429C135.82 419.509 135.3 419.579 134.77 419.649C133.16 419.879 131.55 420.099 129.93 420.309C129.64 420.349 129.35 420.389 129.06 420.419C128.39 420.509 127.72 420.589 127.04 420.679C125.34 420.899 123.64 421.099 121.94 421.299C121.25 421.379 120.56 421.459 119.87 421.539C119.86 421.539 119.85 421.539 119.84 421.539C119.65 421.559 119.46 421.579 119.28 421.609C116.25 421.949 113.21 422.259 110.17 422.549C109.62 422.599 109.08 422.659 108.53 422.709C107.6 422.799 106.67 422.879 105.74 422.959C105.03 423.019 104.32 423.079 103.61 423.139C102.27 423.249 100.93 423.359 99.59 423.459C99.17 423.489 98.74 423.519 98.31 423.549C97.6 423.599 96.9 423.649 96.19 423.699C94.35 423.829 92.5 423.949 90.65 424.059C90.11 424.089 89.58 424.129 89.05 424.159C88.94 424.159 88.84 424.169 88.73 424.179C86.46 424.309 84.19 424.419 81.91 424.519C81.36 424.539 80.81 424.559 80.25 424.579C80.01 424.579 79.76 424.599 79.52 424.609C78.96 424.629 78.39 424.659 77.83 424.679C76.79 424.719 75.76 424.749 74.72 424.779C73.94 424.799 73.16 424.819 72.38 424.849C71.21 424.879 70.05 424.909 68.88 424.929C68.33 424.939 67.79 424.949 67.24 424.959C66.52 424.969 65.8 424.989 65.08 424.999C62.69 425.029 60.3 425.049 57.91 425.049C57.14 425.049 49 425.049 37.87 425.049C34.35 425.049 30.54 425.049 26.56 425.049C25.23 425.049 23.89 425.049 22.54 425.049C19.71 425.049 16.83 425.049 13.94 425.049C13.71 425.049 13.48 425.049 13.25 425.049C12.9 425.049 12.55 425.049 12.21 425.049C12 425.049 11.79 425.049 11.58 425.049C10.38 425.049 9.18 425.049 7.98 425.049C7.2 425.049 6.43 425.049 5.66 425.049C3.75 425.049 1.86 425.049 0 425.049V539.999H177.38C195.59 516.239 208.31 487.199 214.38 453.249C217.05 438.339 218.44 422.489 218.44 405.709L218.45 405.719Z" fill="#E9F2FE"/>
<path d="M150.13 417.27C150.21 417.26 150.3 417.24 150.38 417.23C150.35 417.23 150.31 417.24 150.28 417.25C150.23 417.25 150.18 417.27 150.13 417.28V417.27Z" fill="#E9F2FE"/>
<path d="M160.579 415.38C160.349 415.42 160.129 415.47 159.899 415.51C162.909 414.94 165.909 414.35 168.899 413.73C168.769 413.76 168.629 413.78 168.499 413.81C165.869 414.35 163.229 414.87 160.579 415.37V415.38Z" fill="#E9F2FE"/>
<path d="M197.529 407.07C197.829 406.99 198.119 406.91 198.419 406.84C198.339 406.86 198.269 406.88 198.189 406.9C197.969 406.96 197.749 407.02 197.529 407.08V407.07Z" fill="#E9F2FE"/>
<path d="M199.62 406.521C200.82 406.201 202.01 405.881 203.21 405.561C202.32 405.801 201.42 406.041 200.53 406.271C200.23 406.351 199.92 406.441 199.62 406.521Z" fill="#E9F2FE"/>
<path d="M96.2099 423.73C94.3699 423.86 92.5199 423.98 90.6699 424.09C92.5199 423.98 94.3599 423.86 96.2099 423.73Z" fill="#E9F2FE"/>
<path d="M205.16 405.02C206.28 404.71 207.39 404.4 208.51 404.09C208.11 404.2 207.71 404.31 207.32 404.42C206.6 404.62 205.89 404.83 205.17 405.03L205.16 405.02Z" fill="#E9F2FE"/>
<path d="M188.07 409.449C186.25 409.889 184.42 410.329 182.59 410.749C184.42 410.329 186.24 409.889 188.07 409.449Z" fill="#E9F2FE"/>
<path d="M209.25 403.87C209.6 403.77 209.94 403.67 210.29 403.57C210.1 403.63 209.9 403.68 209.71 403.73C209.56 403.77 209.41 403.82 209.26 403.86L209.25 403.87Z" fill="#E9F2FE"/>
<path d="M175.39 412.37C176.67 412.09 177.95 411.81 179.23 411.52C178.8 411.62 178.36 411.71 177.92 411.8C177.07 411.99 176.23 412.18 175.38 412.37H175.39Z" fill="#E9F2FE"/>
<path d="M196.379 407.369C194.089 407.959 191.789 408.539 189.479 409.109C191.779 408.539 194.079 407.969 196.379 407.369Z" fill="#E9F2FE"/>
<path d="M127.06 420.689C125.36 420.909 123.66 421.109 121.96 421.309C123.66 421.109 125.36 420.899 127.06 420.689Z" fill="#E9F2FE"/>
<path d="M170.25 413.459C171.34 413.229 172.42 413.009 173.51 412.779C172.69 412.959 171.87 413.119 171.05 413.289C170.78 413.349 170.52 413.409 170.25 413.459Z" fill="#E9F2FE"/>
<path d="M179.949 411.36C180.139 411.32 180.329 411.27 180.509 411.23C180.419 411.25 180.329 411.27 180.239 411.29C180.139 411.31 180.039 411.34 179.939 411.36H179.949Z" fill="#E9F2FE"/>
<path d="M105.75 422.98C106.68 422.9 107.61 422.81 108.54 422.73C108.27 422.75 108 422.77 107.73 422.8C107.07 422.86 106.41 422.93 105.75 422.99V422.98Z" fill="#E9F2FE"/>
<path d="M144.81 418.141C146.36 417.891 147.92 417.641 149.47 417.381C149.01 417.461 148.55 417.521 148.1 417.601C147 417.781 145.91 417.971 144.81 418.141Z" fill="#E9F2FE"/>
<path d="M140.42 418.831C141.4 418.681 142.39 418.531 143.37 418.381C142.6 418.501 141.83 418.611 141.06 418.731C140.85 418.761 140.64 418.801 140.43 418.831H140.42Z" fill="#E9F2FE"/>
<path d="M74.75 424.811C75.79 424.781 76.82 424.741 77.86 424.711C77.52 424.721 77.19 424.731 76.85 424.741C76.15 424.761 75.45 424.791 74.75 424.821V424.811Z" fill="#E9F2FE"/>
<path d="M68.9102 424.961C70.0802 424.941 71.2402 424.911 72.4102 424.881C71.6302 424.901 70.8602 424.911 70.0802 424.931C69.6902 424.931 69.3002 424.961 68.9102 424.961Z" fill="#E9F2FE"/>
<path d="M81.9395 424.539C84.2095 424.439 86.4895 424.329 88.7595 424.199C88.4195 424.219 88.0795 424.229 87.7295 424.249C85.7995 424.359 83.8695 424.459 81.9395 424.539Z" fill="#E9F2FE"/>
<path d="M99.5996 423.48C100.94 423.38 102.28 423.27 103.62 423.16C102.69 423.24 101.76 423.31 100.83 423.38C100.42 423.41 100.02 423.45 99.6096 423.48H99.5996Z" fill="#E9F2FE"/>
<path d="M79.5498 424.639C79.7898 424.639 80.0398 424.619 80.2798 424.609C80.1098 424.609 79.9298 424.619 79.7598 424.629C79.6898 424.629 79.6198 424.629 79.5498 424.639Z" fill="#E9F2FE"/>
<path d="M136.36 419.431C137.21 419.311 138.06 419.181 138.91 419.051C138.71 419.081 138.51 419.101 138.31 419.131C137.66 419.231 137.01 419.331 136.35 419.421L136.36 419.431Z" fill="#E9F2FE"/>
<path d="M212.06 403.06C214.18 402.45 216.29 401.82 218.4 401.18C218.26 401.22 218.12 401.26 217.98 401.3C216.01 401.89 214.04 402.48 212.06 403.05V403.06Z" fill="#E9F2FE"/>
<path d="M129.939 420.32C131.549 420.11 133.169 419.88 134.779 419.66C133.539 419.84 132.289 420 131.039 420.17C130.669 420.22 130.309 420.28 129.939 420.33V420.32Z" fill="#E9F2FE"/>
<path d="M110.61 422.519C110.47 422.529 110.32 422.549 110.18 422.559C113.22 422.269 116.26 421.959 119.29 421.619C118.85 421.669 118.4 421.709 117.95 421.759C115.51 422.029 113.06 422.279 110.61 422.519Z" fill="#E9F2FE"/>
<path d="M57.2696 425.07C57.1296 425.07 56.9596 425.07 56.7896 425.07C56.4096 425.07 55.9496 425.07 55.3996 425.07C55.1596 425.07 54.9296 425.07 54.6596 425.07C53.5996 425.07 52.3196 425.07 50.8396 425.07C50.7296 425.07 50.6196 425.07 50.5096 425.07C49.2196 425.07 47.7996 425.07 46.2496 425.07C45.8396 425.07 45.4296 425.07 44.9996 425.07C43.3996 425.07 41.6896 425.07 39.8796 425.07C39.6096 425.07 39.3396 425.07 39.0696 425.07C38.6796 425.07 38.2896 425.07 37.8896 425.07C49.0296 425.07 57.1696 425.07 57.9296 425.07C60.3196 425.07 62.7196 425.05 65.0996 425.02C62.7096 425.05 60.3196 425.07 57.9296 425.07C57.8296 425.07 57.5996 425.07 57.2696 425.07Z" fill="#E9F2FE"/>
<path d="M130.56 141.039C129.25 141.489 127.94 141.949 126.63 142.379C127.94 141.939 129.25 141.489 130.56 141.039Z" fill="#E9F2FE"/>
<path d="M234.26 396.119C233.65 396.319 233.04 396.529 232.43 396.729C233.04 396.529 233.65 396.329 234.26 396.119Z" fill="#E9F2FE"/>
<path d="M227.23 398.43C226.69 398.6 226.16 398.78 225.62 398.95C226.16 398.78 226.69 398.61 227.23 398.43Z" fill="#E9F2FE"/>
<path d="M0.00976562 158.741L35.1598 158.721C25.3398 158.721 12.1798 158.731 0.00976562 158.741Z" fill="#E9F2FE"/>
<path d="M108.24 148C106.96 148.35 105.68 148.7 104.39 149.03C105.67 148.69 106.96 148.35 108.24 148Z" fill="#E9F2FE"/>
<path d="M97.2399 150.85C95.3899 151.3 93.5299 151.73 91.6699 152.14C93.5299 151.72 95.3899 151.29 97.2399 150.85Z" fill="#E9F2FE"/>
<path d="M90.2602 152.449C88.8902 152.749 87.5302 153.049 86.1602 153.329C87.5302 153.049 88.9002 152.749 90.2602 152.449Z" fill="#E9F2FE"/>
<path d="M119.25 144.77C118.08 145.13 116.9 145.49 115.72 145.85C116.9 145.5 118.07 145.14 119.25 144.77Z" fill="#E9F2FE"/>
<path d="M124.82 142.99C123.62 143.39 122.41 143.78 121.2 144.16C122.41 143.78 123.61 143.39 124.82 142.99Z" fill="#E9F2FE"/>
<path d="M262.68 385.73C262.19 385.93 261.69 386.12 261.2 386.31C261.69 386.12 262.19 385.92 262.68 385.73Z" fill="#E9F2FE"/>
<path d="M84.1694 153.721C82.9794 153.961 81.7994 154.191 80.6094 154.421C81.7994 154.201 82.9794 153.961 84.1694 153.721Z" fill="#E9F2FE"/>
<path d="M212.109 100.72C216.999 97.4797 221.809 94.1397 226.519 90.6797C221.809 94.1397 217.009 97.4897 212.109 100.72Z" fill="#E9F2FE"/>
<path d="M78.43 154.82C77.3 155.03 76.17 155.23 75.04 155.42C76.17 155.23 77.3 155.02 78.43 154.82Z" fill="#E9F2FE"/>
<path d="M72.7897 155.801C71.6697 155.981 70.5497 156.161 69.4297 156.341C70.5497 156.171 71.6697 155.991 72.7897 155.801Z" fill="#E9F2FE"/>
<path d="M61.6 157.461C60.33 157.621 59.06 157.781 57.79 157.931C59.06 157.781 60.33 157.631 61.6 157.461Z" fill="#E9F2FE"/>
<path d="M196.32 110.58C194.94 111.39 193.55 112.2 192.16 113C193.55 112.2 194.94 111.4 196.32 110.58Z" fill="#E9F2FE"/>
<path d="M191.35 113.461C186.27 116.351 181.11 119.121 175.88 121.771C181.11 119.121 186.26 116.351 191.35 113.461Z" fill="#E9F2FE"/>
<path d="M311.13 363.84C310.75 364.04 310.36 364.23 309.97 364.43C310.36 364.23 310.74 364.04 311.13 363.84Z" fill="#E9F2FE"/>
<path d="M169.52 124.92C168.22 125.55 166.91 126.17 165.6 126.79C166.91 126.18 168.22 125.55 169.52 124.92Z" fill="#E9F2FE"/>
<path d="M175.21 122.109C173.74 122.849 172.26 123.589 170.77 124.309C172.26 123.589 173.73 122.849 175.21 122.109Z" fill="#E9F2FE"/>
<path d="M369.83 329.33C369.65 329.45 369.47 329.57 369.29 329.7C369.47 329.58 369.65 329.46 369.83 329.33Z" fill="#E9F2FE"/>
<path d="M357.1 337.641C356.82 337.821 356.54 338.001 356.25 338.171C356.53 337.991 356.81 337.821 357.1 337.641Z" fill="#E9F2FE"/>
<path d="M350.96 341.471C350.63 341.681 350.29 341.881 349.96 342.091C350.29 341.891 350.63 341.681 350.96 341.471Z" fill="#E9F2FE"/>
<path d="M331.35 353.01C330.96 353.23 330.56 353.45 330.17 353.67C330.57 353.45 330.96 353.23 331.35 353.01Z" fill="#E9F2FE"/>
<path d="M283.949 376.789C283.449 377.009 282.939 377.239 282.439 377.459C282.939 377.239 283.449 377.019 283.949 376.789Z" fill="#E9F2FE"/>
<path d="M211.35 101.211C210.01 102.091 208.67 102.961 207.31 103.831C208.66 102.971 210.01 102.091 211.35 101.211Z" fill="#E9F2FE"/>
<path d="M297.329 370.641C297.229 370.691 297.129 370.741 297.029 370.781C297.129 370.731 297.229 370.681 297.329 370.641Z" fill="#E9F2FE"/>
<path d="M201.28 107.6C199.99 108.39 198.7 109.16 197.41 109.93C198.71 109.16 200 108.38 201.28 107.6Z" fill="#E9F2FE"/>
<path d="M206.26 104.5C204.99 105.31 203.71 106.1 202.43 106.9C203.71 106.11 204.99 105.31 206.26 104.5Z" fill="#E9F2FE"/>
<path d="M450.899 263.01C450.899 263.01 450.849 263.06 450.819 263.09C450.849 263.06 450.869 263.04 450.899 263.01Z" fill="#E9F2FE"/>
<path d="M137.05 138.721C135.37 139.341 133.69 139.941 132.01 140.541C133.7 139.951 135.38 139.341 137.05 138.721Z" fill="#E9F2FE"/>
<path d="M142.9 136.51C141.06 137.23 139.21 137.93 137.35 138.61C139.2 137.92 141.05 137.22 142.9 136.51Z" fill="#E9F2FE"/>
<path d="M434.83 278.289C434.66 278.439 434.5 278.589 434.33 278.749C434.5 278.599 434.66 278.449 434.83 278.289Z" fill="#E9F2FE"/>
<path d="M158.81 129.881C157.54 130.441 156.27 131.001 155 131.551C156.27 131.001 157.54 130.451 158.81 129.881Z" fill="#E9F2FE"/>
<path d="M376.11 325.039C375.81 325.249 375.52 325.449 375.22 325.659C375.52 325.449 375.82 325.249 376.11 325.039Z" fill="#E9F2FE"/>
<path d="M381.9 320.98C381.9 320.98 381.81 321.05 381.76 321.08C381.81 321.05 381.85 321.01 381.9 320.98Z" fill="#E9F2FE"/>
<path d="M153.51 132.189C152.15 132.769 150.79 133.329 149.42 133.899C150.79 133.339 152.15 132.769 153.51 132.189Z" fill="#E9F2FE"/>
<path d="M48.2798 198.01C135.81 212.28 198.22 267.68 214.34 357.55C214.66 359.34 214.96 361.15 215.25 362.98C215.37 363.76 215.48 364.55 215.6 365.34C215.75 366.37 215.9 367.39 216.04 368.43C216.18 369.46 216.3 370.5 216.43 371.54C216.53 372.33 216.62 373.11 216.71 373.9C216.85 375.1 216.97 376.31 217.09 377.53C217.15 378.15 217.21 378.77 217.27 379.39C217.39 380.74 217.5 382.1 217.61 383.46C217.65 383.94 217.68 384.41 217.72 384.89C217.83 386.38 217.92 387.87 218 389.38C218.02 389.72 218.04 390.05 218.05 390.39C218.13 392.02 218.21 393.65 218.26 395.3C218.26 395.48 218.27 395.67 218.28 395.86C218.34 397.64 218.38 399.42 218.41 401.22C220.82 400.49 223.23 399.74 225.62 398.98C226.16 398.81 226.69 398.64 227.23 398.46C228.97 397.9 230.7 397.34 232.43 396.76C233.04 396.56 233.65 396.36 234.26 396.15C236.12 395.53 237.98 394.89 239.83 394.25C240.19 394.12 240.56 394 240.92 393.87C243.19 393.08 245.46 392.27 247.71 391.45C247.96 391.36 248.2 391.27 248.45 391.18C250.41 390.46 252.37 389.74 254.32 389C254.87 388.79 255.42 388.58 255.97 388.37C257.71 387.71 259.45 387.03 261.18 386.35C261.67 386.16 262.17 385.96 262.66 385.77C267.08 384.02 271.48 382.21 275.86 380.35C276.28 380.17 276.69 379.99 277.11 379.81C278.89 379.05 280.66 378.28 282.43 377.5C282.93 377.28 283.44 377.06 283.94 376.83C285.83 375.99 287.71 375.14 289.59 374.28C289.85 374.16 290.11 374.04 290.37 373.92C292.59 372.9 294.81 371.87 297.01 370.82C297.11 370.77 297.21 370.72 297.31 370.68C299.33 369.72 301.34 368.75 303.35 367.76C303.8 367.54 304.24 367.32 304.69 367.1C306.45 366.23 308.21 365.35 309.97 364.46C310.36 364.26 310.74 364.07 311.13 363.87C315.41 361.69 319.66 359.45 323.88 357.17C324.17 357.01 324.46 356.85 324.75 356.69C326.56 355.71 328.36 354.71 330.15 353.71C330.55 353.49 330.94 353.27 331.33 353.05C333.24 351.98 335.15 350.89 337.04 349.8C337.18 349.72 337.32 349.64 337.46 349.56C341.65 347.13 345.81 344.66 349.94 342.13C350.27 341.93 350.61 341.72 350.94 341.51C352.71 340.42 354.48 339.32 356.23 338.21C356.51 338.03 356.79 337.86 357.08 337.68C361.18 335.08 365.24 332.43 369.27 329.74C369.45 329.62 369.63 329.5 369.81 329.37C371.61 328.16 373.41 326.93 375.2 325.7C375.5 325.49 375.8 325.29 376.09 325.08C377.98 323.77 379.87 322.45 381.74 321.12C381.79 321.09 381.83 321.05 381.88 321.02C385.87 318.19 389.81 315.3 393.72 312.37C393.96 312.19 394.19 312.02 394.43 311.84C396.17 310.53 397.91 309.2 399.63 307.87C399.82 307.72 400.02 307.57 400.21 307.42C404.08 304.42 407.91 301.38 411.7 298.29C411.79 298.22 411.87 298.15 411.96 298.08C413.73 296.64 415.48 295.18 417.23 293.71C417.45 293.53 417.66 293.35 417.88 293.17C423.46 288.48 428.94 283.68 434.32 278.78C434.49 278.63 434.65 278.48 434.82 278.32C436.49 276.8 438.14 275.27 439.79 273.73C439.92 273.61 440.05 273.49 440.18 273.37C443.77 270 447.32 266.59 450.81 263.13C450.84 263.1 450.86 263.08 450.89 263.05C452.56 261.4 454.22 259.73 455.87 258.05C456.03 257.88 456.2 257.72 456.36 257.55C461.47 252.34 466.48 247.03 471.38 241.62C471.51 241.48 471.63 241.34 471.76 241.2C473.29 239.51 474.81 237.8 476.32 236.09C476.42 235.97 476.53 235.86 476.63 235.74C479.88 232.04 483.08 228.3 486.23 224.51L226.52 90.6699C221.81 94.1299 217.01 97.4799 212.11 100.71C211.86 100.88 211.61 101.04 211.35 101.21C210.01 102.09 208.67 102.96 207.31 103.83C206.96 104.05 206.6 104.28 206.25 104.5C204.98 105.31 203.7 106.1 202.42 106.9C202.04 107.14 201.66 107.37 201.27 107.6C199.98 108.39 198.69 109.16 197.4 109.93C197.04 110.14 196.68 110.36 196.32 110.57C194.94 111.38 193.55 112.19 192.16 112.99C191.89 113.14 191.62 113.3 191.35 113.46C186.27 116.35 181.11 119.12 175.88 121.77C175.66 121.88 175.43 121.99 175.21 122.11C173.74 122.85 172.26 123.59 170.77 124.31C170.35 124.51 169.94 124.71 169.52 124.91C168.22 125.54 166.91 126.16 165.6 126.78C165.11 127.01 164.61 127.24 164.12 127.47C162.87 128.05 161.61 128.62 160.35 129.19C159.84 129.42 159.32 129.65 158.81 129.88C157.54 130.44 156.27 131 155 131.55C154.51 131.76 154.01 131.98 153.52 132.19C152.16 132.77 150.8 133.33 149.43 133.9C149.03 134.07 148.62 134.24 148.22 134.4C146.52 135.09 144.81 135.77 143.1 136.44C143.04 136.47 142.97 136.49 142.91 136.52C141.07 137.24 139.22 137.94 137.36 138.62C137.26 138.66 137.16 138.69 137.06 138.73C135.38 139.35 133.7 139.95 132.02 140.55C131.54 140.72 131.06 140.88 130.57 141.05C129.26 141.5 127.95 141.96 126.64 142.39C126.04 142.59 125.43 142.79 124.83 142.99C123.63 143.39 122.42 143.78 121.21 144.16C120.56 144.37 119.91 144.57 119.26 144.77C118.09 145.13 116.91 145.49 115.73 145.85C115.07 146.05 114.41 146.25 113.74 146.44C112.55 146.79 111.35 147.13 110.16 147.47C109.52 147.65 108.88 147.83 108.24 148.01C106.96 148.36 105.68 148.71 104.39 149.04C103.84 149.18 103.29 149.33 102.74 149.48C101.07 149.91 99.3898 150.33 97.7098 150.74C97.5498 150.78 97.3998 150.82 97.2398 150.86C95.3898 151.31 93.5298 151.74 91.6698 152.15C91.1998 152.26 90.7198 152.35 90.2498 152.46C88.8798 152.76 87.5198 153.06 86.1498 153.34C85.4898 153.48 84.8298 153.61 84.1698 153.74C82.9798 153.98 81.7998 154.21 80.6098 154.44C79.8798 154.58 79.1598 154.71 78.4298 154.84C77.2998 155.05 76.1698 155.25 75.0398 155.44C74.2898 155.57 73.5398 155.69 72.7898 155.82C71.6698 156 70.5498 156.18 69.4298 156.36C68.6798 156.48 67.9398 156.59 67.1898 156.7C66.0398 156.87 64.8798 157.03 63.7298 157.19C63.0198 157.29 62.3098 157.39 61.5998 157.48C60.3298 157.64 59.0598 157.8 57.7898 157.95C57.1998 158.02 56.6098 158.1 56.0198 158.16C54.1598 158.37 52.2998 158.56 50.4398 158.74H50.4098C50.1398 158.74 44.0098 158.74 35.1598 158.75L0.00976562 158.77V194.34C0.469766 194.34 0.929766 194.34 1.38977 194.34C17.6798 194.34 33.3398 195.6 48.2798 198.03V198.01Z" fill="#E9F2FE"/>
<path d="M175.39 412.369C174.76 412.509 174.13 412.649 173.51 412.779C174.14 412.649 174.77 412.509 175.39 412.369Z" fill="#E9F2FE"/>
<path d="M96.21 423.73C96.92 423.68 97.62 423.63 98.33 423.58C98.27 423.58 98.21 423.58 98.15 423.59C97.5 423.64 96.86 423.69 96.21 423.73Z" fill="#E9F2FE"/>
<path d="M89.0696 424.18C89.6096 424.15 90.1396 424.11 90.6696 424.08C90.1496 424.11 89.6296 424.15 89.1096 424.18C89.0896 424.18 89.0796 424.18 89.0596 424.18H89.0696Z" fill="#E9F2FE"/>
<path d="M157.63 415.939C158.23 415.829 158.83 415.719 159.43 415.609C159.31 415.629 159.2 415.649 159.08 415.669C158.6 415.759 158.11 415.849 157.63 415.939Z" fill="#E9F2FE"/>
<path d="M152.56 416.85C151.83 416.98 151.11 417.1 150.38 417.23C151.11 417.11 151.83 416.98 152.56 416.85Z" fill="#E9F2FE"/>
<path d="M144.809 418.141C144.329 418.221 143.849 418.301 143.359 418.371C143.839 418.291 144.319 418.211 144.809 418.141Z" fill="#E9F2FE"/>
<path d="M127.06 420.69C127.73 420.6 128.41 420.52 129.08 420.43C128.98 420.44 128.89 420.45 128.79 420.47C128.21 420.54 127.64 420.62 127.06 420.69Z" fill="#E9F2FE"/>
<path d="M74.7502 424.811C73.9702 424.831 73.1902 424.851 72.4102 424.881C73.1902 424.861 73.9702 424.841 74.7502 424.811Z" fill="#E9F2FE"/>
<path d="M81.9393 424.539C81.3893 424.559 80.8393 424.579 80.2793 424.599C80.8293 424.579 81.3793 424.559 81.9393 424.539Z" fill="#E9F2FE"/>
<path d="M188.99 409.229C188.69 409.299 188.38 409.379 188.08 409.449C188.55 409.339 189.02 409.229 189.49 409.109C189.46 409.109 189.44 409.119 189.41 409.129C189.27 409.159 189.13 409.199 189 409.229H188.99Z" fill="#E9F2FE"/>
<path d="M65.1094 425.02C65.8294 425.02 66.5494 425 67.2694 424.98C66.5494 424.99 65.8294 425.01 65.1094 425.02Z" fill="#E9F2FE"/>
<path d="M141.05 418.729C141.82 418.609 142.59 418.499 143.36 418.379C143.84 418.299 144.32 418.219 144.81 418.149C145.91 417.969 147 417.789 148.1 417.609C145.75 417.999 143.41 418.379 141.05 418.739V418.729Z" fill="#E9F2FE"/>
<path d="M89.1094 424.18C89.6294 424.15 90.1494 424.12 90.6694 424.08C92.5194 423.97 94.3594 423.85 96.2094 423.72C96.8594 423.67 97.4994 423.63 98.1494 423.58C95.1394 423.8 92.1294 424 89.1094 424.18Z" fill="#E9F2FE"/>
<path d="M57.9297 425.07C60.3197 425.07 62.7197 425.05 65.0997 425.02C65.8197 425.02 66.5397 425 67.2597 424.98C64.1497 425.03 61.0397 425.07 57.9297 425.07Z" fill="#E9F2FE"/>
<path d="M150.279 417.24C150.279 417.24 150.349 417.23 150.379 417.22C151.109 417.1 151.829 416.97 152.559 416.84C154.249 416.54 155.939 416.24 157.629 415.93C158.109 415.84 158.599 415.75 159.079 415.66C156.149 416.21 153.219 416.73 150.279 417.23V417.24Z" fill="#E9F2FE"/>
<path d="M131.04 420.161C132.29 419.991 133.53 419.831 134.78 419.651C135.31 419.581 135.83 419.511 136.36 419.431C137.01 419.341 137.66 419.231 138.32 419.141C135.9 419.501 133.48 419.841 131.05 420.161H131.04Z" fill="#E9F2FE"/>
<path d="M215.6 365.331C215.48 364.541 215.38 363.751 215.25 362.971C215.37 363.751 215.48 364.541 215.6 365.331Z" fill="#E9F2FE"/>
<path d="M119.87 421.56C119.87 421.56 119.87 421.56 119.88 421.56C120.57 421.48 121.26 421.4 121.95 421.32C123.65 421.12 125.35 420.91 127.05 420.7C127.63 420.63 128.2 420.55 128.78 420.48C125.81 420.87 122.84 421.23 119.87 421.57V421.56Z" fill="#E9F2FE"/>
<path d="M100.82 423.379C101.75 423.309 102.68 423.239 103.61 423.159C104.32 423.099 105.03 423.039 105.74 422.979C106.4 422.919 107.06 422.859 107.72 422.789C105.42 422.999 103.12 423.189 100.81 423.369L100.82 423.379Z" fill="#E9F2FE"/>
<path d="M200.53 406.27C201.42 406.03 202.32 405.8 203.21 405.56C203.86 405.38 204.51 405.2 205.16 405.02C205.88 404.82 206.6 404.62 207.31 404.41C205.05 405.04 202.79 405.66 200.52 406.27H200.53Z" fill="#E9F2FE"/>
<path d="M217.09 377.511C216.97 376.301 216.85 375.081 216.71 373.881C216.84 375.081 216.97 376.291 217.09 377.511Z" fill="#E9F2FE"/>
<path d="M218.26 395.269C218.2 393.619 218.13 391.989 218.05 390.359C218.13 391.989 218.21 393.619 218.26 395.269Z" fill="#E9F2FE"/>
<path d="M217.99 389.349C217.91 387.849 217.81 386.349 217.71 384.859C217.82 386.349 217.91 387.839 217.99 389.349Z" fill="#E9F2FE"/>
<path d="M209.71 403.74C209.9 403.68 210.1 403.63 210.29 403.58C210.88 403.41 211.47 403.24 212.06 403.07C214.04 402.5 216.01 401.91 217.98 401.32C215.23 402.15 212.47 402.96 209.71 403.75V403.74Z" fill="#E9F2FE"/>
<path d="M189.399 409.131C189.399 409.131 189.449 409.121 189.479 409.111C191.779 408.541 194.079 407.971 196.379 407.371C196.759 407.271 197.149 407.171 197.529 407.071C197.749 407.011 197.969 406.951 198.189 406.891C195.269 407.661 192.339 408.411 189.399 409.131Z" fill="#E9F2FE"/>
<path d="M79.7598 424.63C79.9298 424.63 80.1098 424.62 80.2798 424.61C80.8298 424.59 81.3798 424.57 81.9398 424.55C83.8698 424.47 85.7998 424.36 87.7298 424.26C85.0798 424.4 82.4198 424.53 79.7698 424.64L79.7598 424.63Z" fill="#E9F2FE"/>
<path d="M171.05 413.291C171.87 413.121 172.69 412.951 173.51 412.781C174.14 412.651 174.77 412.511 175.39 412.371C176.24 412.191 177.08 411.991 177.93 411.801C175.64 412.311 173.35 412.811 171.05 413.291Z" fill="#E9F2FE"/>
<path d="M160.58 415.38C163.22 414.88 165.86 414.36 168.5 413.82C165.87 414.36 163.23 414.88 160.58 415.38Z" fill="#E9F2FE"/>
<path d="M70.0801 424.921C70.8601 424.901 71.6301 424.891 72.4101 424.871C73.1901 424.851 73.9701 424.831 74.7501 424.801C75.4501 424.781 76.1501 424.751 76.8501 424.721C74.6001 424.801 72.3401 424.861 70.0801 424.911V424.921Z" fill="#E9F2FE"/>
<path d="M180.24 411.29C180.33 411.27 180.42 411.25 180.51 411.23C181.2 411.07 181.9 410.91 182.59 410.75C184.42 410.33 186.24 409.89 188.07 409.45C188.37 409.38 188.68 409.3 188.98 409.23C186.07 409.94 183.16 410.62 180.24 411.29Z" fill="#E9F2FE"/>
<path d="M67.2695 424.979C67.8195 424.979 68.3595 424.959 68.9095 424.949C68.3695 424.959 67.8195 424.969 67.2795 424.979H67.2695Z" fill="#CFE1FD"/>
<path d="M150.13 417.27C149.91 417.31 149.69 417.35 149.47 417.38C149.69 417.34 149.91 417.3 150.13 417.27Z" fill="#CFE1FD"/>
<path d="M140.42 418.83C139.92 418.91 139.42 418.98 138.91 419.06C139.41 418.99 139.92 418.91 140.42 418.83Z" fill="#CFE1FD"/>
<path d="M79.5494 424.641C78.9894 424.661 78.4194 424.691 77.8594 424.711C78.4294 424.691 78.9894 424.671 79.5494 424.641Z" fill="#CFE1FD"/>
<path d="M159.43 415.61C159.59 415.58 159.74 415.55 159.9 415.52C159.82 415.54 159.73 415.55 159.65 415.57C159.58 415.58 159.51 415.6 159.44 415.61H159.43Z" fill="#CFE1FD"/>
<path d="M119.85 421.561C119.66 421.581 119.47 421.601 119.29 421.631C119.48 421.611 119.67 421.591 119.85 421.561Z" fill="#CFE1FD"/>
<path d="M129.069 420.43C129.359 420.39 129.649 420.35 129.939 420.32C129.729 420.35 129.509 420.37 129.299 420.4C129.219 420.41 129.149 420.42 129.069 420.43Z" fill="#CFE1FD"/>
<path d="M98.3301 423.57C98.7501 423.54 99.1801 423.51 99.6101 423.48C99.2501 423.51 98.8901 423.53 98.5301 423.56C98.4701 423.56 98.4001 423.57 98.3401 423.58L98.3301 423.57Z" fill="#CFE1FD"/>
<path d="M110.18 422.57C109.63 422.62 109.09 422.68 108.54 422.73C109.09 422.68 109.63 422.63 110.18 422.57Z" fill="#CFE1FD"/>
<path d="M88.75 424.2C88.86 424.2 88.96 424.19 89.07 424.18C89.07 424.18 89.06 424.18 89.05 424.18C88.95 424.18 88.85 424.19 88.75 424.2Z" fill="#CFE1FD"/>
<path d="M13.96 425.049C16.85 425.049 19.73 425.049 22.56 425.049C23.92 425.049 25.26 425.049 26.58 425.049C30.56 425.049 34.37 425.049 37.89 425.049C38.29 425.049 38.68 425.049 39.07 425.049C31.69 425.049 22.87 425.049 13.96 425.039V425.049Z" fill="#CFE1FD"/>
<path d="M207.31 404.41C207.71 404.3 208.11 404.2 208.5 404.08C208.75 404.01 209 403.94 209.25 403.87C209.4 403.83 209.55 403.78 209.7 403.74C208.9 403.97 208.1 404.19 207.3 404.41H207.31Z" fill="#CFE1FD"/>
<path d="M129.3 420.4C129.51 420.37 129.73 420.35 129.94 420.32C130.31 420.27 130.67 420.21 131.04 420.16C130.46 420.24 129.88 420.32 129.3 420.4Z" fill="#CFE1FD"/>
<path d="M138.319 419.14C138.519 419.11 138.719 419.09 138.919 419.06C139.419 418.99 139.929 418.91 140.429 418.83C140.639 418.8 140.849 418.76 141.059 418.73C140.149 418.87 139.239 419.01 138.319 419.14Z" fill="#CFE1FD"/>
<path d="M117.95 421.761C118.39 421.711 118.84 421.671 119.29 421.621C119.48 421.601 119.67 421.581 119.85 421.551C119.85 421.551 119.86 421.551 119.87 421.551C119.23 421.621 118.59 421.691 117.95 421.761Z" fill="#CFE1FD"/>
<path d="M107.729 422.79C107.999 422.77 108.269 422.75 108.539 422.72C109.089 422.67 109.629 422.62 110.179 422.56C110.319 422.55 110.469 422.53 110.609 422.52C109.649 422.61 108.689 422.7 107.729 422.79Z" fill="#CFE1FD"/>
<path d="M148.1 417.6C148.56 417.52 149.02 417.46 149.47 417.38C149.69 417.34 149.91 417.3 150.13 417.27C150.18 417.27 150.23 417.25 150.28 417.24C149.55 417.36 148.83 417.48 148.1 417.6Z" fill="#CFE1FD"/>
<path d="M168.5 413.819C168.63 413.789 168.77 413.769 168.9 413.739C169.35 413.649 169.8 413.549 170.25 413.459C170.52 413.399 170.78 413.339 171.05 413.289C170.2 413.469 169.35 413.649 168.5 413.819Z" fill="#CFE1FD"/>
<path d="M177.93 411.799C178.36 411.699 178.8 411.619 179.24 411.519C179.48 411.469 179.71 411.409 179.95 411.359C180.05 411.339 180.15 411.309 180.25 411.289C179.48 411.469 178.71 411.629 177.93 411.809V411.799Z" fill="#CFE1FD"/>
<path d="M98.5198 423.561C98.8798 423.531 99.2398 423.511 99.5998 423.481C100.01 423.451 100.42 423.411 100.82 423.381C100.05 423.441 99.2798 423.511 98.5098 423.561H98.5198Z" fill="#CFE1FD"/>
<path d="M159.64 415.571C159.72 415.551 159.81 415.541 159.89 415.521C160.12 415.481 160.34 415.431 160.57 415.391C160.26 415.451 159.95 415.511 159.63 415.571H159.64Z" fill="#CFE1FD"/>
<path d="M198.189 406.89C198.269 406.87 198.339 406.85 198.419 406.83C198.819 406.72 199.219 406.62 199.619 406.51C199.919 406.43 200.229 406.34 200.529 406.26C199.749 406.47 198.969 406.68 198.189 406.88V406.89Z" fill="#CFE1FD"/>
<path d="M67.2695 424.98C67.8095 424.98 68.3595 424.96 68.8995 424.95C69.2895 424.95 69.6795 424.93 70.0695 424.92C69.1395 424.94 68.1995 424.96 67.2695 424.98Z" fill="#CFE1FD"/>
<path d="M218.41 401.18C218.27 401.22 218.13 401.26 217.99 401.31C218.13 401.27 218.27 401.23 218.41 401.19V401.18Z" fill="#CFE1FD"/>
<path d="M76.8401 424.729C77.1801 424.719 77.5101 424.709 77.8501 424.699C78.4201 424.679 78.9801 424.659 79.5401 424.629C79.6101 424.629 79.6801 424.629 79.7501 424.619C78.7801 424.659 77.8001 424.689 76.8301 424.729H76.8401Z" fill="#CFE1FD"/>
<path d="M87.7295 424.25C88.0695 424.23 88.4095 424.22 88.7595 424.2C88.8595 424.2 88.9595 424.19 89.0595 424.18C88.6195 424.21 88.1795 424.22 87.7395 424.25H87.7295Z" fill="#CFE1FD"/>
<path d="M217.71 384.869C217.68 384.389 217.64 383.919 217.6 383.439C217.64 383.919 217.67 384.389 217.71 384.869Z" fill="#CFE1FD"/>
<path d="M218.28 395.82C218.28 395.63 218.27 395.45 218.26 395.26C218.26 395.44 218.27 395.63 218.28 395.82Z" fill="#CFE1FD"/>
<path d="M215.25 362.969C214.97 361.149 214.66 359.339 214.34 357.539C214.66 359.329 214.96 361.139 215.25 362.969Z" fill="#CFE1FD"/>
<path d="M218.05 390.36C218.03 390.02 218.02 389.69 218 389.35C218.02 389.69 218.04 390.02 218.05 390.36Z" fill="#CFE1FD"/>
<path d="M216.71 373.88C216.62 373.09 216.52 372.31 216.43 371.52C216.53 372.31 216.62 373.09 216.71 373.88Z" fill="#CFE1FD"/>
<path d="M98.1494 423.581C98.2094 423.581 98.2694 423.581 98.3294 423.571C98.3894 423.571 98.4594 423.561 98.5194 423.551C98.3994 423.551 98.2694 423.571 98.1494 423.581Z" fill="#CFE1FD"/>
<path d="M188.99 409.231C189.13 409.201 189.27 409.161 189.4 409.131C189.26 409.161 189.12 409.201 188.99 409.231Z" fill="#CFE1FD"/>
<path d="M128.79 420.47C128.89 420.46 128.98 420.45 129.08 420.43C129.16 420.42 129.23 420.41 129.31 420.4C129.14 420.42 128.96 420.44 128.79 420.47Z" fill="#CFE1FD"/>
<path d="M159.08 415.67C159.2 415.65 159.31 415.63 159.43 415.61C159.5 415.6 159.57 415.58 159.64 415.57C159.45 415.61 159.26 415.64 159.08 415.67Z" fill="#CFE1FD"/>
<path d="M11.59 425.05C12.15 425.05 12.71 425.05 13.27 425.05C13.5 425.05 13.73 425.05 13.96 425.05C22.87 425.05 31.69 425.05 39.07 425.06C39.34 425.06 39.61 425.06 39.88 425.06C41.68 425.06 43.4 425.06 45 425.06C45.42 425.06 45.84 425.06 46.25 425.06C47.79 425.06 49.22 425.06 50.51 425.06C50.62 425.06 50.73 425.06 50.84 425.06C52.32 425.06 53.6 425.06 54.66 425.06C54.92 425.06 55.17 425.06 55.4 425.06C55.95 425.06 56.41 425.06 56.79 425.06C56.97 425.06 57.13 425.06 57.27 425.06C57.6 425.06 57.83 425.06 57.93 425.06C61.05 425.06 64.16 425.02 67.26 424.97C68.2 424.95 69.13 424.93 70.06 424.91C72.32 424.86 74.57 424.8 76.83 424.72C77.8 424.69 78.78 424.65 79.75 424.61C82.41 424.5 85.06 424.38 87.71 424.23C88.15 424.21 88.59 424.19 89.03 424.16C89.05 424.16 89.07 424.16 89.09 424.16C92.11 423.99 95.12 423.79 98.13 423.56C98.25 423.56 98.38 423.54 98.5 423.53C99.27 423.47 100.04 423.41 100.81 423.35C103.11 423.17 105.42 422.98 107.72 422.77C108.68 422.68 109.64 422.59 110.6 422.5C113.05 422.26 115.5 422.01 117.94 421.74C118.58 421.67 119.22 421.61 119.86 421.53C122.84 421.19 125.81 420.83 128.77 420.44C128.94 420.42 129.12 420.4 129.29 420.37C129.87 420.29 130.45 420.21 131.03 420.13C133.46 419.8 135.88 419.46 138.3 419.11C139.21 418.97 140.13 418.84 141.04 418.7C143.39 418.34 145.74 417.96 148.09 417.57C148.82 417.45 149.54 417.33 150.27 417.21C153.21 416.71 156.14 416.19 159.07 415.64C159.26 415.6 159.45 415.57 159.63 415.54C159.94 415.48 160.25 415.42 160.57 415.36C163.21 414.86 165.85 414.34 168.49 413.8C169.34 413.63 170.19 413.45 171.04 413.27C173.34 412.79 175.63 412.29 177.92 411.78C178.69 411.61 179.46 411.44 180.24 411.26C183.16 410.6 186.08 409.91 188.98 409.2C189.12 409.17 189.26 409.13 189.39 409.1C192.33 408.38 195.26 407.63 198.18 406.86C198.96 406.66 199.74 406.44 200.52 406.24C202.79 405.63 205.05 405.02 207.31 404.38C208.11 404.16 208.91 403.93 209.71 403.71C212.48 402.92 215.23 402.11 217.98 401.28C218.12 401.24 218.26 401.2 218.4 401.15C218.37 399.35 218.33 397.57 218.27 395.79C218.27 395.6 218.26 395.42 218.25 395.23C218.19 393.58 218.12 391.95 218.04 390.32C218.02 389.98 218.01 389.65 217.99 389.31C217.91 387.81 217.81 386.31 217.71 384.82C217.68 384.34 217.64 383.87 217.6 383.39C217.5 382.03 217.38 380.67 217.26 379.32C217.2 378.7 217.14 378.08 217.08 377.46C216.96 376.25 216.84 375.04 216.7 373.83C216.61 373.04 216.51 372.26 216.42 371.47C216.29 370.43 216.17 369.39 216.03 368.36C215.89 367.33 215.74 366.3 215.59 365.27C215.47 364.48 215.37 363.69 215.24 362.91C214.96 361.09 214.65 359.28 214.33 357.48C198.21 267.61 135.8 212.21 48.27 197.94C33.34 195.51 17.68 194.25 1.38 194.25C0.92 194.25 0.46 194.25 0 194.26V424.98C0.63 424.98 1.25 424.98 1.89 424.98C5.07 424.98 8.33 424.98 11.59 424.98V425.05Z" fill="#CFE1FD"/>
<path d="M960.01 0H721.68L960.01 267.77V0Z" fill="#CFE1FD"/>
<path d="M749.059 359.869L682.439 393.729L749.059 359.869Z" fill="#E9F2FE"/>
<path d="M749.06 359.87L549.18 256.9V461.45L682.44 393.73L749.06 359.87Z" fill="#E9F2FE"/>
</g>
<defs>
<clipPath id="clip0_287_70126">
<rect width="960.01" height="540.001" fill="white"/>
</clipPath>
</defs>
</svg>
