<svg width="960" height="540" viewBox="0 0 960 540" fill="none" xmlns="http://www.w3.org/2000/svg">
<g clip-path="url(#clip0_287_56610)">
<path d="M697.689 420.66L717.019 385.57L710.419 373.59C709.739 373.59 708.839 373.57 707.739 373.55C705.379 373.51 702.129 373.46 698.279 373.4C690.599 373.27 680.549 373.11 670.579 372.94C656.529 372.7 642.629 372.47 635.629 372.35L714.179 494.75L686.979 540H754.509L757.969 533.53L697.689 420.66Z" fill="#F0F1F2"/>
<path d="M741.189 491.51L760.799 528.22L761.029 527.78L777.929 496.15L719.869 390.75L712.569 404.01L703.379 420.69L741.189 491.51Z" fill="#F0F1F2"/>
<path d="M269.328 540H349.208L313.968 426.98L269.328 540Z" fill="#F0F1F2"/>
<path d="M9.24 509.57H0V540H9.24V509.57Z" fill="#F0F1F2"/>
<path d="M41.7617 418.26V430.6V437.86V460.16V478.67V483.19V513.58V540H74.5217V418.26H41.7617Z" fill="#F0F1F2"/>
<path d="M303.42 393.15L260.27 393.25L233.91 454.07L260.71 540H263.91L311.4 418.76L303.42 393.15Z" fill="#F0F1F2"/>
<path d="M41.7617 330.44V378V413.26H77.0217H79.5217V540H145.242V330.44H41.7617Z" fill="#F0F1F2"/>
<path d="M196.68 540H255.4L230.85 461.06L196.68 540Z" fill="#F0F1F2"/>
<path d="M214.922 393.14L231.622 446.7L254.802 393.14H214.922Z" fill="#F0F1F2"/>
<path d="M285.99 333.68L262.41 388.14H305.2H307.09L314.52 411.97L345.45 333.68H285.99Z" fill="#F0F1F2"/>
<path d="M36.76 483.19V478.67V460.16V437.86V430.6V418.26H0V504.42H14.24V504.57V540H36.76V513.58V483.19Z" fill="#F0F1F2"/>
<path d="M894.472 248.26C894.332 247.89 894.182 247.53 894.032 247.18C893.672 246.31 893.302 245.44 892.912 244.61C892.772 244.31 892.632 244.03 892.492 243.74C892.152 243.05 891.812 242.36 891.452 241.7C891.312 241.44 891.182 241.18 891.042 240.93C890.602 240.13 890.132 239.36 889.662 238.6C889.492 238.33 889.322 238.05 889.142 237.78C888.662 237.04 888.172 236.32 887.662 235.62C887.492 235.39 887.322 235.16 887.152 234.94C886.662 234.3 886.172 233.67 885.662 233.06C885.522 232.89 885.382 232.72 885.242 232.56C884.702 231.94 884.152 231.34 883.592 230.75C883.412 230.56 883.222 230.36 883.042 230.18C882.452 229.59 881.842 229.01 881.222 228.46C881.012 228.28 880.812 228.1 880.602 227.92C879.962 227.37 879.312 226.83 878.642 226.32C878.492 226.2 878.332 226.1 878.182 225.98C877.582 225.54 876.972 225.11 876.352 224.7C876.162 224.58 875.982 224.45 875.792 224.33C875.072 223.87 874.342 223.44 873.602 223.03C873.402 222.92 873.202 222.81 873.002 222.7C872.232 222.29 871.442 221.89 870.642 221.53C870.502 221.47 870.362 221.41 870.222 221.35C869.422 221 868.602 220.66 867.782 220.35C867.692 220.32 867.592 220.28 867.502 220.24C866.882 220.01 866.252 219.8 865.622 219.6C865.482 219.56 865.332 219.52 865.192 219.48C864.682 219.33 864.182 219.18 863.662 219.04C863.422 218.98 863.182 218.92 862.942 218.86C862.522 218.75 862.092 218.65 861.662 218.56C861.382 218.5 861.102 218.44 860.822 218.39C860.422 218.31 860.022 218.23 859.622 218.16C859.322 218.11 859.012 218.06 858.712 218.01C858.322 217.95 857.932 217.89 857.542 217.84C857.222 217.8 856.902 217.76 856.582 217.72C856.192 217.67 855.792 217.64 855.392 217.6C855.072 217.57 854.752 217.54 854.422 217.51C853.992 217.48 853.552 217.45 853.122 217.43C852.822 217.41 852.532 217.39 852.232 217.38C851.502 217.35 850.762 217.34 850.022 217.34C848.972 217.34 847.952 217.37 846.942 217.42C846.612 217.44 846.292 217.46 845.972 217.48C845.302 217.52 844.642 217.57 843.982 217.63C843.582 217.67 843.202 217.71 842.812 217.76C842.242 217.83 841.672 217.9 841.112 217.99C841.082 217.99 841.052 217.99 841.022 218C839.762 225.49 838.932 233.6 838.582 242.41C838.582 242.49 838.582 242.57 838.582 242.64C838.532 243.99 838.492 245.36 838.462 246.75C838.462 247.07 838.452 247.4 838.442 247.73C838.432 248.4 838.432 249.09 838.422 249.77H895.042C894.862 249.27 894.682 248.75 894.482 248.26H894.472Z" fill="#F0F1F2"/>
<path d="M150.599 0H95.6394L82.8594 91.77L150.599 0Z" fill="#F0F1F2"/>
<path d="M887.14 152.04C874.7 157.17 864.64 164.96 856.88 175.91C851.71 183.22 847.58 191.95 844.54 202.27C843.55 205.61 842.68 209.13 841.93 212.81C842.51 212.74 843.09 212.67 843.68 212.62C843.95 212.59 844.23 212.57 844.5 212.55C845.15 212.5 845.81 212.46 846.47 212.42C846.73 212.41 847 212.39 847.26 212.38C848.17 212.35 849.08 212.32 850.01 212.32C850.71 212.32 851.41 212.33 852.11 212.36C852.36 212.36 852.61 212.38 852.87 212.39C853.31 212.41 853.76 212.43 854.2 212.46C854.48 212.48 854.77 212.5 855.05 212.52C855.46 212.55 855.87 212.59 856.27 212.63C856.55 212.66 856.83 212.69 857.11 212.72C857.53 212.77 857.94 212.82 858.36 212.88C858.62 212.92 858.87 212.95 859.13 212.99C859.61 213.06 860.09 213.14 860.56 213.23C860.74 213.26 860.92 213.29 861.1 213.32C861.77 213.44 862.43 213.58 863.08 213.73C863.12 213.73 863.15 213.75 863.19 213.76C863.8 213.9 864.41 214.05 865.02 214.21C865.18 214.25 865.34 214.3 865.5 214.35C865.98 214.48 866.46 214.62 866.94 214.77C867.12 214.83 867.3 214.88 867.48 214.94C867.94 215.09 868.4 215.24 868.85 215.4C869.02 215.46 869.19 215.52 869.36 215.58C869.84 215.76 870.32 215.94 870.8 216.13C870.93 216.18 871.06 216.23 871.18 216.28C873.01 217.04 874.79 217.9 876.5 218.87C876.62 218.94 876.74 219.01 876.86 219.08C877.15 219.25 877.44 219.41 877.73 219.59C877.81 219.64 877.89 219.7 877.98 219.75C878.8 220.25 879.6 220.78 880.38 221.34C880.59 221.49 880.8 221.65 881.01 221.8C881.25 221.98 881.49 222.14 881.73 222.32C882.25 222.71 882.76 223.12 883.26 223.54C883.4 223.66 883.54 223.78 883.68 223.9C884.36 224.48 885.02 225.07 885.66 225.69C885.85 225.87 886.04 226.04 886.22 226.22C886.9 226.89 887.56 227.58 888.2 228.29C888.4 228.51 888.6 228.74 888.8 228.97C889.43 229.69 890.05 230.43 890.65 231.2C890.82 231.42 890.98 231.65 891.15 231.87C891.64 232.52 892.12 233.19 892.59 233.87C892.76 234.12 892.94 234.36 893.1 234.62C893.63 235.42 894.13 236.24 894.63 237.08C894.82 237.4 895.01 237.73 895.2 238.06C895.68 238.91 896.15 239.77 896.59 240.66C896.65 240.77 896.71 240.88 896.77 240.99C896.95 241.36 897.12 241.74 897.3 242.11C897.4 242.32 897.5 242.53 897.6 242.75C897.83 243.26 898.06 243.77 898.28 244.29C898.38 244.53 898.49 244.78 898.59 245.02C898.81 245.54 899.02 246.06 899.22 246.59C899.32 246.84 899.41 247.09 899.5 247.34C899.71 247.89 899.91 248.43 900.1 248.99C900.17 249.2 900.25 249.42 900.32 249.64C900.33 249.68 900.34 249.71 900.36 249.75H960.02V147.15C951.42 145.36 941.95 144.49 931.6 144.49C914.45 144.49 899.61 146.91 887.17 152.03L887.14 152.04Z" fill="#F0F1F2"/>
<path d="M295.918 33.48L411.878 0H334.798L283.148 14.91L295.918 33.48Z" fill="#F0F1F2"/>
<path d="M524.271 394.68C531.631 397.96 538.321 402.25 543.901 407.66C550.021 413.54 554.87 420.84 558.18 429.31C561.49 437.79 563.26 447.44 563.26 458.07C563.26 458.1 563.26 458.13 563.26 458.16C563.26 458.19 563.26 458.22 563.26 458.25C563.26 468.88 561.54 478.28 558.32 486.48C555.1 494.68 550.37 501.66 544.43 507.42C538.72 512.98 531.89 517.35 524.26 520.69C522.87 521.3 521.43 521.87 519.98 522.41C527.34 523.96 535.2 524.71 543.35 524.71C553.63 524.71 562.57 523.55 571.22 521.11C580.5 518.53 588.85 514.48 595.8 508.85C602.75 503.22 608.33 496.03 612.11 487.02C615.48 478.9 617.48 469.36 617.48 458.09C617.48 446.81 615.48 436.95 612.05 428.72C608.27 419.68 602.69 412.49 595.75 406.87C588.81 401.25 580.48 397.22 571.22 394.64C562.58 392.21 553.13 391.04 543.35 391.04C535.41 391.04 527.83 391.74 520.69 393.18C521.9 393.66 523.101 394.15 524.281 394.68H524.271Z" fill="#F0F1F2"/>
<path d="M489.598 508.78C495.658 513.67 502.808 517.38 510.778 519.98C514.798 518.87 518.638 517.53 522.248 515.94C529.418 512.79 535.718 508.74 540.938 503.66C546.388 498.37 550.688 492.02 553.658 484.48C556.618 476.95 558.238 468.22 558.248 458.17C558.248 448.12 556.568 439.13 553.518 431.31C550.458 423.47 546.018 416.81 540.428 411.44C535.328 406.49 529.148 402.5 522.238 399.42C518.968 397.95 515.508 396.68 511.888 395.61C503.218 398.32 495.478 402.3 489.018 407.68C482.388 413.21 477.078 420.2 473.448 428.9C470.028 437.11 468.088 446.75 468.078 458.19C468.088 469.63 470.028 478.93 473.388 487.04C477.138 496.01 482.668 503.17 489.608 508.78H489.598Z" fill="#F0F1F2"/>
<path d="M550.019 227.92C535.519 256.25 522.969 294.14 516.879 339.08L685.639 338.33C691.789 302.73 702.779 263.82 718.819 227.18L550.019 227.93V227.92Z" fill="#F0F1F2"/>
<path d="M434.88 399.59C428.14 402.67 422.14 406.54 417.17 411.28C411.47 416.68 406.91 423.21 403.75 430.97C400.6 438.73 398.84 447.74 398.84 458.09C398.84 468.45 400.53 477.2 403.58 484.66C406.63 492.13 411.04 498.34 416.59 503.65C421.76 508.54 427.88 512.46 434.85 515.54H434.86C447.45 521.17 462.61 523.89 479.13 523.89H481.63V523.93C488.66 523.81 495.39 523.18 501.74 522.04C495.73 519.39 490.19 516.04 485.32 511.91C478.29 505.95 472.61 498.38 468.77 489.15C465.13 480.38 463.07 470.33 463.07 458.29C463.07 458.26 463.07 458.23 463.07 458.2C463.07 458.17 463.07 458.14 463.07 458.11C463.07 446.07 465.12 435.72 468.83 426.81C472.89 417.08 478.97 409.2 486.52 403.1C491.49 399.08 497.1 395.84 503.18 393.3C495.67 391.8 487.6 391.05 479.13 391.05C462.95 391.05 447.38 393.85 434.89 399.59H434.88Z" fill="#F0F1F2"/>
<path d="M337.88 94.4799L403.51 7.62988L298.91 37.8299L337.88 94.4799Z" fill="#F0F1F2"/>
<path d="M826.66 222.85C820 226.68 814.28 232.68 809.39 241.63C806.54 246.86 803.99 253.09 801.75 260.43H898.05C897.64 258.48 897.18 256.58 896.66 254.76H833.38V252.26C833.38 250.67 833.4 249.1 833.42 247.54C833.42 247.15 833.44 246.77 833.45 246.38C833.48 245.14 833.51 243.91 833.56 242.7C833.57 242.41 833.58 242.11 833.59 241.82C833.92 233.73 834.63 226.17 835.72 219.12C832.5 220.01 829.48 221.23 826.65 222.85H826.66Z" fill="#F0F1F2"/>
<path d="M667.348 0H610.398L635.618 80.37L667.348 0Z" fill="#F0F1F2"/>
<path d="M630.27 93.9L632.58 88.05L605.13 0H602.96L562.32 93.9H630.27Z" fill="#F0F1F2"/>
<path d="M353.641 117.39L442.351 0H415.561L340.871 98.83L353.641 117.39Z" fill="#F0F1F2"/>
<path d="M807.969 37.54C810.439 43.58 813.999 48.6 818.499 52.89C822.689 56.85 827.639 60.02 833.289 62.52C843.499 67.09 855.829 69.31 869.289 69.31H871.789C883.979 69.06 895.079 66.92 904.349 62.86C910.159 60.31 915.269 57.02 919.489 52.92C923.889 48.64 927.369 43.51 929.779 37.4C932.179 31.29 933.499 24.19 933.499 16C933.499 10.22 932.809 4.88 931.539 0H903.609C903.719 0.25 903.839 0.49 903.949 0.75C905.719 5.01 906.729 10.02 906.729 15.62C906.729 21.22 905.719 26.1 903.979 30.29C902.019 34.98 899.059 38.8 895.429 41.73C891.799 44.67 887.509 46.73 882.849 48.03C878.529 49.24 874.069 49.82 869.069 49.81C864.089 49.81 859.269 49.25 854.789 48C850.079 46.69 845.769 44.63 842.139 41.7C838.509 38.77 835.559 34.96 833.619 30.3C831.879 26.1 830.909 21.3 830.919 15.63C830.919 9.96 831.879 5.02 833.649 0.76C833.759 0.5 833.879 0.26 833.989 0.01H806.119C804.829 4.83 804.129 10.14 804.129 16.01C804.129 24.43 805.499 31.51 807.969 37.55V37.54Z" fill="#F0F1F2"/>
<path d="M835.922 15.62C835.922 20.73 836.772 24.81 838.242 28.37C839.882 32.28 842.272 35.37 845.292 37.81C848.312 40.25 851.982 42.03 856.142 43.19C860.102 44.29 864.472 44.82 869.082 44.82C873.702 44.82 877.652 44.3 881.512 43.22C885.612 42.08 889.262 40.3 892.282 37.85C895.302 35.4 897.712 32.3 899.362 28.37C900.832 24.81 901.722 20.63 901.722 15.62C901.722 10.61 900.822 6.27 899.332 2.67C898.942 1.73 898.502 0.85 898.032 0H839.582C839.102 0.85 838.662 1.73 838.272 2.67C836.782 6.26 835.922 10.51 835.922 15.62Z" fill="#F0F1F2"/>
<path d="M774.22 55.25C779.34 67.51 786.91 77.31 796.4 84.98C805.89 92.64 817.32 98.17 830.12 101.73C842.28 105.12 855.63 106.71 869.59 106.71C883.55 106.71 895.72 105.13 907.49 101.82C920.13 98.3 931.52 92.78 941.02 85.09C948.65 78.91 955.08 71.34 959.98 62.23V0H936.67C937.85 4.97 938.47 10.31 938.47 16C938.47 24.73 937.06 32.47 934.4 39.23C931.75 45.99 927.84 51.75 922.94 56.5C918.23 61.08 912.59 64.68 906.32 67.44C895.62 72.13 882.98 74.36 869.25 74.37H866.75V74.29C853.7 74.03 841.58 71.73 831.21 67.1C825.11 64.41 819.65 60.93 815 56.53C810.04 51.79 806.03 46.15 803.29 39.43C800.55 32.72 799.08 24.96 799.08 16C799.08 10.25 799.71 4.92 800.91 0H767.92C767.27 4.98 766.93 10.24 766.93 15.81C766.93 31.42 769.57 44.16 774.18 55.25H774.22Z" fill="#F0F1F2"/>
<path d="M667.019 181.69H755.519L698.859 0H672.739L637.879 88.25L667.019 181.69Z" fill="#F0F1F2"/>
<path d="M173.388 151.19H147.328V228.89H173.388V151.19Z" fill="#F0F1F2"/>
<path d="M960 421.08H885.25V540H960V421.08Z" fill="#F0F1F2"/>
<path d="M227.208 188.6L147.328 104.88V146.19H178.378V231.4V233.9H147.328V275.06L227.208 188.6Z" fill="#F0F1F2"/>
<path d="M838.941 416.08H880.251V385.03H960.001V370.7L922.661 336.2L838.941 416.08Z" fill="#F0F1F2"/>
<path d="M960 390.03H885.25V416.09H960V390.03Z" fill="#F0F1F2"/>
<path d="M760.18 540H761.42L760.8 538.83L760.18 540Z" fill="#F0F1F2"/>
<path d="M36.76 413.26V325.44H150.24V540H191.23L228.57 453.74L208.12 388.15H256.96L282.7 328.69H352.8L316.9 419.58L354.45 540.01H681.15L708.3 494.85L626.39 367.2L631.06 367.28C631.06 367.28 632.14 367.3 634.05 367.33C635.96 367.36 638.7 367.41 642.03 367.47C648.68 367.58 657.65 367.73 666.95 367.89C685.55 368.2 705.45 368.53 710.66 368.61C711.35 368.61 711.79 368.62 711.89 368.62L713.38 368.59L719.88 380.4L767.22 294.46L767.93 293.17H769.39H769.43H769.58C769.71 293.17 769.89 293.17 770.13 293.17C770.61 293.17 771.3 293.15 772.18 293.14C773.94 293.11 776.44 293.07 779.48 293.02C785.56 292.92 793.78 292.78 802.47 292.64C819.85 292.35 839.1 292.03 846.8 291.9C849 291.86 850.25 291.84 850.26 291.84L854.93 291.76L773.02 419.41L845.52 540.03H880.27V421.11H826.47L922.62 329.37L960.01 363.92V254.8H901.86C902.52 257.28 903.1 259.85 903.58 262.54L904.1 265.48H795.13L796.02 262.3C799.82 248.78 804.62 238.39 810.61 230.62C816.59 222.85 823.81 217.76 832.1 215.02C833.59 214.53 835.11 214.11 836.66 213.76C837.9 207.27 839.49 201.23 841.43 195.64C846.77 180.25 854.81 168.21 865.38 159.35C872.42 153.44 880.57 148.95 889.73 145.75C901.94 141.49 915.92 139.54 931.57 139.54C941.8 139.54 951.28 140.36 959.99 142.09V71.88C955.51 78.45 950.18 84.16 944.17 89.02C934.05 97.2 922.03 103 908.84 106.67C896.6 110.12 883.92 111.75 869.59 111.75C855.26 111.75 841.47 110.12 828.78 106.59C815.43 102.88 803.36 97.08 793.26 88.91C783.15 80.75 775.03 70.23 769.6 57.21C764.73 45.48 761.97 32.02 761.97 15.84C761.97 10.3 762.3 5.04 762.92 0.03H704.1L761.3 183.47L762.31 186.71H663.34L634.95 95.68L633.67 98.92H554.7L597.51 0H448.61L355.23 123.57L352.51 124.58L337.69 103.04L286.39 170.92L283.67 171.93L207.46 61.13L208.2 59.78L208.32 59.56L208.82 58.64L290.87 34.95L276.3 13.77L277.04 12.42L277.16 12.2L277.66 11.28L316.77 0H156.81L75.18 110.58L90.59 0H0V413.26H36.76ZM616.74 488.95C612.65 498.72 606.53 506.63 598.96 512.74C591.4 518.86 582.41 523.19 572.58 525.92L572.65 525.9L572.59 525.92C563.46 528.49 554.02 529.7 543.37 529.7C532.72 529.7 522.46 528.49 513 525.86C512.34 525.68 511.69 525.47 511.04 525.27L510.69 525.36L510.37 525.26C500.76 527.73 490.25 528.94 479.15 528.94H476.65V528.84C460.54 528.58 445.59 525.77 432.85 520.09H432.84C425.41 516.82 418.79 512.59 413.16 507.26C407.14 501.51 402.28 494.67 398.97 486.53C395.65 478.39 393.86 468.97 393.86 458.07C393.86 447.15 395.71 437.48 399.13 429.07C402.55 420.66 407.54 413.51 413.74 407.65C419.19 402.45 425.67 398.31 432.82 395.04C446.18 388.91 462.4 386.05 479.15 386.04C490.84 386.04 501.87 387.41 511.89 390.22C512.26 390.11 512.63 389.99 513.01 389.88C522.46 387.24 532.67 386.04 543.38 386.04C553.56 386.04 563.45 387.25 572.6 389.82C582.4 392.55 591.37 396.87 598.93 402.98C606.49 409.09 612.61 417 616.7 426.79C620.41 435.69 622.52 446.22 622.52 458.09C622.52 469.96 620.41 480.18 616.76 488.95H616.74ZM726.52 222.14L724.93 225.68C707.92 263.6 696.4 304.33 690.2 341.23L689.85 343.31L512.91 344.1L511.4 342.37L511.54 341.25C517.65 293.82 530.87 253.93 546.26 224.29L546.59 223.66L547.2 223.3H547.22L547.81 222.93L726.52 222.14ZM521.88 13.1L527.73 5.18L510.71 127.37H583.42L445.11 314.74L462.13 192.55H389.42L521.88 13.1ZM310.22 228.49C325.01 228.49 339.53 231.08 353.33 236.18C366.67 241.11 379.06 248.27 390.16 257.46C412.35 275.83 428.14 301.56 434.68 329.96L436.47 337.74H378.17L376.62 333.63C371.43 319.9 362.51 308.21 350.79 299.78C338.83 291.18 324.83 286.65 310.23 286.64C295.63 286.64 281.63 291.17 269.67 299.78C257.96 308.21 249.03 319.9 243.84 333.63L242.29 337.74H183.99L185.78 329.96C192.31 301.56 208.11 275.82 230.3 257.46C241.39 248.28 253.79 241.11 267.13 236.18C280.94 231.08 295.45 228.49 310.25 228.49H310.22ZM13.05 146.19H142.32V92.39L234.06 188.54L142.32 287.84V233.89H13.05V146.19Z" fill="#F0F1F2"/>
<path d="M845.67 296.89C830.06 297.15 780.071 297.98 770.891 298.13L722.73 385.57L783.62 496.12L763.641 533.54L767.1 540.01H839.68L767.13 419.3L845.68 296.89H845.67Z" fill="#F0F1F2"/>
<path d="M284.799 164.74L334.709 98.69L293.849 39.29L214.309 62.26L284.799 164.74Z" fill="#F0F1F2"/>
<path d="M475.551 132.37L467.871 187.54H497.281L504.961 132.37H475.551Z" fill="#F0F1F2"/>
<path d="M573.51 132.37H524.7H510.01L501.63 192.54H467.17L452.77 295.93L573.51 132.37Z" fill="#F0F1F2"/>
<path d="M190.642 331.09L190.262 332.75H238.822L239.152 331.87C244.672 317.24 254.222 304.73 266.742 295.73C279.522 286.53 294.582 281.65 310.222 281.65C325.862 281.65 340.922 286.53 353.702 295.73C366.222 304.74 375.762 317.25 381.292 331.87L381.622 332.75H430.182L429.802 331.09C423.522 303.76 408.292 278.96 386.972 261.32C376.302 252.49 364.402 245.62 351.602 240.88C338.342 235.98 324.432 233.5 310.222 233.5C296.012 233.5 282.092 235.98 268.842 240.88C256.032 245.61 244.142 252.49 233.472 261.32C212.152 278.96 196.922 303.76 190.642 331.09Z" fill="#F0F1F2"/>
<path d="M471.2 127.37H505.66L520.06 23.9902L399.32 187.54H462.82L471.2 127.37Z" fill="#F0F1F2"/>
<path d="M142.321 151.19H18.0508V228.89H142.321V151.19Z" fill="#F0F1F2"/>
<path d="M462.82 187.54H399.32L520.06 23.9902L505.66 127.37H507.83H510.71L527.72 5.18018L521.88 13.1002L389.41 192.54H462.12L462.82 187.54Z" fill="#DDDEE1"/>
<path d="M637.879 88.25L672.739 0H672.729L637.879 88.25Z" fill="#DDDEE1"/>
<path d="M558.509 98.9H633.669L634.949 95.65L632.579 88.05L630.269 93.9H562.319L602.959 0H597.509L554.699 98.9H558.509Z" fill="#DDDEE1"/>
<path d="M285.991 333.68H345.451L314.521 411.97L316.441 418.11L316.701 418.95L316.901 419.57L352.801 328.68H282.701L256.961 388.14H262.411L285.991 333.68Z" fill="#DDDEE1"/>
<path d="M228.858 454.66L228.568 453.74L191.238 540H196.678L230.848 461.06L228.858 454.66Z" fill="#DDDEE1"/>
<path d="M231.621 446.7L231.631 446.75L254.861 393.14H254.801L231.621 446.7Z" fill="#DDDEE1"/>
<path d="M313.781 426.4L269.281 540H269.331L313.971 426.98L313.781 426.4Z" fill="#DDDEE1"/>
<path d="M547.218 223.28H547.198L546.588 223.66L546.258 224.29C530.878 253.93 517.648 293.82 511.538 341.25L511.398 342.37L512.908 344.1L689.848 343.31L690.198 341.23C696.388 304.33 707.908 263.6 724.928 225.68L726.518 222.14L547.808 222.93L547.218 223.28ZM685.638 338.32L516.878 339.07C522.978 294.14 535.528 256.24 550.018 227.91L718.818 227.16C702.778 263.8 691.778 302.71 685.638 338.31V338.32Z" fill="#DDDEE1"/>
<path d="M298.91 37.8301L403.51 7.63012L403.52 7.62012L298.91 37.8201V37.8301Z" fill="#DDDEE1"/>
<path d="M337.691 103.03L334.711 98.6902L284.801 164.74L214.311 62.2602L293.851 39.2902L292.821 37.8002L292.321 37.0702L290.861 34.9502L208.821 58.6402L208.321 59.5602L208.201 59.7702L207.461 61.1202L283.671 171.93L286.401 170.92L337.691 103.04V103.03Z" fill="#DDDEE1"/>
<path d="M340.869 98.83L415.559 0H415.539L340.859 98.82L340.869 98.83Z" fill="#DDDEE1"/>
<path d="M185.759 329.97L183.969 337.75H242.269L243.819 333.64C249.009 319.91 257.929 308.22 269.649 299.79C281.609 291.19 295.609 286.66 310.209 286.65C324.809 286.65 338.819 291.18 350.769 299.79C362.489 308.22 371.409 319.91 376.599 333.64L378.149 337.75H436.449L434.659 329.97C428.129 301.57 412.329 275.83 390.139 257.47C379.049 248.29 366.649 241.12 353.309 236.19C339.499 231.09 324.989 228.5 310.199 228.5C295.409 228.5 280.889 231.09 267.079 236.19C253.739 241.12 241.349 248.28 230.249 257.47C208.059 275.84 192.269 301.57 185.729 329.97H185.759ZM268.839 240.88C282.099 235.98 296.009 233.5 310.219 233.5C324.429 233.5 338.349 235.98 351.599 240.88C364.409 245.61 376.299 252.49 386.969 261.32C408.289 278.96 423.519 303.76 429.799 331.09L430.179 332.75H381.619L381.289 331.87C375.769 317.24 366.219 304.73 353.699 295.73C340.909 286.53 325.859 281.65 310.219 281.65C294.579 281.65 279.519 286.53 266.739 295.73C254.219 304.74 244.679 317.25 239.149 331.87L238.819 332.75H190.259L190.639 331.09C196.919 303.76 212.149 278.96 233.469 261.32C244.139 252.49 256.039 245.62 268.839 240.88Z" fill="#DDDEE1"/>
<path d="M142.331 228.9H18.0508V151.19H142.331V146.19H13.0508V233.9H142.331V228.9Z" fill="#DDDEE1"/>
<path d="M36.7617 325.44V378V413.26H41.7617V378V330.44H145.242V540H150.242V325.44H36.7617Z" fill="#DDDEE1"/>
<path d="M9.24 509.42H0V509.56H9.24V509.42Z" fill="#DDDEE1"/>
<path d="M36.76 413.26H0V418.26H36.76V413.26Z" fill="#DDDEE1"/>
<path d="M833.652 0.75C831.882 5.01 830.912 9.95 830.922 15.62C830.922 21.29 831.892 26.1 833.622 30.29C835.572 34.96 838.512 38.77 842.142 41.7C845.772 44.63 850.082 46.69 854.792 48C859.272 49.25 864.082 49.81 869.072 49.81C874.072 49.81 878.532 49.24 882.852 48.03C887.502 46.73 891.792 44.67 895.432 41.73C899.062 38.79 902.022 34.97 903.982 30.3C905.722 26.1 906.732 21.23 906.732 15.62C906.732 10.02 905.722 5.01 903.952 0.75C903.842 0.49 903.722 0.25 903.612 0H898.032C898.512 0.84 898.942 1.73 899.332 2.67C900.832 6.27 901.722 10.61 901.722 15.62C901.722 20.62 900.832 24.81 899.362 28.37C897.712 32.29 895.302 35.4 892.282 37.85C889.262 40.3 885.612 42.08 881.512 43.22C877.652 44.3 873.712 44.82 869.082 44.82C864.472 44.82 860.102 44.3 856.142 43.19C851.982 42.03 848.312 40.25 845.292 37.81C842.272 35.37 839.882 32.28 838.242 28.37C836.772 24.82 835.922 20.73 835.922 15.62C835.922 10.51 836.782 6.27 838.272 2.67C838.662 1.73 839.102 0.85 839.582 0H834.002C833.892 0.25 833.772 0.49 833.662 0.74L833.652 0.75Z" fill="#DDDEE1"/>
<path d="M432.83 520.11L432.82 520.1L432.83 520.11Z" fill="#DDDEE1"/>
<path d="M413.711 407.66H413.721V407.65L413.711 407.66Z" fill="#DDDEE1"/>
<path d="M524.27 394.68L524.28 394.69L524.27 394.68Z" fill="#DDDEE1"/>
<path d="M540.941 503.66C535.721 508.74 529.421 512.8 522.251 515.94C518.641 517.52 514.801 518.86 510.781 519.98C510.871 520.01 510.971 520.04 511.061 520.07C514.981 518.97 518.721 517.66 522.251 516.12C529.421 512.97 535.721 508.92 540.941 503.84C546.391 498.55 550.691 492.2 553.661 484.66C556.631 477.11 558.251 468.35 558.251 458.26C558.251 458.23 558.251 458.2 558.251 458.17C558.241 468.22 556.621 476.95 553.661 484.48C550.691 492.03 546.381 498.38 540.941 503.66Z" fill="#DDDEE1"/>
<path d="M524.269 394.86C531.629 398.14 538.319 402.43 543.899 407.84C550.019 413.72 554.869 421.02 558.179 429.49C561.479 437.94 563.239 447.57 563.249 458.17C563.249 458.14 563.249 458.11 563.249 458.08C563.249 447.45 561.479 437.79 558.169 429.32C554.859 420.85 550.009 413.55 543.889 407.67C538.309 402.26 531.619 397.96 524.259 394.69C523.089 394.16 521.889 393.67 520.669 393.19C520.569 393.21 520.479 393.23 520.379 393.25C521.689 393.76 522.989 394.29 524.259 394.86H524.269Z" fill="#DDDEE1"/>
<path d="M501.738 522.03C495.388 523.17 488.648 523.8 481.628 523.92V523.88H479.128C462.608 523.88 447.448 521.16 434.858 515.53H434.848C427.868 512.45 421.758 508.53 416.588 503.64C411.028 498.33 406.628 492.12 403.578 484.65C400.528 477.18 398.838 468.44 398.838 458.08C398.838 447.73 400.588 438.72 403.748 430.96C406.908 423.2 411.468 416.68 417.168 411.28C422.138 406.53 428.138 402.67 434.878 399.58C447.378 393.83 462.938 391.03 479.118 391.04C487.588 391.04 495.648 391.79 503.168 393.29C505.968 392.12 508.868 391.1 511.858 390.22C501.838 387.41 490.808 386.04 479.118 386.04C462.368 386.04 446.158 388.91 432.788 395.04C425.638 398.31 419.158 402.46 413.708 407.65C407.508 413.51 402.518 420.66 399.098 429.07C395.678 437.49 393.818 447.16 393.828 458.07C393.828 468.97 395.608 478.39 398.938 486.53C402.258 494.67 407.108 501.51 413.128 507.25C418.758 512.58 425.378 516.81 432.808 520.09C445.558 525.78 460.508 528.58 476.608 528.84V528.94H479.108C490.218 528.94 500.718 527.73 510.328 525.26L509.958 525.14C507.118 524.24 504.378 523.19 501.718 522.02L501.738 522.03Z" fill="#DDDEE1"/>
<path d="M833.559 242.7C833.519 243.92 833.479 245.14 833.449 246.38C833.479 245.14 833.509 243.91 833.559 242.7Z" fill="#DDDEE1"/>
<path d="M833.602 241.82C833.932 233.72 834.662 226.16 835.762 219.11C835.762 219.11 835.742 219.11 835.732 219.11C834.632 226.16 833.922 233.72 833.602 241.81V241.82Z" fill="#DDDEE1"/>
<path d="M833.431 247.54C833.401 249.1 833.391 250.67 833.391 252.26C833.391 250.67 833.411 249.1 833.431 247.54Z" fill="#DDDEE1"/>
<path d="M838.43 247.72C838.43 247.39 838.44 247.07 838.45 246.74C838.45 247.06 838.44 247.39 838.43 247.72Z" fill="#DDDEE1"/>
<path d="M900.908 251.51C900.908 251.51 900.908 251.51 900.908 251.52L901.918 254.76H959.988V249.76H900.328C900.518 250.34 900.718 250.91 900.898 251.5L900.908 251.51Z" fill="#DDDEE1"/>
<path d="M889.73 145.71C880.58 148.9 872.43 153.39 865.38 159.31C854.81 168.18 846.77 180.21 841.43 195.6C839.49 201.19 837.9 207.23 836.66 213.72C836.66 213.72 836.67 213.72 836.68 213.72V213.68L838.38 213.36C838.38 213.36 838.39 213.36 838.4 213.36C839.27 213.19 840.16 213.05 841.05 212.93C841.24 212.9 841.43 212.88 841.62 212.86C841.73 212.85 841.84 212.83 841.95 212.82C842.7 209.14 843.57 205.62 844.56 202.28C847.6 191.96 851.74 183.23 856.9 175.92C864.66 164.97 874.71 157.18 887.16 152.05C899.6 146.93 914.45 144.51 931.59 144.51C941.95 144.51 951.42 145.38 960.01 147.17V142.06C951.29 140.33 941.81 139.51 931.59 139.51C915.94 139.51 901.95 141.47 889.75 145.72L889.73 145.71Z" fill="#DDDEE1"/>
<path d="M826.461 421.08H832.701H880.251V416.08H838.941L922.661 336.2L960.001 370.7V363.89L922.611 329.34L826.461 421.08Z" fill="#DDDEE1"/>
<path d="M763.63 533.53L783.62 496.11L722.73 385.56L783.62 496.11L763.63 533.53Z" fill="#DDDEE1"/>
<path d="M760.801 528.22L761.031 527.78L760.801 528.22Z" fill="#DDDEE1"/>
<path d="M760.802 538.83L757.972 533.53L754.512 540H760.182L760.802 538.83Z" fill="#DDDEE1"/>
<path d="M635.629 372.35C642.629 372.47 656.529 372.7 670.579 372.94C680.549 373.11 690.589 373.27 698.279 373.4C702.119 373.46 705.379 373.51 707.739 373.55C708.839 373.57 709.729 373.58 710.419 373.59L717.019 385.57L719.869 380.39L713.369 368.58L711.879 368.61C711.779 368.61 711.339 368.61 710.649 368.6C705.439 368.53 685.529 368.2 666.939 367.88C657.639 367.72 648.669 367.57 642.019 367.46C638.699 367.4 635.949 367.36 634.039 367.32C632.129 367.29 631.049 367.27 631.049 367.27L626.379 367.19L708.289 494.84L681.139 540H686.969L714.169 494.75L635.619 372.35H635.629Z" fill="#DDDEE1"/>
<path d="M634.949 95.65L663.339 186.69H762.309L761.299 183.44L704.099 0H698.859L755.519 181.69H667.019L637.879 88.25L635.079 95.35L605.159 0H605.129L632.579 88.05L634.949 95.65Z" fill="#DDDEE1"/>
<path d="M859.121 212.99C859.601 213.06 860.081 213.14 860.551 213.23C860.081 213.15 859.601 213.06 859.121 212.99Z" fill="#DDDEE1"/>
<path d="M855.039 212.53C855.449 212.56 855.859 212.6 856.259 212.64C855.849 212.6 855.449 212.56 855.039 212.53Z" fill="#DDDEE1"/>
<path d="M847.262 212.38C848.172 212.35 849.082 212.32 850.012 212.32C849.082 212.32 848.172 212.34 847.262 212.38Z" fill="#DDDEE1"/>
<path d="M850.012 212.32C850.712 212.32 851.412 212.33 852.112 212.36C851.412 212.34 850.722 212.32 850.012 212.32Z" fill="#DDDEE1"/>
<path d="M899.488 247.36C899.698 247.91 899.898 248.45 900.088 249.01C899.898 248.45 899.688 247.9 899.488 247.36Z" fill="#DDDEE1"/>
<path d="M843.682 212.62C843.092 212.67 842.512 212.74 841.932 212.81C841.822 212.82 841.712 212.84 841.602 212.85C842.292 212.76 842.982 212.68 843.682 212.62Z" fill="#DDDEE1"/>
<path d="M857.109 212.73C857.529 212.78 857.939 212.83 858.359 212.89C857.949 212.83 857.529 212.78 857.109 212.73Z" fill="#DDDEE1"/>
<path d="M844.5 212.55C845.15 212.5 845.81 212.46 846.47 212.42C845.81 212.45 845.15 212.49 844.5 212.55Z" fill="#DDDEE1"/>
<path d="M852.859 212.39C853.299 212.41 853.749 212.43 854.189 212.46C853.749 212.43 853.309 212.41 852.859 212.39Z" fill="#DDDEE1"/>
<path d="M898.57 245.04C898.79 245.56 899 246.08 899.2 246.61C898.99 246.08 898.78 245.56 898.57 245.04Z" fill="#DDDEE1"/>
<path d="M892.922 244.6C893.312 245.44 893.682 246.3 894.042 247.17C893.682 246.3 893.312 245.43 892.922 244.6Z" fill="#DDDEE1"/>
<path d="M895.039 249.76C894.849 249.25 894.669 248.75 894.469 248.25C894.659 248.74 894.839 249.25 895.029 249.76H895.039Z" fill="#DDDEE1"/>
<path d="M889.672 238.59C890.142 239.35 890.602 240.12 891.052 240.92C890.612 240.12 890.142 239.35 889.672 238.59Z" fill="#DDDEE1"/>
<path d="M892.57 233.89C892.74 234.14 892.92 234.38 893.08 234.64C892.91 234.39 892.74 234.14 892.57 233.89Z" fill="#DDDEE1"/>
<path d="M865.5 214.35C865.98 214.48 866.46 214.62 866.94 214.77C866.46 214.62 865.99 214.48 865.5 214.35Z" fill="#DDDEE1"/>
<path d="M891.461 241.69C891.821 242.36 892.161 243.04 892.501 243.73C892.161 243.04 891.821 242.35 891.461 241.69Z" fill="#DDDEE1"/>
<path d="M863.191 213.76C863.801 213.9 864.411 214.05 865.021 214.21C864.421 214.05 863.811 213.9 863.191 213.76Z" fill="#DDDEE1"/>
<path d="M877.71 219.6C877.42 219.43 877.13 219.26 876.84 219.09C877.22 219.31 877.59 219.53 877.95 219.76C877.87 219.71 877.79 219.65 877.7 219.6H877.71Z" fill="#DDDEE1"/>
<path d="M869.352 215.59C869.832 215.77 870.312 215.95 870.792 216.14C870.322 215.95 869.842 215.76 869.352 215.59Z" fill="#DDDEE1"/>
<path d="M871.172 216.29C873.002 217.05 874.782 217.91 876.492 218.88C874.782 217.91 873.012 217.04 871.172 216.29Z" fill="#DDDEE1"/>
<path d="M863.66 219.03C864.17 219.17 864.68 219.32 865.19 219.47C864.68 219.32 864.18 219.17 863.66 219.03Z" fill="#DDDEE1"/>
<path d="M881.23 228.44C881.85 228.99 882.45 229.57 883.05 230.16C882.46 229.57 881.85 228.99 881.23 228.44Z" fill="#DDDEE1"/>
<path d="M853.109 217.41C853.549 217.43 853.979 217.46 854.409 217.49C853.979 217.46 853.539 217.43 853.109 217.41Z" fill="#DDDEE1"/>
<path d="M861.66 218.54C862.09 218.63 862.51 218.74 862.94 218.84C862.52 218.73 862.09 218.63 861.66 218.54Z" fill="#DDDEE1"/>
<path d="M898.049 260.44H801.749C803.989 253.1 806.539 246.87 809.389 241.64C814.279 232.68 819.999 226.69 826.659 222.86C829.489 221.24 832.509 220.02 835.729 219.13C835.729 219.13 835.749 219.13 835.759 219.13C835.959 217.87 836.159 216.62 836.379 215.39L836.679 213.73C836.679 213.73 836.669 213.73 836.659 213.73C835.109 214.08 833.579 214.5 832.099 214.99C823.809 217.74 816.589 222.83 810.609 230.59C804.619 238.36 799.819 248.75 796.019 262.27L795.129 265.45H904.099L903.579 262.51C903.099 259.83 902.529 257.26 901.859 254.77H896.679C897.199 256.59 897.649 258.49 898.069 260.44H898.049Z" fill="#DDDEE1"/>
<path d="M841.102 217.97C841.662 217.89 842.222 217.81 842.802 217.74C842.232 217.81 841.662 217.88 841.102 217.97Z" fill="#DDDEE1"/>
<path d="M855.379 217.58C855.779 217.62 856.179 217.66 856.569 217.7C856.179 217.65 855.779 217.62 855.379 217.58Z" fill="#DDDEE1"/>
<path d="M850.01 217.32C848.97 217.32 847.94 217.35 846.93 217.4C847.94 217.35 848.96 217.32 850.01 217.32Z" fill="#DDDEE1"/>
<path d="M857.531 217.82C857.921 217.87 858.321 217.93 858.701 217.99C858.311 217.93 857.921 217.87 857.531 217.82Z" fill="#DDDEE1"/>
<path d="M873.609 223.01C874.349 223.42 875.079 223.85 875.799 224.31C875.079 223.85 874.349 223.43 873.609 223.01Z" fill="#DDDEE1"/>
<path d="M878.68 226.32C878.68 226.32 878.67 226.32 878.66 226.31C879.33 226.82 879.98 227.36 880.62 227.91C879.99 227.36 879.34 226.83 878.68 226.33V226.32Z" fill="#DDDEE1"/>
<path d="M885.672 233.04C886.182 233.65 886.672 234.28 887.162 234.92C886.682 234.28 886.182 233.65 885.672 233.04Z" fill="#DDDEE1"/>
<path d="M870.641 221.51C871.441 221.88 872.231 222.27 873.001 222.68C872.231 222.27 871.441 221.87 870.641 221.51Z" fill="#DDDEE1"/>
<path d="M850.012 217.32C850.762 217.32 851.492 217.34 852.222 217.36C851.492 217.33 850.752 217.32 850.012 217.32Z" fill="#DDDEE1"/>
<path d="M867.781 220.33C868.611 220.64 869.421 220.97 870.221 221.33C869.421 220.98 868.601 220.64 867.781 220.33Z" fill="#DDDEE1"/>
<path d="M865.609 219.59C866.249 219.79 866.869 220 867.489 220.23C866.869 220 866.239 219.79 865.609 219.59Z" fill="#DDDEE1"/>
<path d="M843.969 217.61C844.619 217.55 845.289 217.5 845.959 217.46C845.289 217.5 844.629 217.55 843.969 217.61Z" fill="#DDDEE1"/>
<path d="M896.75 241.01C896.69 240.9 896.63 240.79 896.57 240.68C896.81 241.16 897.04 241.64 897.28 242.13C897.1 241.76 896.93 241.38 896.75 241.01Z" fill="#DDDEE1"/>
<path d="M838.391 213.35C839.261 213.18 840.151 213.04 841.041 212.92C840.151 213.04 839.261 213.19 838.391 213.35Z" fill="#DDDEE1"/>
<path d="M900.911 251.51C900.731 250.92 900.531 250.34 900.341 249.77C900.331 249.73 900.321 249.7 900.301 249.66C900.511 250.27 900.711 250.89 900.911 251.51Z" fill="#DDDEE1"/>
<path d="M524.699 132.37H573.509L452.769 295.93L467.169 192.54H462.119L471.199 127.37L462.819 187.54L462.119 192.54L445.109 314.73L583.419 127.37H578.459H524.699H510.709L510.009 132.37H524.699Z" fill="#DDDEE1"/>
<path d="M233.91 454.07L260.64 540H260.71L233.91 454.07Z" fill="#DDDEE1"/>
<path d="M228.591 453.78L231.631 446.75L231.621 446.7L214.921 393.14H254.801H254.861L256.981 388.26L305.201 388.14H262.411H256.961H208.121L228.571 453.74L228.861 454.66L228.591 453.78Z" fill="#DDDEE1"/>
<path d="M316.701 418.95L313.781 426.4L313.971 426.98L349.211 540H354.451L316.901 419.57L316.701 418.95Z" fill="#DDDEE1"/>
<path d="M277.151 12.21L277.031 12.43L276.301 13.78L290.861 34.95L292.321 37.07L290.861 34.94L295.921 33.48L283.151 14.91L334.801 0H316.771L277.651 11.3L277.151 12.21Z" fill="#DDDEE1"/>
<path d="M340.871 98.83L340.861 98.82L337.691 103.03V103.04L352.511 124.58L355.241 123.57L448.611 0H442.351L353.641 117.39L340.871 98.83Z" fill="#DDDEE1"/>
<path d="M298.91 37.8198L337.88 94.4798L298.91 37.8298V37.8198Z" fill="#DDDEE1"/>
<path d="M147.328 104.88L227.208 188.6L147.328 275.06V233.9H144.828H142.328V287.84L234.068 188.55L142.328 92.3901V98.6401V146.19H147.328V104.88Z" fill="#DDDEE1"/>
<path d="M156.821 0H150.601L82.8614 91.77L95.6414 0H90.5914L75.1914 110.58L156.821 0Z" fill="#DDDEE1"/>
<path d="M769.6 57.17C775.03 70.19 783.15 80.71 793.26 88.87C803.37 97.03 815.441 102.83 828.781 106.55C841.471 110.09 855.251 111.71 869.591 111.71C883.921 111.71 896.601 110.08 908.841 106.63C922.031 102.96 934.06 97.16 944.17 88.98C950.18 84.12 955.51 78.41 959.99 71.84V62.24C955.08 71.35 948.661 78.92 941.031 85.1C931.531 92.79 920.14 98.31 907.5 101.83C895.73 105.15 883.56 106.72 869.6 106.73C855.64 106.73 842.3 105.14 830.13 101.75C817.33 98.19 805.9 92.67 796.41 85C786.92 77.33 779.35 67.53 774.23 55.27C769.63 44.18 766.98 31.44 766.98 15.83C766.98 10.25 767.32 5.00002 767.97 0.0200195H762.93C762.31 5.03002 761.98 10.29 761.98 15.83C761.98 32 764.74 45.46 769.61 57.19L769.6 57.17Z" fill="#DDDEE1"/>
<path d="M572.648 525.91L572.578 525.93L572.648 525.91Z" fill="#DDDEE1"/>
<path d="M488.55 508.08C494.83 513.41 502.35 517.39 510.79 520.14C510.88 520.11 510.97 520.09 511.06 520.06C510.97 520.03 510.87 520 510.78 519.97C502.81 517.37 495.66 513.66 489.6 508.77C482.66 503.16 477.13 496 473.38 487.03C470.02 478.92 468.08 469.62 468.07 458.18C468.07 458.21 468.07 458.24 468.07 458.27C468.07 469.75 470.01 479.08 473.38 487.21C476.94 495.73 482.1 502.61 488.55 508.09V508.08Z" fill="#DDDEE1"/>
<path d="M598.899 402.99C591.339 396.88 582.369 392.56 572.569 389.83C563.419 387.26 553.519 386.05 543.349 386.05C532.639 386.05 522.429 387.26 512.979 389.89C512.599 389.99 512.239 390.12 511.859 390.23C508.869 391.11 505.969 392.12 503.169 393.3C497.089 395.84 491.479 399.08 486.509 403.1C478.959 409.2 472.879 417.08 468.819 426.81C465.109 435.71 463.059 446.07 463.059 458.11C463.059 458.14 463.059 458.17 463.059 458.2C463.059 446.2 465.119 435.87 468.819 426.99C472.749 417.57 478.579 409.87 485.809 403.86C493.039 397.84 501.639 393.49 511.139 390.62L511.849 390.41L512.559 390.61C515.249 391.39 517.869 392.28 520.409 393.27C520.509 393.25 520.599 393.23 520.699 393.21C527.839 391.76 535.429 391.07 543.359 391.07C553.139 391.07 562.599 392.24 571.229 394.67C580.479 397.25 588.809 401.29 595.759 406.9C602.699 412.52 608.279 419.71 612.059 428.75C615.489 436.98 617.489 446.85 617.489 458.12C617.489 469.39 615.489 478.93 612.119 487.05C608.339 496.05 602.759 503.25 595.809 508.88C588.859 514.5 580.509 518.55 571.229 521.14C562.569 523.58 553.629 524.74 543.359 524.74C535.209 524.74 527.349 523.99 519.989 522.44C517.209 523.48 514.349 524.41 511.389 525.21L511.029 525.31C511.679 525.51 512.329 525.72 512.989 525.9C522.449 528.54 532.709 529.74 543.359 529.74C554.009 529.74 563.459 528.53 572.579 525.96C582.409 523.23 591.399 518.89 598.959 512.78C606.519 506.67 612.649 498.75 616.739 489C620.379 480.23 622.499 470 622.499 458.14C622.499 446.27 620.389 435.75 616.679 426.84C612.589 417.05 606.469 409.13 598.909 403.03L598.899 402.99Z" fill="#DDDEE1"/>
<path d="M885.25 421.08H880.25V540H885.25V421.08Z" fill="#DDDEE1"/>
<path d="M741.191 491.51L760.801 528.22L741.191 491.51Z" fill="#DDDEE1"/>
<path d="M712.569 404.01L703.379 420.69L712.569 404.01Z" fill="#DDDEE1"/>
<path d="M854.92 291.74L850.25 291.82C850.25 291.82 848.99 291.84 846.79 291.88C839.09 292.01 819.84 292.33 802.46 292.62C793.77 292.76 785.55 292.9 779.47 293C776.43 293.05 773.93 293.09 772.17 293.12C771.29 293.13 770.6 293.15 770.12 293.15C769.88 293.15 769.7 293.15 769.57 293.15H769.42H769.38H767.91L767.2 294.44L719.86 380.38L717.01 385.56L697.68 420.65L717.67 384.35L719.86 380.37L722.71 385.55L770.87 298.11C780.05 297.96 830.05 297.13 845.65 296.87L767.1 419.28L839.65 539.99H845.48L772.98 419.37L854.89 291.72L854.92 291.74Z" fill="#DDDEE1"/>
<path d="M763.631 533.53L760.801 538.83L761.421 540H767.091L763.631 533.53Z" fill="#DDDEE1"/>
<path d="M505.659 127.37H471.209L462.129 192.55H501.629L510.009 132.37L510.709 127.37H505.659ZM497.279 187.54H467.869L475.559 132.36H504.969L497.279 187.54Z" fill="#DDDEE1"/>
<path d="M635.08 95.35L637.88 88.25L672.73 0H667.35L635.62 80.37L610.4 0H605.16L635.08 95.35Z" fill="#DDDEE1"/>
<path d="M316.7 418.95L316.44 418.11L314.52 411.97L307.09 388.14H305.2L256.98 388.26L254.86 393.14L231.63 446.75L228.59 453.78L228.86 454.66L230.85 461.06L255.4 540H260.64L233.91 454.07L260.27 393.25L303.42 393.15L311.4 418.76L263.91 540H269.28L313.78 426.4L316.7 418.95Z" fill="#DDDEE1"/>
<path d="M290.859 34.94L292.319 37.06L292.819 37.79L293.849 39.28L334.709 98.68L337.689 103.01L340.869 98.81L415.539 0H411.879L295.919 33.48L290.859 34.94ZM403.509 7.63L337.879 94.48L298.909 37.82L403.519 7.62V7.64L403.509 7.63Z" fill="#DDDEE1"/>
<path d="M142.328 228.9V233.9H178.388V146.2H142.328V228.9ZM173.378 151.19V228.89H147.318V151.19H173.378Z" fill="#DDDEE1"/>
<path d="M77.0217 413.26H41.7617H36.7617V418.26V430.6V437.86V460.16V478.67V483.19V513.58V540H41.7617V513.58V483.19V478.67V460.16V437.86V430.6V418.26H74.5217V540H79.5217V413.26H77.0217Z" fill="#DDDEE1"/>
<path d="M14.24 504.42H0V509.42H9.24V509.57V540H14.24V504.57V504.42Z" fill="#DDDEE1"/>
<path d="M803.341 39.43C806.081 46.14 810.091 51.79 815.051 56.52C819.701 60.92 825.161 64.41 831.261 67.1C841.631 71.72 853.751 74.02 866.801 74.29V74.37H869.301C883.021 74.37 895.661 72.13 906.371 67.44C912.641 64.69 918.281 61.09 922.991 56.5C927.891 51.75 931.791 45.99 934.451 39.23C937.111 32.47 938.521 24.73 938.521 16C938.521 10.31 937.901 4.97 936.721 0H931.561C932.831 4.88 933.521 10.22 933.521 16C933.521 24.2 932.201 31.3 929.801 37.4C927.401 43.51 923.921 48.64 919.511 52.91C915.291 57.02 910.181 60.3 904.371 62.86C895.101 66.92 884.001 69.06 871.811 69.31H869.311C855.861 69.31 843.521 67.09 833.311 62.53C827.651 60.03 822.711 56.85 818.521 52.9C814.021 48.6 810.461 43.58 807.991 37.55C805.531 31.51 804.151 24.43 804.151 16.01C804.151 10.14 804.861 4.83 806.141 0.01H800.971C799.781 4.93 799.141 10.26 799.141 16.01C799.141 24.97 800.611 32.73 803.351 39.44L803.341 39.43Z" fill="#DDDEE1"/>
<path d="M543.898 407.84H543.908V407.85L543.898 407.84Z" fill="#DDDEE1"/>
<path d="M519.981 522.41C521.431 521.87 522.861 521.3 524.261 520.69C531.891 517.34 538.711 512.97 544.431 507.42C550.371 501.66 555.101 494.68 558.321 486.48C561.541 478.28 563.261 468.88 563.261 458.25C563.261 458.22 563.261 458.19 563.261 458.16C563.261 447.56 561.491 437.93 558.191 429.48C554.881 421.01 550.031 413.71 543.911 407.83C538.331 402.42 531.641 398.12 524.281 394.85C523.011 394.28 521.721 393.75 520.401 393.24C517.861 392.25 515.251 391.36 512.551 390.58L511.841 390.38L511.131 390.59C501.631 393.46 493.031 397.81 485.801 403.83C478.571 409.85 472.741 417.54 468.811 426.96C465.111 435.84 463.061 446.17 463.051 458.17C463.051 458.2 463.051 458.23 463.051 458.26C463.051 470.3 465.101 480.36 468.751 489.12C472.601 498.35 478.271 505.93 485.301 511.89C490.181 516.03 495.711 519.37 501.721 522.02C504.381 523.19 507.121 524.24 509.961 525.14L510.331 525.26L510.651 525.36L511.001 525.27L511.361 525.17C514.321 524.38 517.191 523.45 519.961 522.4L519.981 522.41ZM468.071 458.18C468.081 446.74 470.021 437.11 473.441 428.89C477.071 420.2 482.381 413.21 489.011 407.67C495.471 402.29 503.211 398.31 511.881 395.6C515.491 396.68 518.961 397.94 522.231 399.41C529.141 402.49 535.321 406.48 540.421 411.42C546.011 416.8 550.451 423.46 553.511 431.3C556.561 439.12 558.231 448.11 558.241 458.16C558.241 458.19 558.241 458.22 558.241 458.25C558.241 468.34 556.611 477.1 553.651 484.65C550.681 492.2 546.371 498.55 540.931 503.83C535.711 508.91 529.411 512.97 522.241 516.11C518.721 517.65 514.971 518.96 511.051 520.06C510.961 520.09 510.871 520.11 510.781 520.14C502.341 517.39 494.821 513.4 488.541 508.08C482.091 502.6 476.921 495.72 473.371 487.2C470.001 479.07 468.061 469.74 468.061 458.26C468.061 458.23 468.061 458.2 468.061 458.17L468.071 458.18Z" fill="#DDDEE1"/>
<path d="M900.911 251.51C900.721 250.88 900.511 250.27 900.301 249.66C900.231 249.44 900.161 249.23 900.081 249.01C899.891 248.45 899.681 247.9 899.481 247.36C899.391 247.11 899.291 246.86 899.201 246.61C898.991 246.08 898.781 245.56 898.571 245.04C898.471 244.79 898.361 244.55 898.261 244.31C898.041 243.79 897.811 243.28 897.581 242.77C897.481 242.56 897.381 242.35 897.281 242.13C897.051 241.64 896.821 241.16 896.571 240.68C896.121 239.79 895.661 238.93 895.181 238.08C894.991 237.75 894.801 237.42 894.611 237.1C894.111 236.26 893.611 235.44 893.081 234.64C892.911 234.39 892.741 234.14 892.571 233.89C892.101 233.21 891.631 232.54 891.131 231.89C890.961 231.67 890.801 231.44 890.631 231.22C890.031 230.45 889.411 229.71 888.781 228.99C888.581 228.76 888.381 228.53 888.181 228.31C887.531 227.6 886.871 226.9 886.201 226.24C886.021 226.06 885.831 225.89 885.641 225.71C884.991 225.09 884.331 224.49 883.661 223.92C883.521 223.8 883.381 223.68 883.241 223.56C882.741 223.14 882.231 222.74 881.711 222.34C881.471 222.16 881.231 221.99 880.991 221.82C880.781 221.67 880.571 221.51 880.361 221.36C879.571 220.8 878.771 220.27 877.961 219.77C877.591 219.54 877.221 219.32 876.851 219.1C876.731 219.03 876.611 218.96 876.491 218.89C874.781 217.92 873.011 217.05 871.171 216.3C871.041 216.25 870.911 216.2 870.791 216.15C870.321 215.96 869.841 215.77 869.351 215.6C869.181 215.54 869.011 215.48 868.841 215.42C868.391 215.26 867.931 215.11 867.471 214.96C867.291 214.9 867.111 214.84 866.931 214.79C866.451 214.64 865.981 214.5 865.491 214.37C865.331 214.33 865.171 214.28 865.011 214.23C864.411 214.07 863.801 213.92 863.181 213.78C863.141 213.78 863.111 213.76 863.071 213.75C862.421 213.6 861.761 213.47 861.091 213.34C860.911 213.31 860.731 213.28 860.551 213.25C860.081 213.17 859.601 213.08 859.121 213.01C858.871 212.97 858.611 212.94 858.351 212.9C857.941 212.84 857.521 212.79 857.101 212.74C856.821 212.71 856.541 212.68 856.261 212.65C855.851 212.61 855.451 212.57 855.041 212.54C854.761 212.52 854.481 212.49 854.191 212.48C853.751 212.45 853.311 212.43 852.861 212.41C852.611 212.4 852.361 212.38 852.101 212.38C851.401 212.36 850.711 212.34 850.001 212.34C849.071 212.34 848.161 212.36 847.251 212.4C846.981 212.41 846.721 212.43 846.461 212.44C845.801 212.47 845.141 212.51 844.491 212.57C844.221 212.59 843.941 212.62 843.671 212.64C842.971 212.71 842.281 212.78 841.591 212.87C841.401 212.89 841.211 212.91 841.021 212.94C840.131 213.06 839.241 213.21 838.371 213.37C838.371 213.37 838.361 213.37 838.351 213.37L836.661 213.69V213.73L836.361 215.39C836.141 216.62 835.931 217.87 835.741 219.13C834.641 226.18 833.911 233.74 833.581 241.84C833.571 242.13 833.561 242.43 833.551 242.72C833.501 243.93 833.471 245.16 833.441 246.4C833.441 246.79 833.421 247.17 833.411 247.56C833.381 249.12 833.371 250.69 833.371 252.28V254.78H901.921L900.911 251.54C900.911 251.54 900.911 251.54 900.911 251.53V251.51ZM848.071 249.76H838.411C838.411 249.08 838.411 248.39 838.431 247.72C838.431 247.39 838.441 247.07 838.451 246.74C838.481 245.36 838.521 243.98 838.571 242.63C838.571 242.55 838.571 242.47 838.571 242.4C838.921 233.58 839.751 225.47 841.011 217.99C841.041 217.99 841.071 217.99 841.101 217.98C841.661 217.9 842.221 217.82 842.801 217.75C843.191 217.7 843.581 217.66 843.971 217.62C844.621 217.56 845.291 217.51 845.961 217.47C846.281 217.45 846.601 217.42 846.931 217.41C847.941 217.36 848.961 217.33 850.011 217.33C850.761 217.33 851.491 217.35 852.221 217.37C852.521 217.38 852.811 217.4 853.111 217.42C853.551 217.44 853.981 217.47 854.411 217.5C854.731 217.52 855.061 217.56 855.381 217.59C855.781 217.63 856.181 217.67 856.571 217.71C856.891 217.75 857.211 217.79 857.531 217.83C857.921 217.88 858.321 217.94 858.701 218C859.011 218.05 859.311 218.1 859.611 218.15C860.011 218.22 860.411 218.3 860.811 218.38C861.091 218.44 861.371 218.49 861.651 218.55C862.081 218.64 862.501 218.75 862.931 218.85C863.171 218.91 863.411 218.97 863.651 219.03C864.161 219.17 864.671 219.32 865.181 219.47C865.321 219.51 865.471 219.55 865.611 219.59C866.251 219.79 866.871 220 867.491 220.23C867.581 220.26 867.681 220.3 867.771 220.34C868.601 220.65 869.411 220.98 870.211 221.34C870.351 221.4 870.491 221.46 870.631 221.52C871.431 221.89 872.221 222.28 872.991 222.69C873.191 222.8 873.391 222.91 873.591 223.02C874.331 223.43 875.061 223.86 875.781 224.32C875.971 224.44 876.161 224.57 876.341 224.69C876.961 225.1 877.571 225.53 878.171 225.97C878.321 226.08 878.481 226.19 878.631 226.31C878.631 226.31 878.641 226.31 878.651 226.32C879.311 226.82 879.951 227.36 880.591 227.9C880.801 228.08 881.011 228.26 881.211 228.44C881.831 228.99 882.431 229.57 883.031 230.16C883.221 230.35 883.401 230.54 883.581 230.73C884.141 231.32 884.691 231.92 885.231 232.54C885.371 232.71 885.511 232.87 885.651 233.04C886.161 233.65 886.651 234.28 887.141 234.92C887.311 235.15 887.481 235.37 887.651 235.6C888.161 236.3 888.651 237.02 889.131 237.76C889.301 238.03 889.481 238.3 889.651 238.58C890.121 239.34 890.581 240.11 891.031 240.91C891.171 241.16 891.301 241.42 891.441 241.68C891.801 242.35 892.141 243.03 892.481 243.72C892.621 244.01 892.771 244.3 892.901 244.59C893.291 245.43 893.661 246.29 894.021 247.16C894.171 247.52 894.311 247.88 894.461 248.24C894.651 248.74 894.841 249.24 895.031 249.75H848.061L848.071 249.76Z" fill="#DDDEE1"/>
<path d="M880.25 416.08V421.08H885.25H960V416.08H885.25V390.03H960V385.03H880.25V416.08Z" fill="#DDDEE1"/>
<path d="M760.801 538.83L763.631 533.52L783.611 496.1L722.721 385.55L719.871 380.37L717.681 384.35L697.691 420.65L757.971 533.52L760.801 538.83ZM712.571 404.01L719.871 390.75L777.931 496.15L761.031 527.79L760.801 528.23L741.191 491.52L703.371 420.71L712.561 404.02L712.571 404.01Z" fill="#DDDEE1"/>
</g>
<defs>
<clipPath id="clip0_287_56610">
<rect width="960" height="540" fill="white"/>
</clipPath>
</defs>
</svg>
