<svg width="188" height="123" viewBox="0 0 188 123" fill="none" xmlns="http://www.w3.org/2000/svg">
<path d="M28.2532 4.34098C32.6432 4.00098 32.7632 0.650978 28.1432 0.290978C27.7432 0.250978 27.3132 0.240978 26.8732 0.240978C26.4732 0.240978 26.0632 0.230978 25.6532 0.220978C24.8332 0.220978 23.9732 0.220978 23.1032 0.250978C21.3532 0.310978 19.5132 0.490978 17.5932 0.890978C15.6732 1.29098 13.6632 1.91098 11.6632 2.93098C9.66319 3.93098 7.67319 5.35098 5.96319 7.23098C4.05319 9.39098 2.98319 11.471 2.29319 13.261C1.62319 15.071 1.21319 16.601 0.993188 18.031C0.513188 20.891 0.373188 23.291 0.253188 26.751C0.223188 29.571 0.183188 32.881 0.143188 36.331C0.143188 38.061 0.143188 39.851 0.253188 41.681C0.373188 43.511 0.553188 45.391 1.13319 47.361C1.66319 49.291 2.92319 51.451 4.67319 52.771C6.40319 54.101 8.17319 54.701 9.62319 55.101C12.5532 55.861 14.6532 55.991 15.8532 56.151C16.5432 56.211 17.2532 56.261 17.9432 56.261C19.1832 56.271 21.4532 56.261 24.4132 56.201C27.3732 56.141 31.0532 56.061 35.1532 55.981C37.2232 55.921 39.4232 55.841 41.7732 55.601C42.9432 55.491 44.1732 55.311 45.4532 55.041C46.7332 54.761 48.1132 54.341 49.4932 53.591C50.8732 52.851 52.2232 51.651 53.1032 50.271C54.0032 48.891 54.4932 47.471 54.8332 46.141C55.4932 43.461 55.6332 41.031 55.7832 38.671C55.9232 35.351 55.9032 32.441 55.9032 29.811C55.9032 27.191 55.8932 24.851 55.8932 22.791C55.8732 18.651 55.7632 15.521 55.5332 13.301C55.4032 11.991 55.1932 10.681 54.8632 9.36098C54.5332 8.05098 54.0432 6.68098 53.2132 5.40098C52.4032 4.12098 51.2232 2.99098 49.9932 2.28098C48.7532 1.55098 47.5332 1.16098 46.3932 0.890978C44.1132 0.380978 42.0832 0.310978 40.1532 0.300978C38.2232 0.300978 36.3932 0.410978 34.5732 0.540978C30.5832 0.860978 30.6032 3.77098 34.5232 4.15098C36.3032 4.33098 38.0932 4.51098 39.8732 4.75098C41.6532 4.98098 43.4432 5.28098 45.0632 5.79098C45.8632 6.05098 46.5932 6.37098 47.1832 6.78098C47.7732 7.19098 48.2132 7.66098 48.5832 8.30098C49.3332 9.56098 49.7232 11.611 49.9532 13.881C50.1432 15.651 50.0532 18.511 49.8532 22.341C49.6432 26.151 49.4532 31.011 49.2832 36.481C49.2432 38.211 49.1932 39.951 49.1532 41.671C49.1132 43.461 48.8932 45.231 48.3632 46.501C48.1032 47.131 47.7932 47.611 47.3432 48.011C46.8932 48.411 46.2732 48.761 45.5332 49.041C44.0232 49.611 42.1332 49.881 40.2832 50.041C38.4332 50.211 36.5832 50.281 34.8532 50.311C31.3832 50.391 28.3532 50.361 26.2132 50.361C24.0732 50.341 22.8132 50.321 22.8132 50.321C22.8132 50.321 20.9232 50.321 17.9532 50.241C16.4732 50.181 14.7232 50.111 12.8932 49.881C11.0832 49.651 9.15319 49.221 7.98319 48.341C7.39319 47.911 6.95319 47.371 6.57319 46.601C6.20319 45.841 5.93319 44.871 5.74319 43.831C5.35319 41.741 5.24319 39.401 5.17319 37.141C5.11319 34.871 5.10319 32.661 5.09319 30.611C5.09319 29.591 5.09319 28.611 5.09319 27.691C5.12319 26.821 5.11319 25.991 5.16319 25.241C5.41319 20.711 6.32319 17.551 7.30319 15.381C8.30319 13.201 9.30319 11.931 10.1132 11.031C11.3432 9.66098 12.7432 8.61098 14.2232 7.80098C15.7032 6.97098 17.2532 6.39098 18.8132 5.94098C21.9232 5.04098 25.1332 4.71098 28.2432 4.34098H28.2532Z" fill="#101214"/>
<path d="M89.3832 54.621C96.8932 54.291 96.8432 50.951 89.4132 50.571C86.7932 50.421 84.1332 50.281 81.5532 49.951C79.0132 49.641 76.3732 49.061 75.2032 47.861C74.5832 47.301 74.1532 46.481 73.8232 45.321C73.4932 44.171 73.3032 42.771 73.1732 41.281C72.9332 38.291 72.9332 34.941 72.9232 31.391C72.8432 23.301 72.5733 18.221 72.7633 14.081C72.8633 12.021 73.1033 10.151 73.7633 8.68098C74.0933 7.95098 74.5232 7.37098 75.1632 6.89098C75.8032 6.41098 76.7133 6.01098 77.8633 5.74098C79.8033 5.25098 82.2432 5.09098 84.8132 5.01098C87.3932 4.94098 90.1632 4.97098 92.9832 5.01098C98.6432 5.12098 104.533 5.24098 110.083 5.36098C121.173 5.66098 130.893 5.93098 134.663 6.03098C135.783 6.06098 136.893 6.07098 138.013 6.06098C140.023 6.03098 143.683 5.95098 148.483 6.04098C153.243 6.17098 159.223 6.39098 165.313 7.95098C168.343 8.73098 171.353 9.95098 173.893 11.791C176.423 13.641 178.353 16.201 179.473 19.291C180.033 20.841 180.363 22.511 180.583 24.231C180.793 25.971 180.773 27.681 180.773 29.681C180.753 33.521 180.753 37.371 180.433 40.901C180.233 43.361 179.803 45.641 179.023 46.841C178.643 47.451 178.213 47.841 177.593 48.191C176.973 48.541 176.183 48.821 175.293 49.011C173.533 49.411 171.563 49.541 169.723 49.641C167.863 49.731 166.073 49.751 164.383 49.771C157.563 49.781 152.553 49.791 149.113 49.791C132.833 49.821 120.663 50.161 108.723 50.791C102.163 51.141 102.163 54.051 108.723 54.401C120.663 55.041 132.833 55.381 149.113 55.401C152.283 55.401 157.133 55.611 163.583 55.811C166.833 55.871 170.413 56.051 174.773 55.571C175.873 55.421 177.023 55.241 178.273 54.851C179.513 54.471 180.873 53.911 182.163 52.931C183.453 51.961 184.523 50.571 185.193 49.181C185.873 47.791 186.243 46.411 186.523 45.081C186.873 43.351 187.003 41.711 187.073 40.121C187.143 38.521 187.143 36.971 187.103 35.441C187.053 33.801 187.003 32.131 186.953 30.441C186.923 29.601 186.903 28.761 186.873 27.911C186.833 27.031 186.783 26.091 186.713 25.171C186.353 21.491 185.473 17.651 183.553 14.231C182.603 12.541 181.443 10.951 180.093 9.59098C178.743 8.24098 177.253 7.09098 175.723 6.13098C172.633 4.24098 169.433 3.11098 166.453 2.34098C163.463 1.56098 160.673 1.14098 158.183 0.840978C155.693 0.540978 153.503 0.390978 151.693 0.290978C148.063 0.0909778 145.943 0.0609778 145.943 0.0609778C145.943 0.0609778 142.743 -0.00902222 137.713 0.000977778C132.673 0.000977778 125.723 0.000977778 118.113 0.000977778C110.503 0.000977778 102.233 0.000977778 94.5332 0.000977778C90.6832 0.000977778 86.9632 -0.00902222 83.4532 0.160978C81.6932 0.250978 79.9832 0.390978 78.3032 0.680978C76.6332 0.970978 74.9633 1.42098 73.4333 2.25098C72.2833 2.87098 71.2233 3.76098 70.4333 4.77098C69.6533 5.79098 69.1632 6.86098 68.7832 7.87098C68.0932 9.88098 67.8733 11.651 67.6933 13.261C67.3833 16.471 67.3832 19.101 67.3432 21.391C67.3432 25.921 67.3433 29.031 67.3333 31.401C67.3633 35.001 67.3832 38.411 67.7332 41.791C67.9132 43.481 68.1732 45.181 68.7332 46.911C68.9932 47.771 69.3932 48.651 69.8832 49.481C70.4032 50.311 71.0332 51.111 71.8032 51.741C73.3332 53.051 75.0832 53.671 76.6432 54.031C78.2232 54.401 79.7133 54.541 81.1533 54.621C84.0333 54.781 86.7333 54.691 89.4033 54.601L89.3832 54.621Z" fill="#101214"/>
<path d="M152.523 67.721C142.083 68.061 142.103 71.401 152.513 71.771C156.193 71.911 159.923 72.041 163.703 72.271C167.453 72.521 171.383 72.791 174.913 73.711C176.653 74.181 178.223 74.851 179.173 75.831C180.153 76.761 180.773 78.181 181.133 80.101C181.503 81.981 181.643 84.171 181.703 86.451C181.763 88.741 181.753 91.151 181.763 93.641C181.853 99.101 181.303 103.271 179.943 106.321C178.593 109.341 176.643 111.291 174.323 112.651C172.033 114.051 169.473 114.891 166.683 115.551C163.863 116.201 160.753 116.631 157.003 116.891C150.663 117.361 143.103 117.381 135.223 117.311C127.323 117.201 119.103 117.081 111.373 116.971C95.9032 116.671 82.3432 116.401 77.0832 116.301C75.5232 116.271 73.9832 116.251 72.4232 116.261C69.6432 116.261 64.5132 116.311 57.7732 116.151C51.0332 115.961 42.6332 115.641 33.5532 114.221C29.0232 113.501 24.3232 112.471 19.8332 110.781C15.3732 109.111 11.0832 106.611 8.5432 102.991C7.2732 101.191 6.4732 99.121 6.1832 96.881C5.9132 94.731 6.0332 92.011 6.3232 89.611C6.6332 87.181 7.2332 84.871 8.2332 82.891C9.2532 80.931 10.6732 79.321 12.4532 78.071C14.9832 76.301 18.0832 75.281 21.1332 74.571C24.2132 73.891 27.2832 73.511 30.2132 73.251C36.0932 72.741 41.4532 72.671 46.1732 72.591C55.6432 72.501 62.6732 72.541 67.4732 72.531C90.1832 72.501 107.163 72.161 123.823 71.531C132.973 71.181 132.973 68.271 123.823 67.921C107.163 67.281 90.1832 66.941 67.4732 66.921C63.0532 66.931 56.2732 66.691 47.2832 66.541C42.7832 66.481 37.7332 66.441 32.1032 66.721C29.2832 66.871 26.3232 67.101 23.1932 67.571C20.0732 68.061 16.7632 68.731 13.3532 70.131C11.1432 71.041 8.9432 72.291 7.0332 73.991C5.1132 75.681 3.5532 77.821 2.5032 80.081C1.3632 82.521 0.7132 85.101 0.3632 87.641C0.2132 88.911 0.0832 90.181 0.0432 91.441C0.0032 92.081 0.0032 92.701 0.0032 93.331C0.0032 93.961 -0.0168 94.561 0.0432 95.271C0.1232 97.971 0.7532 100.771 1.9732 103.301C3.1732 105.841 4.9432 108.051 6.9332 109.841C10.9532 113.431 15.6732 115.431 20.1332 116.911C24.6332 118.391 29.0332 119.231 33.1332 119.901C41.3532 121.171 48.4232 121.561 53.4332 121.831C58.4432 122.071 61.3932 122.141 61.3932 122.141C61.3932 122.141 65.8032 122.261 72.8632 122.301C79.9032 122.301 89.5932 122.301 100.213 122.321C110.833 122.321 122.373 122.321 133.113 122.321C143.863 122.321 153.863 122.231 161.443 121.361C167.123 120.701 172.223 119.611 176.453 117.371C178.553 116.261 180.393 114.841 181.833 113.251C183.273 111.661 184.273 109.931 185.013 108.311C186.453 105.021 186.903 102.131 187.153 99.721C187.393 97.321 187.403 95.261 187.403 93.631C187.403 91.131 187.393 88.691 187.303 86.271C187.213 83.851 187.053 81.441 186.533 78.981C186.293 77.761 185.883 76.501 185.313 75.271C184.763 74.041 183.883 72.871 182.883 71.931C180.813 70.011 178.373 69.211 176.213 68.681C171.813 67.701 167.803 67.651 163.903 67.561C160.013 67.511 156.253 67.601 152.553 67.711L152.523 67.721Z" fill="#101214"/>
</svg>
