<svg width="187" height="217" viewBox="0 0 187 217" fill="none" xmlns="http://www.w3.org/2000/svg">
<path d="M179.43 142.481C179.43 142.961 179.44 143.421 179.47 143.851C179.49 144.071 179.51 144.281 179.53 144.491C179.55 144.611 179.56 144.721 179.58 144.831L179.62 145.061L179.67 145.301L179.7 145.411L179.72 145.461L179.74 145.511C179.76 145.561 179.78 145.621 179.81 145.671C179.92 145.891 180.09 146.091 180.28 146.231L180.35 146.281C180.41 146.321 180.48 146.351 180.56 146.391C180.72 146.461 180.92 146.511 181.15 146.511C181.62 146.521 182.04 146.271 182.22 146.081L183.53 144.691L182.14 143.891C178.52 141.801 177.23 143.311 179.86 146.561L181.15 145.001C181.15 145.001 181.17 145.021 181.17 145.001C181.18 144.981 181.21 144.961 181.24 144.961C181.3 144.961 181.43 144.901 181.52 144.891C181.57 144.891 181.62 144.881 181.68 144.871L181.92 144.831C182.08 144.811 182.25 144.791 182.41 144.781H182.66L183 144.741H183.17V144.731C183.17 144.731 183.17 144.731 183.18 144.711C183.19 144.671 183.21 144.591 183.22 144.511C183.25 144.341 183.28 144.161 183.31 143.971C183.37 143.581 183.42 143.141 183.47 142.681C184.56 132.261 185.62 121.181 186.31 106.951C186.61 98.8709 186.56 93.8109 186.49 89.4109C186.42 85.0009 186.34 81.2609 186.38 75.7609C186.37 71.1209 186.36 65.6709 186.06 59.9509C185.98 58.5209 185.89 57.0709 185.76 55.6109L185.71 55.0609L185.68 54.7909V54.6509L185.66 54.6209C183.27 50.8909 184.99 53.5809 184.45 52.7409H184.44L184.38 52.6909L183.48 52.1109L181.67 50.9509C179.27 49.4009 176.88 47.8609 174.56 46.3709C165.31 40.3509 157.22 35.0809 154.07 33.0309C153.14 32.4209 152.2 31.8309 151.24 31.2709C147.83 29.2309 138.63 23.7509 127.07 16.8509C121.31 13.3609 114.96 9.52091 108.45 5.58091C106.83 4.59091 105.19 3.59091 103.55 2.59091L102.32 1.84091L101.71 1.46091L101.4 1.27091L100.91 0.990907C99.61 0.290907 98.13 -0.0190926 96.69 0.000907428C95.25 0.0209074 93.85 0.380907 92.6 1.02091C91.73 1.48091 90.87 1.94091 90.01 2.39091C88.32 3.28091 86.65 4.17091 84.99 5.04091C66.31 15.0709 54.75 21.2909 48.71 24.5309C34.46 32.2109 23.96 38.2309 13.8 44.4009C8.22 47.7909 9.59 50.3609 15.51 47.5809C26.27 42.5309 37.1 37.1109 51.37 29.4709C56.91 26.5009 68.84 21.0109 85.21 12.3809C87.88 10.9809 90.51 9.50091 93.08 7.98091C93.78 7.57091 94.48 7.16091 95.18 6.74091L95.55 6.52091C95.64 6.48091 95.73 6.42091 95.83 6.38091C96.02 6.29091 96.22 6.23091 96.42 6.19091C96.83 6.10091 97.24 6.10091 97.62 6.18091C97.81 6.22091 97.99 6.28091 98.16 6.36091C98.2 6.37091 98.41 6.49091 98.6 6.60091L99.15 6.92091C102.08 8.62091 105.04 10.3409 107.96 12.0509C113.8 15.4809 119.46 18.8809 124.42 21.8809C134.34 27.8909 141.44 32.3309 141.44 32.3309C141.44 32.3309 152.09 38.8609 164.99 46.7709C168.21 48.7509 171.58 50.8109 174.95 52.8809C176.64 53.9109 178.33 54.9509 180 55.9809L181.25 56.7509L181.56 56.9409L181.72 57.0409L181.8 57.0909C182.07 57.5009 179.53 53.5409 180.6 55.2309V55.2509V55.2909L180.68 55.9909C180.78 56.9309 180.87 57.8709 180.94 58.8009C181.51 66.2809 181.51 73.3409 181.49 78.5709C181.44 86.4709 181.24 92.3309 181.09 96.7909C180.9 101.261 180.78 104.331 180.68 106.671C180.04 120.851 179.51 131.871 179.41 142.471L179.43 142.481Z" fill="#101214"/>
<path d="M7.63 57.001C7.51 48.991 4.17 48.891 3.58 56.881C2.75 68.211 2.14 80.121 1.67 95.441C1.32 112.811 1.89 117.151 1.47 128.911C1.33 133.621 1.12 139.091 0.87 144.811C0.58 151.061 0.28 157.591 0 163.831C1.14 164.521 2.27 165.211 3.39 165.901C4.05 166.311 4.7 166.721 5.35 167.121C6.64 167.931 7.91 168.721 9.14 169.491C11.6 171.031 13.92 172.481 16.01 173.791C20.19 176.421 23.49 178.491 25.29 179.631C26.3 180.271 27.33 180.881 28.37 181.481C31.6 183.341 39.61 187.961 50.21 194.071C55.5 197.151 61.43 200.611 67.74 204.291C74.52 208.291 81.7 212.521 88.99 216.831C90.71 215.851 95.04 213.381 99.29 210.951C119.07 199.521 131.31 192.441 137.71 188.751C152.8 180.011 163.92 173.191 174.68 166.251C180.59 162.431 179.14 159.911 172.88 163.121C161.48 168.971 150.02 175.191 134.9 183.891C129.03 187.281 116.4 193.641 99.06 203.491C96.24 205.091 93.45 206.771 90.73 208.481C90.21 208.811 89.69 209.141 89.15 209.481C89.12 209.521 89.08 209.571 89.03 209.631C89 209.631 88.96 209.631 88.92 209.621H88.86C88.86 209.621 88.87 209.621 88.82 209.591L88.68 209.511L88.4 209.361C87.65 208.951 86.9 208.531 86.14 208.111C84.63 207.271 83.11 206.421 81.58 205.571C78.54 203.851 75.49 202.121 72.49 200.421C66.51 197.001 60.75 193.661 55.74 190.721C45.72 184.851 38.67 180.601 38.67 180.601L5.37 160.891L6.39 126.031C6.88 108.921 7.12 100.691 7.26 95.631C7.68 80.311 7.76 68.381 7.6 57.021L7.63 57.001Z" fill="#101214"/>
<path d="M110.14 95.301C110.55 95.641 110.96 95.9309 111.32 96.2409C111.67 96.5509 112 96.8409 112.32 97.0909C112.96 97.6009 113.53 97.991 114.04 98.261C115.05 98.811 115.78 98.9309 116.14 98.6309C116.5 98.3309 116.47 97.631 115.98 96.541C115.73 96.001 115.37 95.3609 114.87 94.6409C114.62 94.2809 114.34 93.901 114.03 93.501C113.71 93.111 113.31 92.741 112.9 92.331C108.29 87.681 102.52 83.731 95.51 81.231C94.63 80.931 93.75 80.6109 92.85 80.3109C91.93 80.0909 90.99 79.861 90.05 79.641C89.58 79.531 89.1 79.421 88.62 79.301C88.14 79.191 87.65 79.151 87.16 79.081C86.18 78.951 85.18 78.811 84.17 78.681C83.16 78.571 82.13 78.5809 81.09 78.5309C80.57 78.5109 80.04 78.491 79.52 78.481C78.99 78.461 78.46 78.521 77.93 78.541C76.86 78.611 75.78 78.6709 74.68 78.7409C73.59 78.9009 72.49 79.0709 71.37 79.2409C70.1 79.4009 68.93 79.8009 67.8 80.0609C67.24 80.2109 66.69 80.351 66.15 80.501C65.62 80.671 65.11 80.871 64.61 81.051C63.61 81.421 62.65 81.741 61.75 82.121C60.87 82.541 60.03 82.941 59.22 83.331C58.82 83.531 58.43 83.721 58.04 83.911C57.67 84.131 57.31 84.3509 56.95 84.5609C56.24 84.9909 55.56 85.401 54.9 85.801C53.61 86.641 52.49 87.571 51.37 88.391C50.3 89.281 49.31 90.1909 48.35 91.1009C47.89 91.5809 47.43 92.061 46.97 92.551L46.28 93.2809C46.06 93.5409 45.85 93.8009 45.63 94.0609C45.19 94.5809 44.75 95.111 44.3 95.661C43.86 96.211 43.45 96.811 43.01 97.411C42.09 98.591 41.3 99.9509 40.37 101.381C38.94 103.881 37.52 106.671 36.35 109.731C35.19 112.791 34.21 116.081 33.49 119.501C32.07 126.321 31.76 133.711 32.52 140.481C33.17 147.291 34.91 153.571 36.84 158.551C38.77 163.551 41 167.201 42.25 169.211C43.05 170.371 43.81 171.561 44.74 172.631C45.14 173.121 45.63 173.711 46.2 174.391C46.81 175.041 47.51 175.781 48.28 176.601C49.07 177.411 50.01 178.231 50.99 179.151C52.03 180.011 53.14 180.961 54.39 181.871C56.88 183.721 59.88 185.501 63.27 187.121C66.67 188.711 70.52 190.011 74.65 190.951C78.79 191.881 83.24 192.411 87.83 192.391C92.42 192.361 97.14 191.791 101.78 190.641C106.42 189.501 110.99 187.771 115.26 185.571C117.34 184.421 119.46 183.361 121.43 182.031C122.42 181.381 123.45 180.801 124.4 180.091C125.35 179.391 126.3 178.691 127.24 178.001C132.46 173.921 136.58 169.421 139.68 164.941C142.79 160.451 144.87 156.011 146.3 151.981C147.78 147.941 148.4 144.251 148.9 141.111C149.04 139.531 149.26 138.081 149.3 136.751C149.33 135.421 149.42 134.221 149.39 133.141C149.3 122.941 146.72 114.241 143.11 106.951C139.46 99.6809 134.7 93.581 128.53 89.231C126.82 88.061 125.37 87.421 124.3 87.251C123.24 87.051 122.63 87.181 122.45 87.551C122.27 87.921 122.53 88.521 123.19 89.251C123.87 89.961 124.9 90.9209 126.33 92.0909C131.49 96.4609 135.45 102.301 138.51 109.111C141.53 115.931 143.7 123.931 143.76 133.161C143.75 134.951 143.64 137.221 143.23 139.921C143.17 140.601 142.99 141.291 142.85 142.011C142.69 142.731 142.57 143.481 142.37 144.251C141.93 145.771 141.54 147.411 140.87 149.081C138.53 155.831 133.81 163.581 125.99 170.441L124.07 172.101C123.43 172.661 122.72 173.141 122.06 173.661L120.04 175.221L117.93 176.661C116.45 177.751 114.82 178.681 113.17 179.651L111.93 180.381C111.51 180.611 111.09 180.811 110.66 181.021C109.81 181.431 108.97 181.901 108.09 182.261C104.6 183.831 100.87 184.951 97.11 185.701C96.16 185.861 95.23 186.081 94.28 186.181C93.33 186.291 92.39 186.401 91.45 186.501C89.57 186.601 87.7 186.721 85.87 186.631C82.21 186.521 78.69 186.101 75.49 185.301C69.05 183.821 63.93 181.201 60.58 179.051C59.71 178.551 59.02 177.971 58.38 177.521C57.74 177.071 57.2 176.671 56.79 176.301C55.95 175.601 55.5 175.221 55.5 175.221C55.5 175.221 55.33 175.081 55.01 174.811C54.71 174.521 54.26 174.091 53.68 173.551C53.39 173.281 53.07 172.971 52.72 172.641C52.39 172.281 52.04 171.901 51.65 171.481C50.86 170.671 50.05 169.671 49.17 168.561C47.44 166.311 45.52 163.511 43.82 160.151C42.12 156.801 40.61 152.931 39.49 148.741C38.36 144.561 37.63 140.061 37.36 135.521C37.05 131.001 37.32 126.441 38.03 122.131C38.74 117.811 39.9 113.751 41.35 110.201C42.79 106.641 44.53 103.591 46.2 101.151C48.76 97.491 51.53 94.751 54.17 92.661C56.89 90.671 59.37 89.1409 61.68 88.1309C63.94 87.0109 65.99 86.411 67.72 85.821C68.61 85.601 69.42 85.4009 70.18 85.2109C70.56 85.1209 70.92 85.021 71.27 84.941C71.62 84.871 71.96 84.8309 72.29 84.7709C73.28 84.6109 74.26 84.4609 75.22 84.3109C76.19 84.2409 77.15 84.181 78.1 84.111C78.57 84.091 79.04 84.0209 79.51 84.0309C79.98 84.0409 80.44 84.0509 80.91 84.0609C81.83 84.1009 82.75 84.061 83.65 84.151C84.55 84.251 85.43 84.3509 86.31 84.4509C86.75 84.5109 87.19 84.521 87.61 84.611C88.04 84.701 88.46 84.7909 88.88 84.8809C89.72 85.0509 90.56 85.231 91.39 85.401C92.2 85.651 93 85.891 93.79 86.141C100.11 88.141 105.5 91.341 110.08 95.291L110.14 95.301Z" fill="#101214"/>
</svg>
