<svg width="216" height="163" viewBox="0 0 216 163" fill="none" xmlns="http://www.w3.org/2000/svg">
<path d="M200.372 90.2763C201.182 84.7363 197.842 84.3463 196.432 89.3663C196.302 89.8163 196.192 90.2663 196.042 90.7063C195.882 91.1463 195.732 91.5863 195.572 92.0363C195.262 92.9263 194.952 93.8163 194.632 94.7263C194.312 95.6363 193.892 96.5063 193.522 97.4263C193.122 98.3263 192.812 99.2763 192.312 100.176C191.862 101.086 191.402 102.016 190.922 102.956C190.442 103.896 189.852 104.806 189.302 105.766C189.012 106.236 188.762 106.736 188.442 107.206C188.122 107.666 187.792 108.146 187.462 108.616C186.812 109.576 186.162 110.576 185.362 111.506C182.002 115.906 179.512 118.386 177.252 120.436C176.682 120.946 176.132 121.436 175.592 121.926C175.012 122.376 174.422 122.816 173.822 123.276C172.642 124.226 171.232 125.036 169.592 126.016C166.742 127.566 163.302 129.216 159.522 130.466C155.782 131.766 151.642 132.596 147.822 133.506C145.892 133.886 143.992 134.166 142.222 134.466C140.452 134.766 138.792 135.046 137.262 135.186C134.222 135.516 131.842 135.786 130.502 135.906C129.712 135.956 128.912 136.026 128.122 136.126C125.302 136.486 117.682 137.506 107.982 137.796C98.292 138.136 86.562 137.896 75.782 136.816C72.782 136.566 69.792 136.266 66.812 135.936C65.322 135.746 63.832 135.586 62.342 135.386L60.122 135.086L56.642 134.546L53.242 137.016L50.852 138.716L46.042 142.076C36.382 148.726 29.182 153.686 22.062 158.486C18.132 161.056 19.452 163.646 23.842 161.626C31.732 157.856 39.432 153.386 49.232 146.706C50.252 145.996 51.602 145.136 53.272 144.076C54.102 143.546 55.012 142.956 56.002 142.326C56.492 142.006 57.012 141.676 57.542 141.326L57.942 141.066C58.042 141.006 58.012 141.036 58.052 141.016L58.182 140.976L58.292 141.036L58.342 141.066C58.342 141.066 58.342 141.066 58.372 141.076L58.582 141.116C59.142 141.216 59.722 141.326 60.322 141.436C61.512 141.646 62.782 141.866 64.102 142.066C66.752 142.486 69.662 142.856 72.792 143.186C75.002 143.406 77.222 143.556 79.422 143.566C88.932 143.726 99.832 143.776 108.362 143.496C110.492 143.416 112.482 143.346 114.252 143.286C116.032 143.176 117.602 143.076 118.902 142.996C120.202 142.916 121.242 142.856 121.952 142.816C122.662 142.776 123.052 142.746 123.052 142.746C123.052 142.746 125.342 142.506 129.022 142.126C129.942 142.016 130.952 141.946 132.022 141.786C133.102 141.626 134.242 141.456 135.452 141.276C136.662 141.096 137.922 140.906 139.232 140.706C140.542 140.526 141.882 140.196 143.252 139.936C146.002 139.376 148.872 138.856 151.702 138.026C153.122 137.646 154.542 137.266 155.962 136.896C157.372 136.546 158.762 136.006 160.132 135.586C165.582 133.716 170.402 131.286 173.792 129.176C178.932 126.026 182.312 123.016 184.772 120.656C185.972 119.436 186.932 118.356 187.782 117.456C188.592 116.516 189.212 115.686 189.772 114.986C190.642 113.946 191.362 112.836 192.062 111.766C192.412 111.226 192.762 110.696 193.102 110.176C193.432 109.646 193.712 109.096 194.012 108.566C194.582 107.486 195.192 106.466 195.672 105.406C196.132 104.346 196.582 103.306 197.022 102.286C197.492 101.276 197.772 100.226 198.122 99.2163C198.442 98.1963 198.812 97.2163 199.062 96.2163C199.302 95.2163 199.532 94.2263 199.762 93.2463C199.872 92.7563 199.982 92.2663 200.092 91.7863C200.192 91.2963 200.242 90.8063 200.322 90.3163L200.372 90.2763Z" fill="#101214"/>
<path d="M22.042 144.506C21.242 147.756 21.552 149.636 22.432 149.936C23.292 150.236 24.752 148.916 25.912 145.666C26.732 143.366 27.502 141.026 28.232 138.596C28.602 137.386 28.952 136.146 29.292 134.886C29.462 134.256 29.632 133.616 29.802 132.976L30.052 132.006C30.182 131.466 30.312 130.916 30.442 130.366C30.572 129.776 30.722 129.176 30.822 128.576C30.412 128.116 30.012 127.656 29.592 127.196C28.992 126.526 28.392 125.856 27.782 125.176C27.332 124.666 26.872 124.156 26.402 123.626C25.952 123.086 25.502 122.546 25.052 122.006C23.202 119.826 21.362 117.476 19.492 114.946C17.352 112.086 15.722 109.696 14.372 107.606C13.722 106.546 13.082 105.606 12.542 104.676C12.012 103.746 11.512 102.876 11.032 102.036C9.24203 98.6263 7.77203 95.6463 6.53203 91.0163C5.46203 87.1263 4.77203 82.4163 4.99203 77.5463C5.20203 72.6863 6.23203 67.6963 8.07203 63.3163C9.86203 58.9263 12.252 55.1263 14.482 52.1963C15.562 50.7063 16.682 49.4963 17.582 48.4363C18.542 47.4263 19.302 46.5863 19.882 46.0263C20.582 45.3563 21.252 44.6763 21.912 43.9663C23.152 42.7663 25.392 40.4763 28.752 37.8263C32.082 35.1663 36.452 32.0863 41.672 29.1563C46.882 26.2363 52.882 23.3963 59.262 21.0363C65.642 18.6663 72.362 16.6763 78.932 15.2663C83.562 14.2063 87.792 13.4363 91.622 12.8763C95.452 12.2963 98.872 11.9363 101.902 11.6663C107.962 11.1563 112.432 11.0663 115.502 11.0763C122.742 11.0563 129.052 11.4563 134.852 12.0763C140.652 12.7063 145.942 13.5563 151.142 14.7063C156.782 16.0663 157.842 13.3463 152.132 11.2363C146.932 9.42633 141.522 8.04633 135.542 7.05633C129.562 6.06633 123.002 5.46633 115.502 5.46633C112.592 5.44633 108.092 5.33633 102.172 5.58633C96.262 5.82633 88.922 6.50633 80.472 8.18633C77.722 8.74633 75.002 9.44633 72.342 10.2563C66.602 12.0163 60.522 14.1763 54.712 16.5863C48.902 18.9963 43.362 21.6863 38.652 24.3363C33.932 26.9763 30.062 29.5863 27.382 31.5463C26.032 32.5063 24.992 33.3263 24.282 33.8863C23.572 34.4463 23.182 34.7463 23.182 34.7463C23.182 34.7463 22.622 35.2163 21.622 36.0863C20.602 36.9263 19.202 38.2363 17.502 39.8763C15.842 41.5663 13.882 43.5963 11.952 46.0663C9.98203 48.4963 8.02203 51.3463 6.29203 54.5263C4.56203 57.6963 3.01203 61.1763 1.95203 64.8463C0.892026 68.5063 0.262025 72.3063 0.0720255 75.9763C-0.347975 83.3663 1.14203 90.0963 2.64203 94.8563C3.15203 96.6763 3.87203 98.2863 4.43203 99.8463C5.08203 101.356 5.70203 102.756 6.31203 104.046C6.96203 105.316 7.57203 106.486 8.13203 107.586C8.75203 108.646 9.32203 109.626 9.85203 110.536C10.912 112.356 11.942 113.806 12.752 115.086C13.632 116.326 14.372 117.356 15.002 118.246C16.982 120.916 18.942 123.346 20.932 125.566C21.422 126.126 21.912 126.676 22.392 127.216C22.892 127.746 23.382 128.256 23.872 128.776L24.602 129.536L24.772 129.716L24.832 129.766L24.942 129.876L25.182 130.106L25.142 130.426L25.122 130.586C25.112 130.656 25.122 130.646 25.072 130.856L24.882 131.816C24.752 132.456 24.622 133.086 24.492 133.706C24.222 134.956 23.962 136.186 23.702 137.396C23.172 139.816 22.632 142.166 22.062 144.476L22.042 144.506Z" fill="#101214"/>
<path d="M174.552 77.1463C174.912 79.1463 178.252 79.1363 178.602 77.1363C179.092 74.2963 179.342 71.3063 179.342 67.4763C179.162 63.1363 178.462 62.0563 178.532 59.1163C178.502 54.1463 179.402 45.7563 179.632 43.7363C179.662 43.4363 179.672 43.1363 179.652 42.8363C179.522 40.6963 178.982 31.3063 179.222 23.2263C179.222 17.5163 179.222 13.9863 179.222 12.1463C179.222 7.79629 178.902 4.53629 178.342 1.36629C178.032 -0.373712 175.122 -0.503712 174.732 1.27629C174.022 4.48629 173.652 7.75629 173.612 12.1263C173.602 13.8263 172.782 17.3563 172.642 22.3463C172.622 23.1563 172.672 23.9763 172.802 24.7763C173.892 31.7363 173.612 40.7563 173.612 40.7563C173.612 40.7563 173.652 54.2263 173.662 59.9063C173.692 64.1863 173.702 66.2463 173.712 67.5063C173.752 71.3363 174.032 74.3163 174.542 77.1563L174.552 77.1463Z" fill="#101214"/>
<path d="M138.392 37.6363C136.392 37.9963 136.402 41.3363 138.402 41.6863C141.242 42.1763 144.232 42.4263 148.062 42.4263C152.402 42.2463 153.482 41.5463 156.422 41.6163C161.392 41.5863 169.782 42.4863 171.802 42.7163C172.102 42.7463 172.402 42.7563 172.702 42.7363C174.842 42.6063 184.232 42.0663 192.312 42.3063C198.022 42.3063 201.552 42.3063 203.392 42.3063C207.742 42.3063 211.002 41.9863 214.172 41.4263C215.912 41.1163 216.042 38.2063 214.262 37.8163C211.052 37.1063 207.782 36.7363 203.412 36.6963C201.712 36.6863 198.182 35.8663 193.192 35.7263C192.382 35.7063 191.562 35.7563 190.762 35.8863C183.802 36.9763 174.782 36.6963 174.782 36.6963C174.782 36.6963 161.312 36.7363 155.632 36.7463C151.352 36.7763 149.292 36.7863 148.022 36.7963C144.192 36.8363 141.212 37.1163 138.372 37.6263L138.392 37.6363Z" fill="#101214"/>
</svg>
