<svg width="194" height="193" viewBox="0 0 194 193" fill="none" xmlns="http://www.w3.org/2000/svg">
<path d="M64.1937 16.8585C76.3137 16.5085 76.3137 13.1585 64.1937 12.8085C55.6037 12.5585 46.7938 12.3685 37.2338 12.2385C32.4538 12.1885 27.4837 12.1385 22.2638 12.0885C19.6538 12.0785 16.9737 12.0585 14.2337 12.0485C12.8637 12.0485 11.4638 12.0485 10.0538 12.0385C9.34375 12.0385 8.63375 12.0385 7.92375 12.0385C6.79375 12.0185 5.50375 12.3185 4.42375 12.8785C1.92375 14.1685 0.44375 16.8285 0.45375 19.3585C0.46375 20.8685 0.48375 22.3185 0.49375 23.6985C0.53375 26.4285 0.57375 28.9085 0.61375 31.2085C0.72375 35.7985 0.80375 39.6385 0.89375 43.2085C1.07375 50.3585 1.23375 56.4485 1.19375 65.3585C1.19375 95.4585 0.26375 146.249 0.03375 158.489C0.00375 160.299 -0.00625 162.109 0.00375 163.929C0.03375 167.169 0.08375 173.159 0.15375 181.079C0.15375 182.069 0.17375 183.089 0.17375 184.139C0.17375 184.399 0.17375 184.669 0.17375 184.929C0.17375 185.019 0.18375 185.329 0.19375 185.539C0.19375 185.769 0.23375 186.009 0.27375 186.239C0.42375 187.169 0.75375 188.089 1.24375 188.929C2.22375 190.599 3.87375 191.909 5.84375 192.429C6.77375 192.709 8.05375 192.709 8.44375 192.689C9.03375 192.689 9.63375 192.689 10.2337 192.679C15.0637 192.649 20.2638 192.619 25.7537 192.589C47.7137 192.479 74.1738 192.409 98.6538 192.529C133.234 192.529 154.644 192.509 165.824 192.509C166.284 192.509 166.504 192.529 167.324 192.479C168.014 192.409 168.704 192.269 169.344 192.009C170.634 191.509 171.764 190.659 172.584 189.579C173.414 188.509 173.914 187.189 174.064 185.869C174.084 185.699 174.084 185.539 174.094 185.369V184.949V184.359V183.189C174.074 180.089 174.054 177.069 174.034 174.139C173.964 168.269 173.904 162.729 173.844 157.399C173.674 146.749 173.434 136.969 173.114 127.289C172.764 116.649 169.854 116.649 169.504 127.289C169.184 136.969 168.944 146.749 168.774 157.399C168.714 162.729 168.644 168.269 168.584 174.139C168.564 177.069 168.544 180.079 168.534 183.189V184.359V184.949C168.534 185.069 168.534 185.099 168.534 185.139V185.269C168.484 185.599 168.364 185.919 168.154 186.179C167.954 186.449 167.664 186.659 167.344 186.779C166.994 186.909 166.864 186.909 165.834 186.899C155.574 186.899 134.204 186.099 104.024 185.959C99.1038 185.939 94.1938 185.989 89.3138 186.119C68.2738 186.659 44.0938 186.859 25.1838 186.919C20.4538 186.919 16.0537 186.939 12.1137 186.939H9.24375C8.78375 186.939 8.32375 186.939 7.87375 186.939C7.66375 186.939 7.49375 186.909 7.31375 186.859C6.60375 186.649 6.13375 186.009 6.03375 185.419C6.03375 185.339 6.00375 185.269 6.01375 185.189V185.079V184.829C6.01375 184.489 6.01375 184.149 6.01375 183.829C6.01375 183.179 6.01375 182.579 6.01375 182.009C6.01375 180.879 6.01375 179.909 6.01375 179.119C6.01375 177.539 6.02375 176.689 6.02375 176.689C6.02375 176.689 6.03375 95.1785 6.04375 60.7685C6.04375 47.8185 6.04375 38.2185 6.03375 30.9085C6.03375 27.2485 6.03375 24.1685 6.03375 21.5185C6.03375 20.8585 6.03375 20.2185 6.03375 19.6085C6.03375 19.2385 6.07375 19.0785 6.16375 18.8385C6.33375 18.3985 6.67375 18.0785 7.02375 17.8885C7.31375 17.7585 7.55375 17.6785 7.92375 17.6785C8.64375 17.6785 9.35375 17.6785 10.0538 17.6785C11.4638 17.6785 12.8537 17.6785 14.2337 17.6685C16.9837 17.6585 19.6538 17.6385 22.2638 17.6285C27.4837 17.5785 32.4538 17.5285 37.2338 17.4785C46.7938 17.3485 55.6037 17.1585 64.1937 16.9085V16.8585Z" fill="#101214"/>
<path d="M143.914 94.3686C144.274 96.8086 147.624 96.8086 147.964 94.3586C148.444 90.8786 148.694 87.2386 148.694 82.5486C148.514 77.2386 147.814 75.9186 147.874 72.3186C147.844 66.2386 148.734 55.9786 148.964 53.4986C148.994 53.1286 149.004 52.7686 148.984 52.3986C148.854 49.7786 148.304 38.2986 148.554 28.4086C148.554 21.4286 148.554 17.1086 148.564 14.8486C148.564 9.52855 148.254 5.53855 147.704 1.65855C147.404 -0.471445 144.494 -0.601445 144.094 1.56855C143.364 5.49855 142.994 9.48855 142.944 14.8286C142.934 16.9086 142.114 21.2286 141.974 27.3286C141.954 28.3186 142.004 29.3186 142.134 30.2986C143.224 38.8086 142.954 49.8486 142.954 49.8486C142.954 49.8486 143.004 66.3185 143.024 73.2785C143.054 78.5085 143.074 81.0286 143.084 82.5786C143.124 87.2686 143.414 90.9086 143.924 94.3786L143.914 94.3686Z" fill="#101214"/>
<path d="M99.3037 46.4386C96.8637 46.7986 96.8637 50.1486 99.3137 50.4886C102.794 50.9686 106.434 51.2186 111.124 51.2186C116.434 51.0386 117.754 50.3386 121.354 50.3986C127.434 50.3686 137.694 51.2586 140.174 51.4886C140.544 51.5186 140.904 51.5286 141.274 51.5086C143.894 51.3786 155.374 50.8286 165.264 51.0786C172.244 51.0786 176.564 51.0786 178.824 51.0886C184.144 51.0886 188.134 50.7786 192.014 50.2286C194.144 49.9286 194.274 47.0186 192.104 46.6186C188.174 45.8886 184.184 45.5186 178.844 45.4686C176.764 45.4586 172.444 44.6386 166.344 44.4986C165.354 44.4786 164.354 44.5286 163.374 44.6586C154.864 45.7486 143.824 45.4786 143.824 45.4786C143.824 45.4786 127.354 45.5286 120.394 45.5486C115.154 45.5786 112.644 45.5986 111.094 45.6086C106.404 45.6486 102.764 45.9386 99.2937 46.4486L99.3037 46.4386Z" fill="#101214"/>
</svg>
