<svg width="212" height="212" viewBox="0 0 212 212" fill="none" xmlns="http://www.w3.org/2000/svg">
<path d="M107.645 151.16C107.295 149.59 103.945 149.59 103.595 151.16C103.095 153.39 102.835 155.73 102.815 158.74C102.975 162.15 103.665 163 103.585 165.32C103.585 169.23 102.655 175.82 102.425 177.41C102.395 177.64 102.385 177.88 102.395 178.12C102.525 179.8 103.025 187.18 102.785 193.54C102.785 198.03 102.805 200.81 102.805 202.26C102.835 205.69 103.175 208.25 103.805 210.76C104.155 212.14 107.065 212.14 107.415 210.76C108.055 208.25 108.395 205.68 108.415 202.26C108.415 200.93 109.215 198.15 109.355 194.24C109.375 193.6 109.325 192.96 109.195 192.33C108.105 186.87 108.415 179.78 108.415 179.78C108.415 179.78 108.425 169.2 108.435 164.73C108.435 161.37 108.425 159.75 108.415 158.75C108.395 155.74 108.125 153.4 107.625 151.17L107.645 151.16Z" fill="#101214"/>
<path d="M107.645 1.17C107.295 -0.39 103.945 -0.39 103.595 1.17C103.095 3.38 102.835 5.71 102.815 8.69C102.975 12.08 103.665 12.92 103.585 15.21C103.585 19.09 102.655 25.63 102.425 27.2C102.395 27.43 102.385 27.67 102.395 27.9C102.525 29.57 103.025 36.89 102.785 43.2C102.785 47.65 102.805 50.41 102.805 51.85C102.835 55.25 103.175 57.79 103.805 60.28C104.155 61.65 107.065 61.65 107.415 60.28C108.055 57.79 108.395 55.25 108.415 51.85C108.415 50.53 109.215 47.78 109.355 43.89C109.375 43.26 109.325 42.62 109.195 42C108.105 36.58 108.415 29.55 108.415 29.55C108.415 29.55 108.425 19.05 108.435 14.62C108.435 11.28 108.425 9.68 108.415 8.69C108.395 5.7 108.125 3.38 107.625 1.17H107.645Z" fill="#101214"/>
<path d="M58.705 107.65C60.225 107.3 60.225 103.95 58.705 103.6C56.545 103.1 54.275 102.84 51.365 102.82C48.055 102.98 47.235 103.67 44.995 103.59C41.215 103.59 34.825 102.66 33.285 102.43C33.055 102.4 32.835 102.39 32.605 102.4C30.975 102.53 23.825 103.03 17.675 102.79C13.325 102.79 10.635 102.81 9.235 102.81C5.915 102.84 3.435 103.18 1.005 103.81C-0.335 104.16 -0.335 107.07 1.005 107.42C3.435 108.06 5.915 108.4 9.235 108.42C10.525 108.42 13.215 109.22 17.005 109.36C17.625 109.38 18.245 109.33 18.855 109.2C24.145 108.11 31.015 108.42 31.015 108.42C31.015 108.42 41.265 108.43 45.585 108.44C48.845 108.44 50.405 108.43 51.375 108.42C54.295 108.4 56.555 108.13 58.715 107.63L58.705 107.65Z" fill="#101214"/>
<path d="M210.565 107.65C212.195 107.3 212.195 103.95 210.565 103.6C208.255 103.1 205.825 102.84 202.705 102.82C199.165 102.98 198.285 103.67 195.895 103.59C191.845 103.59 185.015 102.66 183.375 102.43C183.135 102.4 182.885 102.39 182.645 102.4C180.905 102.53 173.255 103.03 166.675 102.79C162.025 102.79 159.145 102.81 157.645 102.81C154.095 102.84 151.445 103.18 148.835 103.81C147.405 104.16 147.405 107.07 148.835 107.42C151.435 108.06 154.095 108.4 157.645 108.42C159.025 108.42 161.895 109.22 165.955 109.36C166.615 109.38 167.275 109.33 167.935 109.2C173.595 108.11 180.935 108.42 180.935 108.42C180.935 108.42 191.895 108.43 196.525 108.44C200.005 108.44 201.685 108.43 202.715 108.42C205.835 108.4 208.265 108.13 210.575 107.63L210.565 107.65Z" fill="#101214"/>
<path d="M137.345 136.3C135.635 135.02 133.215 137.33 134.415 139.09C136.115 141.59 138.095 144.05 140.865 146.98C144.135 150.18 145.425 150.52 147.505 152.82C151.125 156.6 156.545 163.64 157.845 165.34C158.035 165.59 158.245 165.82 158.475 166.04C160.125 167.58 167.315 174.39 173.025 180.72C177.185 185.06 179.755 187.75 181.105 189.16C184.295 192.46 186.915 194.71 189.695 196.71C191.225 197.81 193.335 195.8 192.305 194.22C190.435 191.34 188.315 188.63 185.165 185.29C183.935 184 181.945 180.76 178.425 176.86C177.855 176.23 177.225 175.65 176.545 175.12C170.705 170.58 164.365 163.49 164.365 163.49C164.365 163.49 154.585 153.23 150.455 148.89C147.335 145.64 145.835 144.07 144.915 143.11C142.115 140.21 139.755 138.12 137.335 136.3H137.345Z" fill="#101214"/>
<path d="M20.655 14.04C18.935 12.75 16.515 15.06 17.725 16.83C19.445 19.35 21.425 21.82 24.215 24.77C27.505 27.99 28.795 28.34 30.895 30.65C34.535 34.46 39.995 41.53 41.305 43.24C41.495 43.49 41.715 43.73 41.945 43.95C43.605 45.5 50.835 52.35 56.585 58.71C60.765 63.08 63.365 65.79 64.715 67.2C67.925 70.52 70.555 72.79 73.355 74.8C74.895 75.91 76.995 73.9 75.965 72.31C74.085 69.42 71.945 66.69 68.775 63.33C67.535 62.03 65.535 58.77 61.995 54.85C61.415 54.21 60.785 53.63 60.105 53.1C54.235 48.53 47.855 41.4 47.855 41.4C47.855 41.4 38.015 31.07 33.865 26.72C30.725 23.45 29.215 21.87 28.295 20.9C25.475 17.98 23.105 15.88 20.665 14.05L20.655 14.04Z" fill="#101214"/>
<path d="M73.3051 139.26C74.5251 137.57 72.1651 135.19 70.4551 136.38C68.0351 138.08 65.6651 140.04 62.8551 142.8C59.7951 146.05 59.4951 147.32 57.2851 149.4C53.6551 153 46.8751 158.4 45.2351 159.69C44.9951 159.88 44.7651 160.09 44.5651 160.32C43.0851 161.96 36.5851 169.11 30.5151 174.78C26.3451 178.92 23.7751 181.47 22.4251 182.81C19.2551 185.98 17.1151 188.58 15.2251 191.34C14.1851 192.86 16.2351 194.93 17.7651 193.91C20.5451 192.05 23.1651 189.94 26.3751 186.81C27.6151 185.59 30.7551 183.61 34.4951 180.1C35.1051 179.53 35.6551 178.9 36.1551 178.23C40.4651 172.43 47.2651 166.13 47.2651 166.13C47.2651 166.13 57.1051 156.41 61.2651 152.3C64.3851 149.2 65.8851 147.71 66.8051 146.79C69.5851 144 71.5751 141.66 73.3051 139.26Z" fill="#101214"/>
<path d="M194.855 18.99C196.095 17.27 193.745 14.89 192.005 16.11C189.545 17.85 187.135 19.85 184.265 22.66C181.145 25.97 180.825 27.26 178.585 29.37C174.885 33.04 167.985 38.55 166.315 39.88C166.065 40.08 165.835 40.29 165.625 40.52C164.115 42.19 157.485 49.47 151.295 55.25C147.045 59.46 144.425 62.07 143.045 63.44C139.815 66.67 137.625 69.31 135.695 72.12C134.635 73.66 136.675 75.73 138.235 74.69C141.065 72.79 143.735 70.63 146.995 67.43C148.255 66.18 151.455 64.15 155.255 60.58C155.875 60 156.445 59.36 156.955 58.68C161.365 52.79 168.295 46.36 168.295 46.36C168.295 46.36 178.325 36.45 182.565 32.27C185.745 29.11 187.275 27.59 188.215 26.66C191.055 23.82 193.085 21.44 194.845 18.99H194.855Z" fill="#101214"/>
</svg>
