<svg width="195" height="198" viewBox="0 0 195 198" fill="none" xmlns="http://www.w3.org/2000/svg">
<path d="M65.6056 155.086C59.0556 155.466 59.0556 158.816 65.6256 159.136C74.9356 159.576 84.7156 159.756 97.2956 159.526C104.426 159.296 108.876 158.956 112.746 158.636C116.626 158.316 119.916 158.036 124.776 157.786C126.496 157.676 128.346 157.556 130.396 157.376C130.916 157.326 131.436 157.266 131.976 157.216C132.266 157.176 132.556 157.146 132.846 157.106C133.266 157.046 133.726 156.976 134.166 156.886C135.056 156.716 135.936 156.446 136.616 155.946C136.786 155.816 136.956 155.676 137.086 155.496C137.196 155.326 137.246 155.106 137.326 154.916L137.546 154.316C137.636 154.126 137.626 153.846 137.666 153.606L137.756 152.436L137.846 151.496C137.896 151.036 137.946 150.566 137.996 150.096C138.096 149.146 138.196 148.186 138.306 147.226C138.496 145.286 138.686 143.316 138.826 141.346C139.116 137.406 139.236 133.486 139.186 129.846C139.116 122.566 138.096 116.456 137.496 113.756C137.306 112.736 137.016 111.736 136.696 110.736C136.136 108.966 135.026 105.656 132.786 101.586C132.246 100.556 131.526 99.5364 130.846 98.4264C130.456 97.8964 130.056 97.3664 129.646 96.8064C129.246 96.2464 128.816 95.6964 128.316 95.1664C127.836 94.6264 127.346 94.0864 126.846 93.5264C126.296 93.0164 125.736 92.4964 125.176 91.9664C124.626 91.4164 123.996 90.9464 123.356 90.4664C122.706 89.9964 122.106 89.4464 121.386 89.0464C118.666 87.1864 115.476 85.8164 112.156 84.7364C110.466 84.2864 108.766 83.7864 107.006 83.5464C105.226 83.2164 103.566 83.0164 101.826 82.8464C94.8456 82.1164 87.5856 82.4264 80.6956 83.9164C75.8456 85.0264 71.5756 86.7764 68.0056 88.9064C64.4356 91.0364 61.5856 93.5664 59.4656 96.1164C57.3456 98.6764 55.8656 101.196 54.8856 103.466C54.3656 104.586 54.0356 105.666 53.6656 106.636C53.3956 107.626 53.1456 108.516 52.9256 109.326C52.4856 111.236 52.2256 113.106 52.1056 114.926C52.0456 115.826 52.0156 116.736 52.0156 117.596C52.0356 118.416 52.0556 119.226 52.0756 120.016C52.1556 123.206 52.2656 126.216 52.3856 129.106C52.6256 134.896 52.9356 140.196 53.3156 145.446C53.7356 151.216 56.6456 151.136 56.9256 145.376C57.1756 140.136 57.3556 134.856 57.4556 129.106C57.5056 126.226 57.5356 123.236 57.5356 120.076C57.5356 119.286 57.5356 118.486 57.5356 117.666C57.5356 116.886 57.5856 116.126 57.6556 115.336C57.7856 113.776 58.0156 112.186 58.3956 110.586C58.5756 109.976 58.7756 109.286 59.0056 108.506C59.2856 107.756 59.6256 106.936 60.0156 106.056C60.8756 104.336 62.0356 102.416 63.6656 100.496C66.9456 96.6864 72.2856 93.0464 79.5756 91.0064C81.9456 90.3564 84.3556 89.7864 86.8056 89.3364C89.4456 88.8264 92.2556 88.5564 95.1156 88.4764C97.9556 88.3964 100.846 88.5664 103.756 88.8764C109.406 89.3964 114.546 91.2764 118.446 93.8864C122.326 96.5364 124.866 99.8264 126.406 102.266C126.786 102.886 127.116 103.446 127.416 103.936C127.676 104.446 127.896 104.886 128.076 105.246C128.436 105.956 128.626 106.346 128.626 106.346C131.806 113.216 133.156 120.986 133.606 128.766C133.826 132.666 133.816 136.596 133.646 140.536C133.546 142.506 133.436 144.476 133.266 146.456L132.816 151.666L132.796 151.906C132.806 151.996 132.766 152.066 132.676 152.086C132.526 152.146 132.366 152.166 132.196 152.196L130.916 152.366L129.156 152.546C126.786 152.756 124.376 152.906 121.966 153.036C108.036 153.706 101.276 153.746 97.1456 153.866C84.6156 154.136 74.8556 154.486 65.5656 155.046L65.6056 155.086Z" fill="#101214"/>
<path d="M96.1156 71.4064C94.8856 71.5864 94.1756 72.4164 94.0756 73.3464C93.9756 74.2564 94.6356 75.2864 96.1556 75.4564C98.2856 75.6664 100.496 75.6264 102.916 75.0164C105.316 74.4364 107.936 73.2564 110.276 71.0864C111.566 69.8264 112.376 68.5864 112.946 67.4864C113.526 66.3864 113.846 65.4064 114.106 64.5164C114.586 62.7064 114.806 61.1664 115.056 58.9564C115.236 57.0864 115.226 54.9164 114.956 52.6564C114.686 50.3964 114.096 48.0164 113.106 45.8664C112.146 43.7164 110.786 41.8164 109.416 40.4664C108.056 39.0964 106.746 38.2764 106.026 37.8264C105.586 37.5864 105.136 37.3364 104.666 37.1764C103.826 36.8764 102.236 36.3564 100.136 36.1064C98.0256 35.8364 95.4856 35.8864 92.7156 36.3864C89.9456 36.8964 86.8256 37.9864 84.1156 40.0264C81.3856 42.0464 79.2856 45.0164 78.1356 48.0764C76.6256 52.4764 76.7856 56.1164 77.0956 58.8564C77.4356 61.6464 78.1356 63.6764 78.6756 65.0264C79.9856 68.2464 82.1456 70.7464 84.5156 72.3564C86.9256 73.9564 89.4956 74.7064 91.9456 74.8464C93.3056 74.9264 94.0256 74.1364 94.0856 73.3464C94.1556 72.5164 93.6556 71.6764 92.6356 71.3064C88.9056 69.9164 85.8256 67.5664 83.8656 62.8864C83.5056 61.9664 83.1756 60.4464 83.1256 58.3964C83.0756 56.3464 83.2456 53.7764 84.0356 51.2064C84.3156 50.3764 84.5356 49.5464 84.8356 48.7464C85.4256 46.9864 86.6456 45.3464 88.2756 44.1664C89.9156 42.9964 91.8956 42.2764 93.7456 41.9664C95.5956 41.6464 97.2456 41.6664 98.3556 41.7764C98.9056 41.8464 99.3456 41.9164 99.6456 41.9664C99.9356 42.0364 100.096 42.0764 100.096 42.0764C100.096 42.0764 101.066 42.2164 102.476 42.7964C103.876 43.3764 105.646 44.4864 107.066 46.2864C108.506 48.0664 109.466 50.5264 109.936 52.9664C110.396 55.4164 110.366 57.7764 110.126 59.4164C109.756 61.9064 108.996 63.5664 108.296 64.7064C107.576 65.8464 106.946 66.5164 106.436 66.9964C104.896 68.4564 103.166 69.3964 101.416 70.0564C99.6756 70.7364 97.8856 71.1364 96.1256 71.4164L96.1156 71.4064Z" fill="#101214"/>
<path d="M167.116 58.6064C167.336 59.5164 167.556 60.3764 167.746 61.1764C167.916 61.9864 168.096 62.7264 168.266 63.4164C168.436 64.1064 168.616 64.7364 168.786 65.3064C168.926 65.8864 169.076 66.4064 169.226 66.8664C169.806 68.7064 170.376 69.6164 170.836 69.5764C171.296 69.5364 171.646 68.5364 171.796 66.5564C171.836 66.0664 171.856 65.5064 171.866 64.8864C171.856 64.2764 171.816 63.5964 171.766 62.8664C171.716 62.1364 171.636 61.3364 171.546 60.4864C171.426 59.6364 171.266 58.7264 171.086 57.7664C170.036 52.2964 168.446 46.8064 166.136 41.4164C164.996 38.7164 163.616 36.0664 162.106 33.4364C160.506 30.8564 158.816 28.2564 156.806 25.8164C152.886 20.8564 147.996 16.3464 142.276 12.4464C139.396 10.5464 136.316 8.78638 133.036 7.22638C129.746 5.69638 126.266 4.37638 122.606 3.26638C118.456 2.03638 114.606 1.29638 111.066 0.806383C109.296 0.526383 107.596 0.416383 105.966 0.246383C104.336 0.166383 102.776 0.0263826 101.276 0.0263826C99.7756 -0.00361741 98.3456 -0.0136174 96.9556 0.0263826C95.5756 0.0463826 94.2456 0.126383 92.9556 0.216383C91.6656 0.266383 90.4156 0.466383 89.2056 0.606383C87.9856 0.766383 86.8056 0.886383 85.6456 1.06638C81.0456 1.93638 76.8256 2.92638 72.4956 4.47638C71.4156 4.85638 70.3156 5.24638 69.1856 5.64638C68.0856 6.10638 66.9656 6.58638 65.8056 7.07638C65.2256 7.31638 64.6356 7.56638 64.0356 7.81638C63.4556 8.10638 62.8656 8.39638 62.2656 8.69638C61.0656 9.29638 59.8056 9.87638 58.5356 10.5664C54.2656 12.9264 49.7656 15.7364 45.3356 19.0864C40.9356 22.4764 36.5556 26.3264 32.4056 30.5764C24.1756 39.1464 17.0156 49.4064 11.8856 59.8464C9.1956 65.0164 7.1856 70.3164 5.4056 75.3464C5.0156 76.6264 4.6256 77.8764 4.2456 79.1064C4.0556 79.7264 3.8556 80.3364 3.6956 80.9464C3.5456 81.5664 3.3956 82.1764 3.2456 82.7764C2.9456 83.9864 2.6556 85.1664 2.3656 86.3264C2.1156 87.4864 1.9156 88.6364 1.7056 89.7564C0.00560212 98.6864 -0.0243979 105.916 0.00560213 109.936C0.0456021 111.126 0.145602 112.316 0.225602 113.506C0.335602 114.696 0.355602 115.886 0.575602 117.066C1.1256 121.286 2.4056 129.166 6.3456 138.856C8.4456 143.636 11.0856 148.876 14.6456 154.116C18.2356 159.326 22.6156 164.596 27.7956 169.566C38.1356 179.526 51.9656 187.916 67.3956 192.816C69.3456 193.366 71.2656 194.026 73.2456 194.496C75.2256 194.946 77.2156 195.396 79.2056 195.846L85.2556 196.806C86.2656 196.996 87.2756 197.046 88.2856 197.146L91.3156 197.416L94.3456 197.686L95.8556 197.816L97.3756 197.846C99.4056 197.886 101.426 197.916 103.446 197.956C103.946 197.956 104.456 197.986 104.956 197.976L106.466 197.886C107.476 197.826 108.476 197.766 109.486 197.716C111.496 197.586 113.496 197.546 115.466 197.206C126.666 195.856 136.596 192.706 144.866 188.546C145.886 188.006 146.896 187.476 147.896 186.946C148.396 186.686 148.886 186.426 149.376 186.166C149.856 185.886 150.306 185.576 150.776 185.276C151.696 184.686 152.606 184.096 153.496 183.526C154.376 182.936 155.296 182.416 156.096 181.756C157.726 180.496 159.306 179.266 160.846 178.076C162.276 176.766 163.666 175.496 165.006 174.266C165.696 173.666 166.296 173.006 166.896 172.366C167.496 171.726 168.086 171.096 168.656 170.466C169.236 169.846 169.806 169.236 170.356 168.636C170.866 167.996 171.366 167.366 171.856 166.756C172.836 165.516 173.806 164.346 174.676 163.176C175.496 161.966 176.296 160.816 177.056 159.706C180.056 155.226 182.156 151.256 183.746 147.976C187.486 140.226 190.006 132.546 191.736 125.136C193.446 117.716 194.426 110.566 194.696 103.676C194.966 96.7764 194.646 90.1464 193.756 83.7464C192.876 77.3464 191.366 71.1564 189.056 65.2764C187.746 62.0564 186.466 59.7564 185.316 58.4064C184.216 57.0264 183.466 56.4864 183.116 56.6964C182.766 56.9064 182.806 57.8564 183.286 59.4664C183.816 61.0564 184.576 63.4164 185.656 66.5164C187.556 72.1864 188.726 78.1464 189.336 84.3064C189.946 90.4564 190.056 96.8164 189.626 103.416C189.206 110.016 188.136 116.836 186.416 123.896C184.676 130.946 182.226 138.226 178.676 145.556C175.956 151.226 170.966 159.806 161.976 168.786C157.396 173.166 151.806 177.576 144.986 181.306C138.186 185.036 130.156 188.066 121.116 189.716C120.396 189.906 119.646 189.986 118.906 190.096L116.676 190.416C115.186 190.616 113.716 190.886 112.226 191.036C110.726 191.146 109.236 191.256 107.736 191.356C106.236 191.446 104.756 191.646 103.256 191.606C101.636 191.606 100.006 191.616 98.3556 191.626C97.5356 191.626 96.7056 191.646 95.8756 191.626C95.0456 191.566 94.2156 191.506 93.3756 191.446C91.7056 191.326 90.0256 191.206 88.3356 191.086L87.0656 190.996L85.8156 190.826L83.3056 190.466L80.7856 190.106C79.9456 189.986 79.1156 189.766 78.2856 189.606C76.6256 189.226 74.9356 188.936 73.2956 188.496C71.6556 188.026 70.0156 187.556 68.3756 187.086C66.7356 186.606 65.1656 185.956 63.5556 185.396C57.2156 182.976 51.1456 180.026 45.7156 176.496C40.2956 172.966 35.3956 169.076 31.1956 165.036C22.8556 156.876 17.3256 148.366 14.1956 142.026C12.6956 138.816 11.5256 136.256 10.9356 134.416C10.2756 132.606 9.9156 131.616 9.9156 131.616C9.9156 131.616 9.7956 131.246 9.5856 130.536C9.3756 129.826 9.0756 128.776 8.6856 127.426C7.9356 124.716 7.0856 120.726 6.4556 115.756C5.9556 110.766 5.7256 104.776 6.3156 98.1764C6.8856 91.5764 8.3056 84.3964 10.6356 77.1364C12.9556 69.8764 16.1856 62.5464 20.1456 55.5864C21.1356 53.8564 22.2156 52.1564 23.2356 50.4464C24.3156 48.7664 25.4356 47.1264 26.5656 45.5064C28.9156 42.3164 31.3356 39.2164 33.9356 36.3664C39.0856 30.6264 44.6556 25.6564 50.1656 21.6564C55.6656 17.6464 61.0956 14.5964 65.8856 12.3764C73.1256 9.09638 79.8356 7.21638 85.7956 6.33638C86.5356 6.17638 87.2756 6.11638 87.9956 6.04638C88.7156 5.96638 89.4256 5.89638 90.1256 5.82638C90.8256 5.75638 91.5056 5.68638 92.1756 5.61638C92.8556 5.58638 93.5256 5.55638 94.1756 5.52638C96.7956 5.40638 99.2156 5.43638 101.466 5.52638C110.456 5.93638 116.506 7.42638 120.986 8.71638C124.386 9.73638 127.606 10.9564 130.656 12.3464C133.686 13.7764 136.536 15.3664 139.206 17.0864C144.496 20.6164 149.046 24.6764 152.756 29.1664C154.656 31.3764 156.276 33.7364 157.826 36.0864C159.286 38.4964 160.656 40.9164 161.806 43.4064C164.136 48.3764 165.846 53.4964 167.086 58.6764L167.116 58.6064Z" fill="#101214"/>
</svg>
