<svg width="158" height="144" viewBox="0 0 158 144" fill="none" xmlns="http://www.w3.org/2000/svg">
<path d="M5.23379 37.2597C3.36379 37.6497 2.00379 38.1797 1.12379 38.7297C0.683794 39.0097 0.373794 39.2897 0.183794 39.5597C-0.0262062 39.8197 -0.0362061 40.1397 0.0537939 40.2697C0.123794 40.3997 0.193794 40.4997 0.263794 40.5997C0.333794 40.6997 0.373794 40.7997 0.523794 40.8797C0.773794 41.0397 1.14379 41.1697 1.63379 41.2597C2.60379 41.4397 4.02379 41.4597 5.87379 41.2597C16.4338 40.1097 27.5838 39.0897 41.9038 38.2097C50.0238 37.6597 55.0938 37.3397 59.5138 37.0997C63.9338 36.8697 67.7138 36.7297 73.2138 36.9397C77.8638 37.0897 83.3038 37.4597 88.9338 38.1097C94.5638 38.7497 100.364 39.7197 105.734 40.9197C111.104 42.1197 116.024 43.6197 119.944 45.0797C123.874 46.5497 126.824 47.9497 128.424 48.7997C129.394 49.2597 130.314 49.8097 131.284 50.2697C132.954 51.1697 136.094 52.8297 139.644 55.7197C143.194 58.5797 147.064 62.8397 149.454 68.5897C150.654 71.4597 151.444 74.6597 151.804 78.0997C152.164 81.5897 152.194 85.2497 151.884 88.9197C151.274 96.2697 149.194 103.68 145.794 110.02C143.424 114.51 140.634 118.2 137.764 121.15C134.884 124.1 131.964 126.36 129.244 128.15C128.564 128.6 127.864 128.97 127.214 129.37C126.554 129.75 125.944 130.16 125.294 130.46C124.014 131.08 122.874 131.74 121.734 132.19C120.604 132.66 119.574 133.09 118.634 133.49C117.664 133.82 116.784 134.13 116.004 134.4C115.084 134.75 114.154 135.01 113.224 135.26C112.304 135.52 111.394 135.77 110.504 136.03C108.674 136.41 106.934 136.87 105.184 137.16C101.704 137.79 98.3738 138.21 95.1538 138.52C88.7038 139.14 82.7038 139.11 76.7438 139C70.2138 138.76 69.7938 141.64 76.4538 142.6C82.5038 143.36 88.6938 143.88 95.4838 143.58C98.8738 143.43 102.404 143.13 106.124 142.54C107.984 142.27 109.874 141.82 111.824 141.44C112.794 141.18 113.774 140.92 114.764 140.65C115.764 140.39 116.774 140.11 117.774 139.74C118.564 139.48 119.454 139.18 120.454 138.85C121.454 138.51 122.524 138.06 123.714 137.61C126.084 136.68 128.804 135.41 131.774 133.72C134.694 131.96 137.944 129.84 141.044 126.91C144.164 124.02 147.244 120.46 149.884 116.19C151.594 113.41 153.034 110.45 154.074 107.4C156.414 100.85 157.714 93.4997 157.864 86.3197C157.944 82.7197 157.774 79.1997 157.264 75.7597C156.784 72.2997 155.864 69.0097 154.594 66.0997C152.114 60.2397 148.524 55.9897 145.784 53.3597C145.084 52.7097 144.474 52.0997 143.904 51.6197C143.334 51.1397 142.844 50.7297 142.444 50.3997C142.054 50.0597 141.734 49.8197 141.514 49.6597C141.294 49.4997 141.184 49.4197 141.184 49.4197C141.184 49.4197 141.014 49.2997 140.694 49.0597C140.374 48.8297 139.914 48.4597 139.284 48.0497C138.654 47.6397 137.884 47.1497 136.994 46.5697C136.074 46.0497 135.054 45.3997 133.874 44.7997C129.204 42.2797 122.464 39.5197 114.854 37.5397C107.254 35.5197 98.8538 34.0997 91.0238 33.2797C83.1838 32.4397 75.9238 32.1097 70.5138 31.9897C62.3638 31.8097 56.3438 31.9697 51.7538 32.1097C47.1638 32.2697 44.0138 32.4497 41.6138 32.5897C27.0838 33.5297 15.8538 35.0997 5.27379 37.2497L5.23379 37.2597Z" fill="#101214"/>
<path d="M41.2538 3.38973C42.8738 1.18973 40.4338 -1.10027 38.3438 0.579727C35.3538 2.95973 32.3838 5.57973 28.6738 9.05973C24.5738 13.1197 23.9538 14.5797 20.9538 17.1097C15.9839 21.5197 6.64385 27.6497 4.30385 29.7397C3.96385 30.0097 3.63385 30.3497 3.33385 30.6897C3.06385 31.0197 2.66385 31.4697 2.18385 32.1297C1.71385 32.8197 1.09385 33.6697 0.60385 35.0897C0.35385 35.7797 0.20385 36.6697 0.21385 37.5997C0.25385 38.5297 0.473849 39.4997 0.833849 40.2997C1.55385 41.9297 2.57385 43.0197 3.56385 44.0397C5.58385 46.0097 7.80385 47.6297 10.0539 49.3097C12.3039 50.9797 14.6038 52.6397 16.7638 54.2797C22.9838 58.7497 26.7639 61.5697 28.7339 63.0497C33.4039 66.5297 37.0338 68.9397 40.7838 71.0997C42.8438 72.2897 44.6638 70.0197 43.0338 68.2697C40.0538 65.0897 36.7939 62.1097 32.1139 58.5497C30.2939 57.1697 26.9438 53.6697 21.5838 49.6297C20.7138 48.9697 19.7938 48.3797 18.8438 47.8497C16.8038 46.6997 14.6638 45.3897 12.6838 44.0397C10.7038 42.6897 8.84385 41.2897 7.56385 39.9997C6.92385 39.3597 6.46385 38.7497 6.24385 38.3097C6.01385 37.8497 6.01385 37.6397 6.03385 37.4397C6.06385 37.2397 6.13385 37.0197 6.22385 36.8397C6.30385 36.6697 6.37385 36.5597 6.37385 36.5597C6.38385 36.5597 6.44385 36.4097 6.66385 36.0997C6.86385 35.7997 7.25385 35.3297 7.79385 34.7397C8.90385 33.5697 10.7338 31.9697 12.8238 30.2397C17.0238 26.7897 22.0438 22.6497 24.9138 20.0897C29.2638 16.2497 31.2738 14.3097 32.5238 13.1397C36.2838 9.54973 38.9338 6.48973 41.2438 3.38973H41.2538Z" fill="#101214"/>
</svg>
