<svg width="195" height="149" viewBox="0 0 195 149" fill="none" xmlns="http://www.w3.org/2000/svg">
<path d="M123.604 5.25375C124.804 4.90375 124.804 1.55375 123.604 1.20375C121.894 0.70375 120.104 0.44375 117.804 0.42375C115.194 0.58375 114.544 1.27375 112.774 1.19375C109.784 1.19375 104.744 0.26375 103.524 0.03375C103.344 0.00375 103.164 -0.00625 102.984 0.00375C101.694 0.13375 96.0437 0.63375 91.1837 0.39375C87.7437 0.39375 85.6237 0.41375 84.5137 0.41375C81.8937 0.44375 79.9337 0.78375 78.0037 1.41375C76.9437 1.76375 76.9437 4.67375 78.0037 5.02375C79.9237 5.66375 81.8837 6.00375 84.5137 6.02375C85.5337 6.02375 87.6537 6.82375 90.6537 6.96375C91.1437 6.98375 91.6337 6.93375 92.1137 6.80375C96.2937 5.71375 101.724 6.02375 101.724 6.02375C101.724 6.02375 109.824 6.03375 113.234 6.04375C115.804 6.04375 117.044 6.03375 117.804 6.02375C120.104 6.00375 121.904 5.73375 123.604 5.23375V5.25375Z" fill="#101214"/>
<path d="M121.944 141.984C122.294 145.404 125.644 145.404 125.994 141.984C126.494 137.134 126.754 132.034 126.774 125.474C126.614 118.044 125.924 116.194 126.004 111.164C126.004 102.664 126.934 88.3137 127.164 84.8537C127.194 84.3437 127.204 83.8337 127.194 83.3137C127.064 79.6537 126.564 63.5837 126.804 49.7537C126.804 39.9837 126.784 33.9337 126.784 30.7737C126.754 23.3137 126.414 17.7437 125.784 12.2737C125.434 9.26374 122.524 9.26374 122.174 12.2737C121.534 17.7437 121.194 23.3237 121.174 30.7737C121.174 33.6737 120.374 39.7137 120.234 48.2337C120.214 49.6237 120.264 51.0137 120.394 52.3837C121.484 64.2737 121.174 79.7037 121.174 79.7037C121.174 79.7037 121.164 102.734 121.154 112.454C121.154 119.774 121.164 123.294 121.174 125.464C121.194 132.014 121.464 137.114 121.964 141.974L121.944 141.984Z" fill="#101214"/>
<path d="M71.4438 143.694C70.2638 144.044 70.2638 147.394 71.4438 147.744C73.1138 148.244 74.8738 148.504 77.1338 148.524C79.6938 148.364 80.3338 147.674 82.0638 147.754C84.9938 147.754 89.9338 148.684 91.1238 148.914C91.3038 148.944 91.4738 148.954 91.6538 148.944C92.9138 148.814 98.4538 148.314 103.214 148.554C106.584 148.554 108.664 148.534 109.754 148.534C112.324 148.504 114.244 148.164 116.124 147.534C117.164 147.184 117.164 144.274 116.124 143.924C114.244 143.284 112.314 142.944 109.754 142.924C108.754 142.924 106.674 142.124 103.734 141.984C103.254 141.964 102.774 142.014 102.304 142.144C98.2138 143.234 92.8938 142.924 92.8938 142.924C92.8938 142.924 84.9638 142.914 81.6138 142.904C79.0938 142.904 77.8838 142.914 77.1338 142.924C74.8738 142.944 73.1238 143.214 71.4438 143.714V143.694Z" fill="#101214"/>
<path d="M72.3137 6.20375C71.9637 2.59375 68.6138 2.59375 68.2638 6.20375C67.7638 11.3237 67.5038 16.7037 67.4838 23.6237C67.6438 31.4637 68.3338 33.4137 68.2538 38.7237C68.2538 47.6937 67.3237 62.8437 67.0937 66.4837C67.0637 67.0237 67.0537 67.5637 67.0637 68.1037C67.1937 71.9737 67.6937 88.9237 67.4537 103.524C67.4537 113.834 67.4738 120.214 67.4738 123.544C67.5038 131.414 67.8438 137.294 68.4738 143.074C68.8238 146.244 71.7338 146.244 72.0838 143.074C72.7238 137.304 73.0638 131.414 73.0838 123.544C73.0838 120.484 73.8837 114.114 74.0237 105.114C74.0437 103.644 73.9938 102.184 73.8638 100.734C72.7738 88.1937 73.0838 71.9037 73.0838 71.9037C73.0838 71.9037 73.0937 47.6037 73.1037 37.3437C73.1037 29.6237 73.0938 25.9037 73.0838 23.6237C73.0638 16.7037 72.7938 11.3237 72.2938 6.20375H72.3137Z" fill="#101214"/>
<path d="M51.0037 142.924C51.3537 146.294 54.7037 146.294 55.0537 142.924C55.5537 138.144 55.8137 133.124 55.8337 126.674C55.6737 119.354 54.9837 117.534 55.0637 112.584C55.0637 104.214 55.9937 90.0838 56.2237 86.6738C56.2537 86.1738 56.2637 85.6638 56.2537 85.1638C56.1237 81.5538 55.6237 65.7338 55.8637 52.1138C55.8637 42.4938 55.8437 36.5338 55.8437 33.4238C55.8137 26.0738 55.4737 20.5938 54.8437 15.2038C54.4937 12.2438 51.5837 12.2438 51.2337 15.2038C50.5937 20.5938 50.2537 26.0838 50.2337 33.4238C50.2337 36.2738 49.4337 42.2238 49.2937 50.6238C49.2737 51.9938 49.3237 53.3638 49.4537 54.7138C50.5437 66.4238 50.2337 81.6138 50.2337 81.6138C50.2337 81.6138 50.2237 104.294 50.2137 113.864C50.2137 121.074 50.2237 124.544 50.2337 126.674C50.2537 133.124 50.5237 138.154 51.0237 142.924H51.0037Z" fill="#101214"/>
<path d="M48.6037 5.25374C54.1537 4.90374 54.1537 1.55374 48.6037 1.20374C44.6737 0.953741 40.6337 0.763741 36.2537 0.633741C34.0637 0.583741 31.7937 0.533741 29.3937 0.483741C28.1937 0.473741 26.9737 0.453741 25.7137 0.443741C24.4437 0.443741 23.2438 0.393741 21.6238 0.503741C18.1538 0.783741 15.4437 1.80374 13.3237 2.92374C11.1937 4.05374 9.61375 5.32374 8.30375 6.63374C5.72375 9.27374 3.90375 11.9237 2.34375 16.2037C1.75375 18.0337 1.26375 20.0837 1.19375 22.2837C1.10375 23.4337 1.13375 24.3437 1.10375 25.3937C1.08375 26.4137 1.06375 27.4637 1.04375 28.5137C0.93375 32.7237 0.81375 37.0937 0.70375 41.2137C0.40375 49.4637 0.14375 56.6737 0.03375 59.4837C0.00375 60.3137 -0.00625 61.1437 0.00375 61.9737C0.13375 67.9137 0.63375 93.9537 0.39375 116.384C0.39375 118.364 0.39375 120.254 0.39375 122.044C0.39375 122.944 0.39375 123.814 0.39375 124.664C0.39375 125.104 0.39375 125.484 0.40375 125.954C0.42375 126.434 0.45375 126.904 0.47375 127.364C0.71375 131.094 1.87375 134.304 3.30375 136.854C4.73375 139.414 6.45375 141.344 8.09375 142.774C8.87375 143.534 9.73375 144.064 10.4537 144.624C11.2337 145.094 11.9237 145.544 12.5837 145.884C15.6837 147.494 18.9538 148.284 22.0338 148.394C22.4238 148.404 22.8038 148.414 23.1838 148.434C23.5138 148.434 23.8437 148.424 24.1737 148.414C24.8237 148.394 25.4738 148.384 26.1138 148.374C27.3938 148.334 28.6338 148.294 29.8538 148.264C34.7338 148.094 39.2137 147.854 43.6437 147.534C48.5137 147.184 48.5137 144.274 43.6437 143.924C39.2137 143.604 34.7338 143.364 29.8538 143.194C28.6338 143.154 27.3938 143.124 26.1138 143.084C25.4738 143.074 24.8337 143.054 24.1737 143.044C23.8437 143.044 23.5238 143.034 23.1938 143.024C22.9038 143.004 22.6137 142.984 22.3137 142.964C19.9737 142.804 17.5337 142.164 15.2037 140.944C14.7437 140.714 14.2738 140.374 13.7238 140.024C13.2138 139.624 12.6437 139.194 12.0837 138.654C10.9337 137.604 9.82375 136.154 8.85375 134.374C7.90375 132.584 7.17375 130.424 6.93375 127.994C6.82375 127.394 6.87375 126.754 6.84375 126.124C6.82375 125.834 6.84375 125.434 6.84375 125.034C6.84375 124.644 6.86375 124.244 6.87375 123.844C6.90375 122.244 6.92375 120.584 6.95375 118.854C6.97375 116.604 6.92375 114.354 6.79375 112.124C5.70375 92.8537 6.01375 67.8337 6.01375 67.8337C6.01375 67.8337 6.01375 58.5037 6.01375 47.1937C6.01375 41.5437 6.01375 35.4037 6.01375 29.6837C6.01375 28.2537 6.01375 26.8537 6.01375 25.4937C6.01375 24.8137 6.01375 24.1437 6.01375 23.4837C6.02375 22.8537 6.07375 22.3337 6.09375 21.7637C6.28375 19.5637 6.89375 17.6337 7.60375 16.0737C8.69375 13.7337 10.1337 11.9537 11.5737 10.6237C13.0237 9.29374 14.4637 8.37374 15.7837 7.76374C18.4237 6.50374 20.4637 6.25374 21.9737 6.12374C23.0537 6.03374 24.4237 6.05374 25.6737 6.04374C26.9337 6.03374 28.1538 6.01374 29.3538 6.00374C31.7438 5.95374 34.0237 5.90374 36.2137 5.85374C40.5937 5.72374 44.6238 5.53374 48.5638 5.28374L48.6037 5.25374Z" fill="#101214"/>
<path d="M145.204 143.694C140.264 144.044 140.264 147.394 145.204 147.744C152.204 148.244 159.554 148.504 169.004 148.524C169.674 148.514 170.314 148.504 170.924 148.484C171.594 148.454 172.284 148.394 172.914 148.344C173.554 148.314 174.154 148.154 174.724 148.054C175.014 147.994 175.294 147.944 175.564 147.894C175.834 147.814 176.094 147.744 176.354 147.664C176.864 147.504 177.364 147.364 177.824 147.204C178.284 147.014 178.714 146.824 179.144 146.644C180.004 146.314 180.724 145.824 181.454 145.444C182.154 145.014 182.804 144.544 183.454 144.104C184.054 143.594 184.684 143.124 185.274 142.584C185.834 142.004 186.494 141.494 187.044 140.804C187.334 140.474 187.634 140.134 187.954 139.784C188.254 139.424 188.534 139.024 188.844 138.624C190.904 135.894 192.544 132.094 193.094 127.914C193.294 125.714 193.294 123.904 193.364 121.994C193.424 120.094 193.494 118.204 193.554 116.374C193.814 109.044 194.104 102.624 194.224 100.134C194.254 99.3938 194.264 98.6638 194.254 97.9238C194.124 92.6438 193.624 69.4738 193.864 49.5238C193.864 42.4838 193.864 36.7738 193.854 32.2638C193.854 30.0038 193.854 28.0538 193.854 26.3738C193.854 25.5338 193.854 24.7638 193.854 24.0638C193.854 23.7038 193.854 23.4038 193.854 23.0438C193.834 22.6738 193.824 22.3338 193.804 22.0038C193.464 15.7638 190.584 10.6738 187.014 7.30376C183.354 3.95376 178.994 2.09376 174.634 1.72376C174.034 1.68376 173.504 1.66376 173.054 1.75376C172.604 1.84376 172.224 1.96376 171.934 2.11376C171.344 2.41376 171.064 2.80376 171.064 3.21376C171.064 3.62376 171.334 4.04376 171.844 4.39376C172.094 4.57376 172.404 4.73376 172.774 4.86376C173.144 4.99376 173.564 5.17376 174.054 5.28376C177.594 6.16376 180.794 8.08376 183.434 10.8738C185.994 13.7238 187.964 17.5838 188.214 22.2838C188.284 23.1238 188.214 24.5438 188.134 26.1138C188.054 27.7138 187.954 29.5738 187.844 31.6938C187.624 35.9338 187.394 41.1838 187.324 47.3238C187.304 49.3238 187.354 51.3338 187.484 53.3138C188.574 70.4538 188.264 92.7138 188.264 92.7138C188.264 92.7138 188.264 101.014 188.264 111.074C188.264 113.584 188.264 116.214 188.264 118.844C188.264 120.154 188.264 121.474 188.264 122.784C188.264 123.434 188.264 124.084 188.264 124.734V125.694L188.214 126.524C188.114 128.734 187.574 130.824 186.784 132.614C186.024 134.424 184.944 135.874 183.944 137.024C182.424 138.754 180.774 139.934 179.254 140.794C177.694 141.584 176.284 142.114 175.014 142.394C173.754 142.684 172.664 142.814 171.714 142.834C171.474 142.844 171.254 142.854 171.034 142.874C170.784 142.874 170.544 142.874 170.314 142.874C169.854 142.874 169.434 142.874 169.044 142.874C159.594 142.894 152.234 143.164 145.244 143.664L145.204 143.694Z" fill="#101214"/>
<path d="M167.754 5.25374C172.114 4.90374 172.114 1.55374 167.754 1.20374C161.564 0.703737 155.064 0.443737 146.714 0.423737C145.034 0.453737 143.524 0.483737 142.274 0.503737C140.624 0.533737 139.364 0.583737 138.624 0.623737C138.664 1.94374 138.694 3.16374 138.724 4.31374C138.744 4.87374 138.764 5.42374 138.774 5.95374C138.794 6.45374 138.814 7.08374 138.824 7.26374C138.894 8.38374 138.964 9.38374 139.024 10.3537C139.144 12.2937 139.224 14.1237 139.194 16.5237C139.194 27.3637 138.264 45.6537 138.034 50.0637C138.004 50.7137 137.994 51.3637 138.004 52.0237C138.134 56.6937 138.634 77.1737 138.394 94.8037C138.394 107.264 138.414 114.964 138.414 118.994C138.444 128.504 138.784 135.604 139.414 142.584C139.764 146.414 142.674 146.414 143.024 142.584C143.664 135.604 144.004 128.504 144.024 118.994C144.024 115.304 144.824 107.604 144.964 96.7337C144.984 94.9637 144.934 93.1937 144.804 91.4337C143.714 76.2837 144.024 56.6037 144.024 56.6037C144.024 56.6037 144.034 27.2437 144.044 14.8537V6.04374H146.704C155.054 6.02374 161.564 5.75374 167.744 5.25374H167.754Z" fill="#101214"/>
</svg>
