<svg width="145" height="232" viewBox="0 0 145 232" fill="none" xmlns="http://www.w3.org/2000/svg">
<path d="M23.9138 175.74C23.5638 171.6 20.2138 171.6 19.8638 175.74C19.3638 181.62 19.1038 187.79 19.0838 195.73C19.2438 204.73 19.9338 206.96 19.8538 213.06C19.8438 214.35 19.8238 215.75 19.8138 217.21C19.7838 218.86 19.7438 220.59 19.7038 222.36C19.6938 223.03 19.6838 223.71 19.6638 224.39C19.6638 225.07 19.6138 225.79 19.6638 226.42C19.8238 227.65 20.2338 228.43 20.5738 229.06C20.7538 229.36 21.1138 229.74 21.5838 230.01C22.0438 230.28 22.5938 230.45 23.0738 230.48C23.5838 230.52 23.8238 230.44 24.2038 230.36C24.5638 230.28 24.9738 230.16 25.4238 229.94C26.3438 229.58 27.3238 228.4 28.2638 227.5C28.7438 227.02 29.2138 226.55 29.6738 226.09L30.3538 225.42L30.7338 225.05C31.7538 224.08 32.7038 223.17 33.5638 222.35C35.2938 220.71 36.6538 219.42 37.4138 218.7C37.8638 218.27 38.2938 217.83 38.7138 217.37C39.1038 216.94 39.7038 216.27 42.3738 213.42C42.3538 213.39 42.4038 213.24 42.5738 213.29C42.5838 213.31 42.5738 213.28 42.6238 213.33L42.9538 213.65C43.1738 213.87 43.4038 214.1 43.6338 214.33C44.0938 214.79 44.5838 215.28 45.0938 215.78C46.1038 216.79 47.1838 217.88 48.3338 219.02C50.6538 221.38 53.2038 223.98 55.8238 226.66C57.0138 227.87 58.2038 229.15 59.4038 230.33C60.0138 230.82 60.5838 231.07 61.1038 231.26C61.3438 231.34 61.5738 231.38 61.8138 231.44C62.0338 231.47 62.1938 231.51 62.4538 231.52C62.9638 231.54 63.6538 231.41 64.2438 231.12C64.8338 230.84 65.3038 230.41 65.5438 230.11C65.8038 229.79 66.0638 229.38 66.3038 228.87C66.5338 228.32 66.7238 227.65 66.7338 226.79C66.7338 213.74 66.7138 205.66 66.7138 201.45C66.6838 192.42 66.3438 185.67 65.7138 179.04C65.3638 175.4 62.4538 175.4 62.1038 179.04C61.4638 185.67 61.1238 192.42 61.1038 201.45C61.1038 203.2 60.9038 205.91 60.6838 209.47C60.5738 211.25 60.4638 213.24 60.3638 215.43C60.3238 216.53 60.2838 217.67 60.2338 218.87C60.2138 219.47 60.2038 220.08 60.1838 220.7C60.1838 221.01 60.1738 221.32 60.1638 221.64V221.76C60.1438 221.76 60.2038 221.74 60.3238 222.03C60.3838 222.17 60.3438 222.34 60.2938 222.38C60.2538 222.42 60.1938 222.42 60.1038 222.4C60.0138 222.37 59.9038 222.32 59.7738 222.24C59.8138 222.31 59.3838 221.89 59.0938 221.61L58.1538 220.71C55.6638 218.31 53.2438 215.91 51.0938 213.75C50.0238 212.66 49.0138 211.64 48.0938 210.7C47.6338 210.23 47.1938 209.78 46.7838 209.35C46.1438 208.66 45.2738 208.1 44.4538 207.81C42.7638 207.2 41.1738 207.47 40.1138 207.91C39.0338 208.37 38.4138 208.98 38.1038 209.29C37.4538 209.97 37.3538 210.07 37.3538 210.07C37.3538 210.07 32.5538 215.12 26.7338 221.24C26.4438 221.55 26.1438 221.86 25.8438 222.18C25.6338 222.39 25.4438 222.62 25.2238 222.81C25.0938 222.88 24.9138 222.86 24.8138 222.75C24.6938 222.64 24.7138 222.48 24.7138 222.33C24.7138 222.04 24.7138 221.74 24.7138 221.46C24.7138 217.65 24.7138 214.13 24.7138 211.51C24.7138 202.65 24.7038 198.38 24.6938 195.76C24.6738 187.82 24.4038 181.65 23.9038 175.77L23.9138 175.74Z" fill="#101214"/>
<path d="M6.62375 169.1C6.21375 168.72 5.83375 168.4 5.40375 168.12C4.97375 167.85 4.51375 167.63 4.04375 167.65C3.59375 167.66 3.11375 167.94 2.86375 168.61C2.62375 169.27 2.63375 170.4 3.41375 171.56C4.49375 173.2 6.41375 174.37 8.56376 174.51C9.26376 174.56 9.96375 174.6 10.6838 174.65C11.3738 174.69 12.0838 174.72 12.8038 174.76C15.6838 174.89 18.7938 174.96 22.2838 174.97C30.2038 174.81 32.1738 174.12 37.5438 174.2C46.6138 174.2 61.9137 175.13 65.5938 175.36C66.1438 175.39 66.6838 175.4 67.2338 175.39C71.1438 175.26 88.2738 174.76 103.024 175C113.444 175 119.894 174.98 123.254 174.98C127.234 174.97 130.704 174.88 133.914 174.71C134.754 174.64 135.334 174.69 136.674 174.47C137.834 174.24 138.914 173.75 139.794 173.05C141.564 171.67 142.584 169.55 142.584 167.48C142.584 167.22 142.564 166.89 142.524 166.74C142.484 166.56 142.434 166.4 142.374 166.25C142.264 165.95 142.114 165.7 141.954 165.5C141.624 165.1 141.214 164.9 140.814 164.9C140.414 164.9 139.994 165.1 139.674 165.5C139.514 165.7 139.364 165.95 139.254 166.25C139.144 166.55 139.054 166.93 138.994 167.17C138.754 168.17 138.074 168.97 137.254 169.4C136.844 169.62 136.394 169.72 135.944 169.74C135.644 169.75 134.684 169.68 133.914 169.64C130.704 169.47 127.234 169.38 123.254 169.37C120.164 169.37 113.724 168.57 104.634 168.43C103.154 168.41 101.674 168.46 100.204 168.59C87.5238 169.68 71.0738 169.37 71.0738 169.37C71.0738 169.37 46.5138 169.36 36.1538 169.35C28.3438 169.35 24.5938 169.36 22.2838 169.37C18.7938 169.38 15.6838 169.45 12.8038 169.59C11.3838 169.65 9.92375 169.74 8.68375 169.83C7.96375 169.91 7.19375 169.67 6.62375 169.11V169.1Z" fill="#101214"/>
<path d="M5.25375 6.53042C4.90375 2.48042 1.55375 2.48042 1.20375 6.53042C0.70375 12.2704 0.44375 18.3004 0.42375 26.0604C0.58375 34.8504 1.27375 37.0304 1.19375 42.9904C1.19375 53.0504 0.26375 70.0304 0.03375 74.1204C0.00375 74.7204 -0.00625 75.3304 0.00375 75.9404C0.13375 80.2704 0.63375 99.2704 0.39375 115.64C0.39375 127.2 0.41375 134.35 0.41375 138.09C0.32375 146.91 1.06375 153.52 1.92375 159.98C2.41375 163.53 5.31375 163.41 5.53375 159.85C5.94375 153.37 5.88375 146.81 6.02375 137.99C6.02375 134.56 6.82375 127.41 6.96375 117.33C6.98375 115.69 6.93375 114.05 6.80375 112.42C5.71375 98.3904 6.02375 80.1404 6.02375 80.1404C6.02375 80.1404 6.03375 52.9204 6.04375 41.4304C6.04375 32.7804 6.03375 28.6104 6.02375 26.0604C6.00375 18.3104 5.73375 12.2904 5.23375 6.55042L5.25375 6.53042Z" fill="#101214"/>
<path d="M135.324 5.25041C138.484 4.90041 138.484 1.55041 135.324 1.20041C130.844 0.700405 126.134 0.440405 120.084 0.420405C113.224 0.580405 111.514 1.27041 106.874 1.19041C99.0237 1.19041 85.7737 0.260405 82.5837 0.0304052C82.1137 0.000405183 81.6437 -0.00959482 81.1637 0.0104052C77.7837 0.140405 62.9437 0.640405 50.1737 0.400405C41.1537 0.400405 35.5637 0.420405 32.6537 0.420405C25.7637 0.450405 20.6137 0.790405 15.5637 1.42041C12.7837 1.77041 12.7837 4.68041 15.5637 5.03041C20.6137 5.67041 25.7637 6.01041 32.6537 6.03041C35.3337 6.03041 40.9037 6.83041 48.7837 6.97041C50.0637 6.99041 51.3537 6.94041 52.6237 6.81041C63.6037 5.72041 77.8537 6.02041 77.8537 6.02041C77.8537 6.02041 99.1237 6.03041 108.094 6.04041C114.854 6.04041 118.104 6.03041 120.104 6.02041C126.154 6.00041 130.864 5.73041 135.344 5.23041L135.324 5.25041Z" fill="#101214"/>
<path d="M9.14376 157.24C1.81376 157.59 1.81376 160.94 9.14376 161.29C19.5338 161.79 30.4438 162.05 44.4738 162.07C60.3738 161.91 64.3338 161.22 75.1038 161.3C93.3038 161.3 124.014 162.23 131.414 162.46C132.504 162.49 133.604 162.5 134.704 162.49C135.194 162.49 135.784 162.47 136.474 162.46C136.814 162.46 137.184 162.45 137.584 162.44C137.734 162.44 137.894 162.43 138.054 162.42C138.244 162.41 138.434 162.4 138.634 162.36C139.024 162.31 139.424 162.21 139.824 162.09C141.414 161.59 142.994 160.44 143.944 158.69C144.424 157.82 144.724 156.81 144.794 155.75C144.824 155.11 144.804 154.96 144.804 154.64C144.804 154.35 144.804 154.06 144.794 153.76C144.744 148.97 144.684 143.01 144.614 136.37C144.504 123.09 144.434 107.1 144.554 92.2903C144.554 71.3803 144.544 58.4403 144.534 51.6803C144.514 35.7203 144.164 23.7803 143.534 12.0703C143.184 5.6403 140.274 5.6403 139.924 12.0703C139.284 23.7803 138.944 35.7103 138.914 51.6803C138.914 57.8803 138.114 70.8103 137.964 89.0503C137.944 92.0203 137.994 95.0003 138.124 97.9403C138.664 110.66 138.864 125.28 138.924 136.72C138.924 142.44 138.934 147.36 138.934 150.86C138.934 152.61 138.914 154 138.914 154.95C138.914 155.25 138.904 155.27 138.904 155.33C138.884 155.39 138.884 155.44 138.874 155.48C138.854 155.56 138.834 155.6 138.834 155.6C138.824 155.59 138.794 155.86 138.434 156.17C138.254 156.31 138.004 156.44 137.674 156.44C136.694 156.44 135.584 156.44 134.354 156.44C129.404 156.44 122.594 156.44 115.134 156.44C100.214 156.44 82.6838 156.44 72.2838 156.44C56.6138 156.44 49.0838 156.45 44.4438 156.46C30.4138 156.48 19.5038 156.75 9.11375 157.25L9.14376 157.24Z" fill="#101214"/>
<path d="M29.2638 66.7306C28.9138 63.7806 25.5638 63.7806 25.2138 66.7306C24.9838 68.7006 24.7938 70.7206 24.6638 72.9006C24.5938 73.9906 24.5438 75.1206 24.5038 76.3106C24.4838 78.4706 24.4538 80.7306 24.4238 83.1306C24.8738 83.1306 25.4938 83.1306 26.1138 83.1306C27.6238 83.1006 28.9938 83.0706 30.2438 83.0506C30.5238 83.0506 30.8038 83.0306 31.0738 83.0206C31.2338 83.0206 31.3838 83.0006 31.5438 82.9906C31.8438 82.9706 32.1438 82.9506 32.4138 82.9306C33.5338 82.8406 34.4638 82.7506 35.3338 82.6506C37.0738 82.4706 38.5638 82.3106 40.7338 82.3506C48.0638 82.3506 60.4438 83.2806 63.4238 83.5106C63.8638 83.5406 64.3038 83.5506 64.7438 83.5406C67.9038 83.4106 81.7538 82.9106 93.6838 83.1506C102.114 83.1506 107.324 83.1306 110.044 83.1306C111.614 83.1106 113.094 83.0906 114.494 83.0706C116.824 83.0306 118.974 82.9806 120.924 82.9206C120.654 81.5206 120.394 80.1606 120.134 78.8406C120.004 78.2006 119.874 77.5706 119.754 76.9406C119.694 76.6306 119.624 76.3306 119.564 76.0306L119.474 75.6006L119.414 75.3506C119.064 74.0006 118.704 72.7006 118.324 71.4206C117.574 68.9106 114.704 69.3606 114.754 71.9806C114.784 73.3206 114.834 74.6606 114.924 76.0606L114.944 76.3206C114.944 76.3906 114.944 76.4006 114.944 76.4506V76.6606L114.904 77.0506C114.894 77.2706 114.874 77.5006 114.864 77.7306C114.414 77.6706 114.034 77.6106 113.664 77.5806H113.524L113.084 77.5606C112.764 77.5606 112.434 77.5506 112.104 77.5406C111.444 77.5406 110.754 77.5306 110.054 77.5206C107.554 77.5206 102.344 76.7206 94.9938 76.5806C93.7938 76.5606 92.5938 76.6106 91.4138 76.7406C81.1638 77.8306 67.8538 77.5206 67.8538 77.5206C67.8538 77.5206 47.9938 77.5106 39.6138 77.5006C34.3638 77.5006 31.8338 77.5106 30.2838 77.5206C30.1938 77.5206 30.1038 77.5206 30.0338 77.5206C30.0338 77.3406 30.0138 77.1706 30.0038 77.0106L29.9838 76.7506V76.6206L29.9638 76.5306V76.3106C29.9138 75.1206 29.8638 73.9906 29.8038 72.9006C29.6738 70.7206 29.4938 68.7006 29.2538 66.7306H29.2638Z" fill="#101214"/>
<path d="M29.1838 59.7106C26.9538 60.0606 26.9538 63.4106 29.1838 63.7606C32.3438 64.2606 35.6638 64.5206 39.9338 64.5406C44.7738 64.3806 45.9738 63.6906 49.2538 63.7706C54.7938 63.7706 64.1438 64.7006 66.3938 64.9306C66.7238 64.9606 67.0638 64.9706 67.3938 64.9606C69.7838 64.8306 80.2438 64.3306 89.2538 64.5706C95.6238 64.5706 99.5538 64.5506 101.614 64.5506C106.474 64.5206 110.104 64.1806 113.674 63.5506C115.634 63.2006 115.634 60.2906 113.674 59.9406C110.114 59.3006 106.474 58.9606 101.614 58.9406C99.7238 58.9406 95.7938 58.1406 90.2338 58.0006C89.3338 57.9806 88.4238 58.0306 87.5238 58.1606C79.7838 59.2506 69.7238 58.9406 69.7238 58.9406C69.7238 58.9406 54.7238 58.9306 48.3838 58.9206C43.6138 58.9206 41.3238 58.9306 39.9138 58.9406C35.6438 58.9606 32.3238 59.2306 29.1638 59.7306L29.1838 59.7106Z" fill="#101214"/>
<path d="M113.074 56.0105C113.864 58.8005 117.174 58.2905 117.074 55.3805C117.004 53.3505 116.874 51.2805 116.654 49.0405C116.544 47.9205 116.414 46.7605 116.264 45.5505C116.134 44.6305 116.004 43.6805 115.864 42.7105C115.684 41.5105 115.494 40.2805 115.304 39.0105C115.204 39.0105 115.074 39.0105 114.934 39.0205C113.464 39.1105 112.124 39.1905 110.894 39.2705C110.334 39.3105 109.804 39.3505 109.304 39.3905C109.004 39.4205 108.724 39.4605 108.454 39.4905C107.364 39.6205 106.454 39.7605 105.614 39.8805C103.924 40.1305 102.484 40.3505 100.364 40.3905C93.2037 40.6905 81.0837 40.2505 78.1737 40.1305C77.7437 40.1105 77.3137 40.1305 76.8837 40.1605C73.8037 40.4105 60.3037 41.4705 48.6437 41.7005C40.4237 42.0405 35.3337 42.2605 32.6737 42.3705C31.4237 42.4305 27.0637 42.6505 24.5737 42.8205C24.6237 44.6505 24.6737 46.3905 24.7137 48.0605L24.7337 48.6705L24.7537 49.1505C24.7737 49.3705 24.7837 49.5905 24.8037 49.8105C24.8437 50.2505 24.8737 50.6705 24.9037 51.1005C25.0537 52.7905 25.2337 54.3805 25.4537 55.9705C25.8037 58.5005 28.7137 58.5005 29.0637 55.9705C29.2837 54.3905 29.4637 52.7905 29.6137 51.1005C29.6437 50.6805 29.6837 50.2505 29.7137 49.8105C29.7337 49.5905 29.7437 49.3705 29.7637 49.1505V49.0005L29.7837 48.9405L29.8037 48.8205C29.8537 48.5505 29.8937 48.2705 29.9437 47.9805C30.6337 48.0205 30.3337 48.0705 32.8937 47.9805C35.3337 47.8805 40.4537 48.4805 47.6337 48.3205C48.8037 48.3005 49.9737 48.1905 51.1237 48.0205C61.0837 46.5205 74.0937 46.3005 74.0937 46.3005C74.0937 46.3005 93.4837 45.5205 101.664 45.1905C106.634 44.9805 109.024 44.8805 110.484 44.8105C110.504 44.8105 110.524 44.8105 110.534 44.8105C110.574 44.9905 110.604 45.1605 110.634 45.3305L110.694 45.5905C110.744 45.8605 110.794 46.1205 110.844 46.3805C111.074 47.5805 111.304 48.7305 111.544 49.8305C112.024 52.0305 112.524 54.0405 113.084 56.0005L113.074 56.0105Z" fill="#101214"/>
</svg>
