<svg width="217" height="205" viewBox="0 0 217 205" fill="none" xmlns="http://www.w3.org/2000/svg">
<path d="M51.0975 76.5789C51.0775 73.9489 50.8775 71.9689 50.5775 70.6489C50.2675 69.3289 49.9075 68.6689 49.4375 68.5789C49.2075 68.5489 48.9675 68.6789 48.7175 68.9989C48.4675 69.3189 48.2075 69.8489 47.9975 70.4989C47.5575 71.8289 47.2075 73.8189 47.0475 76.4589C46.6075 83.9689 46.3275 91.6489 46.1075 99.9889C45.9975 104.159 45.9175 108.489 45.8575 113.049C45.8375 115.329 45.8175 117.669 45.7975 120.069C45.7775 122.519 45.8575 125.079 46.0675 127.689C46.3275 130.649 46.7175 133.319 47.1875 135.749C47.6475 138.089 48.0775 140.229 48.5275 142.229C49.4275 146.209 50.3875 149.569 51.6075 152.649C52.2275 154.189 52.8975 155.649 53.6875 157.069C54.0875 157.799 54.4975 158.449 54.8975 159.089C55.3075 159.739 55.6975 160.409 56.1375 161.059C57.8275 163.709 59.7275 166.459 62.1175 169.639C64.1375 172.319 66.5075 175.109 69.1875 177.889C71.8675 180.659 74.8875 183.409 78.3175 185.829C81.7375 188.249 85.5475 190.359 89.6675 191.799C90.6975 192.149 91.7175 192.529 92.7975 192.739C93.8475 192.969 94.9475 193.279 95.9575 193.429C98.0175 193.779 100.068 194.039 102.088 194.209C110.188 194.889 117.808 194.449 124.108 193.169C130.588 191.829 135.168 189.329 137.648 187.959L139.808 186.629C140.528 186.179 141.178 185.659 141.858 185.159C144.268 183.379 148.548 179.829 153.198 174.319C155.508 171.559 157.928 168.329 160.248 164.629C161.408 162.779 162.548 160.809 163.638 158.739C163.908 158.219 164.178 157.689 164.448 157.159L164.858 156.359L165.268 155.449C165.798 154.229 166.238 152.989 166.588 151.749C168.038 146.779 168.638 141.649 169.358 136.539C169.708 134.069 170.138 131.269 170.338 128.529C170.558 125.779 170.648 122.989 170.618 120.199C170.468 109.359 170.308 98.2489 170.158 87.5589C170.128 85.6689 170.098 83.8289 170.068 82.0389C170.058 81.1389 170.038 80.2489 170.028 79.3789C170.028 78.9489 169.968 78.3289 169.928 77.8189C169.878 77.2789 169.758 76.7589 169.668 76.2389C168.778 72.0489 166.168 68.5789 162.978 66.4989C161.378 65.4489 159.628 64.7289 157.858 64.3389C156.108 63.9289 154.208 63.9389 152.988 63.9389C150.248 63.9189 147.678 63.9089 145.268 63.8889C135.618 63.8289 128.518 63.7889 123.648 63.7589C100.638 63.6389 83.4375 63.8689 66.5475 64.3989C57.2675 64.6889 57.2475 67.5989 66.5275 68.0089C83.4075 68.7489 100.608 69.2089 123.628 69.3789C128.098 69.4089 134.998 69.6489 144.058 69.9289C146.328 69.9989 148.728 70.0689 151.258 70.1389C151.888 70.1589 152.538 70.1689 153.178 70.1889C153.498 70.1889 153.828 70.2089 154.158 70.2189C154.518 70.2189 154.688 70.2589 154.968 70.2689C155.968 70.3589 156.958 70.5789 157.898 70.9989C159.778 71.8289 161.478 73.3389 162.478 75.3189C162.978 76.2989 163.308 77.3989 163.428 78.5389L163.478 79.4289C163.478 79.8289 163.478 80.2289 163.488 80.6289C163.488 81.4389 163.508 82.2489 163.508 83.0689C163.548 87.3489 163.678 91.6289 163.868 95.8689C164.048 100.449 164.248 105.199 164.438 109.999C164.518 112.399 164.598 114.819 164.678 117.239C164.758 119.689 164.848 122.019 164.778 124.339C164.728 126.669 164.568 128.979 164.308 131.249C164.048 133.469 163.678 135.889 163.398 138.129C162.798 142.639 162.148 146.909 161.008 150.579C160.458 152.439 159.728 153.929 158.828 155.629C158.418 156.459 157.968 157.239 157.528 157.999C157.098 158.769 156.678 159.509 156.228 160.219C154.518 163.079 152.758 165.449 151.298 167.409C150.528 168.359 149.848 169.209 149.238 169.949C148.608 170.659 148.068 171.279 147.628 171.769C146.758 172.769 146.238 173.259 146.238 173.259C146.238 173.259 146.048 173.449 145.698 173.819C145.338 174.169 144.838 174.739 144.128 175.389C142.718 176.699 140.698 178.619 137.918 180.579C135.168 182.559 131.708 184.679 127.578 186.209C125.498 186.979 123.338 187.549 120.938 187.999C118.528 188.429 115.998 188.729 113.408 188.909C108.218 189.249 102.728 189.129 97.3675 188.349C95.9975 188.179 94.7675 187.849 93.4875 187.589C92.8475 187.489 92.2375 187.219 91.6175 187.029C91.0075 186.819 90.3675 186.659 89.7675 186.399C88.5775 185.859 87.3475 185.439 86.2175 184.779C85.6375 184.479 85.0675 184.179 84.4975 183.869C83.9375 183.539 83.3975 183.179 82.8475 182.849C78.4875 180.089 74.6975 176.719 71.5175 173.319C68.3375 169.919 65.6975 166.539 63.6175 163.539C62.0475 161.279 60.6475 159.119 59.4175 157.039C59.1075 156.519 58.8075 156.009 58.5175 155.509C58.2675 155.019 57.9875 154.579 57.7675 154.089C57.2975 153.149 56.9075 152.179 56.5375 151.249C55.1275 147.469 54.3675 143.939 53.7375 140.879C53.1375 137.829 52.6275 135.109 52.2875 132.939C51.9475 130.729 51.7475 128.869 51.6175 127.249C51.4175 124.799 51.3275 122.429 51.3275 120.079C51.3275 117.689 51.3175 115.359 51.3075 113.089C51.2875 108.539 51.2675 104.209 51.2575 100.049C51.1875 91.7289 51.1275 84.0589 51.0575 76.5789H51.0975Z" fill="#101214"/>
<path d="M79.2375 50.709C73.7275 50.969 73.6775 54.3189 79.1775 54.7589C86.9775 55.3789 95.1675 55.769 105.708 55.959C117.658 55.989 120.638 55.339 128.738 55.549C130.448 55.589 132.307 55.629 134.257 55.679C135.237 55.709 136.248 55.739 137.268 55.769C138.518 55.789 139.808 55.6189 141.058 55.2789C143.548 54.5489 145.877 53.0289 147.507 50.9189C149.177 48.8389 150.118 46.169 150.208 43.569C150.518 34.869 148.498 27.3889 147.458 24.5389C147.168 23.6989 146.788 22.879 146.418 22.059C145.718 20.619 144.348 17.959 141.908 14.839C139.468 11.759 135.918 8.17895 131.128 5.53895C130.528 5.20895 129.928 4.87895 129.318 4.54895C128.688 4.25895 128.048 3.96895 127.398 3.67895L126.418 3.24895L125.408 2.88895C124.728 2.64895 124.048 2.38895 123.358 2.15895C121.948 1.78895 120.538 1.31895 119.078 1.07895C118.348 0.938951 117.618 0.798951 116.878 0.648951C116.138 0.528951 115.398 0.428951 114.648 0.348951C111.658 0.00895083 108.648 -0.0710492 105.638 0.0589508C102.638 0.198951 99.6175 0.528951 96.7175 1.21895C92.6075 2.15895 88.9975 3.58895 85.9375 5.25895C82.8775 6.93895 80.4275 8.91895 78.4175 10.779C74.4575 14.629 72.3975 18.169 71.1075 20.579C68.1075 26.369 67.0175 31.979 66.5575 37.039C66.3675 39.579 66.3675 42.019 66.5275 44.379C66.6875 46.719 66.9475 48.9489 67.3075 51.1889C67.7075 53.6589 68.7675 54.8089 69.5575 54.6489C70.3675 54.4889 70.9375 53.2289 70.9075 50.8689C70.8775 48.7089 70.9075 46.519 70.9875 44.309C71.0775 42.119 71.2675 39.889 71.6075 37.589C72.3475 33.029 73.4875 28.129 76.0975 23.169C77.1075 21.269 78.9875 18.429 82.1975 15.549C82.9575 14.789 83.9175 14.149 84.8375 13.399C85.8475 12.759 86.8575 11.999 88.0375 11.409C90.3375 10.129 92.9875 8.97895 96.0175 8.16895C97.9875 7.63895 99.9775 7.12895 102.008 6.74895C106.378 5.90895 111.358 5.72895 116.008 6.35895C120.678 7.00895 125.038 8.55895 128.468 10.559C131.928 12.549 134.418 14.959 135.978 16.809C136.178 17.039 136.368 17.249 136.548 17.459C136.708 17.679 136.857 17.879 137.007 18.079C137.287 18.459 137.538 18.789 137.728 19.059C138.138 19.579 138.308 19.899 138.308 19.899C138.308 19.899 138.598 20.349 139.118 21.169C139.398 21.569 139.668 22.099 139.988 22.709C140.308 23.319 140.708 23.999 141.028 24.809C142.488 27.959 143.937 32.5989 144.537 37.9189C144.687 39.2489 144.788 40.609 144.838 41.999L144.868 43.039C144.888 43.419 144.848 43.609 144.848 43.909C144.818 44.449 144.708 44.9889 144.558 45.5089C143.938 47.5989 142.308 49.369 140.368 50.199C139.398 50.629 138.368 50.829 137.348 50.819C136.008 50.799 134.708 50.779 133.468 50.769C130.958 50.729 128.668 50.689 126.718 50.659C114.948 50.479 109.278 50.3989 105.798 50.3489C95.2575 50.2089 87.0475 50.349 79.2375 50.719V50.709Z" fill="#101214"/>
<path d="M47.9975 122.769C49.2375 122.419 49.2375 119.069 47.9975 118.719C46.2275 118.219 44.3775 117.959 41.9975 117.939C39.2975 118.099 38.6275 118.789 36.7875 118.709C33.6975 118.709 28.4775 117.779 27.2175 117.549C27.0275 117.519 26.8475 117.509 26.6575 117.529C25.3275 117.659 19.4775 118.159 14.4475 117.919C10.8975 117.919 8.6975 117.939 7.5475 117.939C4.8375 117.959 2.8075 118.309 0.8175 118.939C-0.2725 119.289 -0.2725 122.199 0.8175 122.549C2.8075 123.189 4.8375 123.529 7.5475 123.549C8.5975 123.549 10.7975 124.349 13.8975 124.489C14.4075 124.509 14.9075 124.459 15.4075 124.329C19.7275 123.239 25.3475 123.549 25.3475 123.549C25.3475 123.549 33.7275 123.559 37.2575 123.569C39.9175 123.569 41.1975 123.559 41.9875 123.549C44.3675 123.529 46.2275 123.259 47.9875 122.759L47.9975 122.769Z" fill="#101214"/>
<path d="M215.517 122.769C216.747 122.419 216.747 119.069 215.517 118.719C213.767 118.219 211.937 117.959 209.577 117.939C206.897 118.099 206.237 118.789 204.427 118.709C201.367 118.709 196.197 117.779 194.957 117.549C194.777 117.519 194.587 117.509 194.407 117.529C193.087 117.659 187.307 118.159 182.317 117.919C178.797 117.919 176.617 117.939 175.487 117.939C172.797 117.959 170.797 118.309 168.827 118.939C167.747 119.289 167.747 122.199 168.827 122.549C170.797 123.189 172.807 123.529 175.487 123.549C176.527 123.549 178.707 124.349 181.777 124.489C182.277 124.509 182.777 124.459 183.277 124.329C187.557 123.239 193.117 123.549 193.117 123.549C193.117 123.549 201.407 123.559 204.907 123.569C207.547 123.569 208.807 123.559 209.587 123.549C211.947 123.529 213.787 123.259 215.527 122.759L215.517 122.769Z" fill="#101214"/>
<path d="M159.137 161.839C157.887 161.029 155.468 163.349 156.208 164.629C157.268 166.459 158.558 168.199 160.458 170.219C162.738 172.389 163.777 172.469 165.197 174.059C167.687 176.659 171.197 181.689 172.037 182.909C172.157 183.089 172.307 183.249 172.467 183.399C173.627 184.429 178.687 188.999 182.547 193.389C185.407 196.369 187.177 198.219 188.097 199.179C190.297 201.439 192.167 202.909 194.227 204.149C195.357 204.829 197.467 202.819 196.837 201.659C195.697 199.549 194.317 197.609 192.157 195.309C191.317 194.419 190.128 192.019 187.738 189.319C187.348 188.879 186.907 188.489 186.407 188.159C182.147 185.279 177.867 180.339 177.867 180.339C177.867 180.339 171.148 173.289 168.318 170.309C166.178 168.079 165.147 166.999 164.507 166.339C162.577 164.349 160.897 162.969 159.117 161.829L159.137 161.839Z" fill="#101214"/>
<path d="M20.5775 37.3789C19.5075 36.7589 17.0775 39.0688 17.6475 40.1688C18.4475 41.7288 19.4775 43.1989 21.0375 44.8589C22.9275 46.6189 23.8775 46.5988 25.0275 47.9188C27.0675 50.0488 29.8375 54.2988 30.4975 55.3288C30.5975 55.4788 30.7075 55.6188 30.8475 55.7288C31.8175 56.5588 36.0375 60.2488 39.1775 63.8888C41.5275 66.3388 42.9776 67.8489 43.7376 68.6389C45.5476 70.4989 47.1276 71.6589 48.8976 72.5989C49.8676 73.1089 51.9775 71.0988 51.5075 70.1088C50.6575 68.2988 49.5675 66.6589 47.7975 64.7689C47.1075 64.0389 46.2375 61.9688 44.2975 59.7288C43.9775 59.3688 43.6075 59.0488 43.1875 58.7988C39.5475 56.5688 36.0675 52.4788 36.0675 52.4788C36.0675 52.4788 30.5575 46.6888 28.2275 44.2388C26.4675 42.4088 25.6175 41.5288 25.0975 40.9788C23.5075 39.3488 22.0975 38.2489 20.5675 37.3789H20.5775Z" fill="#101214"/>
<path d="M59.9975 159.849C60.8575 158.509 58.5075 156.129 57.1475 156.969C55.2275 158.169 53.3875 159.609 51.2575 161.699C48.9675 164.189 48.8575 165.269 47.1675 166.829C44.4175 169.559 39.1175 173.489 37.8375 174.429C37.6475 174.569 37.4775 174.729 37.3275 174.899C36.2275 176.159 31.3875 181.669 26.7475 185.919C23.5975 189.049 21.6375 190.989 20.6175 192.009C18.2175 194.419 16.6575 196.439 15.3375 198.649C14.6075 199.859 16.6575 201.929 17.8775 201.219C20.0975 199.919 22.1375 198.379 24.5675 196.009C25.5075 195.079 28.0275 193.719 30.8775 191.089C31.3475 190.659 31.7575 190.179 32.1075 189.649C35.1875 185.069 40.3975 180.349 40.3975 180.349C40.3975 180.349 47.8575 172.989 51.0075 169.879C53.3675 167.529 54.5075 166.399 55.2075 165.709C57.3075 163.599 58.7775 161.769 59.9975 159.869V159.849Z" fill="#101214"/>
<path d="M199.677 42.3488C200.197 41.3488 197.837 38.9688 196.827 39.4688C195.397 40.1888 194.077 41.1188 192.597 42.5488C191.047 44.2988 191.127 45.1988 189.947 46.2588C188.057 48.1388 184.197 50.6388 183.267 51.2388C183.127 51.3288 183.007 51.4388 182.907 51.5588C182.177 52.4588 178.957 56.3588 175.707 59.2388C173.537 61.3988 172.197 62.7388 171.487 63.4388C169.847 65.0988 168.837 66.5688 168.067 68.2288C167.647 69.1388 169.687 71.2088 170.607 70.7988C172.277 70.0488 173.757 69.0588 175.437 67.4288C176.087 66.7888 177.997 66.0288 179.997 64.2488C180.327 63.9588 180.597 63.6088 180.807 63.2188C182.687 59.8188 186.347 56.6388 186.347 56.6388C186.347 56.6388 191.487 51.5688 193.657 49.4288C195.287 47.8088 196.067 47.0288 196.547 46.5488C197.987 45.0888 198.937 43.7688 199.677 42.3488Z" fill="#101214"/>
</svg>
