<svg width="219" height="216" viewBox="0 0 219 216" fill="none" xmlns="http://www.w3.org/2000/svg">
<path d="M67.9632 159.21C69.7132 158.91 71.1332 158.19 72.1532 157.4C73.1832 156.6 73.8532 155.74 74.2532 154.99C75.0532 153.48 74.8932 152.54 74.5032 152.35C74.0732 152.12 73.3932 152.59 72.3032 153.29C71.2132 153.97 69.6432 154.94 67.3832 155.2C67.1832 155.21 66.9832 155.23 66.7832 155.24H66.0732C65.7432 155.25 65.4132 155.26 65.0832 155.28L64.0932 155.41C62.7732 155.64 61.4932 156.1 60.3132 156.76C57.9432 158.08 56.0132 160.27 55.0232 162.91C54.5232 164.22 54.2532 165.66 54.2232 167.06C54.2032 168.18 54.1832 169.3 54.1632 170.44C54.1232 172.71 54.0932 175.02 54.0532 177.37C54.0032 182.08 53.9532 186.97 53.9032 192.12C53.8932 194.69 53.8732 197.33 53.8632 200.04C53.8632 200.72 53.8632 201.4 53.8632 202.08C53.8632 202.67 53.8532 203.7 54.0032 204.59C54.2632 206.41 54.9432 208.21 56.0032 209.78C57.2332 211.54 58.8132 212.91 60.5532 213.81C62.2932 214.7 64.1432 215.14 65.9132 215.19C66.4032 215.21 66.6932 215.2 67.0232 215.19C67.3532 215.19 67.6732 215.19 68.0032 215.18C68.6432 215.18 69.2732 215.16 69.8932 215.15C71.1232 215.13 72.3032 215.11 73.4332 215.09C77.9532 214.98 81.7432 214.9 85.2632 214.81C92.3032 214.63 98.3132 214.47 107.083 214.51C136.753 214.51 186.763 215.44 198.873 215.67C201.303 215.68 203.763 214.97 205.803 213.61C206.703 213 207.753 212.17 208.723 210.98C209.683 209.79 210.593 208.25 211.123 206.38C211.373 205.44 211.573 204.43 211.603 203.37C211.633 202.78 211.623 202.42 211.623 202.01C211.623 201.6 211.623 201.18 211.613 200.76C211.603 199.06 211.583 197.23 211.573 195.28C211.523 187.47 211.453 177.76 211.383 166.93C211.373 163.33 209.663 159.65 206.733 157.28C205.273 156.1 203.523 155.24 201.653 154.8C200.723 154.57 199.763 154.49 198.803 154.47C198.293 154.47 197.813 154.41 197.333 154.31C196.363 154.1 195.453 153.63 194.683 153C194.293 152.68 193.943 152.31 193.643 151.91C193.333 151.49 193.143 151.14 192.753 150.38C191.363 147.71 189.953 145.02 188.533 142.31C182.903 131.45 177.123 120.31 171.573 109.6C167.633 102.04 164.073 95.21 160.873 89.05C160.473 88.28 160.073 87.52 159.683 86.77C159.173 85.79 158.533 84.87 157.793 84.07C156.323 82.46 154.483 81.3 152.533 80.65C151.563 80.32 150.563 80.12 149.573 80.04C148.473 79.97 147.853 80 147.103 80C145.653 80 144.243 80 142.873 80C131.963 80 123.933 80 118.433 80H117.223H116.613L115.813 80.03C114.753 80.1 113.713 80.31 112.723 80.64C110.743 81.3 108.963 82.45 107.583 83.92C106.893 84.66 106.293 85.48 105.803 86.34C105.533 86.82 105.403 87.09 105.223 87.44L104.713 88.43C104.033 89.75 103.373 91.06 102.713 92.34C100.103 97.5 97.6432 102.38 95.2732 107.06C90.5732 116.45 86.3532 125.11 82.2232 133.72C77.6932 143.18 80.2732 144.53 85.4232 135.39C90.1132 127.07 94.7732 118.64 99.7632 109.41C102.243 104.78 104.823 99.96 107.553 94.87C108.233 93.59 108.913 92.3 109.613 90.99L110.133 90C110.303 89.68 110.503 89.29 110.623 89.09C110.903 88.61 111.233 88.16 111.623 87.76C112.403 86.95 113.393 86.33 114.483 85.97C115.033 85.79 115.603 85.68 116.183 85.64H116.623L117.223 85.63H118.433C123.483 85.63 131.283 85.83 141.523 86.05C142.803 86.08 144.123 86.1 145.483 86.13C146.163 86.14 146.853 86.16 147.543 86.17C147.883 86.17 148.233 86.18 148.583 86.19C148.823 86.2 149.063 86.22 149.293 86.26C151.183 86.52 153.033 87.75 153.963 89.6C156.753 95.14 159.893 101.37 163.293 107.95C165.513 112.26 167.793 116.53 170.123 120.73C175.153 129.8 180.453 139.59 185.583 149.18C186.223 150.38 186.863 151.58 187.503 152.77L187.983 153.66C188.183 154 188.393 154.41 188.633 154.75C189.103 155.47 189.663 156.14 190.273 156.73C191.493 157.93 192.973 158.84 194.553 159.42C195.343 159.7 196.163 159.92 196.983 160.04C197.393 160.09 197.813 160.14 198.223 160.15L198.813 160.17L199.163 160.19C201.043 160.26 202.813 161.16 204.003 162.53C204.603 163.21 205.043 164 205.323 164.83C205.463 165.25 205.563 165.67 205.623 166.1C205.673 166.31 205.663 166.53 205.683 166.75C205.703 166.94 205.703 167.23 205.703 167.53C205.763 186.17 205.683 199.63 205.683 199.63C205.683 199.63 205.683 199.94 205.683 200.54C205.683 200.84 205.683 201.21 205.683 201.64C205.683 201.86 205.683 202.09 205.683 202.34C205.683 202.47 205.683 202.59 205.683 202.73C205.683 202.83 205.673 202.94 205.663 203.04C205.633 203.87 205.443 204.88 204.913 205.92C204.383 206.96 203.483 208.02 202.203 208.75C201.563 209.11 200.843 209.39 200.053 209.54C199.853 209.57 199.653 209.6 199.453 209.63C199.243 209.64 199.043 209.65 198.833 209.66C198.263 209.66 197.693 209.66 197.103 209.66C194.743 209.66 192.213 209.66 189.563 209.66C184.263 209.66 178.443 209.66 172.363 209.66C148.043 209.66 119.493 209.66 102.533 209.66C89.7732 209.66 80.3132 209.66 73.1132 209.67C71.3132 209.67 69.6532 209.67 68.1132 209.67C67.7332 209.67 67.3532 209.67 66.9832 209.67H66.4332L66.0332 209.65C65.5132 209.64 65.0232 209.54 64.5632 209.42C62.7132 208.91 61.4532 207.76 60.6732 206.64C60.0932 205.77 59.7232 204.79 59.5732 203.79C59.4332 202.94 59.4932 201.36 59.4732 200.05C59.4632 197.34 59.4432 194.71 59.4332 192.13C59.3832 186.98 59.3332 182.09 59.2832 177.38C59.2432 175.03 59.2132 172.72 59.1732 170.45C59.1532 169.31 59.1332 168.19 59.1132 167.07C59.1032 166.18 59.2232 165.34 59.4932 164.52C60.0232 162.89 61.1432 161.46 62.5932 160.56C63.3132 160.1 64.1132 159.77 64.9432 159.57L65.5732 159.45L66.2132 159.39C66.3832 159.37 66.7832 159.36 67.0732 159.33C67.3832 159.3 67.7032 159.26 68.0132 159.21H67.9632Z" fill="#101214"/>
<path d="M161.683 148.64C163.003 150.48 164.243 151.23 165.123 150.86C165.943 150.52 166.363 148.92 165.123 146.51C163.363 143.14 160.693 140.06 157.213 137.58C153.743 135.1 149.463 133.26 144.553 132.19C138.953 131.12 135.423 131.34 132.413 131.53C129.403 131.78 126.853 132.09 123.123 132.71C119.983 133.28 116.303 134.24 112.663 135.93C109.023 137.58 105.473 140.11 102.803 143.16C100.093 146.2 98.3132 149.67 97.2732 152.6C96.2132 155.54 95.7932 157.96 95.5832 159.3C95.4632 160.09 95.3832 160.89 95.3632 161.69C95.3232 163.12 95.2832 165.73 95.7832 169.22C96.2932 172.68 97.4032 177.06 100.023 181.36C102.603 185.65 106.803 189.59 111.743 192.06C116.673 194.6 122.123 195.9 127.313 196.47C134.653 197.16 140.673 196.52 145.353 195.43C150.033 194.33 153.353 192.76 155.513 191.52C160.663 188.61 164.293 184.44 166.393 180.15C168.523 175.85 169.273 171.51 169.303 167.37C169.303 165.08 168.433 163.97 167.643 163.97C166.813 163.97 166.053 165.04 165.713 167.06C165.083 170.76 163.953 174.36 161.933 177.74C159.923 181.1 156.993 184.24 152.733 186.63C151.093 187.57 148.323 188.68 144.483 189.41C140.643 190.14 135.743 190.48 129.993 190.07C128.133 189.94 126.283 189.78 124.463 189.59C120.523 189.18 116.393 188.04 112.863 186.06C109.323 184.1 106.543 181.23 104.803 178.27C103.053 175.31 102.243 172.34 101.863 170.23C101.673 169.17 101.573 168.31 101.513 167.72C101.453 167.13 101.443 166.81 101.443 166.81C101.443 166.81 101.403 166.33 101.363 165.47C101.323 164.61 101.313 163.34 101.393 161.79C101.563 158.72 102.233 154.47 104.313 150.47C105.353 148.48 106.723 146.58 108.393 144.93C110.073 143.3 112.003 141.9 114.053 140.82C118.143 138.65 122.493 137.65 125.753 137.19C130.673 136.5 134.453 136.61 137.243 136.8C140.043 137.02 141.943 137.37 143.373 137.67C152.013 139.53 157.863 143.4 161.673 148.62L161.683 148.64Z" fill="#101214"/>
<path d="M4.5732 136.75C1.7432 136.6 0.183203 137.21 0.013203 138.14C-0.146797 139.02 1.1432 140.24 4.1132 140.77C8.3032 141.49 12.7232 141.87 17.5232 141.58C22.3132 141.29 27.5232 140.4 33.0432 138.33C39.2632 135.86 42.6732 133.33 45.4932 131.1C48.2932 128.82 50.5132 126.71 53.5532 123.43C56.0832 120.63 58.7432 117.05 60.9632 112.98C63.1732 108.91 64.9132 104.33 65.8132 99.77C66.7432 95.23 66.7532 90.73 66.1132 87.05C65.5132 83.35 64.2432 80.54 63.4632 79.04C63.0032 78.14 62.4432 77.29 61.8332 76.47C60.7332 75.05 58.4532 72.42 54.6132 70.25C50.8032 68.05 45.5232 66.6 39.8332 66.52C39.0732 66.52 38.2332 66.56 37.4132 66.61C36.9832 66.68 36.5632 66.76 36.1332 66.83L35.4932 66.95L34.8332 67.16C33.0932 67.65 31.2432 68.73 29.8932 70.33C28.5232 71.92 27.7332 73.96 27.5432 75.95C27.3432 77.95 27.6532 79.92 28.3732 81.73C28.7232 82.64 29.2032 83.51 29.7632 84.32C30.0532 84.7 30.3832 85.15 30.6732 85.47L31.5132 86.36C32.0932 86.94 32.6132 87.56 33.2332 88.1L35.0932 89.73C37.6832 91.79 40.5832 93.51 43.6632 94.68C48.0632 96.26 52.3932 96.58 56.1532 96.17C59.9232 95.76 63.1332 94.66 65.7832 93.4C67.1332 92.81 68.2832 92.06 69.3832 91.42C70.4232 90.69 71.4232 90.06 72.2432 89.34C72.6632 89 73.0632 88.66 73.4532 88.35C73.8132 88.01 74.1632 87.68 74.4932 87.37C74.8232 87.05 75.1332 86.75 75.4332 86.47C75.7032 86.16 75.9632 85.87 76.2132 85.6C78.5332 83.01 80.2932 80.21 81.5732 77.38C82.8432 74.54 83.5632 71.66 83.9132 68.87C84.3032 66.07 84.1032 63.35 83.7132 60.78C83.4532 59.5 83.2232 58.24 82.7932 57.04C82.5932 56.44 82.4332 55.83 82.1932 55.25L81.4532 53.53C81.3132 53.22 81.1832 52.93 81.0332 52.67C80.8732 52.42 80.7032 52.19 80.5532 51.98C80.2332 51.57 79.9232 51.25 79.6332 51.02C79.0532 50.56 78.5532 50.46 78.1932 50.65C77.8332 50.84 77.6132 51.32 77.5832 52.03C77.5732 52.38 77.6032 52.79 77.6932 53.25C77.7432 53.48 77.8032 53.72 77.8732 53.98C77.9332 54.24 77.9932 54.52 78.0832 54.82C79.3532 59.05 79.7832 63.5 78.9032 68.11C78.4532 70.41 77.7532 72.76 76.6232 75.07C75.4832 77.38 73.9832 79.67 72.0432 81.83C70.5432 83.48 67.8432 85.84 63.7432 87.68C59.6832 89.5 54.0732 90.69 48.0432 89.13C46.1032 88.58 44.1732 87.93 42.3532 86.97C41.3332 86.53 40.4032 85.86 39.4132 85.25C38.9232 84.93 38.4832 84.53 38.0132 84.17C37.5532 83.8 37.0632 83.45 36.6432 83.01L35.3332 81.74C35.2332 81.64 35.1032 81.52 35.0132 81.43L34.8032 81.17C34.6632 80.99 34.4932 80.83 34.3832 80.62C33.8532 79.86 33.4832 78.94 33.3432 78.02C33.1932 77.1 33.2432 76.19 33.4832 75.4C33.7132 74.6 34.1932 73.99 34.7932 73.49C35.9932 72.44 37.9532 72.15 39.9232 72.21C44.1632 72.33 47.6432 73.31 49.8732 74.36C50.9932 74.87 51.8332 75.38 52.3832 75.75C52.9332 76.13 53.2232 76.33 53.2232 76.33C53.2232 76.33 53.6432 76.66 54.3932 77.26C55.1132 77.9 56.1232 78.86 57.1332 80.25C58.1432 81.64 59.1332 83.46 59.8432 85.66C60.5832 87.85 60.9632 90.42 61.0232 93.14C61.0932 98.6 59.5432 104.6 57.0332 109.67C54.5632 114.78 51.2532 118.94 48.5032 121.72C44.3632 125.93 40.6432 128.32 37.7532 129.97C34.8332 131.58 32.7132 132.47 31.0732 133.07C26.1232 134.95 21.4532 135.89 17.0832 136.41C12.7032 136.93 8.5932 136.95 4.5832 136.75H4.5732Z" fill="#101214"/>
<path d="M180.493 77.34C179.483 77.46 178.703 80.71 179.553 81.28C180.753 82.08 182.083 82.67 183.853 83.12C185.903 83.45 186.573 82.9 187.923 83.3C190.233 83.85 193.913 85.69 194.803 86.14C194.933 86.21 195.073 86.25 195.213 86.26C196.233 86.38 200.723 86.93 204.423 88.06C207.083 88.69 208.723 89.07 209.583 89.28C211.613 89.74 213.213 89.77 214.843 89.51C215.743 89.37 216.423 86.53 215.683 86C214.343 85.02 212.913 84.33 210.893 83.82C210.103 83.63 208.653 82.46 206.373 81.77C206.003 81.66 205.613 81.62 205.203 81.65C201.723 81.94 197.603 80.64 197.603 80.64C197.603 80.64 191.353 79.13 188.713 78.49C186.723 78.02 185.763 77.8 185.173 77.66C183.383 77.26 181.943 77.18 180.503 77.35L180.493 77.34Z" fill="#101214"/>
<path d="M90.6232 62C88.0632 61.87 86.8432 65.04 90.2832 66.05C91.1732 66.28 92.0632 66.5101 92.9732 66.7401L93.6732 66.91L94.0332 67C94.1032 66.92 94.1532 66.81 94.2132 66.72C94.4532 66.32 94.6832 65.92 94.9232 65.51C95.3932 64.71 95.8632 63.9 96.3432 63.07C96.6232 62.6 96.9332 62.14 97.2532 61.68C97.9032 60.76 98.5032 59.76 99.2632 58.81C99.6232 58.32 99.9932 57.82 100.373 57.31C100.763 56.81 101.203 56.32 101.623 55.8C103.503 53.41 104.773 52 105.903 50.78C106.443 50.14 107.033 49.63 107.653 49.1C108.283 48.57 108.953 48 109.873 47.51C111.353 46.56 113.213 45.68 115.223 44.97C117.233 44.26 119.403 43.76 121.463 43.49C122.503 43.4 123.493 43.22 124.443 43.21C125.393 43.2 126.283 43.18 127.093 43.17C128.703 43.22 129.973 43.37 130.673 43.41L131.933 43.5001C133.413 43.5701 137.553 43.61 142.603 44.83C143.863 45.1 145.143 45.54 146.483 45.9C147.793 46.34 149.123 46.88 150.453 47.42C151.093 47.74 151.743 48.06 152.393 48.38L153.363 48.87L154.283 49.44C154.893 49.82 155.503 50.2 156.103 50.58C156.673 51 157.223 51.45 157.783 51.87C158.173 52.17 158.583 52.4301 158.923 52.7501C159.273 53.0601 159.613 53.37 159.943 53.67C160.273 53.97 160.593 54.26 160.913 54.54C161.223 54.83 161.483 55.15 161.753 55.44C162.283 56.04 162.823 56.57 163.273 57.13C163.703 57.7 164.113 58.23 164.493 58.73C164.893 59.22 165.193 59.72 165.483 60.19C165.773 60.65 166.043 61.09 166.293 61.48C166.793 62.28 167.093 63.01 167.403 63.57C167.573 63.9 167.753 64.2301 167.923 64.5601C168.063 64.9001 168.213 65.2301 168.343 65.5601C168.633 66.2201 168.903 66.85 169.173 67.47C169.403 68.11 169.633 68.73 169.853 69.34C170.093 69.94 170.313 70.54 170.483 71.14C170.853 72.33 171.273 73.47 171.553 74.62C171.713 75.19 171.883 75.76 172.043 76.32C172.203 76.88 172.313 77.4601 172.463 78.0201C173.073 80.5001 175.983 80.3901 176.053 77.6301C176.053 77.0101 176.093 76.38 176.063 75.75C176.023 75.12 175.983 74.48 175.943 73.84C175.883 72.54 175.643 71.24 175.403 69.87C175.293 69.18 175.133 68.49 174.923 67.79C174.723 67.09 174.523 66.36 174.313 65.62C174.063 64.89 173.763 64.15 173.473 63.39C173.323 63.01 173.173 62.62 173.013 62.23C172.823 61.85 172.633 61.47 172.433 61.08C172.113 60.48 171.803 59.67 171.343 58.73C170.843 57.81 170.333 56.69 169.613 55.49C168.163 53.1 166.053 50.24 162.953 47.53C161.903 46.71 160.803 45.93 159.663 45.27C158.373 44.66 157.103 43.92 155.753 43.33C155.083 43.04 154.403 42.75 153.723 42.46L152.713 42.02L151.683 41.66C148.953 40.63 146.253 39.87 143.863 39.28C142.663 39.02 141.553 38.77 140.553 38.55C139.553 38.35 138.653 38.24 137.923 38.11C137.183 37.99 136.593 37.89 136.193 37.82C135.793 37.75 135.573 37.72 135.573 37.72C135.573 37.72 134.253 37.62 132.123 37.45C129.993 37.34 127.033 37.33 123.803 37.69C120.583 38.12 117.073 38.83 113.983 40.08C112.403 40.6 110.993 41.3701 109.663 42.0001C108.363 42.6801 107.243 43.43 106.253 44.01C103.423 45.98 101.513 47.68 100.153 49.04C99.4832 49.74 98.9232 50.32 98.4332 50.83C97.9632 51.35 97.6132 51.81 97.2832 52.2C96.8032 52.79 96.3232 53.36 95.9032 53.94C95.5032 54.54 95.1032 55.12 94.7232 55.68C93.9332 56.8 93.3532 57.96 92.7532 59.05C92.4532 59.59 92.1832 60.14 91.9532 60.69C91.8732 60.87 91.8932 60.85 91.8632 60.93L91.8132 61.1L91.7032 61.46L91.5932 61.83L91.5632 61.93H91.4832L91.3232 61.95C91.0832 61.96 90.8432 61.98 90.6032 61.99L90.6232 62Z" fill="#101214"/>
<path d="M214.313 82.87C214.463 85.97 215.253 87.59 216.193 87.65C217.093 87.71 218.153 86.16 218.353 82.89C218.623 78.27 218.493 73.49 217.763 68.35C217.013 63.22 215.683 57.72 213.333 51.84C210.493 45.24 207.923 41.52 205.633 38.39C203.313 35.28 201.193 32.75 197.943 29.21C195.163 26.24 191.703 22.96 187.783 19.92C183.873 16.87 179.523 14.06 175.253 11.74C166.703 7.07 158.523 4.52 155.373 3.54C154.433 3.27 153.483 3.02 152.533 2.8C151.683 2.58 150.453 2.38 148.933 2.08C147.413 1.74 145.543 1.52 143.433 1.22C141.313 0.96 138.963 0.49 136.353 0.4C135.053 0.31 133.703 0.22 132.303 0.13C131.603 0.09 130.893 0.02 130.173 0C129.453 0 128.713 0.01 127.973 0.02C126.493 0.03 124.963 0.05 123.413 0.06C123.023 0.06 122.633 0.06 122.243 0.08C121.853 0.12 121.453 0.15 121.063 0.19C120.273 0.26 119.473 0.33 118.673 0.41C117.873 0.48 117.063 0.56 116.243 0.63C115.433 0.7 114.603 0.76 113.793 0.93C112.163 1.22 110.513 1.51 108.843 1.8C102.263 3.23 95.5432 5.21 89.5832 8.26C81.1032 12.47 75.1332 17.39 70.7332 21.5C69.6632 22.56 68.7232 23.61 67.8132 24.56C66.9332 25.53 66.0532 26.38 65.3532 27.25C63.9732 29.01 62.8132 30.48 61.8832 31.68C59.3632 35.27 57.1532 38.67 55.4832 42.06C55.0432 42.9 54.6232 43.72 54.1932 44.53C53.7632 45.33 53.4632 46.18 53.1132 46.99C52.4132 48.68 51.7332 50.31 51.0732 51.91C50.3832 53.68 50.6232 55.66 51.6132 57.12C52.5532 58.61 54.2632 59.48 55.9032 59.64C57.9132 59.91 59.8732 60.17 61.8232 60.42C67.3632 61.12 67.9032 58.26 62.4932 56.87C60.5832 56.39 58.6632 55.91 56.6932 55.42C55.6932 55.29 55.1732 54.15 55.6732 53.41C55.7532 53.28 55.9732 52.82 56.1432 52.49C56.3232 52.13 56.5032 51.77 56.6832 51.41C57.0432 50.68 57.4032 49.94 57.7632 49.19C58.1432 48.45 58.4632 47.66 58.9032 46.92C59.3332 46.17 59.7732 45.42 60.2132 44.65C61.8932 41.51 64.0332 38.38 66.3932 35.03C67.1932 34.01 68.2632 32.74 69.5432 31.23C70.1532 30.44 70.9832 29.75 71.7932 28.93C72.6132 28.12 73.4932 27.26 74.4332 26.35C78.4032 22.95 83.4432 18.88 90.0932 15.35C91.1732 14.78 92.2932 14.29 93.3832 13.72C94.4832 13.19 95.5332 12.55 96.6532 12.07C97.8632 11.56 99.1032 11.04 100.353 10.51C100.983 10.25 101.613 9.98 102.253 9.73C102.913 9.53 103.573 9.33 104.243 9.13C105.573 8.73 106.913 8.33 108.253 7.92C109.613 7.58 111.003 7.36 112.363 7.07C113.053 6.94 113.733 6.8 114.413 6.67L115.433 6.47L116.463 6.37C117.833 6.23 119.183 6.1 120.513 5.97C121.173 5.91 121.833 5.84 122.483 5.78C123.133 5.75 123.783 5.76 124.423 5.75C125.703 5.74 126.953 5.73 128.153 5.72C128.753 5.72 129.353 5.72 129.933 5.71C130.513 5.73 131.083 5.79 131.643 5.82C132.753 5.9 133.823 5.99 134.823 6.06C135.823 6.14 136.773 6.21 137.653 6.28C138.533 6.37 139.333 6.53 140.063 6.64C142.983 7.11 144.713 7.39 144.713 7.39C144.713 7.39 144.873 7.41 145.183 7.46C145.493 7.51 145.943 7.56 146.523 7.69C147.673 7.95 149.353 8.24 151.383 8.75C155.463 9.7 161.013 11.3 166.813 13.74C172.603 16.18 178.653 19.42 183.753 23.18C188.873 26.9 193.103 30.97 195.953 34.25C200.233 39.21 202.793 43.36 204.583 46.59C206.383 49.82 207.343 52.18 208.113 53.96C210.313 59.4 211.683 64.46 212.633 69.22C213.573 73.99 214.073 78.47 214.293 82.87H214.313Z" fill="#101214"/>
</svg>
