<svg width="249" height="252" viewBox="0 0 249 252" fill="none" xmlns="http://www.w3.org/2000/svg">
<path d="M180.592 188.501C183.882 191.231 186.222 188.831 183.422 185.611C179.452 181.041 175.112 176.411 169.302 170.701C162.592 164.351 160.462 163.241 156.042 158.811C148.482 151.421 136.382 138.281 133.472 135.111C133.042 134.641 132.592 134.191 132.122 133.761C128.782 130.671 114.152 117.061 102.022 104.871C93.3318 96.3811 87.9518 91.1311 85.1518 88.3911C78.5018 81.9211 73.3118 77.3211 68.0118 73.0211C65.0918 70.6611 63.0618 72.7411 65.4918 75.6011C69.9118 80.8111 74.6218 85.9011 81.2318 92.4011C83.8018 94.9211 88.6118 100.741 96.0918 108.251C97.3118 109.471 98.5818 110.641 99.8918 111.751C111.212 121.311 124.712 134.941 124.712 134.941C124.712 134.941 145.162 154.971 153.802 163.421C160.312 169.781 163.442 172.841 165.372 174.721C171.212 180.401 175.932 184.641 180.592 188.511V188.501Z" fill="#101214"/>
<path d="M63.0918 86.4111C65.9218 77.7011 62.7818 76.5411 59.2918 85.0111C54.3418 97.0211 49.3818 109.721 43.3118 126.161C36.6018 144.861 35.5418 149.741 30.8218 162.341C22.9718 183.681 8.84178 219.371 5.43178 227.961C4.93178 229.231 4.45178 230.511 3.99178 231.801C3.58178 232.951 3.00178 234.601 2.27178 236.661C1.90178 237.691 1.50178 238.821 1.07178 240.051C0.851778 240.681 0.621778 241.331 0.381778 242.001C-0.0682219 243.251 -0.148222 244.801 0.291778 246.211C0.731778 247.631 1.62178 248.911 2.88178 249.791C4.12178 250.681 5.78178 251.181 7.42178 251.001C7.83178 250.971 8.22178 250.881 8.61178 250.771C9.09178 250.641 9.21178 250.571 9.42178 250.501C9.82178 250.351 10.2318 250.211 10.6418 250.061C11.4618 249.761 12.3018 249.461 13.1618 249.151C16.5918 247.921 20.2918 246.591 24.2018 245.181C39.8218 239.591 58.6518 232.911 76.1518 226.901C100.802 218.251 116.062 212.891 124.032 210.091C142.842 203.471 156.802 198.211 170.392 192.771C177.862 189.781 176.902 187.031 169.202 189.361C155.182 193.601 141.002 198.211 122.172 204.791C114.862 207.351 99.3518 211.941 77.7918 219.351C74.2818 220.561 70.7918 221.841 67.3618 223.181C52.5418 228.951 35.3718 235.181 21.9118 239.971C18.5418 241.161 15.4118 242.271 12.6018 243.261C11.2018 243.751 9.87178 244.221 8.64178 244.651C8.33178 244.761 8.03178 244.861 7.74178 244.971L7.30178 245.121L7.12178 245.181H7.06178C6.88178 245.231 6.74178 245.241 6.61178 245.201C6.34178 245.131 6.10178 244.911 5.99178 244.701C5.89178 244.481 5.88178 244.321 5.91178 244.161C5.91178 244.121 5.93178 244.081 5.94178 244.041C5.96178 243.981 5.94178 244.011 5.98178 243.891C6.06178 243.681 6.13178 243.501 6.18178 243.351C6.29178 243.061 6.35178 242.911 6.35178 242.911C6.35178 242.911 27.6318 185.131 36.6118 160.731C43.3618 142.361 46.6118 133.521 48.6118 128.091C54.6418 111.641 59.1018 98.7511 63.1218 86.4011L63.0918 86.4111Z" fill="#101214"/>
<path d="M118.812 80.7611C118.422 79.5911 115.062 79.0911 114.782 81.0811C114.642 82.4311 114.772 83.9011 115.332 85.4111C115.882 86.9211 116.892 88.5111 118.622 89.7911C120.692 91.1311 122.432 91.2011 123.712 91.0711C124.932 90.9111 125.892 90.6511 127.262 90.2911C129.552 89.6211 132.332 88.0811 134.262 85.9211C135.232 84.8811 136.012 83.7311 136.542 82.6611C137.082 81.6011 137.362 80.6511 137.502 80.1111C137.572 79.7911 137.632 79.4611 137.622 79.1211C137.622 78.5311 137.602 77.3911 137.182 75.9611C136.772 74.5211 135.932 72.9011 134.662 71.5011C133.402 70.1011 131.732 68.8911 129.852 68.0911C128.922 67.7011 127.922 67.3811 126.952 67.2011C125.982 67.0511 125.052 66.8311 124.032 66.8411C121.212 66.7811 118.792 67.6811 117.182 68.7411C116.792 69.0311 116.432 69.2911 116.092 69.5411C115.762 69.8011 115.512 70.0911 115.252 70.3311C114.732 70.8211 114.392 71.2911 114.112 71.6711C112.812 73.4811 112.222 75.3111 112.032 77.0111C111.842 78.7211 112.032 80.3411 112.742 81.8811C113.722 83.7211 116.172 81.8811 116.252 81.0211C116.342 80.0611 116.612 79.0511 117.002 78.0411C117.392 77.0311 117.902 75.9911 118.642 75.0011C118.792 74.8111 118.992 74.5811 119.312 74.4011C119.462 74.3111 119.622 74.2111 119.802 74.1011C119.992 74.0311 120.182 73.9511 120.392 73.8611C121.242 73.5711 122.212 73.4011 123.482 73.4011C123.702 73.4211 123.912 73.4111 124.132 73.3911C124.342 73.3611 124.572 73.3111 124.812 73.3011C125.322 73.2611 125.912 73.1811 126.412 73.2311C126.932 73.2811 127.452 73.3911 127.942 73.5711C128.922 73.9311 129.772 74.5411 130.342 75.1911C130.922 75.8411 131.232 76.5011 131.372 76.9611C131.512 77.4211 131.532 77.7011 131.532 77.7011C131.532 77.7011 131.622 78.1111 131.582 78.8111C131.542 79.5111 131.312 80.5211 130.712 81.5711C130.422 82.0911 130.042 82.6211 129.612 83.1211C129.202 83.5911 128.722 84.0211 128.222 84.3911C127.222 85.1311 126.172 85.5511 125.412 85.7311C124.832 85.8611 124.342 85.9111 123.912 85.8911C123.532 85.8711 123.242 85.8211 122.982 85.7411C122.462 85.5911 122.132 85.3511 121.882 85.1911C121.122 84.6511 120.512 83.9511 120.022 83.1811C119.522 82.4211 119.122 81.6011 118.812 80.7211V80.7611Z" fill="#101214"/>
<path d="M210.142 23.0712C209.752 21.9012 206.392 21.4012 206.112 23.3912C205.972 24.7412 206.102 26.2112 206.662 27.7212C207.212 29.2312 208.222 30.8212 209.952 32.1012C212.022 33.4412 213.762 33.5112 215.042 33.3812C216.262 33.2212 217.222 32.9612 218.592 32.6012C220.882 31.9312 223.662 30.3912 225.592 28.2312C226.562 27.1912 227.342 26.0412 227.872 24.9712C228.412 23.9112 228.692 22.9612 228.832 22.4212C228.902 22.1012 228.962 21.7712 228.952 21.4312C228.952 20.8412 228.932 19.7012 228.512 18.2712C228.102 16.8312 227.262 15.2112 225.992 13.8112C224.732 12.4112 223.062 11.2012 221.182 10.4012C220.252 10.0112 219.252 9.69115 218.282 9.51115C217.312 9.36115 216.382 9.14115 215.362 9.15115C212.542 9.09115 210.122 9.99115 208.512 11.0512C208.122 11.3412 207.762 11.6012 207.422 11.8512C207.092 12.1112 206.842 12.4012 206.582 12.6412C206.062 13.1312 205.722 13.6012 205.442 13.9812C204.142 15.7912 203.552 17.6212 203.362 19.3212C203.172 21.0312 203.362 22.6512 204.072 24.1912C205.052 26.0312 207.502 24.1912 207.582 23.3312C207.672 22.3712 207.942 21.3612 208.332 20.3512C208.722 19.3412 209.232 18.3012 209.972 17.3112C210.122 17.1212 210.322 16.8912 210.642 16.7112C210.792 16.6212 210.952 16.5212 211.132 16.4112C211.322 16.3412 211.512 16.2612 211.722 16.1712C212.572 15.8812 213.542 15.7112 214.812 15.7112C215.032 15.7312 215.242 15.7212 215.462 15.7012C215.672 15.6712 215.902 15.6212 216.142 15.6112C216.652 15.5712 217.242 15.4912 217.742 15.5412C218.262 15.5912 218.782 15.7012 219.272 15.8812C220.252 16.2412 221.102 16.8512 221.672 17.5012C222.252 18.1512 222.562 18.8112 222.702 19.2712C222.842 19.7312 222.862 20.0112 222.862 20.0112C222.862 20.0112 222.952 20.4212 222.912 21.1212C222.872 21.8212 222.642 22.8312 222.042 23.8812C221.752 24.4012 221.372 24.9312 220.942 25.4312C220.532 25.9012 220.052 26.3312 219.552 26.7012C218.552 27.4412 217.502 27.8612 216.742 28.0412C216.162 28.1712 215.672 28.2212 215.242 28.2012C214.862 28.1812 214.572 28.1312 214.312 28.0512C213.792 27.9012 213.462 27.6612 213.212 27.5012C212.452 26.9612 211.842 26.2612 211.352 25.4912C210.852 24.7312 210.452 23.9112 210.142 23.0312V23.0712Z" fill="#101214"/>
<path d="M145.802 123.701C142.502 122.451 141.132 125.511 143.962 127.311C145.982 128.621 148.092 129.971 150.482 131.341C152.872 132.701 155.552 134.101 158.792 135.371C162.522 136.701 165.092 137.041 167.322 137.181C169.562 137.281 171.502 137.221 174.342 136.791C176.722 136.371 179.512 135.371 181.952 133.671C184.402 132.001 186.562 129.781 188.172 127.411C189.802 125.051 190.952 122.511 191.522 120.171C192.112 117.841 192.072 115.711 191.832 114.511C191.772 114.151 191.702 113.801 191.612 113.451C191.512 113.101 191.352 112.751 191.202 112.411C190.762 111.201 189.272 108.861 186.592 107.331C186.432 107.231 186.262 107.131 186.092 107.021C185.922 106.941 185.742 106.871 185.572 106.791C185.212 106.641 184.852 106.491 184.482 106.331C184.292 106.251 184.102 106.181 183.912 106.101C183.702 106.041 183.482 105.991 183.262 105.931C182.822 105.831 182.382 105.691 181.922 105.631C180.062 105.331 178.002 105.521 176.062 106.191C172.162 107.521 168.792 110.751 167.252 114.961C166.492 117.061 166.222 119.401 166.532 121.641C166.802 123.871 167.632 126.021 168.792 127.841C170.492 130.371 172.532 132.051 174.392 133.321C176.272 134.581 178.022 135.441 179.582 136.121C182.702 137.471 185.052 138.101 186.652 138.561C190.452 139.561 193.822 140.041 196.932 140.281C200.042 140.511 202.902 140.491 205.732 140.271C208.872 139.981 208.762 137.061 205.842 136.661C203.162 136.251 200.482 135.801 197.582 135.251C194.692 134.701 191.572 134.081 188.112 133.141C186.772 132.771 184.752 131.991 182.322 130.731C179.942 129.461 177.032 127.691 174.952 125.141C174.302 124.311 173.752 123.481 173.282 122.611C172.212 120.711 172.132 118.211 173.092 116.001C174.092 113.831 176.032 112.101 177.942 111.541C178.882 111.241 179.792 111.131 180.582 111.251C180.982 111.261 181.342 111.371 181.682 111.471C182.022 111.531 182.342 111.721 182.622 111.841C182.902 111.981 183.192 112.061 183.382 112.201C183.572 112.331 183.732 112.451 183.862 112.541C184.122 112.721 184.272 112.811 184.262 112.821C184.212 112.861 185.102 113.401 185.692 114.821C185.892 115.151 185.912 115.621 186.042 116.081C186.052 116.591 186.172 117.111 186.082 117.721C186.082 118.311 185.922 118.961 185.802 119.631C185.602 120.301 185.422 121.001 185.112 121.701C184.002 124.531 181.892 127.371 179.512 129.251C177.132 131.181 174.452 131.951 172.382 132.151C169.242 132.451 166.762 131.881 164.912 131.421C163.052 130.931 161.782 130.451 160.822 130.101C154.972 127.821 150.442 125.451 145.822 123.681L145.802 123.701Z" fill="#101214"/>
<path d="M162.102 61.0712C161.322 61.3912 161.202 64.7412 161.952 65.1112C163.022 65.6512 164.152 65.9512 165.612 66.0312C167.282 65.9412 167.712 65.2612 168.842 65.3712C170.742 65.4412 173.912 66.4912 174.682 66.7512C174.792 66.7912 174.912 66.8012 175.022 66.7912C175.842 66.6912 179.452 66.3212 182.532 66.6712C184.712 66.7412 186.062 66.7812 186.772 66.8112C188.442 66.8512 189.702 66.5512 190.942 65.9612C191.622 65.6412 191.732 62.7312 191.072 62.3512C189.872 61.6712 188.642 61.2812 186.972 61.1912C186.322 61.1612 185.002 60.3112 183.102 60.1012C182.792 60.0712 182.482 60.1012 182.172 60.2212C179.472 61.2112 176.042 60.7812 176.042 60.7812C176.042 60.7812 170.902 60.5812 168.722 60.4912C167.082 60.4412 166.302 60.4112 165.812 60.4012C164.342 60.3712 163.202 60.5912 162.092 61.0512L162.102 61.0712Z" fill="#101214"/>
<path d="M177.002 48.5511C176.622 47.8111 173.282 47.9411 172.962 48.7111C172.512 49.8011 172.282 50.9311 172.322 52.3811C172.542 54.0111 173.252 54.3911 173.212 55.5111C173.292 57.3911 172.482 60.5811 172.272 61.3611C172.242 61.4711 172.242 61.5911 172.262 61.7011C172.422 62.5011 173.062 66.0311 172.942 69.0911C173.032 71.2411 173.092 72.5811 173.122 73.2711C173.212 74.9111 173.602 76.1311 174.282 77.3111C174.662 77.9611 177.562 77.8511 177.892 77.1711C178.482 75.9411 178.772 74.7011 178.742 73.0511C178.722 72.4111 179.472 71.0511 179.532 69.1611C179.542 68.8511 179.472 68.5511 179.342 68.2511C178.152 65.6711 178.322 62.2611 178.322 62.2611C178.322 62.2611 178.132 57.1811 178.062 55.0411C177.992 53.4311 177.952 52.6511 177.932 52.1711C177.852 50.7311 177.542 49.6111 177.002 48.5611V48.5511Z" fill="#101214"/>
<path d="M140.822 52.3611C141.832 53.6211 144.842 52.1511 144.452 50.5711C143.922 48.3511 143.312 46.4811 143.312 44.3411C143.232 43.1111 143.242 42.2511 143.272 41.4611C143.272 41.0611 143.342 40.7111 143.442 40.3311C143.552 39.9711 143.622 39.5311 143.902 39.1611C144.632 37.7011 146.242 36.4211 148.132 35.6411C150.022 34.8611 152.132 34.2511 152.982 33.8611C153.232 33.7611 153.462 33.6611 153.692 33.4911C154.102 33.1811 154.862 32.7111 155.842 31.8411C156.342 31.4611 156.842 30.8711 157.402 30.3011C157.692 30.0211 157.912 29.6511 158.182 29.3111C158.422 28.9511 158.732 28.6111 158.932 28.2111C159.362 27.4211 159.862 26.5911 160.152 25.7111C160.322 25.2711 160.502 24.8311 160.652 24.3711C160.772 23.9011 160.892 23.4311 161.022 22.9611C161.082 22.7211 161.142 22.4911 161.202 22.2411L161.302 21.4811C161.352 20.9711 161.452 20.4711 161.462 19.9511C161.462 19.4311 161.462 18.9111 161.462 18.4011C161.442 17.8911 161.352 17.3911 161.292 16.8811C160.762 14.0711 159.742 12.2511 159.132 10.9311C158.822 10.2911 158.552 9.74112 158.312 9.26112C158.112 8.82112 157.942 8.45112 157.812 8.16112C157.212 6.79112 156.892 5.75112 156.612 4.72112C156.542 4.21112 156.362 3.71112 156.352 3.18112C156.322 2.92112 156.292 2.66112 156.252 2.39112C156.222 2.12112 156.252 1.85112 156.232 1.57112C156.182 0.381116 153.492 -0.768884 152.732 0.671116C152.572 0.991116 152.382 1.31112 152.262 1.65112C152.142 2.00112 152.032 2.36112 151.922 2.73112C151.662 3.46112 151.632 4.26112 151.562 5.10112C151.532 6.77112 151.902 8.60112 152.642 10.3611C152.792 10.6911 152.932 11.1311 153.092 11.6711C153.242 12.1711 153.422 12.7611 153.622 13.4311C154.022 14.7411 154.462 16.1711 154.722 17.5711C154.812 18.0311 154.912 18.4511 155.092 18.8911C155.802 20.7211 155.172 23.5711 154.162 25.1711C153.902 25.5711 153.612 25.9111 153.382 26.2311C153.092 26.5111 152.832 26.7511 152.622 26.9511C152.152 27.3311 151.842 27.5211 151.842 27.5211C151.842 27.5211 151.742 27.6111 151.532 27.7511C151.312 27.8911 151.002 28.0811 150.612 28.3311C149.772 28.8111 148.572 29.4111 147.052 30.1611C145.552 30.9211 143.782 31.9611 142.342 33.3311C141.592 33.9811 141.022 34.7611 140.482 35.4611C140.012 36.1911 139.612 36.8911 139.302 37.4811C137.672 41.1011 137.732 43.1811 137.702 44.3911C137.712 46.2611 138.202 47.8611 138.792 49.1511C139.392 50.4511 140.102 51.4511 140.822 52.3611Z" fill="#101214"/>
<path d="M247.992 75.5911C248.712 74.0211 246.032 72.0311 244.742 73.1811C242.912 74.8011 241.432 76.3411 239.332 77.4211C238.162 78.1111 237.322 78.5211 236.532 78.8611C236.142 79.0511 235.762 79.1511 235.352 79.2411C234.952 79.3111 234.492 79.4511 233.992 79.3711C233.122 79.3511 232.142 79.1811 231.192 78.7611C230.962 78.6611 230.722 78.5511 230.482 78.4511L229.792 78.0311C229.332 77.7811 228.892 77.3911 228.462 77.0711C226.762 75.6611 225.142 73.9711 224.352 73.3611C224.132 73.1811 223.922 73.0111 223.662 72.8711C223.172 72.6311 222.362 72.1411 221.072 71.6311C220.472 71.3411 219.682 71.1511 218.872 70.9111C218.472 70.7711 218.012 70.7411 217.572 70.6611C217.122 70.6011 216.652 70.4811 216.172 70.4811C215.222 70.4611 214.202 70.3911 213.222 70.5411C212.722 70.6011 212.222 70.6311 211.712 70.7211C211.212 70.8311 210.712 70.9511 210.202 71.0611C209.952 71.1211 209.692 71.1711 209.442 71.2411L208.682 71.5111C208.182 71.7111 207.662 71.8611 207.172 72.1011C206.682 72.3511 206.202 72.6111 205.712 72.8611C205.242 73.1311 204.812 73.4611 204.372 73.7511C201.992 75.6111 200.762 77.4611 199.802 78.6911C199.352 79.3011 198.952 79.8311 198.612 80.2911C198.292 80.7011 198.022 81.0411 197.802 81.3211C196.782 82.5711 195.912 83.4111 195.052 84.1811C194.582 84.5011 194.182 84.9211 193.672 85.1811C193.432 85.3311 193.192 85.4911 192.952 85.6611C192.702 85.8211 192.432 85.9311 192.162 86.0711C191.032 86.6811 191.242 89.6011 192.962 89.5911C193.342 89.5911 193.732 89.5911 194.122 89.5511C194.512 89.4911 194.902 89.4111 195.302 89.3311C196.112 89.2111 196.882 88.8411 197.702 88.5111C199.282 87.7111 200.832 86.4811 202.132 84.9111C202.372 84.6111 202.722 84.2611 203.152 83.8411C203.552 83.4411 204.012 82.9811 204.542 82.4611C205.572 81.4211 206.722 80.2811 207.952 79.3111C208.142 79.1211 208.352 79.0111 208.532 78.8311C208.722 78.6711 208.882 78.4611 209.062 78.2911C210.532 76.7211 213.592 75.9311 215.652 76.1211C216.172 76.1711 216.642 76.2911 217.072 76.3511C217.482 76.4911 217.852 76.6211 218.152 76.7311C218.752 77.0011 219.102 77.2011 219.102 77.2011C219.102 77.2011 219.232 77.2511 219.472 77.3811C219.712 77.5211 220.062 77.7311 220.482 77.9811C221.352 78.5511 222.522 79.4011 223.982 80.4811C225.442 81.5311 227.282 82.7011 229.262 83.3911C230.242 83.7811 231.252 83.9411 232.172 84.1111C233.092 84.2011 233.942 84.2411 234.652 84.2411C238.862 84.0211 240.792 82.9511 241.952 82.3911C243.702 81.4711 244.972 80.2411 245.912 79.0611C246.852 77.8711 247.472 76.7111 247.992 75.5911Z" fill="#101214"/>
</svg>
