<svg width="205" height="188" viewBox="0 0 205 188" fill="none" xmlns="http://www.w3.org/2000/svg">
<path d="M18.1975 131.734C15.3975 138.164 15.2275 141.884 16.0875 142.154C16.9875 142.434 18.8275 139.544 21.8675 133.444C22.9375 131.274 24.0675 129.114 25.2375 126.944L25.6775 126.134L25.8975 125.724L26.1575 125.204C26.5175 124.484 26.7875 123.714 26.9775 122.914C27.3575 121.334 27.3875 119.644 27.0475 118.024C26.7175 116.404 26.0075 114.834 24.9875 113.484C24.1675 112.454 23.3275 111.414 22.4975 110.364C21.7075 109.354 20.8475 108.374 20.0975 107.314C19.3375 106.254 18.5775 105.184 17.8075 104.104C14.8675 99.7145 11.9375 95.0345 9.8075 89.7545C7.6275 84.5045 6.0275 78.7445 5.6775 72.5645C5.5575 71.6945 5.6475 70.8345 5.6275 70.0045C5.6475 69.1745 5.5975 68.3545 5.6575 67.5545C5.7375 66.7645 5.8075 65.9845 5.8875 65.2345C5.9275 64.8545 5.9575 64.4845 5.9875 64.1145C6.0375 63.7445 6.1175 63.3845 6.1875 63.0345C6.4775 61.6145 6.6475 60.2245 7.0775 58.9545C7.4575 57.6745 7.7475 56.4245 8.2375 55.2945C9.9275 50.6745 11.9975 47.0145 14.2575 43.8345C14.5375 43.4345 14.8075 43.0345 15.0775 42.6345C15.3575 42.2445 15.6675 41.8845 15.9675 41.5045C16.5575 40.7545 17.1475 40.0245 17.7375 39.2845C18.3775 38.5845 19.0075 37.8945 19.6575 37.1945C19.9775 36.8445 20.2975 36.4945 20.6275 36.1345C20.9775 35.8045 21.3275 35.4645 21.6775 35.1245C22.3875 34.4545 23.1075 33.7645 23.8375 33.0645C24.6175 32.4145 25.4175 31.7445 26.2375 31.0545C27.0475 30.3445 27.9375 29.6945 28.8675 29.0145C29.7975 28.3445 30.7275 27.5945 31.7775 26.9345C35.2175 24.5345 39.1975 22.2745 43.4675 20.0645C47.7675 17.9145 52.4275 15.9545 57.2675 14.1845C62.1175 12.4545 67.1775 10.9845 72.2575 9.73446C77.3475 8.51446 82.4775 7.61446 87.4775 6.91446C97.4875 5.61446 106.967 5.36446 114.697 5.86446C122.437 6.32446 128.428 7.37446 131.738 8.06446C132.728 8.23446 133.687 8.50446 134.667 8.70446C135.637 8.93446 136.628 9.11446 137.598 9.36446C139.318 9.82446 141.798 10.4145 144.798 11.4445C146.328 11.8845 147.917 12.5945 149.697 13.2445C150.587 13.5745 151.458 14.0245 152.378 14.4245C153.298 14.8445 154.267 15.2545 155.197 15.7845C159.057 17.6945 163.138 20.3245 167.048 23.7245C170.948 27.1345 174.617 31.4145 177.427 36.5645C180.247 41.6945 182.188 47.6845 182.938 54.0945C183.707 60.4945 183.458 67.2745 182.298 74.0345C182.038 75.7245 181.617 77.3645 181.287 79.0445C180.857 80.6945 180.367 82.3245 179.887 83.9545C178.737 87.1445 177.478 90.3145 175.768 93.2345C174.178 96.2145 172.127 98.9045 169.997 101.464C168.837 102.674 167.767 103.944 166.497 105.024C165.877 105.574 165.297 106.174 164.647 106.684L162.708 108.224C159.008 111.054 155.087 113.244 151.197 114.974C147.287 116.704 143.427 117.954 139.617 118.894C132.037 120.844 125.087 121.984 118.897 122.614C106.527 123.964 97.2875 123.964 90.9775 123.944C76.0575 123.854 62.9875 122.864 50.9975 121.594C50.2475 121.514 49.5075 121.424 48.7675 121.344L47.6575 121.214C47.2375 121.164 46.6375 121.114 46.1375 121.134C44.0375 121.174 41.9875 121.954 40.4075 123.254C40.0075 123.574 39.6475 123.944 39.3075 124.314L38.6075 125.124C38.1375 125.654 37.6575 126.174 37.1875 126.704C36.2375 127.754 35.2675 128.764 34.2975 129.764C30.3975 133.754 26.3375 137.394 22.0175 140.634C17.2875 144.184 14.9575 146.144 15.3575 146.914C15.6975 147.594 18.9175 147.014 24.0975 143.584C28.7875 140.464 33.1975 136.904 37.4075 132.944C38.4575 131.954 39.5075 130.944 40.5375 129.894C41.0475 129.364 41.5575 128.834 42.0775 128.304L42.8375 127.494C43.0175 127.314 43.1975 127.144 43.3975 126.994C44.1875 126.394 45.1875 126.054 46.1875 126.074C46.4575 126.074 46.6475 126.094 46.9775 126.144L48.0975 126.304C48.8475 126.414 49.6075 126.514 50.3575 126.624C62.4975 128.244 75.7175 129.434 90.9175 129.554C96.8175 129.574 105.937 129.804 117.957 128.794C120.957 128.494 124.147 128.244 127.497 127.714C130.857 127.314 134.357 126.584 138.037 125.874C141.687 124.964 145.517 124.094 149.467 122.664C153.417 121.294 157.397 119.424 161.307 117.084C166.407 114.034 171.057 110.134 174.857 105.574C178.957 100.664 182.257 94.8145 184.537 88.6045C186.847 82.3945 188.078 75.8045 188.738 69.3645C189.338 62.8745 189.147 56.3445 188.037 50.1745C186.927 43.9945 184.837 38.2145 182.057 33.2645C179.267 28.3145 175.928 24.1345 172.488 20.9345C169.048 17.7245 165.738 15.1945 162.798 13.4245C162.068 12.9745 161.387 12.5245 160.727 12.1345C160.057 11.7645 159.427 11.4245 158.837 11.1045C157.657 10.4645 156.657 9.90446 155.807 9.53446C154.117 8.74446 153.208 8.32446 153.208 8.32446C153.208 8.32446 152.868 8.15446 152.208 7.88446C151.548 7.62446 150.567 7.24446 149.307 6.74446C146.787 5.75446 143.077 4.56446 138.438 3.36446C133.778 2.24446 128.187 1.22446 121.947 0.624461C115.707 0.0144611 108.827 -0.175539 101.677 0.174461C87.3575 0.834461 71.9375 3.75446 58.2375 8.52446C51.3875 10.8945 44.9575 13.7045 39.2675 16.7345C33.5775 19.7645 28.6175 22.9945 24.6275 26.0945C12.5475 35.4345 6.0275 45.4645 3.0175 53.7045C2.5675 54.7145 2.3175 55.7445 2.0175 56.7145C1.8675 57.2045 1.7275 57.6845 1.5875 58.1545C1.5175 58.3845 1.4475 58.6245 1.3775 58.8545C1.3275 59.0945 1.2775 59.3245 1.2375 59.5545C0.8875 61.4045 0.4475 63.0845 0.3475 64.6945C0.1775 66.2845 -0.0125 67.7445 0.0275 69.1045C0.0275 69.7845 0.0175 70.4345 0.0075 71.0545C-0.0125 71.6845 0.0075 72.2845 0.0675 72.8545C0.4675 79.8445 2.3175 86.2245 4.7475 91.9045C7.1475 97.6245 10.3475 102.554 13.5675 107.104C14.4075 108.214 15.2375 109.324 16.0675 110.414C16.8875 111.514 17.8075 112.504 18.6675 113.534C19.5075 114.514 20.3375 115.494 21.1675 116.464C21.7875 117.224 22.2275 118.114 22.4575 119.054C22.6875 119.994 22.7175 120.994 22.5275 121.934C22.4375 122.414 22.2975 122.874 22.0975 123.314C22.0175 123.514 21.8775 123.804 21.7375 124.094L21.3275 124.944C20.2375 127.204 19.1875 129.464 18.1975 131.744V131.734Z" fill="#101214"/>
<path d="M184.627 172.344C186.087 177.114 187.837 179.154 188.687 178.854C189.567 178.544 189.617 175.994 188.537 171.294L188.257 170.044L188.127 169.434C188.107 169.274 188.057 169.114 188.047 168.954C187.967 168.304 187.977 167.654 188.077 167.014C188.287 165.734 188.857 164.494 189.737 163.514C190.327 162.824 190.927 162.134 191.527 161.434C192.137 160.704 192.787 160.004 193.367 159.234C194.527 157.674 195.777 156.154 196.837 154.424C199.097 151.074 201.108 147.284 202.598 142.994C204.088 138.724 205.008 133.884 204.738 128.714C204.738 127.984 204.608 127.274 204.518 126.584C204.418 125.894 204.347 125.214 204.217 124.564C204.067 123.914 203.918 123.284 203.768 122.664C203.628 122.044 203.477 121.444 203.257 120.874C202.857 119.734 202.527 118.624 202.037 117.634C201.577 116.634 201.178 115.654 200.658 114.794C198.738 111.254 196.637 108.644 194.537 106.424C192.457 104.164 190.327 102.334 188.007 100.474C185.667 98.6344 183.077 96.8544 179.917 94.8844C174.517 91.6744 167.867 88.5244 160.637 86.1244C153.427 83.6944 145.677 81.9244 138.277 80.9744C130.877 79.9644 123.827 79.8144 118.027 80.0844C112.217 80.3444 107.657 81.1144 105.107 81.5744C103.607 81.9044 102.107 82.1844 100.627 82.6544C97.9975 83.4044 93.0675 84.8644 87.0775 88.1644C84.0875 89.8044 80.8375 91.9344 77.7275 94.8044C74.6175 97.6544 71.6375 101.244 69.3575 105.524C67.0675 109.794 65.5175 114.724 64.9175 119.864C64.2975 125.004 64.5375 130.314 65.4175 135.494C66.2575 140.724 67.8675 146.014 70.5275 150.814L71.5375 152.604L72.6775 154.314C73.3975 155.484 74.3175 156.504 75.1475 157.584C76.9575 159.624 78.8575 161.584 80.9875 163.204C86.9575 167.854 93.4275 170.424 99.1375 171.894C104.837 173.434 109.987 174.344 114.547 174.874C116.827 175.184 118.957 175.334 120.937 175.534C122.917 175.654 124.757 175.814 126.457 175.864C129.847 176.014 132.677 176.034 134.977 176.044C140.407 176.034 145.487 175.774 150.287 175.374C152.687 175.164 155.017 174.934 157.287 174.654C158.427 174.514 159.547 174.374 160.657 174.214L161.447 174.104C161.637 174.074 161.827 174.064 162.017 174.044C162.397 174.024 162.777 174.044 163.147 174.084C163.897 174.174 164.627 174.394 165.297 174.724C165.467 174.804 165.627 174.894 165.787 174.994L166.037 175.144L166.367 175.364C166.807 175.654 167.247 175.954 167.677 176.244C169.427 177.404 171.157 178.524 172.877 179.604C176.327 181.764 179.747 183.804 183.227 185.714C187.057 187.814 189.407 188.094 189.777 187.384C190.167 186.654 188.647 184.964 185.087 182.624C181.837 180.484 178.617 178.244 175.357 175.914C173.737 174.734 172.087 173.544 170.417 172.324C169.997 172.014 169.587 171.714 169.167 171.404L168.857 171.174L168.467 170.894C168.197 170.714 167.917 170.544 167.637 170.384C166.497 169.744 165.227 169.294 163.907 169.074C163.247 168.964 162.567 168.914 161.887 168.924C161.547 168.924 161.207 168.944 160.867 168.984L160.027 169.074C158.947 169.184 157.847 169.294 156.737 169.404C154.517 169.614 152.237 169.784 149.897 169.944C145.207 170.244 140.257 170.444 134.987 170.444C130.897 170.424 124.557 170.164 116.387 169.034C112.317 168.424 107.787 167.604 102.937 166.344C101.737 165.994 100.517 165.634 99.2575 165.274C98.6175 165.104 98.0375 164.864 97.4175 164.664C96.7975 164.464 96.1875 164.234 95.5775 163.974C93.1275 163.014 90.6575 161.824 88.2975 160.314C85.2075 158.374 82.3875 156.074 79.9775 153.414C77.3775 150.544 75.2075 147.064 73.6475 143.204C72.0775 139.354 71.1675 135.144 70.6475 130.894C70.1475 126.664 70.2475 122.454 70.9075 118.534C71.5775 114.604 72.8675 110.984 74.5875 107.864C76.2975 104.744 78.3875 102.124 80.5575 100.074C81.0675 99.5244 81.6275 99.0644 82.1675 98.6044C82.7075 98.1544 83.1975 97.6744 83.7375 97.2944C84.8075 96.5244 85.7475 95.7644 86.7175 95.2044C88.5575 93.9744 90.1675 93.2144 91.2275 92.6244C92.3375 92.1144 92.9375 91.8444 92.9375 91.8444C92.9375 91.8444 93.8075 91.3844 95.4775 90.7544C96.2975 90.4144 97.3175 90.0144 98.5275 89.6344C99.1275 89.4344 99.7675 89.2044 100.457 88.9944C101.147 88.7944 101.887 88.5944 102.647 88.3744C105.737 87.5644 109.477 86.7644 113.687 86.2544C117.897 85.7544 122.557 85.5044 127.437 85.6044C137.197 85.7844 147.807 87.4344 157.247 90.3144C166.717 93.1344 174.927 97.2544 180.477 101.004C188.857 106.684 193.538 112.624 195.988 117.504C197.208 119.964 197.988 122.144 198.408 124.064C198.628 125.024 198.847 125.904 198.917 126.734C198.997 127.564 199.167 128.324 199.147 129.034C199.377 133.344 198.657 137.464 197.417 141.234C196.177 145.014 194.467 148.484 192.487 151.644C191.567 153.264 190.447 154.734 189.437 156.234C188.927 156.984 188.337 157.664 187.797 158.384C187.237 159.114 186.677 159.824 186.117 160.544C184.747 162.274 183.937 164.384 183.737 166.504C183.647 167.564 183.697 168.634 183.907 169.674C183.947 169.934 184.027 170.184 184.087 170.444L184.277 171.094L184.657 172.364L184.627 172.344Z" fill="#101214"/>
</svg>
