<svg width="220" height="186" viewBox="0 0 220 186" fill="none" xmlns="http://www.w3.org/2000/svg">
<path d="M65.77 34.3426C68.55 30.9226 66.14 28.6126 62.85 31.5426C58.18 35.7026 53.47 40.2526 47.64 46.3126C41.16 53.3126 40.02 55.5026 35.5 60.1226C27.96 68.0126 14.55 80.6826 11.32 83.7226C10.84 84.1726 10.38 84.6426 9.94 85.1326C9.52 85.5826 8.93 86.2326 7.78 87.4826C7.2 88.1026 6.49 88.8726 5.59 89.8326C4.07 91.4426 2.23 93.3826 0 95.7426C1.85 97.4926 6.15 101.553 11.48 106.603C15.68 110.623 20.67 115.473 25.3 120.113C34.28 128.863 39.84 134.283 42.74 137.113C49.61 143.783 54.97 148.543 60.44 152.993C63.45 155.433 65.48 153.353 62.96 150.413C58.38 145.053 53.5 139.813 46.66 133.103C44 130.503 39.01 124.513 31.28 116.773C30.02 115.513 28.71 114.303 27.35 113.163C23.54 109.933 19.48 106.263 15.79 102.823C13.96 101.093 12.2 99.4326 10.6 97.9226C9.69 97.0526 8.87 96.2626 8.19 95.6126C10.04 93.7126 11.08 92.6426 11.08 92.6426C11.08 92.6426 31.52 71.2826 40.15 62.2726C46.64 55.4726 49.76 52.2026 51.68 50.1926C57.48 44.0926 61.81 39.1826 65.76 34.3326L65.77 34.3426Z" fill="#101214"/>
<path d="M153.88 149.943C151.1 153.363 153.51 155.673 156.8 152.743C161.47 148.583 166.18 144.033 172.01 137.973C178.49 130.973 179.63 128.783 184.15 124.163C191.69 116.273 205.1 103.603 208.33 100.563C208.81 100.113 209.27 99.6426 209.71 99.1526C210.13 98.7026 210.72 98.0526 211.87 96.8026C212.45 96.1826 213.16 95.4126 214.06 94.4526C215.58 92.8426 217.42 90.9026 219.65 88.5426C217.8 86.7926 213.5 82.7326 208.17 77.6826C203.97 73.6626 198.98 68.8126 194.35 64.1726C185.37 55.4226 179.81 50.0026 176.91 47.1726C170.04 40.5026 164.68 35.7426 159.21 31.2926C156.2 28.8426 154.17 30.9326 156.69 33.8726C161.27 39.2326 166.15 44.4826 172.99 51.1826C175.65 53.7826 180.64 59.7726 188.37 67.5126C189.63 68.7726 190.94 69.9826 192.3 71.1226C196.11 74.3526 200.17 78.0226 203.86 81.4626C205.69 83.1926 207.45 84.8526 209.05 86.3626C209.96 87.2326 210.78 88.0226 211.46 88.6726C209.61 90.5726 208.57 91.6426 208.57 91.6426C208.57 91.6426 188.13 113.003 179.5 122.013C173.01 128.813 169.89 132.083 167.97 134.093C162.17 140.193 157.84 145.103 153.89 149.953L153.88 149.943Z" fill="#101214"/>
<path d="M137.89 3.99264C138.46 -1.27736 135.05 -1.10736 133.92 3.19264C131.95 9.73264 129.88 16.7326 127.42 25.7726C124.84 36.0726 124.76 38.7926 122.79 45.7226C119.55 57.4526 113.11 76.9726 111.53 81.6726C111.3 82.3626 111.09 83.0726 110.91 83.7826C109.62 88.8626 103.84 111.133 98.24 130.133C94.48 143.613 92.15 151.963 90.94 156.313C89.53 161.463 88.38 165.993 87.42 170.213C86.45 174.433 85.69 178.313 85.07 182.283C84.45 186.803 87.38 187.013 88.59 183.073C91.04 175.703 93.49 168.083 96.35 157.813C97.45 153.813 100.55 145.713 103.99 134.003C104.55 132.093 105.04 130.163 105.45 128.233C109.02 111.563 115.32 90.3726 115.32 90.3726C115.32 90.3726 124.21 58.6126 127.97 45.2026C130.74 35.0926 132.05 30.2126 132.85 27.2126C135.27 18.1326 136.83 10.9826 137.89 3.99264Z" fill="#101214"/>
</svg>
