<svg width="209" height="202" viewBox="0 0 209 202" fill="none" xmlns="http://www.w3.org/2000/svg">
<path d="M157.25 140.1C157.6 143.53 160.95 143.53 161.3 140.1C161.8 135.24 162.06 130.13 162.08 123.57C161.92 116.13 161.23 114.28 161.31 109.24C161.31 100.72 162.24 86.3504 162.47 82.8904C162.5 82.3804 162.51 81.8704 162.5 81.3504C162.37 77.6804 161.87 61.5904 162.11 47.7304C162.11 37.9404 162.09 31.8904 162.09 28.7204C162.06 21.2504 161.72 15.6704 161.09 10.1904C160.74 7.18036 157.83 7.18036 157.48 10.1904C156.84 15.6704 156.5 21.2504 156.48 28.7204C156.48 31.6204 155.68 37.6704 155.54 46.2104C155.52 47.6004 155.57 48.9904 155.7 50.3704C156.79 62.2804 156.48 77.7304 156.48 77.7304C156.48 77.7304 156.47 100.8 156.46 110.53C156.46 117.86 156.47 121.39 156.48 123.56C156.5 130.12 156.77 135.23 157.27 140.09L157.25 140.1Z" fill="#101214"/>
<path d="M5.98001 149.58C2.19001 149.93 2.19001 153.28 5.98001 153.63C11.36 154.13 17.01 154.39 24.28 154.41C32.52 154.25 34.57 153.56 40.15 153.64C49.58 153.64 65.49 154.57 69.32 154.8C69.89 154.83 70.45 154.84 71.02 154.83C75.08 154.7 92.89 154.2 108.23 154.44C119.06 154.43 125.77 154.42 129.27 154.42C137.54 154.39 143.72 154.05 149.79 153.42C153.12 153.07 153.12 150.16 149.79 149.81C143.72 149.17 137.54 148.83 129.27 148.81C126.06 148.81 119.36 148.01 109.91 147.87C108.37 147.85 106.83 147.9 105.3 148.03C92.12 149.12 75.01 148.81 75.01 148.81C75.01 148.81 49.48 148.8 38.7 148.79C30.58 148.79 26.68 148.8 24.28 148.81C17.01 148.83 11.36 149.1 5.98001 149.6V149.58Z" fill="#101214"/>
<path d="M155.08 5.25041C162.53 4.90041 162.53 1.55041 155.08 1.20041C144.52 0.700405 133.43 0.440405 119.17 0.420405C103.01 0.580405 98.99 1.27041 88.04 1.19041C69.54 1.19041 38.33 0.260405 30.81 0.0304052C29.7 0.000405183 28.59 -0.00959482 27.47 0.0104052C25.48 0.0404052 21.8 0.0904052 16.93 0.160405C16.32 0.160405 15.69 0.180405 15.05 0.180405C14.39 0.190405 13.82 0.180405 12.85 0.250405C11.08 0.380405 9.24 0.870405 7.52 1.75041C4.07 3.48041 1.16 6.98041 0.28 11.3004C0.19 11.8404 0.1 12.3804 0.05 12.9304L0.01 13.7604V14.1704L0 14.4904C0 15.3504 0.01 16.2304 0.02 17.1104C0.03 18.8804 0.04 20.6804 0.05 22.5004C0.06 26.1604 0.08 29.9204 0.09 33.7404C0.11 41.3704 0.09 49.2004 0.03 56.7204C0.03 77.9704 0.05 91.1304 0.05 98.0004C0.08 114.23 0.42 126.35 1.05 138.25C1.4 144.79 4.31 144.79 4.66 138.25C5.3 126.35 5.64 114.22 5.66 98.0004C5.66 91.7004 6.46 78.5604 6.6 60.0204C6.62 57.0004 6.57 53.9804 6.44 50.9804C6.17 44.5204 5.98 37.5704 5.86 30.7904C5.81 27.4004 5.76 24.0504 5.72 20.8204C5.7 19.2104 5.69 17.6204 5.68 16.0804C5.68 15.6904 5.68 15.3104 5.68 14.9304C5.68 14.5604 5.67 14.1204 5.68 13.8804C5.69 13.3104 5.76 12.7404 5.9 12.2104C6.41 10.0504 7.8 8.32041 9.35 7.32041C10.12 6.80041 10.94 6.48041 11.72 6.28041C12.11 6.16041 12.5 6.13041 12.86 6.06041C13.25 6.03041 13.54 6.01041 13.98 6.01041C17.53 6.03041 19.63 6.04041 19.63 6.04041C19.63 6.04041 69.72 6.05041 90.87 6.06041C106.79 6.06041 114.45 6.05041 119.16 6.04041C133.42 6.02041 144.51 5.75041 155.07 5.25041H155.08Z" fill="#101214"/>
<path d="M207.41 74.9403C207.33 73.3403 207.07 72.1303 206.7 71.3303C206.52 70.9303 206.31 70.6303 206.1 70.4203C205.99 70.3203 205.88 70.2403 205.77 70.1903C205.71 70.1603 205.66 70.1503 205.6 70.1303C205.57 70.1303 205.54 70.1203 205.51 70.1103H205.47C205.47 70.1103 205.47 70.1103 205.47 70.0803L205.94 70.1003H205.96H205.98L205.39 70.0803C205.39 70.0803 205.39 70.1003 205.38 70.1103H205.34C205.34 70.1103 205.28 70.1203 205.25 70.1303C205.19 70.1403 205.13 70.1603 205.08 70.1903C204.97 70.2403 204.85 70.3103 204.74 70.4103C204.52 70.6103 204.31 70.9103 204.12 71.3103C203.75 72.1103 203.46 73.3103 203.36 74.9103C202.8 84.0003 202.47 93.5503 202.37 105.83C202.43 119.75 203.11 123.22 202.97 132.65C202.87 148.59 201.76 175.46 201.48 181.94C201.44 182.9 201.42 183.86 201.44 184.82C201.44 185.68 201.46 186.9 201.48 188.43V188.72V188.91C201.48 189.04 201.48 189.17 201.47 189.31C201.43 189.58 201.42 189.86 201.34 190.15C201.23 190.73 200.99 191.33 200.65 191.92C199.98 193.1 198.77 194.23 197.15 194.74C196.75 194.86 196.33 194.95 195.89 195C195.65 195 195.5 195.04 195.17 195.04C194.83 195.04 194.49 195.04 194.15 195.05C192.78 195.06 191.36 195.08 189.91 195.09C178.29 195.2 164.28 195.27 151.32 195.15C133.01 195.15 121.68 195.17 115.76 195.17C101.78 195.2 91.34 195.54 81.09 196.17C75.46 196.52 75.46 199.43 81.09 199.78C91.34 200.42 101.79 200.76 115.76 200.78C121.19 200.78 132.51 201.58 148.48 201.72C151.08 201.74 153.69 201.69 156.26 201.56C167.4 201.02 180.19 200.82 190.21 200.76C191.46 200.76 192.67 200.75 193.83 200.74C194.43 200.74 194.92 200.74 195.58 200.72C195.93 200.7 196.27 200.69 196.6 200.66C196.93 200.61 197.26 200.56 197.59 200.51C198.88 200.26 200.05 199.81 201.07 199.28C202.07 198.71 202.94 198.09 203.64 197.42C205.05 196.1 205.84 194.74 206.29 193.79C206.54 193.32 206.65 192.93 206.76 192.67C206.86 192.41 206.9 192.28 206.9 192.28C206.9 192.28 206.96 192.07 207.06 191.68C207.18 191.29 207.28 190.7 207.39 189.94C207.41 189.56 207.43 189.14 207.46 188.68C207.46 188.31 207.46 187.91 207.46 187.48C207.46 186.62 207.47 185.64 207.48 184.56C207.51 180.23 207.55 174.27 207.6 167.74C207.69 154.68 207.79 139.34 207.86 130.23C207.94 116.52 207.98 109.92 208.01 105.86C208.07 93.5803 207.87 84.0203 207.43 74.9303L207.41 74.9403Z" fill="#101214"/>
<path d="M42.09 77.4904C38.98 75.6204 37.07 78.3704 39.64 80.7104C43.26 84.1104 47.07 87.6004 51.79 92.2604C54.55 94.8304 56.27 96.4404 57.77 97.8404C59.27 99.2504 60.55 100.47 62.13 102.49C62.82 103.32 63.52 104.26 64.27 105.25C65.44 106.9 66.67 108.63 67.92 110.39C68.25 110.87 68.59 111.35 68.93 111.83L69.44 112.56L69.7 112.93C69.7 112.93 69.74 113 69.76 113.01L69.81 112.92L69.92 112.75L71.65 109.98C72.24 109.03 72.84 108.09 73.42 107.16C73.72 106.68 74.02 106.21 74.32 105.74C74.6 105.3 74.98 104.68 75.11 104.51C78.05 100.2 80.81 96.5704 81.88 95.1504C82.2 94.7404 82.51 94.3104 82.79 93.8704C83.79 92.2904 86.49 88.0204 90.25 82.9004C93.98 77.7604 98.77 71.7804 103.58 66.5704C110.26 59.1304 114.71 54.8004 117.03 52.5604C122.52 47.2504 126.56 43.2204 130.49 39.1404C132.63 36.8904 130.81 34.6204 128.18 36.3704C123.38 39.5204 118.78 43.1304 113.13 48.5204C110.94 50.6004 105.86 54.4704 99.74 61.0104C98.74 62.0704 97.81 63.1904 96.96 64.3704C93.24 69.3704 88.96 75.1104 85.61 79.6004C83.93 81.8304 82.54 83.7904 81.53 85.1704C80.52 86.5504 79.93 87.3604 79.93 87.3604C79.93 87.3604 79.08 88.6004 77.71 90.5904C77.01 91.5804 76.23 92.7804 75.36 94.1104C74.49 95.4404 73.52 96.8904 72.57 98.4504C72.09 99.2204 71.6 100.01 71.1 100.81C70.86 101.2 70.61 101.59 70.37 101.99L70.11 102.42L69.6 103.29L69.35 103.72C69.35 103.72 69.31 103.83 69.29 103.79L69.24 103.71L69.13 103.56C68.97 103.34 68.81 103.13 68.66 102.92C68.45 102.64 68.46 102.64 67.8 101.8C66.8 100.49 65.84 99.3304 65.03 98.3404C60.05 92.4304 57.34 89.8604 55.73 88.2404C50.77 83.4104 46.43 80.1704 42.09 77.4704V77.4904Z" fill="#101214"/>
</svg>
