<svg width="190" height="168" viewBox="0 0 190 168" fill="none" xmlns="http://www.w3.org/2000/svg">
<path d="M31.0801 14.0964C35.7801 12.3064 38.0201 10.8364 37.7701 9.90639C37.5401 9.04639 34.7801 8.74639 29.7501 10.2664C26.2001 11.3664 22.6401 12.6764 19.0901 14.3764C15.5501 16.0964 11.9901 18.1764 8.66011 21.0564C7.01011 22.5164 5.44011 24.1864 4.04011 26.1264C3.71011 26.6264 3.38011 27.1364 3.05011 27.6464C2.74011 28.1664 2.47011 28.7264 2.18011 29.2764C1.61011 30.3764 1.16011 31.5764 0.810107 32.8264C0.110107 35.3264 -0.119893 38.0064 0.190107 40.7064C0.500107 43.3964 1.39011 46.2064 2.83011 48.5664C3.23011 49.2364 3.59011 49.9164 4.02011 50.5264C4.47011 51.1164 4.91011 51.6964 5.34011 52.2564C5.56011 52.5364 5.76011 52.8264 5.99011 53.0764C6.23011 53.3264 6.46011 53.5664 6.70011 53.8064C7.17011 54.2864 7.63011 54.7564 8.08011 55.2064C9.02011 56.0664 9.98011 56.7964 10.8701 57.5364C11.8001 58.2064 12.7201 58.7864 13.6001 59.3664C14.4701 59.9464 15.3701 60.3564 16.2101 60.8264C16.6301 61.0464 17.0501 61.2664 17.4501 61.4864C17.8701 61.6664 18.2801 61.8464 18.6801 62.0264C19.4901 62.3764 20.2701 62.7164 21.0301 63.0464C21.8001 63.3464 22.5601 63.5964 23.3001 63.8564C24.0401 64.1064 24.7701 64.3964 25.4901 64.6064C26.2201 64.8164 26.9401 65.0264 27.6601 65.2364C28.3801 65.4364 29.0901 65.6664 29.8201 65.8464C30.5501 66.0164 31.2801 66.1964 32.0201 66.3764C32.7601 66.5564 33.5201 66.7364 34.2901 66.9264C35.0701 67.0864 35.8601 67.2464 36.6801 67.4164C37.5001 67.5864 38.3401 67.7664 39.2101 67.9464C40.0801 68.0964 40.9901 68.2564 41.9301 68.4264C48.3001 69.5264 55.8001 70.3964 63.6101 70.9764C65.5601 71.1064 67.5301 71.2364 69.5101 71.3664C71.4301 71.4864 73.3901 71.6464 75.3501 71.8064C79.2701 72.1364 83.1901 72.4864 87.0301 72.7464C88.9501 72.8764 90.8501 72.9864 92.7301 73.0464C93.6601 73.0764 94.6401 73.0864 95.5401 73.0864C96.4401 73.0864 97.3201 73.0864 98.1901 73.0764C101.67 73.0364 104.94 72.9964 107.89 72.9664C113.79 72.8664 118.48 72.7064 121.13 72.5064C122.68 72.3964 124.22 72.2564 125.77 72.0864C128.53 71.7664 133.64 71.1364 140.35 69.8964C147.05 68.6264 155.42 66.6864 164.35 62.9164C168.78 60.9564 173.36 58.4664 177.55 54.9564C178.6 54.0964 179.56 53.0764 180.58 52.1264C181.04 51.5864 181.5 51.0564 181.95 50.5164C182.41 49.9764 182.88 49.4464 183.26 48.8264L184.47 47.0264C184.88 46.4364 185.17 45.7464 185.52 45.1164C186.21 43.8564 186.83 42.4364 187.24 40.9464C188.09 37.9764 188.25 34.8164 187.73 31.7664C187.47 30.2364 187.03 28.7264 186.44 27.3064C185.85 25.8364 185.08 24.6564 184.38 23.3664C181.33 18.3764 176.93 14.3564 172.23 11.4264C165.49 7.40639 158.82 5.35639 152.87 3.91639C151.38 3.50639 149.92 3.28639 148.5 2.97639C147.79 2.83639 147.09 2.69639 146.4 2.56639C145.71 2.45639 145.03 2.34639 144.36 2.24639C143.02 2.04639 141.72 1.80639 140.46 1.65639C139.2 1.50639 137.97 1.36639 136.79 1.22639C132.05 0.706386 127.94 0.426386 124.42 0.256386C122.67 0.146386 121.02 0.0763861 119.54 0.0563861C118.07 0.0363861 116.74 0.0263861 115.54 0.00638613C109.92 -0.0236139 104.69 0.0563861 99.7101 0.156386C94.7501 0.266386 90.0101 0.416386 85.4801 0.716386C80.9501 0.996386 76.5901 1.39639 72.3901 1.87639C68.2101 2.33639 64.1101 2.78639 60.0301 3.30639C55.5501 3.85639 53.3401 4.96639 53.4601 5.77639C53.5801 6.57639 55.8601 7.10639 60.3401 6.89639C64.4301 6.70639 68.5401 6.50639 72.7501 6.31639C76.9501 6.07639 81.2201 5.89639 85.7001 5.78639C90.1701 5.66639 94.8201 5.63639 99.7801 5.62639C104.73 5.60639 109.95 5.59639 115.5 5.62639C117.67 5.65639 120.37 5.69639 123.62 5.96639C125.25 6.10639 127.02 6.24639 128.92 6.40639C130.81 6.61639 132.83 6.84639 134.99 7.09639C137.12 7.42639 139.41 7.67639 141.76 8.12639C142.94 8.33639 144.15 8.55639 145.4 8.77639C146.63 9.04639 147.88 9.32639 149.17 9.60639C154.27 10.8164 159.76 12.4264 165.12 15.0364C168.58 16.7664 171.81 18.8064 174.56 21.2764C174.93 21.6164 175.31 21.9364 175.68 22.2864L176.69 23.4064C177.41 24.1264 177.98 24.9664 178.6 25.7964L179.06 26.4164L179.45 27.0864L180.25 28.4264C180.76 29.3064 181.12 30.1764 181.43 31.1064C182.03 32.9364 182.24 34.9464 182.07 36.9064C181.88 38.8764 181.36 40.7464 180.32 42.5864C178.46 46.3064 175.53 49.4664 172.2 51.9464C168.87 54.4464 165.2 56.3264 161.68 57.8764C154.54 60.8464 147.92 62.3864 143.24 63.3864C140.88 63.8264 139.01 64.2064 137.71 64.4064C136.41 64.6064 135.71 64.7064 135.71 64.7064C135.71 64.7064 134.66 64.8664 132.77 65.1664C130.87 65.3964 128.12 65.7964 124.72 66.1264C123.02 66.2864 121.16 66.4564 119.16 66.6464C117.18 66.7964 115.03 66.9164 112.78 67.0264C108.26 67.2364 103.29 67.4064 98.0901 67.5364C95.4501 67.6064 92.9401 67.6564 90.2801 67.5364C87.6301 67.4364 84.9301 67.2764 82.2201 67.1064C79.5001 66.9164 76.7701 66.7364 74.0701 66.5464C72.7001 66.4664 71.3401 66.3864 69.9801 66.3064C68.6501 66.2364 67.3201 66.1664 66.0101 66.0964C55.5601 65.5464 45.9701 64.4064 39.0001 62.9464C33.7301 61.9364 29.2801 60.5964 25.5301 59.2064C21.7501 57.8464 18.7601 56.2264 16.3301 54.6764C11.5201 51.4864 9.14011 48.3564 7.75011 45.8464C6.60011 43.9764 6.01011 42.0364 5.75011 40.0664C5.50011 38.0864 5.65011 36.1064 6.13011 34.2864C6.38011 33.3764 6.68011 32.4764 7.11011 31.6364C7.33011 31.2164 7.51011 30.7864 7.75011 30.3864C8.00011 29.9864 8.24011 29.5864 8.49011 29.1864C9.55011 27.6364 10.8001 26.2164 12.1601 24.9364C14.9201 22.3864 18.0601 20.3464 21.2601 18.5964C24.4701 16.8464 27.7701 15.3964 31.1001 14.1164L31.0801 14.0964Z" fill="#101214"/>
<path d="M18.7401 68.2163C21.4101 66.5163 22.5101 65.0464 22.1101 64.1964C21.7301 63.3764 19.8001 63.1863 16.7301 64.7063C14.5701 65.7963 12.4301 67.0463 10.3501 68.6063C8.28011 70.1563 6.25011 71.9863 4.48011 74.2963C2.71011 76.5863 1.21011 79.4063 0.490109 82.6363C-0.229891 85.8663 -0.199891 89.4263 0.870109 92.9663C1.19011 93.9663 1.56011 94.8863 1.98011 95.7263C2.40011 96.5663 2.87011 97.2664 3.29011 97.9864C3.51011 98.3364 3.72011 98.6863 3.92011 99.0163C4.16011 99.3263 4.40011 99.6263 4.63011 99.9263C5.09011 100.516 5.54011 101.076 5.97011 101.606C6.92011 102.576 7.80011 103.476 8.66011 104.256C9.56011 104.976 10.4101 105.656 11.2201 106.306C12.9401 107.446 14.5101 108.516 16.2901 109.446C16.7301 109.696 17.1701 109.946 17.6201 110.196C18.0801 110.446 18.5601 110.656 19.0501 110.896C20.0401 111.356 21.0501 111.936 22.2001 112.406C26.0401 114.156 30.6901 115.696 35.5801 117.066C40.4701 118.446 45.6401 119.396 50.5101 120.256C60.2901 121.816 68.8201 122.446 72.2701 122.656C73.2701 122.706 74.2701 122.726 75.2601 122.706C77.0401 122.676 80.3001 122.596 84.5901 122.446C88.8801 122.316 94.2101 122.026 100.04 121.976C103.01 121.946 106.14 121.926 109.36 121.896C110.98 121.876 112.64 121.836 114.33 121.766C116 121.696 117.8 121.586 119.46 121.406C126.22 120.826 133.15 119.886 139.78 118.696C149.13 116.896 156.59 114.626 162.33 112.266C168.08 109.916 172.07 107.456 174.73 105.666C177.84 103.446 180.51 100.946 182.7 98.2063C183.69 96.7363 184.72 95.3664 185.42 93.8064C186.22 92.3364 186.83 90.7164 187.2 89.0864C187.95 85.8164 187.84 82.5763 187.06 79.5963C186.28 76.6063 184.8 73.9564 182.97 71.7664C180.91 69.3564 179.15 69.0164 178.63 69.5864C178.05 70.2064 178.61 71.6864 180.07 73.9064C181.39 75.9564 182.32 78.1964 182.71 80.5564C183.1 82.9164 182.99 85.4163 182.29 87.8163C181.94 89.0263 181.44 90.1863 180.73 91.3563C180.15 92.5763 179.24 93.6563 178.42 94.8263C176.54 97.0263 174.25 99.1263 171.51 101.076C169.33 102.526 165.78 104.536 160.71 106.426C155.65 108.326 149.13 110.146 141.32 111.706C138.76 112.166 136.24 112.766 133.7 113.256C128.26 114.456 122.22 115.266 116.44 115.876C110.69 116.326 104.85 116.256 99.7301 116.316C89.4901 116.506 82.1001 116.636 82.1001 116.636C82.1001 116.636 79.3501 116.706 74.9801 116.696C72.7801 116.696 70.2601 116.646 67.3801 116.446C65.9501 116.356 64.4401 116.296 62.8901 116.176C61.3401 116.046 59.7301 115.906 58.1001 115.766C51.5601 115.116 44.4901 114.086 38.0801 112.536C31.6701 111.016 25.9701 108.946 22.0101 106.956C18.9801 105.536 16.6201 103.896 14.6201 102.426C13.6701 101.636 12.8101 100.886 12.0301 100.176C11.3201 99.3963 10.6301 98.7163 10.0501 98.0263C9.52011 97.3163 9.02011 96.6563 8.57011 96.0463C8.19011 95.3963 7.84011 94.7964 7.52011 94.2364C6.86011 93.1364 6.54011 92.1864 6.26011 91.3364C5.48011 88.7964 5.42011 86.1564 5.88011 83.7964C6.35011 81.4264 7.37011 79.2763 8.69011 77.3663C11.3601 73.5463 15.0001 70.6664 18.7501 68.2364L18.7401 68.2163Z" fill="#101214"/>
<path d="M10.0301 119.356C12.0701 116.986 12.8901 115.336 12.3101 114.576C11.7801 113.866 9.74011 114.086 7.08011 116.586C5.23011 118.376 3.54011 120.496 2.28011 123.026C1.02011 125.546 0.250109 128.486 0.200109 131.546C0.140109 134.596 0.810109 137.886 2.33011 140.866C3.77011 143.746 5.78011 146.486 8.24011 149.006C8.98011 149.666 9.69011 150.296 10.3601 150.896C11.0401 151.496 11.7601 151.946 12.4101 152.436C13.7001 153.436 15.0001 154.126 16.1601 154.816C16.4501 154.986 16.7401 155.156 17.0201 155.316C17.3101 155.456 17.5901 155.596 17.8701 155.726C18.4301 155.996 18.9701 156.246 19.4901 156.496C20.5201 157.016 21.5301 157.386 22.4901 157.766C26.3301 159.286 29.6701 160.226 34.5301 161.606C35.5601 161.866 36.6401 162.136 37.7501 162.416C38.8601 162.706 40.0201 162.906 41.2101 163.176C43.5701 163.726 46.0701 164.106 48.6201 164.566C53.7201 165.356 59.0401 166.026 64.0601 166.436C66.5601 166.646 69.0201 166.876 71.3301 166.966C73.6201 167.056 75.7601 167.146 77.7001 167.226C81.5601 167.346 84.6001 167.436 86.3001 167.486C87.3001 167.516 88.3101 167.516 89.3201 167.486C90.2201 167.456 91.5001 167.426 93.1101 167.376C94.7201 167.316 96.6201 167.286 98.9101 167.156C101.17 167.036 103.7 166.796 106.39 166.496C109.08 166.196 111.91 165.826 114.87 165.556C127.05 164.426 141.75 162.706 155.22 159.396C164.7 156.986 172.27 153.886 177.79 150.186C180.54 148.326 182.76 146.306 184.41 144.286C186.08 142.266 187.12 140.276 187.81 138.546C188.55 136.566 188.99 134.756 189.35 132.916C189.52 131.996 189.66 131.076 189.74 130.106C189.78 129.616 189.81 129.136 189.81 128.596C189.81 128.356 189.8 128.016 189.76 127.686C189.74 127.356 189.67 127.066 189.61 126.756C189.05 124.406 187.99 122.906 187.15 121.556C186.72 120.896 186.32 120.286 185.99 119.736C185.73 119.316 185.25 118.386 184.82 117.726C183.02 114.876 180.72 112.696 178.37 110.896C175.99 109.116 173.51 107.706 170.98 106.546C168.18 105.276 166.46 105.466 166.14 106.196C165.81 106.956 166.84 108.246 169.27 109.726C171.49 111.086 173.6 112.606 175.54 114.336C177.45 116.086 179.21 118.046 180.48 120.336C180.82 120.936 181.02 121.406 181.47 122.256C181.87 123.006 182.28 123.676 182.66 124.326C183.42 125.606 184.1 126.876 184.28 127.846C184.28 127.956 184.33 128.086 184.32 128.176C184.32 128.276 184.34 128.376 184.32 128.546C184.32 128.846 184.29 129.206 184.25 129.566C184.17 130.286 184.04 131.056 183.89 131.826C183.57 133.376 183.14 135.026 182.57 136.506C182.13 137.586 181.39 138.976 180.15 140.406C178.92 141.836 177.19 143.326 174.98 144.756C170.56 147.636 164.17 150.146 156.37 152.256C153.81 152.946 151.25 153.636 148.71 154.326C137.68 157.326 124.45 159.006 114.08 159.906C108.77 160.416 104.36 160.976 101.24 161.156C99.6801 161.256 98.4501 161.296 97.6001 161.316C96.7501 161.326 96.2901 161.336 96.2901 161.336C96.2901 161.336 93.4801 161.376 88.9701 161.436C84.4601 161.476 78.2301 161.536 71.4601 161.406C64.7601 161.186 57.3801 160.726 50.6701 159.776C43.9301 158.866 37.8201 157.516 33.3901 156.216C26.7101 154.256 22.1001 152.026 18.8301 150.056C15.5201 148.116 13.6601 146.306 12.2101 144.996C10.1501 142.886 8.48011 140.666 7.24011 138.356C6.04011 136.136 5.48011 133.816 5.40011 131.506C5.22011 126.876 7.17011 122.726 10.0401 119.336L10.0301 119.356Z" fill="#101214"/>
</svg>
