<svg width="252" height="186" viewBox="0 0 252 186" fill="none" xmlns="http://www.w3.org/2000/svg">
<path d="M91.67 160.22C93.28 159.62 93.38 156.21 90.83 156.26C89.09 156.36 87.15 156.9 85.36 158.2C83.58 159.5 82.06 161.63 81.45 164.15C80.88 167.03 81.34 168.75 81.73 170.13C82.17 171.52 82.61 172.62 83.25 174.24C83.84 175.58 84.64 177.1 85.72 178.57C86.79 180.03 88.13 181.43 89.63 182.52C91.12 183.62 92.73 184.42 94.14 184.89C94.84 185.12 95.49 185.29 96.04 185.41C96.6 185.51 97.05 185.58 97.37 185.64C97.76 185.7 98.14 185.68 98.53 185.67C98.88 185.65 99.37 185.62 99.93 185.52C100.5 185.41 101.17 185.37 101.96 185.16C103.52 184.81 105.54 184.18 107.61 182.81C109.66 181.46 111.66 179.04 112.34 176.27C112.76 174.9 112.82 173.52 112.83 172.17C112.76 170.85 112.6 169.54 112.28 168.34C111.82 166.64 111.19 165.2 110.52 163.98C109.87 162.74 109.16 161.73 108.49 160.87C107.14 159.15 105.93 158.05 105.06 157.35C100.96 153.98 96.01 153.31 92.3 154.82C90.22 155.78 91.6 158.42 93.09 158.34C94.54 158.36 95.88 158.63 97.26 159.16C98.63 159.69 100.06 160.48 101.53 161.71C102.65 162.64 104.55 165.44 105.74 169.38C105.92 170.02 106.14 170.62 106.36 171.23C106.85 172.53 106.99 174.01 106.62 175.22C106.28 176.45 105.48 177.44 104.47 178.09C103.48 178.75 102.38 179.11 101.57 179.27C101.16 179.35 100.84 179.41 100.61 179.46C100.38 179.5 100.25 179.5 100.25 179.5C100.25 179.5 100.06 179.52 99.72 179.56C99.38 179.59 98.87 179.68 98.32 179.66C97.19 179.69 95.63 179.51 94.08 178.85C92.51 178.23 91.01 177.04 89.84 175.71C88.69 174.35 87.91 172.86 87.49 171.71C86.82 169.98 86.71 168.62 86.69 167.64C86.68 166.65 86.83 166.01 86.93 165.54C87.65 162.72 89.34 161.27 91.71 160.25L91.67 160.22Z" fill="#101214"/>
<path d="M26.05 110.33C26.2 111.96 29.46 112.91 30.09 110.61C30.43 109.01 30.5 107.21 30 105.29C29.51 103.38 28.42 101.4 26.69 99.7599C26.19 99.3099 25.69 98.9699 25.23 98.6599C24.76 98.3899 24.33 98.1299 23.92 97.9499C23.5 97.7699 23.12 97.6199 22.76 97.4799C22.39 97.3699 22.05 97.2798 21.71 97.1798C20.37 96.8698 19.26 96.6699 17.63 96.4099C16.25 96.2299 14.62 96.1199 12.9 96.2699C11.18 96.4199 9.37 96.8299 7.72 97.5599C6.07 98.2699 4.61 99.2998 3.57 100.35C2.51 101.38 1.85 102.37 1.51 102.92C1.28 103.24 1.14 103.6 1.01 103.96C0.91 104.29 0.71 104.74 0.59 105.33C0.45 105.92 0.28 106.63 0.23 107.35C0.14 108.1 0.07 108.9 0 109.79C0 110.28 0.01 110.79 0.02 111.31C0.05 111.84 0.14 112.39 0.2 112.95C0.54 115.2 1.65 117.65 3.33 119.59C5.01 121.55 7.22 122.93 9.42 123.86C12.6 125.03 15.35 125.12 17.48 124.94C19.63 124.74 21.18 124.19 22.21 123.78C24.65 122.75 26.57 121.11 27.73 119.24C28.91 117.38 29.4 115.4 29.45 113.57C29.41 111.48 26.46 111.51 25.91 112.87C25.32 114.14 24.61 115.23 23.69 116.18C22.78 117.14 21.61 117.94 20.07 118.58C18.89 119.09 15.87 119.15 12.38 117.92C11.82 117.72 11.25 117.55 10.68 117.39C9.44 117.06 8.23 116.34 7.36 115.38C6.48 114.42 6 113.21 5.81 112.06C5.6 110.93 5.77 109.84 5.89 109C6.03 108.2 6.11 107.73 6.11 107.73C6.11 107.73 6.15 107.58 6.23 107.3C6.3 107.02 6.4 106.62 6.61 106.16C6.99 105.24 7.7 104.08 8.87 103.13C10.05 102.21 11.64 101.49 13.27 101.26C14.89 100.99 16.45 101.09 17.57 101.32C19.27 101.63 20.41 102.19 21.22 102.65C22.01 103.14 22.5 103.54 22.85 103.86C24.92 105.82 25.66 107.93 26.05 110.33Z" fill="#101214"/>
<path d="M195.53 4.32985C197.33 3.97985 197.5 0.629845 195.47 0.279845C194.05 0.0598452 192.56 -0.0701548 190.9 0.0398452C189.24 0.149845 187.4 0.439845 185.33 1.27985C183.02 2.37985 181.73 3.74985 180.92 5.04985C180.12 6.37985 179.65 7.64984 179.29 9.46984C179.06 11.0198 179.16 12.7998 179.6 14.4898C180.02 16.1898 180.75 17.7898 181.56 19.2298C183.19 22.0798 185.28 24.1398 186.15 24.8998C186.4 25.1298 186.68 25.3298 186.98 25.4998C187.5 25.8098 188.5 26.3698 189.94 26.9398C191.38 27.4798 193.34 28.0498 195.77 27.9098C196.97 27.8298 198.29 27.5298 199.52 26.9298C200.75 26.3398 201.87 25.4698 202.75 24.4898C204.54 22.4998 205.48 20.1998 206.12 18.0998C206.55 16.5898 206.75 15.2498 206.91 14.0398C206.94 13.7198 206.98 13.4198 207.01 13.1198C207.04 12.8798 207.06 12.6398 207.09 12.4098C207.14 12.1698 207.02 11.9398 207 11.7198C206.93 11.3698 206.86 11.0398 206.79 10.7098C206.74 10.4398 206.65 10.1798 206.59 9.92984C206.03 7.91984 205.27 6.49985 204.69 5.55985C203.98 4.44985 203.12 3.49985 202.19 2.71985C201.22 1.97985 200.22 1.35985 199.17 1.00985C197.08 0.249845 195.03 0.269845 193.29 0.699845C191.32 1.26985 192.1 4.10985 193.51 4.29985C194.85 4.52985 196.03 4.96985 197.08 5.62985C197.62 5.92985 198.09 6.36985 198.59 6.81985C199.05 7.31985 199.52 7.86984 199.94 8.54984C200.26 9.08984 200.57 10.0498 200.72 11.3698C200.76 11.6998 200.8 12.0498 200.81 12.4298C200.81 12.5198 200.78 12.4998 200.75 12.5398C200.74 12.5398 200.72 12.5698 200.71 12.5798C200.7 12.5798 200.66 12.7698 200.64 12.8498C200.46 13.7498 200.21 14.6798 199.97 15.6498C199.79 16.2698 199.67 16.8898 199.58 17.5098C199.39 18.8298 198.88 20.1098 198.14 20.9298C197.42 21.7798 196.46 22.1698 195.45 22.2298C194.44 22.2998 193.46 22.0298 192.8 21.7798C192.46 21.6498 192.2 21.5298 192.02 21.4398C191.84 21.3498 191.74 21.2998 191.74 21.2998C191.74 21.2998 191.14 21.0298 190.24 20.4298C189.34 19.8398 188.13 18.8598 187.04 17.5898C185.95 16.3298 184.97 14.7798 184.48 13.3098C183.96 11.8298 183.99 10.5598 184.19 9.76985C184.51 8.57984 185.23 7.89985 185.87 7.39985C186.52 6.90985 187.1 6.64985 187.54 6.44985C188.9 5.87985 190.29 5.49985 191.62 5.17985C192.95 4.84985 194.25 4.60985 195.53 4.32985Z" fill="#101214"/>
<path d="M244.51 81.7198C245.98 82.0298 247.23 78.9098 246.28 78.0798C245.58 77.4698 244.83 76.8398 243.81 76.2098C242.79 75.6098 241.45 74.9198 239.59 74.7198C238.54 74.6398 237.67 74.7998 236.98 74.9998C236.62 75.1198 236.38 75.1898 236 75.3598C235.65 75.5198 235.32 75.6698 235 75.8098C234.75 76.0498 234.5 76.2698 234.26 76.4998C234.12 76.6498 233.97 76.7998 233.82 76.9398C233.52 77.2398 233.18 77.5398 232.75 77.8598C231.37 79.0498 229.29 80.4998 227.88 83.0398C227.19 84.2998 226.8 85.9398 226.98 87.3598C227.14 88.7798 227.65 89.7998 227.92 90.2898C228.08 90.6098 228.3 90.8498 228.52 91.1098C228.93 91.5198 229.73 92.2298 230.79 92.8298C231.85 93.4398 233.17 93.9598 234.61 94.3298C237.5 95.0398 240.88 95.2598 244.28 94.5198C245.47 94.2098 246.57 93.7498 247.55 93.1398C248.53 92.5198 249.37 91.7198 249.96 90.8498C250.56 89.9798 250.88 89.0598 251.05 88.3098C251.21 87.5498 251.24 86.9098 251.22 86.4298C251.18 85.2698 250.91 84.3098 250.59 83.5198C250.27 82.7098 249.87 82.0498 249.46 81.4598C248.63 80.2998 247.71 79.4598 246.75 78.7498C245.66 77.9698 243.51 79.9398 243.93 80.9998C244.3 81.9898 244.68 82.9398 245.01 83.8898C245.32 84.8298 245.62 85.8198 245.61 86.5898C245.61 86.8998 245.38 87.2698 245 87.4198C244.64 87.5798 244.08 87.7898 243.01 88.0698C242.67 88.1598 242.32 88.2998 241.94 88.4898C240.31 89.3498 237.83 89.3498 236.18 88.8898C235.34 88.6698 234.69 88.3698 234.29 88.1298C233.88 87.8898 233.7 87.7198 233.7 87.7198C233.7 87.7198 233.63 87.6598 233.49 87.5598C233.37 87.4598 233.19 87.3098 233.04 87.1198C232.72 86.7198 232.54 86.3898 232.61 85.8398C232.65 85.2698 233.18 84.2998 233.92 83.4698C234.65 82.6198 235.53 81.8798 236.21 81.3498C236.47 81.1498 236.7 80.9598 236.94 80.7898C237.08 80.6898 237.21 80.5998 237.33 80.5098C237.4 80.4798 237.46 80.4698 237.52 80.4398C237.66 80.4098 237.8 80.3798 237.92 80.3598C238.43 80.2898 238.77 80.2898 239.04 80.3198C240.65 80.4598 242.51 81.3098 244.52 81.7298L244.51 81.7198Z" fill="#101214"/>
<path d="M187.53 24.4498C189.24 20.4998 186.29 18.9198 183.96 22.5498C180.66 27.6898 177.42 33.2098 173.53 40.4498C169.29 48.7498 168.81 51.1198 165.77 56.6498C160.76 66.0698 151.48 81.5098 149.23 85.2298C148.9 85.7798 148.59 86.3398 148.3 86.9198C146.25 91.0298 137.23 109.06 128.87 124.26C123.12 135.08 119.57 141.78 117.71 145.28C113.34 153.55 110.36 159.89 107.72 166.26C107.36 167.14 107.25 167.88 107.32 168.45C107.36 168.74 107.44 168.98 107.55 169.18C107.61 169.28 107.68 169.37 107.75 169.44C107.79 169.48 107.83 169.51 107.86 169.56C107.88 169.58 107.9 169.6 107.92 169.61C107.92 169.61 107.93 169.6 107.92 169.66C107.92 169.69 107.88 169.74 107.99 169.91L108.25 170.03L108.38 169.99C108.49 169.9 108.43 169.91 108.44 169.9C108.42 169.9 108.44 169.88 108.35 169.93C108.34 169.93 108.19 170 108.07 169.86C108 169.74 108.04 169.71 108.04 169.69C108.06 169.65 108.06 169.67 108.07 169.67H108.15C108.15 169.67 108.25 169.7 108.3 169.71C108.4 169.73 108.51 169.73 108.62 169.73C108.85 169.71 109.09 169.64 109.34 169.51C109.85 169.25 110.39 168.74 110.91 167.95C114.67 162.18 118.26 156.17 122.67 147.92C124.38 144.71 128.64 138.4 133.78 129.03C134.62 127.5 135.39 125.94 136.09 124.36C142.13 110.69 151.5 93.7498 151.5 93.7498C151.5 93.7498 165.09 68.2598 170.82 57.5098C175.13 49.3998 177.2 45.4998 178.48 43.1098C182.32 35.8498 185.1 30.0798 187.52 24.4698L187.53 24.4498Z" fill="#101214"/>
<path d="M25.18 114.85C24.27 114.34 23.38 114.8 22.72 115.42C22.36 115.73 22.22 116.23 22.18 116.68C22.15 117.14 22.28 117.6 22.63 117.99C24.58 120.21 26.78 122.29 29.82 124.72C33.37 127.33 34.67 127.47 36.96 129.38C40.92 132.5 47.02 138.51 48.49 139.96C48.71 140.17 48.94 140.37 49.19 140.54C50.97 141.79 58.77 147.29 65.04 152.57C69.58 156.16 72.38 158.39 73.85 159.55C77.31 162.29 80.11 164.09 82.95 165.64C83.34 165.85 83.73 165.87 84.09 165.75C84.27 165.68 84.43 165.61 84.58 165.45C84.73 165.31 84.87 165.2 85 165.11C85.08 165.03 85.12 165 85.18 164.98C85.25 164.96 85.25 164.96 85.25 164.95C85.24 164.96 85.25 164.97 85.3 164.94C85.38 164.88 85.43 164.77 85.48 164.68C85.57 164.49 85.63 164.29 85.64 164.08C85.68 163.67 85.58 163.25 85.28 162.89C83.16 160.28 80.79 157.96 77.35 155.17C76.01 154.09 73.7 151.23 69.82 147.98C69.19 147.45 68.51 146.98 67.79 146.57C61.59 143.04 54.59 137.13 54.59 137.13C54.59 137.13 43.88 128.66 39.36 125.08C35.95 122.4 34.31 121.1 33.3 120.31C30.24 117.92 27.71 116.25 25.18 114.84V114.85Z" fill="#101214"/>
<path d="M206.49 17.3099C205.09 15.4599 202.72 18.0299 202.85 19.0899C203.41 21.4199 204.2 23.8499 205.51 26.8299C207.15 30.1499 208.15 30.7199 209.09 33.0399C210.8 36.9199 212.8 43.8599 213.28 45.5399C213.35 45.7899 213.44 46.0299 213.56 46.2499C214.41 47.8799 218.08 55.0299 220.64 61.4499C222.63 65.9099 223.87 68.6799 224.51 70.1199C226.08 73.5199 227.53 75.9199 229.38 78.1899C231 80.1299 232.61 77.3299 232.58 76.5199C231.96 73.8799 231.13 71.1999 229.63 67.8199C229.04 66.4999 228.54 63.4399 226.96 59.4899C226.7 58.8499 226.37 58.2399 225.98 57.6599C222.6 52.6699 219.8 45.4899 219.8 45.4899C219.8 45.4899 215.21 34.9499 213.27 30.4999C211.79 27.1499 211.07 25.5399 210.63 24.5499C209.28 21.5599 207.99 19.3399 206.48 17.3099H206.49Z" fill="#101214"/>
</svg>
