<svg width="249" height="152" viewBox="0 0 249 152" fill="none" xmlns="http://www.w3.org/2000/svg">
<path d="M13.606 26.6666C14.526 27.0466 16.836 24.6266 16.376 23.7166C15.736 22.4366 14.886 21.2666 13.536 20.0266C11.886 18.7566 11.036 18.9466 10.016 17.9666C9.31604 17.3666 8.51604 16.5166 7.78604 15.6866C7.42604 15.2666 7.08604 14.8566 6.78604 14.4766C6.67604 14.3566 6.70604 14.3466 6.70604 14.3166C6.70604 14.2866 6.70604 14.2566 6.71604 14.2266C6.72604 14.1766 6.74604 14.1266 6.77604 14.0866C6.81604 13.9866 6.91604 13.9566 6.97604 13.9366C7.01604 13.9266 7.02604 13.9266 7.00604 13.9366C6.93604 13.9666 6.66604 13.9066 6.72604 13.7266C6.72604 13.7066 6.73604 13.6866 6.74604 13.6566C6.77604 13.6266 6.70604 13.6766 6.80604 13.5866L7.06604 13.3466C7.41604 13.0266 7.77604 12.7066 8.14604 12.3766C8.87604 11.7266 9.64604 11.0766 10.406 10.4866C12.436 8.67656 13.666 7.51656 14.316 6.90656C15.816 5.45656 16.706 4.10656 17.336 2.55656C17.676 1.69656 15.556 -0.293444 14.746 0.0365562C13.266 0.646556 11.956 1.44656 10.476 2.80656C9.89604 3.33656 8.16604 3.86656 6.35604 5.28656C6.06604 5.51656 5.81604 5.80656 5.62604 6.14656C5.20604 6.87656 4.67604 7.58656 4.11604 8.22656C3.83604 8.54656 3.54604 8.85656 3.26604 9.13656C3.17604 9.23656 2.83604 9.53656 2.60604 9.74656C2.35604 9.96656 2.11604 10.1866 1.87604 10.3966C1.75604 10.4966 1.63604 10.5966 1.53604 10.6966C1.44604 10.8066 1.36604 10.9066 1.27604 11.0066C1.10604 11.2066 0.946041 11.4066 0.786041 11.5866C0.526041 11.9566 0.356041 12.3266 0.246041 12.6566C0.0260406 13.3066 0.00604061 13.7366 0.00604061 13.7366C-0.0339594 14.4666 0.126041 15.2066 0.446041 15.8366C0.526041 15.9966 0.616041 16.1466 0.706041 16.2866L1.08604 16.6966L1.84604 17.5266L4.80604 19.9366L7.13604 21.8966C8.63604 23.1766 9.34604 23.8166 9.77604 24.2066C11.106 25.3766 12.296 26.1266 13.606 26.6666Z" fill="#101214"/>
<path d="M124.006 41.1265C123.426 42.2765 125.816 44.6165 126.986 43.8565C128.636 42.7865 130.156 41.4065 131.726 39.3665C133.346 36.9365 133.146 35.9465 134.306 34.4065C135.106 33.2265 136.286 31.7965 137.406 30.5465C137.966 29.9265 138.516 29.3465 138.996 28.8665C139.076 28.7865 139.086 28.7865 139.096 28.7965H139.146C139.146 28.7965 139.206 28.8165 139.226 28.8265C139.276 28.8465 139.306 28.8765 139.336 28.9065C139.376 28.9265 139.396 28.9765 139.406 29.0065C139.416 29.0465 139.426 29.0565 139.416 29.0365C139.376 28.9465 139.456 28.6665 139.666 28.8065L139.706 28.8265C139.706 28.8265 139.766 28.8965 139.806 28.9465L139.946 29.1365C140.136 29.3865 140.336 29.6365 140.526 29.8965C140.916 30.4065 141.316 30.9365 141.726 31.4765C142.536 32.5565 143.356 33.6665 144.116 34.7465C146.406 37.7165 147.916 39.4965 148.696 40.4365C150.576 42.6265 152.306 44.0265 154.286 45.0965C155.386 45.6865 157.356 43.5465 156.826 42.5365C155.866 40.6765 154.756 38.9465 152.986 36.8165C152.296 35.9865 151.486 33.7665 149.666 31.1865C149.366 30.7665 149.016 30.3965 148.606 30.0565C147.726 29.3465 146.866 28.5065 146.076 27.6365C145.686 27.2065 145.306 26.7665 144.956 26.3365C144.786 26.1165 144.616 25.9065 144.446 25.7065C144.336 25.5565 144.226 25.4165 144.126 25.2765C143.996 25.0965 143.866 24.9165 143.736 24.7365C143.486 24.3865 143.236 24.0565 142.996 23.7365C142.876 23.5765 142.766 23.4265 142.656 23.2665C142.546 23.1065 142.436 22.9565 142.316 22.8865C141.856 22.5265 141.456 22.0965 141.106 21.9265C140.736 21.7265 140.386 21.6265 140.146 21.5665C139.906 21.5165 139.766 21.5065 139.766 21.5065C139.026 21.4365 138.256 21.6165 137.706 21.9365C137.146 22.3865 136.596 22.8965 136.046 23.3765C134.146 25.9565 133.616 26.7465 132.636 28.1665L129.996 32.0565C128.466 34.3165 127.696 35.3265 127.226 35.9665C125.806 37.8865 124.816 39.4565 123.986 41.1065L124.006 41.1265Z" fill="#101214"/>
<path d="M237.136 126.197C236.296 125.887 233.996 128.317 234.366 129.147C234.886 130.317 235.626 131.367 236.806 132.467C238.276 133.577 239.076 133.347 239.966 134.217C240.756 134.897 241.686 135.977 242.486 136.967C242.566 137.077 242.726 137.247 242.736 137.297C242.736 137.337 242.736 137.377 242.716 137.407C242.696 137.477 242.666 137.537 242.626 137.577C242.546 137.667 242.436 137.717 242.376 137.737C242.336 137.747 242.326 137.747 242.346 137.737C242.406 137.707 242.656 137.757 242.636 137.937C242.636 137.957 242.636 137.977 242.626 137.997V138.037C242.626 138.037 242.616 138.037 242.596 138.067L242.486 138.177C242.176 138.457 241.866 138.747 241.546 139.037C240.896 139.607 240.226 140.187 239.546 140.707C237.756 142.307 236.666 143.327 236.106 143.867C234.776 145.147 234.026 146.367 233.526 147.787C233.256 148.577 235.376 150.567 236.116 150.307C237.476 149.827 238.646 149.157 239.956 147.967C240.456 147.497 242.046 147.107 243.646 145.867C243.906 145.667 244.116 145.407 244.276 145.097C244.626 144.427 245.076 143.787 245.556 143.217C245.806 142.927 246.026 142.667 246.306 142.397C246.536 142.187 246.756 141.977 246.976 141.777C247.176 141.567 247.366 141.367 247.556 141.177C248.306 140.417 248.636 139.567 248.816 138.957C248.976 138.337 248.986 137.957 248.986 137.957C248.986 137.957 249.046 137.387 248.836 136.507C248.726 136.067 248.526 135.567 248.196 135.067C247.896 134.557 247.356 134.117 246.836 133.637C246.106 133.027 245.306 132.367 244.566 131.757C243.926 131.217 243.336 130.717 242.896 130.337C241.586 129.197 240.956 128.647 240.576 128.307C239.406 127.277 238.336 126.647 237.146 126.207L237.136 126.197Z" fill="#101214"/>
<path d="M238.346 140.407C247.656 140.057 247.656 136.707 238.346 136.357C225.146 135.857 211.286 135.597 193.466 135.577C173.266 135.737 168.236 136.427 154.556 136.347C152.366 136.347 150.036 136.337 147.476 136.327C146.196 136.327 144.866 136.307 143.466 136.297C143.036 136.297 142.606 136.287 142.156 136.277C141.926 136.277 141.686 136.267 141.446 136.257C141.626 126.357 141.826 115.117 141.996 105.477C142.236 95.0865 142.426 86.4065 142.516 82.5965C142.546 81.2066 142.556 79.8165 142.546 78.4165C142.546 77.4465 142.526 76.1566 142.496 73.5366C142.486 70.2266 142.466 65.2366 142.436 57.2866C137.426 57.3266 125.356 57.4366 110.306 57.5666C96.836 57.6366 80.706 57.6666 65.556 57.5666H55.296L55.286 22.4066C55.276 18.1666 55.266 14.0866 55.256 11.0266C52.146 11.0466 49.116 11.0565 46.166 11.0765C44.206 11.0965 42.296 11.1266 40.426 11.1466C36.696 11.2166 33.146 11.2865 29.726 11.3465C22.876 11.5065 16.526 11.7265 10.236 11.9965C2.06602 12.3465 2.06602 15.2566 10.236 15.6066C16.536 15.8766 22.886 16.0966 29.726 16.2566C33.146 16.3166 36.696 16.3865 40.426 16.4565C42.286 16.4765 44.196 16.5065 46.166 16.5265C47.046 16.5265 47.936 16.5466 48.846 16.5566C49.126 16.5566 49.416 16.5666 49.706 16.5766C49.706 16.9666 49.696 17.4166 49.686 17.9066C49.686 19.3266 49.686 20.8466 49.676 22.4066C49.676 25.7266 49.536 30.5766 49.356 36.9466C49.276 40.1366 49.186 43.6965 49.086 47.6465C49.046 49.6265 49.006 51.6966 48.956 53.8666C48.936 54.9566 48.916 56.0766 48.896 57.2166C48.876 59.4466 48.866 61.7166 48.846 64.0366C51.766 64.0566 56.496 64.1066 61.456 64.1466C65.236 64.1666 69.006 64.1165 72.756 63.9865C84.676 63.5865 97.906 63.3766 109.826 63.2666C115.786 63.2366 121.426 63.1966 126.406 63.1766C130.406 63.1766 133.876 63.1766 136.556 63.1766C136.536 66.6466 136.526 68.6265 136.526 68.6265V141.187H158.116C178.016 141.187 187.596 141.177 193.486 141.167C211.306 141.147 225.176 140.877 238.366 140.377L238.346 140.407Z" fill="#101214"/>
<path d="M137.526 61.5266C137.876 62.3466 141.226 62.3466 141.576 61.5266C142.076 60.3566 142.336 59.1266 142.356 57.5466C142.196 55.7566 141.506 55.3166 141.586 54.0966C141.586 52.0466 142.516 48.5966 142.746 47.7566C142.776 47.6366 142.786 47.5066 142.776 47.3866C142.646 46.5066 142.146 42.6366 142.386 39.3066C142.386 36.9566 142.366 35.4966 142.366 34.7366C142.336 32.9366 141.996 31.5966 141.366 30.2766C141.016 29.5566 138.106 29.5566 137.756 30.2766C137.116 31.5966 136.776 32.9366 136.756 34.7366C136.756 35.4366 135.956 36.8866 135.816 38.9466C135.796 39.2766 135.846 39.6166 135.976 39.9466C137.066 42.8066 136.756 46.5266 136.756 46.5266C136.756 46.5266 136.746 52.0766 136.736 54.4166C136.736 56.1766 136.746 57.0266 136.756 57.5466C136.776 59.1266 137.046 60.3566 137.546 61.5266H137.526Z" fill="#101214"/>
<path d="M110.766 151.487C111.706 151.887 114.006 149.467 113.536 148.537C112.876 147.227 111.986 146.037 110.606 144.767C108.916 143.457 108.046 143.637 107.006 142.637C106.276 142.017 105.436 141.127 104.676 140.257C104.296 139.827 103.936 139.397 103.626 139.007C103.516 138.887 103.556 138.887 103.556 138.847C103.556 138.817 103.556 138.787 103.566 138.757C103.576 138.707 103.596 138.657 103.626 138.617C103.666 138.527 103.756 138.497 103.816 138.477C103.856 138.467 103.866 138.467 103.846 138.477C103.776 138.507 103.506 138.447 103.576 138.267C103.306 138.427 104.416 137.437 105.086 136.837C105.846 136.167 106.626 135.507 107.406 134.897C109.496 133.037 110.756 131.847 111.416 131.227C112.956 129.737 113.876 128.367 114.526 126.787C114.886 125.917 112.766 123.917 111.936 124.267C110.426 124.907 109.096 125.727 107.566 127.127C106.976 127.677 105.206 128.227 103.356 129.687C103.056 129.927 102.796 130.217 102.596 130.567C102.156 131.317 101.606 132.037 101.026 132.687C100.736 133.017 100.446 133.327 100.146 133.617L99.9061 133.847L99.5161 134.197C99.2561 134.427 99.0061 134.647 98.7661 134.857C97.8061 135.717 97.2661 136.477 97.0461 137.157C96.9261 137.487 96.8661 137.767 96.8361 137.967C96.8061 138.157 96.7961 138.267 96.7961 138.267C96.7561 138.997 96.9161 139.737 97.2361 140.347C97.3161 140.507 97.3961 140.647 97.4961 140.787L97.8761 141.197L98.6261 142.017L101.696 144.517L104.116 146.557C105.656 147.867 106.386 148.527 106.836 148.927C108.206 150.127 109.426 150.907 110.756 151.477L110.766 151.487Z" fill="#101214"/>
<path d="M144.716 140.517C145.726 140.167 145.726 136.817 144.716 136.467C143.286 135.967 141.786 135.707 139.856 135.687C137.666 135.847 137.126 136.537 135.636 136.457C133.126 136.457 128.906 135.527 127.886 135.297C127.736 135.267 127.586 135.257 127.436 135.277C126.356 135.407 121.626 135.907 117.546 135.667C114.666 135.667 112.886 135.687 111.956 135.687C109.756 135.717 108.116 136.057 106.506 136.687C105.616 137.037 105.616 139.947 106.506 140.297C108.116 140.937 109.756 141.277 111.956 141.297C112.806 141.297 114.586 142.097 117.096 142.237C117.506 142.257 117.916 142.207 118.316 142.077C121.816 140.987 126.366 141.297 126.366 141.297C126.366 141.297 133.146 141.307 136.016 141.317C138.176 141.317 139.206 141.307 139.846 141.297C141.776 141.277 143.276 141.007 144.706 140.507L144.716 140.517Z" fill="#101214"/>
</svg>
