<svg width="206" height="106" viewBox="0 0 206 106" fill="none" xmlns="http://www.w3.org/2000/svg">
<path d="M130.381 87.5504C130.121 87.2804 129.861 87.0104 129.621 86.7504C129.391 86.4804 129.161 86.2204 128.941 85.9704C128.491 85.4804 128.071 85.0204 127.681 84.6004C126.951 83.7204 126.241 83.0404 125.701 82.4704C124.611 81.3404 123.801 80.8704 123.391 81.0904C122.981 81.3104 122.981 82.2204 123.501 83.8304C123.761 84.6404 124.231 85.5604 124.821 86.6604C125.121 87.2104 125.511 87.7604 125.921 88.3604C126.131 88.6604 126.351 88.9704 126.571 89.2904C126.821 89.5904 127.081 89.9004 127.341 90.2204C130.381 93.8304 134.011 97.0804 138.271 99.6104C142.511 102.16 147.311 104.14 152.551 105.12C155.161 105.68 157.881 105.87 160.661 105.96C162.051 105.9 163.451 105.84 164.881 105.79C166.301 105.67 167.721 105.41 169.171 105.21C174.911 104.15 180.761 101.91 186.141 98.2504C192.171 94.0004 196.031 89.2704 198.701 84.9404C199.321 83.8204 200.011 82.8004 200.501 81.7304C200.991 80.6604 201.461 79.6204 201.921 78.6204C202.331 77.6004 202.641 76.5804 202.981 75.6004C203.141 75.1104 203.311 74.6204 203.471 74.1404C203.591 73.6504 203.701 73.1604 203.811 72.6804C204.031 71.7204 204.251 70.7704 204.471 69.8304C204.601 68.8804 204.721 67.9404 204.841 67.0004L205.021 65.5904C205.071 65.1204 205.061 64.6404 205.081 64.1704C205.111 63.2204 205.141 62.2604 205.181 61.2904C205.201 60.3204 205.081 59.3304 205.041 58.3304C204.971 57.3204 204.951 56.2904 204.751 55.2404C204.591 54.1904 204.421 53.1004 204.241 51.9804C203.961 50.8804 203.671 49.7404 203.371 48.5504C202.171 44.6004 200.461 40.3804 197.841 36.4304C195.231 32.4904 191.891 28.7504 187.911 25.6104C183.931 22.4804 179.351 19.8904 174.431 18.3004C169.521 16.6604 164.361 15.9804 159.371 15.9704C156.871 16.0104 154.411 16.2504 152.031 16.6704C149.651 17.1104 147.371 17.7204 145.201 18.4804C143.031 19.2204 140.991 20.1304 139.101 21.1304C137.201 22.1204 135.451 23.2004 133.871 24.3404C133.071 24.8904 132.331 25.4904 131.601 26.0604C131.241 26.3404 130.901 26.6504 130.561 26.9404L130.061 27.3704L129.941 27.4804C129.891 27.5304 129.991 27.4304 129.961 27.4604C129.961 27.4604 129.961 27.4604 129.941 27.4704L129.851 27.5404L129.731 27.6404C128.461 28.7304 127.231 29.7304 126.211 30.6704C124.111 32.5304 122.481 34.1104 121.301 35.2404C119.931 36.5904 118.581 37.9604 117.281 39.3704C114.941 41.8804 110.731 46.6004 105.361 52.9004C99.9614 59.1804 93.4214 67.1004 85.6714 75.3404C81.7914 79.4504 77.5814 83.6204 72.9514 87.4704C68.3314 91.3304 63.2314 94.8704 57.6714 97.2404C54.9014 98.4604 52.0014 99.2804 49.0714 99.6804L47.9714 99.8404C47.6014 99.8804 47.2314 99.8804 46.8714 99.9004L45.7714 99.9504L45.2214 99.9804L44.6514 99.9504L42.3714 99.8304L41.2314 99.7704L40.1114 99.6004C34.1014 98.8004 28.3214 96.5704 23.4114 93.2604C19.9614 90.8804 17.0714 88.1004 14.6814 85.1604C14.1114 84.4004 13.5514 83.6504 13.0014 82.9104C12.4714 82.1504 12.0414 81.3504 11.5614 80.5904C11.3314 80.2104 11.0914 79.8204 10.8614 79.4504C10.6714 79.0504 10.4814 78.6504 10.2914 78.2604C9.92143 77.4704 9.52143 76.7004 9.18143 75.9204C6.62143 69.6004 5.92143 63.4204 6.30143 58.0904C6.67143 52.7404 8.09143 48.2404 9.72143 44.6204C11.3014 40.9504 13.3614 38.2904 14.9714 36.1304C19.0514 31.2004 23.9914 27.5804 29.1314 25.1804C34.2914 22.7804 39.6614 21.6304 44.8514 21.5104C55.2714 21.2104 64.8014 24.9604 72.1214 31.1504C73.1514 31.9804 73.9814 32.7904 74.7714 33.4104C75.5114 34.0804 76.1914 34.6004 76.7314 35.0204C77.8114 35.8704 78.5614 36.1604 78.8914 35.9204C79.2214 35.6804 79.1214 34.8904 78.4914 33.5704C78.1814 32.9104 77.6814 32.1704 77.0514 31.2804C76.3814 30.4404 75.5914 29.4504 74.5314 28.4704C72.6514 26.6404 70.5914 24.9804 68.3614 23.5404C66.1414 22.0904 63.7814 20.7704 61.2514 19.7504C58.7314 18.7204 56.0914 17.8804 53.3314 17.3104C50.5714 16.7704 47.7114 16.4604 44.7814 16.4404C38.9314 16.3904 32.7714 17.5504 26.8514 20.2004C20.9414 22.8404 15.2514 26.9404 10.5914 32.5704C10.1614 33.1404 9.71143 33.7404 9.22143 34.3804C8.75143 35.0304 8.17143 35.6704 7.73143 36.4504C7.25143 37.2104 6.75143 38.0204 6.22143 38.8604C6.09143 39.0704 5.95143 39.2804 5.82143 39.5004C5.71143 39.7304 5.59143 39.9604 5.47143 40.1904C5.24143 40.6504 5.00143 41.1304 4.75143 41.6204C2.82143 45.5004 1.03143 50.3604 0.331427 56.1404C-0.358573 61.8904 -0.078573 68.5704 2.20143 75.4304C2.50143 76.2804 2.80143 77.1404 3.11143 78.0104C3.40143 78.8904 3.86143 79.7004 4.24143 80.5704C4.66143 81.4104 4.99143 82.3204 5.51143 83.1304C6.00143 83.9604 6.50143 84.8004 7.00143 85.6404C9.17143 88.9104 11.7114 92.1904 14.9514 94.9704C19.0914 98.6704 23.9614 101.54 29.1414 103.36C34.7514 105.33 40.8414 106.24 47.0914 105.89L48.2714 105.81C48.6614 105.77 49.0514 105.7 49.4414 105.64C50.2214 105.51 51.0014 105.41 51.7714 105.25C53.2914 104.87 54.8314 104.54 56.2914 103.99C57.7914 103.54 59.1814 102.89 60.6114 102.3C61.3114 101.98 61.9814 101.62 62.6714 101.29C63.3614 100.96 64.0314 100.61 64.6814 100.22C69.9414 97.2404 74.6114 93.6404 78.8014 89.9204C83.0014 86.2104 86.7714 82.4004 90.2014 78.7804C97.0314 71.5204 102.541 65.0204 106.511 60.4704C110.471 55.9404 112.811 53.2604 112.811 53.2604C112.811 53.2604 113.691 52.2704 115.261 50.4804C116.851 48.7004 119.131 46.1304 122.041 43.0704C124.941 40.0204 128.471 36.4104 132.571 32.8404C133.121 32.3604 133.671 31.8804 134.231 31.3904C134.731 30.9404 135.241 30.4804 135.791 30.0604C136.851 29.1804 138.001 28.3704 139.201 27.5804C141.591 26.0104 144.261 24.6904 147.101 23.6404C149.931 22.5804 152.961 21.8704 156.061 21.5104C157.611 21.3104 159.191 21.2504 160.761 21.2304L163.131 21.3504C163.921 21.4004 164.721 21.3804 165.491 21.5404C171.771 22.3204 177.851 24.6304 182.931 28.0504C187.971 31.5304 191.991 36.0104 194.741 40.6604C197.521 45.3104 199.021 50.1004 199.711 54.2404C200.741 60.5104 200.201 66.1504 198.991 70.8004C198.841 71.3904 198.691 71.9604 198.551 72.5304C198.351 73.0804 198.161 73.6204 197.961 74.1404C197.561 75.1904 197.251 76.2304 196.751 77.1504C196.291 78.0904 195.881 79.0104 195.431 79.8604C194.931 80.6904 194.441 81.4804 193.981 82.2504C193.551 83.0404 192.981 83.6904 192.501 84.3704C191.991 85.0204 191.561 85.6904 191.051 86.2604C190.541 86.8304 190.041 87.3704 189.571 87.8904C189.101 88.4204 188.651 88.9304 188.151 89.3404C187.171 90.1904 186.341 91.0604 185.451 91.7204C184.571 92.3804 183.761 92.9904 183.001 93.5504C178.301 96.7704 173.191 98.7504 168.171 99.7604C166.901 99.9404 165.661 100.2 164.411 100.33C163.161 100.4 161.921 100.48 160.701 100.55C158.251 100.51 155.841 100.41 153.521 99.9704C148.861 99.2304 144.551 97.6104 140.661 95.4904C136.751 93.3804 133.341 90.6204 130.401 87.4904L130.381 87.5504Z" fill="#101214"/>
<path d="M71.4115 0.950421C70.6415 -0.749579 67.3715 -0.00957859 67.4815 1.91042C67.6315 4.62042 68.0815 7.41042 69.0815 10.8904C70.4015 14.7804 71.4015 15.5304 72.2015 18.1804C73.6715 22.6004 75.7215 30.3404 75.8015 31.8504C75.8415 32.0904 75.8715 32.3004 75.9515 32.5104C76.0015 32.6804 76.0815 32.9404 76.1415 33.2004C76.1815 33.4204 76.2215 33.3804 76.2415 33.4204C76.2715 33.4504 76.2815 33.5104 76.2615 33.5704C76.2315 33.6104 76.2815 33.6104 76.1615 33.6704L76.0715 33.7204L75.8915 33.7904C75.7715 33.8404 75.6215 33.8904 75.4715 33.9404C74.2315 34.3404 72.4415 34.6404 70.6115 34.8604C68.7615 35.0904 66.8215 35.2604 64.9515 35.3904C59.6615 35.9204 56.3615 36.3004 54.6415 36.5104C50.5915 37.0104 47.6015 37.7704 44.7315 38.8304C43.1515 39.4104 43.5915 42.2904 45.2515 42.4004C48.2715 42.6104 51.2915 42.5404 55.3015 42.0904C56.8615 41.9104 60.1715 42.3304 64.7815 42.0204C65.5315 41.9704 66.2815 41.8404 67.0115 41.6404C68.6015 41.2104 70.3115 40.8504 72.0315 40.5204C73.7515 40.1804 75.4515 39.8804 77.1215 39.3804C77.3315 39.3204 77.5315 39.2504 77.7515 39.1704C77.9515 39.1004 78.1615 39.0204 78.4115 38.9104C78.8415 38.7304 79.3915 38.4504 79.7915 38.1504C80.6415 37.5604 81.2215 36.8404 81.5515 36.1604C81.8815 35.4904 82.0215 34.8904 82.0715 34.4804C82.1315 34.0704 82.1415 33.8404 82.1415 33.8404C82.1415 33.8604 82.1715 33.4704 82.1215 32.9304C82.1115 32.8004 82.0915 32.6504 82.0815 32.4804C82.0615 32.3404 82.0415 32.2004 82.0115 32.0404C81.9615 31.7204 81.8915 31.3904 81.8115 31.0304C81.4815 29.6104 80.8915 27.9004 80.2315 26.1004C78.9015 22.5104 77.4015 18.4004 76.5915 15.9204C75.3415 12.2004 74.8215 10.3904 74.4815 9.28042C73.4715 5.92042 72.5315 3.34042 71.4215 0.920421L71.4115 0.950421Z" fill="#101214"/>
</svg>
