<svg width="211" height="208" viewBox="0 0 211 208" fill="none" xmlns="http://www.w3.org/2000/svg">
<path d="M54.3864 152.818C52.6164 159.518 55.8064 160.538 58.2464 154.048C61.7064 144.848 65.0964 135.108 69.1464 122.488C73.5664 108.128 74.0364 104.358 77.2064 94.6776C77.5364 93.6976 77.8864 92.4275 78.1964 91.7775C78.5564 91.0075 79.0964 90.2775 79.7764 89.6875C80.1164 89.3875 80.4864 89.1275 80.8964 88.9075C81.1064 88.7975 81.2864 88.7076 81.5364 88.5976L82.4164 88.2176C83.5864 87.7176 84.7864 87.2075 85.9964 86.6875C90.8364 84.6475 95.8664 82.5276 100.606 80.5376C110.116 76.6176 118.436 73.1876 121.676 71.8476C122.636 71.4576 123.586 71.0376 124.526 70.6076C125.496 70.1576 127.076 69.4375 133.416 66.5175C133.446 66.4775 133.506 66.4176 133.606 66.3576C133.696 66.3576 133.656 66.4475 133.666 66.5775V66.6875L133.656 66.7176V66.7376L133.626 66.8375C133.566 67.0775 133.506 67.3275 133.446 67.5775C133.206 68.5775 132.946 69.6176 132.686 70.7076C132.156 72.8776 131.576 75.2076 130.976 77.6676C128.546 87.4876 125.576 99.2375 122.666 110.228C122.056 112.618 121.476 114.898 120.926 117.068C120.646 118.148 120.376 119.208 120.116 120.238C119.826 121.428 119.706 121.888 119.376 122.498C119.076 123.078 118.686 123.588 118.226 124.008C118.006 124.218 117.766 124.418 117.516 124.578C117.396 124.668 117.266 124.738 117.136 124.818L116.686 125.048C115.076 125.848 113.576 126.598 112.156 127.308C106.496 130.128 102.326 132.198 99.4664 133.628C85.9664 140.368 76.0264 145.698 66.4064 151.188C61.1164 154.208 62.4164 156.818 68.0164 154.418C78.2064 150.058 88.4564 145.348 101.976 138.648C104.596 137.348 108.736 135.508 114.156 133.058C115.506 132.438 116.946 131.788 118.456 131.098C118.836 130.928 119.216 130.748 119.606 130.568C120.096 130.338 120.636 130.048 121.126 129.718C122.126 129.068 123.046 128.238 123.836 127.268C124.626 126.298 125.286 125.168 125.756 123.928C125.876 123.618 125.976 123.308 126.066 122.978L126.276 122.238C126.406 121.768 126.536 121.288 126.666 120.808C127.186 118.878 127.726 116.878 128.286 114.798C129.006 112.078 129.646 109.348 130.206 106.618C132.036 97.8175 134.296 88.0875 136.416 79.3675C137.546 74.7875 138.626 70.4675 139.566 66.6575C139.766 65.8775 139.956 65.1175 140.146 64.3675C140.326 63.6275 140.576 62.8476 140.586 62.2376C140.616 61.0076 140.316 60.3076 140.106 59.7176C139.966 59.3776 139.416 58.9175 139.076 58.8375C138.786 58.7675 138.476 58.7276 138.146 58.6876C137.466 58.6276 136.606 58.6476 135.636 59.0476C131.266 60.9776 128.716 62.1075 128.716 62.1075C128.716 62.1075 118.086 66.8576 105.216 72.6076C98.7764 75.4876 91.7764 78.6075 85.2664 81.5175C83.6364 82.2475 82.0464 82.9576 80.4864 83.6476C80.0864 83.8276 79.6864 84.0075 79.2964 84.1875C78.8064 84.4075 78.3464 84.6776 77.8964 84.9676C77.0164 85.5476 76.2164 86.2375 75.5564 87.0075C74.8864 87.7775 74.3264 88.6076 73.9064 89.4876C73.6964 89.9276 73.5064 90.3676 73.3564 90.8176C73.2364 91.1776 73.1264 91.5376 73.0064 91.8976C72.5764 93.2476 72.1664 94.5175 71.7964 95.6875C67.3064 109.798 65.1464 116.578 63.8164 120.748C59.8064 133.378 56.9264 143.288 54.4164 152.788L54.3864 152.818Z" fill="#101214"/>
<path d="M169.366 35.3276C169.986 36.1576 170.576 36.9276 171.136 37.6476C171.686 38.3676 172.156 39.0776 172.626 39.6976C173.586 40.9476 174.386 41.9876 175.026 42.8276C176.346 44.4876 177.266 45.2076 177.676 45.0076C178.086 44.8076 177.996 43.6576 177.276 41.5776C177.096 41.0576 176.896 40.4776 176.616 39.8476C176.326 39.2276 175.986 38.5576 175.616 37.8376C175.226 37.1176 174.826 36.3176 174.326 35.5076C173.806 34.7076 173.246 33.8476 172.626 32.9476C169.066 27.8776 164.806 23.1476 159.856 18.9576C154.906 14.7576 149.216 11.1576 142.936 8.20757C139.806 6.69757 136.486 5.47757 133.066 4.31757C129.606 3.27757 126.046 2.28757 122.316 1.63757C120.466 1.24757 118.566 1.02757 116.646 0.737575C115.686 0.617575 114.716 0.537575 113.736 0.437575C112.766 0.327575 111.776 0.247575 110.786 0.207575C106.826 -0.0924252 102.746 -0.0324252 98.5664 0.167575C89.0864 0.767575 81.5264 2.48757 75.1964 4.38757C68.8664 6.32757 63.7664 8.55757 59.2064 10.9476C54.6764 13.4276 50.5964 15.9076 46.5664 18.9876C45.5564 19.7576 44.5164 20.5176 43.4864 21.3276C42.4864 22.1876 41.4664 23.0576 40.4064 23.9676C39.8764 24.4176 39.3464 24.8776 38.7964 25.3476C38.2764 25.8476 37.7564 26.3476 37.2264 26.8576C36.1664 27.8976 35.0264 28.9176 33.9264 30.0776C32.1164 32.0776 30.1364 34.0776 28.3464 36.3576C27.4464 37.4976 26.4364 38.5876 25.5764 39.8076C24.6864 41.0076 23.7864 42.2276 22.8764 43.4676C19.3764 48.5076 16.0464 54.0276 13.1164 59.8976C10.2164 65.7876 7.73644 72.0276 5.74644 78.3876C5.24644 79.9776 4.74644 81.5676 4.35644 83.1876C3.95644 84.7976 3.47644 86.3976 3.17644 88.0176C2.83644 89.6276 2.50644 91.2376 2.17644 92.8276C1.87644 94.4276 1.65644 96.0376 1.39644 97.6276C1.27644 98.4276 1.14644 99.2176 1.02644 100.008C0.946444 100.798 0.856444 101.598 0.776444 102.378C0.626444 103.958 0.426444 105.508 0.316444 107.058C0.166444 110.158 -0.0635557 113.188 0.0164443 116.138C-0.0535557 122.038 0.546444 127.578 1.20644 132.548C1.42644 133.788 1.64644 134.988 1.85644 136.158C2.06644 137.328 2.24644 138.468 2.53644 139.548C2.79644 140.628 3.05644 141.678 3.30644 142.678C3.54644 143.688 3.77644 144.648 4.08644 145.548C4.65644 147.358 5.15644 149.018 5.64644 150.468C6.19644 151.898 6.68644 153.138 7.08644 154.178L7.80644 156.018L8.66644 157.808L10.4164 161.378C12.7364 165.468 17.1364 173.188 25.4164 181.338C29.5864 185.358 34.6764 189.398 40.6364 193.098C46.5964 196.808 53.5064 199.948 61.0364 202.438C76.0864 207.408 93.8764 209.308 111.556 206.668C129.246 204.068 146.656 197.788 161.646 188.438C172.186 181.788 180.566 173.958 186.926 166.018C193.306 158.068 197.706 150.058 200.936 142.758C201.666 140.898 202.366 139.098 203.046 137.368C203.216 136.938 203.386 136.508 203.556 136.078C203.716 135.648 203.836 135.208 203.976 134.778C204.246 133.918 204.506 133.078 204.766 132.248C205.026 131.418 205.276 130.608 205.526 129.808C205.646 129.408 205.776 129.018 205.896 128.618C205.996 128.218 206.086 127.828 206.186 127.438C206.556 125.878 206.916 124.378 207.266 122.938C207.426 122.218 207.626 121.518 207.746 120.818C207.866 120.118 207.986 119.438 208.096 118.768C208.326 117.428 208.546 116.148 208.756 114.928C208.996 113.708 209.086 112.538 209.216 111.428C209.336 110.318 209.456 109.258 209.566 108.268C210.456 98.8276 210.246 89.9276 209.346 81.5876C209.226 80.5476 209.096 79.5076 208.976 78.4776C208.856 77.4476 208.736 76.4276 208.546 75.4276C208.196 73.4176 207.846 71.4276 207.496 69.4676C207.056 67.5276 206.616 65.6076 206.176 63.7076C205.736 61.8076 205.146 59.9776 204.636 58.1376C202.446 50.8376 199.746 44.0076 196.486 37.6476C193.186 31.2976 189.296 25.4176 184.586 20.2176C183.956 19.4876 183.356 18.8176 182.706 18.2676C182.076 17.6976 181.486 17.1776 180.936 16.7076C180.376 16.2476 179.896 15.7976 179.376 15.4676C178.866 15.1376 178.396 14.8476 177.966 14.6076C176.266 13.6376 175.296 13.3776 175.056 13.7076C174.816 14.0376 175.296 14.9576 176.496 16.3676C176.796 16.7176 177.146 17.0976 177.536 17.5176C177.926 17.9276 178.296 18.4476 178.756 18.9676C179.196 19.4876 179.686 20.0476 180.216 20.6376C180.766 21.2076 181.296 21.8776 181.856 22.5976C190.256 32.8676 195.836 45.4676 199.756 59.5476C200.196 61.3276 200.736 63.0976 201.126 64.9376C201.516 66.7676 201.896 68.6276 202.296 70.4976C202.596 72.3876 202.906 74.3076 203.216 76.2476C203.386 77.2176 203.496 78.1976 203.596 79.1876C203.706 80.1776 203.806 81.1776 203.916 82.1776C204.686 90.2076 204.836 98.7376 203.976 107.758C203.336 114.738 201.566 125.608 196.066 138.668C195.716 139.478 195.416 140.328 195.016 141.148C194.606 141.958 194.196 142.788 193.776 143.628C193.356 144.468 192.936 145.318 192.506 146.178C192.286 146.608 192.086 147.048 191.856 147.468C191.606 147.888 191.356 148.308 191.096 148.728C190.076 150.418 189.066 152.168 187.976 153.918C186.776 155.608 185.556 157.338 184.296 159.108C179.046 165.998 172.366 172.808 164.116 178.828C162.756 179.788 161.456 180.828 160.066 181.738L155.816 184.368C153.056 186.238 150.006 187.618 147.106 189.218C146.306 189.628 145.536 190.098 144.706 190.448C143.876 190.808 143.036 191.168 142.206 191.528C140.526 192.258 138.836 192.988 137.136 193.718C136.296 194.118 135.396 194.368 134.516 194.688C133.636 194.988 132.746 195.298 131.856 195.608C130.076 196.208 128.296 196.858 126.496 197.428C119.256 199.558 111.736 201.008 104.216 201.718C102.336 201.848 100.456 201.968 98.5864 202.098C96.7164 202.098 94.8464 202.118 92.9964 202.128H91.6064L90.2264 202.048C89.3064 201.988 88.3964 201.938 87.4764 201.878C86.5664 201.818 85.6564 201.768 84.7464 201.708C83.8464 201.598 82.9564 201.478 82.0664 201.368C81.1764 201.258 80.2864 201.138 79.4064 201.028L78.0864 200.858L76.7864 200.608C75.0564 200.268 73.3564 199.938 71.6664 199.608C70.0064 199.168 68.3664 198.738 66.7564 198.318L65.5464 197.998C65.1464 197.878 64.7664 197.738 64.3764 197.608C63.5964 197.348 62.8264 197.088 62.0564 196.828C61.2864 196.568 60.5364 196.318 59.7764 196.068C59.0264 195.818 58.3164 195.478 57.5864 195.198C56.1564 194.598 54.7264 194.048 53.3664 193.448C50.7064 192.108 48.1064 190.958 45.8264 189.528C44.6764 188.838 43.5164 188.228 42.4764 187.528C41.4364 186.818 40.4364 186.128 39.4664 185.468C38.9864 185.138 38.5064 184.818 38.0364 184.498C37.5964 184.148 37.1664 183.808 36.7364 183.468C35.8964 182.798 35.0864 182.158 34.3164 181.548C33.5264 180.958 32.8564 180.318 32.2164 179.718C31.5764 179.118 30.9664 178.558 30.4064 178.038C29.2464 177.028 28.3764 176.038 27.6564 175.248C26.2064 173.678 25.4264 172.828 25.4264 172.828C25.4264 172.828 25.3464 172.758 25.2164 172.588C25.0864 172.428 24.8864 172.178 24.6364 171.858C24.1264 171.218 23.3764 170.268 22.4064 169.048C21.8964 168.458 21.4164 167.738 20.8864 166.948C20.3564 166.168 19.7764 165.318 19.1564 164.408C18.4964 163.518 17.9664 162.458 17.3264 161.388C17.0164 160.848 16.6864 160.288 16.3564 159.718C16.0164 159.148 15.6764 158.568 15.3964 157.928C12.8064 153.018 10.3764 146.818 8.55644 139.718C6.74644 132.618 5.63644 124.578 5.53644 116.128C5.41644 107.678 6.29644 98.8376 8.07644 90.1476C8.90644 85.7876 10.1264 81.5376 11.4264 77.3376C12.8464 73.1776 14.3664 69.0876 16.1664 65.1976C19.6864 57.3976 23.9164 50.2776 28.3964 44.1976C32.8764 38.1076 37.5864 33.0576 41.9064 29.0876C48.4564 23.1476 54.9264 18.8976 60.9064 15.8876C66.8464 12.7776 72.3464 10.9076 77.1264 9.49757C81.9164 8.10757 86.0664 7.29757 89.6564 6.76757C93.2364 6.19757 96.2564 5.96757 98.8664 5.79757C102.816 5.60757 106.676 5.53757 110.416 5.79757C111.356 5.82757 112.276 5.90757 113.196 5.99757C114.116 6.08757 115.036 6.15757 115.936 6.25757C117.736 6.52757 119.536 6.70757 121.286 7.05757C124.806 7.62757 128.156 8.52757 131.426 9.45757C134.656 10.4976 137.786 11.5876 140.746 12.9476C146.676 15.5876 152.076 18.8276 156.836 22.6176C161.596 26.4076 165.756 30.6976 169.326 35.3576L169.366 35.3276Z" fill="#101214"/>
<path d="M105.936 98.6775C106.556 99.2375 107.576 99.2675 108.426 98.8475C108.836 98.6375 109.186 98.3075 109.356 97.8675C109.516 97.4375 109.556 96.8475 109.206 96.2775C108.316 94.6375 106.856 93.1375 104.966 92.1275C103.076 91.0975 100.786 90.6175 98.2865 90.7175C95.4565 91.0075 93.8465 91.8675 92.5565 92.7075C91.2765 93.5875 90.3165 94.4375 89.0065 95.7075C87.9365 96.8175 86.8465 98.2375 85.9565 99.8575C85.0665 101.468 84.3765 103.348 84.0165 105.128C83.6265 106.918 83.5465 108.718 83.6665 110.228C83.7965 111.738 84.1165 112.958 84.3465 113.618C84.4565 114.018 84.6565 114.398 84.8565 114.768C85.2465 115.408 85.9965 116.618 87.3565 117.888C88.7165 119.148 90.6465 120.348 92.9365 121.038C95.2165 121.738 97.8465 121.968 100.426 121.578C101.716 121.388 102.996 121.058 104.186 120.588C104.786 120.348 105.396 120.198 105.976 119.888C106.556 119.578 107.126 119.268 107.696 118.968C110.856 116.998 112.656 114.258 113.566 112.098C114.096 111.018 114.276 110.008 114.526 109.168C114.716 108.318 114.766 107.608 114.856 107.028C115.086 104.288 114.656 101.938 113.916 99.8975C113.156 97.8675 112.086 96.1075 110.456 94.6875C110.016 94.2975 109.446 94.1775 109.046 94.2475C108.626 94.3075 108.296 94.5575 108.056 94.8875C107.586 95.5675 107.396 96.4675 107.736 97.0675C108.376 98.2875 108.776 99.7275 109.046 101.298C109.306 102.868 109.456 104.588 109.266 106.488C109.206 106.848 109.106 107.318 108.936 107.838C108.826 108.088 108.696 108.358 108.566 108.648C108.506 108.788 108.436 108.938 108.366 109.098C108.276 109.238 108.186 109.378 108.086 109.528C107.396 110.758 106.306 111.958 104.726 113.008C104.596 113.098 104.496 113.208 104.366 113.288C104.226 113.368 104.086 113.448 103.956 113.538C103.686 113.718 103.436 113.908 103.176 114.128C102.596 114.558 101.876 114.888 101.176 115.268C100.466 115.568 99.7165 115.778 98.9465 115.908C97.4265 116.148 95.8765 116.018 94.6465 115.608C93.3965 115.228 92.4765 114.598 91.9065 114.118C91.6265 113.868 91.4165 113.668 91.2865 113.508C91.1565 113.358 91.0865 113.278 91.0865 113.278C91.0865 113.278 90.9865 113.148 90.8065 112.918C90.6265 112.688 90.3965 112.328 90.1465 111.858C89.6565 110.918 89.1965 109.448 89.1865 107.688C89.1765 106.818 89.2665 105.878 89.4565 104.958C89.6365 104.048 89.9365 103.168 90.3065 102.348C91.0465 100.698 92.0965 99.4075 92.9565 98.6175C94.2665 97.4275 95.4565 96.9775 96.4265 96.6875C97.3965 96.3975 98.0965 96.3675 98.6265 96.3075C101.866 96.1575 104.136 97.0475 105.956 98.6575L105.936 98.6775Z" fill="#101214"/>
</svg>
