<svg width="258" height="190" viewBox="0 0 258 190" fill="none" xmlns="http://www.w3.org/2000/svg">
<path d="M162.539 121.904C147.619 122.254 147.619 125.604 162.539 125.954C183.689 126.454 205.919 126.714 234.479 126.734C238.529 126.704 242.189 126.674 245.559 126.654C245.979 126.654 246.399 126.654 246.809 126.644H247.439L248.289 126.584C249.409 126.464 250.509 126.194 251.489 125.724C253.469 124.824 255.039 123.334 256.009 121.624C257.009 119.924 257.449 117.994 257.359 116.184C257.349 115.284 257.119 114.324 256.989 113.794C256.829 113.174 256.679 112.554 256.529 111.954C255.919 109.534 255.389 107.274 254.669 105.134C253.989 102.984 253.399 100.904 252.589 98.8939C251.819 96.8739 251.119 94.8339 250.149 92.8139C249.699 91.7939 249.239 90.7639 248.769 89.7039C248.289 88.6539 247.689 87.6139 247.129 86.5239C246.849 85.9839 246.559 85.4339 246.259 84.8639C246.109 84.5839 245.969 84.3039 245.819 84.0139C245.649 83.7439 245.479 83.4639 245.299 83.1839C244.609 82.0639 243.889 80.9139 243.149 79.7039C242.519 78.6839 241.729 77.7339 241.009 76.7239C240.259 75.7239 239.539 74.6739 238.639 73.7239C237.779 72.7539 236.899 71.7639 236.009 70.7539C235.029 69.8339 234.039 68.8939 233.029 67.9539C228.879 64.3039 223.929 61.0839 218.389 58.8839L216.289 58.1139C215.579 57.8739 214.889 57.5539 214.159 57.4039C212.699 57.0339 211.239 56.6739 209.779 56.3039C208.289 56.0839 206.799 55.8539 205.309 55.6339C203.819 55.4439 202.339 55.4439 200.849 55.3339L199.739 55.2739L199.319 55.2539H199.059C199.059 55.2539 198.959 55.2739 198.949 55.2239L198.909 55.0939L198.839 54.8539L198.809 54.7439L198.709 54.4439L198.009 52.3739C197.779 51.6839 197.549 51.0039 197.319 50.3139C197.089 49.6339 196.779 48.9739 196.519 48.3039C195.969 46.9739 195.419 45.6439 194.879 44.3339C190.389 33.8539 183.849 24.9339 177.279 18.8039C170.699 12.6139 164.319 9.28393 160.809 7.48393C159.769 6.94393 158.659 6.55393 157.589 6.09393C156.499 5.66393 155.419 5.19393 154.319 4.80393C150.349 3.53393 142.909 1.30393 132.859 0.473929C131.609 0.373929 130.319 0.273929 128.989 0.163929C127.659 0.0939292 126.299 0.0939292 124.909 0.0539292C122.119 -0.0360708 119.189 -0.0160708 116.149 0.133929C110.059 0.443929 103.449 1.14393 96.6285 2.84393C89.8185 4.51393 82.7785 7.13393 76.1985 11.1039C69.5685 15.0039 63.5485 20.3439 58.4885 26.5039C55.9885 29.6139 53.7285 32.9239 51.6885 36.3639C49.6585 39.8139 47.9185 43.4039 46.3185 47.0439C43.2385 54.3639 40.8785 61.9039 39.1885 69.3939C38.8785 70.8639 38.5285 72.3339 38.2485 73.8039L37.9485 75.4239C37.9285 75.5039 37.9285 75.6039 37.8885 75.6639L37.0685 75.7039L36.6385 75.7239L35.4085 75.8839C34.5785 76.0039 33.7485 76.0939 32.9185 76.2439L30.4585 76.8139C29.6285 76.9739 28.8485 77.3039 28.0385 77.5639C27.2385 77.8439 26.4285 78.0839 25.6685 78.4639L23.3585 79.5239L21.1685 80.7939C18.3185 82.5939 15.6585 84.7039 13.4485 87.1939L12.5885 88.1039C12.3085 88.4139 12.0685 88.7439 11.8085 89.0639L10.2685 91.0139C9.79854 91.6839 9.34854 92.3739 8.88854 93.0539C8.42854 93.7339 7.96854 94.4139 7.58854 95.1339C4.29854 100.794 2.07854 106.894 0.528539 113.074L0.378539 113.654C0.328539 113.854 0.278539 114.004 0.228539 114.304C0.118539 114.834 0.038539 115.374 0.018539 115.924C-0.051461 117.014 0.078539 118.124 0.378539 119.184C0.958539 121.304 2.23854 123.204 3.96854 124.564C4.82854 125.254 5.81854 125.764 6.84854 126.144C7.89854 126.504 8.98854 126.694 10.0785 126.724H14.7485C47.2585 126.704 71.5485 126.364 95.3985 125.724C108.499 125.374 108.499 122.464 95.3985 122.114C71.5485 121.474 47.2585 121.134 14.7485 121.114C13.9785 121.114 13.1585 121.114 12.2885 121.114C11.8485 121.114 11.4085 121.114 10.9385 121.104C10.7085 121.104 10.4785 121.104 10.2485 121.104C10.0985 121.094 9.93854 121.084 9.77854 121.064C8.54854 120.924 7.25854 120.204 6.46854 118.934C6.06854 118.304 5.84854 117.554 5.81854 116.764C5.79854 116.564 5.80854 116.374 5.83854 116.174C5.83854 115.974 5.89854 115.774 5.93854 115.574L5.96854 115.424L6.03854 115.194L6.16854 114.734C6.25854 114.424 6.34854 114.114 6.43854 113.794C6.80854 112.534 7.14854 111.204 7.63854 109.894C8.09854 108.574 8.54854 107.194 9.14854 105.844C9.42854 105.164 9.71854 104.474 10.0185 103.764C10.3585 103.084 10.6985 102.394 11.0385 101.704C11.6785 100.274 12.5685 98.9639 13.3685 97.5439C15.1485 94.8439 17.2385 92.1639 19.7985 89.8239C22.3585 87.4739 25.3985 85.4739 28.8785 84.1439C29.7585 83.8539 30.6585 83.5539 31.5585 83.2539C32.4885 83.0439 33.4285 82.8339 34.3785 82.6239C34.8685 82.5639 35.3485 82.5039 35.8385 82.4439L36.5785 82.3439L36.9485 82.2939C37.0885 82.2839 37.1385 82.2539 37.4285 82.2539C39.3785 82.2439 41.3485 82.2239 43.3385 82.2139C43.5185 81.2539 43.8485 79.5339 44.1785 77.8039L44.7085 74.9939C44.8385 74.2639 45.0185 73.5439 45.1585 72.8239C45.4785 71.3839 45.7485 69.9239 46.1185 68.4939C46.7885 65.6139 47.5285 62.7739 48.3385 59.9639C50.0985 53.9139 52.3985 47.7739 55.4185 41.9439C58.4685 36.1339 62.2185 30.6139 66.7385 25.9239C71.2285 21.2039 76.4185 17.3039 81.9185 14.4039C87.3785 11.4339 93.1385 9.53393 98.6185 8.20393C104.119 6.90393 109.389 6.29393 114.119 5.99393C115.309 5.93393 116.459 5.88393 117.569 5.82393C118.689 5.80393 119.769 5.79393 120.809 5.77393C122.889 5.77393 124.809 5.87393 126.549 5.91393C128.299 5.91393 129.839 6.11393 131.199 6.22393C132.559 6.34393 133.719 6.44393 134.659 6.53393C136.529 6.82393 137.539 6.97393 137.539 6.97393C137.539 6.97393 137.919 7.03393 138.629 7.14393C139.339 7.27393 140.419 7.36393 141.749 7.67393C143.089 7.97393 144.719 8.34393 146.619 8.77393C148.479 9.31393 150.589 9.95393 152.889 10.7239C157.429 12.4339 162.669 14.8739 167.879 18.5239C173.089 22.1639 178.069 27.1739 182.319 33.1339C186.579 39.1039 190.049 46.0439 192.769 53.3139L193.729 56.0639L194.509 58.2839L194.939 59.5039L195.149 60.1139C195.239 60.2939 195.219 60.6139 195.499 60.5239L198.079 60.4739L199.369 60.4539L200.109 60.4839C201.059 60.5239 202.019 60.5739 202.969 60.6139C203.439 60.6439 203.919 60.6439 204.389 60.6839L205.779 60.8839C206.699 61.0139 207.619 61.1439 208.539 61.2739C209.449 61.4239 210.339 61.6939 211.229 61.8939L212.559 62.2139C213.009 62.3139 213.449 62.4239 213.869 62.5939C220.799 64.7939 226.799 68.6639 231.429 73.1639C236.089 77.6539 239.429 82.6739 241.949 87.1039C242.809 88.8239 243.749 90.4439 244.479 92.1039C245.199 93.7739 245.889 95.3839 246.559 96.9339C247.129 98.5339 247.679 100.084 248.219 101.584C248.499 102.324 248.729 103.074 248.929 103.814C249.139 104.554 249.349 105.274 249.559 105.994C250.449 108.824 250.989 111.544 251.589 114.044C251.659 114.354 251.729 114.664 251.799 114.974C251.869 115.284 251.949 115.614 251.959 115.774C251.999 115.974 252.019 116.184 252.009 116.384C252.029 116.584 252.009 116.784 251.989 116.974C251.909 117.754 251.639 118.484 251.219 119.084C250.389 120.304 249.109 120.974 247.889 121.104L247.429 121.134C247.199 121.134 246.979 121.134 246.749 121.134C246.289 121.134 245.839 121.134 245.389 121.134C244.499 121.134 243.649 121.134 242.839 121.134C239.579 121.134 236.849 121.134 234.489 121.134C205.929 121.154 183.699 121.424 162.549 121.924L162.539 121.904Z" fill="#101214"/>
<path d="M129.599 78.6039C129.249 75.8239 125.899 75.8239 125.549 78.6039C125.049 82.5539 124.789 86.6939 124.769 92.0339C124.929 98.0739 125.619 99.5839 125.539 103.674C125.539 110.594 124.609 122.264 124.379 125.074C124.349 125.494 124.339 125.904 124.349 126.324C124.479 129.304 124.979 142.374 124.739 153.624C124.739 161.574 124.759 166.494 124.759 169.054C124.789 175.124 125.129 179.654 125.759 184.104C126.109 186.544 129.019 186.544 129.369 184.104C130.009 179.654 130.349 175.124 130.369 169.054C130.369 166.694 131.169 161.784 131.309 154.854C131.329 153.724 131.279 152.594 131.149 151.474C130.059 141.804 130.369 129.254 130.369 129.254C130.369 129.254 130.379 110.524 130.389 102.614C130.389 96.6639 130.379 93.7939 130.369 92.0339C130.349 86.7039 130.079 82.5539 129.579 78.6039H129.599Z" fill="#101214"/>
<path d="M159.679 150.724C161.199 148.544 158.769 146.254 156.689 147.994C153.769 150.464 150.899 153.274 147.589 157.214C143.999 161.814 143.669 163.394 141.199 166.454C137.129 171.694 129.919 180.444 128.169 181.904C127.919 182.134 127.679 182.394 127.469 182.624C127.279 182.844 127.009 183.144 126.709 183.414C126.639 183.474 126.569 183.544 126.499 183.604C126.449 183.634 126.399 183.684 126.359 183.734C126.359 183.754 126.349 183.774 126.329 183.794C126.289 183.824 126.249 183.874 126.129 183.824C125.739 183.574 125.049 182.874 124.409 182.054C123.089 180.384 121.709 178.154 120.339 175.854C118.979 173.534 117.619 171.104 116.339 168.734C112.589 162.134 110.189 158.054 108.939 155.944C105.959 150.954 103.389 147.414 100.589 144.144C99.0486 142.344 96.5886 143.904 97.5286 146.054C99.2286 149.984 101.189 153.824 104.099 158.804C105.239 160.734 106.899 165.154 110.029 170.964C110.539 171.914 111.119 172.824 111.759 173.684C114.549 177.434 117.209 181.974 119.939 185.574C120.649 186.474 121.369 187.324 122.249 188.084C122.669 188.444 123.269 188.874 123.859 189.154C124.439 189.434 125.009 189.614 125.549 189.684C126.619 189.834 127.489 189.644 128.039 189.444C128.319 189.354 128.529 189.274 128.669 189.194C128.809 189.124 128.879 189.094 128.879 189.094C128.879 189.094 128.989 189.034 129.189 188.934C129.389 188.824 129.609 188.674 129.929 188.464C130.479 188.064 131.189 187.474 131.879 186.734C133.279 185.264 134.829 183.244 136.449 181.044C139.659 176.634 143.359 171.564 145.669 168.614C149.109 164.154 150.849 162.094 151.909 160.804C155.119 156.924 157.519 153.814 159.679 150.714V150.724Z" fill="#101214"/>
</svg>
