<svg width="175" height="169" viewBox="0 0 175 169" fill="none" xmlns="http://www.w3.org/2000/svg">
<path d="M169.894 88.1211C169.834 94.5811 170.194 97.9111 171.144 98.0411C172.024 98.1711 173.524 94.9711 173.944 88.2511C174.214 83.4911 174.194 78.6711 173.814 73.7111C173.444 68.7511 172.684 63.6611 171.394 58.4611C171.244 57.8111 171.114 57.1511 170.934 56.4911C170.734 55.8411 170.534 55.1911 170.334 54.5311C169.934 53.2211 169.524 51.9011 169.114 50.5611C168.624 49.2511 168.084 47.9311 167.564 46.5911C167.294 45.9211 167.034 45.2511 166.764 44.5711C166.444 43.9211 166.124 43.2611 165.804 42.5911C163.354 37.2211 159.924 31.9711 155.714 26.9411C150.844 21.3011 146.114 17.4011 141.774 14.5811C137.484 11.6511 133.574 9.77114 129.914 8.13114C126.224 6.57114 122.724 5.32114 118.934 4.25114C117.064 3.62114 115.064 3.26114 112.974 2.74114C110.894 2.18114 108.624 1.89114 106.194 1.43114C97.9536 0.0511405 88.1336 -0.398859 77.9936 0.381141C72.9136 0.781141 67.7536 1.48114 62.6836 2.66114L60.7736 3.06114C60.1436 3.20114 59.5236 3.40114 58.8936 3.56114C57.6436 3.91114 56.4036 4.25114 55.1536 4.60114C53.9036 4.92114 52.7136 5.42114 51.5036 5.82114C50.3036 6.26114 49.0836 6.63114 47.9236 7.12114C38.5436 10.8811 30.4336 16.1611 24.5936 21.4611C23.0636 22.7111 21.8036 24.1111 20.5836 25.3511C19.9736 25.9811 19.3736 26.5811 18.8336 27.1811C18.3136 27.8111 17.8236 28.4111 17.3436 28.9811C16.4136 30.1411 15.5036 31.1511 14.8136 32.1311C14.1336 33.1211 13.5336 33.9711 13.0436 34.6911C12.4836 35.5511 11.8236 36.3611 11.3536 37.2811L9.8536 39.9911C8.9036 41.5811 7.8736 43.9911 6.5536 47.0011C5.3736 50.0611 4.0136 53.7611 2.9536 58.1111C2.8136 58.6511 2.6636 59.2011 2.5136 59.7511C2.3736 60.3111 2.2836 60.8811 2.1636 61.4611C1.9436 62.6211 1.7136 63.8111 1.4836 65.0311C0.983599 67.4711 0.703599 70.0611 0.443599 72.7511C-0.0464008 78.1411 -0.146401 83.9611 0.223599 90.0811C0.623599 96.1911 1.4436 102.631 3.1936 109.101C4.8836 115.561 7.2336 122.121 10.6236 128.281C14.0236 134.431 18.3236 140.201 23.3836 145.191C28.4336 150.191 34.2036 154.401 40.2636 157.731C48.9136 162.301 57.4236 164.881 65.1436 166.421C72.8836 168.001 79.8936 168.431 86.0536 168.491C98.3836 168.561 107.424 166.921 113.504 165.471C127.894 162.001 139.694 155.581 148.654 147.551C153.174 143.561 156.844 139.051 159.964 134.401C160.344 133.811 160.724 133.231 161.104 132.641L161.674 131.771L162.174 130.861C162.834 129.651 163.494 128.441 164.154 127.241C164.754 126.011 165.294 124.751 165.864 123.521C166.134 122.901 166.444 122.291 166.674 121.651L167.374 119.741C167.864 118.341 168.334 117.131 168.544 116.031C168.774 114.941 168.914 114.021 168.984 113.271C169.114 111.771 168.944 110.971 168.554 110.861C168.164 110.751 167.554 111.331 166.804 112.591C166.434 113.221 166.024 114.031 165.594 115.001C165.184 115.991 164.574 117.081 164.034 118.391L163.264 120.161C163.014 120.751 162.684 121.311 162.394 121.891C161.794 123.031 161.214 124.191 160.594 125.321C159.914 126.421 159.234 127.531 158.554 128.641L158.044 129.471L157.474 130.271L156.324 131.871C153.204 136.091 149.644 140.171 145.334 143.751C136.794 150.961 125.804 156.761 112.214 160.021C106.944 161.261 98.6136 162.631 87.5736 162.461C82.0736 162.361 75.9036 161.961 69.2836 160.701C62.6636 159.541 55.5436 157.621 48.3936 154.401L44.9636 152.711C44.3936 152.431 43.8136 152.171 43.2536 151.871L41.6036 150.921C40.5136 150.271 39.3836 149.691 38.3136 149.011C37.2636 148.311 36.2136 147.601 35.1636 146.901C30.7436 143.751 26.4236 140.031 22.7636 135.601C19.1136 131.181 15.9736 126.241 13.4736 121.031C8.6536 110.511 6.3636 99.1711 5.8836 89.1611C5.3536 79.1211 6.2136 70.4611 7.5336 64.5111C7.6836 63.7611 7.8236 63.0511 7.9536 62.3811C8.0736 61.7111 8.2136 61.0811 8.3936 60.5111C8.7136 59.3611 8.9836 58.3811 9.2136 57.5811C9.4336 56.7811 9.6036 56.1711 9.7236 55.7511C9.7736 55.5411 9.8336 55.3911 9.8736 55.2811C9.9136 55.1811 9.9336 55.1211 9.9336 55.1211C9.9336 55.1211 10.3836 53.8611 11.2036 51.5911C11.4136 51.0311 11.6136 50.3811 11.9036 49.7111C12.2036 49.0411 12.5336 48.3211 12.8836 47.5411C13.2336 46.7611 13.6136 45.9311 14.0036 45.0511C14.4136 44.1811 14.9536 43.3111 15.4536 42.3611C15.9836 41.4311 16.4836 40.4311 17.1036 39.4411C17.7536 38.4711 18.4236 37.4611 19.1236 36.4211C19.4836 35.9111 19.7936 35.3511 20.2136 34.8511C20.6136 34.3411 21.0236 33.8311 21.4436 33.3111C21.8636 32.7911 22.2836 32.2611 22.7036 31.7211C22.9136 31.4511 23.1336 31.1811 23.3436 30.9111L24.0636 30.1411C25.0236 29.1211 26.0136 28.0711 27.0236 27.0011C28.1136 26.0111 29.2236 25.0111 30.3536 23.9811L31.2136 23.2111L32.1336 22.5111C32.7536 22.0411 33.3736 21.5611 34.0036 21.0911C34.6336 20.6211 35.2436 20.1011 35.9136 19.6711C36.5836 19.2411 37.2636 18.8011 37.9436 18.3611C43.3736 14.8511 49.5436 11.9511 56.0036 9.80114L60.9136 8.38114C62.5436 7.90114 64.2336 7.62114 65.8836 7.22114C69.1836 6.45114 72.5336 5.98114 75.8236 5.60114C89.0136 4.14114 101.404 5.14114 110.264 7.07114C116.964 8.50114 122.564 10.5311 127.324 12.5811C129.634 13.7511 131.854 14.6811 133.744 15.8911C134.704 16.4611 135.634 17.0011 136.524 17.5211C137.394 18.0811 138.194 18.6811 138.974 19.2211C139.754 19.7711 140.514 20.3011 141.234 20.8011C141.914 21.3611 142.564 21.9111 143.194 22.4311C144.454 23.4711 145.624 24.4011 146.584 25.4111C147.574 26.3811 148.484 27.2711 149.324 28.0911C150.094 28.9811 150.794 29.8011 151.454 30.5611C155.344 35.2011 158.554 40.0111 160.884 44.9711C161.194 45.5811 161.504 46.1911 161.804 46.7911C162.064 47.4211 162.324 48.0411 162.574 48.6611C163.084 49.9011 163.594 51.1311 164.094 52.3411C164.504 53.5911 164.914 54.8211 165.314 56.0411C165.514 56.6511 165.714 57.2611 165.914 57.8611C166.094 58.4711 166.234 59.0911 166.384 59.7011C167.734 64.5711 168.614 69.3811 169.144 74.1111C169.684 78.8411 169.924 83.4911 169.914 88.0811L169.894 88.1211Z" fill="#101214"/>
<path d="M40.3636 101.401C38.8836 98.9612 35.7036 100.041 36.7036 103.121C38.1736 107.381 40.5636 111.751 44.9936 116.091C46.2436 117.321 47.4336 118.121 48.4036 118.851C49.4136 119.541 50.3036 120.031 51.1136 120.511C52.7636 121.391 54.1636 122.141 56.2236 123.231C59.6636 125.081 64.4836 127.201 68.9536 128.551C73.4136 129.921 77.4436 130.721 79.0036 131.001C79.4636 131.081 79.9336 131.141 80.4036 131.161C82.0836 131.241 86.6036 131.431 92.2336 131.051C95.0536 130.861 98.1536 130.531 101.314 130.011C104.474 129.461 107.704 128.781 110.774 127.911C115.084 126.611 118.454 125.081 121.024 123.721C122.334 123.071 123.394 122.371 124.334 121.831C125.244 121.231 125.994 120.721 126.614 120.311C129.464 118.281 131.694 116.121 133.494 113.951C135.324 111.791 136.654 109.531 137.754 107.241C138.914 104.651 136.304 103.361 134.704 105.311C133.184 107.081 131.634 108.801 129.784 110.491C127.954 112.191 125.904 113.941 123.374 115.721C121.394 117.101 116.774 119.181 110.044 121.231C108.954 121.601 107.854 121.921 106.784 122.361C104.454 123.241 101.854 123.971 99.2536 124.471C96.6536 124.971 94.0736 125.251 91.8036 125.381C87.2436 125.641 83.9636 125.361 83.9636 125.361C83.9636 125.361 82.7336 125.311 80.7836 125.141C78.8236 124.971 76.1436 124.621 73.2536 124.051C70.3536 123.521 67.2936 122.611 64.5036 121.621C63.8136 121.351 63.1436 121.091 62.4836 120.841C61.8236 120.591 61.2236 120.271 60.6336 120.011C59.4336 119.501 58.4136 118.901 57.5236 118.431C56.8436 118.091 56.2536 117.701 55.6836 117.341C55.1236 116.981 54.5836 116.671 54.1136 116.341C53.1936 115.651 52.3636 115.101 51.7136 114.561C51.0636 114.011 50.5136 113.551 50.0336 113.151C49.5636 112.751 49.2136 112.371 48.8936 112.061C45.0036 108.311 42.5436 104.871 40.3536 101.401H40.3636Z" fill="#101214"/>
<path d="M45.1036 61.1111C45.3736 61.0211 46.0136 60.3411 46.5336 59.5711C47.0436 58.8211 47.2736 57.8211 46.6036 57.3511C45.7036 56.7211 44.5336 56.3511 43.2136 56.4411C41.9136 56.5211 40.4136 57.1211 39.3236 58.3111C38.7336 59.0111 38.4336 59.6611 38.2736 60.2011C38.0936 60.7511 38.0536 61.2011 38.0236 61.6211C37.9836 62.4411 38.0436 63.0711 37.9536 63.9511C37.9236 64.6811 37.8936 65.5311 37.9636 66.4811C38.0536 67.4211 38.2536 68.4411 38.6036 69.3911C39.3136 71.3011 40.5936 72.7311 41.0936 73.2111C41.2436 73.3711 41.4136 73.4811 41.5936 73.5811C41.9236 73.7611 42.5336 74.0511 43.3736 74.3411C43.8036 74.4811 44.2736 74.6211 44.8536 74.7311C45.1036 74.7811 45.5236 74.8511 45.8936 74.8711C46.2736 74.8911 46.6536 74.8811 47.0236 74.8511C48.5636 74.7411 50.3736 73.9211 51.5236 72.5811C52.6636 71.2811 53.1936 69.8511 53.5336 68.6011C53.9136 66.7911 53.8136 65.4911 53.7636 64.4111C53.7036 63.8811 53.6536 63.4111 53.6036 63.0111C53.5336 62.5911 53.4536 62.2511 53.3836 61.9711C53.0336 60.6411 52.4236 59.5011 51.5736 58.5911C50.7236 57.6911 49.6036 56.9911 48.3336 56.8011C47.6136 56.6911 47.1236 57.4711 46.9836 58.2511C46.8336 59.0611 46.8136 59.8711 46.9136 60.1211C47.1536 60.5711 47.2736 61.0111 47.4336 61.5211C47.5836 62.0411 47.7636 62.6211 47.9336 63.3511C48.0836 63.8611 47.4836 65.4611 47.1436 66.9311C47.0836 67.1711 47.0836 67.3811 47.1436 67.6111C47.2736 68.1011 47.2236 68.5511 47.1536 68.7611C47.0836 68.9811 46.9336 69.1411 46.6536 69.1811C46.5036 69.2011 46.4136 69.2011 46.3036 69.1811C46.1336 69.1411 45.9736 69.0911 45.8336 69.0311C45.5536 68.9211 45.4036 68.8211 45.4036 68.8211C45.4036 68.8211 45.1536 68.7211 44.7936 68.4811C44.4336 68.2511 43.9936 67.8911 43.6436 67.4211C43.2936 66.9511 43.0236 66.3611 42.9036 65.7211C42.7836 65.1011 42.7536 64.3911 42.8136 63.9411C42.8836 63.2511 43.0036 62.8311 43.1336 62.6111C43.2536 62.3611 43.3536 62.2511 43.4236 62.1711C43.6336 61.9211 43.8136 61.7711 44.0736 61.5811C44.3336 61.4011 44.6736 61.2411 45.1036 61.1411V61.1111Z" fill="#101214"/>
<path d="M129.034 61.1111C129.304 61.0211 129.944 60.3411 130.464 59.5711C130.974 58.8211 131.204 57.8211 130.534 57.3511C129.634 56.7211 128.464 56.3511 127.144 56.4411C125.844 56.5211 124.344 57.1211 123.254 58.3111C122.664 59.0111 122.364 59.6611 122.204 60.2011C122.024 60.7511 121.984 61.2011 121.954 61.6211C121.914 62.4411 121.974 63.0711 121.884 63.9511C121.854 64.6811 121.824 65.5311 121.894 66.4811C121.984 67.4211 122.184 68.4411 122.534 69.3911C123.244 71.3011 124.524 72.7311 125.024 73.2111C125.174 73.3711 125.344 73.4811 125.524 73.5811C125.854 73.7611 126.464 74.0511 127.304 74.3411C127.734 74.4811 128.204 74.6211 128.784 74.7311C129.034 74.7811 129.454 74.8511 129.824 74.8711C130.204 74.8911 130.584 74.8811 130.954 74.8511C132.494 74.7411 134.304 73.9211 135.454 72.5811C136.594 71.2811 137.124 69.8511 137.464 68.6011C137.844 66.7911 137.744 65.4911 137.694 64.4111C137.634 63.8811 137.584 63.4111 137.534 63.0111C137.464 62.5911 137.384 62.2511 137.314 61.9711C136.964 60.6411 136.354 59.5011 135.504 58.5911C134.654 57.6911 133.534 56.9911 132.264 56.8011C131.544 56.6911 131.054 57.4711 130.914 58.2511C130.764 59.0611 130.744 59.8711 130.844 60.1211C131.084 60.5711 131.204 61.0111 131.364 61.5211C131.514 62.0411 131.694 62.6211 131.864 63.3511C132.014 63.8611 131.414 65.4611 131.074 66.9311C131.014 67.1711 131.014 67.3811 131.074 67.6111C131.204 68.1011 131.154 68.5511 131.084 68.7611C131.014 68.9811 130.864 69.1411 130.584 69.1811C130.434 69.2011 130.344 69.2011 130.234 69.1811C130.064 69.1411 129.904 69.0911 129.764 69.0311C129.484 68.9211 129.334 68.8211 129.334 68.8211C129.334 68.8211 129.084 68.7211 128.724 68.4811C128.364 68.2511 127.924 67.8911 127.574 67.4211C127.224 66.9511 126.954 66.3611 126.834 65.7211C126.714 65.1011 126.684 64.3911 126.744 63.9411C126.814 63.2511 126.934 62.8311 127.064 62.6111C127.184 62.3611 127.284 62.2511 127.354 62.1711C127.564 61.9211 127.744 61.7711 128.004 61.5811C128.264 61.4011 128.604 61.2411 129.034 61.1411V61.1111Z" fill="#101214"/>
</svg>
