<svg width="175" height="169" viewBox="0 0 175 169" fill="none" xmlns="http://www.w3.org/2000/svg">
<path d="M169.894 88.1211C169.844 94.5811 170.194 97.9111 171.144 98.0411C172.024 98.1711 173.524 94.9711 173.944 88.2511C174.214 83.4911 174.194 78.6711 173.814 73.7111C173.444 68.7511 172.684 63.6611 171.394 58.4611C171.244 57.8111 171.114 57.1511 170.934 56.4911C170.734 55.8411 170.534 55.1911 170.334 54.5311C169.934 53.2211 169.524 51.9011 169.114 50.5611C168.624 49.2511 168.084 47.9311 167.564 46.5911C167.294 45.9211 167.034 45.2511 166.764 44.5711C166.444 43.9211 166.124 43.2611 165.804 42.5911C163.354 37.2211 159.924 31.9711 155.714 26.9411C150.844 21.3011 146.114 17.4011 141.774 14.5811C137.484 11.6511 133.574 9.77114 129.914 8.13114C126.224 6.57114 122.724 5.32114 118.934 4.25114C117.064 3.62114 115.064 3.26114 112.974 2.74114C110.894 2.18114 108.624 1.89114 106.194 1.43114C97.9536 0.0511405 88.1336 -0.398859 77.9936 0.381141C72.9136 0.781141 67.7536 1.48114 62.6836 2.66114L60.7736 3.06114C60.1436 3.20114 59.5236 3.40114 58.8936 3.56114C57.6436 3.91114 56.4036 4.25114 55.1536 4.60114C53.9036 4.92114 52.7136 5.42114 51.5036 5.82114C50.3036 6.26114 49.0836 6.63114 47.9236 7.12114C38.5436 10.8811 30.4336 16.1611 24.5936 21.4611C23.0636 22.7111 21.8036 24.1111 20.5836 25.3511C19.9736 25.9811 19.3736 26.5811 18.8336 27.1811C18.3136 27.8111 17.8236 28.4111 17.3436 28.9811C16.4136 30.1411 15.5036 31.1511 14.8136 32.1311C14.1336 33.1211 13.5336 33.9711 13.0436 34.6911C12.4836 35.5511 11.8236 36.3611 11.3536 37.2811L9.8536 39.9911C8.9036 41.5811 7.8736 43.9911 6.5536 47.0011C5.3736 50.0611 4.0136 53.7611 2.9536 58.1111C2.8136 58.6511 2.6636 59.2011 2.5136 59.7511C2.3736 60.3111 2.2836 60.8811 2.1636 61.4611C1.9436 62.6211 1.7136 63.8111 1.4836 65.0311C0.983599 67.4711 0.703599 70.0611 0.443599 72.7511C-0.0464008 78.1411 -0.146401 83.9611 0.223599 90.0811C0.623599 96.1911 1.4436 102.631 3.1936 109.101C4.8836 115.561 7.2336 122.121 10.6236 128.281C14.0236 134.431 18.3236 140.201 23.3836 145.191C28.4336 150.191 34.2036 154.401 40.2636 157.731C48.9136 162.301 57.4236 164.881 65.1436 166.421C72.8836 168.001 79.8936 168.431 86.0536 168.491C98.3836 168.561 107.424 166.921 113.504 165.471C127.894 162.001 139.694 155.581 148.654 147.551C153.174 143.561 156.844 139.051 159.964 134.401C160.344 133.811 160.724 133.231 161.114 132.641L161.684 131.771L162.184 130.861C162.844 129.651 163.504 128.441 164.164 127.241C164.764 126.011 165.304 124.751 165.874 123.521C166.144 122.901 166.454 122.291 166.684 121.651L167.384 119.741C167.874 118.341 168.344 117.131 168.554 116.031C168.784 114.941 168.924 114.021 168.994 113.271C169.124 111.771 168.954 110.971 168.564 110.861C168.174 110.751 167.564 111.331 166.814 112.591C166.444 113.221 166.034 114.031 165.604 115.001C165.194 115.991 164.584 117.081 164.044 118.391L163.274 120.161C163.024 120.751 162.694 121.311 162.404 121.891C161.804 123.031 161.224 124.191 160.604 125.321C159.924 126.421 159.244 127.531 158.564 128.641L158.054 129.471L157.484 130.271L156.334 131.871C153.214 136.091 149.654 140.171 145.344 143.751C136.804 150.961 125.814 156.761 112.224 160.021C106.954 161.261 98.6236 162.631 87.5836 162.461C82.0836 162.361 75.9136 161.961 69.2936 160.701C62.6736 159.541 55.5536 157.621 48.4036 154.401L44.9736 152.711C44.4036 152.431 43.8236 152.171 43.2636 151.871L41.6136 150.921C40.5236 150.271 39.3936 149.691 38.3236 149.011C37.2736 148.311 36.2236 147.601 35.1736 146.901C30.7536 143.751 26.4336 140.031 22.7736 135.601C19.1236 131.181 15.9836 126.241 13.4836 121.031C8.6636 110.511 6.3736 99.1711 5.8936 89.1611C5.3636 79.1211 6.2236 70.4611 7.5436 64.5111C7.6936 63.7611 7.8336 63.0511 7.9636 62.3811C8.0836 61.7111 8.2236 61.0811 8.4036 60.5111C8.7236 59.3611 8.9936 58.3811 9.2236 57.5811C9.4436 56.7811 9.6136 56.1711 9.7336 55.7511C9.7836 55.5411 9.8436 55.3911 9.8836 55.2811C9.9236 55.1811 9.9436 55.1211 9.9436 55.1211C9.9436 55.1211 10.3936 53.8611 11.2136 51.5911C11.4236 51.0311 11.6236 50.3811 11.9136 49.7111C12.2136 49.0411 12.5436 48.3211 12.8936 47.5411C13.2436 46.7611 13.6236 45.9311 14.0136 45.0511C14.4236 44.1811 14.9636 43.3111 15.4636 42.3611C15.9936 41.4311 16.4936 40.4311 17.1136 39.4411C17.7636 38.4711 18.4336 37.4611 19.1336 36.4211C19.4936 35.9111 19.8036 35.3511 20.2236 34.8511C20.6236 34.3411 21.0336 33.8311 21.4536 33.3111C21.8736 32.7911 22.2936 32.2611 22.7136 31.7211C22.9236 31.4511 23.1436 31.1811 23.3536 30.9111L24.0736 30.1411C25.0336 29.1211 26.0236 28.0711 27.0336 27.0011C28.1236 26.0111 29.2336 25.0111 30.3736 23.9811L31.2336 23.2111L32.1536 22.5111C32.7736 22.0411 33.3936 21.5611 34.0236 21.0911C34.6536 20.6211 35.2636 20.1011 35.9336 19.6711C36.6036 19.2411 37.2836 18.8011 37.9636 18.3611C43.3936 14.8511 49.5636 11.9511 56.0236 9.80114L60.9336 8.38114C62.5636 7.90114 64.2536 7.62114 65.9036 7.22114C69.2036 6.45114 72.5536 5.98114 75.8436 5.60114C89.0336 4.14114 101.424 5.14114 110.284 7.07114C116.984 8.50114 122.584 10.5311 127.344 12.5811C129.654 13.7511 131.874 14.6811 133.764 15.8911C134.724 16.4611 135.654 17.0011 136.544 17.5211C137.414 18.0811 138.214 18.6811 138.994 19.2211C139.774 19.7711 140.534 20.3011 141.254 20.8011C141.934 21.3611 142.584 21.9111 143.214 22.4311C144.474 23.4711 145.644 24.4011 146.604 25.4111C147.594 26.3811 148.504 27.2711 149.344 28.0911C150.114 28.9811 150.814 29.8011 151.474 30.5611C155.364 35.2011 158.574 40.0111 160.904 44.9711C161.214 45.5811 161.524 46.1911 161.824 46.7911C162.084 47.4211 162.344 48.0411 162.594 48.6611C163.104 49.9011 163.614 51.1311 164.114 52.3411C164.524 53.5911 164.934 54.8211 165.334 56.0411C165.534 56.6511 165.734 57.2611 165.934 57.8611C166.114 58.4711 166.254 59.0911 166.404 59.7011C167.754 64.5711 168.634 69.3811 169.164 74.1111C169.704 78.8411 169.944 83.4911 169.934 88.0811L169.894 88.1211Z" fill="#101214"/>
<path d="M44.6636 61.1111C44.9336 61.0211 45.5736 60.3411 46.0936 59.5711C46.6036 58.8211 46.8336 57.8211 46.1636 57.3511C45.2636 56.7211 44.0936 56.3511 42.7736 56.4411C41.4736 56.5211 39.9736 57.1211 38.8836 58.3111C38.2936 59.0111 37.9936 59.6611 37.8336 60.2011C37.6536 60.7511 37.6136 61.2011 37.5836 61.6211C37.5436 62.4411 37.6036 63.0711 37.5136 63.9511C37.4836 64.6811 37.4536 65.5311 37.5236 66.4811C37.6136 67.4211 37.8136 68.4411 38.1636 69.3911C38.8736 71.3011 40.1536 72.7311 40.6536 73.2111C40.8036 73.3711 40.9736 73.4811 41.1536 73.5811C41.4836 73.7611 42.0936 74.0511 42.9336 74.3411C43.3636 74.4811 43.8336 74.6211 44.4136 74.7311C44.6636 74.7811 45.0836 74.8511 45.4536 74.8711C45.8336 74.8911 46.2136 74.8811 46.5836 74.8511C48.1236 74.7411 49.9336 73.9211 51.0836 72.5811C52.2236 71.2811 52.7536 69.8511 53.0936 68.6011C53.4736 66.7911 53.3736 65.4911 53.3236 64.4111C53.2636 63.8811 53.2136 63.4111 53.1636 63.0111C53.0936 62.5911 53.0136 62.2511 52.9436 61.9711C52.5936 60.6411 51.9836 59.5011 51.1336 58.5911C50.2836 57.6911 49.1636 56.9911 47.8936 56.8011C47.1736 56.6911 46.6836 57.4711 46.5436 58.2511C46.3936 59.0611 46.3736 59.8711 46.4736 60.1211C46.7136 60.5711 46.8336 61.0111 46.9936 61.5211C47.1436 62.0411 47.3236 62.6211 47.4936 63.3511C47.6436 63.8611 47.0436 65.4611 46.7036 66.9311C46.6436 67.1711 46.6436 67.3811 46.7036 67.6111C46.8336 68.1011 46.7836 68.5511 46.7136 68.7611C46.6436 68.9811 46.4936 69.1411 46.2136 69.1811C46.0636 69.2011 45.9736 69.2011 45.8636 69.1811C45.6936 69.1411 45.5336 69.0911 45.3936 69.0311C45.1136 68.9211 44.9636 68.8211 44.9636 68.8211C44.9636 68.8211 44.7136 68.7211 44.3536 68.4811C43.9936 68.2511 43.5536 67.8911 43.2036 67.4211C42.8536 66.9511 42.5836 66.3611 42.4636 65.7211C42.3436 65.1011 42.3136 64.3911 42.3736 63.9411C42.4436 63.2511 42.5636 62.8311 42.6936 62.6111C42.8136 62.3611 42.9136 62.2511 42.9836 62.1711C43.1936 61.9211 43.3736 61.7711 43.6336 61.5811C43.8936 61.4011 44.2336 61.2411 44.6636 61.1411V61.1111Z" fill="#101214"/>
<path d="M128.584 61.1111C128.854 61.0211 129.494 60.3411 130.014 59.5711C130.524 58.8211 130.754 57.8211 130.084 57.3511C129.184 56.7211 128.014 56.3511 126.694 56.4411C125.394 56.5211 123.894 57.1211 122.804 58.3111C122.214 59.0111 121.914 59.6611 121.754 60.2011C121.574 60.7511 121.534 61.2011 121.504 61.6211C121.464 62.4411 121.524 63.0711 121.434 63.9511C121.404 64.6811 121.374 65.5311 121.444 66.4811C121.534 67.4211 121.734 68.4411 122.084 69.3911C122.794 71.3011 124.074 72.7311 124.574 73.2111C124.724 73.3711 124.894 73.4811 125.074 73.5811C125.404 73.7611 126.014 74.0511 126.854 74.3411C127.284 74.4811 127.754 74.6211 128.334 74.7311C128.584 74.7811 129.004 74.8511 129.374 74.8711C129.754 74.8911 130.134 74.8811 130.504 74.8511C132.044 74.7411 133.854 73.9211 135.004 72.5811C136.144 71.2811 136.674 69.8511 137.014 68.6011C137.394 66.7911 137.294 65.4911 137.244 64.4111C137.184 63.8811 137.134 63.4111 137.084 63.0111C137.014 62.5911 136.934 62.2511 136.864 61.9711C136.514 60.6411 135.904 59.5011 135.054 58.5911C134.204 57.6911 133.084 56.9911 131.814 56.8011C131.094 56.6911 130.604 57.4711 130.464 58.2511C130.314 59.0611 130.294 59.8711 130.394 60.1211C130.634 60.5711 130.754 61.0111 130.914 61.5211C131.064 62.0411 131.244 62.6211 131.414 63.3511C131.564 63.8611 130.964 65.4611 130.624 66.9311C130.564 67.1711 130.564 67.3811 130.624 67.6111C130.754 68.1011 130.704 68.5511 130.634 68.7611C130.564 68.9811 130.414 69.1411 130.134 69.1811C129.984 69.2011 129.894 69.2011 129.784 69.1811C129.614 69.1411 129.454 69.0911 129.314 69.0311C129.034 68.9211 128.884 68.8211 128.884 68.8211C128.884 68.8211 128.634 68.7211 128.274 68.4811C127.914 68.2511 127.474 67.8911 127.124 67.4211C126.774 66.9511 126.504 66.3611 126.384 65.7211C126.264 65.1011 126.234 64.3911 126.294 63.9411C126.364 63.2511 126.484 62.8311 126.614 62.6111C126.734 62.3611 126.834 62.2511 126.904 62.1711C127.114 61.9211 127.294 61.7711 127.554 61.5811C127.814 61.4011 128.154 61.2411 128.584 61.1411V61.1111Z" fill="#101214"/>
<path d="M46.1336 112.281C43.7836 112.631 43.7836 115.981 46.1336 116.331C49.4636 116.831 52.9536 117.091 57.4536 117.111C62.5436 116.951 63.8136 116.261 67.2636 116.341C73.0936 116.341 82.9336 117.271 85.3036 117.501C85.6536 117.531 86.0036 117.541 86.3536 117.531C88.8636 117.401 99.8736 116.901 109.364 117.141C116.064 117.141 120.204 117.121 122.374 117.121C127.484 117.091 131.304 116.751 135.064 116.121C137.124 115.771 137.124 112.861 135.064 112.511C131.314 111.871 127.494 111.531 122.374 111.511C120.384 111.511 116.244 110.711 110.404 110.571C109.454 110.551 108.504 110.601 107.554 110.731C99.4036 111.821 88.8236 111.511 88.8236 111.511C88.8236 111.511 73.0336 111.501 66.3736 111.491C61.3536 111.491 58.9436 111.501 57.4536 111.511C52.9636 111.531 49.4636 111.801 46.1336 112.301V112.281Z" fill="#101214"/>
</svg>
