<svg width="242" height="230" viewBox="0 0 242 230" fill="none" xmlns="http://www.w3.org/2000/svg">
<path d="M175.323 176.314C176.923 180.094 180.103 179.064 179.173 175.064C177.853 169.394 176.223 163.514 173.823 156.054C170.933 147.654 169.583 145.764 167.803 140.014C164.653 130.344 160.243 113.744 159.183 109.734C159.023 109.144 158.843 108.554 158.643 107.984C157.173 103.854 150.753 85.7436 145.863 69.9436C142.243 58.8336 140.003 51.9636 138.833 48.3736C136.053 39.9036 133.673 33.6636 131.043 27.6436C129.603 24.3336 126.833 25.2336 127.613 28.7636C129.033 35.1836 130.763 41.6236 133.493 50.1136C134.563 53.4136 136.033 60.5236 139.053 70.2636C139.543 71.8536 140.113 73.4136 140.743 74.9436C146.173 88.1236 151.583 105.774 151.583 105.774C151.583 105.774 160.083 131.964 163.673 143.024C166.383 151.344 167.693 155.354 168.493 157.814C170.933 165.264 173.073 170.974 175.343 176.344L175.323 176.314Z" fill="#101214"/>
<path d="M121.743 21.3236C127.283 15.1936 124.893 12.8436 118.853 18.4836C110.293 26.4836 101.483 35.0736 90.3834 46.3336C77.9334 59.2236 75.3034 62.8936 66.7334 71.4936C61.0734 77.2536 53.7934 84.4636 46.9334 91.1736C39.4834 98.4036 32.5534 105.144 28.3334 109.244C29.0734 111.594 29.7034 113.614 30.2434 115.354C30.6134 116.564 30.9234 117.594 31.1834 118.464C31.7034 120.214 32.0434 121.354 32.2934 122.204C32.6434 123.384 33.0134 124.564 33.4134 125.734C34.1934 128.034 35.6834 132.464 38.0134 139.364C40.4534 146.714 43.7634 156.694 48.0734 169.664C51.0434 170.144 57.0334 171.114 64.3734 172.294C70.8734 173.394 78.5634 174.704 85.9934 175.964C109.243 179.834 123.633 182.234 131.143 183.494C148.893 186.434 162.213 188.314 175.343 189.864C182.553 190.714 183.033 187.844 175.943 186.304C163.033 183.504 149.823 180.944 132.073 177.954C125.173 176.794 110.943 173.604 90.6834 170.084C87.3834 169.514 84.0634 169.014 80.7734 168.584C75.9134 167.964 70.8234 167.254 65.7534 166.524C61.2234 165.854 56.7234 165.184 52.4734 164.564L52.3134 164.144C52.1434 163.644 51.9734 163.144 51.8034 162.644C51.4234 161.514 51.0534 160.394 50.6834 159.294C49.9534 157.094 49.2534 154.974 48.5834 152.944C47.2534 148.884 46.0634 145.224 45.0534 142.144C43.0734 135.964 41.8334 132.124 41.8334 132.124L34.9034 110.784L72.3934 72.6536C84.7634 60.0536 90.7134 53.9936 94.3734 50.2636C105.443 38.9736 113.873 30.0136 121.723 21.3136L121.743 21.3236Z" fill="#101214"/>
<path d="M63.0334 169.194C62.1634 167.794 59.0234 168.964 59.2134 170.534C59.4734 172.774 59.9434 175.054 60.7734 177.914C61.8734 181.104 62.7534 181.744 63.2734 183.994C64.2934 187.754 64.7734 194.364 64.8234 195.944C64.8334 196.174 64.8734 196.404 64.9334 196.634C65.3934 198.234 67.2234 205.354 67.6834 211.654C68.2034 216.064 68.4034 218.814 68.5134 220.244C68.7734 223.634 69.2234 226.144 69.9434 228.634C70.3334 229.994 73.2434 229.934 73.5534 228.524C74.1034 225.964 74.3334 223.334 74.1134 219.844C74.0134 218.494 74.6134 215.604 74.2934 211.594C74.2434 210.944 74.1034 210.304 73.9034 209.674C73.0234 206.964 72.3634 203.834 71.8934 201.374C71.4234 198.914 71.1634 197.134 71.1634 197.134C71.1634 197.134 70.6834 194.484 69.9934 191.294C69.3134 188.104 68.4034 184.384 67.8134 182.184C66.9234 178.874 66.4434 177.294 66.1534 176.324C65.2534 173.384 64.2534 171.184 63.0334 169.204V169.194Z" fill="#101214"/>
<path d="M33.0234 118.904C35.1434 117.844 34.1034 114.664 31.7834 115.054C28.4834 115.604 25.1734 116.404 20.8534 117.774C18.3534 118.604 16.8534 119.494 15.5734 120.214C14.9434 120.614 14.3634 120.984 13.7434 121.374C13.4334 121.564 13.1034 121.754 12.7534 121.944C12.4134 122.164 12.0534 122.394 11.6534 122.634C10.9934 123.054 10.2434 123.464 9.52338 124.034C8.79338 124.584 7.99338 125.104 7.28338 125.804C6.91338 126.134 6.54338 126.474 6.16338 126.814C5.80338 127.174 5.47338 127.574 5.13338 127.954C4.41338 128.694 3.84338 129.554 3.27338 130.394C2.96338 130.804 2.73338 131.234 2.51338 131.674C2.28338 132.114 2.06338 132.534 1.85338 132.944C1.47338 133.784 1.19338 134.614 0.903378 135.354C0.483378 136.854 0.153378 138.084 0.0933784 138.754C0.0333784 139.154 0.00337835 139.564 0.00337835 139.964C-0.00662165 140.334 0.00337835 140.844 0.0633783 141.474C0.133378 142.104 0.143378 142.874 0.283378 143.714C0.533378 145.404 0.943378 147.464 1.63338 149.644C2.26338 151.824 3.21338 154.184 4.38338 156.554C5.59338 158.914 7.19338 161.224 9.10338 163.204C11.8934 165.934 14.8734 167.354 17.2134 168.134C18.4034 168.464 19.4434 168.794 20.3334 168.884C21.2234 169.004 21.9834 169.174 22.5834 169.174C23.2934 169.204 23.9834 169.224 24.6634 169.254C25.3334 169.254 25.9634 169.174 26.5834 169.134C27.8334 169.064 28.9634 168.804 30.0534 168.574C31.1534 168.374 32.1234 167.984 33.1034 167.664C34.0834 167.354 34.9734 166.914 35.8534 166.504C37.8134 165.564 36.8234 162.824 34.8434 163.044C31.2034 163.424 27.5934 163.884 23.0534 163.584C21.3134 163.384 17.7134 162.254 14.3234 159.094C13.7834 158.544 13.1734 158.084 12.5934 157.534C9.90338 155.354 8.02338 151.284 7.07338 148.034C6.79338 147.224 6.67338 146.454 6.50338 145.764C6.33338 145.074 6.27338 144.474 6.21338 143.964C6.15338 143.464 6.10338 143.064 6.07338 142.784C6.07338 142.514 6.07338 142.364 6.07338 142.364C6.07338 142.364 6.07338 142.144 6.04338 141.744C6.04338 141.354 5.96338 140.774 6.04338 140.084C6.06338 139.734 6.08338 139.364 6.10338 138.954C6.11338 138.544 6.23338 138.134 6.29338 137.694C6.39338 136.794 6.72338 135.884 7.03338 134.914C7.72338 133.014 8.99338 131.184 10.4634 129.704C11.9034 128.184 13.6334 127.124 14.9034 126.334C15.8934 125.774 16.8034 125.344 17.5834 124.954C18.4034 124.624 19.1134 124.334 19.7234 124.084C20.9534 123.604 21.8834 123.364 22.5434 123.134C26.7334 121.754 30.0234 120.404 33.0034 118.914L33.0234 118.904Z" fill="#101214"/>
<path d="M106.253 168.884C107.383 171.234 110.563 170.194 110.103 167.634C109.443 163.994 108.503 160.254 107.003 155.544C105.123 150.264 104.033 149.144 102.933 145.514C100.943 139.414 98.4834 128.824 97.9034 126.274C97.8134 125.894 97.7034 125.524 97.5734 125.164C96.6034 122.574 92.3734 111.204 89.3734 101.204C87.0834 94.1936 85.6734 89.8536 84.9334 87.5936C83.1734 82.2436 81.5434 78.3536 79.6634 74.6236C78.6334 72.5736 75.8634 73.4736 76.2334 75.7436C76.9034 79.8636 77.8834 83.9736 79.5934 89.3336C80.2634 91.4136 80.9134 95.9936 82.7634 102.154C83.0634 103.154 83.4434 104.134 83.8834 105.084C87.6934 113.274 91.0034 124.444 91.0034 124.444C91.0034 124.444 96.3634 140.974 98.6234 147.954C100.343 153.204 101.163 155.734 101.673 157.284C103.223 161.984 104.663 165.554 106.273 168.884H106.253Z" fill="#101214"/>
<path d="M96.2134 228.574C96.6034 229.994 99.9434 229.934 100.263 228.464C100.703 226.384 100.893 224.204 100.773 221.404C100.443 218.244 99.6834 217.504 99.6034 215.364C99.3434 211.764 99.6034 205.574 99.6134 204.074C99.6134 203.854 99.6134 203.634 99.5534 203.414C99.2434 201.864 97.8034 195.154 96.9234 189.314C96.1434 185.214 95.5734 182.694 95.2834 181.384C94.5634 178.284 93.6834 176.044 92.4734 173.954C91.8134 172.804 88.9934 173.544 88.9734 174.844C88.9434 177.224 89.1434 179.564 89.8034 182.604C90.0634 183.784 89.8234 186.414 90.3434 189.914C90.4234 190.484 90.5934 191.044 90.8134 191.584C91.7934 193.914 92.4534 196.704 92.8434 198.894C93.2334 201.094 93.3734 202.694 93.3734 202.694C93.3734 202.694 93.7034 205.074 94.0134 207.964C94.3434 210.854 94.6434 214.254 94.7834 216.274C95.0234 219.314 95.0934 220.784 95.1434 221.684C95.3134 224.414 95.6534 226.534 96.2034 228.554L96.2134 228.574Z" fill="#101214"/>
<path d="M158.193 41.7837C157.963 41.9437 157.793 42.1037 157.683 42.2837C157.573 42.4637 157.453 42.6837 157.433 42.8837C157.483 43.2437 157.313 43.7737 157.283 44.2237C157.253 44.6737 157.423 45.1537 158.143 45.3737C158.423 45.4837 158.623 45.5637 158.923 45.5937C159.063 45.6037 159.223 45.6037 159.373 45.5937C159.513 45.5837 159.653 45.5537 159.803 45.5137C163.133 44.5537 166.203 43.1837 170.083 41.1437C174.353 38.6537 175.083 37.4437 178.053 35.8937C182.983 33.1537 191.723 29.2837 193.833 28.3537C194.143 28.2137 194.443 28.0537 194.733 27.8737C196.783 26.5637 205.783 20.8537 213.853 16.5037C219.463 13.2737 222.933 11.2637 224.743 10.2237C229.013 7.73366 232.043 5.60366 234.863 3.25366C236.413 1.97366 234.983 -0.566339 233.073 0.113661C229.603 1.36366 226.233 2.91366 221.943 5.35366C220.273 6.30366 216.413 7.60366 211.453 10.2937C210.643 10.7337 209.873 11.2337 209.143 11.8037C202.863 16.6637 193.833 21.4537 193.833 21.4537C193.833 21.4537 180.573 28.9637 174.943 32.0637C170.713 34.3937 168.673 35.5137 167.423 36.2037C163.643 38.2537 160.773 40.1037 158.203 41.8037L158.193 41.7837Z" fill="#101214"/>
<path d="M172.923 90.6337C172.083 90.9937 171.983 91.9137 171.923 92.8337C171.923 93.0637 171.963 93.2937 172.043 93.5137C172.143 93.7237 172.303 93.9237 172.463 94.0837C172.803 94.4137 173.253 94.6137 173.743 94.5937C176.533 94.4937 179.253 94.0537 182.703 93.1637C186.553 91.9737 187.323 91.0337 189.973 90.3937C194.403 89.1837 202.103 87.9937 203.963 87.7037C204.233 87.6637 204.503 87.5937 204.763 87.5037C206.633 86.8537 214.833 84.0037 222.073 82.1937C227.133 80.7337 230.273 79.8337 231.903 79.3637C235.763 78.2337 238.563 77.0737 241.213 75.6537C241.573 75.4637 241.803 75.1437 241.903 74.7737C241.953 74.5937 241.973 74.3937 241.963 74.1937V74.1237C241.963 74.1237 241.943 74.1037 241.943 74.0937V74.0737L241.893 73.9137C241.833 73.6937 241.843 73.4637 241.763 73.2937C241.763 73.2337 241.693 73.1037 241.663 73.0237L241.613 72.8837L241.593 72.8237C241.633 72.9237 241.663 73.0237 241.693 73.1237C241.723 73.2237 241.763 73.3137 241.813 73.4037C241.833 73.4237 241.813 73.4537 241.873 73.4637C241.873 73.4637 241.893 73.4637 241.913 73.4237C241.953 73.3937 241.913 73.2637 241.873 73.2537C241.813 73.2237 241.813 73.2437 241.803 73.2337C241.793 73.2337 241.793 73.2337 241.793 73.2337V73.2137L241.763 73.1837C241.733 73.1437 241.703 73.0937 241.683 73.0537C241.583 72.8837 241.453 72.7237 241.313 72.5937C241.023 72.3337 240.663 72.1737 240.253 72.2037C237.233 72.4037 234.253 72.9037 230.383 73.9837C228.883 74.4137 225.533 74.5337 221.073 75.6637C220.343 75.8437 219.643 76.1037 218.963 76.4337C213.103 79.2337 205.013 81.2037 205.013 81.2037C205.013 81.2037 193.063 84.5237 188.013 85.9237C184.213 86.9637 182.393 87.4537 181.263 87.7637C177.873 88.6837 175.283 89.6437 172.923 90.6537V90.6337Z" fill="#101214"/>
<path d="M181.383 128.544C180.663 128.634 180.173 129.524 180.143 130.454C180.103 131.374 180.273 132.314 180.923 132.564C182.763 133.274 184.763 133.814 187.353 134.184C190.323 134.434 191.153 133.844 193.153 134.194C196.543 134.654 202.113 136.394 203.453 136.824C203.653 136.884 203.853 136.924 204.063 136.934C205.533 137.024 211.993 137.444 217.443 138.514C221.313 139.114 223.703 139.484 224.953 139.674C227.883 140.134 230.183 140.164 232.293 139.974C232.573 139.944 232.793 139.764 232.923 139.444C233.243 138.574 233.463 138.234 233.533 138.224C233.533 138.234 233.493 138.174 233.463 138.124C233.443 138.084 233.443 138.064 233.443 138.064C233.443 138.054 233.493 138.234 233.543 138.294C233.573 138.334 233.613 138.374 233.653 138.404C233.713 138.434 233.853 138.334 233.883 138.214C233.903 138.154 233.903 138.064 233.883 137.984C233.853 137.894 233.883 137.904 233.863 137.854C233.843 137.774 233.803 137.694 233.813 137.644C233.783 137.524 233.763 137.424 233.733 137.324C233.623 136.934 233.423 136.624 233.123 136.464C230.983 135.344 228.833 134.654 225.853 134.134C224.693 133.944 222.413 132.764 219.033 132.104C218.483 131.994 217.923 131.964 217.353 132.004C212.453 132.364 206.353 131.164 206.353 131.164C206.353 131.164 197.173 129.854 193.303 129.294C190.383 128.904 188.973 128.714 188.113 128.594C185.493 128.264 183.423 128.254 181.393 128.514L181.383 128.544Z" fill="#101214"/>
</svg>
