<svg width="179" height="177" viewBox="0 0 179 177" fill="none" xmlns="http://www.w3.org/2000/svg">
<path d="M1.93426 173.53C2.29426 177.88 5.64426 177.87 5.98426 173.52C6.46426 167.35 6.71426 160.88 6.71426 152.55C6.53426 143.12 5.83426 140.77 5.89426 134.38C5.86426 123.58 6.76426 105.36 6.99426 100.96C7.02426 100.31 7.03426 99.66 7.01426 99.01C6.88426 94.36 6.34426 73.96 6.58426 56.39C6.58426 43.98 6.58426 36.31 6.58426 32.3C6.58426 22.83 6.26426 15.75 5.71426 8.82999C5.43426 5.05999 2.52426 4.90998 2.10426 8.75998C1.37426 15.73 1.01426 22.81 0.964257 32.28C0.954257 35.96 0.144257 43.63 0.004257 54.46C-0.015743 56.22 0.034257 57.99 0.164257 59.74C1.25426 74.84 0.984257 94.44 0.984257 94.44C0.984257 94.44 1.02426 123.69 1.04426 136.04C1.07426 145.34 1.09426 149.81 1.09426 152.56C1.13426 160.88 1.42426 167.36 1.93426 173.52V173.53Z" fill="#101214"/>
<path d="M21.7342 111.16C9.61425 111.51 9.61425 114.86 21.7342 115.21C38.9242 115.71 56.9843 115.97 80.1943 115.99C106.504 115.83 113.054 115.14 130.884 115.22C136.394 115.24 142.584 115.27 149.184 115.3C156.184 115.37 163.604 115.44 171.134 115.51C171.744 115.49 172.344 115.42 172.814 115.26C173.324 115.12 173.694 114.96 174.104 114.71C174.914 114.22 175.634 113.32 175.934 112.31C176.084 111.81 176.154 111.29 176.114 110.8C176.084 110.3 175.984 109.91 175.814 109.45C175.724 109.22 175.654 109 175.504 108.75L175.314 108.39L175.054 108.02C174.704 107.53 174.254 107.05 173.854 106.57C171.854 104.19 169.874 101.84 167.934 99.54C164.354 95.27 160.934 91.19 157.814 87.48C151.594 80.04 146.614 74.07 144.124 71.09C142.964 69.7 141.784 68.32 140.584 66.96C138.544 64.64 134.764 60.35 129.774 54.67C129.694 54.55 129.664 54.37 129.704 54.2C129.724 54.12 129.754 54.04 129.814 53.97C129.834 53.95 129.834 53.94 129.844 53.93L130.114 53.67L130.704 53.1C132.284 51.56 133.954 49.94 135.684 48.26C139.154 44.9 142.894 41.27 146.834 37.44C154.734 29.81 163.454 21.4 172.394 12.77L174.184 11.05L175.754 9.54C176.254 9.03 176.874 8.54 177.224 8.01C177.434 7.74 177.574 7.49 177.704 7.24C177.864 6.98 177.924 6.76 178.014 6.52C178.114 6.27 178.164 6.09 178.214 5.85C178.264 5.61 178.294 5.35 178.304 5.08C178.354 4 177.944 2.76 177.224 1.9C176.874 1.46 176.454 1.12 176.054 0.88C175.854 0.75 175.624 0.66 175.414 0.55C175.194 0.44 174.894 0.36 174.644 0.27C174.054 0.12 173.374 0.03 172.624 0.06H170.424H165.264C158.994 0.04 152.744 0.02 146.624 0C112.024 0 90.6043 0.02 79.4143 0.02C52.9643 0.02 33.2242 0.37 13.8443 1C3.19425 1.35 3.19425 4.26 13.8443 4.61C33.2242 5.25 52.9642 5.59 79.3842 5.61C89.6542 5.61 111.034 6.41 141.234 6.55C146.154 6.57 151.074 6.52 155.944 6.39C158.574 6.33 161.254 6.27 163.964 6.2C165.324 6.17 166.684 6.14 168.054 6.12L169.084 6.1H169.344C169.464 6.1 169.394 6.1 169.434 6.1H169.504L169.814 6.05C169.924 6.05 170.044 6.01 170.164 6.05C170.274 6.09 170.364 6.19 170.384 6.3C170.414 6.42 170.344 6.51 170.264 6.59L170.034 6.86L169.904 7L169.874 7.04L169.714 7.2L169.344 7.57L167.864 9.03C166.874 10 165.884 10.97 164.904 11.94C157.014 19.67 149.284 27.18 142.474 33.76C135.594 40.38 129.664 46.08 125.464 50.13C124.674 51.01 124.194 52.08 123.974 53.11C123.764 54.15 123.824 55.16 124.054 56.06C124.284 56.96 124.704 57.74 125.184 58.36C125.544 58.78 125.864 59.16 126.154 59.5C127.184 60.7 127.734 61.34 127.734 61.34L151.414 88.69L163.254 102.37L168.934 108.93L169.334 109.39C169.474 109.53 169.614 109.71 169.574 109.92C169.554 110.12 169.404 110.31 169.204 110.36C169.004 110.4 168.804 110.37 168.594 110.38H126.264C100.344 110.38 87.8643 110.38 80.1943 110.39C56.9843 110.41 38.9242 110.68 21.7342 111.18V111.16Z" fill="#101214"/>
</svg>
