<svg width="203" height="158" viewBox="0 0 203 158" fill="none" xmlns="http://www.w3.org/2000/svg">
<path d="M191.112 4.15777C206.672 3.59777 206.632 0.247773 191.062 0.107773C168.982 -0.0822268 145.792 -0.0322267 115.982 0.347773C82.2024 0.967773 73.8024 1.77777 50.9024 2.01777C46.0724 2.06777 40.8224 2.12777 35.3024 2.18777C33.9224 2.19777 32.5224 2.20777 31.1124 2.22777C30.3924 2.23777 29.5824 2.29777 28.8224 2.33777C28.4324 2.35777 28.0424 2.37777 27.6624 2.40777L26.5024 2.59777C25.7324 2.74777 24.9324 2.80777 24.1724 3.04777C23.4124 3.26777 22.6424 3.48777 21.8724 3.70777C20.3924 4.28777 18.8724 4.84777 17.4824 5.67777C14.6524 7.21777 12.0324 9.20777 9.84239 11.5878C7.65239 13.9578 5.68239 16.5878 4.26239 19.4878C2.81239 22.3678 1.64239 25.3878 1.00239 28.5078L0.73239 29.6678C0.66239 30.0578 0.61239 30.4478 0.55239 30.8378C0.44239 31.6178 0.33239 32.4078 0.22239 33.1878C0.18239 33.9778 0.13239 34.7578 0.0923904 35.5378L0.0323904 36.7078V37.7978C-0.21761 43.7778 0.97239 50.1778 3.85239 55.3078C5.24239 57.9178 7.14239 60.1378 9.11239 62.0578C10.1524 62.9578 11.1624 63.8678 12.2824 64.5778C13.3424 65.3778 14.4824 65.9578 15.5824 66.5678C20.0424 68.8678 24.4824 69.7078 28.1224 70.0278C31.5524 70.2078 34.3524 70.3578 36.3624 70.4578C38.6824 70.5778 41.0124 70.6778 43.3424 70.7478C51.6724 71.0178 74.0924 71.7278 102.292 72.6278C116.392 73.1178 131.932 73.6678 147.882 74.2178C155.022 74.2178 162.152 77.6978 167.762 82.5478C170.572 84.9978 173.022 87.8478 174.912 90.9578C176.822 94.0678 178.122 97.4778 178.612 100.918C178.762 101.518 178.772 102.128 178.812 102.728C178.852 103.328 178.892 103.928 178.922 104.528C178.882 105.128 178.842 105.718 178.802 106.318C178.772 106.908 178.752 107.498 178.612 108.078C178.382 109.238 178.242 110.398 177.852 111.498C177.682 112.058 177.522 112.608 177.362 113.158C177.142 113.688 176.922 114.228 176.702 114.748C174.922 118.968 172.312 122.628 169.392 125.628C163.542 131.638 156.442 135.118 150.312 135.678C149.932 135.708 149.562 135.728 149.192 135.758L148.642 135.798H148.002C147.142 135.758 146.302 135.738 145.472 135.718C143.812 135.668 142.212 135.628 140.662 135.588C137.572 135.508 134.702 135.428 132.062 135.348C126.772 135.198 122.362 135.078 118.772 134.978C84.8724 134.068 59.5224 133.708 34.6324 133.648C20.9624 133.618 20.8724 136.528 34.5324 137.258C59.4024 138.588 84.7424 139.628 118.672 140.588C125.282 140.758 135.382 141.278 148.812 141.818C152.692 141.848 156.542 140.928 160.322 139.378C164.092 137.818 167.762 135.578 171.152 132.718C174.542 129.858 177.682 126.358 180.232 122.168C182.772 117.998 184.752 113.098 185.312 107.648L185.482 104.978C185.552 104.088 185.412 103.188 185.372 102.298L185.272 100.958C185.242 100.508 185.122 100.078 185.052 99.6378C184.882 98.7678 184.712 97.8878 184.522 97.0278C183.542 93.6278 182.142 90.4078 180.292 87.5178C178.272 84.4278 175.862 81.5478 173.102 79.0078C170.302 76.5078 167.202 74.3078 163.822 72.5178C160.442 70.7378 156.742 69.4378 152.872 68.7878L151.422 68.5478C150.932 68.4878 150.442 68.4878 149.962 68.4478C148.992 68.3978 147.972 68.3378 147.122 68.3278C145.342 68.2778 143.562 68.2278 141.792 68.1778C127.612 67.7178 113.782 67.2778 101.632 66.8878C77.3424 65.9678 59.8024 65.2978 59.8024 65.2978C59.8024 65.2978 53.2624 65.0478 42.7524 64.6578C40.1224 64.5578 37.2524 64.4478 34.1724 64.3378C31.0224 64.1778 27.9224 64.2578 24.8224 63.6378C21.7024 63.0478 18.5524 61.8878 15.7324 60.0378C12.9124 58.1978 10.4424 55.6478 8.67239 52.5578C6.89239 49.4778 5.83239 45.8678 5.49239 42.0978C5.45239 41.1478 5.40239 40.1978 5.36239 39.2378C5.36239 38.2578 5.33239 37.1478 5.37239 36.1978C5.43239 35.2378 5.43239 34.2678 5.52239 33.3078C5.66239 32.3578 5.76239 31.3978 5.92239 30.4478C7.28239 22.8678 11.5024 15.7878 17.4524 11.5578C20.4024 9.42777 23.7424 8.02777 27.1224 7.46777C27.5424 7.39777 27.9624 7.30777 28.3824 7.25777C28.8124 7.23777 29.2324 7.20777 29.6624 7.18777C30.0924 7.16777 30.5124 7.13777 30.9324 7.11777C31.4024 7.11777 31.8624 7.10777 32.3224 7.09777C34.1724 7.06777 35.9824 7.04777 37.7524 7.02777C44.8524 6.92777 51.3224 6.84777 56.8524 6.76777C90.1424 6.29777 106.172 6.07777 116.012 5.93777C145.822 5.50777 169.012 4.91777 191.082 4.12777L191.112 4.15777Z" fill="#101214"/>
<path d="M40.2824 157.748C41.8024 158.538 43.9224 155.948 42.8524 154.618C41.3324 152.728 39.5724 150.938 37.1124 148.888C34.2024 146.708 33.0624 146.668 31.2124 145.048C27.9924 142.418 23.1624 137.238 22.0024 135.988C21.9124 135.898 21.8224 135.808 21.7324 135.728L21.5924 135.608C21.5324 135.568 21.4924 135.528 21.5024 135.548C21.5024 135.548 21.4924 135.568 21.4724 135.568C21.4324 135.588 21.3524 135.608 21.2424 135.568C21.1324 135.508 21.1424 135.408 21.2324 135.298L21.2624 135.248C21.2624 135.248 21.2624 135.248 21.2924 135.218L21.5124 135.058C21.8024 134.838 22.1124 134.618 22.4124 134.388C23.0324 133.938 23.6624 133.488 24.3024 133.018C25.5924 132.098 26.9324 131.178 28.2524 130.318C32.1524 127.568 34.5724 125.858 35.8324 124.968C38.8024 122.848 40.8424 121.008 42.6624 118.948C43.6624 117.818 41.9924 115.438 40.5924 115.998C38.0324 117.018 35.6124 118.298 32.6124 120.378C31.4524 121.188 28.5724 122.228 25.0824 124.508C24.5124 124.878 23.9924 125.318 23.5124 125.808C22.4824 126.868 21.3124 127.918 20.1324 128.888C19.5424 129.378 18.9524 129.848 18.3824 130.298C18.2224 130.418 18.0624 130.548 17.9024 130.668C17.6524 130.848 17.4124 131.028 17.1624 131.208C16.6824 131.568 16.1924 131.898 15.7924 132.248C15.0224 132.988 14.6024 133.628 14.3824 134.448C14.1724 135.248 14.2524 136.018 14.4224 136.568C14.6024 137.128 14.8324 137.478 15.0124 137.748C15.1924 138.018 15.3124 138.158 15.3124 138.158C15.5024 138.388 15.7324 138.598 15.9724 138.818L28.6324 149.218C31.4024 151.478 32.7424 152.568 33.5624 153.238C36.0524 155.258 38.1524 156.628 40.3024 157.748H40.2824Z" fill="#101214"/>
</svg>
