<svg width="201" height="179" viewBox="0 0 201 179" fill="none" xmlns="http://www.w3.org/2000/svg">
<path d="M191.552 29.36C197.782 29.01 197.782 25.66 191.552 25.31C182.712 24.81 173.432 24.55 161.502 24.53C147.982 24.69 144.612 25.38 135.452 25.3C133.402 25.29 131.162 25.27 128.742 25.26C127.532 25.24 126.272 25.23 124.972 25.21C124.322 25.2 123.662 25.19 122.982 25.18C122.692 25.18 122.392 25.17 122.092 25.16L121.792 25.14C116.892 20.99 111.642 16.55 107.192 12.78C102.562 8.82 98.7719 5.57 97.0119 4.06C96.3019 3.45 95.5819 2.86 94.8419 2.29C94.6119 2.11 94.3719 1.91 92.7519 0.63C89.2819 0.63 80.0619 0.62 68.4919 0.61C57.4819 0.56 44.2319 0.42 31.9419 0.13C29.7219 0.1 27.6019 0.07 25.5919 0.04C24.5819 0.03 23.6019 0.01 22.6519 0H22.2319C22.0119 0 21.7919 0.01 21.5719 0.03C21.1319 0.08 20.7019 0.17 20.2919 0.3C19.4619 0.56 18.6919 0.98 18.0519 1.52C16.7519 2.59 15.9119 4.12 15.6919 5.72C15.6419 6.12 15.6119 6.51 15.6319 6.9V7.19L15.6619 7.37L15.6919 7.68C15.7319 8.09 15.7619 8.5 15.8019 8.9C15.9419 10.51 16.0819 12.02 16.2019 13.44C16.7119 19.11 17.0819 23.28 17.3319 26.15C18.5519 39.67 19.7919 49.75 21.3019 59.62C22.1319 65.04 25.0319 64.78 24.9019 59.3C24.6619 49.32 24.1019 39.18 22.9319 25.65C22.7019 23.02 22.5419 18.95 22.2919 13.61C22.2219 12.27 22.1519 10.86 22.0819 9.36C22.0419 8.61 22.0019 7.85 21.9619 7.06C21.9219 6.51 21.9619 6.67 21.9619 6.6C21.9819 6.57 22.0019 6.54 22.0319 6.52C22.0719 6.47 22.1619 6.44 22.2119 6.44C22.2319 6.44 22.2519 6.44 22.2919 6.46C22.6919 6.47 23.1019 6.49 23.5119 6.5C25.3119 6.55 27.1719 6.61 29.1119 6.66C31.6419 6.72 34.1719 6.7 36.6719 6.61C58.3219 5.84 86.4119 6.55 86.4119 6.55L90.6119 6.61L120.042 30.14H137.832C151.162 30.14 157.572 30.14 161.512 30.13C173.442 30.11 182.722 29.84 191.562 29.34L191.552 29.36Z" fill="#101214"/>
<path d="M195.952 170.12C196.342 173.66 199.692 173.62 200.002 170.08C200.442 165.05 200.652 159.77 200.602 152.99C200.362 145.3 199.642 143.4 199.672 138.19C199.572 129.39 200.342 114.53 200.542 110.95C200.572 110.42 200.572 109.89 200.542 109.36C200.372 105.57 199.692 88.95 199.772 74.63C199.652 64.52 199.582 58.26 199.542 54.99C199.432 47.27 199.032 41.51 198.332 35.85C197.952 32.74 195.042 32.77 194.722 35.89C194.142 41.56 193.872 47.33 193.922 55.05C193.952 58.05 193.222 64.31 193.172 73.13C193.172 74.57 193.232 76 193.382 77.43C194.602 89.72 194.472 105.69 194.472 105.69C194.472 105.69 194.722 129.52 194.822 139.58C194.912 147.15 194.952 150.8 194.982 153.04C195.082 159.82 195.402 165.1 195.952 170.11V170.12Z" fill="#101214"/>
<path d="M169.272 178.14C182.932 177.97 182.972 174.62 169.322 174.09C149.972 173.34 129.632 172.81 103.482 172.45C73.8419 172.22 66.4619 172.82 46.3819 172.48C42.1419 172.41 37.5319 172.34 32.7019 172.26C31.4919 172.24 30.2719 172.21 29.0319 172.19C28.4119 172.18 27.7919 172.17 27.1719 172.15L26.2919 172.13C26.1719 172.13 26.0519 172.1 25.9319 172.07C25.4719 171.93 25.0819 171.54 24.9619 171.08C24.7219 169.9 24.4819 168.71 24.2419 167.52C22.2319 157.36 20.1419 146.8 18.1719 136.86C14.3119 116.95 10.9319 99.52 9.6219 92.75C9.2419 90.75 8.8319 88.75 8.3919 86.75C8.0019 84.97 7.4519 82.42 6.7519 79.24C6.5119 78.12 6.2419 76.89 5.9519 75.56C5.9519 75.53 5.9719 75.49 6.0019 75.47C6.0219 75.46 6.0319 75.45 6.0619 75.45C6.6019 75.45 7.1519 75.45 7.7119 75.44C16.6419 75.39 27.7419 75.33 40.1219 75.25C64.8719 75.14 94.6919 75.07 122.282 75.19C141.772 75.19 157.542 75.19 170.022 75.18C171.352 75.18 172.632 75.18 173.872 75.18C174.042 75.2 174.182 75.36 174.192 75.52C174.562 78.16 174.912 80.61 175.232 82.87C175.882 87.47 176.422 91.3 176.872 94.42C181.062 123.88 184.522 145.85 188.202 167.38C190.232 179.2 193.112 178.8 191.772 166.87C189.342 145.17 186.572 123.1 182.422 93.63C182.022 90.77 181.552 87.12 181.012 82.74C180.742 80.55 180.452 78.17 180.142 75.62C180.102 75.28 180.062 74.94 180.022 74.6C179.952 74.01 179.822 73.43 179.602 72.87C179.152 71.76 178.362 70.78 177.312 70.12C176.292 69.44 174.952 69.14 173.732 69.18C173.022 69.17 172.302 69.15 171.572 69.14C159.852 68.92 145.322 68.69 128.322 68.62C122.782 68.6 117.242 68.65 111.752 68.78C88.0419 69.32 60.7919 69.52 39.4719 69.58C28.8119 69.58 19.6319 69.59 13.1219 69.59C11.4919 69.59 10.0319 69.59 8.7519 69.59C8.1119 69.59 7.5219 69.59 6.9819 69.59C6.7119 69.59 6.4519 69.59 6.2019 69.59C6.1119 69.59 5.8719 69.59 5.6719 69.6C5.4719 69.61 5.2719 69.62 5.0819 69.65C3.5519 69.88 2.5419 70.6 1.9619 71.12C1.3719 71.66 1.1519 72.01 1.1519 72.01C1.1519 72.01 1.0519 72.13 0.8919 72.39C0.7319 72.65 0.5119 73.04 0.3219 73.59C0.1219 74.14 -0.0180998 74.87 0.00190016 75.73C0.00190016 75.95 0.0319002 76.17 0.0619002 76.4C0.0919002 76.62 0.1419 76.91 0.1719 77C0.2319 77.28 0.2919 77.58 0.3619 77.9C0.8919 80.43 1.6619 84.09 2.6019 88.61C4.4919 97.63 7.0919 110.06 9.9419 123.67C12.7919 137.28 15.8919 152.08 18.7719 165.85C19.1319 167.57 19.4919 169.28 19.8419 170.96L19.9719 171.59C20.0219 171.81 20.0419 171.95 20.1419 172.36C20.3219 173.04 20.6219 173.7 21.0219 174.29C21.8119 175.46 22.9819 176.35 24.3119 176.79C24.9519 177.01 25.7019 177.12 26.3219 177.12C26.7419 177.12 27.1519 177.13 27.5619 177.14C28.3819 177.15 29.2019 177.16 30.0119 177.17C31.6319 177.19 33.2219 177.21 34.7819 177.23C41.0019 177.31 46.6819 177.39 51.5319 177.45C80.7319 177.82 94.7819 178 103.412 178.11C129.552 178.43 149.902 178.42 169.272 178.18V178.14Z" fill="#101214"/>
</svg>
