<svg width="237" height="235" viewBox="0 0 237 235" fill="none" xmlns="http://www.w3.org/2000/svg">
<path d="M164.44 100.536C163.44 98.9962 162.38 98.0462 161.53 97.5962C160.66 97.1462 160.04 97.1362 159.7 97.4462C159 98.1262 159.52 99.8162 160.93 102.566C162.92 106.536 164.02 111.146 164.27 116.166C164.39 121.146 163.77 126.656 161.56 132.326C161.24 133.126 161.03 133.926 160.66 134.626C160.32 135.336 159.99 136.016 159.68 136.656C159.53 136.986 159.38 137.296 159.23 137.606C159.07 137.906 158.88 138.186 158.72 138.476C158.38 139.046 158.06 139.586 157.75 140.106C157.18 141.186 156.45 142.036 155.86 142.906C155.56 143.336 155.26 143.756 154.97 144.156C154.66 144.546 154.33 144.896 154.02 145.266C153.39 145.986 152.81 146.696 152.18 147.366C151.51 147.996 150.84 148.616 150.15 149.266C149.48 149.936 148.68 150.506 147.84 151.116C146.99 151.716 146.13 152.416 145.06 152.966C141.65 155.136 137.18 156.946 132.37 157.976C127.55 159.016 122.38 159.196 117.62 158.626C112.85 158.016 108.59 156.546 105.24 155.066C103.61 154.226 102.11 153.576 100.98 152.776C99.83 152.026 98.84 151.506 98.23 150.966C97.48 150.386 96.72 149.826 95.93 149.296C95.24 148.806 94.35 147.996 93.18 147.036C92.57 146.576 92.03 145.946 91.39 145.306C91.07 144.986 90.74 144.646 90.4 144.306C90.23 144.136 90.06 143.956 89.88 143.776C89.72 143.576 89.56 143.386 89.4 143.176C86.68 140.076 83.8 135.656 82.02 130.186C80.23 124.736 79.62 118.246 80.75 111.816C81.78 105.366 84.86 99.1862 88.95 94.2262C89.61 93.2962 90.42 92.5262 91.16 91.7362C91.53 91.3462 91.9 90.9562 92.27 90.5662C92.64 90.1962 93.06 89.8662 93.44 89.5262C94.23 88.8662 94.95 88.1562 95.74 87.5762C96.54 87.0062 97.31 86.4562 98.07 85.9062C98.44 85.6262 98.83 85.3762 99.23 85.1662C99.62 84.9362 100.01 84.7162 100.39 84.4962C100.77 84.2762 101.14 84.0562 101.51 83.8462C101.87 83.6162 102.24 83.4262 102.63 83.2662C103.38 82.9162 104.11 82.5862 104.82 82.2562C105.18 82.0962 105.52 81.9162 105.87 81.7862C106.23 81.6662 106.58 81.5362 106.92 81.4162C112.42 79.4162 116.77 78.8862 119.71 78.7762C123.2 78.4762 126.49 78.7562 129.56 79.2062C132.63 79.6862 135.5 80.4262 138.16 81.3762C143.49 83.3062 148.07 85.9762 152.14 89.2762C153.24 90.2062 154.18 90.7962 154.9 91.1162C155.64 91.4262 156.2 91.4362 156.5 91.1662C156.81 90.8962 156.86 90.3562 156.58 89.5662C156.31 88.7662 155.67 87.7662 154.6 86.6262C150.64 82.5562 145.84 79.1262 140.01 76.6462C137.09 75.4162 133.91 74.4462 130.47 73.8162C127.03 73.2162 123.33 72.8562 119.4 73.1562C118.64 73.2162 117.76 73.1762 116.8 73.2962C115.83 73.4062 114.77 73.5362 113.6 73.6662C112.42 73.7462 111.19 74.0862 109.84 74.3462C109.17 74.4962 108.47 74.6162 107.76 74.7962C107.06 75.0162 106.33 75.2362 105.58 75.4662C104.83 75.7062 104.05 75.9262 103.27 76.2062C102.5 76.5262 101.71 76.8562 100.9 77.2062C99.25 77.8262 97.65 78.7662 95.94 79.7062C95.07 80.1462 94.27 80.7462 93.42 81.3062C92.59 81.8962 91.69 82.4262 90.88 83.1162C90.07 83.8062 89.23 84.5062 88.39 85.2162C87.95 85.5662 87.56 85.9562 87.17 86.3662C86.78 86.7762 86.38 87.1862 85.98 87.5962C85.47 88.1462 84.92 88.6562 84.45 89.2562L83.08 91.0462C82.64 91.6562 82.16 92.2262 81.77 92.8662L80.63 94.7962C77.43 100.366 75.2 107.006 74.58 113.646C73.91 120.296 74.88 126.836 76.68 132.226C78.48 137.646 81.13 141.806 83.1 144.636C84.17 145.996 84.99 147.106 85.61 147.816C86.25 148.506 86.6 148.876 86.6 148.876C86.6 148.876 87.13 149.426 88.08 150.426C88.53 150.946 89.21 151.456 89.93 152.106C90.3 152.426 90.69 152.766 91.11 153.126C91.52 153.496 91.96 153.876 92.47 154.216C96.31 157.236 102.28 160.646 109.44 162.476C116.56 164.356 124.74 164.676 132.05 163.156C139.38 161.656 145.66 158.506 149.88 155.576C156.25 151.126 159.91 146.526 162.34 142.906C162.93 141.976 163.47 141.126 163.97 140.336C164.39 139.496 164.78 138.736 165.14 138.016C165.48 137.296 165.86 136.666 166.1 136.036C166.34 135.406 166.57 134.826 166.77 134.286C169.28 127.756 169.84 121.456 169.41 115.736C168.84 110.046 167.2 104.876 164.4 100.486L164.44 100.536Z" fill="#101214"/>
<path d="M185.18 216.806C187.2 215.686 188.87 214.526 190.28 213.526C191.71 212.546 192.81 211.606 193.66 210.806C195.37 209.226 196.05 208.206 195.78 207.826C195.51 207.446 194.3 207.706 192.23 208.646C191.2 209.126 189.94 209.776 188.43 210.516C186.92 211.276 185.22 212.246 183.22 213.256C172.01 219.196 159.66 223.716 145.83 226.336C132.02 228.916 116.62 229.696 99.83 226.726C95.06 225.956 90.83 224.856 86.96 223.836C85.05 223.236 83.21 222.706 81.47 222.126C79.75 221.496 78.08 220.946 76.52 220.336C70.23 217.916 65.19 215.336 60.64 212.726C58.34 211.456 56.24 210.036 54.12 208.666C53.07 207.966 52.07 207.196 51.03 206.466C50.52 206.096 50 205.716 49.48 205.336C48.97 204.946 48.48 204.536 47.97 204.126C43.87 200.926 39.83 197.136 35.45 192.236C34.54 191.186 33.54 190.176 32.66 189.026C31.75 187.896 30.83 186.756 29.89 185.586C28.11 183.176 26.23 180.716 24.54 178.026C21.07 172.726 17.83 166.896 15.13 160.686C9.7 148.266 6.4 134.386 5.64 121.196C5.26 114.606 5.39 108.186 6.09 102.206C6.77 96.2261 7.87 90.6961 9.15 85.7761C11.82 75.9461 15.25 68.6961 17.25 64.7261L19.1 61.2261C19.72 60.0661 20.42 58.9461 21.07 57.7861C23.46 53.7461 28.11 46.2561 36.14 37.9261C44.13 29.6261 55.7 20.5961 70.51 14.3161C77.88 11.1461 86.03 8.73614 94.63 7.31614C95.71 7.14614 96.78 6.94614 97.87 6.79614C98.96 6.67614 100.05 6.54614 101.15 6.41614L102.8 6.22614L104.46 6.11614C105.57 6.04614 106.68 5.96614 107.8 5.89614C108.92 5.83614 110.04 5.84614 111.16 5.81614C112.28 5.81614 113.41 5.73614 114.54 5.80614C116.8 5.88614 119.07 5.89614 121.33 6.12614C125.88 6.40614 130.41 7.13614 134.92 7.95614C139.41 8.91614 143.89 9.99614 148.25 11.4761C152.64 12.8461 156.88 14.6261 161.04 16.4861C163.08 17.4961 165.14 18.4661 167.13 19.5461C169.1 20.6661 171.11 21.6961 172.99 22.9261C174.33 23.7761 175.7 24.5361 176.96 25.4361C178.24 26.3161 179.5 27.1761 180.74 28.0261C183.14 29.8561 185.53 31.5961 187.69 33.4861C189.93 35.2861 191.93 37.2561 193.95 39.0861C194.91 40.0561 195.86 41.0161 196.79 41.9561C197.26 42.4261 197.72 42.8961 198.18 43.3661C198.62 43.8561 199.05 44.3361 199.49 44.8161C206.43 52.4861 211.71 60.0861 215.63 67.1961C219.58 74.2961 222.29 80.8261 224.27 86.5361C226.18 92.2661 227.4 97.1661 228.22 101.176C230.16 110.666 230.75 119.766 230.52 128.356C230.22 136.956 228.98 145.036 227.06 152.616C223.19 167.766 216.62 180.886 207.95 192.246C205.53 195.336 203.77 197.716 202.62 199.346C201.5 201.006 201.1 202.016 201.39 202.306C201.68 202.596 202.65 202.156 204.28 200.916C205.94 199.706 208.13 197.586 210.77 194.496C220.24 183.156 227.58 169.686 231.96 153.916C234.13 146.036 235.57 137.576 235.97 128.566C236.31 119.566 235.74 110.006 233.72 100.056C233.28 98.1361 232.9 95.9261 232.23 93.5161C231.91 92.3061 231.61 91.0261 231.24 89.6961C230.84 88.3761 230.42 86.9961 229.98 85.5561C228.13 79.8261 225.59 73.2261 221.89 66.1061C218.2 58.9961 213.36 51.3661 207.04 43.7361C203.81 39.9861 200.35 36.1261 196.37 32.4761C192.46 28.7461 188.07 25.2161 183.32 21.8161C177.12 17.4161 170.46 13.6361 163.56 10.6061C156.11 7.33614 148.07 4.67614 139.75 2.85614C131.45 1.06614 122.85 0.0861437 114.35 0.0061437C97.32 -0.173856 80.81 3.61614 67.48 9.43614C60.8 12.3361 54.85 15.6361 49.81 19.0161C48.54 19.8361 47.37 20.7361 46.2 21.5561C45.62 21.9661 45.05 22.3761 44.49 22.7761C43.95 23.2061 43.42 23.6261 42.9 24.0361C41.86 24.8661 40.86 25.6561 39.91 26.4161C38.99 27.2261 38.12 27.9961 37.29 28.7361C35.6 30.1761 34.19 31.5961 32.95 32.8261C32.33 33.4361 31.75 34.0061 31.22 34.5261C30.72 35.0761 30.26 35.5761 29.85 36.0161C28.21 37.8061 27.32 38.7761 27.32 38.7761C27.32 38.7761 27 39.1461 26.41 39.8761C25.82 40.5961 24.95 41.6661 23.83 43.0261C22.74 44.4261 21.48 46.1761 20.01 48.2061C18.65 50.3161 17 52.6461 15.47 55.3961C12.29 60.8261 8.98 67.5861 6.29 75.4261C3.61 83.2561 1.49 92.1561 0.58 101.606C0.4 103.976 0.14 106.356 0.11 108.776C0.08 109.986 0.01 111.196 0 112.416C0.02 113.636 0.03 114.856 0.05 116.086L0.08 117.926L0.19 119.766C0.27 120.996 0.34 122.226 0.42 123.456C0.55 124.686 0.69 125.916 0.82 127.146L1.02 128.996L1.3 130.836L1.88 134.516C2.1 135.736 2.37 136.946 2.62 138.166C3.07 140.606 3.76 142.986 4.35 145.376C4.65 146.566 5.05 147.736 5.4 148.906C5.78 150.076 6.08 151.256 6.52 152.396C7.36 154.686 8.11 156.986 9.08 159.186C12.71 168.066 17.22 176.176 22.06 183.146C26.89 190.126 32.01 195.956 36.71 200.616C37.57 201.526 38.48 202.346 39.37 203.156C40.26 203.966 41.14 204.776 42 205.556C43.81 207.026 45.5 208.536 47.26 209.826C49.02 211.116 50.67 212.436 52.39 213.536C54.08 214.676 55.7 215.786 57.35 216.736C63.84 220.686 69.76 223.436 74.97 225.546C85.47 229.596 93.09 231.216 98.87 232.256C116.45 235.336 132.54 234.366 146.85 231.426C161.19 228.436 173.87 223.376 185.19 216.796L185.18 216.806Z" fill="#101214"/>
<path d="M164.72 186.966C166.12 186.176 167.26 185.346 168.22 184.616C169.19 183.896 169.93 183.206 170.49 182.606C171.61 181.416 172 180.596 171.73 180.216C171.46 179.836 170.55 179.896 169.06 180.446C168.32 180.726 167.43 181.126 166.37 181.606C165.32 182.096 164.13 182.736 162.76 183.416C155.03 187.426 146.56 190.456 137.09 192.206C127.64 193.926 117.11 194.436 105.64 192.406C99.14 191.306 94 189.726 89.7 188.096C85.39 186.476 81.93 184.736 78.81 182.976C75.67 181.226 72.9101 179.346 70.1101 177.156C67.2901 174.976 64.52 172.396 61.53 169.026C56.41 163.396 51.35 155.906 47.64 147.396C43.95 138.886 41.73 129.376 41.25 120.356C41.01 115.846 41.12 111.466 41.62 107.386C42.1 103.306 42.87 99.5362 43.77 96.1862C45.63 89.4962 48 84.5662 49.38 81.8762L50.65 79.4962C51.07 78.7062 51.55 77.9462 51.99 77.1562C53.61 74.3962 56.76 69.2961 62.21 63.6061C67.64 57.9361 75.51 51.7662 85.6 47.4662C90.62 45.2962 96.18 43.6462 102.04 42.6662C107.9 41.6762 114.07 41.3462 120.26 41.8462C123.36 42.0362 126.46 42.5362 129.54 43.0962C132.61 43.7562 135.67 44.4862 138.64 45.4962C141.64 46.4362 144.53 47.6561 147.37 48.9261C150.18 50.2761 152.93 51.7062 155.53 53.3362C157.4 54.4362 159.12 55.6562 160.83 56.8262C162.47 58.0762 164.1 59.2662 165.58 60.5562C167.11 61.7862 168.48 63.1261 169.86 64.3861C170.52 65.0461 171.16 65.7061 171.8 66.3461C172.44 66.9861 173.06 67.6362 173.64 68.3062C178.38 73.5462 181.99 78.7361 184.67 83.5961C187.37 88.4461 189.22 92.9062 190.58 96.8062C191.88 100.726 192.72 104.066 193.28 106.806C194.6 113.286 195.02 119.496 194.87 125.366C194.68 131.236 193.85 136.756 192.57 141.946C189.98 152.306 185.56 161.306 179.7 169.156C178.06 171.286 176.92 172.976 176.2 174.166C175.5 175.376 175.32 176.166 175.61 176.456C175.9 176.746 176.66 176.536 177.86 175.746C179.08 174.976 180.66 173.556 182.52 171.426C189.18 163.606 194.37 154.246 197.47 143.266C199.01 137.776 200.03 131.886 200.33 125.596C200.58 119.316 200.19 112.646 198.79 105.706C197.68 100.346 195.75 91.9762 190.66 81.9662C188.11 76.9862 184.76 71.6361 180.37 66.2861C175.93 60.9962 170.5 55.6362 163.83 50.9162C159.49 47.8262 154.82 45.2062 149.98 43.1162C139.54 38.5862 127.43 35.8961 115.55 35.8561C103.66 35.7661 92.15 38.4362 82.84 42.4962C78.18 44.5262 74.03 46.8261 70.51 49.1961C69.62 49.7761 68.8 50.3962 67.99 50.9662C67.59 51.2562 67.19 51.5362 66.8 51.8162C66.42 52.1162 66.05 52.4061 65.69 52.6961C64.97 53.2761 64.27 53.8261 63.6 54.3561C62.96 54.9161 62.35 55.4662 61.77 55.9762C60.59 56.9862 59.61 57.9762 58.74 58.8262C58.31 59.2562 57.9 59.6461 57.53 60.0161C57.18 60.3961 56.86 60.7462 56.57 61.0562C55.42 62.3062 54.8 62.9762 54.8 62.9762C54.8 62.9762 53.93 64.0362 52.36 65.9462C51.6 66.9162 50.72 68.1462 49.69 69.5662C48.74 71.0362 47.59 72.6662 46.52 74.5862C44.3 78.3762 41.99 83.0962 40.11 88.5662C38.24 94.0362 36.76 100.236 36.12 106.836C35.51 113.426 35.57 120.386 36.63 127.226C37.65 134.076 39.49 140.816 42.05 146.996C44.58 153.186 47.73 158.846 51.1 163.706C54.47 168.576 58.03 172.636 61.32 175.886C66.25 180.816 71.2201 184.366 75.7201 187.146C80.2501 189.906 84.38 191.826 88.01 193.296C95.34 196.116 100.65 197.246 104.68 197.976C116.94 200.126 128.15 199.426 138.11 197.336C148.09 195.216 156.89 191.636 164.73 186.996L164.72 186.966Z" fill="#101214"/>
</svg>
