<svg width="229" height="243" viewBox="0 0 229 243" fill="none" xmlns="http://www.w3.org/2000/svg">
<path d="M27.8796 214.19C35.1596 213.79 35.1396 210.45 27.8496 210.14C25.7796 210.06 23.6896 209.99 21.5396 209.91C20.4496 209.88 19.3396 209.85 18.2096 209.82C16.2196 209.8 14.1896 209.78 12.1096 209.76C12.0396 213.89 11.9696 218.25 11.8996 222.9C11.8496 226.57 11.8196 230.47 11.8096 234.65C11.8196 236.22 11.8296 237.72 11.8396 238.94C11.8596 240.27 11.8796 241.29 11.8796 241.74C13.3696 241.72 14.7896 241.71 16.1596 241.69C17.2396 241.67 18.2796 241.65 19.2896 241.64C20.6396 241.6 21.8896 241.56 23.0596 241.52C25.3896 241.43 27.4096 241.35 29.3096 241.28C33.1296 241.13 36.5296 241.01 41.2496 241.04C59.3496 241.04 89.8796 241.97 97.2296 242.2C98.3196 242.23 99.4096 242.24 100.5 242.23C108.29 242.1 142.48 241.6 171.91 241.84C192.71 241.84 205.58 241.82 212.3 241.82C215.03 241.82 217.71 241.81 219.63 241.81C219.32 239.24 219.01 236.73 218.71 234.28C218.54 232.94 218.37 231.63 218.2 230.35C217.85 227.79 217.52 225.34 217.19 222.98C216.84 220.62 216.51 218.35 216.19 216.15C216.02 215.05 215.85 213.96 215.68 212.89C215.42 211.11 215.17 209.34 214.92 207.6C213.03 207.66 211.23 207.72 209.46 207.78C208.39 207.84 207.34 207.9 206.29 207.96C199.9 208.35 199.91 211.26 206.31 211.57C207.36 211.62 208.41 211.67 209.48 211.72H209.68L209.78 211.74L209.98 211.76L210.38 211.8C210.63 211.82 210.88 211.85 211.14 211.87C211.15 212.38 211.17 212.9 211.18 213.43C211.27 214.51 211.35 215.6 211.44 216.72C211.64 218.94 211.84 221.22 212.05 223.6C212.44 227.48 212.86 231.64 213.32 236.25C213.04 236.25 212.64 236.25 212.24 236.23C206.1 236.23 193.23 235.43 175.1 235.29C172.15 235.27 169.19 235.32 166.26 235.45C140.97 236.54 108.13 236.23 108.13 236.23C108.13 236.23 59.1296 236.22 38.4496 236.21H17.4096V234.69C17.4096 230.51 17.3696 226.61 17.3196 222.94C17.2896 221.1 17.2596 219.32 17.2296 217.6C17.2296 217.17 17.2096 216.74 17.1996 216.31V216.02L17.1896 215.91L17.1696 215.69C17.1496 215.38 17.1296 215.08 17.0996 214.78C17.5096 214.74 17.9196 214.71 18.3096 214.67C19.4096 214.62 20.4796 214.58 21.5396 214.53C23.6896 214.42 25.7796 214.32 27.8496 214.22L27.8796 214.19Z" fill="#101214"/>
<path d="M16.9996 78.02C4.5696 78.37 4.5696 81.72 16.9996 82.07C34.6296 82.57 53.1496 82.83 76.9496 82.85C103.93 82.69 110.65 82 128.93 82.08C144.38 82.08 165.13 82.31 183.59 82.57C192.82 82.71 201.48 82.85 208.61 82.96C210.5 82.99 212.29 83.02 213.97 83.05C217.06 83.08 219.94 83.1 222.57 83.13C223.24 83.13 223.89 83.14 224.52 83.15C224.97 83.07 225.35 82.95 225.75 82.85C226.76 82.68 226.73 82.38 227.01 82.17C227.47 81.72 227.85 81.32 228.17 80.98C228.2 80.92 228.29 80.91 228.28 80.8C228.27 80.66 228.23 80.6 228.21 80.52L228.04 80.05L227.7 79.11C227.47 78.48 227.24 77.85 226.99 77.22C226.93 77.08 226.88 76.93 226.81 76.78C226.48 76.55 226.03 76.27 225.62 76C224.78 75.45 223.86 74.86 222.88 74.23C221.05 73.05 218.97 71.7 216.66 70.21C214.16 68.61 211.16 66.68 207.74 64.49C200.91 60.09 192.41 54.61 182.94 48.51C164.01 36.28 141.25 21.49 120.28 7.65L108.56 0L60.1796 33.96C38.0196 49.54 21.6396 61.45 5.7396 73.39C-3.0004 79.95 -1.3204 82.33 7.8096 76.35C24.4396 65.46 41.2096 54.11 63.4096 38.57C67.3696 35.79 73.3896 31.77 81.3196 26.46C85.2796 23.79 89.7096 20.8 94.5996 17.5C98.8896 14.57 103.59 11.37 108.69 7.9V7.92L108.71 7.93C108.71 7.93 108.69 7.93 108.73 7.95C108.84 8.02 108.96 8.1 109.07 8.18C109.99 8.79 111.03 9.48 112.08 10.17C116.29 12.95 120.55 15.66 124.8 18.29C161.54 40.99 208.31 71.9 208.31 71.9C208.31 71.9 211.04 73.69 215.43 76.56C215.67 76.72 215.92 76.88 216.18 77.05L216.38 77.18C216.38 77.18 216.46 77.22 216.46 77.24C216.43 77.27 216.38 77.25 216.34 77.26C216.18 77.26 216.01 77.26 215.85 77.26C215.18 77.26 214.47 77.26 213.72 77.26C208.53 77.26 202.84 77.26 196.9 77.26C171.58 77.26 141.84 77.26 124.18 77.26C97.5896 77.26 84.7996 77.27 76.9396 77.28C53.1296 77.3 34.6096 77.57 16.9896 78.07L16.9996 78.02Z" fill="#101214"/>
<path d="M37.4796 217.43C37.8296 220.88 41.1796 220.88 41.5296 217.43C42.0296 212.54 42.2896 207.41 42.3096 200.81C42.1496 193.33 41.4596 191.47 41.5396 186.4C41.5396 177.84 42.4696 163.39 42.6996 159.91C42.7296 159.4 42.7396 158.88 42.7296 158.36C42.5996 154.67 42.0996 138.5 42.3396 124.57C42.3396 114.73 42.3196 108.65 42.3196 105.47C42.2896 97.96 41.9496 92.35 41.3196 86.84C40.9696 83.81 38.0596 83.81 37.7096 86.84C37.0696 92.35 36.7296 97.96 36.7096 105.47C36.7096 108.39 35.9096 114.47 35.7696 123.05C35.7496 124.45 35.7996 125.85 35.9296 127.23C37.0196 139.2 36.7096 154.73 36.7096 154.73C36.7096 154.73 36.6996 177.91 36.6896 187.7C36.6896 195.07 36.6996 198.61 36.7096 200.79C36.7296 207.39 36.9996 212.52 37.4996 217.41L37.4796 217.43Z" fill="#101214"/>
<path d="M68.0596 87.16C67.7096 83.71 64.3596 83.71 64.0096 87.16C63.5096 92.05 63.2496 97.18 63.2296 103.78C63.3896 111.26 64.0796 113.12 63.9996 118.19C63.9996 126.75 63.0696 141.2 62.8396 144.68C62.8096 145.19 62.7996 145.71 62.8096 146.23C62.9396 149.92 63.4396 166.09 63.1996 180.02C63.1996 189.86 63.2196 195.94 63.2196 199.12C63.2496 206.63 63.5896 212.24 64.2196 217.75C64.5696 220.78 67.4796 220.78 67.8296 217.75C68.4696 212.24 68.8096 206.63 68.8296 199.12C68.8296 196.2 69.6296 190.12 69.7696 181.54C69.7896 180.14 69.7396 178.74 69.6096 177.36C68.5196 165.39 68.8296 149.86 68.8296 149.86C68.8296 149.86 68.8396 126.68 68.8496 116.89C68.8496 109.52 68.8396 105.98 68.8296 103.8C68.8096 97.2 68.5396 92.07 68.0396 87.18L68.0596 87.16Z" fill="#101214"/>
<path d="M101.86 217.43C102.21 220.88 105.56 220.88 105.91 217.43C106.41 212.54 106.67 207.41 106.69 200.81C106.53 193.33 105.84 191.47 105.92 186.4C105.92 177.84 106.85 163.39 107.08 159.91C107.11 159.4 107.12 158.88 107.11 158.36C106.98 154.67 106.48 138.5 106.72 124.57C106.72 114.73 106.7 108.65 106.7 105.47C106.67 97.96 106.33 92.35 105.7 86.84C105.35 83.81 102.44 83.81 102.09 86.84C101.45 92.35 101.11 97.96 101.09 105.47C101.09 108.39 100.29 114.47 100.15 123.05C100.13 124.45 100.18 125.85 100.31 127.23C101.4 139.2 101.09 154.73 101.09 154.73C101.09 154.73 101.08 177.91 101.07 187.7C101.07 195.07 101.08 198.61 101.09 200.79C101.11 207.39 101.38 212.52 101.88 217.41L101.86 217.43Z" fill="#101214"/>
<path d="M132.44 87.16C132.09 83.71 128.74 83.71 128.39 87.16C127.89 92.05 127.63 97.18 127.61 103.78C127.77 111.26 128.46 113.12 128.38 118.19C128.38 126.75 127.45 141.2 127.22 144.68C127.19 145.19 127.18 145.71 127.19 146.23C127.32 149.92 127.82 166.09 127.58 180.02C127.58 189.86 127.6 195.94 127.6 199.12C127.63 206.63 127.97 212.24 128.6 217.75C128.95 220.78 131.86 220.78 132.21 217.75C132.85 212.24 133.19 206.63 133.21 199.12C133.21 196.2 134.01 190.12 134.15 181.54C134.17 180.14 134.12 178.74 133.99 177.36C132.9 165.39 133.21 149.86 133.21 149.86C133.21 149.86 133.22 126.68 133.23 116.89C133.23 109.52 133.22 105.98 133.21 103.8C133.19 97.2 132.92 92.07 132.42 87.18L132.44 87.16Z" fill="#101214"/>
<path d="M166.25 217.43C166.6 220.88 169.95 220.88 170.3 217.43C170.8 212.54 171.06 207.41 171.08 200.81C170.92 193.33 170.23 191.47 170.31 186.4C170.31 177.84 171.24 163.39 171.47 159.91C171.5 159.4 171.51 158.88 171.5 158.36C171.37 154.67 170.87 138.5 171.11 124.57C171.11 114.73 171.09 108.65 171.09 105.47C171.06 97.96 170.72 92.35 170.09 86.84C169.74 83.81 166.83 83.81 166.48 86.84C165.84 92.35 165.5 97.96 165.48 105.47C165.48 108.39 164.68 114.47 164.54 123.05C164.52 124.45 164.57 125.85 164.7 127.23C165.79 139.2 165.48 154.73 165.48 154.73C165.48 154.73 165.47 177.91 165.46 187.7C165.46 195.07 165.47 198.61 165.48 200.79C165.5 207.39 165.77 212.52 166.27 217.41L166.25 217.43Z" fill="#101214"/>
<path d="M196.82 87.16C196.47 83.71 193.12 83.71 192.77 87.16C192.27 92.05 192.01 97.18 191.99 103.78C192.15 111.26 192.84 113.12 192.76 118.19C192.76 126.75 191.83 141.2 191.6 144.68C191.57 145.19 191.56 145.71 191.57 146.23C191.7 149.92 192.2 166.09 191.96 180.02C191.96 189.86 191.98 195.94 191.98 199.12C192.01 206.63 192.35 212.24 192.98 217.75C193.33 220.78 196.24 220.78 196.59 217.75C197.23 212.24 197.57 206.63 197.59 199.12C197.59 196.2 198.39 190.12 198.53 181.54C198.55 180.14 198.5 178.74 198.37 177.36C197.28 165.39 197.59 149.86 197.59 149.86C197.59 149.86 197.6 126.68 197.61 116.89C197.61 109.52 197.6 105.98 197.59 103.8C197.57 97.2 197.3 92.07 196.8 87.18L196.82 87.16Z" fill="#101214"/>
</svg>
