<svg width="221" height="217" viewBox="0 0 221 217" fill="none" xmlns="http://www.w3.org/2000/svg">
<path d="M30.3942 91.3426C29.0842 90.4226 27.7042 89.9726 26.5342 89.8526C25.3642 89.7426 24.4042 89.9026 23.6842 90.1326C22.2442 90.6326 21.7442 91.3526 21.9142 91.7726C22.0542 92.2126 22.7542 92.4326 23.8742 92.7126C24.9942 93.0226 26.5042 93.3626 27.9742 94.5926C29.0342 95.4526 29.8642 96.7426 30.4742 98.2326C31.1042 99.6826 31.5742 101.573 32.0742 103.393C33.0242 107.163 34.0142 111.033 35.0342 115.053C36.1042 119.113 37.2742 123.343 38.8642 127.763C39.6642 129.973 40.5642 132.243 41.7542 134.563C42.3742 135.723 43.0242 136.893 43.9142 138.073C44.8142 139.233 45.8442 140.483 47.6442 141.473C47.9042 141.603 48.1742 141.733 48.4442 141.843C48.7242 141.953 49.0442 142.023 49.3442 142.103C49.9442 142.283 50.6042 142.283 51.2442 142.283C51.4142 142.283 51.5542 142.283 51.6542 142.253L51.9942 142.193L52.6642 142.073C53.1042 141.973 53.5542 141.933 53.9542 141.753C54.7742 141.433 55.6042 141.163 56.2742 140.703C56.6242 140.493 56.9642 140.273 57.3042 140.073C57.6142 139.833 57.8942 139.593 58.1842 139.353C60.4542 137.393 61.7642 135.243 62.7942 133.293C63.8142 131.323 64.5042 129.483 65.0642 127.743C65.6342 126.013 66.0542 124.383 66.4242 122.813C66.7942 121.253 67.0942 119.733 67.3842 118.263C67.6642 116.823 67.9742 115.383 68.3242 113.923C69.0342 110.993 69.8842 107.893 71.1942 104.373C71.7442 102.883 72.3742 101.363 73.1042 99.8626C73.8342 98.3626 74.6742 96.8726 75.6742 95.6026C76.6442 94.3226 77.8742 93.3126 78.7842 93.2026C79.2342 93.1326 79.6542 93.1726 80.1942 93.4326C80.3242 93.4926 80.4642 93.6026 80.6042 93.6726C80.7542 93.7426 80.8842 93.8426 81.0042 93.9626L81.3942 94.2726L81.7742 94.6926C82.8142 95.8426 83.7342 97.4826 84.5242 99.2026C85.3242 100.933 86.0242 102.763 86.6742 104.623C87.9642 108.363 89.0842 112.213 90.1742 115.973C91.2742 119.733 92.3342 123.423 93.5342 126.893C94.7342 130.373 96.0142 133.653 97.8442 136.633C98.8042 138.113 99.9042 139.563 101.534 140.733C102.334 141.323 103.334 141.803 104.374 142.063C104.894 142.163 105.494 142.283 105.924 142.293C106.354 142.293 106.754 142.323 107.174 142.283C108.834 142.183 110.384 141.643 111.554 140.963C112.734 140.283 113.564 139.523 114.194 138.883C115.644 137.343 116.604 135.663 117.344 134.023C118.014 132.553 118.774 130.473 119.474 127.913C120.184 125.353 120.844 122.313 121.524 118.913C122.214 115.513 122.914 111.743 123.924 107.823C124.434 105.873 125.014 103.883 125.774 101.973C126.534 100.073 127.474 98.2326 128.664 96.8726C129.874 95.5026 131.204 94.7126 132.904 94.5826C133.114 94.5626 133.334 94.5426 133.564 94.5526C133.784 94.5526 134.014 94.5526 134.254 94.5826L134.604 94.6126C134.684 94.6326 134.714 94.6526 134.774 94.6726C134.884 94.7026 134.994 94.6826 135.124 94.7826C135.254 94.8726 135.384 94.8526 135.534 94.9926C135.684 95.1026 135.834 95.2026 135.984 95.3126C136.294 95.6326 136.624 95.8926 136.944 96.3226C138.244 97.8726 139.364 100.113 140.344 102.403C141.324 104.723 142.194 107.193 143.004 109.713C144.644 114.773 146.064 120.043 147.734 125.343C148.574 127.993 149.464 130.653 150.644 133.343C151.274 134.693 151.894 136.033 152.904 137.423C153.114 137.763 153.454 138.123 153.744 138.473C154.004 138.813 154.434 139.173 154.834 139.513C155.184 139.853 155.794 140.173 156.324 140.453C156.634 140.623 156.774 140.643 156.974 140.723L157.554 140.933C159.724 141.673 162.374 141.943 164.834 141.203C167.284 140.453 169.204 138.903 170.534 137.333C171.904 135.753 172.864 134.113 173.674 132.523C174.474 130.933 175.114 129.363 175.674 127.853C177.844 121.773 179.014 116.403 180.214 111.753C181.384 107.113 182.444 103.143 183.664 100.073C184.264 98.5326 184.914 97.2326 185.574 96.2526C186.224 95.2826 186.884 94.6826 187.334 94.4726C187.604 94.3426 187.824 94.2526 188.104 94.2626C188.374 94.2626 188.734 94.2826 189.104 94.4226C189.204 94.4426 189.194 94.4626 189.254 94.4826C189.274 94.5026 189.314 94.5326 189.364 94.5726C189.424 94.6326 189.484 94.6926 189.554 94.7526C189.824 95.0326 190.144 95.4626 190.434 95.9126C191.644 97.8026 192.654 100.193 193.574 102.473C195.404 107.093 196.954 111.673 198.554 116.053C200.154 120.433 201.754 124.653 203.634 128.703C204.574 130.723 205.594 132.713 206.764 134.633C207.964 136.543 209.274 138.433 211.124 140.083C212.144 140.983 213.274 141.633 214.374 141.943C215.474 142.273 216.484 142.233 217.214 142.043C218.684 141.623 219.094 140.903 218.964 140.563C218.824 140.153 218.114 140.043 217.154 139.763C216.184 139.473 215.014 138.903 213.604 137.443C212.314 136.123 211.254 134.403 210.304 132.613C209.364 130.813 208.524 128.893 207.734 126.923C206.164 122.973 204.784 118.783 203.364 114.393C201.934 109.993 200.514 105.373 198.674 100.483C197.714 98.0326 196.754 95.5326 195.134 92.9026C194.714 92.2426 194.244 91.5726 193.614 90.8926C193.274 90.5426 192.934 90.2226 192.444 89.8726C191.964 89.5426 191.384 89.2526 190.864 89.0926C189.964 88.7826 188.964 88.6326 187.904 88.6526C186.834 88.6726 185.734 88.9926 184.794 89.4726C183.294 90.2226 182.084 91.4526 181.094 92.8226C180.094 94.2026 179.304 95.7426 178.554 97.4226C177.094 100.783 175.904 104.713 174.664 109.113C173.424 113.503 172.194 118.413 170.464 123.483C169.594 126.003 168.574 128.573 167.234 130.833C166.564 131.943 165.804 132.953 164.994 133.703C164.584 134.063 164.174 134.353 163.774 134.583C163.364 134.783 162.954 134.923 162.524 135.013C161.964 135.113 161.334 135.093 160.624 134.953C160.274 134.883 159.904 134.803 159.534 134.663L159.254 134.563L159.114 134.513H159.074L159.054 134.493C159.174 134.203 158.894 134.893 158.924 134.813L158.974 134.653C159.084 134.373 159.034 134.493 159.034 134.463C159.034 134.463 159.024 134.483 158.994 134.463C158.754 134.323 158.244 133.713 157.794 133.063C157.344 132.333 156.894 131.533 156.474 130.663C154.664 126.873 153.214 122.343 151.764 117.793C150.314 113.223 148.894 108.523 147.164 103.883C146.294 101.563 145.354 99.2626 144.174 97.0126C143.884 96.4526 143.574 95.8926 143.234 95.3326C142.924 94.7726 142.534 94.2226 142.154 93.6826C141.804 93.1326 141.294 92.6126 140.864 92.0826C140.614 91.8226 140.344 91.5726 140.084 91.3226L139.684 90.9526L139.214 90.6126C138.884 90.3926 138.604 90.1526 138.234 89.9626C137.864 89.7726 137.484 89.6026 137.114 89.4326C136.334 89.1626 135.354 88.9526 134.764 88.9326C133.414 88.8226 132.004 88.8926 130.634 89.2326C129.264 89.5626 127.964 90.1726 126.864 90.9426C125.754 91.7126 124.834 92.6226 124.064 93.5626C122.524 95.4526 121.544 97.4426 120.734 99.3226C119.934 101.213 119.354 103.023 118.854 104.733C117.874 108.153 117.234 111.163 116.694 113.633C116.164 116.093 115.744 118.043 115.454 119.383C115.154 120.703 114.994 121.423 114.994 121.423C114.994 121.423 114.764 122.493 114.284 124.383C113.784 126.243 113.104 129.013 111.724 131.883C111.034 133.283 110.134 134.733 109.004 135.573C108.444 135.993 107.844 136.263 107.154 136.393C106.814 136.463 106.434 136.473 106.044 136.463C105.934 136.423 105.814 136.403 105.694 136.393C105.574 136.383 105.444 136.283 105.314 136.243C104.784 135.983 104.114 135.453 103.494 134.673C102.874 133.883 102.274 132.963 101.734 131.933C100.634 129.873 99.6742 127.523 98.7842 125.063C96.9942 120.133 95.4542 114.753 93.7342 109.353C92.8742 106.653 91.9742 103.933 90.9442 101.243C89.9042 98.5526 88.7442 95.8826 87.0442 93.3126C86.1542 92.0426 85.1542 90.7526 83.6242 89.6826C83.2342 89.4526 82.8442 89.2226 82.4442 89.0026C82.0042 88.8126 81.5542 88.6326 81.0942 88.4926C80.1242 88.2526 79.0642 88.1426 78.0642 88.3326C76.0242 88.6826 74.5242 89.7726 73.4242 90.8326C72.3042 91.9126 71.4742 93.0426 70.7442 94.1626C69.3242 96.4126 68.3042 98.6226 67.4442 100.713C66.5942 102.803 65.9042 104.793 65.3242 106.623C64.4542 109.383 63.7542 111.983 63.1542 114.423C62.8542 115.633 62.5842 116.843 62.3342 117.953C62.0842 119.063 61.8442 120.113 61.5742 121.123C60.5442 125.153 59.3242 128.443 57.9342 130.953C56.5642 133.493 54.9542 135.103 53.4942 135.933C52.7642 136.353 52.0442 136.563 51.3642 136.663C50.9342 136.763 50.9242 136.703 50.7642 136.713C50.6942 136.683 50.6242 136.663 50.5442 136.663C50.4642 136.623 50.3742 136.563 50.2842 136.533C49.7342 136.253 49.0242 135.543 48.4142 134.733C47.7842 133.923 47.2342 132.953 46.7142 131.993C45.6842 130.033 44.8142 127.953 44.0342 125.883C42.4742 121.743 41.2242 117.643 40.0542 113.673C38.8742 109.703 37.8042 105.863 36.6242 102.093C36.0042 100.203 35.4642 98.3626 34.5042 96.4226C33.5842 94.5226 32.2742 92.6726 30.4142 91.3626L30.3942 91.3426Z" fill="#101214"/>
<path d="M9.3242 8.18261C9.2042 -2.67739 5.8542 -2.74739 5.2742 8.09261C4.4542 23.4726 3.8442 39.6326 3.3742 60.4126C3.0342 83.9726 3.6042 89.8526 3.1842 105.803C2.6142 132.773 0.714198 178.243 0.254198 189.203C0.184198 190.823 0.144198 192.443 0.124198 194.073C0.104198 195.523 0.0841984 197.593 0.0541984 200.183C0.0341984 201.473 0.0241984 202.903 0.00419837 204.453C-0.0558016 206.523 0.524198 209.033 1.9442 211.093C3.3542 213.163 5.5642 214.913 8.2842 215.663C8.9642 215.833 9.6642 215.973 10.3742 216.033C11.0442 216.093 11.9242 216.063 12.3442 216.033C13.3842 215.983 14.4342 215.923 15.5142 215.863C19.8342 215.643 24.4942 215.403 29.4042 215.153C49.0342 214.123 72.6742 213.333 94.5842 213.263C125.514 212.993 144.664 213.483 154.654 213.703C178.254 214.273 195.914 214.853 213.294 214.923C222.834 214.983 222.954 212.073 213.444 211.313C196.134 209.973 178.494 208.713 154.794 208.083C145.594 207.863 126.424 206.603 99.3242 206.633C94.9142 206.653 90.4942 206.733 86.1242 206.933C67.2542 207.723 45.5642 208.633 28.6242 209.493C24.3942 209.693 20.4542 209.873 16.9242 210.033C15.1642 210.113 13.5042 210.183 11.9542 210.253C11.5142 210.283 11.3342 210.253 11.0642 210.253C10.8142 210.223 10.5642 210.213 10.3242 210.163C9.8442 210.073 9.4042 209.923 9.0042 209.723C7.3842 208.953 6.5942 207.613 6.2742 206.743C6.1042 206.293 6.0342 205.933 5.9942 205.683C5.9642 205.433 5.9442 205.303 5.9442 205.303C5.9342 205.303 5.9442 205.103 5.9242 204.733C5.9342 204.193 5.9542 203.403 5.9742 202.383C6.0142 200.323 6.0842 197.353 6.1642 193.693C6.3242 186.363 6.5342 176.273 6.7742 165.223C7.2442 143.113 7.8042 117.153 8.1342 101.743C8.6142 78.5326 8.8542 67.3626 8.9942 60.5026C9.4142 39.7226 9.4942 23.5426 9.3242 8.14261V8.18261Z" fill="#101214"/>
</svg>
