<svg width="170" height="168" viewBox="0 0 170 168" fill="none" xmlns="http://www.w3.org/2000/svg">
<path d="M39.07 162.473C32.28 162.813 32.26 166.163 39.07 166.523C43.9 166.763 48.83 166.993 54.28 166.973C57.01 166.953 59.87 166.883 62.97 166.513C64.52 166.343 66.14 166.043 67.84 165.583C69.53 165.123 71.35 164.383 73.07 163.173C75.02 161.783 76.38 159.923 77.18 158.233C77.99 156.533 78.44 154.963 78.71 153.573C79.27 150.763 79.35 148.523 79.44 146.443C79.54 142.303 79.44 138.863 79.51 133.843C79.55 129.613 79.6 124.653 79.65 119.493C79.68 116.903 79.69 114.253 79.65 111.583C79.61 108.923 79.5 106.243 79.17 103.563C78.84 100.903 78.25 98.1628 76.92 95.6028C75.64 93.0028 73.28 90.9828 71.15 89.8828C68.99 88.7528 67.06 88.2728 65.47 87.8928C63.88 87.5328 62.62 87.3528 61.71 87.2228C60.65 87.0828 59.58 86.9728 58.52 86.9328C56.63 86.8328 53.19 86.7628 48.71 86.7928C44.25 86.8428 38.71 86.9028 32.53 86.9728C29.43 87.0228 26.16 87.0828 22.73 87.2828C21.01 87.4028 19.26 87.5228 17.44 87.7728C15.64 88.0028 13.76 88.3528 11.84 88.9628C9.93 89.5728 7.9 90.5228 6.18 92.0428C4.44 93.5528 3.19 95.5628 2.43 97.5028C0.91 101.423 0.6 105.143 0.31 108.673C0 113.683 0.03 118.083 0 122.053C0 126.013 0 129.533 0 132.643C0.02 138.873 0.13 143.523 0.4 146.783C0.55 148.703 0.78 150.593 1.16 152.473C1.54 154.343 2.07 156.223 2.99 158.033C3.89 159.843 5.26 161.533 6.88 162.723C8.5 163.933 10.24 164.663 11.88 165.133C15.18 166.073 18.19 166.243 21.07 166.353C23.95 166.433 26.72 166.353 29.46 166.243C35.47 165.953 35.45 163.043 29.51 162.633C26.81 162.433 24.11 162.223 21.39 161.913C18.69 161.583 15.92 161.183 13.43 160.303C10.89 159.433 9 158.033 7.88 155.613C6.75 153.173 6.27 149.883 5.99 146.333C5.76 143.563 5.83 139.193 6.03 133.383C6.12 130.473 6.23 127.213 6.34 123.623C6.45 120.043 6.52 116.123 6.7 112.003C6.82 109.313 6.93 106.663 7.2 104.173C7.35 102.843 7.57 101.523 7.92 100.323C8.29 99.1328 8.78 98.0828 9.45 97.2228C10.12 96.3628 10.99 95.6828 12.1 95.1228C13.21 94.5628 14.53 94.1828 15.89 93.8628C18.66 93.2728 21.63 93.0228 24.51 92.8628C27.4 92.7128 30.21 92.6528 32.86 92.6228C38.14 92.5728 42.73 92.5828 45.95 92.6028C49.18 92.6228 51.08 92.6828 51.08 92.6828C51.08 92.6828 51.79 92.6928 53.06 92.7228C54.33 92.7628 56.17 92.8028 58.39 92.9528C60.6 93.1128 63.24 93.3428 65.86 94.0028C67.14 94.3628 68.41 94.8228 69.47 95.5128C70.53 96.1928 71.38 97.0928 72.05 98.2828C73.4 100.663 73.92 104.123 74.22 107.573C74.51 111.053 74.56 114.653 74.61 118.133C74.65 125.093 74.64 131.603 74.61 136.393C74.55 143.603 74.26 148.893 73.38 152.483C72.5 156.093 71.13 157.693 69.79 158.603C67.78 160.043 64.95 160.663 62.23 161.063C59.48 161.453 56.75 161.633 54.11 161.783C48.77 162.023 43.85 162.253 39.06 162.473H39.07Z" fill="#101214"/>
<path d="M34.72 75.5328C27.95 75.8328 27.83 79.1828 34.66 79.5828C39.51 79.8728 44.45 80.1028 49.84 80.1928C52.54 80.2428 55.35 80.2628 58.34 80.1928C61.34 80.1028 64.51 79.9428 68.02 79.2928C70.01 78.8728 71.87 78.2928 73.54 77.4328C75.22 76.6028 76.67 75.4028 77.71 74.1228C78.27 73.5028 78.65 72.8228 79.05 72.1928C79.36 71.5428 79.73 70.9128 79.93 70.2928C80.17 69.6728 80.38 69.0828 80.52 68.5028C80.69 67.9228 80.83 67.3628 80.92 66.8228C81.34 64.6528 81.52 62.6928 81.64 60.6528C81.77 58.6028 81.85 56.4628 81.93 53.9328C82.05 49.6628 82.1 44.7028 82.19 39.5428C82.27 34.3828 82.43 29.0228 82.33 23.8528C82.27 21.2728 82.16 18.7328 81.83 16.2728C81.5 13.8128 80.96 11.3928 79.9 9.18279C78.87 6.97279 77.23 5.13279 75.67 4.01279C74.9 3.41279 74.15 3.03279 73.49 2.66279C72.83 2.35279 72.25 2.10279 71.77 1.90279C71.21 1.70279 70.63 1.50279 70.07 1.34279C69.51 1.20279 68.94 1.07279 68.38 0.94279C66.37 0.53279 62.79 0.16279 58.25 0.0627904C53.7 -0.0572096 48.15 0.0227904 41.99 0.0727904C38.9 0.11279 35.64 0.15279 32.29 0.19279C28.92 0.26279 25.42 0.35279 21.79 0.71279C19.97 0.89279 18.11 1.14279 16.2 1.60279C14.3 2.06279 12.29 2.71279 10.39 3.91279C8.48003 5.09279 6.84003 6.89279 5.80003 8.81279C4.75003 10.7328 4.16003 12.6828 3.74003 14.5328C3.19003 17.1628 2.99003 19.5728 2.84003 21.8428C2.69003 24.1128 2.64003 26.2328 2.59003 28.2428C2.52003 32.2428 2.53003 35.7728 2.53003 38.8728C2.53003 45.0828 2.54004 49.6828 2.62004 52.8628C2.71004 56.6128 2.89003 60.1728 3.42003 63.6628C3.69003 65.4028 4.08003 67.1328 4.67003 68.8428C5.27003 70.5428 6.13004 72.2528 7.37004 73.7128C8.60004 75.1828 10.17 76.3028 11.74 77.0428C13.31 77.7828 14.88 78.2228 16.39 78.5128C19.4 79.0628 22.23 79.1628 25.01 79.1728C28.06 79.1628 29.58 78.3528 29.6 77.5428C29.62 76.7128 28.15 75.8928 25.22 75.5628C22.56 75.2428 19.91 74.8628 17.41 74.1728C14.92 73.4528 12.68 72.3728 11.32 70.5128C9.93003 68.6728 9.22004 65.9328 8.83004 62.8728C8.45004 59.7928 8.31004 56.3928 8.24004 52.7328C8.18004 49.8928 8.36004 45.4728 8.58004 39.6428C8.69004 36.7428 8.81003 33.4828 8.94003 29.9128C9.10003 26.3728 9.23004 22.4728 9.75004 18.5828C10.1 16.0628 10.55 13.6428 11.41 11.8628C11.87 10.8928 12.46 10.0928 13.28 9.41279C14.09 8.73279 15.17 8.17279 16.43 7.76279C18.93 6.89279 21.96 6.53279 24.93 6.27279C30.94 5.81279 37.01 5.81279 42.3 5.77279C47.61 5.74279 52.16 5.75279 55.36 5.84279C58.57 5.92279 60.42 6.07279 60.42 6.07279C60.42 6.07279 61.12 6.10279 62.35 6.21279C63.58 6.32279 65.37 6.49279 67.41 6.92279C69.44 7.37279 71.72 8.11279 73.3 9.67279C74.88 11.2128 75.84 13.9528 76.34 17.1428C76.84 20.3428 76.99 23.8928 77.09 27.4628C77.17 31.0428 77.17 34.6628 77.18 38.1628C77.18 45.1628 77.2 51.6328 76.98 56.3528C76.72 63.4528 75.68 68.5528 73.53 70.6728C72.52 71.8028 71.31 72.4428 70.14 72.8928C68.98 73.3428 67.88 73.6028 66.92 73.8028C63.98 74.3628 60.98 74.5728 58.11 74.7228C55.23 74.8728 52.47 74.9528 49.8 75.0328C44.45 75.2028 39.51 75.3528 34.71 75.5628L34.72 75.5328Z" fill="#101214"/>
<path d="M130.36 6.92278C137.15 6.58278 137.17 3.23279 130.36 2.87279C125.54 2.63279 120.6 2.41278 115.14 2.43278C112.41 2.46278 109.54 2.55278 106.44 2.94278C105.67 3.02278 104.86 3.19278 104.06 3.32278C103.24 3.52278 102.42 3.66278 101.56 3.95278C99.87 4.47278 98.04 5.21278 96.35 6.52278C94.44 8.01278 93.2 9.92279 92.44 11.6128C91.71 13.3228 91.31 14.8728 91.05 16.2728C90.54 19.0728 90.47 21.3128 90.4 23.3828C90.32 27.5128 90.43 30.9528 90.36 35.9728C90.32 40.2028 90.27 45.1628 90.23 50.3228C90.2 52.9128 90.19 55.5628 90.24 58.2328C90.3 60.9028 90.41 63.5828 90.78 66.2728C91.16 68.9428 91.79 71.7028 93.21 74.2528C94.67 76.8028 97.04 78.7528 99.2 79.7428C101.37 80.7928 103.29 81.2528 104.87 81.5828C105.67 81.7628 106.37 81.8828 107 81.9728C107.63 82.0828 108.17 82.1628 108.62 82.2128C109.69 82.3628 110.74 82.4428 111.8 82.4828C113.68 82.5628 117.12 82.6328 121.6 82.6028C126.06 82.5528 131.6 82.4928 137.78 82.4128C140.88 82.3528 144.15 82.2928 147.59 82.0828C151.03 81.8228 154.64 81.5628 158.51 80.2728C160.43 79.6128 162.45 78.5728 164.12 76.9728C165.8 75.3828 166.95 73.3528 167.65 71.4128C169.03 67.5028 169.33 63.8028 169.61 60.2728C169.89 55.2728 169.87 50.8728 169.89 46.9028C169.89 42.9428 169.89 39.4228 169.89 36.3128C169.87 30.0728 169.74 25.4228 169.45 22.1528C169.28 20.2228 169.06 18.3328 168.63 16.4428C168.21 14.5628 167.63 12.6728 166.64 10.8728C165.67 9.08279 164.22 7.44278 162.56 6.33278C160.91 5.20278 159.17 4.53278 157.54 4.09279C154.26 3.25279 151.25 3.07278 148.37 2.99278C145.49 2.92278 142.73 3.01278 139.99 3.12278C133.98 3.42278 134.01 6.33278 139.94 6.73278C142.64 6.93278 145.35 7.13278 148.07 7.43278C150.78 7.74278 153.54 8.14279 156.09 8.95279C157.35 9.37279 158.52 9.92279 159.49 10.6428C160.46 11.3728 161.23 12.2828 161.83 13.4528C163.03 15.8128 163.56 19.0728 163.85 22.6228C164.09 25.3828 164.04 29.7528 163.84 35.5628C163.66 41.3628 163.44 48.5428 163.19 56.9628C163.07 59.6528 162.97 62.3128 162.73 64.8128C162.47 67.5028 161.89 70.1428 160.62 71.9228C159.99 72.8128 159.15 73.5228 158.07 74.0928C156.99 74.6628 155.72 75.1028 154.36 75.4228C151.62 76.0528 148.65 76.3128 145.77 76.4828C142.89 76.6428 140.07 76.7028 137.43 76.7328C132.15 76.7928 127.56 76.7728 124.34 76.7628C121.11 76.7428 119.21 76.6928 119.21 76.6928C119.21 76.6928 118.5 76.6828 117.23 76.6628C115.96 76.6328 114.12 76.5928 111.89 76.4528C109.67 76.3128 107.02 76.0928 104.38 75.4628C103.08 75.1328 101.76 74.7128 100.67 74.0528C99.57 73.4028 98.68 72.5528 97.98 71.4028C96.58 69.0828 96 65.6628 95.69 62.2228C95.38 58.7528 95.31 55.1528 95.27 51.6828C95.22 44.7228 95.24 38.2128 95.27 33.4228C95.33 26.2128 95.59 20.9128 96.42 17.2828C96.83 15.4728 97.36 14.1028 97.95 13.1128C98.55 12.1328 99.21 11.4928 99.83 10.9728C100.79 10.2128 101.99 9.69278 103.27 9.28278C103.89 9.05278 104.58 8.92279 105.23 8.75279C105.92 8.63279 106.58 8.47278 107.27 8.38278C110 7.97278 112.73 7.78278 115.37 7.62278C120.71 7.37278 125.62 7.14278 130.42 6.92278H130.36Z" fill="#101214"/>
<path d="M96.96 95.2728C97.25 95.0628 97.52 94.8528 97.76 94.6428C98.02 94.4428 98.29 94.2928 98.52 94.1128C98.75 93.9428 98.97 93.7628 99.16 93.5928C99.37 93.4428 99.55 93.2928 99.72 93.1428C100.37 92.5528 100.66 91.9728 100.54 91.5328C100.42 91.0828 99.89 90.7728 98.9 90.6928C98.65 90.6728 98.37 90.6728 98.07 90.6928C97.77 90.7428 97.44 90.8128 97.08 90.9028C96.72 91.0028 96.33 91.0928 95.93 91.2728C95.53 91.4628 95.11 91.6928 94.66 91.9528C94.02 92.3028 93.48 92.8428 92.89 93.3028C92.34 93.8128 91.87 94.4028 91.37 94.9828C90.97 95.6028 90.54 96.2328 90.19 96.8828C89.89 97.5328 89.56 98.2028 89.3 98.8728C88.28 101.573 87.87 104.303 87.54 107.083C86.92 112.643 86.89 118.463 86.86 124.983C86.93 132.363 87.15 136.993 87.44 141.053C87.58 143.083 87.76 144.973 87.96 147.003C88.2 149.043 88.43 151.213 89.04 153.873C89.16 154.433 89.33 155.003 89.52 155.593C89.68 156.183 89.94 156.783 90.19 157.383C90.72 158.583 91.42 159.843 92.42 160.963C92.88 161.553 93.47 162.023 94.04 162.533C94.65 162.963 95.26 163.443 95.93 163.773C97.24 164.523 98.62 164.993 99.99 165.403C102.74 166.153 105.48 166.503 108.16 166.753C110.85 167.003 113.49 167.133 116.03 167.233C126.2 167.593 134.99 167.833 138.5 167.893C139.52 167.913 140.57 167.893 141.6 167.843C142.53 167.783 143.85 167.733 145.53 167.593C147.21 167.463 149.25 167.263 151.64 166.823C152.24 166.713 152.86 166.593 153.51 166.413C153.83 166.333 154.16 166.243 154.49 166.163C154.83 166.053 155.17 165.943 155.51 165.833C156.2 165.633 156.92 165.293 157.64 164.993C158.36 164.603 159.11 164.253 159.82 163.713C161.26 162.713 162.64 161.323 163.59 159.713C164.55 158.113 165.18 156.403 165.63 154.703C166.47 151.313 166.75 147.903 166.9 144.483C167.05 141.053 167.07 137.583 167.08 134.083C167.06 127.083 167.15 119.983 167.02 112.993C166.83 108.053 166.6 103.483 165.24 99.0928C164.55 96.9128 163.44 94.7528 161.83 93.0628C160.23 91.3628 158.31 90.3028 156.6 89.6428C154.87 88.9728 153.27 88.5828 151.83 88.3328C151.1 88.1928 150.41 88.0828 149.75 88.0128C149.08 87.9228 148.45 87.8528 147.85 87.8028C145.43 87.5628 143.47 87.5028 141.86 87.4328C134.32 87.2328 127.89 87.4128 121.89 87.5728C115.89 87.7828 110.36 88.0028 104.77 88.9628C101.68 89.5128 100.32 90.8028 100.55 91.5628C100.79 92.3628 102.34 92.7128 105.21 92.5428C110.48 92.2528 115.95 92.5128 121.9 92.6428C127.86 92.8228 134.37 92.8328 141.66 93.0528C143.07 93.1128 144.87 93.2228 146.96 93.4928C149.04 93.7628 151.48 94.1628 153.78 95.0428C154.9 95.4928 155.96 96.0628 156.78 96.8328C157.6 97.5928 158.24 98.5628 158.75 99.8728C159.78 102.483 160.13 106.223 160.33 110.283C160.45 112.943 160.55 115.663 160.71 118.373C161.02 124.223 161.21 130.603 161.29 136.753C161.32 139.823 161.29 142.853 161.14 145.703C160.98 148.553 160.69 151.263 160.07 153.523C159.75 154.643 159.36 155.653 158.88 156.483C158.37 157.293 157.86 158.003 157.2 158.513C155.96 159.603 154.38 160.173 153.01 160.563C151.61 160.923 150.43 161.123 149.61 161.233C148.78 161.333 148.33 161.393 148.33 161.393C148.33 161.393 145.64 161.743 141.11 161.853C136.6 161.993 130.28 161.973 123.36 161.973C119.91 161.973 116.31 161.953 112.74 161.843C109.18 161.733 105.63 161.503 102.48 160.883C100.92 160.553 99.49 160.093 98.32 159.473C97.15 158.853 96.26 158.063 95.58 157.113C94.9 156.163 94.4 155.043 94.06 153.863C93.69 152.713 93.48 151.513 93.29 150.413C92.8 147.033 92.68 143.913 92.59 141.203C92.51 138.483 92.5 136.113 92.48 134.073C92.48 129.973 92.47 127.153 92.47 125.013C92.47 118.523 92.38 112.743 92.7 107.573C93.04 102.443 93.73 97.6928 96.97 95.3128L96.96 95.2728Z" fill="#101214"/>
</svg>
