<svg width="229" height="124" viewBox="0 0 229 124" fill="none" xmlns="http://www.w3.org/2000/svg">
<path d="M170.812 121.849C177.262 121.479 177.252 118.139 170.812 117.799C168.522 117.699 166.212 117.589 163.822 117.489C162.632 117.449 161.422 117.409 160.202 117.369C159.592 117.349 158.972 117.329 158.342 117.319L157.632 117.269L156.942 117.159C155.152 116.789 153.442 115.679 152.782 114.259C152.632 113.909 152.492 113.559 152.462 113.189C152.412 113.009 152.462 112.829 152.432 112.629C152.432 112.269 152.442 111.899 152.452 111.539C152.472 110.069 152.502 108.559 152.532 107.009C152.532 99.9785 152.382 95.5885 152.242 91.7685C152.172 89.8585 152.112 88.0885 152.082 86.2085C152.012 84.3185 152.132 82.3785 151.942 79.7985C151.612 75.5485 150.392 70.4785 147.612 65.8685C146.222 63.5785 144.492 61.4385 142.522 59.5585C140.522 57.7185 138.322 56.1585 136.072 54.8585C131.532 52.3385 126.882 50.8885 123.022 50.1185C119.162 49.3285 116.082 49.1085 114.372 48.9985C113.352 48.9385 112.342 48.9285 111.322 48.9685C109.462 49.0485 106.152 49.2385 101.792 50.0085C99.5419 50.3985 97.0119 50.9785 94.3719 52.0185C91.7019 52.9685 88.9819 54.4985 86.3719 56.4285C81.0719 60.2985 76.9819 66.4485 74.5619 73.0485C72.0919 79.6785 71.0719 86.7485 70.6819 93.4585C70.5019 97.1985 70.5219 100.929 70.7019 104.629C70.7919 106.479 70.9119 108.319 71.0619 110.159L71.2919 112.889L71.4119 114.239L71.4919 115.199L71.5819 116.479C71.6319 116.739 71.6219 117.039 71.7119 117.259L71.9819 117.909C72.0919 118.119 72.1219 118.359 72.2919 118.539C72.4519 118.739 72.6219 118.909 72.8119 119.069C73.5519 119.689 74.5719 120.039 75.6419 120.259C75.9019 120.329 76.1719 120.369 76.4419 120.419L77.1419 120.539L78.0819 120.669L79.9119 120.879C82.3219 121.119 84.6819 121.279 87.0419 121.409C94.1319 121.779 100.292 121.849 105.992 121.809C111.682 121.769 116.902 121.589 122.072 121.319C127.752 121.009 127.752 118.099 122.102 117.709C116.952 117.349 111.762 117.029 106.102 116.739C100.462 116.459 94.3519 116.149 87.3619 115.799C85.9119 115.719 84.0319 115.549 81.7719 115.259C80.6419 115.109 79.4019 114.939 78.1519 114.699L77.9319 114.659L77.8819 114.639L77.7919 114.599C77.7319 114.579 77.6819 114.549 77.6319 114.519C77.5919 114.489 77.5319 114.459 77.5219 114.389L77.5519 114.199C77.5519 114.199 77.5719 114.099 77.5819 114.069C77.5619 113.749 77.5519 113.429 77.5319 113.099C77.5019 112.429 77.4619 111.739 77.4219 111.029C77.3619 109.629 77.2919 108.139 77.2219 106.589C77.1119 103.489 77.0619 100.119 77.1719 96.5285C77.2319 93.9985 77.3519 91.4885 77.4819 88.9985C77.6119 86.3085 77.9719 83.5585 78.5119 80.8185C79.0519 78.0785 79.8319 75.3685 80.9119 72.8485C81.9819 70.3285 83.2719 67.9485 84.8319 65.9185C86.4119 63.9085 88.1519 62.1585 90.0119 60.8085C93.7019 58.0685 97.6219 56.8685 100.392 56.2085C101.812 55.9685 102.942 55.7685 103.712 55.6385C104.532 55.5385 104.972 55.4885 104.972 55.4885C104.972 55.4885 105.632 55.4185 106.812 55.2885C107.992 55.1785 109.682 55.0285 111.762 54.9985C115.932 54.9185 121.762 55.2785 127.672 57.1185C130.612 58.0385 133.552 59.3585 136.162 61.1185C138.782 62.8785 141.052 65.0785 142.762 67.5385C144.482 69.9885 145.632 72.6885 146.302 75.2785C147.022 77.8585 147.222 80.3585 147.252 82.4885C147.092 96.2485 147.012 102.869 146.962 106.929C146.952 108.469 146.942 109.969 146.922 111.429C146.922 111.789 146.922 112.159 146.922 112.519C146.942 113.009 146.922 113.529 147.032 114.009C147.162 114.999 147.512 115.929 147.942 116.779C148.842 118.459 150.152 119.749 151.582 120.629C153.022 121.519 154.572 122.049 156.112 122.289C156.502 122.329 156.882 122.369 157.262 122.409C157.642 122.409 158.022 122.419 158.392 122.429C159.012 122.409 159.632 122.389 160.252 122.369C161.482 122.319 162.682 122.279 163.872 122.229C166.252 122.109 168.572 121.999 170.852 121.879L170.812 121.849Z" fill="#101214"/>
<path d="M162.172 118.388C157.612 118.698 157.572 122.048 162.142 122.438C168.612 122.978 175.422 123.278 184.172 123.308C194.092 123.148 196.562 122.438 203.282 122.458C206.502 122.428 210.342 122.458 214.242 122.458C216.192 122.458 218.152 122.458 220.082 122.428L220.812 122.408C221.192 122.388 221.582 122.368 221.962 122.348C222.782 122.288 223.602 122.228 224.322 122.018C224.682 121.918 225.002 121.778 225.282 121.608C225.422 121.518 225.562 121.428 225.692 121.328C225.752 121.278 225.822 121.208 225.882 121.148L225.992 120.938C226.262 120.358 226.652 119.908 226.702 119.088C226.772 118.368 226.842 117.668 226.922 116.968C226.972 116.568 227.022 116.168 227.072 115.778C227.172 115.038 227.262 114.328 227.342 113.648C227.512 112.278 227.662 111.018 227.782 109.888C228.032 107.638 228.172 105.908 228.252 104.878C228.302 104.178 228.322 103.478 228.322 102.768C228.252 100.258 228.252 93.4485 226.552 84.9285C225.682 80.6885 224.332 76.0085 222.062 71.4885C219.822 66.9785 216.532 62.6685 212.462 59.5185C209.622 57.2385 206.582 55.9185 203.872 54.8585C202.502 54.3885 201.162 54.0785 199.922 53.7185C198.672 53.3985 197.482 53.2885 196.372 53.0885C195.812 53.0085 195.282 52.9185 194.762 52.8485C194.242 52.8185 193.742 52.7985 193.262 52.7685C192.292 52.7185 191.402 52.6785 190.572 52.6285C189.742 52.5585 189.002 52.6485 188.312 52.6585C187.632 52.6885 187.012 52.7185 186.452 52.7385C185.802 52.7685 185.152 52.7985 184.522 52.8285C183.902 52.9085 183.282 52.9985 182.682 53.0785C181.472 53.2485 180.302 53.4185 179.162 53.5885C176.912 54.0385 174.822 54.5685 172.812 55.0585C170.842 55.6585 168.972 56.2985 167.152 56.9185C166.232 57.2085 165.362 57.5785 164.502 57.9485C163.642 58.3185 162.782 58.6885 161.932 59.0585C158.182 60.6985 159.252 63.4085 163.102 62.4785C163.982 62.2585 164.862 62.0385 165.742 61.8185C166.622 61.5885 167.512 61.3485 168.422 61.1885C170.222 60.7985 172.072 60.4085 173.992 59.9885C175.922 59.6685 177.922 59.3285 180.042 58.9785C181.102 58.8585 182.192 58.7385 183.312 58.6185C183.872 58.5485 184.442 58.4785 185.012 58.4185C185.592 58.3985 186.172 58.3785 186.762 58.3585C187.682 58.3385 188.862 58.2785 190.262 58.3785C190.952 58.4585 191.702 58.5385 192.512 58.6285C193.312 58.7285 194.182 58.7685 195.062 59.0085C195.942 59.1985 196.882 59.3985 197.872 59.6185C198.832 59.8985 199.812 60.2585 200.852 60.5885C201.382 60.7285 201.872 60.9685 202.382 61.2085C202.892 61.4385 203.412 61.6785 203.942 61.9185C204.492 62.1185 204.972 62.4685 205.492 62.7785C206.012 63.0885 206.532 63.3985 207.072 63.7085C208.352 64.6985 209.722 65.5685 210.912 66.6685C213.602 68.9185 215.942 72.1085 217.612 75.6085C219.292 79.1085 220.402 82.8485 221.032 86.2185C221.672 89.5885 221.992 92.5485 222.102 94.6585C222.172 95.7185 222.222 96.5585 222.232 97.1385C222.242 97.7185 222.252 98.0285 222.252 98.0285C222.362 101.258 222.322 104.498 222.152 107.748C222.062 109.368 221.952 110.998 221.822 112.628L221.462 116.648L221.432 117.048C221.312 117.108 221.172 117.108 221.042 117.128L220.642 117.158L219.262 117.238C217.322 117.338 215.352 117.398 213.382 117.438C209.442 117.528 205.482 117.578 201.522 117.608C191.772 117.648 187.082 117.668 184.202 117.678C175.472 117.698 168.672 117.928 162.202 118.378L162.172 118.388Z" fill="#101214"/>
<path d="M191.622 33.3085C190.482 33.4885 189.812 34.3285 189.712 35.2585C189.612 36.1685 190.222 37.1885 191.662 37.3585C193.672 37.5685 195.762 37.5385 198.052 36.9685C200.322 36.4285 202.812 35.3185 205.022 33.2485C206.242 32.0485 207.012 30.8685 207.542 29.8285C208.092 28.7885 208.382 27.8585 208.622 27.0085C209.072 25.2885 209.262 23.8385 209.502 21.7585C209.672 19.9885 209.662 17.9485 209.412 15.8185C209.162 13.6885 208.612 11.4385 207.692 9.4085C206.782 7.3685 205.512 5.5685 204.212 4.2885C202.932 2.9785 201.682 2.1985 201.002 1.7685C200.582 1.5385 200.162 1.3085 199.712 1.1485C198.912 0.858503 197.402 0.378503 195.412 0.148503C193.412 -0.101497 191.012 -0.0514973 188.402 0.418503C185.792 0.898503 182.832 1.9385 180.262 3.8685C177.672 5.7885 175.682 8.5985 174.592 11.4885C173.162 15.6485 173.322 19.0885 173.602 21.6785C173.922 24.3085 174.582 26.2285 175.102 27.5085C176.342 30.5585 178.392 32.9185 180.642 34.4485C182.932 35.9585 185.372 36.6485 187.682 36.7685C188.972 36.8285 189.652 36.0485 189.712 35.2485C189.782 34.4185 189.322 33.5885 188.372 33.2285C184.912 31.8885 182.102 29.7085 180.292 25.3785C179.962 24.5285 179.662 23.1085 179.632 21.2085C179.602 19.3085 179.782 16.9185 180.512 14.5585C180.772 13.7985 180.972 13.0285 181.242 12.2985C181.762 10.6785 182.872 9.1585 184.372 8.0485C185.882 6.9585 187.712 6.2885 189.422 5.9985C191.142 5.6985 192.672 5.7185 193.702 5.8185C194.212 5.8885 194.622 5.9485 194.892 5.9985C195.162 6.0585 195.312 6.0985 195.312 6.0985C195.312 6.0985 196.212 6.2285 197.512 6.7685C198.802 7.2985 200.442 8.3285 201.752 9.9885C203.082 11.6385 203.972 13.9085 204.402 16.1685C204.832 18.4485 204.802 20.6385 204.572 22.1585C204.232 24.4685 203.522 25.9985 202.882 27.0485C202.222 28.0985 201.642 28.7185 201.172 29.1585C199.752 30.4985 198.162 31.3785 196.542 31.9985C194.932 32.6385 193.262 33.0285 191.622 33.2985V33.3085Z" fill="#101214"/>
<path d="M112.062 33.3085C110.922 33.4885 110.252 34.3285 110.152 35.2585C110.052 36.1685 110.662 37.1885 112.102 37.3585C114.112 37.5685 116.202 37.5385 118.492 36.9685C120.762 36.4285 123.252 35.3185 125.462 33.2485C126.682 32.0485 127.452 30.8685 127.982 29.8285C128.532 28.7885 128.822 27.8585 129.062 27.0085C129.512 25.2885 129.702 23.8385 129.942 21.7585C130.112 19.9885 130.102 17.9485 129.852 15.8185C129.602 13.6885 129.052 11.4385 128.132 9.4085C127.222 7.3685 125.952 5.5685 124.652 4.2885C123.372 2.9785 122.122 2.1985 121.442 1.7685C121.022 1.5385 120.602 1.3085 120.152 1.1485C119.352 0.858503 117.842 0.378503 115.852 0.148503C113.852 -0.101497 111.452 -0.0514973 108.842 0.418503C106.232 0.898503 103.272 1.9385 100.702 3.8685C98.1119 5.7885 96.1219 8.5985 95.0319 11.4885C93.6019 15.6485 93.7619 19.0885 94.0419 21.6785C94.3619 24.3085 95.0219 26.2285 95.5419 27.5085C96.7819 30.5585 98.8319 32.9185 101.082 34.4485C103.372 35.9585 105.812 36.6485 108.122 36.7685C109.412 36.8285 110.092 36.0485 110.152 35.2485C110.222 34.4185 109.762 33.5885 108.812 33.2285C105.352 31.8885 102.542 29.7085 100.732 25.3785C100.402 24.5285 100.102 23.1085 100.072 21.2085C100.042 19.3085 100.222 16.9185 100.952 14.5585C101.212 13.7985 101.412 13.0285 101.682 12.2985C102.202 10.6785 103.312 9.1585 104.812 8.0485C106.322 6.9585 108.152 6.2885 109.862 5.9985C111.582 5.6985 113.112 5.7185 114.142 5.8185C114.652 5.8885 115.062 5.9485 115.332 5.9985C115.602 6.0585 115.752 6.0985 115.752 6.0985C115.752 6.0985 116.652 6.2285 117.952 6.7685C119.242 7.2985 120.882 8.3285 122.192 9.9885C123.522 11.6385 124.412 13.9085 124.842 16.1685C125.272 18.4485 125.242 20.6385 125.012 22.1585C124.672 24.4685 123.962 25.9985 123.322 27.0485C122.662 28.0985 122.082 28.7185 121.612 29.1585C120.192 30.4985 118.602 31.3785 116.982 31.9985C115.372 32.6385 113.702 33.0285 112.062 33.2985V33.3085Z" fill="#101214"/>
<path d="M48.7019 33.3085C47.5619 33.4885 46.8919 34.3285 46.7919 35.2585C46.6919 36.1685 47.3019 37.1885 48.7419 37.3585C50.7519 37.5685 52.8419 37.5385 55.1319 36.9685C57.4019 36.4285 59.8919 35.3185 62.1019 33.2485C63.3219 32.0485 64.0919 30.8685 64.6219 29.8285C65.1719 28.7885 65.4619 27.8585 65.7019 27.0085C66.1519 25.2885 66.3419 23.8385 66.5819 21.7585C66.7519 19.9885 66.7419 17.9485 66.4919 15.8185C66.2419 13.6885 65.6919 11.4385 64.7719 9.4085C63.8619 7.3685 62.5919 5.5685 61.2919 4.2885C60.0119 2.9785 58.7619 2.1985 58.0819 1.7685C57.6619 1.5385 57.2419 1.3085 56.7919 1.1485C55.9919 0.858503 54.4819 0.378503 52.4919 0.148503C50.4919 -0.101497 48.0919 -0.0514973 45.4819 0.418503C42.8719 0.898503 39.9119 1.9385 37.3419 3.8685C34.7519 5.7885 32.7619 8.5985 31.6719 11.4885C30.2419 15.6485 30.4019 19.0885 30.6819 21.6785C31.0019 24.3085 31.6619 26.2285 32.1819 27.5085C33.4219 30.5585 35.4719 32.9185 37.7219 34.4485C40.0119 35.9585 42.4519 36.6485 44.7619 36.7685C46.0519 36.8285 46.7319 36.0485 46.7919 35.2485C46.8619 34.4185 46.4019 33.5885 45.4519 33.2285C41.9919 31.8885 39.1819 29.7085 37.3719 25.3785C37.0419 24.5285 36.7419 23.1085 36.7119 21.2085C36.6819 19.3085 36.8619 16.9185 37.5919 14.5585C37.8519 13.7985 38.0519 13.0285 38.3219 12.2985C38.8419 10.6785 39.9519 9.1585 41.4519 8.0485C42.9619 6.9585 44.7919 6.2885 46.5019 5.9985C48.2219 5.6985 49.7519 5.7185 50.7819 5.8185C51.2919 5.8885 51.7019 5.9485 51.9719 5.9985C52.2419 6.0585 52.3919 6.0985 52.3919 6.0985C52.3919 6.0985 53.2919 6.2285 54.5919 6.7685C55.8819 7.2985 57.5219 8.3285 58.8319 9.9885C60.1619 11.6385 61.0519 13.9085 61.4819 16.1685C61.9119 18.4485 61.8819 20.6385 61.6519 22.1585C61.3119 24.4685 60.6019 25.9985 59.9619 27.0485C59.3019 28.0985 58.7219 28.7185 58.2519 29.1585C56.8319 30.4985 55.2419 31.3785 53.6219 31.9985C52.0119 32.6385 50.3419 33.0285 48.7019 33.2985V33.3085Z" fill="#101214"/>
<path d="M74.9019 65.0285C78.8819 67.0685 80.7619 64.2985 76.9819 61.5585C74.2819 59.6885 71.4319 57.8385 68.1219 56.1585C64.8219 54.4685 61.1219 52.8585 56.7119 51.5985C55.4619 51.2485 54.2919 51.0485 53.2319 50.8185C52.1519 50.6585 51.1819 50.4985 50.2619 50.4085C49.3419 50.3385 48.5119 50.2585 47.7119 50.2385C46.9219 50.2385 46.1719 50.2385 45.4619 50.2385C42.5919 50.3385 40.1519 50.6085 36.6319 51.2685C33.6619 51.8885 30.2519 53.0785 26.9919 54.8785C23.7519 56.7085 20.6919 59.1385 18.2019 61.7585C15.6819 64.3485 13.6919 67.0785 12.1819 69.3885C10.6719 71.6985 9.64189 73.5985 9.07189 74.6685C8.74189 75.2985 8.42189 75.9385 8.16189 76.6085C7.18189 78.9585 4.77189 85.3785 3.02189 93.6585C2.12189 97.7885 1.36189 102.379 0.81189 107.109C0.54189 109.479 0.31189 111.879 0.15189 114.299L0.0518897 116.179C0.0218897 117.269 -0.0481103 118.389 0.0518897 119.419C0.19189 121.489 1.77189 122.439 3.95189 122.679C4.68189 122.779 5.46189 122.839 6.18189 122.889C6.59189 122.909 6.99189 122.939 7.39189 122.959C8.18189 122.989 8.95189 123.029 9.69189 123.059C11.1719 123.099 12.5819 123.139 13.9219 123.179C16.5719 123.219 18.9419 123.259 21.0219 123.289C25.1819 123.309 28.2419 123.329 30.3519 123.339C40.2719 123.339 47.6719 122.949 54.9419 122.259C58.9319 121.869 58.9019 118.959 54.9119 118.649C47.6519 118.069 40.2519 117.779 30.3719 117.729C28.4519 117.729 25.4919 117.509 21.6119 117.249C17.7619 117.009 12.9819 116.719 7.39189 116.369L6.73189 116.329C6.58189 116.329 6.60189 116.329 6.60189 116.329C6.60189 116.329 6.60189 116.339 6.58189 116.359C6.55189 116.389 6.49189 116.429 6.43189 116.409C6.40189 116.409 6.36189 116.379 6.33189 116.339H6.32189C6.32189 116.339 6.32189 116.319 6.32189 116.239V115.879L6.31189 115.149C6.31189 114.169 6.32189 113.159 6.36189 112.149C6.43189 110.129 6.58189 108.089 6.79189 106.069C7.21189 102.039 7.87189 98.1285 8.62189 94.7385C9.37189 91.3485 10.2219 88.4885 10.8719 86.4885C11.5319 84.4885 11.9819 83.3285 11.9819 83.3285C11.9819 83.3285 12.5919 81.5685 13.7719 78.8585C14.9519 76.1485 16.7819 72.4985 19.3119 68.9185C21.8419 65.3485 25.1619 61.9385 28.8019 59.6585C30.6119 58.5085 32.4819 57.6285 34.2619 56.9885C36.0419 56.3585 37.7419 55.9985 39.2019 55.7485C43.6319 55.1185 47.0319 55.4285 49.5819 55.8085C52.1319 56.2285 53.8819 56.6585 55.2019 57.0285C59.2019 58.1485 62.6919 59.5085 65.9119 60.8685C69.1319 62.2185 72.0419 63.6685 74.9019 65.0485V65.0285Z" fill="#101214"/>
</svg>
