<svg width="226" height="222" viewBox="0 0 226 222" fill="none" xmlns="http://www.w3.org/2000/svg">
<path d="M148.442 182.784C148.802 184.414 152.142 184.414 152.492 182.774C152.982 180.444 153.232 178.004 153.242 174.874C153.072 171.324 152.372 170.444 152.442 168.034C152.422 163.964 153.322 157.104 153.552 155.454C153.582 155.214 153.592 154.964 153.572 154.724C153.442 152.974 152.912 145.294 153.152 138.684C153.152 134.014 153.152 131.134 153.152 129.624C153.152 126.064 152.822 123.404 152.252 120.814C151.942 119.394 149.032 119.264 148.642 120.714C147.942 123.344 147.582 126.014 147.542 129.594C147.532 130.984 146.722 133.874 146.582 137.954C146.562 138.614 146.612 139.284 146.742 139.944C147.832 145.634 147.552 153.014 147.552 153.014C147.552 153.014 147.582 164.034 147.592 168.684C147.612 172.184 147.632 173.874 147.632 174.904C147.672 178.034 147.942 180.474 148.452 182.794L148.442 182.784Z" fill="#101214"/>
<path d="M119.192 150.154C117.562 150.514 117.562 153.854 119.202 154.204C121.532 154.694 123.972 154.944 127.102 154.954C130.652 154.784 131.532 154.084 133.942 154.154C138.012 154.134 144.872 155.034 146.522 155.264C146.762 155.294 147.012 155.304 147.252 155.284C149.002 155.154 156.682 154.624 163.292 154.864C167.952 154.864 170.842 154.864 172.352 154.864C175.912 154.864 178.572 154.534 181.162 153.964C182.582 153.654 182.712 150.744 181.252 150.354C178.622 149.654 175.952 149.294 172.372 149.254C170.982 149.244 168.092 148.434 164.012 148.294C163.352 148.274 162.682 148.324 162.022 148.454C156.332 149.544 148.952 149.264 148.952 149.264C148.952 149.264 137.932 149.294 133.282 149.304C129.782 149.324 128.102 149.344 127.062 149.344C123.932 149.384 121.492 149.654 119.172 150.164L119.192 150.154Z" fill="#101214"/>
<path d="M95.742 86.5142C96.222 87.0542 96.682 87.4942 97.122 87.8442C97.552 88.2042 97.922 88.4942 98.292 88.6942C99.012 89.0942 99.612 89.1542 100.002 88.9142C100.392 88.6642 100.562 88.1042 100.422 87.2442C100.342 86.8142 100.212 86.3042 99.952 85.7442C99.682 85.1942 99.322 84.5842 98.852 83.9242C93.342 76.5942 84.662 70.9442 72.802 68.2342C66.042 66.8342 61.742 66.8642 58.062 66.9142C54.382 67.0042 51.222 67.2342 46.692 67.6542C44.772 67.8542 42.752 68.0642 40.512 68.4642C39.962 68.5542 39.402 68.6442 38.832 68.7342C38.262 68.8142 37.692 68.9242 37.122 69.0842C35.982 69.3742 34.822 69.6642 33.652 69.9642C29.012 71.3742 24.352 73.6042 20.452 76.4742C16.552 79.3242 13.382 82.6842 11.212 85.7042C10.612 86.4242 10.192 87.1942 9.71197 87.8742C9.27197 88.5642 8.81197 89.1942 8.47197 89.8042C7.79197 91.0242 7.23197 92.0242 6.83197 92.7342C6.40197 93.5942 6.02197 94.4842 5.66197 95.3742C5.01197 96.9442 3.99197 99.8842 2.95197 103.824C1.96197 107.774 1.07197 112.734 0.551965 118.274C0.0219654 123.814 -0.0980347 129.934 0.0719653 136.184C0.171965 139.314 0.341965 142.474 0.571965 145.624C0.691965 147.194 0.821965 148.754 0.941965 150.314C1.00197 151.084 1.07197 151.854 1.13197 152.624L1.22197 153.754L1.29197 154.644L1.35197 155.724C1.41197 155.934 1.55197 156.434 1.69197 156.924C1.76197 157.134 1.79197 157.374 1.90197 157.564C2.00197 157.764 2.16197 157.944 2.32197 158.114C2.64197 158.434 3.00197 158.704 3.41197 158.924C4.22197 159.374 5.19197 159.604 6.13197 159.814C6.47197 159.874 6.80197 159.944 7.14197 160.004C7.41197 160.044 7.68197 160.094 7.95197 160.134C8.48197 160.204 8.99197 160.274 9.51197 160.344C11.542 160.594 13.422 160.754 15.212 160.894C18.782 161.164 21.932 161.334 24.712 161.464C30.282 161.724 34.362 161.844 37.172 161.934C50.412 162.294 60.302 162.064 70.012 161.514C75.352 161.194 75.352 158.284 70.042 157.904C60.372 157.184 50.512 156.724 37.342 156.324C34.782 156.244 30.842 155.924 25.692 155.464C23.122 155.224 20.252 154.954 17.082 154.654C15.512 154.494 13.872 154.324 12.182 154.114C11.342 154.004 10.492 153.894 9.64197 153.774C9.23197 153.704 8.81197 153.634 8.39197 153.564C8.18197 153.524 7.97197 153.484 7.79197 153.444C7.79197 153.444 7.79197 153.444 7.77197 153.444C7.77197 153.424 7.76197 153.494 7.74197 153.384L7.62197 152.384C7.53197 151.734 7.45197 151.074 7.36197 150.424C6.61197 145.234 6.03197 139.694 5.83197 134.264C5.61197 128.834 5.75197 123.544 6.20197 118.944C6.62197 114.334 7.39197 110.444 8.03197 107.724C8.38197 106.374 8.61197 105.274 8.86197 104.564C9.08197 103.834 9.20197 103.444 9.20197 103.444C9.20197 103.444 9.38197 102.854 9.69197 101.794C9.88197 101.274 10.102 100.644 10.372 99.9042C10.632 99.1642 10.932 98.3342 11.342 97.4442C12.832 93.8442 15.362 89.0442 19.262 84.7742C23.092 80.4342 28.542 77.0642 34.072 75.1142C34.412 74.9842 34.752 74.8442 35.102 74.7342C35.452 74.6442 35.802 74.5442 36.152 74.4542C36.852 74.2642 37.542 74.0742 38.212 73.8942C38.882 73.6842 39.572 73.5842 40.252 73.4642C40.922 73.3442 41.582 73.2342 42.232 73.1142C44.842 72.6642 47.362 72.4442 49.422 72.2642C55.672 71.7742 60.362 72.0842 63.872 72.4342C67.382 72.8442 69.772 73.2742 71.552 73.6942C82.412 76.1742 90.082 80.6042 95.732 86.5042L95.742 86.5142Z" fill="#101214"/>
<path d="M53.412 44.3342C51.832 44.5142 50.942 45.3242 50.842 46.2542C50.742 47.1642 51.572 48.2142 53.452 48.3842C56.082 48.5842 58.812 48.4842 61.772 47.7042C64.702 46.9642 67.892 45.5142 70.722 42.8742C72.292 41.3442 73.292 39.8542 73.992 38.5242C74.722 37.2042 75.122 36.0142 75.462 34.9242C76.092 32.7142 76.392 30.8342 76.702 28.1042C76.922 25.7942 76.902 23.1042 76.542 20.3142C76.182 17.5242 75.432 14.6042 74.202 11.9942C72.992 9.37417 71.322 7.08417 69.642 5.47417C67.982 3.83417 66.382 2.86417 65.502 2.32417C64.962 2.03417 64.422 1.74417 63.852 1.54417C62.832 1.17417 60.912 0.534166 58.352 0.214166C55.782 -0.125834 52.662 -0.0858341 49.262 0.514166C47.552 0.814166 45.762 1.31417 43.972 2.02417C42.182 2.73417 40.382 3.67417 38.752 4.92417C35.442 7.37417 32.882 10.9842 31.502 14.7142C30.562 17.3742 30.192 19.8642 30.032 22.0742C29.902 24.2842 30.022 26.2342 30.222 27.9442C30.632 31.3742 31.502 33.8642 32.162 35.5242C33.762 39.4642 36.362 42.4942 39.232 44.4942C40.682 45.4742 42.192 46.2142 43.712 46.7442C45.242 47.2242 46.752 47.5842 48.262 47.6842C49.932 47.8242 50.802 47.0442 50.862 46.2442C50.932 45.4142 50.272 44.5642 48.952 44.1342C44.122 42.5442 39.912 39.4942 37.362 33.3742C36.892 32.1842 36.402 30.2142 36.272 27.5642C36.152 24.9142 36.282 21.5742 37.312 18.1442C37.672 17.0442 37.992 15.9342 38.432 14.8842C38.892 13.7442 39.492 12.6042 40.302 11.5942C41.112 10.5842 42.082 9.67417 43.162 8.89417C45.352 7.38417 47.952 6.46417 50.342 6.07417C52.742 5.66417 54.872 5.68417 56.322 5.83417C57.042 5.92417 57.612 6.00417 58.002 6.07417C58.382 6.16417 58.592 6.20417 58.592 6.20417C58.592 6.20417 58.912 6.25417 59.452 6.39417C59.722 6.47417 60.052 6.56417 60.442 6.68417C60.822 6.80417 61.242 6.98417 61.712 7.15417C63.552 7.91417 65.902 9.38417 67.772 11.7542C69.662 14.1042 70.922 17.3142 71.522 20.4642C72.112 23.6342 72.082 26.6842 71.762 28.8142C71.282 32.0642 70.282 34.2342 69.352 35.7342C68.412 37.2342 67.572 38.1242 66.902 38.7542C64.862 40.6742 62.582 41.8842 60.292 42.7142C58.022 43.5642 55.702 44.0242 53.442 44.3042L53.412 44.3342Z" fill="#101214"/>
<path d="M195.912 112.824C199.202 117.404 201.182 119.634 202.062 119.194C202.472 118.984 202.542 118.134 202.152 116.644C201.972 115.894 201.642 115.004 201.162 113.984C200.922 113.474 200.662 112.914 200.352 112.344C200.022 111.774 199.662 111.174 199.252 110.534C194.642 103.374 188.532 96.8342 180.692 91.3742C172.842 85.9942 163.202 81.5542 151.582 79.9242C145.002 79.0742 139.522 79.4542 134.942 80.2342C130.352 81.0842 126.622 82.3942 123.332 83.9542C116.872 87.1842 111.822 90.6642 105.452 96.7942C105.122 97.1242 104.782 97.4542 104.442 97.7842C104.122 98.1342 103.792 98.4842 103.462 98.8442C102.812 99.5642 102.122 100.274 101.462 101.034C100.192 102.594 98.832 104.164 97.612 105.904C95.092 109.324 92.722 113.104 90.672 117.154C88.602 121.194 86.802 125.464 85.362 129.854C83.892 134.234 82.912 138.744 82.182 143.124C81.412 147.514 81.132 151.844 81.032 155.924C81.032 157.964 81.032 159.954 81.182 161.854C81.252 163.764 81.492 165.584 81.702 167.314C82.582 174.244 84.362 179.534 85.452 182.434C85.782 183.294 86.112 184.144 86.472 184.994L87.692 187.474C89.202 190.374 92.212 195.794 97.852 201.604C100.702 204.444 104.122 207.454 108.262 210.054C112.372 212.674 117.092 215.034 122.292 216.874C127.482 218.704 133.142 220.074 139.062 220.674C144.982 221.294 151.132 221.244 157.272 220.474C163.412 219.714 169.542 218.214 175.382 216.154C176.872 215.724 178.292 215.064 179.732 214.494L181.882 213.614C182.602 213.324 183.322 213.034 184.002 212.664C185.392 211.974 186.772 211.274 188.142 210.584C188.842 210.264 189.502 209.864 190.152 209.454L192.122 208.264C199.472 203.714 205.332 198.294 209.762 192.784C214.212 187.264 217.262 181.694 219.492 176.624C223.702 166.334 224.862 158.184 225.362 152.674C225.942 146.134 225.752 139.974 225.092 134.214C224.432 128.444 223.282 123.054 221.712 118.024C218.572 107.994 214.182 99.1042 207.592 91.8942C206.742 90.8742 205.772 90.1442 205.012 89.5042C204.252 88.8542 203.492 88.4342 202.872 88.1342C201.632 87.5342 200.892 87.4542 200.652 87.7842C200.412 88.1142 200.662 88.8442 201.402 89.8842C201.782 90.3942 202.282 90.9842 202.832 91.7442C203.382 92.4942 204.142 93.2542 204.872 94.2542C210.472 101.284 214.202 109.854 216.842 119.434C218.172 124.234 219.132 129.354 219.662 134.804C220.202 140.254 220.322 146.044 219.762 152.164C219.352 156.894 218.112 164.264 214.372 173.074C212.442 177.434 209.932 182.174 206.382 186.804C202.812 191.414 198.282 195.954 192.692 199.954C189.092 202.624 185.162 204.834 181.192 206.914C180.672 207.214 180.112 207.474 179.552 207.714C178.992 207.964 178.432 208.214 177.862 208.454C176.732 208.944 175.592 209.464 174.432 209.944C173.242 210.364 172.052 210.774 170.852 211.194C169.642 211.584 168.452 212.094 167.212 212.384C165.982 212.714 164.742 213.054 163.512 213.384L159.742 214.144C158.492 214.434 157.212 214.534 155.942 214.724L154.032 214.974C153.392 215.034 152.762 215.064 152.122 215.114C150.852 215.174 149.582 215.344 148.312 215.304H144.532C143.282 215.224 142.042 215.144 140.802 215.064C139.562 215.004 138.362 214.774 137.152 214.634C132.352 213.934 127.772 212.844 123.682 211.304C115.472 208.284 109.132 204.054 105.212 200.524C104.242 199.624 103.382 198.814 102.622 198.104C101.922 197.344 101.322 196.684 100.842 196.154C100.352 195.624 99.972 195.224 99.752 194.914C99.522 194.614 99.402 194.464 99.402 194.464C99.402 194.464 99.222 194.234 98.882 193.804C98.552 193.364 98.002 192.754 97.402 191.884C96.832 191.004 96.062 189.974 95.282 188.704C94.552 187.404 93.632 185.974 92.852 184.264C89.422 177.614 86.552 167.364 86.572 155.874C86.552 150.144 87.192 144.154 88.452 138.264C89.712 132.404 91.692 126.684 94.132 121.414C96.572 116.154 99.502 111.364 102.602 107.294C105.702 103.224 108.982 99.8942 111.982 97.3142C116.492 93.4142 120.982 90.7142 125.022 88.7842C129.062 86.9342 132.812 85.9942 136.092 85.4942C139.382 84.9742 142.212 84.9142 144.632 84.9542C147.062 84.9842 149.082 85.2142 150.832 85.4342C161.412 86.8942 170.372 90.8442 177.802 95.6242C185.222 100.484 191.182 106.294 195.922 112.764L195.912 112.824Z" fill="#101214"/>
</svg>
