<svg width="232" height="232" viewBox="0 0 232 232" fill="none" xmlns="http://www.w3.org/2000/svg">
<path d="M72.2125 31.1625C72.5625 31.9725 75.9125 31.9725 76.2625 31.1625C76.7625 30.0125 77.0225 28.8125 77.0425 27.2625C76.8825 25.5125 76.1925 25.0725 76.2725 23.8825C76.2725 21.8725 77.2025 18.4825 77.4325 17.6725C77.4625 17.5525 77.4725 17.4325 77.4625 17.3125C77.3325 16.4425 76.8325 12.6525 77.0725 9.3825C77.0725 7.0725 77.0526 5.6425 77.0526 4.9025C77.0226 3.1425 76.6826 1.8225 76.0526 0.5325C75.7026 -0.1775 72.7926 -0.1775 72.4426 0.5325C71.8026 1.8225 71.4626 3.1425 71.4426 4.9025C71.4426 5.5825 70.6425 7.0125 70.5025 9.0225C70.4825 9.3525 70.5326 9.6825 70.6626 10.0025C71.7526 12.8125 71.4426 16.4525 71.4426 16.4525C71.4426 16.4525 71.4325 21.8925 71.4225 24.1825C71.4225 25.9125 71.4326 26.7425 71.4426 27.2525C71.4626 28.8025 71.7326 30.0025 72.2326 31.1525L72.2125 31.1625Z" fill="#101214"/>
<path d="M72.2125 231.413C72.5625 232.133 75.9125 232.133 76.2625 231.413C76.7625 230.393 77.0225 229.323 77.0425 227.953C76.8825 226.393 76.1925 226.013 76.2725 224.953C76.2725 223.173 77.2025 220.163 77.4325 219.443C77.4625 219.333 77.4725 219.233 77.4625 219.123C77.3325 218.353 76.8325 214.993 77.0725 212.093C77.0725 210.043 77.0526 208.783 77.0526 208.113C77.0226 206.553 76.6826 205.383 76.0526 204.233C75.7026 203.603 72.7926 203.603 72.4426 204.233C71.8026 205.383 71.4626 206.543 71.4426 208.113C71.4426 208.723 70.6425 209.983 70.5025 211.773C70.4825 212.063 70.5326 212.353 70.6626 212.643C71.7526 215.133 71.4426 218.373 71.4426 218.373C71.4426 218.373 71.4325 223.203 71.4225 225.233C71.4225 226.763 71.4326 227.503 71.4426 227.963C71.4626 229.333 71.7326 230.403 72.2326 231.423L72.2125 231.413Z" fill="#101214"/>
<path d="M114.923 31.1625C115.273 31.9725 118.623 31.9725 118.973 31.1625C119.473 30.0125 119.733 28.8125 119.753 27.2625C119.593 25.5125 118.903 25.0725 118.983 23.8825C118.983 21.8725 119.913 18.4825 120.143 17.6725C120.173 17.5525 120.183 17.4325 120.173 17.3125C120.043 16.4425 119.543 12.6525 119.783 9.3825C119.783 7.0725 119.763 5.6425 119.763 4.9025C119.733 3.1425 119.393 1.8225 118.763 0.5325C118.413 -0.1775 115.503 -0.1775 115.153 0.5325C114.513 1.8225 114.173 3.1425 114.153 4.9025C114.153 5.5825 113.353 7.0125 113.213 9.0225C113.193 9.3525 113.243 9.6825 113.373 10.0025C114.463 12.8125 114.153 16.4525 114.153 16.4525C114.153 16.4525 114.143 21.8925 114.133 24.1825C114.133 25.9125 114.143 26.7425 114.153 27.2525C114.173 28.8025 114.443 30.0025 114.943 31.1525L114.923 31.1625Z" fill="#101214"/>
<path d="M114.923 231.413C115.273 232.133 118.623 232.133 118.973 231.413C119.473 230.393 119.733 229.323 119.753 227.953C119.593 226.393 118.903 226.013 118.983 224.953C118.983 223.173 119.913 220.163 120.143 219.443C120.173 219.333 120.183 219.233 120.173 219.123C120.043 218.353 119.543 214.993 119.783 212.093C119.783 210.043 119.763 208.783 119.763 208.113C119.733 206.553 119.393 205.383 118.763 204.233C118.413 203.603 115.503 203.603 115.153 204.233C114.513 205.383 114.173 206.543 114.153 208.113C114.153 208.723 113.353 209.983 113.213 211.773C113.193 212.063 113.243 212.353 113.373 212.643C114.463 215.133 114.153 218.373 114.153 218.373C114.153 218.373 114.143 223.203 114.133 225.233C114.133 226.763 114.143 227.503 114.153 227.963C114.173 229.333 114.443 230.403 114.943 231.423L114.923 231.413Z" fill="#101214"/>
<path d="M157.632 31.1625C157.982 31.9725 161.332 31.9725 161.682 31.1625C162.182 30.0125 162.442 28.8125 162.462 27.2625C162.302 25.5125 161.612 25.0725 161.692 23.8825C161.692 21.8725 162.622 18.4825 162.852 17.6725C162.882 17.5525 162.892 17.4325 162.882 17.3125C162.752 16.4425 162.252 12.6525 162.492 9.3825C162.492 7.0725 162.472 5.6425 162.472 4.9025C162.442 3.1425 162.102 1.8225 161.472 0.5325C161.122 -0.1775 158.212 -0.1775 157.862 0.5325C157.222 1.8225 156.882 3.1425 156.862 4.9025C156.862 5.5825 156.062 7.0125 155.922 9.0225C155.902 9.3525 155.952 9.6825 156.082 10.0025C157.172 12.8125 156.862 16.4525 156.862 16.4525C156.862 16.4525 156.852 21.8925 156.842 24.1825C156.842 25.9125 156.852 26.7425 156.862 27.2525C156.882 28.8025 157.152 30.0025 157.652 31.1525L157.632 31.1625Z" fill="#101214"/>
<path d="M157.632 231.413C157.982 232.133 161.332 232.133 161.682 231.413C162.182 230.393 162.442 229.323 162.462 227.953C162.302 226.393 161.612 226.013 161.692 224.953C161.692 223.173 162.622 220.163 162.852 219.443C162.882 219.333 162.892 219.233 162.882 219.123C162.752 218.353 162.252 214.993 162.492 212.093C162.492 210.043 162.472 208.783 162.472 208.113C162.442 206.553 162.102 205.383 161.472 204.233C161.122 203.603 158.212 203.603 157.862 204.233C157.222 205.383 156.882 206.543 156.862 208.113C156.862 208.723 156.062 209.983 155.922 211.773C155.902 212.063 155.952 212.353 156.082 212.643C157.172 215.133 156.862 218.373 156.862 218.373C156.862 218.373 156.852 223.203 156.842 225.233C156.842 226.763 156.852 227.503 156.862 227.963C156.882 229.333 157.152 230.403 157.652 231.423L157.632 231.413Z" fill="#101214"/>
<path d="M0.5325 156.263C-0.1775 156.613 -0.1775 159.963 0.5325 160.313C1.5425 160.813 2.5925 161.073 3.9525 161.093C5.4925 160.933 5.8725 160.243 6.9125 160.323C8.6725 160.323 11.6425 161.253 12.3625 161.483C12.4725 161.513 12.5725 161.523 12.6825 161.503C13.4425 161.373 16.7725 160.873 19.6325 161.113C21.6525 161.113 22.9125 161.093 23.5625 161.093C25.1025 161.063 26.2625 160.723 27.3925 160.093C28.0125 159.743 28.0125 156.833 27.3925 156.483C26.2625 155.843 25.1025 155.503 23.5625 155.483C22.9625 155.483 21.7125 154.683 19.9425 154.543C19.6525 154.523 19.3625 154.573 19.0825 154.703C16.6225 155.793 13.4225 155.493 13.4225 155.493C13.4225 155.493 8.6525 155.483 6.6425 155.473C5.1225 155.473 4.3925 155.483 3.9525 155.493C2.5925 155.513 1.5425 155.783 0.5325 156.283V156.263Z" fill="#101214"/>
<path d="M0.5325 114.233C-0.1775 114.583 -0.1775 117.933 0.5325 118.283C1.5425 118.783 2.5925 119.043 3.9525 119.063C5.4925 118.903 5.8725 118.213 6.9125 118.293C8.6725 118.293 11.6425 119.223 12.3625 119.453C12.4725 119.483 12.5725 119.493 12.6825 119.483C13.4425 119.353 16.7725 118.853 19.6325 119.093C21.6525 119.093 22.9125 119.073 23.5625 119.073C25.1025 119.043 26.2625 118.703 27.3925 118.073C28.0125 117.723 28.0125 114.813 27.3925 114.463C26.2625 113.823 25.1025 113.483 23.5625 113.463C22.9625 113.463 21.7125 112.663 19.9425 112.523C19.6525 112.503 19.3625 112.553 19.0825 112.683C16.6225 113.773 13.4225 113.463 13.4225 113.463C13.4225 113.463 8.6525 113.453 6.6425 113.443C5.1225 113.443 4.3925 113.453 3.9525 113.463C2.5925 113.483 1.5425 113.753 0.5325 114.253V114.233Z" fill="#101214"/>
<path d="M204.502 156.263C203.792 156.613 203.792 159.963 204.502 160.313C205.512 160.813 206.562 161.073 207.922 161.093C209.462 160.933 209.842 160.243 210.882 160.323C212.642 160.323 215.612 161.253 216.332 161.483C216.442 161.513 216.542 161.523 216.652 161.503C217.412 161.373 220.742 160.873 223.602 161.113C225.622 161.113 226.882 161.093 227.532 161.093C229.072 161.063 230.232 160.723 231.362 160.093C231.982 159.743 231.982 156.833 231.362 156.483C230.232 155.843 229.072 155.503 227.532 155.483C226.932 155.483 225.682 154.683 223.912 154.543C223.622 154.523 223.332 154.573 223.052 154.703C220.592 155.793 217.392 155.493 217.392 155.493C217.392 155.493 212.622 155.483 210.612 155.473C209.092 155.473 208.362 155.483 207.922 155.493C206.562 155.513 205.512 155.783 204.502 156.283V156.263Z" fill="#101214"/>
<path d="M204.502 114.233C203.792 114.583 203.792 117.933 204.502 118.283C205.512 118.783 206.562 119.043 207.922 119.063C209.462 118.903 209.842 118.213 210.882 118.293C212.642 118.293 215.612 119.223 216.332 119.453C216.442 119.483 216.542 119.493 216.652 119.483C217.412 119.353 220.742 118.853 223.602 119.093C225.622 119.093 226.882 119.073 227.532 119.073C229.072 119.043 230.232 118.703 231.362 118.073C231.982 117.723 231.982 114.813 231.362 114.463C230.232 113.823 229.072 113.483 227.532 113.463C226.932 113.463 225.682 112.663 223.912 112.523C223.622 112.503 223.332 112.553 223.052 112.683C220.592 113.773 217.392 113.463 217.392 113.463C217.392 113.463 212.622 113.453 210.612 113.443C209.092 113.443 208.362 113.453 207.922 113.463C206.562 113.483 205.512 113.753 204.502 114.253V114.233Z" fill="#101214"/>
<path d="M0.462505 72.2125C-0.147495 72.5625 -0.147495 75.9125 0.462505 76.2625C1.3225 76.7625 2.2325 77.0225 3.3925 77.0425C4.7125 76.8825 5.0425 76.1925 5.9325 76.2725C7.4425 76.2725 9.9925 77.2025 10.6125 77.4325C10.7025 77.4625 10.7925 77.4725 10.8825 77.4525C11.5325 77.3225 14.3925 76.8225 16.8525 77.0625C18.5925 77.0625 19.6625 77.0425 20.2225 77.0425C21.5525 77.0225 22.5425 76.6725 23.5125 76.0425C24.0425 75.6925 24.0425 72.7825 23.5125 72.4325C22.5425 71.7925 21.5525 71.4525 20.2225 71.4325C19.7025 71.4325 18.6325 70.6325 17.1225 70.4925C16.8725 70.4725 16.6325 70.5225 16.3825 70.6525C14.2725 71.7425 11.5225 71.4325 11.5225 71.4325C11.5225 71.4325 7.4325 71.4225 5.7025 71.4125C4.4025 71.4125 3.7725 71.4225 3.3925 71.4325C2.2225 71.4525 1.3225 71.7225 0.462505 72.2225V72.2125Z" fill="#101214"/>
<path d="M204.422 72.2125C203.812 72.5625 203.812 75.9125 204.422 76.2625C205.282 76.7625 206.192 77.0225 207.352 77.0425C208.672 76.8825 209.002 76.1925 209.892 76.2725C211.402 76.2725 213.952 77.2025 214.572 77.4325C214.662 77.4625 214.752 77.4725 214.842 77.4525C215.492 77.3225 218.352 76.8225 220.812 77.0625C222.552 77.0625 223.622 77.0425 224.182 77.0425C225.512 77.0225 226.502 76.6725 227.472 76.0425C228.002 75.6925 228.002 72.7825 227.472 72.4325C226.502 71.7925 225.512 71.4525 224.182 71.4325C223.662 71.4325 222.592 70.6325 221.082 70.4925C220.832 70.4725 220.592 70.5225 220.342 70.6525C218.232 71.7425 215.482 71.4325 215.482 71.4325C215.482 71.4325 211.392 71.4225 209.662 71.4125C208.362 71.4125 207.732 71.4225 207.352 71.4325C206.182 71.4525 205.282 71.7225 204.422 72.2225V72.2125Z" fill="#101214"/>
<path d="M160.522 202.552C176.962 202.202 176.962 198.852 160.522 198.502C137.212 198.002 112.722 197.742 81.2425 197.722C63.4025 197.802 52.2625 198.012 42.5625 198.192C40.8625 198.232 39.2425 197.542 38.0825 196.342C37.5025 195.752 37.0625 195.022 36.7725 194.242C36.6325 193.852 36.5225 193.442 36.4725 193.012L36.4325 192.692L36.3925 192.262L36.3225 191.372C35.9525 186.592 35.5925 181.522 35.2225 175.492C32.5725 134.732 29.0425 65.9024 28.2025 49.3224L27.9925 45.6424V45.4224L27.9825 45.2824V45.0124C27.9625 44.8324 28.0125 44.6524 28.0125 44.4724C28.0525 44.1124 28.1425 43.7624 28.2525 43.4124C28.4525 42.8024 28.8425 42.0824 29.5125 41.4424C29.8325 41.1124 30.2325 40.8124 30.7025 40.5824C31.1625 40.3324 31.6925 40.1424 32.2725 40.0724C32.4125 40.0324 32.5625 40.0324 32.7225 40.0224C32.8725 40.0224 33.0025 39.9924 33.3025 40.0024C33.8125 40.0024 34.3425 40.0024 34.8825 40.0024C35.9625 40.0024 37.0825 39.9924 38.2525 39.9824C40.5925 39.9724 43.1125 39.9524 45.8025 39.9424C56.5525 39.8924 69.9225 39.8324 84.8125 39.7524C114.602 39.6424 150.502 39.5724 183.722 39.6924C189.562 39.6924 195.132 39.6924 200.432 39.6924C202.132 39.7224 203.722 40.5724 204.682 41.8824C205.162 42.5324 205.482 43.2724 205.642 44.0324C205.692 44.2224 205.722 44.4124 205.722 44.6124C205.752 44.8024 205.752 45.0024 205.742 45.1924V45.4924L205.712 45.9424L205.652 46.8424C205.032 56.3824 204.482 64.8624 204.002 72.3624C203.032 87.3524 202.322 98.3824 201.832 105.952C200.682 123.832 199.762 139.452 198.992 153.892C198.632 161.112 198.282 168.032 197.942 174.792C197.792 178.172 197.642 181.512 197.492 184.822C197.422 186.482 197.352 188.132 197.282 189.782L197.182 192.252C197.172 192.702 197.132 192.982 197.112 193.292C197.052 193.592 197.022 193.912 196.922 194.202C196.572 195.522 195.872 196.572 195.142 197.342C194.412 198.122 193.642 198.662 192.982 199.042C191.652 199.812 190.752 200.102 190.762 200.542C190.742 200.892 191.682 201.492 193.692 201.212C194.682 201.062 195.932 200.632 197.192 199.702C198.442 198.782 199.702 197.302 200.362 195.262C200.532 194.802 200.622 194.322 200.722 193.852C200.792 193.372 200.862 192.862 200.882 192.482L201.102 190.022C201.242 188.382 201.392 186.732 201.532 185.082C201.812 181.772 202.092 178.442 202.382 175.072C202.922 168.332 203.472 161.422 204.042 154.212C205.142 139.792 206.252 124.182 207.422 106.312C207.872 99.3624 208.772 88.6724 209.902 74.6024C210.452 67.5724 211.072 59.6924 211.752 51.0224C211.832 49.9424 211.912 48.8424 212.002 47.7324C212.042 47.1824 212.082 46.6224 212.132 46.0624C212.142 45.9424 212.152 45.7524 212.152 45.5524V44.9624C212.182 44.5724 212.122 44.1724 212.102 43.7824C211.782 40.6224 210.092 37.5524 207.442 35.5624C206.122 34.5624 204.572 33.8224 202.912 33.4524C202.502 33.3624 202.072 33.3024 201.652 33.2424C201.232 33.2024 200.802 33.1824 200.382 33.1624C199.762 33.1624 199.142 33.1624 198.522 33.1524C196.052 33.1424 193.542 33.1324 190.982 33.1224C184.312 33.1024 177.642 33.1524 171.032 33.2824C113.942 34.3724 39.8125 34.0624 39.8125 34.0624C39.8125 34.0624 38.0825 34.0624 34.9725 34.0624H33.0725C32.8325 34.0624 32.4925 34.0824 32.2025 34.1024C30.9825 34.1924 29.6525 34.4824 28.3425 35.0824C25.7425 36.2524 23.2225 38.7824 22.2825 42.3024C22.0625 43.1824 21.9225 44.1024 21.9225 45.0424V45.7524L21.9625 46.3324C21.9825 46.7024 22.0125 47.0724 22.0325 47.4524C22.1325 48.9624 22.2325 50.5324 22.3325 52.1524C22.5425 55.4024 22.7725 58.8724 23.0025 62.5124C23.4725 69.8024 23.9925 77.7924 24.5325 86.1424C26.7025 119.562 29.2425 158.802 30.7525 182.092C30.8925 184.282 31.0325 186.402 31.1625 188.462C31.2325 189.492 31.2925 190.502 31.3625 191.492C31.3925 191.992 31.4225 192.482 31.4625 192.972C31.5125 193.572 31.5925 194.222 31.7425 194.822C32.3125 197.262 33.6825 199.412 35.5025 200.872C37.3025 202.362 39.5125 203.192 41.6825 203.352L42.4925 203.392H43.1225C43.5325 203.392 43.9425 203.392 44.3425 203.392C45.1525 203.392 45.9425 203.392 46.7225 203.392C48.2825 203.392 49.7825 203.392 51.2225 203.392C54.1125 203.392 56.7825 203.392 59.2725 203.392C69.1925 203.392 76.0225 203.392 81.2225 203.392C112.702 203.372 137.192 203.102 160.502 202.602L160.522 202.552Z" fill="#101214"/>
<path d="M103.922 56.5225C91.9625 56.8725 91.9625 60.2225 103.922 60.5725C120.882 61.0725 138.702 61.3325 161.602 61.3525C164.842 61.3225 167.792 61.2925 170.482 61.2725C171.832 61.2525 173.112 61.2325 174.352 61.2225C174.662 61.2225 174.962 61.2225 175.262 61.2125C175.562 61.2125 175.902 61.2025 176.052 61.2125C176.442 61.2125 176.822 61.2625 177.192 61.3325C178.652 61.6425 179.882 62.5125 180.642 63.6025C181.432 64.6825 181.772 65.9425 181.752 67.1725C181.482 74.2125 181.242 80.2325 180.642 89.0025C179.682 103.832 178.162 123.732 176.742 141.442C176.022 150.292 175.352 158.592 174.792 165.442C174.652 167.152 174.512 168.772 174.392 170.282C174.372 170.472 174.362 170.662 174.342 170.842C174.322 171.022 174.302 171.092 174.292 171.212C174.272 171.442 174.202 171.652 174.162 171.862C174.032 172.272 173.892 172.662 173.682 172.992C172.902 174.372 171.712 175.042 170.882 175.322C170.382 175.502 169.862 175.582 169.332 175.602H169.132L168.812 175.612H168.142H166.802C160.402 175.662 143.172 175.782 121.492 175.942C110.652 175.982 98.7025 176.022 86.4425 176.062H65.6025H64.4425C64.2225 176.062 64.1425 176.052 64.0025 176.042C63.8825 176.032 63.7525 176.042 63.6325 176.012C63.1425 175.962 62.6625 175.812 62.2025 175.642C61.7525 175.442 61.3225 175.202 60.9225 174.902C60.1525 174.292 59.5325 173.482 59.1925 172.572C59.0225 172.112 58.8925 171.652 58.8625 171.162C58.8325 170.982 58.8125 170.522 58.7925 170.162L58.7225 169.032C56.5025 134.962 55.1325 113.882 54.4125 102.862C53.5525 89.8625 52.7225 78.5025 51.8825 68.0225C51.8625 67.7125 51.8225 67.3225 51.8125 67.0825C51.8125 66.8625 51.7725 66.6425 51.8125 66.4225C51.8325 65.9825 51.8925 65.5425 52.0125 65.1325C52.2425 64.2925 52.6625 63.5025 53.2325 62.8425C53.8025 62.1725 54.5225 61.6525 55.3125 61.3025C55.7125 61.1325 56.1225 60.9825 56.5525 60.9125C56.7625 60.8625 56.9825 60.8225 57.2025 60.8225L57.5325 60.7925H57.9825C62.9025 60.6325 67.7025 60.4925 72.4825 60.3625C82.9825 60.0125 82.9825 57.1025 72.4825 56.7525C67.7025 56.6125 62.9025 56.4725 57.9825 56.3325H57.5125H56.9425C56.5625 56.3325 56.1825 56.3725 55.8025 56.4325C55.0425 56.5325 54.2925 56.7425 53.5725 57.0125C52.1325 57.5725 50.7825 58.4425 49.7025 59.5925C48.6125 60.7425 47.7725 62.1525 47.2825 63.7025C47.0225 64.4725 46.8825 65.2825 46.8125 66.1025C46.7625 66.5125 46.7925 66.9225 46.7825 67.3325C46.7825 67.7325 46.8125 68.0025 46.8225 68.3525C47.3325 78.8625 47.9825 90.2225 48.8125 103.232C49.4625 113.342 50.0325 134.442 51.8225 164.182C51.9725 166.622 52.1225 168.992 52.3225 171.472C52.5925 174.872 54.4225 178.092 57.1425 180.032C58.6025 181.082 60.3125 181.822 62.1125 182.122C62.5625 182.172 63.0125 182.262 63.4725 182.262L64.1525 182.282C64.3825 182.282 64.5025 182.282 64.6825 182.282C65.3425 182.272 66.0125 182.252 66.6825 182.242C69.3625 182.192 72.0725 182.142 74.7925 182.082C80.2425 182.002 85.7525 181.922 91.2025 181.842C102.102 181.722 112.732 181.652 122.072 181.622C140.742 181.562 154.232 181.642 154.232 181.642C154.232 181.642 159.262 181.642 167.332 181.642H168.882C169.112 181.642 169.522 181.622 169.852 181.612C170.202 181.612 170.552 181.542 170.902 181.492C172.312 181.262 173.742 180.742 175.042 179.922C177.622 178.292 179.722 175.352 180.092 171.892L180.162 171.262L180.192 170.762C180.212 170.432 180.232 170.092 180.262 169.752C180.302 169.072 180.352 168.392 180.392 167.692C180.482 166.302 180.572 164.892 180.672 163.452C180.862 160.572 181.052 157.602 181.252 154.562C182.832 130.252 184.692 101.702 185.792 84.7525C186.202 78.3725 186.562 72.8225 186.872 67.9625L186.902 67.5025V66.9225C186.922 66.5325 186.912 66.1525 186.862 65.7725C186.832 65.3925 186.782 65.0125 186.702 64.6525C186.632 64.2825 186.552 63.9225 186.432 63.5725C186.002 62.1625 185.302 60.9025 184.442 59.8425C182.732 57.7025 180.362 56.4425 178.072 55.9625C176.932 55.7225 175.692 55.7325 174.972 55.7325C174.142 55.7325 173.332 55.7325 172.562 55.7325C171.022 55.7325 169.602 55.7325 168.302 55.7325C165.682 55.7325 163.502 55.7325 161.602 55.7325C138.702 55.7525 120.882 56.0225 103.922 56.5225Z" fill="#101214"/>
</svg>
