<svg width="175" height="197" viewBox="0 0 175 197" fill="none" xmlns="http://www.w3.org/2000/svg">
<path d="M62.3782 160.98C61.7982 162.19 62.0782 163.29 62.7982 163.87C63.5182 164.44 64.7482 164.43 65.7682 163.18C67.1882 161.42 68.4482 159.33 69.2182 156.76C69.6082 155.48 69.8582 154.08 69.9382 152.59C69.9882 151.1 69.8582 149.51 69.4782 147.89C68.4282 144.25 66.9182 142.43 65.6682 140.97C64.3682 139.53 63.1882 138.44 61.4582 136.9C59.9682 135.64 58.1482 134.24 55.9982 133.08C53.8682 131.9 51.4182 130.94 48.9182 130.54C46.4382 130.11 43.9682 130.21 41.9982 130.62C40.0182 131.02 38.5582 131.66 37.7482 132.01C37.2682 132.22 36.8282 132.5 36.3882 132.78C35.9882 133.03 35.4882 133.45 34.8382 133.94C34.2282 134.48 33.4782 135.1 32.7282 135.9C31.2182 137.49 29.5782 139.54 28.1582 142.22C26.7582 144.88 25.6782 148.23 25.6382 151.8C25.6082 155.38 26.7082 158.98 28.4182 161.92C29.6682 163.98 31.0882 165.6 32.4382 166.91C33.1182 167.57 33.7882 168.15 34.4482 168.67C34.7582 168.91 35.0482 169.14 35.3382 169.37C35.6482 169.6 35.9382 169.83 36.2282 170.05C36.8482 170.5 37.5182 170.95 38.2782 171.32C38.4682 171.41 38.6582 171.5 38.8582 171.58C39.0082 171.64 39.1482 171.69 39.2882 171.75C39.5482 171.85 39.8082 171.95 40.0482 172.04C41.0282 172.4 41.8782 172.68 42.5682 172.89C45.8582 173.86 49.0782 174.26 52.0682 173.77C55.0582 173.35 57.6882 172 59.6682 170.24C60.7582 169.24 60.7082 168.15 60.1582 167.56C59.5982 166.95 58.6082 166.76 57.5982 167.28C53.8182 169.12 49.7882 169.22 44.1882 167.51C43.6482 167.34 42.9682 167.07 42.1682 166.69C41.9682 166.59 41.7582 166.49 41.5382 166.38C41.3382 166.28 41.0482 166.15 40.9682 166.08C40.7082 165.91 40.3982 165.67 40.0282 165.34C39.5982 164.95 39.1482 164.53 38.6682 164.1C38.1982 163.67 37.7482 163.22 37.2882 162.73C36.3682 161.76 35.4582 160.65 34.6282 159.41C34.1182 158.59 33.5682 157.81 33.0882 157C32.0082 155.26 31.4082 153.1 31.4682 150.92C31.5382 148.74 32.2382 146.6 33.1882 144.84C34.1382 143.09 35.2782 141.69 36.1182 140.8C36.9682 139.9 37.5282 139.46 37.5282 139.46C37.5282 139.46 37.7282 139.29 38.0982 138.99C38.4582 138.67 39.0182 138.27 39.7182 137.82C40.4282 137.37 41.2982 136.91 42.3082 136.54C43.3182 136.18 44.4682 135.9 45.6982 135.8C48.1582 135.57 50.8982 136.2 53.2782 137.32C55.6682 138.44 57.6982 140.01 59.0382 141.27C61.0582 143.19 62.1682 144.87 62.8582 146.19C63.5382 147.52 63.7982 148.5 64.0082 149.24C64.2782 150.37 64.3982 151.45 64.4282 152.5C64.4282 153.55 64.3482 154.55 64.1682 155.52C63.8182 157.46 63.1682 159.26 62.3482 160.99L62.3782 160.98Z" fill="#101214"/>
<path d="M170.608 20.49C171.688 28.88 175.018 28.59 174.638 20.14C174.498 17.4 174.358 14.62 174.218 11.77C174.138 10.34 174.048 8.9 173.968 7.43C173.788 5 173.618 2.53 173.438 0C169.008 0.51 164.378 1.05 159.468 1.62C155.588 2.1 151.498 2.6 147.148 3.14C145.218 3.41 143.448 3.66 141.998 3.87C140.028 4.17 138.508 4.4 137.648 4.52C136.928 5.44 136.228 6.32 135.558 7.17C135.128 7.73 134.708 8.27 134.308 8.8C133.508 9.85 132.758 10.83 132.048 11.75C130.638 13.61 129.388 15.25 128.188 16.84C125.778 20.01 123.528 22.92 120.418 26.7C107.178 43 84.1082 69.92 78.5482 76.39C77.7282 77.35 76.9182 78.32 76.1382 79.32C75.7882 79.76 75.3582 80.3 74.8682 80.93C74.6182 81.24 74.3582 81.58 74.0782 81.93L73.8682 82.2C73.8682 82.2 73.8682 82.21 73.8582 82.22V82.24C73.8582 82.24 73.8582 82.31 73.7682 82.28C73.9782 82.37 73.0482 82.02 72.4582 81.84C71.7982 81.65 71.1182 81.45 70.4082 81.25C69.0182 80.8 67.4682 80.53 65.8782 80.17C65.0782 80.01 64.2382 79.91 63.3882 79.77C62.9582 79.71 62.5282 79.64 62.0982 79.58C61.6582 79.54 61.2182 79.5 60.7682 79.47C57.1982 79.11 53.2682 79.15 49.2182 79.75C41.0982 80.88 32.4882 84.47 25.2982 90.13C23.5182 91.56 21.7382 93.01 20.0982 94.61C18.4482 96.2 16.8782 97.87 15.3982 99.6C12.4382 103.06 9.7782 106.74 7.5182 110.62C4.4282 116.14 2.3182 121.58 1.1982 126.69C0.0581967 131.8 -0.161803 136.51 0.0981966 140.63C0.798197 148.89 3.0882 154.64 4.8382 158.35C9.0882 167.17 14.8682 173.58 20.7082 178.56C26.5882 183.53 32.6582 187.27 39.1082 189.96C42.6782 191.42 44.7882 191.21 45.0382 190.45C45.3082 189.66 43.8382 188.36 40.6282 186.69C34.8082 183.6 29.3682 179.68 24.0682 174.77C18.8182 169.86 13.6882 163.85 9.9082 155.94C8.4482 152.89 6.6582 147.86 6.2082 141.09C6.0382 137.71 6.1982 133.91 7.0082 129.83C7.8482 125.75 9.3382 121.42 11.5782 117C12.9682 114.1 14.6582 111.31 16.4282 108.59C18.3482 105.66 20.5982 102.76 23.1082 100.07C24.3682 98.73 25.6782 97.43 27.0882 96.24C28.4482 94.99 29.9382 93.91 31.3982 92.82C37.3882 88.65 44.1682 86.03 50.3582 85.31C56.5382 84.43 61.9682 85.25 65.6982 86.07C67.5782 86.46 69.0282 86.95 70.0282 87.26C70.5282 87.41 70.9182 87.53 71.1682 87.64C71.4282 87.74 71.5582 87.79 71.5582 87.79C71.5582 87.79 72.9382 88.3 75.4182 89.22C75.7882 89.52 75.9682 89.05 76.2182 88.78C76.4582 88.48 76.7182 88.17 76.9782 87.84C77.4782 87.22 78.0282 86.55 78.6082 85.83C79.3282 84.95 80.1382 83.95 81.0382 82.84C84.6382 78.41 89.5982 72.31 95.0282 65.63C105.888 52.27 118.638 36.58 126.208 27.26L140.488 9.66L147.838 8.71C152.188 8.12 156.268 7.57 160.138 7.05C162.068 6.77 163.948 6.51 165.788 6.25C166.248 6.18 166.698 6.12 167.158 6.05L167.638 5.98L167.858 5.94C168.168 5.88 168.478 5.82 168.778 5.77C168.818 6.02 168.858 6.27 168.898 6.52L168.958 6.91L169.008 7.31L169.068 7.86C169.238 9.32 169.398 10.76 169.568 12.18C169.918 15.02 170.258 17.77 170.588 20.5L170.608 20.49Z" fill="#101214"/>
<path d="M113.168 103.98C109.278 104.58 109.498 107.92 113.428 108.02C116.218 108.09 119.068 108.1 122.158 108.03C123.708 108 125.308 107.95 126.998 107.87C127.838 107.83 128.708 107.79 129.588 107.75C130.788 107.68 132.018 107.61 133.288 107.53C134.298 107.49 135.148 107.22 135.748 106.89C136.358 106.56 136.918 106.05 137.308 105.45C137.698 104.85 137.928 104.19 137.988 103.59C138.058 103.01 137.998 102.44 137.848 101.82C137.698 101.21 137.388 100.6 137.148 100.03C137.028 99.75 136.898 99.47 136.778 99.19L136.608 98.81L136.508 98.59C136.228 98.01 135.968 97.47 135.708 96.95C134.688 94.87 133.828 93.09 132.808 90.4C132.458 89.49 132.088 88.52 131.678 87.46C131.478 86.93 131.268 86.37 131.058 85.79C130.918 85.41 130.918 85.4 130.878 85.29C130.848 85.19 130.818 85.09 130.788 84.99C130.718 84.69 130.508 84.33 130.838 84.09C130.978 83.98 131.178 83.98 131.348 84.04L131.828 84.17C132.038 84.22 131.888 84.23 132.668 84.35C133.238 84.45 133.808 84.55 134.378 84.65C135.508 84.85 136.608 85.05 137.668 85.23C139.788 85.62 141.718 85.97 143.328 86.26C144.128 86.41 144.848 86.54 145.468 86.66C145.778 86.72 146.058 86.77 146.308 86.82C146.748 86.89 147.148 86.96 147.488 87.01L149.378 87.29C149.908 87.34 150.418 87.34 150.858 87.25C151.338 87.16 151.798 87.02 152.348 86.73C152.898 86.43 153.558 85.93 154.088 85.18C154.348 84.81 154.568 84.37 154.718 83.92C154.868 83.46 154.948 83.04 154.958 82.46C154.998 81.91 154.868 81.22 154.648 80.51C154.428 79.79 154.198 79.04 153.958 78.25C153.048 75.3 151.798 71.29 150.168 66.02C150.138 65.96 150.018 65.83 150.078 65.68C150.158 65.52 150.378 65.6 150.578 65.59C152.148 65.72 153.868 65.85 155.638 66C157.438 66.16 159.308 66.33 161.128 66.49L165.038 66.8C165.798 66.84 166.458 66.74 167.008 66.57C167.278 66.48 167.508 66.38 167.748 66.28C167.958 66.17 168.188 66.05 168.408 65.88C169.338 65.25 170.088 63.99 170.208 62.88C170.238 62.61 170.248 62.36 170.248 62.12C170.218 61.85 170.218 61.61 170.148 61.32C170.058 60.76 169.798 60.1 169.418 59.45L167.298 56L162.198 47.72C161.758 47.02 161.328 46.33 160.928 45.7C160.858 45.61 160.788 45.52 160.728 45.45C160.788 45.36 160.838 45.26 160.898 45.18C161.328 44.65 161.748 44.14 162.148 43.63C163.048 42.51 163.908 41.44 164.718 40.39C166.348 38.29 167.818 36.29 169.248 34.28C171.248 31.46 169.058 29.55 166.528 31.9C164.728 33.58 162.938 35.31 161.078 37.2C160.148 38.15 159.188 39.13 158.208 40.18C157.678 40.75 157.138 41.33 156.578 41.93C155.718 42.89 154.828 43.87 153.918 44.88C154.878 46.47 156.108 48.51 157.408 50.67C158.258 52.05 159.398 54.27 160.928 57.16C161.318 57.88 161.718 58.65 162.148 59.46L162.308 59.76C162.308 59.76 162.308 59.79 162.308 59.81V59.88C162.308 59.88 162.298 59.96 162.278 59.98C162.258 60.03 162.218 60.06 162.138 60.05C162.068 60.05 162.018 59.99 162.008 59.97V59.96L160.998 59.91C160.208 59.87 159.418 59.86 158.628 59.86C156.218 59.86 153.688 59.81 151.178 59.73L149.578 59.64C149.018 59.61 148.448 59.56 147.918 59.59C146.858 59.71 146.128 59.93 145.368 60.49C144.618 61.05 144.068 61.92 143.878 62.76C143.708 63.56 143.728 64.44 144.008 65.44C144.788 67.96 145.528 70.37 146.198 72.56C146.758 74.45 147.268 76.15 147.688 77.58C147.898 78.3 148.078 78.94 148.248 79.51C148.308 79.73 148.358 79.91 148.398 80.06C148.448 80.28 148.478 80.4 148.478 80.4C148.568 80.6 148.508 80.87 148.298 80.98C148.088 81.09 147.858 80.98 147.638 80.98L136.718 79.57L133.718 79.18L131.798 78.93C130.938 78.84 130.048 78.66 129.238 78.66C128.428 78.69 127.798 78.82 127.208 79.08C126.598 79.35 125.988 79.86 125.598 80.49C125.188 81.12 124.998 81.83 124.998 82.45C124.978 83.07 125.048 83.85 125.368 84.66L128.868 93.56C130.188 96.89 131.158 99.36 131.908 101.25C132.088 101.53 132.018 101.87 131.788 101.97C131.568 102.06 131.368 102.02 131.208 102.05C129.618 102.17 128.118 102.29 126.688 102.4C125.008 102.54 123.408 102.7 121.868 102.86C118.798 103.19 115.968 103.56 113.208 103.98H113.168Z" fill="#101214"/>
<path d="M55.4882 190.77C52.2982 190.56 51.5282 193.82 54.7982 194.76C59.3982 196.04 64.4782 196.93 71.1282 196.49C74.8882 196.1 77.1782 195.38 79.1182 194.7C81.0582 193.98 82.6782 193.33 85.0282 192.34C87.0082 191.5 89.2782 190.34 91.4982 188.93C93.7282 187.54 95.9082 185.87 97.8382 184.28C99.7682 182.7 101.578 181.07 102.968 179.65C103.668 178.94 104.278 178.3 104.778 177.75C105.258 177.23 105.638 176.81 105.918 176.51C106.218 176.19 106.518 175.85 106.818 175.48C107.328 174.83 108.338 173.62 109.738 171.97C111.128 170.3 112.898 168.31 114.788 165.58C115.028 165.22 115.258 164.86 115.498 164.45L115.858 163.81C115.968 163.6 116.038 163.43 116.128 163.23C116.468 162.47 116.828 161.7 117.178 160.91C117.568 160.14 117.828 159.3 118.128 158.46C118.408 157.62 118.768 156.79 118.978 155.91C120.008 152.44 120.538 148.76 120.778 145.21C120.938 140.18 120.208 136.17 119.518 133.09C119.338 132.32 119.158 131.6 118.998 130.93C118.798 130.27 118.608 129.67 118.438 129.1C118.268 128.54 118.108 128.02 117.958 127.56C117.788 127.1 117.638 126.69 117.498 126.32C114.868 119.29 111.658 114.66 108.158 110.58C106.188 108.34 103.878 110.11 105.178 112.62C107.508 117.22 109.888 121.84 112.228 128.24C112.348 128.55 112.468 128.91 112.588 129.31C112.688 129.72 112.788 130.17 112.908 130.66C113.138 131.64 113.388 132.79 113.548 134.11C113.978 136.72 114.248 139.97 114.198 143.69C114.178 144.3 114.238 144.91 114.198 145.51C114.178 146.11 114.168 146.72 114.198 147.32C114.198 147.65 114.208 147.98 114.218 148.31C114.188 148.64 114.168 148.97 114.138 149.31C114.078 149.98 114.018 150.67 113.958 151.35C113.858 152.03 113.698 152.71 113.568 153.39C113.428 154.07 113.308 154.76 113.078 155.41C112.658 156.73 112.278 158.06 111.698 159.25C111.428 159.86 111.168 160.46 110.908 161.04C110.668 161.51 110.388 161.97 110.058 162.44C108.738 164.33 107.258 165.96 106.238 167.1C105.188 168.24 104.568 168.92 104.568 168.92C104.568 168.92 103.648 169.92 102.158 171.64C101.788 172.08 101.378 172.56 100.938 173.11C100.528 173.62 100.138 174.13 99.6882 174.67C98.7982 175.74 97.7982 176.86 96.6782 177.99C95.5682 179.11 94.3182 180.27 93.0482 181.38C91.7982 182.5 90.4982 183.5 89.2182 184.42C86.6382 186.23 84.0282 187.52 82.0282 188.33C75.9182 190.61 72.6182 190.65 70.6982 190.87C64.7782 191.31 60.0582 191.02 55.5082 190.75L55.4882 190.77Z" fill="#101214"/>
</svg>
