<svg width="189" height="228" viewBox="0 0 189 228" fill="none" xmlns="http://www.w3.org/2000/svg">
<path d="M160.286 15.822C162.366 13.442 162.846 11.692 162.196 11.032C161.546 10.372 159.746 10.832 157.386 12.992C150.716 19.132 144.046 25.922 136.006 35.112C131.526 40.392 128.926 43.852 126.666 46.862C124.416 49.882 122.516 52.462 119.576 56.112C114.656 62.312 108.036 70.642 102.356 78.242C96.6563 85.822 91.8763 92.632 90.0563 95.302C89.5163 96.092 88.9863 96.882 88.4963 97.712C86.7163 100.642 81.9663 108.552 76.5463 118.822C71.1363 129.102 65.2063 141.822 60.7763 154.082C57.6863 162.752 55.8463 170.012 54.6163 175.802C53.9863 178.692 53.5863 181.242 53.2163 183.412C52.9363 185.602 52.6463 187.422 52.5063 188.922C51.7663 195.972 51.7863 202.232 52.3463 207.952C52.9163 213.672 54.0263 218.872 55.6263 223.832C57.5563 229.272 60.2863 228.222 59.1163 222.922C58.1863 218.022 57.6163 213.042 57.4063 207.602C57.1963 202.162 57.3563 196.262 58.0863 189.532C58.6363 184.302 60.9963 173.532 66.0763 158.872L67.3063 155.282C67.7063 154.082 68.0963 152.882 68.4863 151.692C71.7763 141.332 77.0763 129.912 81.6863 121.242C86.3163 112.572 90.1163 106.552 90.1163 106.552C90.1163 106.552 95.5563 97.452 102.846 86.862C110.086 76.242 119.256 64.222 124.876 57.232C133.326 46.692 137.636 41.812 140.236 38.782C148.186 29.662 154.376 22.562 160.266 15.802L160.286 15.822Z" fill="#101214"/>
<path d="M57.6963 131.652C56.9463 132.972 56.3763 133.982 56.0663 134.802C55.7363 135.592 55.7163 136.232 56.0063 136.592C56.2963 136.952 56.9163 137.022 57.8563 136.662C58.7763 136.282 59.9763 135.402 61.0863 133.862C64.2063 129.432 65.5763 124.112 66.1463 118.582C66.7063 113.002 66.4663 107.052 65.6763 100.512C64.6463 93.1119 63.4863 88.6319 62.5363 84.7319C61.5563 80.8319 60.7263 77.5119 59.5163 72.6519C57.4463 64.4219 53.8663 53.3619 48.2263 44.4619C45.4463 40.0119 42.1563 36.1719 38.9963 33.4319C35.8363 30.6919 32.9863 28.9019 31.3163 28.0719L30.1863 27.5119L28.8163 26.8419L28.1363 26.5119L27.7963 26.3519L27.6263 26.2719L27.5363 26.2319C27.5363 26.2319 27.4863 26.2619 27.4563 26.2719L26.1763 27.0919C25.5263 27.5119 24.7263 28.0319 23.8063 28.6219C23.5163 28.8119 23.2163 29.0119 22.8863 29.2319C22.5763 29.4719 22.2563 29.7219 21.9063 29.9919C21.2263 30.5319 20.4463 31.0919 19.6763 31.7819C18.9163 32.4819 18.0963 33.2319 17.2163 34.0319C13.8363 37.3419 10.1963 42.0019 7.24628 47.7519C6.88628 48.4719 6.49628 49.1919 6.13628 49.9419C5.80628 50.7019 5.47628 51.4619 5.14628 52.2419C4.97628 52.6319 4.81628 53.0219 4.64628 53.4119C4.50628 53.8119 4.35628 54.2119 4.20628 54.6119C3.91628 55.4219 3.62628 56.2319 3.33628 57.0519C2.31628 60.3719 1.38628 63.8419 0.876283 67.4319C-0.213717 74.6019 -0.433717 82.0019 1.06628 89.2419C1.52628 91.7719 2.35628 94.0319 3.00628 96.2419C3.41628 97.3019 3.82628 98.3419 4.21628 99.3519C4.41628 99.8519 4.60628 100.352 4.80628 100.842C5.01628 101.322 5.24628 101.782 5.46628 102.252C6.34628 104.092 7.13628 105.862 8.06628 107.422C8.95628 109.002 9.74628 110.512 10.6563 111.832C14.0263 117.272 17.1563 120.812 19.2463 123.262C24.3363 128.942 29.5863 133.172 34.7863 136.462C39.9663 139.822 45.3063 141.942 50.6663 143.472C56.6963 144.932 57.1563 142.032 51.8063 140.042C46.9663 138.012 42.2363 135.632 37.5963 132.232C32.9363 128.902 28.1763 124.852 23.4463 119.532C22.5663 118.462 21.4063 117.142 20.1763 115.422C18.9863 113.672 17.5363 111.682 16.1663 109.242C13.3563 104.442 10.2463 98.2019 8.14628 90.5919C7.51628 88.1119 6.94628 85.6419 6.60628 83.1919C5.85628 77.7419 5.94628 71.6019 7.02628 65.8419C8.07628 60.0519 10.0463 54.6019 12.4063 50.1719C14.7463 45.7219 17.4563 42.3319 19.5263 40.1019C20.5863 39.0119 21.4163 38.1219 22.0663 37.6119C22.6863 37.0719 23.0263 36.7719 23.0263 36.7719C23.0263 36.7719 23.1463 36.6619 23.3863 36.4519C23.6163 36.2319 23.9863 35.9419 24.4663 35.5819C24.9463 35.2219 25.5263 34.7719 26.2063 34.2619C26.5563 34.0119 26.9463 33.7919 27.3463 33.5219C27.4963 33.4319 27.6463 33.3319 27.8163 33.2219C27.9363 33.0619 28.1063 33.2619 28.2363 33.3019C28.6263 33.4919 29.0363 33.6819 29.4563 33.8819C30.0063 34.1719 30.5363 34.5319 31.1063 34.8619C31.6663 35.2119 32.2763 35.5219 32.8163 35.9619C35.1263 37.5319 37.3963 39.6419 39.5963 42.0119C41.7363 44.4519 43.7163 47.2519 45.4963 50.2019C47.2063 53.2019 48.7663 56.3219 50.0463 59.4519C52.6463 65.6819 54.3063 71.7919 55.4163 76.3519C58.6263 90.2819 59.5663 97.1019 60.0963 101.242C60.8763 107.532 61.2263 113.132 60.9763 118.222C60.7063 123.292 59.8163 127.922 57.6863 131.712L57.6963 131.652Z" fill="#101214"/>
<path d="M76.3163 146.912C75.2763 145.682 74.4663 144.812 73.7263 144.322C72.9863 143.832 72.3663 143.702 71.9663 143.922C71.5663 144.142 71.3763 144.722 71.5063 145.642C71.6363 146.552 72.0663 147.852 73.0263 149.262C75.6763 153.342 78.8063 157.162 82.4863 161.012C86.1963 164.832 90.4563 168.692 95.5963 172.592C96.3363 173.132 97.0463 173.642 97.7163 174.132C98.3963 174.612 99.0763 175.042 99.7063 175.462C100.986 176.282 102.126 177.072 103.256 177.692C104.376 178.322 105.396 178.912 106.356 179.452C107.336 179.972 108.286 180.412 109.176 180.862C112.776 182.622 115.936 183.952 120.726 185.602C121.756 185.902 122.836 186.222 123.956 186.552C125.116 186.772 126.316 187.002 127.546 187.232C129.966 187.542 132.446 187.812 135.026 187.912C140.166 188.162 145.546 187.952 150.566 187.282C160.666 186.032 169.136 182.462 172.266 180.792L173.666 180.072L175.006 179.212C175.786 178.682 176.946 177.992 178.256 176.902C178.916 176.362 179.686 175.832 180.426 175.132C181.166 174.432 181.976 173.682 182.826 172.882C183.606 172.002 184.436 171.062 185.306 170.072C185.746 169.462 186.196 168.842 186.656 168.202C187.016 167.702 187.376 167.202 187.736 166.692L188.286 165.932L188.426 165.742L188.496 165.642C188.496 165.642 188.476 165.572 188.466 165.532L188.286 165.092C187.836 164.012 187.376 162.912 186.916 161.782C186.776 161.442 186.626 161.102 186.486 160.762C186.326 160.422 186.146 160.092 185.976 159.762C185.626 159.092 185.276 158.412 184.906 157.712C184.546 157.022 184.096 156.372 183.676 155.692C180.326 150.232 175.426 145.102 169.716 140.872C163.966 136.662 157.366 133.432 150.736 131.292C146.036 129.822 141.606 129.092 137.666 128.592C133.796 128.152 130.346 127.872 127.286 127.692C121.176 127.332 116.646 127.362 113.536 127.452C106.196 127.672 99.7363 128.492 93.8863 130.082C90.9663 130.882 88.1963 131.872 85.5963 133.132C82.9963 134.392 80.5563 135.932 78.4363 137.882C77.8563 138.412 77.3863 138.932 77.0563 139.432C76.7063 139.922 76.4663 140.362 76.3463 140.772C76.0763 141.572 76.1563 142.112 76.4663 142.362C77.1463 142.882 78.5563 142.242 80.7163 140.672C82.7163 139.232 84.9663 138.122 87.3763 137.212C89.7863 136.302 92.3563 135.582 95.0863 135.012C100.546 133.862 106.656 133.262 113.696 133.072C116.426 133.002 120.666 133.172 126.206 133.692C128.976 133.952 132.076 134.302 135.466 134.762C137.186 134.972 138.886 135.292 140.656 135.592C141.546 135.712 142.436 135.972 143.356 136.162C144.266 136.382 145.206 136.542 146.136 136.842C148.576 137.502 150.996 138.242 153.376 139.052C158.506 140.802 163.746 143.562 168.256 147.052C172.796 150.512 176.466 154.802 179.006 158.922C179.316 159.442 179.666 159.932 179.926 160.452C180.196 160.972 180.456 161.482 180.706 161.972C180.946 162.472 181.236 162.942 181.416 163.442C181.566 163.802 181.706 164.152 181.846 164.492L181.926 164.692C181.946 164.762 182.016 164.832 181.946 164.882C181.866 164.992 181.786 165.102 181.706 165.202C181.486 165.502 181.266 165.792 181.066 166.072C180.846 166.402 180.556 166.662 180.326 166.942C179.346 168.022 178.586 168.892 177.956 169.392C177.356 169.922 177.036 170.212 177.036 170.212C177.036 170.212 176.916 170.322 176.686 170.532C176.466 170.752 176.126 171.042 175.646 171.392C175.176 171.742 174.606 172.182 173.946 172.682C173.296 173.202 172.446 173.662 171.576 174.242C168.016 176.462 162.666 178.992 156.396 180.592C150.136 182.212 143.066 183.052 136.496 182.942C134.856 182.852 133.236 182.882 131.686 182.712C130.136 182.552 128.576 182.492 127.256 182.192C126.576 182.072 125.906 181.952 125.256 181.832C124.606 181.692 123.976 181.472 123.366 181.302C122.756 181.122 122.166 180.952 121.596 180.782C121.026 180.612 120.486 180.362 119.966 180.172C119.186 179.872 118.426 179.572 117.696 179.292C116.966 178.992 116.276 178.632 115.606 178.322C114.936 178.002 114.286 177.702 113.656 177.402C113.036 177.102 112.446 176.752 111.876 176.442C110.746 175.802 109.656 175.272 108.706 174.662C107.746 174.072 106.856 173.522 106.036 173.012C102.776 170.902 100.606 169.332 98.9863 168.092C89.1663 160.602 82.0863 153.892 76.3263 146.892L76.3163 146.912Z" fill="#101214"/>
<path d="M78.4762 92.0119C78.9062 93.9319 79.6262 95.2819 80.2162 96.1219C80.8262 96.9619 81.3862 97.2919 81.8362 97.1619C82.2762 97.0319 82.5962 96.4319 82.7162 95.4319C82.8462 94.4219 82.6862 93.0319 82.4462 91.1919C81.6362 86.0019 81.3362 80.6019 81.6662 74.7819C82.0062 68.9719 82.9662 62.7219 85.0062 55.9819C87.3862 48.3619 89.6362 43.8719 91.6862 40.0219C92.8362 38.1819 93.7962 36.3819 95.1162 34.6719C95.4362 34.2319 95.7562 33.7919 96.0862 33.3419C96.4162 32.8819 96.7662 32.4319 97.1662 31.9919C97.9562 31.1019 98.7862 30.1719 99.6962 29.1519C102.916 25.8519 106.976 22.2319 111.706 19.1319C116.426 16.0319 121.676 13.3519 126.806 11.3419C131.926 9.27189 136.976 8.10189 141.106 7.28189C145.266 6.54189 148.566 6.34189 150.406 6.22189C151.496 6.21189 152.576 6.17189 153.666 6.10189C154.416 6.02189 155.396 6.05189 157.416 6.10189C157.916 6.11189 158.486 6.12189 159.126 6.14189C159.766 6.21189 160.476 6.28189 161.276 6.37189C162.076 6.47189 162.966 6.52189 163.936 6.69189C164.416 6.79189 164.926 6.89189 165.456 7.00189C165.726 7.05189 165.996 7.11189 166.276 7.17189L166.386 7.19189H166.406H166.456C166.476 7.19189 166.506 7.17189 166.526 7.19189C166.526 7.19189 166.556 7.23189 166.576 7.26189C166.686 7.51189 166.796 7.77189 166.916 8.04189C167.186 8.70189 167.536 9.40189 167.806 10.1919C168.056 10.9919 168.336 11.8519 168.626 12.7619C169.666 16.4219 170.656 21.0919 170.656 26.4019C170.726 31.6919 170.046 37.5519 168.546 43.4119C167.056 49.2719 164.776 55.1219 161.976 60.4819C157.136 69.9019 151.646 76.6319 146.956 81.4919C142.246 86.3719 138.266 89.4019 135.536 91.4319C122.366 100.712 110.546 104.642 98.8262 105.422C98.0162 105.502 97.3062 105.552 96.6962 105.612C96.0862 105.692 95.5662 105.802 95.1462 105.942C94.3062 106.222 93.8462 106.602 93.8062 107.002C93.7662 107.412 94.1462 107.842 94.9762 108.212C95.3962 108.402 95.9162 108.572 96.5662 108.732C97.2062 108.892 97.9662 109.022 98.8362 109.022C111.446 109.532 124.736 105.882 138.826 95.9819C141.506 93.9819 145.756 91.0219 150.686 86.3219C155.596 81.6319 161.216 75.1919 166.176 66.5819C166.946 65.1619 167.696 63.7219 168.426 62.2919C169.086 60.8219 169.706 59.3319 170.316 57.8519C172.106 53.0519 173.756 47.9019 174.816 42.5919C175.856 37.2919 176.396 31.8919 176.366 26.7419C176.296 21.5919 175.546 16.7519 174.556 12.5419C174.246 11.5019 173.936 10.5019 173.646 9.54189C173.496 9.06189 173.356 8.59189 173.216 8.13189C173.066 7.67189 172.866 7.24189 172.696 6.81189C172.296 5.84189 171.916 4.91189 171.556 4.03189C171.316 3.41189 170.996 2.86189 170.566 2.46189C170.106 2.04189 169.596 1.85189 169.016 1.68189C167.786 1.42189 166.686 1.19189 165.726 0.99189C165.316 0.90189 164.946 0.83189 164.596 0.75189C164.246 0.69189 163.936 0.66189 163.646 0.62189C162.516 0.48189 161.906 0.41189 161.906 0.41189C161.906 0.41189 161.066 0.32189 159.556 0.14189C158.796 0.11189 157.876 0.0818897 156.796 0.0518897C155.726 0.0218897 154.496 -0.0481103 153.156 0.0518897C147.776 0.14189 140.396 1.11189 132.696 3.50189C124.986 5.85189 116.996 9.58189 110.196 14.0719C103.356 18.5219 97.7862 23.7419 94.1262 28.0319C88.5162 34.4619 85.4962 40.0919 83.4562 44.4119C82.9062 45.4819 82.4962 46.5119 82.1162 47.4519C81.7262 48.4019 81.3762 49.2719 81.0462 50.0719C80.4862 51.7219 80.0162 53.0919 79.6162 54.2819C77.4262 61.5619 76.5562 68.3219 76.4662 74.5519C76.3862 80.7919 77.1062 86.5419 78.4662 91.9619L78.4762 92.0119Z" fill="#101214"/>
</svg>
