<svg width="200" height="170" viewBox="0 0 200 170" fill="none" xmlns="http://www.w3.org/2000/svg">
<path d="M1.09627 164.634C-0.453734 165.044 -0.323734 168.394 1.25627 168.674C3.49627 169.084 5.83627 169.254 8.83627 169.154C12.2263 168.864 13.0463 168.134 15.3463 168.124C19.2363 167.964 25.8363 168.634 27.4263 168.804C27.6663 168.834 27.8963 168.824 28.1263 168.804C29.7963 168.614 37.1263 167.814 43.4563 167.804C47.9263 167.614 50.6863 167.504 52.1363 167.444C55.5463 167.284 58.0863 166.844 60.5563 166.104C61.9163 165.704 61.8063 162.794 60.4163 162.494C57.8863 161.954 55.3263 161.714 51.9163 161.824C50.5863 161.874 47.7963 161.184 43.8963 161.194C43.2563 161.194 42.6263 161.274 42.0063 161.424C36.6163 162.724 29.5463 162.704 29.5463 162.704C29.5463 162.704 19.0163 163.114 14.5663 163.284C11.2163 163.424 9.60627 163.494 8.61627 163.534C5.61627 163.674 3.29627 164.034 1.09627 164.614V164.634Z" fill="#101214"/>
<path d="M69.7263 78.7737C71.5263 78.4237 71.5263 75.0737 69.7263 74.7237C67.1663 74.2237 64.4863 73.9637 61.0363 73.9337C57.1263 74.0837 56.1463 74.7837 53.4963 74.7037C49.0163 74.7037 41.4663 73.7637 39.6463 73.5237C39.3763 73.4937 39.1063 73.4837 38.8363 73.4937C36.9063 73.6137 28.4463 74.1137 21.1663 73.8537C16.0263 73.8537 12.8463 73.8437 11.1763 73.8337C7.25626 73.8337 4.30626 74.1637 1.46626 74.7537C1.36626 74.7737 1.27626 74.8037 1.18626 74.8437C1.16626 74.8437 1.13626 74.8637 1.12626 74.8737L1.14626 74.9137C1.14626 74.9137 1.16626 74.9737 1.16626 75.0037C1.19626 75.1337 1.16626 75.3237 1.09626 75.5037C1.02626 75.6937 0.906259 75.8737 0.776259 76.0537C0.706259 76.1437 0.636259 76.2337 0.576259 76.3137C0.456259 76.4737 0.346259 76.6237 0.236259 76.7737C0.216259 76.8037 0.376259 76.5737 0.306259 76.6837L0.236259 76.8037C0.196259 76.8837 0.156259 76.9737 0.136259 77.0537C0.0862591 77.2237 0.0962591 77.4037 0.186259 77.5837C0.276259 77.7637 0.456259 77.9437 0.716259 78.0837C0.826259 78.1537 1.05626 78.2137 1.11626 78.2537C1.20626 78.2937 1.29626 78.3337 1.39626 78.3537C4.29626 79.0437 7.22626 79.3937 11.1563 79.4437C12.6863 79.4437 15.8663 80.2737 20.3563 80.4237C21.0863 80.4437 21.8163 80.3937 22.5463 80.2737C28.8063 79.2037 36.9363 79.5137 36.9363 79.5137C36.9363 79.5137 49.0663 79.5337 54.1863 79.5437C58.0363 79.5437 59.8963 79.5437 61.0363 79.5337C64.4863 79.5137 67.1763 79.2437 69.7263 78.7537V78.7737Z" fill="#101214"/>
<path d="M76.2463 162.434C65.4363 162.514 65.3462 165.864 76.1462 166.484C91.4662 167.364 107.566 168.034 128.276 168.574C140.026 168.784 147.316 168.774 153.756 168.714C157.316 168.594 160.516 167.824 163.716 166.484C166.886 165.114 170.036 163.074 173.016 159.934C173.966 159.004 174.746 157.884 175.606 156.784C176.346 155.614 177.176 154.444 177.796 153.124C178.506 151.854 179.026 150.474 179.586 149.084C180.026 147.664 180.536 146.224 180.816 144.724C181.196 143.244 181.346 141.694 181.546 140.164C181.626 138.654 181.696 137.114 181.816 135.684C182.036 132.774 182.266 129.854 182.486 126.974C182.946 121.204 183.406 115.584 183.816 110.474C184.236 105.514 184.626 101.064 184.926 97.4637C184.926 97.3937 184.986 97.3537 185.026 97.3137C185.156 97.1937 185.276 97.0737 185.406 96.9637C185.566 96.8137 185.736 96.6737 185.886 96.5537C186.046 96.4237 186.196 96.3137 186.326 96.2137C186.506 96.0937 186.446 96.1437 186.476 96.1237C186.506 96.1137 186.536 96.1137 186.556 96.1237L186.726 96.1137L187.136 96.0637C187.406 96.0337 187.666 95.9937 187.936 95.9237C188.466 95.8037 188.976 95.7337 189.476 95.5537C190.466 95.2637 191.396 94.8837 192.236 94.4437C193.916 93.5537 195.236 92.4038 196.156 91.2738C197.086 90.1538 197.696 89.0737 198.116 88.1537C198.556 87.2237 198.796 86.4337 199.016 85.7437L199.366 84.3137L199.596 82.8937C199.696 81.9637 199.776 81.0138 199.766 80.0238C199.726 78.4138 199.566 76.5337 199.406 73.8237C199.366 72.3037 199.036 70.3138 198.106 68.3838C197.176 66.4438 195.546 64.6538 193.626 63.4238C189.746 60.9538 185.086 60.2738 180.516 60.2638C176.206 60.1738 171.566 60.0738 166.666 59.9638C161.766 59.8538 156.616 59.7338 151.316 59.6038C148.666 59.5338 145.966 59.4738 143.246 59.4038C141.886 59.3738 140.516 59.3338 139.136 59.2938L137.066 59.2438L136.046 59.2138C135.846 59.2138 135.666 59.1937 135.506 59.1637C134.196 58.9237 133.106 57.7037 133.226 56.2337C133.376 53.4437 133.526 50.6438 133.686 47.8538C134.006 42.2738 134.326 36.7037 134.636 31.2537L135.076 22.9437L135.186 20.8637C135.216 20.5537 135.186 20.0737 135.176 19.6437C135.156 19.2037 135.136 18.7537 135.076 18.3737C134.916 16.7437 134.526 15.2238 134.076 13.7238C133.116 10.7538 131.736 7.92375 129.656 5.37375C128.596 4.11375 127.396 2.89375 125.806 1.94375C124.246 0.99375 122.316 0.31375 120.266 0.29375H120.486L117.166 0.06375L116.746 0.03375C116.676 0.03375 116.276 -0.02625 116.096 0.01375L114.916 0.10375C114.526 0.12375 114.156 0.21375 113.776 0.30375C113.406 0.40375 113.016 0.46375 112.666 0.60375C111.216 1.11375 109.926 1.89375 108.816 2.81375C107.746 3.74375 106.796 4.77375 106.056 5.87375C104.526 8.06375 103.516 10.4437 102.886 12.9237C102.546 14.1537 102.366 15.4237 102.236 16.7137C102.186 17.3437 102.166 18.1037 102.166 18.6737L102.216 20.3337C102.316 23.2737 102.406 26.1237 102.506 28.8937C102.536 30.2537 102.656 31.7538 102.566 32.7238C102.496 33.8438 102.306 34.9438 101.996 35.9938C101.406 38.0838 100.336 40.0338 99.0363 41.5838C98.9563 41.6838 98.8963 41.7638 98.7963 41.8638L98.4763 42.1938L97.8363 42.8638C97.4163 43.3038 96.9963 43.7538 96.5763 44.1838C95.7463 45.0638 94.9163 45.9338 94.0963 46.7938C87.5663 53.6838 81.6463 60.0738 75.8263 66.4538C69.4363 73.4638 71.5063 75.5137 78.4163 68.9737C84.7063 63.0237 90.9963 56.9638 97.7863 50.2838C98.6363 49.4438 99.4863 48.6037 100.356 47.7537C100.786 47.3237 101.226 46.8938 101.656 46.4638L102.316 45.8138C102.536 45.6038 102.756 45.3838 103.006 45.0838C104.906 42.9338 106.346 40.4038 107.226 37.5538C107.666 36.1338 107.956 34.6438 108.066 33.1238C108.196 31.4638 108.076 30.2237 108.066 28.8137C107.986 26.0437 107.906 23.1937 107.826 20.2537C107.816 19.6037 107.766 18.8137 107.796 18.1437C107.816 17.5237 107.886 16.8137 108.016 16.0537C108.276 14.5437 108.786 12.8537 109.656 11.1737C110.496 9.50375 111.776 7.83375 113.376 6.86375C114.166 6.36375 115.026 6.13375 115.926 6.10375C116.096 6.04375 117.026 6.19375 117.746 6.23375C118.496 6.30375 119.266 6.37375 120.046 6.44375H120.266C121.256 6.50375 122.386 7.01375 123.566 8.09375C124.746 9.16375 125.856 10.7637 126.726 12.6237C127.586 14.4737 128.316 16.6137 128.556 18.7437C128.576 19.0037 128.626 19.2837 128.636 19.5237L128.666 20.2237C128.666 20.7937 128.596 21.5337 128.556 22.1837C128.476 23.5337 128.396 24.9137 128.306 26.3137C128.046 30.6937 127.866 35.0738 127.766 39.4238C127.626 44.1138 127.486 48.9838 127.336 53.9038L127.276 55.7537C127.226 56.1937 127.276 57.4738 127.476 58.2938C127.896 60.1038 128.896 61.7738 130.306 62.9638C131.696 64.1738 133.496 64.9037 135.316 65.0337L135.966 65.0637H136.436L137.366 65.0837L139.216 65.1137C149.066 65.2637 158.676 65.4737 167.116 65.6837C171.336 65.7937 175.256 65.8937 178.776 65.9837C180.576 66.0437 182.106 66.0337 183.496 66.1937C184.896 66.3237 186.136 66.6037 187.216 66.9037C189.366 67.5437 190.736 68.4437 191.476 69.1537C191.806 69.5337 192.106 69.8038 192.226 70.0238C192.376 70.2338 192.446 70.3438 192.446 70.3438C192.886 71.0938 193.246 71.8937 193.366 72.8337C193.426 73.0437 193.426 73.3137 193.446 73.5737L193.496 74.3537L193.596 76.2137C193.656 77.4437 193.736 78.7137 193.776 79.9137C193.756 80.9437 193.676 82.0737 193.486 83.1137C193.286 84.1437 192.986 85.1337 192.576 86.0137C192.156 86.8837 191.606 87.6337 190.946 88.2637C190.286 88.8837 189.526 89.4037 188.616 89.7437C188.406 89.8537 188.156 89.9037 187.926 89.9837C187.696 90.0637 187.456 90.1437 187.206 90.1837C186.956 90.2337 186.716 90.3038 186.456 90.3438L185.486 90.4737C185.276 90.5137 185.056 90.5237 184.856 90.6137C184.646 90.6537 184.446 90.7337 184.246 90.8237C183.866 91.0137 183.486 91.2437 183.146 91.4837C182.606 91.8737 182.176 92.2237 181.736 92.6237C181.516 92.8237 181.306 93.0237 181.096 93.2437L180.716 93.6437C180.566 93.8037 180.436 93.9737 180.296 94.1437C179.746 94.8037 179.366 95.6037 179.316 96.4637L177.136 130.604L176.866 134.834L176.726 136.944L176.636 138.974C176.476 141.624 176.076 144.184 175.246 146.654C174.426 149.104 173.386 151.504 171.926 153.604C170.486 155.714 168.746 157.614 166.766 159.174C164.716 160.764 162.516 161.804 160.386 162.544C159.846 162.704 159.306 162.854 158.786 163.004C158.266 163.164 157.716 163.194 157.206 163.304C156.166 163.534 155.156 163.534 154.176 163.594C153.716 163.644 153.166 163.624 152.636 163.604C152.106 163.594 151.586 163.574 151.076 163.564C150.056 163.534 149.066 163.514 148.116 163.494C146.216 163.444 144.456 163.404 142.826 163.364C136.306 163.204 131.816 163.094 128.396 163.014C107.706 162.524 91.6063 162.384 76.2663 162.494L76.2463 162.434Z" fill="#101214"/>
<path d="M66.0762 82.9438C65.7662 80.9538 62.4162 80.8938 62.0262 82.8738C61.4762 85.6738 61.1562 88.6238 61.0662 92.4238C61.1462 96.7338 61.8162 97.8138 61.6862 100.734C61.5962 105.664 60.5162 113.964 60.2462 115.964C60.2062 116.264 60.1962 116.554 60.2062 116.854C60.2962 118.984 60.6362 128.304 60.2462 136.314C60.1562 141.974 60.0962 145.484 60.0662 147.314C60.0162 151.634 60.2962 154.874 60.8762 158.054C61.1962 159.804 64.1062 159.854 64.4862 158.124C65.1762 154.964 65.5762 151.744 65.6862 147.414C65.7162 145.734 66.5862 142.244 66.8162 137.314C66.8562 136.514 66.8162 135.704 66.6962 134.904C65.7362 127.994 66.1962 119.054 66.1962 119.054C66.1962 119.054 66.4462 105.704 66.5562 100.074C66.6262 95.8338 66.6562 93.7938 66.6762 92.5338C66.7262 88.7338 66.5062 85.7738 66.0662 82.9538L66.0762 82.9438Z" fill="#101214"/>
<path d="M39.1463 155.554C39.4363 157.474 42.7863 157.584 43.1963 155.684C43.7763 152.984 44.1363 150.144 44.2663 146.484C44.2363 142.324 43.5763 141.274 43.7463 138.464C43.8863 133.714 45.0763 125.724 45.3663 123.804C45.4063 123.524 45.4263 123.234 45.4163 122.944C45.3563 120.894 45.1263 111.904 45.6063 104.184C45.7663 98.7238 45.8663 95.3438 45.9163 93.5838C46.0163 89.4138 45.7763 86.2938 45.2363 83.2138C44.9363 81.5238 42.0263 81.4338 41.6263 83.1038C40.8963 86.1438 40.4563 89.2438 40.2963 93.4138C40.2463 95.0338 39.3363 98.3838 39.0463 103.144C38.9963 103.924 39.0263 104.694 39.1363 105.474C40.0163 112.144 39.4463 120.764 39.4463 120.764C39.4463 120.764 39.0363 133.624 38.8563 139.054C38.7363 143.144 38.6763 145.114 38.6463 146.324C38.5563 149.984 38.7363 152.844 39.1463 155.574V155.554Z" fill="#101214"/>
</svg>
