<svg width="173" height="181" viewBox="0 0 173 181" fill="none" xmlns="http://www.w3.org/2000/svg">
<path d="M144.913 85.71C140.233 91.17 142.663 93.47 147.853 88.49C151.533 84.96 155.263 81.29 159.253 77.26C160.253 76.24 161.263 75.28 162.313 74.04C162.833 73.44 163.363 72.84 163.903 72.23C164.453 71.63 164.873 70.92 165.373 70.25C165.853 69.57 166.353 68.89 166.823 68.17C167.243 67.43 167.673 66.67 168.103 65.91C169.033 64.41 169.633 62.71 170.393 61.02C171.783 57.06 172.503 53.71 172.723 50.8C172.783 50.07 172.843 49.38 172.893 48.71C172.953 48.04 172.893 47.39 172.893 46.76C172.853 45.51 172.903 44.33 172.723 43.21C172.583 42.09 172.483 41.01 172.323 39.94C172.103 38.88 171.893 37.83 171.663 36.74C171.573 36.19 171.413 35.65 171.243 35.1C171.083 34.55 170.923 33.98 170.753 33.4C170.463 32.22 169.973 31.03 169.483 29.72C167.763 25.34 164.983 20.45 161.083 16.18C160.103 15.12 159.103 14.02 158.123 13.1C157.653 12.62 157.093 12.13 156.543 11.64L154.893 10.17C154.363 9.66 153.753 9.24 153.163 8.81C152.573 8.38 151.973 7.95 151.383 7.52C150.803 7.07 150.163 6.73 149.543 6.36C148.923 6 148.293 5.63 147.683 5.27C142.663 2.53 137.393 1.07 132.993 0.47C130.793 0.07 128.793 0.11 127.113 0C125.433 0.02 124.063 0.12 123.073 0.16C121.913 0.23 120.763 0.48 119.613 0.68C117.573 1.08 113.803 2.05 109.213 4.26C106.923 5.37 104.463 6.84 102.003 8.71C100.803 9.68 99.4934 10.62 98.3434 11.83C97.7534 12.41 97.1434 13 96.5334 13.59C95.9434 14.18 95.4334 14.76 94.8734 15.36C90.4234 20.12 85.5234 25.36 80.4834 30.75C77.9534 33.43 75.3834 36.14 72.8334 38.84C71.5634 40.2 70.2534 41.5 69.0234 42.9C67.7934 44.3 66.5734 45.69 65.3634 47.06C63.6634 49.02 62.0434 50.89 60.5134 52.66C58.8834 54.55 57.4934 56.52 56.3334 58.49C54.0134 62.45 52.7334 66.5 52.3034 70.16C51.8634 73.83 52.1634 77.06 52.7434 79.71C53.3234 82.36 54.1034 84.48 54.8434 86.13C56.5834 90.05 58.8534 93.33 61.2634 96.13C63.6734 98.95 66.2534 101.28 68.8634 103.31C70.1634 104.33 71.4834 105.26 72.8034 106.13C73.4534 106.58 74.1334 106.97 74.7934 107.39C75.1034 107.59 75.4934 107.81 75.8834 108.02C76.2634 108.24 76.6734 108.41 77.0734 108.6C80.2934 110 83.8534 110.22 87.0634 109.4C88.8334 108.93 90.0034 108.15 90.6234 107.46C90.9434 107.13 91.1234 106.79 91.2034 106.52C91.2434 106.38 91.2634 106.26 91.2534 106.15C91.2534 106.09 91.2434 106.04 91.2234 105.99C91.2134 105.96 91.2034 105.94 91.1934 105.92L91.1734 105.89L91.0134 105.63L91.1434 105.84V105.82L91.1134 105.79L91.0634 105.73C91.0634 105.73 90.9834 105.66 90.9334 105.63C90.8334 105.57 90.7234 105.52 90.5934 105.48C90.3234 105.4 90.0034 105.4 89.5934 105.41C88.7834 105.46 87.7134 105.64 86.3334 105.86C83.8134 106.21 81.2134 105.77 78.9834 104.57C78.4034 104.25 77.9334 103.96 77.3334 103.51C76.7534 103.08 76.1434 102.67 75.5634 102.21C74.3934 101.32 73.2234 100.39 72.0734 99.38C69.7834 97.38 67.5134 95.17 65.4434 92.61C63.3634 90.06 61.4334 87.17 59.9734 83.86C59.3834 82.58 58.8334 80.88 58.4334 78.82C58.0634 76.76 57.8334 74.31 58.2234 71.61C58.3734 70.26 58.7334 68.86 59.1734 67.4C59.6634 65.96 60.3034 64.48 61.1034 62.99C61.9434 61.52 62.9234 60.01 64.1034 58.54C64.3834 58.16 64.7134 57.81 65.0234 57.44C65.3334 57.07 65.6434 56.7 66.0134 56.29C66.7234 55.49 67.4434 54.68 68.1734 53.85C70.0834 51.69 71.9334 49.47 73.7134 47.22C81.8334 37.74 91.5934 27.21 99.2434 19C99.7234 18.5 100.193 17.96 100.653 17.51C101.113 17.07 101.563 16.64 101.993 16.22C102.433 15.8 102.863 15.39 103.273 14.98C103.733 14.62 104.173 14.28 104.603 13.94C106.283 12.51 107.993 11.59 109.343 10.72C110.783 10.01 111.923 9.44 112.713 9.05C113.533 8.74 113.973 8.57 113.973 8.57C113.973 8.57 114.633 8.32 115.823 7.86C116.413 7.61 117.183 7.47 118.053 7.21C118.493 7.09 118.953 6.96 119.453 6.83C119.943 6.69 120.493 6.64 121.043 6.53C125.483 5.7 131.923 5.41 138.523 7.36C139.343 7.62 140.163 7.88 140.993 8.15C141.813 8.44 142.613 8.83 143.423 9.17L144.643 9.69L145.813 10.34C146.583 10.78 147.393 11.18 148.153 11.66C149.613 12.7 151.153 13.64 152.453 14.87C153.133 15.47 153.803 15.97 154.483 16.65C155.163 17.3 155.863 17.94 156.433 18.57C157.033 19.2 157.623 19.82 158.213 20.43C158.783 21.06 159.263 21.75 159.783 22.39C160.863 23.65 161.623 25.06 162.463 26.35C162.903 26.98 163.163 27.69 163.513 28.34C163.833 29 164.173 29.63 164.453 30.25C164.923 31.55 165.433 32.74 165.803 33.88C167.883 40.8 167.773 46.28 167.253 50.28C167.183 50.78 167.153 51.27 167.073 51.73C166.973 52.19 166.883 52.63 166.783 53.05C166.593 53.89 166.463 54.69 166.253 55.39C165.783 56.79 165.463 57.98 165.073 58.97C164.403 60.43 163.913 61.93 163.103 63.24C162.743 63.91 162.383 64.57 162.023 65.23C161.623 65.86 161.193 66.46 160.793 67.06C160.373 67.65 160.023 68.29 159.553 68.83C159.103 69.38 158.653 69.92 158.213 70.46C157.383 71.53 156.343 72.61 155.403 73.66C151.603 77.87 148.153 81.8 144.833 85.67L144.913 85.71Z" fill="#101214"/>
<path d="M30.4334 93.87C35.4434 88.7 33.1634 86.26 27.6734 90.91C23.7834 94.21 19.8334 97.64 15.6034 101.42C14.5434 102.38 13.4834 103.27 12.3434 104.45C11.7834 105.01 11.2234 105.58 10.6434 106.16C10.0634 106.73 9.59344 107.41 9.05344 108.04C8.53344 108.69 7.99344 109.34 7.48344 110.02C7.01344 110.74 6.54344 111.46 6.07344 112.2C5.05344 113.64 4.34344 115.3 3.48344 116.94C1.85344 120.81 0.923442 124.11 0.523442 127C0.423442 127.72 0.313442 128.41 0.223442 129.08C0.123442 129.75 0.143442 130.4 0.0934422 131.02C0.0634422 132.28 -0.0665578 133.44 0.0434422 134.57C0.113442 135.7 0.153442 136.78 0.233442 137.86C0.383442 138.93 0.533442 139.99 0.693442 141.09C0.753442 141.64 0.873442 142.19 1.01344 142.75C1.14344 143.31 1.26344 143.89 1.40344 144.48C1.61344 145.68 2.03344 146.9 2.44344 148.23C3.88344 152.71 6.36344 157.76 9.99344 162.26C10.9034 163.38 11.8334 164.54 12.7534 165.52C13.1934 166.03 13.7234 166.55 14.2434 167.08L15.8034 168.64C16.3034 169.18 16.8834 169.64 17.4534 170.1C18.0234 170.57 18.5834 171.03 19.1534 171.49C19.7034 171.98 20.3234 172.36 20.9134 172.76C21.5134 173.16 22.1134 173.56 22.7034 173.96C27.5534 177 32.7134 178.79 37.0634 179.66C39.2334 180.19 41.2334 180.28 42.9034 180.49C44.5834 180.58 45.9534 180.56 46.9434 180.58C48.1134 180.58 49.2634 180.4 50.4334 180.27C52.4934 180 56.3234 179.26 61.0334 177.34C63.3834 176.38 65.9334 175.06 68.5034 173.34C69.7634 172.44 71.1334 171.59 72.3434 170.45C72.9734 169.91 73.6134 169.36 74.2534 168.8C74.8734 168.25 75.4234 167.7 76.0234 167.13C80.7534 162.65 85.9734 157.72 91.3334 152.66C94.0234 150.14 96.7534 147.6 99.4634 145.06C100.813 143.78 102.203 142.56 103.523 141.25C104.833 139.93 106.143 138.62 107.433 137.32C109.253 135.47 110.983 133.7 112.623 132.03C114.363 130.24 115.873 128.37 117.153 126.47C119.713 122.66 121.233 118.69 121.903 115.07C122.563 111.44 122.463 108.19 122.053 105.51C121.643 102.83 120.993 100.66 120.353 98.97C118.853 94.95 116.793 91.54 114.553 88.6C112.323 85.64 109.883 83.16 107.413 80.96C106.183 79.86 104.913 78.85 103.653 77.9C103.033 77.41 102.373 76.98 101.743 76.52C101.443 76.3 101.073 76.06 100.693 75.82C100.323 75.57 99.9234 75.38 99.5434 75.17C96.4134 73.57 92.8734 73.13 89.6234 73.75C87.8334 74.11 86.6134 74.82 85.9534 75.47C85.6134 75.78 85.4134 76.11 85.3134 76.37C85.2634 76.5 85.2434 76.63 85.2434 76.74C85.2434 76.8 85.2434 76.85 85.2634 76.9C85.2634 76.93 85.2834 76.95 85.2834 76.97V77.01L85.4434 77.28L85.3234 77.06V77.08L85.3534 77.11C85.3734 77.13 85.3834 77.15 85.4034 77.17C85.4434 77.21 85.4834 77.25 85.5234 77.28C85.6134 77.35 85.7234 77.4 85.8534 77.45C86.1134 77.54 86.4434 77.56 86.8534 77.58C87.6634 77.58 88.7434 77.46 90.1334 77.34C92.6734 77.15 95.2434 77.75 97.3934 79.08C97.9534 79.43 98.4034 79.76 98.9734 80.24C99.5334 80.71 100.113 81.15 100.663 81.65C101.773 82.61 102.893 83.62 103.973 84.69C106.133 86.83 108.263 89.17 110.173 91.86C112.093 94.53 113.843 97.54 115.093 100.93C115.603 102.24 116.053 103.97 116.323 106.05C116.573 108.13 116.643 110.59 116.093 113.26C115.863 114.6 115.413 115.98 114.883 117.4C114.303 118.81 113.573 120.24 112.683 121.68C111.753 123.1 110.683 124.54 109.423 125.94C109.123 126.3 108.763 126.63 108.433 126.98C108.103 127.33 107.763 127.68 107.373 128.06C106.613 128.81 105.853 129.58 105.063 130.36C103.023 132.4 101.043 134.5 99.1234 136.63C90.4334 145.59 80.0534 155.5 71.9034 163.22C71.3934 163.69 70.8934 164.2 70.4034 164.62C69.9234 165.03 69.4434 165.43 68.9834 165.83C68.5234 166.22 68.0634 166.61 67.6234 166.98C67.1434 167.31 66.6834 167.63 66.2234 167.93C64.4634 169.25 62.6934 170.06 61.2934 170.86C59.8134 171.48 58.6334 171.98 57.8234 172.32C56.9834 172.58 56.5334 172.72 56.5334 172.72C56.5334 172.72 55.8534 172.93 54.6434 173.31C54.0434 173.52 53.2634 173.62 52.3734 173.82C51.9334 173.91 51.4534 174.01 50.9534 174.12C50.4534 174.23 49.9034 174.25 49.3434 174.32C44.8634 174.88 38.4134 174.77 31.9434 172.41C31.1434 172.1 30.3334 171.79 29.5234 171.47C28.7234 171.13 27.9534 170.69 27.1534 170.3L25.9634 169.7L24.8334 168.98C24.0834 168.49 23.3134 168.04 22.5834 167.52C21.1934 166.39 19.7134 165.36 18.4834 164.05C17.8434 163.41 17.2034 162.87 16.5634 162.15C15.9234 161.46 15.2634 160.78 14.7334 160.12C14.1734 159.46 13.6134 158.8 13.0734 158.15C12.5434 157.49 12.1134 156.77 11.6334 156.09C10.6334 154.77 9.96344 153.31 9.20344 151.97C8.80344 151.31 8.58344 150.59 8.27344 149.92C7.99344 149.25 7.69344 148.6 7.45344 147.95C7.06344 146.63 6.62344 145.4 6.33344 144.24C4.68344 137.21 5.13344 131.74 5.90344 127.78C6.00344 127.28 6.06344 126.79 6.17344 126.34C6.30344 125.89 6.42344 125.45 6.54344 125.04C6.79344 124.21 6.96344 123.43 7.21344 122.73C7.76344 121.36 8.15344 120.19 8.60344 119.23C9.36344 117.81 9.94344 116.34 10.8334 115.09C11.2334 114.44 11.6334 113.8 12.0334 113.17C12.4734 112.57 12.9334 112 13.3734 111.42C13.8334 110.86 14.2134 110.24 14.7134 109.73C15.2034 109.21 15.6834 108.7 16.1534 108.19C17.0534 107.17 18.1534 106.16 19.1534 105.17C23.2034 101.2 26.8934 97.49 30.4434 93.83L30.4334 93.87Z" fill="#101214"/>
</svg>
