<svg width="208" height="217" viewBox="0 0 208 217" fill="none" xmlns="http://www.w3.org/2000/svg">
<path d="M58.6543 85.0948C58.7943 84.5248 58.5643 84.0549 58.2543 83.7449C57.9343 83.4349 57.4943 83.2949 57.0343 83.2549C56.5743 83.2149 56.0943 83.2548 55.7043 83.3448C55.3043 83.4248 55.0443 83.5549 54.8543 83.7149C54.4043 84.1949 53.8943 84.5248 53.0943 84.9148C52.2843 85.2848 51.2243 85.6549 49.9143 85.9949C48.4343 86.4449 47.4343 86.7848 46.5643 87.0648C46.3243 87.1448 46.1943 87.1748 46.0343 87.2248C45.8743 87.2648 45.7143 87.3248 45.5443 87.3348C45.1943 87.3348 44.8243 87.3648 44.3843 87.2048C42.8643 86.9048 41.0143 85.3449 40.1143 83.6849C39.2043 81.9849 39.1943 80.4848 39.3143 80.0148C39.3143 79.8648 39.3443 79.7248 39.3243 79.5848C39.2943 79.3248 39.2343 78.8748 39.3843 78.2248C39.4943 77.5748 39.8143 76.7649 40.4843 75.9349C41.1443 75.1049 42.1543 74.2848 43.3743 73.6648C44.5943 73.0448 46.0043 72.6349 47.3543 72.5049C49.2343 72.2449 50.8043 72.4748 51.6443 72.7748C52.5343 73.1148 53.1043 73.5549 53.4543 73.8949C54.2743 74.6949 54.8643 75.5748 55.2243 76.4748C55.5943 77.3748 55.8143 78.3048 55.8443 79.3448C55.8243 80.3848 58.3243 82.0149 59.2943 80.3949C60.0643 78.9649 60.4143 77.2048 60.1643 75.3448C59.9243 73.4848 59.0243 71.5048 57.3243 69.8448C56.6643 69.2148 55.6743 68.1348 53.9343 67.2048C52.1143 66.2548 49.9143 65.7648 47.3443 65.9148C46.5043 65.9448 45.7043 66.1648 44.9343 66.4448C41.6543 67.6848 38.2543 69.7448 36.1643 72.2648C35.0843 73.4748 34.4543 74.8048 34.0343 75.7348C33.8743 76.2248 33.7443 76.6148 33.6543 76.8848C33.5643 77.1548 33.5243 77.3048 33.5243 77.3048C33.5243 77.3048 33.4843 77.5348 33.4143 77.9448C33.3843 78.1548 33.3443 78.4048 33.3043 78.6948C33.2843 78.9848 33.2843 79.3248 33.2843 79.6948C33.2843 81.1648 33.6743 83.1848 34.6643 85.0448C35.6343 86.9148 37.1343 88.6448 38.8343 89.8848C40.5343 91.1248 42.4543 91.8548 43.9643 92.1248C44.5443 92.1848 45.0843 92.2848 45.6043 92.2748C46.1043 92.2648 46.6543 92.2649 47.0143 92.2149C47.7443 92.1349 48.3743 92.0448 48.9143 91.9548C50.0043 91.7748 50.7543 91.5848 51.3243 91.4448C53.0543 90.9648 54.6143 90.2749 55.9443 89.2549C57.2643 88.2349 58.3343 86.7348 58.6443 85.1148L58.6543 85.0948Z" fill="#101214"/>
<path d="M79.4443 76.0949C78.3743 76.3349 77.8443 77.1749 77.7043 78.1049C77.5543 79.0149 78.2943 80.0449 79.6843 80.1349C81.5843 80.2649 83.4143 80.1549 85.2143 80.0849C86.1243 80.0349 86.8443 80.1249 87.8743 80.1649C88.9143 80.2149 89.9843 80.2549 91.1443 80.2849C96.3943 80.2449 97.7243 79.5949 101.284 79.7649C107.304 79.9249 117.454 81.1349 119.894 81.4349C120.254 81.4749 120.614 81.4949 120.984 81.4949C123.584 81.4349 134.984 81.2449 144.794 81.7149C151.734 81.8449 156.024 81.9249 158.264 81.9749C163.584 82.0149 167.524 81.7549 171.504 81.0149C174.324 80.4149 172.944 77.6549 171.374 77.4049C167.574 76.8749 163.614 76.4449 158.354 76.3549C156.304 76.3149 152.044 75.4449 146.014 75.1649C145.034 75.1249 144.044 75.1549 143.074 75.2549C134.634 76.1449 123.704 75.5349 123.704 75.5349C123.704 75.5349 107.384 75.0749 100.494 74.8849C95.2943 74.7649 92.7943 74.7049 91.2643 74.6749C90.1043 74.6549 88.9843 74.6649 87.9343 74.6749C86.8743 74.7049 85.6543 74.7349 84.6643 74.9349C82.6743 75.2849 81.0143 75.7549 79.4443 76.0949Z" fill="#101214"/>
<path d="M58.6543 153.055C58.7943 152.485 58.5643 152.015 58.2543 151.705C57.9343 151.395 57.4943 151.255 57.0343 151.215C56.5743 151.175 56.0943 151.215 55.7043 151.305C55.3043 151.385 55.0443 151.515 54.8543 151.675C54.4043 152.155 53.8943 152.485 53.0943 152.875C52.2843 153.245 51.2243 153.615 49.9143 153.955C48.4343 154.405 47.4343 154.745 46.5643 155.025C46.3243 155.105 46.1943 155.135 46.0343 155.185C45.8743 155.225 45.7143 155.285 45.5443 155.295C45.1943 155.295 44.8243 155.325 44.3843 155.165C42.8643 154.865 41.0143 153.305 40.1143 151.645C39.2043 149.945 39.1943 148.445 39.3143 147.975C39.3143 147.825 39.3443 147.685 39.3243 147.545C39.2943 147.285 39.2343 146.835 39.3843 146.185C39.4943 145.535 39.8143 144.725 40.4843 143.895C41.1443 143.065 42.1543 142.245 43.3743 141.625C44.5943 141.005 46.0043 140.595 47.3543 140.465C49.2343 140.205 50.8043 140.435 51.6443 140.735C52.5343 141.075 53.1043 141.515 53.4543 141.855C54.2743 142.655 54.8643 143.535 55.2243 144.435C55.5943 145.335 55.8143 146.265 55.8443 147.305C55.8243 148.345 58.3243 149.975 59.2943 148.355C60.0643 146.925 60.4143 145.165 60.1643 143.305C59.9243 141.445 59.0243 139.465 57.3243 137.805C56.6643 137.175 55.6743 136.095 53.9343 135.165C52.1143 134.215 49.9143 133.725 47.3443 133.875C46.5043 133.905 45.7043 134.125 44.9343 134.405C41.6543 135.645 38.2543 137.705 36.1643 140.225C35.0843 141.435 34.4543 142.765 34.0343 143.695C33.8743 144.185 33.7443 144.575 33.6543 144.845C33.5643 145.115 33.5243 145.265 33.5243 145.265C33.5243 145.265 33.4843 145.495 33.4143 145.905C33.3843 146.115 33.3443 146.365 33.3043 146.655C33.2843 146.945 33.2843 147.285 33.2843 147.655C33.2843 149.125 33.6743 151.145 34.6643 153.005C35.6343 154.875 37.1343 156.605 38.8343 157.845C40.5343 159.085 42.4543 159.815 43.9643 160.085C44.5443 160.145 45.0843 160.245 45.6043 160.235C46.1043 160.225 46.6543 160.225 47.0143 160.175C47.7443 160.095 48.3743 160.005 48.9143 159.915C50.0043 159.735 50.7543 159.545 51.3243 159.405C53.0543 158.925 54.6143 158.235 55.9443 157.215C57.2643 156.195 58.3343 154.695 58.6443 153.075L58.6543 153.055Z" fill="#101214"/>
<path d="M79.4443 144.065C78.3743 144.305 77.8443 145.145 77.7043 146.075C77.5543 146.985 78.2943 148.015 79.6843 148.105C81.5843 148.235 83.4143 148.125 85.2143 148.055C86.1243 148.005 86.8443 148.095 87.8743 148.135C88.9143 148.185 89.9843 148.225 91.1443 148.255C96.3943 148.215 97.7243 147.565 101.284 147.735C107.304 147.895 117.454 149.105 119.894 149.405C120.254 149.445 120.614 149.465 120.984 149.465C123.584 149.405 134.984 149.215 144.794 149.685C151.734 149.815 156.024 149.895 158.264 149.945C163.584 149.985 167.524 149.725 171.504 148.985C174.324 148.385 172.944 145.625 171.374 145.375C167.574 144.845 163.614 144.415 158.354 144.325C156.304 144.285 152.044 143.415 146.014 143.135C145.034 143.095 144.044 143.125 143.074 143.225C134.634 144.115 123.704 143.505 123.704 143.505C123.704 143.505 107.384 143.045 100.494 142.855C95.2943 142.735 92.7943 142.675 91.2643 142.645C90.1043 142.625 88.9843 142.635 87.9343 142.645C86.8743 142.675 85.6543 142.705 84.6643 142.905C82.6743 143.255 81.0143 143.725 79.4443 144.065Z" fill="#101214"/>
<path d="M1.71426 209.275C2.06426 214.505 5.41426 214.505 5.76426 209.275C6.26426 201.865 6.52426 194.075 6.54426 184.075C6.38426 172.735 5.69426 169.905 5.77426 162.225C5.77426 149.235 6.70426 127.335 6.93426 122.055C6.96426 121.275 6.97426 120.495 6.96426 119.715C6.83426 114.125 6.33426 89.5948 6.57426 68.4748C6.57426 53.5548 6.55426 44.3248 6.55426 39.5048C6.52426 28.1148 6.18426 19.6048 5.55426 11.2548C5.20426 6.66476 2.29426 6.66476 1.94426 11.2548C1.30426 19.6048 0.964257 28.1248 0.944257 39.5048C0.944257 43.9348 0.144257 53.1548 0.004257 66.1648C-0.015743 68.2848 0.034257 70.4048 0.164257 72.5048C1.25426 90.6548 0.944257 114.225 0.944257 114.225C0.944257 114.225 0.934257 149.385 0.924257 164.225C0.924257 175.405 0.934257 180.775 0.944257 184.085C0.964257 194.095 1.23426 201.875 1.73426 209.285L1.71426 209.275Z" fill="#101214"/>
<path d="M188.884 214.955C193.394 214.605 193.394 211.255 188.884 210.905C182.494 210.405 175.774 210.145 167.144 210.125C157.354 210.285 154.924 210.975 148.294 210.895C137.094 210.895 118.194 209.965 113.634 209.735C112.964 209.705 112.284 209.695 111.614 209.705C106.784 209.835 85.6242 210.335 67.4042 210.095C54.5342 210.095 46.5642 210.115 42.4042 210.115C32.5742 210.145 25.2342 210.485 18.0242 211.115C14.0642 211.465 14.0642 214.375 18.0242 214.725C25.2342 215.365 32.5742 215.705 42.4042 215.725C46.2242 215.725 54.1742 216.525 65.4042 216.665C67.2342 216.685 69.0642 216.635 70.8742 216.505C86.5342 215.415 106.864 215.725 106.864 215.725C106.864 215.725 137.204 215.735 150.004 215.745C159.644 215.745 164.284 215.735 167.134 215.725C175.764 215.705 182.484 215.435 188.874 214.935L188.884 214.955Z" fill="#101214"/>
<path d="M23.2643 5.78483C13.5943 6.47483 13.7143 9.81483 23.4043 9.82483C37.1543 9.84483 51.5843 9.60483 70.1243 8.98483C91.1343 8.09483 96.3343 7.21483 110.584 6.80483C122.614 6.38483 138.784 6.05483 153.164 5.81483C156.764 5.75483 160.244 5.70483 163.524 5.65483C164.344 5.64483 165.154 5.63483 165.944 5.61483C166.674 5.64483 167.394 5.67483 168.094 5.69483C169.494 5.68483 170.814 5.94483 172.074 6.11483C177.104 6.93483 180.694 8.81483 182.634 9.82483L184.324 10.8348L185.174 11.3248L185.974 11.8948C186.454 12.2248 187.044 12.6348 187.714 13.1048C188.354 13.6248 189.054 14.2548 189.864 14.9248C190.664 15.6048 191.404 16.4948 192.294 17.3748C192.734 17.8248 193.094 18.3648 193.524 18.8848C193.924 19.4248 194.414 19.9348 194.784 20.5548C196.414 22.9248 197.904 25.8248 199.054 29.1448C199.284 29.9948 199.524 30.8548 199.764 31.7348C199.904 32.1748 199.974 32.6248 200.044 33.0848C200.124 33.5448 200.194 34.0048 200.274 34.4748C200.344 34.9448 200.454 35.4048 200.484 35.8848C200.514 36.3648 200.544 36.8448 200.564 37.3348C200.624 38.3048 200.704 39.2748 200.684 40.4048C200.794 57.9648 200.864 79.1148 200.744 98.6948C200.744 126.345 200.764 143.465 200.764 152.405C200.794 173.515 201.134 189.295 201.764 204.785C202.114 213.295 205.024 213.295 205.374 204.785C206.014 189.295 206.354 173.515 206.374 152.405C206.374 144.205 207.174 127.105 207.314 102.975C207.334 99.0448 207.284 95.1148 207.154 91.2148C206.614 74.3948 206.414 55.0548 206.354 39.9348C206.274 36.0048 205.924 32.1548 204.934 28.9448C204.104 25.6748 202.844 22.9548 201.724 20.7648C201.474 20.2048 201.154 19.7048 200.864 19.2348C200.574 18.7648 200.304 18.3248 200.044 17.9148C199.784 17.5048 199.544 17.1248 199.324 16.7748C199.074 16.4448 198.844 16.1448 198.644 15.8848C197.824 14.8148 197.384 14.2348 197.384 14.2348C197.384 14.2348 197.234 14.0048 196.884 13.6248C196.534 13.2448 196.004 12.6948 195.334 11.9748C194.994 11.6248 194.644 11.2048 194.194 10.8048C193.744 10.4148 193.254 9.98483 192.734 9.52483C191.724 8.56483 190.414 7.66483 188.994 6.64483C186.074 4.73483 182.374 2.74483 177.934 1.47483C176.824 1.18483 175.664 0.94483 174.494 0.67483C173.324 0.41483 172.084 0.34483 170.854 0.17483L169.924 0.0648302L168.974 0.0448302C168.344 0.0348302 167.704 0.0248302 167.054 0.0148302C165.734 -0.0351698 164.564 0.0548302 163.324 0.0848302C143.604 0.76483 120.444 1.57483 106.694 2.04483C85.9843 2.77483 76.0243 3.12483 69.9043 3.34483C51.3643 4.01483 36.9543 4.78483 23.2343 5.75483L23.2643 5.78483Z" fill="#101214"/>
</svg>
