<svg width="240" height="177" viewBox="0 0 240 177" fill="none" xmlns="http://www.w3.org/2000/svg">
<path d="M96.81 66.7414C97.16 67.2414 100.51 67.2414 100.86 66.7414C101.36 66.0414 101.62 65.3014 101.64 64.3514C101.48 63.2714 100.79 63.0113 100.87 62.2813C100.87 61.0513 101.8 58.9713 102.03 58.4713C102.06 58.4013 102.07 58.3213 102.06 58.2513C101.93 57.7213 101.43 55.3913 101.67 53.3913C101.67 51.9813 101.65 51.1013 101.65 50.6413C101.62 49.5613 101.28 48.7513 100.65 47.9613C100.3 47.5213 97.39 47.5213 97.04 47.9613C96.4 48.7513 96.06 49.5613 96.04 50.6413C96.04 51.0613 95.24 51.9313 95.1 53.1713C95.08 53.3713 95.13 53.5713 95.26 53.7713C96.35 55.4913 96.04 57.7313 96.04 57.7313C96.04 57.7313 96.03 61.0613 96.02 62.4713C96.02 63.5313 96.03 64.0414 96.04 64.3514C96.06 65.3014 96.33 66.0414 96.83 66.7414H96.81Z" fill="#101214"/>
<path d="M198.35 112.541C197.41 113.221 198.45 116.401 199.61 116.391C201.25 116.381 202.9 116.121 204.92 115.481C207.15 114.591 207.5 113.741 209.07 113.311C211.68 112.451 216.37 111.901 217.51 111.781C217.68 111.761 217.84 111.721 217.99 111.651C219.08 111.161 223.85 109.071 228.17 107.911C231.17 106.921 233.02 106.311 233.99 105.991C236.27 105.221 237.88 104.341 239.36 103.181C240.17 102.551 239.27 99.7814 238.24 99.7514C236.36 99.6914 234.55 99.9314 232.25 100.651C231.36 100.941 229.26 100.781 226.6 101.501C226.17 101.621 225.76 101.811 225.37 102.071C222.06 104.301 217.23 105.551 217.23 105.551C217.23 105.551 210.16 107.851 207.17 108.821C204.93 109.561 203.85 109.921 203.18 110.141C201.18 110.821 199.69 111.581 198.36 112.541H198.35Z" fill="#101214"/>
<path d="M182.61 86.8714C181.69 88.0314 183.74 90.6714 185.09 90.0714C187.01 89.2114 188.86 88.1014 191.06 86.4314C193.43 84.3914 193.62 83.3614 195.34 82.1214C198.16 79.9214 203.5 76.9514 204.79 76.2414C204.98 76.1414 205.16 76.0114 205.32 75.8614C206.46 74.8214 211.49 70.2714 216.23 66.8814C219.47 64.3514 221.48 62.7814 222.52 61.9714C224.98 60.0214 226.63 58.3214 228.05 56.4014C228.83 55.3514 227.05 53.0514 225.84 53.5514C223.63 54.4614 221.57 55.6314 219.08 57.5314C218.12 58.2814 215.62 59.2014 212.7 61.2914C212.22 61.6314 211.8 62.0314 211.42 62.4914C208.14 66.4214 202.82 70.1614 202.82 70.1614C202.82 70.1614 195.16 76.1014 191.93 78.6014C189.5 80.5014 188.34 81.4114 187.62 81.9714C185.46 83.6814 183.93 85.2114 182.62 86.8514L182.61 86.8714Z" fill="#101214"/>
<path d="M158.98 67.9414C158.28 69.8914 161.2 71.5414 162.51 69.9314C164.37 67.6514 166.09 65.1314 168.03 61.7314C170.07 57.7914 170.01 56.4814 171.55 53.9014C174.04 49.4714 179.06 42.4614 180.27 40.7814C180.45 40.5314 180.61 40.2714 180.74 39.9914C181.7 38.0214 185.97 29.4114 190.24 22.3314C193.1 17.2414 194.86 14.0914 195.79 12.4514C197.95 8.5614 199.29 5.4914 200.34 2.3314C200.92 0.591397 198.38 -0.828604 197.19 0.561396C195.03 3.0914 193.1 5.8314 190.89 9.7014C190.04 11.2114 187.57 13.9514 184.95 18.3214C184.52 19.0314 184.16 19.7814 183.87 20.5614C181.33 27.2814 176.54 35.1614 176.54 35.1614C176.54 35.1614 169.78 47.1414 166.92 52.1914C164.78 56.0014 163.75 57.8414 163.12 58.9614C161.22 62.3814 159.96 65.1714 158.96 67.9314L158.98 67.9414Z" fill="#101214"/>
<path d="M65.41 50.5813C65.01 50.8013 64.77 51.1613 64.67 51.5813C64.62 51.7913 64.61 52.0113 64.62 52.2413C64.62 52.3513 64.64 52.4713 64.67 52.5813L64.71 52.7513L64.74 52.8313V52.8613V52.8113L64.84 53.0713L64.91 53.2313C64.96 53.3313 65.01 53.4313 65.07 53.5313C65.19 53.7213 65.33 53.8913 65.48 54.0413C65.79 54.3313 66.17 54.4913 66.6 54.4513C69.03 54.2413 71.53 53.8613 74.71 53.2113C78.28 52.3313 79.08 51.5113 81.58 51.2013C83.68 50.8813 86.54 50.7713 89.08 50.8313C91.62 50.8813 93.83 51.0813 94.69 51.1713C94.94 51.1913 95.2 51.2013 95.45 51.1713C96.35 51.0813 98.78 50.8613 101.85 50.8513C104.92 50.8313 108.63 51.0313 112.03 51.5713C116.84 52.1513 119.78 52.7513 121.32 53.0513C124.94 53.7713 127.69 54.1213 130.45 54.3013C130.83 54.3213 131.16 54.1713 131.44 53.9213C131.58 53.7913 131.7 53.6413 131.8 53.4713C131.85 53.3913 131.9 53.3013 131.94 53.2013L132 53.0613L132.09 52.8313C132.05 52.9413 132.1 52.8013 132.1 52.7813L132.14 52.6313C132.16 52.5313 132.18 52.4313 132.19 52.3313C132.2 52.1313 132.19 51.9313 132.15 51.7513C132.07 51.3813 131.86 51.0513 131.51 50.8513C128.97 49.4113 126.22 48.3513 122.43 47.5513C120.96 47.2513 118.01 45.8513 113.6 45.1413C112.88 45.0313 112.15 45.0013 111.42 45.0413C108.27 45.2413 104.72 45.2013 101.94 45.1813C99.16 45.1413 97.15 45.1213 97.15 45.1213C97.15 45.1213 94.15 45.1213 90.53 45.3813C86.91 45.6113 82.68 46.1213 80.19 46.5113C76.43 47.1113 74.64 47.5113 73.54 47.7313C70.21 48.4613 67.69 49.3913 65.41 50.6013V50.5813Z" fill="#101214"/>
<path d="M131.29 49.8314C130.55 52.9314 133.7 54.0614 135.1 51.1914C137.08 47.1314 138.92 42.7914 140.98 37.0914C141.29 36.1314 141.57 35.2614 141.83 34.4714C142.24 33.2214 142.62 32.0914 142.88 31.1014C143.02 30.6114 143.15 30.1414 143.27 29.6814L143.36 29.3514L143.4 29.1914C143.43 29.1314 143.31 29.1414 143.27 29.1114C143.04 29.0414 142.8 28.9714 142.58 28.9014C141.69 28.6414 140.86 28.4014 140.06 28.1714C139.27 27.9414 138.5 27.7714 137.76 27.5714L137.2 27.4414L136.82 27.3614C136.59 27.3114 136.37 27.2614 136.14 27.2214C135.22 27.0214 134.25 26.7914 133.1 26.4814C129.22 25.4914 124.01 24.1914 119.3 23.2514C114.6 22.2914 110.43 21.6614 108.8 21.4214C108.32 21.3514 107.84 21.3114 107.35 21.3014C105.62 21.2514 100.94 21.1414 95.08 21.3914C89.22 21.6314 82.19 22.3014 75.73 23.2314C71.18 23.9714 67.52 24.7614 64.64 25.4614C63.2 25.8114 61.96 26.1414 60.89 26.4414C60.32 26.6014 59.79 26.7614 59.31 26.8914C58.5 27.1414 57.78 27.3614 57.12 27.5714C56.37 27.8314 55.64 28.0914 54.91 28.3414C54.55 28.4714 54.2 28.6014 53.85 28.7214L53.32 28.9114C53.24 28.9514 53.12 28.9614 53.08 29.0214L53.17 29.2814C53.65 30.6914 54.07 32.0314 54.6 33.3814C54.85 34.0414 55.09 34.6814 55.34 35.3214C55.48 35.6714 55.62 36.0114 55.75 36.3514C56.03 37.0214 56.31 37.6814 56.57 38.3214C57.67 40.8814 58.76 43.2014 59.91 45.4814C61.18 47.9814 63.92 47.0014 63.31 44.2614C62.76 41.7714 62.13 39.2914 61.35 36.6114C61.15 35.9414 60.95 35.2614 60.74 34.5614C60.63 34.2114 60.52 33.8614 60.41 33.5014L60.33 33.1514C60.28 32.9514 60.22 32.7414 60.16 32.5314C60.11 32.4614 60.24 32.4814 60.27 32.4514L60.44 32.4014C60.55 32.3714 60.66 32.3414 60.78 32.3014C60.87 32.2714 60.97 32.2514 61.09 32.2414C61.08 32.2514 61.36 32.1914 61.57 32.1414C61.79 32.0914 62.03 32.0514 62.27 32.0014C63.25 31.8114 64.41 31.6114 65.72 31.4014C68.35 31.0014 71.6 30.5114 75.41 29.9314C76.65 29.7414 77.88 29.5014 79.09 29.2014C84.33 27.8914 90.52 27.2114 95.36 27.0514C100.21 26.8814 103.71 27.1414 103.71 27.1414C103.71 27.1414 108.94 27.2914 115.22 28.0814C121.51 28.8214 128.81 30.3314 133.05 31.4714C133.85 31.6914 134.59 31.8914 135.29 32.0814C135.59 32.1714 135.86 32.2514 136.12 32.3214C136.29 32.3714 136.44 32.4214 136.58 32.4714C136.69 32.4714 136.61 32.5714 136.6 32.6314C136.58 32.7014 136.55 32.7614 136.53 32.8214C136.15 33.8914 135.89 34.6214 135.69 35.1814C133.67 40.8914 132.33 45.4214 131.28 49.8114L131.29 49.8314Z" fill="#101214"/>
<path d="M65.76 51.7014C64.11 52.3514 64.49 53.4014 66.15 52.9914C68.53 52.4414 71.04 51.8814 74.28 51.2014C77.94 50.4014 78.83 50.0414 81.35 49.6814C83.48 49.3614 86.36 49.0914 88.92 48.9714C91.48 48.8414 93.73 48.8514 94.6 48.8614C94.86 48.8614 95.12 48.8614 95.37 48.8514C96.29 48.8114 98.78 48.6914 101.9 48.7514C105.03 48.8014 108.8 49.0614 112.26 49.5214C117.16 50.1214 120.15 50.7314 121.71 51.0414C125.4 51.7914 128.15 52.3814 130.84 52.9714C132.3 53.3214 132.64 52.4014 131.19 51.8214C128.57 50.8014 125.82 49.9814 122.07 49.2014C120.62 48.9114 117.62 48.0414 113.28 47.4314C112.57 47.3314 111.86 47.2714 111.15 47.2314C108.1 47.0714 104.6 46.9014 101.86 46.8514C99.12 46.7914 97.14 46.8014 97.14 46.8014C97.14 46.8014 94.19 46.8114 90.62 47.0614C87.05 47.2814 82.88 47.7914 80.42 48.1814C76.71 48.7614 74.95 49.1614 73.86 49.3714C70.57 50.0814 68.06 50.8214 65.72 51.7014H65.76Z" fill="#101214"/>
<path d="M196.31 156.781C196.01 153.841 194.96 152.441 194.05 152.511C193.12 152.581 192.32 154.081 192.27 156.961C192.24 159.001 192.18 161.071 192.11 163.191C192.07 164.251 192.03 165.331 191.99 166.421C191.97 166.971 191.94 167.521 191.92 168.071L191.88 168.911C191.87 169.161 191.85 169.591 191.84 169.531L191.79 169.821L191.76 169.951C191.76 169.951 191.75 170.041 191.68 170.011L191.38 169.971L191.24 169.951H191.21H191.02H190.55C188.04 169.921 185.4 169.901 182.61 169.881C169.96 170.041 166.81 170.731 158.24 170.651C143.76 170.651 119.33 169.721 113.44 169.491C112.57 169.461 111.7 169.451 110.83 169.471C104.59 169.601 77.24 170.101 53.68 169.861C37.04 169.861 26.75 169.881 21.37 169.881C18.19 169.881 15.22 169.911 12.4 169.961C10.99 169.991 9.62 170.021 8.28 170.041C7.61 170.061 6.95 170.071 6.29 170.091H5.8L5.59 170.111H5.54L5.35 170.151L4.91 170.221C4.86 170.121 4.83 169.991 4.79 169.861L4.73 169.651L4.7 169.541L4.65 169.111C4.58 168.521 4.52 167.941 4.46 167.361C4.22 165.041 4.05 162.771 4.02 160.551C4 158.141 3.49 156.871 2.68 156.671C1.91 156.481 0.76 157.661 0.42 160.331C0.11 162.741 0 165.151 0 167.601C0 168.211 0.02 168.831 0.02 169.451V169.931L0.07 170.661C0.1 171.151 0.14 171.651 0.17 172.141C0.27 173.111 0.3 174.181 0.47 175.121C1.46 175.161 2.46 175.211 3.51 175.231C6.33 175.291 9.27 175.361 12.38 175.421C15.2 175.471 18.18 175.491 21.35 175.501C26.28 175.501 36.57 176.301 51.08 176.441C53.44 176.461 55.81 176.411 58.15 176.281C78.39 175.191 104.67 175.501 104.67 175.501C104.67 175.501 143.88 175.511 160.43 175.521C172.89 175.521 178.89 175.511 182.58 175.501C185.37 175.481 188 175.461 190.52 175.441C192.49 175.421 194.41 175.391 196.28 175.371H196.65C196.76 175.351 196.95 175.411 196.9 175.231V174.471C196.92 173.971 196.93 173.471 196.94 172.971C196.95 171.991 196.97 171.011 196.98 170.051C196.98 169.411 196.97 168.771 196.96 168.141C196.95 167.571 196.93 167.001 196.92 166.441C196.88 165.321 196.84 164.221 196.78 163.131C196.66 160.961 196.5 158.851 196.28 156.771L196.31 156.781Z" fill="#101214"/>
<path d="M5.06999 131.451C3.93999 138.131 7.24999 138.671 8.99999 132.401C10.35 127.971 11.87 123.481 13.81 118.761C15.75 114.051 18.12 109.091 21.36 103.891C24.98 97.9714 27.7 94.5714 30.15 91.6914C32.63 88.8414 34.9 86.4914 38.71 83.6814C41.91 81.2914 45.93 78.8314 50.36 76.7614C54.78 74.6914 59.61 73.0114 64.25 71.8214C68.89 70.6214 73.34 69.8914 77.02 69.4214C80.71 69.0014 83.63 68.8214 85.26 68.7214C86.23 68.6814 87.19 68.6214 88.16 68.5314C89.89 68.3814 93.09 68.1714 97.34 68.0814C101.6 68.0314 106.91 68.1014 112.79 68.6014C118.66 69.1014 125.09 70.0614 131.51 71.6814C137.91 73.3414 144.3 75.6814 150 78.7114C154.06 80.7914 157.5 83.0714 160.44 85.3114C161.94 86.3914 163.23 87.5714 164.5 88.6214C165.68 89.7614 166.87 90.7714 167.85 91.8414C171.89 96.0214 174.4 99.5114 176.03 101.961C179.89 107.741 182.51 113.301 184.65 118.551C186.77 123.821 188.36 128.831 189.74 133.871C191.14 139.421 194.03 139.041 193.28 133.151C192.49 127.821 191.32 122.461 189.41 116.791C187.47 111.141 184.85 105.111 180.71 98.8614C179.1 96.4414 176.66 92.6514 172.71 88.1914C170.76 85.9414 168.35 83.6214 165.56 81.2214C162.73 78.8714 159.45 76.5314 155.72 74.3414C154.48 73.6714 153.26 72.9714 151.98 72.3814C150.7 71.8114 149.44 71.2014 148.13 70.7214C142.53 68.5414 136.38 66.7414 130.31 65.4614C124.24 64.1714 118.25 63.3814 112.99 62.9214C107.73 62.4814 103.2 62.2914 99.98 62.2614C98.37 62.2314 97.09 62.2114 96.21 62.2314C95.33 62.2314 94.86 62.2314 94.86 62.2314C94.86 62.2314 94.15 62.2414 92.87 62.2614C91.59 62.3314 89.74 62.3514 87.46 62.5314C82.9 62.8214 76.62 63.4714 69.83 64.9214C63.04 66.3114 55.8 68.6614 49.39 71.6414C43 74.6614 37.49 78.3014 33.7 81.3814C27.98 86.0214 24.39 90.1914 21.81 93.4214C21.18 94.2414 20.59 95.0014 20.05 95.7014C19.55 96.4314 19.08 97.0914 18.65 97.7114C17.77 98.9314 17.13 100.011 16.55 100.931C13.1 106.521 10.72 111.861 8.92999 116.911C7.14999 121.971 5.93999 126.761 5.03999 131.451H5.06999Z" fill="#101214"/>
<path d="M4.46001 140.901C-0.509986 141.251 -0.509986 144.601 4.46001 144.951C11.5 145.451 18.91 145.711 28.42 145.731C39.2 145.571 41.89 144.881 49.19 144.961C61.54 144.961 82.36 145.891 87.38 146.121C88.12 146.151 88.86 146.161 89.61 146.151C94.93 146.021 118.25 145.521 138.33 145.761C152.51 145.761 161.29 145.741 165.87 145.741C176.7 145.711 184.79 145.371 192.73 144.741C197.09 144.391 197.09 141.481 192.73 141.131C184.79 140.491 176.7 140.151 165.87 140.131C161.66 140.131 152.9 139.331 140.52 139.191C138.5 139.171 136.49 139.221 134.49 139.351C117.23 140.441 94.83 140.141 94.83 140.141C94.83 140.141 61.4 140.131 47.29 140.121C36.66 140.121 31.55 140.131 28.41 140.141C18.9 140.161 11.49 140.431 4.45001 140.931L4.46001 140.901Z" fill="#101214"/>
</svg>
