<svg width="198" height="196" viewBox="0 0 198 196" fill="none" xmlns="http://www.w3.org/2000/svg">
<path d="M86.1237 20.3438C94.7237 24.2738 96.2337 21.2838 87.9437 16.7238C82.0637 13.4938 76.0138 10.2338 69.4038 6.77375C67.7538 5.91375 66.0638 5.03375 64.3438 4.13375C63.4837 3.68375 62.6038 3.23375 61.7238 2.77375L61.0538 2.43375C60.8438 2.32375 60.6038 2.20375 60.3238 2.07375C59.7938 1.80375 59.2538 1.58375 58.6938 1.36375C54.2538 -0.346249 48.9138 -0.556249 43.9438 1.35375C41.6038 1.92375 39.4838 2.43375 37.5438 2.91375C35.4738 3.43375 33.5938 3.90375 31.8638 4.33375C28.3938 5.24375 25.4937 5.99375 22.7937 6.70375C20.0937 7.40375 17.5938 8.05375 14.9237 8.75375C13.5837 9.08375 12.2037 9.42375 10.7437 9.77375C9.21375 10.1238 7.59375 10.5038 5.84375 10.9038C4.63375 11.3338 3.76375 11.9738 2.98375 12.8138C2.22375 13.6538 1.65375 14.7038 1.37375 15.8538C1.23375 16.4138 1.17375 17.0538 1.17375 17.5838C1.17375 17.9838 1.17375 18.3938 1.17375 18.8038C1.17375 19.6238 1.16375 20.4438 1.15375 21.2838C1.12375 24.6338 1.08375 28.1438 1.04375 31.7338C0.93375 38.9038 0.81375 46.3537 0.70375 53.3737C0.40375 67.4137 0.13375 79.7037 0.03375 84.4737C0.00375 85.8837 -0.00625 87.2938 0.00375 88.7138C0.13375 98.8338 0.63375 143.194 0.39375 181.404C0.39375 182.244 0.39375 183.084 0.39375 183.904V184.524C0.39375 184.764 0.42375 185.164 0.44375 185.474C0.52375 186.144 0.68375 186.794 0.91375 187.424C1.88375 189.954 4.12375 191.734 6.60375 192.244C7.84375 192.504 9.14375 192.454 10.3237 192.114C10.6037 192.024 10.9337 191.914 11.1537 191.834L11.6637 191.624C12.0037 191.484 12.3437 191.354 12.6837 191.214C14.0337 190.674 15.3438 190.154 16.6138 189.644C21.7138 187.604 26.2537 185.784 30.2638 184.174C38.2838 180.964 44.1838 178.604 48.2338 176.974C49.1838 176.594 50.1237 176.214 51.0037 175.864C51.3337 175.734 51.6538 175.604 51.9538 175.474C52.0038 175.454 52.0437 175.434 52.0938 175.414C55.7638 177.164 59.2138 178.804 62.4938 180.374C66.1738 182.094 69.6738 183.724 73.0338 185.304C79.7838 188.414 86.0438 191.224 92.2838 193.954C99.8938 197.284 101.174 194.664 93.8638 190.714C87.8738 187.474 81.8138 184.254 75.2138 180.854C71.9038 179.164 68.4637 177.414 64.8438 175.564C60.8937 173.594 56.7338 171.524 52.3138 169.324C50.6938 169.964 48.4538 170.854 46.1538 171.774C42.4338 173.264 36.6338 175.364 29.0238 178.174C25.2238 179.594 20.9638 181.184 16.2838 182.934C13.9438 183.824 11.5037 184.754 8.95375 185.734L8.71375 185.824L8.62375 185.844C8.62375 185.844 8.52375 185.894 8.48375 185.884C8.39375 185.904 8.30375 185.904 8.21375 185.914C8.03375 185.904 7.85375 185.854 7.67375 185.764C7.31375 185.574 7.07375 185.244 7.01375 184.884C6.97375 184.934 6.98375 183.624 6.98375 182.734L6.95375 179.864C6.92375 177.954 6.88375 176.044 6.81375 174.144C5.72375 141.314 6.03375 98.6837 6.03375 98.6837C6.03375 98.6837 6.03375 82.7838 6.03375 63.5238C6.03375 53.8938 6.03375 43.4237 6.03375 33.6937C6.03375 28.8237 6.03375 24.1338 6.03375 19.8338C6.03375 19.2938 6.03375 18.7638 6.03375 18.2338V17.5038C6.03375 17.3838 6.05375 17.2638 6.07375 17.1538C6.16375 16.6938 6.39375 16.2738 6.72375 15.9638C6.80375 15.8938 6.89375 15.8238 6.98375 15.7538C7.07375 15.6938 7.18375 15.6338 7.20375 15.6238C7.26375 15.5938 7.31375 15.5838 7.39375 15.5638C7.62375 15.5138 7.84375 15.4638 8.06375 15.4138C8.94375 15.2138 9.80375 15.0138 10.6237 14.8238C20.4738 12.5538 27.7738 10.8738 33.3338 9.59375C36.1138 8.95375 38.4638 8.41375 40.4738 7.95375C41.4838 7.72375 42.4038 7.51375 43.2638 7.31375C43.6938 7.21375 44.1038 7.12375 44.4938 7.03375C44.6938 6.98375 44.8838 6.94375 45.0738 6.90375L45.4938 6.80375L45.9638 6.63375C49.5938 5.22375 53.4938 5.34375 56.7738 6.54375C57.5938 6.84375 58.3438 7.21375 59.2838 7.67375C60.1738 8.11375 61.0638 8.54375 61.9338 8.96375C63.6838 9.81375 65.3938 10.6338 67.0738 11.4538C73.7938 14.6838 80.0237 17.6038 86.1237 20.3938V20.3438Z" fill="#101214"/>
<path d="M97.0237 178.514C97.3737 182.524 100.724 182.524 101.074 178.514C101.574 172.834 101.834 166.864 101.854 159.194C101.694 150.504 101.004 148.334 101.084 142.444C101.084 132.494 102.014 115.694 102.244 111.654C102.274 111.054 102.284 110.454 102.274 109.854C102.144 105.564 101.644 86.7637 101.884 70.5737C101.884 59.1437 101.864 52.0637 101.864 48.3637C101.834 39.6337 101.494 33.1137 100.864 26.7037C100.514 23.1837 97.6038 23.1837 97.2538 26.7037C96.6138 33.1037 96.2738 39.6337 96.2538 48.3637C96.2538 51.7537 95.4538 58.8237 95.3138 68.8037C95.2938 70.4337 95.3438 72.0537 95.4738 73.6637C96.5638 87.5737 96.2538 105.644 96.2538 105.644C96.2538 105.644 96.2437 132.594 96.2337 143.974C96.2337 152.544 96.2438 156.664 96.2538 159.194C96.2738 166.864 96.5438 172.834 97.0438 178.514H97.0237Z" fill="#101214"/>
<path d="M104.774 187.314C96.1738 191.134 97.4238 194.234 106.274 191.074C112.554 188.834 118.964 186.464 125.904 183.834C129.364 182.504 132.964 181.114 136.744 179.664C140.144 178.324 143.704 176.924 147.474 175.434H147.484C151.594 177.354 154.934 178.914 157.814 180.254C161.054 181.714 163.754 182.944 166.284 184.084C171.334 186.344 175.644 188.284 181.824 191.344C183.134 191.984 184.504 192.654 185.914 193.354L186.444 193.614C186.634 193.704 186.744 193.774 187.074 193.904C187.624 194.144 188.214 194.334 188.834 194.414C190.064 194.594 191.364 194.414 192.524 193.904C193.684 193.394 194.704 192.534 195.434 191.444C196.164 190.364 196.574 189.004 196.564 187.714C196.584 185.984 196.604 184.214 196.624 182.434C196.734 175.304 196.854 167.894 196.964 160.914C197.264 146.954 197.534 134.734 197.634 129.984C197.664 128.584 197.674 127.174 197.664 125.764C197.534 115.704 197.034 71.5837 197.274 33.5937V32.9237C197.274 32.5737 197.234 32.2137 197.184 31.8737C197.074 31.1737 196.874 30.5037 196.574 29.8737C195.994 28.6137 195.054 27.5337 193.924 26.7837C192.534 25.9537 191.274 25.0637 189.994 24.2337C187.454 22.5637 185.044 20.9737 182.764 19.4737C178.194 16.4637 174.134 13.7937 170.554 11.4337C166.974 9.07368 163.854 7.02368 161.184 5.26368C159.854 4.38368 158.624 3.58368 157.514 2.84368C157.334 2.72368 157.154 2.60368 156.974 2.48368C156.734 2.31368 156.394 2.20368 156.274 2.13368C155.934 1.98368 155.614 1.82368 155.284 1.70368C154.634 1.43368 154.004 1.22368 153.404 1.03368C150.564 0.173677 147.644 -0.0863227 144.874 0.173677C143.484 0.303677 142.134 0.553677 140.834 0.933677C140.184 1.13368 139.544 1.33368 138.924 1.58368C138.284 1.82368 137.834 2.02368 137.284 2.24368C133.084 3.99368 129.114 5.65368 125.294 7.24368C117.684 10.4737 110.734 13.5137 103.874 16.6037C96.3438 19.9937 97.4238 22.6937 105.214 19.9537C112.304 17.4637 119.444 14.8737 127.174 11.9537C131.034 10.4737 135.054 8.93368 139.304 7.31368C139.814 7.12368 140.404 6.87368 140.864 6.71368C141.334 6.53368 141.824 6.39368 142.304 6.25368C143.284 5.98368 144.314 5.81368 145.354 5.72368C147.444 5.55368 149.624 5.76368 151.754 6.41368C152.164 6.55368 152.604 6.69368 153.054 6.88368C153.474 7.04368 154.104 7.34368 154.194 7.43368C155.234 8.15368 156.374 8.94368 157.624 9.80368C160.114 11.5437 163.024 13.5837 166.334 15.8937C169.654 18.1937 173.364 20.7637 177.454 23.5937C179.504 24.9937 181.654 26.4637 183.894 27.9837C185.014 28.7437 186.164 29.5137 187.334 30.3037C187.924 30.6937 188.514 31.0937 189.104 31.4937L189.554 31.7937L189.874 32.0137L190.224 32.2137C190.294 32.2537 190.354 32.3037 190.404 32.3537C190.544 32.4937 190.644 32.6837 190.674 32.8737C190.684 32.9237 190.684 32.9737 190.694 33.0237V33.7337L190.714 35.1637C190.744 37.0637 190.784 38.9637 190.854 40.8537C191.944 73.5037 191.634 115.884 191.634 115.884C191.634 115.884 191.634 131.694 191.634 150.844C191.634 160.414 191.634 170.824 191.634 180.504C191.634 182.924 191.634 185.304 191.634 187.604C191.634 187.784 191.624 187.784 191.624 187.864C191.624 187.924 191.624 187.994 191.604 188.044C191.584 188.164 191.554 188.274 191.514 188.384C191.424 188.594 191.324 188.804 191.154 188.974C190.834 189.324 190.374 189.544 189.934 189.574C189.714 189.574 189.494 189.584 189.294 189.504C189.184 189.504 189.084 189.414 188.974 189.394L188.294 189.064C187.374 188.614 186.484 188.184 185.614 187.754C183.884 186.904 182.254 186.114 180.754 185.384L147.734 169.274L147.564 169.344C143.054 171.174 138.794 172.904 134.724 174.544C130.984 176.094 127.424 177.574 123.994 179.004C117.154 181.884 110.884 184.594 104.784 187.304L104.774 187.314Z" fill="#101214"/>
<path d="M50.2537 155.074C50.6037 159.084 53.9537 159.084 54.3037 155.074C54.8037 149.394 55.0637 143.424 55.0837 135.754C54.9237 127.064 54.2337 124.894 54.3137 119.004C54.3137 109.054 55.2437 92.2538 55.4737 88.2138C55.5037 87.6138 55.5137 87.0138 55.5037 86.4138C55.3737 82.1238 54.8737 63.3238 55.1137 47.1338C55.1137 35.7038 55.0937 28.6238 55.0937 24.9238C55.0637 16.1938 54.7237 9.67378 54.0937 3.26378C53.7437 -0.256221 50.8337 -0.256221 50.4837 3.26378C49.8437 9.66378 49.5037 16.1938 49.4837 24.9238C49.4837 28.3138 48.6837 35.3838 48.5437 45.3638C48.5237 46.9938 48.5737 48.6138 48.7037 50.2238C49.7937 64.1338 49.4837 82.2038 49.4837 82.2038C49.4837 82.2038 49.4737 109.154 49.4637 120.534C49.4637 129.104 49.4737 133.224 49.4837 135.754C49.5037 143.424 49.7737 149.394 50.2737 155.074H50.2537Z" fill="#101214"/>
<path d="M144.634 169.744C144.984 173.754 148.334 173.754 148.684 169.744C149.184 164.064 149.444 158.094 149.464 150.424C149.304 141.734 148.614 139.564 148.694 133.674C148.694 123.724 149.624 106.924 149.854 102.884C149.884 102.284 149.894 101.684 149.884 101.084C149.754 96.7937 149.254 77.9937 149.494 61.8037C149.494 50.3737 149.474 43.2937 149.474 39.5937C149.444 30.8637 149.104 24.3437 148.474 17.9337C148.124 14.4137 145.214 14.4137 144.864 17.9337C144.224 24.3337 143.884 30.8637 143.864 39.5937C143.864 42.9837 143.064 50.0537 142.924 60.0337C142.904 61.6637 142.954 63.2837 143.084 64.8937C144.174 78.8037 143.864 96.8737 143.864 96.8737C143.864 96.8737 143.854 123.824 143.844 135.204C143.844 143.774 143.854 147.894 143.864 150.424C143.884 158.094 144.154 164.064 144.654 169.744H144.634Z" fill="#101214"/>
</svg>
