<svg width="219" height="240" viewBox="0 0 219 240" fill="none" xmlns="http://www.w3.org/2000/svg">
<path d="M32.81 42.61C33.58 43.53 34.65 43.69 35.5 43.29C36.33 42.9 36.88 41.83 36.25 40.48C35.36 38.6 34.21 36.78 32.49 35.08C30.8 33.38 28.5 31.78 25.51 30.94C23.81 30.5 22.36 30.46 21.17 30.54C19.96 30.61 18.99 30.84 18.11 31.08C16.36 31.6 14.98 32.2 13.01 33.1C11.37 33.9 9.57 34.99 7.83 36.35C6.09 37.71 4.41 39.39 3.12 41.29C1.81 43.18 0.91 45.26 0.49 47.08C0.03 48.9 0.01 50.41 0 51.24C0.02 51.73 0.04 52.23 0.15 52.7C0.32 53.55 0.69 55.14 1.55 57.01C2.39 58.9 3.71 60.99 5.52 63.03C7.34 65.07 9.82 67.12 12.89 68.35C15.95 69.6 19.48 69.85 22.61 69.27C27.03 68.31 29.97 66.34 32.1 64.7C34.24 63.02 35.58 61.41 36.43 60.27C38.45 57.56 39.43 54.5 39.58 51.71C39.69 48.9 39.01 46.38 37.89 44.28C37.27 43.11 36.23 42.92 35.52 43.28C34.78 43.65 34.31 44.49 34.5 45.52C35.19 49.3 34.78 52.99 31.91 56.93C31.33 57.68 30.24 58.71 28.57 59.77C26.9 60.83 24.69 61.96 22.19 62.59C21.37 62.77 20.58 63.01 19.78 63.16C18.05 63.56 16.09 63.38 14.3 62.64C12.52 61.88 10.93 60.61 9.76 59.24C8.57 57.87 7.76 56.5 7.3 55.54C7.08 55.05 6.92 54.66 6.81 54.38C6.72 54.11 6.67 53.96 6.67 53.96C6.67 53.96 6.3 53.09 6.08 51.65C5.86 50.22 5.89 48.2 6.66 46.14C7.41 44.07 8.95 42.05 10.72 40.45C12.51 38.85 14.47 37.69 15.94 37.07C18.18 36.13 19.91 35.93 21.2 35.94C22.49 35.96 23.36 36.14 24.01 36.32C25.97 36.86 27.61 37.81 29.03 38.91C30.46 39.99 31.7 41.27 32.81 42.58V42.61Z" fill="#101214"/>
<path d="M181.62 220.68C181.98 221.12 182.94 221.26 183.86 221.08C184.75 220.91 185.6 220.24 185.38 219.18C185.08 217.72 184.27 216.22 182.95 215.04C181.64 213.85 179.83 213.04 177.73 212.85C175.32 212.81 173.91 213.53 172.85 214.22C172.33 214.56 172.01 214.91 171.57 215.23C171.16 215.57 170.67 215.85 170.15 216.24C169.27 216.92 168.26 217.77 167.31 218.85C166.35 219.91 165.5 221.25 164.94 222.67C164.36 224.09 164.14 225.58 164.12 226.8C164.09 228.03 164.27 228.97 164.36 229.5C164.42 229.81 164.52 230.1 164.64 230.39C164.87 230.89 165.31 231.82 166.04 232.86C166.77 233.89 167.73 235.1 169.14 236.26C170.52 237.42 172.4 238.48 174.52 238.94C176.64 239.41 178.91 239.25 180.83 238.68C183.55 237.77 185.28 236.51 186.57 235.33C187.92 234.26 188.7 233.12 189.22 232.37C190.41 230.52 190.97 228.49 190.91 226.66C190.88 224.82 190.29 223.24 189.48 221.96C188.5 220.53 186 222.09 186.1 223.22C186.16 224.32 186.1 225.32 185.85 226.29C185.62 227.26 185.21 228.22 184.52 229.28C184.23 229.68 183.65 230.22 182.67 230.7C181.78 231.23 180.57 231.86 179.29 232.25C178.88 232.4 178.5 232.54 178.12 232.76C177.31 233.19 176.33 233.36 175.39 233.2C174.45 233.04 173.54 232.57 172.84 231.96C172.12 231.38 171.6 230.68 171.26 230.18C170.93 229.68 170.78 229.36 170.78 229.36C170.78 229.36 170.51 228.91 170.23 228.17C169.95 227.43 169.71 226.41 169.81 225.32C169.91 224.24 170.36 223.08 171.09 222.1C171.81 221.12 172.73 220.3 173.49 219.8C174.06 219.47 174.58 219.11 174.98 218.89C175.34 218.72 175.66 218.61 175.96 218.55C176.54 218.41 176.97 218.45 177.29 218.45C178.25 218.54 179.08 218.77 179.77 219.16C180.46 219.54 181.07 220.02 181.6 220.68H181.62Z" fill="#101214"/>
<path d="M191.58 34.91C193.44 32.54 191.07 30.18 188.71 32.05C185.36 34.7 182.03 37.67 177.97 41.71C173.5 46.42 172.85 48.05 169.69 51.11C164.45 56.38 154.93 64.59 152.63 66.57C152.29 66.86 151.97 67.17 151.66 67.5C149.49 69.85 139.93 80.15 131.22 88.54C125.19 94.59 121.47 98.33 119.52 100.29C114.93 104.92 111.73 108.61 108.8 112.42C108.4 112.94 108.22 113.46 108.22 113.93C108.22 114.16 108.26 114.38 108.34 114.57C108.38 114.67 108.43 114.76 108.49 114.84L108.53 114.9C108.53 114.9 108.53 114.92 108.56 114.93C108.62 114.96 108.65 114.99 108.76 114.99C108.8 114.98 109.02 115.02 109.05 115.18C109.06 115.29 109.02 115.3 109 115.32C108.96 115.33 108.93 115.32 108.91 115.32C108.91 115.32 108.98 115.35 108.99 115.32C108.99 115.3 108.99 115.29 108.97 115.23C108.93 115.15 108.82 115.15 108.82 115.17C108.78 115.25 108.87 115.25 108.9 115.29C108.98 115.35 109.08 115.4 109.17 115.44C109.37 115.52 109.58 115.56 109.82 115.56C110.29 115.56 110.81 115.39 111.34 114.99C115.18 112.06 118.87 108.86 123.49 104.27C125.28 102.48 129.58 99.31 134.94 94.14C135.81 93.3 136.63 92.4 137.39 91.46C143.96 83.34 153.7 74 153.7 74C153.7 74 167.92 59.76 173.92 53.75C178.43 49.21 180.6 47.03 181.93 45.69C185.96 41.62 188.92 38.27 191.56 34.92L191.58 34.91Z" fill="#101214"/>
<path d="M32.41 178.1C32.2 178.38 32.18 178.75 32.28 179.13C32.38 179.51 32.61 179.92 32.83 180.32C33.04 180.75 33.48 181.01 33.85 181.19C34.23 181.36 34.62 181.41 34.95 181.25C36.82 180.38 38.56 179.27 40.62 177.59C42.83 175.55 42.95 174.54 44.56 173.29C47.19 171.08 52.23 168.08 53.45 167.37C53.63 167.26 53.79 167.14 53.94 166.99C54.99 165.95 59.64 161.4 64.09 158.02C67.12 155.51 68.99 153.96 69.97 153.14C72.27 151.23 73.81 149.53 75.09 147.76C75.26 147.52 75.27 147.21 75.17 146.89C75.15 146.81 75.11 146.73 75.08 146.64C75.06 146.6 75.04 146.56 75.02 146.52C74.98 146.45 74.95 146.38 74.91 146.31C74.69 145.9 74.68 145.79 74.67 145.76L74.64 145.7C74.62 145.65 74.6 145.61 74.58 145.56C74.54 145.47 74.47 145.39 74.4 145.31C74.26 145.16 74.1 145.05 73.93 144.96C73.59 144.79 73.24 144.74 72.93 144.86C70.71 145.74 68.76 146.9 66.4 148.79C65.49 149.53 63.09 150.46 60.35 152.56C59.9 152.9 59.51 153.3 59.16 153.75C56.16 157.66 51.18 161.42 51.18 161.42C51.18 161.42 44.04 167.37 41.03 169.89C38.77 171.79 37.68 172.7 37.01 173.26C35 174.97 33.58 176.49 32.4 178.09L32.41 178.1Z" fill="#101214"/>
<path d="M72.93 111.14C74.33 112.18 76.83 109.96 75.95 108.45C74.71 106.31 73.21 104.23 71.05 101.78C68.46 99.12 67.33 98.89 65.71 96.97C62.88 93.81 58.78 87.86 57.8 86.42C57.65 86.21 57.49 86.01 57.31 85.83C55.99 84.56 50.25 78.94 45.76 73.67C42.45 70.08 40.4 67.85 39.32 66.69C36.75 63.97 34.61 62.16 32.18 60.61C32.01 60.5 31.81 60.43 31.62 60.41C31.41 60.37 31.29 60.44 31.01 60.41C30.45 60.39 30.17 60.71 30 61.08C29.84 61.45 29.74 61.9 29.55 62.17C29.41 62.49 29.46 62.88 29.64 63.17C31.06 65.51 32.71 67.78 35.21 70.51C36.19 71.57 37.64 74.32 40.4 77.55C40.85 78.07 41.36 78.55 41.91 78.97C46.71 82.61 51.63 88.53 51.63 88.53C51.63 88.53 59.29 97.08 62.53 100.69C64.97 103.41 66.14 104.71 66.86 105.52C69.05 107.94 70.94 109.67 72.93 111.14Z" fill="#101214"/>
<path d="M169.26 219.97C169.77 220.39 170.26 220.52 170.8 220.55C171.07 220.56 171.3 220.5 171.51 220.4C171.61 220.35 171.7 220.28 171.79 220.21C171.83 220.17 171.87 220.13 171.91 220.09L171.97 220.03C172.02 219.97 171.91 220.1 171.93 220.08C171.99 219.99 172.06 219.91 172.12 219.82C172.15 219.77 172.18 219.72 172.21 219.67C172.27 219.57 172.32 219.46 172.37 219.36C172.47 219.15 172.55 218.93 172.62 218.73C172.75 218.33 172.58 217.74 172.24 217.24C170.2 214.28 167.87 211.29 164.64 207.68C160.85 203.7 159.42 203.15 156.99 200.33C152.78 195.66 146.4 187.13 144.87 185.07C144.64 184.77 144.4 184.48 144.13 184.21C142.23 182.28 133.93 173.76 127.3 165.97C122.48 160.58 119.5 157.25 117.94 155.51C114.25 151.41 111.25 148.56 108.09 145.96C106.35 144.53 104.18 146.47 105.39 148.36C107.61 151.81 110.09 155.11 113.75 159.25C115.17 160.85 117.55 164.72 121.64 169.52C122.31 170.3 123.03 171.03 123.8 171.71C130.47 177.54 137.85 186.25 137.85 186.25C137.85 186.25 149.21 198.94 154.01 204.3C157.64 208.32 159.38 210.26 160.46 211.44C163.73 215.03 166.45 217.65 169.25 219.98L169.26 219.97Z" fill="#101214"/>
<path d="M101.74 116.51C102.33 117.14 102.83 117.61 103.39 117.81C103.93 118.02 104.46 118.02 104.87 117.81C105.28 117.6 105.58 117.18 105.65 116.57C105.71 115.97 105.63 115.12 105.08 114.23C103.63 111.66 101.55 109.25 98.71 107.35C98.02 106.84 97.22 106.48 96.45 106.03C95.63 105.68 94.8 105.27 93.9 105.01C92.12 104.38 90.14 104.09 88.04 104.01C85.65 103.99 83.73 104.46 82.16 104.98C81.38 105.27 80.66 105.53 80.03 105.88C79.39 106.2 78.8 106.51 78.28 106.87C76.18 108.25 74.56 109.62 72.47 111.82C70.73 113.7 68.98 116.14 67.61 118.92C66.2 121.67 65.24 124.83 64.74 127.83C64.26 130.85 64.23 133.81 64.58 136.25C64.9 138.7 65.55 140.6 65.93 141.65C66.2 142.26 66.45 142.88 66.81 143.44C67.41 144.46 68.62 146.37 70.81 148.34C72.97 150.31 76.07 152.21 79.8 153.31C83.51 154.42 87.81 154.76 92.06 154.1C94.19 153.78 96.27 153.16 98.27 152.47C100.26 151.69 102.23 150.82 104.04 149.66C106.58 148.02 108.62 146.08 110.16 144.12C111.7 142.16 112.76 140.19 113.53 138.4C115 134.79 115.4 131.96 115.57 130.06C115.94 125.53 115.32 121.59 114.16 118.17C112.98 114.76 111.33 111.76 108.84 109.34C108.14 108.69 107.45 108.36 106.86 108.32C106.29 108.27 105.88 108.47 105.64 108.8C105.17 109.5 105.31 110.53 106.12 111.72C107.62 113.95 108.6 116.63 109.29 119.58C109.97 122.54 110.31 125.86 109.98 129.55C109.86 130.98 109.34 133.19 108.1 135.71C106.88 138.24 104.83 141.01 101.63 143.33L100.85 143.9L100.03 144.44C99.5 144.82 98.94 145.15 98.37 145.5C97.16 146.27 95.77 146.89 94.32 147.45C92.88 147.96 91.39 148.34 89.88 148.56C86.86 148.95 83.83 148.65 81.36 147.86C78.87 147.1 76.98 145.9 75.79 144.93C75.17 144.46 74.77 144.01 74.46 143.73C74.18 143.42 74.03 143.25 74.03 143.25C74.03 143.25 73.79 143.02 73.42 142.53C73.23 142.3 73 142 72.77 141.64C72.51 141.29 72.27 140.86 72 140.39C70.95 138.5 69.95 135.54 69.87 132.1C69.76 128.67 70.47 124.85 71.86 121.65C73.24 118.42 75.22 115.8 76.93 114.21C79.51 111.76 81.92 110.7 83.73 110.18C85.59 109.69 86.94 109.63 87.95 109.64C89.48 109.69 90.95 109.85 92.28 110.27C92.96 110.42 93.59 110.72 94.23 110.92C94.83 111.23 95.46 111.43 96.01 111.78C98.28 113.03 100.16 114.64 101.74 116.51Z" fill="#101214"/>
<path d="M190.81 14.37C191.38 13.29 191.1 12.22 190.4 11.6C189.72 11 188.53 10.92 187.52 12.01C186.12 13.55 184.88 15.35 183.93 17.57C183.02 19.78 182.28 22.44 182.68 25.71C182.98 27.55 183.63 29.04 184.4 30.17C184.79 30.73 185.22 31.21 185.62 31.63C186.06 32.01 186.48 32.39 186.87 32.67C188.43 33.72 189.82 34.43 191.88 35.3C193.64 35.99 195.76 36.54 198.02 36.75C200.26 36.98 202.7 36.84 204.88 36.38C207.08 35.94 209.13 35.17 210.75 34.3C212.36 33.42 213.55 32.49 214.17 31.92C214.55 31.6 214.88 31.21 215.2 30.82C215.73 30.1 216.73 28.72 217.51 26.64C218.28 24.56 218.74 21.87 218.45 18.99C218.18 16.12 217.22 13.06 215.57 10.34C213.9 7.6 211.79 5.28 209.22 3.38C207.39 2.09 205.48 1.23 203.69 0.72C201.9 0.2 200.24 0.03 198.8 0C195.9 0 193.86 0.53 192.51 0.95C189.32 1.97 186.83 3.52 184.86 5.3C182.9 7.09 181.38 9.1 180.5 11.54C180.27 12.22 180.3 12.82 180.52 13.26C180.73 13.69 181.08 13.94 181.48 14.03C182.3 14.2 183.16 13.91 183.73 13.15C184.82 11.7 186.3 10.43 188.02 9.27C189.74 8.11 191.76 7.06 194.16 6.32C195.09 6.03 196.62 5.86 198.48 6.05C200.35 6.25 202.49 6.87 204.66 8.27C205.38 8.71 206.09 9.2 206.83 9.68C207.24 9.92 207.61 10.26 208.02 10.57C208.41 10.9 208.78 11.27 209.16 11.63C209.86 12.37 210.49 13.2 211.02 14.07C212.06 15.83 212.66 17.79 212.78 19.52C212.95 21.26 212.64 22.72 212.35 23.68C212.19 24.16 212.05 24.53 211.92 24.77C211.8 25.01 211.74 25.15 211.74 25.15C211.74 25.15 211.63 25.34 211.44 25.69C211.24 26.03 210.92 26.52 210.47 27.07C209.56 28.17 207.97 29.51 205.83 30.42C204.77 30.88 203.59 31.24 202.37 31.48C201.17 31.72 199.95 31.82 198.76 31.78C196.38 31.72 194.26 31.11 192.85 30.44C191.78 29.95 190.94 29.37 190.27 28.81C189.94 28.53 189.75 28.3 189.52 28.07C189.35 27.8 189.14 27.6 189.02 27.35C188.91 27.1 188.75 26.9 188.68 26.67C188.6 26.44 188.52 26.23 188.45 26.04C188.38 25.62 188.25 25.29 188.23 24.96C187.96 23.04 188.3 21.09 188.79 19.33C189.29 17.56 189.98 15.93 190.79 14.37H190.81Z" fill="#101214"/>
<path d="M18.8 201.41C17.69 200.91 16.64 201.24 16.06 201.98C15.5 202.7 15.49 203.89 16.64 204.83C18.26 206.14 20.13 207.28 22.39 208.09C24.65 208.87 27.35 209.45 30.59 208.87C32.41 208.46 33.86 207.73 34.94 206.89C35.47 206.47 35.93 206.02 36.32 205.59C36.67 205.13 37.03 204.69 37.29 204.28C38.25 202.67 38.87 201.23 39.62 199.13C40.2 197.34 40.63 195.18 40.71 192.91C40.8 190.66 40.52 188.23 39.94 186.08C39.38 183.9 38.48 181.91 37.52 180.35C36.55 178.79 35.55 177.66 34.95 177.07C34.61 176.71 34.2 176.4 33.8 176.11C33.05 175.62 31.61 174.7 29.49 174.05C27.37 173.41 24.65 173.1 21.8 173.56C18.95 174 15.95 175.13 13.33 176.94C10.7 178.76 8.50002 181 6.75002 183.68C5.57002 185.58 4.82002 187.54 4.41002 189.35C4.00002 191.17 3.92002 192.83 3.98002 194.27C4.15002 197.16 4.80002 199.17 5.29002 200.49C6.49002 203.62 8.18002 206.01 10.08 207.87C11.98 209.72 14.07 211.12 16.56 211.86C17.25 212.05 17.85 211.99 18.27 211.74C18.69 211.5 18.91 211.14 18.99 210.74C19.11 209.91 18.78 209.07 17.98 208.54C16.47 207.54 15.12 206.13 13.86 204.49C12.6 202.84 11.44 200.88 10.56 198.53C10.21 197.62 9.95002 196.1 10.04 194.23C10.13 192.35 10.63 190.18 11.89 187.93C12.28 187.19 12.73 186.45 13.17 185.68C13.39 185.25 13.71 184.87 13.98 184.44C14.29 184.04 14.64 183.64 14.98 183.24C15.68 182.49 16.47 181.82 17.31 181.24C19.01 180.1 20.93 179.38 22.65 179.16C24.37 178.89 25.85 179.11 26.83 179.35C27.32 179.48 27.7 179.6 27.95 179.72C28.2 179.82 28.34 179.88 28.34 179.88C28.34 179.88 28.54 179.98 28.9 180.14C29.26 180.32 29.75 180.61 30.34 181.03C31.49 181.88 32.92 183.39 33.95 185.47C34.47 186.5 34.9 187.66 35.21 188.86C35.52 190.04 35.69 191.26 35.72 192.45C35.8 194.83 35.31 196.98 34.73 198.42C34.3 199.52 33.78 200.39 33.25 201.09C32.99 201.43 32.77 201.64 32.56 201.88C32.3 202.06 32.11 202.29 31.87 202.42C31.63 202.55 31.44 202.71 31.21 202.8C30.99 202.9 30.79 202.99 30.6 203.07C30.18 203.17 29.86 203.32 29.54 203.35C27.64 203.73 25.67 203.5 23.89 203.11C22.09 202.71 20.42 202.12 18.82 201.4L18.8 201.41Z" fill="#101214"/>
</svg>
