<svg width="157" height="212" viewBox="0 0 157 212" fill="none" xmlns="http://www.w3.org/2000/svg">
<path d="M5.25375 21.17C4.90375 16.34 1.55375 16.34 1.20375 21.17C0.70375 28.02 0.44375 35.22 0.42375 44.48C0.58375 54.97 1.27375 57.58 1.19375 64.69C1.19375 76.7 0.26375 96.96 0.03375 101.84C0.00375 102.56 -0.00625 103.28 0.00375 104.01C0.13375 109.18 0.63375 131.87 0.39375 151.4C0.39375 165.2 0.41375 173.73 0.41375 178.19C0.44375 188.72 0.78375 196.59 1.41375 204.32C1.76375 208.56 4.67375 208.56 5.02375 204.32C5.66375 196.59 6.00375 188.72 6.02375 178.19C6.02375 174.1 6.82375 165.57 6.96375 153.53C6.98375 151.57 6.93375 149.61 6.80375 147.66C5.71375 130.88 6.02375 109.08 6.02375 109.08C6.02375 109.08 6.03375 76.56 6.04375 62.84C6.04375 52.5 6.03375 47.53 6.02375 44.48C6.00375 35.23 5.73375 28.03 5.23375 21.17H5.25375Z" fill="#101214"/>
<path d="M151.014 200.97C151.364 209.66 154.714 209.66 155.064 200.97C155.564 188.64 155.824 175.69 155.844 159.05C155.684 140.18 154.994 135.49 155.074 122.7C155.074 101.1 156.004 64.66 156.234 55.88C156.264 54.58 156.274 53.28 156.264 51.98C156.214 47.33 156.094 34.8 155.934 19.05C155.934 18.56 155.934 18.06 155.924 17.56C155.894 16.96 155.854 16.35 155.824 15.74C155.734 15.13 155.644 14.52 155.524 13.91C155.364 13.31 155.234 12.7 155.024 12.11C154.234 9.73 152.904 7.48 151.134 5.6C149.374 3.71 147.154 2.19 144.664 1.25C144.044 1.02 143.414 0.79 142.764 0.64C142.444 0.56 142.114 0.47 141.794 0.4L140.804 0.25C140.144 0.13 139.474 0.12 138.804 0.08L138.314 0.06H137.894H137.064C128.154 0.08 119.014 0.06 110.234 0C85.4137 0 70.0637 0.02 62.0337 0.02C52.5637 0.03 44.2837 0.12 36.6437 0.29C32.8237 0.37 29.1537 0.48 25.5837 0.6C23.7937 0.67 22.0237 0.73 20.2737 0.8C19.3837 0.84 18.4937 0.88 17.6037 0.92C16.6037 0.98 15.6137 1.13 14.6437 1.37C12.5137 1.9 11.1237 2.85 10.3637 3.64C9.60374 4.44 9.44374 5.07 9.67374 5.4C9.90374 5.74 10.5237 5.79 11.4637 5.64C12.4037 5.5 13.6837 5.16 15.3637 4.91C16.1337 4.79 16.9037 4.75 17.6837 4.77C18.5437 4.8 19.4037 4.84 20.2737 4.87C22.0237 4.94 23.7937 5 25.5837 5.07C29.1637 5.19 32.8237 5.3 36.6437 5.38C44.2837 5.55 52.5637 5.64 62.0337 5.65C69.3937 5.65 84.7337 6.45 106.384 6.59C109.914 6.61 113.444 6.56 116.934 6.43C120.704 6.29 124.624 6.18 128.584 6.08C130.564 6.04 132.554 5.99 134.554 5.95L137.544 5.89H138.294H138.914C139.314 5.89 139.714 5.91 140.114 5.98C143.304 6.37 146.234 8.19 148.034 10.71C148.944 11.96 149.584 13.37 149.924 14.81C150.044 15.16 150.064 15.53 150.134 15.89C150.214 16.25 150.224 16.61 150.234 16.98L150.264 17.52V18.17C150.264 18.6 150.264 19.03 150.274 19.45C150.334 33.02 150.254 42.82 150.254 42.82C150.254 42.82 150.244 101.31 150.234 126C150.234 144.59 150.244 153.54 150.254 159.03C150.274 175.68 150.544 188.63 151.044 200.95L151.014 200.97Z" fill="#101214"/>
<path d="M49.1837 57.1C46.4637 57.43 46.3537 60.78 49.1237 61.15C51.0937 61.41 53.1037 61.62 55.2837 61.74C56.3837 61.79 57.5237 61.84 58.7837 61.82C60.0237 61.81 61.3937 61.74 62.9737 61.46C63.9137 61.21 64.7737 60.99 65.6437 60.49C65.8537 60.38 66.0537 60.27 66.2537 60.15C66.4537 60 66.6437 59.84 66.8337 59.69C67.2037 59.37 67.5637 59.09 67.8037 58.71C68.0637 58.36 68.3037 58.01 68.5137 57.67C68.6637 57.34 68.7937 57.01 68.9137 56.7C69.1937 56.05 69.2137 55.55 69.3237 55.02C69.4437 54.49 69.4237 54.06 69.4637 53.6C69.4937 53.15 69.5237 52.7 69.5137 52.28C69.5237 51.85 69.5437 51.41 69.5537 50.93C69.5537 50.47 69.5737 49.99 69.6037 49.47C69.6537 47.71 69.7037 45.71 69.8037 43.62C69.8837 41.53 70.0237 39.37 70.0637 37.21C70.0537 35.05 70.1037 32.86 69.0937 30.5C68.9037 29.94 68.4637 29.37 68.1037 28.88C67.9237 28.62 67.7237 28.4 67.5037 28.22C67.2937 28.03 67.0737 27.84 66.8637 27.67C66.4437 27.3 66.0737 27.13 65.7337 26.94C65.3937 26.76 65.0837 26.6 64.8437 26.49C64.3137 26.3 63.7537 26.13 63.2037 26.01C62.7637 25.96 62.1137 25.87 61.3437 25.79C60.6237 25.77 59.7037 25.69 58.7837 25.71C56.8637 25.68 54.6337 25.77 52.1337 25.82C49.6337 25.89 46.9037 25.88 43.8037 26.16C43.4337 26.18 42.9937 26.26 42.5837 26.32C42.1537 26.4 41.7737 26.42 41.2937 26.57C40.8237 26.71 40.3937 26.79 39.9037 26.99C39.3937 27.22 38.9037 27.42 38.4137 27.73C37.9237 28.1 37.4037 28.44 37.0037 28.9C36.6337 29.36 36.1737 29.86 35.9537 30.35C35.7237 30.83 35.4337 31.36 35.2937 31.81C35.1637 32.26 35.0337 32.71 34.9037 33.16C34.7937 33.75 34.7237 34.31 34.6337 34.86C34.5937 35.37 34.5537 35.88 34.5137 36.37C34.4437 37.34 34.4337 38.2 34.4037 39.04C34.4037 40.66 34.3837 42.1 34.3837 43.37C34.3837 45.89 34.3837 47.74 34.4237 49.06C34.4537 50.59 34.5737 52.11 34.8137 53.63C35.0837 55.13 35.5337 56.91 36.8837 58.48C37.1737 58.88 37.6237 59.17 37.9937 59.49C38.3837 59.81 38.8037 59.96 39.2037 60.18C39.6237 60.4 39.9837 60.45 40.3737 60.58C40.7637 60.71 41.1137 60.75 41.4537 60.8C42.8537 61.02 44.0337 60.94 45.2137 60.87C47.7537 60.62 47.7137 57.71 45.4237 57.27C44.4037 57.03 43.3537 56.82 42.5037 56.48C42.2837 56.4 42.0637 56.33 41.9037 56.22C41.7437 56.11 41.5137 56.05 41.4137 55.93C41.1337 55.72 40.9637 55.53 40.8237 55.29C40.5637 54.84 40.3237 54 40.2137 52.85C40.1137 51.7 40.0537 50.4 40.0437 48.93C40.0137 47.81 40.2137 46.03 40.4337 43.68C40.5337 42.52 40.6437 41.22 40.7737 39.78C40.8837 38.37 41.0137 36.85 41.2037 35.45C41.2937 35.04 41.3137 34.53 41.4037 34.25L41.4837 33.76C41.5237 33.66 41.5437 33.55 41.5437 33.44C41.5937 33.26 41.5737 33.12 41.6937 33C41.7237 32.97 41.7037 32.91 41.7637 32.88C41.8237 32.85 41.8837 32.81 41.9337 32.77C42.0437 32.69 42.1437 32.59 42.3737 32.52C42.5737 32.45 42.7537 32.36 42.9737 32.29L43.7237 32.11C44.2037 31.97 44.8237 31.93 45.3737 31.85C47.6937 31.6 50.1537 31.55 52.2837 31.52C54.4237 31.49 56.2437 31.5 57.5137 31.54C58.1437 31.57 58.6337 31.59 58.9837 31.61C59.3337 31.62 59.4937 31.65 59.4937 31.65C59.4937 31.65 59.7537 31.67 60.2337 31.71C60.7237 31.73 61.3537 31.84 62.0937 31.96C62.7637 32.13 63.4437 32.38 63.7237 32.66C63.7837 32.77 63.8537 32.86 63.9437 32.95C64.0137 33.08 64.0737 33.26 64.1637 33.41C64.2537 33.56 64.2837 33.85 64.3637 34.06C64.4437 34.27 64.4837 34.56 64.5237 34.86C64.8837 37.19 64.8337 40.29 64.8437 43.09C64.8437 45.9 64.8537 48.53 64.7637 50.36C64.7437 51.07 64.6737 51.66 64.6337 52.26C64.5437 52.79 64.5037 53.33 64.3937 53.72C64.2837 54.1 64.2037 54.49 64.0737 54.67C63.9837 54.95 63.8437 55.04 63.7637 55.18C63.4537 55.63 62.5337 55.83 61.9237 55.99C59.7937 56.37 57.4137 56.43 55.3037 56.59C53.1537 56.74 51.1737 56.91 49.2437 57.14L49.1837 57.1Z" fill="#101214"/>
<path d="M102.824 57.1C100.104 57.43 99.9937 60.78 102.764 61.15C104.734 61.41 106.744 61.62 108.924 61.74C110.024 61.79 111.164 61.84 112.424 61.82C113.664 61.81 115.034 61.74 116.614 61.46C117.554 61.21 118.414 60.99 119.284 60.49C119.494 60.38 119.694 60.27 119.894 60.15C120.094 60 120.284 59.84 120.474 59.69C120.844 59.37 121.204 59.09 121.444 58.71C121.704 58.36 121.944 58.01 122.154 57.67C122.304 57.34 122.434 57.01 122.554 56.7C122.834 56.05 122.854 55.55 122.964 55.02C123.084 54.49 123.064 54.06 123.104 53.6C123.134 53.15 123.164 52.7 123.154 52.28C123.164 51.85 123.184 51.41 123.194 50.93C123.194 50.47 123.214 49.99 123.244 49.47C123.294 47.71 123.344 45.71 123.444 43.62C123.524 41.53 123.664 39.37 123.704 37.21C123.694 35.05 123.744 32.86 122.734 30.5C122.544 29.94 122.104 29.37 121.744 28.88C121.564 28.62 121.364 28.4 121.144 28.22C120.934 28.03 120.714 27.84 120.504 27.67C120.084 27.3 119.714 27.13 119.374 26.94C119.034 26.76 118.724 26.6 118.484 26.49C117.954 26.3 117.394 26.13 116.844 26.01C116.404 25.96 115.754 25.87 114.984 25.79C114.264 25.77 113.344 25.69 112.424 25.71C110.504 25.68 108.274 25.77 105.774 25.82C103.274 25.89 100.544 25.88 97.4437 26.16C97.0737 26.18 96.6337 26.26 96.2237 26.32C95.7937 26.4 95.4137 26.42 94.9337 26.57C94.4637 26.71 94.0337 26.79 93.5437 26.99C93.0337 27.22 92.5437 27.42 92.0537 27.73C91.5637 28.1 91.0437 28.44 90.6437 28.9C90.2737 29.36 89.8137 29.86 89.5937 30.35C89.3637 30.83 89.0737 31.36 88.9337 31.81C88.8037 32.26 88.6737 32.71 88.5437 33.16C88.4337 33.75 88.3637 34.31 88.2737 34.86C88.2337 35.37 88.1937 35.88 88.1537 36.37C88.0837 37.34 88.0737 38.2 88.0437 39.04C88.0437 40.66 88.0237 42.1 88.0237 43.37C88.0237 45.89 88.0237 47.74 88.0637 49.06C88.0937 50.59 88.2137 52.11 88.4537 53.63C88.7237 55.13 89.1737 56.91 90.5237 58.48C90.8137 58.88 91.2637 59.17 91.6337 59.49C92.0237 59.81 92.4437 59.96 92.8437 60.18C93.2637 60.4 93.6237 60.45 94.0137 60.58C94.4037 60.71 94.7537 60.75 95.0937 60.8C96.4937 61.02 97.6737 60.94 98.8537 60.87C101.394 60.62 101.354 57.71 99.0637 57.27C98.0437 57.03 96.9937 56.82 96.1437 56.48C95.9237 56.4 95.7037 56.33 95.5437 56.22C95.3837 56.11 95.1537 56.05 95.0537 55.93C94.7737 55.72 94.6037 55.53 94.4637 55.29C94.2037 54.84 93.9637 54 93.8537 52.85C93.7537 51.7 93.6937 50.4 93.6837 48.93C93.6537 47.81 93.8537 46.03 94.0737 43.68C94.1737 42.52 94.2837 41.22 94.4137 39.78C94.5237 38.37 94.6537 36.85 94.8437 35.45C94.9337 35.04 94.9537 34.53 95.0437 34.25L95.1237 33.76C95.1637 33.66 95.1837 33.55 95.1837 33.44C95.2337 33.26 95.2137 33.12 95.3337 33C95.3637 32.97 95.3437 32.91 95.4037 32.88C95.4637 32.85 95.5237 32.81 95.5737 32.77C95.6837 32.69 95.7837 32.59 96.0137 32.52C96.2137 32.45 96.3937 32.36 96.6137 32.29L97.3637 32.11C97.8437 31.97 98.4637 31.93 99.0137 31.85C101.334 31.6 103.794 31.55 105.924 31.52C108.064 31.49 109.884 31.5 111.154 31.54C111.784 31.57 112.274 31.59 112.624 31.61C112.974 31.62 113.134 31.65 113.134 31.65C113.134 31.65 113.394 31.67 113.874 31.71C114.364 31.73 114.994 31.84 115.734 31.96C116.404 32.13 117.084 32.38 117.364 32.66C117.424 32.77 117.494 32.86 117.584 32.95C117.654 33.08 117.714 33.26 117.804 33.41C117.894 33.56 117.924 33.85 118.004 34.06C118.084 34.27 118.124 34.56 118.164 34.86C118.524 37.19 118.474 40.29 118.484 43.09C118.484 45.9 118.494 48.53 118.404 50.36C118.384 51.07 118.314 51.66 118.274 52.26C118.184 52.79 118.144 53.33 118.034 53.72C117.924 54.1 117.844 54.49 117.714 54.67C117.624 54.95 117.484 55.04 117.404 55.18C117.094 55.63 116.174 55.83 115.564 55.99C113.434 56.37 111.054 56.43 108.944 56.59C106.794 56.74 104.814 56.91 102.884 57.14L102.824 57.1Z" fill="#101214"/>
<path d="M49.1837 102.49C46.4637 102.82 46.3537 106.17 49.1237 106.54C51.0937 106.8 53.1037 107.01 55.2837 107.13C56.3837 107.18 57.5237 107.23 58.7837 107.21C60.0237 107.2 61.3937 107.13 62.9737 106.85C63.9137 106.6 64.7737 106.38 65.6437 105.88C65.8537 105.77 66.0537 105.66 66.2537 105.54C66.4537 105.39 66.6437 105.23 66.8337 105.08C67.2037 104.76 67.5637 104.48 67.8037 104.1C68.0637 103.75 68.3037 103.4 68.5137 103.06C68.6637 102.73 68.7937 102.4 68.9137 102.09C69.1937 101.44 69.2137 100.94 69.3237 100.41C69.4437 99.88 69.4237 99.45 69.4637 98.99C69.4937 98.54 69.5237 98.09 69.5137 97.67C69.5237 97.24 69.5437 96.8 69.5537 96.32C69.5537 95.86 69.5737 95.38 69.6037 94.86C69.6537 93.1 69.7037 91.1 69.8037 89.01C69.8837 86.92 70.0237 84.76 70.0637 82.6C70.0537 80.44 70.1037 78.25 69.0937 75.89C68.9037 75.33 68.4637 74.76 68.1037 74.27C67.9237 74.01 67.7237 73.79 67.5037 73.61C67.2937 73.42 67.0737 73.23 66.8637 73.06C66.4437 72.69 66.0737 72.52 65.7337 72.33C65.3937 72.15 65.0837 71.99 64.8437 71.88C64.3137 71.69 63.7537 71.52 63.2037 71.4C62.7637 71.35 62.1137 71.26 61.3437 71.18C60.6237 71.16 59.7037 71.08 58.7837 71.1C56.8637 71.07 54.6337 71.16 52.1337 71.21C49.6337 71.28 46.9037 71.27 43.8037 71.55C43.4337 71.57 42.9937 71.65 42.5837 71.71C42.1537 71.79 41.7737 71.81 41.2937 71.96C40.8237 72.1 40.3937 72.18 39.9037 72.38C39.3937 72.61 38.9037 72.81 38.4137 73.12C37.9237 73.49 37.4037 73.83 37.0037 74.29C36.6337 74.75 36.1737 75.25 35.9537 75.74C35.7237 76.22 35.4337 76.75 35.2937 77.2C35.1637 77.65 35.0337 78.1 34.9037 78.55C34.7937 79.14 34.7237 79.7 34.6337 80.25C34.5937 80.77 34.5537 81.27 34.5137 81.76C34.4437 82.73 34.4337 83.59 34.4037 84.43C34.4037 86.05 34.3837 87.49 34.3837 88.76C34.3837 91.28 34.3837 93.13 34.4237 94.45C34.4537 95.98 34.5737 97.5 34.8137 99.02C35.0837 100.52 35.5337 102.3 36.8837 103.87C37.1737 104.27 37.6237 104.56 37.9937 104.88C38.3837 105.2 38.8037 105.35 39.2037 105.57C39.6237 105.79 39.9837 105.84 40.3737 105.97C40.7637 106.1 41.1137 106.14 41.4537 106.19C42.8537 106.41 44.0337 106.33 45.2137 106.26C47.7537 106.01 47.7137 103.1 45.4237 102.66C44.4037 102.42 43.3537 102.21 42.5037 101.87C42.2837 101.79 42.0637 101.72 41.9037 101.61C41.7437 101.5 41.5137 101.44 41.4137 101.32C41.1337 101.11 40.9637 100.92 40.8237 100.68C40.5637 100.23 40.3237 99.39 40.2137 98.24C40.1137 97.09 40.0537 95.79 40.0437 94.32C40.0137 93.2 40.2137 91.42 40.4337 89.07C40.5337 87.91 40.6437 86.61 40.7737 85.17C40.8837 83.76 41.0137 82.24 41.2037 80.84C41.2937 80.43 41.3137 79.92 41.4037 79.64L41.4837 79.15C41.5237 79.05 41.5437 78.95 41.5437 78.83C41.5937 78.65 41.5737 78.51 41.6937 78.39C41.7237 78.36 41.7037 78.3 41.7637 78.27C41.8237 78.24 41.8837 78.2 41.9337 78.16C42.0437 78.08 42.1437 77.98 42.3737 77.91C42.5737 77.84 42.7537 77.75 42.9737 77.68L43.7237 77.5C44.2037 77.36 44.8237 77.32 45.3737 77.24C47.6937 76.99 50.1537 76.94 52.2837 76.91C54.4237 76.88 56.2437 76.89 57.5137 76.93C58.1437 76.96 58.6337 76.98 58.9837 77C59.3337 77.01 59.4937 77.04 59.4937 77.04C59.4937 77.04 59.7537 77.06 60.2337 77.1C60.7237 77.12 61.3537 77.23 62.0937 77.35C62.7637 77.52 63.4437 77.77 63.7237 78.05C63.7837 78.16 63.8537 78.25 63.9437 78.34C64.0137 78.47 64.0737 78.65 64.1637 78.8C64.2537 78.95 64.2837 79.24 64.3637 79.45C64.4437 79.66 64.4837 79.95 64.5237 80.25C64.8837 82.58 64.8337 85.68 64.8437 88.48C64.8437 91.29 64.8537 93.92 64.7637 95.75C64.7437 96.46 64.6737 97.05 64.6337 97.65C64.5437 98.18 64.5037 98.72 64.3937 99.11C64.2837 99.49 64.2037 99.88 64.0737 100.07C63.9837 100.35 63.8437 100.44 63.7637 100.58C63.4537 101.03 62.5337 101.23 61.9237 101.39C59.7937 101.77 57.4137 101.83 55.3037 101.99C53.1537 102.14 51.1737 102.31 49.2437 102.54L49.1837 102.49Z" fill="#101214"/>
<path d="M102.824 102.49C100.104 102.82 99.9937 106.17 102.764 106.54C104.734 106.8 106.744 107.01 108.924 107.13C110.024 107.18 111.164 107.23 112.424 107.21C113.664 107.2 115.034 107.13 116.614 106.85C117.554 106.6 118.414 106.38 119.284 105.88C119.494 105.77 119.694 105.66 119.894 105.54C120.094 105.39 120.284 105.23 120.474 105.08C120.844 104.76 121.204 104.48 121.444 104.1C121.704 103.75 121.944 103.4 122.154 103.06C122.304 102.73 122.434 102.4 122.554 102.09C122.834 101.44 122.854 100.94 122.964 100.41C123.084 99.88 123.064 99.45 123.104 98.99C123.134 98.54 123.164 98.09 123.154 97.67C123.164 97.24 123.184 96.8 123.194 96.32C123.194 95.86 123.214 95.38 123.244 94.86C123.294 93.1 123.344 91.1 123.444 89.01C123.524 86.92 123.664 84.76 123.704 82.6C123.694 80.44 123.744 78.25 122.734 75.89C122.544 75.33 122.104 74.76 121.744 74.27C121.564 74.01 121.364 73.79 121.144 73.61C120.934 73.42 120.714 73.23 120.504 73.06C120.084 72.69 119.714 72.52 119.374 72.33C119.034 72.15 118.724 71.99 118.484 71.88C117.954 71.69 117.394 71.52 116.844 71.4C116.404 71.35 115.754 71.26 114.984 71.18C114.264 71.16 113.344 71.08 112.424 71.1C110.504 71.07 108.274 71.16 105.774 71.21C103.274 71.28 100.544 71.27 97.4437 71.55C97.0737 71.57 96.6337 71.65 96.2237 71.71C95.7937 71.79 95.4137 71.81 94.9337 71.96C94.4637 72.1 94.0337 72.18 93.5437 72.38C93.0337 72.61 92.5437 72.81 92.0537 73.12C91.5637 73.49 91.0437 73.83 90.6437 74.29C90.2737 74.75 89.8137 75.25 89.5937 75.74C89.3637 76.22 89.0737 76.75 88.9337 77.2C88.8037 77.65 88.6737 78.1 88.5437 78.55C88.4337 79.14 88.3637 79.7 88.2737 80.25C88.2337 80.77 88.1937 81.27 88.1537 81.76C88.0837 82.73 88.0737 83.59 88.0437 84.43C88.0437 86.05 88.0237 87.49 88.0237 88.76C88.0237 91.28 88.0237 93.13 88.0637 94.45C88.0937 95.98 88.2137 97.5 88.4537 99.02C88.7237 100.52 89.1737 102.3 90.5237 103.87C90.8137 104.27 91.2637 104.56 91.6337 104.88C92.0237 105.2 92.4437 105.35 92.8437 105.57C93.2637 105.79 93.6237 105.84 94.0137 105.97C94.4037 106.1 94.7537 106.14 95.0937 106.19C96.4937 106.41 97.6737 106.33 98.8537 106.26C101.394 106.01 101.354 103.1 99.0637 102.66C98.0437 102.42 96.9937 102.21 96.1437 101.87C95.9237 101.79 95.7037 101.72 95.5437 101.61C95.3837 101.5 95.1537 101.44 95.0537 101.32C94.7737 101.11 94.6037 100.92 94.4637 100.68C94.2037 100.23 93.9637 99.39 93.8537 98.24C93.7537 97.09 93.6937 95.79 93.6837 94.32C93.6537 93.2 93.8537 91.42 94.0737 89.07C94.1737 87.91 94.2837 86.61 94.4137 85.17C94.5237 83.76 94.6537 82.24 94.8437 80.84C94.9337 80.43 94.9537 79.92 95.0437 79.64L95.1237 79.15C95.1637 79.05 95.1837 78.95 95.1837 78.83C95.2337 78.65 95.2137 78.51 95.3337 78.39C95.3637 78.36 95.3437 78.3 95.4037 78.27C95.4637 78.24 95.5237 78.2 95.5737 78.16C95.6837 78.08 95.7837 77.98 96.0137 77.91C96.2137 77.84 96.3937 77.75 96.6137 77.68L97.3637 77.5C97.8437 77.36 98.4637 77.32 99.0137 77.24C101.334 76.99 103.794 76.94 105.924 76.91C108.064 76.88 109.884 76.89 111.154 76.93C111.784 76.96 112.274 76.98 112.624 77C112.974 77.01 113.134 77.04 113.134 77.04C113.134 77.04 113.394 77.06 113.874 77.1C114.364 77.12 114.994 77.23 115.734 77.35C116.404 77.52 117.084 77.77 117.364 78.05C117.424 78.16 117.494 78.25 117.584 78.34C117.654 78.47 117.714 78.65 117.804 78.8C117.894 78.95 117.924 79.24 118.004 79.45C118.084 79.66 118.124 79.95 118.164 80.25C118.524 82.58 118.474 85.68 118.484 88.48C118.484 91.29 118.494 93.92 118.404 95.75C118.384 96.46 118.314 97.05 118.274 97.65C118.184 98.18 118.144 98.72 118.034 99.11C117.924 99.49 117.844 99.88 117.714 100.07C117.624 100.35 117.484 100.44 117.404 100.58C117.094 101.03 116.174 101.23 115.564 101.39C113.434 101.77 111.054 101.83 108.944 101.99C106.794 102.14 104.814 102.31 102.884 102.54L102.824 102.49Z" fill="#101214"/>
<path d="M49.1837 147.87C46.4637 148.2 46.3537 151.55 49.1237 151.92C51.0937 152.18 53.1037 152.39 55.2837 152.51C56.3837 152.56 57.5237 152.61 58.7837 152.59C60.0237 152.58 61.3937 152.51 62.9737 152.23C63.9137 151.98 64.7737 151.76 65.6437 151.26C65.8537 151.15 66.0537 151.04 66.2537 150.92C66.4537 150.77 66.6437 150.61 66.8337 150.46C67.2037 150.14 67.5637 149.86 67.8037 149.48C68.0637 149.13 68.3037 148.78 68.5137 148.44C68.6637 148.11 68.7937 147.78 68.9137 147.47C69.1937 146.82 69.2137 146.32 69.3237 145.79C69.4437 145.26 69.4237 144.83 69.4637 144.37C69.4937 143.92 69.5237 143.47 69.5137 143.05C69.5237 142.62 69.5437 142.18 69.5537 141.7C69.5537 141.24 69.5737 140.76 69.6037 140.24C69.6537 138.48 69.7037 136.48 69.8037 134.39C69.8837 132.3 70.0237 130.14 70.0637 127.98C70.0537 125.82 70.1037 123.63 69.0937 121.27C68.9037 120.71 68.4637 120.14 68.1037 119.65C67.9237 119.39 67.7237 119.17 67.5037 118.99C67.2937 118.8 67.0737 118.61 66.8637 118.44C66.4437 118.07 66.0737 117.9 65.7337 117.71C65.3937 117.53 65.0837 117.37 64.8437 117.26C64.3137 117.07 63.7537 116.9 63.2037 116.78C62.7637 116.73 62.1137 116.64 61.3437 116.56C60.6237 116.54 59.7037 116.46 58.7837 116.48C56.8637 116.45 54.6337 116.54 52.1337 116.59C49.6337 116.66 46.9037 116.65 43.8037 116.93C43.4337 116.95 42.9937 117.03 42.5837 117.09C42.1537 117.17 41.7737 117.19 41.2937 117.34C40.8237 117.48 40.3937 117.56 39.9037 117.76C39.3937 117.99 38.9037 118.19 38.4137 118.5C37.9237 118.87 37.4037 119.21 37.0037 119.67C36.6337 120.13 36.1737 120.63 35.9537 121.12C35.7237 121.6 35.4337 122.13 35.2937 122.58C35.1637 123.03 35.0337 123.48 34.9037 123.93C34.7937 124.52 34.7237 125.08 34.6337 125.63C34.5937 126.15 34.5537 126.65 34.5137 127.14C34.4437 128.11 34.4337 128.97 34.4037 129.81C34.4037 131.43 34.3837 132.87 34.3837 134.14C34.3837 136.66 34.3837 138.51 34.4237 139.83C34.4537 141.36 34.5737 142.88 34.8137 144.4C35.0837 145.9 35.5337 147.68 36.8837 149.25C37.1737 149.65 37.6237 149.94 37.9937 150.26C38.3837 150.58 38.8037 150.73 39.2037 150.95C39.6237 151.17 39.9837 151.22 40.3737 151.35C40.7637 151.48 41.1137 151.52 41.4537 151.57C42.8537 151.79 44.0337 151.71 45.2137 151.64C47.7537 151.39 47.7137 148.48 45.4237 148.04C44.4037 147.8 43.3537 147.59 42.5037 147.25C42.2837 147.17 42.0637 147.1 41.9037 146.99C41.7437 146.88 41.5137 146.82 41.4137 146.7C41.1337 146.49 40.9637 146.3 40.8237 146.06C40.5637 145.61 40.3237 144.77 40.2137 143.62C40.1137 142.47 40.0537 141.17 40.0437 139.7C40.0137 138.58 40.2137 136.8 40.4337 134.45C40.5337 133.29 40.6437 131.99 40.7737 130.55C40.8837 129.14 41.0137 127.62 41.2037 126.22C41.2937 125.81 41.3137 125.3 41.4037 125.02L41.4837 124.53C41.5237 124.43 41.5437 124.33 41.5437 124.21C41.5937 124.03 41.5737 123.89 41.6937 123.77C41.7237 123.74 41.7037 123.68 41.7637 123.65C41.8237 123.62 41.8837 123.58 41.9337 123.54C42.0437 123.46 42.1437 123.36 42.3737 123.29C42.5737 123.22 42.7537 123.13 42.9737 123.06L43.7237 122.88C44.2037 122.74 44.8237 122.71 45.3737 122.62C47.6937 122.37 50.1537 122.32 52.2837 122.29C54.4237 122.26 56.2437 122.27 57.5137 122.31C58.1437 122.34 58.6337 122.36 58.9837 122.38C59.3337 122.39 59.4937 122.42 59.4937 122.42C59.4937 122.42 59.7537 122.44 60.2337 122.48C60.7237 122.5 61.3537 122.61 62.0937 122.73C62.7637 122.9 63.4437 123.15 63.7237 123.43C63.7837 123.54 63.8537 123.63 63.9437 123.72C64.0137 123.85 64.0737 124.03 64.1637 124.18C64.2537 124.33 64.2837 124.62 64.3637 124.83C64.4437 125.04 64.4837 125.33 64.5237 125.63C64.8837 127.96 64.8337 131.06 64.8437 133.86C64.8437 136.67 64.8537 139.3 64.7637 141.13C64.7437 141.84 64.6737 142.43 64.6337 143.03C64.5437 143.56 64.5037 144.1 64.3937 144.49C64.2837 144.87 64.2037 145.26 64.0737 145.45C63.9837 145.73 63.8437 145.82 63.7637 145.96C63.4537 146.41 62.5337 146.61 61.9237 146.77C59.7937 147.15 57.4137 147.21 55.3037 147.37C53.1537 147.52 51.1737 147.69 49.2437 147.92L49.1837 147.87Z" fill="#101214"/>
<path d="M102.824 147.87C100.104 148.2 99.9937 151.55 102.764 151.92C104.734 152.18 106.744 152.39 108.924 152.51C110.024 152.56 111.164 152.61 112.424 152.59C113.664 152.58 115.034 152.51 116.614 152.23C117.554 151.98 118.414 151.76 119.284 151.26C119.494 151.15 119.694 151.04 119.894 150.92C120.094 150.77 120.284 150.61 120.474 150.46C120.844 150.14 121.204 149.86 121.444 149.48C121.704 149.13 121.944 148.78 122.154 148.44C122.304 148.11 122.434 147.78 122.554 147.47C122.834 146.82 122.854 146.32 122.964 145.79C123.084 145.26 123.064 144.83 123.104 144.37C123.134 143.92 123.164 143.47 123.154 143.05C123.164 142.62 123.184 142.18 123.194 141.7C123.194 141.24 123.214 140.76 123.244 140.24C123.294 138.48 123.344 136.48 123.444 134.39C123.524 132.3 123.664 130.14 123.704 127.98C123.694 125.82 123.744 123.63 122.734 121.27C122.544 120.71 122.104 120.14 121.744 119.65C121.564 119.39 121.364 119.17 121.144 118.99C120.934 118.8 120.714 118.61 120.504 118.44C120.084 118.07 119.714 117.9 119.374 117.71C119.034 117.53 118.724 117.37 118.484 117.26C117.954 117.07 117.394 116.9 116.844 116.78C116.404 116.73 115.754 116.64 114.984 116.56C114.264 116.54 113.344 116.46 112.424 116.48C110.504 116.45 108.274 116.54 105.774 116.59C103.274 116.66 100.544 116.65 97.4437 116.93C97.0737 116.95 96.6337 117.03 96.2237 117.09C95.7937 117.17 95.4137 117.19 94.9337 117.34C94.4637 117.48 94.0337 117.56 93.5437 117.76C93.0337 117.99 92.5437 118.19 92.0537 118.5C91.5637 118.87 91.0437 119.21 90.6437 119.67C90.2737 120.13 89.8137 120.63 89.5937 121.12C89.3637 121.6 89.0737 122.13 88.9337 122.58C88.8037 123.03 88.6737 123.48 88.5437 123.93C88.4337 124.52 88.3637 125.08 88.2737 125.63C88.2337 126.15 88.1937 126.65 88.1537 127.14C88.0837 128.11 88.0737 128.97 88.0437 129.81C88.0437 131.43 88.0237 132.87 88.0237 134.14C88.0237 136.66 88.0237 138.51 88.0637 139.83C88.0937 141.36 88.2137 142.88 88.4537 144.4C88.7237 145.9 89.1737 147.68 90.5237 149.25C90.8137 149.65 91.2637 149.94 91.6337 150.26C92.0237 150.58 92.4437 150.73 92.8437 150.95C93.2637 151.17 93.6237 151.22 94.0137 151.35C94.4037 151.48 94.7537 151.52 95.0937 151.57C96.4937 151.79 97.6737 151.71 98.8537 151.64C101.394 151.39 101.354 148.48 99.0637 148.04C98.0437 147.8 96.9937 147.59 96.1437 147.25C95.9237 147.17 95.7037 147.1 95.5437 146.99C95.3837 146.88 95.1537 146.82 95.0537 146.7C94.7737 146.49 94.6037 146.3 94.4637 146.06C94.2037 145.61 93.9637 144.77 93.8537 143.62C93.7537 142.47 93.6937 141.17 93.6837 139.7C93.6537 138.58 93.8537 136.8 94.0737 134.45C94.1737 133.29 94.2837 131.99 94.4137 130.55C94.5237 129.14 94.6537 127.62 94.8437 126.22C94.9337 125.81 94.9537 125.3 95.0437 125.02L95.1237 124.53C95.1637 124.43 95.1837 124.33 95.1837 124.21C95.2337 124.03 95.2137 123.89 95.3337 123.77C95.3637 123.74 95.3437 123.68 95.4037 123.65C95.4637 123.62 95.5237 123.58 95.5737 123.54C95.6837 123.46 95.7837 123.36 96.0137 123.29C96.2137 123.22 96.3937 123.13 96.6137 123.06L97.3637 122.88C97.8437 122.74 98.4637 122.71 99.0137 122.62C101.334 122.37 103.794 122.32 105.924 122.29C108.064 122.26 109.884 122.27 111.154 122.31C111.784 122.34 112.274 122.36 112.624 122.38C112.974 122.39 113.134 122.42 113.134 122.42C113.134 122.42 113.394 122.44 113.874 122.48C114.364 122.5 114.994 122.61 115.734 122.73C116.404 122.9 117.084 123.15 117.364 123.43C117.424 123.54 117.494 123.63 117.584 123.72C117.654 123.85 117.714 124.03 117.804 124.18C117.894 124.33 117.924 124.62 118.004 124.83C118.084 125.04 118.124 125.33 118.164 125.63C118.524 127.96 118.474 131.06 118.484 133.86C118.484 136.67 118.494 139.3 118.404 141.13C118.384 141.84 118.314 142.43 118.274 143.03C118.184 143.56 118.144 144.1 118.034 144.49C117.924 144.87 117.844 145.26 117.714 145.45C117.624 145.73 117.484 145.82 117.404 145.96C117.094 146.41 116.174 146.61 115.564 146.77C113.434 147.15 111.054 147.21 108.944 147.37C106.794 147.52 104.814 147.69 102.884 147.92L102.824 147.87Z" fill="#101214"/>
<path d="M61.9837 160.36C59.7537 160.71 59.7537 164.06 61.9837 164.41C65.1437 164.91 68.4737 165.17 72.7437 165.19C77.5837 165.03 78.7937 164.34 82.0737 164.42C84.8437 164.42 88.5737 164.65 91.8837 164.91C92.7137 164.98 93.5137 165.05 94.2737 165.11C94.6537 165.14 95.0137 165.18 95.3737 165.21C95.5537 165.23 95.7237 165.24 95.8937 165.26L96.1437 165.28L96.1937 165.31C96.4137 165.44 96.4237 165.63 96.4237 165.7C96.4237 165.75 96.4237 165.78 96.4637 165.79C96.4837 165.81 96.5237 165.83 96.5637 165.88C96.5637 165.89 96.5937 165.91 96.5837 165.92C96.5837 165.92 96.5837 165.94 96.5937 165.95C96.5937 165.96 96.5937 166.09 96.6037 166.15C96.6137 166.47 96.6337 166.81 96.6437 167.17C96.6937 168.63 96.7537 170.44 96.8337 172.47C96.9437 176.51 97.0137 181.39 96.8937 185.9C96.8937 192.27 96.9137 196.21 96.9137 198.27C96.9437 203.13 97.2837 206.77 97.9137 210.34C98.2637 212.3 101.174 212.3 101.524 210.34C102.164 206.77 102.504 203.14 102.524 198.27C102.524 196.38 103.324 192.44 103.464 186.88C103.484 185.97 103.434 185.07 103.304 184.17C102.214 176.42 102.524 166.35 102.524 166.35C102.524 166.35 102.524 166.29 102.524 166.18C102.524 166.12 102.524 166.06 102.524 165.97C102.524 165.84 102.514 165.69 102.504 165.53C102.454 164.84 102.284 163.79 101.644 162.71C101.024 161.63 99.9037 160.53 98.3437 159.95C97.9537 159.8 97.5437 159.69 97.1137 159.63C96.9037 159.59 96.6837 159.57 96.4637 159.56H96.1337L95.9337 159.55C95.3937 159.55 94.8437 159.55 94.2737 159.55C89.7237 159.55 84.3837 159.55 81.2237 159.55C76.4537 159.55 74.1537 159.56 72.7437 159.57C68.4737 159.59 65.1437 159.86 61.9837 160.36Z" fill="#101214"/>
<path d="M58.5437 210.98C58.8937 212.11 62.2437 212.11 62.5937 210.98C63.0937 209.38 63.3537 207.69 63.3737 205.53C63.2137 203.08 62.5237 202.47 62.6037 200.81C62.6037 198 63.5337 193.27 63.7637 192.12C63.7937 191.95 63.8037 191.78 63.7937 191.61C63.6637 190.4 63.1637 185.1 63.4037 180.53C63.4037 177.3 63.3837 175.31 63.3837 174.27C63.3537 171.81 63.0137 169.97 62.3837 168.16C62.0337 167.17 59.1237 167.17 58.7737 168.16C58.1337 169.97 57.7937 171.81 57.7737 174.27C57.7737 175.23 56.9737 177.22 56.8337 180.03C56.8137 180.49 56.8637 180.95 56.9937 181.4C58.0837 185.32 57.7737 190.42 57.7737 190.42C57.7737 190.42 57.7637 198.02 57.7537 201.23C57.7537 203.65 57.7637 204.81 57.7737 205.52C57.7937 207.68 58.0637 209.37 58.5637 210.97L58.5437 210.98Z" fill="#101214"/>
</svg>
