<svg width="240" height="214" viewBox="0 0 240 214" fill="none" xmlns="http://www.w3.org/2000/svg">
<path d="M57.1191 89.8692C55.8591 91.6292 58.2391 93.9792 59.9791 92.7392C62.4491 90.9792 64.8791 88.9792 67.8191 86.2192C71.0391 82.9692 71.4091 81.6892 73.7491 79.6492C77.6091 76.0892 84.9191 71.0192 86.6991 69.8392C86.9591 69.6592 87.2091 69.4692 87.4391 69.2492C89.0691 67.6892 96.3691 60.9792 103.309 56.0292C108.089 52.3892 111.109 50.2092 112.689 49.0692C116.399 46.3792 119.029 44.1592 121.479 41.7392C122.819 40.4192 121.209 37.9892 119.469 38.7392C116.289 40.1192 113.219 41.8092 109.429 44.4992C107.959 45.5492 104.429 47.1092 100.089 50.2092C99.3791 50.7092 98.7291 51.2892 98.1191 51.9092C95.4991 54.5992 92.2891 57.3992 89.7391 59.5392C87.1891 61.6892 85.2991 63.1692 85.2991 63.1692C85.2991 63.1692 82.5391 65.4592 79.2391 68.2992C75.9391 71.1292 72.1291 74.5292 69.8991 76.5792C66.5391 79.6692 64.9491 81.1892 63.9691 82.1192C61.0191 84.9492 58.9291 87.3692 57.1391 89.8492L57.1191 89.8692Z" fill="#101214"/>
<path d="M39.8791 201.669C43.6291 200.369 42.6691 197.159 38.9491 197.729C36.2891 198.069 33.5891 198.439 30.6791 198.649C27.7791 198.859 24.6691 198.979 21.2991 198.689C17.4891 198.409 15.2591 197.819 13.3891 197.179C11.5491 196.489 9.99906 195.679 8.43906 193.819C7.09906 192.279 6.02906 190.049 5.54906 187.509C5.04906 184.969 5.10906 182.159 5.47906 179.529C6.27906 174.239 8.05906 169.739 8.77906 168.019C8.98906 167.509 9.14906 166.989 9.33906 166.459C9.95906 164.589 11.7091 159.499 14.8191 153.399C17.8591 147.279 22.1991 140.169 26.6991 133.929C32.9591 125.029 37.2591 119.819 39.4891 117.079C44.7591 110.629 48.6691 105.769 52.3591 100.829C54.3891 98.1192 52.2891 96.1092 49.7091 98.3692C45.0391 102.479 40.5491 106.979 35.1391 113.509C33.0491 116.049 28.0591 120.859 22.2991 128.739C21.3491 130.009 20.5091 131.369 19.7191 132.739C16.3291 138.659 12.4591 145.449 9.68906 150.929C8.28906 153.659 7.16906 156.059 6.38906 157.769C5.97906 158.619 5.70906 159.319 5.49906 159.789C5.28906 160.259 5.17906 160.519 5.17906 160.519C5.17906 160.519 5.01906 160.899 4.72906 161.599C4.45906 162.299 4.07906 163.319 3.59906 164.569C2.71906 167.109 1.54906 170.639 0.779056 174.709C0.0390558 178.759 -0.390944 183.389 0.499056 187.769C0.879056 189.949 1.65906 192.029 2.60906 193.819C2.86906 194.259 3.11906 194.689 3.35906 195.109C3.61906 195.519 3.92906 195.889 4.19906 196.259C4.72906 197.019 5.34906 197.629 5.90906 198.199C7.64906 199.849 9.40906 201.009 11.0191 201.749C12.6191 202.529 14.0491 202.989 15.2891 203.329C17.7691 203.979 19.4991 204.149 20.7991 204.279C24.7491 204.599 28.1991 204.289 31.3091 203.799C34.4291 203.299 37.2091 202.519 39.8791 201.669Z" fill="#101214"/>
<path d="M215.079 60.6392C216.919 56.7892 213.999 55.1492 211.589 58.5992C208.139 63.4892 204.689 68.6992 200.269 75.3992C195.379 83.0692 194.589 85.2892 190.909 90.2492C187.839 94.4692 183.349 99.8492 179.189 104.479C174.999 109.089 171.149 112.939 169.649 114.419C169.199 114.849 168.769 115.299 168.349 115.769C166.869 117.449 162.909 121.989 157.509 127.309C156.839 127.979 156.149 128.659 155.449 129.359C154.729 130.039 153.989 130.729 153.239 131.429C151.739 132.829 150.209 134.299 148.599 135.679C145.409 138.479 141.989 141.199 138.569 143.669C129.009 150.759 122.659 154.649 119.419 156.779C111.699 161.719 105.979 165.589 100.599 169.779C97.6391 172.089 99.2391 174.519 102.539 172.819C108.559 169.729 114.619 166.459 122.439 161.509C125.449 159.559 132.259 156.269 140.989 150.069C142.399 149.049 143.769 147.959 145.059 146.799C147.849 144.299 150.829 141.609 153.689 138.919C156.479 136.199 159.259 133.619 161.609 131.249C162.799 130.079 163.899 128.999 164.889 128.019C165.859 127.029 166.719 126.159 167.439 125.429C168.879 123.989 169.729 123.139 169.729 123.139C169.729 123.139 170.949 121.829 172.919 119.719C173.909 118.679 175.069 117.409 176.309 115.989C177.559 114.569 178.969 113.039 180.359 111.369C186.039 104.799 192.259 96.6992 195.799 91.7992C201.129 84.4092 203.479 80.6992 204.969 78.4692C209.419 71.6392 212.469 66.0692 215.089 60.6192L215.079 60.6392Z" fill="#101214"/>
<path d="M153.929 17.0692C151.319 18.8092 152.909 21.7592 155.779 20.6692C159.869 19.1392 164.049 17.3692 169.399 15.0792C175.409 12.3792 176.709 11.1792 180.959 9.77917C184.529 8.55917 189.449 7.31917 193.849 6.70917C198.249 6.02917 202.069 6.02917 203.519 6.06917C203.949 6.08917 204.379 6.08917 204.809 6.05917C206.299 5.99917 210.569 5.63917 215.179 7.12917C216.309 7.51917 217.439 8.01917 218.499 8.66917C219.539 9.33917 220.509 10.1492 221.349 11.1092C222.999 13.0492 224.019 15.5992 224.389 18.2792C225.009 22.0592 224.609 25.4092 224.159 27.9892C223.969 29.2892 223.659 30.4192 223.469 31.3792C223.209 32.3392 222.989 33.1492 222.809 33.7992C221.899 36.8792 221.029 39.5792 220.149 42.0692C219.939 42.6992 219.729 43.3092 219.529 43.9192C219.319 44.5192 219.099 45.1192 218.899 45.7092C218.499 46.8992 218.099 48.0492 217.689 49.1992C216.819 51.7292 219.379 53.1192 220.919 50.8092C221.629 49.7692 222.299 48.6992 222.939 47.5692C223.259 47.0092 223.579 46.4292 223.909 45.8492C224.209 45.2492 224.509 44.6392 224.829 44.0192C226.069 41.5292 227.189 38.7092 228.199 35.3692C228.379 34.7192 228.659 33.8992 229.009 32.9092C229.299 31.8992 229.699 30.7392 230.049 29.3692C230.759 26.6492 231.439 23.1092 231.099 18.7392C230.919 17.3192 230.669 15.8892 230.109 14.5292C229.019 11.5892 227.179 8.58917 224.769 6.30917C222.349 4.02917 219.459 2.58917 216.939 1.70917C214.389 0.849172 212.159 0.499172 210.589 0.299172C209.799 0.189172 209.179 0.129172 208.749 0.109172C208.319 0.0791716 208.089 0.0591716 208.089 0.0591716C208.089 0.0591716 206.699 -0.0408284 204.509 0.0191716C202.309 0.0591716 199.319 0.309172 196.109 0.839172C192.899 1.35917 189.469 2.14917 186.329 3.00917C183.189 3.87917 180.349 4.82917 178.239 5.54917C171.919 7.81917 168.979 9.14917 167.159 9.90917C161.669 12.3092 157.609 14.6092 153.909 17.0592L153.929 17.0692Z" fill="#101214"/>
<path d="M29.4491 99.3492C28.2891 99.8892 28.8091 103.199 30.0991 103.339C31.9191 103.549 33.8091 103.499 36.1791 103.089C38.8291 102.429 39.3591 101.609 41.1791 101.309C42.6991 100.989 44.7891 100.759 46.6591 100.579C47.1291 100.539 47.5791 100.499 47.9991 100.459C48.2091 100.439 48.4191 100.429 48.6191 100.409C48.7191 100.409 48.8191 100.399 48.9091 100.389C49.0091 100.379 49.1091 100.369 49.0991 100.389C49.2491 100.489 49.2691 100.609 49.2791 100.659C49.2791 100.709 49.2891 100.699 49.3091 100.699C49.3391 100.669 49.4191 100.649 49.5291 100.669C49.5791 100.679 49.6491 100.709 49.6991 100.749C49.7191 100.779 49.7491 100.799 49.7691 100.839C49.7891 100.899 49.8091 100.819 49.8391 101.209C50.0291 103.499 50.2591 106.219 50.3191 108.759C50.5891 112.329 50.8091 114.529 50.9291 115.689C51.2291 118.409 51.8191 120.419 52.7391 122.329C53.2491 123.379 56.1191 122.909 56.3091 121.809C56.6591 119.789 56.7591 117.789 56.5191 115.129C56.4191 114.099 57.0091 111.879 56.9191 108.829C56.9091 108.329 56.8191 107.839 56.6591 107.359C55.9691 105.279 55.6391 102.839 55.5191 100.949C55.5191 100.789 55.4691 100.279 55.4191 99.9492C55.3491 99.5792 55.2691 99.2392 55.1491 98.9192C54.9391 98.2792 54.6391 97.7592 54.3591 97.3492C53.7891 96.5392 53.3191 96.1692 53.3191 96.1692C53.3191 96.1692 53.1591 96.0092 52.8391 95.7992C52.5191 95.5792 52.0291 95.2692 51.3691 95.0292C50.7091 94.7892 49.8691 94.6192 48.9491 94.6592C48.7191 94.6792 48.4791 94.6792 48.2491 94.7292C48.0391 94.7692 47.7191 94.8292 47.6191 94.8592C47.3291 94.9292 47.0291 94.9992 46.7291 95.0692C44.2891 95.6592 41.4391 96.2992 39.7391 96.6392C37.1791 97.1792 35.9491 97.3992 35.1891 97.5492C32.8891 97.9892 31.1291 98.5592 29.4791 99.3292L29.4491 99.3492Z" fill="#101214"/>
<path d="M239.049 43.3292C239.909 42.4892 238.389 39.5092 237.189 39.7292C235.489 40.0492 233.819 40.6192 231.819 41.6792C229.649 43.0492 229.439 43.9692 227.909 44.7592C226.649 45.4892 224.839 46.2892 223.219 46.9792C222.809 47.1492 222.419 47.3092 222.049 47.4692C221.859 47.5492 221.679 47.6192 221.509 47.6892C221.419 47.7192 221.339 47.7592 221.249 47.7892C221.209 47.7992 221.159 47.8292 221.129 47.8292L221.099 47.8092C220.969 47.7392 220.939 47.6292 220.929 47.5792C220.929 47.5292 220.929 47.5392 220.919 47.5492C220.919 47.5892 220.879 47.6392 220.809 47.6692C220.779 47.6792 220.729 47.6992 220.679 47.6892C220.659 47.6892 220.629 47.6892 220.609 47.6592C220.589 47.6592 220.589 47.6392 220.569 47.6292C220.559 47.6092 220.569 47.6492 220.539 47.5792L220.459 47.3992C219.609 45.4192 218.619 43.0592 217.829 40.8092C216.549 37.7092 215.709 35.8092 215.269 34.8092C214.209 32.4692 213.079 30.8592 211.669 29.4392C210.889 28.6592 208.309 29.9992 208.439 31.0492C208.679 32.9692 209.149 34.7892 210.139 37.0792C210.529 37.9692 210.609 40.1392 211.559 42.8292C211.719 43.2692 211.939 43.6792 212.229 44.0592C213.479 45.6992 214.489 47.7692 215.159 49.4192C215.219 49.5592 215.279 49.6892 215.329 49.8292C215.409 49.9992 215.469 50.1692 215.559 50.3192C215.729 50.6292 215.909 50.9192 216.119 51.1792C216.509 51.6992 216.939 52.0792 217.309 52.3692C218.069 52.9392 218.599 53.1292 218.599 53.1292C218.599 53.1292 218.789 53.2292 219.149 53.3292C219.509 53.4392 220.039 53.5692 220.719 53.5892C221.389 53.6092 222.209 53.5292 223.039 53.2192C223.239 53.1392 223.459 53.0592 223.659 52.9492L223.969 52.7792L224.219 52.6292C224.459 52.4792 224.699 52.3292 224.949 52.1792C226.949 50.9492 229.309 49.5492 230.719 48.7392C232.839 47.5192 233.869 46.9592 234.509 46.5992C236.429 45.5292 237.819 44.4992 239.049 43.3092V43.3292Z" fill="#101214"/>
<path d="M84.8791 175.209C85.4691 175.839 85.9691 176.309 86.5291 176.509C87.0691 176.719 87.5991 176.719 88.0091 176.509C88.4191 176.299 88.7191 175.889 88.7891 175.269C88.8491 174.669 88.7691 173.819 88.2191 172.929C86.7691 170.359 84.6891 167.949 81.8491 166.049C81.1591 165.539 80.3591 165.179 79.5891 164.729C78.7691 164.379 77.9391 163.969 77.0391 163.709C75.2591 163.079 73.2791 162.789 71.1791 162.709C68.7891 162.689 66.8691 163.159 65.2991 163.679C64.5191 163.969 63.7991 164.229 63.1691 164.579C62.5291 164.899 61.9391 165.209 61.4191 165.569C59.3191 166.949 57.6991 168.319 55.6091 170.519C53.8691 172.399 52.1191 174.839 50.7491 177.609C49.3391 180.359 48.3791 183.519 47.8791 186.519C47.3991 189.539 47.3691 192.499 47.7191 194.939C48.0391 197.389 48.6891 199.289 49.0691 200.339C49.3391 200.949 49.5891 201.569 49.9491 202.129C50.5491 203.149 51.7591 205.059 53.9491 207.029C56.1091 208.999 59.2091 210.899 62.9391 211.999C66.6491 213.109 70.9491 213.449 75.1991 212.789C77.3291 212.469 79.4091 211.849 81.4091 211.159C83.3991 210.379 85.3691 209.509 87.1791 208.349C89.7191 206.709 91.7591 204.769 93.2991 202.809C94.8391 200.839 95.8991 198.879 96.6691 197.089C98.1391 193.479 98.5391 190.649 98.7091 188.749C99.0791 184.219 98.4591 180.279 97.2991 176.859C96.1191 173.449 94.4691 170.449 91.9791 168.029C91.2791 167.379 90.5891 167.049 89.9991 167.009C89.4291 166.959 89.0191 167.159 88.7791 167.489C88.3091 168.189 88.4491 169.219 89.2591 170.399C90.7591 172.629 91.7391 175.309 92.4291 178.259C93.1091 181.219 93.4491 184.539 93.1191 188.229C92.9991 189.659 92.4791 191.869 91.2391 194.389C90.0191 196.919 87.9691 199.689 84.7691 202.009L83.9891 202.579L83.1691 203.109C82.6391 203.489 82.0791 203.819 81.5091 204.169C80.2991 204.939 78.9091 205.559 77.4591 206.119C76.0191 206.629 74.5291 207.009 73.0191 207.229C69.9991 207.619 66.9691 207.319 64.4991 206.529C62.0091 205.769 60.1191 204.569 58.9291 203.599C58.3091 203.129 57.9091 202.679 57.5991 202.399C57.3191 202.089 57.1691 201.919 57.1691 201.919C57.1691 201.919 56.9291 201.689 56.5591 201.199C56.3691 200.969 56.1391 200.669 55.9091 200.309C55.6491 199.959 55.4091 199.529 55.1391 199.059C54.0891 197.169 53.0891 194.209 53.0091 190.769C52.8991 187.339 53.6091 183.519 54.9991 180.319C56.3791 177.089 58.3591 174.469 60.0691 172.879C62.6491 170.429 65.0591 169.369 66.8691 168.849C68.7291 168.359 70.0791 168.299 71.0891 168.309C72.6191 168.359 74.0891 168.519 75.4191 168.939C76.0991 169.089 76.7291 169.389 77.3691 169.589C77.9691 169.899 78.5991 170.099 79.1491 170.449C81.4191 171.699 83.2991 173.309 84.8791 175.179V175.209Z" fill="#101214"/>
<path d="M127.069 27.7592C127.329 26.6892 126.849 25.7292 126.029 25.2492C125.249 24.7892 124.059 24.9192 123.319 26.2292C122.299 28.0592 121.629 30.2392 121.579 32.6992C121.519 35.1492 122.149 37.8792 123.769 40.4592C125.729 43.3292 127.829 44.3892 129.459 45.1092C131.139 45.7692 132.589 46.1492 134.689 46.5292C136.469 46.8192 138.579 46.9192 140.739 46.6692C142.899 46.4592 145.149 45.8292 147.119 44.9892C149.099 44.1292 150.889 43.0192 152.239 41.8692C153.599 40.7292 154.509 39.5992 155.009 38.9492C155.279 38.5492 155.559 38.1492 155.749 37.6992C156.119 36.9192 156.779 35.4092 157.079 33.2892C157.389 31.1792 157.279 28.5592 156.449 25.8992C155.629 23.2492 154.129 20.5692 152.069 18.3092C151.039 17.1692 149.859 16.1892 148.679 15.2792C147.449 14.4092 146.159 13.5792 144.759 12.9492C142.789 12.0792 140.819 11.6292 139.039 11.4892C137.249 11.3392 135.659 11.4892 134.289 11.7392C131.559 12.2792 129.729 13.1592 128.539 13.7992C125.719 15.3492 123.669 17.2792 122.139 19.3192C120.629 21.3792 119.569 23.5492 119.189 26.0192C119.099 26.6992 119.249 27.2692 119.549 27.6392C119.839 28.0092 120.239 28.1792 120.639 28.1992C121.469 28.1992 122.269 27.7892 122.669 26.9792C123.429 25.4392 124.599 23.9992 125.999 22.6092C127.399 21.2192 129.099 19.8792 131.199 18.7492C132.819 17.8992 136.819 16.8892 141.309 18.6592C141.679 18.7992 142.059 18.9392 142.429 19.0992C142.809 19.2292 143.189 19.3992 143.579 19.5492C144.429 19.8692 145.269 20.3592 146.109 20.9092C146.909 21.4692 147.659 22.1092 148.319 22.8192C149.619 24.2592 150.549 25.9692 151.009 27.5492C151.489 29.1292 151.509 30.5392 151.409 31.4892C151.309 32.4492 151.129 32.9692 151.129 32.9692C151.129 32.9692 150.959 33.7892 150.349 34.9992C149.729 36.1892 148.529 37.7492 146.719 38.9992C144.929 40.2692 142.619 41.2492 140.419 41.6392C138.199 42.0492 136.099 41.9092 134.669 41.5592C132.469 41.0592 131.099 40.1592 130.219 39.4092C129.329 38.6192 128.839 37.9392 128.499 37.4092C127.479 35.7992 126.929 34.1092 126.759 32.4792C126.579 30.8492 126.699 29.2792 127.069 27.7292V27.7592Z" fill="#101214"/>
</svg>
