<svg width="225" height="203" viewBox="0 0 225 203" fill="none" xmlns="http://www.w3.org/2000/svg">
<path d="M174.758 106.495C179.828 100.835 181.588 97.3254 180.908 96.7254C180.198 96.1054 177.068 98.3654 171.808 103.725C164.338 111.325 156.398 118.835 147.508 126.675C138.598 134.495 128.778 142.665 117.178 151.135C110.638 155.985 105.198 159.795 100.538 163.135C95.8775 166.465 91.9775 169.295 88.3875 171.965C87.9375 172.295 87.4875 172.625 87.0475 172.955C86.6275 173.255 86.2075 173.565 85.7875 173.865C84.9275 174.455 84.0575 175.035 83.1675 175.605C81.3975 176.745 79.5975 177.855 77.7175 178.965C73.9575 181.195 69.8975 183.495 65.0175 186.075C63.9875 186.615 62.9375 187.155 61.8575 187.715C60.7775 188.265 59.7375 188.765 58.5775 189.265C57.4375 189.765 56.2775 190.275 55.0975 190.785C53.9175 191.275 52.6975 191.725 51.4775 192.215C46.5675 194.065 41.3075 195.715 35.8775 196.625C30.4675 197.515 24.7975 197.775 19.7175 196.325C17.1875 195.615 14.7775 194.595 12.7575 193.055C12.2175 192.725 11.7875 192.245 11.2875 191.865C10.7875 191.485 10.3675 191.015 9.93753 190.545C9.06753 189.665 8.26753 188.625 7.60753 187.625C6.28753 185.595 5.57753 183.485 5.45753 181.235C5.33753 178.985 5.71753 176.635 6.31753 174.345C6.92753 172.055 7.70753 169.815 8.56753 167.675C8.97753 166.605 9.44753 165.565 9.87753 164.535C10.3075 163.525 10.7575 162.605 11.2275 161.645C15.0475 154.025 18.4275 148.075 20.2675 144.775C21.3575 142.815 22.4475 140.855 23.5475 138.895C27.2075 131.935 38.4075 113.375 57.5875 94.1554C67.0875 84.4954 78.3075 74.4154 90.0775 64.4954C95.9875 59.5654 102.108 54.7454 108.358 50.1254C111.478 47.8154 114.628 45.5654 117.798 43.3754C119.358 42.2954 121.038 41.1554 122.608 39.9954C124.198 38.8454 125.748 37.6654 127.278 36.4954C131.578 33.1654 135.568 29.9454 139.418 27.0354C143.258 24.1354 146.968 21.5454 150.598 19.6054C158.228 15.5554 165.298 12.5354 171.668 10.3554C184.418 5.96537 194.338 5.18537 200.738 5.87537C204.528 6.23537 208.068 7.21537 210.998 8.81537C212.458 9.61537 213.768 10.5854 214.868 11.7054C215.978 12.8254 216.798 14.0154 217.438 15.3954C218.708 18.1254 219.048 21.3254 218.938 24.4854C218.808 27.6654 218.208 30.8254 217.418 33.8954C215.758 40.0354 213.308 45.8054 210.608 51.2754C207.888 56.7454 204.888 61.9454 201.708 67.0154C198.188 72.5654 196.838 75.6754 197.508 76.1654C198.148 76.6354 200.828 74.4754 204.708 69.0154C208.208 64.0354 211.528 58.8654 214.558 53.3254C217.568 47.7854 220.328 41.8654 222.298 35.2554C223.248 31.9454 223.998 28.4554 224.228 24.7354C224.418 21.0354 224.128 17.0154 222.408 13.1354C221.568 11.2254 220.308 9.36537 218.818 7.84537C217.328 6.30537 215.588 4.99537 213.708 3.94537C209.928 1.84537 205.668 0.715368 201.328 0.285368C197.948 -0.0846318 193.658 -0.144632 188.608 0.405368C183.558 0.935368 177.768 2.13537 171.388 4.06537C165.028 6.02537 158.098 8.75537 150.778 12.3354C149.868 12.7954 148.948 13.2554 148.018 13.7254C147.088 14.2154 146.078 14.7454 145.148 15.3054C143.228 16.4054 141.398 17.6354 139.538 18.9054C135.868 21.4654 132.228 24.2754 128.518 27.1754C126.118 29.0554 123.718 30.9254 121.328 32.8054C120.138 33.7254 118.938 34.6354 117.748 35.5254C116.528 36.4154 115.308 37.2954 114.088 38.1754C103.368 45.9554 92.2375 54.8054 81.7875 63.9254C76.5775 68.4854 71.4875 73.0254 66.6375 77.5054C61.8075 81.9954 57.2375 86.4154 53.0675 90.6654C44.7075 99.1454 38.0775 107.045 33.6375 112.825C32.5375 114.285 31.5575 115.595 30.6975 116.735C29.8575 117.895 29.1475 118.895 28.5675 119.695C27.4175 121.315 26.8175 122.215 26.8175 122.215C26.8175 122.215 26.5875 122.545 26.1575 123.175C25.7175 123.805 25.0975 124.745 24.3175 125.965C23.5375 127.175 22.5475 128.655 21.4775 130.455C20.4075 132.225 19.2575 134.255 17.9975 136.495C15.4875 140.975 12.5775 146.325 9.48753 152.335C7.94753 155.355 6.33753 158.465 4.80753 161.975C3.36753 165.395 1.95753 169.005 0.967534 172.975C0.467534 174.955 0.0975343 177.045 0.0175343 179.245C-0.0724657 181.435 0.177534 183.775 0.917534 185.985C1.64753 188.205 2.83753 190.215 4.18753 191.965C4.53753 192.395 4.86753 192.825 5.23753 193.245L6.39753 194.455C7.13753 195.295 8.04753 195.965 8.89753 196.685C12.4275 199.495 16.7575 201.115 20.9975 201.855C25.2675 202.575 29.5375 202.555 33.5675 202.015C37.5975 201.465 41.4975 200.665 45.1375 199.525C48.8075 198.465 52.2575 197.175 55.5175 195.865C57.1675 195.245 58.6975 194.485 60.2375 193.835C61.7575 193.185 63.2975 192.435 64.6875 191.715C67.4875 190.275 70.0575 188.885 72.4275 187.585C75.9875 185.625 79.2975 183.755 82.3775 181.935C83.9175 181.025 85.3975 180.135 86.8275 179.235C87.5475 178.785 88.2475 178.325 88.9375 177.865C89.2875 177.625 89.6275 177.385 89.9675 177.155C90.2875 176.925 90.5975 176.705 90.9175 176.485C95.9075 172.925 100.238 169.935 103.998 167.335C111.508 162.155 116.668 158.485 120.538 155.635C132.288 147.015 142.188 138.605 151.018 130.495C159.838 122.365 167.608 114.485 174.798 106.465L174.758 106.495Z" fill="#101214"/>
<path d="M70.8575 46.0154C65.3875 42.3154 62.0575 41.3554 61.5875 42.1154C61.0775 42.9254 63.3275 45.3854 68.4975 49.3054C75.8075 54.8954 83.1075 60.9354 90.9375 67.6154C98.7675 74.2954 107.118 81.6354 116.478 89.9454C127.148 99.2954 133.818 105.125 139.618 110.205C145.398 115.315 150.288 119.705 157.158 126.415C167.038 135.995 179.478 148.735 190.168 161.065C195.508 167.225 200.428 173.275 204.248 178.725C206.148 181.445 207.798 184.025 208.948 186.305C209.228 186.875 209.488 187.425 209.688 187.935C209.738 188.065 209.798 188.195 209.838 188.315C209.878 188.435 209.938 188.595 209.928 188.565C209.928 188.595 209.928 188.615 209.928 188.635C209.928 188.715 209.908 188.785 209.848 188.805C209.798 188.835 209.748 188.825 209.708 188.815L209.658 188.795C209.758 188.815 209.358 188.715 209.088 188.625C207.938 188.255 206.918 187.825 206.078 187.445C204.388 186.675 203.338 186.095 202.498 185.645C200.848 184.745 199.198 183.805 197.538 182.845C194.578 181.145 189.148 177.805 182.158 172.985C175.168 168.175 166.618 161.905 157.298 154.645C147.968 147.385 137.858 139.135 127.678 130.445C126.408 129.355 125.138 128.265 123.858 127.165L121.948 125.515C121.318 124.975 120.728 124.445 120.118 123.885C117.698 121.655 115.318 119.265 112.878 116.875C107.968 111.985 102.538 107.675 97.5775 103.465C95.8175 101.975 94.1475 100.505 92.5575 99.0354C90.8975 97.5254 89.2875 96.0454 87.7175 94.6054C84.5475 91.7554 81.5075 89.0854 78.6175 86.5954C72.8375 81.5954 67.6675 77.2454 63.2475 73.2854C58.8175 69.3454 55.1275 65.8154 52.1175 62.6654C50.6175 61.1054 49.2675 59.5854 48.0275 58.2054C46.7875 56.8254 45.6675 55.5854 44.6675 54.4654C41.8475 51.3454 39.1375 48.3354 36.5175 45.4254C33.9475 42.5254 31.6575 39.6554 29.5975 36.7654C27.5475 33.8854 25.7575 30.9854 24.3975 28.1054C23.7275 26.6754 23.1475 25.2254 22.8375 23.8854C22.7275 23.5354 22.7075 23.2354 22.6475 22.9154C22.6175 22.7554 22.5875 22.5954 22.5975 22.4654C22.5975 22.3654 22.5875 22.4154 22.5775 22.3654C22.5775 22.1854 22.5775 21.9854 22.6875 21.8354C22.8375 21.5954 23.1775 21.5954 23.4175 21.6054C23.3975 21.6054 23.5075 21.6054 23.6275 21.6354L23.9675 21.7054C24.1875 21.7454 24.4375 21.8154 24.6675 21.8754C25.1475 22.0054 25.6275 22.1554 26.1175 22.3254C28.0775 23.0154 30.0275 23.9054 31.9375 24.8554C35.7575 26.7554 39.4275 28.8754 43.0475 31.0554C47.9175 34.0154 50.7175 35.0054 51.1875 34.3254C51.6475 33.6654 49.7675 31.3254 44.9975 28.0154C41.4575 25.5854 37.8475 23.2254 33.9375 21.0354C31.9775 19.9454 29.9475 18.8954 27.7175 18.0054C27.1575 17.7854 26.5775 17.5754 25.9775 17.3854C25.6675 17.2954 25.3675 17.2054 25.0475 17.1254L24.5575 17.0054C24.4075 16.9654 24.2275 16.9454 23.9675 16.8954C22.1575 16.5854 20.1575 16.7754 18.9175 18.1754C18.7475 18.4354 18.5475 18.6954 18.3975 18.9654L17.9975 19.8254C17.8575 20.1054 17.8475 20.4554 17.7675 20.7654C17.7075 21.0854 17.6275 21.4054 17.6075 21.7354C17.5975 22.0654 17.6075 22.4754 17.6075 22.7654C17.6075 23.0354 17.6375 23.2754 17.6675 23.5254C17.7375 24.0054 17.7775 24.5254 17.8975 24.9654C18.2775 26.8454 18.9275 28.5454 19.6475 30.2254C21.1175 33.5654 22.9975 36.7354 25.1375 39.8554C27.2675 42.9554 29.6675 46.0354 32.2775 49.0354C34.9075 51.9854 37.6275 55.0354 40.4575 58.2054C42.3375 60.2754 44.5875 62.9554 47.4775 66.1554C50.3875 69.3454 53.9275 72.9254 58.0775 76.8054C66.3775 84.5954 77.0175 93.4654 88.8475 104.585C92.8775 108.305 97.1275 111.585 101.158 114.845C102.248 115.725 103.328 116.625 104.408 117.545C105.468 118.445 106.518 119.395 107.578 120.375C109.718 122.385 111.878 124.415 114.058 126.465C115.168 127.495 116.308 128.525 117.498 129.545L120.958 132.465C123.268 134.395 125.578 136.325 127.878 138.235C137.088 145.875 146.178 153.205 154.268 159.515C162.358 165.825 169.448 171.115 174.548 174.785C179.648 178.455 182.728 180.545 182.728 180.545C187.278 183.625 191.898 186.625 196.748 189.375C199.178 190.745 201.658 192.055 204.318 193.175C204.988 193.455 205.668 193.725 206.378 193.965C206.728 194.095 207.098 194.205 207.458 194.315C207.838 194.415 208.148 194.525 208.808 194.645C211.108 195.175 213.488 194.985 214.968 193.385C215.958 192.215 216.248 190.685 216.018 189.095C215.908 188.305 215.678 187.495 215.408 186.715L215.238 186.255C215.188 186.125 215.138 185.995 215.078 185.875L214.748 185.135C213.848 183.205 212.808 181.465 211.728 179.785C209.558 176.425 207.188 173.305 204.768 170.235C199.908 164.115 194.768 158.285 189.528 152.565C179.028 141.145 168.098 130.185 156.938 119.455C146.798 109.735 139.128 102.725 133.258 97.4054C127.358 92.1354 123.288 88.5054 120.198 85.7354C110.798 77.4154 102.308 70.1454 94.2375 63.6254C86.1775 57.0954 78.5675 51.2954 70.8375 46.0154H70.8575Z" fill="#101214"/>
</svg>
