<svg width="263" height="218" viewBox="0 0 263 218" fill="none" xmlns="http://www.w3.org/2000/svg">
<path d="M197.42 46.8422C199.66 43.7322 197.13 41.5422 194.37 44.1822C190.46 47.9222 186.54 52.0222 181.74 57.5022C176.44 63.8322 175.61 65.8422 171.88 70.0122C168.75 73.5522 164.53 78.2922 160.36 82.1422C156.28 86.0622 152.66 89.4622 151.25 90.7722C150.83 91.1622 150.44 91.5722 150.06 91.9922C147.35 95.0322 135.44 108.332 124.68 119.332C117.21 127.222 112.59 132.102 110.18 134.652C104.49 140.682 100.48 145.422 96.75 150.272C96.62 150.442 96.5 150.602 96.39 150.752C96.27 150.922 96.16 151.082 96.07 151.222C95.98 151.652 95.9 152.102 95.93 152.352C95.96 152.592 96.01 152.812 96.09 152.992C96.25 153.362 96.51 153.622 96.81 153.752C97.12 153.882 97.48 153.872 97.86 153.722C98.05 153.642 98.24 153.532 98.43 153.382C98.62 153.232 98.75 153.172 98.89 153.042C98.96 153.012 99.04 152.982 99.11 152.942C99.19 152.892 99.23 152.882 99.37 152.762C104.02 148.782 108.54 144.512 114.27 138.502C116.49 136.162 121.7 131.832 128.33 125.042C129.41 123.932 130.43 122.772 131.4 121.582C139.71 111.242 151.75 98.9822 151.75 98.9822C151.75 98.9822 156.16 94.3322 161.5 88.7022C162.84 87.2922 164.23 85.8222 165.63 84.3522C167.03 82.8822 168.44 81.4122 169.7 79.9122C172.28 76.9522 174.66 74.2122 176.44 72.1722C181.78 66.0122 184.36 63.0522 185.94 61.2322C190.71 55.7122 194.24 51.2522 197.41 46.8422H197.42Z" fill="#101214"/>
<path d="M245.21 46.2822C245.5 45.4522 243.02 43.1922 242.22 43.5522C241.66 43.8022 241.13 44.1022 240.61 44.4822L244.64 44.2922C244.25 43.7522 243.79 43.2322 243.21 42.6922C241.8 41.6222 241.01 41.8422 240.18 40.9822C238.69 39.6322 236.8 36.6522 236.36 35.9322C236.29 35.8222 236.21 35.7422 236.11 35.6722C235.38 35.1822 232.23 32.9922 229.97 30.6122C228.25 29.0622 227.19 28.1022 226.63 27.6022C225.31 26.4322 224.1 25.7922 222.71 25.3922C221.95 25.1722 219.99 27.3222 220.28 28.0622C220.81 29.4022 221.56 30.5422 222.84 31.7522C223.35 32.2122 223.86 33.7722 225.26 35.2322C225.49 35.4722 225.77 35.6522 226.09 35.7822C228.9 36.8722 231.4 39.5622 231.4 39.5622C231.4 39.5622 235.42 43.2422 237.12 44.7922C238.41 45.9522 239.03 46.5122 239.41 46.8522C240 47.3722 240.57 47.7922 241.14 48.1222L243.51 49.5122L244.42 47.9622C244.75 47.4122 245 46.8522 245.2 46.2722L245.21 46.2822Z" fill="#101214"/>
<path d="M203.95 33.7622C202.01 36.4322 204.49 38.6722 206.95 36.4822C210.43 33.3822 213.89 29.9522 218.11 25.3222C222.76 19.9522 223.43 18.1722 226.72 14.6622C228.08 13.1522 229.72 11.4322 231.45 9.65218C231.88 9.21218 232.32 8.77218 232.76 8.32218L233.97 7.36218C234.42 7.10218 234.84 6.79218 235.29 6.56218C235.75 6.38218 236.17 6.10218 236.62 6.00218C238.39 5.41218 240.07 5.50218 241.41 5.88218C242.76 6.28218 243.78 6.85218 244.33 7.22218C244.66 7.41218 244.99 7.64218 245.34 7.83218C245.97 8.16218 247.11 8.90218 248.49 10.1522C249.86 11.4022 251.48 13.1822 252.87 15.4622C254.27 17.7122 255.51 20.4722 255.99 23.2722C256.23 24.6522 256.27 26.0522 256.02 27.2022C255.89 27.7722 255.71 28.2922 255.46 28.6922L255.37 28.8422C255.37 28.8422 255.34 28.9022 255.32 28.9322C255.3 28.9722 255.32 28.9322 255.13 29.1422L254.28 30.0522C247.99 36.9722 244.1 41.2522 242.06 43.4822C237.27 48.7722 233.93 52.9422 230.87 57.2422C229.19 59.6022 231.34 61.5622 233.54 59.6722C237.54 56.2322 241.38 52.5222 246.21 47.2622C248.08 45.2122 252.56 41.4822 258.16 35.5522C258.62 35.0722 259.06 34.5722 259.48 34.0622L260.15 33.2422L260.46 32.8622L260.68 32.4722L261.04 31.7822C261.94 29.8922 262.21 27.9022 262.19 26.0722C262.18 24.2222 261.85 22.5022 261.41 20.8822C260.54 17.6222 259.1 14.8022 257.68 12.4222C256.24 10.0622 254.73 8.20218 253.56 6.96218C252.4 5.71218 251.63 5.03218 251.63 5.03218C251.63 5.03218 251.34 4.78218 250.81 4.34218C250.56 4.11218 250.2 3.87218 249.81 3.57218C249.42 3.27218 248.96 2.95218 248.41 2.63218C247.36 1.95218 245.98 1.28218 244.36 0.722176C242.72 0.192176 240.77 -0.117824 238.72 0.0421761C236.68 0.202176 234.56 0.862176 232.79 1.94218C232.31 2.17218 231.92 2.49218 231.5 2.78218C231.08 3.08218 230.66 3.36218 230.29 3.72218C229.91 4.06218 229.53 4.40218 229.16 4.74218C228.82 5.07218 228.57 5.38218 228.28 5.69218C226.01 8.19218 223.91 10.5122 222.35 12.2422C217.65 17.4522 215.39 19.9522 214 21.4922C209.8 26.1622 206.72 29.9722 203.97 33.7522L203.95 33.7622Z" fill="#101214"/>
<path d="M124.91 172.342C122 175.992 124.45 178.272 127.87 175.092C132.73 170.592 137.64 165.702 143.72 159.192C150.48 151.692 151.68 149.372 156.4 144.412C164.27 135.942 178.23 122.282 181.6 119.002C182.1 118.512 182.58 118.012 183.04 117.492C186.34 113.762 200.83 97.4121 213.81 83.8021C218.33 78.9321 221.98 74.9921 224.88 71.8721C225.25 71.4621 225.61 71.0721 225.96 70.6921C226.45 70.1221 226.87 69.5321 227.19 68.9221C227.85 67.6921 228.17 66.4221 228.25 65.2421C228.41 62.8721 227.68 60.9121 226.81 59.5721C226.56 59.1721 226.27 58.8021 225.96 58.4421C225.81 58.2621 225.64 58.1021 225.48 57.9421C225.32 57.7821 225.13 57.6021 225.03 57.5221C224.57 57.1221 224.11 56.7221 223.66 56.3321C222.75 55.5521 221.88 54.8021 221.02 54.0721C219.3 52.6121 217.66 51.2521 216.07 49.9621C212.89 47.3821 209.92 45.0721 206.92 42.8521C203.63 40.4121 201.7 42.5921 204.53 45.5621C207.11 48.2621 209.76 50.9321 212.71 53.7721C214.19 55.1921 215.74 56.6521 217.4 58.1721C218.23 58.9321 219.09 59.7121 219.97 60.5121C220.41 60.9121 220.86 61.3121 221.32 61.7221C221.46 61.8421 221.5 61.8921 221.56 61.9621C221.62 62.0321 221.7 62.0821 221.75 62.1621C221.87 62.3021 221.98 62.4421 222.08 62.6021C222.4 63.0721 222.62 63.8321 222.52 64.6821C222.46 65.1121 222.32 65.5521 222.08 65.9621C221.95 66.1621 221.81 66.3621 221.64 66.5421C221.36 66.8121 221.08 67.0821 220.79 67.3721C217.91 70.1521 214.37 73.6121 210.37 77.8121C209.07 79.1821 207.82 80.6021 206.64 82.0521C196.44 94.6221 181.93 109.792 181.93 109.792C181.93 109.792 160.61 132.712 151.61 142.392C144.84 149.682 141.59 153.192 139.59 155.352C133.54 161.892 129.02 167.152 124.89 172.322L124.91 172.342Z" fill="#101214"/>
<path d="M93.98 160.342C94.68 157.722 91.58 156.452 90.24 158.802C88.33 162.142 86.57 165.742 84.6 170.492C82.53 175.952 82.62 177.552 81.05 181.182C79.78 184.272 77.87 188.332 76.11 191.932C75.67 192.832 75.24 193.702 74.84 194.512C74.64 194.922 74.44 195.322 74.25 195.702C73.91 196.442 73.59 197.142 73.28 197.812C71.98 200.642 70.96 202.872 70.39 204.122C70.04 204.892 69.72 205.652 69.44 206.372C69.13 207.182 68.64 208.442 66.46 213.862C68.95 212.362 74.66 209.022 81.33 205.182C83.42 203.982 85.72 202.672 88.08 201.312C90.09 200.182 92.16 199.042 94.18 197.972C100.87 194.212 105.01 191.892 107.17 190.672C112.27 187.792 115.92 185.352 119.36 182.692C121.25 181.232 119.83 178.692 117.6 179.542C113.54 181.082 109.55 182.932 104.43 185.772C102.44 186.882 97.91 188.502 92.01 191.652C91.05 192.162 90.12 192.742 89.24 193.382C87.65 194.532 85.92 195.692 84.19 196.802C83.32 197.352 82.45 197.892 81.61 198.422C80.47 199.102 80.66 199.032 80.36 199.232C79.47 199.842 78.65 200.262 78.41 200.372C78.54 200.092 78.58 200.002 78.58 200.002C78.58 200.002 83.76 187.392 85.95 182.072C88.12 176.752 89.17 174.192 89.81 172.612C91.74 167.842 93.01 164.032 94 160.322L93.98 160.342Z" fill="#101214"/>
<path d="M95.86 152.542C94.84 152.892 95.12 156.242 95.81 156.592C96.85 157.112 97.91 157.492 99.34 157.832C100.99 158.072 101.62 157.562 102.7 158.042C103.63 158.382 104.75 159.152 105.54 159.942C106.34 160.732 106.79 161.502 106.88 161.772C106.92 161.852 106.97 161.922 107.05 161.962C107.34 162.182 108.19 162.872 109.15 163.982C110.11 165.082 111.15 166.552 111.84 168.032C112.97 170.042 113.45 171.322 113.7 171.962C114.27 173.502 114.8 174.462 115.42 175.452C115.75 175.942 118.62 176.572 119.03 175.592C119.72 173.892 119.67 172.052 118.98 170.052C118.7 169.292 118.82 167.362 117.78 165.192C117.61 164.842 117.38 164.522 117.08 164.262C115.79 163.112 114.61 161.692 113.68 160.552C112.76 159.422 112.1 158.552 112.1 158.552C112.1 158.552 111.82 158.242 111.37 157.752C110.84 157.222 110.09 156.532 109.22 155.952C107.5 154.742 105.37 153.822 104.08 153.352C102.14 152.662 101.16 152.482 100.57 152.332C98.76 151.952 97.25 152.052 95.85 152.522L95.86 152.542Z" fill="#101214"/>
<path d="M82.67 188.642C82.28 188.712 79.7 190.852 79.53 191.192C79.28 191.672 79.21 192.022 79.39 192.272C79.73 192.452 80.34 192.112 80.43 192.362C80.68 192.692 80.4 193.862 80.34 194.172C80.34 194.212 80.34 194.242 80.37 194.252C80.6 194.342 81.55 194.732 81.97 195.512C82.39 195.952 82.7 196.212 82.85 196.342C83.23 196.652 83.75 196.622 84.4 196.312C84.76 196.142 86.43 193.752 86.54 193.402C86.73 192.752 86.8 192.372 86.6 192.162C86.51 192.082 86.9 191.352 86.79 191.032C86.77 190.982 86.7 190.982 86.57 191.032C86.01 191.232 85.67 191.132 85.47 190.992C85.27 190.842 85.22 190.662 85.22 190.662C85.22 190.662 84.55 189.772 84.27 189.392C84.03 189.092 83.92 188.952 83.85 188.862C83.62 188.602 83.23 188.542 82.68 188.642H82.67Z" fill="#101214"/>
<path d="M57.26 217.442C57.87 217.372 58.44 217.322 58.97 217.222C59.5 217.112 59.98 216.992 60.43 216.862C61.32 216.612 62.05 216.352 62.63 216.092C63.22 215.822 63.59 215.572 63.92 215.302C64.25 215.052 64.14 214.882 64.14 214.752C64.11 214.622 64.07 214.512 63.99 214.422C63.91 214.342 63.8 214.272 63.66 214.262C63.59 214.262 63.51 214.262 63.46 214.222C63.42 214.182 63.51 214.272 63.57 214.352C63.62 214.412 63.66 214.472 63.68 214.502C63.73 214.582 63.75 214.632 63.76 214.642C63.79 214.792 63.54 213.322 63.64 213.942L63.61 213.922L63.54 213.892C63.54 213.892 63.45 213.852 63.4 213.832C63.3 213.792 63.19 213.752 63.07 213.722C62.83 213.652 62.56 213.592 62.26 213.532C61.65 213.432 60.9 213.362 60.02 213.352C59.14 213.362 58.12 213.382 56.96 213.402C55.32 213.432 53.67 213.552 52.01 213.422C51.18 213.392 50.35 213.352 49.52 213.322C48.69 213.262 47.86 213.132 47.02 213.042C43.67 212.692 40.31 211.912 36.97 210.772C30.29 208.492 23.77 204.192 18.39 197.472C15.3 193.702 13.3 190.182 11.74 187.092C10.18 183.992 9.1 181.272 8.18 178.692C7.28 176.112 6.56 173.672 5.97 171.032C5.67 169.712 5.42 168.342 5.21 166.882C5.11 166.162 4.99 165.382 4.98 164.702C4.96 163.902 4.95 163.082 4.93 162.212C4.81 159.312 4.94 156.132 5.08 152.802C5.22 151.142 5.37 149.442 5.51 147.712C5.7 145.992 5.97 144.252 6.2 142.482C7.29 135.452 9.15 128.272 11.59 121.792C14.01 115.302 17 109.532 19.84 105.062C22.69 100.592 25.27 97.3421 26.82 95.6321C27.73 94.6121 28.59 93.5521 29.54 92.5821C29.95 92.1321 30.45 91.5921 31.04 90.9621C31.63 90.3421 32.36 89.7021 33.13 88.9421C33.89 88.1721 34.81 87.4221 35.81 86.6121C36.78 85.7621 37.91 84.9821 39.11 84.1321C39.41 83.9221 39.71 83.7021 40.02 83.4921C40.34 83.3021 40.67 83.1021 41 82.9021C41.66 82.5121 42.34 82.0921 43.04 81.6821C44.49 80.9821 45.99 80.1621 47.64 79.6021C50.9 78.3621 54.59 77.5121 58.46 77.5521C62.33 77.5821 66.35 78.5721 70.06 80.5921C70.97 81.1321 71.94 81.5821 72.78 82.2721C73.64 82.9321 74.57 83.4921 75.36 84.2921L76.59 85.4121L77.21 85.9721L77.75 86.5521C78.47 87.3221 79.11 88.1821 79.72 89.0721C82.07 92.6621 83.43 97.0721 83.23 101.342C83.14 103.452 82.71 105.612 81.89 107.412C81.05 109.242 79.81 110.922 78.33 112.302C77.28 113.272 76.13 114.082 74.94 114.722C73.74 115.332 72.51 115.752 71.3 116.012C70.08 116.252 68.9 116.262 67.76 116.152C66.64 115.992 65.56 115.682 64.56 115.232C62.56 114.302 60.9 112.842 59.62 111.222C58.37 109.562 57.45 107.772 56.91 106.012C55.83 102.512 56.07 99.0921 56.69 96.3021C57.32 93.4821 58.34 91.2121 59.28 89.4421C60.4 87.3421 61.69 85.3921 63.18 83.6721C63.55 83.2421 63.88 82.7821 64.26 82.3721C64.65 81.9621 65.03 81.5621 65.41 81.1621C66.14 80.3321 66.99 79.6321 67.78 78.9021C71.02 76.0521 74.54 73.8321 78.13 72.1221C85.33 68.7221 92.73 67.2321 100.07 67.1521C101.08 67.1721 101.97 67.1521 102.74 67.0921C103.51 67.0421 104.15 67.0121 104.68 66.9121C105.74 66.7221 106.32 66.3921 106.39 65.9821C106.46 65.5821 106 65.1121 104.99 64.6421C104.48 64.4121 103.83 64.1621 103.04 63.9721C102.24 63.8021 101.3 63.6521 100.22 63.5421C92.36 62.9721 84.18 64.0521 76.05 67.5021C72 69.2321 67.98 71.5921 64.23 74.7621C63.31 75.5721 62.34 76.3521 61.49 77.2921C61.05 77.7421 60.6 78.2021 60.16 78.6621C59.72 79.1221 59.32 79.6421 58.9 80.1321C57.19 82.0921 55.67 84.3421 54.34 86.8121C53.32 88.7321 52.11 91.2521 51.21 94.5421C50.36 97.8321 49.78 101.922 50.81 106.622C51.34 108.932 52.27 111.292 53.68 113.562C55.09 115.822 57.02 118.002 59.56 119.732C60.82 120.612 62.27 121.302 63.81 121.852C64.2 121.972 64.6 122.092 65 122.212C65.4 122.322 65.82 122.382 66.23 122.462C67.06 122.652 67.91 122.672 68.77 122.742C72.2 122.812 75.72 121.902 78.79 120.112C82.8 117.802 86.02 114.232 87.77 109.942C89.63 105.292 89.82 100.192 88.74 95.4021C87.65 90.6121 85.29 86.1321 81.94 82.5721C78.6 79.1921 74.84 76.4221 70.68 74.5721C66.54 72.7221 62.15 71.8521 58.08 71.8721C54.01 71.9021 50.32 72.7021 47.13 73.6721C44 74.7821 41.33 75.9921 39.25 77.1921C38.22 77.8121 37.26 78.3221 36.48 78.8421C35.71 79.3721 35.04 79.8321 34.51 80.2021C33.42 80.9221 32.88 81.3821 32.88 81.3821C32.88 81.3821 32.06 82.0421 30.58 83.2321C29.16 84.4821 27.11 86.3021 24.85 88.7721C20.24 93.6421 14.87 101.222 10.57 110.272C8.4 114.792 6.59 119.702 5.02 124.682C4.32 127.202 3.56 129.702 3.04 132.252C2.41 134.772 2 137.312 1.56 139.792C1.31 141.032 1.21 142.272 1.04 143.502C0.89 144.732 0.71 145.932 0.6 147.132C0.51 148.332 0.42 149.512 0.33 150.662C0.24 151.822 0.14 152.952 0.13 154.072C0.1 155.182 0.07 156.272 0.04 157.342C0.03 157.872 0.01 158.402 0 158.912C0.01 159.432 0.02 159.942 0.03 160.452C0.05 161.462 0.07 162.442 0.09 163.382C0.1 163.852 0.11 164.312 0.12 164.772C0.12 165.192 0.16 165.782 0.21 166.202C0.84 171.542 1.94 175.992 3.12 179.852C4.32 183.702 5.64 186.922 6.92 189.642C9.56 195.062 12 198.482 13.98 200.972C20.03 208.512 27.71 213.392 35.32 215.682C39.13 216.842 42.89 217.532 46.56 217.712C47.48 217.762 48.39 217.842 49.29 217.852C50.19 217.832 51.09 217.812 51.98 217.802C53.77 217.822 55.51 217.582 57.25 217.422L57.26 217.442Z" fill="#101214"/>
</svg>
