<svg width="147" height="170" viewBox="0 0 147 170" fill="none" xmlns="http://www.w3.org/2000/svg">
<path d="M16.46 157.901C5.85 164.301 7.49 167.211 18.45 161.421C33.99 153.221 50.19 144.371 70.85 132.731C94.19 119.381 99.67 115.481 115.57 106.591C122.27 102.811 130.15 98.4214 138.37 93.8814C139.4 93.3114 140.43 92.7414 141.47 92.1714C141.92 91.9314 142.67 91.4914 143.3 91.0114C143.6 90.7514 143.92 90.4914 144.21 90.2114C144.48 89.9114 144.75 89.6114 145.01 89.3014C147.01 86.7114 147.52 83.1314 146.37 80.0714C145.81 78.5414 144.83 77.1414 143.59 76.0914C143.3 75.8014 142.95 75.6014 142.62 75.3614L142.13 75.0414L141.75 74.8114L140.23 73.9014C138.21 72.6914 136.2 71.5014 134.22 70.3214C118.44 60.8614 104.62 52.5814 99.26 49.3614C97.68 48.4114 96.08 47.4714 94.46 46.5614C88.7 43.2914 73.17 34.4714 53.65 23.3914C43.91 17.8114 33.17 11.6614 22.16 5.34136C20.78 4.55136 19.4 3.75136 18.02 2.96136L15.94 1.76136C15.57 1.55136 15.32 1.38136 14.75 1.11136L13.99 0.741363L13.18 0.461363C10.99 -0.258637 8.55 -0.108637 6.44 0.721363C4.34 1.57136 2.5 3.12136 1.37 5.13136C0.81 6.13136 0.41 7.23136 0.22 8.36136C0.1 8.92136 0.1 9.49136 0.06 10.0514V11.2714C0.06 12.8714 0.05 14.4614 0.04 16.0514C0.03 19.2314 0.02 22.3914 0 25.5214C0 60.8814 0.02 82.7614 0.02 94.1914C0.05 121.181 0.39 141.361 1.02 161.161C1.37 172.041 4.28 172.041 4.63 161.161C5.27 141.361 5.61 121.181 5.63 94.1914C5.63 83.7014 6.43 61.8514 6.57 30.9914C6.59 25.9614 6.54 20.9414 6.41 15.9514C6.38 14.6114 6.34 13.2514 6.31 11.8814L6.29 10.8514V10.3314L6.27 10.0814V9.93136C6.28 9.54136 6.32 9.15136 6.44 8.79136C6.66 8.07136 7.1 7.39136 7.72 6.88136C8.36 6.38136 9.15 6.06136 9.95 5.99136C10.78 5.92136 11.52 6.06136 12.38 6.55136L16.1 8.62136C18.58 10.0114 21.05 11.4014 23.51 12.7814C33.35 18.3214 42.92 23.7714 51.31 28.5814C68.09 38.2014 80.14 45.2514 80.14 45.2514C80.14 45.2514 98.18 55.6714 120.03 68.2914C125.49 71.4414 131.19 74.7414 136.91 78.0414L139.05 79.2814L139.57 79.5814L139.9 79.8114C140.14 79.9414 140.3 80.1514 140.51 80.3114C141.23 81.0614 141.71 82.0514 141.78 83.1114C141.85 83.6414 141.75 84.1714 141.65 84.6814C141.48 85.1714 141.31 85.6714 141 86.0814C140.42 86.9914 139.68 87.3514 138.08 88.2514C126.97 94.5214 116.69 100.331 109.03 104.651C85.97 117.681 74.87 123.951 68.05 127.811C47.41 139.491 31.47 148.801 16.42 157.871L16.46 157.901Z" fill="#101214"/>
</svg>
