<svg width="205" height="214" viewBox="0 0 205 214" fill="none" xmlns="http://www.w3.org/2000/svg">
<path d="M153.502 96.9118C152.552 101.782 152.572 104.412 153.472 104.712C154.322 105.002 156.102 102.842 157.442 97.8118C159.292 90.6918 160.452 83.2118 160.602 74.9618C160.622 66.7418 159.692 57.7018 156.332 48.1118C155.832 46.7618 155.262 45.5218 154.752 44.3118C154.492 43.7118 154.242 43.1218 153.992 42.5518C153.702 42.0018 153.412 41.4618 153.132 40.9318C152.572 39.8818 152.032 38.8718 151.512 37.9118C150.952 36.9718 150.352 36.1118 149.812 35.2718C149.252 34.4418 148.752 33.6118 148.202 32.8718C147.632 32.1418 147.072 31.4418 146.542 30.7618C146.002 30.0918 145.482 29.4318 144.972 28.8018C144.412 28.2118 143.872 27.6318 143.342 27.0618C142.272 25.9318 141.282 24.8118 140.142 23.8418C139.022 22.8618 137.982 21.8018 136.792 20.8418C135.592 19.8918 134.362 18.9118 133.052 17.8718C131.682 16.9218 130.222 15.9118 128.642 14.8118C123.182 11.3118 116.322 7.94182 108.832 5.49182C101.362 2.95182 93.2924 1.38182 85.6424 0.581824C81.8124 0.181824 78.0724 0.00182392 74.5324 0.00182392C72.7624 -0.0181761 71.0524 0.131824 69.4024 0.181824C68.5824 0.221824 67.7724 0.241824 66.9824 0.301824C66.1924 0.391824 65.4224 0.471824 64.6824 0.551824C58.6724 1.12182 54.0324 2.33182 51.4424 3.00182C49.8924 3.34182 48.4224 3.96182 46.9224 4.48182C46.2624 4.74182 45.4424 5.00182 44.5224 5.40182C43.6124 5.82182 42.5724 6.29182 41.4224 6.82182C40.8524 7.09182 40.2324 7.35182 39.6124 7.67182C39.0024 8.01182 38.3624 8.36182 37.7024 8.73182C36.3824 9.48182 34.9224 10.2218 33.5024 11.2418C27.6524 14.9918 20.9924 20.7718 15.3724 28.5918C9.78239 36.4218 5.47239 46.2218 2.93239 56.6318C1.67239 61.8418 0.832389 67.1918 0.372389 72.5618C-0.0676111 77.9418 -0.177611 83.3518 0.372389 88.6418C1.06239 96.1118 2.71239 102.792 4.87239 108.562C7.02239 114.352 9.88239 119.102 12.5824 123.112C18.2524 131.032 23.8624 135.602 27.7024 138.562C28.8824 139.382 30.0524 140.192 31.1924 140.982C32.3324 141.792 33.5524 142.412 34.7024 143.112C36.9924 144.552 39.4024 145.572 41.6724 146.722C42.8324 147.242 44.0024 147.682 45.1424 148.152C46.2924 148.602 47.4124 149.102 48.5624 149.442C50.8524 150.172 53.0624 150.962 55.2824 151.522C64.1524 153.822 72.5024 154.772 80.7624 154.802C85.3124 154.792 87.5524 153.832 87.5224 153.032C87.4924 152.202 85.2724 151.522 80.9124 151.192C72.9724 150.532 65.0024 149.142 56.6724 146.642C54.5824 146.032 52.5224 145.212 50.3824 144.472C49.3024 144.122 48.2624 143.632 47.2024 143.182C46.1424 142.712 45.0524 142.282 43.9724 141.772C41.8724 140.662 39.6324 139.672 37.5224 138.312C36.4624 137.642 35.3224 137.072 34.2824 136.312C33.2224 135.572 32.1524 134.822 31.0624 134.062C27.8124 131.542 22.9224 127.332 18.1924 120.512C17.8924 120.092 17.5924 119.662 17.2824 119.232C16.9924 118.782 16.7324 118.312 16.4524 117.842C15.8924 116.902 15.3224 115.932 14.7324 114.942C14.2224 113.902 13.7024 112.842 13.1724 111.752C12.9124 111.202 12.6124 110.672 12.3824 110.092C12.1524 109.512 11.9224 108.932 11.6924 108.332C11.4624 107.742 11.2224 107.142 10.9824 106.542C10.8624 106.242 10.7424 105.942 10.6224 105.632C10.5224 105.322 10.4324 105.002 10.3324 104.682C9.94239 103.412 9.54239 102.112 9.13239 100.792C8.82239 99.4418 8.51239 98.0518 8.19239 96.6418C8.11239 96.2918 8.03239 95.9318 7.95239 95.5818C7.90239 95.2218 7.84239 94.8618 7.78239 94.4918C7.67239 93.7618 7.56239 93.0218 7.45239 92.2818C7.09239 90.3518 6.97239 88.3918 6.79239 86.4318C6.56239 84.4818 6.47239 82.5218 6.41239 80.5618C6.16239 72.1018 7.21239 62.8318 9.58239 54.2218C10.8024 49.9218 12.3624 45.7918 14.1324 41.9418C14.5524 40.9718 15.1024 40.0718 15.5724 39.1518C16.0724 38.2418 16.5224 37.3218 17.0424 36.4518C17.5924 35.6018 18.1324 34.7618 18.6624 33.9418C19.2024 33.1218 19.6824 32.2818 20.2924 31.5518C24.7824 25.4018 29.7324 21.0318 33.4824 18.3218C35.3824 16.9918 36.9624 16.0318 38.0024 15.3318C39.1124 14.7318 39.7224 14.4018 39.7224 14.4018C39.7224 14.4018 40.6224 13.9118 42.2424 13.0318C43.0624 12.6218 44.1124 12.1818 45.3024 11.6418C45.9024 11.3818 46.5324 11.0818 47.2224 10.7918C47.9224 10.5418 48.6624 10.2818 49.4324 10.0018C55.6124 7.75182 64.5924 5.69182 74.6524 5.53182C84.6924 5.32182 95.7024 6.75182 105.442 9.62182C115.192 12.4918 123.532 16.9218 129.112 21.0018C133.302 24.0918 136.682 27.1418 139.262 30.1418C139.912 30.8818 140.562 31.5818 141.152 32.2918C141.702 33.0318 142.232 33.7418 142.742 34.4218C143.242 35.1118 143.772 35.7418 144.202 36.4118C144.622 37.0818 145.022 37.7318 145.412 38.3518C145.802 38.9718 146.172 39.5718 146.532 40.1418C146.882 40.7218 147.152 41.3218 147.442 41.8718C148.012 42.9818 148.542 44.0118 149.022 44.9518C149.822 46.9218 150.542 48.5518 151.082 49.9918C154.192 58.8018 155.212 67.1818 155.452 74.9518C155.572 82.7318 154.832 89.9718 153.532 96.8918L153.502 96.9118Z" fill="#101214"/>
<path d="M203.762 142.182C205.092 141.372 204.052 138.192 202.492 138.342C200.292 138.542 198.052 139.002 195.282 139.892C192.192 141.072 191.632 141.992 189.482 142.612C185.892 143.792 179.552 144.902 178.022 145.162C177.792 145.202 177.582 145.262 177.362 145.352C175.852 145.982 169.242 148.692 163.332 150.382C159.212 151.752 156.662 152.592 155.332 153.032C152.192 154.092 149.952 155.192 147.842 156.552C146.682 157.302 147.592 160.062 148.972 159.982C151.482 159.832 153.942 159.382 157.092 158.362C158.312 157.962 161.112 157.882 164.752 156.832C165.342 156.662 165.912 156.412 166.452 156.102C171.122 153.422 177.732 151.562 177.732 151.562C177.732 151.562 187.452 148.372 191.552 147.032C194.642 146.012 196.122 145.512 197.032 145.212C199.792 144.282 201.862 143.322 203.752 142.172L203.762 142.182Z" fill="#101214"/>
<path d="M106.342 204.022C107.472 209.922 110.792 209.482 110.352 203.492C109.742 194.992 108.842 186.102 107.372 174.712C105.522 161.832 104.412 158.702 103.342 149.952C101.402 135.182 99.0624 110.132 98.5024 104.102C98.4224 103.212 98.3124 102.322 98.1824 101.432C98.1024 100.862 97.9924 100.112 97.7624 98.5819C97.7124 98.2019 97.6424 97.7619 97.5824 97.2719C97.5724 97.1719 97.5524 97.0719 97.5424 96.9619V96.9319C97.5324 96.9019 97.5124 96.8519 97.4924 96.7819C97.4924 96.7519 97.4924 96.7319 97.5424 96.7219C97.5624 96.7219 97.6024 96.7219 97.6424 96.7219H97.7124C98.0624 96.8719 98.4224 97.0119 98.7824 97.1519C101.792 98.3619 105.492 99.8419 109.592 101.482C117.792 104.802 127.582 108.832 136.732 112.732C152.542 119.282 162.332 123.332 167.442 125.452C179.522 130.432 188.672 133.862 197.772 136.952C202.772 138.642 203.882 135.962 199.152 133.622C190.542 129.362 181.652 125.302 169.592 120.272C164.902 118.322 155.442 113.532 141.692 107.672C139.452 106.722 137.182 105.842 134.912 105.032C127.392 102.362 119.102 99.1519 111.762 96.2219C108.102 94.7419 104.672 93.3419 101.682 92.1319C97.0824 90.2219 93.1724 88.6019 90.2924 87.4019C90.8924 92.1419 91.2124 94.6619 91.2124 94.6619C91.2124 94.6619 96.5624 135.572 98.8224 152.842C100.502 165.552 101.302 171.672 101.802 175.432C103.312 186.812 104.742 195.642 106.342 204.002V204.022Z" fill="#101214"/>
<path d="M147.802 166.032C148.472 164.582 145.802 162.552 144.582 163.582C142.842 165.042 141.222 166.732 139.392 169.102C137.462 171.892 137.502 172.982 136.052 174.762C133.702 177.852 129.002 182.492 127.862 183.612C127.692 183.772 127.542 183.962 127.422 184.152C126.512 185.562 122.472 191.692 118.462 196.572C115.772 200.122 114.102 202.322 113.232 203.472C111.192 206.192 109.922 208.422 108.912 210.792C108.362 212.092 110.672 213.862 111.782 212.982C113.802 211.382 115.612 209.562 117.692 206.872C118.492 205.822 120.802 204.112 123.272 201.102C123.672 200.612 124.012 200.072 124.292 199.502C126.712 194.532 131.222 189.112 131.222 189.112C131.222 189.112 137.592 180.762 140.282 177.232C142.302 174.572 143.272 173.292 143.862 172.502C145.652 170.112 146.852 168.102 147.802 166.032Z" fill="#101214"/>
</svg>
