<svg width="242" height="158" viewBox="0 0 242 158" fill="none" xmlns="http://www.w3.org/2000/svg">
<path d="M151.096 147.216C146.946 152.346 145.546 155.476 146.256 156.066C146.966 156.666 149.776 154.726 154.176 149.846C157.096 146.636 160.046 143.397 163.076 140.057C164.606 138.397 166.146 136.717 167.726 135.007C168.516 134.157 169.316 133.296 170.116 132.426C170.516 131.996 170.926 131.557 171.326 131.117L171.766 130.646L171.946 130.466C172.046 130.386 172.116 130.267 172.246 130.257C172.376 130.237 172.486 130.336 172.556 130.436L172.666 130.587L172.726 130.656L172.996 130.966C173.456 131.496 173.926 132.026 174.396 132.566C176.276 134.716 178.206 136.916 180.186 139.176C184.246 143.766 188.536 148.617 193.086 153.757C193.886 154.647 194.676 155.526 194.826 155.686C195.366 156.286 195.956 156.646 196.476 156.896C197.006 157.136 197.436 157.276 198.046 157.326C198.636 157.376 199.286 157.286 199.856 157.076C200.436 156.866 200.926 156.536 201.266 156.206C201.606 155.876 201.956 155.466 202.256 154.926C202.576 154.406 202.756 153.686 202.946 153.026C203.266 151.926 203.576 150.857 203.876 149.807C204.646 147.037 205.346 144.516 205.996 142.186C207.276 137.506 208.306 133.566 209.266 129.876C211.186 122.496 212.796 116.157 215.326 107.027C217.456 99.1165 219.946 89.8565 222.546 80.2065C225.106 70.5465 227.716 60.4865 230.126 50.9965C232.536 41.5065 234.716 32.5865 236.496 25.2365C237.376 21.5565 238.156 18.2665 238.826 15.4965C239.636 11.9665 240.306 9.0865 240.776 7.0265C241.016 6.0665 241.196 5.0965 241.096 4.3465C241.036 3.9965 240.986 3.6265 240.876 3.3665C240.786 3.0565 240.676 2.8165 240.556 2.5965C240.326 2.1565 239.896 1.5565 239.306 1.0865C238.726 0.616501 238.006 0.276501 237.396 0.136501C236.866 0.00650053 236.426 -0.0234995 235.726 0.0165005C235.026 0.0865005 234.086 0.3765 233.026 1.0965C231.466 2.0965 229.686 3.2265 227.706 4.4865C225.056 6.1865 221.876 8.2165 218.256 10.5465C211.006 15.1765 201.976 20.9465 191.926 27.3665C171.806 40.1865 147.516 55.5765 124.946 69.6565L101.936 84.1665C100.846 84.8965 100.316 85.7465 99.9756 86.4365C99.6456 87.0765 99.4656 88.2265 99.7256 89.2265C99.8456 89.7265 100.066 90.1765 100.296 90.5265C100.506 90.8565 100.776 91.1365 101.106 91.4465C101.256 91.5965 101.486 91.7465 101.676 91.9065C101.896 92.0465 102.146 92.1965 102.406 92.3265C102.966 92.5765 103.616 92.7565 104.236 92.9665L113.416 95.9365L129.296 101.076L129.756 101.267L130.396 101.537L131.696 102.117C132.566 102.517 133.426 102.927 134.256 103.357L134.516 103.487L134.666 103.576C134.666 103.576 134.796 103.647 134.756 103.707L134.656 103.857L134.276 104.337C132.216 106.877 129.996 109.297 127.846 111.647C125.656 113.987 123.536 116.267 121.466 118.477C119.386 120.697 117.356 122.867 115.406 125.037C114.426 126.117 113.476 127.216 112.536 128.316C112.076 128.886 111.616 129.456 111.156 130.016L110.226 131.257C109.866 131.767 109.566 132.276 109.236 132.796C109.046 133.376 108.786 133.956 108.656 134.536C108.586 135.116 108.636 135.756 108.836 136.346C109.046 136.926 109.336 137.457 109.786 137.837L111.316 138.926C111.826 139.266 112.546 139.576 113.036 139.846L114.036 140.346C114.696 140.686 115.356 141.016 116.016 141.356C118.636 142.696 121.196 144.027 123.686 145.367C126.186 146.707 128.636 148.046 131.016 149.416C133.406 150.786 135.756 152.176 137.966 153.666C138.566 154.046 139.076 154.427 139.586 154.757C140.106 155.087 140.536 155.407 140.946 155.697C141.156 155.837 141.356 155.976 141.546 156.106C141.716 156.236 141.876 156.357 142.036 156.477C142.196 156.587 142.356 156.697 142.496 156.807L142.606 156.886L142.826 157.087C142.976 157.207 143.136 157.316 143.306 157.406C143.966 157.746 144.606 157.737 145.076 157.617C145.546 157.487 145.866 157.256 146.066 157.026C146.456 156.566 146.406 156.216 146.256 156.096C146.096 155.956 145.816 156.007 145.476 155.977C145.146 155.957 144.716 155.796 144.586 155.496C144.566 155.466 144.556 155.426 144.546 155.386C144.546 155.366 144.546 155.346 144.536 155.326L144.446 155.186C144.316 154.996 144.186 154.806 144.046 154.596C143.906 154.396 143.746 154.166 143.576 153.956C143.396 153.766 143.216 153.556 143.016 153.346C142.626 152.926 142.186 152.477 141.686 152.057C141.196 151.627 140.656 151.157 140.066 150.727C137.826 149.007 135.496 147.446 133.136 145.916C130.776 144.386 128.356 142.906 125.886 141.436C123.416 139.966 120.886 138.516 118.286 137.066C117.636 136.706 116.976 136.347 116.326 135.977L115.336 135.436L114.946 135.216C114.726 135.066 114.426 134.997 114.346 134.727C114.236 134.447 114.456 134.206 114.606 133.996C114.666 133.896 114.756 133.806 114.826 133.716L114.926 133.596L115.206 133.246C115.636 132.736 116.076 132.236 116.516 131.716C117.426 130.696 118.366 129.666 119.336 128.626C121.276 126.546 123.326 124.437 125.436 122.247C127.546 120.057 129.716 117.807 131.936 115.437C134.146 113.057 136.416 110.617 138.646 107.877C138.956 107.477 139.276 107.077 139.636 106.617C140.066 106.067 140.466 105.487 140.976 104.767C141.116 104.307 141.266 103.817 141.426 103.317C141.486 103.067 141.616 102.807 141.636 102.537C141.596 102.237 141.486 101.977 141.356 101.727C140.866 100.727 139.626 99.8065 138.126 98.9765C137.746 98.7665 137.366 98.5565 136.966 98.3465C136.726 98.2265 136.486 98.0965 136.246 97.9665C135.756 97.7165 135.246 97.4665 134.726 97.2065C134.196 96.9565 133.646 96.6965 133.086 96.4265C132.796 96.2965 132.506 96.1565 132.206 96.0265C131.876 95.8865 131.656 95.7765 131.106 95.5765C127.456 94.3165 122.936 92.7465 117.646 90.9165C114.996 90.0065 112.156 89.0365 109.126 87.9965L108.846 87.8965C108.766 87.8665 108.806 87.8765 108.786 87.8765L108.736 87.8465L108.646 87.7965C108.586 87.7665 108.546 87.7365 108.496 87.7065C108.456 87.6665 108.466 87.5865 108.516 87.5465C108.576 87.5065 108.636 87.4865 108.696 87.4665C108.726 87.4665 108.766 87.4465 108.806 87.4365C109.296 87.1465 109.806 86.8365 110.336 86.5065C111.566 85.7465 112.906 84.9265 114.326 84.0565C117.156 82.3065 120.296 80.3465 123.546 78.3265C128.076 75.4965 132.566 72.5965 136.976 69.6665C175.076 44.3665 225.456 12.9665 225.456 12.9665C225.456 12.9665 226.626 12.2265 228.736 10.8965C229.796 10.2265 231.086 9.4165 232.576 8.4765C232.806 8.3365 233.046 8.1765 233.306 8.0165C233.416 7.9465 233.536 7.8665 233.656 7.7965C233.776 7.7165 233.906 7.6265 234.056 7.6565C234.206 7.6765 234.336 7.7965 234.376 7.9465C234.416 8.1065 234.336 8.2565 234.316 8.4165C234.246 8.7465 234.166 9.0965 234.086 9.4565C233.526 11.9965 232.936 14.7165 232.316 17.5665C231.056 23.2665 229.656 29.5165 228.136 36.0365C225.126 49.0865 221.686 63.2265 218.346 76.3565C215.006 89.4865 211.766 101.587 209.296 110.587C207.166 118.397 204.956 126.187 202.736 133.977L199.336 145.636L198.126 149.716C198.086 149.846 198.056 149.986 197.996 150.106C197.926 150.226 197.786 150.296 197.656 150.296C197.356 150.296 197.236 149.966 197.036 149.796L196.786 149.516C192.356 144.586 188.196 139.946 184.246 135.546C182.226 133.316 180.266 131.146 178.346 129.036C177.866 128.506 177.386 127.987 176.916 127.467L175.906 126.347C175.516 125.917 175.126 125.457 174.696 125.137C174.266 124.807 173.876 124.577 173.386 124.417C172.896 124.257 172.356 124.217 171.846 124.287C171.326 124.367 170.846 124.517 170.456 124.817L169.246 125.797C168.276 126.897 167.316 127.977 166.366 129.057C165.586 129.957 164.816 130.847 164.046 131.727C162.526 133.507 161.036 135.247 159.566 136.977C156.646 140.437 153.836 143.836 151.096 147.216Z" fill="#101214"/>
<path d="M4.12567 69.7665C3.05567 67.8265 1.85567 67.0365 0.955671 67.3465C0.105671 67.6365 -0.424329 69.1165 0.445671 71.4665C2.96567 78.0365 7.54567 84.3865 15.1457 90.0065C19.5357 93.0765 22.6157 94.3865 25.2557 95.4965C27.9157 96.5765 30.2157 97.3765 33.5557 98.5865C39.2257 100.527 47.0857 102.567 54.5757 102.557C58.3157 102.517 61.9857 102.087 65.1757 100.377C66.7557 99.5565 68.1757 98.2165 69.0057 96.7265C69.8557 95.2265 70.0357 93.7665 70.0557 92.8465C70.0957 91.7065 69.8957 90.6665 69.5757 89.7465C69.4157 89.3365 69.2557 88.8365 68.9857 88.2865C68.6757 87.7465 68.3957 87.0965 67.9057 86.4865C67.0157 85.2065 65.6157 83.8365 63.7457 82.8665C61.8857 81.8765 59.5557 81.3165 57.0557 81.4865C55.8057 81.5465 54.5257 81.8665 53.2657 82.3365C52.0357 82.8765 50.7857 83.5365 49.7457 84.4865C49.1457 84.9565 48.8457 85.3565 48.3957 85.7965C47.9857 86.2265 47.5657 86.6665 47.1357 87.1165C46.7357 87.5865 46.3557 88.0965 45.9657 88.5965C45.5857 89.1065 45.1557 89.5765 44.8357 90.1565C43.3757 92.3165 42.2657 94.8465 41.5457 97.5365C40.8757 100.247 40.7857 103.117 41.1357 105.877C41.4657 108.657 42.3857 111.257 43.5057 113.647C45.1557 116.997 47.2157 119.637 49.2257 121.807C51.2457 123.977 53.3057 125.597 55.1457 126.977C58.9057 129.637 61.9957 131.067 64.1457 131.927C69.2157 134.027 74.0757 134.777 78.5157 134.747C82.9657 134.697 87.0457 133.777 90.7057 132.127C94.7157 130.097 93.1457 127.597 89.4857 128.727C86.0357 129.617 82.4757 129.937 78.6457 129.677C74.8257 129.387 70.6857 128.587 66.2757 126.727C64.5457 126.057 62.0157 124.627 59.0757 122.337C58.3457 121.767 57.6057 121.107 56.8257 120.427C56.0957 119.697 55.2757 118.987 54.5457 118.127C53.7557 117.317 53.0557 116.387 52.2857 115.447C51.9457 114.957 51.5957 114.447 51.2357 113.937C50.8657 113.427 50.5957 112.867 50.2557 112.327C49.7957 111.627 49.5057 110.867 49.0857 110.147C48.7557 109.407 48.3957 108.677 48.0957 107.927C47.4457 106.317 47.0457 104.567 46.9157 102.767C46.8857 102.317 46.9257 101.867 46.9157 101.417V100.737L47.0257 100.067C47.0957 99.6165 47.1557 99.1665 47.2357 98.7165L47.6157 97.3965C47.7157 96.9465 47.8957 96.5265 48.0957 96.1065C48.2757 95.6865 48.4557 95.2665 48.6457 94.8465C48.8857 94.4465 49.1157 94.0565 49.3457 93.6665C49.5757 93.2765 49.7857 92.8765 50.0857 92.5265C50.3657 92.1665 50.6357 91.8065 50.9057 91.4565C51.0457 91.2765 51.1657 91.0965 51.3157 90.9265L51.7757 90.4465C52.0857 90.1265 52.3857 89.8065 52.6757 89.4965L53.1157 89.0365L53.5057 88.7165C54.5357 87.8665 55.7257 87.4065 56.8257 87.2565C57.9357 87.1065 58.9357 87.2565 59.7057 87.4965C60.4957 87.7165 61.0357 88.0665 61.3957 88.2965C61.7557 88.5265 61.9057 88.7165 61.9157 88.7065C61.9157 88.7065 61.9857 88.7565 62.1157 88.8665C62.2457 88.9665 62.3857 89.1665 62.6157 89.3765C62.9957 89.8565 63.5457 90.5765 63.8657 91.6765C64.0057 92.1965 64.0757 92.7365 64.0157 93.1965C63.9557 93.6565 63.7957 94.0565 63.4257 94.5065C62.6657 95.4065 60.9157 96.2465 58.8857 96.6765C54.7657 97.5765 49.7057 97.2965 45.1857 96.5365C40.6257 95.7865 36.4957 94.5065 33.4957 93.4065C28.9757 91.7265 25.8057 90.0665 23.4657 88.7165C21.1257 87.3565 19.6057 86.2865 18.4557 85.4665C14.9957 82.9565 12.2057 80.3765 9.87567 77.7765C7.53567 75.1765 5.67567 72.5265 4.11567 69.7665H4.12567Z" fill="#101214"/>
</svg>
