<svg width="214" height="258" viewBox="0 0 214 258" fill="none" xmlns="http://www.w3.org/2000/svg">
<path d="M80.5838 212.269C80.9738 209.559 77.7638 208.599 76.6938 211.139C75.1838 214.739 73.8438 218.589 72.4238 223.639C72.2438 224.359 72.0938 225.019 71.9638 225.619C71.8438 226.189 71.7438 226.699 71.6438 227.169C71.5438 227.849 71.3438 228.399 71.1038 228.909C70.6138 229.899 69.9138 230.729 68.5438 231.229C67.3938 231.639 65.8938 231.709 64.5538 231.089L64.3038 230.989L63.9338 230.819L63.1838 230.479C62.6738 230.269 62.1639 230.029 61.6539 229.829C60.6239 229.409 59.5938 229.029 58.5738 228.679C54.5138 227.289 50.7839 226.609 49.3339 226.369C48.9039 226.299 48.4738 226.259 48.0438 226.239C46.4839 226.189 42.3538 226.149 37.1838 226.789C32.0038 227.369 25.7838 229.059 20.4338 231.659C16.7038 233.609 14.0438 235.759 11.9938 237.469C11.0338 238.389 10.1938 239.189 9.47385 239.879C8.81385 240.609 8.26385 241.219 7.81385 241.719C3.66385 246.499 1.63385 250.789 0.153848 255.029C-0.666152 257.389 1.99385 258.579 3.36385 256.669C5.88385 253.179 8.31385 249.639 12.0238 245.429C12.3938 245.029 12.8938 244.539 13.5038 243.979C14.1538 243.469 14.9138 242.879 15.7838 242.199C16.6838 241.579 17.6838 240.889 18.7938 240.179C19.3638 239.849 19.9538 239.489 20.5638 239.119C21.1638 238.729 21.8538 238.439 22.5238 238.049C23.3838 237.539 24.2838 237.099 25.1438 236.549C26.0438 235.919 27.1038 235.499 28.1338 234.979C29.1838 234.509 30.3038 234.149 31.4038 233.749C32.5338 233.459 33.6439 233.129 34.7439 232.919C35.8539 232.739 36.9038 232.509 37.9138 232.419C38.9238 232.329 39.8638 232.229 40.7138 232.169C41.5638 232.149 42.3139 232.129 42.9439 232.119C44.1939 232.079 44.9239 232.129 44.9239 232.129C44.9239 232.129 46.0238 232.129 47.7738 232.249C49.5238 232.379 51.9239 232.629 54.4939 233.169C57.0639 233.709 59.8039 234.519 62.2439 235.539C62.5539 235.669 63.0638 235.839 63.4638 235.979C63.8938 236.099 64.3338 236.199 64.7638 236.279C65.6338 236.409 66.4838 236.459 67.2938 236.399C68.9238 236.289 70.3538 235.809 71.4838 235.229C73.1738 234.339 74.4038 233.159 75.2538 231.989C76.0938 230.809 76.6238 229.659 76.9038 228.629C77.3538 227.019 77.6538 225.909 77.8938 225.069C79.2538 220.059 80.0738 216.099 80.6238 212.249L80.5838 212.269Z" fill="#101214"/>
<path d="M209.524 256.479C211.014 258.699 214.114 257.429 213.144 254.669C211.754 250.829 209.754 246.859 206.044 242.589C205.494 242.009 204.984 241.489 204.514 241.019C204.034 240.559 203.554 240.189 203.124 239.829C202.254 239.119 201.534 238.539 200.784 238.079C200.054 237.599 199.384 237.159 198.694 236.669C197.964 236.229 197.204 235.739 196.334 235.109C193.324 233.099 189.044 230.719 184.944 229.199C184.434 229.009 183.934 228.809 183.434 228.629C182.934 228.449 182.444 228.319 181.974 228.169C181.024 227.889 180.134 227.569 179.304 227.389C177.664 227.009 176.364 226.649 175.634 226.549C175.204 226.469 174.764 226.419 174.324 226.399C173.934 226.379 173.374 226.349 172.674 226.309C171.974 226.279 171.134 226.309 170.174 226.309C168.254 226.269 165.914 226.399 163.274 226.649C160.644 226.909 157.744 227.379 154.804 228.109C153.334 228.479 151.864 228.919 150.414 229.429C149.684 229.679 148.974 229.959 148.264 230.239L147.204 230.679L146.554 230.899C145.394 231.249 144.264 231.139 143.314 230.789C142.374 230.409 141.634 229.839 141.144 229.229C140.644 228.619 140.344 227.979 140.194 227.409L140.124 227.189C140.094 227.079 140.064 226.969 140.034 226.869C139.974 226.659 139.924 226.459 139.864 226.269C139.754 225.889 139.664 225.539 139.574 225.229C137.944 219.389 136.404 215.099 134.614 210.999C133.634 208.739 130.844 209.579 131.154 212.009C131.714 216.439 132.574 220.849 134.134 226.629C134.294 227.209 134.414 227.869 134.614 228.839C134.844 229.999 135.324 231.339 136.204 232.699C137.084 234.049 138.404 235.409 140.214 236.369C142.004 237.319 144.324 237.909 146.794 237.559C147.194 237.519 147.594 237.429 147.984 237.319C148.374 237.219 148.754 237.099 149.124 236.929C149.984 236.579 150.244 236.389 150.734 236.119C152.664 235.019 154.904 234.119 157.194 233.489C159.484 232.859 161.804 232.479 163.854 232.299C165.904 232.109 167.704 232.079 168.974 232.119C170.234 232.179 170.984 232.209 170.984 232.209C170.984 232.209 172.104 232.209 173.864 232.419C174.304 232.459 174.794 232.509 175.314 232.559C175.834 232.629 176.374 232.729 176.954 232.819C177.534 232.909 178.134 233.009 178.754 233.119C179.364 233.269 180.004 233.419 180.654 233.569C181.964 233.829 183.264 234.319 184.604 234.709C185.264 234.929 185.894 235.209 186.544 235.459C187.184 235.719 187.824 235.949 188.424 236.259C189.024 236.549 189.614 236.839 190.194 237.119C190.774 237.389 191.284 237.739 191.804 238.029C192.314 238.329 192.804 238.619 193.264 238.889C193.704 239.199 194.114 239.479 194.494 239.749C195.664 240.509 196.574 241.299 197.404 241.969C198.244 242.609 198.864 243.279 199.444 243.809C200.614 244.859 201.284 245.729 201.854 246.319C205.164 250.069 207.394 253.329 209.554 256.499L209.524 256.479Z" fill="#101214"/>
<path d="M126.484 98.1885C126.334 100.029 126.944 101.159 127.844 101.419C128.724 101.669 129.924 100.919 130.474 98.8885C131.214 96.0185 131.604 93.0285 131.614 89.7385C131.594 86.4485 131.214 82.8285 129.824 78.8885C128.984 76.6785 127.994 74.9785 127.014 73.6085C126.024 72.2485 125.054 71.1985 124.074 70.3285C122.094 68.5985 120.214 67.3585 117.324 65.9885C114.864 64.8785 111.784 64.0685 108.584 63.7985C105.404 63.5185 102.014 63.6585 98.8338 64.4385C95.6638 65.1885 92.7638 66.6285 90.6638 68.2085C88.5438 69.7785 87.1638 71.3685 86.4538 72.2685C86.0138 72.7985 85.6438 73.3685 85.3038 73.9585C84.6938 75.0085 83.6938 77.0085 82.8638 79.7485C82.0338 82.4885 81.4438 85.9385 81.3538 89.7485C81.2738 93.5385 81.5738 97.7185 82.7038 101.979C83.2738 104.099 84.0738 106.229 85.1438 108.259C86.2238 110.279 87.5838 112.189 89.2138 113.819C91.5338 116.109 94.1738 117.599 96.5938 118.539C99.0338 119.479 101.294 119.909 103.264 120.119C107.204 120.509 110.084 120.179 112.094 119.819C116.814 118.969 120.814 116.759 123.554 113.889C126.314 111.029 127.884 107.729 128.744 104.489C129.204 102.679 128.614 101.589 127.834 101.389C127.034 101.179 126.064 101.789 125.354 103.229C122.724 108.459 118.624 112.919 111.084 114.289C109.644 114.549 107.274 114.619 104.294 114.139C101.354 113.659 97.8538 112.549 94.8538 110.029C93.8738 109.209 92.9538 108.319 92.0838 107.339C90.1738 105.249 88.7438 102.259 87.9538 99.0985C87.1538 95.9385 86.9338 92.6285 87.0238 89.7685C87.1138 86.9085 87.5638 84.5085 88.0238 82.8685C88.4838 81.2285 88.8738 80.3185 88.8738 80.3185C88.8738 80.3185 88.9938 79.9685 89.2638 79.3585C89.5238 78.7485 89.9338 77.8885 90.5338 76.8985C91.1438 75.9185 91.9438 74.8085 93.0038 73.7385C94.0638 72.6785 95.3738 71.6885 96.8938 70.8885C99.9338 69.2585 103.854 68.5785 107.544 68.7185C111.214 68.8085 114.424 69.7885 116.504 70.9585C119.674 72.6785 121.394 74.8485 122.504 76.5785C123.614 78.3285 124.134 79.7085 124.534 80.7385C125.684 83.9185 126.164 87.0085 126.424 89.8985C126.664 92.7985 126.674 95.5185 126.474 98.1485L126.484 98.1885Z" fill="#101214"/>
<path d="M101.694 5.81855C103.394 4.32855 104.594 3.18854 105.364 2.41855C105.554 2.20855 105.714 2.07855 105.864 1.89855C105.934 1.80855 106.004 1.72855 106.064 1.65855C106.124 1.58855 106.174 1.52854 106.224 1.47854C106.424 1.22854 106.584 0.968545 106.594 0.738545C106.594 0.508545 106.444 0.288545 106.004 0.138545C105.894 0.0985449 105.764 0.068545 105.624 0.038545C105.504 0.018545 105.374 0.0185449 105.234 0.00854492C104.964 0.00854492 104.584 0.018545 104.254 0.098545C102.834 0.358545 101.104 1.21854 99.1639 2.67854C93.7239 6.85854 88.8039 11.5985 83.5539 16.8385C78.3339 22.0985 72.8839 27.9385 66.8839 34.5785C65.2139 36.4585 63.7039 38.1585 62.3139 39.7185C62.1439 39.8985 61.9839 40.0785 61.8139 40.2585C61.4739 40.5885 61.2539 41.0085 60.9639 41.3685C60.7139 41.7585 60.5739 42.1985 60.3839 42.6085C60.2539 42.9885 60.2039 43.2685 60.1139 43.5885C59.8639 44.7585 59.7439 45.7485 59.6539 46.6985C59.3439 50.4485 59.4139 53.4185 59.4439 56.2185C59.6039 61.7585 59.7439 66.4785 59.9439 73.3885C60.0339 76.3785 60.1239 79.6285 60.2239 83.1485C60.2739 84.9085 60.3239 86.7285 60.3739 88.6185C60.3939 89.5585 60.4139 90.5185 60.4339 91.4985C60.4339 91.9785 60.4439 92.4685 60.4539 92.9585C60.4539 93.3985 60.4539 93.8385 60.4539 94.2885C60.4339 94.5185 60.4039 94.5385 60.1539 95.0185C59.9239 95.4285 59.5839 95.8985 59.2539 96.3585C58.5539 97.2885 57.7439 98.2185 56.9139 99.1485C55.2339 100.999 53.4239 102.809 51.5939 104.579C47.9339 108.109 44.2039 111.459 40.7439 114.499C33.8139 120.569 27.9739 125.409 25.2939 127.639C24.2239 128.529 23.1639 129.439 22.1239 130.359C20.9139 131.419 19.0639 133.049 11.0739 140.089C10.6839 140.499 10.2839 141.009 9.99389 141.519C9.72389 141.999 9.48389 142.499 9.30389 142.979C8.93389 143.949 8.66389 144.959 8.43389 146.029C7.99389 148.169 7.73389 150.599 7.62389 153.329C7.52389 156.069 7.55389 159.079 7.94389 162.429C8.16389 164.119 8.40389 165.849 9.14389 167.899C9.22389 168.119 9.38389 168.549 9.57389 168.879C9.74389 169.239 9.94389 169.579 10.1839 169.889C10.6139 170.549 11.1939 171.119 11.9039 171.479C12.6039 171.859 13.3939 172.049 14.2239 172.199C14.8239 172.299 15.2939 172.339 15.8139 172.389C17.7939 172.539 19.6639 172.519 21.5639 172.469C23.4639 172.419 25.3739 172.329 27.3039 172.219C31.1639 171.999 35.1039 171.699 39.0939 171.409C43.0739 171.119 47.1039 170.829 51.1039 170.619C53.1039 170.519 55.0939 170.429 57.0439 170.399C58.9739 170.379 60.9639 170.389 62.5639 170.609C62.7439 170.639 62.7839 170.629 62.8639 170.699C62.9139 170.759 62.9439 170.849 62.9539 170.919C63.0539 171.399 63.1339 172.039 63.1939 172.659C63.3039 173.929 63.3339 175.289 63.3339 176.649C63.3339 179.379 63.1939 182.179 63.0239 184.969C62.8439 187.759 62.6039 190.569 62.3339 193.369L61.9039 197.569L61.4839 201.229L60.9839 205.239H79.6839C100.034 205.209 115.234 204.869 130.154 204.229C138.354 203.879 138.354 200.969 130.154 200.619C115.234 199.979 100.024 199.639 79.6839 199.619C78.0139 199.619 75.9739 199.579 73.4539 199.529C72.1939 199.499 70.8239 199.469 69.3339 199.429C69.1439 199.429 68.9539 199.429 68.7639 199.419C68.5839 199.419 68.3239 199.409 68.3539 199.409L68.1139 199.379C67.9639 199.359 67.8139 199.339 67.6839 199.309C67.7339 199.129 67.7839 198.949 67.8439 198.749L67.8839 198.629C67.9239 198.349 67.9639 198.079 68.0039 197.799C68.0839 197.239 68.1539 196.659 68.2339 196.069C68.5439 193.719 68.8439 191.159 69.1239 188.419C69.3939 185.669 69.6439 182.739 69.7839 179.599C69.8539 178.029 69.8939 176.399 69.8639 174.689C69.8439 173.829 69.8139 172.959 69.7339 172.039C69.6939 171.579 69.6539 171.119 69.5739 170.619C69.5039 170.129 69.4439 169.699 69.2039 168.759C69.0039 168.239 68.8639 167.669 68.5939 167.199C68.3139 166.729 68.0239 166.269 67.6839 165.839C67.3939 165.589 67.0939 165.349 66.7839 165.129C66.4539 164.939 66.1039 164.759 65.7339 164.629C65.0139 164.379 64.1539 164.199 63.4539 164.119C62.4639 163.999 61.5839 163.959 60.7139 163.939C58.9839 163.909 57.3339 163.969 55.6939 164.069C48.7839 164.519 41.6439 165.289 34.5639 165.899C31.0339 166.209 27.5239 166.489 24.1139 166.669C22.4139 166.759 20.7339 166.819 19.1239 166.829C18.3139 166.829 17.5239 166.819 16.7739 166.779C16.4039 166.759 16.0339 166.729 15.6939 166.689C15.5339 166.669 15.3339 166.649 15.2339 166.629C15.1939 166.629 15.1339 166.609 15.0839 166.599C14.8639 166.569 14.6939 166.419 14.6039 166.219C14.5839 166.169 14.5539 166.139 14.5339 166.059C14.5039 165.969 14.4339 165.819 14.3939 165.679C14.2939 165.389 14.2039 165.079 14.1239 164.759C13.8039 163.469 13.6239 162.069 13.4939 160.719C13.2539 157.999 13.2739 155.389 13.4039 153.079C13.5339 150.769 13.8139 148.729 14.1739 147.119C14.5139 145.539 15.1039 144.339 15.2439 144.299C15.5339 144.039 15.8039 143.799 16.0439 143.579C16.3139 143.339 16.5639 143.119 16.7939 142.929C17.2439 142.539 17.6039 142.229 17.8839 141.989C18.4339 141.519 18.6539 141.329 18.6539 141.329C26.8139 134.299 34.9839 127.229 42.9939 119.949C46.9939 116.309 50.9639 112.619 54.8339 108.779C56.7639 106.849 58.6739 104.899 60.5239 102.819C61.4439 101.769 62.3539 100.699 63.2339 99.5185C63.6739 98.9285 64.1039 98.3085 64.5139 97.5785C64.8839 96.9385 65.4839 95.7285 65.4839 94.5685V92.8385L65.4339 91.2785L65.3339 88.1785L65.1139 82.0085C64.9639 77.9085 64.8339 73.8085 64.7439 69.7085C64.5239 59.7985 64.5239 52.3685 65.1039 47.0785C65.1839 46.4385 65.2739 45.8185 65.3839 45.2885C65.4339 44.9985 65.5039 44.7985 65.5539 44.5785C65.5839 44.4685 65.5939 44.4185 65.6139 44.3885L65.6639 44.2785C65.7139 44.2085 65.7439 44.1585 65.8239 44.0785C66.0339 43.8585 66.2439 43.6385 66.4539 43.4185C66.8339 42.9985 67.2039 42.6085 67.5539 42.2185C68.9239 40.6985 70.0739 39.4285 71.0739 38.3285C77.0439 31.6885 82.3439 25.7985 87.3139 20.4185C92.2939 15.0585 96.9239 10.1085 101.724 5.80855L101.694 5.81855Z" fill="#101214"/>
<path d="M143.144 196.769C143.714 200.499 144.884 202.259 145.794 202.149C146.714 202.029 147.384 200.069 147.164 196.349C146.914 192.109 146.684 187.789 146.544 183.179C146.484 180.879 146.444 178.509 146.494 176.089C146.524 174.879 146.584 173.659 146.714 172.489C146.744 172.199 146.774 171.899 146.824 171.639C146.854 171.379 146.924 171.029 146.954 170.919C146.974 170.839 147.004 170.739 147.074 170.679C147.124 170.629 147.204 170.619 147.284 170.609C147.384 170.599 147.484 170.589 147.594 170.569C147.864 170.549 148.134 170.519 148.414 170.499C149.564 170.419 150.904 170.409 152.274 170.429C156.224 170.449 159.524 170.599 162.344 170.679C165.184 170.769 167.554 170.849 169.764 170.919C174.194 171.049 177.974 171.199 183.534 171.529C186.604 171.669 189.944 171.879 193.714 171.709C194.194 171.679 194.674 171.649 195.194 171.579C195.324 171.569 195.454 171.549 195.584 171.519C195.764 171.489 195.964 171.459 196.134 171.419C196.494 171.329 196.864 171.249 197.214 171.119C198.654 170.659 199.574 169.279 200.124 167.909C200.964 165.769 201.224 163.889 201.484 161.959C201.934 158.149 201.974 154.449 201.744 150.929C201.614 149.169 201.434 147.459 201.074 145.769C200.904 144.929 200.674 144.079 200.364 143.209C200.274 142.989 200.194 142.769 200.104 142.539C199.994 142.309 199.874 142.079 199.764 141.849C199.624 141.599 199.464 141.349 199.284 141.089C199.084 140.839 198.884 140.599 198.674 140.359C191.894 134.159 187.704 130.329 185.714 128.509C184.894 127.749 184.054 127.009 183.204 126.279C181.194 124.569 176.904 120.949 170.794 115.509C167.744 112.789 164.234 109.609 160.414 105.929C158.514 104.089 156.524 102.119 154.564 99.9986C153.584 98.9386 152.614 97.8386 151.734 96.7186C151.304 96.1586 150.874 95.5886 150.554 95.0686C150.404 94.8186 150.254 94.5386 150.194 94.4186C150.174 94.3786 150.154 94.3286 150.154 94.2786C150.154 94.0986 150.154 93.8986 150.154 93.6786C150.154 93.3986 150.154 93.0886 150.154 92.7586C150.174 92.0886 150.184 91.3186 150.204 90.4686C150.264 88.7586 150.334 86.7186 150.404 84.4886C150.564 79.9986 150.754 74.6886 150.934 69.5286C151.034 64.9586 151.094 60.3786 151.014 55.7586C150.974 53.4486 150.904 51.1286 150.724 48.7586C150.634 47.5786 150.514 46.3686 150.314 45.1086C150.194 44.4486 150.094 43.8286 149.864 43.0586C149.804 42.7086 149.514 42.1586 149.314 41.6886C149.224 41.4286 149.024 41.2386 148.884 41.0186C148.814 40.9086 148.704 40.8186 148.674 40.6786L148.414 40.3786C145.134 36.8986 142.004 33.3286 138.764 29.7886C133.234 23.7286 128.274 18.5386 123.494 13.8986C121.104 11.5786 118.764 9.39856 116.394 7.33856C114.004 5.28856 111.654 3.31856 109.004 1.55856C107.554 0.588557 106.204 0.0885576 105.124 0.00855755C104.854 -0.0114424 104.614 0.00855754 104.414 0.0185575C104.174 0.0585575 103.974 0.128558 103.824 0.208558C103.524 0.368558 103.414 0.558558 103.414 0.758558C103.414 0.958558 103.534 1.17856 103.684 1.39856C103.764 1.50856 103.844 1.61856 103.934 1.71856C104.034 1.85856 104.154 1.99856 104.284 2.12856C104.804 2.68856 105.644 3.43856 106.864 4.45856C109.084 6.28856 111.194 8.39856 113.334 10.5686C115.474 12.7486 117.634 15.0286 119.864 17.4286C124.334 22.2286 129.124 27.4986 134.604 33.5486C136.724 35.8486 139.754 39.5986 143.934 44.4086C143.964 44.4586 143.984 44.5186 143.994 44.5786L144.044 44.8586C144.074 44.9986 144.114 45.1186 144.134 45.3086C144.244 45.9786 144.334 46.7686 144.394 47.6086C144.514 49.2886 144.564 51.1386 144.584 53.0886C144.614 57.0086 144.534 61.3486 144.414 66.0586C144.344 69.0786 144.314 72.1186 144.354 75.1286C144.394 78.1986 144.384 81.3686 144.354 84.5986C144.344 86.2186 144.324 87.8386 144.314 89.4686L144.294 91.9286V93.1786L144.314 94.5886C144.324 95.7386 144.934 96.9786 145.304 97.6086C145.724 98.3386 146.144 98.9186 146.574 99.4986C147.434 100.639 148.314 101.659 149.204 102.639C150.974 104.599 152.754 106.399 154.484 108.109C157.944 111.519 161.214 114.559 164.004 117.139C169.594 122.289 173.284 125.589 173.284 125.589C176.864 128.769 180.454 131.919 184.064 135.049L189.484 139.739L192.184 142.079L193.524 143.249C193.944 143.619 194.454 144.069 194.744 144.339C194.854 144.429 195.174 144.999 195.394 145.689C195.624 146.379 195.814 147.169 195.964 147.969C196.264 149.589 196.454 151.299 196.554 153.009C196.754 156.429 196.684 159.959 196.184 163.219C196.054 164.029 195.884 164.809 195.674 165.499C195.624 165.679 195.564 165.839 195.504 165.989C195.454 166.129 195.444 166.149 195.414 166.209C195.364 166.319 195.294 166.419 195.204 166.499C194.934 166.639 194.994 166.629 194.014 166.749C193.234 166.829 192.384 166.869 191.534 166.879C188.094 166.929 184.504 166.729 180.944 166.529C172.934 165.979 167.014 165.579 162.494 165.269C157.944 164.979 154.784 164.849 152.344 164.829C150.884 164.819 149.444 164.829 148.014 164.939C147.664 164.959 147.304 164.999 146.944 165.049C146.654 165.079 146.014 165.189 145.534 165.289C144.524 165.509 143.654 165.939 143.024 166.569C142.674 167.029 142.384 167.519 142.124 168.019C141.944 168.569 141.714 169.089 141.624 169.669C141.514 170.179 141.474 170.489 141.424 170.889C141.364 171.269 141.334 171.629 141.304 171.989C141.184 173.419 141.164 174.759 141.174 176.069C141.204 178.679 141.354 181.119 141.544 183.489C141.934 188.209 142.504 192.549 143.144 196.799V196.769Z" fill="#101214"/>
</svg>
