<svg width="214" height="202" viewBox="0 0 214 202" fill="none" xmlns="http://www.w3.org/2000/svg">
<path d="M10.7625 177.501C8.67255 178.891 10.3825 181.781 12.4225 181.191C15.4225 180.391 18.6325 179.631 22.7825 178.591C27.4725 177.291 28.5625 176.411 31.8625 175.871C34.6425 175.381 38.4425 175.041 41.8325 174.891C45.2225 174.751 48.1925 174.761 49.3425 174.791C49.6825 174.791 50.0225 174.781 50.3625 174.731C51.5625 174.561 54.8225 174.161 58.9325 173.861C63.0425 173.571 68.0125 173.431 72.5825 173.691C79.0425 173.861 82.9825 174.351 85.0225 174.601C89.8325 175.241 93.3825 175.661 96.7825 176.291C98.5825 176.671 100.003 174.101 98.1025 172.931C94.6825 170.941 90.8525 169.761 85.7525 169.031C83.7725 168.771 79.6925 167.491 73.8125 167.141C72.8625 167.091 71.9025 167.121 70.9525 167.221C66.8625 167.681 62.2125 167.961 58.5725 168.191C54.9325 168.391 52.3125 168.531 52.3125 168.531C52.3125 168.531 48.3925 168.781 43.6725 169.301C38.9425 169.801 33.4125 170.641 30.1425 171.251C25.2125 172.181 22.8625 172.771 21.4125 173.151C17.0425 174.301 13.7025 175.651 10.7725 177.511L10.7625 177.501Z" fill="#101214"/>
<path d="M105.383 193.021C105.573 204.231 108.913 204.281 109.433 193.081C110.153 177.201 110.653 160.511 110.933 139.051C111.063 114.721 110.423 108.671 110.643 92.1914C110.733 85.2314 110.833 77.0714 110.943 68.5714C111.053 60.0614 111.223 51.2514 111.173 42.8414C111.173 42.3114 111.153 41.7814 111.143 41.2514L111.113 40.4414L111.083 39.9114L111.023 39.2214C110.973 38.7814 110.873 38.2714 110.703 37.9514C110.513 37.5414 110.173 37.2014 109.923 36.8314C109.573 36.3914 109.233 35.9514 108.883 35.5114C107.573 33.8814 106.243 32.3714 104.923 30.9214C102.263 28.0514 99.6125 25.5214 97.1225 23.3214C92.1325 18.9514 87.8025 15.9714 85.3325 14.3814C84.6025 13.9114 83.8725 13.4414 83.1225 13.0014L80.8425 11.7314C78.0925 10.2914 72.9325 7.64136 65.6325 5.37136C61.9725 4.28136 57.8026 3.21136 53.1726 2.63136C48.5526 2.03136 43.5025 1.70136 38.2225 2.09136C32.9525 2.46136 27.4225 3.27136 21.9225 4.82136C20.5325 5.14136 19.1825 5.66136 17.8025 6.07136C17.1125 6.29136 16.4225 6.51136 15.7325 6.73136C15.0425 6.97136 14.3725 7.25136 13.6925 7.51136C13.0125 7.77136 12.3325 8.04136 11.6525 8.31136L10.6225 8.71136C10.2725 8.85136 9.97255 8.95136 9.54255 9.16136C7.95255 9.88136 6.46255 10.8714 5.17255 12.0714C2.57255 14.4214 0.772548 17.7114 0.212548 21.2414C0.142548 21.6814 0.0725483 22.1214 0.0525483 22.5714C0.0125483 23.0114 -0.00745166 23.4614 0.00254834 23.9114V24.5714L0.0325483 25.1114L0.0725483 26.2014L0.252548 30.5514C0.472548 36.3414 0.692548 42.1114 0.912548 47.7714C2.26255 79.7314 3.09255 99.5114 3.52255 109.841C4.56255 134.241 5.67255 152.461 7.05255 170.331C7.81255 180.151 10.7225 180.031 10.6625 170.181C10.5525 152.261 10.1325 134.011 9.13255 109.611C8.74255 100.131 8.71255 80.3514 7.69255 52.4614C7.52255 47.9214 7.28255 43.3814 6.96255 38.8814C6.80255 36.4514 6.63255 33.9814 6.46255 31.4814C6.38255 30.2314 6.30255 28.9714 6.22255 27.7014L6.10255 25.8014L6.04255 24.8514C6.02255 24.5214 6.00255 24.2014 6.00255 23.9914C5.93255 22.0214 6.46255 20.0114 7.53255 18.3014C8.59255 16.5914 10.1825 15.1914 12.0325 14.3714C16.5525 12.5114 21.1825 10.7314 25.7725 9.72136C26.3425 9.57136 26.9125 9.43136 27.4725 9.29136C28.0425 9.18136 28.6125 9.08136 29.1825 8.97136C30.3125 8.76136 31.4325 8.56136 32.5425 8.36136C33.6625 8.23136 34.7625 8.11136 35.8425 7.99136C36.3825 7.93136 36.9226 7.85136 37.4626 7.82136C38.0026 7.80136 38.5325 7.77136 39.0625 7.75136C43.2825 7.44136 47.2126 7.77136 50.7126 8.08136C52.4526 8.36136 54.1026 8.54136 55.6026 8.85136C57.1026 9.19136 58.5125 9.42136 59.7525 9.78136C60.9925 10.1314 62.1125 10.4314 63.0925 10.7114C64.0525 11.0314 64.8725 11.3114 65.5425 11.5314C66.8825 11.9614 67.5825 12.2714 67.5825 12.2714C67.5825 12.2714 68.6425 12.6914 70.5525 13.4414C71.4925 13.8614 72.6425 14.3814 73.9725 14.9814C75.2625 15.6614 76.7825 16.3414 78.3725 17.2714C84.8125 20.7714 93.2025 26.7014 100.903 34.7514C101.853 35.7614 102.813 36.7914 103.723 37.8514C104.183 38.3814 104.633 38.9214 105.083 39.4614L105.593 40.1014C105.653 40.1814 105.723 40.2414 105.723 40.3514L105.763 40.8914L105.813 41.9614L105.873 44.1514C105.893 45.6314 105.913 47.1114 105.933 48.5914C105.983 54.5414 105.973 60.5214 105.963 66.2914C105.883 77.8314 105.813 88.5014 105.763 96.4514C105.523 120.411 105.403 131.931 105.333 139.021C105.093 160.471 105.133 177.171 105.403 193.061L105.383 193.021Z" fill="#101214"/>
<path d="M208.143 179.371C210.453 180.171 212.173 177.301 209.973 175.761C206.873 173.641 203.303 171.891 198.553 170.371C195.823 169.611 194.073 169.361 192.543 169.181C191.023 168.981 189.723 168.851 187.883 168.421C184.753 167.771 180.573 166.801 176.823 166.071C173.073 165.341 169.753 164.761 168.463 164.551C168.083 164.491 167.693 164.451 167.313 164.441C165.933 164.391 162.213 164.331 157.553 164.381C152.883 164.431 147.273 164.671 142.063 165.031C134.713 165.711 130.183 166.731 127.823 167.271C122.263 168.621 118.143 170.491 114.713 173.361C112.833 175.091 114.843 177.231 116.663 176.401C120.193 174.981 123.943 173.951 129.113 172.741C131.133 172.271 135.503 172.161 141.583 171.681C142.573 171.611 143.563 171.471 144.543 171.261C148.763 170.381 153.733 170.061 157.613 170.061C161.493 170.051 164.293 170.291 164.293 170.291C164.293 170.291 168.473 170.491 173.503 171.051C178.533 171.591 184.393 172.601 187.813 173.371C192.973 174.511 195.403 175.261 196.883 175.731C201.373 177.121 204.823 178.251 208.143 179.361V179.371Z" fill="#101214"/>
<path d="M212.113 17.9613C211.763 13.9413 208.413 13.9413 208.063 17.9613C207.563 23.6713 207.303 29.6613 207.283 37.3713C207.443 46.1013 208.133 48.2813 208.053 54.2013C208.053 64.2013 207.123 81.0713 206.893 85.1313C206.863 85.7313 206.853 86.3313 206.863 86.9413C206.993 91.2513 207.493 110.131 207.253 126.401C207.253 137.891 207.273 145.001 207.273 148.711C207.303 157.481 207.643 164.031 208.273 170.471C208.623 174.001 211.533 174.001 211.883 170.471C212.523 164.041 212.863 157.481 212.883 148.711C212.883 145.301 213.683 138.201 213.823 128.181C213.843 126.551 213.793 124.911 213.663 123.301C212.573 109.321 212.883 91.1813 212.883 91.1813C212.883 91.1813 212.893 64.1113 212.903 52.6813C212.903 44.0713 212.893 39.9313 212.883 37.3913C212.863 29.6813 212.593 23.6913 212.093 17.9813L212.113 17.9613Z" fill="#101214"/>
<path d="M112.843 34.3414C112.173 35.6314 112.583 36.7614 113.383 37.2214C114.183 37.6914 115.293 37.6214 116.193 36.6114C118.763 33.7514 121.483 30.7714 125.083 27.0714C127.083 24.9414 128.293 23.5514 129.373 22.3614C129.923 21.7714 130.423 21.2214 130.993 20.6714C131.573 20.1414 132.223 19.5914 133.013 18.9914C135.683 16.9314 139.603 14.6114 143.253 13.0114C146.893 11.3414 150.253 10.4414 151.543 10.0914C151.923 9.9914 152.293 9.8414 152.663 9.7114C153.333 9.4814 154.563 9.0314 156.203 8.4914C157.873 8.0514 159.943 7.4214 162.323 7.0414C167.053 6.1714 172.933 5.9314 178.293 6.6414C185.883 7.5214 190.463 9.0114 192.823 9.7414C194.223 10.2114 195.533 10.6214 196.793 11.0014C198.023 11.4414 199.193 11.8714 200.333 12.2414C202.633 12.9414 204.683 13.7614 206.803 14.4114C209.123 15.1414 210.513 12.5914 208.413 11.1814C206.503 9.9214 204.573 8.6214 202.283 7.5614C201.153 7.0114 199.963 6.4414 198.693 5.8814C197.393 5.3914 196.003 4.8914 194.523 4.3814C192.223 3.6414 187.533 1.3414 180.273 0.241404C179.093 0.101404 177.903 -0.0585957 176.713 0.0214043C171.593 0.111404 165.783 0.661404 161.303 1.4314C160.183 1.6414 159.133 1.7714 158.213 2.0014C157.293 2.2114 156.473 2.4014 155.803 2.5614C154.443 2.8414 153.663 3.0914 153.663 3.0914C153.663 3.0914 152.493 3.4514 150.613 4.0214C149.693 4.3614 148.603 4.7714 147.383 5.2214C146.163 5.6614 144.903 6.2914 143.543 6.8814C138.133 9.3214 132.383 13.2514 129.183 15.8114C124.353 19.6714 122.353 21.8814 121.043 23.1514C117.233 27.1414 114.743 30.6914 112.833 34.3314L112.843 34.3414Z" fill="#101214"/>
<path d="M127.023 61.3314C125.973 62.1714 127.403 65.1914 128.653 65.0314C130.443 64.7814 132.203 64.3514 134.403 63.6114C136.843 62.5914 137.293 61.7914 139.043 61.3314C140.523 60.9314 142.573 60.6314 144.403 60.5014C146.243 60.3714 147.863 60.3614 148.483 60.3614C148.673 60.3614 148.853 60.3414 149.033 60.2914C150.283 59.9214 155.933 58.5214 160.943 58.4514C164.453 58.1914 166.643 58.1514 167.783 58.1114C170.473 58.0214 172.493 57.7014 174.493 57.1014C175.593 56.7714 175.683 53.8614 174.573 53.4914C172.553 52.8114 170.453 52.4514 167.653 52.4914C166.573 52.5114 164.273 51.7614 161.043 51.8414C160.513 51.8514 159.993 51.9414 159.483 52.1114C157.283 52.8414 154.753 53.3014 152.763 53.6314C151.773 53.8014 150.913 53.9214 150.303 53.9914C149.693 54.0714 149.333 54.1214 149.333 54.1214C149.333 54.1214 147.183 54.4514 144.603 54.9814C143.313 55.2414 141.913 55.5814 140.613 55.8814C139.323 56.2314 138.123 56.5214 137.233 56.7814C134.573 57.5714 133.313 58.0314 132.533 58.3014C130.183 59.1514 128.473 60.1314 127.003 61.3214L127.023 61.3314Z" fill="#101214"/>
<path d="M127.773 88.1914C126.133 88.8714 126.863 92.1414 128.583 92.1614C131.023 92.1614 133.523 91.9814 136.713 91.5314C140.293 90.8614 141.133 90.1014 143.613 89.8914C147.803 89.4214 154.943 89.9914 156.643 90.1814C156.893 90.2114 157.153 90.2114 157.403 90.1814C159.193 89.9714 167.143 89.3114 174.043 89.7014C178.923 89.7914 181.933 89.8514 183.513 89.8814C187.243 89.9514 190.043 89.6814 192.803 89.1014C194.323 88.7914 194.373 85.8814 192.883 85.4914C190.163 84.7914 187.383 84.3814 183.653 84.2614C182.203 84.2214 179.193 83.3414 174.913 83.1314C174.213 83.1014 173.513 83.1314 172.823 83.2514C169.823 83.7614 166.383 83.9414 163.683 84.0314C162.333 84.0814 161.173 84.0914 160.353 84.0914C159.523 84.0914 159.043 84.0914 159.043 84.0914C159.043 84.0914 156.133 84.1514 152.603 84.3314C149.073 84.5114 144.933 84.8414 142.473 85.1214C138.773 85.5214 137.003 85.8214 135.913 85.9614C132.613 86.4714 130.103 87.2014 127.793 88.1814L127.773 88.1914Z" fill="#101214"/>
</svg>
