<svg width="198" height="190" viewBox="0 0 198 190" fill="none" xmlns="http://www.w3.org/2000/svg">
<path d="M132.786 175.584C129.226 177.224 130.266 180.414 134.176 179.384C139.686 177.874 145.346 175.874 152.296 172.514C156.186 170.504 158.486 168.994 160.466 167.674C162.446 166.344 164.096 165.184 166.626 163.664C167.676 163.014 168.946 162.154 170.106 161.254C171.286 160.344 172.466 159.334 173.626 158.274C175.936 156.144 178.146 153.764 180.116 151.424C184.036 146.734 186.906 142.194 187.976 140.404C188.296 139.874 188.586 139.334 188.866 138.784C189.776 136.774 192.316 131.374 194.316 124.184C195.346 120.604 196.166 116.564 196.776 112.394C197.406 108.224 197.606 103.884 197.626 99.7239C197.516 93.8439 196.826 89.1038 196.056 85.4338C195.866 84.5138 195.706 83.6438 195.516 82.8538C195.306 82.0638 195.116 81.3338 194.936 80.6538C194.586 79.3038 194.286 78.1738 193.976 77.2838C191.236 68.7538 187.856 62.8938 184.026 57.6738C181.896 54.7938 179.486 56.4238 180.926 59.5238C183.546 65.2038 186.096 70.9638 188.606 78.9438C189.516 82.0538 190.736 88.7838 190.996 98.1738C191.026 99.7038 191.136 101.234 191.196 102.764C191.446 106.054 191.236 109.624 190.836 113.074C190.406 116.534 189.646 119.864 188.836 122.744C188.416 124.184 187.966 125.504 187.576 126.684C187.126 127.854 186.736 128.884 186.406 129.734C185.666 131.414 185.236 132.404 185.236 132.404C185.236 132.404 185.086 132.784 184.766 133.434C184.446 134.084 184.016 135.044 183.426 136.204C182.246 138.514 180.496 141.634 178.296 144.854C176.106 148.084 173.446 151.394 170.706 154.164C169.326 155.514 167.956 156.794 166.626 157.794C165.976 158.334 165.316 158.734 164.716 159.154C164.036 159.574 163.406 159.974 162.816 160.334C155.696 164.664 152.046 166.364 149.856 167.484C143.156 170.764 137.856 173.204 132.816 175.594L132.786 175.584Z" fill="#101214"/>
<path d="M148.106 189.114C148.666 189.144 149.116 188.324 149.576 187.544C149.696 187.344 149.796 187.124 149.856 186.904C149.916 186.684 149.906 186.454 149.896 186.254C149.876 185.844 149.766 185.504 149.536 185.324C148.236 184.304 146.826 183.534 144.886 182.844C142.636 182.234 141.866 182.704 140.406 182.124C137.896 181.274 133.926 178.984 132.956 178.434C132.816 178.354 132.666 178.294 132.506 178.264C132.416 178.244 132.206 178.194 131.576 178.014C131.556 178.094 131.376 178.204 131.226 178.044C131.196 178.004 131.176 177.954 131.166 177.894C131.166 177.864 131.166 177.834 131.166 177.804V177.754L131.336 177.454C131.796 176.584 132.286 175.704 132.796 174.874C134.226 172.194 135.116 170.534 135.586 169.664C136.666 167.604 137.186 165.914 137.436 164.114C137.576 163.124 135.006 161.744 134.256 162.404C132.886 163.604 131.766 164.964 130.636 166.994C130.206 167.784 128.606 169.064 127.226 171.334C127.006 171.704 126.846 172.114 126.756 172.544C126.656 173.014 126.526 173.494 126.386 173.964L126.156 174.674L125.786 175.674C125.226 177.324 125.416 179.054 126.016 180.344C126.606 181.654 127.546 182.514 128.266 182.984C128.996 183.464 129.496 183.624 129.496 183.624L129.686 183.694C132.926 184.734 136.056 185.784 139.236 186.864C141.386 187.594 142.416 187.944 143.056 188.154C144.976 188.794 146.566 189.064 148.106 189.114Z" fill="#101214"/>
<path d="M19.1858 83.1339C19.1058 80.2039 15.7758 79.8139 15.1558 82.7839C14.3058 86.9839 13.7958 91.4939 13.8758 97.2939C14.1758 103.864 15.2258 105.454 15.5758 109.864C15.8758 111.714 16.1358 113.904 16.4358 116.184C16.8558 118.444 17.1658 120.824 17.6358 123.034C18.1458 125.234 18.5058 127.344 18.9758 129.034C19.4358 130.734 19.7958 132.074 19.9958 132.824C20.1158 133.264 20.2458 133.704 20.4358 134.124C20.7758 134.874 21.4058 136.244 22.2458 138.074C22.4558 138.534 22.6758 139.014 22.9058 139.524C23.1658 140.014 23.4358 140.534 23.7258 141.074C24.2858 142.154 24.8958 143.324 25.5458 144.554C28.2758 149.394 31.9458 154.964 35.7258 159.854C41.2358 166.644 45.4258 170.094 47.4658 172.024C50.0258 174.134 52.2858 175.964 54.5758 177.354C55.7058 178.064 56.7858 178.764 57.8858 179.364C58.9958 179.944 60.0958 180.484 61.1858 181.014C63.6058 182.164 65.0758 179.654 63.1258 177.974C62.2358 177.204 61.3358 176.444 60.3958 175.694C59.4858 174.914 58.5558 174.114 57.5858 173.284C55.5958 171.694 53.5758 169.824 51.1658 167.804C50.2758 166.964 49.0158 165.554 47.3758 163.704C46.5958 162.734 45.7258 161.664 44.7458 160.514C44.4958 160.224 44.2458 159.934 43.9958 159.634C43.7558 159.324 43.5058 159.004 43.2558 158.674C42.7458 158.034 42.2058 157.364 41.6558 156.674C41.2858 156.224 40.9058 155.794 40.5158 155.374C40.1458 154.934 39.7658 154.494 39.3758 154.074C35.8158 150.544 32.7258 145.674 30.5058 141.774C29.4958 139.764 28.6158 138.044 28.0558 136.794C27.5458 135.524 27.2458 134.764 27.2458 134.764C27.2458 134.764 26.7758 133.644 26.0258 131.854C25.7058 130.934 25.3258 129.844 24.9058 128.634C24.6958 128.034 24.4758 127.394 24.2458 126.744C24.0158 126.084 23.8558 125.384 23.6458 124.684C23.2658 123.264 22.8058 121.804 22.4458 120.304C22.1158 118.804 21.7958 117.294 21.4758 115.844C21.1458 114.394 20.9958 112.964 20.7658 111.664C20.5758 110.364 20.3358 109.184 20.2658 108.154C19.5658 102.024 19.5358 99.0439 19.4858 97.1939C19.3658 91.6439 19.3358 87.3139 19.1858 83.1339Z" fill="#101214"/>
<path d="M0.0657721 92.8138C-0.194228 93.3138 0.365772 94.0639 0.885772 94.8039C1.02577 94.9939 1.18577 95.1738 1.35577 95.3138C1.52577 95.4538 1.75577 95.5439 1.93577 95.6239C2.31577 95.7739 2.67577 95.8138 2.93577 95.6738C4.41577 94.8838 5.70577 93.9039 7.15577 92.4039C8.65577 90.5839 8.54577 89.6838 9.68577 88.5638C11.5158 86.5938 15.2658 83.8738 16.1758 83.2038C16.3058 83.1038 16.4258 82.9938 16.5258 82.8538C16.6158 82.7338 16.7358 82.5638 16.8858 82.3538C16.9558 82.2538 17.0458 82.1438 17.1258 82.0238C17.1458 81.9938 17.1258 81.9939 17.1258 81.9739C17.1058 81.9139 17.1258 81.8038 17.2358 81.7438C17.2858 81.7138 17.3458 81.7038 17.4158 81.7138C17.4458 81.7138 17.4758 81.7338 17.5158 81.7438C17.5158 81.7638 17.5558 81.7538 17.5558 81.7738L17.5758 81.7939H17.5858L17.6458 81.8739C18.3258 82.7439 19.0058 83.6439 19.6258 84.5539C21.5058 86.9939 22.6658 88.4938 23.2758 89.2838C24.7258 91.1338 26.0658 92.3138 27.6158 93.2938C28.4658 93.8338 30.7758 92.0638 30.4758 91.0938C29.9258 89.3338 29.1358 87.7338 27.7158 85.8438C27.1658 85.1138 26.6358 83.1138 25.1058 80.8938C24.8558 80.5338 24.5458 80.2138 24.1858 79.9538C23.7958 79.6638 23.4058 79.3539 23.0358 79.0139L22.4858 78.5038L21.7658 77.7939C20.4758 76.5839 18.7858 76.0339 17.3458 76.0439C15.8858 76.0439 14.6958 76.5638 13.9558 77.0338C13.2158 77.5138 12.8558 77.9139 12.8558 77.9139C12.8558 77.9139 11.6158 79.2738 10.1158 80.9238C8.62577 82.5338 6.88577 84.4238 5.84577 85.5438C4.28577 87.2238 3.52577 88.0338 3.06577 88.5338C1.67577 90.0438 0.755772 91.3938 0.075772 92.7938L0.0657721 92.8138Z" fill="#101214"/>
<path d="M159.476 25.3639C161.856 28.0539 164.896 26.5439 162.646 22.8539C162.256 22.2039 161.766 21.6539 161.306 21.0439C160.826 20.4639 160.386 19.8139 159.846 19.2639C159.306 18.7139 158.756 18.1539 158.206 17.5939C157.926 17.3139 157.646 17.0139 157.346 16.7539C157.036 16.4939 156.726 16.2339 156.416 15.9739C155.776 15.4539 155.136 14.9239 154.466 14.3839C153.776 13.8839 153.056 13.4039 152.316 12.9039C150.866 11.8539 149.216 11.0239 147.496 10.0539C146.496 9.56385 145.566 9.18385 144.726 8.82385C143.876 8.46385 143.116 8.13385 142.376 7.90385C140.916 7.42385 139.696 7.01385 138.546 6.69385C136.226 6.11385 134.286 5.57385 131.456 4.78385C126.666 3.45385 120.146 1.98385 114.246 1.17385C108.346 0.293852 103.106 0.123852 101.066 0.0238519C100.466 0.00385192 99.8558 -0.0261481 99.2558 0.0438519C97.1058 0.253852 91.2958 0.563852 84.1258 2.01385C76.9558 3.38385 68.4858 5.97385 61.0258 9.36385C58.3758 10.5239 56.1258 11.8939 54.0458 13.0139C53.0358 13.6239 52.1058 14.2539 51.2158 14.8139C50.3358 15.4039 49.4758 15.8839 48.7458 16.4639C47.2558 17.5839 45.9658 18.5539 44.8658 19.3839C43.8258 20.2939 42.9558 21.0539 42.2458 21.6739C35.6358 27.6439 31.9158 33.3539 29.2058 39.1939C27.6958 42.4339 30.3258 43.7139 32.3158 41.0239C35.9658 36.1139 39.8758 31.3339 45.9858 25.8639C46.5858 25.3439 47.3858 24.7139 48.3458 23.9739C49.3458 23.2839 50.5658 22.5339 51.9058 21.6439C52.5658 21.1839 53.3158 20.7739 54.1058 20.3339C54.8858 19.8939 55.7058 19.4239 56.5658 18.9339C57.4158 18.4239 58.3758 18.0139 59.3258 17.5139C60.2958 17.0439 61.2558 16.4539 62.3358 16.0139C63.7258 15.4039 65.0558 14.6739 66.3958 13.9639C72.1658 10.8739 79.4958 8.64385 85.3358 7.56385C86.8058 7.32385 88.1658 7.10385 89.3958 6.90385C90.6158 6.71385 91.7158 6.64385 92.6158 6.54385C93.5258 6.45385 94.2358 6.38385 94.7358 6.33385C95.2258 6.28385 95.4958 6.29385 95.4958 6.29385C95.4958 6.29385 97.0958 6.20385 99.6658 6.05385C100.956 6.01385 102.486 6.01385 104.176 5.99385C105.866 5.98385 107.726 6.10385 109.666 6.15385C113.536 6.42385 117.746 6.82385 121.606 7.55385C122.566 7.73385 123.526 7.87385 124.436 8.07385C125.346 8.28385 126.226 8.48385 127.076 8.67385C128.776 9.02385 130.276 9.50385 131.586 9.85385C139.396 12.1139 142.786 14.0639 144.936 15.0439C146.496 15.9239 148.036 16.6439 149.376 17.5339C150.066 17.9539 150.726 18.3639 151.386 18.7639C152.006 19.2039 152.616 19.6339 153.216 20.0539C153.516 20.2639 153.816 20.4639 154.116 20.6739C154.406 20.8839 154.666 21.1239 154.946 21.3339C155.496 21.7739 156.036 22.2039 156.566 22.6339C157.106 23.0539 157.556 23.5539 158.046 23.9939C158.516 24.4639 159.056 24.8739 159.476 25.3639Z" fill="#101214"/>
<path d="M158.256 2.23385C157.926 1.74385 156.996 1.83385 156.106 1.95385C155.636 2.01385 155.196 2.19385 154.886 2.49385C154.576 2.76385 154.376 3.07385 154.376 3.38385C154.396 5.14385 154.666 6.84385 155.346 8.95385C156.276 11.2839 157.136 11.6439 157.606 13.2739C158.516 15.9739 159.216 20.8439 159.396 22.0239C159.426 22.1939 159.476 22.3639 159.546 22.5239C159.586 22.6039 159.626 22.7039 159.726 22.9239C159.866 23.2839 159.846 23.1739 159.866 23.2039C159.936 23.1839 160.216 23.3339 160.116 23.5439C160.086 23.5839 160.046 23.6039 159.996 23.6239L159.906 23.6539H159.856L159.516 23.7239C158.526 23.8839 157.516 24.0339 156.526 24.1339C153.296 24.6539 151.296 24.9839 150.256 25.1539C147.796 25.5739 146.006 26.2039 144.296 27.1139C143.356 27.6139 143.816 30.4939 144.866 30.6839C146.776 31.0239 148.676 31.0739 151.146 30.7039C152.106 30.5539 154.226 31.0239 157.066 30.7139C157.526 30.6639 157.976 30.5339 158.416 30.3339C158.826 30.1439 159.266 29.9739 159.696 29.8139L160.356 29.5839L160.686 29.4739L160.776 29.4439L160.926 29.4039L161.226 29.3339C162.026 29.1339 162.846 29.0039 163.486 28.7039C164.116 28.4239 164.666 28.0439 165.106 27.5639C165.996 26.6039 166.316 25.3939 166.306 24.5139C166.306 23.6439 166.086 22.9439 165.986 22.6239C165.796 22.0739 165.746 21.9539 165.746 21.9539C165.746 21.9539 165.056 19.9939 164.216 17.6239C163.466 15.4239 162.586 12.8339 162.066 11.3039C161.286 8.99385 160.906 7.87385 160.676 7.19385C159.976 5.12385 159.186 3.58385 158.256 2.22385V2.23385Z" fill="#101214"/>
</svg>
