<svg width="210" height="161" viewBox="0 0 210 161" fill="none" xmlns="http://www.w3.org/2000/svg">
<path d="M146.306 11.6453C148.536 12.4253 150.006 12.1353 150.416 11.3053C150.826 10.4853 150.126 9.08531 147.906 7.93531C141.626 4.70531 134.496 2.20531 125.076 0.705306C119.726 -0.0146939 116.346 -0.0146939 113.426 0.00530612C110.516 0.0653061 108.036 0.115306 104.406 0.185306C101.346 0.265306 97.7563 0.415306 94.0163 0.765306C93.0863 0.865306 92.1363 0.965306 91.1963 1.06531L88.3663 1.48531C86.4763 1.77531 84.5864 1.99531 82.7864 2.43531C81.8764 2.62531 80.9864 2.81531 80.1164 2.99531C79.2464 3.17531 78.3864 3.34531 77.5764 3.59531C75.9364 4.05531 74.4063 4.48531 73.0163 4.87531C70.2863 5.78531 68.1464 6.59531 66.9364 7.00531C66.2464 7.30531 65.5663 7.63531 64.8863 7.98531C64.2863 8.29531 63.4363 8.74531 62.3663 9.30531C61.8263 9.56531 61.2564 9.90531 60.6464 10.2953C60.0364 10.6753 59.3763 11.0853 58.6763 11.5253C57.9763 11.9653 57.2263 12.4153 56.4563 12.9253C55.7163 13.4753 54.9263 14.0453 54.1163 14.6453C53.3063 15.2553 52.4463 15.8353 51.6063 16.5253C50.7863 17.2353 49.9363 17.9653 49.0663 18.7153C47.2763 20.1453 45.6664 21.9653 43.8964 23.7053C43.0064 24.5753 42.2563 25.5953 41.4163 26.5553C40.6163 27.5453 39.7063 28.4753 38.9963 29.5553C38.2463 30.6053 37.4863 31.6653 36.7263 32.7353L36.1563 33.5353L35.6464 34.3753L34.6363 36.0553L33.6264 37.7253C33.2764 38.2753 32.9563 38.8353 32.6763 39.4253C32.0963 40.5753 31.5163 41.7253 30.9363 42.8653C30.7363 43.2653 30.5463 43.6653 30.3463 44.0653C30.1863 44.4753 30.0263 44.8753 29.8663 45.2753C29.5463 46.0653 29.2463 46.8453 28.9463 47.5953C28.6463 48.3553 28.3563 49.0853 28.0663 49.8053C27.8363 50.5353 27.6163 51.2553 27.3963 51.9553C26.9663 53.3453 26.5563 54.6653 26.1663 55.9053C25.8763 57.1653 25.5963 58.3553 25.3363 59.4653C25.0863 60.5753 24.8463 61.6253 24.6263 62.5853C24.4363 63.5653 24.2763 64.4653 24.1463 65.3053C23.8763 66.9853 23.6863 68.3853 23.5563 69.5253C22.9263 74.9253 22.8563 79.6553 23.0663 84.0153C23.2763 88.3753 23.8163 92.3553 24.6263 96.2353C25.0863 98.3653 26.0763 99.2953 26.8763 99.1653C27.6863 99.0253 28.3063 97.8653 28.2063 95.7753C28.0463 91.9653 28.0163 88.1353 28.1363 83.9653C28.2663 79.7953 28.5163 75.2953 29.1363 70.1953C29.3963 68.2253 29.9363 65.1753 31.1163 61.3253C31.3963 60.3653 31.6863 59.3453 31.9963 58.2653C32.2763 57.1853 32.7563 56.1053 33.1363 54.9353C33.5763 53.7853 33.9164 52.5453 34.4464 51.3253C34.9664 50.0953 35.4964 48.8253 36.0564 47.4953C36.3764 46.6153 36.8464 45.8053 37.2164 44.9453C37.6064 44.0953 37.9763 43.2453 38.3263 42.3853C38.6663 41.4353 39.2163 40.5753 39.6763 39.6453C40.1663 38.7253 40.6564 37.8053 41.1464 36.8753C41.7264 35.9953 42.3063 35.1053 42.8863 34.2153C43.4963 33.3453 44.0164 32.4053 44.7164 31.6153C45.3764 30.7953 46.0364 29.9753 46.6964 29.1653C47.0264 28.7653 47.3363 28.3453 47.6863 27.9753C48.0463 27.6053 48.3963 27.2453 48.7463 26.8853C49.4463 26.1653 50.1463 25.4553 50.8163 24.7653C51.4763 24.0553 52.2363 23.5053 52.9163 22.8953C53.6063 22.3053 54.2763 21.7353 54.9163 21.1953C55.5463 20.6353 56.2363 20.2253 56.8463 19.7653C58.0863 18.9053 59.1563 18.0853 60.1063 17.5053C62.0263 16.3853 63.1663 15.7153 63.1663 15.7153C63.1663 15.7153 63.5863 15.4653 64.3463 15.0153C65.1363 14.6253 66.2863 14.0553 67.6963 13.3453C69.0863 12.5953 70.8363 11.9153 72.7663 11.1353C74.6663 10.2853 76.8763 9.68531 79.1363 8.92531C80.2563 8.51531 81.4663 8.30531 82.6663 7.97531C83.8663 7.69531 85.0663 7.33531 86.3063 7.10531C87.5363 6.88531 88.7763 6.66531 90.0063 6.43531C91.2263 6.20531 92.4463 6.00531 93.6563 5.86531C98.4763 5.24531 102.986 5.04531 106.336 5.02531C111.396 4.98531 115.136 5.24531 117.976 5.50531C120.816 5.77531 122.756 6.04531 124.236 6.26531C133.166 7.64531 139.956 9.47531 146.316 11.6553L146.306 11.6453Z" fill="#101214"/>
<path d="M3.06636 69.3453C1.45636 68.3153 -0.803639 70.7753 0.286361 72.2853C1.83636 74.4353 3.60636 76.5253 6.02636 79.0553C8.88636 81.8153 10.0564 82.0853 11.8064 84.1453C14.8864 87.5353 18.9464 94.1053 20.4464 95.8553C20.6364 96.1053 20.8864 96.3453 21.1364 96.5653C21.3864 96.7653 21.7164 97.0453 22.2364 97.4053C22.7764 97.7753 23.7264 98.3853 24.8564 98.6853C25.4164 98.8453 26.0364 98.9053 26.6864 98.8953C27.3364 98.8453 28.0064 98.7253 28.6564 98.4553C29.2964 98.2053 29.9964 97.7853 30.5064 97.3653L30.8864 97.0553L31.1964 96.7753C31.4064 96.5853 31.5864 96.3953 31.7664 96.2153C33.1864 94.7053 34.2864 93.1353 35.4364 91.5453C36.5764 89.9553 37.7164 88.3653 38.8464 86.8653C41.8864 82.5253 43.7964 79.9053 44.8064 78.5253C47.1664 75.2753 48.7164 72.6853 50.0264 69.9553C50.7464 68.4553 48.4564 66.6553 47.1764 67.7353C44.8464 69.7053 42.7164 71.9253 40.2764 75.1953C39.3364 76.4653 36.7364 78.6753 33.9364 82.3953C33.4864 82.9953 33.0864 83.6453 32.7664 84.3353C32.0564 85.8053 31.2164 87.3253 30.3364 88.7153C29.4664 90.1053 28.5264 91.3953 27.7164 92.2353C27.6164 92.3453 27.5164 92.4453 27.4264 92.5253C27.3264 92.6153 27.2364 92.6953 27.1864 92.7353C27.0364 92.8653 27.0064 92.8753 26.9164 92.9253C26.7664 93.0053 26.6064 93.0353 26.4864 93.0153C26.2364 92.9753 26.1264 92.8653 26.1264 92.8653C26.1164 92.8553 26.1064 92.8653 25.9764 92.7653C25.9464 92.7453 25.9064 92.7153 25.8664 92.6853C25.8064 92.6353 25.7364 92.5853 25.6664 92.5253C25.5264 92.4153 25.3564 92.2553 25.1564 92.0853C24.3864 91.3753 23.2764 90.1353 22.0764 88.7053C19.6664 85.8353 16.7464 82.3753 14.9564 80.3953C12.2564 77.4053 10.8864 76.0253 10.0664 75.1653C7.53636 72.5853 5.33636 70.8253 3.05636 69.3553L3.06636 69.3453Z" fill="#101214"/>
<path d="M63.4764 148.495C61.2464 147.715 59.7764 148.005 59.3664 148.835C58.9564 149.655 59.6564 151.055 61.8764 152.205C68.1564 155.435 75.2864 157.935 84.7064 159.435C90.0564 160.155 93.4364 160.155 96.3564 160.135C99.2664 160.075 101.746 160.025 105.376 159.955C108.436 159.875 112.026 159.725 115.766 159.375C116.696 159.275 117.646 159.175 118.586 159.075L121.416 158.655C123.306 158.365 125.196 158.145 126.996 157.705C127.906 157.515 128.796 157.325 129.666 157.145C130.536 156.965 131.396 156.795 132.206 156.545C133.846 156.085 135.376 155.655 136.766 155.265C139.496 154.355 141.636 153.545 142.846 153.135C143.536 152.835 144.216 152.505 144.896 152.155C145.496 151.845 146.346 151.395 147.416 150.835C147.956 150.575 148.526 150.235 149.136 149.845C149.746 149.465 150.406 149.055 151.106 148.615C151.806 148.175 152.556 147.725 153.326 147.215C154.066 146.665 154.856 146.095 155.666 145.495C156.476 144.885 157.336 144.305 158.176 143.615C158.996 142.905 159.846 142.175 160.716 141.425C162.506 139.995 164.116 138.175 165.886 136.435C166.776 135.565 167.526 134.545 168.366 133.585C169.166 132.595 170.076 131.665 170.786 130.585C171.536 129.535 172.296 128.475 173.056 127.405L173.626 126.605L174.136 125.765L175.146 124.085L176.156 122.415C176.506 121.865 176.826 121.305 177.106 120.715C177.686 119.565 178.266 118.415 178.846 117.275C179.046 116.875 179.236 116.475 179.436 116.075C179.596 115.665 179.756 115.265 179.916 114.865C180.236 114.075 180.536 113.295 180.836 112.535C181.136 111.775 181.426 111.045 181.716 110.325C181.946 109.595 182.166 108.875 182.386 108.175C182.816 106.785 183.226 105.465 183.616 104.225C183.906 102.965 184.186 101.775 184.446 100.665C184.696 99.5553 184.936 98.5053 185.156 97.5353C185.346 96.5553 185.506 95.6553 185.636 94.8153C185.906 93.1453 186.096 91.7353 186.226 90.5953C186.856 85.1953 186.926 80.4653 186.716 76.1053C186.506 71.7453 185.966 67.7653 185.156 63.8853C184.696 61.7553 183.706 60.8253 182.906 60.9553C182.096 61.0953 181.476 62.2553 181.576 64.3453C181.736 68.1553 181.766 71.9853 181.646 76.1553C181.516 80.3253 181.266 84.8253 180.646 89.9253C180.386 91.8953 179.846 94.9453 178.666 98.7953C178.386 99.7553 178.096 100.775 177.786 101.855C177.506 102.935 177.026 104.015 176.646 105.185C176.206 106.335 175.866 107.575 175.336 108.795C174.816 110.025 174.286 111.295 173.726 112.625C173.406 113.505 172.936 114.315 172.566 115.175C172.176 116.025 171.806 116.875 171.456 117.735C171.116 118.685 170.566 119.545 170.106 120.475C169.616 121.395 169.126 122.315 168.636 123.245C168.056 124.125 167.476 125.015 166.896 125.905C166.286 126.775 165.766 127.715 165.066 128.505C164.406 129.325 163.746 130.145 163.086 130.955C162.756 131.355 162.446 131.775 162.096 132.145C161.736 132.515 161.386 132.875 161.036 133.235C160.336 133.955 159.636 134.665 158.966 135.355C158.306 136.065 157.546 136.615 156.866 137.225C156.176 137.815 155.506 138.385 154.866 138.925C154.236 139.485 153.546 139.895 152.936 140.355C151.696 141.215 150.626 142.035 149.676 142.615C147.756 143.735 146.616 144.405 146.616 144.405C146.616 144.405 146.196 144.655 145.436 145.105C144.646 145.495 143.496 146.065 142.086 146.775C140.696 147.525 138.946 148.205 137.016 148.985C135.116 149.835 132.906 150.435 130.646 151.195C129.526 151.605 128.316 151.815 127.116 152.145C125.916 152.425 124.716 152.785 123.476 153.015C122.246 153.235 121.006 153.455 119.776 153.675C118.556 153.905 117.336 154.105 116.126 154.245C111.306 154.865 106.796 155.065 103.446 155.085C98.3864 155.125 94.6464 154.865 91.8064 154.615C88.9664 154.345 87.0264 154.075 85.5464 153.855C76.6164 152.475 69.8264 150.645 63.4664 148.465L63.4764 148.495Z" fill="#101214"/>
<path d="M206.716 90.7953C208.326 91.8253 210.586 89.3653 209.496 87.8553C207.946 85.7053 206.176 83.6153 203.756 81.0853C200.896 78.3253 199.726 78.0553 197.976 75.9953C194.896 72.6053 190.836 66.0353 189.336 64.2853C189.146 64.0353 188.896 63.7953 188.646 63.5753C188.396 63.3753 188.066 63.0953 187.546 62.7353C187.006 62.3653 186.056 61.7553 184.926 61.4553C184.366 61.2953 183.746 61.2353 183.096 61.2453C182.446 61.2953 181.776 61.4153 181.126 61.6853C180.486 61.9353 179.786 62.3553 179.276 62.7753L178.896 63.0853L178.586 63.3653C178.376 63.5553 178.196 63.7453 178.016 63.9253C176.596 65.4353 175.496 67.0053 174.346 68.5953C173.206 70.1853 172.066 71.7753 170.936 73.2753C167.896 77.6153 165.986 80.2353 164.976 81.6153C162.616 84.8653 161.066 87.4553 159.756 90.1853C159.036 91.6853 161.326 93.4853 162.606 92.4053C164.936 90.4353 167.066 88.2153 169.506 84.9453C170.446 83.6753 173.046 81.4653 175.846 77.7453C176.296 77.1453 176.696 76.4953 177.016 75.8053C177.726 74.3353 178.566 72.8153 179.446 71.4253C180.316 70.0353 181.256 68.7453 182.066 67.9053C182.166 67.7953 182.266 67.7053 182.356 67.6153C182.456 67.5253 182.546 67.4453 182.596 67.4053C182.746 67.2753 182.776 67.2653 182.866 67.2153C183.016 67.1353 183.176 67.1053 183.296 67.1253C183.546 67.1653 183.656 67.2753 183.656 67.2753C183.666 67.2853 183.676 67.2753 183.806 67.3753C183.836 67.3953 183.876 67.4253 183.916 67.4553C183.976 67.5053 184.046 67.5553 184.116 67.6153C184.256 67.7253 184.426 67.8853 184.626 68.0553C185.396 68.7653 186.506 70.0053 187.706 71.4353C190.116 74.3053 193.036 77.7653 194.826 79.7453C197.526 82.7353 198.896 84.1153 199.716 84.9753C202.246 87.5553 204.446 89.3153 206.726 90.7853L206.716 90.7953Z" fill="#101214"/>
</svg>
