<svg width="186" height="195" viewBox="0 0 186 195" fill="none" xmlns="http://www.w3.org/2000/svg">
<path d="M70.72 23.157C60.86 22.957 60.68 26.297 70.49 27.197C84.4 28.477 99.02 29.567 117.84 30.647C123.05 30.957 127.16 31.517 130.62 32.267C134.06 33.027 136.84 33.927 139.21 35.117C143.98 37.497 147.2 40.717 151.16 46.697C152.02 47.957 152.77 49.147 153.48 50.527C153.85 51.197 154.12 51.927 154.46 52.637C154.73 53.377 155.03 54.117 155.26 54.887C156.21 57.967 156.7 61.357 156.48 64.797C156.4 66.517 156.14 68.237 155.72 69.927C155.34 71.627 154.74 73.277 154.04 74.867C152.64 78.057 150.64 80.917 148.32 83.297C145.96 85.627 143.31 87.497 140.57 88.707C137.85 89.947 135.1 90.627 132.59 90.907C130.18 91.117 127.53 91.227 125.44 91.357C123.33 91.477 121.6 91.577 120.37 91.647C118.9 91.717 117.43 91.807 115.96 91.927C110.7 92.327 96.55 93.417 78.75 94.777C76.52 94.937 74.24 95.107 71.91 95.277C71.33 95.317 70.74 95.357 70.15 95.407C69.53 95.437 68.9 95.477 68.27 95.507C67.64 95.547 67.01 95.577 66.38 95.617C65.74 95.697 65.09 95.807 64.44 95.907C59.25 96.707 54.06 98.637 49.46 101.607C40.13 107.447 33.66 117.817 32.18 128.547C32.11 129.017 32.04 129.487 31.97 129.957C31.92 130.427 31.92 130.897 31.89 131.357C31.85 132.287 31.8 133.207 31.77 134.117C31.82 135.027 31.87 135.917 31.91 136.807C31.94 137.247 31.94 137.687 32 138.127C32.07 138.557 32.13 138.987 32.2 139.417C32.34 140.267 32.45 141.117 32.62 141.947C32.83 142.767 33.04 143.567 33.25 144.367C33.36 144.767 33.45 145.157 33.57 145.547C33.71 145.927 33.85 146.307 33.99 146.677C34.27 147.427 34.54 148.167 34.81 148.897C37.29 154.627 40.8 159.067 44.41 162.337C48.04 165.617 51.75 167.787 55.09 169.237C58.46 170.607 61.41 171.417 63.85 171.777C64.57 171.887 65.29 171.987 66 172.097C66.71 172.207 67.41 172.187 68.1 172.237C68.8 172.267 69.49 172.297 70.17 172.327C70.81 172.347 71.45 172.367 72.08 172.377C74.6 172.437 77.04 172.497 79.43 172.557C84.19 172.647 88.7 172.727 93.02 172.797C101.67 172.907 109.61 172.917 117.48 172.857C126.13 172.787 126.23 169.877 117.59 169.247C109.73 168.677 101.79 168.177 93.13 167.727C88.8 167.527 84.29 167.317 79.52 167.097C77.14 167.007 74.69 166.907 72.16 166.807C71.53 166.787 70.9 166.757 70.26 166.737C69.66 166.707 69.05 166.677 68.44 166.637C67.83 166.587 67.2 166.617 66.6 166.507C65.99 166.417 65.38 166.317 64.77 166.227C62.86 165.957 60.48 165.247 57.77 164.117C55.11 162.877 52.11 161.127 49.23 158.537C46.35 155.957 43.59 152.517 41.56 148.247C41.31 147.707 41.06 147.167 40.81 146.627C40.58 146.067 40.4 145.487 40.19 144.907C40 144.317 39.74 143.757 39.6 143.137C39.45 142.527 39.3 141.907 39.15 141.287C39.08 140.977 38.99 140.667 38.92 140.347L38.78 139.377C38.69 138.727 38.59 138.077 38.49 137.417C38.43 136.757 38.43 136.077 38.39 135.397C38.37 134.717 38.28 134.037 38.36 133.347C38.37 129.737 39.08 126.167 40.19 122.757C41.4 119.087 43.39 115.477 46.05 112.347C48.71 109.217 52.04 106.567 55.71 104.667C59.39 102.757 63.37 101.627 67.34 101.227C68.36 101.167 69.36 101.107 70.36 101.047C71.4 100.967 72.44 100.897 73.45 100.817C75.49 100.667 77.47 100.527 79.39 100.387C94.73 99.287 105.81 98.617 105.81 98.617C105.81 98.617 109.94 98.337 116.58 97.887C119.89 97.687 123.85 97.347 128.22 96.997C130.32 96.807 132.92 96.717 135.42 96.197C137.95 95.707 140.5 94.847 142.95 93.657C147.87 91.297 152.33 87.467 155.52 82.767C158.74 78.087 160.71 72.577 161.29 67.127C161.89 61.667 161.09 56.287 159.33 51.757C158.47 49.487 157.42 47.397 156.23 45.567C155.64 44.617 155.08 43.827 154.55 43.037C153.99 42.247 153.47 41.477 152.92 40.747C151.3 38.547 149.58 36.517 147.72 34.817C145.85 33.127 143.9 31.787 142 30.717C141.04 30.217 140.1 29.737 139.19 29.327C138.26 28.967 137.38 28.567 136.51 28.267C135.64 27.987 134.8 27.717 133.99 27.447C133.17 27.237 132.39 27.037 131.63 26.847C130.12 26.457 128.71 26.257 127.42 25.987C126.12 25.807 124.93 25.637 123.83 25.477C122.73 25.347 121.71 25.267 120.77 25.167C119.83 25.067 118.97 24.997 118.2 24.967C99.36 23.927 84.69 23.367 70.72 23.077V23.157Z" fill="#101214"/>
<path d="M46.34 18.187C46.51 18.637 46.66 19.037 46.83 19.387C47 19.727 47.2 20.007 47.42 20.237C47.85 20.687 48.35 20.897 48.81 20.857C49.27 20.817 49.7 20.517 49.99 19.927C50.14 19.637 50.25 19.267 50.32 18.837C50.4 18.407 50.41 17.897 50.31 17.337C49.89 14.157 48.74 10.797 46.44 7.74704C46.17 7.34704 45.85 6.99704 45.52 6.63704C45.19 6.27704 44.87 5.90704 44.5 5.55704C43.75 4.90704 43 4.19704 42.12 3.63704C41.28 3.00704 40.33 2.53704 39.36 2.01704C38.36 1.58704 37.34 1.13704 36.24 0.837043C33.75 0.167043 31.67 -0.0429571 29.92 0.00704293C28.17 0.0270429 26.72 0.227043 25.35 0.497043C22.66 1.12704 20.48 1.95704 17.51 3.45704C15.04 4.79704 12.37 6.70704 9.96 9.10704C7.56 11.507 5.44 14.407 3.89 17.347C2.3 20.287 1.24 23.317 0.69 25.917C0.11 28.527 0.03 30.677 0 31.867C0.02 32.577 0.04 33.287 0.15 33.997C0.34 35.257 0.76 37.607 1.98 40.497C2.62 41.917 3.44 43.467 4.51 45.007C5.59 46.537 6.9 48.077 8.43 49.517C11.49 52.407 15.54 54.827 20.04 56.237C22.27 56.957 24.67 57.407 26.97 57.577C29.27 57.817 31.63 57.787 33.95 57.557C37.22 57.167 40.16 56.227 42.62 54.997C45.08 53.757 47.07 52.267 48.6 50.747C51.67 47.707 53.18 44.907 54.11 43.017C56.26 38.477 57.01 34.147 57.09 30.197C57.1 26.237 56.5 22.577 54.95 19.207C54.51 18.287 53.97 17.677 53.43 17.397C52.9 17.107 52.44 17.107 52.09 17.317C51.38 17.767 51.15 18.857 51.55 20.447C52.28 23.397 52.34 26.577 52.02 29.927C51.65 33.277 50.82 36.897 49.05 40.577C48.37 42.007 46.97 44.077 44.68 46.127C42.35 48.137 39.09 50.057 34.71 50.797L32.56 51.137C31.82 51.187 31.1 51.327 30.36 51.377C28.77 51.507 27.02 51.527 25.35 51.347C23.68 51.177 21.99 50.827 20.39 50.257C17.17 49.177 14.33 47.317 12.22 45.317C10.12 43.297 8.75 41.177 7.98 39.607C7.62 38.817 7.33 38.187 7.19 37.727C7.03 37.277 6.95 37.037 6.95 37.037C6.95 37.037 6.84 36.667 6.65 36.007C6.46 35.337 6.26 34.357 6.1 33.127C5.83 30.667 5.94 27.147 7.15 23.477C8.32 19.817 10.44 16.017 13.05 13.157C15.65 10.227 18.68 8.21704 21.05 7.13704C24.66 5.48704 27.54 5.38704 29.79 5.45704C32.02 5.55704 33.51 5.89704 34.6 6.23704C35.44 6.45704 36.21 6.79704 36.97 7.08704C37.68 7.46704 38.42 7.77704 39.04 8.22704C39.71 8.60704 40.27 9.09704 40.86 9.53704C41.14 9.76704 41.39 10.037 41.65 10.277C41.91 10.527 42.18 10.757 42.39 11.047C44.26 13.157 45.51 15.607 46.31 18.197L46.34 18.187Z" fill="#101214"/>
<path d="M174.79 154.567C174.96 155.017 175.11 155.417 175.28 155.767C175.45 156.107 175.65 156.387 175.87 156.617C176.3 157.067 176.8 157.277 177.26 157.237C177.72 157.197 178.15 156.897 178.44 156.307C178.59 156.017 178.7 155.647 178.77 155.217C178.85 154.787 178.86 154.277 178.76 153.717C178.34 150.537 177.19 147.177 174.89 144.127C174.62 143.727 174.3 143.377 173.97 143.017C173.64 142.657 173.32 142.277 172.95 141.937C172.2 141.287 171.45 140.577 170.57 140.017C169.73 139.387 168.78 138.917 167.81 138.397C166.81 137.967 165.79 137.517 164.69 137.217C162.2 136.547 160.13 136.337 158.37 136.397C156.62 136.417 155.17 136.617 153.8 136.887C151.11 137.517 148.93 138.347 145.96 139.847C143.49 141.187 140.82 143.097 138.41 145.497C136.01 147.897 133.89 150.797 132.34 153.737C130.75 156.677 129.69 159.707 129.14 162.307C128.56 164.907 128.48 167.057 128.45 168.247C128.47 168.957 128.49 169.667 128.6 170.377C128.79 171.637 129.21 173.987 130.43 176.877C131.07 178.297 131.89 179.847 132.96 181.387C134.04 182.917 135.35 184.457 136.88 185.897C139.94 188.787 143.99 191.207 148.49 192.617C150.72 193.337 153.12 193.787 155.42 193.957C157.72 194.197 160.08 194.167 162.4 193.937C165.67 193.547 168.61 192.607 171.07 191.377C173.53 190.137 175.52 188.647 177.05 187.127C180.12 184.087 181.63 181.287 182.56 179.397C184.71 174.857 185.46 170.527 185.54 166.577C185.55 162.617 184.95 158.957 183.4 155.587C182.96 154.667 182.42 154.057 181.88 153.777C181.35 153.487 180.89 153.487 180.54 153.697C179.83 154.147 179.6 155.237 180 156.827C180.73 159.777 180.79 162.947 180.47 166.307C180.1 169.657 179.27 173.277 177.5 176.957C176.82 178.387 175.42 180.457 173.13 182.507C170.8 184.517 167.54 186.437 163.16 187.177L161.01 187.517C160.27 187.567 159.55 187.707 158.81 187.757C157.22 187.887 155.47 187.907 153.8 187.727C152.13 187.557 150.44 187.207 148.84 186.637C145.62 185.557 142.78 183.697 140.67 181.697C138.57 179.677 137.2 177.557 136.43 175.987C136.07 175.197 135.78 174.567 135.64 174.107C135.48 173.657 135.4 173.417 135.4 173.417C135.4 173.417 135.29 173.047 135.1 172.387C134.91 171.717 134.71 170.737 134.55 169.507C134.28 167.047 134.39 163.527 135.6 159.857C136.77 156.197 138.89 152.397 141.5 149.537C144.1 146.607 147.13 144.597 149.5 143.517C153.11 141.867 155.99 141.767 158.24 141.837C160.47 141.937 161.96 142.277 163.05 142.617C163.89 142.837 164.66 143.177 165.42 143.467C166.13 143.847 166.87 144.157 167.49 144.607C168.16 144.987 168.72 145.477 169.31 145.917C169.59 146.147 169.84 146.417 170.1 146.657C170.36 146.907 170.63 147.137 170.84 147.427C172.71 149.537 173.96 151.987 174.76 154.577L174.79 154.567Z" fill="#101214"/>
</svg>
