<svg width="227" height="180" viewBox="0 0 227 180" fill="none" xmlns="http://www.w3.org/2000/svg">
<path d="M184.853 3.81658C182.373 -1.99342 179.223 -0.843418 181.053 5.19658C182.253 9.16658 183.533 13.2166 184.973 17.5766C185.713 19.7466 186.473 22.0066 187.273 24.3666C187.683 25.5466 188.103 26.7566 188.533 27.9866C189.123 29.6266 189.723 31.3166 190.343 33.0466C191.263 33.4366 192.513 33.9666 193.773 34.5066C200.103 37.1066 204.123 38.5766 207.623 39.8566C212.013 41.5166 211.973 41.3266 213.633 42.0766C213.673 42.0966 213.713 42.1066 213.773 42.1366C207.023 44.8166 197.833 48.4666 190.493 51.3766C190.143 52.2866 189.803 53.1866 189.463 54.0766C189.263 54.5766 189.073 55.0766 188.873 55.5566C188.483 56.5266 188.113 57.4766 187.753 58.3766C187.033 60.1866 186.363 61.8666 185.763 63.3666C184.553 66.3666 183.623 68.6666 183.083 70.0166C182.733 70.8866 182.403 71.7766 182.093 72.6666C181.363 74.7266 181.703 73.8966 181.573 74.3966C181.563 74.4566 181.543 74.4866 181.483 74.4466C181.453 74.4266 181.423 74.3866 181.383 74.3166C181.363 74.2766 181.343 74.2466 181.313 74.2066C181.123 73.6966 180.913 73.1666 180.703 72.6066C179.743 70.0266 178.623 67.0566 177.373 63.6966C175.993 59.9666 174.463 55.8066 172.783 51.2466C171.253 50.5966 168.373 49.3866 164.873 47.9066C161.923 46.6366 158.433 45.1366 155.033 43.6766L151.383 42.1366L166.513 35.7166C168.853 34.7166 171.103 33.7466 172.783 33.0266C173.403 31.2666 174.013 29.5566 174.603 27.8866C175.033 26.6166 175.463 25.3866 175.873 24.1866C176.673 21.7766 177.433 19.4766 178.173 17.2666C179.613 12.8266 180.883 8.68658 182.093 4.56658C183.653 -0.763418 180.923 -1.75342 178.703 3.33658C176.983 7.27658 175.303 11.2666 173.553 15.5866C172.693 17.7566 171.803 20.0066 170.873 22.3666C170.093 24.4166 169.263 26.5666 168.393 28.8466C168.293 28.8866 168.193 28.9266 168.083 28.9666C167.763 29.0966 167.423 29.2366 167.063 29.3866C166.203 29.7466 165.273 30.1366 164.323 30.5366C162.383 31.3566 159.573 32.4166 155.873 33.7966C153.983 34.5166 151.863 35.3166 149.513 36.2166C145.093 38.0066 140.233 39.9766 134.933 42.1266C136.703 42.9066 138.953 43.8966 141.493 45.0066C144.063 46.1166 146.933 47.3566 149.893 48.6366C152.243 49.6566 154.623 50.6066 157.003 51.4766C158.973 52.2166 161.013 52.9766 163.063 53.7466C164.093 54.1366 165.123 54.5366 166.153 54.9366L167.703 55.5366C167.883 55.6066 167.853 55.5866 167.883 55.5966L167.953 55.6166L168.113 55.6566L168.223 55.8566C168.223 55.8566 168.233 55.8666 168.263 55.9366L168.373 56.2266L168.603 56.8066C168.903 57.5766 169.203 58.3466 169.493 59.1066C170.083 60.6366 170.663 62.1566 171.233 63.6466C172.363 66.6366 173.443 69.5266 174.453 72.2066C175.773 75.8066 176.993 79.1366 178.063 82.0566C179.433 85.8366 180.613 89.0966 181.543 91.6666C183.273 86.9666 184.193 84.4666 184.193 84.4666L194.753 55.4366L226.213 42.1266L221.653 40.1966C207.183 34.0766 200.213 31.1366 195.933 29.3266C195.493 29.1466 195.063 28.9666 194.743 28.8366C193.903 26.6166 193.113 24.5066 192.353 22.4966C191.453 20.1666 190.583 17.9466 189.753 15.8066C188.063 11.5366 186.443 7.61658 184.813 3.79658L184.853 3.81658Z" fill="#101214"/>
<path d="M208.703 72.9466C207.933 69.7166 206.563 68.3766 205.693 68.6166C204.783 68.8666 204.343 70.5966 204.723 73.6566C205.243 78.0166 205.373 82.5166 205.103 87.3966C204.973 89.8366 204.723 92.3666 204.363 95.0166C204.183 96.3466 203.973 97.6966 203.723 99.0866C203.473 100.477 203.133 101.857 202.843 103.307C202.573 104.967 202.093 106.397 201.763 107.747C201.593 108.417 201.423 109.057 201.263 109.677C201.063 110.277 200.873 110.847 200.683 111.397C200.313 112.497 200.003 113.527 199.663 114.477C199.283 115.407 198.933 116.277 198.593 117.117C198.423 117.537 198.253 117.957 198.093 118.367C197.923 118.777 197.703 119.157 197.513 119.547C197.113 120.327 196.723 121.097 196.313 121.897C195.923 122.717 195.363 123.447 194.843 124.287C194.283 125.097 193.763 126.007 193.023 126.867C192.423 127.617 191.803 128.397 191.163 129.197C190.483 129.977 189.733 130.727 188.983 131.527C188.263 132.347 187.403 133.067 186.563 133.827C186.143 134.207 185.713 134.587 185.283 134.977C184.843 135.347 184.373 135.687 183.913 136.047C180.243 138.927 176.043 141.417 171.863 143.297C167.673 145.167 163.573 146.467 160.123 147.347C156.613 148.147 153.863 148.797 152.313 149.117C151.383 149.267 150.463 149.447 149.543 149.657C148.723 149.837 147.553 150.097 146.093 150.427C145.363 150.577 144.563 150.787 143.673 150.937C142.783 151.087 141.833 151.237 140.813 151.407C139.793 151.577 138.713 151.757 137.583 151.937C136.453 152.127 135.263 152.337 134.003 152.457C131.503 152.737 128.803 153.097 125.953 153.357C114.523 154.417 100.613 154.547 87.783 153.707C85.453 153.587 83.123 153.397 80.793 153.247C78.463 153.057 76.143 152.857 73.813 152.627C71.493 152.387 69.173 152.147 66.853 151.857C65.693 151.727 64.543 151.567 63.393 151.407L61.673 151.167L58.693 150.707L54.733 153.577L51.773 155.677C40.383 163.657 31.843 169.577 23.343 175.177C18.653 178.177 19.973 180.777 25.123 178.317C34.413 173.727 43.453 168.297 54.993 160.277C55.653 159.827 56.423 159.297 57.403 158.637C57.893 158.307 58.433 157.937 59.043 157.527C59.313 157.347 59.603 157.147 59.913 156.947C59.993 156.907 60.073 156.857 60.163 156.807C60.233 156.837 60.303 156.857 60.383 156.887L60.433 156.907H60.463L60.603 156.947C60.783 156.987 60.973 157.017 61.163 157.057C61.923 157.197 62.743 157.347 63.613 157.507C65.353 157.827 67.313 158.127 69.463 158.457C73.763 159.077 78.853 159.707 84.543 160.107C87.163 160.337 89.803 160.357 92.413 160.367C103.683 160.337 116.613 159.947 126.713 159.007C129.233 158.777 131.583 158.487 133.683 158.277C135.783 158.087 137.633 157.807 139.173 157.577C142.243 157.137 144.063 156.877 144.063 156.877C144.063 156.877 144.233 156.847 144.553 156.807C144.873 156.767 145.343 156.677 145.953 156.547C147.163 156.297 148.913 155.947 151.073 155.507C152.153 155.267 153.343 155.087 154.593 154.747C155.843 154.417 157.183 154.057 158.583 153.687C159.983 153.297 161.463 152.947 162.983 152.487C164.493 151.967 166.083 151.527 167.643 150.887C173.953 148.517 180.583 145.087 185.993 140.787C191.463 136.567 195.683 131.657 198.383 127.747C199.383 126.257 200.343 124.887 201.073 123.487C201.833 122.117 202.603 120.867 203.133 119.607C203.703 118.367 204.243 117.227 204.713 116.157C205.123 115.057 205.503 114.037 205.853 113.097C206.613 111.227 206.983 109.567 207.413 108.177C207.613 107.477 207.793 106.837 207.963 106.237C208.093 105.637 208.213 105.077 208.313 104.567C208.623 103.017 208.973 101.507 209.223 100.027C209.463 98.5566 209.653 97.1066 209.813 95.6966C210.123 92.8766 210.283 90.1666 210.293 87.5566C210.313 82.3366 209.773 77.5166 208.713 72.9566L208.703 72.9466Z" fill="#101214"/>
<path d="M22.7331 161.257C21.9631 164.397 22.2931 166.217 23.1731 166.527C24.0431 166.827 25.4731 165.557 26.6031 162.437C28.2031 158.007 29.6131 153.407 30.9131 148.337C31.0131 147.917 31.1131 147.497 31.2131 147.077C31.3431 146.497 31.4731 145.927 31.6031 145.337L31.8031 144.447C31.6231 144.217 31.4131 143.997 31.2131 143.767C30.8031 143.307 30.3931 142.857 29.9831 142.387C29.4831 141.827 28.9731 141.257 28.4631 140.687C28.0231 140.177 27.5431 139.687 27.1031 139.157C26.2131 138.107 25.3031 137.027 24.3731 135.917C23.4731 134.787 22.5531 133.617 21.6031 132.427C17.3231 126.997 14.9731 123.387 12.9931 120.207C11.0331 117.017 9.51305 114.187 7.98305 109.807C6.68305 106.117 5.58305 101.637 5.23305 96.9266C5.02305 94.5766 5.08305 92.1666 5.23305 89.7966C5.48305 87.4266 5.80305 85.0866 6.40305 82.8766C7.51305 78.4366 9.26305 74.4866 11.0131 71.4266C11.9131 69.9066 12.7331 68.5566 13.5131 67.4666C14.2531 66.3566 14.9331 65.5066 15.4131 64.8866C15.9631 64.1466 16.5431 63.4266 17.1131 62.6966C18.0831 61.3566 20.0631 58.9966 22.9431 56.0866C25.8331 53.1966 29.7431 49.8466 34.4631 46.5566C39.2031 43.3066 44.7231 40.0766 50.6631 37.3166C56.5931 34.5266 62.923 32.1366 69.133 30.2766C77.883 27.5566 85.1731 26.0266 90.9631 25.0366C96.7531 24.0566 101.053 23.5766 104.003 23.2966C110.973 22.6166 117.093 22.3866 122.743 22.3166C128.393 22.2566 133.593 22.4066 138.743 22.7466C144.363 23.1966 144.933 20.3366 139.203 19.1666C134.003 18.1766 128.673 17.5366 122.843 17.2466C117.013 16.9766 110.673 17.0366 103.473 17.7066C100.673 17.9666 96.3431 18.2366 90.6831 18.9566C85.0231 19.6866 78.0031 20.8666 70.0031 23.1466C67.3931 23.8866 64.8231 24.7666 62.3331 25.7666C51.5231 29.9966 39.5931 36.0366 31.0131 42.0566C26.7131 45.0366 23.2031 47.9066 20.8231 50.0666C19.6231 51.1366 18.7131 52.0466 18.0731 52.6366C17.4531 53.2666 17.1231 53.5966 17.1231 53.5966C17.1231 53.5966 16.6331 54.1066 15.7431 55.0366C14.8931 56.0066 13.6231 57.3566 12.2231 59.1766C10.7731 60.9566 9.21305 63.2066 7.62305 65.7866C6.06305 68.3966 4.56305 71.3866 3.30305 74.6566C0.733055 81.1766 -0.376945 88.9166 0.113055 95.9866C0.633055 103.067 2.48305 109.377 4.28305 113.837C7.01305 120.567 9.81305 125.137 11.9731 128.547C14.1931 131.937 15.8831 134.147 17.1431 135.837C18.1431 137.077 19.1231 138.287 20.0731 139.467C21.0731 140.607 22.0431 141.707 22.9831 142.787C23.4531 143.327 23.9531 143.827 24.4331 144.337C24.8631 144.787 25.2931 145.227 25.7131 145.667L25.9331 145.877L26.0531 145.987L26.0331 146.137L25.9831 146.457L25.9431 146.687L25.8531 147.157C24.8431 152.157 23.8231 156.767 22.7331 161.237V161.257Z" fill="#101214"/>
</svg>
