<svg width="203" height="237" viewBox="0 0 203 237" fill="none" xmlns="http://www.w3.org/2000/svg">
<path d="M154.386 146.777C151.086 142.697 148.346 144.627 151.076 149.107C154.956 155.457 159.236 161.987 164.996 170.187C171.676 179.387 173.876 181.287 178.246 187.627C181.996 192.937 186.846 200.217 191.116 206.717C192.176 208.347 193.216 209.927 194.186 211.407C194.666 212.147 195.136 212.867 195.586 213.567C195.806 213.917 196.026 214.257 196.246 214.587C196.316 214.697 196.296 214.687 196.316 214.717C196.316 214.747 196.346 214.767 196.346 214.787C196.346 214.837 196.386 214.877 196.386 214.927C196.466 215.297 196.326 215.637 196.156 215.807C196.076 215.897 195.986 215.957 195.896 215.987C195.546 216.217 195.236 216.417 194.986 216.577C194.326 217.007 193.686 217.447 193.056 217.917C190.806 219.587 184.756 224.097 177.086 229.687C176.606 230.037 176.126 230.387 175.626 230.747L175.446 230.877L175.386 230.917C175.386 230.917 175.316 230.967 175.286 230.987C175.216 231.027 175.136 231.057 175.066 231.077C174.756 231.177 174.366 231.097 174.076 230.907C174.036 231.027 173.016 229.497 172.296 228.527C171.526 227.457 170.756 226.367 169.976 225.277C166.866 220.897 163.706 216.397 160.706 212.037C152.086 199.837 146.746 192.277 143.956 188.337C137.356 179.027 132.166 172.257 126.816 165.787C123.876 162.237 121.496 163.907 123.866 167.867C128.176 175.077 132.806 182.237 139.366 191.577C141.916 195.197 146.596 203.207 153.996 213.947C155.206 215.697 156.476 217.397 157.786 219.047C160.626 222.607 163.596 226.487 166.446 230.317C167.156 231.277 167.866 232.227 168.556 233.167L169.076 233.877C169.136 233.957 169.336 234.217 169.466 234.377C169.606 234.567 169.786 234.717 169.946 234.887C170.616 235.537 171.426 236.037 172.276 236.367C173.986 237.017 175.906 236.937 177.496 236.217C177.896 236.037 178.266 235.827 178.616 235.577C178.846 235.417 179.076 235.247 179.296 235.087C179.726 234.777 180.146 234.477 180.556 234.177C187.186 229.387 192.036 226.037 192.036 226.037C192.036 226.037 193.826 224.757 196.716 222.717C197.436 222.207 198.226 221.647 199.066 221.047C199.186 220.957 199.236 220.937 199.426 220.787C199.586 220.657 199.756 220.527 199.916 220.387C200.236 220.097 200.526 219.777 200.796 219.427C201.326 218.717 201.736 217.887 201.956 216.987C202.416 215.197 202.096 213.077 200.936 211.437C200.206 210.397 199.456 209.327 198.676 208.237C192.526 199.517 185.316 189.287 181.026 183.217C174.566 174.077 171.456 169.677 169.546 166.977C163.746 158.797 159.036 152.577 154.346 146.797L154.386 146.777Z" fill="#101214"/>
<path d="M102.756 45.1967C103.156 45.5067 103.526 45.7966 103.876 46.0666C104.206 46.3566 104.526 46.6166 104.826 46.8566C105.436 47.3266 105.986 47.6766 106.466 47.9266C107.436 48.4266 108.146 48.5066 108.496 48.2066C108.846 47.9066 108.846 47.2267 108.386 46.1967C108.156 45.6767 107.816 45.0766 107.356 44.3966C107.126 44.0566 106.866 43.6966 106.566 43.3166C106.256 42.9566 105.886 42.5967 105.496 42.2167C101.146 37.8567 95.6459 34.0867 88.8259 32.0167C87.9859 31.7067 87.1059 31.5366 86.2159 31.3566C85.3259 31.1866 84.4259 30.9566 83.5059 30.8366C81.6559 30.6766 79.7659 30.4166 77.8159 30.5366C75.8659 30.4866 73.8959 30.8166 71.8759 31.0666C70.8859 31.2866 69.8759 31.5166 68.8559 31.7366L68.0858 31.9066L67.3358 32.1466C66.8358 32.3066 66.3259 32.4766 65.8159 32.6366C65.2459 32.8366 64.6759 33.0066 64.1359 33.2266C63.6059 33.4566 63.0959 33.6866 62.5859 33.9066C61.5759 34.3566 60.6059 34.7567 59.7459 35.2667C58.8759 35.7467 58.0359 36.2066 57.2359 36.6566C56.4759 37.1566 55.7559 37.6467 55.0559 38.1067C54.7059 38.3367 54.3659 38.5666 54.0359 38.7966C53.7159 39.0266 53.4059 39.2867 53.1059 39.5167C52.5059 39.9967 51.9259 40.4566 51.3659 40.9066C50.2559 41.8166 49.2859 42.7966 48.3359 43.6866C46.5459 45.5966 44.9759 47.4266 43.5159 49.5266C43.1459 50.0466 42.7759 50.5866 42.3959 51.1266C42.0459 51.6866 41.6959 52.2666 41.3259 52.8666C41.1459 53.1666 40.9559 53.4666 40.7659 53.7666C40.5959 54.0866 40.4159 54.4066 40.2459 54.7266C39.8959 55.3866 39.5059 56.0466 39.1459 56.7666C37.9659 59.1966 36.8259 61.8966 35.8759 64.8266C34.9559 67.7566 34.1859 70.8867 33.6559 74.1267C32.6259 80.6067 32.6059 87.5367 33.5559 93.8867C33.9659 97.0867 34.7059 100.137 35.4859 102.987C35.9459 104.397 36.3159 105.787 36.8359 107.067C37.0759 107.717 37.3159 108.347 37.5559 108.967C37.8059 109.577 38.0859 110.167 38.3359 110.747C40.3859 115.377 42.6659 118.717 43.9659 120.557C44.7859 121.607 45.5959 122.667 46.5159 123.647C48.1359 125.387 51.2959 128.577 56.2559 131.727C58.7659 133.237 61.6759 134.767 64.9959 135.997C68.3259 137.207 72.0158 138.197 75.9758 138.777C83.8858 139.967 92.8659 139.327 101.446 136.607C102.506 136.237 103.596 135.917 104.646 135.497C105.686 135.067 106.736 134.637 107.786 134.197L110.836 132.697C111.856 132.197 112.796 131.597 113.776 131.047C115.746 129.987 117.586 128.677 119.446 127.427C120.386 126.827 121.226 126.067 122.116 125.387C122.986 124.687 123.886 124.027 124.676 123.247C129.336 119.047 132.866 114.397 135.306 109.827C137.736 105.247 139.196 100.797 139.916 96.7966C140.146 95.8066 140.216 94.8267 140.366 93.8867C140.426 93.4167 140.496 92.9566 140.556 92.4966C140.586 92.0366 140.606 91.5967 140.636 91.1567C140.686 90.2767 140.746 89.4266 140.776 88.6166C140.766 87.8066 140.756 87.0167 140.746 86.2667C140.676 83.2667 140.356 80.7866 140.026 78.7866C139.236 74.0666 137.916 69.7767 136.316 65.8767C134.706 61.9767 132.836 58.4466 130.736 55.2566C128.626 52.0666 126.336 49.1966 123.846 46.6266C121.366 44.0466 118.666 41.7666 115.676 39.8866C114.026 38.8766 112.646 38.3267 111.626 38.2167C110.616 38.0667 110.036 38.2367 109.866 38.6067C109.696 38.9767 109.936 39.5566 110.576 40.2466C111.226 40.9066 112.216 41.8067 113.606 42.8567C116.126 44.7967 118.426 47.0866 120.536 49.6166C122.656 52.1466 124.616 54.9166 126.426 57.9466C128.236 60.9766 129.836 64.2966 131.236 67.8966C132.626 71.5066 133.776 75.4267 134.476 79.6967C135.036 82.9867 135.386 88.2466 134.146 94.8066C133.456 98.0666 132.336 101.627 130.506 105.247C128.686 108.867 126.136 112.557 122.746 115.987C122.226 116.567 121.606 117.077 121.046 117.627C120.466 118.157 119.926 118.727 119.326 119.247C118.086 120.237 116.936 121.317 115.666 122.267C114.976 122.777 114.276 123.287 113.576 123.807C113.226 124.067 112.876 124.327 112.516 124.577L111.386 125.277C109.876 126.217 108.356 127.207 106.746 127.997C103.566 129.657 100.176 131.037 96.6859 131.927C93.2059 132.847 89.6759 133.437 86.2459 133.587C82.8159 133.727 79.5059 133.547 76.4559 133.087C70.3459 132.107 65.3559 130.117 62.0859 128.327C60.4659 127.397 59.1859 126.647 58.3659 126.027C57.5359 125.447 57.0759 125.127 57.0759 125.127C57.0759 125.127 56.9059 125.007 56.6059 124.757C56.2959 124.517 55.8459 124.147 55.2759 123.687C54.1259 122.747 52.5559 121.287 50.7659 119.327C49.0259 117.327 47.1059 114.807 45.3459 111.767C43.5759 108.737 41.9959 105.187 40.7859 101.317C38.3559 93.5866 37.4059 84.5666 38.4159 76.4366C38.8959 72.3566 39.7959 68.4966 40.9559 65.0766C42.1159 61.6566 43.5359 58.6766 44.9259 56.2566C47.0559 52.6266 49.3759 49.7866 51.6659 47.6066C52.2159 47.0366 52.8259 46.5666 53.3659 46.0766C53.6459 45.8366 53.9159 45.5966 54.1859 45.3666C54.4759 45.1466 54.7559 44.9366 55.0359 44.7366C56.1459 43.9066 57.1659 43.1167 58.1859 42.5167C62.1959 39.9567 65.2359 38.7166 67.5759 37.9566C68.0159 37.8066 68.4559 37.6667 68.8959 37.5167L69.5458 37.2966L70.2059 37.1466C71.0859 36.9366 71.9559 36.7367 72.8159 36.5367C74.5559 36.3167 76.2459 35.9866 77.9159 36.0066C79.5859 35.8666 81.2058 36.0666 82.7958 36.1466C83.5858 36.2266 84.3559 36.4067 85.1259 36.5167C85.8959 36.6367 86.6659 36.7566 87.3859 36.9966C93.3159 38.5466 98.3759 41.5066 102.706 45.1767L102.756 45.1967Z" fill="#101214"/>
<path d="M45.9459 153.317C43.2359 151.667 41.2659 150.297 39.7559 149.637C38.2659 148.947 37.3359 148.807 37.0359 149.167C36.7359 149.527 37.0859 150.377 38.1459 151.667C39.2259 152.927 40.9159 154.767 43.6359 156.647C44.5859 157.327 45.5359 158.017 46.4959 158.707C47.4659 159.377 48.4959 159.977 49.5059 160.617C50.5259 161.237 51.5359 161.897 52.5759 162.497C53.6459 163.057 54.7359 163.627 55.8159 164.197C57.9559 165.407 60.3159 166.267 62.6459 167.287C63.8159 167.797 65.0659 168.127 66.2959 168.557C67.5359 168.947 68.7659 169.417 70.0659 169.687C71.3559 169.997 72.6659 170.297 73.9859 170.617C75.3159 170.877 76.6859 171.037 78.0559 171.247C78.7459 171.337 79.4359 171.467 80.1359 171.527C80.8359 171.567 81.5459 171.617 82.2559 171.657C83.6759 171.707 85.1159 171.897 86.5659 171.807C92.3959 171.877 98.4859 170.937 104.676 169.307C105.556 169.067 106.406 168.837 107.246 168.607C108.066 168.327 108.856 168.047 109.636 167.787C111.186 167.237 112.696 166.767 114.056 166.147C115.436 165.567 116.756 165.007 118.016 164.477C119.246 163.877 120.416 163.307 121.536 162.757C123.796 161.717 125.806 160.427 127.706 159.347C128.636 158.767 129.496 158.127 130.356 157.547C131.196 156.947 132.066 156.417 132.806 155.767C134.326 154.497 135.876 153.387 137.216 152.047C137.906 151.407 138.596 150.757 139.296 150.117C139.986 149.467 140.616 148.747 141.296 148.047C144.016 145.277 146.596 142.057 149.466 138.127C150.606 136.407 151.856 134.667 152.956 132.737C153.506 131.777 154.136 130.837 154.656 129.817C155.196 128.807 155.736 127.787 156.286 126.747C158.376 122.547 160.316 118.027 161.906 113.267C163.466 108.497 164.736 103.527 165.566 98.4867C165.756 97.2167 165.946 95.9567 166.126 94.6967C166.276 93.4267 166.356 92.1567 166.466 90.8967L166.626 89.0067C166.636 88.3767 166.656 87.7467 166.666 87.1167C166.676 85.8567 166.736 84.6067 166.716 83.3767C166.586 80.8967 166.556 78.4567 166.226 76.0767C166.076 74.8967 166.016 73.7067 165.786 72.5567C165.586 71.4067 165.386 70.2767 165.186 69.1567C165.026 68.0267 164.686 66.9667 164.456 65.8867C164.186 64.8267 163.986 63.7567 163.656 62.7567C163.006 60.7467 162.506 58.7767 161.776 56.9967C159.116 49.7667 156.126 44.4567 154.356 41.5767C153.866 40.7067 153.306 39.8667 152.736 39.0467L151.016 36.5767C148.846 33.7367 144.776 28.4767 138.326 22.5867C137.926 22.2167 137.516 21.8367 137.106 21.4567C136.676 21.0967 136.236 20.7267 135.796 20.3567C134.906 19.6167 133.996 18.8567 133.056 18.0767C131.096 16.6267 129.096 15.0367 126.836 13.6067C122.396 10.6667 117.346 7.81667 111.686 5.58667C106.036 3.32667 99.8259 1.58667 93.2759 0.696674C86.7359 -0.203326 79.8659 -0.243326 73.0359 0.646674C71.3459 0.936674 69.6459 1.22667 67.9359 1.51667C66.2359 1.81667 64.5759 2.31667 62.8959 2.70667C61.1959 3.07667 59.5959 3.66667 57.9559 4.17667C56.3259 4.71667 54.6859 5.21667 53.0759 5.77667C51.4859 6.41667 49.8959 7.06667 48.3059 7.70667C47.5159 8.03667 46.7159 8.33667 45.9359 8.68667L43.6359 9.82667C42.1059 10.5967 40.5559 11.3167 39.0659 12.1267C37.6059 12.9967 36.1459 13.8767 34.6959 14.7367C26.6159 19.8467 20.1859 25.9067 15.4059 32.1167C10.6059 38.3267 7.41587 44.6167 5.20587 50.3467C2.92587 56.0767 1.91587 61.3367 1.07587 65.8067C0.80587 68.0667 0.45587 70.1267 0.33587 72.0267C0.22587 73.9267 0.0858703 75.6367 0.0358703 77.1767C-0.17413 84.4467 0.55587 91.2467 1.75587 97.5567C2.97587 103.867 4.70587 109.717 6.78587 115.157C8.89587 120.587 11.4259 125.607 14.2859 130.257C17.1559 134.907 20.3759 139.207 24.1759 142.987C26.2959 145.037 28.0659 146.377 29.4459 147.007C30.7859 147.677 31.5859 147.797 31.8259 147.467C32.0659 147.137 31.7559 146.367 30.8959 145.237C29.9959 144.147 28.6659 142.537 26.8159 140.517C23.4759 136.767 20.6559 132.537 18.1359 127.997C15.6359 123.457 13.4059 118.607 11.5459 113.387C9.71587 108.147 8.19587 102.567 7.12587 96.5667C6.06587 90.5767 5.43587 84.1567 5.64587 77.3267C5.68587 76.0067 5.82587 74.5067 5.94587 72.8267C5.97587 72.4067 6.00587 71.9767 6.05587 71.5367C6.11587 71.0967 6.18587 70.6567 6.25587 70.1967C6.39587 69.2867 6.53587 68.3267 6.67587 67.3267C6.78587 66.3267 7.06587 65.3067 7.29587 64.2367C7.53587 63.1767 7.75587 62.0667 8.04587 60.9267C8.75587 58.6967 9.33587 56.2567 10.3759 53.8067C11.2459 51.2967 12.5259 48.7967 13.7959 46.1267C14.5359 44.8567 15.3059 43.5467 16.0859 42.2067C16.4459 41.5167 16.9359 40.8967 17.3859 40.2467C17.8359 39.5967 18.3059 38.9367 18.7659 38.2767C22.5959 33.0467 27.5659 27.9067 33.7459 23.3767L36.7859 21.1767C37.8359 20.4967 38.9159 19.8667 39.9759 19.1967C41.0559 18.5567 42.0759 17.8267 43.1859 17.2567C44.2959 16.6767 45.4059 16.0867 46.5159 15.5067C48.8559 14.1467 51.4659 13.1967 54.0159 12.0467C55.2859 11.4567 56.6359 11.0167 57.9759 10.5567C59.3159 10.0967 60.6659 9.62667 62.0259 9.16667C67.4559 7.50667 73.0759 6.30667 78.7259 5.89667C84.3659 5.52667 89.9759 5.83667 95.2959 6.73667C96.6159 6.99667 97.9259 7.25667 99.2259 7.51667C100.506 7.86667 101.766 8.20667 103.006 8.54667C104.266 8.84667 105.446 9.34667 106.636 9.73667C107.226 9.94667 107.816 10.1467 108.406 10.3567C108.986 10.5667 109.546 10.8367 110.106 11.0667C114.636 12.8567 118.576 15.1667 122.046 17.2867C125.456 19.5167 128.356 21.6567 130.636 23.5867C131.766 24.5667 132.826 25.3967 133.666 26.2167C134.516 27.0267 135.246 27.7167 135.836 28.2767C136.436 28.8267 136.876 29.2767 137.166 29.5967C137.456 29.9067 137.616 30.0667 137.616 30.0667C137.616 30.0667 138.546 31.0067 140.166 32.7467C140.946 33.6467 141.896 34.7467 142.996 36.0167C144.016 37.3567 145.246 38.8267 146.466 40.5567C148.956 43.9767 151.586 48.2767 153.986 53.2767C156.376 58.2767 158.466 64.0367 159.776 70.2567C161.106 76.4667 161.656 83.1267 161.296 89.7667C160.966 96.4067 159.716 103.037 157.886 109.237C156.066 115.447 153.666 121.217 150.996 126.267C148.326 131.317 145.406 135.647 142.646 139.107C138.496 144.337 134.196 148.277 130.146 151.277C126.066 154.277 122.366 156.407 118.876 157.977C111.996 161.227 107.036 162.887 103.216 163.857C91.6759 167.057 80.8459 166.867 71.3059 164.637C70.0959 164.427 68.9459 164.017 67.7859 163.687C66.6359 163.317 65.4659 163.057 64.3559 162.617C62.1559 161.727 59.9159 161.017 57.8459 159.947C56.7959 159.457 55.7559 158.967 54.7159 158.477C53.6959 157.947 52.7159 157.367 51.7159 156.817C50.7259 156.247 49.7159 155.737 48.7559 155.137C47.8059 154.527 46.8559 153.917 45.9159 153.307L45.9459 153.317Z" fill="#101214"/>
</svg>
