<svg width="170" height="198" viewBox="0 0 170 198" fill="none" xmlns="http://www.w3.org/2000/svg">
<path d="M4.03044 46.9801C3.11044 42.5101 -0.20956 42.9301 0.0104398 47.4901C0.33044 53.9601 0.91044 60.7201 1.98044 69.3701C3.37044 79.1601 4.37044 81.5101 5.13044 88.1601C5.49044 90.9701 5.84044 94.2601 6.19044 97.7001C6.35044 99.4201 6.52044 101.17 6.69044 102.92C6.77044 103.79 6.85044 104.66 6.93044 105.53L6.99044 106.18C6.99044 106.24 6.99044 106.24 6.99044 106.27C6.99044 106.16 6.99044 106.4 6.99044 106.48C6.98044 106.93 6.97044 107.39 6.96044 107.84C6.84044 115.07 8.52044 121.22 9.14044 123.53C9.32044 124.23 9.55044 124.9 9.82044 125.57C10.2704 126.77 11.1804 128.94 12.4904 131.72C13.8104 134.5 15.5504 137.85 17.5804 141.51C19.6104 145.18 21.9904 149.2 24.7604 153.17C27.5404 157.13 30.7304 161.01 34.2704 164.36C36.7904 166.7 39.3004 168.58 41.6704 170.11C41.9704 170.3 42.2604 170.48 42.5504 170.66L42.9804 170.93C43.0404 170.97 42.9504 170.91 43.1304 171.04C43.6304 171.41 44.1304 171.77 44.6004 172.12C45.5504 172.82 46.4504 173.47 47.2904 174.09C50.6504 176.55 53.1204 178.35 54.8104 179.59C62.8304 185.43 69.0104 189.54 75.2604 193.33C78.6904 195.41 80.4104 193.06 77.3904 190.42C71.8904 185.61 66.1104 180.95 58.1304 175.06C56.5804 173.92 54.3004 172 51.2704 169.52C50.5104 168.9 49.7104 168.25 48.8604 167.55C48.4304 167.21 48.0004 166.85 47.5504 166.49C47.3304 166.31 47.1004 166.13 46.8704 165.94C46.7904 165.88 46.5404 165.68 46.2604 165.51L45.9204 165.27C44.0404 164.05 42.1204 162.52 40.1304 160.79C39.4804 160.23 38.8304 159.65 38.2004 159.07C37.5404 158.51 36.9204 157.91 36.2704 157.33C33.4804 154.84 30.8504 151.69 28.5104 148.42C26.1704 145.14 24.1604 141.71 22.4804 138.64C19.0704 132.47 17.2004 127.84 17.2004 127.84C17.2004 127.84 16.4304 126.14 15.4304 123.35C14.4204 120.57 13.2504 116.67 12.6604 112.31C12.5404 111.22 12.4104 110.11 12.3604 108.98C12.3104 108.42 12.3004 107.85 12.3004 107.28V106.42L12.2804 106.08C12.2804 105.95 12.2804 105.82 12.2504 105.69L12.1904 105.19C11.8904 102.78 11.5804 100.37 11.2904 98.0401C10.7004 93.3901 10.1604 89.0801 9.76044 85.8701C8.53044 76.2101 7.94044 71.5601 7.58044 68.7101C6.47044 60.0601 5.35044 53.3701 4.05044 47.0201L4.03044 46.9801Z" fill="#101214"/>
<path d="M158.5 38.56C163.1 38.62 163.27 35.28 158.89 34.53C152.66 33.42 146.19 32.22 138.08 29.99C133.48 28.77 130.6 27.98 128.1 27.21C125.61 26.45 123.49 25.74 120.55 24.33C115.55 22.03 109.19 18.2 103.81 14.36C102.46 13.4 101.18 12.44 99.9704 11.55C98.7504 10.63 97.6104 9.76 96.5804 8.98C94.5204 7.4 92.9004 6.16 91.9904 5.47C91.4604 5.06 90.9004 4.67 90.3404 4.3C90.1004 4.14 89.8104 3.95 89.1804 3.53C88.1704 2.84 86.6004 1.77 84.0204 0C81.8804 1.54 76.4904 5.4 69.7604 10.23C68.2804 11.32 66.8004 12.22 65.2404 13.22C64.4804 13.74 63.6404 14.18 62.7904 14.64C61.9404 15.1 61.0904 15.56 60.2304 16.02C58.4804 16.91 56.6404 17.72 54.8304 18.57C52.9704 19.33 51.1104 20.09 49.2904 20.84C37.4604 25.43 29.8004 27.57 25.8704 28.79C16.5104 31.53 9.51044 33.66 2.66044 35.89C-1.08956 37.09 -0.509562 39.94 3.46044 39.41C10.6704 38.4 17.9304 36.92 27.4504 34.18C31.1304 33.06 39.0804 31.63 49.8304 27.68C51.5904 27.06 53.2904 26.27 54.9504 25.44C55.8104 25 56.6904 24.59 57.5704 24.13C58.4504 23.66 59.3404 23.19 60.2304 22.72C61.1204 22.24 62.0404 21.81 62.9204 21.28C63.8104 20.77 64.7004 20.25 65.5804 19.74C67.3704 18.79 69.0404 17.56 70.7004 16.51C72.3404 15.43 73.7504 14.35 75.1804 13.37C77.9804 11.39 80.4404 9.69 82.2604 8.45C82.7104 8.15 83.1104 7.87 83.4704 7.62C83.5704 7.55 83.6604 7.49 83.7404 7.44C83.8904 7.35 83.9804 7.29 84.0104 7.27C84.1204 7.35 84.1304 7.35 84.1304 7.35C84.1304 7.35 89.8704 11.32 96.8204 16.12C100.65 18.76 104.94 21.49 109.05 23.84C113.14 26.22 117.12 28.12 120.09 29.49C129.14 33.46 133.8 34.6 136.59 35.42C145.14 37.72 152.01 38.43 158.5 38.58V38.56Z" fill="#101214"/>
<path d="M86.2904 192.78C82.5504 195.9 84.5004 198.62 88.6504 196.07C94.5404 192.46 100.57 188.45 108.15 183.04C116.63 176.76 118.35 174.67 124.21 170.56L124.64 170.25L124.77 170.17L125.03 170.01C125.37 169.79 125.72 169.57 126.08 169.35C126.79 168.91 127.53 168.45 128.28 167.98C129.76 166.99 131.27 165.9 132.82 164.79C135.82 162.44 138.88 159.89 141.47 157.18C146.78 151.86 150.48 146.32 151.87 144.16C152.31 143.54 152.64 142.85 152.99 142.17C153.29 141.56 153.72 140.69 154.26 139.6C154.77 138.5 155.3 137.13 155.95 135.61C156.6 134.08 157.13 132.29 157.82 130.38C158.11 129.41 158.38 128.39 158.67 127.35C158.97 126.31 159.27 125.23 159.48 124.09C160.57 119.62 161.13 114.56 161.33 109.38C161.34 108.73 161.35 108.08 161.37 107.43L161.39 106.45C161.39 106.19 161.39 106.36 161.39 106.3L161.44 105.99L162.02 102.26C162.42 99.78 162.82 97.3 163.22 94.87C164.27 88.01 165.13 82.45 165.8 78.06C166.16 75.87 166.39 73.95 166.6 72.31C166.81 70.67 166.98 69.3 167.13 68.19C168.46 57.67 169.13 49.77 169.49 41.97C169.69 37.69 166.8 37.32 165.91 41.51C164.29 49.13 162.94 56.93 161.57 67.42C161.28 69.46 160.75 72.58 159.91 76.67C159.06 80.76 158.04 85.82 157.05 91.79C156.73 93.73 156.48 95.69 156.31 97.63C156.12 99.73 155.9 101.91 155.66 104.11L155.57 104.94L155.52 105.35C155.49 105.57 155.45 105.85 155.47 106.1L155.49 107.85C155.49 108.92 155.55 109.99 155.5 111.06C155.36 113.18 155.29 115.29 154.95 117.3C154.79 118.3 154.71 119.3 154.5 120.25C154.3 121.2 154.1 122.13 153.91 123.02C153.74 123.92 153.49 124.77 153.25 125.58C153.01 126.39 152.79 127.17 152.58 127.9C152.13 129.36 151.61 130.6 151.24 131.66C150.88 132.72 150.47 133.51 150.23 134.07C149.98 134.63 149.84 134.93 149.84 134.93C149.84 134.93 149.64 135.38 149.28 136.19C148.94 137.01 148.29 138.12 147.58 139.54C147.4 139.89 147.21 140.26 147.01 140.64C146.79 141.01 146.55 141.39 146.31 141.79C145.83 142.58 145.32 143.43 144.78 144.32C144.2 145.19 143.56 146.07 142.92 147C142.3 147.94 141.57 148.85 140.81 149.78C137.85 153.52 134.23 157.28 130.45 160.28C129.55 161.09 128.56 161.75 127.65 162.44C126.72 163.12 125.84 163.8 124.92 164.35C124.02 164.92 123.16 165.47 122.35 165.99C121.66 166.42 121.4 166.65 120.99 166.93C120.61 167.2 120.25 167.46 119.89 167.72C111.45 173.79 107.39 176.71 104.9 178.5C97.3504 183.94 91.6304 188.38 86.3204 192.8L86.2904 192.78Z" fill="#101214"/>
<path d="M87.5404 50.11C87.1904 47.63 83.8404 47.63 83.4904 50.11C82.9904 53.63 82.7304 57.33 82.7104 62.09C82.8704 67.48 83.5604 68.82 83.4804 72.48C83.4804 78.65 82.5504 89.06 82.3204 91.57C82.2904 91.94 82.2804 92.31 82.2904 92.68C82.4204 95.34 82.9204 107 82.6804 117.04C82.6804 124.13 82.7004 128.52 82.7004 130.81C82.7304 136.22 83.0704 140.27 83.7004 144.24C84.0504 146.42 86.9604 146.42 87.3104 144.24C87.9504 140.27 88.2904 136.22 88.3104 130.81C88.3104 128.71 89.1104 124.32 89.2504 118.14C89.2704 117.13 89.2204 116.12 89.0904 115.13C88.0004 106.5 88.3104 95.3 88.3104 95.3C88.3104 95.3 88.3204 78.59 88.3304 71.53C88.3304 66.22 88.3204 63.66 88.3104 62.09C88.2904 57.33 88.0204 53.63 87.5204 50.11H87.5404Z" fill="#101214"/>
<path d="M126.21 98.8199C128.35 98.4699 128.35 95.1199 126.21 94.7699C123.18 94.2699 119.99 94.0099 115.89 93.9899C111.25 94.1499 110.09 94.8399 106.95 94.7599C101.63 94.7599 92.6704 93.8299 90.5104 93.5999C90.1904 93.5699 89.8704 93.5599 89.5504 93.5699C87.2604 93.6999 77.2204 94.1999 68.5704 93.9599C62.4604 93.9599 58.6804 93.9799 56.7104 93.9799C52.0504 94.0099 48.5604 94.3499 45.1404 94.9799C43.2604 95.3299 43.2604 98.2399 45.1404 98.5899C48.5604 99.2299 52.0404 99.5699 56.7104 99.5899C58.5204 99.5899 62.3004 100.39 67.6204 100.53C68.4904 100.55 69.3604 100.5 70.2204 100.37C77.6504 99.2799 87.3004 99.5899 87.3004 99.5899C87.3004 99.5899 101.69 99.5999 107.77 99.6099C112.34 99.6099 114.55 99.5999 115.9 99.5899C120 99.5699 123.18 99.2999 126.22 98.7999L126.21 98.8199Z" fill="#101214"/>
</svg>
