<svg width="217" height="167" viewBox="0 0 217 167" fill="none" xmlns="http://www.w3.org/2000/svg">
<path d="M180.935 64.5149C181.525 68.9649 182.415 71.2149 183.365 71.1949C184.265 71.1849 185.225 68.8249 184.965 64.1249C184.745 60.8049 184.415 57.4249 183.685 54.0049C183.055 50.5649 182.125 47.0749 180.905 43.5249C178.415 36.4349 174.485 29.0749 168.345 22.1649C164.745 18.3749 161.485 15.6249 158.455 13.6049C157.705 13.0949 156.975 12.6149 156.285 12.1449C155.595 11.6649 154.865 11.3149 154.185 10.9249C153.505 10.5449 152.845 10.1749 152.195 9.82491C151.875 9.64491 151.555 9.47491 151.235 9.30491C150.905 9.15491 150.585 9.00491 150.265 8.86491C148.985 8.28491 147.755 7.71491 146.535 7.15491C145.275 6.67491 144.025 6.20491 142.735 5.71491C141.465 5.18491 140.085 4.82491 138.655 4.35491C137.935 4.12491 137.195 3.88491 136.425 3.64491C135.645 3.44491 134.845 3.23491 134.005 3.02491C131.175 2.23491 128.045 1.71491 124.765 1.12491C121.475 0.634914 117.995 0.294914 114.445 0.124914C107.345 -0.215086 99.915 0.134914 92.985 1.22491C86.055 2.33491 79.655 4.19491 74.565 6.25491C73.305 6.79491 72.085 7.25491 70.985 7.77491C69.895 8.32491 68.885 8.83491 67.955 9.30491C67.495 9.53491 67.045 9.76491 66.625 9.97491C66.225 10.2149 65.835 10.4449 65.475 10.6549C64.755 11.0849 64.135 11.4649 63.615 11.7749C63.005 12.1549 62.365 12.5049 61.785 12.9349L60.055 14.2449C59.545 14.6449 58.925 15.1249 58.205 15.6749C57.495 16.2349 56.745 16.9749 55.885 17.7349C54.125 19.2349 52.245 21.2949 50.145 23.6449C46.035 28.4349 41.755 35.1849 38.775 43.3649C35.775 51.5149 33.995 60.9949 33.835 70.6749C33.735 75.5149 33.955 80.4149 34.565 85.2849C34.885 87.7149 35.235 90.1449 35.815 92.5249C36.085 93.7149 36.355 94.9049 36.625 96.0849C36.915 97.2649 37.315 98.4149 37.645 99.5749C39.705 106.075 42.455 111.695 45.495 116.395C47.125 118.675 48.595 120.875 50.285 122.725C51.845 124.675 53.565 126.285 55.125 127.835C55.505 128.235 55.905 128.595 56.325 128.925C56.735 129.265 57.135 129.605 57.525 129.935C58.315 130.595 59.065 131.245 59.815 131.835C61.375 132.935 62.805 133.985 64.165 134.895C65.565 135.735 66.855 136.495 68.025 137.195C69.215 137.865 70.335 138.375 71.315 138.875C71.895 139.165 72.475 139.455 73.055 139.735C73.645 139.995 74.235 140.225 74.815 140.465C75.985 140.935 77.135 141.395 78.275 141.855C79.435 142.225 80.585 142.595 81.715 142.955C82.275 143.135 82.845 143.315 83.395 143.485C83.965 143.625 84.525 143.765 85.085 143.895C86.205 144.165 87.305 144.435 88.395 144.695C89.485 144.945 90.575 145.085 91.655 145.285C92.725 145.465 93.785 145.655 94.835 145.805C95.885 145.945 96.925 146.055 97.965 146.155C106.235 146.915 113.835 146.585 121.235 145.475C125.305 144.835 127.175 143.605 127.025 142.825C126.875 142.005 124.785 141.615 120.835 141.885C113.645 142.335 106.335 142.165 98.535 141.115C97.565 140.985 96.575 140.835 95.585 140.665C94.595 140.495 93.605 140.265 92.605 140.075C91.605 139.865 90.575 139.695 89.565 139.435C88.555 139.165 87.525 138.895 86.485 138.615C85.965 138.475 85.445 138.345 84.915 138.205C84.395 138.035 83.885 137.855 83.355 137.675C82.305 137.325 81.245 136.965 80.175 136.605C79.125 136.175 78.065 135.735 76.985 135.295C76.445 135.065 75.895 134.855 75.355 134.615C74.825 134.345 74.295 134.085 73.755 133.815C72.925 133.395 71.965 132.925 70.935 132.355C69.935 131.725 68.835 131.035 67.635 130.275C66.435 129.515 65.255 128.515 63.925 127.545C63.245 127.075 62.635 126.475 61.975 125.895C61.315 125.315 60.645 124.705 59.945 124.085C57.325 121.425 54.445 118.385 51.955 114.515C49.405 110.715 46.975 106.305 45.145 101.205C43.895 97.9049 42.865 94.5149 42.005 91.0949C40.055 83.7249 39.375 75.3449 39.725 67.2549C39.915 63.2149 40.365 59.2249 41.195 55.4749C41.395 54.5349 41.515 53.5849 41.785 52.6849C42.035 51.7749 42.275 50.8849 42.525 50.0049C42.955 48.2149 43.635 46.5649 44.205 44.9449C46.625 38.4849 49.855 33.4749 52.365 30.1449C53.025 29.3349 53.615 28.6049 54.135 27.9649C54.395 27.6449 54.635 27.3549 54.855 27.0849C55.095 26.8349 55.315 26.6049 55.515 26.3949C56.305 25.5749 56.735 25.1349 56.735 25.1349C56.735 25.1349 56.895 24.9649 57.195 24.6549C57.515 24.3549 57.905 23.8349 58.545 23.3049C59.805 22.2149 61.525 20.5249 63.945 18.8149C68.695 15.3049 75.895 11.1349 84.615 8.67491C85.705 8.36491 86.805 8.05491 87.905 7.74491C89.025 7.47491 90.165 7.25491 91.315 7.00491C93.595 6.47491 95.945 6.11491 98.295 5.81491C103.015 5.22491 107.795 4.99491 112.405 5.06491C121.625 5.17491 130.025 6.78491 136.025 8.61491C145.075 11.4149 151.165 15.0149 155.425 18.1349C155.955 18.5249 156.495 18.8649 156.975 19.2549C157.445 19.6449 157.895 20.0249 158.325 20.3949C159.175 21.1349 160.015 21.7649 160.695 22.4349C162.035 23.8049 163.235 24.8849 164.135 25.9249C169.725 32.1949 173.445 38.8249 175.995 45.3149C177.245 48.5749 178.275 51.7849 179.045 54.9949C179.915 58.1749 180.435 61.3549 180.895 64.5049L180.935 64.5149Z" fill="#101214"/>
<path d="M4.065 142.515C-1.355 142.865 -1.355 146.215 4.065 146.565C11.755 147.065 19.835 147.325 30.215 147.345C41.985 147.185 44.915 146.495 52.885 146.575C66.355 146.575 89.095 147.505 94.565 147.735C95.375 147.765 96.185 147.775 96.995 147.755C102.795 147.625 128.245 147.125 150.165 147.365C165.645 147.365 175.225 147.345 180.225 147.345C192.045 147.325 200.875 146.975 209.545 146.345C214.305 145.995 214.305 143.085 209.545 142.735C200.875 142.095 192.045 141.755 180.225 141.735C175.635 141.735 166.065 140.935 152.555 140.795C150.355 140.775 148.155 140.825 145.975 140.955C127.145 142.045 102.695 141.735 102.695 141.735C102.695 141.735 66.205 141.725 50.805 141.715C39.205 141.715 33.625 141.725 30.195 141.735C19.815 141.755 11.735 142.025 4.045 142.525L4.065 142.515Z" fill="#101214"/>
<path d="M188.505 121.775C186.915 120.785 184.615 123.225 185.775 124.765C187.415 126.935 189.345 129.005 192.115 131.345C195.385 133.845 196.625 133.915 198.765 135.675C202.445 138.535 208.455 143.845 209.335 145.045C209.415 145.135 209.485 145.215 209.565 145.295L209.685 145.405C209.685 145.405 209.725 145.435 209.745 145.445C209.765 145.455 209.825 145.495 209.835 145.495C209.835 145.495 209.855 145.485 209.875 145.485C209.905 145.485 209.945 145.485 209.985 145.505C210.025 145.525 210.055 145.575 210.055 145.635C210.055 145.665 210.055 145.695 210.035 145.725C210.035 145.735 210.035 145.725 210.015 145.755L209.895 145.865C209.835 145.925 209.705 146.035 209.565 146.145C208.465 147.035 206.925 148.015 205.325 148.965C203.715 149.925 202.005 150.865 200.335 151.745C195.705 154.375 192.835 156.065 191.355 156.945C187.845 159.045 185.415 160.945 183.215 163.065C182.005 164.235 183.565 166.695 185.125 166.125C187.975 165.095 190.725 163.815 194.205 161.775C195.555 160.975 198.775 160.025 202.865 157.865C203.535 157.515 204.165 157.095 204.755 156.615C207.315 154.515 210.455 152.615 213.065 150.615C213.225 150.495 213.395 150.355 213.585 150.195C213.775 150.035 213.935 149.905 214.155 149.685C214.575 149.295 214.935 148.885 215.245 148.485C215.845 147.665 216.145 146.825 216.235 146.105C216.325 145.385 216.235 144.795 216.125 144.415C216.045 144.025 215.925 143.835 215.945 143.835C215.945 143.835 215.845 143.525 215.545 143.015C215.385 142.765 215.185 142.455 214.905 142.125C214.765 141.965 214.615 141.785 214.455 141.605C214.305 141.445 214.145 141.285 213.975 141.115C212.845 140.035 211.445 138.975 209.885 137.825C206.785 135.565 203.245 132.985 201.185 131.365C198.075 128.965 196.625 127.745 195.725 127.005C193.005 124.765 190.785 123.155 188.515 121.755L188.505 121.775Z" fill="#101214"/>
</svg>
