<svg width="191" height="243" viewBox="0 0 191 243" fill="none" xmlns="http://www.w3.org/2000/svg">
<path d="M36.36 239.94C36.04 241.64 39.13 242.92 40.1 241.48C41.48 239.45 42.69 237.21 43.95 234.22C45.21 230.76 44.92 229.65 45.94 227.37C47.54 223.47 51.12 217.26 51.99 215.76C52.12 215.54 52.22 215.31 52.3 215.07C52.88 213.34 55.44 205.79 58.28 199.55C60.12 195.07 61.26 192.3 61.85 190.85C63.24 187.42 63.98 184.74 64.42 181.99C64.67 180.48 61.97 179.37 61.08 180.61C59.46 182.87 58.09 185.3 56.65 188.7C56.1 190.03 54.22 192.49 52.48 196.34C52.2 196.97 51.98 197.62 51.84 198.3C50.6 204.16 47.4 211.11 47.4 211.11C47.4 211.11 43.04 221.65 41.19 226.1C39.81 229.46 39.15 231.07 38.75 232.06C37.53 235.07 36.81 237.51 36.35 239.92L36.36 239.94Z" fill="#101214"/>
<path d="M94.6 181.16C94.25 179.84 90.9 179.84 90.55 181.16C90.05 183.04 89.79 185 89.77 187.54C89.93 190.41 90.62 191.12 90.54 193.07C90.54 196.36 89.61 201.9 89.38 203.23C89.35 203.43 89.34 203.63 89.35 203.82C89.48 205.24 89.98 211.44 89.74 216.79C89.74 220.56 89.76 222.9 89.76 224.12C89.79 227 90.13 229.16 90.76 231.27C91.11 232.43 94.02 232.43 94.37 231.27C95.01 229.16 95.35 227 95.37 224.12C95.37 223 96.17 220.67 96.31 217.37C96.33 216.83 96.28 216.3 96.15 215.77C95.06 211.18 95.37 205.22 95.37 205.22C95.37 205.22 95.38 196.32 95.39 192.57C95.39 189.74 95.38 188.38 95.37 187.55C95.35 185.02 95.08 183.05 94.58 181.17L94.6 181.16Z" fill="#101214"/>
<path d="M145.36 241.28C146.33 242.71 149.42 241.44 149.1 239.74C148.64 237.33 147.92 234.89 146.7 231.88C145.15 228.54 144.16 227.96 143.28 225.62C141.67 221.73 139.82 214.8 139.38 213.13C139.32 212.88 139.23 212.65 139.11 212.42C138.3 210.79 134.79 203.63 132.4 197.2C130.54 192.73 129.39 189.96 128.79 188.52C127.36 185.11 125.99 182.69 124.36 180.43C123.47 179.19 120.78 180.3 121.02 181.81C121.47 184.56 122.2 187.24 123.59 190.67C124.14 192 124.54 195.07 126.02 199.03C126.26 199.67 126.58 200.29 126.95 200.87C130.2 205.9 132.84 213.08 132.84 213.08C132.84 213.08 137.18 223.63 139.02 228.09C140.41 231.44 141.08 233.05 141.49 234.04C142.75 237.03 143.96 239.27 145.34 241.3L145.36 241.28Z" fill="#101214"/>
<path d="M36.36 239.94C36.04 241.64 39.13 242.92 40.1 241.48C41.48 239.45 42.69 237.21 43.95 234.22C45.21 230.76 44.92 229.65 45.94 227.37C47.54 223.47 51.12 217.26 51.99 215.76C52.12 215.54 52.22 215.31 52.3 215.07C52.88 213.34 55.44 205.79 58.28 199.55C60.12 195.07 61.26 192.3 61.85 190.85C63.24 187.42 63.98 184.74 64.42 181.99C64.67 180.48 61.97 179.37 61.08 180.61C59.46 182.87 58.09 185.3 56.65 188.7C56.1 190.03 54.22 192.49 52.48 196.34C52.2 196.97 51.98 197.62 51.84 198.3C50.6 204.16 47.4 211.11 47.4 211.11C47.4 211.11 43.04 221.65 41.19 226.1C39.81 229.46 39.15 231.07 38.75 232.06C37.53 235.07 36.81 237.51 36.35 239.92L36.36 239.94Z" fill="#101214"/>
<path d="M94.6 181.16C94.25 179.84 90.9 179.84 90.55 181.16C90.05 183.04 89.79 185 89.77 187.54C89.93 190.41 90.62 191.12 90.54 193.07C90.54 196.36 89.61 201.9 89.38 203.23C89.35 203.43 89.34 203.63 89.35 203.82C89.48 205.24 89.98 211.44 89.74 216.79C89.74 220.56 89.76 222.9 89.76 224.12C89.79 227 90.13 229.16 90.76 231.27C91.11 232.43 94.02 232.43 94.37 231.27C95.01 229.16 95.35 227 95.37 224.12C95.37 223 96.17 220.67 96.31 217.37C96.33 216.83 96.28 216.3 96.15 215.77C95.06 211.18 95.37 205.22 95.37 205.22C95.37 205.22 95.38 196.32 95.39 192.57C95.39 189.74 95.38 188.38 95.37 187.55C95.35 185.02 95.08 183.05 94.58 181.17L94.6 181.16Z" fill="#101214"/>
<path d="M145.36 241.28C146.33 242.71 149.42 241.44 149.1 239.74C148.64 237.33 147.92 234.89 146.7 231.88C145.15 228.54 144.16 227.96 143.28 225.62C141.67 221.73 139.82 214.8 139.38 213.13C139.32 212.88 139.23 212.65 139.11 212.42C138.3 210.79 134.79 203.63 132.4 197.2C130.54 192.73 129.39 189.96 128.79 188.52C127.36 185.11 125.99 182.69 124.36 180.43C123.47 179.19 120.78 180.3 121.02 181.81C121.47 184.56 122.2 187.24 123.59 190.67C124.14 192 124.54 195.07 126.02 199.03C126.26 199.67 126.58 200.29 126.95 200.87C130.2 205.9 132.84 213.08 132.84 213.08C132.84 213.08 137.18 223.63 139.02 228.09C140.41 231.44 141.08 233.05 141.49 234.04C142.75 237.03 143.96 239.27 145.34 241.3L145.36 241.28Z" fill="#101214"/>
<path d="M90.98 153.54C97.91 149.75 96.44 146.75 89.2 149.91C78.94 154.39 68.27 159.32 54.69 165.95C50.97 167.82 47.94 169.38 45.36 170.73C45.06 170.89 44.77 171.04 44.49 171.19L44.32 171.31C44.19 171.4 44.07 171.48 43.96 171.56C43.66 171.76 43.38 171.95 43.11 172.13C43.09 171.9 43.09 171.64 43.09 171.33V170.84L43.11 170.57V170.4L43.17 169.96C43.45 167.61 43.77 165.13 44.21 162.18C45.23 155.01 46.64 146.04 48.02 137.54C49.54 128.45 50.98 119.84 51.93 114.16C50.89 113.06 49.92 112.04 49 111.07C48.42 110.45 47.89 109.88 47.39 109.34C46.39 108.26 45.53 107.34 44.79 106.55C43.32 104.95 42.33 103.87 41.62 103.1C40.82 102.23 40.01 101.38 39.17 100.54C37.44 98.8 34.02 95.35 28.78 90.08C26.17 87.43 23.11 84.33 19.59 80.75C17.83 78.96 15.96 77.05 13.96 75.02C13.46 74.51 12.96 74 12.44 73.47L12.23 73.25L12.19 73.21L12.1 73.13C11.97 73.01 11.84 72.89 11.71 72.76C11.8 72.72 11.99 72.67 12.26 72.61C14.11 72.28 16.31 71.89 18.74 71.46C24.5 70.48 31.31 69.31 37.9 68.18L68.52 62.83L75.85 48.97C83.87 33.76 89.58 22.25 94.91 10.8C97.84 4.51003 95.27 3.15003 91.72 9.11003C85.26 19.96 78.95 31.16 70.88 46.34C70.15 47.71 69.21 49.4 68.05 51.45C67.47 52.47 66.83 53.59 66.15 54.79C65.81 55.39 65.45 56.02 65.08 56.67L64.8 57.16C64.75 57.25 64.75 57.23 64.72 57.27L64.6 57.42C64.96 57.3 62.43 57.68 60.65 57.93C58.73 58.21 56.69 58.51 54.53 58.83C50.21 59.48 45.41 60.23 40.22 61.09C37.06 61.62 33.92 62.22 30.81 62.89C26.64 63.79 22.28 64.69 17.9 65.56C15.69 65.99 13.48 66.43 11.3 66.86C7.48 67.56 3.69 68.26 0 68.94C4.7 73.72 9.23 78.33 13.38 82.55C16.42 85.67 19.19 88.51 21.52 90.9C26.16 95.72 29.09 98.76 29.09 98.76L45.89 116.1L38.99 164.45L36.63 181.04L57.17 170.96C70.72 164.29 81.16 158.88 90.99 153.51L90.98 153.54Z" fill="#101214"/>
<path d="M128.33 58.9701C123.61 58.5001 123.03 61.8001 127.64 62.9601C134.17 64.6001 141.07 66.0701 149.99 67.6501C160.14 69.2601 162.78 69.0101 169.62 70.2901C171.83 70.6701 174.31 71.1401 176.95 71.6601C177.55 71.7801 178.16 71.9001 178.78 72.0301C178.97 72.0801 179.17 72.1301 179.36 72.1901C179.73 72.2901 180.05 72.3901 180.32 72.4801C179.78 72.9301 179.33 73.2801 179 73.5001C177.49 74.9401 176.04 76.3101 174.73 77.5601C172.06 80.0701 169.93 82.0801 168.85 83.0901C168.33 83.5701 167.83 84.0801 167.35 84.6001C165.89 86.1701 162.32 90.0001 157.55 95.1101C155.14 97.6501 152.43 100.51 149.53 103.57C146.28 106.95 142.81 110.54 139.25 114.23C139.44 115.63 139.92 119.21 140.4 122.7C142.32 136.07 143.5 144.35 144.12 148.68C145.6 158.89 147.03 166.47 148.72 173.87C149.65 177.94 152.53 177.53 152.29 173.36C151.85 165.78 151.1 158.1 149.67 147.88C149.11 143.91 148.72 135.53 147.2 123.84C146.95 121.94 146.63 120.04 146.23 118.17C146.12 117.63 146.01 117.09 145.89 116.54C145.84 116.44 145.81 116.43 145.77 116.34C145.77 116.29 145.79 116.24 145.82 116.18C145.76 116.22 146.04 115.92 146.18 115.76L146.68 115.2C147.35 114.45 148.02 113.7 148.69 112.95C150.05 111.46 151.41 109.97 152.75 108.5C155.44 105.59 158.05 102.83 160.34 100.44C164.92 95.6601 168.21 92.3601 168.21 92.3601L190.82 69.0601L168.68 65.1901C158.71 63.4601 153.91 62.6301 150.96 62.1201C142.03 60.5901 135.03 59.6401 128.34 58.9701H128.33Z" fill="#101214"/>
<path d="M90.05 154C98.22 149.6 96.75 146.6 88.27 150.37C76.25 155.71 63.73 161.55 47.78 169.35C46.71 169.89 45.7 170.4 44.74 170.88L44.42 171.04L44.38 171.07L44.29 171.13C44.23 171.17 44.17 171.21 44.11 171.24C43.88 171.39 43.64 171.55 43.46 171.68C43.46 171.43 43.46 171.19 43.46 170.97C43.46 170.83 43.46 170.7 43.46 170.56C43.53 169.96 43.59 169.39 43.65 168.82C43.92 166.39 44.16 164.22 44.4 162.12C44.87 157.92 45.35 154 46.11 148.86C46.78 144.16 47.58 138.8 48.45 133.15C49.4 127.08 50.4 120.69 51.39 114.37C50.38 113.31 49.38 112.24 48.38 111.19C47.68 110.44 46.99 109.7 46.3 108.97C44.93 107.5 43.57 106.04 42.25 104.63C39.61 101.79 37.11 99.1 34.84 96.65C30.31 91.75 26.71 87.86 24.84 85.84C23.9 84.82 22.94 83.82 21.96 82.84C21.19 82.06 20.12 80.98 18.01 78.84C16.96 77.77 15.64 76.43 13.98 74.73C13.56 74.3 13.12 73.86 12.66 73.38C12.33 73.04 12.47 73.18 12.42 73.14L12.39 73.12C12.39 73.12 12.29 73.04 12.24 72.99C12.24 72.97 12.26 72.94 12.32 72.91C12.35 72.89 12.39 72.88 12.45 72.85C13.19 72.71 13.97 72.56 14.81 72.41C18.72 71.7 23.51 70.82 28.93 69.83C34.36 68.86 40.41 67.78 46.84 66.63C53.75 65.43 61.05 64.16 68.49 62.86C69.31 61.34 71.32 57.57 73.31 53.86C84.72 32.27 91.78 18.91 95.47 11.94C95.51 11.86 95.55 11.78 95.58 11.73C95.65 11.85 95.73 11.98 95.8 12.1L95.91 12.28L95.97 12.37L96.29 12.94C97.42 14.92 98.52 16.84 99.58 18.72C101.74 22.45 103.79 25.98 105.76 29.38C109.74 36.15 113.46 42.33 117.22 48.42C121.5 55.36 124.04 53.94 120.37 46.66C117.15 40.27 113.84 33.85 110.15 26.92C108.29 23.46 106.36 19.87 104.31 16.07C103.27 14.18 102.21 12.24 101.12 10.24C99.28 6.93 97.39 3.52 95.43 0C95.04 0.74 94.47 1.81 93.9 2.89C93.1 4.38 92.19 6.07 91.17 7.96C90.74 8.75 90.28 9.58 89.81 10.45C89.47 11.05 89.12 11.68 88.76 12.33C87.28 14.94 85.56 17.99 83.6 21.46C79.69 28.39 74.86 37 69.4 47.17C68.51 48.83 67.64 50.49 66.78 52.17L65.51 54.68C65.12 55.48 64.73 56.27 64.34 57.07C64.34 57.1 64.34 57.13 64.34 57.18C64.33 57.19 64.31 57.21 64.29 57.22L64.26 57.24L64.14 57.27L63.88 57.32C63.19 57.46 62.5 57.6 61.8 57.74C60.41 58.02 59 58.3 57.59 58.59C54.76 59.15 51.9 59.71 49.05 60.27C43.33 61.35 37.62 62.42 32.19 63.45C26.75 64.43 21.58 65.37 16.96 66.2C10.53 67.32 4.86 68.32 0.309998 69.11C7.11 76.16 10.85 80.03 10.85 80.03L45.88 116.17L40.81 151.69L36.63 181.1L50.25 174.42C66.18 166.59 78.47 160.27 90.05 154.03V154Z" fill="#101214"/>
<path d="M129.36 59.15C123.25 58.44 122.68 61.74 128.67 63.14C137.16 65.12 146.12 66.96 157.7 69C164.28 70.07 168.41 70.57 172.01 71.01C173.81 71.23 175.48 71.44 177.25 71.69C177.69 71.75 178.14 71.82 178.6 71.89C178.78 71.91 178.97 71.94 179.16 71.96C179.5 72.01 179.86 72.07 180.22 72.14C180.42 72.18 180.63 72.21 180.93 72.27C180.46 72.74 179.95 73.24 179.45 73.71C178.04 75.11 176.57 76.57 175.08 78.05C171.89 81.18 168.6 84.4 165.52 87.42C159.31 93.41 153.92 98.61 151.78 100.68C151.12 101.31 150.47 101.97 149.84 102.64C149.31 103.21 148.56 104 147.11 105.54C145.4 107.32 142.86 109.98 138.9 114.12C139.18 115.87 139.65 118.81 140.25 122.59C140.72 125.65 141.3 129.4 141.94 133.55C143.19 141.86 144.63 151.82 145.87 161.21L147.23 170.67L137.38 164.74C125.91 157.86 117.17 152.99 108.44 148.47C103.64 145.99 102.14 148.48 106.58 151.56C114.66 157.17 123.04 162.62 134.49 169.55C135.95 170.43 137.89 171.7 140.38 173.34C141 173.75 141.66 174.18 142.35 174.64C142.7 174.87 143.05 175.1 143.42 175.34C144.1 175.77 144.8 176.21 145.51 176.66C148.49 178.53 151.74 180.57 155.29 182.8C154.89 179.63 154.42 175.83 153.89 171.59C153.55 168.95 153.18 166.03 152.78 162.95C152.45 160.48 152.04 158.02 151.57 155.6C150.17 148.43 148.83 140.5 147.68 133.24C147.12 129.61 146.59 126.14 146.11 123.03C145.73 120.38 145.38 118.02 145.11 116.11C148.06 113.1 149.68 111.44 149.68 111.44L190.82 69.03L183.17 67.7C169.38 65.3 162.74 64.15 158.66 63.44C147.08 61.44 138.02 60.14 129.36 59.13V59.15Z" fill="#101214"/>
</svg>
