<svg width="206" height="236" viewBox="0 0 206 236" fill="none" xmlns="http://www.w3.org/2000/svg">
<path d="M170.716 59.8625C172.046 61.2925 173.286 62.4725 174.256 63.5725C175.266 64.6425 176.176 65.4925 176.866 66.2125C178.296 67.6125 179.256 68.1725 179.646 67.9225C180.036 67.6725 179.846 66.5925 178.966 64.7025C178.556 63.7425 177.866 62.6525 177.006 61.3625C176.176 60.0425 175.006 58.6725 173.666 57.1025C165.866 48.3625 155.716 41.3425 143.686 36.4125C131.656 31.4925 117.666 28.5825 101.916 28.8225C92.9862 29.0225 85.7962 30.2325 79.7362 31.6725C73.6762 33.1325 68.7362 34.8925 64.2762 36.8125C59.7962 38.7325 55.8662 40.9125 51.7862 43.3625C49.7762 44.6525 47.6562 45.8925 45.5662 47.4825C44.5062 48.2525 43.3862 49.0025 42.2862 49.8625C41.1962 50.7425 40.0762 51.6525 38.9062 52.5925C37.8962 53.3725 36.9662 54.2725 35.9862 55.1625C35.0262 56.0725 33.9862 56.9425 33.0262 57.9225C31.1262 59.9025 29.1062 61.8925 27.2662 64.1525C25.3262 66.3125 23.5862 68.7325 21.7662 71.1425C20.9162 72.3925 20.0662 73.6525 19.2062 74.9325C18.3362 76.2025 17.5962 77.5625 16.7862 78.8825C13.6462 84.2325 10.8762 89.9525 8.61618 95.8225C6.38618 101.702 4.60618 107.722 3.28618 113.642C0.666181 125.472 -0.313819 136.923 0.0861808 146.363C0.236181 148.723 0.306181 150.952 0.516181 153.042C0.766181 155.122 0.986181 157.063 1.19618 158.833C1.82618 162.353 2.27618 165.233 2.83618 167.253L3.73618 170.863C4.08618 172.053 4.49618 173.222 4.88618 174.412C6.30618 178.592 9.10618 186.432 15.2262 195.482C15.9962 196.602 16.7962 197.752 17.6162 198.942C18.5162 200.062 19.4462 201.222 20.4062 202.402C21.3262 203.612 22.4162 204.723 23.5062 205.893C24.6062 207.043 25.6662 208.283 26.9262 209.363C31.6862 213.993 37.4962 218.232 43.9962 221.952C50.5062 225.662 57.7762 228.793 65.5262 231.113C73.2862 233.413 81.5462 234.812 89.9462 235.342C98.3462 235.862 106.906 235.502 115.306 234.242C119.476 233.492 123.666 232.782 127.716 231.652L130.776 230.872C131.786 230.592 132.776 230.273 133.766 229.973C135.756 229.393 137.726 228.722 139.676 228.052C145.166 226.112 150.306 223.942 155.066 221.592C159.816 219.222 164.166 216.632 168.126 213.932C176.076 208.542 182.306 202.492 187.106 196.622C191.866 190.692 195.226 184.952 197.586 179.822C199.966 174.692 201.446 170.212 202.456 166.522C204.846 157.802 205.746 149.362 205.806 141.412C205.856 133.452 205.086 125.962 203.786 118.902C202.496 111.842 200.706 105.182 198.526 98.8525C196.326 92.5225 193.756 86.4925 190.606 80.7425C188.846 77.5925 187.166 75.4025 185.796 74.1225C184.426 72.8225 183.406 72.4725 183.146 72.7725C182.866 73.0825 183.216 73.9425 183.966 75.4925C184.736 77.0325 185.886 79.3425 187.416 82.4225C190.166 88.0725 192.406 94.0225 194.306 100.232C196.196 106.442 197.726 112.932 198.806 119.762C199.886 126.592 200.496 133.782 200.366 141.352C200.216 148.912 199.316 156.882 197.066 165.042C196.196 168.212 194.866 172.182 192.726 176.702C190.576 181.212 187.666 186.302 183.506 191.442C182.506 192.752 181.346 194.003 180.206 195.333C178.996 196.593 177.776 197.923 176.416 199.173C173.746 201.723 170.776 204.252 167.456 206.622C160.856 211.432 152.956 215.752 143.966 219.412C142.506 220.002 141.016 220.552 139.546 221.132C138.066 221.692 136.556 222.193 135.076 222.723C132.076 223.733 129.056 224.723 126.036 225.503C113.056 229.243 98.3062 230.652 84.1862 229.012C82.4262 228.772 80.6562 228.632 78.9262 228.302C77.1962 227.972 75.4662 227.642 73.7562 227.322C72.0562 226.952 70.3862 226.472 68.7162 226.052C67.0362 225.662 65.4262 225.092 63.8262 224.562C60.5862 223.582 57.5562 222.232 54.5662 221.012C53.1162 220.302 51.6862 219.602 50.2762 218.912L49.2262 218.402L48.2162 217.822C47.5462 217.432 46.8862 217.053 46.2262 216.673C43.5462 215.233 41.2062 213.453 38.8662 211.923C37.7662 211.053 36.6962 210.202 35.6462 209.382C35.1262 208.972 34.6062 208.562 34.0962 208.152C33.6162 207.712 33.1462 207.282 32.6862 206.852C31.7562 206.002 30.8562 205.173 29.9862 204.363C29.1562 203.523 28.3962 202.663 27.6462 201.863C26.9162 201.043 26.1462 200.303 25.5162 199.503C24.8862 198.703 24.2862 197.943 23.7062 197.223C23.1362 196.493 22.5662 195.832 22.0962 195.152C21.6362 194.472 21.1962 193.823 20.7962 193.223C19.9962 192.013 19.2562 191.023 18.7562 190.143C17.7562 188.393 17.2062 187.442 17.2062 187.442C17.2062 187.442 17.0062 187.093 16.6162 186.423C16.1962 185.773 15.7262 184.722 15.0762 183.402C14.4462 182.072 13.5862 180.493 12.8662 178.533C12.4762 177.563 12.0562 176.532 11.6162 175.432C11.1962 174.332 10.8462 173.122 10.4262 171.882C7.01618 161.962 4.82618 147.342 6.10618 131.412C6.74618 123.462 8.13618 115.182 10.4162 107.152C12.6762 99.1125 15.7762 91.3025 19.5862 84.2225C23.3762 77.1325 27.8862 70.7925 32.6262 65.5125C37.3562 60.2125 42.3062 56.0025 46.7362 52.7025C50.0862 50.2325 53.3962 48.1625 56.5662 46.3625C58.1762 45.5025 59.7362 44.6825 61.2362 43.8825C62.7862 43.1925 64.2362 42.4325 65.7162 41.8625C71.5562 39.4325 76.8062 37.9425 81.3962 36.9225C85.9962 35.9125 89.9362 35.3325 93.3362 35.0125C95.0362 34.8125 96.6062 34.7225 98.0462 34.6425C99.4962 34.5325 100.826 34.5325 102.066 34.4925C117.036 34.2425 130.346 36.8625 141.816 41.2825C153.296 45.7125 163.036 51.9925 170.756 59.9225L170.716 59.8625Z" fill="#101214"/>
<path d="M138.266 10.0525C139.996 10.2525 141.206 7.13255 139.496 6.19255C137.126 4.92255 134.516 3.94255 131.056 3.16255C127.086 2.48255 125.986 3.03255 123.336 2.52255C121.086 2.18255 118.066 1.57255 115.366 1.08255C112.666 0.582548 110.266 0.202548 109.336 0.0525483C109.056 0.0125483 108.786 -0.00745166 108.506 0.00254834C107.516 0.0425483 104.836 0.122548 101.486 0.352548C98.1362 0.562548 94.1162 0.932548 90.4062 1.27255C85.1762 1.94255 81.9762 2.63255 80.3062 2.97255C76.3662 3.83255 73.5262 4.94255 70.8762 6.45255C69.3962 7.31255 70.4362 10.0325 71.9762 9.89255C74.8462 9.65255 77.6962 9.24255 81.4562 8.47255C82.9262 8.17255 86.1162 8.33255 90.4462 7.90255C91.1562 7.83255 91.8462 7.69255 92.5362 7.49255C95.4962 6.60255 99.0062 6.17255 101.756 6.03255C104.506 5.88255 106.496 6.00255 106.496 6.00255C106.496 6.00255 109.466 6.01255 113.046 6.27255C116.626 6.50255 120.816 7.04255 123.296 7.44255C127.016 8.03255 128.796 8.43255 129.886 8.66255C133.186 9.36255 135.776 9.78255 138.296 10.0525H138.266Z" fill="#101214"/>
<path d="M108.556 63.5526C108.206 60.0526 104.856 60.0526 104.506 63.5526C104.006 68.5126 103.746 73.7226 103.726 80.4126C103.886 88.0026 104.576 89.8926 104.496 95.0326C104.496 103.723 103.566 118.383 103.336 121.913C103.306 122.433 103.296 122.953 103.306 123.483C103.326 124.333 103.366 125.823 103.436 128.293C103.456 129.533 103.486 131.013 103.516 132.783C103.526 133.713 103.546 134.713 103.556 135.803C103.566 137.773 103.586 139.893 103.596 142.173C104.846 142.153 106.796 142.123 109.246 142.083C110.666 142.063 112.366 142.043 114.246 142.023C117.646 142.003 121.696 142.013 125.566 142.073C135.546 142.073 141.726 142.053 144.956 142.053C152.576 142.023 158.276 141.683 163.866 141.053C166.936 140.703 166.936 137.793 163.866 137.443C158.276 136.803 152.576 136.463 144.956 136.443C141.996 136.443 135.826 135.643 127.116 135.503C125.696 135.483 124.276 135.533 122.876 135.663C120.246 135.903 117.446 136.073 114.696 136.193C113.316 136.243 111.956 136.293 110.626 136.343C110.186 136.343 110.216 136.363 110.116 136.373L109.866 136.393C109.686 136.403 109.516 136.423 109.346 136.433C109.336 136.213 109.326 135.993 109.316 135.793C109.316 135.663 109.316 135.523 109.306 135.403C109.306 135.023 109.306 134.663 109.306 134.303C109.306 132.883 109.306 131.613 109.306 130.553C109.326 128.443 109.336 127.173 109.336 127.173C109.336 127.173 109.346 103.643 109.356 93.7126C109.356 86.2326 109.346 82.6326 109.336 80.4226C109.316 73.7226 109.046 68.5126 108.546 63.5626L108.556 63.5526Z" fill="#101214"/>
<path d="M108.556 2.68258C108.206 1.96258 104.856 1.96258 104.506 2.68258C104.006 3.70258 103.746 4.77258 103.726 6.15258C103.886 7.71258 104.576 8.10258 104.496 9.16258C104.496 10.9526 103.566 13.9726 103.336 14.6926C103.306 14.8026 103.296 14.9126 103.306 15.0126C103.436 15.7826 103.936 19.1626 103.696 22.0726C103.696 24.1226 103.716 25.4026 103.716 26.0626C103.746 27.6326 104.086 28.8026 104.716 29.9526C105.066 30.5826 107.976 30.5826 108.326 29.9526C108.966 28.8026 109.306 27.6326 109.326 26.0626C109.326 25.4526 110.126 24.1826 110.266 22.3926C110.286 22.1026 110.236 21.8126 110.106 21.5226C109.016 19.0226 109.326 15.7726 109.326 15.7726C109.326 15.7726 109.336 10.9326 109.346 8.88258C109.346 7.34258 109.336 6.60258 109.326 6.14258C109.306 4.76258 109.036 3.69258 108.536 2.67258L108.556 2.68258Z" fill="#101214"/>
<path d="M51.9961 76.4326C51.3761 76.3126 49.0061 78.6726 49.1361 79.2926C49.3161 80.1726 49.6761 80.9126 50.3761 81.6426C51.2961 82.3426 51.9861 82.0526 52.4761 82.6526C53.4061 83.5726 54.3061 85.7926 54.5161 86.3326C54.5461 86.4126 54.5961 86.4726 54.6661 86.5126C55.1561 86.8226 57.2561 88.2126 58.5961 89.8826C59.6661 90.9426 60.3261 91.5926 60.6761 91.9326C61.5061 92.7226 62.3561 93.0926 63.3961 93.2326C63.9661 93.3126 66.0261 91.2526 65.9461 90.6826C65.8061 89.6326 65.4361 88.7926 64.6461 87.9626C64.3361 87.6426 64.2461 86.4226 63.4161 85.3926C63.2861 85.2226 63.0861 85.1126 62.8561 85.0526C60.7961 84.5326 59.3261 82.6326 59.3261 82.6326C59.3261 82.6326 56.8261 80.1226 55.7761 79.0626C54.9761 78.2726 54.5861 77.8926 54.3461 77.6626C53.6161 76.9626 52.8761 76.6026 51.9961 76.4226V76.4326Z" fill="#101214"/>
<path d="M25.3861 133.183C24.8561 133.533 24.8561 136.883 25.3861 137.233C26.1361 137.733 26.9161 137.993 27.9261 138.013C29.0661 137.853 29.3561 137.163 30.1261 137.243C31.4361 137.243 33.6461 138.173 34.1761 138.403C34.2561 138.433 34.3361 138.443 34.4161 138.433C34.9761 138.303 37.4461 137.803 39.5761 138.043C41.0761 138.043 42.0061 138.023 42.4961 138.023C43.6461 137.993 44.4961 137.653 45.3461 137.023C45.8061 136.673 45.8061 133.763 45.3461 133.413C44.5061 132.773 43.6461 132.433 42.4961 132.413C42.0461 132.413 41.1261 131.613 39.8061 131.473C39.5961 131.453 39.3761 131.503 39.1661 131.633C37.3361 132.723 34.9661 132.413 34.9661 132.413C34.9661 132.413 31.4261 132.403 29.9261 132.393C28.7961 132.393 28.2561 132.403 27.9261 132.413C26.9161 132.433 26.1361 132.703 25.3861 133.203V133.183Z" fill="#101214"/>
<path d="M46.7062 192.132C46.5862 192.752 48.9462 195.122 49.5662 194.992C50.4462 194.812 51.1862 194.452 51.9162 193.752C52.6162 192.832 52.3262 192.142 52.9262 191.652C53.8462 190.722 56.0662 189.822 56.6062 189.612C56.6862 189.582 56.7462 189.532 56.7862 189.462C57.0962 188.972 58.4862 186.872 60.1562 185.532C61.2162 184.462 61.8662 183.802 62.2062 183.452C62.9962 182.622 63.3662 181.772 63.5062 180.732C63.5862 180.162 61.5262 178.102 60.9562 178.182C59.9062 178.322 59.0662 178.692 58.2362 179.482C57.9162 179.792 56.6962 179.882 55.6662 180.712C55.4962 180.842 55.3862 181.032 55.3262 181.272C54.8062 183.332 52.9062 184.802 52.9062 184.802C52.9062 184.802 50.3962 187.302 49.3362 188.352C48.5462 189.152 48.1662 189.542 47.9362 189.782C47.2362 190.512 46.8762 191.252 46.6962 192.132H46.7062Z" fill="#101214"/>
<path d="M103.456 216.753C103.806 217.283 107.156 217.283 107.506 216.753C108.006 216.003 108.266 215.223 108.286 214.213C108.126 213.073 107.436 212.783 107.516 212.013C107.516 210.703 108.446 208.503 108.676 207.963C108.706 207.883 108.716 207.803 108.706 207.723C108.576 207.163 108.076 204.693 108.316 202.563C108.316 201.063 108.296 200.133 108.296 199.643C108.266 198.493 107.926 197.643 107.296 196.793C106.946 196.333 104.036 196.333 103.686 196.793C103.046 197.633 102.706 198.493 102.686 199.643C102.686 200.093 101.886 201.013 101.746 202.333C101.726 202.543 101.776 202.763 101.906 202.973C102.996 204.803 102.686 207.173 102.686 207.173C102.686 207.173 102.676 210.713 102.666 212.213C102.666 213.343 102.676 213.883 102.686 214.213C102.706 215.223 102.976 216.003 103.476 216.753H103.456Z" fill="#101214"/>
<path d="M162.406 197.423C163.026 197.543 165.396 195.183 165.266 194.563C165.086 193.683 164.726 192.943 164.026 192.213C163.106 191.513 162.416 191.803 161.926 191.203C160.996 190.283 160.096 188.063 159.886 187.523C159.856 187.443 159.806 187.383 159.736 187.343C159.246 187.033 157.146 185.643 155.806 183.973C154.736 182.913 154.076 182.263 153.726 181.923C152.896 181.133 152.046 180.763 151.006 180.623C150.436 180.543 148.376 182.603 148.456 183.173C148.596 184.223 148.966 185.063 149.756 185.893C150.066 186.213 150.156 187.433 150.986 188.463C151.116 188.633 151.316 188.743 151.546 188.803C153.606 189.323 155.076 191.223 155.076 191.223C155.076 191.223 157.576 193.733 158.626 194.793C159.426 195.583 159.816 195.963 160.056 196.193C160.786 196.893 161.526 197.253 162.406 197.433V197.423Z" fill="#101214"/>
<path d="M167.696 81.7226C167.816 81.1026 165.456 78.7326 164.836 78.8626C163.956 79.0426 163.216 79.4026 162.486 80.1026C161.786 81.0226 162.076 81.7126 161.476 82.2026C160.556 83.1326 158.336 84.0326 157.796 84.2426C157.716 84.2726 157.656 84.3226 157.616 84.3926C157.306 84.8826 155.916 86.9826 154.246 88.3226C153.186 89.3926 152.536 90.0526 152.196 90.4026C151.406 91.2326 151.036 92.0826 150.896 93.1226C150.816 93.6926 152.876 95.7526 153.446 95.6726C154.496 95.5326 155.336 95.1626 156.166 94.3726C156.486 94.0626 157.706 93.9726 158.736 93.1426C158.906 93.0126 159.016 92.8226 159.076 92.5826C159.596 90.5226 161.496 89.0526 161.496 89.0526C161.496 89.0526 164.006 86.5526 165.066 85.5026C165.856 84.7026 166.236 84.3126 166.466 84.0726C167.166 83.3426 167.526 82.6026 167.706 81.7226H167.696Z" fill="#101214"/>
</svg>
