<svg width="135" height="195" viewBox="0 0 135 195" fill="none" xmlns="http://www.w3.org/2000/svg">
<path d="M5.25375 13.5199C4.90375 6.91995 1.55375 6.91995 1.20375 13.5199C0.70375 22.8799 0.44375 32.7199 0.42375 45.3699C0.58375 59.6999 1.27375 63.2699 1.19375 72.9799C1.19375 89.3899 0.26375 117.07 0.03375 123.74C0.00375 124.73 -0.00625 125.71 0.00375 126.7C0.05375 130.23 0.17375 139.75 0.33375 151.72C0.37375 157.7 0.41375 164.3 0.45375 171.07C0.45375 174.45 0.45375 177.88 0.45375 181.3C0.45375 183.01 0.44375 184.71 0.43375 186.41V188.33C0.45375 189.12 0.59375 189.84 0.86375 190.52C1.38375 191.88 2.46375 192.97 3.73375 193.61C5.57375 194.48 7.75375 194.38 9.44375 193.27C9.88375 193 10.3037 192.67 10.7137 192.36L11.4738 191.79C11.9138 191.46 12.3438 191.14 12.7738 190.82C14.4838 189.54 16.1037 188.32 17.6337 187.17C20.7037 184.86 23.4338 182.81 25.8538 181C30.6838 177.38 34.2337 174.71 36.6637 172.88C48.1637 164.23 56.5638 157.5 64.6238 150.66C69.0538 146.9 67.3038 144.57 62.4538 147.77C53.6238 153.59 44.8138 159.77 33.2938 168.39C31.0538 170.07 27.4837 172.49 22.8237 175.72C20.5037 177.34 17.8937 179.16 15.0337 181.17C12.5737 182.94 9.88375 184.87 6.97375 186.95C6.97375 186.94 6.97375 186.95 6.95375 186.97C6.94375 186.97 6.91375 186.98 6.89375 186.97C6.88375 186.97 6.87375 186.97 6.85375 186.95H6.84375C6.84375 186.95 6.84375 186.98 6.83375 186.86L6.81375 186.36C5.72375 163.43 6.03375 133.65 6.03375 133.65C6.03375 133.65 6.04375 89.2199 6.05375 70.4699C6.05375 56.3499 6.04375 49.5499 6.03375 45.3799C6.01375 32.7399 5.74375 22.8999 5.24375 13.5299L5.25375 13.5199Z" fill="#101214"/>
<path d="M75.6737 149.97C67.6637 144.38 65.6537 147.06 73.2437 153.2C84.0037 161.92 95.4737 170.87 110.394 182.13C114.654 185.28 118.134 187.81 121.144 189.97C121.894 190.51 122.614 191.02 123.314 191.52C123.784 191.86 124.234 192.19 124.684 192.51C124.984 192.73 125.294 192.91 125.584 193.1C125.884 193.26 126.204 193.37 126.504 193.5C129.024 194.37 131.724 193.19 132.894 191.19C133.504 190.19 133.724 189.06 133.694 187.84C133.674 187.01 133.654 186.19 133.634 185.37C133.604 183.99 133.564 182.61 133.534 181.19C133.474 178.35 133.444 175.32 133.464 171.74C133.464 147.48 134.394 106.56 134.624 96.7C134.654 95.24 134.664 93.78 134.654 92.32C134.604 87.1 134.484 73.03 134.324 55.34C134.284 46.49 134.244 36.74 134.204 26.73C134.204 21.73 134.204 16.66 134.204 11.61V9.72V8.77V8.51L134.184 8.14C134.174 7.9 134.164 7.65 134.114 7.41C133.874 5.46 132.894 3.62 131.464 2.31C130.044 0.98 128.134 0.16 126.204 0.05C125.644 0.02 125.404 0.03 125.084 0.02H124.154L122.304 0C94.4337 0 77.1937 0.02 68.1837 0.02C46.9037 0.04 31.0037 0.39 15.3937 1.02C6.82375 1.37 6.82375 4.28 15.3937 4.63C31.0037 5.27 46.9037 5.61 68.1737 5.63C76.4437 5.63 93.6637 6.43 117.984 6.57C119.964 6.58 121.944 6.57 123.924 6.55L125.404 6.53H125.864C125.954 6.53 126.044 6.54 126.144 6.55C126.504 6.61 126.864 6.76 127.164 7.01C127.494 7.27 127.744 7.64 127.874 8.06C127.904 8.16 127.934 8.27 127.944 8.39C127.944 8.45 127.954 8.5 127.964 8.56V8.95C127.994 9.49 128.004 10.04 128.024 10.58C128.074 12.77 128.124 14.98 128.184 17.2C128.264 21.65 128.344 26.15 128.424 30.6C128.544 39.49 128.614 48.18 128.644 55.8C128.704 71.04 128.624 82.05 128.624 82.05C128.624 82.05 128.614 147.73 128.604 175.46C128.604 178.07 128.604 180.51 128.604 182.79C128.604 183.93 128.604 185.04 128.604 186.1C128.604 186.45 128.604 186.79 128.604 187.12C128.604 187.26 128.604 187.4 128.564 187.52C128.394 188.06 127.684 188.18 127.344 187.85C126.214 187 125.164 186.21 124.184 185.48C119.474 181.94 116.234 179.5 113.764 177.65C98.8137 166.43 87.0337 157.9 75.6737 149.97Z" fill="#101214"/>
</svg>
