<svg width="194" height="177" viewBox="0 0 194 177" fill="none" xmlns="http://www.w3.org/2000/svg">
<path d="M99.2822 172.24C96.1922 175.18 98.2122 177.86 101.842 175.37C106.932 171.83 111.992 167.76 118.082 162.07C119.762 160.41 121.112 159.05 122.232 157.84C123.342 156.62 124.252 155.58 125.102 154.62C126.812 152.7 128.192 151 130.452 148.75C132.332 146.81 134.532 144.54 136.822 142.18C139.082 139.78 141.472 137.32 143.672 134.95C145.842 132.55 147.942 130.36 149.582 128.47C151.242 126.59 152.542 125.11 153.272 124.28C153.702 123.79 154.112 123.29 154.512 122.76C155.832 120.83 159.592 115.78 163.922 109.16C168.202 102.61 173.512 94.8697 178.352 87.4697C185.032 76.9297 188.202 69.6497 189.732 65.8297C190.142 64.6797 190.542 63.5597 190.932 62.4797C191.342 61.4097 191.572 60.2897 191.882 59.2497C192.512 57.1597 192.802 55.0797 193.142 53.1197C193.312 52.1397 193.322 51.1397 193.402 50.1797C193.442 49.2097 193.582 48.2797 193.512 47.3297C193.462 46.3897 193.422 45.4597 193.382 44.5397C193.342 44.0797 193.352 43.6297 193.282 43.1697L193.052 41.8197C192.352 37.8197 189.492 38.4697 189.452 42.0697C189.302 48.7197 187.772 55.2997 184.512 63.7797C183.172 67.0697 179.532 73.5097 173.782 82.3697C172.872 83.8297 171.982 85.3097 171.152 86.8197C169.382 90.0797 167.282 93.4997 165.182 96.8197C163.072 100.12 160.992 103.41 159.112 106.15C157.222 108.9 155.632 111.29 154.392 112.91C153.162 114.53 152.432 115.49 152.432 115.49C152.432 115.49 151.352 116.93 149.632 119.24C148.732 120.37 147.662 121.71 146.482 123.2C145.302 124.69 144.012 126.32 142.592 127.97C141.182 129.63 139.742 131.39 138.232 133.1C136.722 134.8 135.202 136.51 133.732 138.16C130.732 141.39 127.972 144.4 125.832 146.55C119.462 153.13 116.212 156.11 114.262 157.98C108.302 163.6 103.672 168 99.3022 172.24H99.2822Z" fill="#101214"/>
<path d="M183.152 25.2197C183.812 26.2397 184.432 27.0997 184.952 27.8697C185.222 28.2497 185.472 28.5897 185.722 28.8897C185.952 29.2097 186.172 29.4897 186.382 29.7297C187.222 30.6997 187.902 31.1197 188.322 30.9397C188.752 30.7597 188.942 30.0097 188.732 28.6597C188.682 28.3197 188.612 27.9497 188.512 27.5397C188.392 27.1397 188.252 26.7097 188.082 26.2397C187.762 25.2897 187.242 24.2497 186.592 23.0797C184.722 19.7997 182.352 16.7297 179.542 13.9397C176.732 11.1597 173.462 8.6397 169.722 6.6197C162.302 2.5297 152.932 0.179697 142.602 1.3897C139.682 1.7697 137.092 2.3997 134.762 3.1297C132.452 3.9197 130.392 4.7297 128.572 5.6897C126.742 6.5997 125.142 7.5897 123.682 8.5697C122.202 9.5497 120.902 10.6097 119.722 11.6497C118.542 12.6897 117.452 13.7697 116.452 14.8197C115.452 15.8397 114.452 16.8597 113.422 17.9197C111.352 20.0197 109.132 22.2197 106.462 24.7997C104.842 26.3697 103.122 28.0297 101.242 29.8597C100.292 30.7697 99.3123 31.7197 98.2723 32.7197C96.9123 34.0297 96.9223 33.9997 96.4923 34.4097C88.0023 27.4397 78.2923 19.4797 69.9323 12.6297C67.7523 10.8497 65.5523 8.8997 63.2823 7.3497C61.0323 5.7597 58.7523 4.5197 56.6223 3.4897C52.3223 1.4997 48.5623 0.649698 46.2623 0.319697C44.6123 0.0496975 42.9123 -0.0303025 41.2223 0.00969749C40.4723 -0.000302508 39.5523 0.119697 38.5023 0.199697C37.4523 0.349698 36.2423 0.489698 34.9423 0.809698C32.3223 1.3897 29.2423 2.4297 26.0323 4.1597C22.8223 5.8697 19.5423 8.3197 16.5023 11.4097C13.4423 14.4897 10.6923 18.2697 8.31226 22.4797C7.15226 24.5997 6.05226 26.8197 5.10226 29.1497L4.92226 29.5797L4.83226 29.7997V29.8297C5.96226 30.2997 2.24226 28.8097 7.38226 30.8997C2.45226 28.3497 6.01226 30.2097 4.90226 29.6497L4.85226 29.7597L4.45226 30.6497C4.19226 31.2397 3.92226 31.8397 3.65226 32.4297C3.38226 33.0297 3.12226 33.6297 2.85226 34.2297C2.65226 34.8597 2.44226 35.4897 2.24226 36.1297C0.562258 41.1797 -0.277742 46.7497 0.082258 52.2697C0.382258 57.7997 1.64226 63.2397 3.42226 68.3797C5.20226 73.5297 7.47226 78.4297 9.99226 83.0097C13.5523 89.4897 17.2423 94.9897 20.6123 99.8697C24.0523 104.73 27.2223 109 30.1823 112.61C30.9123 113.52 31.6223 114.4 32.3023 115.26C33.0123 116.09 33.6923 116.89 34.3523 117.66C35.6723 119.2 36.8823 120.65 38.0323 121.95C40.3723 124.52 42.2923 126.68 43.9023 128.4C51.5123 136.51 58.5823 143.16 65.3223 149.05C72.0723 154.94 78.4723 160.07 85.0323 164.88C88.6323 167.53 90.9323 168.21 91.4223 167.56C91.9023 166.9 90.6323 164.94 87.2823 162.06C81.1923 156.8 75.1623 151.35 68.7323 145.3C62.3023 139.24 55.4623 132.55 48.0023 124.57C46.5523 123.02 44.7923 120.97 42.6723 118.53C41.6023 117.31 40.5323 115.92 39.3423 114.46C38.1723 112.98 36.8523 111.45 35.5923 109.72C34.3023 108.01 32.9323 106.2 31.4923 104.29C30.1223 102.34 28.6723 100.28 27.1623 98.1297C24.1923 93.7597 21.0223 88.9397 17.9123 83.6297L16.3923 81.0397L14.9523 78.4197C13.9523 76.6997 13.1123 74.9197 12.1823 73.1797C10.3523 69.3797 8.61226 65.3397 7.48226 61.1197C6.36226 56.8997 5.74226 52.5297 5.81226 48.2197C5.95226 43.9097 6.91226 39.7497 8.32226 35.8897C8.74226 34.9497 9.15226 34.0197 9.56226 33.0897C9.80226 32.5497 10.0323 32.0097 10.2623 31.4797C10.4623 31.0097 10.6623 30.5397 10.8523 30.0797C11.2423 29.1497 11.7023 28.2697 12.1123 27.3897C12.5623 26.5297 13.0123 25.6797 13.4723 24.8597C15.3523 21.5997 17.4423 18.7897 19.5423 16.5197C21.6423 14.2397 23.7523 12.5097 25.6023 11.2497C26.5123 10.5897 27.3923 10.1197 28.1423 9.6597C28.9223 9.2597 29.5723 8.9097 30.1323 8.6597C30.6923 8.4197 31.1123 8.2397 31.4023 8.1097C31.6923 7.9797 31.8423 7.9297 31.8423 7.9297C37.3323 5.7897 43.4223 5.4297 49.1423 6.9797C52.0023 7.7297 54.7823 8.8897 57.4023 10.3697C60.0423 11.8497 62.4623 13.6197 64.8823 15.6397L96.7923 40.9697L112.582 25.5697C114.512 23.6797 116.322 21.9197 118.012 20.2697C118.852 19.4497 119.672 18.6497 120.462 17.8797C121.222 17.1397 121.972 16.4597 122.712 15.8297C124.202 14.5697 125.602 13.5297 127.042 12.6797C127.402 12.4597 127.742 12.2397 128.092 12.0297C128.442 11.8397 128.792 11.6497 129.132 11.4597C129.472 11.2797 129.802 11.0897 130.132 10.9197C130.472 10.7597 130.802 10.6097 131.122 10.4497C133.722 9.2397 136.012 8.4397 138.032 7.9397C139.032 7.6697 139.972 7.4897 140.832 7.3097C141.702 7.1797 142.502 7.0197 143.252 6.9497C152.312 5.8697 160.582 7.7797 167.272 11.1897C170.652 12.8697 173.642 14.9897 176.282 17.3497C178.922 19.7097 181.222 22.3397 183.122 25.2097L183.152 25.2197Z" fill="#101214"/>
</svg>
