<svg width="204" height="202" viewBox="0 0 204 202" fill="none" xmlns="http://www.w3.org/2000/svg">
<path d="M203.664 13.8801C204.094 5.03012 200.754 4.73012 199.634 13.5401C198.034 26.0201 196.614 39.1701 195.104 56.0801C194.334 65.6701 194.024 71.6801 193.754 76.9001C193.604 79.5101 193.464 81.9301 193.324 84.5101C193.284 85.1501 193.234 85.8101 193.184 86.4801C193.124 87.1701 193.124 87.8201 193.044 88.3401C192.894 89.4501 192.514 90.6101 191.824 91.7101C191.534 92.1801 191.204 92.6201 190.814 93.0401C190.474 93.4101 189.854 93.9901 189.354 94.4801C188.284 95.5101 187.184 96.5701 186.054 97.6701C183.784 99.8401 181.404 102.12 178.984 104.44C174.104 109.06 169.024 113.86 164.244 118.38C154.624 127.36 146.204 135.23 142.934 138.29C141.964 139.19 141.014 140.11 140.074 141.05C136.714 144.4 127.674 153.42 116.314 164.76C110.604 170.4 104.304 176.62 97.8336 183C94.5836 186.18 91.3036 189.39 88.0236 192.6L86.7936 193.8C86.5536 194.04 86.4636 194.09 86.3236 194.23C86.2036 194.36 86.0336 194.43 85.9036 194.55C85.3236 194.94 84.6636 195.2 83.9736 195.29C82.5936 195.49 81.1436 195.09 80.1336 194.18C62.5336 176.22 51.6436 165.1 45.9536 159.3C32.4336 145.51 22.1036 135.44 11.7436 125.76C6.05365 120.44 3.97365 122.48 9.16365 128.28C18.6136 138.85 28.4536 149.41 41.9436 163.23C47.1836 168.6 57.5436 180.33 72.8736 196.21L74.7536 198.14C75.0036 198.41 75.5236 198.9 76.0136 199.31C76.5236 199.71 77.0536 200.08 77.6236 200.39C79.8936 201.65 82.5736 202.08 85.0636 201.59C86.4036 201.33 87.7136 200.83 88.8836 200.09C89.1836 199.92 89.4636 199.71 89.7336 199.5C90.0136 199.3 90.2736 199.07 90.5236 198.84L90.9036 198.49L91.1736 198.21L91.6936 197.67C93.0736 196.25 94.4736 194.81 95.8736 193.36C98.7036 190.48 101.574 187.57 104.404 184.69C110.084 178.96 115.674 173.4 120.604 168.54C130.454 158.82 137.644 151.89 137.644 151.89C137.644 151.89 148.304 141.47 161.204 128.85C167.654 122.54 174.674 115.68 181.194 109.3C184.454 106.11 187.594 103.04 190.484 100.22C191.204 99.5101 191.914 98.8201 192.604 98.1501C192.944 97.8101 193.284 97.4801 193.624 97.1501L194.174 96.6001C194.374 96.4001 194.554 96.1801 194.744 95.9801C196.194 94.2701 197.124 92.3401 197.594 90.4601C197.774 89.7501 197.894 89.0501 197.964 88.3501C198.014 87.6601 198.054 87.1401 198.104 86.5801C198.204 85.4801 198.294 84.4101 198.384 83.3801C198.564 81.3201 198.734 79.3901 198.894 77.6001C199.204 74.0101 199.474 70.9301 199.714 68.2701C200.184 62.9501 200.504 59.2801 200.744 56.5001C202.204 39.6101 203.094 26.4601 203.704 13.9101L203.664 13.8801Z" fill="#101214"/>
<path d="M2.22364 112.24C-2.02636 116.88 0.313641 119.28 5.05364 115.13C11.7636 109.26 18.6436 102.9 27.2636 94.5101C36.9036 84.8601 38.8436 82.0001 45.5036 75.5901C56.6636 64.6701 76.1336 46.9301 80.8336 42.6601C81.5236 42.0301 82.2036 41.3801 82.8636 40.7101C85.2336 38.3301 91.6136 31.9101 99.6436 23.8301C101.664 21.8201 103.784 19.7101 105.974 17.5401C107.074 16.4601 108.184 15.3501 109.314 14.2401C109.874 13.6801 110.444 13.1301 111.014 12.5601L111.384 12.2001C111.484 12.1001 111.604 12.0101 111.714 11.9101C111.934 11.7201 112.174 11.5501 112.414 11.3801C113.394 10.7301 114.514 10.2901 115.694 10.1201C116.004 10.0801 116.254 10.0501 116.604 10.0401C116.944 10.0401 117.384 10.0001 117.784 9.9701L120.224 9.8101C123.474 9.6101 126.704 9.4101 129.874 9.2201C147.784 8.0101 158.864 7.2601 164.654 6.8701C178.324 5.9301 188.524 4.9001 198.514 3.6001C204.004 2.8801 203.804 -0.0198971 198.274 0.000102945C188.214 0.0401029 177.994 0.380103 164.354 1.2701C159.054 1.6201 147.964 1.5601 132.364 2.4701C129.824 2.6201 127.284 2.8401 124.774 3.1401C122.044 3.4501 119.284 3.7701 116.364 4.0401C114.634 4.1501 112.784 4.6101 111.174 5.3901C110.354 5.7801 109.584 6.2401 108.854 6.7801C108.494 7.0501 108.144 7.3301 107.814 7.6301C107.484 7.9201 107.134 8.2701 106.914 8.5001C102.914 12.5901 98.9636 16.5401 95.4736 19.9901C88.5036 26.8901 83.3836 31.7901 83.3836 31.7901C83.3836 31.7901 53.1636 61.3401 40.4036 73.8101C30.8036 83.2101 26.1836 87.7301 23.3536 90.5101C14.7736 98.9401 8.26364 105.67 2.24364 112.26L2.22364 112.24Z" fill="#101214"/>
<path d="M131.184 49.0001C131.644 48.2301 131.964 47.6201 132.004 47.0101C132.064 46.4201 131.914 45.9101 131.604 45.5701C131.294 45.2301 130.804 45.0701 130.184 45.1801C129.584 45.3001 128.764 45.6301 128.054 46.4301C125.944 48.6001 124.204 51.3101 123.064 54.5401C122.464 56.1501 122.104 57.9101 121.864 59.7901C121.714 61.6701 121.674 63.6801 122.044 65.7901C122.524 68.1701 123.234 70.0501 124.114 71.5501C124.504 72.3201 125.034 72.9401 125.444 73.5601C125.914 74.1501 126.414 74.6501 126.864 75.1501C128.754 76.9401 130.534 78.1901 133.234 79.7501C135.554 81.0001 138.444 82.1001 141.564 82.7401C144.674 83.3801 148.074 83.5201 151.174 83.1801C154.304 82.8501 157.234 82.0601 159.554 81.0301C161.884 80.0301 163.584 78.8601 164.504 78.1801C165.034 77.7501 165.574 77.3201 166.034 76.8101C166.874 75.9401 168.414 74.1901 169.724 71.4701C171.064 68.7801 171.984 65.1601 172.004 61.1801C172.004 57.2001 171.034 52.8701 169.094 48.9101C168.614 47.9101 168.064 46.9601 167.484 46.0101C166.854 45.1201 166.304 44.1701 165.594 43.3201C164.294 41.5501 162.704 39.9801 161.074 38.5301C158.694 36.5601 156.204 35.1701 153.874 34.2201C151.524 33.2801 149.334 32.7801 147.394 32.4801C143.504 31.9201 140.624 32.1601 138.694 32.4001C134.124 33.0201 130.294 34.4101 127.084 36.2901C123.884 38.1701 121.184 40.4701 119.334 43.5801C119.074 43.9901 118.934 44.4401 118.844 44.8101C118.744 45.1801 118.744 45.5301 118.794 45.8301C118.894 46.4201 119.184 46.7601 119.574 46.9001C119.954 47.0401 120.424 46.9801 120.874 46.7701C121.094 46.6601 121.314 46.5201 121.564 46.3401C121.814 46.1601 122.014 45.9201 122.284 45.6501C124.114 43.6401 126.594 42.0801 129.424 40.7801C132.264 39.4801 135.554 38.4601 139.384 37.9701C140.864 37.7801 143.214 37.7901 146.114 38.4001C149.004 38.9801 152.404 40.2601 155.724 42.6901C156.784 43.5201 157.854 44.3301 158.874 45.2401C159.424 45.7201 159.994 46.2301 160.494 46.8201C161.034 47.3701 161.524 47.9901 162.004 48.6201C162.974 49.8801 163.804 51.2301 164.444 52.6601C165.094 54.0901 165.594 55.5601 165.894 57.0301C166.194 58.4901 166.314 59.9301 166.314 61.2601C166.314 62.6001 166.124 63.8201 165.914 64.9001C165.654 65.9701 165.374 66.8901 165.054 67.6201C164.764 68.3601 164.444 68.9001 164.254 69.2801C164.024 69.6401 163.904 69.8401 163.904 69.8401C163.904 69.8401 163.744 70.1501 163.364 70.6501C163.014 71.1701 162.444 71.8701 161.654 72.6601C160.074 74.2301 157.424 76.0401 154.024 77.0701C152.344 77.5901 150.504 77.9401 148.634 78.0901C146.774 78.2501 144.914 78.1801 143.124 77.9201C139.544 77.4201 136.444 76.1001 134.414 74.8201C132.874 73.8501 131.694 72.8101 130.774 71.8101C129.954 70.8301 129.314 69.9201 128.904 69.0301C128.444 68.1701 128.214 67.3501 127.964 66.6801C127.814 65.9701 127.624 65.3901 127.564 64.8601C127.264 63.2801 127.274 61.7301 127.314 60.2701C127.454 58.8101 127.624 57.4001 127.994 56.0801C128.674 53.4401 129.754 51.1001 131.154 49.0101L131.184 49.0001Z" fill="#101214"/>
</svg>
