<svg width="184" height="180" viewBox="0 0 184 180" fill="none" xmlns="http://www.w3.org/2000/svg">
<path d="M174.774 112.217C174.434 113.797 174.134 115.187 173.884 116.367C173.644 117.557 173.494 118.577 173.434 119.407C173.304 121.067 173.504 121.997 173.934 122.147C174.364 122.297 175.054 121.657 175.894 120.197C176.314 119.467 176.774 118.527 177.264 117.377C177.504 116.797 177.764 116.177 178.014 115.497C178.234 114.807 178.464 114.057 178.694 113.267C181.344 104.237 183.174 94.6167 183.464 83.9967C183.534 82.6667 183.444 81.3267 183.434 79.9667C183.404 78.6067 183.404 77.2367 183.254 75.8567C183.134 74.4767 183.014 73.0667 182.894 71.6567C182.684 70.2467 182.464 68.8267 182.254 67.3767C181.244 61.6267 179.614 55.6567 177.034 49.6767C174.054 42.9067 170.724 37.8667 167.574 33.8067C164.444 29.7267 161.334 26.7367 158.424 24.0267C156.914 22.7267 155.494 21.4467 153.964 20.2967C153.204 19.7167 152.484 19.1067 151.694 18.5567C150.914 18.0067 150.124 17.4467 149.324 16.8767C146.084 14.6867 142.584 12.4267 138.184 10.1967C130.774 6.43669 121.534 2.91669 111.394 1.39669C101.374 -0.13331 90.8138 -0.36331 80.9238 0.49669C78.4538 0.71669 76.0238 0.99669 73.6538 1.35669C71.2838 1.67669 68.9938 2.21669 66.7638 2.63669C64.5138 3.01669 62.4038 3.69669 60.3438 4.21669C58.2738 4.70669 56.3538 5.41669 54.5238 6.03669C53.6038 6.34669 52.7138 6.65669 51.8438 6.95669C50.9938 7.31669 50.1738 7.65669 49.3838 7.99669C47.8138 8.68669 46.2938 9.23669 44.9938 9.91669C43.6838 10.5867 42.4938 11.1967 41.4438 11.7267C40.9138 11.9967 40.4238 12.2467 39.9738 12.4867C39.5338 12.7567 39.1338 12.9967 38.7638 13.2267L36.1638 14.8367C35.3038 15.3867 34.4238 15.9067 33.6338 16.5567C32.9038 17.1167 32.0238 17.7867 31.0038 18.5667C30.4938 18.9567 29.9538 19.3767 29.3738 19.8267C28.8338 20.3167 28.2538 20.8367 27.6438 21.3867C25.1738 23.5167 22.4038 26.3167 19.5238 29.7267C13.8238 36.5667 7.95384 46.2567 4.40384 58.0367C3.99384 59.5167 3.57384 61.0067 3.15384 62.5267L2.84384 63.6667L2.61384 64.8267C2.45384 65.6067 2.30384 66.3867 2.14384 67.1667C1.85384 68.7367 1.46384 70.3167 1.24384 71.9267C1.00384 73.5367 0.793836 75.1667 0.623836 76.8067C-0.0561637 83.3767 -0.176164 90.1667 0.243836 97.0267C0.463836 100.457 0.823836 103.907 1.35384 107.337C1.83384 110.787 2.72384 114.167 3.49384 117.577C5.33384 124.317 7.83384 130.867 11.0338 136.947C15.7038 145.467 21.4738 152.287 27.3638 157.557C33.2438 162.877 39.3238 166.557 44.8338 169.337C55.9438 174.877 64.9438 176.787 71.0038 177.897C78.2038 179.287 85.0538 179.717 91.5238 179.757C97.9938 179.777 104.114 179.307 109.944 178.427C115.754 177.567 121.334 176.227 126.564 174.327C131.794 172.417 136.744 169.917 141.084 166.487C143.464 164.587 144.864 162.687 145.624 161.357C146.314 159.957 146.424 159.137 146.094 158.907C145.344 158.397 143.334 160.417 138.904 163.607C134.794 166.467 130.104 168.547 125.124 170.117C120.124 171.677 114.864 172.747 109.254 173.407C103.664 174.087 97.7838 174.397 91.5738 174.297C85.3738 174.167 78.8238 173.707 72.0038 172.367C66.7138 171.427 58.4838 169.497 48.8238 164.577C47.6238 163.947 46.3938 163.307 45.1238 162.637C43.9138 161.877 42.6638 161.107 41.3838 160.307C40.0738 159.557 38.8738 158.577 37.5938 157.657C36.9538 157.187 36.3138 156.717 35.6638 156.237C35.0238 155.747 34.4338 155.177 33.7938 154.647C28.7438 150.397 23.8138 145.057 19.6238 138.517L17.6738 135.257C17.3538 134.717 17.0038 134.187 16.7038 133.627L15.8538 131.927C15.2738 130.797 14.7038 129.677 14.1238 128.547C13.6238 127.387 13.1338 126.217 12.6338 125.067C11.4638 122.597 10.7138 119.907 9.78384 117.247C9.33384 115.907 9.06384 114.507 8.69384 113.127C8.36384 111.737 7.95384 110.357 7.69384 108.937C6.56384 103.267 5.95384 97.4067 5.78384 91.5867C5.61384 85.7667 5.87384 80.0067 6.59384 74.5267C6.91384 71.7767 7.52384 69.1367 8.02384 66.5467C8.24384 65.2467 8.60384 63.9967 8.95384 62.7667C9.29384 61.5367 9.63384 60.3167 9.96384 59.1267C12.9238 49.6567 17.3038 42.2367 20.8638 37.3967C21.7538 36.1867 22.6438 35.1667 23.3738 34.2367C24.1238 33.3267 24.7138 32.5067 25.3138 31.9467C26.4538 30.7667 27.0638 30.1267 27.0638 30.1267C27.0638 30.1267 27.2938 29.8867 27.7238 29.4267C28.1638 28.9767 28.7738 28.2667 29.6938 27.5067C30.5838 26.7167 31.6838 25.7367 32.9438 24.6167C34.2638 23.5567 35.8338 22.4267 37.5238 21.1267C38.3838 20.4967 39.3538 19.9367 40.3338 19.2967C41.3238 18.6867 42.3138 17.9867 43.4138 17.3867C44.5238 16.7967 45.6638 16.1867 46.8438 15.5567C47.4438 15.2567 48.0138 14.8967 48.6438 14.6267C49.2738 14.3467 49.9138 14.0667 50.5538 13.7867C55.6538 11.3867 61.5938 9.51669 67.9138 8.02669C80.5538 5.04669 94.9738 4.45669 108.034 5.98669C121.064 7.40669 132.414 12.2967 140.144 16.8367C145.994 20.2667 150.674 23.9167 154.444 27.4167C158.204 30.9367 161.094 34.2767 163.384 37.3267C164.514 38.8567 165.494 40.3167 166.404 41.6667C167.234 43.0667 168.034 44.3267 168.704 45.5267C169.344 46.7467 169.924 47.8767 170.464 48.9167C170.974 49.9667 171.384 50.9667 171.794 51.8767C174.194 57.4267 175.744 62.9567 176.764 68.3167C176.984 69.6667 177.204 70.9967 177.424 72.3167C177.564 73.6467 177.694 74.9567 177.834 76.2567C178.004 77.5567 178.024 78.8467 178.084 80.1267C178.114 81.4067 178.234 82.6767 178.204 83.9367C178.194 94.0067 176.814 103.307 174.714 112.207L174.774 112.217Z" fill="#101214"/>
<path d="M167.454 131.487C167.874 131.097 168.274 130.737 168.604 130.367C168.934 129.987 169.224 129.627 169.484 129.287C170.014 128.617 170.374 127.987 170.604 127.437C171.074 126.357 171.084 125.657 170.724 125.357C170.364 125.057 169.654 125.167 168.684 125.697C168.204 125.967 167.654 126.337 167.004 126.777C166.684 127.007 166.354 127.257 166.004 127.537C165.644 127.807 165.264 128.087 164.854 128.397C160.334 131.897 154.724 134.237 148.704 133.847C145.724 133.647 142.684 132.767 139.934 131.067C138.574 130.207 137.264 129.187 136.094 127.947C134.944 126.697 133.924 125.277 133.074 123.687C132.084 121.897 131.494 120.107 131.094 118.427C130.654 116.747 130.534 115.157 130.424 113.677C130.424 112.927 130.424 112.217 130.414 111.527C130.464 110.837 130.504 110.167 130.544 109.517C130.684 108.077 130.804 106.687 130.864 105.367C131.104 100.077 131.064 95.5867 130.534 89.0267C130.274 86.2567 129.864 83.2567 129.184 80.1167C128.514 76.9867 127.584 73.7267 126.234 70.5067C124.914 67.2867 123.124 64.1067 120.834 61.2567C119.714 59.8167 118.394 58.5267 117.024 57.3167C115.644 56.1167 114.094 55.0867 112.634 54.2267C109.674 52.4667 106.594 51.0167 103.504 50.1267C100.434 49.2267 97.4238 48.7167 94.6938 48.5967C89.1938 48.3367 84.9338 49.3767 82.6338 49.9767C81.9538 50.1667 81.2838 50.4067 80.6138 50.6367C79.9438 50.8567 79.2738 51.1067 78.6338 51.4067C76.2938 52.3567 72.1038 54.4767 67.3538 58.1967C64.9838 60.0567 62.4838 62.3167 59.9938 64.9567C58.7438 66.2767 57.5038 67.7067 56.2838 69.2467C55.6738 70.0267 55.0738 70.7867 54.4938 71.6567C53.9138 72.5367 53.3238 73.4367 52.7538 74.3467C48.4438 81.8567 46.4938 91.1567 46.7438 100.567C46.9038 105.277 47.5538 110.067 49.1538 114.707C49.6138 115.857 49.9638 117.027 50.5538 118.147C50.8338 118.707 51.0938 119.277 51.3938 119.837L52.4138 121.467C53.8538 123.527 55.3738 125.367 57.1738 127.057C57.7638 127.687 58.4538 128.197 59.1338 128.717C59.8238 129.217 60.4338 129.787 61.1638 130.197C61.8838 130.617 62.5938 131.037 63.2938 131.447C63.9938 131.867 64.7638 132.117 65.4838 132.457C66.9138 133.157 68.4438 133.467 69.8738 133.907C70.6038 134.067 71.3338 134.167 72.0538 134.287C72.4138 134.347 72.7738 134.407 73.1238 134.457C73.4738 134.507 73.8338 134.507 74.1838 134.537C79.8238 134.927 84.7038 133.857 88.7238 132.487C92.7538 131.077 96.0338 129.407 98.6938 127.767C100.044 126.977 101.194 126.127 102.284 125.417C103.334 124.647 104.264 123.927 105.104 123.287C112.864 117.037 118.194 109.987 121.934 102.907C123.744 99.3267 125.134 95.6967 126.094 92.0467C127.064 88.3967 127.454 84.6767 127.424 81.0067C127.384 79.9967 127.314 79.1167 127.184 78.3667C127.004 77.6167 126.804 77.0067 126.594 76.5267C126.174 75.5667 125.724 75.1467 125.324 75.1967C124.924 75.2467 124.564 75.7867 124.324 76.7467C124.204 77.2267 124.114 77.8167 124.064 78.5067C123.964 79.1967 123.864 80.0067 123.824 80.9167C123.544 84.2367 122.934 87.5467 121.824 90.7967C120.724 94.0467 119.284 97.2767 117.484 100.477C113.774 106.807 108.724 113.187 101.614 118.877C98.8738 121.077 94.2338 124.147 87.6438 126.457C84.3438 127.537 80.5338 128.367 76.4438 128.267C72.3738 128.117 68.0738 126.997 64.2338 124.327C61.7438 122.617 59.5538 120.247 57.6838 117.837C55.8338 115.277 54.4838 111.867 53.6538 108.277C52.8138 104.677 52.4638 100.857 52.5338 97.1067C52.6238 89.5667 54.6538 82.2867 57.8438 76.8767C59.4438 74.2467 61.4438 71.8267 63.2538 69.8367C65.0938 67.8367 66.8538 66.1767 68.3638 64.8767C69.8738 63.5767 71.1338 62.6167 72.0138 61.9967C72.9038 61.3867 73.3838 61.0567 73.3838 61.0567C73.3838 61.0567 74.0838 60.5267 75.4338 59.7467C76.0938 59.3367 76.9138 58.8367 77.9038 58.3567C78.3938 58.1167 78.9038 57.8067 79.4738 57.5667C80.0438 57.3167 80.6438 57.0567 81.2838 56.7867C83.8338 55.7667 86.9738 54.8067 90.5338 54.4467C94.0838 54.0867 98.0538 54.2667 102.004 55.4167C102.984 55.7367 103.994 55.9767 104.954 56.4067C105.444 56.5967 105.934 56.7967 106.424 56.9867C106.904 57.2067 107.384 57.4567 107.864 57.6867C108.844 58.1267 109.764 58.6967 110.704 59.2367C111.184 59.5067 111.624 59.7867 112.044 60.0867C112.484 60.3667 112.894 60.6767 113.304 61.0167C116.594 63.5967 119.134 67.1467 120.954 70.9167C122.784 74.6967 123.934 78.6867 124.684 82.4167C125.434 86.1567 125.774 89.6467 125.944 92.6367C126.194 97.1467 126.044 101.097 125.774 104.517C125.704 105.377 125.624 106.197 125.534 106.987C125.444 107.797 125.334 108.487 125.254 109.347C125.054 110.987 125.014 112.527 125.024 113.957C125.064 116.817 125.564 119.237 126.124 121.257C126.274 121.757 126.424 122.247 126.564 122.707C126.744 123.157 126.914 123.597 127.074 124.007C127.374 124.847 127.794 125.567 128.124 126.257C129.224 128.297 130.564 130.137 132.074 131.737C133.604 133.327 135.324 134.637 137.124 135.717C140.734 137.857 144.714 138.857 148.494 138.967C152.284 139.027 155.904 138.287 159.084 136.887C162.274 135.517 165.064 133.607 167.464 131.427L167.454 131.487Z" fill="#101214"/>
</svg>
