<svg width="193" height="189" viewBox="0 0 193 189" fill="none" xmlns="http://www.w3.org/2000/svg">
<path d="M84.0462 4.83C92.9162 4.48 92.9162 1.13 84.0462 0.78C71.4762 0.29 58.2562 0.02 41.2762 0C31.6462 0.08 25.6362 0.29 20.4062 0.47C17.7862 0.55 15.3662 0.62 12.7762 0.7C12.4862 0.7 12.0662 0.73 11.6562 0.76C11.2562 0.78 10.8462 0.83 10.4362 0.91C10.0262 0.97 9.61617 1.06 9.21617 1.18C8.80617 1.28 8.39617 1.42 7.99617 1.59C6.37617 2.22 4.77617 3.23 3.39617 4.67C2.23617 5.9 1.28617 7.43 0.68617 9.15C0.39617 10.01 0.16617 10.92 0.0761704 11.86C0.0161704 12.33 -0.0138296 12.8 0.00617045 13.28C0.00617045 13.79 0.0261704 14.17 0.0461704 14.56C0.18617 17.7 0.33617 20.99 0.48617 24.35C0.74617 31.07 1.01617 38.06 1.27617 44.64C1.70617 57.81 2.09617 69.34 2.23617 73.82C2.27617 75.14 2.34617 76.47 2.43617 77.8C2.51617 78.98 2.63617 80.67 2.77617 82.78C2.84617 83.84 2.92617 85 3.01617 86.26C3.05617 86.77 3.10617 87.86 3.34617 88.77C3.56617 89.71 3.91617 90.66 4.41617 91.56C5.38617 93.38 6.95617 95.01 8.97617 96.1C9.98617 96.64 11.1062 97.04 12.2762 97.26C12.8662 97.36 13.4662 97.43 14.0762 97.43C14.4162 97.45 14.5762 97.43 14.8062 97.43H15.4662C18.9962 97.4 22.8162 97.37 26.8362 97.33C42.9162 97.22 62.2862 97.15 80.2062 97.27C105.526 97.27 121.196 97.25 129.386 97.25C148.716 97.22 163.166 96.88 177.346 96.25C185.136 95.9 185.136 92.99 177.346 92.64C163.166 92 148.716 91.66 129.386 91.64C121.876 91.64 106.226 90.84 84.1262 90.7C80.5262 90.68 76.9262 90.73 73.3562 90.86C57.9562 91.4 40.2462 91.6 26.3962 91.66C22.9362 91.66 19.7162 91.68 16.8262 91.68H14.7262C14.3462 91.68 14.1462 91.66 13.9162 91.66C13.6962 91.66 13.4762 91.6 13.2662 91.57C12.4262 91.39 11.6962 91.03 11.1162 90.6C9.95617 89.72 9.41617 88.63 9.19617 87.89C8.96617 87.14 8.97617 86.7 8.97617 86.7C8.97617 86.7 8.14617 71.84 7.13617 53.83C6.63617 44.81 6.08617 35 5.57617 25.88C5.44617 23.6 5.32617 21.36 5.20617 19.19C5.14617 18.1 5.08617 17.03 5.02617 15.98C4.99617 15.45 4.96617 14.93 4.93617 14.42L4.89617 13.65V13.06C4.91617 10 6.84617 7.5 8.94617 6.48C9.72617 6.07 10.5462 5.8 11.3762 5.7C11.5762 5.65 11.7862 5.65 11.9862 5.64C12.2062 5.64 12.3562 5.61 12.6562 5.61C13.1962 5.61 13.7162 5.61 14.2362 5.61C16.3162 5.61 18.2462 5.61 20.0562 5.61C23.6662 5.61 26.7662 5.61 29.4362 5.61C34.7862 5.61 38.4762 5.61 41.2762 5.61C58.2662 5.59 71.4762 5.32 84.0562 4.82L84.0462 4.83Z" fill="#101214"/>
<path d="M96.1862 177.96C96.5362 182.5 99.8862 182.5 100.236 177.96C100.736 171.53 100.996 164.77 101.016 156.08C100.856 146.23 100.166 143.78 100.246 137.11C100.246 125.84 101.176 106.82 101.406 102.24C101.436 101.56 101.446 100.88 101.436 100.2C101.306 95.35 100.806 74.05 101.046 55.72C101.046 42.77 101.026 34.76 101.026 30.57C100.996 20.68 100.656 13.3 100.026 6.05C99.6762 2.07 96.7662 2.07 96.4162 6.05C95.7762 13.3 95.4362 20.69 95.4162 30.57C95.4162 34.41 94.6162 42.41 94.4762 53.71C94.4562 55.55 94.5062 57.39 94.6362 59.22C95.7262 74.97 95.4162 95.43 95.4162 95.43C95.4162 95.43 95.4062 125.95 95.3962 138.83C95.3962 148.53 95.4062 153.2 95.4162 156.07C95.4362 164.76 95.7062 171.51 96.2062 177.95L96.1862 177.96Z" fill="#101214"/>
<path d="M101.746 183.63C97.2462 183.98 97.2462 187.33 101.746 187.68C108.126 188.18 114.836 188.44 123.456 188.46C133.226 188.3 135.656 187.61 142.276 187.69C153.456 187.69 172.326 188.62 176.876 188.85H177.126H177.446L178.096 188.83C178.526 188.83 178.956 188.78 179.386 188.69C180.146 188.57 181.236 188.35 182.516 187.84C183.806 187.36 185.286 186.59 186.736 185.42C188.186 184.25 189.616 182.68 190.706 180.69C191.816 178.72 192.516 176.3 192.606 173.75C192.576 169.63 192.556 165.08 192.526 160.41C192.506 155.8 192.526 151.06 192.586 146.52C192.586 133.67 192.566 125.72 192.566 121.56C192.536 111.75 192.196 104.42 191.566 97.22C191.216 93.27 188.306 93.27 187.956 97.22C187.316 104.42 186.976 111.75 186.956 121.56C186.956 125.37 186.156 133.31 186.016 144.53C185.996 146.36 186.046 148.18 186.176 149.99C186.446 153.9 186.636 158.1 186.756 162.2C186.806 164.25 186.856 166.28 186.896 168.23C186.916 169.21 186.926 170.16 186.936 171.1C186.936 172 186.976 173.04 186.936 173.66C186.796 176.49 185.406 178.65 184.216 179.85C183.916 180.16 183.616 180.4 183.366 180.63C183.096 180.83 182.866 181 182.676 181.13C182.276 181.37 182.056 181.5 182.056 181.5C182.056 181.5 181.976 181.55 181.826 181.64C181.666 181.72 181.426 181.83 181.126 181.98C180.506 182.24 179.586 182.61 178.386 182.74C177.346 182.88 175.346 182.81 173.386 182.83C171.386 182.83 169.196 182.83 166.906 182.83C157.736 182.83 146.966 182.83 140.576 182.83C130.946 182.83 126.316 182.84 123.466 182.85C114.846 182.87 108.136 183.14 101.756 183.64L101.746 183.63Z" fill="#101214"/>
</svg>
