<svg width="221" height="182" viewBox="0 0 221 182" fill="none" xmlns="http://www.w3.org/2000/svg">
<path d="M66.9212 155.272C61.9012 156.002 62.1512 159.342 67.2312 159.312C74.4212 159.262 81.9612 158.962 91.6312 158.252C92.3112 158.192 92.9712 158.132 93.5912 158.072C93.8312 158.052 94.0712 158.022 94.3112 158.002C94.6512 157.982 94.9712 157.962 95.3012 157.942C96.5812 157.852 97.7512 157.662 98.8112 157.412C100.941 156.912 102.651 156.192 104.171 155.372C105.681 154.502 106.981 153.512 108.221 152.292C109.451 151.052 110.581 149.512 111.471 147.462C112.201 145.742 112.601 143.652 112.651 141.702C112.791 139.912 112.931 138.032 113.081 136.122C113.421 132.292 113.771 128.312 114.101 124.562C114.801 117.072 115.471 110.502 115.741 107.962C115.821 107.212 115.871 106.452 115.901 105.692C116.091 100.282 116.971 76.5516 118.401 56.1416C118.541 54.3516 118.511 52.5716 118.601 51.0716C118.701 49.5316 118.831 48.0716 119.051 46.7316C119.461 44.0416 120.091 41.7416 120.911 40.0316C121.731 38.3116 122.701 37.2516 123.551 36.7116C124.391 36.1216 125.241 36.1316 126.031 36.0416C137.061 36.0116 145.301 35.6716 153.391 35.0416C157.831 34.6916 157.831 31.7816 153.391 31.4316C145.301 30.7916 137.061 30.4516 126.031 30.4316C125.371 30.4816 124.541 30.4916 123.661 30.6616C123.211 30.7816 122.751 30.9116 122.261 31.0416C121.771 31.1816 121.311 31.4616 120.801 31.6916C118.821 32.7316 117.041 34.6116 115.771 36.8516C114.481 39.0916 113.591 41.6916 112.961 44.5416C112.651 45.9616 112.411 47.4516 112.241 49.0016C112.081 50.5216 111.961 52.2216 111.941 53.7416C111.831 55.7916 111.741 57.8416 111.761 59.8816C111.821 77.4616 110.191 100.232 110.191 100.232C110.191 100.232 109.691 108.732 109.091 119.022C108.791 124.172 108.461 129.762 108.151 134.962C108.001 137.532 107.861 140.002 107.721 142.272C107.621 144.232 107.061 145.752 106.311 146.942C105.191 148.732 103.581 149.892 102.051 150.692C100.501 151.482 99.0012 151.882 97.6812 152.132C96.3612 152.392 95.2112 152.432 94.2212 152.462H93.8512L93.6412 152.492C93.5112 152.502 93.3812 152.512 93.2512 152.522C93.0012 152.542 92.7512 152.562 92.5212 152.582C92.0512 152.622 91.6212 152.652 91.2212 152.682C81.5612 153.432 74.0612 154.272 66.9412 155.312L66.9212 155.272Z" fill="#101214"/>
<path d="M7.54116 148.302C7.74116 147.842 7.92116 147.432 8.05116 147.062C8.17116 146.682 8.23116 146.332 8.24116 146.012C8.25116 145.372 8.05116 144.862 7.69116 144.572C7.33116 144.282 6.81116 144.212 6.18116 144.452C5.87116 144.572 5.52116 144.762 5.17116 145.042C4.80116 145.312 4.44116 145.682 4.11116 146.172C2.15116 148.852 0.601157 152.172 0.131157 156.102C0.041157 156.592 0.031157 157.082 0.021157 157.592C0.021157 158.092 -0.018843 158.612 0.011157 159.122C0.101157 160.142 0.161157 161.212 0.411157 162.252C0.591157 163.322 0.961157 164.362 1.30116 165.432C1.74116 166.462 2.17116 167.542 2.78116 168.552C4.15116 170.832 5.54116 172.482 6.89116 173.702C8.20116 174.952 9.43116 175.842 10.6512 176.622C13.1112 178.092 15.3212 179.042 18.6212 180.052C20.0212 180.432 21.5612 180.762 23.2012 180.972C24.8312 181.172 26.5612 181.282 28.3112 181.252C31.8312 181.182 35.4912 180.542 38.7612 179.462C42.0612 178.412 45.0212 176.902 47.3012 175.362C49.5912 173.832 51.1912 172.292 52.0712 171.422C52.5712 170.882 53.0612 170.332 53.4812 169.732C54.2412 168.662 55.6212 166.612 56.7812 163.582C57.3212 162.062 57.8312 160.322 58.1412 158.412C58.4312 156.492 58.5712 154.412 58.4612 152.232C58.2612 147.882 56.9812 143.172 54.6412 138.882C53.4912 136.742 52.0312 134.682 50.4312 132.902C48.8812 131.072 47.1012 129.392 45.2112 127.912C42.4912 125.862 39.6312 124.442 36.9112 123.602C34.1912 122.762 31.6312 122.442 29.4012 122.472C24.9312 122.532 21.7912 123.532 19.7412 124.272C14.8812 126.112 11.2012 128.792 8.30116 131.682C5.44116 134.622 3.25116 137.782 1.98116 141.402C1.64116 142.402 1.60116 143.242 1.79116 143.832C1.96116 144.422 2.29116 144.752 2.69116 144.842C3.52116 145.012 4.45116 144.342 5.29116 142.862C6.86116 140.112 9.10116 137.682 11.7612 135.392C14.4612 133.142 17.6912 131.022 21.6912 129.532C23.2312 128.952 25.7812 128.402 29.0012 128.502C32.2112 128.672 36.0712 129.582 39.9112 132.192L41.7712 133.502C42.3612 133.992 43.0012 134.422 43.6012 134.922C44.8812 135.972 46.2112 137.242 47.3312 138.582C48.4612 139.922 49.4712 141.412 50.2612 142.992C51.8912 146.142 52.6712 149.592 52.8112 152.622C52.9212 155.662 52.4212 158.242 51.8612 159.982C51.5612 160.842 51.3212 161.522 51.0912 161.962C50.8812 162.412 50.7712 162.652 50.7712 162.652C50.7712 162.652 50.5812 163.002 50.2512 163.642C49.9112 164.282 49.3512 165.162 48.5812 166.202C47.0112 168.242 44.3712 170.812 40.8112 172.692C37.2812 174.592 32.9512 175.912 28.9112 176.172C24.8412 176.492 21.1012 175.812 18.5412 174.902C14.6312 173.532 12.3912 171.512 10.7512 169.832C9.15116 168.142 8.27116 166.802 7.70116 165.762C7.22116 164.982 6.90116 164.172 6.54116 163.402C6.28116 162.602 5.96116 161.832 5.81116 161.042C5.58116 160.272 5.52116 159.492 5.40116 158.732C5.36116 158.352 5.37116 157.972 5.34116 157.602C5.32116 157.232 5.29116 156.852 5.34116 156.492C5.47116 153.542 6.31116 150.812 7.59116 148.282L7.54116 148.302Z" fill="#101214"/>
<path d="M212.381 25.3616C212.371 25.8616 212.361 26.3116 212.381 26.7016C212.411 27.1016 212.491 27.4516 212.611 27.7416C212.841 28.3416 213.221 28.7316 213.671 28.8616C214.111 28.9916 214.621 28.8616 215.111 28.4016C215.361 28.1716 215.601 27.8616 215.821 27.4716C216.051 27.0816 216.261 26.6016 216.371 26.0216C217.171 22.7916 217.341 19.1316 216.281 15.3316C216.171 14.8516 216.001 14.3816 215.811 13.9116C215.621 13.4416 215.461 12.9616 215.241 12.4916C214.771 11.5816 214.311 10.6216 213.681 9.74161C213.111 8.82161 212.371 8.00161 211.641 7.14161C210.841 6.35161 210.031 5.52161 209.091 4.82161C206.951 3.23161 205.041 2.24161 203.331 1.62161C201.641 0.961609 200.171 0.611609 198.741 0.351609C195.911 -0.0683908 193.501 -0.108391 190.071 0.211609C188.631 0.391609 187.081 0.671609 185.481 1.10161C183.891 1.54161 182.261 2.09161 180.641 2.79161C177.411 4.19161 174.271 6.17161 171.661 8.42161C169.011 10.6516 166.841 13.1616 165.321 15.4616C163.781 17.7416 162.891 19.7816 162.411 20.9216C162.161 21.6116 161.911 22.3016 161.751 23.0216C161.451 24.3016 160.961 26.7216 161.031 29.9616C161.111 31.5716 161.301 33.3716 161.741 35.2616C162.201 37.1416 162.871 39.1216 163.791 41.0916C165.631 45.0416 168.611 48.9116 172.401 51.9816C174.281 53.5216 176.411 54.8716 178.571 55.9116C180.701 57.0216 182.981 57.8916 185.301 58.5416C188.601 59.4116 191.781 59.6316 194.621 59.3716C197.461 59.1116 199.941 58.4416 201.991 57.5616C206.101 55.8016 208.621 53.6916 210.241 52.2216C214.041 48.6716 216.421 44.7916 218.001 41.0216C219.521 37.2216 220.351 33.4616 220.151 29.6216C220.081 28.5616 219.801 27.7816 219.401 27.3016C219.021 26.8216 218.591 26.6416 218.181 26.7016C217.351 26.8516 216.741 27.8316 216.531 29.5216C216.121 32.6616 214.971 35.7616 213.381 38.8916C211.741 42.0016 209.561 45.1916 206.431 48.0816C205.221 49.2016 203.081 50.6816 200.061 51.8116C197.031 52.8716 193.111 53.5016 188.571 52.5416L186.351 52.0416C185.621 51.8116 184.861 51.6616 184.121 51.4216C182.531 50.9316 180.831 50.2716 179.281 49.4516C177.721 48.6416 176.221 47.6516 174.901 46.4816C172.201 44.1916 170.161 41.2916 168.881 38.5416C167.621 35.7716 167.101 33.1916 166.961 31.3716C166.911 30.4616 166.881 29.7416 166.921 29.2416C166.941 28.7516 166.951 28.4816 166.951 28.4816C166.951 28.4816 166.991 28.0816 167.061 27.3616C167.141 26.6416 167.311 25.6116 167.631 24.3616C168.311 21.8716 169.771 18.5016 172.351 15.4116C174.891 12.3116 178.391 9.44161 182.031 7.67161C185.671 5.83161 189.391 5.04161 192.101 4.90161C196.241 4.68161 199.081 5.69161 201.231 6.63161C203.351 7.58161 204.671 8.49161 205.601 9.24161C206.341 9.78161 206.951 10.4016 207.571 10.9816C208.121 11.6216 208.711 12.2116 209.141 12.8816C209.651 13.5116 210.001 14.2016 210.401 14.8616C210.581 15.1916 210.721 15.5516 210.881 15.8916C211.041 16.2316 211.211 16.5616 211.301 16.9216C212.301 19.6916 212.561 22.5516 212.341 25.3716L212.381 25.3616Z" fill="#101214"/>
</svg>
