<svg width="204" height="213" viewBox="0 0 204 213" fill="none" xmlns="http://www.w3.org/2000/svg">
<path d="M129.224 120.96C131.464 123.28 134.334 121.51 132.344 118.38C130.854 116.27 129.154 114.17 126.934 112.28C124.734 110.38 122.144 108.53 118.954 107.03C117.134 106.23 115.614 105.67 114.284 105.31C112.964 104.9 111.834 104.69 110.794 104.49C109.754 104.26 108.774 104.14 107.754 103.96C106.734 103.78 105.644 103.59 104.364 103.36C102.194 102.98 99.6338 102.65 96.9738 102.37C95.6438 102.27 94.2838 102.14 92.9238 102.06C91.5638 102.02 90.2338 101.9 88.9038 101.91C83.6038 101.78 78.8538 102.36 77.0238 102.74C76.4738 102.82 75.9438 102.95 75.4138 103.13C74.4638 103.43 72.7138 103.98 70.4838 104.99C68.2538 105.98 65.5138 107.43 62.8238 109.57C60.1238 111.69 57.5038 114.51 55.4138 117.75C53.3138 120.98 51.7238 124.6 50.6438 128.14C49.2338 133.19 48.8138 137.35 48.6038 140.61C48.5638 141.43 48.5238 142.19 48.4838 142.9C48.4838 143.61 48.4738 144.26 48.4638 144.87C48.4338 146.08 48.4838 147.08 48.5038 147.9C48.6238 151.76 49.0338 155.1 49.5938 158.13C49.8738 159.65 50.1638 161.1 50.5338 162.49C50.8738 163.89 51.2438 165.24 51.6738 166.57C52.5838 169.51 55.4338 168.88 55.2238 165.9C55.0338 163.2 54.8438 160.47 54.6338 157.5C54.4238 154.55 54.2138 151.37 54.1338 147.74C54.1138 147.04 54.1238 146.14 54.2238 145.07C54.3038 144 54.4238 142.75 54.6238 141.36C55.0038 138.57 55.5738 135.14 56.6138 131.34C56.9338 130.09 57.2938 128.88 57.5638 127.63C58.2338 124.98 59.3838 122.26 60.9438 119.88C62.4938 117.5 64.4538 115.49 66.3938 114C68.3338 112.5 70.2438 111.54 71.6038 110.88C72.3038 110.59 72.8638 110.36 73.2438 110.2C73.6238 110.03 73.8438 109.98 73.8438 109.98C73.8438 109.98 74.1638 109.87 74.7338 109.67C75.2938 109.45 76.1438 109.2 77.1838 108.91C79.2838 108.34 82.2438 107.74 85.5738 107.46C88.8838 107.18 92.6038 107.14 96.0138 107.34C99.4238 107.55 102.544 107.92 104.834 108.38C105.704 108.51 106.494 108.73 107.244 108.89C107.994 109.05 108.684 109.22 109.314 109.42C109.954 109.6 110.544 109.77 111.094 109.93C111.634 110.12 112.134 110.29 112.594 110.46C113.524 110.77 114.284 111.09 114.924 111.37C115.564 111.66 116.134 111.85 116.574 112.1C119.374 113.39 121.674 114.88 123.744 116.34C125.834 117.78 127.574 119.38 129.274 120.97L129.224 120.96Z" fill="#101214"/>
<path d="M87.0338 89.85C85.1838 89.81 84.0738 90.46 83.8638 91.37C83.6538 92.26 84.4738 93.44 86.5738 93.87C89.5138 94.43 92.6238 94.68 96.0438 94.2C99.4438 93.76 103.204 92.58 106.744 90.02C108.714 88.54 110.054 87.01 111.024 85.63C112.034 84.26 112.664 82.99 113.204 81.81C114.234 79.43 114.864 77.35 115.594 74.32C116.164 71.74 116.514 68.7 116.494 65.5C116.474 62.3 116.014 58.91 114.984 55.81C113.984 52.7 112.414 49.92 110.744 47.9C109.104 45.84 107.444 44.55 106.534 43.84C105.974 43.45 105.404 43.04 104.794 42.74C103.714 42.18 101.664 41.19 98.8338 40.47C96.0038 39.72 92.4838 39.31 88.5738 39.51C86.6138 39.6 84.5338 39.91 82.4238 40.46C80.3238 41.01 78.1738 41.81 76.1638 42.98C72.1138 45.26 68.7538 48.93 66.6838 52.92C65.2538 55.77 64.4938 58.51 64.0038 60.98C63.5438 63.45 63.4038 65.67 63.3938 67.62C63.3738 71.54 63.9938 74.46 64.5038 76.41C65.7438 81.06 68.2238 84.81 71.1338 87.47C72.6138 88.78 74.1938 89.83 75.8138 90.65C77.4538 91.42 79.0938 92.05 80.7738 92.4C82.6238 92.81 83.6938 92.16 83.8638 91.39C84.0338 90.57 83.3838 89.63 81.9038 88.97C76.5438 86.55 71.9938 82.41 69.9238 74.93C69.5538 73.48 69.2338 71.14 69.4338 68.05C69.6438 64.97 70.2338 61.11 71.9238 57.25C72.5038 56.01 73.0538 54.77 73.7338 53.62C74.4538 52.37 75.3438 51.13 76.4538 50.08C77.5538 49.03 78.8338 48.11 80.2138 47.38C81.6038 46.66 83.0938 46.16 84.5738 45.78C86.0738 45.45 87.5538 45.23 88.9638 45.19C91.7938 45.07 94.2538 45.4 95.9038 45.77C96.7238 45.98 97.3738 46.16 97.8138 46.29C98.2438 46.45 98.4738 46.53 98.4738 46.53C98.4738 46.53 98.8338 46.63 99.4538 46.88C99.7538 47.01 100.134 47.17 100.564 47.36C100.994 47.55 101.444 47.82 101.974 48.09C104.004 49.24 106.534 51.3 108.364 54.33C110.224 57.34 111.214 61.25 111.454 64.97C111.684 68.72 111.204 72.22 110.524 74.65C109.504 78.34 108.024 80.73 106.724 82.34C105.404 83.95 104.304 84.87 103.424 85.51C100.764 87.45 97.9238 88.52 95.1638 89.12C92.4038 89.75 89.6738 89.91 87.0338 89.88V89.85Z" fill="#101214"/>
<path d="M185.874 184.72C185.564 185.01 185.284 185.29 185.034 185.57C184.764 185.82 184.514 186.06 184.294 186.3C183.854 186.77 183.514 187.21 183.264 187.61C182.774 188.41 182.674 189.05 182.924 189.44C183.174 189.83 183.794 189.96 184.734 189.73C185.204 189.62 185.764 189.42 186.394 189.12C186.714 188.97 187.044 188.8 187.394 188.6C187.724 188.38 188.074 188.12 188.444 187.84C192.614 184.73 196.484 180.77 199.484 175.58L200.054 174.61C200.234 174.28 200.384 173.92 200.544 173.58C200.864 172.88 201.194 172.18 201.524 171.47C201.814 170.74 202.054 169.98 202.324 169.22C202.454 168.84 202.584 168.45 202.714 168.07C202.824 167.68 202.904 167.27 203.004 166.87C203.874 163.67 204.144 160.12 203.854 156.43C203.454 152.24 202.344 148.94 201.074 146.34C200.754 145.69 200.484 145.04 200.144 144.47C199.794 143.9 199.454 143.35 199.124 142.82C198.494 141.74 197.764 140.85 197.094 139.96C194.324 136.5 191.594 133.9 187.244 130.66C186.334 129.96 185.304 129.36 184.284 128.67C183.214 128.06 182.144 127.37 180.974 126.8C178.674 125.57 176.164 124.5 173.544 123.58C168.314 121.68 162.504 120.67 157.054 120.46C151.584 120.24 146.374 120.86 142.194 121.94C138.004 123.03 134.824 124.44 133.124 125.36C132.084 125.85 131.134 126.5 130.164 127.13C128.504 128.33 125.384 130.63 122.214 134.58C120.684 136.58 119.094 138.94 117.794 141.69C116.494 144.43 115.384 147.52 114.624 150.85C113.064 157.51 113.064 165.16 114.734 172.6C115.544 176.32 116.834 180.02 118.444 183.45C119.934 186.93 121.884 190.23 123.954 193.35C127.004 197.7 130.434 201.22 133.944 203.86C137.454 206.52 140.984 208.32 144.204 209.57C145.804 210.23 147.364 210.64 148.814 211.07C149.544 211.26 150.254 211.39 150.934 211.54C151.614 211.69 152.264 211.83 152.904 211.9C154.174 212.07 155.334 212.26 156.404 212.3C157.474 212.37 158.434 212.46 159.294 212.43C167.484 212.51 174.474 210.59 180.364 207.85C186.254 205.08 191.224 201.49 194.984 196.76C195.994 195.44 196.554 194.29 196.694 193.41C196.864 192.54 196.714 192 196.364 191.8C196.014 191.6 195.444 191.72 194.774 192.17C194.124 192.63 193.264 193.35 192.264 194.39C188.524 198.15 183.774 201 178.334 203.21C172.894 205.39 166.574 206.92 159.364 206.82C158.664 206.84 157.874 206.76 156.994 206.68C156.114 206.63 155.154 206.46 154.104 206.27C153.054 206.13 151.954 205.78 150.754 205.5C150.154 205.35 149.564 205.11 148.944 204.91C148.324 204.71 147.684 204.49 147.044 204.2C141.884 202.16 136.074 198.23 131.054 191.88C130.294 190.8 129.434 189.8 128.704 188.68L127.594 187.03L127.024 186.21L126.514 185.35C123.484 180.43 120.894 174.7 119.874 168.76C119.344 165.8 119.064 162.82 119.174 159.95C119.274 157.09 119.634 154.34 120.224 151.84C121.444 146.84 123.464 142.85 125.234 140.32C125.694 139.7 126.104 139.14 126.464 138.65C126.834 138.17 127.194 137.8 127.464 137.48C127.744 137.16 127.954 136.92 128.094 136.75C128.254 136.6 128.334 136.52 128.334 136.52C128.334 136.52 128.814 136.04 129.684 135.17C130.144 134.77 130.714 134.28 131.374 133.71C132.074 133.2 132.844 132.57 133.774 131.98C137.404 129.53 143.134 127.06 149.864 126.21C156.574 125.32 164.124 125.89 170.684 127.9C173.974 128.89 177.024 130.2 179.694 131.64C182.364 133.07 184.614 134.67 186.424 136.15C189.154 138.38 191.204 140.66 192.794 142.78C193.174 143.32 193.544 143.85 193.894 144.36C194.234 144.87 194.494 145.39 194.784 145.88C195.054 146.38 195.354 146.83 195.584 147.31C195.794 147.79 195.994 148.25 196.194 148.69C196.384 149.14 196.604 149.55 196.744 149.97C196.884 150.4 197.014 150.8 197.134 151.2C197.264 151.59 197.384 151.97 197.504 152.33C197.624 152.69 197.664 153.06 197.744 153.4C197.884 154.09 198.014 154.71 198.134 155.3C198.194 155.89 198.244 156.43 198.294 156.94C198.534 159.98 198.374 162.92 197.694 165.62C197.624 165.96 197.564 166.3 197.484 166.63C197.384 166.96 197.274 167.29 197.174 167.61C196.964 168.26 196.784 168.91 196.564 169.54C196.304 170.16 196.044 170.77 195.794 171.37C195.664 171.67 195.554 171.98 195.414 172.27L194.954 173.13C192.584 177.73 189.434 181.51 185.904 184.74L185.874 184.72Z" fill="#101214"/>
<path d="M173.464 117.17C172.924 119.77 176.034 121.03 177.284 118.5C179.034 114.93 180.484 110.96 181.464 105.68C181.664 104.17 181.794 102.94 181.874 101.88C181.914 100.82 181.924 99.93 181.924 99.1C181.934 97.45 181.864 96.04 182.044 94.01C182.244 90.57 182.464 85.94 182.434 81.79C182.434 77.64 182.164 74 182.074 72.59C182.054 72.17 181.984 71.76 181.894 71.35C181.564 69.89 180.734 65.93 179.264 61.08C177.814 56.23 175.704 50.5 173.424 45.33C169.984 38.1 167.084 34 165.564 31.89C163.714 29.42 161.944 27.36 160.084 25.67C159.194 24.8 158.214 24.06 157.304 23.32C156.324 22.65 155.414 21.96 154.404 21.39C152.194 20.11 150.584 22.55 152.154 24.21C152.884 24.96 153.544 25.8 154.274 26.58C154.944 27.43 155.694 28.23 156.394 29.14C157.854 30.9 159.334 32.89 161.014 35.18C162.294 36.99 164.284 41.2 166.964 47.09C167.424 48.04 167.894 48.99 168.434 49.9C170.774 53.82 172.704 58.76 173.834 62.73C174.384 64.72 174.824 66.44 175.064 67.68C175.314 68.92 175.454 69.65 175.454 69.65C175.454 69.65 175.654 70.74 175.974 72.5C176.264 74.26 176.624 76.69 176.884 79.37C177.474 84.72 177.404 91.05 177.144 94.78C176.964 97.59 176.684 99.66 176.504 101.24C176.254 102.81 176.084 103.89 175.954 104.71C175.074 109.67 174.224 113.49 173.474 117.21L173.464 117.17Z" fill="#101214"/>
<path d="M146.664 35.27C147.304 36.24 147.924 37.06 148.484 37.75C149.014 38.46 149.494 39.02 149.944 39.46C150.824 40.32 151.524 40.64 151.934 40.43C152.344 40.22 152.474 39.49 152.224 38.24C152.094 37.62 151.874 36.87 151.544 36C151.184 35.15 150.694 34.19 150.084 33.12C149.674 32.35 149.194 31.62 148.714 30.88C148.234 30.14 147.764 29.39 147.264 28.66C146.194 27.24 145.194 25.73 143.984 24.36C141.694 21.5 139.024 18.82 136.064 16.25C133.104 13.67 129.754 11.29 126.034 9.15C122.314 7.01 118.204 5.11 113.694 3.58C103.364 0.26 96.5238 0.06 90.7438 0C84.9238 0.05 79.9938 0.5 72.8938 1.75C69.9038 2.34 66.6738 3.08 63.3538 4.13C60.0338 5.16 56.5938 6.42 53.2138 8.02C46.4338 11.17 39.8638 15.45 34.3138 20.22C28.7438 24.97 24.1738 30.15 20.7438 34.64C18.9738 36.85 17.6138 38.98 16.3938 40.73C15.2238 42.51 14.3538 44.01 13.6938 45.06C12.9138 46.31 12.2738 47.64 11.5938 48.95C10.3938 51.3 8.34384 55.72 6.20384 61.79C5.69384 63.31 5.10384 64.92 4.63384 66.65C4.38384 67.51 4.12384 68.39 3.86384 69.3C3.61384 70.2 3.40384 71.15 3.17384 72.1C2.67384 74 2.30384 76 1.92384 78.06C1.48384 80.11 1.23384 82.26 0.913839 84.46C-0.276162 93.27 -0.386161 103.17 1.07384 113.19C1.89384 118.18 2.94384 123.22 4.65384 128.06L5.25384 129.88L5.96384 131.66C6.45384 132.84 6.88384 134.05 7.42384 135.2C7.97384 136.35 8.52384 137.5 9.07384 138.64L9.48384 139.5L9.95384 140.32L10.8938 141.96C14.4738 148.11 18.6138 153.12 22.7538 157.18C23.8238 158.16 24.8538 159.12 25.8638 160.05C26.9138 160.93 27.9738 161.73 28.9738 162.54C29.4838 162.94 29.9738 163.35 30.4738 163.71C30.9938 164.06 31.4938 164.41 31.9938 164.75C32.9938 165.43 33.9638 166.09 34.9038 166.73C42.6338 171.48 48.9038 173.89 53.2338 175.28C63.4538 178.71 72.9038 179.77 81.5238 179.76C90.1638 179.72 98.0338 178.53 105.554 176.55C113.794 174.08 112.794 171.33 104.764 173.03C97.3638 174.33 89.8038 174.98 81.6138 174.69C73.4438 174.37 64.5838 173.19 55.0138 169.95C54.0838 169.63 53.0238 169.29 51.8738 168.84C50.7338 168.34 49.4838 167.79 48.1138 167.19C45.4138 165.91 42.3338 164.28 39.0238 162.14C38.1738 161.65 37.3638 161.03 36.5138 160.43C35.6738 159.82 34.8038 159.2 33.9138 158.56C33.0738 157.86 32.2138 157.14 31.3238 156.41C30.8838 156.04 30.4238 155.68 29.9938 155.29C29.5738 154.88 29.1438 154.47 28.7138 154.05C27.8638 153.2 26.9238 152.41 26.0938 151.47C25.2538 150.54 24.4038 149.59 23.5238 148.62C21.9038 146.58 20.1938 144.47 18.6838 142.08C16.6238 139.04 14.8738 135.79 13.1938 132.54C9.67384 125.45 7.34384 117.07 6.30384 108.71C5.26384 100.33 5.62384 92 6.58384 84.79C7.55384 77.56 9.10384 71.48 10.4938 67.26C11.1838 65.15 11.8138 63.5 12.2138 62.35C12.6738 61.23 12.9138 60.62 12.9138 60.62C12.9138 60.62 13.2838 59.71 13.9438 58.08C14.2738 57.26 14.7538 56.29 15.2738 55.15C15.5338 54.58 15.8138 53.97 16.1138 53.33C16.4238 52.69 16.7838 52.04 17.1438 51.34C20.0238 45.77 24.5138 38.28 30.8338 31.25C33.9438 27.69 37.5838 24.36 41.3938 21.25C43.3938 19.81 45.3038 18.25 47.4138 17.01C48.4538 16.38 49.4438 15.65 50.5138 15.1C51.5738 14.53 52.6238 13.96 53.6738 13.39C62.1138 9.01 70.7938 6.88 77.2638 5.95C87.0638 4.56 94.4438 5.19 99.9338 5.98C102.684 6.42 104.974 6.91 106.934 7.41C107.904 7.68 108.794 7.92 109.624 8.14C110.434 8.4 111.184 8.65 111.874 8.87C116.044 10.27 119.844 11.99 123.314 13.9C126.774 15.82 129.924 17.92 132.734 20.21C135.554 22.49 138.144 24.86 140.414 27.41C141.604 28.63 142.624 29.98 143.714 31.25C144.214 31.92 144.714 32.58 145.214 33.25C145.714 33.91 146.214 34.57 146.654 35.27H146.664Z" fill="#101214"/>
<path d="M141.534 169.28C139.934 168.52 138.014 171.27 139.084 172.5C140.604 174.28 142.244 176 144.414 178.14C145.704 179.3 146.584 179.95 147.354 180.53C147.734 180.82 148.094 181.09 148.444 181.42C148.614 181.58 148.794 181.75 148.964 181.94C149.184 182.19 149.494 182.58 149.784 182.95C150.984 184.45 152.464 186.67 154.124 189.18C154.934 187.99 155.754 186.76 156.564 185.57C157.384 184.41 158.184 183.28 158.904 182.25C159.094 181.98 159.274 181.72 159.454 181.47C159.574 181.33 159.684 181.2 159.794 181.07C160.014 180.81 160.224 180.57 160.404 180.36C160.784 179.93 161.074 179.59 161.274 179.36C161.444 179.18 161.584 178.98 161.704 178.77C162.534 177.25 166.594 170.69 171.214 165.94C174.324 162.47 176.394 160.45 177.474 159.41C180.024 156.93 181.784 154.92 183.394 152.75C184.274 151.56 182.454 149.29 181.084 149.98C178.594 151.22 176.274 152.81 173.574 155.37C172.534 156.36 169.804 157.91 166.814 161C166.324 161.5 165.904 162.06 165.544 162.67C163.984 165.26 162.004 168.04 160.444 170.21C158.884 172.37 157.724 173.91 157.724 173.91L156.134 176.23L154.644 178.5L154.034 179.47C153.904 179.67 153.784 179.92 153.654 180.08L153.264 179.54L152.764 178.92C152.484 178.59 152.224 178.29 151.974 178C151.704 177.69 151.454 177.41 151.214 177.15C150.744 176.62 150.324 176.18 149.964 175.8C149.234 175.04 148.724 174.53 148.334 174.15C145.934 171.83 143.754 170.37 141.514 169.28H141.534Z" fill="#101214"/>
</svg>
