<svg width="229" height="223" viewBox="0 0 229 223" fill="none" xmlns="http://www.w3.org/2000/svg">
<path d="M96.5663 87.2514C97.0463 87.7914 97.5163 88.2414 97.9563 88.5914C98.3863 88.9514 98.7663 89.2514 99.1263 89.4514C99.8463 89.8514 100.456 89.9214 100.846 89.6814C101.236 89.4314 101.406 88.8714 101.266 88.0014C101.186 87.5714 101.056 87.0514 100.786 86.4914C100.516 85.9414 100.146 85.3214 99.6763 84.6614C94.1163 77.2814 85.3663 71.5814 73.4063 68.8414C66.5863 67.4314 62.2563 67.4614 58.5363 67.5014C54.8263 67.5914 51.6363 67.8214 47.0663 68.2514C45.1263 68.4614 43.0863 68.6614 40.8363 69.0714C40.2763 69.1614 39.7163 69.2514 39.1463 69.3514C38.5763 69.4314 37.9963 69.5414 37.4263 69.7014C36.2763 69.9914 35.1063 70.2914 33.9263 70.5914C29.2463 72.0114 24.5463 74.2614 20.6263 77.1514C16.6963 80.0314 13.5063 83.4114 11.3063 86.4614C10.6963 87.1914 10.2763 87.9714 9.79631 88.6514C9.34631 89.3514 8.88631 89.9814 8.54631 90.6014C7.85631 91.8314 7.29631 92.8314 6.89631 93.5514C6.46631 94.4214 6.08631 95.3114 5.71631 96.2114C5.05631 97.7914 4.03631 100.761 2.97631 104.731C1.97631 108.711 1.07631 113.711 0.556313 119.311C0.0263133 124.901 -0.103687 131.071 0.0763133 137.381C0.176313 140.541 0.356313 143.731 0.576313 146.901C0.696313 148.481 0.826313 150.061 0.946313 151.631C1.00631 152.411 1.07631 153.181 1.13631 153.961L1.22631 155.101L1.29631 155.991L1.35631 157.081C1.41631 157.291 1.55631 157.781 1.69631 158.271C1.77631 158.491 1.79631 158.731 1.91631 158.921C2.01631 159.121 2.17631 159.301 2.33631 159.471C2.65631 159.801 3.02631 160.071 3.44631 160.281C4.26631 160.731 5.24631 160.961 6.19631 161.181C6.52631 161.241 6.85631 161.301 7.18631 161.361C7.45631 161.401 7.73631 161.451 8.00631 161.491C8.53631 161.561 9.05631 161.631 9.57631 161.701C11.6163 161.951 13.5263 162.121 15.3263 162.261C18.9263 162.541 22.1063 162.701 24.9163 162.841C30.5363 163.101 34.6563 163.231 37.4863 163.311C50.8463 163.671 60.8263 163.451 70.6163 162.891C75.9963 162.571 76.0063 159.661 70.6463 159.281C60.8863 158.561 50.9463 158.101 37.6563 157.691C35.0763 157.611 31.1063 157.291 25.8963 156.831C23.3063 156.591 20.4063 156.311 17.2063 156.011C15.6163 155.851 13.9663 155.671 12.2663 155.471C11.4163 155.361 10.5563 155.251 9.70631 155.121C9.28631 155.051 8.86631 154.981 8.44631 154.911L7.83631 154.791C7.83631 154.791 7.82631 154.791 7.81631 154.781C7.81631 154.771 7.81631 154.781 7.79631 154.781C7.79631 154.751 7.79631 154.841 7.76631 154.711L7.64631 153.701C7.55631 153.041 7.47631 152.381 7.38631 151.721C6.63631 146.481 6.04631 140.901 5.84631 135.421C5.62631 129.951 5.76631 124.601 6.22631 119.961C6.64631 115.311 7.42631 111.381 8.07631 108.641C8.42631 107.271 8.66631 106.171 8.91631 105.451C9.14631 104.721 9.26631 104.321 9.26631 104.321C9.26631 104.321 9.44631 103.731 9.76631 102.661C9.95631 102.141 10.1863 101.501 10.4563 100.761C10.7163 100.011 11.0163 99.1714 11.4263 98.2814C12.9263 94.6514 15.4863 89.8114 19.4263 85.4914C23.2963 81.1014 28.7963 77.7014 34.3763 75.7414C34.7263 75.6114 35.0663 75.4714 35.4163 75.3614C35.7763 75.2614 36.1263 75.1714 36.4763 75.0714C37.1763 74.8814 37.8763 74.6914 38.5563 74.5114C39.2363 74.3014 39.9263 74.1914 40.6063 74.0814C41.2863 73.9614 41.9563 73.8414 42.6063 73.7314C45.2363 73.2714 47.7763 73.0514 49.8663 72.8714C56.1763 72.3814 60.9063 72.6914 64.4463 73.0414C67.9863 73.4514 70.3963 73.8914 72.1963 74.3214C83.1563 76.8214 90.8963 81.3014 96.5963 87.2614L96.5663 87.2514Z" fill="#101214"/>
<path d="M53.8463 44.7214C52.2463 44.9014 51.3463 45.7114 51.2463 46.6414C51.1463 47.5514 51.9863 48.6014 53.8763 48.7714C56.5263 48.9714 59.2863 48.8714 62.2663 48.0814C65.2163 47.3314 68.4263 45.8714 71.2863 43.2114C72.8663 41.6714 73.8763 40.1714 74.5863 38.8314C75.3163 37.5014 75.7263 36.3014 76.0663 35.2014C76.6963 32.9814 77.0063 31.0714 77.3163 28.3314C77.5363 26.0014 77.5163 23.2914 77.1563 20.4814C76.7963 17.6714 76.0363 14.7314 74.7963 12.0914C73.5763 9.45142 71.8963 7.14142 70.1963 5.52142C68.5263 3.86142 66.9063 2.89142 66.0263 2.35142C65.4863 2.06142 64.9363 1.76142 64.3563 1.56142C63.3263 1.18142 61.3963 0.541417 58.8163 0.221417C56.2263 -0.128583 53.0763 -0.0885828 49.6563 0.521417C47.9363 0.821417 46.1263 1.32142 44.3263 2.04142C42.5263 2.76142 40.7163 3.71142 39.0663 4.96142C35.7263 7.43142 33.1563 11.0614 31.7563 14.8214C30.8063 17.5014 30.4363 20.0114 30.2763 22.2414C30.1463 24.4714 30.2663 26.4414 30.4663 28.1614C30.8863 31.6214 31.7563 34.1214 32.4163 35.8014C34.0263 39.7714 36.6563 42.8314 39.5363 44.8414C41.0063 45.8314 42.5163 46.5714 44.0463 47.1114C45.5863 47.6014 47.1063 47.9614 48.6363 48.0614C50.3163 48.2014 51.1963 47.4214 51.2563 46.6314C51.3263 45.8014 50.6663 44.9514 49.3263 44.5214C44.4563 42.9214 40.1863 39.8514 37.6163 33.6614C37.1463 32.4514 36.6463 30.4714 36.5163 27.7914C36.3863 25.1114 36.5163 21.7414 37.5563 18.2714C37.9263 17.1614 38.2463 16.0414 38.6863 14.9814C39.1463 13.8314 39.7563 12.6814 40.5763 11.6614C41.3963 10.6414 42.3763 9.72142 43.4663 8.93142C45.6763 7.40142 48.3063 6.47142 50.7163 6.09142C53.1463 5.68142 55.2963 5.70142 56.7463 5.84142C57.4763 5.93142 58.0563 6.02142 58.4463 6.08142C58.8363 6.17142 59.0463 6.22142 59.0463 6.22142C59.0463 6.22142 59.3663 6.27142 59.9163 6.41142C60.1863 6.49142 60.5263 6.59142 60.9163 6.70142C61.3063 6.82142 61.7263 7.00142 62.1963 7.17142C64.0563 7.93142 66.4363 9.42142 68.3163 11.8214C70.2263 14.1914 71.4963 17.4414 72.1063 20.6214C72.7063 23.8214 72.6663 26.9014 72.3463 29.0514C71.8663 32.3314 70.8463 34.5314 69.9163 36.0414C68.9663 37.5614 68.1163 38.4614 67.4363 39.1014C65.3763 41.0414 63.0663 42.2714 60.7563 43.0914C58.4563 43.9514 56.1263 44.4114 53.8363 44.6914L53.8463 44.7214Z" fill="#101214"/>
<path d="M135.056 155.861C133.426 155.091 131.516 157.841 132.606 159.081C134.146 160.891 135.826 162.621 138.026 164.811C139.336 165.991 140.226 166.661 141.006 167.251C141.396 167.551 141.756 167.821 142.106 168.151C142.286 168.311 142.456 168.491 142.636 168.681C142.856 168.931 143.166 169.311 143.446 169.681C144.636 171.171 146.166 173.441 147.846 175.991C148.666 174.781 149.506 173.531 150.316 172.321C151.136 171.151 151.936 170.021 152.666 168.991C152.856 168.721 153.046 168.461 153.226 168.211C153.346 168.071 153.456 167.931 153.576 167.801C153.796 167.541 154.006 167.301 154.196 167.071C154.576 166.631 154.876 166.281 155.076 166.061C155.246 165.881 155.396 165.681 155.516 165.461C156.356 163.911 160.486 157.251 165.186 152.431C168.346 148.901 170.446 146.861 171.546 145.791C174.136 143.271 175.926 141.231 177.576 139.031C178.476 137.821 176.656 135.551 175.266 136.261C172.746 137.531 170.386 139.151 167.646 141.751C166.586 142.761 163.826 144.341 160.796 147.481C160.296 147.991 159.866 148.551 159.506 149.171C157.916 151.801 155.896 154.611 154.326 156.821C152.746 159.011 151.566 160.581 151.566 160.581L149.946 162.941L148.436 165.251L147.786 166.281C147.656 166.481 147.526 166.741 147.396 166.901L146.996 166.351L146.466 165.681C146.176 165.351 145.916 165.031 145.666 164.741C145.396 164.431 145.136 164.141 144.896 163.871C144.416 163.331 143.996 162.891 143.626 162.501C142.886 161.731 142.366 161.211 141.966 160.821C139.536 158.471 137.316 156.981 135.046 155.871L135.056 155.861Z" fill="#101214"/>
<path d="M198.996 112.931C202.316 117.551 204.296 119.801 205.176 119.371C205.586 119.161 205.646 118.301 205.266 116.801C205.086 116.041 204.746 115.151 204.266 114.121C204.026 113.601 203.756 113.041 203.446 112.461C203.116 111.891 202.746 111.281 202.336 110.641C197.676 103.421 191.516 96.8314 183.606 91.3214C175.686 85.9014 165.966 81.4214 154.256 79.7714C147.616 78.9114 142.096 79.2914 137.476 80.0814C132.846 80.9414 129.086 82.2614 125.766 83.8314C119.256 87.0914 114.156 90.5914 107.726 96.7814C107.386 97.1114 107.046 97.4414 106.706 97.7814C106.386 98.1314 106.056 98.4914 105.726 98.8514C105.066 99.5714 104.376 100.301 103.716 101.061C102.436 102.631 101.066 104.211 99.8363 105.971C97.2963 109.421 94.8963 113.231 92.8363 117.311C90.7563 121.381 88.9363 125.701 87.4763 130.121C85.9863 134.541 85.0063 139.091 84.2763 143.501C83.5063 147.921 83.2163 152.291 83.1163 156.411C83.1163 158.471 83.1163 160.471 83.2663 162.391C83.3363 164.311 83.5763 166.151 83.7863 167.891C84.6763 174.881 86.4663 180.221 87.5663 183.131C87.8963 183.991 88.2363 184.861 88.5863 185.711L89.8163 188.221C91.3363 191.151 94.3663 196.611 100.056 202.471C102.936 205.341 106.376 208.371 110.546 210.991C114.696 213.631 119.456 216.011 124.696 217.871C129.936 219.721 135.646 221.091 141.616 221.711C147.586 222.341 153.796 222.291 159.986 221.511C166.176 220.751 172.366 219.231 178.246 217.161C179.746 216.731 181.176 216.061 182.636 215.491L184.806 214.601C185.536 214.311 186.256 214.021 186.946 213.651C188.346 212.951 189.736 212.251 191.126 211.561C191.826 211.231 192.496 210.831 193.156 210.421L195.136 209.221C202.556 204.631 208.456 199.171 212.926 193.611C217.406 188.041 220.496 182.431 222.736 177.311C226.986 166.931 228.146 158.711 228.656 153.161C229.246 146.571 229.056 140.361 228.386 134.541C227.726 128.721 226.556 123.291 224.976 118.211C221.816 108.091 217.376 99.1214 210.746 91.8514C209.886 90.8214 208.916 90.0914 208.146 89.4414C207.376 88.7814 206.616 88.3614 205.986 88.0614C204.736 87.4514 203.986 87.3714 203.746 87.7014C203.506 88.0314 203.756 88.7714 204.516 89.8114C204.896 90.3314 205.406 90.9214 205.966 91.6914C206.526 92.4514 207.286 93.2114 208.026 94.2214C213.676 101.311 217.446 109.961 220.116 119.621C221.456 124.461 222.436 129.631 222.966 135.131C223.506 140.631 223.636 146.471 223.076 152.651C222.656 157.431 221.416 164.861 217.646 173.751C215.696 178.151 213.176 182.931 209.586 187.611C205.986 192.271 201.416 196.851 195.776 200.891C192.146 203.591 188.176 205.821 184.176 207.921C183.646 208.231 183.086 208.481 182.516 208.721C181.946 208.971 181.386 209.221 180.816 209.471C179.676 209.971 178.526 210.491 177.356 210.971C176.156 211.391 174.946 211.811 173.736 212.231C172.516 212.631 171.316 213.141 170.066 213.431C168.826 213.771 167.576 214.101 166.326 214.441L162.516 215.211C161.256 215.511 159.956 215.611 158.676 215.801L156.756 216.061C156.116 216.121 155.466 216.151 154.826 216.201C153.536 216.261 152.256 216.431 150.986 216.401H147.166C145.906 216.321 144.646 216.241 143.406 216.161C142.156 216.101 140.936 215.871 139.716 215.731C134.866 215.021 130.246 213.921 126.126 212.371C117.846 209.321 111.446 205.051 107.486 201.491C106.516 200.581 105.636 199.761 104.876 199.051C104.166 198.281 103.566 197.621 103.076 197.091C102.586 196.561 102.196 196.151 101.976 195.841C101.746 195.541 101.626 195.391 101.626 195.391C101.626 195.391 101.446 195.161 101.096 194.721C100.766 194.271 100.206 193.661 99.6063 192.791C99.0263 191.901 98.2463 190.861 97.4663 189.581C96.7363 188.271 95.7963 186.831 95.0163 185.101C91.5463 178.391 88.6563 168.041 88.6763 156.451C88.6563 150.671 89.3063 144.621 90.5763 138.681C91.8463 132.771 93.8463 126.991 96.3163 121.681C98.7763 116.371 101.736 111.531 104.866 107.431C107.996 103.321 111.306 99.9614 114.326 97.3514C118.876 93.4214 123.406 90.6914 127.486 88.7414C131.556 86.8714 135.346 85.9214 138.656 85.4114C141.976 84.8914 144.836 84.8214 147.276 84.8614C149.726 84.8914 151.766 85.1214 153.526 85.3514C164.206 86.8314 173.246 90.8114 180.736 95.6414C188.216 100.551 194.236 106.411 199.016 112.941L198.996 112.931Z" fill="#101214"/>
</svg>
