<svg width="227" height="139" viewBox="0 0 227 139" fill="none" xmlns="http://www.w3.org/2000/svg">
<path d="M21.0946 0.043194C8.50463 -0.416806 8.28463 2.92319 20.8346 4.08319C38.6246 5.72319 57.3346 7.19319 81.4046 8.76319C95.0546 9.56319 103.585 9.90319 111.015 10.1932C114.725 10.3532 118.165 10.5032 121.835 10.6532C122.755 10.7032 123.685 10.7432 124.635 10.7932C125.415 10.8632 126.215 10.9632 126.995 11.2132C127.795 11.4132 128.555 11.8032 129.325 12.2232C130.065 12.7032 130.805 13.2432 131.455 13.9332C132.585 15.0832 133.445 16.5632 133.955 18.2132C134.155 19.0532 134.355 19.9132 134.355 20.8032C134.385 21.2032 134.365 21.8332 134.365 22.3632C134.365 22.9132 134.365 23.4732 134.365 24.0232C134.335 28.4832 134.295 33.1632 134.255 37.9432C134.145 47.4932 134.025 57.4232 133.915 66.7732C133.615 85.4732 133.345 101.853 133.245 108.213C133.215 110.093 133.205 111.973 133.215 113.863C133.225 115.553 133.255 117.943 133.275 120.953C133.275 121.703 133.285 122.493 133.295 123.323C133.285 123.633 133.275 123.953 133.255 124.283C133.235 124.603 133.165 124.913 133.125 125.243C132.895 126.533 132.345 127.883 131.425 129.103C130.525 130.323 129.245 131.413 127.685 132.093C127.305 132.293 126.885 132.383 126.475 132.543C126.045 132.623 125.625 132.783 125.175 132.803L124.505 132.883H123.815C123.615 132.903 123.295 132.893 122.985 132.883L122.045 132.853C117.035 132.673 111.625 132.483 105.915 132.283C83.1046 131.453 55.6146 130.393 30.1946 129.223C22.0646 128.943 15.3446 124.873 11.3646 119.733C9.35463 117.163 7.97463 114.363 7.12463 111.583C6.94463 110.883 6.77463 110.183 6.60463 109.503C6.46463 108.813 6.39463 108.123 6.28463 107.453C6.14463 106.783 6.18463 106.103 6.13463 105.443C6.11463 105.113 6.10463 104.783 6.08463 104.463C6.08463 104.103 6.08463 103.733 6.08463 103.373C6.08463 91.8632 6.08463 83.3932 6.08463 77.5832C6.05463 50.1332 5.71463 29.6232 5.08463 9.48319C4.73463 -1.57681 1.82463 -1.57681 1.47463 9.48319C0.824634 29.6232 0.484634 50.1332 0.464634 77.5832C0.464634 82.9132 0.264634 91.1332 0.044634 101.943C0.034634 102.623 0.014634 103.303 0.00463396 104.003C-0.015366 104.683 0.034634 105.523 0.054634 106.303C0.064634 106.703 0.084634 107.103 0.094634 107.503C0.144634 107.903 0.194634 108.303 0.244634 108.713C0.374634 109.523 0.414634 110.353 0.634634 111.163C1.27463 114.463 2.56463 117.833 4.51463 121.003C6.45463 124.173 9.07463 127.153 12.3346 129.603C15.5846 132.053 19.4746 133.993 23.7846 134.973C26.5446 135.633 29.6346 135.793 32.0346 135.843C34.5846 135.903 37.1246 135.963 39.6646 136.023C61.5446 136.383 86.6646 137.213 106.315 137.963C111.225 138.153 115.795 138.343 119.895 138.503C120.915 138.543 121.915 138.583 122.875 138.623C123.315 138.653 123.935 138.643 124.475 138.623C125.035 138.643 125.575 138.533 126.105 138.483C128.235 138.183 130.125 137.453 131.665 136.543C134.785 134.703 136.525 132.283 137.435 130.563C137.655 130.123 137.855 129.743 138.005 129.393C138.135 129.043 138.255 128.743 138.345 128.503C138.535 128.023 138.595 127.763 138.595 127.763C138.595 127.763 138.695 127.383 138.885 126.643C138.965 126.273 139.025 125.813 139.115 125.263C139.195 124.723 139.195 124.073 139.235 123.373C139.235 120.983 139.235 117.533 139.235 113.283C139.235 104.783 139.235 93.0732 139.235 80.2432C139.235 67.4132 139.235 53.4732 139.235 40.4932C139.235 34.0032 139.235 27.7632 139.235 22.0232C139.235 21.6432 139.245 21.3532 139.225 20.9132C139.205 20.4932 139.185 20.0632 139.165 19.6432C139.055 18.8032 138.935 17.9832 138.705 17.1932C138.275 15.6032 137.605 14.1332 136.765 12.8232C135.055 10.2232 132.705 8.32319 130.255 7.23319C128.435 6.39319 126.405 5.97319 124.635 5.87319C123.065 5.77319 121.545 5.67319 120.065 5.58319C117.125 5.39319 114.385 5.22319 111.825 5.05319C106.705 4.72319 102.325 4.44319 98.5246 4.20319C90.9346 3.71319 85.7146 3.38319 81.7446 3.13319C57.6846 1.63319 38.9446 0.693194 21.0946 0.043194Z" fill="#101214"/>
<path d="M156.005 54.7332C156.175 46.3032 152.835 46.0932 151.965 54.4832C151.355 60.4332 150.785 66.5332 150.245 73.1632C149.995 76.4832 149.725 79.9232 149.455 83.5432C149.395 84.4532 149.325 85.3632 149.265 86.2932L149.195 87.2932C149.225 87.7032 149.335 88.2532 149.375 88.4732C149.495 89.0632 149.645 89.6432 149.835 90.2232C150.605 92.5232 151.985 94.7032 153.915 96.4032C154.975 97.3632 156.345 98.1232 157.135 98.5532C158.045 99.0632 158.915 99.5432 159.745 100.003C161.415 100.913 162.925 101.743 164.325 102.513C167.145 104.013 169.505 105.273 171.695 106.453C176.095 108.783 179.835 110.763 185.185 113.893C190.545 116.983 196.955 120.783 203.335 124.603C206.525 126.523 209.705 128.443 212.755 130.273C213.515 130.733 214.265 131.193 215.005 131.643C216.035 132.263 217.045 132.863 218.045 133.463C220.715 135.053 223.285 136.583 225.735 138.033C225.765 135.463 225.795 132.993 225.815 130.613C225.825 129.403 225.845 128.213 225.855 127.053C225.865 126.403 225.885 125.773 225.895 125.153C225.945 122.773 225.995 120.613 226.045 118.703C226.145 114.873 226.215 112.013 226.265 110.273C226.295 109.013 226.305 107.753 226.295 106.493C226.165 97.4732 225.665 57.9232 225.905 23.8532V3.92322L192.825 19.0632C176.135 26.7232 163.795 32.7432 151.805 38.9232C145.225 42.3232 146.435 44.9632 153.305 42.2032C165.825 37.1832 178.445 31.7832 195.155 24.1632C197.705 22.9932 201.395 21.4432 206.225 19.4132C208.645 18.3932 211.345 17.2432 214.335 15.9832C215.825 15.3432 217.395 14.6732 219.035 13.9732L219.185 13.9132H219.195H219.225H219.275L219.355 13.9032C219.405 13.9032 219.445 13.9032 219.465 13.9032C219.425 14.0332 219.395 14.1232 219.365 14.1632C219.345 16.0032 219.325 18.0532 219.295 20.1632C219.275 23.5832 219.325 27.0032 219.455 30.3932C220.545 59.6632 220.235 97.6632 220.235 97.6632V128.563L184.815 108.103C177.005 103.603 171.225 100.263 166.825 97.7232C164.625 96.4532 162.765 95.3832 161.165 94.4632C160.375 94.0032 159.645 93.5832 158.975 93.1932C158.445 92.8932 158.005 92.5532 157.615 92.2132C156.435 91.1832 155.585 89.8632 155.105 88.4732C154.985 88.1232 154.895 87.7632 154.805 87.4132C154.765 87.1732 154.765 87.2032 154.755 87.1132L154.775 86.6632C154.825 85.7332 154.875 84.8132 154.925 83.9032C155.095 80.2732 155.255 76.8232 155.415 73.5032C155.695 66.8532 155.875 60.7332 155.995 54.7532L156.005 54.7332Z" fill="#101214"/>
</svg>
