<svg width="961" height="541" viewBox="0 0 961 541" fill="none" xmlns="http://www.w3.org/2000/svg">
<g clip-path="url(#clip0_287_84105)">
<mask id="mask0_287_84105" style="mask-type:luminance" maskUnits="userSpaceOnUse" x="-1" y="-1" width="961" height="541">
<path d="M959.96 -0.17041H-0.0400391V539.83H959.96V-0.17041Z" fill="white"/>
</mask>
<g mask="url(#mask0_287_84105)">
<path d="M959.92 -0.0205078H-0.079834V539.979H959.92V-0.0205078Z" fill="#292A2E"/>
<path d="M1054.85 80.5095C1056.64 70.4795 1057.57 59.8195 1057.57 48.5495C1057.57 37.2795 1056.62 26.3095 1054.8 16.1495C1043.94 -44.2705 1001.97 -81.5205 943.11 -91.0905C933.07 -92.7205 922.54 -93.5605 911.58 -93.5605C900.62 -93.5605 889.19 -92.6505 878.75 -90.9105C819.85 -81.0805 777.95 -43.9305 767.08 16.1495C765.24 26.2995 764.29 37.1095 764.29 48.5495C764.29 59.9895 765.23 70.4895 767.03 80.5095C777.82 140.519 819.76 177.739 878.75 187.579C889.19 189.319 900.15 190.229 911.58 190.229C923.01 190.229 933.07 189.389 943.11 187.759C1002.07 178.169 1044.08 140.859 1054.86 80.5195L1054.85 80.5095Z" fill="#3B3D42"/>
<path d="M110.85 33.7593C42.37 22.9593 -38.4099 -1.89072 -100.86 -43.2007L-126.2 117.369C-56.85 160.979 29.0301 184.209 99.8701 195.389C347.86 234.529 525.35 144.829 592.52 -47.5307L402.68 -77.4907C358.28 13.0493 264.61 58.0293 110.85 33.7593Z" fill="#3B3D42"/>
<path d="M973.55 408.519C841.84 395.569 796.91 528.519 650.77 491.319C493.44 451.269 533.45 294.069 376.12 254.019C218.78 213.969 178.77 371.179 21.4301 331.129C8.6701 327.879 -2.7799 323.859 -13.1499 319.199V573.429H973.55V408.509V408.519Z" fill="#1E1F21"/>
<path d="M276.32 444.709C273.5 442.409 272.77 443.259 275.44 445.729C279.22 449.239 283.26 452.849 288.51 457.419C294.5 462.549 296.14 463.669 300.16 467.189C306.98 473.109 318.29 483.339 321.01 485.809C321.41 486.169 321.82 486.529 322.24 486.889C325.21 489.409 338.2 500.469 349.24 510.169C357.08 516.969 361.93 521.179 364.46 523.379C370.45 528.569 374.99 532.369 379.52 536.019C382.01 538.029 382.64 537.289 380.31 535.109C376.06 531.139 371.66 527.169 365.69 521.969C363.37 519.949 358.7 515.539 351.89 509.569C350.78 508.599 349.66 507.639 348.52 506.719C338.75 498.719 326.44 487.889 326.44 487.889C326.44 487.889 307.97 471.849 300.18 465.079C294.31 459.979 291.48 457.529 289.75 456.029C284.49 451.469 280.34 447.989 276.34 444.729L276.32 444.709Z" fill="#505258"/>
<path d="M-36.4699 502.359C-55.2399 509.739 -54.8399 510.779 -35.9799 503.619C-9.23991 493.459 18.8201 482.709 54.8601 468.789C95.6501 452.879 105.8 448.919 133.44 438.139C154.22 430.149 181.34 419.719 206.06 410.209C230.97 400.679 253.47 392.069 264.76 387.749C269.18 379.049 270.61 376.229 271.68 374.139C273.04 371.449 274.4 368.759 275.77 366.069C285.49 346.789 328.14 262.259 364.86 189.459C390.83 138.059 406.9 106.249 415.29 89.6394C435.11 50.3994 449.83 21.0194 464.18 -7.85061C472.07 -23.7106 471.2 -24.1506 463.11 -8.39061C448.38 20.2994 433.46 49.5694 413.62 88.7994C405.87 104.019 389.72 135.739 366.92 180.519C363.24 187.829 359.57 195.149 355.92 202.399C324.65 265.089 283.53 346.239 283.53 346.239L263.33 386.199L125.67 439.409C85.4301 454.969 66.0701 462.449 54.1701 467.049C18.1401 480.979 -9.85991 491.899 -36.4799 502.369L-36.4699 502.359Z" fill="#505258"/>
<path d="M73.3701 3.59935C68.9101 -7.79065 67.8701 -7.39065 72.1101 4.07935C78.1201 20.3493 84.5201 37.4093 92.8401 59.2993C102.33 84.0893 104.89 90.1793 111.27 106.999C122.08 135.399 140.02 183.429 144.34 194.999C144.98 196.709 145.63 198.419 146.28 200.129C150.97 212.349 171.54 265.929 189.05 312.159C201.47 344.789 209.15 364.979 213.17 375.529C222.66 400.439 229.85 419.009 237 437.209C240.93 447.209 241.84 446.859 238.12 436.779C231.37 418.429 224.39 399.779 214.92 374.859C211.24 365.179 203.81 344.919 193.02 316.429C191.26 311.789 189.48 307.159 187.69 302.579C172.25 263.009 152.73 211.439 152.73 211.439C152.73 211.439 123.47 134.529 111.12 102.069C101.82 77.6293 97.3401 65.8693 94.5901 58.6393C86.2601 36.7593 79.6901 19.7593 73.3701 3.60935V3.59935Z" fill="#505258"/>
<path d="M341.13 356.61C332.68 361.11 333.2 362.1 341.75 357.81C353.88 351.72 366.58 345.25 382.85 336.84C401.27 327.25 405.76 324.67 418.26 318.23C439.38 307.3 475.14 289.15 483.76 284.78C485.03 284.13 486.31 283.48 487.58 282.81C496.66 278.07 536.47 257.28 570.85 239.58C595.11 227.03 610.12 219.26 617.96 215.2C636.48 205.61 650.27 198.35 663.75 191.13C671.16 187.17 670.71 186.3 663.2 190.06C649.52 196.9 635.62 203.96 617.1 213.53C609.9 217.25 594.79 224.77 573.6 235.68C570.15 237.46 566.71 239.26 563.31 241.06C533.96 256.65 495.59 276.39 495.59 276.39C495.59 276.39 438.41 305.97 414.27 318.45C396.1 327.86 387.35 332.38 381.98 335.16C365.71 343.59 353.09 350.21 341.12 356.6L341.13 356.61Z" fill="#505258"/>
<path d="M896.726 36.0535L544.152 65.4741L567.204 341.734L919.779 312.313L896.726 36.0535Z" fill="#1E1F21"/>
<path d="M896.73 36.0396L764.29 47.0896C764.29 47.5796 764.27 48.0596 764.27 48.5396C764.27 59.8196 765.21 70.4796 767.01 80.5096C777.8 140.52 819.74 177.74 878.73 187.58C888.57 189.22 898.87 190.11 909.59 190.21L896.72 36.0396H896.73Z" fill="#292A2E"/>
<path d="M384.42 398.639C386.21 388.609 387.14 377.949 387.14 366.679C387.14 355.409 386.19 344.439 384.37 334.279C373.51 273.859 331.54 236.609 272.68 227.039C262.64 225.409 252.11 224.569 241.15 224.569C230.19 224.569 218.76 225.479 208.32 227.219C149.42 237.049 107.52 274.199 96.6501 334.279C94.8101 344.429 93.8601 355.239 93.8601 366.679C93.8601 378.119 94.8001 388.619 96.6001 398.639C107.39 458.649 149.33 495.869 208.32 505.709C218.76 507.449 229.72 508.359 241.15 508.359C252.58 508.359 262.64 507.519 272.68 505.889C331.64 496.299 373.65 458.989 384.43 398.649L384.42 398.639Z" fill="#292A2E"/>
<path d="M328.21 247.45C312.23 237.32 293.52 230.44 272.67 227.05C262.63 225.42 252.1 224.58 241.14 224.58C230.18 224.58 218.75 225.49 208.31 227.23C149.41 237.06 107.51 274.21 96.6401 334.29C96.5401 334.82 96.4601 335.36 96.3701 335.89C183.5 322.97 232.77 246.4 328.22 247.45H328.21Z" fill="#3B3D42"/>
<path d="M420.45 158.159C420.41 157.939 420.37 157.719 420.32 157.509C394.8 170.819 367.12 181.359 337.41 189.049C343.08 200.429 353.7 207.579 367.36 209.849C370.51 210.379 373.81 210.649 377.26 210.649C380.71 210.649 383.74 210.399 386.77 209.909C404.55 207.019 417.22 195.759 420.47 177.569C421.01 174.539 421.29 171.329 421.29 167.929C421.29 164.529 421 161.219 420.45 158.159Z" fill="#3B3D42"/>
<path d="M514.11 43.0993C514.97 38.2693 515.42 33.1293 515.42 27.6993C515.42 22.2693 514.96 16.9793 514.08 12.0893C508.85 -17.0207 488.63 -34.9607 460.27 -39.5707C455.43 -40.3607 450.36 -40.7607 445.08 -40.7607C439.8 -40.7607 434.29 -40.3207 429.26 -39.4807C400.89 -34.7407 380.7 -16.8507 375.46 12.0993C374.58 16.9893 374.11 22.1993 374.11 27.7093C374.11 33.2193 374.56 38.2793 375.43 43.1093C380.63 72.0193 400.83 89.9493 429.25 94.6893C434.28 95.5293 439.56 95.9693 445.07 95.9693C450.58 95.9693 455.42 95.5693 460.26 94.7793C488.66 90.1593 508.9 72.1893 514.09 43.1193L514.11 43.0993Z" fill="#292A2E"/>
<path d="M441.89 22.4593C446.28 20.3693 445.83 19.3493 441.34 21.2293C434.98 23.8893 428.33 26.7693 419.82 30.5593C410.21 34.9093 407.9 36.1993 401.36 39.0893C390.33 44.0193 371.59 52.0493 367.08 53.9793C366.41 54.2693 365.75 54.5593 365.08 54.8593C360.35 57.0193 339.58 66.4793 321.6 74.4293C308.93 80.0893 301.09 83.5993 296.99 85.4293C287.32 89.7593 280.14 93.0893 273.12 96.4593C269.27 98.3093 269.66 99.1893 273.61 97.5593C280.79 94.5793 288.07 91.4593 297.75 87.1393C301.51 85.4593 309.45 82.2093 320.53 77.3093C322.33 76.5093 324.13 75.6893 325.9 74.8493C341.17 67.6293 361.23 58.7793 361.23 58.7793C361.23 58.7793 391.1 45.4393 403.71 39.8093C413.2 35.5693 417.77 33.5193 420.58 32.2693C429.08 28.4693 435.66 25.4293 441.88 22.4693L441.89 22.4593Z" fill="#505258"/>
<path d="M96.8901 517.859C97.9001 512.199 98.4301 506.179 98.4301 499.809C98.4301 493.439 97.8901 487.249 96.8601 481.519C90.7301 447.409 67.0301 426.379 33.8001 420.969C28.1301 420.049 22.1801 419.569 16.0001 419.569C9.82008 419.569 3.36008 420.079 -2.53992 421.069C-35.7899 426.619 -59.4499 447.589 -65.5899 481.519C-66.6299 487.249 -67.1699 493.349 -67.1699 499.809C-67.1699 506.269 -66.6399 512.199 -65.6199 517.859C-59.5299 551.739 -35.8499 572.749 -2.53992 578.309C3.35008 579.289 9.54008 579.809 16.0001 579.809C22.4601 579.809 28.1301 579.339 33.8001 578.409C67.0901 572.999 90.8101 551.929 96.8901 517.859Z" fill="#292A2E"/>
<path d="M284.82 387.43C266.2 384.54 266.02 385.65 284.61 388.76C310.96 393.18 338.66 397.74 374.28 403.49C414.66 409.95 424.75 411.34 452.1 415.78C475.35 419.58 506.63 424.69 534.31 429.21C560.88 420.26 584.05 412.45 593.07 409.41C595.73 408.5 598.4 407.6 601.07 406.69C614.4 402.13 659.28 386.77 723.16 364.91C731.76 365.39 755.63 366.7 778.4 367.96L882.01 373.65L883.15 372.98C918.48 352.05 944.83 336.32 970.64 320.8C984.82 312.27 984.33 311.43 970.03 319.76C944 334.92 917.54 350.46 882.2 371.37C882.06 371.45 881.91 371.54 881.55 371.75C865.75 370.83 832.93 368.91 786.84 366.23C779.21 365.83 771.57 365.43 764 365.03C750.84 364.36 736.89 363.65 722.89 362.94C670.66 380.8 619.18 398.4 619.18 398.4L534.16 427.38L445.27 413.04C405.49 406.63 386.35 403.54 374.58 401.64C338.96 395.9 311.23 391.52 284.83 387.43H284.82Z" fill="#505258"/>
<path d="M612.94 398.059L582.9 459.829C540.25 427.809 520.97 381.909 493.75 340.729L494.01 340.209L612.94 398.059Z" fill="#3B3D42"/>
<path d="M776.81 371.309C777.54 367.229 777.92 362.879 777.92 358.289C777.92 353.699 777.53 349.229 776.79 345.099C772.37 320.489 755.27 305.319 731.3 301.419C727.21 300.749 722.92 300.409 718.46 300.409C714 300.409 709.34 300.779 705.09 301.489C681.1 305.489 664.03 320.629 659.6 345.099C658.85 349.239 658.46 353.639 658.46 358.289C658.46 362.939 658.84 367.229 659.58 371.309C663.98 395.749 681.06 410.909 705.09 414.919C709.34 415.629 713.81 415.999 718.46 415.999C723.11 415.999 727.21 415.659 731.3 414.989C755.31 411.089 772.43 395.889 776.81 371.309Z" fill="#3B3D42"/>
<path d="M291.84 99.2497C292.06 98.0397 292.17 96.7497 292.17 95.3797C292.17 94.0097 292.06 92.6897 291.83 91.4597C290.52 84.1497 285.44 79.6397 278.32 78.4797C277.1 78.2797 275.83 78.1797 274.51 78.1797C273.19 78.1797 271.8 78.2897 270.54 78.4997C263.41 79.6897 258.34 84.1797 257.03 91.4497C256.81 92.6797 256.69 93.9897 256.69 95.3697C256.69 96.7497 256.8 98.0197 257.02 99.2397C258.33 106.5 263.4 111 270.54 112.19C271.8 112.4 273.13 112.51 274.51 112.51C275.89 112.51 277.11 112.41 278.32 112.21C285.45 111.05 290.54 106.54 291.84 99.2297V99.2497Z" fill="#292A2E"/>
<path d="M897.29 377.259C897.51 376.049 897.62 374.759 897.62 373.389C897.62 372.019 897.51 370.699 897.28 369.469C895.97 362.159 890.89 357.649 883.77 356.489C882.55 356.289 881.28 356.189 879.96 356.189C878.64 356.189 877.25 356.299 875.99 356.509C868.86 357.699 863.79 362.189 862.48 369.459C862.26 370.689 862.14 371.999 862.14 373.379C862.14 374.759 862.25 376.029 862.47 377.249C863.78 384.509 868.85 389.009 875.99 390.199C877.25 390.409 878.58 390.519 879.96 390.519C881.34 390.519 882.56 390.419 883.77 390.219C890.9 389.059 895.99 384.549 897.29 377.239V377.259Z" fill="#3B3D42"/>
<path d="M417.36 542.829C417.81 540.319 418.04 537.659 418.04 534.839C418.04 532.019 417.8 529.279 417.35 526.739C414.64 511.639 404.15 502.329 389.43 499.939C386.92 499.529 384.29 499.319 381.55 499.319C378.81 499.319 375.95 499.549 373.34 499.979C358.62 502.439 348.15 511.719 345.43 526.739C344.97 529.279 344.73 531.979 344.73 534.839C344.73 537.699 344.96 540.319 345.42 542.829C348.12 557.829 358.6 567.129 373.34 569.589C375.95 570.029 378.69 570.249 381.55 570.249C384.41 570.249 386.92 570.039 389.43 569.629C404.17 567.229 414.67 557.909 417.36 542.829Z" fill="#292A2E"/>
<path d="M26.6408 209.287L-43.1267 215.108L-35.6967 304.149L34.0708 298.327L26.6408 209.287Z" fill="#3B3D42"/>
<path d="M769.13 324.879C761.03 312.119 747.79 304.099 731.3 301.409C727.21 300.739 722.92 300.399 718.46 300.399C714 300.399 709.34 300.769 705.09 301.479C685.06 304.819 669.86 315.929 662.81 333.749L769.14 324.869L769.13 324.879Z" fill="#292A2E"/>
<path d="M1034.7 -10.9603C1039.7 -14.0703 1039.13 -15.0303 1034.01 -12.1203C1026.74 -7.99034 1019.15 -3.58034 1009.45 2.18966C998.48 8.76966 995.87 10.5997 988.41 15.0097C975.83 22.4997 954.44 34.8597 949.28 37.8397C948.52 38.2797 947.76 38.7297 947 39.1797C941.6 42.4397 917.92 56.7297 897.41 68.8397C882.95 77.4397 874.01 82.7697 869.34 85.5497C858.31 92.1197 850.12 97.1297 842.13 102.13C837.74 104.88 838.24 105.71 842.75 103.16C850.95 98.5297 859.26 93.7197 870.3 87.1597C874.59 84.6097 883.66 79.5197 896.3 72.0597C898.36 70.8397 900.4 69.6097 902.42 68.3597C919.82 57.5797 942.71 44.0797 942.71 44.0797C942.71 44.0797 976.79 23.8097 991.17 15.2597C1002 8.80966 1007.21 5.70966 1010.41 3.80966C1020.1 -1.97034 1027.6 -6.53034 1034.7 -10.9503V-10.9603Z" fill="#505258"/>
<path d="M724.65 369.88C721.6 364.2 720.61 364.71 723.45 370.5C727.48 378.71 731.79 387.29 737.43 398.28C743.87 410.7 745.67 413.69 749.98 422.14C757.3 436.39 769.38 460.57 772.28 466.4C772.71 467.26 773.15 468.12 773.59 468.98C776.78 475.1 790.76 501.94 802.6 525.15C811.01 541.52 816.22 551.65 818.94 556.94C825.37 569.43 830.27 578.72 835.17 587.79C837.86 592.77 838.72 592.33 836.24 587.24C831.72 577.98 827.02 568.58 820.61 556.08C818.12 551.22 813.16 540.98 805.86 526.68C804.67 524.35 803.46 522.03 802.24 519.74C791.68 499.99 778.49 474.08 778.49 474.08C778.49 474.08 758.67 435.49 750.3 419.21C744 406.95 740.96 401.05 739.1 397.42C733.45 386.44 728.98 377.94 724.66 369.88H724.65Z" fill="#505258"/>
<path d="M130.525 2.94969L20.7737 76.7554L94.5738 186.499L204.325 112.693L130.525 2.94969Z" fill="#1E1F21"/>
<path d="M582.9 459.829L555.1 516.989L436.17 459.15L493.75 340.729C520.97 381.909 540.25 427.809 582.9 459.829Z" fill="#292A2E"/>
<path d="M420.32 157.509C394.8 170.819 367.12 181.359 337.41 189.049C335.69 185.599 334.43 181.769 333.67 177.569C333.12 174.539 332.84 171.329 332.84 167.929C332.84 164.529 333.13 161.219 333.68 158.159C336.96 140.039 349.6 128.829 367.36 125.869C370.51 125.339 373.81 125.069 377.26 125.069C380.71 125.069 383.74 125.319 386.77 125.819C404.31 128.669 416.87 139.669 420.32 157.509Z" fill="#292A2E"/>
</g>
</g>
<defs>
<clipPath id="clip0_287_84105">
<rect width="960.011" height="540.01" fill="white"/>
</clipPath>
</defs>
</svg>
