<svg width="961" height="541" viewBox="0 0 961 541" fill="none" xmlns="http://www.w3.org/2000/svg">
<g clip-path="url(#clip0_287_84227)">
<mask id="mask0_287_84227" style="mask-type:luminance" maskUnits="userSpaceOnUse" x="-1" y="-1" width="961" height="541">
<path d="M959.919 -0.17041H-0.0810547V539.83H959.919V-0.17041Z" fill="white"/>
</mask>
<g mask="url(#mask0_287_84227)">
<path d="M959.919 -0.0205078H-0.0810547V539.979H959.919V-0.0205078Z" fill="#3A2C1F"/>
<path d="M1054.85 80.5095C1056.64 70.4795 1057.57 59.8195 1057.57 48.5495C1057.57 37.2795 1056.62 26.3095 1054.8 16.1495C1043.94 -44.2705 1001.97 -81.5205 943.109 -91.0905C933.069 -92.7205 922.539 -93.5605 911.579 -93.5605C900.619 -93.5605 889.189 -92.6505 878.749 -90.9105C819.849 -81.0805 777.949 -43.9305 767.079 16.1495C765.239 26.2995 764.289 37.1095 764.289 48.5495C764.289 59.9895 765.229 70.4895 767.029 80.5095C777.819 140.519 819.759 177.739 878.749 187.579C889.189 189.319 900.149 190.229 911.579 190.229C923.009 190.229 933.069 189.389 943.109 187.759C1002.07 178.169 1044.08 140.859 1054.86 80.5195L1054.85 80.5095Z" fill="#693200"/>
<path d="M110.859 33.7593C42.3788 22.9593 -38.4112 -1.89072 -100.861 -43.2007L-126.201 117.369C-56.8512 160.979 29.0288 184.209 99.8688 195.389C347.859 234.529 525.349 144.829 592.519 -47.5307L402.679 -77.4907C358.289 13.0493 264.619 58.0293 110.859 33.7593Z" fill="#693200"/>
<path d="M973.549 408.519C841.839 395.569 796.909 528.519 650.769 491.319C493.439 451.269 533.449 294.069 376.119 254.019C218.779 213.969 178.769 371.179 21.4286 331.129C8.66863 327.879 -2.78137 323.859 -13.1514 319.199V573.429H973.549V408.509V408.519Z" fill="#693200"/>
<path d="M276.329 444.709C273.509 442.409 272.779 443.259 275.449 445.729C279.229 449.239 283.269 452.849 288.519 457.419C294.509 462.549 296.149 463.669 300.169 467.189C306.989 473.109 318.299 483.339 321.019 485.809C321.419 486.169 321.829 486.529 322.249 486.889C325.219 489.409 338.209 500.469 349.249 510.169C357.089 516.969 361.939 521.179 364.469 523.379C370.459 528.569 374.999 532.369 379.529 536.019C382.019 538.029 382.649 537.289 380.319 535.109C376.069 531.139 371.669 527.169 365.699 521.969C363.379 519.949 358.709 515.539 351.899 509.569C350.789 508.599 349.659 507.639 348.529 506.719C338.759 498.719 326.449 487.889 326.449 487.889C326.449 487.889 307.979 471.849 300.189 465.079C294.319 459.979 291.489 457.529 289.759 456.029C284.499 451.469 280.349 447.989 276.349 444.729L276.329 444.709Z" fill="#3A2C1F"/>
<path d="M267.349 378.829C262.219 389.239 263.219 389.739 268.549 379.439C276.119 364.839 283.989 349.449 294.009 329.629C305.319 307.139 307.939 301.439 315.649 286.229C328.649 260.509 350.849 217.249 356.209 206.829C356.999 205.289 357.789 203.739 358.559 202.189C364.119 191.089 388.519 142.429 409.739 100.619C424.669 71.0693 433.909 52.7793 438.739 43.2193C450.129 20.6593 458.549 3.73929 466.719 -12.9007C471.209 -22.0407 470.339 -22.4807 465.649 -13.4407C457.099 3.00929 448.479 19.8193 437.069 42.3793C432.639 51.1493 423.169 69.2893 410.099 95.0493C407.969 99.2493 405.859 103.459 403.799 107.639C385.959 143.759 362.279 190.389 362.279 190.389C362.279 190.389 327.079 260.039 312.219 289.439C301.039 311.579 295.649 322.229 292.349 328.779C282.339 348.609 274.629 364.069 267.359 378.819L267.349 378.829Z" fill="#3A2C1F"/>
<mask id="mask1_287_84227" style="mask-type:luminance" maskUnits="userSpaceOnUse" x="300" y="183" width="88" height="87">
<path d="M387.269 183.419H300.699V269.989H387.269V183.419Z" fill="white"/>
</mask>
<g mask="url(#mask1_287_84227)">
<path d="M267.349 378.829C262.219 389.239 263.219 389.739 268.549 379.439C276.119 364.839 283.989 349.449 294.009 329.629C305.319 307.139 307.939 301.439 315.649 286.229C328.649 260.509 350.849 217.249 356.209 206.829C356.999 205.289 357.789 203.739 358.559 202.189C364.119 191.089 388.519 142.429 409.739 100.619C424.669 71.0693 433.909 52.7793 438.739 43.2193C450.129 20.6593 458.549 3.73929 466.719 -12.9007C471.209 -22.0407 470.339 -22.4807 465.649 -13.4407C457.099 3.00929 448.479 19.8193 437.069 42.3793C432.639 51.1493 423.169 69.2893 410.099 95.0493C407.969 99.2493 405.859 103.459 403.799 107.639C385.959 143.759 362.279 190.389 362.279 190.389C362.279 190.389 327.079 260.039 312.219 289.439C301.039 311.579 295.649 322.229 292.349 328.779C282.339 348.609 274.629 364.069 267.359 378.819L267.349 378.829Z" fill="#693200"/>
</g>
<path d="M-44.5913 505.489C-52.5513 508.689 -52.1413 509.729 -44.1013 506.749C-32.7013 502.519 -20.7513 497.999 -5.44133 492.089C11.8987 485.329 16.1287 483.449 27.8987 478.919C47.7687 471.239 81.4087 458.569 89.5087 455.519C90.7087 455.069 91.8987 454.609 93.0987 454.139C101.639 450.789 139.119 436.129 171.469 423.709C194.299 414.879 208.429 409.419 215.799 406.569C233.219 399.829 246.209 394.679 258.919 389.549C265.899 386.729 265.549 385.819 258.489 388.429C245.629 393.169 232.559 398.099 215.129 404.829C208.359 407.449 194.149 412.649 174.219 420.309C170.969 421.559 167.729 422.829 164.529 424.109C136.889 435.179 100.789 449.029 100.789 449.029C100.789 449.029 46.9787 469.829 24.2687 478.599C7.16867 485.209 -1.06133 488.399 -6.12133 490.349C-21.4313 496.279 -33.3113 500.959 -44.5913 505.499V505.489Z" fill="#3A2C1F"/>
<path d="M154.719 38.9492C140.679 37.8792 126.059 36.1592 110.849 33.7592C104.059 32.6892 97.1487 31.4792 90.1387 30.1292L130.529 2.96924L154.719 38.9492Z" fill="#693200"/>
<path d="M204.319 112.719L94.569 186.509L20.769 76.7594L90.139 30.1294C97.149 31.4794 104.059 32.6894 110.849 33.7594C126.059 36.1594 140.679 37.8794 154.719 38.9494L204.319 112.719Z" fill="#3A2C1F"/>
<path d="M341.129 356.61C332.689 361.11 333.199 362.1 341.749 357.81C353.879 351.72 366.579 345.25 382.849 336.84C401.269 327.25 405.759 324.67 418.259 318.23C439.379 307.3 475.139 289.15 483.759 284.78C485.029 284.13 486.309 283.48 487.579 282.81C496.659 278.07 536.469 257.28 570.849 239.58C595.109 227.03 610.119 219.26 617.959 215.2C636.479 205.61 650.269 198.35 663.749 191.13C671.159 187.17 670.709 186.3 663.199 190.06C649.519 196.9 635.619 203.96 617.099 213.53C609.899 217.25 594.789 224.77 573.599 235.68C570.149 237.46 566.709 239.26 563.309 241.06C533.959 256.65 495.589 276.39 495.589 276.39C495.589 276.39 438.409 305.97 414.269 318.45C396.099 327.86 387.349 332.38 381.979 335.16C365.709 343.59 353.089 350.21 341.119 356.6L341.129 356.61Z" fill="#693200"/>
<path d="M896.735 36.0594L544.16 65.48L567.213 341.74L919.787 312.319L896.735 36.0594Z" fill="#693200"/>
<path d="M896.729 36.0396L764.289 47.0896C764.289 47.5796 764.269 48.0596 764.269 48.5396C764.269 59.8196 765.209 70.4796 767.009 80.5096C777.799 140.52 819.739 177.74 878.729 187.58C888.569 189.22 898.869 190.11 909.589 190.21L896.719 36.0396H896.729Z" fill="#3A2C1F"/>
<path d="M384.419 398.639C386.209 388.609 387.139 377.949 387.139 366.679C387.139 355.409 386.189 344.439 384.369 334.279C373.509 273.859 331.539 236.609 272.679 227.039C262.639 225.409 252.109 224.569 241.149 224.569C230.189 224.569 218.759 225.479 208.319 227.219C149.419 237.049 107.519 274.199 96.6489 334.279C94.8089 344.429 93.8589 355.239 93.8589 366.679C93.8589 378.119 94.7989 388.619 96.5989 398.639C107.389 458.649 149.329 495.869 208.319 505.709C218.759 507.449 229.719 508.359 241.149 508.359C252.579 508.359 262.639 507.519 272.679 505.889C331.639 496.299 373.649 458.989 384.429 398.649L384.419 398.639Z" fill="#3A2C1F"/>
<path d="M328.219 247.45C312.239 237.32 293.529 230.44 272.679 227.05C262.639 225.42 252.109 224.58 241.149 224.58C230.189 224.58 218.759 225.49 208.319 227.23C149.419 237.06 107.519 274.21 96.6489 334.29C96.5489 334.82 96.4689 335.36 96.3789 335.89C183.509 322.97 232.779 246.4 328.229 247.45H328.219Z" fill="#693200"/>
<path d="M420.449 158.159C420.409 157.939 420.369 157.719 420.319 157.509C394.799 170.819 367.119 181.359 337.409 189.049C343.079 200.429 353.699 207.579 367.359 209.849C370.509 210.379 373.809 210.649 377.259 210.649C380.709 210.649 383.739 210.399 386.769 209.909C404.549 207.019 417.219 195.759 420.469 177.569C421.009 174.539 421.289 171.329 421.289 167.929C421.289 164.529 420.999 161.219 420.449 158.159Z" fill="#693200"/>
<path d="M514.109 43.0993C514.969 38.2693 515.419 33.1293 515.419 27.6993C515.419 22.2693 514.959 16.9793 514.079 12.0893C508.849 -17.0207 488.629 -34.9607 460.269 -39.5707C455.429 -40.3607 450.359 -40.7607 445.079 -40.7607C439.799 -40.7607 434.289 -40.3207 429.259 -39.4807C400.889 -34.7407 380.699 -16.8507 375.459 12.0993C374.579 16.9893 374.109 22.1993 374.109 27.7093C374.109 33.2193 374.559 38.2793 375.429 43.1093C380.629 72.0193 400.829 89.9493 429.249 94.6893C434.279 95.5293 439.559 95.9693 445.069 95.9693C450.579 95.9693 455.419 95.5693 460.259 94.7793C488.659 90.1593 508.899 72.1893 514.089 43.1193L514.109 43.0993Z" fill="#3A2C1F"/>
<path d="M441.899 22.4593C446.289 20.3693 445.839 19.3493 441.349 21.2293C434.989 23.8893 428.339 26.7693 419.829 30.5593C410.219 34.9093 407.909 36.1993 401.369 39.0893C390.339 44.0193 371.599 52.0493 367.089 53.9793C366.419 54.2693 365.759 54.5593 365.089 54.8593C360.359 57.0193 339.589 66.4793 321.609 74.4293C308.939 80.0893 301.099 83.5993 296.999 85.4293C287.329 89.7593 280.149 93.0893 273.129 96.4593C269.279 98.3093 269.669 99.1893 273.619 97.5593C280.799 94.5793 288.079 91.4593 297.759 87.1393C301.519 85.4593 309.459 82.2093 320.539 77.3093C322.339 76.5093 324.139 75.6893 325.909 74.8493C341.179 67.6293 361.239 58.7793 361.239 58.7793C361.239 58.7793 391.109 45.4393 403.719 39.8093C413.209 35.5693 417.779 33.5193 420.589 32.2693C429.089 28.4693 435.669 25.4293 441.889 22.4693L441.899 22.4593Z" fill="#3A2C1F"/>
<path d="M96.8989 517.859C97.9089 512.199 98.4389 506.179 98.4389 499.809C98.4389 493.439 97.8989 487.249 96.8689 481.519C90.7389 447.409 67.0389 426.379 33.8089 420.969C28.1389 420.049 22.1889 419.569 16.0089 419.569C9.82887 419.569 3.36887 420.079 -2.53113 421.069C-35.7811 426.619 -59.4411 447.589 -65.5811 481.519C-66.6211 487.249 -67.1611 493.349 -67.1611 499.809C-67.1611 506.269 -66.6311 512.199 -65.6111 517.859C-59.5211 551.739 -35.8411 572.749 -2.53113 578.309C3.35887 579.289 9.54887 579.809 16.0089 579.809C22.4689 579.809 28.1389 579.339 33.8089 578.409C67.0989 572.999 90.8189 551.929 96.8989 517.859Z" fill="#3A2C1F"/>
<path d="M542.599 424.79C531.229 428.79 531.589 429.85 543.039 426.07C559.269 420.71 576.289 415 598.139 407.56C622.889 399.07 628.969 396.75 645.759 391.05C658.019 386.91 673.929 381.54 688.519 376.61C703.039 371.76 716.239 367.34 723.189 365.02C729.789 365.41 732.089 365.55 733.709 365.64C735.509 365.74 737.309 365.84 739.109 365.95C751.989 366.62 808.489 369.55 857.129 372.31L882.039 373.68L918.609 352.03C941.209 338.64 958.039 328.54 974.509 318.55C983.559 313.06 983.069 312.22 973.899 317.51C957.209 327.14 940.259 337.05 917.649 350.42C911.119 354.24 899.289 361.14 881.509 371.53C876.909 371.26 870.019 370.86 862.569 370.42C857.689 370.17 852.799 369.92 847.959 369.67C806.139 367.73 751.879 364.65 751.879 364.65L722.919 363.06L640.899 391.02C616.499 399.34 604.769 403.34 597.549 405.8C575.709 413.25 558.739 419.13 542.619 424.8L542.599 424.79Z" fill="#693200"/>
<path d="M612.939 398.059L582.899 459.829C540.249 427.809 520.969 381.909 493.749 340.729L494.009 340.209L612.939 398.059Z" fill="#693200"/>
<path d="M582.899 459.829L555.099 516.989L436.169 459.15L493.749 340.729C520.969 381.909 540.249 427.809 582.899 459.829Z" fill="#3A2C1F"/>
<path d="M776.809 371.309C777.539 367.229 777.919 362.879 777.919 358.289C777.919 353.699 777.529 349.229 776.789 345.099C772.369 320.489 755.269 305.319 731.299 301.419C727.209 300.749 722.919 300.409 718.459 300.409C713.999 300.409 709.339 300.779 705.089 301.489C681.099 305.489 664.029 320.629 659.599 345.099C658.849 349.239 658.459 353.639 658.459 358.289C658.459 362.939 658.839 367.229 659.579 371.309C663.979 395.749 681.059 410.909 705.089 414.919C709.339 415.629 713.809 415.999 718.459 415.999C723.109 415.999 727.209 415.659 731.299 414.989C755.309 411.089 772.429 395.889 776.809 371.309Z" fill="#693200"/>
<path d="M291.849 99.2497C292.069 98.0397 292.179 96.7497 292.179 95.3797C292.179 94.0097 292.069 92.6897 291.839 91.4597C290.529 84.1497 285.449 79.6397 278.329 78.4797C277.109 78.2797 275.839 78.1797 274.519 78.1797C273.199 78.1797 271.809 78.2897 270.549 78.4997C263.419 79.6897 258.349 84.1797 257.039 91.4497C256.819 92.6797 256.699 93.9897 256.699 95.3697C256.699 96.7497 256.809 98.0197 257.029 99.2397C258.339 106.5 263.409 111 270.549 112.19C271.809 112.4 273.139 112.51 274.519 112.51C275.899 112.51 277.119 112.41 278.329 112.21C285.459 111.05 290.549 106.54 291.849 99.2297V99.2497Z" fill="#3A2C1F"/>
<path d="M897.289 377.259C897.509 376.049 897.619 374.759 897.619 373.389C897.619 372.019 897.509 370.699 897.279 369.469C895.969 362.159 890.889 357.649 883.769 356.489C882.549 356.289 881.279 356.189 879.959 356.189C878.639 356.189 877.249 356.299 875.989 356.509C868.859 357.699 863.789 362.189 862.479 369.459C862.259 370.689 862.139 371.999 862.139 373.379C862.139 374.759 862.249 376.029 862.469 377.249C863.779 384.509 868.849 389.009 875.989 390.199C877.249 390.409 878.579 390.519 879.959 390.519C881.339 390.519 882.559 390.419 883.769 390.219C890.899 389.059 895.989 384.549 897.289 377.239V377.259Z" fill="#693200"/>
<path d="M417.369 542.829C417.819 540.319 418.049 537.659 418.049 534.839C418.049 532.019 417.809 529.279 417.359 526.739C414.649 511.639 404.159 502.329 389.439 499.939C386.929 499.529 384.299 499.319 381.559 499.319C378.819 499.319 375.959 499.549 373.349 499.979C358.629 502.439 348.159 511.719 345.439 526.739C344.979 529.279 344.739 531.979 344.739 534.839C344.739 537.699 344.969 540.319 345.429 542.829C348.129 557.829 358.609 567.129 373.349 569.589C375.959 570.029 378.699 570.249 381.559 570.249C384.419 570.249 386.929 570.039 389.439 569.629C404.179 567.229 414.679 557.909 417.369 542.829Z" fill="#3A2C1F"/>
<path d="M26.6494 209.282L-43.1182 215.104L-35.6882 304.145L34.0793 298.323L26.6494 209.282Z" fill="#693200"/>
<path d="M769.129 324.879C761.029 312.119 747.789 304.099 731.299 301.409C727.209 300.739 722.919 300.399 718.459 300.399C713.999 300.399 709.339 300.769 705.089 301.479C685.059 304.819 669.859 315.929 662.809 333.749L769.139 324.869L769.129 324.879Z" fill="#3A2C1F"/>
<path d="M1034.71 -10.9603C1039.71 -14.0703 1039.14 -15.0303 1034.02 -12.1203C1026.75 -7.99034 1019.16 -3.58034 1009.46 2.18966C998.489 8.76966 995.879 10.5997 988.419 15.0097C975.839 22.4997 954.449 34.8597 949.289 37.8397C948.529 38.2797 947.769 38.7297 947.009 39.1797C941.609 42.4397 917.929 56.7297 897.419 68.8397C882.969 77.4397 874.019 82.7697 869.349 85.5497C858.319 92.1197 850.129 97.1297 842.139 102.13C837.749 104.88 838.249 105.71 842.759 103.16C850.959 98.5297 859.269 93.7197 870.309 87.1597C874.599 84.6097 883.669 79.5197 896.309 72.0597C898.369 70.8397 900.409 69.6097 902.429 68.3597C919.829 57.5797 942.719 44.0797 942.719 44.0797C942.719 44.0797 976.799 23.8097 991.179 15.2597C1002.01 8.80966 1007.22 5.70966 1010.42 3.80966C1020.11 -1.97034 1027.61 -6.53034 1034.71 -10.9503V-10.9603Z" fill="#3A2C1F"/>
<path d="M724.649 369.88C721.599 364.2 720.609 364.71 723.449 370.5C727.479 378.71 731.789 387.29 737.429 398.28C743.869 410.7 745.669 413.69 749.979 422.14C757.299 436.39 769.379 460.57 772.279 466.4C772.709 467.26 773.149 468.12 773.589 468.98C776.779 475.1 790.759 501.94 802.599 525.15C811.009 541.52 816.219 551.65 818.939 556.94C825.369 569.43 830.269 578.72 835.169 587.79C837.859 592.77 838.719 592.33 836.239 587.24C831.719 577.98 827.019 568.58 820.609 556.08C818.119 551.22 813.159 540.98 805.859 526.68C804.669 524.35 803.459 522.03 802.239 519.74C791.679 499.99 778.489 474.08 778.489 474.08C778.489 474.08 758.669 435.49 750.299 419.21C743.999 406.95 740.959 401.05 739.099 397.42C733.449 386.44 728.979 377.94 724.659 369.88H724.649Z" fill="#3A2C1F"/>
<path d="M420.319 157.509C394.799 170.819 367.119 181.359 337.409 189.049C335.689 185.599 334.429 181.769 333.669 177.569C333.119 174.539 332.839 171.329 332.839 167.929C332.839 164.529 333.129 161.219 333.679 158.159C336.959 140.039 349.599 128.829 367.359 125.869C370.509 125.339 373.809 125.069 377.259 125.069C380.709 125.069 383.739 125.319 386.769 125.819C404.309 128.669 416.869 139.669 420.319 157.509Z" fill="#3A2C1F"/>
<path d="M275.899 385.989C269.179 385.019 268.999 386.129 275.689 387.319C285.169 389.019 295.139 390.709 307.969 392.789C322.529 395.089 326.179 395.439 336.039 397.059C352.699 399.749 380.739 404.579 387.499 405.749C388.499 405.919 389.499 406.089 390.509 406.239C397.689 407.359 429.179 412.259 456.259 416.709C475.389 419.789 487.239 421.699 493.419 422.699C508.029 425.049 518.959 426.699 529.709 428.219C535.619 429.049 535.769 428.099 529.899 427.029C519.219 425.089 508.319 423.219 493.709 420.849C488.029 419.929 476.249 417.759 459.559 415.019C456.839 414.569 454.119 414.149 451.419 413.759C428.079 410.359 397.869 405.389 397.869 405.389C397.869 405.389 352.769 398.109 333.739 395.039C319.409 392.729 312.509 391.619 308.269 390.939C295.429 388.879 285.429 387.349 275.899 385.979V385.989Z" fill="#3A2C1F"/>
<mask id="mask2_287_84227" style="mask-type:luminance" maskUnits="userSpaceOnUse" x="93" y="224" width="295" height="285">
<path d="M384.419 398.639C386.209 388.609 387.139 377.949 387.139 366.679C387.139 355.409 386.189 344.439 384.369 334.279C373.509 273.859 331.539 236.609 272.679 227.039C262.639 225.409 252.109 224.569 241.149 224.569C230.189 224.569 218.759 225.479 208.319 227.219C149.419 237.049 107.519 274.199 96.6489 334.279C94.8089 344.429 93.8589 355.239 93.8589 366.679C93.8589 378.119 94.7989 388.619 96.5989 398.639C107.389 458.649 149.329 495.869 208.319 505.709C218.759 507.449 229.719 508.359 241.149 508.359C252.579 508.359 262.639 507.519 272.679 505.889C331.639 496.299 373.649 458.989 384.429 398.649L384.419 398.639Z" fill="white"/>
</mask>
<g mask="url(#mask2_287_84227)">
<path d="M275.899 385.989C269.179 385.019 268.999 386.129 275.689 387.319C285.169 389.019 295.139 390.709 307.969 392.789C322.529 395.089 326.179 395.439 336.039 397.059C352.699 399.749 380.739 404.579 387.499 405.749C388.499 405.919 389.499 406.089 390.509 406.239C397.689 407.359 429.179 412.259 456.259 416.709C475.389 419.789 487.239 421.699 493.419 422.699C508.029 425.049 518.959 426.699 529.709 428.219C535.619 429.049 535.769 428.099 529.899 427.029C519.219 425.089 508.319 423.219 493.709 420.849C488.029 419.929 476.249 417.759 459.559 415.019C456.839 414.569 454.119 414.149 451.419 413.759C428.079 410.359 397.869 405.389 397.869 405.389C397.869 405.389 352.769 398.109 333.739 395.039C319.409 392.729 312.509 391.619 308.269 390.939C295.429 388.879 285.429 387.349 275.899 385.979V385.989Z" fill="#693200"/>
</g>
<mask id="mask3_287_84227" style="mask-type:luminance" maskUnits="userSpaceOnUse" x="-14" y="247" width="988" height="327">
<path d="M973.549 408.519C841.839 395.569 796.909 528.519 650.769 491.319C493.439 451.269 533.449 294.069 376.119 254.019C218.779 213.969 178.769 371.179 21.4286 331.129C8.66863 327.879 -2.78137 323.859 -13.1514 319.199V573.429H973.549V408.509V408.519Z" fill="white"/>
</mask>
<g mask="url(#mask3_287_84227)">
<path d="M341.129 356.609C332.689 361.109 333.199 362.099 341.749 357.809C353.879 351.719 366.579 345.249 382.849 336.839C401.269 327.249 405.759 324.669 418.259 318.229C439.379 307.299 475.139 289.149 483.759 284.779C485.029 284.129 486.309 283.479 487.579 282.809C496.659 278.069 536.469 257.279 570.849 239.579C595.109 227.029 610.119 219.259 617.959 215.199C636.479 205.609 650.269 198.349 663.749 191.129C671.159 187.169 670.709 186.299 663.199 190.059C649.519 196.899 635.619 203.959 617.099 213.529C609.899 217.249 594.789 224.769 573.599 235.679C570.149 237.459 566.709 239.259 563.309 241.059C533.959 256.649 495.589 276.389 495.589 276.389C495.589 276.389 438.409 305.969 414.269 318.449C396.099 327.859 387.349 332.379 381.979 335.159C365.709 343.589 353.089 350.209 341.119 356.599L341.129 356.609Z" fill="#3A2C1F"/>
</g>
<mask id="mask4_287_84227" style="mask-type:luminance" maskUnits="userSpaceOnUse" x="729" y="404" width="65" height="81">
<path d="M793.539 472.47C784.899 477 776.059 481.19 766.889 484.82L729.899 415.2C730.359 415.13 730.829 415.06 731.289 414.99C741.039 413.4 749.649 409.96 756.729 404.79L793.539 472.47Z" fill="white"/>
</mask>
<g mask="url(#mask4_287_84227)">
<path d="M724.649 369.88C721.599 364.2 720.609 364.71 723.449 370.5C727.479 378.71 731.789 387.29 737.429 398.28C743.869 410.7 745.669 413.69 749.979 422.14C757.299 436.39 769.379 460.57 772.279 466.4C772.709 467.26 773.149 468.12 773.589 468.98C776.779 475.1 790.759 501.94 802.599 525.15C811.009 541.52 816.219 551.65 818.939 556.94C825.369 569.43 830.269 578.72 835.169 587.79C837.859 592.77 838.719 592.33 836.239 587.24C831.719 577.98 827.019 568.58 820.609 556.08C818.119 551.22 813.159 540.98 805.859 526.68C804.669 524.35 803.459 522.03 802.239 519.74C791.679 499.99 778.489 474.08 778.489 474.08C778.489 474.08 758.669 435.49 750.299 419.21C743.999 406.95 740.959 401.05 739.099 397.42C733.449 386.44 728.979 377.94 724.659 369.88H724.649Z" fill="#693200"/>
</g>
<mask id="mask5_287_84227" style="mask-type:luminance" maskUnits="userSpaceOnUse" x="764" y="36" width="146" height="155">
<path d="M896.729 36.0396L764.289 47.0896C764.289 47.5796 764.269 48.0596 764.269 48.5396C764.269 59.8196 765.209 70.4796 767.009 80.5096C777.799 140.52 819.739 177.74 878.729 187.58C888.569 189.22 898.869 190.11 909.589 190.21L896.719 36.0396H896.729Z" fill="white"/>
</mask>
<g mask="url(#mask5_287_84227)">
<path d="M1034.71 -10.9603C1039.71 -14.0703 1039.14 -15.0303 1034.02 -12.1203C1026.75 -7.99034 1019.16 -3.58034 1009.46 2.18966C998.488 8.76966 995.878 10.5997 988.418 15.0097C975.838 22.4997 954.448 34.8597 949.288 37.8397C948.528 38.2797 947.768 38.7297 947.008 39.1797C941.608 42.4397 917.928 56.7297 897.418 68.8397C882.968 77.4397 874.018 82.7697 869.348 85.5497C858.318 92.1197 850.128 97.1297 842.138 102.13C837.748 104.88 838.248 105.71 842.758 103.16C850.958 98.5297 859.268 93.7197 870.308 87.1597C874.598 84.6097 883.668 79.5197 896.308 72.0597C898.368 70.8397 900.408 69.6097 902.428 68.3597C919.828 57.5797 942.718 44.0797 942.718 44.0797C942.718 44.0797 976.798 23.8097 991.178 15.2597C1002.01 8.80966 1007.22 5.70966 1010.42 3.80966C1020.11 -1.97034 1027.61 -6.53034 1034.71 -10.9503V-10.9603Z" fill="#693200"/>
</g>
<mask id="mask6_287_84227" style="mask-type:luminance" maskUnits="userSpaceOnUse" x="374" y="-41" width="142" height="137">
<path d="M514.109 43.0993C514.969 38.2693 515.419 33.1293 515.419 27.6993C515.419 22.2693 514.959 16.9793 514.079 12.0893C508.849 -17.0207 488.629 -34.9607 460.269 -39.5707C455.429 -40.3607 450.359 -40.7607 445.079 -40.7607C439.799 -40.7607 434.289 -40.3207 429.259 -39.4807C400.889 -34.7407 380.699 -16.8507 375.459 12.0993C374.579 16.9893 374.109 22.1993 374.109 27.7093C374.109 33.2193 374.559 38.2793 375.429 43.1093C380.629 72.0193 400.829 89.9493 429.249 94.6893C434.279 95.5293 439.559 95.9693 445.069 95.9693C450.579 95.9693 455.419 95.5693 460.259 94.7793C488.659 90.1593 508.899 72.1893 514.089 43.1193L514.109 43.0993Z" fill="white"/>
</mask>
<g mask="url(#mask6_287_84227)">
<path d="M441.899 22.4593C446.289 20.3693 445.839 19.3493 441.349 21.2293C434.989 23.8893 428.339 26.7693 419.829 30.5593C410.219 34.9093 407.909 36.1993 401.369 39.0893C390.339 44.0193 371.599 52.0493 367.089 53.9793C366.419 54.2693 365.759 54.5593 365.089 54.8593C360.359 57.0193 339.589 66.4793 321.609 74.4293C308.939 80.0893 301.099 83.5993 296.999 85.4293C287.329 89.7593 280.149 93.0893 273.129 96.4593C269.279 98.3093 269.669 99.1893 273.619 97.5593C280.799 94.5793 288.079 91.4593 297.759 87.1393C301.519 85.4593 309.459 82.2093 320.539 77.3093C322.339 76.5093 324.139 75.6893 325.909 74.8493C341.179 67.6293 361.239 58.7793 361.239 58.7793C361.239 58.7793 391.109 45.4393 403.719 39.8093C413.209 35.5693 417.779 33.5193 420.589 32.2693C429.089 28.4693 435.669 25.4293 441.889 22.4693L441.899 22.4593Z" fill="#693200"/>
</g>
<mask id="mask7_287_84227" style="mask-type:luminance" maskUnits="userSpaceOnUse" x="58" y="-14" width="49" height="45">
<path d="M106.679 -13.6206V19.0094L90.139 30.1294C79.929 28.1594 69.509 25.8994 58.999 23.3194V-13.6206H106.679Z" fill="white"/>
</mask>
<g mask="url(#mask7_287_84227)">
<path d="M73.3689 3.59935C68.9089 -7.79065 67.8689 -7.39065 72.1089 4.07935C78.1189 20.3493 84.5189 37.4093 92.8389 59.2993C102.329 84.0893 104.889 90.1793 111.269 106.999C122.079 135.399 140.019 183.429 144.339 194.999C144.979 196.709 145.629 198.419 146.279 200.129C150.969 212.349 171.539 265.929 189.049 312.159C201.469 344.789 209.149 364.979 213.169 375.529C222.659 400.439 229.849 419.009 236.999 437.209C240.929 447.209 241.839 446.859 238.119 436.779C231.369 418.429 224.389 399.779 214.919 374.859C211.239 365.179 203.809 344.919 193.019 316.429C191.259 311.789 189.479 307.159 187.689 302.579C172.249 263.009 152.729 211.439 152.729 211.439C152.729 211.439 123.469 134.529 111.119 102.069C101.819 77.6293 97.3389 65.8693 94.5889 58.6393C86.2589 36.7593 79.6889 19.7593 73.3689 3.60935V3.59935Z" fill="#693200"/>
</g>
<path d="M140.369 256.719C156.809 243.179 177.039 233.769 200.139 228.779V256.719H140.369Z" fill="#693200"/>
<mask id="mask8_287_84227" style="mask-type:luminance" maskUnits="userSpaceOnUse" x="132" y="199" width="69" height="58">
<path d="M200.139 204.319V228.779C177.039 233.769 156.809 243.179 140.369 256.719H132.469V199.839C155.709 202.509 178.279 203.999 200.139 204.319Z" fill="white"/>
</mask>
<g mask="url(#mask8_287_84227)">
<path d="M73.3689 3.59935C68.9089 -7.79065 67.8689 -7.39065 72.1089 4.07935C78.1189 20.3493 84.5189 37.4093 92.8389 59.2993C102.329 84.0893 104.889 90.1793 111.269 106.999C122.079 135.399 140.019 183.429 144.339 194.999C144.979 196.709 145.629 198.419 146.279 200.129C150.969 212.349 171.539 265.929 189.049 312.159C201.469 344.789 209.149 364.979 213.169 375.529C222.659 400.439 229.849 419.009 236.999 437.209C240.929 447.209 241.839 446.859 238.119 436.779C231.369 418.429 224.389 399.779 214.919 374.859C211.239 365.179 203.809 344.919 193.019 316.429C191.259 311.789 189.479 307.159 187.689 302.579C172.249 263.009 152.729 211.439 152.729 211.439C152.729 211.439 123.469 134.529 111.119 102.069C101.819 77.6293 97.3389 65.8693 94.5889 58.6393C86.2589 36.7593 79.6889 19.7593 73.3689 3.60935V3.59935Z" fill="#693200"/>
</g>
<mask id="mask9_287_84227" style="mask-type:luminance" maskUnits="userSpaceOnUse" x="-127" y="-78" width="720" height="283">
<path d="M592.519 -47.5307C525.339 144.839 347.849 234.529 99.8688 195.389C29.0288 184.209 -56.8512 160.979 -126.201 117.369L-100.861 -43.2007C-44.6012 -5.99072 26.5288 17.8693 90.1388 30.1293L20.7688 76.7593L94.5688 186.509L204.319 112.719L154.719 38.9493C282.659 48.6893 362.669 4.08928 402.679 -77.4907L592.519 -47.5307Z" fill="white"/>
</mask>
<g mask="url(#mask9_287_84227)">
<path d="M73.3689 3.59935C68.9089 -7.79065 67.8689 -7.39065 72.1089 4.07935C78.1189 20.3493 84.5189 37.4093 92.8389 59.2993C102.329 84.0893 104.889 90.1793 111.269 106.999C122.079 135.399 140.019 183.429 144.339 194.999C144.979 196.709 145.629 198.419 146.279 200.129C150.969 212.349 171.539 265.929 189.049 312.159C201.469 344.789 209.149 364.979 213.169 375.529C222.659 400.439 229.849 419.009 236.999 437.209C240.929 447.209 241.839 446.859 238.119 436.779C231.369 418.429 224.389 399.779 214.919 374.859C211.239 365.179 203.809 344.919 193.019 316.429C191.259 311.789 189.479 307.159 187.689 302.579C172.249 263.009 152.729 211.439 152.729 211.439C152.729 211.439 123.469 134.529 111.119 102.069C101.819 77.6293 97.3389 65.8693 94.5889 58.6393C86.2589 36.7593 79.6889 19.7593 73.3689 3.60935V3.59935Z" fill="#3A2C1F"/>
</g>
</g>
</g>
<defs>
<clipPath id="clip0_287_84227">
<rect width="960.03" height="540.01" fill="white"/>
</clipPath>
</defs>
</svg>
