<svg width="960" height="540" viewBox="0 0 960 540" fill="none" xmlns="http://www.w3.org/2000/svg">
<g clip-path="url(#clip0_287_57836)">
<path d="M489.598 508.78C495.658 513.67 502.808 517.38 510.778 519.98C514.798 518.87 518.638 517.53 522.248 515.94C529.418 512.79 535.718 508.74 540.938 503.66C546.388 498.37 550.688 492.02 553.658 484.48C556.618 476.95 558.238 468.22 558.248 458.17C558.238 448.12 556.568 439.13 553.518 431.31C550.458 423.47 546.018 416.81 540.428 411.44C535.328 406.49 529.148 402.5 522.238 399.42C518.968 397.95 515.508 396.68 511.888 395.61C503.218 398.32 495.478 402.3 489.018 407.68C482.388 413.21 477.078 420.2 473.448 428.9C470.028 437.11 468.088 446.75 468.078 458.19C468.088 469.63 470.028 478.94 473.388 487.04C477.138 496.01 482.668 503.17 489.608 508.78H489.598Z" fill="#FCA700"/>
<path d="M434.88 399.59C428.14 402.67 422.14 406.54 417.17 411.28C411.47 416.68 406.91 423.21 403.75 430.97C400.6 438.73 398.84 447.74 398.84 458.09C398.84 468.45 400.53 477.2 403.58 484.66C406.63 492.13 411.04 498.34 416.59 503.65C421.76 508.54 427.87 512.46 434.85 515.53H434.86C447.45 521.16 462.61 523.88 479.13 523.88H481.63V523.92C488.66 523.8 495.39 523.17 501.74 522.03C495.73 519.38 490.19 516.03 485.32 511.9C478.29 505.94 472.61 498.37 468.77 489.14C465.13 480.37 463.07 470.32 463.07 458.28C463.07 458.25 463.07 458.22 463.07 458.19C463.07 458.16 463.07 458.13 463.07 458.1C463.07 446.06 465.12 435.71 468.83 426.8C472.88 417.07 478.97 409.19 486.52 403.09C491.49 399.07 497.1 395.83 503.18 393.29C495.67 391.79 487.6 391.04 479.13 391.04C462.95 391.04 447.38 393.84 434.89 399.58L434.88 399.59Z" fill="#FCA700"/>
<path d="M190.642 331.09L190.262 332.75H238.822L239.152 331.87C244.672 317.24 254.222 304.73 266.742 295.73C279.522 286.53 294.582 281.65 310.222 281.65C325.862 281.65 340.922 286.53 353.702 295.73C366.222 304.74 375.762 317.25 381.292 331.87L381.622 332.75H430.182L429.802 331.09C423.522 303.76 408.292 278.96 386.972 261.32C376.302 252.49 364.402 245.62 351.602 240.88C338.342 235.98 324.432 233.5 310.222 233.5C296.012 233.5 282.092 235.98 268.842 240.88C256.032 245.61 244.142 252.49 233.472 261.32C212.152 278.96 196.922 303.76 190.642 331.09Z" fill="#FCA700"/>
<path d="M550.019 227.92C535.519 256.25 522.969 294.14 516.879 339.08L685.639 338.33C691.789 302.73 702.779 263.82 718.819 227.18L550.019 227.93V227.92Z" fill="#FCA700"/>
<path d="M471.2 127.37H505.66L520.06 23.9902L399.32 187.54H462.82L462.88 187.1L471.2 127.37Z" fill="#FCA700"/>
<path d="M573.51 132.37H524.7H510.01L501.63 192.54H467.17L452.77 295.93L573.51 132.37Z" fill="#FCA700"/>
<path d="M173.388 151.19H147.328V228.89H173.388V151.19Z" fill="#FCA700"/>
<path d="M227.208 188.6L147.328 104.88V146.19H178.378V231.4V233.9H147.328V275.06L227.208 188.6Z" fill="#FCA700"/>
<path d="M524.271 394.68C531.631 397.96 538.321 402.25 543.901 407.66C550.021 413.54 554.87 420.84 558.18 429.31C561.49 437.79 563.26 447.44 563.26 458.07C563.26 458.1 563.26 458.13 563.26 458.16C563.26 458.19 563.26 458.22 563.26 458.25C563.26 468.88 561.54 478.28 558.32 486.48C555.1 494.68 550.37 501.66 544.43 507.42C538.72 512.98 531.89 517.35 524.26 520.69C522.87 521.3 521.43 521.87 519.98 522.41C527.34 523.96 535.2 524.71 543.35 524.71C553.63 524.71 562.57 523.55 571.22 521.11C580.5 518.53 588.85 514.48 595.8 508.85C602.75 503.22 608.33 496.03 612.11 487.03C615.48 478.91 617.48 469.37 617.48 458.09C617.48 446.81 615.48 436.95 612.05 428.72C608.27 419.69 602.7 412.49 595.75 406.87C588.81 401.25 580.48 397.22 571.22 394.64C562.58 392.21 553.13 391.04 543.35 391.04C535.41 391.04 527.83 391.74 520.68 393.18C521.89 393.66 523.091 394.15 524.271 394.68Z" fill="#FCA700"/>
<path d="M475.561 132.37L467.871 187.54H497.281L504.961 132.37H475.561Z" fill="#FCA700"/>
<path d="M36.76 413.26V325.44H150.24V540H191.23L228.57 453.74L208.12 388.15H256.96L282.7 328.69H352.8L316.9 419.58L354.45 540.01H681.15L708.3 494.85L626.39 367.2L631.06 367.28C631.06 367.28 632.14 367.3 634.05 367.33C635.96 367.36 638.7 367.41 642.03 367.47C648.68 367.58 657.65 367.73 666.95 367.89C685.55 368.2 705.45 368.53 710.66 368.61C711.35 368.61 711.79 368.62 711.89 368.62L713.38 368.59L719.88 380.4L767.22 294.46L767.93 293.17H769.39H769.43H769.58C769.71 293.17 769.89 293.17 770.13 293.17C770.61 293.17 771.3 293.15 772.18 293.14C773.94 293.11 776.44 293.07 779.48 293.02C785.56 292.92 793.78 292.78 802.47 292.64C819.85 292.35 839.1 292.03 846.8 291.9C849 291.86 850.26 291.84 850.26 291.84L854.93 291.76L773.02 419.41L845.52 540.03H880.27V421.11H826.47L922.62 329.37L960.01 363.92V254.8H901.86C902.52 257.28 903.1 259.85 903.58 262.54L904.1 265.48H795.13L796.02 262.3C799.82 248.78 804.62 238.39 810.61 230.62C816.59 222.85 823.81 217.76 832.1 215.02C833.59 214.53 835.11 214.11 836.66 213.76C837.9 207.27 839.49 201.23 841.43 195.64C846.77 180.25 854.81 168.21 865.38 159.35C872.42 153.44 880.57 148.95 889.73 145.75C901.94 141.49 915.92 139.54 931.57 139.54C941.8 139.54 951.28 140.36 959.99 142.09V71.88C955.51 78.45 950.18 84.16 944.17 89.02C934.06 97.2 922.03 103 908.84 106.67C896.6 110.12 883.92 111.75 869.59 111.75C855.26 111.75 841.47 110.12 828.78 106.59C815.43 102.88 803.36 97.08 793.26 88.91C783.15 80.75 775.03 70.23 769.6 57.21C764.73 45.48 761.97 32.02 761.97 15.84C761.97 10.3 762.3 5.04 762.92 0.03H704.1L761.3 183.47L762.31 186.71H663.34L634.95 95.68L633.67 98.92H554.7L597.51 0H448.61L355.23 123.57L352.51 124.58L337.69 103.04L286.4 170.92L283.68 171.93L207.47 61.13L208.2 59.78L208.32 59.56L208.82 58.64L290.87 34.95L276.31 13.78L277.05 12.43L277.17 12.21L277.67 11.29L316.77 0H156.81L75.18 110.58L90.59 0H0V413.26H36.76ZM616.74 488.95C612.65 498.72 606.53 506.63 598.96 512.74C591.4 518.86 582.41 523.19 572.58 525.92C563.45 528.49 554.01 529.7 543.36 529.7C532.71 529.7 522.45 528.49 512.99 525.86C512.33 525.68 511.68 525.47 511.03 525.27L510.68 525.36L510.36 525.26C500.75 527.73 490.24 528.94 479.13 528.94H476.63V528.84C460.53 528.58 445.57 525.77 432.83 520.09H432.82C425.39 516.82 418.77 512.59 413.14 507.26C407.12 501.51 402.26 494.67 398.95 486.53C395.63 478.39 393.84 468.97 393.84 458.07C393.84 447.15 395.69 437.48 399.11 429.07C402.53 420.66 407.52 413.51 413.72 407.65C419.17 402.45 425.65 398.31 432.8 395.03C446.17 388.9 462.38 386.04 479.13 386.03C490.82 386.03 501.85 387.4 511.87 390.21C512.24 390.1 512.61 389.98 512.99 389.87C522.44 387.23 532.65 386.03 543.36 386.03C553.54 386.03 563.44 387.24 572.59 389.81C582.39 392.54 591.36 396.86 598.92 402.97C606.48 409.08 612.6 416.99 616.69 426.78C620.4 435.69 622.51 446.21 622.51 458.08C622.51 469.95 620.4 480.17 616.75 488.94L616.74 488.95ZM726.52 222.14L724.93 225.68C707.92 263.6 696.4 304.33 690.2 341.23L689.85 343.31L512.91 344.1L511.39 342.37L511.53 341.25C517.64 293.82 530.86 253.93 546.25 224.29L546.58 223.66L547.19 223.3H547.21L547.8 222.94L726.51 222.15L726.52 222.14ZM521.88 13.1L527.73 5.18L510.71 127.37H583.42L445.11 314.74L462.13 192.55H389.42L521.88 13.1ZM310.22 228.49C325.01 228.49 339.53 231.08 353.33 236.18C366.67 241.11 379.06 248.27 390.16 257.46C412.35 275.83 428.14 301.56 434.68 329.96L436.47 337.74H378.17L376.62 333.63C371.43 319.9 362.51 308.21 350.79 299.78C338.83 291.18 324.83 286.65 310.23 286.64C295.63 286.64 281.63 291.17 269.67 299.78C257.95 308.21 249.03 319.9 243.84 333.63L242.29 337.74H183.99L185.78 329.96C192.31 301.56 208.11 275.82 230.3 257.46C241.39 248.28 253.79 241.11 267.13 236.18C280.94 231.08 295.45 228.49 310.24 228.49H310.22ZM13.05 146.19H142.32V92.39L234.06 188.54L142.32 287.84V233.89H13.05V146.19Z" fill="#FCA700"/>
<path d="M142.321 151.19H18.0508V228.89H142.321V151.19Z" fill="#FCA700"/>
<path d="M150.599 0H95.6394L82.8594 91.77L150.599 0Z" fill="#FCA700"/>
<path d="M838.941 416.08H880.251V385.03H960.001V370.7L922.661 336.2L838.941 416.08Z" fill="#FCA700"/>
<path d="M960 421.08H885.25V540H960V421.08Z" fill="#FCA700"/>
<path d="M697.689 420.66L717.019 385.57L710.419 373.59C709.739 373.59 708.839 373.57 707.739 373.55C705.379 373.51 702.129 373.46 698.279 373.4C690.599 373.27 680.549 373.11 670.579 372.94C656.529 372.7 642.629 372.47 635.629 372.35L714.179 494.75L686.979 540H754.499L757.959 533.53L697.679 420.66H697.689Z" fill="#FCA700"/>
<path d="M845.67 296.89C830.06 297.15 780.071 297.98 770.891 298.13L722.73 385.57L783.62 496.12L763.641 533.54L767.1 540.01H839.68L767.13 419.3L845.68 296.89H845.67Z" fill="#FCA700"/>
<path d="M760.8 538.83L760.18 540H761.42L760.8 538.83Z" fill="#FCA700"/>
<path d="M826.66 222.85C820 226.68 814.28 232.68 809.39 241.63C806.54 246.86 803.99 253.09 801.75 260.43H898.05C897.64 258.48 897.18 256.58 896.66 254.76H833.38V252.26C833.38 250.66 833.4 249.09 833.42 247.53C833.42 247.15 833.44 246.78 833.45 246.4C833.48 245.15 833.51 243.91 833.56 242.68C833.57 242.39 833.58 242.11 833.59 241.82C833.92 233.72 834.63 226.16 835.73 219.11C832.51 220 829.49 221.22 826.66 222.84V222.85Z" fill="#FCA700"/>
<path d="M960 390.03H885.25V416.09H960V390.03Z" fill="#FCA700"/>
<path d="M835.922 15.6202C835.922 20.7302 836.772 24.8202 838.242 28.3702C839.882 32.2802 842.272 35.3702 845.292 37.8002C848.312 40.2402 851.982 42.0202 856.142 43.1802C860.102 44.2802 864.472 44.8102 869.082 44.8102C873.702 44.8102 877.652 44.2902 881.512 43.2102C885.612 42.0702 889.262 40.2902 892.282 37.8402C895.302 35.3902 897.712 32.2902 899.362 28.3602C900.832 24.8002 901.722 20.6202 901.722 15.6102C901.722 10.6002 900.822 6.26023 899.332 2.66023C898.942 1.72023 898.502 0.840234 898.032 -0.00976562H839.582C839.102 0.830234 838.672 1.72023 838.272 2.66023C836.782 6.25023 835.922 10.5002 835.922 15.6102V15.6202Z" fill="#FCA700"/>
<path d="M807.969 37.54C810.439 43.58 813.999 48.6 818.489 52.89C822.679 56.85 827.629 60.02 833.279 62.52C843.489 67.09 855.819 69.31 869.279 69.31H871.779C883.969 69.06 895.069 66.92 904.339 62.86C910.149 60.31 915.259 57.02 919.479 52.92C923.879 48.64 927.359 43.51 929.769 37.4C932.169 31.29 933.489 24.19 933.489 16C933.489 10.22 932.799 4.88 931.529 0H903.599C903.709 0.25 903.829 0.49 903.939 0.75C905.709 5.01 906.719 10.02 906.719 15.62C906.719 21.22 905.709 26.1 903.969 30.29C902.009 34.98 899.049 38.8 895.419 41.73C891.789 44.67 887.499 46.73 882.849 48.03C878.529 49.24 874.069 49.82 869.069 49.81C864.089 49.81 859.269 49.25 854.789 48C850.079 46.69 845.779 44.63 842.139 41.7C838.509 38.77 835.559 34.96 833.619 30.3C831.879 26.1 830.909 21.3 830.919 15.63C830.919 9.96 831.879 5.02 833.649 0.76C833.759 0.5 833.879 0.26 833.989 0.01H806.119C804.829 4.83 804.129 10.14 804.129 16.01C804.129 24.43 805.499 31.51 807.969 37.55V37.54Z" fill="#FCA700"/>
<path d="M894.481 248.26C894.341 247.89 894.191 247.53 894.041 247.17C893.681 246.3 893.311 245.44 892.921 244.6C892.781 244.3 892.641 244.01 892.491 243.72C892.161 243.03 891.811 242.35 891.461 241.69C891.321 241.43 891.191 241.17 891.051 240.91C890.611 240.11 890.151 239.34 889.681 238.59C889.511 238.31 889.341 238.04 889.161 237.77C888.681 237.03 888.191 236.31 887.681 235.61C887.511 235.38 887.341 235.15 887.171 234.93C886.681 234.29 886.191 233.66 885.681 233.05C885.541 232.88 885.401 232.71 885.261 232.55C884.721 231.93 884.171 231.33 883.611 230.74C883.431 230.55 883.241 230.35 883.061 230.17C882.471 229.58 881.861 229 881.251 228.45C881.041 228.27 880.841 228.09 880.631 227.91C879.991 227.36 879.341 226.82 878.681 226.32C878.531 226.2 878.371 226.09 878.211 225.98C877.611 225.54 877.001 225.11 876.381 224.7C876.191 224.57 876.001 224.45 875.811 224.32C875.101 223.87 874.361 223.44 873.621 223.02C873.421 222.91 873.221 222.8 873.011 222.69C872.241 222.28 871.451 221.89 870.651 221.52C870.511 221.46 870.371 221.4 870.231 221.34C869.431 220.99 868.621 220.65 867.791 220.34C867.701 220.3 867.601 220.27 867.511 220.23C866.891 220 866.261 219.79 865.631 219.59C865.491 219.55 865.341 219.51 865.201 219.46C864.701 219.31 864.191 219.16 863.681 219.02C863.441 218.96 863.201 218.9 862.961 218.84C862.541 218.74 862.111 218.63 861.691 218.54C861.411 218.48 861.131 218.42 860.851 218.37C860.451 218.29 860.051 218.21 859.651 218.14C859.351 218.09 859.041 218.04 858.741 217.99C858.351 217.93 857.961 217.87 857.561 217.82C857.241 217.78 856.921 217.74 856.601 217.7C856.201 217.65 855.811 217.62 855.411 217.58C855.091 217.55 854.771 217.52 854.441 217.49C854.011 217.46 853.571 217.43 853.141 217.41C852.841 217.39 852.551 217.37 852.251 217.36C851.521 217.33 850.781 217.32 850.041 217.32C849.001 217.32 847.971 217.35 846.961 217.4C846.631 217.42 846.311 217.44 845.991 217.46C845.321 217.5 844.661 217.55 844.001 217.61C843.601 217.65 843.221 217.69 842.831 217.74C842.261 217.81 841.691 217.88 841.131 217.97C841.101 217.97 841.071 217.98 841.041 217.98C839.781 225.47 838.951 233.58 838.601 242.39C838.601 242.47 838.601 242.56 838.601 242.64C838.551 243.99 838.511 245.35 838.481 246.73C838.481 247.06 838.471 247.39 838.461 247.72C838.451 248.39 838.451 249.08 838.441 249.76H895.061C894.881 249.26 894.701 248.75 894.511 248.26H894.481Z" fill="#FCA700"/>
<path d="M887.14 152.04C874.7 157.17 864.64 164.96 856.88 175.91C851.71 183.22 847.58 191.95 844.54 202.27C843.55 205.61 842.69 209.13 841.93 212.81C842.51 212.74 843.09 212.67 843.68 212.62C843.95 212.59 844.22 212.57 844.5 212.55C845.15 212.5 845.81 212.46 846.47 212.42C846.73 212.41 847 212.39 847.26 212.38C848.17 212.35 849.08 212.32 850.01 212.32C850.71 212.32 851.41 212.33 852.11 212.36C852.36 212.36 852.61 212.38 852.87 212.39C853.31 212.41 853.76 212.43 854.2 212.46C854.48 212.48 854.77 212.5 855.05 212.52C855.46 212.55 855.87 212.59 856.27 212.63C856.55 212.66 856.83 212.69 857.11 212.72C857.53 212.77 857.94 212.82 858.36 212.88C858.62 212.92 858.87 212.95 859.13 212.99C859.61 213.06 860.09 213.14 860.56 213.23C860.74 213.26 860.92 213.29 861.1 213.32C861.77 213.44 862.43 213.58 863.08 213.73C863.12 213.73 863.15 213.75 863.19 213.76C863.8 213.9 864.41 214.05 865.02 214.21C865.18 214.25 865.34 214.3 865.5 214.34C865.98 214.47 866.46 214.61 866.94 214.76C867.12 214.82 867.3 214.87 867.48 214.93C867.94 215.08 868.4 215.23 868.85 215.39C869.02 215.45 869.19 215.51 869.36 215.57C869.84 215.75 870.32 215.93 870.8 216.12C870.93 216.17 871.05 216.22 871.18 216.27C873.01 217.03 874.79 217.89 876.5 218.87C876.62 218.94 876.73 219.01 876.85 219.07C877.14 219.24 877.43 219.4 877.72 219.58C877.8 219.63 877.88 219.69 877.97 219.74C878.79 220.24 879.59 220.77 880.37 221.33C880.58 221.48 880.79 221.64 881 221.79C881.24 221.96 881.48 222.13 881.72 222.31C882.24 222.7 882.74 223.11 883.24 223.53C883.38 223.65 883.52 223.77 883.66 223.89C884.33 224.46 884.99 225.06 885.64 225.68C885.83 225.86 886.02 226.03 886.2 226.22C886.88 226.89 887.54 227.58 888.18 228.29C888.38 228.52 888.59 228.74 888.79 228.97C889.42 229.69 890.04 230.43 890.63 231.19C890.8 231.41 890.97 231.64 891.14 231.87C891.63 232.52 892.1 233.18 892.57 233.86C892.74 234.11 892.92 234.36 893.09 234.61C893.62 235.41 894.12 236.23 894.62 237.07C894.81 237.4 895 237.72 895.19 238.06C895.67 238.91 896.13 239.77 896.58 240.66C896.64 240.77 896.7 240.88 896.76 241C896.94 241.37 897.11 241.75 897.29 242.13C897.39 242.34 897.49 242.54 897.58 242.75C897.82 243.26 898.04 243.78 898.27 244.31C898.37 244.55 898.47 244.78 898.57 245.02C898.79 245.54 899 246.07 899.21 246.6C899.3 246.84 899.4 247.09 899.49 247.33C899.7 247.88 899.9 248.44 900.1 249C900.17 249.2 900.24 249.41 900.31 249.62C900.32 249.66 900.34 249.71 900.35 249.75H960.01V147.15C951.41 145.36 941.94 144.49 931.59 144.49C914.44 144.49 899.6 146.91 887.16 152.03L887.14 152.04Z" fill="#FCA700"/>
<path d="M41.7617 330.44V378V413.26H77.0217H79.5217V540H145.242V330.44H41.7617Z" fill="#FCA700"/>
<path d="M41.7617 418.26V430.6V437.86V460.16V478.67V483.19V513.58V540H74.5217V418.26H41.7617Z" fill="#FCA700"/>
<path d="M36.76 483.19V478.67V460.16V437.86V430.6V418.26H0V504.42H14.24V504.57V540H36.76V513.58V483.19Z" fill="#FCA700"/>
<path d="M774.22 55.25C779.34 67.51 786.91 77.31 796.4 84.98C805.89 92.64 817.32 98.17 830.12 101.73C842.28 105.12 855.63 106.71 869.59 106.71C883.55 106.71 895.72 105.13 907.49 101.82C920.13 98.3 931.52 92.78 941.02 85.09C948.65 78.91 955.08 71.34 959.98 62.23V0H936.67C937.85 4.97 938.47 10.31 938.47 16C938.47 24.73 937.06 32.47 934.4 39.23C931.75 45.99 927.84 51.75 922.94 56.5C918.23 61.08 912.59 64.68 906.32 67.44C895.62 72.13 882.98 74.36 869.25 74.37H866.75V74.29C853.7 74.03 841.58 71.73 831.21 67.1C825.11 64.41 819.65 60.93 815 56.53C810.04 51.79 806.03 46.15 803.29 39.43C800.55 32.72 799.08 24.96 799.08 16C799.08 10.25 799.71 4.92 800.91 0H767.92C767.27 4.98 766.93 10.24 766.93 15.81C766.93 31.42 769.57 44.16 774.18 55.25H774.22Z" fill="#FCA700"/>
<path d="M9.24 509.57H0V540H9.24V509.57Z" fill="#FCA700"/>
<path d="M214.922 393.14L231.622 446.7L254.802 393.14H214.922Z" fill="#FCA700"/>
<path d="M760.799 528.22L774.879 501.85L777.929 496.15L719.869 390.75L703.379 420.69L733.259 476.65L760.799 528.22Z" fill="#FCA700"/>
<path d="M303.422 393.15L260.272 393.25L233.922 454.07L260.712 540H263.912L311.402 418.76L303.422 393.15Z" fill="#FCA700"/>
<path d="M269.328 540H349.208L313.968 426.98L269.328 540Z" fill="#FCA700"/>
<path d="M196.68 540H255.4L230.85 461.06L196.68 540Z" fill="#FCA700"/>
<path d="M285.99 333.68L262.41 388.14H305.15H307.09L311.5 402.28L314.52 411.97L345.45 333.68H285.99Z" fill="#FCA700"/>
<path d="M300.8 40.5699L337.88 94.4799L403.51 7.62988L298.91 37.8299L300.8 40.5699Z" fill="#FCA700"/>
<path d="M295.918 33.48L411.878 0H334.798L283.148 14.91L295.918 33.48Z" fill="#FCA700"/>
<path d="M284.799 164.74L334.709 98.69L334.509 98.41L293.849 39.29L214.309 62.26L284.799 164.74Z" fill="#FCA700"/>
<path d="M353.641 117.39L442.351 0H415.561L340.871 98.83L353.641 117.39Z" fill="#FCA700"/>
<path d="M630.27 93.9L632.58 88.05L605.13 0H602.96L562.32 93.9H630.27Z" fill="#FCA700"/>
<path d="M667.019 181.69H755.519L698.859 0H672.739L637.879 88.25L667.019 181.69Z" fill="#FCA700"/>
<path d="M667.348 0H610.398L635.618 80.37L667.348 0Z" fill="#FCA700"/>
<path d="M462.82 187.54H399.32L520.06 23.9902L505.66 127.37H507.83H510.71L527.72 5.18018L521.88 13.1002L389.41 192.54H462.12L462.82 187.54Z" fill="#FFC716"/>
<path d="M558.509 98.9H633.669L634.949 95.65L632.579 88.05L630.269 93.9H562.319L602.959 0H597.509L554.699 98.9H558.509Z" fill="#FFC716"/>
<path d="M637.879 88.25L672.739 0H672.729L637.879 88.25Z" fill="#FFC716"/>
<path d="M285.991 333.68H345.451L314.521 411.97L316.441 418.11L316.701 418.95L316.901 419.57L352.801 328.68H282.701L256.961 388.14H262.411L285.991 333.68Z" fill="#FFC716"/>
<path d="M231.621 446.7L231.631 446.75L254.861 393.14H254.801L231.621 446.7Z" fill="#FFC716"/>
<path d="M313.781 426.4L269.281 540H269.331L313.971 426.98L313.781 426.4Z" fill="#FFC716"/>
<path d="M228.918 454.86L228.568 453.74L191.238 540H196.678L230.848 461.06L228.918 454.86Z" fill="#FFC716"/>
<path d="M547.23 223.28H547.21L546.6 223.66L546.27 224.29C530.89 253.93 517.66 293.82 511.55 341.25L511.41 342.37L512.93 344.1L689.87 343.31L690.22 341.23C696.41 304.33 707.93 263.6 724.95 225.68L726.54 222.14L547.83 222.93L547.24 223.28H547.23ZM685.64 338.32L516.88 339.07C522.98 294.14 535.53 256.24 550.02 227.91L718.82 227.16C702.78 263.8 691.78 302.71 685.64 338.31V338.32Z" fill="#FFC716"/>
<path d="M284.801 164.74L214.311 62.2602L293.851 39.2902L292.821 37.8002L290.861 34.9502L208.811 58.6402L208.321 59.5602L208.201 59.7802L207.461 61.1202L283.671 171.93L286.401 170.92L337.691 103.04L334.711 98.6902L284.801 164.74Z" fill="#FFC716"/>
<path d="M298.91 37.8301L403.51 7.63012L403.52 7.62012L298.91 37.8201V37.8301Z" fill="#FFC716"/>
<path d="M340.869 98.83L415.559 0H415.539L340.859 98.82L340.869 98.83Z" fill="#FFC716"/>
<path d="M185.759 329.97L183.969 337.75H242.269L243.819 333.64C249.009 319.91 257.929 308.22 269.649 299.79C281.609 291.19 295.609 286.66 310.209 286.65C324.809 286.65 338.819 291.18 350.769 299.79C362.489 308.22 371.409 319.91 376.599 333.64L378.149 337.75H436.449L434.659 329.97C428.119 301.57 412.329 275.83 390.139 257.47C379.049 248.29 366.649 241.12 353.309 236.19C339.499 231.09 324.989 228.5 310.199 228.5C295.409 228.5 280.889 231.09 267.089 236.19C253.749 241.12 241.359 248.28 230.259 257.47C208.069 275.84 192.279 301.57 185.739 329.97H185.759ZM268.839 240.88C282.099 235.98 296.009 233.5 310.219 233.5C324.429 233.5 338.349 235.98 351.599 240.88C364.409 245.61 376.299 252.49 386.969 261.32C408.289 278.96 423.519 303.76 429.799 331.09L430.179 332.75H381.619L381.289 331.87C375.769 317.24 366.219 304.73 353.699 295.73C340.909 286.53 325.859 281.65 310.219 281.65C294.579 281.65 279.519 286.53 266.739 295.73C254.219 304.74 244.679 317.25 239.149 331.87L238.819 332.75H190.259L190.639 331.09C196.919 303.76 212.149 278.96 233.469 261.32C244.139 252.49 256.039 245.62 268.839 240.88Z" fill="#FFC716"/>
<path d="M142.331 228.9H18.0508V151.19H142.331V146.19H13.0508V233.9H142.331V228.9Z" fill="#FFC716"/>
<path d="M36.7617 325.44V378V413.26H41.7617V378V330.44H145.242V540H150.242V325.44H36.7617Z" fill="#FFC716"/>
<path d="M9.24 509.42H0V509.56H9.24V509.42Z" fill="#FFC716"/>
<path d="M36.76 413.26H0V418.26H36.76V413.26Z" fill="#FFC716"/>
<path d="M833.652 0.75C831.882 5.01 830.912 9.95 830.922 15.62C830.922 21.29 831.892 26.1 833.622 30.29C835.572 34.96 838.512 38.77 842.142 41.7C845.772 44.63 850.082 46.69 854.792 48C859.272 49.25 864.082 49.81 869.072 49.81C874.072 49.81 878.532 49.24 882.852 48.03C887.502 46.73 891.792 44.67 895.422 41.73C899.052 38.79 902.012 34.97 903.972 30.3C905.712 26.1 906.722 21.23 906.722 15.62C906.722 10.02 905.712 5.01 903.942 0.75C903.832 0.49 903.712 0.25 903.602 0H898.022C898.502 0.84 898.932 1.73 899.322 2.67C900.822 6.27 901.712 10.61 901.712 15.62C901.712 20.62 900.822 24.81 899.352 28.37C897.702 32.29 895.292 35.4 892.272 37.85C889.252 40.3 885.602 42.08 881.502 43.22C877.642 44.3 873.702 44.82 869.072 44.82C864.462 44.82 860.092 44.3 856.132 43.19C851.972 42.03 848.302 40.25 845.282 37.81C842.262 35.37 839.872 32.28 838.232 28.38C836.762 24.83 835.912 20.74 835.912 15.63C835.912 10.52 836.772 6.27 838.262 2.68C838.652 1.74 839.092 0.86 839.572 0.01H833.992C833.882 0.26 833.762 0.5 833.652 0.75Z" fill="#FFC716"/>
<path d="M524.27 394.68L524.28 394.69L524.27 394.68Z" fill="#FFC716"/>
<path d="M540.941 503.66C535.721 508.74 529.421 512.8 522.251 515.94C518.641 517.52 514.801 518.86 510.781 519.98C510.871 520.01 510.971 520.04 511.061 520.07C514.981 518.97 518.721 517.66 522.251 516.12C529.421 512.97 535.721 508.92 540.941 503.84C546.391 498.55 550.691 492.2 553.661 484.66C556.631 477.11 558.251 468.35 558.251 458.26C558.251 458.23 558.251 458.2 558.251 458.17C558.241 468.22 556.621 476.95 553.661 484.48C550.691 492.03 546.381 498.38 540.941 503.66Z" fill="#FFC716"/>
<path d="M501.738 522.03C495.388 523.17 488.648 523.8 481.628 523.92V523.88H479.128C462.608 523.88 447.448 521.16 434.858 515.53H434.848C427.868 512.45 421.758 508.53 416.588 503.64C411.028 498.33 406.628 492.12 403.578 484.65C400.528 477.18 398.838 468.44 398.838 458.08C398.838 447.73 400.588 438.72 403.748 430.96C406.908 423.2 411.468 416.68 417.168 411.28C422.138 406.53 428.138 402.67 434.878 399.58C447.378 393.83 462.938 391.03 479.118 391.04C487.588 391.04 495.648 391.79 503.168 393.29C505.968 392.12 508.868 391.1 511.858 390.22C501.838 387.41 490.808 386.04 479.118 386.04C462.368 386.04 446.148 388.91 432.788 395.04C425.638 398.31 419.158 402.46 413.708 407.65C407.508 413.51 402.518 420.66 399.098 429.07C395.678 437.49 393.828 447.16 393.828 458.07C393.828 468.97 395.608 478.39 398.938 486.53C402.258 494.67 407.108 501.51 413.128 507.25C418.758 512.58 425.378 516.81 432.808 520.09C445.558 525.78 460.508 528.58 476.608 528.84V528.94H479.108C490.218 528.94 500.718 527.73 510.338 525.26L509.968 525.14C507.128 524.24 504.388 523.19 501.728 522.02L501.738 522.03Z" fill="#FFC716"/>
<path d="M432.83 520.11V520.1H432.82L432.83 520.11Z" fill="#FFC716"/>
<path d="M524.269 394.86C531.639 398.14 538.319 402.43 543.899 407.84C550.019 413.72 554.869 421.02 558.179 429.49C561.479 437.94 563.239 447.57 563.249 458.17C563.249 458.14 563.249 458.11 563.249 458.08C563.249 447.45 561.479 437.79 558.169 429.32C554.859 420.85 550.009 413.55 543.889 407.67C538.309 402.26 531.629 397.96 524.259 394.69C523.089 394.16 521.879 393.67 520.669 393.19C520.569 393.21 520.479 393.23 520.379 393.25C521.689 393.76 522.989 394.29 524.249 394.86H524.269Z" fill="#FFC716"/>
<path d="M413.711 407.66H413.721V407.65L413.711 407.66Z" fill="#FFC716"/>
<path d="M833.559 242.69C833.519 243.92 833.479 245.16 833.449 246.41C833.479 245.16 833.509 243.92 833.559 242.69Z" fill="#FFC716"/>
<path d="M833.588 241.83C833.918 233.73 834.648 226.17 835.748 219.11C835.748 219.11 835.728 219.11 835.718 219.11C834.618 226.16 833.908 233.73 833.578 241.82L833.588 241.83Z" fill="#FFC716"/>
<path d="M838.43 247.72C838.43 247.39 838.44 247.06 838.45 246.73C838.45 247.06 838.44 247.39 838.43 247.72Z" fill="#FFC716"/>
<path d="M833.431 247.53C833.401 249.09 833.391 250.66 833.391 252.26C833.391 250.66 833.411 249.09 833.431 247.53Z" fill="#FFC716"/>
<path d="M889.73 145.71C880.58 148.9 872.43 153.39 865.38 159.31C854.81 168.18 846.77 180.21 841.43 195.6C839.49 201.19 837.9 207.23 836.66 213.72C836.66 213.72 836.67 213.72 836.68 213.72V213.68L838.38 213.36C838.38 213.36 838.39 213.36 838.4 213.36C839.27 213.19 840.16 213.05 841.05 212.93C841.24 212.9 841.43 212.88 841.62 212.86C841.73 212.85 841.84 212.83 841.95 212.82C842.7 209.14 843.57 205.62 844.56 202.28C847.6 191.96 851.74 183.23 856.9 175.92C864.65 164.97 874.71 157.18 887.16 152.05C899.6 146.93 914.45 144.51 931.59 144.51C941.95 144.51 951.42 145.38 960.01 147.17V142.06C951.29 140.33 941.81 139.51 931.59 139.51C915.94 139.51 901.95 141.47 889.75 145.72L889.73 145.71Z" fill="#FFC716"/>
<path d="M900.92 251.51L901.93 254.75H960V249.75H900.34C900.54 250.33 900.73 250.91 900.91 251.5L900.92 251.51Z" fill="#FFC716"/>
<path d="M826.461 421.08H832.701H880.251V416.08H838.941L922.661 336.2L960.001 370.7V363.89L922.611 329.34L826.461 421.08Z" fill="#FFC716"/>
<path d="M635.631 372.35C642.631 372.47 656.531 372.7 670.581 372.94C680.551 373.11 690.591 373.27 698.281 373.4C702.121 373.46 705.381 373.51 707.741 373.55C708.841 373.57 709.731 373.58 710.421 373.59L717.021 385.57L718.751 382.44L719.881 380.39L713.381 368.58L711.891 368.61C711.791 368.61 711.351 368.61 710.661 368.6C705.451 368.53 685.541 368.2 666.951 367.88C657.651 367.72 648.681 367.57 642.031 367.46C638.711 367.4 635.961 367.36 634.051 367.32C632.141 367.29 631.061 367.27 631.061 367.27L626.391 367.19L708.301 494.84L681.151 540H686.981L714.181 494.75L635.631 372.35Z" fill="#FFC716"/>
<path d="M774.881 501.85L777.931 496.15L719.871 390.75L777.931 496.15L774.881 501.85Z" fill="#FFC716"/>
<path d="M757.972 533.53L754.512 540H760.182L760.802 538.83L757.972 533.53Z" fill="#FFC716"/>
<path d="M634.949 95.65L663.339 186.69H762.309L761.299 183.44L704.099 0H698.859L755.519 181.69H667.019L637.879 88.25L635.079 95.35L605.159 0H605.129L632.579 88.05L634.949 95.65Z" fill="#FFC716"/>
<path d="M898.049 260.44H801.749C803.989 253.1 806.539 246.87 809.389 241.64C814.279 232.68 819.999 226.69 826.659 222.86C829.489 221.24 832.509 220.02 835.729 219.13C835.729 219.13 835.749 219.13 835.759 219.13C835.959 217.87 836.159 216.62 836.379 215.39L836.679 213.73C836.679 213.73 836.669 213.73 836.659 213.73C835.109 214.08 833.579 214.5 832.099 214.99C823.809 217.74 816.589 222.83 810.609 230.59C804.619 238.36 799.819 248.75 796.019 262.27L795.129 265.45H904.099L903.579 262.51C903.099 259.83 902.529 257.26 901.859 254.77H896.669C897.189 256.59 897.649 258.49 898.059 260.44H898.049Z" fill="#FFC716"/>
<path d="M841.102 217.97C841.662 217.89 842.232 217.81 842.802 217.74C842.232 217.81 841.662 217.88 841.102 217.97Z" fill="#FFC716"/>
<path d="M896.75 241.01C896.69 240.89 896.63 240.79 896.57 240.67C896.81 241.15 897.05 241.64 897.28 242.14C897.1 241.76 896.93 241.38 896.75 241.01Z" fill="#FFC716"/>
<path d="M843.682 212.62C843.092 212.67 842.512 212.74 841.932 212.81C841.822 212.82 841.712 212.84 841.602 212.85C842.292 212.76 842.982 212.68 843.682 212.62Z" fill="#FFC716"/>
<path d="M897.57 242.76C897.81 243.27 898.03 243.79 898.26 244.32C898.03 243.8 897.81 243.28 897.57 242.76Z" fill="#FFC716"/>
<path d="M850.01 217.32C848.97 217.32 847.94 217.35 846.93 217.4C847.94 217.35 848.96 217.32 850.01 217.32Z" fill="#FFC716"/>
<path d="M843.969 217.61C844.619 217.55 845.289 217.5 845.959 217.46C845.289 217.5 844.629 217.55 843.969 217.61Z" fill="#FFC716"/>
<path d="M863.66 219.03C864.17 219.17 864.68 219.31 865.18 219.47C864.68 219.32 864.17 219.17 863.66 219.03Z" fill="#FFC716"/>
<path d="M865.609 219.59C866.249 219.79 866.869 220 867.489 220.23C866.869 220 866.239 219.79 865.609 219.59Z" fill="#FFC716"/>
<path d="M861.66 218.54C862.09 218.63 862.51 218.74 862.93 218.84C862.51 218.74 862.08 218.63 861.66 218.54Z" fill="#FFC716"/>
<path d="M867.781 220.34C868.611 220.65 869.421 220.98 870.221 221.34C869.421 220.99 868.611 220.65 867.781 220.34Z" fill="#FFC716"/>
<path d="M870.641 221.51C871.441 221.87 872.231 222.27 873.001 222.68C872.231 222.27 871.441 221.88 870.641 221.51Z" fill="#FFC716"/>
<path d="M850.012 217.32C850.762 217.32 851.492 217.34 852.222 217.36C851.492 217.33 850.752 217.32 850.012 217.32Z" fill="#FFC716"/>
<path d="M855.379 217.58C855.779 217.62 856.179 217.66 856.569 217.7C856.169 217.65 855.779 217.62 855.379 217.58Z" fill="#FFC716"/>
<path d="M853.109 217.41C853.549 217.43 853.979 217.46 854.409 217.49C853.979 217.46 853.539 217.43 853.109 217.41Z" fill="#FFC716"/>
<path d="M857.531 217.82C857.921 217.87 858.321 217.93 858.711 217.99C858.321 217.93 857.931 217.87 857.531 217.82Z" fill="#FFC716"/>
<path d="M855.039 212.53C855.449 212.56 855.859 212.6 856.259 212.64C855.849 212.6 855.449 212.56 855.039 212.53Z" fill="#FFC716"/>
<path d="M859.121 212.99C859.601 213.06 860.081 213.14 860.551 213.23C860.071 213.15 859.601 213.06 859.121 212.99Z" fill="#FFC716"/>
<path d="M857.109 212.73C857.529 212.78 857.939 212.83 858.359 212.89C857.949 212.83 857.529 212.78 857.109 212.73Z" fill="#FFC716"/>
<path d="M894.609 237.09C894.799 237.42 894.989 237.74 895.179 238.08C894.989 237.75 894.799 237.42 894.609 237.09Z" fill="#FFC716"/>
<path d="M861.102 213.32C861.772 213.45 862.432 213.58 863.082 213.73C862.432 213.58 861.762 213.45 861.102 213.32Z" fill="#FFC716"/>
<path d="M852.859 212.39C853.299 212.41 853.749 212.43 854.189 212.46C853.749 212.43 853.309 212.41 852.859 212.39Z" fill="#FFC716"/>
<path d="M844.5 212.55C845.15 212.5 845.81 212.46 846.47 212.42C845.81 212.45 845.15 212.49 844.5 212.55Z" fill="#FFC716"/>
<path d="M847.262 212.38C848.172 212.35 849.082 212.32 850.012 212.32C849.082 212.32 848.172 212.34 847.262 212.38Z" fill="#FFC716"/>
<path d="M850.012 212.32C850.712 212.32 851.412 212.33 852.112 212.36C851.412 212.34 850.722 212.32 850.012 212.32Z" fill="#FFC716"/>
<path d="M863.191 213.76C863.801 213.9 864.411 214.05 865.021 214.21C864.421 214.05 863.811 213.9 863.191 213.76Z" fill="#FFC716"/>
<path d="M885.629 225.7C885.819 225.88 886.009 226.05 886.189 226.24C885.999 226.06 885.809 225.88 885.629 225.7Z" fill="#FFC716"/>
<path d="M888.18 228.31C888.38 228.54 888.59 228.76 888.79 228.99C888.59 228.76 888.39 228.53 888.18 228.31Z" fill="#FFC716"/>
<path d="M867.469 214.94C867.929 215.09 868.389 215.24 868.839 215.4C868.389 215.24 867.929 215.08 867.469 214.94Z" fill="#FFC716"/>
<path d="M873.609 223.02C874.349 223.43 875.079 223.86 875.799 224.32C875.089 223.86 874.349 223.44 873.609 223.02Z" fill="#FFC716"/>
<path d="M890.629 231.22C890.799 231.44 890.969 231.67 891.139 231.9C890.969 231.68 890.809 231.44 890.629 231.22Z" fill="#FFC716"/>
<path d="M892.559 233.88C892.729 234.13 892.909 234.38 893.079 234.63C892.909 234.37 892.729 234.13 892.559 233.88Z" fill="#FFC716"/>
<path d="M869.352 215.59C869.832 215.77 870.312 215.95 870.792 216.14C870.312 215.95 869.842 215.76 869.352 215.59Z" fill="#FFC716"/>
<path d="M871.172 216.29C873.002 217.05 874.782 217.91 876.492 218.89C874.782 217.92 873.012 217.05 871.172 216.29Z" fill="#FFC716"/>
<path d="M877.71 219.6C877.42 219.43 877.13 219.26 876.84 219.09C877.22 219.31 877.59 219.53 877.96 219.76C877.88 219.71 877.8 219.65 877.71 219.6Z" fill="#FFC716"/>
<path d="M889.672 238.59C890.142 239.35 890.602 240.12 891.042 240.91C890.602 240.11 890.142 239.34 889.672 238.59Z" fill="#FFC716"/>
<path d="M892.922 244.6C893.312 245.43 893.682 246.29 894.042 247.17C893.682 246.3 893.312 245.44 892.922 244.6Z" fill="#FFC716"/>
<path d="M895.04 249.76C894.86 249.25 894.67 248.75 894.48 248.26C894.67 248.75 894.851 249.26 895.031 249.76H895.04Z" fill="#FFC716"/>
<path d="M876.371 224.69C876.991 225.1 877.601 225.52 878.201 225.97C877.601 225.53 876.991 225.1 876.371 224.69Z" fill="#FFC716"/>
<path d="M878.68 226.32C878.68 226.32 878.67 226.32 878.66 226.31C879.33 226.82 879.97 227.35 880.61 227.9C879.98 227.35 879.34 226.82 878.68 226.32Z" fill="#FFC716"/>
<path d="M881.23 228.44C881.85 228.99 882.45 229.57 883.04 230.16C882.45 229.57 881.84 228.99 881.23 228.44Z" fill="#FFC716"/>
<path d="M883.602 230.73C884.162 231.31 884.712 231.91 885.252 232.54C884.712 231.92 884.162 231.32 883.602 230.73Z" fill="#FFC716"/>
<path d="M838.391 213.35C839.261 213.18 840.151 213.04 841.041 212.92C840.151 213.04 839.261 213.19 838.391 213.35Z" fill="#FFC716"/>
<path d="M900.919 251.51C900.739 250.92 900.539 250.34 900.349 249.76C900.339 249.72 900.319 249.67 900.309 249.63C900.519 250.25 900.729 250.87 900.929 251.51H900.919Z" fill="#FFC716"/>
<path d="M462.879 187.1L471.199 127.37L462.879 187.1Z" fill="#FFC716"/>
<path d="M524.699 132.37H573.509L452.769 295.93L467.169 192.54H462.119L445.109 314.74L583.419 127.37H578.459H524.699H510.709L510.009 132.37H524.699Z" fill="#FFC716"/>
<path d="M307.09 388.14L311.5 402.28L307.09 388.14Z" fill="#FFC716"/>
<path d="M233.91 454.07L260.64 540H260.71L233.92 454.07H233.91Z" fill="#FFC716"/>
<path d="M228.591 453.78L231.631 446.75L231.621 446.7L214.921 393.14H254.801H254.861L256.981 388.26L305.151 388.14H262.411H256.961H208.121L228.571 453.74L228.921 454.86L228.591 453.78Z" fill="#FFC716"/>
<path d="M316.701 418.95L313.781 426.4L313.971 426.98L349.211 540H354.451L316.901 419.57L316.701 418.95Z" fill="#FFC716"/>
<path d="M340.872 98.83L340.862 98.82L337.692 103.03L334.512 98.41L334.712 98.69L337.692 103.04L352.512 124.58L355.242 123.57L448.612 0H442.352L353.642 117.39L340.872 98.83Z" fill="#FFC716"/>
<path d="M277.151 12.21L277.031 12.43L276.301 13.78L290.861 34.94L295.921 33.48L283.151 14.91L334.801 0H316.771L277.651 11.3L277.151 12.21Z" fill="#FFC716"/>
<path d="M337.881 94.4798L300.801 40.5698L337.881 94.4798Z" fill="#FFC716"/>
<path d="M147.328 104.88L227.208 188.6L147.328 275.06V233.9H144.828H142.328V287.84L234.068 188.55L142.328 92.3901V98.6401V146.19H147.328V104.88Z" fill="#FFC716"/>
<path d="M156.821 0H150.601L82.8614 91.77L95.6414 0H90.5914L75.1914 110.58L156.821 0Z" fill="#FFC716"/>
<path d="M769.6 57.17C775.03 70.19 783.15 80.71 793.26 88.87C803.37 97.03 815.441 102.83 828.781 106.55C841.471 110.09 855.251 111.71 869.591 111.71C883.921 111.71 896.601 110.08 908.841 106.63C922.031 102.96 934.06 97.16 944.17 88.98C950.18 84.12 955.51 78.41 959.99 71.84V62.24C955.08 71.35 948.661 78.92 941.031 85.1C931.531 92.79 920.14 98.31 907.5 101.83C895.73 105.15 883.56 106.72 869.6 106.73C855.64 106.73 842.3 105.14 830.13 101.75C817.33 98.19 805.9 92.67 796.41 85C786.92 77.33 779.35 67.53 774.23 55.27C769.63 44.18 766.98 31.44 766.98 15.83C766.98 10.25 767.32 5.00002 767.97 0.0200195H762.93C762.31 5.03002 761.98 10.29 761.98 15.83C761.98 32 764.74 45.46 769.61 57.19L769.6 57.17Z" fill="#FFC716"/>
<path d="M616.671 426.8C612.581 417.01 606.461 409.1 598.901 402.99C591.341 396.88 582.371 392.56 572.571 389.83C563.421 387.26 553.521 386.05 543.341 386.05C532.631 386.05 522.421 387.26 512.971 389.89C512.591 389.99 512.231 390.12 511.851 390.23C508.861 391.11 505.961 392.12 503.161 393.3C497.081 395.84 491.471 399.08 486.501 403.1C478.951 409.2 472.871 417.08 468.811 426.81C465.101 435.71 463.051 446.07 463.051 458.11C463.051 458.14 463.051 458.17 463.051 458.2C463.051 446.2 465.111 435.87 468.811 426.99C472.741 417.57 478.571 409.87 485.801 403.86C493.031 397.84 501.631 393.49 511.131 390.62L511.841 390.41L512.551 390.61C515.241 391.39 517.861 392.28 520.401 393.27C520.501 393.25 520.591 393.23 520.691 393.21C527.831 391.76 535.421 391.07 543.361 391.07C553.141 391.07 562.601 392.24 571.231 394.67C580.481 397.25 588.811 401.29 595.761 406.9C602.701 412.52 608.281 419.71 612.061 428.75C615.491 436.98 617.491 446.85 617.491 458.12C617.491 469.39 615.491 478.93 612.121 487.06C608.341 496.06 602.761 503.26 595.811 508.88C588.861 514.5 580.511 518.55 571.231 521.14C562.571 523.58 553.631 524.74 543.361 524.74C535.211 524.74 527.351 523.99 519.991 522.44C517.211 523.48 514.351 524.41 511.391 525.21L511.031 525.31C511.681 525.51 512.331 525.72 512.991 525.9C522.451 528.54 532.711 529.74 543.361 529.74C554.011 529.74 563.461 528.53 572.581 525.96C582.411 523.23 591.401 518.89 598.961 512.78C606.521 506.67 612.651 498.75 616.741 489C620.381 480.23 622.501 470 622.501 458.14C622.501 446.27 620.391 435.75 616.681 426.84L616.671 426.8Z" fill="#FFC716"/>
<path d="M488.55 508.08C494.83 513.41 502.35 517.39 510.79 520.14C510.88 520.11 510.97 520.09 511.06 520.06C510.97 520.03 510.87 520 510.78 519.97C502.81 517.37 495.66 513.66 489.6 508.77C482.66 503.16 477.13 496 473.38 487.03C470.02 478.92 468.08 469.62 468.07 458.18C468.07 458.21 468.07 458.24 468.07 458.27C468.07 469.75 470.01 479.08 473.38 487.21C476.94 495.73 482.1 502.61 488.55 508.08Z" fill="#FFC716"/>
<path d="M885.25 421.08H880.25V540H885.25V421.08Z" fill="#FFC716"/>
<path d="M760.801 538.83L761.421 540H767.091L763.631 533.53L760.801 538.83Z" fill="#FFC716"/>
<path d="M854.919 291.74L850.249 291.82C850.249 291.82 848.989 291.84 846.789 291.88C839.089 292.01 819.839 292.33 802.459 292.62C793.769 292.76 785.549 292.9 779.469 293C776.429 293.05 773.929 293.09 772.169 293.12C771.289 293.13 770.599 293.15 770.119 293.15C769.879 293.15 769.689 293.15 769.569 293.15H769.419H769.379H767.909L767.199 294.44L719.859 380.38L722.709 385.56L770.869 298.12C780.049 297.97 830.049 297.14 845.649 296.88L767.099 419.29L839.649 540H845.479L772.979 419.38L854.889 291.73L854.919 291.74Z" fill="#FFC716"/>
<path d="M703.379 420.69L733.259 476.65L703.379 420.69Z" fill="#FFC716"/>
<path d="M717.681 384.36L718.741 382.43L717.021 385.56L697.691 420.66L717.681 384.36Z" fill="#FFC716"/>
<path d="M505.659 127.37H471.209L462.889 187.11L462.829 187.55L462.129 192.55H501.629L510.009 132.37L510.709 127.37H505.659ZM497.279 187.54H467.869L475.559 132.36H504.969L497.279 187.54Z" fill="#FFC716"/>
<path d="M635.08 95.35L637.88 88.25L672.73 0H667.35L635.62 80.37L610.4 0H605.16L635.08 95.35Z" fill="#FFC716"/>
<path d="M316.7 418.95L316.44 418.11L314.52 411.97L311.5 402.28L307.09 388.14H305.15L256.98 388.26L254.86 393.14L231.63 446.75L228.59 453.78L228.92 454.86L230.85 461.06L255.4 540H260.64L233.91 454.07H233.92L260.27 393.25L303.42 393.15L311.4 418.76L263.91 540H269.28L313.78 426.4L316.7 418.95Z" fill="#FFC716"/>
<path d="M290.859 34.94L292.819 37.8L293.849 39.29L334.509 98.41L337.689 103.03L340.869 98.83L415.539 0H411.879L295.919 33.48L290.859 34.94ZM403.509 7.63L337.879 94.48L300.799 40.57L298.919 37.83L403.529 7.62V7.64L403.509 7.63Z" fill="#FFC716"/>
<path d="M142.328 228.9V233.9H178.388V146.2H142.328V228.9ZM173.378 151.19V228.89H147.318V151.19H173.378Z" fill="#FFC716"/>
<path d="M77.0217 413.26H41.7617H36.7617V418.26V430.6V437.86V460.16V478.67V483.19V513.58V540H41.7617V513.58V483.19V478.67V460.16V437.86V430.6V418.26H74.5217V540H79.5217V413.26H77.0217Z" fill="#FFC716"/>
<path d="M14.24 504.42H0V509.42H9.24V509.57V540H14.24V504.57V504.42Z" fill="#FFC716"/>
<path d="M803.338 39.43C806.078 46.14 810.088 51.79 815.048 56.52C819.698 60.92 825.158 64.41 831.258 67.1C841.628 71.72 853.748 74.02 866.798 74.29V74.37H869.298C883.018 74.37 895.658 72.13 906.368 67.44C912.638 64.69 918.278 61.09 922.988 56.5C927.888 51.75 931.788 45.99 934.448 39.23C937.108 32.47 938.518 24.73 938.518 16C938.518 10.31 937.898 4.97 936.718 0H931.558C932.828 4.88 933.518 10.22 933.518 16C933.518 24.2 932.198 31.3 929.798 37.4C927.398 43.51 923.918 48.64 919.508 52.91C915.288 57.02 910.178 60.3 904.368 62.86C895.098 66.92 883.998 69.06 871.808 69.31H869.308C855.858 69.31 843.518 67.09 833.308 62.53C827.648 60.03 822.708 56.85 818.518 52.9C814.018 48.6 810.458 43.58 807.998 37.55C805.538 31.51 804.158 24.43 804.158 16.01C804.158 10.14 804.868 4.83 806.148 0.01H800.978C799.788 4.93 799.148 10.26 799.148 16.01C799.148 24.97 800.618 32.73 803.358 39.44L803.338 39.43Z" fill="#FFC716"/>
<path d="M543.898 407.84H543.908V407.85L543.898 407.84Z" fill="#FFC716"/>
<path d="M519.979 522.41C521.429 521.87 522.859 521.3 524.259 520.69C531.889 517.34 538.709 512.97 544.429 507.42C550.369 501.66 555.099 494.68 558.319 486.48C561.539 478.28 563.259 468.88 563.259 458.25C563.259 458.22 563.259 458.19 563.259 458.16C563.259 447.56 561.489 437.93 558.189 429.48C554.879 421.01 550.029 413.71 543.909 407.83C538.329 402.42 531.639 398.12 524.279 394.85C523.009 394.28 521.719 393.75 520.409 393.24C517.869 392.25 515.259 391.36 512.559 390.58L511.849 390.38L511.139 390.59C501.639 393.46 493.039 397.81 485.809 403.83C478.579 409.85 472.749 417.54 468.819 426.96C465.119 435.84 463.069 446.17 463.059 458.17C463.059 458.2 463.059 458.23 463.059 458.26C463.059 470.3 465.109 480.36 468.759 489.12C472.609 498.35 478.279 505.93 485.309 511.89C490.189 516.03 495.719 519.37 501.729 522.02C504.389 523.19 507.129 524.24 509.969 525.14L510.339 525.26L510.659 525.36L511.009 525.27L511.369 525.17C514.329 524.38 517.199 523.45 519.969 522.4L519.979 522.41ZM468.069 458.18C468.079 446.74 470.019 437.11 473.439 428.89C477.069 420.2 482.379 413.21 489.009 407.67C495.469 402.29 503.209 398.31 511.879 395.6C515.489 396.68 518.959 397.94 522.229 399.41C529.139 402.49 535.319 406.48 540.419 411.42C546.009 416.8 550.449 423.46 553.509 431.3C556.559 439.12 558.229 448.11 558.239 458.16C558.239 458.19 558.239 458.22 558.239 458.25C558.239 468.34 556.609 477.1 553.649 484.65C550.679 492.2 546.369 498.55 540.929 503.83C535.709 508.91 529.409 512.97 522.239 516.11C518.719 517.65 514.969 518.96 511.049 520.06C510.959 520.09 510.869 520.11 510.779 520.14C502.339 517.39 494.819 513.4 488.539 508.08C482.089 502.6 476.919 495.72 473.369 487.21C469.999 479.08 468.059 469.75 468.059 458.27C468.059 458.24 468.059 458.21 468.059 458.18H468.069Z" fill="#FFC716"/>
<path d="M900.921 251.51C900.721 250.88 900.511 250.25 900.301 249.63C900.231 249.42 900.161 249.21 900.091 249.01C899.891 248.45 899.691 247.89 899.481 247.34C899.391 247.1 899.301 246.85 899.201 246.61C898.991 246.08 898.781 245.55 898.561 245.03C898.461 244.79 898.361 244.55 898.261 244.32C898.031 243.8 897.811 243.28 897.571 242.76C897.471 242.55 897.381 242.35 897.281 242.14C897.051 241.65 896.811 241.16 896.571 240.67C896.121 239.78 895.661 238.92 895.181 238.07C894.991 237.74 894.801 237.41 894.611 237.08C894.121 236.24 893.611 235.42 893.081 234.62C892.911 234.36 892.731 234.12 892.561 233.87C892.101 233.19 891.621 232.53 891.131 231.88C890.961 231.66 890.801 231.42 890.621 231.2C890.021 230.43 889.411 229.7 888.781 228.98C888.581 228.75 888.381 228.52 888.171 228.3C887.531 227.59 886.871 226.9 886.191 226.23C886.001 226.05 885.811 225.87 885.631 225.69C884.981 225.08 884.331 224.48 883.651 223.9C883.511 223.78 883.371 223.66 883.231 223.54C882.731 223.12 882.221 222.72 881.711 222.32C881.471 222.14 881.231 221.97 880.991 221.8C880.781 221.65 880.571 221.49 880.361 221.34C879.581 220.78 878.771 220.26 877.961 219.75C877.591 219.52 877.221 219.3 876.841 219.08C876.721 219.01 876.611 218.94 876.491 218.88C874.781 217.91 873.011 217.04 871.171 216.28C871.041 216.23 870.921 216.18 870.791 216.13C870.311 215.94 869.831 215.75 869.351 215.58C869.181 215.52 869.011 215.46 868.841 215.4C868.391 215.24 867.931 215.09 867.471 214.94C867.291 214.88 867.111 214.82 866.931 214.77C866.451 214.62 865.971 214.48 865.491 214.35C865.331 214.31 865.171 214.26 865.011 214.22C864.411 214.06 863.801 213.91 863.181 213.77C863.141 213.77 863.111 213.75 863.071 213.74C862.421 213.59 861.751 213.46 861.091 213.33C860.911 213.3 860.731 213.27 860.551 213.24C860.071 213.16 859.601 213.07 859.121 213C858.871 212.96 858.611 212.93 858.351 212.89C857.941 212.83 857.521 212.78 857.101 212.73C856.821 212.7 856.541 212.67 856.261 212.64C855.851 212.6 855.451 212.56 855.041 212.53C854.761 212.51 854.481 212.48 854.191 212.47C853.751 212.44 853.311 212.42 852.861 212.4C852.611 212.39 852.361 212.37 852.101 212.37C851.401 212.35 850.711 212.33 850.001 212.33C849.071 212.33 848.161 212.35 847.251 212.39C846.981 212.4 846.721 212.42 846.461 212.43C845.801 212.46 845.141 212.5 844.491 212.56C844.221 212.58 843.941 212.61 843.671 212.63C842.971 212.7 842.281 212.77 841.591 212.86C841.401 212.88 841.211 212.9 841.021 212.93C840.131 213.05 839.241 213.2 838.371 213.36C838.371 213.36 838.361 213.36 838.351 213.36L836.661 213.68V213.72L836.361 215.38C836.141 216.61 835.931 217.86 835.741 219.12C834.641 226.18 833.911 233.74 833.581 241.84C833.571 242.12 833.561 242.41 833.551 242.7C833.501 243.93 833.471 245.17 833.441 246.42C833.441 246.8 833.421 247.17 833.411 247.55C833.381 249.11 833.371 250.68 833.371 252.28V254.78H901.921L900.911 251.54L900.921 251.51ZM848.071 249.76H838.411C838.411 249.08 838.411 248.39 838.431 247.72C838.431 247.39 838.441 247.06 838.451 246.73C838.481 245.35 838.521 243.99 838.571 242.64C838.571 242.56 838.571 242.47 838.571 242.39C838.921 233.58 839.751 225.47 841.011 217.98C841.041 217.98 841.071 217.98 841.101 217.97C841.661 217.89 842.231 217.81 842.801 217.74C843.191 217.69 843.581 217.65 843.971 217.61C844.621 217.55 845.291 217.5 845.961 217.46C846.281 217.44 846.601 217.41 846.931 217.4C847.941 217.35 848.961 217.32 850.011 217.32C850.761 217.32 851.491 217.34 852.221 217.36C852.521 217.37 852.811 217.39 853.111 217.41C853.551 217.43 853.981 217.46 854.411 217.49C854.731 217.51 855.061 217.55 855.381 217.58C855.781 217.62 856.181 217.66 856.571 217.7C856.891 217.74 857.211 217.78 857.531 217.82C857.921 217.87 858.321 217.93 858.711 217.99C859.021 218.04 859.321 218.09 859.621 218.14C860.021 218.21 860.421 218.29 860.821 218.37C861.101 218.43 861.381 218.48 861.661 218.54C862.091 218.63 862.511 218.74 862.931 218.84C863.171 218.9 863.421 218.96 863.651 219.02C864.161 219.16 864.671 219.3 865.171 219.46C865.311 219.5 865.461 219.54 865.601 219.59C866.241 219.79 866.861 220 867.481 220.23C867.581 220.26 867.671 220.3 867.761 220.34C868.591 220.65 869.401 220.98 870.201 221.34C870.341 221.4 870.481 221.46 870.621 221.52C871.421 221.89 872.211 222.28 872.981 222.69C873.181 222.8 873.391 222.91 873.591 223.02C874.331 223.43 875.061 223.86 875.781 224.32C875.971 224.44 876.161 224.57 876.351 224.7C876.971 225.11 877.581 225.53 878.181 225.98C878.331 226.09 878.491 226.2 878.651 226.32C878.651 226.32 878.661 226.32 878.671 226.33C879.331 226.83 879.971 227.37 880.601 227.91C880.811 228.09 881.021 228.27 881.221 228.45C881.841 229 882.441 229.58 883.031 230.17C883.221 230.36 883.401 230.55 883.581 230.74C884.141 231.32 884.691 231.92 885.231 232.55C885.371 232.72 885.511 232.88 885.651 233.05C886.161 233.66 886.651 234.29 887.141 234.93C887.311 235.16 887.481 235.38 887.651 235.61C888.161 236.31 888.651 237.03 889.131 237.77C889.301 238.04 889.481 238.31 889.651 238.59C890.121 239.35 890.581 240.12 891.021 240.91C891.161 241.16 891.291 241.43 891.431 241.69C891.781 242.35 892.131 243.03 892.461 243.72C892.601 244.01 892.751 244.3 892.891 244.6C893.281 245.43 893.651 246.29 894.011 247.17C894.161 247.53 894.311 247.89 894.451 248.26C894.641 248.75 894.831 249.26 895.011 249.76H848.041H848.071Z" fill="#FFC716"/>
<path d="M880.25 416.08V421.08H885.25H960V416.08H885.25V390.03H960V385.03H880.25V416.08Z" fill="#FFC716"/>
<path d="M717.681 384.36L697.691 420.66L757.971 533.53L760.801 538.84L763.631 533.53L783.611 496.11L722.721 385.56L719.871 380.38L718.741 382.43L717.681 384.36ZM703.381 420.69L719.881 390.74L777.941 496.14L774.891 501.84L760.811 528.21L733.271 476.64L703.391 420.69H703.381Z" fill="#FFC716"/>
</g>
<defs>
<clipPath id="clip0_287_57836">
<rect width="960" height="540" fill="white"/>
</clipPath>
</defs>
</svg>
