<svg width="976" height="561" viewBox="0 0 976 561" fill="none" xmlns="http://www.w3.org/2000/svg">
<g clip-path="url(#clip0_287_84409)">
<mask id="mask0_287_84409" style="mask-type:luminance" maskUnits="userSpaceOnUse" x="-1" y="-1" width="978" height="563">
<path d="M976.129 -0.699219H-0.871094V561.113H976.129V-0.699219Z" fill="white"/>
</mask>
<g mask="url(#mask0_287_84409)">
<path d="M992.161 -9.90625H-16.9045V570.32H992.161V-9.90625Z" fill="#82B536"/>
<path d="M844.435 407.645C845.475 401.84 846.006 395.67 846.006 389.147C846.006 382.623 845.454 376.277 844.404 370.399C838.12 335.442 813.839 313.885 779.779 308.35C773.963 307.403 767.877 306.914 761.531 306.914C755.185 306.914 748.579 307.434 742.535 308.443C708.454 314.134 684.214 335.629 677.92 370.388C676.859 376.267 676.308 382.519 676.308 389.136C676.308 395.753 676.849 401.829 677.889 407.635C684.131 442.352 708.402 463.889 742.535 469.59C748.579 470.599 754.915 471.119 761.531 471.119C768.148 471.119 773.963 470.63 779.779 469.694C813.891 464.149 838.193 442.561 844.435 407.645Z" fill="#6A9A23"/>
<path d="M323.075 317.475C316.396 317.475 309.842 316.944 303.579 315.904C267.178 309.828 242.71 286.346 236.437 251.482C235.355 245.448 234.803 239.05 234.803 232.443C234.803 225.837 235.365 219.261 236.468 213.154C242.783 178.28 267.241 154.799 303.579 148.733C309.842 147.693 316.406 147.162 323.075 147.162C329.743 147.162 335.808 147.662 341.811 148.629C378.17 154.549 402.649 178.062 408.954 213.154C410.046 219.261 410.608 225.743 410.608 232.443C410.608 239.143 410.067 245.448 408.985 251.472C402.722 286.564 378.243 310.077 341.821 315.997C335.819 316.975 329.525 317.464 323.085 317.464L323.075 317.475ZM323.075 153.269C316.739 153.269 310.518 153.769 304.578 154.757C270.434 160.458 248.379 181.578 242.47 214.236C241.43 219.99 240.9 226.107 240.9 232.433C240.9 238.758 241.42 244.709 242.439 250.39C248.307 283.037 270.382 304.168 304.578 309.869C310.508 310.858 316.729 311.357 323.075 311.357C329.421 311.357 335.153 310.889 340.823 309.963C374.529 304.48 397.177 282.767 402.961 250.39C403.97 244.709 404.491 238.665 404.491 232.433C404.491 226.201 403.97 219.979 402.93 214.226C399.965 197.746 392.912 184.159 381.947 173.848C371.273 163.808 357.437 157.348 340.823 154.643C335.143 153.717 329.171 153.248 323.075 153.248V153.269Z" fill="#6A9A23"/>
<path d="M570.658 164.638L468.642 266.66L570.658 368.683L672.674 266.66L570.658 164.638Z" fill="#6A9A23"/>
<path d="M38.5154 443.279L-67.8162 336.94L38.5154 230.602L144.847 336.94L38.5154 443.279ZM-59.1919 336.93L38.505 434.633L136.202 336.93L38.505 239.226L-59.1919 336.93Z" fill="#6A9A23"/>
<path d="M268.062 368.215L347.698 506.171H188.425L268.062 368.215Z" fill="#6A9A23"/>
<path d="M938.761 120.215H768.907L853.84 -26.8965L938.761 120.215ZM779.488 114.108H928.192L853.84 -14.6823L779.488 114.108Z" fill="#6A9A23"/>
<path d="M938.761 682.028H768.907L853.84 534.916L938.761 682.028ZM779.488 675.921H928.192L853.84 547.13L779.488 675.921Z" fill="#6A9A23"/>
<path d="M620.307 63.4215H460.596L460.117 60.9558C460.045 60.5604 452.377 21.0151 452.377 -20.4758C452.377 -61.9667 460.055 -95.6443 460.138 -95.9772L460.69 -98.3389H625.737L622.918 -93.6987C618.861 -86.8633 611.162 -61.5922 611.162 -14.9513C611.162 31.6895 618.705 53.2881 622.699 58.4693L626.486 63.3799L620.307 63.4111V63.4215ZM465.652 57.3144H615.157C611.37 48.8976 605.055 28.3915 605.055 -14.9513C605.055 -58.2941 611.89 -83.2532 615.511 -92.2318H465.579C463.883 -83.971 458.484 -55.0273 458.484 -20.4758C458.484 14.0757 464.008 48.1069 465.652 57.3144Z" fill="#6A9A23"/>
<path d="M620.307 625.233H460.596L460.117 622.767C460.045 622.372 452.377 582.827 452.377 541.336C452.377 499.845 460.055 466.167 460.138 465.834L460.69 463.473H625.737L622.918 468.113C618.861 474.948 611.162 500.219 611.162 546.86C611.162 593.501 618.705 615.1 622.699 620.281L626.486 625.191L620.307 625.223V625.233ZM465.652 619.126H615.157C611.37 610.709 605.055 590.203 605.055 546.86C605.055 503.517 611.89 478.558 615.511 469.58H465.579C463.883 477.84 458.484 506.784 458.484 541.336C458.484 575.887 464.008 609.918 465.652 619.126Z" fill="#6A9A23"/>
<path d="M192.587 193.573H35.3939C35.3939 193.573 27.7163 154.413 27.7163 112.735C27.7163 71.0565 35.3939 37.9199 35.3939 37.9199H192.587C192.587 37.9199 180.394 57.9995 180.394 118.259C180.394 178.519 192.587 193.573 192.587 193.573Z" fill="#6A9A23"/>
<path d="M1015.52 443.279L909.184 336.94L1015.52 230.602L1121.85 336.94L1015.52 443.279ZM917.808 336.93L1015.5 434.633L1113.2 336.93L1015.5 239.226L917.808 336.93Z" fill="#6A9A23"/>
<path d="M273.036 451.987C272.661 452.227 272.661 454.547 273.036 454.797C273.567 455.14 274.118 455.327 274.836 455.338C275.647 455.234 275.845 454.745 276.396 454.797C277.322 454.797 278.883 455.442 279.268 455.598C279.32 455.618 279.382 455.629 279.434 455.618C279.829 455.535 281.587 455.181 283.086 455.348C284.147 455.348 284.812 455.338 285.156 455.338C285.967 455.317 286.571 455.088 287.174 454.64C287.497 454.401 287.497 452.383 287.174 452.133C286.581 451.696 285.967 451.457 285.156 451.436C284.844 451.436 284.178 450.874 283.252 450.781C283.096 450.76 282.95 450.801 282.805 450.895C281.515 451.655 279.829 451.436 279.829 451.436C279.829 451.436 277.322 451.436 276.261 451.426C275.46 451.426 275.075 451.426 274.846 451.436C274.128 451.446 273.577 451.634 273.046 451.977L273.036 451.987Z" fill="#94C748"/>
<path d="M302.352 451.987C301.977 452.227 301.977 454.547 302.352 454.797C302.882 455.14 303.434 455.327 304.152 455.338C304.963 455.234 305.161 454.745 305.712 454.797C306.638 454.797 308.199 455.442 308.583 455.598C308.635 455.618 308.698 455.629 308.75 455.618C309.145 455.535 310.903 455.181 312.401 455.348C313.463 455.348 314.128 455.338 314.472 455.338C315.283 455.317 315.887 455.088 316.49 454.64C316.812 454.401 316.812 452.383 316.49 452.133C315.897 451.696 315.283 451.457 314.472 451.436C314.16 451.436 313.494 450.874 312.568 450.781C312.412 450.76 312.266 450.801 312.11 450.895C310.82 451.655 309.135 451.436 309.135 451.436C309.135 451.436 306.628 451.436 305.567 451.426C304.765 451.426 304.381 451.426 304.152 451.436C303.434 451.446 302.882 451.634 302.352 451.977V451.987Z" fill="#94C748"/>
<path d="M331.657 451.987C331.283 452.227 331.283 454.547 331.657 454.797C332.188 455.14 332.739 455.327 333.457 455.338C334.269 455.234 334.466 454.745 335.018 454.797C335.943 454.797 337.504 455.442 337.878 455.598C337.93 455.618 337.993 455.629 338.045 455.618C338.44 455.535 340.198 455.181 341.696 455.348C342.758 455.348 343.423 455.338 343.767 455.338C344.578 455.317 345.182 455.088 345.785 454.64C346.107 454.401 346.107 452.383 345.785 452.133C345.192 451.696 344.578 451.457 343.767 451.436C343.455 451.436 342.789 450.874 341.863 450.781C341.707 450.76 341.561 450.801 341.405 450.895C340.115 451.655 338.43 451.436 338.43 451.436C338.43 451.436 335.923 451.436 334.862 451.426C334.06 451.426 333.676 451.426 333.447 451.436C332.729 451.446 332.178 451.634 331.647 451.977L331.657 451.987Z" fill="#94C748"/>
<path d="M360.964 451.987C360.589 452.227 360.589 454.547 360.964 454.797C361.494 455.14 362.046 455.327 362.764 455.338C363.575 455.234 363.773 454.745 364.324 454.797C365.25 454.797 366.81 455.442 367.195 455.598C367.247 455.618 367.31 455.629 367.362 455.618C367.757 455.535 369.515 455.181 371.013 455.348C372.074 455.348 372.74 455.338 373.084 455.338C373.895 455.317 374.498 455.088 375.102 454.64C375.424 454.401 375.424 452.383 375.102 452.133C374.509 451.696 373.895 451.457 373.084 451.436C372.771 451.436 372.106 450.874 371.18 450.781C371.024 450.76 370.878 450.801 370.722 450.895C369.432 451.655 367.747 451.436 367.747 451.436C367.747 451.436 365.239 451.436 364.178 451.426C363.377 451.426 362.992 451.426 362.764 451.436C362.046 451.446 361.494 451.634 360.964 451.977V451.987Z" fill="#94C748"/>
<path d="M390.281 451.987C389.906 452.227 389.906 454.547 390.281 454.797C390.811 455.14 391.363 455.327 392.081 455.338C392.892 455.234 393.09 454.745 393.641 454.797C394.567 454.797 396.128 455.442 396.502 455.598C396.554 455.618 396.616 455.629 396.668 455.618C397.064 455.535 398.822 455.181 400.32 455.348C401.381 455.348 402.047 455.338 402.39 455.338C403.202 455.317 403.805 455.088 404.409 454.64C404.731 454.401 404.731 452.383 404.409 452.133C403.816 451.696 403.202 451.457 402.39 451.436C402.078 451.436 401.412 450.874 400.486 450.781C400.33 450.76 400.185 450.801 400.029 450.895C398.739 451.655 397.053 451.436 397.053 451.436C397.053 451.436 394.546 451.436 393.485 451.426C392.684 451.426 392.299 451.426 392.07 451.436C391.352 451.446 390.801 451.634 390.271 451.977L390.281 451.987Z" fill="#94C748"/>
<path d="M418.202 449.501C418.098 449.896 419.472 451.769 419.961 451.685C420.647 451.592 421.251 451.269 421.844 450.687C422.405 449.906 422.156 449.428 422.572 448.96C423.196 448.159 424.58 446.848 424.892 446.463C424.944 446.411 424.965 446.348 424.985 446.286C425.11 445.807 425.453 443.768 425.734 442.031C425.797 441.417 425.786 440.876 425.797 440.532C425.797 440.189 425.797 439.939 425.797 439.773C425.776 438.961 425.547 438.348 425.1 437.755C424.86 437.432 422.842 437.432 422.593 437.755C422.156 438.348 421.916 438.961 421.896 439.773C421.896 440.085 421.355 440.803 421.209 441.49C421.178 441.614 421.209 441.739 421.282 441.864C421.583 442.426 421.615 443.102 421.511 443.591C421.417 444.091 421.24 444.413 421.24 444.413C421.24 444.413 421.053 444.923 420.762 445.506C420.47 446.088 420.044 446.733 419.773 447.097C419.368 447.649 419.128 447.888 419.003 448.044C418.587 448.491 418.369 448.96 418.213 449.521L418.202 449.501Z" fill="#94C748"/>
<path d="M422.427 422.576C422.666 422.95 424.986 422.95 425.235 422.576C425.579 422.045 425.766 421.493 425.776 420.776C425.672 419.964 425.183 419.766 425.235 419.215C425.235 418.289 425.88 416.728 426.037 416.354C426.057 416.302 426.068 416.24 426.057 416.188C425.974 415.792 425.62 414.034 425.787 412.536C425.787 411.475 425.776 410.809 425.776 410.465C425.756 409.654 425.527 409.05 425.079 408.447C424.84 408.124 422.822 408.124 422.572 408.447C422.135 409.04 421.896 409.654 421.875 410.465C421.875 410.777 421.313 411.443 421.22 412.369C421.199 412.525 421.241 412.671 421.334 412.827C422.094 414.117 421.875 415.803 421.875 415.803C421.875 415.803 421.875 418.31 421.865 419.371C421.865 420.172 421.865 420.557 421.875 420.786C421.896 421.504 422.073 422.055 422.416 422.586L422.427 422.576Z" fill="#94C748"/>
<path d="M422.427 393.267C422.666 393.641 424.986 393.641 425.235 393.267C425.579 392.736 425.766 392.185 425.776 391.467C425.672 390.656 425.183 390.458 425.235 389.906C425.235 388.981 425.88 387.42 426.037 387.045C426.057 386.993 426.068 386.931 426.057 386.879C425.974 386.484 425.62 384.725 425.787 383.227C425.787 382.166 425.776 381.5 425.776 381.157C425.756 380.345 425.527 379.731 425.079 379.138C424.84 378.816 422.822 378.816 422.572 379.138C422.135 379.731 421.896 380.345 421.875 381.157C421.875 381.469 421.313 382.135 421.22 383.061C421.199 383.217 421.241 383.362 421.334 383.508C422.094 384.809 421.875 386.484 421.875 386.484C421.875 386.484 421.875 388.991 421.865 390.052C421.865 390.853 421.865 391.238 421.875 391.467C421.896 392.185 422.073 392.736 422.416 393.267H422.427Z" fill="#94C748"/>
<path d="M422.427 363.96C422.666 364.335 424.986 364.335 425.235 363.96C425.579 363.43 425.766 362.878 425.776 362.16C425.672 361.349 425.183 361.151 425.235 360.6C425.235 359.674 425.88 358.113 426.037 357.739C426.057 357.687 426.068 357.624 426.057 357.572C425.974 357.177 425.62 355.419 425.787 353.92C425.787 352.859 425.776 352.193 425.776 351.85C425.756 351.039 425.527 350.435 425.079 349.832C424.84 349.509 422.822 349.509 422.572 349.832C422.135 350.425 421.896 351.039 421.875 351.85C421.875 352.162 421.313 352.828 421.22 353.754C421.199 353.91 421.241 354.056 421.334 354.212C422.094 355.512 421.875 357.187 421.875 357.187C421.875 357.187 421.875 359.695 421.865 360.756C421.865 361.557 421.865 361.942 421.875 362.171C421.896 362.889 422.073 363.44 422.416 363.971L422.427 363.96Z" fill="#94C748"/>
<path d="M422.427 334.641C422.666 335.016 424.986 335.016 425.235 334.641C425.579 334.11 425.766 333.559 425.776 332.841C425.672 332.03 425.183 331.832 425.235 331.28C425.235 330.355 425.88 328.794 426.037 328.419C426.057 328.367 426.068 328.305 426.057 328.253C425.974 327.858 425.62 326.099 425.787 324.601C425.787 323.54 425.776 322.874 425.776 322.531C425.756 321.719 425.527 321.116 425.079 320.512C424.84 320.19 422.822 320.19 422.572 320.512C422.135 321.105 421.896 321.719 421.875 322.531C421.875 322.843 421.313 323.509 421.22 324.435C421.199 324.591 421.241 324.736 421.334 324.892C422.094 326.183 421.875 327.868 421.875 327.868C421.875 327.868 421.875 330.375 421.865 331.437C421.865 332.238 421.865 332.623 421.875 332.851C421.896 333.569 422.073 334.121 422.416 334.651L422.427 334.641Z" fill="#94C748"/>
<path d="M422.427 305.333C422.666 305.708 424.986 305.708 425.235 305.333C425.579 304.802 425.766 304.251 425.776 303.533C425.672 302.722 425.183 302.524 425.235 301.973C425.235 301.047 425.88 299.486 426.037 299.101C426.057 299.049 426.068 298.987 426.057 298.935C425.974 298.539 425.62 296.781 425.787 295.283C425.787 294.222 425.776 293.556 425.776 293.212C425.756 292.401 425.527 291.797 425.079 291.194C424.84 290.872 422.822 290.872 422.572 291.194C422.135 291.787 421.896 292.401 421.875 293.212C421.875 293.525 421.313 294.19 421.22 295.116C421.199 295.272 421.241 295.418 421.334 295.574C422.094 296.864 421.875 298.55 421.875 298.55C421.875 298.55 421.875 301.057 421.865 302.118C421.865 302.919 421.865 303.304 421.875 303.533C421.896 304.251 422.073 304.802 422.416 305.333H422.427Z" fill="#94C748"/>
<path d="M422.447 275.973C422.665 276.4 424.985 276.389 425.255 276.088C425.62 275.64 425.848 275.203 425.963 274.631C425.984 273.955 425.578 273.664 425.765 273.216C425.994 272.405 427.19 271.51 427.482 271.354C427.523 271.333 427.555 271.291 427.575 271.25C427.648 270.948 428.2 269.492 429.281 268.795C429.937 268.201 430.405 267.91 430.644 267.754C431.206 267.38 431.539 266.953 431.851 266.339C432.018 265.996 431.3 264.113 430.873 264.03C430.103 263.884 429.354 263.967 428.564 264.456C428.262 264.643 427.305 264.591 426.4 265.257C426.254 265.361 426.14 265.507 426.067 265.694C425.765 266.495 425.297 267.203 424.933 267.754C424.558 268.295 424.257 268.68 424.257 268.68C424.257 268.68 423.851 269.273 423.456 270.043C423.06 270.813 422.686 271.77 422.519 272.353C422.249 273.227 422.207 273.664 422.145 273.924C422.02 274.725 422.145 275.391 422.467 275.984L422.447 275.973Z" fill="#94C748"/>
<path d="M446.333 262.802C445.959 263.041 445.959 265.361 446.333 265.611C446.864 265.954 447.415 266.142 448.133 266.152C448.945 266.048 449.142 265.559 449.694 265.611C450.62 265.611 452.18 266.256 452.565 266.412C452.617 266.433 452.679 266.443 452.731 266.433C453.127 266.35 454.885 265.996 456.383 266.162C457.444 266.162 458.11 266.152 458.453 266.152C459.265 266.131 459.868 265.902 460.471 265.455C460.794 265.216 460.794 263.197 460.471 262.948C459.878 262.511 459.265 262.271 458.453 262.251C458.141 262.251 457.475 261.689 456.549 261.595C456.393 261.574 456.248 261.616 456.092 261.71C454.802 262.469 453.116 262.251 453.116 262.251C453.116 262.251 450.609 262.251 449.548 262.24C448.747 262.24 448.362 262.24 448.133 262.251C447.415 262.261 446.864 262.448 446.333 262.792V262.802Z" fill="#94C748"/>
<path d="M475.65 262.802C475.275 263.041 475.275 265.361 475.65 265.611C476.18 265.954 476.731 266.142 477.449 266.152C478.261 266.048 478.458 265.559 479.01 265.611C479.936 265.611 481.496 266.256 481.871 266.412C481.923 266.433 481.985 266.443 482.037 266.433C482.432 266.35 484.191 265.996 485.689 266.162C486.75 266.162 487.416 266.152 487.759 266.152C488.57 266.131 489.174 265.902 489.777 265.455C490.1 265.216 490.1 263.197 489.777 262.948C489.184 262.511 488.57 262.271 487.759 262.251C487.447 262.251 486.781 261.689 485.855 261.595C485.699 261.574 485.553 261.616 485.397 261.71C484.107 262.469 482.422 262.251 482.422 262.251C482.422 262.251 479.915 262.251 478.854 262.24C478.053 262.24 477.668 262.24 477.439 262.251C476.721 262.261 476.17 262.448 475.639 262.792L475.65 262.802Z" fill="#94C748"/>
<path d="M504.956 262.802C504.581 263.041 504.581 265.361 504.956 265.611C505.486 265.954 506.038 266.142 506.755 266.152C507.567 266.048 507.765 265.559 508.316 265.611C509.242 265.611 510.802 266.256 511.187 266.412C511.239 266.433 511.302 266.443 511.354 266.433C511.749 266.35 513.507 265.996 515.005 266.162C516.066 266.162 516.732 266.152 517.075 266.152C517.887 266.131 518.49 265.902 519.094 265.455C519.416 265.216 519.416 263.197 519.094 262.948C518.501 262.511 517.887 262.271 517.075 262.251C516.763 262.251 516.098 261.689 515.172 261.595C515.016 261.574 514.87 261.616 514.724 261.71C513.434 262.469 511.749 262.251 511.749 262.251C511.749 262.251 509.242 262.251 508.181 262.24C507.38 262.24 506.995 262.24 506.766 262.251C506.048 262.261 505.497 262.448 504.966 262.792L504.956 262.802Z" fill="#94C748"/>
<path d="M534.26 262.802C533.886 263.041 533.886 265.361 534.26 265.611C534.791 265.954 535.342 266.142 536.06 266.152C536.871 266.048 537.069 265.559 537.62 265.611C538.546 265.611 540.107 266.256 540.492 266.412C540.544 266.433 540.606 266.443 540.658 266.433C541.053 266.35 542.812 265.996 544.31 266.162C545.371 266.162 546.037 266.152 546.38 266.152C547.191 266.131 547.795 265.902 548.398 265.455C548.721 265.216 548.721 263.197 548.398 262.948C547.805 262.511 547.191 262.271 546.38 262.251C546.068 262.251 545.402 261.689 544.476 261.595C544.32 261.574 544.174 261.616 544.018 261.71C542.728 262.469 541.043 262.251 541.043 262.251C541.043 262.251 538.536 262.251 537.475 262.24C536.674 262.24 536.289 262.24 536.06 262.251C535.342 262.261 534.791 262.448 534.26 262.792V262.802Z" fill="#94C748"/>
<path d="M831.232 182.868H784.365C768.415 182.868 755.486 195.796 755.486 211.744C755.486 227.692 768.415 240.62 784.365 240.62H831.232C847.181 240.62 860.111 227.692 860.111 211.744C860.111 195.796 847.181 182.868 831.232 182.868Z" fill="#94C748"/>
<path d="M482.255 342.954H358.779C342.829 342.954 329.9 355.882 329.9 371.83C329.9 387.778 342.829 400.706 358.779 400.706H482.255C498.205 400.706 511.135 387.778 511.135 371.83C511.135 355.882 498.205 342.954 482.255 342.954Z" fill="#94C748"/>
<path d="M381.946 22.917H289.077C273.127 22.917 260.197 35.8453 260.197 51.7931C260.197 67.741 273.127 80.6692 289.077 80.6692H381.946C397.896 80.6692 410.826 67.741 410.826 51.7931C410.826 35.8453 397.896 22.917 381.946 22.917Z" fill="#94C748"/>
<path d="M334.155 16.4251C334.394 16.7997 336.714 16.7997 336.964 16.4251C337.307 15.8945 337.494 15.3431 337.505 14.6252C337.401 13.8137 336.912 13.6161 336.964 13.0647C336.964 12.1387 337.609 10.5781 337.765 10.2036C337.786 10.1515 337.796 10.0891 337.786 10.0371C337.702 9.64176 337.349 7.88349 337.515 6.38533C337.515 5.32412 337.505 4.65827 337.505 4.31494C337.484 3.50344 337.255 2.90001 336.808 2.29658C336.568 1.97406 334.55 1.97406 334.301 2.29658C333.864 2.8896 333.624 3.50344 333.604 4.31494C333.604 4.62706 333.042 5.29291 332.948 6.21886C332.927 6.37492 332.969 6.52058 333.063 6.67664C333.822 7.97713 333.604 9.65216 333.604 9.65216C333.604 9.65216 333.604 12.1595 333.593 13.2207C333.593 14.0218 333.593 14.4068 333.604 14.6356C333.614 15.3535 333.801 15.9049 334.144 16.4355L334.155 16.4251Z" fill="#94C748"/>
<path d="M536.779 27.7971C536.54 17.414 534.22 17.414 533.971 27.7971C533.627 42.5187 533.44 57.9789 533.43 77.8504C533.482 89.1179 533.627 96.151 533.763 102.268C533.815 105.327 533.867 108.168 533.929 111.195C533.929 111.955 533.95 112.714 533.95 113.505C533.95 113.9 533.95 114.295 533.95 114.701V115.305C533.95 115.398 533.95 115.461 533.929 115.544C533.867 115.846 533.627 116.137 533.305 116.241C533.138 116.303 533.066 116.293 532.493 116.293C532.036 116.293 531.567 116.293 531.089 116.293C505.299 116.293 461.793 115.648 451.317 115.492C449.767 115.471 448.217 115.461 446.656 115.471C435.545 115.554 386.837 115.908 344.892 115.742C315.263 115.742 296.933 115.752 287.351 115.752C264.735 115.773 247.829 116.002 231.247 116.449C222.133 116.688 222.133 118.707 231.247 118.956C247.84 119.393 264.735 119.633 287.351 119.653C296.142 119.653 314.452 120.215 340.304 120.309C344.517 120.33 348.73 120.288 352.902 120.194C388.949 119.435 435.743 119.653 435.743 119.653C435.743 119.653 453.2 119.653 474.339 119.653C484.909 119.653 496.404 119.653 507.089 119.653C512.436 119.653 517.575 119.653 522.309 119.653C524.67 119.653 526.938 119.653 529.06 119.653H532.15C532.4 119.653 532.649 119.653 532.889 119.653C533.201 119.653 533.679 119.622 534.054 119.508C534.844 119.31 535.552 118.873 536.093 118.322C536.915 117.51 537.341 116.262 537.31 115.232C537.31 114.556 537.31 113.9 537.31 113.255C537.31 111.955 537.31 110.696 537.31 109.489C537.31 107.065 537.31 104.797 537.31 102.685C537.31 98.4606 537.31 94.8401 537.31 91.7085C537.31 85.4453 537.31 81.1277 537.31 77.8504C537.289 57.9789 537.112 42.5187 536.769 27.7971H536.779Z" fill="#94C748"/>
<path d="M416.788 105.014C417.318 104.14 415.685 102.496 414.801 103.027C413.552 103.787 412.377 104.713 411.003 106.055C409.547 107.667 409.505 108.385 408.423 109.384C407.55 110.268 406.249 111.329 405.074 112.245C403.836 113.181 402.754 114.014 402.337 114.326C402.109 114.523 401.89 114.732 401.692 114.95C401.422 115.241 400.975 115.73 399.185 117.561C399.549 117.894 400.163 118.456 400.954 119.184C401.578 119.767 402.338 120.485 403.18 121.286C404.241 122.285 405.49 123.502 406.603 124.709C408.621 126.717 409.88 127.965 410.525 128.621C412.075 130.15 413.396 131.128 414.842 131.95C415.633 132.397 417.058 130.972 416.611 130.181C415.789 128.735 414.811 127.424 413.282 125.864C412.689 125.26 411.836 123.627 410.14 121.796C409.869 121.494 409.547 121.234 409.204 121.015C408.09 120.298 406.967 119.392 406.01 118.529C405.885 118.425 405.771 118.31 405.656 118.206L405.49 118.05L405.427 117.998C405.365 117.946 405.302 117.894 405.24 117.842C405.126 117.738 405.032 117.645 404.97 117.572C405.084 117.478 405.157 117.416 405.157 117.416C405.157 117.416 409.328 113.254 411.087 111.496C412.595 109.977 413.323 109.249 413.76 108.801C415.102 107.438 416.028 106.252 416.788 105.004V105.014Z" fill="#94C748"/>
<path d="M240.027 105.014C240.557 104.14 238.924 102.496 238.04 103.027C236.791 103.787 235.616 104.713 234.242 106.055C232.786 107.667 232.744 108.385 231.662 109.384C230.789 110.268 229.488 111.329 228.313 112.245C227.075 113.181 225.993 114.014 225.576 114.326C225.348 114.523 225.129 114.732 224.932 114.95C224.661 115.241 224.214 115.73 222.424 117.561C222.788 117.894 223.402 118.456 224.193 119.184C224.817 119.767 225.576 120.485 226.419 121.286C227.48 122.285 228.729 123.502 229.842 124.709C231.86 126.717 233.119 127.965 233.764 128.621C235.314 130.15 236.635 131.128 238.081 131.95C238.872 132.397 240.297 130.972 239.85 130.181C239.028 128.735 238.05 127.424 236.521 125.864C235.928 125.26 235.075 123.627 233.379 121.796C233.108 121.494 232.786 121.234 232.443 121.015C231.33 120.298 230.206 119.392 229.249 118.529C229.124 118.425 229.01 118.31 228.895 118.206L228.729 118.05L228.666 117.998C228.604 117.946 228.541 117.894 228.479 117.842C228.365 117.738 228.271 117.645 228.209 117.572C228.323 117.478 228.396 117.416 228.396 117.416C228.396 117.416 232.567 113.254 234.326 111.496C235.834 109.977 236.562 109.249 236.999 108.801C238.341 107.438 239.267 106.252 240.027 105.004V105.014Z" fill="#94C748"/>
<path d="M263.954 132.222C264.828 132.752 266.471 131.119 265.941 130.234C265.181 128.986 264.256 127.81 262.914 126.437C261.301 124.98 260.583 124.939 259.585 123.857C258.711 122.983 257.639 121.682 256.724 120.507C256.266 119.914 255.839 119.352 255.496 118.894C255.319 118.665 255.174 118.457 255.038 118.28C254.924 118.124 254.747 117.906 254.82 117.947C254.841 117.927 254.841 117.927 254.83 117.937C254.809 117.937 254.799 117.958 254.726 117.937C254.685 117.937 254.653 117.916 254.643 117.874C254.695 117.77 254.435 117.979 255.132 117.261C256.131 116.199 257.348 114.951 258.555 113.838C260.562 111.819 261.811 110.561 262.466 109.915C263.995 108.365 264.973 107.044 265.795 105.598C266.243 104.807 264.817 103.382 264.027 103.829C262.581 104.651 261.27 105.629 259.709 107.158C259.106 107.751 257.473 108.605 255.642 110.3C255.34 110.581 255.08 110.893 254.861 111.237C254.144 112.35 253.239 113.474 252.375 114.431C252.271 114.556 252.157 114.67 252.053 114.785C251.907 114.93 251.772 115.086 251.636 115.232C251.272 115.606 250.929 115.96 250.607 116.283C249.951 116.938 249.389 117.5 248.952 117.937C249.545 118.551 249.899 118.915 249.899 118.915C249.899 118.915 255.236 124.263 257.493 126.52C259.012 128.029 259.741 128.757 260.188 129.194C261.551 130.536 262.737 131.462 263.985 132.222H263.954Z" fill="#94C748"/>
<path d="M269.478 513.37C269.238 504.495 266.919 504.495 266.669 513.37C266.492 519.664 266.367 526.115 266.274 533.116C266.263 533.99 266.253 534.875 266.242 535.769V536.446C266.242 536.602 266.222 536.55 266.232 536.591C266.232 536.612 266.232 536.643 266.211 536.664C266.19 536.747 266.138 536.831 266.065 536.903C266.003 536.976 265.909 537.018 265.826 537.039C265.785 537.049 265.733 537.049 265.691 537.049H265.015C264.078 537.039 263.132 537.028 262.175 537.028C258.346 537.018 254.341 536.997 250.086 536.987C230.819 537.091 226.034 537.58 212.978 537.528C190.923 537.528 153.721 536.883 144.764 536.727C143.442 536.706 142.111 536.695 140.779 536.706C131.281 536.789 89.6265 537.143 53.7561 536.976C28.4242 536.976 12.7465 536.987 4.55914 536.987C-14.7805 537.008 -29.2306 537.236 -43.4206 537.684C-51.2127 537.923 -51.2127 539.941 -43.4206 540.191C-29.2306 540.628 -14.7805 540.867 4.55914 540.888C12.0703 540.888 27.7272 541.45 49.8341 541.544C53.4336 541.564 57.0331 541.523 60.6014 541.429C91.4262 540.67 131.437 540.888 131.437 540.888C131.437 540.888 191.152 540.888 216.359 540.899C235.334 540.899 244.468 540.899 250.086 540.888C254.331 540.878 258.346 540.857 262.175 540.847C263.132 540.847 264.078 540.836 265.015 540.826H265.733C266.117 540.805 266.502 540.763 266.867 540.649C267.605 540.43 268.271 540.014 268.781 539.463C269.301 538.911 269.655 538.225 269.821 537.497C269.904 537.164 269.925 536.706 269.925 536.456V535.78C269.904 534.885 269.894 534.001 269.883 533.127C269.79 526.125 269.665 519.675 269.488 513.38L269.478 513.37Z" fill="#94C748"/>
<path d="M143.099 526.24C143.629 525.366 141.996 523.722 141.112 524.253C139.863 525.012 138.688 525.938 137.314 527.28C135.858 528.893 135.816 529.611 134.734 530.609C133.861 531.483 132.56 532.555 131.385 533.471C130.147 534.407 129.065 535.239 128.649 535.551C128.42 535.749 128.201 535.957 128.004 536.176C127.733 536.467 127.286 536.956 125.496 538.787C125.86 539.12 126.474 539.682 127.265 540.41C127.889 540.993 128.649 541.71 129.491 542.512C130.552 543.51 131.801 544.728 132.914 545.934C134.932 547.942 136.191 549.191 136.836 549.846C138.386 551.376 139.707 552.354 141.153 553.176C141.944 553.623 143.369 552.198 142.922 551.407C142.1 549.961 141.122 548.65 139.593 547.089C139 546.486 138.147 544.852 136.451 543.021C136.18 542.72 135.858 542.46 135.515 542.241C134.402 541.523 133.278 540.618 132.321 539.754C132.196 539.65 132.082 539.536 131.967 539.432L131.801 539.276L131.738 539.224C131.676 539.172 131.613 539.12 131.551 539.068C131.437 538.964 131.343 538.87 131.281 538.797C131.395 538.704 131.468 538.641 131.468 538.641C131.468 538.641 135.64 534.48 137.398 532.721C138.906 531.203 139.634 530.474 140.071 530.027C141.413 528.664 142.339 527.478 143.099 526.229V526.24Z" fill="#94C748"/>
<path d="M1246.48 513.37C1246.24 504.495 1243.92 504.495 1243.67 513.37C1243.49 519.664 1243.37 526.115 1243.27 533.116C1243.26 533.99 1243.25 534.875 1243.24 535.769V536.446C1243.24 536.602 1243.22 536.55 1243.23 536.591C1243.23 536.612 1243.23 536.643 1243.21 536.664C1243.19 536.747 1243.14 536.831 1243.07 536.903C1243 536.976 1242.91 537.018 1242.83 537.039C1242.79 537.049 1242.73 537.049 1242.69 537.049H1242.02C1241.08 537.039 1240.13 537.028 1239.18 537.028C1235.35 537.018 1231.34 536.997 1227.09 536.987C1207.82 537.091 1203.03 537.58 1189.98 537.528C1167.92 537.528 1130.72 536.883 1121.76 536.727C1120.44 536.706 1119.11 536.695 1117.78 536.706C1108.28 536.789 1066.63 537.143 1030.76 536.976C1005.43 536.976 989.747 536.987 981.56 536.987C962.22 537.008 947.77 537.236 933.58 537.684C925.788 537.923 925.788 539.941 933.58 540.191C947.77 540.628 962.22 540.867 981.56 540.888C989.071 540.888 1004.73 541.45 1026.84 541.544C1030.43 541.564 1034.03 541.523 1037.6 541.429C1068.43 540.67 1108.44 540.888 1108.44 540.888C1108.44 540.888 1168.15 540.888 1193.36 540.899C1212.34 540.899 1221.47 540.899 1227.09 540.888C1231.33 540.878 1235.35 540.857 1239.18 540.847C1240.13 540.847 1241.08 540.836 1242.02 540.826H1242.73C1243.12 540.805 1243.5 540.763 1243.87 540.649C1244.61 540.43 1245.27 540.014 1245.78 539.463C1246.3 538.911 1246.66 538.225 1246.82 537.497C1246.91 537.164 1246.93 536.706 1246.93 536.456V535.78C1246.91 534.885 1246.89 534.001 1246.88 533.127C1246.79 526.125 1246.67 519.675 1246.49 513.38L1246.48 513.37Z" fill="#94C748"/>
<path d="M943.337 526.24C943.868 525.366 942.235 523.722 941.35 524.253C940.102 525.012 938.926 525.938 937.553 527.28C936.097 528.893 936.055 529.611 934.973 530.609C934.099 531.483 932.799 532.555 931.623 533.471C930.385 534.407 929.303 535.239 928.887 535.551C928.658 535.749 928.44 535.957 928.242 536.176C927.972 536.467 927.524 536.956 925.735 538.787C926.099 539.12 926.713 539.682 927.504 540.41C928.128 540.993 928.887 541.71 929.73 542.512C930.791 543.51 932.039 544.728 933.153 545.934C935.171 547.942 936.43 549.191 937.075 549.846C938.625 551.376 939.946 552.354 941.392 553.176C942.183 553.623 943.608 552.198 943.161 551.407C942.339 549.961 941.361 548.65 939.831 547.089C939.239 546.486 938.385 544.852 936.69 543.021C936.419 542.72 936.097 542.46 935.753 542.241C934.64 541.523 933.517 540.618 932.56 539.754C932.435 539.65 932.32 539.536 932.206 539.432L932.039 539.276L931.977 539.224C931.915 539.172 931.852 539.12 931.79 539.068C931.675 538.964 931.582 538.87 931.519 538.797C931.634 538.704 931.707 538.641 931.707 538.641C931.707 538.641 935.878 534.48 937.636 532.721C939.145 531.203 939.873 530.474 940.31 530.027C941.652 528.664 942.578 527.478 943.337 526.229V526.24Z" fill="#94C748"/>
<path d="M967.266 553.457C968.14 553.987 969.783 552.354 969.253 551.47C968.493 550.221 967.568 549.046 966.226 547.672C964.613 546.216 963.895 546.174 962.896 545.092C962.023 544.218 960.951 542.918 960.036 541.742C959.578 541.149 959.151 540.587 958.808 540.129C958.631 539.901 958.486 539.692 958.35 539.516C958.236 539.36 958.059 539.141 958.132 539.183C958.153 539.162 958.153 539.162 958.142 539.172C958.121 539.172 958.111 539.193 958.038 539.172C957.997 539.172 957.965 539.151 957.955 539.11C958.007 539.006 957.747 539.214 958.444 538.496C959.443 537.435 960.66 536.186 961.867 535.073C963.874 533.055 965.123 531.796 965.778 531.151C967.307 529.601 968.285 528.279 969.107 526.833C969.555 526.042 968.129 524.617 967.339 525.065C965.893 525.886 964.582 526.864 963.021 528.394C962.418 528.987 960.785 529.84 958.954 531.536C958.652 531.806 958.392 532.129 958.173 532.472C957.456 533.585 956.551 534.709 955.687 535.666C955.583 535.791 955.469 535.905 955.365 536.02C955.219 536.176 955.084 536.322 954.948 536.467C954.584 536.842 954.241 537.196 953.919 537.518C953.263 538.173 952.701 538.735 952.264 539.172C952.857 539.786 953.211 540.15 953.211 540.15C953.211 540.15 958.548 545.498 960.805 547.755C962.324 549.264 963.053 549.992 963.5 550.429C964.863 551.771 966.049 552.697 967.297 553.457H967.266Z" fill="#94C748"/>
<path d="M722.611 378.67L709.742 394.484L740.38 428.068L812.578 368.973L797.213 353.159L744.136 401.829L722.611 378.67Z" fill="#94C748"/>
<path d="M64.6381 110.728L51.7693 126.542L82.4069 160.126L154.616 101.032L139.25 85.2178L86.1728 133.887L64.6381 110.728Z" fill="#82B536"/>
<path d="M760.312 304.844C760.552 307.622 762.871 307.622 763.121 304.844C763.464 300.911 763.652 296.77 763.662 291.454C763.558 285.43 763.069 283.932 763.121 279.843C763.121 278.979 763.142 278.043 763.152 277.065C763.163 276.576 763.173 276.066 763.184 275.557V275.203L763.204 275.078C763.204 274.995 763.236 274.922 763.267 274.849C763.34 274.714 763.475 274.61 763.62 274.568C763.693 274.547 763.766 274.547 763.849 274.568H763.953L764.349 274.599C765.42 274.641 766.481 274.683 767.511 274.724C771.631 274.932 775.241 275.12 776.645 275.192C777.061 275.213 777.478 275.224 777.894 275.213C779.381 275.172 783.376 275.057 788.411 274.984C790.929 274.964 793.696 274.932 796.547 274.901H800.843C801.561 274.901 802.279 274.901 802.986 274.912H804.047C804.266 274.912 805.088 274.974 805.702 274.86C807.512 274.506 808.802 272.945 808.958 271.301C808.968 271.093 808.989 270.885 808.979 270.677V270.209C808.979 269.991 808.979 269.772 808.979 269.564C808.979 269.137 808.979 268.721 808.979 268.315C808.979 266.703 808.979 265.267 808.979 263.998C808.979 261.459 808.979 259.597 808.979 258.317C808.958 252.273 808.729 247.747 808.282 243.304C808.042 240.87 806.024 240.87 805.774 243.304C805.337 247.747 805.098 252.262 805.077 258.317C805.077 259.493 804.942 261.303 804.786 263.686C804.724 264.882 804.651 266.214 804.568 267.681C804.536 268.419 804.516 269.179 804.484 269.98C804.474 270.563 804.464 270.344 804.453 270.386C804.443 270.386 804.432 270.386 804.432 270.386C804.432 270.386 804.432 270.386 804.432 270.407L802.976 270.5C793.332 271.26 780.817 271.041 780.817 271.041C780.817 271.041 776.146 271.041 770.497 271.041C769.082 271.041 767.605 271.041 766.128 271.041C765.379 271.041 764.619 271.041 763.881 271.041C762.611 270.948 761.373 271.457 760.614 272.404C760.239 272.872 759.969 273.424 759.854 273.996C759.792 274.287 759.782 274.579 759.771 274.88V275.546C759.771 276.222 759.771 276.888 759.771 277.523C759.771 278.792 759.771 279.947 759.771 280.925C759.771 286.866 759.771 289.716 759.782 291.475C759.792 296.791 759.979 300.921 760.323 304.865L760.312 304.844Z" fill="#94C748"/>
<path d="M807.315 181.474C807.555 184.272 809.875 184.272 810.124 181.474C810.468 177.499 810.655 173.317 810.665 167.948C810.561 161.862 810.072 160.354 810.124 156.223C810.124 155.349 810.145 154.403 810.155 153.414C810.166 152.915 810.176 152.405 810.187 151.895C810.197 151.698 810.207 151.562 810.259 151.406C810.28 151.333 810.311 151.261 810.363 151.209C810.426 151.146 810.52 151.198 810.592 151.198L810.821 151.229H810.925L811.289 151.261C812.371 151.302 813.443 151.344 814.483 151.385C818.644 151.593 822.296 151.781 823.711 151.854C824.127 151.874 824.554 151.885 824.97 151.874C826.468 151.833 830.515 151.718 835.591 151.645C838.13 151.625 840.928 151.593 843.81 151.562H848.148C849.833 151.573 851.508 151.593 853.152 151.604C853.391 151.614 853.599 151.562 853.818 151.541C854.047 151.531 854.224 151.458 854.39 151.375C854.567 151.302 854.733 151.25 854.879 151.125C855.045 151.011 855.191 150.865 855.316 150.709C855.815 150.106 856.065 149.315 856.169 148.493C856.221 148.087 856.242 147.661 856.231 147.245C856.231 146.985 856.231 146.735 856.231 146.485C856.231 146.059 856.231 145.632 856.231 145.226C856.231 143.593 856.231 142.147 856.231 140.867C856.231 138.308 856.231 136.425 856.231 135.124C856.211 129.017 855.982 124.45 855.534 119.966C855.295 117.5 853.277 117.5 853.027 119.966C852.59 124.45 852.351 129.017 852.33 135.124C852.33 136.31 852.184 138.141 852.039 140.544C851.976 141.751 851.904 143.093 851.82 144.581C851.789 145.32 851.768 146.1 851.737 146.901C851.737 147.047 851.737 147.016 851.737 147.016H851.727H851.706C851.706 147.016 851.706 147.016 851.706 147.037C851.706 147.037 851.706 147.037 851.706 147.047H851.602L851.175 147.068L850.333 147.12C840.595 147.879 827.955 147.661 827.955 147.661C827.955 147.661 823.243 147.661 817.531 147.661C816.106 147.661 814.618 147.661 813.12 147.661C812.35 147.661 811.57 147.661 810.811 147.661C810.176 147.682 809.5 147.619 808.928 147.723C808.626 147.754 808.418 147.89 808.168 147.962C807.94 148.067 807.711 148.295 807.555 148.514C806.899 149.409 806.764 150.668 806.795 151.854C806.795 152.54 806.795 153.206 806.795 153.851C806.795 155.131 806.795 156.296 806.795 157.295C806.795 163.287 806.795 166.18 806.806 167.948C806.816 173.317 807.003 177.489 807.347 181.474H807.315Z" fill="#94C748"/>
<path d="M617.736 544.852C617.362 545.091 617.362 547.411 617.736 547.661C618.267 548.004 618.818 548.191 619.536 548.202C620.348 548.098 620.545 547.609 621.097 547.661C622.023 547.661 623.583 548.306 623.968 548.462C624.02 548.483 624.082 548.493 624.134 548.483C624.53 548.399 626.288 548.046 627.786 548.212C628.847 548.212 629.513 548.202 629.856 548.202C630.668 548.181 631.271 547.952 631.874 547.505C632.197 547.265 632.197 545.247 631.874 544.997C631.281 544.56 630.668 544.321 629.856 544.3C629.544 544.3 628.878 543.739 627.952 543.645C627.796 543.624 627.651 543.666 627.495 543.759C626.205 544.519 624.519 544.3 624.519 544.3C624.519 544.3 622.012 544.3 620.951 544.29C620.15 544.29 619.765 544.29 619.536 544.3C618.818 544.321 618.267 544.498 617.736 544.841V544.852Z" fill="#94C748"/>
<path d="M647.053 544.852C646.678 545.091 646.678 547.411 647.053 547.661C647.583 548.004 648.135 548.191 648.852 548.202C649.664 548.098 649.861 547.609 650.413 547.661C651.339 547.661 652.899 548.306 653.274 548.462C653.326 548.483 653.388 548.493 653.44 548.483C653.836 548.399 655.594 548.046 657.092 548.212C658.153 548.212 658.819 548.202 659.162 548.202C659.973 548.181 660.577 547.952 661.18 547.505C661.503 547.265 661.503 545.247 661.18 544.997C660.587 544.56 659.973 544.321 659.162 544.3C658.85 544.3 658.184 543.739 657.258 543.645C657.102 543.624 656.957 543.666 656.8 543.759C655.51 544.519 653.825 544.3 653.825 544.3C653.825 544.3 651.318 544.3 650.257 544.29C649.456 544.29 649.071 544.29 648.842 544.3C648.124 544.321 647.573 544.498 647.042 544.841L647.053 544.852Z" fill="#94C748"/>
<path d="M676.359 544.852C675.984 545.091 675.984 547.411 676.359 547.661C676.89 548.004 677.441 548.191 678.159 548.202C678.97 548.098 679.168 547.609 679.719 547.661C680.645 547.661 682.206 548.306 682.591 548.462C682.643 548.483 682.705 548.493 682.757 548.483C683.152 548.399 684.911 548.046 686.409 548.212C687.47 548.212 688.136 548.202 688.479 548.202C689.29 548.181 689.894 547.952 690.497 547.505C690.82 547.265 690.82 545.247 690.497 544.997C689.904 544.56 689.29 544.321 688.479 544.3C688.167 544.3 687.501 543.739 686.575 543.645C686.419 543.624 686.273 543.666 686.117 543.759C684.827 544.519 683.142 544.3 683.142 544.3C683.142 544.3 680.635 544.3 679.574 544.29C678.773 544.29 678.388 544.29 678.159 544.3C677.441 544.321 676.89 544.498 676.359 544.841V544.852Z" fill="#94C748"/>
<path d="M705.665 544.852C705.291 545.091 705.291 547.411 705.665 547.661C706.196 548.004 706.747 548.191 707.465 548.202C708.277 548.098 708.474 547.609 709.026 547.661C709.952 547.661 711.512 548.306 711.887 548.462C711.939 548.483 712.001 548.493 712.053 548.483C712.448 548.399 714.206 548.046 715.705 548.212C716.766 548.212 717.431 548.202 717.775 548.202C718.586 548.181 719.19 547.952 719.793 547.505C720.115 547.265 720.115 545.247 719.793 544.997C719.2 544.56 718.586 544.321 717.775 544.3C717.463 544.3 716.797 543.739 715.871 543.645C715.715 543.624 715.569 543.666 715.413 543.759C714.123 544.519 712.438 544.3 712.438 544.3C712.438 544.3 709.931 544.3 708.87 544.29C708.069 544.29 707.684 544.29 707.455 544.3C706.737 544.321 706.186 544.498 705.655 544.841L705.665 544.852Z" fill="#94C748"/>
<path d="M734.982 544.852C734.607 545.091 734.607 547.411 734.982 547.661C735.512 548.004 736.063 548.192 736.781 548.202C736.979 548.171 737.145 548.129 737.291 548.067C737.343 548.035 737.458 548.004 737.572 547.963C737.676 547.921 737.77 547.879 737.874 547.848C738.238 547.671 738.508 547.515 738.945 547.37C739.653 547.099 740.589 546.568 741.224 545.767C741.869 544.987 742.139 544.02 742.212 543.655C742.233 543.603 742.243 543.541 742.233 543.489C742.149 543.094 741.796 541.335 741.962 539.827C741.962 538.766 741.952 538.1 741.952 537.756C741.931 536.945 741.702 536.331 741.255 535.738C741.015 535.415 738.997 535.415 738.748 535.738C738.311 536.331 738.071 536.945 738.051 537.756C738.051 538.068 737.489 538.734 737.395 539.66C737.374 539.816 737.416 539.962 737.51 540.118C738.269 541.419 738.051 543.094 738.051 543.094C738.051 543.094 738.051 543.25 738.051 543.499C738.051 543.666 738.051 543.687 738.051 543.728C738.051 543.77 738.04 543.822 738.019 543.863C737.957 544.061 737.749 544.228 737.614 544.259C737.562 544.28 737.52 544.29 737.478 544.29C737.416 544.29 737.458 544.29 737.301 544.29C737.073 544.29 736.917 544.29 736.802 544.29C736.084 544.311 735.533 544.488 735.002 544.831L734.982 544.852Z" fill="#94C748"/>
<path d="M738.581 520.56C738.821 520.934 741.141 520.934 741.39 520.56C741.734 520.029 741.921 519.478 741.931 518.76C741.827 517.949 741.338 517.751 741.39 517.199C741.39 516.273 742.035 514.713 742.191 514.338C742.212 514.286 742.223 514.224 742.212 514.172C742.129 513.777 741.775 512.018 741.942 510.52C741.942 509.459 741.931 508.793 741.931 508.45C741.91 507.638 741.682 507.035 741.234 506.431C740.995 506.109 738.977 506.109 738.727 506.431C738.29 507.024 738.051 507.638 738.03 508.45C738.03 508.762 737.468 509.428 737.375 510.354C737.354 510.51 737.395 510.655 737.489 510.811C738.248 512.101 738.03 513.787 738.03 513.787C738.03 513.787 738.03 516.294 738.02 517.355C738.02 518.157 738.02 518.542 738.03 518.77C738.04 519.488 738.228 520.04 738.571 520.57L738.581 520.56Z" fill="#94C748"/>
<path d="M751.678 500.885C751.304 501.124 751.304 503.444 751.678 503.694C752.209 504.037 752.76 504.225 753.478 504.235C754.29 504.131 754.487 503.642 755.039 503.694C755.964 503.694 757.525 504.339 757.91 504.495C757.962 504.516 758.024 504.526 758.076 504.516C758.472 504.433 760.23 504.079 761.728 504.245C762.789 504.245 763.455 504.235 763.798 504.235C764.61 504.214 765.213 503.985 765.816 503.538C766.139 503.299 766.139 501.28 765.816 501.031C765.223 500.594 764.61 500.354 763.798 500.334C763.486 500.334 762.82 499.772 761.894 499.678C761.738 499.657 761.593 499.699 761.437 499.793C760.147 500.552 758.461 500.334 758.461 500.334C758.461 500.334 755.954 500.334 754.893 500.323C754.092 500.323 753.707 500.323 753.478 500.334C752.76 500.354 752.209 500.531 751.678 500.875V500.885Z" fill="#94C748"/>
<path d="M780.995 500.885C780.62 501.124 780.62 503.444 780.995 503.694C781.525 504.037 782.076 504.225 782.794 504.235C783.606 504.131 783.803 503.642 784.355 503.694C785.281 503.694 786.841 504.339 787.216 504.495C787.268 504.516 787.33 504.526 787.382 504.516C787.777 504.433 789.536 504.079 791.034 504.245C792.095 504.245 792.761 504.235 793.104 504.235C793.915 504.214 794.519 503.985 795.122 503.538C795.445 503.299 795.445 501.28 795.122 501.031C794.529 500.594 793.915 500.354 793.104 500.334C792.792 500.334 792.126 499.772 791.2 499.678C791.044 499.657 790.898 499.699 790.742 499.793C789.452 500.552 787.767 500.334 787.767 500.334C787.767 500.334 785.26 500.334 784.199 500.323C783.398 500.323 783.013 500.323 782.784 500.334C782.066 500.354 781.515 500.531 780.984 500.875L780.995 500.885Z" fill="#94C748"/>
<path d="M810.301 500.885C809.926 501.124 809.926 503.444 810.301 503.694C810.831 504.037 811.383 504.225 812.101 504.235C812.912 504.131 813.11 503.642 813.661 503.694C814.587 503.694 816.148 504.339 816.532 504.495C816.584 504.516 816.647 504.526 816.699 504.516C817.094 504.433 818.852 504.079 820.35 504.245C821.412 504.245 822.077 504.235 822.421 504.235C823.232 504.214 823.836 503.985 824.439 503.538C824.761 503.299 824.761 501.28 824.439 501.031C823.846 500.594 823.232 500.354 822.421 500.334C822.109 500.334 821.443 499.772 820.517 499.678C820.361 499.657 820.215 499.699 820.07 499.793C818.78 500.552 817.094 500.334 817.094 500.334C817.094 500.334 814.587 500.334 813.526 500.323C812.725 500.323 812.34 500.323 812.111 500.334C811.393 500.354 810.842 500.531 810.311 500.875L810.301 500.885Z" fill="#94C748"/>
<path d="M839.618 500.885C839.243 501.124 839.243 503.444 839.618 503.694C840.148 504.037 840.7 504.225 841.418 504.235C842.229 504.131 842.427 503.642 842.978 503.694C843.904 503.694 845.464 504.339 845.849 504.495C845.901 504.516 845.964 504.526 846.016 504.516C846.411 504.433 848.169 504.079 849.667 504.245C850.729 504.245 851.394 504.235 851.738 504.235C852.549 504.214 853.152 503.985 853.756 503.538C854.078 503.299 854.078 501.28 853.756 501.031C853.163 500.594 852.549 500.354 851.738 500.334C851.426 500.334 850.76 499.772 849.834 499.678C849.678 499.657 849.532 499.699 849.376 499.793C848.086 500.552 846.401 500.334 846.401 500.334C846.401 500.334 843.894 500.334 842.832 500.323C842.031 500.323 841.646 500.323 841.418 500.334C840.7 500.354 840.148 500.531 839.618 500.875V500.885Z" fill="#94C748"/>
<path d="M868.923 500.885C868.549 501.124 868.549 503.444 868.923 503.694C869.454 504.037 870.005 504.225 870.723 504.235C871.534 504.131 871.732 503.642 872.283 503.694C873.209 503.694 874.77 504.339 875.144 504.495C875.196 504.516 875.259 504.526 875.311 504.516C875.706 504.433 877.464 504.079 878.962 504.245C880.023 504.245 880.689 504.235 881.033 504.235C881.844 504.214 882.447 503.985 883.051 503.538C883.373 503.299 883.373 501.28 883.051 501.031C882.458 500.594 881.844 500.354 881.033 500.334C880.72 500.334 880.055 499.772 879.129 499.678C878.973 499.657 878.827 499.699 878.671 499.793C877.381 500.552 875.696 500.334 875.696 500.334C875.696 500.334 873.189 500.334 872.127 500.323C871.326 500.323 870.941 500.323 870.713 500.334C869.995 500.354 869.443 500.531 868.913 500.875L868.923 500.885Z" fill="#94C748"/>
<path d="M898.23 500.885C897.855 501.124 897.855 503.444 898.23 503.694C898.49 503.871 898.76 503.996 899.062 504.089C899.208 504.131 899.364 504.173 899.52 504.194C899.696 504.214 899.78 504.246 900.175 504.225C900.934 504.121 901.33 503.798 901.631 503.538C901.923 503.257 902.131 503.007 902.495 502.747C903.078 502.269 903.806 501.468 904.149 500.5C904.243 500.261 904.305 500.022 904.357 499.793C904.409 499.564 904.451 499.522 904.492 499.387C904.576 499.168 904.648 499.002 904.69 498.908C904.711 498.856 904.721 498.794 904.711 498.742C904.628 498.346 904.274 496.588 904.44 495.08C904.44 494.018 904.43 493.353 904.43 493.009C904.409 492.198 904.18 491.584 903.733 490.991C903.494 490.668 901.475 490.668 901.226 490.991C900.789 491.584 900.55 492.198 900.529 493.009C900.529 493.321 899.967 493.987 899.873 494.913C899.853 495.069 899.894 495.215 899.988 495.371C900.747 496.671 900.529 498.347 900.529 498.347C900.529 498.347 900.529 498.95 900.529 499.689C900.529 499.897 900.394 500.115 900.269 500.188C900.102 500.323 899.977 500.313 899.925 500.323C899.925 500.323 899.686 500.344 899.54 500.365C899.384 500.386 899.228 500.427 899.083 500.469C898.791 500.563 898.521 500.687 898.25 500.864L898.23 500.885Z" fill="#94C748"/>
<path d="M901.059 475.822C901.298 476.196 903.618 476.196 903.868 475.822C904.211 475.291 904.399 474.74 904.409 474.022C904.305 473.21 903.816 473.013 903.868 472.461C903.868 471.535 904.513 469.975 904.669 469.6C904.69 469.548 904.7 469.486 904.69 469.434C904.607 469.038 904.253 467.28 904.419 465.782C904.419 464.721 904.409 464.055 904.409 463.711C904.388 462.9 904.159 462.296 903.712 461.693C903.473 461.371 901.455 461.371 901.205 461.693C900.768 462.286 900.529 462.9 900.508 463.711C900.508 464.024 899.946 464.689 899.852 465.615C899.832 465.771 899.873 465.917 899.967 466.073C900.726 467.363 900.508 469.049 900.508 469.049C900.508 469.049 900.508 471.556 900.497 472.617C900.497 473.418 900.497 473.803 900.508 474.032C900.518 474.75 900.706 475.301 901.049 475.832L901.059 475.822Z" fill="#94C748"/>
<path d="M907.01 447.856C906.916 448.293 908.56 449.937 908.997 449.843C909.61 449.708 910.141 449.448 910.651 448.959C911.15 448.314 910.953 447.825 911.369 447.482C912.024 446.826 913.585 446.181 913.969 446.025C914.021 446.004 914.074 445.963 914.105 445.921C914.323 445.578 915.311 444.09 916.497 443.143C917.246 442.384 917.704 441.915 917.954 441.676C918.516 441.094 918.776 440.49 918.89 439.762C918.953 439.356 917.527 437.931 917.122 437.993C916.383 438.097 915.79 438.368 915.207 438.93C914.979 439.148 914.126 439.221 913.397 439.814C913.283 439.908 913.2 440.043 913.158 440.209C912.773 441.655 911.441 442.696 911.441 442.696C911.441 442.696 909.663 444.464 908.914 445.214C908.352 445.786 908.081 446.056 907.915 446.223C907.426 446.743 907.155 447.263 907.031 447.877L907.01 447.856Z" fill="#94C748"/>
<path d="M927.733 427.132C927.639 427.568 929.283 429.212 929.72 429.119C930.334 428.983 930.864 428.723 931.374 428.234C931.874 427.589 931.676 427.1 932.102 426.757C932.758 426.102 934.318 425.456 934.703 425.3C934.755 425.28 934.807 425.238 934.839 425.196C935.057 424.853 936.045 423.365 937.231 422.419C937.98 421.659 938.438 421.191 938.688 420.952C939.25 420.369 939.51 419.766 939.624 419.037C939.686 418.632 938.261 417.206 937.855 417.269C937.117 417.373 936.524 417.643 935.941 418.205C935.712 418.423 934.859 418.496 934.131 419.089C934.017 419.183 933.933 419.318 933.892 419.485C933.507 420.931 932.175 421.971 932.175 421.971C932.175 421.971 930.396 423.74 929.647 424.489C929.086 425.061 928.815 425.332 928.649 425.498C928.16 426.018 927.889 426.538 927.764 427.152L927.733 427.132Z" fill="#94C748"/>
<path d="M948.466 406.396C948.373 406.833 950.016 408.477 950.453 408.383C951.067 408.248 951.598 407.988 952.107 407.499C952.607 406.854 952.409 406.365 952.836 406.022C953.491 405.366 955.052 404.721 955.436 404.565C955.488 404.544 955.54 404.503 955.572 404.461C955.79 404.118 956.778 402.63 957.964 401.683C958.713 400.924 959.171 400.456 959.421 400.216C959.983 399.634 960.243 399.03 960.357 398.302C960.42 397.896 958.994 396.471 958.589 396.533C957.85 396.637 957.257 396.908 956.674 397.47C956.446 397.688 955.592 397.761 954.864 398.354C954.75 398.448 954.667 398.583 954.625 398.749C954.24 400.195 952.908 401.236 952.908 401.236C952.908 401.236 951.13 403.004 950.38 403.754C949.819 404.326 949.548 404.596 949.382 404.763C948.893 405.283 948.622 405.803 948.497 406.417L948.466 406.396Z" fill="#94C748"/>
<path d="M553.985 276.544C553.465 277.408 555.109 279.052 555.972 278.531C557.2 277.793 558.355 276.898 559.686 275.587C561.112 274.016 561.143 273.298 562.194 272.32C563.91 270.604 567.26 268.159 568.071 267.576C568.134 267.534 568.186 267.482 568.238 267.441L568.508 267.16C568.852 266.785 569.465 266.005 569.653 264.788C569.861 263.602 569.507 261.979 568.217 260.845C567.874 260.522 567.51 260.189 567.146 259.846C566.802 259.513 566.438 259.17 566.084 258.826C565.367 258.129 564.649 257.391 563.983 256.662C562.006 254.696 560.779 253.479 560.144 252.844C558.625 251.346 557.335 250.389 555.92 249.598C555.14 249.161 553.715 250.586 554.152 251.367C554.943 252.782 555.9 254.072 557.398 255.591C557.98 256.173 558.802 257.786 560.456 259.575C560.727 259.867 561.028 260.116 561.372 260.335C562.1 260.803 562.839 261.355 563.536 261.927C563.879 262.208 564.212 262.499 564.534 262.78C564.826 263.04 565.096 263.29 565.356 263.529C565.533 263.654 565.595 263.862 565.575 263.987C565.564 264.122 565.512 264.184 565.512 264.184C565.512 264.184 565.481 264.299 565.346 264.413C564.898 264.861 564.274 265.485 563.598 266.161C562.194 267.566 560.539 269.22 559.551 270.198C558.074 271.675 557.366 272.393 556.93 272.83C555.619 274.162 554.724 275.327 553.985 276.544Z" fill="#94C748"/>
<path d="M160.295 193.034C160.056 192.659 157.736 192.659 157.487 193.034C157.143 193.564 156.956 194.116 156.946 194.834C157.05 195.645 157.539 195.843 157.487 196.394C157.487 197.32 156.842 198.881 156.686 199.266C156.665 199.318 156.654 199.38 156.665 199.432C156.748 199.828 157.102 201.586 156.935 203.084C156.935 204.145 156.946 204.811 156.946 205.154C156.966 205.966 157.195 206.569 157.643 207.173C157.882 207.495 159.9 207.495 160.15 207.173C160.587 206.58 160.826 205.966 160.847 205.154C160.847 204.842 161.409 204.176 161.502 203.25C161.523 203.094 161.481 202.949 161.388 202.793C160.628 201.503 160.847 199.817 160.847 199.817C160.847 199.817 160.847 197.31 160.857 196.249C160.857 195.448 160.857 195.063 160.847 194.834C160.836 194.116 160.649 193.564 160.306 193.034H160.295Z" fill="#94C748"/>
<path d="M160.295 222.34C160.056 221.966 157.736 221.966 157.487 222.34C157.143 222.871 156.956 223.422 156.946 224.14C157.05 224.952 157.539 225.15 157.487 225.701C157.487 226.627 156.842 228.187 156.686 228.572C156.665 228.624 156.654 228.687 156.665 228.739C156.706 228.937 156.821 229.478 156.894 230.154C156.935 230.497 156.966 230.861 156.977 231.246C156.977 231.444 156.977 231.621 156.977 231.829C156.977 232.058 156.966 232.276 156.956 232.495C157.029 233.743 157.206 234.492 157.289 234.888C157.507 235.814 157.976 236.438 158.621 236.885C158.985 237.145 160.836 236.323 160.951 235.959C161.159 235.293 161.232 234.732 161.097 234.055C161.045 233.785 161.471 233.14 161.523 232.401C161.523 232.276 161.492 232.162 161.398 232.037C161.013 231.517 160.878 230.684 160.836 230.123C160.795 229.54 160.847 229.124 160.847 229.124C160.847 229.124 160.847 226.616 160.857 225.555C160.857 224.754 160.857 224.369 160.847 224.14C160.836 223.422 160.649 222.871 160.306 222.34H160.295Z" fill="#94C748"/>
<path d="M171.845 243.044C171.47 243.283 171.47 245.604 171.845 245.853C172.375 246.197 172.927 246.384 173.644 246.394C174.456 246.29 174.653 245.801 175.205 245.853C176.131 245.853 177.691 246.498 178.066 246.654C178.118 246.675 178.18 246.686 178.232 246.675C178.628 246.592 180.386 246.238 181.884 246.405C182.945 246.405 183.611 246.394 183.954 246.394C184.765 246.373 185.369 246.145 185.972 245.697C186.295 245.458 186.295 243.439 185.972 243.19C185.379 242.753 184.765 242.514 183.954 242.493C183.642 242.493 182.976 241.931 182.05 241.837C181.894 241.816 181.748 241.858 181.592 241.952C180.302 242.711 178.617 242.493 178.617 242.493C178.617 242.493 176.11 242.493 175.049 242.482C174.248 242.482 173.863 242.482 173.634 242.493C172.916 242.514 172.365 242.69 171.834 243.034L171.845 243.044Z" fill="#94C748"/>
<path d="M201.16 243.044C200.785 243.283 200.785 245.604 201.16 245.853C201.69 246.197 202.242 246.384 202.96 246.394C203.771 246.29 203.969 245.801 204.52 245.853C205.446 245.853 207.006 246.498 207.381 246.654C207.433 246.675 207.495 246.686 207.547 246.675C207.943 246.592 209.701 246.238 211.199 246.405C212.26 246.405 212.926 246.394 213.269 246.394C214.081 246.373 214.684 246.145 215.287 245.697C215.61 245.458 215.61 243.439 215.287 243.19C214.694 242.753 214.081 242.514 213.269 242.493C212.957 242.493 212.291 241.931 211.365 241.837C211.209 241.816 211.064 241.858 210.908 241.952C209.618 242.711 207.932 242.493 207.932 242.493C207.932 242.493 205.425 242.493 204.364 242.482C203.563 242.482 203.178 242.482 202.949 242.493C202.231 242.514 201.68 242.69 201.149 243.034L201.16 243.044Z" fill="#94C748"/>
<path d="M230.466 243.044C230.092 243.283 230.092 245.604 230.466 245.853C230.997 246.197 231.548 246.384 232.266 246.394C233.077 246.29 233.275 245.801 233.826 245.853C234.752 245.853 236.313 246.498 236.698 246.654C236.75 246.675 236.812 246.686 236.864 246.675C237.26 246.592 239.018 246.238 240.516 246.405C241.577 246.405 242.243 246.394 242.586 246.394C243.397 246.373 244.001 246.145 244.604 245.697C244.927 245.458 244.927 243.439 244.604 243.19C244.011 242.753 243.397 242.514 242.586 242.493C242.274 242.493 241.608 241.931 240.682 241.837C240.526 241.816 240.38 241.858 240.224 241.952C238.934 242.711 237.249 242.493 237.249 242.493C237.249 242.493 234.742 242.493 233.681 242.482C232.88 242.482 232.495 242.482 232.266 242.493C231.548 242.514 230.997 242.69 230.466 243.034V243.044Z" fill="#94C748"/>
<path d="M259.782 243.044C259.408 243.283 259.408 245.604 259.782 245.853C260.313 246.197 260.864 246.384 261.582 246.394C262.394 246.29 262.591 245.801 263.143 245.853C264.068 245.853 265.629 246.498 266.003 246.654C266.056 246.675 266.118 246.686 266.17 246.675C266.565 246.592 268.323 246.238 269.821 246.405C270.883 246.405 271.548 246.394 271.892 246.394C272.703 246.373 273.307 246.145 273.91 245.697C274.232 245.458 274.232 243.439 273.91 243.19C273.317 242.753 272.703 242.514 271.892 242.493C271.58 242.493 270.914 241.931 269.988 241.837C269.832 241.816 269.686 241.858 269.53 241.952C268.24 242.711 266.555 242.493 266.555 242.493C266.555 242.493 264.048 242.493 262.987 242.482C262.186 242.482 261.801 242.482 261.572 242.493C260.854 242.514 260.303 242.69 259.772 243.034L259.782 243.044Z" fill="#94C748"/>
<path d="M288.996 243.044C288.746 243.283 288.746 245.604 288.996 245.853C289.35 246.197 289.714 246.384 290.192 246.394C290.733 246.29 290.858 245.801 291.222 245.853C291.836 245.853 292.876 246.498 293.126 246.654C293.168 246.675 293.199 246.686 293.24 246.675C293.5 246.592 294.666 246.238 295.664 246.405C296.372 246.405 296.809 246.394 297.038 246.394C297.579 246.373 297.984 246.145 298.38 245.697C298.598 245.458 298.598 243.439 298.38 243.19C297.984 242.753 297.579 242.514 297.038 242.493C296.829 242.493 296.393 241.931 295.779 241.837C295.675 241.816 295.581 241.858 295.477 241.952C294.614 242.711 293.5 242.493 293.5 242.493C293.5 242.493 291.836 242.493 291.129 242.482C290.598 242.482 290.348 242.482 290.192 242.493C289.714 242.514 289.35 242.69 288.996 243.034V243.044Z" fill="#94C748"/>
<path d="M291.148 230.019C290.284 229.498 288.641 231.142 289.161 232.006C289.899 233.233 290.794 234.388 292.105 235.72C293.676 237.145 294.394 237.177 295.371 238.227C297.088 239.944 299.533 243.294 300.115 244.106C300.157 244.168 300.209 244.22 300.251 244.272C300.313 244.334 300.271 244.293 300.292 244.303C300.292 244.303 300.531 244.262 300.459 244.47C300.178 244.782 299.876 245.104 299.564 245.437C299.231 245.781 298.888 246.134 298.544 246.498C297.847 247.216 297.109 247.934 296.391 248.6C294.425 250.577 293.208 251.804 292.573 252.439C291.075 253.958 290.118 255.248 289.327 256.663C288.89 257.443 290.315 258.869 291.096 258.432C292.511 257.641 293.801 256.684 295.319 255.186C295.902 254.603 297.514 253.781 299.304 252.127C299.595 251.856 299.845 251.555 300.063 251.211C300.531 250.483 301.083 249.744 301.655 249.047C301.936 248.704 302.227 248.371 302.508 248.049C302.654 247.893 302.789 247.736 302.924 247.591C303.091 247.414 303.247 247.248 303.403 247.091C304.349 246.166 304.62 245.011 304.599 244.241C304.599 243.845 304.526 243.544 304.485 243.336C304.422 243.128 304.391 243.013 304.391 243.013C304.193 242.472 303.871 241.994 303.465 241.577L297.483 235.574C296.006 234.097 295.288 233.389 294.851 232.953C293.52 231.642 292.354 230.747 291.137 230.008L291.148 230.019Z" fill="#94C748"/>
<path d="M775.42 296.894C775.94 296.031 774.296 294.387 773.433 294.907C772.205 295.646 771.05 296.541 769.719 297.852C768.294 299.423 768.262 300.14 767.212 301.118C765.495 302.835 762.145 305.28 761.334 305.863C761.271 305.904 761.219 305.956 761.167 305.998C761.105 306.06 761.146 306.019 761.136 306.039C761.136 306.039 761.178 306.279 760.97 306.206C760.658 305.925 760.335 305.623 760.002 305.311C759.659 304.978 759.305 304.635 758.941 304.292C758.223 303.595 757.505 302.856 756.84 302.138C754.863 300.172 753.635 298.954 753.001 298.32C751.482 296.822 750.192 295.864 748.777 295.074C747.997 294.637 746.572 296.062 747.009 296.842C747.799 298.257 748.756 299.547 750.254 301.066C750.837 301.649 751.659 303.262 753.313 305.051C753.583 305.342 753.885 305.592 754.228 305.811C754.957 306.279 755.695 306.83 756.392 307.402C756.736 307.683 757.068 307.975 757.391 308.256C757.547 308.401 757.703 308.536 757.849 308.672C758.026 308.838 758.192 308.994 758.348 309.15C759.274 310.097 760.429 310.368 761.199 310.347C761.594 310.347 761.896 310.274 762.104 310.232C762.312 310.17 762.416 310.139 762.416 310.139C762.957 309.941 763.435 309.618 763.851 309.213L769.854 303.23C771.331 301.753 772.039 301.035 772.476 300.598C773.786 299.267 774.681 298.101 775.42 296.884V296.894Z" fill="#94C748"/>
<path d="M334.155 548.919C334.394 549.294 336.714 549.294 336.964 548.919C337.307 548.389 337.494 547.837 337.505 547.119C337.401 546.308 336.912 546.11 336.964 545.559C336.964 545.33 337.005 545.06 337.068 544.768C337.099 544.623 337.14 544.487 337.172 544.342L337.234 544.123C337.255 544.05 337.276 543.967 337.296 543.978C337.473 543.863 337.681 543.936 337.765 543.978C337.785 543.988 337.796 543.998 337.785 543.978C337.765 543.967 337.723 543.936 337.681 543.863C337.619 543.801 337.598 543.728 337.629 543.686C337.65 543.665 337.681 543.655 337.713 543.655C337.775 543.655 337.681 543.665 338.077 543.697C339.138 543.697 339.804 543.686 340.147 543.686C340.958 543.665 341.562 543.437 342.165 542.989C342.488 542.75 342.488 540.731 342.165 540.482C341.572 540.045 340.958 539.806 340.147 539.785C339.835 539.785 339.169 539.223 338.243 539.129C338.087 539.108 337.941 539.15 337.785 539.244C336.142 539.743 334.612 539.816 333.624 539.816C333.624 540.419 333.593 540.752 333.593 540.752C333.593 540.752 333.593 544.217 333.583 545.684C333.583 546.485 333.583 546.87 333.593 547.099C333.603 547.817 333.791 548.368 334.134 548.899L334.155 548.919Z" fill="#94C748"/>
<path d="M357.344 540.368C356.969 540.608 356.969 542.928 357.344 543.177C357.874 543.521 358.426 543.708 359.143 543.718C359.955 543.614 360.153 543.125 360.704 543.177C361.63 543.177 363.19 543.822 363.575 543.979C363.627 543.999 363.69 544.01 363.742 543.999C364.137 543.916 365.895 543.562 367.393 543.729C368.454 543.729 369.12 543.718 369.463 543.718C370.275 543.698 370.878 543.469 371.482 543.021C371.804 542.782 371.804 540.764 371.482 540.514C370.889 540.077 370.275 539.838 369.463 539.817C369.151 539.817 368.486 539.255 367.56 539.162C367.404 539.141 367.258 539.182 367.102 539.276C365.812 540.035 364.127 539.817 364.127 539.817C364.127 539.817 361.619 539.817 360.558 539.807C359.757 539.807 359.372 539.807 359.143 539.817C358.426 539.838 357.874 540.015 357.344 540.358V540.368Z" fill="#94C748"/>
<path d="M386.66 540.368C386.285 540.608 386.285 542.928 386.66 543.177C387.19 543.521 387.742 543.708 388.46 543.718C389.271 543.614 389.469 543.125 390.02 543.177C390.946 543.177 392.506 543.822 392.891 543.979C392.943 543.999 393.006 544.01 393.058 543.999C393.453 543.916 395.211 543.562 396.709 543.729C397.77 543.729 398.436 543.718 398.78 543.718C399.591 543.698 400.194 543.469 400.798 543.021C401.12 542.782 401.12 540.764 400.798 540.514C400.205 540.077 399.591 539.838 398.78 539.817C398.467 539.817 397.802 539.255 396.876 539.162C396.72 539.141 396.574 539.182 396.418 539.276C395.128 540.035 393.443 539.817 393.443 539.817C393.443 539.817 390.936 539.817 389.874 539.807C389.073 539.807 388.688 539.807 388.46 539.817C387.742 539.838 387.19 540.015 386.66 540.358V540.368Z" fill="#94C748"/>
<path d="M415.966 540.368C415.591 540.608 415.591 542.928 415.966 543.177C416.497 543.521 417.048 543.708 417.766 543.718C418.577 543.614 418.775 543.125 419.326 543.177C420.252 543.177 421.813 543.822 422.187 543.979C422.239 543.999 422.302 544.01 422.354 543.999C422.749 543.916 424.507 543.562 426.005 543.729C427.066 543.729 427.732 543.718 428.075 543.718C428.887 543.698 429.49 543.469 430.094 543.021C430.416 542.782 430.416 540.764 430.094 540.514C429.501 540.077 428.887 539.838 428.075 539.817C427.763 539.817 427.097 539.255 426.172 539.162C426.015 539.141 425.87 539.182 425.714 539.276C424.424 540.035 422.738 539.817 422.738 539.817C422.738 539.817 420.231 539.817 419.17 539.807C418.369 539.807 417.984 539.807 417.755 539.817C417.037 539.838 416.486 540.015 415.956 540.358L415.966 540.368Z" fill="#94C748"/>
<path d="M445.147 540.368C444.949 540.608 444.949 542.928 445.147 543.177C445.417 543.521 445.708 543.708 446.083 543.718C446.499 543.614 446.603 543.125 446.894 543.177C447.373 543.177 448.184 543.822 448.382 543.979C448.413 543.999 448.444 544.01 448.465 543.999C448.673 543.916 449.578 543.562 450.359 543.729C450.91 543.729 451.253 543.718 451.43 543.718C451.857 543.698 452.169 543.469 452.481 543.021C452.647 542.782 452.647 540.764 452.481 540.514C452.169 540.077 451.857 539.838 451.43 539.817C451.264 539.817 450.92 539.255 450.442 539.162C450.359 539.141 450.286 539.182 450.202 539.276C449.526 540.035 448.663 539.817 448.663 539.817C448.663 539.817 447.362 539.817 446.811 539.807C446.395 539.807 446.197 539.807 446.072 539.817C445.698 539.838 445.417 540.015 445.136 540.358L445.147 540.368Z" fill="#94C748"/>
<path d="M613.794 204.227C607.084 204.466 607.084 206.786 613.794 207.036C623.302 207.379 633.289 207.567 646.137 207.577C660.692 207.473 664.312 206.984 674.174 207.036C682.507 207.036 693.701 207.192 703.657 207.379H704.167C704.437 207.379 704.708 207.348 704.978 207.307C705.509 207.203 706.029 206.995 706.487 206.714C707.402 206.152 708.11 205.257 708.432 204.237C708.505 203.977 708.578 203.717 708.609 203.457C708.63 203.322 708.64 203.197 708.651 203.062V202.76C708.671 202.469 708.671 202.167 708.682 201.876C708.692 201.293 708.703 200.711 708.713 200.149C708.765 197.881 708.807 195.748 708.848 193.823C708.931 189.974 709.004 186.946 709.046 185.25C709.067 184.252 709.077 183.242 709.067 182.244C708.983 175.065 708.63 143.593 708.796 116.491C708.796 97.3474 708.786 85.4973 708.786 79.307C708.765 64.6895 708.536 53.7653 708.089 43.0493C707.849 37.1607 705.831 37.1607 705.582 43.0493C705.145 53.7653 704.905 64.6895 704.885 79.307C704.885 84.9876 704.323 96.8168 704.229 113.526C704.208 116.251 704.25 118.967 704.344 121.661C705.103 144.956 704.885 175.19 704.885 175.19C704.885 175.19 704.885 186.468 704.885 200.128C704.885 200.981 704.885 201.845 704.885 202.718V202.875V202.927C704.885 202.958 704.874 202.989 704.874 203.031C704.853 203.093 704.843 203.166 704.812 203.218C704.76 203.343 704.656 203.447 704.552 203.53C704.437 203.603 704.312 203.655 704.167 203.665H703.657H702.991C702.097 203.665 701.212 203.665 700.318 203.665C696.739 203.665 693.16 203.665 689.706 203.665C682.798 203.665 676.411 203.665 671.646 203.665C657.311 203.665 650.403 203.665 646.169 203.676C633.331 203.686 623.334 203.873 613.825 204.217L613.794 204.227Z" fill="#94C748"/>
<path d="M711.877 44.7356L713.136 45.287C713.136 45.287 714.364 47.2013 715.622 47.1909L717.745 49.7919C717.745 49.7919 718.91 50.6034 719.596 50.4994C720.023 50.4369 720.439 50.2705 720.73 50.0208C721.323 49.5318 721.438 48.7515 720.293 47.992C720.314 47.9504 720.304 47.8776 720.345 47.8256C718.941 47.2221 718.66 45.5679 717.547 44.6315C717.401 44.8084 717.245 44.8916 717.297 44.7772L717.505 44.5899C716.423 44.309 716.642 43.2374 715.331 43.2998L715.664 43.1126C714.53 42.1138 713.302 40.8237 712.033 39.5336C711.399 38.8886 710.743 38.2435 710.098 37.6401C709.672 37.2448 709.245 36.8598 708.829 36.4853C708.257 35.9547 707.695 35.4657 707.175 35.0183V35.0911V35.1328C707.341 35.4969 707.799 36.2044 708.174 36.7662C708.527 37.2968 708.839 37.765 708.839 37.765C708.111 37.7233 707.737 37.5361 707.393 37.1615C707.05 36.787 706.728 36.2044 706.322 35.5801C705.989 35.7362 705.614 35.9651 705.271 36.3292L705.177 35.9131C705.677 35.4241 706.114 34.8102 706.332 34.3941C706.405 34.4357 706.436 34.4461 706.457 34.4461C706.426 34.4045 706.395 34.3629 706.332 34.29C705.781 34.675 705.053 35.2784 704.22 36.0171C703.825 36.3708 703.419 36.7454 703.014 37.1303C702.774 37.3488 702.535 37.5777 702.296 37.8066C701.359 38.7325 700.527 39.7521 700.122 40.5532C700.35 40.7197 700.298 39.9082 701.027 40.4492C700.725 40.7717 700.506 41.1774 700.205 41.4583C699.789 41.0422 700.101 41.0214 700.059 40.9069C699.102 40.9694 688.324 50.8947 692.538 50.1664L692.683 50.4473C693.411 49.8959 694.015 49.4486 695.086 49.1885C695.149 49.0636 695.201 49.0948 694.982 48.8764C694.982 48.8139 694.951 48.7203 694.857 48.6371C694.337 48.1377 694.743 48.1273 694.816 48.0232C696.314 49.7503 697.032 46.1089 697.385 45.88C698.207 46.5875 697.978 45.339 698.478 45.4847C698.499 45.5263 698.592 45.776 698.603 45.8176C699.248 46.1505 700.444 42.2074 700.663 43.8929C701.921 43.5079 703.097 42.6756 704.231 41.6352C704.803 41.115 705.365 40.5428 705.916 39.9394C706.062 39.7521 706.155 39.5856 706.322 39.3568C706.457 39.44 706.613 39.5544 706.78 39.6897C706.78 39.6897 707.123 40.0226 707.341 40.2411C707.581 40.4804 707.81 40.7301 708.028 40.9694C708.912 41.9473 709.63 42.9565 710.067 44.0281L710.129 43.9137C710.129 43.9657 710.254 44.0073 710.161 44.1322C710.795 44.1426 711.877 44.7668 711.877 44.7668V44.7356ZM705.666 38.0563C705.666 38.0563 705.677 38.1187 705.687 38.1395C705.646 38.0146 705.323 38.4412 705.302 38.4308L705.125 38.0979C705.178 37.5569 705.76 37.5881 705.947 37.9626C706.062 38.1291 706.103 38.3476 706.103 38.4516C706.093 38.5661 706.041 38.5452 705.802 38.41C705.802 38.5244 705.708 38.2019 705.666 38.0667V38.0563ZM702.067 41.6248C701.973 41.6768 701.869 41.7288 701.765 41.8017C701.921 40.0226 704.231 39.7001 704.917 38.2643C705.708 39.7625 704.231 40.033 703.711 40.4284C703.513 41.1566 702.65 41.3855 702.077 41.6248H702.067ZM695.648 47.7215L695.783 47.8568L695.752 47.888C695.752 47.888 695.679 47.8047 695.669 47.7839C695.648 47.7527 695.638 47.7215 695.659 47.7215H695.648ZM711.96 43.612C711.68 43.7472 711.523 43.3623 712.116 43.1334C712.096 43.2478 712.418 43.1854 711.96 43.612ZM700.673 42.4259C701.089 42.8421 700.829 43.2894 700.246 42.7068C700.361 42.5716 700.517 42.4987 700.673 42.4259ZM715.071 45.8176C715.612 45.4639 715.081 45.9424 714.842 46.2442C714.884 46.1609 714.821 46.0465 715.04 45.8592L715.071 45.8176ZM717.006 47.2117C717.245 47.014 717.485 46.9724 717.537 47.0036C717.485 47.2846 716.86 47.4614 717.006 47.2117ZM719.794 49.9167C720.044 49.6775 720.2 49.6567 719.971 49.9167C719.784 50.0936 719.555 50.156 719.836 49.8647C719.825 49.8751 719.804 49.9063 719.804 49.9167H719.794ZM698.124 43.175C697.479 42.3427 698.405 42.6132 698.384 42.2386C699.081 43.0085 698.228 42.7796 698.218 43.0502C698.166 43.0918 698.135 43.1334 698.124 43.175ZM710.618 39.5648C711.263 38.9094 711.118 39.7937 711.378 39.7729L711.118 40.0226C710.868 39.9082 710.598 39.9706 710.618 39.5752V39.5648ZM701.224 39.6169C701.037 39.2943 701.391 39.4192 701.464 39.3464C701.828 39.7105 701.588 40.0746 701.224 39.6169ZM704.834 36.1836C705.073 36.7558 704.751 36.6829 704.709 36.8078C704.699 36.6517 704.637 36.2148 704.709 36.1627C704.751 36.1315 704.793 36.1836 704.845 36.194L704.834 36.1836ZM710.233 39.6793C710.088 39.5544 709.942 39.388 709.807 39.2319L710.067 38.9822C710.213 39.1383 710.348 39.2839 710.494 39.4296L710.233 39.6793ZM709.214 37.869L709.474 37.6089C709.921 37.5673 709.297 38.2539 709.224 37.869H709.214ZM712.377 41.2191C712.377 41.2191 712.356 41.1358 712.335 41.115C712.012 40.8549 713.354 40.3243 712.377 41.2191ZM714.166 42.4987C714.228 42.4987 714.343 42.4571 714.374 42.4987C714.551 42.738 713.698 43.123 714.166 42.4987Z" fill="#B3DF72"/>
<path d="M698.268 68.0497L697.717 69.3086C697.717 69.3086 695.802 70.5362 695.813 71.7951L693.212 73.9175C693.212 73.9175 692.401 75.0827 692.505 75.7694C692.567 76.196 692.733 76.6121 692.983 76.9034C693.472 77.4964 694.252 77.6109 695.012 76.4665C695.053 76.4873 695.126 76.4769 695.178 76.5185C695.782 75.1139 697.436 74.833 698.372 73.7198C698.195 73.5742 698.112 73.4181 698.226 73.4701L698.414 73.6782C698.694 72.5962 699.766 72.8147 699.704 71.5038L699.891 71.8367C700.89 70.7027 702.18 69.475 703.47 68.2057C704.115 67.5711 704.76 66.9157 705.363 66.2706L705.81 65.7816L705.914 65.6568C705.914 65.6568 705.914 65.636 705.925 65.6256L705.946 65.5631C705.987 65.4591 706.029 65.3447 706.07 65.2406V65.199L706.05 65.147C705.998 65.0013 705.842 64.9077 705.644 64.9181C705.446 64.9181 705.238 64.9909 705.228 65.0013C705.051 64.5019 705.238 64.117 705.477 63.9089C705.717 63.7008 705.987 63.6904 706.174 63.7216C706.331 64.065 706.445 64.3147 706.58 64.4291L706.466 64.8349C706.341 64.6996 706.206 64.7516 706.174 64.9077C706.164 64.9493 706.154 64.9701 706.154 65.0013C706.154 65.0013 706.164 65.0013 706.174 65.0013C706.226 65.1574 706.289 65.3551 706.351 65.5631L706.372 65.6464V65.6776C706.372 65.6776 706.382 65.6776 706.393 65.6984L706.476 65.792C706.695 66.0313 706.923 66.2706 707.152 66.5099C708.078 67.4462 709.098 68.2786 709.899 68.6843C710.065 68.4554 709.254 68.5074 709.795 67.7792C710.117 68.0809 710.523 68.2994 710.804 68.6011C710.388 69.0172 710.367 68.7051 710.253 68.7467C710.315 69.7039 720.24 80.4824 719.511 76.2688L719.792 76.1231C719.241 75.3949 718.794 74.7914 718.534 73.7198C718.409 73.6574 718.44 73.6054 718.221 73.8239C718.159 73.8239 718.065 73.8551 717.982 73.9487C717.483 74.4689 717.472 74.0632 717.368 73.9903C719.095 72.4922 715.454 71.7743 715.225 71.4206C715.933 70.5986 714.684 70.8275 714.83 70.3281C714.872 70.3073 715.121 70.2137 715.163 70.2033C715.496 69.5582 711.553 68.3618 713.238 68.1433C712.853 66.8844 712.021 65.7088 710.981 64.5748C710.461 64.0025 709.888 63.4407 709.285 62.8893C708.265 61.9218 707.225 60.9438 706.195 59.9658C705.353 60.8502 704.51 61.7345 703.688 62.598C703.386 62.8997 703.095 63.2014 702.804 63.4928C702.565 63.732 702.315 63.9609 702.076 64.1794C701.098 65.0637 700.089 65.7816 699.017 66.2186L699.131 66.281C699.079 66.281 699.038 66.4059 698.913 66.3122C698.903 66.9469 698.278 68.0289 698.278 68.0289L698.268 68.0497ZM707.111 62.8061C707.111 62.8061 707.132 62.7541 707.132 62.7333C707.1 62.8581 707.61 63.2743 707.621 63.3263L707.433 63.6488C707.059 63.7737 706.934 63.0246 706.757 62.2963C706.684 61.9426 706.632 61.6304 706.695 61.5888C706.747 61.5368 706.923 61.7865 707.152 62.3899C707.225 62.3379 707.132 62.6604 707.09 62.8061H707.111ZM711.002 66.7284C711.054 66.822 711.106 66.926 711.178 67.0301C709.399 66.8636 709.087 64.5644 707.631 63.8673C709.139 63.0974 709.399 64.5644 709.805 65.0846C710.533 65.2822 710.762 66.1458 711.002 66.718V66.7284ZM717.098 73.1476L717.233 73.0124L717.264 73.0436C717.264 73.0436 717.181 73.1164 717.16 73.1268C717.129 73.1476 717.098 73.158 717.098 73.1372V73.1476ZM699.381 68.1329C699.246 67.852 699.631 67.6959 699.86 68.289C699.745 68.2682 699.808 68.5907 699.381 68.1329ZM711.803 68.1329C712.219 67.7168 712.666 67.9768 712.083 68.5595C711.948 68.445 711.875 68.289 711.803 68.1329ZM697.176 71.2333C697.529 71.7743 697.051 71.2437 696.749 71.0044C696.832 71.046 696.947 70.9836 697.134 71.2021L697.176 71.2333ZM695.782 73.1684C695.979 73.4077 696.021 73.647 695.99 73.699C695.709 73.647 695.532 73.0228 695.782 73.1684ZM693.087 75.9671C693.326 76.2168 693.347 76.3728 693.087 76.1439C692.91 75.9567 692.848 75.7278 693.139 76.0087C693.129 75.9983 693.098 75.9775 693.087 75.9775V75.9671ZM712.552 70.6715C711.719 71.3165 711.99 70.3906 711.615 70.4114C712.385 69.7143 712.156 70.5674 712.427 70.5778C712.468 70.6299 712.51 70.6611 712.552 70.6715ZM703.438 66.7908C704.094 67.4358 703.21 67.2902 703.23 67.5503L702.981 67.2902C703.095 67.0405 703.033 66.77 703.428 66.7908H703.438ZM709.004 67.5711C708.682 67.7584 708.806 67.4046 708.734 67.3318C709.098 66.9677 709.462 67.207 709.004 67.5711ZM706.549 64.9389C706.757 64.3459 706.726 64.71 706.778 64.6684C706.705 64.762 706.539 65.0846 706.528 65.0742C706.528 65.0533 706.549 64.9909 706.549 64.9389ZM703.314 66.4059C703.438 66.2602 703.605 66.1145 703.761 65.9793L704.011 66.2394C703.865 66.385 703.709 66.5307 703.563 66.666L703.314 66.4059ZM705.134 65.3759L705.394 65.636C705.436 66.0833 704.749 65.4591 705.134 65.3863V65.3759ZM701.784 68.5491C701.784 68.5491 701.868 68.5283 701.888 68.5074C702.148 68.1849 702.679 69.527 701.784 68.5491ZM700.505 70.3385C700.505 70.401 700.546 70.5154 700.505 70.5466C700.265 70.7235 699.88 69.8704 700.505 70.3385Z" fill="#B3DF72"/>
<path d="M711.877 157.847L713.136 158.398C713.136 158.398 714.364 160.313 715.622 160.302L717.745 162.903C717.745 162.903 718.91 163.715 719.596 163.611C720.023 163.548 720.439 163.382 720.73 163.132C721.323 162.643 721.438 161.863 720.293 161.103C720.314 161.062 720.304 160.989 720.345 160.937C718.941 160.333 718.66 158.679 717.547 157.743C717.401 157.92 717.245 158.003 717.297 157.889L717.505 157.701C716.423 157.42 716.642 156.349 715.331 156.411L715.664 156.224C714.53 155.225 713.302 153.935 712.033 152.645C711.399 152 710.743 151.355 710.098 150.751C709.672 150.356 709.245 149.971 708.829 149.597C708.257 149.066 707.695 148.577 707.175 148.13V148.202V148.244C707.341 148.608 707.799 149.316 708.174 149.877C708.527 150.408 708.839 150.876 708.839 150.876C708.111 150.835 707.737 150.647 707.393 150.273C707.05 149.898 706.728 149.316 706.322 148.691C705.989 148.848 705.614 149.076 705.271 149.441L705.177 149.024C705.677 148.535 706.114 147.922 706.332 147.505C706.405 147.547 706.436 147.557 706.457 147.557C706.426 147.516 706.395 147.474 706.332 147.401C705.781 147.786 705.053 148.39 704.22 149.128C703.825 149.482 703.419 149.857 703.014 150.242C702.774 150.46 702.535 150.689 702.296 150.918C701.359 151.844 700.527 152.863 700.122 153.665C700.35 153.831 700.298 153.019 701.027 153.56C700.725 153.883 700.506 154.289 700.205 154.57C699.789 154.154 700.101 154.133 700.059 154.018C699.102 154.081 688.324 164.006 692.538 163.278L692.683 163.559C693.411 163.007 694.015 162.56 695.086 162.3C695.149 162.175 695.201 162.206 694.982 161.988C694.982 161.925 694.951 161.832 694.857 161.748C694.337 161.249 694.743 161.239 694.816 161.135C696.314 162.862 697.032 159.22 697.385 158.991C698.207 159.699 697.978 158.45 698.478 158.596C698.499 158.638 698.592 158.887 698.603 158.929C699.248 159.262 700.444 155.319 700.663 157.004C701.921 156.619 703.097 155.787 704.231 154.747C704.803 154.226 705.365 153.654 705.916 153.051C706.062 152.863 706.155 152.697 706.322 152.468C706.457 152.551 706.613 152.666 706.78 152.801C706.78 152.801 707.123 153.134 707.341 153.352C707.581 153.592 707.81 153.841 708.028 154.081C708.912 155.059 709.63 156.068 710.067 157.139L710.129 157.025C710.129 157.077 710.254 157.119 710.161 157.243C710.795 157.254 711.877 157.878 711.877 157.878V157.847ZM705.666 151.168C705.666 151.168 705.677 151.23 705.687 151.251C705.646 151.126 705.323 151.553 705.302 151.542L705.125 151.209C705.178 150.668 705.76 150.699 705.947 151.074C706.062 151.24 706.103 151.459 706.103 151.563C706.093 151.677 706.041 151.657 705.802 151.521C705.802 151.636 705.708 151.313 705.666 151.178V151.168ZM702.067 154.747C701.973 154.799 701.869 154.851 701.765 154.923C701.921 153.144 704.231 152.822 704.917 151.386C705.708 152.884 704.231 153.155 703.711 153.55C703.513 154.278 702.65 154.507 702.077 154.747H702.067ZM695.648 160.843L695.783 160.978L695.752 161.01C695.752 161.01 695.679 160.926 695.669 160.906C695.648 160.874 695.638 160.843 695.659 160.843H695.648ZM711.96 156.734C711.68 156.869 711.523 156.484 712.116 156.255C712.096 156.37 712.418 156.307 711.96 156.734ZM700.673 155.537C701.089 155.953 700.829 156.401 700.246 155.818C700.361 155.683 700.517 155.61 700.673 155.537ZM715.071 158.939C715.612 158.586 715.081 159.064 714.842 159.366C714.884 159.283 714.821 159.168 715.04 158.981L715.071 158.939ZM717.006 160.333C717.245 160.136 717.485 160.094 717.537 160.125C717.485 160.406 716.86 160.583 717.006 160.333ZM719.794 163.028C720.044 162.789 720.2 162.768 719.971 163.028C719.784 163.205 719.555 163.267 719.836 162.976C719.825 162.986 719.804 163.018 719.804 163.028H719.794ZM698.124 156.286C697.479 155.454 698.405 155.725 698.384 155.35C699.081 156.12 698.228 155.891 698.218 156.161C698.166 156.203 698.135 156.245 698.124 156.286ZM710.618 152.676C711.263 152.021 711.118 152.905 711.378 152.884L711.118 153.134C710.868 153.019 710.598 153.082 710.618 152.687V152.676ZM701.224 152.739C701.037 152.416 701.391 152.541 701.464 152.468C701.828 152.832 701.588 153.196 701.224 152.739ZM704.834 149.305C705.073 149.877 704.751 149.805 704.709 149.93C704.699 149.773 704.637 149.336 704.709 149.284C704.751 149.253 704.793 149.305 704.845 149.316L704.834 149.305ZM710.233 152.801C710.088 152.676 709.942 152.51 709.807 152.354L710.067 152.104C710.213 152.26 710.348 152.406 710.494 152.551L710.233 152.801ZM709.214 150.98L709.474 150.72C709.921 150.679 709.297 151.365 709.224 150.98H709.214ZM712.377 154.33C712.377 154.33 712.356 154.247 712.335 154.226C712.012 153.966 713.354 153.436 712.377 154.33ZM714.166 155.61C714.228 155.61 714.343 155.568 714.374 155.61C714.551 155.849 713.698 156.234 714.166 155.61Z" fill="#B3DF72"/>
<path d="M145.42 335.931C145.046 336.17 145.046 338.49 145.42 338.74C145.951 339.083 146.502 339.271 147.22 339.281C148.031 339.177 148.229 338.688 148.78 338.74C149.706 338.74 151.267 339.385 151.652 339.541C151.704 339.562 151.766 339.572 151.818 339.562C152.213 339.479 153.972 339.125 155.47 339.291C156.531 339.291 157.197 339.281 157.54 339.281C158.351 339.26 158.955 339.031 159.558 338.584C159.881 338.345 159.881 336.326 159.558 336.077C158.965 335.64 158.351 335.4 157.54 335.379C157.228 335.379 156.562 334.818 155.636 334.724C155.48 334.703 155.334 334.745 155.178 334.838C153.888 335.598 152.203 335.379 152.203 335.379C152.203 335.379 149.696 335.379 148.635 335.369C147.834 335.369 147.449 335.369 147.22 335.379C146.502 335.4 145.951 335.577 145.42 335.92V335.931Z" fill="#94C748"/>
<path d="M174.736 335.931C174.362 336.17 174.362 338.49 174.736 338.74C175.267 339.083 175.818 339.271 176.536 339.281C177.347 339.177 177.545 338.688 178.096 338.74C179.022 338.74 180.583 339.385 180.957 339.541C181.009 339.562 181.072 339.572 181.124 339.562C181.519 339.479 183.277 339.125 184.775 339.291C185.836 339.291 186.502 339.281 186.846 339.281C187.657 339.26 188.26 339.031 188.864 338.584C189.186 338.345 189.186 336.326 188.864 336.077C188.271 335.64 187.657 335.4 186.846 335.379C186.533 335.379 185.868 334.818 184.942 334.724C184.786 334.703 184.64 334.745 184.484 334.838C183.194 335.598 181.509 335.379 181.509 335.379C181.509 335.379 179.002 335.379 177.94 335.369C177.139 335.369 176.754 335.369 176.526 335.379C175.808 335.4 175.256 335.577 174.726 335.92L174.736 335.931Z" fill="#94C748"/>
<path d="M204.042 335.931C203.667 336.17 203.667 338.49 204.042 338.74C204.572 339.083 205.124 339.271 205.841 339.281C206.653 339.177 206.851 338.688 207.402 338.74C208.328 338.74 209.888 339.385 210.273 339.541C210.325 339.562 210.388 339.572 210.44 339.562C210.835 339.479 212.593 339.125 214.091 339.291C215.152 339.291 215.818 339.281 216.161 339.281C216.973 339.26 217.576 339.031 218.18 338.584C218.502 338.345 218.502 336.326 218.18 336.077C217.587 335.64 216.973 335.4 216.161 335.379C215.849 335.379 215.183 334.818 214.258 334.724C214.102 334.703 213.956 334.745 213.8 334.838C212.51 335.598 210.825 335.379 210.825 335.379C210.825 335.379 208.317 335.379 207.256 335.369C206.455 335.369 206.07 335.369 205.841 335.379C205.124 335.4 204.572 335.577 204.042 335.92V335.931Z" fill="#94C748"/>
<path d="M219.751 351.975C219.512 351.601 217.192 351.601 216.942 351.975C216.599 352.506 216.412 353.057 216.401 353.775C216.505 354.587 216.994 354.784 216.942 355.336C216.942 356.262 216.297 357.822 216.141 358.197C216.12 358.249 216.11 358.311 216.12 358.363C216.204 358.759 216.557 360.517 216.391 362.015C216.391 363.076 216.401 363.742 216.401 364.085C216.422 364.897 216.651 365.5 217.098 366.104C217.337 366.426 219.356 366.426 219.605 366.104C220.042 365.511 220.282 364.897 220.302 364.085C220.302 363.773 220.864 363.107 220.958 362.182C220.979 362.025 220.937 361.88 220.843 361.724C220.084 360.434 220.302 358.748 220.302 358.748C220.302 358.748 220.302 356.241 220.313 355.18C220.313 354.379 220.313 353.994 220.302 353.765C220.282 353.047 220.105 352.495 219.761 351.965L219.751 351.975Z" fill="#94C748"/>
<path d="M219.751 381.282C219.512 380.907 217.192 380.907 216.942 381.282C216.599 381.812 216.412 382.364 216.401 383.082C216.505 383.893 216.994 384.091 216.942 384.642C216.942 385.568 216.297 387.129 216.141 387.503C216.12 387.555 216.11 387.618 216.12 387.67C216.204 388.065 216.557 389.824 216.391 391.322C216.391 392.383 216.401 393.049 216.401 393.392C216.422 394.204 216.651 394.807 217.098 395.41C217.337 395.733 219.356 395.733 219.605 395.41C220.042 394.817 220.282 394.204 220.302 393.392C220.302 393.08 220.864 392.414 220.958 391.488C220.979 391.332 220.937 391.186 220.843 391.03C220.084 389.73 220.302 388.055 220.302 388.055C220.302 388.055 220.302 385.548 220.313 384.486C220.313 383.685 220.313 383.3 220.302 383.071C220.282 382.353 220.105 381.802 219.761 381.272L219.751 381.282Z" fill="#94C748"/>
<path d="M219.751 410.6C219.512 410.226 217.192 410.226 216.942 410.6C216.599 411.131 216.412 411.682 216.401 412.4C216.505 413.212 216.994 413.409 216.942 413.961C216.942 414.887 216.297 416.447 216.141 416.822C216.12 416.874 216.11 416.936 216.12 416.988C216.204 417.384 216.557 419.142 216.391 420.64C216.391 421.701 216.401 422.367 216.401 422.71C216.422 423.522 216.651 424.125 217.098 424.729C217.337 425.051 219.356 425.051 219.605 424.729C220.042 424.136 220.282 423.522 220.302 422.71C220.302 422.398 220.864 421.732 220.958 420.807C220.979 420.65 220.937 420.505 220.843 420.349C220.084 419.059 220.302 417.373 220.302 417.373C220.302 417.373 220.302 414.866 220.313 413.805C220.313 413.004 220.313 412.619 220.302 412.39C220.282 411.672 220.105 411.12 219.761 410.59L219.751 410.6Z" fill="#94C748"/>
<path d="M219.751 439.887C219.512 439.534 217.192 439.534 216.942 439.887C216.599 440.387 216.412 440.907 216.401 441.573C216.505 442.332 216.994 442.52 216.942 443.029C216.942 443.893 216.297 445.36 216.141 445.714C216.12 445.766 216.11 445.818 216.12 445.87C216.204 446.244 216.557 447.878 216.391 449.293C216.391 450.291 216.401 450.905 216.401 451.228C216.422 451.987 216.651 452.559 217.098 453.111C217.337 453.412 219.356 453.412 219.605 453.111C220.042 452.549 220.282 451.987 220.302 451.228C220.302 450.936 220.864 450.312 220.958 449.449C220.979 449.303 220.937 449.168 220.843 449.022C220.084 447.805 220.302 446.234 220.302 446.234C220.302 446.234 220.302 443.882 220.313 442.894C220.313 442.145 220.313 441.791 220.302 441.573C220.282 440.907 220.105 440.387 219.761 439.887H219.751Z" fill="#94C748"/>
</g>
</g>
<defs>
<clipPath id="clip0_287_84409">
<rect width="975.455" height="560.887" fill="white"/>
</clipPath>
</defs>
</svg>
