<svg width="960" height="540" viewBox="0 0 960 540" fill="none" xmlns="http://www.w3.org/2000/svg">
<g clip-path="url(#clip0_287_69483)">
<path d="M646.641 91.3001C687.671 104.27 728.741 113.21 766.031 119.09C781.521 121.54 796.761 123.52 811.741 125.05V125.04V0.370117H646.641V91.3001Z" fill="#E9F2FE"/>
<path d="M113.36 105.37H113.43C126.97 105.37 139.96 104.34 152.35 102.32C184.94 97.0301 213.22 84.9101 235.73 66.5301C256.38 49.6601 272.17 27.5101 281.97 0.370117H0V73.9701C20.54 87.9601 45.08 97.4601 72.75 102.08C85.65 104.24 99.21 105.36 113.36 105.37Z" fill="#E9F2FE"/>
<path d="M142.55 192.65C197.88 192.65 243.46 182.23 280.67 162.59L281.61 161.98L281.71 161.93C323.31 139.95 353.98 106.81 374.81 64.3301L375.62 62.6701L589.27 96.3901L588.28 99.2201C556.88 189.16 503.57 258.97 431.75 306.19C419.85 314.02 407.43 321.21 394.53 327.79L765.04 496.85V448.82H960V129.67C936.33 132.53 911.73 133.98 886.25 133.98C863.76 133.98 840.58 132.84 816.75 130.57V385.79H641.65V95.0201V94.9601C598.01 80.9201 554.49 62.2901 515.59 37.8301L514.19 36.9501L519.96 0.370117H287.31C277.28 29.0801 260.69 52.6201 238.9 70.4001C215.63 89.4001 186.48 101.85 153.16 107.25C140.49 109.31 127.23 110.36 113.44 110.36H113.37C98.9598 110.36 85.1198 109.21 71.9398 107C44.8898 102.48 20.6198 93.3901 0.00976562 79.9701V174.01C19.2698 178.72 38.2298 182.49 56.3798 185.35C87.4198 190.25 116.1 192.63 142.55 192.63V192.65Z" fill="#E9F2FE"/>
<path d="M646.639 96.5498V96.5998V380.79H811.739V130.08C796.499 128.53 780.999 126.52 765.239 124.03C728.199 118.18 687.439 109.35 646.629 96.5498H646.639Z" fill="#E9F2FE"/>
<path d="M641.641 89.7101V0.370117H525.021L519.641 34.4601C557.271 57.9301 599.341 76.0001 641.641 89.7101Z" fill="#E9F2FE"/>
<path d="M184.711 513.77L237.561 540H370.491V513.77H184.711Z" fill="#E9F2FE"/>
<path d="M382.871 327.97L136.961 215.76L130.031 372.2C141.691 372.78 153.191 373.07 164.501 373.07C247.401 373.07 320.711 357.64 382.871 327.96V327.97Z" fill="#E9F2FE"/>
<path d="M125.04 371.94L132.29 208.14L388.7 325.14C402.72 318.17 416.17 310.46 429 302.02C499.11 255.9 551.32 188.07 582.55 100.4L378.47 68.1904C357.28 110.66 326.11 144.11 284.16 166.29L283.2 166.91L283.1 166.96C245.01 187.08 198.54 197.64 142.55 197.64C115.79 197.64 86.8598 195.23 55.5998 190.3C37.6798 187.47 18.9998 183.77 0.00976562 179.17V355.04C15.1798 358.24 30.0198 360.94 44.2898 363.2C72.0398 367.58 98.9698 370.48 125.04 371.95V371.94Z" fill="#E9F2FE"/>
<path d="M816.75 125.54C840.59 127.83 863.78 128.98 886.25 128.98C911.76 128.98 936.36 127.52 960 124.63V0.370117H816.75V125.54Z" fill="#E9F2FE"/>
<path d="M388.8 330.68C325.07 361.91 249.69 378.08 164.5 378.08C153.11 378.08 141.54 377.78 129.81 377.2L125.07 484.17L172.96 507.94L174.64 508.77H375.49V540H765.04V502.35L388.79 330.67L388.8 330.68Z" fill="#E9F2FE"/>
<path d="M0 513.77V540H226.32L173.46 513.77H0Z" fill="#E9F2FE"/>
<path d="M163.39 508.77L119.94 487.2L124.82 376.94C98.55 375.46 71.43 372.54 43.51 368.14C29.48 365.93 14.91 363.28 0 360.15V508.77H163.39Z" fill="#E9F2FE"/>
<path d="M770.039 499.14L859.589 540H959.999V453.83H770.039V499.14Z" fill="#E9F2FE"/>
<path d="M770.039 540H847.549L770.039 504.63V540Z" fill="#E9F2FE"/>
<path d="M175.051 508.77V508.98L184.711 513.77H370.491V540H375.491V508.77H175.051Z" fill="#CFE1FD"/>
<path d="M765.039 502.35V540H770.039V504.63L765.039 502.35Z" fill="#CFE1FD"/>
<path d="M646.641 0H641.641V0.37H646.641V0Z" fill="#669DF1"/>
<path d="M646.091 91.1301H646.641V0.370117H641.641V89.7101C643.121 90.1901 644.611 90.6501 646.091 91.1201V91.1301Z" fill="#669DF1"/>
<path d="M816.75 0H811.75V0.37H816.75V0Z" fill="#669DF1"/>
<path d="M816.75 125.54V0.370117H811.75V125.04C813.42 125.21 815.09 125.38 816.75 125.54Z" fill="#669DF1"/>
<path d="M175.051 508.77H174.641L175.051 508.98V508.77Z" fill="#669DF1"/>
<path d="M170.74 512.42L163.39 508.77H0V513.77H173.46L170.74 512.42Z" fill="#669DF1"/>
<path d="M765.039 496.86L770.039 499.14V453.83H959.999V448.83H765.039V496.86Z" fill="#669DF1"/>
<path d="M136.959 215.77L382.869 327.98C384.819 327.05 386.769 326.11 388.699 325.15L132.289 208.15L125.039 371.95C126.709 372.04 128.369 372.13 130.029 372.22L136.959 215.78V215.77Z" fill="#669DF1"/>
<path d="M175.051 513.77H173.461L226.321 540H237.561L184.711 513.77H175.051Z" fill="#8FB8F6"/>
<path d="M174.641 508.77L172.961 507.94L172.551 508.77H174.641Z" fill="#8FB8F6"/>
<path d="M184.711 513.77L175.051 508.98V513.77H184.711Z" fill="#8FB8F6"/>
<path d="M170.74 512.42L173.46 513.77H175.05V508.98L174.64 508.77H172.55L170.74 512.42Z" fill="#8FB8F6"/>
<path d="M172.961 507.94L125.071 484.17L129.811 377.2C128.151 377.12 126.481 377.03 124.821 376.93L119.941 487.19L163.391 508.76H172.551L172.961 507.93V507.94Z" fill="#8FB8F6"/>
<path d="M172.551 508.77H163.391L170.741 512.42L172.551 508.77Z" fill="#8FB8F6"/>
<path d="M765.041 502.35V496.85L394.531 327.79C392.631 328.76 390.721 329.73 388.801 330.67L765.051 502.35H765.041Z" fill="#8FB8F6"/>
<path d="M770.039 500.51V504.63L847.549 540H859.589L770.039 499.14V500.51Z" fill="#8FB8F6"/>
<path d="M765.039 502.35L770.039 504.63V500.51H765.039V502.35Z" fill="#8FB8F6"/>
<path d="M770.039 500.51V499.14L765.039 496.86V500.51H770.039Z" fill="#8FB8F6"/>
<path d="M377.05 65.4404L376.66 67.9104L378.47 68.2004C378.75 67.6504 379.03 67.1004 379.3 66.5504L377.06 65.4504L377.05 65.4404Z" fill="#8FB8F6"/>
<path d="M124.82 376.94L124.95 374.02L125.04 371.94C98.9598 370.47 72.0298 367.57 44.2898 363.19C30.0098 360.94 15.1798 358.24 0.00976562 355.03V360.14C14.9098 363.27 29.4798 365.91 43.5198 368.13C71.4398 372.54 98.5598 375.46 124.83 376.93L124.82 376.94Z" fill="#8FB8F6"/>
<path d="M585.921 98.4001L583.561 97.5801C583.231 98.5301 582.881 99.4601 582.551 100.4L585.531 100.87L585.921 98.4001Z" fill="#8FB8F6"/>
<path d="M282.871 164.14L284.041 166.35C284.041 166.35 284.121 166.31 284.151 166.29L284.241 166.23L282.871 164.14Z" fill="#8FB8F6"/>
<path d="M142.55 197.65C198.54 197.65 245.01 187.09 283.1 166.97L283.2 166.92L284.16 166.3C284.16 166.3 284.08 166.34 284.05 166.36L282.88 164.15L284.25 166.24L284.16 166.3C326.11 144.12 357.29 110.67 378.47 68.1997L376.66 67.9097L377.05 65.4397L379.29 66.5397C379.02 67.0997 378.74 67.6397 378.46 68.1897L582.54 100.4C582.88 99.4597 583.22 98.5197 583.55 97.5797L585.91 98.3997L585.52 100.87L582.54 100.4C551.31 188.07 499.1 255.9 428.99 302.02C416.15 310.46 402.71 318.17 388.69 325.14L389.68 325.59L394.52 327.8C407.42 321.22 419.84 314.03 431.74 306.2C503.56 258.97 556.87 189.17 588.27 99.2297L589.26 96.3997L375.61 62.6797L374.8 64.3397C353.96 106.81 323.29 139.95 281.7 161.94L281.6 161.99L280.66 162.6C280.66 162.6 280.72 162.57 280.75 162.55L281.92 164.76L280.55 162.67L280.66 162.6C243.45 182.23 197.87 192.65 142.54 192.66C116.08 192.66 87.4 190.28 56.37 185.38C38.21 182.51 19.26 178.74 0 174.04V179.19C18.99 183.79 37.67 187.49 55.59 190.32C86.85 195.25 115.79 197.66 142.54 197.66L142.55 197.65Z" fill="#8FB8F6"/>
<path d="M382.869 327.97C320.709 357.65 247.399 373.07 164.499 373.08C153.189 373.08 141.689 372.79 130.029 372.21L129.939 374.24L129.809 377.2C141.539 377.78 153.109 378.08 164.499 378.08C249.679 378.08 325.059 361.91 388.799 330.68L387.619 330.14L382.879 327.98L382.869 327.97Z" fill="#8FB8F6"/>
<path d="M281.929 164.76L280.759 162.55C280.759 162.55 280.699 162.58 280.669 162.6L280.559 162.67L281.929 164.76Z" fill="#8FB8F6"/>
<path d="M387.611 330.14L389.691 325.59L388.701 325.14C386.771 326.1 384.821 327.04 382.871 327.97L387.611 330.13V330.14Z" fill="#8FB8F6"/>
<path d="M130.029 372.21C128.369 372.13 126.699 372.04 125.039 371.94L124.949 374.02L129.949 374.24L130.039 372.21H130.029Z" fill="#8FB8F6"/>
<path d="M129.939 374.24L124.939 374.02L124.809 376.94C126.479 377.03 128.139 377.12 129.799 377.21L129.929 374.25L129.939 374.24Z" fill="#8FB8F6"/>
<path d="M388.799 330.68C390.719 329.74 392.629 328.77 394.529 327.8L389.689 325.59L387.609 330.14L388.789 330.68H388.799Z" fill="#8FB8F6"/>
<path d="M811.75 380.79H646.65V96.5998C644.99 96.0798 643.32 95.5498 641.65 95.0098V385.79H816.75V130.57C815.08 130.41 813.42 130.25 811.75 130.08V380.79Z" fill="#CFE1FD"/>
<path d="M646.64 91.1299H646.09C646.27 91.1899 646.46 91.2499 646.64 91.3099V91.1299Z" fill="#CFE1FD"/>
<path d="M287.31 0.37C287.35 0.25 287.39 0.12 287.44 0H282.12C282.07 0.13 282.03 0.25 281.98 0.37H287.31Z" fill="#CFE1FD"/>
<path d="M113.36 110.37H113.43C127.22 110.37 140.49 109.32 153.15 107.26C186.47 101.85 215.63 89.4099 238.89 70.4099C260.68 52.6199 277.27 29.0899 287.3 0.379883H281.97C272.17 27.5199 256.38 49.6699 235.73 66.5399C213.22 84.9199 184.94 97.0399 152.35 102.33C139.96 104.34 126.96 105.38 113.43 105.38H113.36C99.21 105.38 85.65 104.25 72.75 102.09C45.08 97.4699 20.54 87.9699 0 73.9799V79.9999C20.61 93.4099 44.88 102.51 71.93 107.03C85.11 109.23 98.95 110.38 113.36 110.39V110.37Z" fill="#CFE1FD"/>
<path d="M525.021 0.37L525.081 0H520.021L519.961 0.37H525.021Z" fill="#8FB8F6"/>
<path d="M641.641 89.7601V89.7101C599.341 75.9901 557.271 57.9301 519.641 34.4601L519.381 36.1101L516.911 35.7201L518.241 33.6001C518.701 33.8901 519.171 34.1701 519.641 34.4601L525.021 0.370117H519.961L514.191 36.9501L515.591 37.8301C554.491 62.2901 598.011 80.9201 641.651 94.9601V89.7601H641.641Z" fill="#8FB8F6"/>
<path d="M816.75 125.55V130.57C840.58 132.85 863.76 133.98 886.25 133.98C911.73 133.98 936.33 132.53 960 129.67V124.63C936.35 127.52 911.75 128.98 886.25 128.98C863.78 128.98 840.6 127.84 816.75 125.55Z" fill="#8FB8F6"/>
<path d="M516.91 35.7196L519.38 36.1096L519.64 34.4596C519.18 34.1696 518.7 33.8896 518.24 33.5996L516.91 35.7196Z" fill="#8FB8F6"/>
<path d="M811.741 125.06C796.761 123.53 781.521 121.54 766.031 119.1C728.751 113.22 687.671 104.28 646.641 91.3096V91.3696V96.5596C687.451 109.36 728.211 118.19 765.251 124.04C781.011 126.53 796.511 128.54 811.751 130.09V125.07L811.741 125.06Z" fill="#8FB8F6"/>
<path d="M646.091 91.1297C644.611 90.6597 643.121 90.1997 641.641 89.7197V89.7697C643.071 90.2297 644.491 90.6897 645.921 91.1397H646.091V91.1297Z" fill="#8FB8F6"/>
<path d="M646.64 91.3601V91.3001C646.46 91.2401 646.27 91.1801 646.09 91.1201H645.92C646.16 91.2001 646.4 91.2801 646.64 91.3501V91.3601Z" fill="#8FB8F6"/>
<path d="M811.75 125.05H811.74V125.06H811.75V125.05Z" fill="#8FB8F6"/>
<path d="M811.75 125.06C813.42 125.23 815.09 125.39 816.75 125.55C815.09 125.39 813.42 125.22 811.75 125.05V125.06Z" fill="#8FB8F6"/>
<path d="M811.75 125.06H811.74V130.08H811.75V126.34V125.06Z" fill="#8FB8F6"/>
<path d="M816.75 126.34V125.54C815.09 125.38 813.42 125.22 811.75 125.05V126.34H816.75Z" fill="#8FB8F6"/>
<path d="M811.75 126.34V130.08C813.42 130.25 815.08 130.4 816.75 130.56V126.34H811.75Z" fill="#8FB8F6"/>
<path d="M646.641 96.55C644.971 96.03 643.311 95.5 641.641 94.96V95.02C643.311 95.56 644.981 96.08 646.641 96.61V96.56V96.55Z" fill="#8FB8F6"/>
<path d="M641.641 89.7598V91.1298H645.921C644.501 90.6798 643.071 90.2198 641.641 89.7598Z" fill="#8FB8F6"/>
<path d="M645.921 91.1299H641.641V94.9599C643.311 95.4999 644.971 96.0299 646.641 96.5499V91.3599C646.401 91.2799 646.161 91.2099 645.921 91.1299Z" fill="#8FB8F6"/>
</g>
<defs>
<clipPath id="clip0_287_69483">
<rect width="960" height="540" fill="white"/>
</clipPath>
</defs>
</svg>
