<svg width="960" height="540" viewBox="0 0 960 540" fill="none" xmlns="http://www.w3.org/2000/svg">
<g clip-path="url(#clip0_287_69595)">
<path d="M646.651 96.2395V380.429H811.751V129.719C796.511 128.169 781.011 126.159 765.251 123.669C728.211 117.819 687.451 108.989 646.641 96.1895V96.2395H646.651Z" fill="#F0F1F2"/>
<path d="M130.039 371.84C141.699 372.42 153.199 372.71 164.509 372.71C247.409 372.71 320.719 357.28 382.879 327.6L136.969 215.39L130.039 371.83V371.84Z" fill="#F0F1F2"/>
<path d="M770.049 540.01H848.379L770.049 504.27V540.01Z" fill="#F0F1F2"/>
<path d="M770.049 498.77L860.419 540.01H960.009V453.47H770.049V498.77Z" fill="#F0F1F2"/>
<path d="M142.56 192.29C197.89 192.29 243.47 181.87 280.68 162.23L281.61 161.62L281.71 161.57C323.31 139.59 353.98 106.45 374.81 63.97L375.62 62.31L589.27 96.03L588.28 98.86C556.88 188.8 503.57 258.61 431.75 305.83C419.85 313.66 407.43 320.85 394.53 327.43L765.04 496.49V448.46H960V129.3C936.33 132.16 911.73 133.61 886.25 133.61C863.76 133.61 840.58 132.47 816.75 130.2V385.42H641.65V94.65V94.59C598.01 80.55 554.49 61.92 515.59 37.46L514.19 36.58L519.96 0H287.31C277.28 28.71 260.69 52.25 238.9 70.03C215.63 89.03 186.48 101.48 153.16 106.88C140.49 108.94 127.23 109.99 113.44 109.99H113.36C98.95 109.99 85.11 108.84 71.93 106.63C44.88 102.11 20.61 93.02 0 79.6V173.64C19.26 178.35 38.22 182.12 56.37 184.98C87.41 189.88 116.09 192.26 142.54 192.26L142.56 192.29Z" fill="#F0F1F2"/>
<path d="M646.65 90.9398C687.68 103.91 728.75 112.85 766.04 118.73C781.53 121.18 796.77 123.16 811.75 124.69V124.68V0.00976562H646.65V90.9398Z" fill="#F0F1F2"/>
<path d="M641.65 89.3498V0.00976562H525.03L519.65 34.0998C557.28 57.5698 599.35 75.6398 641.65 89.3498Z" fill="#F0F1F2"/>
<path d="M113.37 105.01H113.45C126.98 105.01 139.98 103.98 152.37 101.97C184.96 96.6795 213.24 84.5595 235.75 66.1795C256.4 49.3095 272.19 27.1595 281.99 0.0195312H0.00976562V73.6195C20.5498 87.6095 45.0898 97.1095 72.7598 101.73C85.6598 103.89 99.2198 105.01 113.37 105.02V105.01Z" fill="#F0F1F2"/>
<path d="M816.76 125.18C840.6 127.47 863.79 128.62 886.26 128.62C911.77 128.62 936.37 127.16 960.01 124.27V0.00976562H816.76V125.18Z" fill="#F0F1F2"/>
<path d="M184.721 513.399L238.331 540.009H370.501V513.399H184.721Z" fill="#F0F1F2"/>
<path d="M163.4 508.399L119.95 486.829L124.83 376.569C98.5598 375.089 71.4398 372.169 43.5198 367.769C29.4898 365.559 14.9198 362.909 0.00976562 359.779V508.399H163.4Z" fill="#F0F1F2"/>
<path d="M125.05 371.58L132.3 207.78L388.71 324.78C402.73 317.81 416.18 310.1 429.01 301.66C499.12 255.54 551.33 187.71 582.56 100.04L378.48 67.8301C357.29 110.3 326.12 143.75 284.17 165.93L283.21 166.55L283.11 166.6C245.02 186.72 198.55 197.28 142.56 197.28C115.8 197.28 86.8695 194.87 55.6095 189.94C37.6895 187.11 19.0095 183.41 0.0195312 178.81V354.68C15.1895 357.88 30.0295 360.58 44.2995 362.84C72.0495 367.22 98.9795 370.12 125.05 371.59V371.58Z" fill="#F0F1F2"/>
<path d="M388.81 330.31C325.08 361.54 249.7 377.71 164.51 377.71C153.12 377.71 141.55 377.41 129.82 376.83L125.08 483.8L172.97 507.57L174.65 508.4H375.5V540.01H765.05V501.99L388.8 330.31H388.81Z" fill="#F0F1F2"/>
<path d="M0.00976562 513.399V540.009H227.08L173.47 513.399H0.00976562Z" fill="#F0F1F2"/>
<path d="M175.061 508.399V508.609L184.721 513.399H370.501V540.009H375.501V508.399H175.061Z" fill="white"/>
<path d="M765.049 501.99V540.01H770.049V504.27L765.049 501.99Z" fill="white"/>
<path d="M646.1 90.7598H646.65V0.00976562H641.65V89.3498C643.13 89.8298 644.62 90.2898 646.1 90.7598Z" fill="#DDDEE1"/>
<path d="M816.76 125.18V0.00976562H811.76V124.68C813.43 124.85 815.1 125.02 816.76 125.18Z" fill="#DDDEE1"/>
<path d="M170.75 512.049L163.4 508.399H0.00976562V513.399H173.47L170.75 512.049Z" fill="#DDDEE1"/>
<path d="M175.06 508.399H174.65L175.06 508.609V508.399Z" fill="#DDDEE1"/>
<path d="M765.049 496.49L770.049 498.77V453.47H960.009V448.47H765.049V496.49Z" fill="#DDDEE1"/>
<path d="M125.049 371.58C126.719 371.67 128.379 371.76 130.039 371.85L136.969 215.41L382.879 327.62C384.829 326.69 386.779 325.75 388.709 324.79L132.299 207.79L125.049 371.59V371.58Z" fill="#DDDEE1"/>
<path d="M175.06 508.609L174.65 508.399L172.97 507.569L170.75 512.049L173.47 513.399L227.08 540.009H238.33L184.72 513.399L175.06 508.609Z" fill="#F8F8F8"/>
<path d="M172.969 507.57L125.079 483.8L129.819 376.83C128.159 376.75 126.489 376.66 124.829 376.56L119.949 486.82L163.399 508.39L170.749 512.04L172.969 507.56V507.57Z" fill="#F8F8F8"/>
<path d="M765.051 496.49L394.541 327.43C392.641 328.4 390.731 329.37 388.811 330.31L765.061 501.99L770.061 504.27L848.391 540.01H860.431L770.061 498.77L765.061 496.49H765.051Z" fill="#F8F8F8"/>
<path d="M124.829 376.569C126.499 376.659 128.159 376.749 129.819 376.839C141.549 377.419 153.119 377.719 164.509 377.719C249.689 377.719 325.069 361.549 388.809 330.319C390.729 329.379 392.639 328.409 394.539 327.439C407.439 320.859 419.859 313.669 431.759 305.839C503.579 258.609 556.889 188.809 588.289 98.8693L589.279 96.0393L375.629 62.3193L374.819 63.9793C353.979 106.449 323.309 139.589 281.719 161.579L281.619 161.629L280.689 162.239C243.479 181.869 197.899 192.289 142.569 192.299C116.109 192.299 87.4293 189.919 56.3993 185.019C38.2393 182.149 19.2893 178.379 0.0292969 173.679V178.829C19.0193 183.429 37.6993 187.129 55.6193 189.959C86.8793 194.889 115.819 197.299 142.569 197.299C198.559 197.299 245.029 186.739 283.119 166.619L283.219 166.569L284.179 165.949C326.129 143.769 357.309 110.319 378.489 67.8493L582.569 100.059C551.339 187.729 499.129 255.559 429.019 301.679C416.179 310.119 402.739 317.829 388.719 324.799C386.789 325.759 384.839 326.699 382.889 327.629C320.729 357.309 247.419 372.729 164.519 372.739C153.209 372.739 141.709 372.449 130.049 371.869C128.389 371.789 126.719 371.699 125.059 371.599C98.9793 370.129 72.0493 367.229 44.3093 362.849C30.0293 360.599 15.1993 357.899 0.0292969 354.689V359.799C14.9293 362.929 29.4993 365.569 43.5393 367.789C71.4593 372.199 98.5793 375.119 124.849 376.589L124.829 376.569Z" fill="#F8F8F8"/>
<path d="M811.76 380.429H646.66V96.2394C645 95.7194 643.33 95.1894 641.66 94.6494V385.429H816.76V130.209C815.09 130.049 813.43 129.889 811.76 129.719V380.429Z" fill="white"/>
<path d="M646.1 90.7598C646.28 90.8198 646.47 90.8798 646.65 90.9398V90.7598H646.1Z" fill="white"/>
<path d="M113.37 110.01H113.45C127.24 110.01 140.51 108.96 153.17 106.9C186.49 101.49 215.65 89.0495 238.91 70.0495C260.7 52.2595 277.29 28.7295 287.32 0.0195312H281.99C272.19 27.1595 256.4 49.3095 235.75 66.1795C213.24 84.5595 184.96 96.6795 152.37 101.97C139.98 103.98 126.99 105.01 113.45 105.01H113.37C99.2198 105.01 85.6598 103.88 72.7598 101.72C45.0898 97.0995 20.5498 87.5995 0.00976562 73.6095V79.6295C20.6198 93.0395 44.8898 102.14 71.9398 106.66C85.1198 108.86 98.9598 110.01 113.37 110.02V110.01Z" fill="white"/>
<path d="M515.589 37.4693C554.489 61.9293 598.009 80.5593 641.649 94.5993V89.3993C643.319 89.9393 644.989 90.4793 646.649 90.9993V96.1893C687.459 108.989 728.219 117.819 765.259 123.669C781.019 126.159 796.519 128.169 811.759 129.719C813.429 129.889 815.089 130.049 816.759 130.209C840.589 132.479 863.769 133.619 886.259 133.619C911.739 133.619 936.339 132.169 960.009 129.309V124.269C936.359 127.159 911.759 128.619 886.259 128.619C863.789 128.619 840.609 127.479 816.759 125.189V130.209C815.089 130.049 813.429 129.899 811.759 129.729V124.709C796.779 123.179 781.539 121.189 766.049 118.749C728.769 112.869 687.689 103.929 646.659 90.9593C646.479 90.8993 646.289 90.8393 646.109 90.7793C644.629 90.3093 643.139 89.8493 641.659 89.3693C599.359 75.6493 557.289 57.5893 519.659 34.1193L525.039 0.0292969H519.979L514.209 36.6093L515.609 37.4893L515.589 37.4693Z" fill="#F8F8F8"/>
<path d="M816.76 125.18C815.1 125.02 813.43 124.85 811.76 124.68V129.72C813.43 129.89 815.1 130.05 816.76 130.2V125.18Z" fill="#F8F8F8"/>
<path d="M646.65 96.2394V90.9994C644.98 90.4694 643.32 89.9394 641.65 89.3994V94.6594C643.32 95.1994 644.99 95.7194 646.65 96.2494V96.2394Z" fill="#F8F8F8"/>
</g>
<defs>
<clipPath id="clip0_287_69595">
<rect width="960" height="540" fill="white"/>
</clipPath>
</defs>
</svg>
