<svg width="961" height="541" viewBox="0 0 961 541" fill="none" xmlns="http://www.w3.org/2000/svg">
<g clip-path="url(#clip0_287_72454)">
<mask id="mask0_287_72454" style="mask-type:luminance" maskUnits="userSpaceOnUse" x="0" y="-1" width="960" height="541">
<path d="M960 -0.241211H0V539.759H960V-0.241211Z" fill="white"/>
</mask>
<g mask="url(#mask0_287_72454)">
<path d="M960 -0.451172H0V539.549H960V-0.451172Z" fill="#1868DB"/>
<path d="M169.52 106.108H141.12H103.73H41.4202H-21.5898V294.118H332.22V106.108H270.6H205.87H169.52Z" fill="#357DE8"/>
<path d="M252.81 404.739H212.04H158.36H68.8902H-21.5898V631.089H486.44V404.739H397.96H305.01H252.81Z" fill="#357DE8"/>
<path d="M224.96 404.739H212.04H158.36H68.8902H-21.5898V631.089H210.27L224.96 404.739Z" fill="#4D8CED"/>
<path d="M600.209 151.969V134.599V111.729V73.6186V35.0786H485.219V645.939H600.209V213.799V174.199V151.969Z" fill="#4D8CED"/>
<path d="M254.189 40.2186C239.249 -11.2914 199.429 -43.1514 145.509 -51.9414C135.399 -53.5914 124.809 -54.4314 113.779 -54.4414C102.279 -54.4414 91.2493 -53.5314 80.7393 -51.7814C21.4793 -41.9114 -20.6907 -4.5414 -31.6507 55.9186C-33.5007 66.1386 -34.4707 77.0086 -34.4707 88.5186C-34.4707 94.5686 -34.2007 100.439 -33.6707 106.129H225.029L254.179 40.2186H254.189Z" fill="#4D8CED"/>
<path d="M989.69 241.319H855.87L737.66 -51.3813H860.22L989.69 241.319Z" fill="#4D8CED"/>
<path d="M1020.08 699.279H562.07L532.35 241.259H1049.81L1020.08 699.279Z" fill="#1558BC"/>
<path d="M600.21 241.259H532.35L558.61 645.939H600.21V241.259Z" fill="#1868DB"/>
<path d="M1087.18 539.619C1090.11 523.219 1091.64 505.789 1091.65 487.349C1091.65 468.649 1090.11 450.979 1087.13 434.379C1069.4 335.569 1000.79 274.649 904.54 258.969C888.12 256.289 870.9 254.919 852.99 254.909C834.3 254.909 816.38 256.379 799.3 259.229C702.98 275.279 634.46 335.999 616.65 434.249C613.64 450.849 612.07 468.519 612.07 487.219C612.07 505.659 613.59 523.089 616.54 539.489C634.16 637.619 702.72 698.499 799.18 714.609C816.25 717.459 834.17 718.949 852.86 718.959C870.78 718.959 887.99 717.599 904.42 714.929C1000.83 699.279 1069.55 638.289 1087.19 539.619H1087.18Z" fill="#357DE8"/>
<path d="M803.719 163.399C804.979 156.379 805.629 148.919 805.629 141.019C805.629 133.009 804.969 125.449 803.689 118.339C796.099 76.0288 766.709 49.9488 725.479 43.2288C718.449 42.0788 711.069 41.4888 703.399 41.4888C695.729 41.4888 687.719 42.1188 680.409 43.3388C639.159 50.2088 609.809 76.2088 602.179 118.279C600.889 125.389 600.219 132.949 600.219 140.959C600.219 148.859 600.869 156.319 602.129 163.339C609.679 205.359 639.039 231.419 680.359 238.319C687.669 239.539 695.349 240.179 703.349 240.179C711.019 240.179 718.399 239.599 725.429 238.459C766.719 231.759 796.149 205.649 803.709 163.399H803.719Z" fill="#357DE8"/>
<path d="M279.539 -17.1113L92.9492 404.739H333.749L504.119 -17.1113H279.539Z" fill="#1558BC"/>
<path d="M332.219 294.118V106.108H270.599H225.039L141.879 294.118H332.219Z" fill="#1868DB"/>
<path d="M259.859 106.128C260.379 100.458 260.649 94.6185 260.649 88.5985C260.649 77.0885 259.699 66.2185 257.869 55.9985C256.889 50.5485 255.659 45.2885 254.189 40.2085L225.039 106.118H259.859V106.128Z" fill="#357DE8"/>
<mask id="mask1_287_72454" style="mask-type:luminance" maskUnits="userSpaceOnUse" x="-11" y="-17" width="266" height="125">
<path d="M-10.6602 4.76859V107.129H225.49L254.64 41.2186C250.34 26.3886 239.9 2.46859 223.88 -13.2914L6.06984 -16.4414C5.34984 -15.4314 -9.96016 3.73859 -10.6602 4.76859Z" fill="white"/>
</mask>
<g mask="url(#mask1_287_72454)">
<path d="M29.8197 -2.23111C28.4097 -6.01111 27.3597 -5.63111 28.5397 -1.80111C30.1897 3.64889 31.9397 9.35889 33.9197 16.7689C35.0597 20.9589 35.7297 23.5889 36.2997 25.8889C36.8597 28.1889 37.3297 30.1489 37.8297 33.0489C38.7297 37.9389 39.5397 44.5889 39.8097 50.5089C40.0897 56.4389 39.8597 61.6189 39.7397 63.6289L39.6397 65.4089C39.5597 67.5389 39.2497 73.2889 37.8997 80.3789C36.5497 87.4489 34.0397 95.8689 30.3297 102.979C27.7597 108.029 25.1097 111.779 22.7997 114.549C20.4897 117.319 18.5597 119.149 17.1797 120.319C13.9397 123.129 10.7597 125.149 7.64972 126.619C4.52972 128.089 1.48972 129.069 -1.61028 129.649C-3.31028 129.969 -4.16028 130.279 -4.14028 130.559C-4.12028 130.819 -3.21028 131.049 -1.42028 130.839C1.81972 130.459 5.04972 129.599 8.35972 128.159C11.6697 126.719 15.0397 124.649 18.4097 121.729C19.7397 120.619 21.7197 118.809 24.0597 116.179C26.3797 113.539 29.0097 110.039 31.4497 105.569L32.5897 103.359C32.9297 102.609 33.2697 101.859 33.6097 101.109C36.3897 94.5789 38.6497 86.7789 39.7897 80.5489C40.0897 78.9889 40.3497 77.5489 40.5297 76.2389C40.7397 74.9389 40.8897 73.7789 40.9997 72.8189C41.2497 70.8989 41.3397 69.7589 41.3397 69.7589C41.3397 69.7589 41.3797 69.3389 41.4497 68.5689C41.5297 67.8089 41.5897 66.6989 41.6697 65.3289C41.8297 62.5989 41.9297 58.8289 41.7897 54.7089C41.6697 50.5889 41.3197 46.1189 40.8197 41.9789C40.3197 37.8389 39.6897 34.0389 39.1597 31.2189C37.5097 22.7389 36.3697 18.7389 35.7397 16.2689C33.7297 8.80889 31.7997 3.10889 29.8297 -2.25111L29.8197 -2.23111Z" fill="#357DE8"/>
<path d="M169.87 113.509C176.57 118.579 177.2 117.659 170.71 112.459C166.15 108.719 161.67 104.639 157.02 100.009C152.37 95.3789 147.56 90.1689 142.49 84.0289C136.74 77.0689 133.44 72.4789 130.6 68.4789C127.76 64.4689 125.43 60.9789 122.28 55.7289C119.61 51.2989 116.55 46.0389 114.21 40.2389C113.04 37.3389 112.08 34.2889 111.49 31.1989C110.89 28.1089 110.69 24.9689 110.91 21.9689C111.31 15.9389 113.6 10.5389 116.64 7.12893C118.13 5.39893 119.74 4.10893 121.16 3.13893C122.62 2.20893 123.86 1.53893 124.79 1.14893C125.33 0.898926 125.88 0.658926 126.45 0.458926C127.01 0.238926 127.57 0.0289256 128.15 -0.141074C129.17 -0.491074 130.66 -0.861074 132.55 -1.21107C134.45 -1.51107 136.77 -1.71107 139.41 -1.58107C144.69 -1.34107 151.24 0.418925 157.84 3.87893C164.47 7.29893 171.22 12.2189 177.65 17.7589C178.47 18.4389 179.25 19.1589 180.04 19.8889C180.82 20.6189 181.62 21.3289 182.39 22.0689C183.91 23.5889 185.47 25.0689 186.91 26.6489C189.88 29.7489 192.62 33.0389 195.21 36.3289C198.87 40.9889 201.86 45.4389 204.37 49.5589C205.01 50.5789 205.61 51.5889 206.17 52.5789C206.73 53.5689 207.28 54.5289 207.81 55.4689C208.8 57.3789 209.79 59.1389 210.6 60.8589C213.94 67.6689 215.93 72.8889 217.17 76.5089C220.13 85.0389 221.75 92.7989 222.52 100.029C223.2 107.259 223.05 113.989 221.87 120.499C221.6 122.299 221.29 123.629 221.19 124.539C221.07 125.449 221.09 125.929 221.22 125.969C221.35 126.009 221.59 125.599 221.92 124.729C222.24 123.859 222.71 122.549 223.05 120.729C224.46 114.139 224.78 107.269 224.2 99.8789C223.54 92.4989 221.94 84.5689 218.94 75.8989C217.79 72.5289 215.91 67.3589 212.82 60.8289C211.31 57.5489 209.39 53.9789 207.2 50.1089C204.93 46.2789 202.3 42.1789 199.21 37.9389C198.17 36.5789 197.15 35.2089 196.08 33.8789C194.98 32.5689 193.93 31.2389 192.79 29.9789C187.95 24.4889 182.32 18.9889 176.38 14.1189C170.41 9.30893 164.26 4.98893 158.35 1.99893C152.48 -1.05107 146.9 -2.63107 142.87 -3.20107C140.86 -3.52107 139.22 -3.57107 138.11 -3.60107C137 -3.59107 136.39 -3.58107 136.39 -3.58107C136.39 -3.58107 135.49 -3.55107 133.87 -3.40107C132.26 -3.22107 129.92 -2.85107 127.16 -1.96107C124.41 -1.08107 121.23 0.428926 118.23 2.84893C115.24 5.26893 112.59 8.74893 111.03 12.8589C109.43 16.9589 108.82 21.5789 109.07 26.1289C109.31 30.6989 110.47 35.1489 112 39.2389C113.53 43.3289 115.44 47.0689 117.29 50.4189C119.15 53.7689 120.97 56.7389 122.52 59.2789C132.06 74.4789 137.72 81.0689 141.02 85.2089C146.14 91.3989 151.03 96.6189 155.78 101.239C160.54 105.839 165.14 109.859 169.84 113.499L169.87 113.509Z" fill="#357DE8"/>
<path d="M109.77 127.059C111.75 128.739 113.31 129.899 114.39 130.609C115.47 131.329 116.07 131.619 116.16 131.499C116.26 131.379 115.85 130.849 114.93 129.939C114 129.039 112.57 127.739 110.64 126.029C105.16 121.209 99.8396 115.939 94.5096 109.829C93.1496 108.329 91.8796 106.699 90.5196 105.079C89.2296 103.409 87.8596 101.739 86.5796 99.9287C83.9496 96.3787 81.3796 92.5087 78.8996 88.2687C76.0896 83.4687 74.0496 79.4287 72.4896 75.8787C70.8696 72.3487 69.7396 69.2987 68.7896 66.4387C68.3096 65.0087 67.8696 63.6187 67.4996 62.2187C67.0796 60.8287 66.7696 59.4187 66.4296 57.9687C65.7996 55.0587 65.2296 51.9287 64.9396 48.1787C64.7596 46.5987 64.7596 44.9387 64.6896 43.2287C64.7296 41.5187 64.6996 39.7487 64.8796 37.9487C65.1496 34.3487 65.7396 30.5787 66.8496 26.8887C67.9296 23.1887 69.4796 19.5587 71.4296 16.1687C71.9096 15.3187 72.4896 14.5287 73.0096 13.7087L73.8096 12.4887L74.6996 11.3487C75.2996 10.5987 75.8796 9.81874 76.4896 9.08874C77.1396 8.38874 77.7796 7.68874 78.4196 6.99874C79.0396 6.28874 79.7396 5.66874 80.4196 5.03874C81.1096 4.41874 81.7496 3.75874 82.4596 3.19874C83.8896 2.08874 85.2296 0.91874 86.6896 -0.01126C87.3996 -0.50126 88.0996 -0.97126 88.7896 -1.44126C89.5096 -1.86126 90.2096 -2.28126 90.8996 -2.69126C92.2596 -3.54126 93.6596 -4.19126 94.9496 -4.86126C100.2 -7.42126 104.63 -8.74126 107.09 -9.44126C108.55 -9.87126 110.04 -10.1613 111.52 -10.5513C114.18 -11.0913 119.13 -12.1313 125.8 -12.2913C126.63 -12.3113 127.49 -12.3213 128.38 -12.3413C129.26 -12.3213 130.17 -12.3013 131.1 -12.2713C132.96 -12.2613 134.91 -12.0613 136.94 -11.9213C140.99 -11.5213 145.35 -10.8713 149.9 -9.92126C168.13 -6.13126 188.93 2.99874 207.52 12.3187C220.64 18.9687 230.82 25.1787 238.62 30.4187C246.46 35.6287 251.86 39.9687 255.56 42.9287C264.24 50.0187 271.24 56.8887 277.28 63.6187C283.37 70.2987 288.22 77.0687 292.7 83.9487C297.41 91.6487 298.28 91.2187 293.72 83.3187C289.38 76.2687 284.62 69.3287 278.55 62.4987C272.54 55.6287 265.5 48.6387 256.75 41.4787C255.02 40.1287 252.89 38.3187 250.22 36.2887C247.51 34.3087 244.43 31.8787 240.73 29.4087C233.42 24.3287 224.05 18.4487 212.6 12.4487C210.73 11.4887 208.85 10.5387 206.98 9.57874C205.11 8.61874 203.2 7.76874 201.32 6.86874C193.16 3.07874 184.32 -0.84126 175.47 -4.17126C171.05 -5.83126 166.63 -7.37126 162.32 -8.67126C158 -9.96126 153.8 -11.0413 149.82 -11.8813C141.86 -13.5313 134.86 -14.1513 129.89 -14.2413C128.65 -14.3013 127.53 -14.2613 126.56 -14.2413C125.58 -14.2213 124.75 -14.2313 124.07 -14.1913C122.71 -14.1013 121.98 -14.0513 121.98 -14.0513C121.98 -14.0513 121.71 -14.0313 121.18 -14.0013C120.66 -13.9713 119.89 -13.9213 118.91 -13.7813C117.93 -13.6513 116.72 -13.5313 115.34 -13.3113C113.96 -13.0413 112.38 -12.8213 110.66 -12.4013C107.21 -11.6413 103.19 -10.4313 98.8696 -8.72126C94.5696 -6.97126 90.0196 -4.59126 85.6596 -1.52126C81.2996 1.54874 77.1396 5.34874 73.7096 9.78874C70.2796 14.2087 67.5996 19.2487 65.8896 24.3787C64.1596 29.5187 63.3496 34.7087 63.1296 39.4687C62.9096 44.2387 63.2596 48.5987 63.7596 52.2687C64.5196 57.8087 65.7396 62.5287 67.0196 66.5687C68.3196 70.6087 69.6296 74.0087 70.9396 76.8687C73.5096 82.6087 75.5996 86.3987 77.2796 89.2287C79.7896 93.5287 82.4096 97.4487 85.0996 101.029C86.4096 102.849 87.7996 104.539 89.1196 106.219C90.5096 107.839 91.8096 109.479 93.1996 110.989C98.6596 117.109 104.12 122.329 109.75 127.069L109.77 127.059Z" fill="#357DE8"/>
<path d="M269.649 76.4188C273.769 73.6888 273.089 72.7988 268.929 75.2788C267.449 76.1488 265.989 77.1088 264.359 77.8388C262.749 78.5988 261.139 79.4888 259.389 80.2388C257.609 80.9188 255.779 81.6788 253.829 82.4088C252.829 82.6988 251.809 82.9988 250.759 83.3088C250.239 83.4688 249.709 83.6188 249.169 83.7788C248.629 83.9388 248.089 84.1088 247.519 84.1988C246.239 84.4588 245.079 84.6988 244.019 84.9188C243.489 85.0288 242.979 85.1388 242.499 85.2388C242.009 85.2988 241.539 85.3588 241.079 85.4088C239.269 85.6088 237.749 85.8488 236.329 85.9588C234.899 85.9988 233.589 86.0388 232.179 86.0888C231.829 86.0888 231.469 86.1088 231.099 86.1188C230.729 86.0888 230.359 86.0688 229.979 86.0388C229.209 85.9788 228.389 85.9188 227.509 85.8488C226.759 85.7788 225.979 85.7588 225.179 85.6388C224.379 85.5088 223.549 85.3688 222.709 85.2288C221.859 85.0888 220.999 84.9488 220.119 84.7988C219.249 84.5788 218.369 84.3688 217.479 84.1388C216.589 83.9188 215.689 83.6888 214.789 83.4688L212.129 82.5988C211.249 82.3088 210.369 82.0088 209.489 81.7188C208.639 81.3688 207.789 81.0288 206.959 80.6888C206.129 80.3488 205.309 80.0088 204.509 79.6888C203.729 79.3088 202.969 78.9488 202.229 78.5888C200.759 77.8688 199.359 77.2288 198.159 76.5188C196.949 75.8388 195.859 75.2388 194.949 74.7288C194.049 74.1988 193.339 73.7288 192.819 73.4088L190.969 72.2788C190.409 71.9588 189.629 71.4588 188.669 70.8188C187.709 70.1688 186.539 69.4288 185.229 68.5188C183.949 67.5788 182.509 66.5288 180.949 65.3888C179.449 64.1688 177.769 62.9288 176.099 61.4888C172.719 58.6688 169.159 55.3488 165.639 51.8188C162.149 48.2488 158.749 44.4288 155.659 40.6088C151.289 35.2188 148.049 30.6088 145.859 26.8088C145.289 25.8688 144.839 24.9588 144.449 24.1288C144.289 23.7088 144.099 23.3488 143.979 22.9188C143.849 22.4988 143.719 22.0888 143.599 21.6988C143.129 20.1388 142.809 18.8088 142.579 17.7288C142.029 15.1688 141.699 12.7388 141.529 10.4288C141.379 8.10879 141.389 5.91879 141.519 3.80879C141.839 -0.391211 142.629 -4.21121 143.979 -7.81121C144.709 -9.78121 144.999 -10.8312 144.739 -10.9712C144.619 -11.0312 144.379 -10.8512 144.049 -10.4112C143.729 -9.97121 143.269 -9.27121 142.859 -8.26121C141.259 -4.63121 140.279 -0.681211 139.829 3.66879C139.639 5.84879 139.589 8.12879 139.709 10.5388C139.859 12.9488 140.179 15.4688 140.749 18.1188C140.959 19.1488 141.269 20.4488 141.689 22.0088C141.939 22.7888 142.099 23.5988 142.499 24.5388C142.669 25.0188 142.889 25.4588 143.109 25.9188C143.339 26.3788 143.559 26.8588 143.829 27.3188C145.889 31.0688 148.789 35.4688 152.589 40.2988C153.839 41.8588 155.099 43.4188 156.439 44.8788C162.079 51.3188 169.169 58.1488 175.059 63.0888C178.009 65.5488 180.619 67.5888 182.529 68.9588C184.399 70.3788 185.569 71.1388 185.569 71.1388C185.569 71.1388 185.999 71.4288 186.769 71.9488C187.559 72.4488 188.639 73.2688 190.079 74.0988C190.789 74.5288 191.569 74.9988 192.409 75.5088C192.829 75.7588 193.259 76.0288 193.699 76.2888C194.159 76.5388 194.629 76.7888 195.109 77.0488C196.079 77.5688 197.089 78.1088 198.129 78.6788C199.179 79.2388 200.309 79.7188 201.449 80.2688C203.699 81.3988 206.179 82.2788 208.619 83.2688C209.859 83.7088 211.129 84.0888 212.369 84.4888C212.989 84.6888 213.609 84.8888 214.229 85.0788C214.859 85.2288 215.479 85.3888 216.099 85.5388C217.339 85.8388 218.559 86.1288 219.739 86.4188C220.939 86.6088 222.099 86.7988 223.219 86.9788C225.439 87.4088 227.509 87.4588 229.259 87.6188C229.919 87.6688 230.559 87.7288 231.179 87.7488C231.799 87.7488 232.399 87.7388 232.979 87.7288C234.139 87.7188 235.219 87.6988 236.229 87.6888C238.239 87.5888 239.959 87.3388 241.449 87.2088C242.949 87.1088 244.169 86.7588 245.239 86.5788C246.299 86.3688 247.189 86.1888 247.959 86.0388C248.549 85.9388 249.109 85.7688 249.659 85.5988C250.209 85.4288 250.759 85.2688 251.299 85.1088C252.379 84.7788 253.419 84.4588 254.439 84.1488C256.429 83.3788 258.299 82.5788 260.099 81.8288C261.879 81.0188 263.499 80.0688 265.109 79.2288C266.749 78.4288 268.189 77.3788 269.649 76.4288V76.4188Z" fill="#357DE8"/>
</g>
<mask id="mask2_287_72454" style="mask-type:luminance" maskUnits="userSpaceOnUse" x="485" y="35" width="116" height="591">
<path d="M485.209 625.949H557.309L532.339 241.219H600.209V213.759V174.159V151.929V134.559V111.689V73.5786V35.0386H485.209V625.949Z" fill="white"/>
</mask>
<g mask="url(#mask2_287_72454)">
<path d="M486.888 104.658C482.298 105.018 480.048 105.648 480.088 105.938C480.128 106.258 482.428 106.238 486.978 105.998C493.428 105.688 500.078 105.778 507.208 106.518C514.318 107.328 521.938 108.878 530.068 111.938C534.678 113.648 538.288 115.398 541.318 117.018C542.848 117.798 544.188 118.638 545.478 119.368C546.718 120.168 547.928 120.858 549.018 121.638C550.128 122.388 551.198 123.118 552.208 123.898C552.718 124.288 553.248 124.658 553.748 125.058C554.238 125.478 554.728 125.898 555.228 126.318C555.718 126.748 556.248 127.168 556.738 127.638C557.208 128.128 557.698 128.628 558.198 129.148C559.238 130.138 560.138 131.378 561.168 132.668C564.598 137.098 567.248 143.248 568.668 149.938C569.988 156.668 570.118 163.878 569.528 170.588C568.298 184.058 564.928 195.518 563.728 199.948C563.358 201.258 562.988 202.568 562.608 203.888C561.928 206.238 560.688 210.578 558.818 216.258C556.968 221.948 554.538 228.978 551.708 236.778C546.088 252.398 538.768 271.058 533.268 288.818C529.428 301.368 527.118 311.818 526.288 320.258C525.348 328.678 525.988 335.018 526.808 339.248C527.788 344.258 529.618 348.828 532.218 352.608C534.808 356.398 538.108 359.348 541.578 361.558C542.008 361.838 542.448 362.118 542.878 362.388C543.308 362.658 543.778 362.868 544.218 363.108C545.118 363.558 545.988 364.058 546.898 364.448C548.728 365.188 550.518 365.968 552.358 366.478C555.998 367.678 559.668 368.348 563.318 368.918C567.348 369.428 569.388 369.338 569.408 369.088C569.438 368.798 567.458 368.348 563.508 367.738C559.928 367.068 556.338 366.318 552.828 365.068C551.038 364.528 549.328 363.738 547.568 362.988C546.698 362.598 545.868 362.098 545.008 361.658C544.588 361.418 544.138 361.218 543.728 360.948C543.318 360.678 542.908 360.408 542.498 360.128C539.208 357.968 536.128 355.158 533.718 351.568C531.298 347.988 529.568 343.678 528.638 338.868C527.888 335.148 527.368 329.218 528.178 321.468C528.968 313.718 530.968 304.208 534.198 293.308C535.238 289.748 536.338 286.208 537.428 282.698C542.218 267.558 548.748 250.458 553.618 236.988C558.548 223.538 561.698 213.668 561.698 213.668C561.698 213.668 561.988 212.748 562.508 211.088C563.038 209.428 563.768 207.018 564.628 204.038C566.348 198.078 568.568 189.798 570.068 180.518C570.808 175.878 571.378 170.998 571.548 166.068C571.688 161.138 571.428 156.168 570.608 151.448C569.798 146.728 568.388 142.278 566.548 138.428C564.718 134.568 562.358 131.428 560.208 128.898C559.338 127.998 558.508 127.118 557.698 126.278C556.818 125.508 555.958 124.768 555.138 124.048C553.458 122.668 551.838 121.468 550.278 120.398C547.178 118.248 544.408 116.578 541.948 115.268C537.028 112.618 533.438 111.198 530.718 110.138C522.418 107.018 514.618 105.478 507.378 104.748C500.118 104.078 493.398 104.118 486.888 104.598V104.658Z" fill="#357DE8"/>
<path d="M484.859 69.0086C478.389 72.7486 478.969 73.6986 485.499 70.1986C490.159 67.7586 495.019 65.4186 500.379 63.0786C505.739 60.7486 511.609 58.4486 518.369 56.3086C522.189 55.0886 525.339 54.2186 528.049 53.5286C529.409 53.1986 530.659 52.8886 531.829 52.5986C533.009 52.3486 534.119 52.1086 535.189 51.8786C537.319 51.4186 539.319 51.1086 541.449 50.7386C543.589 50.4686 545.849 50.0986 548.569 49.9186C553.139 49.5286 558.549 49.2086 564.109 49.6786C569.649 50.1286 575.379 51.4386 580.039 54.0886C582.369 55.3986 584.389 57.0486 586.009 58.8386C587.629 60.6286 588.869 62.5586 589.789 64.3986C590.719 66.2286 591.339 67.9786 591.749 69.4686C592.179 70.9586 592.409 72.2086 592.549 73.1086C592.719 74.1686 592.849 75.2386 592.929 76.3186C593.019 77.2786 593.059 78.6486 593.019 80.3686C592.939 82.0786 592.739 84.1586 592.269 86.4886C591.369 91.1486 589.349 96.7986 586.159 102.649C579.829 114.419 569.439 127.089 557.979 136.669C549.939 143.509 542.709 148.139 536.879 151.539C531.019 154.909 526.529 157.049 523.419 158.469C516.079 161.799 509.439 164.209 503.239 166.179C497.029 168.149 491.239 169.649 485.439 170.929C479.069 172.269 479.209 173.229 485.679 172.109C491.549 171.029 497.429 169.669 503.729 167.789C510.029 165.919 516.759 163.529 524.189 160.169C527.069 158.849 531.519 156.819 537.149 153.709C542.759 150.579 549.539 146.309 556.839 140.459L560.339 137.519C561.459 136.489 562.579 135.469 563.699 134.449C568.429 129.959 573.169 124.779 577.349 119.379C579.439 116.679 581.419 113.939 583.189 111.209C584.979 108.499 586.609 105.819 587.989 103.219C590.779 98.0486 592.579 93.2686 593.489 89.7686C593.969 88.0286 594.239 86.6086 594.419 85.6386C594.569 84.6586 594.659 84.1386 594.659 84.1386C594.659 84.1386 594.769 83.3486 594.899 81.9086C595.019 80.4686 595.099 78.3786 594.899 75.8086C594.689 73.2486 594.169 70.1986 592.999 67.0086C592.419 65.4086 591.689 63.7786 590.749 62.1786C589.809 60.5886 588.709 58.9986 587.359 57.5786C586.019 56.1486 584.499 54.8286 582.819 53.6986C581.129 52.5886 579.309 51.6386 577.429 50.8586C573.639 49.3486 569.629 48.5286 565.759 48.1286C561.889 47.7486 558.139 47.7086 554.729 47.8786C551.309 47.9986 548.209 48.2886 545.559 48.5486C537.599 49.4686 531.779 50.6986 527.399 51.7986C525.199 52.3186 523.369 52.8686 521.789 53.2886C520.219 53.7686 518.909 54.1586 517.779 54.5086C510.949 56.6686 505.029 59.0486 499.649 61.4786C494.279 63.9186 489.439 66.3986 484.829 68.9986L484.859 69.0086Z" fill="#357DE8"/>
<path d="M621.979 129.828C625.219 125.698 624.339 125.018 620.949 128.958C616.069 134.498 610.769 140.158 603.569 147.058C599.509 150.988 596.919 153.388 594.659 155.478C592.389 157.558 590.439 159.308 587.499 161.768C582.539 165.928 575.679 171.308 569.449 175.918C563.239 180.558 557.679 184.438 555.509 185.918L553.599 187.258C551.319 188.858 545.199 193.218 537.149 198.138C529.109 203.068 519.059 208.438 509.319 212.348C502.459 215.148 496.739 216.988 492.169 218.248C487.599 219.498 484.189 220.258 481.839 220.698C470.739 222.848 462.269 223.338 453.969 223.208C449.419 223.048 449.309 224.018 453.909 224.408C462.279 224.968 470.939 224.708 482.189 222.538C486.539 221.678 495.749 220.008 507.989 215.248C509.969 214.448 511.949 213.648 513.859 212.738C518.009 210.828 522.399 208.638 526.609 206.378C530.819 204.098 534.849 201.748 538.339 199.628C541.839 197.508 544.799 195.588 546.889 194.218C548.969 192.838 550.199 192.018 550.199 192.018C550.199 192.018 550.659 191.708 551.479 191.158C552.299 190.598 553.479 189.778 554.929 188.778C557.819 186.748 561.779 183.908 566.049 180.718C574.599 174.348 584.399 166.558 590.059 161.728C598.589 154.468 602.469 150.708 604.859 148.418C612.089 141.458 617.319 135.618 621.969 129.828H621.979Z" fill="#357DE8"/>
<path d="M513.099 25.9985C511.199 24.5585 510.039 24.1485 509.879 24.3885C509.689 24.6585 510.479 25.5585 512.259 27.0485C514.759 29.1785 517.149 31.5585 519.469 34.3785C521.789 37.1985 524.059 40.4285 526.159 44.3285C528.549 48.7385 529.699 51.6785 530.659 54.2385C531.579 56.8185 532.249 59.0585 532.919 62.4085C533.489 65.2385 533.879 68.6085 534.019 72.1285C534.159 75.6485 534.009 79.3185 533.629 82.7485C532.889 89.6185 531.189 95.4485 530.489 97.6785L529.859 99.6585C529.509 100.848 528.769 103.018 527.659 105.848C527.049 107.238 526.359 108.798 525.609 110.488C524.839 112.168 523.849 113.908 522.889 115.788C518.859 123.198 512.559 131.298 505.759 137.798C504.609 138.998 503.379 139.998 502.269 141.018C501.149 142.028 500.079 142.978 498.999 143.798C497.939 144.638 496.939 145.438 495.989 146.188C495.019 146.908 494.089 147.548 493.219 148.178C492.349 148.788 491.549 149.388 490.779 149.898C489.999 150.398 489.269 150.858 488.609 151.278C487.269 152.118 486.179 152.868 485.219 153.368C476.429 158.448 469.389 161.418 462.359 163.928C458.489 165.278 458.729 166.218 462.729 165.078C469.969 162.948 477.219 160.148 486.169 154.988C489.579 152.918 496.979 148.828 505.759 140.848C507.179 139.538 508.499 138.138 509.839 136.768C511.249 135.258 512.599 133.598 514.039 131.978C515.379 130.278 516.729 128.558 518.039 126.838C519.249 125.048 520.529 123.328 521.619 121.588C522.669 119.818 523.759 118.158 524.639 116.528C525.499 114.888 526.309 113.368 527.029 111.998C527.659 110.588 528.219 109.348 528.689 108.318C529.159 107.288 529.529 106.468 529.749 105.888C529.979 105.318 530.099 104.998 530.099 104.998C530.099 104.998 530.849 103.148 531.829 100.088C532.809 97.0385 533.959 92.7585 534.739 87.9885C535.549 83.2185 535.869 77.9385 535.729 73.0385C535.559 68.1385 534.869 63.6385 534.129 60.3385C533.019 55.3685 531.679 51.8185 530.559 49.1685C529.449 46.5185 528.509 44.7685 527.799 43.4385C525.619 39.4285 523.239 36.1085 520.779 33.2685C518.319 30.4185 515.769 28.0585 513.089 25.9985H513.099Z" fill="#357DE8"/>
<path d="M582.808 407.368C585.688 404.788 584.948 403.958 581.948 406.328C577.668 409.658 573.098 413.078 566.938 417.008C565.208 418.148 563.748 418.978 562.528 419.768C561.278 420.498 560.238 421.108 559.268 421.678C558.308 422.268 557.368 422.728 556.388 423.248C555.398 423.758 554.358 424.308 553.058 424.858C548.758 426.858 542.738 429.028 537.238 430.308C535.858 430.598 534.528 430.918 533.258 431.158C531.988 431.358 530.798 431.548 529.718 431.728C527.558 431.998 525.848 432.138 524.898 432.238C524.328 432.258 523.768 432.298 523.198 432.338C522.688 432.378 521.978 432.428 521.068 432.488C520.168 432.568 519.078 432.518 517.838 432.548C517.218 432.548 516.558 432.548 515.868 432.558C515.178 432.558 514.458 432.478 513.698 432.448C512.188 432.358 510.558 432.288 508.858 432.028C502.028 431.248 493.908 429.178 486.818 426.188C476.798 421.958 471.168 418.148 468.228 416.248C461.318 411.628 456.478 407.698 451.848 403.708C449.318 401.508 448.628 402.188 451.028 404.588C455.408 408.928 460.178 413.108 467.188 417.808C469.918 419.598 475.508 423.648 484.408 427.538C485.128 427.848 485.848 428.178 486.588 428.458C487.328 428.718 488.068 428.978 488.808 429.248C495.188 431.488 502.768 433.278 508.808 433.938C510.308 434.168 511.718 434.248 512.978 434.318C514.238 434.378 515.348 434.528 516.278 434.498C518.138 434.498 519.228 434.508 519.228 434.508C519.228 434.508 519.638 434.508 520.378 434.508C521.118 434.488 522.178 434.408 523.488 434.328C526.108 434.188 529.698 433.708 533.588 432.968C537.448 432.128 541.638 431.078 545.388 429.688C545.858 429.528 546.328 429.368 546.788 429.208C547.238 429.028 547.688 428.848 548.138 428.678C549.028 428.328 549.878 427.988 550.708 427.668C552.328 426.978 553.798 426.298 555.058 425.738C562.518 422.118 565.838 419.878 567.928 418.608C574.168 414.608 578.688 411.008 582.798 407.388L582.808 407.368Z" fill="#357DE8"/>
<path d="M549.388 526.239C551.158 526.399 552.498 526.359 553.378 526.209C554.258 526.079 554.688 525.919 554.678 525.759C554.668 525.599 554.228 525.459 553.368 525.349C552.508 525.259 551.228 525.109 549.538 524.899C544.728 524.279 539.978 522.539 535.328 519.819C530.698 517.049 526.188 513.219 522.188 508.019C517.688 502.079 515.718 497.759 514.008 494.079C512.388 490.339 511.148 487.059 509.788 482.139C507.478 473.819 505.508 462.329 504.868 452.029C504.248 441.719 504.718 432.679 505.008 429.189C505.078 428.159 505.118 427.119 505.228 426.079C505.388 424.229 505.628 420.799 506.218 416.299C506.458 414.039 506.918 411.529 507.318 408.789C507.568 407.429 507.838 406.009 508.108 404.549C508.248 403.819 508.388 403.079 508.528 402.319C508.698 401.569 508.868 400.809 509.038 400.039C511.618 387.699 516.448 373.219 522.258 360.419C530.518 342.339 537.448 332.079 540.908 326.689C545.068 320.349 548.968 314.979 552.678 310.099C556.368 305.209 559.908 300.839 563.488 296.559C567.448 291.889 566.738 291.229 562.578 295.769C558.828 299.919 555.138 304.209 551.338 309.069C547.518 313.909 543.548 319.279 539.348 325.659C536.118 330.619 529.048 340.859 521.568 356.699C520.968 357.989 520.348 359.279 519.798 360.589C519.248 361.899 518.708 363.209 518.158 364.519C515.908 370.189 513.608 376.329 511.748 382.449C509.888 388.569 508.238 394.599 507.128 399.959C506.488 402.629 506.098 405.149 505.638 407.389C505.228 409.639 504.948 411.629 504.678 413.289C504.388 414.939 504.278 416.269 504.148 417.169C504.038 418.079 503.968 418.569 503.968 418.569C503.968 418.569 503.878 419.299 503.718 420.619C503.598 421.949 503.428 423.859 503.208 426.219C502.888 430.949 502.498 437.479 502.748 444.629C502.948 451.779 503.648 459.539 504.818 466.689C505.958 473.839 507.518 480.369 508.978 485.149C511.148 492.369 513.528 497.469 515.558 501.229C517.628 504.969 519.348 507.369 520.708 509.159C524.858 514.549 529.608 518.509 534.468 521.309C539.348 524.069 544.368 525.759 549.398 526.229L549.388 526.239Z" fill="#357DE8"/>
<path d="M476.828 312.919C475.298 317.129 476.348 317.509 478.078 313.419C480.578 307.619 483.288 301.579 487.198 294.029C488.278 291.869 489.218 290.159 490.008 288.669C490.788 287.179 491.478 285.949 492.128 284.809C493.388 282.509 494.548 280.599 496.318 277.849C499.338 273.219 503.748 267.239 508.058 262.259C512.338 257.249 516.468 253.219 518.108 251.689L519.548 250.319C519.978 249.909 520.578 249.319 521.338 248.579C522.128 247.869 523.068 247.019 524.148 246.059C526.298 244.119 529.088 241.849 532.308 239.459C535.538 237.089 539.258 234.689 543.208 232.479C547.158 230.259 551.418 228.369 555.598 226.849C561.508 224.689 566.518 223.659 570.488 223.079C572.488 222.869 574.208 222.619 575.708 222.599C577.198 222.539 578.438 222.449 579.458 222.519C584.238 222.549 588.398 223.119 592.168 223.969C595.938 224.819 599.318 225.959 602.578 227.309C604.368 228.059 605.348 228.279 605.478 228.029C605.598 227.799 604.858 227.089 603.078 226.209C599.838 224.639 596.428 223.309 592.568 222.319C588.718 221.329 584.418 220.679 579.478 220.639C578.518 220.579 577.298 220.629 575.838 220.669C574.368 220.669 572.668 220.829 570.728 221.019C566.868 221.469 562.088 222.319 556.738 224.109C555.008 224.729 553.268 225.319 551.618 226.099C547.998 227.639 544.278 229.609 540.728 231.669C537.168 233.719 533.878 236.009 531.028 238.049C529.618 239.099 528.328 240.099 527.168 240.989C526.038 241.919 525.038 242.739 524.208 243.419C522.598 244.829 521.648 245.669 521.648 245.669C521.648 245.669 521.298 245.979 520.658 246.549C520.008 247.099 519.128 247.959 518.038 249.009C516.938 250.049 515.638 251.299 514.268 252.749C513.578 253.469 512.848 254.219 512.098 254.999C511.378 255.799 510.628 256.639 509.868 257.489C508.308 259.169 506.828 261.029 505.278 262.859C503.788 264.729 502.298 266.609 500.928 268.469C499.578 270.339 498.238 272.119 497.118 273.829C495.968 275.519 494.918 277.059 494.078 278.419C493.438 279.429 492.838 280.379 492.278 281.269C491.738 282.169 491.248 283.009 490.778 283.799C490.308 284.589 489.878 285.309 489.478 285.989C489.098 286.679 488.738 287.319 488.408 287.909C487.748 289.089 487.198 290.089 486.728 290.949C486.278 291.819 485.898 292.549 485.578 293.179C481.638 300.809 479.068 306.989 476.858 312.939L476.828 312.919Z" fill="#357DE8"/>
<path d="M582.609 347.238C583.409 345.378 584.259 343.538 585.119 341.708C585.119 341.708 586.439 339.428 588.029 336.698C589.619 333.968 591.499 330.808 592.389 328.878C595.319 324.478 598.409 320.188 601.749 316.108C601.749 316.108 602.739 314.788 603.909 313.288C605.069 311.788 606.439 310.138 607.039 309.328C607.759 308.298 608.249 307.598 608.249 307.288C608.269 306.978 607.669 307.078 606.539 307.908C605.429 308.738 603.829 310.298 601.819 312.838C601.749 312.878 601.559 313.058 601.499 313.058C597.429 318.568 593.169 323.588 589.519 329.518C589.689 329.518 589.669 329.778 589.489 329.918L589.369 329.758C587.239 333.878 585.269 336.078 583.779 340.098C583.779 340.098 583.799 339.568 583.799 339.548C580.359 345.918 576.599 353.588 573.449 361.688C570.279 369.778 567.769 378.308 566.399 386.058L566.439 385.988L566.459 386.028C566.679 385.328 567.229 383.288 567.759 381.448C568.309 379.608 568.799 377.938 568.799 377.938C568.329 383.178 566.229 388.758 565.549 394.298L565.319 394.228C565.489 393.038 565.629 391.908 565.729 390.968C565.849 390.028 565.929 389.288 565.949 388.858C565.039 393.078 564.069 399.558 564.009 406.048C563.839 412.538 564.669 418.978 565.589 423.028C565.729 422.788 564.899 420.308 565.419 419.578C565.539 420.628 565.749 421.668 565.949 422.698C566.129 423.728 566.359 424.728 566.569 425.708C566.199 425.788 566.079 424.628 565.959 424.418C566.059 425.268 566.829 430.318 569.159 436.798C570.339 440.028 571.889 443.598 573.809 447.148C575.759 450.678 578.069 454.168 580.529 457.338C582.959 460.538 585.629 463.318 588.019 465.698C590.459 468.038 592.699 469.908 594.389 471.228C597.849 473.788 598.959 474.328 595.969 471.398L596.419 471.508C593.129 468.748 590.529 466.278 587.719 462.808C587.259 462.378 587.239 462.298 587.099 462.428C586.959 462.328 586.729 462.168 586.719 462.278C586.419 462.658 585.579 461.518 585.179 461.038C585.979 460.808 583.699 458.238 581.289 455.308C578.909 452.368 576.439 449.008 576.009 448.128C576.229 447.778 575.729 446.968 575.189 446.068C574.659 445.158 574.039 444.178 573.909 443.598C573.969 443.658 574.359 444.048 574.409 444.098C574.319 443.558 572.179 439.548 570.719 436.008C570.369 435.118 570.019 434.278 569.749 433.538C569.499 432.788 569.289 432.158 569.159 431.708C568.899 430.808 568.929 430.638 569.499 431.748C568.909 429.278 568.409 426.528 567.909 423.598C567.469 420.658 567.089 417.508 566.869 414.218C566.669 410.918 566.609 407.488 566.719 403.968C566.839 400.458 567.149 396.878 567.619 393.298C569.479 378.968 574.329 364.878 579.399 355.168L579.259 355.288C579.359 355.138 579.529 354.628 579.679 354.548C579.999 353.508 580.689 351.668 581.349 350.108C581.989 348.538 582.599 347.248 582.599 347.248L582.609 347.238ZM566.489 394.808C566.489 394.808 566.519 394.838 566.529 394.828C566.459 394.828 566.179 397.638 566.149 397.748L565.919 397.708C565.729 394.788 568.319 388.478 566.729 394.578C566.759 394.798 566.569 394.778 566.479 394.808H566.489ZM566.519 419.888C566.559 420.378 566.609 420.908 566.699 421.488C565.819 418.328 565.449 414.468 565.409 410.548C565.369 406.618 565.669 402.638 565.799 399.048C566.209 400.308 566.209 402.368 566.109 404.498C566.089 405.568 566.019 406.658 565.969 407.668C565.939 408.678 565.909 409.618 565.909 410.388C566.259 413.468 566.249 417.128 566.509 419.878L566.519 419.888ZM582.959 458.008L583.069 457.938L583.209 458.118C583.209 458.118 583.139 458.138 583.099 458.118C583.059 458.108 582.989 458.058 582.969 458.008H582.959ZM580.589 350.108C580.559 350.628 579.669 352.218 579.849 350.968C580.039 350.708 580.269 349.828 580.589 350.108ZM567.589 427.188C567.959 427.108 568.639 429.378 568.119 429.528C567.909 428.738 567.739 427.958 567.589 427.188ZM588.649 334.198C588.619 333.438 588.919 333.838 589.249 333.788C589.119 333.898 588.799 334.378 588.699 334.178L588.639 334.198H588.649ZM594.469 324.608C594.389 324.358 594.649 323.768 594.809 323.518C595.369 322.968 594.809 324.428 594.469 324.608ZM605.839 310.018C605.689 309.838 605.949 309.468 606.199 309.538C606.289 309.688 606.009 310.168 605.759 310.038C605.769 310.038 605.799 310.038 605.839 310.018ZM570.129 438.078C569.209 437.738 569.019 435.418 568.429 434.368C569.159 434.398 569.399 436.568 569.829 437.388C569.949 437.678 570.049 437.908 570.129 438.088V438.078ZM572.429 366.378C571.839 366.198 573.149 364.038 573.309 363.228L573.529 363.328C573.169 364.498 573.029 365.228 572.449 366.338L572.429 366.388V366.378ZM564.749 416.158C564.469 415.718 564.619 414.908 564.579 414.438C564.919 414.418 565.159 416.428 564.749 416.168V416.158ZM565.149 395.548C565.529 395.488 565.229 396.478 565.239 396.768C565.189 396.558 564.999 396.158 565.029 395.928C565.049 395.758 565.099 395.728 565.149 395.558V395.548ZM572.349 367.308C572.039 368.198 571.709 369.168 571.389 370.098L571.169 369.998C571.479 369.048 571.789 368.118 572.129 367.208L572.349 367.308ZM569.119 376.368L568.889 376.298C569.049 374.888 569.679 374.908 569.129 376.328V376.358L569.119 376.368ZM576.619 355.648C576.549 355.778 576.439 355.978 576.389 356.108C575.629 357.938 575.939 355.038 576.619 355.648ZM580.809 346.148C580.869 345.958 580.919 345.688 581.019 345.498C581.679 344.258 581.489 345.898 580.809 346.148Z" fill="#357DE8"/>
</g>
<mask id="mask3_287_72454" style="mask-type:luminance" maskUnits="userSpaceOnUse" x="737" y="-51" width="254" height="293">
<path d="M855.42 241.698H855.54L990.11 241.038L859.98 -50.5516L737.83 -50.9116L855.42 241.698Z" fill="white"/>
</mask>
<g mask="url(#mask3_287_72454)">
<path d="M777.101 49.5686C771.681 51.0386 769.131 52.2686 769.221 52.5286C769.321 52.8486 772.051 52.2086 777.441 50.8686C785.101 48.9886 793.081 47.6086 801.821 46.8586C810.551 46.1086 820.041 45.9886 830.531 47.5986C842.411 49.4686 849.541 52.0786 855.611 54.4686C857.131 55.0786 858.561 55.7386 859.991 56.3786C861.391 57.0786 862.821 57.7186 864.241 58.4986C865.661 59.2686 867.131 60.0486 868.641 60.9786C870.191 61.8486 871.701 62.9386 873.361 64.0986C878.961 68.0286 884.351 74.2286 888.101 81.6986C889.901 85.4686 891.361 89.4886 892.421 93.5986C893.411 97.7286 894.171 101.899 894.511 105.999C895.301 114.189 895.071 121.949 894.591 128.299C894.101 134.659 893.451 139.639 893.051 142.419C892.801 144.059 892.601 145.709 892.341 147.359C891.881 150.299 891.061 155.749 889.651 162.899C888.261 170.049 886.321 178.919 883.971 188.769C881.621 198.609 878.881 209.439 876.121 220.559C873.371 231.689 870.621 243.129 868.381 254.229C865.231 269.909 863.711 282.849 863.531 293.149C863.421 303.459 864.591 311.069 866.031 316.119C867.681 322.089 870.291 327.459 873.761 331.799C877.211 336.159 881.471 339.439 885.901 341.779C887.031 342.319 888.111 342.949 889.261 343.389C890.411 343.829 891.541 344.269 892.661 344.699C893.801 345.089 894.961 345.369 896.091 345.709C896.661 345.869 897.221 346.039 897.791 346.179C898.361 346.289 898.941 346.409 899.511 346.519C900.651 346.739 901.781 346.989 902.921 347.179C904.061 347.319 905.191 347.459 906.331 347.599L908.021 347.809C908.581 347.869 909.151 347.879 909.711 347.919C910.841 347.979 911.961 348.049 913.091 348.109C918.031 348.219 920.491 347.879 920.481 347.639C920.481 347.339 918.021 347.129 913.141 346.909C912.031 346.819 910.921 346.729 909.811 346.649C909.261 346.599 908.701 346.579 908.141 346.509L906.481 346.269C905.371 346.109 904.261 345.949 903.141 345.789C902.031 345.579 900.931 345.319 899.821 345.079C899.261 344.959 898.711 344.839 898.151 344.719C897.601 344.579 897.051 344.389 896.501 344.229C895.401 343.879 894.281 343.589 893.181 343.199C892.101 342.769 891.011 342.329 889.901 341.889C888.801 341.449 887.771 340.829 886.691 340.299C882.461 337.999 878.441 334.849 875.181 330.679C871.901 326.529 869.421 321.399 867.831 315.629C867.541 314.499 867.261 313.199 866.931 311.769C866.651 310.319 866.421 308.699 866.151 306.929C865.781 303.379 865.441 299.209 865.541 294.439C865.621 289.679 865.931 284.349 866.621 278.509C867.311 272.669 868.301 266.319 869.581 259.499C870.411 255.059 871.301 250.619 872.221 246.229C876.171 227.259 881.881 205.689 885.911 188.689C887.941 180.199 889.581 172.849 890.651 167.619C891.211 165.009 891.611 162.919 891.891 161.489C892.171 160.059 892.321 159.289 892.321 159.289C892.321 159.289 892.541 158.129 892.911 156.039C893.091 154.989 893.321 153.719 893.581 152.229C893.821 150.739 894.091 149.049 894.381 147.179C895.511 139.699 896.801 129.319 896.851 117.859C896.881 112.129 896.481 106.139 895.521 100.199C894.551 94.2686 892.931 88.3886 890.541 83.0586C888.171 77.7186 884.991 72.9786 881.481 69.1586C878.011 65.2786 874.081 62.5586 870.731 60.3486C860.451 54.0086 851.941 51.0086 845.461 49.0086C838.931 47.1186 834.311 46.2686 830.791 45.7386C820.121 44.0986 810.441 44.2786 801.641 45.1186C792.821 45.9686 784.761 47.4886 777.081 49.5486L777.101 49.5686Z" fill="#357DE8"/>
<path d="M763.951 18.9186C756.981 24.8686 757.731 25.7086 764.801 19.9586C769.891 15.9786 775.131 11.9086 781.041 7.82863C786.951 3.73863 793.401 -0.561368 800.981 -4.85137C805.281 -7.28137 808.801 -9.20137 811.891 -10.7214C814.941 -12.3314 817.581 -13.4814 820.011 -14.6314C821.221 -15.2214 822.411 -15.7114 823.601 -16.2014C824.791 -16.6914 825.981 -17.1914 827.201 -17.7014C828.421 -18.2314 829.721 -18.6514 831.081 -19.1614C832.451 -19.6414 833.891 -20.2014 835.481 -20.7214C836.831 -21.1414 838.241 -21.5714 839.691 -22.0314C840.421 -22.2514 841.161 -22.4814 841.911 -22.7214C842.671 -22.9214 843.441 -23.1214 844.221 -23.3214C845.781 -23.7214 847.381 -24.1414 849.001 -24.5614C850.641 -24.9014 852.311 -25.2514 854.001 -25.6114C854.851 -25.7814 855.691 -25.9814 856.551 -26.1214C857.411 -26.2614 858.271 -26.3914 859.131 -26.5314C860.861 -26.7914 862.581 -27.1114 864.311 -27.3214C867.771 -27.7514 871.231 -28.0014 874.581 -28.0114C881.271 -28.0514 887.511 -26.8814 892.161 -24.8414C894.491 -23.8214 896.411 -22.6214 897.961 -21.5314C899.461 -20.3714 900.611 -19.3314 901.371 -18.5214C902.291 -17.5814 903.141 -16.5814 903.941 -15.5314C905.361 -13.6714 907.831 -9.97137 909.501 -4.38137C910.331 -1.60137 910.981 1.62863 911.141 5.16863C911.341 8.71863 911.071 12.5786 910.371 16.5886C908.951 24.6186 905.631 33.1186 901.341 41.3686C897.131 49.6686 891.821 57.6486 886.151 64.8486C878.101 75.0086 870.461 82.2886 864.161 87.6786C857.841 93.0586 852.881 96.6486 849.421 99.0186C841.281 104.659 833.711 108.909 826.591 112.539C819.451 116.149 812.711 119.099 805.931 121.739C802.201 123.179 800.381 124.059 800.471 124.319C800.551 124.569 802.551 124.199 806.351 122.869C813.251 120.409 820.101 117.599 827.351 114.059C834.581 110.499 842.251 106.259 850.491 100.569C853.701 98.3786 858.611 94.9186 864.691 89.8886C870.731 84.8286 877.991 78.1986 885.321 69.3686L887.111 67.2086L888.821 64.9886L890.511 62.7686L892.111 60.4886C896.701 53.9486 901.101 46.5486 904.721 38.9786C908.361 31.4386 911.131 23.6186 912.331 16.4786C912.931 12.9086 913.181 9.52863 913.131 6.50863C913.091 3.47863 912.721 0.808632 912.271 -1.36137C911.841 -3.54137 911.321 -5.24137 910.941 -6.39137C910.531 -7.53137 910.311 -8.15137 910.311 -8.15137C910.311 -8.15137 910.221 -8.38137 910.031 -8.81137C909.841 -9.24137 909.611 -9.89137 909.211 -10.6814C908.471 -12.2914 907.241 -14.5514 905.321 -17.0814C903.411 -19.5914 900.661 -22.2814 897.101 -24.4814C895.301 -25.5314 893.341 -26.5214 891.211 -27.2814C889.081 -28.0214 886.831 -28.6514 884.491 -29.0414C882.151 -29.4314 879.741 -29.6814 877.311 -29.7714C874.871 -29.8414 872.411 -29.7914 869.961 -29.6314C867.511 -29.4614 865.061 -29.1914 862.651 -28.8414C860.251 -28.4414 857.871 -28.0514 855.541 -27.6614C846.231 -25.9214 837.841 -23.3114 831.701 -21.1414C822.451 -17.8314 815.841 -14.7814 810.891 -12.2814C809.651 -11.6614 808.511 -11.0914 807.451 -10.5714C806.411 -10.0114 805.461 -9.49137 804.571 -9.01137C802.811 -8.04137 801.311 -7.28137 800.071 -6.53137C792.421 -2.20137 785.951 2.17863 780.061 6.35863C774.151 10.5386 768.971 14.7186 763.961 18.8486L763.951 18.9186Z" fill="#357DE8"/>
<path d="M829.55 173.039C827.5 174.519 825.92 175.539 824.92 176.329C823.92 177.109 823.46 177.579 823.54 177.709C823.62 177.839 824.23 177.639 825.37 177.069C826.5 176.479 828.21 175.599 830.3 174.159C842.29 166.169 854.22 156.899 869.32 144.729C877.83 137.769 883.06 133.319 887.6 129.439C892.14 125.549 896 122.239 901.65 117.389C906.41 113.279 912.01 108.479 917.76 103.389C920.65 100.859 923.56 98.2286 926.44 95.5986L928.58 93.6086L929.51 92.7486C929.57 92.6986 929.55 92.7386 929.8 92.7086L930.5 92.6686L931.89 92.5786L933.28 92.6286L934.66 92.6786C935.12 92.7386 935.57 92.7986 936.02 92.8586C939.64 93.3386 943.05 94.4286 946.08 95.8186C949.13 97.1986 951.77 98.9186 953.97 100.689C958.45 104.189 960.9 107.969 962.1 110.079L963.06 112.019C963.39 112.669 963.58 113.359 963.85 114.029C964.11 114.619 964.29 115.389 964.52 116.269C964.79 117.149 964.93 118.179 965.11 119.329C965.38 121.629 965.5 124.449 965.02 127.609C964.52 130.759 963.51 134.259 961.68 137.709C959.86 141.149 957.24 144.559 953.82 147.359C953.41 147.729 952.93 148.019 952.48 148.349C952.01 148.659 951.59 149.039 951.08 149.299C950.1 149.859 949.13 150.459 948.06 150.939C945.95 151.929 943.67 152.749 941.33 153.529C936.67 155.119 931.58 156.489 927.02 159.469C924.76 160.949 922.73 162.929 921.24 165.259C919.75 167.589 918.85 170.319 918.55 173.039C918.23 175.769 918.45 178.499 918.87 181.119C919.29 183.749 919.95 186.279 920.63 188.759C922.61 195.739 924.61 201.939 924.98 207.659C925.09 209.079 925.06 210.469 924.98 211.799C924.76 213.119 924.71 214.419 924.33 215.629C923.8 218.099 922.75 220.249 921.73 222.229C919.49 226.099 916.75 228.969 914.24 231.189C911.73 233.429 909.35 234.969 907.43 236.209C898.18 241.969 888.76 244.309 880.31 247.069C871.83 249.759 863.97 252.539 857.07 257.029C855.19 258.269 853.87 259.329 853.07 260.139C852.26 260.929 851.91 261.379 852 261.479C852.09 261.579 852.61 261.339 853.54 260.739C854.46 260.119 855.84 259.219 857.71 258.049C864.56 253.849 872.32 251.259 880.81 248.689C885.06 247.399 889.52 246.099 894.18 244.479C898.86 242.879 903.65 240.719 908.42 237.799C909.35 237.229 910.37 236.529 911.51 235.769C912.61 234.939 913.87 234.069 915.12 232.969C917.65 230.809 920.47 228.029 922.87 224.229C924.11 222.359 925.08 220.159 925.93 217.779C926.09 217.169 926.25 216.549 926.42 215.919C926.5 215.609 926.58 215.289 926.67 214.969C926.72 214.649 926.77 214.319 926.81 213.989C926.9 213.329 927 212.659 927.09 211.989C927.12 211.309 927.19 210.619 927.18 209.929C927.27 204.339 925.72 198.509 923.98 192.459C922.85 188.509 921.65 184.609 920.97 180.699C920.61 178.589 920.4 176.429 920.51 174.269C920.63 172.119 921.12 169.979 922.02 168.009C922.93 166.039 924.27 164.259 925.89 162.779C927.52 161.299 929.46 160.149 931.49 159.189C935.56 157.269 939.97 156.079 944.14 154.579C946.23 153.829 948.26 153.009 950.18 152.019C951.11 151.459 952.07 150.989 952.92 150.379C953.76 149.749 954.65 149.219 955.4 148.519C958.52 145.919 960.88 142.909 962.6 140.009C964.32 137.109 965.42 134.309 966.06 131.919C966.75 129.539 967.02 127.579 967.16 126.239C967.24 125.569 967.3 125.049 967.29 124.699C967.3 124.349 967.31 124.159 967.31 124.159C967.31 124.159 967.31 123.889 967.33 123.369C967.33 123.109 967.34 122.789 967.35 122.409C967.33 122.029 967.3 121.589 967.27 121.099C967.2 119.129 966.79 116.269 965.6 112.949C964.4 109.629 962.18 105.979 958.99 102.659C955.83 99.3086 951.65 96.3586 946.87 94.1486C946.28 93.8486 945.66 93.6086 945.04 93.3786C944.42 93.1486 943.8 92.8886 943.16 92.6686C941.87 92.2986 940.59 91.8386 939.24 91.6086C936.58 90.9786 933.8 90.7586 931.02 90.8786L929.98 90.9486L929.44 90.9886L929.03 91.0186L928.81 91.0386C928.75 91.0686 928.7 91.1286 928.65 91.1786L927.02 92.7086C926.04 93.6286 925.06 94.5386 924.08 95.4486C922.1 97.2386 920.15 99.0486 918.2 100.769C910.44 107.719 903.13 114.009 897.67 118.669C881.21 132.709 873.09 139.229 868.14 143.279C853.07 155.439 841.27 164.829 829.54 173.039H829.55Z" fill="#357DE8"/>
<path d="M749.49 -22.2515C745.92 -19.7915 744.34 -18.2715 744.51 -18.0315C744.7 -17.7715 746.63 -18.7815 750.23 -21.1215C755.36 -24.4215 760.82 -27.4915 766.89 -30.5015C772.97 -33.4915 779.7 -36.3915 787.49 -39.0215C796.32 -42.0115 802.02 -43.2815 806.97 -44.3615C808.21 -44.6115 809.41 -44.8515 810.6 -45.0915C811.8 -45.2815 813 -45.4815 814.24 -45.6815C814.86 -45.7815 815.49 -45.8715 816.13 -45.9815C816.78 -46.0615 817.44 -46.1315 818.12 -46.2115C819.49 -46.3515 820.93 -46.5715 822.5 -46.6715C827.81 -47.1015 834.12 -47.5815 840.46 -46.5015C843.61 -45.9515 846.77 -44.9915 849.55 -43.3815C852.35 -41.8115 854.82 -39.7115 856.82 -37.3215C860.86 -32.5415 863.19 -26.9815 864.57 -22.3415C865.25 -20.0115 865.77 -17.8915 866.03 -16.0715C866.18 -15.1715 866.31 -14.3515 866.43 -13.6215C866.54 -12.8915 866.57 -12.2515 866.63 -11.7215C866.74 -10.4615 866.91 -9.2015 866.92 -7.9315C866.95 -6.8015 867.08 -5.1815 866.96 -3.1615C866.92 -2.1515 866.93 -1.03149 866.78 0.168507C866.72 0.768507 866.66 1.39851 866.59 2.03851C866.56 2.35851 866.53 2.6885 866.49 3.0285C866.43 3.3585 866.38 3.69851 866.32 4.03851C866.06 5.39851 865.91 6.86851 865.5 8.35851C865.32 9.10851 865.13 9.87851 864.94 10.6685C864.75 11.4585 864.46 12.2285 864.21 13.0385C863.24 16.2685 861.73 19.6085 859.86 22.9485C859.36 23.7685 858.85 24.5885 858.34 25.4285C857.79 26.2385 857.17 27.0185 856.59 27.8285C856.28 28.2185 856.01 28.6485 855.67 29.0185C855.33 29.3885 854.99 29.7685 854.65 30.1485C853.96 30.8885 853.32 31.7085 852.52 32.3685C849.6 35.3085 845.94 37.6185 842.09 39.4785C838.16 41.1785 833.81 42.1185 829.5 42.0085C825.21 41.8785 820.97 40.5885 817.72 38.0485C816.57 37.1685 815.57 36.1285 814.7 35.0585C813.85 33.9585 813.13 32.7885 812.52 31.6085C811.35 29.2085 810.58 26.7385 810.13 24.3385C809.66 21.9385 809.45 19.6185 809.36 17.4285C809.35 16.8785 809.33 16.3385 809.32 15.8085C809.33 15.2685 809.34 14.7485 809.35 14.2285C809.37 13.1885 809.39 12.1885 809.42 11.2085C809.91 3.4285 811.23 -2.20149 812.3 -5.98149C812.56 -7.11149 812.98 -8.19149 813.3 -9.26149C813.64 -10.3315 813.97 -11.4015 814.38 -12.4115C814.77 -13.4315 815.15 -14.4415 815.52 -15.4415C815.94 -16.4215 816.36 -17.3815 816.78 -18.3315C816.99 -18.8015 817.19 -19.2815 817.4 -19.7415C817.63 -20.2015 817.85 -20.6515 818.08 -21.1015C818.53 -22.0015 818.97 -22.9015 819.41 -23.7815C820.37 -25.4915 821.26 -27.2015 822.25 -28.8015C826.15 -35.2415 830.38 -40.7615 835.02 -45.8115C837.6 -48.5615 838.8 -50.0315 838.6 -50.2515C838.43 -50.4315 836.84 -49.3415 834.14 -46.6415C829.29 -41.6715 824.87 -36.1815 820.8 -29.6815C819.77 -28.0715 818.85 -26.3415 817.85 -24.6115C817.4 -23.7215 816.94 -22.8115 816.47 -21.9015C816.24 -21.4415 816 -20.9815 815.77 -20.5215C815.56 -20.0415 815.34 -19.5715 815.13 -19.0815C814.7 -18.1215 814.27 -17.1415 813.83 -16.1415C813.44 -15.1315 813.05 -14.1015 812.65 -13.0615C812.23 -12.0215 811.89 -10.9415 811.54 -9.8415C811.21 -8.7415 810.78 -7.64149 810.51 -6.48149C809.51 -2.93149 808.11 2.62851 807.5 10.1285C807.39 11.0585 807.38 12.0285 807.35 13.0285C807.32 14.0285 807.28 15.0485 807.27 16.0985C807.28 18.2085 807.4 20.4385 807.72 22.7585C808.05 25.0785 808.55 27.5085 809.45 29.9385C810.36 32.3585 811.6 34.8385 813.47 37.0085C814.67 38.4285 816.07 39.6985 817.64 40.6885C818.4 41.2385 819.25 41.6085 820.06 42.0485C820.92 42.3885 821.75 42.7885 822.64 43.0185C824.52 43.6185 826.51 43.9485 828.52 44.0485C830.53 44.1685 832.57 44.0585 834.57 43.7385C836.58 43.4185 838.57 42.9485 840.49 42.2485C842.4 41.5485 844.3 40.7485 846 39.6585C849.56 37.7385 852.6 35.0985 855.26 32.3585C855.9 31.6485 856.53 30.9385 857.16 30.2485C857.76 29.5285 858.28 28.7585 858.83 28.0385C859.98 26.6085 860.8 25.0285 861.73 23.5885C865.13 17.6085 866.75 11.8585 867.65 7.78851C868.03 5.73851 868.33 4.09851 868.48 2.96851C868.6 1.83851 868.66 1.21851 868.66 1.21851C868.66 1.21851 868.68 0.988506 868.73 0.558506C868.76 0.118506 868.87 -0.521494 868.89 -1.35149C868.92 -2.18149 868.95 -3.19149 868.99 -4.37149C869.05 -5.55149 868.94 -6.8915 868.91 -8.3615C868.63 -14.2415 867.34 -22.4615 863.35 -30.5315C861.36 -34.5415 858.62 -38.4715 855.03 -41.5915C853.23 -43.1415 851.23 -44.4615 849.11 -45.5115C846.98 -46.5315 844.75 -47.2715 842.52 -47.7615C838.05 -48.7215 833.67 -48.8215 829.7 -48.7015C827.71 -48.6515 825.83 -48.5015 824.05 -48.3615C823.16 -48.2915 822.3 -48.2315 821.47 -48.1715C820.64 -48.0815 819.84 -47.9915 819.07 -47.9015C809.83 -46.8615 803.1 -45.3315 798.02 -44.0515C796.75 -43.7115 795.58 -43.4015 794.5 -43.1115C793.42 -42.8215 792.44 -42.4915 791.53 -42.2215C789.71 -41.6715 788.19 -41.2115 786.9 -40.7415C779.02 -38.0715 772.23 -35.1015 766.12 -31.9915C760.02 -28.8715 754.57 -25.6615 749.49 -22.1915V-22.2515Z" fill="#357DE8"/>
<path d="M743.811 -54.9315C740.341 -53.6815 738.761 -52.6715 738.871 -52.4115C739.001 -52.1015 740.791 -52.5315 744.241 -53.6515C749.151 -55.2115 754.301 -56.4415 759.971 -57.2215C765.641 -57.9815 771.831 -58.2915 778.731 -57.6715C786.551 -56.9515 791.311 -55.6215 795.371 -54.3215C799.431 -53.0015 802.801 -51.5515 807.381 -48.8515C811.231 -46.5415 815.481 -43.3615 819.351 -39.4515C823.241 -35.5715 826.811 -31.0715 829.591 -26.4715C832.411 -21.8915 834.531 -17.3015 835.961 -13.4115C837.381 -9.5115 838.251 -6.3615 838.641 -4.5815C838.901 -3.5315 839.151 -2.4815 839.361 -1.4215C839.801 0.458495 840.441 3.9785 840.871 8.6885C841.301 13.3985 841.411 19.3085 840.741 25.8485C839.551 38.9485 834.651 54.3585 827.211 67.0185C822.051 76.0185 816.701 82.5685 812.271 87.4985C810.091 90.0085 808.001 91.9985 806.251 93.7385C805.811 94.1785 805.391 94.5885 804.991 94.9885C804.571 95.3685 804.161 95.7285 803.781 96.0685C803.011 96.7585 802.311 97.3785 801.681 97.9385C800.931 98.5885 800.231 99.2685 799.481 99.8685C798.731 100.468 797.991 101.058 797.271 101.648C795.811 102.808 794.441 103.988 792.991 104.988C791.571 106.028 790.181 107.028 788.831 108.018C787.431 108.938 786.061 109.828 784.731 110.708C784.061 111.138 783.411 111.598 782.741 111.998C782.061 112.398 781.391 112.788 780.731 113.178C779.401 113.958 778.091 114.729 776.801 115.479C775.471 116.179 774.161 116.868 772.861 117.548C772.211 117.888 771.561 118.238 770.911 118.578L768.931 119.498C763.131 122.198 763.471 123.108 769.431 120.598L771.461 119.738C772.121 119.418 772.791 119.088 773.461 118.768C774.801 118.118 776.141 117.458 777.501 116.798C778.841 116.088 780.171 115.318 781.531 114.568C782.211 114.188 782.901 113.799 783.591 113.419C784.281 113.019 784.941 112.578 785.631 112.148C787.001 111.278 788.401 110.398 789.831 109.488C791.211 108.508 792.631 107.498 794.081 106.468C795.561 105.468 796.961 104.278 798.451 103.108C799.191 102.518 799.941 101.919 800.701 101.309C801.461 100.699 802.181 100.018 802.931 99.3585C805.281 97.3085 808.901 94.1185 813.221 89.4785C817.591 84.8985 822.611 78.7785 827.451 70.9285C827.841 70.2885 828.271 69.6685 828.631 69.0085L829.711 67.0285C830.421 65.7085 831.141 64.3985 831.831 63.0785C834.591 57.2685 837.211 50.8685 839.071 44.3885C840.961 37.9185 842.141 31.4285 842.681 25.6785C843.251 19.9285 843.221 14.9485 843.031 11.4285C842.851 7.9085 842.581 5.83849 842.581 5.83849C842.581 5.83849 842.481 5.0685 842.311 3.6785C842.091 2.2885 841.811 0.278497 841.281 -2.1615C840.271 -7.0515 838.331 -13.7215 834.991 -20.4915C831.721 -27.3015 826.951 -34.0915 821.621 -39.5715C816.311 -45.0815 810.421 -49.1615 805.791 -51.6615C798.761 -55.3915 793.041 -57.0115 788.701 -58.0215C787.611 -58.2515 786.601 -58.4715 785.661 -58.6615C784.721 -58.8015 783.851 -58.9415 783.051 -59.0615C781.451 -59.3415 780.101 -59.4215 778.931 -59.5415C771.861 -60.1715 765.521 -59.8015 759.761 -58.9415C753.991 -58.0615 748.771 -56.6815 743.851 -54.9415L743.811 -54.9315Z" fill="#357DE8"/>
</g>
<mask id="mask4_287_72454" style="mask-type:luminance" maskUnits="userSpaceOnUse" x="-11" y="405" width="237" height="222">
<path d="M158.81 405.749H69.3398H-10.6602V626.999H211.06L225.42 405.749H212.5H158.81Z" fill="white"/>
</mask>
<g mask="url(#mask4_287_72454)">
<path d="M-27.8498 530.238C-24.1198 533.318 -20.6598 535.768 -17.6298 537.738C-14.5598 539.678 -11.9298 541.158 -9.77975 542.248C-8.69975 542.778 -7.74976 543.238 -6.92976 543.628C-6.09976 543.978 -5.39976 544.268 -4.83976 544.498C-3.71976 544.948 -3.14976 545.138 -3.10976 545.058C-3.07976 544.988 -3.58976 544.658 -4.63976 544.078C-5.16976 543.798 -5.82975 543.448 -6.61975 543.018C-7.39975 542.578 -8.30976 542.058 -9.35976 541.468C-11.4398 540.278 -13.9898 538.718 -16.9798 536.738C-19.9398 534.708 -23.3198 532.238 -26.9898 529.178C-32.1698 524.808 -37.0698 520.028 -41.5798 514.818C-46.0898 509.618 -50.3898 504.088 -54.1798 498.158C-56.0598 495.188 -57.8498 492.118 -59.3898 488.908C-60.9398 485.708 -62.3598 482.398 -63.3998 478.948C-64.4498 475.508 -65.3198 471.958 -65.6098 468.318C-65.9298 464.688 -65.8198 460.998 -65.1498 457.358C-64.9398 456.458 -64.7298 455.558 -64.5198 454.658C-64.2698 453.768 -63.9298 452.898 -63.6398 452.008C-63.0198 450.248 -62.1998 448.558 -61.2698 446.918C-59.3998 443.648 -56.9798 440.638 -54.1598 437.988C-48.4998 432.668 -41.4498 428.648 -33.8398 425.618C-18.5298 419.618 -1.11975 416.948 17.1602 417.448C27.5302 417.718 36.8902 418.958 45.3702 420.558C53.8502 422.158 61.4602 424.158 68.4202 426.208C82.3402 430.388 93.6803 434.838 104.15 439.178C114.61 443.558 124.21 447.808 134.23 452.788C144.22 457.798 154.7 463.478 166.25 471.558C176 478.368 185.98 486.718 194.94 496.918C199.43 501.998 203.63 507.558 207.34 513.548C211.07 519.528 214.32 525.968 216.79 532.758C219.21 539.558 220.87 546.738 221.21 554.028C221.53 561.298 220.6 568.708 217.79 575.418C217.62 575.838 217.47 576.268 217.27 576.678L216.67 577.898C216.25 578.698 215.9 579.538 215.43 580.308L214.01 582.628C213.56 583.418 212.96 584.098 212.45 584.848C211.43 586.348 210.16 587.648 209 589.018C207.7 590.268 206.48 591.598 205.07 592.718C199.63 597.448 193.23 600.868 186.64 603.338C173.34 608.208 159.22 608.278 146.53 606.108C140.15 605.068 134.07 603.488 128.32 601.698C122.56 599.908 117.13 597.908 112.01 595.888C101.79 591.798 92.8202 587.748 85.3902 584.078C81.7102 582.178 78.3402 580.508 75.4502 578.868C73.9902 578.068 72.6303 577.318 71.3703 576.618C70.1303 575.888 68.9902 575.208 67.9502 574.588L64.2603 572.398L60.6402 570.088C59.4402 569.308 58.2102 568.568 57.0302 567.758L53.4902 565.318C49.2602 562.438 43.4002 558.078 36.5302 552.088C29.6802 546.078 21.8802 538.278 14.5102 528.198C13.6002 526.938 12.6702 525.648 11.7302 524.348C10.8702 522.998 9.99024 521.618 9.11024 520.228C7.30024 517.458 5.60024 514.528 4.11024 511.418C2.61024 508.308 1.33025 505.008 0.480247 501.538C-0.339752 498.068 -0.719752 494.408 -0.229752 490.758C0.200248 487.108 1.59025 483.548 3.69025 480.338C5.80025 477.138 8.63024 474.328 11.8802 472.018C15.1502 469.728 18.8702 467.988 22.8402 466.788C26.8102 465.598 31.0102 464.928 35.2902 464.648C39.5802 464.378 43.9602 464.458 48.3702 464.828C50.5802 464.948 52.7902 465.268 55.0102 465.498C57.2202 465.848 59.4602 466.118 61.6702 466.578C70.5702 468.218 79.4602 470.908 88.1402 474.468C92.4802 476.248 96.7503 478.298 100.96 480.498C105.16 482.738 109.27 485.198 113.31 487.828C117.32 490.488 121.23 493.358 125.05 496.368C128.85 499.408 132.52 502.638 136.1 505.988C150.33 519.478 162.57 535.438 172.51 552.528C174.92 556.818 176.97 561.298 178.18 565.988C179.37 570.658 179.63 575.578 178.6 580.228C177.61 584.868 175.18 589.148 171.53 592.098C167.9 595.068 163.35 596.828 158.71 597.488C152.11 598.448 145.52 596.968 139.62 594.518C133.69 592.038 128.34 588.608 123.35 584.988C113.39 577.708 105.12 569.248 98.3703 560.448C91.6203 551.638 86.3602 542.458 82.4202 533.408C78.5102 524.348 76.2602 515.248 75.3302 506.608C74.4002 497.958 74.7803 489.778 76.0403 482.338C76.4503 480.518 76.7403 478.698 77.3503 476.998C77.6403 476.148 77.8302 475.268 78.2002 474.468C78.5402 473.658 78.8803 472.848 79.2103 472.048C80.7003 468.938 82.3903 466.048 84.4303 463.578C88.3903 458.548 93.0602 454.818 97.5802 451.898C102.11 448.958 106.54 446.828 110.57 445.088C120.11 440.968 129.88 438.218 139.43 435.938C148.99 433.688 158.39 431.958 167.56 430.428C185.91 427.378 203.39 425.058 220.07 422.058C228.41 420.538 236.55 418.858 244.47 416.788C248.42 415.698 252.33 414.598 256.13 413.248C258.05 412.628 259.91 411.848 261.79 411.148C263.63 410.348 265.5 409.618 267.28 408.708C269.1 407.878 270.83 406.888 272.58 405.928C274.27 404.868 275.98 403.858 277.57 402.648C280.77 400.298 283.75 397.618 286.17 394.458C291.03 388.158 293.38 380.108 292.95 372.308C292.94 371.768 292.92 371.248 292.91 370.728C292.85 370.208 292.79 369.708 292.74 369.208C292.62 368.208 292.53 367.248 292.38 366.318C292.2 365.398 292.02 364.518 291.85 363.668C291.68 362.818 291.52 361.998 291.28 361.238C290.83 359.708 290.48 358.278 290.04 357.028C289.59 355.778 289.18 354.658 288.81 353.658C288.06 351.668 287.33 350.248 286.9 349.288C286.44 348.328 286.18 347.868 286.12 347.898C285.97 347.958 286.71 349.948 288.1 353.918C288.42 354.918 288.77 356.048 289.17 357.308C289.57 358.558 289.86 359.978 290.27 361.498C290.49 362.258 290.63 363.058 290.78 363.898C290.93 364.738 291.09 365.608 291.26 366.508C291.39 367.418 291.46 368.358 291.57 369.328C291.62 369.818 291.67 370.308 291.73 370.818C291.73 371.328 291.75 371.838 291.76 372.358C292.12 379.958 289.81 387.618 285.12 393.648C282.78 396.668 279.88 399.248 276.76 401.518C275.22 402.688 273.54 403.668 271.88 404.688C270.16 405.608 268.46 406.578 266.67 407.388C264.91 408.268 263.07 408.978 261.25 409.768C259.39 410.448 257.55 411.208 255.65 411.818C251.88 413.138 248 414.208 244.08 415.278C236.21 417.308 228.11 418.948 219.79 420.438C203.15 423.378 185.68 425.658 167.28 428.678C158.08 430.198 148.65 431.918 139.02 434.178C129.41 436.468 119.55 439.228 109.85 443.418C106.08 445.028 101.87 447.068 97.4402 449.838C93.0302 452.608 88.3602 456.138 84.1702 460.908C82.1602 463.358 80.1402 465.998 78.5802 469.078C77.7102 470.568 77.0802 472.208 76.3802 473.858C76.0102 474.678 75.8102 475.558 75.5202 476.418C75.2602 477.288 74.9302 478.148 74.7702 479.068C73.8802 482.688 73.4303 486.438 73.1003 490.348C72.7903 494.258 72.7302 498.318 72.9902 502.478C73.4802 510.808 75.1302 519.578 78.2402 528.388C79.7802 532.798 81.7402 537.178 83.9502 541.528C86.1602 545.898 88.6902 550.228 91.5202 554.508C97.1802 563.058 104.09 571.378 112.39 578.908C116.54 582.658 121.04 586.208 125.88 589.458C130.71 592.708 135.95 595.688 141.75 597.718C145.53 599.028 149.5 599.868 153.54 600.018C157.58 600.128 161.65 599.498 165.46 598.098C169.25 596.668 172.8 594.428 175.5 591.328C178.22 588.238 179.96 584.398 180.76 580.458C181.65 576.188 181.52 571.748 180.66 567.468C179.79 563.178 178.18 559.068 176.23 555.168C174.27 551.258 171.99 547.528 169.62 543.868C167.28 540.178 164.78 536.568 162.21 532.988C151.89 518.718 139.66 505.528 125.85 494.568C112.03 483.638 96.5802 475.058 80.6602 469.668C72.7202 466.918 64.6602 465.038 56.7102 463.878C48.7602 462.748 40.9002 462.288 33.3202 462.948C25.7602 463.618 18.4502 465.628 12.4102 469.428C6.41025 473.188 1.70025 478.558 -0.629753 484.608C-1.77975 487.638 -2.31976 490.778 -2.35976 493.798C-2.38976 496.828 -1.94975 499.728 -1.26975 502.438C0.110247 507.858 2.36024 512.518 4.60024 516.568C9.29024 524.538 13.5602 530.528 16.7802 534.398C18.3802 536.338 19.5502 537.888 20.4602 538.848C21.3402 539.818 21.8002 540.328 21.8002 540.328C21.8002 540.328 22.4802 541.078 23.7802 542.508C25.0402 543.978 27.1002 545.948 29.7002 548.538C34.9802 553.608 42.9802 560.618 53.7502 567.978C64.4802 575.398 78.0202 583.038 93.5902 590.168C95.5502 591.038 97.5202 591.928 99.5202 592.818C101.54 593.668 103.58 594.528 105.64 595.398C109.77 597.128 114.03 598.788 118.4 600.388C127.14 603.548 136.41 606.338 146.16 607.958C155.88 609.548 166.13 609.978 176.24 608.078C186.29 606.178 196.14 602.088 204.35 595.648C208.44 592.438 212.1 588.628 215.02 584.298C217.95 579.978 220.1 575.138 221.36 570.118C222.64 565.098 223.11 559.918 222.94 554.818C222.75 549.718 221.93 544.688 220.69 539.838C219.44 534.988 217.76 530.308 215.76 525.838C213.74 521.388 211.45 517.128 208.95 513.078C206.47 509.028 203.76 505.188 200.91 501.588C198.06 497.988 195.11 494.568 192.05 491.398C179.82 478.638 166.53 469.338 154.83 462.238C145.98 456.918 137.41 452.468 129.27 448.568C121.13 444.668 113.44 441.288 106.22 438.218C91.7802 432.078 79.1003 427.518 67.9303 424.208C45.5603 417.598 29.4002 415.968 17.2102 415.598C-1.28976 415.098 -18.9398 417.808 -34.5198 423.938C-42.2798 427.048 -49.5198 431.168 -55.3898 436.708C-58.3098 439.478 -60.8398 442.628 -62.7998 446.068C-63.7698 447.788 -64.6298 449.578 -65.2798 451.428C-65.5798 452.358 -65.9298 453.278 -66.1998 454.208C-66.4198 455.158 -66.6398 456.108 -66.8598 457.048C-67.5598 460.868 -67.6598 464.728 -67.3098 468.498C-66.9898 472.278 -66.0798 475.928 -64.9898 479.468C-63.8998 483.008 -62.4398 486.388 -60.8498 489.648C-59.2698 492.918 -57.4298 496.018 -55.5098 499.038C-51.6298 505.048 -47.2798 510.578 -42.6898 515.818C-38.0998 521.058 -33.1198 525.858 -27.8598 530.248L-27.8498 530.238Z" fill="#357DE8"/>
<path d="M108.11 641.578C107.67 639.348 106.83 637.558 106.02 636.108C105.2 634.658 104.37 633.558 103.68 632.698C102.28 630.998 101.43 630.298 101.32 630.388C101.19 630.498 101.81 631.398 102.98 633.198C103.55 634.108 104.27 635.238 104.98 636.658C105.68 638.078 106.41 639.788 106.78 641.808C107.32 644.678 106.72 647.698 104.95 650.028C103.19 652.358 100.51 654.028 97.5896 654.878C94.6796 655.738 91.4596 655.718 88.2996 655.228C85.1196 654.738 81.9196 653.788 78.6796 652.728C72.1796 650.648 65.5396 648.128 58.7996 644.958C52.0896 641.748 45.2696 637.888 38.7096 632.898C34.9896 630.078 31.8096 627.278 29.0596 624.548C26.3496 621.788 24.0396 619.118 22.0796 616.528C18.1496 611.338 15.4896 606.538 13.4096 601.928C11.3496 597.298 9.89959 592.808 8.93959 587.898C8.00959 582.998 7.55959 577.638 8.19959 571.368C8.51959 568.728 9.01959 565.988 9.75959 563.208C10.5296 560.438 11.5196 557.638 12.7496 554.858C15.2596 549.318 18.6796 543.848 23.0196 538.988C31.6096 529.148 43.7296 522.048 55.9396 518.368C62.0396 516.488 68.1596 515.348 73.9696 514.928C79.7696 514.358 85.2496 514.588 90.1696 514.978C100.01 515.928 107.53 518.088 111.66 519.388C112.89 519.748 114.09 520.228 115.3 520.648C116.51 521.098 117.74 521.468 118.92 521.988C119.98 522.428 121.27 522.958 122.77 523.578C124.26 524.208 125.91 525.058 127.77 525.918C129.63 526.798 131.58 527.948 133.74 529.098C134.8 529.708 135.88 530.398 137 531.078C138.13 531.768 139.3 532.468 140.44 533.288C141.6 534.088 142.8 534.908 144.03 535.748C145.21 536.658 146.43 537.588 147.68 538.538C148.95 539.458 150.14 540.558 151.4 541.608C152.03 542.138 152.66 542.678 153.3 543.228C153.91 543.808 154.53 544.388 155.15 544.978C160.19 549.628 165.22 555.138 169.5 561.618C173.75 568.088 177.15 575.708 178.15 584.028C178.42 586.098 178.51 588.208 178.46 590.318C178.41 592.428 178.21 594.548 177.79 596.638C177.38 598.728 176.81 600.798 176.01 602.798C175.21 604.788 174.22 606.708 173.04 608.528C168.32 615.828 160.84 621.288 152.65 624.478C144.41 627.718 135.49 628.848 126.8 628.988C123.72 629.088 120.72 628.848 117.79 628.728C117.06 628.698 116.33 628.658 115.61 628.628C114.89 628.598 114.17 628.568 113.46 628.458C112.04 628.288 110.64 628.118 109.25 627.948C107.87 627.778 106.5 627.618 105.15 627.458C103.82 627.198 102.5 626.948 101.2 626.698C98.6096 626.168 96.0496 625.788 93.6396 625.058C91.2196 624.398 88.8496 623.798 86.5796 623.138C84.3396 622.368 82.1596 621.618 80.0396 620.898C77.8996 620.238 75.9396 619.288 73.9896 618.498C73.0196 618.088 72.0696 617.688 71.1296 617.298C70.1896 616.908 69.2596 616.518 68.3896 616.058C66.6296 615.178 64.9196 614.318 63.2796 613.488C62.4596 613.068 61.6396 612.688 60.8596 612.248C60.0896 611.798 59.3396 611.358 58.5996 610.918C55.6496 609.168 52.8596 607.638 50.4796 605.908C49.2696 605.078 48.0996 604.288 46.9896 603.538C46.4296 603.158 45.8896 602.788 45.3596 602.428C44.8496 602.028 44.3596 601.648 43.8696 601.268C41.9396 599.758 40.1896 598.388 38.6196 597.168C36.7996 595.678 35.1196 594.078 33.4096 592.578C32.5596 591.818 31.7096 591.078 30.8896 590.308C30.1096 589.508 29.3296 588.708 28.5496 587.918C27.0196 586.318 25.4396 584.818 24.0196 583.208C22.6296 581.578 21.2496 579.958 19.8996 578.368C18.4896 576.818 17.3196 575.118 16.0996 573.488C14.9096 571.838 13.6596 570.268 12.5596 568.618C11.4996 566.938 10.4496 565.288 9.40959 563.648C8.88959 562.828 8.37959 562.008 7.86959 561.198C7.41959 560.358 6.96959 559.508 6.51959 558.678C2.84959 552.068 -0.550409 545.438 -1.26041 538.498C-1.62041 535.048 -1.08041 531.608 0.119591 528.428C1.34959 525.248 3.19959 522.338 5.41959 519.748C7.85959 516.898 10.0296 515.048 11.4396 513.798C12.8696 512.548 13.5996 511.928 13.5096 511.808C13.4396 511.708 12.5596 512.108 10.9696 513.198C9.39959 514.298 7.06959 516.058 4.50959 518.958C2.17959 521.598 0.199591 524.598 -1.14041 527.938C-1.81041 529.608 -2.27041 531.368 -2.57041 533.158C-2.83041 534.958 -2.91041 536.798 -2.74041 538.628C-2.43041 542.298 -1.35041 545.868 0.0395906 549.318C0.749591 551.038 1.49959 552.758 2.36959 554.428C3.24959 556.098 4.13959 557.778 5.02959 559.478C5.47959 560.328 5.92959 561.188 6.37959 562.048C6.87959 562.878 7.40959 563.698 7.92959 564.538C8.96959 566.208 10.0296 567.888 11.0996 569.598C12.2096 571.278 13.4696 572.878 14.6696 574.558C15.8996 576.218 17.0796 577.938 18.4996 579.518C19.8696 581.138 21.2596 582.768 22.6596 584.438C24.0996 586.068 25.6996 587.598 27.2396 589.218C28.0196 590.018 28.8096 590.828 29.5996 591.648C30.4296 592.428 31.2896 593.178 32.1496 593.958C33.8896 595.478 35.5796 597.108 37.4296 598.618C43.1796 603.258 52.2896 610.288 65.7696 616.998C66.6096 617.428 67.4596 617.858 68.3196 618.288C69.1896 618.718 70.1096 619.068 71.0196 619.468C72.8496 620.248 74.7296 621.048 76.6696 621.878C78.6196 622.668 80.6796 623.308 82.7596 624.048C83.7996 624.408 84.8596 624.778 85.9296 625.148C87.0096 625.498 88.1196 625.758 89.2396 626.078C98.1196 628.748 108.18 630.458 119.09 630.988C120.87 631.058 122.65 631.188 124.43 631.198C126.21 631.208 127.99 631.158 129.77 631.088C133.33 630.918 136.87 630.578 140.37 629.978C147.9 628.698 155.66 626.188 162.44 621.708C165.82 619.488 168.94 616.808 171.61 613.718C174.26 610.608 176.44 607.078 177.9 603.268C180.85 595.638 180.97 587.318 179.37 579.838C177.79 572.298 174.44 565.578 170.62 559.888C166.78 554.188 162.5 549.428 158.42 545.448C156.35 543.488 154.43 541.608 152.5 540.038C151.55 539.238 150.65 538.438 149.76 537.718C148.85 537.018 147.98 536.348 147.15 535.708C146.32 535.078 145.55 534.448 144.78 533.918C144.01 533.388 143.29 532.888 142.61 532.418C141.26 531.498 140.12 530.668 139.14 530.098C137.2 528.898 136.15 528.258 136.15 528.258C136.15 528.258 135.76 528.018 135.01 527.558C134.24 527.138 133.11 526.518 131.65 525.718C130.92 525.328 130.12 524.858 129.21 524.418C128.3 523.978 127.31 523.508 126.25 522.998C124.15 521.918 121.64 520.978 118.92 519.818C113.39 517.728 106.66 515.598 98.9796 514.238C91.3196 512.868 82.7196 512.288 73.8096 513.088C64.8996 513.798 55.7096 516.008 47.1096 519.738C38.4996 523.428 30.5596 528.768 24.1896 535.248C17.8396 541.738 13.0896 549.268 10.1696 556.758C8.69959 560.498 7.67959 564.228 7.05959 567.798C6.75959 569.588 6.51959 571.328 6.41959 573.028C6.36959 573.878 6.25959 574.708 6.26959 575.518C6.26959 576.338 6.25959 577.138 6.24959 577.918C6.30959 582.638 6.94959 587.028 7.88959 591.038C8.80959 595.058 10.1196 598.688 11.5196 601.988C12.8896 605.308 14.5196 608.208 16.0496 610.898C17.6696 613.528 19.2696 615.908 20.8896 618.008C24.1096 622.228 27.2196 625.478 30.0196 628.108C32.8496 630.698 35.3096 632.778 37.5396 634.418C44.2296 639.498 51.1696 643.408 57.9796 646.638C64.8096 649.838 71.5396 652.348 78.1196 654.408C81.3996 655.448 84.6696 656.408 88.0196 656.898C91.3596 657.378 94.7896 657.388 98.0096 656.408C101.2 655.448 104.12 653.598 106.1 650.928C107.07 649.588 107.77 648.048 108.09 646.438C108.42 644.828 108.39 643.168 108.09 641.598L108.11 641.578Z" fill="#357DE8"/>
</g>
</g>
</g>
<defs>
<clipPath id="clip0_287_72454">
<rect width="960.04" height="540.02" fill="white"/>
</clipPath>
</defs>
</svg>
