<svg width="961" height="541" viewBox="0 0 961 541" fill="none" xmlns="http://www.w3.org/2000/svg">
<g clip-path="url(#clip0_287_72515)">
<mask id="mask0_287_72515" style="mask-type:luminance" maskUnits="userSpaceOnUse" x="-1" y="-1" width="961" height="541">
<path d="M959.959 -0.241211H-0.0410156V539.759H959.959V-0.241211Z" fill="white"/>
</mask>
<g mask="url(#mask0_287_72515)">
<path d="M959.959 -0.241211H-0.0410156V539.759H959.959V-0.241211Z" fill="#94C748"/>
<path d="M167.149 104.839H138.759H101.369H39.0588H-23.9512V292.849H329.859V104.839H268.239H203.499H167.149Z" fill="#6A9A23"/>
<path d="M250.449 403.469H209.679H155.989H66.5188H-23.9512V629.819H484.079V403.469H395.589H302.639H250.449Z" fill="#6A9A23"/>
<path d="M222.599 403.469H209.679H155.989H66.5188H-23.9512V629.819H207.909L222.599 403.469Z" fill="#B3DF72"/>
<path d="M597.848 150.699V133.329V110.459V72.3486V33.8086H482.848V644.669H597.848V212.519V172.929V150.699Z" fill="#B3DF72"/>
<path d="M251.818 38.9388C236.878 -12.5712 197.058 -44.4312 143.138 -53.2212C133.028 -54.8712 122.438 -55.7112 111.408 -55.7212C99.9082 -55.7212 88.8782 -54.8112 78.3682 -53.0612C19.1082 -43.1812 -23.0618 -5.8112 -34.0218 54.6488C-35.8718 64.8688 -36.8418 75.7388 -36.8418 87.2488C-36.8418 93.2988 -36.5718 99.1688 -36.0418 104.859H222.668L251.818 38.9488V38.9388Z" fill="#B3DF72"/>
<path d="M987.329 240.049H853.509L735.299 -52.6611H857.859L987.329 240.049Z" fill="#B3DF72"/>
<path d="M1017.72 697.999H559.708L529.979 239.989H1047.44L1017.72 697.999Z" fill="#6A9A23"/>
<path d="M597.849 239.989H529.979L556.239 644.669H597.849V239.989Z" fill="#94C748"/>
<path d="M1084.82 538.339C1087.75 521.939 1089.28 504.509 1089.29 486.069C1089.29 467.369 1087.75 449.699 1084.77 433.099C1067.04 334.289 998.429 273.369 902.179 257.689C885.759 255.009 868.539 253.639 850.629 253.629C831.939 253.629 814.019 255.099 796.939 257.949C700.619 273.999 632.099 334.719 614.289 432.969C611.279 449.569 609.709 467.239 609.709 485.939C609.709 504.379 611.229 521.809 614.179 538.209C631.799 636.339 700.359 697.219 796.819 713.329C813.889 716.179 831.809 717.669 850.499 717.679C868.419 717.679 885.629 716.319 902.059 713.649C998.469 697.999 1067.19 637.009 1084.83 538.339H1084.82Z" fill="#94C748"/>
<path d="M801.357 162.129C802.617 155.109 803.267 147.649 803.267 139.749C803.267 131.739 802.607 124.179 801.327 117.069C793.737 74.7587 764.347 48.6788 723.117 41.9588C716.087 40.8088 708.707 40.2188 701.037 40.2188C693.367 40.2188 685.357 40.8488 678.047 42.0688C636.797 48.9388 607.447 74.9388 599.817 117.009C598.527 124.119 597.857 131.679 597.857 139.689C597.857 147.589 598.507 155.049 599.767 162.069C607.317 204.089 636.677 230.149 677.997 237.049C685.307 238.269 692.987 238.909 700.987 238.909C708.657 238.909 716.037 238.329 723.067 237.189C764.357 230.489 793.787 204.379 801.347 162.129H801.357Z" fill="#6A9A23"/>
<path d="M277.178 -18.3813L90.5879 403.469H331.388L501.748 -18.3813H277.178Z" fill="#6A9A23"/>
<path d="M329.858 292.849V104.839H268.238H222.678L139.518 292.849H329.858Z" fill="#94C748"/>
<path d="M257.498 104.849C258.018 99.1787 258.288 93.3387 258.288 87.3187C258.288 75.8087 257.338 64.9387 255.508 54.7187C254.528 49.2687 253.298 44.0087 251.828 38.9287L222.678 104.839H257.498V104.849Z" fill="#94C748"/>
<mask id="mask1_287_72515" style="mask-type:luminance" maskUnits="userSpaceOnUse" x="-14" y="-19" width="267" height="124">
<path d="M-13.0215 2.49881V104.859H223.129L252.279 38.9488C247.979 24.1188 237.539 0.198809 221.519 -15.5612L3.70852 -18.7212C2.98852 -17.7112 -12.3315 1.45881 -13.0215 2.49881Z" fill="white"/>
</mask>
<g mask="url(#mask1_287_72515)">
<path d="M27.4584 -4.51138C26.0484 -8.29138 24.9984 -7.91138 26.1784 -4.08138C27.8284 1.36862 29.5784 7.07862 31.5584 14.4886C32.6984 18.6786 33.3684 21.3086 33.9384 23.6086C34.4984 25.9086 34.9684 27.8686 35.4684 30.7686C36.3684 35.6586 37.1784 42.3086 37.4484 48.2286C37.7284 54.1586 37.4984 59.3386 37.3784 61.3486L37.2784 63.1286C37.1984 65.2586 36.8884 71.0086 35.5384 78.0986C34.1884 85.1686 31.6784 93.5886 27.9684 100.699C25.3984 105.749 22.7484 109.499 20.4384 112.269C18.1284 115.039 16.1984 116.869 14.8184 118.039C11.5784 120.849 8.39839 122.869 5.28839 124.339C2.16839 125.809 -0.871609 126.789 -3.97161 127.369C-5.67161 127.679 -6.52161 127.999 -6.50161 128.279C-6.48161 128.539 -5.57161 128.769 -3.78161 128.559C-0.541609 128.179 2.68839 127.319 5.99839 125.879C9.30839 124.439 12.6784 122.369 16.0484 119.449C17.3784 118.339 19.3584 116.529 21.6884 113.899C24.0084 111.259 26.6384 107.759 29.0784 103.289L30.2184 101.079C30.5584 100.329 30.8984 99.5786 31.2384 98.8286C34.0184 92.2986 36.2784 84.4986 37.4184 78.2686C37.7184 76.7086 37.9784 75.2686 38.1584 73.9586C38.3684 72.6586 38.5184 71.4986 38.6284 70.5386C38.8784 68.6186 38.9684 67.4786 38.9684 67.4786C38.9684 67.4786 39.0084 67.0586 39.0784 66.2886C39.1584 65.5286 39.2184 64.4186 39.2984 63.0486C39.4584 60.3186 39.5584 56.5486 39.4184 52.4286C39.2984 48.3086 38.9484 43.8386 38.4484 39.6986C37.9484 35.5586 37.3184 31.7586 36.7884 28.9386C35.1384 20.4586 33.9984 16.4586 33.3684 13.9886C31.3584 6.52861 29.4284 0.828616 27.4584 -4.53138V-4.51138Z" fill="#82B536"/>
<path d="M167.508 111.239C174.208 116.309 174.838 115.389 168.348 110.189C163.788 106.449 159.308 102.369 154.658 97.7389C150.008 93.1089 145.198 87.8989 140.128 81.7589C134.378 74.7989 131.078 70.2089 128.238 66.2089C125.398 62.1989 123.068 58.7089 119.918 53.4589C117.248 49.0289 114.188 43.7689 111.848 37.9689C110.678 35.0689 109.718 32.0189 109.128 28.9289C108.528 25.8389 108.328 22.6989 108.548 19.6989C108.948 13.6689 111.238 8.26891 114.278 4.85891C115.768 3.12891 117.378 1.83891 118.798 0.868906C120.258 -0.0610935 121.498 -0.731094 122.428 -1.12109C122.968 -1.37109 123.518 -1.61109 124.088 -1.81109C124.648 -2.03109 125.208 -2.24109 125.788 -2.41109C126.808 -2.76109 128.298 -3.13109 130.188 -3.48109C132.088 -3.78109 134.408 -3.98109 137.048 -3.85109C142.328 -3.61109 148.878 -1.85109 155.478 1.60891C162.108 5.02891 168.858 9.94891 175.288 15.4889C176.108 16.1689 176.888 16.8889 177.678 17.6189C178.458 18.3489 179.258 19.0589 180.028 19.7989C181.548 21.3189 183.108 22.7989 184.548 24.3789C187.518 27.4789 190.258 30.7689 192.848 34.0589C196.508 38.7189 199.498 43.1689 202.008 47.2889C202.648 48.3089 203.248 49.3189 203.808 50.3089C204.368 51.2989 204.918 52.2589 205.448 53.1989C206.438 55.1089 207.428 56.8689 208.238 58.5889C211.578 65.3989 213.568 70.6189 214.808 74.2389C217.768 82.7689 219.388 90.5289 220.158 97.7589C220.838 104.989 220.688 111.719 219.508 118.229C219.228 120.029 218.928 121.359 218.828 122.269C218.708 123.179 218.728 123.659 218.858 123.699C218.988 123.739 219.228 123.329 219.558 122.459C219.878 121.589 220.348 120.279 220.688 118.459C222.098 111.869 222.418 104.999 221.838 97.6089C221.178 90.2289 219.578 82.2989 216.578 73.6289C215.428 70.2589 213.548 65.0889 210.458 58.5589C208.948 55.2789 207.028 51.7089 204.838 47.8389C202.568 44.0089 199.938 39.9089 196.848 35.6689C195.808 34.3089 194.788 32.9389 193.718 31.6089C192.618 30.2989 191.568 28.9689 190.428 27.7089C185.588 22.2189 179.958 16.7189 174.018 11.8489C168.048 7.03891 161.898 2.71891 155.988 -0.271094C150.118 -3.32109 144.528 -4.90109 140.508 -5.47109C138.498 -5.79109 136.858 -5.84109 135.748 -5.87109C134.638 -5.86109 134.028 -5.85109 134.028 -5.85109C134.028 -5.85109 133.128 -5.82109 131.508 -5.67109C129.898 -5.49109 127.568 -5.12109 124.798 -4.23109C122.048 -3.35109 118.868 -1.84109 115.868 0.578907C112.878 2.99891 110.228 6.47891 108.668 10.5889C107.068 14.6889 106.458 19.3089 106.708 23.8589C106.948 28.4289 108.108 32.8789 109.638 36.9689C111.168 41.0589 113.078 44.7989 114.928 48.1489C116.788 51.4989 118.608 54.4689 120.158 57.0089C129.698 72.2089 135.358 78.7989 138.658 82.9389C143.778 89.1289 148.668 94.3489 153.418 98.9689C158.178 103.569 162.778 107.589 167.478 111.229L167.508 111.239Z" fill="#82B536"/>
<path d="M107.408 124.789C109.388 126.469 110.948 127.629 112.028 128.339C113.108 129.059 113.708 129.349 113.798 129.229C113.898 129.109 113.488 128.579 112.568 127.669C111.638 126.769 110.208 125.469 108.278 123.759C102.798 118.939 97.478 113.669 92.148 107.559C90.788 106.059 89.518 104.429 88.158 102.809C86.868 101.139 85.498 99.4587 84.218 97.6587C81.588 94.1087 79.018 90.2387 76.538 85.9987C73.728 81.1987 71.688 77.1587 70.128 73.6087C68.508 70.0787 67.378 67.0287 66.428 64.1687C65.948 62.7387 65.508 61.3487 65.138 59.9487C64.718 58.5587 64.408 57.1487 64.068 55.6987C63.438 52.7887 62.868 49.6587 62.578 45.9087C62.398 44.3287 62.398 42.6687 62.328 40.9587C62.368 39.2487 62.338 37.4787 62.518 35.6787C62.788 32.0787 63.378 28.3087 64.488 24.6187C65.568 20.9187 67.118 17.2887 69.068 13.8987C69.548 13.0487 70.128 12.2587 70.648 11.4387L71.448 10.2187L72.338 9.07872C72.938 8.32872 73.518 7.54872 74.128 6.81872C74.778 6.11872 75.418 5.41872 76.058 4.72872C76.678 4.01872 77.378 3.39872 78.058 2.76872C78.748 2.14872 79.388 1.48872 80.098 0.92872C81.528 -0.18128 82.868 -1.35128 84.328 -2.28128C85.038 -2.76128 85.738 -3.24128 86.428 -3.71128C87.148 -4.13128 87.848 -4.55128 88.538 -4.96128C89.898 -5.81128 91.298 -6.46128 92.588 -7.13128C97.838 -9.69128 102.268 -11.0113 104.728 -11.7113C106.188 -12.1413 107.678 -12.4313 109.158 -12.8213C111.818 -13.3613 116.768 -14.4013 123.438 -14.5613C124.268 -14.5813 125.128 -14.5913 126.018 -14.6113C126.898 -14.5913 127.808 -14.5713 128.738 -14.5413C130.598 -14.5313 132.548 -14.3313 134.578 -14.1913C138.628 -13.7913 142.988 -13.1413 147.538 -12.1913C165.768 -8.40128 186.568 0.728722 205.158 10.0487C218.278 16.6987 228.458 22.9087 236.258 28.1487C244.098 33.3587 249.498 37.6987 253.198 40.6587C261.878 47.7487 268.878 54.6187 274.918 61.3487C281.008 68.0287 285.858 74.7987 290.338 81.6787C295.048 89.3787 295.918 88.9487 291.358 81.0487C287.018 73.9987 282.258 67.0587 276.188 60.2287C270.178 53.3587 263.138 46.3687 254.388 39.2087C252.658 37.8587 250.528 36.0487 247.858 34.0187C245.148 32.0387 242.068 29.6087 238.368 27.1387C231.058 22.0587 221.688 16.1787 210.248 10.1787C208.378 9.21872 206.498 8.26872 204.628 7.30872C202.758 6.34872 200.848 5.49872 198.968 4.59872C190.808 0.808721 181.968 -3.11128 173.118 -6.44128C168.698 -8.10128 164.278 -9.64128 159.968 -10.9413C155.648 -12.2313 151.448 -13.3113 147.468 -14.1513C139.508 -15.8013 132.508 -16.4213 127.538 -16.5113C126.298 -16.5713 125.178 -16.5313 124.208 -16.5113C123.228 -16.4913 122.398 -16.5013 121.718 -16.4613C120.358 -16.3713 119.628 -16.3213 119.628 -16.3213C119.628 -16.3213 119.358 -16.3013 118.828 -16.2713C118.308 -16.2413 117.538 -16.1913 116.558 -16.0513C115.578 -15.9213 114.368 -15.8013 112.988 -15.5813C111.608 -15.3113 110.028 -15.0913 108.308 -14.6713C104.858 -13.9113 100.838 -12.7013 96.518 -10.9913C92.218 -9.24128 87.668 -6.86128 83.308 -3.79128C78.948 -0.721279 74.788 3.07872 71.358 7.51872C67.928 11.9387 65.248 16.9787 63.538 22.1087C61.808 27.2487 60.998 32.4387 60.778 37.1987C60.558 41.9687 60.908 46.3287 61.408 49.9987C62.168 55.5387 63.388 60.2587 64.668 64.2987C65.968 68.3387 67.278 71.7387 68.588 74.5987C71.158 80.3387 73.248 84.1287 74.928 86.9587C77.438 91.2587 80.058 95.1787 82.748 98.7587C84.058 100.579 85.448 102.269 86.768 103.949C88.158 105.569 89.458 107.209 90.848 108.719C96.308 114.839 101.778 120.059 107.398 124.799L107.408 124.789Z" fill="#82B536"/>
<path d="M267.278 74.1385C271.398 71.4085 270.718 70.5185 266.558 72.9985C265.078 73.8685 263.618 74.8285 261.988 75.5585C260.378 76.3185 258.768 77.2085 257.018 77.9585C255.238 78.6385 253.408 79.3985 251.458 80.1285C250.458 80.4185 249.438 80.7185 248.388 81.0285C247.868 81.1885 247.338 81.3385 246.798 81.4985C246.258 81.6585 245.718 81.8285 245.148 81.9185C243.868 82.1785 242.708 82.4185 241.648 82.6385C241.118 82.7485 240.608 82.8585 240.128 82.9585C239.638 83.0185 239.168 83.0785 238.708 83.1285C236.898 83.3285 235.378 83.5685 233.958 83.6785C232.528 83.7185 231.218 83.7585 229.808 83.8085C229.458 83.8085 229.098 83.8285 228.728 83.8385C228.358 83.8085 227.988 83.7885 227.608 83.7585C226.838 83.6985 226.018 83.6385 225.138 83.5685C224.388 83.4985 223.608 83.4785 222.808 83.3585C222.008 83.2285 221.178 83.0885 220.338 82.9485C219.488 82.8085 218.628 82.6685 217.748 82.5185C216.878 82.2985 215.998 82.0885 215.108 81.8585C214.218 81.6385 213.318 81.4085 212.418 81.1885L209.758 80.3185C208.878 80.0285 207.998 79.7285 207.118 79.4385C206.268 79.0885 205.418 78.7485 204.588 78.4085C203.758 78.0685 202.938 77.7285 202.138 77.4085C201.358 77.0285 200.598 76.6685 199.858 76.3085C198.388 75.5885 196.988 74.9485 195.788 74.2385C194.578 73.5585 193.488 72.9585 192.578 72.4485C191.678 71.9185 190.968 71.4485 190.448 71.1285L188.598 69.9985C188.038 69.6785 187.258 69.1785 186.298 68.5385C185.338 67.8885 184.168 67.1485 182.858 66.2385C181.578 65.2985 180.138 64.2485 178.578 63.1085C177.078 61.8885 175.398 60.6485 173.728 59.2085C170.348 56.3885 166.788 53.0685 163.268 49.5385C159.778 45.9685 156.378 42.1485 153.288 38.3285C148.918 32.9385 145.678 28.3285 143.488 24.5285C142.918 23.5885 142.468 22.6785 142.078 21.8485C141.918 21.4285 141.728 21.0685 141.608 20.6385C141.478 20.2185 141.348 19.8085 141.228 19.4185C140.758 17.8585 140.438 16.5285 140.208 15.4485C139.658 12.8885 139.328 10.4585 139.158 8.14852C139.008 5.82852 139.018 3.63852 139.148 1.52852C139.468 -2.67148 140.258 -6.49148 141.608 -10.0915C142.338 -12.0615 142.628 -13.1115 142.368 -13.2515C142.248 -13.3115 142.008 -13.1315 141.678 -12.6915C141.358 -12.2515 140.898 -11.5515 140.488 -10.5415C138.888 -6.91148 137.908 -2.96148 137.458 1.38852C137.268 3.56852 137.218 5.84852 137.338 8.25852C137.488 10.6685 137.818 13.1885 138.378 15.8385C138.588 16.8685 138.898 18.1685 139.318 19.7285C139.568 20.5085 139.728 21.3185 140.128 22.2585C140.298 22.7385 140.518 23.1785 140.738 23.6385C140.968 24.0985 141.188 24.5785 141.458 25.0385C143.518 28.7885 146.418 33.1885 150.218 38.0185C151.468 39.5785 152.728 41.1385 154.068 42.5985C159.708 49.0385 166.798 55.8685 172.688 60.8085C175.638 63.2685 178.248 65.3085 180.158 66.6785C182.028 68.0985 183.198 68.8585 183.198 68.8585C183.198 68.8585 183.628 69.1485 184.398 69.6685C185.188 70.1685 186.268 70.9885 187.708 71.8185C188.418 72.2485 189.198 72.7185 190.038 73.2285C190.458 73.4785 190.888 73.7385 191.328 74.0085C191.788 74.2585 192.258 74.5085 192.738 74.7685C193.708 75.2885 194.718 75.8285 195.758 76.3985C196.808 76.9585 197.938 77.4385 199.078 77.9885C201.328 79.1185 203.808 79.9985 206.248 80.9885C207.488 81.4285 208.758 81.8085 209.998 82.2085C210.618 82.4085 211.238 82.6085 211.858 82.7985C212.488 82.9485 213.108 83.1085 213.728 83.2585C214.968 83.5585 216.188 83.8485 217.368 84.1385C218.568 84.3285 219.728 84.5185 220.848 84.6985C223.068 85.1285 225.138 85.1785 226.888 85.3385C227.548 85.3885 228.188 85.4485 228.808 85.4685C229.428 85.4685 230.028 85.4585 230.608 85.4485C231.768 85.4385 232.848 85.4185 233.858 85.4085C235.868 85.3085 237.588 85.0585 239.078 84.9285C240.578 84.8285 241.798 84.4785 242.868 84.2985C243.928 84.0885 244.818 83.9085 245.588 83.7585C246.178 83.6585 246.738 83.4885 247.288 83.3185C247.838 83.1485 248.388 82.9885 248.928 82.8285C250.008 82.4985 251.048 82.1785 252.068 81.8685C254.058 81.0985 255.928 80.2985 257.728 79.5485C259.508 78.7385 261.118 77.7885 262.738 76.9485C264.378 76.1485 265.818 75.0985 267.278 74.1485V74.1385Z" fill="#82B536"/>
</g>
<mask id="mask2_287_72515" style="mask-type:luminance" maskUnits="userSpaceOnUse" x="482" y="33" width="116" height="592">
<path d="M482.869 624.719H554.959L529.999 239.979H597.859V212.519V172.929V150.689V133.329V110.459V72.3386V33.8086H482.869V624.719Z" fill="white"/>
</mask>
<g mask="url(#mask2_287_72515)">
<path d="M484.549 103.429C479.959 103.789 477.709 104.419 477.749 104.709C477.789 105.029 480.089 105.009 484.639 104.769C491.089 104.459 497.739 104.549 504.869 105.289C511.979 106.099 519.599 107.649 527.729 110.709C532.339 112.419 535.949 114.169 538.979 115.789C540.509 116.569 541.849 117.409 543.139 118.139C544.379 118.939 545.589 119.629 546.679 120.409C547.789 121.159 548.859 121.889 549.869 122.669C550.379 123.059 550.909 123.429 551.409 123.829C551.899 124.249 552.389 124.669 552.889 125.089C553.379 125.519 553.909 125.939 554.399 126.409C554.869 126.899 555.359 127.399 555.859 127.919C556.899 128.909 557.799 130.149 558.829 131.439C562.259 135.869 564.909 142.019 566.329 148.709C567.649 155.439 567.779 162.649 567.189 169.359C565.959 182.819 562.589 194.289 561.389 198.719C561.019 200.029 560.649 201.339 560.269 202.659C559.589 205.009 558.349 209.349 556.479 215.029C554.629 220.719 552.199 227.749 549.369 235.549C543.749 251.169 536.429 269.829 530.929 287.589C527.089 300.139 524.779 310.589 523.949 319.029C523.009 327.449 523.649 333.789 524.469 338.019C525.449 343.029 527.279 347.599 529.879 351.379C532.469 355.169 535.769 358.119 539.239 360.329C539.669 360.609 540.109 360.889 540.539 361.159C540.969 361.429 541.439 361.639 541.879 361.879C542.779 362.329 543.649 362.829 544.559 363.219C546.389 363.959 548.179 364.739 550.019 365.249C553.659 366.449 557.329 367.119 560.979 367.689C565.009 368.199 567.049 368.109 567.069 367.859C567.099 367.569 565.119 367.119 561.169 366.509C557.589 365.839 553.999 365.089 550.489 363.839C548.699 363.299 546.989 362.509 545.229 361.759C544.359 361.369 543.529 360.869 542.669 360.429C542.249 360.189 541.799 359.989 541.389 359.719C540.979 359.449 540.569 359.179 540.159 358.899C536.869 356.739 533.789 353.929 531.379 350.339C528.959 346.759 527.229 342.449 526.299 337.639C525.549 333.919 525.029 327.989 525.839 320.239C526.629 312.489 528.629 302.979 531.859 292.079C532.899 288.519 533.999 284.979 535.089 281.469C539.879 266.329 546.409 249.229 551.279 235.759C556.209 222.309 559.359 212.439 559.359 212.439C559.359 212.439 559.649 211.519 560.169 209.859C560.699 208.199 561.429 205.789 562.289 202.809C564.009 196.849 566.229 188.569 567.729 179.289C568.469 174.649 569.039 169.769 569.209 164.839C569.349 159.909 569.089 154.939 568.269 150.219C567.459 145.499 566.049 141.049 564.209 137.199C562.379 133.339 560.019 130.199 557.869 127.669C556.999 126.769 556.169 125.889 555.359 125.049C554.479 124.279 553.619 123.539 552.799 122.819C551.119 121.439 549.499 120.239 547.939 119.169C544.839 117.019 542.069 115.349 539.609 114.039C534.689 111.389 531.099 109.969 528.379 108.909C520.079 105.789 512.279 104.249 505.039 103.519C497.779 102.849 491.059 102.889 484.549 103.369V103.429Z" fill="#82B536"/>
<path d="M482.509 67.7689C476.039 71.5089 476.619 72.4589 483.149 68.9589C487.809 66.5189 492.669 64.1789 498.029 61.8389C503.389 59.5089 509.259 57.2089 516.019 55.0689C519.839 53.8489 522.989 52.9789 525.699 52.2889C527.059 51.9589 528.309 51.6489 529.479 51.3589C530.659 51.1089 531.769 50.8689 532.839 50.6389C534.969 50.1789 536.969 49.8689 539.099 49.4989C541.239 49.2289 543.499 48.8589 546.219 48.6789C550.789 48.2889 556.199 47.9689 561.759 48.4389C567.299 48.8889 573.029 50.1989 577.689 52.8489C580.019 54.1589 582.039 55.8089 583.659 57.5989C585.279 59.3889 586.519 61.3189 587.439 63.1589C588.369 64.9889 588.989 66.7389 589.399 68.2289C589.829 69.7189 590.059 70.9689 590.199 71.8689C590.369 72.9289 590.499 73.9989 590.579 75.0789C590.669 76.0389 590.709 77.4089 590.669 79.1289C590.589 80.8389 590.379 82.9189 589.919 85.2489C589.019 89.9089 586.999 95.5589 583.809 101.409C577.479 113.179 567.089 125.849 555.629 135.429C547.589 142.269 540.359 146.899 534.529 150.299C528.669 153.669 524.179 155.809 521.069 157.229C513.729 160.559 507.089 162.969 500.889 164.939C494.679 166.909 488.889 168.409 483.089 169.689C476.719 171.029 476.859 171.989 483.329 170.869C489.199 169.789 495.079 168.429 501.379 166.549C507.679 164.679 514.409 162.289 521.839 158.929C524.719 157.609 529.169 155.579 534.799 152.469C540.409 149.339 547.189 145.069 554.489 139.219L557.989 136.279C559.109 135.249 560.229 134.229 561.349 133.209C566.079 128.719 570.819 123.539 574.999 118.139C577.089 115.439 579.069 112.699 580.839 109.969C582.629 107.259 584.259 104.579 585.639 101.979C588.429 96.8089 590.229 92.0289 591.139 88.5289C591.619 86.7889 591.889 85.3689 592.069 84.3989C592.219 83.4189 592.309 82.8989 592.309 82.8989C592.309 82.8989 592.419 82.1089 592.549 80.6689C592.669 79.2289 592.749 77.1389 592.549 74.5689C592.339 72.0089 591.819 68.9589 590.649 65.7689C590.069 64.1689 589.339 62.5389 588.399 60.9389C587.459 59.3489 586.359 57.7589 585.009 56.3389C583.669 54.9089 582.149 53.5889 580.469 52.4589C578.779 51.3489 576.959 50.3989 575.079 49.6189C571.289 48.1089 567.279 47.2889 563.409 46.8889C559.539 46.5089 555.789 46.4689 552.379 46.6389C548.959 46.7589 545.859 47.0489 543.209 47.3089C535.249 48.2289 529.429 49.4589 525.049 50.5589C522.849 51.0789 521.019 51.6289 519.439 52.0489C517.869 52.5289 516.559 52.9189 515.429 53.2689C508.599 55.4289 502.679 57.8089 497.299 60.2389C491.929 62.6789 487.089 65.1589 482.479 67.7589L482.509 67.7689Z" fill="#82B536"/>
<path d="M619.63 128.599C622.87 124.469 621.99 123.789 618.6 127.729C613.72 133.269 608.42 138.929 601.22 145.829C597.16 149.759 594.57 152.159 592.31 154.249C590.04 156.329 588.09 158.079 585.15 160.539C580.19 164.699 573.33 170.079 567.1 174.689C560.89 179.329 555.33 183.209 553.16 184.689L551.25 186.029C548.97 187.629 542.85 191.989 534.8 196.909C526.76 201.839 516.71 207.209 506.97 211.119C500.11 213.919 494.39 215.759 489.82 217.019C485.25 218.269 481.84 219.029 479.49 219.469C468.39 221.619 459.92 222.109 451.62 221.979C447.07 221.819 446.96 222.789 451.56 223.179C459.93 223.739 468.59 223.479 479.84 221.309C484.19 220.449 493.4 218.779 505.64 214.019C507.62 213.219 509.6 212.419 511.51 211.509C515.66 209.599 520.05 207.409 524.26 205.149C528.47 202.869 532.5 200.519 535.99 198.399C539.49 196.279 542.45 194.359 544.54 192.989C546.62 191.609 547.85 190.789 547.85 190.789C547.85 190.789 548.31 190.479 549.13 189.929C549.95 189.369 551.13 188.549 552.58 187.549C555.47 185.519 559.43 182.679 563.7 179.489C572.25 173.119 582.05 165.329 587.71 160.499C596.24 153.239 600.12 149.479 602.51 147.189C609.74 140.229 614.97 134.389 619.62 128.599H619.63Z" fill="#82B536"/>
<path d="M510.749 24.7587C508.849 23.3187 507.689 22.9087 507.529 23.1487C507.339 23.4187 508.129 24.3187 509.909 25.8087C512.409 27.9387 514.799 30.3187 517.119 33.1387C519.439 35.9587 521.709 39.1887 523.809 43.0887C526.199 47.4987 527.349 50.4387 528.309 52.9987C529.229 55.5787 529.899 57.8187 530.569 61.1687C531.139 63.9987 531.529 67.3687 531.669 70.8887C531.809 74.4087 531.659 78.0787 531.279 81.5087C530.539 88.3787 528.839 94.2087 528.139 96.4387L527.509 98.4187C527.159 99.6087 526.419 101.779 525.309 104.609C524.699 105.999 524.009 107.559 523.259 109.249C522.489 110.929 521.499 112.669 520.539 114.549C516.509 121.959 510.209 130.059 503.409 136.559C502.259 137.759 501.029 138.759 499.919 139.779C498.799 140.789 497.729 141.739 496.649 142.559C495.589 143.399 494.589 144.199 493.639 144.949C492.669 145.669 491.739 146.309 490.869 146.939C489.999 147.549 489.199 148.149 488.429 148.659C487.649 149.159 486.919 149.619 486.259 150.039C484.919 150.879 483.829 151.629 482.869 152.129C474.079 157.209 467.039 160.179 460.009 162.689C456.139 164.039 456.379 164.979 460.379 163.839C467.619 161.709 474.869 158.909 483.819 153.749C487.229 151.679 494.629 147.589 503.409 139.609C504.829 138.299 506.149 136.899 507.489 135.529C508.899 134.019 510.249 132.359 511.689 130.739C513.029 129.039 514.379 127.319 515.689 125.599C516.899 123.809 518.179 122.089 519.269 120.349C520.319 118.579 521.409 116.919 522.289 115.289C523.149 113.649 523.959 112.129 524.679 110.759C525.309 109.349 525.869 108.109 526.339 107.079C526.809 106.049 527.179 105.229 527.389 104.649C527.619 104.079 527.739 103.759 527.739 103.759C527.739 103.759 528.489 101.909 529.469 98.8487C530.449 95.7987 531.599 91.5187 532.379 86.7487C533.189 81.9787 533.509 76.6987 533.369 71.7987C533.199 66.8987 532.509 62.3987 531.769 59.0987C530.659 54.1287 529.319 50.5787 528.199 47.9287C527.089 45.2787 526.149 43.5287 525.439 42.1987C523.259 38.1887 520.879 34.8687 518.419 32.0287C515.959 29.1787 513.409 26.8187 510.729 24.7587H510.749Z" fill="#82B536"/>
<path d="M580.459 406.129C583.339 403.549 582.599 402.719 579.599 405.089C575.319 408.419 570.749 411.839 564.589 415.769C562.859 416.909 561.399 417.739 560.179 418.529C558.929 419.259 557.889 419.869 556.919 420.439C555.959 421.029 555.019 421.489 554.039 422.009C553.049 422.519 552.009 423.069 550.709 423.619C546.409 425.619 540.389 427.789 534.889 429.069C533.509 429.359 532.179 429.679 530.909 429.919C529.639 430.119 528.449 430.309 527.369 430.489C525.209 430.759 523.499 430.899 522.549 430.999C521.979 431.019 521.419 431.059 520.849 431.099C520.339 431.139 519.629 431.189 518.719 431.249C517.819 431.329 516.729 431.279 515.489 431.309C514.869 431.309 514.209 431.309 513.519 431.319C512.829 431.319 512.109 431.239 511.349 431.209C509.839 431.119 508.209 431.049 506.509 430.789C499.679 430.009 491.559 427.939 484.469 424.949C474.449 420.719 468.819 416.909 465.879 415.009C458.969 410.389 454.129 406.459 449.499 402.469C446.969 400.269 446.279 400.949 448.679 403.349C453.059 407.689 457.829 411.869 464.839 416.569C467.569 418.359 473.159 422.409 482.059 426.299C482.779 426.609 483.499 426.939 484.239 427.219C484.979 427.479 485.719 427.739 486.459 428.009C492.839 430.249 500.419 432.039 506.459 432.699C507.959 432.929 509.369 433.009 510.629 433.079C511.889 433.139 512.999 433.289 513.929 433.259C515.789 433.259 516.879 433.269 516.879 433.269C516.879 433.269 517.289 433.269 518.029 433.269C518.769 433.249 519.829 433.169 521.139 433.089C523.759 432.949 527.349 432.469 531.239 431.729C535.099 430.889 539.289 429.839 543.039 428.449C543.509 428.289 543.979 428.129 544.439 427.969C544.899 427.789 545.339 427.609 545.789 427.439C546.679 427.089 547.529 426.749 548.359 426.429C549.979 425.739 551.449 425.059 552.709 424.499C560.169 420.879 563.489 418.639 565.579 417.369C571.819 413.369 576.339 409.769 580.449 406.149L580.459 406.129Z" fill="#82B536"/>
<path d="M547.038 525.009C548.808 525.169 550.148 525.129 551.028 524.979C551.908 524.849 552.338 524.689 552.328 524.529C552.328 524.379 551.878 524.229 551.018 524.119C550.158 524.029 548.878 523.879 547.188 523.669C542.378 523.049 537.628 521.309 532.978 518.589C528.348 515.819 523.838 511.989 519.838 506.789C515.338 500.849 513.368 496.529 511.658 492.849C510.038 489.109 508.798 485.829 507.438 480.909C505.128 472.589 503.158 461.099 502.518 450.799C501.898 440.489 502.368 431.449 502.658 427.959C502.728 426.929 502.778 425.889 502.878 424.849C503.038 422.999 503.278 419.569 503.868 415.069C504.108 412.809 504.568 410.299 504.968 407.559C505.218 406.199 505.488 404.779 505.758 403.319C505.898 402.589 506.038 401.849 506.178 401.089C506.348 400.339 506.518 399.579 506.688 398.809C509.268 386.469 514.098 371.989 519.908 359.189C528.168 341.109 535.098 330.849 538.558 325.459C542.718 319.119 546.618 313.749 550.328 308.869C554.018 303.979 557.558 299.609 561.138 295.329C565.098 290.659 564.388 289.999 560.228 294.539C556.478 298.689 552.788 302.979 548.988 307.839C545.168 312.679 541.198 318.049 536.998 324.429C533.768 329.389 526.698 339.629 519.218 355.469C518.618 356.759 517.998 358.049 517.448 359.359C516.898 360.669 516.358 361.979 515.808 363.289C513.558 368.959 511.258 375.099 509.398 381.219C507.538 387.339 505.888 393.369 504.778 398.729C504.138 401.399 503.748 403.919 503.288 406.159C502.878 408.409 502.598 410.399 502.328 412.059C502.038 413.709 501.928 415.039 501.798 415.939C501.688 416.849 501.618 417.339 501.618 417.339C501.618 417.339 501.528 418.069 501.368 419.389C501.248 420.719 501.078 422.629 500.858 424.989C500.538 429.719 500.148 436.249 500.398 443.399C500.588 450.549 501.298 458.309 502.468 465.459C503.608 472.609 505.168 479.139 506.628 483.919C508.798 491.139 511.178 496.239 513.208 499.999C515.278 503.739 516.998 506.139 518.358 507.929C522.508 513.319 527.258 517.279 532.118 520.079C536.998 522.839 542.018 524.529 547.048 524.999L547.038 525.009Z" fill="#82B536"/>
<path d="M474.489 311.679C472.959 315.889 474.009 316.269 475.739 312.179C478.239 306.379 480.949 300.339 484.859 292.789C485.939 290.629 486.879 288.919 487.669 287.429C488.449 285.939 489.139 284.709 489.789 283.569C491.049 281.269 492.209 279.359 493.979 276.609C496.999 271.979 501.409 265.999 505.719 261.019C509.999 256.009 514.129 251.979 515.769 250.449L517.209 249.079C517.639 248.669 518.239 248.079 518.999 247.339C519.789 246.629 520.729 245.779 521.809 244.819C523.959 242.879 526.749 240.609 529.969 238.219C533.199 235.849 536.919 233.449 540.869 231.239C544.819 229.019 549.079 227.129 553.259 225.609C559.169 223.449 564.179 222.419 568.149 221.839C570.149 221.629 571.869 221.379 573.369 221.359C574.859 221.299 576.099 221.209 577.119 221.279C581.899 221.309 586.059 221.879 589.829 222.729C593.599 223.579 596.979 224.719 600.239 226.069C602.029 226.819 603.009 227.039 603.139 226.789C603.259 226.559 602.519 225.849 600.739 224.969C597.499 223.399 594.089 222.069 590.229 221.079C586.379 220.089 582.079 219.439 577.139 219.399C576.179 219.339 574.959 219.389 573.499 219.429C572.029 219.429 570.329 219.589 568.389 219.779C564.529 220.229 559.749 221.079 554.399 222.869C552.669 223.489 550.929 224.079 549.279 224.859C545.659 226.399 541.939 228.369 538.389 230.429C534.829 232.479 531.539 234.769 528.689 236.809C527.279 237.859 525.989 238.859 524.829 239.749C523.699 240.679 522.699 241.499 521.869 242.179C520.259 243.589 519.309 244.429 519.309 244.429C519.309 244.429 518.959 244.739 518.319 245.309C517.669 245.859 516.789 246.719 515.699 247.769C514.599 248.809 513.299 250.059 511.929 251.509C511.239 252.229 510.509 252.979 509.759 253.759C509.039 254.559 508.289 255.399 507.529 256.249C505.969 257.929 504.489 259.789 502.939 261.619C501.449 263.489 499.959 265.369 498.589 267.229C497.239 269.099 495.899 270.879 494.779 272.589C493.629 274.279 492.579 275.819 491.739 277.179C491.099 278.189 490.499 279.139 489.939 280.029C489.399 280.929 488.909 281.769 488.439 282.559C487.969 283.349 487.539 284.069 487.139 284.749C486.759 285.439 486.399 286.079 486.069 286.669C485.409 287.849 484.859 288.849 484.389 289.709C483.939 290.579 483.559 291.309 483.229 291.939C479.289 299.569 476.719 305.749 474.509 311.699L474.489 311.679Z" fill="#82B536"/>
<path d="M580.259 346.009C581.059 344.149 581.909 342.309 582.769 340.479C582.769 340.479 584.089 338.199 585.679 335.469C587.259 332.739 589.149 329.579 590.039 327.649C592.969 323.249 596.059 318.959 599.399 314.879C599.399 314.879 600.389 313.559 601.559 312.059C602.719 310.559 604.089 308.909 604.689 308.099C605.409 307.069 605.899 306.369 605.899 306.059C605.919 305.749 605.319 305.849 604.189 306.679C603.079 307.509 601.479 309.069 599.469 311.609C599.399 311.649 599.209 311.829 599.149 311.829C595.079 317.339 590.819 322.359 587.169 328.289C587.339 328.289 587.319 328.549 587.139 328.689L587.019 328.529C584.889 332.649 582.919 334.849 581.429 338.869C581.429 338.869 581.449 338.339 581.449 338.319C578.009 344.689 574.249 352.359 571.089 360.459C567.919 368.549 565.409 377.079 564.039 384.829L564.079 384.759L564.099 384.799C564.319 384.099 564.869 382.059 565.399 380.219C565.949 378.379 566.439 376.709 566.439 376.709C565.969 381.949 563.869 387.529 563.189 393.069L562.959 392.999C563.129 391.809 563.269 390.679 563.369 389.739C563.489 388.799 563.569 388.059 563.589 387.629C562.679 391.849 561.709 398.329 561.649 404.819C561.479 411.309 562.309 417.749 563.229 421.799C563.369 421.559 562.539 419.079 563.059 418.349C563.179 419.399 563.389 420.439 563.589 421.469C563.769 422.499 563.999 423.499 564.209 424.479C563.839 424.559 563.719 423.399 563.599 423.189C563.699 424.039 564.469 429.089 566.799 435.569C567.979 438.799 569.519 442.369 571.449 445.919C573.399 449.449 575.709 452.939 578.169 456.109C580.599 459.309 583.269 462.089 585.659 464.469C588.099 466.809 590.339 468.679 592.029 469.999C595.489 472.559 596.599 473.099 593.609 470.169L594.059 470.279C590.769 467.519 588.169 465.049 585.359 461.579C584.899 461.149 584.879 461.069 584.739 461.199C584.599 461.099 584.369 460.939 584.359 461.039C584.059 461.419 583.219 460.279 582.819 459.799C583.619 459.569 581.339 456.999 578.929 454.069C576.549 451.129 574.079 447.769 573.649 446.889C573.869 446.539 573.369 445.729 572.829 444.829C572.299 443.919 571.679 442.939 571.549 442.359C571.609 442.419 571.999 442.809 572.049 442.859C571.959 442.319 569.819 438.309 568.359 434.769C568.009 433.879 567.659 433.039 567.389 432.299C567.139 431.549 566.929 430.919 566.799 430.469C566.539 429.569 566.569 429.399 567.139 430.509C566.549 428.039 566.049 425.289 565.549 422.359C565.109 419.419 564.729 416.269 564.509 412.979C564.309 409.679 564.249 406.249 564.359 402.729C564.479 399.219 564.789 395.639 565.259 392.059C567.119 377.729 571.969 363.639 577.039 353.929L576.899 354.049C576.999 353.899 577.169 353.389 577.319 353.309C577.639 352.269 578.329 350.429 578.989 348.869C579.629 347.299 580.239 346.009 580.239 346.009H580.259ZM564.149 393.569C564.149 393.569 564.179 393.599 564.189 393.589C564.119 393.589 563.839 396.399 563.809 396.509L563.579 396.469C563.389 393.549 565.979 387.239 564.389 393.339C564.419 393.559 564.229 393.539 564.139 393.569H564.149ZM564.169 418.649C564.209 419.139 564.259 419.669 564.349 420.249C563.469 417.089 563.099 413.229 563.059 409.309C563.019 405.379 563.319 401.399 563.449 397.809C563.859 399.069 563.859 401.129 563.759 403.259C563.739 404.329 563.669 405.419 563.619 406.429C563.589 407.439 563.559 408.379 563.559 409.149C563.909 412.229 563.899 415.889 564.159 418.639L564.169 418.649ZM580.609 456.769L580.719 456.699L580.859 456.879C580.859 456.879 580.789 456.899 580.749 456.879C580.709 456.869 580.639 456.819 580.619 456.769H580.609ZM578.239 348.869C578.209 349.389 577.319 350.979 577.499 349.729C577.689 349.469 577.919 348.579 578.239 348.869ZM565.239 425.959C565.609 425.879 566.289 428.149 565.769 428.299C565.559 427.509 565.389 426.729 565.239 425.959ZM586.299 332.969C586.269 332.209 586.569 332.609 586.899 332.559C586.769 332.669 586.449 333.149 586.349 332.949L586.289 332.969H586.299ZM592.119 323.369C592.039 323.119 592.299 322.529 592.459 322.279C593.019 321.729 592.459 323.189 592.119 323.369ZM603.489 308.779C603.339 308.599 603.599 308.229 603.849 308.299C603.939 308.449 603.659 308.929 603.409 308.799C603.419 308.799 603.449 308.799 603.489 308.779ZM567.779 436.839C566.859 436.499 566.669 434.179 566.079 433.129C566.809 433.159 567.049 435.329 567.479 436.149C567.599 436.439 567.699 436.669 567.779 436.849V436.839ZM570.079 365.139C569.489 364.959 570.799 362.799 570.959 361.989L571.179 362.089C570.819 363.259 570.679 363.989 570.099 365.099L570.079 365.149V365.139ZM562.399 414.919C562.119 414.479 562.269 413.669 562.229 413.199C562.569 413.179 562.809 415.189 562.399 414.929V414.919ZM562.809 394.319C563.189 394.259 562.889 395.249 562.899 395.539C562.849 395.329 562.659 394.929 562.689 394.689C562.709 394.519 562.759 394.489 562.809 394.319ZM569.999 366.069C569.699 366.959 569.359 367.929 569.039 368.859L568.819 368.759C569.129 367.809 569.439 366.879 569.779 365.969L569.999 366.069ZM566.769 375.129L566.539 375.059C566.699 373.649 567.329 373.669 566.779 375.089V375.119L566.769 375.129ZM574.269 354.419C574.199 354.549 574.089 354.749 574.039 354.879C573.279 356.709 573.589 353.809 574.269 354.419ZM578.459 344.909C578.519 344.719 578.569 344.449 578.669 344.259C579.329 343.019 579.139 344.659 578.459 344.909Z" fill="#82B536"/>
</g>
<mask id="mask3_287_72515" style="mask-type:luminance" maskUnits="userSpaceOnUse" x="735" y="-53" width="254" height="294">
<path d="M853.318 240.169H853.438L988.008 239.499L857.878 -52.0912L735.729 -52.4512L853.318 240.169Z" fill="white"/>
</mask>
<g mask="url(#mask3_287_72515)">
<path d="M774.999 48.0291C769.579 49.4991 767.029 50.7291 767.119 50.9891C767.219 51.3091 769.949 50.6691 775.339 49.3291C782.999 47.4491 790.979 46.0691 799.719 45.3191C808.449 44.5691 817.939 44.4491 828.429 46.0591C840.309 47.9291 847.439 50.5391 853.509 52.9291C855.029 53.5391 856.459 54.1991 857.889 54.8391C859.289 55.5391 860.719 56.1791 862.139 56.9591C863.559 57.7291 865.029 58.5091 866.539 59.4391C868.089 60.3091 869.599 61.3991 871.259 62.5591C876.859 66.4891 882.249 72.6891 885.999 80.1591C887.799 83.9291 889.259 87.9491 890.319 92.0591C891.309 96.1891 892.069 100.359 892.409 104.459C893.199 112.649 892.969 120.409 892.489 126.759C891.989 133.119 891.349 138.099 890.949 140.879C890.699 142.519 890.499 144.169 890.239 145.819C889.779 148.759 888.959 154.209 887.549 161.359C886.159 168.509 884.219 177.379 881.869 187.229C879.519 197.069 876.779 207.899 874.019 219.019C871.269 230.149 868.519 241.589 866.279 252.689C863.129 268.369 861.609 281.309 861.429 291.609C861.319 301.919 862.489 309.529 863.929 314.579C865.579 320.549 868.189 325.919 871.659 330.259C875.109 334.619 879.369 337.899 883.799 340.239C884.929 340.779 886.009 341.409 887.159 341.849C888.309 342.289 889.439 342.729 890.559 343.159C891.699 343.549 892.859 343.829 893.989 344.169C894.559 344.329 895.119 344.499 895.689 344.639C896.259 344.749 896.839 344.869 897.409 344.979C898.549 345.199 899.679 345.449 900.819 345.639C901.959 345.779 903.089 345.919 904.229 346.059L905.919 346.269C906.479 346.329 907.049 346.339 907.609 346.379C908.739 346.439 909.859 346.509 910.989 346.569C915.929 346.679 918.389 346.339 918.379 346.099C918.379 345.799 915.919 345.589 911.039 345.369C909.929 345.279 908.819 345.189 907.709 345.109C907.159 345.059 906.599 345.039 906.039 344.969L904.379 344.729C903.269 344.569 902.159 344.409 901.039 344.249C899.929 344.039 898.829 343.779 897.719 343.539C897.159 343.419 896.609 343.299 896.049 343.179C895.499 343.039 894.949 342.849 894.399 342.689C893.299 342.339 892.179 342.049 891.079 341.659C889.999 341.229 888.909 340.789 887.799 340.349C886.699 339.909 885.669 339.289 884.589 338.759C880.359 336.459 876.339 333.309 873.079 329.139C869.799 324.989 867.319 319.859 865.729 314.089C865.439 312.959 865.159 311.659 864.829 310.229C864.549 308.779 864.319 307.159 864.049 305.389C863.679 301.839 863.339 297.669 863.439 292.899C863.519 288.139 863.829 282.809 864.529 276.969C865.219 271.129 866.209 264.779 867.489 257.959C868.319 253.519 869.209 249.079 870.129 244.689C874.069 225.719 879.789 204.149 883.819 187.149C885.849 178.659 887.489 171.309 888.559 166.079C889.119 163.469 889.519 161.379 889.799 159.949C890.079 158.519 890.229 157.749 890.229 157.749C890.229 157.749 890.449 156.589 890.819 154.499C890.999 153.449 891.229 152.179 891.489 150.689C891.729 149.199 891.999 147.509 892.289 145.639C893.419 138.159 894.709 127.779 894.759 116.319C894.789 110.589 894.389 104.599 893.429 98.6591C892.459 92.7291 890.839 86.8491 888.449 81.5191C886.079 76.1791 882.899 71.4391 879.389 67.6191C875.919 63.7391 871.989 61.0191 868.639 58.8091C858.359 52.4691 849.849 49.4691 843.369 47.4691C836.839 45.5791 832.219 44.7291 828.699 44.1991C818.029 42.5591 808.349 42.7391 799.549 43.5791C790.729 44.4291 782.669 45.9491 774.989 48.0091L774.999 48.0291Z" fill="#82B536"/>
<path d="M761.849 17.3888C754.879 23.3388 755.629 24.1788 762.699 18.4288C767.789 14.4488 773.029 10.3788 778.939 6.29885C784.849 2.20885 791.299 -2.09115 798.879 -6.38115C803.179 -8.81115 806.699 -10.7312 809.789 -12.2512C812.839 -13.8612 815.479 -15.0112 817.909 -16.1612C819.119 -16.7512 820.309 -17.2412 821.499 -17.7312C822.689 -18.2212 823.879 -18.7212 825.099 -19.2312C826.319 -19.7612 827.619 -20.1812 828.979 -20.6912C830.349 -21.1712 831.789 -21.7312 833.379 -22.2512C834.729 -22.6712 836.139 -23.1012 837.589 -23.5612C838.319 -23.7812 839.059 -24.0112 839.809 -24.2512C840.569 -24.4512 841.339 -24.6512 842.119 -24.8512C843.679 -25.2512 845.279 -25.6712 846.899 -26.0912C848.539 -26.4312 850.209 -26.7812 851.899 -27.1412C852.739 -27.3112 853.589 -27.5112 854.449 -27.6512C855.309 -27.7912 856.169 -27.9212 857.029 -28.0612C858.759 -28.3212 860.479 -28.6412 862.209 -28.8512C865.669 -29.2812 869.129 -29.5312 872.479 -29.5412C879.169 -29.5812 885.409 -28.4112 890.059 -26.3712C892.389 -25.3512 894.309 -24.1512 895.859 -23.0612C897.359 -21.9012 898.509 -20.8612 899.269 -20.0512C900.189 -19.1112 901.039 -18.1112 901.839 -17.0612C903.259 -15.2012 905.729 -11.5012 907.399 -5.91115C908.229 -3.13115 908.879 0.0988474 909.039 3.63885C909.229 7.18885 908.969 11.0488 908.269 15.0588C906.849 23.0888 903.529 31.5888 899.239 39.8388C895.029 48.1388 889.719 56.1188 884.049 63.3188C875.999 73.4788 868.359 80.7588 862.059 86.1488C855.739 91.5288 850.779 95.1188 847.319 97.4888C839.179 103.129 831.609 107.379 824.489 111.009C817.349 114.619 810.609 117.569 803.829 120.209C800.099 121.649 798.279 122.529 798.369 122.789C798.449 123.039 800.449 122.669 804.249 121.339C811.149 118.879 817.999 116.069 825.249 112.529C832.479 108.969 840.149 104.729 848.389 99.0388C851.599 96.8488 856.509 93.3888 862.589 88.3588C868.629 83.2988 875.889 76.6688 883.219 67.8388L885.009 65.6788L886.719 63.4588L888.409 61.2388L890.009 58.9588C894.599 52.4188 898.999 45.0188 902.619 37.4488C906.259 29.9088 909.029 22.0888 910.229 14.9488C910.829 11.3788 911.079 7.99885 911.029 4.97885C910.989 1.94885 910.619 -0.721153 910.169 -2.89115C909.739 -5.07115 909.219 -6.77115 908.839 -7.92115C908.429 -9.06115 908.209 -9.68115 908.209 -9.68115C908.209 -9.68115 908.119 -9.91115 907.929 -10.3412C907.739 -10.7712 907.509 -11.4212 907.109 -12.2112C906.369 -13.8212 905.139 -16.0812 903.219 -18.6112C901.309 -21.1212 898.559 -23.8112 894.999 -26.0112C893.199 -27.0612 891.239 -28.0512 889.109 -28.8112C886.979 -29.5512 884.729 -30.1812 882.389 -30.5712C880.049 -30.9612 877.639 -31.2112 875.209 -31.3012C872.769 -31.3712 870.309 -31.3212 867.859 -31.1612C865.409 -30.9912 862.959 -30.7212 860.549 -30.3712C858.149 -29.9712 855.769 -29.5812 853.439 -29.1912C844.129 -27.4512 835.739 -24.8412 829.599 -22.6712C820.349 -19.3612 813.739 -16.3112 808.789 -13.8112C807.549 -13.1912 806.409 -12.6212 805.349 -12.1012C804.309 -11.5412 803.359 -11.0212 802.469 -10.5412C800.709 -9.57115 799.209 -8.81115 797.969 -8.06115C790.329 -3.73115 783.849 0.648846 777.959 4.82885C772.049 9.00885 766.869 13.1888 761.859 17.3188L761.849 17.3888Z" fill="#82B536"/>
<path d="M827.449 171.499C825.399 172.979 823.819 173.999 822.819 174.789C821.819 175.569 821.359 176.039 821.439 176.169C821.519 176.299 822.129 176.099 823.269 175.529C824.399 174.939 826.109 174.059 828.199 172.619C840.189 164.629 852.119 155.359 867.219 143.189C875.729 136.229 880.959 131.779 885.499 127.899C890.039 124.009 893.899 120.699 899.549 115.849C904.309 111.739 909.909 106.939 915.659 101.849C918.549 99.319 921.459 96.689 924.339 94.059L926.479 92.069L927.409 91.209C927.469 91.159 927.449 91.199 927.699 91.169L928.399 91.129L929.789 91.039L931.179 91.089L932.559 91.139C933.019 91.199 933.469 91.259 933.919 91.319C937.539 91.799 940.949 92.889 943.979 94.279C947.029 95.659 949.669 97.379 951.869 99.149C956.349 102.649 958.799 106.429 959.999 108.539L960.959 110.479C961.289 111.129 961.479 111.819 961.749 112.489C962.009 113.079 962.189 113.849 962.419 114.729C962.689 115.609 962.829 116.639 963.009 117.789C963.279 120.089 963.399 122.909 962.919 126.069C962.419 129.219 961.409 132.719 959.579 136.169C957.759 139.609 955.139 143.019 951.719 145.819C951.309 146.189 950.829 146.479 950.379 146.809C949.909 147.119 949.489 147.499 948.979 147.759C947.999 148.319 947.029 148.919 945.959 149.399C943.849 150.389 941.569 151.209 939.229 151.989C934.569 153.579 929.479 154.949 924.909 157.929C922.649 159.409 920.619 161.389 919.129 163.719C917.639 166.049 916.739 168.779 916.439 171.499C916.119 174.229 916.339 176.959 916.759 179.579C917.179 182.209 917.839 184.739 918.519 187.219C920.499 194.199 922.499 200.399 922.869 206.119C922.979 207.539 922.949 208.929 922.869 210.259C922.649 211.579 922.599 212.879 922.219 214.089C921.689 216.559 920.639 218.709 919.619 220.689C917.379 224.559 914.639 227.429 912.129 229.649C909.619 231.889 907.239 233.429 905.319 234.669C896.069 240.429 886.649 242.769 878.199 245.529C869.719 248.219 861.859 250.999 854.959 255.489C853.079 256.729 851.759 257.789 850.959 258.599C850.149 259.389 849.799 259.839 849.889 259.939C849.979 260.039 850.499 259.799 851.429 259.199C852.349 258.579 853.729 257.679 855.599 256.509C862.449 252.309 870.209 249.719 878.699 247.149C882.949 245.859 887.409 244.559 892.069 242.939C896.749 241.339 901.539 239.179 906.309 236.259C907.239 235.689 908.259 234.989 909.399 234.229C910.499 233.399 911.749 232.529 913.009 231.429C915.539 229.269 918.359 226.489 920.759 222.689C921.999 220.819 922.969 218.619 923.819 216.239C923.979 215.629 924.139 215.009 924.309 214.379C924.389 214.069 924.469 213.749 924.559 213.429C924.609 213.109 924.659 212.779 924.699 212.449C924.789 211.789 924.889 211.119 924.979 210.449C925.009 209.769 925.079 209.079 925.069 208.389C925.159 202.799 923.609 196.969 921.869 190.919C920.739 186.969 919.539 183.069 918.859 179.159C918.499 177.049 918.289 174.889 918.399 172.729C918.519 170.579 919.009 168.439 919.909 166.469C920.819 164.499 922.159 162.719 923.779 161.239C925.409 159.759 927.349 158.609 929.379 157.649C933.449 155.729 937.859 154.539 942.029 153.039C944.119 152.289 946.149 151.469 948.069 150.479C948.999 149.919 949.959 149.449 950.809 148.839C951.649 148.209 952.539 147.679 953.289 146.979C956.409 144.379 958.769 141.369 960.489 138.469C962.209 135.569 963.309 132.769 963.949 130.379C964.639 127.999 964.909 126.039 965.049 124.699C965.129 124.029 965.189 123.509 965.179 123.159C965.189 122.809 965.199 122.619 965.199 122.619C965.199 122.619 965.199 122.349 965.219 121.829C965.219 121.569 965.229 121.249 965.239 120.869C965.219 120.489 965.189 120.049 965.159 119.559C965.089 117.589 964.679 114.729 963.489 111.409C962.289 108.089 960.069 104.439 956.879 101.119C953.719 97.769 949.539 94.819 944.759 92.609C944.169 92.309 943.559 92.069 942.929 91.839C942.309 91.609 941.689 91.349 941.049 91.129C939.759 90.759 938.479 90.299 937.129 90.069C934.469 89.439 931.689 89.219 928.909 89.339L927.869 89.409L927.329 89.449L926.919 89.479L926.699 89.499C926.639 89.529 926.589 89.589 926.539 89.639L924.909 91.169C923.929 92.089 922.949 92.999 921.969 93.909C919.989 95.699 918.039 97.509 916.089 99.229C908.329 106.179 901.019 112.469 895.559 117.129C879.099 131.169 870.979 137.689 866.029 141.739C850.959 153.899 839.159 163.289 827.429 171.499H827.449Z" fill="#82B536"/>
<path d="M747.389 -23.791C743.819 -21.331 742.239 -19.811 742.409 -19.571C742.599 -19.311 744.529 -20.321 748.129 -22.661C753.259 -25.961 758.719 -29.031 764.789 -32.041C770.869 -35.031 777.599 -37.931 785.389 -40.561C794.219 -43.551 799.919 -44.821 804.869 -45.901C806.109 -46.151 807.309 -46.391 808.499 -46.631C809.699 -46.821 810.899 -47.021 812.139 -47.221C812.759 -47.321 813.389 -47.411 814.029 -47.521C814.679 -47.601 815.339 -47.671 816.019 -47.751C817.389 -47.891 818.829 -48.111 820.399 -48.211C825.709 -48.641 832.019 -49.121 838.359 -48.041C841.509 -47.491 844.669 -46.531 847.449 -44.921C850.249 -43.351 852.729 -41.251 854.719 -38.861C858.759 -34.081 861.089 -28.521 862.469 -23.881C863.149 -21.551 863.669 -19.431 863.929 -17.611C864.079 -16.711 864.209 -15.891 864.329 -15.161C864.439 -14.431 864.469 -13.791 864.529 -13.261C864.639 -12.001 864.809 -10.741 864.819 -9.47104C864.849 -8.34104 864.979 -6.72105 864.859 -4.70105C864.819 -3.69105 864.829 -2.57104 864.679 -1.37104C864.619 -0.771044 864.559 -0.141045 864.489 0.498955C864.459 0.818955 864.429 1.14896 864.389 1.48896C864.339 1.81896 864.279 2.15895 864.219 2.49895C863.959 3.85895 863.809 5.32895 863.399 6.81895C863.219 7.56895 863.029 8.33896 862.839 9.12896C862.649 9.91896 862.359 10.689 862.109 11.499C861.139 14.729 859.629 18.069 857.759 21.409C857.259 22.229 856.749 23.049 856.239 23.889C855.689 24.699 855.069 25.479 854.489 26.289C854.179 26.679 853.909 27.109 853.569 27.479C853.229 27.849 852.889 28.229 852.549 28.609C851.859 29.349 851.219 30.169 850.419 30.829C847.499 33.779 843.839 36.079 839.989 37.939C836.059 39.639 831.709 40.579 827.399 40.469C823.109 40.339 818.869 39.049 815.619 36.509C814.469 35.629 813.469 34.589 812.599 33.519C811.749 32.419 811.029 31.249 810.419 30.069C809.249 27.669 808.479 25.199 808.029 22.799C807.559 20.399 807.349 18.079 807.259 15.889C807.249 15.339 807.229 14.799 807.219 14.269C807.229 13.729 807.239 13.209 807.249 12.689C807.269 11.649 807.289 10.649 807.319 9.66896C807.809 1.88896 809.129 -3.74105 810.199 -7.52105C810.459 -8.65105 810.879 -9.73104 811.199 -10.801C811.539 -11.871 811.869 -12.941 812.279 -13.951C812.669 -14.971 813.049 -15.981 813.419 -16.981C813.839 -17.961 814.259 -18.921 814.679 -19.871C814.889 -20.341 815.089 -20.821 815.299 -21.281C815.529 -21.741 815.749 -22.191 815.979 -22.641C816.429 -23.541 816.869 -24.441 817.309 -25.321C818.269 -27.031 819.159 -28.741 820.149 -30.341C824.049 -36.781 828.279 -42.301 832.919 -47.351C835.499 -50.101 836.699 -51.571 836.499 -51.791C836.329 -51.971 834.739 -50.881 832.039 -48.181C827.189 -43.211 822.769 -37.721 818.699 -31.221C817.669 -29.611 816.749 -27.881 815.739 -26.151C815.289 -25.261 814.829 -24.351 814.359 -23.441C814.129 -22.981 813.889 -22.521 813.659 -22.061C813.449 -21.581 813.239 -21.111 813.019 -20.621C812.589 -19.661 812.159 -18.681 811.719 -17.681C811.329 -16.671 810.939 -15.641 810.539 -14.601C810.119 -13.561 809.779 -12.481 809.429 -11.381C809.099 -10.281 808.669 -9.18105 808.399 -8.02105C807.399 -4.47105 805.999 1.08895 805.389 8.58895C805.279 9.51895 805.269 10.489 805.239 11.489C805.209 12.489 805.169 13.509 805.159 14.559C805.169 16.669 805.289 18.899 805.609 21.219C805.939 23.539 806.439 25.969 807.339 28.399C808.249 30.819 809.489 33.299 811.359 35.469C812.559 36.889 813.959 38.159 815.529 39.149C816.289 39.699 817.139 40.069 817.949 40.509C818.809 40.849 819.639 41.249 820.529 41.479C822.409 42.079 824.399 42.409 826.409 42.509C828.419 42.629 830.459 42.519 832.459 42.199C834.469 41.879 836.459 41.409 838.379 40.709C840.289 40.009 842.189 39.209 843.889 38.119C847.449 36.199 850.489 33.559 853.149 30.819C853.789 30.109 854.419 29.399 855.049 28.709C855.649 27.989 856.169 27.219 856.719 26.499C857.869 25.069 858.689 23.489 859.619 22.049C863.019 16.069 864.639 10.319 865.539 6.24895C865.919 4.19895 866.219 2.55896 866.369 1.42896C866.489 0.298955 866.549 -0.321045 866.549 -0.321045C866.549 -0.321045 866.569 -0.551045 866.619 -0.981045C866.649 -1.42104 866.759 -2.06104 866.779 -2.89104C866.809 -3.72104 866.839 -4.73105 866.879 -5.91105C866.939 -7.09105 866.829 -8.42104 866.799 -9.90104C866.519 -15.781 865.229 -24.001 861.239 -32.071C859.249 -36.081 856.509 -40.011 852.919 -43.131C851.119 -44.681 849.119 -46.001 846.999 -47.051C844.869 -48.071 842.639 -48.811 840.409 -49.301C835.939 -50.261 831.559 -50.361 827.589 -50.241C825.599 -50.191 823.719 -50.041 821.939 -49.901C821.049 -49.831 820.189 -49.771 819.359 -49.711C818.529 -49.621 817.729 -49.531 816.959 -49.441C807.719 -48.401 800.989 -46.871 795.909 -45.591C794.639 -45.251 793.469 -44.941 792.389 -44.651C791.309 -44.361 790.329 -44.031 789.419 -43.761C787.599 -43.211 786.079 -42.751 784.789 -42.281C776.909 -39.611 770.119 -36.641 764.009 -33.531C757.909 -30.411 752.459 -27.201 747.379 -23.731L747.389 -23.791Z" fill="#82B536"/>
<path d="M741.709 -56.4711C738.239 -55.2211 736.659 -54.2111 736.769 -53.9511C736.899 -53.6411 738.689 -54.0711 742.139 -55.1911C747.049 -56.7511 752.199 -57.9811 757.869 -58.7611C763.539 -59.5211 769.729 -59.8311 776.629 -59.2111C784.449 -58.4911 789.209 -57.1611 793.269 -55.8611C797.329 -54.5411 800.699 -53.0911 805.279 -50.3911C809.129 -48.0811 813.379 -44.9011 817.249 -40.9911C821.139 -37.1111 824.709 -32.6111 827.489 -28.0111C830.309 -23.4311 832.429 -18.8411 833.859 -14.9511C835.279 -11.0511 836.149 -7.90106 836.539 -6.12106C836.799 -5.07106 837.049 -4.02106 837.259 -2.96106C837.699 -1.08106 838.339 2.43895 838.769 7.14895C839.199 11.8589 839.309 17.7689 838.639 24.3089C837.449 37.4089 832.549 52.819 825.109 65.479C819.949 74.479 814.599 81.0289 810.169 85.9589C807.989 88.4689 805.899 90.4589 804.149 92.1989C803.709 92.6389 803.289 93.0489 802.889 93.4489C802.469 93.8289 802.059 94.1889 801.679 94.5289C800.909 95.2189 800.209 95.8389 799.579 96.3989C798.829 97.0489 798.129 97.7289 797.379 98.3289C796.629 98.9289 795.889 99.5189 795.169 100.109C793.709 101.269 792.339 102.449 790.889 103.449C789.469 104.489 788.079 105.489 786.729 106.479C785.329 107.399 783.959 108.289 782.629 109.169C781.959 109.599 781.309 110.059 780.639 110.459C779.959 110.859 779.289 111.249 778.629 111.639C777.299 112.419 775.989 113.189 774.699 113.939C773.369 114.639 772.059 115.329 770.759 116.009C770.109 116.349 769.459 116.699 768.809 117.039L766.829 117.959C761.029 120.659 761.369 121.569 767.329 119.059L769.359 118.199C770.019 117.879 770.689 117.549 771.359 117.229C772.699 116.579 774.039 115.919 775.399 115.259C776.739 114.549 778.069 113.779 779.429 113.029C780.109 112.649 780.799 112.259 781.489 111.879C782.179 111.479 782.839 111.039 783.529 110.609C784.899 109.739 786.299 108.859 787.729 107.949C789.109 106.969 790.529 105.959 791.979 104.929C793.459 103.929 794.859 102.739 796.349 101.569C797.089 100.979 797.839 100.379 798.599 99.769C799.359 99.159 800.079 98.4789 800.829 97.8189C803.179 95.7689 806.799 92.5789 811.119 87.9389C815.489 83.3589 820.509 77.2389 825.349 69.3889C825.739 68.7489 826.169 68.1289 826.529 67.4689L827.609 65.489C828.319 64.169 829.039 62.8589 829.729 61.5389C832.489 55.7289 835.109 49.3289 836.969 42.8489C838.859 36.3789 840.039 29.8889 840.579 24.1389C841.149 18.3889 841.119 13.4089 840.929 9.88895C840.749 6.36895 840.479 4.29894 840.479 4.29894C840.479 4.29894 840.379 3.52895 840.209 2.13895C839.989 0.748947 839.709 -1.26105 839.179 -3.70105C838.169 -8.59105 836.229 -15.2611 832.889 -22.0311C829.619 -28.8411 824.849 -35.6311 819.519 -41.1111C814.209 -46.6211 808.319 -50.7011 803.689 -53.2011C796.659 -56.9311 790.939 -58.5511 786.599 -59.5611C785.509 -59.7911 784.499 -60.0111 783.559 -60.2011C782.619 -60.3411 781.749 -60.4811 780.949 -60.6011C779.349 -60.8811 777.999 -60.9611 776.829 -61.0811C769.759 -61.7111 763.419 -61.3411 757.659 -60.4811C751.889 -59.6011 746.669 -58.2211 741.749 -56.4811L741.709 -56.4711Z" fill="#82B536"/>
</g>
<mask id="mask4_287_72515" style="mask-type:luminance" maskUnits="userSpaceOnUse" x="-14" y="404" width="237" height="222">
<path d="M155.949 404.469H66.4785H-13.5215V625.719H208.199L222.549 404.469H209.629H155.949Z" fill="white"/>
</mask>
<g mask="url(#mask4_287_72515)">
<path d="M-30.7206 528.969C-26.9906 532.049 -23.5306 534.499 -20.5006 536.469C-17.4306 538.409 -14.8006 539.889 -12.6506 540.979C-11.5706 541.509 -10.6206 541.969 -9.80061 542.359C-8.97061 542.709 -8.27061 542.999 -7.71061 543.229C-6.59061 543.679 -6.02061 543.869 -5.98061 543.789C-5.94061 543.709 -6.46061 543.389 -7.51061 542.809C-8.04061 542.529 -8.70061 542.179 -9.49061 541.749C-10.2706 541.309 -11.1806 540.789 -12.2306 540.199C-14.3106 539.009 -16.8606 537.449 -19.8506 535.469C-22.8106 533.439 -26.1906 530.969 -29.8606 527.909C-35.0406 523.539 -39.9406 518.759 -44.4506 513.549C-48.9606 508.349 -53.2606 502.819 -57.0506 496.889C-58.9306 493.919 -60.7206 490.849 -62.2606 487.639C-63.8106 484.439 -65.2306 481.129 -66.2706 477.679C-67.3206 474.239 -68.1906 470.689 -68.4806 467.049C-68.8006 463.419 -68.6906 459.729 -68.0206 456.089C-67.8106 455.189 -67.6006 454.289 -67.3906 453.389C-67.1406 452.499 -66.8006 451.629 -66.5106 450.739C-65.8906 448.979 -65.0706 447.289 -64.1406 445.649C-62.2706 442.379 -59.8506 439.369 -57.0306 436.719C-51.3706 431.399 -44.3206 427.379 -36.7106 424.349C-21.4006 418.349 -3.99061 415.679 14.2894 416.179C24.6594 416.449 34.0194 417.689 42.4994 419.289C50.9794 420.879 58.5894 422.889 65.5494 424.939C79.4694 429.119 90.8094 433.569 101.279 437.909C111.739 442.289 121.339 446.539 131.359 451.519C141.349 456.529 151.829 462.209 163.379 470.289C173.129 477.099 183.109 485.449 192.069 495.649C196.559 500.729 200.759 506.289 204.469 512.289C208.199 518.269 211.449 524.709 213.919 531.499C216.339 538.299 217.999 545.479 218.339 552.769C218.659 560.039 217.729 567.449 214.909 574.159C214.739 574.579 214.589 575.009 214.389 575.419L213.789 576.639C213.369 577.439 213.019 578.279 212.549 579.049L211.129 581.369C210.679 582.159 210.079 582.839 209.569 583.589C208.549 585.089 207.279 586.389 206.119 587.759C204.819 589.009 203.599 590.339 202.189 591.459C196.749 596.189 190.349 599.609 183.759 602.079C170.459 606.949 156.339 607.019 143.649 604.849C137.269 603.809 131.189 602.229 125.439 600.439C119.679 598.649 114.239 596.649 109.129 594.629C98.9094 590.539 89.9394 586.489 82.5094 582.819C78.8294 580.919 75.4594 579.249 72.5694 577.609C71.1094 576.809 69.7494 576.059 68.4894 575.359C67.2494 574.629 66.1094 573.949 65.0694 573.329L61.3794 571.139L57.7594 568.829C56.5594 568.049 55.3294 567.309 54.1494 566.499L50.6094 564.059C46.3794 561.179 40.5194 556.819 33.6494 550.829C26.7994 544.819 18.9994 537.019 11.6294 526.939C10.7194 525.679 9.78939 524.389 8.84939 523.089C7.98939 521.739 7.10939 520.359 6.22939 518.969C4.41939 516.199 2.71939 513.269 1.22939 510.159C-0.270615 507.049 -1.55061 503.749 -2.40061 500.279C-3.22061 496.809 -3.60061 493.149 -3.11061 489.499C-2.68061 485.849 -1.29061 482.289 0.809387 479.079C2.91939 475.879 5.74939 473.069 8.99939 470.759C12.2694 468.469 15.9894 466.729 19.9594 465.529C23.9294 464.339 28.1294 463.669 32.4094 463.389C36.6994 463.119 41.0794 463.199 45.4894 463.569C47.6994 463.689 49.9094 464.009 52.1294 464.239C54.3394 464.589 56.5794 464.859 58.7894 465.319C67.6894 466.959 76.5794 469.649 85.2594 473.209C89.5994 474.989 93.8694 477.039 98.0794 479.239C102.279 481.479 106.389 483.939 110.429 486.569C114.439 489.229 118.349 492.099 122.169 495.109C125.969 498.149 129.639 501.379 133.219 504.729C147.449 518.219 159.689 534.179 169.629 551.269C172.039 555.559 174.089 560.039 175.299 564.729C176.489 569.399 176.749 574.319 175.719 578.969C174.729 583.609 172.299 587.889 168.649 590.839C165.019 593.809 160.469 595.569 155.829 596.229C149.229 597.189 142.639 595.709 136.739 593.259C130.809 590.779 125.459 587.349 120.469 583.729C110.509 576.449 102.239 567.989 95.4894 559.189C88.7394 550.379 83.4794 541.199 79.5394 532.149C75.6294 523.089 73.3794 513.989 72.4494 505.349C71.5194 496.699 71.8994 488.519 73.1594 481.079C73.5694 479.259 73.8594 477.439 74.4694 475.739C74.7594 474.889 74.9494 474.009 75.3194 473.209C75.6594 472.399 75.9994 471.589 76.3294 470.789C77.8194 467.679 79.5094 464.789 81.5494 462.319C85.5094 457.289 90.1794 453.559 94.7094 450.639C99.2394 447.699 103.669 445.569 107.699 443.829C117.239 439.709 127.009 436.959 136.559 434.679C146.119 432.429 155.519 430.699 164.689 429.169C183.039 426.119 200.519 423.799 217.199 420.799C225.539 419.289 233.679 417.599 241.599 415.529C245.549 414.439 249.459 413.339 253.259 411.989C255.179 411.369 257.039 410.589 258.919 409.889C260.759 409.089 262.629 408.359 264.409 407.449C266.229 406.619 267.959 405.629 269.709 404.669C271.399 403.609 273.109 402.599 274.699 401.389C277.899 399.039 280.879 396.359 283.299 393.199C288.159 386.899 290.509 378.849 290.079 371.049C290.069 370.509 290.049 369.989 290.039 369.469C289.979 368.949 289.919 368.449 289.869 367.949C289.749 366.949 289.659 365.989 289.509 365.059C289.329 364.139 289.149 363.259 288.979 362.409C288.809 361.559 288.649 360.739 288.409 359.979C287.959 358.449 287.609 357.019 287.169 355.769C286.719 354.519 286.309 353.399 285.939 352.399C285.189 350.409 284.459 348.989 284.029 348.029C283.569 347.069 283.309 346.609 283.249 346.639C283.099 346.699 283.839 348.689 285.229 352.659C285.549 353.659 285.899 354.789 286.299 356.049C286.689 357.299 286.989 358.719 287.399 360.239C287.619 360.999 287.759 361.799 287.909 362.639C288.059 363.479 288.219 364.349 288.389 365.249C288.519 366.159 288.589 367.099 288.699 368.069C288.749 368.559 288.799 369.049 288.859 369.559C288.859 370.069 288.879 370.579 288.889 371.099C289.249 378.699 286.939 386.359 282.249 392.389C279.909 395.409 277.009 397.989 273.889 400.259C272.349 401.429 270.669 402.409 269.009 403.429C267.289 404.349 265.589 405.319 263.799 406.129C262.039 407.009 260.199 407.719 258.379 408.509C256.519 409.189 254.679 409.949 252.779 410.559C249.009 411.879 245.129 412.949 241.209 414.019C233.339 416.049 225.239 417.689 216.919 419.179C200.279 422.119 182.809 424.399 164.409 427.419C155.209 428.939 145.779 430.659 136.149 432.919C126.539 435.209 116.679 437.969 106.979 442.159C103.209 443.769 98.9994 445.809 94.5694 448.579C90.1594 451.349 85.4894 454.879 81.2994 459.649C79.2894 462.099 77.2694 464.739 75.7094 467.819C74.8394 469.309 74.2094 470.949 73.5094 472.599C73.1394 473.419 72.9394 474.299 72.6494 475.159C72.3894 476.029 72.0594 476.889 71.8994 477.809C71.0094 481.429 70.5594 485.179 70.2294 489.089C69.9194 492.999 69.8594 497.059 70.1194 501.219C70.6094 509.549 72.2594 518.319 75.3694 527.129C76.9094 531.539 78.8694 535.919 81.0794 540.269C83.2894 544.639 85.8194 548.969 88.6494 553.249C94.3094 561.799 101.219 570.119 109.519 577.649C113.669 581.399 118.169 584.949 123.009 588.199C127.839 591.449 133.079 594.429 138.879 596.459C142.659 597.769 146.629 598.609 150.669 598.759C154.709 598.869 158.779 598.239 162.589 596.839C166.379 595.409 169.929 593.169 172.629 590.069C175.349 586.979 177.089 583.139 177.889 579.199C178.769 574.929 178.649 570.489 177.789 566.209C176.919 561.919 175.309 557.819 173.359 553.909C171.399 549.999 169.119 546.269 166.749 542.609C164.409 538.919 161.909 535.309 159.339 531.729C149.019 517.459 136.789 504.269 122.979 493.309C109.159 482.379 93.7094 473.799 77.7894 468.409C69.8494 465.659 61.7894 463.779 53.8394 462.619C45.8894 461.489 38.0294 461.029 30.4494 461.689C22.8894 462.359 15.5794 464.369 9.53939 468.169C3.53939 471.929 -1.17061 477.299 -3.50061 483.349C-4.65061 486.379 -5.19061 489.519 -5.23061 492.539C-5.26061 495.569 -4.82061 498.469 -4.14061 501.179C-2.76061 506.599 -0.510615 511.259 1.72939 515.309C6.41939 523.279 10.6894 529.269 13.9094 533.139C15.5094 535.079 16.6794 536.629 17.5894 537.589C18.4694 538.559 18.9294 539.069 18.9294 539.069C18.9294 539.069 19.6094 539.819 20.9094 541.249C22.1694 542.719 24.2294 544.689 26.8294 547.279C32.1094 552.349 40.1094 559.359 50.8794 566.719C61.6094 574.139 75.1494 581.779 90.7194 588.909C92.6694 589.779 94.6494 590.669 96.6494 591.559C98.6694 592.409 100.709 593.269 102.769 594.139C106.899 595.869 111.159 597.529 115.529 599.129C124.269 602.289 133.539 605.079 143.289 606.699C153.009 608.289 163.259 608.719 173.369 606.819C183.419 604.919 193.269 600.829 201.479 594.389C205.569 591.179 209.229 587.369 212.149 583.039C215.079 578.719 217.229 573.879 218.489 568.859C219.769 563.839 220.239 558.659 220.069 553.559C219.879 548.459 219.059 543.429 217.819 538.579C216.569 533.729 214.889 529.049 212.889 524.579C210.869 520.129 208.579 515.869 206.079 511.819C203.599 507.769 200.889 503.929 198.039 500.329C195.189 496.729 192.239 493.309 189.179 490.139C176.949 477.379 163.659 468.079 151.959 460.979C143.109 455.659 134.539 451.209 126.399 447.309C118.259 443.409 110.569 440.029 103.349 436.959C88.9094 430.819 76.2294 426.259 65.0494 422.949C42.6794 416.339 26.5194 414.709 14.3294 414.339C-4.17061 413.839 -21.8206 416.549 -37.4006 422.679C-45.1606 425.789 -52.4006 429.909 -58.2706 435.449C-61.1906 438.219 -63.7206 441.369 -65.6806 444.809C-66.6506 446.529 -67.5106 448.319 -68.1606 450.169C-68.4606 451.099 -68.8106 452.019 -69.0806 452.949C-69.3006 453.899 -69.5206 454.849 -69.7406 455.789C-70.4406 459.609 -70.5406 463.469 -70.1906 467.239C-69.8706 471.019 -68.9606 474.669 -67.8706 478.209C-66.7806 481.749 -65.3206 485.129 -63.7306 488.389C-62.1506 491.659 -60.3106 494.759 -58.3906 497.779C-54.5106 503.789 -50.1606 509.319 -45.5706 514.559C-40.9806 519.799 -36.0006 524.599 -30.7406 528.989L-30.7206 528.969Z" fill="#82B536"/>
<path d="M105.238 640.308C104.798 638.078 103.958 636.289 103.148 634.839C102.328 633.389 101.498 632.288 100.808 631.428C99.4085 629.728 98.5585 629.028 98.4485 629.118C98.3185 629.228 98.9385 630.128 100.108 631.928C100.678 632.838 101.398 633.969 102.108 635.389C102.808 636.809 103.539 638.519 103.909 640.539C104.449 643.409 103.848 646.428 102.078 648.758C100.318 651.088 97.6385 652.758 94.7185 653.608C91.8085 654.468 88.5885 654.449 85.4285 653.959C82.2485 653.469 79.0485 652.519 75.8085 651.459C69.3085 649.379 62.6685 646.858 55.9285 643.688C49.2185 640.478 42.3985 636.618 35.8385 631.628C32.1185 628.808 28.9385 626.009 26.1885 623.279C23.4785 620.519 21.1685 617.848 19.2085 615.258C15.2785 610.068 12.6185 605.269 10.5385 600.659C8.4785 596.029 7.0285 591.538 6.0685 586.628C5.1385 581.728 4.6885 576.369 5.3285 570.099C5.6485 567.459 6.1485 564.718 6.8885 561.938C7.6585 559.168 8.6485 556.369 9.8785 553.589C12.3885 548.049 15.8085 542.579 20.1485 537.719C28.7385 527.879 40.8585 520.779 53.0685 517.099C59.1685 515.219 65.2885 514.079 71.0985 513.659C76.8985 513.089 82.3785 513.319 87.2985 513.709C97.1385 514.659 104.658 516.818 108.788 518.118C110.018 518.478 111.218 518.958 112.428 519.378C113.638 519.828 114.869 520.199 116.049 520.719C117.109 521.159 118.398 521.688 119.898 522.308C121.388 522.938 123.038 523.789 124.898 524.649C126.758 525.529 128.708 526.679 130.868 527.829C131.928 528.439 133.008 529.128 134.128 529.808C135.258 530.498 136.428 531.199 137.568 532.019C138.728 532.819 139.928 533.638 141.158 534.478C142.338 535.388 143.558 536.319 144.808 537.269C146.078 538.189 147.268 539.289 148.528 540.339C149.158 540.869 149.788 541.409 150.428 541.959C151.038 542.539 151.658 543.119 152.278 543.709C157.318 548.359 162.348 553.869 166.628 560.349C170.878 566.819 174.278 574.438 175.278 582.758C175.548 584.828 175.638 586.938 175.588 589.048C175.538 591.158 175.338 593.278 174.918 595.368C174.508 597.458 173.938 599.529 173.138 601.529C172.338 603.519 171.348 605.438 170.168 607.258C165.448 614.558 157.968 620.019 149.778 623.209C141.538 626.449 132.618 627.579 123.928 627.719C120.848 627.819 117.848 627.579 114.918 627.459C114.188 627.429 113.458 627.388 112.738 627.358C112.018 627.328 111.299 627.298 110.589 627.188C109.169 627.018 107.769 626.848 106.379 626.678C104.999 626.508 103.628 626.348 102.278 626.188C100.948 625.928 99.6285 625.678 98.3285 625.428C95.7385 624.898 93.1785 624.519 90.7685 623.789C88.3485 623.129 85.9785 622.528 83.7085 621.868C81.4685 621.098 79.2885 620.348 77.1685 619.618C75.0285 618.958 73.0685 618.009 71.1185 617.219C70.1485 616.809 69.1985 616.409 68.2585 616.019C67.3185 615.629 66.3885 615.239 65.5185 614.779C63.7585 613.899 62.0485 613.039 60.4085 612.209C59.5885 611.789 58.7685 611.409 57.9885 610.969C57.2185 610.519 56.4685 610.079 55.7285 609.639C52.7785 607.889 49.9885 606.358 47.6085 604.628C46.3985 603.798 45.2285 603.008 44.1185 602.258C43.5585 601.878 43.0185 601.509 42.4885 601.149C41.9785 600.749 41.4885 600.368 40.9985 599.988C39.0685 598.478 37.3185 597.109 35.7485 595.889C33.9285 594.399 32.2485 592.798 30.5385 591.298C29.6885 590.538 28.8385 589.799 28.0185 589.029C27.2385 588.229 26.4585 587.429 25.6785 586.639C24.1485 585.039 22.5685 583.538 21.1485 581.928C19.7585 580.298 18.3785 578.679 17.0285 577.089C15.6185 575.539 14.4485 573.839 13.2285 572.209C12.0385 570.559 10.7885 568.989 9.6885 567.339C8.6285 565.659 7.5785 564.008 6.5385 562.368C6.0185 561.548 5.5085 560.728 4.9985 559.918C4.5485 559.078 4.0985 558.229 3.6485 557.399C-0.0215034 550.789 -3.4215 544.159 -4.1315 537.219C-4.4915 533.769 -3.9515 530.329 -2.7515 527.149C-1.5215 523.969 0.328497 521.059 2.5485 518.469C4.9885 515.619 7.1585 513.769 8.5685 512.519C9.9985 511.269 10.7285 510.648 10.6385 510.528C10.5685 510.428 9.6885 510.828 8.0985 511.918C6.5285 513.018 4.1985 514.778 1.6385 517.678C-0.691503 520.318 -2.6715 523.319 -4.0115 526.659C-4.6815 528.329 -5.1415 530.088 -5.4415 531.878C-5.7015 533.678 -5.7815 535.519 -5.6115 537.349C-5.3015 541.019 -4.2215 544.589 -2.8315 548.039C-2.1215 549.759 -1.3715 551.479 -0.501503 553.149C0.378497 554.819 1.2685 556.499 2.1585 558.199C2.6085 559.049 3.0585 559.909 3.5085 560.769C4.0085 561.599 4.5385 562.418 5.0585 563.258C6.0985 564.928 7.1585 566.608 8.2285 568.318C9.3385 569.998 10.5985 571.599 11.7985 573.279C13.0285 574.939 14.2085 576.658 15.6285 578.238C16.9985 579.858 18.3885 581.489 19.7885 583.159C21.2285 584.789 22.8285 586.318 24.3685 587.938C25.1485 588.738 25.9385 589.548 26.7285 590.368C27.5585 591.148 28.4185 591.898 29.2785 592.678C31.0185 594.198 32.7085 595.829 34.5585 597.339C40.3085 601.979 49.4185 609.009 62.8985 615.719C63.7385 616.149 64.5885 616.578 65.4485 617.008C66.3185 617.438 67.2385 617.788 68.1485 618.188C69.9785 618.968 71.8585 619.769 73.7985 620.599C75.7485 621.389 77.8085 622.029 79.8885 622.769C80.9285 623.129 81.9885 623.498 83.0585 623.868C84.1385 624.218 85.2485 624.478 86.3685 624.798C95.2485 627.468 105.308 629.179 116.218 629.709C117.998 629.779 119.778 629.908 121.558 629.918C123.338 629.928 125.118 629.878 126.898 629.808C130.458 629.638 133.998 629.299 137.498 628.699C145.028 627.419 152.788 624.908 159.568 620.428C162.948 618.208 166.068 615.528 168.738 612.438C171.388 609.328 173.568 605.798 175.028 601.988C177.978 594.358 178.098 586.038 176.498 578.558C174.918 571.018 171.568 564.298 167.748 558.608C163.908 552.908 159.628 548.148 155.548 544.168C153.478 542.208 151.558 540.328 149.628 538.758C148.678 537.958 147.778 537.158 146.888 536.438C145.978 535.738 145.108 535.068 144.278 534.428C143.448 533.798 142.678 533.169 141.908 532.639C141.138 532.109 140.418 531.609 139.738 531.139C138.388 530.219 137.248 529.388 136.268 528.818C134.328 527.618 133.278 526.978 133.278 526.978C133.278 526.978 132.888 526.739 132.138 526.279C131.368 525.859 130.238 525.238 128.778 524.438C128.048 524.048 127.249 523.579 126.339 523.139C125.429 522.699 124.438 522.229 123.378 521.719C121.278 520.639 118.769 519.699 116.049 518.539C110.518 516.449 103.788 514.319 96.1085 512.959C88.4485 511.589 79.8485 511.008 70.9385 511.808C62.0285 512.518 52.8385 514.729 44.2385 518.459C35.6285 522.149 27.6885 527.489 21.3185 533.969C14.9685 540.459 10.2185 547.988 7.2985 555.478C5.8285 559.218 4.8085 562.949 4.1885 566.519C3.8885 568.309 3.6485 570.048 3.5485 571.748C3.4985 572.598 3.3885 573.428 3.3985 574.238C3.3985 575.058 3.3885 575.859 3.3785 576.639C3.4385 581.359 4.0785 585.748 5.0185 589.758C5.9385 593.778 7.2485 597.409 8.6485 600.709C10.0185 604.029 11.6485 606.928 13.1785 609.608C14.7985 612.238 16.3985 614.619 18.0185 616.719C21.2385 620.939 24.3485 624.188 27.1485 626.818C29.9785 629.408 32.4385 631.488 34.6685 633.128C41.3585 638.208 48.2985 642.119 55.1085 645.349C61.9385 648.549 68.6685 651.058 75.2485 653.118C78.5285 654.158 81.7985 655.118 85.1485 655.608C88.4885 656.088 91.9185 656.098 95.1385 655.118C98.3285 654.158 101.249 652.309 103.229 649.639C104.199 648.299 104.898 646.759 105.218 645.149C105.548 643.539 105.518 641.878 105.218 640.308H105.238Z" fill="#82B536"/>
</g>
</g>
</g>
<defs>
<clipPath id="clip0_287_72515">
<rect width="960.01" height="540.04" fill="white"/>
</clipPath>
</defs>
</svg>
