<svg width="961" height="541" viewBox="0 0 961 541" fill="none" xmlns="http://www.w3.org/2000/svg">
<g clip-path="url(#clip0_287_72705)">
<mask id="mask0_287_72705" style="mask-type:luminance" maskUnits="userSpaceOnUse" x="0" y="0" width="960" height="540">
<path d="M960 0H0V540H960V0Z" fill="white"/>
</mask>
<g mask="url(#mask0_287_72705)">
<path d="M960 -0.490234H0V539.51H960V-0.490234Z" fill="#FFC716"/>
<path d="M253.201 404.979H212.431H158.741H69.2708H-21.1992V631.329H486.821V404.979H398.341H305.391H253.201Z" fill="#FCA700"/>
<path d="M225.351 404.979H212.431H158.741H69.2708H-21.1992V631.329H210.661L225.351 404.979Z" fill="#FFC716"/>
<path d="M600.6 152.209V134.839V111.969V73.8593V35.3193H485.6V646.179H600.6V214.039V174.439V152.209Z" fill="#FCA700"/>
<path d="M254.57 40.4598C239.63 -11.0502 199.81 -42.9102 145.89 -51.7002C135.78 -53.3502 125.19 -54.1902 114.16 -54.2002C102.66 -54.2002 91.6302 -53.2902 81.1202 -51.5402C21.8602 -41.6702 -20.3098 -4.30019 -31.2698 56.1598C-33.1198 66.3798 -34.0898 77.2498 -34.0898 88.7598C-34.0898 94.8098 -33.8198 100.68 -33.2898 106.37H225.42L254.57 40.4598Z" fill="#FFC716"/>
<path d="M990.081 241.559H856.261L738.051 -51.1406H860.611L990.081 241.559Z" fill="#FCA700"/>
<path d="M1020.47 699.52H562.461L532.73 241.5H1050.19L1020.47 699.52Z" fill="#FCA700"/>
<path d="M600.6 241.5H532.73L558.99 646.18H600.6V241.5Z" fill="#FFC716"/>
<path d="M1087.57 539.859C1090.5 523.459 1092.03 506.029 1092.04 487.589C1092.04 468.889 1090.5 451.219 1087.52 434.619C1069.79 335.809 1001.18 274.889 904.931 259.209C888.511 256.529 871.291 255.159 853.381 255.149C834.691 255.149 816.771 256.619 799.691 259.469C703.371 275.519 634.851 336.239 617.041 434.489C614.031 451.089 612.461 468.759 612.461 487.459C612.461 505.899 613.981 523.329 616.931 539.729C634.551 637.859 703.111 698.739 799.571 714.849C816.641 717.699 834.561 719.189 853.251 719.199C871.171 719.199 888.381 717.839 904.811 715.169C1001.22 699.519 1069.94 638.529 1087.58 539.859H1087.57Z" fill="#FFC716"/>
<path d="M804.109 163.639C805.369 156.619 806.019 149.159 806.019 141.259C806.019 133.249 805.359 125.689 804.079 118.579C796.489 76.2695 767.099 50.1895 725.869 43.4695C718.839 42.3195 711.459 41.7295 703.789 41.7295C696.119 41.7295 688.109 42.3595 680.799 43.5795C639.549 50.4495 610.199 76.4495 602.569 118.519C601.279 125.629 600.609 133.189 600.609 141.199C600.609 149.099 601.259 156.559 602.519 163.579C610.069 205.599 639.429 231.659 680.749 238.559C688.059 239.779 695.739 240.419 703.739 240.419C711.409 240.419 718.789 239.839 725.819 238.699C767.109 231.999 796.539 205.889 804.099 163.639H804.109Z" fill="#FCA700"/>
<path d="M279.93 -16.8701L93.3398 404.98H334.14L504.5 -16.8701H279.93Z" fill="#FCA700"/>
<path d="M260.25 106.37C260.77 100.7 261.04 94.8602 261.04 88.8402C261.04 77.3302 260.09 66.4602 258.26 56.2402C257.28 50.7902 256.05 45.5302 254.58 40.4502L225.43 106.36H260.25V106.37Z" fill="#FFC716"/>
<mask id="mask1_287_72705" style="mask-type:luminance" maskUnits="userSpaceOnUse" x="-11" y="-17" width="267" height="125">
<path d="M-10.2695 5.00981V107.37H225.88L255.03 41.4598C250.73 26.6298 240.29 2.70981 224.27 -13.0502L6.46047 -16.2002C5.73047 -15.1902 -9.57953 3.97981 -10.2695 5.00981Z" fill="white"/>
</mask>
<g mask="url(#mask1_287_72705)">
<path d="M30.2103 -1.99088C28.8003 -5.77088 27.7503 -5.39088 28.9303 -1.56088C30.5803 3.88912 32.3303 9.59912 34.3103 17.0091C35.4503 21.1991 36.1203 23.8291 36.6903 26.1291C37.2503 28.4291 37.7203 30.3891 38.2203 33.2891C39.1203 38.1791 39.9303 44.8291 40.2003 50.7491C40.4803 56.6791 40.2503 61.8591 40.1303 63.8691L40.0303 65.6491C39.9503 67.7791 39.6403 73.5291 38.2903 80.6191C36.9403 87.6891 34.4303 96.1091 30.7203 103.219C28.1503 108.269 25.5003 112.019 23.1903 114.789C20.8803 117.559 18.9503 119.389 17.5703 120.559C14.3303 123.369 11.1503 125.389 8.04035 126.859C4.92035 128.329 1.88034 129.309 -1.21966 129.889C-2.91966 130.209 -3.76966 130.519 -3.74966 130.799C-3.72966 131.059 -2.81966 131.289 -1.02966 131.079C2.21034 130.699 5.44035 129.839 8.75035 128.399C12.0603 126.959 15.4303 124.889 18.8003 121.969C20.1303 120.859 22.1103 119.049 24.4503 116.419C26.7703 113.779 29.4003 110.279 31.8403 105.809L32.9803 103.599C33.3203 102.849 33.6603 102.099 34.0003 101.349C36.7803 94.8191 39.0403 87.0191 40.1803 80.7891C40.4803 79.2291 40.7403 77.7891 40.9203 76.4791C41.1303 75.1791 41.2803 74.0191 41.3903 73.0591C41.6403 71.1391 41.7303 69.9991 41.7303 69.9991C41.7303 69.9991 41.7703 69.5791 41.8403 68.8091C41.9203 68.0491 41.9803 66.9391 42.0603 65.5691C42.2203 62.8391 42.3203 59.0691 42.1803 54.9491C42.0603 50.8291 41.7103 46.3591 41.2103 42.2191C40.7103 38.0791 40.0803 34.2791 39.5503 31.4591C37.9003 22.9791 36.7603 18.9791 36.1303 16.5091C34.1203 9.04912 32.1903 3.34912 30.2203 -2.01088L30.2103 -1.99088Z" fill="#FCA700"/>
<path d="M170.26 113.75C176.96 118.82 177.59 117.9 171.1 112.7C166.54 108.96 162.06 104.88 157.41 100.25C152.76 95.6196 147.95 90.4096 142.88 84.2696C137.13 77.3096 133.83 72.7197 130.99 68.7197C128.15 64.7097 125.82 61.2197 122.67 55.9697C120 51.5397 116.94 46.2796 114.6 40.4796C113.43 37.5796 112.47 34.5296 111.88 31.4396C111.28 28.3496 111.08 25.2096 111.3 22.2096C111.7 16.1796 113.99 10.7796 117.03 7.36965C118.52 5.63965 120.13 4.34965 121.55 3.37965C123.01 2.44965 124.25 1.77965 125.18 1.38965C125.72 1.13965 126.27 0.899648 126.84 0.699648C127.4 0.479648 127.96 0.269648 128.54 0.0996482C129.56 -0.250352 131.05 -0.620352 132.94 -0.970352C134.84 -1.27035 137.16 -1.47035 139.8 -1.34035C145.08 -1.10035 151.63 0.659648 158.23 4.11965C164.86 7.53965 171.61 12.4596 178.04 17.9996C178.86 18.6796 179.64 19.3996 180.43 20.1296C181.21 20.8596 182.01 21.5696 182.78 22.3096C184.3 23.8296 185.86 25.3096 187.3 26.8896C190.27 29.9896 193.01 33.2796 195.6 36.5696C199.26 41.2296 202.25 45.6796 204.76 49.7996C205.4 50.8196 206 51.8296 206.56 52.8196C207.12 53.8096 207.67 54.7696 208.2 55.7096C209.19 57.6196 210.18 59.3796 210.99 61.0996C214.33 67.9096 216.32 73.1296 217.56 76.7496C220.52 85.2796 222.14 93.0396 222.91 100.27C223.59 107.5 223.44 114.23 222.26 120.74C221.98 122.54 221.68 123.87 221.58 124.78C221.46 125.69 221.48 126.17 221.61 126.21C221.74 126.25 221.98 125.84 222.31 124.97C222.63 124.1 223.1 122.79 223.44 120.97C224.85 114.38 225.17 107.51 224.59 100.12C223.93 92.7397 222.33 84.8096 219.33 76.1396C218.18 72.7696 216.3 67.5996 213.21 61.0696C211.7 57.7896 209.78 54.2196 207.59 50.3496C205.32 46.5196 202.69 42.4196 199.6 38.1796C198.56 36.8196 197.54 35.4496 196.47 34.1196C195.37 32.8096 194.32 31.4796 193.18 30.2196C188.34 24.7296 182.71 19.2296 176.77 14.3596C170.8 9.54965 164.65 5.22965 158.74 2.23965C152.87 -0.810352 147.28 -2.39035 143.26 -2.96035C141.25 -3.28035 139.61 -3.33035 138.5 -3.36035C137.39 -3.35035 136.78 -3.34035 136.78 -3.34035C136.78 -3.34035 135.88 -3.31035 134.26 -3.16035C132.65 -2.98035 130.32 -2.61035 127.55 -1.72035C124.8 -0.840352 121.62 0.669648 118.62 3.08965C115.63 5.50965 112.98 8.98965 111.42 13.0996C109.82 17.1996 109.21 21.8196 109.46 26.3696C109.7 30.9397 110.86 35.3896 112.39 39.4796C113.92 43.5696 115.83 47.3096 117.68 50.6596C119.54 54.0096 121.36 56.9796 122.91 59.5196C132.45 74.7196 138.11 81.3096 141.41 85.4496C146.53 91.6396 151.42 96.8597 156.17 101.48C160.93 106.08 165.53 110.1 170.23 113.74L170.26 113.75Z" fill="#FCA700"/>
<path d="M110.16 127.299C112.14 128.979 113.7 130.139 114.78 130.849C115.86 131.569 116.46 131.859 116.55 131.739C116.65 131.619 116.24 131.089 115.32 130.179C114.39 129.279 112.96 127.979 111.03 126.269C105.55 121.449 100.23 116.179 94.9 110.069C93.54 108.569 92.27 106.939 90.91 105.319C89.62 103.649 88.25 101.979 86.97 100.169C84.34 96.6195 81.77 92.7495 79.29 88.5095C76.48 83.7095 74.44 79.6695 72.88 76.1195C71.26 72.5895 70.13 69.5395 69.18 66.6795C68.7 65.2495 68.26 63.8595 67.89 62.4595C67.47 61.0695 67.16 59.6595 66.82 58.2095C66.19 55.2995 65.62 52.1695 65.33 48.4195C65.15 46.8395 65.15 45.1795 65.08 43.4695C65.12 41.7595 65.09 39.9895 65.27 38.1895C65.54 34.5895 66.13 30.8195 67.24 27.1295C68.32 23.4295 69.87 19.7995 71.82 16.4095C72.3 15.5595 72.88 14.7695 73.4 13.9495L74.2 12.7295L75.09 11.5895C75.69 10.8395 76.27 10.0595 76.88 9.32946C77.53 8.62946 78.17 7.92946 78.81 7.23946C79.43 6.52946 80.13 5.90946 80.81 5.27946C81.5 4.65946 82.14 3.99946 82.85 3.43946C84.28 2.32946 85.62 1.15946 87.08 0.229463C87.79 -0.260537 88.49 -0.730538 89.18 -1.20054C89.9 -1.62054 90.6 -2.04054 91.29 -2.45054C92.65 -3.30054 94.05 -3.95054 95.34 -4.62054C100.59 -7.18054 105.02 -8.50054 107.48 -9.20054C108.94 -9.63054 110.43 -9.92054 111.91 -10.3105C114.57 -10.8505 119.52 -11.8905 126.19 -12.0505C127.02 -12.0705 127.88 -12.0805 128.77 -12.1005C129.65 -12.0805 130.56 -12.0605 131.49 -12.0305C133.35 -12.0205 135.3 -11.8205 137.33 -11.6805C141.38 -11.2805 145.74 -10.6305 150.29 -9.68054C168.52 -5.89054 189.32 3.23946 207.91 12.5595C221.03 19.2095 231.21 25.4195 239.01 30.6595C246.85 35.8695 252.25 40.2095 255.95 43.1695C264.63 50.2595 271.63 57.1295 277.67 63.8595C283.76 70.5395 288.61 77.3095 293.09 84.1895C297.8 91.8895 298.67 91.4595 294.11 83.5595C289.77 76.5095 285.01 69.5695 278.94 62.7395C272.93 55.8695 265.89 48.8795 257.14 41.7195C255.41 40.3695 253.28 38.5595 250.61 36.5295C247.9 34.5495 244.82 32.1195 241.12 29.6495C233.81 24.5695 224.44 18.6895 213 12.6895C211.13 11.7295 209.25 10.7795 207.38 9.81946C205.51 8.85946 203.6 8.00946 201.72 7.10946C193.56 3.31946 184.72 -0.600537 175.87 -3.93054C171.45 -5.59054 167.03 -7.13054 162.72 -8.43054C158.4 -9.72054 154.2 -10.8005 150.22 -11.6405C142.26 -13.2905 135.26 -13.9105 130.29 -14.0005C129.05 -14.0605 127.93 -14.0205 126.96 -14.0005C125.98 -13.9805 125.15 -13.9905 124.47 -13.9505C123.11 -13.8605 122.38 -13.8105 122.38 -13.8105C122.38 -13.8105 122.11 -13.7905 121.58 -13.7605C121.06 -13.7305 120.29 -13.6805 119.31 -13.5405C118.33 -13.4105 117.12 -13.2905 115.74 -13.0705C114.36 -12.8005 112.78 -12.5805 111.06 -12.1605C107.61 -11.4005 103.59 -10.1905 99.27 -8.48054C94.97 -6.73054 90.42 -4.35054 86.06 -1.28054C81.7 1.78946 77.54 5.58946 74.11 10.0295C70.68 14.4495 68 19.4895 66.29 24.6195C64.56 29.7595 63.75 34.9495 63.53 39.7095C63.31 44.4795 63.66 48.8395 64.16 52.5095C64.92 58.0495 66.14 62.7695 67.42 66.8095C68.72 70.8495 70.03 74.2495 71.34 77.1095C73.91 82.8495 76 86.6395 77.68 89.4695C80.19 93.7695 82.81 97.6895 85.5 101.269C86.81 103.089 88.2 104.779 89.52 106.459C90.91 108.079 92.21 109.719 93.6 111.229C99.06 117.349 104.53 122.569 110.15 127.309L110.16 127.299Z" fill="#FCA700"/>
<path d="M270.03 76.659C274.15 73.929 273.47 73.039 269.31 75.519C267.83 76.389 266.37 77.349 264.74 78.079C263.13 78.839 261.52 79.729 259.77 80.479C257.99 81.159 256.16 81.919 254.21 82.649C253.21 82.939 252.19 83.239 251.14 83.549C250.62 83.709 250.09 83.859 249.55 84.019C249.01 84.179 248.47 84.349 247.9 84.439C246.62 84.699 245.46 84.939 244.4 85.159C243.87 85.269 243.36 85.379 242.88 85.479C242.39 85.539 241.92 85.599 241.46 85.649C239.65 85.849 238.13 86.089 236.71 86.199C235.28 86.239 233.97 86.279 232.56 86.329C232.21 86.329 231.85 86.349 231.48 86.359C231.11 86.329 230.74 86.309 230.36 86.279C229.59 86.219 228.77 86.159 227.89 86.089C227.14 86.019 226.36 85.999 225.56 85.879C224.76 85.749 223.93 85.609 223.09 85.469C222.24 85.329 221.38 85.189 220.5 85.039C219.63 84.819 218.75 84.609 217.86 84.379C216.97 84.159 216.07 83.929 215.17 83.709L212.51 82.839C211.63 82.549 210.75 82.249 209.87 81.959C209.02 81.609 208.17 81.269 207.34 80.929C206.51 80.589 205.69 80.249 204.89 79.929C204.11 79.549 203.35 79.189 202.61 78.829C201.14 78.109 199.74 77.469 198.54 76.759C197.33 76.079 196.24 75.479 195.33 74.969C194.43 74.439 193.72 73.969 193.2 73.649L191.35 72.519C190.79 72.199 190.01 71.699 189.05 71.059C188.09 70.409 186.92 69.669 185.61 68.759C184.33 67.819 182.89 66.769 181.33 65.629C179.83 64.409 178.15 63.169 176.48 61.729C173.1 58.909 169.54 55.589 166.02 52.059C162.53 48.489 159.13 44.669 156.04 40.849C151.67 35.459 148.43 30.849 146.24 27.049C145.67 26.109 145.22 25.199 144.83 24.369C144.67 23.949 144.48 23.589 144.36 23.159C144.23 22.739 144.1 22.329 143.98 21.939C143.51 20.379 143.19 19.049 142.96 17.969C142.41 15.409 142.08 12.979 141.91 10.669C141.76 8.34902 141.77 6.15902 141.9 4.04902C142.22 -0.150976 143.01 -3.97098 144.36 -7.57098C145.09 -9.54098 145.38 -10.591 145.12 -10.731C145 -10.791 144.76 -10.611 144.43 -10.171C144.11 -9.73098 143.65 -9.03098 143.24 -8.02098C141.64 -4.39098 140.66 -0.440977 140.21 3.90902C140.02 6.08902 139.97 8.36902 140.09 10.779C140.24 13.189 140.57 15.709 141.13 18.359C141.34 19.389 141.65 20.689 142.07 22.249C142.32 23.029 142.48 23.839 142.88 24.779C143.05 25.259 143.27 25.699 143.49 26.159C143.72 26.619 143.94 27.099 144.21 27.559C146.27 31.309 149.17 35.709 152.97 40.539C154.22 42.099 155.48 43.659 156.82 45.119C162.46 51.559 169.55 58.389 175.44 63.329C178.39 65.789 181 67.829 182.91 69.199C184.78 70.619 185.95 71.379 185.95 71.379C185.95 71.379 186.38 71.669 187.15 72.189C187.94 72.689 189.02 73.509 190.46 74.339C191.17 74.769 191.95 75.239 192.79 75.749C193.21 75.999 193.64 76.269 194.08 76.529C194.54 76.779 195.01 77.029 195.49 77.289C196.46 77.809 197.47 78.349 198.51 78.919C199.56 79.479 200.69 79.959 201.83 80.509C204.08 81.639 206.56 82.519 209 83.509C210.24 83.949 211.51 84.329 212.75 84.729C213.37 84.929 213.99 85.129 214.61 85.319C215.24 85.469 215.86 85.629 216.48 85.779C217.72 86.079 218.94 86.369 220.12 86.659C221.32 86.849 222.48 87.039 223.6 87.219C225.82 87.649 227.89 87.699 229.64 87.859C230.3 87.909 230.94 87.969 231.56 87.989C232.18 87.989 232.78 87.979 233.36 87.969C234.52 87.959 235.6 87.939 236.61 87.929C238.63 87.829 240.34 87.579 241.83 87.449C243.33 87.349 244.55 86.999 245.62 86.819C246.68 86.609 247.57 86.429 248.34 86.279C248.93 86.179 249.49 86.009 250.04 85.839C250.59 85.669 251.14 85.509 251.68 85.349C252.76 85.019 253.8 84.699 254.82 84.389C256.81 83.619 258.68 82.819 260.48 82.069C262.26 81.259 263.87 80.309 265.49 79.469C267.13 78.669 268.57 77.619 270.03 76.669V76.659Z" fill="#FCA700"/>
</g>
<mask id="mask2_287_72705" style="mask-type:luminance" maskUnits="userSpaceOnUse" x="486" y="36" width="116" height="592">
<path d="M486.061 627.24H558.151L533.191 242.5H601.051V215.04V175.45V153.21V135.85V112.98V74.8701V36.3301H486.061V627.24Z" fill="white"/>
</mask>
<g mask="url(#mask2_287_72705)">
<path d="M487.74 105.949C483.15 106.309 480.9 106.939 480.94 107.229C480.98 107.549 483.28 107.529 487.83 107.289C494.28 106.979 500.93 107.069 508.06 107.809C515.17 108.619 522.79 110.169 530.92 113.229C535.53 114.939 539.14 116.689 542.17 118.309C543.7 119.089 545.04 119.929 546.33 120.659C547.57 121.459 548.78 122.149 549.87 122.929C550.98 123.679 552.05 124.409 553.06 125.189C553.57 125.579 554.1 125.949 554.6 126.349C555.09 126.769 555.58 127.189 556.08 127.609C556.57 128.039 557.1 128.459 557.59 128.929C558.06 129.419 558.55 129.919 559.05 130.439C560.09 131.429 560.99 132.669 562.02 133.959C565.45 138.389 568.1 144.539 569.52 151.229C570.84 157.959 570.97 165.169 570.38 171.879C569.15 185.349 565.78 196.809 564.58 201.239C564.21 202.549 563.84 203.859 563.46 205.179C562.78 207.529 561.54 211.869 559.67 217.549C557.82 223.239 555.39 230.269 552.56 238.069C546.94 253.689 539.62 272.349 534.12 290.109C530.28 302.659 527.97 313.109 527.14 321.549C526.2 329.969 526.84 336.309 527.66 340.539C528.64 345.549 530.47 350.119 533.07 353.899C535.66 357.689 538.96 360.639 542.43 362.849C542.86 363.129 543.3 363.409 543.73 363.679C544.16 363.949 544.63 364.159 545.07 364.399C545.97 364.849 546.84 365.349 547.75 365.739C549.58 366.479 551.37 367.259 553.21 367.769C556.85 368.969 560.52 369.639 564.17 370.209C568.2 370.719 570.24 370.629 570.26 370.379C570.29 370.089 568.31 369.639 564.36 369.029C560.78 368.359 557.19 367.609 553.68 366.359C551.89 365.819 550.18 365.029 548.42 364.279C547.55 363.889 546.72 363.389 545.86 362.949C545.44 362.709 544.99 362.509 544.58 362.239C544.17 361.969 543.76 361.699 543.35 361.419C540.06 359.259 536.98 356.449 534.57 352.859C532.15 349.279 530.42 344.969 529.49 340.159C528.74 336.439 528.22 330.509 529.03 322.759C529.82 315.009 531.82 305.499 535.05 294.599C536.09 291.039 537.19 287.499 538.28 283.989C543.07 268.849 549.6 251.749 554.47 238.279C559.4 224.829 562.55 214.959 562.55 214.959C562.55 214.959 562.84 214.039 563.36 212.379C563.89 210.719 564.62 208.309 565.48 205.329C567.2 199.369 569.42 191.089 570.92 181.809C571.66 177.169 572.23 172.289 572.4 167.359C572.54 162.429 572.28 157.459 571.46 152.739C570.65 148.019 569.24 143.569 567.4 139.719C565.57 135.859 563.21 132.719 561.06 130.189C560.19 129.289 559.36 128.409 558.55 127.569C557.67 126.799 556.81 126.059 555.99 125.339C554.31 123.959 552.69 122.759 551.13 121.689C548.03 119.539 545.26 117.869 542.8 116.559C537.88 113.909 534.29 112.489 531.57 111.429C523.27 108.309 515.47 106.769 508.23 106.039C500.97 105.369 494.25 105.409 487.74 105.889V105.949Z" fill="#FFC716"/>
<path d="M485.7 70.2894C479.23 74.0294 479.81 74.9794 486.34 71.4794C491 69.0394 495.86 66.6994 501.22 64.3594C506.58 62.0294 512.451 59.7294 519.211 57.5894C523.031 56.3694 526.18 55.4994 528.89 54.8094C530.25 54.4794 531.5 54.1694 532.67 53.8794C533.85 53.6294 534.961 53.3894 536.031 53.1594C538.161 52.6994 540.16 52.3894 542.29 52.0194C544.43 51.7494 546.69 51.3794 549.41 51.1994C553.98 50.8094 559.39 50.4894 564.95 50.9594C570.49 51.4094 576.22 52.7194 580.88 55.3694C583.21 56.6794 585.23 58.3294 586.85 60.1194C588.47 61.9094 589.71 63.8394 590.63 65.6794C591.56 67.5094 592.181 69.2594 592.591 70.7494C593.021 72.2394 593.25 73.4894 593.39 74.3894C593.56 75.4494 593.691 76.5194 593.771 77.5994C593.861 78.5594 593.9 79.9294 593.86 81.6494C593.78 83.3594 593.57 85.4394 593.11 87.7694C592.21 92.4294 590.19 98.0794 587 103.929C580.67 115.699 570.28 128.369 558.82 137.949C550.78 144.789 543.55 149.419 537.73 152.819C531.87 156.189 527.381 158.329 524.271 159.749C516.931 163.079 510.29 165.489 504.09 167.459C497.88 169.429 492.09 170.929 486.29 172.209C479.92 173.549 480.06 174.509 486.53 173.389C492.4 172.309 498.28 170.949 504.58 169.069C510.88 167.199 517.61 164.809 525.04 161.449C527.92 160.129 532.37 158.099 538 154.989C543.61 151.859 550.39 147.589 557.69 141.739L561.19 138.799C562.31 137.769 563.43 136.749 564.55 135.729C569.28 131.239 574.02 126.059 578.2 120.659C580.29 117.959 582.27 115.219 584.04 112.489C585.83 109.779 587.461 107.099 588.841 104.499C591.631 99.3294 593.431 94.5494 594.341 91.0494C594.821 89.3094 595.091 87.8894 595.271 86.9194C595.421 85.9394 595.51 85.4194 595.51 85.4194C595.51 85.4194 595.62 84.6294 595.75 83.1894C595.87 81.7494 595.95 79.6594 595.75 77.0894C595.54 74.5294 595.02 71.4794 593.85 68.2894C593.27 66.6894 592.54 65.0594 591.6 63.4594C590.66 61.8694 589.561 60.2794 588.211 58.8594C586.871 57.4294 585.35 56.1094 583.67 54.9794C581.98 53.8694 580.161 52.9194 578.281 52.1394C574.491 50.6294 570.48 49.8094 566.61 49.4094C562.74 49.0294 558.99 48.9894 555.58 49.1594C552.16 49.2794 549.06 49.5694 546.41 49.8294C538.45 50.7494 532.63 51.9794 528.25 53.0794C526.05 53.5994 524.22 54.1494 522.64 54.5694C521.07 55.0494 519.76 55.4394 518.63 55.7894C511.8 57.9494 505.88 60.3294 500.5 62.7594C495.13 65.1994 490.29 67.6794 485.68 70.2794L485.7 70.2894Z" fill="#FFC716"/>
<path d="M622.821 131.12C626.061 126.99 625.181 126.31 621.791 130.25C616.911 135.79 611.611 141.45 604.411 148.35C600.351 152.28 597.761 154.68 595.501 156.77C593.231 158.85 591.281 160.6 588.341 163.06C583.381 167.22 576.521 172.6 570.291 177.21C564.081 181.85 558.521 185.73 556.351 187.21L554.441 188.55C552.161 190.15 546.041 194.51 537.991 199.43C529.951 204.36 519.901 209.73 510.161 213.64C503.301 216.44 497.581 218.28 493.011 219.54C488.441 220.79 485.031 221.55 482.681 221.99C471.581 224.14 463.111 224.63 454.811 224.5C450.261 224.34 450.151 225.31 454.751 225.7C463.121 226.26 471.781 226 483.031 223.83C487.381 222.97 496.591 221.3 508.831 216.54C510.811 215.74 512.791 214.94 514.701 214.03C518.851 212.12 523.241 209.93 527.451 207.67C531.661 205.39 535.681 203.04 539.181 200.92C542.681 198.8 545.641 196.88 547.731 195.51C549.811 194.13 551.041 193.31 551.041 193.31C551.041 193.31 551.501 193 552.321 192.45C553.141 191.89 554.321 191.07 555.771 190.07C558.661 188.04 562.621 185.2 566.891 182.01C575.441 175.64 585.241 167.85 590.901 163.02C599.431 155.76 603.311 152 605.701 149.71C612.931 142.75 618.161 136.91 622.811 131.12H622.821Z" fill="#FFC716"/>
<path d="M513.94 27.2797C512.04 25.8397 510.88 25.4297 510.72 25.6697C510.53 25.9397 511.32 26.8397 513.1 28.3297C515.6 30.4597 517.99 32.8397 520.31 35.6597C522.63 38.4797 524.9 41.7097 527 45.6097C529.39 50.0197 530.54 52.9597 531.5 55.5197C532.42 58.0997 533.09 60.3397 533.76 63.6897C534.33 66.5197 534.72 69.8897 534.86 73.4097C535 76.9297 534.85 80.5997 534.47 84.0297C533.73 90.8997 532.03 96.7297 531.33 98.9597L530.7 100.94C530.35 102.13 529.61 104.3 528.5 107.13C527.89 108.52 527.2 110.08 526.45 111.77C525.68 113.45 524.69 115.19 523.73 117.07C519.7 124.48 513.4 132.58 506.6 139.08C505.45 140.28 504.22 141.28 503.11 142.3C501.99 143.31 500.92 144.26 499.84 145.08C498.78 145.92 497.78 146.72 496.83 147.47C495.86 148.19 494.93 148.83 494.06 149.46C493.19 150.07 492.39 150.67 491.62 151.18C490.84 151.68 490.11 152.14 489.45 152.56C488.11 153.4 487.02 154.15 486.06 154.65C477.27 159.73 470.23 162.7 463.2 165.21C459.33 166.56 459.57 167.5 463.57 166.36C470.81 164.23 478.06 161.43 487.01 156.27C490.42 154.2 497.82 150.11 506.6 142.13C508.02 140.82 509.34 139.42 510.68 138.05C512.09 136.54 513.44 134.88 514.88 133.26C516.22 131.56 517.57 129.84 518.88 128.12C520.09 126.33 521.37 124.61 522.46 122.87C523.51 121.1 524.6 119.44 525.48 117.81C526.34 116.17 527.15 114.65 527.87 113.28C528.5 111.87 529.06 110.63 529.53 109.6C530 108.57 530.37 107.75 530.58 107.17C530.81 106.6 530.93 106.28 530.93 106.28C530.93 106.28 531.68 104.43 532.66 101.37C533.64 98.3197 534.79 94.0397 535.57 89.2697C536.38 84.4997 536.7 79.2197 536.56 74.3197C536.39 69.4197 535.7 64.9197 534.96 61.6197C533.85 56.6497 532.51 53.0997 531.39 50.4497C530.28 47.7997 529.34 46.0497 528.63 44.7197C526.45 40.7097 524.07 37.3897 521.61 34.5497C519.15 31.6997 516.6 29.3397 513.92 27.2797H513.94Z" fill="#FFC716"/>
<path d="M583.65 408.65C586.53 406.07 585.79 405.24 582.79 407.61C578.51 410.94 573.94 414.36 567.78 418.29C566.05 419.43 564.59 420.26 563.37 421.05C562.12 421.78 561.08 422.39 560.11 422.96C559.15 423.55 558.21 424.01 557.23 424.53C556.24 425.04 555.2 425.59 553.9 426.14C549.6 428.14 543.58 430.31 538.08 431.59C536.7 431.88 535.37 432.2 534.1 432.44C532.83 432.64 531.64 432.83 530.56 433.01C528.4 433.28 526.69 433.42 525.74 433.52C525.17 433.54 524.61 433.58 524.04 433.62C523.53 433.66 522.82 433.71 521.91 433.77C521.01 433.85 519.92 433.8 518.68 433.83C518.06 433.83 517.4 433.83 516.71 433.84C516.02 433.84 515.3 433.76 514.54 433.73C513.03 433.64 511.4 433.57 509.7 433.31C502.87 432.53 494.75 430.46 487.66 427.47C477.64 423.24 472.01 419.43 469.07 417.53C462.16 412.91 457.32 408.98 452.69 404.99C450.16 402.79 449.47 403.47 451.87 405.87C456.25 410.21 461.02 414.39 468.03 419.09C470.76 420.88 476.35 424.93 485.25 428.82C485.97 429.13 486.69 429.46 487.43 429.74C488.17 430 488.91 430.26 489.65 430.53C496.03 432.77 503.61 434.56 509.65 435.22C511.15 435.45 512.56 435.53 513.82 435.6C515.08 435.66 516.19 435.81 517.12 435.78C518.98 435.78 520.07 435.79 520.07 435.79C520.07 435.79 520.48 435.79 521.22 435.79C521.96 435.77 523.02 435.69 524.33 435.61C526.95 435.47 530.54 434.99 534.43 434.25C538.29 433.41 542.48 432.36 546.23 430.97C546.7 430.81 547.17 430.65 547.63 430.49C548.09 430.31 548.53 430.13 548.98 429.96C549.87 429.61 550.72 429.27 551.55 428.95C553.17 428.26 554.64 427.58 555.9 427.02C563.36 423.4 566.68 421.16 568.77 419.89C575.01 415.89 579.53 412.29 583.64 408.67L583.65 408.65Z" fill="#FFC716"/>
<path d="M550.229 527.53C551.999 527.69 553.339 527.65 554.219 527.5C555.099 527.37 555.529 527.21 555.519 527.05C555.509 526.89 555.069 526.75 554.209 526.64C553.349 526.55 552.069 526.4 550.379 526.19C545.569 525.57 540.819 523.83 536.169 521.11C531.539 518.34 527.029 514.51 523.029 509.31C518.529 503.37 516.559 499.05 514.849 495.37C513.229 491.63 511.989 488.35 510.629 483.43C508.319 475.11 506.349 463.62 505.709 453.32C505.089 443.01 505.559 433.97 505.849 430.48C505.919 429.45 505.969 428.41 506.069 427.37C506.229 425.52 506.469 422.09 507.059 417.59C507.299 415.33 507.759 412.82 508.159 410.08C508.409 408.72 508.679 407.3 508.949 405.84C509.089 405.11 509.229 404.37 509.369 403.61C509.539 402.86 509.709 402.1 509.879 401.33C512.459 388.99 517.289 374.51 523.099 361.71C531.359 343.63 538.289 333.37 541.749 327.98C545.909 321.64 549.809 316.27 553.519 311.39C557.209 306.5 560.749 302.13 564.329 297.85C568.289 293.18 567.579 292.52 563.419 297.06C559.669 301.21 555.979 305.5 552.179 310.36C548.359 315.2 544.389 320.57 540.189 326.95C536.959 331.91 529.889 342.15 522.409 357.99C521.809 359.28 521.189 360.57 520.639 361.88C520.089 363.19 519.549 364.5 518.999 365.81C516.749 371.48 514.449 377.62 512.589 383.74C510.729 389.86 509.079 395.89 507.969 401.25C507.329 403.92 506.939 406.44 506.479 408.68C506.069 410.93 505.789 412.92 505.519 414.58C505.229 416.23 505.119 417.56 504.989 418.46C504.879 419.37 504.809 419.86 504.809 419.86C504.809 419.86 504.719 420.59 504.559 421.91C504.439 423.24 504.269 425.15 504.049 427.51C503.729 432.24 503.339 438.77 503.589 445.92C503.779 453.07 504.489 460.83 505.659 467.98C506.799 475.13 508.359 481.66 509.819 486.44C511.989 493.66 514.369 498.76 516.399 502.52C518.469 506.26 520.189 508.66 521.549 510.45C525.699 515.84 530.449 519.8 535.309 522.6C540.189 525.36 545.209 527.05 550.239 527.52L550.229 527.53Z" fill="#FFC716"/>
<path d="M477.68 314.199C476.15 318.409 477.2 318.789 478.93 314.699C481.43 308.899 484.14 302.859 488.05 295.309C489.13 293.149 490.07 291.439 490.86 289.949C491.64 288.459 492.33 287.229 492.98 286.089C494.24 283.789 495.4 281.879 497.17 279.129C500.19 274.499 504.6 268.519 508.91 263.539C513.19 258.529 517.32 254.499 518.96 252.969L520.4 251.599C520.83 251.189 521.43 250.599 522.19 249.859C522.98 249.149 523.92 248.299 525 247.339C527.15 245.399 529.94 243.129 533.16 240.739C536.39 238.369 540.11 235.969 544.06 233.759C548.01 231.539 552.27 229.649 556.45 228.129C562.36 225.969 567.37 224.939 571.34 224.359C573.34 224.149 575.06 223.899 576.56 223.879C578.05 223.819 579.29 223.729 580.31 223.799C585.09 223.829 589.25 224.399 593.02 225.249C596.79 226.099 600.17 227.239 603.43 228.589C605.22 229.339 606.2 229.559 606.33 229.309C606.45 229.079 605.71 228.369 603.93 227.489C600.69 225.919 597.28 224.589 593.42 223.599C589.57 222.609 585.27 221.959 580.33 221.919C579.37 221.859 578.15 221.909 576.69 221.949C575.22 221.949 573.52 222.109 571.58 222.299C567.72 222.749 562.94 223.599 557.59 225.389C555.86 226.009 554.12 226.599 552.47 227.379C548.85 228.919 545.13 230.889 541.58 232.949C538.02 234.999 534.73 237.289 531.88 239.329C530.47 240.379 529.18 241.379 528.02 242.269C526.89 243.199 525.89 244.019 525.06 244.699C523.45 246.109 522.5 246.949 522.5 246.949C522.5 246.949 522.15 247.259 521.51 247.829C520.86 248.379 519.98 249.239 518.89 250.289C517.79 251.329 516.49 252.579 515.12 254.029C514.43 254.749 513.7 255.499 512.95 256.279C512.23 257.079 511.48 257.919 510.72 258.769C509.16 260.449 507.68 262.309 506.13 264.139C504.64 266.009 503.15 267.889 501.78 269.749C500.43 271.619 499.09 273.399 497.97 275.109C496.82 276.799 495.77 278.339 494.93 279.699C494.29 280.709 493.69 281.659 493.13 282.549C492.59 283.449 492.1 284.289 491.63 285.079C491.16 285.869 490.73 286.589 490.33 287.269C489.95 287.959 489.59 288.599 489.26 289.189C488.6 290.369 488.05 291.369 487.58 292.229C487.13 293.099 486.75 293.829 486.43 294.459C482.49 302.089 479.92 308.269 477.71 314.219L477.68 314.199Z" fill="#FFC716"/>
<path d="M583.451 348.529C584.251 346.669 585.101 344.829 585.961 342.999C585.961 342.999 587.281 340.719 588.871 337.989C590.451 335.259 592.341 332.099 593.231 330.169C596.161 325.769 599.251 321.479 602.591 317.399C602.591 317.399 603.581 316.079 604.751 314.579C605.911 313.079 607.281 311.429 607.881 310.619C608.601 309.589 609.091 308.889 609.091 308.579C609.111 308.269 608.511 308.369 607.381 309.199C606.271 310.029 604.671 311.589 602.661 314.129C602.591 314.169 602.401 314.349 602.341 314.349C598.271 319.859 594.011 324.879 590.361 330.809C590.531 330.809 590.511 331.069 590.331 331.209L590.211 331.049C588.081 335.169 586.111 337.369 584.621 341.389C584.621 341.389 584.641 340.859 584.641 340.839C581.201 347.209 577.441 354.879 574.281 362.979C571.111 371.069 568.601 379.599 567.231 387.349L567.271 387.279L567.291 387.319C567.511 386.619 568.061 384.579 568.591 382.739C569.141 380.899 569.631 379.229 569.631 379.229C569.161 384.469 567.061 390.049 566.381 395.589L566.151 395.519C566.321 394.329 566.461 393.199 566.561 392.259C566.681 391.319 566.761 390.579 566.781 390.149C565.871 394.369 564.901 400.849 564.841 407.339C564.671 413.829 565.501 420.269 566.421 424.319C566.561 424.079 565.731 421.599 566.251 420.869C566.371 421.919 566.581 422.959 566.781 423.989C566.961 425.019 567.191 426.019 567.401 426.999C567.031 427.079 566.911 425.919 566.791 425.709C566.891 426.559 567.661 431.609 569.991 438.089C571.171 441.319 572.711 444.889 574.641 448.439C576.591 451.969 578.901 455.459 581.361 458.629C583.791 461.829 586.461 464.609 588.851 466.989C591.291 469.329 593.531 471.199 595.221 472.519C598.681 475.079 599.791 475.619 596.801 472.689L597.251 472.799C593.961 470.039 591.361 467.569 588.551 464.099C588.091 463.669 588.071 463.589 587.931 463.719C587.791 463.619 587.561 463.459 587.551 463.569C587.251 463.949 586.411 462.809 586.011 462.329C586.811 462.099 584.531 459.529 582.121 456.599C579.741 453.659 577.271 450.299 576.841 449.419C577.061 449.069 576.561 448.259 576.021 447.359C575.491 446.449 574.871 445.469 574.741 444.889C574.801 444.949 575.191 445.339 575.241 445.389C575.151 444.849 573.011 440.839 571.561 437.299C571.211 436.409 570.861 435.569 570.591 434.829C570.341 434.079 570.131 433.449 570.001 432.999C569.741 432.099 569.771 431.929 570.341 433.039C569.751 430.569 569.251 427.819 568.751 424.889C568.311 421.949 567.931 418.799 567.711 415.509C567.511 412.209 567.451 408.779 567.561 405.259C567.681 401.749 567.991 398.169 568.461 394.589C570.321 380.259 575.171 366.169 580.241 356.459L580.101 356.579C580.201 356.429 580.371 355.919 580.521 355.839C580.841 354.799 581.531 352.959 582.191 351.399C582.831 349.829 583.441 348.539 583.441 348.539L583.451 348.529ZM567.341 396.099C567.341 396.099 567.371 396.129 567.381 396.119C567.311 396.119 567.031 398.929 567.001 399.039L566.771 398.999C566.581 396.079 569.171 389.769 567.581 395.869C567.611 396.089 567.421 396.069 567.331 396.099H567.341ZM567.361 421.179C567.401 421.669 567.451 422.199 567.541 422.779C566.661 419.619 566.291 415.759 566.251 411.839C566.211 407.909 566.511 403.929 566.641 400.339C567.051 401.599 567.051 403.659 566.951 405.789C566.931 406.859 566.861 407.949 566.811 408.959C566.781 409.969 566.751 410.909 566.751 411.679C567.101 414.759 567.091 418.419 567.351 421.169L567.361 421.179ZM583.811 459.289L583.921 459.219L584.061 459.399C584.061 459.399 583.991 459.419 583.951 459.399C583.911 459.389 583.841 459.339 583.821 459.289H583.811ZM581.431 351.389C581.401 351.909 580.511 353.499 580.691 352.249C580.881 351.989 581.111 351.109 581.431 351.389ZM568.431 428.479C568.801 428.399 569.481 430.669 568.961 430.819C568.751 430.029 568.581 429.249 568.431 428.479ZM589.501 335.489C589.471 334.729 589.771 335.129 590.101 335.079C589.971 335.189 589.651 335.669 589.551 335.469L589.491 335.489H589.501ZM595.311 325.889C595.231 325.639 595.491 325.049 595.651 324.799C596.211 324.249 595.651 325.709 595.311 325.889ZM606.681 311.309C606.531 311.129 606.791 310.759 607.041 310.829C607.131 310.979 606.851 311.459 606.601 311.329C606.611 311.329 606.641 311.329 606.681 311.309ZM570.971 439.359C570.051 439.019 569.861 436.699 569.271 435.649C570.001 435.679 570.241 437.849 570.671 438.669C570.791 438.959 570.891 439.189 570.971 439.369V439.359ZM573.271 367.669C572.681 367.489 573.991 365.329 574.151 364.519L574.371 364.619C574.011 365.789 573.871 366.519 573.291 367.629L573.271 367.679V367.669ZM565.591 417.439C565.311 416.999 565.461 416.189 565.421 415.719C565.761 415.699 566.001 417.709 565.591 417.449V417.439ZM566.001 396.839C566.381 396.779 566.081 397.769 566.091 398.059C566.041 397.849 565.851 397.449 565.881 397.219C565.901 397.049 565.951 397.019 566.001 396.849V396.839ZM573.191 368.589C572.891 369.479 572.551 370.449 572.231 371.379L572.011 371.279C572.321 370.329 572.631 369.399 572.971 368.489L573.191 368.589ZM569.961 377.649L569.731 377.579C569.891 376.169 570.521 376.189 569.971 377.609V377.639L569.961 377.649ZM577.461 356.939C577.391 357.069 577.281 357.269 577.231 357.399C576.471 359.229 576.781 356.329 577.461 356.939ZM581.651 347.429C581.711 347.239 581.761 346.969 581.861 346.779C582.521 345.539 582.331 347.179 581.651 347.429Z" fill="#FFC716"/>
</g>
<mask id="mask3_287_72705" style="mask-type:luminance" maskUnits="userSpaceOnUse" x="738" y="-52" width="253" height="294">
<path d="M856.051 241.469H856.181L990.741 240.809L860.621 -50.7806L738.471 -51.1406L856.051 241.469Z" fill="white"/>
</mask>
<g mask="url(#mask3_287_72705)">
<path d="M777.742 49.3391C772.322 50.8091 769.772 52.0391 769.862 52.2991C769.962 52.6191 772.692 51.9791 778.082 50.6391C785.742 48.7591 793.722 47.3791 802.462 46.6291C811.192 45.8791 820.682 45.7591 831.172 47.3691C843.052 49.2391 850.182 51.8491 856.252 54.2391C857.772 54.8491 859.202 55.5091 860.632 56.1491C862.032 56.8491 863.462 57.4891 864.882 58.2691C866.302 59.0391 867.772 59.8191 869.282 60.7491C870.832 61.6191 872.342 62.7091 874.002 63.8691C879.602 67.7991 884.992 73.9991 888.742 81.4691C890.542 85.2391 892.002 89.2591 893.062 93.3691C894.052 97.4991 894.812 101.669 895.152 105.769C895.942 113.959 895.712 121.719 895.232 128.069C894.732 134.429 894.092 139.409 893.692 142.189C893.442 143.829 893.242 145.479 892.982 147.129C892.522 150.069 891.702 155.519 890.292 162.669C888.902 169.819 886.962 178.689 884.612 188.539C882.262 198.379 879.522 209.209 876.762 220.329C874.012 231.459 871.262 242.899 869.022 253.999C865.872 269.679 864.352 282.619 864.172 292.919C864.062 303.229 865.232 310.839 866.672 315.889C868.322 321.859 870.932 327.229 874.402 331.569C877.852 335.929 882.112 339.209 886.542 341.549C887.672 342.089 888.752 342.719 889.902 343.159C891.052 343.599 892.182 344.039 893.302 344.469C894.442 344.859 895.602 345.139 896.732 345.479C897.302 345.639 897.862 345.809 898.432 345.949C899.002 346.059 899.582 346.179 900.152 346.289C901.292 346.509 902.422 346.759 903.562 346.949C904.702 347.089 905.832 347.229 906.972 347.369L908.662 347.579C909.222 347.639 909.792 347.649 910.352 347.689C911.482 347.749 912.602 347.819 913.732 347.879C918.672 347.989 921.132 347.649 921.122 347.409C921.122 347.109 918.662 346.899 913.782 346.679C912.672 346.589 911.562 346.499 910.452 346.419C909.902 346.369 909.342 346.349 908.782 346.279L907.122 346.039C906.012 345.879 904.902 345.719 903.782 345.559C902.672 345.349 901.572 345.089 900.462 344.849C899.902 344.729 899.352 344.609 898.792 344.489C898.242 344.349 897.692 344.159 897.142 343.999C896.042 343.649 894.922 343.359 893.822 342.969C892.742 342.539 891.652 342.099 890.542 341.659C889.442 341.219 888.412 340.599 887.332 340.069C883.102 337.769 879.082 334.619 875.822 330.449C872.542 326.299 870.062 321.169 868.472 315.399C868.182 314.269 867.902 312.969 867.572 311.539C867.292 310.089 867.062 308.469 866.792 306.699C866.422 303.149 866.082 298.979 866.182 294.209C866.262 289.449 866.572 284.119 867.272 278.279C867.962 272.439 868.952 266.089 870.232 259.269C871.062 254.829 871.952 250.389 872.872 245.999C876.812 227.029 882.532 205.459 886.562 188.459C888.592 179.969 890.232 172.619 891.302 167.389C891.862 164.779 892.262 162.689 892.542 161.259C892.822 159.829 892.972 159.059 892.972 159.059C892.972 159.059 893.192 157.899 893.562 155.809C893.742 154.759 893.972 153.489 894.232 151.999C894.472 150.509 894.742 148.819 895.032 146.949C896.162 139.469 897.452 129.089 897.502 117.629C897.532 111.899 897.132 105.909 896.172 99.9691C895.202 94.0391 893.582 88.1591 891.192 82.8291C888.822 77.4891 885.642 72.7491 882.132 68.9291C878.662 65.0491 874.732 62.3291 871.382 60.1191C861.102 53.7791 852.592 50.7791 846.112 48.7791C839.582 46.8891 834.962 46.0391 831.442 45.5091C820.772 43.8691 811.092 44.0491 802.292 44.8891C793.472 45.7391 785.412 47.2591 777.732 49.3191L777.742 49.3391Z" fill="#FFC716"/>
<path d="M764.591 18.6994C757.621 24.6494 758.371 25.4894 765.441 19.7394C770.531 15.7594 775.771 11.6894 781.681 7.60939C787.591 3.51939 794.041 -0.780606 801.621 -5.07061C805.921 -7.50061 809.441 -9.42061 812.531 -10.9406C815.581 -12.5506 818.221 -13.7006 820.651 -14.8506C821.861 -15.4406 823.051 -15.9306 824.241 -16.4206C825.431 -16.9106 826.621 -17.4106 827.841 -17.9206C829.061 -18.4506 830.361 -18.8706 831.721 -19.3806C833.091 -19.8606 834.531 -20.4206 836.121 -20.9406C837.471 -21.3606 838.881 -21.7906 840.331 -22.2506C841.061 -22.4706 841.801 -22.7006 842.551 -22.9406C843.311 -23.1406 844.081 -23.3406 844.861 -23.5406C846.421 -23.9406 848.021 -24.3606 849.641 -24.7806C851.281 -25.1206 852.951 -25.4706 854.641 -25.8306C855.481 -26.0006 856.331 -26.2006 857.191 -26.3406C858.051 -26.4806 858.911 -26.6106 859.771 -26.7506C861.501 -27.0106 863.221 -27.3306 864.951 -27.5406C868.411 -27.9706 871.871 -28.2206 875.221 -28.2306C881.911 -28.2706 888.151 -27.1006 892.801 -25.0606C895.131 -24.0406 897.051 -22.8406 898.601 -21.7506C900.101 -20.5906 901.251 -19.5506 902.011 -18.7406C902.931 -17.8006 903.781 -16.8006 904.581 -15.7506C906.001 -13.8906 908.471 -10.1906 910.141 -4.60061C910.971 -1.82061 911.621 1.40939 911.781 4.94939C911.971 8.49939 911.711 12.3594 911.011 16.3694C909.591 24.3994 906.271 32.8994 901.981 41.1494C897.771 49.4494 892.461 57.4294 886.791 64.6294C878.741 74.7894 871.101 82.0694 864.801 87.4594C858.481 92.8394 853.521 96.4294 850.061 98.7994C841.921 104.439 834.351 108.689 827.231 112.319C820.091 115.929 813.351 118.879 806.571 121.519C802.841 122.959 801.021 123.839 801.111 124.099C801.191 124.349 803.191 123.979 806.991 122.649C813.891 120.189 820.741 117.379 827.991 113.839C835.221 110.279 842.891 106.039 851.131 100.349C854.341 98.1594 859.251 94.6994 865.331 89.6694C871.371 84.6094 878.631 77.9794 885.961 69.1494L887.751 66.9894L889.461 64.7694L891.151 62.5494L892.751 60.2694C897.341 53.7294 901.741 46.3294 905.361 38.7594C909.001 31.2194 911.771 23.3994 912.971 16.2594C913.571 12.6894 913.821 9.30939 913.771 6.28939C913.731 3.25939 913.361 0.589394 912.911 -1.58061C912.481 -3.76061 911.961 -5.46061 911.581 -6.61061C911.171 -7.75061 910.951 -8.37061 910.951 -8.37061C910.951 -8.37061 910.861 -8.60061 910.671 -9.03061C910.481 -9.46061 910.251 -10.1106 909.851 -10.9006C909.111 -12.5106 907.881 -14.7706 905.961 -17.3006C904.051 -19.8106 901.301 -22.5006 897.741 -24.7006C895.941 -25.7506 893.981 -26.7406 891.851 -27.5006C889.721 -28.2406 887.471 -28.8706 885.131 -29.2606C882.791 -29.6506 880.381 -29.9006 877.951 -29.9906C875.511 -30.0606 873.051 -30.0106 870.601 -29.8506C868.151 -29.6806 865.701 -29.4106 863.291 -29.0606C860.891 -28.6606 858.511 -28.2706 856.181 -27.8806C846.871 -26.1406 838.481 -23.5306 832.341 -21.3606C823.091 -18.0506 816.481 -15.0006 811.531 -12.5006C810.291 -11.8806 809.151 -11.3106 808.091 -10.7906C807.051 -10.2306 806.101 -9.71061 805.211 -9.23061C803.451 -8.26061 801.951 -7.50061 800.711 -6.75061C793.071 -2.42061 786.591 1.95939 780.701 6.13939C774.791 10.3194 769.611 14.4994 764.601 18.6294L764.591 18.6994Z" fill="#FFC716"/>
<path d="M830.181 172.809C828.131 174.289 826.551 175.309 825.551 176.099C824.551 176.879 824.091 177.349 824.171 177.479C824.251 177.609 824.861 177.409 826.001 176.839C827.131 176.249 828.841 175.369 830.931 173.929C842.921 165.939 854.851 156.669 869.951 144.499C878.461 137.539 883.691 133.089 888.231 129.209C892.771 125.319 896.631 122.009 902.281 117.159C907.041 113.049 912.641 108.249 918.391 103.159C921.281 100.629 924.191 97.9986 927.071 95.3686L929.211 93.3786L930.141 92.5186C930.201 92.4686 930.181 92.5086 930.431 92.4786L931.131 92.4386L932.521 92.3486L933.911 92.3986L935.291 92.4486C935.751 92.5086 936.201 92.5686 936.651 92.6286C940.271 93.1086 943.681 94.1986 946.711 95.5886C949.761 96.9686 952.401 98.6886 954.601 100.459C959.081 103.959 961.531 107.739 962.731 109.849L963.691 111.789C964.021 112.439 964.211 113.129 964.481 113.799C964.741 114.389 964.921 115.159 965.151 116.039C965.421 116.919 965.561 117.949 965.741 119.099C966.011 121.399 966.131 124.219 965.651 127.379C965.151 130.529 964.141 134.029 962.311 137.479C960.491 140.919 957.871 144.329 954.451 147.129C954.041 147.499 953.561 147.789 953.111 148.119C952.641 148.429 952.221 148.809 951.711 149.069C950.731 149.629 949.761 150.229 948.691 150.709C946.581 151.699 944.301 152.519 941.961 153.299C937.301 154.889 932.211 156.259 927.641 159.239C925.381 160.719 923.351 162.699 921.861 165.029C920.371 167.359 919.471 170.089 919.171 172.809C918.851 175.539 919.071 178.269 919.491 180.889C919.911 183.519 920.571 186.049 921.251 188.529C923.231 195.509 925.231 201.709 925.601 207.429C925.711 208.849 925.681 210.239 925.601 211.569C925.381 212.889 925.331 214.189 924.951 215.399C924.421 217.869 923.371 220.019 922.351 221.999C920.111 225.869 917.371 228.739 914.861 230.959C912.351 233.199 909.971 234.739 908.051 235.979C898.801 241.739 889.381 244.079 880.931 246.839C872.451 249.529 864.591 252.309 857.691 256.799C855.811 258.039 854.491 259.099 853.691 259.909C852.881 260.699 852.531 261.149 852.621 261.249C852.711 261.349 853.231 261.109 854.161 260.509C855.081 259.889 856.461 258.989 858.331 257.819C865.181 253.619 872.941 251.029 881.431 248.459C885.681 247.169 890.141 245.869 894.801 244.249C899.481 242.649 904.271 240.489 909.041 237.569C909.971 236.999 910.991 236.299 912.131 235.539C913.231 234.709 914.481 233.839 915.741 232.739C918.271 230.579 921.091 227.799 923.491 223.999C924.731 222.129 925.701 219.929 926.551 217.549C926.711 216.939 926.871 216.319 927.041 215.689C927.121 215.379 927.201 215.059 927.291 214.739C927.341 214.419 927.391 214.089 927.431 213.759C927.521 213.099 927.621 212.429 927.711 211.759C927.741 211.079 927.811 210.389 927.801 209.699C927.891 204.109 926.341 198.279 924.601 192.229C923.471 188.279 922.281 184.379 921.591 180.469C921.231 178.359 921.021 176.199 921.131 174.039C921.251 171.889 921.741 169.749 922.641 167.779C923.551 165.809 924.891 164.029 926.511 162.549C928.141 161.069 930.081 159.919 932.111 158.959C936.181 157.039 940.591 155.849 944.761 154.349C946.851 153.599 948.881 152.779 950.801 151.789C951.731 151.229 952.691 150.759 953.541 150.149C954.381 149.519 955.271 148.989 956.021 148.289C959.141 145.689 961.501 142.679 963.221 139.779C964.941 136.879 966.041 134.079 966.681 131.689C967.371 129.309 967.641 127.349 967.781 126.009C967.861 125.339 967.921 124.819 967.911 124.469C967.921 124.119 967.931 123.929 967.931 123.929C967.931 123.929 967.931 123.659 967.951 123.139C967.951 122.879 967.961 122.559 967.971 122.179C967.951 121.799 967.921 121.359 967.891 120.869C967.821 118.899 967.411 116.039 966.221 112.719C965.021 109.399 962.801 105.749 959.611 102.429C956.451 99.0786 952.271 96.1286 947.491 93.9186C946.901 93.6186 946.281 93.3786 945.661 93.1486C945.041 92.9186 944.421 92.6586 943.781 92.4386C942.491 92.0686 941.211 91.6086 939.861 91.3786C937.201 90.7486 934.421 90.5286 931.641 90.6486L930.601 90.7186L930.061 90.7586L929.651 90.7886L929.431 90.8086C929.371 90.8386 929.321 90.8986 929.271 90.9486L927.641 92.4786C926.661 93.3986 925.681 94.3086 924.701 95.2186C922.721 97.0086 920.771 98.8186 918.821 100.539C911.061 107.489 903.751 113.779 898.291 118.439C881.831 132.479 873.711 138.999 868.761 143.049C853.691 155.209 841.891 164.599 830.161 172.809H830.181Z" fill="#FFC716"/>
<path d="M750.121 -22.481C746.551 -20.021 744.971 -18.501 745.141 -18.261C745.331 -18.001 747.261 -19.011 750.861 -21.351C755.991 -24.651 761.451 -27.721 767.521 -30.731C773.601 -33.721 780.331 -36.621 788.121 -39.251C796.951 -42.241 802.651 -43.511 807.601 -44.591C808.841 -44.841 810.041 -45.081 811.231 -45.321C812.431 -45.511 813.631 -45.711 814.871 -45.911C815.491 -46.011 816.121 -46.101 816.761 -46.211C817.411 -46.291 818.071 -46.361 818.751 -46.441C820.121 -46.581 821.561 -46.801 823.131 -46.901C828.441 -47.331 834.751 -47.811 841.091 -46.731C844.241 -46.181 847.401 -45.221 850.181 -43.611C852.981 -42.041 855.461 -39.941 857.451 -37.551C861.491 -32.771 863.821 -27.211 865.201 -22.571C865.881 -20.241 866.401 -18.121 866.661 -16.301C866.811 -15.401 866.941 -14.581 867.061 -13.851C867.171 -13.121 867.201 -12.481 867.261 -11.951C867.371 -10.691 867.541 -9.43098 867.551 -8.16098C867.581 -7.03098 867.711 -5.41099 867.591 -3.39099C867.551 -2.38099 867.561 -1.26099 867.411 -0.0609856C867.351 0.539014 867.291 1.16901 867.231 1.80901C867.201 2.12901 867.171 2.45902 867.131 2.79902C867.081 3.12902 867.021 3.46901 866.961 3.80901C866.701 5.16901 866.551 6.63901 866.141 8.12901C865.961 8.87901 865.771 9.64901 865.581 10.439C865.391 11.229 865.101 11.999 864.851 12.809C863.881 16.039 862.371 19.379 860.501 22.719C860.001 23.539 859.491 24.359 858.981 25.199C858.431 26.009 857.811 26.789 857.231 27.599C856.921 27.989 856.651 28.419 856.311 28.789C855.971 29.159 855.631 29.539 855.291 29.919C854.601 30.659 853.961 31.479 853.161 32.139C850.241 35.079 846.581 37.389 842.731 39.249C838.801 40.949 834.451 41.889 830.151 41.779C825.861 41.649 821.621 40.359 818.371 37.819C817.221 36.939 816.221 35.899 815.351 34.829C814.501 33.729 813.781 32.559 813.171 31.379C812.001 28.979 811.231 26.509 810.781 24.109C810.311 21.709 810.101 19.389 810.011 17.199C810.001 16.649 809.981 16.109 809.971 15.579C809.981 15.039 809.991 14.519 810.001 13.999C810.021 12.959 810.041 11.959 810.071 10.979C810.561 3.19902 811.881 -2.43099 812.951 -6.21099C813.211 -7.34099 813.631 -8.42099 813.951 -9.49099C814.291 -10.561 814.621 -11.631 815.031 -12.641C815.421 -13.661 815.801 -14.671 816.171 -15.671C816.591 -16.651 817.011 -17.611 817.431 -18.561C817.641 -19.031 817.841 -19.511 818.051 -19.971C818.281 -20.431 818.501 -20.881 818.731 -21.331C819.181 -22.231 819.621 -23.131 820.061 -24.011C821.021 -25.721 821.911 -27.431 822.901 -29.031C826.801 -35.471 831.031 -40.991 835.671 -46.041C838.251 -48.791 839.451 -50.261 839.251 -50.481C839.081 -50.661 837.491 -49.571 834.791 -46.871C829.941 -41.901 825.521 -36.411 821.451 -29.911C820.421 -28.301 819.501 -26.571 818.491 -24.841C818.041 -23.951 817.581 -23.041 817.111 -22.131C816.881 -21.671 816.641 -21.211 816.411 -20.751C816.201 -20.271 815.991 -19.801 815.771 -19.311C815.341 -18.351 814.911 -17.371 814.471 -16.371C814.081 -15.361 813.691 -14.331 813.291 -13.291C812.871 -12.251 812.531 -11.171 812.181 -10.071C811.851 -8.97098 811.421 -7.87099 811.151 -6.71099C810.151 -3.16099 808.751 2.39901 808.141 9.89901C808.031 10.829 808.021 11.799 807.991 12.799C807.961 13.799 807.921 14.819 807.911 15.869C807.921 17.979 808.041 20.209 808.361 22.529C808.691 24.849 809.191 27.279 810.091 29.709C811.001 32.129 812.241 34.609 814.111 36.779C815.311 38.199 816.711 39.469 818.281 40.459C819.041 41.009 819.891 41.379 820.701 41.819C821.561 42.159 822.391 42.559 823.281 42.789C825.161 43.389 827.151 43.719 829.161 43.819C831.171 43.939 833.211 43.829 835.211 43.509C837.221 43.189 839.211 42.719 841.131 42.019C843.041 41.319 844.941 40.519 846.641 39.429C850.201 37.509 853.241 34.869 855.901 32.129C856.541 31.419 857.171 30.709 857.801 30.019C858.401 29.299 858.921 28.529 859.471 27.809C860.621 26.379 861.441 24.799 862.371 23.359C865.771 17.379 867.391 11.629 868.291 7.55901C868.671 5.50901 868.971 3.86901 869.121 2.73901C869.241 1.60901 869.301 0.989014 869.301 0.989014C869.301 0.989014 869.321 0.759014 869.371 0.329014C869.401 -0.110986 869.511 -0.750986 869.531 -1.58099C869.561 -2.41099 869.591 -3.42099 869.631 -4.60099C869.691 -5.78099 869.581 -7.12098 869.551 -8.59098C869.271 -14.471 867.981 -22.691 863.991 -30.761C862.001 -34.771 859.261 -38.701 855.671 -41.821C853.871 -43.371 851.871 -44.691 849.751 -45.741C847.621 -46.761 845.391 -47.501 843.161 -47.991C838.691 -48.951 834.311 -49.051 830.341 -48.931C828.351 -48.881 826.471 -48.731 824.691 -48.591C823.801 -48.521 822.941 -48.461 822.111 -48.401C821.281 -48.311 820.481 -48.221 819.711 -48.131C810.471 -47.091 803.741 -45.561 798.661 -44.281C797.391 -43.941 796.221 -43.631 795.141 -43.341C794.061 -43.051 793.081 -42.721 792.171 -42.451C790.351 -41.901 788.831 -41.441 787.541 -40.971C779.661 -38.301 772.871 -35.331 766.761 -32.221C760.661 -29.101 755.211 -25.891 750.131 -22.421L750.121 -22.481Z" fill="#FFC716"/>
<path d="M744.451 -55.161C740.981 -53.911 739.401 -52.901 739.511 -52.641C739.641 -52.331 741.431 -52.761 744.881 -53.881C749.791 -55.441 754.941 -56.671 760.611 -57.451C766.281 -58.211 772.471 -58.521 779.371 -57.901C787.191 -57.181 791.951 -55.851 796.011 -54.551C800.071 -53.231 803.441 -51.781 808.021 -49.081C811.871 -46.771 816.121 -43.591 819.991 -39.681C823.881 -35.801 827.451 -31.301 830.231 -26.701C833.051 -22.121 835.171 -17.531 836.601 -13.641C838.021 -9.74099 838.891 -6.591 839.281 -4.811C839.541 -3.761 839.791 -2.711 840.001 -1.651C840.441 0.229003 841.081 3.74901 841.511 8.45901C841.941 13.169 842.051 19.079 841.381 25.619C840.191 38.719 835.291 54.129 827.851 66.789C822.691 75.789 817.341 82.339 812.911 87.269C810.731 89.779 808.641 91.769 806.891 93.509C806.451 93.949 806.031 94.359 805.631 94.759C805.211 95.139 804.801 95.499 804.421 95.839C803.651 96.529 802.951 97.149 802.321 97.709C801.571 98.359 800.871 99.039 800.121 99.639C799.371 100.239 798.631 100.829 797.911 101.419C796.451 102.579 795.081 103.759 793.631 104.759C792.211 105.799 790.821 106.799 789.471 107.789C788.071 108.709 786.701 109.599 785.371 110.479C784.701 110.909 784.051 111.369 783.381 111.769C782.701 112.169 782.031 112.559 781.371 112.949C780.041 113.729 778.731 114.499 777.441 115.249C776.111 115.949 774.801 116.639 773.501 117.319C772.851 117.659 772.201 118.009 771.551 118.349L769.571 119.269C763.771 121.969 764.111 122.879 770.071 120.369L772.101 119.509C772.761 119.189 773.431 118.859 774.101 118.539C775.431 117.889 776.781 117.229 778.141 116.569C779.481 115.859 780.811 115.089 782.171 114.339C782.851 113.959 783.541 113.569 784.231 113.189C784.921 112.789 785.581 112.349 786.271 111.919C787.641 111.049 789.041 110.169 790.471 109.259C791.851 108.279 793.271 107.269 794.721 106.239C796.201 105.239 797.601 104.049 799.091 102.879C799.831 102.289 800.581 101.689 801.341 101.079C802.101 100.469 802.821 99.789 803.571 99.129C805.921 97.079 809.541 93.889 813.861 89.249C818.231 84.669 823.251 78.549 828.091 70.699C828.481 70.059 828.911 69.439 829.271 68.779L830.351 66.799C831.061 65.479 831.781 64.169 832.471 62.849C835.231 57.039 837.851 50.639 839.711 44.159C841.601 37.689 842.781 31.199 843.321 25.449C843.891 19.699 843.861 14.719 843.671 11.199C843.491 7.67901 843.221 5.609 843.221 5.609C843.221 5.609 843.121 4.83901 842.951 3.44901C842.731 2.05901 842.451 0.049005 841.921 -2.391C840.911 -7.28099 838.971 -13.951 835.631 -20.721C832.361 -27.531 827.591 -34.321 822.261 -39.801C816.951 -45.311 811.061 -49.391 806.431 -51.891C799.401 -55.621 793.681 -57.241 789.341 -58.251C788.251 -58.481 787.241 -58.701 786.301 -58.891C785.361 -59.031 784.491 -59.171 783.691 -59.291C782.091 -59.571 780.741 -59.651 779.571 -59.771C772.501 -60.401 766.161 -60.031 760.401 -59.171C754.631 -58.291 749.411 -56.911 744.491 -55.171L744.451 -55.161Z" fill="#FFC716"/>
</g>
<mask id="mask4_287_72705" style="mask-type:luminance" maskUnits="userSpaceOnUse" x="-11" y="405" width="237" height="223">
<path d="M159.2 405.99H69.7305H-10.2695V627.24H211.44L225.8 405.99H212.88H159.2Z" fill="white"/>
</mask>
<g mask="url(#mask4_287_72705)">
<path d="M-27.4701 530.48C-23.7401 533.56 -20.2801 536.01 -17.2501 537.98C-14.1801 539.92 -11.5501 541.4 -9.40014 542.49C-8.32014 543.02 -7.37014 543.48 -6.55014 543.87C-5.72014 544.22 -5.02014 544.51 -4.46014 544.74C-3.34014 545.19 -2.77014 545.38 -2.73014 545.3C-2.70014 545.23 -3.21014 544.9 -4.26014 544.32C-4.79014 544.04 -5.45014 543.69 -6.24014 543.26C-7.02014 542.82 -7.93014 542.3 -8.98014 541.71C-11.0601 540.52 -13.6101 538.96 -16.6001 536.98C-19.5601 534.95 -22.9401 532.48 -26.6101 529.42C-31.7901 525.05 -36.6901 520.27 -41.2001 515.06C-45.7101 509.86 -50.0101 504.33 -53.8001 498.4C-55.6801 495.43 -57.4701 492.36 -59.0101 489.15C-60.5601 485.95 -61.9801 482.64 -63.0201 479.19C-64.0701 475.75 -64.9401 472.2 -65.2301 468.56C-65.5501 464.93 -65.4401 461.24 -64.7701 457.6C-64.5601 456.7 -64.3501 455.8 -64.1401 454.9C-63.8901 454.01 -63.5501 453.14 -63.2601 452.25C-62.6401 450.49 -61.8201 448.8 -60.8901 447.16C-59.0201 443.89 -56.6001 440.88 -53.7801 438.23C-48.1201 432.91 -41.0701 428.89 -33.4601 425.86C-18.1501 419.86 -0.740145 417.19 17.5399 417.69C27.9099 417.96 37.2699 419.2 45.7499 420.8C54.2299 422.4 61.8399 424.4 68.7999 426.45C82.7199 430.63 94.0599 435.08 104.53 439.42C114.99 443.8 124.59 448.05 134.61 453.03C144.6 458.04 155.08 463.72 166.63 471.8C176.38 478.61 186.36 486.96 195.32 497.16C199.81 502.24 204.01 507.8 207.72 513.79C211.45 519.77 214.7 526.21 217.17 533C219.59 539.8 221.25 546.98 221.59 554.27C221.91 561.54 220.98 568.95 218.16 575.66C217.99 576.08 217.84 576.51 217.64 576.92L217.04 578.14C216.62 578.94 216.27 579.78 215.8 580.55L214.38 582.87C213.93 583.66 213.33 584.34 212.82 585.09C211.8 586.59 210.53 587.89 209.37 589.26C208.07 590.51 206.85 591.84 205.44 592.96C200 597.69 193.6 601.11 187.01 603.58C173.71 608.45 159.59 608.52 146.9 606.35C140.52 605.31 134.44 603.73 128.69 601.94C122.93 600.15 117.49 598.15 112.38 596.13C102.16 592.04 93.1899 587.99 85.7599 584.32C82.0799 582.42 78.7099 580.75 75.8199 579.11C74.3599 578.31 72.9999 577.56 71.7399 576.86C70.4999 576.13 69.3599 575.45 68.3199 574.83L64.6299 572.64L61.0099 570.33C59.8099 569.55 58.5799 568.81 57.3999 568L53.8599 565.56C49.6299 562.68 43.7699 558.32 36.8999 552.33C30.0499 546.32 22.2499 538.52 14.8799 528.44C13.9699 527.18 13.0399 525.89 12.0999 524.59C11.2399 523.24 10.3599 521.86 9.47986 520.47C7.66986 517.7 5.96986 514.77 4.47986 511.66C2.97986 508.55 1.69985 505.25 0.849854 501.78C0.0298535 498.31 -0.350146 494.65 0.139854 491C0.569854 487.35 1.95985 483.79 4.05985 480.58C6.16985 477.38 8.99986 474.57 12.2499 472.26C15.5199 469.97 19.2399 468.23 23.2099 467.03C27.1799 465.84 31.3799 465.17 35.6599 464.89C39.9499 464.62 44.3299 464.7 48.7399 465.07C50.9499 465.19 53.1599 465.51 55.3799 465.74C57.5899 466.09 59.8299 466.36 62.0399 466.82C70.9399 468.46 79.8299 471.15 88.5099 474.71C92.8499 476.49 97.1199 478.54 101.33 480.74C105.53 482.98 109.64 485.44 113.68 488.07C117.69 490.73 121.6 493.6 125.42 496.61C129.22 499.65 132.89 502.88 136.47 506.23C150.7 519.72 162.94 535.68 172.88 552.77C175.29 557.06 177.34 561.54 178.54 566.23C179.73 570.9 179.99 575.82 178.96 580.47C177.97 585.11 175.54 589.39 171.89 592.34C168.26 595.31 163.71 597.07 159.07 597.73C152.47 598.69 145.88 597.21 139.98 594.76C134.05 592.28 128.7 588.85 123.71 585.23C113.75 577.95 105.48 569.49 98.7299 560.69C91.9799 551.88 86.7199 542.7 82.7799 533.65C78.8699 524.59 76.6199 515.49 75.6899 506.85C74.7599 498.2 75.1399 490.02 76.3999 482.58C76.8099 480.76 77.0999 478.94 77.7099 477.24C77.9999 476.39 78.1899 475.51 78.5599 474.71C78.8999 473.9 79.2399 473.09 79.5699 472.29C81.0599 469.18 82.7499 466.29 84.7899 463.82C88.7499 458.79 93.4199 455.06 97.9399 452.14C102.47 449.2 106.9 447.07 110.93 445.33C120.47 441.21 130.24 438.46 139.79 436.18C149.35 433.93 158.75 432.2 167.92 430.67C186.27 427.62 203.75 425.3 220.43 422.3C228.77 420.78 236.91 419.1 244.83 417.03C248.78 415.94 252.69 414.84 256.49 413.49C258.41 412.87 260.27 412.09 262.15 411.39C263.99 410.59 265.86 409.86 267.64 408.95C269.46 408.12 271.19 407.13 272.94 406.17C274.63 405.11 276.34 404.1 277.93 402.89C281.13 400.54 284.11 397.86 286.53 394.7C291.39 388.4 293.74 380.35 293.31 372.55C293.3 372.01 293.28 371.49 293.27 370.97C293.21 370.45 293.15 369.95 293.1 369.45C292.98 368.45 292.89 367.49 292.74 366.56C292.56 365.64 292.38 364.76 292.21 363.91C292.04 363.06 291.88 362.24 291.64 361.48C291.19 359.95 290.84 358.52 290.4 357.27C289.95 356.02 289.54 354.9 289.17 353.9C288.42 351.91 287.69 350.49 287.26 349.53C286.8 348.57 286.54 348.11 286.48 348.14C286.33 348.2 287.07 350.19 288.46 354.16C288.78 355.16 289.13 356.29 289.53 357.55C289.92 358.8 290.22 360.22 290.63 361.74C290.85 362.5 290.99 363.3 291.14 364.14C291.29 364.98 291.45 365.85 291.62 366.75C291.75 367.66 291.82 368.6 291.93 369.57C291.98 370.06 292.03 370.55 292.09 371.06C292.09 371.57 292.11 372.08 292.12 372.6C292.48 380.2 290.17 387.86 285.48 393.89C283.14 396.91 280.24 399.49 277.12 401.76C275.58 402.93 273.9 403.91 272.24 404.93C270.52 405.85 268.82 406.82 267.03 407.63C265.27 408.51 263.43 409.22 261.61 410.01C259.75 410.69 257.91 411.45 256.01 412.06C252.24 413.38 248.36 414.45 244.44 415.52C236.57 417.55 228.47 419.19 220.15 420.68C203.51 423.62 186.04 425.9 167.64 428.92C158.44 430.44 149.01 432.16 139.38 434.42C129.77 436.71 119.91 439.47 110.21 443.66C106.44 445.27 102.23 447.31 97.7999 450.08C93.3899 452.85 88.7199 456.38 84.5299 461.15C82.5199 463.6 80.4999 466.24 78.9399 469.32C78.0699 470.81 77.4399 472.45 76.7399 474.1C76.3699 474.92 76.1699 475.8 75.8799 476.66C75.6199 477.53 75.2899 478.39 75.1299 479.31C74.2399 482.93 73.7899 486.68 73.4599 490.59C73.1499 494.5 73.0899 498.56 73.3499 502.72C73.8399 511.05 75.4899 519.82 78.5999 528.63C80.1399 533.04 82.0999 537.42 84.3099 541.77C86.5199 546.14 89.0499 550.47 91.8799 554.75C97.5399 563.3 104.45 571.62 112.75 579.15C116.9 582.9 121.4 586.45 126.24 589.7C131.07 592.95 136.31 595.93 142.11 597.96C145.89 599.27 149.86 600.11 153.9 600.26C157.94 600.37 162.01 599.74 165.82 598.34C169.61 596.91 173.16 594.67 175.86 591.57C178.58 588.48 180.32 584.64 181.12 580.7C182 576.43 181.88 571.99 181.02 567.71C180.15 563.42 178.54 559.31 176.59 555.41C174.63 551.5 172.35 547.77 169.98 544.11C167.64 540.42 165.14 536.81 162.57 533.23C152.25 518.96 140.02 505.77 126.21 494.81C112.39 483.88 96.9399 475.3 81.0199 469.91C73.0799 467.16 65.0199 465.28 57.0699 464.12C49.1199 462.99 41.2599 462.53 33.6799 463.19C26.1199 463.86 18.8099 465.87 12.7699 469.67C6.76986 473.43 2.05986 478.8 -0.270142 484.85C-1.42014 487.88 -1.96014 491.02 -2.00014 494.04C-2.03014 497.07 -1.59014 499.97 -0.910141 502.68C0.469859 508.1 2.71985 512.76 4.95985 516.81C9.64985 524.78 13.9199 530.77 17.1399 534.64C18.7399 536.58 19.9099 538.13 20.8199 539.09C21.6999 540.06 22.1599 540.57 22.1599 540.57C22.1599 540.57 22.8399 541.32 24.1399 542.75C25.3999 544.22 27.4599 546.19 30.0599 548.78C35.3399 553.85 43.3399 560.86 54.1099 568.22C64.8399 575.64 78.3799 583.28 93.9499 590.41C95.9099 591.28 97.8799 592.17 99.8799 593.06C101.9 593.91 103.94 594.77 106 595.64C110.13 597.37 114.39 599.03 118.76 600.63C127.5 603.79 136.77 606.58 146.52 608.2C156.24 609.79 166.49 610.22 176.6 608.32C186.65 606.42 196.5 602.33 204.71 595.89C208.8 592.68 212.46 588.87 215.38 584.54C218.31 580.22 220.46 575.38 221.72 570.36C223 565.34 223.47 560.16 223.3 555.06C223.11 549.96 222.29 544.93 221.05 540.08C219.8 535.23 218.12 530.55 216.12 526.08C214.1 521.63 211.81 517.37 209.31 513.32C206.83 509.27 204.12 505.43 201.27 501.83C198.42 498.23 195.47 494.81 192.41 491.64C180.18 478.88 166.89 469.58 155.19 462.48C146.34 457.16 137.77 452.71 129.63 448.81C121.49 444.91 113.8 441.53 106.58 438.46C92.1399 432.32 79.4599 427.76 68.2799 424.45C45.9099 417.84 29.7499 416.21 17.5599 415.84C-0.940147 415.34 -18.5901 418.05 -34.1701 424.18C-41.9301 427.29 -49.1701 431.41 -55.0401 436.95C-57.9601 439.72 -60.4901 442.87 -62.4501 446.31C-63.4201 448.03 -64.2801 449.82 -64.9301 451.67C-65.2301 452.6 -65.5801 453.52 -65.8501 454.45C-66.0701 455.4 -66.2901 456.35 -66.5101 457.29C-67.2101 461.11 -67.3101 464.97 -66.9601 468.74C-66.6401 472.52 -65.7301 476.17 -64.6401 479.71C-63.5501 483.25 -62.0901 486.63 -60.5001 489.89C-58.9201 493.16 -57.0801 496.26 -55.1601 499.28C-51.2801 505.29 -46.9301 510.82 -42.3401 516.06C-37.7501 521.3 -32.7701 526.1 -27.5101 530.49L-27.4701 530.48Z" fill="#FCA700"/>
<path d="M108.49 641.82C108.05 639.59 107.21 637.8 106.4 636.35C105.58 634.9 104.75 633.8 104.06 632.94C102.66 631.24 101.81 630.54 101.7 630.63C101.57 630.74 102.19 631.64 103.36 633.44C103.93 634.35 104.65 635.48 105.36 636.9C106.06 638.32 106.79 640.03 107.16 642.05C107.7 644.92 107.1 647.94 105.33 650.27C103.57 652.6 100.89 654.27 97.9705 655.12C95.0605 655.98 91.8405 655.96 88.6805 655.47C85.5005 654.98 82.3004 654.03 79.0604 652.97C72.5604 650.89 65.9205 648.37 59.1805 645.2C52.4705 641.99 45.6505 638.13 39.0905 633.14C35.3705 630.32 32.1905 627.52 29.4405 624.79C26.7305 622.03 24.4204 619.36 22.4604 616.77C18.5304 611.58 15.8704 606.78 13.7904 602.17C11.7304 597.54 10.2804 593.05 9.32045 588.14C8.39045 583.24 7.94045 577.88 8.58045 571.61C8.90045 568.97 9.40045 566.23 10.1405 563.45C10.9105 560.68 11.9005 557.88 13.1305 555.1C15.6405 549.56 19.0604 544.09 23.4004 539.23C31.9904 529.39 44.1104 522.29 56.3204 518.61C62.4204 516.73 68.5404 515.59 74.3504 515.17C80.1504 514.6 85.6305 514.83 90.5505 515.22C100.39 516.17 107.91 518.33 112.04 519.63C113.27 519.99 114.47 520.47 115.68 520.89C116.89 521.34 118.12 521.71 119.3 522.23C120.36 522.67 121.65 523.2 123.15 523.82C124.64 524.45 126.29 525.3 128.15 526.16C130.01 527.04 131.96 528.19 134.12 529.34C135.18 529.95 136.26 530.64 137.38 531.32C138.51 532.01 139.68 532.71 140.82 533.53C141.98 534.33 143.18 535.15 144.41 535.99C145.59 536.9 146.81 537.83 148.06 538.78C149.33 539.7 150.52 540.8 151.78 541.85C152.41 542.38 153.04 542.92 153.68 543.47C154.29 544.05 154.91 544.63 155.53 545.22C160.57 549.87 165.6 555.38 169.88 561.86C174.13 568.33 177.53 575.95 178.53 584.27C178.8 586.34 178.89 588.45 178.84 590.56C178.79 592.67 178.59 594.79 178.17 596.88C177.76 598.97 177.19 601.04 176.39 603.04C175.59 605.03 174.6 606.95 173.42 608.77C168.7 616.07 161.22 621.53 153.03 624.72C144.79 627.96 135.87 629.09 127.18 629.23C124.1 629.33 121.1 629.09 118.17 628.97C117.44 628.94 116.71 628.9 115.99 628.87C115.27 628.84 114.55 628.81 113.84 628.7C112.42 628.53 111.02 628.36 109.63 628.19C108.25 628.02 106.88 627.86 105.53 627.7C104.2 627.44 102.88 627.19 101.58 626.94C98.9905 626.41 96.4304 626.03 94.0204 625.3C91.6004 624.64 89.2304 624.04 86.9604 623.38C84.7204 622.61 82.5404 621.86 80.4204 621.14C78.2804 620.48 76.3205 619.53 74.3705 618.74C73.4005 618.33 72.4505 617.93 71.5105 617.54C70.5705 617.15 69.6404 616.76 68.7704 616.3C67.0104 615.42 65.3004 614.56 63.6604 613.73C62.8404 613.31 62.0205 612.93 61.2405 612.49C60.4705 612.04 59.7204 611.6 58.9804 611.16C56.0304 609.41 53.2405 607.88 50.8605 606.15C49.6505 605.32 48.4804 604.53 47.3704 603.78C46.8104 603.4 46.2705 603.03 45.7405 602.67C45.2305 602.27 44.7405 601.89 44.2505 601.51C42.3205 600 40.5705 598.63 39.0005 597.41C37.1805 595.92 35.5005 594.32 33.7905 592.82C32.9405 592.06 32.0905 591.32 31.2705 590.55C30.4905 589.75 29.7105 588.95 28.9305 588.16C27.4005 586.56 25.8204 585.06 24.4004 583.45C23.0104 581.82 21.6305 580.2 20.2805 578.61C18.8705 577.06 17.7004 575.36 16.4804 573.73C15.2904 572.08 14.0404 570.51 12.9404 568.86C11.8804 567.18 10.8305 565.53 9.79045 563.89C9.27045 563.07 8.76045 562.25 8.25045 561.44C7.80045 560.6 7.35045 559.75 6.90045 558.92C3.23045 552.31 -0.16955 545.68 -0.87955 538.74C-1.23955 535.29 -0.69955 531.85 0.50045 528.67C1.73045 525.49 3.58045 522.58 5.80045 519.99C8.24045 517.14 10.4104 515.29 11.8204 514.04C13.2504 512.79 13.9804 512.17 13.8904 512.05C13.8204 511.95 12.9405 512.35 11.3505 513.44C9.78045 514.54 7.45045 516.3 4.89045 519.2C2.56045 521.84 0.58045 524.84 -0.75955 528.18C-1.42955 529.85 -1.88955 531.61 -2.18955 533.4C-2.44955 535.2 -2.52955 537.04 -2.35955 538.87C-2.04955 542.54 -0.96955 546.11 0.42045 549.56C1.13045 551.28 1.88045 553 2.75045 554.67C3.63045 556.34 4.52045 558.02 5.41045 559.72C5.86045 560.57 6.31045 561.43 6.76045 562.29C7.26045 563.12 7.79045 563.94 8.31045 564.78C9.35045 566.45 10.4104 568.13 11.4804 569.84C12.5904 571.52 13.8504 573.12 15.0504 574.8C16.2804 576.46 17.4604 578.18 18.8804 579.76C20.2504 581.38 21.6405 583.01 23.0405 584.68C24.4805 586.31 26.0805 587.84 27.6205 589.46C28.4005 590.26 29.1904 591.07 29.9804 591.89C30.8104 592.67 31.6704 593.42 32.5304 594.2C34.2704 595.72 35.9605 597.35 37.8105 598.86C43.5605 603.5 52.6705 610.53 66.1505 617.24C66.9905 617.67 67.8404 618.1 68.7004 618.53C69.5704 618.96 70.4905 619.31 71.4005 619.71C73.2305 620.49 75.1105 621.29 77.0505 622.12C79.0005 622.91 81.0604 623.55 83.1404 624.29C84.1804 624.65 85.2404 625.02 86.3104 625.39C87.3904 625.74 88.5005 626 89.6205 626.32C98.5005 628.99 108.56 630.7 119.47 631.23C121.25 631.3 123.03 631.43 124.81 631.44C126.59 631.45 128.37 631.4 130.15 631.33C133.71 631.16 137.25 630.82 140.75 630.22C148.28 628.94 156.04 626.43 162.82 621.95C166.2 619.73 169.32 617.05 171.99 613.96C174.64 610.85 176.82 607.32 178.28 603.51C181.23 595.88 181.35 587.56 179.75 580.08C178.17 572.54 174.82 565.82 171 560.13C167.16 554.43 162.88 549.67 158.8 545.69C156.73 543.73 154.81 541.85 152.88 540.28C151.93 539.48 151.03 538.68 150.14 537.96C149.23 537.26 148.36 536.59 147.53 535.95C146.7 535.32 145.93 534.69 145.16 534.16C144.39 533.63 143.67 533.13 142.99 532.66C141.64 531.74 140.5 530.91 139.52 530.34C137.58 529.14 136.53 528.5 136.53 528.5C136.53 528.5 136.14 528.26 135.39 527.8C134.62 527.38 133.49 526.76 132.03 525.96C131.3 525.57 130.5 525.1 129.59 524.66C128.68 524.22 127.69 523.75 126.63 523.24C124.53 522.16 122.02 521.22 119.3 520.06C113.77 517.97 107.04 515.84 99.3605 514.48C91.7005 513.11 83.1005 512.53 74.1905 513.33C65.2805 514.04 56.0905 516.25 47.4905 519.98C38.8805 523.67 30.9404 529.01 24.5704 535.49C18.2204 541.98 13.4705 549.51 10.5505 557C9.08045 560.74 8.06045 564.47 7.44045 568.04C7.14045 569.83 6.90045 571.57 6.80045 573.27C6.75045 574.12 6.64045 574.95 6.65045 575.76C6.65045 576.58 6.64045 577.38 6.63045 578.16C6.69045 582.88 7.33045 587.27 8.27045 591.28C9.19045 595.3 10.5004 598.93 11.9004 602.23C13.2704 605.55 14.9005 608.45 16.4305 611.14C18.0505 613.77 19.6505 616.15 21.2705 618.25C24.4905 622.47 27.6004 625.72 30.4004 628.35C33.2304 630.94 35.6904 633.02 37.9204 634.66C44.6104 639.74 51.5505 643.65 58.3605 646.88C65.1905 650.08 71.9205 652.59 78.5005 654.65C81.7805 655.69 85.0505 656.65 88.4005 657.14C91.7405 657.62 95.1704 657.63 98.3904 656.65C101.58 655.69 104.5 653.84 106.48 651.17C107.45 649.83 108.15 648.29 108.47 646.68C108.8 645.07 108.77 643.41 108.47 641.84L108.49 641.82Z" fill="#FCA700"/>
</g>
<path d="M169.901 106.35H141.511H104.121H41.8108H-21.1992V294.36H332.611V106.35H270.991H206.251H169.901Z" fill="#FCA700"/>
<path d="M332.61 294.36V106.35H270.99H225.43L142.27 294.36H332.61Z" fill="#FFC716"/>
<path d="M488.1 35.3193H483.1V646.179H488.1V35.3193Z" fill="#FFC716"/>
</g>
</g>
<defs>
<clipPath id="clip0_287_72705">
<rect width="960.051" height="540.059" fill="white"/>
</clipPath>
</defs>
</svg>
