<svg width="960" height="540" viewBox="0 0 960 540" fill="none" xmlns="http://www.w3.org/2000/svg">
<g clip-path="url(#clip0_287_61308)">
<mask id="mask0_287_61308" style="mask-type:luminance" maskUnits="userSpaceOnUse" x="0" y="0" width="960" height="540">
<path d="M960 0H0V540H960V0Z" fill="white"/>
</mask>
<g mask="url(#mask0_287_61308)">
<mask id="mask1_287_61308" style="mask-type:luminance" maskUnits="userSpaceOnUse" x="-49" y="-74" width="169" height="355">
<path d="M-48.5703 195.62L119.55 280.43L87.0697 -73.2402L-48.5703 195.62Z" fill="white"/>
</mask>
<g mask="url(#mask1_287_61308)">
<path d="M123.968 127.43L131.728 125.45C131.728 125.45 135.178 125.25 139.278 124.69C143.378 124.16 148.148 123.2 150.718 121.88C157.588 120.97 164.458 119.77 171.258 118.13C171.258 118.13 171.778 117.95 172.588 117.67C173.398 117.37 174.498 116.93 175.658 116.45C177.978 115.46 180.548 114.19 181.578 113.21C182.878 112.01 183.568 110.9 183.508 110.13C183.448 109.35 182.638 108.91 180.918 109.07C179.198 109.24 176.578 109.99 172.768 111.41C172.648 111.36 172.308 111.36 172.238 111.25C168.288 112.98 164.128 113.84 159.908 114.41C155.678 114.98 151.408 115.35 147.048 116.15C147.228 116.57 146.998 116.96 146.688 116.77V116.21C141.008 118.21 137.098 116.95 131.948 119.54C131.948 119.53 132.468 118.75 132.478 118.73C123.288 120.11 112.278 121.37 101.198 122.71C90.1283 124 78.8483 125.05 68.8283 126.17L68.9383 126.24L68.8983 126.32C69.8483 126.52 72.5683 126.68 75.0583 126.76C77.5383 126.81 79.7883 126.85 79.7883 126.85C73.2983 130.09 65.4383 127.84 58.3183 128.32L58.3383 127.61C61.4283 127.46 64.1483 126.99 65.2283 126.61C59.6683 126.47 51.3483 126.61 43.0883 126.8C34.8283 127.01 26.6383 127.27 21.3183 127.78C21.5983 128.32 24.8783 127.15 25.7083 128.9C22.9883 128.9 20.2683 129.16 17.6983 129.1C17.7183 127.95 19.1883 128.36 19.4783 128.16C18.3783 127.83 11.9083 127.47 3.1883 126.94C-5.5317 126.42 -16.5117 125.66 -26.6817 124.87C-46.9917 123.3 -64.1217 121.61 -53.7417 125.48L-54.3617 126C-48.8417 126.96 -44.2717 127.72 -38.5817 129.44C-37.7517 129.44 -37.6717 129.56 -37.6117 128.96C-37.3817 128.89 -37.0017 128.76 -37.0717 128.5C-37.0117 127.07 -35.2617 127.81 -34.4617 127.84C-35.1617 130.02 -30.6517 130.58 -25.6617 130.55C-20.6717 130.54 -15.2117 129.92 -13.9517 130.09C-13.5917 132.25 -8.9817 130.47 -7.5117 131.44C-7.6217 131.52 -8.3317 131.95 -8.4217 132.03C-7.7717 132.75 -1.7517 132.46 3.2583 132.18C8.2783 131.91 12.3083 131.7 9.0583 132.94C22.3483 135.56 41.2483 135.3 60.2683 133.95C79.2983 132.68 98.5183 130.23 113.028 130.28L112.778 130.05C113.018 130.1 113.698 129.89 113.908 130.17C116.608 128.97 123.938 127.4 123.938 127.4L123.968 127.43ZM57.9883 131.34C57.9883 131.34 57.9583 131.45 57.9883 131.48C57.9583 131.26 54.2883 131.57 54.1383 131.52V130.81C57.7783 129.3 66.6683 133.62 58.3683 131.98C58.0983 132.16 58.0683 131.58 57.9983 131.34H57.9883ZM25.1383 132.07C24.4983 132 23.7983 131.94 23.0283 131.88C31.5183 129.7 43.0383 132.27 52.3583 130.84C49.2983 134.14 41.6083 132.7 37.5883 132.59C33.5383 133.39 28.7283 132.55 25.1383 132.07ZM-29.6517 129.12L-29.7017 129.49L-30.0017 129.46C-30.0017 129.36 -29.9417 129.25 -29.8817 129.21C-29.8317 129.14 -29.7217 129.09 -29.6517 129.12ZM119.268 126.34C118.718 127 116.318 126.96 117.748 125.64C118.178 125.78 119.278 125.1 119.268 126.34ZM15.5383 131.14C15.5183 132.31 12.3883 132.49 12.4183 130.87C13.4883 130.87 14.5183 131 15.5383 131.14ZM142.168 122.09C142.798 120.73 142.768 122.15 143.158 122.87C142.928 122.73 142.168 122.77 142.248 122.19L142.168 122.09ZM156.448 118.97C156.538 118.33 157.268 117.79 157.638 117.69C158.708 117.95 156.988 119.42 156.448 118.97ZM179.608 112.8C179.418 112.14 179.878 111.74 180.248 112.33C180.358 112.83 179.828 113.44 179.478 112.71C179.498 112.74 179.538 112.79 179.598 112.8H179.608ZM1.20831 128.23C2.12831 126.21 4.8983 127.99 6.4383 127.48C6.0383 129.51 3.3483 127.91 2.1783 128.22C1.7683 128.2 1.44831 128.21 1.20831 128.23ZM95.3883 125.42C95.1583 123.62 98.4783 124.7 99.4883 124.18L99.5483 124.89C98.0083 125.26 97.1183 125.82 95.4483 125.41H95.3883V125.42ZM30.1983 128.1C30.7883 127.38 31.8083 128.06 32.4183 128.04C32.4183 129.07 29.8183 129.25 30.1983 128.1ZM56.6483 127.66C56.8283 128.77 55.5083 128.28 55.1383 128.41C55.3883 128.17 55.8383 127.46 56.1483 127.45C56.3583 127.45 56.4283 127.58 56.6483 127.66ZM94.3083 126.24C93.0983 126.39 91.7683 126.51 90.5083 126.61L90.4783 125.9C91.7583 125.78 93.0183 125.65 94.2683 125.53L94.3083 126.24ZM81.8383 126.33L81.7783 125.62C83.5083 124.79 83.8783 126.58 81.8783 126.32H81.8383V126.33ZM110.148 123.53C109.958 123.53 109.658 123.5 109.478 123.53C106.938 123.93 110.198 120.9 110.148 123.53ZM123.408 121.17C123.648 121.03 123.958 120.78 124.238 120.77C126.048 120.63 124.268 122.59 123.408 121.17Z" fill="#CFE1FD"/>
</g>
<path d="M960 0H0V540H960V0Z" fill="#E9F2FE"/>
<path d="M347.578 270.74H475.388L633.148 -128.65H520.448L347.578 270.74Z" fill="#CFE1FD"/>
<path d="M796.249 162.06L915.259 378.12L797.409 598.8H661.069L795.099 375.81L656.449 159.75C656.449 159.75 794.519 163.79 796.249 162.06Z" fill="#CFE1FD"/>
<path d="M596.61 375.37C588.64 370.36 582.81 366.37 578.83 363.79C574.86 361.21 572.75 360.04 572.45 360.42C572.17 360.76 573.7 362.65 577.26 365.84C580.82 369.03 586.42 373.54 594.43 378.77C600.11 382.48 605.97 385.98 612.03 389.28C618.11 392.55 624.38 395.59 630.86 398.42C643.84 404.04 657.67 408.68 672.42 412.07C687.16 415.5 702.82 417.62 719.33 418.27C727.59 418.6 736.04 418.54 744.69 418.23C753.4 417.92 762.3 417.02 771.34 415.87C781.59 414.54 790.8 413.16 799.26 411.94C807.74 410.71 815.44 409.47 822.54 408.23C836.74 405.74 848.55 403.27 859.49 400.76C870.43 398.24 880.51 395.64 891.18 392.63C901.85 389.6 913.12 386.17 926.35 381.61C948.69 373.88 974.41 363.33 999.9 349.67C1012.64 342.86 1025.31 335.28 1037.49 327.07C1049.66 318.87 1061.32 310.02 1072.11 300.82C1093.68 282.41 1111.81 262.65 1124.51 244.6C1130.88 235.6 1135.93 227.08 1139.73 219.65C1143.54 212.22 1146.15 205.91 1147.85 201.33C1149.86 195.9 1151.6 190.36 1152.92 184.68C1154.09 179.63 1155.62 172.34 1156.2 163.03C1156.78 153.75 1156.44 142.47 1153.77 129.98C1151.11 117.55 1146.1 103.8 1137.06 90.98C1134.79 87.8 1132.29 84.68 1129.54 81.68C1126.76 78.71 1123.73 75.87 1120.45 73.21C1113.85 67.98 1106.37 63.44 1098.19 60.05C1090.03 56.63 1081.3 54.11 1072.29 52.4C1063.27 50.73 1053.98 49.76 1044.57 49.36C1025.75 48.61 1006.4 49.5 986.94 51.89C967.5 54.32 948 58.34 929.03 63.93C924.29 65.32 919.58 66.82 914.91 68.4C910.26 69.99 905.57 71.59 900.95 73.69C896.34 75.77 891.81 78.4 887.9 81.96C883.95 85.56 880.91 90.12 879.26 95.28C878.7 97.11 878.33 99.01 878.19 100.93C878.06 102.86 878.2 104.82 878.59 106.72C879.43 110.49 881.23 113.99 883.72 116.75C886.19 119.52 889.16 121.57 892.18 123.14C895.21 124.72 898.32 125.85 901.41 126.75C907.58 128.56 913.76 129.29 919.5 130.02C925.3 130.75 930.96 131.37 936.47 131.91C958.52 134.06 978.23 134.84 995.64 134.9C1030.46 135 1056.02 132.49 1073.46 130.5C1083.72 129.22 1093.66 127.98 1103.31 126.77C1112.96 125.5 1122.36 124.17 1131.49 122.29C1136.05 121.34 1140.53 120.25 1144.9 118.99C1149.27 117.72 1153.53 116.24 1157.67 114.65C1165.91 111.45 1173.75 107.84 1181.2 103.86C1188.64 99.87 1195.69 95.54 1202.39 90.94C1209.08 86.32 1215.4 81.55 1221.54 76.61C1233.77 66.68 1244.81 55.92 1254.78 44.36C1260.25 38 1263.94 32.89 1266.22 29.37C1268.5 25.85 1269.37 23.9 1269.05 23.67C1268.71 23.42 1267.18 24.88 1264.4 27.98C1261.62 31.08 1257.59 35.81 1252.06 41.97C1241.99 53.17 1230.92 63.55 1218.75 73.13C1212.66 77.88 1206.29 82.55 1199.69 86.98C1193.07 91.4 1186.13 95.56 1178.82 99.38C1171.51 103.19 1163.82 106.65 1155.77 109.71C1151.75 111.22 1147.64 112.61 1143.41 113.82C1139.18 115.01 1134.84 116.04 1130.39 116.94C1121.5 118.73 1112.2 120 1102.59 121.25C1092.96 122.44 1083.04 123.66 1072.8 124.92C1056.93 126.74 1032.32 128.96 999.92 128.85C983.73 128.79 965.6 128.1 945.73 126.35C935.8 125.48 925.42 124.32 914.67 122.84C909.43 122.08 904.13 121.03 899.21 119.12C896.75 118.17 894.39 117.03 892.29 115.59C890.21 114.14 888.41 112.41 887.12 110.38L886.79 109.9L886.53 109.38L886 108.34C885.71 107.62 885.46 106.87 885.22 106.14C884.81 104.66 884.68 103.1 884.77 101.52C884.95 98.36 886.07 95.16 887.8 92.28C891.25 86.48 897.25 82.41 903.86 79.4C907.43 77.75 911.25 76.35 915.17 74.96C919.08 73.58 923.04 72.25 927.05 70.99C935.07 68.46 943.29 66.21 951.63 64.24C968.3 60.3 985.47 57.57 1002.55 56.1C1011.09 55.36 1019.6 54.95 1028.02 54.84C1036.44 54.71 1044.74 54.92 1052.84 55.57C1069.01 56.86 1084.45 60.04 1097.63 65.97C1104.22 68.9 1110.22 72.48 1115.48 76.51C1118.12 78.51 1120.52 80.69 1122.79 82.88C1125.01 85.13 1127.11 87.38 1128.97 89.73C1132.75 94.38 1135.8 99.16 1138.26 103.81C1140.73 108.45 1142.63 112.94 1144.12 117.09C1147.11 125.41 1148.42 132.36 1149.17 137.12C1149.37 138.31 1149.5 139.37 1149.61 140.29C1149.73 141.21 1149.83 141.98 1149.88 142.6C1150 143.85 1150.07 144.5 1150.07 144.5C1150.07 144.5 1150.09 144.74 1150.14 145.22C1150.17 145.69 1150.22 146.4 1150.29 147.32C1150.42 149.17 1150.55 151.9 1150.54 155.42C1150.55 162.45 1149.81 172.64 1146.71 184.84C1143.67 197.03 1138.2 211.1 1129.9 225.51C1121.64 239.94 1110.62 254.65 1097.65 268.74C1084.67 282.84 1069.91 296.43 1054.02 308.69C1038.16 320.99 1021.26 332.02 1004.33 341.52C970.46 360.58 936.66 373.43 911.15 381.53C891.92 387.65 874.88 392 859.89 395.36C844.89 398.72 831.92 401.12 820.67 403.01C809.42 404.91 799.9 406.23 791.67 407.39C783.46 408.55 776.6 409.51 770.68 410.26C761.71 411.41 753.02 412.3 744.52 412.62C735.98 412.94 727.67 413.03 719.58 412.74C703.4 412.17 688.06 410.2 673.61 406.97C659.14 403.77 645.55 399.38 632.75 394.05C626.36 391.36 620.16 388.46 614.13 385.35C608.13 382.21 602.3 378.86 596.65 375.32L596.61 375.37Z" fill="#CFE1FD"/>
<path d="M566.78 165.709C565.73 166.059 565.73 169.409 566.78 169.759C568.26 170.259 569.82 170.519 571.82 170.539C574.09 170.379 574.65 169.689 576.19 169.769C578.79 169.769 583.17 170.699 584.22 170.929C584.38 170.959 584.53 170.969 584.69 170.959C585.81 170.829 590.71 170.329 594.94 170.569C597.92 170.569 599.77 170.549 600.73 170.549C603.01 170.519 604.71 170.179 606.38 169.549C607.3 169.199 607.3 166.289 606.38 165.939C604.71 165.299 603.01 164.959 600.73 164.939C599.84 164.939 598 164.139 595.4 163.999C594.98 163.979 594.55 164.029 594.13 164.159C590.5 165.249 585.79 164.939 585.79 164.939C585.79 164.939 578.76 164.929 575.79 164.919C573.56 164.919 572.48 164.929 571.82 164.939C569.82 164.959 568.26 165.229 566.78 165.729V165.709Z" fill="#CFE1FD"/>
<path d="M634.631 212.499C633.581 212.849 633.581 216.199 634.631 216.549C636.111 217.049 637.671 217.309 639.671 217.329C641.941 217.169 642.501 216.479 644.041 216.559C646.641 216.559 651.021 217.489 652.071 217.719C652.231 217.749 652.381 217.759 652.541 217.749C653.661 217.619 658.561 217.119 662.791 217.359C665.771 217.359 667.621 217.339 668.581 217.339C670.861 217.309 672.561 216.969 674.231 216.339C675.151 215.989 675.151 213.079 674.231 212.729C672.561 212.089 670.861 211.749 668.581 211.729C667.701 211.729 665.851 210.929 663.251 210.789C662.831 210.769 662.401 210.819 661.981 210.949C658.351 212.039 653.641 211.729 653.641 211.729C653.641 211.729 646.611 211.719 643.641 211.709C641.411 211.709 640.331 211.719 639.671 211.729C637.671 211.749 636.111 212.019 634.631 212.519V212.499Z" fill="#CFE1FD"/>
<path d="M588.879 176.44C585.749 176.79 585.749 180.14 588.879 180.49C593.319 180.99 597.989 181.25 603.989 181.27C610.789 181.11 612.479 180.42 617.089 180.5C624.869 180.5 638.009 181.43 641.169 181.66C641.639 181.69 642.109 181.7 642.579 181.69C645.929 181.56 660.639 181.06 673.299 181.3C682.239 181.3 687.779 181.28 690.669 181.28C697.499 181.25 702.599 180.91 707.609 180.28C710.359 179.93 710.359 177.02 707.609 176.67C702.599 176.03 697.499 175.69 690.669 175.67C688.019 175.67 682.489 174.87 674.689 174.73C673.419 174.71 672.149 174.76 670.889 174.89C660.009 175.98 645.879 175.67 645.879 175.67C645.879 175.67 624.799 175.66 615.899 175.65C609.199 175.65 605.979 175.66 603.999 175.67C597.999 175.69 593.329 175.96 588.889 176.46L588.879 176.44Z" fill="#CFE1FD"/>
<path d="M609.418 222.82C606.288 223.17 606.288 226.52 609.418 226.87C613.858 227.37 618.528 227.63 624.528 227.65C631.328 227.49 633.018 226.8 637.628 226.88C645.408 226.88 658.548 227.81 661.708 228.04C662.178 228.07 662.648 228.08 663.118 228.07C666.468 227.94 681.178 227.44 693.838 227.68C702.778 227.68 708.318 227.66 711.208 227.66C718.038 227.63 723.138 227.29 728.148 226.66C730.898 226.31 730.898 223.4 728.148 223.05C723.138 222.41 718.038 222.07 711.208 222.05C708.558 222.05 703.028 221.25 695.228 221.11C693.958 221.09 692.688 221.14 691.428 221.27C680.548 222.36 666.418 222.05 666.418 222.05C666.418 222.05 645.338 222.04 636.438 222.03C629.738 222.03 626.518 222.04 624.538 222.05C618.538 222.07 613.868 222.34 609.428 222.84L609.418 222.82Z" fill="#CFE1FD"/>
<path d="M346.499 415.42L245.559 91.6396H383.439L484.379 415.41H346.499V415.42Z" fill="#CFE1FD"/>
<path d="M347.578 270.74H439.288L400.878 147.59L347.578 270.74Z" fill="#E9F2FE"/>
<mask id="mask2_287_61308" style="mask-type:luminance" maskUnits="userSpaceOnUse" x="245" y="91" width="240" height="325">
<path d="M346.499 415.42L245.559 91.6396H383.439L484.379 415.41H346.499V415.42Z" fill="white"/>
</mask>
<g mask="url(#mask2_287_61308)">
<path d="M-39.5183 343.256L-40.2969 345.099L438.242 547.34L439.021 545.498L-39.5183 343.256Z" fill="#004CBB"/>
<path d="M-52.6941 374.414L-53.4727 376.256L425.066 578.497L425.845 576.655L-52.6941 374.414Z" fill="#004CBB"/>
</g>
<path d="M-375.011 374.809C-382.981 369.799 -388.811 365.809 -392.791 363.229C-396.761 360.649 -398.871 359.479 -399.171 359.859C-399.451 360.199 -397.921 362.089 -394.361 365.279C-390.801 368.469 -385.201 372.969 -377.191 378.209C-371.511 381.919 -365.651 385.419 -359.591 388.719C-353.511 391.989 -347.241 395.029 -340.761 397.859C-327.781 403.479 -313.951 408.119 -299.201 411.509C-284.461 414.939 -268.801 417.059 -252.291 417.709C-244.031 418.039 -235.581 417.979 -226.931 417.669C-218.221 417.359 -209.321 416.459 -200.281 415.309C-190.031 413.979 -180.821 412.599 -172.361 411.379C-163.881 410.149 -156.181 408.909 -149.081 407.669C-134.881 405.179 -123.071 402.709 -112.131 400.199C-101.191 397.679 -91.1107 395.079 -80.4407 392.069C-69.7707 389.039 -58.5007 385.609 -45.2707 381.049C-22.9307 373.319 2.78927 362.769 28.2793 349.109C41.0193 342.299 53.6893 334.719 65.8693 326.509C78.0393 318.309 89.6993 309.459 100.489 300.259C122.059 281.849 140.189 262.089 152.889 244.039C159.259 235.039 164.309 226.519 168.109 219.089C171.919 211.659 174.529 205.349 176.229 200.769C178.239 195.339 179.979 189.799 181.299 184.119C182.469 179.069 183.999 171.779 184.579 162.469C185.159 153.189 184.819 141.909 182.149 129.419C179.489 116.989 174.479 103.239 165.439 90.4195C163.169 87.2395 160.669 84.1195 157.919 81.1195C155.139 78.1495 152.109 75.3095 148.829 72.6495C142.229 67.4195 134.749 62.8795 126.569 59.4895C118.409 56.0695 109.679 53.5495 100.669 51.8395C91.6493 50.1695 82.3593 49.1995 72.9493 48.7995C54.1293 48.0495 34.7793 48.9395 15.3193 51.3295C-4.12073 53.7595 -23.6207 57.7795 -42.5907 63.3695C-47.3307 64.7595 -52.0407 66.2495 -56.7107 67.8395C-61.3607 69.4295 -66.0507 71.0295 -70.6707 73.1295C-75.2807 75.2095 -79.8107 77.8395 -83.7207 81.3995C-87.6707 84.9995 -90.7107 89.5595 -92.3607 94.7195C-92.9207 96.5495 -93.2907 98.4495 -93.4307 100.369C-93.5607 102.299 -93.4207 104.259 -93.0307 106.159C-92.1907 109.929 -90.3907 113.429 -87.9007 116.189C-85.4307 118.959 -82.4607 121.009 -79.4407 122.579C-76.4107 124.159 -73.3007 125.289 -70.2107 126.189C-64.0407 127.999 -57.8607 128.729 -52.1207 129.459C-46.3207 130.189 -40.6607 130.809 -35.1507 131.349C-13.1007 133.499 6.60929 134.279 24.0193 134.339C58.8493 134.439 84.3993 131.929 101.839 129.939C112.099 128.659 122.039 127.419 131.689 126.209C141.339 124.939 150.739 123.609 159.869 121.729C164.429 120.779 168.909 119.689 173.279 118.429C177.649 117.159 181.909 115.679 186.049 114.089C194.289 110.889 202.129 107.279 209.579 103.299C217.019 99.3095 224.069 94.9795 230.769 90.3795C237.459 85.7595 243.779 80.9895 249.919 76.0495C262.149 66.1195 273.189 55.3595 283.159 43.7995C288.629 37.4395 292.319 32.3295 294.599 28.8095C296.879 25.2895 297.749 23.3395 297.429 23.1095C297.089 22.8595 295.559 24.3195 292.779 27.4195C289.999 30.5195 285.969 35.2495 280.439 41.4095C270.369 52.6095 259.299 62.9895 247.129 72.5695C241.039 77.3195 234.669 81.9895 228.069 86.4195C221.449 90.8395 214.509 94.9995 207.199 98.8195C199.889 102.629 192.199 106.089 184.149 109.149C180.129 110.659 176.019 112.049 171.789 113.259C167.559 114.449 163.219 115.479 158.769 116.379C149.879 118.169 140.579 119.439 130.969 120.689C121.339 121.879 111.419 123.099 101.179 124.359C85.3093 126.179 60.6993 128.399 28.2993 128.289C12.1093 128.229 -6.02072 127.539 -25.8907 125.789C-35.8207 124.919 -46.2007 123.759 -56.9507 122.279C-62.1907 121.519 -67.4907 120.469 -72.4107 118.559C-74.8707 117.609 -77.2307 116.469 -79.3307 115.029C-81.4107 113.579 -83.2107 111.849 -84.5007 109.819L-84.8307 109.339L-85.0907 108.819L-85.6207 107.779C-85.9107 107.059 -86.1607 106.309 -86.4007 105.579C-86.8107 104.099 -86.9407 102.539 -86.8507 100.959C-86.6707 97.7995 -85.5507 94.5995 -83.8207 91.7195C-80.3707 85.9195 -74.3707 81.8495 -67.7607 78.8395C-64.1907 77.1895 -60.3707 75.7895 -56.4507 74.3995C-52.5407 73.0195 -48.5807 71.6895 -44.5707 70.4295C-36.5507 67.8995 -28.3307 65.6495 -19.9907 63.6795C-3.32072 59.7395 13.8493 57.0095 30.9293 55.5395C39.4693 54.7995 47.9793 54.3895 56.3993 54.2795C64.8193 54.1495 73.1193 54.3595 81.2193 55.0095C97.3893 56.2995 112.829 59.4795 126.009 65.4095C132.599 68.3395 138.599 71.9195 143.859 75.9495C146.499 77.9495 148.899 80.1295 151.169 82.3195C153.389 84.5695 155.489 86.8195 157.349 89.1695C161.129 93.8195 164.179 98.5995 166.639 103.249C169.109 107.889 171.009 112.379 172.499 116.529C175.489 124.849 176.799 131.799 177.549 136.559C177.749 137.749 177.879 138.809 177.989 139.729C178.109 140.649 178.209 141.419 178.259 142.039C178.379 143.289 178.449 143.939 178.449 143.939C178.449 143.939 178.469 144.179 178.519 144.659C178.549 145.129 178.599 145.839 178.669 146.759C178.799 148.609 178.929 151.339 178.919 154.859C178.929 161.889 178.189 172.079 175.089 184.279C172.049 196.469 166.579 210.539 158.279 224.949C150.019 239.379 138.999 254.089 126.029 268.179C113.049 282.279 98.2893 295.869 82.3993 308.129C66.5393 320.429 49.6393 331.459 32.7093 340.959C-1.16074 360.019 -34.9607 372.869 -60.4707 380.969C-79.7007 387.089 -96.7407 391.439 -111.731 394.799C-126.731 398.159 -139.701 400.559 -150.951 402.449C-162.201 404.349 -171.721 405.669 -179.951 406.829C-188.161 407.989 -195.021 408.949 -200.941 409.699C-209.911 410.849 -218.601 411.739 -227.101 412.059C-235.641 412.379 -243.951 412.469 -252.041 412.179C-268.221 411.609 -283.561 409.639 -298.011 406.409C-312.481 403.219 -326.071 398.819 -338.871 393.489C-345.261 390.799 -351.461 387.899 -357.491 384.789C-363.491 381.649 -369.321 378.299 -374.971 374.759L-375.011 374.809Z" fill="#CFE1FD"/>
<path d="M-48.5703 195.62L119.55 280.43L87.0697 -73.2402L-48.5703 195.62Z" fill="#CFE1FD"/>
<path d="M203.608 253.049L35.4883 168.239L67.9783 521.909L203.608 253.049Z" fill="#CFE1FD"/>
<path d="M122.458 284.699L-51.9219 196.729L88.7581 -82.1406L122.458 284.699ZM-45.2119 194.509L116.648 276.169L85.3681 -64.3306L-45.2119 194.509Z" fill="#CFE1FD"/>
<path d="M185.899 108.51C182.669 110.28 184.189 114.48 187.869 113.53C193.069 112.2 198.409 110.32 204.909 107.15C206.719 106.19 208.149 105.33 209.369 104.58C210.579 103.81 211.559 103.12 212.479 102.49C214.309 101.21 215.849 100.1 218.259 98.7497C222.289 96.3997 227.759 93.3097 232.549 90.4297C237.349 87.5597 241.499 84.9497 243.099 83.9597C243.569 83.6597 244.029 83.3397 244.459 82.9897C245.239 82.3497 246.679 81.1597 248.579 79.5897C250.449 77.9897 252.829 76.0497 255.379 73.7797C260.529 69.2997 266.569 63.7397 272.079 58.4897C274.009 56.6197 275.669 54.8397 277.199 53.2797C278.689 51.6797 280.039 50.2697 281.189 48.9997C283.509 46.4597 285.169 44.5497 286.299 43.2397C291.639 37.0197 295.039 31.8797 297.939 26.5797C299.519 23.6497 296.359 21.3997 294.069 23.7097C289.869 27.9097 285.869 32.3397 280.629 38.3397C278.589 40.6797 273.559 44.8297 267.039 51.1197C265.969 52.1397 264.969 53.2197 264.039 54.3697C260.009 59.2997 254.719 64.3597 250.379 68.0597C246.039 71.7797 242.689 74.1897 242.689 74.1897C242.689 74.1897 241.469 75.1197 239.499 76.6197C237.499 78.1097 234.759 80.1397 231.709 82.2997C225.639 86.6397 218.259 91.2897 213.749 93.8497C206.989 97.7397 203.599 99.3597 201.549 100.41C195.299 103.53 190.449 105.97 185.859 108.49L185.899 108.51Z" fill="#CFE1FD"/>
<path d="M347.578 270.179H439.288L400.878 147.029L347.578 270.179Z" fill="#E9F2FE"/>
<path d="M-52.2889 124.58C-58.4489 124.13 -58.9189 127.45 -52.7989 128.6C-44.1189 130.19 -34.9289 131.47 -23.0589 132.43C-9.57893 133.27 -6.18892 132.7 2.93108 133.15C10.6411 133.45 21.0111 133.87 30.2411 134.07C39.4711 134.29 47.5711 134.31 50.7211 134.3C51.6511 134.3 52.5811 134.28 53.5111 134.22C56.8311 134.01 65.7911 133.48 77.0211 132.47C82.6411 131.97 88.8211 131.38 95.1611 130.68C101.481 129.95 107.961 129.2 114.191 128.47C131.721 126.33 142.621 124.85 148.311 123.91C161.741 121.76 171.751 118.96 181.011 115.07C186.091 112.86 184.981 110.16 179.821 111.66C170.351 114.26 160.651 116.3 147.421 118.36C142.281 119.21 131.411 119.88 116.091 121.6C113.601 121.89 111.111 122.25 108.651 122.68C98.0811 124.59 85.8811 126.04 76.2711 126.82C66.6811 127.63 59.7311 127.88 59.7311 127.88C59.7311 127.88 49.3711 128.46 36.8111 128.66C24.2511 128.89 9.50107 128.59 0.761074 128.2C-12.4089 127.65 -18.7389 127.1 -22.6289 126.82C-34.3989 125.91 -43.5589 125.17 -52.2989 124.57L-52.2889 124.58Z" fill="#CFE1FD"/>
<mask id="mask3_287_61308" style="mask-type:luminance" maskUnits="userSpaceOnUse" x="236" y="-87" width="678" height="158">
<path d="M260.288 -86.1602L236.598 -45.9402L433.648 70.0998L903.488 54.9598L913.158 38.5398L701.348 -86.2002L260.288 -86.1602Z" fill="white"/>
</mask>
<g mask="url(#mask3_287_61308)">
<path d="M485.48 -187.275L484.312 -184.512L962.851 17.7295L964.019 14.9661L485.48 -187.275Z" fill="#CFE1FD"/>
<path d="M471.651 -161.854L470.457 -159.102L949.638 48.8545L950.832 46.1025L471.651 -161.854Z" fill="#CFE1FD"/>
<path d="M250.736 -222.871L249.535 -220.122L936.459 79.9876L937.66 77.2385L250.736 -222.871Z" fill="#CFE1FD"/>
<path d="M237.58 -191.727L236.379 -188.978L923.303 111.132L924.504 108.383L237.58 -191.727Z" fill="#CFE1FD"/>
<path d="M224.412 -160.567L223.211 -157.818L910.135 142.291L911.336 139.542L224.412 -160.567Z" fill="#CFE1FD"/>
<path d="M211.244 -129.418L210.043 -126.669L896.967 173.441L898.168 170.692L211.244 -129.418Z" fill="#CFE1FD"/>
<path d="M198.08 -98.2676L196.879 -95.5186L883.803 204.591L885.004 201.842L198.08 -98.2676Z" fill="#CFE1FD"/>
<path d="M196.738 -61.2091L195.539 -58.459L870.661 235.793L871.859 233.043L196.738 -61.2091Z" fill="#CFE1FD"/>
<path d="M968.495 -91.7484L817.555 255.059L820.305 256.256L971.245 -90.5512L968.495 -91.7484Z" fill="#CFE1FD"/>
<path d="M937.338 -104.922L786.398 241.885L789.149 243.082L940.089 -103.725L937.338 -104.922Z" fill="#CFE1FD"/>
<path d="M906.19 -118.091L755.25 228.716L758.001 229.913L908.941 -116.894L906.19 -118.091Z" fill="#CFE1FD"/>
<path d="M875.041 -131.255L724.102 215.552L726.852 216.749L877.792 -130.058L875.041 -131.255Z" fill="#CFE1FD"/>
<path d="M843.889 -144.415L692.949 202.392L695.7 203.589L846.64 -143.218L843.889 -144.415Z" fill="#CFE1FD"/>
<path d="M812.733 -157.589L661.793 189.218L664.544 190.415L815.484 -156.392L812.733 -157.589Z" fill="#CFE1FD"/>
<path d="M781.584 -170.749L630.645 176.058L633.395 177.255L784.335 -169.552L781.584 -170.749Z" fill="#CFE1FD"/>
<path d="M750.424 -183.913L599.484 162.894L602.235 164.091L753.175 -182.716L750.424 -183.913Z" fill="#CFE1FD"/>
<path d="M719.276 -197.083L568.336 149.724L571.087 150.921L722.027 -195.886L719.276 -197.083Z" fill="#CFE1FD"/>
<path d="M688.12 -210.257L537.18 136.55L539.93 137.747L690.87 -209.06L688.12 -210.257Z" fill="#CFE1FD"/>
<path d="M656.967 -223.408L506.027 123.399L508.778 124.597L659.718 -222.21L656.967 -223.408Z" fill="#CFE1FD"/>
<path d="M625.811 -236.581L474.871 110.226L477.622 111.423L628.562 -235.384L625.811 -236.581Z" fill="#CFE1FD"/>
<path d="M594.655 -249.744L443.715 97.0625L446.466 98.2597L597.406 -248.547L594.655 -249.744Z" fill="#CFE1FD"/>
<path d="M563.506 -262.914L412.566 83.8926L415.317 85.0898L566.257 -261.717L563.506 -262.914Z" fill="#CFE1FD"/>
<path d="M516.476 -251.165L383.953 67.9844L386.724 69.1348L519.246 -250.015L516.476 -251.165Z" fill="#CFE1FD"/>
<path d="M433.244 -139.612L351.969 50.3838L354.727 51.5637L436.002 -138.432L433.244 -139.612Z" fill="#CFE1FD"/>
<path d="M402.08 -152.772L320.805 37.2236L323.563 38.4035L404.838 -151.593L402.08 -152.772Z" fill="#CFE1FD"/>
<path d="M370.92 -165.943L289.645 24.0527L292.403 25.2326L373.678 -164.763L370.92 -165.943Z" fill="#CFE1FD"/>
<path d="M339.779 -179.109L258.504 10.8867L261.262 12.0666L342.538 -177.929L339.779 -179.109Z" fill="#CFE1FD"/>
</g>
<mask id="mask4_287_61308" style="mask-type:luminance" maskUnits="userSpaceOnUse" x="245" y="91" width="240" height="325">
<path d="M346.499 415.42L245.559 91.6396H383.439L484.379 415.41H346.499V415.42Z" fill="white"/>
</mask>
<g mask="url(#mask4_287_61308)">
<path d="M118.652 -31.0329L117.484 -28.2695L596.023 173.972L597.191 171.208L118.652 -31.0329Z" fill="#E9F2FE"/>
<path d="M105.5 0.11946L104.332 2.88281L582.871 205.124L584.039 202.361L105.5 0.11946Z" fill="#E9F2FE"/>
<path d="M92.3241 31.2767L91.1562 34.04L569.695 236.281L570.863 233.518L92.3241 31.2767Z" fill="#E9F2FE"/>
<path d="M79.1561 62.4154L77.9883 65.1787L556.527 267.42L557.695 264.657L79.1561 62.4154Z" fill="#E9F2FE"/>
<path d="M65.9999 93.5765L64.832 96.3398L543.371 298.581L544.539 295.818L65.9999 93.5765Z" fill="#E9F2FE"/>
<path d="M52.8319 124.724L51.6641 127.487L530.203 329.729L531.371 326.965L52.8319 124.724Z" fill="#E9F2FE"/>
<path d="M39.6679 155.881L38.5 158.645L517.039 360.886L518.207 358.122L39.6679 155.881Z" fill="#E9F2FE"/>
<path d="M26.4999 187.043L25.332 189.807L503.871 392.048L505.039 389.284L26.4999 187.043Z" fill="#E9F2FE"/>
<path d="M13.3319 218.191L12.1641 220.954L490.703 423.195L491.871 420.432L13.3319 218.191Z" fill="#E9F2FE"/>
<path d="M0.167854 249.348L-1 252.111L477.539 454.353L478.707 451.589L0.167854 249.348Z" fill="#E9F2FE"/>
<path d="M-13.004 280.496L-14.1719 283.26L464.367 485.501L465.535 482.738L-13.004 280.496Z" fill="#E9F2FE"/>
<path d="M-26.1681 311.658L-27.3359 314.421L451.203 516.662L452.371 513.899L-26.1681 311.658Z" fill="#E9F2FE"/>
<path d="M573.995 119.681L371.754 598.22L374.517 599.388L576.758 120.849L573.995 119.681Z" fill="#E9F2FE"/>
<path d="M542.847 106.521L340.605 585.06L343.369 586.227L545.61 107.688L542.847 106.521Z" fill="#E9F2FE"/>
<path d="M511.69 93.3468L309.449 571.886L312.213 573.054L514.454 94.5147L511.69 93.3468Z" fill="#E9F2FE"/>
<path d="M480.538 80.1954L278.297 558.734L281.06 559.902L483.301 81.3633L480.538 80.1954Z" fill="#E9F2FE"/>
<path d="M449.382 67.0216L247.141 545.561L249.904 546.728L452.145 68.1895L449.382 67.0216Z" fill="#E9F2FE"/>
<path d="M418.233 53.8517L215.992 532.391L218.756 533.558L420.997 55.0195L418.233 53.8517Z" fill="#E9F2FE"/>
<path d="M387.081 40.6964L184.84 519.235L187.603 520.403L389.844 41.8643L387.081 40.6964Z" fill="#E9F2FE"/>
<path d="M355.933 27.5265L153.691 506.065L156.455 507.233L358.696 28.6943L355.933 27.5265Z" fill="#E9F2FE"/>
<path d="M324.776 14.3517L122.535 492.891L125.299 494.058L327.54 15.5195L324.776 14.3517Z" fill="#E9F2FE"/>
<path d="M293.624 1.20126L91.3828 479.74L94.1462 480.908L296.387 2.36911L293.624 1.20126Z" fill="#E9F2FE"/>
<path d="M262.468 -11.9726L60.2266 466.566L62.9899 467.734L265.231 -10.8047L262.468 -11.9726Z" fill="#E9F2FE"/>
</g>
<mask id="mask5_287_61308" style="mask-type:luminance" maskUnits="userSpaceOnUse" x="236" y="471" width="678" height="157">
<path d="M260.288 471.479L236.598 511.699L433.648 627.739L903.488 612.589L913.158 596.179L701.348 471.439L260.288 471.479Z" fill="white"/>
</mask>
<g mask="url(#mask5_287_61308)">
<path d="M534.687 308.072L533.52 310.835L1012.06 513.076L1013.23 510.313L534.687 308.072Z" fill="#CFE1FD"/>
<path d="M521.523 339.233L520.355 341.996L998.894 544.237L1000.06 541.474L521.523 339.233Z" fill="#CFE1FD"/>
<path d="M508.363 370.371L507.195 373.135L985.734 575.376L986.902 572.613L508.363 370.371Z" fill="#CFE1FD"/>
<path d="M494.546 395.76L493.352 398.512L972.532 606.468L973.727 603.716L494.546 395.76Z" fill="#CFE1FD"/>
<path d="M273.639 334.724L272.438 337.473L959.361 637.582L960.562 634.833L273.639 334.724Z" fill="#CFE1FD"/>
<path d="M260.471 365.873L259.27 368.622L946.193 668.732L947.394 665.983L260.471 365.873Z" fill="#CFE1FD"/>
<path d="M247.314 397.027L246.113 399.776L933.037 699.886L934.238 697.137L247.314 397.027Z" fill="#CFE1FD"/>
<path d="M234.146 428.177L232.945 430.926L919.869 731.035L921.07 728.286L234.146 428.177Z" fill="#CFE1FD"/>
<path d="M220.982 459.326L219.781 462.075L906.705 762.185L907.906 759.436L220.982 459.326Z" fill="#CFE1FD"/>
<path d="M219.624 496.422L218.426 499.172L893.547 793.424L894.746 790.674L219.624 496.422Z" fill="#CFE1FD"/>
<path d="M991.377 465.89L840.438 812.697L843.188 813.894L994.128 467.087L991.377 465.89Z" fill="#CFE1FD"/>
<path d="M960.221 452.726L809.281 799.533L812.032 800.73L962.972 453.923L960.221 452.726Z" fill="#CFE1FD"/>
<path d="M929.073 439.556L778.133 786.363L780.884 787.56L931.823 440.754L929.073 439.556Z" fill="#CFE1FD"/>
<path d="M897.913 426.392L746.973 773.199L749.723 774.396L900.663 427.589L897.913 426.392Z" fill="#CFE1FD"/>
<path d="M866.764 413.222L715.824 760.029L718.575 761.227L869.515 414.419L866.764 413.222Z" fill="#CFE1FD"/>
<path d="M835.608 400.058L684.668 746.865L687.419 748.062L838.359 401.255L835.608 400.058Z" fill="#CFE1FD"/>
<path d="M804.459 386.889L653.52 733.696L656.27 734.893L807.21 388.087L804.459 386.889Z" fill="#CFE1FD"/>
<path d="M773.299 373.724L622.359 720.531L625.11 721.728L776.05 374.921L773.299 373.724Z" fill="#CFE1FD"/>
<path d="M742.151 360.565L591.211 707.372L593.962 708.569L744.902 361.762L742.151 360.565Z" fill="#CFE1FD"/>
<path d="M711.002 347.391L560.062 694.198L562.813 695.395L713.753 348.588L711.002 347.391Z" fill="#CFE1FD"/>
<path d="M679.842 334.226L528.902 681.033L531.653 682.23L682.593 335.423L679.842 334.226Z" fill="#CFE1FD"/>
<path d="M648.698 321.067L497.758 667.874L500.509 669.071L651.449 322.264L648.698 321.067Z" fill="#CFE1FD"/>
<path d="M617.538 307.893L466.598 654.7L469.348 655.897L620.288 309.09L617.538 307.893Z" fill="#CFE1FD"/>
<path d="M586.389 294.733L435.449 641.54L438.2 642.737L589.14 295.93L586.389 294.733Z" fill="#CFE1FD"/>
<path d="M539.358 306.483L406.836 625.633L409.607 626.783L542.129 307.634L539.358 306.483Z" fill="#CFE1FD"/>
<path d="M456.111 418.028L374.836 608.024L377.594 609.204L458.87 419.208L456.111 418.028Z" fill="#CFE1FD"/>
<path d="M424.959 404.871L343.684 594.867L346.442 596.047L427.717 406.051L424.959 404.871Z" fill="#CFE1FD"/>
<path d="M393.799 391.701L312.523 581.697L315.282 582.877L396.557 392.881L393.799 391.701Z" fill="#CFE1FD"/>
<path d="M362.658 378.535L281.383 568.531L284.141 569.711L365.417 379.715L362.658 378.535Z" fill="#CFE1FD"/>
<path d="M331.494 365.374L250.219 555.37L252.977 556.55L334.252 366.554L331.494 365.374Z" fill="#CFE1FD"/>
<path d="M300.342 352.208L219.066 542.204L221.825 543.384L303.1 353.388L300.342 352.208Z" fill="#CFE1FD"/>
<path d="M269.193 339.037L187.918 529.033L190.676 530.213L271.952 340.217L269.193 339.037Z" fill="#CFE1FD"/>
</g>
<path d="M368.871 829.419H496.681L654.441 430.029H541.741L368.871 829.419Z" fill="#CFE1FD"/>
<path d="M432.75 630.199L432.13 629.829L232.93 512.519L258.61 468.909L701.78 468.869L702.37 469.219L916.34 595.229L904.71 614.989L903.33 615.029L432.76 630.199H432.75ZM239.76 510.739L434.03 625.149L901.77 610.069L909.47 596.989L700.4 473.859L261.45 473.899L239.76 510.729V510.739Z" fill="#CFE1FD"/>
<path d="M432.748 71.5197L432.128 71.1497L232.918 -46.1703L258.598 -89.7803L701.768 -89.8203L702.358 -89.4703L916.328 36.5397L904.698 56.2997L903.318 56.3397L432.748 71.5097V71.5197ZM239.758 -47.9403L434.028 66.4697L901.768 51.3897L909.468 38.3097L700.398 -84.8203L261.448 -84.7803L239.758 -47.9503V-47.9403Z" fill="#CFE1FD"/>
<path d="M923.051 196.179L1091.17 280.989L1058.69 -72.6807L923.051 196.179Z" fill="#CFE1FD"/>
<path d="M643.221 468.88H516.711V473.88H643.221V468.88Z" fill="#CFE1FD"/>
<path d="M617.908 -89.8701L503.638 -89.8601L436.008 66.3699L557.738 62.4499L617.908 -89.8701Z" fill="#E9F2FE"/>
<path d="M827.31 542.81L729.41 485.09L726.84 489.38L824.95 547.22L827.31 542.81Z" fill="#E9F2FE"/>
<mask id="mask6_287_61308" style="mask-type:luminance" maskUnits="userSpaceOnUse" x="656" y="159" width="260" height="440">
<path d="M796.249 162.06L915.259 378.12L797.409 598.8H661.069L795.099 375.81L656.449 159.75C656.449 159.75 794.519 163.79 796.249 162.06Z" fill="white"/>
</mask>
<g mask="url(#mask6_287_61308)">
<path d="M596.61 375.37C588.64 370.36 582.81 366.37 578.83 363.79C574.86 361.21 572.75 360.04 572.45 360.42C572.17 360.76 573.7 362.65 577.26 365.84C580.82 369.03 586.42 373.54 594.43 378.77C600.11 382.48 605.97 385.98 612.03 389.28C618.11 392.55 624.38 395.59 630.86 398.42C643.84 404.04 657.67 408.68 672.42 412.07C687.16 415.5 702.82 417.62 719.33 418.27C727.59 418.6 736.04 418.54 744.69 418.23C753.4 417.92 762.3 417.02 771.34 415.87C781.59 414.54 790.8 413.16 799.26 411.94C807.74 410.71 815.44 409.47 822.54 408.23C836.74 405.74 848.55 403.27 859.49 400.76C870.43 398.24 880.51 395.64 891.18 392.63C901.85 389.6 913.12 386.17 926.35 381.61C948.69 373.88 974.41 363.33 999.9 349.67C1012.64 342.86 1025.31 335.28 1037.49 327.07C1049.66 318.87 1061.32 310.02 1072.11 300.82C1093.68 282.41 1111.81 262.65 1124.51 244.6C1130.88 235.6 1135.93 227.08 1139.73 219.65C1143.54 212.22 1146.15 205.91 1147.85 201.33C1149.86 195.9 1151.6 190.36 1152.92 184.68C1154.09 179.63 1155.62 172.34 1156.2 163.03C1156.78 153.75 1156.44 142.47 1153.77 129.98C1151.11 117.55 1146.1 103.8 1137.06 90.98C1134.79 87.8 1132.29 84.68 1129.54 81.68C1126.76 78.71 1123.73 75.87 1120.45 73.21C1113.85 67.98 1106.37 63.44 1098.19 60.05C1090.03 56.63 1081.3 54.11 1072.29 52.4C1063.27 50.73 1053.98 49.76 1044.57 49.36C1025.75 48.61 1006.4 49.5 986.94 51.89C967.5 54.32 948 58.34 929.03 63.93C924.29 65.32 919.58 66.82 914.91 68.4C910.26 69.99 905.57 71.59 900.95 73.69C896.34 75.77 891.81 78.4 887.9 81.96C883.95 85.56 880.91 90.12 879.26 95.28C878.7 97.11 878.33 99.01 878.19 100.93C878.06 102.86 878.2 104.82 878.59 106.72C879.43 110.49 881.23 113.99 883.72 116.75C886.19 119.52 889.16 121.57 892.18 123.14C895.21 124.72 898.32 125.85 901.41 126.75C907.58 128.56 913.76 129.29 919.5 130.02C925.3 130.75 930.96 131.37 936.47 131.91C958.52 134.06 978.23 134.84 995.64 134.9C1030.46 135 1056.02 132.49 1073.46 130.5C1083.72 129.22 1093.66 127.98 1103.31 126.77C1112.96 125.5 1122.36 124.17 1131.49 122.29C1136.05 121.34 1140.53 120.25 1144.9 118.99C1149.27 117.72 1153.53 116.24 1157.67 114.65C1165.91 111.45 1173.75 107.84 1181.2 103.86C1188.64 99.87 1195.69 95.54 1202.39 90.94C1209.08 86.32 1215.4 81.55 1221.54 76.61C1233.77 66.68 1244.81 55.92 1254.78 44.36C1260.25 38 1263.94 32.89 1266.22 29.37C1268.5 25.85 1269.37 23.9 1269.05 23.67C1268.71 23.42 1267.18 24.88 1264.4 27.98C1261.62 31.08 1257.59 35.81 1252.06 41.97C1241.99 53.17 1230.92 63.55 1218.75 73.13C1212.66 77.88 1206.29 82.55 1199.69 86.98C1193.07 91.4 1186.13 95.56 1178.82 99.38C1171.51 103.19 1163.82 106.65 1155.77 109.71C1151.75 111.22 1147.64 112.61 1143.41 113.82C1139.18 115.01 1134.84 116.04 1130.39 116.94C1121.5 118.73 1112.2 120 1102.59 121.25C1092.96 122.44 1083.04 123.66 1072.8 124.92C1056.93 126.74 1032.32 128.96 999.92 128.85C983.73 128.79 965.6 128.1 945.73 126.35C935.8 125.48 925.42 124.32 914.67 122.84C909.43 122.08 904.13 121.03 899.21 119.12C896.75 118.17 894.39 117.03 892.29 115.59C890.21 114.14 888.41 112.41 887.12 110.38L886.79 109.9L886.53 109.38L886 108.34C885.71 107.62 885.46 106.87 885.22 106.14C884.81 104.66 884.68 103.1 884.77 101.52C884.95 98.36 886.07 95.16 887.8 92.28C891.25 86.48 897.25 82.41 903.86 79.4C907.43 77.75 911.25 76.35 915.17 74.96C919.08 73.58 923.04 72.25 927.05 70.99C935.07 68.46 943.29 66.21 951.63 64.24C968.3 60.3 985.47 57.57 1002.55 56.1C1011.09 55.36 1019.6 54.95 1028.02 54.84C1036.44 54.71 1044.74 54.92 1052.84 55.57C1069.01 56.86 1084.45 60.04 1097.63 65.97C1104.22 68.9 1110.22 72.48 1115.48 76.51C1118.12 78.51 1120.52 80.69 1122.79 82.88C1125.01 85.13 1127.11 87.38 1128.97 89.73C1132.75 94.38 1135.8 99.16 1138.26 103.81C1140.73 108.45 1142.63 112.94 1144.12 117.09C1147.11 125.41 1148.42 132.36 1149.17 137.12C1149.37 138.31 1149.5 139.37 1149.61 140.29C1149.73 141.21 1149.83 141.98 1149.88 142.6C1150 143.85 1150.07 144.5 1150.07 144.5C1150.07 144.5 1150.09 144.74 1150.14 145.22C1150.17 145.69 1150.22 146.4 1150.29 147.32C1150.42 149.17 1150.55 151.9 1150.54 155.42C1150.55 162.45 1149.81 172.64 1146.71 184.84C1143.67 197.03 1138.2 211.1 1129.9 225.51C1121.64 239.94 1110.62 254.65 1097.65 268.74C1084.67 282.84 1069.91 296.43 1054.02 308.69C1038.16 320.99 1021.26 332.02 1004.33 341.52C970.46 360.58 936.66 373.43 911.15 381.53C891.92 387.65 874.88 392 859.89 395.36C844.89 398.72 831.92 401.12 820.67 403.01C809.42 404.91 799.9 406.23 791.67 407.39C783.46 408.55 776.6 409.51 770.68 410.26C761.71 411.41 753.02 412.3 744.52 412.62C735.98 412.94 727.67 413.03 719.58 412.74C703.4 412.17 688.06 410.2 673.61 406.97C659.14 403.77 645.55 399.38 632.75 394.05C626.36 391.36 620.16 388.46 614.13 385.35C608.13 382.21 602.3 378.86 596.65 375.32L596.61 375.37Z" fill="#E9F2FE"/>
</g>
<mask id="mask7_287_61308" style="mask-type:luminance" maskUnits="userSpaceOnUse" x="656" y="159" width="260" height="440">
<path d="M796.249 162.06L915.259 378.12L797.409 598.8H661.069L795.099 375.81L656.449 159.75C656.449 159.75 794.519 163.79 796.249 162.06Z" fill="white"/>
</mask>
<g mask="url(#mask7_287_61308)">
<path d="M634.627 212.5C633.577 212.85 633.577 216.2 634.627 216.55C636.107 217.05 637.667 217.31 639.667 217.33C641.937 217.17 642.497 216.48 644.037 216.56C646.637 216.56 651.017 217.49 652.067 217.72C652.227 217.75 652.377 217.76 652.537 217.75C653.657 217.62 658.557 217.12 662.787 217.36C665.767 217.36 667.617 217.34 668.577 217.34C670.857 217.31 672.557 216.97 674.227 216.34C675.147 215.99 675.147 213.08 674.227 212.73C672.557 212.09 670.857 211.75 668.577 211.73C667.697 211.73 665.847 210.93 663.247 210.79C662.827 210.77 662.397 210.82 661.977 210.95C658.347 212.04 653.637 211.73 653.637 211.73C653.637 211.73 646.607 211.72 643.637 211.71C641.407 211.71 640.327 211.72 639.667 211.73C637.667 211.75 636.107 212.02 634.627 212.52V212.5Z" fill="#E9F2FE"/>
<path d="M588.879 176.441C585.749 176.791 585.749 180.141 588.879 180.491C593.319 180.991 597.989 181.251 603.989 181.271C610.789 181.111 612.479 180.421 617.089 180.501C624.869 180.501 638.009 181.431 641.169 181.661C641.639 181.691 642.109 181.701 642.579 181.691C645.929 181.561 660.639 181.061 673.299 181.301C682.239 181.301 687.779 181.281 690.669 181.281C697.499 181.251 702.599 180.911 707.609 180.281C710.359 179.931 710.359 177.021 707.609 176.671C702.599 176.031 697.499 175.691 690.669 175.671C688.019 175.671 682.489 174.871 674.689 174.731C673.419 174.711 672.149 174.761 670.889 174.891C660.009 175.981 645.879 175.671 645.879 175.671C645.879 175.671 624.799 175.661 615.899 175.651C609.199 175.651 605.979 175.661 603.999 175.671C597.999 175.691 593.329 175.961 588.889 176.461L588.879 176.441Z" fill="#E9F2FE"/>
<path d="M609.418 222.821C606.288 223.171 606.288 226.521 609.418 226.871C613.858 227.371 618.528 227.631 624.528 227.651C631.328 227.491 633.018 226.801 637.628 226.881C645.408 226.881 658.548 227.811 661.708 228.041C662.178 228.071 662.648 228.081 663.118 228.071C666.468 227.941 681.178 227.441 693.838 227.681C702.778 227.681 708.318 227.661 711.208 227.661C718.038 227.631 723.138 227.291 728.148 226.661C730.898 226.311 730.898 223.401 728.148 223.051C723.138 222.411 718.038 222.071 711.208 222.051C708.558 222.051 703.028 221.251 695.228 221.111C693.958 221.091 692.688 221.141 691.428 221.271C680.548 222.361 666.418 222.051 666.418 222.051C666.418 222.051 645.338 222.041 636.438 222.031C629.738 222.031 626.518 222.041 624.538 222.051C618.538 222.071 613.868 222.341 609.428 222.841L609.418 222.821Z" fill="#E9F2FE"/>
</g>
<mask id="mask8_287_61308" style="mask-type:luminance" maskUnits="userSpaceOnUse" x="-49" y="-74" width="169" height="355">
<path d="M-48.5703 195.62L119.55 280.43L87.0697 -73.2402L-48.5703 195.62Z" fill="white"/>
</mask>
<g mask="url(#mask8_287_61308)">
<path d="M-52.2889 124.58C-58.4489 124.13 -58.9189 127.45 -52.7989 128.6C-44.1189 130.19 -34.9289 131.47 -23.0589 132.43C-9.57893 133.27 -6.18892 132.7 2.93108 133.15C10.6411 133.45 21.0111 133.87 30.2411 134.07C39.4711 134.29 47.5711 134.31 50.7211 134.3C51.6511 134.3 52.5811 134.28 53.5111 134.22C56.8311 134.01 65.7911 133.48 77.0211 132.47C82.6411 131.97 88.8211 131.38 95.1611 130.68C101.481 129.95 107.961 129.2 114.191 128.47C131.721 126.33 142.621 124.85 148.311 123.91C161.741 121.76 171.751 118.96 181.011 115.07C186.091 112.86 184.981 110.16 179.821 111.66C170.351 114.26 160.651 116.3 147.421 118.36C142.281 119.21 131.411 119.88 116.091 121.6C113.601 121.89 111.111 122.25 108.651 122.68C98.0811 124.59 85.8811 126.04 76.2711 126.82C66.6811 127.63 59.7311 127.88 59.7311 127.88C59.7311 127.88 49.3711 128.46 36.8111 128.66C24.2511 128.89 9.50107 128.59 0.761074 128.2C-12.4089 127.65 -18.7389 127.1 -22.6289 126.82C-34.3989 125.91 -43.5589 125.17 -52.2989 124.57L-52.2889 124.58Z" fill="#E9F2FE"/>
</g>
<path d="M119.56 280.429L42.22 241.419L35.5 168.239L112.84 207.249L119.56 280.429Z" fill="#E9F2FE"/>
<mask id="mask9_287_61308" style="mask-type:luminance" maskUnits="userSpaceOnUse" x="35" y="168" width="169" height="354">
<path d="M203.608 253.049L35.4883 168.239L67.9783 521.909L203.608 253.049Z" fill="white"/>
</mask>
<g mask="url(#mask9_287_61308)">
<path d="M-375.011 374.809C-382.981 369.799 -388.811 365.809 -392.791 363.229C-396.761 360.649 -398.871 359.479 -399.171 359.859C-399.451 360.199 -397.921 362.089 -394.361 365.279C-390.801 368.469 -385.201 372.969 -377.191 378.209C-371.511 381.919 -365.651 385.419 -359.591 388.719C-353.511 391.989 -347.241 395.029 -340.761 397.859C-327.781 403.479 -313.951 408.119 -299.201 411.509C-284.461 414.939 -268.801 417.059 -252.291 417.709C-244.031 418.039 -235.581 417.979 -226.931 417.669C-218.221 417.359 -209.321 416.459 -200.281 415.309C-190.031 413.979 -180.821 412.599 -172.361 411.379C-163.881 410.149 -156.181 408.909 -149.081 407.669C-134.881 405.179 -123.071 402.709 -112.131 400.199C-101.191 397.679 -91.1107 395.079 -80.4407 392.069C-69.7707 389.039 -58.5007 385.609 -45.2707 381.049C-22.9307 373.319 2.78927 362.769 28.2793 349.109C41.0193 342.299 53.6893 334.719 65.8693 326.509C78.0393 318.309 89.6993 309.459 100.489 300.259C122.059 281.849 140.189 262.089 152.889 244.039C159.259 235.039 164.309 226.519 168.109 219.089C171.919 211.659 174.529 205.349 176.229 200.769C178.239 195.339 179.979 189.799 181.299 184.119C182.469 179.069 183.999 171.779 184.579 162.469C185.159 153.189 184.819 141.909 182.149 129.419C179.489 116.989 174.479 103.239 165.439 90.4195C163.169 87.2395 160.669 84.1195 157.919 81.1195C155.139 78.1495 152.109 75.3095 148.829 72.6495C142.229 67.4195 134.749 62.8795 126.569 59.4895C118.409 56.0695 109.679 53.5495 100.669 51.8395C91.6493 50.1695 82.3593 49.1995 72.9493 48.7995C54.1293 48.0495 34.7793 48.9395 15.3193 51.3295C-4.12073 53.7595 -23.6207 57.7795 -42.5907 63.3695C-47.3307 64.7595 -52.0407 66.2495 -56.7107 67.8395C-61.3607 69.4295 -66.0507 71.0295 -70.6707 73.1295C-75.2807 75.2095 -79.8107 77.8395 -83.7207 81.3995C-87.6707 84.9995 -90.7107 89.5595 -92.3607 94.7195C-92.9207 96.5495 -93.2907 98.4495 -93.4307 100.369C-93.5607 102.299 -93.4207 104.259 -93.0307 106.159C-92.1907 109.929 -90.3907 113.429 -87.9007 116.189C-85.4307 118.959 -82.4607 121.009 -79.4407 122.579C-76.4107 124.159 -73.3007 125.289 -70.2107 126.189C-64.0407 127.999 -57.8607 128.729 -52.1207 129.459C-46.3207 130.189 -40.6607 130.809 -35.1507 131.349C-13.1007 133.499 6.60929 134.279 24.0193 134.339C58.8493 134.439 84.3993 131.929 101.839 129.939C112.099 128.659 122.039 127.419 131.689 126.209C141.339 124.939 150.739 123.609 159.869 121.729C164.429 120.779 168.909 119.689 173.279 118.429C177.649 117.159 181.909 115.679 186.049 114.089C194.289 110.889 202.129 107.279 209.579 103.299C217.019 99.3095 224.069 94.9795 230.769 90.3795C237.459 85.7595 243.779 80.9895 249.919 76.0495C262.149 66.1195 273.189 55.3595 283.159 43.7995C288.629 37.4395 292.319 32.3295 294.599 28.8095C296.879 25.2895 297.749 23.3395 297.429 23.1095C297.089 22.8595 295.559 24.3195 292.779 27.4195C289.999 30.5195 285.969 35.2495 280.439 41.4095C270.369 52.6095 259.299 62.9895 247.129 72.5695C241.039 77.3195 234.669 81.9895 228.069 86.4195C221.449 90.8395 214.509 94.9995 207.199 98.8195C199.889 102.629 192.199 106.089 184.149 109.149C180.129 110.659 176.019 112.049 171.789 113.259C167.559 114.449 163.219 115.479 158.769 116.379C149.879 118.169 140.579 119.439 130.969 120.689C121.339 121.879 111.419 123.099 101.179 124.359C85.3093 126.179 60.6993 128.399 28.2993 128.289C12.1093 128.229 -6.02072 127.539 -25.8907 125.789C-35.8207 124.919 -46.2007 123.759 -56.9507 122.279C-62.1907 121.519 -67.4907 120.469 -72.4107 118.559C-74.8707 117.609 -77.2307 116.469 -79.3307 115.029C-81.4107 113.579 -83.2107 111.849 -84.5007 109.819L-84.8307 109.339L-85.0907 108.819L-85.6207 107.779C-85.9107 107.059 -86.1607 106.309 -86.4007 105.579C-86.8107 104.099 -86.9407 102.539 -86.8507 100.959C-86.6707 97.7995 -85.5507 94.5995 -83.8207 91.7195C-80.3707 85.9195 -74.3707 81.8495 -67.7607 78.8395C-64.1907 77.1895 -60.3707 75.7895 -56.4507 74.3995C-52.5407 73.0195 -48.5807 71.6895 -44.5707 70.4295C-36.5507 67.8995 -28.3307 65.6495 -19.9907 63.6795C-3.32072 59.7395 13.8493 57.0095 30.9293 55.5395C39.4693 54.7995 47.9793 54.3895 56.3993 54.2795C64.8193 54.1495 73.1193 54.3595 81.2193 55.0095C97.3893 56.2995 112.829 59.4795 126.009 65.4095C132.599 68.3395 138.599 71.9195 143.859 75.9495C146.499 77.9495 148.899 80.1295 151.169 82.3195C153.389 84.5695 155.489 86.8195 157.349 89.1695C161.129 93.8195 164.179 98.5995 166.639 103.249C169.109 107.889 171.009 112.379 172.499 116.529C175.489 124.849 176.799 131.799 177.549 136.559C177.749 137.749 177.879 138.809 177.989 139.729C178.109 140.649 178.209 141.419 178.259 142.039C178.379 143.289 178.449 143.939 178.449 143.939C178.449 143.939 178.469 144.179 178.519 144.659C178.549 145.129 178.599 145.839 178.669 146.759C178.799 148.609 178.929 151.339 178.919 154.859C178.929 161.889 178.189 172.079 175.089 184.279C172.049 196.469 166.579 210.539 158.279 224.949C150.019 239.379 138.999 254.089 126.029 268.179C113.049 282.279 98.2893 295.869 82.3993 308.129C66.5393 320.429 49.6393 331.459 32.7093 340.959C-1.16074 360.019 -34.9607 372.869 -60.4707 380.969C-79.7007 387.089 -96.7407 391.439 -111.731 394.799C-126.731 398.159 -139.701 400.559 -150.951 402.449C-162.201 404.349 -171.721 405.669 -179.951 406.829C-188.161 407.989 -195.021 408.949 -200.941 409.699C-209.911 410.849 -218.601 411.739 -227.101 412.059C-235.641 412.379 -243.951 412.469 -252.041 412.179C-268.221 411.609 -283.561 409.639 -298.011 406.409C-312.481 403.219 -326.071 398.819 -338.871 393.489C-345.261 390.799 -351.461 387.899 -357.491 384.789C-363.491 381.649 -369.321 378.299 -374.971 374.759L-375.011 374.809Z" fill="#E9F2FE"/>
</g>
<path d="M643.219 468.88H638.109V473.88H643.219V468.88Z" fill="#CFE1FD"/>
<path d="M523.841 468.88H516.711V473.88H523.841V468.88Z" fill="#CFE1FD"/>
</g>
</g>
<defs>
<clipPath id="clip0_287_61308">
<rect width="960" height="540" fill="white"/>
</clipPath>
</defs>
</svg>
