<svg width="960" height="540" viewBox="0 0 960 540" fill="none" xmlns="http://www.w3.org/2000/svg">
<g clip-path="url(#clip0_287_61796)">
<mask id="mask0_287_61796" style="mask-type:luminance" maskUnits="userSpaceOnUse" x="0" y="0" width="960" height="540">
<path d="M960 0H0V540H960V0Z" fill="white"/>
</mask>
<g mask="url(#mask0_287_61796)">
<path d="M960 0H0V540H960V0Z" fill="#F8EEFE"/>
<path d="M347.578 270.74H475.388L633.148 -128.65H520.448L347.578 270.74Z" fill="#EED7FC"/>
<path d="M796.249 162.06L915.259 378.12L797.409 598.8H661.069L795.099 375.81L656.449 159.75C656.449 159.75 794.519 163.79 796.249 162.06Z" fill="#EED7FC"/>
<path d="M596.61 375.37C588.64 370.36 582.81 366.37 578.83 363.79C574.86 361.21 572.75 360.04 572.45 360.42C572.17 360.76 573.7 362.65 577.26 365.84C580.82 369.03 586.42 373.53 594.43 378.77C600.11 382.48 605.97 385.98 612.03 389.28C618.11 392.55 624.38 395.59 630.86 398.42C643.84 404.04 657.67 408.68 672.42 412.07C687.16 415.5 702.82 417.62 719.33 418.27C727.59 418.6 736.04 418.54 744.69 418.23C753.4 417.92 762.3 417.02 771.34 415.87C781.59 414.54 790.8 413.16 799.26 411.94C807.74 410.71 815.44 409.47 822.54 408.23C836.74 405.74 848.55 403.27 859.49 400.76C870.43 398.24 880.51 395.64 891.18 392.63C901.85 389.6 913.12 386.17 926.35 381.61C948.69 373.88 974.41 363.33 999.9 349.67C1012.64 342.86 1025.31 335.28 1037.49 327.07C1049.66 318.87 1061.32 310.02 1072.11 300.82C1093.68 282.41 1111.81 262.65 1124.51 244.6C1130.88 235.6 1135.93 227.08 1139.73 219.65C1143.54 212.22 1146.15 205.91 1147.85 201.33C1149.86 195.9 1151.6 190.36 1152.92 184.68C1154.09 179.63 1155.62 172.34 1156.2 163.03C1156.78 153.75 1156.44 142.47 1153.77 129.98C1151.11 117.55 1146.1 103.8 1137.06 90.9798C1134.79 87.7998 1132.29 84.6798 1129.54 81.6798C1126.76 78.7098 1123.73 75.8698 1120.45 73.2098C1113.85 67.9798 1106.37 63.4398 1098.19 60.0498C1090.03 56.6298 1081.3 54.1098 1072.29 52.3998C1063.27 50.7298 1053.98 49.7598 1044.57 49.3598C1025.75 48.6098 1006.4 49.4998 986.94 51.8998C967.5 54.3298 948 58.3498 929.03 63.9398C924.29 65.3298 919.58 66.8298 914.91 68.4098C910.26 69.9998 905.57 71.5998 900.95 73.6998C896.34 75.7798 891.81 78.4098 887.9 81.9698C883.95 85.5698 880.91 90.1298 879.26 95.2898C878.7 97.1198 878.33 99.0198 878.19 100.94C878.06 102.87 878.2 104.83 878.59 106.73C879.43 110.5 881.23 114 883.72 116.76C886.19 119.53 889.16 121.58 892.18 123.15C895.21 124.73 898.32 125.86 901.41 126.76C907.58 128.57 913.76 129.3 919.5 130.03C925.3 130.76 930.96 131.38 936.47 131.92C958.52 134.07 978.23 134.85 995.64 134.91C1030.47 135.01 1056.02 132.5 1073.46 130.51C1083.72 129.23 1093.66 127.99 1103.31 126.78C1112.96 125.51 1122.36 124.18 1131.49 122.3C1136.05 121.35 1140.53 120.26 1144.9 119C1149.27 117.73 1153.53 116.25 1157.67 114.66C1165.91 111.46 1173.75 107.85 1181.2 103.87C1188.64 99.8798 1195.69 95.5498 1202.39 90.9498C1209.08 86.3298 1215.4 81.5598 1221.54 76.6198C1233.77 66.6898 1244.81 55.9298 1254.78 44.3698C1260.25 38.0098 1263.94 32.8998 1266.22 29.3798C1268.5 25.8598 1269.37 23.9098 1269.05 23.6798C1268.71 23.4298 1267.18 24.8898 1264.4 27.9898C1261.62 31.0898 1257.59 35.8198 1252.06 41.9798C1241.99 53.1798 1230.92 63.5598 1218.75 73.1398C1212.66 77.8898 1206.29 82.5598 1199.69 86.9898C1193.07 91.4098 1186.13 95.5698 1178.82 99.3898C1171.51 103.2 1163.82 106.66 1155.77 109.72C1151.75 111.23 1147.64 112.62 1143.41 113.83C1139.18 115.02 1134.84 116.05 1130.39 116.95C1121.5 118.74 1112.2 120.01 1102.59 121.26C1092.96 122.45 1083.04 123.67 1072.8 124.93C1056.93 126.75 1032.32 128.97 999.92 128.86C983.73 128.8 965.6 128.11 945.73 126.36C935.8 125.49 925.42 124.33 914.67 122.85C909.43 122.09 904.13 121.04 899.21 119.13C896.75 118.18 894.39 117.04 892.29 115.6C890.21 114.15 888.41 112.42 887.12 110.39L886.79 109.91L886.53 109.39L886 108.35C885.71 107.63 885.46 106.88 885.22 106.15C884.81 104.67 884.68 103.11 884.77 101.53C884.95 98.3698 886.07 95.1698 887.8 92.2898C891.25 86.4898 897.25 82.4198 903.86 79.4098C907.43 77.7598 911.25 76.3598 915.17 74.9698C919.08 73.5898 923.04 72.2598 927.05 70.9998C935.07 68.4698 943.29 66.2198 951.63 64.2498C968.3 60.3098 985.47 57.5698 1002.55 56.1098C1011.09 55.3698 1019.6 54.9598 1028.02 54.8498C1036.44 54.7198 1044.74 54.9298 1052.84 55.5798C1069.01 56.8698 1084.45 60.0498 1097.63 65.9798C1104.22 68.9098 1110.22 72.4898 1115.48 76.5198C1118.12 78.5198 1120.52 80.6998 1122.79 82.8898C1125.01 85.1398 1127.11 87.3898 1128.97 89.7398C1132.75 94.3898 1135.8 99.1698 1138.26 103.82C1140.73 108.46 1142.63 112.95 1144.12 117.1C1147.11 125.42 1148.42 132.37 1149.17 137.13C1149.37 138.32 1149.5 139.38 1149.61 140.3C1149.73 141.22 1149.83 141.99 1149.88 142.61C1150 143.86 1150.07 144.51 1150.07 144.51C1150.07 144.51 1150.09 144.75 1150.14 145.23C1150.17 145.7 1150.22 146.41 1150.29 147.33C1150.42 149.18 1150.55 151.91 1150.54 155.43C1150.55 162.46 1149.81 172.65 1146.71 184.85C1143.67 197.04 1138.2 211.11 1129.9 225.52C1121.64 239.95 1110.62 254.66 1097.65 268.75C1084.67 282.85 1069.91 296.44 1054.02 308.7C1038.16 321 1021.26 332.03 1004.33 341.53C970.46 360.59 936.66 373.44 911.15 381.54C891.92 387.66 874.88 392.01 859.89 395.37C844.89 398.73 831.92 401.13 820.67 403.02C809.42 404.92 799.9 406.24 791.67 407.4C783.46 408.56 776.6 409.52 770.68 410.27C761.71 411.42 753.02 412.31 744.52 412.63C735.98 412.95 727.67 413.04 719.58 412.75C703.4 412.18 688.06 410.21 673.61 406.98C659.14 403.79 645.55 399.39 632.75 394.06C626.36 391.37 620.16 388.47 614.13 385.36C608.13 382.22 602.3 378.87 596.65 375.33L596.61 375.37Z" fill="#EED7FC"/>
<path d="M566.78 165.709C565.73 166.059 565.73 169.409 566.78 169.759C568.26 170.259 569.82 170.519 571.82 170.539C574.09 170.379 574.65 169.689 576.19 169.769C578.79 169.769 583.17 170.699 584.22 170.929C584.38 170.959 584.53 170.969 584.69 170.959C585.81 170.829 590.71 170.329 594.94 170.569C597.92 170.569 599.77 170.549 600.73 170.549C603.01 170.519 604.71 170.179 606.38 169.549C607.3 169.199 607.3 166.289 606.38 165.939C604.71 165.299 603.01 164.959 600.73 164.939C599.85 164.939 598 164.139 595.4 163.999C594.98 163.979 594.55 164.029 594.13 164.159C590.5 165.249 585.79 164.939 585.79 164.939C585.79 164.939 578.76 164.929 575.79 164.919C573.56 164.919 572.48 164.929 571.82 164.939C569.82 164.959 568.26 165.229 566.78 165.729V165.709Z" fill="#EED7FC"/>
<path d="M634.631 212.499C633.581 212.849 633.581 216.199 634.631 216.549C636.111 217.049 637.671 217.309 639.671 217.329C641.941 217.169 642.501 216.479 644.041 216.559C646.641 216.559 651.021 217.489 652.071 217.719C652.231 217.749 652.381 217.759 652.541 217.749C653.661 217.619 658.561 217.119 662.791 217.359C665.771 217.359 667.621 217.339 668.581 217.339C670.861 217.309 672.561 216.969 674.231 216.339C675.151 215.989 675.151 213.079 674.231 212.729C672.561 212.089 670.861 211.749 668.581 211.729C667.701 211.729 665.851 210.929 663.251 210.789C662.831 210.769 662.401 210.819 661.981 210.949C658.351 212.039 653.641 211.729 653.641 211.729C653.641 211.729 646.611 211.719 643.641 211.709C641.411 211.709 640.331 211.719 639.671 211.729C637.671 211.749 636.111 212.019 634.631 212.519V212.499Z" fill="#EED7FC"/>
<path d="M588.879 176.44C585.749 176.79 585.749 180.14 588.879 180.49C593.319 180.99 597.989 181.25 603.989 181.27C610.789 181.11 612.479 180.42 617.089 180.5C624.869 180.5 638.009 181.43 641.169 181.66C641.639 181.69 642.109 181.7 642.579 181.69C645.929 181.56 660.639 181.06 673.299 181.3C682.239 181.29 687.779 181.28 690.669 181.28C697.499 181.25 702.599 180.91 707.609 180.28C710.359 179.93 710.359 177.02 707.609 176.67C702.599 176.03 697.499 175.69 690.669 175.67C688.019 175.67 682.489 174.87 674.689 174.73C673.419 174.71 672.149 174.76 670.889 174.89C660.009 175.98 645.879 175.67 645.879 175.67C645.879 175.67 624.799 175.66 615.899 175.65C609.199 175.65 605.979 175.66 603.999 175.67C597.999 175.69 593.329 175.96 588.889 176.46L588.879 176.44Z" fill="#EED7FC"/>
<path d="M609.418 222.82C606.288 223.17 606.288 226.52 609.418 226.87C613.858 227.37 618.528 227.63 624.528 227.65C631.328 227.49 633.018 226.8 637.628 226.88C645.408 226.88 658.548 227.81 661.708 228.04C662.178 228.07 662.648 228.08 663.118 228.07C666.468 227.94 681.178 227.44 693.838 227.68C702.778 227.68 708.318 227.66 711.208 227.66C718.038 227.63 723.138 227.29 728.148 226.66C730.898 226.31 730.898 223.4 728.148 223.05C723.138 222.41 718.038 222.07 711.208 222.05C708.558 222.05 703.028 221.25 695.228 221.11C693.958 221.09 692.688 221.14 691.428 221.27C680.548 222.36 666.418 222.05 666.418 222.05C666.418 222.05 645.338 222.04 636.438 222.03C629.738 222.03 626.518 222.04 624.538 222.05C618.538 222.07 613.868 222.34 609.428 222.84L609.418 222.82Z" fill="#EED7FC"/>
<path d="M346.499 415.42L245.559 91.6396H383.439L484.379 415.41H346.499V415.42Z" fill="#EED7FC"/>
<path d="M347.578 270.74H439.288L400.878 147.59L347.578 270.74Z" fill="#F8EEFE"/>
<mask id="mask1_287_61796" style="mask-type:luminance" maskUnits="userSpaceOnUse" x="245" y="91" width="240" height="325">
<path d="M346.499 415.42L245.559 91.6396H383.439L484.379 415.41H346.499V415.42Z" fill="white"/>
</mask>
<g mask="url(#mask1_287_61796)">
<path d="M-39.5183 343.262L-40.2969 345.104L438.242 547.346L439.021 545.503L-39.5183 343.262Z" fill="#F8EEFE"/>
<path d="M-52.6941 374.419L-53.4727 376.262L425.066 578.503L425.845 576.661L-52.6941 374.419Z" fill="#F8EEFE"/>
</g>
<path d="M-375.011 374.81C-382.981 369.8 -388.811 365.81 -392.791 363.23C-396.761 360.65 -398.871 359.48 -399.171 359.86C-399.451 360.2 -397.921 362.09 -394.361 365.28C-390.801 368.47 -385.201 372.97 -377.191 378.21C-371.511 381.92 -365.651 385.42 -359.591 388.72C-353.511 391.99 -347.241 395.03 -340.761 397.86C-327.781 403.48 -313.951 408.12 -299.201 411.51C-284.461 414.94 -268.801 417.06 -252.291 417.71C-244.031 418.04 -235.581 417.98 -226.931 417.67C-218.221 417.36 -209.321 416.46 -200.281 415.31C-190.031 413.98 -180.821 412.6 -172.361 411.38C-163.881 410.15 -156.181 408.91 -149.081 407.66C-134.881 405.17 -123.071 402.7 -112.131 400.19C-101.191 397.67 -91.1107 395.07 -80.4407 392.06C-69.7707 389.03 -58.5007 385.6 -45.2707 381.04C-22.9307 373.3 2.78927 362.76 28.2793 349.1C41.0193 342.29 53.6893 334.71 65.8693 326.5C78.0393 318.3 89.6993 309.45 100.489 300.25C122.059 281.84 140.189 262.08 152.889 244.03C159.259 235.03 164.309 226.51 168.109 219.08C171.919 211.65 174.529 205.34 176.229 200.76C178.239 195.33 179.979 189.79 181.299 184.11C182.469 179.06 183.999 171.77 184.579 162.46C185.159 153.18 184.819 141.9 182.149 129.41C179.489 116.98 174.479 103.23 165.439 90.4097C163.169 87.2297 160.669 84.1097 157.919 81.1097C155.139 78.1397 152.109 75.2997 148.829 72.6397C142.229 67.4097 134.749 62.8697 126.569 59.4797C118.409 56.0597 109.679 53.5397 100.669 51.8297C91.6493 50.1597 82.3593 49.1897 72.9493 48.7897C54.1293 48.0397 34.7793 48.9297 15.3193 51.3197C-4.12073 53.7497 -23.6207 57.7697 -42.5907 63.3597C-47.3307 64.7497 -52.0407 66.2397 -56.7107 67.8297C-61.3607 69.4197 -66.0507 71.0197 -70.6707 73.1197C-75.2807 75.1997 -79.8107 77.8297 -83.7207 81.3897C-87.6707 84.9897 -90.7107 89.5497 -92.3607 94.7097C-92.9207 96.5397 -93.2907 98.4397 -93.4307 100.36C-93.5607 102.29 -93.4207 104.25 -93.0307 106.15C-92.1907 109.92 -90.3907 113.42 -87.9007 116.18C-85.4307 118.95 -82.4607 121 -79.4407 122.57C-76.4107 124.15 -73.3007 125.28 -70.2107 126.18C-64.0407 127.99 -57.8607 128.72 -52.1207 129.45C-46.3207 130.18 -40.6607 130.8 -35.1507 131.34C-13.1007 133.49 6.60929 134.27 24.0193 134.33C58.8393 134.43 84.3993 131.92 101.839 129.93C112.099 128.65 122.039 127.41 131.689 126.2C141.339 124.93 150.739 123.6 159.869 121.72C164.429 120.77 168.909 119.68 173.279 118.42C177.649 117.15 181.909 115.67 186.049 114.08C194.289 110.88 202.129 107.27 209.579 103.29C217.019 99.2997 224.069 94.9697 230.769 90.3697C237.459 85.7497 243.779 80.9797 249.919 76.0397C262.149 66.1097 273.189 55.3497 283.159 43.7897C288.629 37.4297 292.319 32.3197 294.599 28.7997C296.879 25.2797 297.749 23.3297 297.429 23.0997C297.089 22.8497 295.559 24.3097 292.779 27.4097C289.999 30.5097 285.969 35.2397 280.439 41.3997C270.369 52.5997 259.299 62.9797 247.129 72.5597C241.039 77.3097 234.669 81.9797 228.069 86.4097C221.449 90.8297 214.509 94.9897 207.199 98.8097C199.889 102.62 192.199 106.08 184.149 109.14C180.129 110.65 176.019 112.04 171.789 113.25C167.559 114.44 163.219 115.47 158.769 116.37C149.879 118.16 140.579 119.43 130.969 120.68C121.339 121.87 111.419 123.09 101.179 124.35C85.3093 126.17 60.6993 128.39 28.2993 128.28C12.1093 128.22 -6.02072 127.53 -25.8907 125.78C-35.8207 124.91 -46.2007 123.75 -56.9507 122.27C-62.1907 121.51 -67.4907 120.46 -72.4107 118.55C-74.8707 117.6 -77.2307 116.46 -79.3307 115.02C-81.4107 113.57 -83.2107 111.84 -84.5007 109.81L-84.8307 109.33L-85.0907 108.81L-85.6207 107.77C-85.9107 107.05 -86.1607 106.3 -86.4007 105.57C-86.8107 104.09 -86.9407 102.53 -86.8507 100.95C-86.6707 97.7897 -85.5507 94.5897 -83.8207 91.7097C-80.3707 85.9097 -74.3707 81.8397 -67.7607 78.8297C-64.1907 77.1797 -60.3707 75.7797 -56.4507 74.3897C-52.5407 73.0097 -48.5807 71.6797 -44.5707 70.4197C-36.5507 67.8897 -28.3307 65.6397 -19.9907 63.6697C-3.32072 59.7297 13.8493 56.9997 30.9293 55.5297C39.4693 54.7897 47.9793 54.3797 56.3993 54.2697C64.8193 54.1397 73.1193 54.3497 81.2193 54.9997C97.3893 56.2897 112.829 59.4697 126.009 65.3997C132.599 68.3297 138.599 71.9097 143.859 75.9397C146.499 77.9397 148.899 80.1197 151.169 82.3097C153.389 84.5597 155.489 86.8097 157.349 89.1597C161.129 93.8097 164.179 98.5897 166.639 103.24C169.109 107.88 171.009 112.37 172.499 116.52C175.489 124.84 176.799 131.79 177.549 136.55C177.749 137.74 177.879 138.8 177.989 139.72C178.109 140.64 178.209 141.41 178.259 142.03C178.379 143.28 178.449 143.93 178.449 143.93C178.449 143.93 178.469 144.17 178.519 144.65C178.549 145.12 178.599 145.83 178.669 146.75C178.799 148.6 178.929 151.33 178.919 154.85C178.929 161.88 178.189 172.07 175.089 184.27C172.049 196.46 166.579 210.53 158.279 224.94C150.019 239.37 138.999 254.08 126.029 268.17C113.049 282.27 98.2893 295.86 82.3993 308.12C66.5393 320.42 49.6393 331.45 32.7093 340.95C-1.16074 360.01 -34.9607 372.86 -60.4707 380.96C-79.7007 387.08 -96.7407 391.43 -111.731 394.79C-126.731 398.15 -139.701 400.55 -150.951 402.44C-162.201 404.34 -171.721 405.66 -179.951 406.82C-188.161 407.98 -195.021 408.94 -200.941 409.69C-209.911 410.84 -218.601 411.73 -227.101 412.05C-235.641 412.37 -243.951 412.46 -252.041 412.17C-268.221 411.6 -283.561 409.63 -298.011 406.4C-312.481 403.21 -326.071 398.81 -338.871 393.48C-345.261 390.79 -351.461 387.89 -357.491 384.78C-363.491 381.64 -369.321 378.29 -374.971 374.75L-375.011 374.81Z" fill="#EED7FC"/>
<path d="M-48.5625 195.62L119.557 280.43L87.0675 -73.2402L-48.5625 195.62Z" fill="#EED7FC"/>
<path d="M203.62 253.049L35.5 168.239L67.98 521.909L203.62 253.049Z" fill="#EED7FC"/>
<path d="M122.458 284.699L-51.9219 196.729L88.7581 -82.1406L122.458 284.699ZM-45.2119 194.509L116.648 276.169L85.3681 -64.3306L-45.2119 194.509Z" fill="#EED7FC"/>
<path d="M185.899 108.509C182.669 110.279 184.189 114.479 187.869 113.529C193.069 112.199 198.409 110.319 204.909 107.149C206.719 106.189 208.149 105.329 209.369 104.589C210.579 103.819 211.559 103.129 212.479 102.499C214.309 101.219 215.849 100.109 218.259 98.7595C222.289 96.4095 227.759 93.3195 232.549 90.4395C237.349 87.5695 241.499 84.9595 243.099 83.9695C243.569 83.6695 244.029 83.3495 244.459 82.9995C245.239 82.3595 246.679 81.1695 248.579 79.5995C250.449 77.9995 252.829 76.0595 255.379 73.7895C260.529 69.3095 266.569 63.7495 272.079 58.4995C274.009 56.6295 275.669 54.8495 277.199 53.2895C278.689 51.6895 280.039 50.2795 281.189 49.0095C283.509 46.4695 285.169 44.5595 286.299 43.2495C291.639 37.0295 295.039 31.8895 297.939 26.5895C299.519 23.6595 296.359 21.4095 294.069 23.7195C289.869 27.9195 285.869 32.3495 280.629 38.3495C278.589 40.6895 273.559 44.8395 267.039 51.1295C265.969 52.1495 264.969 53.2295 264.039 54.3795C260.009 59.3095 254.719 64.3695 250.379 68.0695C246.039 71.7895 242.689 74.1995 242.689 74.1995C242.689 74.1995 241.469 75.1295 239.499 76.6295C237.499 78.1195 234.759 80.1495 231.709 82.3095C225.639 86.6495 218.259 91.2995 213.749 93.8595C206.989 97.7495 203.599 99.3695 201.549 100.419C195.299 103.539 190.449 105.979 185.859 108.499L185.899 108.509Z" fill="#EED7FC"/>
<path d="M347.578 270.179H439.288L400.878 147.029L347.578 270.179Z" fill="#F8EEFE"/>
<path d="M-52.2811 124.569C-58.4411 124.119 -58.9111 127.439 -52.7911 128.589C-44.1111 130.179 -34.9211 131.459 -23.0511 132.419C-9.57111 133.259 -6.18111 132.689 2.93889 133.139C10.6489 133.439 21.0189 133.859 30.2489 134.059C39.4789 134.279 47.5789 134.299 50.7289 134.289C51.6589 134.289 52.5889 134.269 53.5189 134.209C56.8389 133.999 65.7989 133.469 77.0289 132.459C82.6489 131.959 88.8289 131.369 95.1689 130.669C101.489 129.939 107.969 129.189 114.199 128.459C131.729 126.319 142.629 124.839 148.319 123.899C161.749 121.749 171.759 118.949 181.019 115.059C186.099 112.849 184.989 110.149 179.829 111.649C170.359 114.259 160.659 116.289 147.429 118.349C142.289 119.199 131.419 119.869 116.099 121.589C113.609 121.879 111.119 122.239 108.659 122.669C98.0889 124.579 85.8889 126.029 76.2789 126.809C66.6889 127.619 59.7389 127.869 59.7389 127.869C59.7389 127.869 49.3789 128.449 36.8189 128.649C24.2589 128.879 9.50889 128.579 0.768887 128.189C-12.4011 127.639 -18.7311 127.089 -22.6211 126.809C-34.3911 125.899 -43.5511 125.159 -52.2911 124.559L-52.2811 124.569Z" fill="#EED7FC"/>
<mask id="mask2_287_61796" style="mask-type:luminance" maskUnits="userSpaceOnUse" x="236" y="-87" width="678" height="158">
<path d="M260.288 -86.1602L236.598 -45.9402L433.648 70.0998L903.488 54.9498L913.158 38.5398L701.348 -86.2002L260.288 -86.1602Z" fill="white"/>
</mask>
<g mask="url(#mask2_287_61796)">
<path d="M485.484 -187.268L484.316 -184.505L962.855 17.7363L964.023 14.973L485.484 -187.268Z" fill="#EED7FC"/>
<path d="M471.651 -161.857L470.457 -159.105L949.638 48.8506L950.832 46.0986L471.651 -161.857Z" fill="#EED7FC"/>
<path d="M250.736 -222.865L249.535 -220.116L936.459 79.9934L937.66 77.2443L250.736 -222.865Z" fill="#EED7FC"/>
<path d="M237.584 -191.721L236.383 -188.972L923.307 111.138L924.508 108.389L237.584 -191.721Z" fill="#EED7FC"/>
<path d="M224.416 -160.571L223.215 -157.822L910.139 142.287L911.34 139.538L224.416 -160.571Z" fill="#EED7FC"/>
<path d="M211.252 -129.421L210.051 -126.672L896.975 173.438L898.176 170.689L211.252 -129.421Z" fill="#EED7FC"/>
<path d="M198.084 -98.2725L196.883 -95.5234L883.807 204.586L885.008 201.837L198.084 -98.2725Z" fill="#EED7FC"/>
<path d="M196.753 -61.2218L195.555 -58.4717L870.676 235.78L871.875 233.03L196.753 -61.2218Z" fill="#EED7FC"/>
<path d="M968.51 -91.7611L817.57 255.046L820.321 256.243L971.261 -90.5639L968.51 -91.7611Z" fill="#EED7FC"/>
<path d="M937.35 -104.926L786.41 241.881L789.161 243.078L940.101 -103.729L937.35 -104.926Z" fill="#EED7FC"/>
<path d="M906.202 -118.085L755.262 228.722L758.012 229.919L908.952 -116.888L906.202 -118.085Z" fill="#EED7FC"/>
<path d="M875.045 -131.259L724.105 215.548L726.856 216.745L877.796 -130.062L875.045 -131.259Z" fill="#EED7FC"/>
<path d="M843.897 -144.429L692.957 202.378L695.708 203.575L846.648 -143.232L843.897 -144.429Z" fill="#EED7FC"/>
<path d="M812.737 -157.583L661.797 189.224L664.548 190.421L815.488 -156.386L812.737 -157.583Z" fill="#EED7FC"/>
<path d="M781.588 -170.753L630.648 176.054L633.399 177.251L784.339 -169.556L781.588 -170.753Z" fill="#EED7FC"/>
<path d="M750.432 -183.927L599.492 162.88L602.243 164.077L753.183 -182.73L750.432 -183.927Z" fill="#EED7FC"/>
<path d="M719.28 -197.077L568.34 149.729L571.091 150.927L722.031 -195.88L719.28 -197.077Z" fill="#EED7FC"/>
<path d="M688.124 -210.25L537.184 136.557L539.934 137.754L690.874 -209.053L688.124 -210.25Z" fill="#EED7FC"/>
<path d="M656.967 -223.424L506.027 123.383L508.778 124.58L659.718 -222.227L656.967 -223.424Z" fill="#EED7FC"/>
<path d="M625.815 -236.575L474.875 110.232L477.626 111.43L628.566 -235.377L625.815 -236.575Z" fill="#EED7FC"/>
<path d="M594.659 -249.748L443.719 97.0586L446.47 98.2558L597.409 -248.551L594.659 -249.748Z" fill="#EED7FC"/>
<path d="M563.51 -262.918L412.57 83.8887L415.321 85.0859L566.261 -261.721L563.51 -262.918Z" fill="#EED7FC"/>
<path d="M516.487 -251.159L383.965 67.9902L386.735 69.1407L519.258 -250.009L516.487 -251.159Z" fill="#EED7FC"/>
<path d="M433.236 -139.609L351.961 50.3867L354.719 51.5666L435.995 -138.429L433.236 -139.609Z" fill="#EED7FC"/>
<path d="M402.084 -152.776L320.809 37.2197L323.567 38.3996L404.842 -151.596L402.084 -152.776Z" fill="#EED7FC"/>
<path d="M370.92 -165.937L289.645 24.0596L292.403 25.2395L373.678 -164.757L370.92 -165.937Z" fill="#EED7FC"/>
<path d="M339.779 -179.104L258.504 10.8926L261.262 12.0725L342.538 -177.924L339.779 -179.104Z" fill="#EED7FC"/>
</g>
<mask id="mask3_287_61796" style="mask-type:luminance" maskUnits="userSpaceOnUse" x="245" y="91" width="240" height="325">
<path d="M346.499 415.42L245.559 91.6396H383.439L484.379 415.41H346.499V415.42Z" fill="white"/>
</mask>
<g mask="url(#mask3_287_61796)">
<path d="M118.656 -31.0466L117.488 -28.2832L596.027 173.958L597.195 171.195L118.656 -31.0466Z" fill="#F8EEFE"/>
<path d="M105.5 0.114577L104.332 2.87793L582.871 205.119L584.039 202.356L105.5 0.114577Z" fill="#F8EEFE"/>
<path d="M92.328 31.2728L91.1602 34.0361L569.699 236.277L570.867 233.514L92.328 31.2728Z" fill="#F8EEFE"/>
<path d="M79.1679 62.4202L78 65.1836L556.539 267.425L557.707 264.661L79.1679 62.4202Z" fill="#F8EEFE"/>
<path d="M65.9921 93.5775L64.8242 96.3408L543.363 298.582L544.531 295.819L65.9921 93.5775Z" fill="#F8EEFE"/>
<path d="M52.8319 124.73L51.6641 127.493L530.203 329.734L531.371 326.971L52.8319 124.73Z" fill="#F8EEFE"/>
<path d="M39.6679 155.887L38.5 158.65L517.039 360.892L518.207 358.128L39.6679 155.887Z" fill="#F8EEFE"/>
<path d="M26.496 187.035L25.3281 189.799L503.867 392.04L505.035 389.277L26.496 187.035Z" fill="#F8EEFE"/>
<path d="M13.3319 218.197L12.1641 220.96L490.703 423.201L491.871 420.438L13.3319 218.197Z" fill="#F8EEFE"/>
<path d="M0.17176 249.334L-0.996094 252.098L477.543 454.339L478.711 451.575L0.17176 249.334Z" fill="#F8EEFE"/>
<path d="M-13.0001 280.493L-14.168 283.256L464.371 485.497L465.539 482.734L-13.0001 280.493Z" fill="#F8EEFE"/>
<path d="M-26.1525 311.644L-27.3203 314.407L451.219 516.648L452.386 513.885L-26.1525 311.644Z" fill="#F8EEFE"/>
<path d="M573.999 119.687L371.758 598.226L374.521 599.393L576.762 120.854L573.999 119.687Z" fill="#F8EEFE"/>
<path d="M542.851 106.516L340.609 585.055L343.373 586.223L545.614 107.684L542.851 106.516Z" fill="#F8EEFE"/>
<path d="M511.694 93.3517L309.453 571.891L312.216 573.058L514.458 94.5196L511.694 93.3517Z" fill="#F8EEFE"/>
<path d="M480.546 80.1817L278.305 558.721L281.068 559.889L483.309 81.3496L480.546 80.1817Z" fill="#F8EEFE"/>
<path d="M449.382 67.0167L247.141 545.556L249.904 546.724L452.145 68.1846L449.382 67.0167Z" fill="#F8EEFE"/>
<path d="M418.245 53.8565L216.004 532.396L218.767 533.563L421.008 55.0244L418.245 53.8565Z" fill="#F8EEFE"/>
<path d="M387.089 40.6828L184.848 519.222L187.611 520.39L389.852 41.8506L387.089 40.6828Z" fill="#F8EEFE"/>
<path d="M355.925 27.5274L153.684 506.066L156.447 507.234L358.688 28.6953L355.925 27.5274Z" fill="#F8EEFE"/>
<path d="M324.78 14.3575L122.539 492.896L125.302 494.064L327.544 15.5254L324.78 14.3575Z" fill="#F8EEFE"/>
<path d="M293.62 1.18368L91.3789 479.723L94.1423 480.891L296.383 2.35154L293.62 1.18368Z" fill="#F8EEFE"/>
<path d="M262.468 -11.9677L60.2266 466.571L62.9899 467.739L265.231 -10.7998L262.468 -11.9677Z" fill="#F8EEFE"/>
</g>
<mask id="mask4_287_61796" style="mask-type:luminance" maskUnits="userSpaceOnUse" x="236" y="471" width="678" height="157">
<path d="M260.288 471.469L236.598 511.699L433.648 627.739L903.488 612.589L913.158 596.179L701.348 471.439L260.288 471.469Z" fill="white"/>
</mask>
<g mask="url(#mask4_287_61796)">
<path d="M534.687 308.068L533.52 310.831L1012.06 513.072L1013.23 510.309L534.687 308.068Z" fill="#EED7FC"/>
<path d="M521.535 339.22L520.367 341.983L998.906 544.225L1000.07 541.461L521.535 339.22Z" fill="#EED7FC"/>
<path d="M508.363 370.377L507.195 373.141L985.734 575.382L986.902 572.618L508.363 370.377Z" fill="#EED7FC"/>
<path d="M494.546 395.756L493.352 398.508L972.532 606.464L973.727 603.712L494.546 395.756Z" fill="#EED7FC"/>
<path d="M273.639 334.729L272.438 337.479L959.361 637.588L960.562 634.839L273.639 334.729Z" fill="#EED7FC"/>
<path d="M260.474 365.869L259.273 368.618L946.197 668.728L947.398 665.979L260.474 365.869Z" fill="#EED7FC"/>
<path d="M247.314 397.033L246.113 399.782L933.037 699.892L934.238 697.143L247.314 397.033Z" fill="#EED7FC"/>
<path d="M234.15 428.173L232.949 430.922L919.873 731.032L921.074 728.282L234.15 428.173Z" fill="#EED7FC"/>
<path d="M220.982 459.322L219.781 462.071L906.705 762.181L907.906 759.432L220.982 459.322Z" fill="#EED7FC"/>
<path d="M219.628 496.408L218.43 499.158L893.551 793.41L894.75 790.66L219.628 496.408Z" fill="#EED7FC"/>
<path d="M991.381 465.886L840.441 812.693L843.192 813.891L994.132 467.084L991.381 465.886Z" fill="#EED7FC"/>
<path d="M960.221 452.722L809.281 799.529L812.032 800.727L962.972 453.92L960.221 452.722Z" fill="#EED7FC"/>
<path d="M929.073 439.552L778.133 786.359L780.884 787.557L931.823 440.75L929.073 439.552Z" fill="#EED7FC"/>
<path d="M897.916 426.388L746.977 773.195L749.727 774.393L900.667 427.586L897.916 426.388Z" fill="#EED7FC"/>
<path d="M866.764 413.228L715.824 760.035L718.575 761.232L869.515 414.425L866.764 413.228Z" fill="#EED7FC"/>
<path d="M835.608 400.054L684.668 746.861L687.419 748.059L838.359 401.252L835.608 400.054Z" fill="#EED7FC"/>
<path d="M804.471 386.895L653.531 733.702L656.282 734.899L807.222 388.092L804.471 386.895Z" fill="#EED7FC"/>
<path d="M773.311 373.721L622.371 720.528L625.122 721.726L776.062 374.919L773.311 373.721Z" fill="#EED7FC"/>
<path d="M742.151 360.556L591.211 707.363L593.962 708.56L744.902 361.754L742.151 360.556Z" fill="#EED7FC"/>
<path d="M711.002 347.397L560.062 694.204L562.813 695.401L713.753 348.594L711.002 347.397Z" fill="#EED7FC"/>
<path d="M679.846 334.223L528.906 681.03L531.657 682.227L682.597 335.421L679.846 334.223Z" fill="#EED7FC"/>
<path d="M648.698 321.063L497.758 667.87L500.509 669.067L651.449 322.26L648.698 321.063Z" fill="#EED7FC"/>
<path d="M617.538 307.899L466.598 654.706L469.348 655.903L620.288 309.096L617.538 307.899Z" fill="#EED7FC"/>
<path d="M586.393 294.73L435.453 641.537L438.204 642.734L589.144 295.927L586.393 294.73Z" fill="#EED7FC"/>
<path d="M539.358 306.479L406.836 625.629L409.607 626.779L542.129 307.63L539.358 306.479Z" fill="#EED7FC"/>
<path d="M456.111 418.034L374.836 608.03L377.594 609.21L458.87 419.214L456.111 418.034Z" fill="#EED7FC"/>
<path d="M424.959 404.877L343.684 594.873L346.442 596.053L427.717 406.057L424.959 404.877Z" fill="#EED7FC"/>
<path d="M393.799 391.707L312.523 581.703L315.282 582.883L396.557 392.887L393.799 391.707Z" fill="#EED7FC"/>
<path d="M362.658 378.541L281.383 568.537L284.141 569.717L365.417 379.721L362.658 378.541Z" fill="#EED7FC"/>
<path d="M331.498 365.371L250.223 555.367L252.981 556.547L334.256 366.551L331.498 365.371Z" fill="#EED7FC"/>
<path d="M300.354 352.214L219.078 542.21L221.836 543.39L303.112 353.394L300.354 352.214Z" fill="#EED7FC"/>
<path d="M269.193 339.033L187.918 529.029L190.676 530.209L271.952 340.213L269.193 339.033Z" fill="#EED7FC"/>
</g>
<path d="M368.871 829.419H496.681L654.441 430.029H541.741L368.871 829.419Z" fill="#EED7FC"/>
<path d="M432.75 630.199L432.13 629.829L232.93 512.519L258.61 468.909L701.78 468.869L702.37 469.219L916.34 595.229L904.71 614.979L903.33 615.019L432.76 630.189L432.75 630.199ZM239.77 510.739L434.04 625.149L901.78 610.069L909.48 596.989L700.41 473.859L261.46 473.899L239.77 510.729V510.739Z" fill="#EED7FC"/>
<path d="M432.748 71.5097L432.128 71.1397L232.918 -46.1703L258.598 -89.7803L701.768 -89.8203L702.358 -89.4703L916.328 36.5397L904.698 56.2997L903.318 56.3397L432.748 71.5097ZM239.768 -47.9403L434.038 66.4697L901.778 51.3897L909.478 38.3097L700.408 -84.8203L261.458 -84.7803L239.768 -47.9503V-47.9403Z" fill="#EED7FC"/>
<path d="M923.051 196.179L1091.17 280.989L1058.69 -72.6807L923.051 196.179Z" fill="#EED7FC"/>
<path d="M643.221 468.88H516.711V473.88H643.221V468.88Z" fill="#EED7FC"/>
<path d="M617.91 -89.8809L503.64 -89.8709L436.02 66.3691L557.74 62.4491L617.91 -89.8809Z" fill="#EED7FC"/>
<path d="M827.31 542.8L729.41 485.09L726.84 489.38L824.95 547.22L827.31 542.8Z" fill="#F8EEFE"/>
<mask id="mask5_287_61796" style="mask-type:luminance" maskUnits="userSpaceOnUse" x="656" y="159" width="260" height="440">
<path d="M796.249 162.06L915.259 378.12L797.409 598.8H661.069L795.099 375.81L656.449 159.75C656.449 159.75 794.519 163.79 796.249 162.06Z" fill="white"/>
</mask>
<g mask="url(#mask5_287_61796)">
<path d="M596.61 375.37C588.64 370.36 582.81 366.37 578.83 363.79C574.86 361.21 572.75 360.04 572.45 360.42C572.17 360.76 573.7 362.65 577.26 365.84C580.82 369.03 586.42 373.53 594.43 378.77C600.11 382.48 605.97 385.98 612.03 389.28C618.11 392.55 624.38 395.59 630.86 398.42C643.84 404.04 657.67 408.68 672.42 412.07C687.16 415.5 702.82 417.62 719.33 418.27C727.59 418.6 736.04 418.54 744.69 418.23C753.4 417.92 762.3 417.02 771.34 415.87C781.59 414.54 790.8 413.16 799.26 411.94C807.74 410.71 815.44 409.47 822.54 408.23C836.74 405.74 848.55 403.27 859.49 400.76C870.43 398.24 880.51 395.64 891.18 392.63C901.85 389.6 913.12 386.17 926.35 381.61C948.69 373.88 974.41 363.33 999.9 349.67C1012.64 342.86 1025.31 335.28 1037.49 327.07C1049.66 318.87 1061.32 310.02 1072.11 300.82C1093.68 282.41 1111.81 262.65 1124.51 244.6C1130.88 235.6 1135.93 227.08 1139.73 219.65C1143.54 212.22 1146.15 205.91 1147.85 201.33C1149.86 195.9 1151.6 190.36 1152.92 184.68C1154.09 179.63 1155.62 172.34 1156.2 163.03C1156.78 153.75 1156.44 142.47 1153.77 129.98C1151.11 117.55 1146.1 103.8 1137.06 90.9798C1134.79 87.7998 1132.29 84.6798 1129.54 81.6798C1126.76 78.7098 1123.73 75.8698 1120.45 73.2098C1113.85 67.9798 1106.37 63.4398 1098.19 60.0498C1090.03 56.6298 1081.3 54.1098 1072.29 52.3998C1063.27 50.7298 1053.98 49.7598 1044.57 49.3598C1025.75 48.6098 1006.4 49.4998 986.94 51.8998C967.5 54.3298 948 58.3498 929.03 63.9398C924.29 65.3298 919.58 66.8298 914.91 68.4098C910.26 69.9998 905.57 71.5998 900.95 73.6998C896.34 75.7798 891.81 78.4098 887.9 81.9698C883.95 85.5698 880.91 90.1298 879.26 95.2898C878.7 97.1198 878.33 99.0198 878.19 100.94C878.06 102.87 878.2 104.83 878.59 106.73C879.43 110.5 881.23 114 883.72 116.76C886.19 119.53 889.16 121.58 892.18 123.15C895.21 124.73 898.32 125.86 901.41 126.76C907.58 128.57 913.76 129.3 919.5 130.03C925.3 130.76 930.96 131.38 936.47 131.92C958.52 134.07 978.23 134.85 995.64 134.91C1030.47 135.01 1056.02 132.5 1073.46 130.51C1083.72 129.23 1093.66 127.99 1103.31 126.78C1112.96 125.51 1122.36 124.18 1131.49 122.3C1136.05 121.35 1140.53 120.26 1144.9 119C1149.27 117.73 1153.53 116.25 1157.67 114.66C1165.91 111.46 1173.75 107.85 1181.2 103.87C1188.64 99.8798 1195.69 95.5498 1202.39 90.9498C1209.08 86.3298 1215.4 81.5598 1221.54 76.6198C1233.77 66.6898 1244.81 55.9298 1254.78 44.3698C1260.25 38.0098 1263.94 32.8998 1266.22 29.3798C1268.5 25.8598 1269.37 23.9098 1269.05 23.6798C1268.71 23.4298 1267.18 24.8898 1264.4 27.9898C1261.62 31.0898 1257.59 35.8198 1252.06 41.9798C1241.99 53.1798 1230.92 63.5598 1218.75 73.1398C1212.66 77.8898 1206.29 82.5598 1199.69 86.9898C1193.07 91.4098 1186.13 95.5698 1178.82 99.3898C1171.51 103.2 1163.82 106.66 1155.77 109.72C1151.75 111.23 1147.64 112.62 1143.41 113.83C1139.18 115.02 1134.84 116.05 1130.39 116.95C1121.5 118.74 1112.2 120.01 1102.59 121.26C1092.96 122.45 1083.04 123.67 1072.8 124.93C1056.93 126.75 1032.32 128.97 999.92 128.86C983.73 128.8 965.6 128.11 945.73 126.36C935.8 125.49 925.42 124.33 914.67 122.85C909.43 122.09 904.13 121.04 899.21 119.13C896.75 118.18 894.39 117.04 892.29 115.6C890.21 114.15 888.41 112.42 887.12 110.39L886.79 109.91L886.53 109.39L886 108.35C885.71 107.63 885.46 106.88 885.22 106.15C884.81 104.67 884.68 103.11 884.77 101.53C884.95 98.3698 886.07 95.1698 887.8 92.2898C891.25 86.4898 897.25 82.4198 903.86 79.4098C907.43 77.7598 911.25 76.3598 915.17 74.9698C919.08 73.5898 923.04 72.2598 927.05 70.9998C935.07 68.4698 943.29 66.2198 951.63 64.2498C968.3 60.3098 985.47 57.5698 1002.55 56.1098C1011.09 55.3698 1019.6 54.9598 1028.02 54.8498C1036.44 54.7198 1044.74 54.9298 1052.84 55.5798C1069.01 56.8698 1084.45 60.0498 1097.63 65.9798C1104.22 68.9098 1110.22 72.4898 1115.48 76.5198C1118.12 78.5198 1120.52 80.6998 1122.79 82.8898C1125.01 85.1398 1127.11 87.3898 1128.97 89.7398C1132.75 94.3898 1135.8 99.1698 1138.26 103.82C1140.73 108.46 1142.63 112.95 1144.12 117.1C1147.11 125.42 1148.42 132.37 1149.17 137.13C1149.37 138.32 1149.5 139.38 1149.61 140.3C1149.73 141.22 1149.83 141.99 1149.88 142.61C1150 143.86 1150.07 144.51 1150.07 144.51C1150.07 144.51 1150.09 144.75 1150.14 145.23C1150.17 145.7 1150.22 146.41 1150.29 147.33C1150.42 149.18 1150.55 151.91 1150.54 155.43C1150.55 162.46 1149.81 172.65 1146.71 184.85C1143.67 197.04 1138.2 211.11 1129.9 225.52C1121.64 239.95 1110.62 254.66 1097.65 268.75C1084.67 282.85 1069.91 296.44 1054.02 308.7C1038.16 321 1021.26 332.03 1004.33 341.53C970.46 360.59 936.66 373.44 911.15 381.54C891.92 387.66 874.88 392.01 859.89 395.37C844.89 398.73 831.92 401.13 820.67 403.02C809.42 404.92 799.9 406.24 791.67 407.4C783.46 408.56 776.6 409.52 770.68 410.27C761.71 411.42 753.02 412.31 744.52 412.63C735.98 412.95 727.67 413.04 719.58 412.75C703.4 412.18 688.06 410.21 673.61 406.98C659.14 403.79 645.55 399.39 632.75 394.06C626.36 391.37 620.16 388.47 614.13 385.36C608.13 382.22 602.3 378.87 596.65 375.33L596.61 375.37Z" fill="#F8EEFE"/>
</g>
<mask id="mask6_287_61796" style="mask-type:luminance" maskUnits="userSpaceOnUse" x="656" y="159" width="260" height="440">
<path d="M796.249 162.06L915.259 378.12L797.409 598.8H661.069L795.099 375.81L656.449 159.75C656.449 159.75 794.519 163.79 796.249 162.06Z" fill="white"/>
</mask>
<g mask="url(#mask6_287_61796)">
<path d="M664.439 217.53L665.779 216.54C665.779 216.54 668.099 217.49 669.029 215.73L672.519 216.38C672.519 216.38 673.979 215.89 674.419 214.79C674.689 214.11 674.869 213.3 674.909 212.55C674.989 211.04 674.489 209.79 673.089 210.33C673.069 210.24 673.019 210.15 673.009 210.02C671.519 211.13 670.089 209.23 668.579 209.47C668.599 209.91 668.549 210.26 668.499 210.03L668.519 209.48C667.509 210.59 666.879 208.81 665.959 210.71C665.959 210.7 666.069 209.97 666.069 209.98C662.909 210.35 658.629 209.63 655.209 210.54L655.229 210.62V210.7C655.539 211.25 657.059 212.04 657.059 212.05C655.919 214.73 654.629 211.96 653.409 212.09V211.38C653.939 211.4 654.409 211.07 654.589 210.77C652.709 209.81 648.929 209.67 647.129 210.79C647.179 211.33 647.729 210.14 647.879 211.89C647.419 211.91 646.959 212.17 646.519 212.15C646.519 211 646.769 211.39 646.819 211.18C646.069 209.93 630.759 208.75 634.409 213.59L634.319 214.18C635.259 214.43 636.049 214.64 637.029 215.77C637.169 215.68 637.189 215.79 637.179 215.2C637.219 215.11 637.279 214.94 637.259 214.69C637.249 213.26 637.549 213.82 637.689 213.78C637.529 218.26 640.739 214.2 641.169 214.37C641.249 216.5 642.009 214.44 642.269 215.34C642.249 215.42 642.139 215.89 642.119 215.98C642.349 217.34 646.149 213.53 645.069 216.17C649.559 220.63 657.699 215.15 662.559 219.02L662.519 218.76C662.559 218.84 662.679 218.72 662.709 219.02C663.189 218.15 664.449 217.51 664.449 217.51L664.439 217.53ZM653.309 215.08C653.309 215.08 653.309 215.19 653.309 215.22C653.309 215 652.689 215.14 652.659 215.09V214.38C653.289 213.01 654.749 217.83 653.369 215.74C653.319 215.91 653.319 215.32 653.309 215.08ZM647.769 215.05C647.659 214.98 647.539 214.92 647.409 214.87C648.849 212.62 650.789 215.38 652.359 214.33C651.819 217.5 650.539 215.82 649.859 215.65C649.179 216.38 648.369 215.51 647.759 215.04L647.769 215.05ZM638.519 214.59V214.96H638.469C638.469 214.86 638.469 214.74 638.489 214.7C638.489 214.62 638.519 214.56 638.529 214.59H638.519ZM663.679 215.86C663.569 216.44 663.169 216.11 663.439 214.98C663.509 215.17 663.709 214.63 663.679 215.86ZM646.149 214.21C646.149 215.38 645.619 215.62 645.619 214C645.799 213.97 645.969 214.09 646.149 214.21ZM667.609 214.62C667.749 213.37 667.709 214.77 667.759 215.54C667.719 215.37 667.599 215.3 667.619 214.73V214.62H667.609ZM670.069 213.86C670.109 213.25 670.239 212.86 670.309 212.84C670.479 213.3 670.149 214.41 670.069 213.86ZM674.129 213.73C674.129 213.04 674.229 212.81 674.259 213.49C674.249 214 674.129 214.4 674.119 213.6C674.119 213.63 674.119 213.69 674.139 213.72L674.129 213.73ZM643.709 211.71C643.849 209.66 644.329 211.33 644.589 210.77C644.529 212.81 644.069 211.31 643.869 211.66C643.799 211.66 643.749 211.67 643.709 211.71ZM659.689 212.1C659.689 210.29 660.219 211.73 660.399 211.32V212.03C660.129 212.22 659.969 212.68 659.699 212.09H659.689V212.1ZM648.629 211.08C648.729 210.36 648.899 211.04 649.009 211.03C649.009 212.05 648.569 212.22 648.629 211.07V211.08ZM653.119 211.33C653.139 212.45 652.919 211.9 652.859 212.01C652.899 211.78 652.989 211.09 653.039 211.1C653.079 211.12 653.089 211.24 653.119 211.33ZM659.499 212.8C659.289 212.83 659.069 212.8 658.849 212.77V212.06C659.079 212.06 659.289 212.08 659.499 212.09V212.8ZM657.389 211.7V210.99C657.699 210.31 657.729 212.13 657.389 211.7ZM662.209 211.95C662.209 211.95 662.129 211.86 662.099 211.86C661.669 211.95 662.269 209.34 662.209 211.95ZM664.479 211.24C664.519 211.13 664.579 210.93 664.629 210.95C664.939 211.03 664.599 212.76 664.479 211.24Z" fill="#F8EEFE"/>
<path d="M588.879 176.441C585.749 176.791 585.749 180.141 588.879 180.491C593.319 180.991 597.989 181.251 603.989 181.271C610.789 181.111 612.479 180.421 617.089 180.501C624.869 180.501 638.009 181.431 641.169 181.661C641.639 181.691 642.109 181.701 642.579 181.691C645.929 181.561 660.639 181.061 673.299 181.301C682.239 181.291 687.779 181.281 690.669 181.281C697.499 181.251 702.599 180.911 707.609 180.281C710.359 179.931 710.359 177.021 707.609 176.671C702.599 176.031 697.499 175.691 690.669 175.671C688.019 175.671 682.489 174.871 674.689 174.731C673.419 174.711 672.149 174.761 670.889 174.891C660.009 175.981 645.879 175.671 645.879 175.671C645.879 175.671 624.799 175.661 615.899 175.651C609.199 175.651 605.979 175.661 603.999 175.671C597.999 175.691 593.329 175.961 588.889 176.461L588.879 176.441Z" fill="#F8EEFE"/>
<path d="M609.418 222.821C606.288 223.171 606.288 226.521 609.418 226.871C613.858 227.371 618.528 227.631 624.528 227.651C631.328 227.491 633.018 226.801 637.628 226.881C645.408 226.881 658.548 227.811 661.708 228.041C662.178 228.071 662.648 228.081 663.118 228.071C666.468 227.941 681.178 227.441 693.838 227.681C702.778 227.681 708.318 227.661 711.208 227.661C718.038 227.631 723.138 227.291 728.148 226.661C730.898 226.311 730.898 223.401 728.148 223.051C723.138 222.411 718.038 222.071 711.208 222.051C708.558 222.051 703.028 221.251 695.228 221.111C693.958 221.091 692.688 221.141 691.428 221.271C680.548 222.361 666.418 222.051 666.418 222.051C666.418 222.051 645.338 222.041 636.438 222.031C629.738 222.031 626.518 222.041 624.538 222.051C618.538 222.071 613.868 222.341 609.428 222.841L609.418 222.821Z" fill="#F8EEFE"/>
</g>
<mask id="mask7_287_61796" style="mask-type:luminance" maskUnits="userSpaceOnUse" x="-49" y="-74" width="169" height="355">
<path d="M-48.5625 195.62L119.557 280.43L87.0675 -73.2402L-48.5625 195.62Z" fill="white"/>
</mask>
<g mask="url(#mask7_287_61796)">
<path d="M-52.2811 124.569C-58.4411 124.119 -58.9111 127.439 -52.7911 128.589C-44.1111 130.179 -34.9211 131.459 -23.0511 132.419C-9.57111 133.259 -6.18111 132.689 2.93889 133.139C10.6489 133.439 21.0189 133.859 30.2489 134.059C39.4789 134.279 47.5789 134.299 50.7289 134.289C51.6589 134.289 52.5889 134.269 53.5189 134.209C56.8389 133.999 65.7989 133.469 77.0289 132.459C82.6489 131.959 88.8289 131.369 95.1689 130.669C101.489 129.939 107.969 129.189 114.199 128.459C131.729 126.319 142.629 124.839 148.319 123.899C161.749 121.749 171.759 118.949 181.019 115.059C186.099 112.849 184.989 110.149 179.829 111.649C170.359 114.259 160.659 116.289 147.429 118.349C142.289 119.199 131.419 119.869 116.099 121.589C113.609 121.879 111.119 122.239 108.659 122.669C98.0889 124.579 85.8889 126.029 76.2789 126.809C66.6889 127.619 59.7389 127.869 59.7389 127.869C59.7389 127.869 49.3789 128.449 36.8189 128.649C24.2589 128.879 9.50889 128.579 0.768887 128.189C-12.4011 127.639 -18.7311 127.089 -22.6211 126.809C-34.3911 125.899 -43.5511 125.159 -52.2911 124.559L-52.2811 124.569Z" fill="#F8EEFE"/>
</g>
<path d="M119.56 280.429L42.22 241.419L35.5 168.239L112.84 207.249L119.56 280.429Z" fill="#F8EEFE"/>
<mask id="mask8_287_61796" style="mask-type:luminance" maskUnits="userSpaceOnUse" x="35" y="168" width="169" height="354">
<path d="M203.62 253.049L35.5 168.239L67.98 521.909L203.62 253.049Z" fill="white"/>
</mask>
<g mask="url(#mask8_287_61796)">
<path d="M-375.011 374.81C-382.981 369.8 -388.811 365.81 -392.791 363.23C-396.761 360.65 -398.871 359.48 -399.171 359.86C-399.451 360.2 -397.921 362.09 -394.361 365.28C-390.801 368.47 -385.201 372.97 -377.191 378.21C-371.511 381.92 -365.651 385.42 -359.591 388.72C-353.511 391.99 -347.241 395.03 -340.761 397.86C-327.781 403.48 -313.951 408.12 -299.201 411.51C-284.461 414.94 -268.801 417.06 -252.291 417.71C-244.031 418.04 -235.581 417.98 -226.931 417.67C-218.221 417.36 -209.321 416.46 -200.281 415.31C-190.031 413.98 -180.821 412.6 -172.361 411.38C-163.881 410.15 -156.181 408.91 -149.081 407.66C-134.881 405.17 -123.071 402.7 -112.131 400.19C-101.191 397.67 -91.1107 395.07 -80.4407 392.06C-69.7707 389.03 -58.5007 385.6 -45.2707 381.04C-22.9307 373.3 2.78927 362.76 28.2793 349.1C41.0193 342.29 53.6893 334.71 65.8693 326.5C78.0393 318.3 89.6993 309.45 100.489 300.25C122.059 281.84 140.189 262.08 152.889 244.03C159.259 235.03 164.309 226.51 168.109 219.08C171.919 211.65 174.529 205.34 176.229 200.76C178.239 195.33 179.979 189.79 181.299 184.11C182.469 179.06 183.999 171.77 184.579 162.46C185.159 153.18 184.819 141.9 182.149 129.41C179.489 116.98 174.479 103.23 165.439 90.4097C163.169 87.2297 160.669 84.1097 157.919 81.1097C155.139 78.1397 152.109 75.2997 148.829 72.6397C142.229 67.4097 134.749 62.8697 126.569 59.4797C118.409 56.0597 109.679 53.5397 100.669 51.8297C91.6493 50.1597 82.3593 49.1897 72.9493 48.7897C54.1293 48.0397 34.7793 48.9297 15.3193 51.3197C-4.12073 53.7497 -23.6207 57.7697 -42.5907 63.3597C-47.3307 64.7497 -52.0407 66.2397 -56.7107 67.8297C-61.3607 69.4197 -66.0507 71.0197 -70.6707 73.1197C-75.2807 75.1997 -79.8107 77.8297 -83.7207 81.3897C-87.6707 84.9897 -90.7107 89.5497 -92.3607 94.7097C-92.9207 96.5397 -93.2907 98.4397 -93.4307 100.36C-93.5607 102.29 -93.4207 104.25 -93.0307 106.15C-92.1907 109.92 -90.3907 113.42 -87.9007 116.18C-85.4307 118.95 -82.4607 121 -79.4407 122.57C-76.4107 124.15 -73.3007 125.28 -70.2107 126.18C-64.0407 127.99 -57.8607 128.72 -52.1207 129.45C-46.3207 130.18 -40.6607 130.8 -35.1507 131.34C-13.1007 133.49 6.60929 134.27 24.0193 134.33C58.8393 134.43 84.3993 131.92 101.839 129.93C112.099 128.65 122.039 127.41 131.689 126.2C141.339 124.93 150.739 123.6 159.869 121.72C164.429 120.77 168.909 119.68 173.279 118.42C177.649 117.15 181.909 115.67 186.049 114.08C194.289 110.88 202.129 107.27 209.579 103.29C217.019 99.2997 224.069 94.9697 230.769 90.3697C237.459 85.7497 243.779 80.9797 249.919 76.0397C262.149 66.1097 273.189 55.3497 283.159 43.7897C288.629 37.4297 292.319 32.3197 294.599 28.7997C296.879 25.2797 297.749 23.3297 297.429 23.0997C297.089 22.8497 295.559 24.3097 292.779 27.4097C289.999 30.5097 285.969 35.2397 280.439 41.3997C270.369 52.5997 259.299 62.9797 247.129 72.5597C241.039 77.3097 234.669 81.9797 228.069 86.4097C221.449 90.8297 214.509 94.9897 207.199 98.8097C199.889 102.62 192.199 106.08 184.149 109.14C180.129 110.65 176.019 112.04 171.789 113.25C167.559 114.44 163.219 115.47 158.769 116.37C149.879 118.16 140.579 119.43 130.969 120.68C121.339 121.87 111.419 123.09 101.179 124.35C85.3093 126.17 60.6993 128.39 28.2993 128.28C12.1093 128.22 -6.02072 127.53 -25.8907 125.78C-35.8207 124.91 -46.2007 123.75 -56.9507 122.27C-62.1907 121.51 -67.4907 120.46 -72.4107 118.55C-74.8707 117.6 -77.2307 116.46 -79.3307 115.02C-81.4107 113.57 -83.2107 111.84 -84.5007 109.81L-84.8307 109.33L-85.0907 108.81L-85.6207 107.77C-85.9107 107.05 -86.1607 106.3 -86.4007 105.57C-86.8107 104.09 -86.9407 102.53 -86.8507 100.95C-86.6707 97.7897 -85.5507 94.5897 -83.8207 91.7097C-80.3707 85.9097 -74.3707 81.8397 -67.7607 78.8297C-64.1907 77.1797 -60.3707 75.7797 -56.4507 74.3897C-52.5407 73.0097 -48.5807 71.6797 -44.5707 70.4197C-36.5507 67.8897 -28.3307 65.6397 -19.9907 63.6697C-3.32072 59.7297 13.8493 56.9997 30.9293 55.5297C39.4693 54.7897 47.9793 54.3797 56.3993 54.2697C64.8193 54.1397 73.1193 54.3497 81.2193 54.9997C97.3893 56.2897 112.829 59.4697 126.009 65.3997C132.599 68.3297 138.599 71.9097 143.859 75.9397C146.499 77.9397 148.899 80.1197 151.169 82.3097C153.389 84.5597 155.489 86.8097 157.349 89.1597C161.129 93.8097 164.179 98.5897 166.639 103.24C169.109 107.88 171.009 112.37 172.499 116.52C175.489 124.84 176.799 131.79 177.549 136.55C177.749 137.74 177.879 138.8 177.989 139.72C178.109 140.64 178.209 141.41 178.259 142.03C178.379 143.28 178.449 143.93 178.449 143.93C178.449 143.93 178.469 144.17 178.519 144.65C178.549 145.12 178.599 145.83 178.669 146.75C178.799 148.6 178.929 151.33 178.919 154.85C178.929 161.88 178.189 172.07 175.089 184.27C172.049 196.46 166.579 210.53 158.279 224.94C150.019 239.37 138.999 254.08 126.029 268.17C113.049 282.27 98.2893 295.86 82.3993 308.12C66.5393 320.42 49.6393 331.45 32.7093 340.95C-1.16074 360.01 -34.9607 372.86 -60.4707 380.96C-79.7007 387.08 -96.7407 391.43 -111.731 394.79C-126.731 398.15 -139.701 400.55 -150.951 402.44C-162.201 404.34 -171.721 405.66 -179.951 406.82C-188.161 407.98 -195.021 408.94 -200.941 409.69C-209.911 410.84 -218.601 411.73 -227.101 412.05C-235.641 412.37 -243.951 412.46 -252.041 412.17C-268.221 411.6 -283.561 409.63 -298.011 406.4C-312.481 403.21 -326.071 398.81 -338.871 393.48C-345.261 390.79 -351.461 387.89 -357.491 384.78C-363.491 381.64 -369.321 378.29 -374.971 374.75L-375.011 374.81Z" fill="#F8EEFE"/>
</g>
</g>
</g>
<defs>
<clipPath id="clip0_287_61796">
<rect width="960" height="540" fill="white"/>
</clipPath>
</defs>
</svg>
