<svg width="96" height="96" viewBox="0 0 96 96" fill="none" xmlns="http://www.w3.org/2000/svg">
<path d="M61.34 53.01C61.5 52.12 61.58 51.16 61.58 50.16C61.58 49.16 61.5 48.18 61.33 47.27C60.36 41.88 56.62 38.56 51.36 37.7C50.46 37.55 49.52 37.48 48.55 37.48C47.58 37.48 46.55 37.56 45.62 37.72C40.37 38.6 36.63 41.91 35.66 47.27C35.5 48.18 35.41 49.14 35.41 50.16C35.41 51.18 35.49 52.12 35.65 53.01C36.61 58.36 40.35 61.68 45.62 62.56C46.55 62.72 47.53 62.8 48.55 62.8C49.57 62.8 50.47 62.73 51.36 62.58C56.62 61.72 60.37 58.4 61.33 53.01H61.34Z" fill="#FCA700"/>
<path d="M18 48.74L33.6 22L49.2 48.74H18Z" fill="#BF63F3"/>
<path d="M43.14 38.3599C39.2 39.7399 36.46 42.7899 35.66 47.2699C35.57 47.7499 35.51 48.2299 35.46 48.7399H49.19L43.14 38.3599Z" fill="#AE2A19"/>
<path d="M72.1099 52.5H50.1899V74.42H72.1099V52.5Z" fill="#82B536"/>
<path d="M50.1899 52.5098V62.7298C50.5899 62.6898 50.9799 62.6398 51.3699 62.5798C56.6299 61.7298 60.3699 58.3998 61.3399 53.0098C61.3699 52.8498 61.3999 52.6798 61.4199 52.5098H50.1899Z" fill="#AE2A19"/>
<path d="M76.29 61.9905C78.09 63.2405 78.83 62.4005 77.11 60.9205C74.66 58.8605 71.85 56.9005 67.85 55.1205C66.69 54.6705 65.76 54.3005 64.92 54.0705C64.1 53.8105 63.39 53.6305 62.73 53.4905C62.08 53.3305 61.47 53.2105 60.81 53.1005C60.16 52.9705 59.47 52.8505 58.64 52.7205C55.85 52.2605 52.01 52.0905 48.63 52.6305C45.23 53.0905 42.39 54.3005 41.33 54.8705C41.01 55.0305 40.71 55.2305 40.4 55.4205C39.88 55.8005 38.85 56.4105 37.79 57.7605C37.28 58.4205 36.69 59.3405 36.67 60.6705C36.68 60.9905 36.75 61.3505 36.86 61.6805C37.01 61.9805 37.14 62.3505 37.38 62.5805C37.82 63.1405 38.32 63.4705 38.92 63.7705C40.12 64.3405 41.63 64.3105 42.87 63.7005C44.13 63.1205 45.12 61.8305 45.42 60.4905C45.74 59.3005 45.87 58.0105 45.77 56.7305C45.66 55.4505 45.27 54.1605 44.61 53.0605C43.66 51.5205 42.39 50.4605 41.18 49.7405C39.96 49.0105 38.78 48.6005 37.73 48.3105C35.61 47.7705 34 47.7505 32.92 47.7905C30.35 47.8905 28.13 48.5305 26.28 49.4805C24.42 50.4105 22.93 51.7205 21.8 53.2205C21.19 54.0605 21.16 54.6505 21.38 54.7905C21.62 54.9405 22.09 54.6705 22.72 53.9905C23.9 52.7605 25.3 51.7405 27 51.0005C28.69 50.2505 30.67 49.7405 32.98 49.6605C33.87 49.6305 35.27 49.7105 36.98 50.2005C38.67 50.6805 40.76 51.6305 42.25 53.5005C42.71 54.1205 43.1 54.7805 43.37 55.4905C43.65 56.2605 43.81 57.1305 43.79 58.0405C43.75 58.4905 43.75 58.9605 43.64 59.4105L43.5 60.1005C43.44 60.3005 43.4 60.4805 43.31 60.6505C43.01 61.3605 42.37 61.8805 41.67 62.1305C40.96 62.3705 40.22 62.3105 39.64 62.0205C39.04 61.7005 38.67 61.2405 38.61 60.8405C38.55 60.4205 38.66 59.9505 38.9 59.5805C38.98 59.3905 39.12 59.2305 39.23 59.0905C39.33 58.9505 39.43 58.8205 39.52 58.7405C39.7 58.5505 39.79 58.4505 39.79 58.4505C39.79 58.4505 39.93 58.3005 40.23 58.0505C40.51 57.7905 40.97 57.4505 41.56 57.0705C42.75 56.3105 44.57 55.4705 46.68 54.8905C48.79 54.3205 51.18 54.0105 53.41 53.9905C55.64 53.9605 57.7 54.2005 59.21 54.4705C63.77 55.3505 65.82 56.3705 67.1 56.8505C70.92 58.5405 73.7 60.2605 76.28 62.0105L76.29 61.9905Z" fill="#101214"/>
<path d="M74.89 52.2607C74.58 51.8107 73.54 52.2307 73.64 52.7707C73.78 53.5407 74.01 54.3107 74.41 55.2607C74.92 56.3107 75.25 56.4807 75.53 57.2107C75.79 57.8207 76.07 58.6607 76.26 59.4107C76.45 60.1607 76.51 60.7707 76.49 60.9607C76.49 61.0207 76.49 61.0707 76.51 61.1307C76.53 61.2207 76.55 61.3907 76.55 61.4707C76.54 61.5307 76.62 61.5307 76.37 61.6807C75.84 61.9607 74.63 62.0407 73.61 62.0107C72.13 62.0107 71.18 61.9707 70.69 61.9607C69.53 61.9307 68.66 62.0007 67.79 62.1807C67.32 62.2807 67.28 63.2507 67.74 63.3807C68.58 63.6307 69.45 63.7807 70.62 63.8307C71.08 63.8407 72.01 64.1507 73.38 64.2107C73.6 64.2107 73.83 64.1907 74.05 64.1507C75.02 63.9307 76.12 63.8607 77.16 63.4107C77.68 63.1907 78.15 62.7107 78.32 62.3107C78.48 61.9107 78.5 61.6907 78.5 61.6907C78.5 61.6907 78.5 61.6107 78.53 61.4607C78.53 61.3307 78.53 61.1207 78.51 60.9007C78.47 60.4407 78.32 59.9207 78.13 59.3707C77.76 58.2807 77.24 57.1107 76.94 56.4007C76.48 55.3507 76.26 54.8507 76.13 54.5407C75.72 53.6107 75.33 52.9107 74.89 52.2807V52.2607Z" fill="#101214"/>
</svg>
