<svg width="96" height="96" viewBox="0 0 96 96" fill="none" xmlns="http://www.w3.org/2000/svg">
<path d="M61.34 53.01C61.5 52.12 61.58 51.16 61.58 50.16C61.58 49.16 61.5 48.18 61.33 47.27C60.36 41.88 56.62 38.56 51.36 37.7C50.46 37.55 49.52 37.48 48.55 37.48C47.58 37.48 46.55 37.56 45.62 37.72C40.37 38.6 36.63 41.91 35.66 47.27C35.5 48.18 35.41 49.14 35.41 50.16C35.41 51.18 35.49 52.12 35.65 53.01C36.61 58.36 40.35 61.68 45.62 62.56C46.55 62.72 47.53 62.8 48.55 62.8C49.57 62.8 50.47 62.73 51.36 62.58C56.62 61.72 60.37 58.4 61.33 53.01H61.34Z" fill="#FCA700"/>
<path d="M18 48.74L33.6 22L49.2 48.74H18Z" fill="#BF63F3"/>
<path d="M43.14 38.3599C39.2 39.7399 36.46 42.7899 35.66 47.2699C35.57 47.7499 35.51 48.2299 35.46 48.7399H49.19L43.14 38.3599Z" fill="#AE2A19"/>
<path d="M72.1099 52.5H50.1899V74.42H72.1099V52.5Z" fill="#82B536"/>
<path d="M50.1899 52.5098V62.7298C50.5899 62.6898 50.9799 62.6398 51.3699 62.5798C56.6299 61.7298 60.3699 58.3998 61.3399 53.0098C61.3699 52.8498 61.3999 52.6798 61.4199 52.5098H50.1899Z" fill="#AE2A19"/>
</svg>
