<svg width="960" height="540" viewBox="0 0 960 540" fill="none" xmlns="http://www.w3.org/2000/svg">
<g clip-path="url(#clip0_287_66424)">
<path d="M73.6328 540H272.543L169.833 478.27L73.6328 540Z" fill="#8C8F97"/>
<path d="M684.211 339.59C686.501 323.73 688.201 305.4 688.201 285.36C688.201 265.32 686.411 245.93 684.011 229.76C683.971 229.99 683.941 230.21 683.911 230.38C683.891 230.26 683.881 230.12 683.871 229.97C681.491 246.09 679.711 264.84 679.711 285.36C679.711 305.88 681.511 324.87 683.911 341.07C683.971 339.97 684.041 338.9 684.101 338.47C684.131 338.69 684.171 339.1 684.201 339.59H684.211Z" fill="#8C8F97"/>
<path d="M0 184.17L126.53 211.16L111.85 279.98L112.09 280.07L112.06 280.21L127.59 285.87L102.06 355.85L0 318.62V540H33.85C34.52 514.07 35.31 477.96 34.61 477.26L103.92 439.08L96.19 434.49L163.58 397.37L171.81 401.77L171.87 401.73L233.35 434.56L233.29 434.6L303.62 472.16V540H372.32L398.5 534.55C398.5 534.55 398.48 534.52 398.47 534.51H398.49C395.67 530.63 393.06 526.49 390.68 522.06C383.97 509.58 380.01 496.84 378.92 484.19C376.67 458.14 386.62 433.88 407.67 414.03C415.97 406.21 425.89 399.17 437.15 393.11C447.96 387.3 458.96 383.07 469.83 380.53C497.93 373.98 523.63 379.1 544.16 395.33C554.15 403.23 562.61 413.55 569.32 426.03C575.94 438.35 579.85 450.98 580.92 463.56C581.92 475.28 580.46 486.64 576.65 497.39H576.68C576.68 497.39 576.67 497.42 576.66 497.43L659.25 480.23L651.81 448.58L716.33 490.64L688.36 540.01H810.13L849.97 447.97V447.96L807.39 311.4H893.86L901.09 334.57H958.81L926.55 416.24L949.65 490.31H897.29L877.66 540.01H959.97V201.44L953.32 218.04H907.03H906.88L884.5 273.93H801.39L913.82 17.78H958.12L959.99 13.51V0H847.65V90.29H749.94V51.6H657.98V110.62H598.96V51.6H657.98V0H452.74L472.11 35.16L446.49 83.13L541.18 79.15L543.71 139.24L413.76 144.71L413.6 144.72L402.72 165.1H322.45L401.36 33.81L379.67 0H292.62C298.11 7.27 302.26 12.81 304.88 17.58L292.71 26.76L295.45 27.77L295.4 27.81L308.13 32.5L310.2 33.26L309.71 35.41C308.24 41.77 305.77 48.47 302.79 56.54C295.28 76.9 286.2 93.17 275.9 105.6C265.6 118.02 254.07 126.6 241.74 131.46C233.53 134.7 224.97 136.28 216.25 136.28C206.84 136.28 197.25 134.44 187.65 130.9C181.23 128.54 175.56 125.8 170.54 122.76L170.1 122.49C166.62 126.14 162.62 129.72 157.99 133.21C120.52 161.47 73.58 153.8 29.79 95.73C24.61 88.87 20.36 83.22 17.24 77.76L29.57 68.46L11.61 61.84L12.06 59.72C13.28 54.02 15.75 47.33 18.99 38.54C24.56 23.46 31.05 10.65 38.3 0H0V184.17ZM606.61 205.71C612.89 170.55 621.07 148.21 621.63 146.72L683.97 168.23L746.29 146.72C746.85 148.21 755.07 170.55 761.31 205.71C765.24 227.86 768.42 254.98 768.42 285.36C768.42 315.74 765.24 342.89 761.31 365.01C755.03 400.17 746.85 422.51 746.29 424L683.96 402.49L621.63 424C621.07 422.51 612.85 400.17 606.61 365.01C602.68 342.86 599.5 315.74 599.5 285.36C599.5 254.98 602.68 227.82 606.61 205.71ZM410.89 225.37L446.25 237.16V202.17H493.03V237.16L528.76 225.37L543.49 267.36L507.39 279.15L531.7 310.46L494.87 337.72L469.83 305.31L444.78 337.72L407.58 310.46L431.89 279.15L396.16 267.36L410.89 225.37ZM174.36 319.78H218.99V205.61H333.16V275.15H362.42V349.04H288.53V319.78H218.99V364.41H174.36V319.78Z" fill="#8C8F97"/>
<path d="M429.259 479.88C428.359 469.43 432.639 459.89 442.339 450.72C444.529 448.65 446.959 446.66 449.589 444.73C446.939 446.66 444.499 448.66 442.309 450.73C432.599 459.89 428.319 469.41 429.219 479.85C429.719 485.61 431.709 491.77 435.149 498.16C436.839 501.3 438.679 504.11 440.649 506.58C438.699 504.12 436.879 501.33 435.199 498.22C431.759 491.81 429.759 485.64 429.259 479.88Z" fill="#8C8F97"/>
<path d="M611.199 540H673.329L670.159 526.54L611.199 540Z" fill="#8C8F97"/>
<path d="M207.437 27.3301C203.117 30.5801 200.457 34.8201 198.617 39.9701C198.977 40.5501 199.337 41.13 199.697 41.67L199.827 41.8701C201.457 44.2801 203.177 46.3101 205.087 47.9701C207.047 49.6701 209.207 50.9801 211.777 51.9301C213.827 52.6901 215.797 53.0601 217.717 53.0601C219.527 53.0601 221.287 52.7301 223.057 52.0501C224.827 51.3701 226.607 50.3201 228.407 48.8401C231.987 45.8901 235.597 41.22 239.007 34.6C239.107 34.41 239.207 34.2101 239.297 34.0201C226.817 22.2101 216.157 20.7401 207.427 27.3301H207.437Z" fill="#8C8F97"/>
<path d="M115.107 68.5702C119.147 65.5202 121.747 61.6202 123.577 56.9102C123.227 56.3202 122.887 55.7402 122.537 55.1902L122.417 55.0102C120.687 52.3002 118.867 50.0102 116.847 48.1602C114.777 46.2702 112.497 44.8302 109.747 43.8202C107.707 43.0702 105.737 42.7002 103.837 42.7002C102.077 42.7002 100.348 43.0102 98.6175 43.6702C96.8875 44.3302 95.1475 45.3402 93.3975 46.7602C90.1875 49.3602 86.9575 53.3802 83.8475 58.9402L83.9275 59.0202L83.1075 60.5702C82.9675 60.8402 82.8275 61.1102 82.6875 61.3802C95.4175 73.6802 106.237 75.2602 115.097 68.5802L115.107 68.5702Z" fill="#8C8F97"/>
<path d="M953.352 218.04L960.003 201.44V85.8398L907.062 218.04H953.352Z" fill="#B7B9BE"/>
<path d="M958.283 17.7798H960.003V13.5098L958.133 17.7798H958.283Z" fill="#B7B9BE"/>
<path d="M399.178 535.44C399.038 535.26 398.898 535.08 398.768 534.89C398.688 534.78 398.598 534.66 398.508 534.55L372.328 540H402.808C402.248 539.34 401.698 538.67 401.158 537.99C400.488 537.15 399.828 536.3 399.178 535.44Z" fill="#B7B9BE"/>
<path d="M667.047 513.28L659.267 480.24H659.287V480.22L576.697 497.42C572.027 510.59 563.837 522.85 552.267 533.78C550.007 535.92 547.607 537.99 545.117 539.99H611.207L670.177 526.53L667.057 513.27L667.047 513.28Z" fill="#B7B9BE"/>
<path d="M651.84 448.58L659.28 480.23V480.24L678.16 476.28L688.99 522.24L670.17 526.54L667.05 513.28L670.16 526.54L673.33 540H688.39L716.37 490.63L651.84 448.58Z" fill="#B7B9BE"/>
<path d="M233.298 434.6L170.408 477.99L169.978 478.27L169.908 478.22L169.828 478.27L272.538 540H303.628V472.16L233.298 434.6Z" fill="#B7B9BE"/>
<path d="M171.798 401.77H171.818L163.577 397.37L96.1875 434.49L103.917 439.08L171.727 401.73L171.798 401.77Z" fill="#B7B9BE"/>
<path d="M897.32 490.3H863.21H863.2L850 447.96L810.16 540H877.69L897.33 490.3H897.32Z" fill="#B7B9BE"/>
<path d="M958.837 334.56H901.117L926.587 416.23L958.837 334.56Z" fill="#B7B9BE"/>
<path d="M684.109 168.24L697.269 172.78C697.149 173.09 689.639 194.05 684.519 226.72C684.409 227.43 684.169 228.79 684.009 229.77C686.409 245.94 688.199 264.76 688.199 285.37C688.199 305.98 686.509 323.74 684.209 339.6C684.309 341.08 684.409 343.36 684.519 344.02C689.639 376.69 697.149 397.65 697.269 397.96L684.109 402.5L684.029 402.47L683.949 402.5L746.279 424.01C746.839 422.52 755.019 400.18 761.299 365.02C765.229 342.91 768.409 315.75 768.409 285.37C768.409 254.99 765.229 227.87 761.299 205.72C755.059 170.56 746.839 148.22 746.279 146.73L683.959 168.24L684.029 168.27L684.099 168.24H684.109Z" fill="#B7B9BE"/>
<path d="M127.59 285.87L112.06 280.21L111.34 283.61L111.09 283.55L111.06 283.66L0 259.97V318.62L102.06 355.85L127.59 285.87Z" fill="#B7B9BE"/>
<path d="M446.638 83.1304L413.758 144.7L543.708 139.24L541.178 79.1504L446.488 83.1304V83.1404L446.638 83.1304Z" fill="#B7B9BE"/>
<path d="M407.58 310.45L444.78 337.71L469.82 305.3L494.87 337.71L531.7 310.45L507.39 279.15L543.49 267.36L528.75 225.37L493.03 237.16V202.17H446.25V237.16L410.89 225.37L396.16 267.36L431.89 279.15L407.58 310.45Z" fill="#B7B9BE"/>
<path d="M808.969 51.6H750.099H749.949V90.29H847.659V0H809.119V51.6H808.969Z" fill="#B7B9BE"/>
<path d="M657.981 51.5996H598.961V110.62H657.981V51.5996Z" fill="#B7B9BE"/>
<path d="M288.53 275.15H288.69H333.17V205.61H219V319.78H288.53V275.15Z" fill="#B7B9BE"/>
<path d="M958.28 17.7803H958.13H913.82L801.41 273.93H884.52L906.9 218.04H870.4L958.28 17.7803Z" fill="#B7B9BE"/>
<path d="M473.341 519.07C462.721 520.6 454.041 518.63 446.971 513.01C444.731 511.23 442.611 509.079 440.631 506.589C438.651 504.119 436.811 501.31 435.131 498.17C431.691 491.78 429.701 485.619 429.201 479.859C428.301 469.419 432.581 459.899 442.291 450.739C444.491 448.669 446.931 446.669 449.571 444.739C453.041 442.199 456.881 439.78 461.071 437.53C467.961 433.82 474.781 431.17 481.321 429.64C494.281 426.62 504.611 428.339 512.901 434.899C517.451 438.499 521.491 443.56 524.911 449.94C528.261 456.17 530.201 462.22 530.691 467.91C531.591 478.43 527.311 488.01 517.601 497.19C512.711 501.81 506.741 506.039 499.841 509.749C493.431 513.199 487.171 515.759 481.181 517.429L576.641 497.39C580.451 486.64 581.911 475.28 580.911 463.56C579.831 450.98 575.931 438.35 569.311 426.03C562.601 413.55 554.141 403.229 544.151 395.329C523.621 379.099 497.911 373.98 469.821 380.53C458.951 383.07 447.951 387.299 437.141 393.109C425.871 399.169 415.951 406.21 407.661 414.03C386.611 433.88 376.671 458.15 378.911 484.19C380.001 496.84 383.961 509.579 390.671 522.059C393.051 526.489 395.661 530.629 398.481 534.499L473.321 519.059L473.341 519.07Z" fill="#B7B9BE"/>
<path d="M402.82 540C402.26 539.34 401.71 538.67 401.16 537.99C401.7 538.67 402.25 539.34 402.81 540H402.82Z" fill="#B7B9BE"/>
<path d="M398.77 534.89C398.91 535.07 399.05 535.25 399.18 535.44C399.04 535.26 398.9 535.08 398.77 534.89Z" fill="#B7B9BE"/>
<path d="M169.912 478.22L162.272 473.63L104.082 439.08L171.812 401.77L171.732 401.73L103.922 439.08L34.6116 477.26C35.3116 477.96 34.5216 514.07 33.8516 540H73.6316L169.832 478.27L169.902 478.22H169.912Z" fill="#B7B9BE"/>
<path d="M899.082 334.56H901.112L926.582 416.23L897.322 490.3H897.332H949.682L926.592 416.23L901.122 334.56L893.892 311.39H807.422L850.002 447.95L899.082 334.56Z" fill="#B7B9BE"/>
<path d="M621.63 424L683.96 402.49L684.039 402.46L670.96 397.94C671.08 397.63 678.59 376.67 683.71 344C683.78 343.54 683.85 342.28 683.93 341.06C681.53 324.87 679.729 306.01 679.729 285.35C679.729 264.69 681.51 246.08 683.89 229.96C683.81 228.99 683.839 227.47 683.719 226.71C678.599 194.04 671.079 173.08 670.969 172.77L684.06 168.25L683.99 168.22L621.65 146.71C621.09 148.2 612.91 170.54 606.63 205.7C602.7 227.81 599.52 254.97 599.52 285.35C599.52 315.73 602.7 342.85 606.63 365C612.87 400.16 621.09 422.5 621.65 423.99L621.63 424Z" fill="#B7B9BE"/>
<path d="M126.53 211.15L0 184.17V239.17L111.85 279.98L126.53 211.15Z" fill="#B7B9BE"/>
<path d="M111.09 283.55L0 259.86V259.97L111.06 283.66L111.09 283.55Z" fill="#B7B9BE"/>
<path d="M322.449 165.09H402.719L413.599 144.72L383.089 146L380.559 85.91L446.489 83.14V83.13L472.109 35.16L452.739 0H379.669L401.359 33.8L322.449 165.09Z" fill="#B7B9BE"/>
<path d="M749.951 51.6H750.1V0H657.98V51.6H749.951Z" fill="#B7B9BE"/>
<path d="M333.171 319.78H288.691V275.15H288.531V319.78V349.04H362.421V275.15H333.321V319.78H333.171Z" fill="#B7B9BE"/>
<path d="M218.989 319.78H174.359V364.41H218.989V319.78Z" fill="#B7B9BE"/>
<path d="M198.621 39.9705C200.461 34.8205 203.121 30.5805 207.441 27.3305C216.171 20.7405 226.831 22.2105 239.311 34.0205C241.031 30.6205 242.721 26.7705 244.341 22.3605L248.701 10.5105L292.701 26.7405L304.871 17.5605C302.261 12.8005 298.101 7.26047 292.611 -0.0195312H178.641C182.901 6.70047 186.261 13.8105 189.231 21.0805C192.641 28.5105 195.501 34.9105 198.611 39.9605L198.621 39.9705Z" fill="#B7B9BE"/>
<path d="M169.91 122.35C159.82 116.14 152.32 108.69 146.45 100.62C140.46 92.3904 136.14 83.5404 132.31 74.6704C129.12 67.7904 126.44 61.7704 123.58 56.9004C121.75 61.6104 119.15 65.5204 115.11 68.5604C106.25 75.2404 95.43 73.6704 82.7 61.3604C80.92 64.8404 79.18 68.8204 77.5 73.3704C77.03 74.6404 76.68 76.0904 76.31 77.6304C75.94 79.1704 75.56 80.8104 74.95 82.4704L74.09 84.8204L31.65 69.1704H31.5L29.58 68.4604L17.25 77.7604C20.37 83.2204 24.63 88.8704 29.8 95.7304C73.59 153.79 120.52 161.46 158 133.21C162.63 129.72 166.63 126.14 170.11 122.49L169.93 122.38L169.91 122.34V122.35Z" fill="#B7B9BE"/>
<path d="M958.278 17.7803L870.398 218.04H906.898H907.058L959.998 85.8403V17.7803H958.278Z" fill="#8C8F97"/>
<path d="M576.692 497.43C576.692 497.43 576.702 497.4 576.712 497.38H576.682L481.222 517.42C480.472 517.63 479.722 517.83 478.982 518.01L476.602 518.51C475.492 518.73 474.422 518.91 473.352 519.06L398.512 534.5H398.492C398.492 534.5 398.512 534.53 398.522 534.54C398.602 534.66 398.692 534.77 398.782 534.88C398.922 535.06 399.062 535.24 399.192 535.43C399.842 536.29 400.502 537.14 401.172 537.98C401.712 538.66 402.262 539.33 402.832 539.99H545.122C547.612 537.98 550.002 535.92 552.272 533.78C563.842 522.86 572.032 510.59 576.702 497.42L576.692 497.43Z" fill="#8C8F97"/>
<path d="M499.88 509.75C506.77 506.04 512.75 501.82 517.64 497.19C527.35 488.01 531.63 478.43 530.73 467.91C530.24 462.22 528.29 456.17 524.95 449.94C521.53 443.56 517.48 438.5 512.94 434.9C504.65 428.34 494.32 426.61 481.36 429.64C474.82 431.17 468 433.82 461.11 437.53C456.92 439.79 453.08 442.2 449.61 444.74C446.98 446.66 444.55 448.66 442.36 450.73C432.65 459.9 428.37 469.44 429.28 479.89C429.78 485.66 431.78 491.83 435.22 498.23C436.89 501.34 438.71 504.13 440.67 506.59C442.65 509.08 444.77 511.23 447.01 513.01C454.08 518.63 462.76 520.59 473.38 519.07C474.45 518.92 475.52 518.74 476.63 518.52L479.01 518.02C479.75 517.84 480.5 517.64 481.25 517.43C487.25 515.77 493.51 513.2 499.91 509.75H499.88Z" fill="#8C8F97"/>
<path d="M667.049 513.28L670.169 526.54L688.99 522.24L678.159 476.28L659.28 480.24L659.27 480.25L667.049 513.28Z" fill="#B7B9BE"/>
<path d="M104.07 439.08L162.27 473.63L169.91 478.22L169.98 478.27L170.41 477.99L233.3 434.6L233.36 434.56L171.88 401.73L171.82 401.77H171.8L104.07 439.08Z" fill="#8C8F97"/>
<path d="M863.21 490.3H897.32L926.58 416.23L901.11 334.56H899.08L850 447.95V447.96L863.2 490.3H863.21Z" fill="#8C8F97"/>
<path d="M684.021 229.76C684.181 228.79 684.411 227.43 684.531 226.71C689.651 194.04 697.161 173.08 697.281 172.77L684.121 168.23L684.051 168.26L670.961 172.78C671.081 173.09 678.591 194.05 683.711 226.72C683.831 227.48 683.801 229 683.881 229.97C683.891 230.12 683.911 230.26 683.921 230.38C683.951 230.21 683.981 229.99 684.021 229.76Z" fill="#8C8F97"/>
<path d="M697.269 397.95C697.149 397.64 689.639 376.68 684.519 344.01C684.419 343.35 684.309 341.07 684.209 339.59C684.179 339.1 684.139 338.7 684.109 338.47C684.049 338.89 683.979 339.96 683.919 341.07C683.849 342.29 683.779 343.55 683.699 344.01C678.579 376.68 671.059 397.64 670.949 397.95L684.029 402.47L684.109 402.5L697.269 397.96V397.95Z" fill="#8C8F97"/>
<path d="M111.34 283.61L112.06 280.21L112.09 280.06L111.85 279.98L0 239.17V259.86L111.09 283.55L111.34 283.61Z" fill="#8C8F97"/>
<path d="M446.492 83.1399L380.562 85.9099L383.092 146L413.603 144.72L413.763 144.71V144.7L446.643 83.1299L446.492 83.1399Z" fill="#8C8F97"/>
<path d="M808.972 51.6H809.122V0H750.102V51.6H808.972Z" fill="#8C8F97"/>
<path d="M288.688 319.78H333.168H333.318V275.15H333.168H288.688V319.78Z" fill="#8C8F97"/>
<path d="M17.4492 58.6605L32.3892 64.1705H32.5392L70.9892 78.3505C71.1492 77.7505 71.2992 77.1205 71.4492 76.4805C71.8192 74.9405 72.1992 73.3005 72.8092 71.6505C74.4392 67.2405 76.1292 63.3105 77.8892 59.8005L77.7692 59.6705L78.5892 58.1205C81.2792 53.0405 84.1192 48.9305 87.1492 45.7505C90.1792 42.5705 93.4092 40.3005 96.8292 38.9905C99.1092 38.1205 101.459 37.6905 103.829 37.6905C106.389 37.6905 108.949 38.1905 111.469 39.1205C114.829 40.3605 117.709 42.1805 120.199 44.4605C122.699 46.7405 124.809 49.4505 126.739 52.5005L127.129 53.1105V53.1505C130.519 58.6505 133.409 65.2005 136.839 72.5905V72.6205L136.869 72.6505C140.639 81.3905 144.809 89.8905 150.479 97.6705C156.149 105.45 163.289 112.52 173.109 118.46L173.729 118.83C178.319 121.56 183.489 124.04 189.369 126.2C198.479 129.56 207.479 131.27 216.239 131.27C224.349 131.27 232.259 129.8 239.889 126.8C247.519 123.79 254.879 119.23 261.859 113C275.819 100.55 288.269 81.3905 298.079 54.8005C300.709 47.6905 302.879 41.7505 304.289 36.4105L285.359 29.4305L285.409 29.3905L251.659 16.9405L249.019 24.0905C247.239 28.9105 245.379 33.1505 243.449 36.8905C240.729 42.1605 237.829 46.4205 234.739 49.7205C231.649 53.0205 228.349 55.3605 224.859 56.7105C222.529 57.6105 220.129 58.0505 217.719 58.0505C215.149 58.0505 212.579 57.5505 210.049 56.6105C206.909 55.4605 204.189 53.8005 201.809 51.7305C199.429 49.6705 197.389 47.2105 195.539 44.4505L195.119 43.8205V43.7805C191.389 38.0405 188.329 31.0805 184.669 23.1305L184.639 23.0705L184.619 23.0205C181.299 14.8805 177.549 7.11047 172.649 -0.0195312H44.4192C36.6492 10.7505 29.6392 24.1105 23.6892 40.2605C20.8692 47.8805 18.6892 53.8505 17.4592 58.6405L17.4492 58.6605Z" fill="#B7B9BE"/>
<path d="M12.0594 59.72L11.6094 61.84L29.5694 68.46L31.4894 69.17H31.6394L74.0794 84.82L74.9394 82.47C75.5494 80.81 75.9294 79.17 76.2994 77.63C76.6694 76.09 77.0194 74.64 77.4894 73.37C79.1694 68.82 80.8994 64.84 82.6894 61.36C82.8294 61.09 82.9694 60.81 83.1094 60.55L83.9294 59L83.8494 58.92C86.9594 53.36 90.1894 49.34 93.3994 46.74C95.1494 45.32 96.8894 44.31 98.6194 43.65C100.349 42.99 102.069 42.68 103.839 42.68C105.739 42.68 107.709 43.05 109.749 43.8C112.489 44.81 114.769 46.25 116.849 48.14C118.869 49.98 120.689 52.28 122.419 54.99L122.539 55.17C122.889 55.72 123.239 56.3 123.579 56.89C126.439 61.76 129.119 67.77 132.309 74.66C136.139 83.53 140.459 92.38 146.449 100.61C152.319 108.68 159.819 116.13 169.909 122.34L169.929 122.38L170.109 122.49L170.549 122.76C175.569 125.8 181.239 128.54 187.659 130.9C197.259 134.44 206.849 136.28 216.259 136.28C224.979 136.28 233.529 134.7 241.749 131.46C254.079 126.6 265.609 118.02 275.909 105.6C286.209 93.17 295.289 76.9 302.799 56.54C305.779 48.47 308.249 41.77 309.719 35.41L310.209 33.26L308.139 32.5L295.409 27.81L295.459 27.77L292.719 26.76L248.719 10.53L244.359 22.38C242.729 26.78 241.049 30.64 239.329 34.04C239.229 34.23 239.139 34.43 239.039 34.62C235.629 41.24 232.019 45.92 228.439 48.86C226.649 50.34 224.869 51.38 223.089 52.07C221.319 52.75 219.549 53.08 217.749 53.08C215.829 53.08 213.859 52.71 211.809 51.95C209.239 51 207.079 49.69 205.119 47.99C203.209 46.33 201.489 44.3 199.859 41.89L199.729 41.69C199.359 41.15 198.999 40.57 198.649 39.99C195.539 34.94 192.679 28.54 189.269 21.11C186.299 13.84 182.949 6.73 178.679 0.01H172.689C177.589 7.15 181.339 14.91 184.659 23.05L184.679 23.1L184.709 23.16C188.369 31.11 191.439 38.08 195.159 43.81V43.85L195.579 44.48C197.429 47.24 199.469 49.69 201.849 51.76C204.229 53.82 206.949 55.48 210.089 56.64C212.619 57.58 215.189 58.08 217.759 58.08C220.169 58.08 222.579 57.64 224.899 56.74C228.389 55.39 231.689 53.04 234.779 49.75C237.869 46.45 240.759 42.19 243.489 36.92C245.419 33.18 247.279 28.94 249.059 24.12L251.699 16.97L285.449 29.42L285.399 29.46L304.329 36.44C302.919 41.79 300.749 47.72 298.119 54.83C288.319 81.42 275.859 100.58 261.899 113.03C254.919 119.26 247.559 123.82 239.929 126.83C232.299 129.84 224.389 131.3 216.279 131.3C207.519 131.3 198.519 129.59 189.409 126.23C183.529 124.07 178.359 121.59 173.769 118.87L173.149 118.49C163.329 112.56 156.189 105.48 150.519 97.7C144.849 89.92 140.679 81.41 136.909 72.68V72.65L136.879 72.62C133.449 65.23 130.559 58.68 127.169 53.18V53.14L126.779 52.53C124.849 49.48 122.729 46.77 120.239 44.49C117.749 42.21 114.859 40.39 111.509 39.15C108.989 38.22 106.419 37.72 103.869 37.72C101.499 37.72 99.1494 38.15 96.8694 39.02C93.4494 40.32 90.2194 42.59 87.1894 45.78C84.1594 48.97 81.3094 53.07 78.6294 58.15L77.8094 59.7L77.9294 59.83C76.1694 63.34 74.4794 67.28 72.8494 71.69C72.2394 73.34 71.8594 74.98 71.4894 76.52C71.3394 77.16 71.1894 77.79 71.0294 78.39L32.5794 64.21H32.4294L17.4894 58.7C18.7194 53.91 20.9094 47.94 23.7194 40.32C29.6394 24.13 36.6494 10.77 44.4194 0H38.3094C31.0594 10.65 24.5694 23.46 18.9994 38.54C15.7594 47.33 13.2894 54.01 12.0694 59.72H12.0594Z" fill="#8C8F97"/>
</g>
<defs>
<clipPath id="clip0_287_66424">
<rect width="960" height="540" fill="white"/>
</clipPath>
</defs>
</svg>
