<svg width="960" height="540" viewBox="0 0 960 540" fill="none" xmlns="http://www.w3.org/2000/svg">
<g clip-path="url(#clip0_287_66534)">
<path d="M684.211 339.59C686.501 323.73 688.201 305.4 688.201 285.36C688.201 265.32 686.411 245.93 684.011 229.76C683.971 229.99 683.941 230.21 683.911 230.38C683.891 230.26 683.881 230.12 683.871 229.97C681.491 246.09 679.711 264.84 679.711 285.36C679.711 305.88 681.511 324.87 683.911 341.07C683.971 339.97 684.041 338.9 684.101 338.47C684.131 338.69 684.171 339.1 684.201 339.59H684.211Z" fill="#FCA700"/>
<path d="M73.6328 540H272.543L169.833 478.27L73.6328 540Z" fill="#FCA700"/>
<path d="M115.11 68.5704C116.12 67.8104 117.01 66.9904 117.85 66.1304C120.39 63.5104 122.22 60.4204 123.6 56.8504L122.54 55.1704C120.77 52.3804 118.92 50.0304 116.85 48.1504C114.78 46.2604 112.5 44.8204 109.75 43.8104C107.7 43.0604 105.74 42.6904 103.84 42.6904C102.07 42.6904 100.34 43.0104 98.6098 43.6704C96.8798 44.3304 95.1298 45.3504 93.3798 46.7804C89.8698 49.6404 86.3298 54.1704 82.9498 60.5804L82.5898 61.2604C87.1898 65.7304 91.5498 68.7904 95.6498 70.5704C102.94 73.7304 109.43 72.8504 115.11 68.5604V68.5704Z" fill="#FCA700"/>
<path d="M200.13 42.0498V42.2798C201.67 44.4998 203.3 46.4098 205.1 47.9698C207.06 49.6698 209.22 50.9798 211.79 51.9298C213.84 52.6898 215.81 53.0598 217.72 53.0598C219.51 53.0598 221.26 52.7398 223.02 52.0498C224.78 51.3698 226.54 50.3198 228.32 48.8498C231.88 45.9098 235.46 41.2298 238.88 34.6098L239.23 33.9398C232.69 27.7798 226.66 24.4498 221.14 23.6398C217.62 23.1198 214.32 23.6198 211.22 25.0498C209.92 25.6498 208.66 26.4098 207.44 27.3298C206.15 28.2998 205.01 29.3598 203.99 30.4998C201.52 33.2798 199.79 36.5698 198.48 40.3498L200.13 42.0398V42.0498Z" fill="#FCA700"/>
<path d="M611.199 540H673.329L670.159 526.54L611.199 540Z" fill="#FCA700"/>
<path d="M0 184.17L126.53 211.16L111.85 279.98L112.09 280.07L112.06 280.21L127.59 285.87L102.06 355.85L0 318.62V540H33.85C34.52 514.07 35.31 477.96 34.61 477.26L103.92 439.08L96.19 434.49L163.58 397.37L171.81 401.77L171.87 401.73L233.35 434.56L233.29 434.6L303.62 472.16V540H372.32L398.5 534.55C398.5 534.55 398.48 534.52 398.47 534.51H398.49C395.67 530.63 393.06 526.49 390.68 522.06C383.97 509.58 380.01 496.84 378.92 484.19C376.67 458.14 386.62 433.88 407.67 414.03C415.97 406.21 425.89 399.17 437.15 393.11C447.96 387.3 458.96 383.07 469.83 380.53C497.93 373.98 523.63 379.1 544.16 395.33C554.15 403.23 562.61 413.55 569.32 426.03C575.94 438.35 579.85 450.98 580.92 463.56C581.92 475.28 580.46 486.64 576.65 497.39H576.68C576.68 497.39 576.67 497.42 576.66 497.43L659.25 480.23L651.81 448.58L716.33 490.64L688.36 540.01H810.13L849.97 447.97V447.96L807.39 311.4H893.86L901.09 334.57H958.81L926.55 416.24L949.65 490.31H897.29L877.66 540.01H959.97V201.44L953.32 218.04H907.03H906.88L884.5 273.93H801.39L913.82 17.78H958.12L959.99 13.51V0H847.65V90.29H749.94V51.6H657.98V110.62H598.96V51.6H657.98V0H452.74L472.11 35.16L446.49 83.13L541.18 79.15L543.71 139.24L413.76 144.71L413.6 144.72L402.72 165.1H322.45L401.36 33.81L379.67 0H292.62C292.76 0.18 292.89 0.36 293.03 0.54C298.31 7.55 302.33 12.93 304.88 17.58L294.32 25.54L292.66 26.79L310.2 33.25L309.71 35.4C308.24 41.76 305.77 48.46 302.79 56.53C295.28 76.89 286.2 93.16 275.9 105.59C265.6 118.01 254.07 126.59 241.74 131.45C233.53 134.69 224.97 136.27 216.25 136.27C206.84 136.27 197.25 134.43 187.65 130.89C181.23 128.53 175.56 125.79 170.54 122.75L170.1 122.48C168.84 123.8 167.51 125.11 166.12 126.41C165.15 127.31 164.15 128.21 163.1 129.1C161.49 130.48 159.79 131.85 158 133.21C132.45 152.48 102.49 155.03 72.14 136.31C71.89 136.15 71.64 136 71.38 135.85C71.3 135.8 71.21 135.74 71.13 135.69C57.3 126.95 43.4 113.78 29.8 95.74C29.22 94.97 28.66 94.22 28.1 93.49C26.68 91.6 25.34 89.81 24.08 88.08C21.42 84.43 19.12 81.07 17.24 77.78L22.3 73.96L29.57 68.47L11.61 61.85L12.06 59.73C13.28 54.03 15.75 47.34 18.99 38.55C24.56 23.46 31.05 10.65 38.3 0H0V184.17ZM606.61 205.71C612.89 170.55 621.07 148.21 621.63 146.72L683.97 168.23L746.29 146.72C746.85 148.21 755.07 170.55 761.31 205.71C765.24 227.86 768.42 254.98 768.42 285.36C768.42 315.74 765.24 342.89 761.31 365.01C755.03 400.17 746.85 422.51 746.29 424L683.96 402.49L621.63 424C621.07 422.51 612.85 400.17 606.61 365.01C602.68 342.86 599.5 315.74 599.5 285.36C599.5 254.98 602.68 227.82 606.61 205.71ZM410.89 225.37L446.25 237.16V202.17H493.03V237.16L528.76 225.37L543.49 267.36L507.39 279.15L531.7 310.46L494.87 337.72L469.83 305.31L444.78 337.72L407.58 310.46L431.89 279.15L396.16 267.36L410.89 225.37ZM174.36 319.78H218.99V205.61H333.16V275.15H362.42V349.04H288.53V319.78H218.99V364.41H174.36V319.78Z" fill="#FCA700"/>
<path d="M429.259 479.88C428.359 469.43 432.639 459.89 442.339 450.72C444.529 448.65 446.959 446.66 449.589 444.73C446.939 446.66 444.499 448.66 442.309 450.73C432.599 459.89 428.319 469.41 429.219 479.85C429.719 485.61 431.709 491.77 435.149 498.16C436.839 501.3 438.679 504.11 440.649 506.58C438.699 504.12 436.879 501.33 435.199 498.22C431.759 491.81 429.759 485.64 429.259 479.88Z" fill="#FCA700"/>
<path d="M958.283 17.7798H960.003V13.5098L958.133 17.7798H958.283Z" fill="#FFC716"/>
<path d="M953.352 218.04L960.003 201.44V85.8398L907.062 218.04H953.352Z" fill="#FFC716"/>
<path d="M399.178 535.44C399.038 535.26 398.898 535.08 398.768 534.89C398.688 534.78 398.598 534.66 398.508 534.55L372.328 540H402.808C402.248 539.34 401.698 538.67 401.158 537.99C400.488 537.15 399.828 536.3 399.178 535.44Z" fill="#FFC716"/>
<path d="M667.047 513.28L659.267 480.24H659.287V480.22L576.697 497.42C572.027 510.59 563.837 522.85 552.267 533.78C550.007 535.92 547.607 537.99 545.117 539.99H611.207L670.177 526.53L667.057 513.27L667.047 513.28Z" fill="#FFC716"/>
<path d="M651.84 448.58L659.28 480.23V480.24L678.16 476.28L688.99 522.24L670.17 526.54L667.05 513.28L670.16 526.54L673.33 540H688.39L716.37 490.63L651.84 448.58Z" fill="#FFC716"/>
<path d="M171.798 401.77H171.818L163.577 397.37L96.1875 434.49L103.917 439.08L171.727 401.73L171.798 401.77Z" fill="#FFC716"/>
<path d="M233.298 434.6L170.408 477.99L169.978 478.27L169.908 478.22L169.828 478.27L272.538 540H303.628V472.16L233.298 434.6Z" fill="#FFC716"/>
<path d="M958.837 334.56H901.117L926.587 416.23L958.837 334.56Z" fill="#FFC716"/>
<path d="M897.32 490.3H863.21H863.2L850 447.96L810.16 540H877.69L897.33 490.3H897.32Z" fill="#FFC716"/>
<path d="M684.109 168.24L697.269 172.78C697.149 173.09 689.639 194.05 684.519 226.72C684.409 227.43 684.169 228.79 684.009 229.77C686.409 245.94 688.199 264.76 688.199 285.37C688.199 305.98 686.509 323.74 684.209 339.6C684.309 341.08 684.409 343.36 684.519 344.02C689.639 376.69 697.149 397.65 697.269 397.96L684.109 402.5L684.029 402.47L683.949 402.5L746.279 424.01C746.839 422.52 755.019 400.18 761.299 365.02C765.229 342.91 768.409 315.75 768.409 285.37C768.409 254.99 765.229 227.87 761.299 205.72C755.059 170.56 746.839 148.22 746.279 146.73L683.959 168.24L684.029 168.27L684.099 168.24H684.109Z" fill="#FFC716"/>
<path d="M127.59 285.87L112.06 280.21L111.34 283.61L111.09 283.55L111.06 283.66L0 259.97V318.62L102.06 355.85L127.59 285.87Z" fill="#FFC716"/>
<path d="M446.638 83.1304L413.758 144.7L543.708 139.24L541.178 79.1504L446.488 83.1304V83.1404L446.638 83.1304Z" fill="#FFC716"/>
<path d="M407.58 310.45L444.78 337.71L469.82 305.3L494.87 337.71L531.7 310.45L507.39 279.15L543.49 267.36L528.75 225.37L493.03 237.16V202.17H446.25V237.16L410.89 225.37L396.16 267.36L431.89 279.15L407.58 310.45Z" fill="#FFC716"/>
<path d="M808.969 51.6H750.099H749.949V90.29H847.659V0H809.119V51.6H808.969Z" fill="#FFC716"/>
<path d="M657.981 51.5996H598.961V110.62H657.981V51.5996Z" fill="#FFC716"/>
<path d="M288.53 275.15H288.69H333.17V205.61H219V319.78H288.53V275.15Z" fill="#FFC716"/>
<path d="M958.28 17.7803H958.13H913.82L801.41 273.93H884.52L906.9 218.04H870.4L958.28 17.7803Z" fill="#FFC716"/>
<path d="M473.341 519.07C462.721 520.6 454.041 518.63 446.971 513.01C444.731 511.23 442.611 509.079 440.631 506.589C438.651 504.119 436.811 501.31 435.131 498.17C431.691 491.78 429.701 485.619 429.201 479.859C428.301 469.419 432.581 459.899 442.291 450.739C444.491 448.669 446.931 446.669 449.571 444.739C453.041 442.199 456.881 439.78 461.071 437.53C467.961 433.82 474.781 431.17 481.321 429.64C494.281 426.62 504.611 428.339 512.901 434.899C517.451 438.499 521.491 443.56 524.911 449.94C528.261 456.17 530.201 462.22 530.691 467.91C531.591 478.43 527.311 488.01 517.601 497.19C512.711 501.81 506.741 506.039 499.841 509.749C493.431 513.199 487.171 515.759 481.181 517.429L576.641 497.39C580.451 486.64 581.911 475.28 580.911 463.56C579.831 450.98 575.931 438.35 569.311 426.03C562.601 413.55 554.141 403.229 544.151 395.329C523.621 379.099 497.911 373.98 469.821 380.53C458.951 383.07 447.951 387.299 437.141 393.109C425.871 399.169 415.951 406.21 407.661 414.03C386.611 433.88 376.671 458.15 378.911 484.19C380.001 496.84 383.961 509.579 390.671 522.059C393.051 526.489 395.661 530.629 398.481 534.499L473.321 519.059L473.341 519.07Z" fill="#FFC716"/>
<path d="M398.77 534.89C398.91 535.07 399.05 535.25 399.18 535.44C399.04 535.26 398.9 535.08 398.77 534.89Z" fill="#FFC716"/>
<path d="M402.82 540C402.26 539.34 401.71 538.67 401.16 537.99C401.7 538.67 402.25 539.34 402.81 540H402.82Z" fill="#FFC716"/>
<path d="M169.912 478.22L162.272 473.63L104.082 439.08L171.812 401.77L171.732 401.73L103.922 439.08L34.6116 477.26C35.3116 477.96 34.5216 514.07 33.8516 540H73.6316L169.832 478.27L169.902 478.22H169.912Z" fill="#FFC716"/>
<path d="M899.082 334.56H901.112L926.582 416.23L897.322 490.3H897.332H949.682L926.592 416.23L901.122 334.56L893.892 311.39H807.422L850.002 447.95L899.082 334.56Z" fill="#FFC716"/>
<path d="M621.63 424L683.96 402.49L684.039 402.46L670.96 397.94C671.08 397.63 678.59 376.67 683.71 344C683.78 343.54 683.85 342.28 683.93 341.06C681.53 324.87 679.729 306.01 679.729 285.35C679.729 264.69 681.51 246.08 683.89 229.96C683.81 228.99 683.839 227.47 683.719 226.71C678.599 194.04 671.079 173.08 670.969 172.77L684.06 168.25L683.99 168.22L621.65 146.71C621.09 148.2 612.91 170.54 606.63 205.7C602.7 227.81 599.52 254.97 599.52 285.35C599.52 315.73 602.7 342.85 606.63 365C612.87 400.16 621.09 422.5 621.65 423.99L621.63 424Z" fill="#FFC716"/>
<path d="M126.53 211.15L0 184.17V239.17L111.85 279.98L126.53 211.15Z" fill="#FFC716"/>
<path d="M111.09 283.55L0 259.86V259.97L111.06 283.66L111.09 283.55Z" fill="#FFC716"/>
<path d="M322.449 165.09H402.719L413.599 144.72L383.089 146L380.559 85.91L446.489 83.14V83.13L472.109 35.16L452.739 0H379.669L401.359 33.8L322.449 165.09Z" fill="#FFC716"/>
<path d="M749.951 51.6H750.1V0H657.98V51.6H749.951Z" fill="#FFC716"/>
<path d="M333.171 319.78H288.691V275.15H288.531V319.78V349.04H362.421V275.15H333.321V319.78H333.171Z" fill="#FFC716"/>
<path d="M218.989 319.78H174.359V364.41H218.989V319.78Z" fill="#FFC716"/>
<path d="M203.989 30.5098C201.519 33.2898 199.789 36.5798 198.469 40.3598C199.779 36.5898 201.509 33.2898 203.979 30.5098H203.989Z" fill="#FFC716"/>
<path d="M166.122 126.42C165.152 127.32 164.152 128.22 163.102 129.11C164.142 128.22 165.152 127.32 166.122 126.42Z" fill="#FFC716"/>
<path d="M72.1428 136.31C71.8928 136.15 71.6428 136 71.3828 135.85C71.6328 136.01 71.8828 136.16 72.1428 136.31Z" fill="#FFC716"/>
<path d="M115.108 68.5699C109.418 72.8599 102.928 73.7399 95.6484 70.5799C102.938 73.7499 109.428 72.8599 115.108 68.5799C116.118 67.8199 117.008 66.9899 117.848 66.1299C117.008 66.9899 116.118 67.8099 115.108 68.5699Z" fill="#FFC716"/>
<path d="M239.231 33.9396C232.691 27.7796 226.661 24.4596 221.141 23.6396C226.661 24.4496 232.691 27.7796 239.231 33.9396Z" fill="#FFC716"/>
<path d="M304.881 17.58C302.331 12.94 298.311 7.55004 293.031 0.540039C298.311 7.54004 302.331 12.94 304.881 17.58Z" fill="#FFC716"/>
<path d="M207.442 27.3298C206.152 28.2998 205.012 29.3598 203.992 30.5098C205.012 29.3698 206.152 28.3098 207.442 27.3398V27.3298Z" fill="#FFC716"/>
<path d="M29.8016 95.7305C29.2216 94.9605 28.6616 94.2205 28.1016 93.4805C28.6616 94.2205 29.2216 94.9705 29.8016 95.7305Z" fill="#FFC716"/>
<path d="M22.3022 73.9502L17.2422 77.7702C19.1222 81.0602 21.4222 84.4202 24.0822 88.0702C21.4222 84.4202 19.1322 81.0602 17.2522 77.7702L22.3022 73.9602V73.9502Z" fill="#FFC716"/>
<path d="M292.66 26.79L294.32 25.54L292.66 26.79Z" fill="#FFC716"/>
<path d="M131.263 31.07V31.13L131.253 31.18C130.003 40.1 129.083 47.87 127.053 54.56L126.383 56.75C129.103 61.58 131.643 67.26 134.603 73.64C141.933 90.63 150.943 107.15 169.713 119.26L169.993 118.95C177.623 110.46 182.383 101.65 185.533 92.59C188.683 83.53 190.223 74.21 191.303 64.79V64.76V64.72C192.483 56.42 193.373 49.13 195.123 42.75V38.95C192.413 34.13 189.883 28.47 186.953 22.1C183.813 14.4 180.273 6.95 175.693 0H138.023C137.593 1.08 137.183 2.16 136.803 3.25C133.663 12.21 132.163 21.5 131.253 31.07H131.263Z" fill="#FFC716"/>
<path d="M958.278 17.7803L870.398 218.04H906.898H907.058L959.998 85.8403V17.7803H958.278Z" fill="#FCA700"/>
<path d="M576.692 497.43C576.692 497.43 576.702 497.4 576.712 497.38H576.682L481.222 517.42C480.472 517.63 479.722 517.83 478.982 518.01L476.602 518.51C475.492 518.73 474.422 518.91 473.352 519.06L398.512 534.5H398.492C398.492 534.5 398.512 534.53 398.522 534.54C398.602 534.66 398.692 534.77 398.782 534.88C398.922 535.06 399.062 535.24 399.192 535.43C399.842 536.29 400.502 537.14 401.172 537.98C401.712 538.66 402.262 539.33 402.832 539.99H545.122C547.612 537.98 550.002 535.92 552.272 533.78C563.842 522.86 572.032 510.59 576.702 497.42L576.692 497.43Z" fill="#FCA700"/>
<path d="M499.88 509.75C506.77 506.04 512.75 501.82 517.64 497.19C527.35 488.01 531.63 478.43 530.73 467.91C530.24 462.22 528.29 456.17 524.95 449.94C521.53 443.56 517.48 438.5 512.94 434.9C504.65 428.34 494.32 426.61 481.36 429.64C474.82 431.17 468 433.82 461.11 437.53C456.92 439.79 453.08 442.2 449.61 444.74C446.98 446.66 444.55 448.66 442.36 450.73C432.65 459.9 428.37 469.44 429.28 479.89C429.78 485.66 431.78 491.83 435.22 498.23C436.89 501.34 438.71 504.13 440.67 506.59C442.65 509.08 444.77 511.23 447.01 513.01C454.08 518.63 462.76 520.59 473.38 519.07C474.45 518.92 475.52 518.74 476.63 518.52L479.01 518.02C479.75 517.84 480.5 517.64 481.25 517.43C487.25 515.77 493.51 513.2 499.91 509.75H499.88Z" fill="#FCA700"/>
<path d="M667.049 513.28L670.169 526.54L688.99 522.24L678.159 476.28L659.28 480.24L659.27 480.25L667.049 513.28Z" fill="#FFC716"/>
<path d="M104.07 439.08L162.27 473.63L169.91 478.22L169.98 478.27L170.41 477.99L233.3 434.6L233.36 434.56L171.88 401.73L171.82 401.77H171.8L104.07 439.08Z" fill="#FCA700"/>
<path d="M863.21 490.3H897.32L926.58 416.23L901.11 334.56H899.08L850 447.95V447.96L863.2 490.3H863.21Z" fill="#FCA700"/>
<path d="M684.021 229.76C684.181 228.79 684.411 227.43 684.531 226.71C689.651 194.04 697.161 173.08 697.281 172.77L684.121 168.23L684.051 168.26L670.961 172.78C671.081 173.09 678.591 194.05 683.711 226.72C683.831 227.48 683.801 229 683.881 229.97C683.891 230.12 683.911 230.26 683.921 230.38C683.951 230.21 683.981 229.99 684.021 229.76Z" fill="#FCA700"/>
<path d="M697.269 397.95C697.149 397.64 689.639 376.68 684.519 344.01C684.419 343.35 684.309 341.07 684.209 339.59C684.179 339.1 684.139 338.7 684.109 338.47C684.049 338.89 683.979 339.96 683.919 341.07C683.849 342.29 683.779 343.55 683.699 344.01C678.579 376.68 671.059 397.64 670.949 397.95L684.029 402.47L684.109 402.5L697.269 397.96V397.95Z" fill="#FCA700"/>
<path d="M111.34 283.61L112.06 280.21L112.09 280.06L111.85 279.98L0 239.17V259.86L111.09 283.55L111.34 283.61Z" fill="#FCA700"/>
<path d="M446.492 83.1399L380.562 85.9099L383.092 146L413.603 144.72L413.763 144.71V144.7L446.643 83.1299L446.492 83.1399Z" fill="#FCA700"/>
<path d="M808.972 51.6H809.122V0H750.102V51.6H808.972Z" fill="#FCA700"/>
<path d="M288.688 319.78H333.168H333.318V275.15H333.168H288.688V319.78Z" fill="#FCA700"/>
<path d="M248.511 48.2902C246.161 45.1702 243.871 42.4102 241.651 39.9802C239.431 43.8602 237.101 47.1002 234.651 49.7302C231.581 53.0202 228.301 55.3702 224.831 56.7202C222.521 57.6202 220.121 58.0702 217.721 58.0602C215.161 58.0602 212.591 57.5602 210.061 56.6202C206.921 55.4702 204.201 53.8102 201.821 51.7402C200.761 50.8202 199.781 49.8102 198.841 48.7502C197.861 53.6002 197.141 59.1602 196.261 65.3902C195.161 74.9602 193.581 84.6502 190.251 94.2302C187.201 103 182.651 111.66 175.711 119.97C179.801 122.25 184.331 124.35 189.391 126.21C198.501 129.57 207.501 131.28 216.261 131.28C224.371 131.28 232.281 129.81 239.911 126.81C247.541 123.8 254.901 119.24 261.881 113.01C275.841 100.56 288.291 81.4002 298.101 54.8102C300.731 47.7002 302.901 41.7602 304.311 36.4202L290.711 31.4102L255.071 58.2802L253.561 56.2902C252.501 54.8802 251.661 53.4102 250.861 52.0402C250.071 50.6602 249.321 49.3802 248.501 48.3002L248.511 48.2902Z" fill="#FCA700"/>
<path d="M23.6909 40.28C20.8709 47.9 18.6909 53.87 17.4609 58.66L31.5409 63.85L66.4509 37.53L74.0509 47.61C76.1709 50.42 78.2309 52.93 80.2409 55.18C82.4309 51.45 84.7109 48.33 87.1209 45.79C90.1609 42.59 93.4009 40.3 96.8309 38.99C99.1109 38.11 101.481 37.68 103.851 37.68C106.401 37.68 108.971 38.18 111.491 39.11C114.851 40.35 117.731 42.17 120.221 44.45C121.411 45.54 122.511 46.73 123.551 48C124.621 42.96 125.371 37.12 126.291 30.52C127.221 20.77 128.761 11.08 132.091 1.59C132.281 1.06 132.471 0.53 132.671 0H44.4209C36.6509 10.77 29.6409 24.13 23.6909 40.28Z" fill="#FCA700"/>
<path d="M18.9894 38.54C15.7494 47.33 13.2794 54.01 12.0594 59.72L11.6094 61.84L29.5694 68.46L31.9394 66.67L65.9394 41.03L72.0394 49.12C75.0294 53.08 77.9194 56.5 80.7294 59.41C81.3494 60.05 81.9694 60.67 82.5794 61.26L82.9394 60.58C86.3194 54.17 89.8594 49.63 93.3694 46.78C95.1294 45.35 96.8694 44.33 98.5994 43.67C100.329 43.01 102.059 42.69 103.829 42.69C105.729 42.69 107.689 43.06 109.739 43.81C112.479 44.82 114.759 46.26 116.839 48.15C118.909 50.04 120.759 52.38 122.529 55.17L123.589 56.85C123.969 55.88 124.319 54.89 124.639 53.84C125.229 54.77 125.799 55.75 126.359 56.75L127.029 54.56C129.059 47.87 129.979 40.1 131.229 31.18V31.13L131.239 31.07C132.149 21.5 133.639 12.21 136.789 3.25C137.169 2.16 137.579 1.08 138.009 0H132.649C132.449 0.53 132.259 1.06 132.069 1.59C128.739 11.09 127.199 20.77 126.269 30.52C125.349 37.12 124.599 42.96 123.529 48C122.489 46.73 121.389 45.53 120.199 44.45C117.709 42.17 114.819 40.35 111.469 39.11C108.949 38.18 106.379 37.68 103.829 37.68C101.459 37.68 99.0994 38.11 96.8094 38.99C93.3794 40.3 90.1394 42.59 87.0994 45.79C84.6894 48.33 82.4094 51.46 80.2194 55.18C78.2094 52.93 76.1494 50.42 74.0294 47.61L66.4294 37.53L31.5194 63.85L17.4394 58.66C18.6694 53.87 20.8594 47.9 23.6694 40.28C29.6394 24.13 36.6494 10.77 44.4194 0H38.3094C31.0594 10.65 24.5694 23.46 18.9994 38.54H18.9894Z" fill="#FFC716"/>
<path d="M290.289 28.5796L255.559 54.7696C253.679 52.2796 252.379 49.2696 250.499 46.7796C247.259 42.4896 244.129 38.8296 241.099 35.7596C240.469 35.1196 239.849 34.5196 239.229 33.9396L238.879 34.6196C235.459 41.2396 231.879 45.9196 228.319 48.8596C226.539 50.3296 224.769 51.3796 223.019 52.0596C221.259 52.7396 219.509 53.0596 217.719 53.0696C215.809 53.0696 213.839 52.6996 211.789 51.9396C209.229 50.9896 207.059 49.6796 205.099 47.9796C203.299 46.4196 201.679 44.5196 200.129 42.2896V42.0596L198.479 40.3696C198.179 41.2396 197.889 42.1396 197.629 43.0696C196.769 41.7796 195.939 40.4096 195.129 38.9596V42.7596C193.379 49.1396 192.489 56.4296 191.309 64.7296V64.7696V64.7996C190.229 74.2196 188.689 83.5396 185.539 92.5996C182.379 101.66 177.619 110.47 169.999 118.96L169.719 119.27C170.419 119.72 171.129 120.17 171.849 120.61V120.63C171.299 121.26 170.719 121.88 170.119 122.5L170.559 122.77C175.579 125.81 181.249 128.55 187.669 130.91C197.269 134.45 206.859 136.29 216.269 136.29C224.989 136.29 233.539 134.71 241.759 131.47C254.089 126.61 265.619 118.03 275.919 105.61C286.219 93.1796 295.299 76.9096 302.809 56.5496C305.789 48.4796 308.259 41.7796 309.729 35.4196L310.219 33.2696L292.679 26.8096L290.309 28.5996L290.289 28.5796ZM255.069 58.2696L290.709 31.3996L304.309 36.4096C302.899 41.7596 300.729 47.6896 298.099 54.7996C288.299 81.3896 275.839 100.55 261.879 113C254.899 119.23 247.539 123.79 239.909 126.8C232.279 129.81 224.369 131.27 216.259 131.27C207.499 131.27 198.499 129.56 189.389 126.2C184.329 124.34 179.799 122.24 175.709 119.96C182.649 111.66 187.199 102.99 190.249 94.2196C193.579 84.6396 195.159 74.9496 196.259 65.3796C197.139 59.1496 197.859 53.5896 198.839 48.7396C199.779 49.8096 200.759 50.8096 201.819 51.7296C204.199 53.7896 206.919 55.4496 210.059 56.6096C212.589 57.5496 215.159 58.0496 217.719 58.0496C220.129 58.0496 222.519 57.5996 224.829 56.7096C228.299 55.3596 231.579 53.0096 234.649 49.7196C237.099 47.0896 239.419 43.8396 241.649 39.9696C243.869 42.3996 246.149 45.1696 248.509 48.2796C249.329 49.3596 250.079 50.6396 250.869 52.0196C251.669 53.3896 252.509 54.8596 253.569 56.2696L255.079 58.2596L255.069 58.2696Z" fill="#FFC716"/>
<path d="M171.838 120.62V120.6C171.098 120.16 170.398 119.71 169.698 119.26C150.928 107.15 141.918 90.62 134.588 73.64C131.628 67.27 129.088 61.58 126.368 56.75C125.798 55.75 125.228 54.77 124.648 53.84C124.328 54.88 123.978 55.87 123.598 56.85C122.218 60.41 120.388 63.51 117.848 66.13C117.008 66.99 116.118 67.82 115.108 68.58C109.418 72.87 102.928 73.75 95.6478 70.58C91.5478 68.8 87.1978 65.73 82.5878 61.27C81.9778 60.68 81.3578 60.06 80.7378 59.42C77.9278 56.51 75.0378 53.09 72.0478 49.13L65.9478 41.04L31.9478 66.68L29.5778 68.47L22.3078 73.96L17.2578 77.77C19.1378 81.06 21.4378 84.42 24.0878 88.07C25.3478 89.8 26.6878 91.6 28.1078 93.48C28.6678 94.22 29.2278 94.97 29.8078 95.73C43.4078 113.76 57.3078 126.93 71.1378 135.68C71.2178 135.73 71.3078 135.79 71.3878 135.84C71.6378 136 71.8878 136.15 72.1478 136.3C102.498 155.02 132.448 152.47 158.008 133.2C159.798 131.84 161.498 130.47 163.108 129.09C164.148 128.2 165.158 127.3 166.128 126.4C167.528 125.1 168.858 123.79 170.108 122.47C170.698 121.85 171.278 121.22 171.848 120.6L171.838 120.62Z" fill="#FFC716"/>
<path d="M186.947 22.1C189.877 28.47 192.407 34.14 195.117 38.95C195.927 40.39 196.757 41.77 197.617 43.06C197.877 42.13 198.167 41.23 198.467 40.36C199.777 36.58 201.508 33.29 203.988 30.51C205.008 29.37 206.148 28.31 207.438 27.33C208.658 26.41 209.917 25.65 211.217 25.05C214.307 23.62 217.617 23.12 221.137 23.64C226.657 24.45 232.687 27.77 239.227 33.94C239.847 34.52 240.468 35.13 241.098 35.76C244.128 38.83 247.257 42.49 250.497 46.78C252.377 49.27 253.677 52.28 255.557 54.77L290.288 28.58L292.658 26.79L294.318 25.54L304.878 17.58C302.328 12.94 298.307 7.54 293.027 0.54C292.887 0.36 292.757 0.19 292.617 0H175.688C180.267 6.95 183.797 14.4 186.947 22.1Z" fill="#FFC716"/>
</g>
<defs>
<clipPath id="clip0_287_66534">
<rect width="960" height="540" fill="white"/>
</clipPath>
</defs>
</svg>
