<svg width="960" height="540" viewBox="0 0 960 540" fill="none" xmlns="http://www.w3.org/2000/svg">
<g clip-path="url(#clip0_287_66049)">
<path d="M200.13 42.0298V42.2798C201.67 44.4998 203.3 46.4098 205.1 47.9698C207.06 49.6698 209.22 50.9798 211.79 51.9298C213.84 52.6898 215.81 53.0598 217.72 53.0598C219.51 53.0598 221.26 52.7398 223.02 52.0498C224.78 51.3698 226.54 50.3198 228.32 48.8498C231.88 45.9098 235.46 41.2298 238.88 34.6098L239.23 33.9398C232.69 27.7798 226.66 24.4498 221.14 23.6398C217.6 23.1198 214.28 23.6298 211.17 25.0798C211.11 25.1098 211.04 25.1398 210.98 25.1698C210.97 25.1698 210.96 25.1798 210.94 25.1898C209.74 25.7698 208.58 26.4898 207.45 27.3398C206.16 28.3098 205.02 29.3698 204 30.5098C201.52 33.2998 199.79 36.5898 198.48 40.3798L200.14 42.0398L200.13 42.0298Z" fill="#EFFFD6"/>
<path d="M611.199 540H673.329L670.159 526.54L611.199 540Z" fill="#EFFFD6"/>
<path d="M115.11 68.5704C116.14 67.8004 117.05 66.9604 117.9 66.0804C120.42 63.4704 122.23 60.3904 123.6 56.8504L122.54 55.1704C120.77 52.3804 118.92 50.0304 116.85 48.1504C114.78 46.2604 112.5 44.8204 109.75 43.8104C107.71 43.0604 105.74 42.6904 103.84 42.6904C102.07 42.6904 100.34 43.0104 98.6098 43.6704C96.8798 44.3304 95.1298 45.3504 93.3798 46.7804C89.8698 49.6404 86.3298 54.1704 82.9498 60.5804L82.5898 61.2604C86.9998 65.5404 91.1798 68.5404 95.1298 70.3504C102.63 73.7804 109.29 72.9504 115.11 68.5604V68.5704Z" fill="#EFFFD6"/>
<path d="M429.261 479.88C428.361 469.43 432.641 459.89 442.341 450.72C444.511 448.67 446.931 446.68 449.541 444.77C446.911 446.69 444.491 448.68 442.301 450.74C432.591 459.9 428.311 469.42 429.211 479.86C429.711 485.62 431.701 491.78 435.141 498.17C436.831 501.31 438.671 504.12 440.641 506.59C438.691 504.13 436.871 501.34 435.191 498.23C431.751 491.82 429.751 485.65 429.251 479.89L429.261 479.88Z" fill="#EFFFD6"/>
<path d="M684.211 339.59C686.501 323.73 688.201 305.4 688.201 285.36C688.201 265.32 686.411 245.93 684.011 229.76C683.971 229.99 683.941 230.21 683.911 230.38C683.891 230.26 683.881 230.12 683.871 229.97C681.491 246.09 679.711 264.84 679.711 285.36C679.711 305.88 681.511 324.87 683.911 341.07C683.971 339.97 684.041 338.9 684.101 338.47C684.131 338.69 684.171 339.09 684.201 339.59H684.211Z" fill="#EFFFD6"/>
<path d="M0 184.17L126.53 211.16L111.85 279.98L112.09 280.07L112.06 280.21L127.59 285.87L102.06 355.85L0 318.62V540H33.85C34.52 514.07 35.31 477.96 34.61 477.26L103.92 439.08L96.19 434.49L163.58 397.37L171.81 401.77L171.87 401.73L233.35 434.56L233.29 434.6L303.62 472.16V540H372.32L398.5 534.55C398.5 534.55 398.48 534.52 398.47 534.51H398.49C395.67 530.63 393.06 526.49 390.68 522.06C383.97 509.58 380.01 496.84 378.92 484.19C376.67 458.14 386.62 433.88 407.67 414.03C415.97 406.21 425.89 399.17 437.15 393.11C447.96 387.3 458.96 383.07 469.83 380.53C497.93 373.98 523.63 379.1 544.16 395.33C554.15 403.23 562.61 413.55 569.32 426.03C575.94 438.35 579.85 450.98 580.92 463.56C581.92 475.28 580.46 486.64 576.65 497.39H576.68C576.68 497.39 576.67 497.42 576.66 497.43L659.25 480.23L651.81 448.58L716.33 490.64L688.36 540.01H810.13L849.97 447.97V447.96L807.39 311.4H893.86L901.09 334.57H958.81L926.55 416.24L949.65 490.31H897.29L877.66 540.01H959.97V201.44L953.32 218.04H907.03H906.88L884.5 273.93H801.39L913.82 17.78H958.12L959.99 13.51V0H847.65V90.29H749.94V51.6H657.98V110.62H598.96V51.6H657.98V0H452.74L472.11 35.16L446.49 83.13L541.18 79.15L543.71 139.24L413.76 144.71L413.6 144.72L402.72 165.1H322.45L401.36 33.81L379.67 0H292.62C292.76 0.18 292.89 0.36 293.03 0.54C298.31 7.55 302.34 12.93 304.88 17.58L294.21 25.63L292.67 26.79L310.21 33.25L309.72 35.39C308.25 41.75 305.78 48.45 302.8 56.52C295.29 76.88 286.21 93.15 275.91 105.58C265.61 118 254.08 126.58 241.75 131.44C233.54 134.68 224.98 136.26 216.26 136.26C206.85 136.26 197.26 134.42 187.66 130.88C181.24 128.52 175.57 125.78 170.55 122.74L170.11 122.47C168.87 123.77 167.57 125.05 166.19 126.33C165.17 127.28 164.11 128.23 163 129.17C161.42 130.52 159.76 131.86 158 133.19C132.31 152.56 102.17 155.04 71.65 135.99C71.56 135.93 71.47 135.88 71.38 135.83C71.02 135.61 70.67 135.37 70.31 135.14C69.97 134.92 69.63 134.71 69.29 134.49C69.19 134.42 69.08 134.35 68.98 134.28C55.86 125.55 42.69 112.83 29.8 95.73C29.22 94.97 28.66 94.22 28.11 93.49C26.67 91.57 25.31 89.75 24.03 88C21.39 84.38 19.11 81.04 17.24 77.77L22.35 73.92L29.58 68.47L11.62 61.85L12.07 59.73C13.29 54.03 15.76 47.34 19 38.55C24.56 23.46 31.05 10.65 38.3 0H0V184.17ZM606.61 205.71C612.89 170.55 621.07 148.21 621.63 146.72L683.97 168.23L746.3 146.72C746.86 148.21 755.08 170.55 761.32 205.71C765.25 227.86 768.43 254.98 768.43 285.36C768.43 315.74 765.25 342.89 761.32 365.01C755.04 400.17 746.86 422.51 746.3 424L683.97 402.49L621.64 424C621.08 422.51 612.86 400.17 606.62 365.01C602.69 342.86 599.51 315.74 599.51 285.36C599.51 254.98 602.69 227.82 606.62 205.71H606.61ZM410.89 225.37L446.25 237.16V202.17H493.03V237.16L528.76 225.37L543.49 267.36L507.39 279.15L531.7 310.46L494.87 337.72L469.83 305.31L444.78 337.72L407.58 310.46L431.89 279.15L396.16 267.36L410.89 225.37ZM174.36 319.78H218.99V205.61H333.16V275.15H362.42V349.04H288.53V319.78H218.99V364.41H174.36V319.78Z" fill="#EFFFD6"/>
<path d="M73.6328 540H272.543L169.833 478.27L73.6328 540Z" fill="#EFFFD6"/>
<path d="M953.352 218.04L960.003 201.44V85.8398L907.062 218.04H953.352Z" fill="#D3F1A7"/>
<path d="M958.283 17.7798H960.003V13.5098L958.133 17.7798H958.283Z" fill="#D3F1A7"/>
<path d="M399.178 535.43C399.038 535.25 398.898 535.07 398.768 534.89C398.678 534.77 398.598 534.66 398.508 534.55L372.328 540H402.808C402.248 539.34 401.698 538.67 401.158 537.99C400.478 537.15 399.818 536.3 399.168 535.43H399.178Z" fill="#D3F1A7"/>
<path d="M667.077 513.41L659.267 480.25H659.287V480.23L576.697 497.43C572.027 510.6 563.837 522.86 552.267 533.79C549.997 535.93 547.607 538 545.117 540H611.207L670.177 526.54L667.087 513.41H667.077Z" fill="#D3F1A7"/>
<path d="M651.84 448.58L659.28 480.23V480.24L678.16 476.28L688.99 522.24L670.17 526.54L667.08 513.41L670.16 526.54L673.33 540H688.39L716.37 490.63L651.84 448.58Z" fill="#D3F1A7"/>
<path d="M171.798 401.77H171.818L163.577 397.37L96.1875 434.49L103.917 439.08L171.727 401.73L171.798 401.77Z" fill="#D3F1A7"/>
<path d="M233.298 434.6L170.408 477.99L169.978 478.27L169.908 478.22L169.828 478.27L272.538 540H303.628V472.16L233.298 434.6Z" fill="#D3F1A7"/>
<path d="M958.837 334.56H901.117L926.587 416.23L958.837 334.56Z" fill="#D3F1A7"/>
<path d="M897.32 490.3H863.21H863.2L850 447.96L810.16 540H877.69L897.33 490.3H897.32Z" fill="#D3F1A7"/>
<path d="M684.109 168.24L697.269 172.78C697.149 173.09 689.639 194.05 684.519 226.72C684.409 227.43 684.169 228.79 684.009 229.77C686.409 245.94 688.199 264.76 688.199 285.37C688.199 305.98 686.509 323.74 684.209 339.6C684.309 341.08 684.409 343.36 684.519 344.02C689.639 376.69 697.149 397.65 697.269 397.96L684.109 402.5L684.029 402.47L683.949 402.5L746.279 424.01C746.839 422.52 755.019 400.18 761.299 365.02C765.229 342.91 768.409 315.75 768.409 285.37C768.409 254.99 765.229 227.87 761.299 205.72C755.059 170.56 746.839 148.22 746.279 146.73L683.949 168.24L684.019 168.27L684.089 168.24H684.109Z" fill="#D3F1A7"/>
<path d="M127.59 285.87L112.06 280.21L111.34 283.61L111.09 283.55L111.06 283.66L0 259.97V318.62L102.06 355.85L127.59 285.87Z" fill="#D3F1A7"/>
<path d="M446.638 83.1304L413.758 144.7L543.708 139.24L541.178 79.1504L446.488 83.1304V83.1404L446.638 83.1304Z" fill="#D3F1A7"/>
<path d="M407.58 310.45L444.78 337.71L469.82 305.3L494.87 337.71L531.7 310.45L507.39 279.15L543.49 267.36L528.75 225.37L493.03 237.16V202.17H446.25V237.16L410.89 225.37L396.16 267.36L431.89 279.15L407.58 310.45Z" fill="#D3F1A7"/>
<path d="M808.969 51.6H750.099H749.949V90.29H847.659V0H809.119V51.6H808.969Z" fill="#D3F1A7"/>
<path d="M657.981 51.5996H598.961V110.62H657.981V51.5996Z" fill="#D3F1A7"/>
<path d="M288.53 275.15H288.69H333.17V205.61H219V319.78H288.53V275.15Z" fill="#D3F1A7"/>
<path d="M958.28 17.7803H958.13H913.82L801.41 273.93H884.52L906.9 218.04H870.4L958.28 17.7803Z" fill="#D3F1A7"/>
<path d="M473.339 519.07C462.719 520.6 454.039 518.63 446.969 513.01C444.729 511.23 442.609 509.08 440.629 506.59C438.649 504.12 436.819 501.31 435.129 498.17C431.689 491.78 429.699 485.62 429.199 479.86C428.299 469.42 432.579 459.9 442.289 450.74C444.469 448.68 446.899 446.69 449.529 444.77C453.019 442.22 456.869 439.79 461.079 437.52C467.969 433.81 474.789 431.16 481.329 429.63C494.289 426.61 504.619 428.33 512.909 434.89C517.459 438.49 521.499 443.55 524.919 449.93C528.269 456.16 530.209 462.21 530.699 467.9C531.599 478.42 527.319 488 517.609 497.18C512.719 501.8 506.749 506.03 499.849 509.74C493.439 513.19 487.179 515.75 481.189 517.42L576.649 497.38C580.459 486.63 581.919 475.27 580.919 463.55C579.839 450.97 575.939 438.34 569.319 426.02C562.609 413.54 554.149 403.22 544.159 395.32C523.629 379.09 497.919 373.97 469.829 380.52C458.959 383.06 447.959 387.29 437.149 393.1C425.879 399.16 415.959 406.2 407.669 414.02C386.619 433.87 376.679 458.14 378.919 484.18C380.009 496.83 383.969 509.57 390.679 522.05C393.059 526.48 395.669 530.62 398.489 534.49L473.329 519.05L473.339 519.07Z" fill="#D3F1A7"/>
<path d="M169.912 478.22L162.272 473.63L104.082 439.08L171.812 401.77L171.732 401.73L103.922 439.08L34.6116 477.26C35.3116 477.96 34.5216 514.07 33.8516 540H73.6316L169.832 478.27L169.902 478.22H169.912Z" fill="#D3F1A7"/>
<path d="M899.082 334.56H901.112L926.582 416.23L897.322 490.3H897.332H949.682L926.592 416.23L901.122 334.56L893.892 311.39H807.422L850.002 447.95L899.082 334.56Z" fill="#D3F1A7"/>
<path d="M621.63 424L683.96 402.49L684.039 402.46L670.96 397.94C671.08 397.63 678.59 376.67 683.71 344C683.78 343.54 683.85 342.28 683.93 341.06C681.53 324.87 679.729 306.01 679.729 285.35C679.729 264.69 681.51 246.08 683.89 229.96C683.81 228.99 683.839 227.47 683.719 226.71C678.599 194.04 671.079 173.08 670.969 172.77L684.06 168.25L683.99 168.22L621.65 146.71C621.09 148.2 612.91 170.54 606.63 205.7C602.7 227.81 599.52 254.97 599.52 285.35C599.52 315.73 602.7 342.85 606.63 365C612.87 400.16 621.09 422.5 621.65 423.99L621.63 424Z" fill="#D3F1A7"/>
<path d="M126.53 211.15L0 184.17V239.17L111.85 279.98L126.53 211.15Z" fill="#D3F1A7"/>
<path d="M111.09 283.55L0 259.86V259.97L111.06 283.66L111.09 283.55Z" fill="#D3F1A7"/>
<path d="M322.449 165.09H402.719L413.599 144.72L383.089 146L380.559 85.91L446.489 83.14V83.13L472.109 35.16L452.739 0H379.669L401.359 33.8L322.449 165.09Z" fill="#D3F1A7"/>
<path d="M749.951 51.6H750.1V0H657.98V51.6H749.951Z" fill="#D3F1A7"/>
<path d="M333.171 319.78H288.691V275.15H288.531V319.78V349.04H362.421V275.15H333.321V319.78H333.171Z" fill="#D3F1A7"/>
<path d="M218.989 319.78H174.359V364.41H218.989V319.78Z" fill="#D3F1A7"/>
<path d="M207.442 27.3297C208.572 26.4797 209.742 25.7597 210.932 25.1797C209.732 25.7597 208.572 26.4697 207.442 27.3297C206.152 28.2997 205.012 29.3597 203.992 30.5097C205.012 29.3697 206.152 28.3097 207.442 27.3397V27.3297Z" fill="#D3F1A7"/>
<path d="M239.231 33.9396C232.691 27.7796 226.661 24.4596 221.141 23.6396C226.661 24.4496 232.691 27.7796 239.231 33.9396Z" fill="#D3F1A7"/>
<path d="M115.113 68.5701C109.293 72.9601 102.633 73.7901 95.1328 70.3601C102.633 73.8001 109.293 72.9701 115.113 68.5801C116.133 67.8001 117.053 66.9601 117.903 66.0801C117.053 66.9601 116.143 67.8001 115.113 68.5701Z" fill="#D3F1A7"/>
<path d="M71.6528 136.01C71.5628 135.95 71.4728 135.9 71.3828 135.85C71.4728 135.91 71.5628 135.96 71.6528 136.01Z" fill="#D3F1A7"/>
<path d="M22.3522 73.9102L17.2422 77.7602C19.1122 81.0302 21.3922 84.3702 24.0322 87.9902C21.4022 84.3702 19.1222 81.0202 17.2522 77.7602L22.3522 73.9102Z" fill="#D3F1A7"/>
<path d="M70.3091 135.15C69.9691 134.93 69.6291 134.72 69.2891 134.5C69.6291 134.72 69.9691 134.94 70.3091 135.15Z" fill="#D3F1A7"/>
<path d="M29.7994 95.7302C29.2194 94.9702 28.6594 94.2202 28.1094 93.4902C28.6594 94.2302 29.2194 94.9702 29.7994 95.7302C42.6994 112.83 55.8594 125.56 68.9794 134.28C55.8594 125.55 42.6894 112.83 29.7994 95.7202V95.7302Z" fill="#D3F1A7"/>
<path d="M203.989 30.5098C201.509 33.2898 199.779 36.5898 198.469 40.3798C199.779 36.5998 201.509 33.2998 203.989 30.5098Z" fill="#D3F1A7"/>
<path d="M304.881 17.58C302.331 12.94 298.311 7.55004 293.031 0.540039C298.311 7.54004 302.331 12.94 304.881 17.58Z" fill="#D3F1A7"/>
<path d="M292.66 26.7899L294.21 25.6299L292.66 26.7899Z" fill="#D3F1A7"/>
<path d="M166.19 126.35C165.17 127.3 164.11 128.25 163 129.19C164.1 128.25 165.16 127.31 166.19 126.35Z" fill="#D3F1A7"/>
<path d="M131.263 31.0698V31.1198L131.253 31.1798C130.003 40.0998 129.083 47.8698 127.053 54.5598L126.383 56.7498C129.103 61.5798 131.643 67.2598 134.603 73.6398C141.933 90.6298 150.943 107.15 169.713 119.26L169.993 118.95C177.623 110.46 182.373 101.65 185.533 92.5898C188.683 83.5298 190.223 74.2098 191.303 64.7898V64.7598V64.7298C192.483 56.4298 193.373 49.1398 195.123 42.7598V38.9598C192.413 34.1398 189.883 28.4798 186.953 22.1098C183.813 14.4098 180.273 6.95977 175.693 0.00976562H138.023C137.593 1.08977 137.183 2.16977 136.803 3.25977C133.663 12.2198 132.163 21.5098 131.253 31.0798L131.263 31.0698Z" fill="#D3F1A7"/>
<path d="M958.278 17.7803L870.398 218.04H906.898H907.058L959.998 85.8403V17.7803H958.278Z" fill="#EFFFD6"/>
<path d="M576.692 497.43C576.692 497.43 576.702 497.4 576.712 497.38H576.682L481.222 517.42C480.472 517.63 479.722 517.83 478.982 518.01L476.602 518.51C475.492 518.73 474.422 518.91 473.352 519.06L398.512 534.5H398.492C398.492 534.5 398.512 534.53 398.522 534.54C398.602 534.66 398.692 534.77 398.782 534.88C398.912 535.06 399.052 535.24 399.192 535.42C399.842 536.28 400.502 537.14 401.182 537.98C401.722 538.66 402.272 539.33 402.832 539.99H545.122C547.612 537.98 550.002 535.92 552.272 533.78C563.842 522.86 572.032 510.59 576.702 497.42L576.692 497.43Z" fill="#EFFFD6"/>
<path d="M499.88 509.75C506.77 506.04 512.75 501.82 517.64 497.19C527.35 488.01 531.63 478.43 530.73 467.91C530.24 462.22 528.29 456.17 524.95 449.94C521.53 443.56 517.48 438.5 512.94 434.9C504.65 428.34 494.32 426.61 481.36 429.64C474.82 431.17 468 433.82 461.11 437.53C456.9 439.8 453.05 442.22 449.56 444.78C446.95 446.69 444.53 448.68 442.36 450.73C432.65 459.9 428.37 469.44 429.28 479.89C429.78 485.66 431.78 491.83 435.22 498.23C436.89 501.34 438.71 504.13 440.67 506.59C442.65 509.08 444.77 511.23 447.01 513.01C454.08 518.63 462.76 520.59 473.38 519.07C474.45 518.92 475.52 518.74 476.63 518.52L479.01 518.02C479.75 517.84 480.5 517.64 481.25 517.43C487.25 515.77 493.51 513.2 499.91 509.75H499.88Z" fill="#EFFFD6"/>
<path d="M667.08 513.41L670.169 526.54L688.99 522.24L678.159 476.28L659.28 480.24L659.27 480.25L667.08 513.41Z" fill="#D3F1A7"/>
<path d="M104.07 439.08L162.27 473.63L169.91 478.22L169.98 478.27L170.41 477.99L233.3 434.6L233.36 434.56L171.88 401.73L171.82 401.77H171.8L104.07 439.08Z" fill="#EFFFD6"/>
<path d="M863.21 490.3H897.32L926.58 416.23L901.11 334.56H899.08L850 447.95V447.96L863.2 490.3H863.21Z" fill="#EFFFD6"/>
<path d="M684.021 229.76C684.181 228.79 684.411 227.43 684.531 226.71C689.651 194.04 697.161 173.08 697.281 172.77L684.121 168.23L684.051 168.26L670.961 172.78C671.081 173.09 678.591 194.05 683.711 226.72C683.831 227.48 683.801 229 683.881 229.97C683.891 230.12 683.911 230.26 683.921 230.38C683.951 230.21 683.981 229.99 684.021 229.76Z" fill="#EFFFD6"/>
<path d="M697.269 397.95C697.149 397.64 689.639 376.68 684.519 344.01C684.419 343.35 684.309 341.07 684.209 339.59C684.179 339.1 684.139 338.7 684.109 338.47C684.049 338.89 683.979 339.96 683.919 341.07C683.849 342.29 683.779 343.55 683.699 344.01C678.579 376.68 671.059 397.64 670.949 397.95L684.029 402.47L684.109 402.5L697.269 397.96V397.95Z" fill="#EFFFD6"/>
<path d="M111.34 283.61L112.06 280.21L112.09 280.06L111.85 279.98L0 239.17V259.86L111.09 283.55L111.34 283.61Z" fill="#EFFFD6"/>
<path d="M446.492 83.1399L380.562 85.9099L383.092 146L413.603 144.72L413.763 144.71V144.7L446.643 83.1299L446.492 83.1399Z" fill="#EFFFD6"/>
<path d="M808.972 51.6H809.122V0H750.102V51.6H808.972Z" fill="#EFFFD6"/>
<path d="M288.688 319.78H333.168H333.318V275.15H333.168H288.688V319.78Z" fill="#EFFFD6"/>
<path d="M21.3409 39.4102L23.6909 40.2802C20.8709 47.9002 18.6909 53.8702 17.4609 58.6602L31.5409 63.8502L66.4509 37.5302L74.0509 47.6102C76.1709 50.4202 78.2309 52.9302 80.2409 55.1802C82.4309 51.4502 84.7109 48.3302 87.1209 45.7902C90.1609 42.5902 93.4009 40.3002 96.8309 38.9902C99.1109 38.1102 101.481 37.6802 103.851 37.6802C106.401 37.6802 108.971 38.1802 111.491 39.1102C114.851 40.3502 117.731 42.1702 120.221 44.4502C121.411 45.5402 122.511 46.7302 123.551 48.0002C124.621 42.9602 125.371 37.1202 126.291 30.5202C127.221 20.7702 128.761 11.0802 132.091 1.58023C132.281 1.05023 132.471 0.520234 132.671 -0.00976562H44.4209C36.6509 10.7602 29.6409 24.1202 23.6909 40.2702L21.3409 39.4002V39.4102Z" fill="#EFFFD6"/>
<path d="M248.511 48.2904C246.161 45.1704 243.871 42.4104 241.651 39.9804C239.431 43.8604 237.101 47.1004 234.651 49.7304C231.581 53.0204 228.301 55.3704 224.831 56.7204C222.521 57.6204 220.121 58.0704 217.721 58.0604C215.161 58.0604 212.591 57.5604 210.061 56.6204C206.921 55.4704 204.201 53.8104 201.821 51.7404C200.761 50.8204 199.781 49.8104 198.841 48.7504C197.861 53.6004 197.141 59.1604 196.261 65.3904C195.161 74.9504 193.581 84.6404 190.251 94.2204C187.201 102.99 182.651 111.65 175.711 119.96C179.801 122.24 184.331 124.34 189.391 126.2C198.501 129.56 207.501 131.27 216.261 131.27C224.371 131.27 232.281 129.8 239.911 126.8C247.541 123.79 254.901 119.23 261.881 113C275.841 100.55 288.291 81.3904 298.101 54.8004C300.731 47.6904 302.901 41.7504 304.311 36.4104L290.711 31.4004L255.071 58.2704L253.561 56.2804C252.501 54.8704 251.661 53.4004 250.861 52.0304C250.071 50.6504 249.321 49.3704 248.501 48.2904H248.511Z" fill="#EFFFD6"/>
<path d="M18.9894 38.54C15.7494 47.33 13.2794 54.01 12.0594 59.72L11.6094 61.84L29.5694 68.46L31.9394 66.67L65.9394 41.03L72.0394 49.12C75.0294 53.08 77.9194 56.5 80.7294 59.41C81.3494 60.05 81.9694 60.67 82.5794 61.26L82.9394 60.58C86.3194 54.17 89.8594 49.63 93.3694 46.78C95.1294 45.35 96.8694 44.33 98.5994 43.67C100.329 43.01 102.059 42.69 103.829 42.69C105.729 42.69 107.689 43.06 109.739 43.81C112.479 44.82 114.759 46.26 116.839 48.15C118.909 50.04 120.759 52.38 122.529 55.17L123.589 56.85C123.969 55.88 124.319 54.89 124.639 53.84C125.229 54.77 125.799 55.75 126.359 56.75L127.029 54.56C129.059 47.87 129.979 40.1 131.229 31.18V31.12L131.239 31.07C132.149 21.5 133.639 12.21 136.789 3.25C137.169 2.16 137.579 1.08 138.009 0H132.649C132.449 0.53 132.259 1.06 132.069 1.59C128.739 11.09 127.199 20.78 126.269 30.53C125.349 37.13 124.599 42.97 123.529 48.01C122.489 46.74 121.389 45.54 120.199 44.46C117.709 42.18 114.819 40.36 111.469 39.12C108.949 38.19 106.379 37.69 103.829 37.69C101.459 37.69 99.0994 38.12 96.8094 39C93.3794 40.31 90.1394 42.6 87.0994 45.8C84.6894 48.34 82.4094 51.47 80.2194 55.19C78.2094 52.94 76.1494 50.43 74.0294 47.62L66.4294 37.54L31.5194 63.86L17.4394 58.67C18.6694 53.88 20.8594 47.91 23.6694 40.29C29.6394 24.13 36.6494 10.77 44.4194 0H38.3094C31.0594 10.65 24.5694 23.46 18.9994 38.54H18.9894Z" fill="#D3F1A7"/>
<path d="M290.291 28.5798L255.561 54.7698C253.681 52.2798 252.381 49.2698 250.501 46.7798C247.261 42.4898 244.131 38.8298 241.101 35.7598C240.471 35.1198 239.851 34.5198 239.231 33.9398L238.881 34.6198C235.461 41.2398 231.881 45.9198 228.321 48.8598C226.541 50.3298 224.771 51.3798 223.021 52.0598C221.261 52.7398 219.511 53.0598 217.721 53.0698C215.811 53.0698 213.841 52.6998 211.791 51.9398C209.221 50.9898 207.061 49.6798 205.101 47.9798C203.301 46.4198 201.681 44.5198 200.131 42.2898V42.0398L198.471 40.3798C198.171 41.2498 197.881 42.1398 197.621 43.0598C196.761 41.7698 195.931 40.3998 195.121 38.9498V42.7498C193.371 49.1298 192.481 56.4198 191.301 64.7198V64.7498V64.7798C190.211 74.1998 188.681 83.5198 185.531 92.5798C182.371 101.64 177.611 110.45 169.991 118.94L169.711 119.25C170.411 119.7 171.121 120.15 171.841 120.59V120.61C171.291 121.24 170.711 121.86 170.111 122.48L170.551 122.75C175.571 125.79 181.241 128.53 187.661 130.89C197.261 134.43 206.851 136.27 216.261 136.27C224.981 136.27 233.531 134.69 241.751 131.45C254.081 126.59 265.611 118.01 275.911 105.59C286.211 93.1598 295.291 76.8898 302.801 56.5298C305.781 48.4598 308.251 41.7598 309.721 35.3998L310.211 33.2598L292.671 26.7998L290.301 28.5898L290.291 28.5798ZM255.071 58.2698L290.711 31.3998L304.311 36.4098C302.901 41.7598 300.731 47.6898 298.101 54.7998C288.301 81.3898 275.841 100.55 261.881 113C254.901 119.23 247.541 123.79 239.911 126.8C232.281 129.81 224.371 131.27 216.261 131.27C207.501 131.27 198.501 129.56 189.391 126.2C184.331 124.34 179.801 122.24 175.711 119.96C182.651 111.66 187.201 102.99 190.251 94.2198C193.581 84.6398 195.161 74.9498 196.261 65.3898C197.141 59.1598 197.861 53.5998 198.841 48.7498C199.781 49.8198 200.761 50.8198 201.821 51.7398C204.201 53.7998 206.921 55.4598 210.061 56.6198C212.591 57.5598 215.161 58.0598 217.721 58.0598C220.131 58.0598 222.521 57.6098 224.831 56.7198C228.301 55.3698 231.581 53.0198 234.651 49.7298C237.101 47.0998 239.421 43.8498 241.651 39.9798C243.871 42.4098 246.151 45.1798 248.511 48.2898C249.331 49.3698 250.081 50.6498 250.871 52.0298C251.671 53.3998 252.511 54.8698 253.571 56.2798L255.081 58.2698H255.071Z" fill="#D3F1A7"/>
<path d="M171.84 120.62V120.6C171.1 120.16 170.4 119.71 169.7 119.26C150.93 107.14 141.92 90.62 134.59 73.64C131.63 67.27 129.09 61.58 126.37 56.75C125.8 55.75 125.23 54.77 124.65 53.84C124.33 54.88 123.98 55.87 123.6 56.85C122.23 60.39 120.42 63.47 117.9 66.08C117.05 66.96 116.14 67.8 115.11 68.58C109.29 72.97 102.63 73.8 95.13 70.36C91.18 68.55 87 65.55 82.59 61.27C81.98 60.68 81.36 60.06 80.74 59.42C77.93 56.51 75.04 53.09 72.05 49.13L65.95 41.04L31.95 66.68L29.58 68.47L22.35 73.92L17.25 77.77C19.12 81.04 21.4 84.38 24.03 88C25.31 89.76 26.66 91.58 28.11 93.49C28.66 94.23 29.22 94.97 29.8 95.73C42.69 112.83 55.86 125.56 68.98 134.29C69.08 134.36 69.19 134.43 69.29 134.5C69.63 134.72 69.97 134.94 70.31 135.15C70.67 135.38 71.03 135.62 71.38 135.84C71.47 135.9 71.56 135.95 71.65 136C102.17 155.06 132.31 152.58 158 133.2C159.76 131.87 161.42 130.53 163 129.18C164.1 128.24 165.16 127.29 166.19 126.34C167.56 125.06 168.87 123.77 170.11 122.48C170.7 121.86 171.28 121.23 171.85 120.61L171.84 120.62Z" fill="#D3F1A7"/>
<path d="M186.952 22.1005C189.882 28.4705 192.412 34.1405 195.122 38.9505C195.932 40.3905 196.762 41.7705 197.622 43.0605C197.882 42.1405 198.172 41.2405 198.472 40.3705C199.782 36.5805 201.512 33.2905 203.992 30.5005C205.012 29.3605 206.152 28.3005 207.442 27.3205C208.572 26.4705 209.742 25.7505 210.932 25.1705C210.942 25.1705 210.952 25.1605 210.972 25.1505C211.032 25.1205 211.102 25.0905 211.162 25.0605C214.272 23.6105 217.592 23.1005 221.132 23.6205C226.652 24.4305 232.682 27.7505 239.222 33.9205C239.842 34.5005 240.462 35.1105 241.092 35.7405C244.122 38.8105 247.252 42.4705 250.492 46.7605C252.372 49.2505 253.672 52.2605 255.552 54.7505L290.282 28.5605L292.652 26.7705L294.192 25.6105L304.862 17.5605C302.312 12.9205 298.292 7.52047 293.012 0.520469C292.872 0.340469 292.742 0.170469 292.602 -0.0195312H175.672C180.252 6.93047 183.782 14.3805 186.932 22.0805L186.952 22.1005Z" fill="#D3F1A7"/>
</g>
<defs>
<clipPath id="clip0_287_66049">
<rect width="960" height="540" fill="white"/>
</clipPath>
</defs>
</svg>
