<svg width="960" height="540" viewBox="0 0 960 540" fill="none" xmlns="http://www.w3.org/2000/svg">
<g clip-path="url(#clip0_287_59974)">
<path d="M256.789 349.14L229.629 411.88H278.089L286.769 439.71L322.539 349.14H256.789Z" fill="#E9F2FE"/>
<path d="M96.3787 0H45.5387L33.7188 84.88L96.3787 0Z" fill="#E9F2FE"/>
<path d="M500.35 125.77H500.71H518.85H577.84L435.73 318.28L453.35 191.79H375.86L517.44 -1.95317e-05H419.31L331.22 116.57L330.99 116.66L315.28 93.82L257.25 170.61L254.51 171.63L171.09 50.34L171.83 48.99L171.96 48.75L172.46 47.83L265.24 21.04L250.75 -1.95317e-05H102.6L26.05 103.69L40.5 -1.95317e-05H0V146.42H102.08V91.5L196.23 190.18L102.08 292.08V237.16H0V340.58H107.78V540H168.73L195.74 477.6L175.25 411.88H224.19L253.51 344.14H329.9L289.15 447.32L318.05 540.01H400.75C399.93 539.31 399.13 538.59 398.35 537.85C385.65 525.73 378.02 509.21 378.02 485.87C378.02 462.53 385.93 444.88 398.98 432.53C404.7 427.08 411.54 422.68 419.17 419.2C433.36 412.68 450.79 409.58 468.86 409.58C480.16 409.58 490.85 410.76 500.66 413.17C501.78 412.78 502.91 412.41 504.06 412.06L504.77 411.85L505.48 412.05C506.65 412.39 507.81 412.75 508.96 413.12C518.43 410.71 528.62 409.57 539.34 409.57C550.06 409.57 560.91 410.87 570.66 413.62C591.56 419.45 608.62 431.94 617.25 452.6C621.17 462 623.42 473.19 623.42 485.88C623.42 498.57 621.16 509.42 617.31 518.68C613.78 527.11 608.81 534.17 602.77 539.99H715.34L723.71 526.06L635.69 388.89C635.69 388.89 723.35 391.46 724.45 390.36L731.76 403.63L786.94 303.45L788.72 305.23C789 305.25 789.36 305.27 789.8 305.28C791.07 305.32 792.94 305.34 795.24 305.34C804.64 305.34 821.33 305.01 837.11 304.63C852.89 304.26 867.78 303.84 873.61 303.67C875.28 303.62 876.2 303.6 876.2 303.6L880.94 303.46L791.2 443.31L849.3 539.98H911.89V442.44H856.97L955.65 348.29L960.02 352.32V259.96H929.21C930.35 263.63 931.3 267.53 932.03 271.67H819.37C828.57 238.89 843.1 223.9 863.68 219.97C873.7 164.21 906.95 140.55 960.01 139.06V89.84C953.61 93.03 946.76 95.62 939.58 97.62C926.41 101.33 912.77 103.09 897.26 103.09C881.75 103.09 866.86 101.33 853.22 97.53C824.53 89.55 801.65 72.68 790.08 44.95C784.88 32.43 781.92 18.06 781.92 0.61998C781.92 0.40998 781.92 0.19998 781.92 -0.0200195H718.24L776.58 187.07H673.74L641.43 83.47L639.98 87.17L638.78 83.35L636.54 89.03H555.94L594.49 -1.95317e-05H517.86L500.34 125.77H500.35ZM359.98 351.1L358.95 348.36C353.08 332.81 342.94 319.53 329.65 309.96C316.08 300.19 300.13 295.03 283.54 295.03C266.95 295.03 251.01 300.19 237.43 309.96C224.14 319.53 214 332.8 208.13 348.36L207.1 351.1H148.48L149.67 345.92C156.7 315.35 173.72 287.63 197.59 267.87C209.53 257.99 222.85 250.29 237.19 244.99C252.04 239.5 267.63 236.72 283.54 236.72C299.45 236.72 315.05 239.5 329.89 244.99C344.23 250.29 357.56 257.99 369.5 267.87C393.37 287.63 410.38 315.34 417.42 345.92L418.61 351.1H359.99H359.98ZM739.87 227.27L738.28 230.81C719.6 272.44 706.96 317.14 700.16 357.65L699.81 359.73L506 360.59L504.48 358.86L504.62 357.74C511.32 305.73 525.82 261.99 542.69 229.5L543.01 228.88L543.61 228.52L543.64 228.5L544.23 228.14L739.86 227.27H739.87Z" fill="#E9F2FE"/>
<path d="M871.612 308.75C865.862 308.91 855.472 309.2 843.912 309.49C826.342 309.93 806.082 310.36 795.232 310.36C792.452 310.36 790.302 310.33 788.892 310.26L734.602 408.82L799.992 527.53L793.332 540H843.462L785.302 443.24L871.612 308.75Z" fill="#E9F2FE"/>
<path d="M255.642 164.44L312.292 89.4697L268.212 25.3896L177.922 51.4496L255.642 164.44Z" fill="#E9F2FE"/>
<path d="M174.18 540H215.15L198.02 484.92L174.18 540Z" fill="#E9F2FE"/>
<path d="M453.349 191.79L462.539 125.77H462.909H500.349L517.859 0H517.439L375.859 191.79H453.349Z" fill="#CFE1FD"/>
<path d="M491.15 191.79H453.71L462.91 125.77H462.54L453.35 191.79L435.73 318.28L577.84 125.77H518.85H500.71L491.51 191.79H491.15Z" fill="#CFE1FD"/>
<path d="M462.911 125.77L453.711 191.79H491.151H491.511L500.711 125.77H500.351H462.911Z" fill="#CFE1FD"/>
<path d="M636.539 89.05L638.789 83.37L612.569 0H594.489L555.949 89.05H636.539Z" fill="#CFE1FD"/>
<path d="M673.741 187.09H776.581L718.241 0H674.141L641.441 83.5L673.741 187.09Z" fill="#CFE1FD"/>
<path d="M668.769 0H617.809L640.499 72.17L668.769 0Z" fill="#E9F2FE"/>
<path d="M639.99 87.19L641.44 83.5L674.14 0H668.77L640.5 72.17L617.81 0H612.57L638.79 83.37L639.99 87.19Z" fill="#CFE1FD"/>
<path d="M256.791 349.14H322.541L286.771 439.71L289.141 447.31L329.901 344.14H253.511L224.191 411.88H229.631L256.791 349.14Z" fill="#CFE1FD"/>
<path d="M196.9 481.31L195.74 477.6L168.73 540H174.18L198.02 484.92L196.9 481.31Z" fill="#CFE1FD"/>
<path d="M286.77 439.71L278.09 411.88L287.74 442.83L249.68 540H318.04L289.14 447.31L286.77 439.71Z" fill="#CFE1FD"/>
<path d="M226.93 412L278.09 411.88H229.63H224.19H175.25L195.74 477.6L196.9 481.31L226.93 412Z" fill="#CFE1FD"/>
<path d="M274.419 416.89L230.209 416.99L202.219 481.59L220.389 540H244.309L282.449 442.64L274.419 416.89Z" fill="#E9F2FE"/>
<path d="M278.088 411.88L226.928 412L196.898 481.31L198.018 484.92L215.148 540H220.388L202.218 481.59L230.208 416.99L274.418 416.89L282.448 442.64L244.308 540H249.678L287.738 442.83L278.088 411.88Z" fill="#CFE1FD"/>
<path d="M313.778 91.63L312.288 89.47L255.638 164.44L177.918 51.45L268.208 25.39L266.708 23.21L265.218 21.04L172.448 47.83L171.948 48.75L171.818 48.98L171.078 50.33L254.508 171.62L257.248 170.6L315.278 93.82L313.778 91.63Z" fill="#CFE1FD"/>
<path d="M266.71 23.21L347.08 0H250.75L265.22 21.04L266.71 23.21Z" fill="#CFE1FD"/>
<path d="M315.281 93.82L330.991 116.65L331.221 116.57L419.311 0H383.021L313.781 91.63L315.281 93.82Z" fill="#CFE1FD"/>
<path d="M313.972 83.09L376.762 0H365.112L274.762 26.09L313.972 83.09Z" fill="#E9F2FE"/>
<path d="M266.711 23.21L268.211 25.39L312.291 89.47L313.781 91.63L383.021 0H376.761L313.971 83.09L274.761 26.09L365.111 0H347.081L266.711 23.21Z" fill="#CFE1FD"/>
<path d="M369.5 267.87C357.56 257.99 344.24 250.29 329.89 244.99C315.04 239.5 299.45 236.72 283.54 236.72C267.63 236.72 252.03 239.5 237.19 244.99C222.85 250.29 209.52 257.99 197.59 267.87C173.72 287.63 156.71 315.34 149.67 345.92L148.48 351.1H207.1L208.13 348.36C214.01 332.81 224.14 319.53 237.43 309.96C251 300.19 266.95 295.03 283.54 295.03C300.13 295.03 316.07 300.19 329.65 309.96C342.94 319.53 353.08 332.8 358.95 348.36L359.98 351.1H418.6L417.41 345.92C410.38 315.35 393.36 287.63 369.49 267.87H369.5Z" fill="#CFE1FD"/>
<path d="M136.148 237.16H102.078V292.08L196.218 190.18L102.078 91.5098V146.42H136.148V237.16Z" fill="#CFE1FD"/>
<path d="M102.08 146.42H0V237.16H102.08V146.42Z" fill="#CFE1FD"/>
<path d="M136.148 146.42H102.078V237.16H136.148V146.42Z" fill="#E9F2FE"/>
<path d="M102.601 0H96.3808L33.7208 84.88L45.5408 0H40.5008L26.0508 103.69L102.601 0Z" fill="#CFE1FD"/>
<path d="M0 345.58V439.43H27.69V540H102.78V345.58H0Z" fill="#E9F2FE"/>
<path d="M0 340.58V345.58H102.78V540H107.78V340.58H0Z" fill="#CFE1FD"/>
<path d="M27.69 439.43H0V540H27.69V439.43Z" fill="#E9F2FE"/>
<path d="M790.072 44.9602C801.642 72.6902 824.522 89.5602 853.212 97.5402C866.842 101.34 881.732 103.1 897.252 103.1C912.772 103.1 926.402 101.34 939.572 97.6302C946.752 95.6302 953.602 93.0502 960.002 89.8502V36.1402C958.182 38.7202 956.152 41.1202 953.902 43.3002C949.002 48.0702 943.112 51.8402 936.482 54.7502C925.182 59.7002 911.672 62.1202 896.912 62.1202V62.0602C881.852 62.0602 867.952 59.5802 856.302 54.3802C849.852 51.5302 844.142 47.8802 839.292 43.3002C828.912 33.3902 822.682 19.9002 822.682 0.830234C822.682 0.550234 822.702 0.270234 822.702 -0.00976562H781.922C781.922 0.200234 781.922 0.410234 781.922 0.630234C781.922 18.0702 784.882 32.4402 790.082 44.9602H790.072Z" fill="#CFE1FD"/>
<path d="M839.29 43.3102C844.14 47.8902 849.85 51.5402 856.3 54.3902C867.95 59.5902 881.85 62.0702 896.91 62.0702V62.1302C911.67 62.1302 925.17 59.7102 936.48 54.7602C943.11 51.8502 949 48.0702 953.9 43.3102C956.15 41.1302 958.18 38.7402 960 36.1502V0.000234375H937.73C937.73 0.140234 937.73 0.280234 937.73 0.420234C937.73 6.54023 936.63 11.8602 934.73 16.4202V16.4302C932.59 21.5302 929.38 25.6802 925.42 28.8802C921.47 32.0802 916.79 34.3302 911.71 35.7402C906.99 37.0702 902.12 37.6902 896.66 37.6902C891.21 37.6902 885.95 37.0702 881.06 35.7102C875.92 34.2802 871.23 32.0302 867.27 28.8402C863.31 25.6502 860.11 21.5002 857.99 16.4202C856.1 11.8502 855.04 6.61023 855.04 0.410234C855.04 0.270234 855.04 0.130234 855.04 -0.00976562H822.68C822.68 0.270234 822.66 0.540234 822.66 0.830234C822.66 19.9002 828.89 33.4002 839.27 43.3002L839.29 43.3102Z" fill="#E9F2FE"/>
<path d="M862.619 14.5C864.429 18.83 867.079 22.25 870.419 24.95C873.759 27.65 877.819 29.62 882.409 30.89C886.779 32.11 891.599 32.69 896.669 32.69C901.759 32.69 906.119 32.12 910.369 30.93C914.899 29.67 918.929 27.7 922.279 24.99C925.619 22.28 928.289 18.84 930.119 14.5C931.749 10.57 932.729 5.94 932.729 0.42C932.729 0.28 932.729 0.14 932.729 0H860.059C860.059 0.14 860.059 0.28 860.059 0.42C860.059 6.05 860.999 10.57 862.629 14.5H862.619Z" fill="#E9F2FE"/>
<path d="M857.999 16.4202C860.119 21.5102 863.319 25.6502 867.279 28.8402C871.239 32.0302 875.929 34.2802 881.069 35.7102C885.959 37.0702 891.219 37.6902 896.669 37.6902C902.139 37.6902 906.999 37.0702 911.719 35.7402C916.799 34.3302 921.469 32.0802 925.429 28.8802C929.389 25.6802 932.599 21.5302 934.739 16.4302C936.629 11.8602 937.739 6.54023 937.739 0.420234C937.739 0.280234 937.739 0.140234 937.739 0.000234375H932.739C932.739 0.140234 932.739 0.280234 932.739 0.420234C932.739 5.94023 931.749 10.5702 930.129 14.5002C928.299 18.8402 925.629 22.2802 922.289 24.9902C918.949 27.7002 914.909 29.6602 910.379 30.9202C906.129 32.1102 901.769 32.6802 896.679 32.6802C891.609 32.6802 886.789 32.1002 882.419 30.8802C877.819 29.6002 873.769 27.6302 870.429 24.9402C867.089 22.2402 864.439 18.8202 862.629 14.4902C861.009 10.5602 860.069 6.04023 860.059 0.410234C860.059 0.270234 860.059 0.130234 860.059 -0.00976562H855.059C855.059 0.130234 855.059 0.270234 855.059 0.410234C855.059 6.60023 856.109 11.8402 858.009 16.4102L857.999 16.4202Z" fill="#CFE1FD"/>
<path d="M617.299 518.69C621.149 509.43 623.409 498.58 623.409 485.89C623.409 473.2 621.149 462.01 617.239 452.61C608.609 431.95 591.559 419.46 570.649 413.63C560.889 410.89 550.279 409.58 539.329 409.58C528.379 409.58 518.419 410.72 508.949 413.13C512.179 414.19 515.299 415.38 518.299 416.73C526.359 420.32 533.669 425.01 539.769 430.93C546.459 437.36 551.759 445.33 555.379 454.6C558.999 463.87 560.929 474.43 560.929 486.07C560.929 497.7 559.049 507.99 555.529 516.95C552.009 525.91 546.839 533.54 540.339 539.84C540.279 539.9 540.209 539.95 540.149 540.01H602.759C608.809 534.18 613.769 527.12 617.299 518.7V518.69Z" fill="#CFE1FD"/>
<path d="M457.702 519.83C453.722 510.25 451.472 499.25 451.472 486.07C451.472 472.89 453.712 461.56 457.772 451.83C462.072 441.53 468.442 433.12 476.342 426.54C483.372 420.68 491.602 416.28 500.652 413.16C490.842 410.75 480.152 409.57 468.852 409.57C450.782 409.57 433.352 412.68 419.162 419.19C411.542 422.68 404.692 427.07 398.972 432.52C385.912 444.87 378.012 462.52 378.012 485.86C378.012 509.2 385.632 525.71 398.342 537.84C399.122 538.58 399.932 539.3 400.742 540H470.812C465.412 534.34 460.962 527.64 457.702 519.84V519.83Z" fill="#CFE1FD"/>
<path d="M536.84 536.24C542.84 530.42 547.58 523.42 550.85 515.11C554.12 506.8 555.91 497.16 555.91 486.06C555.91 474.97 554.07 465.04 550.7 456.41C547.33 447.78 542.43 440.44 536.28 434.53C530.67 429.08 523.86 424.68 516.25 421.3C512.63 419.67 508.8 418.27 504.79 417.09C495.22 420.07 486.67 424.46 479.54 430.4C472.23 436.49 466.39 444.2 462.39 453.77C458.62 462.83 456.48 473.47 456.48 486.09C456.48 498.71 458.61 508.98 462.33 517.93C466.06 526.85 471.4 534.13 478.03 540.02H532.59C534.07 538.83 535.5 537.58 536.85 536.26L536.84 536.24Z" fill="#E9F2FE"/>
<path d="M540.319 539.83C546.809 533.53 551.979 525.9 555.509 516.94C559.029 507.98 560.919 497.69 560.909 486.06C560.909 474.42 558.979 463.86 555.359 454.59C551.739 445.32 546.439 437.35 539.749 430.92C533.649 425.01 526.339 420.31 518.279 416.72C515.279 415.37 512.149 414.17 508.929 413.12C507.779 412.74 506.619 412.39 505.449 412.05L504.739 411.85L504.029 412.06C502.879 412.41 501.759 412.78 500.629 413.17C491.579 416.28 483.349 420.69 476.319 426.55C468.419 433.13 462.049 441.53 457.749 451.84C453.699 461.58 451.449 472.9 451.449 486.08C451.449 499.26 453.699 510.26 457.679 519.84C460.929 527.65 465.389 534.35 470.789 540.01H477.999C471.369 534.13 466.019 526.85 462.299 517.92C458.589 508.97 456.459 498.7 456.449 486.08C456.449 473.46 458.589 462.83 462.359 453.76C466.359 444.19 472.209 436.48 479.509 430.39C486.639 424.45 495.189 420.06 504.759 417.08C508.759 418.27 512.589 419.67 516.219 421.29C523.829 424.68 530.629 429.07 536.249 434.51C542.399 440.44 547.299 447.77 550.669 456.4C554.039 465.03 555.879 474.96 555.879 486.05C555.879 497.15 554.089 506.79 550.819 515.1C547.549 523.41 542.799 530.41 536.809 536.23C535.459 537.55 534.029 538.8 532.549 539.99H540.109C540.169 539.93 540.239 539.88 540.299 539.82L540.319 539.83Z" fill="#CFE1FD"/>
<path d="M518.281 416.72H518.291V416.73L518.281 416.72Z" fill="#CFE1FD"/>
<path d="M863.672 219.99C863.672 219.99 863.692 219.99 863.702 219.99C864.622 219.82 865.552 219.67 866.492 219.53C866.682 219.5 866.872 219.48 867.062 219.46C867.792 219.37 868.532 219.28 869.272 219.21C869.552 219.18 869.832 219.16 870.112 219.14C870.802 219.08 871.502 219.04 872.212 219C872.482 218.99 872.752 218.97 873.032 218.96C873.992 218.92 874.962 218.9 875.952 218.9C875.952 218.9 875.972 218.9 875.982 218.9C876.832 218.9 877.682 218.92 878.512 218.95C878.792 218.96 879.072 218.98 879.362 218.99C879.922 219.02 880.482 219.05 881.032 219.09C881.362 219.12 881.692 219.15 882.012 219.18C882.512 219.23 883.012 219.27 883.502 219.33C883.842 219.37 884.192 219.41 884.532 219.46C885.002 219.52 885.472 219.59 885.942 219.66C886.282 219.71 886.632 219.77 886.972 219.83C887.432 219.91 887.882 220 888.342 220.09C888.682 220.16 889.012 220.22 889.342 220.3C889.802 220.4 890.262 220.51 890.722 220.63C891.032 220.71 891.352 220.78 891.662 220.86C892.172 221 892.672 221.15 893.182 221.3C893.432 221.37 893.682 221.44 893.932 221.52C894.652 221.75 895.362 221.99 896.062 222.24C896.362 222.35 896.662 222.47 896.962 222.59C897.372 222.75 897.792 222.91 898.202 223.08C898.542 223.22 898.872 223.37 899.212 223.52C899.572 223.68 899.932 223.84 900.282 224C900.632 224.16 900.972 224.33 901.322 224.51C901.652 224.68 901.982 224.84 902.312 225.02C902.662 225.2 903.012 225.39 903.352 225.58C903.662 225.75 903.972 225.93 904.282 226.11C904.632 226.32 904.982 226.52 905.322 226.74C905.612 226.92 905.892 227.11 906.182 227.29C906.532 227.52 906.892 227.75 907.232 227.99C907.482 228.16 907.732 228.35 907.972 228.52C908.342 228.79 908.712 229.05 909.082 229.33C909.082 229.33 909.092 229.34 909.102 229.35C910.082 230.1 911.032 230.89 911.962 231.72C912.112 231.85 912.272 231.98 912.422 232.12C912.792 232.46 913.152 232.81 913.512 233.16C913.702 233.34 913.892 233.52 914.072 233.71C914.422 234.06 914.762 234.42 915.102 234.78C915.292 234.98 915.472 235.18 915.662 235.38C916.002 235.75 916.332 236.12 916.662 236.5C916.832 236.7 917.012 236.91 917.182 237.11C917.512 237.51 917.842 237.91 918.162 238.32C918.312 238.51 918.462 238.71 918.612 238.9C918.942 239.33 919.282 239.77 919.602 240.22C919.712 240.37 919.822 240.53 919.932 240.69C921.532 242.95 923.002 245.39 924.352 248C924.422 248.13 924.482 248.25 924.552 248.38C924.842 248.94 925.112 249.52 925.392 250.1C925.482 250.3 925.582 250.49 925.672 250.69C925.932 251.25 926.182 251.83 926.432 252.41C926.522 252.63 926.622 252.85 926.712 253.07C926.952 253.65 927.192 254.24 927.422 254.83C927.512 255.05 927.592 255.27 927.672 255.5C927.902 256.12 928.132 256.74 928.352 257.37C928.412 257.55 928.482 257.74 928.542 257.93C928.772 258.61 929.002 259.3 929.222 260H960.032V139.1C906.972 140.59 873.722 164.25 863.702 220.01L863.672 219.99Z" fill="#CFE1FD"/>
<path d="M873.822 259.98H860.452C860.452 245.12 861.562 231.85 863.692 219.99C863.682 219.99 863.672 219.99 863.662 219.99C843.072 223.92 828.542 238.9 819.352 271.69H932.012C931.282 267.55 930.332 263.65 929.192 259.98H873.822Z" fill="#CFE1FD"/>
<path d="M867.059 219.46C867.789 219.37 868.529 219.28 869.269 219.21C868.529 219.28 867.789 219.36 867.059 219.46Z" fill="#CFE1FD"/>
<path d="M863.699 219.99C864.619 219.82 865.549 219.67 866.489 219.53C865.549 219.66 864.619 219.81 863.699 219.99Z" fill="#CFE1FD"/>
<path d="M890.719 220.64C891.029 220.72 891.349 220.79 891.659 220.87C891.349 220.79 891.029 220.71 890.719 220.64Z" fill="#CFE1FD"/>
<path d="M893.172 221.31C893.422 221.38 893.672 221.45 893.922 221.53C893.672 221.45 893.422 221.39 893.172 221.31Z" fill="#CFE1FD"/>
<path d="M888.34 220.1C888.68 220.17 889.01 220.23 889.34 220.31C889.01 220.24 888.67 220.17 888.34 220.1Z" fill="#CFE1FD"/>
<path d="M885.941 219.67C886.281 219.72 886.631 219.78 886.971 219.84C886.631 219.78 886.291 219.72 885.941 219.67Z" fill="#CFE1FD"/>
<path d="M878.512 218.95C878.792 218.96 879.072 218.98 879.362 218.99C879.082 218.98 878.802 218.96 878.512 218.95Z" fill="#CFE1FD"/>
<path d="M928.512 257.91C928.742 258.59 928.972 259.28 929.192 259.98C928.972 259.28 928.742 258.6 928.512 257.91Z" fill="#CFE1FD"/>
<path d="M900.27 224C900.62 224.16 900.96 224.33 901.31 224.51C900.97 224.34 900.62 224.17 900.27 224Z" fill="#CFE1FD"/>
<path d="M881.031 219.1C881.361 219.13 881.691 219.16 882.011 219.19C881.681 219.16 881.361 219.13 881.031 219.1Z" fill="#CFE1FD"/>
<path d="M883.512 219.34C883.852 219.38 884.202 219.42 884.542 219.47C884.202 219.42 883.862 219.38 883.512 219.34Z" fill="#CFE1FD"/>
<path d="M875.981 218.9C875.981 218.9 875.961 218.9 875.951 218.9C874.971 218.9 874.001 218.92 873.031 218.96C873.991 218.92 874.961 218.9 875.951 218.9C875.951 218.9 875.971 218.9 875.981 218.9Z" fill="#CFE1FD"/>
<path d="M919.91 240.68C921.51 242.94 922.98 245.38 924.33 247.99C922.99 245.38 921.51 242.95 919.91 240.68Z" fill="#CFE1FD"/>
<path d="M906.16 227.29C906.51 227.52 906.87 227.75 907.21 227.99C906.86 227.75 906.51 227.52 906.16 227.29Z" fill="#CFE1FD"/>
<path d="M904.27 226.12C904.62 226.33 904.97 226.53 905.31 226.75C904.97 226.54 904.62 226.33 904.27 226.12Z" fill="#CFE1FD"/>
<path d="M926.672 253.05C926.912 253.63 927.152 254.22 927.382 254.81C927.152 254.21 926.912 253.63 926.672 253.05Z" fill="#CFE1FD"/>
<path d="M924.52 248.36C924.81 248.93 925.079 249.5 925.359 250.08C925.089 249.5 924.81 248.92 924.52 248.36Z" fill="#CFE1FD"/>
<path d="M925.629 250.67C925.889 251.23 926.139 251.81 926.389 252.39C926.139 251.81 925.889 251.24 925.629 250.67Z" fill="#CFE1FD"/>
<path d="M915.641 235.37C915.981 235.74 916.311 236.11 916.641 236.49C916.311 236.11 915.981 235.73 915.641 235.37Z" fill="#CFE1FD"/>
<path d="M907.961 228.52C908.331 228.79 908.701 229.05 909.071 229.33C908.711 229.05 908.331 228.79 907.961 228.52Z" fill="#CFE1FD"/>
<path d="M928.51 257.91C928.45 257.72 928.39 257.54 928.32 257.35C928.1 256.72 927.87 256.1 927.64 255.48C927.56 255.26 927.47 255.03 927.39 254.81C927.16 254.21 926.92 253.63 926.68 253.05C926.59 252.83 926.49 252.61 926.4 252.39C926.15 251.81 925.9 251.24 925.64 250.67C925.55 250.47 925.46 250.28 925.36 250.08C925.09 249.5 924.81 248.92 924.52 248.36C924.46 248.23 924.39 248.11 924.32 247.98C922.98 245.37 921.5 242.94 919.9 240.67C919.79 240.51 919.68 240.36 919.57 240.2C919.25 239.75 918.91 239.31 918.58 238.88C918.43 238.68 918.28 238.49 918.13 238.3C917.81 237.89 917.48 237.49 917.15 237.09C916.98 236.88 916.81 236.68 916.63 236.48C916.3 236.1 915.97 235.72 915.63 235.36C915.45 235.16 915.26 234.96 915.07 234.76C914.73 234.4 914.39 234.04 914.04 233.69C913.85 233.5 913.66 233.32 913.48 233.14C913.12 232.79 912.76 232.44 912.39 232.1C912.24 231.96 912.08 231.83 911.93 231.7C911 230.87 910.05 230.08 909.07 229.33C909.07 229.33 909.06 229.32 909.05 229.31C908.69 229.03 908.31 228.77 907.94 228.5C907.69 228.32 907.45 228.14 907.2 227.97C906.85 227.73 906.5 227.5 906.15 227.27C905.87 227.08 905.58 226.9 905.29 226.72C904.95 226.51 904.6 226.3 904.25 226.09C903.94 225.91 903.63 225.73 903.32 225.56C902.98 225.37 902.63 225.18 902.28 225C901.95 224.83 901.62 224.66 901.29 224.49C900.95 224.32 900.6 224.15 900.25 223.98C899.9 223.81 899.54 223.66 899.18 223.5C898.84 223.35 898.51 223.2 898.17 223.06C897.76 222.89 897.35 222.73 896.93 222.57C896.63 222.45 896.33 222.33 896.03 222.22C895.33 221.96 894.62 221.72 893.9 221.5C893.65 221.42 893.4 221.36 893.15 221.28C892.65 221.13 892.14 220.98 891.63 220.84C891.32 220.76 891 220.68 890.69 220.61C890.23 220.5 889.78 220.39 889.31 220.28C888.98 220.21 888.64 220.14 888.31 220.07C887.86 219.98 887.4 219.89 886.94 219.81C886.6 219.75 886.26 219.69 885.91 219.64C885.44 219.57 884.97 219.5 884.5 219.44C884.16 219.39 883.82 219.35 883.47 219.31C882.98 219.25 882.48 219.2 881.98 219.16C881.65 219.13 881.33 219.1 881 219.07C880.45 219.03 879.89 219 879.33 218.97C879.05 218.96 878.77 218.94 878.48 218.93C877.64 218.9 876.8 218.88 875.95 218.88C875.95 218.88 875.93 218.88 875.92 218.88C874.94 218.88 873.97 218.9 873 218.94C872.73 218.95 872.45 218.97 872.18 218.98C871.47 219.02 870.77 219.06 870.08 219.12C869.8 219.14 869.52 219.17 869.24 219.19C868.5 219.26 867.76 219.34 867.03 219.44C866.84 219.46 866.65 219.48 866.46 219.51C865.52 219.64 864.59 219.79 863.67 219.97C861.54 231.83 860.43 245.1 860.43 259.96H929.16C928.94 259.26 928.71 258.58 928.48 257.89L928.51 257.91Z" fill="#E9F2FE"/>
<path d="M856.961 442.46H911.881V408.38H960.001V352.34L955.631 348.31L856.961 442.46Z" fill="#CFE1FD"/>
<path d="M911.879 442.46V408.38V442.46V540H959.999V442.46H911.879Z" fill="#CFE1FD"/>
<path d="M959.999 408.38H911.879V442.45H959.999V408.38Z" fill="#E9F2FE"/>
<path d="M880.93 303.48L876.19 303.62C876.19 303.62 875.26 303.65 873.6 303.69C867.77 303.86 852.88 304.27 837.1 304.65C821.32 305.02 804.63 305.36 795.23 305.36C792.93 305.36 791.07 305.34 789.79 305.3C789.35 305.29 788.99 305.27 788.71 305.25L786.93 303.47L731.75 403.65L733.18 406.24L734.61 408.83L788.9 310.27C790.31 310.34 792.46 310.36 795.24 310.37C806.1 310.37 826.35 309.93 843.92 309.5C855.48 309.21 865.86 308.93 871.62 308.76L785.31 443.25L843.47 540.01H849.3L791.2 443.34L880.94 303.49L880.93 303.48Z" fill="#CFE1FD"/>
<path d="M733.172 406.23L731.742 403.64L724.432 390.37C723.332 391.47 635.672 388.9 635.672 388.9L723.692 526.07L715.322 540H762.822L711.952 444.75L733.172 406.23Z" fill="#CFE1FD"/>
<path d="M733.171 416.59L717.641 444.79L768.491 540H787.661L794.301 527.57L733.171 416.59Z" fill="#E9F2FE"/>
<path d="M734.601 408.82L733.171 406.23L711.961 444.75L762.821 540H768.491L717.641 444.79L733.171 416.59L794.301 527.57L787.661 540H793.331L799.991 527.53L734.601 408.82Z" fill="#CFE1FD"/>
<path d="M546.459 233.13C530.479 264.31 516.659 306.06 509.969 355.57L695.599 354.74C702.349 315.53 714.469 272.65 732.169 232.3L546.459 233.12V233.13Z" fill="#E9F2FE"/>
<path d="M543.648 228.5L543.618 228.52L543.018 228.88L542.698 229.5C525.838 261.99 511.338 305.73 504.628 357.74L504.488 358.86L506.008 360.59L699.818 359.73L700.168 357.65C706.968 317.14 719.608 272.44 738.288 230.81L739.878 227.27L544.248 228.14L543.658 228.5H543.648ZM695.598 354.75L509.968 355.58C516.658 306.06 530.478 264.32 546.458 233.14L732.168 232.32C714.468 272.67 702.348 315.55 695.598 354.76V354.75Z" fill="#CFE1FD"/>
</g>
<defs>
<clipPath id="clip0_287_59974">
<rect width="960" height="540" fill="white"/>
</clipPath>
</defs>
</svg>
