<svg width="960" height="540" viewBox="0 0 960 540" fill="none" xmlns="http://www.w3.org/2000/svg">
<g clip-path="url(#clip0_287_70057)">
<path d="M645.99 96.5998V380.79H811.091V130.08C795.851 128.53 780.351 126.52 764.591 124.03C727.551 118.18 686.79 109.35 645.98 96.5498V96.5998H645.99Z" fill="#48245D"/>
<path d="M769.391 499.14L858.941 540H959.341V453.83H769.391V499.14Z" fill="#48245D"/>
<path d="M885.59 133.98C863.1 133.98 839.92 132.84 816.09 130.57V385.79H640.99V95.0201V94.9601C597.35 80.9201 553.83 62.2901 514.93 37.8301L513.53 36.9501L519.299 0.370117H286.65C276.62 29.0801 260.03 52.6201 238.24 70.4001C214.97 89.4001 185.82 101.85 152.5 107.25C139.83 109.31 126.57 110.36 112.78 110.36H112.71C98.2995 110.36 84.4595 109.21 71.2795 107C44.5195 102.53 20.4895 93.5801 0.0195312 80.4001V174.18C19.0495 178.81 37.7795 182.53 55.7195 185.36C86.7595 190.26 115.44 192.64 141.9 192.64C197.23 192.64 242.81 182.22 280.02 162.58L280.95 161.97L281.05 161.92C322.65 139.94 353.32 106.8 374.15 64.3201L374.96 62.6601L588.609 96.3801L587.62 99.2101C556.22 189.15 502.91 258.96 431.09 306.18C419.19 314.01 406.77 321.2 393.87 327.78L764.38 496.84V448.81H959.34V129.67C935.67 132.53 911.07 133.98 885.59 133.98Z" fill="#48245D"/>
<path d="M388.14 330.68C324.41 361.91 249.03 378.08 163.85 378.08C152.46 378.08 140.89 377.78 129.16 377.2L124.42 484.17L172.31 507.94L173.99 508.77H374.84V540H764.39V502.35L388.14 330.67V330.68Z" fill="#48245D"/>
<path d="M769.391 540H846.891L769.391 504.63V540Z" fill="#48245D"/>
<path d="M645.99 91.3001C687.02 104.27 728.09 113.21 765.38 119.09C780.87 121.54 796.11 123.52 811.09 125.05V125.04V0.370117H645.99V91.3001Z" fill="#48245D"/>
<path d="M640.99 89.7101V0.370117H524.37L518.99 34.4601C556.62 57.9301 598.69 76.0001 640.99 89.7101Z" fill="#48245D"/>
<path d="M112.71 105.37H112.78C126.32 105.37 139.31 104.34 151.7 102.32C184.29 97.0301 212.57 84.9101 235.08 66.5301C255.73 49.6601 271.52 27.5101 281.32 0.370117H0.00976562V74.4201C20.4098 88.1601 44.7198 97.5001 72.0998 102.08C84.9998 104.24 98.5598 105.36 112.71 105.37Z" fill="#48245D"/>
<path d="M0.00976562 513.77V540H225.66L172.81 513.77H0.00976562Z" fill="#48245D"/>
<path d="M816.09 125.54C839.93 127.83 863.12 128.98 885.59 128.98C911.1 128.98 935.7 127.52 959.34 124.63V0.370117H816.09V125.54Z" fill="#48245D"/>
<path d="M119.28 487.2L124.16 376.94C97.8898 375.46 70.7698 372.54 42.8498 368.14C29.0298 365.96 14.6798 363.35 0.00976562 360.29V508.77H162.73L119.28 487.2Z" fill="#48245D"/>
<path d="M129.379 372.21C141.039 372.79 152.539 373.08 163.849 373.08C246.749 373.08 320.059 357.65 382.219 327.97L136.309 215.76L129.379 372.2V372.21Z" fill="#48245D"/>
<path d="M124.38 371.94L131.63 208.14L388.04 325.14C402.06 318.17 415.51 310.46 428.34 302.02C498.45 255.9 550.66 188.07 581.89 100.4L377.81 68.1904C356.62 110.66 325.45 144.11 283.5 166.29L282.55 166.91L282.45 166.96C244.36 187.08 197.89 197.64 141.9 197.64C115.14 197.64 86.2095 195.23 54.9495 190.3C37.2395 187.5 18.7895 183.86 0.0195312 179.33V355.17C14.9595 358.31 29.5695 360.97 43.6395 363.19C71.3895 367.57 98.3195 370.47 124.39 371.94H124.38Z" fill="#48245D"/>
<path d="M184.049 513.77L236.909 540H369.829V513.77H184.049Z" fill="#48245D"/>
<path d="M174.4 508.77V508.98L184.05 513.77H369.83V540H374.83V508.77H174.4Z" fill="#964AC0"/>
<path d="M764.391 502.35V540H769.391V504.63L764.391 502.35Z" fill="#964AC0"/>
<path d="M645.43 91.13H645.98V0H640.98V89.71C642.46 90.19 643.95 90.65 645.43 91.12V91.13Z" fill="#35243F"/>
<path d="M816.09 125.54V0H811.09V125.05C812.76 125.22 814.43 125.39 816.09 125.55V125.54Z" fill="#35243F"/>
<path d="M174.4 508.77H173.98L174.4 508.98V508.77Z" fill="#35243F"/>
<path d="M170.08 512.42L162.73 508.77H0.00976562V513.77H172.81L170.08 512.42Z" fill="#35243F"/>
<path d="M764.391 496.86L769.391 499.14V453.83H959.341H960.011V448.83H959.341H764.391V496.86Z" fill="#35243F"/>
<path d="M124.379 371.94C126.049 372.03 127.709 372.12 129.369 372.21L136.299 215.77L382.209 327.98C384.159 327.05 386.109 326.11 388.039 325.14L131.629 208.14L124.379 371.94Z" fill="#35243F"/>
<path d="M174.4 508.98L173.98 508.77L172.3 507.94L170.08 512.42L172.81 513.77L225.66 540H236.91L184.05 513.77L174.4 508.98Z" fill="#803FA5"/>
<path d="M119.279 487.2L162.729 508.77L170.079 512.42L172.299 507.94L124.409 484.17L129.149 377.2C127.489 377.12 125.819 377.03 124.159 376.93L119.279 487.19V487.2Z" fill="#803FA5"/>
<path d="M764.39 496.86L393.88 327.8C391.98 328.77 390.07 329.74 388.15 330.68L764.4 502.36L769.4 504.64L846.91 540.01H858.95L769.4 499.15L764.4 496.87L764.39 496.86Z" fill="#803FA5"/>
<path d="M124.16 376.94C125.83 377.03 127.49 377.12 129.15 377.21C140.88 377.79 152.45 378.09 163.84 378.09C249.02 378.09 324.4 361.92 388.13 330.69C390.05 329.75 391.96 328.78 393.86 327.81C406.76 321.23 419.18 314.04 431.08 306.21C502.9 258.98 556.21 189.18 587.61 99.2404L588.6 96.4104L374.95 62.6904L374.14 64.3504C353.3 106.82 322.63 139.96 281.04 161.95L280.94 162L280.01 162.61C242.8 182.24 197.22 192.66 141.89 192.67C115.43 192.67 86.75 190.29 55.71 185.39C37.76 182.56 19.04 178.84 0.01 174.21V179.36C18.77 183.89 37.22 187.54 54.94 190.33C86.2 195.26 115.14 197.67 141.89 197.67C197.88 197.67 244.35 187.11 282.44 166.99L282.54 166.94L283.49 166.32C325.44 144.14 356.62 110.69 377.8 68.2204L581.88 100.43C550.65 188.1 498.44 255.93 428.33 302.05C415.5 310.49 402.05 318.2 388.03 325.17C386.1 326.13 384.15 327.07 382.2 328.01C320.04 357.69 246.73 373.11 163.83 373.12C152.52 373.12 141.02 372.83 129.36 372.25C127.7 372.17 126.03 372.08 124.37 371.98C98.29 370.51 71.36 367.61 43.62 363.23C29.55 361.01 14.94 358.35 0 355.21V360.32C14.67 363.38 29.02 365.99 42.84 368.17C70.76 372.58 97.88 375.5 124.15 376.97L124.16 376.94Z" fill="#803FA5"/>
<path d="M811.09 380.79H645.99V96.5998C644.33 96.0798 642.66 95.5498 640.99 95.0098V385.79H816.09V130.57C814.42 130.41 812.76 130.25 811.09 130.08V380.79Z" fill="#964AC0"/>
<path d="M645.43 91.1299C645.61 91.1899 645.8 91.2499 645.98 91.3099V91.1299H645.43Z" fill="#964AC0"/>
<path d="M112.71 110.37H112.78C126.57 110.37 139.84 109.32 152.5 107.26C185.82 101.85 214.98 89.4098 238.24 70.4098C260.03 52.6198 276.62 29.0898 286.65 0.379766C286.69 0.259766 286.73 0.129766 286.78 0.00976562H281.46C281.42 0.139766 281.37 0.259766 281.32 0.379766C271.52 27.5198 255.73 49.6698 235.08 66.5398C212.57 84.9198 184.29 97.0398 151.7 102.33C139.31 104.34 126.31 105.38 112.78 105.38H112.71C98.5598 105.38 84.9998 104.25 72.0998 102.09C44.7298 97.5198 20.4198 88.1698 0.00976562 74.4298V80.4198C20.4798 93.5998 44.5198 102.55 71.2698 107.02C84.4498 109.22 98.2898 110.37 112.7 110.38L112.71 110.37Z" fill="#964AC0"/>
<path d="M514.919 37.8303C553.819 62.2903 597.339 80.9203 640.979 94.9603V89.7603C642.649 90.3003 644.319 90.8403 645.979 91.3603V96.5503C686.789 109.35 727.549 118.18 764.589 124.03C780.349 126.52 795.849 128.53 811.089 130.08C812.759 130.25 814.419 130.41 816.089 130.57C839.919 132.84 863.099 133.98 885.589 133.98C911.069 133.98 935.669 132.53 959.339 129.67C959.559 129.64 959.779 129.61 960.009 129.59V124.55C959.789 124.58 959.569 124.61 959.339 124.64C935.689 127.53 911.089 128.99 885.589 128.99C863.119 128.99 839.939 127.85 816.089 125.56V130.58C814.419 130.42 812.759 130.27 811.089 130.1V125.08C796.109 123.55 780.869 121.56 765.379 119.12C728.099 113.24 687.019 104.3 645.989 91.3303C645.809 91.2703 645.619 91.2103 645.439 91.1503C643.959 90.6803 642.469 90.2203 640.989 89.7403C598.689 76.0203 556.619 57.9603 518.989 34.4903L524.369 0.400273L524.429 0.0302734H519.369L519.309 0.400273L513.539 36.9803L514.939 37.8603L514.919 37.8303Z" fill="#803FA5"/>
<path d="M816.09 125.54C814.43 125.38 812.76 125.21 811.09 125.04V130.08C812.76 130.25 814.43 130.41 816.09 130.56V125.54Z" fill="#803FA5"/>
<path d="M645.99 96.5998V91.3598C644.32 90.8298 642.66 90.2998 640.99 89.7598V95.0198C642.66 95.5598 644.33 96.0798 645.99 96.6098V96.5998Z" fill="#803FA5"/>
</g>
<defs>
<clipPath id="clip0_287_70057">
<rect width="960" height="540" fill="white"/>
</clipPath>
</defs>
</svg>
