<svg width="179" height="216" viewBox="0 0 179 216" fill="none" xmlns="http://www.w3.org/2000/svg">
<path d="M100.343 117.216C100.343 93.5094 114.612 74.406 139.698 74.406C164.784 74.406 178.823 93.5094 178.823 117.216C178.823 140.923 164.554 160.717 139.698 160.717C114.843 160.717 100.343 141.153 100.343 117.216ZM124.048 117.216C124.048 129.645 130.723 137.47 139.698 137.47C148.674 137.47 155.118 129.645 155.118 117.216C155.118 104.787 148.444 97.4222 139.698 97.4222C130.953 97.4222 124.048 105.017 124.048 117.216Z" fill="#82B536"/>
<path d="M141.079 6.96851H168.697L37.7439 158.185H10.1265L141.079 6.96851Z" fill="#FCA700"/>
<path d="M0 47.4771C0 23.5403 14.4992 4.66699 39.5851 4.66699C64.6709 4.66699 78.7098 23.5403 78.7098 47.4771C78.7098 71.4139 64.4408 90.7475 39.5851 90.7475C14.7293 90.7475 0 71.1838 0 47.4771ZM23.9352 47.4771C23.9352 59.9059 30.6094 67.5012 39.5851 67.5012C48.5608 67.5012 55.0049 59.9059 55.0049 47.4771C55.0049 35.0484 48.1005 27.453 39.5851 27.453C30.6094 27.453 23.9352 35.0484 23.9352 47.4771Z" fill="#1868DB"/>
</svg>
