<svg width="159" height="216" viewBox="0 0 159 216" fill="none" xmlns="http://www.w3.org/2000/svg">
<path d="M117.908 65.5244C116.619 114.825 80.7395 139.245 55.7227 137.979C50.5905 137.726 45.8957 136.391 42.0752 133.951C36.0915 130.131 33.1225 124.86 32.2019 119.336L5.98828 143.595C11.2356 152.687 19.8431 158.279 30.1766 161.295C31.8567 161.778 33.5827 162.238 35.3318 162.584C53.9276 166.312 84.9513 165.898 115.077 137.818C145.203 109.738 149.438 78.9659 149.438 65.5475H117.908V65.5244Z" fill="#FCA700"/>
<path d="M33.6029 105.804C43.246 82.9025 79.563 89.1169 99.0104 71.6016C105.27 65.9627 108.907 57.1705 108.907 46.3989C108.907 19.447 89.4362 7.96191 63.798 7.96191C38.1597 7.96191 15.9278 18.8256 15.9278 48.4704C15.9278 57.1936 18.1372 64.3515 20.7839 69.7833L53.6257 64.4206C49.6672 59.3801 48.1482 55.076 48.1482 49.8513C48.1482 41.8417 51.6235 33.74 64.0283 33.74C76.4332 33.74 79.2179 41.3124 79.2179 49.1609C79.2179 69.9675 49.8514 72.4532 29.5065 82.074C14.7081 88.0582 -1.19508 102.443 0.600055 125.137C1.17542 132.456 3.06253 138.533 5.98538 143.573C11.2327 152.664 19.8402 158.257 30.1737 161.273L55.7198 137.957C50.5876 137.704 45.8928 136.369 42.0723 133.929C36.0886 130.109 33.1196 124.838 32.199 119.314C31.4395 114.78 32.0839 110.062 33.6029 105.781V105.804Z" fill="#82B536"/>
<path d="M53.6514 64.4434C53.1221 63.937 52.6846 63.3157 52.3394 62.6482C49.3705 58.3442 48.1739 54.4545 48.1739 49.8742C48.1739 46.606 48.7721 43.3606 50.2911 40.6217L19.4287 30.6787C17.2193 35.6732 15.9766 41.5423 15.9766 48.4932C15.9766 57.2163 18.1859 64.3744 20.8326 69.8062C24.2388 75.238 31.0281 84.6057 50.7515 102.696C70.475 120.787 115.399 161.733 115.399 161.733H158.667C158.667 161.733 71.7869 81.4293 53.6744 64.4434H53.6514Z" fill="#1868DB"/>
<path d="M48.7933 55.1216C48.7012 54.7994 48.632 54.4541 48.5859 54.1089C48.655 54.4541 48.7242 54.7764 48.7933 55.1216Z" fill="#09326C"/>
<path d="M49.2997 56.8017C49.1846 56.5024 49.0925 56.1801 49.0005 55.8579C49.0925 56.1801 49.1846 56.4794 49.2997 56.8017Z" fill="#09326C"/>
<path d="M49.9672 58.4817C49.8292 58.1825 49.6912 57.8833 49.5762 57.561C49.6912 57.8602 49.8292 58.1595 49.9672 58.4817Z" fill="#09326C"/>
<path d="M48.2637 47.6412C48.2637 47.6412 48.2637 47.4112 48.2867 47.3191C48.2867 47.4342 48.2867 47.5491 48.2637 47.6412Z" fill="#09326C"/>
<path d="M48.4483 53.4184C48.3792 53.0271 48.3561 52.6589 48.3101 52.2676C48.3561 52.6589 48.4023 53.0501 48.4483 53.4184Z" fill="#09326C"/>
<path d="M16.1816 43.3833C16.2967 42.1404 16.5038 40.9897 16.6879 39.8389C16.4808 40.9897 16.2967 42.1634 16.1816 43.3833Z" fill="#09326C"/>
<path d="M53.6499 64.4431C53.1666 63.8447 52.7291 63.2464 52.3379 62.6479C52.7061 63.3154 53.1205 63.9368 53.6499 64.4431Z" fill="#09326C"/>
<path d="M19.8181 67.6884C18.5753 64.7654 17.4707 61.405 16.7803 57.6304C17.4937 61.405 18.5753 64.7424 19.8181 67.6884Z" fill="#09326C"/>
<path d="M16.8721 38.7802C17.1713 37.3302 17.5167 35.9492 17.9309 34.6143C17.5167 35.9492 17.1482 37.3302 16.8721 38.7802Z" fill="#09326C"/>
<path d="M50.796 60.1849C50.6349 59.8857 50.4506 59.5634 50.3125 59.2642C50.4736 59.5634 50.6349 59.8857 50.796 60.1849Z" fill="#09326C"/>
<path d="M42.0733 133.952C36.0895 130.131 33.1205 124.86 32.2 119.336L5.98633 143.595C11.2336 152.687 19.8411 158.28 30.1747 161.295L55.7208 137.979C50.5885 137.726 45.8937 136.391 42.0733 133.952Z" fill="#164B35"/>
<path d="M51.2327 60.9446C51.0716 60.6915 50.9564 60.4382 50.8184 60.1851C50.9564 60.4382 51.0947 60.6915 51.2327 60.9446Z" fill="#09326C"/>
<path d="M51.8774 61.9805C52.0155 62.2106 52.1535 62.4407 52.3146 62.6479C52.1535 62.4177 52.0155 62.1876 51.8774 61.9805Z" fill="#09326C"/>
<path d="M49.0005 55.8811C48.9315 55.6279 48.8625 55.3747 48.7935 55.1445C48.8625 55.3977 48.9315 55.6509 49.0005 55.8811Z" fill="#09326C"/>
<path d="M50.2662 40.5981C49.5067 41.9561 48.9775 43.4522 48.6553 44.9943C49.0005 43.4292 49.5067 41.9561 50.2662 40.5981Z" fill="#09326C"/>
<path d="M48.5632 54.132C48.5172 53.9018 48.4713 53.6716 48.4253 53.4185C48.4713 53.6486 48.5172 53.8788 48.5632 54.132Z" fill="#09326C"/>
<path d="M48.3101 47.2961C48.3791 46.5366 48.4942 45.777 48.6553 45.0635C48.4942 45.8 48.3791 46.5596 48.3101 47.2961Z" fill="#09326C"/>
<path d="M50.3121 59.2644C50.174 59.0112 50.0819 58.7581 49.9668 58.4819C50.0819 58.7351 50.197 58.9882 50.3121 59.2644Z" fill="#09326C"/>
<path d="M48.2871 52.2674C48.2871 52.0602 48.2413 51.8761 48.2183 51.6689C48.2183 51.8761 48.2641 52.0602 48.2871 52.2674Z" fill="#09326C"/>
<path d="M123.452 129.187C117.169 123.364 110.495 117.196 103.844 111.028C97.63 119.935 89.9203 126.656 81.8652 131.144C88.8156 137.496 95.6047 143.688 101.243 148.82C105.846 145.736 110.472 142.077 115.098 137.796C118.159 134.942 120.921 132.064 123.475 129.187H123.452Z" fill="#09326C"/>
<path d="M53.6494 64.443C53.1201 63.9366 52.7057 63.3383 52.3375 62.6478C52.1764 62.4176 52.0384 62.1875 51.9003 61.9804C51.6702 61.6351 51.4399 61.2899 51.2328 60.9446C51.0717 60.6914 50.9565 60.4382 50.8184 60.185C50.6573 59.8858 50.4733 59.5635 50.3352 59.2643C50.1971 59.0112 50.105 58.7581 49.9899 58.4819C49.8518 58.1827 49.7139 57.8834 49.5989 57.5612C49.5068 57.308 49.4147 57.0549 49.3227 56.8017C49.2076 56.5025 49.1155 56.1802 49.0235 55.858C48.9544 55.6048 48.8852 55.3516 48.8162 55.1215C48.7241 54.7992 48.6551 54.454 48.6091 54.1087C48.5631 53.8786 48.5172 53.6484 48.4712 53.3952C48.4021 53.004 48.379 52.6357 48.3329 52.2444C48.3329 52.0373 48.2868 51.8531 48.2638 51.646C48.2178 51.0476 48.195 50.4492 48.195 49.8278C48.195 49.0913 48.2409 48.3318 48.3099 47.5953C48.3099 47.4802 48.3099 47.3651 48.3329 47.273C48.402 46.5135 48.5171 45.7769 48.6782 45.0404V44.9944C49.0234 43.4293 49.5296 41.9562 50.2891 40.5983L19.4268 30.6553C18.8744 31.8981 18.3911 33.2101 17.9538 34.568C17.9538 34.568 17.9538 34.5911 17.9538 34.6141C17.5396 35.9491 17.1942 37.33 16.895 38.78C16.8259 39.1253 16.803 39.4936 16.734 39.8388C16.5269 40.9896 16.3428 42.1634 16.2277 43.3833C16.0666 45.0174 15.9746 46.7206 15.9746 48.4928C15.9746 51.7611 16.2968 54.8223 16.8031 57.6533C17.5166 61.428 18.5981 64.7653 19.8409 67.7114C20.1631 68.4479 20.4854 69.1383 20.8076 69.8288L53.6494 64.466V64.443Z" fill="#09326C"/>
<path d="M42.5331 94.9623C50.8643 89.0932 62.6938 86.8377 74.2011 83.5694C68.8617 78.5979 64.0749 74.1788 60.2544 70.6113C50.8415 74.5701 39.4722 77.4931 29.9902 81.9122C33.1202 85.5027 37.1937 89.8067 42.5561 94.9854L42.5331 94.9623Z" fill="#09326C"/>
</svg>
