<svg width="112" height="216" viewBox="0 0 112 216" fill="none" xmlns="http://www.w3.org/2000/svg">
<path d="M29.2285 81.8899V106.978H49.2512C66.0518 106.978 74.337 110.2 74.337 122.629C74.337 135.057 65.3614 139.661 49.9416 139.661C34.5218 139.661 16.5705 137.819 0 128.152V159.915C11.5073 168.201 26.4667 172.804 51.5526 172.804C92.5185 172.804 110.7 152.78 110.7 129.533C110.7 85.6185 29.2285 81.8899 29.2285 81.8899Z" fill="#BF63F3"/>
<path d="M51.7828 16.501C28.9984 16.501 13.5786 21.5645 2.99194 27.5487V58.6205C17.7213 51.7157 35.4425 48.7236 49.0211 48.7236C64.4408 48.7236 72.4959 54.4777 72.4959 65.7556C72.4959 77.0335 64.4408 81.8669 49.4814 81.8669H29.2285V106.954C29.2285 106.954 108.168 107.668 108.168 57.2396C108.168 33.9933 90.4473 16.501 51.7828 16.501Z" fill="#1868DB"/>
<path d="M29.2285 81.8899V106.978H29.5047C32.6116 106.978 62.0013 106.563 83.9572 94.7099C60.2062 83.3169 29.2285 81.8899 29.2285 81.8899Z" fill="#09326C"/>
</svg>
