<svg width="121" height="216" viewBox="0 0 121 216" fill="none" xmlns="http://www.w3.org/2000/svg">
<path d="M37.0976 57.9535C39.7213 49.5066 47.7534 45.2946 59.859 45.2946C64.8072 45.2946 69.0188 46.0311 72.5171 47.4351L80.273 18.5268C74.2892 17.2379 67.4999 16.5244 59.8821 16.5244C20.5272 16.5244 3.72656 35.3977 3.72656 57.9535C3.72656 121.294 95.9689 89.3705 86.625 130.685C84.1855 139.891 74.6574 143.804 59.8821 143.804C55.026 143.804 50.7453 143.366 47.086 142.446L39.4451 170.963C45.498 172.16 52.2873 172.804 59.8821 172.804C102.229 172.804 119.95 153.01 119.95 130.685C119.95 71.8092 25.5673 100.856 37.1206 57.9535H37.0976Z" fill="#1868DB"/>
<path d="M72.8872 142.423C69.1818 143.343 64.832 143.804 59.8608 143.804C54.8897 143.804 50.7241 143.366 47.0647 142.446C39.7231 140.604 34.959 136.807 33.348 130.684C24.0041 89.3705 116.247 121.294 116.247 57.9535C116.247 39.6326 105.522 23.8435 80.2517 18.5268C74.2679 17.2379 67.4787 16.5244 59.8608 16.5244C52.243 16.5244 45.6148 17.2149 39.677 18.5038C39.677 18.5038 39.677 18.5038 39.677 18.5268L47.387 47.297C47.387 47.297 47.387 47.32 47.41 47.32C50.8622 45.9851 55.0047 45.2716 59.8378 45.2716C64.6709 45.2716 68.9976 46.0081 72.4958 47.4121C77.6741 49.4375 81.2643 52.8669 82.8293 57.9305C94.3826 100.833 0 71.7861 0 130.661C0 148.936 11.8754 165.508 39.4009 170.94C45.4537 172.137 52.243 172.781 59.8378 172.781C67.4326 172.781 74.4061 172.114 80.505 170.917L72.8641 142.423H72.8872Z" fill="#82B536"/>
<path d="M49.5508 46.6298C49.896 46.5378 50.2182 46.4226 50.5634 46.3535C50.2182 46.4456 49.896 46.5378 49.5508 46.6298Z" fill="#09326C"/>
<path d="M39.6758 18.4803C41.0797 18.1811 42.5296 17.905 44.0025 17.6748C42.5066 17.905 41.0797 18.1811 39.6758 18.4803Z" fill="#09326C"/>
<path d="M75.58 171.769C74.0381 171.976 72.427 172.183 70.793 172.321C72.427 172.183 74.015 171.976 75.58 171.769Z" fill="#09326C"/>
<path d="M44.0937 171.745C43.5873 171.676 43.104 171.584 42.5977 171.492C43.104 171.561 43.5643 171.676 44.0937 171.745Z" fill="#09326C"/>
<path d="M80.5052 170.939C79.0783 171.216 77.6053 171.469 76.1094 171.676C77.6283 171.446 79.1013 171.216 80.5052 170.939Z" fill="#09326C"/>
<path d="M70.7002 172.321C69.2042 172.459 67.6392 172.551 66.0742 172.644C67.6622 172.575 69.2042 172.459 70.7002 172.321Z" fill="#09326C"/>
<path d="M59.8581 172.804C54.3116 172.804 49.2024 172.458 44.4844 171.791C49.2024 172.435 54.3116 172.804 59.8581 172.804Z" fill="#09326C"/>
<path d="M64.8992 172.688C63.2421 172.758 61.585 172.804 59.8359 172.804C61.562 172.804 63.2421 172.758 64.8992 172.688Z" fill="#09326C"/>
<path d="M52.543 45.916C53.1183 45.8009 53.7168 45.7317 54.3382 45.6396C53.7398 45.7087 53.1183 45.8009 52.543 45.916Z" fill="#09326C"/>
<path d="M66.9498 143.436C66.8347 143.436 66.6967 143.458 66.5586 143.481C66.6967 143.481 66.8117 143.482 66.9498 143.436Z" fill="#09326C"/>
<path d="M63.8888 143.688C63.6357 143.688 63.4055 143.712 63.1523 143.735C63.4055 143.735 63.6357 143.711 63.8888 143.688Z" fill="#09326C"/>
<path d="M55.9922 45.4557C57.235 45.3406 58.5238 45.2715 59.8586 45.2715C58.5008 45.2715 57.235 45.3406 55.9922 45.4557Z" fill="#09326C"/>
<path d="M66.9492 143.436C69.0666 143.205 71.0458 142.86 72.864 142.423C71.0458 142.883 69.0666 143.228 66.9492 143.436Z" fill="#09326C"/>
<path d="M44.485 171.791C44.3469 171.791 44.2318 171.768 44.0938 171.745C44.2088 171.745 44.3469 171.768 44.485 171.791Z" fill="#09326C"/>
<path d="M54.3359 45.6631C54.8653 45.5941 55.4175 45.5251 55.9699 45.4561C55.4175 45.5021 54.8653 45.5941 54.3359 45.6631Z" fill="#09326C"/>
<path d="M66.0726 172.644C65.6814 172.644 65.3131 172.689 64.9219 172.689C65.3131 172.689 65.7044 172.667 66.0726 172.644Z" fill="#09326C"/>
<path d="M47.4336 47.3203C48.101 47.0672 48.8375 46.837 49.5739 46.6299C48.8375 46.837 48.124 47.0672 47.4336 47.3203Z" fill="#09326C"/>
<path d="M39.4219 170.963C40.4575 171.17 41.5392 171.331 42.6209 171.492C41.5392 171.331 40.4575 171.147 39.4219 170.963Z" fill="#09326C"/>
<path d="M44.0273 17.6752C44.2345 17.6521 44.4416 17.606 44.6257 17.583C44.4186 17.606 44.2115 17.6521 44.0273 17.6752Z" fill="#09326C"/>
<path d="M50.5625 46.3532C51.2069 46.1921 51.8743 46.0541 52.5417 45.916C51.8513 46.0311 51.2069 46.1921 50.5625 46.3532Z" fill="#09326C"/>
<path d="M47.4092 47.2972C47.4092 47.2972 47.4092 47.3202 47.4322 47.3202C48.0996 47.067 48.8361 46.8369 49.5726 46.6298C49.8948 46.5377 50.24 46.4455 50.5852 46.3534C51.2296 46.1923 51.897 46.0544 52.5644 45.9163C53.1398 45.8012 53.7611 45.732 54.3595 45.6399C54.9118 45.5709 55.4412 45.5019 55.9936 45.4329C57.2364 45.3178 58.5252 45.2487 59.86 45.2487C64.8081 45.2487 69.0198 45.9852 72.518 47.3892L80.2739 18.4809C74.2901 17.192 67.5009 16.4785 59.883 16.4785C58.18 16.4785 56.5459 16.5245 54.9348 16.5936C54.5896 16.5936 54.2215 16.6166 53.8763 16.6396C52.2652 16.7317 50.7002 16.8238 49.1812 16.9849C49.1812 16.9849 49.1353 16.9849 49.1122 16.9849C47.5703 17.1461 46.0743 17.3302 44.6244 17.5603C44.4172 17.5834 44.2101 17.6293 44.026 17.6524C42.53 17.8825 41.1031 18.1587 39.6992 18.4579C39.6992 18.4579 39.6992 18.4579 39.6992 18.4809L47.4092 47.2511V47.2972Z" fill="#09326C"/>
<path d="M94.7974 94.733C83.7504 90.0608 70.8624 87.7591 59.9535 84.79C49.0676 87.7821 36.1564 90.0608 25.1094 94.733C35.7191 100.188 48.6303 102.513 59.9535 105.136C71.2536 102.536 84.1877 100.188 94.7974 94.733Z" fill="#09326C"/>
<path d="M72.8851 142.423C71.067 142.883 69.0877 143.228 66.9704 143.436C66.8553 143.436 66.7171 143.458 66.579 143.482C65.7045 143.574 64.807 143.643 63.8864 143.689C63.6332 143.689 63.403 143.712 63.1499 143.735C62.0682 143.781 60.9865 143.804 59.8588 143.804C55.0027 143.804 50.722 143.366 47.0627 142.446L39.4219 170.963C40.4575 171.17 41.5392 171.331 42.6209 171.492C43.1273 171.561 43.5876 171.676 44.1169 171.745C44.232 171.745 44.3701 171.768 44.5081 171.791C49.2261 172.436 54.3353 172.804 59.8819 172.804C61.6079 172.804 63.288 172.758 64.9451 172.689C65.3363 172.689 65.7276 172.666 66.0958 172.643C67.6838 172.574 69.2258 172.459 70.7218 172.321C70.7448 172.321 70.7908 172.321 70.8138 172.321C72.4478 172.16 74.0359 171.976 75.6008 171.768C75.7619 171.745 75.946 171.722 76.1071 171.699C77.6261 171.469 79.0991 171.239 80.503 170.963C80.503 170.963 80.5028 170.963 80.5259 170.963L72.8851 142.469V142.423Z" fill="#09326C"/>
</svg>
