<svg width="125" height="216" viewBox="0 0 125 216" fill="none" xmlns="http://www.w3.org/2000/svg">
<path d="M80.1216 16C36.2098 16 8.38522 39.9368 1.94114 76.9928C0.997543 82.4707 0.491211 88.2477 0.491211 94.2549C0.491211 100.262 0.951506 105.901 1.82606 111.287H40.6056C38.7414 106.246 37.7748 100.607 37.7748 94.4852C37.7748 88.3629 38.7875 82.2405 40.7437 76.9928C46.7275 61.0426 61.6179 50.9846 84.4944 50.9846C100.374 50.9846 112.112 55.1274 124.079 61.572V27.278C113.032 19.9128 97.1524 16 80.1216 16Z" fill="#BF63F3"/>
<path d="M84.9547 137.548C61.802 137.548 46.5664 127.49 40.6056 111.31C38.7414 106.269 37.7748 100.63 37.7748 94.5078C37.7748 88.3856 38.7875 82.2633 40.7437 77.0156H1.94114C0.997543 82.4935 0.491211 88.2705 0.491211 94.2777C0.491211 100.285 0.951506 105.924 1.82606 111.31C8.08602 149.194 36.0257 172.303 80.3518 172.303C97.8428 172.303 113.953 168.62 124.079 161.945V127.651C112.112 133.405 100.144 137.548 84.9547 137.548Z" fill="#FCA700"/>
<path d="M1.94114 77.0156C0.997543 82.4935 0.491211 88.2705 0.491211 94.2777C0.491211 100.285 0.951506 105.924 1.82606 111.31H40.6056C38.7414 106.269 37.7748 100.63 37.7748 94.5079C37.7748 88.3856 38.7875 82.2633 40.7437 77.0156H1.94114Z" fill="#AE2A19"/>
</svg>
