<svg width="154" height="216" viewBox="0 0 154 216" fill="none" xmlns="http://www.w3.org/2000/svg">
<path d="M118.548 139.518C131.068 134.293 141.056 125.294 146.557 112.589C149.549 105.684 151.229 97.7204 151.229 88.6521C151.229 85.1306 150.999 81.6782 150.561 78.2948H113.025C114.429 83.5195 115.096 89.2044 115.096 95.0966C115.096 101.38 114.405 107.272 112.932 112.589C108.468 128.723 96.8684 139.518 75.741 139.518C54.6136 139.518 42.8071 128.7 38.3193 112.589C36.8464 107.272 36.1559 101.38 36.1559 95.0966C36.1559 89.2044 36.8234 83.5195 38.2273 78.2948H1.33488C0.460331 83.6576 0 89.2735 0 95.0966C0 101.242 0.483295 107.065 1.42689 112.589C7.5948 148.701 33.6243 171.05 75.9481 171.05H153.737V139.518H118.525H118.548Z" fill="#82B536"/>
<path d="M150.558 78.2954C146.162 44.0014 119.718 17.3026 75.7375 17.3026C31.7567 17.3026 7.31519 41.8148 1.35442 78.2954C0.479862 83.6582 0.0195312 89.2741 0.0195312 95.0972C0.0195312 101.243 0.502826 107.066 1.44642 112.59H38.3158C36.8429 107.273 36.1524 101.381 36.1524 95.0972C36.1524 89.2051 36.8199 83.5201 38.2238 78.2954C42.6196 61.9079 54.2649 49.9856 75.7375 49.9856C97.2101 49.9856 108.648 61.9079 113.021 78.2954C114.425 83.5201 115.092 89.2051 115.092 95.0972C115.092 101.381 114.402 107.273 112.929 112.59H146.553C149.545 105.685 151.225 97.7211 151.225 88.6527C151.225 85.1312 150.995 81.6788 150.558 78.2954Z" fill="#FCA700"/>
<path d="M115.096 95.0966C115.096 101.38 114.406 107.272 112.933 112.589H146.557C149.549 105.684 151.229 97.7204 151.229 88.6521C151.229 85.1306 150.999 81.6782 150.562 78.2948H113.025C114.429 83.5195 115.096 89.2044 115.096 95.0966Z" fill="#164B35"/>
<path d="M36.1559 95.0966C36.1559 89.2044 36.8234 83.5195 38.2273 78.2948H1.33488C0.460331 83.6576 0 89.2735 0 95.0966C0 101.242 0.483295 107.065 1.42689 112.589H38.2963C36.8233 107.272 36.1329 101.38 36.1329 95.0966H36.1559Z" fill="#164B35"/>
</svg>
