<svg width="87" height="216" viewBox="0 0 87 216" fill="none" xmlns="http://www.w3.org/2000/svg">
<path d="M63.82 34.3121C53.0669 34.3121 44.3498 43.0297 44.3498 53.7837C44.3498 64.5376 53.0669 73.2554 63.82 73.2554C74.5732 73.2554 83.2905 64.5376 83.2905 53.7837C83.2905 43.0297 74.5732 34.3121 63.82 34.3121Z" fill="#BF63F3"/>
<path d="M86.9233 4.41401C86.9233 4.41401 39.7205 4.39102 44.3464 53.7837L63.0573 50.6766C63.0573 50.6766 57.7409 25.5199 86.9233 22.5968V4.41401Z" fill="#FCA700"/>
<path d="M19.7927 34.3121C9.03951 34.3121 0.322441 43.0297 0.322441 53.7837C0.322441 64.5376 9.03951 73.2554 19.7927 73.2554C30.5458 73.2554 39.2632 64.5376 39.2632 53.7837C39.2632 43.0297 30.5458 34.3121 19.7927 34.3121Z" fill="#82B536"/>
<path d="M42.896 4.41401C42.896 4.41401 -4.30687 4.39102 0.319056 53.7837L19.0299 50.6766C19.0299 50.6766 13.7135 25.5199 42.896 22.5968V4.41401Z" fill="#1868DB"/>
<path d="M44.3481 53.7837L63.059 50.6766C63.059 50.6766 61.2637 42.1145 65.5444 34.4041C64.9691 34.3581 64.3937 34.3121 63.8183 34.3121C53.0705 34.3121 44.3481 43.0351 44.3481 53.7837Z" fill="#AE2A19"/>
<path d="M0.321254 53.7837L19.0321 50.6766C19.0321 50.6766 17.2369 42.1145 21.5176 34.4041C20.9422 34.3581 20.3668 34.3121 19.7915 34.3121C9.04368 34.3121 0.321254 43.0351 0.321254 53.7837Z" fill="#09326C"/>
</svg>
