<svg width="43" height="216" viewBox="0 0 43 216" fill="none" xmlns="http://www.w3.org/2000/svg">
<path d="M23.1307 43.3574C33.8838 43.3574 42.6009 34.6397 42.6009 23.8858C42.6009 13.1319 33.8838 4.41406 23.1307 4.41406C12.3775 4.41406 3.66016 13.1319 3.66016 23.8858C3.66016 34.6397 12.3775 43.3574 23.1307 43.3574Z" fill="#82B536"/>
<path d="M0.0273438 73.2554C0.0273438 73.2554 47.2302 73.2784 42.6043 23.8857L23.8934 26.9929C23.8934 26.9929 29.2098 52.1496 0.0273438 55.0726V73.2554Z" fill="#1868DB"/>
<path d="M42.6021 23.8857L23.8912 26.9929C23.8912 26.9929 25.6865 35.5549 21.4058 43.2653C21.9811 43.3113 22.5565 43.3573 23.1319 43.3573C33.8797 43.3573 42.6021 34.6343 42.6021 23.8857Z" fill="#09326C"/>
</svg>
