<svg width="960" height="540" viewBox="0 0 960 540" fill="none" xmlns="http://www.w3.org/2000/svg">
<g clip-path="url(#clip0_287_60945)">
<path d="M257.551 349.14L230.391 411.88H278.851L287.531 439.71L323.301 349.14H257.551Z" fill="#37471F"/>
<path d="M174.941 540H215.911L198.781 484.92L174.941 540Z" fill="#37471F"/>
<path d="M256.4 164.44L313.05 89.4701L284.68 48.2301L268.97 25.3901L178.68 51.4501L256.4 164.44Z" fill="#37471F"/>
<path d="M929.94 259.98C931.08 263.65 932.03 267.55 932.76 271.69H820.1C829.3 238.91 843.83 223.92 864.41 219.99C874.39 164.49 907.36 140.79 959.99 139.1V90.23C953.8 93.25 947.22 95.72 940.32 97.64C927.15 101.35 913.51 103.11 898 103.11C882.49 103.11 867.6 101.35 853.96 97.55C825.27 89.57 802.39 72.7 790.82 44.97C785.62 32.45 782.66 18.08 782.66 0.64C782.66 0.43 782.66 0.22 782.66 0H718.98L777.32 187.09H674.48L642.17 83.49L640.72 87.19L639.52 83.37L637.28 89.05H556.68L595.25 0H518.62L501.1 125.77H501.46H519.6H578.59L436.48 318.28L454.1 191.79H376.61L518.19 0H420.06L331.97 116.57L331.74 116.66L316.03 93.82L258 170.61L255.26 171.63L171.84 50.34L172.58 48.99L172.71 48.75L173.21 47.83L265.99 21.04L251.51 0H103.35L26.81 103.69L41.25 0H0V146.42H102.83V91.5L196.98 190.18L102.83 292.08V237.16H0V340.58H108.54V540H169.49L196.5 477.6L176.01 411.88H224.95L254.27 344.14H330.66L289.91 447.32L318.81 540.01H401.51C400.69 539.31 399.89 538.59 399.11 537.85C386.41 525.73 378.78 509.21 378.78 485.87C378.78 462.53 386.69 444.88 399.74 432.53C405.46 427.08 412.3 422.68 419.93 419.2C434.12 412.68 451.55 409.58 469.62 409.58C480.92 409.58 491.61 410.76 501.42 413.17C502.54 412.78 503.67 412.41 504.82 412.06L505.53 411.85L506.24 412.05C507.41 412.39 508.57 412.75 509.72 413.12C519.19 410.71 529.38 409.57 540.1 409.57C550.82 409.57 561.67 410.87 571.42 413.62C592.32 419.45 609.38 431.94 618.01 452.6C621.93 462 624.18 473.19 624.18 485.88C624.18 498.57 621.92 509.42 618.07 518.68C614.54 527.11 609.57 534.17 603.53 539.99H716.1L724.47 526.06L636.45 388.89C636.45 388.89 724.11 391.46 725.21 390.36L732.52 403.63L787.7 303.45L789.48 305.23C789.76 305.25 790.12 305.27 790.56 305.28C791.83 305.32 793.7 305.34 796 305.34C805.4 305.34 822.09 305.01 837.87 304.63C853.65 304.26 868.54 303.84 874.37 303.67C876.04 303.62 876.96 303.6 876.96 303.6L881.7 303.46L791.96 443.31L850.06 539.98H912.65V442.44H857.73L956.41 348.29L960.02 351.62V259.96H929.96L929.94 259.98ZM360.74 351.1L359.71 348.36C353.84 332.81 343.7 319.53 330.41 309.96C316.84 300.19 300.89 295.03 284.3 295.03C267.71 295.03 251.77 300.19 238.19 309.96C224.9 319.53 214.76 332.8 208.89 348.36L207.86 351.1H149.24L150.43 345.92C157.46 315.35 174.48 287.63 198.35 267.87C210.29 257.99 223.61 250.29 237.95 244.99C252.8 239.5 268.39 236.72 284.3 236.72C300.21 236.72 315.81 239.5 330.65 244.99C344.99 250.29 358.32 257.99 370.26 267.87C394.13 287.63 411.14 315.34 418.18 345.92L419.37 351.1H360.75H360.74ZM739.04 230.81C720.36 272.44 707.72 317.14 700.92 357.65L700.57 359.73L506.75 360.59L505.24 358.85L505.38 357.74C512.08 305.73 526.58 261.99 543.45 229.5L543.77 228.88L544.37 228.52L544.39 228.5L544.99 228.14L740.63 227.27L739.04 230.81Z" fill="#37471F"/>
<path d="M97.1405 0H46.3005L34.4805 84.88L97.1405 0Z" fill="#37471F"/>
<path d="M872.362 308.75C866.612 308.91 856.222 309.2 844.662 309.49C827.092 309.93 806.832 310.36 795.982 310.36C793.202 310.36 791.052 310.33 789.642 310.26L735.352 408.82L800.742 527.53L794.082 540H844.212L786.052 443.24L872.362 308.75Z" fill="#37471F"/>
<path d="M454.109 191.79L463.299 125.77H463.659H501.099L518.619 0H518.189L376.609 191.79H454.109Z" fill="#28311B"/>
<path d="M491.908 191.79H454.468L463.658 125.77H463.298L454.108 191.79L436.488 318.28L578.598 125.77H519.608H501.468L492.268 191.79H491.908Z" fill="#28311B"/>
<path d="M463.659 125.77L454.469 191.79H491.909H492.269L501.469 125.77H501.099H463.659Z" fill="#28311B"/>
<path d="M637.299 89.05L639.539 83.37L613.329 0H595.249L556.699 89.05H637.299Z" fill="#28311B"/>
<path d="M674.501 187.09H777.341L719.001 0H674.901L642.191 83.5L674.501 187.09Z" fill="#28311B"/>
<path d="M669.53 0H618.57L641.26 72.17L669.53 0Z" fill="#37471F"/>
<path d="M640.738 87.19L642.188 83.5L674.898 0H669.528L641.258 72.17L618.568 0H613.328L639.538 83.37L640.738 87.19Z" fill="#28311B"/>
<path d="M197.658 481.31L196.498 477.6L169.488 540H174.938L198.778 484.92L197.658 481.31Z" fill="#28311B"/>
<path d="M257.551 349.14H323.301L287.531 439.71L289.901 447.31L330.651 344.14H254.261L224.941 411.88H230.391L257.551 349.14Z" fill="#28311B"/>
<path d="M227.692 412L278.852 411.88H230.392H224.942H176.012L196.502 477.6L197.662 481.31L227.692 412Z" fill="#4C6B1F"/>
<path d="M287.531 439.71L278.851 411.88L288.501 442.83L250.441 540H318.801L289.901 447.31L287.531 439.71Z" fill="#4C6B1F"/>
<path d="M275.17 416.89L230.97 416.99L202.98 481.59L221.15 540H245.07L283.2 442.64L275.17 416.89Z" fill="#37471F"/>
<path d="M278.85 411.88L227.69 412L197.66 481.31L198.78 484.92L215.91 540H221.15L202.98 481.59L230.97 416.99L275.17 416.89L283.2 442.64L245.07 540H250.44L288.5 442.83L278.85 411.88Z" fill="#4C6B1F"/>
<path d="M314.53 91.63L313.05 89.47L256.4 164.44L178.68 51.45L268.97 25.39L265.98 21.04L173.21 47.83L172.71 48.75L172.58 48.98L171.84 50.33L255.26 171.62L258.01 170.6L316.04 93.82L314.53 91.63Z" fill="#28311B"/>
<path d="M268.972 25.39L284.682 48.23L267.472 23.21L347.842 0H251.512L265.982 21.04L268.972 25.39Z" fill="#4C6B1F"/>
<path d="M316.041 93.82L331.741 116.65L331.981 116.57L420.061 0H383.781L314.531 91.63L316.041 93.82Z" fill="#4C6B1F"/>
<path d="M314.73 83.09L377.51 0H365.86L275.52 26.09L314.73 83.09Z" fill="#37471F"/>
<path d="M284.679 48.23L313.049 89.47L314.529 91.63L383.779 0H377.509L314.729 83.09L275.519 26.09L365.859 0H347.839L267.469 23.21L284.679 48.23Z" fill="#4C6B1F"/>
<path d="M370.25 267.87C358.31 257.99 344.99 250.29 330.64 244.99C315.79 239.5 300.2 236.72 284.29 236.72C268.38 236.72 252.78 239.5 237.94 244.99C223.6 250.29 210.27 257.99 198.34 267.87C174.47 287.63 157.46 315.34 150.42 345.92L149.23 351.1H207.85L208.88 348.36C214.76 332.81 224.89 319.53 238.18 309.96C251.75 300.19 267.7 295.03 284.29 295.03C300.88 295.03 316.82 300.19 330.4 309.96C343.69 319.53 353.83 332.8 359.7 348.36L360.73 351.1H419.35L418.16 345.92C411.13 315.35 394.11 287.63 370.24 267.87H370.25Z" fill="#28311B"/>
<path d="M136.908 237.16H102.828V292.08L196.978 190.18L102.828 91.5103V146.42H136.908V237.16Z" fill="#28311B"/>
<path d="M102.83 146.42H0V237.16H102.83V146.42Z" fill="#28311B"/>
<path d="M136.898 146.42H102.828V237.16H136.898V146.42Z" fill="#37471F"/>
<path d="M103.349 0H97.1386L34.4786 84.88L46.2986 0H41.2486L26.8086 103.69L103.349 0Z" fill="#28311B"/>
<path d="M0 345.58V439.43H28.45V540H103.54V345.58H0Z" fill="#37471F"/>
<path d="M0 340.58V345.58H103.54V540H108.54V340.58H0Z" fill="#28311B"/>
<path d="M28.45 439.43H0V540H28.45V439.43Z" fill="#4C6B1F"/>
<path d="M790.83 44.9602C802.4 72.6902 825.28 89.5602 853.97 97.5402C867.6 101.34 882.49 103.1 898.01 103.1C913.53 103.1 927.16 101.34 940.33 97.6302C947.23 95.7102 953.82 93.2502 960 90.2202V37.2102C958.38 39.3902 956.6 41.4202 954.66 43.3002C949.76 48.0702 943.87 51.8402 937.24 54.7502C925.94 59.7002 912.43 62.1202 897.67 62.1202V62.0602C882.61 62.0602 868.71 59.5802 857.06 54.3802C850.61 51.5302 844.9 47.8802 840.05 43.3002C829.67 33.3902 823.44 19.9002 823.44 0.830234C823.44 0.550234 823.46 0.270234 823.46 -0.00976562H782.68C782.68 0.200234 782.68 0.410234 782.68 0.630234C782.68 18.0702 785.64 32.4402 790.84 44.9602H790.83Z" fill="#28311B"/>
<path d="M840.052 43.3102C844.902 47.8902 850.612 51.5402 857.062 54.3902C868.712 59.5902 882.612 62.0702 897.672 62.0702V62.1302C912.432 62.1302 925.932 59.7102 937.242 54.7602C943.872 51.8502 949.762 48.0702 954.662 43.3102C956.602 41.4302 958.382 39.4002 960.002 37.2202V0.000234375H938.492C938.492 0.140234 938.492 0.280234 938.492 0.420234C938.492 6.54023 937.392 11.8602 935.492 16.4202L935.522 16.3602L935.492 16.4302C933.352 21.5302 930.142 25.6802 926.182 28.8802C922.232 32.0802 917.552 34.3302 912.472 35.7402C907.752 37.0702 902.882 37.6902 897.422 37.6902C891.972 37.6902 886.712 37.0702 881.822 35.7102C876.682 34.2802 871.992 32.0302 868.032 28.8402C864.072 25.6502 860.872 21.5002 858.752 16.4202C856.862 11.8502 855.802 6.61023 855.802 0.410234C855.802 0.270234 855.802 0.130234 855.802 -0.00976562H823.442C823.442 0.270234 823.422 0.540234 823.422 0.830234C823.422 19.9002 829.652 33.4002 840.032 43.3002L840.052 43.3102Z" fill="#37471F"/>
<path d="M863.38 14.5C865.19 18.83 867.84 22.25 871.18 24.95C874.52 27.65 878.58 29.62 883.17 30.89C887.54 32.11 892.36 32.69 897.43 32.69C902.52 32.69 906.88 32.12 911.13 30.93C915.66 29.67 919.69 27.7 923.04 24.99C926.38 22.28 929.05 18.84 930.88 14.5C932.51 10.57 933.49 5.94 933.49 0.42C933.49 0.28 933.49 0.14 933.49 0H860.82C860.82 0.14 860.82 0.28 860.82 0.42C860.82 6.06 861.76 10.57 863.39 14.5H863.38Z" fill="#37471F"/>
<path d="M858.76 16.4202C860.88 21.5102 864.08 25.6502 868.04 28.8402C872 32.0302 876.69 34.2802 881.83 35.7102C886.72 37.0702 891.98 37.6902 897.43 37.6902C902.89 37.6902 907.76 37.0702 912.48 35.7402C917.56 34.3302 922.23 32.0802 926.19 28.8802C930.15 25.6802 933.36 21.5302 935.5 16.4302L935.53 16.3602L935.5 16.4202C937.39 11.8602 938.5 6.54023 938.5 0.420234C938.5 0.280234 938.5 0.140234 938.5 0.000234375H933.5C933.5 0.140234 933.5 0.280234 933.5 0.420234C933.5 5.94023 932.51 10.5602 930.89 14.5002C929.06 18.8402 926.39 22.2802 923.05 24.9902C919.71 27.7002 915.67 29.6602 911.14 30.9202C906.89 32.1102 902.53 32.6802 897.44 32.6802C892.37 32.6802 887.55 32.1002 883.18 30.8802C878.58 29.6002 874.53 27.6302 871.19 24.9402C867.85 22.2402 865.2 18.8202 863.39 14.4902C861.77 10.5602 860.83 6.04023 860.82 0.410234C860.82 0.270234 860.82 0.130234 860.82 -0.00976562H855.82C855.82 0.130234 855.82 0.270234 855.82 0.410234C855.82 6.60023 856.87 11.8402 858.77 16.4102L858.76 16.4202Z" fill="#28311B"/>
<path d="M618.049 518.69C621.899 509.43 624.159 498.58 624.159 485.89C624.159 473.2 621.899 462.01 617.989 452.61C609.359 431.95 592.309 419.46 571.399 413.63C561.639 410.89 551.029 409.58 540.079 409.58C529.129 409.58 519.169 410.72 509.699 413.13C512.929 414.19 516.049 415.38 519.049 416.73C527.109 420.32 534.419 425.01 540.519 430.93C547.209 437.36 552.509 445.33 556.129 454.6C559.749 463.87 561.679 474.43 561.679 486.07C561.679 497.7 559.799 507.99 556.279 516.95C552.759 525.91 547.589 533.54 541.099 539.84C541.039 539.9 540.969 539.95 540.909 540.01H603.519C609.569 534.18 614.529 527.12 618.059 518.7L618.049 518.69Z" fill="#28311B"/>
<path d="M458.46 519.83C454.48 510.25 452.23 499.25 452.23 486.07C452.23 472.89 454.47 461.56 458.53 451.83C462.83 441.53 469.2 433.12 477.1 426.54C484.13 420.68 492.36 416.28 501.41 413.16C491.6 410.75 480.91 409.57 469.61 409.57C451.54 409.57 434.11 412.68 419.92 419.19C412.3 422.68 405.45 427.07 399.73 432.52C386.67 444.87 378.77 462.52 378.77 485.86C378.77 509.2 386.39 525.71 399.1 537.84C399.88 538.58 400.69 539.3 401.5 540H471.57C466.17 534.34 461.72 527.64 458.46 519.84V519.83Z" fill="#4C6B1F"/>
<path d="M537.598 536.24C543.598 530.42 548.338 523.42 551.608 515.11C554.878 506.8 556.668 497.16 556.668 486.06C556.668 474.97 554.828 465.04 551.458 456.41C548.088 447.78 543.188 440.44 537.038 434.53C531.428 429.08 524.618 424.68 517.008 421.3C513.388 419.67 509.558 418.27 505.548 417.08C495.978 420.06 487.428 424.45 480.298 430.39C472.988 436.48 467.148 444.19 463.148 453.76C459.378 462.82 457.238 473.46 457.238 486.08C457.238 498.7 459.368 508.98 463.088 517.92C466.818 526.84 472.158 534.12 478.788 540H533.348C534.828 538.81 536.258 537.56 537.608 536.24H537.598Z" fill="#37471F"/>
<path d="M519.039 416.72H519.049V416.73L519.039 416.72Z" fill="#28311B"/>
<path d="M556.271 516.94C559.791 507.98 561.681 497.69 561.671 486.06C561.671 474.42 559.741 463.86 556.121 454.59C552.501 445.32 547.201 437.35 540.511 430.92C534.411 425.01 527.101 420.31 519.041 416.72C516.041 415.37 512.911 414.17 509.691 413.12C508.541 412.74 507.381 412.39 506.211 412.05L505.501 411.85L504.791 412.06C503.641 412.41 502.521 412.78 501.391 413.17C492.341 416.28 484.111 420.69 477.081 426.55C469.181 433.13 462.811 441.53 458.511 451.84C454.461 461.58 452.211 472.9 452.211 486.08C452.211 499.26 454.461 510.26 458.441 519.84C461.691 527.65 466.151 534.35 471.551 540.01H478.761C472.131 534.13 466.781 526.85 463.061 517.93C459.351 508.98 457.211 498.71 457.211 486.09C457.211 473.47 459.351 462.84 463.121 453.77C467.121 444.2 472.971 436.49 480.271 430.4C487.401 424.46 495.951 420.07 505.521 417.09C509.521 418.28 513.351 419.68 516.981 421.3C524.591 424.69 531.391 429.08 537.011 434.53C543.161 440.46 548.061 447.79 551.431 456.42C554.801 465.05 556.641 474.98 556.641 486.07C556.641 497.17 554.851 506.81 551.581 515.12C548.311 523.43 543.561 530.43 537.571 536.25C536.221 537.57 534.791 538.82 533.311 540.01H540.871C540.931 539.95 541.001 539.9 541.061 539.84C547.551 533.54 552.721 525.91 556.241 516.95L556.271 516.94Z" fill="#28311B"/>
<path d="M864.422 219.99C864.422 219.99 864.442 219.99 864.452 219.99C865.372 219.82 866.302 219.67 867.242 219.54C867.432 219.51 867.622 219.49 867.812 219.47C868.542 219.38 869.272 219.29 870.022 219.22C870.302 219.19 870.582 219.17 870.862 219.15C871.552 219.09 872.252 219.05 872.962 219.01C873.232 219 873.502 218.98 873.782 218.97C874.742 218.93 875.712 218.91 876.702 218.91C876.702 218.91 876.722 218.91 876.732 218.91C877.582 218.91 878.422 218.93 879.262 218.96C879.542 218.97 879.822 218.99 880.112 219C880.672 219.03 881.232 219.06 881.782 219.1C882.112 219.13 882.442 219.16 882.772 219.19C883.272 219.24 883.772 219.28 884.262 219.34C884.602 219.38 884.952 219.42 885.292 219.47C885.762 219.53 886.232 219.6 886.692 219.67C887.042 219.72 887.382 219.78 887.722 219.84C888.182 219.92 888.632 220.01 889.092 220.1C889.432 220.17 889.762 220.23 890.102 220.31C890.562 220.41 891.022 220.52 891.472 220.64C891.782 220.72 892.102 220.79 892.412 220.87C892.922 221 893.412 221.15 893.912 221.3C894.162 221.38 894.422 221.44 894.672 221.52C895.392 221.75 896.102 221.99 896.802 222.24C897.112 222.35 897.412 222.47 897.712 222.59C898.122 222.75 898.532 222.9 898.942 223.07C899.282 223.21 899.622 223.36 899.962 223.51C900.322 223.67 900.672 223.82 901.022 223.99C901.372 224.15 901.722 224.33 902.062 224.5C902.392 224.66 902.722 224.83 903.042 225C903.392 225.19 903.742 225.38 904.092 225.57C904.402 225.74 904.702 225.92 905.012 226.1C905.362 226.31 905.712 226.51 906.062 226.73C906.352 226.91 906.632 227.09 906.912 227.28C907.262 227.51 907.622 227.74 907.972 227.98C908.222 228.15 908.462 228.33 908.702 228.51C910.082 229.5 911.422 230.57 912.712 231.72C912.862 231.85 913.012 231.98 913.152 232.11C913.522 232.45 913.882 232.8 914.252 233.15C914.442 233.33 914.622 233.51 914.812 233.69C915.162 234.04 915.502 234.4 915.842 234.76C916.022 234.96 916.212 235.15 916.392 235.35C916.732 235.72 917.062 236.1 917.392 236.48C917.562 236.68 917.732 236.88 917.912 237.09C918.242 237.49 918.572 237.89 918.902 238.3C919.052 238.49 919.202 238.69 919.352 238.88C919.692 239.32 920.022 239.76 920.342 240.21C920.452 240.36 920.552 240.52 920.662 240.67C922.262 242.94 923.742 245.38 925.092 247.99C925.152 248.11 925.222 248.23 925.282 248.36C925.572 248.93 925.842 249.51 926.122 250.09C926.212 250.28 926.302 250.48 926.392 250.67C926.652 251.24 926.902 251.81 927.152 252.39C927.242 252.61 927.342 252.83 927.432 253.04C927.672 253.62 927.912 254.21 928.142 254.81C928.222 255.03 928.312 255.25 928.392 255.47C928.622 256.09 928.852 256.71 929.072 257.34C929.132 257.52 929.192 257.71 929.262 257.89C929.492 258.57 929.722 259.26 929.942 259.96H960.002V139.08C907.382 140.77 874.402 164.48 864.422 219.97V219.99Z" fill="#4C6B1F"/>
<path d="M820.109 271.69H932.769C932.039 267.55 931.089 263.65 929.949 259.98H861.219C861.219 245.12 862.329 231.85 864.459 219.99C864.449 219.99 864.439 219.99 864.429 219.99C843.839 223.92 829.309 238.9 820.119 271.69H820.109Z" fill="#28311B"/>
<path d="M926.391 250.67C926.651 251.24 926.901 251.81 927.151 252.39C926.901 251.81 926.651 251.23 926.391 250.67Z" fill="#28311B"/>
<path d="M919.34 238.89C919.68 239.33 920.01 239.77 920.33 240.22C920 239.77 919.67 239.33 919.34 238.89Z" fill="#28311B"/>
<path d="M913.16 232.12C913.53 232.46 913.89 232.81 914.26 233.16C913.9 232.81 913.54 232.46 913.16 232.12Z" fill="#28311B"/>
<path d="M908.711 228.52C910.091 229.51 911.431 230.58 912.721 231.73C911.431 230.58 910.101 229.51 908.711 228.52Z" fill="#28311B"/>
<path d="M876.739 218.9C876.739 218.9 876.719 218.9 876.709 218.9C875.729 218.9 874.759 218.92 873.789 218.96C874.749 218.92 875.719 218.9 876.709 218.9C876.719 218.9 876.729 218.9 876.739 218.9Z" fill="#28311B"/>
<path d="M920.66 240.67C922.26 242.94 923.74 245.38 925.09 247.99C923.74 245.38 922.27 242.94 920.66 240.67Z" fill="#28311B"/>
<path d="M906.922 227.29C907.272 227.52 907.632 227.75 907.982 227.99C907.632 227.75 907.282 227.52 906.922 227.29Z" fill="#28311B"/>
<path d="M925.281 248.36C925.571 248.93 925.841 249.51 926.121 250.09C925.851 249.51 925.571 248.93 925.281 248.36Z" fill="#28311B"/>
<path d="M917.91 237.1C918.24 237.5 918.57 237.9 918.9 238.31C918.58 237.9 918.25 237.5 917.91 237.1Z" fill="#28311B"/>
<path d="M879.27 218.95C879.55 218.96 879.83 218.98 880.12 218.99C879.84 218.98 879.56 218.96 879.27 218.95Z" fill="#28311B"/>
<path d="M884.262 219.34C884.602 219.38 884.952 219.42 885.292 219.47C884.952 219.42 884.612 219.38 884.262 219.34Z" fill="#28311B"/>
<path d="M886.699 219.67C887.049 219.72 887.389 219.78 887.729 219.84C887.389 219.78 887.039 219.72 886.699 219.67Z" fill="#28311B"/>
<path d="M867.82 219.46C868.55 219.37 869.28 219.28 870.03 219.21C869.29 219.28 868.55 219.36 867.82 219.46Z" fill="#28311B"/>
<path d="M901.031 224C901.381 224.16 901.731 224.34 902.071 224.51C901.721 224.34 901.381 224.17 901.031 224Z" fill="#28311B"/>
<path d="M898.941 223.08C899.281 223.22 899.621 223.37 899.961 223.52C899.621 223.37 899.291 223.22 898.941 223.08Z" fill="#28311B"/>
<path d="M889.09 220.1C889.43 220.17 889.76 220.23 890.1 220.31C889.77 220.24 889.43 220.17 889.09 220.1Z" fill="#28311B"/>
<path d="M891.469 220.64C891.779 220.72 892.099 220.79 892.409 220.87C892.099 220.79 891.779 220.71 891.469 220.64Z" fill="#28311B"/>
<path d="M893.922 221.3C894.172 221.38 894.432 221.44 894.682 221.52C894.432 221.44 894.172 221.37 893.922 221.3Z" fill="#28311B"/>
<path d="M861.211 259.98H929.941C929.721 259.28 929.491 258.59 929.261 257.91C929.201 257.73 929.141 257.54 929.071 257.36C928.851 256.73 928.621 256.11 928.391 255.49C928.311 255.27 928.221 255.05 928.141 254.83C927.911 254.23 927.671 253.64 927.431 253.06C927.341 252.84 927.251 252.62 927.151 252.41C926.901 251.83 926.651 251.25 926.391 250.69C926.301 250.49 926.211 250.3 926.121 250.11C925.851 249.53 925.571 248.95 925.281 248.38C925.221 248.26 925.151 248.14 925.091 248.01C923.751 245.4 922.271 242.96 920.661 240.69C920.551 240.54 920.451 240.38 920.341 240.23C920.021 239.78 919.681 239.34 919.351 238.9C919.201 238.71 919.051 238.51 918.901 238.32C918.581 237.91 918.251 237.51 917.911 237.11C917.741 236.91 917.571 236.7 917.391 236.5C917.061 236.12 916.731 235.74 916.391 235.37C916.211 235.17 916.021 234.97 915.841 234.78C915.501 234.42 915.161 234.06 914.811 233.71C914.631 233.53 914.441 233.35 914.251 233.17C913.891 232.82 913.531 232.47 913.151 232.13C913.001 232 912.861 231.87 912.711 231.74C911.421 230.59 910.091 229.52 908.701 228.53C908.461 228.35 908.211 228.17 907.971 228C907.621 227.76 907.271 227.53 906.911 227.3C906.631 227.12 906.351 226.93 906.061 226.75C905.711 226.53 905.361 226.33 905.011 226.12C904.711 225.94 904.401 225.76 904.091 225.59C903.741 225.4 903.391 225.21 903.041 225.02C902.711 224.85 902.391 224.68 902.061 224.52C901.711 224.35 901.371 224.18 901.021 224.01C900.671 223.84 900.311 223.69 899.961 223.53C899.621 223.38 899.291 223.23 898.941 223.09C898.541 222.92 898.121 222.77 897.711 222.61C897.411 222.49 897.111 222.37 896.801 222.26C896.101 222.01 895.391 221.76 894.671 221.54C894.421 221.46 894.161 221.39 893.911 221.32C893.411 221.17 892.911 221.02 892.411 220.89C892.101 220.81 891.781 220.73 891.471 220.66C891.011 220.55 890.561 220.44 890.101 220.33C889.771 220.26 889.431 220.19 889.091 220.12C888.641 220.03 888.181 219.94 887.721 219.86C887.381 219.8 887.031 219.74 886.691 219.69C886.221 219.62 885.761 219.55 885.291 219.49C884.951 219.44 884.611 219.4 884.261 219.36C883.771 219.3 883.271 219.25 882.771 219.21C882.441 219.18 882.111 219.15 881.781 219.12C881.231 219.08 880.671 219.05 880.111 219.02C879.831 219.01 879.551 218.99 879.261 218.98C878.421 218.95 877.581 218.93 876.731 218.93C876.731 218.93 876.711 218.93 876.701 218.93C875.721 218.93 874.751 218.95 873.781 218.99C873.511 219 873.231 219.02 872.961 219.03C872.251 219.07 871.551 219.11 870.861 219.17C870.581 219.19 870.301 219.22 870.021 219.24C869.281 219.31 868.541 219.39 867.811 219.49C867.621 219.51 867.431 219.54 867.241 219.56C866.301 219.69 865.371 219.84 864.451 220.01C862.321 231.87 861.211 245.14 861.211 260V259.98Z" fill="#37471F"/>
<path d="M857.719 442.46H912.629V408.38H959.999V351.64L956.389 348.31L857.719 442.46Z" fill="#4C6B1F"/>
<path d="M912.629 442.46V540H959.999V442.46H912.629Z" fill="#28311B"/>
<path d="M959.999 408.38H912.629V442.45H959.999V408.38Z" fill="#37471F"/>
<path d="M881.692 303.48L876.952 303.62C876.952 303.62 876.022 303.65 874.362 303.69C868.532 303.86 853.642 304.27 837.862 304.65C822.082 305.02 805.392 305.36 795.992 305.36C793.692 305.36 791.832 305.34 790.552 305.3C790.112 305.29 789.752 305.27 789.472 305.25L787.692 303.47L732.512 403.65L733.942 406.24L735.372 408.83L789.662 310.27C791.072 310.34 793.222 310.36 796.002 310.37C806.862 310.37 827.112 309.93 844.682 309.5C856.242 309.21 866.622 308.93 872.382 308.76L786.072 443.25L844.232 540.01H850.062L791.962 443.34L881.702 303.49L881.692 303.48Z" fill="#28311B"/>
<path d="M733.93 406.23L732.5 403.64L725.19 390.37C724.09 391.47 636.43 388.9 636.43 388.9L724.45 526.07L716.08 540H763.58L712.71 444.75L733.93 406.23Z" fill="#4C6B1F"/>
<path d="M733.928 416.59L718.398 444.79L769.248 540H788.418L795.058 527.57L733.928 416.59Z" fill="#37471F"/>
<path d="M800.751 527.53L735.361 408.82L733.931 406.23L712.711 444.75L763.581 540H769.251L718.401 444.79L733.931 416.59L795.061 527.57L788.421 540H794.091L800.751 527.53Z" fill="#4C6B1F"/>
<path d="M547.22 233.13C531.24 264.31 517.42 306.06 510.73 355.57L696.36 354.74C703.11 315.53 715.23 272.65 732.93 232.3L547.21 233.12L547.22 233.13Z" fill="#37471F"/>
<path d="M544.4 228.5L544.38 228.52L543.78 228.88L543.46 229.5C526.6 261.99 512.1 305.73 505.39 357.74L505.25 358.85L506.76 360.59L700.58 359.73L700.93 357.65C707.73 317.14 720.37 272.44 739.05 230.81L740.64 227.27L545 228.14L544.4 228.5ZM696.36 354.75L510.73 355.58C517.42 306.06 531.24 264.32 547.22 233.14L732.94 232.32C715.23 272.67 703.12 315.55 696.37 354.76L696.36 354.75Z" fill="#28311B"/>
</g>
<defs>
<clipPath id="clip0_287_60945">
<rect width="960" height="540" fill="white"/>
</clipPath>
</defs>
</svg>
