<svg width="960" height="540" viewBox="0 0 960 540" fill="none" xmlns="http://www.w3.org/2000/svg">
<g clip-path="url(#clip0_287_61219)">
<path d="M174.941 540.01H215.911L198.781 484.93L174.941 540.01Z" fill="#693200"/>
<path d="M257.551 349.15L230.391 411.89H278.851L287.531 439.72L323.301 349.15H257.551Z" fill="#693200"/>
<path d="M872.362 308.76C866.612 308.92 856.222 309.21 844.662 309.5C827.092 309.94 806.832 310.37 795.982 310.37C793.202 310.37 791.052 310.34 789.642 310.27L735.352 408.83L800.742 527.54L794.082 540.01H844.212L786.052 443.25L872.362 308.76Z" fill="#693200"/>
<path d="M97.1405 0.00976562H46.3005L34.4805 84.8898L97.1405 0.00976562Z" fill="#693200"/>
<path d="M256.4 164.45L313.05 89.4799L284.68 48.2399L268.97 25.3999L178.68 51.4599L256.4 164.45Z" fill="#693200"/>
<path d="M929.94 259.99C931.08 263.66 932.03 267.56 932.76 271.7H820.1C829.3 238.92 843.83 223.93 864.41 220C874.39 164.5 907.36 140.8 959.99 139.11V90.2398C953.8 93.2598 947.22 95.7298 940.32 97.6498C927.15 101.36 913.51 103.12 898 103.12C882.49 103.12 867.6 101.36 853.96 97.5598C825.27 89.5798 802.39 72.7098 790.82 44.9798C785.62 32.4598 782.66 18.0898 782.66 0.649766C782.66 0.439766 782.66 0.229766 782.66 0.00976563H718.98L777.32 187.1H674.48L642.17 83.4998L640.72 87.1998L639.52 83.3798L637.28 89.0598H556.68L595.25 0.00976562H518.62L501.1 125.78H501.46H519.6H578.59L436.48 318.29L454.1 191.8H376.61L518.19 0.00976562H420.06L331.97 116.58L331.74 116.67L316.03 93.8298L258 170.62L255.26 171.64L171.84 50.3498L172.58 48.9998L172.71 48.7598L173.21 47.8398L265.99 21.0498L251.51 0.00976562H103.35L26.81 103.7L41.25 0.00976562H0V146.43H102.83V91.5098L196.98 190.19L102.83 292.09V237.17H0V340.59H108.54V540.01H169.49L196.5 477.61L176.01 411.89H224.95L254.27 344.15H330.66L289.91 447.33L318.81 540.02H401.51C400.69 539.32 399.89 538.6 399.11 537.86C386.41 525.74 378.78 509.22 378.78 485.88C378.78 462.54 386.69 444.89 399.74 432.54C405.46 427.09 412.3 422.69 419.93 419.21C434.12 412.69 451.55 409.59 469.62 409.59C480.92 409.59 491.61 410.77 501.42 413.18C502.54 412.79 503.67 412.42 504.82 412.07L505.53 411.86L506.24 412.06C507.41 412.4 508.57 412.76 509.72 413.13C519.19 410.72 529.38 409.58 540.1 409.58C550.82 409.58 561.67 410.88 571.42 413.63C592.32 419.46 609.38 431.95 618.01 452.61C621.93 462.01 624.18 473.2 624.18 485.89C624.18 498.58 621.92 509.43 618.07 518.69C614.54 527.12 609.57 534.18 603.53 540H716.1L724.47 526.07L636.45 388.9C636.45 388.9 724.11 391.47 725.21 390.37L732.52 403.64L787.7 303.46L789.48 305.24C789.76 305.26 790.12 305.28 790.56 305.29C791.83 305.33 793.7 305.35 796 305.35C805.4 305.35 822.09 305.02 837.87 304.64C853.65 304.27 868.54 303.85 874.37 303.68C876.04 303.63 876.96 303.61 876.96 303.61L881.7 303.47L791.96 443.32L850.06 539.99H912.65V442.45H857.73L956.41 348.3L960.02 351.63V259.97H929.96L929.94 259.99ZM360.74 351.11L359.71 348.37C353.84 332.82 343.7 319.54 330.41 309.97C316.84 300.2 300.89 295.04 284.3 295.04C267.71 295.04 251.77 300.2 238.19 309.97C224.9 319.54 214.76 332.81 208.89 348.37L207.86 351.11H149.24L150.43 345.93C157.46 315.36 174.48 287.64 198.35 267.88C210.29 258 223.61 250.3 237.95 245C252.8 239.51 268.39 236.73 284.3 236.73C300.21 236.73 315.81 239.51 330.65 245C344.99 250.3 358.32 258 370.26 267.88C394.13 287.64 411.14 315.35 418.18 345.93L419.37 351.11H360.75H360.74ZM739.04 230.82C720.36 272.45 707.72 317.15 700.92 357.66L700.57 359.74L506.75 360.6L505.24 358.86L505.38 357.75C512.08 305.74 526.58 262 543.45 229.51L543.77 228.89L544.37 228.53L544.39 228.51L544.99 228.15L740.63 227.28L739.04 230.82Z" fill="#693200"/>
<path d="M454.109 191.8L463.299 125.78H463.659H501.099L518.619 0.00976562H518.189L376.609 191.8H454.109Z" fill="#3A2C1F"/>
<path d="M491.908 191.8H454.468L463.658 125.78H463.298L454.108 191.8L436.488 318.29L578.598 125.78H519.608H501.468L492.268 191.8H491.908Z" fill="#3A2C1F"/>
<path d="M463.659 125.78L454.469 191.8H491.909H492.269L501.469 125.78H501.099H463.659Z" fill="#3A2C1F"/>
<path d="M637.299 89.0598L639.539 83.3798L613.329 0.00976562H595.249L556.699 89.0598H637.299Z" fill="#3A2C1F"/>
<path d="M674.501 187.1H777.341L719.001 0.00976562H674.901L642.191 83.5098L674.501 187.1Z" fill="#3A2C1F"/>
<path d="M669.53 0.00976562H618.57L641.26 72.1798L669.53 0.00976562Z" fill="#693200"/>
<path d="M640.738 87.1998L642.188 83.5098L674.898 0.00976562H669.528L641.258 72.1798L618.568 0.00976562H613.328L639.538 83.3798L640.738 87.1998Z" fill="#3A2C1F"/>
<path d="M197.658 481.32L196.498 477.61L169.488 540.01H174.938L198.778 484.93L197.658 481.32Z" fill="#3A2C1F"/>
<path d="M257.551 349.15H323.301L287.531 439.72L289.901 447.32L330.651 344.15H254.261L224.941 411.89H230.391L257.551 349.15Z" fill="#3A2C1F"/>
<path d="M287.531 439.72L278.851 411.89L288.501 442.84L250.441 540.01H318.801L289.901 447.32L287.531 439.72Z" fill="#9E4C00"/>
<path d="M227.692 412.01L278.852 411.89H230.392H224.942H176.012L196.502 477.61L197.662 481.32L227.692 412.01Z" fill="#9E4C00"/>
<path d="M275.17 416.9L230.97 417L202.98 481.6L221.15 540.01H245.07L283.2 442.65L275.17 416.9Z" fill="#693200"/>
<path d="M278.85 411.89L227.69 412.01L197.66 481.32L198.78 484.93L215.91 540.01H221.15L202.98 481.6L230.97 417L275.17 416.9L283.2 442.65L245.07 540.01H250.44L288.5 442.84L278.85 411.89Z" fill="#9E4C00"/>
<path d="M314.53 91.6398L313.05 89.4798L256.4 164.45L178.68 51.4598L268.97 25.3998L265.98 21.0498L173.21 47.8398L172.71 48.7598L172.58 48.9898L171.84 50.3398L255.26 171.63L258.01 170.61L316.04 93.8298L314.53 91.6398Z" fill="#3A2C1F"/>
<path d="M316.041 93.8298L331.741 116.66L331.981 116.58L420.061 0.00976562H383.781L314.531 91.6398L316.041 93.8298Z" fill="#9E4C00"/>
<path d="M268.972 25.3998L284.682 48.2398L267.472 23.2198L347.842 0.00976562H251.512L265.982 21.0498L268.972 25.3998Z" fill="#9E4C00"/>
<path d="M314.73 83.0998L377.51 0.00976562H365.86L275.52 26.0998L314.73 83.0998Z" fill="#693200"/>
<path d="M284.679 48.2398L313.049 89.4798L314.529 91.6398L383.779 0.00976562H377.509L314.729 83.0998L275.519 26.0998L365.859 0.00976562H347.839L267.469 23.2198L284.679 48.2398Z" fill="#9E4C00"/>
<path d="M370.25 267.88C358.31 258 344.99 250.3 330.64 245C315.79 239.51 300.2 236.73 284.29 236.73C268.38 236.73 252.78 239.51 237.94 245C223.6 250.3 210.27 258 198.34 267.88C174.47 287.64 157.46 315.35 150.42 345.93L149.23 351.11H207.85L208.88 348.37C214.76 332.82 224.89 319.54 238.18 309.97C251.75 300.2 267.7 295.04 284.29 295.04C300.88 295.04 316.82 300.2 330.4 309.97C343.69 319.54 353.83 332.81 359.7 348.37L360.73 351.11H419.35L418.16 345.93C411.13 315.36 394.11 287.64 370.24 267.88H370.25Z" fill="#3A2C1F"/>
<path d="M136.908 237.17H102.828V292.09L196.978 190.19L102.828 91.52V146.43H136.908V237.17Z" fill="#3A2C1F"/>
<path d="M102.83 146.43H0V237.17H102.83V146.43Z" fill="#3A2C1F"/>
<path d="M136.898 146.43H102.828V237.17H136.898V146.43Z" fill="#693200"/>
<path d="M103.349 0.00976562H97.1386L34.4786 84.8898L46.2986 0.00976562H41.2486L26.8086 103.7L103.349 0.00976562Z" fill="#3A2C1F"/>
<path d="M0 345.59V439.44H28.45V540.01H103.54V345.59H0Z" fill="#693200"/>
<path d="M0 340.59V345.59H103.54V540.01H108.54V340.59H0Z" fill="#3A2C1F"/>
<path d="M28.45 439.44H0V540.01H28.45V439.44Z" fill="#9E4C00"/>
<path d="M790.83 44.97C802.4 72.7 825.28 89.57 853.97 97.55C867.6 101.35 882.49 103.11 898.01 103.11C913.53 103.11 927.16 101.35 940.33 97.64C947.23 95.72 953.82 93.26 960 90.23V37.22C958.38 39.4 956.6 41.43 954.66 43.31C949.76 48.08 943.87 51.85 937.24 54.76C925.94 59.71 912.43 62.13 897.67 62.13V62.07C882.61 62.07 868.71 59.59 857.06 54.39C850.61 51.54 844.9 47.89 840.05 43.31C829.67 33.4 823.44 19.91 823.44 0.84C823.44 0.56 823.46 0.28 823.46 0H782.68C782.68 0.21 782.68 0.42 782.68 0.64C782.68 18.08 785.64 32.45 790.84 44.97H790.83Z" fill="#3A2C1F"/>
<path d="M840.052 43.32C844.902 47.9 850.612 51.55 857.062 54.4C868.712 59.6 882.612 62.08 897.672 62.08V62.14C912.432 62.14 925.932 59.72 937.242 54.77C943.872 51.86 949.762 48.08 954.662 43.32C956.602 41.44 958.382 39.41 960.002 37.23V0.01H938.492C938.492 0.15 938.492 0.29 938.492 0.43C938.492 6.55 937.392 11.87 935.492 16.43L935.522 16.37L935.492 16.44C933.352 21.54 930.142 25.69 926.182 28.89C922.232 32.09 917.552 34.34 912.472 35.75C907.752 37.08 902.882 37.7 897.422 37.7C891.972 37.7 886.712 37.08 881.822 35.72C876.682 34.29 871.992 32.04 868.032 28.85C864.072 25.66 860.872 21.51 858.752 16.43C856.862 11.86 855.802 6.62 855.802 0.42C855.802 0.28 855.802 0.14 855.802 0H823.442C823.442 0.28 823.422 0.55 823.422 0.84C823.422 19.91 829.652 33.41 840.032 43.31L840.052 43.32Z" fill="#693200"/>
<path d="M863.38 14.5098C865.19 18.8398 867.84 22.2598 871.18 24.9598C874.52 27.6598 878.58 29.6298 883.17 30.8998C887.54 32.1198 892.36 32.6998 897.43 32.6998C902.52 32.6998 906.88 32.1298 911.13 30.9398C915.66 29.6798 919.69 27.7098 923.04 24.9998C926.38 22.2898 929.05 18.8498 930.88 14.5098C932.51 10.5798 933.49 5.94977 933.49 0.429766C933.49 0.289766 933.49 0.149766 933.49 0.00976562H860.82C860.82 0.149766 860.82 0.289766 860.82 0.429766C860.82 6.06977 861.76 10.5798 863.39 14.5098H863.38Z" fill="#693200"/>
<path d="M858.76 16.43C860.88 21.52 864.08 25.66 868.04 28.85C872 32.04 876.69 34.29 881.83 35.72C886.72 37.08 891.98 37.7 897.43 37.7C902.89 37.7 907.76 37.08 912.48 35.75C917.56 34.34 922.23 32.09 926.19 28.89C930.15 25.69 933.36 21.54 935.5 16.44L935.53 16.37L935.5 16.43C937.39 11.87 938.5 6.55 938.5 0.43C938.5 0.29 938.5 0.15 938.5 0.01H933.5C933.5 0.15 933.5 0.29 933.5 0.43C933.5 5.95 932.51 10.57 930.89 14.51C929.06 18.85 926.39 22.29 923.05 25C919.71 27.71 915.67 29.67 911.14 30.93C906.89 32.12 902.53 32.69 897.44 32.69C892.37 32.69 887.55 32.11 883.18 30.89C878.58 29.61 874.53 27.64 871.19 24.95C867.85 22.25 865.2 18.83 863.39 14.5C861.77 10.57 860.83 6.05 860.82 0.42C860.82 0.28 860.82 0.14 860.82 0H855.82C855.82 0.14 855.82 0.28 855.82 0.42C855.82 6.61 856.87 11.85 858.77 16.42L858.76 16.43Z" fill="#3A2C1F"/>
<path d="M618.049 518.7C621.899 509.44 624.159 498.59 624.159 485.9C624.159 473.21 621.899 462.02 617.989 452.62C609.359 431.96 592.309 419.47 571.399 413.64C561.639 410.9 551.029 409.59 540.079 409.59C529.129 409.59 519.169 410.73 509.699 413.14C512.929 414.2 516.049 415.39 519.049 416.74C527.109 420.33 534.419 425.02 540.519 430.94C547.209 437.37 552.509 445.34 556.129 454.61C559.749 463.88 561.679 474.44 561.679 486.08C561.679 497.71 559.799 508 556.279 516.96C552.759 525.92 547.589 533.55 541.099 539.85C541.039 539.91 540.969 539.96 540.909 540.02H603.519C609.569 534.19 614.529 527.13 618.059 518.71L618.049 518.7Z" fill="#3A2C1F"/>
<path d="M458.46 519.84C454.48 510.26 452.23 499.26 452.23 486.08C452.23 472.9 454.47 461.57 458.53 451.84C462.83 441.54 469.2 433.13 477.1 426.55C484.13 420.69 492.36 416.29 501.41 413.17C491.6 410.76 480.91 409.58 469.61 409.58C451.54 409.58 434.11 412.69 419.92 419.2C412.3 422.69 405.45 427.08 399.73 432.53C386.67 444.88 378.77 462.53 378.77 485.87C378.77 509.21 386.39 525.72 399.1 537.85C399.88 538.59 400.69 539.31 401.5 540.01H471.57C466.17 534.35 461.72 527.65 458.46 519.85V519.84Z" fill="#9E4C00"/>
<path d="M537.598 536.25C543.598 530.43 548.338 523.43 551.608 515.12C554.878 506.81 556.668 497.17 556.668 486.07C556.668 474.98 554.828 465.05 551.458 456.42C548.088 447.79 543.188 440.45 537.038 434.54C531.428 429.09 524.618 424.69 517.008 421.31C513.388 419.68 509.558 418.28 505.548 417.09C495.978 420.07 487.428 424.46 480.298 430.4C472.988 436.49 467.148 444.2 463.148 453.77C459.378 462.83 457.238 473.47 457.238 486.09C457.238 498.71 459.368 508.99 463.088 517.93C466.818 526.85 472.158 534.13 478.788 540.01H533.348C534.828 538.82 536.258 537.57 537.608 536.25H537.598Z" fill="#693200"/>
<path d="M556.271 516.95C559.791 507.99 561.681 497.7 561.671 486.07C561.671 474.43 559.741 463.87 556.121 454.6C552.501 445.33 547.201 437.36 540.511 430.93C534.411 425.02 527.101 420.32 519.041 416.73C516.041 415.38 512.911 414.18 509.691 413.13C508.541 412.75 507.381 412.4 506.211 412.06L505.501 411.86L504.791 412.07C503.641 412.42 502.521 412.79 501.391 413.18C492.341 416.29 484.111 420.7 477.081 426.56C469.181 433.14 462.811 441.54 458.511 451.85C454.461 461.59 452.211 472.91 452.211 486.09C452.211 499.27 454.461 510.27 458.441 519.85C461.691 527.66 466.151 534.36 471.551 540.02H478.761C472.131 534.14 466.781 526.86 463.061 517.94C459.351 508.99 457.211 498.72 457.211 486.1C457.211 473.48 459.351 462.85 463.121 453.78C467.121 444.21 472.971 436.5 480.271 430.41C487.401 424.47 495.951 420.08 505.521 417.1C509.521 418.29 513.351 419.69 516.981 421.31C524.591 424.7 531.391 429.09 537.011 434.54C543.161 440.47 548.061 447.8 551.431 456.43C554.801 465.06 556.641 474.99 556.641 486.08C556.641 497.18 554.851 506.82 551.581 515.13C548.311 523.44 543.561 530.44 537.571 536.26C536.221 537.58 534.791 538.83 533.311 540.02H540.871C540.931 539.96 541.001 539.91 541.061 539.85C547.551 533.55 552.721 525.92 556.241 516.96L556.271 516.95Z" fill="#3A2C1F"/>
<path d="M519.039 416.73H519.049V416.74L519.039 416.73Z" fill="#3A2C1F"/>
<path d="M864.422 220C864.422 220 864.442 220 864.452 220C865.372 219.83 866.302 219.68 867.242 219.55C867.432 219.52 867.622 219.5 867.812 219.48C868.542 219.39 869.272 219.3 870.022 219.23C870.302 219.2 870.582 219.18 870.862 219.16C871.552 219.1 872.252 219.06 872.962 219.02C873.232 219.01 873.502 218.99 873.782 218.98C874.742 218.94 875.712 218.92 876.702 218.92C876.702 218.92 876.722 218.92 876.732 218.92C877.582 218.92 878.422 218.94 879.262 218.97C879.542 218.98 879.822 219 880.112 219.01C880.672 219.04 881.232 219.07 881.782 219.11C882.112 219.14 882.442 219.17 882.772 219.2C883.272 219.25 883.772 219.29 884.262 219.35C884.602 219.39 884.952 219.43 885.292 219.48C885.762 219.54 886.232 219.61 886.692 219.68C887.042 219.73 887.382 219.79 887.722 219.85C888.182 219.93 888.632 220.02 889.092 220.11C889.432 220.18 889.762 220.24 890.102 220.32C890.562 220.42 891.022 220.53 891.472 220.65C891.782 220.73 892.102 220.8 892.412 220.88C892.922 221.01 893.412 221.16 893.912 221.31C894.162 221.39 894.422 221.45 894.672 221.53C895.392 221.76 896.102 222 896.802 222.25C897.112 222.36 897.412 222.48 897.712 222.6C898.122 222.76 898.532 222.91 898.942 223.08C899.282 223.22 899.622 223.37 899.962 223.52C900.322 223.68 900.672 223.83 901.022 224C901.372 224.16 901.722 224.34 902.062 224.51C902.392 224.67 902.722 224.84 903.042 225.01C903.392 225.2 903.742 225.39 904.092 225.58C904.402 225.75 904.702 225.93 905.012 226.11C905.362 226.32 905.712 226.52 906.062 226.74C906.352 226.92 906.632 227.1 906.912 227.29C907.262 227.52 907.622 227.75 907.972 227.99C908.222 228.16 908.462 228.34 908.702 228.52C910.082 229.51 911.422 230.58 912.712 231.73C912.862 231.86 913.012 231.99 913.152 232.12C913.522 232.46 913.882 232.81 914.252 233.16C914.442 233.34 914.622 233.52 914.812 233.7C915.162 234.05 915.502 234.41 915.842 234.77C916.022 234.97 916.212 235.16 916.392 235.36C916.732 235.73 917.062 236.11 917.392 236.49C917.562 236.69 917.732 236.89 917.912 237.1C918.242 237.5 918.572 237.9 918.902 238.31C919.052 238.5 919.202 238.7 919.352 238.89C919.692 239.33 920.022 239.77 920.342 240.22C920.452 240.37 920.552 240.53 920.662 240.68C922.262 242.95 923.742 245.39 925.092 248C925.152 248.12 925.222 248.24 925.282 248.37C925.572 248.94 925.842 249.52 926.122 250.1C926.212 250.29 926.302 250.49 926.392 250.68C926.652 251.25 926.902 251.82 927.152 252.4C927.242 252.62 927.342 252.84 927.432 253.05C927.672 253.63 927.912 254.22 928.142 254.82C928.222 255.04 928.312 255.26 928.392 255.48C928.622 256.1 928.852 256.72 929.072 257.35C929.132 257.53 929.192 257.72 929.262 257.9C929.492 258.58 929.722 259.27 929.942 259.97H960.002V139.09C907.382 140.78 874.402 164.49 864.422 219.98V220Z" fill="#9E4C00"/>
<path d="M874.579 259.99H861.209C861.209 245.13 862.319 231.86 864.449 220C864.439 220 864.429 220 864.419 220C843.829 223.93 829.299 238.91 820.109 271.7H932.769C932.039 267.56 931.089 263.66 929.949 259.99H874.579Z" fill="#3A2C1F"/>
<path d="M920.66 240.68C922.26 242.95 923.74 245.39 925.09 248C923.74 245.39 922.27 242.95 920.66 240.68Z" fill="#3A2C1F"/>
<path d="M919.34 238.9C919.68 239.34 920.01 239.78 920.33 240.23C920 239.78 919.67 239.34 919.34 238.9Z" fill="#3A2C1F"/>
<path d="M926.391 250.68C926.651 251.25 926.901 251.82 927.151 252.4C926.901 251.82 926.651 251.24 926.391 250.68Z" fill="#3A2C1F"/>
<path d="M901.031 224.01C901.381 224.17 901.731 224.35 902.071 224.52C901.721 224.35 901.381 224.18 901.031 224.01Z" fill="#3A2C1F"/>
<path d="M917.91 237.11C918.24 237.51 918.57 237.91 918.9 238.32C918.58 237.91 918.25 237.51 917.91 237.11Z" fill="#3A2C1F"/>
<path d="M898.941 223.09C899.281 223.23 899.621 223.38 899.961 223.53C899.621 223.38 899.291 223.23 898.941 223.09Z" fill="#3A2C1F"/>
<path d="M879.27 218.96C879.55 218.97 879.83 218.99 880.12 219C879.84 218.99 879.56 218.97 879.27 218.96Z" fill="#3A2C1F"/>
<path d="M884.262 219.35C884.602 219.39 884.952 219.43 885.292 219.48C884.952 219.43 884.612 219.39 884.262 219.35Z" fill="#3A2C1F"/>
<path d="M906.922 227.3C907.272 227.53 907.632 227.76 907.982 228C907.632 227.76 907.282 227.53 906.922 227.3Z" fill="#3A2C1F"/>
<path d="M893.922 221.31C894.172 221.39 894.432 221.45 894.682 221.53C894.432 221.45 894.172 221.38 893.922 221.31Z" fill="#3A2C1F"/>
<path d="M889.09 220.11C889.43 220.18 889.76 220.24 890.1 220.32C889.77 220.25 889.43 220.18 889.09 220.11Z" fill="#3A2C1F"/>
<path d="M891.469 220.65C891.779 220.73 892.099 220.8 892.409 220.88C892.099 220.8 891.779 220.72 891.469 220.65Z" fill="#3A2C1F"/>
<path d="M886.699 219.68C887.049 219.73 887.389 219.79 887.729 219.85C887.389 219.79 887.039 219.73 886.699 219.68Z" fill="#3A2C1F"/>
<path d="M867.82 219.47C868.55 219.38 869.28 219.29 870.03 219.22C869.29 219.29 868.55 219.37 867.82 219.47Z" fill="#3A2C1F"/>
<path d="M913.16 232.13C913.53 232.47 913.89 232.82 914.26 233.17C913.9 232.82 913.54 232.47 913.16 232.13Z" fill="#3A2C1F"/>
<path d="M908.711 228.53C910.091 229.52 911.431 230.59 912.721 231.74C911.431 230.59 910.101 229.52 908.711 228.53Z" fill="#3A2C1F"/>
<path d="M925.281 248.37C925.571 248.94 925.841 249.52 926.121 250.1C925.851 249.52 925.571 248.94 925.281 248.37Z" fill="#3A2C1F"/>
<path d="M876.739 218.91C876.739 218.91 876.719 218.91 876.709 218.91C875.729 218.91 874.759 218.93 873.789 218.97C874.749 218.93 875.719 218.91 876.709 218.91C876.719 218.91 876.729 218.91 876.739 218.91Z" fill="#3A2C1F"/>
<path d="M929.261 257.91C929.201 257.73 929.141 257.54 929.071 257.36C928.851 256.73 928.621 256.11 928.391 255.49C928.311 255.27 928.221 255.05 928.141 254.83C927.911 254.23 927.671 253.64 927.431 253.06C927.341 252.84 927.251 252.62 927.151 252.41C926.901 251.83 926.651 251.25 926.391 250.69C926.301 250.49 926.211 250.3 926.121 250.11C925.851 249.53 925.571 248.95 925.281 248.38C925.221 248.26 925.151 248.14 925.091 248.01C923.751 245.4 922.271 242.96 920.661 240.69C920.551 240.54 920.451 240.38 920.341 240.23C920.021 239.78 919.681 239.34 919.351 238.9C919.201 238.71 919.051 238.51 918.901 238.32C918.581 237.91 918.251 237.51 917.911 237.11C917.741 236.91 917.571 236.7 917.391 236.5C917.061 236.12 916.731 235.74 916.391 235.37C916.211 235.17 916.021 234.97 915.841 234.78C915.501 234.42 915.161 234.06 914.811 233.71C914.631 233.53 914.441 233.35 914.251 233.17C913.891 232.82 913.531 232.47 913.151 232.13C913.001 232 912.861 231.87 912.711 231.74C911.421 230.59 910.091 229.52 908.701 228.53C908.461 228.35 908.211 228.17 907.971 228C907.621 227.76 907.271 227.53 906.911 227.3C906.631 227.12 906.351 226.93 906.061 226.75C905.711 226.53 905.361 226.33 905.011 226.12C904.711 225.94 904.401 225.76 904.091 225.59C903.741 225.4 903.391 225.21 903.041 225.02C902.711 224.85 902.391 224.68 902.061 224.52C901.711 224.35 901.371 224.18 901.021 224.01C900.671 223.84 900.311 223.69 899.961 223.53C899.621 223.38 899.291 223.23 898.941 223.09C898.541 222.92 898.121 222.77 897.711 222.61C897.411 222.49 897.111 222.37 896.801 222.26C896.101 222.01 895.391 221.76 894.671 221.54C894.421 221.46 894.161 221.39 893.911 221.32C893.411 221.17 892.911 221.02 892.411 220.89C892.101 220.81 891.781 220.73 891.471 220.66C891.011 220.55 890.561 220.44 890.101 220.33C889.771 220.26 889.431 220.19 889.091 220.12C888.641 220.03 888.181 219.94 887.721 219.86C887.381 219.8 887.031 219.74 886.691 219.69C886.221 219.62 885.761 219.55 885.291 219.49C884.951 219.44 884.611 219.4 884.261 219.36C883.771 219.3 883.271 219.25 882.771 219.21C882.441 219.18 882.111 219.15 881.781 219.12C881.231 219.08 880.671 219.05 880.111 219.02C879.831 219.01 879.551 218.99 879.261 218.98C878.421 218.95 877.581 218.93 876.731 218.93C876.731 218.93 876.711 218.93 876.701 218.93C875.721 218.93 874.751 218.95 873.781 218.99C873.511 219 873.231 219.02 872.961 219.03C872.251 219.07 871.551 219.11 870.861 219.17C870.581 219.19 870.301 219.22 870.021 219.24C869.281 219.31 868.541 219.39 867.811 219.49C867.621 219.51 867.431 219.54 867.241 219.56C866.301 219.69 865.371 219.84 864.451 220.01C862.321 231.87 861.211 245.14 861.211 260H929.941C929.721 259.3 929.491 258.61 929.261 257.93V257.91Z" fill="#693200"/>
<path d="M857.719 442.47H912.629V408.39H959.999V351.65L956.389 348.32L857.719 442.47Z" fill="#9E4C00"/>
<path d="M912.629 442.47V540.01H959.999V442.47H912.629Z" fill="#3A2C1F"/>
<path d="M959.999 408.39H912.629V442.46H959.999V408.39Z" fill="#693200"/>
<path d="M881.692 303.49L876.952 303.63C876.952 303.63 876.022 303.66 874.362 303.7C868.532 303.87 853.642 304.28 837.862 304.66C822.082 305.03 805.392 305.37 795.992 305.37C793.692 305.37 791.832 305.35 790.552 305.31C790.112 305.3 789.752 305.28 789.472 305.26L787.692 303.48L732.512 403.66L733.942 406.25L735.372 408.84L789.662 310.28C791.072 310.35 793.222 310.37 796.002 310.38C806.862 310.38 827.112 309.94 844.682 309.51C856.242 309.22 866.622 308.94 872.382 308.77L786.072 443.26L844.232 540.02H850.062L791.962 443.35L881.702 303.5L881.692 303.49Z" fill="#3A2C1F"/>
<path d="M733.93 406.24L732.5 403.65L725.19 390.38C724.09 391.48 636.43 388.91 636.43 388.91L724.45 526.08L716.08 540.01H763.58L712.71 444.76L733.93 406.24Z" fill="#9E4C00"/>
<path d="M733.928 416.6L718.398 444.8L769.248 540.01H788.418L795.058 527.58L733.928 416.6Z" fill="#693200"/>
<path d="M800.751 527.54L735.361 408.83L733.931 406.24L712.711 444.76L763.581 540.01H769.251L718.401 444.8L733.931 416.6L795.061 527.58L788.421 540.01H794.091L800.751 527.54Z" fill="#9E4C00"/>
<path d="M547.22 233.14C531.24 264.32 517.42 306.07 510.73 355.58L696.36 354.75C703.11 315.54 715.23 272.66 732.93 232.31L547.21 233.13L547.22 233.14Z" fill="#693200"/>
<path d="M544.4 228.51L544.38 228.53L543.78 228.89L543.46 229.51C526.6 262 512.1 305.74 505.39 357.75L505.25 358.86L506.76 360.6L700.58 359.74L700.93 357.66C707.73 317.15 720.37 272.45 739.05 230.82L740.64 227.28L545 228.15L544.4 228.51ZM696.36 354.76L510.73 355.59C517.42 306.07 531.24 264.33 547.22 233.15L732.94 232.33C715.23 272.68 703.12 315.56 696.37 354.77L696.36 354.76Z" fill="#3A2C1F"/>
</g>
<defs>
<clipPath id="clip0_287_61219">
<rect width="960" height="540" fill="white"/>
</clipPath>
</defs>
</svg>
