<?xml version="1.0" encoding="UTF-8"?>
<svg xmlns="http://www.w3.org/2000/svg" xmlns:xlink="http://www.w3.org/1999/xlink" width="854" height="480" viewBox="0 0 854 480">
<defs>
<g>
<g id="glyph-0-0">
<path d="M 4.296875 -7.648438 C 4.757812 -7.648438 5.226562 -7.5625 5.703125 -7.390625 C 6.175781 -7.21875 6.4375 -7.132812 6.492188 -7.132812 C 6.632812 -7.132812 6.746094 -7.1875 6.832031 -7.296875 C 6.917969 -7.40625 6.972656 -7.519531 6.992188 -7.636719 L 7.300781 -7.636719 L 7.300781 -5.039062 L 7.019531 -5.039062 C 6.753906 -5.605469 6.480469 -6.050781 6.199219 -6.375 C 5.679688 -6.976562 5.089844 -7.273438 4.433594 -7.273438 C 3.6875 -7.273438 3.160156 -6.953125 2.84375 -6.3125 C 2.53125 -5.671875 2.375 -4.808594 2.375 -3.726562 C 2.375 -2.929688 2.46875 -2.277344 2.652344 -1.761719 C 2.996094 -0.800781 3.632812 -0.320312 4.566406 -0.320312 C 5.140625 -0.320312 5.671875 -0.480469 6.164062 -0.796875 C 6.445312 -0.980469 6.777344 -1.277344 7.160156 -1.683594 L 7.492188 -1.410156 C 7.058594 -0.925781 6.675781 -0.574219 6.347656 -0.359375 C 5.761719 0.0273438 5.109375 0.222656 4.394531 0.222656 C 3.296875 0.222656 2.378906 -0.101562 1.636719 -0.753906 C 0.816406 -1.472656 0.40625 -2.441406 0.40625 -3.660156 C 0.40625 -4.871094 0.800781 -5.847656 1.585938 -6.597656 C 2.324219 -7.296875 3.226562 -7.648438 4.296875 -7.648438 Z "/>
</g>
<g id="glyph-0-1">
<path d="M 0.242188 -2.542969 C 0.242188 -3.316406 0.480469 -3.964844 0.957031 -4.480469 C 1.433594 -4.996094 2.03125 -5.257812 2.75 -5.257812 C 3.484375 -5.257812 4.085938 -4.992188 4.554688 -4.464844 C 5.023438 -3.9375 5.257812 -3.296875 5.257812 -2.542969 C 5.257812 -1.800781 5.023438 -1.164062 4.5625 -0.632812 C 4.097656 -0.0976562 3.496094 0.167969 2.75 0.167969 C 2.027344 0.167969 1.429688 -0.0898438 0.953125 -0.609375 C 0.480469 -1.128906 0.242188 -1.773438 0.242188 -2.542969 Z M 1.878906 -2.542969 C 1.878906 -1.765625 1.917969 -1.222656 1.996094 -0.910156 C 2.121094 -0.429688 2.375 -0.191406 2.75 -0.191406 C 3.109375 -0.191406 3.34375 -0.375 3.457031 -0.742188 C 3.566406 -1.113281 3.625 -1.710938 3.625 -2.542969 C 3.625 -3.371094 3.566406 -3.972656 3.449219 -4.34375 C 3.332031 -4.714844 3.097656 -4.898438 2.757812 -4.898438 C 2.378906 -4.898438 2.128906 -4.660156 2 -4.175781 C 1.917969 -3.855469 1.878906 -3.3125 1.878906 -2.542969 Z "/>
</g>
<g id="glyph-0-2">
<path d="M 0.179688 -0.265625 C 0.382812 -0.292969 0.519531 -0.335938 0.597656 -0.394531 C 0.71875 -0.492188 0.78125 -0.675781 0.78125 -0.9375 L 0.78125 -4.203125 C 0.78125 -4.433594 0.738281 -4.59375 0.65625 -4.675781 C 0.574219 -4.757812 0.414062 -4.816406 0.179688 -4.84375 L 0.179688 -5.117188 L 2.285156 -5.117188 L 2.285156 -4.316406 C 2.46875 -4.558594 2.648438 -4.75 2.820312 -4.882812 C 3.144531 -5.125 3.5 -5.246094 3.894531 -5.246094 C 4.339844 -5.246094 4.683594 -5.140625 4.929688 -4.929688 C 5.066406 -4.8125 5.199219 -4.617188 5.320312 -4.34375 L 5.398438 -4.34375 C 5.609375 -4.601562 5.808594 -4.796875 6 -4.925781 C 6.304688 -5.140625 6.632812 -5.246094 6.992188 -5.246094 C 7.382812 -5.246094 7.726562 -5.121094 8.027344 -4.871094 C 8.324219 -4.621094 8.472656 -4.226562 8.472656 -3.6875 L 8.472656 -0.894531 C 8.472656 -0.636719 8.515625 -0.476562 8.597656 -0.402344 C 8.679688 -0.332031 8.828125 -0.289062 9.039062 -0.265625 L 9.039062 0 L 6.402344 0 L 6.402344 -0.265625 C 6.605469 -0.292969 6.746094 -0.34375 6.824219 -0.414062 C 6.902344 -0.484375 6.945312 -0.644531 6.945312 -0.894531 L 6.945312 -3.585938 C 6.945312 -3.875 6.902344 -4.097656 6.816406 -4.257812 C 6.730469 -4.417969 6.570312 -4.496094 6.332031 -4.496094 C 6.140625 -4.496094 5.9375 -4.410156 5.726562 -4.234375 C 5.515625 -4.058594 5.410156 -3.9375 5.410156 -3.867188 L 5.410156 -0.894531 C 5.410156 -0.652344 5.445312 -0.496094 5.515625 -0.429688 C 5.589844 -0.359375 5.726562 -0.304688 5.925781 -0.265625 L 5.925781 0 L 3.324219 0 L 3.324219 -0.265625 C 3.519531 -0.292969 3.660156 -0.339844 3.742188 -0.410156 C 3.824219 -0.480469 3.867188 -0.640625 3.867188 -0.894531 L 3.867188 -3.585938 C 3.867188 -3.867188 3.828125 -4.089844 3.75 -4.253906 C 3.667969 -4.417969 3.503906 -4.496094 3.253906 -4.496094 C 3.027344 -4.496094 2.816406 -4.402344 2.621094 -4.21875 C 2.425781 -4.03125 2.328125 -3.914062 2.328125 -3.867188 L 2.328125 -0.894531 C 2.328125 -0.652344 2.363281 -0.496094 2.429688 -0.429688 C 2.5 -0.359375 2.632812 -0.304688 2.835938 -0.265625 L 2.835938 0 L 0.179688 0 Z "/>
</g>
<g id="glyph-0-3">
<path d="M 3.25 -0.460938 C 3.652344 -0.460938 3.921875 -0.726562 4.0625 -1.257812 C 4.140625 -1.550781 4.175781 -1.972656 4.175781 -2.523438 C 4.175781 -3.160156 4.121094 -3.667969 4.003906 -4.042969 C 3.886719 -4.421875 3.652344 -4.609375 3.296875 -4.609375 C 3.058594 -4.609375 2.847656 -4.507812 2.660156 -4.296875 C 2.472656 -4.085938 2.375 -3.933594 2.375 -3.839844 L 2.375 -1.140625 C 2.375 -1.03125 2.464844 -0.890625 2.644531 -0.71875 C 2.824219 -0.546875 3.023438 -0.460938 3.25 -0.460938 Z M 0.199219 2.023438 C 0.4375 2 0.601562 1.941406 0.6875 1.859375 C 0.773438 1.773438 0.820312 1.613281 0.820312 1.378906 L 0.820312 -4.203125 C 0.820312 -4.433594 0.777344 -4.59375 0.695312 -4.671875 C 0.613281 -4.753906 0.460938 -4.8125 0.226562 -4.84375 L 0.226562 -5.117188 L 2.347656 -5.117188 L 2.347656 -4.382812 C 2.5 -4.636719 2.648438 -4.824219 2.792969 -4.941406 C 3.054688 -5.152344 3.386719 -5.257812 3.792969 -5.257812 C 4.375 -5.257812 4.859375 -5.039062 5.242188 -4.601562 C 5.628906 -4.164062 5.820312 -3.511719 5.820312 -2.640625 C 5.820312 -1.835938 5.613281 -1.167969 5.199219 -0.636719 C 4.785156 -0.105469 4.28125 0.15625 3.6875 0.15625 C 3.382812 0.15625 3.097656 0.0703125 2.828125 -0.109375 C 2.683594 -0.203125 2.53125 -0.335938 2.375 -0.511719 L 2.375 0.429688 C 2.378906 0.929688 2.382812 1.207031 2.386719 1.269531 C 2.414062 1.5625 2.488281 1.761719 2.613281 1.871094 C 2.738281 1.980469 2.945312 2.042969 3.238281 2.0625 L 3.238281 2.289062 L 0.199219 2.289062 Z "/>
</g>
<g id="glyph-0-4">
<path d="M 0.179688 -0.265625 C 0.382812 -0.292969 0.53125 -0.347656 0.625 -0.429688 C 0.722656 -0.515625 0.769531 -0.683594 0.769531 -0.9375 L 0.769531 -4.203125 C 0.769531 -4.429688 0.730469 -4.585938 0.652344 -4.671875 C 0.574219 -4.757812 0.417969 -4.816406 0.179688 -4.84375 L 0.179688 -5.117188 L 2.285156 -5.117188 L 2.285156 -4.316406 C 2.460938 -4.585938 2.6875 -4.808594 2.960938 -4.984375 C 3.234375 -5.160156 3.535156 -5.246094 3.867188 -5.246094 C 4.34375 -5.246094 4.714844 -5.121094 4.976562 -4.878906 C 5.238281 -4.632812 5.371094 -4.199219 5.371094 -3.582031 L 5.371094 -0.894531 C 5.371094 -0.644531 5.414062 -0.484375 5.5 -0.414062 C 5.582031 -0.339844 5.726562 -0.292969 5.925781 -0.265625 L 5.925781 0 L 3.316406 0 L 3.316406 -0.265625 C 3.515625 -0.304688 3.648438 -0.359375 3.722656 -0.429688 C 3.792969 -0.496094 3.828125 -0.652344 3.828125 -0.894531 L 3.828125 -3.585938 C 3.828125 -3.839844 3.804688 -4.027344 3.753906 -4.15625 C 3.667969 -4.382812 3.496094 -4.496094 3.238281 -4.496094 C 3.046875 -4.496094 2.871094 -4.425781 2.710938 -4.289062 C 2.550781 -4.148438 2.425781 -4.007812 2.339844 -3.867188 L 2.339844 -0.894531 C 2.339844 -0.652344 2.375 -0.496094 2.445312 -0.429688 C 2.519531 -0.359375 2.65625 -0.304688 2.855469 -0.265625 L 2.855469 0 L 0.179688 0 Z "/>
</g>
<g id="glyph-0-5">
<path d="M 0.25 -2.550781 C 0.25 -3.402344 0.476562 -4.066406 0.929688 -4.539062 C 1.382812 -5.011719 1.929688 -5.246094 2.570312 -5.246094 C 2.9375 -5.246094 3.28125 -5.148438 3.601562 -4.957031 C 3.925781 -4.765625 4.171875 -4.5 4.34375 -4.160156 C 4.476562 -3.902344 4.566406 -3.570312 4.617188 -3.164062 C 4.640625 -2.972656 4.65625 -2.824219 4.65625 -2.722656 L 1.824219 -2.722656 C 1.847656 -2.277344 1.921875 -1.894531 2.039062 -1.566406 C 2.257812 -0.957031 2.636719 -0.652344 3.183594 -0.652344 C 3.445312 -0.652344 3.691406 -0.730469 3.921875 -0.894531 C 4.0625 -0.992188 4.238281 -1.15625 4.449219 -1.390625 L 4.703125 -1.230469 C 4.359375 -0.667969 3.960938 -0.273438 3.511719 -0.0546875 C 3.21875 0.0859375 2.878906 0.15625 2.5 0.15625 C 1.953125 0.15625 1.441406 -0.0585938 0.964844 -0.488281 C 0.488281 -0.917969 0.25 -1.605469 0.25 -2.550781 Z M 3.289062 -3.136719 C 3.28125 -3.789062 3.230469 -4.246094 3.136719 -4.507812 C 3.042969 -4.769531 2.855469 -4.898438 2.570312 -4.898438 C 2.28125 -4.898438 2.085938 -4.75 1.976562 -4.449219 C 1.871094 -4.148438 1.808594 -3.710938 1.796875 -3.136719 Z "/>
</g>
<g id="glyph-0-6">
<path d="M 0.179688 -4.628906 L 0.179688 -4.9375 C 0.277344 -5.027344 0.398438 -5.132812 0.542969 -5.257812 C 0.734375 -5.433594 0.914062 -5.617188 1.085938 -5.804688 C 1.421875 -6.171875 1.726562 -6.570312 2 -6.992188 L 2.285156 -6.992188 L 2.285156 -5.117188 L 3.339844 -5.117188 L 3.339844 -4.628906 L 2.285156 -4.628906 L 2.285156 -1.285156 C 2.285156 -1.128906 2.308594 -1 2.355469 -0.894531 C 2.425781 -0.730469 2.546875 -0.652344 2.710938 -0.652344 C 2.855469 -0.652344 2.976562 -0.703125 3.074219 -0.804688 C 3.171875 -0.910156 3.269531 -1.050781 3.367188 -1.230469 L 3.632812 -1.101562 C 3.503906 -0.796875 3.347656 -0.550781 3.167969 -0.359375 C 2.851562 -0.0234375 2.460938 0.144531 2 0.144531 C 1.742188 0.144531 1.511719 0.0976562 1.316406 0 C 0.941406 -0.1875 0.753906 -0.53125 0.753906 -1.023438 L 0.753906 -4.628906 Z "/>
</g>
<g id="glyph-0-7">
<rect x="0" y="0" width="0" height="0" mask="url(#mask-0)"/>
</g>
<g id="glyph-0-8">
<path d="M 0.292969 -7.507812 L 6.980469 -7.507812 L 6.992188 -5.269531 L 6.671875 -5.269531 C 6.566406 -6.066406 6.269531 -6.609375 5.773438 -6.890625 C 5.492188 -7.046875 5.078125 -7.128906 4.523438 -7.144531 L 4.523438 -1.296875 C 4.523438 -0.886719 4.597656 -0.617188 4.738281 -0.484375 C 4.882812 -0.347656 5.179688 -0.28125 5.632812 -0.28125 L 5.632812 0 L 1.671875 0 L 1.671875 -0.28125 C 2.105469 -0.28125 2.394531 -0.351562 2.535156 -0.484375 C 2.679688 -0.621094 2.75 -0.890625 2.75 -1.296875 L 2.75 -7.144531 C 2.207031 -7.128906 1.792969 -7.046875 1.503906 -6.890625 C 0.972656 -6.601562 0.671875 -6.058594 0.601562 -5.269531 L 0.28125 -5.269531 Z "/>
</g>
<g id="glyph-0-9">
<path d="M 2.4375 -0.632812 C 2.617188 -0.632812 2.785156 -0.6875 2.941406 -0.796875 C 3.027344 -0.863281 3.128906 -0.964844 3.25 -1.101562 L 3.25 -2.722656 C 2.953125 -2.652344 2.691406 -2.535156 2.46875 -2.382812 C 2.089844 -2.117188 1.898438 -1.78125 1.898438 -1.371094 C 1.898438 -1.128906 1.953125 -0.945312 2.0625 -0.820312 C 2.175781 -0.695312 2.296875 -0.632812 2.4375 -0.632812 Z M 0.28125 -1.035156 C 0.28125 -1.535156 0.523438 -1.929688 1.003906 -2.222656 C 1.484375 -2.515625 2.238281 -2.8125 3.265625 -3.109375 L 3.265625 -3.917969 C 3.265625 -4.246094 3.195312 -4.488281 3.058594 -4.648438 C 2.917969 -4.804688 2.671875 -4.882812 2.316406 -4.882812 C 2.117188 -4.882812 1.953125 -4.84375 1.824219 -4.769531 C 1.695312 -4.695312 1.632812 -4.605469 1.632812 -4.492188 C 1.632812 -4.449219 1.640625 -4.414062 1.65625 -4.382812 C 1.667969 -4.355469 1.691406 -4.324219 1.71875 -4.292969 L 1.785156 -4.214844 C 1.835938 -4.152344 1.875 -4.085938 1.90625 -4.011719 C 1.9375 -3.9375 1.953125 -3.859375 1.953125 -3.777344 C 1.953125 -3.566406 1.882812 -3.402344 1.742188 -3.289062 C 1.605469 -3.175781 1.441406 -3.121094 1.257812 -3.121094 C 1.046875 -3.121094 0.863281 -3.183594 0.714844 -3.308594 C 0.5625 -3.4375 0.488281 -3.617188 0.488281 -3.855469 C 0.488281 -4.285156 0.6875 -4.621094 1.089844 -4.871094 C 1.492188 -5.121094 1.984375 -5.246094 2.570312 -5.246094 C 3.199219 -5.246094 3.726562 -5.125 4.148438 -4.882812 C 4.570312 -4.636719 4.78125 -4.183594 4.78125 -3.527344 L 4.78125 -0.835938 C 4.78125 -0.757812 4.800781 -0.6875 4.839844 -0.632812 C 4.882812 -0.578125 4.929688 -0.546875 4.980469 -0.546875 C 5.023438 -0.546875 5.0625 -0.554688 5.097656 -0.574219 C 5.132812 -0.589844 5.183594 -0.632812 5.257812 -0.707031 L 5.425781 -0.472656 C 5.207031 -0.21875 4.96875 -0.0429688 4.703125 0.0585938 C 4.535156 0.125 4.363281 0.15625 4.175781 0.15625 C 3.847656 0.15625 3.609375 0.0625 3.457031 -0.128906 C 3.371094 -0.238281 3.304688 -0.398438 3.265625 -0.613281 C 2.957031 -0.304688 2.609375 -0.0898438 2.222656 0.0390625 C 1.988281 0.117188 1.757812 0.15625 1.53125 0.15625 C 1.226562 0.15625 0.941406 0.0625 0.679688 -0.132812 C 0.414062 -0.328125 0.28125 -0.628906 0.28125 -1.035156 Z "/>
</g>
<g id="glyph-0-10">
<path d="M 0.152344 -0.253906 C 0.335938 -0.285156 0.496094 -0.34375 0.625 -0.433594 C 0.757812 -0.523438 0.960938 -0.734375 1.230469 -1.0625 C 1.34375 -1.199219 1.492188 -1.390625 1.675781 -1.636719 C 1.859375 -1.882812 2.011719 -2.082031 2.132812 -2.234375 L 0.707031 -4.421875 C 0.589844 -4.597656 0.496094 -4.707031 0.429688 -4.753906 C 0.359375 -4.796875 0.257812 -4.828125 0.125 -4.84375 L 0.125 -5.117188 L 2.902344 -5.117188 L 2.902344 -4.84375 C 2.644531 -4.808594 2.496094 -4.78125 2.453125 -4.765625 C 2.410156 -4.75 2.386719 -4.707031 2.386719 -4.636719 C 2.386719 -4.554688 2.480469 -4.371094 2.671875 -4.082031 C 2.863281 -3.792969 3.027344 -3.558594 3.171875 -3.367188 C 3.542969 -3.832031 3.773438 -4.128906 3.863281 -4.257812 C 3.953125 -4.386719 4 -4.496094 4 -4.585938 C 4 -4.691406 3.953125 -4.761719 3.867188 -4.789062 C 3.777344 -4.820312 3.632812 -4.835938 3.429688 -4.84375 L 3.429688 -5.117188 L 5.292969 -5.117188 L 5.292969 -4.84375 C 5.15625 -4.820312 5.042969 -4.789062 4.953125 -4.753906 C 4.785156 -4.679688 4.644531 -4.570312 4.523438 -4.421875 L 3.390625 -3.023438 L 5.039062 -0.488281 C 5.078125 -0.425781 5.125 -0.378906 5.171875 -0.351562 C 5.222656 -0.320312 5.289062 -0.289062 5.371094 -0.253906 L 5.371094 0 L 2.695312 0 L 2.695312 -0.253906 C 2.851562 -0.261719 2.976562 -0.28125 3.066406 -0.308594 C 3.15625 -0.339844 3.199219 -0.398438 3.199219 -0.492188 C 3.199219 -0.554688 3.164062 -0.65625 3.085938 -0.792969 C 3.042969 -0.875 2.972656 -0.992188 2.875 -1.144531 C 2.820312 -1.226562 2.742188 -1.34375 2.640625 -1.488281 C 2.539062 -1.636719 2.449219 -1.773438 2.367188 -1.898438 C 2.128906 -1.597656 1.953125 -1.367188 1.839844 -1.203125 C 1.597656 -0.863281 1.476562 -0.644531 1.476562 -0.546875 C 1.476562 -0.433594 1.523438 -0.355469 1.613281 -0.320312 C 1.707031 -0.285156 1.84375 -0.261719 2.027344 -0.253906 L 2.027344 0 L 0.152344 0 Z "/>
</g>
<g id="glyph-0-11">
<path d="M 0.179688 1.433594 C 0.179688 1.179688 0.253906 0.992188 0.398438 0.875 C 0.546875 0.753906 0.71875 0.695312 0.921875 0.695312 C 1.097656 0.695312 1.246094 0.746094 1.359375 0.851562 C 1.472656 0.957031 1.53125 1.082031 1.53125 1.226562 L 1.503906 1.46875 C 1.503906 1.515625 1.519531 1.5625 1.558594 1.601562 C 1.59375 1.640625 1.636719 1.660156 1.691406 1.660156 C 1.871094 1.660156 2.042969 1.511719 2.195312 1.21875 C 2.292969 1.039062 2.4375 0.683594 2.621094 0.15625 L 1.285156 -3.136719 C 1.191406 -3.367188 1.101562 -3.585938 1.011719 -3.785156 C 0.921875 -3.988281 0.828125 -4.1875 0.730469 -4.378906 C 0.628906 -4.574219 0.550781 -4.695312 0.492188 -4.746094 C 0.433594 -4.796875 0.332031 -4.828125 0.179688 -4.84375 L 0.179688 -5.117188 L 2.957031 -5.117188 L 2.957031 -4.84375 C 2.78125 -4.839844 2.640625 -4.820312 2.53125 -4.785156 C 2.421875 -4.75 2.367188 -4.671875 2.367188 -4.550781 C 2.367188 -4.527344 2.371094 -4.492188 2.382812 -4.449219 C 2.394531 -4.40625 2.425781 -4.328125 2.46875 -4.214844 L 3.339844 -1.980469 L 3.429688 -1.980469 L 4.140625 -3.980469 C 4.175781 -4.089844 4.207031 -4.183594 4.230469 -4.265625 C 4.253906 -4.347656 4.265625 -4.417969 4.265625 -4.480469 C 4.265625 -4.636719 4.210938 -4.734375 4.109375 -4.777344 C 4.007812 -4.820312 3.855469 -4.839844 3.652344 -4.84375 L 3.652344 -5.117188 L 5.332031 -5.117188 L 5.332031 -4.84375 C 5.1875 -4.832031 5.070312 -4.792969 4.976562 -4.726562 C 4.886719 -4.660156 4.789062 -4.5 4.691406 -4.242188 L 3.03125 0.183594 C 2.726562 1 2.46875 1.558594 2.25 1.851562 C 2.03125 2.144531 1.6875 2.289062 1.21875 2.289062 C 0.878906 2.289062 0.621094 2.199219 0.445312 2.019531 C 0.269531 1.839844 0.179688 1.644531 0.179688 1.433594 Z "/>
</g>
</g>
<image id="source-92" x="0" y="0" width="0" height="0"/>
<mask id="mask-0">
<use xlink:href="#source-92"/>
</mask>
</defs>
<g fill="rgb(90.196078%, 92.941176%, 95.294118%)" fill-opacity="1">
<use xlink:href="#glyph-0-0" x="30" y="28.333008"/>
<use xlink:href="#glyph-0-1" x="38" y="28.333008"/>
<use xlink:href="#glyph-0-2" x="44" y="28.333008"/>
<use xlink:href="#glyph-0-3" x="53" y="28.333008"/>
<use xlink:href="#glyph-0-1" x="59" y="28.333008"/>
<use xlink:href="#glyph-0-4" x="65" y="28.333008"/>
<use xlink:href="#glyph-0-5" x="71" y="28.333008"/>
<use xlink:href="#glyph-0-4" x="76" y="28.333008"/>
<use xlink:href="#glyph-0-6" x="82" y="28.333008"/>
<use xlink:href="#glyph-0-7" x="86" y="28.333008"/>
<use xlink:href="#glyph-0-8" x="89" y="28.333008"/>
<use xlink:href="#glyph-0-9" x="95" y="28.333008"/>
<use xlink:href="#glyph-0-10" x="101" y="28.333008"/>
<use xlink:href="#glyph-0-1" x="107" y="28.333008"/>
<use xlink:href="#glyph-0-4" x="113" y="28.333008"/>
<use xlink:href="#glyph-0-1" x="119" y="28.333008"/>
<use xlink:href="#glyph-0-2" x="125" y="28.333008"/>
<use xlink:href="#glyph-0-11" x="134" y="28.333008"/>
</g>
</svg>
