<svg width="162" height="216" viewBox="0 0 162 216" fill="none" xmlns="http://www.w3.org/2000/svg">
<path d="M118.448 72.9307C117.159 122.231 81.2791 146.651 56.2623 145.385C51.13 145.132 46.4352 143.797 42.6148 141.358C36.631 137.537 33.662 132.266 32.7415 126.742L6.52783 151.001C11.7752 160.093 20.3826 165.686 30.7162 168.701C32.3962 169.184 34.1223 169.645 35.8714 169.99C54.4672 173.718 85.4909 173.304 115.617 145.224C145.743 117.145 149.978 86.3721 149.978 72.9536H118.448V72.9307Z" stroke="#1868DB" stroke-width="2"/>
<path d="M34.1424 113.209C43.7855 90.3078 80.1026 96.5222 99.5499 79.0069C105.81 73.3679 109.446 64.5758 109.446 53.8042C109.446 26.8523 89.9757 15.3672 64.3375 15.3672C38.6993 15.3672 16.4674 26.2308 16.4674 55.8756C16.4674 64.5988 18.8538 71.5682 21.5005 77L54.1653 71.8258C50.2067 66.7853 48.6878 62.4813 48.6878 57.2566C48.6878 49.247 52.163 41.1453 64.5679 41.1453C76.9727 41.1453 79.7574 48.7176 79.7574 56.5661C79.7574 77.3727 50.3909 79.8585 30.046 89.4792C15.2477 95.4634 -0.65553 109.849 1.13961 132.542C1.71497 139.862 3.60209 145.938 6.52494 150.978C11.7723 160.07 20.3797 165.663 30.7133 168.678L56.2594 145.362C51.1271 145.109 46.4323 143.774 42.6119 141.335C36.6281 137.514 33.6591 132.243 32.7386 126.719C31.9791 122.185 32.6235 117.467 34.1424 113.186V113.209Z" stroke="#1868DB" stroke-width="2"/>
<path d="M54.1909 71.8487C53.6616 71.3424 53.2242 70.7209 52.879 70.0535C49.9101 65.7494 48.7135 61.8597 48.7135 57.2795C48.7135 54.0112 49.3117 50.7659 50.8306 48.027L19.9683 38.084C17.7589 43.0785 16.5161 48.9477 16.5161 55.8985C16.5161 64.6217 18.7255 71.7796 21.3722 77.2115C24.7783 82.6433 31.5676 92.0109 51.2911 110.102C71.0146 128.192 115.939 169.138 115.939 169.138H159.206C159.206 169.138 72.3264 88.8346 54.214 71.8487H54.1909Z" stroke="#1868DB" stroke-width="2"/>
</svg>
