<svg width="114" height="216" viewBox="0 0 114 216" fill="none" xmlns="http://www.w3.org/2000/svg">
<path d="M52.3225 141.539C45.6253 141.539 38.2145 140.779 30.4817 139.03C20.9536 136.843 10.8963 133.115 1 127.269V160.182C8.87098 165.245 18.8593 168.997 30.4817 171.16C37.9154 172.541 45.9935 173.301 54.624 173.301C58.0992 173.301 61.3442 173.117 64.4972 172.818V140.089C61.091 141.055 57.0405 141.539 52.3225 141.539Z" stroke="#1868DB" stroke-width="2"/>
<path d="M66.1315 81.9033H67.1315V80.9033H66.1315V81.9033ZM6.58984 98.6104L6.02411 97.7858L6.22926 99.5431L6.58984 98.6104ZM31.8398 108.372L31.4792 109.305L31.8461 109.446L32.2113 109.3L31.8398 108.372ZM64.4974 140.065L64.2248 139.103L64.2244 139.103L64.4974 140.065ZM30.4819 139.006L30.7025 138.031L29.4819 137.755V139.006H30.4819ZM30.4819 171.16H29.4819V171.991L30.2993 172.143L30.4819 171.16ZM64.4974 172.817L64.4081 171.821L64.403 171.822L64.4974 172.817ZM66.1315 81.9263H65.1315V82.9263H66.1315V81.9263ZM66.1315 81.9033V80.9033C41.2447 80.9033 18.8796 88.966 6.02411 97.7858L6.58984 98.6104L7.15557 99.435C19.6622 90.8545 41.6291 82.9033 66.1315 82.9033V81.9033ZM6.58984 98.6104L6.22926 99.5431L31.4792 109.305L31.8398 108.372L32.2004 107.439L6.95043 97.6776L6.58984 98.6104ZM31.8398 108.372L32.2113 109.3C39.0202 106.577 46.9489 104.769 54.3941 104.769V103.769V102.769C46.6497 102.769 38.4682 104.643 31.4684 107.443L31.8398 108.372ZM54.3941 103.769V104.769C61.4593 104.769 66.9481 105.916 70.6578 108.658C74.3019 111.352 76.4086 115.724 76.4086 122.642H77.4086H78.4086C78.4086 115.29 76.1426 110.225 71.8467 107.05C67.6164 103.923 61.5979 102.769 54.3941 102.769V103.769ZM77.4086 122.642H76.4086C76.4086 127.238 75.331 130.765 73.3232 133.417C71.3153 136.069 68.298 137.949 64.2248 139.103L64.4974 140.065L64.7701 141.027C69.1432 139.788 72.5815 137.709 74.9176 134.624C77.2538 131.539 78.4086 127.552 78.4086 122.642H77.4086ZM64.4974 140.065L64.2244 139.103C60.9307 140.038 56.9768 140.515 52.3228 140.515V141.515V142.515C57.1048 142.515 61.2518 142.026 64.7705 141.027L64.4974 140.065ZM52.3228 141.515V140.515C45.6998 140.515 38.3631 139.764 30.7025 138.031L30.4819 139.006L30.2613 139.982C38.0665 141.747 45.5513 142.515 52.3228 142.515V141.515ZM30.4819 139.006H29.4819V171.16H30.4819H31.4819V139.006H30.4819ZM30.4819 171.16L30.2993 172.143C37.7959 173.536 45.9353 174.3 54.6242 174.3V173.3V172.3C46.0522 172.3 38.0353 171.546 30.6646 170.177L30.4819 171.16ZM54.6242 173.3V174.3C58.1355 174.3 61.4124 174.114 64.5919 173.813L64.4974 172.817L64.403 171.822C61.2765 172.118 58.0634 172.3 54.6242 172.3V173.3ZM64.4974 172.817L64.5868 173.813C81.1685 172.326 93.3386 167.042 101.364 158.742C109.395 150.434 113.161 139.224 113.161 126.117H112.161H111.161C111.161 138.835 107.515 149.501 99.9258 157.351C92.3297 165.208 80.6682 170.363 64.4081 171.821L64.4974 172.817ZM112.161 126.117H113.161C113.161 113.028 109.543 101.702 101.776 93.6438C94.0023 85.5786 82.2051 80.9263 66.1315 80.9263V81.9263V82.9263C81.818 82.9263 93.0354 87.4574 100.336 95.0317C107.644 102.613 111.161 113.382 111.161 126.117H112.161ZM66.1315 81.9263H67.1315V81.9033H66.1315H65.1315V81.9263H66.1315Z" fill="#1868DB"/>
<path d="M38.2839 19.5293H6.75391V98.7049H38.2839V19.5293Z" stroke="#1868DB" stroke-width="2"/>
<path d="M105.027 19.5293H22.5195V51.0615H105.027V19.5293Z" stroke="#1868DB" stroke-width="2"/>
</svg>
