<svg width="107" height="216" viewBox="0 0 107 216" fill="none" xmlns="http://www.w3.org/2000/svg">
<path d="M105.717 51.5L106.644 51.8756L106.463 50.834L105.717 51.5ZM57.3865 170.745V171.745H58.0602L58.3133 171.121L57.3865 170.745ZM18.2617 170.745L17.3472 170.341L16.7261 171.745H18.2617V170.745ZM82.4954 25.4902L83.2413 24.8242L82.2082 23.6671L81.5808 25.0858L82.4954 25.4902ZM105.717 51.5L104.79 51.1244L56.4597 170.37L57.3865 170.745L58.3133 171.121L106.644 51.8756L105.717 51.5ZM57.3865 170.745V169.745H18.2617V170.745V171.745H57.3865V170.745ZM18.2617 170.745L19.1763 171.15L83.4099 25.8947L82.4954 25.4902L81.5808 25.0858L17.3472 170.341L18.2617 170.745ZM82.4954 25.4902L81.7494 26.1562L104.971 52.166L105.717 51.5L106.463 50.834L83.2413 24.8242L82.4954 25.4902Z" fill="#1868DB"/>
<path d="M105.716 19.5293H1V51.0615H105.716V19.5293Z" stroke="#1868DB" stroke-width="2"/>
</svg>
