<svg width="122" height="216" viewBox="0 0 122 216" fill="none" xmlns="http://www.w3.org/2000/svg">
<path d="M38.0976 58.4271C40.7213 49.9802 48.7534 45.7682 60.859 45.7682C65.8072 45.7682 70.0188 46.5047 73.5171 47.9087L81.273 19.0004C75.2892 17.7115 68.4999 16.998 60.8821 16.998C21.5272 16.998 4.72656 35.8713 4.72656 58.4271C4.72656 121.768 96.9689 89.8442 87.625 131.158C85.1855 140.365 75.6574 144.277 60.8821 144.277C56.026 144.277 51.7453 143.84 48.086 142.919L40.4451 171.436C46.498 172.633 53.2873 173.278 60.8821 173.278C103.229 173.278 120.95 153.484 120.95 131.158C120.95 72.2829 26.5673 101.329 38.1206 58.4271H38.0976Z" stroke="#1868DB" stroke-width="2"/>
<path d="M73.8714 142.924C70.1661 143.844 65.832 144.277 60.8608 144.277C55.8897 144.277 51.7241 143.84 48.0647 142.919C40.7231 141.078 35.959 137.281 34.348 131.158C25.0041 89.8442 117.247 121.768 117.247 58.4271C117.247 40.1063 106.522 24.3172 81.2517 19.0004C75.2679 17.7115 68.4787 16.998 60.8608 16.998C53.243 16.998 46.6148 17.6886 40.677 18.9775C40.677 18.9775 40.677 18.9774 40.677 19.0004L48.387 47.7706C48.387 47.7706 48.387 47.7937 48.41 47.7937C51.8622 46.4587 56.0047 45.7453 60.8378 45.7453C65.6709 45.7453 69.9976 46.4818 73.4958 47.8858C78.6741 49.9112 82.2643 53.3406 83.8293 58.4042C95.3826 101.306 1 72.2598 1 131.135C1 149.41 12.8754 165.982 40.4008 171.413C46.4537 172.61 53.243 173.255 60.8378 173.255C68.4326 173.255 75.4061 172.587 81.505 171.39L73.8641 142.896L73.8714 142.924Z" stroke="#1868DB" stroke-width="2"/>
</svg>
