<svg width="184" height="216" viewBox="0 0 184 216" fill="none" xmlns="http://www.w3.org/2000/svg">
<path d="M86.157 129.123C76.0536 129.169 70.0239 124.151 68.712 113.863C68.5279 112.436 68.4359 110.94 68.4359 109.329C68.4359 104.219 69.1493 99.4779 70.5532 95.335H44.0173C42.7975 101.25 42.1992 107.465 42.1992 113.702C42.1992 113.771 42.1992 113.817 42.1992 113.886C42.2683 137.27 54.9032 153.313 75.11 153.313C90.9901 153.313 101.347 145.027 108.021 129.376L108.803 113.886C108.803 113.886 102.198 129.077 86.157 129.146V129.123Z" stroke="#1868DB" stroke-width="2"/>
<path d="M82.4747 55.9316C61.1402 55.9316 48.4821 73.6771 44.0173 95.3583C42.7975 101.273 42.1992 107.488 42.1992 113.725C42.1992 113.794 42.1992 113.84 42.1992 113.909H68.712C68.5279 112.482 68.4359 110.986 68.4359 109.375C68.4359 104.266 69.1493 99.5243 70.5532 95.3814C73.8212 85.7606 80.8177 79.4542 91.4504 79.4542C106.318 79.4542 109.678 95.4734 109.678 95.4734L110.552 77.6129C106.64 63.3429 97.204 55.9776 82.4747 55.9776V55.9316Z" stroke="#1868DB" stroke-width="2"/>
<path d="M132.666 164.338C124.22 168.366 113.794 171.404 100.952 172.324C98.4205 172.509 95.7968 172.624 93.0581 172.624C89.3297 172.624 85.8085 172.417 82.4023 172.048V195.064C85.4863 195.295 88.6393 195.433 91.9074 195.433C95.1754 195.433 98.0522 195.318 100.952 195.156C114.508 194.374 124.933 191.727 134.047 186.226L132.666 164.361V164.338Z" stroke="#1868DB" stroke-width="2"/>
<path d="M82.4255 37.0588C85.4635 36.7596 88.6165 36.5985 91.9306 36.5985C95.2447 36.5985 98.0754 36.7366 100.975 37.0128V14.1578C98.0294 13.9506 95.0375 13.8125 91.9306 13.8125C88.6855 13.8125 85.5325 13.9506 82.4255 14.1808C30.1595 18.0245 1 53.8146 1 103.599C1 153.382 30.1595 191.221 82.4255 195.088C85.5095 195.318 88.6625 195.456 91.9306 195.456C95.1986 195.456 98.0754 195.341 100.975 195.18V172.348C98.4437 172.532 95.82 172.647 93.0813 172.647C89.3529 172.647 85.8317 172.44 82.4255 172.072C41.7128 167.629 25.3955 137.386 25.3955 103.599C25.3955 69.8108 41.7588 40.9716 82.4255 37.0818V37.0588Z" stroke="#1868DB" stroke-width="2"/>
<path d="M100.952 14.1578C98.0062 13.9506 95.0143 13.8125 91.9074 13.8125C88.6623 13.8125 85.5093 13.9506 82.4023 14.1808V37.0588C85.4403 36.7596 88.5933 36.5985 91.9074 36.5985C95.2215 36.5985 98.0522 36.7366 100.952 37.0128C141.527 40.6954 157.982 69.3966 157.982 100.123C157.982 109.491 156.808 117.823 153.655 123.162C151.4 127.029 148.109 129.354 143.483 129.354C139.594 129.354 136.832 127.627 135.129 124.958V152.991C136.832 153.152 138.604 153.267 140.491 153.267C145.37 153.267 149.743 152.669 153.655 151.541C174.53 145.557 182.378 124.681 182.378 99.8699C182.378 53.4693 153.08 17.7943 100.952 14.1117V14.1578Z" stroke="#1868DB" stroke-width="2"/>
<path d="M143.485 129.354C139.596 129.354 136.834 127.627 135.131 124.958C133.819 122.886 133.129 120.285 133.129 117.385C133.129 116.465 133.129 115.314 133.359 114.393L138.422 58.4639H112.186L110.575 77.5673L108.043 129.354C109.93 142.082 118.63 151.38 135.131 153.014C136.834 153.175 138.606 153.29 140.494 153.29C145.373 153.29 149.745 152.692 153.658 151.564V123.162C151.402 127.029 148.111 129.354 143.485 129.354Z" stroke="#1868DB" stroke-width="2"/>
</svg>
