<svg width="97" height="216" viewBox="0 0 97 216" fill="none" xmlns="http://www.w3.org/2000/svg">
<path d="M1 50.1777L1.41698 49.2688L0 48.6188V50.1777H1ZM1 84.4718H0V85.1593L0.64191 85.4055L1 84.4718ZM95.82 120.837L95.4619 121.771L96.82 120.837H95.82ZM95.82 93.6783H96.82V93.0368L96.237 92.7693L95.82 93.6783ZM1 50.1777H0V84.4718H1H2V50.1777H1ZM1 84.4718L0.64191 85.4055L95.4619 121.771L95.82 120.837L96.1781 119.904L1.35809 83.5381L1 84.4718ZM95.82 120.837H96.82V93.6783H95.82H94.82V120.837H95.82ZM95.82 93.6783L96.237 92.7693L1.41698 49.2688L1 50.1777L0.583018 51.0866L95.403 94.5872L95.82 93.6783Z" fill="#1868DB"/>
<path d="M1 164.223H0V165.782L1.41698 165.132L1 164.223ZM1 129.929L0.641911 128.995L0 129.241V129.929H1ZM95.82 93.5635H96.82L95.4619 92.6298L95.82 93.5635ZM95.82 120.723L96.237 121.631L96.82 121.364V120.723H95.82ZM1 164.223H2V129.929H1H0V164.223H1ZM1 129.929L1.35809 130.863L96.1781 94.4972L95.82 93.5635L95.4619 92.6298L0.641911 128.995L1 129.929ZM95.82 93.5635H94.82V120.723H95.82H96.82V93.5635H95.82ZM95.82 120.723L95.403 119.814L0.583018 163.314L1 164.223L1.41698 165.132L96.237 121.631L95.82 120.723Z" fill="#1868DB"/>
</svg>
