<svg width="132" height="216" viewBox="0 0 132 216" fill="none" xmlns="http://www.w3.org/2000/svg">
<path d="M38.0534 18.7178H1V169.934H38.0534V18.7178Z" stroke="#1868DB" stroke-width="2"/>
<path d="M98.3522 92.1393C98.3522 92.1393 124.359 89.7456 124.359 58.3056C124.359 26.8655 99.9172 18.8098 82.4952 18.8098C65.0732 18.8098 63.14 18.7178 63.14 18.7178H19.5273V46.3372H63.14C84.5435 46.3372 88.2258 52.6896 88.2258 63.5993C88.2258 74.5089 83.8991 81.7821 63.14 81.7821H19.5273V105.489H63.14C78.0764 105.489 93.7493 104.936 93.7493 124.132C93.7493 143.327 71.9315 142.315 63.14 142.315H19.5273V169.934H79.8485C93.8414 169.934 130.987 166.896 130.987 131.198C130.987 93.6354 98.3522 92.1393 98.3522 92.1393Z" stroke="#1868DB" stroke-width="2"/>
</svg>
