<svg width="126" height="216" viewBox="0 0 126 216" fill="none" xmlns="http://www.w3.org/2000/svg">
<path d="M80.6304 16.1865C36.7186 16.1865 8.89401 40.1233 2.44993 77.1793C1.50633 82.6572 1 88.4342 1 94.4415C1 100.449 1.4603 106.088 2.33485 111.473H41.1144C39.2502 106.433 38.2836 100.794 38.2836 94.6716C38.2836 88.5493 39.2963 82.427 41.2525 77.1793C47.2363 61.2291 62.1267 51.1711 85.0032 51.1711C100.883 51.1711 112.621 55.314 124.588 61.7585V27.4644C113.541 20.0993 97.6612 16.1865 80.6304 16.1865Z" stroke="#1868DB" stroke-width="2" stroke-miterlimit="10"/>
<path d="M85.4635 137.711C62.3108 137.711 47.0751 127.653 41.1144 111.473C39.2502 106.432 38.2836 100.793 38.2836 94.671C38.2836 88.5487 39.2963 82.4264 41.2525 77.1787H2.44993C1.50633 82.6566 1 88.4336 1 94.4408C1 100.448 1.4603 106.087 2.33485 111.473C8.59481 149.357 36.5345 172.466 80.8606 172.466C98.3516 172.466 114.462 168.783 124.588 162.108V127.814C112.621 133.568 100.653 137.711 85.4635 137.711Z" stroke="#1868DB" stroke-width="2" stroke-miterlimit="10"/>
</svg>
