<svg width="139" height="216" viewBox="0 0 139 216" fill="none" xmlns="http://www.w3.org/2000/svg">
<path d="M74.8984 82.289V109.172H137.498V82.289H74.8984Z" stroke="#1868DB" stroke-width="2"/>
<path d="M88.9387 16.1865C40.5851 16.1865 9.53848 38.5812 2.51904 77.1793C1.52941 82.6802 1 88.5263 1 94.6716C1 100.817 1.48327 106.111 2.40385 111.473H39.7566C38.0305 106.18 37.1329 100.334 37.1329 93.9811C37.1329 87.6287 37.9384 82.2659 39.5264 77.1793C45.257 58.6283 61.7125 47.2583 91.7005 47.2583C105.049 47.2583 121.159 49.56 134.277 55.5442V24.2422C119.778 18.0278 102.747 16.1865 88.9387 16.1865Z" stroke="#1868DB" stroke-width="2"/>
<path d="M104.819 94.3257V139.552C99.0654 140.473 93.3118 140.703 89.1692 140.703C61.6208 140.703 45.6487 129.425 39.78 111.473C38.0539 106.179 37.1563 100.333 37.1563 93.9805C37.1563 87.628 37.9618 82.2653 39.5498 77.1787H2.54234C1.55271 82.6796 1.02344 88.5257 1.02344 94.671C1.02344 100.816 1.50671 106.11 2.42729 111.473C8.77931 148.115 36.604 172.466 83.1855 172.466C101.367 172.466 125.072 169.243 137.5 161.648V94.3257H104.819Z" stroke="#1868DB" stroke-width="2"/>
</svg>
