<svg width="156" height="216" viewBox="0 0 156 216" fill="none" xmlns="http://www.w3.org/2000/svg">
<path d="M119.961 138L119.576 137.077L118.961 138H119.961ZM147.557 111.667L146.639 111.27L146.639 111.27L147.557 111.667ZM151.561 77.373L152.553 77.2449L152.44 76.373H151.561V77.373ZM114.025 77.373V76.373H112.72L113.059 77.6325L114.025 77.373ZM113.932 111.667L112.969 111.4L112.969 111.4L113.932 111.667ZM39.3193 111.667L38.3556 111.934L38.356 111.935L39.3193 111.667ZM39.2273 77.373L40.193 77.6325L40.5315 76.373H39.2273V77.373ZM2.33488 77.373V76.373H1.48475L1.34792 77.2121L2.33488 77.373ZM2.42689 111.667L3.41262 111.499L3.41261 111.499L2.42689 111.667ZM154.737 170.128V171.128H155.737V170.128H154.737ZM154.737 138.596H155.737V137.596H154.737V138.596ZM119.961 138.596H118.961V139.596H119.961V138.596ZM119.961 138L120.346 138.923C133.067 133.614 142.856 125.042 148.474 112.064L147.557 111.667L146.639 111.27C141.256 123.703 131.894 131.937 119.576 137.077L119.961 138ZM147.557 111.667L148.474 112.065C151.525 105.025 153.229 96.9245 153.229 87.7303H152.229H151.229C151.229 96.6729 149.572 104.5 146.639 111.27L147.557 111.667ZM152.229 87.7303H153.229C153.229 84.1651 152.996 80.6699 152.553 77.2449L151.561 77.373L150.57 77.5012C151.002 80.8429 151.229 84.2525 151.229 87.7303H152.229ZM151.561 77.373V76.373H114.025V77.373V78.373H151.561V77.373ZM114.025 77.373L113.059 77.6325C114.437 82.76 115.096 88.3563 115.096 94.1749H116.096H117.096C117.096 88.2091 116.42 82.4354 114.99 77.1135L114.025 77.373ZM116.096 94.1749H115.096C115.096 100.387 114.413 106.187 112.969 111.4L113.932 111.667L114.896 111.934C116.398 106.514 117.096 100.529 117.096 94.1749H116.096ZM113.932 111.667L112.969 111.4C110.781 119.307 106.866 125.835 100.974 130.391C95.0838 134.945 87.1304 137.596 76.741 137.596V138.596V139.596C87.479 139.596 95.8889 136.85 102.197 131.973C108.502 127.098 112.62 120.161 114.896 111.934L113.932 111.667ZM76.741 138.596V137.596C66.3519 137.596 58.3448 134.939 52.3988 130.38C46.451 125.819 42.4808 119.29 40.2826 111.399L39.3193 111.667L38.356 111.935C40.6456 120.155 44.8227 127.091 51.1819 131.967C57.5429 136.844 66.0027 139.596 76.741 139.596V138.596ZM39.3193 111.667L40.283 111.4C38.8388 106.187 38.1559 100.387 38.1559 94.1749H37.1559H36.1559C36.1559 100.529 36.8539 106.514 38.3556 111.934L39.3193 111.667ZM37.1559 94.1749H38.1559C38.1559 88.3563 38.8153 82.76 40.193 77.6325L39.2273 77.373L38.2616 77.1135C36.8316 82.4354 36.1559 88.2091 36.1559 94.1749H37.1559ZM39.2273 77.373V76.373H2.33488V77.373V78.373H39.2273V77.373ZM2.33488 77.373L1.34792 77.2121C0.464494 82.6293 0 88.2991 0 94.1749H1H2C2 88.4044 2.45617 82.8423 3.32185 77.534L2.33488 77.373ZM1 94.1749H0C0 100.373 0.48744 106.252 1.44117 111.836L2.42689 111.667L3.41261 111.499C2.47915 106.034 2 100.268 2 94.1749H1ZM2.42689 111.667L1.44117 111.836C4.55975 130.094 12.7153 144.943 25.5026 155.219C38.2855 165.493 55.6101 171.128 76.9481 171.128V170.128V169.128C55.9623 169.128 39.1102 163.589 26.7555 153.66C14.405 143.735 6.46194 129.352 3.41262 111.499L2.42689 111.667ZM76.9481 170.128V171.128H154.737V170.128V169.128H76.9481V170.128ZM154.737 170.128H155.737V138.596H154.737H153.737V170.128H154.737ZM119.961 138.596H120.961V138H119.961H118.961V138.596H119.961ZM154.737 138.596V137.596H119.961V138.596V139.596H154.737V138.596Z" fill="#1868DB"/>
<path d="M151.558 77.3727C147.162 43.0786 120.718 16.3799 76.7375 16.3799C32.7567 16.3799 8.31519 40.8921 2.35442 77.3727C1.47986 82.7354 1.01953 88.3514 1.01953 94.1745C1.01953 100.32 1.50283 106.143 2.44642 111.667H39.3158C37.8429 106.35 37.1524 100.458 37.1524 94.1745C37.1524 88.2823 37.8199 82.5973 39.2238 77.3727C43.6196 60.9852 55.2649 49.0628 76.7375 49.0628C98.2101 49.0628 109.648 60.9852 114.021 77.3727C115.425 82.5973 116.092 88.2823 116.092 94.1745C116.092 100.458 115.402 106.35 113.929 111.667H147.553C150.545 104.762 152.225 96.7983 152.225 87.73C152.225 84.2085 151.995 80.7561 151.558 77.3727Z" stroke="#1868DB" stroke-width="2" stroke-miterlimit="10"/>
</svg>
