<svg width="118" height="216" viewBox="0 0 118 216" fill="none" xmlns="http://www.w3.org/2000/svg">
<path d="M76.1432 17.4386C70.8728 16.7712 65.3033 16.3799 59.4576 16.3799C53.0596 16.3799 47.237 16.9093 41.8516 17.8759V52.3311C45.4418 49.7303 50.9883 48.3953 58.3069 48.3953C63.6002 48.3953 69.6761 48.9247 76.1432 50.0295C87.1441 51.8708 99.2498 55.3002 110.55 60.3637V27.6808C101.85 23.1696 90.113 19.2799 76.1432 17.4616V17.4386Z" stroke="#1868DB" stroke-width="2" stroke-miterlimit="10"/>
<path d="M76.1432 81.4694C72.4148 80.4797 68.4103 79.5821 64.0605 78.7535C52.9905 76.3368 45.9482 73.9201 41.8516 70.8359V105.061C45.9712 106.212 50.4359 107.271 55.315 108.214C66.0168 110.585 72.5299 113.117 76.1432 116.5C78.8359 119.009 79.9406 121.978 79.9406 125.706C79.9406 129.435 78.7668 132.772 76.1432 135.212C72.8981 138.227 67.3978 139.976 58.9974 139.976C53.6811 139.976 47.8123 139.424 41.8516 138.503V171.831C47.0068 172.36 52.6223 172.682 58.7672 172.682C64.9121 172.682 70.9189 172.245 76.1432 171.394C104.957 166.744 116.994 149.758 116.994 125.039C116.994 103.335 106.223 89.456 76.1432 81.4694Z" stroke="#1868DB" stroke-width="2" stroke-miterlimit="10"/>
<path d="M58.9977 139.977C53.6814 139.977 47.8126 139.424 41.8518 138.504C27.1916 136.225 11.8178 131.599 1.69141 126.857V160.231C11.3575 165.248 23.8314 169.967 41.8518 171.808C47.0071 172.337 52.6226 172.66 58.7675 172.66C64.9124 172.66 70.9192 172.222 76.1435 171.371V135.189C72.8984 138.204 67.398 139.954 58.9977 139.954V139.977Z" stroke="#1868DB" stroke-width="2" stroke-miterlimit="10"/>
<path d="M41.8508 52.3085C45.4411 49.7077 50.9875 48.3728 58.3062 48.3728C63.5995 48.3728 69.6754 48.9021 76.1425 50.0069V17.4621C70.8721 16.7946 65.3026 16.4033 59.4569 16.4033C53.0589 16.4033 47.2363 16.9327 41.8508 17.8994C15.0849 22.6407 1 38.683 1 61.2848C1 82.3446 11.7018 96.6376 41.8508 105.085C45.9705 106.235 50.4352 107.294 55.3143 108.238C66.0161 110.608 72.5292 113.14 76.1425 116.524V81.493C72.4141 80.5033 68.4096 79.6057 64.0598 78.7771C52.9898 76.3604 45.9474 73.9437 41.8508 70.8596C38.5368 68.3738 37.1329 65.4507 37.1329 61.7451C37.1329 57.6943 38.7669 54.5641 41.8508 52.3315V52.3085Z" stroke="#1868DB" stroke-width="2" stroke-miterlimit="10"/>
</svg>
