<svg width="45" height="216" viewBox="0 0 45 216" fill="none" xmlns="http://www.w3.org/2000/svg">
<path d="M20.7927 34.3121C10.0395 34.3121 1.32244 43.0297 1.32244 53.7837C1.32244 64.5376 10.0395 73.2554 20.7927 73.2554C31.5458 73.2554 40.2632 64.5376 40.2632 53.7837C40.2632 43.0297 31.5458 34.3121 20.7927 34.3121Z" stroke="#1868DB" stroke-width="2"/>
<path d="M43.896 4.41401C43.896 4.41401 -3.30688 4.39102 1.31905 53.7837L20.0299 50.6766C20.0299 50.6766 14.7135 25.5199 43.896 22.5968V4.41401Z" stroke="#1868DB" stroke-width="2"/>
<path d="M1.32125 53.7837L20.0321 50.6766C20.0321 50.6766 18.2369 42.1145 22.5176 34.4041C21.9422 34.3581 21.3668 34.3121 20.7915 34.3121C10.0437 34.3121 1.32125 43.0351 1.32125 53.7837Z" stroke="#1868DB" stroke-width="2"/>
</svg>
