<svg width="77" height="218" viewBox="0 0 77 218" fill="none" xmlns="http://www.w3.org/2000/svg">
<path d="M18.7211 69.6342V39.8973C18.7211 33.2226 15.9595 28.6194 8.82501 28.6194C6.7537 28.6194 3.5316 29.0797 1 29.3099V2.15081C4.45218 1.69048 9.05515 1 16.8801 1C39.2042 1 51.1719 13.6589 51.1719 37.3655V71.4294C51.1719 80.8661 55.3143 86.1598 65.901 86.1598H75.1068V115.16H53.9565C23.5313 115.16 18.7211 90.809 18.7211 69.6342Z" stroke="#1868DB" stroke-width="2"/>
<path d="M18.7211 131.663V161.4C18.7211 168.074 15.9595 172.677 8.82501 172.677C6.7537 172.677 3.5316 172.217 1 171.987V199.146C4.45218 199.606 9.05515 200.297 16.8801 200.297C39.2042 200.297 51.1719 187.638 51.1719 163.931V129.867C51.1719 120.431 55.3143 115.137 65.901 115.137H75.1068V86.1367H53.9565C23.5313 86.1367 18.7211 110.488 18.7211 131.663Z" stroke="#1868DB" stroke-width="2"/>
</svg>
