<svg width="119" height="216" viewBox="0 0 119 216" fill="none" xmlns="http://www.w3.org/2000/svg">
<path d="M118.455 116.115C118.248 110.223 117.351 104.975 115.855 100.303H80.3203C84.3248 104.814 86.189 110.752 86.304 116.967C86.304 117.174 86.304 117.358 86.304 117.565C86.304 124.124 84.4629 130.109 80.5274 134.597H116.453C117.788 129.579 118.524 124.194 118.524 118.486C118.524 117.68 118.455 116.921 118.432 116.115H118.455Z" fill="#1868DB"/>
<path d="M73.67 67.5966C43.0837 61.8425 13.8092 75.5832 3.72882 100.28C1.49641 105.757 0.184539 111.765 0.0234375 118.232C0.0234375 124.009 0.736875 129.487 2.09473 134.574H38.6188C34.8444 130.223 33.0723 124.47 32.9573 118.232C32.9573 118.002 32.9343 117.772 32.9343 117.542C32.9343 111.12 34.7754 104.929 38.872 100.28C43.1527 95.4231 49.896 92.2239 59.6542 92.2239C69.4124 92.2239 76.0405 95.4231 80.3443 100.28H115.879C109.527 80.5777 92.588 71.1411 73.6931 67.5966H73.67Z" fill="#1868DB"/>
<path d="M80.5491 134.597C79.4904 135.794 78.2937 136.898 76.9128 137.865C72.7011 140.857 66.9935 142.652 59.6059 142.652C52.2182 142.652 46.7637 140.949 42.6211 138.141V171.146C47.7764 172.228 53.3689 172.803 59.3757 172.803C65.6817 172.803 71.5274 172.136 76.9128 170.939C97.741 166.267 111.527 153.056 116.475 134.597H80.5491Z" fill="#1868DB"/>
<path d="M42.6434 138.119C41.1244 137.083 39.7666 135.909 38.6388 134.574C34.8645 130.224 33.0923 124.47 32.9773 118.233C32.9773 118.003 32.9542 117.773 32.9542 117.542C32.9542 116.346 33.0463 115.172 33.1614 113.998C33.2074 113.653 33.2534 113.307 33.3225 112.939C33.4376 112.088 33.5986 111.259 33.8058 110.453C33.8978 110.062 33.9899 109.671 34.105 109.28C34.2661 108.75 34.4502 108.221 34.6343 107.691C34.7954 107.254 34.9335 106.84 35.1176 106.426C35.4628 105.62 35.8311 104.792 36.2683 104.032C37.0048 102.697 91.9175 19.0332 91.9175 19.0332H50.0311C50.0311 19.0332 8.21357 91.8333 7.40806 93.1453C6.02718 95.4008 4.80744 97.7946 3.77179 100.28C1.53937 105.758 0.227508 111.765 0.0664062 118.233C0.0664062 124.01 0.779914 129.488 2.13777 134.574C7.15495 153.171 21.1248 166.613 42.6894 171.124C47.8447 172.206 53.4372 172.781 59.444 172.781C65.75 172.781 71.5957 172.114 76.9811 170.917V137.843C72.7694 140.835 67.0619 142.63 59.6742 142.63C52.2865 142.63 46.832 140.927 42.6894 138.119H42.6434Z" fill="#1868DB"/>
<path d="M118.455 116.115C118.248 110.223 117.351 104.975 115.855 100.303H80.3203C84.3248 104.814 86.189 110.752 86.304 116.967C86.304 117.174 86.304 117.358 86.304 117.565C86.304 124.124 84.4629 130.109 80.5274 134.597H116.453C117.788 129.579 118.524 124.194 118.524 118.486C118.524 117.68 118.455 116.921 118.432 116.115H118.455Z" fill="#09326C"/>
<path d="M36.1992 104.031C36.3143 103.847 36.4524 103.663 36.5675 103.456C36.3833 103.755 36.2452 103.962 36.1992 104.031Z" fill="#09326C"/>
<path d="M5.63672 96.1827C5.88988 95.7223 6.14303 95.2621 6.41921 94.8018C6.16605 95.2621 5.88988 95.7223 5.63672 96.1827Z" fill="#1868DB"/>
<path d="M3.70312 100.303C4.27849 98.8989 4.92289 97.541 5.63634 96.2061C4.9459 97.541 4.27849 98.8989 3.70312 100.303Z" fill="#1868DB"/>
<path d="M32.9336 117.565C32.9336 116.369 33.0256 115.195 33.1407 114.044C33.0026 115.218 32.9336 116.392 32.9336 117.565Z" fill="#09326C"/>
<path d="M36.5703 103.479C36.8005 103.134 37.1226 102.604 37.5599 101.96C37.2147 102.443 36.8925 102.973 36.5703 103.479Z" fill="#09326C"/>
<path d="M33.762 110.454C33.8541 110.062 33.9461 109.671 34.0612 109.28C34.2223 108.75 34.4064 108.221 34.5905 107.692C34.7516 107.254 34.8897 106.84 35.0738 106.426C35.4191 105.62 35.7873 104.815 36.2015 104.032C34.5215 107.024 33.5319 110.431 33.1406 113.952C33.1867 113.607 33.2327 113.285 33.2787 112.939C33.3938 112.088 33.5549 111.259 33.762 110.454Z" fill="#09326C"/>
<path d="M32.9569 118.256C32.9569 118.025 32.9339 117.795 32.9339 117.565C32.9339 116.368 33.026 115.194 33.141 114.044C33.141 114.044 33.141 114.021 33.141 113.998C33.5323 110.476 34.5219 107.07 36.2019 104.078C36.2249 104.032 36.363 103.801 36.5702 103.502C36.8924 102.973 37.1916 102.467 37.5598 101.983C40.989 96.6895 50.6091 81.9821 60.8275 66.3771C37.4908 66.0549 16.5245 76.8726 6.42108 94.8252C6.16792 95.2855 5.89176 95.7458 5.6386 96.2061C4.94816 97.541 4.28075 98.8989 3.70538 100.303C1.47297 105.781 0.161102 111.788 0 118.256C0 124.033 0.713508 129.51 2.07137 134.597H38.5955C34.8211 130.247 33.049 124.493 32.9339 118.256H32.9569Z" fill="#09326C"/>
<path d="M59.6293 142.653C52.3567 142.653 46.7872 140.949 42.6445 138.141V171.147C47.7998 172.228 53.3924 172.804 59.3992 172.804C65.7052 172.804 71.5509 172.136 76.9363 170.939V137.865C72.7246 140.857 67.017 142.653 59.6293 142.653Z" fill="#1868DB"/>
</svg>
