<svg width="187" height="216" viewBox="0 0 187 216" fill="none" xmlns="http://www.w3.org/2000/svg">
<path d="M33.6013 19.3026H0V170.519H33.6013V19.3026Z" fill="#1868DB"/>
<path d="M185.957 19.3026H152.355V170.519H185.957V19.3026Z" fill="#1868DB"/>
<path d="M60.5279 19.3026L110.239 170.542H75.2572L22.5078 19.3026H60.5279Z" fill="#1868DB"/>
<path d="M124.946 19.3026L75.2344 170.542H110.217L162.966 19.3026H124.946Z" fill="#1868DB"/>
<path d="M110.238 170.542V170.473L110.215 170.542H110.238Z" fill="#09326C"/>
<path d="M22.5078 19.3026L33.6008 51.1108V19.3026H22.5078Z" fill="#09326C"/>
<path d="M75.2344 170.542H75.2574L75.2344 170.473V170.542Z" fill="#09326C"/>
<path d="M152.355 19.3026V49.6608L162.965 19.3026H152.355Z" fill="#09326C"/>
<path d="M75.2344 170.472L75.2574 170.541H110.217L110.24 170.472L92.7255 117.259L75.2344 170.472Z" fill="#09326C"/>
</svg>
