<svg width="152" height="216" viewBox="0 0 152 216" fill="none" xmlns="http://www.w3.org/2000/svg">
<path d="M93.0019 17.7527C87.6625 16.809 81.9779 16.3027 75.9711 16.3027C69.9643 16.3027 64.1186 16.8091 58.7102 17.7757V52.3C63.5663 50.1825 69.2739 48.9856 75.9711 48.9856C82.6684 48.9856 88.1918 50.1824 93.0019 52.2539C103.704 56.8801 110.194 66.0406 113.232 77.2955H150.147C145.038 45.8784 125.153 23.4837 93.0019 17.7527Z" fill="#1868DB"/>
<path d="M150.147 77.3185H113.232C114.636 82.5662 115.326 88.2512 115.326 94.1203C115.326 100.312 114.635 106.204 113.186 111.613H150.055C150.976 106.043 151.459 100.22 151.459 94.1203C151.459 88.021 151.021 82.6813 150.147 77.3185Z" fill="#1868DB"/>
<path d="M75.9711 16.3026C69.8723 16.3026 64.1186 16.809 58.7102 17.7757C26.5128 23.5527 6.67425 45.9244 1.56502 77.2954C0.690467 82.6582 0.253174 88.2511 0.253174 94.0972C0.253174 99.9433 0.736516 106.02 1.6571 111.59H38.5264C37.0765 106.181 36.3861 100.266 36.3861 94.0972C36.3861 87.9289 37.0765 82.5431 38.4804 77.2954C41.5183 66.0866 47.9854 56.9262 58.7102 52.2999C63.5663 50.1824 69.2739 48.9856 75.9711 48.9856C82.6684 48.9856 88.1919 50.1824 93.0019 52.2538V17.7526C87.6625 16.809 81.9779 16.3026 75.9711 16.3026Z" fill="#1868DB"/>
<path d="M75.9709 139.923C69.2737 139.923 63.5661 138.726 58.71 136.631C48.0542 132.028 41.5871 122.96 38.5262 111.613C37.0762 106.204 36.3858 100.289 36.3858 94.1203C36.3858 87.952 37.0763 82.5662 38.4802 77.3185H1.56478C0.690223 82.6813 0.25293 88.2742 0.25293 94.1203C0.25293 99.9664 0.736272 106.043 1.65685 111.613C6.90418 143.007 26.6967 165.332 58.71 171.109C64.1184 172.099 69.872 172.605 75.9709 172.605C82.0698 172.605 87.6623 172.099 93.0017 171.155V136.677C88.1916 138.749 82.5531 139.923 75.9709 139.923Z" fill="#1868DB"/>
<path d="M123.887 111.613H113.186C110.125 123.006 103.635 132.097 93.0019 136.677C88.1918 138.749 82.5533 139.923 75.9711 139.923C69.389 139.923 63.5663 138.726 58.7102 136.631V171.109C64.1186 172.099 69.8723 172.605 75.9711 172.605C82.07 172.605 87.6625 172.099 93.0019 171.155C124.969 165.401 144.808 143.053 150.055 111.613H123.887Z" fill="#1868DB"/>
<path d="M150.147 77.3185H113.232C114.636 82.5662 115.326 88.2512 115.326 94.1203C115.326 100.312 114.635 106.204 113.186 111.613H150.055C150.976 106.043 151.459 100.22 151.459 94.1203C151.459 88.021 151.021 82.6813 150.147 77.3185Z" fill="#09326C"/>
<path d="M75.9711 49.0087C82.5533 49.0087 88.1918 50.2055 93.0019 52.2769V17.7757C87.6625 16.8321 81.9779 16.3257 75.9711 16.3257C69.9643 16.3257 64.1186 16.8321 58.7102 17.7988V52.323C63.5663 50.2055 69.2739 49.0087 75.9711 49.0087Z" fill="#09326C"/>
<path d="M36.3858 94.1203C36.3858 88.2512 37.0763 82.5662 38.4802 77.3185H1.56478C0.690223 82.6813 0.25293 88.2742 0.25293 94.1203C0.25293 99.9664 0.736272 106.043 1.65685 111.613H38.5262C37.0762 106.204 36.3858 100.289 36.3858 94.1203Z" fill="#09326C"/>
<path d="M75.9711 139.923C69.2739 139.923 63.5663 138.726 58.7102 136.631V171.109C64.1186 172.099 69.8723 172.605 75.9711 172.605C82.07 172.605 87.6625 172.099 93.0019 171.155V136.677C88.1918 138.749 82.5533 139.923 75.9711 139.923Z" fill="#09326C"/>
</svg>
