<svg width="132" height="216" viewBox="0 0 132 216" fill="none" xmlns="http://www.w3.org/2000/svg">
<path d="M131.055 170.542L87.4424 96.844L57.3164 111.643L87.7877 170.542H131.055Z" fill="#1868DB"/>
<path d="M37.1553 19.3026H0.332031V170.519H37.1553V19.3026Z" fill="#1868DB"/>
<path d="M18.7437 50.3974H64.7267C81.2742 50.3974 86.4065 60.6397 86.4065 71.3422C86.4065 82.0447 82.402 92.9773 61.7809 92.9773H18.7437V122.047H71.2168C89.4904 122.047 123.23 113.646 123.23 70.8818C123.23 28.1178 91.1015 19.3256 70.9867 19.3256H18.7437V50.3974Z" fill="#1868DB"/>
<path d="M57.316 111.643L62.6784 122.024H71.1937C78.8115 122.024 89.1452 120.551 98.6041 115.717L87.4191 96.844L57.293 111.643H57.316Z" fill="#09326C"/>
<path d="M18.7437 92.9773V122.024H37.1553V92.9773H18.7437Z" fill="#09326C"/>
<path d="M37.1553 50.3974V19.3256H18.7437V50.3974H37.1553Z" fill="#09326C"/>
</svg>
