<svg width="43" height="216" viewBox="0 0 43 216" fill="none" xmlns="http://www.w3.org/2000/svg">
<path d="M19.7927 34.3121C9.03951 34.3121 0.322441 43.0298 0.322441 53.7837C0.322441 64.5376 9.03951 73.2554 19.7927 73.2554C30.5458 73.2554 39.2632 64.5376 39.2632 53.7837C39.2632 43.0298 30.5458 34.3121 19.7927 34.3121Z" fill="#1868DB"/>
<path d="M42.896 4.41407C42.896 4.41407 -4.30687 4.39108 0.319056 53.7838L19.0299 50.6766C19.0299 50.6766 13.7135 25.5199 42.896 22.5969V4.41407Z" fill="#1868DB"/>
<path d="M0.321254 53.7837L19.0321 50.6766C19.0321 50.6766 17.2369 42.1146 21.5176 34.4042C20.9422 34.3581 20.3668 34.3121 19.7915 34.3121C9.04368 34.3121 0.321254 43.0352 0.321254 53.7837Z" fill="#09326C"/>
</svg>
