<svg width="43" height="216" viewBox="0 0 43 216" fill="none" xmlns="http://www.w3.org/2000/svg">
<path d="M23.1033 43.3574C33.8565 43.3574 42.5736 34.6397 42.5736 23.8858C42.5736 13.1319 33.8565 4.41406 23.1033 4.41406C12.3502 4.41406 3.63281 13.1319 3.63281 23.8858C3.63281 34.6397 12.3502 43.3574 23.1033 43.3574Z" fill="#1868DB"/>
<path d="M0 73.2554C0 73.2554 47.2029 73.2784 42.5769 23.8857L23.8661 26.9929C23.8661 26.9929 29.1825 52.1496 0 55.0726V73.2554Z" fill="#1868DB"/>
<path d="M42.5752 23.8857L23.8644 26.9929C23.8644 26.9929 25.6596 35.5549 21.3789 43.2653C21.9543 43.3113 22.5296 43.3573 23.105 43.3573C33.8528 43.3573 42.5752 34.6343 42.5752 23.8857Z" fill="#09326C"/>
</svg>
