<svg width="75" height="221" viewBox="0 0 75 221" fill="none" xmlns="http://www.w3.org/2000/svg">
<path d="M17.9867 68.6341V38.8972C17.9867 32.2225 15.2251 27.6194 8.09063 27.6194C6.01932 27.6194 2.79723 28.0797 0.265625 28.3098V1.15081C3.71781 0.690485 8.32078 0 16.1457 0C38.4699 0 50.4375 12.6589 50.4375 36.3655V70.4294C50.4375 79.866 54.5799 85.1598 65.1666 85.1598H74.3724V114.16H53.2222C22.7969 114.16 17.9867 89.8089 17.9867 68.6341Z" fill="#1868DB"/>
<path d="M17.9867 130.663V160.4C17.9867 167.074 15.2251 171.677 8.09063 171.677C6.01932 171.677 2.79723 171.217 0.265625 170.987V198.146C3.71781 198.606 8.32078 199.297 16.1457 199.297C38.4699 199.297 50.4375 186.638 50.4375 162.931V128.867C50.4375 119.431 54.5799 114.137 65.1666 114.137H74.3724V85.1367H53.2222C22.7969 85.1367 17.9867 109.488 17.9867 130.663Z" fill="#1868DB"/>
<path d="M65.1665 85.1602H53.2221C38.1936 85.1602 29.425 91.0983 24.3848 99.6603C29.425 108.222 38.1936 114.16 53.2221 114.16H74.3723V85.1602H65.1665Z" fill="#09326C"/>
</svg>
