<svg width="960" height="540" viewBox="0 0 960 540" fill="none" xmlns="http://www.w3.org/2000/svg">
<g clip-path="url(#clip0_287_58531)">
<path d="M284.799 164.74L334.709 98.69L334.509 98.41L293.849 39.29L214.309 62.26L284.799 164.74Z" fill="#48245D"/>
<path d="M353.641 117.39L442.351 0H415.561L340.871 98.83L353.641 117.39Z" fill="#48245D"/>
<path d="M630.27 93.9L632.58 88.05L605.13 0H602.96L562.32 93.9H630.27Z" fill="#48245D"/>
<path d="M142.321 151.19H18.0508V228.89H142.321V151.19Z" fill="#48245D"/>
<path d="M471.2 127.37H505.66L520.06 23.9902L399.32 187.54H462.82L471.2 127.37Z" fill="#48245D"/>
<path d="M190.642 331.09L190.262 332.75H238.822L239.152 331.87C244.672 317.24 254.222 304.73 266.742 295.73C279.522 286.53 294.582 281.65 310.222 281.65C325.862 281.65 340.922 286.53 353.702 295.73C366.222 304.74 375.762 317.25 381.292 331.87L381.622 332.75H430.182L429.802 331.09C423.522 303.76 408.292 278.96 386.972 261.32C376.302 252.49 364.402 245.62 351.602 240.88C338.342 235.98 324.432 233.5 310.222 233.5C296.012 233.5 282.092 235.98 268.842 240.88C256.032 245.61 244.142 252.49 233.472 261.32C212.152 278.96 196.922 303.76 190.642 331.09Z" fill="#48245D"/>
<path d="M196.68 540H255.4L230.85 461.06L196.68 540Z" fill="#48245D"/>
<path d="M227.208 188.6L147.328 104.88V146.19H178.378V231.4V233.9H147.328V275.06L227.208 188.6Z" fill="#48245D"/>
<path d="M667.348 0H610.398L635.618 80.37L667.348 0Z" fill="#48245D"/>
<path d="M9.24 509.57H0V540H9.24V509.57Z" fill="#48245D"/>
<path d="M173.388 151.19H147.328V228.89H173.388V151.19Z" fill="#48245D"/>
<path d="M0 413.26H36.76V325.44H150.24V540H191.23L228.57 453.74L208.12 388.15H256.96L282.7 328.69H352.8L316.9 419.58L354.45 540.01H681.15L708.3 494.85L626.39 367.2L631.06 367.28C631.06 367.28 632.14 367.3 634.05 367.33C635.96 367.36 638.7 367.41 642.03 367.47C648.68 367.58 657.65 367.73 666.95 367.89C685.55 368.2 705.45 368.53 710.66 368.61C711.34 368.61 711.79 368.62 711.89 368.62L713.38 368.59L719.88 380.4L767.21 294.46L767.92 293.17H769.38H769.42H769.57C769.7 293.17 769.88 293.17 770.12 293.17C770.6 293.17 771.29 293.15 772.17 293.14C773.93 293.11 776.43 293.07 779.47 293.02C785.55 292.92 793.77 292.78 802.46 292.64C819.84 292.35 839.09 292.03 846.79 291.9C848.99 291.86 850.25 291.84 850.25 291.84L854.92 291.76L773.01 419.41L845.51 540.03H880.26V421.11H826.46L922.61 329.37L960 363.91V254.79H901.85C902.51 257.27 903.09 259.84 903.57 262.53L904.09 265.47H795.12L796.01 262.29C799.81 248.77 804.61 238.38 810.6 230.61C816.58 222.84 823.8 217.75 832.09 215.01C833.58 214.52 835.1 214.1 836.65 213.75C837.89 207.26 839.48 201.22 841.42 195.63C846.76 180.24 854.8 168.2 865.37 159.34C872.41 153.43 880.56 148.94 889.72 145.74C901.93 141.48 915.91 139.53 931.56 139.53C941.79 139.53 951.27 140.35 959.98 142.08V71.87C955.5 78.44 950.17 84.15 944.16 89.01C934.04 97.19 922.02 102.99 908.82 106.66C896.58 110.11 883.9 111.74 869.57 111.74C855.24 111.74 841.45 110.11 828.76 106.58C815.41 102.87 803.34 97.07 793.24 88.9C783.13 80.74 775.01 70.22 769.58 57.2C764.71 45.47 761.95 32.01 761.95 15.83C761.95 10.29 762.28 5.03 762.9 0.02H704.08L761.28 183.46L762.29 186.7H663.32L634.93 95.67L633.65 98.91H554.68L597.51 0H448.61L355.23 123.57L352.51 124.58L337.69 103.04L286.4 170.92L283.68 171.93L207.47 61.13L208.2 59.78L208.32 59.56L208.82 58.64L290.87 34.95L276.31 13.77L277.05 12.42L277.17 12.2L277.67 11.28L316.77 0H156.81L75.19 110.57L90.59 0H0V413.26ZM616.74 488.95C612.65 498.72 606.53 506.63 598.96 512.74C591.4 518.86 582.41 523.19 572.58 525.92C563.45 528.49 554.01 529.7 543.36 529.7C532.71 529.7 522.45 528.49 512.99 525.86C512.33 525.68 511.68 525.47 511.03 525.27L510.68 525.36L510.36 525.26C500.75 527.73 490.24 528.94 479.13 528.94H476.63V528.84C460.53 528.58 445.57 525.77 432.83 520.09H432.82C425.39 516.82 418.77 512.59 413.14 507.26C407.12 501.51 402.26 494.67 398.95 486.53C395.63 478.39 393.84 468.97 393.84 458.07C393.84 447.15 395.69 437.48 399.11 429.07C402.53 420.66 407.52 413.51 413.72 407.65C419.17 402.45 425.65 398.31 432.8 395.03C446.17 388.9 462.38 386.04 479.13 386.03C490.82 386.03 501.85 387.4 511.87 390.21C512.24 390.1 512.61 389.98 512.99 389.87C522.44 387.23 532.65 386.03 543.36 386.03C553.54 386.03 563.44 387.24 572.59 389.81C582.39 392.54 591.36 396.86 598.92 402.97C606.48 409.08 612.6 416.99 616.69 426.78C620.4 435.69 622.51 446.21 622.51 458.08C622.51 469.95 620.4 480.17 616.75 488.94L616.74 488.95ZM726.52 222.14L724.93 225.68C707.92 263.6 696.4 304.33 690.2 341.23L689.85 343.31L512.91 344.1L511.39 342.37L511.53 341.25C517.64 293.82 530.86 253.93 546.25 224.29L546.58 223.66L547.19 223.3H547.21L547.8 222.94L726.51 222.15L726.52 222.14ZM521.88 13.1L527.73 5.18L510.71 127.37H583.42L445.11 314.74L462.13 192.55H389.42L521.88 13.1ZM310.22 228.49C325.01 228.49 339.53 231.08 353.33 236.18C366.67 241.11 379.06 248.27 390.16 257.46C412.35 275.83 428.14 301.56 434.68 329.96L436.47 337.74H378.17L376.62 333.63C371.43 319.9 362.51 308.21 350.79 299.78C338.83 291.18 324.83 286.65 310.23 286.64C295.63 286.64 281.63 291.17 269.67 299.78C257.95 308.21 249.03 319.9 243.84 333.63L242.29 337.74H183.99L185.78 329.96C192.31 301.56 208.11 275.82 230.3 257.46C241.39 248.28 253.79 241.11 267.13 236.18C280.94 231.08 295.45 228.49 310.24 228.49H310.22ZM142.33 146.19V92.39L234.07 188.54L142.33 287.84V233.89H13.05V146.19H142.32H142.33Z" fill="#48245D"/>
<path d="M475.561 132.37L467.871 187.54H497.281L504.961 132.37H475.561Z" fill="#48245D"/>
<path d="M573.51 132.37H524.7H510.01L501.63 192.54H467.17L452.77 295.93L573.51 132.37Z" fill="#48245D"/>
<path d="M150.599 0H95.6394L82.8594 91.77L150.599 0Z" fill="#48245D"/>
<path d="M295.918 33.48L411.878 0H334.798L283.148 14.91L295.918 33.48Z" fill="#48245D"/>
<path d="M524.271 394.68C531.631 397.96 538.321 402.25 543.901 407.66C550.021 413.54 554.87 420.84 558.18 429.31C561.49 437.79 563.26 447.44 563.26 458.07C563.26 458.1 563.26 458.13 563.26 458.16C563.26 458.19 563.26 458.22 563.26 458.25C563.26 468.88 561.54 478.28 558.32 486.48C555.1 494.68 550.37 501.66 544.43 507.42C538.72 512.98 531.89 517.35 524.26 520.69C522.87 521.3 521.43 521.87 519.98 522.41C527.34 523.96 535.2 524.71 543.35 524.71C553.63 524.71 562.57 523.55 571.22 521.11C580.5 518.53 588.85 514.48 595.8 508.85C602.75 503.22 608.33 496.03 612.11 487.03C615.48 478.91 617.48 469.37 617.48 458.09C617.48 446.81 615.48 436.95 612.05 428.72C608.27 419.69 602.7 412.49 595.75 406.87C588.81 401.25 580.48 397.22 571.22 394.64C562.58 392.21 553.13 391.04 543.35 391.04C535.41 391.04 527.83 391.74 520.68 393.18C521.89 393.66 523.091 394.15 524.271 394.68Z" fill="#48245D"/>
<path d="M550.019 227.92C535.519 256.25 522.969 294.14 516.879 339.08L685.639 338.33C691.789 302.73 702.779 263.82 718.819 227.18L550.019 227.93V227.92Z" fill="#48245D"/>
<path d="M489.598 508.78C495.658 513.67 502.808 517.38 510.778 519.98C514.798 518.87 518.638 517.53 522.248 515.94C529.418 512.79 535.718 508.74 540.938 503.66C546.388 498.37 550.688 492.02 553.658 484.48C556.618 476.95 558.238 468.22 558.248 458.17C558.238 448.12 556.568 439.13 553.518 431.31C550.458 423.47 546.018 416.81 540.428 411.44C535.328 406.49 529.148 402.5 522.238 399.42C518.968 397.95 515.508 396.68 511.888 395.61C503.218 398.32 495.478 402.3 489.018 407.68C482.388 413.21 477.078 420.2 473.448 428.9C470.028 437.11 468.088 446.75 468.078 458.19C468.088 469.63 470.028 478.94 473.388 487.04C477.138 496.01 482.668 503.17 489.608 508.78H489.598Z" fill="#48245D"/>
<path d="M434.88 399.59C428.14 402.67 422.14 406.54 417.17 411.28C411.47 416.68 406.91 423.21 403.75 430.97C400.6 438.73 398.84 447.74 398.84 458.09C398.84 468.45 400.53 477.2 403.58 484.66C406.63 492.13 411.04 498.34 416.59 503.65C421.76 508.54 427.87 512.46 434.85 515.53H434.86C447.45 521.16 462.61 523.88 479.13 523.88H481.63V523.92C488.66 523.8 495.39 523.17 501.74 522.03C495.73 519.38 490.19 516.03 485.32 511.9C478.29 505.94 472.61 498.37 468.77 489.14C465.13 480.37 463.07 470.32 463.07 458.28C463.07 458.25 463.07 458.22 463.07 458.19C463.07 458.16 463.07 458.13 463.07 458.1C463.07 446.06 465.12 435.71 468.83 426.8C472.88 417.07 478.97 409.19 486.52 403.09C491.49 399.07 497.1 395.83 503.18 393.29C495.67 391.79 487.6 391.04 479.13 391.04C462.95 391.04 447.38 393.84 434.89 399.58L434.88 399.59Z" fill="#48245D"/>
<path d="M337.88 94.4799L403.51 7.62988L298.91 37.8299L337.88 94.4799Z" fill="#48245D"/>
<path d="M845.669 296.89C830.059 297.15 780.069 297.98 770.879 298.13L722.719 385.57L751.359 437.57L783.609 496.12L763.629 533.54L767.089 540.01H839.669L767.119 419.31L845.669 296.9V296.89Z" fill="#48245D"/>
<path d="M760.18 540H761.42L760.8 538.83L760.18 540Z" fill="#48245D"/>
<path d="M697.689 420.66L717.019 385.57L710.419 373.59C709.739 373.59 708.839 373.57 707.739 373.55C705.379 373.51 702.129 373.46 698.279 373.4C690.599 373.27 680.549 373.11 670.579 372.94C656.529 372.7 642.629 372.47 635.629 372.35L714.179 494.75L686.979 540H754.509L757.969 533.53L697.689 420.66Z" fill="#48245D"/>
<path d="M959.99 421.08H885.25V540H959.99V421.08Z" fill="#48245D"/>
<path d="M838.941 416.08H880.251V385.03H960.001V370.69L922.671 336.2L838.941 416.08Z" fill="#48245D"/>
<path d="M959.99 390.03H885.25V416.09H959.99V390.03Z" fill="#48245D"/>
<path d="M269.328 540H349.208L313.968 426.98L269.328 540Z" fill="#48245D"/>
<path d="M214.922 393.14L231.622 446.7L254.802 393.14H214.922Z" fill="#48245D"/>
<path d="M303.422 393.15L260.272 393.25L233.922 454.07L260.712 540H263.912L311.402 418.76L303.422 393.15Z" fill="#48245D"/>
<path d="M703.379 420.69L760.799 528.22L777.929 496.15L719.869 390.75L703.379 420.69Z" fill="#48245D"/>
<path d="M285.99 333.68L262.41 388.14H305.15H307.09L311.5 402.28L314.52 411.97L345.45 333.68H285.99Z" fill="#48245D"/>
<path d="M36.76 483.19V478.67V460.16V437.86V430.6V418.26H0V504.42H14.24V504.57V540H36.76V513.58V483.19Z" fill="#48245D"/>
<path d="M887.14 152.04C874.7 157.17 864.64 164.96 856.88 175.91C851.71 183.22 847.58 191.95 844.54 202.27C843.55 205.61 842.69 209.13 841.93 212.81C842.51 212.74 843.09 212.67 843.68 212.62C843.95 212.59 844.22 212.57 844.5 212.55C845.15 212.5 845.81 212.46 846.47 212.42C846.73 212.41 846.99 212.39 847.26 212.38C848.17 212.35 849.08 212.32 850.01 212.32C850.71 212.32 851.41 212.33 852.11 212.36C852.36 212.36 852.61 212.38 852.87 212.39C853.31 212.41 853.76 212.43 854.2 212.46C854.48 212.48 854.77 212.5 855.05 212.52C855.46 212.55 855.87 212.59 856.27 212.63C856.55 212.66 856.83 212.69 857.11 212.72C857.53 212.77 857.94 212.82 858.36 212.88C858.62 212.92 858.87 212.95 859.13 212.99C859.61 213.06 860.09 213.14 860.56 213.23C860.74 213.26 860.92 213.29 861.1 213.32C861.77 213.44 862.43 213.58 863.08 213.73C863.12 213.73 863.16 213.75 863.19 213.76C863.8 213.9 864.41 214.05 865.01 214.21C865.17 214.25 865.33 214.3 865.49 214.35C865.97 214.48 866.45 214.62 866.92 214.77C867.1 214.83 867.28 214.88 867.46 214.94C867.92 215.09 868.37 215.24 868.83 215.4C869 215.46 869.17 215.52 869.34 215.58C869.82 215.76 870.3 215.94 870.77 216.13C870.9 216.18 871.03 216.23 871.16 216.29C871.75 216.54 872.34 216.79 872.93 217.06C874.14 217.62 875.31 218.22 876.46 218.88C876.58 218.95 876.71 219.02 876.83 219.1C877.12 219.27 877.4 219.43 877.69 219.6C877.77 219.65 877.85 219.71 877.94 219.76C878.76 220.27 879.56 220.8 880.35 221.35C880.56 221.5 880.77 221.65 880.97 221.8C881.21 221.98 881.46 222.15 881.69 222.33C882.21 222.73 882.72 223.14 883.22 223.55C883.36 223.66 883.49 223.78 883.62 223.9C884.3 224.48 884.96 225.08 885.61 225.7C885.8 225.88 885.98 226.05 886.17 226.23C886.85 226.9 887.51 227.59 888.16 228.31C888.36 228.53 888.56 228.76 888.76 228.99C889.39 229.71 890.01 230.45 890.61 231.22C890.78 231.44 890.94 231.67 891.11 231.89C891.6 232.54 892.08 233.21 892.55 233.89C892.72 234.14 892.89 234.38 893.06 234.63C893.59 235.43 894.1 236.25 894.59 237.09C894.78 237.41 894.97 237.74 895.16 238.07C895.64 238.92 896.11 239.79 896.56 240.68C896.62 240.79 896.68 240.9 896.74 241.01C896.92 241.37 897.09 241.75 897.26 242.11C897.36 242.33 897.47 242.55 897.57 242.77C897.8 243.27 898.03 243.78 898.25 244.3C898.36 244.55 898.46 244.8 898.57 245.05C898.78 245.56 898.99 246.08 899.2 246.6C899.3 246.85 899.4 247.11 899.49 247.37C899.69 247.91 899.89 248.45 900.08 249C900.16 249.23 900.23 249.45 900.31 249.68C900.31 249.71 900.33 249.74 900.34 249.76H960V147.16C951.4 145.37 941.94 144.5 931.58 144.5C914.43 144.5 899.59 146.92 887.15 152.04H887.14Z" fill="#48245D"/>
<path d="M807.971 37.54C810.441 43.58 814.001 48.6 818.491 52.89C822.681 56.85 827.631 60.02 833.281 62.52C843.491 67.09 855.821 69.31 869.281 69.31H871.781C883.971 69.06 895.071 66.92 904.341 62.86C910.151 60.31 915.261 57.02 919.481 52.92C923.881 48.64 927.361 43.51 929.771 37.4C932.171 31.29 933.491 24.19 933.491 16C933.491 10.22 932.801 4.88 931.531 0H903.601C903.711 0.25 903.831 0.49 903.941 0.75C905.711 5.01 906.721 10.02 906.721 15.62C906.721 21.22 905.711 26.1 903.971 30.29C902.011 34.98 899.051 38.8 895.421 41.73C891.791 44.67 887.501 46.73 882.841 48.03C878.521 49.24 874.061 49.81 869.061 49.81C864.071 49.81 859.261 49.25 854.781 48C850.071 46.69 845.771 44.63 842.131 41.7C838.501 38.77 835.551 34.96 833.611 30.3C831.871 26.1 830.901 21.3 830.911 15.63C830.911 9.96 831.871 5.02 833.641 0.76C833.751 0.5 833.871 0.26 833.981 0.01H806.111C804.821 4.83 804.121 10.14 804.121 16.01C804.121 24.43 805.491 31.51 807.961 37.55L807.971 37.54Z" fill="#48245D"/>
<path d="M835.92 15.6198C835.92 20.7298 836.77 24.8098 838.24 28.3698C839.88 32.2798 842.27 35.3698 845.29 37.8098C848.31 40.2498 851.98 42.0298 856.14 43.1898C860.1 44.2898 864.47 44.8198 869.08 44.8198C873.7 44.8198 877.65 44.2998 881.51 43.2198C885.61 42.0798 889.26 40.2998 892.28 37.8498C895.3 35.3998 897.71 32.2998 899.36 28.3698C900.83 24.8098 901.72 20.6298 901.72 15.6298C901.72 10.6198 900.82 6.27977 899.33 2.67977C898.94 1.73977 898.5 0.859766 898.02 0.00976562H839.57C839.09 0.849766 838.65 1.73977 838.26 2.67977C836.77 6.26977 835.91 10.5198 835.91 15.6298L835.92 15.6198Z" fill="#48245D"/>
<path d="M826.66 222.85C820 226.68 814.28 232.68 809.39 241.63C806.54 246.86 803.99 253.09 801.75 260.43H898.05C897.64 258.48 897.18 256.58 896.66 254.76H833.38V252.26C833.38 250.66 833.4 249.09 833.42 247.54C833.42 247.16 833.44 246.78 833.45 246.4C833.48 245.16 833.51 243.92 833.56 242.7C833.57 242.41 833.58 242.12 833.59 241.83C833.92 233.74 834.63 226.17 835.72 219.12C832.5 220.01 829.48 221.23 826.65 222.85H826.66Z" fill="#48245D"/>
<path d="M774.22 55.26C779.34 67.52 786.91 77.32 796.41 84.99C805.9 92.65 817.33 98.18 830.13 101.74C842.29 105.13 855.64 106.72 869.6 106.72C883.56 106.72 895.73 105.14 907.5 101.83C920.14 98.31 931.53 92.79 941.04 85.1C948.67 78.92 955.1 71.35 960 62.24V0H936.69C937.87 4.97 938.49 10.31 938.49 16C938.49 24.73 937.08 32.47 934.42 39.23C931.77 45.99 927.86 51.75 922.96 56.5C918.25 61.08 912.61 64.68 906.34 67.44C895.64 72.13 883 74.36 869.27 74.37H866.77V74.29C853.72 74.03 841.6 71.73 831.23 67.1C825.13 64.41 819.67 60.93 815.02 56.54L815.06 56.58L815.01 56.53H815C810.04 51.79 806.03 46.14 803.29 39.43C800.55 32.72 799.08 24.96 799.08 16C799.08 10.25 799.71 4.92 800.91 0H767.92C767.27 4.98 766.93 10.24 766.93 15.81C766.93 31.42 769.58 44.16 774.18 55.25L774.22 55.26Z" fill="#48245D"/>
<path d="M41.7617 330.44V378V413.26H77.0217H79.5217V540H145.242V330.44H41.7617Z" fill="#48245D"/>
<path d="M667.019 181.69H755.519L698.859 0H672.739L637.879 88.24L667.019 181.69Z" fill="#48245D"/>
<path d="M894.479 248.26C894.339 247.89 894.189 247.52 894.039 247.16C893.679 246.29 893.309 245.43 892.919 244.6C892.779 244.3 892.639 244.01 892.489 243.72C892.159 243.03 891.809 242.35 891.459 241.69C891.319 241.43 891.189 241.17 891.049 240.91C890.609 240.11 890.149 239.34 889.669 238.58C889.499 238.31 889.329 238.03 889.149 237.76C888.669 237.02 888.179 236.3 887.669 235.6C887.499 235.37 887.329 235.14 887.159 234.92C886.669 234.27 886.179 233.64 885.669 233.03C885.529 232.86 885.389 232.7 885.249 232.54C884.709 231.91 884.159 231.31 883.589 230.72C883.409 230.53 883.229 230.34 883.039 230.15C882.449 229.55 881.839 228.98 881.219 228.43C881.019 228.25 880.809 228.07 880.599 227.89C879.959 227.34 879.309 226.8 878.639 226.29C878.489 226.18 878.339 226.07 878.179 225.96C877.579 225.51 876.959 225.09 876.339 224.68C876.149 224.56 875.969 224.43 875.779 224.31C875.059 223.85 874.329 223.42 873.589 223.01C873.389 222.9 873.189 222.79 872.989 222.68C872.219 222.27 871.429 221.87 870.629 221.51C870.489 221.45 870.349 221.39 870.209 221.33C869.409 220.98 868.599 220.64 867.769 220.33C867.679 220.3 867.579 220.26 867.489 220.22C866.869 219.99 866.239 219.78 865.609 219.58C865.469 219.54 865.319 219.5 865.179 219.46C864.669 219.31 864.169 219.16 863.649 219.02C863.409 218.96 863.169 218.9 862.929 218.84C862.509 218.73 862.079 218.63 861.649 218.54C861.369 218.48 861.089 218.42 860.819 218.37C860.419 218.29 860.019 218.21 859.609 218.14C859.309 218.09 859.009 218.04 858.699 217.99C858.309 217.93 857.919 217.87 857.519 217.82C857.199 217.78 856.889 217.74 856.559 217.7C856.159 217.65 855.769 217.62 855.359 217.58C855.039 217.55 854.719 217.52 854.389 217.49C853.959 217.46 853.519 217.43 853.089 217.41C852.789 217.39 852.499 217.37 852.199 217.36C851.469 217.33 850.729 217.32 849.979 217.32C848.939 217.32 847.909 217.35 846.899 217.4C846.569 217.42 846.249 217.44 845.929 217.46C845.259 217.5 844.599 217.55 843.939 217.61C843.539 217.65 843.149 217.7 842.759 217.74C842.189 217.81 841.629 217.88 841.069 217.97C841.039 217.97 841.009 217.98 840.979 217.98C839.719 225.47 838.889 233.58 838.539 242.4C838.539 242.47 838.539 242.55 838.539 242.62C838.489 243.97 838.449 245.35 838.419 246.74C838.419 247.06 838.409 247.39 838.399 247.71C838.389 248.38 838.389 249.07 838.379 249.75H894.999C894.819 249.25 894.639 248.74 894.449 248.25L894.479 248.26Z" fill="#48245D"/>
<path d="M73.3217 418.26H41.7617V430.6V437.86V460.16V478.67V483.19V513.58V540H74.5217V418.26H73.3217Z" fill="#48245D"/>
<path d="M462.82 187.54H399.32L520.06 23.9902L505.66 127.37H507.83H510.71L527.72 5.18018L521.88 13.1002L389.41 192.54H462.12L462.82 187.54Z" fill="#35243F"/>
<path d="M558.509 98.9H633.669L634.949 95.65L632.579 88.05L630.269 93.9H562.319L602.959 0H597.509L554.699 98.9H558.509Z" fill="#35243F"/>
<path d="M637.879 88.24L672.739 0H672.729L637.879 88.24Z" fill="#35243F"/>
<path d="M285.991 333.68H345.451L314.521 411.97L316.441 418.11L316.701 418.95L316.901 419.57L352.801 328.68H282.701L256.961 388.14H262.411L285.991 333.68Z" fill="#35243F"/>
<path d="M228.948 454.95L228.568 453.74L191.238 540H196.678L230.848 461.06L228.948 454.95Z" fill="#35243F"/>
<path d="M231.621 446.7L231.631 446.75L254.861 393.14H254.801L231.621 446.7Z" fill="#35243F"/>
<path d="M313.781 426.4L269.281 540H269.331L313.971 426.98L313.781 426.4Z" fill="#35243F"/>
<path d="M547.23 223.28H547.21L546.6 223.66L546.27 224.29C530.89 253.93 517.66 293.82 511.55 341.25L511.41 342.37L512.93 344.1L689.87 343.31L690.22 341.23C696.41 304.33 707.93 263.6 724.95 225.68L726.54 222.14L547.83 222.93L547.24 223.28H547.23ZM685.64 338.32L516.88 339.07C522.98 294.14 535.53 256.24 550.02 227.91L718.82 227.16C702.78 263.8 691.78 302.71 685.64 338.31V338.32Z" fill="#35243F"/>
<path d="M340.869 98.83L415.559 0H415.539L340.859 98.82L340.869 98.83Z" fill="#35243F"/>
<path d="M284.801 164.74L214.311 62.2602L293.851 39.2902L292.821 37.8002L290.861 34.9502L208.811 58.6402L208.321 59.5602L208.201 59.7802L207.461 61.1202L283.671 171.93L286.401 170.92L337.691 103.04L334.711 98.6902L284.801 164.74Z" fill="#35243F"/>
<path d="M298.91 37.8301L403.51 7.63012L403.52 7.62012L298.91 37.8201V37.8301Z" fill="#35243F"/>
<path d="M185.759 329.97L183.969 337.75H242.269L243.819 333.64C249.009 319.91 257.929 308.22 269.649 299.79C281.609 291.19 295.609 286.66 310.209 286.65C324.809 286.65 338.819 291.18 350.769 299.79C362.489 308.22 371.409 319.91 376.599 333.64L378.149 337.75H436.449L434.659 329.97C428.119 301.57 412.329 275.83 390.139 257.47C379.049 248.29 366.649 241.12 353.309 236.19C339.499 231.09 324.989 228.5 310.199 228.5C295.409 228.5 280.889 231.09 267.089 236.19C253.749 241.12 241.359 248.28 230.259 257.47C208.069 275.84 192.279 301.57 185.739 329.97H185.759ZM268.839 240.88C282.099 235.98 296.009 233.5 310.219 233.5C324.429 233.5 338.349 235.98 351.599 240.88C364.409 245.61 376.299 252.49 386.969 261.32C408.289 278.96 423.519 303.76 429.799 331.09L430.179 332.75H381.619L381.289 331.87C375.769 317.24 366.219 304.73 353.699 295.73C340.909 286.53 325.859 281.65 310.219 281.65C294.579 281.65 279.519 286.53 266.739 295.73C254.219 304.74 244.679 317.25 239.149 331.87L238.819 332.75H190.259L190.639 331.09C196.919 303.76 212.149 278.96 233.469 261.32C244.139 252.49 256.039 245.62 268.839 240.88Z" fill="#35243F"/>
<path d="M142.331 233.9V228.9H18.0508V151.19H142.331V146.19H13.0508V233.9H142.331Z" fill="#35243F"/>
<path d="M36.7617 325.44V378V413.26H41.7617V378V330.44H145.242V540H150.242V325.44H36.7617Z" fill="#35243F"/>
<path d="M9.24 509.42H0V509.57H9.24V509.42Z" fill="#35243F"/>
<path d="M36.76 413.26H0V418.26H36.76V413.26Z" fill="#35243F"/>
<path d="M833.652 0.750234C831.882 5.01023 830.912 9.95023 830.922 15.6202C830.922 21.2902 831.892 26.1002 833.622 30.2902C835.562 34.9602 838.512 38.7702 842.142 41.7002C845.772 44.6302 850.082 46.6902 854.792 48.0002C859.272 49.2502 864.092 49.8102 869.072 49.8102C874.072 49.8102 878.532 49.2402 882.852 48.0302C887.502 46.7402 891.792 44.6702 895.432 41.7302C899.062 38.7902 902.022 34.9702 903.982 30.3002C905.722 26.1002 906.732 21.2302 906.732 15.6202C906.732 10.0202 905.722 5.01023 903.952 0.750234C903.842 0.490234 903.722 0.250234 903.612 0.000234375H898.032C898.512 0.840234 898.942 1.73023 899.342 2.67023C900.832 6.27023 901.732 10.6102 901.732 15.6202C901.732 20.6202 900.842 24.8102 899.372 28.3602C897.722 32.2902 895.312 35.3902 892.292 37.8402C889.272 40.2902 885.622 42.0702 881.522 43.2102C877.662 44.2902 873.722 44.8102 869.092 44.8102C864.482 44.8102 860.112 44.2902 856.152 43.1802C851.992 42.0202 848.322 40.2402 845.302 37.8002C842.282 35.3602 839.892 32.2702 838.252 28.3602C836.782 24.8102 835.932 20.7202 835.932 15.6102C835.932 10.5002 836.792 6.26023 838.282 2.66023C838.672 1.72023 839.112 0.840234 839.592 -0.00976562H834.012C833.902 0.240234 833.782 0.480234 833.672 0.730234L833.652 0.750234Z" fill="#35243F"/>
<path d="M524.269 394.86C531.639 398.14 538.319 402.43 543.899 407.84C550.019 413.72 554.869 421.02 558.179 429.49C561.479 437.94 563.239 447.57 563.249 458.17C563.249 458.14 563.249 458.11 563.249 458.08C563.249 447.45 561.479 437.79 558.169 429.32C554.859 420.85 550.009 413.55 543.889 407.67C538.309 402.26 531.629 397.96 524.259 394.69C523.089 394.16 521.879 393.67 520.669 393.19C520.569 393.21 520.479 393.23 520.379 393.25C521.689 393.76 522.989 394.29 524.249 394.86H524.269Z" fill="#35243F"/>
<path d="M501.738 522.03C495.388 523.17 488.648 523.8 481.628 523.92V523.88H479.128C462.608 523.88 447.448 521.16 434.858 515.53H434.848C427.868 512.45 421.758 508.53 416.588 503.64C411.028 498.33 406.628 492.12 403.578 484.65C400.528 477.18 398.838 468.44 398.838 458.08C398.838 447.73 400.588 438.72 403.748 430.96C406.908 423.2 411.468 416.68 417.168 411.28C422.138 406.53 428.138 402.67 434.878 399.58C447.378 393.83 462.938 391.03 479.118 391.04C487.588 391.04 495.648 391.79 503.168 393.29C505.968 392.12 508.868 391.1 511.858 390.22C501.838 387.41 490.808 386.04 479.118 386.04C462.368 386.04 446.148 388.91 432.788 395.04C425.638 398.31 419.158 402.46 413.708 407.65C407.508 413.51 402.518 420.66 399.098 429.07C395.678 437.49 393.828 447.16 393.828 458.07C393.828 468.97 395.608 478.39 398.938 486.53C402.258 494.67 407.108 501.51 413.128 507.25C418.758 512.58 425.378 516.81 432.808 520.09C445.558 525.78 460.508 528.58 476.608 528.84V528.94H479.108C490.218 528.94 500.718 527.73 510.338 525.26L509.968 525.14C507.128 524.24 504.388 523.19 501.728 522.02L501.738 522.03Z" fill="#35243F"/>
<path d="M540.941 503.66C535.721 508.74 529.421 512.8 522.251 515.94C518.641 517.52 514.801 518.86 510.781 519.98C510.871 520.01 510.971 520.04 511.061 520.07C514.981 518.97 518.721 517.66 522.251 516.12C529.421 512.97 535.721 508.92 540.941 503.84C546.391 498.55 550.691 492.2 553.661 484.66C556.631 477.11 558.251 468.35 558.251 458.26C558.251 458.23 558.251 458.2 558.251 458.17C558.241 468.22 556.621 476.95 553.661 484.48C550.691 492.03 546.381 498.38 540.941 503.66Z" fill="#35243F"/>
<path d="M524.27 394.68L524.28 394.69L524.27 394.68Z" fill="#35243F"/>
<path d="M413.699 407.67L413.709 407.66H413.719V407.65L413.699 407.67Z" fill="#35243F"/>
<path d="M432.83 520.11V520.1H432.82L432.83 520.11Z" fill="#35243F"/>
<path d="M900.908 251.5V251.52L901.918 254.76H959.988V249.76H900.328C900.518 250.33 900.718 250.91 900.898 251.49L900.908 251.5Z" fill="#35243F"/>
<path d="M889.73 145.71C880.58 148.9 872.43 153.39 865.38 159.31C854.81 168.18 846.77 180.21 841.43 195.6C839.49 201.19 837.9 207.23 836.66 213.72C836.66 213.72 836.67 213.72 836.68 213.72V213.68L838.38 213.36C838.38 213.36 838.38 213.36 838.39 213.36C839.26 213.19 840.15 213.05 841.04 212.93C841.23 212.9 841.42 212.88 841.6 212.86C841.71 212.85 841.82 212.83 841.93 212.82C842.68 209.14 843.55 205.62 844.54 202.28C847.58 191.96 851.72 183.23 856.88 175.92C864.64 164.97 874.69 157.18 887.14 152.05C899.58 146.93 914.43 144.51 931.57 144.51C941.93 144.51 951.4 145.38 959.99 147.17V142.06C951.27 140.33 941.79 139.51 931.57 139.51C915.92 139.51 901.93 141.47 889.73 145.72V145.71Z" fill="#35243F"/>
<path d="M838.43 247.72C838.43 247.39 838.44 247.07 838.45 246.75C838.45 247.07 838.44 247.4 838.43 247.72Z" fill="#35243F"/>
<path d="M833.59 241.83C833.92 233.73 834.65 226.17 835.75 219.11C835.75 219.11 835.73 219.11 835.72 219.11C834.62 226.16 833.91 233.72 833.59 241.82V241.83Z" fill="#35243F"/>
<path d="M833.431 247.54C833.401 249.1 833.391 250.67 833.391 252.26C833.391 250.66 833.411 249.09 833.431 247.54Z" fill="#35243F"/>
<path d="M833.559 242.7C833.519 243.92 833.479 245.15 833.449 246.4C833.479 245.16 833.509 243.92 833.559 242.7Z" fill="#35243F"/>
<path d="M826.461 421.08H832.701H880.251V416.08H838.941L922.671 336.2L960.001 370.69V363.89L922.611 329.34L826.461 421.08Z" fill="#35243F"/>
<path d="M763.631 533.53L783.621 496.11L751.371 437.56L783.621 496.11L763.631 533.53Z" fill="#35243F"/>
<path d="M760.801 528.22L777.931 496.15L760.801 528.22Z" fill="#35243F"/>
<path d="M635.629 372.35C642.629 372.47 656.529 372.7 670.579 372.94C680.549 373.11 690.599 373.27 698.279 373.4C702.119 373.46 705.379 373.51 707.739 373.55C708.839 373.57 709.729 373.58 710.419 373.59L717.019 385.57L717.979 383.82L719.869 380.39L713.369 368.58L711.879 368.61C711.779 368.61 711.339 368.61 710.649 368.6C705.439 368.53 685.529 368.2 666.939 367.88C657.639 367.72 648.669 367.57 642.019 367.46C638.699 367.4 635.949 367.36 634.039 367.32C632.129 367.29 631.049 367.27 631.049 367.27L626.379 367.19L708.289 494.84L681.139 540H686.969L714.169 494.75L635.619 372.35H635.629Z" fill="#35243F"/>
<path d="M719.871 390.75L777.931 496.15L719.871 390.75Z" fill="#35243F"/>
<path d="M760.802 538.83L757.972 533.53L754.512 540H760.182L760.802 538.83Z" fill="#35243F"/>
<path d="M634.949 95.65L663.339 186.69H762.309L761.299 183.44L704.099 0H698.859L755.519 181.69H667.019L637.879 88.24L635.079 95.35L605.159 0H605.129L632.579 88.05L634.949 95.65Z" fill="#35243F"/>
<path d="M877.712 219.6C877.432 219.43 877.142 219.27 876.852 219.1C877.222 219.32 877.592 219.54 877.952 219.76C877.872 219.71 877.792 219.65 877.702 219.6H877.712Z" fill="#35243F"/>
<path d="M880.359 221.36C880.569 221.51 880.779 221.66 880.979 221.81C880.769 221.66 880.569 221.5 880.359 221.36Z" fill="#35243F"/>
<path d="M898.049 260.44H801.749C803.989 253.1 806.539 246.87 809.389 241.64C814.279 232.68 819.999 226.69 826.659 222.86C829.489 221.24 832.509 220.02 835.729 219.13C835.729 219.13 835.749 219.13 835.759 219.13C835.959 217.87 836.159 216.62 836.379 215.39L836.679 213.73C836.679 213.73 836.669 213.73 836.659 213.73C835.109 214.08 833.579 214.5 832.099 214.99C823.809 217.74 816.589 222.83 810.609 230.59C804.619 238.36 799.819 248.75 796.019 262.27L795.129 265.45H904.099L903.579 262.51C903.099 259.83 902.529 257.26 901.859 254.77H896.679C897.199 256.59 897.659 258.49 898.069 260.44H898.049Z" fill="#35243F"/>
<path d="M841.102 217.97C841.662 217.89 842.222 217.81 842.792 217.74C842.222 217.81 841.662 217.88 841.102 217.97Z" fill="#35243F"/>
<path d="M869.352 215.59C869.832 215.77 870.312 215.95 870.782 216.14C870.312 215.95 869.832 215.76 869.352 215.59Z" fill="#35243F"/>
<path d="M867.469 214.94C867.929 215.09 868.379 215.24 868.839 215.4C868.389 215.24 867.929 215.09 867.469 214.94Z" fill="#35243F"/>
<path d="M872.949 217.07C874.159 217.63 875.329 218.23 876.479 218.89C875.329 218.24 874.149 217.63 872.949 217.07Z" fill="#35243F"/>
<path d="M871.172 216.29C871.762 216.54 872.352 216.79 872.942 217.06C872.362 216.79 871.772 216.54 871.172 216.29Z" fill="#35243F"/>
<path d="M888.18 228.31C888.38 228.53 888.58 228.76 888.78 228.99C888.58 228.76 888.38 228.54 888.18 228.31Z" fill="#35243F"/>
<path d="M894.609 237.1C894.799 237.42 894.989 237.75 895.179 238.08C894.989 237.75 894.799 237.43 894.609 237.1Z" fill="#35243F"/>
<path d="M883.238 223.56C883.378 223.67 883.508 223.79 883.638 223.91C883.508 223.8 883.368 223.68 883.238 223.56Z" fill="#35243F"/>
<path d="M897.578 242.77C897.808 243.27 898.038 243.78 898.258 244.3C898.038 243.79 897.808 243.28 897.578 242.77Z" fill="#35243F"/>
<path d="M843.682 212.62C843.092 212.67 842.512 212.74 841.932 212.81C841.822 212.82 841.712 212.84 841.602 212.85C842.292 212.76 842.982 212.68 843.682 212.62Z" fill="#35243F"/>
<path d="M885.641 225.71C885.831 225.89 886.011 226.06 886.201 226.24C886.021 226.06 885.831 225.89 885.641 225.71Z" fill="#35243F"/>
<path d="M898.57 245.05C898.78 245.56 898.99 246.08 899.2 246.6C899 246.08 898.79 245.56 898.57 245.05Z" fill="#35243F"/>
<path d="M896.75 241.01C896.69 240.9 896.63 240.79 896.57 240.68C896.81 241.15 897.04 241.63 897.27 242.11C897.1 241.74 896.93 241.37 896.75 241.01Z" fill="#35243F"/>
<path d="M873.609 223.01C874.349 223.42 875.089 223.85 875.799 224.31C875.079 223.85 874.349 223.42 873.609 223.01Z" fill="#35243F"/>
<path d="M883.602 230.73C884.162 231.32 884.722 231.92 885.262 232.55C884.722 231.92 884.172 231.32 883.602 230.73Z" fill="#35243F"/>
<path d="M881.23 228.44C881.85 228.99 882.46 229.57 883.05 230.16C882.46 229.56 881.85 228.99 881.23 228.44Z" fill="#35243F"/>
<path d="M876.359 224.68C876.979 225.09 877.599 225.52 878.199 225.96C877.599 225.51 876.979 225.09 876.359 224.68Z" fill="#35243F"/>
<path d="M878.68 226.32C878.68 226.32 878.67 226.31 878.66 226.3C879.33 226.81 879.98 227.35 880.62 227.9C879.99 227.35 879.34 226.82 878.68 226.32Z" fill="#35243F"/>
<path d="M885.672 233.04C886.182 233.65 886.682 234.28 887.162 234.93C886.672 234.28 886.182 233.65 885.672 233.04Z" fill="#35243F"/>
<path d="M895.04 249.76C894.86 249.25 894.67 248.75 894.48 248.26C894.67 248.75 894.851 249.26 895.031 249.76H895.04Z" fill="#35243F"/>
<path d="M889.672 238.59C890.142 239.35 890.602 240.12 891.052 240.92C890.612 240.12 890.152 239.35 889.672 238.59Z" fill="#35243F"/>
<path d="M843.969 217.61C844.619 217.55 845.289 217.5 845.959 217.46C845.289 217.5 844.629 217.55 843.969 217.61Z" fill="#35243F"/>
<path d="M853.109 217.41C853.549 217.43 853.979 217.46 854.409 217.49C853.979 217.46 853.539 217.43 853.109 217.41Z" fill="#35243F"/>
<path d="M855.379 217.58C855.779 217.62 856.179 217.66 856.579 217.7C856.179 217.65 855.789 217.62 855.379 217.58Z" fill="#35243F"/>
<path d="M850.012 217.32C850.762 217.32 851.492 217.34 852.232 217.36C851.502 217.33 850.762 217.32 850.012 217.32Z" fill="#35243F"/>
<path d="M846.93 217.4C847.94 217.35 848.96 217.32 850.01 217.32C848.97 217.32 847.94 217.35 846.93 217.4Z" fill="#35243F"/>
<path d="M870.641 221.51C871.441 221.88 872.231 222.27 873.001 222.68C872.231 222.27 871.441 221.87 870.641 221.51Z" fill="#35243F"/>
<path d="M867.781 220.33C868.611 220.64 869.421 220.97 870.221 221.33C869.421 220.98 868.611 220.64 867.781 220.33Z" fill="#35243F"/>
<path d="M865.609 219.59C866.249 219.79 866.869 220 867.489 220.23C866.869 220 866.239 219.79 865.609 219.59Z" fill="#35243F"/>
<path d="M861.66 218.54C862.09 218.63 862.51 218.74 862.94 218.84C862.52 218.73 862.09 218.63 861.66 218.54Z" fill="#35243F"/>
<path d="M859.621 218.14C860.021 218.21 860.431 218.29 860.831 218.37C860.431 218.29 860.031 218.21 859.621 218.14Z" fill="#35243F"/>
<path d="M850.012 212.32C850.712 212.32 851.412 212.33 852.112 212.36C851.412 212.34 850.722 212.32 850.012 212.32Z" fill="#35243F"/>
<path d="M859.121 212.99C859.601 213.06 860.081 213.14 860.551 213.23C860.071 213.15 859.601 213.06 859.121 212.99Z" fill="#35243F"/>
<path d="M852.859 212.39C853.299 212.41 853.749 212.43 854.189 212.46C853.749 212.43 853.309 212.41 852.859 212.39Z" fill="#35243F"/>
<path d="M847.262 212.38C848.172 212.35 849.082 212.32 850.012 212.32C849.082 212.32 848.172 212.34 847.262 212.38Z" fill="#35243F"/>
<path d="M855.039 212.53C855.449 212.56 855.859 212.6 856.259 212.64C855.849 212.6 855.449 212.56 855.039 212.53Z" fill="#35243F"/>
<path d="M857.109 212.73C857.529 212.78 857.939 212.83 858.359 212.89C857.949 212.83 857.529 212.78 857.109 212.73Z" fill="#35243F"/>
<path d="M844.5 212.55C845.15 212.5 845.81 212.46 846.47 212.42C845.81 212.45 845.15 212.49 844.5 212.55Z" fill="#35243F"/>
<path d="M900.909 251.5C900.729 250.91 900.529 250.34 900.339 249.77C900.339 249.74 900.319 249.71 900.309 249.69C900.509 250.29 900.719 250.89 900.909 251.51V251.5Z" fill="#35243F"/>
<path d="M838.391 213.35C839.261 213.18 840.151 213.04 841.041 212.92C840.151 213.04 839.261 213.19 838.391 213.35Z" fill="#35243F"/>
<path d="M524.699 132.37H573.509L452.769 295.93L467.169 192.54H462.119L471.199 127.37L462.819 187.54L462.119 192.54L445.109 314.74L583.419 127.37H578.459H524.699H510.709L510.009 132.37H524.699Z" fill="#35243F"/>
<path d="M233.91 454.07L260.64 540H260.71L233.92 454.07H233.91Z" fill="#35243F"/>
<path d="M307.09 388.14L311.5 402.28L307.09 388.14Z" fill="#35243F"/>
<path d="M316.701 418.95L313.781 426.4L313.971 426.98L349.211 540H354.451L316.901 419.57L316.701 418.95Z" fill="#35243F"/>
<path d="M228.591 453.78L231.631 446.75L231.621 446.7L214.921 393.14H254.801H254.861L256.981 388.26L305.151 388.14H262.411H256.961H208.121L228.571 453.74L228.951 454.95L228.591 453.78Z" fill="#35243F"/>
<path d="M340.872 98.83L340.862 98.82L337.692 103.03L334.512 98.41L334.712 98.69L337.692 103.04L352.512 124.58L355.242 123.57L448.612 0H442.352L353.642 117.39L340.872 98.83Z" fill="#35243F"/>
<path d="M277.151 12.21L277.031 12.43L276.301 13.78L290.861 34.94L295.921 33.48L283.151 14.91L334.801 0H316.771L277.651 11.3L277.151 12.21Z" fill="#35243F"/>
<path d="M147.328 104.88L227.208 188.6L147.328 275.06V233.9H144.828H142.328V287.84L234.068 188.55L142.328 92.3901V98.6401V146.19H147.328V104.88Z" fill="#35243F"/>
<path d="M156.821 0H150.601L82.8614 91.77L95.6414 0H90.5914L75.1914 110.57L156.821 0Z" fill="#35243F"/>
<path d="M769.599 57.17C775.029 70.19 783.149 80.71 793.259 88.87C803.369 97.03 815.439 102.83 828.779 106.55C841.469 110.09 855.249 111.71 869.589 111.71C883.919 111.71 896.599 110.08 908.839 106.63C922.029 102.96 934.059 97.16 944.179 88.98C950.189 84.12 955.519 78.41 959.999 71.84V62.24C955.089 71.35 948.669 78.92 941.039 85.1C931.539 92.79 920.149 98.31 907.499 101.83C895.729 105.15 883.559 106.72 869.599 106.73C855.639 106.73 842.299 105.14 830.129 101.75C817.329 98.19 805.899 92.67 796.409 85C786.919 77.33 779.349 67.53 774.219 55.27C769.619 44.18 766.969 31.44 766.969 15.83C766.969 10.26 767.309 5.00002 767.959 0.0200195H762.919C762.299 5.03002 761.969 10.29 761.969 15.83C761.969 32 764.729 45.46 769.599 57.19V57.17Z" fill="#35243F"/>
<path d="M488.55 508.08C494.83 513.41 502.35 517.39 510.79 520.14C510.88 520.11 510.97 520.09 511.06 520.06C510.97 520.03 510.87 520 510.78 519.97C502.81 517.37 495.66 513.66 489.6 508.77C482.66 503.16 477.13 496 473.38 487.03C470.02 478.92 468.08 469.62 468.07 458.18C468.07 458.21 468.07 458.24 468.07 458.27C468.07 469.75 470.01 479.08 473.38 487.21C476.94 495.73 482.1 502.61 488.55 508.08Z" fill="#35243F"/>
<path d="M616.671 426.8C612.581 417.01 606.461 409.1 598.901 402.99C591.341 396.88 582.371 392.56 572.571 389.83C563.421 387.26 553.521 386.05 543.341 386.05C532.631 386.05 522.421 387.26 512.971 389.89C512.591 389.99 512.231 390.12 511.851 390.23C508.861 391.11 505.961 392.12 503.161 393.3C497.081 395.84 491.471 399.08 486.501 403.1C478.951 409.2 472.871 417.08 468.811 426.81C465.101 435.71 463.051 446.07 463.051 458.11C463.051 458.14 463.051 458.17 463.051 458.2C463.051 446.2 465.111 435.87 468.811 426.99C472.741 417.57 478.571 409.87 485.801 403.86C493.031 397.84 501.631 393.49 511.131 390.62L511.841 390.41L512.551 390.61C515.241 391.39 517.861 392.28 520.401 393.27C520.501 393.25 520.591 393.23 520.691 393.21C527.831 391.76 535.421 391.07 543.361 391.07C553.141 391.07 562.601 392.24 571.231 394.67C580.481 397.25 588.811 401.29 595.761 406.9C602.701 412.52 608.281 419.71 612.061 428.75C615.491 436.98 617.491 446.85 617.491 458.12C617.491 469.39 615.491 478.93 612.121 487.06C608.341 496.06 602.761 503.26 595.811 508.88C588.861 514.5 580.511 518.55 571.231 521.14C562.571 523.58 553.631 524.74 543.361 524.74C535.211 524.74 527.351 523.99 519.991 522.44C517.211 523.48 514.351 524.41 511.391 525.21L511.031 525.31C511.681 525.51 512.331 525.72 512.991 525.9C522.451 528.54 532.711 529.74 543.361 529.74C554.011 529.74 563.461 528.53 572.581 525.96C582.411 523.23 591.401 518.89 598.961 512.78C606.521 506.67 612.651 498.75 616.741 489C620.381 480.23 622.501 470 622.501 458.14C622.501 446.27 620.391 435.75 616.681 426.84L616.671 426.8Z" fill="#35243F"/>
<path d="M885.25 421.08H880.25V540H885.25V421.08Z" fill="#35243F"/>
<path d="M854.921 291.74L850.251 291.82C850.251 291.82 848.991 291.84 846.791 291.88C839.091 292.01 819.841 292.33 802.461 292.62C793.771 292.76 785.551 292.9 779.471 293C776.431 293.05 773.931 293.09 772.171 293.12C771.291 293.13 770.601 293.15 770.121 293.15C769.881 293.15 769.701 293.15 769.571 293.15H769.421H769.381H767.911L767.201 294.44L719.871 380.38L722.721 385.56L770.881 298.12C780.061 297.97 830.061 297.14 845.671 296.88L767.121 419.29L839.671 539.99H845.501L773.001 419.37L854.911 291.72L854.921 291.74Z" fill="#35243F"/>
<path d="M763.631 533.53L760.801 538.83L761.421 540H767.091L763.631 533.53Z" fill="#35243F"/>
<path d="M717.681 384.36L717.981 383.81L717.021 385.56L697.691 420.66L717.681 384.36Z" fill="#35243F"/>
<path d="M505.659 127.37H471.209L462.129 192.55H501.629L510.009 132.37L510.709 127.37H505.659ZM497.279 187.54H467.869L475.559 132.36H504.969L497.279 187.54Z" fill="#35243F"/>
<path d="M635.08 95.35L637.88 88.24L672.73 0H667.35L635.62 80.37L610.4 0H605.16L635.08 95.35Z" fill="#35243F"/>
<path d="M316.7 418.95L316.44 418.11L314.52 411.97L311.5 402.28L307.09 388.14H305.15L256.98 388.26L254.86 393.14L231.63 446.75L228.59 453.78L228.95 454.95L230.85 461.06L255.4 540H260.64L233.91 454.07H233.92L260.27 393.25L303.42 393.15L311.4 418.76L263.91 540H269.28L313.78 426.4L316.7 418.95Z" fill="#35243F"/>
<path d="M290.859 34.94L292.819 37.8L293.849 39.29L334.509 98.4L337.689 103.02L340.869 98.82L415.539 0H411.879L295.919 33.48L290.859 34.94ZM403.509 7.63L337.879 94.48L298.919 37.83L403.529 7.62V7.64L403.509 7.63Z" fill="#35243F"/>
<path d="M142.328 228.9V233.9H178.388V146.2H142.328V228.9ZM173.378 151.19V228.89H147.318V151.19H173.378Z" fill="#35243F"/>
<path d="M77.0217 413.26H41.7617H36.7617V418.26V430.6V437.86V460.16V478.67V483.19V513.58V540H41.7617V513.58V483.19V478.67V460.16V437.86V430.6V418.26H73.3217H74.5217V540H79.5217V413.26H77.0217Z" fill="#35243F"/>
<path d="M14.24 504.42H0V509.42H9.24V509.57V540H14.24V504.57V504.42Z" fill="#35243F"/>
<path d="M803.34 39.43C806.08 46.14 810.09 51.79 815.05 56.52H815.06C819.71 60.92 825.16 64.41 831.27 67.1C841.64 71.72 853.76 74.02 866.81 74.29V74.37H869.31C883.03 74.37 895.68 72.13 906.38 67.44C912.65 64.69 918.29 61.09 923 56.5C927.9 51.75 931.8 45.99 934.46 39.23C937.12 32.47 938.53 24.73 938.53 16C938.53 10.31 937.91 4.97 936.73 0H931.57C932.84 4.88 933.53 10.22 933.53 16C933.53 24.2 932.21 31.3 929.81 37.4C927.41 43.51 923.93 48.64 919.52 52.91C915.3 57.02 910.19 60.3 904.38 62.86C895.11 66.92 884.01 69.06 871.82 69.31H869.32C855.87 69.31 843.53 67.09 833.32 62.53C827.66 60.03 822.72 56.85 818.53 52.9C814.03 48.6 810.47 43.58 808.01 37.55C805.55 31.51 804.17 24.43 804.17 16.01C804.17 10.14 804.88 4.83 806.16 0.01H800.99C799.8 4.93 799.16 10.26 799.16 16.01C799.16 24.97 800.63 32.73 803.37 39.44L803.34 39.43Z" fill="#35243F"/>
<path d="M815.101 56.5698L815.061 56.5298H815.051L815.101 56.5698Z" fill="#35243F"/>
<path d="M543.898 407.84H543.908V407.85L543.898 407.84Z" fill="#35243F"/>
<path d="M519.979 522.41C521.429 521.87 522.859 521.3 524.259 520.69C531.889 517.34 538.709 512.97 544.429 507.42C550.369 501.66 555.099 494.68 558.319 486.48C561.539 478.28 563.259 468.88 563.259 458.25C563.259 458.22 563.259 458.19 563.259 458.16C563.259 447.56 561.489 437.93 558.189 429.48C554.879 421.01 550.029 413.71 543.909 407.83C538.329 402.42 531.639 398.12 524.279 394.85C523.009 394.28 521.719 393.75 520.409 393.24C517.869 392.25 515.259 391.36 512.559 390.58L511.849 390.38L511.139 390.59C501.639 393.46 493.039 397.81 485.809 403.83C478.579 409.85 472.749 417.54 468.819 426.96C465.119 435.84 463.069 446.17 463.059 458.17C463.059 458.2 463.059 458.23 463.059 458.26C463.059 470.3 465.109 480.36 468.759 489.12C472.609 498.35 478.279 505.93 485.309 511.89C490.189 516.03 495.719 519.37 501.729 522.02C504.389 523.19 507.129 524.24 509.969 525.14L510.339 525.26L510.659 525.36L511.009 525.27L511.369 525.17C514.329 524.38 517.199 523.45 519.969 522.4L519.979 522.41ZM468.069 458.18C468.079 446.74 470.019 437.11 473.439 428.89C477.069 420.2 482.379 413.21 489.009 407.67C495.469 402.29 503.209 398.31 511.879 395.6C515.489 396.68 518.959 397.94 522.229 399.41C529.139 402.49 535.319 406.48 540.419 411.42C546.009 416.8 550.449 423.46 553.509 431.3C556.559 439.12 558.229 448.11 558.239 458.16C558.239 458.19 558.239 458.22 558.239 458.25C558.239 468.34 556.609 477.1 553.649 484.65C550.679 492.2 546.369 498.55 540.929 503.83C535.709 508.91 529.409 512.97 522.239 516.11C518.719 517.65 514.969 518.96 511.049 520.06C510.959 520.09 510.869 520.11 510.779 520.14C502.339 517.39 494.819 513.4 488.539 508.08C482.089 502.6 476.919 495.72 473.369 487.21C469.999 479.08 468.059 469.75 468.059 458.27C468.059 458.24 468.059 458.21 468.059 458.18H468.069Z" fill="#35243F"/>
<path d="M900.91 251.5C900.72 250.89 900.52 250.28 900.31 249.68C900.23 249.45 900.16 249.22 900.08 249C899.89 248.45 899.69 247.91 899.49 247.37C899.39 247.11 899.3 246.86 899.2 246.6C899 246.08 898.79 245.56 898.57 245.05C898.47 244.8 898.36 244.55 898.25 244.3C898.03 243.79 897.8 243.28 897.57 242.77C897.47 242.55 897.36 242.33 897.26 242.11C897.03 241.63 896.8 241.15 896.56 240.68C896.11 239.79 895.64 238.92 895.16 238.07C894.97 237.74 894.78 237.42 894.59 237.09C894.09 236.25 893.59 235.42 893.06 234.63C892.89 234.38 892.72 234.14 892.55 233.89C892.08 233.21 891.6 232.54 891.11 231.89C890.94 231.67 890.78 231.44 890.61 231.22C890.01 230.45 889.39 229.71 888.76 228.99C888.56 228.76 888.36 228.54 888.16 228.31C887.51 227.6 886.85 226.9 886.17 226.23C885.99 226.05 885.8 225.88 885.61 225.7C884.96 225.08 884.3 224.48 883.62 223.9C883.49 223.79 883.35 223.67 883.22 223.55C882.72 223.13 882.2 222.72 881.69 222.33C881.45 222.15 881.21 221.98 880.97 221.8C880.76 221.65 880.56 221.49 880.35 221.35C879.56 220.79 878.76 220.26 877.94 219.76C877.57 219.53 877.21 219.31 876.84 219.1C876.72 219.03 876.6 218.96 876.47 218.88C875.32 218.23 874.14 217.62 872.94 217.06C872.36 216.79 871.77 216.54 871.17 216.29C871.04 216.24 870.91 216.19 870.78 216.13C870.31 215.94 869.83 215.76 869.35 215.58C869.18 215.52 869.01 215.46 868.84 215.4C868.39 215.24 867.93 215.09 867.47 214.94C867.29 214.88 867.11 214.82 866.93 214.77C866.46 214.62 865.98 214.48 865.5 214.35C865.34 214.31 865.18 214.26 865.02 214.21C864.42 214.05 863.81 213.9 863.2 213.76C863.16 213.76 863.12 213.74 863.09 213.73C862.44 213.58 861.78 213.45 861.11 213.32C860.93 213.29 860.75 213.26 860.57 213.23C860.1 213.15 859.62 213.06 859.14 212.99C858.89 212.95 858.63 212.92 858.37 212.88C857.96 212.82 857.54 212.77 857.12 212.72C856.84 212.69 856.56 212.66 856.28 212.63C855.87 212.59 855.47 212.55 855.06 212.52C854.78 212.5 854.49 212.47 854.21 212.46C853.77 212.43 853.33 212.41 852.88 212.39C852.63 212.38 852.38 212.36 852.12 212.36C851.42 212.34 850.73 212.32 850.02 212.32C849.09 212.32 848.18 212.34 847.27 212.38C847.01 212.39 846.74 212.41 846.48 212.42C845.82 212.45 845.16 212.49 844.51 212.55C844.24 212.57 843.96 212.59 843.69 212.62C842.99 212.69 842.3 212.76 841.61 212.85C841.42 212.87 841.23 212.89 841.05 212.92C840.16 213.04 839.27 213.19 838.4 213.35C838.4 213.35 838.4 213.35 838.39 213.35L836.7 213.67V213.71L836.4 215.37C836.18 216.6 835.97 217.85 835.78 219.11C834.68 226.17 833.95 233.72 833.62 241.83C833.61 242.12 833.6 242.41 833.59 242.7C833.54 243.92 833.51 245.16 833.48 246.4C833.48 246.78 833.46 247.16 833.45 247.54C833.42 249.1 833.41 250.67 833.41 252.26V254.76H901.96L900.95 251.52V251.5H900.91ZM848.07 249.76H838.41C838.41 249.08 838.41 248.39 838.43 247.72C838.43 247.39 838.44 247.07 838.45 246.75C838.48 245.36 838.52 243.99 838.57 242.63C838.57 242.56 838.57 242.48 838.57 242.41C838.92 233.59 839.75 225.48 841.01 217.99C841.04 217.99 841.07 217.98 841.1 217.98C841.66 217.9 842.22 217.82 842.79 217.75C843.18 217.7 843.57 217.66 843.97 217.62C844.62 217.56 845.29 217.51 845.96 217.47C846.28 217.45 846.6 217.42 846.93 217.41C847.94 217.36 848.96 217.33 850.01 217.33C850.76 217.33 851.49 217.35 852.23 217.37C852.53 217.38 852.82 217.4 853.12 217.42C853.56 217.44 853.99 217.47 854.42 217.5C854.74 217.52 855.06 217.56 855.39 217.59C855.79 217.63 856.19 217.67 856.59 217.71C856.91 217.75 857.23 217.79 857.55 217.83C857.95 217.88 858.34 217.94 858.73 218C859.03 218.05 859.34 218.1 859.64 218.15C860.04 218.22 860.45 218.3 860.85 218.38C861.13 218.44 861.41 218.49 861.68 218.55C862.11 218.64 862.53 218.75 862.96 218.85C863.2 218.91 863.44 218.97 863.68 219.03C864.2 219.17 864.7 219.32 865.21 219.47C865.35 219.51 865.5 219.55 865.64 219.59C866.28 219.79 866.9 220 867.52 220.23C867.61 220.26 867.71 220.3 867.8 220.34C868.63 220.65 869.44 220.98 870.24 221.34C870.38 221.4 870.52 221.46 870.66 221.52C871.46 221.89 872.25 222.28 873.02 222.69C873.22 222.8 873.42 222.91 873.62 223.02C874.36 223.43 875.1 223.86 875.81 224.32C876 224.44 876.18 224.57 876.37 224.69C876.99 225.1 877.61 225.53 878.21 225.97C878.36 226.08 878.52 226.19 878.67 226.3C878.67 226.3 878.68 226.31 878.69 226.32C879.35 226.82 879.99 227.36 880.63 227.9C880.84 228.08 881.04 228.26 881.25 228.44C881.87 228.99 882.48 229.57 883.07 230.16C883.26 230.35 883.44 230.54 883.62 230.73C884.18 231.32 884.74 231.92 885.28 232.55C885.42 232.71 885.56 232.88 885.7 233.04C886.21 233.65 886.71 234.28 887.19 234.93C887.36 235.16 887.53 235.38 887.7 235.61C888.21 236.31 888.7 237.03 889.18 237.77C889.35 238.04 889.53 238.31 889.7 238.59C890.17 239.35 890.63 240.12 891.08 240.92C891.22 241.17 891.35 241.44 891.49 241.7C891.84 242.36 892.19 243.04 892.52 243.73C892.66 244.02 892.81 244.31 892.95 244.61C893.34 245.44 893.71 246.3 894.07 247.17C894.22 247.53 894.37 247.9 894.51 248.27C894.7 248.76 894.89 249.27 895.07 249.77H848.1L848.07 249.76Z" fill="#35243F"/>
<path d="M880.25 416.08V421.08H885.25H960V416.08H885.25V390.03H960V385.03H880.25V416.08Z" fill="#35243F"/>
<path d="M717.681 384.36L697.691 420.66L757.971 533.53L760.801 538.84L763.631 533.53L783.611 496.11L751.361 437.56L722.721 385.56L719.871 380.38L717.981 383.81L717.681 384.35V384.36ZM760.801 528.22L703.381 420.69L719.881 390.74L777.941 496.14L760.811 528.21L760.801 528.22Z" fill="#35243F"/>
</g>
<defs>
<clipPath id="clip0_287_58531">
<rect width="960" height="540" fill="white"/>
</clipPath>
</defs>
</svg>
