<svg width="960" height="540" viewBox="0 0 960 540" fill="none" xmlns="http://www.w3.org/2000/svg">
<g clip-path="url(#clip0_287_69197)">
<path d="M955.019 336.82H904.359L926.709 408.48L955.019 336.82Z" fill="#292A2E"/>
<path d="M960.003 337.81L927.623 419.79L949.533 490.05H899.863L880.133 540H960.003V337.81Z" fill="#292A2E"/>
<path d="M116.457 70.3202C114.587 71.7302 112.587 72.8402 110.487 73.5902C108.387 74.3402 106.177 74.7302 103.917 74.7302C99.9572 74.7302 95.8572 73.5502 91.6872 71.2502C88.3272 69.4002 84.9072 66.8102 81.3872 63.4702C80.0072 66.3602 78.6572 69.5702 77.3472 73.1302L74.9972 72.2702L77.3472 73.1402C76.8772 74.4102 76.5272 75.8602 76.1572 77.4002C75.7872 78.9402 75.4072 80.5902 74.7972 82.2402L73.9272 84.5902L32.2472 69.2202L20.3672 78.1802C23.2572 82.8902 27.0572 87.9502 31.6272 94.0002C45.3572 112.21 59.3472 125.32 73.1172 133.86C86.8972 142.39 100.447 146.36 113.467 146.36C128.507 146.36 142.947 141.06 156.327 130.99C160.707 127.69 164.497 124.32 167.797 120.89C158.687 114.94 151.777 107.93 146.287 100.39C140.297 92.1602 135.977 83.3202 132.147 74.4502C129.547 68.8202 127.277 63.7702 124.967 59.4502C124.377 60.7502 123.727 62.0202 122.977 63.2102C121.287 65.9002 119.147 68.3002 116.457 70.3302V70.3202Z" fill="#292A2E"/>
<path d="M333.173 319.54H333.023H290.883V319.92V346.29H359.773V277.41H333.613H333.173V319.54Z" fill="#292A2E"/>
<path d="M609.98 540H673.23L670.01 526.3L609.98 540Z" fill="#292A2E"/>
<path d="M685.552 285.12C685.552 269.54 684.522 254.99 682.972 241.84L682.503 238.69C680.763 252.66 679.562 268.29 679.562 285.13C679.562 301.97 680.743 317.37 682.463 331.27L683.242 326.01C684.632 313.5 685.542 299.77 685.542 285.13L685.552 285.12Z" fill="#292A2E"/>
<path d="M232.509 434.81L173.719 475.36L173.859 475.45L281.269 540H302.889V472.39L232.509 434.81Z" fill="#292A2E"/>
<path d="M538.64 81.5098L465.48 84.5898L445.13 85.4398L414.98 141.9L540.96 136.6L539.4 99.6198L538.64 81.5098Z" fill="#292A2E"/>
<path d="M429.11 479.64C428.21 469.19 432.49 459.65 442.19 450.48C444.38 448.41 446.81 446.42 449.44 444.49C446.79 446.42 444.35 448.42 442.16 450.49C432.45 459.65 428.17 469.17 429.07 479.61C429.57 485.37 431.56 491.53 435 497.92C436.69 501.06 438.53 503.87 440.5 506.34C438.55 503.88 436.72 501.09 435.05 497.98C431.61 491.57 429.61 485.4 429.11 479.64Z" fill="#292A2E"/>
<path d="M861.213 492.55L849.473 454.89L812.633 540H874.763L893.503 492.55H861.213Z" fill="#292A2E"/>
<path d="M169.242 478.5L169.082 478.41L73.1016 540H271.562L169.242 478.5Z" fill="#292A2E"/>
<path d="M210.773 54.0399C221.173 57.8799 231.073 53.2599 239.703 37.8299C239.523 37.6499 239.343 37.4599 239.173 37.2799C235.133 33.1899 231.333 30.2699 227.843 28.3899C224.353 26.5199 221.193 25.6899 218.313 25.6899C216.613 25.6899 215.003 25.9699 213.423 26.5399C211.853 27.0999 210.303 27.9499 208.793 29.0899C206.473 30.8399 204.713 32.8599 203.283 35.2399C202.023 37.3299 201.033 39.7299 200.213 42.4199V42.4399L199.873 43.5399C199.703 44.1499 199.543 44.7899 199.383 45.4299C202.483 49.3599 206.063 52.3099 210.773 54.0399Z" fill="#292A2E"/>
<path d="M196.848 36.9598C197.468 35.4598 198.178 34.0198 198.998 32.6598C200.718 29.7898 202.938 27.2298 205.778 25.0998C209.508 22.2698 213.768 20.6898 218.308 20.6998C222.158 20.6998 226.148 21.8198 230.208 23.9998C233.498 25.7698 236.858 28.2498 240.308 31.4398C241.628 28.6398 242.928 25.5498 244.188 22.1298L248.558 10.2898L289.778 25.4898L301.458 16.6798C298.898 12.4498 295.078 7.36977 290.178 0.879766C289.958 0.589766 289.728 0.299766 289.508 0.00976562H178.648C182.838 6.65977 186.148 13.6798 189.088 20.8598C191.898 26.9898 194.338 32.4198 196.848 36.9698V36.9598Z" fill="#292A2E"/>
<path d="M83.8097 58.72L83.7597 58.82C87.4397 62.45 90.8997 65.11 94.1097 66.87C97.7197 68.86 100.97 69.73 103.92 69.73C105.62 69.73 107.23 69.44 108.81 68.88C110.39 68.32 111.93 67.47 113.45 66.32C115.65 64.66 117.35 62.75 118.75 60.53C119.97 58.59 120.94 56.39 121.75 53.93V53.91L122.12 52.82C122.31 52.2 122.49 51.55 122.66 50.89C119.39 46.42 115.59 43.09 110.47 41.2C100.23 37.42 90.4597 41.88 81.9297 56.73C82.1397 56.95 82.3497 57.19 82.5597 57.4L83.8197 58.7L83.8097 58.72Z" fill="#292A2E"/>
<path d="M847.19 447.57L848.72 444.04L807.28 311.14H893.75L900.2 331.81H960.01V200.81L953.21 217.79H909.61L908.61 220.29H905.76L884.38 273.68H801.27L913.67 17.53H955.4L955.84 16.53L956.5 15.03H959.08L960.01 12.92V0H847.52V90.04H749.81V51.35H657.85V110.37H598.83V51.35H657.85V0H452.74L471.97 34.92L447.72 80.33L495.06 78.34L543.44 76.3L543.51 77.99L546.18 141.38L412.11 147.02L402.59 164.84H322.32L401.23 33.55L379.68 0H295.79C300.63 6.44 304.39 11.52 306.93 16.13L307.97 18.03L295.36 27.54L295.46 27.58L293.04 29.41L307.13 34.61C305.72 40.74 303.27 47.37 300.3 55.44C275.14 123.67 232.41 144.56 188.38 128.32C183.02 126.35 178.23 124.11 173.9 121.67C173.78 121.8 173.67 121.93 173.56 122.06L170.74 125.2L170.7 125.09C167.38 128.45 163.63 131.75 159.37 134.96C145.3 145.58 129.75 151.35 113.5 151.34C99.45 151.34 84.95 147.03 70.52 138.09C56.08 129.14 41.69 115.58 27.67 96.99C22.5 90.13 18.18 84.42 14.94 78.76L13.85 76.85L29.03 65.4L14.38 60C15.53 54.59 17.97 47.95 21.21 39.17C26.9 23.69 33.59 10.68 41.02 0H0V183.95L126.38 210.91L112.21 277.34L112.32 277.38V277.44L130.64 284.13L103.4 358.81L0 321.09V540H33.7C34.37 514.05 35.17 477.72 34.46 477.01L103.12 439.19L96.67 435.36L92.91 433.13L165.32 393.25L307.89 469.39V540H371.02L398.36 534.3C398.36 534.3 398.34 534.27 398.33 534.26H398.35C395.53 530.38 392.92 526.24 390.54 521.81C383.83 509.33 379.87 496.59 378.78 483.94C376.53 457.89 386.48 433.63 407.53 413.78C415.83 405.96 425.75 398.92 437.01 392.86C447.82 387.05 458.82 382.82 469.69 380.28C497.79 373.73 523.49 378.85 544.02 395.08C554.01 402.98 562.47 413.3 569.18 425.78C575.8 438.1 579.71 450.73 580.78 463.31C581.78 475.03 580.32 486.39 576.51 497.14H576.54C576.54 497.14 576.53 497.17 576.52 497.18L659.11 479.98L651.67 448.33L716.2 490.39L688.09 540H807.17L847.17 447.57H847.19ZM364.77 351.29H285.88V319.53H218.84V364.16H174.21V319.53H218.84V205.36H333.01V272.4H364.77V351.29ZM531.55 310.21L494.72 337.47L469.68 305.06L444.63 337.47L407.43 310.21L431.74 278.9L396.01 267.11L410.74 225.12L446.1 236.91V201.92H492.88V236.91L528.61 225.12L543.34 267.11L507.24 278.9L531.55 310.21ZM763.62 365.21C757.31 400.56 749.08 423.03 748.48 424.63L747.63 426.92L679.98 403.57L621.48 423.76C620.92 422.27 612.7 399.93 606.46 364.77C602.53 342.62 599.35 315.5 599.35 285.12C599.35 254.74 602.53 227.58 606.46 205.47C612.74 170.31 620.92 147.97 621.48 146.48L679.99 166.67L747.64 143.33L748.49 145.61C749.09 147.21 757.36 169.69 763.63 205.04C767.59 227.31 770.78 254.57 770.78 285.12C770.78 315.67 767.58 342.97 763.63 365.21H763.62Z" fill="#292A2E"/>
<path d="M699.461 173.42L699.441 173.47L699.371 173.66C699.311 173.83 699.221 174.08 699.111 174.4C698.891 175.05 698.571 176.01 698.181 177.25C697.391 179.74 696.291 183.37 695.031 188.02C692.521 197.3 689.381 210.61 686.841 226.83V226.85C686.761 227.32 686.651 228.01 686.531 228.71C686.481 228.99 686.441 229.27 686.391 229.54C688.771 245.72 690.551 264.53 690.551 285.12C690.551 305.71 688.861 323.55 686.571 339.44C686.591 339.75 686.611 340.08 686.631 340.42C686.691 341.43 686.751 342.51 686.801 343.08C686.811 343.24 686.831 343.36 686.831 343.37C691.571 373.56 698.351 393.69 699.341 396.5C699.401 396.68 699.441 396.79 699.451 396.8L700.391 399.2L691.541 402.26L744.611 420.57C746.911 413.92 753.461 393.6 758.691 364.31C762.601 342.32 765.761 315.3 765.761 285.1C765.761 254.9 762.601 227.92 758.691 205.89C753.491 176.6 746.911 156.28 744.611 149.63L691.541 167.94L700.391 170.99L699.451 173.39L699.461 173.42Z" fill="#292A2E"/>
<path d="M165.36 398.95L102.98 433.3L108.2 436.4L170.86 401.88L165.36 398.95Z" fill="#292A2E"/>
<path d="M749.788 0H657.828V51.35H749.788V0Z" fill="#505258"/>
<path d="M953.202 217.8L960.002 200.82V91.9502L909.602 217.8H953.202Z" fill="#505258"/>
<path d="M960 15.0299V12.9199L959.07 15.0299H960Z" fill="#505258"/>
<path d="M666.842 512.79L659.122 480H659.142V479.98L576.552 497.18C571.882 510.35 563.692 522.61 552.122 533.54C549.762 535.77 547.272 537.91 544.672 539.99H610.002L670.032 526.29L666.862 512.78L666.842 512.79Z" fill="#505258"/>
<path d="M399.03 535.19C398.89 535.01 398.75 534.83 398.62 534.64C398.54 534.53 398.45 534.41 398.36 534.3L371.02 540H402.88C402.25 539.26 401.63 538.51 401.02 537.75C400.35 536.91 399.68 536.06 399.04 535.2L399.03 535.19Z" fill="#505258"/>
<path d="M651.688 448.33L659.128 479.99V480L678.008 476.04L688.838 522L670.018 526.3L666.838 512.79L670.008 526.3L673.227 540H688.097L716.217 490.39L651.688 448.33Z" fill="#3B3D42"/>
<path d="M904.361 336.82H955.021L926.711 408.48L929.081 416.08L927.621 419.78V419.79L960.001 337.81V331.82H902.801L904.361 336.82Z" fill="#505258"/>
<path d="M899.858 490.05L898.868 492.55H893.498L874.758 540H880.128L899.858 490.05Z" fill="#505258"/>
<path d="M847.19 447.57L807.18 540H812.63L849.47 454.89L847.19 447.57Z" fill="#505258"/>
<path d="M683.25 326L683.961 321.19L686.43 337.86C686.48 338.21 686.51 338.55 686.54 338.99C686.55 339.13 686.56 339.29 686.57 339.45C688.86 323.55 690.55 305.19 690.55 285.13C690.55 265.07 688.771 245.73 686.391 229.55C686.331 229.93 686.27 230.27 686.24 230.51L683.771 247.2L682.98 241.84C684.52 254.99 685.56 269.54 685.56 285.12C685.56 299.76 684.65 313.48 683.26 326H683.25Z" fill="#505258"/>
<path d="M763.621 205.04C757.351 169.69 749.081 147.21 748.481 145.61L747.631 143.33L679.981 166.67L680.051 166.7L683.951 165.35L691.541 167.97L744.611 149.66C746.911 156.3 753.491 176.63 758.691 205.92C762.601 227.95 765.761 254.93 765.761 285.13C765.761 315.33 762.601 342.35 758.691 364.34C753.461 393.62 746.901 413.95 744.611 420.6L691.541 402.29L683.951 404.91L680.041 403.56L679.961 403.59L747.611 426.94L748.461 424.65C749.061 423.04 757.291 400.57 763.601 365.23C767.561 343 770.751 315.69 770.751 285.14C770.751 254.59 767.551 227.32 763.601 205.05L763.621 205.04Z" fill="#505258"/>
<path d="M124.23 287.12L111.26 282.39L110.6 285.49L0 262.09V315.77L100.42 352.4L124.23 287.12Z" fill="#292A2E"/>
<path d="M130.64 284.14L112.31 277.45L111.26 282.39L124.23 287.12L100.42 352.4L0 315.77V321.09L103.4 358.81L130.64 284.14Z" fill="#505258"/>
<path d="M528.598 225.13L492.878 236.92V201.92H446.098V236.92L410.738 225.13L396.008 267.12L431.738 278.9L407.428 310.21L444.628 337.47L469.668 305.05L494.718 337.47L531.548 310.21L507.238 278.9L543.338 267.12L528.598 225.13Z" fill="#3B3D42"/>
<path d="M749.801 90.04H847.511V0H808.971V51.35H808.821H749.951V0H749.801V51.35V90.04Z" fill="#3B3D42"/>
<path d="M803.969 0H754.949V46.35H803.969V0Z" fill="#3B3D42"/>
<path d="M657.833 51.3501H598.812V110.37H657.833V51.3501Z" fill="#3B3D42"/>
<path d="M333.02 272.41V205.37H218.84V319.54H285.88V272.41H333.02Z" fill="#505258"/>
<path d="M14.3594 60L29.0094 65.4L30.2894 64.43L66.2894 37.28L66.3394 37.35L66.4394 37.28L74.0394 47.36C76.7594 50.96 79.3794 54.05 81.9194 56.73C90.4494 41.88 100.219 37.42 110.459 41.2C115.579 43.09 119.369 46.42 122.649 50.89C122.679 50.76 122.719 50.64 122.759 50.51C123.169 48.9 123.529 47.2 123.869 45.4C124.699 40.92 125.359 35.86 126.129 30.27C127.059 20.52 128.599 10.83 131.929 1.32998C132.089 0.879981 132.249 0.42998 132.419 -0.0200195H41.0194C33.5794 10.66 26.8994 23.67 21.1894 39.15C17.9494 47.93 15.5094 54.56 14.3594 59.98V60Z" fill="#505258"/>
<path d="M255.023 57.9501L254.923 58.0201L253.413 56.0201C252.353 54.6101 251.513 53.1501 250.713 51.7801C249.913 50.4101 249.163 49.1201 248.343 48.0401C245.353 44.0701 242.463 40.6801 239.693 37.8201C231.063 53.2501 221.163 57.8701 210.763 54.0301C206.053 52.2901 202.473 49.3401 199.373 45.4201C199.343 45.5401 199.313 45.6501 199.283 45.7701C198.353 49.6701 197.663 54.1001 196.963 59.0201C196.683 60.9801 196.403 63.0201 196.103 65.1301C195.273 72.3001 194.183 79.5501 192.283 86.7601C191.653 89.1701 190.923 91.5701 190.093 93.9701C189.163 96.6501 188.083 99.3101 186.853 101.97C186.563 102.58 186.273 103.2 185.963 103.81C185.663 104.42 185.353 105.02 185.033 105.63C184.363 106.9 183.653 108.17 182.893 109.42C182.633 109.85 182.373 110.27 182.103 110.7C181.703 111.33 181.293 111.97 180.873 112.6C180.103 113.76 179.293 114.91 178.443 116.05C177.043 117.93 175.523 119.8 173.883 121.65C178.213 124.09 183.003 126.32 188.363 128.3C232.393 144.54 275.123 123.65 300.283 55.4201C303.253 47.3501 305.703 40.7201 307.113 34.5901L293.023 29.3901L255.063 58.0101L255.003 57.9401L255.023 57.9501Z" fill="#505258"/>
<path d="M955.398 17.5298H913.668L801.258 273.69H884.368L905.748 220.3H866.418L955.398 17.5298Z" fill="#3B3D42"/>
<path d="M874.07 215.3H905.21L960 78.4998V20.0298H959.76L874.07 215.3Z" fill="#3B3D42"/>
<path d="M402.88 540C402.25 539.26 401.63 538.51 401.02 537.75C401.63 538.52 402.25 539.26 402.88 540Z" fill="#505258"/>
<path d="M473.189 518.82C462.569 520.35 453.889 518.38 446.819 512.76C444.579 510.98 442.459 508.83 440.479 506.34C438.499 503.87 436.659 501.06 434.979 497.92C431.539 491.53 429.549 485.37 429.049 479.61C428.149 469.17 432.429 459.65 442.139 450.49C444.339 448.42 446.779 446.42 449.419 444.49C452.889 441.95 456.729 439.53 460.919 437.28C467.809 433.57 474.629 430.92 481.169 429.39C494.129 426.37 504.459 428.09 512.749 434.65C517.299 438.25 521.339 443.31 524.759 449.69C528.109 455.92 530.049 461.97 530.539 467.66C531.439 478.18 527.159 487.76 517.449 496.94C512.559 501.56 506.589 505.79 499.689 509.5C493.279 512.95 487.019 515.51 481.029 517.17L576.489 497.13C580.299 486.38 581.759 475.02 580.759 463.3C579.679 450.72 575.779 438.09 569.159 425.77C562.449 413.29 553.989 402.97 543.999 395.07C523.469 378.84 497.759 373.72 469.669 380.27C458.799 382.81 447.799 387.04 436.989 392.85C425.719 398.91 415.799 405.95 407.509 413.77C386.459 433.62 376.519 457.89 378.759 483.93C379.849 496.58 383.809 509.32 390.519 521.8C392.899 526.23 395.509 530.37 398.329 534.24L473.169 518.8L473.189 518.82Z" fill="#505258"/>
<path d="M398.617 534.65C398.757 534.83 398.897 535.01 399.027 535.2C398.887 535.02 398.747 534.84 398.617 534.65Z" fill="#505258"/>
<path d="M170.859 401.88L108.199 436.4L108.269 436.44L170.939 401.93L170.859 401.88Z" fill="#505258"/>
<path d="M164.497 475.65L162.577 474.5L122.587 450.76L103.128 439.21H103.107L34.4475 477.01C35.1575 477.72 34.3475 514.05 33.6875 540H73.0875L169.068 478.41L164.488 475.66L164.497 475.65Z" fill="#505258"/>
<path d="M173.72 475.36L232.51 434.81L170.94 401.93L108.27 436.44L165.15 470.21L165.16 470.22L169.93 473.08L173.72 475.36Z" fill="#3B3D42"/>
<path d="M897.289 331.82H900.19L893.74 311.15H807.27L848.71 444.04L897.289 331.82Z" fill="#505258"/>
<path d="M899.859 490.05H949.529L927.619 419.79V419.78L899.859 490.05Z" fill="#505258"/>
<path d="M667.537 399.22L668.457 396.82L668.477 396.77L668.547 396.58C668.607 396.41 668.697 396.16 668.807 395.84C669.027 395.19 669.347 394.23 669.737 392.99C670.527 390.5 671.627 386.87 672.887 382.22C675.397 372.93 678.537 359.61 681.087 343.38C681.087 343.38 681.127 343.03 681.157 342.65C681.187 342.26 681.217 341.79 681.247 341.29C681.307 340.29 681.367 339.21 681.427 338.47C681.447 338.25 681.467 338.07 681.497 337.86L682.477 331.25C680.757 317.35 679.577 301.82 679.577 285.11C679.577 268.4 680.777 252.65 682.517 238.67L681.307 230.49C681.227 229.94 681.207 229.42 681.197 228.88C681.177 228.35 681.167 227.81 681.147 227.4C681.137 227.13 681.117 226.9 681.097 226.84C676.357 196.65 669.567 176.52 668.587 173.71C668.527 173.53 668.487 173.42 668.477 173.4L667.557 171L680.077 166.68L680.007 166.65L621.497 146.46C620.937 147.95 612.757 170.29 606.477 205.45C602.547 227.56 599.367 254.72 599.367 285.1C599.367 315.48 602.547 342.6 606.477 364.75C612.717 399.91 620.937 422.25 621.497 423.74L679.997 403.55L680.077 403.52L667.567 399.2L667.537 399.22Z" fill="#505258"/>
<path d="M112.21 277.34L126.38 210.91L0 183.95V236.35L110.28 276.64L112.21 277.34Z" fill="#505258"/>
<path d="M322.301 164.85H402.571L412.091 147.03L380.391 148.36L377.761 85.77L377.651 83.28L447.711 80.33L471.961 34.92L452.731 0H379.681L401.211 33.56L322.301 164.85Z" fill="#505258"/>
<path d="M333.173 319.54V277.41H290.883V319.54H333.023H333.173Z" fill="#3B3D42"/>
<path d="M218.841 319.54H174.211V364.17H218.841V319.54Z" fill="#3B3D42"/>
<path d="M301.46 16.67L289.78 25.48L295.36 27.54L307.97 18.03L306.93 16.13C304.39 11.52 300.64 6.43 295.79 0H289.52C289.74 0.29 289.97 0.57 290.19 0.87C295.09 7.36 298.9 12.44 301.47 16.67H301.46Z" fill="#505258"/>
<path d="M167.81 120.87C164.51 124.3 160.72 127.67 156.34 130.97C142.96 141.05 128.53 146.34 113.48 146.34C100.46 146.34 86.9198 142.37 73.1298 133.84C59.3498 125.31 45.3698 112.19 31.6398 93.9798C27.0798 87.9298 23.2798 82.8798 20.3798 78.1598L32.2598 69.1998L26.7898 67.1798L66.3498 37.3498L66.2998 37.2798L30.2998 64.4298L29.0198 65.3998L13.8398 76.8498L14.9298 78.7598C18.1698 84.4298 22.4798 90.1298 27.6598 96.9898C41.6798 115.58 56.0698 129.14 70.5098 138.09C84.9398 147.03 99.4398 151.35 113.49 151.34C129.73 151.34 145.29 145.58 159.36 134.96C163.62 131.75 167.37 128.45 170.69 125.09L169.62 122.01C169.01 121.63 168.41 121.25 167.82 120.87H167.81Z" fill="#505258"/>
<path d="M199.869 43.54C199.659 44.27 199.469 45.02 199.289 45.78C199.319 45.66 199.349 45.55 199.379 45.43C199.539 44.79 199.699 44.15 199.869 43.54Z" fill="#505258"/>
<path d="M208.79 29.09C210.31 27.95 211.85 27.1 213.42 26.54C215 25.98 216.61 25.69 218.31 25.69C221.19 25.69 224.35 26.52 227.84 28.39C231.33 30.26 235.13 33.19 239.17 37.28C239.35 37.46 239.52 37.65 239.7 37.83C242.47 40.69 245.36 44.08 248.35 48.05C249.17 49.13 249.92 50.42 250.72 51.79C251.52 53.16 252.36 54.62 253.42 56.03L254.93 58.03L255.03 57.96L253.58 56.04C252.52 54.63 251.68 53.17 250.88 51.8C250.08 50.43 249.33 49.14 248.51 48.06C245.32 43.83 242.25 40.25 239.31 37.28L238.03 35.99L238.86 34.38C239.34 33.44 239.83 32.46 240.3 31.45C236.85 28.26 233.49 25.78 230.2 24.01C226.15 21.83 222.16 20.71 218.3 20.71C213.77 20.71 209.51 22.28 205.77 25.11C202.93 27.25 200.71 29.8 198.99 32.67C198.17 34.04 197.47 35.47 196.84 36.97C197.72 38.57 198.62 40.06 199.54 41.43L200.2 42.42C201.02 39.73 202.01 37.34 203.27 35.24C204.7 32.86 206.46 30.84 208.78 29.09H208.79Z" fill="#505258"/>
<path d="M113.451 66.33C111.931 67.48 110.391 68.32 108.811 68.89C107.231 69.45 105.621 69.74 103.921 69.74C100.961 69.74 97.7106 68.87 94.1106 66.88C90.9006 65.11 87.4406 62.45 83.7606 58.83L82.9706 60.33C82.4406 61.33 81.9106 62.39 81.3906 63.48C84.9106 66.81 88.3406 69.4 91.6906 71.26C95.8606 73.56 99.9606 74.74 103.921 74.74C106.191 74.74 108.391 74.35 110.491 73.6C112.591 72.85 114.581 71.74 116.461 70.33C119.151 68.3 121.291 65.9 122.981 63.21C123.731 62.01 124.381 60.75 124.971 59.45C124.121 57.85 123.261 56.34 122.381 54.96L121.751 53.96C120.931 56.42 119.961 58.62 118.751 60.56C117.351 62.78 115.651 64.69 113.451 66.35V66.33Z" fill="#505258"/>
<path d="M185.969 103.83C186.269 103.22 186.569 102.6 186.859 101.99C186.569 102.6 186.279 103.22 185.969 103.83Z" fill="#505258"/>
<path d="M182.891 109.44C183.651 108.18 184.361 106.92 185.031 105.65C184.361 106.92 183.651 108.19 182.891 109.44Z" fill="#505258"/>
<path d="M180.883 112.61C181.303 111.98 181.713 111.35 182.113 110.71C181.713 111.34 181.303 111.98 180.883 112.61Z" fill="#505258"/>
<path d="M173.551 122.05C173.671 121.92 173.781 121.79 173.891 121.66C175.531 119.81 177.051 117.94 178.451 116.06C176.951 118.08 175.321 120.07 173.551 122.05Z" fill="#505258"/>
<path d="M134.587 9.78C134.287 10.92 134.017 12.07 133.757 13.22C133.247 15.52 132.807 17.84 132.427 20.18C132.057 22.52 131.737 24.88 131.467 27.25C131.337 28.44 131.208 29.63 131.098 30.83V30.88L131.087 30.93C129.907 39.39 129.008 46.78 127.188 53.23C130.487 58.67 133.337 65.1 136.697 72.35V72.37L136.727 72.41C140.497 81.15 144.677 89.65 150.337 97.43C155.667 104.74 162.288 111.42 171.208 117.13C178.038 109.13 182.407 100.85 185.367 92.35C185.757 91.22 186.127 90.08 186.477 88.94C186.827 87.8 187.147 86.66 187.447 85.51C189.257 78.62 190.327 71.61 191.137 64.54V64.52V64.48C192.037 58.15 192.767 52.39 193.837 47.18C194.017 46.31 194.208 45.46 194.408 44.62C194.518 44.15 194.648 43.7 194.768 43.24C191.138 37.57 188.118 30.71 184.518 22.9L184.497 22.85L184.477 22.8C181.197 14.75 177.497 7.07 172.667 0H137.768C137.368 1 136.997 2 136.647 3C135.857 5.24 135.177 7.5 134.577 9.78H134.587Z" fill="#3B3D42"/>
<path d="M126.13 30.28C125.36 35.87 124.7 40.93 123.87 45.41C123.54 47.21 123.17 48.91 122.76 50.52C122.73 50.65 122.69 50.77 122.65 50.9C122.48 51.56 122.3 52.21 122.11 52.83L121.73 53.92V53.94L122.38 54.94C123.26 56.33 124.12 57.84 124.97 59.43C127.28 63.75 129.55 68.8 132.15 74.43C135.98 83.3 140.3 92.14 146.29 100.37C151.78 107.91 158.68 114.91 167.8 120.87C168.39 121.26 168.99 121.64 169.6 122.01L170.67 125.09L170.71 125.2L173.53 122.06C175.31 120.08 176.93 118.08 178.43 116.07C179.28 114.93 180.09 113.78 180.86 112.62C181.28 111.99 181.69 111.36 182.09 110.72C182.36 110.29 182.62 109.87 182.88 109.44C183.64 108.18 184.35 106.92 185.02 105.65C185.34 105.05 185.65 104.44 185.95 103.83C186.25 103.22 186.55 102.6 186.84 101.99C188.08 99.34 189.15 96.67 190.08 93.99C190.91 91.59 191.64 89.19 192.27 86.78C194.17 79.57 195.26 72.32 196.09 65.15C196.39 63.04 196.67 61 196.95 59.04C197.65 54.12 198.34 49.69 199.27 45.79C199.45 45.02 199.65 44.27 199.85 43.55L200.21 42.45V42.43L199.53 41.44C198.61 40.07 197.72 38.58 196.83 36.98C194.32 32.43 191.88 27 189.07 20.87C186.14 13.69 182.83 6.67002 178.63 0.0200195H172.66C177.48 7.09002 181.18 14.77 184.47 22.82L184.49 22.87L184.51 22.92C188.11 30.73 191.13 37.59 194.76 43.26C194.64 43.72 194.51 44.17 194.4 44.64C194.2 45.48 194.01 46.33 193.83 47.2C192.76 52.41 192.03 58.16 191.13 64.5V64.54V64.56C190.32 71.63 189.25 78.64 187.44 85.53C187.14 86.68 186.81 87.82 186.47 88.96C186.12 90.1 185.75 91.24 185.36 92.37C182.4 100.87 178.03 109.15 171.2 117.15C162.28 111.45 155.65 104.76 150.33 97.45C144.66 89.67 140.49 81.16 136.72 72.43L136.7 72.39V72.37C133.34 65.13 130.49 58.69 127.18 53.25C128.99 46.8 129.9 39.41 131.08 30.95V30.9L131.09 30.85C131.2 29.65 131.33 28.46 131.46 27.27C131.73 24.9 132.04 22.54 132.42 20.2C132.79 17.86 133.23 15.54 133.75 13.24C134.01 12.09 134.28 10.94 134.58 9.80002C135.18 7.52002 135.86 5.26002 136.65 3.02002C137 2.02002 137.38 1.02002 137.77 0.0200195H132.42C132.25 0.47002 132.09 0.92002 131.93 1.37002C128.6 10.87 127.06 20.55 126.13 30.31V30.28Z" fill="#292A2E"/>
<path d="M956.502 15.0298L955.842 16.5298L955.402 17.5298L866.422 220.3H905.752H908.602L909.602 217.8L960.002 91.9498V78.4998L905.212 215.3H874.072L959.762 20.0298H960.002V15.0298H959.072H956.502Z" fill="#292A2E"/>
<path d="M568.228 504L479.968 522.52C479.818 522.57 479.658 522.61 479.508 522.64C478.958 522.77 478.478 522.86 478.048 522.93C477.838 522.97 477.628 523.01 477.408 523.05L407.328 537.51C408.068 538.36 408.828 539.18 409.598 539.99H536.398C540.808 536.82 544.918 533.46 548.678 529.9C557.088 521.96 563.638 513.27 568.238 503.99L568.228 504Z" fill="#3B3D42"/>
<path d="M576.54 497.19C576.54 497.19 576.55 497.16 576.56 497.14H576.53L481.07 517.18C480.32 517.39 479.57 517.59 478.83 517.77L476.45 518.27C475.34 518.49 474.27 518.67 473.2 518.82L398.36 534.26H398.34C398.34 534.26 398.36 534.29 398.37 534.3C398.45 534.42 398.54 534.53 398.63 534.64C398.77 534.82 398.91 535 399.04 535.19C399.69 536.05 400.35 536.9 401.02 537.74C401.63 538.5 402.25 539.25 402.88 539.99H409.59C408.82 539.18 408.06 538.35 407.32 537.51L477.4 523.05C477.61 523.01 477.82 522.97 478.04 522.93C478.47 522.85 478.96 522.76 479.5 522.64C479.65 522.6 479.81 522.56 479.96 522.52L568.22 504C563.62 513.29 557.07 521.97 548.66 529.91C544.89 533.47 540.79 536.83 536.38 540H544.64C547.24 537.92 549.74 535.77 552.09 533.55C563.66 522.63 571.85 510.36 576.52 497.19H576.54Z" fill="#292A2E"/>
<path d="M499.727 509.51C506.617 505.8 512.597 501.58 517.487 496.95C527.197 487.77 531.477 478.19 530.577 467.67C530.087 461.98 528.137 455.93 524.797 449.7C521.377 443.32 517.327 438.26 512.787 434.66C504.497 428.1 494.167 426.37 481.207 429.4C474.667 430.93 467.847 433.58 460.957 437.29C456.767 439.55 452.927 441.96 449.457 444.5C446.827 446.42 444.397 448.42 442.207 450.49C432.497 459.66 428.217 469.2 429.127 479.65C429.627 485.42 431.627 491.59 435.067 497.99C436.737 501.1 438.557 503.9 440.517 506.35C442.497 508.84 444.607 510.98 446.857 512.77C453.927 518.39 462.607 520.35 473.227 518.83C474.297 518.68 475.367 518.5 476.477 518.28L478.857 517.78C479.597 517.6 480.347 517.4 481.097 517.19C487.087 515.53 493.357 512.96 499.757 509.52L499.727 509.51Z" fill="#292A2E"/>
<path d="M666.837 512.79L670.017 526.3L688.837 522L678.007 476.04L659.127 480H659.117L666.837 512.79Z" fill="#3B3D42"/>
<path d="M895.468 487.55L923.778 415.88L899.728 338.76L852.508 447.85L864.888 487.55H895.468Z" fill="#3B3D42"/>
<path d="M929.08 416.08L926.71 408.48L904.36 336.81L902.8 331.81H897.29L848.71 444.04L847.18 447.57L849.46 454.89L861.2 492.55H898.86L899.85 490.05L927.61 419.78L929.07 416.08H929.08ZM852.51 447.85L899.73 338.76L923.78 415.88L895.47 487.55H864.89L852.51 447.85Z" fill="#292A2E"/>
<path d="M693.951 396.15C693.791 395.67 693.611 395.12 693.411 394.49C692.601 391.94 691.481 388.23 690.201 383.51C688.301 376.47 686.041 367.17 683.951 356.08C680.111 376.42 675.741 390.72 673.961 396.14L683.951 399.59L693.941 396.14L693.951 396.15Z" fill="#3B3D42"/>
<path d="M673.969 174.09C674.129 174.57 674.309 175.12 674.499 175.74C675.309 178.29 676.429 182 677.709 186.71C679.609 193.75 681.869 203.05 683.959 214.14C687.799 193.8 692.169 179.5 693.949 174.08L683.959 170.63L673.969 174.08V174.09Z" fill="#3B3D42"/>
<path d="M699.459 396.81C699.459 396.81 699.419 396.69 699.349 396.51C698.359 393.7 691.569 373.57 686.839 343.38C686.839 343.38 686.819 343.25 686.809 343.09C686.759 342.51 686.699 341.43 686.639 340.43C686.619 340.09 686.599 339.77 686.579 339.45C686.569 339.3 686.559 339.14 686.549 338.99C686.519 338.55 686.489 338.21 686.439 337.86L683.969 321.19L683.259 326L682.479 331.26L681.499 337.87C681.469 338.07 681.449 338.26 681.429 338.48C681.369 339.22 681.309 340.3 681.249 341.3C681.219 341.8 681.189 342.28 681.159 342.66C681.129 343.04 681.099 343.36 681.089 343.39C678.539 359.62 675.399 372.94 672.889 382.23C671.629 386.87 670.529 390.51 669.739 393C669.339 394.24 669.029 395.2 668.809 395.85C668.699 396.18 668.609 396.42 668.549 396.59L668.479 396.78L668.459 396.83L667.539 399.23L680.049 403.55L683.959 404.9L691.549 402.28L700.399 399.22L699.459 396.82V396.81ZM683.959 356.09C686.049 367.18 688.299 376.48 690.209 383.52C691.489 388.24 692.609 391.94 693.419 394.5C693.619 395.12 693.799 395.67 693.959 396.16L683.969 399.61L673.979 396.16C675.759 390.74 680.129 376.44 683.969 356.1L683.959 356.09Z" fill="#292A2E"/>
<path d="M668.471 173.42C668.471 173.42 668.521 173.55 668.581 173.73C669.571 176.54 676.361 196.67 681.091 226.87C681.101 226.93 681.121 227.16 681.141 227.43C681.161 227.84 681.171 228.38 681.191 228.91C681.211 229.45 681.231 229.96 681.301 230.52L682.511 238.7L682.981 241.85L683.771 247.21L686.241 230.52C686.281 230.28 686.331 229.94 686.391 229.56C686.431 229.3 686.481 229.02 686.531 228.73C686.651 228.04 686.761 227.35 686.841 226.87V226.85C689.391 210.63 692.531 197.32 695.041 188.04C696.301 183.4 697.401 179.76 698.191 177.27C698.591 176.03 698.901 175.07 699.121 174.42C699.231 174.09 699.321 173.85 699.381 173.68L699.451 173.49L699.471 173.44L700.411 171.04L691.561 167.99L683.971 165.37L680.071 166.72L667.551 171.04L668.471 173.44V173.42ZM683.961 214.14C681.871 203.05 679.621 193.75 677.711 186.71C676.431 181.99 675.311 178.29 674.501 175.74C674.301 175.12 674.121 174.57 673.971 174.09L683.961 170.64L693.951 174.09C692.171 179.51 687.801 193.81 683.961 214.15V214.14Z" fill="#292A2E"/>
<path d="M99.56 278.05L0 241.68V256.98L99.56 278.05Z" fill="#3B3D42"/>
<path d="M111.26 282.39L112.31 277.45L112.32 277.39L112.21 277.34L110.28 276.64L0 236.35V241.68L99.56 278.05L0 256.98V262.09L110.6 285.49L111.26 282.39Z" fill="#292A2E"/>
<path d="M382.859 88.0599L385.179 143.15L414.979 141.9L445.129 85.4399L382.859 88.0599Z" fill="#3B3D42"/>
<path d="M808.819 51.35H808.969V0H803.969V46.35H754.949V0H749.949V51.35H808.819Z" fill="#292A2E"/>
<path d="M252.497 45.0299C253.557 46.4399 254.397 47.8999 255.197 49.2699C255.527 49.8399 255.857 50.3899 256.177 50.9299L285.137 29.0899L251.527 16.6899L248.887 23.8399C247.357 27.9899 245.757 31.6799 244.117 35.0199C246.847 37.8999 249.647 41.2199 252.507 45.0199L252.497 45.0299Z" fill="#3B3D42"/>
<path d="M248.559 10.2798L244.189 22.1198C242.929 25.5398 241.629 28.6198 240.309 31.4298C239.829 32.4398 239.349 33.4198 238.869 34.3598L238.039 35.9698L239.319 37.2598C242.259 40.2298 245.329 43.8098 248.519 48.0398C249.339 49.1198 250.089 50.4098 250.889 51.7798C251.689 53.1498 252.529 54.6098 253.589 56.0198L255.039 57.9398L255.099 58.0098L293.059 29.3898L295.479 27.5598L295.379 27.5198L289.799 25.4598L248.579 10.2598L248.559 10.2798ZM248.879 23.8498L251.519 16.6998L285.129 29.0998L256.169 50.9398C255.849 50.4098 255.519 49.8598 255.189 49.2798C254.389 47.9098 253.549 46.4498 252.489 45.0398C249.629 41.2398 246.829 37.9198 244.099 35.0398C245.749 31.6998 247.339 28.0098 248.869 23.8598L248.879 23.8498Z" fill="#292A2E"/>
<path d="M77.7272 59.57C75.2272 56.88 72.6772 53.85 70.0572 50.38L65.4672 44.29L37.1172 65.67L70.8472 78.11C71.0072 77.51 71.1572 76.88 71.3072 76.24C71.6772 74.7 72.0572 73.05 72.6672 71.4C74.2872 67 75.9772 63.08 77.7372 59.57H77.7272Z" fill="#3B3D42"/>
<path d="M26.7891 67.19L32.2591 69.21L73.9391 84.58L74.8091 82.23C75.4191 80.57 75.7991 78.93 76.1691 77.39C76.5291 75.85 76.8791 74.4 77.3591 73.13L75.0091 72.26L77.3591 73.12C78.6691 69.57 80.0191 66.36 81.3991 63.46C81.9191 62.36 82.4491 61.31 82.9791 60.31L83.7691 58.81L83.8191 58.71L82.5591 57.41C82.3491 57.2 82.1391 56.96 81.9291 56.74C79.3891 54.05 76.7691 50.97 74.0491 47.37L66.4491 37.29L66.3491 37.36L26.7891 67.19ZM72.6591 71.4C72.0491 73.06 71.6691 74.7 71.2991 76.24C71.1491 76.88 70.9991 77.5 70.8391 78.11L37.1091 65.67L65.4591 44.29L70.0491 50.38C72.6691 53.85 75.2191 56.88 77.7191 59.57C75.9591 63.07 74.2691 67 72.6491 71.4H72.6591Z" fill="#292A2E"/>
<path d="M538.641 81.5098L539.401 99.6198L538.641 81.5098Z" fill="#292A2E"/>
<path d="M377.758 85.77L380.388 148.36L412.088 147.03L546.158 141.38L543.498 78L546.158 141.38L412.088 147.03L414.818 141.91L540.958 136.6L414.978 141.9L385.178 143.15L382.858 88.06L445.128 85.44L465.478 84.59L444.968 85.45L447.708 80.33L495.048 78.34L447.708 80.33L377.648 83.28L377.758 85.77Z" fill="#292A2E"/>
<path d="M444.97 85.4498L465.48 84.5898L538.64 81.5098L539.4 99.6198L540.96 136.6L414.82 141.91L412.09 147.03L546.16 141.38L543.5 77.9998L543.43 76.2998L495.05 78.3398L447.71 80.3298L444.97 85.4498Z" fill="#505258"/>
<path d="M333.613 277.41H359.773V346.29H290.883V319.92H285.883V351.29H288.383H364.773V272.41H333.613V277.41Z" fill="#505258"/>
<path d="M290.883 319.54V277.41H333.173H333.613V272.41H333.023H285.883V319.54V319.92H290.883V319.54Z" fill="#292A2E"/>
<path d="M165.32 393.26L92.9102 433.14L96.6702 435.37L103.12 439.2L103.14 439.21L108.22 436.41L165.15 470.21L169.93 473.08L165.16 470.22L165.15 470.21L108.27 436.44L108.2 436.4L102.98 433.3L165.36 398.95L170.86 401.88L170.94 401.93L232.51 434.81L302.89 472.39V540H307.89V469.39L165.32 393.26Z" fill="#505258"/>
<path d="M172.022 476.72L169.242 478.5L271.562 540H281.272L173.862 475.45L172.022 476.72Z" fill="#505258"/>
<path d="M122.602 450.76L162.582 474.5L164.502 475.65L162.582 474.5L122.602 450.76Z" fill="#505258"/>
<path d="M122.601 450.76L162.581 474.5L164.501 475.65L169.081 478.41L169.241 478.5L172.021 476.72L173.861 475.45L173.721 475.36L169.931 473.08L165.151 470.21L108.221 436.41L103.141 439.21L122.601 450.76Z" fill="#292A2E"/>
</g>
<defs>
<clipPath id="clip0_287_69197">
<rect width="960" height="540" fill="white"/>
</clipPath>
</defs>
</svg>
