<svg width="16" height="16" viewBox="0 0 16 16" fill="none" xmlns="http://www.w3.org/2000/svg">
<g clip-path="url(#clip0_208_2579)">
<path d="M8 11.9982C10.2091 11.9982 12 10.2074 12 7.99823C12 5.78909 10.2091 3.99823 8 3.99823C5.79086 3.99823 4 5.78909 4 7.99823C4 10.2074 5.79086 11.9982 8 11.9982Z" fill="white"/>
<path d="M8.00008 4.00001H14.9271C14.2252 2.78381 13.2154 1.77385 11.9994 1.07168C10.7833 0.369518 9.40378 -9.79568e-05 7.99955 1.94733e-08C6.59531 9.79957e-05 5.21586 0.369906 3.99988 1.07224C2.78391 1.77457 1.77428 2.78468 1.07251 4.00098L4.53604 10L4.53914 9.99921C4.18681 9.39164 4.00088 8.70191 4.00009 7.99957C3.9993 7.29722 4.18368 6.60708 4.53465 5.99872C4.88561 5.39035 5.39076 4.88526 5.99917 4.53436C6.60757 4.18346 7.29773 3.99915 8.00008 4.00001Z" fill="url(#paint0_linear_208_2579)"/>
<path d="M7.99992 11.1667C9.74882 11.1667 11.1666 9.74891 11.1666 8.00001C11.1666 6.25111 9.74882 4.83334 7.99992 4.83334C6.25102 4.83334 4.83325 6.25111 4.83325 8.00001C4.83325 9.74891 6.25102 11.1667 7.99992 11.1667Z" fill="#1A73E8"/>
<path d="M11.4637 10.001L8.00021 16C9.40444 16.0002 10.784 15.6307 12.0001 14.9286C13.2162 14.2265 14.226 13.2166 14.9281 12.0005C15.6301 10.7843 15.9996 9.4048 15.9993 8.00058C15.9991 6.59635 15.6291 5.21694 14.9266 4.00104H7.99961L7.99878 4.00414C8.70113 4.00278 9.39142 4.18661 10.0001 4.5371C10.6087 4.88758 11.1142 5.39233 11.4656 6.00047C11.817 6.6086 12.0018 7.29862 12.0015 8.00096C12.0012 8.70331 11.8157 9.39316 11.4637 10.001Z" fill="url(#paint1_linear_208_2579)"/>
<path d="M4.53613 10.001L1.07259 4.00201C0.370303 5.21801 0.000540618 6.59748 0.000488287 8.00172C0.000435955 9.40595 0.370095 10.7854 1.0723 12.0015C1.7745 13.2176 2.78449 14.2273 4.00071 14.9292C5.21694 15.6311 6.59653 16.0004 8.00076 16L11.4643 10.001L11.4621 9.99871C11.112 10.6076 10.6077 11.1135 9.99984 11.4654C9.39199 11.8172 8.70212 12.0026 7.99977 12.0029C7.29742 12.0031 6.60743 11.8182 5.99934 11.4667C5.39124 11.1153 4.88655 10.6097 4.53613 10.001Z" fill="url(#paint2_linear_208_2579)"/>
</g>
<defs>
<linearGradient id="paint0_linear_208_2579" x1="1.07251" y1="5.00001" x2="14.9271" y2="5.00001" gradientUnits="userSpaceOnUse">
<stop stop-color="#D93025"/>
<stop offset="1" stop-color="#EA4335"/>
</linearGradient>
<linearGradient id="paint1_linear_208_2579" x1="6.90728" y1="15.893" x2="13.8346" y2="3.89457" gradientUnits="userSpaceOnUse">
<stop stop-color="#FCC934"/>
<stop offset="1" stop-color="#FBBC04"/>
</linearGradient>
<linearGradient id="paint2_linear_208_2579" x1="8.86596" y1="15.5005" x2="1.93863" y2="3.50201" gradientUnits="userSpaceOnUse">
<stop stop-color="#1E8E3E"/>
<stop offset="1" stop-color="#34A853"/>
</linearGradient>
<clipPath id="clip0_208_2579">
<rect width="16" height="16" fill="white"/>
</clipPath>
</defs>
</svg>
