<svg width="960" height="541" viewBox="0 0 960 541" fill="none" xmlns="http://www.w3.org/2000/svg">
<g clip-path="url(#clip0_287_83914)">
<mask id="mask0_287_83914" style="mask-type:luminance" maskUnits="userSpaceOnUse" x="-1" y="-1" width="961" height="541">
<path d="M959.979 -0.140625H-0.0214844V539.859H959.979V-0.140625Z" fill="white"/>
</mask>
<g mask="url(#mask0_287_83914)">
<path d="M959.979 -0.140625H-0.0214844V539.859H959.979V-0.140625Z" fill="#BF63F3"/>
<path d="M1054.91 80.3996C1056.7 70.3696 1057.63 59.7096 1057.63 48.4396C1057.63 37.1696 1056.68 26.1996 1054.86 16.0396C1044 -44.3804 1002.03 -81.6304 943.168 -91.2004C933.128 -92.8304 922.598 -93.6704 911.638 -93.6704C900.678 -93.6704 889.248 -92.7604 878.808 -91.0204C819.908 -81.1904 778.008 -44.0404 767.138 16.0396C765.298 26.1896 764.348 36.9996 764.348 48.4396C764.348 59.8796 765.288 70.3796 767.088 80.3996C777.878 140.41 819.818 177.63 878.808 187.47C889.248 189.21 900.208 190.12 911.638 190.12C923.068 190.12 933.128 189.28 943.168 187.65C1002.13 178.06 1044.14 140.75 1054.92 80.4096L1054.91 80.3996Z" fill="#C97CF4"/>
<path d="M110.918 33.6494C42.4384 22.8394 -38.3516 -2.01059 -100.802 -43.3206L-126.142 117.249C-56.7916 160.859 29.0884 184.099 99.9284 195.279C347.918 234.419 525.408 144.719 592.578 -47.6406L402.738 -77.6006C358.348 12.9294 264.678 57.9094 110.918 33.6494Z" fill="#C97CF4"/>
<path d="M973.608 408.4C841.898 395.45 796.968 528.4 650.828 491.2C493.498 451.15 533.508 293.95 376.178 253.9C218.838 213.85 178.828 371.06 21.4884 331.01C8.72845 327.76 -2.72155 323.74 -13.0916 319.08V573.31H973.608V408.39V408.4Z" fill="#C97CF4"/>
<path d="M276.388 444.59C273.568 442.29 272.838 443.14 275.508 445.61C279.288 449.12 283.328 452.73 288.578 457.3C294.568 462.43 296.208 463.55 300.228 467.07C307.048 472.99 318.358 483.22 321.078 485.69C321.478 486.05 321.888 486.41 322.308 486.77C325.278 489.29 338.268 500.35 349.308 510.05C357.148 516.85 361.998 521.06 364.528 523.26C370.518 528.45 375.058 532.25 379.588 535.9C382.078 537.91 382.708 537.17 380.378 534.99C376.128 531.02 371.728 527.05 365.758 521.85C363.438 519.83 358.768 515.42 351.958 509.45C350.848 508.48 349.718 507.52 348.588 506.6C338.818 498.6 326.508 487.77 326.508 487.77C326.508 487.77 308.038 471.73 300.248 464.96C294.378 459.86 291.548 457.41 289.818 455.91C284.558 451.35 280.408 447.87 276.408 444.61L276.388 444.59Z" fill="#D8A0F7"/>
<path d="M-36.4116 502.24C-55.1816 509.62 -54.7816 510.66 -35.9216 503.5C-9.18156 493.34 18.8784 482.59 54.9184 468.67C95.7084 452.76 105.858 448.8 133.498 438.02C154.278 430.03 181.398 419.6 206.118 410.09C231.028 400.56 253.528 391.95 264.818 387.63C269.238 378.93 270.668 376.11 271.738 374.02C273.098 371.33 274.458 368.64 275.828 365.95C285.548 346.67 328.198 262.14 364.918 189.34C390.888 137.94 406.958 106.13 415.348 89.5198C435.168 50.2798 449.888 20.8998 464.238 -7.97024C472.128 -23.8302 471.258 -24.2702 463.168 -8.51024C448.438 20.1798 433.518 49.4498 413.678 88.6798C405.928 103.9 389.778 135.62 366.978 180.4C363.298 187.71 359.628 195.03 355.978 202.28C324.708 264.97 283.588 346.12 283.588 346.12L263.388 386.08L125.728 439.29C85.4884 454.85 66.1284 462.33 54.2284 466.93C18.1984 480.86 -9.80156 491.78 -36.4216 502.25L-36.4116 502.24Z" fill="#D8A0F7"/>
<path d="M130.592 2.82713L20.8398 76.6328L94.6399 186.376L204.392 112.57L130.592 2.82713Z" fill="#D8A0F7"/>
<path d="M73.4285 3.47972C68.9685 -7.91028 67.9285 -7.51028 72.1685 3.95972C78.1785 20.2297 84.5785 37.2897 92.8985 59.1797C102.388 83.9697 104.948 90.0597 111.328 106.88C122.138 135.28 140.078 183.31 144.398 194.88C145.038 196.59 145.688 198.3 146.338 200.01C151.028 212.23 171.598 265.81 189.108 312.04C201.528 344.67 209.208 364.86 213.228 375.41C222.718 400.32 229.908 418.89 237.058 437.09C240.988 447.09 241.898 446.74 238.178 436.66C231.428 418.31 224.448 399.66 214.978 374.74C211.298 365.06 203.868 344.8 193.088 316.31C191.328 311.67 189.548 307.04 187.758 302.46C172.318 262.89 152.798 211.32 152.798 211.32C152.798 211.32 123.538 134.41 111.188 101.95C101.888 77.5097 97.4085 65.7497 94.6585 58.5197C86.3285 36.6397 79.7585 19.6397 73.4385 3.48972L73.4285 3.47972Z" fill="#D8A0F7"/>
<path d="M341.198 356.49C332.758 360.99 333.268 361.979 341.818 357.689C353.948 351.599 366.648 345.129 382.918 336.719C401.338 327.129 405.828 324.55 418.328 318.11C439.448 307.18 475.208 289.03 483.828 284.66C485.098 284.01 486.378 283.359 487.648 282.689C496.728 277.949 536.538 257.16 570.918 239.46C595.178 226.91 610.188 219.14 618.028 215.08C636.548 205.49 650.338 198.23 663.818 191.01C671.228 187.05 670.778 186.18 663.268 189.94C649.588 196.78 635.688 203.84 617.168 213.41C609.968 217.13 594.858 224.65 573.668 235.56C570.218 237.34 566.778 239.14 563.378 240.94C534.028 256.53 495.658 276.27 495.658 276.27C495.658 276.27 438.478 305.85 414.338 318.33C396.168 327.74 387.418 332.26 382.048 335.04C365.778 343.47 353.158 350.09 341.188 356.48L341.198 356.49Z" fill="#D8A0F7"/>
<path d="M896.793 35.95L544.218 65.3706L567.271 341.63L919.845 312.21L896.793 35.95Z" fill="#D8A0F7"/>
<path d="M896.789 35.9194L764.349 46.9694C764.349 47.4594 764.329 47.9394 764.329 48.4194C764.329 59.6994 765.269 70.3594 767.069 80.3894C777.859 140.399 819.799 177.619 878.789 187.459C888.629 189.099 898.929 189.989 909.649 190.089L896.779 35.9194H896.789Z" fill="#BF63F3"/>
<path d="M384.478 398.52C386.268 388.49 387.198 377.83 387.198 366.56C387.198 355.29 386.248 344.32 384.428 334.16C373.568 273.74 331.598 236.49 272.738 226.92C262.698 225.29 252.168 224.45 241.208 224.45C230.248 224.45 218.818 225.36 208.378 227.1C149.478 236.93 107.578 274.08 96.7085 334.16C94.8685 344.31 93.9185 355.12 93.9185 366.56C93.9185 378 94.8585 388.5 96.6585 398.52C107.448 458.53 149.388 495.75 208.378 505.59C218.818 507.33 229.778 508.24 241.208 508.24C252.638 508.24 262.698 507.4 272.738 505.77C331.698 496.18 373.708 458.87 384.488 398.53L384.478 398.52Z" fill="#BF63F3"/>
<path d="M328.278 247.329C312.298 237.199 293.588 230.319 272.738 226.929C262.698 225.299 252.168 224.459 241.208 224.459C230.248 224.459 218.818 225.369 208.378 227.109C149.478 236.939 107.578 274.089 96.7085 334.169C96.6085 334.699 96.5285 335.239 96.4385 335.769C183.568 322.849 232.838 246.279 328.288 247.329H328.278Z" fill="#C97CF4"/>
<path d="M420.528 177.45C421.068 174.43 421.348 171.21 421.348 167.81C421.348 164.41 421.058 161.1 420.508 158.04C417.238 139.82 404.578 128.59 386.828 125.7C383.798 125.21 380.628 124.95 377.318 124.95C374.008 124.95 370.568 125.22 367.418 125.75C349.658 128.71 337.018 139.92 333.738 158.04C333.188 161.1 332.898 164.36 332.898 167.81C332.898 171.26 333.178 174.43 333.728 177.45C336.988 195.55 349.628 206.77 367.418 209.74C370.568 210.27 373.868 210.54 377.318 210.54C380.768 210.54 383.798 210.29 386.828 209.79C404.608 206.9 417.278 195.65 420.528 177.45Z" fill="#D8A0F7"/>
<path d="M514.178 42.9796C515.038 38.1496 515.488 33.0096 515.488 27.5796C515.488 22.1496 515.028 16.8596 514.148 11.9696C508.918 -17.1404 488.698 -35.0804 460.338 -39.6904C455.498 -40.4804 450.428 -40.8804 445.148 -40.8804C439.868 -40.8804 434.358 -40.4404 429.328 -39.6004C400.958 -34.8604 380.768 -16.9704 375.528 11.9796C374.648 16.8696 374.178 22.0796 374.178 27.5896C374.178 33.0996 374.628 38.1596 375.498 42.9896C380.698 71.8996 400.898 89.8296 429.318 94.5696C434.348 95.4096 439.628 95.8496 445.138 95.8496C450.648 95.8496 455.488 95.4496 460.328 94.6596C488.728 90.0396 508.968 72.0696 514.158 42.9996L514.178 42.9796Z" fill="#BF63F3"/>
<path d="M441.958 22.3396C446.348 20.2496 445.898 19.2296 441.408 21.1096C435.048 23.7696 428.398 26.6496 419.888 30.4396C410.278 34.7896 407.968 36.0796 401.428 38.9696C390.398 43.8996 371.658 51.9296 367.148 53.8596C366.478 54.1496 365.818 54.4396 365.148 54.7396C360.418 56.8996 339.648 66.3596 321.668 74.3096C308.998 79.9696 301.158 83.4796 297.058 85.3096C287.388 89.6396 280.208 92.9696 273.188 96.3396C269.338 98.1896 269.728 99.0696 273.678 97.4396C280.858 94.4596 288.138 91.3396 297.818 87.0196C301.578 85.3396 309.518 82.0896 320.598 77.1896C322.398 76.3896 324.198 75.5696 325.968 74.7296C341.238 67.5096 361.298 58.6596 361.298 58.6596C361.298 58.6596 391.168 45.3196 403.778 39.6896C413.268 35.4496 417.838 33.3996 420.648 32.1496C429.148 28.3496 435.728 25.3096 441.948 22.3496L441.958 22.3396Z" fill="#D8A0F7"/>
<path d="M96.9584 517.74C97.9684 512.08 98.4984 506.06 98.4984 499.69C98.4984 493.32 97.9584 487.13 96.9284 481.4C90.7984 447.29 67.0984 426.26 33.8684 420.85C28.1984 419.93 22.2484 419.45 16.0684 419.45C9.88844 419.45 3.42844 419.96 -2.47156 420.95C-35.7216 426.5 -59.3816 447.47 -65.5216 481.4C-66.5616 487.13 -67.1016 493.23 -67.1016 499.69C-67.1016 506.15 -66.5716 512.08 -65.5516 517.74C-59.4616 551.62 -35.7816 572.63 -2.47156 578.19C3.41844 579.17 9.60844 579.69 16.0684 579.69C22.5284 579.69 28.1984 579.22 33.8684 578.29C67.1584 572.88 90.8784 551.81 96.9584 517.74Z" fill="#D8A0F7"/>
<path d="M284.888 387.32C266.268 384.43 266.088 385.54 284.678 388.65C311.028 393.07 338.728 397.63 374.348 403.38C414.738 409.84 424.818 411.23 452.168 415.67C475.418 419.47 506.698 424.58 534.378 429.1C560.948 420.15 584.118 412.34 593.138 409.3C595.798 408.39 598.468 407.49 601.138 406.58C614.468 402.02 659.348 386.66 723.228 364.8C731.828 365.28 755.698 366.59 778.468 367.85L882.078 373.54L883.218 372.87C918.548 351.94 944.898 336.21 970.708 320.69C984.888 312.16 984.398 311.32 970.098 319.65C944.068 334.81 917.608 350.35 882.268 371.26C882.128 371.34 881.978 371.43 881.618 371.64C865.818 370.72 832.998 368.8 786.908 366.12C779.278 365.72 771.638 365.32 764.068 364.92C750.908 364.25 736.958 363.54 722.958 362.83C670.728 380.69 619.248 398.29 619.248 398.29L534.228 427.27L445.338 412.93C405.558 406.52 386.418 403.43 374.648 401.53C339.028 395.79 311.298 391.41 284.898 387.32H284.888Z" fill="#D8A0F7"/>
<path d="M494.108 340.136L436.253 459.071L555.18 516.921L613.034 397.986L494.108 340.136Z" fill="#D8A0F7"/>
<path d="M776.869 371.19C777.599 367.11 777.979 362.76 777.979 358.17C777.979 353.58 777.589 349.11 776.849 344.98C772.429 320.37 755.329 305.2 731.359 301.3C727.269 300.63 722.979 300.29 718.519 300.29C714.059 300.29 709.399 300.66 705.149 301.37C681.159 305.37 664.089 320.51 659.659 344.98C658.909 349.12 658.519 353.52 658.519 358.17C658.519 362.82 658.899 367.11 659.639 371.19C664.039 395.63 681.119 410.79 705.149 414.8C709.399 415.51 713.869 415.88 718.519 415.88C723.169 415.88 727.269 415.54 731.359 414.87C755.369 410.97 772.489 395.77 776.869 371.19Z" fill="#C97CF4"/>
<path d="M291.908 99.1296C292.128 97.9196 292.238 96.6296 292.238 95.2596C292.238 93.8896 292.128 92.5696 291.898 91.3396C290.588 84.0296 285.508 79.5196 278.388 78.3596C277.168 78.1596 275.898 78.0596 274.578 78.0596C273.258 78.0596 271.868 78.1696 270.608 78.3796C263.478 79.5696 258.408 84.0596 257.098 91.3296C256.878 92.5596 256.758 93.8696 256.758 95.2496C256.758 96.6296 256.868 97.8996 257.088 99.1196C258.398 106.38 263.468 110.88 270.608 112.07C271.868 112.28 273.198 112.39 274.578 112.39C275.958 112.39 277.178 112.29 278.388 112.09C285.518 110.93 290.608 106.42 291.908 99.1096V99.1296Z" fill="#BF63F3"/>
<path d="M897.348 377.15C897.568 375.94 897.678 374.65 897.678 373.28C897.678 371.91 897.568 370.59 897.338 369.36C896.028 362.05 890.948 357.54 883.828 356.38C882.608 356.18 881.338 356.08 880.018 356.08C878.698 356.08 877.308 356.19 876.048 356.4C868.918 357.59 863.848 362.08 862.538 369.35C862.318 370.58 862.198 371.89 862.198 373.27C862.198 374.65 862.308 375.92 862.528 377.14C863.838 384.4 868.908 388.9 876.048 390.09C877.308 390.3 878.638 390.41 880.018 390.41C881.398 390.41 882.618 390.31 883.828 390.11C890.958 388.95 896.048 384.44 897.348 377.13V377.15Z" fill="#D8A0F7"/>
<path d="M417.428 542.71C417.878 540.2 418.108 537.54 418.108 534.72C418.108 531.9 417.868 529.16 417.418 526.62C414.708 511.52 404.218 502.21 389.498 499.82C386.988 499.41 384.358 499.2 381.618 499.2C378.878 499.2 376.018 499.43 373.408 499.86C358.688 502.32 348.218 511.6 345.498 526.62C345.038 529.16 344.798 531.86 344.798 534.72C344.798 537.58 345.028 540.2 345.488 542.71C348.188 557.71 358.668 567.01 373.408 569.47C376.018 569.91 378.758 570.13 381.618 570.13C384.478 570.13 386.988 569.92 389.498 569.51C404.238 567.11 414.738 557.79 417.428 542.71Z" fill="#BF63F3"/>
<path d="M26.7065 209.163L-43.061 214.985L-35.631 304.025L34.1365 298.204L26.7065 209.163Z" fill="#D8A0F7"/>
<path d="M769.189 324.76C761.089 312 747.849 303.98 731.359 301.29C727.269 300.62 722.979 300.28 718.519 300.28C714.059 300.28 709.399 300.65 705.149 301.36C685.119 304.7 669.919 315.81 662.869 333.63L769.199 324.75L769.189 324.76Z" fill="#BF63F3"/>
<path d="M1034.77 -11.0805C1039.77 -14.1905 1039.2 -15.1505 1034.08 -12.2405C1026.81 -8.11046 1019.22 -3.70046 1009.52 2.06954C998.548 8.64954 995.938 10.4795 988.478 14.8895C975.898 22.3795 954.508 34.7395 949.348 37.7195C948.588 38.1595 947.828 38.6095 947.068 39.0595C941.668 42.3195 917.988 56.6095 897.478 68.7195C883.018 77.3195 874.078 82.6495 869.408 85.4295C858.378 91.9995 850.188 97.0095 842.198 102.01C837.808 104.76 838.308 105.59 842.818 103.04C851.018 98.4095 859.328 93.5995 870.368 87.0395C874.658 84.4895 883.728 79.3995 896.368 71.9395C898.428 70.7195 900.468 69.4895 902.488 68.2395C919.888 57.4595 942.778 43.9595 942.778 43.9595C942.778 43.9595 976.858 23.6895 991.238 15.1395C1002.07 8.68954 1007.28 5.58954 1010.48 3.68954C1020.17 -2.09046 1027.67 -6.65046 1034.77 -11.0705V-11.0805Z" fill="#D8A0F7"/>
<path d="M724.708 369.759C721.658 364.079 720.668 364.589 723.508 370.379C727.538 378.589 731.848 387.169 737.488 398.159C743.928 410.579 745.728 413.569 750.038 422.019C757.358 436.269 769.438 460.45 772.338 466.28C772.768 467.14 773.208 467.999 773.648 468.859C776.838 474.979 790.818 501.819 802.658 525.029C811.068 541.399 816.278 551.53 818.998 556.82C825.428 569.31 830.328 578.599 835.228 587.669C837.918 592.649 838.778 592.21 836.298 587.12C831.778 577.86 827.078 568.459 820.668 555.959C818.178 551.099 813.218 540.86 805.918 526.56C804.728 524.23 803.518 521.91 802.298 519.62C791.738 499.87 778.548 473.96 778.548 473.96C778.548 473.96 758.728 435.37 750.358 419.09C744.058 406.83 741.018 400.929 739.158 397.299C733.508 386.319 729.038 377.819 724.718 369.759H724.708Z" fill="#D8A0F7"/>
<path d="M420.378 157.54C394.858 170.85 367.178 181.39 337.468 189.08C335.748 185.63 334.488 181.8 333.728 177.6C333.178 174.57 332.898 171.36 332.898 167.96C332.898 164.56 333.188 161.25 333.738 158.19C337.018 140.07 349.658 128.86 367.418 125.9C370.568 125.37 373.868 125.1 377.318 125.1C380.768 125.1 383.798 125.35 386.828 125.85C404.368 128.7 416.928 139.7 420.378 157.54Z" fill="#BF63F3"/>
<path d="M420.508 158.19C420.468 157.97 420.428 157.75 420.378 157.54C394.858 170.85 367.178 181.39 337.468 189.08C343.138 200.46 353.758 207.61 367.418 209.88C370.568 210.41 373.868 210.68 377.318 210.68C380.768 210.68 383.798 210.43 386.828 209.94C404.608 207.05 417.278 195.79 420.528 177.6C421.068 174.57 421.348 171.36 421.348 167.96C421.348 164.56 421.058 161.25 420.508 158.19Z" fill="#C97CF4"/>
</g>
</g>
<defs>
<clipPath id="clip0_287_83914">
<rect width="960.01" height="540.01" fill="white"/>
</clipPath>
</defs>
</svg>
