<svg width="961" height="541" viewBox="0 0 961 541" fill="none" xmlns="http://www.w3.org/2000/svg">
<g clip-path="url(#clip0_287_83949)">
<mask id="mask0_287_83949" style="mask-type:luminance" maskUnits="userSpaceOnUse" x="-1" y="-1" width="961" height="541">
<path d="M959.969 -0.140625H-0.03125V539.859H959.969V-0.140625Z" fill="white"/>
</mask>
<g mask="url(#mask0_287_83949)">
<path d="M960.219 0.229492H0.21875V540.229H960.219V0.229492Z" fill="#FCA700"/>
<path d="M1055.15 80.7595C1056.94 70.7295 1057.87 60.0695 1057.87 48.7995C1057.87 37.5295 1056.92 26.5595 1055.1 16.3995C1044.24 -44.0205 1002.27 -81.2705 943.408 -90.8405C933.368 -92.4705 922.838 -93.3105 911.878 -93.3105C900.918 -93.3105 889.488 -92.4005 879.048 -90.6605C820.148 -80.8305 778.248 -43.6805 767.378 16.3995C765.538 26.5495 764.588 37.3595 764.588 48.7995C764.588 60.2395 765.528 70.7395 767.328 80.7595C778.118 140.769 820.058 177.989 879.048 187.829C889.488 189.569 900.448 190.479 911.878 190.479C923.308 190.479 933.368 189.639 943.408 188.009C1002.37 178.419 1044.38 141.109 1055.16 80.7695L1055.15 80.7595Z" fill="#FFC716"/>
<path d="M111.159 34.0093C42.6786 23.1993 -38.1014 -1.65072 -100.561 -42.9607L-125.901 117.609C-56.5514 161.229 29.3286 184.459 100.179 195.639C348.169 234.779 525.659 145.079 592.829 -47.2807L402.989 -77.2407C358.589 13.2993 264.919 58.2793 111.159 34.0093Z" fill="#FFC716"/>
<path d="M973.859 408.759C842.149 395.809 797.219 528.759 651.079 491.559C493.749 451.509 533.759 294.309 376.429 254.259C219.089 214.209 179.079 371.419 21.7387 331.369C8.97869 328.119 -2.47131 324.099 -12.8413 319.439V573.669H973.859V408.749V408.759Z" fill="#FFC716"/>
<path d="M276.628 444.959C273.808 442.659 273.078 443.509 275.748 445.979C279.528 449.489 283.568 453.099 288.818 457.669C294.808 462.799 296.448 463.919 300.468 467.439C307.288 473.359 318.598 483.589 321.318 486.059C321.718 486.419 322.128 486.779 322.548 487.139C325.518 489.659 338.508 500.719 349.548 510.419C357.388 517.219 362.238 521.429 364.768 523.629C370.758 528.819 375.298 532.619 379.828 536.269C382.318 538.279 382.948 537.539 380.618 535.359C376.368 531.389 371.968 527.419 365.998 522.219C363.678 520.199 359.008 515.789 352.198 509.819C351.088 508.849 349.958 507.889 348.828 506.969C339.058 498.969 326.748 488.139 326.748 488.139C326.748 488.139 308.278 472.099 300.488 465.329C294.618 460.229 291.788 457.779 290.058 456.279C284.798 451.719 280.648 448.239 276.648 444.979L276.628 444.959Z" fill="#FA8700"/>
<path d="M-36.1713 502.6C-54.9413 509.98 -54.5413 511.02 -35.6813 503.86C-8.94133 493.7 19.1187 482.95 55.1587 469.03C95.9487 453.12 106.099 449.16 133.739 438.38C154.519 430.39 181.639 419.96 206.359 410.45C231.269 400.92 253.769 392.31 265.059 387.99C269.479 379.29 270.909 376.47 271.979 374.38C273.339 371.69 274.699 369 276.069 366.31C285.789 347.03 328.439 262.5 365.159 189.7C391.129 138.3 407.199 106.49 415.589 89.8796C435.409 50.6396 450.129 21.2596 464.479 -7.61038C472.369 -23.4704 471.499 -23.9104 463.409 -8.15038C448.679 20.5396 433.759 49.8096 413.919 89.0396C406.169 104.26 390.019 135.98 367.219 180.76C363.539 188.07 359.869 195.39 356.219 202.64C324.949 265.33 283.829 346.48 283.829 346.48L263.629 386.44L125.969 439.65C85.7287 455.21 66.3687 462.69 54.4687 467.29C18.4387 481.22 -9.56133 492.14 -36.1813 502.61L-36.1713 502.6Z" fill="#FA8700"/>
<path d="M130.836 3.1948L21.084 77.0005L94.8841 186.744L204.636 112.938L130.836 3.1948Z" fill="#FA8700"/>
<path d="M73.6687 3.84935C69.2087 -7.54065 68.1687 -7.14065 72.4087 4.32935C78.4187 20.5993 84.8187 37.6593 93.1387 59.5493C102.629 84.3393 105.189 90.4293 111.569 107.249C122.379 135.649 140.319 183.679 144.639 195.249C145.279 196.959 145.929 198.669 146.579 200.379C151.269 212.599 171.839 266.179 189.349 312.409C201.769 345.039 209.449 365.229 213.469 375.779C222.959 400.689 230.149 419.259 237.299 437.459C241.229 447.459 242.139 447.109 238.419 437.029C231.669 418.679 224.689 400.029 215.219 375.109C211.539 365.429 204.109 345.169 193.329 316.679C191.569 312.039 189.789 307.409 187.999 302.829C172.559 263.259 153.039 211.689 153.039 211.689C153.039 211.689 123.779 134.779 111.429 102.319C102.129 77.8793 97.6487 66.1193 94.8987 58.8893C86.5687 37.0093 79.9987 20.0093 73.6787 3.85935L73.6687 3.84935Z" fill="#FA8700"/>
<path d="M341.439 356.86C332.989 361.36 333.509 362.35 342.059 358.06C354.189 351.97 366.889 345.5 383.159 337.09C401.579 327.5 406.069 324.92 418.569 318.48C439.689 307.55 475.449 289.4 484.069 285.03C485.339 284.38 486.619 283.73 487.889 283.06C496.969 278.32 536.779 257.53 571.159 239.83C595.419 227.28 610.429 219.51 618.269 215.45C636.789 205.86 650.579 198.6 664.059 191.38C671.469 187.42 671.019 186.55 663.509 190.31C649.829 197.15 635.929 204.21 617.409 213.78C610.209 217.5 595.099 225.02 573.909 235.93C570.459 237.71 567.019 239.51 563.619 241.31C534.269 256.9 495.899 276.64 495.899 276.64C495.899 276.64 438.719 306.22 414.579 318.7C396.409 328.11 387.659 332.63 382.289 335.41C366.019 343.84 353.399 350.46 341.429 356.85L341.439 356.86Z" fill="#FA8700"/>
<path d="M897.032 36.3079L544.458 65.7285L567.51 341.988L920.085 312.568L897.032 36.3079Z" fill="#FA8700"/>
<path d="M897.039 36.2896L764.599 47.3396C764.599 47.8296 764.579 48.3096 764.579 48.7896C764.579 60.0696 765.519 70.7296 767.319 80.7596C778.109 140.77 820.049 177.99 879.039 187.83C888.879 189.47 899.179 190.36 909.899 190.46L897.029 36.2896H897.039Z" fill="#FCA700"/>
<path d="M384.728 398.889C386.518 388.859 387.448 378.199 387.448 366.929C387.448 355.659 386.498 344.689 384.678 334.529C373.818 274.109 331.848 236.859 272.988 227.289C262.948 225.659 252.418 224.819 241.458 224.819C230.498 224.819 219.068 225.729 208.628 227.469C149.728 237.299 107.828 274.449 96.9585 334.529C95.1185 344.679 94.1685 355.489 94.1685 366.929C94.1685 378.369 95.1085 388.869 96.9085 398.889C107.698 458.899 149.638 496.119 208.628 505.959C219.068 507.699 230.028 508.609 241.458 508.609C252.888 508.609 262.948 507.769 272.988 506.139C331.948 496.549 373.958 459.239 384.738 398.899L384.728 398.889Z" fill="#FCA700"/>
<path d="M328.519 247.689C312.539 237.559 293.829 230.679 272.979 227.289C262.939 225.659 252.409 224.819 241.449 224.819C230.489 224.819 219.059 225.729 208.619 227.469C149.719 237.299 107.819 274.449 96.9487 334.529C96.8487 335.059 96.7687 335.599 96.6787 336.129C183.809 323.209 233.079 246.639 328.529 247.689H328.519Z" fill="#FFC716"/>
<path d="M420.778 177.81C421.318 174.79 421.598 171.57 421.598 168.17C421.598 164.77 421.308 161.46 420.758 158.4C417.488 140.18 404.828 128.95 387.078 126.06C384.048 125.57 380.878 125.31 377.568 125.31C374.258 125.31 370.818 125.58 367.668 126.11C349.908 129.07 337.268 140.28 333.988 158.4C333.438 161.46 333.148 164.72 333.148 168.17C333.148 171.62 333.428 174.79 333.978 177.81C337.238 195.91 349.878 207.13 367.668 210.1C370.818 210.63 374.118 210.9 377.568 210.9C381.018 210.9 384.048 210.65 387.078 210.15C404.858 207.26 417.528 196.01 420.778 177.81Z" fill="#FA8700"/>
<path d="M514.418 43.3493C515.278 38.5193 515.728 33.3793 515.728 27.9493C515.728 22.5193 515.268 17.2293 514.388 12.3393C509.158 -16.7707 488.938 -34.7107 460.578 -39.3207C455.738 -40.1107 450.668 -40.5107 445.388 -40.5107C440.108 -40.5107 434.598 -40.0707 429.568 -39.2307C401.198 -34.4907 381.008 -16.6007 375.768 12.3493C374.888 17.2393 374.418 22.4493 374.418 27.9593C374.418 33.4693 374.868 38.5293 375.738 43.3593C380.938 72.2693 401.138 90.1993 429.558 94.9393C434.588 95.7793 439.868 96.2193 445.378 96.2193C450.888 96.2193 455.728 95.8193 460.568 95.0293C488.968 90.4093 509.208 72.4393 514.398 43.3693L514.418 43.3493Z" fill="#FCA700"/>
<path d="M442.199 22.7093C446.589 20.6193 446.139 19.5993 441.649 21.4793C435.289 24.1393 428.639 27.0193 420.129 30.8093C410.519 35.1593 408.209 36.4493 401.669 39.3393C390.639 44.2693 371.899 52.2993 367.389 54.2293C366.719 54.5193 366.059 54.8093 365.389 55.1093C360.659 57.2693 339.889 66.7293 321.909 74.6793C309.239 80.3393 301.399 83.8493 297.299 85.6793C287.629 90.0093 280.449 93.3393 273.429 96.7093C269.579 98.5593 269.969 99.4393 273.919 97.8093C281.099 94.8293 288.379 91.7093 298.059 87.3893C301.819 85.7093 309.759 82.4593 320.839 77.5593C322.639 76.7593 324.439 75.9393 326.209 75.0993C341.479 67.8793 361.539 59.0293 361.539 59.0293C361.539 59.0293 391.409 45.6893 404.019 40.0593C413.509 35.8193 418.079 33.7693 420.889 32.5193C429.389 28.7193 435.969 25.6793 442.189 22.7193L442.199 22.7093Z" fill="#FA8700"/>
<path d="M97.1987 518.1C98.2087 512.44 98.7387 506.42 98.7387 500.05C98.7387 493.68 98.1987 487.49 97.1687 481.76C91.0387 447.65 67.3387 426.62 34.1087 421.21C28.4387 420.29 22.4887 419.81 16.3087 419.81C10.1287 419.81 3.66868 420.32 -2.23132 421.31C-35.4813 426.86 -59.1413 447.83 -65.2813 481.76C-66.3213 487.49 -66.8613 493.59 -66.8613 500.05C-66.8613 506.51 -66.3313 512.44 -65.3113 518.1C-59.2213 551.98 -35.5413 572.99 -2.23132 578.55C3.65868 579.53 9.84867 580.05 16.3087 580.05C22.7687 580.05 28.4387 579.58 34.1087 578.65C67.3987 573.24 91.1187 552.17 97.1987 518.1Z" fill="#FA8700"/>
<path d="M285.128 387.68C266.508 384.79 266.328 385.9 284.918 389.01C311.268 393.43 338.968 397.99 374.588 403.74C414.968 410.2 425.058 411.59 452.408 416.03C475.658 419.83 506.938 424.94 534.618 429.46C561.188 420.51 584.358 412.7 593.378 409.66C596.038 408.75 598.708 407.85 601.378 406.94C614.708 402.38 659.588 387.02 723.468 365.16C732.068 365.64 755.938 366.95 778.708 368.21L882.318 373.9L883.458 373.23C918.788 352.3 945.138 336.57 970.948 321.05C985.128 312.52 984.638 311.68 970.338 320.01C944.308 335.17 917.848 350.71 882.508 371.62C882.368 371.7 882.218 371.79 881.858 372C866.058 371.08 833.238 369.16 787.148 366.48C779.518 366.08 771.879 365.68 764.309 365.28C751.149 364.61 737.198 363.9 723.198 363.19C670.968 381.05 619.488 398.65 619.488 398.65L534.468 427.63L445.578 413.29C405.798 406.88 386.658 403.79 374.888 401.89C339.268 396.15 311.538 391.77 285.138 387.68H285.128Z" fill="#FA8700"/>
<path d="M494.341 340.509L436.487 459.444L555.413 517.294L613.267 398.359L494.341 340.509Z" fill="#FA8700"/>
<path d="M777.119 371.549C777.849 367.469 778.229 363.119 778.229 358.529C778.229 353.939 777.839 349.469 777.099 345.339C772.679 320.729 755.579 305.559 731.609 301.659C727.519 300.989 723.229 300.649 718.769 300.649C714.309 300.649 709.649 301.019 705.399 301.729C681.409 305.729 664.339 320.869 659.909 345.339C659.159 349.479 658.769 353.879 658.769 358.529C658.769 363.179 659.149 367.469 659.889 371.549C664.289 395.989 681.369 411.149 705.399 415.159C709.649 415.869 714.119 416.239 718.769 416.239C723.419 416.239 727.519 415.899 731.609 415.229C755.619 411.329 772.739 396.129 777.119 371.549Z" fill="#FFC716"/>
<path d="M292.149 99.4894C292.369 98.2794 292.479 96.9894 292.479 95.6194C292.479 94.2494 292.369 92.9294 292.139 91.6994C290.829 84.3894 285.749 79.8794 278.629 78.7194C277.409 78.5194 276.139 78.4194 274.819 78.4194C273.499 78.4194 272.109 78.5294 270.849 78.7394C263.719 79.9294 258.649 84.4194 257.339 91.6894C257.119 92.9194 256.999 94.2294 256.999 95.6094C256.999 96.9894 257.109 98.2594 257.329 99.4794C258.639 106.739 263.709 111.239 270.849 112.429C272.109 112.639 273.439 112.749 274.819 112.749C276.199 112.749 277.419 112.649 278.629 112.449C285.759 111.289 290.849 106.779 292.149 99.4694V99.4894Z" fill="#FCA700"/>
<path d="M897.589 377.509C897.809 376.299 897.919 375.009 897.919 373.639C897.919 372.269 897.808 370.949 897.578 369.719C896.268 362.409 891.188 357.899 884.068 356.739C882.848 356.539 881.578 356.439 880.258 356.439C878.938 356.439 877.549 356.549 876.289 356.759C869.159 357.949 864.089 362.439 862.779 369.709C862.559 370.939 862.438 372.249 862.438 373.629C862.438 375.009 862.548 376.279 862.768 377.499C864.078 384.759 869.149 389.259 876.289 390.449C877.549 390.659 878.878 390.769 880.258 390.769C881.638 390.769 882.858 390.669 884.068 390.469C891.198 389.309 896.289 384.799 897.589 377.489V377.509Z" fill="#FA8700"/>
<path d="M417.669 543.079C418.119 540.569 418.349 537.909 418.349 535.089C418.349 532.269 418.109 529.529 417.659 526.989C414.949 511.889 404.459 502.579 389.739 500.189C387.229 499.779 384.599 499.569 381.859 499.569C379.119 499.569 376.259 499.799 373.649 500.229C358.929 502.689 348.459 511.969 345.739 526.989C345.279 529.529 345.039 532.229 345.039 535.089C345.039 537.949 345.269 540.569 345.729 543.079C348.429 558.079 358.909 567.379 373.649 569.839C376.259 570.279 378.999 570.499 381.859 570.499C384.719 570.499 387.229 570.289 389.739 569.879C404.479 567.479 414.979 558.159 417.669 543.079Z" fill="#FCA700"/>
<path d="M26.9467 209.531L-42.8208 215.353L-35.3908 304.393L34.3767 298.571L26.9467 209.531Z" fill="#FA8700"/>
<path d="M769.429 325.12C761.329 312.36 748.089 304.34 731.599 301.65C727.509 300.98 723.219 300.64 718.759 300.64C714.299 300.64 709.639 301.01 705.389 301.72C685.359 305.06 670.159 316.17 663.109 333.99L769.439 325.11L769.429 325.12Z" fill="#FCA700"/>
<path d="M1035.01 -10.7103C1040.01 -13.8203 1039.44 -14.7803 1034.32 -11.8703C1027.05 -7.74034 1019.46 -3.33034 1009.76 2.43966C998.789 9.01966 996.179 10.8497 988.719 15.2597C976.139 22.7497 954.749 35.1097 949.589 38.0897C948.829 38.5297 948.069 38.9797 947.309 39.4297C941.909 42.6897 918.229 56.9797 897.719 69.0897C883.269 77.6897 874.319 83.0197 869.649 85.7997C858.619 92.3697 850.429 97.3797 842.439 102.38C838.049 105.13 838.549 105.96 843.059 103.41C851.259 98.7797 859.569 93.9697 870.609 87.4097C874.899 84.8597 883.969 79.7697 896.609 72.3097C898.669 71.0897 900.709 69.8597 902.729 68.6097C920.129 57.8297 943.019 44.3297 943.019 44.3297C943.019 44.3297 977.099 24.0597 991.479 15.5097C1002.31 9.05966 1007.52 5.95966 1010.72 4.05966C1020.41 -1.72034 1027.91 -6.28034 1035.01 -10.7003V-10.7103Z" fill="#FA8700"/>
<path d="M724.958 370.119C721.908 364.439 720.918 364.949 723.758 370.739C727.788 378.949 732.098 387.529 737.738 398.519C744.178 410.939 745.978 413.929 750.288 422.379C757.608 436.629 769.688 460.809 772.588 466.639C773.018 467.499 773.458 468.359 773.898 469.219C777.088 475.339 791.068 502.179 802.908 525.389C811.318 541.759 816.528 551.889 819.248 557.179C825.678 569.669 830.578 578.959 835.478 588.029C838.168 593.009 839.028 592.569 836.548 587.479C832.028 578.219 827.328 568.819 820.918 556.319C818.428 551.459 813.468 541.219 806.168 526.919C804.978 524.589 803.768 522.269 802.548 519.979C791.988 500.229 778.798 474.319 778.798 474.319C778.798 474.319 758.978 435.729 750.608 419.449C744.308 407.189 741.268 401.289 739.408 397.659C733.758 386.679 729.288 378.179 724.968 370.119H724.958Z" fill="#FA8700"/>
<path d="M420.369 157.54C394.849 170.85 367.169 181.39 337.459 189.08C335.739 185.63 334.479 181.8 333.719 177.6C333.169 174.57 332.889 171.36 332.889 167.96C332.889 164.56 333.179 161.25 333.729 158.19C337.009 140.07 349.649 128.86 367.409 125.9C370.559 125.37 373.859 125.1 377.309 125.1C380.759 125.1 383.789 125.35 386.819 125.85C404.359 128.7 416.919 139.7 420.369 157.54Z" fill="#FCA700"/>
<path d="M420.499 158.19C420.459 157.97 420.418 157.75 420.368 157.54C394.848 170.85 367.168 181.39 337.458 189.08C343.128 200.46 353.749 207.61 367.409 209.88C370.559 210.41 373.859 210.68 377.309 210.68C380.759 210.68 383.789 210.43 386.819 209.94C404.599 207.05 417.268 195.79 420.518 177.6C421.058 174.57 421.339 171.36 421.339 167.96C421.339 164.56 421.049 161.25 420.499 158.19Z" fill="#FFC716"/>
</g>
</g>
<defs>
<clipPath id="clip0_287_83949">
<rect width="960.011" height="540.02" fill="white"/>
</clipPath>
</defs>
</svg>
