<svg width="960" height="540" viewBox="0 0 960 540" fill="none" xmlns="http://www.w3.org/2000/svg">
<g clip-path="url(#clip0_287_34434)">
<path d="M569.924 253.48L507.085 217.172C502.605 224.181 497.895 231.131 492.925 238.031C477.385 259.59 459.495 280.569 439.276 300.779C418.176 321.858 396.266 340.407 373.776 356.467C317.307 396.765 256.977 420.934 195.858 427.334C186.118 472.912 164.828 511.541 132.849 540H520.485L569.914 510.531V253.48H569.924Z" fill="#8C8F97"/>
<path d="M569.924 516.331L530.254 539.981H569.924V516.351V516.331Z" fill="#8C8F97"/>
<path d="M509.755 212.932L569.924 247.701V185.173L572.564 185.323C572.664 185.323 628.334 188.393 705.033 205.952C780.602 223.262 876.591 254.641 960 311.139V271.46C918.371 209.762 819.672 63.1977 777.202 0.229992L777.552 0H564.654C565.474 9.20966 565.894 18.4193 565.894 27.619C565.894 90.9067 546.565 153.824 509.755 212.932Z" fill="#8C8F97"/>
<path d="M136.999 190.323C166.608 219.372 186.568 258.24 195.918 304.039C199.108 319.638 201.078 336.037 201.768 353.147C201.948 357.637 202.038 362.076 202.038 366.476C202.038 374.666 201.728 382.706 201.118 390.595C200.748 395.325 200.278 399.995 199.698 404.605C198.948 410.565 198.008 416.424 196.898 422.184C256.527 415.634 315.467 391.915 370.866 352.387C393.126 336.497 414.826 318.128 435.736 297.239C455.775 277.21 473.495 256.44 488.865 235.111C493.735 228.351 498.355 221.542 502.745 214.672L197.578 38.3082C196.758 38.9082 195.928 39.5082 195.108 40.0982C133.349 84.1666 66.9793 108.946 0 112.286V133.585C7.03993 133.995 13.9199 134.655 20.6198 135.585C68.1893 142.104 107.399 161.274 136.999 190.323Z" fill="#8C8F97"/>
<path d="M788.852 379.996L574.924 256.37V507.531L788.852 379.996Z" fill="#8C8F97"/>
<path d="M190.638 427.825C181.458 428.635 172.258 429.045 163.048 429.045C108.099 429.045 52.9995 414.515 0 384.436V539.98H125.189C158.348 512.281 180.468 473.873 190.628 427.825H190.638Z" fill="#8C8F97"/>
<path d="M191.708 422.694C192.928 416.574 193.948 410.345 194.748 403.975C196.268 391.885 197.048 379.376 197.048 366.466C197.048 362.136 196.958 357.756 196.778 353.337C196.098 336.487 194.158 320.348 191.028 305.028C181.838 260.05 162.308 222.151 133.499 193.882C104.689 165.623 66.5793 146.934 19.9398 140.534C13.4599 139.644 6.80993 138.994 0 138.594V378.676C53.0695 409.315 108.129 424.034 163.048 424.044C172.608 424.044 182.168 423.584 191.708 422.694Z" fill="#8C8F97"/>
<path d="M574.924 190.484V250.571L798.732 379.927L574.924 513.362V539.971H959.99V317.159C879.331 261.771 786.002 230.232 711.122 212.493C641.063 195.893 587.174 191.343 574.924 190.474V190.484Z" fill="#8C8F97"/>
<path d="M959.99 0H783.082C825.052 62.2177 916.891 198.613 959.99 262.51V0Z" fill="#8C8F97"/>
<path d="M197.438 32.2288C210.828 22.3992 224.008 11.6496 236.928 0H141.288L197.278 32.3488C197.338 32.3088 197.388 32.2688 197.448 32.2288H197.438Z" fill="#8C8F97"/>
<path d="M192.208 36.0187C192.418 35.8687 192.628 35.7087 192.838 35.5587L132.969 0.969965L133.529 0H0V107.286C65.8193 103.946 131.169 79.5771 192.208 36.0187Z" fill="#8C8F97"/>
<path d="M505.425 210.432C541.865 151.964 560.895 89.9367 560.895 27.619C560.895 18.4193 560.475 9.20966 559.635 0H244.358C230.528 12.7395 216.388 24.4191 201.988 35.0787L505.425 210.432Z" fill="#8C8F97"/>
<path d="M197.717 32.6088L201.988 35.0787C216.378 24.4191 230.527 12.7395 244.357 0H236.927C224.007 11.6596 210.828 22.3992 197.438 32.2288L197.717 32.6088Z" fill="#7D818A"/>
<path d="M505.425 210.432L509.755 212.932C546.565 153.824 565.895 90.9067 565.895 27.619C565.895 18.4193 565.475 9.20966 564.655 0H559.635C560.475 9.20966 560.895 18.4193 560.895 27.619C560.895 89.9367 541.865 151.964 505.425 210.432Z" fill="#7D818A"/>
<path d="M572.554 185.323L569.914 185.173V247.681L574.914 250.571V190.483C587.174 191.353 641.063 195.903 711.113 212.502C785.992 230.241 879.321 261.77 959.98 317.168V311.128C876.581 254.63 780.582 223.252 705.013 205.942C628.314 188.383 572.644 185.313 572.544 185.313L572.554 185.323Z" fill="#7D818A"/>
<path d="M569.924 516.351V539.981H574.924V513.371L569.924 516.351Z" fill="#7D818A"/>
<path d="M133.498 193.893C162.308 222.162 181.838 260.06 191.028 305.039C194.158 320.358 196.098 336.498 196.778 353.347C196.958 357.767 197.048 362.147 197.048 366.476C197.048 379.386 196.268 391.896 194.748 403.985C193.948 410.355 192.928 416.585 191.708 422.704C193.438 422.544 195.178 422.374 196.908 422.184C198.018 416.425 198.958 410.575 199.708 404.605C200.288 399.995 200.758 395.325 201.128 390.596C201.738 382.716 202.048 374.676 202.048 366.476C202.048 362.077 201.958 357.637 201.778 353.147C201.088 336.038 199.118 319.638 195.928 304.039C186.578 258.25 166.608 219.372 137.008 190.323C107.409 161.274 68.1991 142.105 20.6296 135.585C13.9196 134.665 7.03969 134.005 0.00976562 133.585V138.595C6.8197 139.005 13.4696 139.645 19.9496 140.535C66.5791 146.944 104.699 165.624 133.508 193.883L133.498 193.893Z" fill="#7D818A"/>
<path d="M197.578 38.3089L192.838 35.569C192.628 35.719 192.418 35.879 192.208 36.029C131.169 79.5774 65.8193 103.946 0 107.286V112.286C66.9793 108.946 133.349 84.1672 195.108 40.0888C195.938 39.4988 196.758 38.8988 197.578 38.2989V38.3089Z" fill="#6C6F77"/>
<path d="M197.268 32.3492L197.708 32.6092L197.428 32.2292C197.368 32.2692 197.318 32.3092 197.258 32.3492H197.268Z" fill="#6C6F77"/>
<path d="M959.991 271.45V262.51C916.892 198.613 825.043 62.2177 783.083 0H777.553L777.203 0.229992C819.673 63.1877 918.372 209.762 959.991 271.45Z" fill="#6C6F77"/>
<path d="M190.638 427.825C190.848 426.885 191.058 425.945 191.258 424.995L196.148 426.015C196.058 426.455 195.958 426.885 195.868 427.315C256.987 420.915 317.317 396.756 373.786 356.447C396.286 340.398 418.196 321.848 439.285 300.759C459.505 280.55 477.405 259.571 492.935 238.011C497.905 231.122 502.615 224.162 507.095 217.152L502.765 214.652C498.375 221.512 493.755 228.332 488.885 235.092C473.515 256.421 455.795 277.19 435.755 297.219C414.846 318.119 393.146 336.488 370.886 352.367C315.487 391.896 256.547 415.615 196.918 422.165C195.188 422.355 193.448 422.525 191.718 422.685C182.178 423.575 172.618 424.035 163.058 424.035C108.139 424.035 53.0792 409.315 0.00976562 378.666V384.426C52.9992 414.505 108.109 429.034 163.058 429.034C172.258 429.034 181.458 428.625 190.648 427.815L190.638 427.825Z" fill="#6C6F77"/>
<path d="M195.858 427.314C195.948 426.884 196.048 426.454 196.138 426.014L191.248 424.994C191.048 425.944 190.838 426.884 190.628 427.824C180.458 473.872 158.338 512.281 125.188 539.98H132.858C164.838 511.531 186.118 472.892 195.868 427.314H195.858Z" fill="#6C6F77"/>
<path d="M574.924 513.371L798.731 379.936L569.924 516.331V516.351L574.924 513.371Z" fill="#6C6F77"/>
<path d="M569.924 247.691V247.701L798.731 379.936L574.924 250.571L569.924 247.691Z" fill="#6C6F77"/>
<path d="M574.924 507.532V256.371L569.924 253.481V510.512L574.924 507.532Z" fill="#6C6F77"/>
<path d="M192.839 35.5687L197.579 38.3086L502.756 214.662L507.086 217.172L569.925 253.481L574.925 256.371L788.853 379.996L574.925 507.531L569.925 510.511L520.486 539.98H530.256L569.925 516.331L798.733 379.936L569.925 247.701L509.756 212.932L505.426 210.432L201.989 35.0787L197.719 32.6088L197.269 32.3488L141.29 0H133.53L132.97 0.969965L192.839 35.5687Z" fill="#B7B9BE"/>
</g>
<defs>
<clipPath id="clip0_287_34434">
<rect width="960" height="540" fill="white"/>
</clipPath>
</defs>
</svg>
