<svg width="960" height="540" viewBox="0 0 960 540" fill="none" xmlns="http://www.w3.org/2000/svg">
<g clip-path="url(#clip0_287_34462)">
<path d="M123.566 539.71C123.446 539.81 123.326 539.9 123.196 540C123.316 539.9 123.436 539.81 123.566 539.71Z" fill="#82B536"/>
<path d="M193.516 33.33C193.726 33.18 193.936 33.02 194.146 32.87L137.267 0H0.00976562V104.65C66.2684 101.57 132.077 77.18 193.516 33.33Z" fill="#BF63F3"/>
<path d="M576.229 187.8V247.89L796.964 375.47L800.034 377.25L799.694 377.45L576.229 510.69V539.7H959.991V313.6C879.632 258.76 786.914 227.46 712.436 209.82C642.377 193.22 588.488 188.67 576.239 187.8H576.229Z" fill="#BF63F3"/>
<path d="M571.228 513.66L527.538 539.71H571.228V513.68V513.66Z" fill="#BF63F3"/>
<path d="M790.164 377.32L576.229 253.69V504.86L790.164 377.32Z" fill="#BF63F3"/>
<path d="M959.99 0H786.204C828.513 62.74 916.991 194.13 959.99 257.89V0Z" fill="#BF63F3"/>
<path d="M506.73 207.75C543.17 149.28 562.199 87.25 562.199 24.93C562.199 16.62 561.839 8.31 561.159 0H242.716C229.826 11.69 216.676 22.49 203.307 32.39L506.74 207.75H506.73Z" fill="#BF63F3"/>
<path d="M198.756 29.54C211.105 20.47 223.275 10.62 235.235 0H147.267L198.596 29.66C198.656 29.62 198.706 29.58 198.766 29.54H198.756Z" fill="#BF63F3"/>
<path d="M511.069 210.25L571.238 245.02V182.49L573.878 182.64C573.978 182.64 629.647 185.71 706.345 203.27C781.524 220.49 876.902 251.63 960 307.57V266.83C918.191 204.87 823.043 63.56 780.174 0H566.188C566.858 8.31 567.208 16.62 567.208 24.93C567.208 88.22 547.879 151.14 511.069 210.25Z" fill="#BF63F3"/>
<path d="M193.026 420.02C194.246 413.9 195.266 407.67 196.066 401.3C197.586 389.21 198.366 376.7 198.366 363.79C198.366 359.46 198.276 355.08 198.096 350.66C197.416 333.81 195.476 317.67 192.346 302.35C183.156 257.37 163.626 219.47 134.817 191.2C106.008 162.94 67.8983 144.25 21.2593 137.85C14.3595 136.9 7.26961 136.24 0.00976562 135.84V375.24C53.4786 406.4 108.997 421.37 164.366 421.37C173.926 421.37 183.486 420.91 193.026 420.02Z" fill="#BF63F3"/>
<path d="M138.317 187.64C167.926 216.69 187.886 255.56 197.236 301.36C200.426 316.96 202.396 333.36 203.086 350.47C203.266 354.96 203.356 359.4 203.356 363.8C203.356 368.71 203.246 373.58 203.026 378.38C202.876 381.58 202.686 384.76 202.436 387.91C202.316 389.49 202.176 391.06 202.036 392.62C201.746 395.75 201.406 398.85 201.016 401.92C200.266 407.88 199.326 413.74 198.216 419.5C257.844 412.95 316.783 389.23 372.182 349.7C394.442 333.81 416.141 315.44 437.051 294.55C457.09 274.52 474.81 253.75 490.18 232.42C495.049 225.66 499.669 218.85 504.059 211.98L198.896 35.6201C198.076 36.2201 197.246 36.8201 196.426 37.4101C134.257 81.7701 67.4284 106.57 0.00976562 109.66V130.84C7.49961 131.25 14.8195 131.92 21.9393 132.9C69.5083 139.42 108.717 158.59 138.317 187.64Z" fill="#BF63F3"/>
<path d="M571.228 250.8L508.389 214.49C503.909 221.5 499.199 228.45 494.229 235.35C478.69 256.91 460.8 277.89 440.581 298.1C419.481 319.18 397.571 337.73 375.082 353.79C318.613 394.09 258.284 418.26 197.166 424.66C187.146 471.53 164.926 511.06 131.417 539.73H517.759L571.218 507.86V250.8H571.228Z" fill="#BF63F3"/>
<path d="M191.946 425.15C182.766 425.96 173.566 426.37 164.357 426.37C108.958 426.37 53.3989 411.61 0 381.03V539.71H123.567C158.357 511.85 181.476 472.55 191.946 425.15Z" fill="#BF63F3"/>
<path d="M199.036 29.92L203.306 32.39C216.676 22.49 229.826 11.69 242.716 0H235.236C223.286 10.62 211.116 20.47 198.756 29.54L199.036 29.92Z" fill="#C97CF4"/>
<path d="M506.729 207.75L511.059 210.25C547.869 151.14 567.198 88.22 567.198 24.93C567.198 16.62 566.848 8.31 566.178 0H561.158C561.838 8.31 562.198 16.62 562.198 24.93C562.198 87.25 543.169 149.28 506.729 207.75Z" fill="#C97CF4"/>
<path d="M573.868 182.64L571.229 182.49V245L576.228 247.89V187.8C588.488 188.67 642.377 193.22 712.426 209.82C786.904 227.47 879.622 258.76 959.98 313.6V307.56C876.882 251.62 781.504 220.48 706.326 203.26C629.627 185.7 573.958 182.63 573.858 182.63L573.868 182.64Z" fill="#C97CF4"/>
<path d="M571.229 513.68V539.71V540H576.229V539.71V510.7L571.229 513.68Z" fill="#C97CF4"/>
<path d="M134.817 191.21C163.626 219.48 183.156 257.38 192.346 302.36C195.475 317.68 197.415 333.82 198.095 350.67C198.275 355.09 198.365 359.47 198.365 363.8C198.365 376.7 197.585 389.22 196.065 401.31C195.265 407.68 194.245 413.91 193.026 420.03C194.755 419.87 196.495 419.7 198.225 419.51C199.335 413.75 200.275 407.9 201.025 401.93C201.415 398.85 201.755 395.75 202.045 392.63C202.195 391.07 202.325 389.5 202.445 387.92C202.685 384.77 202.885 381.59 203.035 378.39C203.255 373.59 203.365 368.72 203.365 363.81C203.365 359.41 203.275 354.97 203.095 350.48C202.405 333.37 200.435 316.97 197.245 301.37C187.896 255.58 167.926 216.7 138.327 187.65C108.727 158.6 69.5181 139.43 21.9491 132.91C14.8292 131.93 7.50937 131.25 0.0195312 130.85V135.86C7.27938 136.26 14.3692 136.92 21.2691 137.87C67.8981 144.28 106.017 162.96 134.827 191.22L134.817 191.21Z" fill="#C97CF4"/>
<path d="M198.756 29.54C198.696 29.58 198.646 29.62 198.586 29.66L199.026 29.92L198.746 29.54H198.756Z" fill="#AF59E0"/>
<path d="M198.896 35.6199L194.156 32.8799C193.946 33.0299 193.736 33.1899 193.526 33.3399C132.077 77.1799 66.2684 101.57 0.00976562 104.65V109.65C67.4284 106.57 134.257 81.7599 196.426 37.3999C197.256 36.8099 198.076 36.2099 198.896 35.6099V35.6199Z" fill="#AF59E0"/>
<path d="M959.989 257.89C916.99 194.13 828.512 62.74 786.203 0H780.173C823.042 63.56 918.19 204.87 959.989 266.83V257.89Z" fill="#AF59E0"/>
<path d="M191.946 425.15C192.156 424.21 192.366 423.27 192.566 422.32L197.456 423.34C197.366 423.78 197.266 424.21 197.176 424.64C258.294 418.24 318.623 394.08 375.092 353.77C397.591 337.72 419.491 319.17 440.591 298.08C460.81 277.87 478.71 256.89 494.239 235.33C499.209 228.44 503.919 221.48 508.399 214.47L504.069 211.97C499.679 218.83 495.059 225.65 490.19 232.41C474.82 253.74 457.1 274.51 437.061 294.54C416.151 315.44 394.452 333.81 372.192 349.69C316.793 389.22 257.854 412.94 198.226 419.49C196.496 419.68 194.756 419.85 193.026 420.01C183.486 420.9 173.926 421.36 164.366 421.36C108.997 421.36 53.4787 406.39 0.00976562 375.23V381.02C53.3987 411.6 108.967 426.37 164.366 426.36C173.566 426.36 182.766 425.95 191.956 425.14L191.946 425.15Z" fill="#AF59E0"/>
<path d="M197.175 424.64C197.265 424.21 197.365 423.78 197.455 423.34L192.565 422.32C192.365 423.27 192.155 424.21 191.945 425.15C181.485 472.55 158.356 511.85 123.566 539.71C123.446 539.81 123.326 539.9 123.196 540H131.076C131.186 539.9 131.306 539.81 131.426 539.71C164.925 511.04 187.155 471.51 197.175 424.64Z" fill="#AF59E0"/>
<path d="M576.228 510.7L799.704 377.45L571.229 513.66V513.68L576.228 510.7Z" fill="#AF59E0"/>
<path d="M571.229 245V245.02L796.964 375.48L576.228 247.89L571.229 245Z" fill="#AF59E0"/>
<path d="M576.229 504.86V253.69L571.229 250.8V507.84L576.229 504.86Z" fill="#AF59E0"/>
<path d="M198.895 35.62L504.059 211.98L508.399 214.48L571.227 250.8L576.227 253.69L790.163 377.32L576.227 504.86L571.227 507.84L517.779 539.71L517.289 540H527.048L527.538 539.71L571.227 513.66L799.703 377.45L800.033 377.25L796.963 375.48L571.227 245.02L511.069 210.25L506.729 207.75L203.305 32.39L199.035 29.92L198.585 29.66L147.256 0H137.267L194.155 32.88L198.895 35.62Z" fill="#D8A0F7"/>
</g>
<defs>
<clipPath id="clip0_287_34462">
<rect width="960" height="540" fill="white"/>
</clipPath>
</defs>
</svg>
