<svg width="960" height="540" viewBox="0 0 960 540" fill="none" xmlns="http://www.w3.org/2000/svg">
<g clip-path="url(#clip0_287_34491)">
<path d="M790.164 377.596L576.229 253.971V505.132L790.164 377.596Z" fill="#FCA700"/>
<path d="M198.756 29.8289C211.225 20.6792 223.505 10.7296 235.565 0H146.757L198.586 29.9589C198.646 29.9189 198.696 29.8789 198.756 29.8389V29.8289Z" fill="#FCA700"/>
<path d="M511.069 210.532L571.238 245.301V182.773L573.878 182.923C573.978 182.923 629.647 185.993 706.345 203.552C781.524 220.772 876.902 251.911 960 307.848V267.11C918.121 205.052 822.753 63.4176 779.974 0H566.158C566.838 8.40968 567.208 16.8194 567.208 25.2191C567.208 88.5067 547.879 151.424 511.069 210.532Z" fill="#FCA700"/>
<path d="M506.74 208.032C543.18 149.564 562.209 87.5367 562.209 25.2191C562.209 16.8194 561.839 8.40968 561.149 0H243.036C230.046 11.8096 216.786 22.6991 203.307 32.6788L506.74 208.032Z" fill="#FCA700"/>
<path d="M138.317 187.923C167.926 216.972 187.886 255.841 197.236 301.639C200.426 317.238 202.396 333.638 203.086 350.747C203.266 355.237 203.356 359.677 203.356 364.076C203.356 377.186 202.556 389.906 201.016 402.205C200.266 408.165 199.326 414.025 198.216 419.784C257.844 413.235 316.783 389.516 372.182 349.987C394.442 334.098 416.141 315.728 437.051 294.839C457.09 274.81 474.81 254.041 490.18 232.711C495.049 225.952 499.669 219.142 504.059 212.272L198.896 35.9088C198.076 36.5088 197.246 37.1088 196.426 37.6987C134.257 82.0571 67.4284 106.856 0.00976562 109.946V131.125C7.49961 131.535 14.8195 132.205 21.9393 133.185C69.5083 139.705 108.717 158.874 138.317 187.923Z" fill="#FCA700"/>
<path d="M959.989 0H786.003C828.232 62.6177 916.92 194.313 959.989 258.18V0Z" fill="#FCA700"/>
<path d="M191.946 425.424C182.766 426.234 173.566 426.644 164.357 426.644C108.958 426.644 53.3989 411.885 0 381.306V539.98H123.567C158.357 512.121 181.476 472.823 191.946 425.424Z" fill="#FCA700"/>
<path d="M571.228 513.931L527.538 539.981H571.228V513.951V513.931Z" fill="#FCA700"/>
<path d="M193.026 420.294C194.246 414.174 195.266 407.944 196.066 401.575C197.586 389.485 198.366 376.975 198.366 364.076C198.366 359.746 198.276 355.366 198.096 350.946C197.416 334.097 195.476 317.958 192.346 302.638C183.156 257.66 163.626 219.761 134.817 191.492C106.008 163.234 67.8983 144.544 21.2593 138.144C14.3595 137.194 7.26961 136.535 0.00976562 136.135V375.526C53.4786 406.684 108.997 421.654 164.366 421.654C173.926 421.654 183.486 421.194 193.026 420.304V420.294Z" fill="#FCA700"/>
<path d="M193.516 33.6187C193.726 33.4687 193.936 33.3088 194.146 33.1588L136.767 0H0.00976562V104.936C66.2684 101.856 132.077 77.4671 193.516 33.6187Z" fill="#FCA700"/>
<path d="M576.229 188.083V248.171L796.944 375.746L800.034 377.526L799.694 377.726L576.229 510.961V539.97H959.991V313.878C879.632 259.04 786.914 227.741 712.436 210.102C642.377 193.503 588.488 188.953 576.239 188.083H576.229Z" fill="#FCA700"/>
<path d="M571.228 251.081L508.389 214.772C503.909 221.782 499.199 228.732 494.229 235.631C478.69 257.191 460.8 278.17 440.581 298.379C419.481 319.458 397.571 338.008 375.082 354.067C318.613 394.365 258.284 418.535 197.166 424.934C187.146 471.803 164.926 511.331 131.417 540H517.759L571.218 508.131V251.081H571.228Z" fill="#FCA700"/>
<path d="M199.036 30.2089L203.306 32.6788C216.786 22.6991 230.046 11.8096 243.036 0H235.566C223.506 10.7296 211.226 20.6792 198.756 29.8289L199.036 30.2089Z" fill="#FFC716"/>
<path d="M506.739 208.032L511.069 210.532C547.879 151.424 567.208 88.5067 567.208 25.2191C567.208 16.8194 566.848 8.40968 566.158 0H561.138C561.838 8.40968 562.198 16.8194 562.198 25.2191C562.198 87.5367 543.169 149.564 506.729 208.032H506.739Z" fill="#FFC716"/>
<path d="M573.868 182.923L571.229 182.773V245.281L576.228 248.171V188.083C588.488 188.953 642.377 193.503 712.426 210.102C786.904 227.752 879.622 259.041 959.98 313.879V307.839C876.882 251.901 781.504 220.762 706.326 203.543C629.627 185.983 573.958 182.913 573.858 182.913L573.868 182.923Z" fill="#FFC716"/>
<path d="M571.229 513.951V539.98H576.229V510.971L571.229 513.951Z" fill="#FFC716"/>
<path d="M134.817 191.493C163.626 219.762 183.156 257.66 192.346 302.639C195.475 317.958 197.415 334.098 198.095 350.947C198.275 355.367 198.365 359.747 198.365 364.076C198.365 376.976 197.585 389.496 196.065 401.575C195.265 407.945 194.245 414.175 193.026 420.294C194.755 420.134 196.495 419.964 198.225 419.774C199.335 414.015 200.275 408.165 201.025 402.195C202.575 389.896 203.365 377.176 203.365 364.066C203.365 359.667 203.275 355.227 203.095 350.737C202.405 333.628 200.435 317.228 197.245 301.629C187.896 255.841 167.926 216.962 138.327 187.913C108.727 158.864 69.5181 139.695 21.9491 133.175C14.8292 132.195 7.50937 131.515 0.0195312 131.115V136.125C7.27938 136.525 14.3692 137.185 21.2691 138.135C67.8981 144.545 106.017 163.224 134.827 191.483L134.817 191.493Z" fill="#FA8700"/>
<path d="M197.176 424.914C195.436 425.094 193.686 425.264 191.946 425.424C181.486 472.822 158.357 512.121 123.567 539.98H131.427C164.927 511.311 187.156 471.782 197.176 424.914Z" fill="#FA8700"/>
<path d="M198.756 29.829C198.696 29.869 198.646 29.909 198.586 29.949L199.026 30.209L198.746 29.829H198.756Z" fill="#FFC716"/>
<path d="M198.896 35.9086L194.156 33.1687C193.946 33.3187 193.736 33.4787 193.526 33.6287C132.077 77.467 66.2684 101.856 0.00976562 104.936V109.936C67.4284 106.856 134.257 82.0469 196.426 37.6885C197.256 37.0986 198.076 36.4986 198.896 35.8986V35.9086Z" fill="#FFC716"/>
<path d="M959.99 258.18C916.921 194.313 828.233 62.6177 786.004 0H779.974C822.753 63.4176 918.121 205.052 959.99 267.12V258.18Z" fill="#FA8700"/>
<path d="M191.946 425.424C193.686 425.274 195.436 425.094 197.176 424.914C258.294 418.514 318.623 394.355 375.092 354.047C397.591 337.997 419.491 319.448 440.591 298.359C460.81 278.149 478.71 257.17 494.239 235.611C499.209 228.721 503.919 221.761 508.399 214.752L504.069 212.252C499.679 219.112 495.059 225.931 490.19 232.691C474.82 254.02 457.1 274.789 437.061 294.819C416.151 315.718 394.452 334.087 372.192 349.967C316.793 389.495 257.854 413.214 198.226 419.764C196.496 419.954 194.756 420.124 193.026 420.284C183.486 421.174 173.926 421.634 164.366 421.634C108.997 421.634 53.4787 406.665 0.00976562 375.506V381.295C53.3987 411.874 108.967 426.644 164.366 426.634C173.566 426.634 182.766 426.224 191.956 425.414L191.946 425.424Z" fill="#FFC716"/>
<path d="M576.228 510.971L799.704 377.736L571.229 513.931V513.951L576.228 510.971Z" fill="#FFC716"/>
<path d="M571.229 245.291V245.301L796.954 375.746L576.228 248.181L571.229 245.291Z" fill="#FFC716"/>
<path d="M576.229 505.131V253.97L571.229 251.08V508.111L576.229 505.131Z" fill="#FFC716"/>
<path d="M198.895 35.9087L504.059 212.262L508.399 214.772L571.228 251.081L576.227 253.97L790.163 377.596L576.227 505.131L571.228 508.111L517.779 539.98H527.538L571.228 513.931L799.703 377.736L800.033 377.536L796.953 375.746L571.228 245.301L511.069 210.532L506.739 208.032L203.305 32.6788L199.035 30.2089L198.585 29.9589L146.756 0H136.767L194.155 33.1688L198.895 35.9087Z" fill="#FA8700"/>
</g>
<defs>
<clipPath id="clip0_287_34491">
<rect width="960" height="540" fill="white"/>
</clipPath>
</defs>
</svg>
