<svg width="976" height="561" viewBox="0 0 976 561" fill="none" xmlns="http://www.w3.org/2000/svg">
<g clip-path="url(#clip0_287_85629)">
<mask id="mask0_287_85629" style="mask-type:luminance" maskUnits="userSpaceOnUse" x="-4" y="-4" width="985" height="566">
<path d="M980.13 -3.9375H-4V561.937H980.13V-3.9375Z" fill="white"/>
</mask>
<g mask="url(#mask0_287_85629)">
<path d="M976.171 -3.9375H-7.95837V561.937H976.171V-3.9375Z" fill="#CFE1FD"/>
<path d="M843.517 407.36C844.565 401.512 845.1 395.298 845.1 388.728C845.1 382.157 844.544 375.765 843.486 369.844C837.157 334.634 812.698 312.921 778.389 307.346C772.532 306.393 766.401 305.9 760.009 305.9C753.617 305.9 746.962 306.424 740.874 307.441C706.544 313.173 682.128 334.823 675.788 369.834C674.719 375.754 674.164 382.052 674.164 388.717C674.164 395.382 674.709 401.502 675.756 407.349C682.044 442.318 706.492 464.01 740.874 469.753C746.962 470.769 753.344 471.293 760.009 471.293C766.674 471.293 772.532 470.801 778.389 469.857C812.751 464.272 837.23 442.528 843.517 407.36Z" fill="#E9F2FE"/>
<path d="M318.353 316.537C311.625 316.537 305.023 316.003 298.715 314.955C262.048 308.835 237.401 285.194 231.082 250.068C229.993 243.99 229.437 237.545 229.437 230.891C229.437 224.237 230.003 217.614 231.114 211.463C237.475 176.336 262.111 152.685 298.715 146.576C305.023 145.528 311.636 144.993 318.353 144.993C325.07 144.993 331.179 145.496 337.226 146.471C373.851 152.433 398.508 176.116 404.858 211.463C405.959 217.614 406.525 224.142 406.525 230.891C406.525 237.639 405.98 243.99 404.89 250.057C398.581 285.404 373.913 309.086 337.226 315.049C331.179 316.034 324.839 316.527 318.353 316.527V316.537ZM318.353 151.144C311.971 151.144 305.704 151.647 299.721 152.643C265.328 158.386 243.112 179.658 237.16 212.552C236.112 218.337 235.578 224.509 235.578 230.88C235.578 237.252 236.102 243.246 237.129 248.967C243.039 281.851 265.276 303.134 299.721 308.877C305.694 309.872 311.961 310.375 318.353 310.375C324.745 310.375 330.519 309.904 336.23 308.971C370.183 303.449 392.996 281.579 398.822 248.967C399.839 243.246 400.363 237.157 400.363 230.88C400.363 224.603 399.839 218.337 398.791 212.542C395.804 195.943 388.7 182.257 377.654 171.872C366.903 161.76 352.966 155.252 336.23 152.528C330.509 151.595 324.494 151.123 318.353 151.123V151.144Z" fill="#E9F2FE"/>
<path d="M567.743 162.595L464.982 265.355L567.743 368.116L670.503 265.355L567.743 162.595Z" fill="#E9F2FE"/>
<path d="M31.7167 443.251L-75.3909 336.144L31.7167 229.036L138.824 336.144L31.7167 443.251ZM-66.7036 336.133L31.7062 434.543L130.116 336.133L31.7062 237.723L-66.7036 336.133Z" fill="#E9F2FE"/>
<path d="M262.939 367.644L343.157 506.597H182.721L262.939 367.644Z" fill="#E9F2FE"/>
<path d="M938.531 117.852H767.438L852.99 -30.3232L938.542 117.852H938.531ZM778.095 111.701H927.884L852.99 -18.0207L778.095 111.701Z" fill="#E9F2FE"/>
<path d="M938.531 683.727H767.438L852.99 535.552L938.542 683.727H938.531ZM778.095 677.576H927.884L852.99 547.854L778.095 677.576Z" fill="#E9F2FE"/>
<path d="M617.754 60.6459H456.878L456.396 58.1623C456.323 57.7641 448.6 17.9328 448.6 -23.8581C448.6 -65.649 456.333 -99.5701 456.417 -99.9054L456.972 -102.284H623.224L620.385 -97.6105C616.298 -90.7257 608.543 -65.2718 608.543 -18.2937C608.543 28.6844 616.151 50.4392 620.165 55.6578L623.979 60.604L617.754 60.6354V60.6459ZM461.971 54.4946H612.567C608.753 46.017 602.392 25.3625 602.392 -18.2937C602.392 -61.9499 609.277 -87.0894 612.923 -96.1329H461.898C460.19 -87.8125 454.751 -58.6594 454.751 -23.8581C454.751 10.9432 460.315 45.2205 461.971 54.4946Z" fill="#E9F2FE"/>
<path d="M617.754 626.521H456.878L456.396 624.037C456.323 623.639 448.6 583.808 448.6 542.017C448.6 500.226 456.333 466.305 456.417 465.97L456.972 463.591H623.224L620.385 468.265C616.298 475.149 608.543 500.603 608.543 547.581C608.543 594.559 616.151 616.314 620.165 621.533L623.979 626.479L617.754 626.51V626.521ZM461.971 620.37H612.567C608.753 611.892 602.392 591.238 602.392 547.581C602.392 503.925 609.277 478.786 612.923 469.742H461.898C460.19 478.063 454.751 507.216 454.751 542.017C454.751 576.818 460.315 611.096 461.971 620.37Z" fill="#E9F2FE"/>
<path d="M186.913 191.741H28.5729C28.5729 191.741 20.8392 152.297 20.8392 110.318C20.8392 68.3381 28.5729 34.9619 28.5729 34.9619H186.913C186.913 34.9619 174.631 55.1867 174.631 115.882C174.631 176.577 186.913 191.741 186.913 191.741Z" fill="#E9F2FE"/>
<path d="M1015.85 443.251L908.739 336.144L1015.85 229.036L1122.95 336.144L1015.85 443.251ZM917.426 336.133L1015.84 434.543L1114.25 336.133L1015.84 237.723L917.426 336.133Z" fill="#E9F2FE"/>
<path d="M830.218 180.958H783.009C766.943 180.958 753.919 193.98 753.919 210.043C753.919 226.106 766.943 239.128 783.009 239.128H830.218C846.284 239.128 859.308 226.106 859.308 210.043C859.308 193.98 846.284 180.958 830.218 180.958Z" fill="#E9F2FE"/>
<path d="M478.695 342.201H354.318C338.252 342.201 325.228 355.223 325.228 371.286C325.228 387.349 338.252 400.371 354.318 400.371H478.695C494.761 400.371 507.785 387.349 507.785 371.286C507.785 355.223 494.761 342.201 478.695 342.201Z" fill="#E9F2FE"/>
<path d="M377.655 19.8506H284.107C268.041 19.8506 255.017 32.8724 255.017 48.9355C255.017 64.9987 268.041 78.0204 284.107 78.0204H377.655C393.721 78.0204 406.745 64.9987 406.745 48.9355C406.745 32.8724 393.721 19.8506 377.655 19.8506Z" fill="#E9F2FE"/>
<path d="M720.806 378.174L707.843 394.103L738.704 427.929L811.43 368.408L795.952 352.479L742.487 401.501L720.806 378.174Z" fill="#CFE1FD"/>
<path d="M58.0306 108.295L45.0679 124.223L75.929 158.05L148.665 98.5279L133.187 82.5996L79.7225 131.621L58.0306 108.295Z" fill="#CFE1FD"/>
<path d="M559.584 254.511L558.337 253.977C558.337 253.977 557.131 252.08 555.884 252.101L553.799 249.533C553.799 249.533 552.646 248.737 551.955 248.852C551.525 248.915 551.116 249.093 550.823 249.334C550.226 249.827 550.1 250.613 551.232 251.346C551.211 251.388 551.221 251.462 551.169 251.514C552.563 252.101 552.824 253.746 553.925 254.668C554.072 254.49 554.229 254.406 554.176 254.521L553.967 254.71C555.036 254.983 554.816 256.041 556.115 255.968L555.78 256.156C556.901 257.141 558.106 258.409 559.363 259.677C559.992 260.306 560.631 260.945 561.271 261.542L561.753 261.983L561.994 262.192C562.057 262.245 562.193 262.37 562.182 262.349C562.256 262.37 562.361 262.412 562.444 262.486H562.486L562.528 262.465C562.664 262.391 562.78 262.192 562.759 261.983C562.801 261.825 562.507 261.385 562.528 261.417C562.748 261.385 562.937 261.396 563.094 261.417C563.23 261.417 563.346 261.459 563.45 261.522C563.66 261.647 563.744 261.878 563.733 262.108C563.702 262.601 563.283 262.915 563.178 263.177L562.832 263.031C562.937 262.842 562.759 262.643 562.591 262.611C562.465 262.737 562.329 262.821 562.203 262.852L562.12 262.873C562.046 262.926 561.889 263.072 561.784 263.167C561.543 263.387 561.302 263.607 561.061 263.837C560.118 264.77 559.28 265.787 558.881 266.583C559.112 266.751 559.049 265.944 559.772 266.489C559.468 266.803 559.259 267.201 558.965 267.484C558.546 267.065 558.86 267.044 558.819 266.939C557.865 266.992 547.239 276.758 551.431 276.077L551.588 276.35C552.311 275.815 552.908 275.365 553.967 275.123C554.03 274.998 554.082 275.029 553.862 274.809C553.862 274.746 553.831 274.652 553.736 274.568C553.212 274.065 553.621 274.055 553.694 273.95C555.214 275.679 555.884 272.074 556.23 271.844C557.058 272.567 556.817 271.309 557.31 271.466C557.331 271.508 557.425 271.76 557.446 271.791C558.096 272.126 559.238 268.218 559.479 269.894C560.631 269.549 561.711 268.826 562.748 267.914C563.272 267.453 563.786 266.95 564.289 266.415C564.561 266.122 564.844 265.828 565.117 265.525C565.578 265.053 565.934 264.487 566.112 263.869C566.5 262.643 566.206 261.26 565.4 260.295C565.211 260.065 564.938 259.813 564.771 259.646L564.373 259.258C564.111 258.996 563.859 258.745 563.618 258.483C562.643 257.435 561.837 256.355 561.386 255.192L561.323 255.307C561.323 255.255 561.197 255.224 561.292 255.087C560.663 255.087 559.584 254.48 559.584 254.48V254.511ZM564.593 263.869C564.593 263.869 564.645 263.9 564.655 263.9C564.572 263.869 564.226 264.445 564.163 264.435L563.88 264.204C563.807 263.806 564.446 263.67 564.917 263.439C565.158 263.345 565.358 263.282 565.41 263.355C565.462 263.418 565.379 263.67 564.938 263.942C564.991 264.026 564.718 263.911 564.593 263.869ZM560.862 267.715C560.768 267.767 560.663 267.82 560.558 267.882C560.694 266.111 562.989 265.818 563.66 264.393C564.446 265.902 562.989 266.143 562.476 266.541C562.287 267.264 561.428 267.484 560.862 267.715ZM554.533 273.709L554.669 273.845L554.637 273.876C554.637 273.876 554.564 273.793 554.554 273.772C554.533 273.74 554.522 273.709 554.543 273.709H554.533ZM559.489 255.622C559.772 255.486 559.919 255.863 559.332 256.104C559.353 255.989 559.028 256.051 559.489 255.622ZM559.479 268.49C559.898 268.909 559.636 269.349 559.049 268.763C559.164 268.637 559.322 268.553 559.479 268.49ZM556.429 253.463C555.884 253.819 556.419 253.348 556.67 253.033C556.628 253.117 556.691 253.233 556.471 253.421L556.44 253.463H556.429ZM554.512 252.101C554.271 252.3 554.03 252.342 553.977 252.31C554.03 252.027 554.658 251.849 554.512 252.101ZM551.766 249.439C551.515 249.68 551.368 249.701 551.598 249.439C551.787 249.261 552.018 249.198 551.735 249.491C551.745 249.481 551.766 249.45 551.766 249.439ZM556.943 269.203C556.293 268.364 557.226 268.647 557.194 268.27C557.896 269.046 557.037 268.815 557.037 269.067C556.985 269.108 556.964 269.15 556.943 269.192V269.203ZM560.778 259.646C560.128 260.306 560.286 259.426 560.024 259.447L560.286 259.195C560.537 259.3 560.81 259.248 560.778 259.635V259.646ZM559.992 265.703C559.804 265.378 560.16 265.504 560.223 265.43C560.59 265.797 560.359 266.153 559.992 265.692V265.703ZM562.748 263.114C563.272 263.387 562.947 263.334 562.979 263.387C562.895 263.303 562.612 263.083 562.623 263.083C562.633 263.083 562.696 263.104 562.748 263.114ZM561.166 259.52C561.313 259.646 561.459 259.803 561.585 259.96L561.323 260.212C561.176 260.065 561.04 259.918 560.904 259.772L561.166 259.52ZM562.172 261.322L561.91 261.584C561.459 261.626 562.099 260.945 562.161 261.322H562.172ZM559.049 258.021C559.049 258.021 559.07 258.105 559.091 258.126C559.416 258.388 558.064 258.923 559.049 258.021ZM557.278 256.764C557.215 256.764 557.1 256.806 557.079 256.764C556.901 256.533 557.76 256.135 557.278 256.764Z" fill="#E9F2FE"/>
<path d="M267.969 452.043C267.592 452.284 267.592 454.621 267.969 454.872C268.504 455.218 269.059 455.407 269.782 455.417C270.6 455.313 270.799 454.82 271.354 454.872C272.287 454.872 273.859 455.522 274.246 455.679C274.299 455.7 274.362 455.711 274.414 455.7C274.812 455.617 276.583 455.26 278.092 455.428C279.161 455.428 279.832 455.417 280.178 455.417C280.995 455.396 281.603 455.166 282.211 454.715C282.535 454.474 282.535 452.441 282.211 452.19C281.613 451.75 280.995 451.509 280.178 451.488C279.863 451.488 279.193 450.922 278.26 450.828C278.103 450.807 277.956 450.848 277.799 450.943C276.5 451.708 274.802 451.488 274.802 451.488C274.802 451.488 272.276 451.488 271.208 451.477C270.401 451.477 270.013 451.477 269.782 451.488C269.059 451.509 268.504 451.687 267.969 452.033V452.043Z" fill="#E9F2FE"/>
<path d="M297.489 452.043C297.111 452.284 297.111 454.621 297.489 454.872C298.023 455.218 298.578 455.407 299.302 455.417C300.119 455.313 300.318 454.82 300.873 454.872C301.806 454.872 303.378 455.522 303.766 455.679C303.818 455.7 303.881 455.711 303.933 455.7C304.332 455.617 306.103 455.26 307.612 455.428C308.68 455.428 309.351 455.417 309.697 455.417C310.514 455.396 311.122 455.166 311.73 454.715C312.055 454.474 312.055 452.441 311.73 452.19C311.132 451.75 310.514 451.509 309.697 451.488C309.382 451.488 308.712 450.922 307.779 450.828C307.622 450.807 307.475 450.848 307.329 450.943C306.029 451.708 304.332 451.488 304.332 451.488C304.332 451.488 301.806 451.488 300.737 451.477C299.93 451.477 299.543 451.477 299.312 451.488C298.589 451.509 298.034 451.687 297.499 452.033L297.489 452.043Z" fill="#E9F2FE"/>
<path d="M327.019 452.043C326.641 452.284 326.641 454.621 327.019 454.872C327.553 455.218 328.108 455.407 328.831 455.417C329.649 455.313 329.848 454.82 330.403 454.872C331.336 454.872 332.908 455.522 333.296 455.679C333.348 455.7 333.411 455.711 333.463 455.7C333.861 455.617 335.632 455.26 337.141 455.428C338.21 455.428 338.881 455.417 339.227 455.417C340.044 455.396 340.652 455.166 341.26 454.715C341.585 454.474 341.585 452.441 341.26 452.19C340.662 451.75 340.044 451.509 339.227 451.488C338.912 451.488 338.242 450.922 337.309 450.828C337.152 450.807 337.005 450.848 336.848 450.943C335.549 451.708 333.851 451.488 333.851 451.488C333.851 451.488 331.325 451.488 330.257 451.477C329.45 451.477 329.062 451.477 328.831 451.488C328.108 451.509 327.553 451.687 327.019 452.033V452.043Z" fill="#E9F2FE"/>
<path d="M356.54 452.043C356.162 452.284 356.162 454.621 356.54 454.872C357.074 455.218 357.629 455.407 358.352 455.417C359.17 455.313 359.369 454.82 359.924 454.872C360.857 454.872 362.429 455.522 362.817 455.679C362.869 455.7 362.932 455.711 362.984 455.7C363.382 455.617 365.153 455.26 366.662 455.428C367.731 455.428 368.402 455.417 368.748 455.417C369.565 455.396 370.173 455.166 370.781 454.715C371.106 454.474 371.106 452.441 370.781 452.19C370.183 451.75 369.565 451.509 368.748 451.488C368.433 451.488 367.763 450.922 366.83 450.828C366.673 450.807 366.526 450.848 366.369 450.943C365.07 451.708 363.372 451.488 363.372 451.488C363.372 451.488 360.846 451.488 359.778 451.477C358.971 451.477 358.583 451.477 358.352 451.488C357.629 451.509 357.074 451.687 356.54 452.033V452.043Z" fill="#E9F2FE"/>
<path d="M386.06 452.043C385.683 452.284 385.683 454.621 386.06 454.872C386.594 455.218 387.15 455.407 387.873 455.417C388.69 455.313 388.889 454.82 389.445 454.872C390.377 454.872 391.949 455.522 392.337 455.679C392.389 455.7 392.452 455.711 392.504 455.7C392.903 455.617 394.674 455.26 396.183 455.428C397.252 455.428 397.922 455.417 398.268 455.417C399.085 455.396 399.693 455.166 400.301 454.715C400.626 454.474 400.626 452.441 400.301 452.19C399.704 451.75 399.085 451.509 398.268 451.488C397.954 451.488 397.283 450.922 396.35 450.828C396.193 450.807 396.046 450.848 395.9 450.943C394.6 451.708 392.903 451.488 392.903 451.488C392.903 451.488 390.377 451.488 389.308 451.477C388.501 451.477 388.114 451.477 387.883 451.488C387.16 451.509 386.605 451.687 386.07 452.033L386.06 452.043Z" fill="#E9F2FE"/>
<path d="M414.186 449.537C414.081 449.936 415.464 451.822 415.957 451.738C416.648 451.644 417.256 451.319 417.853 450.732C418.419 449.946 418.168 449.454 418.587 448.993C419.216 448.186 420.609 446.865 420.924 446.478C420.976 446.425 420.997 446.362 421.018 446.299C421.144 445.817 421.49 443.763 421.772 442.013C421.835 441.406 421.825 440.85 421.835 440.504C421.835 440.159 421.835 439.907 421.835 439.739C421.814 438.922 421.584 438.304 421.133 437.707C420.892 437.382 418.859 437.382 418.608 437.707C418.168 438.304 417.927 438.922 417.906 439.739C417.906 440.054 417.361 440.777 417.214 441.469C417.183 441.594 417.214 441.72 417.287 441.846C417.591 442.412 417.623 443.093 417.518 443.585C417.424 444.088 417.246 444.413 417.246 444.413C417.246 444.413 417.057 444.927 416.763 445.513C416.47 446.1 416.04 446.75 415.768 447.117C415.359 447.672 415.118 447.913 414.992 448.07C414.573 448.521 414.353 448.993 414.196 449.558L414.186 449.537Z" fill="#E9F2FE"/>
<path d="M418.45 422.418C418.691 422.796 421.028 422.796 421.28 422.418C421.626 421.884 421.814 421.329 421.825 420.606C421.72 419.788 421.227 419.589 421.28 419.034C421.28 418.101 421.929 416.529 422.087 416.141C422.108 416.089 422.118 416.026 422.108 415.974C422.024 415.576 421.667 413.805 421.835 412.296C421.835 411.227 421.825 410.556 421.825 410.21C421.804 409.393 421.573 408.785 421.123 408.177C420.882 407.852 418.849 407.852 418.597 408.177C418.157 408.775 417.916 409.393 417.895 410.21C417.895 410.525 417.329 411.195 417.235 412.128C417.214 412.285 417.256 412.432 417.35 412.589C418.115 413.888 417.895 415.586 417.895 415.586C417.895 415.586 417.895 418.111 417.884 419.18C417.884 419.987 417.884 420.375 417.895 420.606C417.916 421.329 418.094 421.884 418.44 422.418H418.45Z" fill="#E9F2FE"/>
<path d="M418.45 392.898C418.691 393.275 421.028 393.275 421.28 392.898C421.626 392.364 421.814 391.808 421.825 391.085C421.72 390.268 421.227 390.069 421.28 389.513C421.28 388.581 421.929 387.009 422.087 386.632C422.108 386.579 422.118 386.516 422.108 386.464C422.024 386.066 421.667 384.295 421.835 382.786C421.835 381.717 421.825 381.046 421.825 380.7C421.804 379.883 421.573 379.275 421.123 378.667C420.882 378.343 418.849 378.343 418.597 378.667C418.157 379.265 417.916 379.883 417.895 380.7C417.895 381.015 417.329 381.685 417.235 382.618C417.214 382.775 417.256 382.922 417.35 383.079C418.115 384.379 417.895 386.076 417.895 386.076C417.895 386.076 417.895 388.602 417.884 389.671C417.884 390.477 417.884 390.865 417.895 391.096C417.916 391.819 418.094 392.374 418.44 392.909L418.45 392.898Z" fill="#E9F2FE"/>
<path d="M418.45 363.369C418.691 363.746 421.028 363.746 421.28 363.369C421.626 362.834 421.814 362.279 421.825 361.556C421.72 360.739 421.227 360.54 421.28 359.984C421.28 359.051 421.929 357.48 422.087 357.102C422.108 357.05 422.118 356.987 422.108 356.935C422.024 356.536 421.667 354.765 421.835 353.256C421.835 352.188 421.825 351.517 421.825 351.171C421.804 350.354 421.573 349.746 421.123 349.138C420.882 348.813 418.849 348.813 418.597 349.138C418.157 349.735 417.916 350.354 417.895 351.171C417.895 351.486 417.329 352.156 417.235 353.089C417.214 353.246 417.256 353.393 417.35 353.55C418.115 354.849 417.895 356.547 417.895 356.547C417.895 356.547 417.895 359.072 417.884 360.141C417.884 360.948 417.884 361.336 417.895 361.566C417.916 362.29 418.094 362.845 418.44 363.379L418.45 363.369Z" fill="#E9F2FE"/>
<path d="M418.45 333.847C418.691 334.225 421.028 334.225 421.28 333.847C421.626 333.313 421.814 332.758 421.825 332.034C421.72 331.217 421.227 331.018 421.28 330.463C421.28 329.53 421.929 327.958 422.087 327.581C422.108 327.528 422.118 327.466 422.108 327.413C422.024 327.015 421.667 325.244 421.835 323.735C421.835 322.666 421.825 321.995 421.825 321.65C421.804 320.832 421.573 320.224 421.123 319.617C420.882 319.292 418.849 319.292 418.597 319.617C418.157 320.214 417.916 320.832 417.895 321.65C417.895 321.964 417.329 322.635 417.235 323.567C417.214 323.725 417.256 323.871 417.35 324.028C418.115 325.338 417.895 327.025 417.895 327.025C417.895 327.025 417.895 329.551 417.884 330.62C417.884 331.427 417.884 331.814 417.895 332.045C417.916 332.768 418.094 333.323 418.44 333.858L418.45 333.847Z" fill="#E9F2FE"/>
<path d="M418.45 304.328C418.691 304.705 421.028 304.705 421.28 304.328C421.626 303.793 421.814 303.238 421.825 302.515C421.72 301.698 421.227 301.498 421.28 300.943C421.28 300.01 421.929 298.439 422.087 298.061C422.108 298.009 422.118 297.946 422.108 297.894C422.024 297.495 421.667 295.724 421.835 294.215C421.835 293.147 421.825 292.476 421.825 292.13C421.804 291.313 421.573 290.705 421.123 290.097C420.882 289.772 418.849 289.772 418.597 290.097C418.157 290.694 417.916 291.313 417.895 292.13C417.895 292.444 417.329 293.115 417.235 294.048C417.214 294.205 417.256 294.352 417.35 294.509C418.115 295.808 417.895 297.506 417.895 297.506C417.895 297.506 417.895 300.031 417.884 301.1C417.884 301.907 417.884 302.295 417.895 302.525C417.916 303.249 418.094 303.804 418.44 304.338L418.45 304.328Z" fill="#E9F2FE"/>
<path d="M418.47 274.746C418.69 275.175 421.027 275.165 421.3 274.861C421.666 274.41 421.897 273.97 422.012 273.394C422.033 272.713 421.625 272.419 421.813 271.969C422.044 271.151 423.249 270.25 423.542 270.093C423.584 270.072 423.616 270.03 423.637 269.988C423.71 269.684 424.265 268.217 425.355 267.515C426.015 266.918 426.487 266.624 426.728 266.467C427.294 266.09 427.629 265.66 427.943 265.042C428.111 264.696 427.388 262.799 426.958 262.716C426.183 262.569 425.428 262.653 424.632 263.145C424.328 263.334 423.364 263.281 422.442 263.952C422.295 264.057 422.18 264.204 422.107 264.392C421.803 265.199 421.331 265.912 420.964 266.467C420.587 267.012 420.283 267.4 420.283 267.4C420.283 267.4 419.875 267.997 419.476 268.772C419.078 269.548 418.701 270.512 418.533 271.099C418.261 271.979 418.219 272.419 418.156 272.681C418.03 273.488 418.156 274.159 418.481 274.756L418.47 274.746Z" fill="#E9F2FE"/>
<path d="M442.531 261.479C442.154 261.72 442.154 264.057 442.531 264.308C443.066 264.654 443.621 264.843 444.344 264.853C445.161 264.748 445.361 264.256 445.916 264.308C446.849 264.308 448.421 264.958 448.808 265.115C448.861 265.136 448.924 265.146 448.976 265.136C449.374 265.052 451.145 264.696 452.654 264.863C453.723 264.863 454.394 264.853 454.739 264.853C455.557 264.832 456.165 264.601 456.772 264.151C457.097 263.91 457.097 261.877 456.772 261.625C456.175 261.185 455.557 260.944 454.739 260.923C454.425 260.923 453.754 260.357 452.822 260.263C452.665 260.242 452.518 260.284 452.361 260.378C451.061 261.143 449.364 260.923 449.364 260.923C449.364 260.923 446.838 260.923 445.769 260.913C444.962 260.913 444.575 260.913 444.344 260.923C443.621 260.944 443.066 261.122 442.531 261.468V261.479Z" fill="#E9F2FE"/>
<path d="M472.051 261.479C471.674 261.72 471.674 264.057 472.051 264.308C472.586 264.654 473.141 264.843 473.864 264.853C474.682 264.748 474.881 264.256 475.436 264.308C476.369 264.308 477.941 264.958 478.328 265.115C478.381 265.136 478.444 265.146 478.496 265.136C478.894 265.052 480.665 264.696 482.174 264.863C483.243 264.863 483.914 264.853 484.259 264.853C485.077 264.832 485.685 264.601 486.292 264.151C486.617 263.91 486.617 261.877 486.292 261.625C485.695 261.185 485.077 260.944 484.259 260.923C483.945 260.923 483.274 260.357 482.342 260.263C482.185 260.242 482.038 260.284 481.881 260.378C480.581 261.143 478.884 260.923 478.884 260.923C478.884 260.923 476.358 260.923 475.289 260.913C474.482 260.913 474.095 260.913 473.864 260.923C473.141 260.944 472.586 261.122 472.051 261.468V261.479Z" fill="#E9F2FE"/>
<path d="M501.581 261.479C501.204 261.72 501.204 264.057 501.581 264.308C502.116 264.654 502.671 264.843 503.394 264.853C504.212 264.748 504.411 264.256 504.966 264.308C505.899 264.308 507.471 264.958 507.858 265.115C507.911 265.136 507.974 265.146 508.026 265.136C508.424 265.052 510.195 264.696 511.704 264.863C512.773 264.863 513.444 264.853 513.79 264.853C514.607 264.832 515.215 264.601 515.822 264.151C516.147 263.91 516.147 261.877 515.822 261.625C515.225 261.185 514.607 260.944 513.79 260.923C513.475 260.923 512.804 260.357 511.872 260.263C511.715 260.242 511.568 260.284 511.421 260.378C510.122 261.143 508.424 260.923 508.424 260.923C508.424 260.923 505.899 260.923 504.83 260.913C504.023 260.913 503.635 260.913 503.405 260.923C502.682 260.944 502.126 261.122 501.592 261.468L501.581 261.479Z" fill="#E9F2FE"/>
<path d="M531.101 261.479C530.724 261.72 530.724 264.057 531.101 264.308C531.636 264.654 532.191 264.843 532.914 264.853C533.732 264.748 533.931 264.256 534.486 264.308C535.419 264.308 536.991 264.958 537.378 265.115C537.431 265.136 537.494 265.146 537.546 265.136C537.944 265.052 539.715 264.696 541.224 264.863C542.293 264.863 542.964 264.853 543.31 264.853C544.127 264.832 544.735 264.601 545.343 264.151C545.667 263.91 545.667 261.877 545.343 261.625C544.745 261.185 544.127 260.944 543.31 260.923C542.995 260.923 542.324 260.357 541.392 260.263C541.235 260.242 541.088 260.284 540.941 260.378C539.642 261.143 537.944 260.923 537.944 260.923C537.944 260.923 535.419 260.923 534.35 260.913C533.543 260.913 533.155 260.913 532.925 260.923C532.202 260.944 531.646 261.122 531.112 261.468L531.101 261.479Z" fill="#E9F2FE"/>
<path d="M329.535 13.322C329.776 13.6993 332.113 13.6993 332.365 13.322C332.711 12.7876 332.899 12.2322 332.91 11.5091C332.805 10.6917 332.312 10.4926 332.365 9.93723C332.365 9.00459 333.014 7.43271 333.172 7.05546C333.193 7.00307 333.203 6.94019 333.193 6.8878C333.109 6.48959 332.752 4.71861 332.92 3.20961C332.92 2.14073 332.91 1.47007 332.91 1.12425C332.889 0.30688 332.658 -0.300912 332.208 -0.908703C331.966 -1.23356 329.934 -1.23356 329.682 -0.908703C329.242 -0.311391 329.001 0.30688 328.98 1.12425C328.98 1.43863 328.414 2.1093 328.32 3.04194C328.299 3.19913 328.341 3.34584 328.435 3.50303C329.2 4.80244 328.98 6.50007 328.98 6.50007C328.98 6.50007 328.98 9.02555 328.969 10.0944C328.969 10.9013 328.969 11.289 328.98 11.5196C329.001 12.2426 329.179 12.798 329.525 13.3325L329.535 13.322Z" fill="#E9F2FE"/>
<path d="M533.626 24.7772C533.385 14.319 531.048 14.319 530.797 24.7772C530.451 39.6053 530.262 55.1773 530.252 75.1925C530.304 86.5415 530.451 93.6254 530.587 99.7871C530.64 102.868 530.692 105.729 530.755 108.778C530.755 109.543 530.776 110.308 530.776 111.105C530.776 111.503 530.776 111.901 530.776 112.31V112.918C530.776 113.012 530.776 113.075 530.755 113.159C530.692 113.462 530.451 113.756 530.126 113.861C529.958 113.924 529.885 113.913 529.309 113.913C528.848 113.913 528.376 113.913 527.894 113.913C501.916 113.913 458.092 113.263 447.54 113.106C445.978 113.085 444.417 113.075 442.845 113.085C431.653 113.169 382.59 113.525 340.338 113.358C310.493 113.358 292.029 113.368 282.378 113.368C259.596 113.389 242.567 113.62 225.864 114.07C216.684 114.311 216.684 116.344 225.864 116.596C242.578 117.036 259.596 117.277 282.378 117.298C291.233 117.298 309.676 117.864 335.717 117.958C339.961 117.979 344.205 117.937 348.407 117.843C384.717 117.078 431.853 117.298 431.853 117.298C431.853 117.298 449.437 117.298 470.73 117.298C481.377 117.298 492.957 117.298 503.719 117.298C509.105 117.298 514.282 117.298 519.05 117.298C521.428 117.298 523.713 117.298 525.851 117.298C526.919 117.298 527.967 117.298 528.963 117.298H529.707C530.021 117.298 530.503 117.266 530.881 117.151C531.677 116.952 532.39 116.512 532.934 115.956C533.762 115.139 534.192 113.882 534.161 112.844C534.161 112.163 534.161 111.503 534.161 110.853C534.161 109.543 534.161 108.275 534.161 107.06C534.161 104.618 534.161 102.334 534.161 100.206C534.161 95.9517 534.161 92.305 534.161 89.1508C534.161 82.8423 534.161 78.4935 534.161 75.1925C534.14 55.1773 533.961 39.6053 533.616 24.7772H533.626Z" fill="#E9F2FE"/>
<path d="M412.76 102.553C413.294 101.673 411.649 100.017 410.759 100.551C409.501 101.316 408.317 102.249 406.934 103.601C405.467 105.225 405.425 105.948 404.335 106.965C403.455 107.845 402.145 108.924 400.961 109.846C399.713 110.789 398.624 111.628 398.204 111.942C397.974 112.141 397.754 112.351 397.555 112.571C397.282 112.864 396.832 113.357 395.029 115.201C395.396 115.536 396.014 116.102 396.811 116.836C397.44 117.423 398.204 118.146 399.053 118.953C400.122 119.959 401.38 121.185 402.501 122.4C404.534 124.423 405.802 125.68 406.452 126.34C408.013 127.881 409.344 128.866 410.8 129.694C411.597 130.144 413.033 128.709 412.582 127.912C411.754 126.456 410.769 125.135 409.229 123.564C408.631 122.956 407.772 121.31 406.064 119.466C405.791 119.162 405.467 118.9 405.121 118.68C403.999 117.957 402.868 117.045 401.904 116.176C401.778 116.071 401.663 115.956 401.547 115.851L401.38 115.694L401.317 115.641C401.254 115.589 401.191 115.536 401.128 115.484C401.013 115.379 400.919 115.285 400.856 115.212C400.971 115.117 401.044 115.054 401.044 115.054C401.044 115.054 405.246 110.863 407.017 109.092C408.537 107.562 409.27 106.828 409.711 106.378C411.062 105.005 411.995 103.81 412.76 102.553Z" fill="#E9F2FE"/>
<path d="M234.709 102.553C235.243 101.673 233.598 100.017 232.708 100.551C231.45 101.316 230.266 102.249 228.883 103.601C227.416 105.225 227.374 105.948 226.284 106.965C225.404 107.845 224.094 108.924 222.909 109.846C221.662 110.789 220.573 111.628 220.153 111.942C219.923 112.141 219.703 112.351 219.504 112.571C219.231 112.864 218.781 113.357 216.978 115.201C217.345 115.536 217.963 116.102 218.76 116.836C219.388 117.423 220.153 118.146 221.002 118.953C222.071 119.959 223.329 121.185 224.45 122.4C226.483 124.423 227.751 125.68 228.401 126.34C229.962 127.881 231.293 128.866 232.749 129.694C233.546 130.144 234.981 128.709 234.531 127.912C233.703 126.456 232.718 125.135 231.178 123.564C230.58 122.956 229.721 121.31 228.013 119.466C227.74 119.162 227.416 118.9 227.07 118.68C225.948 117.957 224.817 117.045 223.853 116.176C223.727 116.071 223.612 115.956 223.496 115.851L223.329 115.694L223.266 115.641C223.203 115.589 223.14 115.536 223.077 115.484C222.962 115.379 222.868 115.285 222.805 115.212C222.92 115.117 222.993 115.054 222.993 115.054C222.993 115.054 227.195 110.863 228.966 109.092C230.486 107.562 231.219 106.828 231.66 106.378C233.011 105.005 233.944 103.81 234.709 102.553Z" fill="#E9F2FE"/>
<path d="M258.821 129.966C259.701 130.5 261.357 128.855 260.822 127.964C260.057 126.707 259.125 125.522 257.773 124.139C256.149 122.672 255.426 122.63 254.42 121.54C253.539 120.66 252.46 119.35 251.538 118.166C251.077 117.569 250.647 117.003 250.301 116.542C250.123 116.311 249.976 116.102 249.84 115.923C249.725 115.766 249.547 115.546 249.62 115.588C249.641 115.567 249.641 115.567 249.631 115.578C249.61 115.578 249.599 115.599 249.526 115.578C249.484 115.578 249.452 115.557 249.442 115.515C249.494 115.41 249.232 115.62 249.934 114.896C250.94 113.828 252.167 112.57 253.382 111.449C255.405 109.416 256.662 108.148 257.322 107.498C258.863 105.937 259.848 104.606 260.676 103.149C261.126 102.353 259.691 100.917 258.894 101.368C257.438 102.196 256.117 103.181 254.545 104.721C253.938 105.319 252.292 106.178 250.448 107.886C250.144 108.169 249.882 108.483 249.662 108.829C248.939 109.95 248.027 111.082 247.157 112.046C247.053 112.172 246.937 112.287 246.833 112.402C246.686 112.549 246.55 112.706 246.413 112.853C246.047 113.23 245.701 113.587 245.376 113.911C244.716 114.572 244.15 115.138 243.71 115.578C244.307 116.196 244.663 116.563 244.663 116.563C244.663 116.563 250.039 121.949 252.313 124.223C253.843 125.742 254.577 126.476 255.027 126.916C256.4 128.268 257.595 129.201 258.852 129.966H258.821Z" fill="#E9F2FE"/>
<path d="M264.386 513.87C264.145 504.931 261.808 504.931 261.556 513.87C261.378 520.21 261.253 526.707 261.158 533.759C261.148 534.64 261.137 535.53 261.127 536.432V537.113C261.127 537.27 261.106 537.218 261.116 537.26C261.116 537.281 261.116 537.312 261.095 537.333C261.074 537.417 261.022 537.501 260.949 537.574C260.886 537.647 260.791 537.689 260.708 537.71C260.666 537.721 260.613 537.721 260.571 537.721H259.89C258.947 537.71 257.993 537.7 257.029 537.7C253.173 537.689 249.139 537.668 244.853 537.658C225.445 537.763 220.625 538.255 207.473 538.203C185.258 538.203 147.784 537.553 138.762 537.396C137.431 537.375 136.089 537.364 134.748 537.375C125.181 537.459 83.222 537.815 47.0898 537.647C21.573 537.647 5.78094 537.658 -2.46616 537.658C-21.9469 537.679 -36.5025 537.909 -50.7961 538.36C-58.645 538.601 -58.645 540.634 -50.7961 540.885C-36.5025 541.325 -21.9469 541.567 -2.46616 541.587C5.0998 541.587 20.8709 542.153 43.1392 542.248C46.765 542.269 50.3908 542.227 53.9851 542.132C85.0349 541.367 125.338 541.587 125.338 541.587C125.338 541.587 185.488 541.587 210.879 541.598C229.993 541.598 239.194 541.598 244.853 541.587C249.128 541.577 253.173 541.556 257.029 541.546C257.993 541.546 258.947 541.535 259.89 541.525H260.613C261.001 541.504 261.389 541.462 261.756 541.346C262.5 541.126 263.17 540.707 263.684 540.152C264.208 539.596 264.564 538.905 264.732 538.171C264.815 537.836 264.836 537.375 264.836 537.123V536.442C264.815 535.541 264.805 534.65 264.794 533.77C264.7 526.718 264.574 520.22 264.396 513.881L264.386 513.87Z" fill="#E9F2FE"/>
<path d="M137.074 526.832C137.609 525.952 135.963 524.296 135.073 524.831C133.815 525.596 132.631 526.528 131.248 527.88C129.781 529.504 129.739 530.227 128.649 531.233C127.769 532.114 126.459 533.193 125.275 534.115C124.028 535.058 122.938 535.897 122.519 536.211C122.288 536.41 122.068 536.62 121.869 536.84C121.597 537.133 121.146 537.626 119.344 539.47C119.71 539.805 120.329 540.371 121.125 541.105C121.754 541.692 122.519 542.415 123.368 543.222C124.436 544.228 125.694 545.454 126.815 546.669C128.848 548.692 130.116 549.949 130.766 550.609C132.327 552.15 133.658 553.135 135.115 553.963C135.911 554.413 137.347 552.978 136.896 552.181C136.068 550.725 135.083 549.404 133.543 547.832C132.945 547.225 132.086 545.579 130.378 543.735C130.106 543.431 129.781 543.169 129.435 542.949C128.314 542.226 127.182 541.314 126.218 540.445C126.092 540.34 125.977 540.224 125.862 540.12L125.694 539.963L125.631 539.91C125.568 539.858 125.505 539.805 125.442 539.753C125.327 539.648 125.233 539.554 125.17 539.48C125.285 539.386 125.359 539.323 125.359 539.323C125.359 539.323 129.561 535.132 131.332 533.361C132.851 531.831 133.585 531.097 134.025 530.647C135.377 529.274 136.309 528.079 137.074 526.822V526.832Z" fill="#E9F2FE"/>
<path d="M983.279 541.022C983.656 540.781 983.656 538.444 983.279 538.192C982.745 537.847 982.189 537.658 981.466 537.647C980.649 537.752 980.45 538.245 979.894 538.192C978.962 538.192 977.39 537.543 977.002 537.385C976.95 537.364 976.887 537.354 976.834 537.364C976.436 537.448 974.665 537.805 973.156 537.637C972.087 537.637 971.417 537.647 971.071 537.647C970.253 537.668 969.646 537.899 969.038 538.35C968.713 538.591 968.713 540.624 969.038 540.875C969.635 541.315 970.253 541.556 971.071 541.577C971.385 541.577 972.056 542.143 972.988 542.237C973.146 542.258 973.292 542.216 973.45 542.122C974.749 541.357 976.447 541.577 976.447 541.577C976.447 541.577 978.972 541.577 980.041 541.588C980.848 541.588 981.236 541.588 981.466 541.577C982.189 541.567 982.745 541.378 983.279 541.032V541.022Z" fill="#E9F2FE"/>
<path d="M953.749 541.022C954.126 540.781 954.126 538.444 953.749 538.192C953.215 537.847 952.659 537.658 951.936 537.647C951.119 537.752 950.92 538.245 950.364 538.192C949.432 538.192 947.86 537.543 947.472 537.385C947.42 537.364 947.357 537.354 947.304 537.364C946.906 537.448 945.135 537.805 943.626 537.637C942.557 537.637 941.887 537.647 941.541 537.647C940.723 537.668 940.116 537.899 939.508 538.35C939.183 538.591 939.183 540.624 939.508 540.875C940.105 541.315 940.723 541.556 941.541 541.577C941.855 541.577 942.526 542.143 943.458 542.237C943.616 542.258 943.762 542.216 943.909 542.122C945.208 541.357 946.906 541.577 946.906 541.577C946.906 541.577 949.432 541.577 950.5 541.588C951.307 541.588 951.695 541.588 951.926 541.577C952.649 541.567 953.204 541.378 953.738 541.032L953.749 541.022Z" fill="#E9F2FE"/>
<path d="M943.153 526.832C943.687 525.952 942.042 524.296 941.151 524.831C939.894 525.596 938.709 526.528 937.326 527.88C935.859 529.504 935.817 530.227 934.727 531.233C933.847 532.114 932.537 533.193 931.353 534.115C930.106 535.058 929.016 535.897 928.597 536.211C928.366 536.41 928.146 536.62 927.947 536.84C927.675 537.133 927.224 537.626 925.422 539.47C925.789 539.805 926.407 540.371 927.203 541.105C927.832 541.692 928.597 542.415 929.446 543.222C930.515 544.228 931.772 545.454 932.894 546.669C934.926 548.692 936.194 549.949 936.844 550.609C938.406 552.15 939.736 553.135 941.193 553.963C941.989 554.413 943.425 552.978 942.974 552.181C942.147 550.725 941.162 549.404 939.621 547.832C939.024 547.225 938.165 545.579 936.456 543.735C936.184 543.431 935.859 543.169 935.513 542.949C934.392 542.226 933.26 541.314 932.296 540.445C932.17 540.34 932.055 540.224 931.94 540.12L931.772 539.963L931.709 539.91C931.646 539.858 931.584 539.805 931.521 539.753C931.405 539.648 931.311 539.554 931.248 539.48C931.364 539.386 931.437 539.323 931.437 539.323C931.437 539.323 935.639 535.132 937.41 533.361C938.93 531.831 939.663 531.097 940.103 530.647C941.455 529.274 942.388 528.079 943.153 526.822V526.832Z" fill="#E9F2FE"/>
<path d="M967.265 554.236C968.145 554.771 969.801 553.125 969.267 552.235C968.502 550.977 967.569 549.793 966.217 548.41C964.593 546.943 963.87 546.901 962.864 545.811C961.984 544.931 960.904 543.621 959.982 542.437C959.521 541.839 959.091 541.273 958.746 540.812C958.568 540.582 958.421 540.372 958.285 540.194C958.169 540.037 957.991 539.817 958.064 539.859C958.085 539.838 958.085 539.838 958.075 539.848C958.054 539.848 958.044 539.869 957.97 539.848C957.928 539.848 957.897 539.827 957.886 539.785C957.939 539.68 957.677 539.89 958.379 539.167C959.385 538.098 960.611 536.841 961.827 535.719C963.849 533.686 965.107 532.418 965.767 531.769C967.307 530.207 968.292 528.876 969.12 527.42C969.571 526.623 968.135 525.188 967.339 525.638C965.882 526.466 964.562 527.451 962.99 528.992C962.382 529.589 960.737 530.459 958.892 532.156C958.588 532.429 958.327 532.754 958.106 533.1C957.383 534.221 956.472 535.353 955.602 536.317C955.497 536.442 955.382 536.558 955.277 536.673C955.13 536.83 954.994 536.977 954.858 537.124C954.491 537.501 954.145 537.857 953.82 538.182C953.16 538.842 952.594 539.408 952.154 539.848C952.752 540.466 953.108 540.833 953.108 540.833C953.108 540.833 958.484 546.219 960.758 548.493C962.288 550.013 963.021 550.746 963.472 551.187C964.845 552.538 966.039 553.471 967.297 554.236H967.265Z" fill="#E9F2FE"/>
<path d="M758.803 303.836C759.044 306.634 761.381 306.634 761.633 303.836C761.978 299.875 762.167 295.704 762.177 290.349C762.073 284.282 761.58 282.773 761.633 278.655C761.633 277.785 761.654 276.842 761.664 275.857C761.674 275.364 761.685 274.851 761.695 274.337V273.981L761.716 273.855C761.716 273.771 761.748 273.698 761.779 273.625C761.853 273.488 761.989 273.384 762.136 273.342C762.209 273.321 762.282 273.321 762.356 273.342H762.46L762.859 273.373C763.938 273.415 765.007 273.457 766.044 273.499C770.194 273.708 773.83 273.897 775.245 273.97C775.664 273.991 776.083 274.002 776.503 273.991C778.001 273.949 782.025 273.834 787.097 273.761C789.633 273.74 792.42 273.708 795.292 273.677C796.727 273.677 798.173 273.677 799.62 273.677C800.343 273.677 801.066 273.677 801.778 273.687H802.847C803.067 273.687 803.895 273.75 804.513 273.635C806.337 273.279 807.636 271.707 807.793 270.051C807.804 269.842 807.825 269.632 807.814 269.422V268.951C807.814 268.731 807.814 268.511 807.814 268.301C807.814 267.872 807.814 267.452 807.814 267.044C807.814 265.419 807.814 263.973 807.814 262.695C807.814 260.138 807.814 258.262 807.814 256.973C807.793 250.885 807.563 246.326 807.112 241.852C806.871 239.4 804.838 239.4 804.587 241.852C804.147 246.326 803.906 250.874 803.885 256.973C803.885 258.157 803.738 259.981 803.591 262.38C803.528 263.586 803.455 264.927 803.371 266.404C803.34 267.148 803.319 267.913 803.287 268.72C803.277 269.307 803.266 269.087 803.256 269.129C803.245 269.129 803.235 269.129 803.235 269.129C803.235 269.129 803.235 269.129 803.235 269.15L801.768 269.244C792.054 270.009 779.447 269.789 779.447 269.789C779.447 269.789 774.742 269.789 769.052 269.789C767.627 269.789 766.139 269.789 764.651 269.789C763.896 269.789 763.131 269.789 762.387 269.789C761.109 269.695 759.862 270.208 759.097 271.162C758.719 271.634 758.447 272.189 758.332 272.765C758.269 273.059 758.258 273.352 758.248 273.656V274.327C758.248 275.008 758.248 275.679 758.248 276.318C758.248 277.596 758.248 278.759 758.248 279.744C758.248 285.728 758.248 288.599 758.258 290.37C758.279 295.725 758.457 299.885 758.803 303.857V303.836Z" fill="#E9F2FE"/>
<path d="M806.137 179.575C806.378 182.394 808.715 182.394 808.966 179.575C809.312 175.572 809.501 171.36 809.511 165.952C809.406 159.822 808.914 158.303 808.966 154.142C808.966 153.262 808.987 152.308 808.998 151.313C809.008 150.81 809.019 150.296 809.029 149.783C809.04 149.584 809.05 149.448 809.102 149.29C809.123 149.217 809.155 149.144 809.207 149.091C809.27 149.028 809.364 149.081 809.438 149.081L809.668 149.112H809.773L810.14 149.144C811.23 149.186 812.309 149.228 813.357 149.27C817.549 149.479 821.227 149.668 822.652 149.741C823.071 149.762 823.501 149.773 823.92 149.762C825.429 149.72 829.495 149.605 834.619 149.531C837.176 149.511 839.995 149.479 842.898 149.448H847.267C848.965 149.458 850.652 149.479 852.308 149.49C852.549 149.5 852.759 149.448 852.979 149.427C853.209 149.416 853.387 149.343 853.555 149.259C853.733 149.186 853.901 149.133 854.048 149.008C854.215 148.892 854.362 148.746 854.488 148.588C854.991 147.981 855.242 147.184 855.347 146.356C855.399 145.948 855.42 145.518 855.41 145.099C855.41 144.837 855.41 144.585 855.41 144.334C855.41 143.904 855.41 143.475 855.41 143.066C855.41 141.421 855.41 139.964 855.41 138.675C855.41 136.097 855.41 134.2 855.41 132.891C855.389 126.739 855.158 122.139 854.708 117.622C854.467 115.139 852.434 115.139 852.182 117.622C851.742 122.139 851.501 126.739 851.48 132.891C851.48 134.085 851.344 135.93 851.187 138.35C851.124 139.566 851.05 140.918 850.967 142.416C850.935 143.16 850.914 143.946 850.883 144.753C850.883 144.9 850.883 144.868 850.883 144.868H850.872H850.851C850.851 144.868 850.851 144.868 850.851 144.889V144.9H850.747L850.317 144.921L849.468 144.973C839.66 145.738 826.927 145.518 826.927 145.518C826.927 145.518 822.18 145.518 816.427 145.518C814.992 145.518 813.493 145.518 811.984 145.518C811.209 145.518 810.423 145.518 809.658 145.518C809.019 145.539 808.337 145.476 807.761 145.581C807.457 145.612 807.248 145.749 806.996 145.822C806.766 145.927 806.535 146.157 806.378 146.377C805.718 147.278 805.581 148.546 805.613 149.741C805.613 150.433 805.613 151.103 805.613 151.753C805.613 153.042 805.613 154.216 805.613 155.222C805.613 161.258 805.613 164.171 805.623 165.952C805.644 171.36 805.822 175.562 806.168 179.575H806.137Z" fill="#E9F2FE"/>
<path d="M615.186 545.58C614.809 545.821 614.809 548.158 615.186 548.41C615.721 548.755 616.276 548.944 616.999 548.955C617.817 548.85 618.016 548.357 618.571 548.41C619.504 548.41 621.076 549.059 621.463 549.217C621.516 549.237 621.579 549.248 621.631 549.237C622.029 549.154 623.8 548.797 625.309 548.965C626.378 548.965 627.049 548.955 627.394 548.955C628.212 548.934 628.82 548.703 629.427 548.252C629.752 548.011 629.752 545.979 629.427 545.727C628.83 545.287 628.212 545.046 627.394 545.025C627.08 545.025 626.409 544.459 625.477 544.365C625.32 544.344 625.173 544.386 625.016 544.48C623.716 545.245 622.019 545.025 622.019 545.025C622.019 545.025 619.493 545.025 618.424 545.014C617.617 545.014 617.23 545.014 616.999 545.025C616.276 545.046 615.721 545.224 615.186 545.57V545.58Z" fill="#E9F2FE"/>
<path d="M644.706 545.58C644.329 545.821 644.329 548.158 644.706 548.41C645.241 548.755 645.796 548.944 646.519 548.955C647.337 548.85 647.536 548.357 648.091 548.41C649.024 548.41 650.596 549.059 650.983 549.217C651.036 549.237 651.099 549.248 651.151 549.237C651.549 549.154 653.32 548.797 654.829 548.965C655.898 548.965 656.569 548.955 656.914 548.955C657.732 548.934 658.34 548.703 658.947 548.252C659.272 548.011 659.272 545.979 658.947 545.727C658.35 545.287 657.732 545.046 656.914 545.025C656.6 545.025 655.929 544.459 654.997 544.365C654.84 544.344 654.693 544.386 654.546 544.48C653.247 545.245 651.549 545.025 651.549 545.025C651.549 545.025 649.024 545.025 647.955 545.014C647.148 545.014 646.76 545.014 646.53 545.025C645.807 545.046 645.251 545.224 644.717 545.57L644.706 545.58Z" fill="#E9F2FE"/>
<path d="M674.236 545.58C673.859 545.821 673.859 548.158 674.236 548.41C674.77 548.755 675.326 548.944 676.049 548.955C676.866 548.85 677.065 548.357 677.621 548.41C678.553 548.41 680.125 549.059 680.513 549.217C680.565 549.237 680.628 549.248 680.681 549.237C681.079 549.154 682.85 548.797 684.359 548.965C685.428 548.965 686.099 548.955 686.444 548.955C687.262 548.934 687.869 548.703 688.477 548.252C688.802 548.011 688.802 545.979 688.477 545.727C687.88 545.287 687.262 545.046 686.444 545.025C686.13 545.025 685.459 544.459 684.527 544.365C684.369 544.344 684.223 544.386 684.066 544.48C682.766 545.245 681.068 545.025 681.068 545.025C681.068 545.025 678.543 545.025 677.474 545.014C676.667 545.014 676.279 545.014 676.049 545.025C675.326 545.046 674.77 545.224 674.236 545.57V545.58Z" fill="#E9F2FE"/>
<path d="M703.756 545.58C703.379 545.821 703.379 548.158 703.756 548.41C704.291 548.755 704.846 548.944 705.569 548.955C706.387 548.85 706.586 548.357 707.141 548.41C708.074 548.41 709.646 549.059 710.033 549.217C710.086 549.237 710.149 549.248 710.201 549.237C710.599 549.154 712.37 548.797 713.879 548.965C714.948 548.965 715.619 548.955 715.965 548.955C716.782 548.934 717.39 548.703 717.998 548.252C718.322 548.011 718.322 545.979 717.998 545.727C717.4 545.287 716.782 545.046 715.965 545.025C715.65 545.025 714.98 544.459 714.047 544.365C713.89 544.344 713.743 544.386 713.586 544.48C712.286 545.245 710.589 545.025 710.589 545.025C710.589 545.025 708.063 545.025 706.994 545.014C706.188 545.014 705.8 545.014 705.569 545.025C704.846 545.046 704.291 545.224 703.756 545.57V545.58Z" fill="#E9F2FE"/>
<path d="M733.287 545.581C732.91 545.822 732.91 548.159 733.287 548.411C733.822 548.757 734.377 548.945 735.1 548.956C735.299 548.924 735.467 548.882 735.613 548.819C735.666 548.788 735.781 548.757 735.896 548.715C736.001 548.673 736.096 548.631 736.2 548.599C736.567 548.421 736.84 548.264 737.28 548.117C737.992 547.845 738.935 547.31 739.575 546.493C740.224 545.707 740.497 544.733 740.57 544.366C740.591 544.313 740.602 544.25 740.591 544.198C740.507 543.8 740.151 542.029 740.319 540.509C740.319 539.441 740.308 538.77 740.308 538.424C740.287 537.607 740.057 536.988 739.606 536.391C739.365 536.066 737.332 536.066 737.081 536.391C736.64 536.988 736.399 537.607 736.378 538.424C736.378 538.738 735.813 539.409 735.718 540.342C735.697 540.499 735.739 540.646 735.834 540.803C736.599 542.113 736.378 543.8 736.378 543.8C736.378 543.8 736.378 543.957 736.378 544.209C736.378 544.376 736.378 544.397 736.378 544.439C736.378 544.481 736.368 544.533 736.347 544.586C736.284 544.785 736.075 544.953 735.938 544.984C735.886 545.005 735.844 545.005 735.802 545.015C735.739 545.015 735.781 545.015 735.624 545.015C735.393 545.015 735.236 545.015 735.121 545.015C734.398 545.036 733.843 545.215 733.308 545.56L733.287 545.581Z" fill="#E9F2FE"/>
<path d="M736.912 521.101C737.154 521.479 739.49 521.479 739.742 521.101C740.088 520.567 740.276 520.011 740.287 519.288C740.182 518.471 739.689 518.272 739.742 517.717C739.742 516.784 740.392 515.212 740.549 514.835C740.57 514.782 740.58 514.719 740.57 514.667C740.486 514.269 740.13 512.498 740.297 510.989C740.297 509.92 740.287 509.249 740.287 508.904C740.266 508.086 740.035 507.478 739.585 506.871C739.344 506.546 737.311 506.546 737.059 506.871C736.619 507.468 736.378 508.086 736.357 508.904C736.357 509.218 735.791 509.889 735.697 510.821C735.676 510.978 735.718 511.125 735.812 511.282C736.577 512.582 736.357 514.279 736.357 514.279C736.357 514.279 736.357 516.805 736.347 517.874C736.347 518.681 736.347 519.068 736.357 519.299C736.378 520.022 736.556 520.577 736.902 521.112L736.912 521.101Z" fill="#E9F2FE"/>
<path d="M750.106 501.285C749.729 501.526 749.729 503.863 750.106 504.115C750.64 504.461 751.196 504.649 751.919 504.66C752.736 504.555 752.935 504.062 753.491 504.115C754.423 504.115 755.995 504.764 756.383 504.922C756.435 504.943 756.498 504.953 756.551 504.943C756.949 504.859 758.72 504.502 760.229 504.67C761.298 504.67 761.968 504.66 762.314 504.66C763.132 504.639 763.739 504.408 764.347 503.958C764.672 503.717 764.672 501.684 764.347 501.432C763.75 500.992 763.132 500.751 762.314 500.73C762 500.73 761.329 500.164 760.396 500.07C760.239 500.049 760.093 500.091 759.946 500.185C758.646 500.95 756.949 500.73 756.949 500.73C756.949 500.73 754.423 500.73 753.354 500.719C752.548 500.719 752.16 500.719 751.929 500.73C751.206 500.751 750.651 500.929 750.116 501.275L750.106 501.285Z" fill="#E9F2FE"/>
<path d="M779.625 501.285C779.248 501.526 779.248 503.863 779.625 504.115C780.16 504.461 780.715 504.649 781.438 504.66C782.255 504.555 782.455 504.062 783.01 504.115C783.943 504.115 785.515 504.764 785.902 504.922C785.955 504.943 786.017 504.953 786.07 504.943C786.468 504.859 788.239 504.502 789.748 504.67C790.817 504.67 791.488 504.66 791.833 504.66C792.651 504.639 793.259 504.408 793.866 503.958C794.191 503.717 794.191 501.684 793.866 501.432C793.269 500.992 792.651 500.751 791.833 500.73C791.519 500.73 790.848 500.164 789.916 500.07C789.759 500.049 789.612 500.091 789.455 500.185C788.155 500.95 786.458 500.73 786.458 500.73C786.458 500.73 783.932 500.73 782.863 500.719C782.056 500.719 781.669 500.719 781.438 500.73C780.715 500.751 780.16 500.929 779.625 501.275V501.285Z" fill="#E9F2FE"/>
<path d="M809.155 501.285C808.778 501.526 808.778 503.863 809.155 504.115C809.689 504.461 810.245 504.649 810.968 504.66C811.785 504.555 811.984 504.062 812.54 504.115C813.472 504.115 815.044 504.764 815.432 504.922C815.484 504.943 815.547 504.953 815.6 504.943C815.998 504.859 817.769 504.502 819.278 504.67C820.347 504.67 821.017 504.66 821.363 504.66C822.181 504.639 822.788 504.408 823.396 503.958C823.721 503.717 823.721 501.684 823.396 501.432C822.799 500.992 822.181 500.751 821.363 500.73C821.049 500.73 820.378 500.164 819.446 500.07C819.288 500.049 819.142 500.091 818.984 500.185C817.685 500.95 815.987 500.73 815.987 500.73C815.987 500.73 813.462 500.73 812.393 500.719C811.586 500.719 811.198 500.719 810.968 500.73C810.245 500.751 809.689 500.929 809.155 501.275V501.285Z" fill="#E9F2FE"/>
<path d="M838.675 501.285C838.298 501.526 838.298 503.863 838.675 504.115C839.209 504.461 839.765 504.649 840.488 504.66C841.305 504.555 841.504 504.062 842.06 504.115C842.992 504.115 844.564 504.764 844.952 504.922C845.004 504.943 845.067 504.953 845.12 504.943C845.518 504.859 847.289 504.502 848.798 504.67C849.867 504.67 850.537 504.66 850.883 504.66C851.701 504.639 852.308 504.408 852.916 503.958C853.241 503.717 853.241 501.684 852.916 501.432C852.319 500.992 851.701 500.751 850.883 500.73C850.569 500.73 849.898 500.164 848.966 500.07C848.808 500.049 848.662 500.091 848.515 500.185C847.216 500.95 845.518 500.73 845.518 500.73C845.518 500.73 842.992 500.73 841.924 500.719C841.117 500.719 840.729 500.719 840.498 500.73C839.775 500.751 839.22 500.929 838.686 501.275L838.675 501.285Z" fill="#E9F2FE"/>
<path d="M868.206 501.285C867.829 501.526 867.829 503.863 868.206 504.115C868.74 504.461 869.296 504.649 870.019 504.66C870.836 504.555 871.035 504.062 871.591 504.115C872.523 504.115 874.095 504.764 874.483 504.922C874.536 504.943 874.598 504.953 874.651 504.943C875.049 504.859 876.82 504.502 878.329 504.67C879.398 504.67 880.068 504.66 880.414 504.66C881.232 504.639 881.839 504.408 882.447 503.958C882.772 503.717 882.772 501.684 882.447 501.432C881.85 500.992 881.232 500.751 880.414 500.73C880.1 500.73 879.429 500.164 878.497 500.07C878.339 500.049 878.193 500.091 878.035 500.185C876.736 500.95 875.038 500.73 875.038 500.73C875.038 500.73 872.513 500.73 871.444 500.719C870.637 500.719 870.25 500.719 870.019 500.73C869.296 500.751 868.74 500.929 868.206 501.275V501.285Z" fill="#E9F2FE"/>
<path d="M897.726 501.285C897.349 501.526 897.349 503.863 897.726 504.114C897.988 504.292 898.26 504.418 898.564 504.512C898.711 504.554 898.868 504.596 899.025 504.617C899.214 504.638 899.287 504.67 899.686 504.649C900.451 504.544 900.849 504.219 901.142 503.957C901.436 503.674 901.645 503.433 902.012 503.161C902.599 502.679 903.332 501.872 903.678 500.897C903.773 500.656 903.835 500.415 903.888 500.184C903.94 499.954 903.982 499.912 904.024 499.786C904.108 499.566 904.181 499.399 904.223 499.304C904.244 499.252 904.255 499.189 904.244 499.137C904.16 498.738 903.804 496.967 903.972 495.448C903.972 494.379 903.961 493.708 903.961 493.363C903.94 492.545 903.71 491.927 903.259 491.33C903.018 491.005 900.985 491.005 900.734 491.33C900.293 491.927 900.052 492.545 900.031 493.363C900.031 493.677 899.466 494.348 899.371 495.28C899.35 495.437 899.392 495.584 899.487 495.741C900.252 497.051 900.031 498.738 900.031 498.738C900.031 498.738 900.031 499.346 900.031 500.09C900.031 500.3 899.895 500.52 899.769 500.593C899.602 500.729 899.476 500.719 899.424 500.729C899.424 500.729 899.183 500.75 899.036 500.771C898.879 500.792 898.722 500.834 898.575 500.876C898.281 500.97 898.009 501.096 897.737 501.274L897.726 501.285Z" fill="#E9F2FE"/>
<path d="M900.577 476.041C900.818 476.419 903.155 476.419 903.406 476.041C903.752 475.507 903.941 474.952 903.951 474.229C903.847 473.411 903.354 473.212 903.406 472.657C903.406 471.724 904.056 470.152 904.213 469.764C904.234 469.712 904.245 469.649 904.234 469.597C904.15 469.199 903.794 467.428 903.962 465.919C903.962 464.85 903.951 464.179 903.951 463.833C903.93 463.016 903.7 462.408 903.249 461.8C903.008 461.475 900.975 461.475 900.724 461.8C900.284 462.398 900.043 463.016 900.022 463.833C900.022 464.148 899.456 464.818 899.361 465.751C899.341 465.908 899.382 466.055 899.477 466.212C900.242 467.511 900.022 469.209 900.022 469.209C900.022 469.209 900.022 471.735 900.011 472.803C900.011 473.61 900.011 473.998 900.022 474.229C900.043 474.952 900.221 475.507 900.567 476.041H900.577Z" fill="#E9F2FE"/>
<path d="M906.57 447.872C906.475 448.312 908.131 449.968 908.571 449.873C909.189 449.737 909.724 449.475 910.237 448.983C910.74 448.333 910.541 447.84 910.96 447.495C911.621 446.834 913.192 446.185 913.58 446.027C913.633 446.007 913.685 445.965 913.716 445.923C913.936 445.577 914.932 444.078 916.127 443.125C916.881 442.36 917.342 441.888 917.594 441.647C918.159 441.06 918.421 440.453 918.537 439.719C918.6 439.31 917.164 437.875 916.755 437.938C916.011 438.042 915.414 438.315 914.827 438.881C914.597 439.101 913.737 439.174 913.004 439.771C912.888 439.866 912.805 440.002 912.763 440.17C912.375 441.626 911.034 442.674 911.034 442.674C911.034 442.674 909.242 444.456 908.487 445.21C907.921 445.786 907.649 446.059 907.481 446.227C906.989 446.75 906.716 447.274 906.59 447.893L906.57 447.872Z" fill="#E9F2FE"/>
<path d="M927.444 426.998C927.35 427.438 929.006 429.094 929.446 428.999C930.064 428.863 930.599 428.601 931.112 428.109C931.615 427.459 931.416 426.966 931.835 426.621C932.495 425.96 934.067 425.311 934.455 425.153C934.507 425.132 934.56 425.091 934.591 425.049C934.811 424.703 935.807 423.204 937.001 422.251C937.756 421.486 938.217 421.014 938.468 420.773C939.034 420.186 939.296 419.579 939.411 418.845C939.474 418.436 938.039 417.001 937.63 417.064C936.886 417.168 936.289 417.441 935.702 418.007C935.471 418.227 934.612 418.3 933.879 418.897C933.763 418.992 933.679 419.128 933.637 419.296C933.25 420.752 931.908 421.8 931.908 421.8C931.908 421.8 930.117 423.582 929.362 424.336C928.796 424.912 928.524 425.185 928.356 425.353C927.863 425.877 927.591 426.4 927.465 427.019L927.444 426.998Z" fill="#E9F2FE"/>
<path d="M948.319 406.124C948.225 406.564 949.88 408.22 950.32 408.125C950.939 407.989 951.473 407.727 951.987 407.235C952.49 406.585 952.29 406.092 952.71 405.747C953.37 405.086 954.942 404.437 955.329 404.279C955.382 404.258 955.434 404.217 955.466 404.175C955.686 403.829 956.681 402.33 957.876 401.377C958.63 400.612 959.091 400.14 959.343 399.899C959.909 399.312 960.171 398.705 960.286 397.971C960.349 397.562 958.913 396.127 958.505 396.19C957.761 396.294 957.163 396.567 956.576 397.133C956.346 397.353 955.487 397.426 954.753 398.023C954.638 398.118 954.554 398.254 954.512 398.422C954.124 399.878 952.783 400.926 952.783 400.926C952.783 400.926 950.991 402.708 950.237 403.462C949.671 404.038 949.398 404.311 949.23 404.479C948.738 405.002 948.466 405.526 948.34 406.145L948.319 406.124Z" fill="#E9F2FE"/>
<path d="M550.97 275.323C550.446 276.193 552.101 277.848 552.971 277.324C554.208 276.58 555.371 275.679 556.712 274.359C558.148 272.776 558.179 272.053 559.238 271.068C560.967 269.339 564.341 266.877 565.158 266.29C565.221 266.248 565.274 266.195 565.326 266.153L565.598 265.871C565.598 265.871 565.598 265.871 565.619 265.85C565.955 265.462 566.573 264.676 566.762 263.46C566.961 262.266 566.594 260.641 565.305 259.499C564.959 259.174 564.603 258.839 564.226 258.493C563.88 258.158 563.524 257.812 563.157 257.466C562.434 256.764 561.711 256.02 561.04 255.297C559.049 253.317 557.812 252.09 557.173 251.451C555.643 249.942 554.344 248.978 552.919 248.182C552.133 247.742 550.697 249.177 551.137 249.963C551.934 251.388 552.898 252.688 554.407 254.218C554.994 254.805 555.821 256.429 557.488 258.231C557.76 258.525 558.064 258.776 558.41 258.996C559.143 259.468 559.887 260.023 560.589 260.6C560.935 260.882 561.271 261.176 561.595 261.459C561.889 261.721 562.161 261.972 562.423 262.213C562.601 262.339 562.664 262.549 562.643 262.674C562.633 262.811 562.58 262.874 562.58 262.874C562.549 262.957 562.486 263.031 562.423 263.094L556.576 268.93C555.088 270.419 554.375 271.142 553.935 271.582C552.615 272.923 551.714 274.097 550.97 275.323Z" fill="#CFE1FD"/>
<path d="M154.407 191.207C154.166 190.83 151.829 190.83 151.577 191.207C151.232 191.741 151.043 192.297 151.033 193.02C151.137 193.837 151.63 194.036 151.577 194.592C151.577 195.524 150.928 197.096 150.771 197.484C150.75 197.536 150.739 197.599 150.75 197.651C150.833 198.05 151.19 199.821 151.022 201.33C151.022 202.399 151.033 203.069 151.033 203.415C151.053 204.232 151.284 204.84 151.735 205.448C151.976 205.773 154.009 205.773 154.26 205.448C154.7 204.851 154.941 204.232 154.962 203.415C154.962 203.101 155.528 202.43 155.622 201.497C155.643 201.34 155.601 201.193 155.507 201.036C154.742 199.737 154.962 198.039 154.962 198.039C154.962 198.039 154.962 195.514 154.973 194.445C154.973 193.638 154.973 193.25 154.962 193.02C154.941 192.297 154.763 191.741 154.417 191.207H154.407Z" fill="#E9F2FE"/>
<path d="M154.407 220.737C154.166 220.36 151.829 220.36 151.577 220.737C151.232 221.271 151.043 221.827 151.033 222.55C151.137 223.367 151.63 223.566 151.577 224.122C151.577 225.054 150.928 226.626 150.771 227.014C150.75 227.066 150.739 227.129 150.75 227.182C150.792 227.381 150.907 227.926 150.98 228.607C151.022 228.942 151.053 229.319 151.064 229.707C151.064 229.906 151.064 230.084 151.064 230.294C151.064 230.525 151.053 230.745 151.043 230.965C151.116 232.222 151.295 232.977 151.378 233.375C151.598 234.308 152.07 234.936 152.72 235.387C153.086 235.649 154.952 234.821 155.067 234.454C155.277 233.784 155.35 233.218 155.214 232.537C155.161 232.264 155.591 231.614 155.643 230.87C155.643 230.745 155.612 230.629 155.518 230.504C155.13 229.98 154.994 229.141 154.952 228.575C154.91 227.989 154.962 227.569 154.962 227.569C154.962 227.569 154.962 225.044 154.973 223.975C154.973 223.168 154.973 222.78 154.962 222.55C154.941 221.827 154.763 221.271 154.417 220.737H154.407Z" fill="#E9F2FE"/>
<path d="M166.038 241.59C165.661 241.831 165.661 244.168 166.038 244.419C166.573 244.765 167.128 244.954 167.851 244.964C168.668 244.86 168.868 244.367 169.423 244.419C170.356 244.419 171.927 245.069 172.315 245.226C172.368 245.247 172.43 245.258 172.483 245.247C172.881 245.163 174.652 244.807 176.161 244.975C177.23 244.975 177.901 244.964 178.246 244.964C179.064 244.943 179.672 244.713 180.279 244.262C180.604 244.021 180.604 241.988 180.279 241.737C179.682 241.297 179.064 241.056 178.246 241.035C177.932 241.035 177.261 240.469 176.329 240.374C176.172 240.353 176.025 240.395 175.868 240.49C174.568 241.255 172.871 241.035 172.871 241.035C172.871 241.035 170.345 241.035 169.276 241.024C168.469 241.024 168.082 241.024 167.851 241.035C167.128 241.056 166.573 241.234 166.038 241.58V241.59Z" fill="#E9F2FE"/>
<path d="M195.568 241.59C195.191 241.831 195.191 244.168 195.568 244.419C196.103 244.765 196.658 244.954 197.381 244.964C198.198 244.86 198.397 244.367 198.953 244.419C199.886 244.419 201.457 245.069 201.845 245.226C201.898 245.247 201.96 245.258 202.013 245.247C202.411 245.163 204.182 244.807 205.691 244.975C206.76 244.975 207.431 244.964 207.776 244.964C208.594 244.943 209.201 244.713 209.809 244.262C210.134 244.021 210.134 241.988 209.809 241.737C209.212 241.297 208.594 241.056 207.776 241.035C207.462 241.035 206.791 240.469 205.859 240.374C205.701 240.353 205.555 240.395 205.398 240.49C204.098 241.255 202.401 241.035 202.401 241.035C202.401 241.035 199.875 241.035 198.806 241.024C197.999 241.024 197.612 241.024 197.381 241.035C196.658 241.056 196.103 241.234 195.568 241.58V241.59Z" fill="#E9F2FE"/>
<path d="M225.089 241.59C224.712 241.831 224.712 244.168 225.089 244.419C225.624 244.765 226.179 244.954 226.902 244.964C227.719 244.86 227.919 244.367 228.474 244.419C229.407 244.419 230.979 245.069 231.366 245.226C231.419 245.247 231.481 245.258 231.534 245.247C231.932 245.163 233.703 244.807 235.212 244.975C236.281 244.975 236.952 244.964 237.297 244.964C238.115 244.943 238.723 244.713 239.33 244.262C239.655 244.021 239.655 241.988 239.33 241.737C238.733 241.297 238.115 241.056 237.297 241.035C236.983 241.035 236.312 240.469 235.38 240.374C235.223 240.353 235.076 240.395 234.929 240.49C233.63 241.255 231.932 241.035 231.932 241.035C231.932 241.035 229.407 241.035 228.338 241.024C227.531 241.024 227.143 241.024 226.913 241.035C226.19 241.056 225.634 241.234 225.1 241.58L225.089 241.59Z" fill="#E9F2FE"/>
<path d="M254.608 241.59C254.231 241.831 254.231 244.168 254.608 244.419C255.143 244.765 255.698 244.954 256.421 244.964C257.239 244.86 257.438 244.367 257.993 244.419C258.926 244.419 260.498 245.069 260.885 245.226C260.938 245.247 261.001 245.258 261.053 245.247C261.451 245.163 263.222 244.807 264.731 244.975C265.8 244.975 266.471 244.964 266.817 244.964C267.634 244.943 268.242 244.713 268.85 244.262C269.174 244.021 269.174 241.988 268.85 241.737C268.252 241.297 267.634 241.056 266.817 241.035C266.502 241.035 265.832 240.469 264.899 240.374C264.742 240.353 264.595 240.395 264.438 240.49C263.138 241.255 261.441 241.035 261.441 241.035C261.441 241.035 258.915 241.035 257.846 241.024C257.04 241.024 256.652 241.024 256.421 241.035C255.698 241.056 255.143 241.234 254.608 241.58V241.59Z" fill="#E9F2FE"/>
<path d="M284.045 241.59C283.793 241.831 283.793 244.168 284.045 244.419C284.401 244.765 284.768 244.954 285.25 244.964C285.795 244.86 285.921 244.367 286.288 244.419C286.906 244.419 287.954 245.069 288.205 245.226C288.247 245.247 288.279 245.258 288.32 245.247C288.582 245.163 289.756 244.807 290.762 244.975C291.475 244.975 291.915 244.964 292.145 244.964C292.69 244.943 293.099 244.713 293.497 244.262C293.717 244.021 293.717 241.988 293.497 241.737C293.099 241.297 292.69 241.056 292.145 241.035C291.936 241.035 291.496 240.469 290.877 240.374C290.773 240.353 290.678 240.395 290.573 240.49C289.704 241.255 288.582 241.035 288.582 241.035C288.582 241.035 286.906 241.035 286.193 241.024C285.659 241.024 285.407 241.024 285.25 241.035C284.768 241.056 284.401 241.234 284.045 241.58V241.59Z" fill="#E9F2FE"/>
<path d="M286.214 228.47C285.344 227.947 283.689 229.602 284.213 230.472C284.957 231.709 285.858 232.872 287.178 234.213C288.761 235.649 289.484 235.68 290.469 236.739C292.198 238.468 294.66 241.842 295.247 242.659C295.289 242.722 295.342 242.775 295.383 242.827C295.446 242.9 295.404 242.848 295.425 242.858C295.425 242.806 295.666 242.816 295.593 243.026C295.31 243.33 295.006 243.655 294.702 243.99C294.367 244.336 294.021 244.703 293.675 245.059C292.973 245.782 292.229 246.505 291.496 247.176C289.515 249.167 288.289 250.403 287.65 251.043C286.141 252.573 285.177 253.872 284.38 255.297C283.94 256.083 285.376 257.519 286.162 257.079C287.587 256.282 288.886 255.318 290.416 253.809C291.003 253.222 292.627 252.394 294.43 250.728C294.723 250.456 294.975 250.152 295.195 249.806C295.666 249.062 296.222 248.329 296.798 247.626C297.081 247.281 297.375 246.945 297.657 246.62C297.804 246.463 297.94 246.306 298.077 246.159C298.244 245.981 298.401 245.814 298.559 245.656C299.512 244.724 299.785 243.56 299.764 242.785C299.764 242.387 299.69 242.083 299.648 241.873C299.586 241.664 299.554 241.548 299.554 241.548C299.554 241.548 299.502 241.381 299.355 241.098C299.219 240.815 298.967 240.427 298.548 240.029C298.066 239.536 297.395 238.866 296.662 238.132C295.247 236.718 293.581 235.051 292.596 234.056C291.108 232.568 290.385 231.855 289.945 231.415C288.603 230.095 287.43 229.194 286.204 228.45L286.214 228.47Z" fill="#E9F2FE"/>
<path d="M774.008 295.82C774.532 294.95 772.876 293.294 772.006 293.818C770.77 294.562 769.607 295.463 768.265 296.784C766.83 298.366 766.798 299.089 765.74 300.074C764.011 301.803 760.636 304.266 759.819 304.853C759.756 304.895 759.704 304.947 759.651 304.989C759.578 305.052 759.63 305.01 759.62 305.02C759.62 305.02 759.662 305.261 759.452 305.188C759.138 304.905 758.813 304.601 758.478 304.287C758.132 303.951 757.776 303.606 757.409 303.26C756.686 302.558 755.963 301.814 755.292 301.091C753.301 299.11 752.064 297.884 751.425 297.245C749.895 295.736 748.596 294.772 747.171 293.975C746.385 293.535 744.949 294.971 745.389 295.757C746.186 297.182 747.15 298.481 748.659 300.011C749.246 300.598 750.073 302.222 751.74 304.025C752.012 304.318 752.316 304.57 752.662 304.79C753.395 305.261 754.139 305.817 754.841 306.393C755.187 306.676 755.523 306.969 755.847 307.252C756.005 307.399 756.162 307.535 756.309 307.672C756.487 307.839 756.654 307.996 756.811 308.154C757.744 309.107 758.907 309.38 759.683 309.359C760.081 309.359 760.385 309.285 760.594 309.243C760.804 309.181 760.919 309.149 760.919 309.149C761.464 308.95 761.946 308.625 762.365 308.217L768.412 302.191C769.9 300.703 770.613 299.98 771.053 299.54C772.373 298.198 773.274 297.025 774.018 295.799L774.008 295.82Z" fill="#E9F2FE"/>
<path d="M329.535 549.678C329.776 550.055 332.113 550.055 332.364 549.678C332.71 549.143 332.899 548.588 332.909 547.865C332.804 547.047 332.312 546.848 332.364 546.293C332.364 546.062 332.406 545.79 332.469 545.497C332.501 545.35 332.542 545.214 332.574 545.067L332.637 544.847C332.658 544.773 332.679 544.69 332.7 544.7C332.878 544.585 333.087 544.658 333.171 544.7C333.192 544.711 333.203 544.721 333.192 544.7C333.171 544.69 333.129 544.669 333.087 544.585C333.025 544.522 333.004 544.449 333.035 544.407C333.056 544.386 333.087 544.375 333.119 544.375C333.182 544.375 333.087 544.386 333.486 544.417C334.554 544.417 335.225 544.407 335.571 544.407C336.388 544.386 336.996 544.155 337.604 543.705C337.929 543.464 337.929 541.431 337.604 541.179C337.007 540.739 336.388 540.498 335.571 540.477C335.257 540.477 334.586 539.911 333.653 539.817C333.496 539.796 333.349 539.838 333.192 539.932C331.536 540.435 329.996 540.508 329.001 540.508C329.001 541.116 328.969 541.452 328.969 541.452C328.969 541.452 328.969 544.941 328.959 546.419C328.959 547.226 328.959 547.613 328.969 547.844C328.99 548.567 329.168 549.122 329.514 549.657L329.535 549.678Z" fill="#E9F2FE"/>
<path d="M352.894 541.053C352.517 541.294 352.517 543.631 352.894 543.882C353.428 544.228 353.984 544.417 354.707 544.427C355.524 544.322 355.723 543.83 356.279 543.882C357.211 543.882 358.783 544.532 359.171 544.689C359.223 544.71 359.286 544.721 359.339 544.71C359.737 544.626 361.508 544.27 363.017 544.438C364.086 544.438 364.756 544.427 365.102 544.427C365.92 544.406 366.527 544.176 367.135 543.725C367.46 543.484 367.46 541.451 367.135 541.2C366.538 540.76 365.92 540.518 365.102 540.498C364.788 540.498 364.117 539.932 363.185 539.837C363.027 539.816 362.881 539.858 362.734 539.953C361.435 540.718 359.737 540.498 359.737 540.498C359.737 540.498 357.211 540.498 356.143 540.487C355.336 540.487 354.948 540.487 354.717 540.498C353.994 540.518 353.439 540.697 352.904 541.042L352.894 541.053Z" fill="#E9F2FE"/>
<path d="M382.424 541.053C382.047 541.294 382.047 543.631 382.424 543.882C382.958 544.228 383.514 544.417 384.237 544.427C385.054 544.322 385.253 543.83 385.809 543.882C386.741 543.882 388.313 544.532 388.701 544.689C388.753 544.71 388.816 544.721 388.868 544.71C389.267 544.626 391.038 544.27 392.547 544.438C393.616 544.438 394.286 544.427 394.632 544.427C395.449 544.406 396.057 544.176 396.665 543.725C396.99 543.484 396.99 541.451 396.665 541.2C396.068 540.76 395.449 540.518 394.632 540.498C394.318 540.498 393.647 539.932 392.714 539.837C392.557 539.816 392.41 539.858 392.253 539.953C390.954 540.718 389.256 540.498 389.256 540.498C389.256 540.498 386.731 540.498 385.662 540.487C384.855 540.487 384.467 540.487 384.237 540.498C383.514 540.518 382.958 540.697 382.424 541.042V541.053Z" fill="#E9F2FE"/>
<path d="M411.943 541.053C411.566 541.294 411.566 543.631 411.943 543.882C412.478 544.228 413.033 544.417 413.756 544.427C414.573 544.322 414.772 543.83 415.328 543.882C416.26 543.882 417.832 544.532 418.22 544.689C418.272 544.71 418.335 544.721 418.388 544.71C418.786 544.626 420.557 544.27 422.066 544.438C423.135 544.438 423.806 544.427 424.151 544.427C424.969 544.406 425.576 544.176 426.184 543.725C426.509 543.484 426.509 541.451 426.184 541.2C425.587 540.76 424.969 540.518 424.151 540.498C423.837 540.498 423.166 539.932 422.234 539.837C422.076 539.816 421.93 539.858 421.773 539.953C420.473 540.718 418.775 540.498 418.775 540.498C418.775 540.498 416.25 540.498 415.181 540.487C414.374 540.487 413.987 540.487 413.756 540.498C413.033 540.518 412.478 540.697 411.943 541.042V541.053Z" fill="#E9F2FE"/>
<path d="M441.328 541.053C441.128 541.294 441.128 543.631 441.328 543.882C441.6 544.228 441.893 544.417 442.271 544.427C442.69 544.322 442.795 543.83 443.088 543.882C443.57 543.882 444.387 544.532 444.587 544.689C444.618 544.71 444.649 544.721 444.67 544.71C444.88 544.626 445.792 544.27 446.578 544.438C447.133 544.438 447.479 544.427 447.657 544.427C448.087 544.406 448.401 544.176 448.715 543.725C448.883 543.484 448.883 541.451 448.715 541.2C448.401 540.76 448.087 540.518 447.657 540.498C447.489 540.498 447.143 539.932 446.661 539.837C446.578 539.816 446.504 539.858 446.42 539.953C445.739 540.718 444.87 540.498 444.87 540.498C444.87 540.498 443.56 540.498 443.004 540.487C442.585 540.487 442.386 540.487 442.26 540.498C441.883 540.518 441.6 540.697 441.317 541.042L441.328 541.053Z" fill="#E9F2FE"/>
<path d="M611.214 202.493C604.455 202.734 604.455 205.07 611.214 205.322C620.792 205.668 630.852 205.856 643.794 205.867C658.454 205.762 662.101 205.27 672.035 205.322C680.429 205.322 691.705 205.479 701.733 205.668H702.247C702.519 205.668 702.792 205.636 703.064 205.594C703.599 205.49 704.123 205.28 704.584 204.997C705.516 204.431 706.218 203.53 706.543 202.503C706.617 202.241 706.69 201.979 706.721 201.717C706.742 201.581 706.753 201.455 706.763 201.319V201.015C706.784 200.722 706.784 200.418 706.795 200.124C706.805 199.537 706.816 198.951 706.826 198.385C706.879 196.1 706.921 193.952 706.962 192.013C707.046 188.136 707.12 185.087 707.162 183.379C707.182 182.373 707.193 181.356 707.183 180.35C707.099 173.119 706.742 141.42 706.91 114.111C706.91 94.8296 706.9 82.8938 706.9 76.6587C706.879 61.9355 706.648 50.9429 706.197 40.1388C705.956 34.2076 703.924 34.2076 703.672 40.1388C703.232 50.9324 702.991 61.9355 702.97 76.6587C702.97 82.3804 702.404 94.2952 702.31 111.125C702.289 113.87 702.331 116.605 702.425 119.319C703.19 142.782 702.97 173.235 702.97 173.235C702.97 173.235 702.97 184.594 702.97 198.353C702.97 199.213 702.97 200.082 702.97 200.963V201.12V201.172C702.97 201.204 702.959 201.235 702.959 201.277C702.938 201.34 702.928 201.403 702.897 201.466C702.844 201.591 702.739 201.696 702.635 201.78C702.519 201.853 702.394 201.906 702.247 201.916H701.733H701.063C700.161 201.916 699.271 201.916 698.37 201.916C694.765 201.916 691.16 201.916 687.681 201.916C680.723 201.916 674.288 201.916 669.489 201.916C655.049 201.916 648.09 201.916 643.825 201.927C630.894 201.937 620.824 202.126 611.246 202.472L611.214 202.493Z" fill="#E9F2FE"/>
<path d="M690.019 46.5104C689.484 47.3906 691.13 49.0463 692.02 48.5119C693.278 47.7469 694.462 46.8143 695.845 45.4625C697.312 43.8382 697.354 43.1151 698.444 42.1091C699.324 41.2289 700.634 40.1495 701.818 39.2273C702.416 38.7663 702.982 38.3366 703.443 37.9908C703.673 37.8127 703.883 37.666 704.061 37.5297C704.218 37.4145 704.438 37.2363 704.396 37.3097C704.417 37.3306 704.417 37.3306 704.407 37.3201C704.407 37.2992 704.386 37.2887 704.407 37.2154C704.407 37.1734 704.428 37.142 704.47 37.1315C704.574 37.1839 704.365 36.9219 705.088 37.624C706.157 38.63 707.414 39.8561 708.535 41.0717C710.568 43.0942 711.836 44.3517 712.486 45.0118C714.048 46.5523 715.378 47.5373 716.835 48.3652C717.631 48.8158 719.067 47.3801 718.616 46.5837C717.789 45.1271 716.804 43.8067 715.263 42.2349C714.666 41.6271 713.807 39.9819 712.098 38.1375C711.826 37.8336 711.501 37.5716 711.155 37.3516C710.034 36.6285 708.902 35.7168 707.938 34.8471C707.812 34.7423 707.697 34.627 707.582 34.5222C707.435 34.3755 707.278 34.2393 707.131 34.103C706.754 33.7363 706.398 33.3905 706.073 33.0656C705.413 32.4054 704.847 31.8395 704.407 31.3994C703.788 32.0072 703.422 32.353 703.422 32.353C703.422 32.353 698.035 37.7288 695.761 40.0028C694.242 41.5328 693.508 42.2663 693.068 42.7169C691.716 44.0897 690.784 45.2843 690.019 46.5418V46.5104Z" fill="#E9F2FE"/>
<path d="M716.928 74.1018C717.809 74.6363 719.464 72.991 718.93 72.1003C718.165 70.8428 717.232 69.6587 715.88 68.2754C714.256 66.8083 713.533 66.7664 712.527 65.6766C711.647 64.7963 710.568 63.4864 709.645 62.3023C708.702 61.0553 707.864 59.9655 707.55 59.5463C707.35 59.3157 707.141 59.0957 706.921 58.8966C706.627 58.6241 706.135 58.1735 704.291 56.3711C703.955 56.7379 703.389 57.3561 702.656 58.1526C702.069 58.7813 701.346 59.5463 700.539 60.3951C699.533 61.464 698.307 62.7215 697.091 63.8427C695.069 65.8757 693.811 67.1437 693.151 67.7934C691.611 69.3548 690.626 70.6856 689.798 72.1422C689.347 72.9387 690.783 74.3743 691.579 73.9237C693.036 73.0958 694.356 72.1108 695.928 70.5704C696.536 69.973 698.181 69.1138 700.025 67.4057C700.329 67.1227 700.591 66.8083 700.811 66.4625C701.534 65.3413 702.446 64.2095 703.316 63.2454C703.421 63.1197 703.536 63.0044 703.641 62.8891L703.798 62.7215L703.85 62.6586C703.903 62.5957 703.955 62.5328 704.008 62.47C704.112 62.3547 704.207 62.2604 704.28 62.1975C704.374 62.3128 704.437 62.3861 704.437 62.3861C704.437 62.3861 708.629 66.5883 710.4 68.3593C711.93 69.8787 712.663 70.6123 713.114 71.0524C714.487 72.4042 715.681 73.3369 716.939 74.1018H716.928Z" fill="#E9F2FE"/>
<path d="M690.019 160.45C689.484 161.33 691.13 162.986 692.02 162.451C693.278 161.686 694.462 160.753 695.845 159.402C697.312 157.777 697.354 157.054 698.444 156.038C699.324 155.158 700.634 154.078 701.818 153.156C702.416 152.695 702.982 152.265 703.443 151.92C703.673 151.741 703.883 151.595 704.061 151.458C704.218 151.343 704.438 151.165 704.396 151.238C704.417 151.259 704.417 151.259 704.407 151.249C704.407 151.228 704.386 151.217 704.407 151.144C704.407 151.102 704.428 151.071 704.47 151.06C704.574 151.113 704.365 150.851 705.088 151.553C706.157 152.559 707.414 153.785 708.535 155C710.568 157.023 711.836 158.28 712.486 158.941C714.048 160.481 715.378 161.466 716.835 162.294C717.631 162.744 719.067 161.309 718.616 160.512C717.789 159.056 716.804 157.735 715.263 156.164C714.666 155.556 713.807 153.911 712.098 152.066C711.826 151.762 711.501 151.5 711.155 151.28C710.034 150.557 708.902 149.646 707.938 148.776C707.812 148.671 707.697 148.556 707.582 148.451C707.435 148.304 707.278 148.168 707.131 148.032C706.754 147.665 706.398 147.319 706.073 146.994C705.413 146.334 704.847 145.768 704.407 145.328C703.788 145.936 703.422 146.282 703.422 146.282C703.422 146.282 698.035 151.658 695.761 153.932C694.242 155.461 693.508 156.195 693.068 156.646C691.716 158.018 690.784 159.213 690.019 160.471V160.45Z" fill="#E9F2FE"/>
<path d="M139.421 335.138C139.044 335.379 139.044 337.716 139.421 337.967C139.956 338.313 140.511 338.502 141.234 338.512C142.051 338.407 142.25 337.915 142.806 337.967C143.739 337.967 145.31 338.617 145.698 338.774C145.751 338.795 145.813 338.806 145.866 338.795C146.264 338.711 148.035 338.355 149.544 338.523C150.613 338.523 151.284 338.512 151.629 338.512C152.447 338.491 153.055 338.261 153.662 337.81C153.987 337.569 153.987 335.536 153.662 335.285C153.065 334.844 152.447 334.603 151.629 334.582C151.315 334.582 150.644 334.017 149.712 333.922C149.554 333.901 149.408 333.943 149.261 334.038C147.962 334.803 146.264 334.582 146.264 334.582C146.264 334.582 143.739 334.582 142.67 334.572C141.863 334.572 141.475 334.572 141.245 334.582C140.521 334.603 139.966 334.782 139.432 335.127L139.421 335.138Z" fill="#E9F2FE"/>
<path d="M168.94 335.138C168.563 335.379 168.563 337.716 168.94 337.967C169.475 338.313 170.03 338.502 170.753 338.512C171.571 338.407 171.77 337.915 172.325 337.967C173.258 337.967 174.83 338.617 175.217 338.774C175.27 338.795 175.333 338.806 175.385 338.795C175.783 338.711 177.554 338.355 179.063 338.523C180.132 338.523 180.803 338.512 181.149 338.512C181.966 338.491 182.574 338.261 183.181 337.81C183.506 337.569 183.506 335.536 183.181 335.285C182.584 334.844 181.966 334.603 181.149 334.582C180.834 334.582 180.163 334.017 179.231 333.922C179.074 333.901 178.927 333.943 178.78 334.038C177.481 334.803 175.783 334.582 175.783 334.582C175.783 334.582 173.258 334.582 172.189 334.572C171.382 334.572 170.994 334.572 170.764 334.582C170.041 334.603 169.485 334.782 168.951 335.127L168.94 335.138Z" fill="#E9F2FE"/>
<path d="M198.47 335.138C198.093 335.379 198.093 337.716 198.47 337.967C199.005 338.313 199.56 338.502 200.283 338.512C201.1 338.407 201.3 337.915 201.855 337.967C202.788 337.967 204.359 338.617 204.747 338.774C204.8 338.795 204.862 338.806 204.915 338.795C205.313 338.711 207.084 338.355 208.593 338.523C209.662 338.523 210.333 338.512 210.678 338.512C211.496 338.491 212.104 338.261 212.711 337.81C213.036 337.569 213.036 335.536 212.711 335.285C212.114 334.844 211.496 334.603 210.678 334.582C210.364 334.582 209.693 334.017 208.761 333.922C208.604 333.901 208.457 333.943 208.3 334.038C207 334.803 205.303 334.582 205.303 334.582C205.303 334.582 202.777 334.582 201.708 334.572C200.901 334.572 200.514 334.572 200.283 334.582C199.56 334.603 199.005 334.782 198.47 335.127V335.138Z" fill="#E9F2FE"/>
<path d="M214.295 351.307C214.054 350.93 211.717 350.93 211.465 351.307C211.119 351.842 210.931 352.397 210.92 353.12C211.025 353.938 211.518 354.137 211.465 354.692C211.465 355.625 210.816 357.197 210.658 357.574C210.637 357.626 210.627 357.689 210.637 357.742C210.721 358.14 211.078 359.911 210.91 361.42C210.91 362.489 210.92 363.159 210.92 363.505C210.941 364.322 211.172 364.941 211.622 365.538C211.863 365.863 213.896 365.863 214.148 365.538C214.588 364.941 214.829 364.322 214.85 363.505C214.85 363.191 215.416 362.52 215.51 361.587C215.531 361.43 215.489 361.284 215.395 361.126C214.63 359.816 214.85 358.129 214.85 358.129C214.85 358.129 214.85 355.604 214.861 354.535C214.861 353.728 214.861 353.34 214.85 353.11C214.829 352.387 214.651 351.831 214.305 351.297L214.295 351.307Z" fill="#E9F2FE"/>
<path d="M214.295 380.826C214.054 380.449 211.717 380.449 211.465 380.826C211.119 381.36 210.931 381.916 210.92 382.639C211.025 383.456 211.518 383.655 211.465 384.211C211.465 385.143 210.816 386.715 210.658 387.092C210.637 387.145 210.627 387.208 210.637 387.26C210.721 387.658 211.078 389.429 210.91 390.938C210.91 392.007 210.92 392.678 210.92 393.024C210.941 393.841 211.172 394.449 211.622 395.057C211.863 395.381 213.896 395.381 214.148 395.057C214.588 394.459 214.829 393.841 214.85 393.024C214.85 392.709 215.416 392.039 215.51 391.106C215.531 390.949 215.489 390.802 215.395 390.645C214.63 389.345 214.85 387.648 214.85 387.648C214.85 387.648 214.85 385.122 214.861 384.053C214.861 383.247 214.861 382.859 214.85 382.628C214.829 381.905 214.651 381.35 214.305 380.815L214.295 380.826Z" fill="#E9F2FE"/>
<path d="M214.295 410.345C214.054 409.968 211.717 409.968 211.465 410.345C211.119 410.88 210.931 411.435 210.92 412.158C211.025 412.976 211.518 413.175 211.465 413.73C211.465 414.663 210.816 416.235 210.658 416.622C210.637 416.675 210.627 416.738 210.637 416.79C210.721 417.188 211.078 418.959 210.91 420.468C210.91 421.537 210.92 422.208 210.92 422.554C210.941 423.371 211.172 423.979 211.622 424.587C211.863 424.911 213.896 424.911 214.148 424.587C214.588 423.989 214.829 423.371 214.85 422.554C214.85 422.239 215.416 421.569 215.51 420.636C215.531 420.479 215.489 420.332 215.395 420.175C214.63 418.875 214.85 417.178 214.85 417.178C214.85 417.178 214.85 414.652 214.861 413.583C214.861 412.777 214.861 412.389 214.85 412.158C214.829 411.435 214.651 410.88 214.305 410.345H214.295Z" fill="#E9F2FE"/>
<path d="M214.295 439.855C214.054 439.499 211.717 439.499 211.465 439.855C211.119 440.358 210.931 440.882 210.92 441.553C211.025 442.318 211.518 442.506 211.465 443.02C211.465 443.89 210.816 445.367 210.658 445.723C210.637 445.776 210.627 445.828 210.637 445.881C210.721 446.258 211.078 447.903 210.91 449.328C210.91 450.334 210.92 450.953 210.92 451.277C210.941 452.042 211.172 452.619 211.622 453.174C211.863 453.478 213.896 453.478 214.148 453.174C214.588 452.608 214.829 452.042 214.85 451.277C214.85 450.984 215.416 450.355 215.51 449.485C215.531 449.339 215.489 449.203 215.395 449.056C214.63 447.83 214.85 446.247 214.85 446.247C214.85 446.247 214.85 443.879 214.861 442.884C214.861 442.129 214.861 441.773 214.85 441.542C214.829 440.872 214.651 440.348 214.305 439.845L214.295 439.855Z" fill="#E9F2FE"/>
<path d="M267.969 452.043C267.592 452.284 267.592 454.621 267.969 454.872C268.504 455.218 269.059 455.407 269.782 455.417C270.6 455.313 270.799 454.82 271.354 454.872C272.287 454.872 273.859 455.522 274.246 455.679C274.299 455.7 274.362 455.711 274.414 455.7C274.812 455.617 276.583 455.26 278.092 455.428C279.161 455.428 279.832 455.417 280.178 455.417C280.995 455.396 281.603 455.166 282.211 454.715C282.535 454.474 282.535 452.441 282.211 452.19C281.613 451.75 280.995 451.509 280.178 451.488C279.863 451.488 279.193 450.922 278.26 450.828C278.103 450.807 277.956 450.848 277.799 450.943C276.5 451.708 274.802 451.488 274.802 451.488C274.802 451.488 272.276 451.488 271.208 451.477C270.401 451.477 270.013 451.477 269.782 451.488C269.059 451.498 268.504 451.687 267.969 452.033V452.043Z" fill="#CFE1FD"/>
<path d="M297.489 452.043C297.111 452.284 297.111 454.621 297.489 454.872C298.023 455.218 298.578 455.407 299.302 455.417C300.119 455.313 300.318 454.82 300.873 454.872C301.806 454.872 303.378 455.522 303.755 455.679C303.808 455.7 303.87 455.711 303.923 455.7C304.321 455.617 306.092 455.26 307.601 455.428C308.67 455.428 309.341 455.417 309.686 455.417C310.504 455.396 311.112 455.166 311.719 454.715C312.044 454.474 312.044 452.441 311.719 452.19C311.122 451.75 310.504 451.509 309.686 451.488C309.372 451.488 308.701 450.922 307.769 450.828C307.611 450.807 307.465 450.848 307.308 450.943C306.008 451.708 304.311 451.488 304.311 451.488C304.311 451.488 301.785 451.488 300.716 451.477C299.909 451.477 299.522 451.477 299.291 451.488C298.568 451.498 298.013 451.687 297.478 452.033L297.489 452.043Z" fill="#CFE1FD"/>
<path d="M472.051 261.479C471.674 261.72 471.674 264.057 472.051 264.308C472.586 264.654 473.141 264.843 473.864 264.853C474.682 264.748 474.881 264.256 475.436 264.308C476.369 264.308 477.941 264.958 478.318 265.115C478.37 265.136 478.433 265.146 478.485 265.136C478.884 265.052 480.655 264.696 482.164 264.863C483.233 264.863 483.903 264.853 484.249 264.853C485.066 264.832 485.674 264.601 486.282 264.151C486.607 263.91 486.607 261.877 486.282 261.625C485.685 261.185 485.066 260.944 484.249 260.923C483.935 260.923 483.264 260.357 482.331 260.263C482.174 260.242 482.027 260.284 481.87 260.378C480.571 261.143 478.873 260.923 478.873 260.923C478.873 260.923 476.348 260.923 475.279 260.913C474.472 260.913 474.084 260.913 473.854 260.923C473.131 260.934 472.575 261.122 472.041 261.468L472.051 261.479Z" fill="#CFE1FD"/>
<path d="M501.581 261.479C501.204 261.72 501.204 264.057 501.581 264.308C502.116 264.654 502.671 264.843 503.394 264.853C504.212 264.748 504.411 264.256 504.966 264.308C505.899 264.308 507.471 264.958 507.858 265.115C507.911 265.136 507.974 265.146 508.026 265.136C508.424 265.052 510.195 264.696 511.704 264.863C512.773 264.863 513.444 264.853 513.79 264.853C514.607 264.832 515.215 264.601 515.822 264.151C516.147 263.91 516.147 261.877 515.822 261.625C515.225 261.185 514.607 260.944 513.79 260.923C513.475 260.923 512.804 260.357 511.872 260.263C511.715 260.242 511.568 260.284 511.421 260.378C510.122 261.143 508.424 260.923 508.424 260.923C508.424 260.923 505.899 260.923 504.83 260.913C504.023 260.913 503.635 260.913 503.405 260.923C502.682 260.934 502.126 261.122 501.592 261.468L501.581 261.479Z" fill="#CFE1FD"/>
<path d="M531.101 261.479C530.724 261.72 530.724 264.057 531.101 264.308C531.636 264.654 532.191 264.843 532.914 264.853C533.732 264.748 533.931 264.256 534.486 264.308C535.419 264.308 536.991 264.958 537.378 265.115C537.431 265.136 537.494 265.146 537.546 265.136C537.944 265.052 539.715 264.696 541.224 264.863C542.293 264.863 542.964 264.853 543.31 264.853C544.127 264.832 544.735 264.601 545.343 264.151C545.667 263.91 545.667 261.877 545.343 261.625C544.745 261.185 544.127 260.944 543.31 260.923C542.995 260.923 542.324 260.357 541.392 260.263C541.235 260.242 541.088 260.284 540.931 260.378C539.631 261.143 537.934 260.923 537.934 260.923C537.934 260.923 535.408 260.923 534.339 260.913C533.532 260.913 533.145 260.913 532.914 260.923C532.191 260.934 531.636 261.122 531.101 261.468V261.479Z" fill="#CFE1FD"/>
</g>
</g>
<defs>
<clipPath id="clip0_287_85629">
<rect width="975.455" height="560.887" fill="white"/>
</clipPath>
</defs>
</svg>
