<svg width="960" height="540" viewBox="0 0 960 540" fill="none" xmlns="http://www.w3.org/2000/svg">
<g clip-path="url(#clip0_287_67881)">
<path d="M955.019 336.82H904.359L926.709 408.48L955.019 336.82Z" fill="#6A9A23"/>
<path d="M333.173 319.54H333.023H290.883V319.92V346.29H359.773V277.41H333.613H333.173V319.54Z" fill="#6A9A23"/>
<path d="M196.848 36.9598C197.468 35.4598 198.178 34.0198 198.998 32.6598C200.718 29.7898 202.938 27.2298 205.778 25.0998C209.508 22.2698 213.768 20.6898 218.308 20.6998C222.158 20.6998 226.148 21.8198 230.208 23.9998C233.498 25.7698 236.858 28.2498 240.308 31.4398C241.628 28.6398 242.928 25.5498 244.188 22.1298L248.558 10.2898L289.778 25.4898L301.458 16.6798C298.898 12.4498 295.078 7.36977 290.178 0.879766C289.958 0.589766 289.728 0.299766 289.508 0.00976562H178.648C182.838 6.65977 186.148 13.6798 189.088 20.8598C191.898 26.9898 194.338 32.4198 196.848 36.9698V36.9598Z" fill="#6A9A23"/>
<path d="M685.55 285.12C685.55 269.52 684.51 254.95 682.97 241.78L682.51 238.67C680.77 252.64 679.57 268.28 679.57 285.11C679.57 301.94 680.75 317.35 682.47 331.24L683.26 325.9C684.64 313.41 685.55 299.72 685.55 285.11V285.12Z" fill="#6A9A23"/>
<path d="M699.461 173.43V173.47L699.381 173.66C699.321 173.83 699.231 174.08 699.121 174.4C698.901 175.05 698.581 176.01 698.191 177.25C697.401 179.74 696.301 183.37 695.041 188.02C692.531 197.31 689.391 210.63 686.841 226.86C686.771 227.33 686.651 228.02 686.531 228.71C686.481 228.99 686.441 229.27 686.391 229.54C688.771 245.72 690.551 264.53 690.551 285.12C690.551 305.71 688.861 323.55 686.571 339.44C686.591 339.75 686.611 340.08 686.631 340.42C686.691 341.43 686.751 342.51 686.801 343.08C686.811 343.24 686.831 343.36 686.831 343.38C691.571 373.57 698.361 393.7 699.341 396.51C699.401 396.68 699.441 396.79 699.451 396.81L700.391 399.22L691.541 402.28L744.611 420.59C746.911 413.94 753.461 393.62 758.691 364.33L758.641 364.61L758.691 364.34C762.601 342.35 765.761 315.33 765.761 285.13C765.761 254.93 762.601 227.95 758.691 205.92C753.491 176.63 746.911 156.31 744.611 149.66L691.541 167.97L700.391 171.02L699.451 173.43H699.461Z" fill="#6A9A23"/>
<path d="M609.98 540H673.23L670.01 526.3L609.98 540Z" fill="#6A9A23"/>
<path d="M170.86 401.88L165.36 398.95L102.98 433.3L108.2 436.4L170.86 401.88Z" fill="#6A9A23"/>
<path d="M232.509 434.81L173.719 475.36L173.859 475.45L281.269 540H302.889V472.39L232.509 434.81Z" fill="#6A9A23"/>
<path d="M83.8097 58.72L83.7597 58.82C87.4397 62.45 90.8997 65.11 94.1097 66.87C97.7197 68.86 100.97 69.73 103.92 69.73C105.62 69.73 107.23 69.44 108.81 68.88C110.39 68.32 111.93 67.47 113.45 66.32C115.65 64.66 117.35 62.75 118.75 60.53C119.97 58.59 120.94 56.39 121.75 53.93V53.91L122.12 52.82C122.31 52.2 122.49 51.55 122.66 50.89C119.39 46.42 115.59 43.09 110.47 41.2C100.23 37.42 90.4597 41.88 81.9297 56.73C82.1397 56.95 82.3497 57.19 82.5597 57.4L83.8197 58.7L83.8097 58.72Z" fill="#6A9A23"/>
<path d="M949.531 490.05H899.871L880.141 540H960.001V337.81L927.621 419.79L949.531 490.05Z" fill="#6A9A23"/>
<path d="M169.242 478.5L169.082 478.41L73.1016 540H271.562L169.242 478.5Z" fill="#6A9A23"/>
<path d="M146.303 100.37C140.313 92.1402 135.993 83.3002 132.163 74.4302C129.563 68.8002 127.293 63.7502 124.983 59.4302C124.393 60.7302 123.743 62.0002 122.993 63.1902C121.303 65.8802 119.163 68.2802 116.473 70.3102C114.603 71.7202 112.603 72.8302 110.503 73.5802C108.403 74.3302 106.193 74.7202 103.933 74.7202C99.9728 74.7202 95.8728 73.5402 91.7028 71.2402C88.3428 69.3902 84.9228 66.8002 81.4028 63.4602C80.0228 66.3502 78.6728 69.5602 77.3628 73.1202L75.0128 72.2602L77.3628 73.1302C76.8928 74.4002 76.5428 75.8502 76.1728 77.3902C75.8028 78.9302 75.4228 80.5802 74.8128 82.2302L73.9428 84.5802L32.2628 69.2102L20.3828 78.1702C23.2728 82.8802 27.0728 87.9402 31.6428 93.9902C45.3728 112.2 59.3628 125.31 73.1328 133.85C86.9128 142.38 100.463 146.35 113.483 146.35C128.523 146.35 142.963 141.05 156.343 130.98C160.723 127.68 164.513 124.31 167.813 120.88C158.703 114.93 151.793 107.92 146.303 100.38V100.37Z" fill="#6A9A23"/>
<path d="M429.11 479.64C428.21 469.19 432.49 459.65 442.19 450.48C444.38 448.41 446.81 446.42 449.44 444.49C446.79 446.42 444.35 448.42 442.16 450.49C432.45 459.65 428.17 469.17 429.07 479.61C429.57 485.37 431.56 491.53 435 497.92C436.69 501.06 438.53 503.87 440.5 506.34C438.55 503.88 436.72 501.09 435.05 497.98C431.61 491.57 429.61 485.4 429.11 479.64Z" fill="#6A9A23"/>
<path d="M847.51 90.04H749.8V51.35H657.84V110.37H598.82V51.35H657.84V0H452.73L471.96 34.92L447.71 80.33L496.85 78.26L543.42 76.3L546.16 141.38L412.09 147.02L402.57 164.84H322.3L401.21 33.55L379.68 0H295.79C300.63 6.44 304.39 11.52 306.93 16.13L307.97 18.03L295.36 27.54L295.46 27.58L293.04 29.41L307.13 34.61C305.72 40.74 303.27 47.37 300.3 55.44C275.14 123.67 232.41 144.56 188.38 128.32C183.02 126.35 178.23 124.11 173.9 121.67C173.78 121.8 173.67 121.93 173.56 122.06L170.74 125.2L170.7 125.09C167.38 128.45 163.63 131.75 159.37 134.96C145.3 145.58 129.75 151.35 113.5 151.34C99.45 151.34 84.95 147.03 70.52 138.09C56.08 129.14 41.69 115.58 27.67 96.99C22.5 90.13 18.18 84.42 14.94 78.76L13.85 76.85L29.03 65.4L14.38 60C15.53 54.59 17.97 47.95 21.21 39.17C26.9 23.69 33.59 10.68 41.02 0H0V183.95L126.38 210.91L112.21 277.34L112.32 277.38V277.44L130.64 284.13L103.4 358.81L0 321.09V540H33.7C34.37 514.05 35.17 477.72 34.46 477.01L103.12 439.19L96.67 435.36L92.91 433.13L165.32 393.25L307.89 469.39V540H371.02L398.36 534.3C398.36 534.3 398.34 534.27 398.33 534.26H398.35C395.53 530.38 392.92 526.24 390.54 521.81C383.83 509.33 379.87 496.59 378.78 483.94C376.53 457.89 386.48 433.63 407.53 413.78C415.83 405.96 425.75 398.92 437.01 392.86C447.82 387.05 458.82 382.82 469.69 380.28C497.79 373.73 523.49 378.85 544.02 395.08C554.01 402.98 562.47 413.3 569.18 425.78C575.8 438.1 579.71 450.73 580.78 463.31C581.78 475.03 580.32 486.39 576.51 497.14H576.54C576.54 497.14 576.53 497.17 576.52 497.18L659.11 479.98L651.67 448.33L716.19 490.39L688.08 540H807.16L847.16 447.57L848.69 444.04L807.25 311.14H893.72L900.17 331.81H959.98V200.81L953.18 217.79H909.58L908.58 220.29H905.73L884.35 273.68H801.24L913.67 17.53H955.4L955.84 16.53L956.5 15.03H959.08L960.01 12.92V0H847.52V90.04H847.51ZM364.77 351.29H285.88V319.53H218.84V364.16H174.21V319.53H218.84V205.36H333.01V272.4H364.77V351.29ZM531.55 310.21L494.72 337.47L469.68 305.06L444.63 337.47L407.43 310.21L431.74 278.9L396.01 267.11L410.74 225.12L446.1 236.91V201.92H492.88V236.91L528.61 225.12L543.34 267.11L507.24 278.9L531.55 310.21ZM763.62 365.21C757.31 400.56 749.08 423.03 748.48 424.63L747.63 426.92L679.98 403.57L621.48 423.76C620.92 422.27 612.7 399.93 606.46 364.77C602.53 342.62 599.35 315.5 599.35 285.12C599.35 254.74 602.53 227.58 606.46 205.47C612.74 170.31 620.92 147.97 621.48 146.48L679.99 166.67L747.64 143.33L748.49 145.61C749.09 147.21 757.35 169.69 763.63 205.04C767.58 227.31 770.78 254.57 770.78 285.12C770.78 315.67 767.58 342.97 763.63 365.21H763.62Z" fill="#6A9A23"/>
<path d="M540.96 136.6L539.4 99.6198L538.64 81.5098L465.48 84.5898L445.13 85.4398L414.98 141.9L540.96 136.6Z" fill="#6A9A23"/>
<path d="M861.213 492.55L849.473 454.89L812.633 540H874.763L893.503 492.55H861.213Z" fill="#6A9A23"/>
<path d="M227.843 28.3899C224.353 26.5199 221.193 25.6899 218.313 25.6899C216.613 25.6899 215.003 25.9699 213.423 26.5399C211.853 27.0999 210.303 27.9499 208.793 29.0899C206.473 30.8399 204.713 32.8599 203.283 35.2399C202.023 37.3299 201.033 39.7299 200.213 42.4199V42.4399L199.873 43.5399C199.703 44.1499 199.543 44.7899 199.383 45.4299C202.483 49.3599 206.063 52.3099 210.773 54.0399C221.173 57.8799 231.073 53.2599 239.703 37.8299C239.523 37.6499 239.343 37.4599 239.173 37.2799C235.133 33.1899 231.333 30.2699 227.843 28.3899Z" fill="#6A9A23"/>
<path d="M749.788 0H657.828V51.35H749.788V0Z" fill="#94C748"/>
<path d="M953.202 217.8L960.002 200.82V91.9502L909.602 217.8H953.202Z" fill="#94C748"/>
<path d="M960 15.0299V12.9199L959.07 15.0299H960Z" fill="#94C748"/>
<path d="M399.03 535.19C398.89 535.01 398.75 534.83 398.62 534.64C398.54 534.53 398.45 534.41 398.36 534.3L371.02 540H402.88C402.25 539.26 401.63 538.51 401.02 537.75C400.35 536.91 399.68 536.06 399.04 535.2L399.03 535.19Z" fill="#94C748"/>
<path d="M666.902 513.05L659.122 480H659.142V479.98L576.552 497.18C571.882 510.35 563.692 522.61 552.122 533.54C549.762 535.77 547.272 537.91 544.672 539.99H610.002L670.032 526.29L666.922 513.05H666.902Z" fill="#94C748"/>
<path d="M651.688 448.33L659.128 479.99L668.638 478L678.008 476.04L678.018 476.05H678.028L686.008 510L688.838 522L670.018 526.3V526.29L670.008 526.3L673.227 540H688.097L716.217 490.39L651.688 448.33Z" fill="#82B536"/>
<path d="M668.643 478L659.133 479.99V480L668.643 478Z" fill="#82B536"/>
<path d="M670.008 526.3L670.018 526.29L666.898 513.05L670.008 526.3Z" fill="#82B536"/>
<path d="M678.03 476.05H678.02L686.01 510L678.03 476.05Z" fill="#82B536"/>
<path d="M904.361 336.82H955.021L926.711 408.48L929.081 416.08L927.621 419.78V419.79L960.001 337.81V331.82H902.801L904.361 336.82Z" fill="#94C748"/>
<path d="M847.19 447.57L807.18 540H812.63L849.47 454.89L847.19 447.57Z" fill="#94C748"/>
<path d="M899.858 490.05L898.868 492.55H893.498L874.758 540H880.138L899.868 490.05H899.858Z" fill="#94C748"/>
<path d="M763.619 205.04C757.349 169.69 749.079 147.21 748.479 145.61L747.629 143.33L679.979 166.67L680.049 166.7L683.949 165.35L691.539 167.97L744.609 149.66C744.159 148.37 743.869 147.59 743.789 147.36L746.129 146.49L746.949 148.85L744.609 149.66C746.909 156.3 753.489 176.63 758.689 205.92C762.599 227.95 765.759 254.93 765.759 285.13C765.759 315.33 762.599 342.35 758.689 364.34L758.639 364.61L758.689 364.33C753.459 393.61 746.899 413.94 744.609 420.59L746.949 421.4L746.129 423.76L743.789 422.89C743.869 422.67 744.159 421.88 744.609 420.59L691.539 402.28L683.959 404.9L680.049 403.55L679.969 403.58L747.619 426.93L748.469 424.64C749.069 423.03 757.299 400.56 763.609 365.22C767.559 342.99 770.759 315.68 770.759 285.13C770.759 254.58 767.559 227.31 763.609 205.04H763.619Z" fill="#94C748"/>
<path d="M746.141 146.48L743.801 147.35C743.881 147.57 744.171 148.36 744.621 149.65L746.961 148.84L746.141 146.48Z" fill="#94C748"/>
<path d="M683.769 247.17L682.969 241.78C684.519 254.95 685.549 269.51 685.549 285.12C685.549 299.72 684.639 313.42 683.259 325.91L683.959 321.18L686.439 337.86C686.489 338.21 686.519 338.55 686.549 338.99C686.559 339.13 686.569 339.29 686.579 339.45C688.869 323.55 690.559 305.19 690.559 285.13C690.559 265.07 688.779 245.73 686.399 229.55C686.339 229.93 686.279 230.27 686.249 230.51L683.779 247.18L683.769 247.17Z" fill="#94C748"/>
<path d="M746.141 423.76L746.961 421.4L744.621 420.59C744.171 421.88 743.891 422.66 743.801 422.89L746.141 423.76Z" fill="#94C748"/>
<path d="M124.23 287.12L111.26 282.39L110.59 285.49L0 262.09V315.77L100.42 352.4L124.23 287.12Z" fill="#6A9A23"/>
<path d="M130.64 284.14L112.31 277.45L111.78 279.92L127.44 285.63L101.91 355.61L0 318.43V321.09L103.4 358.81L130.64 284.14Z" fill="#94C748"/>
<path d="M127.44 285.63L111.78 279.92L111.26 282.39L124.23 287.12L100.42 352.4L0 315.77V318.43L101.91 355.61L127.44 285.63Z" fill="#94C748"/>
<path d="M528.598 225.13L492.878 236.92V201.92H446.098V236.92L410.738 225.13L396.008 267.12L431.738 278.9L407.428 310.21L444.628 337.47L469.668 305.05L494.718 337.47L531.548 310.21L507.238 278.9L543.338 267.12L528.598 225.13Z" fill="#82B536"/>
<path d="M808.821 51.35H749.951H749.801V90.04H847.511V0H808.971V51.35H808.821Z" fill="#82B536"/>
<path d="M803.969 0H754.949V46.35H803.969V0Z" fill="#82B536"/>
<path d="M749.951 0H749.801V51.35H749.951V0Z" fill="#82B536"/>
<path d="M657.833 51.3501H598.812V110.37H657.833V51.3501Z" fill="#82B536"/>
<path d="M333.02 272.41V205.37H218.84V319.54H285.88V272.41H333.02Z" fill="#94C748"/>
<path d="M255.017 57.9501L254.917 58.0201L253.407 56.0201C252.347 54.6101 251.507 53.1501 250.707 51.7801C249.907 50.4101 249.157 49.1201 248.337 48.0401C245.347 44.0701 242.457 40.6801 239.687 37.8201C231.057 53.2501 221.157 57.8701 210.757 54.0301C206.047 52.2901 202.467 49.3401 199.367 45.4201C199.337 45.5401 199.307 45.6501 199.277 45.7701C198.347 49.6701 197.657 54.1001 196.957 59.0201C196.677 60.9801 196.397 63.0201 196.097 65.1301C195.267 72.3001 194.177 79.5501 192.277 86.7601C191.647 89.1701 190.917 91.5701 190.087 93.9701C189.617 95.3101 189.117 96.6401 188.577 97.9801C188.037 99.3101 187.457 100.64 186.837 101.97C186.547 102.58 186.257 103.2 185.947 103.81C185.647 104.42 185.337 105.02 185.017 105.63C184.347 106.9 183.637 108.17 182.877 109.42C182.617 109.85 182.357 110.27 182.087 110.7C181.687 111.33 181.277 111.97 180.857 112.6C180.087 113.76 179.277 114.91 178.427 116.05C177.727 116.99 176.997 117.93 176.237 118.86C175.477 119.79 174.687 120.72 173.867 121.65C178.197 124.09 182.987 126.32 188.347 128.3C232.377 144.54 275.107 123.65 300.267 55.4201C303.237 47.3501 305.687 40.7201 307.097 34.5901L293.007 29.3901L255.047 58.0101L254.987 57.9401L255.017 57.9501Z" fill="#94C748"/>
<path d="M14.3594 60L29.0094 65.4L30.2894 64.43L66.2894 37.28L66.3394 37.35L66.4394 37.28L74.0394 47.36C76.7594 50.96 79.3794 54.05 81.9194 56.73C90.4494 41.88 100.219 37.42 110.459 41.2C115.579 43.09 119.369 46.42 122.649 50.89C122.679 50.76 122.719 50.64 122.759 50.51C123.169 48.9 123.529 47.2 123.869 45.4C124.519 41.89 125.069 38.01 125.649 33.8C125.809 32.64 125.969 31.47 126.139 30.27C126.159 30.1 126.179 29.93 126.189 29.75C126.889 22.61 127.919 15.51 129.759 8.48998C130.389 6.08998 131.109 3.70998 131.939 1.32998C132.099 0.879981 132.259 0.42998 132.429 -0.0200195H41.0194C33.5794 10.66 26.8994 23.67 21.1894 39.15C17.9494 47.93 15.5094 54.56 14.3594 59.98V60Z" fill="#94C748"/>
<path d="M955.398 17.5303H913.668L801.258 273.69H884.368L905.748 220.3H866.418L955.398 17.5303Z" fill="#82B536"/>
<path d="M874.07 215.3H905.21L960 78.5003V20.0303H959.76L874.07 215.3Z" fill="#82B536"/>
<path d="M471.759 519.01C461.789 520.17 453.569 518.13 446.819 512.76C444.579 510.98 442.459 508.83 440.479 506.34C438.499 503.87 436.659 501.06 434.979 497.92C431.539 491.53 429.549 485.37 429.049 479.61C428.149 469.17 432.429 459.65 442.139 450.49C444.339 448.42 446.779 446.42 449.419 444.49C452.889 441.95 456.729 439.53 460.919 437.28C467.809 433.57 474.629 430.92 481.169 429.39C494.129 426.37 504.459 428.09 512.749 434.65C517.299 438.25 521.339 443.31 524.759 449.69C528.109 455.92 530.049 461.97 530.539 467.66C531.439 478.18 527.159 487.76 517.449 496.94C512.559 501.56 506.589 505.79 499.689 509.5C493.719 512.71 487.889 515.15 482.269 516.81L547.179 503.29L576.489 497.14C580.299 486.39 581.759 475.03 580.759 463.31C579.679 450.73 575.779 438.1 569.159 425.78C562.449 413.3 553.989 402.98 543.999 395.08C523.469 378.85 497.759 373.73 469.669 380.28C458.799 382.82 447.799 387.05 436.989 392.86C425.719 398.92 415.799 405.96 407.509 413.78C386.459 433.63 376.519 457.9 378.759 483.94C379.849 496.59 383.809 509.33 390.519 521.81C392.899 526.24 395.509 530.38 398.329 534.25L420.339 529.71L471.739 519L471.759 519.01Z" fill="#94C748"/>
<path d="M420.359 529.72L473.189 518.82C472.709 518.89 472.229 518.96 471.759 519.01L420.359 529.72Z" fill="#94C748"/>
<path d="M402.88 540C402.25 539.26 401.63 538.51 401.02 537.75C401.63 538.52 402.25 539.26 402.88 540Z" fill="#94C748"/>
<path d="M481.07 517.18L547.22 503.3L482.31 516.82C481.9 516.94 481.48 517.07 481.07 517.18Z" fill="#94C748"/>
<path d="M108.269 436.44L170.939 401.93L170.859 401.88L108.199 436.4L108.269 436.44Z" fill="#94C748"/>
<path d="M162.829 474.65L162.599 474.51L122.599 450.76L103.139 439.21H103.119L34.4592 477.01C35.1692 477.72 34.3592 514.05 33.6992 540H73.0992L169.079 478.41L162.829 474.65Z" fill="#94C748"/>
<path d="M173.641 475.31L173.721 475.36L232.511 434.81L232.421 434.76L173.641 475.31Z" fill="#82B536"/>
<path d="M165.16 470.22L169.77 472.99L173.64 475.31L232.42 434.76L170.94 401.93L108.27 436.44L165.15 470.21L165.16 470.22Z" fill="#82B536"/>
<path d="M897.289 331.82H900.19L893.74 311.15H807.27L848.71 444.04L897.289 331.82Z" fill="#94C748"/>
<path d="M949.527 490.05L927.617 419.79L899.867 490.05H949.527Z" fill="#94C748"/>
<path d="M899.869 490.05L927.619 419.79V419.78L899.859 490.05H899.869Z" fill="#94C748"/>
<path d="M668.309 396.82L668.329 396.77L668.399 396.58C668.459 396.41 668.549 396.16 668.659 395.84C668.879 395.19 669.199 394.23 669.589 392.99C670.379 390.5 671.479 386.87 672.739 382.22C675.249 372.93 678.389 359.61 680.939 343.38C681.039 342.73 681.139 342.06 681.239 341.4C681.239 341.36 681.239 341.33 681.239 341.3C681.299 340.3 681.359 339.22 681.419 338.48C681.439 338.26 681.459 338.08 681.489 337.87L682.469 331.26C680.749 317.36 679.569 301.84 679.569 285.13C679.569 268.42 680.769 252.66 682.509 238.69L681.299 230.51C681.219 229.96 681.199 229.44 681.189 228.9C681.189 228.73 681.189 228.57 681.179 228.4C681.099 227.89 681.029 227.37 680.949 226.86C676.209 196.67 669.419 176.54 668.439 173.73C668.379 173.55 668.329 173.43 668.329 173.42L667.399 171.02L679.999 166.67L621.489 146.48C620.929 147.97 612.749 170.31 606.469 205.47C602.539 227.58 599.359 254.74 599.359 285.12C599.359 315.5 602.539 342.62 606.469 364.77C612.709 399.93 620.929 422.27 621.489 423.76L679.989 403.57L667.399 399.23L668.329 396.83L668.309 396.82Z" fill="#94C748"/>
<path d="M668.313 173.42L668.453 173.37L667.543 171.02L680.063 166.7L679.993 166.67L667.383 171.02L668.313 173.42Z" fill="#94C748"/>
<path d="M667.541 399.22L668.441 396.88L668.311 396.83V396.82L667.391 399.22L679.981 403.57L680.061 403.54L667.541 399.22Z" fill="#94C748"/>
<path d="M668.359 396.851L668.352 396.87L668.483 396.919L668.49 396.9L668.359 396.851Z" fill="#94C748"/>
<path d="M668.312 396.82V396.83L668.323 396.81L668.312 396.82Z" fill="#94C748"/>
<path d="M681.09 226.86L681.12 227.03L681.09 226.87C676.35 196.68 669.56 176.55 668.58 173.73C668.52 173.55 668.48 173.44 668.47 173.42V173.39L668.32 173.44V173.42C668.32 173.42 668.36 173.54 668.42 173.73C669.41 176.54 676.2 196.67 680.93 226.87C681.01 227.37 681.09 227.89 681.16 228.4C681.16 228.05 681.14 227.7 681.13 227.42C681.12 227.15 681.1 226.92 681.08 226.86H681.09Z" fill="#94C748"/>
<path d="M668.453 173.39V173.37L668.312 173.42L668.323 173.44L668.453 173.39Z" fill="#94C748"/>
<path d="M668.45 173.39L668.32 173.44L668.45 173.39Z" fill="#94C748"/>
<path d="M668.45 396.86L668.47 396.82L668.49 396.77L668.56 396.58C668.62 396.41 668.71 396.16 668.82 395.84C669.04 395.19 669.36 394.23 669.75 392.99C670.54 390.5 671.64 386.87 672.9 382.22C675.41 372.93 678.55 359.61 681.1 343.38C681.1 343.35 681.14 343.03 681.17 342.65C681.2 342.29 681.22 341.85 681.25 341.39C681.15 342.05 681.05 342.72 680.95 343.38C678.4 359.61 675.27 372.93 672.75 382.22C671.49 386.86 670.39 390.5 669.6 392.99C669.2 394.23 668.89 395.19 668.67 395.84C668.56 396.17 668.47 396.41 668.41 396.58L668.34 396.77L668.32 396.82V396.81L668.45 396.86Z" fill="#94C748"/>
<path d="M112.21 277.34L126.38 210.91L0 183.95V236.35L110.28 276.64L112.21 277.34Z" fill="#94C748"/>
<path d="M322.301 164.85H402.571L412.091 147.03L380.391 148.36L377.761 85.77L377.651 83.28L447.711 80.33L471.961 34.92L452.731 0H379.681L401.211 33.56L322.301 164.85Z" fill="#94C748"/>
<path d="M333.17 277.41H333.02V319.54H333.17V277.41Z" fill="#82B536"/>
<path d="M333.013 277.41H290.883V319.54H333.013V277.41Z" fill="#82B536"/>
<path d="M218.841 319.54H174.211V364.17H218.841V319.54Z" fill="#82B536"/>
<path d="M81.3906 63.4702C84.9106 66.8002 88.3406 69.3902 91.6906 71.2502C95.8606 73.5502 99.9606 74.7302 103.921 74.7302C106.191 74.7302 108.391 74.3402 110.491 73.5902C112.591 72.8402 114.581 71.7302 116.461 70.3202C119.151 68.2902 121.291 65.8902 122.981 63.2002C123.731 62.0002 124.381 60.7402 124.971 59.4402C124.121 57.8402 123.261 56.3302 122.381 54.9502L121.751 53.9502C120.931 56.4102 119.961 58.6102 118.751 60.5502C117.351 62.7702 115.651 64.6802 113.451 66.3402C111.931 67.4902 110.391 68.3302 108.811 68.9002C107.231 69.4602 105.621 69.7502 103.921 69.7502C100.961 69.7502 97.7106 68.8802 94.1106 66.8902C90.9006 65.1202 87.4406 62.4602 83.7606 58.8402L82.9706 60.3402C82.4406 61.3402 81.9106 62.4002 81.3906 63.4902V63.4702Z" fill="#94C748"/>
<path d="M17.1016 77.5203L18.6116 79.5203L20.4016 78.1703C20.0116 77.5303 19.6316 76.9103 19.2816 76.2803L17.1116 77.5203H17.1016Z" fill="#94C748"/>
<path d="M173.551 122.05C173.671 121.92 173.781 121.79 173.891 121.66C173.771 121.79 173.661 121.92 173.551 122.05Z" fill="#94C748"/>
<path d="M304.729 17.3301L303.219 15.3301L301.449 16.6601C301.839 17.3001 302.199 17.9201 302.529 18.5301L304.719 17.3301H304.729Z" fill="#94C748"/>
<path d="M301.461 16.67L303.231 15.34L304.741 17.34L302.551 18.54C302.221 17.94 301.861 17.31 301.471 16.67L289.791 25.48L295.371 27.54L307.981 18.03L306.941 16.13C304.401 11.52 300.651 6.43 295.801 0H289.531C289.751 0.29 289.981 0.57 290.201 0.87C295.101 7.36 298.911 12.44 301.481 16.67H301.461Z" fill="#94C748"/>
<path d="M167.81 120.87C164.51 124.3 160.72 127.67 156.34 130.97C142.96 141.05 128.53 146.34 113.48 146.34C100.46 146.34 86.9203 142.37 73.1303 133.84C59.3503 125.31 45.3703 112.19 31.6403 93.9801C27.0803 87.9301 23.2803 82.8801 20.3803 78.1601L18.5903 79.5101L17.0803 77.5101L19.2503 76.2701C19.6103 76.8901 19.9803 77.5201 20.3703 78.1601L32.2503 69.2001L26.7803 67.1801L29.1003 65.4301L29.0003 65.3901L13.8203 76.8401L14.9103 78.7501C18.1503 84.4201 22.4603 90.1201 27.6403 96.9801C41.6603 115.57 56.0503 129.13 70.4903 138.08C84.9203 147.02 99.4203 151.34 113.47 151.33C129.71 151.33 145.27 145.57 159.34 134.95C163.6 131.74 167.35 128.44 170.67 125.08L169.6 122C168.99 121.62 168.39 121.24 167.8 120.86L167.81 120.87Z" fill="#94C748"/>
<path d="M200.22 42.4099C201.04 39.7199 202.03 37.3299 203.29 35.2299C204.72 32.8499 206.48 30.8299 208.8 29.0799C210.32 27.9399 211.86 27.0899 213.43 26.5299C215.01 25.9699 216.62 25.6799 218.32 25.6799C221.2 25.6799 224.36 26.5099 227.85 28.3799C231.34 30.2499 235.14 33.1799 239.18 37.2699C239.36 37.4499 239.53 37.6399 239.71 37.8199C239.73 37.7899 239.75 37.7499 239.76 37.7199C239.61 37.5699 239.46 37.4099 239.31 37.2599L238.03 35.9699L238.86 34.3599C239.34 33.4199 239.83 32.4399 240.3 31.4299C236.85 28.2399 233.49 25.7599 230.2 23.9899C226.15 21.8099 222.16 20.6899 218.3 20.6899C213.77 20.6899 209.51 22.2599 205.77 25.0899C202.93 27.2299 200.71 29.7799 198.99 32.6499C198.17 34.0199 197.47 35.4499 196.84 36.9499C197.72 38.5499 198.62 40.0399 199.54 41.4099L200.2 42.3999L200.22 42.4099Z" fill="#94C748"/>
<path d="M250.869 51.7902C250.069 50.4202 249.319 49.1302 248.499 48.0502C245.469 44.0402 242.559 40.6202 239.749 37.7402C239.729 37.7702 239.709 37.8102 239.699 37.8402C242.469 40.7002 245.359 44.0902 248.349 48.0602C249.169 49.1402 249.919 50.4302 250.719 51.8002C251.519 53.1702 252.359 54.6302 253.419 56.0402L254.929 58.0402L255.029 57.9702L253.579 56.0502C252.519 54.6402 251.679 53.1802 250.879 51.8102L250.869 51.7902Z" fill="#94C748"/>
<path d="M196.109 65.15C196.409 63.04 196.689 61 196.969 59.04C196.689 61 196.409 63.03 196.109 65.14C196.109 65.14 196.109 65.14 196.109 65.15Z" fill="#94C748"/>
<path d="M196.109 65.1599C195.279 72.3299 194.189 79.5699 192.289 86.7799C194.189 79.5699 195.279 72.3199 196.109 65.1499C196.109 65.1499 196.109 65.1499 196.109 65.1599Z" fill="#94C748"/>
<path d="M66.3478 37.36L66.2878 37.29L30.2978 64.43L29.0078 65.4L29.1078 65.44L66.3478 37.36Z" fill="#94C748"/>
<path d="M173.891 121.66C174.711 120.74 175.501 119.81 176.261 118.87C175.501 119.8 174.711 120.73 173.891 121.66Z" fill="#94C748"/>
<path d="M135.548 6.38C135.208 7.51 134.887 8.65 134.587 9.79C134.287 10.93 134.017 12.08 133.757 13.23C133.247 15.53 132.807 17.85 132.427 20.19C132.057 22.53 131.737 24.89 131.467 27.26C131.337 28.45 131.208 29.64 131.098 30.84V30.89L131.087 30.94C129.907 39.4 129.008 46.79 127.188 53.24C130.487 58.68 133.337 65.11 136.697 72.36V72.38L136.727 72.42C140.497 81.16 144.677 89.66 150.337 97.44C155.667 104.75 162.288 111.43 171.208 117.14C175.048 112.64 178.107 108.05 180.587 103.38C181.137 102.34 181.657 101.3 182.147 100.26C183.377 97.65 184.447 95.01 185.367 92.36C185.757 91.23 186.127 90.09 186.477 88.95C186.827 87.81 187.147 86.67 187.447 85.52C187.677 84.66 187.888 83.8 188.098 82.93C189.528 76.88 190.437 70.74 191.147 64.55V64.52V64.48C191.597 61.31 192.007 58.29 192.427 55.41C192.857 52.53 193.308 49.79 193.848 47.18C194.028 46.31 194.217 45.46 194.417 44.62C194.527 44.15 194.657 43.7 194.777 43.24C191.147 37.57 188.127 30.71 184.527 22.9L184.507 22.85L184.488 22.8C181.208 14.75 177.507 7.07 172.677 0H137.777C137.377 1 137.008 2 136.658 3C136.268 4.12 135.897 5.25 135.557 6.38H135.548Z" fill="#82B536"/>
<path d="M192.438 55.3999C192.868 52.5199 193.317 49.7799 193.857 47.1699C193.317 49.7699 192.868 52.5099 192.438 55.3999Z" fill="#82B536"/>
<path d="M131.087 30.93V30.88L131.098 30.83V30.88L131.087 30.93C129.907 39.39 129.008 46.78 127.188 53.23C128.997 46.78 129.907 39.39 131.087 30.93Z" fill="#82B536"/>
<path d="M185.368 92.3402C184.438 95.0002 183.378 97.6302 182.148 100.24C183.378 97.6302 184.448 94.9902 185.368 92.3402Z" fill="#82B536"/>
<path d="M136.651 3C137.001 2 137.381 1 137.771 0C137.371 1 137.001 2 136.651 3Z" fill="#82B536"/>
<path d="M152.1 103.72C149.95 101.18 148 98.5599 146.21 95.8699C145.19 94.3399 144.22 92.7799 143.29 91.2099C142.05 89.1199 140.89 86.9899 139.79 84.8399C137.86 81.0799 136.11 77.2499 134.45 73.3999L132.18 74.4499C132.18 74.4499 132.18 74.4399 132.18 74.4299C136.01 83.2999 140.33 92.1399 146.32 100.37C151.81 107.91 158.71 114.91 167.83 120.87C168.42 120.25 169 119.64 169.56 119.02C162.51 114.47 156.84 109.3 152.12 103.72H152.1Z" fill="#6A9A23"/>
<path d="M132.163 74.4299C132.163 74.4299 132.163 74.4399 132.163 74.4499L134.433 73.3999L132.133 74.3899C132.133 74.3999 132.143 74.4199 132.153 74.4299H132.163Z" fill="#6A9A23"/>
<path d="M179.949 7.12977C180.589 8.31977 181.219 9.51976 181.819 10.7298C183.629 14.3598 185.269 18.0798 186.809 21.8598L189.079 20.8198C189.079 20.8198 189.089 20.8398 189.099 20.8598C186.169 13.6798 182.859 6.65977 178.659 0.00976562H175.699C176.229 0.819766 176.749 1.62977 177.249 2.44977C178.189 3.98977 179.089 5.55977 179.949 7.13977V7.12977Z" fill="#6A9A23"/>
<path d="M124.98 59.4302C127.29 63.7502 129.56 68.8002 132.16 74.4302C132.16 74.4202 132.15 74.4002 132.14 74.3902L134.44 73.4002C134.09 72.6402 133.75 71.9102 133.41 71.1702C130.88 65.6702 128.6 60.7202 126.19 56.4502C125.83 57.4702 125.42 58.4702 124.98 59.4302Z" fill="#6A9A23"/>
<path d="M122.11 52.8601C122.11 52.8601 122.11 52.8401 122.11 52.8301L121.73 53.9201V53.9401C121.86 53.5801 121.99 53.2301 122.1 52.8601H122.11Z" fill="#6A9A23"/>
<path d="M200.233 42.4302V42.4102C200.103 42.7702 199.993 43.1302 199.883 43.5002C199.883 43.5102 199.883 43.5202 199.883 43.5302L200.243 42.4302H200.233Z" fill="#6A9A23"/>
<path d="M189.091 20.8501C189.091 20.8501 189.081 20.8301 189.071 20.8101L186.801 21.8501L189.111 20.9001C189.111 20.9001 189.091 20.8601 189.081 20.8401L189.091 20.8501Z" fill="#6A9A23"/>
<path d="M196.853 36.9601C194.343 32.4101 191.902 26.9801 189.092 20.8501C189.092 20.8701 189.112 20.8901 189.122 20.9101L186.812 21.8601C190.013 28.8101 192.732 34.9301 195.732 40.0201C196.072 38.9801 196.453 37.9601 196.863 36.9701L196.853 36.9601Z" fill="#6A9A23"/>
<path d="M170.72 125.2L173.54 122.06C172.63 123.08 171.67 124.09 170.68 125.09L170.72 125.2Z" fill="#6A9A23"/>
<path d="M129.758 8.50023C130.388 6.10023 131.108 3.72023 131.938 1.34023C131.108 3.71023 130.388 6.10023 129.758 8.50023Z" fill="#6A9A23"/>
<path d="M123.867 45.4101C124.517 41.9001 125.067 38.0201 125.647 33.8101C125.067 38.0101 124.527 41.9001 123.867 45.4101Z" fill="#6A9A23"/>
<path d="M199.88 43.5001L197.48 42.8301L199.88 43.5001Z" fill="#6A9A23"/>
<path d="M173.889 121.66C173.139 121.24 172.409 120.81 171.689 120.38L171.679 120.37L170.389 122.5C170.129 122.34 169.869 122.18 169.609 122.02L170.679 125.1C171.669 124.09 172.629 123.08 173.539 122.07C173.659 121.93 173.769 121.8 173.879 121.67L173.889 121.66Z" fill="#6A9A23"/>
<path d="M124.982 59.4301C125.422 58.4601 125.822 57.4701 126.192 56.4501C126.102 56.2901 126.012 56.1301 125.922 55.9701C125.872 55.8801 125.812 55.7801 125.762 55.6901C125.452 55.1601 125.142 54.6501 124.822 54.1401C124.712 53.9601 124.602 53.7701 124.492 53.6001L122.102 52.8701C121.992 53.2401 121.862 53.5901 121.742 53.9501L122.372 54.9501C123.252 56.3401 124.112 57.8501 124.962 59.4401L124.982 59.4301Z" fill="#6A9A23"/>
<path d="M169.32 121.18L171.67 120.36L171.63 120.32C170.92 119.89 170.23 119.46 169.55 119.02C168.99 119.64 168.41 120.26 167.82 120.87C168.41 121.26 169.01 121.64 169.62 122.01L169.34 121.2V121.18H169.32Z" fill="#6A9A23"/>
<path d="M169.32 121.18V121.2L169.61 122.01C169.87 122.17 170.12 122.33 170.39 122.49L171.68 120.36L169.33 121.17L169.32 121.18Z" fill="#6A9A23"/>
<path d="M199.85 43.5901L197.48 42.8301C198.09 43.7501 198.73 44.6001 199.38 45.4301C199.54 44.7901 199.7 44.1501 199.87 43.5401L199.85 43.5901Z" fill="#6A9A23"/>
<path d="M197.48 42.82L199.88 43.5C199.99 43.12 200.1 42.77 200.22 42.41L199.56 41.42C198.64 40.05 197.75 38.56 196.86 36.96C196.45 37.95 196.08 38.97 195.73 40.01C196.3 40.98 196.88 41.92 197.48 42.82Z" fill="#6A9A23"/>
<path d="M122.137 52.7799L124.497 53.5899C123.897 52.6399 123.287 51.7599 122.657 50.8999C122.487 51.5599 122.307 52.2099 122.117 52.8299L122.137 52.7799Z" fill="#6A9A23"/>
<path d="M171.677 120.36C171.677 120.36 171.637 120.34 171.617 120.33L171.657 120.37H171.667L171.677 120.36Z" fill="#6A9A23"/>
<path d="M197.479 42.8301L199.849 43.6001L199.869 43.5401C199.869 43.5301 199.869 43.5201 199.869 43.5101L197.469 42.8301H197.479Z" fill="#6A9A23"/>
<path d="M124.497 53.59L122.137 52.77L122.117 52.83C122.117 52.84 122.117 52.85 122.117 52.86L124.507 53.59H124.497Z" fill="#6A9A23"/>
<path d="M171.672 120.36V120.37L171.682 120.36H171.672Z" fill="#6A9A23"/>
<path d="M171.672 120.37L171.692 120.38L171.682 120.36L171.672 120.37Z" fill="#6A9A23"/>
<path d="M124.5 53.5998C124.61 53.7798 124.72 53.9598 124.83 54.1398C124.72 53.9598 124.62 53.7798 124.51 53.5998V53.5898L124.5 53.5998Z" fill="#6A9A23"/>
<path d="M197.481 42.8301C195.741 49.0101 194.841 56.3601 193.641 64.8301L196.121 65.1201C196.121 65.1201 196.121 65.1401 196.121 65.1501C196.421 63.0401 196.701 61.0001 196.981 59.0501C197.681 54.1301 198.371 49.7001 199.301 45.8001C199.331 45.6801 199.361 45.5701 199.391 45.4501C198.741 44.6201 198.101 43.7701 197.491 42.8601L197.481 42.8301Z" fill="#6A9A23"/>
<path d="M126.141 30.2402C126.141 30.2402 126.141 30.2702 126.141 30.2802C126.141 30.3002 126.141 30.3202 126.141 30.3502L128.631 30.5902L126.161 30.2502L126.141 30.2402Z" fill="#6A9A23"/>
<path d="M124.503 53.5903C126.443 47.2203 127.373 39.5403 128.613 30.5903L126.123 30.3503C126.123 30.3503 126.123 30.3103 126.123 30.2803C125.953 31.4903 125.793 32.6603 125.633 33.8103C125.053 38.0203 124.513 41.9003 123.853 45.4103C123.523 47.2103 123.153 48.9103 122.743 50.5203C122.713 50.6503 122.673 50.7703 122.633 50.9003C123.263 51.7603 123.883 52.6403 124.473 53.5803L124.503 53.5903Z" fill="#6A9A23"/>
<path d="M129.761 8.50023C127.921 15.5202 126.891 22.6202 126.191 29.7602C126.171 29.9302 126.151 30.1002 126.141 30.2802C126.141 30.2702 126.141 30.2502 126.141 30.2402L128.621 30.5802C129.611 20.1502 131.311 9.92023 135.101 -0.00976562H132.431C132.261 0.440234 132.101 0.890234 131.941 1.34023C131.111 3.71023 130.391 6.10023 129.761 8.50023Z" fill="#6A9A23"/>
<path d="M174.037 119.54L173.738 118.69L173.357 118.46C172.817 119.1 172.257 119.75 171.688 120.39L174.048 119.57V119.55L174.037 119.54Z" fill="#6A9A23"/>
<path d="M126.143 30.2402L128.613 30.5802L126.133 30.2402C126.133 30.2502 126.133 30.2702 126.133 30.2802C126.133 30.2802 126.133 30.2502 126.133 30.2402H126.143Z" fill="#6A9A23"/>
<path d="M196.107 65.1698L193.628 64.8198C191.518 83.1298 187.697 101.48 173.357 118.45L173.738 118.68L174.037 119.53V119.55L171.688 120.37C172.408 120.8 173.147 121.23 173.887 121.65C174.707 120.73 175.497 119.8 176.257 118.86C177.017 117.93 177.747 116.99 178.447 116.05C179.297 114.91 180.108 113.76 180.878 112.6C181.298 111.97 181.707 111.34 182.107 110.7C182.377 110.27 182.637 109.85 182.897 109.42C183.657 108.16 184.367 106.9 185.037 105.63C185.357 105.03 185.667 104.42 185.967 103.81C186.267 103.2 186.567 102.58 186.857 101.97C187.477 100.64 188.058 99.3098 188.598 97.9798C189.138 96.6498 189.637 95.3098 190.107 93.9698C190.937 91.5698 191.668 89.1698 192.298 86.7598C194.198 79.5498 195.287 72.3098 196.117 65.1398C196.117 65.1398 196.117 65.1398 196.117 65.1498L196.107 65.1698Z" fill="#6A9A23"/>
<path d="M196.123 65.1098L193.633 64.8198H193.643L196.123 65.1098Z" fill="#6A9A23"/>
<path d="M196.111 65.1698C196.111 65.1698 196.111 65.1598 196.111 65.1498C196.111 65.1498 196.111 65.1198 196.111 65.1098L193.641 64.8198L196.111 65.1698Z" fill="#6A9A23"/>
<path d="M193.643 64.8198H193.633L196.113 65.1698L193.643 64.8198Z" fill="#6A9A23"/>
<path d="M197.479 42.8298V42.8198L197.469 42.8298H197.479Z" fill="#6A9A23"/>
<path d="M169.542 119.02C162.492 114.47 156.822 109.3 152.102 103.72C156.822 109.3 162.502 114.47 169.542 119.02Z" fill="#6A9A23"/>
<path d="M186.803 21.8497C190.003 28.7997 192.723 34.9197 195.723 40.0097C192.723 34.9297 189.993 28.8097 186.803 21.8497Z" fill="#6A9A23"/>
<path d="M195.098 42.04L195.078 42.1V42.15C195.078 42.15 195.078 42.08 195.098 42.05V42.04Z" fill="#6A9A23"/>
<path d="M126.89 54.32L126.87 54.37V54.41L126.85 54.42C126.64 55.11 126.41 55.78 126.18 56.45C128.59 60.72 130.87 65.67 133.4 71.17C133.74 71.91 134.08 72.64 134.43 73.4C136.09 77.25 137.84 81.08 139.77 84.84C140.87 86.99 142.04 89.11 143.27 91.21C144.2 92.78 145.17 94.33 146.19 95.87C147.98 98.56 149.94 101.18 152.08 103.72C156.8 109.3 162.48 114.47 169.52 119.02C169.61 118.92 169.71 118.81 169.81 118.71C170.28 118.18 170.75 117.65 171.2 117.13C162.28 111.43 155.65 104.74 150.33 97.43C144.66 89.65 140.49 81.14 136.72 72.41L136.7 72.37V72.35C133.34 65.11 130.49 58.67 127.18 53.23C127.08 53.59 126.99 53.96 126.88 54.32H126.89Z" fill="#6A9A23"/>
<path d="M184.512 22.85L184.532 22.9C188.132 30.71 191.152 37.57 194.782 43.24C194.872 42.88 194.962 42.51 195.062 42.15V42.1L195.092 42.05C195.292 41.36 195.502 40.69 195.722 40.02C192.722 34.94 189.992 28.82 186.802 21.86C185.262 18.08 183.622 14.36 181.812 10.73C181.212 9.52 180.592 8.32 179.942 7.13C179.082 5.55 178.182 3.98 177.242 2.44C176.742 1.62 176.222 0.81 175.692 0H172.672C177.492 7.07 181.192 14.75 184.482 22.8L184.502 22.85H184.512Z" fill="#6A9A23"/>
<path d="M191.149 64.5099V64.4699C191.599 61.2999 192.009 58.2799 192.439 55.3999C192.009 58.2799 191.599 61.2999 191.159 64.4699V64.5099H191.149Z" fill="#6A9A23"/>
<path d="M126.859 54.4098V54.3698L126.889 54.3198C126.879 54.3598 126.869 54.3898 126.859 54.4198V54.4098Z" fill="#6A9A23"/>
<path d="M171.693 120.36C171.693 120.36 171.643 120.34 171.633 120.32C171.633 120.32 171.673 120.34 171.693 120.36Z" fill="#6A9A23"/>
<path d="M171.619 120.32C170.909 119.89 170.219 119.46 169.539 119.02C170.219 119.46 170.909 119.9 171.619 120.32Z" fill="#6A9A23"/>
<path d="M197.48 42.8198C196.88 41.9298 196.3 40.9798 195.73 40.0098C196.3 40.9798 196.88 41.9198 197.48 42.8198Z" fill="#6A9A23"/>
<path d="M197.461 42.8201L195.061 42.1401C194.961 42.5001 194.871 42.8701 194.781 43.2301C194.991 43.5501 195.191 43.8901 195.401 44.2001L197.461 42.8101V42.8201Z" fill="#6A9A23"/>
<path d="M197.48 42.8198L195.1 42.0498C195.09 42.0898 195.08 42.1198 195.07 42.1498L197.47 42.8298H197.48V42.8198Z" fill="#6A9A23"/>
<path d="M197.46 42.8199L195.07 42.1499L197.46 42.8199Z" fill="#6A9A23"/>
<path d="M125.76 55.6798C125.81 55.7698 125.87 55.8698 125.92 55.9598C126.01 56.1198 126.1 56.2798 126.19 56.4398C126.43 55.7798 126.65 55.0998 126.86 54.4098L124.5 53.5898C124.61 53.7598 124.72 53.9498 124.82 54.1298C125.13 54.6398 125.45 55.1498 125.76 55.6798Z" fill="#6A9A23"/>
<path d="M128.618 30.5902C127.378 39.5402 126.448 47.2202 124.508 53.5902L126.618 52.2602C126.818 52.5702 127.008 52.9102 127.198 53.2302C129.008 46.7802 129.918 39.3902 131.098 30.9302V30.8802L131.108 30.8302C131.218 29.6302 131.348 28.4402 131.478 27.2502C131.748 24.8802 132.058 22.5202 132.438 20.1802C132.808 17.8402 133.248 15.5202 133.768 13.2202C134.028 12.0702 134.298 10.9202 134.598 9.78023C134.898 8.64023 135.218 7.50023 135.558 6.37023C135.898 5.24023 136.268 4.11023 136.658 2.99023C137.008 1.99023 137.388 0.990234 137.778 -0.00976562H135.098C131.308 9.91023 129.608 20.1502 128.618 30.5802V30.5902Z" fill="#6A9A23"/>
<path d="M195.732 40.0098C195.512 40.6798 195.302 41.3498 195.102 42.0398L197.482 42.8098C196.882 41.9198 196.302 40.9698 195.732 40.0098Z" fill="#6A9A23"/>
<path d="M126.89 54.3198C127 53.9598 127.09 53.5898 127.19 53.2298C126.99 52.9098 126.8 52.5798 126.61 52.2598L124.5 53.5998L126.86 54.4198C126.86 54.4198 126.88 54.3498 126.89 54.3198Z" fill="#6A9A23"/>
<path d="M126.891 54.32C127.001 53.97 127.091 53.6 127.191 53.23C127.091 53.59 127.001 53.96 126.891 54.32Z" fill="#6A9A23"/>
<path d="M197.481 42.8198H197.461L197.471 42.8298L197.481 42.8198Z" fill="#6A9A23"/>
<path d="M169.539 119.02C170.219 119.46 170.909 119.9 171.619 120.32L169.829 118.71C170.299 118.18 170.769 117.65 171.219 117.13C170.769 117.66 170.309 118.19 169.829 118.71C169.739 118.81 169.639 118.92 169.539 119.02Z" fill="#6A9A23"/>
<path d="M173.359 118.45C187.699 101.48 191.519 83.1298 193.629 64.8198C194.829 56.3498 195.729 48.9998 197.469 42.8198L195.409 44.1998C195.199 43.8898 194.999 43.5498 194.789 43.2298C194.669 43.6898 194.539 44.1398 194.429 44.6098C194.229 45.4498 194.039 46.2998 193.859 47.1698C193.319 49.7698 192.869 52.5098 192.439 55.3998C192.009 58.2798 191.599 61.2998 191.159 64.4698V64.5098V64.5398C190.449 70.7198 189.539 76.8698 188.109 82.9198C187.909 83.7798 187.689 84.6498 187.459 85.5098C187.159 86.6598 186.829 87.7998 186.489 88.9398C186.139 90.0798 185.769 91.2198 185.379 92.3498C184.449 95.0098 183.389 97.6398 182.159 100.25C181.669 101.29 181.149 102.34 180.599 103.37C178.129 108.04 175.059 112.62 171.219 117.13C171.799 117.5 172.379 117.86 172.979 118.22L173.369 118.46L173.359 118.45Z" fill="#6A9A23"/>
<path d="M171.622 120.32C171.622 120.32 171.662 120.34 171.682 120.36V120.38C172.262 119.74 172.813 119.1 173.353 118.45L172.963 118.21C172.363 117.85 171.782 117.49 171.202 117.12C170.752 117.65 170.292 118.18 169.812 118.7L171.603 120.31L171.622 120.32Z" fill="#6A9A23"/>
<path d="M959.07 15.0303H956.5L955.84 16.5303L958 17.4803L959.07 15.0303Z" fill="#6A9A23"/>
<path d="M905.75 220.3H908.6L909.6 217.8H906.75L905.75 220.3Z" fill="#6A9A23"/>
<path d="M957.998 17.4803L955.838 16.5303L955.398 17.5303H957.978L957.998 17.4803Z" fill="#6A9A23"/>
<path d="M958 17.4803L958.13 17.5303H960V15.0303H959.07L958 17.4803Z" fill="#6A9A23"/>
<path d="M958.13 17.53L958 17.48L957.98 17.53H958.13Z" fill="#6A9A23"/>
<path d="M909.6 217.8L960 91.9498V84.8398L906.75 217.8H909.6Z" fill="#6A9A23"/>
<path d="M870.092 217.8L957.982 17.5303H955.402L866.422 220.3H905.752L906.752 217.8H870.092Z" fill="#6A9A23"/>
<path d="M874.07 215.3L959.76 20.0303H958.13V17.5303H957.98L870.09 217.8H906.75L960 84.8403V78.5003L905.21 215.3H874.07Z" fill="#6A9A23"/>
<path d="M960.003 18.3503V17.5303H958.133L960.003 18.3503Z" fill="#6A9A23"/>
<path d="M959.998 20.0302V19.4902L959.758 20.0302H959.998Z" fill="#6A9A23"/>
<path d="M958.133 17.5303V20.0303H959.763L960.003 19.4903V18.3503L958.133 17.5303Z" fill="#6A9A23"/>
<path d="M568.228 504L479.968 522.52C479.818 522.57 479.658 522.61 479.508 522.64C478.958 522.77 478.478 522.86 478.048 522.93C477.838 522.97 477.628 523.01 477.408 523.05L407.328 537.51C408.068 538.36 408.828 539.18 409.598 539.99H536.398C540.808 536.82 544.918 533.46 548.678 529.9C557.088 521.96 563.638 513.27 568.238 503.99L568.228 504Z" fill="#82B536"/>
<path d="M576.538 497.19C576.538 497.19 576.548 497.16 576.558 497.14H576.528C576.528 497.14 576.518 497.18 576.508 497.2H576.538V497.19Z" fill="#6A9A23"/>
<path d="M398.348 534.26H398.328C398.328 534.26 398.348 534.29 398.358 534.3H398.378C398.378 534.3 398.358 534.27 398.348 534.26Z" fill="#6A9A23"/>
<path d="M576.537 497.19H576.507C571.837 510.36 563.627 522.62 552.067 533.55C549.707 535.78 547.217 537.92 544.617 540H544.657C547.257 537.92 549.757 535.77 552.107 533.55C563.677 522.63 571.867 510.36 576.537 497.19Z" fill="#6A9A23"/>
<path d="M398.379 534.3H398.359C398.439 534.42 398.529 534.53 398.619 534.65C398.539 534.54 398.459 534.42 398.379 534.3Z" fill="#6A9A23"/>
<path d="M420.362 529.72L398.352 534.26C398.352 534.26 398.372 534.29 398.382 534.3L420.362 529.72Z" fill="#6A9A23"/>
<path d="M576.509 497.2C576.509 497.2 576.519 497.17 576.529 497.15L547.219 503.3L576.509 497.2Z" fill="#6A9A23"/>
<path d="M576.508 497.2L547.218 503.3L481.068 517.18C480.318 517.39 479.568 517.59 478.828 517.77L479.348 520.09H479.328L479.248 520.12C479.168 520.14 479.058 520.18 478.898 520.21C478.098 520.4 477.448 520.49 476.888 520.6L476.408 518.27C475.318 518.49 474.258 518.66 473.208 518.81L420.378 529.71L398.398 534.29C398.478 534.4 398.558 534.52 398.638 534.64C398.778 534.82 398.918 535 399.048 535.19C399.698 536.05 400.358 536.9 401.028 537.74C401.638 538.5 402.258 539.25 402.888 539.99H406.198C405.008 538.66 403.858 537.3 402.738 535.9L476.928 520.59C477.148 520.55 477.378 520.51 477.598 520.46C478.038 520.38 478.468 520.3 478.928 520.19C479.048 520.16 479.168 520.13 479.288 520.09L479.388 520.06L572.578 500.5C567.838 511.79 560.398 522.26 550.408 531.7C547.358 534.58 544.088 537.34 540.628 539.97H544.638C547.238 537.89 549.738 535.74 552.088 533.52C563.658 522.6 571.858 510.34 576.528 497.17L576.508 497.2Z" fill="#6A9A23"/>
<path d="M479.26 520.11L478.88 520.19V520.22C479.04 520.18 479.16 520.15 479.23 520.13L479.31 520.11H479.33L478.81 517.79H478.77L479.26 520.12V520.11Z" fill="#6A9A23"/>
<path d="M476.438 518.27C476.438 518.27 476.418 518.27 476.398 518.27L476.878 520.6L478.868 520.18L478.318 517.87L476.428 518.27H476.438Z" fill="#6A9A23"/>
<path d="M476.891 520.6L476.411 518.27C476.411 518.27 476.401 518.27 476.391 518.27L476.871 520.6C477.431 520.49 478.081 520.39 478.881 520.21V520.18L476.891 520.6Z" fill="#6A9A23"/>
<path d="M478.878 520.19L479.258 520.11L478.778 517.78L478.328 517.87L478.878 520.19Z" fill="#6A9A23"/>
<path d="M572.559 500.53L479.369 520.09L479.269 520.12C479.149 520.15 479.029 520.19 478.909 520.22C478.459 520.33 478.019 520.41 477.579 520.49C477.349 520.53 477.129 520.57 476.909 520.62L402.719 535.93C403.839 537.33 404.989 538.69 406.179 540.02H409.579C408.809 539.21 408.049 538.38 407.309 537.54L477.389 523.08C477.599 523.04 477.809 523 478.029 522.96C478.459 522.88 478.949 522.79 479.489 522.67C479.639 522.63 479.799 522.59 479.949 522.55L568.209 504.03C563.609 513.32 557.059 522 548.649 529.94C544.879 533.5 540.779 536.86 536.369 540.03H540.579C544.039 537.4 547.309 534.64 550.359 531.76C560.349 522.33 567.789 511.85 572.529 500.56L572.559 500.53Z" fill="#6A9A23"/>
<path d="M446.77 512.67C453.75 518.21 462.29 520.23 472.73 518.81L476.35 518.06L475.87 515.71L478.25 515.21L478.78 517.55L480.97 517.09C486.97 515.42 493.25 512.84 499.67 509.39C506.56 505.68 512.54 501.46 517.43 496.85C527.14 487.68 531.43 478.12 530.53 467.62C530.04 461.94 528.1 455.9 524.76 449.68C521.34 443.31 517.3 438.27 512.75 434.67C504.47 428.12 494.14 426.41 481.17 429.43C474.63 430.96 467.81 433.61 460.92 437.31C456.74 439.56 452.92 441.96 449.45 444.49C446.82 446.41 444.39 448.41 442.2 450.48C432.49 459.65 428.21 469.19 429.12 479.64C429.62 485.41 431.62 491.58 435.06 497.98C436.73 501.09 438.55 503.89 440.51 506.34C442.47 508.79 444.56 510.91 446.78 512.67H446.77Z" fill="#6A9A23"/>
<path d="M476.35 518.06L472.73 518.81C473.42 518.72 474.11 518.61 474.82 518.48L476.38 518.16L476.36 518.05L476.35 518.06Z" fill="#6A9A23"/>
<path d="M478.79 517.66C479.51 517.48 480.23 517.3 480.96 517.1L478.77 517.56L478.79 517.66Z" fill="#6A9A23"/>
<path d="M446.77 512.67C444.55 510.91 442.46 508.79 440.5 506.34C442.48 508.83 444.59 510.97 446.84 512.76C453.59 518.13 461.8 520.17 471.78 519.01L472.74 518.81C462.3 520.23 453.76 518.21 446.78 512.67H446.77Z" fill="#6A9A23"/>
<path d="M481.161 429.43C494.121 426.41 504.451 428.12 512.741 434.67C517.281 438.26 521.321 443.31 524.751 449.68C528.091 455.9 530.041 461.94 530.521 467.62C531.421 478.12 527.131 487.68 517.421 496.85C512.531 501.47 506.561 505.69 499.661 509.39C493.241 512.84 486.971 515.42 480.961 517.09L482.311 516.81C487.931 515.14 493.761 512.71 499.731 509.5C506.621 505.79 512.601 501.57 517.491 496.94C527.201 487.76 531.481 478.18 530.581 467.66C530.091 461.97 528.141 455.92 524.801 449.69C521.381 443.31 517.331 438.25 512.791 434.65C504.501 428.09 494.171 426.36 481.211 429.39C474.671 430.92 467.851 433.57 460.961 437.28C456.771 439.54 452.931 441.95 449.461 444.49C452.931 441.96 456.751 439.56 460.931 437.31C467.821 433.6 474.641 430.95 481.181 429.43H481.161Z" fill="#6A9A23"/>
<path d="M480.959 517.1C480.229 517.3 479.509 517.48 478.789 517.66L481.059 517.18C481.469 517.07 481.889 516.94 482.299 516.82L480.949 517.1H480.959Z" fill="#6A9A23"/>
<path d="M472.718 518.81L471.758 519.01C472.228 518.96 472.708 518.89 473.188 518.82L474.808 518.49C474.108 518.61 473.408 518.72 472.718 518.82V518.81Z" fill="#6A9A23"/>
<path d="M477.832 515.32L477.752 515.34H477.742L478.282 517.65L478.732 517.56L478.162 515.23C478.012 515.27 477.902 515.3 477.822 515.32H477.832Z" fill="#6A9A23"/>
<path d="M475.879 515.71C476.619 515.56 477.209 515.48 477.729 515.35H477.739L477.819 515.32C477.889 515.3 477.999 515.27 478.159 515.23L478.729 517.56H478.769L478.239 515.21L475.859 515.71L476.339 518.06H476.359L475.879 515.71Z" fill="#6A9A23"/>
<path d="M477.741 515.35C477.221 515.47 476.631 515.56 475.891 515.71L476.371 518.06L478.291 517.66L477.751 515.35H477.741Z" fill="#6A9A23"/>
<path d="M476.392 518.16L476.362 518.06H476.352L476.372 518.17L476.392 518.16Z" fill="#6A9A23"/>
<path d="M478.311 517.78C478.461 517.75 478.611 517.7 478.751 517.67L478.731 517.57L478.281 517.66L478.311 517.78Z" fill="#6A9A23"/>
<path d="M476.362 518.06L476.382 518.17H476.412C476.812 518.08 477.212 518.01 477.602 517.94C477.832 517.89 478.062 517.85 478.302 517.79L478.272 517.67L476.352 518.07L476.362 518.06Z" fill="#6A9A23"/>
<path d="M478.73 517.56L478.75 517.65C478.75 517.65 478.77 517.65 478.79 517.65L478.77 517.55H478.73V517.56Z" fill="#6A9A23"/>
<path d="M478.309 517.79C478.069 517.84 477.849 517.88 477.609 517.93C477.839 517.89 478.069 517.84 478.309 517.79Z" fill="#6A9A23"/>
<path d="M478.75 517.67C478.75 517.67 478.77 517.67 478.79 517.66C478.79 517.66 478.77 517.66 478.75 517.66V517.67Z" fill="#6A9A23"/>
<path d="M478.312 517.78C478.322 517.78 478.343 517.78 478.353 517.78C478.483 517.75 478.623 517.7 478.753 517.67C478.603 517.7 478.453 517.75 478.312 517.78Z" fill="#6A9A23"/>
<path d="M474.812 518.49C475.332 518.4 475.852 518.31 476.372 518.2V518.17L474.812 518.49Z" fill="#6A9A23"/>
<path d="M478.789 517.66L478.819 517.77C479.559 517.59 480.309 517.39 481.059 517.18L478.789 517.66Z" fill="#6A9A23"/>
<path d="M474.807 518.49L473.188 518.82C474.237 518.67 475.298 518.5 476.388 518.28L476.367 518.2C475.837 518.31 475.317 518.4 474.807 518.49Z" fill="#6A9A23"/>
<path d="M476.367 518.17V518.2H476.387V518.17H476.367Z" fill="#6A9A23"/>
<path d="M476.421 518.16H476.391V518.2C476.791 518.12 477.201 518.03 477.611 517.94C477.211 518.01 476.821 518.08 476.421 518.17V518.16Z" fill="#6A9A23"/>
<path d="M478.331 517.87L478.311 517.79C478.071 517.85 477.841 517.89 477.611 517.93C477.201 518.02 476.801 518.11 476.391 518.19L476.411 518.27C476.411 518.27 476.431 518.27 476.451 518.27L478.341 517.87H478.331Z" fill="#6A9A23"/>
<path d="M478.752 517.67L478.772 517.78H478.812L478.782 517.66C478.772 517.66 478.762 517.66 478.742 517.67H478.752Z" fill="#6A9A23"/>
<path d="M478.312 517.79L478.332 517.87L478.783 517.78L478.763 517.67C478.633 517.7 478.492 517.75 478.362 517.78C478.352 517.78 478.333 517.78 478.323 517.78L478.312 517.79Z" fill="#6A9A23"/>
<path d="M476.387 518.19C476.387 518.19 476.377 518.19 476.367 518.19L476.387 518.27C476.387 518.27 476.397 518.27 476.407 518.27L476.387 518.19Z" fill="#6A9A23"/>
<path d="M659.117 480L666.897 513.05L659.127 480H659.117Z" fill="#82B536"/>
<path d="M670.02 526.29V526.3L688.84 522L686.01 510L688.83 522L670.02 526.29Z" fill="#82B536"/>
<path d="M678.011 476.04L668.641 478L678.021 476.05L678.011 476.04Z" fill="#82B536"/>
<path d="M666.903 513.05L670.023 526.29L688.833 522L686.013 510L678.023 476.05L668.643 478L659.133 480L666.903 513.05Z" fill="#82B536"/>
<path d="M895.468 487.55L923.778 415.89L899.728 338.77L852.508 447.86L864.888 487.55H895.468Z" fill="#82B536"/>
<path d="M925.25 412.18L926.71 408.48L904.36 336.82H901.75L925.25 412.18Z" fill="#6A9A23"/>
<path d="M863.059 490.05H863.049L850.989 451.37L849.469 454.89L861.209 492.55H893.499L894.489 490.05H863.059Z" fill="#6A9A23"/>
<path d="M850.987 451.37L849.847 447.71V447.7L848.708 444.05L847.188 447.57L849.467 454.89L850.987 451.37Z" fill="#6A9A23"/>
<path d="M894.49 490.05L893.5 492.55H898.87L899.86 490.05H897.17H894.49Z" fill="#6A9A23"/>
<path d="M900.958 331.82H900.188L900.958 334.3V331.82Z" fill="#6A9A23"/>
<path d="M901.751 336.82H904.361L902.801 331.82H900.961V334.3L901.751 336.82Z" fill="#6A9A23"/>
<path d="M927.62 419.78L929.08 416.08L926.71 408.48L925.25 412.18L927.62 419.78Z" fill="#6A9A23"/>
<path d="M925.252 412.19V412.18L901.752 336.82H901.742L925.252 412.19Z" fill="#6A9A23"/>
<path d="M848.711 444.05L849.851 447.7L898.591 335.1L898.581 335.06L898.611 335.05L898.931 334.32H900.961V334.3L900.191 331.82H897.291L848.711 444.05Z" fill="#6A9A23"/>
<path d="M898.578 335.06L898.588 335.1L898.608 335.05L898.578 335.06Z" fill="#6A9A23"/>
<path d="M901.751 336.82L900.961 334.3V334.32L901.741 336.82H901.751Z" fill="#6A9A23"/>
<path d="M925.252 412.19L926.432 415.98L897.172 490.05H899.862L927.622 419.78L925.252 412.18V412.19Z" fill="#6A9A23"/>
<path d="M863.062 490.05L851.002 451.37H850.992L863.052 490.05H863.062Z" fill="#6A9A23"/>
<path d="M849.852 447.7V447.71L850.992 451.37H851.002L849.852 447.7Z" fill="#6A9A23"/>
<path d="M900.96 336.82H900.58L899.73 338.77L923.78 415.89L895.47 487.55H864.89L852.51 447.86L851 451.37L863.06 490.05H894.49L925.25 412.19L901.74 336.82H900.96Z" fill="#6A9A23"/>
<path d="M852.512 447.86V447.85L899.732 338.76L898.592 335.1L849.852 447.7L851.002 451.37L852.512 447.86Z" fill="#6A9A23"/>
<path d="M900.57 336.82H900.58H900.96V334.32L898.61 335.05L898.59 335.1L899.73 338.76L900.57 336.82Z" fill="#6A9A23"/>
<path d="M901.741 336.82L900.961 334.32V336.82H901.741Z" fill="#6A9A23"/>
<path d="M897.172 490.05L926.432 415.98L925.252 412.19L894.492 490.05H897.172Z" fill="#6A9A23"/>
<path d="M898.929 334.32L898.609 335.05L900.959 334.32H898.929Z" fill="#6A9A23"/>
<path d="M677.72 186.71C679.62 193.75 681.88 203.05 683.97 214.14C687.81 193.8 692.181 179.5 693.961 174.08L683.97 170.63L673.98 174.08C674.14 174.56 674.32 175.11 674.51 175.73C675.32 178.28 676.44 181.99 677.72 186.7V186.71Z" fill="#82B536"/>
<path d="M683.959 399.6L693.949 396.15C693.789 395.67 693.609 395.12 693.419 394.49C692.609 391.94 691.489 388.23 690.209 383.51C688.309 376.47 686.049 367.17 683.959 356.08C680.119 376.42 675.749 390.72 673.969 396.14L683.959 399.59V399.6Z" fill="#82B536"/>
<path d="M686.102 343.5L686.842 343.38C686.842 343.37 686.822 343.24 686.812 343.08C686.762 342.5 686.702 341.42 686.642 340.42C686.622 340.08 686.602 339.76 686.582 339.44C686.462 340.27 686.342 341.1 686.222 341.92C686.182 342.5 686.152 343.05 686.112 343.49L686.102 343.5Z" fill="#6A9A23"/>
<path d="M697.122 172.53C697.122 172.53 696.903 173.13 696.562 174.16L697.122 172.53Z" fill="#6A9A23"/>
<path d="M694.798 171.62L694.768 171.7L694.758 171.72L697.118 172.53L694.798 171.62Z" fill="#6A9A23"/>
<path d="M685.868 344.15C685.638 345.65 685.388 347.11 685.148 348.55C685.178 348.7 685.198 348.86 685.228 349.01C685.498 347.42 685.768 345.81 686.028 344.16C686.058 343.95 686.078 343.76 686.098 343.54C686.098 343.53 686.098 343.51 686.098 343.5L685.968 343.52C685.938 343.73 685.908 343.94 685.868 344.15Z" fill="#6A9A23"/>
<path d="M694.768 398.54L694.798 398.62L697.118 397.7L694.758 398.52L694.768 398.54Z" fill="#6A9A23"/>
<path d="M694.76 171.72C694.76 171.72 694.76 171.71 694.76 171.7L694.79 171.62L697.12 172.53L696.56 174.16C694.83 179.33 689.46 196.49 685.23 221.23C685.5 222.82 685.771 224.43 686.031 226.08C686.111 226.64 686.131 227.15 686.151 227.69C686.151 227.77 686.151 227.85 686.151 227.93C686.231 228.46 686.311 228.99 686.391 229.53C686.431 229.27 686.481 228.99 686.531 228.7C686.651 228.01 686.761 227.32 686.841 226.84C689.391 210.61 692.52 197.29 695.04 188C696.3 183.36 697.4 179.72 698.19 177.23C698.59 175.99 698.9 175.03 699.12 174.38C699.23 174.05 699.32 173.81 699.38 173.64L699.451 173.45V173.41V173.42L697.82 172.78L699.461 173.39V173.4L700.401 170.99L691.55 167.94L687.72 169.26L694.76 171.69V171.72Z" fill="#6A9A23"/>
<path d="M699.461 396.81L697.82 397.42L699.451 396.78V396.8C699.451 396.8 699.41 396.68 699.35 396.5C698.36 393.69 691.571 373.56 686.841 343.37L686.1 343.49C686.1 343.5 686.1 343.52 686.1 343.53C686.08 343.75 686.061 343.93 686.031 344.14C685.771 345.79 685.5 347.41 685.23 349C689.46 373.74 694.83 390.9 696.56 396.07L697.12 397.7L694.79 398.61L694.76 398.53V398.51L687.711 400.94L691.54 402.26L700.391 399.2L699.451 396.79L699.461 396.81Z" fill="#6A9A23"/>
<path d="M685.969 343.52L686.099 343.5C686.139 343.06 686.179 342.51 686.209 341.93C686.129 342.46 686.049 343 685.969 343.52Z" fill="#6A9A23"/>
<path d="M699.449 173.45L699.459 173.43L699.449 173.45Z" fill="#6A9A23"/>
<path d="M699.46 173.42L697.82 172.81L699.45 173.45L699.46 173.43V173.42Z" fill="#6A9A23"/>
<path d="M696.562 396.08C696.903 397.11 697.102 397.66 697.122 397.71L696.562 396.08Z" fill="#6A9A23"/>
<path d="M697.82 397.43L699.46 396.82L699.45 396.79L697.82 397.43Z" fill="#6A9A23"/>
<path d="M699.459 396.82V396.81L699.449 396.79L699.459 396.82Z" fill="#6A9A23"/>
<path d="M682.548 238.35C682.538 238.46 682.518 238.57 682.508 238.68L682.968 241.79C682.828 240.63 682.688 239.49 682.548 238.35Z" fill="#6A9A23"/>
<path d="M685.868 226.09C685.968 226.7 686.058 227.33 686.148 227.94C686.148 227.86 686.148 227.78 686.148 227.7C686.128 227.16 686.108 226.65 686.028 226.09C685.768 224.44 685.498 222.82 685.228 221.23C685.198 221.38 685.178 221.53 685.148 221.69C685.388 223.13 685.628 224.6 685.868 226.09Z" fill="#6A9A23"/>
<path d="M683.259 325.91L682.469 331.25C682.499 331.46 682.519 331.68 682.549 331.89C682.799 329.93 683.039 327.93 683.259 325.9V325.91Z" fill="#6A9A23"/>
<path d="M686.241 230.5L683.771 230.13H683.671C683.281 232.79 682.911 235.53 682.551 238.34C682.691 239.47 682.831 240.62 682.971 241.78L683.771 247.17L686.241 230.5Z" fill="#6A9A23"/>
<path d="M686.441 337.86L683.961 321.18L683.261 325.91C683.041 327.94 682.801 329.93 682.551 331.9C682.821 334.08 683.111 336.22 683.411 338.32L683.961 338.24L686.431 338.61C686.431 338.61 686.391 338.98 686.361 339.36C686.331 339.75 686.301 340.23 686.271 340.73C686.251 341.13 686.221 341.54 686.201 341.94C686.321 341.12 686.441 340.3 686.561 339.46C686.551 339.31 686.541 339.15 686.531 339C686.501 338.56 686.471 338.22 686.421 337.87L686.441 337.86Z" fill="#6A9A23"/>
<path d="M683.672 230.12H683.772C683.752 230.02 683.742 229.88 683.732 229.73C683.712 229.86 683.692 229.99 683.672 230.12Z" fill="#6A9A23"/>
<path d="M683.96 338.23L683.41 338.31C683.53 339.15 683.65 339.99 683.77 340.82C683.83 339.72 683.9 338.65 683.96 338.22V338.23Z" fill="#6A9A23"/>
<path d="M685.147 348.55C685.387 347.11 685.627 345.64 685.867 344.15C685.897 343.94 685.927 343.72 685.967 343.51L684.367 343.76C684.627 345.39 684.887 346.98 685.147 348.55Z" fill="#6A9A23"/>
<path d="M683.963 402.25L683.893 402.22L680.062 403.54L683.963 404.89L691.552 402.27L687.722 400.95L683.963 402.25Z" fill="#6A9A23"/>
<path d="M685.969 343.52C686.049 342.99 686.129 342.46 686.209 341.93C686.229 341.53 686.259 341.13 686.279 340.72C686.309 340.22 686.339 339.74 686.369 339.35C686.399 338.97 686.429 338.65 686.439 338.6L683.969 338.23C684.099 339.13 684.239 342.88 684.379 343.76L685.979 343.51L685.969 343.52Z" fill="#6A9A23"/>
<path d="M686.24 229.77L683.77 230.14L686.24 230.51C686.28 230.27 686.33 229.93 686.39 229.55C686.31 229.01 686.23 228.48 686.15 227.95C686.16 228.4 686.17 228.84 686.19 229.2C686.2 229.48 686.22 229.71 686.24 229.78V229.77Z" fill="#6A9A23"/>
<path d="M683.963 167.99L687.722 169.29L691.552 167.97L683.963 165.35L680.062 166.7L683.893 168.02L683.963 167.99Z" fill="#6A9A23"/>
<path d="M685.87 226.09C685.64 224.6 685.39 223.14 685.15 221.69C684.88 223.26 684.62 224.85 684.37 226.48C684.23 227.36 683.9 229.25 683.77 230.14L686.24 229.77C686.23 229.69 686.21 229.46 686.19 229.19C686.17 228.84 686.16 228.39 686.15 227.94C686.06 227.32 685.96 226.7 685.87 226.09Z" fill="#6A9A23"/>
<path d="M681.301 229.77H681.381C681.371 229.69 681.351 229.6 681.341 229.51C681.331 229.6 681.311 229.69 681.301 229.77Z" fill="#6A9A23"/>
<path d="M681.522 338.91C681.512 338.75 681.492 338.62 681.492 338.6L681.652 338.58C681.962 336.4 682.262 334.17 682.552 331.9C682.522 331.69 682.502 331.47 682.472 331.26L681.492 337.87C681.462 338.07 681.442 338.26 681.422 338.48C681.362 339.22 681.302 340.3 681.242 341.3C681.242 341.34 681.242 341.37 681.242 341.4C681.352 340.69 681.452 339.98 681.562 339.27C681.562 339.15 681.542 339.02 681.532 338.92L681.522 338.91Z" fill="#6A9A23"/>
<path d="M681.492 338.6C681.492 338.6 681.512 338.75 681.522 338.91C681.522 339.01 681.542 339.14 681.552 339.26C681.582 339.03 681.622 338.8 681.652 338.57L681.492 338.59V338.6Z" fill="#6A9A23"/>
<path d="M681.382 229.78H681.302C681.312 229.69 681.332 229.6 681.342 229.51C681.282 229.14 681.232 228.77 681.172 228.4C681.172 228.57 681.172 228.73 681.182 228.9C681.202 229.44 681.222 229.95 681.292 230.51L682.502 238.69C682.512 238.58 682.532 238.47 682.542 238.36C682.172 235.43 681.782 232.57 681.372 229.79L681.382 229.78Z" fill="#6A9A23"/>
<path d="M668.449 173.37L669.879 172.83L668.449 173.39L670.649 172.54L672.979 171.63L672.999 171.69L673.139 171.64L673.169 171.72L683.889 168.02L680.059 166.7L667.539 171.02L668.449 173.37Z" fill="#6A9A23"/>
<path d="M682.548 331.89C682.258 334.16 681.958 336.39 681.648 338.57L683.408 338.31C683.108 336.21 682.828 334.07 682.548 331.89Z" fill="#6A9A23"/>
<path d="M683.73 229.73C683.65 228.76 683.68 227.24 683.56 226.48C683.28 224.69 682.99 222.95 682.7 221.23C682.43 222.82 682.16 224.44 681.91 226.09C681.85 226.5 681.73 227.19 681.61 227.89C681.51 228.48 681.41 229.05 681.34 229.52C681.35 229.61 681.37 229.7 681.38 229.79L683.67 230.13C683.69 230 683.71 229.87 683.73 229.74V229.73Z" fill="#6A9A23"/>
<path d="M673 398.55L673.14 398.6L673.17 398.52L673.03 398.47L673 398.55Z" fill="#6A9A23"/>
<path d="M681.383 229.78C681.793 232.56 682.183 235.42 682.553 238.35C682.903 235.54 683.283 232.8 683.673 230.12L681.383 229.78Z" fill="#6A9A23"/>
<path d="M670.801 397.7C670.801 397.7 671.011 397.13 671.331 396.16L670.801 397.7Z" fill="#6A9A23"/>
<path d="M673.03 171.77L673.17 171.72L673.14 171.64L673 171.69L673.01 171.71L673.03 171.77Z" fill="#6A9A23"/>
<path d="M673.031 171.77L673.011 171.71L673.001 171.69L670.801 172.53L673.031 171.77Z" fill="#6A9A23"/>
<path d="M669.879 172.83L668.449 173.37V173.39L669.879 172.83Z" fill="#6A9A23"/>
<path d="M668.471 396.81V396.82L668.461 396.83L668.471 396.81Z" fill="#6A9A23"/>
<path d="M681.898 344.15C682.158 345.8 682.428 347.41 682.698 349C682.988 347.33 683.268 345.63 683.538 343.89L681.898 344.15Z" fill="#6A9A23"/>
<path d="M673.169 398.52L673.14 398.6L673.01 398.55L672.99 398.6L670.659 397.7L671.479 395.34L671.609 395.38C673.549 389.49 678.66 372.74 682.71 349C682.44 347.41 682.169 345.8 681.909 344.15C681.859 343.79 681.829 343.45 681.799 343.01C681.769 342.58 681.74 342.09 681.71 341.58C681.66 340.74 681.61 339.87 681.56 339.26C681.46 339.98 681.35 340.69 681.24 341.39C681.21 341.85 681.189 342.29 681.159 342.65C681.129 343.03 681.1 343.35 681.09 343.38C678.54 359.61 675.41 372.93 672.89 382.22C671.63 386.86 670.53 390.5 669.74 392.99C669.34 394.23 669.03 395.19 668.81 395.84C668.7 396.17 668.609 396.41 668.549 396.58L668.479 396.77L668.46 396.82V396.81L669.9 397.37L668.45 396.83L668.43 396.86L669.77 397.38L668.419 396.88L667.52 399.23L680.03 403.55L683.859 402.23L673.14 398.53L673.169 398.52Z" fill="#6A9A23"/>
<path d="M668.448 396.86L668.438 396.88L669.787 397.38L668.448 396.86Z" fill="#6A9A23"/>
<path d="M681.597 227.88C681.717 227.19 681.828 226.49 681.898 226.09C682.158 224.44 682.417 222.82 682.688 221.23C678.637 197.5 673.528 180.75 671.588 174.86L671.458 174.9L670.638 172.54L668.438 173.39V173.42L669.898 172.88L668.448 173.44C668.448 173.44 668.497 173.55 668.557 173.73C669.547 176.54 676.338 196.67 681.068 226.87L681.097 227.03L681.068 226.86C681.078 226.92 681.097 227.15 681.117 227.42C681.127 227.7 681.138 228.04 681.148 228.4C681.208 228.77 681.258 229.14 681.318 229.51C681.388 229.05 681.488 228.47 681.588 227.88H681.597Z" fill="#6A9A23"/>
<path d="M683.562 343.77C683.633 343.31 683.703 342.05 683.783 340.83C683.663 340 683.542 339.16 683.422 338.32L681.662 338.58C681.632 338.81 681.592 339.04 681.562 339.27C681.613 339.88 681.663 340.76 681.713 341.59C681.743 342.1 681.772 342.59 681.802 343.02C681.832 343.46 681.862 343.8 681.912 344.15L683.552 343.9C683.552 343.86 683.563 343.81 683.573 343.77H683.562Z" fill="#6A9A23"/>
<path d="M671.588 174.85C671.498 174.56 671.408 174.3 671.328 174.07L670.798 172.53L672.998 171.69L672.978 171.63L670.648 172.53L671.468 174.89L671.598 174.85H671.588Z" fill="#6A9A23"/>
<path d="M669.921 172.87L668.461 173.41L668.471 173.43L669.921 172.87Z" fill="#6A9A23"/>
<path d="M670.801 397.7L673.001 398.55L673.031 398.47L670.801 397.7Z" fill="#6A9A23"/>
<path d="M671.338 396.16C671.418 395.93 671.498 395.67 671.598 395.38L671.468 395.34L670.648 397.7L672.978 398.6L672.998 398.55L670.798 397.7L671.328 396.16H671.338Z" fill="#6A9A23"/>
<path d="M669.911 397.36L668.471 396.81L668.461 396.83L669.911 397.36Z" fill="#6A9A23"/>
<path d="M671.343 174.07C671.023 173.11 670.832 172.58 670.812 172.53L671.343 174.07Z" fill="#6A9A23"/>
<path d="M668.461 173.41V173.42L668.471 173.43L668.461 173.41Z" fill="#6A9A23"/>
<path d="M696.178 174.85C694.248 180.7 689.188 197.28 685.148 220.78C685.178 220.93 685.198 221.08 685.228 221.23C689.458 196.49 694.828 179.33 696.558 174.16L696.308 174.9L696.178 174.86V174.85Z" fill="#6A9A23"/>
<path d="M696.972 172.53C696.952 172.59 696.662 173.38 696.182 174.85L696.312 174.89L696.562 174.15C696.902 173.12 697.102 172.57 697.122 172.52L694.762 171.7C694.762 171.7 694.752 171.73 694.742 171.74L696.972 172.51V172.53Z" fill="#6A9A23"/>
<path d="M694.738 171.76C694.738 171.76 694.748 171.73 694.758 171.72L687.718 169.29L687.648 169.32L694.748 171.77L694.738 171.76Z" fill="#6A9A23"/>
<path d="M696.182 395.38C696.662 396.85 696.952 397.64 696.972 397.7L694.742 398.47L694.762 398.52L697.122 397.7C697.122 397.7 696.902 397.1 696.562 396.07L696.312 395.33L696.182 395.37V395.38Z" fill="#6A9A23"/>
<path d="M687.641 400.92L687.721 400.95L694.761 398.52L694.741 398.47L687.641 400.92Z" fill="#6A9A23"/>
<path d="M685.078 221.24C685.108 221.39 685.128 221.54 685.158 221.69C685.188 221.54 685.208 221.38 685.238 221.23C685.208 221.08 685.188 220.93 685.158 220.78C685.128 220.93 685.108 221.09 685.078 221.24Z" fill="#6A9A23"/>
<path d="M685.078 349C685.108 349.15 685.128 349.31 685.158 349.46C685.188 349.31 685.208 349.16 685.238 349.01C685.208 348.86 685.188 348.71 685.158 348.55C685.128 348.7 685.108 348.85 685.078 349Z" fill="#6A9A23"/>
<path d="M696.178 395.38L696.308 395.34L696.558 396.08C694.828 390.91 689.458 373.75 685.228 349.01C685.198 349.16 685.178 349.31 685.148 349.46C689.188 372.96 694.248 389.54 696.178 395.39V395.38Z" fill="#6A9A23"/>
<path d="M684.219 343.79C684.499 345.57 684.789 347.3 685.079 349C685.109 348.85 685.129 348.7 685.159 348.55C684.889 346.98 684.629 345.39 684.379 343.76L684.229 343.78L684.219 343.79Z" fill="#6A9A23"/>
<path d="M687.721 169.29L683.961 167.99L683.891 168.02L687.651 169.31L687.721 169.29Z" fill="#6A9A23"/>
<path d="M683.729 229.73C683.739 229.88 683.759 230.02 683.769 230.14C683.899 229.24 684.239 227.36 684.369 226.48C684.629 224.85 684.889 223.26 685.149 221.69C685.119 221.54 685.099 221.39 685.069 221.24C684.779 222.95 684.489 224.69 684.209 226.48C684.039 227.55 683.879 228.64 683.719 229.73H683.729Z" fill="#6A9A23"/>
<path d="M683.891 402.22L683.961 402.25L687.721 400.95L687.641 400.92L683.891 402.22Z" fill="#6A9A23"/>
<path d="M684.219 343.76C684.219 343.76 684.219 343.78 684.219 343.79L684.37 343.77C684.23 342.89 684.1 339.13 683.96 338.24C683.9 338.66 683.83 339.74 683.77 340.84C683.92 341.83 684.059 342.81 684.219 343.78V343.76Z" fill="#6A9A23"/>
<path d="M694.661 398.24C694.591 398.05 694.501 397.79 694.391 397.45C694.271 397.1 694.131 396.67 693.961 396.16L683.971 399.61L673.981 396.16C673.981 396.16 673.971 396.19 673.961 396.21L687.641 400.93L694.741 398.48C694.721 398.41 694.691 398.34 694.661 398.24Z" fill="#6A9A23"/>
<path d="M683.959 170.64L693.949 174.09C694.079 173.69 694.199 173.34 694.299 173.03C694.529 172.36 694.669 171.95 694.739 171.76L687.639 169.31L673.949 174.03C673.949 174.03 673.959 174.06 673.969 174.08L683.959 170.63V170.64Z" fill="#6A9A23"/>
<path d="M683.958 356.09C683.928 355.95 683.908 355.82 683.878 355.68C680.038 376.18 675.628 390.6 673.828 396.1L673.968 396.15C675.748 390.73 680.118 376.43 683.958 356.09Z" fill="#6A9A23"/>
<path d="M673.84 396.11C673.84 396.11 673.83 396.14 673.82 396.16L673.96 396.21C673.96 396.21 673.97 396.18 673.98 396.16L673.84 396.11Z" fill="#6A9A23"/>
<path d="M677.72 186.71C676.44 181.99 675.32 178.29 674.51 175.74C674.31 175.12 674.13 174.57 673.98 174.09L673.84 174.14C674 174.61 674.17 175.15 674.36 175.75C675.17 178.3 676.29 182.01 677.57 186.73C679.5 193.86 681.78 203.3 683.89 214.57C683.92 214.43 683.94 214.3 683.97 214.16C681.88 203.07 679.63 193.77 677.72 186.73V186.71Z" fill="#6A9A23"/>
<path d="M673.972 174.09C673.972 174.09 673.963 174.06 673.953 174.04L673.812 174.09C673.812 174.09 673.823 174.12 673.833 174.14L673.972 174.09Z" fill="#6A9A23"/>
<path d="M683.963 356.09C684.363 353.94 684.763 351.73 685.153 349.45C685.123 349.3 685.103 349.14 685.073 348.99C684.683 351.28 684.283 353.52 683.883 355.68C683.913 355.82 683.933 355.95 683.963 356.09Z" fill="#6A9A23"/>
<path d="M683.961 214.14C684.361 216.28 684.761 218.5 685.151 220.78C689.191 197.28 694.251 180.71 696.181 174.85L693.951 174.08C692.171 179.5 687.801 193.8 683.961 214.14Z" fill="#6A9A23"/>
<path d="M693.949 174.08L696.179 174.85C696.659 173.38 696.949 172.59 696.969 172.53L694.739 171.76C694.669 171.95 694.529 172.35 694.299 173.03C694.199 173.33 694.079 173.69 693.949 174.09V174.08Z" fill="#6A9A23"/>
<path d="M690.211 383.52C691.491 388.24 692.611 391.94 693.421 394.5C693.621 395.12 693.801 395.67 693.951 396.16L696.181 395.39C694.251 389.54 689.191 372.96 685.151 349.46C684.761 351.74 684.361 353.95 683.961 356.1C686.051 367.19 688.301 376.49 690.211 383.53V383.52Z" fill="#6A9A23"/>
<path d="M683.891 214.55C684.291 216.71 684.691 218.94 685.081 221.23C685.111 221.08 685.131 220.92 685.161 220.77C684.771 218.49 684.371 216.28 683.971 214.13C683.941 214.27 683.921 214.4 683.891 214.54V214.55Z" fill="#6A9A23"/>
<path d="M694.389 397.44C694.509 397.78 694.599 398.05 694.659 398.23C694.689 398.32 694.719 398.4 694.739 398.45L696.969 397.69C696.949 397.63 696.659 396.84 696.179 395.37L693.949 396.14C694.119 396.65 694.259 397.08 694.379 397.43L694.389 397.44Z" fill="#6A9A23"/>
<path d="M671.343 396.16C671.023 397.12 670.832 397.65 670.812 397.7L673.042 398.47C673.142 398.19 673.413 397.4 673.823 396.15L671.602 395.39L671.333 396.16H671.343Z" fill="#6A9A23"/>
<path d="M673.272 172C673.342 172.19 673.432 172.45 673.542 172.79C673.662 173.13 673.792 173.55 673.962 174.03L687.652 169.31L683.892 168.01L673.172 171.71L673.192 171.77C673.212 171.83 673.242 171.9 673.272 171.99V172Z" fill="#6A9A23"/>
<path d="M671.622 395.34L673.842 396.1C675.642 390.61 680.052 376.18 683.892 355.68C683.492 353.52 683.092 351.29 682.702 349C678.652 372.74 673.532 389.49 671.602 395.38L671.622 395.33V395.34Z" fill="#6A9A23"/>
<path d="M671.622 395.34L671.602 395.39L673.822 396.15C673.822 396.15 673.832 396.12 673.842 396.1L671.622 395.34Z" fill="#6A9A23"/>
<path d="M673.962 396.2C673.562 397.42 673.292 398.19 673.192 398.46L673.172 398.52L683.892 402.22L687.642 400.92L673.962 396.2Z" fill="#6A9A23"/>
<path d="M671.6 395.39C671.51 395.67 671.42 395.93 671.34 396.16L671.61 395.39H671.6Z" fill="#6A9A23"/>
<path d="M683.771 340.83C683.701 342.05 683.631 343.31 683.551 343.77C683.551 343.81 683.541 343.86 683.531 343.9L684.221 343.79C684.221 343.79 684.221 343.77 684.221 343.76C684.071 342.79 683.921 341.81 683.771 340.82V340.83Z" fill="#6A9A23"/>
<path d="M673.041 171.78C673.061 171.84 673.091 171.91 673.121 172C673.191 172.19 673.281 172.45 673.391 172.79C673.511 173.14 673.651 173.57 673.821 174.08L673.961 174.03C673.801 173.54 673.661 173.13 673.541 172.79C673.421 172.45 673.331 172.18 673.271 172C673.241 171.91 673.211 171.83 673.191 171.78L673.171 171.72L673.031 171.77L673.041 171.78Z" fill="#6A9A23"/>
<path d="M685.078 349C684.788 347.3 684.497 345.56 684.217 343.79L683.528 343.9C683.258 345.64 682.977 347.34 682.688 349.01C683.077 351.3 683.478 353.53 683.878 355.69C684.278 353.53 684.678 351.3 685.068 349H685.078Z" fill="#6A9A23"/>
<path d="M673.959 396.2L673.819 396.15C673.409 397.4 673.129 398.19 673.039 398.46L673.179 398.52L673.199 398.46C673.299 398.19 673.569 397.42 673.969 396.2H673.959Z" fill="#6A9A23"/>
<path d="M671.338 174.07C671.418 174.31 671.498 174.56 671.598 174.85L671.328 174.07H671.338Z" fill="#6A9A23"/>
<path d="M671.622 174.9L673.842 174.14C673.842 174.14 673.832 174.11 673.822 174.09L671.602 174.85L671.622 174.9Z" fill="#6A9A23"/>
<path d="M673.823 174.09C673.653 173.58 673.513 173.15 673.393 172.8C673.273 172.46 673.182 172.19 673.122 172.01C673.092 171.92 673.062 171.84 673.042 171.79L670.812 172.55C670.832 172.6 671.023 173.12 671.343 174.09L671.612 174.87L673.833 174.11L673.823 174.09Z" fill="#6A9A23"/>
<path d="M683.729 229.73C683.889 228.63 684.059 227.55 684.219 226.48C684.499 224.7 684.789 222.95 685.079 221.24C684.689 218.95 684.289 216.72 683.889 214.56C683.489 216.72 683.089 218.94 682.699 221.23C682.989 222.95 683.279 224.69 683.559 226.48C683.679 227.24 683.649 228.76 683.729 229.73Z" fill="#6A9A23"/>
<path d="M677.56 186.72C676.28 182 675.16 178.3 674.35 175.74C674.16 175.14 673.99 174.6 673.83 174.13L671.61 174.89L671.59 174.84C673.53 180.73 678.64 197.48 682.69 221.22C683.08 218.93 683.48 216.71 683.88 214.55C681.77 203.28 679.48 193.84 677.56 186.71V186.72Z" fill="#6A9A23"/>
<path d="M0 241.8V256.98L99.08 277.95L0 241.8Z" fill="#82B536"/>
<path d="M99.56 278.05L0 241.68V241.8L99.08 277.95L99.56 278.05Z" fill="#82B536"/>
<path d="M112.309 277.45L112.319 277.39L112.209 277.34L112.199 277.41L112.309 277.45Z" fill="#6A9A23"/>
<path d="M111.26 282.39L111.14 282.34L110.91 283.42L0 259.76V262.09L110.59 285.49L111.26 282.39Z" fill="#6A9A23"/>
<path d="M111.672 279.88L111.782 279.92L112.312 277.45L112.202 277.41L111.672 279.88Z" fill="#6A9A23"/>
<path d="M111.141 282.34L111.261 282.39L111.781 279.92L111.671 279.88L111.141 282.34Z" fill="#6A9A23"/>
<path d="M110.28 276.64L0 236.35V236.48L110.26 276.7L110.28 276.64Z" fill="#6A9A23"/>
<path d="M110.258 276.7L112.198 277.41L112.208 277.34L110.278 276.64L110.258 276.7Z" fill="#6A9A23"/>
<path d="M111.14 282.34L108.89 281.52L108.67 282.53L0 259.53V259.76L110.91 283.42L111.14 282.34Z" fill="#6A9A23"/>
<path d="M111.67 279.88L112.2 277.41L110.26 276.7L109.43 278.99L109.41 279.05L111.67 279.88Z" fill="#6A9A23"/>
<path d="M110.26 276.7L0 236.48V239.02L109.43 278.99L110.26 276.7Z" fill="#6A9A23"/>
<path d="M109.411 279.05L108.891 281.52L111.141 282.34L111.671 279.88L109.411 279.05Z" fill="#6A9A23"/>
<path d="M108.89 281.52L99.08 277.95L0 256.98V259.53L108.67 282.53L108.89 281.52Z" fill="#6A9A23"/>
<path d="M109.408 279.05L109.428 278.99L109.398 279.05H109.408Z" fill="#6A9A23"/>
<path d="M109.429 278.99L108.969 278.89L109.399 279.05L109.429 278.99Z" fill="#6A9A23"/>
<path d="M109.43 278.99L0 239.02V239.14L108.97 278.89L109.43 278.99Z" fill="#6A9A23"/>
<path d="M106.75 279.57L106.98 278.47L108.97 278.89L0 239.14V241.68L99.56 278.05L106.75 279.57Z" fill="#6A9A23"/>
<path d="M109.398 279.05L108.568 281.34L99.5581 278.05L99.0781 277.95L108.888 281.52L109.408 279.05H109.398Z" fill="#6A9A23"/>
<path d="M109.403 279.05L108.973 278.89L106.983 278.47L106.753 279.57L99.5625 278.05L108.573 281.34L109.403 279.05Z" fill="#6A9A23"/>
<path d="M414.82 141.91L414.98 141.9L445.13 85.4399L444.97 85.4499L414.82 141.91Z" fill="#82B536"/>
<path d="M414.819 141.91L444.969 85.4502L382.859 88.0602L385.179 143.15L414.819 141.91Z" fill="#82B536"/>
<path d="M808.97 0H808.82V51.35H808.97V0Z" fill="#6A9A23"/>
<path d="M808.819 51.35V0H803.969V46.35H754.949V0H749.949V51.35H808.819Z" fill="#6A9A23"/>
<path d="M255.199 49.2802C255.509 49.8202 255.819 50.3502 256.129 50.8602L285.029 29.0602L251.519 16.7002L248.879 23.8502C247.349 28.0002 245.749 31.6902 244.109 35.0302C246.839 37.9102 249.639 41.2302 252.499 45.0302C253.559 46.4402 254.399 47.9002 255.199 49.2702V49.2802Z" fill="#82B536"/>
<path d="M256.181 50.9298L285.141 29.0898L285.041 29.0498L256.141 50.8498C256.141 50.8498 256.171 50.8998 256.191 50.9298H256.181Z" fill="#82B536"/>
<path d="M246.542 22.9899L244.193 22.1299C242.933 25.5499 241.633 28.6299 240.312 31.4399C240.942 32.0199 241.573 32.6299 242.213 33.2599C243.703 30.1799 245.142 26.7899 246.542 22.9999V22.9899Z" fill="#6A9A23"/>
<path d="M287.397 27.2703L288.638 26.3403L289.777 25.4803L248.557 10.2803L244.188 22.1203L246.537 22.9903L250.037 13.4903L287.397 27.2703Z" fill="#6A9A23"/>
<path d="M293.03 29.4L295.46 27.57L295.35 27.54L292.93 29.36L293.03 29.4Z" fill="#6A9A23"/>
<path d="M291.65 30.3299L255.02 57.9499L255.08 58.0299L293.03 29.3999L292.93 29.3599L291.65 30.3299Z" fill="#6A9A23"/>
<path d="M254.168 52.4501C254.168 52.4501 254.138 52.4001 254.118 52.3701L254.008 52.4501C254.008 52.4501 254.038 52.5001 254.058 52.5301L254.168 52.4501Z" fill="#6A9A23"/>
<path d="M288.638 26.34L287.398 27.27L290.288 28.34L290.238 28.37L292.928 29.36L295.348 27.54L289.778 25.48L288.638 26.34Z" fill="#6A9A23"/>
<path d="M255.408 54.5201L255.508 54.4501L254.078 52.5601C254.498 53.2401 254.938 53.9001 255.408 54.5301V54.5201Z" fill="#6A9A23"/>
<path d="M254.173 52.4502L254.062 52.5302C254.062 52.5302 254.073 52.5502 254.083 52.5602L255.512 54.4502C255.032 53.8102 254.593 53.1302 254.173 52.4502Z" fill="#6A9A23"/>
<path d="M238.031 35.9799L239.311 37.2699C239.461 37.4199 239.611 37.5799 239.761 37.7299C240.161 37.0099 240.561 36.2799 240.951 35.5199C240.961 35.5299 240.971 35.5399 240.981 35.5499C241.351 35.9199 241.721 36.2999 242.091 36.6999C241.721 36.3099 241.351 35.9299 240.981 35.5499C241.961 36.5399 242.951 37.5999 243.961 38.7199C244.501 39.3199 245.031 39.9299 245.571 40.5599C245.031 39.9299 244.491 39.3199 243.961 38.7199C245.461 40.3899 246.981 42.2099 248.531 44.1699C248.331 43.9199 248.141 43.6699 247.941 43.4299C248.141 43.6699 248.331 43.9299 248.531 44.1799C248.641 44.3199 248.751 44.4499 248.851 44.5899C249.351 45.2199 249.841 45.8699 250.341 46.5299C249.841 45.8699 249.341 45.2299 248.851 44.5899C249.341 45.2199 249.841 45.8599 250.341 46.5299C251.721 48.3599 252.791 50.4599 254.011 52.4399L254.121 52.3599C252.921 50.4099 251.861 48.3399 250.501 46.5299C247.261 42.2299 244.121 38.5699 241.081 35.4999C241.461 34.7699 241.831 34.0099 242.201 33.2399C241.561 32.6099 240.931 31.9999 240.301 31.4199C239.821 32.4299 239.341 33.4099 238.861 34.3499L238.031 35.9599V35.9799Z" fill="#6A9A23"/>
<path d="M255.408 54.5199C254.938 53.8899 254.498 53.2299 254.078 52.5499L254.058 52.5199C254.058 52.5199 254.028 52.4599 254.008 52.4399L253.898 52.5199L255.408 54.5199Z" fill="#6A9A23"/>
<path d="M255.508 54.4499L255.568 54.5199C255.568 54.5199 255.538 54.4699 255.518 54.4399L255.508 54.4499Z" fill="#6A9A23"/>
<path d="M254.062 52.5303L254.083 52.5603C254.083 52.5603 254.072 52.5403 254.062 52.5303Z" fill="#6A9A23"/>
<path d="M248.531 44.1899C248.641 44.3299 248.751 44.4599 248.851 44.5999C248.741 44.4599 248.631 44.3299 248.531 44.1899Z" fill="#6A9A23"/>
<path d="M255.57 54.5199L255.51 54.4499L255.41 54.5199L253.9 52.5199L254.01 52.4399C252.79 50.4599 251.72 48.3599 250.34 46.5299C249.84 45.8699 249.34 45.2199 248.85 44.5899C248.74 44.4499 248.63 44.3099 248.52 44.1699C246.97 42.2099 245.45 40.3899 243.95 38.7199C242.95 37.5999 241.95 36.5399 240.97 35.5499C240.97 35.5399 240.95 35.5299 240.94 35.5199C240.55 36.2799 240.15 37.0099 239.75 37.7299C242.55 40.6099 245.47 44.0299 248.5 48.0399C249.32 49.1199 250.07 50.4099 250.87 51.7799C251.67 53.1499 252.51 54.6099 253.57 56.0199L255.02 57.9399L291.65 30.3199L292.93 29.3499L290.24 28.3599L257.56 53.0099L255.56 54.5199H255.57Z" fill="#6A9A23"/>
<path d="M250.349 46.5399C249.849 45.8799 249.349 45.2299 248.859 44.5999C248.749 44.4599 248.639 44.3299 248.539 44.1899C248.339 43.9399 248.149 43.6899 247.949 43.4399C248.139 43.6799 248.339 43.9399 248.539 44.1799C248.649 44.3199 248.759 44.4599 248.869 44.5999C249.359 45.2299 249.859 45.8699 250.359 46.5399H250.349Z" fill="#6A9A23"/>
<path d="M248.879 23.8502L246.539 22.9902L248.879 23.8502Z" fill="#6A9A23"/>
<path d="M252.353 45.0303C253.413 46.4403 254.253 47.9003 255.053 49.2703C255.383 49.8403 255.703 50.3903 256.033 50.9303L256.133 50.8503C255.823 50.3403 255.512 49.8203 255.202 49.2703C254.402 47.9003 253.563 46.4403 252.503 45.0303C249.643 41.2303 246.843 37.9103 244.113 35.0303C244.093 35.0703 244.082 35.1003 244.062 35.1403C246.763 37.9903 249.523 41.2803 252.353 45.0303Z" fill="#6A9A23"/>
<path d="M242.719 33.7602C242.719 33.7602 242.759 33.8002 242.779 33.8202L242.859 33.7402C243.269 34.1602 243.689 34.5902 244.109 35.0302C245.759 31.6902 247.349 28.0002 248.879 23.8502L246.529 22.9902C245.129 26.7802 243.679 30.1702 242.199 33.2502C242.369 33.4202 242.549 33.5902 242.719 33.7602Z" fill="#6A9A23"/>
<path d="M244.111 35.04C243.691 34.6 243.281 34.17 242.861 33.75L242.781 33.83C243.201 34.26 243.631 34.7 244.051 35.15C244.071 35.11 244.081 35.08 244.101 35.04H244.111Z" fill="#6A9A23"/>
<path d="M248.879 23.8502L251.519 16.7002L285.029 29.0602L287.399 27.2702L250.039 13.4902L246.539 22.9902L248.879 23.8502Z" fill="#6A9A23"/>
<path d="M256.02 50.9301C256.02 50.9301 256.05 50.9801 256.07 51.0101L256.17 50.9301C256.17 50.9301 256.14 50.8801 256.12 50.8501L256.02 50.9301Z" fill="#6A9A23"/>
<path d="M257.408 53.0202L257.508 52.9402C257.048 52.3302 256.608 51.6502 256.178 50.9302L256.078 51.0102C256.518 51.7302 256.958 52.4102 257.418 53.0202H257.408Z" fill="#6A9A23"/>
<path d="M285.132 29.1L256.172 50.94C256.612 51.66 257.052 52.34 257.502 52.95L290.132 28.34L290.232 28.38L290.282 28.34L287.392 27.27L285.022 29.06L285.122 29.1H285.132Z" fill="#6A9A23"/>
<path d="M242.718 33.76C242.548 33.58 242.368 33.42 242.198 33.25C241.828 34.02 241.458 34.78 241.078 35.51L242.778 33.83C242.778 33.83 242.738 33.79 242.718 33.77V33.76Z" fill="#6A9A23"/>
<path d="M255.038 49.2799C254.238 47.9099 253.398 46.4499 252.338 45.0399C249.508 41.2899 246.748 37.9999 244.048 35.1499C243.798 35.6599 243.548 36.1799 243.298 36.6599L241.078 35.5099C244.108 38.5799 247.248 42.2399 250.498 46.5399C251.858 48.3399 252.928 50.4199 254.118 52.3699L256.018 50.9399C255.698 50.4099 255.368 49.8599 255.038 49.2799Z" fill="#6A9A23"/>
<path d="M257.412 53.0198C256.952 52.4098 256.512 51.7298 256.072 51.0098L254.172 52.4398C254.592 53.1298 255.042 53.7998 255.512 54.4398L257.412 53.0098V53.0198Z" fill="#6A9A23"/>
<path d="M256.067 51.0102C256.067 51.0102 256.037 50.9602 256.017 50.9302L254.117 52.3602C254.117 52.3602 254.147 52.4102 254.167 52.4402L256.067 51.0102Z" fill="#6A9A23"/>
<path d="M244.06 35.1398C243.64 34.6898 243.21 34.2498 242.79 33.8198L241.09 35.4998L243.31 36.6498C243.56 36.1598 243.81 35.6398 244.06 35.1398Z" fill="#6A9A23"/>
<path d="M257.408 53.02L255.508 54.45L257.408 53.02Z" fill="#6A9A23"/>
<path d="M257.408 53.0199L255.508 54.4499C255.508 54.4499 255.538 54.4999 255.558 54.5299L257.558 53.0199C257.558 53.0199 257.518 52.9699 257.508 52.9399L257.408 53.0199Z" fill="#6A9A23"/>
<path d="M257.508 52.9401C257.508 52.9401 257.548 52.9901 257.558 53.0201L290.238 28.3701L290.138 28.3301L257.508 52.9401Z" fill="#6A9A23"/>
<path d="M70.8394 78.1099C70.9994 77.5099 71.1494 76.8799 71.2994 76.2399C71.6694 74.6999 72.0494 73.0499 72.6594 71.3999C74.2594 67.0599 75.9294 63.1699 77.6694 59.6999C75.1394 56.9799 72.5494 53.8899 69.8994 50.3799L65.3594 44.3599L37.1094 65.6699L70.8394 78.1099Z" fill="#82B536"/>
<path d="M77.6672 59.7C77.6672 59.7 77.7072 59.62 77.7272 59.57C75.2272 56.88 72.6772 53.85 70.0572 50.38L65.4672 44.29L65.3672 44.36L69.9072 50.38C72.5572 53.89 75.1372 56.98 77.6772 59.7H77.6672Z" fill="#82B536"/>
<path d="M74.8095 82.2299C75.4195 80.5699 75.7995 78.9299 76.1695 77.3899C76.5295 75.8499 76.8795 74.3999 77.3595 73.1299L75.0095 72.2599C74.2195 74.4099 73.7995 76.7299 73.1995 78.9699L73.3295 79.0199L72.4595 81.3699L34.6395 67.4199L33.3095 68.4299L32.2695 69.2099L73.9495 84.5799L74.8195 82.2299H74.8095Z" fill="#6A9A23"/>
<path d="M73.3309 79.0197L73.2009 78.9697C72.9909 79.7797 72.7509 80.5797 72.4609 81.3597L73.3309 79.0097V79.0197Z" fill="#6A9A23"/>
<path d="M82.3916 57.4302C82.8516 57.9102 83.3116 58.3602 83.7616 58.8102L83.8116 58.7102L82.5516 57.4102C82.3416 57.2002 82.1316 56.9602 81.9216 56.7402C81.9016 56.7802 81.8716 56.8202 81.8516 56.8602C82.0316 57.0502 82.2016 57.2502 82.3816 57.4302H82.3916Z" fill="#6A9A23"/>
<path d="M75.0078 72.2599L77.3578 73.1199C78.6678 69.5699 80.0178 66.3599 81.3978 63.4599C80.7778 62.8699 80.1478 62.2499 79.5178 61.6099C77.9678 64.7799 76.4678 68.3199 75.0178 72.2499L75.0078 72.2599Z" fill="#6A9A23"/>
<path d="M81.8616 56.86C81.8616 56.86 81.9116 56.78 81.9316 56.74C79.3916 54.05 76.7716 50.97 74.0516 47.37L66.4516 37.29L66.3516 37.36L73.9016 47.37C76.6516 51.01 79.3016 54.16 81.8616 56.87V56.86Z" fill="#6A9A23"/>
<path d="M79.5078 61.6201C80.1378 62.2601 80.7678 62.8701 81.3878 63.4701C81.9078 62.3701 82.4378 61.3201 82.9678 60.3201L83.7578 58.8201C83.3078 58.3701 82.8478 57.9101 82.3878 57.4401C82.2178 57.2601 82.0378 57.0601 81.8578 56.8701C81.4578 57.5801 81.0478 58.3001 80.6578 59.0501C80.6878 59.0801 80.7278 59.1201 80.7578 59.1601C80.3378 59.9601 79.9178 60.7901 79.5078 61.6301V61.6201Z" fill="#6A9A23"/>
<path d="M34.6391 67.42L31.9491 66.43L65.8591 40.86L65.7991 40.79L31.7991 66.43L29.1091 65.44L26.7891 67.19L32.2691 69.21L33.3091 68.43L34.6391 67.42Z" fill="#6A9A23"/>
<path d="M31.7994 66.4301L65.7994 40.7901L65.8594 40.8601L65.9594 40.7901L72.0594 48.8701C75.0194 52.7901 77.8794 56.1501 80.6594 59.0401C81.0594 58.2901 81.4594 57.5601 81.8594 56.8601C79.2994 54.1501 76.6394 51.0101 73.8994 47.3601L66.3494 37.3501L29.1094 65.4301L31.7994 66.4201V66.4301Z" fill="#6A9A23"/>
<path d="M72.6599 71.3999C72.0499 73.0599 71.6699 74.6999 71.2999 76.2399C71.1499 76.8799 70.9998 77.4999 70.8398 78.1099L73.1998 78.9799C73.7898 76.7399 74.2098 74.4099 75.0098 72.2699L72.6599 71.4099V71.3999Z" fill="#6A9A23"/>
<path d="M78.7902 60.9002C78.4202 60.5102 78.0402 60.1002 77.6702 59.7002C75.9402 63.1702 74.2702 67.0602 72.6602 71.4002L75.0102 72.2702C76.4602 68.3402 77.9602 64.8002 79.5102 61.6302C79.2702 61.3902 79.0302 61.1602 78.7902 60.9102V60.9002Z" fill="#6A9A23"/>
<path d="M72.6602 71.3999L75.0102 72.2599L72.6602 71.3999Z" fill="#6A9A23"/>
<path d="M70.1172 80.4999L72.4672 81.3699C72.7572 80.5899 72.9872 79.7899 73.2072 78.9799L70.8472 78.1099C70.6272 78.9599 70.3972 79.7599 70.1172 80.5099V80.4999Z" fill="#6A9A23"/>
<path d="M70.8406 78.11L37.1106 65.67L65.3606 44.36L65.3106 44.29L34.6406 67.42L72.4606 81.37L70.1106 80.5C70.3806 79.76 70.6206 78.95 70.8406 78.1V78.11Z" fill="#6A9A23"/>
<path d="M78.7919 60.8999C79.0319 61.1499 79.2719 61.3799 79.5119 61.6199C79.9219 60.7699 80.3419 59.9399 80.7619 59.1499L78.9619 60.8899C78.5519 60.4699 78.1419 60.0199 77.7319 59.5699C77.7119 59.6099 77.6919 59.6499 77.6719 59.6999C78.0419 60.0999 78.4219 60.5199 78.7919 60.8999Z" fill="#6A9A23"/>
<path d="M80.7606 59.15C80.7606 59.15 80.6906 59.08 80.6606 59.04C80.6606 59.05 80.6406 59.07 80.6406 59.08L80.7606 59.15Z" fill="#6A9A23"/>
<path d="M80.7622 59.1497L80.6422 59.0797C80.6422 59.0797 80.6122 59.1297 80.6022 59.1597C80.5422 59.0897 80.4722 59.0197 80.4122 58.9497L78.5622 57.9697C78.2922 58.4897 78.0222 59.0197 77.7422 59.5597C78.1522 59.9997 78.5622 60.4497 78.9722 60.8797L80.7722 59.1397L80.7622 59.1497Z" fill="#6A9A23"/>
<path d="M34.6375 67.4199L65.3075 44.2899L65.3575 44.3599L65.4575 44.2899L70.0475 50.3799C72.6675 53.8499 75.2175 56.8799 77.7175 59.5699C77.9875 59.0299 78.2575 58.4999 78.5375 57.9799L80.3875 58.9599C77.6375 56.0899 74.8075 52.7399 71.8875 48.8699L65.8475 40.8599L31.9375 66.4299L34.6275 67.4199H34.6375Z" fill="#6A9A23"/>
<path d="M80.4016 58.96L80.6316 59.08C80.6316 59.08 80.6516 59.05 80.6516 59.04C77.8716 56.15 75.0016 52.79 72.0516 48.87L65.9516 40.79L65.8516 40.86L71.8916 48.87C74.8116 52.74 77.6416 56.09 80.3916 58.96H80.4016Z" fill="#6A9A23"/>
<path d="M80.6284 59.08L80.3984 58.96C80.4584 59.03 80.5284 59.1 80.5884 59.17C80.5984 59.14 80.6184 59.12 80.6284 59.09V59.08Z" fill="#6A9A23"/>
<path d="M413.45 144.47L412.09 147.03L546.16 141.39V141.38L412.09 147.03L413.45 144.47Z" fill="#6A9A23"/>
<path d="M447.71 80.3298L496.85 78.2598L447.71 80.3298L446.57 82.4698L447.71 80.3298Z" fill="#6A9A23"/>
<path d="M538.641 81.5098L539.401 99.6198L538.641 81.5098Z" fill="#6A9A23"/>
<path d="M380.508 88.1601L380.408 85.6701L382.748 85.5701V85.5601L380.258 85.6701L380.358 88.1701L380.508 88.1601Z" fill="#6A9A23"/>
<path d="M382.938 145.76L380.508 88.1599L380.358 88.1699L380.258 85.6699L377.758 85.7699L380.388 148.36L412.088 147.03L413.448 144.47L382.938 145.76Z" fill="#6A9A23"/>
<path d="M377.758 85.7701L380.258 85.6701L382.748 85.5601V85.5701L446.338 82.9001L446.568 82.4701L447.708 80.3301L377.648 83.2801L377.758 85.7701Z" fill="#6A9A23"/>
<path d="M414.819 141.91L413.449 144.47L414.819 141.91L414.979 141.9L414.819 141.91Z" fill="#6A9A23"/>
<path d="M446.159 83.2402L444.969 85.4502L445.129 85.4402L444.969 85.4502L446.159 83.2402Z" fill="#6A9A23"/>
<path d="M385.178 143.15L382.858 88.0601L380.508 88.1601L382.938 145.76L413.448 144.47L414.818 141.91L385.178 143.15Z" fill="#6A9A23"/>
<path d="M382.762 85.5672L380.414 85.666L380.519 88.1538L382.867 88.055L382.762 85.5672Z" fill="#6A9A23"/>
<path d="M444.97 85.4499L446.16 83.2399L446.34 82.8999L382.75 85.5699L382.86 88.0599L444.97 85.4499Z" fill="#6A9A23"/>
<path d="M540.958 136.6L539.398 99.6201L540.958 136.6Z" fill="#94C748"/>
<path d="M546.162 141.38L543.432 76.2998L496.852 78.2598L543.432 76.2998L546.162 141.38Z" fill="#94C748"/>
<path d="M538.64 81.5098L465.48 84.5898L538.64 81.5098Z" fill="#94C748"/>
<path d="M446.57 82.4698L446.34 82.8998L446.49 82.8898L445.13 85.4398L465.48 84.5898L538.64 81.5098L539.4 99.6198L540.96 136.6L414.98 141.9L413.61 144.47H413.45L412.09 147.03L546.16 141.38L543.43 76.2998L496.85 78.2598L447.71 80.3298L446.57 82.4698Z" fill="#94C748"/>
<path d="M413.449 144.47H413.609L414.979 141.9L414.819 141.91L413.449 144.47Z" fill="#94C748"/>
<path d="M444.969 85.4501L445.129 85.4401L446.489 82.8901L446.339 82.9001L446.159 83.2401L444.969 85.4501Z" fill="#94C748"/>
<path d="M290.883 346.29H288.383V348.79H290.883V346.29Z" fill="#94C748"/>
<path d="M333.613 277.41H359.773V346.29H290.883V348.79H288.383V351.29H364.773V272.41H333.613V277.41Z" fill="#94C748"/>
<path d="M288.383 346.29H290.883V319.92H285.883V351.29H288.383V348.79V346.29Z" fill="#94C748"/>
<path d="M290.883 319.54H288.543H285.883V319.92H290.883V319.54Z" fill="#6A9A23"/>
<path d="M333.17 274.91V277.41H333.61V272.41H333.02V274.91H333.17Z" fill="#6A9A23"/>
<path d="M288.543 274.91H333.023V272.41H285.883V319.54H288.543V274.91Z" fill="#6A9A23"/>
<path d="M333.17 274.91H333.02V277.41H333.17V274.91Z" fill="#6A9A23"/>
<path d="M333.019 277.41V274.91H288.539V319.54H290.879V277.41H333.019Z" fill="#6A9A23"/>
<path d="M102.982 433.3L99.1519 435.41L97.9519 433.22L96.6719 435.37L103.122 439.2L108.202 436.4L102.982 433.3Z" fill="#94C748"/>
<path d="M172.022 476.72L169.242 478.5L271.562 540H281.272L173.862 475.45L172.022 476.72Z" fill="#94C748"/>
<path d="M102.979 433.3L99.2192 431.07L97.9492 433.22L99.1492 435.41L102.979 433.3Z" fill="#94C748"/>
<path d="M165.32 393.26L92.9102 433.14L96.6702 435.37L97.9501 433.22L99.2202 431.07L102.98 433.3L165.36 398.95L170.86 401.88L171.58 401.49L171.65 401.53L171.73 401.49L233.21 434.32L232.51 434.81L302.89 472.39V540H307.89V469.39L165.32 393.26Z" fill="#94C748"/>
<path d="M108.217 436.41L108.267 436.44L108.197 436.4L103.117 439.2L103.137 439.21L108.217 436.41Z" fill="#94C748"/>
<path d="M171.649 401.53L171.579 401.49L170.859 401.88L170.939 401.93L171.649 401.53Z" fill="#94C748"/>
<path d="M122.602 450.76L162.602 474.51L162.832 474.65L162.582 474.5L122.602 450.76Z" fill="#94C748"/>
<path d="M232.418 434.76L232.508 434.81L233.208 434.32L171.728 401.49L171.648 401.53L233.058 434.32L232.418 434.76Z" fill="#94C748"/>
<path d="M169.77 472.99L165.16 470.22L165.15 470.21L108.27 436.44L165.15 470.21L169.77 472.99Z" fill="#94C748"/>
<path d="M232.417 434.76L233.057 434.32L171.647 401.53L170.938 401.93L232.417 434.76Z" fill="#94C748"/>
<path d="M162.828 474.65L169.078 478.41L162.828 474.65Z" fill="#6A9A23"/>
<path d="M173.64 475.31L169.77 472.99L173.64 475.31Z" fill="#6A9A23"/>
<path d="M170.258 477.75L169.828 478.02L169.758 477.97L169.078 478.41L169.238 478.5L172.018 476.72L173.858 475.45L173.718 475.36L170.258 477.75Z" fill="#6A9A23"/>
<path d="M169.761 477.97L162.121 473.39L103.921 438.84L108.271 436.44L108.221 436.41L103.141 439.21L122.601 450.76L162.581 474.5L162.831 474.65L169.081 478.41L169.761 477.97Z" fill="#6A9A23"/>
<path d="M169.758 477.97L169.828 478.02L170.258 477.75L173.718 475.36L173.638 475.31L170.108 477.75L169.758 477.97Z" fill="#6A9A23"/>
<path d="M162.122 473.39L169.762 477.97L170.112 477.75L173.642 475.31L169.772 472.99L165.152 470.21L108.272 436.44L103.922 438.84L162.122 473.39Z" fill="#6A9A23"/>
</g>
<defs>
<clipPath id="clip0_287_67881">
<rect width="960" height="540" fill="white"/>
</clipPath>
</defs>
</svg>
