<svg width="960" height="540" viewBox="0 0 960 540" fill="none" xmlns="http://www.w3.org/2000/svg">
<g clip-path="url(#clip0_287_68449)">
<path d="M333.173 319.54H333.023H290.883V319.92V346.29H359.773V277.41H333.613H333.173V319.54Z" fill="#BF63F3"/>
<path d="M538.64 81.5098L465.48 84.5898L445.13 85.4398L414.98 141.9L540.96 136.6L539.4 99.6198L538.64 81.5098Z" fill="#BF63F3"/>
<path d="M685.55 285.12C685.55 269.52 684.51 254.95 682.97 241.78L682.51 238.67C680.77 252.64 679.57 268.28 679.57 285.11C679.57 301.94 680.75 317.35 682.47 331.24L683.26 325.9C684.64 313.41 685.55 299.72 685.55 285.11V285.12Z" fill="#BF63F3"/>
<path d="M116.457 70.3202C114.587 71.7302 112.587 72.8402 110.487 73.5902C108.387 74.3402 106.177 74.7302 103.917 74.7302C99.9572 74.7302 95.8572 73.5502 91.6872 71.2502C88.3272 69.4002 84.9072 66.8102 81.3872 63.4702C80.0072 66.3602 78.6572 69.5702 77.3472 73.1302L74.9972 72.2702L77.3472 73.1402C76.8772 74.4102 76.5272 75.8602 76.1572 77.4002C75.7872 78.9402 75.4072 80.5902 74.7972 82.2402L73.9272 84.5902L32.2472 69.2202L20.3672 78.1802C23.2572 82.8902 27.0572 87.9502 31.6272 94.0002C45.3572 112.21 59.3472 125.32 73.1172 133.86C86.8972 142.39 100.447 146.36 113.467 146.36C128.507 146.36 142.947 141.06 156.327 130.99C160.707 127.69 164.497 124.32 167.797 120.89C158.687 114.94 151.777 107.93 146.287 100.39C140.297 92.1602 135.977 83.3202 132.147 74.4502C129.547 68.8202 127.277 63.7702 124.967 59.4502C124.377 60.7502 123.727 62.0202 122.977 63.2102C121.287 65.9002 119.147 68.3002 116.457 70.3302V70.3202Z" fill="#BF63F3"/>
<path d="M699.461 173.43V173.47L699.381 173.66C699.321 173.83 699.231 174.08 699.121 174.4C698.901 175.05 698.581 176.01 698.191 177.25C697.401 179.74 696.301 183.37 695.041 188.02C692.531 197.31 689.391 210.63 686.841 226.86C686.771 227.33 686.651 228.02 686.531 228.71C686.481 228.99 686.441 229.27 686.391 229.54C688.771 245.72 690.551 264.53 690.551 285.12C690.551 305.71 688.861 323.55 686.571 339.44C686.591 339.75 686.611 340.08 686.631 340.42C686.691 341.43 686.751 342.51 686.801 343.08C686.811 343.24 686.831 343.36 686.831 343.38C691.571 373.57 698.361 393.7 699.341 396.51C699.401 396.68 699.441 396.79 699.451 396.81L700.391 399.22L691.541 402.28L744.611 420.59C746.911 413.94 753.461 393.62 758.691 364.33L758.641 364.61L758.691 364.34C762.601 342.35 765.761 315.33 765.761 285.13C765.761 254.93 762.601 227.95 758.691 205.92C753.491 176.63 746.911 156.31 744.611 149.66L691.541 167.97L700.391 171.02L699.451 173.43H699.461Z" fill="#BF63F3"/>
<path d="M83.8097 58.72L83.7597 58.82C87.4397 62.45 90.8997 65.11 94.1097 66.87C97.7197 68.86 100.97 69.73 103.92 69.73C105.62 69.73 107.23 69.44 108.81 68.88C110.39 68.32 111.93 67.47 113.45 66.32C115.65 64.66 117.35 62.75 118.75 60.53C119.97 58.59 120.94 56.39 121.75 53.93V53.91L122.12 52.82C122.31 52.2 122.49 51.55 122.66 50.89C119.39 46.42 115.59 43.09 110.47 41.2C100.23 37.42 90.4597 41.88 81.9297 56.73C82.1397 56.95 82.3497 57.19 82.5597 57.4L83.8197 58.7L83.8097 58.72Z" fill="#BF63F3"/>
<path d="M960 200.82L953.2 217.8H909.6L908.6 220.3H905.75L884.37 273.69H801.26L913.67 17.53H955.4L955.84 16.53L956.5 15.03H959.08L960.01 12.92V0H847.52V90.04H749.81V51.35H657.85V110.37H598.83V51.35H657.85V0H452.74L471.97 34.92L447.72 80.33L496.86 78.26L543.43 76.3L546.17 141.38L412.1 147.02L402.58 164.84H322.31L401.22 33.55L379.68 0H295.79C300.63 6.44 304.39 11.52 306.93 16.13L307.97 18.03L295.36 27.54L295.46 27.58L293.04 29.41L307.13 34.61C305.72 40.74 303.27 47.37 300.3 55.44C275.14 123.67 232.41 144.56 188.38 128.32C183.02 126.35 178.23 124.11 173.9 121.67C173.78 121.8 173.67 121.93 173.56 122.06L170.74 125.2L170.7 125.09C167.38 128.45 163.63 131.75 159.37 134.96C145.3 145.58 129.75 151.35 113.5 151.34C99.45 151.34 84.95 147.03 70.52 138.09C56.08 129.14 41.69 115.58 27.67 96.99C22.5 90.13 18.18 84.42 14.94 78.76L13.85 76.85L29.03 65.4L14.38 60C15.53 54.59 17.97 47.95 21.21 39.17C26.9 23.69 33.59 10.68 41.02 0H0V183.95L126.38 210.91L112.21 277.34L112.32 277.38V277.44L130.64 284.13L103.4 358.81L0 321.09V540H33.7C34.37 514.05 35.17 477.72 34.46 477.01L103.12 439.19L96.67 435.36L92.91 433.13L165.32 393.25L307.89 469.39V540H371.02L395.68 534.86L394.03 532.6L396.8 532.03C394.58 528.8 392.48 525.41 390.55 521.82C383.84 509.34 379.88 496.6 378.79 483.95C376.54 457.9 386.49 433.64 407.54 413.79C415.84 405.97 425.76 398.93 437.02 392.87C447.83 387.06 458.83 382.83 469.7 380.29C497.8 373.74 523.5 378.86 544.03 395.09C554.02 402.99 562.48 413.31 569.19 425.79C575.81 438.11 579.72 450.74 580.79 463.32C581.71 474.05 580.56 484.47 577.44 494.4L580.39 493.78L579.39 496.59L659.12 479.98L651.68 448.33L716.2 490.39L688.09 540H809.89L848.31 451.23L847.17 447.57L848.7 444.05L807.26 311.15H893.73L900.18 331.82H902.79L903.57 334.32H958.68L927.88 412.29L929.06 416.08L927.6 419.78L949.51 490.05H899.84L898.85 492.55H896.17L877.43 540H959.98V200.82H960ZM364.77 351.29H285.88V319.53H218.84V364.16H174.21V319.53H218.84V205.36H333.01V272.4H364.77V351.29ZM531.55 310.21L494.72 337.47L469.68 305.06L444.63 337.47L407.43 310.21L431.74 278.9L396.01 267.11L410.74 225.12L446.1 236.91V201.92H492.88V236.91L528.61 225.12L543.34 267.11L507.24 278.9L531.55 310.21ZM763.62 365.21C757.31 400.56 749.08 423.03 748.48 424.63L747.63 426.92L679.98 403.57L621.48 423.76C620.92 422.27 612.7 399.93 606.46 364.77C602.53 342.62 599.35 315.5 599.35 285.12C599.35 254.74 602.53 227.58 606.46 205.47C612.74 170.31 620.92 147.97 621.48 146.48L679.99 166.67L747.64 143.33L748.49 145.61C749.09 147.21 757.35 169.69 763.63 205.04C767.58 227.31 770.78 254.57 770.78 285.12C770.78 315.67 767.58 342.97 763.63 365.21H763.62Z" fill="#BF63F3"/>
<path d="M210.773 54.0399C221.173 57.8799 231.073 53.2599 239.703 37.8299C239.523 37.6499 239.343 37.4599 239.173 37.2799C235.133 33.1899 231.333 30.2699 227.843 28.3899C224.353 26.5199 221.193 25.6899 218.313 25.6899C216.613 25.6899 215.003 25.9699 213.423 26.5399C211.853 27.0999 210.303 27.9499 208.793 29.0899C206.473 30.8399 204.713 32.8599 203.283 35.2399C202.023 37.3299 201.033 39.7299 200.213 42.4199V42.4399L199.873 43.5399C199.703 44.1499 199.543 44.7899 199.383 45.4299C202.483 49.3599 206.063 52.3099 210.773 54.0399Z" fill="#BF63F3"/>
<path d="M232.509 434.81L173.719 475.36L173.859 475.45L281.269 540H302.889V472.39L232.509 434.81Z" fill="#BF63F3"/>
<path d="M429.11 479.64C428.21 469.19 432.49 459.65 442.19 450.48C444.38 448.41 446.81 446.42 449.44 444.49C446.79 446.42 444.35 448.42 442.16 450.49C432.45 459.65 428.17 469.17 429.07 479.61C429.57 485.37 431.56 491.53 435 497.92C436.69 501.06 438.53 503.87 440.5 506.34C438.55 503.88 436.72 501.09 435.05 497.98C431.61 491.57 429.61 485.4 429.11 479.64Z" fill="#BF63F3"/>
<path d="M165.36 398.95L102.98 433.3L108.2 436.4L170.86 401.88L165.36 398.95Z" fill="#BF63F3"/>
<path d="M169.242 478.5L169.082 478.41L73.1016 540H271.562L169.242 478.5Z" fill="#BF63F3"/>
<path d="M609.98 540H673.23L670.01 526.3L609.98 540Z" fill="#BF63F3"/>
<path d="M196.848 36.9598C197.468 35.4598 198.178 34.0198 198.998 32.6598C200.718 29.7898 202.938 27.2298 205.778 25.0998C209.508 22.2698 213.768 20.6898 218.308 20.6998C222.158 20.6998 226.148 21.8198 230.208 23.9998C233.498 25.7698 236.858 28.2498 240.308 31.4398C241.628 28.6398 242.928 25.5498 244.188 22.1298L248.558 10.2898L289.778 25.4898L301.458 16.6798C298.898 12.4498 295.078 7.36977 290.178 0.879766C289.958 0.589766 289.728 0.299766 289.508 0.00976562H178.648C182.838 6.65977 186.148 13.6798 189.088 20.8598C191.898 26.9898 194.338 32.4198 196.848 36.9698V36.9598Z" fill="#BF63F3"/>
<path d="M749.788 0H657.828V51.35H749.788V0Z" fill="#C97CF4"/>
<path d="M960 15.0299V12.9199L959.07 15.0299H960Z" fill="#C97CF4"/>
<path d="M953.202 217.8L960.002 200.82V91.9502L909.602 217.8H953.202Z" fill="#C97CF4"/>
<path d="M395.668 534.86L371.008 540H399.618C398.478 538.61 397.368 537.2 396.308 535.74L395.668 534.86Z" fill="#C97CF4"/>
<path d="M666.902 513.05L659.122 480H659.142V479.98L579.412 496.59L578.922 497.97C574.112 511.56 565.662 524.19 553.832 535.36C552.152 536.95 550.402 538.48 548.602 540H609.992L670.022 526.3L666.912 513.06L666.902 513.05Z" fill="#C97CF4"/>
<path d="M861.21 492.55L848.33 451.23L809.91 540H877.45L896.19 492.55H861.21Z" fill="#C97CF4"/>
<path d="M958.688 334.32H903.578L927.898 412.29L958.688 334.32Z" fill="#C97CF4"/>
<path d="M763.619 205.04C757.349 169.69 749.079 147.21 748.479 145.61L747.629 143.33L679.979 166.67L680.049 166.7L683.949 165.35L691.539 167.97L744.609 149.66C746.909 156.3 753.489 176.63 758.689 205.92C762.599 227.95 765.759 254.93 765.759 285.13C765.759 315.33 762.599 342.35 758.689 364.34L758.639 364.61L758.689 364.33C753.459 393.61 746.899 413.94 744.609 420.59L691.539 402.28L683.959 404.9L680.049 403.55L679.969 403.58L747.619 426.93L748.469 424.64C749.069 423.03 757.299 400.56 763.609 365.22C767.559 342.99 770.759 315.68 770.759 285.13C770.759 254.58 767.559 227.31 763.609 205.04H763.619Z" fill="#C97CF4"/>
<path d="M683.26 325.91L683.961 321.18L686.44 337.86C686.49 338.21 686.52 338.55 686.55 338.99C686.56 339.13 686.571 339.29 686.581 339.45C688.871 323.55 690.56 305.19 690.56 285.13C690.56 265.07 688.781 245.73 686.401 229.55C686.341 229.93 686.28 230.27 686.25 230.51L683.781 247.18L682.98 241.79C684.53 254.96 685.56 269.52 685.56 285.13C685.56 299.73 684.651 313.43 683.271 325.92L683.26 325.91Z" fill="#C97CF4"/>
<path d="M124.23 287.12L111.26 282.39L110.59 285.49L0 262.09V315.77L100.42 352.4L124.23 287.12Z" fill="#AF59E0"/>
<path d="M130.64 284.14L112.31 277.45L111.26 282.39L124.23 287.12L100.42 352.4L0 315.77V321.09L103.4 358.81L130.64 284.14Z" fill="#C97CF4"/>
<path d="M528.598 225.13L492.878 236.92V201.92H446.098V236.92L410.738 225.13L396.008 267.12L431.738 278.9L407.428 310.21L444.628 337.47L469.668 305.05L494.718 337.47L531.548 310.21L507.238 278.9L543.338 267.12L528.598 225.13Z" fill="#C97CF4"/>
<path d="M749.801 90.04H847.511V0H808.971V51.35H808.821H749.951V0H749.801V51.35V90.04Z" fill="#AF59E0"/>
<path d="M657.833 51.3501H598.812V110.37H657.833V51.3501Z" fill="#AF59E0"/>
<path d="M333.02 272.41V205.37H218.84V319.54H285.88V272.41H333.02Z" fill="#C97CF4"/>
<path d="M14.3594 60L29.0094 65.4L30.2894 64.43L66.2894 37.28L66.3394 37.35L66.4394 37.28L74.0394 47.36C76.7594 50.96 79.3794 54.05 81.9194 56.73C90.4494 41.88 100.219 37.42 110.459 41.2C115.579 43.09 119.369 46.42 122.649 50.89C122.679 50.76 122.719 50.64 122.759 50.51C123.169 48.9 123.529 47.2 123.869 45.4C124.699 40.92 125.359 35.86 126.129 30.27C127.059 20.52 128.599 10.83 131.929 1.32998C132.089 0.879981 132.249 0.42998 132.419 -0.0200195H41.0194C33.5794 10.66 26.8994 23.67 21.1894 39.15C17.9494 47.93 15.5094 54.56 14.3594 59.98V60Z" fill="#C97CF4"/>
<path d="M255.023 57.9501L254.923 58.0201L253.413 56.0201C252.353 54.6101 251.513 53.1501 250.713 51.7801C249.913 50.4101 249.163 49.1201 248.343 48.0401C245.353 44.0701 242.463 40.6801 239.693 37.8201C231.063 53.2501 221.163 57.8701 210.763 54.0301C206.053 52.2901 202.473 49.3401 199.373 45.4201C199.343 45.5401 199.313 45.6501 199.283 45.7701C198.353 49.6701 197.663 54.1001 196.963 59.0201C196.683 60.9801 196.403 63.0201 196.103 65.1301C195.273 72.3001 194.183 79.5501 192.283 86.7601C191.653 89.1701 190.923 91.5701 190.093 93.9701C189.163 96.6501 188.083 99.3101 186.853 101.97C186.563 102.58 186.273 103.2 185.963 103.81C185.663 104.42 185.353 105.02 185.033 105.63C184.363 106.9 183.653 108.17 182.893 109.42C182.633 109.85 182.373 110.27 182.103 110.7C181.703 111.33 181.293 111.97 180.873 112.6C180.103 113.76 179.293 114.91 178.443 116.05C177.043 117.93 175.523 119.8 173.883 121.65C178.213 124.09 183.003 126.32 188.363 128.3C232.393 144.54 275.123 123.65 300.283 55.4201C303.253 47.3501 305.703 40.7201 307.113 34.5901L293.023 29.3901L255.063 58.0101L255.003 57.9401L255.023 57.9501Z" fill="#C97CF4"/>
<path d="M955.398 17.5303H913.668L801.258 273.69H884.368L905.748 220.3H866.418L955.398 17.5303Z" fill="#AF59E0"/>
<path d="M446.831 512.76C444.591 510.98 442.471 508.83 440.491 506.34C438.511 503.87 436.671 501.06 434.991 497.92C431.551 491.53 429.561 485.37 429.061 479.61C428.161 469.17 432.441 459.65 442.151 450.49C444.351 448.42 446.791 446.42 449.431 444.49C452.901 441.95 456.741 439.53 460.931 437.28C467.821 433.57 474.641 430.92 481.181 429.39C494.141 426.37 504.471 428.09 512.761 434.65C517.311 438.25 521.351 443.31 524.771 449.69C528.121 455.92 530.061 461.97 530.551 467.66C531.451 478.18 527.171 487.76 517.461 496.94C512.571 501.56 506.601 505.79 499.701 509.5C498.351 510.23 497.011 510.9 495.671 511.55L577.421 494.39C580.541 484.46 581.681 474.03 580.771 463.31C579.691 450.73 575.791 438.1 569.171 425.78C562.461 413.3 554.001 402.98 544.011 395.08C523.481 378.85 497.771 373.73 469.681 380.28C458.811 382.82 447.811 387.05 437.001 392.86C425.731 398.92 415.811 405.96 407.521 413.78C386.471 433.63 376.531 457.9 378.771 483.94C379.861 496.59 383.821 509.33 390.531 521.81C392.461 525.4 394.561 528.8 396.781 532.02L460.651 518.84C455.471 517.99 450.881 515.97 446.821 512.75L446.831 512.76Z" fill="#C97CF4"/>
<path d="M170.859 401.88L108.199 436.4L108.269 436.44L170.939 401.93L170.859 401.88Z" fill="#C97CF4"/>
<path d="M162.829 474.65L162.599 474.51L122.599 450.76L103.139 439.21H103.119L34.4592 477.01C35.1692 477.72 34.3592 514.05 33.6992 540H73.0992L169.079 478.41L162.829 474.65Z" fill="#C97CF4"/>
<path d="M173.72 475.36L232.51 434.81L170.94 401.93L108.27 436.44L165.15 470.21L165.16 470.22L169.77 472.99L173.72 475.36Z" fill="#AF59E0"/>
<path d="M949.529 490.05L927.619 419.78L899.859 490.05H949.529Z" fill="#C97CF4"/>
<path d="M900.19 331.82L893.74 311.15H807.27L848.71 444.04L897.289 331.82H900.19Z" fill="#C97CF4"/>
<path d="M667.537 399.22L668.457 396.82L668.477 396.77L668.547 396.58C668.607 396.41 668.697 396.16 668.807 395.84C669.027 395.19 669.347 394.23 669.737 392.99C670.527 390.5 671.627 386.87 672.887 382.22C675.397 372.93 678.537 359.61 681.087 343.38C681.087 343.35 681.127 343.03 681.157 342.65C681.187 342.26 681.217 341.79 681.247 341.29C681.307 340.29 681.367 339.21 681.427 338.47C681.447 338.25 681.467 338.07 681.497 337.86L682.477 331.25C680.757 317.35 679.577 301.83 679.577 285.12C679.577 268.41 680.777 252.65 682.517 238.68L681.307 230.5C681.227 229.95 681.207 229.43 681.197 228.89C681.177 228.36 681.167 227.82 681.147 227.41C681.137 227.14 681.117 226.91 681.097 226.85L681.127 227.02L681.097 226.86C676.357 196.67 669.567 176.54 668.587 173.72C668.527 173.54 668.487 173.43 668.477 173.41L667.557 171.01L680.077 166.69L680.007 166.66L621.497 146.47C620.937 147.96 612.757 170.3 606.477 205.46C602.547 227.57 599.367 254.73 599.367 285.11C599.367 315.49 602.547 342.61 606.477 364.76C612.717 399.92 620.937 422.26 621.497 423.75L679.997 403.56L680.077 403.53L667.567 399.21L667.537 399.22Z" fill="#C97CF4"/>
<path d="M112.21 277.34L126.38 210.91L0 183.95V236.35L110.28 276.64L112.21 277.34Z" fill="#C97CF4"/>
<path d="M322.301 164.85H402.571L412.091 147.03L380.391 148.36L377.761 85.77L377.651 83.28L447.711 80.33L471.961 34.92L452.731 0H379.681L401.211 33.56L322.301 164.85Z" fill="#C97CF4"/>
<path d="M382.859 88.0599L385.179 143.15L414.979 141.9L445.129 85.4399L382.859 88.0599Z" fill="#AF59E0"/>
<path d="M538.641 81.5098L539.401 99.6198L538.641 81.5098Z" fill="#BF63F3"/>
<path d="M377.758 85.7698L380.388 148.36L412.088 147.03L546.158 141.39V141.38L412.088 147.03L414.818 141.91L540.958 136.6L414.978 141.9L385.178 143.15L382.858 88.0598L445.128 85.4398L465.478 84.5898L444.968 85.4498L447.708 80.3298L496.848 78.2598L447.708 80.3298L377.648 83.2798L377.758 85.7698Z" fill="#BF63F3"/>
<path d="M333.173 319.54V277.41H290.883V319.54H333.023H333.173Z" fill="#AF59E0"/>
<path d="M218.841 319.54H174.211V364.17H218.841V319.54Z" fill="#AF59E0"/>
<path d="M113.451 66.33C111.931 67.48 110.391 68.32 108.811 68.89C107.231 69.45 105.621 69.74 103.921 69.74C100.961 69.74 97.7106 68.87 94.1106 66.88C90.9006 65.11 87.4406 62.45 83.7606 58.83L82.9706 60.33C82.4406 61.33 81.9106 62.39 81.3906 63.48C84.9106 66.81 88.3406 69.4 91.6906 71.26C95.8606 73.56 99.9606 74.74 103.921 74.74C106.191 74.74 108.391 74.35 110.491 73.6C112.591 72.85 114.581 71.74 116.461 70.33C119.151 68.3 121.291 65.9 122.981 63.21C123.731 62.01 124.381 60.75 124.971 59.45C124.121 57.85 123.261 56.34 122.381 54.96L121.751 53.96C120.931 56.42 119.961 58.62 118.751 60.56C117.351 62.78 115.651 64.69 113.451 66.35V66.33Z" fill="#C97CF4"/>
<path d="M208.79 29.09C210.31 27.95 211.85 27.1 213.42 26.54C215 25.98 216.61 25.69 218.31 25.69C221.19 25.69 224.35 26.52 227.84 28.39C231.33 30.26 235.13 33.19 239.17 37.28C239.35 37.46 239.52 37.65 239.7 37.83C242.47 40.69 245.36 44.08 248.35 48.05C249.17 49.13 249.92 50.42 250.72 51.79C251.52 53.16 252.36 54.62 253.42 56.03L254.93 58.03L255.03 57.96L253.58 56.04C252.52 54.63 251.68 53.17 250.88 51.8C250.08 50.43 249.33 49.14 248.51 48.06C245.32 43.83 242.25 40.25 239.31 37.28L238.03 35.99L238.86 34.38C239.34 33.44 239.83 32.46 240.3 31.45C236.85 28.26 233.49 25.78 230.2 24.01C226.15 21.83 222.16 20.71 218.3 20.71C213.77 20.71 209.51 22.28 205.77 25.11C202.93 27.25 200.71 29.8 198.99 32.67C198.17 34.04 197.47 35.47 196.84 36.97C197.72 38.57 198.62 40.06 199.54 41.43L200.2 42.42C201.02 39.73 202.01 37.34 203.27 35.24C204.7 32.86 206.46 30.84 208.78 29.09H208.79Z" fill="#C97CF4"/>
<path d="M301.46 16.67L289.78 25.48L295.36 27.54L307.97 18.03L306.93 16.13C304.39 11.52 300.64 6.43 295.79 0H289.52C289.74 0.29 289.97 0.57 290.19 0.87C295.09 7.36 298.9 12.44 301.47 16.67H301.46Z" fill="#C97CF4"/>
<path d="M167.81 120.87C164.51 124.3 160.72 127.67 156.34 130.97C142.96 141.05 128.53 146.34 113.48 146.34C100.46 146.34 86.9198 142.37 73.1298 133.84C59.3498 125.31 45.3698 112.19 31.6398 93.9803C27.0798 87.9303 23.2798 82.8803 20.3798 78.1603L32.2598 69.2003L26.7898 67.1803L66.3498 37.3503L66.2998 37.2803L30.2998 64.4303L29.0198 65.4003L13.8398 76.8503L14.9298 78.7603C18.1698 84.4303 22.4798 90.1303 27.6598 96.9903C41.6798 115.58 56.0698 129.14 70.5098 138.09C84.9398 147.03 99.4398 151.35 113.49 151.34C129.73 151.34 145.29 145.58 159.36 134.96C163.62 131.75 167.37 128.45 170.69 125.09L169.62 122.01C169.01 121.63 168.41 121.25 167.82 120.87H167.81Z" fill="#C97CF4"/>
<path d="M199.869 43.54C199.659 44.27 199.469 45.02 199.289 45.78C199.319 45.66 199.349 45.55 199.379 45.43C199.539 44.79 199.699 44.15 199.869 43.54Z" fill="#C97CF4"/>
<path d="M173.551 122.05C173.671 121.92 173.781 121.79 173.891 121.66C175.531 119.81 177.051 117.94 178.451 116.06C176.951 118.08 175.321 120.07 173.551 122.05Z" fill="#C97CF4"/>
<path d="M180.883 112.61C181.303 111.98 181.713 111.35 182.113 110.71C181.713 111.34 181.303 111.98 180.883 112.61Z" fill="#C97CF4"/>
<path d="M185.969 103.83C186.269 103.22 186.569 102.6 186.859 101.99C186.569 102.6 186.279 103.22 185.969 103.83Z" fill="#C97CF4"/>
<path d="M182.891 109.44C183.651 108.18 184.361 106.92 185.031 105.65C184.361 106.92 183.651 108.19 182.891 109.44Z" fill="#C97CF4"/>
<path d="M134.587 9.78023C134.287 10.9202 134.017 12.0702 133.757 13.2202C133.247 15.5202 132.807 17.8402 132.427 20.1802C132.057 22.5202 131.737 24.8802 131.467 27.2502C131.337 28.4402 131.208 29.6302 131.098 30.8302V30.8802L131.087 30.9302C129.907 39.3902 129.008 46.7802 127.188 53.2302C130.487 58.6702 133.337 65.1002 136.697 72.3502V72.3702L136.727 72.4102C140.497 81.1502 144.677 89.6502 150.337 97.4302C155.667 104.74 162.288 111.42 171.208 117.13C178.038 109.13 182.407 100.85 185.367 92.3502C185.757 91.2202 186.127 90.0802 186.477 88.9402C186.827 87.8002 187.147 86.6602 187.447 85.5102C189.257 78.6202 190.327 71.6102 191.137 64.5402V64.5102V64.4702C192.037 58.1402 192.767 52.3802 193.837 47.1702C194.017 46.3002 194.208 45.4502 194.408 44.6102C194.518 44.1402 194.648 43.6902 194.768 43.2302C191.138 37.5602 188.118 30.7002 184.518 22.8902L184.497 22.8402L184.477 22.7902C181.197 14.7402 177.497 7.06023 172.667 -0.00976562H137.768C137.368 0.990234 136.997 1.99023 136.647 2.99023C135.857 5.23023 135.177 7.49024 134.577 9.77024L134.587 9.78023Z" fill="#AF59E0"/>
<path d="M126.13 30.28C125.36 35.87 124.7 40.93 123.87 45.41C123.54 47.21 123.17 48.91 122.76 50.52C122.73 50.65 122.69 50.77 122.65 50.9C122.48 51.56 122.3 52.21 122.11 52.83L121.73 53.92V53.94L122.38 54.94C123.26 56.33 124.12 57.84 124.97 59.43C127.28 63.75 129.55 68.8 132.15 74.43C135.98 83.3 140.3 92.14 146.29 100.37C151.78 107.91 158.68 114.91 167.8 120.87C168.39 121.26 168.99 121.64 169.6 122.01L170.67 125.09L170.71 125.2L173.53 122.06C175.31 120.08 176.93 118.08 178.43 116.07C179.28 114.93 180.09 113.78 180.86 112.62C181.28 111.99 181.69 111.36 182.09 110.72C182.36 110.29 182.62 109.87 182.88 109.44C183.64 108.18 184.35 106.92 185.02 105.65C185.34 105.05 185.65 104.44 185.95 103.83C186.25 103.22 186.55 102.6 186.84 101.99C188.08 99.34 189.15 96.67 190.08 93.99C190.91 91.59 191.64 89.19 192.27 86.78C194.17 79.57 195.26 72.32 196.09 65.15C196.39 63.04 196.67 61 196.95 59.04C197.65 54.12 198.34 49.69 199.27 45.79C199.45 45.02 199.65 44.27 199.85 43.55L200.21 42.45V42.43L199.53 41.44C198.61 40.07 197.72 38.58 196.83 36.98C194.32 32.43 191.88 27 189.07 20.87C186.14 13.69 182.83 6.67002 178.63 0.0200195H172.66C177.48 7.09002 181.18 14.77 184.47 22.82L184.49 22.87L184.51 22.92C188.11 30.73 191.13 37.59 194.76 43.26C194.64 43.72 194.51 44.17 194.4 44.64C194.2 45.48 194.01 46.33 193.83 47.2C192.76 52.41 192.03 58.16 191.13 64.5V64.54V64.57C190.32 71.64 189.25 78.65 187.44 85.54C187.14 86.69 186.81 87.83 186.47 88.97C186.12 90.11 185.75 91.25 185.36 92.38C182.4 100.88 178.03 109.16 171.2 117.16C162.28 111.46 155.65 104.77 150.33 97.46C144.66 89.68 140.49 81.17 136.72 72.44L136.7 72.4V72.38C133.34 65.14 130.49 58.7 127.18 53.26C128.99 46.81 129.9 39.42 131.08 30.96V30.91L131.09 30.86C131.2 29.66 131.33 28.47 131.46 27.28C131.73 24.91 132.04 22.55 132.42 20.21C132.79 17.87 133.23 15.55 133.75 13.25C134.01 12.1 134.28 10.95 134.58 9.81002C135.18 7.53002 135.86 5.27002 136.65 3.03002C137 2.03002 137.38 1.03002 137.77 0.0300195H132.42C132.25 0.48002 132.09 0.93002 131.93 1.38002C128.6 10.88 127.06 20.56 126.13 30.32V30.28Z" fill="#BF63F3"/>
<path d="M874.07 215.3H905.21L960 78.5003V20.0303H959.76L874.07 215.3Z" fill="#AF59E0"/>
<path d="M956.502 15.0303L955.842 16.5303L955.402 17.5303L866.422 220.3H905.752H908.602L909.602 217.8L960.002 91.9503V78.5003L905.212 215.3H874.072L959.762 20.0303H960.002V15.0303H959.072H956.502Z" fill="#BF63F3"/>
<path d="M651.688 448.33L659.128 479.99V480L678.008 476.04L688.838 522L670.018 526.3L666.898 513.05L670.008 526.3L673.227 540H688.097L716.217 490.39L651.688 448.33Z" fill="#AF59E0"/>
<path d="M666.897 513.05L670.017 526.3L688.837 522L678.007 476.04L659.127 480H659.117L666.897 513.05Z" fill="#BF63F3"/>
<path d="M864.888 487.55H895.468L923.778 415.89L899.728 338.76L852.508 447.85L864.888 487.55Z" fill="#AF59E0"/>
<path d="M896.188 492.55H898.867L899.857 490.05L927.617 419.78L929.078 416.08L927.898 412.29L903.588 334.32L902.807 331.82H897.297L848.717 444.05L847.188 447.57L848.328 451.23L861.208 492.55H896.188ZM923.778 415.89L895.467 487.56H864.888L852.508 447.86L899.727 338.77L923.778 415.89Z" fill="#BF63F3"/>
<path d="M673.969 174.09C674.129 174.57 674.309 175.12 674.499 175.74C675.309 178.29 676.429 182 677.709 186.71C679.609 193.75 681.869 203.05 683.959 214.14C687.799 193.8 692.169 179.5 693.949 174.08L683.959 170.63L673.969 174.08V174.09Z" fill="#AF59E0"/>
<path d="M693.949 396.15C693.789 395.67 693.609 395.12 693.419 394.49C692.609 391.94 691.489 388.23 690.209 383.51C688.309 376.47 686.049 367.17 683.959 356.08C680.119 376.42 675.749 390.72 673.969 396.14L683.959 399.59L693.949 396.14V396.15Z" fill="#AF59E0"/>
<path d="M699.461 396.81C699.461 396.81 699.421 396.69 699.351 396.51C698.361 393.7 691.571 373.57 686.841 343.38C686.841 343.37 686.821 343.24 686.811 343.08C686.761 342.5 686.701 341.42 686.641 340.42C686.621 340.08 686.601 339.76 686.581 339.44C686.571 339.29 686.561 339.13 686.551 338.98C686.521 338.54 686.491 338.2 686.441 337.85L683.961 321.17L683.261 325.9L682.471 331.24L681.491 337.85C681.461 338.05 681.441 338.24 681.421 338.46C681.361 339.2 681.301 340.28 681.241 341.28C681.211 341.78 681.181 342.26 681.151 342.64C681.121 343.02 681.091 343.34 681.081 343.37C678.531 359.6 675.401 372.92 672.881 382.21C671.621 386.85 670.521 390.49 669.731 392.98C669.331 394.22 669.021 395.18 668.801 395.83C668.691 396.16 668.601 396.4 668.541 396.57L668.471 396.76L668.451 396.81L667.531 399.21L680.041 403.53L683.951 404.88L691.531 402.26L700.381 399.2L699.441 396.79L699.461 396.81ZM683.961 356.09C686.051 367.18 688.301 376.48 690.211 383.52C691.491 388.24 692.611 391.94 693.421 394.5C693.621 395.12 693.801 395.67 693.951 396.16L683.961 399.61L673.971 396.16C675.751 390.74 680.121 376.44 683.961 356.1V356.09Z" fill="#BF63F3"/>
<path d="M668.459 173.42C668.459 173.42 668.509 173.55 668.569 173.73C669.559 176.54 676.349 196.67 681.079 226.87L681.109 227.03L681.079 226.86C681.089 226.92 681.109 227.15 681.129 227.42C681.149 227.83 681.159 228.37 681.179 228.9C681.199 229.44 681.219 229.95 681.289 230.51L682.499 238.69L682.959 241.8L683.759 247.19L686.229 230.52C686.269 230.28 686.319 229.94 686.379 229.56C686.419 229.3 686.469 229.02 686.519 228.73C686.639 228.04 686.749 227.35 686.829 226.87C689.379 210.64 692.509 197.32 695.029 188.03C696.289 183.39 697.389 179.75 698.179 177.26C698.579 176.02 698.889 175.06 699.109 174.41C699.219 174.08 699.309 173.84 699.369 173.67L699.439 173.48V173.44L700.399 171.03L691.549 167.98L683.959 165.36L680.059 166.71L667.539 171.03L668.459 173.43V173.42ZM683.959 214.14C681.869 203.05 679.619 193.75 677.709 186.71C676.429 181.99 675.309 178.29 674.499 175.74C674.299 175.12 674.119 174.57 673.969 174.09L683.959 170.64L693.949 174.09C692.169 179.51 687.799 193.81 683.959 214.15V214.14Z" fill="#BF63F3"/>
<path d="M99.56 278.05L0 241.68V256.98L99.56 278.05Z" fill="#AF59E0"/>
<path d="M111.26 282.39L112.31 277.45L112.32 277.39L112.21 277.34L110.28 276.64L0 236.35V241.68L99.56 278.05L0 256.98V262.09L110.59 285.49L111.26 282.39Z" fill="#BF63F3"/>
<path d="M803.969 0H754.949V46.35H803.969V0Z" fill="#AF59E0"/>
<path d="M808.819 51.35H808.969V0H803.969V46.35H754.949V0H749.949V51.35H808.819Z" fill="#BF63F3"/>
<path d="M252.497 45.0299C253.557 46.4399 254.397 47.8999 255.197 49.2699C255.527 49.8399 255.857 50.3899 256.177 50.9299L285.137 29.0899L251.527 16.6899L248.887 23.8399C247.357 27.9899 245.757 31.6799 244.117 35.0199C246.847 37.8999 249.647 41.2199 252.507 45.0199L252.497 45.0299Z" fill="#AF59E0"/>
<path d="M248.559 10.2798L244.189 22.1198C242.929 25.5398 241.629 28.6198 240.309 31.4298C239.829 32.4398 239.349 33.4198 238.869 34.3598L238.039 35.9698L239.319 37.2598C242.259 40.2298 245.329 43.8098 248.519 48.0398C249.339 49.1198 250.089 50.4098 250.889 51.7798C251.689 53.1498 252.529 54.6098 253.589 56.0198L255.039 57.9398L255.099 58.0098L293.059 29.3898L295.479 27.5598L295.379 27.5198L289.799 25.4598L248.579 10.2598L248.559 10.2798ZM248.879 23.8498L251.519 16.6998L285.129 29.0998L256.169 50.9398C255.849 50.4098 255.519 49.8598 255.189 49.2798C254.389 47.9098 253.549 46.4498 252.489 45.0398C249.629 41.2398 246.829 37.9198 244.099 35.0398C245.749 31.6998 247.339 28.0098 248.869 23.8598L248.879 23.8498Z" fill="#BF63F3"/>
<path d="M77.7272 59.57C75.2272 56.88 72.6772 53.85 70.0572 50.38L65.4672 44.29L37.1172 65.67L70.8472 78.11C71.0072 77.51 71.1572 76.88 71.3072 76.24C71.6772 74.7 72.0572 73.05 72.6672 71.4C74.2872 67 75.9772 63.08 77.7372 59.57H77.7272Z" fill="#AF59E0"/>
<path d="M26.7891 67.19L32.2591 69.21L73.9391 84.58L74.8091 82.23C75.4191 80.57 75.7991 78.93 76.1691 77.39C76.5291 75.85 76.8791 74.4 77.3591 73.13L75.0091 72.26L77.3591 73.12C78.6691 69.57 80.0191 66.36 81.3991 63.46C81.9191 62.36 82.4491 61.31 82.9791 60.31L83.7691 58.81L83.8191 58.71L82.5591 57.41C82.3491 57.2 82.1391 56.96 81.9291 56.74C79.3891 54.05 76.7691 50.97 74.0491 47.37L66.4491 37.29L66.3491 37.36L26.7891 67.19ZM72.6591 71.4C72.0491 73.06 71.6691 74.7 71.2991 76.24C71.1491 76.88 70.9991 77.5 70.8391 78.11L37.1091 65.67L65.4591 44.29L70.0491 50.38C72.6691 53.85 75.2191 56.88 77.7191 59.57C75.9591 63.07 74.2691 67 72.6491 71.4H72.6591Z" fill="#BF63F3"/>
<path d="M444.97 85.4498L465.48 84.5898L538.64 81.5098L539.4 99.6198L540.96 136.6L414.82 141.91L412.09 147.03L546.16 141.38L543.43 76.2998L496.85 78.2598L447.71 80.3298L444.97 85.4498Z" fill="#C97CF4"/>
<path d="M333.613 277.41H359.773V346.29H290.883V319.92H285.883V351.29H288.383H364.773V272.41H333.613V277.41Z" fill="#C97CF4"/>
<path d="M290.883 319.54V277.41H333.173H333.613V272.41H333.023H285.883V319.54V319.92H290.883V319.54Z" fill="#BF63F3"/>
<path d="M172.022 476.72L169.242 478.5L271.562 540H281.272L173.862 475.45L172.022 476.72Z" fill="#C97CF4"/>
<path d="M165.32 393.26L92.9102 433.14L96.6702 435.37L103.12 439.2L103.14 439.21L108.22 436.41L165.15 470.21L169.77 472.99L165.16 470.22L165.15 470.21L108.27 436.44L108.2 436.4L102.98 433.3L165.36 398.95L170.86 401.88L170.94 401.93L232.51 434.81L302.89 472.39V540H307.89V469.39L165.32 393.26Z" fill="#C97CF4"/>
<path d="M122.602 450.76L162.602 474.51L162.832 474.65L162.582 474.5L122.602 450.76Z" fill="#C97CF4"/>
<path d="M122.601 450.76L162.581 474.5L162.831 474.65L169.081 478.41L169.241 478.5L172.021 476.72L173.861 475.45L173.721 475.36L169.771 472.99L165.151 470.21L108.221 436.41L103.141 439.21L122.601 450.76Z" fill="#BF63F3"/>
<path d="M517.479 496.95C527.189 487.77 531.47 478.19 530.57 467.67C530.08 461.98 528.129 455.93 524.789 449.7C521.369 443.32 517.32 438.26 512.78 434.66C504.49 428.1 494.16 426.37 481.2 429.4C474.66 430.93 467.84 433.58 460.95 437.29C456.76 439.55 452.92 441.96 449.45 444.5C446.82 446.42 444.39 448.42 442.2 450.49C432.49 459.66 428.21 469.2 429.12 479.65C429.62 485.42 431.62 491.59 435.06 497.99C436.73 501.1 438.55 503.9 440.51 506.35C442.49 508.84 444.6 510.98 446.85 512.77C450.91 516 455.5 518.01 460.68 518.86L475.95 515.71C476.69 515.56 477.279 515.48 477.799 515.35H477.81L477.89 515.32C477.96 515.3 478.07 515.27 478.23 515.23H478.27L495.73 511.56C497.07 510.91 498.41 510.24 499.76 509.51C506.65 505.8 512.63 501.58 517.52 496.95H517.479Z" fill="#BF63F3"/>
<path d="M572.55 500.53L479.36 520.09L479.28 520.12C479.2 520.14 479.09 520.18 478.93 520.21C478.13 520.4 477.48 520.49 476.92 520.6H476.93L402.75 535.9C403.86 537.3 405.01 538.67 406.19 539.99H540.61C544.08 537.36 547.35 534.6 550.39 531.72C560.46 522.21 567.85 511.71 572.55 500.53Z" fill="#AF59E0"/>
<path d="M578.908 497.97L579.398 496.59L580.398 493.78L577.448 494.4L495.698 511.56L478.238 515.22H478.198C478.048 515.27 477.938 515.3 477.858 515.32L477.778 515.34H477.768C477.248 515.47 476.658 515.56 475.918 515.7L460.648 518.85L396.778 532.03L394.008 532.6L395.658 534.86L396.298 535.74C397.358 537.19 398.468 538.61 399.608 540H406.168C404.988 538.68 403.838 537.31 402.728 535.91L476.908 520.61H476.898C477.458 520.5 478.108 520.4 478.908 520.22C479.068 520.18 479.178 520.15 479.258 520.12L479.338 520.1L572.528 500.54C567.828 511.73 560.438 522.22 550.368 531.73C547.318 534.61 544.048 537.37 540.588 540H548.578C550.378 538.49 552.128 536.95 553.808 535.36C565.638 524.19 574.078 511.57 578.898 497.97H578.908Z" fill="#BF63F3"/>
</g>
<defs>
<clipPath id="clip0_287_68449">
<rect width="960" height="540" fill="white"/>
</clipPath>
</defs>
</svg>
