<svg width="275" height="275" viewBox="0 0 275 275" fill="none" xmlns="http://www.w3.org/2000/svg">
<path d="M123.749 190.003C108.549 190.003 94.0086 184.283 81.4986 172.993C77.8486 169.693 74.3586 165.903 71.1286 161.733C67.8586 157.503 65.0286 153.113 62.7386 148.693C49.3986 123.023 53.4386 95.6726 73.8286 73.6626C77.2786 69.9426 81.1586 66.4026 85.3586 63.1526C89.4086 60.0226 93.6286 57.2526 97.8986 54.9326C124.279 40.6226 151.799 43.6126 173.389 63.1226C177.079 66.4626 180.609 70.2926 183.889 74.5226C187.119 78.6926 189.909 83.0226 192.189 87.3826C205.669 113.173 201.629 140.563 181.109 162.523C177.799 166.073 174.059 169.463 169.999 172.593C165.789 175.843 161.389 178.713 156.929 181.113C145.879 187.053 134.639 189.993 123.749 189.993V190.003ZM130.999 59.7026C122.349 59.7026 113.389 62.1126 104.429 66.9826C100.809 68.9526 97.2086 71.3126 93.7286 73.9926C90.1186 76.7826 86.7986 79.8026 83.8686 82.9726C67.4086 100.743 64.2186 121.833 74.8886 142.373C76.8086 146.063 79.1886 149.763 81.9686 153.343C84.6986 156.873 87.6286 160.063 90.6886 162.823C107.849 178.323 129.069 180.533 150.449 169.053C154.249 167.013 158.009 164.563 161.619 161.763C165.099 159.073 168.279 156.183 171.099 153.173C187.649 135.463 190.819 114.353 180.049 93.7326C178.149 90.0926 175.789 86.4426 173.059 82.9126C170.279 79.3226 167.309 76.0826 164.219 73.2926C154.219 64.2626 142.899 59.7026 131.019 59.7026H130.999Z" fill="#DDDEE1"/>
<path d="M180.267 169.723C176.727 164.793 172.927 164.823 169.217 167.693C165.737 170.383 164.807 174.023 168.517 178.813L172.757 184.293L184.507 175.203L180.267 169.723Z" fill="#DDDEE1"/>
<path d="M187.462 172.921L169.82 186.562L202.973 229.44L220.614 215.8L187.462 172.921Z" fill="#DDDEE1"/>
<path d="M184.63 175.114L172.66 184.368L183.903 198.909L195.872 189.654L184.63 175.114Z" fill="#B7B9BE"/>
<path d="M133.5 134.722H123.497V134.087C123.156 126.972 127.194 119.268 132.937 116.114L133.044 116.058C133.199 115.977 133.35 115.883 133.495 115.786C136.629 113.766 138.411 110.287 138.302 106.456C138.193 102.659 136.234 99.3209 133.062 97.5278C131.058 96.3938 128.824 95.7949 126.598 95.7949C119.825 95.7949 114.314 101.345 114.314 108.166H104.309C104.309 95.7915 114.307 85.7227 126.597 85.7227C130.535 85.7227 134.464 86.7681 137.96 88.7452C144.223 92.2871 148.088 98.7993 148.299 106.166C148.513 113.566 145.008 120.326 138.927 124.247C138.519 124.515 138.101 124.764 137.688 124.981C135.304 126.321 133.308 130.446 133.492 133.669L133.5 134.723V134.722Z" fill="#DDDEE1"/>
<path fill-rule="evenodd" clip-rule="evenodd" d="M127.531 140.497C128.034 140.413 128.585 140.363 129.148 140.363C129.626 140.363 130.167 140.391 130.737 140.487C133.998 141.023 136.65 143.31 137.294 146.871L137.299 146.898L137.304 146.925C137.386 147.422 137.438 147.962 137.438 148.533C137.438 149.1 137.387 149.647 137.3 150.152L137.298 150.163C136.668 153.762 133.975 156.041 130.726 156.57C130.165 156.663 129.642 156.693 129.148 156.693C128.575 156.693 128.04 156.641 127.551 156.562L127.549 156.561C124.285 156.033 121.62 153.749 120.973 150.188L120.967 150.159L120.963 150.13C120.881 149.641 120.828 149.11 120.828 148.533C120.828 147.962 120.88 147.422 120.963 146.925L120.967 146.896L120.973 146.867C121.623 143.29 124.298 141.039 127.527 140.498L127.531 140.497Z" fill="#DDDEE1"/>
</svg>
