<svg width="960" height="541" viewBox="0 0 960 541" fill="none" xmlns="http://www.w3.org/2000/svg">
<g clip-path="url(#clip0_287_71630)">
<path d="M419.65 228.58L960 475.14V438.6C920.78 425.92 881.73 409.14 846.86 387.21L872.2 226.64C898.91 244.31 928.98 258.96 960 270.79V0H806.38V278.92H651.77V0H472.28L598.85 19.98C565.17 116.42 503.76 187.05 419.64 228.58H419.65Z" fill="#1868DB"/>
<path d="M79.0596 539.93V436.83H308.33L177.66 371.98L182.13 270.98C157.63 269.68 132.32 267.01 106.21 262.89C73.0696 257.66 36.6297 249.79 0.139648 238.43V539.92H79.0596V539.93Z" fill="#1868DB"/>
<path d="M484.56 539.93V524.3L435.74 500.07V539.93H484.56Z" fill="#1868DB"/>
<path d="M117.19 101.27C265.18 124.62 357.5 83.82 403.8 0H321.95C307.78 46.24 271.38 74.93 222.33 82.89C213.02 84.4 203.26 85.18 193.1 85.17C182.5 85.17 172.35 84.32 162.67 82.71C113.64 74.52 77.3499 45.92 63.1699 0H0.129883V71.02C39.5199 85.46 80.1499 95.42 117.19 101.27Z" fill="#1868DB"/>
<path d="M960 539.93H664.07V540H960V539.93Z" fill="#1558BC"/>
<path d="M413.03 231.76C412.14 232.18 411.24 232.58 410.34 232.99C408.81 233.69 407.27 234.39 405.73 235.08C404.7 235.54 403.67 235.99 402.63 236.43C401.15 237.07 399.66 237.7 398.17 238.32C397.16 238.74 396.15 239.17 395.13 239.58C393.3 240.33 391.46 241.05 389.61 241.77C388.68 242.13 387.75 242.5 386.81 242.85C384.67 243.66 382.51 244.46 380.35 245.25C379.32 245.62 378.27 245.98 377.23 246.35C375.68 246.89 374.13 247.43 372.56 247.96C371.45 248.34 370.33 248.71 369.21 249.08C367.63 249.6 366.04 250.1 364.45 250.6C363.4 250.93 362.35 251.27 361.29 251.59C358.79 252.35 356.27 253.1 353.74 253.82C352.87 254.07 351.98 254.3 351.1 254.55C349.3 255.05 347.49 255.55 345.67 256.03C344.5 256.34 343.33 256.64 342.16 256.93C340.58 257.33 339 257.73 337.41 258.11C336.21 258.4 335 258.69 333.79 258.98C332.1 259.38 330.39 259.76 328.68 260.14C327.6 260.38 326.53 260.63 325.45 260.86C322.83 261.42 320.2 261.96 317.55 262.48C316.42 262.7 315.28 262.91 314.14 263.12C312.44 263.44 310.74 263.75 309.04 264.06C307.75 264.29 306.46 264.51 305.17 264.72C303.56 264.99 301.93 265.25 300.31 265.51C299.02 265.71 297.73 265.92 296.44 266.11C294.58 266.39 292.72 266.65 290.85 266.91C289.39 267.11 287.94 267.31 286.47 267.5C284.14 267.8 281.81 268.09 279.47 268.36C278.16 268.51 276.83 268.65 275.51 268.79C273.85 268.97 272.19 269.14 270.52 269.3C269.12 269.44 267.72 269.57 266.31 269.69C264.65 269.84 262.98 269.98 261.31 270.11C259.94 270.22 258.58 270.33 257.21 270.43C254.97 270.59 252.72 270.73 250.46 270.87C248.71 270.97 246.95 271.07 245.19 271.16C243.3 271.25 241.41 271.35 239.51 271.42C238.06 271.48 236.6 271.52 235.15 271.57C233.48 271.62 231.81 271.67 230.13 271.71C228.64 271.75 227.15 271.78 225.65 271.8C223.9 271.83 222.15 271.84 220.39 271.86C218.98 271.87 217.58 271.89 216.17 271.89C213.25 271.89 210.32 271.87 207.37 271.83C205.96 271.81 204.54 271.77 203.13 271.74C201.34 271.7 199.54 271.67 197.74 271.61C196.19 271.57 194.64 271.51 193.08 271.45C191.36 271.39 189.64 271.32 187.91 271.24C186.36 271.17 184.81 271.1 183.25 271.02C182.87 271 182.49 270.99 182.11 270.97L177.64 371.96L308.31 436.81H435.73V500.05L484.55 524.28V436.81H664.06V539.91H959.99V475.11L419.65 228.58C417.46 229.66 415.25 230.72 413.03 231.76Z" fill="#1558BC"/>
<path d="M162.67 82.71C172.35 84.33 182.51 85.17 193.1 85.17C203.26 85.17 213.02 84.4 222.33 82.89C271.39 74.93 307.78 46.24 321.95 0H63.1699C77.3499 45.92 113.65 74.52 162.67 82.71Z" fill="#1558BC"/>
<path d="M0.13 238.441V71.0207C0.13 71.0207 0.04 70.9907 0 70.9707V238.401C0 238.401 0.09 238.431 0.13 238.441Z" fill="#357DE8"/>
<path d="M117.19 101.27C80.1499 95.43 39.5199 85.46 0.129883 71.02V238.44C36.6199 249.8 73.0599 257.67 106.2 262.9C132.31 267.02 157.62 269.69 182.12 270.99L183.28 244.77L188.66 123.2L374.12 207.82L419.64 228.59C503.76 187.06 565.17 116.43 598.85 19.99L472.29 0H403.8C357.5 83.82 265.18 124.62 117.19 101.27Z" fill="#357DE8"/>
<path d="M309.04 264.07C307.75 264.3 306.46 264.52 305.17 264.73C306.46 264.51 307.75 264.29 309.04 264.07Z" fill="#357DE8"/>
<path d="M353.74 253.84C352.87 254.09 351.98 254.32 351.1 254.57C351.98 254.33 352.86 254.09 353.74 253.84Z" fill="#357DE8"/>
<path d="M405.73 235.08C404.7 235.54 403.67 235.99 402.63 236.43C403.66 235.98 404.7 235.53 405.73 235.08Z" fill="#357DE8"/>
<path d="M300.31 265.52C299.02 265.72 297.73 265.93 296.44 266.12C297.74 265.93 299.02 265.72 300.31 265.52Z" fill="#357DE8"/>
<path d="M188.67 123.189L374.13 207.809L188.67 123.189Z" fill="#357DE8"/>
<path d="M197.75 271.631C196.2 271.591 194.65 271.531 193.09 271.471C194.65 271.531 196.2 271.581 197.75 271.631Z" fill="#357DE8"/>
<path d="M413.03 231.76C412.14 232.18 411.24 232.58 410.34 232.99C411.24 232.58 412.14 232.17 413.03 231.76Z" fill="#357DE8"/>
<path d="M270.52 269.311C269.12 269.451 267.72 269.581 266.31 269.701C267.72 269.571 269.12 269.441 270.52 269.311Z" fill="#357DE8"/>
<path d="M380.36 245.26C379.33 245.63 378.28 245.99 377.24 246.36C378.28 245.99 379.32 245.63 380.36 245.26Z" fill="#357DE8"/>
<path d="M230.14 271.721C228.65 271.761 227.16 271.791 225.66 271.811C227.16 271.791 228.65 271.751 230.14 271.721Z" fill="#357DE8"/>
<path d="M279.47 268.359C278.16 268.509 276.83 268.649 275.51 268.789C276.83 268.649 278.15 268.509 279.47 268.359Z" fill="#357DE8"/>
<path d="M239.52 271.42C238.07 271.48 236.61 271.52 235.16 271.57C236.62 271.52 238.07 271.48 239.52 271.42Z" fill="#357DE8"/>
<path d="M250.47 270.869C248.72 270.969 246.96 271.069 245.2 271.159C246.96 271.069 248.72 270.979 250.47 270.869Z" fill="#357DE8"/>
<path d="M389.61 241.779C388.68 242.139 387.75 242.509 386.81 242.859C387.75 242.499 388.68 242.139 389.61 241.779Z" fill="#357DE8"/>
<path d="M183.29 244.76L182.13 270.98L183.29 244.76Z" fill="#357DE8"/>
<path d="M328.69 260.15C327.61 260.39 326.54 260.64 325.46 260.87C326.54 260.64 327.62 260.39 328.69 260.15Z" fill="#357DE8"/>
<path d="M337.41 258.131C336.21 258.421 335 258.711 333.79 259.001C335 258.721 336.2 258.431 337.41 258.131Z" fill="#357DE8"/>
<path d="M345.68 256.039C344.51 256.349 343.34 256.649 342.17 256.939C343.34 256.639 344.52 256.339 345.68 256.039Z" fill="#357DE8"/>
<path d="M290.85 266.92C289.39 267.12 287.94 267.32 286.47 267.51C287.93 267.32 289.39 267.12 290.85 266.92Z" fill="#357DE8"/>
<path d="M435.74 539.93H79.0596V540H435.74V539.93Z" fill="#357DE8"/>
<path d="M79.0596 539.93H435.74V500.07L308.32 436.83H79.0596V539.93Z" fill="#357DE8"/>
<path d="M484.56 539.93V540H516.19L516.05 539.93H484.56Z" fill="#357DE8"/>
<path d="M516.05 539.931L484.56 524.301V539.931H516.05Z" fill="#357DE8"/>
<path d="M314.15 263.131C312.45 263.451 310.75 263.761 309.05 264.071C310.76 263.771 312.46 263.451 314.15 263.131Z" fill="#1868DB"/>
<path d="M245.2 271.16C243.31 271.25 241.42 271.35 239.52 271.42C241.42 271.34 243.31 271.25 245.2 271.16Z" fill="#1868DB"/>
<path d="M225.66 271.811C223.91 271.841 222.16 271.851 220.4 271.871C222.16 271.861 223.91 271.841 225.66 271.811Z" fill="#1868DB"/>
<path d="M296.44 266.119C294.58 266.399 292.72 266.659 290.85 266.919C292.72 266.659 294.59 266.399 296.44 266.119Z" fill="#1868DB"/>
<path d="M286.47 267.51C284.14 267.81 281.81 268.1 279.47 268.37C281.82 268.1 284.15 267.81 286.47 267.51Z" fill="#1868DB"/>
<path d="M275.51 268.789C273.85 268.969 272.19 269.139 270.52 269.299C272.19 269.139 273.85 268.959 275.51 268.789Z" fill="#1868DB"/>
<path d="M305.17 264.73C303.56 265 301.93 265.26 300.31 265.52C301.94 265.26 303.56 265 305.17 264.73Z" fill="#1868DB"/>
<path d="M257.21 270.439C254.97 270.599 252.72 270.739 250.46 270.879C252.72 270.749 254.97 270.599 257.21 270.439Z" fill="#1868DB"/>
<path d="M410.35 233C408.82 233.7 407.28 234.4 405.74 235.09C407.29 234.41 408.82 233.71 410.35 233Z" fill="#1868DB"/>
<path d="M203.15 271.761C201.36 271.721 199.56 271.691 197.76 271.631C199.56 271.681 201.36 271.721 203.15 271.761Z" fill="#1868DB"/>
<path d="M413.03 231.76C415.25 230.72 417.46 229.66 419.65 228.58C417.46 229.66 415.26 230.72 413.04 231.76H413.03Z" fill="#1868DB"/>
<path d="M395.14 239.59C393.31 240.34 391.47 241.06 389.62 241.78C391.47 241.06 393.31 240.33 395.14 239.59Z" fill="#1868DB"/>
<path d="M182.12 271C182.5 271.02 182.88 271.03 183.26 271.05C182.88 271.03 182.5 271.01 182.12 270.99V271Z" fill="#1868DB"/>
<path d="M386.82 242.869C384.68 243.689 382.53 244.479 380.36 245.269C382.53 244.489 384.68 243.689 386.82 242.869Z" fill="#1868DB"/>
<path d="M342.16 256.949C340.58 257.349 339 257.749 337.41 258.129C339 257.739 340.58 257.349 342.16 256.949Z" fill="#1868DB"/>
<path d="M369.22 249.09C367.64 249.61 366.05 250.11 364.46 250.61C366.05 250.11 367.64 249.6 369.22 249.09Z" fill="#1868DB"/>
<path d="M377.24 246.359C375.69 246.899 374.14 247.439 372.57 247.969C374.13 247.439 375.69 246.899 377.24 246.359Z" fill="#1868DB"/>
<path d="M333.8 259C332.11 259.4 330.4 259.78 328.69 260.16C330.4 259.78 332.1 259.4 333.8 259Z" fill="#1868DB"/>
<path d="M419.65 228.581L374.13 207.811L419.65 228.581Z" fill="#1868DB"/>
<path d="M188.67 123.189L183.29 244.759L188.67 123.189Z" fill="#1868DB"/>
<path d="M183.26 271.051C184.82 271.131 186.37 271.201 187.92 271.271C189.65 271.351 191.37 271.421 193.09 271.481C194.65 271.541 196.2 271.591 197.75 271.641C199.55 271.691 201.35 271.731 203.14 271.771C204.55 271.801 205.97 271.841 207.38 271.861C210.33 271.901 213.26 271.921 216.18 271.921C217.59 271.921 218.99 271.901 220.4 271.891C222.16 271.881 223.91 271.861 225.66 271.831C227.16 271.811 228.65 271.771 230.14 271.741C231.82 271.701 233.49 271.651 235.16 271.601C236.62 271.551 238.07 271.511 239.52 271.451C241.42 271.371 243.31 271.281 245.2 271.191C246.96 271.101 248.72 271.011 250.47 270.901C252.73 270.771 254.98 270.621 257.22 270.461C258.59 270.361 259.95 270.251 261.32 270.141C262.99 270.011 264.66 269.871 266.32 269.721C267.73 269.591 269.13 269.461 270.53 269.331C272.2 269.171 273.86 268.991 275.52 268.821C276.84 268.681 278.16 268.541 279.48 268.391C281.83 268.121 284.16 267.831 286.48 267.531C287.94 267.341 289.4 267.141 290.86 266.941C292.73 266.681 294.6 266.421 296.45 266.141C297.75 265.951 299.03 265.741 300.32 265.541C301.94 265.281 303.57 265.021 305.18 264.751C306.47 264.531 307.76 264.311 309.05 264.091C310.76 263.791 312.46 263.471 314.15 263.151C315.29 262.941 316.43 262.731 317.56 262.511C320.21 261.991 322.84 261.451 325.46 260.891C326.54 260.661 327.62 260.411 328.69 260.171C330.4 259.791 332.1 259.411 333.8 259.011C335.01 258.731 336.21 258.441 337.42 258.141C339.01 257.751 340.59 257.361 342.17 256.961C343.34 256.661 344.52 256.361 345.68 256.061C347.5 255.581 349.31 255.081 351.11 254.581C351.99 254.341 352.87 254.101 353.75 253.851C356.28 253.131 358.8 252.381 361.3 251.621C362.36 251.301 363.41 250.961 364.46 250.631C366.05 250.131 367.64 249.621 369.22 249.111C370.34 248.741 371.46 248.371 372.57 247.991C374.13 247.461 375.69 246.921 377.24 246.381C378.28 246.011 379.32 245.651 380.36 245.281C382.53 244.501 384.68 243.701 386.82 242.881C387.76 242.521 388.69 242.161 389.62 241.801C391.47 241.081 393.31 240.351 395.14 239.611C396.16 239.201 397.17 238.771 398.18 238.351C399.67 237.731 401.16 237.101 402.64 236.461C403.67 236.011 404.71 235.561 405.74 235.111C407.29 234.431 408.82 233.731 410.35 233.021C411.25 232.611 412.15 232.201 413.04 231.791C415.26 230.751 417.46 229.691 419.65 228.611L374.13 207.841L188.67 123.221L183.29 244.791L182.13 271.011C182.51 271.031 182.89 271.061 183.27 271.071L183.26 271.051Z" fill="#1868DB"/>
<path d="M516.05 539.93L516.19 540H664.07V539.93H516.05Z" fill="#1868DB"/>
<path d="M664.07 539.93V436.83H484.56V524.3L516.05 539.93H664.07Z" fill="#1868DB"/>
<path d="M435.74 436.83H308.32L435.74 500.07V436.83Z" fill="#1868DB"/>
<path d="M806.38 0H651.77V278.92H806.38V0Z" fill="#1558BC"/>
<path d="M846.86 387.211C881.73 409.141 920.78 425.921 960 438.601V270.791C928.98 258.951 898.91 244.311 872.2 226.641L846.86 387.211Z" fill="#357DE8"/>
</g>
<defs>
<clipPath id="clip0_287_71630">
<rect width="960" height="540.01" fill="white"/>
</clipPath>
</defs>
</svg>
