<svg width="960" height="540" viewBox="0 0 960 540" fill="none" xmlns="http://www.w3.org/2000/svg">
<g clip-path="url(#clip0_287_71754)">
<path d="M308.32 439.331L177.65 374.481L182.12 273.481C157.62 272.181 132.31 269.511 106.2 265.391C73.02 260.151 36.53 252.271 0 240.891V540.001H79.06V439.331H308.33H308.32Z" fill="#8C8F97"/>
<path d="M435.74 502.561V540.001H484.56V526.791L435.74 502.561Z" fill="#8C8F97"/>
<path d="M419.65 231.07L960 477.63V441.09C920.78 428.41 881.73 411.63 846.86 389.7L872.2 229.13C898.91 246.8 928.98 261.45 960 273.28V0H806.38V281.41H651.77V0H456.5L598.86 22.47C565.18 118.91 503.77 189.54 419.65 231.07Z" fill="#8C8F97"/>
<path d="M405.16 0H322.69C309.07 47.71 272.26 77.28 222.33 85.38C213.02 86.89 203.26 87.67 193.1 87.66C182.5 87.66 172.35 86.81 162.67 85.2C112.76 76.86 76.05 47.38 62.42 0H0V73.46C39.43 87.93 80.11 97.91 117.19 103.76C266.64 127.34 359.32 85.5 405.16 0Z" fill="#8C8F97"/>
<path d="M419.651 231.07C417.461 232.15 415.251 233.21 413.031 234.25C412.141 234.67 411.241 235.07 410.351 235.48C408.821 236.18 407.281 236.88 405.731 237.57C404.701 238.03 403.671 238.48 402.631 238.92C401.151 239.56 399.661 240.19 398.171 240.81C397.161 241.23 396.151 241.66 395.131 242.07C393.301 242.82 391.461 243.54 389.611 244.26C388.681 244.62 387.751 244.99 386.821 245.34C384.681 246.16 382.521 246.96 380.351 247.74C379.321 248.11 378.281 248.47 377.241 248.84C375.691 249.39 374.131 249.92 372.561 250.45C371.451 250.83 370.331 251.2 369.211 251.57C367.631 252.09 366.041 252.59 364.451 253.09C363.401 253.42 362.351 253.76 361.291 254.08C358.791 254.84 356.281 255.59 353.741 256.31C352.861 256.56 351.971 256.8 351.091 257.04C349.291 257.54 347.481 258.04 345.671 258.52C344.501 258.83 343.331 259.13 342.161 259.42C340.581 259.82 339.001 260.22 337.411 260.6C336.211 260.89 335.001 261.18 333.791 261.47C332.101 261.87 330.401 262.25 328.701 262.62C327.621 262.86 326.541 263.11 325.451 263.34C322.831 263.9 320.201 264.44 317.561 264.96C316.421 265.18 315.271 265.39 314.131 265.6C312.441 265.92 310.751 266.23 309.041 266.53C307.751 266.76 306.451 266.98 305.161 267.2C303.551 267.47 301.931 267.73 300.311 267.99C299.021 268.19 297.721 268.4 296.421 268.59C294.571 268.87 292.711 269.13 290.841 269.38C289.381 269.58 287.921 269.78 286.451 269.97C284.131 270.27 281.801 270.56 279.461 270.82C278.141 270.97 276.811 271.11 275.491 271.25C273.841 271.43 272.181 271.6 270.511 271.76C269.111 271.9 267.701 272.03 266.291 272.15C264.641 272.3 262.971 272.43 261.311 272.57C259.941 272.68 258.571 272.79 257.191 272.89C254.971 273.05 252.731 273.19 250.491 273.32C248.721 273.43 246.941 273.52 245.151 273.61C243.271 273.7 241.391 273.8 239.501 273.87C238.051 273.93 236.591 273.97 235.131 274.02C233.461 274.07 231.791 274.12 230.121 274.16C228.631 274.2 227.141 274.23 225.641 274.25C223.901 274.28 222.151 274.29 220.401 274.31C218.991 274.32 217.591 274.34 216.171 274.34C213.251 274.34 210.321 274.32 207.381 274.28C205.971 274.26 204.541 274.22 203.121 274.19C201.331 274.15 199.541 274.12 197.731 274.06C196.181 274.02 194.631 273.96 193.071 273.9C191.351 273.84 189.631 273.77 187.901 273.69C186.351 273.62 184.801 273.55 183.241 273.47C182.861 273.45 182.481 273.44 182.101 273.42L177.631 374.41L308.301 439.26H435.721V502.5L484.541 526.73V439.26H664.051V539.93H959.981V477.56L419.651 231.07Z" fill="#7D818A"/>
<path d="M162.67 85.2C172.35 86.82 182.51 87.66 193.1 87.66C203.26 87.66 213.02 86.89 222.33 85.38C272.26 77.28 309.08 47.7 322.69 0H62.4199C76.0499 47.38 112.76 76.86 162.67 85.2Z" fill="#7D818A"/>
<path d="M106.2 265.39C132.31 269.51 157.62 272.18 182.12 273.48L188.66 125.68L419.64 231.07C503.76 189.54 565.17 118.91 598.85 22.47L456.5 0H405.16C359.32 85.5 266.64 127.34 117.19 103.76C80.11 97.91 39.43 87.93 0 73.46V240.89C36.54 252.27 73.02 260.15 106.2 265.39Z" fill="#7D818A"/>
<path d="M207.391 274.33C205.981 274.31 204.551 274.27 203.131 274.24C204.551 274.27 205.971 274.31 207.391 274.33Z" fill="#7D818A"/>
<path d="M197.75 274.121C196.2 274.081 194.65 274.021 193.09 273.961C194.65 274.021 196.2 274.071 197.75 274.121Z" fill="#7D818A"/>
<path d="M337.421 260.619C336.221 260.909 335.011 261.199 333.801 261.489C335.011 261.209 336.221 260.919 337.421 260.619Z" fill="#7D818A"/>
<path d="M230.14 274.211C228.65 274.251 227.16 274.281 225.66 274.301C227.16 274.281 228.65 274.241 230.14 274.211Z" fill="#7D818A"/>
<path d="M250.51 273.359C248.74 273.469 246.96 273.559 245.17 273.649C246.95 273.559 248.73 273.469 250.51 273.359Z" fill="#7D818A"/>
<path d="M279.47 270.859C278.15 271.009 276.82 271.149 275.5 271.289C276.83 271.149 278.15 271.009 279.47 270.859Z" fill="#7D818A"/>
<path d="M270.531 271.801C269.131 271.941 267.721 272.071 266.311 272.191C267.721 272.061 269.131 271.931 270.531 271.801Z" fill="#7D818A"/>
<path d="M353.75 256.33C352.87 256.58 351.98 256.82 351.1 257.06C351.98 256.81 352.87 256.58 353.75 256.33Z" fill="#7D818A"/>
<path d="M389.61 244.279C388.68 244.639 387.75 245.009 386.82 245.359C387.75 244.999 388.68 244.639 389.61 244.279Z" fill="#7D818A"/>
<path d="M300.32 268.01C299.03 268.21 297.73 268.42 296.43 268.61C297.73 268.42 299.02 268.21 300.32 268.01Z" fill="#7D818A"/>
<path d="M380.35 247.76C379.32 248.13 378.28 248.49 377.24 248.86C378.28 248.5 379.32 248.14 380.35 247.76Z" fill="#7D818A"/>
<path d="M309.05 266.561C307.76 266.791 306.46 267.011 305.17 267.231C306.47 267.011 307.76 266.791 309.05 266.561Z" fill="#7D818A"/>
<path d="M345.68 258.529C344.51 258.839 343.34 259.139 342.17 259.429C343.34 259.129 344.52 258.829 345.68 258.529Z" fill="#7D818A"/>
<path d="M405.731 237.58C404.701 238.04 403.671 238.48 402.631 238.93C403.661 238.48 404.701 238.03 405.731 237.58Z" fill="#7D818A"/>
<path d="M435.741 502.56L308.321 439.33H79.0605V540H435.741V502.56Z" fill="#7D818A"/>
<path d="M484.561 526.789V539.999H511.171L484.561 526.789Z" fill="#7D818A"/>
<path d="M183.26 273.54C184.82 273.62 186.37 273.69 187.92 273.76C189.65 273.84 191.37 273.91 193.09 273.97C194.65 274.03 196.2 274.08 197.75 274.13C199.55 274.18 201.34 274.22 203.14 274.26C204.56 274.29 205.98 274.33 207.4 274.35C210.34 274.39 213.27 274.41 216.19 274.41C217.61 274.41 219.01 274.39 220.42 274.38C222.17 274.37 223.92 274.35 225.66 274.32C227.16 274.3 228.65 274.26 230.14 274.23C231.82 274.19 233.49 274.14 235.15 274.09C236.61 274.04 238.07 274 239.52 273.94C241.41 273.86 243.29 273.77 245.17 273.68C246.95 273.59 248.73 273.5 250.51 273.39C252.75 273.26 254.99 273.12 257.21 272.96C258.59 272.86 259.96 272.75 261.33 272.64C262.99 272.51 264.66 272.37 266.31 272.22C267.72 272.09 269.13 271.96 270.53 271.83C272.19 271.67 273.85 271.5 275.51 271.32C276.84 271.18 278.16 271.04 279.48 270.89C281.82 270.62 284.15 270.33 286.47 270.04C287.94 269.85 289.4 269.65 290.86 269.45C292.72 269.19 294.59 268.93 296.44 268.66C297.74 268.47 299.03 268.26 300.33 268.06C301.95 267.8 303.57 267.54 305.18 267.27C306.48 267.05 307.77 266.83 309.06 266.6C310.76 266.3 312.46 265.98 314.15 265.67C315.29 265.46 316.44 265.25 317.58 265.03C320.22 264.51 322.86 263.97 325.47 263.41C326.56 263.18 327.64 262.93 328.72 262.69C330.42 262.31 332.12 261.93 333.81 261.54C335.02 261.26 336.23 260.97 337.43 260.67C339.02 260.28 340.6 259.89 342.18 259.49C343.35 259.19 344.53 258.89 345.69 258.59C347.51 258.11 349.31 257.61 351.11 257.11C351.99 256.86 352.88 256.63 353.76 256.38C356.29 255.66 358.8 254.91 361.31 254.15C362.37 253.83 363.42 253.49 364.47 253.16C366.06 252.66 367.65 252.15 369.23 251.64C370.35 251.27 371.47 250.9 372.58 250.52C374.15 249.99 375.7 249.45 377.26 248.91C378.3 248.55 379.34 248.19 380.37 247.81C382.54 247.03 384.69 246.23 386.84 245.41C387.77 245.05 388.7 244.69 389.63 244.33C391.48 243.61 393.32 242.88 395.15 242.14C396.17 241.73 397.18 241.3 398.19 240.88C399.68 240.26 401.17 239.63 402.65 238.99C403.68 238.54 404.72 238.09 405.75 237.64C407.3 236.95 408.84 236.25 410.37 235.55C411.26 235.14 412.16 234.74 413.05 234.32C415.27 233.28 417.48 232.22 419.67 231.14L188.69 125.75L182.15 273.55C182.53 273.58 182.91 273.6 183.29 273.61L183.26 273.54Z" fill="#8C8F97"/>
<path d="M484.561 439.33V526.79L511.171 540H664.071V439.33H484.561Z" fill="#8C8F97"/>
<path d="M435.74 439.33H308.32L435.74 502.56V439.33Z" fill="#8C8F97"/>
<path d="M806.38 0H651.77V281.41H806.38V0Z" fill="#7D818A"/>
<path d="M846.859 389.701C881.729 411.631 920.779 428.411 959.999 441.091V273.281C928.979 261.441 898.909 246.801 872.199 229.131L846.859 389.701Z" fill="#7D818A"/>
</g>
<defs>
<clipPath id="clip0_287_71754">
<rect width="960" height="540.001" fill="white"/>
</clipPath>
</defs>
</svg>
