<svg width="961" height="540" viewBox="0 0 961 540" fill="none" xmlns="http://www.w3.org/2000/svg">
<g clip-path="url(#clip0_287_71795)">
<path d="M480.92 526.791L432.09 502.561V540.001H480.92V526.791Z" fill="#C97CF4"/>
<path d="M401.52 0H319.05C305.43 47.71 268.62 77.28 218.69 85.38C209.38 86.89 199.62 87.67 189.46 87.66C178.86 87.66 168.71 86.81 159.03 85.2C109.12 76.86 72.4 47.38 58.77 0H0V74.79C38.29 88.55 77.61 98.09 113.54 103.76C263 127.34 355.67 85.5 401.52 0Z" fill="#C97CF4"/>
<path d="M416 231.07L960 479.29V442.25C919.56 429.43 879.17 412.31 843.22 389.7L868.56 229.13C896.32 247.49 927.7 262.59 960 274.66V0H802.73V281.41H648.12V0H452.85L595.21 22.47C561.53 118.91 500.12 189.54 416 231.07Z" fill="#C97CF4"/>
<path d="M75.41 439.33H304.68L174.01 374.48L178.48 273.49C153.98 272.18 128.67 269.51 102.56 265.39C70.48 260.33 35.32 252.78 0 242V540H75.41V439.33Z" fill="#C97CF4"/>
<path d="M416.001 231.07C413.811 232.15 411.601 233.21 409.381 234.25C408.491 234.67 407.591 235.07 406.691 235.48C405.161 236.18 403.621 236.88 402.081 237.57C401.051 238.03 400.011 238.48 398.981 238.92C397.501 239.56 396.021 240.19 394.531 240.81C393.521 241.23 392.511 241.66 391.491 242.07C389.661 242.82 387.821 243.54 385.971 244.26C385.041 244.62 384.111 244.99 383.181 245.34C381.041 246.16 378.881 246.96 376.711 247.74C375.681 248.11 374.641 248.47 373.601 248.84C372.051 249.39 370.491 249.92 368.931 250.45C367.821 250.83 366.701 251.2 365.581 251.57C364.001 252.09 362.411 252.59 360.821 253.09C359.771 253.42 358.721 253.76 357.661 254.08C355.161 254.84 352.651 255.59 350.111 256.31C349.231 256.56 348.341 256.8 347.461 257.04C345.661 257.54 343.861 258.04 342.041 258.51C340.871 258.82 339.701 259.12 338.531 259.41C336.951 259.81 335.371 260.21 333.781 260.59C332.571 260.88 331.371 261.17 330.161 261.46C328.471 261.86 326.781 262.24 325.081 262.61C323.991 262.85 322.911 263.1 321.821 263.33C319.201 263.89 316.571 264.43 313.931 264.95C312.791 265.17 311.641 265.38 310.501 265.6C308.811 265.92 307.121 266.23 305.421 266.53C304.131 266.76 302.831 266.98 301.541 267.2C299.931 267.47 298.321 267.73 296.701 267.99C295.411 268.19 294.111 268.4 292.811 268.59C290.961 268.87 289.101 269.13 287.241 269.38C285.771 269.58 284.311 269.78 282.841 269.97C280.521 270.27 278.201 270.56 275.861 270.82C274.541 270.97 273.211 271.11 271.891 271.25C270.241 271.43 268.581 271.6 266.921 271.76C265.521 271.9 264.111 272.03 262.701 272.15C261.051 272.3 259.381 272.43 257.721 272.57C256.351 272.68 254.981 272.79 253.601 272.89C251.381 273.05 249.141 273.19 246.901 273.32C245.121 273.43 243.341 273.52 241.561 273.61C239.681 273.7 237.801 273.8 235.911 273.87C234.461 273.93 233.001 273.97 231.541 274.02C229.871 274.07 228.201 274.12 226.531 274.16C225.041 274.2 223.551 274.23 222.051 274.25C220.311 274.28 218.561 274.29 216.811 274.31C215.401 274.32 214.001 274.34 212.581 274.34C209.661 274.34 206.731 274.32 203.791 274.28C202.381 274.26 200.951 274.22 199.541 274.19C197.751 274.15 195.951 274.12 194.151 274.06C192.601 274.02 191.051 273.96 189.491 273.9C187.771 273.84 186.041 273.77 184.311 273.69C182.761 273.62 181.211 273.55 179.661 273.47C179.281 273.45 178.901 273.44 178.521 273.42L174.051 374.41L304.721 439.26H432.141V502.5L480.961 526.73V439.26H660.471V539.93H960.041V479.22L416.001 231.07Z" fill="#BF63F3"/>
<path d="M159.02 85.2C168.7 86.82 178.86 87.66 189.45 87.66C199.61 87.66 209.37 86.89 218.68 85.38C268.61 77.28 305.43 47.7 319.04 0H58.7695C72.3995 47.38 109.11 76.86 159.02 85.2Z" fill="#BF63F3"/>
<path d="M178.48 273.48L185.02 125.68L416 231.07C500.12 189.54 561.53 118.91 595.21 22.47L452.85 0H401.51C355.67 85.5 262.99 127.34 113.54 103.76C77.6 98.09 38.28 88.54 0 74.79V242C35.32 252.78 70.48 260.32 102.56 265.39C128.67 269.51 153.98 272.18 178.48 273.48Z" fill="#BF63F3"/>
<path d="M184.269 273.759C182.719 273.689 181.169 273.619 179.619 273.539C181.179 273.619 182.719 273.689 184.269 273.759Z" fill="#BF63F3"/>
<path d="M266.88 271.801C265.48 271.941 264.07 272.071 262.66 272.191C264.07 272.061 265.48 271.931 266.88 271.801Z" fill="#BF63F3"/>
<path d="M246.869 273.359C245.089 273.469 243.309 273.559 241.529 273.649C243.319 273.559 245.099 273.469 246.869 273.359Z" fill="#BF63F3"/>
<path d="M194.099 274.121C192.549 274.081 190.999 274.021 189.439 273.961C190.989 274.021 192.549 274.071 194.099 274.121Z" fill="#BF63F3"/>
<path d="M203.75 274.33C202.34 274.31 200.91 274.27 199.5 274.24C200.92 274.27 202.34 274.31 203.75 274.33Z" fill="#BF63F3"/>
<path d="M275.829 270.859C274.509 271.009 273.179 271.149 271.859 271.289C273.189 271.149 274.509 271.009 275.829 270.859Z" fill="#BF63F3"/>
<path d="M226.49 274.211C225 274.251 223.51 274.281 222.01 274.301C223.51 274.281 225 274.241 226.49 274.211Z" fill="#BF63F3"/>
<path d="M376.71 247.76C375.68 248.13 374.64 248.49 373.6 248.86C374.64 248.5 375.68 248.14 376.71 247.76Z" fill="#BF63F3"/>
<path d="M333.77 260.619C332.56 260.909 331.36 261.199 330.15 261.489C331.36 261.209 332.57 260.909 333.77 260.619Z" fill="#BF63F3"/>
<path d="M402.09 237.57C401.06 238.03 400.02 238.48 398.99 238.92C400.03 238.47 401.06 238.02 402.09 237.57Z" fill="#BF63F3"/>
<path d="M350.099 256.33C349.219 256.58 348.329 256.82 347.449 257.06C348.329 256.81 349.219 256.58 350.099 256.33Z" fill="#BF63F3"/>
<path d="M342.03 258.529C340.86 258.839 339.69 259.139 338.52 259.429C339.69 259.129 340.87 258.829 342.03 258.529Z" fill="#BF63F3"/>
<path d="M409.389 234.25C408.499 234.67 407.599 235.07 406.699 235.48C407.599 235.07 408.499 234.66 409.389 234.25Z" fill="#BF63F3"/>
<path d="M385.97 244.279C385.04 244.639 384.11 245.009 383.18 245.359C384.11 244.999 385.04 244.639 385.97 244.279Z" fill="#BF63F3"/>
<path d="M305.4 266.561C304.11 266.791 302.81 267.011 301.52 267.231C302.82 267.011 304.11 266.791 305.4 266.561Z" fill="#BF63F3"/>
<path d="M296.679 268.01C295.389 268.21 294.089 268.42 292.789 268.61C294.089 268.42 295.379 268.21 296.679 268.01Z" fill="#BF63F3"/>
<path d="M287.22 269.41C285.75 269.61 284.29 269.81 282.82 270C284.29 269.81 285.76 269.61 287.22 269.41Z" fill="#BF63F3"/>
<path d="M313.92 264.98C312.78 265.2 311.63 265.41 310.49 265.63C311.63 265.41 312.78 265.21 313.92 264.98Z" fill="#BF63F3"/>
<path d="M843.221 389.701C879.171 412.311 919.571 429.431 960.001 442.251V274.661C927.691 262.591 896.311 247.491 868.561 229.131L843.221 389.701Z" fill="#BF63F3"/>
<path d="M304.68 439.33H75.4102V540H432.09V502.56L304.68 439.33Z" fill="#BF63F3"/>
<path d="M480.92 539.999H507.52L480.92 526.789V539.999Z" fill="#BF63F3"/>
<path d="M184.269 273.76C185.999 273.84 187.719 273.91 189.449 273.97C190.999 274.03 192.559 274.08 194.109 274.13C195.909 274.18 197.709 274.22 199.499 274.26C200.919 274.29 202.339 274.33 203.749 274.35C206.689 274.39 209.619 274.41 212.539 274.41C213.959 274.41 215.359 274.39 216.769 274.38C218.519 274.37 220.269 274.35 222.009 274.32C223.509 274.3 224.999 274.26 226.489 274.23C228.169 274.19 229.839 274.14 231.499 274.09C232.959 274.04 234.419 274 235.869 273.94C237.759 273.86 239.639 273.77 241.519 273.68C243.309 273.59 245.089 273.5 246.859 273.39C249.099 273.26 251.329 273.12 253.559 272.96C254.939 272.86 256.309 272.75 257.679 272.64C259.339 272.51 260.999 272.37 262.659 272.22C264.069 272.09 265.479 271.96 266.879 271.83C268.539 271.67 270.199 271.5 271.849 271.32C273.179 271.18 274.499 271.04 275.819 270.89C278.159 270.62 280.479 270.33 282.799 270.04C284.269 269.85 285.739 269.65 287.199 269.45C289.059 269.19 290.919 268.93 292.769 268.66C294.069 268.47 295.359 268.26 296.659 268.06C298.279 267.8 299.889 267.54 301.499 267.27C302.799 267.05 304.089 266.83 305.379 266.6C307.079 266.3 308.769 265.99 310.459 265.67C311.599 265.46 312.749 265.25 313.889 265.02C316.529 264.5 319.159 263.96 321.779 263.4C322.869 263.17 323.949 262.92 325.039 262.68C326.739 262.3 328.439 261.92 330.119 261.53C331.329 261.25 332.539 260.95 333.739 260.66C335.329 260.27 336.909 259.88 338.489 259.48C339.659 259.18 340.839 258.88 341.999 258.58C343.819 258.1 345.619 257.61 347.419 257.11C348.299 256.86 349.189 256.63 350.069 256.38C352.599 255.66 355.109 254.91 357.619 254.15C358.679 253.83 359.729 253.49 360.779 253.16C362.369 252.66 363.959 252.15 365.539 251.64C366.659 251.27 367.779 250.9 368.889 250.52C370.459 249.99 372.009 249.45 373.559 248.91C374.599 248.55 375.639 248.19 376.669 247.81C378.839 247.03 380.989 246.23 383.139 245.41C384.069 245.05 384.999 244.69 385.929 244.33C387.779 243.61 389.619 242.88 391.449 242.14C392.469 241.73 393.479 241.3 394.489 240.88C395.979 240.26 397.469 239.63 398.939 238.99C399.979 238.54 401.009 238.09 402.039 237.64C403.579 236.96 405.119 236.26 406.649 235.55C407.549 235.14 408.449 234.73 409.339 234.32C411.559 233.28 413.769 232.22 415.959 231.14L184.979 125.75L178.439 273.55C178.819 273.58 179.199 273.6 179.579 273.61C181.139 273.69 182.679 273.76 184.229 273.83L184.269 273.76Z" fill="#C97CF4"/>
<path d="M480.92 439.33V526.79L507.52 540H660.43V439.33H480.92Z" fill="#C97CF4"/>
<path d="M432.09 502.56V439.33H304.68L432.09 502.56Z" fill="#C97CF4"/>
<path d="M802.741 0H648.131V281.41H802.741V0Z" fill="#BF63F3"/>
</g>
<defs>
<clipPath id="clip0_287_71795">
<rect width="960.041" height="540.001" fill="white"/>
</clipPath>
</defs>
</svg>
