<svg width="96" height="96" viewBox="0 0 96 96" fill="none" xmlns="http://www.w3.org/2000/svg">
<path fill-rule="evenodd" clip-rule="evenodd" d="M21.0545 29.03C28.1545 28.63 34.4545 25.2 38.6545 20C42.8545 25.19 49.1545 28.63 56.2545 29.03C56.2745 29.49 56.2845 29.96 56.2845 30.43C56.2845 43.7 49.2245 55.32 38.6545 61.74C28.0845 55.32 21.0245 43.7 21.0245 30.43C21.0245 29.96 21.0245 29.5 21.0545 29.03Z" fill="#FCA700"/>
<path fill-rule="evenodd" clip-rule="evenodd" d="M41.6645 42.8899C48.7645 42.4899 55.0645 39.0599 59.2645 33.8599C63.4645 39.0499 69.7645 42.4899 76.8645 42.8899C76.8845 43.3499 76.8945 43.8199 76.8945 44.2899C76.8945 57.5599 69.8345 69.1799 59.2645 75.5999C48.6945 69.1799 41.6345 57.5599 41.6345 44.2899C41.6345 43.8199 41.6345 43.3599 41.6645 42.8899Z" fill="#BF63F3"/>
<path fill-rule="evenodd" clip-rule="evenodd" d="M55.5945 37.5298C54.0345 45.4398 49.9345 52.4398 44.1645 57.6298C42.5345 53.4898 41.6445 48.9898 41.6445 44.2798C41.6445 43.8198 41.6545 43.3498 41.6645 42.8898C46.9345 42.5898 51.7445 40.6398 55.5945 37.5298Z" fill="#AE2A19"/>
<path fill-rule="evenodd" clip-rule="evenodd" d="M55.5945 37.5298C54.0345 45.4398 49.9345 52.4398 44.1645 57.6298C42.5345 53.4898 41.6445 48.9898 41.6445 44.2798C41.6445 43.8198 41.6545 43.3498 41.6645 42.8898C46.9345 42.5898 51.7445 40.6398 55.5945 37.5298Z" fill="#AE2A19"/>
<path d="M79.8245 58.8401C79.4745 58.4201 78.4845 58.9301 78.6245 59.4601C78.8245 60.2101 79.1245 60.9601 79.6045 61.8701C80.2045 62.8701 80.5445 63.0101 80.8945 63.7201C81.2045 64.3001 81.5545 65.1201 81.8045 65.8401C82.0645 66.5701 82.1645 67.1701 82.1745 67.3601C82.1745 67.4201 82.1845 67.4701 82.2045 67.5301C82.2345 67.6101 82.2645 67.7801 82.2745 67.8701C82.2745 67.9301 82.3545 67.9201 82.1145 68.0901C81.6145 68.4101 80.4145 68.6001 79.3945 68.6501C77.9145 68.7801 76.9645 68.8201 76.4845 68.8501C75.3245 68.9101 74.4645 69.0701 73.6145 69.3201C73.1545 69.4601 73.1945 70.4301 73.6645 70.5201C74.5245 70.6901 75.4045 70.7701 76.5745 70.7201C77.0345 70.7001 77.9845 70.9201 79.3545 70.8601C79.5745 70.85 79.8045 70.8101 80.0145 70.7401C80.9545 70.4401 82.0545 70.2801 83.0445 69.7301C83.5445 69.4701 83.9745 68.9501 84.1045 68.5301C84.2345 68.1201 84.2245 67.9001 84.2245 67.9001C84.2245 67.9001 84.2245 67.8201 84.2245 67.6701C84.2145 67.5401 84.1945 67.3301 84.1545 67.1101C84.0745 66.6601 83.8745 66.1501 83.6445 65.6101C83.1845 64.5501 82.5645 63.4301 82.2045 62.7601C81.6645 61.7601 81.3945 61.2701 81.2345 60.9801C80.7445 60.0801 80.2945 59.4301 79.8045 58.8301L79.8245 58.8401Z" fill="#101214"/>
<path d="M12.7545 47.7503C11.8945 49.0703 11.8945 49.9103 12.1445 50.0403C12.4345 50.2003 12.9945 49.6403 13.8445 48.5403C16.2445 45.3503 20.5045 43.8703 26.0045 43.8303C27.6045 43.7803 28.7545 43.8703 29.7845 44.0903C30.8045 44.3003 31.6245 44.6303 32.3745 44.9603C33.8645 45.6603 35.0645 46.4903 36.4845 48.0103C37.6945 49.3003 38.8445 51.0703 39.6645 53.0703C40.4645 55.0703 41.0245 57.3303 40.9345 59.3403C40.8845 61.3503 39.9245 63.0103 38.7745 63.5903C37.6245 64.2103 36.4245 64.0403 35.8045 63.9203C35.4345 63.8603 35.0445 63.7603 34.6845 63.6403C34.3445 63.5603 33.9145 63.3703 33.5345 63.1203C33.1845 62.8203 33.0045 62.6403 33.1045 62.0103C33.2345 61.3803 33.7445 60.5203 34.4545 59.6903C35.1545 58.8503 36.0545 58.0103 37.0545 57.1703C38.0645 56.3403 39.1745 55.5203 40.3745 54.7703C40.9745 54.4003 41.5945 54.0303 42.2145 53.7303C42.5445 53.5803 42.7645 53.4803 43.1445 53.3803L44.1945 53.0703C47.0145 52.2803 50.0645 52.1603 52.9345 52.4803C57.0045 52.9803 60.1745 54.1903 62.6045 55.2503C65.0245 56.3503 66.7345 57.3303 67.8845 58.0303C73.3545 61.3403 77.0245 64.4503 80.8545 67.3303C81.8945 68.1303 82.7645 68.2703 82.8545 68.0003C82.9345 67.7403 82.5745 67.2703 81.6045 66.3903C78.0945 63.2303 74.4645 59.8603 68.8445 56.4303C67.7545 55.7703 66.0745 54.7203 63.7345 53.5603C61.3945 52.4103 58.3445 51.1603 54.5345 50.5003C53.2945 50.2903 52.0345 50.1803 50.7845 50.2003C48.0845 50.2103 45.1845 50.6503 42.5145 51.5503C41.0245 52.0403 39.9145 52.8203 38.7945 53.5303C37.6945 54.2703 36.6745 55.0203 35.7545 55.7903C33.9145 57.3203 32.4645 58.8403 31.7045 60.2703C31.3145 60.9803 31.1445 61.6903 31.1245 62.2103C31.1245 62.4803 31.1245 62.6803 31.1645 62.8203C31.1945 62.9603 31.2145 63.0403 31.2145 63.0403C31.2145 63.0403 31.2145 63.1503 31.3045 63.3503C31.3945 63.5503 31.5145 63.8503 31.7745 64.1403C32.2645 64.7603 33.1645 65.2803 34.2245 65.5803C35.2745 65.8903 36.6045 66.1403 38.1245 65.8403C38.8745 65.6803 39.6645 65.3503 40.3345 64.8203C41.0145 64.3003 41.5545 63.5803 41.9345 62.8003C42.7145 61.2303 42.8345 59.4203 42.6545 57.7603C42.4745 56.0803 42.0245 54.4803 41.4445 52.9903C40.3045 49.9803 38.4745 47.5603 36.8445 46.0403C35.6245 44.8903 34.4045 44.0603 33.2645 43.4603C32.1145 42.8803 31.0545 42.5203 30.1245 42.2903C29.6545 42.1703 29.2145 42.1203 28.8145 42.0403C28.4045 41.9903 28.0345 41.9703 27.6845 41.9503C27.0045 41.9203 26.4545 41.9503 25.9645 41.9403C23.0445 41.9703 20.4045 42.4403 18.1145 43.3803C16.9745 43.8703 15.9245 44.4703 15.0245 45.2103C14.1245 45.9503 13.3645 46.8103 12.7545 47.7403V47.7503Z" fill="#101214"/>
</svg>
