<svg width="976" height="561" viewBox="0 0 976 561" fill="none" xmlns="http://www.w3.org/2000/svg">
<g clip-path="url(#clip0_287_87507)">
<path d="M1046.21 -26.9277H-26.1083V585.382H1046.21V-26.9277Z" fill="#82B536"/>
<path d="M843.704 405.616C844.74 399.835 845.269 393.691 845.269 387.195C845.269 380.699 844.72 374.379 843.673 368.525C837.415 333.713 813.234 312.246 779.313 306.734C773.522 305.792 767.461 305.305 761.141 305.305C754.821 305.305 748.242 305.823 742.222 306.828C708.281 312.495 684.141 333.9 677.873 368.515C676.816 374.368 676.267 380.595 676.267 387.184C676.267 393.774 676.806 399.824 677.842 405.605C684.058 440.179 708.229 461.625 742.222 467.303C748.242 468.308 754.551 468.826 761.141 468.826C767.73 468.826 773.522 468.339 779.313 467.406C813.286 461.884 837.488 440.386 843.704 405.616Z" fill="#6A9A23"/>
<path d="M324.483 315.823C317.832 315.823 311.305 315.295 305.068 314.259C268.816 308.208 244.448 284.825 238.2 250.106C237.123 244.097 236.574 237.725 236.574 231.146C236.574 224.567 237.133 218.02 238.231 211.938C244.52 177.209 268.878 153.825 305.068 147.785C311.305 146.749 317.842 146.221 324.483 146.221C331.124 146.221 337.165 146.718 343.143 147.682C379.353 153.577 403.731 176.992 410.01 211.938C411.098 218.02 411.657 224.474 411.657 231.146C411.657 237.819 411.118 244.097 410.041 250.096C403.804 285.042 379.425 308.457 343.153 314.352C337.175 315.326 330.907 315.813 324.494 315.813L324.483 315.823ZM324.483 152.302C318.174 152.302 311.978 152.8 306.062 153.784C272.059 159.462 250.094 180.493 244.21 213.015C243.173 218.745 242.645 224.837 242.645 231.146C242.645 237.456 243.163 243.372 244.178 249.029C250.022 281.54 272.007 302.583 306.062 308.26C311.968 309.244 318.163 309.742 324.483 309.742C330.803 309.742 336.512 309.275 342.158 308.353C375.727 302.893 398.282 281.271 404.042 249.029C405.047 243.372 405.565 237.352 405.565 231.146C405.565 224.94 405.047 218.745 404.011 213.015C401.058 196.604 394.034 183.073 383.114 172.806C372.484 162.808 358.704 156.374 342.158 153.68C336.502 152.758 330.555 152.292 324.483 152.292V152.302Z" fill="#6A9A23"/>
<path d="M571.051 163.621L469.453 265.219L571.051 366.816L672.648 265.219L571.051 163.621Z" fill="#6A9A23"/>
<path d="M41.0908 441.101L-64.8047 335.206L41.0908 229.311L146.986 335.206L41.0908 441.101ZM-56.2158 335.196L41.0804 432.492L138.377 335.196L41.0804 237.899L-56.2158 335.196Z" fill="#6A9A23"/>
<path d="M269.696 366.35L349.007 503.731H190.386L269.696 366.35Z" fill="#6A9A23"/>
<path d="M937.643 119.385H768.486L853.07 -27.1133L937.643 119.385ZM779.023 113.304H927.117L853.07 -14.95L779.023 113.304Z" fill="#6A9A23"/>
<path d="M937.643 678.856H768.486L853.07 532.357L937.643 678.856ZM779.023 672.774H927.117L853.07 544.521L779.023 672.774Z" fill="#6A9A23"/>
<path d="M620.496 62.8259H461.44L460.964 60.3704C460.891 59.9767 453.256 20.6065 453.256 -20.7114C453.256 -62.0294 460.902 -95.5666 460.985 -95.8982L461.534 -98.25H625.904L623.096 -93.6292C619.056 -86.8223 611.389 -61.6564 611.389 -15.21C611.389 31.2365 618.9 52.7451 622.879 57.9046L626.65 62.7948L620.496 62.8259ZM466.476 56.7442H615.368C611.596 48.3625 605.307 27.9418 605.307 -15.2203C605.307 -58.3825 612.114 -83.2375 615.72 -92.1787H466.403C464.714 -83.9524 459.337 -55.1293 459.337 -20.7218C459.337 13.6857 464.839 47.5751 466.476 56.7442Z" fill="#6A9A23"/>
<path d="M620.496 622.299H461.44L460.964 619.843C460.891 619.449 453.256 580.079 453.256 538.761C453.256 497.443 460.902 463.906 460.985 463.574L461.534 461.223H625.904L623.096 465.843C619.056 472.65 611.389 497.816 611.389 544.263C611.389 590.709 618.9 612.218 622.879 617.377L626.65 622.267L620.496 622.299ZM466.476 616.217H615.368C611.596 607.835 605.307 587.414 605.307 544.252C605.307 501.09 612.114 476.235 615.72 467.294H466.403C464.714 475.52 459.337 504.343 459.337 538.751C459.337 573.158 464.839 607.048 466.476 616.217Z" fill="#6A9A23"/>
<path d="M194.531 192.438H37.9827C37.9827 192.438 30.3366 153.441 30.3366 111.937C30.3366 70.432 37.9827 37.4336 37.9827 37.4336H194.531C194.531 37.4336 182.388 57.4295 182.388 117.438C182.388 177.446 194.531 192.438 194.531 192.438Z" fill="#6A9A23"/>
<path d="M1014.08 441.101L908.188 335.206L1014.08 229.311L1119.98 335.206L1014.08 441.101ZM916.777 335.196L1014.07 432.492L1111.37 335.196L1014.07 237.899L916.777 335.196Z" fill="#6A9A23"/>
<path d="M274.649 449.773C274.276 450.012 274.276 452.322 274.649 452.571C275.177 452.913 275.726 453.099 276.441 453.11C277.249 453.006 277.446 452.519 277.995 452.571C278.917 452.571 280.472 453.213 280.855 453.369C280.907 453.389 280.969 453.4 281.021 453.389C281.414 453.306 283.165 452.954 284.657 453.12C285.714 453.12 286.377 453.11 286.719 453.11C287.527 453.089 288.128 452.861 288.729 452.415C289.05 452.177 289.05 450.167 288.729 449.918C288.138 449.483 287.527 449.245 286.719 449.224C286.408 449.224 285.745 448.665 284.823 448.572C284.668 448.551 284.523 448.592 284.378 448.686C283.093 449.442 281.414 449.224 281.414 449.224C281.414 449.224 278.918 449.224 277.861 449.214C277.063 449.214 276.68 449.214 276.452 449.224C275.737 449.245 275.188 449.421 274.659 449.763L274.649 449.773Z" fill="#94C748"/>
<path d="M303.845 449.773C303.472 450.012 303.472 452.322 303.845 452.571C304.373 452.913 304.922 453.099 305.637 453.11C306.445 453.006 306.642 452.519 307.191 452.571C308.113 452.571 309.667 453.213 310.051 453.369C310.103 453.389 310.165 453.4 310.216 453.389C310.61 453.306 312.361 452.954 313.853 453.12C314.91 453.12 315.573 453.11 315.915 453.11C316.723 453.089 317.324 452.861 317.925 452.415C318.246 452.177 318.246 450.167 317.925 449.918C317.334 449.483 316.723 449.245 315.915 449.224C315.604 449.224 314.941 448.665 314.019 448.572C313.863 448.551 313.718 448.592 313.563 448.686C312.278 449.442 310.6 449.224 310.6 449.224C310.6 449.224 308.103 449.224 307.046 449.214C306.248 449.214 305.865 449.214 305.637 449.224C304.922 449.245 304.373 449.421 303.845 449.763V449.773Z" fill="#94C748"/>
<path d="M333.03 449.773C332.657 450.012 332.657 452.322 333.03 452.571C333.559 452.913 334.108 453.099 334.823 453.11C335.631 453.006 335.828 452.519 336.377 452.571C337.299 452.571 338.853 453.213 339.226 453.369C339.278 453.389 339.34 453.4 339.392 453.389C339.785 453.306 341.536 452.954 343.028 453.12C344.085 453.12 344.748 453.11 345.09 453.11C345.898 453.089 346.499 452.861 347.1 452.415C347.421 452.177 347.421 450.167 347.1 449.918C346.509 449.483 345.898 449.245 345.09 449.224C344.779 449.224 344.116 448.665 343.194 448.572C343.039 448.551 342.894 448.592 342.738 448.686C341.454 449.442 339.775 449.224 339.775 449.224C339.775 449.224 337.278 449.224 336.221 449.214C335.424 449.214 335.04 449.214 334.812 449.224C334.098 449.245 333.548 449.421 333.02 449.763L333.03 449.773Z" fill="#94C748"/>
<path d="M362.216 449.773C361.843 450.012 361.843 452.322 362.216 452.571C362.744 452.913 363.294 453.099 364.008 453.11C364.817 453.006 365.013 452.519 365.563 452.571C366.485 452.571 368.039 453.213 368.422 453.369C368.474 453.389 368.536 453.4 368.588 453.389C368.982 453.306 370.732 452.954 372.224 453.12C373.281 453.12 373.944 453.11 374.286 453.11C375.094 453.089 375.695 452.861 376.296 452.415C376.617 452.177 376.617 450.167 376.296 449.918C375.706 449.483 375.094 449.245 374.286 449.224C373.975 449.224 373.312 448.665 372.39 448.572C372.235 448.551 372.09 448.592 371.934 448.686C370.65 449.442 368.971 449.224 368.971 449.224C368.971 449.224 366.474 449.224 365.417 449.214C364.62 449.214 364.236 449.214 364.008 449.224C363.294 449.245 362.744 449.421 362.216 449.763V449.773Z" fill="#94C748"/>
<path d="M391.413 449.773C391.04 450.012 391.04 452.322 391.413 452.571C391.941 452.913 392.49 453.099 393.205 453.11C394.013 453.006 394.21 452.519 394.759 452.571C395.681 452.571 397.236 453.213 397.608 453.369C397.66 453.389 397.722 453.4 397.774 453.389C398.168 453.306 399.919 452.954 401.411 453.12C402.468 453.12 403.131 453.11 403.473 453.11C404.281 453.089 404.882 452.861 405.483 452.415C405.804 452.177 405.804 450.167 405.483 449.918C404.892 449.483 404.281 449.245 403.473 449.224C403.162 449.224 402.499 448.665 401.577 448.572C401.421 448.551 401.276 448.592 401.121 448.686C399.836 449.442 398.158 449.224 398.158 449.224C398.158 449.224 395.661 449.224 394.604 449.214C393.806 449.214 393.423 449.214 393.195 449.224C392.48 449.245 391.931 449.421 391.403 449.763L391.413 449.773Z" fill="#94C748"/>
<path d="M419.221 447.297C419.117 447.691 420.485 449.556 420.971 449.473C421.655 449.38 422.256 449.069 422.847 448.478C423.406 447.701 423.158 447.225 423.572 446.759C424.194 445.961 425.572 444.655 425.882 444.272C425.934 444.22 425.955 444.158 425.976 444.096C426.1 443.619 426.442 441.589 426.722 439.858C426.784 439.258 426.773 438.708 426.784 438.367C426.784 438.025 426.784 437.776 426.784 437.61C426.763 436.802 426.535 436.191 426.09 435.6C425.851 435.279 423.841 435.279 423.593 435.6C423.158 436.191 422.919 436.802 422.899 437.61C422.899 437.921 422.36 438.636 422.215 439.32C422.184 439.444 422.215 439.568 422.287 439.693C422.588 440.252 422.619 440.926 422.515 441.413C422.422 441.91 422.246 442.231 422.246 442.231C422.246 442.231 422.059 442.739 421.769 443.319C421.479 443.899 421.054 444.541 420.785 444.904C420.381 445.453 420.143 445.691 420.018 445.847C419.604 446.292 419.386 446.759 419.231 447.318L419.221 447.297Z" fill="#94C748"/>
<path d="M423.427 420.484C423.665 420.857 425.976 420.857 426.224 420.484C426.566 419.956 426.753 419.407 426.763 418.692C426.659 417.884 426.173 417.687 426.224 417.138C426.224 416.216 426.867 414.662 427.022 414.289C427.043 414.237 427.053 414.175 427.043 414.123C426.96 413.729 426.608 411.978 426.773 410.486C426.773 409.43 426.763 408.767 426.763 408.425C426.742 407.617 426.514 407.016 426.069 406.415C425.831 406.094 423.821 406.094 423.572 406.415C423.137 407.005 422.899 407.617 422.878 408.425C422.878 408.735 422.318 409.399 422.225 410.321C422.204 410.476 422.246 410.621 422.339 410.777C423.095 412.061 422.878 413.74 422.878 413.74C422.878 413.74 422.878 416.237 422.867 417.293C422.867 418.091 422.867 418.474 422.878 418.702C422.899 419.417 423.075 419.966 423.417 420.495L423.427 420.484Z" fill="#94C748"/>
<path d="M423.427 391.297C423.665 391.67 425.976 391.67 426.224 391.297C426.566 390.769 426.753 390.22 426.763 389.505C426.659 388.697 426.173 388.5 426.224 387.951C426.224 387.029 426.867 385.475 427.022 385.091C427.043 385.04 427.053 384.978 427.043 384.926C426.96 384.532 426.608 382.781 426.773 381.289C426.773 380.232 426.763 379.569 426.763 379.227C426.742 378.419 426.514 377.818 426.069 377.217C425.831 376.896 423.821 376.896 423.572 377.217C423.137 377.808 422.899 378.419 422.878 379.227C422.878 379.538 422.318 380.201 422.225 381.123C422.204 381.279 422.246 381.424 422.339 381.579C423.095 382.864 422.878 384.542 422.878 384.542C422.878 384.542 422.878 387.039 422.867 388.096C422.867 388.894 422.867 389.277 422.878 389.505C422.899 390.22 423.075 390.769 423.417 391.297H423.427Z" fill="#94C748"/>
<path d="M423.427 362.112C423.665 362.485 425.976 362.485 426.224 362.112C426.566 361.584 426.753 361.034 426.763 360.32C426.659 359.511 426.173 359.315 426.224 358.765C426.224 357.843 426.867 356.289 427.022 355.906C427.043 355.854 427.053 355.792 427.043 355.74C426.96 355.346 426.608 353.596 426.773 352.104C426.773 351.047 426.763 350.384 426.763 350.042C426.742 349.234 426.514 348.633 426.069 348.032C425.831 347.711 423.821 347.711 423.572 348.032C423.137 348.622 422.899 349.234 422.878 350.042C422.878 350.353 422.318 351.016 422.225 351.938C422.204 352.093 422.246 352.238 422.339 352.394C423.095 353.678 422.878 355.357 422.878 355.357C422.878 355.357 422.878 357.854 422.867 358.911C422.867 359.708 422.867 360.092 422.878 360.32C422.899 361.034 423.075 361.584 423.417 362.112H423.427Z" fill="#94C748"/>
<path d="M423.427 332.916C423.665 333.289 425.976 333.289 426.224 332.916C426.566 332.388 426.753 331.839 426.763 331.124C426.659 330.316 426.173 330.119 426.224 329.57C426.224 328.647 426.867 327.093 427.022 326.72C427.043 326.669 427.053 326.606 427.043 326.555C426.96 326.161 426.608 324.41 426.773 322.918C426.773 321.861 426.763 321.198 426.763 320.856C426.742 320.048 426.514 319.447 426.069 318.846C425.831 318.525 423.821 318.525 423.572 318.846C423.137 319.437 422.899 320.048 422.878 320.856C422.878 321.167 422.318 321.83 422.225 322.752C422.204 322.908 422.246 323.053 422.339 323.208C423.095 324.493 422.878 326.171 422.878 326.171C422.878 326.171 422.878 328.668 422.867 329.725C422.867 330.523 422.867 330.906 422.878 331.134C422.899 331.849 423.075 332.398 423.417 332.926L423.427 332.916Z" fill="#94C748"/>
<path d="M423.427 303.73C423.665 304.103 425.976 304.103 426.224 303.73C426.566 303.202 426.753 302.653 426.763 301.938C426.659 301.13 426.173 300.933 426.224 300.384C426.224 299.462 426.867 297.908 427.022 297.535C427.043 297.483 427.053 297.421 427.043 297.369C426.96 296.975 426.608 295.224 426.773 293.733C426.773 292.676 426.763 292.013 426.763 291.671C426.742 290.863 426.514 290.262 426.069 289.661C425.831 289.34 423.821 289.34 423.572 289.661C423.137 290.251 422.899 290.863 422.878 291.671C422.878 291.982 422.318 292.645 422.225 293.567C422.204 293.722 422.246 293.867 422.339 294.023C423.095 295.307 422.878 296.986 422.878 296.986C422.878 296.986 422.878 299.483 422.867 300.539C422.867 301.337 422.867 301.721 422.878 301.948C422.899 302.663 423.075 303.212 423.417 303.741L423.427 303.73Z" fill="#94C748"/>
<path d="M423.447 274.493C423.665 274.918 425.975 274.908 426.244 274.607C426.607 274.162 426.835 273.727 426.949 273.157C426.97 272.484 426.566 272.193 426.752 271.748C426.98 270.94 428.171 270.049 428.462 269.893C428.503 269.873 428.534 269.831 428.555 269.79C428.627 269.489 429.176 268.039 430.254 267.345C430.907 266.754 431.373 266.464 431.611 266.309C432.171 265.936 432.502 265.511 432.813 264.9C432.979 264.558 432.264 262.682 431.839 262.6C431.072 262.455 430.326 262.537 429.539 263.024C429.239 263.211 428.285 263.159 427.384 263.822C427.239 263.926 427.125 264.071 427.053 264.257C426.752 265.055 426.286 265.76 425.923 266.309C425.55 266.847 425.25 267.231 425.25 267.231C425.25 267.231 424.846 267.821 424.452 268.588C424.058 269.355 423.685 270.308 423.52 270.888C423.25 271.758 423.209 272.193 423.147 272.452C423.022 273.25 423.147 273.913 423.468 274.504L423.447 274.493Z" fill="#94C748"/>
<path d="M447.236 261.377C446.863 261.615 446.863 263.926 447.236 264.174C447.764 264.516 448.313 264.703 449.028 264.713C449.836 264.609 450.033 264.123 450.582 264.174C451.504 264.174 453.058 264.817 453.441 264.972C453.493 264.993 453.555 265.003 453.607 264.993C454.001 264.91 455.752 264.558 457.244 264.723C458.301 264.723 458.964 264.713 459.306 264.713C460.114 264.692 460.715 264.464 461.316 264.019C461.637 263.781 461.637 261.771 461.316 261.522C460.725 261.087 460.114 260.849 459.306 260.828C458.995 260.828 458.332 260.268 457.41 260.175C457.254 260.154 457.109 260.196 456.954 260.289C455.669 261.045 453.991 260.828 453.991 260.828C453.991 260.828 451.494 260.828 450.437 260.818C449.639 260.818 449.256 260.818 449.028 260.828C448.313 260.849 447.764 261.025 447.236 261.367V261.377Z" fill="#94C748"/>
<path d="M476.431 261.377C476.058 261.615 476.058 263.926 476.431 264.174C476.96 264.516 477.509 264.703 478.224 264.713C479.032 264.609 479.229 264.123 479.778 264.174C480.7 264.174 482.254 264.817 482.627 264.972C482.679 264.993 482.741 265.003 482.793 264.993C483.186 264.91 484.937 264.558 486.429 264.723C487.486 264.723 488.149 264.713 488.491 264.713C489.299 264.692 489.9 264.464 490.501 264.019C490.822 263.781 490.822 261.771 490.501 261.522C489.91 261.087 489.299 260.849 488.491 260.828C488.18 260.828 487.517 260.268 486.595 260.175C486.44 260.154 486.295 260.196 486.139 260.289C484.854 261.045 483.176 260.828 483.176 260.828C483.176 260.828 480.679 260.828 479.622 260.818C478.825 260.818 478.441 260.818 478.213 260.828C477.498 260.849 476.949 261.025 476.421 261.367L476.431 261.377Z" fill="#94C748"/>
<path d="M505.617 261.377C505.244 261.615 505.244 263.926 505.617 264.174C506.145 264.516 506.694 264.703 507.409 264.713C508.217 264.609 508.414 264.123 508.963 264.174C509.886 264.174 511.44 264.817 511.823 264.972C511.875 264.993 511.937 265.003 511.989 264.993C512.382 264.91 514.133 264.558 515.625 264.723C516.682 264.723 517.345 264.713 517.687 264.713C518.495 264.692 519.096 264.464 519.697 264.019C520.018 263.781 520.018 261.771 519.697 261.522C519.106 261.087 518.495 260.849 517.687 260.828C517.376 260.828 516.713 260.268 515.791 260.175C515.636 260.154 515.491 260.196 515.335 260.289C514.05 261.045 512.372 260.828 512.372 260.828C512.372 260.828 509.875 260.828 508.818 260.818C508.021 260.818 507.637 260.818 507.409 260.828C506.694 260.849 506.145 261.025 505.617 261.367V261.377Z" fill="#94C748"/>
<path d="M534.803 261.377C534.43 261.615 534.43 263.926 534.803 264.174C535.331 264.516 535.88 264.703 536.595 264.713C537.403 264.609 537.6 264.123 538.149 264.174C539.071 264.174 540.625 264.817 541.009 264.972C541.06 264.993 541.123 265.003 541.174 264.993C541.568 264.91 543.319 264.558 544.811 264.723C545.868 264.723 546.531 264.713 546.873 264.713C547.681 264.692 548.282 264.464 548.883 264.019C549.204 263.781 549.204 261.771 548.883 261.522C548.292 261.087 547.681 260.849 546.873 260.828C546.562 260.828 545.899 260.268 544.977 260.175C544.821 260.154 544.676 260.196 544.521 260.289C543.236 261.045 541.558 260.828 541.558 260.828C541.558 260.828 539.061 260.828 538.004 260.818C537.206 260.818 536.823 260.818 536.595 260.828C535.88 260.849 535.331 261.025 534.803 261.367V261.377Z" fill="#94C748"/>
<path d="M830.556 181.775H783.882C767.997 181.775 755.121 194.65 755.121 210.531C755.121 226.413 767.997 239.287 783.882 239.287H830.556C846.44 239.287 859.317 226.413 859.317 210.531C859.317 194.65 846.44 181.775 830.556 181.775Z" fill="#94C748"/>
<path d="M483.011 341.195H360.041C344.157 341.195 331.28 354.07 331.28 369.951C331.28 385.832 344.157 398.707 360.041 398.707H483.011C498.895 398.707 511.772 385.832 511.772 369.951C511.772 354.07 498.895 341.195 483.011 341.195Z" fill="#94C748"/>
<path d="M383.114 22.4922H290.625C274.741 22.4922 261.864 35.3666 261.864 51.248C261.864 67.1294 274.741 80.0038 290.625 80.0038H383.114C398.998 80.0038 411.875 67.1294 411.875 51.248C411.875 35.3666 398.998 22.4922 383.114 22.4922Z" fill="#94C748"/>
<path d="M335.517 16.026C335.756 16.399 338.066 16.399 338.315 16.026C338.657 15.4976 338.843 14.9485 338.853 14.2336C338.75 13.4255 338.263 13.2286 338.315 12.6795C338.315 11.7574 338.957 10.2033 339.112 9.82C339.133 9.7682 339.144 9.70604 339.133 9.65423C339.05 9.26053 338.698 7.50959 338.864 6.01767C338.864 4.96089 338.853 4.29781 338.853 3.95591C338.833 3.14779 338.605 2.54688 338.159 1.94596C337.921 1.62478 335.911 1.62478 335.662 1.94596C335.227 2.53651 334.989 3.14779 334.968 3.95591C334.968 4.26673 334.409 4.92981 334.316 5.8519C334.295 6.00731 334.336 6.15236 334.429 6.30777C335.186 7.59248 334.968 9.27089 334.968 9.27089C334.968 9.27089 334.968 11.7678 334.958 12.8246C334.958 13.6223 334.958 14.0057 334.968 14.2336C334.979 14.9485 335.165 15.4976 335.507 16.026H335.517Z" fill="#94C748"/>
<path d="M537.311 27.3506C537.073 17.0107 534.763 17.0107 534.514 27.3506C534.172 42.0108 533.986 57.4066 533.975 77.1953C534.027 88.4158 534.172 95.4196 534.307 101.512C534.358 104.558 534.41 107.386 534.472 110.401C534.472 111.157 534.493 111.914 534.493 112.701C534.493 113.095 534.493 113.488 534.493 113.893V114.493C534.493 114.587 534.493 114.649 534.472 114.732C534.41 115.032 534.172 115.322 533.851 115.426C533.685 115.488 533.613 115.478 533.043 115.478C532.587 115.478 532.121 115.478 531.644 115.478C505.96 115.478 462.632 114.835 452.199 114.68C450.655 114.659 449.112 114.649 447.558 114.659C436.492 114.742 387.984 115.094 346.21 114.929C316.703 114.929 298.448 114.939 288.906 114.939C266.382 114.96 249.546 115.188 233.031 115.633C223.956 115.871 223.956 117.881 233.031 118.13C249.557 118.565 266.382 118.803 288.906 118.824C297.661 118.824 315.895 119.384 341.641 119.477C345.837 119.498 350.033 119.456 354.188 119.363C390.087 118.607 436.689 118.824 436.689 118.824C436.689 118.824 454.074 118.824 475.127 118.824C485.653 118.824 497.102 118.824 507.742 118.824C513.067 118.824 518.186 118.824 522.9 118.824C525.252 118.824 527.51 118.824 529.624 118.824C530.681 118.824 531.717 118.824 532.701 118.824H533.436C533.747 118.824 534.224 118.793 534.597 118.679C535.384 118.482 536.089 118.047 536.627 117.498C537.446 116.69 537.871 115.447 537.84 114.421C537.84 113.747 537.84 113.095 537.84 112.452C537.84 111.157 537.84 109.904 537.84 108.702C537.84 106.288 537.84 104.029 537.84 101.926C537.84 97.7196 537.84 94.1142 537.84 90.9956C537.84 84.7586 537.84 80.4589 537.84 77.1953C537.819 57.4066 537.643 42.0108 537.301 27.3506H537.311Z" fill="#94C748"/>
<path d="M417.812 104.248C418.341 103.377 416.714 101.74 415.833 102.269C414.59 103.025 413.419 103.947 412.052 105.284C410.601 106.89 410.56 107.605 409.482 108.599C408.612 109.469 407.317 110.537 406.146 111.448C404.913 112.381 403.836 113.21 403.421 113.52C403.194 113.717 402.976 113.924 402.779 114.142C402.51 114.432 402.064 114.919 400.282 116.743C400.645 117.074 401.256 117.634 402.044 118.359C402.665 118.939 403.422 119.654 404.261 120.452C405.317 121.446 406.561 122.658 407.669 123.86C409.679 125.86 410.933 127.103 411.575 127.756C413.119 129.279 414.435 130.253 415.875 131.071C416.662 131.517 418.082 130.097 417.636 129.31C416.818 127.87 415.844 126.564 414.321 125.01C413.73 124.409 412.881 122.783 411.192 120.959C410.923 120.659 410.601 120.4 410.259 120.182C409.151 119.467 408.032 118.566 407.079 117.706C406.954 117.602 406.84 117.489 406.727 117.385L406.561 117.23L406.499 117.178C406.436 117.126 406.374 117.074 406.312 117.022C406.198 116.919 406.105 116.825 406.043 116.753C406.157 116.66 406.229 116.598 406.229 116.598C406.229 116.598 410.384 112.453 412.135 110.702C413.637 109.19 414.362 108.464 414.797 108.019C416.134 106.662 417.056 105.481 417.812 104.237V104.248Z" fill="#94C748"/>
<path d="M241.776 104.248C242.304 103.377 240.677 101.74 239.797 102.269C238.553 103.025 237.383 103.947 236.015 105.284C234.565 106.89 234.523 107.605 233.446 108.599C232.575 109.469 231.28 110.537 230.11 111.448C228.877 112.381 227.799 113.21 227.385 113.52C227.157 113.717 226.939 113.924 226.742 114.142C226.473 114.432 226.028 114.919 224.245 116.743C224.608 117.074 225.219 117.634 226.007 118.359C226.628 118.939 227.385 119.654 228.224 120.452C229.281 121.446 230.524 122.658 231.633 123.86C233.643 125.86 234.896 127.103 235.539 127.756C237.082 129.279 238.398 130.253 239.838 131.071C240.626 131.517 242.045 130.097 241.599 129.31C240.781 127.87 239.807 126.564 238.284 125.01C237.694 124.409 236.844 122.783 235.155 120.959C234.886 120.659 234.565 120.4 234.223 120.182C233.114 119.467 231.995 118.566 231.042 117.706C230.918 117.602 230.804 117.489 230.69 117.385L230.524 117.23L230.462 117.178C230.4 117.126 230.338 117.074 230.275 117.022C230.161 116.919 230.068 116.825 230.006 116.753C230.12 116.66 230.192 116.598 230.192 116.598C230.192 116.598 234.347 112.453 236.098 110.702C237.6 109.19 238.326 108.464 238.761 108.019C240.097 106.662 241.019 105.481 241.776 104.237V104.248Z" fill="#94C748"/>
<path d="M265.605 131.339C266.475 131.868 268.112 130.241 267.584 129.36C266.827 128.117 265.905 126.946 264.569 125.579C262.963 124.128 262.248 124.087 261.253 123.009C260.383 122.139 259.316 120.844 258.404 119.673C257.948 119.083 257.524 118.523 257.182 118.067C257.006 117.839 256.861 117.632 256.726 117.456C256.612 117.301 256.436 117.083 256.508 117.124C256.529 117.104 256.529 117.104 256.519 117.114C256.498 117.114 256.488 117.135 256.415 117.114C256.374 117.114 256.343 117.093 256.332 117.052C256.384 116.948 256.125 117.156 256.819 116.441C257.814 115.384 259.026 114.141 260.228 113.032C262.227 111.022 263.471 109.768 264.123 109.126C265.646 107.582 266.62 106.267 267.439 104.826C267.884 104.039 266.465 102.62 265.677 103.065C264.237 103.884 262.932 104.858 261.378 106.381C260.777 106.971 259.15 107.821 257.327 109.509C257.026 109.779 256.767 110.1 256.55 110.442C255.835 111.55 254.934 112.669 254.074 113.623C253.97 113.747 253.856 113.861 253.752 113.975C253.607 114.13 253.473 114.275 253.338 114.42C252.975 114.793 252.633 115.146 252.312 115.467C251.66 116.119 251.1 116.679 250.665 117.114C251.256 117.725 251.608 118.088 251.608 118.088C251.608 118.088 256.923 123.413 259.171 125.662C260.684 127.164 261.409 127.889 261.854 128.324C263.212 129.661 264.393 130.583 265.636 131.339H265.605Z" fill="#94C748"/>
<path d="M271.106 510.902C270.868 502.064 268.557 502.064 268.308 510.902C268.132 517.17 268.008 523.593 267.915 530.566C267.904 531.436 267.894 532.317 267.884 533.208V533.881C267.884 534.037 267.863 533.985 267.873 534.026C267.873 534.047 267.873 534.078 267.853 534.099C267.832 534.182 267.78 534.265 267.708 534.337C267.645 534.41 267.552 534.451 267.469 534.472C267.428 534.482 267.376 534.482 267.335 534.482H266.661C265.729 534.472 264.786 534.462 263.833 534.462C260.02 534.451 256.031 534.43 251.794 534.42C232.606 534.524 227.84 535.011 214.838 534.959C192.873 534.959 155.824 534.317 146.903 534.161C145.587 534.14 144.261 534.13 142.935 534.14C133.476 534.223 91.9922 534.576 56.2689 534.41C31.0409 534.41 15.4275 534.42 7.27375 534.42C-11.9866 534.441 -26.3774 534.669 -40.5092 535.114C-48.2693 535.353 -48.2693 537.363 -40.5092 537.611C-26.3774 538.046 -11.9866 538.285 7.27375 538.305C14.7541 538.305 30.3468 538.865 52.363 538.958C55.9477 538.979 59.5325 538.937 63.0862 538.844C93.7846 538.088 133.631 538.305 133.631 538.305C133.631 538.305 193.101 538.305 218.205 538.316C237.102 538.316 246.199 538.316 251.794 538.305C256.021 538.295 260.02 538.274 263.833 538.264C264.786 538.264 265.729 538.254 266.661 538.243H267.376C267.759 538.222 268.143 538.181 268.505 538.067C269.241 537.85 269.904 537.435 270.412 536.886C270.93 536.337 271.282 535.653 271.448 534.928C271.531 534.596 271.551 534.14 271.551 533.892V533.218C271.531 532.327 271.52 531.447 271.51 530.576C271.417 523.604 271.292 517.18 271.116 510.912L271.106 510.902Z" fill="#94C748"/>
<path d="M145.245 523.716C145.774 522.846 144.147 521.209 143.266 521.738C142.023 522.494 140.852 523.416 139.485 524.753C138.034 526.358 137.993 527.073 136.915 528.078C136.045 528.949 134.75 530.016 133.579 530.927C132.346 531.86 131.269 532.689 130.855 533C130.627 533.196 130.409 533.404 130.212 533.621C129.943 533.911 129.497 534.398 127.715 536.222C128.078 536.553 128.689 537.113 129.477 537.838C130.098 538.418 130.855 539.133 131.694 539.931C132.751 540.925 133.994 542.138 135.102 543.339C137.112 545.339 138.366 546.582 139.008 547.235C140.552 548.758 141.868 549.732 143.308 550.55C144.095 550.996 145.515 549.576 145.069 548.789C144.251 547.349 143.277 546.044 141.754 544.489C141.163 543.889 140.314 542.262 138.625 540.438C138.356 540.138 138.034 539.879 137.693 539.661C136.584 538.946 135.465 538.045 134.512 537.185C134.387 537.082 134.274 536.968 134.16 536.864L133.994 536.709L133.932 536.657C133.869 536.605 133.807 536.553 133.745 536.501C133.631 536.398 133.538 536.305 133.476 536.232C133.59 536.139 133.662 536.077 133.662 536.077C133.662 536.077 137.817 531.932 139.568 530.181C141.07 528.669 141.795 527.944 142.23 527.498C143.567 526.141 144.489 524.96 145.245 523.716Z" fill="#94C748"/>
<path d="M1244.1 510.902C1243.86 502.064 1241.55 502.064 1241.3 510.902C1241.13 517.17 1241 523.593 1240.91 530.566C1240.9 531.436 1240.89 532.317 1240.88 533.208V533.881C1240.88 534.037 1240.86 533.985 1240.87 534.026C1240.87 534.047 1240.87 534.078 1240.85 534.099C1240.83 534.182 1240.77 534.265 1240.7 534.337C1240.64 534.41 1240.55 534.451 1240.46 534.472C1240.42 534.482 1240.37 534.482 1240.33 534.482H1239.65C1238.72 534.472 1237.78 534.462 1236.83 534.462C1233.01 534.451 1229.02 534.43 1224.79 534.42C1205.6 534.524 1200.83 535.011 1187.83 534.959C1165.87 534.959 1128.82 534.317 1119.9 534.161C1118.58 534.14 1117.25 534.13 1115.93 534.14C1106.47 534.223 1064.99 534.576 1029.26 534.41C1004.03 534.41 988.421 534.42 980.267 534.42C961.007 534.441 946.616 534.669 932.484 535.114C924.724 535.353 924.724 537.363 932.484 537.611C946.616 538.046 961.007 538.285 980.267 538.305C987.748 538.305 1003.34 538.865 1025.36 538.958C1028.94 538.979 1032.53 538.937 1036.08 538.844C1066.78 538.088 1106.62 538.305 1106.62 538.305C1106.62 538.305 1166.09 538.305 1191.2 538.316C1210.1 538.316 1219.19 538.316 1224.79 538.305C1229.01 538.295 1233.01 538.274 1236.83 538.264C1237.78 538.264 1238.72 538.254 1239.65 538.243H1240.37C1240.75 538.222 1241.14 538.181 1241.5 538.067C1242.23 537.85 1242.9 537.435 1243.41 536.886C1243.92 536.337 1244.28 535.653 1244.44 534.928C1244.52 534.596 1244.54 534.14 1244.54 533.892V533.218C1244.52 532.327 1244.51 531.447 1244.5 530.576C1244.41 523.604 1244.29 517.18 1244.11 510.912L1244.1 510.902Z" fill="#94C748"/>
<path d="M942.202 523.716C942.73 522.846 941.104 521.209 940.223 521.738C938.98 522.494 937.809 523.416 936.442 524.753C934.991 526.358 934.95 527.073 933.872 528.078C933.002 528.949 931.707 530.016 930.536 530.927C929.303 531.86 928.226 532.689 927.811 533C927.583 533.196 927.366 533.404 927.169 533.621C926.899 533.911 926.454 534.398 924.672 536.222C925.035 536.553 925.646 537.113 926.433 537.838C927.055 538.418 927.811 539.133 928.65 539.931C929.707 540.925 930.951 542.138 932.059 543.339C934.069 545.339 935.323 546.582 935.965 547.235C937.509 548.758 938.825 549.732 940.265 550.55C941.052 550.996 942.471 549.576 942.026 548.789C941.207 547.349 940.234 546.044 938.711 544.489C938.12 543.889 937.27 542.262 935.582 540.438C935.312 540.138 934.991 539.879 934.649 539.661C933.541 538.946 932.422 538.045 931.469 537.185C931.344 537.082 931.23 536.968 931.116 536.864L930.951 536.709L930.888 536.657C930.826 536.605 930.764 536.553 930.702 536.501C930.588 536.398 930.495 536.305 930.432 536.232C930.546 536.139 930.619 536.077 930.619 536.077C930.619 536.077 934.774 531.932 936.524 530.181C938.027 528.669 938.752 527.944 939.187 527.498C940.524 526.141 941.446 524.96 942.202 523.716Z" fill="#94C748"/>
<path d="M966.031 550.822C966.902 551.35 968.539 549.723 968.01 548.843C967.254 547.599 966.332 546.429 964.995 545.061C963.389 543.611 962.675 543.569 961.68 542.492C960.81 541.621 959.743 540.326 958.831 539.156C958.375 538.565 957.95 538.006 957.608 537.55C957.432 537.322 957.287 537.115 957.152 536.938C957.038 536.783 956.862 536.565 956.935 536.607C956.956 536.586 956.956 536.586 956.945 536.596C956.925 536.596 956.914 536.617 956.842 536.596C956.8 536.596 956.769 536.576 956.759 536.534C956.81 536.431 956.552 536.638 957.246 535.923C958.24 534.866 959.452 533.623 960.654 532.514C962.654 530.504 963.897 529.251 964.55 528.609C966.073 527.065 967.047 525.749 967.865 524.309C968.311 523.521 966.891 522.102 966.104 522.548C964.664 523.366 963.358 524.34 961.804 525.863C961.203 526.453 959.577 527.303 957.753 528.992C957.453 529.272 957.194 529.582 956.976 529.924C956.261 531.033 955.36 532.152 954.5 533.105C954.396 533.229 954.283 533.343 954.179 533.457C954.034 533.602 953.899 533.758 953.765 533.903C953.402 534.276 953.06 534.628 952.739 534.949C952.086 535.602 951.527 536.161 951.091 536.596C951.682 537.208 952.034 537.57 952.034 537.57C952.034 537.57 957.349 542.896 959.598 545.144C961.11 546.646 961.835 547.371 962.281 547.807C963.638 549.143 964.819 550.065 966.063 550.822H966.031Z" fill="#94C748"/>
<path d="M722.382 376.764L709.565 392.512L740.077 425.956L811.98 367.107L796.677 351.359L743.818 399.826L722.382 376.764Z" fill="#94C748"/>
<path d="M67.1064 109.935L54.2903 125.683L84.8022 159.127L156.715 100.279L141.412 84.5312L88.5528 132.998L67.1064 109.935Z" fill="#82B536"/>
<path d="M759.928 303.244C760.166 306.01 762.477 306.01 762.726 303.244C763.067 299.327 763.254 295.204 763.264 289.91C763.161 283.911 762.674 282.419 762.726 278.347C762.726 277.487 762.746 276.555 762.757 275.581C762.767 275.094 762.777 274.586 762.788 274.079V273.726L762.808 273.602C762.808 273.519 762.84 273.447 762.871 273.374C762.943 273.239 763.078 273.136 763.223 273.094C763.295 273.074 763.368 273.074 763.451 273.094H763.554L763.948 273.125C765.015 273.167 766.072 273.208 767.098 273.25C771.2 273.457 774.796 273.643 776.194 273.716C776.609 273.737 777.023 273.747 777.438 273.737C778.919 273.695 782.898 273.581 787.912 273.509C790.419 273.488 793.175 273.457 796.014 273.426H800.293C801.008 273.426 801.723 273.426 802.427 273.436H803.484C803.702 273.436 804.52 273.498 805.131 273.384C806.934 273.032 808.219 271.478 808.374 269.841C808.385 269.634 808.405 269.427 808.395 269.22V268.753C808.395 268.536 808.395 268.318 808.395 268.111C808.395 267.686 808.395 267.272 808.395 266.868C808.395 265.262 808.395 263.832 808.395 262.568C808.395 260.04 808.395 258.186 808.395 256.911C808.374 250.892 808.146 246.385 807.701 241.961C807.462 239.536 805.453 239.536 805.204 241.961C804.769 246.385 804.53 250.881 804.51 256.911C804.51 258.082 804.375 259.885 804.22 262.257C804.157 263.449 804.085 264.775 804.002 266.236C803.971 266.971 803.95 267.728 803.919 268.525C803.909 269.106 803.898 268.888 803.888 268.929C803.878 268.929 803.867 268.929 803.867 268.929C803.867 268.929 803.867 268.929 803.867 268.95L802.417 269.043C792.813 269.8 780.349 269.582 780.349 269.582C780.349 269.582 775.697 269.582 770.071 269.582C768.662 269.582 767.191 269.582 765.72 269.582C764.974 269.582 764.217 269.582 763.482 269.582C762.218 269.489 760.985 269.997 760.229 270.939C759.856 271.406 759.586 271.955 759.472 272.525C759.41 272.815 759.4 273.105 759.389 273.405V274.068C759.389 274.742 759.389 275.405 759.389 276.037C759.389 277.301 759.389 278.451 759.389 279.425C759.389 285.341 759.389 288.179 759.4 289.93C759.41 295.225 759.597 299.338 759.939 303.264L759.928 303.244Z" fill="#94C748"/>
<path d="M806.737 180.389C806.976 183.176 809.286 183.176 809.535 180.389C809.877 176.431 810.063 172.266 810.074 166.92C809.97 160.859 809.483 159.357 809.535 155.244C809.535 154.373 809.556 153.431 809.566 152.446C809.576 151.949 809.587 151.441 809.597 150.934C809.607 150.737 809.618 150.602 809.67 150.447C809.69 150.374 809.721 150.302 809.773 150.25C809.835 150.188 809.929 150.24 810.001 150.229L810.229 150.26H810.333L810.695 150.291C811.773 150.333 812.84 150.374 813.876 150.416C818.02 150.623 821.657 150.809 823.066 150.882C823.48 150.903 823.905 150.913 824.319 150.903C825.811 150.861 829.842 150.747 834.898 150.675C837.425 150.654 840.213 150.623 843.082 150.592H847.403C849.081 150.602 850.749 150.623 852.386 150.633C852.624 150.644 852.832 150.592 853.049 150.571C853.277 150.561 853.453 150.488 853.619 150.405C853.795 150.333 853.961 150.281 854.106 150.157C854.272 150.043 854.417 149.898 854.541 149.742C855.039 149.141 855.287 148.354 855.391 147.535C855.443 147.131 855.463 146.707 855.453 146.292C855.453 146.033 855.453 145.785 855.453 145.536C855.453 145.111 855.453 144.686 855.453 144.282C855.453 142.656 855.453 141.215 855.453 139.941C855.453 137.392 855.453 135.517 855.453 134.222C855.432 128.14 855.204 123.592 854.759 119.127C854.52 116.671 852.511 116.671 852.262 119.127C851.827 123.592 851.588 128.14 851.568 134.222C851.568 135.403 851.423 137.227 851.278 139.62C851.215 140.822 851.143 142.158 851.06 143.64C851.029 144.375 851.008 145.153 850.977 145.95C850.977 146.095 850.977 146.064 850.977 146.064H850.967H850.946C850.946 146.064 850.946 146.064 850.946 146.085C850.946 146.085 850.946 146.085 850.946 146.095H850.842L850.418 146.116L849.578 146.168C839.881 146.924 827.293 146.707 827.293 146.707C827.293 146.707 822.6 146.707 816.912 146.707C815.492 146.707 814.011 146.707 812.519 146.707C811.752 146.707 810.975 146.707 810.219 146.707C809.587 146.727 808.913 146.665 808.343 146.769C808.043 146.8 807.836 146.924 807.587 147.007C807.359 147.111 807.131 147.339 806.976 147.556C806.323 148.447 806.188 149.701 806.219 150.882C806.219 151.566 806.219 152.229 806.219 152.871C806.219 154.145 806.219 155.306 806.219 156.301C806.219 162.268 806.219 165.148 806.23 166.91C806.24 172.256 806.427 176.41 806.769 180.378L806.737 180.389Z" fill="#94C748"/>
<path d="M617.936 542.252C617.563 542.49 617.563 544.801 617.936 545.049C618.465 545.391 619.014 545.578 619.729 545.588C620.537 545.484 620.734 544.998 621.283 545.049C622.205 545.049 623.759 545.692 624.142 545.847C624.194 545.868 624.256 545.878 624.308 545.868C624.702 545.785 626.453 545.433 627.945 545.598C629.001 545.598 629.664 545.588 630.006 545.588C630.814 545.567 631.415 545.339 632.016 544.894C632.337 544.656 632.337 542.646 632.016 542.397C631.426 541.962 630.814 541.724 630.006 541.703C629.696 541.703 629.032 541.143 628.11 541.05C627.955 541.029 627.81 541.071 627.654 541.164C626.37 541.92 624.691 541.703 624.691 541.703C624.691 541.703 622.194 541.703 621.138 541.693C620.34 541.693 619.957 541.693 619.729 541.703C619.014 541.713 618.465 541.9 617.936 542.242V542.252Z" fill="#94C748"/>
<path d="M647.132 542.252C646.759 542.49 646.759 544.801 647.132 545.049C647.66 545.391 648.21 545.578 648.924 545.588C649.733 545.484 649.929 544.998 650.478 545.049C651.401 545.049 652.955 545.692 653.328 545.847C653.379 545.868 653.442 545.878 653.493 545.868C653.887 545.785 655.638 545.433 657.13 545.598C658.187 545.598 658.85 545.588 659.192 545.588C660 545.567 660.601 545.339 661.202 544.894C661.523 544.656 661.523 542.646 661.202 542.397C660.611 541.962 660 541.724 659.192 541.703C658.881 541.703 658.218 541.143 657.296 541.05C657.14 541.029 656.995 541.071 656.84 541.164C655.555 541.92 653.877 541.703 653.877 541.703C653.877 541.703 651.38 541.703 650.323 541.693C649.525 541.693 649.142 541.693 648.914 541.703C648.199 541.713 647.65 541.9 647.122 542.242L647.132 542.252Z" fill="#94C748"/>
<path d="M676.318 542.252C675.945 542.49 675.945 544.801 676.318 545.049C676.846 545.391 677.395 545.578 678.11 545.588C678.918 545.484 679.115 544.998 679.664 545.049C680.586 545.049 682.14 545.692 682.524 545.847C682.575 545.868 682.638 545.878 682.689 545.868C683.083 545.785 684.834 545.433 686.326 545.598C687.383 545.598 688.046 545.588 688.388 545.588C689.196 545.567 689.797 545.339 690.398 544.894C690.719 544.656 690.719 542.646 690.398 542.397C689.807 541.962 689.196 541.724 688.388 541.703C688.077 541.703 687.414 541.143 686.492 541.05C686.336 541.029 686.191 541.071 686.036 541.164C684.751 541.92 683.073 541.703 683.073 541.703C683.073 541.703 680.576 541.703 679.519 541.693C678.721 541.693 678.338 541.693 678.11 541.703C677.395 541.713 676.846 541.9 676.318 542.242V542.252Z" fill="#94C748"/>
<path d="M705.504 542.252C705.131 542.49 705.131 544.801 705.504 545.049C706.033 545.391 706.582 545.578 707.297 545.588C708.105 545.484 708.302 544.998 708.851 545.049C709.773 545.049 711.327 545.692 711.7 545.847C711.752 545.868 711.814 545.878 711.866 545.868C712.259 545.785 714.01 545.433 715.502 545.598C716.559 545.598 717.222 545.588 717.564 545.588C718.372 545.567 718.973 545.339 719.574 544.894C719.895 544.656 719.895 542.646 719.574 542.397C718.983 541.962 718.372 541.724 717.564 541.703C717.253 541.703 716.59 541.143 715.668 541.05C715.513 541.029 715.368 541.071 715.212 541.164C713.928 541.92 712.249 541.703 712.249 541.703C712.249 541.703 709.752 541.703 708.695 541.693C707.898 541.693 707.514 541.693 707.286 541.703C706.571 541.713 706.022 541.9 705.494 542.242L705.504 542.252Z" fill="#94C748"/>
<path d="M734.7 542.251C734.327 542.489 734.327 544.8 734.7 545.048C735.229 545.39 735.778 545.577 736.493 545.587C736.689 545.556 736.855 545.515 737 545.452C737.052 545.421 737.166 545.39 737.28 545.349C737.384 545.307 737.477 545.266 737.58 545.235C737.943 545.059 738.212 544.903 738.648 544.758C739.352 544.489 740.284 543.96 740.916 543.152C741.559 542.375 741.828 541.412 741.901 541.049C741.921 540.997 741.932 540.935 741.921 540.883C741.839 540.49 741.486 538.739 741.652 537.236C741.652 536.18 741.642 535.517 741.642 535.175C741.621 534.367 741.393 533.755 740.948 533.165C740.709 532.844 738.699 532.844 738.451 533.165C738.016 533.755 737.777 534.367 737.757 535.175C737.757 535.485 737.197 536.149 737.104 537.071C737.083 537.226 737.125 537.371 737.218 537.527C737.974 538.822 737.757 540.49 737.757 540.49C737.757 540.49 737.757 540.645 737.757 540.894C737.757 541.059 737.757 541.08 737.757 541.122C737.757 541.163 737.746 541.215 737.725 541.267C737.663 541.464 737.456 541.629 737.321 541.66C737.27 541.681 737.228 541.681 737.187 541.692C737.124 541.692 737.166 541.692 737.011 541.692C736.783 541.692 736.627 541.692 736.513 541.692C735.798 541.702 735.249 541.888 734.721 542.23L734.7 542.251Z" fill="#94C748"/>
<path d="M738.284 518.059C738.523 518.432 740.833 518.432 741.082 518.059C741.424 517.53 741.61 516.981 741.62 516.266C741.517 515.458 741.03 515.261 741.082 514.712C741.082 513.79 741.724 512.236 741.88 511.863C741.9 511.811 741.911 511.749 741.9 511.697C741.817 511.304 741.465 509.553 741.631 508.061C741.631 507.004 741.62 506.341 741.62 505.999C741.6 505.191 741.372 504.59 740.926 503.989C740.688 503.668 738.678 503.668 738.429 503.989C737.994 504.579 737.756 505.191 737.735 505.999C737.735 506.31 737.176 506.973 737.083 507.895C737.062 508.05 737.103 508.195 737.197 508.351C737.953 509.635 737.735 511.314 737.735 511.314C737.735 511.314 737.735 513.811 737.725 514.868C737.725 515.665 737.725 516.049 737.735 516.277C737.746 516.991 737.932 517.541 738.274 518.069L738.284 518.059Z" fill="#94C748"/>
<path d="M751.329 498.469C750.956 498.707 750.956 501.017 751.329 501.266C751.857 501.608 752.406 501.794 753.121 501.805C753.929 501.701 754.126 501.214 754.675 501.266C755.597 501.266 757.151 501.908 757.535 502.064C757.586 502.085 757.649 502.095 757.7 502.085C758.094 502.002 759.845 501.649 761.337 501.815C762.394 501.815 763.057 501.805 763.399 501.805C764.207 501.784 764.808 501.556 765.409 501.111C765.73 500.872 765.73 498.862 765.409 498.614C764.818 498.179 764.207 497.94 763.399 497.92C763.088 497.92 762.425 497.36 761.503 497.267C761.347 497.246 761.202 497.288 761.047 497.381C759.762 498.137 758.084 497.92 758.084 497.92C758.084 497.92 755.587 497.92 754.53 497.909C753.732 497.909 753.349 497.909 753.121 497.92C752.406 497.93 751.857 498.117 751.329 498.458V498.469Z" fill="#94C748"/>
<path d="M780.524 498.469C780.152 498.707 780.152 501.017 780.524 501.266C781.053 501.608 781.602 501.794 782.317 501.805C783.125 501.701 783.322 501.214 783.871 501.266C784.793 501.266 786.347 501.908 786.72 502.064C786.772 502.085 786.834 502.095 786.886 502.085C787.28 502.002 789.031 501.649 790.522 501.815C791.579 501.815 792.242 501.805 792.584 501.805C793.392 501.784 793.993 501.556 794.594 501.111C794.915 500.872 794.915 498.862 794.594 498.614C794.004 498.179 793.392 497.94 792.584 497.92C792.273 497.92 791.61 497.36 790.688 497.267C790.533 497.246 790.388 497.288 790.232 497.381C788.948 498.137 787.269 497.92 787.269 497.92C787.269 497.92 784.772 497.92 783.716 497.909C782.918 497.909 782.534 497.909 782.307 497.92C781.592 497.93 781.043 498.117 780.514 498.458L780.524 498.469Z" fill="#94C748"/>
<path d="M809.71 498.469C809.337 498.707 809.337 501.017 809.71 501.266C810.239 501.608 810.788 501.794 811.503 501.805C812.311 501.701 812.508 501.214 813.057 501.266C813.979 501.266 815.533 501.908 815.916 502.064C815.968 502.085 816.03 502.095 816.082 502.085C816.476 502.002 818.227 501.649 819.719 501.815C820.775 501.815 821.438 501.805 821.78 501.805C822.588 501.784 823.189 501.556 823.79 501.111C824.111 500.872 824.111 498.862 823.79 498.614C823.2 498.179 822.588 497.94 821.78 497.92C821.469 497.92 820.806 497.36 819.884 497.267C819.729 497.246 819.584 497.288 819.439 497.381C818.154 498.137 816.476 497.92 816.476 497.92C816.476 497.92 813.979 497.92 812.922 497.909C812.124 497.909 811.741 497.909 811.513 497.92C810.798 497.93 810.249 498.117 809.721 498.458L809.71 498.469Z" fill="#94C748"/>
<path d="M838.897 498.469C838.524 498.707 838.524 501.017 838.897 501.266C839.425 501.608 839.974 501.794 840.689 501.805C841.497 501.701 841.694 501.214 842.243 501.266C843.165 501.266 844.719 501.908 845.103 502.064C845.155 502.085 845.217 502.095 845.269 502.085C845.662 502.002 847.413 501.649 848.905 501.815C849.962 501.815 850.625 501.805 850.967 501.805C851.775 501.784 852.376 501.556 852.977 501.111C853.298 500.872 853.298 498.862 852.977 498.614C852.386 498.179 851.775 497.94 850.967 497.92C850.656 497.92 849.993 497.36 849.071 497.267C848.915 497.246 848.77 497.288 848.615 497.381C847.33 498.137 845.652 497.92 845.652 497.92C845.652 497.92 843.155 497.92 842.098 497.909C841.3 497.909 840.917 497.909 840.689 497.92C839.974 497.93 839.425 498.117 838.897 498.458V498.469Z" fill="#94C748"/>
<path d="M868.093 498.469C867.72 498.707 867.72 501.017 868.093 501.266C868.621 501.608 869.17 501.794 869.885 501.805C870.693 501.701 870.89 501.214 871.439 501.266C872.361 501.266 873.915 501.908 874.288 502.064C874.34 502.085 874.402 502.095 874.454 502.085C874.848 502.002 876.599 501.649 878.091 501.815C879.147 501.815 879.81 501.805 880.152 501.805C880.96 501.784 881.561 501.556 882.162 501.111C882.483 500.872 882.483 498.862 882.162 498.614C881.572 498.179 880.96 497.94 880.152 497.92C879.841 497.92 879.178 497.36 878.256 497.267C878.101 497.246 877.956 497.288 877.8 497.381C876.516 498.137 874.837 497.92 874.837 497.92C874.837 497.92 872.34 497.92 871.284 497.909C870.486 497.909 870.103 497.909 869.875 497.92C869.16 497.93 868.611 498.117 868.082 498.458L868.093 498.469Z" fill="#94C748"/>
<path d="M897.278 498.467C896.905 498.705 896.905 501.016 897.278 501.264C897.537 501.44 897.807 501.565 898.107 501.658C898.252 501.699 898.408 501.741 898.563 501.762C898.749 501.782 898.822 501.813 899.216 501.793C899.972 501.689 900.366 501.368 900.656 501.109C900.946 500.829 901.153 500.591 901.516 500.321C902.096 499.845 902.821 499.047 903.163 498.083C903.256 497.845 903.318 497.607 903.37 497.379C903.422 497.151 903.464 497.11 903.505 496.975C903.588 496.757 903.66 496.592 903.702 496.498C903.723 496.447 903.733 496.384 903.723 496.333C903.64 495.939 903.287 494.188 903.453 492.686C903.453 491.629 903.443 490.966 903.443 490.624C903.422 489.816 903.194 489.204 902.749 488.614C902.51 488.293 900.5 488.293 900.252 488.614C899.817 489.204 899.578 489.816 899.558 490.624C899.558 490.935 898.998 491.598 898.905 492.52C898.884 492.675 898.926 492.82 899.019 492.976C899.775 494.271 899.558 495.939 899.558 495.939C899.558 495.939 899.558 496.55 899.558 497.275C899.558 497.483 899.423 497.7 899.299 497.773C899.133 497.907 899.008 497.897 898.957 497.907C898.957 497.907 898.718 497.928 898.573 497.949C898.418 497.97 898.263 498.011 898.117 498.052C897.827 498.146 897.558 498.27 897.289 498.446L897.278 498.467Z" fill="#94C748"/>
<path d="M900.097 473.51C900.335 473.883 902.645 473.883 902.894 473.51C903.236 472.981 903.422 472.432 903.433 471.717C903.329 470.909 902.842 470.712 902.894 470.163C902.894 469.241 903.536 467.687 903.692 467.314C903.712 467.262 903.723 467.2 903.712 467.148C903.63 466.755 903.277 465.004 903.443 463.512C903.443 462.455 903.433 461.792 903.433 461.45C903.412 460.642 903.184 460.041 902.739 459.44C902.5 459.119 900.49 459.119 900.242 459.44C899.806 460.031 899.568 460.642 899.547 461.45C899.547 461.761 898.988 462.424 898.895 463.346C898.874 463.501 898.915 463.646 899.009 463.802C899.765 465.097 899.547 466.765 899.547 466.765C899.547 466.765 899.547 469.262 899.537 470.319C899.537 471.116 899.537 471.5 899.547 471.728C899.558 472.443 899.744 472.992 900.086 473.52L900.097 473.51Z" fill="#94C748"/>
<path d="M906.022 445.66C905.929 446.095 907.566 447.732 908.001 447.639C908.612 447.504 909.141 447.245 909.649 446.758C910.146 446.116 909.949 445.629 910.363 445.287C911.016 444.634 912.57 443.992 912.954 443.836C913.005 443.816 913.057 443.774 913.088 443.733C913.306 443.391 914.29 441.909 915.471 440.966C916.217 440.21 916.673 439.744 916.922 439.506C917.481 438.925 917.74 438.324 917.854 437.599C917.916 437.195 916.497 435.776 916.093 435.838C915.357 435.942 914.767 436.211 914.186 436.77C913.959 436.988 913.109 437.06 912.384 437.651C912.27 437.744 912.187 437.879 912.145 438.045C911.762 439.485 910.436 440.521 910.436 440.521C910.436 440.521 908.664 442.282 907.918 443.028C907.359 443.598 907.089 443.867 906.924 444.033C906.437 444.551 906.167 445.069 906.043 445.68L906.022 445.66Z" fill="#94C748"/>
<path d="M926.661 425.023C926.567 425.458 928.204 427.095 928.639 427.002C929.251 426.867 929.779 426.608 930.287 426.121C930.784 425.479 930.587 424.992 931.012 424.65C931.665 423.997 933.219 423.355 933.602 423.2C933.654 423.179 933.706 423.137 933.737 423.096C933.954 422.754 934.939 421.273 936.12 420.33C936.866 419.573 937.322 419.107 937.57 418.869C938.13 418.289 938.389 417.688 938.503 416.963C938.565 416.558 937.145 415.139 936.741 415.201C936.006 415.305 935.415 415.574 934.835 416.134C934.607 416.351 933.758 416.424 933.032 417.014C932.918 417.108 932.835 417.242 932.794 417.408C932.411 418.848 931.084 419.884 931.084 419.884C931.084 419.884 929.313 421.645 928.567 422.391C928.007 422.961 927.738 423.231 927.572 423.396C927.085 423.914 926.816 424.432 926.692 425.044L926.661 425.023Z" fill="#94C748"/>
<path d="M947.31 404.375C947.217 404.81 948.854 406.447 949.289 406.353C949.9 406.219 950.428 405.96 950.936 405.473C951.433 404.83 951.237 404.344 951.661 404.002C952.314 403.349 953.868 402.707 954.251 402.551C954.303 402.53 954.355 402.489 954.386 402.448C954.604 402.106 955.588 400.624 956.769 399.681C957.515 398.925 957.971 398.459 958.22 398.22C958.779 397.64 959.038 397.039 959.152 396.314C959.214 395.91 957.795 394.491 957.391 394.553C956.655 394.656 956.065 394.926 955.484 395.485C955.256 395.703 954.407 395.775 953.682 396.366C953.568 396.459 953.485 396.594 953.443 396.76C953.06 398.2 951.734 399.236 951.734 399.236C951.734 399.236 949.962 400.997 949.216 401.743C948.657 402.313 948.387 402.582 948.222 402.748C947.735 403.266 947.465 403.784 947.341 404.395L947.31 404.375Z" fill="#94C748"/>
<path d="M554.447 275.064C553.929 275.923 555.566 277.56 556.426 277.042C557.649 276.307 558.799 275.416 560.125 274.11C561.544 272.536 561.575 271.831 562.622 270.857C564.331 269.148 567.667 266.713 568.476 266.133C568.538 266.091 568.59 266.039 568.641 265.998L568.911 265.718C568.911 265.718 568.911 265.718 568.931 265.698C569.263 265.314 569.874 264.537 570.061 263.335C570.258 262.154 569.895 260.548 568.621 259.419C568.279 259.098 567.926 258.766 567.553 258.424C567.212 258.093 566.859 257.751 566.497 257.409C565.782 256.715 565.067 255.979 564.404 255.264C562.435 253.306 561.213 252.094 560.581 251.462C559.068 249.97 557.783 249.017 556.374 248.23C555.597 247.794 554.178 249.214 554.613 249.991C555.401 251.4 556.354 252.685 557.846 254.197C558.426 254.777 559.244 256.383 560.892 258.165C561.161 258.456 561.461 258.704 561.803 258.922C562.529 259.388 563.264 259.937 563.958 260.507C564.3 260.787 564.632 261.077 564.953 261.356C565.243 261.615 565.512 261.864 565.771 262.102C565.948 262.227 566.01 262.434 565.989 262.558C565.979 262.693 565.927 262.755 565.927 262.755C565.896 262.838 565.834 262.911 565.771 262.973L559.99 268.744C558.519 270.215 557.815 270.93 557.379 271.365C556.074 272.691 555.183 273.851 554.447 275.064Z" fill="#94C748"/>
<path d="M162.372 191.899C162.134 191.526 159.823 191.526 159.575 191.899C159.233 192.427 159.046 192.976 159.036 193.691C159.14 194.499 159.627 194.696 159.575 195.245C159.575 196.167 158.932 197.722 158.777 198.094C158.756 198.146 158.746 198.208 158.756 198.26C158.839 198.654 159.191 200.405 159.026 201.897C159.026 202.954 159.036 203.617 159.036 203.959C159.057 204.767 159.285 205.368 159.73 205.969C159.968 206.29 161.978 206.29 162.227 205.969C162.662 205.378 162.901 204.767 162.921 203.959C162.921 203.648 163.481 202.985 163.574 202.063C163.595 201.907 163.553 201.762 163.46 201.617C162.704 200.322 162.921 198.654 162.921 198.654C162.921 198.654 162.921 196.157 162.932 195.1C162.932 194.303 162.932 193.919 162.921 193.691C162.911 192.976 162.724 192.427 162.382 191.899H162.372Z" fill="#94C748"/>
<path d="M162.372 221.084C162.134 220.711 159.823 220.711 159.575 221.084C159.233 221.613 159.046 222.162 159.036 222.877C159.14 223.685 159.627 223.882 159.575 224.431C159.575 225.353 158.932 226.907 158.777 227.29C158.756 227.342 158.746 227.404 158.756 227.456C158.798 227.653 158.912 228.192 158.984 228.865C159.026 229.197 159.057 229.57 159.067 229.953C159.067 230.15 159.067 230.326 159.067 230.544C159.067 230.772 159.057 230.989 159.046 231.207C159.119 232.45 159.295 233.196 159.378 233.59C159.596 234.512 160.062 235.123 160.704 235.579C161.067 235.838 162.911 235.019 163.025 234.657C163.232 233.994 163.305 233.434 163.17 232.75C163.118 232.481 163.543 231.839 163.595 231.103C163.595 230.979 163.564 230.865 163.47 230.74C163.087 230.222 162.952 229.394 162.911 228.834C162.869 228.254 162.921 227.84 162.921 227.84C162.921 227.84 162.921 225.343 162.932 224.286C162.932 223.488 162.932 223.105 162.921 222.877C162.911 222.162 162.724 221.613 162.382 221.084H162.372Z" fill="#94C748"/>
<path d="M173.873 241.701C173.5 241.939 173.5 244.25 173.873 244.499C174.401 244.84 174.95 245.027 175.665 245.037C176.473 244.934 176.67 244.447 177.219 244.499C178.141 244.499 179.695 245.141 180.068 245.296C180.12 245.317 180.182 245.327 180.234 245.317C180.628 245.234 182.379 244.882 183.871 245.048C184.927 245.048 185.59 245.037 185.932 245.037C186.741 245.017 187.341 244.789 187.942 244.343C188.264 244.105 188.264 242.095 187.942 241.846C187.352 241.411 186.741 241.173 185.932 241.152C185.622 241.152 184.959 240.593 184.036 240.499C183.881 240.479 183.736 240.52 183.581 240.613C182.296 241.37 180.617 241.152 180.617 241.152C180.617 241.152 178.121 241.152 177.064 241.142C176.266 241.142 175.883 241.142 175.655 241.152C174.94 241.162 174.391 241.349 173.862 241.691L173.873 241.701Z" fill="#94C748"/>
<path d="M203.068 241.701C202.695 241.939 202.695 244.25 203.068 244.499C203.597 244.84 204.146 245.027 204.861 245.037C205.669 244.934 205.866 244.447 206.415 244.499C207.337 244.499 208.891 245.141 209.264 245.296C209.316 245.317 209.378 245.327 209.43 245.317C209.824 245.234 211.575 244.882 213.066 245.048C214.123 245.048 214.786 245.037 215.128 245.037C215.936 245.017 216.537 244.789 217.138 244.343C217.459 244.105 217.459 242.095 217.138 241.846C216.548 241.411 215.936 241.173 215.128 241.152C214.817 241.152 214.154 240.593 213.232 240.499C213.077 240.479 212.932 240.52 212.776 240.613C211.492 241.37 209.813 241.152 209.813 241.152C209.813 241.152 207.316 241.152 206.26 241.142C205.462 241.142 205.078 241.142 204.85 241.152C204.136 241.162 203.587 241.349 203.058 241.691L203.068 241.701Z" fill="#94C748"/>
<path d="M232.254 241.701C231.881 241.939 231.881 244.25 232.254 244.499C232.783 244.84 233.332 245.027 234.047 245.037C234.855 244.934 235.051 244.447 235.601 244.499C236.523 244.499 238.077 245.141 238.46 245.296C238.512 245.317 238.574 245.327 238.626 245.317C239.02 245.234 240.771 244.882 242.262 245.048C243.319 245.048 243.982 245.037 244.324 245.037C245.132 245.017 245.733 244.789 246.334 244.343C246.655 244.105 246.655 242.095 246.334 241.846C245.744 241.411 245.132 241.173 244.324 241.152C244.013 241.152 243.35 240.593 242.428 240.499C242.273 240.479 242.128 240.52 241.972 240.613C240.688 241.37 239.009 241.152 239.009 241.152C239.009 241.152 236.512 241.152 235.456 241.142C234.658 241.142 234.274 241.142 234.047 241.152C233.332 241.162 232.783 241.349 232.254 241.691V241.701Z" fill="#94C748"/>
<path d="M261.45 241.701C261.077 241.939 261.077 244.25 261.45 244.499C261.978 244.84 262.527 245.027 263.242 245.037C264.05 244.934 264.247 244.447 264.796 244.499C265.718 244.499 267.273 245.141 267.646 245.296C267.697 245.317 267.76 245.327 267.811 245.317C268.205 245.234 269.956 244.882 271.448 245.048C272.505 245.048 273.168 245.037 273.51 245.037C274.318 245.017 274.919 244.789 275.52 244.343C275.841 244.105 275.841 242.095 275.52 241.846C274.929 241.411 274.318 241.173 273.51 241.152C273.199 241.152 272.536 240.593 271.614 240.499C271.458 240.479 271.313 240.52 271.158 240.613C269.873 241.37 268.195 241.152 268.195 241.152C268.195 241.152 265.698 241.152 264.641 241.142C263.843 241.142 263.46 241.142 263.232 241.152C262.517 241.162 261.968 241.349 261.44 241.691L261.45 241.701Z" fill="#94C748"/>
<path d="M290.543 241.701C290.295 241.939 290.295 244.25 290.543 244.499C290.896 244.84 291.258 245.027 291.735 245.037C292.274 244.934 292.398 244.447 292.76 244.499C293.372 244.499 294.408 245.141 294.656 245.296C294.698 245.317 294.729 245.327 294.77 245.317C295.029 245.234 296.19 244.882 297.184 245.048C297.889 245.048 298.324 245.037 298.552 245.037C299.091 245.017 299.495 244.789 299.889 244.343C300.106 244.105 300.106 242.095 299.889 241.846C299.495 241.411 299.091 241.173 298.552 241.152C298.345 241.152 297.91 240.593 297.298 240.499C297.195 240.479 297.102 240.52 296.998 240.613C296.138 241.37 295.029 241.152 295.029 241.152C295.029 241.152 293.372 241.152 292.667 241.142C292.139 241.142 291.89 241.142 291.735 241.152C291.258 241.162 290.896 241.349 290.543 241.691V241.701Z" fill="#94C748"/>
<path d="M292.687 228.73C291.827 228.212 290.19 229.849 290.708 230.709C291.443 231.932 292.334 233.082 293.64 234.408C295.204 235.827 295.919 235.858 296.893 236.905C298.603 238.614 301.037 241.95 301.618 242.758C301.659 242.82 301.711 242.872 301.752 242.924C301.814 242.986 301.773 242.945 301.794 242.955C301.794 242.914 302.032 242.914 301.959 243.121C301.68 243.421 301.379 243.743 301.079 244.074C300.747 244.416 300.405 244.779 300.063 245.131C299.369 245.846 298.634 246.561 297.908 247.224C295.95 249.192 294.738 250.415 294.106 251.047C292.614 252.559 291.661 253.844 290.874 255.253C290.439 256.03 291.858 257.45 292.635 257.014C294.044 256.227 295.329 255.274 296.841 253.782C297.422 253.202 299.027 252.383 300.809 250.736C301.1 250.467 301.348 250.166 301.566 249.824C302.032 249.089 302.581 248.363 303.151 247.669C303.431 247.327 303.721 246.996 304 246.675C304.146 246.519 304.28 246.364 304.415 246.219C304.581 246.043 304.736 245.877 304.892 245.721C305.834 244.799 306.104 243.649 306.083 242.883C306.083 242.489 306.01 242.188 305.969 241.981C305.907 241.774 305.876 241.67 305.876 241.67C305.876 241.67 305.824 241.505 305.679 241.225C305.544 240.945 305.296 240.562 304.881 240.168C304.405 239.681 303.741 239.018 303.016 238.293C301.618 236.894 299.97 235.247 298.996 234.263C297.525 232.791 296.81 232.087 296.375 231.652C295.049 230.346 293.889 229.455 292.676 228.72L292.687 228.73Z" fill="#94C748"/>
<path d="M774.972 295.33C775.49 294.47 773.853 292.833 772.994 293.351C771.771 294.087 770.621 294.978 769.295 296.283C767.875 297.858 767.844 298.563 766.798 299.536C765.088 301.246 761.752 303.681 760.944 304.261C760.882 304.302 760.83 304.354 760.778 304.396C760.716 304.458 760.758 304.416 760.747 304.437C760.747 304.437 760.789 304.675 760.582 304.603C760.271 304.323 759.95 304.023 759.618 303.712C759.276 303.38 758.924 303.038 758.561 302.696C757.846 302.002 757.132 301.267 756.468 300.552C754.5 298.594 753.277 297.381 752.645 296.749C751.133 295.258 749.848 294.304 748.439 293.517C747.662 293.082 746.243 294.501 746.678 295.278C747.465 296.687 748.418 297.972 749.91 299.485C750.49 300.065 751.309 301.671 752.956 303.453C753.226 303.743 753.526 303.991 753.868 304.209C754.593 304.675 755.329 305.224 756.023 305.794C756.365 306.074 756.696 306.364 757.018 306.644C757.173 306.789 757.328 306.924 757.473 307.058C757.65 307.224 757.815 307.379 757.971 307.535C758.893 308.478 760.043 308.747 760.81 308.726C761.203 308.726 761.504 308.654 761.711 308.612C761.918 308.55 762.022 308.519 762.022 308.519C762.56 308.322 763.037 308.001 763.451 307.597L769.429 301.64C770.901 300.168 771.605 299.454 772.04 299.018C773.346 297.692 774.237 296.532 774.972 295.32V295.33Z" fill="#94C748"/>
<path d="M335.518 546.303C335.756 546.676 338.067 546.676 338.315 546.303C338.657 545.774 338.844 545.225 338.854 544.51C338.75 543.702 338.263 543.505 338.315 542.956C338.315 542.728 338.357 542.459 338.419 542.179C338.45 542.034 338.491 541.9 338.522 541.754L338.585 541.537C338.605 541.464 338.626 541.381 338.647 541.392C338.823 541.278 339.03 541.35 339.113 541.392C339.134 541.402 339.144 541.413 339.134 541.392C339.113 541.371 339.072 541.35 339.03 541.278C338.968 541.216 338.947 541.143 338.978 541.102C338.999 541.081 339.03 541.071 339.061 541.071C339.123 541.071 339.03 541.081 339.424 541.112C340.481 541.112 341.144 541.102 341.486 541.102C342.294 541.081 342.895 540.853 343.496 540.408C343.817 540.169 343.817 538.159 343.496 537.911C342.905 537.476 342.294 537.237 341.486 537.217C341.175 537.217 340.512 536.657 339.59 536.564C339.434 536.543 339.289 536.585 339.134 536.678C337.497 537.175 335.974 537.248 334.99 537.248C334.99 537.849 334.958 538.18 334.958 538.18C334.958 538.18 334.958 541.63 334.948 543.091C334.948 543.889 334.948 544.272 334.958 544.5C334.969 545.215 335.155 545.764 335.497 546.292L335.518 546.303Z" fill="#94C748"/>
<path d="M358.612 537.785C358.239 538.023 358.239 540.334 358.612 540.583C359.14 540.924 359.689 541.111 360.404 541.121C361.212 541.018 361.409 540.531 361.958 540.583C362.881 540.583 364.435 541.225 364.818 541.38C364.87 541.401 364.932 541.411 364.984 541.401C365.377 541.318 367.128 540.966 368.62 541.132C369.677 541.132 370.34 541.121 370.682 541.121C371.49 541.101 372.091 540.873 372.692 540.427C373.013 540.189 373.013 538.179 372.692 537.93C372.101 537.495 371.49 537.257 370.682 537.236C370.371 537.236 369.708 536.677 368.786 536.583C368.631 536.563 368.486 536.604 368.33 536.697C367.045 537.454 365.367 537.236 365.367 537.236C365.367 537.236 362.87 537.236 361.813 537.226C361.016 537.226 360.632 537.226 360.404 537.236C359.689 537.246 359.14 537.433 358.612 537.775V537.785Z" fill="#94C748"/>
<path d="M387.808 537.785C387.435 538.023 387.435 540.334 387.808 540.583C388.336 540.924 388.885 541.111 389.6 541.121C390.408 541.018 390.605 540.531 391.154 540.583C392.076 540.583 393.63 541.225 394.014 541.38C394.066 541.401 394.128 541.411 394.179 541.401C394.573 541.318 396.324 540.966 397.816 541.132C398.873 541.132 399.536 541.121 399.878 541.121C400.686 541.101 401.287 540.873 401.888 540.427C402.209 540.189 402.209 538.179 401.888 537.93C401.297 537.495 400.686 537.257 399.878 537.236C399.567 537.236 398.904 536.677 397.982 536.583C397.826 536.563 397.681 536.604 397.526 536.697C396.241 537.454 394.563 537.236 394.563 537.236C394.563 537.236 392.066 537.236 391.009 537.226C390.211 537.226 389.828 537.226 389.6 537.236C388.885 537.246 388.336 537.433 387.808 537.775V537.785Z" fill="#94C748"/>
<path d="M416.993 537.785C416.62 538.023 416.62 540.334 416.993 540.583C417.522 540.924 418.071 541.111 418.786 541.121C419.594 541.018 419.791 540.531 420.34 540.583C421.262 540.583 422.816 541.225 423.189 541.38C423.241 541.401 423.303 541.411 423.355 541.401C423.749 541.318 425.499 540.966 426.991 541.132C428.048 541.132 428.711 541.121 429.053 541.121C429.861 541.101 430.462 540.873 431.063 540.427C431.384 540.189 431.384 538.179 431.063 537.93C430.473 537.495 429.861 537.257 429.053 537.236C428.742 537.236 428.079 536.677 427.157 536.583C427.002 536.563 426.857 536.604 426.701 536.697C425.417 537.454 423.738 537.236 423.738 537.236C423.738 537.236 421.241 537.236 420.184 537.226C419.387 537.226 419.003 537.226 418.775 537.236C418.061 537.246 417.511 537.433 416.983 537.775L416.993 537.785Z" fill="#94C748"/>
<path d="M446.055 537.785C445.858 538.023 445.858 540.334 446.055 540.583C446.324 540.924 446.615 541.111 446.988 541.121C447.402 541.018 447.506 540.531 447.796 540.583C448.272 540.583 449.08 541.225 449.277 541.38C449.308 541.401 449.339 541.411 449.36 541.401C449.567 541.318 450.469 540.966 451.246 541.132C451.795 541.132 452.137 541.121 452.313 541.121C452.738 541.101 453.048 540.873 453.359 540.427C453.525 540.189 453.525 538.179 453.359 537.93C453.048 537.495 452.738 537.257 452.313 537.236C452.147 537.236 451.805 536.677 451.329 536.583C451.246 536.563 451.173 536.604 451.09 536.697C450.417 537.454 449.557 537.236 449.557 537.236C449.557 537.236 448.262 537.236 447.713 537.226C447.298 537.226 447.101 537.226 446.977 537.236C446.604 537.246 446.324 537.433 446.045 537.775L446.055 537.785Z" fill="#94C748"/>
<path d="M614.01 203.047C607.327 203.285 607.327 205.595 614.01 205.844C623.48 206.186 633.426 206.372 646.221 206.383C660.715 206.279 664.321 205.792 674.143 205.844C682.442 205.844 693.59 205.999 703.505 206.186H704.012C704.282 206.186 704.551 206.155 704.82 206.113C705.349 206.01 705.867 205.803 706.323 205.523C707.234 204.963 707.939 204.072 708.26 203.057C708.333 202.798 708.405 202.539 708.436 202.28C708.457 202.145 708.467 202.021 708.478 201.886V201.586C708.498 201.296 708.498 200.995 708.509 200.705C708.519 200.125 708.53 199.545 708.54 198.985C708.592 196.727 708.633 194.603 708.675 192.686C708.758 188.853 708.83 185.838 708.871 184.149C708.892 183.154 708.903 182.149 708.892 181.155C708.809 174.006 708.457 142.665 708.623 115.676C708.623 96.6125 708.612 84.8118 708.612 78.6473C708.592 64.0906 708.364 53.2224 707.918 42.5406C707.68 36.6766 705.67 36.6766 705.421 42.5406C704.986 53.212 704.748 64.0906 704.727 78.6473C704.727 84.3041 704.168 96.0841 704.075 112.723C704.054 115.438 704.095 118.142 704.188 120.825C704.945 144.022 704.727 174.13 704.727 174.13C704.727 174.13 704.727 185.361 704.727 198.965C704.727 199.814 704.727 200.674 704.727 201.544V201.7V201.752C704.727 201.783 704.717 201.814 704.717 201.855C704.696 201.917 704.686 201.99 704.655 202.042C704.603 202.166 704.499 202.27 704.396 202.353C704.282 202.425 704.157 202.477 704.012 202.487H703.505H702.842C701.951 202.487 701.07 202.487 700.179 202.487C696.615 202.487 693.051 202.487 689.611 202.487C682.732 202.487 676.37 202.487 671.625 202.487C657.348 202.487 650.469 202.487 646.252 202.498C633.467 202.518 623.511 202.694 614.041 203.036L614.01 203.047Z" fill="#94C748"/>
<path d="M691.931 48.8286C691.403 49.6989 693.03 51.3359 693.91 50.8075C695.154 50.0512 696.324 49.1291 697.692 47.7926C699.142 46.1867 699.184 45.4718 700.261 44.4772C701.132 43.5965 702.427 42.5398 703.597 41.628C704.188 41.1722 704.747 40.7474 705.203 40.4055C705.431 40.2293 705.638 40.0843 705.815 39.9496C705.97 39.8356 706.188 39.6595 706.146 39.732C706.167 39.7528 706.167 39.7528 706.156 39.7424C706.156 39.7217 706.136 39.7113 706.156 39.6388C706.156 39.5973 706.177 39.5663 706.219 39.5559C706.322 39.6077 706.115 39.3487 706.83 40.0429C707.887 41.0375 709.13 42.2497 710.238 43.4515C712.248 45.4511 713.502 46.6943 714.144 47.3471C715.688 48.8701 717.004 49.844 718.444 50.6624C719.232 51.1079 720.651 49.6885 720.205 48.9011C719.387 47.461 718.413 46.1556 716.89 44.6015C716.299 44.0006 715.45 42.374 713.761 40.5505C713.492 40.2501 713.171 39.9911 712.829 39.7735C711.72 39.0586 710.601 38.1572 709.648 37.2973C709.524 37.1937 709.41 37.0797 709.296 36.9761C709.151 36.8311 708.995 36.6964 708.85 36.5617C708.477 36.1991 708.125 35.8572 707.804 35.536C707.151 34.8833 706.592 34.3238 706.156 33.8887C705.545 34.4792 705.183 34.8315 705.183 34.8315C705.183 34.8315 699.857 40.1465 697.609 42.3947C696.107 43.9073 695.381 44.6326 694.946 45.0781C693.61 46.4353 692.688 47.6164 691.931 48.8597V48.8286Z" fill="#94C748"/>
<path d="M718.528 76.1199C719.398 76.6483 721.035 75.0217 720.507 74.1411C719.75 72.8978 718.828 71.7271 717.492 70.3595C715.886 68.909 715.171 68.8675 714.176 67.79C713.306 66.9197 712.239 65.6247 711.327 64.4539C710.395 63.221 709.566 62.1435 709.255 61.7291C709.058 61.5012 708.851 61.2836 708.634 61.0867C708.343 60.8174 707.856 60.3719 706.033 58.5898C705.701 58.9525 705.142 59.5637 704.417 60.3511C703.837 60.9728 703.122 61.7291 702.324 62.5683C701.329 63.6251 700.117 64.8684 698.915 65.9769C696.916 67.9869 695.672 69.2405 695.02 69.8829C693.497 71.4266 692.523 72.7424 691.704 74.1825C691.259 74.9699 692.678 76.3893 693.466 75.9438C694.906 75.1253 696.211 74.1514 697.765 72.6284C698.366 72.0379 699.993 71.1883 701.816 69.4995C702.117 69.2302 702.376 68.909 702.593 68.5671C703.308 67.4585 704.21 66.3396 705.069 65.3864C705.173 65.2621 705.287 65.1481 705.391 65.0341L705.546 64.858L705.598 64.7958C705.65 64.7337 705.702 64.6715 705.753 64.6093C705.857 64.4954 705.95 64.4021 706.023 64.34C706.116 64.4539 706.178 64.5265 706.178 64.5265C706.178 64.5265 710.322 68.681 712.073 70.432C713.586 71.9343 714.311 72.6595 714.757 73.0947C716.114 74.4312 717.295 75.3533 718.538 76.1096L718.528 76.1199Z" fill="#94C748"/>
<path d="M691.931 161.479C691.403 162.349 693.03 163.986 693.91 163.458C695.154 162.702 696.324 161.779 697.692 160.443C699.142 158.837 699.184 158.122 700.261 157.128C701.132 156.247 702.427 155.19 703.597 154.278C704.188 153.823 704.747 153.398 705.203 153.056C705.431 152.88 705.638 152.735 705.815 152.6C705.97 152.486 706.188 152.31 706.146 152.382C706.167 152.403 706.167 152.403 706.156 152.393C706.156 152.372 706.136 152.362 706.156 152.289C706.156 152.248 706.177 152.217 706.219 152.206C706.322 152.258 706.115 151.999 706.83 152.693C707.887 153.688 709.13 154.9 710.238 156.102C712.248 158.101 713.502 159.345 714.144 159.997C715.688 161.52 717.004 162.494 718.444 163.313C719.232 163.758 720.651 162.339 720.205 161.552C719.387 160.111 718.413 158.806 716.89 157.252C716.299 156.651 715.45 155.024 713.761 153.201C713.492 152.9 713.171 152.641 712.829 152.424C711.72 151.709 710.601 150.808 709.648 149.948C709.524 149.844 709.41 149.73 709.296 149.627C709.151 149.481 708.995 149.347 708.85 149.212C708.477 148.849 708.125 148.508 707.804 148.186C707.151 147.534 706.592 146.974 706.156 146.539C705.545 147.13 705.183 147.482 705.183 147.482C705.183 147.482 699.857 152.797 697.609 155.045C696.107 156.558 695.381 157.283 694.946 157.728C693.61 159.086 692.688 160.267 691.931 161.51V161.479Z" fill="#94C748"/>
<path d="M147.556 334.201C147.183 334.439 147.183 336.75 147.556 336.999C148.085 337.34 148.634 337.527 149.349 337.537C150.157 337.434 150.354 336.947 150.903 336.999C151.825 336.999 153.379 337.641 153.762 337.796C153.814 337.817 153.876 337.827 153.928 337.817C154.322 337.734 156.073 337.382 157.565 337.548C158.622 337.548 159.285 337.537 159.627 337.537C160.435 337.517 161.036 337.289 161.636 336.843C161.958 336.605 161.958 334.595 161.636 334.346C161.046 333.911 160.435 333.673 159.627 333.652C159.316 333.652 158.653 333.093 157.731 332.999C157.575 332.979 157.43 333.02 157.275 333.113C155.99 333.87 154.312 333.652 154.312 333.652C154.312 333.652 151.815 333.652 150.758 333.642C149.96 333.642 149.577 333.642 149.349 333.652C148.634 333.662 148.085 333.849 147.556 334.191V334.201Z" fill="#94C748"/>
<path d="M176.752 334.201C176.379 334.439 176.379 336.75 176.752 336.999C177.281 337.34 177.83 337.527 178.545 337.537C179.353 337.434 179.55 336.947 180.099 336.999C181.021 336.999 182.575 337.641 182.948 337.796C183 337.817 183.062 337.827 183.114 337.817C183.507 337.734 185.258 337.382 186.75 337.548C187.807 337.548 188.47 337.537 188.812 337.537C189.62 337.517 190.221 337.289 190.822 336.843C191.143 336.605 191.143 334.595 190.822 334.346C190.231 333.911 189.62 333.673 188.812 333.652C188.501 333.652 187.838 333.093 186.916 332.999C186.761 332.979 186.615 333.02 186.46 333.113C185.175 333.87 183.497 333.652 183.497 333.652C183.497 333.652 181 333.652 179.943 333.642C179.146 333.642 178.762 333.642 178.534 333.652C177.819 333.662 177.27 333.849 176.742 334.191L176.752 334.201Z" fill="#94C748"/>
<path d="M205.938 334.201C205.565 334.439 205.565 336.75 205.938 336.999C206.466 337.34 207.015 337.527 207.73 337.537C208.538 337.434 208.735 336.947 209.284 336.999C210.206 336.999 211.761 337.641 212.144 337.796C212.196 337.817 212.258 337.827 212.31 337.817C212.703 337.734 214.454 337.382 215.946 337.548C217.003 337.548 217.666 337.537 218.008 337.537C218.816 337.517 219.417 337.289 220.018 336.843C220.339 336.605 220.339 334.595 220.018 334.346C219.427 333.911 218.816 333.673 218.008 333.652C217.697 333.652 217.034 333.093 216.112 332.999C215.957 332.979 215.812 333.02 215.666 333.113C214.382 333.87 212.703 333.652 212.703 333.652C212.703 333.652 210.206 333.652 209.15 333.642C208.352 333.642 207.969 333.642 207.741 333.652C207.026 333.662 206.477 333.849 205.948 334.191L205.938 334.201Z" fill="#94C748"/>
<path d="M221.583 350.176C221.345 349.803 219.035 349.803 218.786 350.176C218.444 350.705 218.258 351.254 218.247 351.969C218.351 352.777 218.838 352.974 218.786 353.523C218.786 354.445 218.144 355.999 217.988 356.382C217.967 356.434 217.957 356.496 217.967 356.548C218.05 356.942 218.403 358.693 218.237 360.185C218.237 361.241 218.247 361.904 218.247 362.246C218.268 363.054 218.496 363.655 218.941 364.256C219.18 364.577 221.19 364.577 221.438 364.256C221.873 363.666 222.112 363.054 222.132 362.246C222.132 361.935 222.692 361.272 222.785 360.35C222.806 360.195 222.764 360.05 222.671 359.894C221.915 358.61 222.132 356.931 222.132 356.931C222.132 356.931 222.132 354.434 222.143 353.378C222.143 352.58 222.143 352.197 222.132 351.969C222.112 351.254 221.936 350.705 221.594 350.176H221.583Z" fill="#94C748"/>
<path d="M221.583 379.362C221.345 378.989 219.035 378.989 218.786 379.362C218.444 379.89 218.258 380.439 218.247 381.154C218.351 381.962 218.838 382.159 218.786 382.708C218.786 383.63 218.144 385.184 217.988 385.568C217.967 385.62 217.957 385.682 217.967 385.734C218.05 386.127 218.403 387.878 218.237 389.37C218.237 390.427 218.247 391.09 218.247 391.432C218.268 392.24 218.496 392.841 218.941 393.442C219.18 393.763 221.19 393.763 221.438 393.442C221.873 392.851 222.112 392.24 222.132 391.432C222.132 391.121 222.692 390.458 222.785 389.536C222.806 389.38 222.764 389.235 222.671 389.08C221.915 387.795 222.132 386.117 222.132 386.117C222.132 386.117 222.132 383.62 222.143 382.563C222.143 381.765 222.143 381.382 222.132 381.154C222.112 380.439 221.936 379.89 221.594 379.362H221.583Z" fill="#94C748"/>
<path d="M221.583 408.557C221.345 408.184 219.035 408.184 218.786 408.557C218.444 409.085 218.258 409.635 218.247 410.349C218.351 411.158 218.838 411.354 218.786 411.904C218.786 412.826 218.144 414.38 217.988 414.753C217.967 414.805 217.957 414.867 217.967 414.918C218.05 415.312 218.403 417.063 218.237 418.555C218.237 419.612 218.247 420.275 218.247 420.617C218.268 421.425 218.496 422.026 218.941 422.627C219.18 422.948 221.19 422.948 221.438 422.627C221.873 422.036 222.112 421.425 222.132 420.617C222.132 420.306 222.692 419.643 222.785 418.721C222.806 418.565 222.764 418.42 222.671 418.265C221.915 416.98 222.132 415.302 222.132 415.302C222.132 415.302 222.132 412.805 222.143 411.748C222.143 410.95 222.143 410.567 222.132 410.339C222.112 409.624 221.936 409.075 221.594 408.547L221.583 408.557Z" fill="#94C748"/>
<path d="M221.583 437.723C221.345 437.371 219.035 437.371 218.786 437.723C218.444 438.22 218.258 438.739 218.247 439.402C218.351 440.158 218.838 440.344 218.786 440.852C218.786 441.712 218.144 443.173 217.988 443.525C217.967 443.577 217.957 443.629 217.967 443.681C218.05 444.053 218.403 445.68 218.237 447.089C218.237 448.084 218.247 448.695 218.247 449.016C218.268 449.773 218.496 450.342 218.941 450.891C219.18 451.192 221.19 451.192 221.438 450.891C221.873 450.332 222.112 449.773 222.132 449.016C222.132 448.726 222.692 448.104 222.785 447.245C222.806 447.1 222.764 446.965 222.671 446.82C221.915 445.608 222.132 444.043 222.132 444.043C222.132 444.043 222.132 441.702 222.143 440.717C222.143 439.971 222.143 439.619 222.132 439.402C222.112 438.739 221.936 438.22 221.594 437.723H221.583Z" fill="#94C748"/>
<path d="M802.635 195.867L797.569 224.566H788.565L793.632 195.867H802.625H802.635Z" fill="#82B536"/>
<path d="M812.198 216.226L810.717 224.566H801.724L806.79 195.867H828.319L827.055 203.244H814.477L813.514 208.839H825.128L823.864 216.215H812.198V216.226Z" fill="#82B536"/>
<path d="M390.626 356.383L389.362 363.76H383.073L379.312 385.071H370.319L374.08 363.76H367.874L369.138 356.383H390.626Z" fill="#82B536"/>
<path d="M419.894 356.383L414.828 385.082H405.824L407.658 374.731H398.924L397.09 385.082H388.087L393.153 356.383H402.157L400.281 367.044H409.015L410.891 356.383H419.884H419.894Z" fill="#82B536"/>
<path d="M424.007 356.383H445.671L444.356 363.76H431.685L430.99 367.862H442.739L441.693 374.068H429.851L429.157 378.047H442.087L440.864 385.082H418.941L424.007 356.383Z" fill="#82B536"/>
<path d="M476.774 356.383L471.707 385.082H462.01L457.555 373.467L455.897 367.313L452.748 385.092H444.366L449.432 356.393H460.218L463.927 366.267L465.584 372.473L468.423 356.404H476.763L476.774 356.383Z" fill="#82B536"/>
<path d="M-26.3465 320.246H-17.1256L-17.2085 340.998L-8.33981 320.246H0.995066L2.52843 340.947L9.73939 320.246H19.0432L6.76591 348.945H-4.99335L-6.08121 330.814L-13.5926 348.945H-24.2537L-26.3465 320.246Z" fill="#94C748"/>
<path d="M47.5139 320.246L42.4476 348.945H33.4442L35.2781 338.595H26.5441L24.7103 348.945H15.7069L20.7732 320.246H29.7766L27.9013 330.907H36.6353L38.5106 320.246H47.5139Z" fill="#94C748"/>
<path d="M51.6273 320.246H73.2913L71.9755 327.623H59.3045L58.6104 331.726H70.3593L69.3128 337.932H57.4707L56.7765 341.91H69.7065L68.484 348.945H46.561L51.6273 320.246Z" fill="#94C748"/>
<path d="M104.394 320.246L99.3275 348.945H89.63L85.1749 337.331L83.5172 331.177L80.3676 348.955H71.9859L77.0522 320.256H87.8376L91.5467 330.13L93.2044 336.336L96.0432 320.267H104.383L104.394 320.246Z" fill="#94C748"/>
<path d="M946.647 320.246H955.868L955.785 340.998L964.653 320.246H973.999L975.532 340.947L982.743 320.246H992.047L979.769 348.945H968.021L966.933 330.814L959.421 348.945H948.76L946.667 320.246H946.647Z" fill="#94C748"/>
<path d="M304.063 56.3839L302.582 64.7242H293.578L298.645 36.0254H320.184L318.92 43.4021H306.343L305.379 48.9968H316.993L315.729 56.3736H304.063V56.3839Z" fill="#82B536"/>
<path d="M319.314 52.5382C319.314 42.8822 325.561 35.5469 336.305 35.5469C344.645 35.5469 349.37 40.3956 349.37 48.1661C349.37 57.8636 343.081 65.2403 332.42 65.2403C324.038 65.1988 319.314 60.3501 319.314 52.5279V52.5382ZM328.172 51.6265C328.172 55.2113 329.83 57.4388 333.415 57.4388C337.953 57.4388 340.491 53.4603 340.491 49.14C340.491 45.5552 338.792 43.3277 335.166 43.3277C330.669 43.3277 328.172 47.3061 328.172 51.6265Z" fill="#82B536"/>
<path d="M372.163 55.1193L376.307 64.734H366.175L363.771 56.4351H359.969L358.487 64.734H349.536L354.602 36.0352H367.49C374.743 36.0352 378.369 39.3091 378.369 45.2975C378.369 49.3589 376.318 53.2026 372.163 55.1297V55.1193ZM362.3 43.2876L361.119 49.8354H364.61C368.019 49.8354 369.148 48.2192 369.148 46.1678C369.148 44.5101 368.226 43.2876 365.739 43.2876H362.289H362.3Z" fill="#82B536"/>
</g>
<defs>
<clipPath id="clip0_287_87507">
<rect width="975.455" height="560.887" fill="white"/>
</clipPath>
</defs>
</svg>
